<?xml version="1.0" encoding="utf-8"?>
<svg width="800px" height="800px" viewBox="0 0 24 24" fill="none" xmlns="http://www.w3.org/2000/svg">
<path d="M12 2.84955C17.0537 2.84955 21.1505 6.94637 21.1505 12.0001C21.1505 17.0537 17.0537 21.1506 12 21.1506C6.94631 21.1506 2.84949 17.0537 2.84949 12.0001C2.84949 6.94637 6.94631 2.84955 12 2.84955Z" stroke="#1C1C1C" stroke-width="1.69905" stroke-linecap="round"/>
<path d="M7 12.6842H8.67217C8.75916 12.6842 8.83616 12.628 8.86266 12.5451L10.3761 7.81366C10.4405 7.61227 10.7327 7.63557 10.7643 7.84463L11.8836 15.2319C11.9146 15.4363 12.1974 15.4651 12.269 15.2712L14.0716 10.3871C14.1375 10.2086 14.3918 10.2142 14.4497 10.3954L15.1373 12.5451C15.1638 12.628 15.2408 12.6842 15.3278 12.6842H17" stroke="#1C1C1C" stroke-width="1.7" stroke-linecap="round"/>
</svg>