<?xml version="1.0" encoding="utf-8"?>
<svg width="800px" height="800px" viewBox="0 0 24 24" fill="none" xmlns="http://www.w3.org/2000/svg">
<path fill-rule="evenodd" clip-rule="evenodd" d="M12.882 4.87272V9.66059C12.882 10.3083 12.357 10.8333 11.7093 10.8333C11.0616 10.8333 10.5366 10.3083 10.5366 9.66059V4.87272C10.5366 4.22505 11.0616 3.7 11.7093 3.7C12.357 3.7 12.882 4.22504 12.882 4.87272ZM8.8366 4.87272C8.8366 3.28616 10.1228 2 11.7093 2C13.2959 2 14.582 3.28616 14.582 4.87272V9.66059C14.582 11.2471 13.2959 12.5333 11.7093 12.5333C10.1228 12.5333 8.8366 11.2471 8.8366 9.66059V4.87272ZM6.81389 9.66062C6.81389 9.19117 6.43333 8.81062 5.96389 8.81062C5.49445 8.81062 5.11389 9.19117 5.11389 9.66062C5.11389 12.2358 6.20593 13.9274 7.62177 14.9468C8.67115 15.7023 9.86608 16.0679 10.8593 16.1982V20.3015H7.40025C6.93081 20.3015 6.55025 20.6821 6.55025 21.1515C6.55025 21.6209 6.93081 22.0015 7.40025 22.0015H11.7093H16.0184C16.4879 22.0015 16.8684 21.6209 16.8684 21.1515C16.8684 20.6821 16.4879 20.3015 16.0184 20.3015H12.5593V16.1982C13.5526 16.0679 14.7475 15.7023 15.7969 14.9468C17.2127 13.9274 18.3048 12.2358 18.3048 9.66062C18.3048 9.19117 17.9242 8.81062 17.4548 8.81062C16.9853 8.81062 16.6048 9.19117 16.6048 9.66062C16.6048 11.6818 15.7817 12.8629 14.8036 13.5672C13.7821 14.3026 12.5309 14.5561 11.7093 14.5561C10.8878 14.5561 9.63653 14.3026 8.61509 13.5672C7.637 12.8629 6.81389 11.6818 6.81389 9.66062Z" fill="#1C1C1C"/>
</svg>