<?xml version="1.0" encoding="utf-8"?>
<svg width="800px" height="800px" viewBox="0 0 24 24" fill="none" xmlns="http://www.w3.org/2000/svg">
<path fill-rule="evenodd" clip-rule="evenodd" d="M5.54845 3.77673C3.55195 3.77673 1.93347 5.39521 1.93347 7.39171V16.6083C1.93347 18.6048 3.55195 20.2233 5.54845 20.2233H18.4517C20.4482 20.2233 22.0667 18.6048 22.0667 16.6083V8.31337V7.39171C22.0667 5.39521 20.4482 3.77673 18.4517 3.77673H5.54845ZM3.63347 7.39171C3.63347 6.3341 4.49084 5.47673 5.54845 5.47673H18.4517C19.5093 5.47673 20.3667 6.3341 20.3667 7.39171V8.31337V8.38503H17.53C15.5335 8.38503 13.915 10.0035 13.915 12C13.915 13.9965 15.5335 15.615 17.53 15.615H20.3667V16.6083C20.3667 17.6659 19.5093 18.5233 18.4517 18.5233H5.54845C4.49084 18.5233 3.63347 17.6659 3.63347 16.6083V7.39171ZM20.3667 13.915V10.085H17.53C16.4724 10.085 15.615 10.9424 15.615 12C15.615 13.0576 16.4724 13.915 17.53 13.915H20.3667Z" fill="#1C1C1C"/>
</svg>