<?xml version="1.0" encoding="utf-8"?>
<svg width="800px" height="800px" viewBox="0 0 64 64" xmlns="http://www.w3.org/2000/svg">

<title>male</title>

<g id="male">

<path d="M23.583,43.326l-4.139,1.881A9.389,9.389,0,0,0,14,53.775V62H50V53.775a9.389,9.389,0,0,0-5.444-8.568L41.547,43.84" style="fill:none;stroke:#000000;stroke-linecap:round;stroke-linejoin:round;stroke-width:2px"/>

<line x1="21" y1="62" x2="21" y2="57" style="fill:none;stroke:#000000;stroke-linecap:round;stroke-linejoin:round;stroke-width:2px"/>

<line x1="43" y1="62" x2="43" y2="57" style="fill:none;stroke:#000000;stroke-linecap:round;stroke-linejoin:round;stroke-width:2px"/>

<circle cx="5.5" cy="9.5" r="2.5" style="fill:none;stroke:#000000;stroke-linecap:round;stroke-linejoin:round;stroke-width:2px"/>

<circle cx="55.5" cy="32.5" r="2.5" style="fill:none;stroke:#000000;stroke-linecap:round;stroke-linejoin:round;stroke-width:2px"/>

<circle cx="59.5" cy="17.5" r="1.132"/>

<circle cx="8.5" cy="19.5" r="1.132"/>

<circle cx="13.5" cy="3.5" r="1.132"/>

<line x1="56.837" y1="7.663" x2="53.163" y2="11.337" style="fill:none;stroke:#000000;stroke-linecap:round;stroke-linejoin:round;stroke-width:2px"/>

<line x1="53.163" y1="7.663" x2="56.837" y2="11.337" style="fill:none;stroke:#000000;stroke-linecap:round;stroke-linejoin:round;stroke-width:2px"/>

<line x1="10.837" y1="37.663" x2="7.163" y2="41.337" style="fill:none;stroke:#000000;stroke-linecap:round;stroke-linejoin:round;stroke-width:2px"/>

<line x1="7.163" y1="37.663" x2="10.837" y2="41.337" style="fill:none;stroke:#000000;stroke-linecap:round;stroke-linejoin:round;stroke-width:2px"/>

<path d="M20.071,24c-.009.3-.03.5-.071.5a2.5,2.5,0,0,0-2.5,2.591,2.56,2.56,0,0,0,1.183,1.97,2.225,2.225,0,0,0,2.108.3A13.869,13.869,0,0,0,21.839,32.5" style="fill:none;stroke:#000000;stroke-linecap:round;stroke-linejoin:round;stroke-width:2px"/>

<path d="M43.076,32.5a13.978,13.978,0,0,0,1.1-3.152,2.282,2.282,0,0,0,2.093-.238,2.537,2.537,0,0,0,1.215-1.793A2.5,2.5,0,0,0,45,24.5c-.037,0-.058-.184-.068-.473" style="fill:none;stroke:#000000;stroke-linecap:round;stroke-linejoin:round;stroke-width:2px"/>

<path d="M25,5.677V4.592A2.593,2.593,0,0,1,27.592,2h9.816A2.593,2.593,0,0,1,40,4.592V5.765" style="fill:none;stroke:#000000;stroke-linecap:round;stroke-linejoin:round;stroke-width:2px"/>

<circle cx="37" cy="29" r="1"/>

<circle cx="28" cy="29" r="1"/>

<line x1="31.95" y1="51" x2="31.95" y2="61.565" style="fill:none;stroke:#000000;stroke-linecap:round;stroke-linejoin:round;stroke-width:2px"/>

<path d="M36,38H29a2,2,0,0,0-2-2l-6-4,4.6,17.583a2.416,2.416,0,0,0,3.48,1.878L32,50l4.027,1.726a2.416,2.416,0,0,0,3.351-1.938L44,32l-6,4A2,2,0,0,0,36,38Z" style="fill:none;stroke:#000000;stroke-linecap:round;stroke-linejoin:round;stroke-width:2px"/>

<path d="M44.931,24H39.463A8.463,8.463,0,0,1,31,15.537" style="fill:none;stroke:#000000;stroke-linecap:round;stroke-linejoin:round;stroke-width:2px"/>

<path d="M44.931,24H47V14.463A8.463,8.463,0,0,0,38.537,6H26.463A8.463,8.463,0,0,0,18,14.463V24h7.537a8.45,8.45,0,0,0,6.83-3.465" style="fill:none;stroke:#000000;stroke-linecap:round;stroke-linejoin:round;stroke-width:2px"/>

<line x1="36" y1="45" x2="36" y2="51" style="fill:none;stroke:#000000;stroke-linecap:round;stroke-linejoin:round;stroke-width:2px"/>

<line x1="29" y1="51" x2="29" y2="48" style="fill:none;stroke:#000000;stroke-linecap:round;stroke-linejoin:round;stroke-width:2px"/>

<path d="M22,12.592A2.593,2.593,0,0,1,24.592,10H40.408A2.593,2.593,0,0,1,43,12.592" style="fill:none;stroke:#000000;stroke-linecap:round;stroke-linejoin:round;stroke-width:2px"/>

<line x1="29" y1="45" x2="29" y2="41" style="fill:none;stroke:#000000;stroke-linecap:round;stroke-linejoin:round;stroke-width:2px"/>

<line x1="31" y1="35" x2="34" y2="35" style="fill:none;stroke:#000000;stroke-linecap:round;stroke-linejoin:round;stroke-width:2px"/>

</g>

</svg>