<?xml version="1.0" encoding="utf-8"?>
<svg width="800px" height="800px" viewBox="0 0 64 64" xmlns="http://www.w3.org/2000/svg">

<title>fish</title>

<g id="fish">

<line x1="49" y1="7" x2="49" y2="9" style="fill:none;stroke:#000000;stroke-linecap:round;stroke-linejoin:round;stroke-width:2px"/>

<line x1="49" y1="13" x2="49" y2="15" style="fill:none;stroke:#000000;stroke-linecap:round;stroke-linejoin:round;stroke-width:2px"/>

<line x1="45" y1="11" x2="47" y2="11" style="fill:none;stroke:#000000;stroke-linecap:round;stroke-linejoin:round;stroke-width:2px"/>

<line x1="51" y1="11" x2="53" y2="11" style="fill:none;stroke:#000000;stroke-linecap:round;stroke-linejoin:round;stroke-width:2px"/>

<circle cx="15.044" cy="29.014" r="1.069"/>

<circle cx="47.5" cy="54.5" r="2.5" style="fill:none;stroke:#000000;stroke-linecap:round;stroke-linejoin:round;stroke-width:2px"/>

<line x1="14" y1="9" x2="17" y2="12" style="fill:none;stroke:#000000;stroke-linecap:round;stroke-linejoin:round;stroke-width:2px"/>

<line x1="17" y1="9" x2="14" y2="12" style="fill:none;stroke:#000000;stroke-linecap:round;stroke-linejoin:round;stroke-width:2px"/>

<path d="M61.179,18.771a2,2,0,0,0-1.789-.289,25.234,25.234,0,0,0-12.846,8.924C42.181,21.068,34.1,17,25.279,17,15.01,17,5.721,22.507,2.165,30.7a2,2,0,0,0,0,1.592C5.721,40.493,15.01,46,25.279,46c8.818,0,16.9-4.068,21.265-10.406A25.234,25.234,0,0,0,59.39,44.518a1.963,1.963,0,0,0,.61.1,2,2,0,0,0,2-2V20.386A2,2,0,0,0,61.179,18.771ZM25.279,42c-8.353,0-15.89-4.186-19.071-10.5C9.389,25.186,16.926,21,25.279,21s15.89,4.186,19.071,10.5C41.169,37.814,33.632,42,25.279,42ZM58,39.711A19.407,19.407,0,0,1,48.676,31.5,19.407,19.407,0,0,1,58,23.289Z" style="fill:none;stroke:#000000;stroke-linecap:round;stroke-linejoin:round;stroke-width:2px"/>

<line x1="46.544" y1="27.406" x2="44.35" y2="31.5" style="fill:none;stroke:#000000;stroke-linecap:round;stroke-linejoin:round;stroke-width:2px"/>

<line x1="48.676" y1="31.5" x2="46.544" y2="35.594" style="fill:none;stroke:#000000;stroke-linecap:round;stroke-linejoin:round;stroke-width:2px"/>

</g>

</svg>