<?xml version="1.0" encoding="utf-8"?>
<svg width="800px" height="800px" viewBox="0 0 64 64" xmlns="http://www.w3.org/2000/svg">

<title>flag</title>

<g id="flag">

<line x1="40.837" y1="3.663" x2="37.163" y2="7.337" style="fill:none;stroke:#000000;stroke-linecap:round;stroke-linejoin:round;stroke-width:2px"/>

<line x1="37.163" y1="3.663" x2="40.837" y2="7.337" style="fill:none;stroke:#000000;stroke-linecap:round;stroke-linejoin:round;stroke-width:2px"/>

<circle cx="54.5" cy="43.5" r="2.5" style="fill:none;stroke:#000000;stroke-linecap:round;stroke-linejoin:round;stroke-width:2px"/>

<circle cx="30" cy="45" r="1"/>

<path d="M18,38.287V57a2,2,0,0,1-2,2h0a2,2,0,0,1-2-2V39.52" style="fill:none;stroke:#000000;stroke-linecap:round;stroke-linejoin:round;stroke-width:2px"/>

<path d="M14,10.734V8a2,2,0,0,1,2-2h0a2,2,0,0,1,2,2V9.5" style="fill:none;stroke:#000000;stroke-linecap:round;stroke-linejoin:round;stroke-width:2px"/>

<path d="M32,10a28.842,28.842,0,0,0-20,2V40a28.842,28.842,0,0,1,20-2c11,3,24-2,24-2V8S43,13,32,10Z" style="fill:none;stroke:#000000;stroke-linecap:round;stroke-linejoin:round;stroke-width:2px"/>

<path d="M56,12s-13,5-24,2a28.842,28.842,0,0,0-20,2" style="fill:none;stroke:#000000;stroke-linejoin:round;stroke-width:2px"/>

<path d="M12,36a28.842,28.842,0,0,1,20-2c11,3,24-2,24-2" style="fill:none;stroke:#000000;stroke-linejoin:round;stroke-width:2px"/>

<polygon points="34 18.187 29 26.313 39 26.313 34 18.187" style="fill:none;stroke:#000000;stroke-linecap:round;stroke-linejoin:round;stroke-width:2px"/>

<polygon points="34 28.813 29 20.688 39 20.688 34 28.813" style="fill:none;stroke:#000000;stroke-linecap:round;stroke-linejoin:round;stroke-width:2px"/>

<line x1="43" y1="49" x2="43" y2="51" style="fill:none;stroke:#000000;stroke-linecap:round;stroke-linejoin:round;stroke-width:2px"/>

<line x1="43" y1="55" x2="43" y2="57" style="fill:none;stroke:#000000;stroke-linecap:round;stroke-linejoin:round;stroke-width:2px"/>

<line x1="39" y1="53" x2="41" y2="53" style="fill:none;stroke:#000000;stroke-linecap:round;stroke-linejoin:round;stroke-width:2px"/>

<line x1="45" y1="53" x2="47" y2="53" style="fill:none;stroke:#000000;stroke-linecap:round;stroke-linejoin:round;stroke-width:2px"/>

</g>

</svg>