<?xml version="1.0" encoding="utf-8"?>
<svg width="800px" height="800px" viewBox="0 0 64 64" xmlns="http://www.w3.org/2000/svg">

<title>church</title>

<g id="church">

<circle cx="49" cy="7" r="2" style="fill:none;stroke:#000000;stroke-linecap:round;stroke-linejoin:round;stroke-width:2px"/>

<circle cx="44.044" cy="24.014" r="1.069"/>

<line x1="15" y1="5" x2="18" y2="8" style="fill:none;stroke:#000000;stroke-linecap:round;stroke-linejoin:round;stroke-width:2px"/>

<line x1="18" y1="5" x2="15" y2="8" style="fill:none;stroke:#000000;stroke-linecap:round;stroke-linejoin:round;stroke-width:2px"/>

<path d="M17,57.652V46a2,2,0,0,1,2-2h0a2,2,0,0,1,2,2V57.652" style="fill:none;stroke:#000000;stroke-linecap:round;stroke-linejoin:round;stroke-width:2px"/>

<path d="M47,57.652V46a2,2,0,0,0-2-2h0a2,2,0,0,0-2,2V57.652" style="fill:none;stroke:#000000;stroke-linecap:round;stroke-linejoin:round;stroke-width:2px"/>

<path d="M55,12a4,4,0,0,0-4,4V40H39V14a7,7,0,0,0-14,0V40H13V16a4,4,0,0,0-8,0V58H59V16A4,4,0,0,0,55,12Z" style="fill:none;stroke:#000000;stroke-linecap:round;stroke-linejoin:round;stroke-width:2px"/>

<path d="M34,57.652V46a2,2,0,0,0-2-2h0a2,2,0,0,0-2,2V57.652" style="fill:none;stroke:#000000;stroke-linecap:round;stroke-linejoin:round;stroke-width:2px"/>

<polygon points="32 27.187 27 35.313 37 35.313 32 27.187" style="fill:none;stroke:#000000;stroke-linecap:round;stroke-linejoin:round;stroke-width:2px"/>

<polygon points="32 37.813 27 29.688 37 29.688 32 37.813" style="fill:none;stroke:#000000;stroke-linecap:round;stroke-linejoin:round;stroke-width:2px"/>

<line x1="55" y1="24" x2="55" y2="28" style="fill:none;stroke:#000000;stroke-linecap:round;stroke-linejoin:round;stroke-width:2px"/>

<line x1="9" y1="24" x2="9" y2="28" style="fill:none;stroke:#000000;stroke-linecap:round;stroke-linejoin:round;stroke-width:2px"/>

<line x1="55" y1="31" x2="55" y2="58" style="fill:none;stroke:#000000;stroke-linecap:round;stroke-linejoin:round;stroke-width:2px"/>

<line x1="9" y1="31" x2="9" y2="58" style="fill:none;stroke:#000000;stroke-linecap:round;stroke-linejoin:round;stroke-width:2px"/>

<line x1="13" y1="40" x2="13" y2="58" style="fill:none;stroke:#000000;stroke-linejoin:round;stroke-width:2px"/>

<line x1="25" y1="40" x2="25" y2="58" style="fill:none;stroke:#000000;stroke-linejoin:round;stroke-width:2px"/>

<line x1="39" y1="40" x2="39" y2="58" style="fill:none;stroke:#000000;stroke-linejoin:round;stroke-width:2px"/>

<line x1="51" y1="40" x2="51" y2="58" style="fill:none;stroke:#000000;stroke-linejoin:round;stroke-width:2px"/>

<line x1="59" y1="21" x2="51" y2="21" style="fill:none;stroke:#000000;stroke-linejoin:round;stroke-width:2px"/>

<line x1="39" y1="22" x2="25" y2="22" style="fill:none;stroke:#000000;stroke-linejoin:round;stroke-width:2px"/>

<line x1="13" y1="21" x2="5" y2="21" style="fill:none;stroke:#000000;stroke-linejoin:round;stroke-width:2px"/>

</g>

</svg>