<?xml version="1.0" encoding="utf-8"?>
<svg width="800px" height="800px" viewBox="0 0 64 64" xmlns="http://www.w3.org/2000/svg">

<title>crown</title>

<g id="crown">

<circle cx="48.975" cy="4.5" r="1.025"/>

<circle cx="10.755" cy="20.646" r="1.025"/>

<path d="M41.542,14.042H40V13c0-1.1-.672-2-1.5-2s-1.5.9-1.5,2v1.042H33V9h1c1.1,0,2-.672,2-1.5S35.1,6,34,6H33V4.5a1.5,1.5,0,0,0-3,0V6H29c-1.1,0-2,.672-2,1.5S27.9,9,29,9h1v5.042H26V13c0-1.1-.672-2-1.5-2s-1.5.9-1.5,2v1.042h-.542a1.458,1.458,0,1,0,0,2.916H23V18c0,1.1.672,2,1.5,2s1.5-.9,1.5-2V16.958h4V34.5a1.5,1.5,0,0,0,3,0V16.958h4V18c0,1.1.672,2,1.5,2s1.5-.9,1.5-2V16.958h1.542a1.458,1.458,0,0,0,0-2.916Z" style="fill:none;stroke:#000000;stroke-linecap:round;stroke-linejoin:round;stroke-width:2px"/>

<line x1="53.137" y1="12.697" x2="53.137" y2="14.112" style="fill:none;stroke:#000000;stroke-linecap:round;stroke-linejoin:round;stroke-width:2px"/>

<line x1="53.137" y1="18.356" x2="53.137" y2="19.771" style="fill:none;stroke:#000000;stroke-linecap:round;stroke-linejoin:round;stroke-width:2px"/>

<path d="M34.4,54.587l2.506-31.059a13.932,13.932,0,0,1,2.768-.294c8.68,0,15.716,7.994,15.716,17.855a18.823,18.823,0,0,1-5.823,13.874" style="fill:none;stroke:#000000;stroke-linecap:round;stroke-linejoin:round;stroke-width:2px"/>

<line x1="49.6" y1="16.234" x2="51.014" y2="16.234" style="fill:none;stroke:#000000;stroke-linecap:round;stroke-linejoin:round;stroke-width:2px"/>

<path d="M28.469,54.587,25.962,23.528a13.932,13.932,0,0,0-2.768-.294c-8.68,0-15.716,7.994-15.716,17.855A18.849,18.849,0,0,0,13.2,54.866" style="fill:none;stroke:#000000;stroke-linecap:round;stroke-linejoin:round;stroke-width:2px"/>

<path d="M7.531,42.291a21.421,21.421,0,0,1,17.228-8.145c.589,0,1.169.03,1.743.078" style="fill:none;stroke:#000000;stroke-linecap:round;stroke-linejoin:round;stroke-width:2px"/>

<polyline points="25.786 27.975 20.697 26.447 19.158 32.234 15.038 30.025 13.371 34.146 9.731 33" style="fill:none;stroke:#000000;stroke-linejoin:round;stroke-width:2px"/>

<path d="M55.336,42.291a21.42,21.42,0,0,0-17.227-8.145c-.7,0-1.389.043-2.069.107" style="fill:none;stroke:#000000;stroke-linejoin:round;stroke-width:2px"/>

<line x1="55.259" y1="16.234" x2="56.674" y2="16.234" style="fill:none;stroke:#000000;stroke-linecap:round;stroke-linejoin:round;stroke-width:2px"/>

<rect x="13" y="55" width="37" height="5" rx="0.869" ry="0.869" style="fill:none;stroke:#000000;stroke-linecap:round;stroke-linejoin:round;stroke-width:2px"/>

<polyline points="37.081 27.975 42.17 26.447 43.709 32.234 47.83 30.025 49.496 34.146 53.137 33" style="fill:none;stroke:#000000;stroke-linecap:round;stroke-linejoin:round;stroke-width:2px"/>

<polyline points="16.553 60 19.764 55 22.674 60" style="fill:none;stroke:#000000;stroke-linecap:round;stroke-linejoin:round;stroke-width:2px"/>

<polyline points="22.674 60 25.885 55 28.796 60" style="fill:none;stroke:#000000;stroke-linecap:round;stroke-linejoin:round;stroke-width:2px"/>

<polyline points="28.796 60 32.007 55 34.917 60" style="fill:none;stroke:#000000;stroke-linecap:round;stroke-linejoin:round;stroke-width:2px"/>

<polyline points="34.917 60 38.128 55 41.039 60" style="fill:none;stroke:#000000;stroke-linecap:round;stroke-linejoin:round;stroke-width:2px"/>

<polyline points="41.039 60 44.25 55 47.16 60" style="fill:none;stroke:#000000;stroke-linecap:round;stroke-linejoin:round;stroke-width:2px"/>

</g>

</svg>