<?xml version="1.0" encoding="utf-8"?>
<svg width="800px" height="800px" viewBox="0 0 64 64" xmlns="http://www.w3.org/2000/svg">

<title>abstract-painting-ic</title>

<g id="abstract-painting-ic">

<line x1="6" y1="7" x2="6" y2="9" style="fill:none;stroke:#000000;stroke-linecap:round;stroke-linejoin:round;stroke-width:2px"/>

<line x1="6" y1="13" x2="6" y2="15" style="fill:none;stroke:#000000;stroke-linecap:round;stroke-linejoin:round;stroke-width:2px"/>

<line x1="2" y1="11" x2="4" y2="11" style="fill:none;stroke:#000000;stroke-linecap:round;stroke-linejoin:round;stroke-width:2px"/>

<line x1="8" y1="11" x2="10" y2="11" style="fill:none;stroke:#000000;stroke-linecap:round;stroke-linejoin:round;stroke-width:2px"/>

<path d="M18.151,3.6a1.069,1.069,0,1,1-1.069-1.069A1.069,1.069,0,0,1,18.151,3.6Z"/>

<rect x="16" y="12" width="37" height="49" style="fill:none;stroke:#000000;stroke-linecap:round;stroke-linejoin:round;stroke-width:2px"/>

<rect x="20" y="16" width="29" height="41" style="fill:none;stroke:#000000;stroke-linecap:round;stroke-linejoin:round;stroke-width:2px"/>

<line x1="20" y1="23.125" x2="27.044" y2="33.971" style="fill:none;stroke:#000000;stroke-linecap:round;stroke-linejoin:round;stroke-width:2px"/>

<line x1="34" y1="53.678" x2="34" y2="56.647" style="fill:none;stroke:#000000;stroke-linecap:round;stroke-linejoin:round;stroke-width:2px"/>

<polyline points="31.734 22.849 24 42 34 42 34 46.871" style="fill:none;stroke:#000000;stroke-linecap:round;stroke-linejoin:round;stroke-width:2px"/>

<path d="M46,33s-3.134,3-7,3-7-3-7-3,3.134-3,7-3S46,33,46,33Z" style="fill:none;stroke:#000000;stroke-linecap:round;stroke-linejoin:round;stroke-width:2px"/>

<circle cx="39" cy="33" r="3" style="fill:none;stroke:#000000;stroke-linecap:round;stroke-linejoin:round;stroke-width:2px"/>

<path d="M37,46l-2.5,1.5L32,46l-4,3a4,4,0,0,0,4,4h5a4,4,0,0,0,4-4Z" style="fill:none;stroke:#000000;stroke-linecap:round;stroke-linejoin:round;stroke-width:2px"/>

<path d="M42.991,16.371A7.5,7.5,0,0,1,35.5,23.5h0a7.5,7.5,0,0,1-7.486-7.033" style="fill:none;stroke:#000000;stroke-linecap:round;stroke-linejoin:round;stroke-width:2px"/>

<line x1="41" y1="49" x2="28" y2="49" style="fill:none;stroke:#000000;stroke-linejoin:round;stroke-width:2px"/>

</g>

</svg>