<?xml version="1.0" encoding="utf-8"?>
<svg width="800px" height="800px" viewBox="0 0 64 64" xmlns="http://www.w3.org/2000/svg">

<title>accordion</title>

<g id="accordion">

<ellipse cx="27.5" cy="9.5" rx="2.5" ry="1.5"/>

<line x1="29" y1="4" x2="29" y2="9.381" style="fill:none;stroke:#000000;stroke-linecap:round;stroke-linejoin:round;stroke-width:2px"/>

<ellipse cx="39.5" cy="14.5" rx="2.5" ry="1.5"/>

<line x1="41" y1="9" x2="41" y2="14.381" style="fill:none;stroke:#000000;stroke-linecap:round;stroke-linejoin:round;stroke-width:2px"/>

<ellipse cx="59.5" cy="60.5" rx="2.5" ry="1.5"/>

<line x1="61" y1="55" x2="61" y2="60.381" style="fill:none;stroke:#000000;stroke-linecap:round;stroke-linejoin:round;stroke-width:2px"/>

<rect x="10" y="28" width="8" height="4" style="fill:none;stroke:#000000;stroke-linecap:round;stroke-linejoin:round;stroke-width:2px"/>

<rect x="10" y="40" width="8" height="4" style="fill:none;stroke:#000000;stroke-linecap:round;stroke-linejoin:round;stroke-width:2px"/>

<path d="M24,16l-6,2H7.77A2.77,2.77,0,0,0,5,20.77V51.23A2.77,2.77,0,0,0,7.77,54H18l6,2h7V16Z" style="fill:none;stroke:#000000;stroke-linecap:round;stroke-linejoin:round;stroke-width:2px"/>

<polyline points="47 19 43 22 39 19 35 22 31 19 31 53 35 50 39 53 43 50" style="fill:none;stroke:#000000;stroke-linecap:round;stroke-linejoin:round;stroke-width:2px"/>

<polygon points="47.913 53.761 54.865 54.576 59.053 18.82 52.101 18.006 52.334 16.019 47.368 15.438 42.714 55.166 47.68 55.748 47.913 53.761" style="fill:none;stroke:#000000;stroke-linecap:round;stroke-linejoin:round;stroke-width:2px"/>

<polyline points="55.405 47.591 48.727 46.809 51.287 24.958 57.935 25.737" style="fill:none;stroke:#000000;stroke-linecap:round;stroke-linejoin:round;stroke-width:2px"/>

<circle cx="54.794" cy="29.397" r="1.073"/>

<circle cx="54.329" cy="33.369" r="1.073"/>

<circle cx="53.863" cy="37.342" r="1.073"/>

<circle cx="53.398" cy="41.315" r="1.073"/>

<line x1="5" y1="24" x2="18" y2="24" style="fill:none;stroke:#000000;stroke-linejoin:round;stroke-width:2px"/>

<line x1="5" y1="30" x2="10" y2="30" style="fill:none;stroke:#000000;stroke-linejoin:round;stroke-width:2px"/>

<line x1="5" y1="36" x2="18" y2="36" style="fill:none;stroke:#000000;stroke-linejoin:round;stroke-width:2px"/>

<line x1="5" y1="42" x2="10" y2="42" style="fill:none;stroke:#000000;stroke-linejoin:round;stroke-width:2px"/>

<line x1="5" y1="48" x2="18" y2="48" style="fill:none;stroke:#000000;stroke-linejoin:round;stroke-width:2px"/>

<line x1="24" y1="16" x2="24" y2="56" style="fill:none;stroke:#000000;stroke-linejoin:round;stroke-width:2px"/>

<line x1="18" y1="18" x2="18" y2="54" style="fill:none;stroke:#000000;stroke-linecap:round;stroke-linejoin:round;stroke-width:2px"/>

<line x1="43" y1="22" x2="43" y2="50" style="fill:none;stroke:#000000;stroke-linecap:round;stroke-linejoin:round;stroke-width:2px"/>

<line x1="35" y1="22" x2="35" y2="50" style="fill:none;stroke:#000000;stroke-linecap:round;stroke-linejoin:round;stroke-width:2px"/>

<line x1="39" y1="19" x2="39" y2="53" style="fill:none;stroke:#000000;stroke-linecap:round;stroke-linejoin:round;stroke-width:2px"/>

</g>

</svg>