<?xml version="1.0" encoding="utf-8"?>
<svg width="800px" height="800px" viewBox="0 0 64 64" xmlns="http://www.w3.org/2000/svg">

<title>bambus</title>

<g id="bambus">

<path d="M5,61H5a4,4,0,0,1,4-4H56a4,4,0,0,1,4,4h0" style="fill:none;stroke:#000000;stroke-linecap:round;stroke-linejoin:round;stroke-width:2px"/>

<circle cx="51.5" cy="7.5" r="2.5" style="fill:none;stroke:#000000;stroke-linecap:round;stroke-linejoin:round;stroke-width:2px"/>

<line x1="49.837" y1="26.663" x2="46.163" y2="30.337" style="fill:none;stroke:#000000;stroke-linecap:round;stroke-linejoin:round;stroke-width:2px"/>

<line x1="46.163" y1="26.663" x2="49.837" y2="30.337" style="fill:none;stroke:#000000;stroke-linecap:round;stroke-linejoin:round;stroke-width:2px"/>

<line x1="8" y1="8" x2="8" y2="10" style="fill:none;stroke:#000000;stroke-linecap:round;stroke-linejoin:round;stroke-width:2px"/>

<line x1="8" y1="14" x2="8" y2="16" style="fill:none;stroke:#000000;stroke-linecap:round;stroke-linejoin:round;stroke-width:2px"/>

<line x1="4" y1="12" x2="6" y2="12" style="fill:none;stroke:#000000;stroke-linecap:round;stroke-linejoin:round;stroke-width:2px"/>

<line x1="10" y1="12" x2="12" y2="12" style="fill:none;stroke:#000000;stroke-linecap:round;stroke-linejoin:round;stroke-width:2px"/>

<circle cx="59.239" cy="23.082" r="1.069"/>

<circle cx="23.239" cy="18.082" r="1.069"/>

<circle cx="5.239" cy="30.082" r="1.069"/>

<circle cx="12.239" cy="43.082" r="1.069"/>

<ellipse cx="20.141" cy="33.718" rx="2.057" ry="4.982" transform="matrix(0.548, -0.836, 0.836, 0.548, -19.1, 32.08)" style="fill:none;stroke:#000000;stroke-linecap:round;stroke-linejoin:round;stroke-width:2px"/>

<ellipse cx="44.141" cy="39.718" rx="4.982" ry="2.057" transform="translate(-14.549 30.697) rotate(-33.243)" style="fill:none;stroke:#000000;stroke-linecap:round;stroke-linejoin:round;stroke-width:2px"/>

<ellipse cx="44.141" cy="45.718" rx="2.057" ry="4.982" transform="translate(-18.293 57.574) rotate(-56.757)" style="fill:none;stroke:#000000;stroke-linecap:round;stroke-linejoin:round;stroke-width:2px"/>

<path d="M39.086,19.822A6.761,6.761,0,0,1,42.014,16a6.433,6.433,0,0,1,5.294-1.011,6.436,6.436,0,0,1-3.039,4.451,6.549,6.549,0,0,1-5.086,1.072" style="fill:none;stroke:#000000;stroke-linecap:round;stroke-linejoin:round;stroke-width:2px"/>

<path d="M34.911,10a7.15,7.15,0,0,0-2.642-3,6.433,6.433,0,0,0-5.294-1.011,6.433,6.433,0,0,0,3.039,4.451A6.768,6.768,0,0,0,34.662,11.6" style="fill:none;stroke:#000000;stroke-linecap:round;stroke-linejoin:round;stroke-width:2px"/>

<rect x="25" y="27" width="4" height="30" style="fill:none;stroke:#000000;stroke-linecap:round;stroke-linejoin:round;stroke-width:2px"/>

<polyline points="35 56.69 35 7 39 7 39 56.69" style="fill:none;stroke:#000000;stroke-linecap:round;stroke-linejoin:round;stroke-width:2px"/>

<line x1="35" y1="17" x2="39" y2="17" style="fill:none;stroke:#000000;stroke-linejoin:round;stroke-width:2px"/>

<line x1="35" y1="27" x2="39" y2="27" style="fill:none;stroke:#000000;stroke-linejoin:round;stroke-width:2px"/>

<line x1="35" y1="37" x2="39" y2="37" style="fill:none;stroke:#000000;stroke-linejoin:round;stroke-width:2px"/>

<line x1="35" y1="47" x2="39" y2="47" style="fill:none;stroke:#000000;stroke-linejoin:round;stroke-width:2px"/>

<line x1="25" y1="37" x2="29" y2="37" style="fill:none;stroke:#000000;stroke-linejoin:round;stroke-width:2px"/>

<line x1="25" y1="47" x2="29" y2="47" style="fill:none;stroke:#000000;stroke-linejoin:round;stroke-width:2px"/>

</g>

</svg>