<?xml version="1.0" encoding="utf-8"?>
<svg width="800px" height="800px" viewBox="0 0 64 64" xmlns="http://www.w3.org/2000/svg">

<title>beijing</title>

<g id="beijing">

<line x1="46" y1="18" x2="46" y2="14" style="fill:none;stroke:#000000;stroke-linecap:round;stroke-linejoin:round;stroke-width:2px"/>

<line x1="18" y1="18" x2="18" y2="14" style="fill:none;stroke:#000000;stroke-linecap:round;stroke-linejoin:round;stroke-width:2px"/>

<line x1="4" y1="56" x2="62" y2="56" style="fill:none;stroke:#000000;stroke-linecap:round;stroke-linejoin:round;stroke-width:2px"/>

<rect x="7" y="43" width="52" height="13" style="fill:none;stroke:#000000;stroke-linecap:round;stroke-linejoin:round;stroke-width:2px"/>

<polyline points="43 52 59 52 59 56 7 56 7 52 21.518 52" style="fill:none;stroke:#000000;stroke-linecap:round;stroke-linejoin:round;stroke-width:2px"/>

<rect x="30" y="47" width="5" height="9" style="fill:none;stroke:#000000;stroke-linecap:round;stroke-linejoin:round;stroke-width:2px"/>

<rect x="38" y="49" width="5" height="7" style="fill:none;stroke:#000000;stroke-linecap:round;stroke-linejoin:round;stroke-width:2px"/>

<rect x="22" y="49" width="5" height="7" style="fill:none;stroke:#000000;stroke-linecap:round;stroke-linejoin:round;stroke-width:2px"/>

<polyline points="13 38.518 13 33.098 53 33.098 53 38.452" style="fill:none;stroke:#000000;stroke-linecap:round;stroke-linejoin:round;stroke-width:2px"/>

<rect x="11" y="39" width="18" height="4" style="fill:none;stroke:#000000;stroke-linecap:round;stroke-linejoin:round;stroke-width:2px"/>

<rect x="37" y="39" width="18" height="4" style="fill:none;stroke:#000000;stroke-linecap:round;stroke-linejoin:round;stroke-width:2px"/>

<rect x="13" y="33" width="40" height="3" style="fill:none;stroke:#000000;stroke-linecap:round;stroke-linejoin:round;stroke-width:2px"/>

<path d="M16.73,28c-4.905,5.1-9.81,1.7-9.81,1.7,1.635,3.4,6.54,3.265,6.54,3.265H52.7s4.905.138,6.54-3.265c0,0-4.9,3.4-9.81-1.7" style="fill:none;stroke:#000000;stroke-linecap:round;stroke-linejoin:round;stroke-width:2px"/>

<polyline points="30.521 28 16 28 16 25" style="fill:none;stroke:#000000;stroke-linecap:round;stroke-linejoin:round;stroke-width:2px"/>

<polyline points="50 25 50 28 34.328 28" style="fill:none;stroke:#000000;stroke-linecap:round;stroke-linejoin:round;stroke-width:2px"/>

<path d="M34.552,24.988a144.173,144.173,0,0,0,19.985-1.251s-8.8-1.851-8.8-6.737H18.266c0,4.886-8.8,6.737-8.8,6.737,4.56.8,12.709,1.215,21.058,1.259" style="fill:none;stroke:#000000;stroke-linecap:round;stroke-linejoin:round;stroke-width:2px"/>

<line x1="17" y1="39" x2="17" y2="36" style="fill:none;stroke:#000000;stroke-linecap:round;stroke-linejoin:round;stroke-width:2px"/>

<line x1="22" y1="39" x2="21.979" y2="36.141" style="fill:none;stroke:#000000;stroke-linecap:round;stroke-linejoin:round;stroke-width:2px"/>

<line x1="44" y1="39" x2="44" y2="36" style="fill:none;stroke:#000000;stroke-linecap:round;stroke-linejoin:round;stroke-width:2px"/>

<line x1="49" y1="39" x2="49" y2="36" style="fill:none;stroke:#000000;stroke-linecap:round;stroke-linejoin:round;stroke-width:2px"/>

<line x1="27" y1="39" x2="27" y2="36" style="fill:none;stroke:#000000;stroke-linecap:round;stroke-linejoin:round;stroke-width:2px"/>

<line x1="39" y1="39" x2="39" y2="36" style="fill:none;stroke:#000000;stroke-linecap:round;stroke-linejoin:round;stroke-width:2px"/>

<rect x="31" y="24" width="3" height="5" style="fill:none;stroke:#000000;stroke-linecap:round;stroke-linejoin:round;stroke-width:2px"/>

<line x1="30" y1="52" x2="28" y2="52" style="fill:none;stroke:#000000;stroke-linecap:round;stroke-linejoin:round;stroke-width:2px"/>

<line x1="38" y1="52" x2="36" y2="52" style="fill:none;stroke:#000000;stroke-linecap:round;stroke-linejoin:round;stroke-width:2px"/>

</g>

</svg>