<?xml version="1.0" encoding="utf-8"?>
<svg width="800px" height="800px" viewBox="0 0 64 64" xmlns="http://www.w3.org/2000/svg">

<title>birch</title>

<g id="birch">

<circle cx="9.5" cy="20.5" r="2.5" style="fill:none;stroke:#000000;stroke-linecap:round;stroke-linejoin:round;stroke-width:2px"/>

<line x1="16" y1="4" x2="16" y2="6" style="fill:none;stroke:#000000;stroke-linecap:round;stroke-linejoin:round;stroke-width:2px"/>

<line x1="16" y1="10" x2="16" y2="12" style="fill:none;stroke:#000000;stroke-linecap:round;stroke-linejoin:round;stroke-width:2px"/>

<line x1="12" y1="8" x2="14" y2="8" style="fill:none;stroke:#000000;stroke-linecap:round;stroke-linejoin:round;stroke-width:2px"/>

<line x1="18" y1="8" x2="20" y2="8" style="fill:none;stroke:#000000;stroke-linecap:round;stroke-linejoin:round;stroke-width:2px"/>

<circle cx="27.984" cy="9.603" r="1.069"/>

<path d="M41.309,25.225,47.6,9.461a1.5,1.5,0,0,1,.729-.8L55,5V8l-4.809,3.082-3.623,10.3" style="fill:none;stroke:#000000;stroke-linecap:round;stroke-linejoin:round;stroke-width:2px"/>

<polyline points="33.789 38.467 42 31.429 42 29 44.833 29 53 22 53 17 34.278 30.373" style="fill:none;stroke:#000000;stroke-linecap:round;stroke-linejoin:round;stroke-width:2px"/>

<line x1="34" y1="28" x2="29" y2="28" style="fill:none;stroke:#000000;stroke-linecap:round;stroke-linejoin:round;stroke-width:2px"/>

<line x1="22" y1="28" x2="23" y2="28" style="fill:none;stroke:#000000;stroke-linecap:round;stroke-linejoin:round;stroke-width:2px"/>

<line x1="20" y1="33" x2="24" y2="33" style="fill:none;stroke:#000000;stroke-linecap:round;stroke-linejoin:round;stroke-width:2px"/>

<line x1="14" y1="38" x2="21" y2="38" style="fill:none;stroke:#000000;stroke-linecap:round;stroke-linejoin:round;stroke-width:2px"/>

<line x1="25" y1="38" x2="28" y2="38" style="fill:none;stroke:#000000;stroke-linecap:round;stroke-linejoin:round;stroke-width:2px"/>

<line x1="19" y1="45" x2="27" y2="45" style="fill:none;stroke:#000000;stroke-linecap:round;stroke-linejoin:round;stroke-width:2px"/>

<line x1="28" y1="49" x2="34" y2="49" style="fill:none;stroke:#000000;stroke-linecap:round;stroke-linejoin:round;stroke-width:2px"/>

<line x1="22" y1="49" x2="24" y2="49" style="fill:none;stroke:#000000;stroke-linecap:round;stroke-linejoin:round;stroke-width:2px"/>

<line x1="18" y1="53" x2="20" y2="53" style="fill:none;stroke:#000000;stroke-linecap:round;stroke-linejoin:round;stroke-width:2px"/>

<polyline points="30 53 25 53 28 56 34 56" style="fill:none;stroke:#000000;stroke-linecap:round;stroke-linejoin:round;stroke-width:2px"/>

<path d="M16,21c0,1.105,4.029,2,9,2s9-.895,9-2" style="fill:none;stroke:#000000;stroke-linejoin:round;stroke-width:2px"/>

<path d="M34,59V42.621l-.857-1.407L34,33.224V21c0-1.105-4.029-2-9-2s-9,.895-9,2V31l-2,4V59" style="fill:none;stroke:#000000;stroke-linecap:round;stroke-linejoin:round;stroke-width:2px"/>

<path d="M37,10h4a4,4,0,0,1,4,4v0a0,0,0,0,1,0,0H41a4,4,0,0,1-4-4v0A0,0,0,0,1,37,10Z" style="fill:none;stroke:#000000;stroke-linecap:round;stroke-linejoin:round;stroke-width:2px"/>

<path d="M53,10h4a4,4,0,0,1,4,4v0a0,0,0,0,1,0,0H57a4,4,0,0,1-4-4v0A0,0,0,0,1,53,10Z" style="fill:none;stroke:#000000;stroke-linecap:round;stroke-linejoin:round;stroke-width:2px"/>

<polyline points="14 42 22 42 25 45" style="fill:none;stroke:#000000;stroke-linecap:round;stroke-linejoin:round;stroke-width:2px"/>

</g>

</svg>