<?xml version="1.0" encoding="utf-8"?>
<svg width="800px" height="800px" viewBox="0 0 64 64" xmlns="http://www.w3.org/2000/svg">

<title>buljarab</title>

<g id="buljarab">

<line x1="14.328" y1="38.854" x2="32" y2="31" style="fill:none;stroke:#000000;stroke-linecap:square;stroke-linejoin:round;stroke-width:2px"/>

<polyline points="32 31 14 31 14 28 30.98 28" style="fill:none;stroke:#000000;stroke-linecap:round;stroke-linejoin:round;stroke-width:2px"/>

<path d="M9.576,24H4a3,3,0,0,1,3-3H9.576" style="fill:none;stroke:#000000;stroke-linecap:round;stroke-linejoin:round;stroke-width:2px"/>

<line x1="29.175" y1="24" x2="14.431" y2="24" style="fill:none;stroke:#000000;stroke-linecap:round;stroke-linejoin:round;stroke-width:2px"/>

<path d="M32.318,21H36a3,3,0,0,1,3,3H33.922" style="fill:none;stroke:#000000;stroke-linecap:round;stroke-linejoin:round;stroke-width:2px"/>

<line x1="14.328" y1="21" x2="27.411" y2="21" style="fill:none;stroke:#000000;stroke-linecap:round;stroke-linejoin:round;stroke-width:2px"/>

<line x1="33.672" y1="46" x2="14.328" y2="46" style="fill:none;stroke:#000000;stroke-linecap:round;stroke-linejoin:round;stroke-width:2px"/>

<line x1="14.328" y1="43" x2="33.672" y2="43" style="fill:none;stroke:#000000;stroke-linecap:round;stroke-linejoin:round;stroke-width:2px"/>

<line x1="15" y1="58" x2="31.755" y2="58" style="fill:none;stroke:#000000;stroke-linecap:square;stroke-linejoin:round;stroke-width:2px"/>

<line x1="1" y1="63" x2="63" y2="63" style="fill:none;stroke:#000000;stroke-linecap:round;stroke-linejoin:round;stroke-width:2px"/>

<path d="M10,56.7V3.226l2.633.877C12.987,4.221,47.4,16.429,35,62" style="fill:none;stroke:#000000;stroke-linecap:square;stroke-linejoin:round;stroke-width:2px"/>

<path d="M31,62c5.172-18.084,3.5-32.71-5.188-43.429A36.582,36.582,0,0,0,14,9.053V58" style="fill:none;stroke:#000000;stroke-linecap:square;stroke-linejoin:round;stroke-width:2px"/>

<line x1="10" y1="1" x2="10" y2="6" style="fill:none;stroke:#000000;stroke-linecap:round;stroke-linejoin:round;stroke-width:2px"/>

<line x1="15" y1="39" x2="33" y2="39" style="fill:none;stroke:#000000;stroke-linecap:square;stroke-linejoin:round;stroke-width:2px"/>

<polyline points="32 54 15 54 33.386 46.259" style="fill:none;stroke:#000000;stroke-linecap:square;stroke-linejoin:round;stroke-width:2px"/>

<path d="M46.248,57.954a6,6,0,0,0-9.242,4.77" style="fill:none;stroke:#000000;stroke-linecap:round;stroke-linejoin:round;stroke-width:2px"/>

<path d="M55.994,62.724a6,6,0,0,0-11.988,0" style="fill:none;stroke:#000000;stroke-linecap:round;stroke-linejoin:round;stroke-width:2px"/>

<path d="M15.988,62.619a6,6,0,0,0-11.969-.1" style="fill:none;stroke:#000000;stroke-linecap:square;stroke-linejoin:round;stroke-width:2px"/>

</g>

</svg>