<?xml version="1.0" encoding="utf-8"?>
<svg width="800px" height="800px" viewBox="0 0 64 64" xmlns="http://www.w3.org/2000/svg">

<title>canberra</title>

<g id="canberra">

<polyline points="19 35 30 26.966 30 23.934 35 23.934 35 26.966 46 35" style="fill:none;stroke:#000000;stroke-linecap:round;stroke-linejoin:round;stroke-width:2px"/>

<rect x="4" y="35" width="15" height="14" style="fill:none;stroke:#000000;stroke-linecap:round;stroke-linejoin:round;stroke-width:2px"/>

<rect x="46" y="35" width="15" height="14" style="fill:none;stroke:#000000;stroke-linecap:round;stroke-linejoin:round;stroke-width:2px"/>

<polygon points="34.053 35 34.053 39 30.947 39 30.947 35 19 35 19 49 46 49 46 35 34.053 35" style="fill:none;stroke:#000000;stroke-linecap:round;stroke-linejoin:round;stroke-width:2px"/>

<line x1="30" y1="23.711" x2="30" y2="16" style="fill:none;stroke:#000000;stroke-linecap:round;stroke-linejoin:round;stroke-width:2px"/>

<line x1="35" y1="24.711" x2="35" y2="16" style="fill:none;stroke:#000000;stroke-linecap:round;stroke-linejoin:round;stroke-width:2px"/>

<line x1="30" y1="19" x2="35" y2="19" style="fill:none;stroke:#000000;stroke-linecap:round;stroke-linejoin:round;stroke-width:2px"/>

<line x1="31" y1="43" x2="31" y2="48.88" style="fill:none;stroke:#000000;stroke-linecap:round;stroke-linejoin:round;stroke-width:2px"/>

<line x1="34" y1="43" x2="34" y2="48.88" style="fill:none;stroke:#000000;stroke-linecap:round;stroke-linejoin:round;stroke-width:2px"/>

<line x1="49" y1="43" x2="49" y2="48.88" style="fill:none;stroke:#000000;stroke-linecap:round;stroke-linejoin:round;stroke-width:2px"/>

<line x1="52" y1="43" x2="52" y2="48.88" style="fill:none;stroke:#000000;stroke-linecap:round;stroke-linejoin:round;stroke-width:2px"/>

<line x1="55" y1="43" x2="55" y2="48.88" style="fill:none;stroke:#000000;stroke-linecap:round;stroke-linejoin:round;stroke-width:2px"/>

<line x1="58" y1="43" x2="58" y2="48.88" style="fill:none;stroke:#000000;stroke-linecap:round;stroke-linejoin:round;stroke-width:2px"/>

<line x1="7" y1="43" x2="7" y2="48.88" style="fill:none;stroke:#000000;stroke-linecap:round;stroke-linejoin:round;stroke-width:2px"/>

<line x1="10" y1="43" x2="10" y2="48.88" style="fill:none;stroke:#000000;stroke-linecap:round;stroke-linejoin:round;stroke-width:2px"/>

<line x1="13" y1="43" x2="13" y2="48.88" style="fill:none;stroke:#000000;stroke-linecap:round;stroke-linejoin:round;stroke-width:2px"/>

<line x1="16" y1="43" x2="16" y2="48.88" style="fill:none;stroke:#000000;stroke-linecap:round;stroke-linejoin:round;stroke-width:2px"/>

<line x1="37" y1="38" x2="37" y2="49" style="fill:none;stroke:#000000;stroke-linecap:round;stroke-linejoin:round;stroke-width:2px"/>

<line x1="40" y1="38" x2="40" y2="49" style="fill:none;stroke:#000000;stroke-linecap:round;stroke-linejoin:round;stroke-width:2px"/>

<line x1="43" y1="38" x2="43" y2="49" style="fill:none;stroke:#000000;stroke-linecap:round;stroke-linejoin:round;stroke-width:2px"/>

<line x1="22" y1="38" x2="22" y2="49" style="fill:none;stroke:#000000;stroke-linecap:round;stroke-linejoin:round;stroke-width:2px"/>

<line x1="25" y1="38" x2="25" y2="49" style="fill:none;stroke:#000000;stroke-linecap:round;stroke-linejoin:round;stroke-width:2px"/>

<line x1="28" y1="38" x2="28" y2="49" style="fill:none;stroke:#000000;stroke-linecap:round;stroke-linejoin:round;stroke-width:2px"/>

<circle cx="49" cy="39" r="1"/>

<circle cx="52" cy="39" r="1"/>

<circle cx="55" cy="39" r="1"/>

<circle cx="58" cy="39" r="1"/>

<circle cx="7" cy="39" r="1"/>

<circle cx="10" cy="39" r="1"/>

<circle cx="13" cy="39" r="1"/>

<circle cx="16" cy="39" r="1"/>

<line x1="30" y1="27" x2="28.333" y2="34.667" style="fill:none;stroke:#000000;stroke-linecap:round;stroke-linejoin:round;stroke-width:2px"/>

<line x1="35" y1="27" x2="37.167" y2="34.5" style="fill:none;stroke:#000000;stroke-linecap:round;stroke-linejoin:round;stroke-width:2px"/>

</g>

</svg>