<?xml version="1.0" encoding="utf-8"?>
<svg width="800px" height="800px" viewBox="0 0 64 64" xmlns="http://www.w3.org/2000/svg">

<title>candles</title>

<g id="candles">

<circle cx="57.207" cy="35.989" r="1.069"/>

<line x1="9.951" y1="11" x2="7.003" y2="13.948" style="fill:none;stroke:#000000;stroke-linecap:round;stroke-linejoin:round;stroke-width:2px"/>

<line x1="9.951" y1="13.948" x2="7.003" y2="11" style="fill:none;stroke:#000000;stroke-linecap:round;stroke-linejoin:round;stroke-width:2px"/>

<path d="M27.471,14.765a4.236,4.236,0,0,1-8.471,0C19,12.426,20.9,3,23.235,3S27.471,12.426,27.471,14.765Z" style="fill:none;stroke:#000000;stroke-linecap:round;stroke-linejoin:round;stroke-width:2px"/>

<path d="M24.709,15.31a1.474,1.474,0,1,1-2.947,0c0-.814.659-4.094,1.473-4.094S24.709,14.5,24.709,15.31Z"/>

<rect x="18" y="19" width="10" height="32" rx="2.816" ry="2.816" style="fill:none;stroke:#000000;stroke-linecap:round;stroke-linejoin:round;stroke-width:2px"/>

<path d="M21,19.263v2.644A3.093,3.093,0,0,0,24.093,25h0v4.906a1.956,1.956,0,0,0,.933,1.666h0A1.954,1.954,0,0,0,28,29.906" style="fill:none;stroke:#000000;stroke-linecap:round;stroke-linejoin:round;stroke-width:2px"/>

<path d="M14.758,57.725a1.368,1.368,0,0,1-.492-.719l-1.213-4.26A1.369,1.369,0,0,1,14.366,51H31.634" style="fill:none;stroke:#000000;stroke-linecap:round;stroke-linejoin:round;stroke-width:2px"/>

<line x1="21" y1="37" x2="21" y2="44" style="fill:none;stroke:#000000;stroke-linecap:round;stroke-linejoin:round;stroke-width:2px"/>

<path d="M45.471,18.765a4.236,4.236,0,0,1-8.471,0C37,16.426,38.9,7,41.235,7S45.471,16.426,45.471,18.765Z" style="fill:none;stroke:#000000;stroke-linecap:round;stroke-linejoin:round;stroke-width:2px"/>

<path d="M42.709,19.31a1.474,1.474,0,1,1-2.947,0c0-.814.659-4.094,1.473-4.094S42.709,18.5,42.709,19.31Z"/>

<rect x="32" y="23" width="18" height="32" rx="2.816" ry="2.816" style="fill:none;stroke:#000000;stroke-linecap:round;stroke-linejoin:round;stroke-width:2px"/>

<path d="M43,23.231v2.676A3.093,3.093,0,0,0,46.093,29h0v4.906a1.956,1.956,0,0,0,.933,1.666h0A1.954,1.954,0,0,0,50,33.906" style="fill:none;stroke:#000000;stroke-linecap:round;stroke-linejoin:round;stroke-width:2px"/>

<path d="M53.421,62H28.579a1.366,1.366,0,0,1-1.313-.994l-1.213-4.26A1.369,1.369,0,0,1,27.366,55H54.634a1.369,1.369,0,0,1,1.313,1.746l-1.213,4.26A1.366,1.366,0,0,1,53.421,62Z" style="fill:none;stroke:#000000;stroke-linecap:round;stroke-linejoin:round;stroke-width:2px"/>

<line x1="35" y1="28" x2="35" y2="35" style="fill:none;stroke:#000000;stroke-linecap:round;stroke-linejoin:round;stroke-width:2px"/>

<path d="M34,55.4V57a1.988,1.988,0,0,0,3,1.723V61a2,2,0,0,0,4,0V55.363" style="fill:none;stroke:#000000;stroke-linecap:round;stroke-linejoin:round;stroke-width:2px"/>

<line x1="53" y1="62" x2="59" y2="62" style="fill:none;stroke:#000000;stroke-linecap:round;stroke-linejoin:round;stroke-width:2px"/>

<line x1="26" y1="58" x2="7" y2="58" style="fill:none;stroke:#000000;stroke-linecap:round;stroke-linejoin:round;stroke-width:2px"/>

</g>

</svg>