<?xml version="1.0" encoding="utf-8"?>
<svg width="800px" height="800px" viewBox="0 0 64 64" xmlns="http://www.w3.org/2000/svg">

<title>car</title>

<g id="car">

<circle cx="55.5" cy="13.5" r="1.132"/>

<line x1="47.747" y1="31.835" x2="46.023" y2="10.288" style="fill:none;stroke:#000000;stroke-linecap:round;stroke-linejoin:round;stroke-width:2px"/>

<line x1="15.985" y1="10.191" x2="14.244" y2="31.952" style="fill:none;stroke:#000000;stroke-linecap:round;stroke-linejoin:round;stroke-width:2px"/>

<path d="M45.354,30.77l-1.132-5.66A1.38,1.38,0,0,0,42.868,24H19.132a1.38,1.38,0,0,0-1.354,1.11l-1.1,5.5" style="fill:none;stroke:#000000;stroke-linecap:round;stroke-linejoin:round;stroke-width:2px"/>

<path d="M42,49H55V36.25A2.251,2.251,0,0,0,52.75,34H49" style="fill:none;stroke:#000000;stroke-linecap:round;stroke-linejoin:round;stroke-width:2px"/>

<path d="M12.841,34H9.25A2.251,2.251,0,0,0,7,36.25V49H20" style="fill:none;stroke:#000000;stroke-linecap:round;stroke-linejoin:round;stroke-width:2px"/>

<path d="M40.733,34h-1.8a7.993,7.993,0,0,0-15.862,0H21.113" style="fill:none;stroke:#000000;stroke-linecap:round;stroke-linejoin:round;stroke-width:2px"/>

<circle cx="17" cy="35" r="4" style="fill:none;stroke:#000000;stroke-linecap:round;stroke-linejoin:round;stroke-width:2px"/>

<circle cx="45" cy="35" r="4" style="fill:none;stroke:#000000;stroke-linecap:round;stroke-linejoin:round;stroke-width:2px"/>

<path d="M6.739,45H3v5H3a3,3,0,0,0,3,3H56a3,3,0,0,0,3-3h0V45H55.5" style="fill:none;stroke:#000000;stroke-linecap:round;stroke-linejoin:round;stroke-width:2px"/>

<path d="M16,53.369v4.114A2.517,2.517,0,0,1,13.483,60H11.517A2.517,2.517,0,0,1,9,57.483V53.51" style="fill:none;stroke:#000000;stroke-linecap:round;stroke-linejoin:round;stroke-width:2px"/>

<path d="M53,53.369v4.114A2.517,2.517,0,0,1,50.483,60H48.517A2.517,2.517,0,0,1,46,57.483V53.605" style="fill:none;stroke:#000000;stroke-linecap:round;stroke-linejoin:round;stroke-width:2px"/>

<path d="M31,36h0a4,4,0,0,1,4,4v9a0,0,0,0,1,0,0H27a0,0,0,0,1,0,0V40A4,4,0,0,1,31,36Z" style="fill:none;stroke:#000000;stroke-linecap:round;stroke-linejoin:round;stroke-width:2px"/>

<polyline points="40 53.369 40 57 22 57 22 53.369" style="fill:none;stroke:#000000;stroke-linecap:round;stroke-linejoin:round;stroke-width:2px"/>

<circle cx="23" cy="48" r="3" style="fill:none;stroke:#000000;stroke-linecap:round;stroke-linejoin:round;stroke-width:2px"/>

<circle cx="39" cy="48" r="3" style="fill:none;stroke:#000000;stroke-linecap:round;stroke-linejoin:round;stroke-width:2px"/>

<path d="M19,6H43a4,4,0,0,1,4,4v0a0,0,0,0,1,0,0H15a0,0,0,0,1,0,0v0a4,4,0,0,1,4-4Z" style="fill:none;stroke:#000000;stroke-linecap:round;stroke-linejoin:round;stroke-width:2px"/>

<line x1="23" y1="13" x2="19.5" y2="16.5" style="fill:none;stroke:#000000;stroke-linecap:round;stroke-linejoin:round;stroke-width:2px"/>

<line x1="27" y1="13" x2="20" y2="20" style="fill:none;stroke:#000000;stroke-linecap:round;stroke-linejoin:round;stroke-width:2px"/>

<line x1="49" y1="33" x2="54" y2="28" style="fill:none;stroke:#000000;stroke-linecap:round;stroke-linejoin:round;stroke-width:2px"/>

<circle cx="56" cy="26" r="2" style="fill:none;stroke:#000000;stroke-linecap:round;stroke-linejoin:round;stroke-width:2px"/>

<line x1="13" y1="33" x2="8" y2="28" style="fill:none;stroke:#000000;stroke-linecap:round;stroke-linejoin:round;stroke-width:2px"/>

<circle cx="6" cy="26" r="2" style="fill:none;stroke:#000000;stroke-linecap:round;stroke-linejoin:round;stroke-width:2px"/>

</g>

</svg>