<?xml version="1.0" encoding="utf-8"?>
<svg width="800px" height="800px" viewBox="0 0 64 64" xmlns="http://www.w3.org/2000/svg">

<title>chanel-clothing-fashion-ico</title>

<g id="chanel-clothing-fashion-ico">

<path d="M48,59V32.143l5.943,6.714L62,30.8,51.447,16.026A9.613,9.613,0,0,0,43.624,12H23.976a9.613,9.613,0,0,0-7.823,4.026L5.6,30.8l8.057,8.057,5.372-6.714V59Z" style="fill:none;stroke:#000000;stroke-linecap:round;stroke-linejoin:round;stroke-width:2px"/>

<line x1="55" y1="3" x2="55" y2="5" style="fill:none;stroke:#000000;stroke-linecap:round;stroke-linejoin:round;stroke-width:2px"/>

<line x1="55" y1="9" x2="55" y2="11" style="fill:none;stroke:#000000;stroke-linecap:round;stroke-linejoin:round;stroke-width:2px"/>

<line x1="51" y1="7" x2="53" y2="7" style="fill:none;stroke:#000000;stroke-linecap:round;stroke-linejoin:round;stroke-width:2px"/>

<line x1="57" y1="7" x2="59" y2="7" style="fill:none;stroke:#000000;stroke-linecap:round;stroke-linejoin:round;stroke-width:2px"/>

<path d="M62.151,18.6a1.069,1.069,0,1,1-1.069-1.069A1.069,1.069,0,0,1,62.151,18.6Z"/>

<path d="M12.151,57.6a1.069,1.069,0,1,1-1.069-1.069A1.069,1.069,0,0,1,12.151,57.6Z"/>

<path d="M40.514,12.48v.863A6.714,6.714,0,0,1,33.8,20.057h0a6.714,6.714,0,0,1-6.714-6.714v-.938" style="fill:none;stroke:#000000;stroke-linecap:round;stroke-linejoin:round;stroke-width:2px"/>

<circle cx="8.5" cy="47.5" r="2.5" style="fill:none;stroke:#000000;stroke-linecap:round;stroke-linejoin:round;stroke-width:2px"/>

<path d="M37.48,39.211a5.671,5.671,0,0,1-2.274-.474,7.706,7.706,0,0,0,0-10.474,5.7,5.7,0,0,1,7.361,2.651l2.086-.313A7.72,7.72,0,0,0,33.5,26.872,7.72,7.72,0,0,0,22.347,30.6l2.086.313a5.7,5.7,0,0,1,7.361-2.651,7.706,7.706,0,0,0,0,10.474,5.7,5.7,0,0,1-7.131-2.243l-2.129.32A7.714,7.714,0,0,0,33.5,40.128a7.714,7.714,0,0,0,10.966-3.314l-2.129-.32A5.7,5.7,0,0,1,37.48,39.211ZM31.769,33.5A5.693,5.693,0,0,1,33.5,29.409a5.7,5.7,0,0,1,0,8.182A5.693,5.693,0,0,1,31.769,33.5Z"/>

</g>

</svg>