<?xml version="1.0" encoding="utf-8"?>
<svg width="800px" height="800px" viewBox="0 0 64 64" xmlns="http://www.w3.org/2000/svg">

<title>cheese-meat-assortment-platter-ico</title>

<g id="cheese-meat-assortment-platter-ico">

<path d="M55.419,50.461C58.928,51.453,61,52.676,61,54c0,3.314-12.984,6-29,6S3,57.314,3,54c0-1.537,2.793-2.939,7.386-4" style="fill:none;stroke:#000000;stroke-linecap:round;stroke-linejoin:round;stroke-width:2px"/>

<line x1="28" y1="10" x2="28" y2="12" style="fill:none;stroke:#000000;stroke-linecap:round;stroke-linejoin:round;stroke-width:2px"/>

<line x1="28" y1="16" x2="28" y2="18" style="fill:none;stroke:#000000;stroke-linecap:round;stroke-linejoin:round;stroke-width:2px"/>

<line x1="24" y1="14" x2="26" y2="14" style="fill:none;stroke:#000000;stroke-linecap:round;stroke-linejoin:round;stroke-width:2px"/>

<line x1="30" y1="14" x2="32" y2="14" style="fill:none;stroke:#000000;stroke-linecap:round;stroke-linejoin:round;stroke-width:2px"/>

<circle cx="56.5" cy="18.5" r="2.5" style="fill:none;stroke:#000000;stroke-linecap:round;stroke-linejoin:round;stroke-width:2px"/>

<path d="M14.651,5.1a1.069,1.069,0,1,1-1.069-1.069A1.069,1.069,0,0,1,14.651,5.1Z"/>

<path d="M50.651,6.1a1.069,1.069,0,1,1-1.069-1.069A1.069,1.069,0,0,1,50.651,6.1Z"/>

<polyline points="37.14 39.462 30 35 20.157 47.316" style="fill:none;stroke:#000000;stroke-linecap:round;stroke-linejoin:round;stroke-width:2px"/>

<circle cx="30.5" cy="41.5" r="1.5"/>

<circle cx="30.5" cy="46.5" r="0.817"/>

<circle cx="27.5" cy="44.5" r="0.607"/>

<path d="M47.611,23.486S46,25.1,46.806,26.708a3.659,3.659,0,0,1,0,4.027" style="fill:none;stroke:#000000;stroke-linecap:round;stroke-linejoin:round;stroke-width:2px"/>

<line x1="12.302" y1="38.5" x2="12.302" y2="46.997" style="fill:none;stroke:#000000;stroke-linecap:round;stroke-linejoin:round;stroke-width:2px"/>

<path d="M3.806,26.213a8.954,8.954,0,0,0,7.652,11.923c.211.014.423.021.638.021a9.573,9.573,0,0,0,3.63-.708,8.906,8.906,0,0,0,5.028-10.644l-2.007-7.48H6.109Z" style="fill:none;stroke:#000000;stroke-linecap:round;stroke-linejoin:round;stroke-width:2px"/>

<path d="M20.607,26.274a28.8,28.8,0,0,0-7.181,3.236c-4.475,2.61-7.9,1.875-10.053.726" style="fill:none;stroke:#000000;stroke-linejoin:round;stroke-width:2px"/>

<path d="M37.14,23.486s-1.611,1.611-.8,3.222a3.659,3.659,0,0,1,0,4.027" style="fill:none;stroke:#000000;stroke-linecap:round;stroke-linejoin:round;stroke-width:2px"/>

<path d="M41.973,20.265s-1.611,1.61-.806,3.221a3.657,3.657,0,0,1,0,4.028" style="fill:none;stroke:#000000;stroke-linecap:round;stroke-linejoin:round;stroke-width:2px"/>

<path d="M17.192,53.858q-.366-.054-.738-.132c-3.653-.763-6.285-2.962-5.878-4.911s3.7-2.909,7.353-2.146a10.092,10.092,0,0,1,4.688,2.209" style="fill:none;stroke:#000000;stroke-linecap:round;stroke-linejoin:round;stroke-width:2px"/>

<path d="M26.705,56.583a11.22,11.22,0,0,1-3.942-.153c-3.654-.764-6.286-2.963-5.879-4.911s3.7-2.91,7.353-2.146A12.2,12.2,0,0,1,26,49.878" style="fill:none;stroke:#000000;stroke-linecap:round;stroke-linejoin:round;stroke-width:2px"/>

<path d="M36.424,55.185c-.407,1.948-3.7,2.909-7.353,2.146s-6.286-2.962-5.879-4.911,3.7-2.91,7.354-2.146S36.831,53.236,36.424,55.185Z" style="fill:none;stroke:#000000;stroke-linecap:round;stroke-linejoin:round;stroke-width:2px"/>

<polyline points="34 51.58 34 43 40 37 55 43 55 54 36.624 54" style="fill:none;stroke:#000000;stroke-linecap:round;stroke-linejoin:round;stroke-width:2px"/>

<path d="M34,43h9v5.5a1.5,1.5,0,0,0,3,0v-3a1.5,1.5,0,0,0,3,0V43h6" style="fill:none;stroke:#000000;stroke-linejoin:round;stroke-width:2px"/>

</g>

</svg>