<?xml version="1.0" encoding="utf-8"?>
<svg width="800px" height="800px" viewBox="0 0 64 64" xmlns="http://www.w3.org/2000/svg">

<title>cheese-platter-assortment-ico</title>

<g id="cheese-platter-assortment-ico">

<path d="M55.325,50.434C58.891,51.431,61,52.664,61,54c0,3.314-12.984,6-29,6S3,57.314,3,54c0-1.551,2.844-2.965,7.513-4.03" style="fill:none;stroke:#000000;stroke-linecap:round;stroke-linejoin:round;stroke-width:2px"/>

<line x1="7" y1="5" x2="7" y2="7" style="fill:none;stroke:#000000;stroke-linecap:round;stroke-linejoin:round;stroke-width:2px"/>

<line x1="7" y1="11" x2="7" y2="13" style="fill:none;stroke:#000000;stroke-linecap:round;stroke-linejoin:round;stroke-width:2px"/>

<line x1="3" y1="9" x2="5" y2="9" style="fill:none;stroke:#000000;stroke-linecap:round;stroke-linejoin:round;stroke-width:2px"/>

<line x1="9" y1="9" x2="11" y2="9" style="fill:none;stroke:#000000;stroke-linecap:round;stroke-linejoin:round;stroke-width:2px"/>

<circle cx="45.5" cy="10.5" r="2.5" style="fill:none;stroke:#000000;stroke-linecap:round;stroke-linejoin:round;stroke-width:2px"/>

<path d="M12.651,27.1a1.069,1.069,0,1,1-1.069-1.069A1.069,1.069,0,0,1,12.651,27.1Z"/>

<path d="M60.651,16.1a1.069,1.069,0,1,1-1.069-1.069A1.069,1.069,0,0,1,60.651,16.1Z"/>

<polyline points="37.056 39.41 30 35 22.103 44.882" style="fill:none;stroke:#000000;stroke-linecap:round;stroke-linejoin:round;stroke-width:2px"/>

<circle cx="30.5" cy="41.5" r="1.5"/>

<circle cx="30.5" cy="46.5" r="0.607"/>

<circle cx="27.5" cy="44.5" r="0.607"/>

<path d="M11.288,47.841l-.414,2.971c-.3,2.188,3.217,4.487,7.867,5.135A14.325,14.325,0,0,0,25,55.57" style="fill:none;stroke:#000000;stroke-linecap:round;stroke-linejoin:round;stroke-width:2px"/>

<path d="M24.72,52.8a15.136,15.136,0,0,1-5.565.179c-4.65-.648-8.171-2.947-7.867-5.135s4.322-3.436,8.971-2.788c4.232.589,7.53,2.547,7.858,4.543" style="fill:none;stroke:#000000;stroke-linecap:round;stroke-linejoin:round;stroke-width:2px"/>

<rect x="25" y="50" width="14" height="7" rx="2.752" ry="2.752" style="fill:none;stroke:#000000;stroke-linecap:round;stroke-linejoin:round;stroke-width:2px"/>

<path d="M39,23s-2,2-1,4a4.542,4.542,0,0,1,0,5" style="fill:none;stroke:#000000;stroke-linecap:round;stroke-linejoin:round;stroke-width:2px"/>

<path d="M26,23s-2,2-1,4a4.542,4.542,0,0,1,0,5" style="fill:none;stroke:#000000;stroke-linecap:round;stroke-linejoin:round;stroke-width:2px"/>

<path d="M32,19s-2,2-1,4a4.542,4.542,0,0,1,0,5" style="fill:none;stroke:#000000;stroke-linecap:round;stroke-linejoin:round;stroke-width:2px"/>

<polyline points="34 49.571 34 43 40 37 55 43 55 54 39.357 54" style="fill:none;stroke:#000000;stroke-linecap:round;stroke-linejoin:round;stroke-width:2px"/>

<path d="M34,43h9v5.5a1.5,1.5,0,0,0,3,0v-3a1.5,1.5,0,0,0,3,0V43h6" style="fill:none;stroke:#000000;stroke-linejoin:round;stroke-width:2px"/>

</g>

</svg>