<?xml version="1.0" encoding="utf-8"?>
<svg width="800px" height="800px" viewBox="0 0 64 64" xmlns="http://www.w3.org/2000/svg">

<title>church</title>

<g id="church">

<path d="M21,40.769V30A7,7,0,0,0,7,30V40.769" style="fill:none;stroke:#000000;stroke-linecap:round;stroke-linejoin:round;stroke-width:2px"/>

<polyline points="12 40.769 12 35 16 35 16 40.769" style="fill:none;stroke:#000000;stroke-linecap:round;stroke-linejoin:round;stroke-width:2px"/>

<line x1="7" y1="52.651" x2="7" y2="44.47" style="fill:#ffded5;stroke:#000000;stroke-linecap:round;stroke-linejoin:round;stroke-width:2px"/>

<rect x="6" y="53" width="15" height="7" style="fill:none;stroke:#000000;stroke-linecap:round;stroke-linejoin:round;stroke-width:2px"/>

<circle cx="37.783" cy="6.662" r="1.069"/>

<polyline points="12 52.651 12 47 16 47 16 52.651" style="fill:none;stroke:#000000;stroke-linecap:round;stroke-linejoin:round;stroke-width:2px"/>

<path d="M19,24.887V13A5,5,0,0,0,9,13V24.648" style="fill:none;stroke:#000000;stroke-linecap:round;stroke-linejoin:round;stroke-width:2px"/>

<line x1="14" y1="19" x2="14" y2="23" style="fill:none;stroke:#000000;stroke-linecap:round;stroke-linejoin:round;stroke-width:2px"/>

<path d="M57,40.769V30a7,7,0,0,0-14,0V40.769" style="fill:none;stroke:#000000;stroke-linecap:round;stroke-linejoin:round;stroke-width:2px"/>

<polyline points="48 40.769 48 35 52 35 52 40.769" style="fill:none;stroke:#000000;stroke-linecap:round;stroke-linejoin:round;stroke-width:2px"/>

<line x1="30" y1="32.47" x2="30" y2="40.626" style="fill:#b5a19c;stroke:#000000;stroke-linecap:round;stroke-linejoin:round;stroke-width:2px"/>

<line x1="26" y1="40.769" x2="26" y2="32.47" style="fill:#b5a19c;stroke:#000000;stroke-linecap:round;stroke-linejoin:round;stroke-width:2px"/>

<line x1="30" y1="44.47" x2="30" y2="59.626" style="fill:#b5a19c;stroke:#000000;stroke-linecap:round;stroke-linejoin:round;stroke-width:2px"/>

<line x1="26" y1="59.769" x2="26" y2="44.47" style="fill:#b5a19c;stroke:#000000;stroke-linecap:round;stroke-linejoin:round;stroke-width:2px"/>

<line x1="38" y1="32.47" x2="38" y2="40.626" style="fill:#b5a19c;stroke:#000000;stroke-linecap:round;stroke-linejoin:round;stroke-width:2px"/>

<line x1="34" y1="40.769" x2="34" y2="32.47" style="fill:#b5a19c;stroke:#000000;stroke-linecap:round;stroke-linejoin:round;stroke-width:2px"/>

<line x1="38" y1="44.47" x2="38" y2="59.626" style="fill:#b5a19c;stroke:#000000;stroke-linecap:round;stroke-linejoin:round;stroke-width:2px"/>

<line x1="34" y1="59.769" x2="34" y2="44.47" style="fill:#b5a19c;stroke:#000000;stroke-linecap:round;stroke-linejoin:round;stroke-width:2px"/>

<line x1="57" y1="44.47" x2="57" y2="52.651" style="fill:none;stroke:#000000;stroke-linecap:round;stroke-linejoin:round;stroke-width:2px"/>

<rect x="43" y="53" width="15" height="7" style="fill:none;stroke:#000000;stroke-linecap:round;stroke-linejoin:round;stroke-width:2px"/>

<polyline points="48 52.651 48 47 52 47 52 52.651" style="fill:none;stroke:#000000;stroke-linecap:round;stroke-linejoin:round;stroke-width:2px"/>

<path d="M55,24.648V13a5,5,0,0,0-10,0V24.887" style="fill:none;stroke:#000000;stroke-linecap:round;stroke-linejoin:round;stroke-width:2px"/>

<polyline points="21 44.47 21 60 43 60 43 44.47" style="fill:none;stroke:#000000;stroke-linecap:round;stroke-linejoin:round;stroke-width:2px"/>

<path d="M43,40.769V29a7,7,0,0,0-7-7H28a7,7,0,0,0-7,7V40.769" style="fill:none;stroke:#000000;stroke-linecap:round;stroke-linejoin:round;stroke-width:2px"/>

<line x1="50" y1="19" x2="50" y2="23" style="fill:none;stroke:#000000;stroke-linecap:round;stroke-linejoin:round;stroke-width:2px"/>

<path d="M25,31.755V29a7,7,0,0,1,7-7h0a7,7,0,0,1,7,7v2.564" style="fill:none;stroke:#000000;stroke-linecap:round;stroke-linejoin:round;stroke-width:2px"/>

<path d="M28.006,21.787A4,4,0,0,1,32,18h0a4,4,0,0,1,3.991,3.732" style="fill:none;stroke:#000000;stroke-linecap:round;stroke-linejoin:round;stroke-width:2px"/>

<line x1="32" y1="18" x2="32" y2="11" style="fill:none;stroke:#000000;stroke-linecap:round;stroke-linejoin:round;stroke-width:2px"/>

<line x1="50" y1="8" x2="50" y2="5" style="fill:none;stroke:#000000;stroke-linecap:round;stroke-linejoin:round;stroke-width:2px"/>

<line x1="14" y1="8" x2="14" y2="5" style="fill:none;stroke:#000000;stroke-linecap:round;stroke-linejoin:round;stroke-width:2px"/>

<rect x="5" y="41" width="54" height="3" style="fill:none;stroke:#000000;stroke-linecap:round;stroke-linejoin:round;stroke-width:2px"/>

<line x1="30" y1="13" x2="34" y2="13" style="fill:none;stroke:#000000;stroke-linecap:round;stroke-linejoin:round;stroke-width:2px"/>

<circle cx="24" cy="6" r="2" style="fill:none;stroke:#000000;stroke-linecap:round;stroke-linejoin:round;stroke-width:2px"/>

<line x1="7" y1="32" x2="57" y2="32" style="fill:none;stroke:#000000;stroke-linejoin:round;stroke-width:2px"/>

<line x1="19" y1="16" x2="9" y2="16" style="fill:none;stroke:#000000;stroke-linejoin:round;stroke-width:2px"/>

<line x1="55" y1="16" x2="45" y2="16" style="fill:none;stroke:#000000;stroke-linejoin:round;stroke-width:2px"/>

</g>

</svg>