<?xml version="1.0" encoding="utf-8"?>
<svg width="800px" height="800px" viewBox="0 0 64 64" xmlns="http://www.w3.org/2000/svg">

<title>cosmonaut</title>

<g id="cosmonaut">

<rect x="43" y="5" width="19" height="15" style="fill:none;stroke:#000000;stroke-linecap:round;stroke-linejoin:round;stroke-width:2px"/>

<circle cx="10.251" cy="16.232" r="1.069"/>

<circle cx="60.251" cy="32.232" r="1.069"/>

<circle cx="51.251" cy="43.232" r="1.069"/>

<circle cx="51.251" cy="29.232" r="1.069"/>

<path d="M12,25.7V22.842A1.842,1.842,0,0,1,13.842,21h1.849" style="fill:none;stroke:#000000;stroke-linecap:round;stroke-linejoin:round;stroke-width:2px"/>

<path d="M16.637,42h-.549A4.088,4.088,0,0,1,12,37.912v-5.68" style="fill:none;stroke:#000000;stroke-linecap:round;stroke-linejoin:round;stroke-width:2px"/>

<path d="M38,32.232v5.68A4.088,4.088,0,0,1,33.912,42h-.53" style="fill:none;stroke:#000000;stroke-linecap:round;stroke-linejoin:round;stroke-width:2px"/>

<path d="M34.293,21h1.865A1.842,1.842,0,0,1,38,22.842V25.7" style="fill:none;stroke:#000000;stroke-linecap:round;stroke-linejoin:round;stroke-width:2px"/>

<line x1="6.586" y1="5.586" x2="9.414" y2="8.414" style="fill:none;stroke:#000000;stroke-linecap:round;stroke-linejoin:round;stroke-width:2px"/>

<line x1="9.414" y1="5.586" x2="6.586" y2="8.414" style="fill:none;stroke:#000000;stroke-linecap:round;stroke-linejoin:round;stroke-width:2px"/>

<line x1="43" y1="11" x2="43" y2="59" style="fill:none;stroke:#000000;stroke-linecap:round;stroke-linejoin:round;stroke-width:2px"/>

<path d="M16.637,54.32A53.531,53.531,0,0,0,2.076,60.446" style="fill:none;stroke:#000000;stroke-linecap:round;stroke-linejoin:round;stroke-width:2px"/>

<path d="M59.512,56.3A68.92,68.92,0,0,0,35,52q-.883,0-1.759.02" style="fill:none;stroke:#000000;stroke-linecap:round;stroke-linejoin:round;stroke-width:2px"/>

<path d="M9.621,30H8a4,4,0,0,1-4-4h6" style="fill:none;stroke:#000000;stroke-linecap:round;stroke-linejoin:round;stroke-width:2px"/>

<path d="M40,26h6a4,4,0,0,1-4,4H40.271" style="fill:none;stroke:#000000;stroke-linecap:round;stroke-linejoin:round;stroke-width:2px"/>

<path d="M16,25.7V18a9,9,0,0,1,9-9h0a9,9,0,0,1,9,9v7.631" style="fill:none;stroke:#000000;stroke-linecap:round;stroke-linejoin:round;stroke-width:2px"/>

<path d="M19.581,17a2.058,2.058,0,0,0-1.526,3.46A9.9,9.9,0,0,0,25,23,10,10,0,0,0,31.805,20.6,2.072,2.072,0,0,0,30.407,17Z" style="fill:none;stroke:#000000;stroke-linecap:round;stroke-linejoin:round;stroke-width:2px"/>

<path d="M40,26H10v6h7V55.049A3.951,3.951,0,0,0,20.951,59h8.1A3.951,3.951,0,0,0,33,55.049V32h7Z" style="fill:none;stroke:#000000;stroke-linecap:round;stroke-linejoin:round;stroke-width:2px"/>

<line x1="25" y1="48" x2="25" y2="59" style="fill:none;stroke:#000000;stroke-linecap:round;stroke-linejoin:round;stroke-width:2px"/>

<line x1="22" y1="33" x2="28" y2="33" style="fill:none;stroke:#000000;stroke-linecap:round;stroke-linejoin:round;stroke-width:2px"/>

<line x1="32" y1="7" x2="32" y2="12.074" style="fill:none;stroke:#000000;stroke-linecap:round;stroke-linejoin:round;stroke-width:2px"/>

<line x1="62" y1="10" x2="43" y2="10" style="fill:none;stroke:#000000;stroke-linejoin:round;stroke-width:2px"/>

<line x1="62" y1="15" x2="43" y2="15" style="fill:none;stroke:#000000;stroke-linejoin:round;stroke-width:2px"/>

</g>

</svg>