<?xml version="1.0" encoding="utf-8"?>
<svg width="800px" height="800px" viewBox="0 0 64 64" xmlns="http://www.w3.org/2000/svg">

<title>costume</title>

<g id="costume">

<polyline points="10.435 32.009 9.123 35.268 4.327 33.337 5.626 30.109" style="fill:none;stroke:#000000;stroke-linecap:round;stroke-linejoin:round;stroke-width:2px"/>

<path d="M12.213,7.453,9.16,18.333c-1.513.7-3.223,3.524-3.9,5.406-1.207,3.334.04,6.842,2.785,7.836s5.948-.9,7.155-4.236c.419-1.157.93-2.294,1.207-3.339" style="fill:none;stroke:#000000;stroke-linecap:round;stroke-linejoin:round;stroke-width:2px"/>

<polyline points="39.47 31.943 40.808 35.268 45.605 33.337 44.305 30.109" style="fill:none;stroke:#000000;stroke-linecap:round;stroke-linejoin:round;stroke-width:2px"/>

<path d="M37.719,7.453l3.053,10.88c1.512.7,3.223,3.524,3.9,5.406,1.207,3.334-.039,6.842-2.784,7.836s-5.949-.9-7.156-4.236c-.4-1.113-.892-2.209-1.175-3.221" style="fill:none;stroke:#000000;stroke-linecap:round;stroke-linejoin:round;stroke-width:2px"/>

<circle cx="54" cy="28" r="1.025"/>

<circle cx="46" cy="56" r="1.025"/>

<circle cx="52" cy="46" r="2" style="fill:none;stroke:#000000;stroke-linecap:round;stroke-linejoin:round;stroke-width:2px"/>

<path d="M17.553,5.026a25.444,25.444,0,0,0-5.34,2.427l2.4,7.193v1.96a14.645,14.645,0,0,0,2.459,8.122l.738,1.106a18.462,18.462,0,0,0-4.795,9.591V59.4C20,64,29,64,36.988,59.4V35.425a18.462,18.462,0,0,0-4.8-9.591l.738-1.106a14.645,14.645,0,0,0,2.459-8.122v-1.96l2.4-7.193A25.518,25.518,0,0,0,32.363,5" style="fill:none;stroke:#000000;stroke-linecap:round;stroke-linejoin:round;stroke-width:2px"/>

<polyline points="18 5 25 6 32 5" style="fill:none;stroke:#000000;stroke-linejoin:round;stroke-width:2px"/>

<polygon points="25 3 18 1 18 5 18 12 25 15 32 12 32 5 32 1 25 3" style="fill:none;stroke:#000000;stroke-linecap:round;stroke-linejoin:round;stroke-width:2px"/>

<rect x="16" y="26" width="18" height="3" style="fill:none;stroke:#000000;stroke-linecap:round;stroke-linejoin:round;stroke-width:2px"/>

<polyline points="21 29.48 21 51 18 51 18 29.535" style="fill:none;stroke:#000000;stroke-linecap:round;stroke-linejoin:round;stroke-width:2px"/>

<polyline points="21.385 29.825 28 44 24 45 21.203 33.811" style="fill:none;stroke:#000000;stroke-linecap:round;stroke-linejoin:round;stroke-width:2px"/>

<line x1="32" y1="54" x2="32" y2="58" style="fill:none;stroke:#000000;stroke-linecap:round;stroke-linejoin:round;stroke-width:2px"/>

<line x1="30" y1="56" x2="34" y2="56" style="fill:none;stroke:#000000;stroke-linecap:round;stroke-linejoin:round;stroke-width:2px"/>

<line x1="18" y1="54" x2="18" y2="58" style="fill:none;stroke:#000000;stroke-linecap:round;stroke-linejoin:round;stroke-width:2px"/>

<line x1="16" y1="56" x2="20" y2="56" style="fill:none;stroke:#000000;stroke-linecap:round;stroke-linejoin:round;stroke-width:2px"/>

<line x1="25" y1="56" x2="25" y2="60" style="fill:none;stroke:#000000;stroke-linecap:round;stroke-linejoin:round;stroke-width:2px"/>

<line x1="23" y1="58" x2="27" y2="58" style="fill:none;stroke:#000000;stroke-linecap:round;stroke-linejoin:round;stroke-width:2px"/>

<line x1="25" y1="9" x2="25" y2="16" style="fill:none;stroke:#000000;stroke-linecap:round;stroke-linejoin:round;stroke-width:2px"/>

<line x1="23" y1="11" x2="27" y2="11" style="fill:none;stroke:#000000;stroke-linecap:round;stroke-linejoin:round;stroke-width:2px"/>

<line x1="25" y1="3" x2="25" y2="6" style="fill:none;stroke:#000000;stroke-linejoin:round;stroke-width:2px"/>

</g>

</svg>