<?xml version="1.0" encoding="utf-8"?>
<svg width="800px" height="800px" viewBox="0 0 64 64" id="crown" xmlns="http://www.w3.org/2000/svg"><title>crown</title><line x1="7" y1="8" x2="7" y2="10" style="fill:none;stroke:#000000;stroke-linecap:round;stroke-linejoin:round;stroke-width:2px"/><line x1="7" y1="14" x2="7" y2="16" style="fill:none;stroke:#000000;stroke-linecap:round;stroke-linejoin:round;stroke-width:2px"/><line x1="3" y1="12" x2="5" y2="12" style="fill:none;stroke:#000000;stroke-linecap:round;stroke-linejoin:round;stroke-width:2px"/><line x1="9" y1="12" x2="11" y2="12" style="fill:none;stroke:#000000;stroke-linecap:round;stroke-linejoin:round;stroke-width:2px"/><circle cx="54" cy="36" r="2" style="fill:none;stroke:#000000;stroke-linecap:round;stroke-linejoin:round;stroke-width:2px"/><path d="M43.643,31.667a6.127,6.127,0,0,0-9.008-1.13l-1.33,1.146" style="fill:none;stroke:#000000;stroke-linejoin:round;stroke-width:2px"/><path d="M12.647,31.346a6.128,6.128,0,0,1,8.767-.809l1.311,1.129" style="fill:none;stroke:#000000;stroke-linejoin:round;stroke-width:2px"/><line x1="62.129" y1="14" x2="59.181" y2="16.948" style="fill:none;stroke:#000000;stroke-linecap:round;stroke-linejoin:round;stroke-width:2px"/><line x1="59.181" y1="14" x2="62.129" y2="16.948" style="fill:none;stroke:#000000;stroke-linecap:round;stroke-linejoin:round;stroke-width:2px"/><path d="M14,46.712V42.535a6.093,6.093,0,0,0-1.087-3.481L10.057,34.93a10.117,10.117,0,0,1,2.706-14.176,10.157,10.157,0,0,1,10.248-.571" style="fill:none;stroke:#000000;stroke-linecap:round;stroke-linejoin:round;stroke-width:2px"/><path d="M22.491,24.646l-.126-.109a6.138,6.138,0,0,0-7.384-.454,6.116,6.116,0,0,0-1.635,8.57L16.2,36.777A10.07,10.07,0,0,1,18,42.535v4.277" style="fill:none;stroke:#000000;stroke-linecap:round;stroke-linejoin:round;stroke-width:2px"/><path d="M42.56,46.687V42.535a6.093,6.093,0,0,1,1.087-3.481L46.5,34.93A10.117,10.117,0,0,0,43.8,20.754a10.16,10.16,0,0,0-10.357-.515" style="fill:none;stroke:#000000;stroke-linecap:round;stroke-linejoin:round;stroke-width:2px"/><path d="M33.482,25.151l.713-.614a6.138,6.138,0,0,1,7.384-.454,6.116,6.116,0,0,1,1.635,8.57l-2.855,4.124a10.07,10.07,0,0,0-1.8,5.758v4.127" style="fill:none;stroke:#000000;stroke-linecap:round;stroke-linejoin:round;stroke-width:2px"/><polyline points="11 55 11 47 45 47 45 55" style="fill:none;stroke:#000000;stroke-linecap:round;stroke-linejoin:round;stroke-width:2px"/><rect x="25.879" y="48.879" width="4.243" height="4.243" transform="translate(-27.861 34.737) rotate(-45)" style="fill:none;stroke:#000000;stroke-linecap:round;stroke-linejoin:round;stroke-width:2px"/><rect x="35.879" y="48.879" width="4.243" height="4.243" transform="translate(-24.933 41.808) rotate(-45)" style="fill:none;stroke:#000000;stroke-linecap:round;stroke-linejoin:round;stroke-width:2px"/><path d="M31.569,18.809a4,4,0,1,0-7.1.078" style="fill:none;stroke:#000000;stroke-linecap:round;stroke-linejoin:round;stroke-width:2px"/><rect x="15.879" y="48.879" width="4.243" height="4.243" transform="translate(-30.79 27.665) rotate(-45)" style="fill:none;stroke:#000000;stroke-linecap:round;stroke-linejoin:round;stroke-width:2px"/><rect x="9" y="55" width="38" height="7" rx="2.591" ry="2.591" style="fill:none;stroke:#000000;stroke-linecap:round;stroke-linejoin:round;stroke-width:2px"/><rect x="23" y="19" width="10" height="28" style="fill:none;stroke:#000000;stroke-linecap:round;stroke-linejoin:round;stroke-width:2px"/><path d="M34,9a.919.919,0,0,1-.165-.014l-6-1A1,1,0,0,1,27,7V6a1,1,0,0,1,.835-.986l6-1A1,1,0,0,1,35,5V8a1,1,0,0,1-1,1ZM31.083,6.5,33,6.819V6.181Z"/><path d="M22,9a1,1,0,0,1-1-1V5a1,1,0,0,1,1.165-.986l6,1A1,1,0,0,1,29,6V7a1,1,0,0,1-.835.986l-6,1A.919.919,0,0,1,22,9Zm1-2.819v.638L24.917,6.5Z"/><path d="M28.5,7.5h-1a1,1,0,0,1-.984-.821l-1-5.5A1,1,0,0,1,26.5,0h3a1,1,0,0,1,.984,1.179l-1,5.5A1,1,0,0,1,28.5,7.5ZM27.7,2,28,3.66,28.3,2Z"/><path d="M29.5,14h-3a1,1,0,0,1-.988-1.152l1-6.5A1,1,0,0,1,27.5,5.5h1a1,1,0,0,1,.988.848l1,6.5A1,1,0,0,1,29.5,14Zm-1.834-2h.668L28,9.827Z"/><circle cx="13" cy="58" r="1"/><circle cx="17" cy="59" r="1"/><circle cx="22" cy="58" r="1"/><circle cx="31" cy="59" r="1"/><circle cx="27" cy="59" r="1"/><circle cx="37" cy="58" r="1"/><circle cx="45" cy="10" r="1"/><circle cx="41" cy="59" r="1"/></svg>