<?xml version="1.0" encoding="utf-8"?>
<svg width="800px" height="800px" viewBox="0 0 64 64" xmlns="http://www.w3.org/2000/svg">

<title>divorce</title>

<g id="divorce">

<circle cx="15" cy="13" r="1"/>

<circle cx="48" cy="13" r="1"/>

<path d="M24.251,42.794A7.752,7.752,0,0,1,27,49.079V59" style="fill:none;stroke:#000000;stroke-linecap:round;stroke-linejoin:round;stroke-width:2px"/>

<path d="M3,59V49.079A7.753,7.753,0,0,1,5.745,42.8" style="fill:none;stroke:#000000;stroke-linecap:round;stroke-linejoin:round;stroke-width:2px"/>

<path d="M24,47l-9,6L6,47V25.959A7.959,7.959,0,0,1,13.959,18h2.082A7.959,7.959,0,0,1,24,25.959Z" style="fill:none;stroke:#000000;stroke-linecap:round;stroke-linejoin:round;stroke-width:2px"/>

<path d="M57.351,42.167l.271.081a4.374,4.374,0,0,1,3.378,4V59" style="fill:none;stroke:#000000;stroke-linecap:round;stroke-linejoin:round;stroke-width:2px"/>

<line x1="51.312" y1="40.005" x2="52.522" y2="40.531" style="fill:#6b4f5b;stroke:#000000;stroke-linecap:round;stroke-linejoin:round;stroke-width:2px"/>

<path d="M37,59V46.247a4.374,4.374,0,0,1,3.378-4,45.373,45.373,0,0,0,5.1-1.717l.985-.428" style="fill:none;stroke:#000000;stroke-linecap:round;stroke-linejoin:round;stroke-width:2px"/>

<path d="M51,38.259V40a2,2,0,0,1-2,2h0a2,2,0,0,1-2-2v-1.8" style="fill:none;stroke:#000000;stroke-linecap:round;stroke-linejoin:round;stroke-width:2px"/>

<polyline points="57 27 57 54 53 54 53 38" style="fill:none;stroke:#000000;stroke-linecap:round;stroke-linejoin:round;stroke-width:2px"/>

<path d="M56,27.328V33.5A4.5,4.5,0,0,1,51.5,38h-5A4.5,4.5,0,0,1,42,33.5V27.328" style="fill:none;stroke:#000000;stroke-linecap:round;stroke-linejoin:round;stroke-width:2px"/>

<path d="M55.23,19.211A2.848,2.848,0,0,1,57,21.847V27H41V21.847a2.848,2.848,0,0,1,1.72-2.615" style="fill:none;stroke:#000000;stroke-linecap:round;stroke-linejoin:round;stroke-width:2px"/>

<path d="M43,21V18.847A2.847,2.847,0,0,1,45.847,16h6.306A2.847,2.847,0,0,1,55,18.847V21" style="fill:none;stroke:#000000;stroke-linecap:round;stroke-linejoin:round;stroke-width:2px"/>

<line x1="49" y1="52" x2="49" y2="42" style="fill:none;stroke:#000000;stroke-linecap:round;stroke-linejoin:round;stroke-width:2px"/>

<path d="M9,25.463V34a5,5,0,0,0,5,5h2a5,5,0,0,0,5-5V25.577" style="fill:none;stroke:#000000;stroke-linecap:round;stroke-linejoin:round;stroke-width:2px"/>

<line x1="9" y1="34" x2="21" y2="34" style="fill:#f4aeab;stroke:#000000;stroke-linejoin:round;stroke-width:2px"/>

<path d="M8,25h4a3.972,3.972,0,0,0,3-1.38A3.972,3.972,0,0,0,18,25h4" style="fill:#ffce56;stroke:#000000;stroke-linecap:round;stroke-linejoin:round;stroke-width:2px"/>

<polyline points="46 34 48 33 50 33 52 34" style="fill:none;stroke:#000000;stroke-linecap:round;stroke-linejoin:round;stroke-width:2px"/>

<line x1="32" y1="63" x2="32" y2="10" style="fill:none;stroke:#000000;stroke-linecap:round;stroke-linejoin:round;stroke-width:2px"/>

<line x1="23.837" y1="4.663" x2="20.163" y2="8.337" style="fill:none;stroke:#000000;stroke-linecap:round;stroke-linejoin:round;stroke-width:2px"/>

<line x1="20.163" y1="4.663" x2="23.837" y2="8.337" style="fill:none;stroke:#000000;stroke-linecap:round;stroke-linejoin:round;stroke-width:2px"/>

<line x1="40.837" y1="6.663" x2="37.163" y2="10.337" style="fill:none;stroke:#000000;stroke-linecap:round;stroke-linejoin:round;stroke-width:2px"/>

<line x1="37.163" y1="6.663" x2="40.837" y2="10.337" style="fill:none;stroke:#000000;stroke-linecap:round;stroke-linejoin:round;stroke-width:2px"/>

</g>

</svg>