<?xml version="1.0" encoding="utf-8"?>
<svg width="800px" height="800px" viewBox="0 0 64 64" xmlns="http://www.w3.org/2000/svg">

<title>dog-cosmos</title>

<g id="dog-cosmos">

<circle cx="37.5" cy="31.5" r="19.5" style="fill:none"/>

<circle cx="51.509" cy="12.6" r="10.8" style="fill:none;stroke:#000000;stroke-linecap:round;stroke-linejoin:round;stroke-width:2px"/>

<circle cx="47.709" cy="12.6" r="3.6" style="fill:none;stroke:#000000;stroke-linecap:round;stroke-linejoin:round;stroke-width:2px"/>

<circle cx="56.509" cy="14.8" r="1.8" style="fill:none;stroke:#000000;stroke-linecap:round;stroke-linejoin:round;stroke-width:2px"/>

<path d="M47.171,3.106A4.194,4.194,0,0,0,50.909,5.4a4.181,4.181,0,0,0,3.885-2.652" style="fill:none;stroke:#000000;stroke-linecap:round;stroke-linejoin:round;stroke-width:2px"/>

<circle cx="56" cy="9" r="1"/>

<line x1="13.884" y1="22.637" x2="10.203" y2="26.304" style="fill:none;stroke:#000000;stroke-linecap:round;stroke-linejoin:round;stroke-width:2px"/>

<line x1="10.21" y1="22.63" x2="13.877" y2="26.311" style="fill:none;stroke:#000000;stroke-linecap:round;stroke-linejoin:round;stroke-width:2px"/>

<circle cx="38.5" cy="30.5" r="1.5"/>

<path d="M40.923,43.215,32,45s-4.492-3.369-8.209-5.957" style="fill:none;stroke:#000000;stroke-linejoin:round;stroke-width:2px"/>

<path d="M38.067,57.659,41,43V37l1,1,3.424-.856C48.113,36.472,51,34.055,51,31.283V28H43l-2.752-1.651A9.461,9.461,0,0,0,35.378,25H30c-2.761,0-5,3.134-5,7v5a27.219,27.219,0,0,1-3.689,5.311,33.042,33.042,0,0,0,2.48-3.268" style="fill:none;stroke:#000000;stroke-linecap:round;stroke-linejoin:round;stroke-width:2px"/>

<circle cx="17.5" cy="8.5" r="1.5"/>

<path d="M33,31v4a4,4,0,0,1-4,4h0a4,4,0,0,1-4-4" style="fill:none;stroke:#000000;stroke-linecap:round;stroke-linejoin:round;stroke-width:2px"/>

<circle cx="37.5" cy="31.5" r="19.5" style="fill:none;stroke:#000000;stroke-linecap:round;stroke-linejoin:round;stroke-width:2px"/>

<path d="M37.5,16A15.431,15.431,0,0,0,29,18.537" style="fill:none;stroke:#000000;stroke-linecap:round;stroke-linejoin:round;stroke-width:2px"/>

<path d="M6.072,57.659l3.094-14.7a3.817,3.817,0,0,1,4.741-2.9L21,42,14.149,57.659" style="fill:none;stroke:#000000;stroke-linecap:round;stroke-linejoin:round;stroke-width:2px"/>

<line x1="58" y1="58" x2="3" y2="58" style="fill:none;stroke:#000000;stroke-linecap:round;stroke-linejoin:round;stroke-width:2px"/>

<line x1="31" y1="50" x2="28" y2="58" style="fill:none;stroke:#000000;stroke-linecap:round;stroke-linejoin:round;stroke-width:2px"/>

<circle cx="34" cy="54" r="1"/>

</g>

</svg>