<?xml version="1.0" encoding="utf-8"?>
<svg width="800px" height="800px" viewBox="0 0 64 64" xmlns="http://www.w3.org/2000/svg">

<title>excalibur</title>

<g id="excalibur">

<line x1="55.129" y1="19" x2="52.181" y2="21.948" style="fill:none;stroke:#000000;stroke-linecap:round;stroke-linejoin:round;stroke-width:2px"/>

<line x1="52.181" y1="19" x2="55.129" y2="21.948" style="fill:none;stroke:#000000;stroke-linecap:round;stroke-linejoin:round;stroke-width:2px"/>

<circle cx="38.5" cy="11.5" r="2.5" style="fill:none;stroke:#000000;stroke-linecap:round;stroke-linejoin:round;stroke-width:2px"/>

<polyline points="35.998 50.01 60.998 49.99 53.002 54.996" style="fill:none;stroke:#000000;stroke-linecap:round;stroke-linejoin:round;stroke-width:2px"/>

<polyline points="27.13 47.874 35 47 37 55 53 55 55 60 57 62" style="fill:none;stroke:#000000;stroke-linecap:round;stroke-linejoin:round;stroke-width:2px"/>

<polyline points="2 62 8 53 15.149 49.823" style="fill:none;stroke:#000000;stroke-linecap:round;stroke-linejoin:round;stroke-width:2px"/>

<line x1="27.817" y1="33.288" x2="26" y2="56" style="fill:none;stroke:#000000;stroke-linecap:round;stroke-linejoin:round;stroke-width:2px"/>

<line x1="16" y1="56" x2="14.183" y2="33.288" style="fill:none;stroke:#000000;stroke-linecap:round;stroke-linejoin:round;stroke-width:2px"/>

<line x1="21" y1="34" x2="21" y2="52" style="fill:none;stroke:#000000;stroke-linecap:round;stroke-linejoin:round;stroke-width:2px"/>

<circle cx="21" cy="10" r="5" style="fill:none;stroke:#000000;stroke-linecap:round;stroke-linejoin:round;stroke-width:2px"/>

<path d="M25,7.006V4a3,3,0,0,0-3-3H20a3,3,0,0,0-3,3V6.693" style="fill:none;stroke:#000000;stroke-linecap:round;stroke-linejoin:round;stroke-width:2px"/>

<polyline points="17 12.994 17 29 25 29 25 12.992" style="fill:none;stroke:#000000;stroke-linecap:round;stroke-linejoin:round;stroke-width:2px"/>

<polygon points="34 28 34 29 8 29 8 28 5 28 5 34 8 34 8 32 21 34 34 32 34 34 37 34 37 28 34 28" style="fill:none;stroke:#000000;stroke-linecap:round;stroke-linejoin:round;stroke-width:2px"/>

<line x1="21" y1="56" x2="30" y2="56" style="fill:none;stroke:#000000;stroke-linecap:round;stroke-linejoin:round;stroke-width:2px"/>

<polyline points="63 62 63 55 61 50" style="fill:none;stroke:#000000;stroke-linecap:round;stroke-linejoin:round;stroke-width:2px"/>

<line x1="37.5" y1="42.5" x2="37.5" y2="37.5" style="fill:none;stroke:#000000;stroke-linecap:round;stroke-linejoin:round;stroke-width:2px"/>

<line x1="34.5" y1="42.5" x2="32.5" y2="39.5" style="fill:none;stroke:#000000;stroke-linecap:round;stroke-linejoin:round;stroke-width:2px"/>

<line x1="42.5" y1="39.5" x2="40.5" y2="42.5" style="fill:none;stroke:#000000;stroke-linecap:round;stroke-linejoin:round;stroke-width:2px"/>

<line x1="25" y1="25" x2="17" y2="25" style="fill:none;stroke:#000000;stroke-linejoin:round;stroke-width:2px"/>

</g>

</svg>