<?xml version="1.0" encoding="utf-8"?>
<svg width="800px" height="800px" viewBox="0 0 64 64" xmlns="http://www.w3.org/2000/svg">

<title>eye-wheel</title>

<g id="eye-wheel">

<circle cx="14" cy="3" r="1"/>

<circle cx="57" cy="51" r="1"/>

<line x1="8.129" y1="8" x2="5.181" y2="10.948" style="fill:none;stroke:#000000;stroke-linecap:round;stroke-linejoin:round;stroke-width:2px"/>

<line x1="5.181" y1="8" x2="8.129" y2="10.948" style="fill:none;stroke:#000000;stroke-linecap:round;stroke-linejoin:round;stroke-width:2px"/>

<path d="M60,61h0a4,4,0,0,0-4-4H8a4,4,0,0,0-4,4H4" style="fill:none;stroke:#000000;stroke-linecap:round;stroke-linejoin:round;stroke-width:2px"/>

<line x1="13" y1="28" x2="51" y2="28" style="fill:none;stroke:#b5a19c;stroke-linecap:round;stroke-linejoin:round;stroke-width:2px"/>

<line x1="32" y1="47" x2="32" y2="9" style="fill:none;stroke:#b5a19c;stroke-linecap:round;stroke-linejoin:round;stroke-width:2px"/>

<line x1="18.565" y1="41.435" x2="45.435" y2="14.565" style="fill:none;stroke:#b5a19c;stroke-linecap:round;stroke-linejoin:round;stroke-width:2px"/>

<line x1="45.435" y1="41.435" x2="18.565" y2="14.565" style="fill:none;stroke:#b5a19c;stroke-linecap:round;stroke-linejoin:round;stroke-width:2px"/>

<line x1="14.489" y1="35.374" x2="49.511" y2="20.626" style="fill:none;stroke:#b5a19c;stroke-linecap:round;stroke-linejoin:round;stroke-width:2px"/>

<line x1="39.374" y1="45.511" x2="24.626" y2="10.489" style="fill:none;stroke:#b5a19c;stroke-linecap:round;stroke-linejoin:round;stroke-width:2px"/>

<line x1="24.833" y1="45.596" x2="39.167" y2="10.404" style="fill:none;stroke:#b5a19c;stroke-linecap:round;stroke-linejoin:round;stroke-width:2px"/>

<line x1="49.596" y1="35.167" x2="14.404" y2="20.833" style="fill:none;stroke:#b5a19c;stroke-linecap:round;stroke-linejoin:round;stroke-width:2px"/>

<polygon points="32 27 24 57 40 57 32 27" style="fill:none;stroke:#000000;stroke-linecap:round;stroke-linejoin:round;stroke-width:2px"/>

<circle cx="32" cy="28" r="2" style="fill:none;stroke:#000000;stroke-linecap:round;stroke-linejoin:round;stroke-width:2px"/>

<rect x="30" y="3" width="4" height="4" style="fill:none;stroke:#000000;stroke-linecap:round;stroke-linejoin:round;stroke-width:2.02952073636425px"/>

<rect x="30" y="49" width="4" height="4" style="fill:none;stroke:#000000;stroke-linecap:round;stroke-linejoin:round;stroke-width:2.02952073636425px"/>

<rect x="7" y="26" width="4" height="4" transform="translate(-19 37) rotate(-90)" style="fill:none;stroke:#000000;stroke-linecap:round;stroke-linejoin:round;stroke-width:2.02952073636425px"/>

<rect x="53" y="26" width="4" height="4" transform="translate(27 83) rotate(-90)" style="fill:none;stroke:#000000;stroke-linecap:round;stroke-linejoin:round;stroke-width:2.02952073636425px"/>

<rect x="13.737" y="9.737" width="4" height="4" transform="translate(-3.69 14.565) rotate(-45)" style="fill:none;stroke:#000000;stroke-linecap:round;stroke-linejoin:round;stroke-width:2.02952073636425px"/>

<rect x="46.263" y="42.263" width="4" height="4" transform="translate(-17.163 47.092) rotate(-45)" style="fill:none;stroke:#000000;stroke-linecap:round;stroke-linejoin:round;stroke-width:2.02952073636425px"/>

<rect x="13.737" y="42.263" width="4" height="4" transform="translate(-4.435 86.69) rotate(-135)" style="fill:none;stroke:#000000;stroke-linecap:round;stroke-linejoin:round;stroke-width:2.02952073636425px"/>

<rect x="46.263" y="9.737" width="4" height="4" transform="translate(74.092 54.163) rotate(-135)" style="fill:none;stroke:#000000;stroke-linecap:round;stroke-linejoin:round;stroke-width:2.02952073636425px"/>

<circle cx="14" cy="3" r="1"/>

<circle cx="57" cy="51" r="1"/>

<line x1="8.129" y1="8" x2="5.181" y2="10.948" style="fill:none;stroke:#000000;stroke-linecap:round;stroke-linejoin:round;stroke-width:2px"/>

<line x1="5.181" y1="8" x2="8.129" y2="10.948" style="fill:none;stroke:#000000;stroke-linecap:round;stroke-linejoin:round;stroke-width:2px"/>

<path d="M60,61h0a4,4,0,0,0-4-4H8a4,4,0,0,0-4,4H4" style="fill:none;stroke:#000000;stroke-linecap:round;stroke-linejoin:round;stroke-width:2px"/>

<path d="M17.356,45.737a22.9,22.9,0,0,0,12.292,5.144" style="fill:none;stroke:#000000;stroke-linecap:round;stroke-linejoin:round;stroke-width:2px"/>

<path d="M9.1,30.207a22.9,22.9,0,0,0,5.133,12.405" style="fill:none;stroke:#000000;stroke-linecap:round;stroke-linejoin:round;stroke-width:2px"/>

<path d="M14.238,13.387A22.9,22.9,0,0,0,9.126,25.578" style="fill:none;stroke:#000000;stroke-linecap:round;stroke-linejoin:round;stroke-width:2px"/>

<path d="M29.814,5.1A22.885,22.885,0,0,0,17.43,10.2" style="fill:none;stroke:#000000;stroke-linecap:round;stroke-linejoin:round;stroke-width:2px"/>

<path d="M46.571,10.2a22.9,22.9,0,0,0-12.1-5.073" style="fill:none;stroke:#000000;stroke-linecap:round;stroke-linejoin:round;stroke-width:2px"/>

<path d="M54.9,25.83a22.9,22.9,0,0,0-5.245-12.574" style="fill:none;stroke:#000000;stroke-linecap:round;stroke-linejoin:round;stroke-width:2px"/>

<path d="M49.653,42.744A22.9,22.9,0,0,0,54.914,30" style="fill:none;stroke:#000000;stroke-linecap:round;stroke-linejoin:round;stroke-width:2px"/>

<path d="M34.227,50.894a22.9,22.9,0,0,0,12.317-5.075" style="fill:none;stroke:#000000;stroke-linecap:round;stroke-linejoin:round;stroke-width:2px"/>

<line x1="13" y1="28" x2="51" y2="28" style="fill:none;stroke:#000000;stroke-linecap:round;stroke-linejoin:round;stroke-width:2px"/>

<line x1="32" y1="47" x2="32" y2="9" style="fill:none;stroke:#000000;stroke-linecap:round;stroke-linejoin:round;stroke-width:2px"/>

<line x1="18.565" y1="41.435" x2="45.435" y2="14.565" style="fill:none;stroke:#000000;stroke-linecap:round;stroke-linejoin:round;stroke-width:2px"/>

<line x1="45.435" y1="41.435" x2="18.565" y2="14.565" style="fill:none;stroke:#000000;stroke-linecap:round;stroke-linejoin:round;stroke-width:2px"/>

<line x1="14.489" y1="35.374" x2="49.511" y2="20.626" style="fill:none;stroke:#000000;stroke-linecap:round;stroke-linejoin:round;stroke-width:2px"/>

<line x1="39.374" y1="45.511" x2="24.626" y2="10.489" style="fill:none;stroke:#000000;stroke-linecap:round;stroke-linejoin:round;stroke-width:2px"/>

<line x1="24.833" y1="45.596" x2="39.167" y2="10.404" style="fill:none;stroke:#000000;stroke-linecap:round;stroke-linejoin:round;stroke-width:2px"/>

<line x1="49.596" y1="35.167" x2="14.404" y2="20.833" style="fill:none;stroke:#000000;stroke-linecap:round;stroke-linejoin:round;stroke-width:2px"/>

<polyline points="39.927 56.727 32 27 24.082 56.693" style="fill:none;stroke:#000000;stroke-linecap:round;stroke-linejoin:round;stroke-width:2px"/>

<circle cx="32" cy="28" r="2" style="fill:none;stroke:#000000;stroke-linecap:round;stroke-linejoin:round;stroke-width:2px"/>

</g>

</svg>