<?xml version="1.0" encoding="utf-8"?>
<svg width="800px" height="800px" viewBox="0 0 64 64" xmlns="http://www.w3.org/2000/svg">

<title>female</title>

<g id="female">

<path d="M25.568,8.761a14.557,14.557,0,0,0-4.559,3.9,13.929,13.929,0,0,0-2.417,5.227A17.98,17.98,0,0,0,18,21.5v.385a5.088,5.088,0,0,0,.713,2.606" style="fill:none;stroke:#000000;stroke-linecap:round;stroke-linejoin:round;stroke-width:2px"/>

<path d="M46.3,24.472a5.1,5.1,0,0,0,.7-2.587h0a15.053,15.053,0,0,0-7.4-13" style="fill:none;stroke:#000000;stroke-linecap:round;stroke-linejoin:round;stroke-width:2px"/>

<line x1="22.545" y1="63" x2="42.625" y2="47.33" style="fill:none;stroke:#000000;stroke-linecap:round;stroke-linejoin:round;stroke-width:2px"/>

<line x1="36" y1="39.501" x2="36" y2="42.517" style="fill:none;stroke:#000000;stroke-linecap:round;stroke-linejoin:round;stroke-width:2px"/>

<line x1="29" y1="43" x2="29" y2="39.791" style="fill:none;stroke:#000000;stroke-linecap:round;stroke-linejoin:round;stroke-width:2px"/>

<path d="M46.031,24.723C40,28,25.055,21.676,24.507,16.7l-.1.008C24.763,24.021,19,24.709,19,24.709a2.5,2.5,0,0,0-1.5,2.382,2.56,2.56,0,0,0,1.183,1.97,2.225,2.225,0,0,0,2.108.3A13.9,13.9,0,0,0,30.15,39.808a6.978,6.978,0,0,0,4.285-.046l.444-.144a13.9,13.9,0,0,0,9.293-10.269,2.282,2.282,0,0,0,2.093-.238,2.537,2.537,0,0,0,1.215-1.793A2.5,2.5,0,0,0,46.031,24.723Z" style="fill:none;stroke:#000000;stroke-linecap:round;stroke-linejoin:round;stroke-width:2px"/>

<circle cx="6.5" cy="23.5" r="2.5" style="fill:none;stroke:#000000;stroke-linecap:round;stroke-linejoin:round;stroke-width:2px"/>

<circle cx="59.5" cy="18.5" r="1.132"/>

<circle cx="13.5" cy="34.5" r="1.132"/>

<line x1="56.837" y1="8.663" x2="53.163" y2="12.337" style="fill:none;stroke:#000000;stroke-linecap:round;stroke-linejoin:round;stroke-width:2px"/>

<line x1="53.163" y1="8.663" x2="56.837" y2="12.337" style="fill:none;stroke:#000000;stroke-linecap:round;stroke-linejoin:round;stroke-width:2px"/>

<path d="M40,46.136l4.556,2.071A9.389,9.389,0,0,1,50,56.775V63H14V56.775a9.389,9.389,0,0,1,5.444-8.568l4.577-2.08" style="fill:none;stroke:#000000;stroke-linecap:round;stroke-linejoin:round;stroke-width:2px"/>

<line x1="29" y1="53" x2="36" y2="58" style="fill:none;stroke:#000000;stroke-linecap:round;stroke-linejoin:round;stroke-width:2px"/>

<line x1="31" y1="51" x2="38" y2="56" style="fill:none;stroke:#000000;stroke-linecap:round;stroke-linejoin:round;stroke-width:2px"/>

<line x1="21" y1="59" x2="21" y2="63" style="fill:none;stroke:#000000;stroke-linecap:round;stroke-linejoin:round;stroke-width:2px"/>

<path d="M39.6,3.053l6.031-1.508a1.5,1.5,0,1,1,.728,2.91L40.407,5.944" style="fill:none;stroke:#000000;stroke-linecap:round;stroke-linejoin:round;stroke-width:2px"/>

<path d="M25.568,3.1l-6.2-1.551a1.5,1.5,0,1,0-.728,2.91L24.815,6" style="fill:none;stroke:#000000;stroke-linecap:round;stroke-linejoin:round;stroke-width:2px"/>

<line x1="40" y1="28" x2="38" y2="29" style="fill:none;stroke:#000000;stroke-linecap:round;stroke-linejoin:round;stroke-width:2px"/>

<line x1="27" y1="29" x2="25" y2="28" style="fill:none;stroke:#000000;stroke-linecap:round;stroke-linejoin:round;stroke-width:2px"/>

<rect x="25" y="2" width="15" height="8" rx="3.591" ry="3.591" style="fill:none;stroke:#000000;stroke-linecap:round;stroke-linejoin:round;stroke-width:2px"/>

<path d="M23,43h5a4,4,0,0,1,4,4v0a0,0,0,0,1,0,0H27a4,4,0,0,1-4-4v0A0,0,0,0,1,23,43Z" style="fill:none;stroke:#000000;stroke-linecap:round;stroke-linejoin:round;stroke-width:2px"/>

<path d="M36,43h5a0,0,0,0,1,0,0v0a4,4,0,0,1-4,4H32a0,0,0,0,1,0,0v0A4,4,0,0,1,36,43Z" transform="translate(73 90) rotate(180)" style="fill:none;stroke:#000000;stroke-linecap:round;stroke-linejoin:round;stroke-width:2px"/>

<rect x="26" y="31" width="3" height="2" rx="1" ry="1"/>

<rect x="36" y="31" width="3" height="2" rx="1" ry="1"/>

</g>

</svg>