<?xml version="1.0" encoding="utf-8"?>
<svg width="800px" height="800px" viewBox="0 0 64 64" xmlns="http://www.w3.org/2000/svg">

<title>france-flag-love-ico</title>

<g id="france-flag-love-ico">

<line x1="7" y1="5" x2="7" y2="7" style="fill:none;stroke:#000000;stroke-linecap:round;stroke-linejoin:round;stroke-width:2px"/>

<line x1="7" y1="11" x2="7" y2="13" style="fill:none;stroke:#000000;stroke-linecap:round;stroke-linejoin:round;stroke-width:2px"/>

<line x1="3" y1="9" x2="5" y2="9" style="fill:none;stroke:#000000;stroke-linecap:round;stroke-linejoin:round;stroke-width:2px"/>

<line x1="9" y1="9" x2="11" y2="9" style="fill:none;stroke:#000000;stroke-linecap:round;stroke-linejoin:round;stroke-width:2px"/>

<circle cx="42.5" cy="58.5" r="2.5" style="fill:none;stroke:#000000;stroke-linecap:round;stroke-linejoin:round;stroke-width:2px"/>

<path d="M22.651,9.1a1.069,1.069,0,1,1-1.069-1.069A1.069,1.069,0,0,1,22.651,9.1Z"/>

<path d="M61.651,53.1a1.069,1.069,0,1,1-1.069-1.069A1.069,1.069,0,0,1,61.651,53.1Z"/>

<rect x="8" y="16" width="50" height="33" rx="6.212" ry="6.212" style="fill:none;stroke:#000000;stroke-linecap:round;stroke-linejoin:round;stroke-width:2px"/>

<line x1="42" y1="16" x2="42" y2="49" style="fill:none;stroke:#000000;stroke-linejoin:round;stroke-width:2px"/>

<line x1="24" y1="16" x2="24" y2="49" style="fill:none;stroke:#000000;stroke-linejoin:round;stroke-width:2px"/>

</g>

</svg>