<?xml version="1.0" encoding="utf-8"?>
<svg width="800px" height="800px" viewBox="0 0 64 64" xmlns="http://www.w3.org/2000/svg">

<title>gifts</title>

<g id="gifts">

<line x1="0.902" y1="19.005" x2="2.902" y2="19.005" style="fill:none;stroke:#000000;stroke-linecap:round;stroke-linejoin:round;stroke-width:2px"/>

<line x1="4.902" y1="15.005" x2="4.902" y2="17.005" style="fill:none;stroke:#000000;stroke-linecap:round;stroke-linejoin:round;stroke-width:2px"/>

<line x1="4.902" y1="21.005" x2="4.902" y2="23.005" style="fill:none;stroke:#000000;stroke-linecap:round;stroke-linejoin:round;stroke-width:2px"/>

<line x1="6.902" y1="19.005" x2="8.902" y2="19.005" style="fill:none;stroke:#000000;stroke-linecap:round;stroke-linejoin:round;stroke-width:2px"/>

<circle cx="12.984" cy="7.603" r="1.069"/>

<path d="M25.176,28.922s-2.338-9-5.183-9.815-6.8,3.279-6.439,5.232c.233,1.256,3.944,3.259,6.564,4.53" style="fill:none;stroke:#000000;stroke-linecap:round;stroke-linejoin:round;stroke-width:2px"/>

<path d="M25.069,28.53c.429-1.525,1.485-4.779,2.781-5.183,1.7-.53,4.13,1.882,3.938,3.061-.1.625-1.62,1.587-3.023,2.353" style="fill:none;stroke:#000000;stroke-linecap:round;stroke-linejoin:round;stroke-width:2px"/>

<path d="M41,38.508V58.322A2.678,2.678,0,0,1,38.322,61H11.588A2.678,2.678,0,0,1,8.91,58.322V38.508" style="fill:none;stroke:#000000;stroke-linecap:round;stroke-linejoin:round;stroke-width:2px"/>

<path d="M43,34.376v3.659H7v-4.2A4.833,4.833,0,0,1,11.833,29h22.8" style="fill:none;stroke:#000000;stroke-linecap:round;stroke-linejoin:round;stroke-width:2px"/>

<rect x="22" y="29" width="6" height="32" style="fill:none;stroke:#000000;stroke-linecap:round;stroke-linejoin:round;stroke-width:2px"/>

<path d="M57,2H39a4,4,0,0,1-4,4V30a4,4,0,0,1,4,4H57a4,4,0,0,1,4-4V6A4,4,0,0,1,57,2Z" style="fill:none;stroke:#000000;stroke-linecap:round;stroke-linejoin:round;stroke-width:2px"/>

<path d="M45.036,19.578a10.122,10.122,0,0,1,1.4-12.238A10.12,10.12,0,1,0,56.492,24.106,10.122,10.122,0,0,1,45.036,19.578Z" style="fill:none;stroke:#000000;stroke-linecap:round;stroke-linejoin:round;stroke-width:2px"/>

<path d="M50.114,7.451l1.787.911a.227.227,0,0,0,.263-.042L53.582,6.9a.226.226,0,0,1,.383.2l-.314,1.981a.225.225,0,0,0,.121.237l1.787.911a.226.226,0,0,1-.067.424l-1.981.314a.225.225,0,0,0-.188.188l-.314,1.981a.226.226,0,0,1-.425.067l-.91-1.787a.228.228,0,0,0-.237-.121l-1.981.314a.226.226,0,0,1-.2-.383l1.418-1.418a.228.228,0,0,0,.042-.263L49.81,7.755A.226.226,0,0,1,50.114,7.451Z"/>

<line x1="49" y1="61" x2="36" y2="61" style="fill:none;stroke:#000000;stroke-linecap:round;stroke-linejoin:round;stroke-width:2px"/>

<line x1="52" y1="61" x2="56" y2="61" style="fill:none;stroke:#000000;stroke-linecap:round;stroke-linejoin:round;stroke-width:2px"/>

</g>

</svg>