<?xml version="1.0" encoding="utf-8"?>
<svg width="800px" height="800px" viewBox="0 0 64 64" xmlns="http://www.w3.org/2000/svg">

<title>guardian</title>

<g id="guardian">

<circle cx="51" cy="47" r="2" style="fill:none;stroke:#000000;stroke-linecap:round;stroke-linejoin:round;stroke-width:2px"/>

<circle cx="16" cy="12" r="2" style="fill:none;stroke:#000000;stroke-linecap:round;stroke-linejoin:round;stroke-width:2px"/>

<line x1="13.129" y1="43" x2="10.181" y2="45.948" style="fill:none;stroke:#000000;stroke-linecap:round;stroke-linejoin:round;stroke-width:2px"/>

<line x1="10.181" y1="43" x2="13.129" y2="45.948" style="fill:none;stroke:#000000;stroke-linecap:round;stroke-linejoin:round;stroke-width:2px"/>

<circle cx="44.5" cy="15.5" r="1.132"/>

<circle cx="16.5" cy="28.5" r="1.132"/>

<polyline points="36 44.79 36 58 26 58 26 44.76" style="fill:none;stroke:#000000;stroke-linecap:round;stroke-linejoin:round;stroke-width:2px"/>

<line x1="31" y1="46" x2="31" y2="58" style="fill:none;stroke:#000000;stroke-linecap:round;stroke-linejoin:round;stroke-width:2px"/>

<path d="M28.5,58h0A2.5,2.5,0,0,1,31,60.5V62a0,0,0,0,1,0,0H26a0,0,0,0,1,0,0V60.5A2.5,2.5,0,0,1,28.5,58Z" style="fill:none;stroke:#000000;stroke-linecap:round;stroke-linejoin:round;stroke-width:2px"/>

<path d="M33.5,58h0A2.5,2.5,0,0,1,36,60.5V62a0,0,0,0,1,0,0H31a0,0,0,0,1,0,0V60.5A2.5,2.5,0,0,1,33.5,58Z" style="fill:none;stroke:#000000;stroke-linecap:round;stroke-linejoin:round;stroke-width:2px"/>

<line x1="6" y1="62" x2="56" y2="62" style="fill:none;stroke:#000000;stroke-linecap:round;stroke-linejoin:round;stroke-width:2px"/>

<path d="M28.722,23.911,26,25a4,4,0,0,0-4,4V44a3.179,3.179,0,0,0,3-3.333V39h1l-1,5,6,2,6-2-1-5h1v1.667A3.179,3.179,0,0,0,40,44V29a4,4,0,0,0-4-4l-2.732-1.093" style="fill:none;stroke:#000000;stroke-linecap:round;stroke-linejoin:round;stroke-width:2px"/>

<line x1="26" y1="39" x2="26" y2="30" style="fill:none;stroke:#000000;stroke-linecap:round;stroke-linejoin:round;stroke-width:2px"/>

<line x1="36" y1="39" x2="36" y2="30" style="fill:none;stroke:#000000;stroke-linecap:round;stroke-linejoin:round;stroke-width:2px"/>

<line x1="26" y1="38" x2="36" y2="38" style="fill:none;stroke:#000000;stroke-linecap:round;stroke-linejoin:round;stroke-width:2px"/>

<line x1="36" y1="41" x2="26" y2="41" style="fill:none;stroke:#000000;stroke-linecap:round;stroke-linejoin:round;stroke-width:2px"/>

<polyline points="33 21.45 33 24 29 24 29 20.586" style="fill:none;stroke:#000000;stroke-linecap:round;stroke-linejoin:round;stroke-width:2px"/>

<path d="M31,2a4,4,0,0,0-4,4V16.482A4.518,4.518,0,0,0,31.518,21H35V6A4,4,0,0,0,31,2Z" style="fill:none;stroke:#000000;stroke-linecap:round;stroke-linejoin:round;stroke-width:2px"/>

<line x1="35" y1="13" x2="27" y2="13" style="fill:none;stroke:#000000;stroke-linejoin:round;stroke-width:2px"/>

<line x1="22" y1="39" x2="25" y2="39" style="fill:none;stroke:#000000;stroke-linejoin:round;stroke-width:2px"/>

<line x1="37" y1="39" x2="40" y2="39" style="fill:none;stroke:#000000;stroke-linejoin:round;stroke-width:2px"/>

</g>

</svg>