<?xml version="1.0" encoding="utf-8"?>
<svg width="800px" height="800px" viewBox="0 0 64 64" xmlns="http://www.w3.org/2000/svg">

<title>lantern-night</title>

<g id="lantern-night">

<circle cx="9" cy="33" r="2" style="fill:none;stroke:#000000;stroke-linecap:round;stroke-linejoin:round;stroke-width:2px"/>

<line x1="10.129" y1="46" x2="7.181" y2="48.948" style="fill:none;stroke:#000000;stroke-linecap:round;stroke-linejoin:round;stroke-width:2px"/>

<line x1="7.181" y1="46" x2="10.129" y2="48.948" style="fill:none;stroke:#000000;stroke-linecap:round;stroke-linejoin:round;stroke-width:2px"/>

<circle cx="43.5" cy="31.5" r="1.132"/>

<path d="M36,46H18a3.1,3.1,0,0,0,3.187,3H32.813A3.1,3.1,0,0,0,36,46Z" style="fill:none;stroke:#000000;stroke-linecap:round;stroke-linejoin:round;stroke-width:2px"/>

<path d="M35.735,10a10.8,10.8,0,1,1,2.374,12.467" style="fill:none;stroke:#000000;stroke-linecap:round;stroke-linejoin:round;stroke-width:2px"/>

<path d="M39.046,12.177A3.6,3.6,0,1,1,41.709,18.2a3.665,3.665,0,0,1-.46-.029" style="fill:none;stroke:#000000;stroke-linecap:round;stroke-linejoin:round;stroke-width:2px"/>

<circle cx="50.509" cy="16.8" r="1.8" style="fill:none;stroke:#000000;stroke-linecap:round;stroke-linejoin:round;stroke-width:2px"/>

<path d="M41.119,5a4.182,4.182,0,0,0,7.739-.427" style="fill:none;stroke:#000000;stroke-linecap:round;stroke-linejoin:round;stroke-width:2px"/>

<circle cx="50" cy="11" r="1"/>

<path d="M58,31h0a0,0,0,0,1,0,0V58a0,0,0,0,1,0,0h0a5,5,0,0,1-5-5V36A5,5,0,0,1,58,31Z" style="fill:none;stroke:#000000;stroke-linecap:round;stroke-linejoin:round;stroke-width:2px"/>

<path d="M52.75,49.994A5,5,0,0,1,48,45V44a5,5,0,0,1,4.751-4.994" style="fill:none;stroke:#000000;stroke-linecap:round;stroke-linejoin:round;stroke-width:2px"/>

<path d="M48,46a4,4,0,0,0-4,4v2a8.009,8.009,0,0,1-8,8H33a8.009,8.009,0,0,1-8-8V49.491" style="fill:none;stroke:#000000;stroke-linecap:round;stroke-linejoin:round;stroke-width:2px"/>

<path d="M29,49.452V52a4,4,0,0,0,4,4h3a4,4,0,0,0,4-4V50a8.009,8.009,0,0,1,8-8" style="fill:none;stroke:#000000;stroke-linecap:round;stroke-linejoin:round;stroke-width:2px"/>

<rect x="13" y="16" width="28" height="4" rx="2" ry="2" style="fill:none;stroke:#000000;stroke-linecap:round;stroke-linejoin:round;stroke-width:2px"/>

<path d="M40,16a6,6,0,0,0-6-6H20a6,6,0,0,0-6,6" style="fill:none;stroke:#000000;stroke-linecap:round;stroke-linejoin:round;stroke-width:2px"/>

<path d="M35.992,15.678A6,6,0,0,0,30,10H24a6,6,0,0,0-5.993,5.715" style="fill:none;stroke:#000000;stroke-linecap:round;stroke-linejoin:round;stroke-width:2px"/>

<polyline points="25 9.564 25 5 29 5 29 9.641" style="fill:none;stroke:#000000;stroke-linecap:round;stroke-linejoin:round;stroke-width:2px"/>

<line x1="18.966" y1="45.705" x2="16.049" y2="20.422" style="fill:none;stroke:#000000;stroke-linecap:round;stroke-linejoin:round;stroke-width:2px"/>

<line x1="37.929" y1="20.62" x2="35.034" y2="45.705" style="fill:none;stroke:#000000;stroke-linecap:round;stroke-linejoin:round;stroke-width:2px"/>

<polyline points="31.986 20.262 30.636 46 23.364 46 22.012 20.223" style="fill:none;stroke:#000000;stroke-linecap:round;stroke-linejoin:round;stroke-width:2px"/>

</g>

</svg>