<?xml version="1.0" encoding="utf-8"?>
<svg width="800px" height="800px" viewBox="0 0 64 64" xmlns="http://www.w3.org/2000/svg">

<title>letters</title>

<g id="letters">

<circle cx="9.5" cy="7.5" r="2.5" style="fill:none;stroke:#000000;stroke-linecap:round;stroke-linejoin:round;stroke-width:2px"/>

<line x1="55.837" y1="55.663" x2="52.163" y2="59.337" style="fill:none;stroke:#000000;stroke-linecap:round;stroke-linejoin:round;stroke-width:2px"/>

<line x1="52.163" y1="55.663" x2="55.837" y2="59.337" style="fill:none;stroke:#000000;stroke-linecap:round;stroke-linejoin:round;stroke-width:2px"/>

<circle cx="55" cy="17" r="1"/>

<circle cx="19" cy="59" r="1"/>

<circle cx="7" cy="43" r="1"/>

<polygon points="32 5 39.38 14.182 51.092 12.908 49.818 24.62 59 32 49.818 39.38 51.092 51.092 39.38 49.818 32 59 24.62 49.818 12.908 51.092 14.182 39.38 5 32 14.182 24.62 12.908 12.908 24.62 14.182 32 5" style="fill:none"/>

<polygon points="32 5 39.38 14.182 51.092 12.908 49.818 24.62 59 32 49.818 39.38 51.092 51.092 39.38 49.818 32 59 24.62 49.818 12.908 51.092 14.182 39.38 5 32 14.182 24.62 12.908 12.908 24.62 14.182 32 5" style="fill:none;stroke:#000000;stroke-linecap:round;stroke-linejoin:round;stroke-width:2px"/>

<polyline points="21 39 25 39 25 24" style="fill:none;stroke:#000000;stroke-linecap:round;stroke-linejoin:round;stroke-width:2px"/>

<polyline points="29 39 33 39 33 24" style="fill:none;stroke:#000000;stroke-linecap:round;stroke-linejoin:round;stroke-width:2px"/>

<line x1="29" y1="24" x2="29" y2="30" style="fill:none;stroke:#000000;stroke-linecap:round;stroke-linejoin:round;stroke-width:2px"/>

<path d="M33,34H46s-3-4-6-4" style="fill:none;stroke:#000000;stroke-linecap:round;stroke-linejoin:round;stroke-width:2px"/>

</g>

</svg>