<?xml version="1.0" encoding="utf-8"?>
<svg width="800px" height="800px" viewBox="0 0 64 64" xmlns="http://www.w3.org/2000/svg">

<title>lights</title>

<g id="lights">

<circle cx="42.5" cy="55.5" r="2.5" style="fill:none;stroke:#000000;stroke-linecap:round;stroke-linejoin:round;stroke-width:2px"/>

<path d="M59,26.29V43.459A1.541,1.541,0,0,1,57.459,45H44.541A1.541,1.541,0,0,1,43,43.459V26.346" style="fill:none;stroke:#000000;stroke-linecap:round;stroke-linejoin:round;stroke-width:2px"/>

<line x1="30" y1="39.391" x2="30" y2="57.587" style="fill:none;stroke:#000000;stroke-linecap:round;stroke-linejoin:round;stroke-width:2px"/>

<line x1="12" y1="57.587" x2="12" y2="39.391" style="fill:none;stroke:#000000;stroke-linecap:round;stroke-linejoin:round;stroke-width:2px"/>

<path d="M18,22.091V20a3,3,0,0,1,3-3h0a3,3,0,0,1,3,3v1.923" style="fill:none;stroke:#000000;stroke-linecap:round;stroke-linejoin:round;stroke-width:2px"/>

<line x1="51" y1="27" x2="51" y2="45" style="fill:none;stroke:#000000;stroke-linecap:round;stroke-linejoin:round;stroke-width:2px"/>

<path d="M60.145,26A7.852,7.852,0,0,0,62,21c0-4.971-11-9-11-9s-11,4.029-11,9a7.852,7.852,0,0,0,1.855,5Z" style="fill:none;stroke:#000000;stroke-linecap:round;stroke-linejoin:round;stroke-width:2px"/>

<path d="M32.639,38.909A10,10,0,0,0,35,32.545c0-6.326-14-11.454-14-11.454S7,26.219,7,32.545a10,10,0,0,0,2.361,6.364Z" style="fill:none;stroke:#000000;stroke-linecap:round;stroke-linejoin:round;stroke-width:2px"/>

<path d="M25.276,38.482A23.457,23.457,0,0,0,26,32.545c0-6.326-5-11.454-5-11.454s-5,5.128-5,11.454a23.393,23.393,0,0,0,.744,6.011" style="fill:none;stroke:#000000;stroke-linecap:round;stroke-linejoin:round;stroke-width:2px"/>

<line x1="51" y1="12" x2="51" y2="4" style="fill:none;stroke:#000000;stroke-linecap:round;stroke-linejoin:round;stroke-width:2px"/>

<line x1="43" y1="40" x2="59" y2="40" style="fill:none;stroke:#000000;stroke-linecap:round;stroke-linejoin:round;stroke-width:2px"/>

<line x1="21" y1="17" x2="21" y2="4" style="fill:none;stroke:#000000;stroke-linecap:round;stroke-linejoin:round;stroke-width:2px"/>

<path d="M10,58H32a0,0,0,0,1,0,0v1a3,3,0,0,1-3,3H13a3,3,0,0,1-3-3V58A0,0,0,0,1,10,58Z" style="fill:none;stroke:#000000;stroke-linecap:round;stroke-linejoin:round;stroke-width:2px"/>

<line x1="21" y1="39" x2="21" y2="58" style="fill:none;stroke:#000000;stroke-linecap:round;stroke-linejoin:round;stroke-width:2px"/>

<line x1="13" y1="52" x2="30" y2="52" style="fill:none;stroke:#000000;stroke-linecap:round;stroke-linejoin:round;stroke-width:2px"/>

<line x1="13" y1="46" x2="30" y2="46" style="fill:none;stroke:#000000;stroke-linecap:round;stroke-linejoin:round;stroke-width:2px"/>

<line x1="8" y1="12" x2="10" y2="12" style="fill:none;stroke:#000000;stroke-linecap:round;stroke-linejoin:round;stroke-width:2px"/>

<line x1="12" y1="8" x2="12" y2="10" style="fill:none;stroke:#000000;stroke-linecap:round;stroke-linejoin:round;stroke-width:2px"/>

<line x1="12" y1="14" x2="12" y2="16" style="fill:none;stroke:#000000;stroke-linecap:round;stroke-linejoin:round;stroke-width:2px"/>

<line x1="14" y1="12" x2="16" y2="12" style="fill:none;stroke:#000000;stroke-linecap:round;stroke-linejoin:round;stroke-width:2px"/>

<circle cx="39" cy="12" r="1"/>

<circle cx="6" cy="46" r="1"/>

<path d="M16,2.8A157.485,157.485,0,0,0,36,4,157.485,157.485,0,0,0,56,2.8" style="fill:none;stroke:#000000;stroke-linecap:round;stroke-linejoin:round;stroke-width:2px"/>

</g>

</svg>