<?xml version="1.0" encoding="utf-8"?>
<svg width="800px" height="800px" viewBox="0 0 64 64" xmlns="http://www.w3.org/2000/svg">

<title>lion</title>

<g id="lion">

<circle cx="13" cy="7" r="2" style="fill:none;stroke:#000000;stroke-linecap:round;stroke-linejoin:round;stroke-width:2px"/>

<circle cx="56.044" cy="22.014" r="1.069"/>

<line x1="53" y1="5" x2="56" y2="8" style="fill:none;stroke:#000000;stroke-linecap:round;stroke-linejoin:round;stroke-width:2px"/>

<line x1="56" y1="5" x2="53" y2="8" style="fill:none;stroke:#000000;stroke-linecap:round;stroke-linejoin:round;stroke-width:2px"/>

<path d="M16,36.953V55h-.862A2.138,2.138,0,0,0,13,57.138V58.76" style="fill:none;stroke:#000000;stroke-linecap:round;stroke-linejoin:round;stroke-width:2px"/>

<path d="M47.1,58.76l3.9-9.76s.293-.89.5-1.589" style="fill:none;stroke:#000000;stroke-linecap:round;stroke-linejoin:round;stroke-width:2px"/>

<path d="M40.371,43.986c.61,1.934,2.248,4.76,6.636,6.014l-3,5h-.862a2.138,2.138,0,0,0-2.138,2.138V58.76" style="fill:none;stroke:#000000;stroke-linecap:round;stroke-linejoin:round;stroke-width:2px"/>

<path d="M57.546,58.76,59.5,48.5l-1-4s8-16-6-17c-5-.357-8.591-.586-11.149-.734" style="fill:none;stroke:#000000;stroke-linecap:round;stroke-linejoin:round;stroke-width:2px"/>

<path d="M24.039,58.76,26.5,43.5A14.594,14.594,0,0,0,34,45c5.054-.577,11.019-3.338,14.559-3.054" style="fill:none;stroke:#000000;stroke-linecap:round;stroke-linejoin:round;stroke-width:2px"/>

<path d="M20,41V55h-.862A2.138,2.138,0,0,0,17,57.138V58.76" style="fill:none;stroke:#000000;stroke-linecap:round;stroke-linejoin:round;stroke-width:2px"/>

<path d="M57.645,29H58a5,5,0,0,0,5-5V23a5,5,0,0,0-5-5H45.578a10.729,10.729,0,0,1-6.44-2.147L38,15" style="fill:none;stroke:#000000;stroke-linecap:round;stroke-linejoin:round;stroke-width:2px"/>

<ellipse cx="35.5" cy="12" rx="2.5" ry="3.703" transform="translate(0.223 24.639) rotate(-38.389)" style="fill:none;stroke:#000000;stroke-linecap:round;stroke-linejoin:round;stroke-width:2px"/>

<circle cx="11.044" cy="20.014" r="1.069"/>

<path d="M49,38v4s1,6,6.5,7.5l-1,5.5h-.862A2.138,2.138,0,0,0,51.5,57.138V58.76" style="fill:none;stroke:#000000;stroke-linecap:round;stroke-linejoin:round;stroke-width:2px"/>

<line x1="5" y1="59" x2="35" y2="59" style="fill:none;stroke:#000000;stroke-linecap:round;stroke-linejoin:round;stroke-width:2px"/>

<line x1="39" y1="59" x2="62" y2="59" style="fill:none;stroke:#000000;stroke-linecap:round;stroke-linejoin:round;stroke-width:2px"/>

<path d="M9,17h8.5a1.5,1.5,0,0,1,0,3H16v2l-5,5H5" style="fill:none;stroke:#000000;stroke-linejoin:round;stroke-width:2px"/>

<path d="M9,17s0-3,7-4c2.169-.31,4.05-.524,5.613-.671a8.578,8.578,0,0,1,8.089,4l4.558,7.292L41,26h0c.888,1.331-1,3-1.6,3.222L31,31,20,41,10,30H6L5,27,3,22l4-2Z" style="fill:none;stroke:#000000;stroke-linecap:round;stroke-linejoin:round;stroke-width:2px"/>

<polyline points="27 24 27 27 31 31" style="fill:none;stroke:#000000;stroke-linecap:round;stroke-linejoin:round;stroke-width:2px"/>

<polyline points="20 25 20 30 25.678 35.838" style="fill:none;stroke:#000000;stroke-linecap:round;stroke-linejoin:round;stroke-width:2px"/>

</g>

</svg>