<?xml version="1.0" encoding="utf-8"?>
<svg width="800px" height="800px" viewBox="0 0 64 64" xmlns="http://www.w3.org/2000/svg">

<title>male</title>

<g id="male">

<circle cx="6.5" cy="11.5" r="2.5" style="fill:none;stroke:#000000;stroke-linecap:round;stroke-linejoin:round;stroke-width:2px"/>

<circle cx="54.5" cy="42.5" r="1.132"/>

<circle cx="14.5" cy="5.5" r="1.132"/>

<circle cx="12.5" cy="19.5" r="1.132"/>

<path d="M34.315,42.358l8.939,3.849A9.369,9.369,0,0,1,49,54.775V63H11V54.775a9.369,9.369,0,0,1,5.746-8.568L26,42.222" style="fill:none;stroke:#000000;stroke-linecap:round;stroke-linejoin:round;stroke-width:2px"/>

<path d="M26.253,44.4A4.01,4.01,0,0,1,26,43V40.5" style="fill:none;stroke:#000000;stroke-linecap:round;stroke-linejoin:round;stroke-width:2px"/>

<path d="M34,40.5V43a3.993,3.993,0,0,1-.254,1.405" style="fill:none;stroke:#000000;stroke-linecap:round;stroke-linejoin:round;stroke-width:2px"/>

<line x1="19" y1="62" x2="19" y2="56" style="fill:none;stroke:#000000;stroke-linecap:round;stroke-linejoin:round;stroke-width:2px"/>

<line x1="41" y1="62" x2="41" y2="56" style="fill:none;stroke:#000000;stroke-linecap:round;stroke-linejoin:round;stroke-width:2px"/>

<line x1="49.837" y1="5.663" x2="46.163" y2="9.337" style="fill:none;stroke:#000000;stroke-linecap:round;stroke-linejoin:round;stroke-width:2px"/>

<line x1="46.163" y1="5.663" x2="49.837" y2="9.337" style="fill:none;stroke:#000000;stroke-linecap:round;stroke-linejoin:round;stroke-width:2px"/>

<path d="M18.022,20.921a9.394,9.394,0,0,0,6.988-2.5C27.926,24.067,36.054,26.383,43,20.97" style="fill:none;stroke:#000000;stroke-linejoin:round;stroke-width:2px"/>

<path d="M18,16.835C17.945,2,43,4,43,15V25.5a2.5,2.5,0,0,1,2.48,2.818,2.537,2.537,0,0,1-1.215,1.793,2.282,2.282,0,0,1-2.093.238,13.9,13.9,0,0,1-9.293,10.269l-.444.144a6.978,6.978,0,0,1-4.285.046,13.9,13.9,0,0,1-9.357-10.449,2.225,2.225,0,0,1-2.108-.3,2.56,2.56,0,0,1-1.183-1.97A2.5,2.5,0,0,1,18,25.5S18.005,18.276,18,16.835Z" style="fill:none;stroke:#000000;stroke-linecap:round;stroke-linejoin:round;stroke-width:2px"/>

<polygon points="30 45.503 30 48.425 37 50.617 37 44.042 30 45.503" style="fill:none;stroke:#000000;stroke-linecap:round;stroke-linejoin:round;stroke-width:2px"/>

<polygon points="30 45.503 30 48.425 23 50.617 23 44.042 30 45.503" style="fill:none;stroke:#000000;stroke-linecap:round;stroke-linejoin:round;stroke-width:2px"/>

<line x1="27" y1="53" x2="33" y2="53" style="fill:none;stroke:#000000;stroke-linecap:round;stroke-linejoin:round;stroke-width:2px"/>

<line x1="27" y1="56" x2="33" y2="56" style="fill:none;stroke:#000000;stroke-linecap:round;stroke-linejoin:round;stroke-width:2px"/>

<line x1="38" y1="27" x2="36" y2="28" style="fill:none;stroke:#000000;stroke-linecap:round;stroke-linejoin:round;stroke-width:2px"/>

<line x1="25" y1="28" x2="23" y2="27" style="fill:none;stroke:#000000;stroke-linecap:round;stroke-linejoin:round;stroke-width:2px"/>

<rect x="24" y="30" width="3" height="2" rx="1" ry="1"/>

<rect x="34" y="30" width="3" height="2" rx="1" ry="1"/>

<line x1="19" y1="60" x2="41" y2="60" style="fill:none;stroke:#000000;stroke-linejoin:round;stroke-width:2px"/>

</g>

</svg>