<?xml version="1.0" encoding="utf-8"?>
<svg width="800px" height="800px" viewBox="0 0 64 64" xmlns="http://www.w3.org/2000/svg">

<title>matryoshka</title>

<g id="matryoshka">

<path d="M45.962,49.665l-.2-.872A90.387,90.387,0,0,1,43.327,28c0-2.007.061-4.038.2-6.122L44,14.743C44,8.81,38.739,4,32.25,4h-4.5C21.261,4,16,8.81,16,14.743l.473,7.135c.139,2.084.2,4.115.2,6.122a90.387,90.387,0,0,1-2.434,20.793l-.2.872C13.467,55.779,19.345,61,26.8,61h6.4C40.655,61,46.533,55.779,45.962,49.665Z" style="fill:none;stroke:#000000;stroke-linecap:round;stroke-linejoin:round;stroke-width:2px"/>

<polyline points="17 47 22 45 26 47 30 45 34 47 38 45 43 48" style="fill:none;stroke:#000000;stroke-linecap:round;stroke-linejoin:round;stroke-width:2px"/>

<polyline points="17 51 22 49 26 51 30 49 34 51 38 49 43 52" style="fill:none;stroke:#000000;stroke-linecap:round;stroke-linejoin:round;stroke-width:2px"/>

<circle cx="24" cy="40" r="2" style="fill:none;stroke:#000000;stroke-linecap:round;stroke-linejoin:round;stroke-width:2px"/>

<circle cx="29.5" cy="40" r="2.5" style="fill:none;stroke:#000000;stroke-linecap:round;stroke-linejoin:round;stroke-width:2px"/>

<circle cx="35" cy="40" r="2" style="fill:none;stroke:#000000;stroke-linecap:round;stroke-linejoin:round;stroke-width:2px"/>

<circle cx="22" cy="54" r="1"/>

<circle cx="30" cy="54" r="1"/>

<circle cx="38" cy="54" r="1"/>

<circle cx="8.5" cy="27.5" r="2.5" style="fill:none;stroke:#000000;stroke-linecap:round;stroke-linejoin:round;stroke-width:2px"/>

<circle cx="50" cy="33" r="1"/>

<circle cx="30" cy="18" r="10" style="fill:none;stroke:#000000;stroke-linecap:round;stroke-linejoin:round;stroke-width:2px"/>

<path d="M30,8.281A10,10,0,0,0,39.694,18" style="fill:none;stroke:#000000;stroke-linecap:round;stroke-linejoin:round;stroke-width:2px"/>

<path d="M20.331,18A10,10,0,0,0,30,8.281" style="fill:none;stroke:#000000;stroke-linecap:round;stroke-linejoin:round;stroke-width:2px"/>

<circle cx="26" cy="20" r="1"/>

<circle cx="34" cy="20" r="1"/>

<line x1="53.837" y1="7.663" x2="50.163" y2="11.337" style="fill:none;stroke:#000000;stroke-linecap:round;stroke-linejoin:round;stroke-width:2px"/>

<line x1="50.163" y1="7.663" x2="53.837" y2="11.337" style="fill:none;stroke:#000000;stroke-linecap:round;stroke-linejoin:round;stroke-width:2px"/>

<path d="M34,28h6a0,0,0,0,1,0,0v0a4,4,0,0,1-4,4H30a0,0,0,0,1,0,0v0a4,4,0,0,1,4-4Z" style="fill:none;stroke:#000000;stroke-linecap:round;stroke-linejoin:round;stroke-width:2px"/>

<path d="M20,28h6a4,4,0,0,1,4,4v0a0,0,0,0,1,0,0H24a4,4,0,0,1-4-4v0A0,0,0,0,1,20,28Z" transform="translate(50 60) rotate(180)" style="fill:none;stroke:#000000;stroke-linecap:round;stroke-linejoin:round;stroke-width:2px"/>

<line x1="43" y1="28" x2="17" y2="28" style="fill:none;stroke:#000000;stroke-linejoin:round;stroke-width:2px"/>

</g>

</svg>