<?xml version="1.0" encoding="utf-8"?>
<svg width="800px" height="800px" viewBox="0 0 64 64" xmlns="http://www.w3.org/2000/svg">

<title>mecca</title>

<g id="mecca">

<line x1="54" y1="9" x2="54" y2="12" style="fill:none;stroke:#000000;stroke-linecap:round;stroke-linejoin:round;stroke-width:2px"/>

<line x1="54" y1="16" x2="54" y2="19" style="fill:none;stroke:#000000;stroke-linecap:round;stroke-linejoin:round;stroke-width:2px"/>

<line x1="52" y1="14" x2="49" y2="14" style="fill:none;stroke:#000000;stroke-linecap:round;stroke-linejoin:round;stroke-width:2px"/>

<line x1="59" y1="14" x2="56" y2="14" style="fill:none;stroke:#000000;stroke-linecap:round;stroke-linejoin:round;stroke-width:2px"/>

<circle cx="9" cy="15" r="1"/>

<circle cx="59" cy="28" r="1"/>

<line x1="39.257" y1="52.175" x2="47.574" y2="48.611" style="fill:none;stroke:#000000;stroke-linecap:round;stroke-linejoin:round;stroke-width:2px"/>

<line x1="28.252" y1="56.892" x2="31.688" y2="55.419" style="fill:none;stroke:#000000;stroke-linecap:round;stroke-linejoin:round;stroke-width:2px"/>

<line x1="31.688" y1="47.562" x2="28.298" y2="49.015" style="fill:none;stroke:#000000;stroke-linecap:round;stroke-linejoin:round;stroke-width:2px"/>

<line x1="47.659" y1="40.717" x2="39.257" y2="44.318" style="fill:none;stroke:#000000;stroke-linecap:round;stroke-linejoin:round;stroke-width:2px"/>

<polygon points="28 62 8 53.429 8 23 8 22.571 28 14 48 22.571 48 53.429 28 62" style="fill:none;stroke:#000000;stroke-linecap:round;stroke-linejoin:round;stroke-width:2px"/>

<polyline points="8 22.571 28 31.143 48 22.571" style="fill:none;stroke:#000000;stroke-linejoin:round;stroke-width:2px"/>

<line x1="38.476" y1="34.653" x2="48" y2="30.571" style="fill:none;stroke:#000000;stroke-linecap:round;stroke-linejoin:round;stroke-width:2px"/>

<line x1="31.151" y1="37.792" x2="35.5" y2="35.929" style="fill:none;stroke:#000000;stroke-linecap:round;stroke-linejoin:round;stroke-width:2px"/>

<line x1="28" y1="57" x2="8.312" y2="48.562" style="fill:none;stroke:#000000;stroke-linecap:round;stroke-linejoin:round;stroke-width:2px"/>

<line x1="28" y1="31" x2="28" y2="62" style="fill:none;stroke:#000000;stroke-linejoin:round;stroke-width:2px"/>

<line x1="8.341" y1="40.717" x2="28" y2="49.143" style="fill:none;stroke:#000000;stroke-linecap:round;stroke-linejoin:round;stroke-width:2px"/>

<polyline points="39 57 39 39.286 32 42.286 32 59.985" style="fill:none;stroke:#000000;stroke-linecap:round;stroke-linejoin:round;stroke-width:2px"/>

<line x1="28" y1="9" x2="28" y2="5" style="fill:none;stroke:#000000;stroke-linecap:round;stroke-linejoin:round;stroke-width:2px"/>

<line x1="25" y1="11" x2="22" y2="8" style="fill:none;stroke:#000000;stroke-linecap:round;stroke-linejoin:round;stroke-width:2px"/>

<line x1="31" y1="11" x2="34" y2="8" style="fill:none;stroke:#000000;stroke-linecap:round;stroke-linejoin:round;stroke-width:2px"/>

<line x1="48" y1="51" x2="56" y2="51" style="fill:none;stroke:#000000;stroke-linecap:round;stroke-linejoin:round;stroke-width:2px"/>

<line x1="8" y1="51" x2="2" y2="51" style="fill:none;stroke:#000000;stroke-linecap:round;stroke-linejoin:round;stroke-width:2px"/>

</g>

</svg>