<?xml version="1.0" encoding="utf-8"?>
<svg width="800px" height="800px" viewBox="0 0 64 64" xmlns="http://www.w3.org/2000/svg">

<title>olives</title>

<g id="olives">

<circle cx="23" cy="7" r="2" style="fill:none;stroke:#000000;stroke-linecap:round;stroke-linejoin:round;stroke-width:2px"/>

<circle cx="12.044" cy="14.014" r="1.069"/>

<line x1="39" y1="11" x2="42" y2="14" style="fill:none;stroke:#000000;stroke-linecap:round;stroke-linejoin:round;stroke-width:2px"/>

<line x1="42" y1="11" x2="39" y2="14" style="fill:none;stroke:#000000;stroke-linecap:round;stroke-linejoin:round;stroke-width:2px"/>

<path d="M3,35C3,47.15,15.984,57,32,57s29-9.85,29-22" style="fill:none;stroke:#000000;stroke-linecap:round;stroke-linejoin:round;stroke-width:2px"/>

<ellipse cx="32" cy="35" rx="29" ry="15" style="fill:none;stroke:#000000;stroke-linecap:round;stroke-linejoin:round;stroke-width:2px"/>

<path d="M39,25.51A47.374,47.374,0,0,0,32,25q-1.629,0-3.2.1" style="fill:#6b4f5b;stroke:#000000;stroke-linecap:round;stroke-linejoin:round;stroke-width:2px"/>

<path d="M23.8,25.707C15.032,27.279,8.8,31.294,8.8,36c0,6.075,10.387,11,23.2,11s23.2-4.925,23.2-11c0-3.669-3.789-6.919-9.614-8.917" style="fill:none;stroke:#000000;stroke-linecap:round;stroke-linejoin:round;stroke-width:2px"/>

<path d="M23.016,27.6A5.415,5.415,0,0,0,20.5,27c-2.485,0-4.5,1.567-4.5,3.5a3.079,3.079,0,0,0,1.089,2.283" style="fill:none;stroke:#000000;stroke-linecap:round;stroke-linejoin:round;stroke-width:2px"/>

<path d="M43.979,31a5.745,5.745,0,0,0,.381-.483c1.433-2.031,1.314-4.58-.266-5.695s-4.021-.372-5.454,1.659a5.432,5.432,0,0,0-.962,2.4" style="fill:none;stroke:#000000;stroke-linecap:round;stroke-linejoin:round;stroke-width:2px"/>

<path d="M22.007,36.707a4.683,4.683,0,0,0,2.04,1.106" style="fill:#a9ba5a;stroke:#000000;stroke-linecap:round;stroke-linejoin:round;stroke-width:2px"/>

<path d="M24.743,31.049a4.2,4.2,0,0,0-3.628,2.662" style="fill:#a9ba5a;stroke:#000000;stroke-linecap:round;stroke-linejoin:round;stroke-width:2px"/>

<path d="M29.626,35.9A2.85,2.85,0,0,0,30,34.5a2.989,2.989,0,0,0-.808-2" style="fill:#a9ba5a;stroke:#000000;stroke-linecap:round;stroke-linejoin:round;stroke-width:2px"/>

<ellipse cx="27.5" cy="28.5" rx="3.5" ry="4.5" transform="translate(-10.932 38.066) rotate(-60)" style="fill:none;stroke:#000000;stroke-linecap:round;stroke-linejoin:round;stroke-width:2px"/>

<path d="M39.732,31.306A4.59,4.59,0,0,0,35.5,29c-2.485,0-4.5,1.567-4.5,3.5a2.817,2.817,0,0,0,.277,1.212" style="fill:none;stroke:#000000;stroke-linecap:round;stroke-linejoin:round;stroke-width:2px"/>

<path d="M44.228,37.733A3.619,3.619,0,0,0,47,34.5c0-1.933-2.015-3.5-4.5-3.5-2.356,0-4.289,1.408-4.484,3.2" style="fill:none;stroke:#000000;stroke-linecap:round;stroke-linejoin:round;stroke-width:2px"/>

<path d="M39,43.19a5.61,5.61,0,0,0,1.644.7c2.41.608,4.746-.419,5.219-2.293s-1.1-3.887-3.507-4.495a5.258,5.258,0,0,0-3.183.152" style="fill:none;stroke:#000000;stroke-linecap:round;stroke-linejoin:round;stroke-width:2px"/>

<path d="M29.629,36.117c-.137-.038-.276-.072-.418-.1-2.435-.5-4.722.637-5.108,2.531s1.275,3.832,3.711,4.328a5.54,5.54,0,0,0,2.109.029" style="fill:none;stroke:#000000;stroke-linecap:round;stroke-linejoin:round;stroke-width:2px"/>

<path d="M37.429,39.447A3.03,3.03,0,0,0,38.863,37.6c.473-1.875-1.1-3.887-3.507-4.495s-4.746.419-5.219,2.293a3.665,3.665,0,0,0,2.037,3.9" style="fill:none;stroke:#000000;stroke-linecap:round;stroke-linejoin:round;stroke-width:2px"/>

<ellipse cx="17.5" cy="36.5" rx="4.5" ry="3.5" transform="translate(-10.588 7.352) rotate(-18.324)" style="fill:none;stroke:#000000;stroke-linecap:round;stroke-linejoin:round;stroke-width:2px"/>

<ellipse cx="34.5" cy="42.5" rx="4.5" ry="3.5" style="fill:none;stroke:#000000;stroke-linecap:round;stroke-linejoin:round;stroke-width:2px"/>

</g>

</svg>