<?xml version="1.0" encoding="utf-8"?>
<svg width="800px" height="800px" viewBox="0 0 64 64" xmlns="http://www.w3.org/2000/svg">

<title>orthodoxy</title>

<g id="orthodoxy">

<circle cx="10.5" cy="50.5" r="2.5" style="fill:none;stroke:#000000;stroke-linecap:round;stroke-linejoin:round;stroke-width:2px"/>

<line x1="56" y1="5" x2="56" y2="7" style="fill:none;stroke:#000000;stroke-linecap:round;stroke-linejoin:round;stroke-width:2px"/>

<line x1="56" y1="11" x2="56" y2="13" style="fill:none;stroke:#000000;stroke-linecap:round;stroke-linejoin:round;stroke-width:2px"/>

<line x1="52" y1="9" x2="54" y2="9" style="fill:none;stroke:#000000;stroke-linecap:round;stroke-linejoin:round;stroke-width:2px"/>

<line x1="58" y1="9" x2="60" y2="9" style="fill:none;stroke:#000000;stroke-linecap:round;stroke-linejoin:round;stroke-width:2px"/>

<circle cx="54.984" cy="30.603" r="1.069"/>

<path d="M47,19H36V8a4,4,0,0,0-8,0V19H16a4,4,0,0,0,0,8H28V39.013L23.868,38.1a4,4,0,0,0-1.736,7.81L28,47.209V54a4,4,0,0,0,8,0V48.987l4.132.918a4,4,0,0,0,1.736-7.81L36,40.791V27H47a4,4,0,0,0,0-8Z" style="fill:none;stroke:#000000;stroke-linecap:round;stroke-linejoin:round;stroke-width:2px"/>

<line x1="16" y1="23" x2="47" y2="23" style="fill:none;stroke:#000000;stroke-linecap:round;stroke-linejoin:round;stroke-width:2px"/>

<line x1="32" y1="8" x2="32" y2="54" style="fill:none;stroke:#000000;stroke-linecap:round;stroke-linejoin:round;stroke-width:2px"/>

<line x1="23" y1="42" x2="41" y2="46" style="fill:none;stroke:#000000;stroke-linecap:round;stroke-linejoin:round;stroke-width:2px"/>

<circle cx="32" cy="23" r="2"/>

<circle cx="32" cy="44" r="2"/>

</g>

</svg>