<?xml version="1.0" encoding="utf-8"?>
<svg width="800px" height="800px" viewBox="0 0 64 64" xmlns="http://www.w3.org/2000/svg">

<title>parrot</title>

<g id="parrot">

<line x1="9" y1="25" x2="9" y2="27" style="fill:none;stroke:#000000;stroke-linecap:round;stroke-linejoin:round;stroke-width:2px"/>

<line x1="9" y1="31" x2="9" y2="33" style="fill:none;stroke:#000000;stroke-linecap:round;stroke-linejoin:round;stroke-width:2px"/>

<line x1="5" y1="29" x2="7" y2="29" style="fill:none;stroke:#000000;stroke-linecap:round;stroke-linejoin:round;stroke-width:2px"/>

<line x1="11" y1="29" x2="13" y2="29" style="fill:none;stroke:#000000;stroke-linecap:round;stroke-linejoin:round;stroke-width:2px"/>

<circle cx="15.74" cy="34.987" r="1.069"/>

<circle cx="54.74" cy="21.987" r="1.069"/>

<circle cx="57.5" cy="14.5" r="2.5" style="fill:none;stroke:#000000;stroke-linecap:round;stroke-linejoin:round;stroke-width:2px"/>

<path d="M25.568,17H12a6,6,0,0,1,6-6h8" style="fill:none;stroke:#000000;stroke-linecap:round;stroke-linejoin:round;stroke-width:2px"/>

<path d="M41.75,12.79l.542-.233a4,4,0,0,1,5.254,2.1h0L44,16.177" style="fill:none;stroke:#000000;stroke-linecap:round;stroke-linejoin:round;stroke-width:2px"/>

<path d="M25.568,21H21a4,4,0,0,1-3.978-3.579" style="fill:none;stroke:#000000;stroke-linecap:round;stroke-linejoin:round;stroke-width:2px"/>

<line x1="63" y1="51" x2="1" y2="51" style="fill:none;stroke:#000000;stroke-linecap:round;stroke-linejoin:round;stroke-width:2px"/>

<line x1="47.415" y1="47" x2="63" y2="47" style="fill:none;stroke:#000000;stroke-linecap:round;stroke-linejoin:round;stroke-width:2px"/>

<line x1="1" y1="47" x2="40.052" y2="47" style="fill:none;stroke:#000000;stroke-linecap:round;stroke-linejoin:round;stroke-width:2px"/>

<path d="M36.69,10.472,40.01,6.9a4,4,0,0,1,5.653-.209L46,7l-4.971,5.353" style="fill:none;stroke:#000000;stroke-linecap:round;stroke-linejoin:round;stroke-width:2px"/>

<path d="M26,29.318V11H36.1A7.9,7.9,0,0,1,44,18.9V26.15" style="fill:none;stroke:#000000;stroke-linecap:round;stroke-linejoin:round;stroke-width:2px"/>

<path d="M35,47A11,11,0,0,1,24,36V32.963A3.963,3.963,0,0,1,27.963,29h5.483" style="fill:none;stroke:#000000;stroke-linecap:round;stroke-linejoin:round;stroke-width:2px"/>

<path d="M26.188,19.625a5.992,5.992,0,0,0,8.515-8.34" style="fill:none;stroke:#000000;stroke-linecap:round;stroke-linejoin:round;stroke-width:2px"/>

<path d="M34,23h2A11,11,0,0,1,47,34V48a0,0,0,0,1,0,0H45A11,11,0,0,1,34,37V23A0,0,0,0,1,34,23Z" style="fill:none;stroke:#000000;stroke-linecap:round;stroke-linejoin:round;stroke-width:2px"/>

<path d="M46.66,44H45a11,11,0,0,1-10.777-8.783" style="fill:none;stroke:#000000;stroke-linecap:round;stroke-linejoin:round;stroke-width:2px"/>

<path d="M34.359,27.615H36a11,11,0,0,1,11,11" style="fill:none;stroke:#000000;stroke-linecap:round;stroke-linejoin:round;stroke-width:2px"/>

<circle cx="30.74" cy="14.987" r="1.069"/>

<path d="M34,31s2,9,13,9" style="fill:none;stroke:#000000;stroke-linecap:round;stroke-linejoin:round;stroke-width:2px"/>

<path d="M28,10.709V5a4,4,0,0,1,4-4h0V9" style="fill:none;stroke:#000000;stroke-linecap:round;stroke-linejoin:round;stroke-width:2px"/>

<path d="M32,10.709V9a4,4,0,0,1,4-4h0v5.709" style="fill:none;stroke:#000000;stroke-linecap:round;stroke-linejoin:round;stroke-width:2px"/>

<path d="M47,51.235V63h0a8,8,0,0,1-8-8V51.261" style="fill:none;stroke:#000000;stroke-linecap:round;stroke-linejoin:round;stroke-width:2px"/>

</g>

</svg>