<?xml version="1.0" encoding="utf-8"?>
<svg width="800px" height="800px" viewBox="0 0 64 64" xmlns="http://www.w3.org/2000/svg">

<title>peasant</title>

<g id="peasant">

<circle cx="56.5" cy="33.5" r="2.5" style="fill:none;stroke:#000000;stroke-linecap:round;stroke-linejoin:round;stroke-width:2px"/>

<circle cx="56.5" cy="42.5" r="1.132"/>

<circle cx="4.5" cy="33.5" r="1.132"/>

<circle cx="55.5" cy="7.5" r="1.132"/>

<path d="M36.5,42.436l8.758,3.771A9.369,9.369,0,0,1,51,54.775V63H13V54.775a9.369,9.369,0,0,1,5.746-8.568L27.5,42.438" style="fill:none;stroke:#000000;stroke-linecap:round;stroke-linejoin:round;stroke-width:2px"/>

<path d="M36,40.5V43a4,4,0,0,1-4,4h0a4,4,0,0,1-4-4V40" style="fill:none;stroke:#000000;stroke-linecap:round;stroke-linejoin:round;stroke-width:2px"/>

<line x1="21" y1="62" x2="21" y2="56" style="fill:none;stroke:#000000;stroke-linecap:round;stroke-linejoin:round;stroke-width:2px"/>

<path d="M39.889,37.727A21.245,21.245,0,0,0,53.266,23.461" style="fill:none;stroke:#000000;stroke-linejoin:round;stroke-width:2px"/>

<path d="M11.687,23.286a21.223,21.223,0,0,0,13.043,14.3" style="fill:none;stroke:#000000;stroke-linejoin:round;stroke-width:2px"/>

<line x1="43" y1="62" x2="43" y2="56" style="fill:none;stroke:#000000;stroke-linecap:round;stroke-linejoin:round;stroke-width:2px"/>

<line x1="12.837" y1="37.663" x2="9.163" y2="41.337" style="fill:none;stroke:#000000;stroke-linecap:round;stroke-linejoin:round;stroke-width:2px"/>

<path d="M20,23.458V25.5a2.5,2.5,0,0,0-2.5,2.591,2.56,2.56,0,0,0,1.183,1.97,2.225,2.225,0,0,0,2.108.3A13.9,13.9,0,0,0,30.15,40.808a6.978,6.978,0,0,0,4.285-.046l.444-.144a13.9,13.9,0,0,0,9.293-10.269,2.282,2.282,0,0,0,2.093-.238,2.537,2.537,0,0,0,1.215-1.793A2.5,2.5,0,0,0,45,25.5V23.286" style="fill:none;stroke:#000000;stroke-linecap:round;stroke-linejoin:round;stroke-width:2px"/>

<line x1="9.163" y1="37.663" x2="12.837" y2="41.337" style="fill:none;stroke:#000000;stroke-linecap:round;stroke-linejoin:round;stroke-width:2px"/>

<line x1="40" y1="27" x2="38" y2="28" style="fill:none;stroke:#000000;stroke-linecap:round;stroke-linejoin:round;stroke-width:2px"/>

<line x1="27" y1="28" x2="25" y2="27" style="fill:none;stroke:#000000;stroke-linecap:round;stroke-linejoin:round;stroke-width:2px"/>

<rect x="26" y="30" width="3" height="2" rx="1" ry="1"/>

<rect x="36" y="30" width="3" height="2" rx="1" ry="1"/>

<path d="M59,23H5L30.261,2.648a2.657,2.657,0,0,1,3.478,0Z" style="fill:none;stroke:#000000;stroke-linecap:round;stroke-linejoin:round;stroke-width:2px"/>

<path d="M44,23H20L31.227,2.648c.477-.864,1.069-.864,1.546,0Z" style="fill:none;stroke:#000000;stroke-linecap:round;stroke-linejoin:round;stroke-width:2px"/>

<line x1="32" y1="52" x2="32" y2="48" style="fill:none;stroke:#000000;stroke-linecap:round;stroke-linejoin:round;stroke-width:2px"/>

<line x1="32" y1="23" x2="32" y2="2.508" style="fill:none;stroke:#000000;stroke-linejoin:round;stroke-width:2px"/>

<line x1="43" y1="60" x2="21" y2="60" style="fill:none;stroke:#000000;stroke-linejoin:round;stroke-width:2px"/>

</g>

</svg>