<?xml version="1.0" encoding="utf-8"?>
<svg width="800px" height="800px" viewBox="0 0 64 64" xmlns="http://www.w3.org/2000/svg">

<title>rocket</title>

<g id="rocket">

<line x1="51" y1="9" x2="51" y2="11" style="fill:none;stroke:#000000;stroke-linecap:round;stroke-linejoin:round;stroke-width:2px"/>

<line x1="51" y1="15" x2="51" y2="17" style="fill:none;stroke:#000000;stroke-linecap:round;stroke-linejoin:round;stroke-width:2px"/>

<line x1="47" y1="13" x2="49" y2="13" style="fill:none;stroke:#000000;stroke-linecap:round;stroke-linejoin:round;stroke-width:2px"/>

<line x1="53" y1="13" x2="55" y2="13" style="fill:none;stroke:#000000;stroke-linecap:round;stroke-linejoin:round;stroke-width:2px"/>

<circle cx="57.251" cy="28.232" r="1.069"/>

<circle cx="19.251" cy="13.232" r="1.069"/>

<circle cx="10.251" cy="24.232" r="1.069"/>

<circle cx="5.251" cy="43.232" r="1.069"/>

<circle cx="22.251" cy="29.232" r="1.069"/>

<circle cx="45.251" cy="23.232" r="1.069"/>

<circle cx="52.251" cy="47.232" r="1.069"/>

<circle cx="10.251" cy="10.232" r="1.069"/>

<polyline points="28 30 28 11 32 4 36 11 36 30" style="fill:none;stroke:#000000;stroke-linecap:round;stroke-linejoin:round;stroke-width:2px"/>

<line x1="32" y1="1" x2="32" y2="4" style="fill:none;stroke:#000000;stroke-linecap:round;stroke-linejoin:round;stroke-width:2px"/>

<polygon points="36 30 32 37 28 30 24 37 24 52 32 52 40 52 40 37 36 30" style="fill:none;stroke:#000000;stroke-linecap:round;stroke-linejoin:round;stroke-width:2px"/>

<line x1="35.72" y1="25" x2="28.369" y2="25" style="fill:#ffffff;stroke:#000000;stroke-linecap:round;stroke-linejoin:round;stroke-width:2px"/>

<line x1="28.369" y1="18" x2="35.521" y2="18" style="fill:#ffffff;stroke:#000000;stroke-linecap:round;stroke-linejoin:round;stroke-width:2px"/>

<path d="M30,52.448V57H25.522A2.522,2.522,0,0,0,23,59.522v.567a2.642,2.642,0,0,0-2,2.558V63H43v-.353a2.642,2.642,0,0,0-2-2.558v-.567A2.522,2.522,0,0,0,38.478,57H34V52.414" style="fill:none;stroke:#000000;stroke-linecap:round;stroke-linejoin:round;stroke-width:2px"/>

<line x1="24" y1="46" x2="40" y2="46" style="fill:none;stroke:#000000;stroke-linejoin:round;stroke-width:2px"/>

<line x1="24" y1="49" x2="40" y2="49" style="fill:none;stroke:#000000;stroke-linejoin:round;stroke-width:2px"/>

<line x1="32" y1="37" x2="32" y2="52" style="fill:none;stroke:#000000;stroke-linejoin:round;stroke-width:2px"/>

</g>

</svg>