<?xml version="1.0" encoding="utf-8"?>
<svg width="800px" height="800px" viewBox="0 0 64 64" id="scroll" xmlns="http://www.w3.org/2000/svg"><title>scroll</title><path d="M16.831,9H14.5A1.5,1.5,0,0,1,13,7.5h0A1.5,1.5,0,0,1,14.5,6h2.292" style="fill:none;stroke:#000000;stroke-linecap:round;stroke-linejoin:round;stroke-width:2px"/><path d="M57.234,6H59.5A1.5,1.5,0,0,1,61,7.5h0A1.5,1.5,0,0,1,59.5,9H57.292" style="fill:none;stroke:#000000;stroke-linecap:round;stroke-linejoin:round;stroke-width:2px"/><rect x="17" y="4" width="40" height="8" rx="1.874" ry="1.874" style="fill:none;stroke:#000000;stroke-linecap:round;stroke-linejoin:round;stroke-width:2px"/><path d="M16.831,56H14.5A1.5,1.5,0,0,1,13,54.5h0A1.5,1.5,0,0,1,14.5,53h2.292" style="fill:none;stroke:#000000;stroke-linecap:round;stroke-linejoin:round;stroke-width:2px"/><path d="M57.234,53H59.5A1.5,1.5,0,0,1,61,54.5h0A1.5,1.5,0,0,1,59.5,56H57.292" style="fill:none;stroke:#000000;stroke-linecap:round;stroke-linejoin:round;stroke-width:2px"/><rect x="17" y="51" width="40" height="8" rx="1.874" ry="1.874" style="fill:none;stroke:#000000;stroke-linecap:round;stroke-linejoin:round;stroke-width:2px"/><line x1="55" y1="12.311" x2="55" y2="16.5" style="fill:none;stroke:#000000;stroke-linecap:round;stroke-linejoin:round;stroke-width:2px"/><line x1="19" y1="50.683" x2="19" y2="12.311" style="fill:none;stroke:#000000;stroke-linecap:round;stroke-linejoin:round;stroke-width:2px"/><line x1="55" y1="21.5" x2="55" y2="50.683" style="fill:none;stroke:#000000;stroke-linecap:round;stroke-linejoin:round;stroke-width:2px"/><rect x="37" y="32.939" width="11" height="8.061" style="fill:none;stroke:#000000;stroke-linecap:round;stroke-linejoin:round;stroke-width:2px"/><line x1="37.309" y1="36.929" x2="48" y2="37" style="fill:#fc8c29;stroke:#000000;stroke-linecap:round;stroke-linejoin:round;stroke-width:2px"/><rect x="38" y="25" width="9" height="5" style="fill:none;stroke:#000000;stroke-linecap:round;stroke-linejoin:round;stroke-width:2px"/><line x1="38.414" y1="21.084" x2="46.701" y2="21.084" style="fill:#fc8c29;stroke:#000000;stroke-linecap:round;stroke-linejoin:round;stroke-width:2px"/><polyline points="25.155 25 33.994 25 24.05 34.597" style="fill:none;stroke:#000000;stroke-linecap:round;stroke-linejoin:round;stroke-width:2px"/><polyline points="33.994 34.597 29 30 29.022 41.779" style="fill:none;stroke:#000000;stroke-linecap:round;stroke-linejoin:round;stroke-width:2px"/><line x1="30.679" y1="22.442" x2="27.917" y2="19.679" style="fill:#fc8c29;stroke:#000000;stroke-linecap:round;stroke-linejoin:round;stroke-width:2px"/><circle cx="11" cy="44" r="1"/><circle cx="59" cy="26" r="1"/><line x1="9.919" y1="16.586" x2="6.223" y2="20.281" style="fill:none;stroke:#000000;stroke-linecap:round;stroke-linejoin:round;stroke-width:2px"/><line x1="6.223" y1="16.586" x2="9.919" y2="20.281" style="fill:none;stroke:#000000;stroke-linecap:round;stroke-linejoin:round;stroke-width:2px"/></svg>