<?xml version="1.0" encoding="utf-8"?>
<svg width="800px" height="800px" viewBox="0 0 64 64" xmlns="http://www.w3.org/2000/svg">

<title>shield</title>

<g id="shield">

<line x1="50" y1="4" x2="50" y2="6" style="fill:none;stroke:#000000;stroke-linecap:round;stroke-linejoin:round;stroke-width:2px"/>

<line x1="50" y1="10" x2="50" y2="12" style="fill:none;stroke:#000000;stroke-linecap:round;stroke-linejoin:round;stroke-width:2px"/>

<path d="M22.773,13.2A20.026,20.026,0,0,1,13.5,16,49.06,49.06,0,0,1,6,15V38C6,51,26,61,26,61S46,51,46,38V15a49.06,49.06,0,0,1-7.5,1,19.7,19.7,0,0,1-9.059-2.685" style="fill:none;stroke:#000000;stroke-linecap:round;stroke-linejoin:round;stroke-width:2px"/>

<line x1="46" y1="8" x2="48" y2="8" style="fill:none;stroke:#000000;stroke-linecap:round;stroke-linejoin:round;stroke-width:2px"/>

<line x1="52" y1="8" x2="54" y2="8" style="fill:none;stroke:#000000;stroke-linecap:round;stroke-linejoin:round;stroke-width:2px"/>

<line x1="29.275" y1="35.275" x2="33" y2="39" style="fill:none;stroke:#000000;stroke-linecap:round;stroke-linejoin:round;stroke-width:2px"/>

<line x1="19" y1="25" x2="22.44" y2="28.44" style="fill:none;stroke:#000000;stroke-linecap:round;stroke-linejoin:round;stroke-width:2px"/>

<line x1="29.476" y1="28.524" x2="33" y2="25" style="fill:none;stroke:#000000;stroke-linecap:round;stroke-linejoin:round;stroke-width:2px"/>

<line x1="19" y1="39" x2="22.414" y2="35.586" style="fill:none;stroke:#000000;stroke-linecap:round;stroke-linejoin:round;stroke-width:2px"/>

<circle cx="59.74" cy="12.987" r="1.069"/>

<circle cx="54.147" cy="35.586" r="2.085" style="fill:none;stroke:#000000;stroke-linecap:round;stroke-linejoin:round;stroke-width:2px"/>

<polyline points="45.665 29 29 29 29 13 25.944 10 23 13 23 29 6.458 29" style="fill:none;stroke:#000000;stroke-linecap:round;stroke-linejoin:round;stroke-width:2px"/>

<polyline points="6.529 35 23 35 23 53 26 61 29 53 29 35 45.665 35" style="fill:none;stroke:#000000;stroke-linecap:round;stroke-linejoin:round;stroke-width:2px"/>

</g>

</svg>