<?xml version="1.0" encoding="utf-8"?>
<svg width="800px" height="800px" viewBox="0 0 64 64" xmlns="http://www.w3.org/2000/svg">

<title>ship</title>

<g id="ship">

<circle cx="50.5" cy="13.5" r="2.5"/>

<circle cx="28" cy="4" r="1"/>

<circle cx="58" cy="6" r="1"/>

<circle cx="9" cy="4" r="1"/>

<circle cx="17" cy="11" r="1"/>

<line x1="33.649" y1="34.287" x2="32.071" y2="42.626" style="fill:#6b4f5b;stroke:#000000;stroke-linecap:round;stroke-linejoin:round;stroke-width:2px"/>

<line x1="38.37" y1="9.335" x2="37.531" y2="13.769" style="fill:#6b4f5b;stroke:#000000;stroke-linecap:round;stroke-linejoin:round;stroke-width:2px"/>

<line x1="55.165" y1="33.883" x2="54.153" y2="39.198" style="fill:#6b4f5b;stroke:#000000;stroke-linecap:round;stroke-linejoin:round;stroke-width:2px"/>

<line x1="58" y1="19" x2="56.992" y2="24.293" style="fill:#6b4f5b;stroke:#000000;stroke-linecap:round;stroke-linejoin:round;stroke-width:2px"/>

<line x1="8.498" y1="30.207" x2="7" y2="35" style="fill:#6b4f5b;stroke:#000000;stroke-linecap:round;stroke-linejoin:round;stroke-width:2px"/>

<line x1="12" y1="19" x2="10.976" y2="22.277" style="fill:#6b4f5b;stroke:#000000;stroke-linecap:round;stroke-linejoin:round;stroke-width:2px"/>

<path d="M38.872,15.619l3.142,3.25L44.89,34.5,18.712,33.157a10.124,10.124,0,0,0,0-5.753s2.4-3.74,2.781-6.329c0,0,3.548-4.027,4.028-5.658,0,0,7.287-3.548,8.246-5.082l5.1,5.284" style="fill:none;stroke:#000000;stroke-linecap:round;stroke-linejoin:round;stroke-width:2px"/>

<path d="M48.137,33.5s-.192-3.548-.384-4.411L49,24.294l3.932-3.74,4.7,4.891,4.028,8.438Z" style="fill:none;stroke:#000000;stroke-linecap:round;stroke-linejoin:round;stroke-width:2px"/>

<polygon points="13.507 30.445 12.356 24.404 8.041 18.554 4.205 21.719 3.055 25.171 2 29.102 13.507 30.445" style="fill:none;stroke:#000000;stroke-linecap:round;stroke-linejoin:round;stroke-width:2px"/>

<line x1="18.712" y1="27.5" x2="44.087" y2="30.133" style="fill:#6b4f5b;stroke:#000000;stroke-linejoin:round;stroke-width:2px"/>

<line x1="25.521" y1="15.417" x2="42.667" y2="22.417" style="fill:#6b4f5b;stroke:#000000;stroke-linejoin:round;stroke-width:2px"/>

<line x1="21.493" y1="21.075" x2="43.409" y2="26.451" style="fill:#6b4f5b;stroke:#000000;stroke-linejoin:round;stroke-width:2px"/>

<line x1="49" y1="24.294" x2="59.176" y2="28.683" style="fill:#6b4f5b;stroke:#000000;stroke-linejoin:round;stroke-width:2px"/>

<line x1="47.753" y1="29.089" x2="60.224" y2="30.88" style="fill:#6b4f5b;stroke:#000000;stroke-linejoin:round;stroke-width:2px"/>

<line x1="4.205" y1="21.719" x2="12.79" y2="26.683" style="fill:#6b4f5b;stroke:#000000;stroke-linejoin:round;stroke-width:2px"/>

<line x1="3.055" y1="25.171" x2="13.123" y2="28.431" style="fill:#6b4f5b;stroke:#000000;stroke-linejoin:round;stroke-width:2px"/>

<path d="M56.682,51.369,63,37,42,43s-11,0-16.643-.365C21.983,42.417,22,38,22,38L1,33.883v3.9L12.431,49.316" style="fill:none;stroke:#000000;stroke-linecap:round;stroke-linejoin:round;stroke-width:2px"/>

<path d="M63,47a5,5,0,0,1-10,0,5,5,0,0,1-10,0,5,5,0,0,1-10,0,5,5,0,0,1-10,0,5,5,0,0,1-10,0A5,5,0,0,1,3,47" style="fill:none;stroke:#000000;stroke-linecap:round;stroke-linejoin:round;stroke-width:2px"/>

</g>

</svg>