<?xml version="1.0" encoding="utf-8"?>
<svg width="800px" height="800px" viewBox="0 0 64 64" xmlns="http://www.w3.org/2000/svg">

<title>shofar</title>

<g id="shofar">

<circle cx="55.044" cy="45.014" r="1.069"/>

<circle cx="13.5" cy="31.5" r="2.5" style="fill:none;stroke:#000000;stroke-linecap:round;stroke-linejoin:round;stroke-width:2px"/>

<line x1="23" y1="22" x2="26" y2="25" style="fill:none;stroke:#000000;stroke-linecap:round;stroke-linejoin:round;stroke-width:2px"/>

<line x1="26" y1="22" x2="23" y2="25" style="fill:none;stroke:#000000;stroke-linecap:round;stroke-linejoin:round;stroke-width:2px"/>

<path d="M37.425,10.657c.246,7.808-2.734,26.465-33.686,39.622A2.833,2.833,0,0,0,2,52.88H2a2.819,2.819,0,0,0,3.165,2.8C17.261,54.2,59.858,46.754,59,15" style="fill:none;stroke:#000000;stroke-linecap:round;stroke-linejoin:round;stroke-width:2px"/>

<path d="M36.25,8.783C39.068,12.348,46.651,19.631,59,15c0,0-3.816-9.921-16.114-9.1A3.62,3.62,0,0,1,40.243,5h0A2.761,2.761,0,0,0,36.2,5.4h0A2.766,2.766,0,0,0,36.25,8.783Z" style="fill:none;stroke:#000000;stroke-linecap:round;stroke-linejoin:round;stroke-width:2px"/>

<path d="M59,15s-1,9-17,16" style="fill:none;stroke:#000000;stroke-linecap:round;stroke-linejoin:round;stroke-width:2px"/>

<path d="M33,35s11,3,20-1" style="fill:none;stroke:#000000;stroke-linecap:round;stroke-linejoin:round;stroke-width:2px"/>

<path d="M31,42s-6.609-1.9-16.8,3.053" style="fill:none;stroke:#000000;stroke-linecap:round;stroke-linejoin:round;stroke-width:2px"/>

<path d="M35,43a20.884,20.884,0,0,0,8.318,0" style="fill:none;stroke:#000000;stroke-linecap:round;stroke-linejoin:round;stroke-width:2px"/>

<path d="M9.642,47.539A32.733,32.733,0,0,1,19,48" style="fill:none;stroke:#000000;stroke-linecap:round;stroke-linejoin:round;stroke-width:2px"/>

<path d="M44,21s-5,4.02-8-.49" style="fill:none;stroke:#000000;stroke-linecap:round;stroke-linejoin:round;stroke-width:2px"/>

<ellipse cx="48.322" cy="11.103" rx="2" ry="6.662" transform="matrix(0.305, -0.952, 0.952, 0.305, 22.997, 53.729)" style="fill:none;stroke:#000000;stroke-linecap:round;stroke-linejoin:round;stroke-width:2px"/>

</g>

</svg>