<?xml version="1.0" encoding="utf-8"?>
<svg width="800px" height="800px" viewBox="0 0 64 64" xmlns="http://www.w3.org/2000/svg">

<title>soccer-equipment</title>

<g id="soccer-equipment">

<line x1="11" y1="8" x2="11" y2="10" style="fill:none;stroke:#000000;stroke-linecap:round;stroke-linejoin:round;stroke-width:2px"/>

<line x1="11" y1="14" x2="11" y2="16" style="fill:none;stroke:#000000;stroke-linecap:round;stroke-linejoin:round;stroke-width:2px"/>

<line x1="7" y1="12" x2="9" y2="12" style="fill:none;stroke:#000000;stroke-linecap:round;stroke-linejoin:round;stroke-width:2px"/>

<line x1="13" y1="12" x2="15" y2="12" style="fill:none;stroke:#000000;stroke-linecap:round;stroke-linejoin:round;stroke-width:2px"/>

<circle cx="12.5" cy="28.5" r="2.5" style="fill:none;stroke:#000000;stroke-linecap:round;stroke-linejoin:round;stroke-width:2px"/>

<circle cx="3.017" cy="21.792" r="1.069"/>

<polyline points="52 25.423 54.751 27.141 61.075 20.954 52 11.581" style="fill:none;stroke:#000000;stroke-linejoin:round;stroke-width:2px"/>

<path d="M32.673,9.816a33.913,33.913,0,0,1,11.55,0" style="fill:none;stroke:#000000;stroke-linecap:round;stroke-linejoin:round;stroke-width:2px"/>

<polyline points="25 25.423 22.249 27.141 15.925 20.954 25 11.581" style="fill:none;stroke:#000000;stroke-linejoin:round;stroke-width:2px"/>

<path d="M41.062,51.891H52V11.452a48.142,48.142,0,0,0-7.534-1.624A6.049,6.049,0,0,1,32.43,9.816,45.372,45.372,0,0,0,25,11.452v22.16" style="fill:none;stroke:#000000;stroke-linecap:round;stroke-linejoin:round;stroke-width:2px"/>

<path d="M13.708,37.8a37.494,37.494,0,0,0-2.786,14.188V61H23.841L26,56l1.816,5H40.734V51.987a37.484,37.484,0,0,0-2.761-14.126" style="fill:none;stroke:#000000;stroke-linecap:round;stroke-linejoin:round;stroke-width:2px"/>

<rect x="13.734" y="34" width="24.188" height="4" style="fill:none;stroke:#000000;stroke-linecap:round;stroke-linejoin:round;stroke-width:2px"/>

<line x1="26" y1="39" x2="26" y2="56" style="fill:none;stroke:#000000;stroke-linecap:round;stroke-linejoin:round;stroke-width:2px"/>

<line x1="23" y1="39" x2="23" y2="46" style="fill:none;stroke:#000000;stroke-linecap:round;stroke-linejoin:round;stroke-width:2px"/>

<line x1="29" y1="39" x2="29" y2="46" style="fill:none;stroke:#000000;stroke-linecap:round;stroke-linejoin:round;stroke-width:2px"/>

<polygon points="49 21 45 21 45 19 42 19 42 21 38 21 38 24 42 24 42 26 45 26 45 24 49 24 49 21" style="fill:none;stroke:#000000;stroke-linecap:round;stroke-linejoin:round;stroke-width:2px"/>

</g>

</svg>