<?xml version="1.0" encoding="utf-8"?>
<svg width="800px" height="800px" viewBox="0 0 64 64" xmlns="http://www.w3.org/2000/svg">

<title>spanish</title>

<g id="spanish">

<path d="M24.583,36H8.833A3.833,3.833,0,0,1,5,32.167V10.833A3.833,3.833,0,0,1,8.833,7H48.167A3.833,3.833,0,0,1,52,10.833v20.75" style="fill:none;stroke:#000000;stroke-linecap:round;stroke-linejoin:round;stroke-width:2px"/>

<line x1="52" y1="15" x2="5" y2="15" style="fill:#f53e28;stroke:#000000;stroke-linejoin:round;stroke-width:2px"/>

<line x1="5" y1="28" x2="52" y2="28" style="fill:#f53e28;stroke:#000000;stroke-linejoin:round;stroke-width:2px"/>

<path d="M56.346,32H27.654A2.654,2.654,0,0,0,25,34.654V58l7.5-7H56.346A2.654,2.654,0,0,0,59,48.346V34.654A2.654,2.654,0,0,0,56.346,32Z" style="fill:none;stroke:#000000;stroke-linecap:round;stroke-linejoin:round;stroke-width:2px"/>

<line x1="8" y1="50" x2="8" y2="52" style="fill:none;stroke:#000000;stroke-linecap:round;stroke-linejoin:round;stroke-width:2px"/>

<line x1="8" y1="56" x2="8" y2="58" style="fill:none;stroke:#000000;stroke-linecap:round;stroke-linejoin:round;stroke-width:2px"/>

<line x1="4" y1="54" x2="6" y2="54" style="fill:none;stroke:#000000;stroke-linecap:round;stroke-linejoin:round;stroke-width:2px"/>

<line x1="10" y1="54" x2="12" y2="54" style="fill:none;stroke:#000000;stroke-linecap:round;stroke-linejoin:round;stroke-width:2px"/>

<path d="M19.082,44.667A1.069,1.069,0,1,1,18.013,43.6,1.07,1.07,0,0,1,19.082,44.667Z"/>

<line x1="33" y1="42" x2="30" y2="42" style="fill:none;stroke:#000000;stroke-linecap:round;stroke-linejoin:round;stroke-width:2px"/>

<polyline points="30 39 30 42 30 45" style="fill:none;stroke:#000000;stroke-linecap:round;stroke-linejoin:round;stroke-width:2px"/>

<line x1="54" y1="44.5" x2="54" y2="45" style="fill:none;stroke:#000000;stroke-linecap:round;stroke-linejoin:round;stroke-width:2px"/>

<line x1="54" y1="39" x2="54" y2="41.5" style="fill:none;stroke:#000000;stroke-linecap:round;stroke-linejoin:round;stroke-width:2px"/>

<line x1="49" y1="39" x2="47" y2="45" style="fill:none;stroke:#000000;stroke-linecap:round;stroke-linejoin:round;stroke-width:2px"/>

<line x1="49" y1="39" x2="51" y2="45" style="fill:none;stroke:#000000;stroke-linecap:round;stroke-linejoin:round;stroke-width:2px"/>

<polyline points="42 39 42 42 42 45 44 45" style="fill:none;stroke:#000000;stroke-linecap:round;stroke-linejoin:round;stroke-width:2px"/>

<polyline points="33 39 33 42 33 45" style="fill:none;stroke:#000000;stroke-linecap:round;stroke-linejoin:round;stroke-width:2px"/>

<path d="M37.5,45h0A1.5,1.5,0,0,1,36,43.5v-3A1.5,1.5,0,0,1,37.5,39h0A1.5,1.5,0,0,1,39,40.5v3A1.5,1.5,0,0,1,37.5,45Z" style="fill:none;stroke:#000000;stroke-linecap:round;stroke-linejoin:round;stroke-width:2px"/>

</g>

</svg>