<?xml version="1.0" encoding="utf-8"?>
<svg width="800px" height="800px" viewBox="0 0 64 64" xmlns="http://www.w3.org/2000/svg">

<title>stamp</title>

<g id="stamp">

<circle cx="1.5" cy="12.5" r="1.069"/>

<path d="M56.983,8,57,6a2.555,2.555,0,0,0-2.5,2H53.95A2.5,2.5,0,0,0,52,6.054V6c-.085,0-.167.014-.251.022C51.667,6.014,51.585,6,51.5,6a2.5,2.5,0,0,0-2.45,2h-.1a2.5,2.5,0,0,0-4.9,0h-.1a2.5,2.5,0,0,0-4.9,0h-.1a2.5,2.5,0,0,0-4.9,0h-.1a2.5,2.5,0,0,0-4.9,0h-.1a2.5,2.5,0,0,0-4.9,0h-.1A2.5,2.5,0,0,0,21.5,6c-.085,0-.167.014-.249.022C21.167,6.014,21.085,6,21,6v.054A2.5,2.5,0,0,0,19.05,8H18.5A2.555,2.555,0,0,0,16,6l.017,2V60L16,62a2.555,2.555,0,0,0,2.5-2h.551A2.5,2.5,0,0,0,21,61.946V62c.085,0,.167-.014.251-.022.082.008.164.022.249.022a2.5,2.5,0,0,0,2.45-2h.1a2.5,2.5,0,0,0,4.9,0h.1a2.5,2.5,0,0,0,4.9,0h.1a2.5,2.5,0,0,0,4.9,0h.1a2.5,2.5,0,0,0,4.9,0h.1a2.5,2.5,0,0,0,4.9,0h.1a2.5,2.5,0,0,0,2.45,2c.085,0,.167-.014.249-.022.084.008.166.022.251.022v-.054A2.5,2.5,0,0,0,53.95,60H54.5A2.555,2.555,0,0,0,57,62l-.017-2Z" style="fill:none;stroke:#000000;stroke-linecap:round;stroke-linejoin:round;stroke-width:2px"/>

<line x1="10.129" y1="29" x2="7.181" y2="31.948" style="fill:none;stroke:#000000;stroke-linecap:round;stroke-linejoin:round;stroke-width:2px"/>

<line x1="7.181" y1="29" x2="10.129" y2="31.948" style="fill:none;stroke:#000000;stroke-linecap:round;stroke-linejoin:round;stroke-width:2px"/>

<circle cx="9.5" cy="49.5" r="2.5" style="fill:none;stroke:#000000;stroke-linecap:round;stroke-linejoin:round;stroke-width:2px"/>

<polyline points="53 37.403 53 53 37 53 37 37.474" style="fill:none;stroke:#000000;stroke-linecap:round;stroke-linejoin:round;stroke-width:2px"/>

<circle cx="45" cy="45" r="5" style="fill:none;stroke:#000000;stroke-linecap:round;stroke-linejoin:round;stroke-width:2px"/>

<rect x="36" y="30" width="18" height="7" style="fill:none;stroke:#000000;stroke-linecap:round;stroke-linejoin:round;stroke-width:2px"/>

<line x1="51" y1="53.389" x2="51" y2="58" style="fill:none;stroke:#000000;stroke-linecap:round;stroke-linejoin:round;stroke-width:2px"/>

<line x1="39" y1="58" x2="39" y2="53.389" style="fill:none;stroke:#000000;stroke-linecap:round;stroke-linejoin:round;stroke-width:2px"/>

<polyline points="53 30 49 25 49 18 49 15.333 45 10 41 15.333 41 18 41 25 37 30" style="fill:none;stroke:#000000;stroke-linejoin:round;stroke-width:2px"/>

<polyline points="45 43 45 45.175 46.175 46.262" style="fill:none;stroke:#000000;stroke-linecap:round;stroke-linejoin:round;stroke-width:2px"/>

<line x1="39" y1="33" x2="39" y2="34" style="fill:none;stroke:#000000;stroke-linecap:round;stroke-linejoin:round;stroke-width:2px"/>

<line x1="42" y1="33" x2="42" y2="34" style="fill:none;stroke:#000000;stroke-linecap:round;stroke-linejoin:round;stroke-width:2px"/>

<line x1="45" y1="33" x2="45" y2="34" style="fill:none;stroke:#000000;stroke-linecap:round;stroke-linejoin:round;stroke-width:2px"/>

<line x1="45" y1="21" x2="45" y2="22" style="fill:none;stroke:#000000;stroke-linecap:round;stroke-linejoin:round;stroke-width:2px"/>

<line x1="48" y1="33" x2="48" y2="34" style="fill:none;stroke:#000000;stroke-linecap:round;stroke-linejoin:round;stroke-width:2px"/>

<line x1="51" y1="33" x2="51" y2="34" style="fill:none;stroke:#000000;stroke-linecap:round;stroke-linejoin:round;stroke-width:2px"/>

<polyline points="19 13 21 12 21 18" style="fill:none;stroke:#000000;stroke-linecap:round;stroke-linejoin:round;stroke-width:2px"/>

<polyline points="35 13 37 12 37 18" style="fill:none;stroke:#000000;stroke-linecap:round;stroke-linejoin:round;stroke-width:2px"/>

<rect x="24" y="12" width="3" height="3" rx="0.5" ry="0.5" style="fill:none;stroke:#000000;stroke-linecap:round;stroke-linejoin:round;stroke-width:2px"/>

<rect x="24" y="15" width="3" height="3" rx="0.5" ry="0.5" style="fill:none;stroke:#000000;stroke-linecap:round;stroke-linejoin:round;stroke-width:2px"/>

<path d="M30,17V12.5a.5.5,0,0,1,.5-.5H32" style="fill:none;stroke:#000000;stroke-linecap:round;stroke-linejoin:round;stroke-width:2px"/>

<path d="M30,15h2.5a.5.5,0,0,1,.5.5v2a.5.5,0,0,1-.5.5h-2a.5.5,0,0,1-.5-.5V15A0,0,0,0,1,30,15Z" style="fill:none;stroke:#000000;stroke-linecap:round;stroke-linejoin:round;stroke-width:2px"/>

<line x1="49" y1="18" x2="41" y2="18" style="fill:none;stroke:#000000;stroke-linejoin:round;stroke-width:2px"/>

<line x1="41" y1="25" x2="49" y2="25" style="fill:none;stroke:#000000;stroke-linejoin:round;stroke-width:2px"/>

</g>

</svg>