<?xml version="1.0" encoding="utf-8"?>
<svg width="800px" height="800px" viewBox="0 0 64 64" xmlns="http://www.w3.org/2000/svg">

<title>vegemite</title>

<g id="vegemite">

<line x1="7" y1="8" x2="7" y2="10" style="fill:none;stroke:#000000;stroke-linecap:round;stroke-linejoin:round;stroke-width:2px"/>

<line x1="7" y1="14" x2="7" y2="16" style="fill:none;stroke:#000000;stroke-linecap:round;stroke-linejoin:round;stroke-width:2px"/>

<line x1="3" y1="12" x2="5" y2="12" style="fill:none;stroke:#000000;stroke-linecap:round;stroke-linejoin:round;stroke-width:2px"/>

<line x1="9" y1="12" x2="11" y2="12" style="fill:none;stroke:#000000;stroke-linecap:round;stroke-linejoin:round;stroke-width:2px"/>

<circle cx="6.74" cy="25.987" r="1.069"/>

<circle cx="33.5" cy="6.5" r="2.5" style="fill:none;stroke:#000000;stroke-linecap:round;stroke-linejoin:round;stroke-width:2px"/>

<path d="M49.024,12H17.976A2.975,2.975,0,0,0,15,14.976V26H52V14.976A2.975,2.975,0,0,0,49.024,12Z" style="fill:none;stroke:#000000;stroke-linecap:round;stroke-linejoin:round;stroke-width:2px"/>

<line x1="18" y1="22" x2="20" y2="22" style="fill:none;stroke:#000000;stroke-linecap:round;stroke-linejoin:round;stroke-width:2px"/>

<line x1="23.857" y1="22" x2="45.071" y2="22" style="fill:none;stroke:#000000;stroke-linecap:round;stroke-linejoin:round;stroke-width:2px;stroke-dasharray:3.857142925262451,3.857142925262451"/>

<line x1="47" y1="22" x2="49" y2="22" style="fill:none;stroke:#000000;stroke-linecap:round;stroke-linejoin:round;stroke-width:2px"/>

<path d="M17,26.415v2.718a2.8,2.8,0,0,0-2,2.678V53.527A7.473,7.473,0,0,0,22.473,61H44.527A7.473,7.473,0,0,0,52,53.527V31.811a2.8,2.8,0,0,0-2-2.678V26.415" style="fill:none;stroke:#000000;stroke-linecap:round;stroke-linejoin:round;stroke-width:2px"/>

<path d="M45.189,43.836l-10.8,4.986a.921.921,0,0,1-.772,0l-10.8-4.986a.921.921,0,0,1,0-1.672l10.8-4.986a.921.921,0,0,1,.772,0l10.8,4.986A.921.921,0,0,1,45.189,43.836Z" style="fill:none;stroke:#000000;stroke-linejoin:round;stroke-width:2px"/>

<polyline points="31 41 34 46 37 41" style="fill:none;stroke:#000000;stroke-linecap:round;stroke-linejoin:round;stroke-width:2px"/>

<line x1="60" y1="61" x2="45" y2="61" style="fill:none;stroke:#000000;stroke-linecap:round;stroke-linejoin:round;stroke-width:2px"/>

<line x1="15" y1="61" x2="8" y2="61" style="fill:none;stroke:#000000;stroke-linecap:round;stroke-linejoin:round;stroke-width:2px"/>

<line x1="52" y1="33" x2="15" y2="33" style="fill:none;stroke:#000000;stroke-linejoin:round;stroke-width:2px"/>

<line x1="52" y1="53" x2="15" y2="53" style="fill:none;stroke:#000000;stroke-linejoin:round;stroke-width:2px"/>

</g>

</svg>