<?xml version="1.0" ?>


<svg width="800px" height="800px" viewBox="0 0 512 512" version="1.1" xml:space="preserve" xmlns="http://www.w3.org/2000/svg" xmlns:xlink="http://www.w3.org/1999/xlink">

<style type="text/css">
	.st0{fill:#16ADE1;}
	.st1{fill:#1B3954;}
</style>

<g id="Layer_1"/>

<g id="Layer_2">

<g>

<g>

<g>

<path class="st1" d="M214.46,158.9c-1.74,0-3.49-0.65-4.84-1.95l-38.19-36.59H48.17v27.38c0,3.87-3.13,7-7,7s-7-3.13-7-7v-34.38      c0-3.87,3.13-7,7-7h133.07c1.8,0,3.54,0.7,4.84,1.95l40.22,38.54c2.79,2.67,2.89,7.11,0.21,9.9      C218.14,158.18,216.3,158.9,214.46,158.9z"/>

</g>

<g>

<path class="st1" d="M214.46,285.68H41.17c-3.87,0-7-3.13-7-7v-88.69c0-3.87,3.13-7,7-7s7,3.13,7,7v81.69h166.29      c3.87,0,7,3.13,7,7S218.33,285.68,214.46,285.68z"/>

</g>

<g>

<path class="st1" d="M41.17,175.87c-1.85,0-3.65-0.75-4.95-2.05c-1.31-1.3-2.05-3.11-2.05-4.95c0-0.46,0.04-0.92,0.13-1.37      c0.09-0.45,0.23-0.89,0.4-1.31c0.18-0.42,0.39-0.83,0.65-1.21c0.25-0.38,0.54-0.74,0.87-1.06c1.3-1.3,3.1-2.05,4.95-2.05      c1.84,0,3.64,0.75,4.95,2.05c0.32,0.32,0.61,0.68,0.87,1.06c0.25,0.38,0.46,0.79,0.64,1.21c0.17,0.42,0.31,0.86,0.4,1.31      c0.09,0.45,0.14,0.91,0.14,1.37c0,1.84-0.75,3.65-2.05,4.95C44.81,175.12,43.01,175.87,41.17,175.87z"/>

</g>

<g>

<path class="st0" d="M190.13,250.74H85.52c-3.87,0-7-3.13-7-7v-86.02c0-3.87,3.13-7,7-7h70.9c1.8,0,3.54,0.7,4.84,1.95      l33.71,32.3c1.38,1.32,2.16,3.15,2.16,5.05v53.72C197.13,247.6,194,250.74,190.13,250.74z M92.52,236.74h90.61v-43.73      l-29.53-28.29H92.52V236.74z"/>

</g>

<g>

<path class="st1" d="M258.09,450.7c-0.46,0-0.92-0.05-1.37-0.14c-0.44-0.09-0.89-0.22-1.31-0.4c-0.42-0.17-0.83-0.39-1.21-0.64      c-0.38-0.25-0.74-0.55-1.06-0.87c-0.32-0.32-0.62-0.68-0.87-1.06s-0.47-0.79-0.64-1.21c-0.18-0.42-0.31-0.87-0.4-1.31      c-0.09-0.45-0.14-0.91-0.14-1.37s0.05-0.92,0.14-1.37c0.09-0.44,0.22-0.89,0.4-1.31c0.17-0.42,0.39-0.83,0.64-1.21      c0.25-0.38,0.55-0.74,0.87-1.06c0.32-0.32,0.68-0.61,1.06-0.87c0.38-0.25,0.79-0.47,1.21-0.64c0.42-0.18,0.87-0.31,1.31-0.4      c0.9-0.19,1.84-0.19,2.74,0c0.44,0.09,0.88,0.22,1.31,0.4c0.42,0.17,0.83,0.39,1.21,0.64c0.38,0.26,0.74,0.55,1.06,0.87      c0.32,0.32,0.62,0.68,0.87,1.06c0.25,0.38,0.47,0.79,0.64,1.21c0.18,0.43,0.31,0.87,0.4,1.31c0.09,0.45,0.14,0.91,0.14,1.37      s-0.05,0.92-0.14,1.37c-0.09,0.44-0.22,0.89-0.4,1.31c-0.17,0.42-0.39,0.83-0.64,1.21s-0.55,0.74-0.87,1.06      c-0.32,0.32-0.68,0.62-1.06,0.87s-0.79,0.47-1.21,0.64c-0.43,0.18-0.87,0.31-1.31,0.4C259.01,450.65,258.55,450.7,258.09,450.7z      "/>

</g>

<g>

<path class="st1" d="M330.56,450.7H158.27c-3.87,0-7-3.13-7-7s3.13-7,7-7h172.29c16.69,0,30.28-13.58,30.28-30.28v-4.18      c0-16.69-13.58-30.28-30.28-30.28H57.37c-16.69,0-30.28,13.58-30.28,30.28v4.18c0,16.69,13.58,30.28,30.28,30.28h57.12      c3.87,0,7,3.13,7,7s-3.13,7-7,7H57.37c-24.41,0-44.28-19.86-44.28-44.28v-4.18c0-24.41,19.86-44.28,44.28-44.28h273.19      c24.41,0,44.28,19.86,44.28,44.28v4.18C374.84,430.84,354.97,450.7,330.56,450.7z"/>

</g>

<g>

<g>

<path class="st0" d="M64.23,426.61c-12.28,0-22.28-9.99-22.28-22.28s9.99-22.28,22.28-22.28s22.28,9.99,22.28,22.28       S76.51,426.61,64.23,426.61z M64.23,396.05c-4.56,0-8.28,3.71-8.28,8.28c0,4.57,3.71,8.28,8.28,8.28       c4.57,0,8.28-3.71,8.28-8.28C72.5,399.77,68.79,396.05,64.23,396.05z"/>

</g>

<g>

<path class="st0" d="M129.09,426.61c-12.28,0-22.28-9.99-22.28-22.28s9.99-22.28,22.28-22.28s22.28,9.99,22.28,22.28       S141.38,426.61,129.09,426.61z M129.09,396.05c-4.56,0-8.28,3.71-8.28,8.28c0,4.57,3.71,8.28,8.28,8.28       c4.57,0,8.28-3.71,8.28-8.28C137.37,399.77,133.66,396.05,129.09,396.05z"/>

</g>

<g>

<path class="st0" d="M193.96,426.61c-12.28,0-22.28-9.99-22.28-22.28s9.99-22.28,22.28-22.28s22.28,9.99,22.28,22.28       S206.25,426.61,193.96,426.61z M193.96,396.05c-4.56,0-8.28,3.71-8.28,8.28c0,4.57,3.71,8.28,8.28,8.28       c4.57,0,8.28-3.71,8.28-8.28C202.24,399.77,198.53,396.05,193.96,396.05z"/>

</g>

<g>

<path class="st0" d="M258.83,426.61c-12.28,0-22.28-9.99-22.28-22.28s9.99-22.28,22.28-22.28s22.28,9.99,22.28,22.28       S271.12,426.61,258.83,426.61z M258.83,396.05c-4.56,0-8.28,3.71-8.28,8.28c0,4.57,3.71,8.28,8.28,8.28       c4.57,0,8.28-3.71,8.28-8.28C267.11,399.77,263.4,396.05,258.83,396.05z"/>

</g>

<g>

<path class="st0" d="M323.7,426.61c-12.28,0-22.28-9.99-22.28-22.28s9.99-22.28,22.28-22.28s22.28,9.99,22.28,22.28       S335.98,426.61,323.7,426.61z M323.7,396.05c-4.56,0-8.28,3.71-8.28,8.28c0,4.57,3.71,8.28,8.28,8.28       c4.57,0,8.28-3.71,8.28-8.28C331.98,399.77,328.27,396.05,323.7,396.05z"/>

</g>

</g>

<g>

<path class="st1" d="M332.28,337.33H41.17c-3.87,0-7-3.13-7-7v-51.65c0-3.87,3.13-7,7-7h262.88c1.84,0,3.6,0.72,4.91,2.01      l28.23,27.73c1.34,1.32,2.1,3.12,2.1,4.99v23.92C339.28,334.2,336.15,337.33,332.28,337.33z M48.17,323.33h277.11v-13.98      l-24.09-23.67H48.17V323.33z"/>

</g>

<g>

<path class="st1" d="M389.27,323.72h-29.11c-3.87,0-7-3.13-7-7s3.13-7,7-7h22.11v-17.23H328.1l9.09,8.93      c1.34,1.32,2.1,3.12,2.1,4.99v10.31c0,3.87-3.13,7-7,7s-7-3.13-7-7v-7.37l-19.2-18.86c-2.03-1.99-2.65-5.01-1.57-7.64      c1.08-2.63,3.64-4.35,6.48-4.35h78.29c3.87,0,7,3.13,7,7v31.23C396.27,320.59,393.14,323.72,389.27,323.72z"/>

</g>

<g>

<path class="st0" d="M491.91,450.7H389.27c-3.87,0-7-3.13-7-7V216.04c0-3.87,3.13-7,7-7h52.08c3.87,0,7,3.13,7,7v109.38      c0,42.55,17.64,83.81,48.39,113.22c2.07,1.98,2.72,5.01,1.66,7.67C497.34,448.96,494.77,450.7,491.91,450.7z M396.27,436.7      h79.37c-26.41-30.77-41.29-70.48-41.29-111.28V223.04h-38.08V436.7z"/>

</g>

<g>

<path class="st1" d="M234.49,285.68h-20.03c-3.87,0-7-3.13-7-7s3.13-7,7-7h13.03v-97.6l-17.87-17.12      c-2.79-2.67-2.89-7.11-0.21-9.9c2.67-2.79,7.1-2.89,9.9-0.21l20.03,19.19c1.38,1.32,2.16,3.15,2.16,5.05v107.59      C241.49,282.55,238.36,285.68,234.49,285.68z"/>

</g>

<g>

<path class="st1" d="M260.42,285.68h-25.93c-3.87,0-7-3.13-7-7v-104.6l-17.87-17.12c-1.38-1.32-2.16-3.15-2.16-5.05v-26.07      c0-3.87,3.13-7,7-7h45.96c3.87,0,7,3.13,7,7v152.85C267.42,282.55,264.29,285.68,260.42,285.68z M241.49,271.68h11.93V132.83      h-31.96v16.08l17.87,17.12c1.38,1.32,2.16,3.15,2.16,5.05V271.68z"/>

</g>

<g>

<path class="st1" d="M251.23,132.83h-27.57c-3.87,0-7-3.13-7-7V68.3c0-3.87,3.13-7,7-7h27.57c3.87,0,7,3.13,7,7v57.53      C258.23,129.7,255.09,132.83,251.23,132.83z M230.65,118.83h13.57V75.3h-13.57V118.83z"/>

</g>

<g>

<path class="st1" d="M135.65,450.7c-1.84,0-3.64-0.75-4.95-2.05c-0.32-0.32-0.61-0.68-0.87-1.06c-0.25-0.38-0.46-0.79-0.64-1.21      c-0.17-0.43-0.31-0.87-0.4-1.31c-0.09-0.45-0.14-0.91-0.14-1.37c0-1.84,0.75-3.65,2.05-4.95c1.31-1.3,3.11-2.05,4.95-2.05      c1.85,0,3.65,0.75,4.95,2.05c1.31,1.3,2.05,3.11,2.05,4.95c0,0.46-0.04,0.92-0.13,1.37c-0.09,0.44-0.23,0.88-0.4,1.31      c-0.18,0.42-0.39,0.83-0.65,1.21c-0.25,0.38-0.54,0.74-0.87,1.06C139.3,449.95,137.5,450.7,135.65,450.7z"/>

</g>

</g>

</g>

</g>

</svg>