<?xml version="1.0" ?>


<svg width="800px" height="800px" viewBox="0 0 512 512" version="1.1" xml:space="preserve" xmlns="http://www.w3.org/2000/svg" xmlns:xlink="http://www.w3.org/1999/xlink">

<style type="text/css">
	.st0{fill:#16ADE1;}
	.st1{fill:#1B3954;}
</style>

<g id="Layer_1"/>

<g id="Layer_2">

<g>

<g>

<g>

<g>

<path class="st0" d="M291.52,217.27c-3.87,0-7-3.13-7-7v-62.24c0-58.79-47.83-106.62-106.62-106.62       c-58.79,0-106.62,47.83-106.62,106.62v62.24c0,3.87-3.13,7-7,7s-7-3.13-7-7v-62.24c0-66.51,54.11-120.62,120.62-120.62       s120.62,54.11,120.62,120.62v62.24C298.52,214.14,295.39,217.27,291.52,217.27z"/>

</g>

<g>

<path class="st0" d="M311.56,419.28c-3.87,0-7-3.13-7-7v-97.17H148.69v90.17h123.04c3.87,0,7,3.13,7,7s-3.13,7-7,7H141.69       c-3.87,0-7-3.13-7-7V308.11c0-3.87,3.13-7,7-7h169.88c3.87,0,7,3.13,7,7v104.17C318.56,416.15,315.43,419.28,311.56,419.28z"/>

</g>

<g>

<path class="st1" d="M44.25,358.69c-3.87,0-7-3.13-7-7v-65.28c0-3.87,3.13-7,7-7s7,3.13,7,7v65.28       C51.25,355.55,48.11,358.69,44.25,358.69z"/>

</g>

<g>

<path class="st1" d="M44.25,382c-0.46,0-0.92-0.04-1.37-0.13c-0.45-0.09-0.89-0.23-1.31-0.4c-0.42-0.18-0.83-0.39-1.21-0.64       c-0.38-0.26-0.74-0.55-1.07-0.87c-0.32-0.33-0.61-0.69-0.87-1.07c-0.25-0.38-0.46-0.79-0.64-1.21       c-0.17-0.42-0.31-0.86-0.4-1.31c-0.09-0.45-0.13-0.91-0.13-1.36c0-0.46,0.04-0.92,0.13-1.37c0.09-0.45,0.23-0.89,0.4-1.31       c0.18-0.42,0.39-0.83,0.64-1.21c0.26-0.38,0.55-0.74,0.87-1.06c0.33-0.33,0.69-0.62,1.07-0.87c0.38-0.26,0.79-0.47,1.21-0.65       c0.42-0.17,0.86-0.31,1.31-0.4c0.9-0.18,1.83-0.18,2.73,0c0.45,0.09,0.89,0.23,1.31,0.4c0.42,0.18,0.83,0.39,1.21,0.65       c0.38,0.25,0.74,0.54,1.07,0.87c0.32,0.32,0.61,0.68,0.86,1.06c0.26,0.38,0.47,0.79,0.65,1.21c0.17,0.42,0.31,0.86,0.4,1.31       c0.09,0.45,0.14,0.91,0.14,1.37c0,1.84-0.75,3.64-2.05,4.95c-0.33,0.32-0.69,0.61-1.07,0.87c-0.38,0.25-0.79,0.46-1.21,0.64       c-0.42,0.17-0.86,0.31-1.31,0.4C45.16,381.96,44.7,382,44.25,382z"/>

</g>

<g>

<path class="st1" d="M311.57,484.59H44.24c-3.87,0-7-3.13-7-7v-77.56c0-3.87,3.13-7,7-7s7,3.13,7,7v70.56h253.33V257.81       c0-3.87,3.13-7,7-7s7,3.13,7,7v219.78C318.57,481.46,315.44,484.59,311.57,484.59z"/>

</g>

<g>

<path class="st1" d="M326.86,264.81H28.95c-8.52,0-15.45-7.34-15.45-16.36v-28.82c0-9.02,6.93-16.36,15.45-16.36h297.91       c8.52,0,15.45,7.34,15.45,16.36v28.82C342.31,257.47,335.38,264.81,326.86,264.81z M28.95,217.27c-0.59,0-1.45,0.92-1.45,2.36       v28.82c0,1.44,0.86,2.36,1.45,2.36h297.91c0.59,0,1.45-0.92,1.45-2.36v-28.82c0-1.44-0.86-2.36-1.45-2.36H28.95z"/>

</g>

</g>

<g>

<path class="st1" d="M491.5,252.24H371.3c-3.87,0-7-3.13-7-7s3.13-7,7-7h113.2V192.3h-15.99c-1.99,0-3.61,1.62-3.61,3.62v4.43      c0,0.8,0.38,1.62,0.7,2.16c1.77,3.02,2.7,6.45,2.7,9.93c0,5.6-2.39,10.96-6.57,14.69c-4.17,3.74-9.78,5.53-15.38,4.9      c-8.93-1.01-16.03-7.9-17.28-16.77c-0.65-4.56,0.25-9.04,2.62-12.96c0.26-0.43,0.58-1.09,0.58-1.73v-4.66      c0-2-1.62-3.62-3.61-3.62H378.3v28.11c0,3.87-3.13,7-7,7s-7-3.13-7-7V185.3c0-3.87,3.13-7,7-7h57.35      c9.71,0,17.61,7.9,17.61,17.62v4.66c0,3.09-0.87,6.1-2.58,8.95c-0.48,0.79-0.99,2.08-0.75,3.77c0.36,2.51,2.45,4.54,4.97,4.82      c1.67,0.19,3.26-0.32,4.49-1.42c1.23-1.1,1.91-2.61,1.91-4.26c0-1.01-0.26-1.97-0.78-2.85c-1.71-2.92-2.62-6.12-2.62-9.24v-4.43      c0-9.72,7.9-17.62,17.61-17.62h22.99c3.87,0,7,3.13,7,7v59.94C498.5,249.11,495.37,252.24,491.5,252.24z"/>

</g>

<g>

<path class="st1" d="M461.9,484.59h-61c-6.4,0-11.61-5.21-11.61-11.61v-19.12c0-6.4,5.21-11.61,11.61-11.61      c1.27,0,2.31-1.03,2.31-2.31v-23.58c0-3.87,3.13-7,7-7s7,3.13,7,7v23.58c0,8.18-6.05,14.97-13.92,16.13v14.52h56.21v-14.52      c-7.86-1.16-13.92-7.95-13.92-16.13v-107.4c0-14.88,12.11-26.99,26.99-26.99c6.57,0,11.92-5.35,11.92-11.92v-41.4H378.3v41.4      c0,6.57,5.35,11.92,11.92,11.92c14.88,0,26.99,12.11,26.99,26.99v41.69c0,3.87-3.13,7-7,7s-7-3.13-7-7v-41.69      c0-7.16-5.83-12.99-12.99-12.99c-14.29,0-25.92-11.63-25.92-25.92v-48.4c0-3.87,3.13-7,7-7h120.2c3.87,0,7,3.13,7,7v48.4      c0,14.29-11.63,25.92-25.92,25.92c-7.16,0-12.99,5.83-12.99,12.99v107.4c0,1.27,1.03,2.31,2.31,2.31      c6.4,0,11.61,5.21,11.61,11.61v19.12C473.51,479.38,468.3,484.59,461.9,484.59z"/>

</g>

<g>

<path class="st1" d="M410.21,401.79c-1.85,0-3.65-0.75-4.95-2.05c-1.31-1.3-2.05-3.1-2.05-4.95c0-0.45,0.04-0.91,0.13-1.37      c0.09-0.44,0.23-0.88,0.4-1.3c0.18-0.43,0.39-0.83,0.65-1.21c0.25-0.39,0.54-0.74,0.87-1.07c1.62-1.62,4.04-2.37,6.32-1.91      c0.44,0.09,0.88,0.22,1.3,0.4c0.43,0.17,0.83,0.39,1.21,0.64c0.39,0.26,0.74,0.55,1.07,0.87c0.32,0.33,0.61,0.68,0.87,1.07      c0.25,0.38,0.47,0.78,0.64,1.21c0.18,0.42,0.31,0.86,0.4,1.3c0.09,0.46,0.14,0.92,0.14,1.37c0,1.85-0.75,3.65-2.05,4.95      c-0.33,0.32-0.68,0.62-1.07,0.87c-0.38,0.25-0.78,0.47-1.21,0.65c-0.42,0.17-0.86,0.31-1.3,0.4      C411.12,401.75,410.66,401.79,410.21,401.79z"/>

</g>

<g>

<path class="st0" d="M448.54,232.16c-0.73,0-1.46-0.04-2.19-0.12c-8.93-1.01-16.03-7.9-17.28-16.77      c-0.65-4.56,0.25-9.04,2.62-12.96c0.26-0.43,0.58-1.09,0.58-1.73v-4.66c0-2-1.62-3.62-3.61-3.62h-66.8c-3.87,0-7-3.13-7-7      v-18.69c0-9.07,3.82-17.8,10.47-23.96c6.62-6.13,15.57-9.25,24.55-8.55c0.05,0,0.1,0.01,0.16,0.01l0.58,0.05      c6.9,0.6,16.71,3.35,27.11,6.26c11.07,3.1,23.62,6.61,30.31,6.61c4.73,0,14.12-1.04,26.44-2.92c6.03-0.92,12.13,0.83,16.76,4.81      c4.63,3.98,7.28,9.76,7.28,15.86v20.52c0,3.87-3.13,7-7,7h-22.99c-1.99,0-3.61,1.62-3.61,3.62v4.43c0,0.8,0.38,1.62,0.7,2.16      c1.77,3.02,2.7,6.45,2.7,9.93c0,5.6-2.39,10.96-6.57,14.69C458.1,230.38,453.39,232.16,448.54,232.16z M368.85,178.3h59.8      c9.71,0,17.61,7.9,17.61,17.62v4.66c0,3.09-0.87,6.1-2.58,8.95c-0.48,0.79-0.99,2.08-0.75,3.77c0.36,2.51,2.45,4.54,4.97,4.82      c1.67,0.19,3.26-0.32,4.49-1.42c1.23-1.1,1.91-2.61,1.91-4.26c0-1.01-0.26-1.97-0.78-2.85c-1.71-2.92-2.62-6.12-2.62-9.24v-4.43      c0-9.72,7.9-17.62,17.61-17.62h15.99v-13.52c0-2.05-0.85-3.91-2.41-5.24c-1.55-1.33-3.51-1.89-5.52-1.59      c-13.37,2.04-22.98,3.08-28.55,3.08c-8.61,0-21.56-3.62-34.08-7.13c-9.32-2.61-18.96-5.3-24.61-5.8l-0.2-0.02      c-0.13-0.01-0.26-0.02-0.4-0.03c-5.16-0.39-10.09,1.34-13.9,4.87c-3.86,3.57-5.98,8.43-5.98,13.69V178.3z"/>

</g>

</g>

</g>

</g>

</svg>