<?xml version="1.0" ?>


<svg width="800px" height="800px" viewBox="0 0 512 512" version="1.1" xml:space="preserve" xmlns="http://www.w3.org/2000/svg" xmlns:xlink="http://www.w3.org/1999/xlink">

<style type="text/css">
	.st0{fill:#16ADE1;}
	.st1{fill:#1B3954;}
</style>

<g id="Layer_1"/>

<g id="Layer_2">

<g>

<g>

<g>

<path class="st0" d="M413.78,221.73H98.21c-3.15,0-5.91-2.11-6.75-5.14c-1.33-4.85,0.08-10.04,3.68-13.54l11.9-11.55      l-7.82-14.61c-1.74-3.25-2.11-6.99-1.03-10.53c1.08-3.54,3.49-6.44,6.76-8.16l14.66-7.72l-3.39-16.22      c-0.75-3.63-0.05-7.32,1.98-10.4c2.03-3.08,5.14-5.19,8.77-5.93l16.27-3.28l1.32-16.51c0.3-3.7,2.03-7.05,4.85-9.43      c2.82-2.38,6.4-3.51,10.08-3.19l16.5,1.43l5.93-15.48c1.33-3.46,3.92-6.18,7.3-7.67c3.38-1.49,7.14-1.57,10.58-0.23l15.44,6.03      l10.05-13.19c2.24-2.94,5.5-4.83,9.17-5.31c3.67-0.48,7.29,0.5,10.21,2.77l13.11,10.12l13.35-9.82      c2.98-2.19,6.63-3.08,10.27-2.51c3.65,0.57,6.86,2.52,9.04,5.51l9.73,13.43l15.58-5.65c3.46-1.26,7.22-1.1,10.56,0.47      c3.35,1.57,5.88,4.36,7.12,7.85l5.56,15.61l16.54-1.03c3.67-0.23,7.22,0.98,9.99,3.43c2.77,2.46,4.41,5.84,4.62,9.54l0.93,16.54      l16.16,3.66c3.61,0.82,6.67,3,8.63,6.13c1.96,3.13,2.58,6.84,1.75,10.44l-3.77,16.15l14.47,8.07c3.23,1.8,5.56,4.76,6.56,8.32      s0.54,7.29-1.28,10.51l-8.16,14.42l11.62,11.83c1.66,1.68,2.86,3.77,3.46,6.05c0.56,2.1,0.1,4.34-1.22,6.06      S415.95,221.73,413.78,221.73z M407.11,216.72h0.01H407.11z M110.42,207.73h287.87l-2.92-2.97c-4.28-4.36-5.17-11.12-2.17-16.43      l8.14-14.39l-14.43-8.04c-5.34-2.98-8.1-9.22-6.7-15.17l3.75-16.08L367.85,131c-5.97-1.35-10.38-6.56-10.72-12.67l-0.93-16.48      l-16.49,1.02c-6.12,0.4-11.8-3.38-13.84-9.15l-5.53-15.54l-15.53,5.64c-5.74,2.08-12.26,0.08-15.85-4.86l-9.7-13.38l-13.31,9.79      c-4.93,3.62-11.75,3.54-16.58-0.2l-13.07-10.1l-10.01,13.14c-3.71,4.85-10.27,6.69-15.95,4.49l-15.41-6.02l-5.91,15.43      c-2.19,5.71-7.98,9.33-14.06,8.79l-16.45-1.42l-1.32,16.46c-0.49,6.08-5.01,11.18-10.99,12.4l-16.22,3.27l3.38,16.17      c1.24,6-1.67,12.17-7.08,15.01l-14.6,7.69l7.79,14.56c2.87,5.41,1.82,12.14-2.56,16.39L110.42,207.73z"/>

</g>

<g>

<path class="st1" d="M317.14,221.73H194.86c-3.87,0-7-3.13-7-7c0-37.58,30.57-68.15,68.14-68.15s68.14,30.57,68.14,68.15      C324.14,218.6,321.01,221.73,317.14,221.73z M202.31,207.73h107.39c-3.44-26.56-26.21-47.15-53.69-47.15      S205.75,181.17,202.31,207.73z"/>

</g>

<g>

<path class="st0" d="M356.57,202.18c-3.29,0-6.22-2.33-6.86-5.67c-2.6-13.44-7.96-25.93-15.94-37.12      c-2.24-3.15-1.51-7.52,1.63-9.76c3.15-2.25,7.52-1.51,9.76,1.63c9.15,12.83,15.31,27.16,18.29,42.59      c0.73,3.79-1.75,7.47-5.54,8.2C357.46,202.14,357.01,202.18,356.57,202.18z"/>

</g>

<g>

<path class="st0" d="M172.53,162.33c-1.41,0-2.83-0.42-4.06-1.3c-3.15-2.24-3.88-6.62-1.64-9.76      c14.03-19.68,34.45-34.35,57.48-41.31c3.71-1.12,7.61,0.98,8.73,4.68s-0.98,7.61-4.68,8.72c-20.08,6.06-37.88,18.86-50.13,36.03      C176.87,161.31,174.71,162.33,172.53,162.33z"/>

</g>

<g>

<path class="st0" d="M285.66,221.73h-59.32c-3.87,0-7-3.13-7-7c0-20.21,16.45-36.66,36.66-36.66c3.87,0,7,3.13,7,7s-3.13,7-7,7      c-10.05,0-18.6,6.58-21.56,15.66h43.12c-0.66-2.03-1.6-3.96-2.82-5.75c-2.18-3.19-1.35-7.55,1.84-9.73      c3.19-2.18,7.55-1.35,9.73,1.84c4.16,6.1,6.35,13.23,6.35,20.63C292.66,218.6,289.53,221.73,285.66,221.73z"/>

</g>

<g>

<path class="st1" d="M460.28,269.03H51.72c-3.87,0-7-3.13-7-7v-19.68c0-3.87,3.13-7,7-7s7,3.13,7,7v12.68h394.56v-33.29H51.72      c-3.87,0-7-3.13-7-7s3.13-7,7-7h408.56c3.87,0,7,3.13,7,7v47.29C467.28,265.89,464.15,269.03,460.28,269.03z"/>

</g>

<g>

<path class="st1" d="M320.28,461.01c-1.84,0-3.64-0.74-4.95-2.05c-0.32-0.32-0.61-0.68-0.87-1.06      c-0.25-0.38-0.47-0.79-0.64-1.21c-0.18-0.42-0.31-0.86-0.4-1.31c-0.09-0.45-0.14-0.91-0.14-1.37c0-0.45,0.05-0.91,0.14-1.36      c0.09-0.45,0.22-0.89,0.4-1.31c0.17-0.43,0.39-0.83,0.64-1.21c0.26-0.39,0.55-0.74,0.87-1.07c0.32-0.32,0.68-0.61,1.07-0.87      c0.37-0.25,0.78-0.47,1.2-0.64c0.43-0.18,0.87-0.31,1.31-0.4c0.91-0.18,1.84-0.18,2.74,0c0.45,0.09,0.89,0.22,1.31,0.4      c0.42,0.17,0.83,0.39,1.21,0.64c0.38,0.26,0.74,0.55,1.06,0.87c0.32,0.33,0.62,0.68,0.87,1.07c0.25,0.38,0.47,0.78,0.64,1.21      c0.18,0.42,0.31,0.86,0.4,1.31c0.09,0.45,0.14,0.91,0.14,1.36c0,0.46-0.05,0.92-0.14,1.37c-0.09,0.45-0.22,0.89-0.4,1.31      c-0.17,0.42-0.39,0.83-0.64,1.21c-0.25,0.38-0.55,0.74-0.87,1.06c-0.32,0.33-0.68,0.62-1.06,0.87      c-0.38,0.26-0.79,0.47-1.21,0.65c-0.42,0.17-0.86,0.31-1.31,0.4C321.2,460.97,320.74,461.01,320.28,461.01z"/>

</g>

<g>

<g>

<path class="st0" d="M88.86,300h-55.8c-3.87,0-7-3.13-7-7s3.13-7,7-7h55.8c3.87,0,7,3.13,7,7S92.73,300,88.86,300z"/>

</g>

<g>

<path class="st0" d="M88.86,332.51h-55.8c-3.87,0-7-3.13-7-7s3.13-7,7-7h55.8c3.87,0,7,3.13,7,7S92.73,332.51,88.86,332.51z"/>

</g>

<g>

<path class="st0" d="M88.86,365.02h-55.8c-3.87,0-7-3.13-7-7s3.13-7,7-7h55.8c3.87,0,7,3.13,7,7S92.73,365.02,88.86,365.02z"/>

</g>

<g>

<path class="st0" d="M88.86,397.53h-55.8c-3.87,0-7-3.13-7-7s3.13-7,7-7h55.8c3.87,0,7,3.13,7,7S92.73,397.53,88.86,397.53z"/>

</g>

<g>

<path class="st0" d="M88.86,430.05h-55.8c-3.87,0-7-3.13-7-7s3.13-7,7-7h55.8c3.87,0,7,3.13,7,7S92.73,430.05,88.86,430.05z"/>

</g>

</g>

<g>

<g>

<path class="st0" d="M478.94,300h-55.8c-3.87,0-7-3.13-7-7s3.13-7,7-7h55.8c3.87,0,7,3.13,7,7S482.81,300,478.94,300z"/>

</g>

<g>

<path class="st0" d="M478.94,332.51h-55.8c-3.87,0-7-3.13-7-7s3.13-7,7-7h55.8c3.87,0,7,3.13,7,7S482.81,332.51,478.94,332.51z       "/>

</g>

<g>

<path class="st0" d="M478.94,365.02h-55.8c-3.87,0-7-3.13-7-7s3.13-7,7-7h55.8c3.87,0,7,3.13,7,7S482.81,365.02,478.94,365.02z       "/>

</g>

<g>

<path class="st0" d="M478.94,397.53h-55.8c-3.87,0-7-3.13-7-7s3.13-7,7-7h55.8c3.87,0,7,3.13,7,7S482.81,397.53,478.94,397.53z       "/>

</g>

<g>

<path class="st0" d="M478.94,430.05h-55.8c-3.87,0-7-3.13-7-7s3.13-7,7-7h55.8c3.87,0,7,3.13,7,7S482.81,430.05,478.94,430.05z       "/>

</g>

</g>

<g>

<path class="st1" d="M478.94,461.01h-121.5c-3.87,0-7-3.13-7-7s3.13-7,7-7h114.5V269.03H40.06v177.99h243.06c3.87,0,7,3.13,7,7      s-3.13,7-7,7H33.06c-3.87,0-7-3.13-7-7V262.03c0-3.87,3.13-7,7-7h445.88c3.87,0,7,3.13,7,7v191.99      C485.94,457.88,482.81,461.01,478.94,461.01z"/>

</g>

</g>

</g>

</g>

</svg>