<?xml version="1.0" ?>


<svg width="800px" height="800px" viewBox="0 0 512 512" version="1.1" xml:space="preserve" xmlns="http://www.w3.org/2000/svg" xmlns:xlink="http://www.w3.org/1999/xlink">

<style type="text/css">
	.st0{fill:#16ADE1;}
	.st1{fill:#1B3954;}
</style>

<g id="Layer_1"/>

<g id="Layer_2">

<g>

<g>

<g>

<path class="st0" d="M176,97.88H82.43c-3.87,0-7-3.13-7-7V72.73c0-9.24,6.54-17.27,15.56-19.08      c26.05-5.24,51.76-5.29,76.42-0.14C176.44,55.4,183,63.43,183,72.6v18.27C183,94.74,179.86,97.88,176,97.88z M89.43,83.88H169      V72.6c0-2.62-1.83-4.83-4.45-5.38c-22.79-4.76-46.61-4.71-70.8,0.16c-2.5,0.5-4.32,2.76-4.32,5.36V83.88z"/>

</g>

<g>

<path class="st1" d="M155.98,301.71c-4.17,0-8.34-0.52-12.38-1.53c-3.75-0.94-6.02-4.75-5.08-8.5c0.94-3.75,4.74-6.02,8.5-5.08      c2.93,0.74,5.94,1.11,8.96,1.11c13.23,0,25.47-7.18,31.93-18.74c1.89-3.37,6.15-4.58,9.53-2.69c3.37,1.89,4.58,6.15,2.69,9.53      C191.19,291.78,174.28,301.71,155.98,301.71z"/>

</g>

<g>

<path class="st1" d="M336.5,211.45h-43.59c-3.87,0-7-3.13-7-7v-66.87c0-3.87,3.13-7,7-7h43.59c3.87,0,7,3.13,7,7v66.87      C343.5,208.32,340.36,211.45,336.5,211.45z M299.91,197.45h29.59v-52.87h-29.59V197.45z"/>

</g>

<g>

<g>

<path class="st0" d="M93.35,203.63c-3.87,0-7-3.13-7-7V145.4c0-3.87,3.13-7,7-7s7,3.13,7,7v51.23       C100.35,200.5,97.22,203.63,93.35,203.63z"/>

</g>

<g>

<path class="st0" d="M129.22,203.63c-3.87,0-7-3.13-7-7V145.4c0-3.87,3.13-7,7-7s7,3.13,7,7v51.23       C136.22,200.5,133.08,203.63,129.22,203.63z"/>

</g>

<g>

<path class="st0" d="M165.08,203.63c-3.87,0-7-3.13-7-7V145.4c0-3.87,3.13-7,7-7s7,3.13,7,7v51.23       C172.08,200.5,168.94,203.63,165.08,203.63z"/>

</g>

</g>

<g>

<path class="st1" d="M454.54,192.22H336.5c-3.87,0-7-3.13-7-7v-28.4c0-3.87,3.13-7,7-7h118.04c0.86,0,1.71,0.16,2.51,0.47      l36.96,14.2c2.7,1.04,4.49,3.64,4.49,6.53s-1.79,5.5-4.49,6.53l-36.96,14.2C456.25,192.06,455.4,192.22,454.54,192.22z       M343.5,178.22h109.74l18.74-7.2l-18.74-7.2H343.5V178.22z"/>

</g>

<g>

<path class="st0" d="M360.03,204.56c-0.8,0-1.62-0.14-2.41-0.43c-3.63-1.33-5.49-5.35-4.16-8.98l20.81-56.73      c1.33-3.63,5.35-5.49,8.98-4.16c3.63,1.33,5.49,5.35,4.16,8.98l-20.81,56.73C365.56,202.8,362.88,204.56,360.03,204.56z"/>

</g>

<g>

<path class="st0" d="M389.61,206.19c-0.8,0-1.62-0.14-2.41-0.43c-3.63-1.33-5.49-5.35-4.16-8.98l20.81-56.73      c1.33-3.63,5.35-5.49,8.98-4.16c3.63,1.33,5.49,5.35,4.16,8.98l-20.81,56.73C395.14,204.43,392.46,206.19,389.61,206.19z"/>

</g>

<g>

<path class="st0" d="M419.19,207.82c-0.8,0-1.61-0.14-2.41-0.43c-3.63-1.33-5.49-5.35-4.16-8.98l20.81-56.73      c1.33-3.63,5.35-5.49,8.98-4.16c3.63,1.33,5.49,5.35,4.16,8.98l-20.81,56.73C424.72,206.06,422.04,207.82,419.19,207.82z"/>

</g>

<g>

<path class="st0" d="M118.78,405.44h-79.9c-2.13,0-4.14-0.97-5.46-2.62c-1.33-1.66-1.83-3.83-1.37-5.91L58.3,279.74      c0.84-3.77,4.59-6.15,8.36-5.3c3.77,0.85,6.15,4.59,5.3,8.36L47.62,391.44h65.71l33.66-133.28h-70.9c-3.87,0-7-3.13-7-7      s3.13-7,7-7h79.89c2.16,0,4.2,1,5.52,2.7c1.33,1.7,1.79,3.92,1.26,6.02l-37.2,147.28C124.78,403.26,121.99,405.44,118.78,405.44      z"/>

</g>

<g>

<path class="st1" d="M235.53,258.16H67.22c-20.21,0-36.65-16.44-36.65-36.65v-50.49c0-3.87,3.13-7,7-7s7,3.13,7,7v50.49      c0,12.49,10.16,22.65,22.65,22.65h168.31c12.94,0,25.24-4.9,34.64-13.8c5-4.73,8.91-10.34,11.63-16.67      c2.72-6.32,4.1-13.01,4.1-19.9v-45.56c0-13.77-5.74-27.1-15.74-36.57c-9.4-8.9-21.7-13.8-34.64-13.8H67.38      c-12.58,0-22.81,10.23-22.81,22.81c0,3.87-3.13,7-7,7s-7-3.13-7-7c0-20.3,16.51-36.81,36.81-36.81h168.16      c16.53,0,32.25,6.26,44.27,17.63c12.78,12.11,20.11,29.14,20.11,46.73v45.56c0,8.8-1.76,17.36-5.24,25.43      c-3.48,8.09-8.48,15.26-14.87,21.3C267.79,251.9,252.07,258.16,235.53,258.16z"/>

</g>

<g>

<path class="st1" d="M37.57,151.35c-1.85,0-3.65-0.75-4.95-2.05c-1.31-1.31-2.05-3.11-2.05-4.95c0-0.46,0.04-0.92,0.13-1.37      c0.09-0.45,0.23-0.89,0.4-1.31c0.18-0.42,0.39-0.83,0.65-1.21c0.25-0.38,0.54-0.74,0.87-1.07c1.3-1.3,3.1-2.04,4.95-2.04      c1.84,0,3.64,0.74,4.95,2.04c0.32,0.33,0.61,0.69,0.87,1.07c0.25,0.38,0.46,0.79,0.64,1.21c0.17,0.42,0.31,0.86,0.4,1.31      c0.09,0.45,0.14,0.91,0.14,1.37c0,1.84-0.75,3.64-2.05,4.95C41.21,150.6,39.41,151.35,37.57,151.35z"/>

</g>

<g>

<path class="st1" d="M199.53,258.16h-43.55c-3.87,0-7-3.13-7-7s3.13-7,7-7h43.55c3.87,0,7,3.13,7,7S203.4,258.16,199.53,258.16z      "/>

</g>

<g>

<path class="st1" d="M228.91,172.42c-14.61,0-26.5-11.89-26.5-26.5c0-14.61,11.89-26.5,26.5-26.5c14.61,0,26.5,11.89,26.5,26.5      C255.42,160.53,243.53,172.42,228.91,172.42z M228.91,133.42c-6.89,0-12.5,5.61-12.5,12.5c0,6.89,5.61,12.5,12.5,12.5      c6.89,0,12.5-5.61,12.5-12.5C241.42,139.02,235.81,133.42,228.91,133.42z"/>

</g>

<g>

<path class="st1" d="M228.91,224.73c-3.87,0-7-3.13-7-7v-52.31c0-3.87,3.13-7,7-7s7,3.13,7,7v52.31      C235.91,221.6,232.78,224.73,228.91,224.73z"/>

</g>

<g>

<path class="st1" d="M73.98,430.1c13.58,0,20.8,5.94,26.6,10.71c1.68,1.38,3.27,2.69,4.93,3.8c2.74,1.84,6.39,3.71,12.78,3.71      c6.4,0,10.05-1.88,12.78-3.71c1.66-1.11,3.24-2.42,4.92-3.8c5.8-4.77,13.02-10.72,26.61-10.72c13.58,0,20.8,5.94,26.6,10.7      l0.41,0.34c0.79,0.65,1.65,0.4,1.98,0.25c0.87-0.37,0.92-1,0.93-1.2c0.01-0.12,0.01-0.19,0.01-0.27v-30.96      c0-1.94-1.58-3.52-3.52-3.52h-158c-1.94,0-3.52,1.58-3.52,3.52v30.95c0,1.94,1.58,3.52,3.52,3.52c7.93,0,15.35-2.28,21.45-6.59      C56.9,433.7,63.35,430.1,73.98,430.1z M118.29,462.33c-7.85,0-14.39-1.94-20.58-6.09c-2.23-1.49-4.16-3.08-6.02-4.62      c-5.11-4.2-9.15-7.52-17.71-7.52c-6.62,0-10.37,2-13.43,4.17c-8.48,5.99-18.69,9.16-29.53,9.16c-9.66,0-17.52-7.86-17.52-17.52      v-30.95c0-9.66,7.86-17.52,17.52-17.52h158c9.66,0,17.52,7.86,17.52,17.52v30.96c0,0.47-0.02,0.92-0.05,1.37      c-0.43,5.71-4.03,10.7-9.4,12.99c-5.5,2.35-11.77,1.46-16.36-2.32l-0.41-0.34c-5.31-4.36-9.14-7.52-17.71-7.52      c-8.57,0-12.4,3.16-17.71,7.52c-1.86,1.53-3.79,3.12-6.01,4.61C132.69,460.39,126.15,462.33,118.29,462.33z"/>

</g>

</g>

</g>

</g>

</svg>