<?xml version="1.0" ?>


<svg width="800px" height="800px" viewBox="0 0 512 512" version="1.1" xml:space="preserve" xmlns="http://www.w3.org/2000/svg" xmlns:xlink="http://www.w3.org/1999/xlink">

<style type="text/css">
	.st0{fill:#16ADE1;}
	.st1{fill:#1B3954;}
</style>

<g id="Layer_1"/>

<g id="Layer_2">

<g>

<g>

<g>

<path class="st0" d="M426.05,335.01H318.76c-3.3,0-6.16-2.31-6.85-5.54c-18.24-85.45-91.95-147.45-179.25-150.78      c-3.86-0.15-6.88-3.4-6.73-7.26c0.15-3.86,3.42-6.86,7.26-6.73c45.51,1.73,89.73,18.97,124.54,48.54      c32.95,28,56.46,66.09,66.6,107.77h93.59c-9.97-61.29-38.54-116.92-82.96-161.32c-56-56.01-130.46-86.85-209.68-86.85h-21.72      v98.72c0,3.87-3.13,7-7,7s-7-3.13-7-7V65.83c0-3.87,3.13-7,7-7h28.72c82.96,0,160.94,32.3,219.58,90.95      c48.51,48.5,78.98,109.8,88.11,177.29c0.27,2-0.34,4.02-1.67,5.54C429.99,334.13,428.07,335.01,426.05,335.01z"/>

</g>

<g>

<path class="st1" d="M86.34,211.25H33.31c-9.66,0-17.23-6.08-17.23-13.85V29.52c0-7.77,7.57-13.85,17.23-13.85h53.03      c9.66,0,17.23,6.08,17.23,13.85V197.4C103.58,205.17,96.01,211.25,86.34,211.25z M30.08,196.5c0.56,0.33,1.68,0.75,3.23,0.75      h53.03c1.55,0,2.68-0.42,3.23-0.75V30.42c-0.56-0.33-1.68-0.75-3.23-0.75H33.31c-1.55,0-2.68,0.42-3.23,0.75V196.5z"/>

</g>

<g>

<path class="st1" d="M254.43,134.22c-1.11,0-2.25-0.27-3.3-0.83c-27.81-14.88-57.83-24.59-89.25-28.86      c-3.83-0.52-6.51-4.05-5.99-7.88s4.05-6.51,7.88-5.99c33.07,4.5,64.68,14.72,93.96,30.38c3.41,1.82,4.69,6.07,2.87,9.47      C259.35,132.88,256.93,134.22,254.43,134.22z"/>

</g>

<g>

<path class="st1" d="M481.22,397.03H267.49c-8.11,0-14.72-6.6-14.72-14.7v-46.62c0-8.11,6.6-14.7,14.72-14.7h213.73      c8.11,0,14.7,6.6,14.7,14.7v46.62C495.92,390.43,489.32,397.03,481.22,397.03z M267.49,335.01c-0.39,0-0.72,0.32-0.72,0.7v46.62      c0,0.39,0.31,0.7,0.72,0.7h213.73c0.39,0,0.7-0.32,0.7-0.7v-46.62c0-0.39-0.32-0.7-0.7-0.7H267.49z"/>

</g>

<g>

<path class="st1" d="M456.86,496.32H291.85c-3.87,0-7-3.13-7-7v-99.29c0-3.87,3.13-7,7-7h165.01c3.87,0,7,3.13,7,7v20.68      c0,3.87-3.13,7-7,7s-7-3.13-7-7v-13.68H298.85v85.29h151.01v-15.34c0-3.87,3.13-7,7-7s7,3.13,7,7v22.34      C463.86,493.19,460.72,496.32,456.86,496.32z"/>

</g>

<g>

<path class="st1" d="M456.86,446.67c-0.46,0-0.92-0.04-1.37-0.13c-0.45-0.09-0.89-0.23-1.31-0.4c-0.42-0.18-0.83-0.39-1.21-0.64      c-0.38-0.26-0.74-0.55-1.06-0.87c-0.33-0.33-0.62-0.69-0.87-1.07c-0.26-0.38-0.47-0.78-0.65-1.21c-0.17-0.42-0.31-0.86-0.4-1.31      c-0.09-0.45-0.13-0.91-0.13-1.36c0-0.46,0.04-0.92,0.13-1.37c0.09-0.45,0.23-0.89,0.4-1.31c0.18-0.42,0.39-0.83,0.65-1.21      c0.25-0.38,0.54-0.74,0.87-1.06c0.32-0.33,0.68-0.62,1.06-0.87c0.38-0.26,0.79-0.47,1.21-0.65c0.42-0.17,0.86-0.31,1.31-0.4      c0.9-0.18,1.83-0.18,2.73,0c0.45,0.09,0.89,0.23,1.31,0.4c0.43,0.18,0.83,0.39,1.21,0.65c0.39,0.25,0.74,0.54,1.07,0.87      c0.32,0.32,0.61,0.68,0.87,1.06c0.25,0.38,0.46,0.79,0.64,1.21s0.31,0.86,0.4,1.31c0.09,0.45,0.14,0.91,0.14,1.37      c0,0.45-0.05,0.91-0.14,1.36c-0.09,0.45-0.22,0.89-0.4,1.31c-0.18,0.43-0.39,0.83-0.64,1.21c-0.26,0.38-0.55,0.74-0.87,1.07      c-0.33,0.32-0.69,0.61-1.07,0.87c-0.38,0.25-0.78,0.46-1.21,0.64c-0.42,0.17-0.86,0.31-1.31,0.4      C457.77,446.63,457.31,446.67,456.86,446.67z"/>

</g>

<g>

<g>

<path class="st0" d="M292.81,363.53c-0.46,0-0.92-0.04-1.37-0.13c-0.44-0.09-0.88-0.23-1.31-0.4c-0.42-0.18-0.83-0.4-1.21-0.65       s-0.74-0.55-1.06-0.87c-0.32-0.32-0.61-0.68-0.87-1.06c-0.25-0.38-0.47-0.79-0.64-1.21c-0.18-0.42-0.31-0.86-0.4-1.31       c-0.09-0.45-0.14-0.91-0.14-1.37c0-0.45,0.05-0.91,0.14-1.37c0.09-0.44,0.22-0.88,0.4-1.31c0.17-0.42,0.39-0.83,0.64-1.2       c0.26-0.39,0.55-0.75,0.87-1.07c1.3-1.3,3.11-2.05,4.95-2.05c1.84,0,3.65,0.75,4.95,2.05c1.3,1.31,2.05,3.11,2.05,4.95       c0,0.46-0.05,0.92-0.14,1.37c-0.09,0.45-0.22,0.89-0.4,1.31c-0.17,0.42-0.39,0.83-0.64,1.21c-0.26,0.38-0.55,0.74-0.87,1.06       c-0.32,0.32-0.68,0.62-1.06,0.87c-0.38,0.25-0.79,0.47-1.21,0.65c-0.43,0.17-0.87,0.31-1.31,0.4       C293.73,363.49,293.27,363.53,292.81,363.53z"/>

</g>

<g>

<path class="st0" d="M325.42,363.53c-0.45,0-0.91-0.04-1.36-0.13c-0.45-0.09-0.89-0.23-1.31-0.4c-0.43-0.18-0.83-0.4-1.21-0.65       c-0.38-0.25-0.74-0.55-1.07-0.87c-0.32-0.32-0.61-0.68-0.87-1.06c-0.25-0.38-0.46-0.79-0.64-1.21       c-0.17-0.42-0.31-0.86-0.4-1.31c-0.09-0.45-0.13-0.91-0.13-1.37c0-0.45,0.04-0.91,0.13-1.37c0.09-0.44,0.23-0.88,0.4-1.31       c0.18-0.42,0.39-0.83,0.64-1.2c0.26-0.39,0.55-0.75,0.87-1.07c0.33-0.32,0.69-0.61,1.07-0.87c0.38-0.25,0.78-0.47,1.21-0.64       c0.42-0.18,0.86-0.31,1.31-0.4c0.9-0.18,1.83-0.18,2.73,0c0.45,0.09,0.89,0.22,1.31,0.4c0.42,0.17,0.83,0.39,1.21,0.64       c0.38,0.26,0.74,0.55,1.06,0.87c0.33,0.32,0.62,0.68,0.87,1.07c0.26,0.37,0.47,0.78,0.65,1.2c0.17,0.43,0.31,0.87,0.4,1.31       c0.09,0.46,0.13,0.92,0.13,1.37c0,0.46-0.04,0.92-0.13,1.37c-0.09,0.45-0.23,0.89-0.4,1.31c-0.18,0.42-0.39,0.83-0.65,1.21       c-0.25,0.38-0.54,0.74-0.87,1.06c-0.32,0.32-0.68,0.62-1.06,0.87c-0.38,0.25-0.79,0.47-1.21,0.65       c-0.42,0.17-0.86,0.31-1.31,0.4C326.34,363.49,325.88,363.53,325.42,363.53z"/>

</g>

<g>

<path class="st0" d="M358.04,363.53c-1.84,0-3.65-0.75-4.95-2.05c-0.32-0.32-0.62-0.68-0.87-1.06s-0.47-0.79-0.64-1.21       c-0.18-0.42-0.31-0.86-0.4-1.31c-0.09-0.45-0.14-0.91-0.14-1.37c0-0.45,0.05-0.91,0.14-1.37c0.09-0.44,0.22-0.88,0.4-1.31       c0.17-0.42,0.39-0.83,0.64-1.2c0.25-0.39,0.55-0.75,0.87-1.07c0.32-0.32,0.68-0.61,1.06-0.87c0.38-0.25,0.79-0.47,1.21-0.64       c0.42-0.18,0.86-0.31,1.31-0.4c0.9-0.18,1.83-0.18,2.74,0c0.44,0.09,0.88,0.22,1.31,0.4c0.42,0.17,0.83,0.39,1.2,0.64       c0.39,0.26,0.75,0.55,1.07,0.87c0.32,0.32,0.61,0.68,0.87,1.07c0.25,0.37,0.47,0.78,0.64,1.2c0.18,0.43,0.31,0.87,0.4,1.31       c0.09,0.46,0.14,0.92,0.14,1.37c0,0.46-0.05,0.92-0.14,1.37c-0.09,0.45-0.22,0.89-0.4,1.31c-0.17,0.42-0.39,0.83-0.64,1.21       c-0.26,0.38-0.55,0.74-0.87,1.06C361.69,362.78,359.88,363.53,358.04,363.53z"/>

</g>

<g>

<path class="st0" d="M390.65,363.53c-0.45,0-0.91-0.04-1.36-0.13c-0.45-0.09-0.89-0.23-1.31-0.4c-0.43-0.18-0.83-0.4-1.21-0.65       c-0.39-0.25-0.74-0.55-1.07-0.87c-0.32-0.32-0.61-0.68-0.87-1.06c-0.25-0.38-0.47-0.79-0.64-1.21s-0.31-0.86-0.4-1.31       c-0.09-0.45-0.14-0.91-0.14-1.37c0-0.45,0.05-0.91,0.14-1.37c0.09-0.44,0.23-0.88,0.4-1.31c0.18-0.42,0.39-0.83,0.64-1.2       c0.26-0.39,0.55-0.75,0.87-1.07c0.33-0.32,0.68-0.61,1.07-0.87c0.38-0.25,0.78-0.47,1.21-0.64c0.42-0.18,0.86-0.31,1.31-0.4       c0.9-0.18,1.83-0.18,2.73,0c0.45,0.09,0.89,0.22,1.31,0.4c0.42,0.17,0.83,0.39,1.21,0.64c0.38,0.26,0.74,0.55,1.06,0.87       c0.33,0.32,0.62,0.68,0.87,1.07c0.26,0.37,0.47,0.78,0.65,1.2c0.17,0.43,0.31,0.87,0.4,1.31c0.09,0.46,0.13,0.92,0.13,1.37       c0,0.46-0.04,0.92-0.13,1.37c-0.09,0.45-0.23,0.89-0.4,1.31c-0.18,0.42-0.39,0.83-0.65,1.21c-0.25,0.38-0.54,0.74-0.87,1.06       c-0.32,0.32-0.68,0.62-1.06,0.87c-0.38,0.25-0.79,0.47-1.21,0.65c-0.42,0.17-0.86,0.31-1.31,0.4       C391.57,363.49,391.11,363.53,390.65,363.53z"/>

</g>

<g>

<path class="st0" d="M423.27,363.53c-0.46,0-0.92-0.04-1.37-0.13c-0.45-0.09-0.89-0.23-1.31-0.4c-0.42-0.18-0.83-0.4-1.21-0.65       s-0.74-0.55-1.06-0.87c-0.32-0.32-0.62-0.68-0.87-1.06s-0.47-0.79-0.65-1.21c-0.17-0.42-0.3-0.86-0.39-1.31       c-0.1-0.45-0.14-0.91-0.14-1.37c0-0.45,0.04-0.91,0.14-1.37c0.09-0.44,0.22-0.88,0.39-1.31c0.18-0.42,0.4-0.83,0.65-1.2       c0.25-0.39,0.55-0.75,0.87-1.07c0.32-0.32,0.68-0.61,1.06-0.87c0.38-0.25,0.79-0.47,1.21-0.64c0.42-0.18,0.86-0.31,1.31-0.4       c2.28-0.46,4.69,0.29,6.32,1.91c1.3,1.31,2.05,3.11,2.05,4.95c0,0.46-0.05,0.92-0.14,1.37c-0.09,0.45-0.22,0.89-0.4,1.31       c-0.17,0.42-0.39,0.83-0.64,1.21c-0.26,0.38-0.55,0.74-0.87,1.06c-0.33,0.32-0.68,0.62-1.07,0.87       c-0.38,0.25-0.78,0.47-1.2,0.65c-0.43,0.17-0.87,0.31-1.31,0.4C424.19,363.49,423.73,363.53,423.27,363.53z"/>

</g>

<g>

<path class="st0" d="M455.88,363.53c-1.84,0-3.64-0.75-4.95-2.05c-0.32-0.32-0.61-0.68-0.87-1.06       c-0.25-0.38-0.47-0.79-0.64-1.21c-0.18-0.42-0.31-0.86-0.4-1.31c-0.09-0.45-0.14-0.91-0.14-1.37c0-0.45,0.05-0.91,0.14-1.37       c0.09-0.44,0.22-0.88,0.4-1.31c0.17-0.42,0.39-0.83,0.64-1.2c0.26-0.39,0.55-0.75,0.87-1.07c1.63-1.62,4.05-2.37,6.32-1.91       c0.45,0.09,0.89,0.22,1.31,0.4c0.42,0.17,0.83,0.39,1.21,0.64c0.38,0.26,0.74,0.55,1.06,0.87c0.33,0.32,0.62,0.68,0.87,1.07       c0.26,0.37,0.47,0.78,0.65,1.2c0.17,0.43,0.31,0.87,0.4,1.31c0.09,0.46,0.13,0.92,0.13,1.37c0,0.46-0.04,0.92-0.13,1.37       c-0.09,0.45-0.23,0.89-0.4,1.31c-0.18,0.42-0.39,0.83-0.65,1.21c-0.25,0.38-0.54,0.74-0.87,1.06       c-0.32,0.32-0.68,0.62-1.06,0.87c-0.38,0.25-0.79,0.47-1.21,0.65c-0.42,0.17-0.86,0.31-1.31,0.4       C456.8,363.49,456.34,363.53,455.88,363.53z"/>

</g>

</g>

<g>

<g>

<path class="st0" d="M59.83,76.53c-0.46,0-0.92-0.05-1.37-0.14c-0.45-0.09-0.89-0.22-1.31-0.4c-0.42-0.17-0.83-0.39-1.21-0.64       c-0.38-0.26-0.74-0.55-1.06-0.87c-1.3-1.3-2.05-3.11-2.05-4.95c0-0.46,0.05-0.92,0.14-1.37c0.09-0.44,0.22-0.89,0.4-1.31       c0.17-0.42,0.39-0.83,0.64-1.21c0.25-0.38,0.55-0.74,0.87-1.06c0.32-0.32,0.68-0.62,1.06-0.87s0.79-0.47,1.21-0.64       c0.42-0.18,0.86-0.31,1.31-0.4c2.28-0.46,4.69,0.28,6.32,1.91c1.3,1.3,2.05,3.11,2.05,4.95s-0.75,3.65-2.05,4.95       C63.48,75.78,61.67,76.53,59.83,76.53z"/>

</g>

<g>

<path class="st0" d="M59.83,120.46c-0.46,0-0.92-0.04-1.37-0.13c-0.45-0.09-0.89-0.23-1.31-0.4c-0.42-0.18-0.83-0.4-1.21-0.65       s-0.74-0.55-1.06-0.87c-1.3-1.3-2.05-3.11-2.05-4.95c0-1.84,0.75-3.64,2.05-4.95c0.32-0.32,0.68-0.61,1.06-0.87       c0.38-0.25,0.79-0.47,1.21-0.64c0.42-0.18,0.86-0.31,1.31-0.4c0.9-0.18,1.83-0.18,2.74,0c0.44,0.09,0.88,0.22,1.31,0.4       c0.42,0.17,0.82,0.39,1.2,0.64c0.39,0.26,0.75,0.55,1.07,0.87c1.3,1.31,2.05,3.11,2.05,4.95c0,1.84-0.75,3.65-2.05,4.95       c-0.32,0.32-0.68,0.62-1.07,0.87c-0.38,0.25-0.78,0.47-1.2,0.65c-0.43,0.17-0.87,0.31-1.31,0.4       C60.75,120.42,60.29,120.46,59.83,120.46z"/>

</g>

<g>

<path class="st0" d="M59.83,164.4c-0.46,0-0.92-0.05-1.37-0.14c-0.45-0.09-0.89-0.23-1.31-0.4c-0.42-0.18-0.83-0.39-1.21-0.64       c-0.38-0.26-0.74-0.55-1.06-0.87c-1.3-1.31-2.05-3.11-2.05-4.95c0-1.85,0.75-3.65,2.05-4.95c1.3-1.31,3.11-2.05,4.95-2.05       c1.84,0,3.64,0.74,4.95,2.05c0.32,0.32,0.61,0.68,0.87,1.06c0.25,0.38,0.47,0.79,0.64,1.21c0.18,0.42,0.31,0.86,0.4,1.31       s0.14,0.91,0.14,1.37c0,0.45-0.05,0.91-0.14,1.36c-0.09,0.45-0.22,0.89-0.4,1.31c-0.17,0.43-0.39,0.83-0.64,1.21       c-0.26,0.39-0.55,0.74-0.87,1.07c-0.32,0.32-0.68,0.61-1.07,0.87c-0.38,0.25-0.78,0.46-1.2,0.64c-0.43,0.17-0.87,0.31-1.31,0.4       C60.74,164.35,60.28,164.4,59.83,164.4z"/>

</g>

</g>

</g>

</g>

</g>

</svg>