<?xml version="1.0" ?>


<svg width="800px" height="800px" viewBox="0 0 512 512" version="1.1" xml:space="preserve" xmlns="http://www.w3.org/2000/svg" xmlns:xlink="http://www.w3.org/1999/xlink">

<style type="text/css">
	.st0{fill:#16ADE1;}
	.st1{fill:#1B3954;}
</style>

<g id="Layer_1"/>

<g id="Layer_2">

<g>

<g>

<g>

<path class="st1" d="M203.17,114.95c-1.26,0-2.54-0.34-3.69-1.06c-16.59-10.32-33.63-17.58-50.62-21.59      c-3.76-0.89-6.09-4.66-5.21-8.42c0.89-3.76,4.66-6.09,8.42-5.21c18.47,4.36,36.91,12.21,54.8,23.33      c3.28,2.04,4.29,6.36,2.25,9.64C207.8,113.77,205.51,114.95,203.17,114.95z"/>

</g>

<g>

<path class="st1" d="M103.82,284.96c-0.46,0-0.92-0.05-1.37-0.14c-0.44-0.09-0.88-0.22-1.31-0.4c-0.42-0.17-0.83-0.39-1.21-0.64      c-0.38-0.26-0.74-0.55-1.06-0.87c-1.3-1.3-2.05-3.11-2.05-4.95c0-0.46,0.05-0.92,0.14-1.37c0.09-0.44,0.22-0.89,0.4-1.31      c0.17-0.42,0.39-0.83,0.64-1.21c0.25-0.38,0.55-0.74,0.87-1.06c0.32-0.32,0.68-0.62,1.06-0.87c0.38-0.25,0.79-0.47,1.21-0.64      c0.43-0.18,0.87-0.31,1.31-0.4c2.28-0.46,4.7,0.28,6.32,1.91c0.32,0.32,0.61,0.68,0.87,1.06c0.25,0.38,0.47,0.79,0.64,1.21      c0.18,0.42,0.31,0.87,0.4,1.31c0.09,0.45,0.14,0.91,0.14,1.37c0,1.84-0.75,3.65-2.05,4.95      C107.47,284.21,105.66,284.96,103.82,284.96z"/>

</g>

<g>

<path class="st0" d="M126.31,262.47c-1.79,0-3.58-0.68-4.95-2.05c-2.73-2.73-2.73-7.17,0-9.9l138.11-138.11      c2.73-2.73,7.17-2.73,9.9,0c2.73,2.73,2.73,7.17,0,9.9L131.26,260.42C129.9,261.78,128.1,262.47,126.31,262.47z"/>

</g>

<g>

<path class="st1" d="M71.63,423.42H36.42c-3.87,0-7-3.13-7-7v-35.28c0-3.87,3.13-7,7-7h55.17c3.14,0,5.9,2.1,6.74,5.13      c0.84,3.03-0.44,6.25-3.13,7.87c-10.38,6.25-16.57,17.19-16.57,29.28C78.63,420.29,75.5,423.42,71.63,423.42z M43.42,409.42      h21.73c1.15-7.72,4.17-15.02,8.71-21.28H43.42V409.42z"/>

</g>

<g>

<path class="st1" d="M491.5,423.42h-25.6c-3.87,0-7-3.13-7-7c0-18.83-15.32-34.16-34.15-34.16c-18.83,0-34.16,15.32-34.16,34.16      c0,3.87-3.13,7-7,7H153.94c-3.87,0-7-3.13-7-7c0-12.09-6.19-23.04-16.57-29.28c-2.69-1.62-3.98-4.84-3.13-7.87      c0.84-3.03,3.6-5.13,6.74-5.13h217.02v-67.22c0-3.87,3.13-7,7-7s7,3.13,7,7v74.22c0,3.87-3.13,7-7,7H151.72      c4.53,6.26,7.55,13.56,8.71,21.28h216.69c3.4-23.25,23.47-41.16,47.65-41.16c24.17,0,44.24,17.91,47.64,41.16h12.1V283.85      l-39.16-58.25h-80.33v25.66c0,3.87-3.13,7-7,7s-7-3.13-7-7V218.6c0-3.87,3.13-7,7-7h91.06c2.33,0,4.51,1.16,5.81,3.09      l42.43,63.12c0.78,1.15,1.19,2.51,1.19,3.91v134.71C498.5,420.29,495.37,423.42,491.5,423.42z"/>

</g>

<g>

<path class="st1" d="M358.01,284.81c-0.46,0-0.92-0.04-1.37-0.13c-0.45-0.09-0.89-0.23-1.31-0.4c-0.42-0.18-0.83-0.39-1.21-0.65      c-0.38-0.25-0.74-0.54-1.06-0.87c-0.33-0.32-0.62-0.68-0.87-1.06c-0.26-0.38-0.47-0.79-0.65-1.21c-0.17-0.42-0.31-0.86-0.4-1.31      c-0.09-0.45-0.13-0.91-0.13-1.37c0-0.45,0.04-0.91,0.13-1.36c0.09-0.45,0.23-0.89,0.4-1.31c0.18-0.43,0.39-0.83,0.65-1.21      c0.25-0.39,0.54-0.74,0.87-1.07c0.32-0.32,0.68-0.61,1.06-0.87c0.38-0.25,0.79-0.47,1.21-0.64c0.42-0.18,0.86-0.31,1.31-0.4      c2.27-0.46,4.69,0.29,6.32,1.91c1.3,1.31,2.05,3.11,2.05,4.95s-0.75,3.65-2.05,4.95c-0.33,0.33-0.68,0.62-1.07,0.87      c-0.38,0.26-0.78,0.47-1.21,0.65c-0.42,0.17-0.86,0.31-1.3,0.4C358.92,284.77,358.46,284.81,358.01,284.81z"/>

</g>

<g>

<path class="st1" d="M457.57,315.12h-65.63c-3.87,0-7-3.13-7-7v-55.59c0-3.87,3.13-7,7-7H431c2.33,0,4.51,1.16,5.81,3.1      l26.57,39.53c0.78,1.16,1.19,2.51,1.19,3.91v16.06C464.57,311.98,461.43,315.12,457.57,315.12z M398.94,301.12h51.63v-6.93      l-23.3-34.67h-28.32V301.12z"/>

</g>

<g>

<path class="st0" d="M112.79,464.58c-26.55,0-48.16-21.6-48.16-48.16c0-16.79,8.95-32.61,23.35-41.28      c7.47-4.5,16.05-6.88,24.81-6.88c8.76,0,17.34,2.38,24.81,6.88c14.4,8.67,23.35,24.48,23.35,41.27      C160.94,442.97,139.34,464.58,112.79,464.58z M112.79,382.26c-6.21,0-12.29,1.68-17.58,4.87      c-10.38,6.25-16.57,17.19-16.57,29.28c0,18.83,15.32,34.16,34.16,34.16s34.16-15.32,34.16-34.16c0-12.09-6.19-23.04-16.57-29.28      C125.08,383.95,119,382.26,112.79,382.26z"/>

</g>

<g>

<path class="st1" d="M112.79,434.35c-9.89,0-17.93-8.05-17.93-17.93c0-6.25,3.33-12.14,8.69-15.37      c2.78-1.68,5.98-2.56,9.24-2.56s6.46,0.89,9.25,2.57c5.36,3.22,8.69,9.11,8.69,15.37C130.72,426.31,122.67,434.35,112.79,434.35      z M112.79,412.49c-0.73,0-1.4,0.19-2.02,0.56c-1.2,0.72-1.92,1.99-1.92,3.38c0,2.17,1.76,3.93,3.93,3.93s3.93-1.76,3.93-3.93      c0-1.39-0.71-2.65-1.91-3.37C114.19,412.67,113.51,412.49,112.79,412.49z"/>

</g>

<g>

<path class="st1" d="M424.75,434.35c-9.89,0-17.93-8.05-17.93-17.93c0-6.25,3.33-12.14,8.69-15.37      c2.78-1.68,5.98-2.56,9.24-2.56s6.46,0.89,9.25,2.57c5.36,3.22,8.69,9.11,8.69,15.37C442.69,426.31,434.64,434.35,424.75,434.35      z M424.75,412.49c-0.73,0-1.4,0.19-2.02,0.56c-1.2,0.72-1.92,1.99-1.92,3.38c0,2.17,1.76,3.93,3.93,3.93s3.93-1.76,3.93-3.93      c0-1.39-0.71-2.65-1.91-3.37C426.16,412.67,425.48,412.49,424.75,412.49z"/>

</g>

<g>

<path class="st0" d="M424.76,464.58c-26.55,0-48.16-21.6-48.16-48.16s21.6-48.16,48.16-48.16c26.55,0,48.15,21.6,48.15,48.16      S451.31,464.58,424.76,464.58z M424.76,382.26c-18.83,0-34.16,15.32-34.16,34.16s15.32,34.16,34.16,34.16      c18.83,0,34.15-15.32,34.15-34.16S443.59,382.26,424.76,382.26z"/>

</g>

<g>

<path class="st1" d="M55.21,384.38c-1.79,0-3.58-0.68-4.95-2.05c-2.73-2.73-2.73-7.17,0-9.9l53.99-53.99      c2.73-2.73,7.17-2.73,9.9,0c2.73,2.73,2.73,7.17,0,9.9l-53.99,53.99C58.8,383.7,57,384.38,55.21,384.38z"/>

</g>

<g>

<path class="st1" d="M358.27,384.38c-1.79,0-3.58-0.68-4.95-2.05l-51.74-51.74c-2.73-2.73-2.73-7.17,0-9.9      c2.73-2.73,7.17-2.73,9.9,0l51.74,51.74c2.73,2.73,2.73,7.17,0,9.9C361.85,383.7,360.06,384.38,358.27,384.38z"/>

</g>

<g>

<path class="st0" d="M197.43,368.26c-2.77,0-5.54-0.31-8.27-0.95c-39.22-9.14-78.53-31.88-110.67-64.02      c-32.15-32.15-54.88-71.45-64.02-110.67c-2.9-12.44,0.98-25.84,10.12-34.98l99.14-99.14c9.14-9.14,22.54-13.02,34.98-10.12      c39.22,9.14,78.53,31.88,110.67,64.02c32.14,32.14,54.88,71.45,64.02,110.67c2.9,12.44-0.98,25.84-10.12,34.98l-99.14,99.14      C217.01,364.33,207.27,368.26,197.43,368.26z M150.39,61.43c-6.17,0-12.28,2.47-16.77,6.97l-99.14,99.14      c-5.75,5.75-8.19,14.14-6.38,21.9c8.56,36.71,29.97,73.63,60.29,103.95c30.32,30.32,67.24,51.73,103.95,60.29      c7.76,1.81,16.16-0.63,21.91-6.38l99.14-99.14c5.75-5.75,8.19-14.14,6.38-21.9c-8.56-36.71-29.97-73.63-60.29-103.95      c-30.32-30.32-67.24-51.73-103.95-60.29C153.83,61.63,152.1,61.43,150.39,61.43z"/>

</g>

</g>

</g>

</g>

</svg>