<?xml version="1.0" ?>
<svg width="800px" height="800px" viewBox="0 0 64 64" id="duotone" xmlns="http://www.w3.org/2000/svg"><path d="M4,31C4,15.18,14.466,11,20,11l.91-.01a17.851,17.851,0,0,1,9.436,2.216c-.1.094-.206.182-.306.28a14.541,14.541,0,0,0-2.266,2.875C25.03,14.953,21.711,14.983,20,15c-1.228,0-12,.449-12,16,0,7.039,4.026,12.706,11.382,16.1-1.128.916-2.333,1.806-3.589,2.665C11.154,47.171,4,41.477,4,31ZM16.045,56.709l-.072.042a2.065,2.065,0,0,1-2.726-.781,2,2,0,0,1,.75-2.7c.081-.041,1-.557,2.409-1.494a55.406,55.406,0,0,0,5.517-4.194A39.446,39.446,0,0,0,29.4,39.2,20.7,20.7,0,0,0,33,28c0-3.987.844-6.884,2.5-8.643A22.584,22.584,0,0,1,37,28a23.424,23.424,0,0,1-2.459,10.222A32.983,32.983,0,0,1,31.2,43.605a42.783,42.783,0,0,1-3.813,4.37,53.247,53.247,0,0,1-5.529,4.831A54.15,54.15,0,0,1,16.045,56.709Zm8.635-3.582c1.317-1.079,2.576-2.215,3.767-3.391A26.671,26.671,0,0,0,32,50a26.671,26.671,0,0,0,3.553-.264c1.192,1.177,2.451,2.313,3.766,3.391A33.157,33.157,0,0,1,32,54,33.173,33.173,0,0,1,24.68,53.127Zm26.243,1.317a1.986,1.986,0,0,1-.167,1.52,2.014,2.014,0,0,1-2.7.8l-.1-.058a54.213,54.213,0,0,1-5.82-3.905,53.279,53.279,0,0,1-5.528-4.831,42.724,42.724,0,0,1-3.348-3.8,36.125,36.125,0,0,0,2.3-3.58,41.252,41.252,0,0,0,6.517,6.982,55.523,55.523,0,0,0,5.523,4.2c1.406.935,2.325,1.451,2.37,1.473A1.986,1.986,0,0,1,50.923,54.444Zm-2.716-4.68c-1.257-.859-2.461-1.749-3.589-2.665C51.974,43.706,56,38.039,56,31c0-15.551-10.772-16-12-16h-.7c-2.216,0-5.429.2-7.908,1.842h0l-.005,0c-.032.022-.068.038-.1.06a7.171,7.171,0,0,0-1.035.852C32.093,19.88,31,23.326,31,28a17.819,17.819,0,0,1-2.31,8.454A22.817,22.817,0,0,1,27,28a21.24,21.24,0,0,1,2.037-9.809v0l0,0a12.573,12.573,0,0,1,2.4-3.269,11.308,11.308,0,0,1,1.158-.993l0,0,0,0C36.59,10.9,41.772,10.974,44,11a15.417,15.417,0,0,1,10.031,4.013C57.936,18.53,60,24.058,60,31,60,41.477,52.846,47.171,48.207,49.764Z" style="fill:#ffbd4a"/><path d="M13.916,50.991c-.526.323-.836.5-.849.5a4,4,0,0,0,3.861,7.013l.113-.064a55.743,55.743,0,0,0,5.65-3.757A35.807,35.807,0,0,0,32,56a35.8,35.8,0,0,0,9.308-1.313,55.889,55.889,0,0,0,5.651,3.757l.113.064a4.011,4.011,0,0,0,5.433-1.574,4.007,4.007,0,0,0-1.587-5.448s-.31-.173-.834-.495C57.782,46.363,62,39.322,62,31c0-9.506-3.606-14.749-6.629-17.472A17.475,17.475,0,0,0,44.013,9C41.694,8.969,36.422,8.9,32,11.89c-2.868-1.95-6.5-2.9-11.091-2.9L20,9C13.774,9,2,13.6,2,31,2,39.322,6.218,46.363,13.916,50.991ZM24.68,53.127c1.317-1.079,2.576-2.215,3.767-3.391A26.671,26.671,0,0,0,32,50a26.671,26.671,0,0,0,3.553-.264c1.192,1.177,2.451,2.313,3.766,3.391A33.157,33.157,0,0,1,32,54,33.173,33.173,0,0,1,24.68,53.127ZM32,45.792q.879,1.093,1.823,2.128c-.635.053-1.249.08-1.823.08s-1.188-.027-1.823-.08Q31.124,46.885,32,45.792Zm18.923,8.652a1.986,1.986,0,0,1-.167,1.52,2.014,2.014,0,0,1-2.7.8l-.1-.058a54.213,54.213,0,0,1-5.82-3.905,53.279,53.279,0,0,1-5.528-4.831,42.724,42.724,0,0,1-3.348-3.8A34.539,34.539,0,0,0,36.34,39.1,25.408,25.408,0,0,0,39,28a28.133,28.133,0,0,0-.644-6.222,1,1,0,0,0-1.95.444A26.188,26.188,0,0,1,37,28a23.424,23.424,0,0,1-2.459,10.222A32.983,32.983,0,0,1,31.2,43.605a42.783,42.783,0,0,1-3.813,4.37,53.247,53.247,0,0,1-5.529,4.831,54.15,54.15,0,0,1-5.817,3.9l-.072.042a2.065,2.065,0,0,1-2.726-.781,2,2,0,0,1,.75-2.7c.081-.041,1-.557,2.409-1.494a55.406,55.406,0,0,0,5.517-4.194A39.446,39.446,0,0,0,29.4,39.2,20.7,20.7,0,0,0,33,28c0-4.118.892-7.085,2.658-8.823a5.294,5.294,0,0,1,.758-.622C38.684,17,42.158,17,43.3,17H44c1.023,0,10,.393,10,14,0,8.2-5.89,12.477-11.074,14.655a42.047,42.047,0,0,1-4.164-4.211,1,1,0,0,0-1.524,1.295,44.406,44.406,0,0,0,4.836,4.836,55.523,55.523,0,0,0,5.523,4.2c1.406.935,2.325,1.451,2.37,1.473A1.986,1.986,0,0,1,50.923,54.444ZM44,11a15.417,15.417,0,0,1,10.031,4.013C57.936,18.53,60,24.058,60,31c0,10.477-7.154,16.171-11.793,18.764-1.257-.859-2.461-1.749-3.589-2.665C51.974,43.706,56,38.039,56,31c0-15.551-10.772-16-12-16h-.7c-2.248,0-5.524.2-8.016,1.906a7.171,7.171,0,0,0-1.035.852C32.093,19.88,31,23.326,31,28a18.748,18.748,0,0,1-3.281,10.119,36.951,36.951,0,0,1-6.644,7.536C15.892,43.478,10,39.2,10,31c0-13.607,8.977-14,10.053-14,1.51-.018,4.5-.054,6.8,1.12A24.073,24.073,0,0,0,25,28a24.038,24.038,0,0,0,.842,6.26,1,1,0,0,0,1.931-.52A22.059,22.059,0,0,1,27,28a21.24,21.24,0,0,1,2.037-9.809v0l0,0a12.573,12.573,0,0,1,2.4-3.269,11.308,11.308,0,0,1,1.158-.993l0,0,0,0C36.59,10.9,41.772,10.974,44,11ZM20,11l.91-.01a17.851,17.851,0,0,1,9.436,2.216c-.1.094-.206.182-.306.28a14.541,14.541,0,0,0-2.266,2.875C25.03,14.953,21.711,14.983,20,15c-1.228,0-12,.449-12,16,0,7.039,4.026,12.706,11.382,16.1-1.128.916-2.333,1.806-3.589,2.665C11.154,47.171,4,41.477,4,31,4,15.18,14.466,11,20,11Z" style="fill:#363636"/></svg>