<?xml version="1.0" ?>
<svg width="800px" height="800px" viewBox="0 0 64 64" id="duotone" xmlns="http://www.w3.org/2000/svg"><path d="M52.392,39.93a1,1,0,0,1-.1-1.995A13,13,0,0,0,51,12c-.416,0-.852.022-1.3.065a1,1,0,1,1-.2-1.99C50.018,10.025,50.52,10,51,10a15,15,0,0,1,1.491,29.925C52.457,39.928,52.424,39.93,52.392,39.93Z" style="fill:#363636"/><path d="M51.994,35.95a1,1,0,0,1-.1-2A9,9,0,0,0,51,16c-.3,0-.6.016-.9.045a1,1,0,0,1-.2-1.99C50.267,14.02,50.631,14,51,14a11,11,0,0,1,1.094,21.945C52.061,35.948,52.026,35.95,51.994,35.95Z" style="fill:#363636"/><path d="M45.3,19H10.7a1,1,0,0,0-.995.9l-2.4,24A1,1,0,0,0,8.3,45H47.7a1,1,0,0,0,.995-1.1l-2.4-24A1,1,0,0,0,45.3,19Z" style="fill:#ffbd4a"/><path d="M45.175,8.7A3,3,0,0,0,42.189,6H13.81a3,3,0,0,0-2.985,2.7l-.62,6.2A1,1,0,0,0,11.2,16H44.8a1,1,0,0,0,1-1.1Z" style="fill:#ffbd4a"/><path d="M48.2,48H7.8a1,1,0,0,0-1,.9l-.58,5.8A3,3,0,0,0,9.21,58H46.79a3,3,0,0,0,2.985-3.3l-.58-5.8A1,1,0,0,0,48.2,48Z" style="fill:#ffbd4a"/><path d="M45.5,16h-35a1,1,0,0,1,0-2h35a1,1,0,0,1,0,2Z" style="fill:#363636"/><path d="M46,21H10a1,1,0,0,1,0-2H46a1,1,0,0,1,0,2Z" style="fill:#363636"/><path d="M48.5,45H7.5a1,1,0,0,1,0-2h41a1,1,0,0,1,0,2Z" style="fill:#363636"/><path d="M49,50H7a1,1,0,0,1,0-2H49a1,1,0,0,1,0,2Z" style="fill:#363636"/><path d="M41.732,54a1,1,0,0,1-1-.934l-.266-4a1,1,0,1,1,2-.132l.266,4A1,1,0,0,1,41.8,54Z" style="fill:#363636"/><path d="M14.268,54,14.2,54a1,1,0,0,1-.931-1.064l.266-4A1.018,1.018,0,0,1,14.6,48a1,1,0,0,1,.931,1.064l-.266,4A1,1,0,0,1,14.268,54Z" style="fill:#363636"/><path d="M32.9,54a1,1,0,0,1-1-.977l-.094-4A1,1,0,0,1,32.786,48a1.013,1.013,0,0,1,1.024.977l.094,4A1,1,0,0,1,32.928,54Z" style="fill:#363636"/><path d="M23.1,54h-.024a1,1,0,0,1-.976-1.023l.094-4A1.021,1.021,0,0,1,23.214,48a1,1,0,0,1,.976,1.023l-.094,4A1,1,0,0,1,23.1,54Z" style="fill:#363636"/><path d="M16.8,16l-.068,0a1,1,0,0,1-.931-1.064l.266-4A1.02,1.02,0,0,1,17.133,10a1,1,0,0,1,.931,1.064l-.266,4A1,1,0,0,1,16.8,16Z" style="fill:#363636"/><path d="M39.2,16a1,1,0,0,1-1-.934l-.266-4A1,1,0,0,1,38.867,10a1.011,1.011,0,0,1,1.065.932l.266,4A1,1,0,0,1,39.267,16Z" style="fill:#363636"/><path d="M41.133,45a1,1,0,0,1-1-.934l-1.334-20A1,1,0,0,1,39.733,23a1.016,1.016,0,0,1,1.065.932l1.334,20A1,1,0,0,1,41.2,45Z" style="fill:#363636"/><path d="M14.867,45,14.8,45a1,1,0,0,1-.932-1.064l1.334-20A1.019,1.019,0,0,1,16.267,23a1,1,0,0,1,.931,1.064l-1.334,20A1,1,0,0,1,14.867,45Z" style="fill:#363636"/><path d="M24,16h-.023A1,1,0,0,1,23,14.977l.1-4a1,1,0,0,1,2,.046l-.1,4A1,1,0,0,1,24,16Z" style="fill:#363636"/><path d="M32,16a1,1,0,0,1-1-.977l-.1-4a1,1,0,0,1,2-.046l.1,4A1,1,0,0,1,32.023,16Z" style="fill:#363636"/><path d="M32.69,45a1,1,0,0,1-1-.977l-.476-20A1,1,0,0,1,32.19,23a1.016,1.016,0,0,1,1.024.977l.476,20A1,1,0,0,1,32.714,45Z" style="fill:#363636"/><path d="M23.31,45h-.024a1,1,0,0,1-.976-1.023l.476-20A.981.981,0,0,1,23.81,23a1,1,0,0,1,.976,1.023l-.476,20A1,1,0,0,1,23.31,45Z" style="fill:#363636"/></svg>