<?xml version="1.0" ?>
<svg width="800px" height="800px" viewBox="0 0 64 64" id="duotone" xmlns="http://www.w3.org/2000/svg"><path d="M15.266,11.069c-.089.116-.182.231-.272.347L7.2,9.482c-.025-.144-.053-.29-.078-.434a1,1,0,0,0-1.971.339c.687,3.991,1.462,8.028,2.3,12a1,1,0,0,0,1.746.433c2.6-3.117,5.174-6.323,7.645-9.528a1,1,0,0,0-1.584-1.221Z" style="fill:#ffbd4a"/><path d="M44.26,15.394a1,1,0,0,0-1.372.344c-.075.125-.154.25-.23.376L34.705,15.1c-.042-.14-.087-.281-.128-.421a1,1,0,0,0-1.918.566c1.141,3.873,2.38,7.791,3.68,11.647a1,1,0,0,0,.822.672,1.066,1.066,0,0,0,.126.008,1,1,0,0,0,.837-.453c2.217-3.4,4.4-6.88,6.48-10.355A1,1,0,0,0,44.26,15.394Z" style="fill:#ffbd4a"/><path d="M29.009,13.808c-.082.12-.168.24-.251.361L20.878,12.7c-.034-.142-.071-.286-.1-.428a1,1,0,0,0-1.948.453c.917,3.944,1.925,7.928,3,11.842a1,1,0,0,0,.78.719,1.05,1.05,0,0,0,.184.017,1,1,0,0,0,.8-.4c2.415-3.267,4.8-6.617,7.072-9.959a1,1,0,1,0-1.653-1.126Z" style="fill:#ffbd4a"/><path d="M58.215,16.433a1,1,0,0,0-1.35.422c-.067.13-.139.26-.207.389L48.65,16.7c-.049-.137-.1-.275-.152-.412a1,1,0,0,0-1.882.676c1.369,3.8,2.835,7.643,4.358,11.413a1,1,0,0,0,.859.623l.068,0a1,1,0,0,0,.868-.5c2.021-3.528,4-7.133,5.869-10.715A1,1,0,0,0,58.215,16.433Z" style="fill:#ffbd4a"/><path d="M60.773,18.441h-.035A241.675,241.675,0,0,1,2.954,9.371,1,1,0,0,1,3.5,7.447a239.64,239.64,0,0,0,57.306,9,1,1,0,0,1-.034,2Z" style="fill:#363636"/><path d="M58.029,35.824a.992.992,0,0,0-1.155.815c-.025.144-.053.29-.078.434l-7.79,1.934c-.09-.116-.183-.231-.272-.346a1,1,0,1,0-1.584,1.22c2.466,3.2,5.038,6.405,7.645,9.529a1,1,0,0,0,.768.359,1.045,1.045,0,0,0,.241-.029,1,1,0,0,0,.737-.763c.841-3.969,1.616-8.006,2.3-12A1,1,0,0,0,58.029,35.824Z" style="fill:#ffbd4a"/><path d="M30.665,41.6a1,1,0,0,0-1.242.676c-.041.14-.086.281-.127.421l-7.954,1.012c-.076-.126-.155-.251-.23-.376A1,1,0,1,0,19.4,44.357c2.083,3.476,4.263,6.959,6.48,10.355a1,1,0,0,0,.837.453.888.888,0,0,0,.126-.008,1,1,0,0,0,.822-.672c1.3-3.852,2.538-7.771,3.68-11.647A1,1,0,0,0,30.665,41.6Z" style="fill:#ffbd4a"/><path d="M44.426,39.11a1,1,0,0,0-1.2.748c-.033.142-.07.286-.1.428l-7.88,1.474c-.083-.121-.169-.241-.251-.362a1,1,0,0,0-1.653,1.126c2.276,3.341,4.655,6.691,7.072,9.96a1,1,0,0,0,.8.405.945.945,0,0,0,.183-.017,1,1,0,0,0,.781-.719c1.072-3.918,2.08-7.9,3-11.842A1,1,0,0,0,44.426,39.11Z" style="fill:#ffbd4a"/><path d="M16.781,43.274a1,1,0,0,0-1.279.6c-.049.137-.1.275-.152.413l-8.008.545c-.068-.129-.139-.259-.207-.388a1,1,0,1,0-1.773.927c1.876,3.586,3.851,7.191,5.869,10.714a1,1,0,0,0,.868.5l.068,0a1,1,0,0,0,.859-.623c1.523-3.769,2.989-7.609,4.358-11.412A1,1,0,0,0,16.781,43.274Z" style="fill:#ffbd4a"/><path d="M3.227,46.032a1,1,0,0,1-.034-2,239.547,239.547,0,0,0,57.306-9,1,1,0,0,1,.547,1.924,241.582,241.582,0,0,1-57.784,9.07Z" style="fill:#363636"/></svg>