<?xml version="1.0" ?>
<svg width="800px" height="800px" viewBox="0 0 64 64" id="duotone" xmlns="http://www.w3.org/2000/svg"><path d="M29.5,29a1,1,0,0,1-.994-.9l-.32-3.2a1,1,0,0,0-.995-.9H6.81a1,1,0,0,0-.995.9L5.5,28.1a1,1,0,1,1-1.99-.2l.32-3.2A2.989,2.989,0,0,1,6.81,22H27.19a2.989,2.989,0,0,1,2.985,2.7l.32,3.2A1,1,0,0,1,29.6,29C29.565,29,29.532,29,29.5,29Z" style="fill:#363636"/><path d="M19,20a1,1,0,0,1-1-1V17a3,3,0,0,1,3-3H32a1,1,0,0,0,0-2H30a3,3,0,0,1,0-6H50a1,1,0,0,0,0-2H14a1,1,0,0,0,0,2h8a3,3,0,0,1,0,6H21a5.006,5.006,0,0,0-5,5v2a1,1,0,0,1-2,0V17a7.009,7.009,0,0,1,7-7h1a1,1,0,0,0,0-2H14a3,3,0,0,1,0-6H50a3,3,0,0,1,0,6H30a1,1,0,0,0,0,2h2a3,3,0,0,1,0,6H21a1,1,0,0,0-1,1v2A1,1,0,0,1,19,20Z" style="fill:#363636"/><path d="M44,16H40a3,3,0,0,1,0-6h4a3,3,0,0,1,0,6Zm-4-4a1,1,0,0,0,0,2h4a1,1,0,0,0,0-2Z" style="fill:#363636"/><path d="M30.157,53.179A1,1,0,0,1,29.94,51.2C41.025,48.73,44.393,40.77,47.363,33.746,48.9,30.12,50.345,26.7,52.7,24.3a1,1,0,1,1,1.428,1.4c-2.085,2.125-3.461,5.379-4.918,8.824-3,7.1-6.738,15.934-18.829,18.63A.968.968,0,0,1,30.157,53.179Z" style="fill:#363636"/><path d="M34.6,39.732a1,1,0,0,1-.417-1.909c5.008-2.289,7.237-6.149,9.392-9.883,2.12-3.67,4.313-7.466,9.04-9.465a1,1,0,1,1,.78,1.841c-4.111,1.739-6.042,5.083-8.087,8.625-2.2,3.819-4.7,8.146-10.293,10.7A1.009,1.009,0,0,1,34.6,39.732Z" style="fill:#363636"/><path d="M61,17a26.865,26.865,0,0,0-4.153.307A1,1,0,0,0,56,18.3v4.358a1,1,0,0,0,1,1,.986.986,0,0,0,.342-.06A10.542,10.542,0,0,1,61,23a1,1,0,0,0,1-1V18A1,1,0,0,0,61,17Z" style="fill:#ffbd4a"/><path d="M31.676,39.706,30.9,31.9a1,1,0,0,0-1-.9H4.1a1,1,0,0,0-1,.9l-.78,7.806A13,13,0,0,0,15.26,54h3.48A13,13,0,0,0,31.676,39.706Z" style="fill:#ffbd4a"/></svg>