<?xml version="1.0" encoding="utf-8"?>
<svg width="800px" height="800px" viewBox="-12.17 0 78.285 78.285" xmlns="http://www.w3.org/2000/svg">
  <g id="Group_4483" data-name="Group 4483" transform="translate(-728.153 -375.605)">
    <g id="Group_4481" data-name="Group 4481">
      <g id="Group_4411" data-name="Group 4411">
        <g id="Group_4410" data-name="Group 4410">
          <g id="Group_4409" data-name="Group 4409">
            <path id="Path_1621" data-name="Path 1621" d="M744.494,394.78H733.155c-3.632,3.632-4.162,11.683-4.239,13.7C729.038,406.045,730.364,394.78,744.494,394.78Z" fill="#985c4c"/>
          </g>
        </g>
      </g>
      <g id="Group_4414" data-name="Group 4414">
        <g id="Group_4413" data-name="Group 4413">
          <g id="Group_4412" data-name="Group 4412">
            <path id="Path_1622" data-name="Path 1622" d="M748.745,402.617a.75.75,0,0,1,0-1.5c4.509,0,7.9-3.946,7.932-3.986a.75.75,0,1,1,1.145.968C757.666,398.284,753.943,402.617,748.745,402.617Z" fill="#7a7a7a"/>
          </g>
        </g>
      </g>
      <g id="Group_4417" data-name="Group 4417">
        <g id="Group_4416" data-name="Group 4416">
          <g id="Group_4415" data-name="Group 4415">
            <path id="Path_1623" data-name="Path 1623" d="M781.344,383.442a7.736,7.736,0,0,0-5.669-2.835h0s-2.5,2.836-4.251,2.836l4.009.668A7.478,7.478,0,0,1,781.344,383.442Z" fill="#666"/>
          </g>
        </g>
      </g>
      <g id="Group_4420" data-name="Group 4420">
        <g id="Group_4419" data-name="Group 4419">
          <g id="Group_4418" data-name="Group 4418">
            <path id="Path_1624" data-name="Path 1624" d="M769.3,382.774a1.458,1.458,0,1,1,1.459-1.458A1.46,1.46,0,0,1,769.3,382.774Zm0-1.5a.041.041,0,0,0-.041.042c0,.047.082.046.082,0A.041.041,0,0,0,769.3,381.274Z" fill="#7a7a7a"/>
          </g>
        </g>
      </g>
      <g id="Group_4423" data-name="Group 4423">
        <g id="Group_4422" data-name="Group 4422">
          <g id="Group_4421" data-name="Group 4421">
            <path id="Path_1625" data-name="Path 1625" d="M741.658,451.056a.985.985,0,0,1-.43-.1,1,1,0,0,1-.471-1.333,4.04,4.04,0,0,1,3.736-1.987c1.02,0,1.566-1.2,1.769-1.77l-5.517-12.414a1,1,0,0,1,1.827-.812l5.67,12.756a1,1,0,0,1,.059.638c-.32,1.338-1.482,3.6-3.808,3.6a2.113,2.113,0,0,0-1.932.849A1,1,0,0,1,741.658,451.056Z" fill="#7a7a7a"/>
          </g>
        </g>
      </g>
      <g id="Group_4426" data-name="Group 4426">
        <g id="Group_4425" data-name="Group 4425">
          <g id="Group_4424" data-name="Group 4424">
            <path id="Path_1626" data-name="Path 1626" d="M743.076,453.89a1,1,0,0,1-1-1,2.606,2.606,0,0,1,1.766-2.69,6.579,6.579,0,0,0,1.421-.906c1.3-1.108,1.074-3.355,1.072-3.378a1,1,0,0,1,1.914-.5c.389.909,1.295,2.225,1.914,2.225a5.229,5.229,0,0,1,3.6,1.771,1,1,0,1,1-1.525,1.294,3.22,3.22,0,0,0-2.072-1.065A3.109,3.109,0,0,1,748,448.619a4.856,4.856,0,0,1-1.437,2.2,8.551,8.551,0,0,1-1.813,1.166c-.67.339-.67.339-.67.906A1,1,0,0,1,743.076,453.89Z" fill="#7a7a7a"/>
          </g>
        </g>
      </g>
      <g id="Group_4429" data-name="Group 4429">
        <g id="Group_4428" data-name="Group 4428">
          <g id="Group_4427" data-name="Group 4427">
            <path id="Path_1627" data-name="Path 1627" d="M747.328,430.213h2.835a11.437,11.437,0,0,1,4.287-5,28.693,28.693,0,0,1-7.122.977Z" fill="#985c4c"/>
          </g>
        </g>
      </g>
      <g id="Group_4432" data-name="Group 4432">
        <g id="Group_4431" data-name="Group 4431">
          <g id="Group_4430" data-name="Group 4430">
            <path id="Path_1628" data-name="Path 1628" d="M753,421.709a10.4,10.4,0,0,1-8.5,4.252l-.03.147c.731.056,1.712.1,2.864.083a28.693,28.693,0,0,0,7.122-.977,19.293,19.293,0,0,0,7.051-3.5c7.415-5.994,4.252-9.922,4.252-21.259s2.835-12.756,2.835-12.756,2-.074,5.669-2.835a9.291,9.291,0,0,1,1.175-.749l-4.009-.668c1.752,0,4.251-2.836,4.251-2.836-2.245-4.262-7.086-4.251-7.086-4.251-8.5,0-8.5,7.265-8.5,12.756a12.97,12.97,0,0,1-2.834,8.5,30.428,30.428,0,0,0-12.756-2.835c-14.13,0-15.456,11.265-15.578,13.7-.011.3-.013.47-.013.47,0,8.813,4.785,13.122,8.794,15.189l-.29-1.016c-.555-7.369,7.087-11.339,7.087-11.339" fill="#be8a66"/>
          </g>
        </g>
      </g>
      <g id="Group_4435" data-name="Group 4435">
        <g id="Group_4434" data-name="Group 4434">
          <g id="Group_4433" data-name="Group 4433">
            <path id="Path_1629" data-name="Path 1629" d="M744.494,411.788s-7.642,3.97-7.087,11.339l.29,1.016,2.545,8.9h2.834l1.388-6.94.03-.147a10.4,10.4,0,0,0,8.5-4.252" fill="#be8a66"/>
          </g>
        </g>
      </g>
      <g id="Group_4438" data-name="Group 4438">
        <g id="Group_4437" data-name="Group 4437">
          <g id="Group_4436" data-name="Group 4436">
            <path id="Path_1630" data-name="Path 1630" d="M753,446.8a1,1,0,0,1-1-1c0-.172,0-.407-.419-.417h-2.834c-2.176,0-3.409-2.235-3.794-3.555a1,1,0,0,1-.01-.523l2.834-11.338a1,1,0,0,1,1.941.485l-2.764,11.053c.254.664.9,1.878,1.793,1.878h2.835a2.569,2.569,0,0,1,1.744.689A2.335,2.335,0,0,1,754,445.8,1,1,0,0,1,753,446.8Z" fill="#7a7a7a"/>
          </g>
        </g>
      </g>
      <g id="Group_4441" data-name="Group 4441">
        <g id="Group_4440" data-name="Group 4440">
          <g id="Group_4439" data-name="Group 4439">
            <path id="Path_1631" data-name="Path 1631" d="M743.077,443.97a1,1,0,0,1-.448-1.895l2.835-1.417a1,1,0,0,1,.894,1.789l-2.834,1.417A1,1,0,0,1,743.077,443.97Z" fill="#7a7a7a"/>
          </g>
        </g>
      </g>
      <g id="Group_4444" data-name="Group 4444">
        <g id="Group_4443" data-name="Group 4443">
          <g id="Group_4442" data-name="Group 4442">
            <path id="Path_1632" data-name="Path 1632" d="M761.5,396.948a.761.761,0,0,1-.238-.039.751.751,0,0,1-.474-.949l1.417-4.252a.75.75,0,0,1,1.423.475l-1.417,4.252A.749.749,0,0,1,761.5,396.948Z" fill="#7a7a7a"/>
          </g>
        </g>
      </g>
      <g id="Group_4447" data-name="Group 4447">
        <g id="Group_4446" data-name="Group 4446">
          <g id="Group_4445" data-name="Group 4445">
            <path id="Path_1633" data-name="Path 1633" d="M761.5,405.451a.759.759,0,0,1-.238-.038.751.751,0,0,1-.474-.949l1.417-4.252a.75.75,0,0,1,1.423.475l-1.417,4.252A.749.749,0,0,1,761.5,405.451Z" fill="#7a7a7a"/>
          </g>
        </g>
      </g>
      <g id="Group_4450" data-name="Group 4450">
        <g id="Group_4449" data-name="Group 4449">
          <g id="Group_4448" data-name="Group 4448">
            <path id="Path_1634" data-name="Path 1634" d="M757.25,413.955a.759.759,0,0,1-.238-.038.751.751,0,0,1-.474-.949l1.417-4.252a.75.75,0,1,1,1.423.475l-1.417,4.252A.749.749,0,0,1,757.25,413.955Z" fill="#7a7a7a"/>
          </g>
        </g>
      </g>
      <g id="Group_4453" data-name="Group 4453">
        <g id="Group_4452" data-name="Group 4452">
          <g id="Group_4451" data-name="Group 4451">
            <path id="Path_1635" data-name="Path 1635" d="M751.58,413.955a.748.748,0,0,1-.711-.987l1.417-4.252a.75.75,0,1,1,1.423.475l-1.417,4.252A.751.751,0,0,1,751.58,413.955Z" fill="#7a7a7a"/>
          </g>
        </g>
      </g>
      <g id="Group_4456" data-name="Group 4456">
        <g id="Group_4455" data-name="Group 4455">
          <g id="Group_4454" data-name="Group 4454">
            <path id="Path_1636" data-name="Path 1636" d="M761.5,416.79a.759.759,0,0,1-.238-.038.751.751,0,0,1-.474-.949l1.417-4.252a.75.75,0,0,1,1.423.475l-1.417,4.252A.749.749,0,0,1,761.5,416.79Z" fill="#7a7a7a"/>
          </g>
        </g>
      </g>
      <g id="Group_4459" data-name="Group 4459">
        <g id="Group_4458" data-name="Group 4458">
          <g id="Group_4457" data-name="Group 4457">
            <path id="Path_1637" data-name="Path 1637" d="M755.832,406.869a.731.731,0,0,1-.237-.039.749.749,0,0,1-.474-.948l1.417-4.252a.75.75,0,0,1,1.423.474l-1.417,4.252A.752.752,0,0,1,755.832,406.869Z" fill="#7a7a7a"/>
          </g>
        </g>
      </g>
      <g id="Group_4462" data-name="Group 4462">
        <g id="Group_4461" data-name="Group 4461">
          <g id="Group_4460" data-name="Group 4460">
            <path id="Path_1638" data-name="Path 1638" d="M748.745,409.7a.748.748,0,0,1-.711-.987l1.417-4.252a.75.75,0,0,1,1.423.475l-1.417,4.252A.751.751,0,0,1,748.745,409.7Z" fill="#7a7a7a"/>
          </g>
        </g>
      </g>
      <g id="Group_4465" data-name="Group 4465">
        <g id="Group_4464" data-name="Group 4464">
          <g id="Group_4463" data-name="Group 4463">
            <path id="Path_1639" data-name="Path 1639" d="M745.911,404.034h-4.252a.75.75,0,0,1,0-1.5h4.252a.75.75,0,0,1,0,1.5Z" fill="#7a7a7a"/>
          </g>
        </g>
      </g>
      <g id="Group_4468" data-name="Group 4468">
        <g id="Group_4467" data-name="Group 4467">
          <g id="Group_4466" data-name="Group 4466">
            <path id="Path_1640" data-name="Path 1640" d="M737.407,404.034h-4.252a.75.75,0,0,1,0-1.5h4.252a.75.75,0,0,1,0,1.5Z" fill="#7a7a7a"/>
          </g>
        </g>
      </g>
      <g id="Group_4471" data-name="Group 4471">
        <g id="Group_4470" data-name="Group 4470">
          <g id="Group_4469" data-name="Group 4469">
            <path id="Path_1641" data-name="Path 1641" d="M741.659,399.783h-4.252a.75.75,0,0,1,0-1.5h4.252a.75.75,0,0,1,0,1.5Z" fill="#7a7a7a"/>
          </g>
        </g>
      </g>
      <g id="Group_4474" data-name="Group 4474">
        <g id="Group_4473" data-name="Group 4473">
          <g id="Group_4472" data-name="Group 4472">
            <path id="Path_1642" data-name="Path 1642" d="M750.163,399.783h-4.252a.75.75,0,0,1,0-1.5h4.252a.75.75,0,0,1,0,1.5Z" fill="#7a7a7a"/>
          </g>
        </g>
      </g>
      <g id="Group_4477" data-name="Group 4477">
        <g id="Group_4476" data-name="Group 4476">
          <g id="Group_4475" data-name="Group 4475">
            <path id="Path_1643" data-name="Path 1643" d="M741.659,408.286h-4.252a.75.75,0,0,1,0-1.5h4.252a.75.75,0,0,1,0,1.5Z" fill="#7a7a7a"/>
          </g>
        </g>
      </g>
      <g id="Group_4480" data-name="Group 4480">
        <g id="Group_4479" data-name="Group 4479">
          <g id="Group_4478" data-name="Group 4478">
            <path id="Path_1644" data-name="Path 1644" d="M737.407,412.538h-4.252a.75.75,0,0,1,0-1.5h4.252a.75.75,0,0,1,0,1.5Z" fill="#7a7a7a"/>
          </g>
        </g>
      </g>
    </g>
    <g id="Group_4482" data-name="Group 4482">
      <path id="Path_1645" data-name="Path 1645" d="M781.915,382.955a8.607,8.607,0,0,0-5.8-3.079,9.2,9.2,0,0,0-7.519-4.271h0c-9.254,0-9.254,8.128-9.254,13.506a12.9,12.9,0,0,1-2.3,7.568,31.213,31.213,0,0,0-12.545-2.648H733.155a.75.75,0,0,0-.53.219c-3.781,3.781-4.368,11.821-4.458,14.2v0c-.012.315-.014.493-.014.5,0,8.975,4.775,13.477,8.909,15.7l2.458,8.6a.751.751,0,0,0,.721.544h.657l3.324,7.48-1.593.8a1,1,0,1,0,.895,1.789l1.512-.756,1.226,2.76c-.2.574-.749,1.77-1.769,1.77a4.04,4.04,0,0,0-3.736,1.987,1,1,0,0,0,.471,1.333.985.985,0,0,0,.43.1,1,1,0,0,0,.9-.569,2.115,2.115,0,0,1,1.932-.849,3.226,3.226,0,0,0,.39-.047,7.352,7.352,0,0,1-1.04.608,2.608,2.608,0,0,0-1.767,2.691,1,1,0,0,0,2,0c0-.567,0-.567.67-.906a8.551,8.551,0,0,0,1.813-1.166,4.856,4.856,0,0,0,1.437-2.2,3.109,3.109,0,0,0,2.167,1.019,3.22,3.22,0,0,1,2.072,1.065,1,1,0,1,0,1.526-1.294,5.235,5.235,0,0,0-3.6-1.771c-.619,0-1.525-1.316-1.914-2.225l-.005-.007,0-.008-.036-.08a2.942,2.942,0,0,0,.539.068h2.834c.419.011.419.246.419.418a1,1,0,0,0,2,0,2.339,2.339,0,0,0-.673-1.728,2.574,2.574,0,0,0-1.745-.69h-2.835c-.892,0-1.539-1.213-1.793-1.877l2.637-10.546h.574a.749.749,0,0,0,.7-.471,10.722,10.722,0,0,1,3.917-4.6,19.964,19.964,0,0,0,7.2-3.6c5.785-4.676,5.463-8.32,4.932-14.358-.188-2.132-.4-4.549-.4-7.485,0-9.392,1.975-11.674,2.357-12.03.685-.1,2.684-.581,5.848-2.961a8.554,8.554,0,0,1,1.079-.688h0a6.7,6.7,0,0,1,5.285-.629.75.75,0,0,0,.841-1.186Zm-50.79,16.922a12.167,12.167,0,0,1,2.35-4.346h3.075c-.07.03-.133.065-.2.1-.228.105-.455.211-.67.324-.118.062-.227.129-.341.194-.158.089-.319.176-.471.269-.12.075-.233.154-.349.231-.135.089-.273.176-.4.268s-.226.171-.338.257-.241.18-.354.273-.212.183-.318.275-.217.187-.32.283-.2.192-.293.288-.2.194-.291.293-.179.2-.268.3-.18.2-.264.3-.165.206-.246.309-.162.2-.238.306C731.167,399.825,731.145,399.851,731.125,399.877Zm14.35,39.295-2.389-5.376a.748.748,0,0,0,.726-.6l1.262-6.314c.5.027.995.052,1.5.056v3.276a.75.75,0,0,0,.75.75h.2Zm4.206-9.709h-.29a.942.942,0,0,0-1.279,0h-.034v-2.541c.21-.008.414-.03.622-.042.288-.016.576-.033.86-.057.33-.028.655-.065.979-.1.279-.032.558-.064.833-.1.09-.013.183-.02.273-.034A12.873,12.873,0,0,0,749.681,429.463Zm18.88-42.519a.752.752,0,0,0-.309.079c-.332.166-3.248,1.957-3.248,13.426,0,3,.216,5.454.406,7.617.521,5.916.783,8.886-4.38,13.06a18.53,18.53,0,0,1-6.779,3.365c-.6.165-1.214.3-1.84.426-.2.04-.412.07-.618.105-.432.074-.869.142-1.314.2-.1.012-.193.02-.288.03l.024-.015c.247-.141.494-.3.74-.467.067-.046.133-.092.2-.14.267-.193.533-.4.794-.628l.03-.028c.248-.221.49-.465.728-.722.063-.067.125-.136.186-.206a10.859,10.859,0,0,0,.718-.9.75.75,0,1,0-1.224-.866,9.541,9.541,0,0,1-7.851,3.936.762.762,0,0,0-.777.6l-1.3,6.483h-.15a.99.99,0,0,0-1.059-.163.974.974,0,0,0-.231.163h-.215l-2.657-9.3c-.453-6.729,6.618-10.5,6.69-10.542a.75.75,0,0,0-.692-1.33,16.857,16.857,0,0,0-3.946,3.052c-.312.324-.6.655-.874.992-.091.113-.169.23-.255.344-.172.227-.345.453-.5.685-.093.139-.171.283-.258.424-.129.211-.26.422-.375.637-.081.154-.149.311-.224.466-.1.208-.2.415-.285.625-.066.163-.12.328-.178.493-.073.207-.147.414-.207.624-.048.17-.086.341-.126.512-.049.209-.1.417-.133.628-.03.174-.05.35-.071.526-.025.209-.048.419-.06.631-.011.179-.013.358-.015.538,0,.122-.013.242-.009.364-3.453-2.218-6.98-6.3-6.98-13.7,0-.006,0-.167.012-.439s.041-.632.087-1.025c.452-3.8,2.819-11.965,14.76-11.965a30.331,30.331,0,0,1,11.461,2.317c-1.219,1.147-3.919,3.269-7.228,3.269a.75.75,0,0,0,0,1.5c5.174,0,8.884-4.291,9.072-4.512a13.672,13.672,0,0,0,3.017-8.994c0-6.8.571-12.006,7.756-12.006a7.793,7.793,0,0,1,6.158,3.393c-.113.116-.236.238-.368.364l-.062.057c-.121.113-.248.228-.379.343l-.149.125c-.107.091-.215.181-.326.268-.06.048-.121.093-.182.139-.1.078-.207.154-.311.225-.065.045-.129.088-.193.129-.1.066-.2.126-.3.182-.062.035-.124.07-.184.1a3.262,3.262,0,0,1-.308.131c-.05.019-.1.043-.15.058a1.446,1.446,0,0,1-.409.072.75.75,0,0,0-.124,1.489l2.132.356C770.294,386.808,768.569,386.944,768.561,386.944Zm6.746-3.615-.435-.073-.836-.139c.281-.2.542-.418.79-.632l.012-.011q.309-.267.571-.519l.123-.117.179-.178c.1-.106.2-.2.277-.285l0-.005a6.888,6.888,0,0,1,2.975,1A8.68,8.68,0,0,0,775.307,383.329Z" fill="#1a1a1a"/>
      <path id="Path_1646" data-name="Path 1646" d="M769.3,379.857a1.458,1.458,0,1,0,1.459,1.459A1.46,1.46,0,0,0,769.3,379.857Zm-.041,1.459a.041.041,0,1,1,.082,0C769.338,381.362,769.256,381.363,769.256,381.316Z" fill="#1a1a1a"/>
      <path id="Path_1647" data-name="Path 1647" d="M763.156,391.234a.748.748,0,0,0-.949.474l-1.417,4.252a.751.751,0,0,0,.474.949.765.765,0,0,0,.238.039.749.749,0,0,0,.711-.513l1.417-4.252A.75.75,0,0,0,763.156,391.234Z" fill="#1a1a1a"/>
      <path id="Path_1648" data-name="Path 1648" d="M763.156,399.738a.749.749,0,0,0-.949.474l-1.417,4.252a.751.751,0,0,0,.474.949.763.763,0,0,0,.238.038.749.749,0,0,0,.711-.512l1.417-4.252A.75.75,0,0,0,763.156,399.738Z" fill="#1a1a1a"/>
      <path id="Path_1649" data-name="Path 1649" d="M758.9,408.242a.748.748,0,0,0-.949.474l-1.417,4.252a.752.752,0,0,0,.474.949.763.763,0,0,0,.238.038.749.749,0,0,0,.711-.512l1.417-4.252A.75.75,0,0,0,758.9,408.242Z" fill="#1a1a1a"/>
      <path id="Path_1650" data-name="Path 1650" d="M753.235,408.242a.749.749,0,0,0-.949.474l-1.417,4.252a.75.75,0,0,0,1.423.475l1.417-4.252A.75.75,0,0,0,753.235,408.242Z" fill="#1a1a1a"/>
      <path id="Path_1651" data-name="Path 1651" d="M763.156,411.077a.749.749,0,0,0-.949.474L760.79,415.8a.751.751,0,0,0,.474.949.763.763,0,0,0,.238.038.749.749,0,0,0,.711-.512l1.417-4.252A.75.75,0,0,0,763.156,411.077Z" fill="#1a1a1a"/>
      <path id="Path_1652" data-name="Path 1652" d="M757.961,402.1a.75.75,0,0,0-1.423-.474l-1.417,4.252a.749.749,0,0,0,.474.948.731.731,0,0,0,.237.039.752.752,0,0,0,.712-.513Z" fill="#1a1a1a"/>
      <path id="Path_1653" data-name="Path 1653" d="M750.4,403.99a.749.749,0,0,0-.949.474l-1.417,4.252a.75.75,0,0,0,1.423.475l1.417-4.252A.75.75,0,0,0,750.4,403.99Z" fill="#1a1a1a"/>
      <path id="Path_1654" data-name="Path 1654" d="M745.911,402.534h-4.252a.75.75,0,0,0,0,1.5h4.252a.75.75,0,0,0,0-1.5Z" fill="#1a1a1a"/>
      <path id="Path_1655" data-name="Path 1655" d="M733.155,404.034h4.252a.75.75,0,0,0,0-1.5h-4.252a.75.75,0,0,0,0,1.5Z" fill="#1a1a1a"/>
      <path id="Path_1656" data-name="Path 1656" d="M737.407,399.782h4.252a.75.75,0,0,0,0-1.5h-4.252a.75.75,0,0,0,0,1.5Z" fill="#1a1a1a"/>
      <path id="Path_1657" data-name="Path 1657" d="M745.911,399.782h4.252a.75.75,0,0,0,0-1.5h-4.252a.75.75,0,0,0,0,1.5Z" fill="#1a1a1a"/>
      <path id="Path_1658" data-name="Path 1658" d="M741.659,406.786h-4.252a.75.75,0,0,0,0,1.5h4.252a.75.75,0,0,0,0-1.5Z" fill="#1a1a1a"/>
      <path id="Path_1659" data-name="Path 1659" d="M737.407,411.038h-4.252a.75.75,0,0,0,0,1.5h4.252a.75.75,0,0,0,0-1.5Z" fill="#1a1a1a"/>
    </g>
  </g>
</svg>