<?xml version="1.0" encoding="utf-8"?>
<svg width="800px" height="800px" viewBox="0 -23.38 116.303 116.303" xmlns="http://www.w3.org/2000/svg">
  <g id="Group_2956" data-name="Group 2956" transform="translate(-646.616 -1392.575)">
    <g id="Group_2954" data-name="Group 2954">
      <g id="Group_2913" data-name="Group 2913">
        <g id="Group_2912" data-name="Group 2912">
          <g id="Group_2911" data-name="Group 2911">
            <g id="Group_2910" data-name="Group 2910">
              <g id="Group_2909" data-name="Group 2909">
                <path id="Path_1284" data-name="Path 1284" d="M658.7,1401.343l4.252,4.252-2.835,1.418a32.585,32.585,0,0,1-9.921-1.418A19.153,19.153,0,0,1,658.7,1401.343Z" fill="#b3b3b3"/>
              </g>
            </g>
          </g>
        </g>
      </g>
      <g id="Group_2918" data-name="Group 2918">
        <g id="Group_2917" data-name="Group 2917">
          <g id="Group_2916" data-name="Group 2916">
            <g id="Group_2915" data-name="Group 2915">
              <g id="Group_2914" data-name="Group 2914">
                <path id="Path_1285" data-name="Path 1285" d="M658.7,1402.093a.75.75,0,0,0,.75-.75v-2.126a4.211,4.211,0,0,1,7.157-3.008.75.75,0,1,0,1.05-1.071,5.711,5.711,0,0,0-9.707,4.079v2.126A.75.75,0,0,0,658.7,1402.093Z" fill="#4d4d4d"/>
              </g>
            </g>
          </g>
        </g>
      </g>
      <g id="Group_2923" data-name="Group 2923">
        <g id="Group_2922" data-name="Group 2922">
          <g id="Group_2921" data-name="Group 2921">
            <g id="Group_2920" data-name="Group 2920">
              <g id="Group_2919" data-name="Group 2919">
                <path id="Path_1286" data-name="Path 1286" d="M658.7,1402.093a.75.75,0,0,0,.53-1.28,4.927,4.927,0,0,1,0-6.957.75.75,0,0,0-1.06-1.061,6.426,6.426,0,0,0,0,9.078A.744.744,0,0,0,658.7,1402.093Z" fill="#4d4d4d"/>
              </g>
            </g>
          </g>
        </g>
      </g>
      <g id="Group_2928" data-name="Group 2928">
        <g id="Group_2927" data-name="Group 2927">
          <g id="Group_2926" data-name="Group 2926">
            <g id="Group_2925" data-name="Group 2925">
              <g id="Group_2924" data-name="Group 2924">
                <path id="Path_1287" data-name="Path 1287" d="M658.7,1401.343c0-2.79,4.252-2.834,4.252-2.834h4.252s5.2-.552,11.339,5.669,11.338,7.086,11.338,7.086c-8.9,0-16.183,7.818-16.939,19.281a25.316,25.316,0,0,1-5.738-12.194s-1.175-11.338-7.087-11.338l2.835-1.418Z" fill="#333"/>
              </g>
            </g>
          </g>
        </g>
      </g>
      <g id="Group_2933" data-name="Group 2933">
        <g id="Group_2932" data-name="Group 2932">
          <g id="Group_2931" data-name="Group 2931">
            <g id="Group_2930" data-name="Group 2930">
              <g id="Group_2929" data-name="Group 2929">
                <path id="Path_1288" data-name="Path 1288" d="M689.287,1411.531c.22-.009.407-.016.6-.016h0v-.5c-.208,0-.415.006-.62.016Z" fill="#4d4d4d"/>
              </g>
            </g>
          </g>
        </g>
      </g>
      <g id="Group_2938" data-name="Group 2938">
        <g id="Group_2937" data-name="Group 2937">
          <g id="Group_2936" data-name="Group 2936">
            <g id="Group_2935" data-name="Group 2935">
              <g id="Group_2934" data-name="Group 2934">
                <path id="Path_1289" data-name="Path 1289" d="M689.277,1411.281c.2-.008.405-.017.608-.017l46.772,14.174h0a5.717,5.717,0,0,1-5.669,5.669H687.177a8.624,8.624,0,0,1-8.63-8.617A11.339,11.339,0,0,1,689.277,1411.281Z" fill="#524da1"/>
              </g>
            </g>
          </g>
        </g>
      </g>
      <g id="Group_2943" data-name="Group 2943">
        <g id="Group_2942" data-name="Group 2942">
          <g id="Group_2941" data-name="Group 2941">
            <g id="Group_2940" data-name="Group 2940">
              <g id="Group_2939" data-name="Group 2939">
                <path id="Path_1290" data-name="Path 1290" d="M736.657,1425.438h0l24.094,2.834s-.385,2.835-8.5,2.835a158.193,158.193,0,0,1-17.632-1.313A5.658,5.658,0,0,0,736.657,1425.438Z" fill="#e5e5e5"/>
              </g>
            </g>
          </g>
        </g>
      </g>
      <g id="Group_2948" data-name="Group 2948">
        <g id="Group_2947" data-name="Group 2947">
          <g id="Group_2946" data-name="Group 2946">
            <g id="Group_2945" data-name="Group 2945">
              <g id="Group_2944" data-name="Group 2944">
                <path id="Path_1291" data-name="Path 1291" d="M672.946,1430.545c.739-11.2,7.713-18.916,16.331-19.264a11.339,11.339,0,0,0-10.73,11.209,8.624,8.624,0,0,0,8.63,8.617h43.811a5.631,5.631,0,0,0,.807-.064,29.814,29.814,0,0,1-14.981,4.316s-4.273,4.245-12.756,5.387v3.117c0,3.448-4.251,4.252-4.251,4.252l-2.835-1.417s2.311-5.67-1.417-5.67a4.987,4.987,0,0,1-1.656-.32C683.255,1439.512,676.819,1435.123,672.946,1430.545Z" fill="#e5e5e5"/>
              </g>
            </g>
          </g>
        </g>
      </g>
      <g id="Group_2953" data-name="Group 2953">
        <g id="Group_2952" data-name="Group 2952">
          <g id="Group_2951" data-name="Group 2951">
            <g id="Group_2950" data-name="Group 2950">
              <g id="Group_2949" data-name="Group 2949">
                <rect id="Rectangle_38" data-name="Rectangle 38" width="114.803" height="4.252" transform="translate(647.366 1455.202)" fill="#be8a66"/>
              </g>
            </g>
          </g>
        </g>
      </g>
    </g>
    <g id="Group_2955" data-name="Group 2955">
      <path id="Path_1292" data-name="Path 1292" d="M665.791,1401.343a1.417,1.417,0,1,0,1.417,1.418A1.418,1.418,0,0,0,665.791,1401.343Z" fill="#1a1a1a"/>
      <path id="Path_1293" data-name="Path 1293" d="M762.169,1458.7H693.9a3.953,3.953,0,0,0,.068-.667,5.464,5.464,0,0,0-.415-2.085h68.614a.75.75,0,0,0,0-1.5H692.63a5.574,5.574,0,0,0-1.094-.98l7.473-4.271a1.214,1.214,0,0,0,.426-.432l.036.018a.756.756,0,0,0,.335.079.825.825,0,0,0,.14-.013c1.682-.318,4.862-1.77,4.862-4.989V1441.4a24.376,24.376,0,0,0,12.3-5.288,30.72,30.72,0,0,0,14.965-4.359,6.392,6.392,0,0,0,2.737-1.174,158.2,158.2,0,0,0,17.435,1.283c8.527,0,9.2-3.127,9.247-3.484a.75.75,0,0,0-.655-.846l-24.028-2.826L690.1,1410.547c-.016-.005-.033,0-.049-.005s-.029-.014-.046-.017c-.048-.009-5.062-.93-10.927-6.874-6.088-6.169-11.327-5.938-11.906-5.892h-4.219a7.054,7.054,0,0,0-3.448.925,4.2,4.2,0,0,1,7.1-2.475.75.75,0,1,0,1.05-1.071,5.71,5.71,0,0,0-9.674,3.477,4.9,4.9,0,0,1,1.247-4.759.75.75,0,0,0-1.06-1.061,6.43,6.43,0,0,0-.8,8.1,19.835,19.835,0,0,0-7.69,4.152c-.016.015-.019.038-.034.054a.736.736,0,0,0-.135.218.672.672,0,0,0-.034.1.724.724,0,0,0-.012.267c0,.022-.008.042,0,.064,0,.006.006.01.008.016s0,.016,0,.024a.757.757,0,0,0,.152.283c.016.019.038.03.056.048a.721.721,0,0,0,.224.151c.016.007.025.023.042.029a33.06,33.06,0,0,0,10.171,1.461c2.1,0,3.8,1.733,5.047,5.152a26.258,26.258,0,0,1,1.294,5.514,25.85,25.85,0,0,0,5.912,12.6h0c4.956,5.858,12.141,9.362,21.357,10.413.048.017.094.023.142.038.19.062.38.109.569.152.095.021.192.05.285.066a4.774,4.774,0,0,0,.827.079c.721,0,.977.257,1.107.45.6.887.082,3.039-.384,4.187a.75.75,0,0,0,.359.953l.288.145-8.788,5.021H682.8a2.662,2.662,0,0,0-2.547,1.917H647.366a.75.75,0,0,0,0,1.5H690.62a2.989,2.989,0,0,1,.85,2.085,1.555,1.555,0,0,1-.153.667H647.366a.75.75,0,0,0,0,1.5h41.489a1.222,1.222,0,0,0-.22.668,1.25,1.25,0,0,0,1.25,1.25,4.075,4.075,0,0,0,3.449-1.918h68.835a.75.75,0,0,0,0-1.5Zm-82.751-37.627c.031-.206.055-.414.1-.617,0-.015.008-.029.012-.045a10.629,10.629,0,0,1,5.884-7.408c.033-.016.069-.027.1-.042.267-.122.539-.237.817-.336.038-.014.077-.022.115-.035.277-.1.558-.184.845-.257.119-.03.244-.047.365-.073.209-.046.417-.095.631-.128.167-.025.339-.034.509-.052l.16-.016c.279-.018.555-.045.837-.047l46.084,13.965v.005a5.036,5.036,0,0,1-.176.837c-.011.039-.021.079-.033.117a4.823,4.823,0,0,1-.315.749q-.035.068-.072.135a4.993,4.993,0,0,1-.452.677c-.026.032-.055.063-.083.095a4.813,4.813,0,0,1-.611.617,5.077,5.077,0,0,1-3.146,1.14H687.177a7.864,7.864,0,0,1-5.624-2.357,7.669,7.669,0,0,1-2.256-5.5A10.575,10.575,0,0,1,679.418,1421.076Zm72.829,9.281a151.2,151.2,0,0,1-16.079-1.128c.041-.056.072-.117.111-.174.091-.133.179-.266.26-.405.05-.087.1-.176.142-.265.07-.135.136-.273.2-.413.04-.094.078-.188.114-.283.054-.145.1-.291.145-.44.028-.094.057-.188.081-.284.039-.162.068-.326.095-.49.011-.068.031-.133.039-.2l22.064,2.6C758.6,1429.51,756.674,1430.357,752.247,1430.357Zm-93.783-28.194,2.181,2.182a27.137,27.137,0,0,0-7.239-.125A18.163,18.163,0,0,1,658.464,1402.163Zm2.243,3.718-.762.381a35.549,35.549,0,0,1-6.193-.571A26.019,26.019,0,0,1,660.707,1405.881Zm1.609.873.976-.488c.012-.006.019-.02.031-.026a.752.752,0,0,0,.228-.192l.011-.012a.749.749,0,0,0,.112-.224c.006-.019,0-.038.005-.056s.015-.026.017-.041a.5.5,0,0,0-.006-.077.682.682,0,0,0-.016-.212.592.592,0,0,0-.033-.109.758.758,0,0,0-.116-.19c-.016-.019-.021-.044-.039-.062l-4.007-4.008c.312-1.734,3.453-1.8,3.486-1.8h4.243a.715.715,0,0,0,.079-.005c.046-.005,4.953-.4,10.726,5.451a29.36,29.36,0,0,0,8.492,6.177c-.1.023-.205.059-.309.084-.251.06-.5.129-.744.2-.2.059-.394.121-.589.188-.333.112-.662.231-.985.365l-.108.048c-4.7,1.984-8.366,6.239-10.243,11.885l-.025.074c-.148.448-.284.9-.409,1.367-.045.167-.086.336-.128.5-.093.377-.184.753-.262,1.14-.066.325-.119.659-.174.992-.043.265-.094.525-.131.8,0,.03-.01.059-.014.089a24.524,24.524,0,0,1-4.431-10.349C667.909,1417.843,666.93,1408.958,662.316,1406.754Zm33.238,33.524a3.428,3.428,0,0,1-.624-.065c-.045-.008-.091-.022-.137-.031a5.164,5.164,0,0,1-.564-.159c-2.567-.88-5.531-3.872-6.6-5.147a.75.75,0,1,0-1.147.966,27.425,27.425,0,0,0,3.642,3.491c-6.9-1.418-12.407-4.435-16.394-9.033.02-.261.052-.515.079-.772.039-.367.074-.735.126-1.094.059-.4.134-.785.209-1.173.045-.233.085-.468.136-.7.113-.5.242-1,.383-1.483.025-.088.048-.178.074-.265a20.156,20.156,0,0,1,4.624-8.125c-.19.338-.365.684-.522,1.04-.029.065-.063.126-.091.191a12.127,12.127,0,0,0-.458,1.3c-.034.119-.061.24-.092.36q-.135.519-.223,1.055c-.022.134-.046.268-.063.4a11.98,11.98,0,0,0-.11,1.438,9.163,9.163,0,0,0,2.69,6.573,9.357,9.357,0,0,0,6.69,2.8h41.485a28.27,28.27,0,0,1-11.848,2.752.746.746,0,0,0-.528.218c-.041.04-4.225,4.085-12.328,5.176a.75.75,0,0,0-.65.743v3.117c0,2.393-2.594,3.251-3.407,3.461l-2-1c.38-1.159.959-3.51,0-4.933A2.649,2.649,0,0,0,695.554,1440.278Z" fill="#1a1a1a"/>
    </g>
  </g>
</svg>