<?xml version="1.0" encoding="utf-8"?>
<svg width="800px" height="800px" viewBox="0 -13.46 80.87 80.87" xmlns="http://www.w3.org/2000/svg">
  <g id="Group_3264" data-name="Group 3264" transform="translate(-325.677 -1227.626)">
    <g id="Group_3262" data-name="Group 3262">
      <g id="Group_3221" data-name="Group 3221">
        <g id="Group_3220" data-name="Group 3220">
          <g id="Group_3219" data-name="Group 3219">
            <g id="Group_3218" data-name="Group 3218">
              <g id="Group_3217" data-name="Group 3217">
                <rect id="Rectangle_40" data-name="Rectangle 40" width="79.37" height="4.252" transform="translate(326.427 1265.227)" fill="#fda654"/>
              </g>
            </g>
          </g>
        </g>
      </g>
      <g id="Group_3226" data-name="Group 3226">
        <g id="Group_3225" data-name="Group 3225">
          <g id="Group_3224" data-name="Group 3224">
            <g id="Group_3223" data-name="Group 3223">
              <g id="Group_3222" data-name="Group 3222">
                <path id="Path_1348" data-name="Path 1348" d="M334.931,1234.045c-4.822,1.476-5.67,4.252-5.67,4.252,2.572-1.585,7.087-1.417,7.087-1.417v-1.417Z" fill="#b3b3b3"/>
              </g>
            </g>
          </g>
        </g>
      </g>
      <g id="Group_3231" data-name="Group 3231">
        <g id="Group_3230" data-name="Group 3230">
          <g id="Group_3229" data-name="Group 3229">
            <g id="Group_3228" data-name="Group 3228">
              <g id="Group_3227" data-name="Group 3227">
                <path id="Path_1349" data-name="Path 1349" d="M401.545,1280.817l-15.273-20.826c-1.114.1-2.455.219-4.008.332l14.324,19.533A15.4,15.4,0,0,0,401.545,1280.817Z" fill="#be685c"/>
              </g>
            </g>
          </g>
        </g>
      </g>
      <g id="Group_3236" data-name="Group 3236">
        <g id="Group_3235" data-name="Group 3235">
          <g id="Group_3234" data-name="Group 3234">
            <g id="Group_3233" data-name="Group 3233">
              <g id="Group_3232" data-name="Group 3232">
                <path id="Path_1350" data-name="Path 1350" d="M378.2,1260.581l14.135,19.275a15.4,15.4,0,0,0,4.957.961l-.7-.961-14.324-19.533C381.04,1260.412,379.683,1260.5,378.2,1260.581Z" fill="#be685c"/>
              </g>
            </g>
          </g>
        </g>
      </g>
      <g id="Group_3241" data-name="Group 3241">
        <g id="Group_3240" data-name="Group 3240">
          <g id="Group_3239" data-name="Group 3239">
            <g id="Group_3238" data-name="Group 3238">
              <g id="Group_3237" data-name="Group 3237">
                <path id="Path_1351" data-name="Path 1351" d="M377.317,1260.628c-1.426.073-2.961.138-4.6.192,1.167,1.568,3.264,4.382,5.388,7.223,2.8,3.74,5.632,7.517,6.427,8.522a11.3,11.3,0,0,0,8.5,4.252l-.7-.961L378.2,1260.581C377.908,1260.6,377.62,1260.613,377.317,1260.628Z" fill="#be685c"/>
              </g>
            </g>
          </g>
        </g>
      </g>
      <g id="Group_3246" data-name="Group 3246">
        <g id="Group_3245" data-name="Group 3245">
          <g id="Group_3244" data-name="Group 3244">
            <g id="Group_3243" data-name="Group 3243">
              <g id="Group_3242" data-name="Group 3242">
                <path id="Path_1352" data-name="Path 1352" d="M378.2,1260.581l14.135,19.276L378.2,1260.581Z" fill="#be685c"/>
              </g>
            </g>
          </g>
        </g>
      </g>
      <g id="Group_3251" data-name="Group 3251">
        <g id="Group_3250" data-name="Group 3250">
          <g id="Group_3249" data-name="Group 3249">
            <g id="Group_3248" data-name="Group 3248">
              <g id="Group_3247" data-name="Group 3247">
                <path id="Path_1353" data-name="Path 1353" d="M360.442,1238.3H356.19c-9.874,0-11.338,7.085-11.338,9.921s1.588,12.756,18.425,12.756c3.442,0,6.6-.059,9.445-.154,1.634-.054,3.169-.119,4.6-.192.3-.015.591-.031.884-.047h0c1.482-.081,2.839-.169,4.063-.258,1.553-.113,2.894-.227,4.008-.332,2.56-.242,3.934-.434,3.934-.434C374.973,1238.919,360.442,1238.3,360.442,1238.3Z" fill="#be685c"/>
              </g>
            </g>
          </g>
        </g>
      </g>
      <g id="Group_3256" data-name="Group 3256">
        <g id="Group_3255" data-name="Group 3255">
          <g id="Group_3254" data-name="Group 3254">
            <g id="Group_3253" data-name="Group 3253">
              <g id="Group_3252" data-name="Group 3252">
                <path id="Path_1354" data-name="Path 1354" d="M351.728,1235.471a15.428,15.428,0,0,1-4.041-4.26s-1.435-2.835-7.087-2.835-5.669,5.669-5.669,5.669l1.417,1.418v1.417c4.814,3.562,5.073,7.145,5.674,11.112C342.077,1246.319,342.78,1235.641,351.728,1235.471Z" fill="#bd99a1"/>
              </g>
            </g>
          </g>
        </g>
      </g>
      <g id="Group_3261" data-name="Group 3261">
        <g id="Group_3260" data-name="Group 3260">
          <g id="Group_3259" data-name="Group 3259">
            <g id="Group_3258" data-name="Group 3258">
              <g id="Group_3257" data-name="Group 3257">
                <path id="Path_1355" data-name="Path 1355" d="M378.11,1268.043c-2.124-2.841-4.221-5.655-5.388-7.223-2.848.1-6,.154-9.445.154-16.837,0-18.425-9.919-18.425-12.756s1.465-9.921,11.339-9.921h4.251a14.61,14.61,0,0,1-8.714-2.826c-8.948.17-9.651,10.848-9.706,12.521a18.279,18.279,0,0,0,5.665,11.565C354.8,1266.617,370.912,1267.853,378.11,1268.043Z" fill="#be685c"/>
              </g>
            </g>
          </g>
        </g>
      </g>
    </g>
    <g id="Group_3263" data-name="Group 3263">
      <path id="Path_1356" data-name="Path 1356" d="M339.891,1231.211a1.208,1.208,0,1,0,1.209,1.208A1.209,1.209,0,0,0,339.891,1231.211Z" fill="#1a1a1a"/>
      <path id="Path_1357" data-name="Path 1357" d="M405.8,1268.728H393.61l-2.018-2.752h14.2a.75.75,0,0,0,0-1.5h-15.3l-2.838-3.869c1.694-.175,2.61-.3,2.656-.307a.75.75,0,0,0,.5-1.188c-15.271-20.689-29.727-21.538-30.336-21.564h-.032a13.824,13.824,0,0,1-8.274-2.683,14.912,14.912,0,0,1-3.812-3.992c-.067-.133-1.712-3.246-7.756-3.246a6.126,6.126,0,0,0-6.39,5.872c-4.7,1.613-5.628,4.455-5.666,4.58a.751.751,0,0,0,1.111.858c2.03-1.251,5.505-1.317,6.43-1.31,4.1,3.118,4.566,6.209,5.092,9.779l.1.7a19.2,19.2,0,0,0,9.968,14.955h-.728a4.253,4.253,0,0,0-3.181,1.417H326.427a.75.75,0,0,0,0,1.5h28.346a2.087,2.087,0,0,1,2.085,2.084,2.048,2.048,0,0,1-.12.667H326.427a.75.75,0,0,0,0,1.5h20.912a4.254,4.254,0,0,0,3.182,1.418.746.746,0,0,0,.327-1.418h3.6a.745.745,0,0,0,.326,1.418,3.567,3.567,0,0,0,2.836-1.418h21.2c2.823,3.771,4.55,6.057,5.14,6.8a12,12,0,0,0,9.035,4.537h.076a.749.749,0,0,0,.654-.419c.013-.026.006-.056.016-.083a15.561,15.561,0,0,0,3.537.5h.036a.749.749,0,0,0,.661-.416c.014-.027.007-.059.017-.087a15.574,15.574,0,0,0,3.538.5h.036a.751.751,0,0,0,.6-1.194l-7.44-10.145H405.8a.75.75,0,0,0,0-1.5Zm-16.968-9.757c-.645.074-1.528.169-2.628.273-1.237.117-2.581.229-3.991.331h0c-.78.057-1.587.109-2.4.16-.545.033-1.091.066-1.646.1h0l-.836.045-.046,0c-1.471.075-3.012.14-4.581.192h0c-3.076.1-6.246.153-9.42.153-16.823,0-17.675-10-17.675-12.006,0-1.531.51-9.171,10.588-9.171h4.232a25.581,25.581,0,0,1,8.955,2.862C374.165,1244.291,381.361,1249.172,388.829,1258.971ZM334.724,1234.9l.874.873v.354a19.444,19.444,0,0,0-4.125.5A10.186,10.186,0,0,1,334.724,1234.9Zm2.374,1.606v-1.044a.75.75,0,0,0-.22-.53l-1.181-1.181a4.71,4.71,0,0,1,4.9-4.625c5.05,0,6.368,2.333,6.436,2.459a15.287,15.287,0,0,0,2.815,3.327c-.08.016-.153.039-.232.057-.183.04-.365.082-.541.131-.107.03-.21.064-.313.1-.16.051-.318.1-.472.164-.1.039-.2.08-.3.123-.148.063-.292.13-.434.2-.094.046-.187.092-.278.141-.142.077-.279.158-.414.242-.081.05-.164.1-.243.15-.147.1-.287.2-.426.3-.059.045-.122.087-.18.132-.193.154-.38.313-.558.479-.021.02-.04.042-.061.062q-.234.222-.45.457c-.056.061-.108.124-.162.186-.105.12-.209.241-.308.365-.058.072-.112.147-.168.221-.089.118-.177.237-.261.358-.054.078-.107.157-.159.236-.08.122-.157.244-.232.368-.048.08-.1.16-.143.24-.074.129-.145.259-.215.389-.04.077-.082.153-.121.23-.074.146-.143.292-.211.438-.03.063-.061.126-.089.189-.094.21-.184.42-.267.63l-.017.046q-.115.294-.218.588c-.025.07-.047.139-.07.209-.047.138-.093.277-.135.414-.026.083-.049.165-.074.247-.036.124-.072.248-.1.37l-.031.107A12.558,12.558,0,0,0,337.1,1236.506Zm5.677,11.446c0-.044.005-.1.008-.156,0-.071.006-.14.011-.227s.015-.191.023-.289.014-.187.024-.3.027-.248.042-.374.024-.224.04-.348c.019-.142.045-.3.069-.454.02-.127.036-.247.06-.381.028-.166.067-.344.1-.518.027-.135.05-.265.081-.4.043-.19.1-.389.148-.585.035-.134.064-.263.1-.4.063-.221.14-.447.215-.672.039-.116.07-.231.112-.348.123-.343.259-.687.412-1.028a11.966,11.966,0,0,1,.615-1.191c.074-.125.159-.232.236-.351.153-.236.3-.475.469-.688.1-.13.214-.239.32-.36.156-.18.308-.366.474-.527.121-.116.253-.212.379-.319.166-.141.329-.29.5-.415.138-.1.287-.174.43-.261.179-.11.354-.225.542-.319.153-.076.318-.133.477-.2.192-.079.38-.164.581-.228.169-.053.349-.088.525-.131.2-.05.406-.105.619-.14.184-.03.379-.042.57-.061s.363-.038.551-.046a15.707,15.707,0,0,0,2.485,1.428c-.032,0-.058.012-.09.016a15.354,15.354,0,0,0-1.594.273l-.013,0a12.548,12.548,0,0,0-1.4.415c-.039.013-.08.025-.118.039a11.079,11.079,0,0,0-1.167.512l-.15.074a10.016,10.016,0,0,0-.98.592c-.049.034-.1.067-.148.1a9.347,9.347,0,0,0-.825.658c-.044.039-.086.078-.128.117a9.123,9.123,0,0,0-.7.714l-.1.117a9.423,9.423,0,0,0-.583.763c-.022.032-.042.064-.063.1-.179.268-.344.538-.49.808l-.023.045q-.218.41-.39.815l-.023.051c-.112.267-.209.53-.3.789-.011.031-.022.062-.032.093-.082.248-.151.489-.211.724-.01.036-.019.071-.028.107q-.084.341-.144.653c-.006.036-.013.071-.02.107q-.055.3-.09.572c-.005.032-.009.061-.012.092-.022.175-.039.337-.051.481l0,.064c-.011.143-.019.272-.023.377v.026c0,.107-.005.2-.005.255a12.376,12.376,0,0,0,3.086,7.938c3.261,3.695,8.674,5.568,16.089,5.568,1.563,0,3.125-.013,4.675-.038.508-.008,1-.025,1.509-.035.968-.021,1.94-.038,2.893-.068,1.011,1.357,2.565,3.442,4.219,5.656-7.37-.315-21.866-1.772-28.358-8.215A17.551,17.551,0,0,1,342.775,1247.952Zm14.888,18.014a.728.728,0,0,0,.3-.092,71.654,71.654,0,0,0,18.279,2.854H358.29a3.458,3.458,0,0,0-.627-2.762Zm27.462,10.133c-.658-.831-2.876-3.772-6.414-8.505-1.676-2.242-3.335-4.467-4.534-6.075l.357-.016c.957-.038,1.9-.079,2.814-.125h.005l.483-.025,13.594,18.537A10.566,10.566,0,0,1,385.125,1276.1Zm7.68,3.128-13.183-17.977.3-.019c.476-.03.942-.061,1.407-.092l.575-.038,13.812,18.834A15.67,15.67,0,0,1,392.8,1279.227Zm4.252,0-13.389-18.258.317-.027c.462-.038.906-.076,1.348-.115l.586-.05,6.372,8.689,0,.012a.743.743,0,0,0,.529.706l7.15,9.75A15.742,15.742,0,0,1,397.057,1279.227Z" fill="#1a1a1a"/>
      <path id="Path_1358" data-name="Path 1358" d="M371.251,1248.749a.75.75,0,0,0,1.06-1.06l-4.252-4.252a.75.75,0,0,0-1.06,1.06Z" fill="#1a1a1a"/>
      <path id="Path_1359" data-name="Path 1359" d="M379.755,1257.253a.75.75,0,1,0,1.06-1.061l-4.252-4.251a.75.75,0,0,0-1.06,1.06Z" fill="#1a1a1a"/>
      <path id="Path_1360" data-name="Path 1360" d="M358.495,1243.437a.749.749,0,0,0,0,1.06l4.252,4.252a.75.75,0,0,0,1.06-1.06l-4.252-4.252A.749.749,0,0,0,358.495,1243.437Z" fill="#1a1a1a"/>
      <path id="Path_1361" data-name="Path 1361" d="M371.251,1257.253a.75.75,0,1,0,1.06-1.061l-4.252-4.251A.75.75,0,0,0,367,1253Z" fill="#1a1a1a"/>
      <path id="Path_1362" data-name="Path 1362" d="M351.052,1243.437a.75.75,0,1,0-1.061,1.06l4.252,4.252a.75.75,0,1,0,1.061-1.06Z" fill="#1a1a1a"/>
      <path id="Path_1363" data-name="Path 1363" d="M359.555,1251.941a.75.75,0,0,0-1.06,1.06l4.252,4.252a.75.75,0,0,0,1.06-1.061Z" fill="#1a1a1a"/>
      <path id="Path_1364" data-name="Path 1364" d="M351.052,1251.941a.75.75,0,1,0-1.061,1.06l4.252,4.252a.75.75,0,0,0,1.061-1.061Z" fill="#1a1a1a"/>
    </g>
  </g>
</svg>