<?xml version="1.0" encoding="utf-8"?>
<svg width="800px" height="800px" viewBox="0 -12.56 82.288 82.288" xmlns="http://www.w3.org/2000/svg">
  <g id="Group_3123" data-name="Group 3123" transform="translate(-190.792 -1301.359)">
    <g id="Group_3121" data-name="Group 3121">
      <g id="Group_3019" data-name="Group 3019">
        <g id="Group_3018" data-name="Group 3018">
          <g id="Group_3017" data-name="Group 3017">
            <g id="Group_3016" data-name="Group 3016">
              <g id="Group_3015" data-name="Group 3015">
                <circle id="Ellipse_139" data-name="Ellipse 139" cx="1.417" cy="1.417" r="1.417" transform="translate(207.133 1305.331)" fill="#7a7a7a"/>
              </g>
            </g>
          </g>
        </g>
      </g>
      <g id="Group_3024" data-name="Group 3024">
        <g id="Group_3023" data-name="Group 3023">
          <g id="Group_3022" data-name="Group 3022">
            <g id="Group_3021" data-name="Group 3021">
              <g id="Group_3020" data-name="Group 3020">
                <path id="Path_1307" data-name="Path 1307" d="M203.853,1315.469c.052-.056.1-.113.158-.167C203.956,1315.356,203.9,1315.413,203.853,1315.469Z" fill="none"/>
              </g>
            </g>
          </g>
        </g>
      </g>
      <g id="Group_3029" data-name="Group 3029">
        <g id="Group_3028" data-name="Group 3028">
          <g id="Group_3027" data-name="Group 3027">
            <g id="Group_3026" data-name="Group 3026">
              <g id="Group_3025" data-name="Group 3025">
                <path id="Path_1308" data-name="Path 1308" d="M204.347,1315.011c-.065.05-.125.106-.186.16.061-.054.121-.11.186-.16Z" fill="none"/>
              </g>
            </g>
          </g>
        </g>
      </g>
      <g id="Group_3034" data-name="Group 3034">
        <g id="Group_3033" data-name="Group 3033">
          <g id="Group_3032" data-name="Group 3032">
            <g id="Group_3031" data-name="Group 3031">
              <g id="Group_3030" data-name="Group 3030">
                <path id="Path_1309" data-name="Path 1309" d="M205.716,1308.165h0l-1.418,1.418s-1.385-.09-2.787-.308a7.909,7.909,0,0,0,2.836,5.736,7.013,7.013,0,0,1,4.2-1.213,15.755,15.755,0,0,0,2.755-.241C209.793,1308.357,205.716,1308.165,205.716,1308.165Z" fill="#be8a66"/>
              </g>
            </g>
          </g>
        </g>
      </g>
      <g id="Group_3039" data-name="Group 3039">
        <g id="Group_3038" data-name="Group 3038">
          <g id="Group_3037" data-name="Group 3037">
            <g id="Group_3036" data-name="Group 3036">
              <g id="Group_3035" data-name="Group 3035">
                <path id="Path_1310" data-name="Path 1310" d="M208.674,1302.124c-.266-.009-.54-.015-.832-.015-3.523,0-6.378,2.077-6.378,4.639,0,.033,0,.07,0,.1a22.832,22.832,0,0,1,2.835-.1l1.418,1.417s4.077.192,5.589,5.392a11.266,11.266,0,0,0,7.167-3.974C214.011,1305.122,215.1,1302.339,208.674,1302.124Z" fill="#333"/>
              </g>
            </g>
          </g>
        </g>
      </g>
      <g id="Group_3044" data-name="Group 3044">
        <g id="Group_3043" data-name="Group 3043">
          <g id="Group_3042" data-name="Group 3042">
            <g id="Group_3041" data-name="Group 3041">
              <g id="Group_3040" data-name="Group 3040">
                <path id="Path_1311" data-name="Path 1311" d="M204.3,1306.748a22.832,22.832,0,0,0-2.835.1c-1.417.153-2.834.507-2.834,1.313,0,.531,1.449.888,2.882,1.11,1.4.218,2.787.308,2.787.308l1.418-1.418Z" fill="#b3b3b3"/>
              </g>
            </g>
          </g>
        </g>
      </g>
      <g id="Group_3049" data-name="Group 3049">
        <g id="Group_3048" data-name="Group 3048">
          <g id="Group_3047" data-name="Group 3047">
            <g id="Group_3046" data-name="Group 3046">
              <g id="Group_3045" data-name="Group 3045">
                <path id="Path_1312" data-name="Path 1312" d="M191.542,1322.339l35.433,35.433h4.252l-39.685-39.685Z" fill="#be8a66"/>
              </g>
            </g>
          </g>
        </g>
      </g>
      <g id="Group_3060" data-name="Group 3060">
        <g id="Group_3054" data-name="Group 3054">
          <g id="Group_3053" data-name="Group 3053">
            <g id="Group_3052" data-name="Group 3052">
              <g id="Group_3051" data-name="Group 3051">
                <g id="Group_3050" data-name="Group 3050">
                  <path id="Path_1313" data-name="Path 1313" d="M202.913,1318.745c-.017-.219-.032-.438-.032-.658C202.881,1318.309,202.893,1318.528,202.913,1318.745Z" fill="#333"/>
                </g>
              </g>
            </g>
          </g>
        </g>
        <g id="Group_3059" data-name="Group 3059">
          <g id="Group_3058" data-name="Group 3058">
            <g id="Group_3057" data-name="Group 3057">
              <g id="Group_3056" data-name="Group 3056">
                <g id="Group_3055" data-name="Group 3055">
                  <path id="Path_1314" data-name="Path 1314" d="M257.59,1335.094h-.851c-16.993,0-52.637-3.607-53.826-16.349.325,4.022,3.6,7.673,8.472,10.794a46.962,46.962,0,0,0,4.447,2.5c1.15.571,2.353,1.117,3.593,1.639,2.4,1.012,4.942,1.932,7.55,2.747a92.04,92.04,0,0,0,25.512,4.34c17.283,0,19.843-1.418,19.843-1.418A83.505,83.505,0,0,1,257.59,1335.094Z" fill="#333"/>
                </g>
              </g>
            </g>
          </g>
        </g>
      </g>
      <g id="Group_3065" data-name="Group 3065">
        <g id="Group_3064" data-name="Group 3064">
          <g id="Group_3063" data-name="Group 3063">
            <g id="Group_3062" data-name="Group 3062">
              <g id="Group_3061" data-name="Group 3061">
                <path id="Path_1315" data-name="Path 1315" d="M226.975,1336.424a79.876,79.876,0,0,1-8.537-3.179l-.16-.07c-.834-.369-1.656-.745-2.446-1.137l-.2-.1v4.574a1.452,1.452,0,0,0,1.417,1.417h9.922Z" fill="#e5e5e5"/>
              </g>
            </g>
          </g>
        </g>
      </g>
      <g id="Group_3070" data-name="Group 3070">
        <g id="Group_3069" data-name="Group 3069">
          <g id="Group_3068" data-name="Group 3068">
            <g id="Group_3067" data-name="Group 3067">
              <g id="Group_3066" data-name="Group 3066">
                <path id="Path_1316" data-name="Path 1316" d="M203.853,1315.469c.052-.056.1-.113.158-.167C203.956,1315.356,203.9,1315.413,203.853,1315.469Z" fill="none"/>
              </g>
            </g>
          </g>
        </g>
      </g>
      <g id="Group_3075" data-name="Group 3075">
        <g id="Group_3074" data-name="Group 3074">
          <g id="Group_3073" data-name="Group 3073">
            <g id="Group_3072" data-name="Group 3072">
              <g id="Group_3071" data-name="Group 3071">
                <path id="Path_1317" data-name="Path 1317" d="M204.347,1315.011c-.065.05-.125.106-.186.16.061-.054.121-.11.186-.16Z" fill="none"/>
              </g>
            </g>
          </g>
        </g>
      </g>
      <g id="Group_3080" data-name="Group 3080">
        <g id="Group_3079" data-name="Group 3079">
          <g id="Group_3078" data-name="Group 3078">
            <g id="Group_3077" data-name="Group 3077">
              <g id="Group_3076" data-name="Group 3076">
                <path id="Path_1318" data-name="Path 1318" d="M205.716,1308.165h0l-1.418,1.418s-1.385-.09-2.787-.308a7.909,7.909,0,0,0,2.836,5.736,7.013,7.013,0,0,1,4.2-1.213,15.755,15.755,0,0,0,2.755-.241C209.793,1308.357,205.716,1308.165,205.716,1308.165Z" fill="#e5e5e5"/>
              </g>
            </g>
          </g>
        </g>
      </g>
      <g id="Group_3085" data-name="Group 3085">
        <g id="Group_3084" data-name="Group 3084">
          <g id="Group_3083" data-name="Group 3083">
            <g id="Group_3082" data-name="Group 3082">
              <g id="Group_3081" data-name="Group 3081">
                <path id="Path_1319" data-name="Path 1319" d="M204.3,1306.748a22.832,22.832,0,0,0-2.835.1c-1.417.153-2.834.507-2.834,1.313,0,.531,1.449.888,2.882,1.11,1.4.218,2.787.308,2.787.308l1.418-1.418Z" fill="#666"/>
              </g>
            </g>
          </g>
        </g>
      </g>
      <g id="Group_3090" data-name="Group 3090">
        <g id="Group_3089" data-name="Group 3089">
          <g id="Group_3088" data-name="Group 3088">
            <g id="Group_3087" data-name="Group 3087">
              <g id="Group_3086" data-name="Group 3086">
                <path id="Path_1320" data-name="Path 1320" d="M211.385,1329.539v2.721a1.416,1.416,0,0,0,1.417,1.417h2.835v-1.739A46.616,46.616,0,0,1,211.385,1329.539Z" fill="#e5e5e5"/>
              </g>
            </g>
          </g>
        </g>
      </g>
      <g id="Group_3095" data-name="Group 3095">
        <g id="Group_3094" data-name="Group 3094">
          <g id="Group_3093" data-name="Group 3093">
            <g id="Group_3092" data-name="Group 3092">
              <g id="Group_3091" data-name="Group 3091">
                <path id="Path_1321" data-name="Path 1321" d="M226.975,1336.424a79.876,79.876,0,0,1-8.537-3.179l-.16-.07c-.834-.369-1.656-.745-2.446-1.137l-.2-.1v4.574a1.452,1.452,0,0,0,1.417,1.417h9.922Z" fill="#e5e5e5"/>
              </g>
            </g>
          </g>
        </g>
      </g>
      <g id="Group_3100" data-name="Group 3100">
        <g id="Group_3099" data-name="Group 3099">
          <g id="Group_3098" data-name="Group 3098">
            <g id="Group_3097" data-name="Group 3097">
              <g id="Group_3096" data-name="Group 3096">
                <path id="Path_1322" data-name="Path 1322" d="M226.976,1337.929l8.5,15.591,1.418-5.67,5.669,2.835-6.481-11.882c-3.036-.648-6.114-1.444-9.11-2.379Z" fill="#666"/>
              </g>
            </g>
          </g>
        </g>
      </g>
      <g id="Group_3105" data-name="Group 3105">
        <g id="Group_3104" data-name="Group 3104">
          <g id="Group_3103" data-name="Group 3103">
            <g id="Group_3102" data-name="Group 3102">
              <g id="Group_3101" data-name="Group 3101">
                <path id="Path_1323" data-name="Path 1323" d="M236.064,1323.75a118.961,118.961,0,0,1-17.592-14.167,11.266,11.266,0,0,1-7.167,3.974S213.452,1323.511,236.064,1323.75Z" fill="#985c4c"/>
              </g>
            </g>
          </g>
        </g>
      </g>
      <g id="Group_3110" data-name="Group 3110">
        <g id="Group_3109" data-name="Group 3109">
          <g id="Group_3108" data-name="Group 3108">
            <g id="Group_3107" data-name="Group 3107">
              <g id="Group_3106" data-name="Group 3106">
                <path id="Path_1324" data-name="Path 1324" d="M236.064,1323.75c-22.612-.239-24.759-10.192-24.759-10.193a15.755,15.755,0,0,1-2.755.241,7.013,7.013,0,0,0-4.2,1.213c-.065.05-.125.106-.186.16s-.1.086-.15.131-.106.111-.158.167-.1.106-.143.161-.09.117-.133.177-.088.125-.129.19-.073.123-.108.186-.076.147-.11.222-.057.127-.083.193c-.032.085-.06.173-.087.262-.02.064-.04.127-.056.192-.026.1-.045.215-.062.326-.009.057-.022.112-.029.17a4.679,4.679,0,0,0-.032.539c0,13.277,36.575,17.007,53.858,17.007h.852A111.8,111.8,0,0,1,236.064,1323.75Z" fill="#666"/>
              </g>
            </g>
          </g>
        </g>
      </g>
      <g id="Group_3115" data-name="Group 3115">
        <g id="Group_3114" data-name="Group 3114">
          <g id="Group_3113" data-name="Group 3113">
            <g id="Group_3112" data-name="Group 3112">
              <g id="Group_3111" data-name="Group 3111">
                <path id="Path_1325" data-name="Path 1325" d="M203.853,1315.469c.052-.056.1-.113.158-.167C203.956,1315.356,203.9,1315.413,203.853,1315.469Z" fill="none"/>
              </g>
            </g>
          </g>
        </g>
      </g>
      <g id="Group_3120" data-name="Group 3120">
        <g id="Group_3119" data-name="Group 3119">
          <g id="Group_3118" data-name="Group 3118">
            <g id="Group_3117" data-name="Group 3117">
              <g id="Group_3116" data-name="Group 3116">
                <path id="Path_1326" data-name="Path 1326" d="M204.347,1315.011c-.065.05-.125.106-.186.16.061-.054.121-.11.186-.16Z" fill="none"/>
              </g>
            </g>
          </g>
        </g>
      </g>
    </g>
    <g id="Group_3122" data-name="Group 3122">
      <circle id="Ellipse_140" data-name="Ellipse 140" cx="1.417" cy="1.417" r="1.417" transform="translate(207.133 1305.331)" fill="#1a1a1a"/>
      <path id="Path_1327" data-name="Path 1327" d="M273.07,1339.227a.75.75,0,0,0-.6-.618,82.984,82.984,0,0,1-14.607-4.214,110.653,110.653,0,0,1-21.38-11.268,119.6,119.6,0,0,1-17.472-14.067l0,0,0-.005a23.025,23.025,0,0,1-2.931-3.652c-1.531-2.245-2.637-3.867-7.372-4.025h0c-.274-.009-.556-.016-.857-.016-3.661,0-6.684,2.1-7.081,4.824-1.117.166-2.882.606-2.882,1.982,0,.983,1.165,1.435,2.958,1.756a8.549,8.549,0,0,0,2.413,5.1c-.041.044-.082.088-.12.135-.056.069-.109.141-.162.214s-.106.151-.155.229-.09.149-.132.226-.092.179-.133.269-.069.154-.1.235c-.04.1-.073.208-.106.314l-.015.049c-.018.06-.036.12-.052.183-.03.125-.053.255-.081.429-.01.052-.019.1-.026.159a5.393,5.393,0,0,0-.037.625c0,.26.016.516.041.77.337,3.9,3.187,7.625,8.463,11.085v1.432l-5.693-.948-12.869-12.87a.75.75,0,0,0-1.061,1.061l11.512,11.512a2.153,2.153,0,0,0-1.336.794l-9.115-9.115a.75.75,0,0,0-1.061,1.061l9.737,9.736a2.159,2.159,0,0,0,1.786,1.787l2.466,2.466a2.16,2.16,0,0,0,1.786,1.786l19.658,19.658a.75.75,0,1,0,1.061-1.061L207.664,1337.4h0l-1.145-1.145a.667.667,0,0,1,.587-.4l1.368.228L230.7,1358.3a.75.75,0,0,0,1.061-1.061L211.019,1336.5l3.976.663a2.256,2.256,0,0,0,1.966,1.508.721.721,0,0,0,.093.006h9.476l8.291,15.2a.751.751,0,0,0,.658.391.792.792,0,0,0,.1-.006.751.751,0,0,0,.632-.562l1.191-4.763,4.833,2.417a.75.75,0,0,0,.994-1.03l-5.711-10.47a80.551,80.551,0,0,0,14.973,1.658c16.987,0,19.927-1.357,20.206-1.511A.75.75,0,0,0,273.07,1339.227Zm-19.582-4.923-.507-.014c-.422-.011-.846-.024-1.281-.039l-.478-.018c-.461-.017-.927-.036-1.4-.058l-.439-.021q-.749-.036-1.516-.08l-.4-.023q-.817-.05-1.654-.106l-.311-.021q-.921-.066-1.86-.141l-.151-.012c-2.786-.227-5.679-.528-8.581-.914l-.152-.021q-.968-.129-1.936-.272l-.468-.071q-.805-.122-1.61-.251l-.632-.106q-.719-.12-1.434-.248-.361-.064-.722-.132-.671-.125-1.335-.256l-.755-.151c-.432-.088-.859-.18-1.286-.273-.314-.068-.63-.135-.94-.206-.115-.026-.229-.051-.343-.078l-.237-.055-.627-.149-.221-.054-.642-.16-.216-.055q-.324-.082-.649-.169l-.224-.06-.642-.174-.232-.066c-.211-.059-.421-.118-.631-.179l-.248-.073c-.205-.061-.409-.121-.614-.184l-.27-.083c-.194-.061-.389-.121-.582-.183l-.3-.1c-.184-.06-.368-.12-.55-.182l-.331-.113c-.169-.058-.337-.116-.505-.176l-.369-.133c-.153-.056-.306-.111-.458-.168l-.4-.152-.423-.164-.416-.169c-.128-.052-.257-.1-.383-.158-.149-.062-.3-.126-.443-.19-.115-.05-.23-.1-.343-.15-.155-.069-.308-.14-.461-.211-.1-.047-.205-.094-.306-.142q-.237-.114-.471-.231l-.275-.137c-.163-.083-.323-.167-.482-.252-.08-.043-.161-.085-.239-.128-.165-.089-.326-.181-.486-.273-.071-.041-.143-.081-.212-.122-.165-.1-.326-.2-.486-.3-.06-.037-.123-.075-.183-.113-.161-.1-.318-.207-.474-.313-.055-.037-.112-.073-.167-.111-.157-.108-.308-.219-.459-.33-.049-.036-.1-.071-.147-.108-.15-.113-.294-.228-.437-.344-.045-.037-.092-.072-.136-.109-.142-.119-.279-.239-.414-.361-.039-.035-.081-.07-.12-.106-.133-.123-.258-.247-.383-.372-.037-.038-.076-.074-.112-.112-.12-.124-.233-.251-.345-.378-.035-.04-.074-.08-.109-.121-.1-.124-.2-.25-.3-.376-.036-.047-.075-.093-.11-.14-.09-.122-.172-.247-.255-.372-.035-.053-.072-.1-.106-.158-.074-.12-.141-.242-.208-.363-.034-.062-.072-.122-.1-.184-.058-.112-.107-.226-.158-.339-.034-.075-.072-.149-.1-.225-.04-.1-.072-.2-.108-.3s-.069-.185-.1-.279-.042-.167-.064-.249c-.029-.116-.062-.231-.085-.348-.011-.056-.016-.114-.026-.17-.024-.147-.049-.294-.063-.444-.019-.195-.03-.392-.03-.592a4.1,4.1,0,0,1,.027-.452l.025-.139c.014-.091.028-.18.049-.265.008-.034.019-.066.029-.1l.016-.054c.022-.072.044-.143.07-.211.02-.051.042-.1.066-.153s.056-.117.086-.174.055-.1.085-.146.067-.1.1-.15.068-.094.1-.139.069-.079.105-.118l.039-.042c.032-.035.064-.071.1-.1s.051-.046.077-.068l.1-.085c.033-.03.066-.059.1-.086a6.264,6.264,0,0,1,3.745-1.057c.443,0,.88-.023,1.315-.057.134-.011.269-.027.4-.041.18-.019.36-.031.54-.056.015.039.034.082.051.123s.024.06.038.093c.04.091.083.187.131.289l.008.016c.051.107.109.219.171.335.019.035.04.071.06.107.046.083.094.168.146.256l.084.137c.052.084.106.168.163.255l.1.147c.063.092.131.186.2.282.033.045.064.089.1.135q.159.211.34.429l.019.022c.116.138.24.278.369.419l.142.149c.1.1.195.2.3.3.059.059.12.117.182.176q.153.146.317.291c.066.06.133.119.2.179.122.105.251.211.382.317.063.05.123.1.188.151.2.154.4.309.621.463.037.026.078.051.115.077q.276.192.574.383c.086.055.177.11.266.164.16.1.324.2.494.3.1.059.207.118.312.176q.258.143.53.282c.11.056.218.113.331.169.205.1.417.2.633.3.1.044.191.09.291.134.317.139.645.277.986.411.075.029.156.057.233.086.274.1.553.208.843.308.133.046.271.09.408.135.247.082.5.163.758.241.154.046.309.092.467.137.262.075.531.147.805.219.159.041.318.083.482.124.316.078.644.152.976.224.129.028.253.058.385.086.464.1.942.188,1.437.274.125.021.258.04.385.061.379.062.764.123,1.16.178.193.027.391.051.588.076.35.045.706.088,1.07.127.216.023.433.045.653.066.374.036.757.068,1.146.1.214.017.426.034.645.049.474.031.961.057,1.455.079.143.006.28.015.425.021q.907.035,1.86.049a115.066,115.066,0,0,0,17.867,9.81Zm-40.075-20.5c.094-.03.182-.063.274-.095q.372-.129.719-.271c.091-.038.182-.074.27-.113.268-.117.525-.238.768-.364l.072-.035c.265-.14.51-.282.744-.426.068-.042.131-.084.2-.126q.252-.162.478-.322c.059-.042.118-.083.174-.125.19-.141.37-.28.532-.415h0c.167-.139.313-.272.45-.4.04-.037.075-.071.112-.107.1-.094.187-.183.268-.267.015-.016.035-.035.05-.05a123.825,123.825,0,0,0,15,12.235c-.322-.015-.644-.03-.957-.049-.13-.008-.265-.014-.394-.023q-.819-.055-1.6-.13c-.126-.012-.245-.027-.369-.039-.39-.041-.774-.083-1.149-.13-.168-.021-.333-.043-.5-.066q-.493-.066-.969-.141c-.156-.024-.313-.048-.465-.073q-.531-.088-1.036-.187c-.1-.018-.2-.035-.291-.054-.423-.085-.832-.174-1.23-.267-.111-.026-.216-.053-.325-.08-.289-.07-.573-.142-.848-.217-.132-.035-.261-.072-.389-.108q-.374-.107-.731-.217c-.12-.037-.241-.074-.358-.112-.276-.089-.543-.181-.8-.274-.064-.022-.131-.044-.194-.067-.318-.116-.623-.235-.919-.356-.088-.036-.171-.073-.257-.109-.208-.088-.411-.176-.608-.266l-.295-.138c-.181-.085-.356-.171-.527-.258l-.261-.133q-.308-.162-.594-.326l-.123-.068c-.225-.131-.44-.263-.647-.4-.068-.043-.132-.087-.2-.13-.14-.092-.277-.184-.409-.276-.071-.05-.14-.1-.208-.149q-.186-.135-.361-.27l-.177-.136c-.147-.117-.288-.234-.422-.349l-.058-.048c-.15-.131-.291-.26-.426-.389l-.134-.13c-.089-.087-.176-.174-.258-.259-.045-.047-.089-.093-.132-.14-.079-.085-.155-.168-.228-.251-.035-.04-.072-.081-.1-.121-.1-.114-.191-.227-.277-.336l-.029-.038c-.084-.107-.161-.212-.234-.315-.027-.037-.052-.073-.077-.11-.05-.073-.1-.144-.144-.213-.025-.038-.049-.075-.072-.112-.043-.068-.083-.134-.122-.2-.017-.03-.037-.062-.054-.091-.051-.09-.1-.177-.142-.258l-.02-.04c-.03-.058-.057-.113-.082-.166l.026-.008C212.721,1314.015,213.074,1313.913,213.413,1313.8Zm-5.571-10.944c.284,0,.549.006.807.015,3.975.132,4.712,1.215,6.182,3.371a25.681,25.681,0,0,0,2.633,3.375h0c-.081.086-.18.186-.287.289-.028.028-.06.057-.09.086-.094.088-.2.181-.31.277l-.094.081c-.144.12-.3.245-.474.372-.036.027-.077.054-.115.081q-.218.156-.465.314l-.166.106c-.214.131-.438.261-.682.388l-.025.013c-.232.12-.484.236-.745.349-.074.032-.151.063-.228.094-.232.094-.474.184-.728.269-.06.02-.118.042-.18.062q-.465.147-.979.266c-.027.006-.056.011-.083.018-.024-.068-.052-.127-.077-.192-.04-.107-.082-.211-.125-.313-.077-.187-.158-.366-.241-.538-.044-.09-.087-.182-.133-.269-.1-.187-.2-.362-.3-.531-.034-.057-.067-.118-.1-.172q-.211-.327-.436-.612c-.033-.042-.068-.078-.1-.119-.119-.145-.239-.283-.361-.411-.054-.057-.107-.109-.161-.162-.106-.1-.211-.2-.317-.3-.057-.05-.114-.1-.171-.146-.11-.091-.22-.175-.329-.254-.05-.036-.1-.074-.148-.108q-.219-.151-.435-.278l-.031-.02c-.156-.09-.309-.169-.459-.241-.044-.021-.087-.039-.131-.059-.1-.048-.2-.092-.3-.132l-.146-.055c-.092-.034-.18-.065-.266-.093l-.126-.041c-.093-.028-.181-.052-.265-.074l-.081-.021c-.108-.026-.207-.048-.3-.064l-.039-.007c-.058-.01-.116-.021-.164-.028l-1.232-1.231a.752.752,0,0,0-.5-.22l-.069,0h-.039l-.135,0h-.348l-.345,0h-.053c-.11,0-.227,0-.349.008l-.113,0-.343.015-.127.006-.093,0C202.8,1304.228,205.093,1302.859,207.842,1302.859Zm-6.3,4.738a22.5,22.5,0,0,1,2.439-.105l.673.673-.643.644c-.488-.04-1.437-.128-2.385-.275a9.835,9.835,0,0,1-2.043-.478A5.71,5.71,0,0,1,201.543,1307.6Zm.836,2.554.027,0,.124.015.318.036.133.014.3.031.069.007.34.031h0l.26.022.062,0,.121.009.049,0,.054,0,.054,0a.753.753,0,0,0,.169-.034.643.643,0,0,0,.107-.021.756.756,0,0,0,.255-.165l1.156-1.156.047.009.07.014.161.038.071.018c.083.023.172.049.266.081.017.005.036.013.053.019.078.027.159.057.243.091l.105.044c.074.033.151.068.229.106l.109.054c.1.053.208.111.315.176.012.007.023.012.035.02.117.072.237.153.356.24.036.025.071.054.106.081.088.067.176.138.263.213.041.035.081.071.122.108.093.085.185.176.277.271.03.031.061.06.091.093.119.13.237.269.353.419.026.034.051.072.077.107.089.121.177.247.263.381.036.057.072.116.107.176.078.129.153.265.226.406.031.06.063.118.094.181.1.2.19.408.278.631-.057.006-.115.016-.172.022a15.041,15.041,0,0,1-1.579.092c-.127,0-.269,0-.42.009l-.149.009c-.11.006-.22.013-.339.024-.065.006-.132.015-.2.022-.112.012-.224.026-.342.043-.075.011-.152.025-.229.038-.116.02-.232.042-.35.068-.083.018-.164.037-.247.057-.119.03-.238.063-.359.1-.084.025-.168.05-.252.078-.124.042-.246.089-.369.139-.081.032-.162.063-.242.1-.133.059-.262.127-.392.2-.068.037-.138.069-.206.109-.015.009-.03.015-.045.024A6.869,6.869,0,0,1,202.379,1310.151Zm11.008,21.448.254.138q.556.306,1.136.6c.038.019.072.039.11.058v.528H212.8a.667.667,0,0,1-.667-.667v-1.377c.049.029.1.058.153.087Q212.825,1331.287,213.387,1331.6Zm-9.975,1.549v0L202.266,1332a.666.666,0,0,1,.587-.4l1.368.228,2.555,2.555a2.154,2.154,0,0,0-1.336.794Zm3.355-.9,3.98.664a2.162,2.162,0,0,0,2.055,1.513h2.085v1.2l-5.693-.948Zm9.62,4.262v-3.373l.114.053.407.188c.322.149.654.3.989.446l.075.034.162.071.045.019c.318.14.626.28.954.418.2.086.414.168.62.252s.425.174.639.26q.558.224,1.128.442.453.174.914.345c.341.126.685.249,1.031.372.321.114.641.227.966.339.381.13.765.256,1.151.382.216.07.425.144.644.214v.2h-9.12C216.86,1337.141,216.387,1337,216.387,1336.512Zm20.845,10.667a.751.751,0,0,0-1.063.489l-.951,3.806-7.492-13.736v-.3c.869.261,1.764.5,2.654.74.349.094.687.2,1.039.289q2.06.535,4.172,1l5.171,9.481Zm15.255-7.165a81.458,81.458,0,0,1-16.246-1.945c-3.1-.662-6.146-1.457-9.042-2.361q-1.065-.333-2.092-.683c-.268-.091-.529-.185-.793-.278-.417-.146-.833-.292-1.241-.442-.278-.1-.551-.207-.825-.312-.416-.158-.83-.317-1.234-.479-.2-.079-.394-.16-.589-.24-.566-.233-1.126-.468-1.667-.708l-.191-.083c-.906-.406-1.777-.823-2.588-1.238-.026-.013-.055-.007-.082-.017-.73-.367-1.435-.741-2.107-1.12l-.231-.135c-.266-.152-.531-.3-.787-.457q-.5-.3-.982-.609-.586-.375-1.129-.753c11.687,5.713,32.523,7.474,43.934,7.671h.048l.942.012.22,0c.32,0,.633,0,.934,0h.712a86.763,86.763,0,0,0,11.2,3.489A139.822,139.822,0,0,1,252.487,1340.014Z" fill="#1a1a1a"/>
    </g>
  </g>
</svg>