<?xml version="1.0" encoding="utf-8"?>
<svg width="800px" height="800px" viewBox="0 -2.13 56.776 56.776" xmlns="http://www.w3.org/2000/svg">
  <g id="Group_4007" data-name="Group 4007" transform="translate(-767.234 -165.756)">
    <g id="Group_4005" data-name="Group 4005">
      <g id="Group_3984" data-name="Group 3984">
        <g id="Group_3983" data-name="Group 3983">
          <g id="Group_3982" data-name="Group 3982">
            <g id="Group_3981" data-name="Group 3981">
              <g id="Group_3980" data-name="Group 3980">
                <path id="Path_1509" data-name="Path 1509" d="M803.417,217.53h4.252l-39.685-39.685V182.1Z" fill="#be8a66"/>
              </g>
            </g>
          </g>
        </g>
      </g>
      <g id="Group_3989" data-name="Group 3989">
        <g id="Group_3988" data-name="Group 3988">
          <g id="Group_3987" data-name="Group 3987">
            <g id="Group_3986" data-name="Group 3986">
              <g id="Group_3985" data-name="Group 3985">
                <path id="Path_1510" data-name="Path 1510" d="M819.008,166.505h0a22.774,22.774,0,0,0-11.339,7.086,4.252,4.252,0,0,1,4.252,4.252,22.774,22.774,0,0,1,11.339-7.086A4.252,4.252,0,0,0,819.008,166.505Z" fill="#413c6a"/>
              </g>
            </g>
          </g>
        </g>
      </g>
      <g id="Group_3994" data-name="Group 3994">
        <g id="Group_3993" data-name="Group 3993">
          <g id="Group_3992" data-name="Group 3992">
            <g id="Group_3991" data-name="Group 3991">
              <g id="Group_3990" data-name="Group 3990">
                <path id="Path_1511" data-name="Path 1511" d="M807.669,173.591a7.272,7.272,0,0,0-2.834,1.417,7.752,7.752,0,0,1-2.84,1.192,25.408,25.408,0,0,0-14.168-4.026,9.213,9.213,0,0,0-17.008,0l2.835,1.417c0,2.443,2.834,4.252,2.834,4.252s4.515,14.173,18.425,14.173a16.128,16.128,0,0,0,9.836-3.089,17.961,17.961,0,0,0,4.423-4.8,21.553,21.553,0,0,0,2.749-6.284A4.252,4.252,0,0,0,807.669,173.591Z" fill="#524da1"/>
              </g>
            </g>
          </g>
        </g>
      </g>
      <g id="Group_3999" data-name="Group 3999">
        <g id="Group_3998" data-name="Group 3998">
          <g id="Group_3997" data-name="Group 3997">
            <g id="Group_3996" data-name="Group 3996">
              <g id="Group_3995" data-name="Group 3995">
                <path id="Path_1512" data-name="Path 1512" d="M775.071,170.757v-3.272a9.334,9.334,0,0,0-4.252,4.689l2.835,1.417h2.834A3.586,3.586,0,0,0,775.071,170.757Z" fill="#b3b3b3"/>
              </g>
            </g>
          </g>
        </g>
      </g>
      <g id="Group_4004" data-name="Group 4004">
        <g id="Group_4003" data-name="Group 4003">
          <g id="Group_4002" data-name="Group 4002">
            <g id="Group_4001" data-name="Group 4001">
              <g id="Group_4000" data-name="Group 4000">
                <path id="Path_1513" data-name="Path 1513" d="M810.5,189.182c0-6.268-7.793-17.008-22.677-17.008h0a5.669,5.669,0,0,0-5.669,5.669h0c0,6.267,13.461,11.339,28.346,11.339" fill="#413c6a"/>
              </g>
            </g>
          </g>
        </g>
      </g>
    </g>
    <g id="Group_4006" data-name="Group 4006">
      <path id="Path_1514" data-name="Path 1514" d="M819.008,165.756a.731.731,0,0,0-.191.025,23.5,23.5,0,0,0-11.564,7.138,8.831,8.831,0,0,0-2.865,1.488,6.561,6.561,0,0,1-2.248.987,25.485,25.485,0,0,0-11.769-3.859h0l-.048,0c-.4-.032-.795-.059-1.2-.076h-.012q-.391-.017-.789-.024a10.063,10.063,0,0,0-13.535-4.622c-.018.007-.038,0-.055.012a10.047,10.047,0,0,0-4.616,5.1h0a.725.725,0,0,0-.016.1.683.683,0,0,0-.021.12c0,.009-.006.017-.006.026v.02c0,.012.006.023.007.034a.748.748,0,0,0,.03.17l0,.014a.23.23,0,0,0,.011.022.136.136,0,0,0,0,.02c.006.014.017.025.024.038a.691.691,0,0,0,.056.1c.014.021.029.039.044.058s.024.028.038.042a.784.784,0,0,0,.067.06.869.869,0,0,0,.08.055.469.469,0,0,0,.052.035l2.449,1.225c.264,2.169,2.25,3.766,2.929,4.253a24.946,24.946,0,0,0,8.043,10.886l-1.747,1.747-13.643-13.643a.75.75,0,0,0-1.061,1.061l12.893,12.893h-1.024a.747.747,0,0,0-.53.22l-.179.178-10.1-10.1a.75.75,0,0,0-1.061,1.061l10.1,10.1-.179.178a.749.749,0,0,0-.22.53v1.417a.75.75,0,0,0,1.5,0v-1.024l10.237,10.237-.178.179a.747.747,0,0,0-.22.53v1.417a.75.75,0,0,0,1.5,0v-1.024l12.893,12.893a.75.75,0,1,0,1.06-1.061l-12.892-12.893h2.13l2.615,2.615h0l11.34,11.34A.75.75,0,0,0,808.2,217l-11.12-11.12v-1.107a.751.751,0,0,0-.415-.671l-2.164-1.082,3.917-7.833a.754.754,0,0,0,0-.671l-.959-1.918a16.452,16.452,0,0,0,7.5-2.9c.026,0,.052,0,.078,0,.561.047,1.128.075,1.694.107.342.02.683.05,1.024.064q1.37.057,2.745.058a.75.75,0,0,0,.75-.75,8.909,8.909,0,0,0-.07-1.046c-.008-.068-.012-.134-.022-.2-.04-.287-.1-.583-.166-.883-.062-.281-.14-.565-.224-.852-.034-.113-.065-.225-.1-.339a15.243,15.243,0,0,0-.644-1.683,22.491,22.491,0,0,0,2.584-5.99,22.23,22.23,0,0,1,10.84-6.705.749.749,0,0,0,.56-.725A5.008,5.008,0,0,0,819.008,165.756ZM772.645,170.5c.037-.048.078-.1.118-.147.168-.211.357-.426.566-.641.055-.057.113-.113.171-.169a8.266,8.266,0,0,1,.713-.616l.108-.081v1.37l-1.927.643C772.476,170.741,772.55,170.626,772.645,170.5Zm.249,1.873-.12-.06,2.132-.711a2.873,2.873,0,0,1,.73,1.24h-1.8Zm17.767,30.232a.755.755,0,0,0-.53.22l-.178.179-10.237-10.237h2.131l9.838,9.838Zm2.629-.516-10.072-10.072,1.957-1.957a18.2,18.2,0,0,0,9.738,2.707c.317,0,.627-.018.938-.032l1.058,2.116Zm1.623-10.822c-13.185,0-17.532-13.094-17.71-13.652a.758.758,0,0,0-.31-.4,6.321,6.321,0,0,1-2.376-2.87h1.971a.75.75,0,0,0,.75-.75,4.325,4.325,0,0,0-1.417-3.187v-2.435a8.5,8.5,0,0,1,3.5-.715,8.164,8.164,0,0,1,7.372,4.276,6.424,6.424,0,0,0-5.287,6.313c0,3.326,3.22,6.422,9.067,8.717a50.521,50.521,0,0,0,12.044,2.881A15.87,15.87,0,0,1,794.913,191.268Zm9.9-3.087h-.009c-12.18-1.069-21.9-5.441-21.9-10.337a4.925,4.925,0,0,1,4.919-4.92c.823,0,1.619.039,2.4.1l.021,0c.094.007.188.016.281.025.664.061,1.306.15,1.936.254.134.023.271.041.4.066l.125.025c.534.1,1.049.22,1.557.348.125.032.251.064.374.1.17.046.339.092.505.141.213.063.418.134.626.2.346.112.688.227,1.006.346l.145.053c.214.082.423.168.631.255l.236.1q.32.138.63.282l.155.074a22.39,22.39,0,0,1,2.726,1.531.89.89,0,0,0,.079.045.2.2,0,0,0,.023.007,19.6,19.6,0,0,1,6.812,7.561c0,.006,0,.012,0,.018.158.323.3.643.427.961.02.048.039.1.058.145.109.277.205.552.291.824.043.14.081.278.118.416.057.2.114.407.157.606.067.319.12.632.153.935,0,.027.01.056.013.083C808.089,188.408,806.445,188.325,804.815,188.181Zm4.377-5.55a21.512,21.512,0,0,0-5.521-6.161,6.992,6.992,0,0,0,1.61-.857,7.179,7.179,0,0,1,2.442-1.265,3.568,3.568,0,0,1,.388.039c.095.013.194.015.287.034a3.431,3.431,0,0,1,.4.126c.081.028.166.045.243.079a3.44,3.44,0,0,1,.423.229c.053.032.112.056.163.091a3.4,3.4,0,0,1,.512.422c.03.03.052.066.081.1a3.569,3.569,0,0,1,.342.414c.044.066.075.14.116.209a3.69,3.69,0,0,1,.2.376c.035.084.056.175.085.262a3.586,3.586,0,0,1,.12.385c.02.1.023.2.036.3a3.572,3.572,0,0,1,.038.376A20.937,20.937,0,0,1,809.192,182.631Zm3.2-6.427c-.026-.074-.061-.144-.09-.216-.022-.054-.043-.108-.067-.161a4.976,4.976,0,0,0-.4-.74c-.024-.036-.051-.07-.077-.105a5.014,5.014,0,0,0-.508-.617c-.024-.024-.044-.05-.068-.074a5.075,5.075,0,0,0-.65-.536c-.047-.033-.1-.065-.143-.1a4.979,4.979,0,0,0-.743-.4c-.037-.016-.075-.027-.112-.042-.125-.051-.249-.1-.378-.143a22.478,22.478,0,0,1,9.944-5.812,3.508,3.508,0,0,1,3.364,2.943A23.849,23.849,0,0,0,812.4,176.2Z" fill="#1a1a1a"/>
      <path id="Path_1515" data-name="Path 1515" d="M778.614,168.841a1.208,1.208,0,1,0,1.209,1.209A1.211,1.211,0,0,0,778.614,168.841Z" fill="#1a1a1a"/>
    </g>
  </g>
</svg>