<?xml version="1.0" encoding="utf-8"?>
<svg width="800px" height="800px" viewBox="0 -10.63 73.782 73.782" xmlns="http://www.w3.org/2000/svg">
  <g id="Group_5797" data-name="Group 5797" transform="translate(-1000.417 -569.694)">
    <g id="Group_5795" data-name="Group 5795">
      <g id="Group_5740" data-name="Group 5740">
        <g id="Group_5739" data-name="Group 5739">
          <g id="Group_5738" data-name="Group 5738">
            <path id="Path_2102" data-name="Path 2102" d="M1009.67,576.114a7.685,7.685,0,0,1-2.835-2.835,6.422,6.422,0,0,0-5.669,2.835c1.274,1.12,4.252,1.417,4.252,1.417h4.252Z" fill="#666"/>
          </g>
        </g>
      </g>
      <g id="Group_5743" data-name="Group 5743">
        <g id="Group_5742" data-name="Group 5742">
          <g id="Group_5741" data-name="Group 5741">
            <path id="Path_2103" data-name="Path 2103" d="M1016.757,580.366c1.8-4.373,4.252-4.252,4.252-4.252h.587c-1.136-3.138-3.088-5.67-7.674-5.67-5.916,0-7.087,2.835-7.087,2.835a7.685,7.685,0,0,0,2.835,2.835v1.417h-4.252c5.052,4.311,6.087,6.12,6.1,8.325A10.423,10.423,0,0,0,1016.757,580.366Z" fill="#f95b67"/>
          </g>
        </g>
      </g>
      <g id="Group_5746" data-name="Group 5746">
        <g id="Group_5745" data-name="Group 5745">
          <g id="Group_5744" data-name="Group 5744">
            <circle id="Ellipse_159" data-name="Ellipse 159" cx="1.417" cy="1.417" r="1.417" transform="translate(1011.087 573.279)" fill="#e6e6e6"/>
          </g>
        </g>
      </g>
      <g id="Group_5749" data-name="Group 5749">
        <g id="Group_5748" data-name="Group 5748">
          <g id="Group_5747" data-name="Group 5747">
            <path id="Path_2104" data-name="Path 2104" d="M1023.843,594.539h26.93l-26.064-3.4A6.164,6.164,0,0,0,1023.843,594.539Z" fill="#b3b3b3"/>
          </g>
        </g>
      </g>
      <g id="Group_5752" data-name="Group 5752">
        <g id="Group_5751" data-name="Group 5751">
          <g id="Group_5750" data-name="Group 5750">
            <path id="Path_2105" data-name="Path 2105" d="M1039.225,591.459q-.769-.1-1.608-.236a35.713,35.713,0,0,1-8.1-2.354s-3.217-.207-4.8,2.27l26.064,3.4h2.834Z" fill="#b3b3b3"/>
          </g>
        </g>
      </g>
      <g id="Group_5755" data-name="Group 5755">
        <g id="Group_5754" data-name="Group 5754">
          <g id="Group_5753" data-name="Group 5753">
            <path id="Path_2106" data-name="Path 2106" d="M1029.319,588.865c.065,0,.128,0,.194,0C1029.513,588.869,1029.441,588.865,1029.319,588.865Z" fill="#e6e6e6"/>
          </g>
        </g>
      </g>
      <g id="Group_5758" data-name="Group 5758">
        <g id="Group_5757" data-name="Group 5757">
          <g id="Group_5756" data-name="Group 5756">
            <path id="Path_2107" data-name="Path 2107" d="M1012.505,590.287a4.252,4.252,0,0,0,4.252,4.252h7.086c0-5.375,4.489-5.673,5.476-5.674a17.161,17.161,0,0,1-11.728-4.771C1014.9,585.719,1012.505,588,1012.505,590.287Z" fill="#333"/>
          </g>
        </g>
      </g>
      <g id="Group_5761" data-name="Group 5761">
        <g id="Group_5760" data-name="Group 5760">
          <g id="Group_5759" data-name="Group 5759">
            <path id="Path_2108" data-name="Path 2108" d="M1038.735,586.205a17.079,17.079,0,0,1-9.222,2.664,35.713,35.713,0,0,0,8.1,2.354q.837.141,1.608.236a31.458,31.458,0,0,0,5.878.245C1043.912,589.421,1041.509,587.616,1038.735,586.205Z" fill="#333"/>
          </g>
        </g>
      </g>
      <g id="Group_5764" data-name="Group 5764">
        <g id="Group_5763" data-name="Group 5763">
          <g id="Group_5762" data-name="Group 5762">
            <path id="Path_2109" data-name="Path 2109" d="M1024.213,581.838c-.234-.037-.37-.055-.37-.055a14.712,14.712,0,0,0-6.252,2.311,17.161,17.161,0,0,0,11.728,4.771c.122,0,.194,0,.194,0a17.079,17.079,0,0,0,9.222-2.664A53.714,53.714,0,0,0,1024.213,581.838Z" fill="#666"/>
          </g>
        </g>
      </g>
      <g id="Group_5767" data-name="Group 5767">
        <g id="Group_5766" data-name="Group 5766">
          <g id="Group_5765" data-name="Group 5765">
            <path id="Path_2110" data-name="Path 2110" d="M1047.938,594.539h-9.922l15.158,3.191,11.772,2.478s6.395,1.255,8.5-1.417Z" fill="#333"/>
          </g>
        </g>
      </g>
      <g id="Group_5770" data-name="Group 5770">
        <g id="Group_5769" data-name="Group 5769">
          <g id="Group_5768" data-name="Group 5768">
            <path id="Path_2111" data-name="Path 2111" d="M1038.016,594.539h-21.259a4.252,4.252,0,0,1-4.252-4.252c0-4.252,8.3-8.5,11.338-8.5,0,0,.136.018.37.055a7.469,7.469,0,0,1-1.787-2.89,27.453,27.453,0,0,0-.83-2.834h-.587s-2.451-.121-4.252,4.252a10.423,10.423,0,0,1-5.235,5.49c.012,1.479-.435,3.136-.435,5.848,0,4.992,4.29,11.119,10.227,13.977l1.112,4.448s.536.886,1.417,0a5.238,5.238,0,0,0,1.533-3.1,14.632,14.632,0,0,0,2.719.262,19.735,19.735,0,0,0,14.173-5.67,18.446,18.446,0,0,0,10.906-3.9Z" fill="#e6e6e6"/>
          </g>
        </g>
      </g>
      <g id="Group_5773" data-name="Group 5773">
        <g id="Group_5772" data-name="Group 5772">
          <g id="Group_5771" data-name="Group 5771">
            <line id="Line_3" data-name="Line 3" x1="4.252" y2="4.252" transform="translate(1018.174 610.129)" fill="#e6e6e6"/>
          </g>
        </g>
      </g>
      <g id="Group_5776" data-name="Group 5776">
        <g id="Group_5775" data-name="Group 5775">
          <g id="Group_5774" data-name="Group 5774">
            <path id="Path_2112" data-name="Path 2112" d="M1015.339,615.8l2.835-1.417,2.835,1.417Z" fill="#e6e6e6"/>
          </g>
        </g>
      </g>
      <g id="Group_5779" data-name="Group 5779">
        <g id="Group_5778" data-name="Group 5778">
          <g id="Group_5777" data-name="Group 5777">
            <path id="Path_2113" data-name="Path 2113" d="M1021.009,615.8a1.417,1.417,0,1,1,0,2.834" fill="#e6e6e6"/>
          </g>
        </g>
      </g>
      <g id="Group_5782" data-name="Group 5782">
        <g id="Group_5781" data-name="Group 5781">
          <g id="Group_5780" data-name="Group 5780">
            <path id="Path_2114" data-name="Path 2114" d="M1038.017,615.8a1.417,1.417,0,0,1,0,2.834" fill="#e6e6e6"/>
          </g>
        </g>
      </g>
      <g id="Group_5785" data-name="Group 5785">
        <g id="Group_5784" data-name="Group 5784">
          <g id="Group_5783" data-name="Group 5783">
            <path id="Path_2115" data-name="Path 2115" d="M1038.016,605.169v3.543l-1.417,5.669" fill="#e6e6e6"/>
          </g>
        </g>
      </g>
      <g id="Group_5788" data-name="Group 5788">
        <g id="Group_5787" data-name="Group 5787">
          <g id="Group_5786" data-name="Group 5786">
            <path id="Path_2116" data-name="Path 2116" d="M1036.6,614.381l-1.417,1.417h2.835Z" fill="#e6e6e6"/>
          </g>
        </g>
      </g>
      <g id="Group_5791" data-name="Group 5791">
        <g id="Group_5790" data-name="Group 5790">
          <g id="Group_5789" data-name="Group 5789">
            <rect id="Rectangle_48" data-name="Rectangle 48" width="45.354" height="5.669" transform="translate(1005.418 615.799)" fill="#be8a66"/>
          </g>
        </g>
      </g>
      <g id="Group_5794" data-name="Group 5794">
        <g id="Group_5793" data-name="Group 5793">
          <g id="Group_5792" data-name="Group 5792">
            <path id="Path_2117" data-name="Path 2117" d="M1029.319,588.865c.065,0,.128,0,.194,0C1029.513,588.869,1029.441,588.865,1029.319,588.865Z" fill="none"/>
          </g>
        </g>
      </g>
    </g>
    <g id="Group_5796" data-name="Group 5796">
      <path id="Path_2118" data-name="Path 2118" d="M1012.505,576.114a1.418,1.418,0,1,0-1.418-1.418A1.418,1.418,0,0,0,1012.505,576.114Z" fill="#1a1a1a"/>
      <path id="Path_2119" data-name="Path 2119" d="M1074.149,598.52a.749.749,0,0,0-.576-.469l-19.286-3.214a.714.714,0,0,0,.066-.219.752.752,0,0,0-.589-.813l-8.023-1.718c.005-.008.014-.012.019-.02a.748.748,0,0,0,.008-.71c-1.138-2.182-3.39-4.14-6.692-5.82h0a53.479,53.479,0,0,0-14.466-4.4,6.38,6.38,0,0,1-1.454-2.37,28.193,28.193,0,0,0-.854-2.913c-.958-2.646-2.869-6.164-8.379-6.164-4.99,0-6.9,1.952-7.522,2.854a7.091,7.091,0,0,0-5.89,3.2.753.753,0,0,0,.161.927,9.424,9.424,0,0,0,4.432,1.572c4.791,4.11,5.655,5.742,5.669,7.612a16.328,16.328,0,0,1-.163,1.995,30.4,30.4,0,0,0-.272,3.848c0,5.335,4.42,11.509,10.334,14.5l.925,3.7-3.866,3.866-2.568,1.283h-9.744a.75.75,0,0,0,0,1.5H1021.1a.7.7,0,0,1,.426.146.962.962,0,0,1,0,1.043.787.787,0,0,1-.456.149.737.737,0,0,0-.806.689.75.75,0,0,0,.689.806c.018,0,.059,0,.118,0a2.2,2.2,0,0,0,1.469-.543,2.121,2.121,0,0,0,.639-1.626,2.548,2.548,0,0,0-.089-.668H1038.1a.7.7,0,0,1,.427.146.963.963,0,0,1,0,1.043.785.785,0,0,1-.456.149.739.739,0,0,0-.806.689.75.75,0,0,0,.689.806c.017,0,.058,0,.117,0a2.2,2.2,0,0,0,1.47-.543,2.121,2.121,0,0,0,.639-1.626,2.549,2.549,0,0,0-.089-.668h10.677a.75.75,0,0,0,0-1.5h-12.445l-.9-.9,1.314-5.257a.736.736,0,0,0,.022-.182v-3.463a18.237,18.237,0,0,0,3.829-2.877,19.043,19.043,0,0,0,10.761-3.837l11.445,2.409a19.262,19.262,0,0,0,3.388.307c2.078,0,4.576-.383,5.849-1.995A.754.754,0,0,0,1074.149,598.52Zm-36.133-4.731h-13.384v-.027a6.024,6.024,0,0,1,.147-.845c.025-.1.056-.2.085-.29a4.729,4.729,0,0,1,.173-.473c.03-.068.058-.139.091-.2l7.8,1.018,6.29.821Zm-15.31-11.09c.128-.03.25-.056.369-.078.078-.015.157-.03.23-.04a4,4,0,0,1,.489-.048l.3.046a56.068,56.068,0,0,1,13.022,3.685c-.247.129-.494.254-.745.37-.038.017-.074.037-.112.054-.334.151-.673.288-1.015.416-.07.026-.142.048-.213.073-.273.1-.547.189-.825.271-.093.027-.187.052-.281.078-.263.072-.527.139-.793.2-.094.021-.187.041-.281.06-.281.057-.564.106-.849.149-.078.011-.154.024-.232.034-.33.045-.662.079-1,.1-.035,0-.069.007-.1.009-.38.025-.763.039-1.15.039-.038,0-.105,0-.205,0a16.5,16.5,0,0,1-1.667-.11c-.087-.009-.176-.017-.262-.028-.508-.065-1-.153-1.469-.258-.092-.02-.182-.042-.273-.064-.468-.112-.922-.238-1.352-.382-.051-.017-.1-.036-.15-.054-.415-.143-.813-.3-1.192-.463l-.133-.056c-.387-.172-.749-.354-1.1-.539-.065-.035-.131-.07-.195-.106-.331-.183-.644-.369-.936-.555l-.147-.1c-.294-.193-.574-.385-.824-.571l0,0c-.256-.191-.484-.374-.694-.55l-.043-.035a17.646,17.646,0,0,1,3.588-1.487C1022.551,582.736,1022.629,582.718,1022.706,582.7Zm10.559,8.3c.439.127.889.234,1.337.346.25.062.5.135.749.193q1.058.24,2.14.424c.531.089,1.072.169,1.608.236l.724.155-13.585-1.772.058-.041a5.461,5.461,0,0,1,3.037-.925h.019c.336.142.685.266,1.028.4.287.111.569.23.861.334.387.137.785.257,1.181.382C1032.7,590.819,1032.979,590.917,1033.265,591Zm-19.929-1.351a3.569,3.569,0,0,1,.172-.511c.016-.04.026-.08.044-.12a5.08,5.08,0,0,1,.333-.625l.013-.022a7.054,7.054,0,0,1,.447-.621l.049-.063c.142-.174.3-.349.47-.524.064-.066.123-.132.19-.2.114-.113.242-.227.367-.34.143-.13.283-.26.436-.386.03-.025.063-.049.093-.074a17.25,17.25,0,0,1,1.561-1.123c.019.017.044.037.063.055q.2.172.423.361c.046.038.088.074.136.112q.293.238.634.492l.133.095q.289.21.614.425l.222.147c.271.174.553.349.856.522l.043.023c.286.162.59.321.9.476.1.049.2.095.3.143.276.13.561.256.857.377.079.033.154.067.235.1.363.143.742.277,1.134.4.11.035.224.066.337.1q.469.14.966.257c.08.019.153.044.234.062a5.253,5.253,0,0,0-1.521,1.545c-.039.06-.065.129-.1.191-.049.084-.093.174-.139.262a6.029,6.029,0,0,0-.3.7c-.052.143-.1.286-.148.439-.035.124-.063.254-.092.384-.039.176-.073.357-.1.544-.017.117-.034.234-.046.355-.007.063-.019.12-.024.184h-6.366a3.505,3.505,0,0,1-3.5-3.5A2.852,2.852,0,0,1,1013.336,589.649ZM1043.769,591a36.8,36.8,0,0,1-4.451-.281c-.526-.065-1.056-.144-1.577-.231-.775-.131-1.537-.291-2.291-.468-.247-.057-.488-.126-.731-.189-.506-.13-1.008-.266-1.5-.416-.107-.033-.212-.069-.318-.1.053-.01.1-.026.158-.037.37-.073.735-.159,1.1-.255.1-.028.207-.049.308-.078q.69-.2,1.362-.45c.118-.044.232-.1.349-.142.333-.134.663-.275.989-.429.151-.072.3-.147.45-.223q.445-.226.882-.48c.09-.052.183-.094.272-.147A14.812,14.812,0,0,1,1043.769,591Zm-21.11-9.821c-.194.039-.4.089-.6.144l-.021.005a19.632,19.632,0,0,0-4.829,2.128c-1.388.839-4.326,2.868-5.2,5.412l-.01.023c.032-.3.066-.579.1-.853.074-.617.14-1.17.164-1.7l.043-.024c.061-.032.129-.072.2-.108.13-.071.261-.145.405-.233.084-.051.171-.109.259-.166.139-.09.278-.183.426-.288.1-.071.2-.147.3-.225.146-.111.291-.229.44-.355.108-.091.213-.184.322-.283.149-.136.3-.282.445-.434.108-.111.214-.22.321-.339.152-.168.3-.351.445-.536.1-.126.2-.247.3-.381.157-.217.3-.455.452-.7.078-.127.16-.243.235-.377a11.335,11.335,0,0,0,.6-1.235c1.346-3.265,2.973-3.716,3.435-3.778a.955.955,0,0,1,.122-.01h.055c.215.651.421,1.384.636,2.263a6.065,6.065,0,0,0,1.01,2.037Zm-16.239-7.135c.013.02.028.034.041.054a8.271,8.271,0,0,0,.582.777c.035.042.069.082.1.123.2.226.4.431.59.612l.1.09c.194.177.381.334.552.466l.063.047c.175.131.337.245.468.33v.242h-3.463a10.7,10.7,0,0,1-3.221-.855A5.853,5.853,0,0,1,1006.42,574.04Zm.995,4.241h2.255a.75.75,0,0,0,.75-.75v-1.418a.754.754,0,0,0-.406-.666l-.067-.038-.044-.026c-.037-.022-.079-.048-.132-.082-.029-.018-.067-.045-.1-.066-.052-.035-.105-.071-.166-.114-.043-.031-.092-.069-.139-.1-.062-.047-.125-.1-.193-.15s-.111-.093-.167-.142-.139-.12-.211-.187-.122-.117-.184-.178-.145-.148-.218-.227-.127-.14-.19-.214-.144-.176-.215-.268-.123-.164-.183-.251c-.029-.041-.056-.086-.084-.129.494-.634,2.072-2.077,6.2-2.077a6.462,6.462,0,0,1,6.586,4.226,4.794,4.794,0,0,0-2.413,1.416l-.054.056q-.168.174-.337.375l-.066.079a9.1,9.1,0,0,0-.758,1.091c-.032.054-.064.111-.1.167-.092.161-.184.331-.274.508-.034.067-.067.132-.1.2-.117.242-.233.494-.346.767a9.749,9.749,0,0,1-.5,1.02c-.054.1-.11.189-.166.282-.133.222-.27.434-.412.633-.06.085-.12.171-.182.252-.172.227-.349.441-.528.639-.027.029-.052.063-.079.091-.208.225-.419.427-.628.614-.059.054-.118.1-.177.152-.153.131-.3.254-.453.366-.063.048-.126.1-.188.14-.158.114-.312.218-.459.311-.035.022-.072.048-.106.069l-.033.019C1011.78,582.792,1010.454,581.016,1007.415,578.281Zm29.851,30.339L1035.922,614l-1.051,1.05h-13.685l-1.746-.872,3.044-3.044a1.407,1.407,0,0,0,.431.131,1.465,1.465,0,0,0,.168.01,1.811,1.811,0,0,0,1.292-.615,5.928,5.928,0,0,0,1.6-2.766,15.245,15.245,0,0,0,2.124.153,21.376,21.376,0,0,0,9.17-2.014Zm5-7.745a.749.749,0,0,0-.561.253,19.181,19.181,0,0,1-13.611,5.417,14.008,14.008,0,0,1-2.581-.248.748.748,0,0,0-.882.636,4.517,4.517,0,0,1-1.321,2.667c-.129.13-.215.17-.2.179l0,0-1.069-4.277a.745.745,0,0,0-.4-.494c-5.5-2.646-9.8-8.489-9.8-13.3,0-.165,0-.326.005-.484,0,.014.008.026.011.039.017.088.05.169.072.254a4.851,4.851,0,0,0,.2.637c.044.108.1.208.151.313a4.925,4.925,0,0,0,.272.5c.067.1.141.2.215.3a4.931,4.931,0,0,0,.345.417c.086.092.175.18.267.266a4.873,4.873,0,0,0,.416.342c.1.075.2.148.306.216a5.132,5.132,0,0,0,.49.266c.108.053.213.109.325.154a5.19,5.19,0,0,0,.594.185c.1.026.2.061.3.081a5,5,0,0,0,.954.1h21.181l8.923,1.878,4.465.94A17.352,17.352,0,0,1,1042.268,600.875Zm22.832-1.4L1053.328,597h0l-5.435-1.144-2.673-.563h2.656l23.683,3.947C1069.553,600.045,1066.4,599.728,1065.1,599.474Z" fill="#1a1a1a"/>
      <path id="Path_2120" data-name="Path 2120" d="M1050.772,620.718h-45.354a.75.75,0,0,0,0,1.5h45.354a.75.75,0,0,0,0-1.5Z" fill="#1a1a1a"/>
    </g>
  </g>
</svg>