<?xml version="1.0" encoding="utf-8"?>
<svg width="800px" height="800px" viewBox="0 -37.56 122.472 122.472" xmlns="http://www.w3.org/2000/svg">
  <g id="Group_5376" data-name="Group 5376" transform="translate(-1022.198 -662.738)">
    <g id="Group_5374" data-name="Group 5374">
      <g id="Group_5313" data-name="Group 5313">
        <g id="Group_5312" data-name="Group 5312">
          <g id="Group_5311" data-name="Group 5311">
            <path id="Path_1949" data-name="Path 1949" d="M1048.709,679.328a6.739,6.739,0,0,0,7.087-5.669l-8.5-4.252h-12.616l-.084.07C1035.268,670.32,1042.633,679.328,1048.709,679.328Z" fill="#fda654"/>
          </g>
        </g>
      </g>
      <g id="Group_5316" data-name="Group 5316">
        <g id="Group_5315" data-name="Group 5315">
          <g id="Group_5314" data-name="Group 5314">
            <path id="Path_1950" data-name="Path 1950" d="M1062.882,669.407c-3.729-.11-4.382-5.669-14.173-5.669-6,0-11.035,3.2-14.033,5.669h12.616l8.5,4.252S1060.807,673.42,1062.882,669.407Z" fill="#be8a66"/>
          </g>
        </g>
      </g>
      <g id="Group_5319" data-name="Group 5319">
        <g id="Group_5318" data-name="Group 5318">
          <g id="Group_5317" data-name="Group 5317">
            <path id="Path_1951" data-name="Path 1951" d="M1079.92,675.832c-4.86-6.013-13.612-6.323-17.038-6.425-2.075,4.013-7.086,4.252-7.086,4.252a6.739,6.739,0,0,1-7.087,5.669,18.059,18.059,0,0,0,15.591,8.5,17.759,17.759,0,0,0,2.834-.227,18.049,18.049,0,0,0,4.252-1.248,21.167,21.167,0,0,0,4.925-2.982c.577-.465,1.106-.936,1.586-1.4.224-.215.435-.426.637-.635a21.957,21.957,0,0,0,2.774-3.433A13.681,13.681,0,0,0,1079.92,675.832Z" fill="#985c4c"/>
          </g>
        </g>
      </g>
      <g id="Group_5322" data-name="Group 5322">
        <g id="Group_5321" data-name="Group 5321">
          <g id="Group_5320" data-name="Group 5320">
            <path id="Path_1952" data-name="Path 1952" d="M1064.3,687.832a45.642,45.642,0,0,1-15.18,2.049,24.616,24.616,0,0,1-8.957-2.049,16.739,16.739,0,0,1-8.093-7.747,9.358,9.358,0,0,0-.369,2.078,17.36,17.36,0,0,0,.714,5.669c.11.382.233.772.377,1.171a32.336,32.336,0,0,0,17.183,5.156,28.407,28.407,0,0,0,17.159-6.327V687.6A17.759,17.759,0,0,1,1064.3,687.832Z" fill="#ffff40"/>
          </g>
        </g>
      </g>
      <g id="Group_5325" data-name="Group 5325">
        <g id="Group_5324" data-name="Group 5324">
          <g id="Group_5323" data-name="Group 5323">
            <path id="Path_1953" data-name="Path 1953" d="M1067.134,687.6v.227a18.866,18.866,0,0,1-11.089,14.157c.385.009.771.017,1.168.017,3.039,0,5.8-.084,8.321-.242a30.43,30.43,0,0,0,1.636-2.593,36.3,36.3,0,0,0,4.216-12.756v-.058A18.049,18.049,0,0,1,1067.134,687.6Z" fill="#ffff40"/>
          </g>
        </g>
      </g>
      <g id="Group_5328" data-name="Group 5328">
        <g id="Group_5327" data-name="Group 5327">
          <g id="Group_5326" data-name="Group 5326">
            <path id="Path_1954" data-name="Path 1954" d="M1049.975,694.159A32.336,32.336,0,0,1,1032.792,689c1.5,4.155,5.012,9.1,13.083,11.519a33.65,33.65,0,0,0,5.6,1.146c1.421.173,2.937.286,4.568.321a18.867,18.867,0,0,0,11.089-14.156A28.411,28.411,0,0,1,1049.975,694.159Z" fill="#be8a66"/>
          </g>
        </g>
      </g>
      <g id="Group_5331" data-name="Group 5331">
        <g id="Group_5330" data-name="Group 5330">
          <g id="Group_5329" data-name="Group 5329">
            <path id="Path_1955" data-name="Path 1955" d="M1112.646,687.832h2.879l-8.39-1.305Z" fill="#ffff40"/>
          </g>
        </g>
      </g>
      <g id="Group_5334" data-name="Group 5334">
        <g id="Group_5333" data-name="Group 5333">
          <g id="Group_5332" data-name="Group 5332">
            <path id="Path_1956" data-name="Path 1956" d="M1081.382,677.921l.009.016a14.432,14.432,0,0,1,6.194,3.96l13.629,3.228-2.443-4.886Z" fill="#985c4c"/>
          </g>
        </g>
      </g>
      <g id="Group_5337" data-name="Group 5337">
        <g id="Group_5336" data-name="Group 5336">
          <g id="Group_5335" data-name="Group 5335">
            <path id="Path_1957" data-name="Path 1957" d="M1133.749,690.667a14.451,14.451,0,0,0-2.187-2.835,15.877,15.877,0,0,0-7.735-4.252l-1.505-.2-2.891,5.06Z" fill="#985c4c"/>
          </g>
        </g>
      </g>
      <g id="Group_5340" data-name="Group 5340">
        <g id="Group_5339" data-name="Group 5339">
          <g id="Group_5338" data-name="Group 5338">
            <path id="Path_1958" data-name="Path 1958" d="M1122.322,683.38l-8.365-1.115,2.886,5.773,2.588.4Z" fill="#ffff40"/>
          </g>
        </g>
      </g>
      <g id="Group_5343" data-name="Group 5343">
        <g id="Group_5342" data-name="Group 5342">
          <g id="Group_5341" data-name="Group 5341">
            <path id="Path_1959" data-name="Path 1959" d="M1106.33,681.247l-2.561,4.482,3.367.8,8.39,1.305,1.318.2-2.886-5.773Z" fill="#985c4c"/>
          </g>
        </g>
      </g>
      <g id="Group_5346" data-name="Group 5346">
        <g id="Group_5345" data-name="Group 5345">
          <g id="Group_5344" data-name="Group 5344">
            <path id="Path_1960" data-name="Path 1960" d="M1098.771,680.239l2.443,4.885,2.555.605,2.561-4.482Z" fill="#ffff40"/>
          </g>
        </g>
      </g>
      <g id="Group_5349" data-name="Group 5349">
        <g id="Group_5348" data-name="Group 5348">
          <g id="Group_5347" data-name="Group 5347">
            <path id="Path_1961" data-name="Path 1961" d="M1096.685,689.987c3.791,1.157,7.662,2.288,11.3,3.266l-6.839-6.838Z" fill="#ffff40"/>
          </g>
        </g>
      </g>
      <g id="Group_5352" data-name="Group 5352">
        <g id="Group_5351" data-name="Group 5351">
          <g id="Group_5350" data-name="Group 5350">
            <path id="Path_1962" data-name="Path 1962" d="M1112.162,694.33a72.994,72.994,0,0,0,10.174,1.932l-5.6-5.6Z" fill="#ffff40"/>
          </g>
        </g>
      </g>
      <g id="Group_5355" data-name="Group 5355">
        <g id="Group_5354" data-name="Group 5354">
          <g id="Group_5353" data-name="Group 5353">
            <path id="Path_1963" data-name="Path 1963" d="M1136.583,693.5l-23.937-5.67-5.51-1.3-19.551-4.63a9.437,9.437,0,0,1,1.219,1.779,8.79,8.79,0,0,1,1.008,4.156h0v.008c2.212.706,4.528,1.432,6.874,2.147l4.465-3.572,6.839,6.838c1.433.386,2.829.746,4.173,1.077l4.579-3.663,5.6,5.6c.543.047,1.045.074,1.491.074C1134.571,696.336,1136.583,693.5,1136.583,693.5Z" fill="#985c4c"/>
          </g>
        </g>
      </g>
      <g id="Group_5358" data-name="Group 5358">
        <g id="Group_5357" data-name="Group 5357">
          <g id="Group_5356" data-name="Group 5356">
            <path id="Path_1964" data-name="Path 1964" d="M1143.67,687.832h-12.108a14.451,14.451,0,0,1,2.187,2.835l-18.224-2.835h-2.879l23.937,5.67s-2.012,2.834-12.756,2.834c-6.089,0-21.662-4.552-34.016-8.5,0,4.5-1.947,8.694-9.353,11.331q-.931.332-1.985.63a62.237,62.237,0,0,1-12.939,1.963c-2.517.158-5.282.242-8.321.242-.4,0-.783-.008-1.168-.017-1.631-.035-3.147-.148-4.568-.321-.473-.058-.931-.125-1.382-.2l-.319-.053c-.393-.066-.779-.136-1.154-.212l-.144-.029q-1.374-.285-2.6-.655h0c-8.071-2.416-11.579-7.364-13.083-11.519-.144-.4-.267-.789-.377-1.171H1023.2v21.26H1143.67Z" fill="#fda654"/>
          </g>
        </g>
      </g>
      <g id="Group_5361" data-name="Group 5361">
        <g id="Group_5360" data-name="Group 5360">
          <g id="Group_5359" data-name="Group 5359">
            <path id="Path_1965" data-name="Path 1965" d="M1088.8,683.676a9.437,9.437,0,0,0-1.219-1.779,14.5,14.5,0,0,0-6.277-3.986,21.957,21.957,0,0,1-2.774,3.433c-.2.209-.413.42-.637.635-.48.46-1.009.931-1.586,1.4a21.167,21.167,0,0,1-4.925,2.982v.058a36.3,36.3,0,0,1-4.216,12.756,30.43,30.43,0,0,1-1.636,2.593,62.237,62.237,0,0,0,12.939-1.963q1.051-.3,1.985-.63c7.406-2.637,9.351-6.827,9.353-11.331v-.008h0A8.79,8.79,0,0,0,1088.8,683.676Z" fill="#be8a66"/>
          </g>
        </g>
      </g>
      <g id="Group_5364" data-name="Group 5364">
        <g id="Group_5363" data-name="Group 5363">
          <g id="Group_5362" data-name="Group 5362">
            <path id="Path_1966" data-name="Path 1966" d="M1034.592,669.477a25.613,25.613,0,0,0-2.891,2.765c1.828,0,4.013,1.4,3.883,2.834h4.457A44.918,44.918,0,0,1,1034.592,669.477Z" fill="#666"/>
          </g>
        </g>
      </g>
      <g id="Group_5367" data-name="Group 5367">
        <g id="Group_5366" data-name="Group 5366">
          <g id="Group_5365" data-name="Group 5365">
            <path id="Path_1967" data-name="Path 1967" d="M1048.709,679.328c-2.883,0-6.057-2.029-8.668-4.252h-4.457a1.958,1.958,0,0,1-1.048,1.418,6.223,6.223,0,0,0-2.466,3.591S1043.88,684.12,1048.709,679.328Z" fill="#e6e6e6"/>
          </g>
        </g>
      </g>
      <g id="Group_5370" data-name="Group 5370">
        <g id="Group_5369" data-name="Group 5369">
          <g id="Group_5368" data-name="Group 5368">
            <path id="Path_1968" data-name="Path 1968" d="M1048.709,679.328c-4.829,4.792-16.639.757-16.639.757a16.739,16.739,0,0,0,8.093,7.747,24.616,24.616,0,0,0,8.957,2.049,45.642,45.642,0,0,0,15.18-2.049A18.059,18.059,0,0,1,1048.709,679.328Z" fill="#be8a66"/>
          </g>
        </g>
      </g>
      <g id="Group_5373" data-name="Group 5373">
        <g id="Group_5372" data-name="Group 5372">
          <g id="Group_5371" data-name="Group 5371">
            <path id="Path_1969" data-name="Path 1969" d="M1112.646,687.832h2.879l-8.39-1.305Z" fill="none"/>
          </g>
        </g>
      </g>
    </g>
    <g id="Group_5375" data-name="Group 5375">
      <path id="Path_1970" data-name="Path 1970" d="M1061.883,675.076a1,1,0,0,0,1,1h2.834a1,1,0,0,0,1-1v-2.834a1,1,0,0,0-2,0v1.834h-1.834A1,1,0,0,0,1061.883,675.076Z" fill="#1a1a1a"/>
      <path id="Path_1971" data-name="Path 1971" d="M1071.8,679.328a1,1,0,0,0,1,1h2.834a1,1,0,0,0,1-1v-2.834a1,1,0,0,0-2,0v1.834H1072.8A1,1,0,0,0,1071.8,679.328Z" fill="#1a1a1a"/>
      <path id="Path_1972" data-name="Path 1972" d="M1083.725,685v-2.835a1,1,0,0,0-2,0V684h-1.835a1,1,0,0,0,0,2h2.835A1,1,0,0,0,1083.725,685Z" fill="#1a1a1a"/>
      <path id="Path_1973" data-name="Path 1973" d="M1078.055,690.667v-2.835a1,1,0,0,0-2,0v1.835h-1.834a1,1,0,0,0,0,2h2.834A1,1,0,0,0,1078.055,690.667Z" fill="#1a1a1a"/>
      <path id="Path_1974" data-name="Path 1974" d="M1074.221,693.919a1,1,0,0,0-1,1v1.835h-1.834a1,1,0,0,0,0,2h2.834a1,1,0,0,0,1-1v-2.835A1,1,0,0,0,1074.221,693.919Z" fill="#1a1a1a"/>
      <path id="Path_1975" data-name="Path 1975" d="M1081.307,691.084a1,1,0,0,0-1,1v1.835h-1.834a1,1,0,0,0,0,2h2.834a1,1,0,0,0,1-1v-2.835A1,1,0,0,0,1081.307,691.084Z" fill="#1a1a1a"/>
      <path id="Path_1976" data-name="Path 1976" d="M1084.142,690.25h2.835a1,1,0,0,0,1-1v-2.835a1,1,0,0,0-2,0v1.835h-1.835a1,1,0,0,0,0,2Z" fill="#1a1a1a"/>
      <path id="Path_1977" data-name="Path 1977" d="M1068.552,677.494h2.835a1,1,0,0,0,1-1v-2.835a1,1,0,0,0-2,0v1.835h-1.835a1,1,0,0,0,0,2Z" fill="#1a1a1a"/>
      <path id="Path_1978" data-name="Path 1978" d="M1058.631,676.911a1,1,0,0,0-1,1v1.835H1055.8a1,1,0,0,0,0,2h2.835a1,1,0,0,0,1-1v-2.835A1,1,0,0,0,1058.631,676.911Z" fill="#1a1a1a"/>
      <path id="Path_1979" data-name="Path 1979" d="M1066.135,683.58a1,1,0,0,0,1,1h2.834a1,1,0,0,0,1-1v-2.834a1,1,0,0,0-2,0v1.834h-1.834A1,1,0,0,0,1066.135,683.58Z" fill="#1a1a1a"/>
      <path id="Path_1980" data-name="Path 1980" d="M1064.3,678.328a1,1,0,0,0-1,1v1.835h-1.835a1,1,0,0,0,0,2h2.835a1,1,0,0,0,1-1v-2.835A1,1,0,0,0,1064.3,678.328Z" fill="#1a1a1a"/>
      <path id="Path_1981" data-name="Path 1981" d="M1023.2,688.832h8.478q.086.263.176.511a18.271,18.271,0,0,0,3.406,5.8,21.444,21.444,0,0,0,10.33,6.333c.434.13.882.252,1.339.367.175.044.357.081.535.123.27.063.538.129.814.187l.065.013c.12.024.244.044.366.068.3.058.6.115.906.167l.08.014c.547.091,1.1.173,1.663.242,1.505.183,3.075.293,4.667.328h.023c.385.008.77.016,1.167.016,2.987,0,5.808-.083,8.384-.244a63.852,63.852,0,0,0,13.149-2c.725-.206,1.413-.424,2.048-.65.405-.144.8-.295,1.176-.451.128-.053.248-.109.373-.163.247-.106.493-.212.729-.323.142-.068.277-.139.415-.208.208-.1.415-.207.614-.315.14-.076.273-.156.408-.234.186-.107.37-.215.548-.326.132-.083.258-.168.386-.253.169-.113.336-.227.5-.344.122-.089.24-.179.357-.269.155-.121.307-.243.454-.367.11-.093.217-.186.323-.281.143-.13.281-.262.416-.395.1-.1.193-.192.286-.29.132-.14.258-.284.382-.429.083-.1.167-.193.246-.292.123-.155.239-.315.353-.475.068-.094.137-.187.2-.283.119-.178.227-.362.334-.546.049-.084.1-.165.148-.25.126-.231.24-.467.348-.706.019-.043.043-.085.062-.129a10.966,10.966,0,0,0,.6-1.811c.021-.084.035-.171.053-.256.051-.229.1-.46.136-.7.018-.116.03-.236.046-.354.021-.159.047-.316.062-.479,1.679.532,3.418,1.074,5.182,1.614l.461.142c.226.069.44.132.665.2.473.144.945.286,1.42.428.514.155,1.026.308,1.528.456l.568.167c2.559.753,4.965,1.436,7.155,2.024h0c1.459.392,2.87.755,4.194,1.081q4.479,1.1,7.615,1.6l.052.009c.542.087,1.059.162,1.537.222l.049.006c.376.047.737.086,1.073.115.075.007.137.009.209.015l.279.019c.394.026.764.044,1.089.044,10.945,0,13.335-2.922,13.572-3.256a1,1,0,0,0-.585-1.552l-4.58-1.084,1.361.211a1,1,0,0,0,.153.012c.026,0,.05-.007.075-.009s.072-.007.107-.013a1.1,1.1,0,0,0,.149-.041.966.966,0,0,0,.1-.039,1,1,0,0,0,.139-.086.839.839,0,0,0,.079-.054.993.993,0,0,0,.212-1.265,15.354,15.354,0,0,0-.878-1.328h9.938a1,1,0,0,0,0-2h-11.709a16.833,16.833,0,0,0-8-4.243l-1.506-.2-8.365-1.115-7.626-1.017-7.559-1.008-16.99-2.265a14.771,14.771,0,0,0-1.215-1.78c-5.193-6.422-14.342-6.694-17.787-6.8-1.059-.031-1.852-.7-2.949-1.626-2.023-1.706-4.793-4.043-11.254-4.043-6.216,0-11.408,3.207-14.669,5.9l0,0,0,0-.078.063v0h0a26.621,26.621,0,0,0-3.014,2.887,1,1,0,0,0,.762,1.648,3.838,3.838,0,0,1,2.571,1.1.964.964,0,0,1,.316.639c-.018.2-.232.438-.588.665a7.094,7.094,0,0,0-2.843,4.029l-.007.018c-.011.037-.028.068-.039.106h0a10.339,10.339,0,0,0-.406,2.276,17.528,17.528,0,0,0,.428,4.752H1023.2a1,1,0,0,0,0,2Zm11.714-6.938c.106.024.219.047.328.071l.4.084c.123.025.252.049.379.073s.263.051.4.075l.408.07.413.067c.143.022.287.042.433.063s.282.039.426.057l.448.053c.147.016.294.031.442.045s.3.029.458.041.3.021.456.03.307.019.462.026.317.01.476.013.3.009.451.009h.053c.064,0,.128-.005.192-.005.274,0,.546-.009.819-.023.115-.005.229-.015.343-.023.239-.016.476-.036.712-.062.127-.014.252-.031.378-.048.224-.03.446-.066.666-.106.128-.023.255-.047.382-.074.22-.047.436-.1.652-.159.119-.032.238-.062.355-.1.233-.071.46-.153.685-.239.092-.035.186-.064.276-.1a9.054,9.054,0,0,0,.906-.432c.036-.02.069-.045.1-.065.227-.13.451-.264.664-.416.1.148.225.312.355.483.033.045.067.088.1.134.151.2.313.4.5.618l.022.026c.175.207.37.423.575.645l.151.161c.219.23.451.465.7.7l.126.115q.346.324.732.649c.058.048.112.1.17.144q.437.359.923.713c.07.051.143.1.215.151.313.222.639.439.983.651l.114.072c.37.225.763.439,1.169.647.093.048.188.1.284.142.419.2.851.4,1.307.585.038.015.079.028.117.043.428.167.876.319,1.338.46.107.033.213.066.323.1.081.023.158.05.24.072-.161.031-.318.061-.484.091l-.188.034c-.289.05-.588.1-.892.146l-.282.044c-.277.042-.562.08-.849.118l-.386.05c-.261.032-.528.06-.8.088-.162.016-.322.034-.486.049-.241.023-.488.04-.735.059-.194.015-.387.031-.584.043-.229.014-.463.022-.695.032-.215.009-.427.021-.644.026-.239.006-.482.005-.723.007-.212,0-.423.006-.637,0-.454-.005-.911-.018-1.369-.043a23.545,23.545,0,0,1-8.593-1.959,16.621,16.621,0,0,1-1.655-.888q-.186-.111-.369-.226a15.922,15.922,0,0,1-1.475-1.054c-.052-.042-.1-.089-.15-.132a15.288,15.288,0,0,1-1.2-1.128c-.1-.1-.191-.194-.283-.295a15.783,15.783,0,0,1-1.139-1.388l-.047-.07.146.034C1034.569,681.816,1034.736,681.855,1034.912,681.894Zm9.545-6.818a2.834,2.834,0,0,0,2.835-2.834,2.806,2.806,0,0,0-.691-1.835h.455l7.592,3.8a5.572,5.572,0,0,1-3.66,3.789c-.1.032-.2.064-.3.092s-.227.054-.344.079c-.151.031-.308.057-.47.08-.1.014-.194.029-.3.039-.276.027-.561.046-.866.046a5.658,5.658,0,0,1-.806-.062c-.06-.009-.123-.025-.184-.035-.221-.039-.445-.084-.676-.147-.068-.018-.137-.041-.2-.061-.233-.069-.47-.148-.712-.242-.063-.024-.127-.049-.19-.075q-.4-.162-.817-.367l-.11-.053a18.046,18.046,0,0,1-2.063-1.232l-.017-.012a27.461,27.461,0,0,1-2.24-1.727,42.8,42.8,0,0,1-3.98-3.908h5.6a2.805,2.805,0,0,0-.69,1.835A2.834,2.834,0,0,0,1044.457,675.076Zm24.266,13.219c.2-.05.407-.1.611-.159q.242-.069.482-.144c.1-.031.207-.058.31-.092l-.008.048c-.165.883-.364,1.745-.584,2.594-.035.136-.069.274-.105.41q-.333,1.224-.744,2.4c-.05.145-.1.29-.155.434q-.425,1.172-.923,2.291c-.05.11-.1.217-.153.327-.36.778-.74,1.541-1.155,2.277q-.348.617-.717,1.2c-.075.119-.152.234-.228.352-.123.19-.248.375-.373.56l-.507.027c-.513.027-1.033.052-1.564.073l-.82.031c-.556.018-1.122.033-1.695.045l-.5.011c.036-.026.069-.055.106-.081.433-.3.856-.623,1.261-.96.349-.291.677-.589.992-.89.1-.1.2-.2.3-.3.2-.2.405-.409.595-.616.109-.119.212-.238.317-.358.168-.194.332-.387.489-.582q.15-.184.292-.37c.15-.2.293-.391.432-.586.085-.12.171-.238.252-.357.142-.211.275-.42.406-.629.063-.1.13-.2.19-.3.183-.3.356-.606.514-.9.018-.034.033-.066.051-.1.14-.267.273-.53.4-.788.049-.1.093-.2.139-.307.084-.185.166-.367.242-.546.046-.111.089-.218.132-.327q.1-.246.188-.482c.039-.106.077-.208.113-.31.054-.154.1-.3.152-.449.031-.092.062-.185.09-.274.049-.157.092-.3.134-.45.018-.064.039-.133.056-.2.055-.2.1-.39.146-.563.008-.035.014-.062.021-.1.033-.139.062-.269.087-.387l.03-.151c.011-.055.024-.118.033-.167.066-.014.131-.032.2-.046C1068.4,688.373,1068.563,688.334,1068.723,688.295Zm-14.976,12.586c-.728-.052-1.446-.12-2.149-.206-.461-.056-.907-.121-1.346-.191l-.246-.041c-.237-.039-.47-.085-.7-.128-.16-.03-.325-.057-.481-.089l-.08-.016c-.273-.056-.538-.12-.8-.182-.173-.04-.349-.077-.519-.119-.428-.108-.847-.222-1.258-.345-.445-.133-.87-.277-1.286-.426-.127-.045-.249-.092-.373-.139q-.439-.165-.858-.341c-.124-.052-.248-.1-.368-.157q-.476-.211-.923-.434c-.058-.029-.118-.056-.174-.085-.349-.178-.683-.362-1.006-.551-.095-.056-.185-.113-.278-.17-.23-.14-.455-.282-.672-.426-.1-.067-.2-.134-.3-.2-.223-.155-.437-.312-.647-.472-.066-.05-.136-.1-.2-.151q-.4-.312-.762-.634c-.064-.056-.124-.113-.186-.17-.181-.164-.357-.33-.525-.5-.075-.074-.149-.148-.222-.223q-.237-.245-.459-.492c-.057-.064-.117-.127-.172-.192-.195-.224-.382-.449-.558-.675l-.1-.129c-.143-.188-.281-.377-.412-.565-.051-.073-.1-.147-.149-.22-.113-.168-.221-.335-.325-.5-.04-.065-.082-.131-.122-.2-.019-.032-.036-.065-.056-.1.05.025.106.05.156.075.4.2.807.4,1.232.6.039.019.077.038.117.056.45.206.917.406,1.394.6l.339.137c.487.193.983.381,1.494.557.057.02.115.038.172.057.474.161.96.312,1.454.455l.346.1q.8.222,1.637.408c.109.024.221.045.331.069q.768.16,1.56.285c.091.014.18.031.271.044.584.085,1.18.15,1.782.2.137.012.274.02.411.03.623.042,1.252.072,1.893.072l.367,0c.731-.01,1.458-.054,2.181-.122.238-.023.473-.061.71-.089.486-.059.971-.123,1.454-.208.276-.049.552-.109.827-.167.442-.092.883-.191,1.321-.3.285-.074.569-.155.853-.238.43-.127.858-.266,1.284-.414.279-.1.558-.194.836-.3.44-.168.876-.353,1.312-.544.256-.113.513-.219.767-.339.5-.236,1-.5,1.494-.763.183-.1.368-.186.55-.288.65-.367,1.3-.756,1.936-1.175-.073.215-.153.441-.242.675-.01.027-.018.052-.029.08-.081.211-.172.432-.268.656-.013.03-.023.059-.037.09-.094.218-.2.443-.309.67-.015.032-.027.061-.042.092l-.029.058c-.093.19-.2.386-.3.581-.037.069-.069.136-.107.205l-.018.032c-.1.185-.216.373-.328.56-.052.087-.1.172-.152.259-.119.192-.253.386-.383.579l-.02.03c-.062.091-.118.182-.183.273-.118.168-.249.336-.377.5s-.261.342-.4.512c-.1.118-.2.234-.3.351-.026.03-.05.06-.076.089-.18.2-.369.408-.564.61q-.073.078-.15.156c-.064.064-.124.13-.189.194-.326.319-.665.635-1.033.941q-.473.395-.977.756c-.108.078-.223.149-.333.224-.231.159-.462.319-.7.467-.137.086-.281.162-.421.244-.221.129-.44.26-.667.38-.156.083-.319.157-.478.235-.185.092-.37.184-.56.27-.457-.012-.908-.037-1.359-.062C1054.237,700.9,1053.989,700.9,1053.747,700.881Zm-21.019-17.833a17.518,17.518,0,0,0,1.281,1.546c.107.117.218.23.328.343a17.431,17.431,0,0,0,1.38,1.282c.041.033.078.071.119.1a17.547,17.547,0,0,0,1.651,1.174c.137.088.277.173.417.257a19.034,19.034,0,0,0,1.842.987,25.529,25.529,0,0,0,9.321,2.138c.592.032,1.178.044,1.759.046.056,0,.113.005.169.005s.1,0,.158,0q.483,0,.96-.017c.093,0,.187,0,.279-.006.839-.03,1.658-.085,2.45-.159l.259-.027c.306-.03.608-.062.9-.1l.31-.038c.277-.035.548-.072.816-.11l.3-.044c.278-.041.549-.084.815-.129l.225-.037c.33-.057.652-.115.962-.175l.011,0c.33-.063.647-.128.952-.193l.08-.017q.391-.084.751-.167c.076-.017.146-.034.219-.052q.279-.065.537-.129l.24-.06c.151-.038.3-.076.433-.112l.223-.059.375-.1.141-.039c-.159.1-.317.2-.477.291-.219.127-.438.252-.658.372-.437.24-.877.462-1.319.676-.187.09-.372.187-.56.273-.624.285-1.252.55-1.884.784-.082.031-.165.054-.248.083q-.829.3-1.669.54c-.211.06-.423.111-.635.166-.441.114-.883.219-1.327.309-.23.046-.461.09-.691.13-.454.079-.91.143-1.367.2-.2.024-.41.053-.615.072-.658.061-1.317.1-1.981.112a30.426,30.426,0,0,1-14.29-3.666l-.031-.016c-.248-.13-.489-.26-.725-.391-.086-.047-.171-.095-.256-.143-.16-.09-.318-.18-.472-.27-.124-.072-.244-.144-.363-.215l-.2-.123-.026-.075c-.074-.224-.146-.455-.219-.705a17.68,17.68,0,0,1-.691-4.559C1032.7,683.014,1032.715,683.03,1032.728,683.048Zm47.4,15.181c-.593.211-1.24.416-1.923.61-.4.113-.809.22-1.231.324-.135.034-.277.065-.415.1-.293.069-.589.137-.893.2-.168.036-.34.07-.511.1-.287.058-.578.115-.875.17l-.557.1q-.449.078-.911.15l-.576.089c-.327.048-.661.094-1,.138-.184.024-.365.05-.551.073-.406.05-.822.1-1.241.142-.125.014-.245.029-.37.042-.52.053-1.052.1-1.592.147q.287-.469.561-.956.4-.712.77-1.45c.088-.175.167-.355.251-.531.154-.321.31-.641.454-.968.093-.21.178-.427.267-.64.126-.3.254-.6.373-.906.088-.229.168-.463.252-.7.108-.3.219-.593.319-.895.081-.241.154-.488.23-.732.093-.3.189-.6.275-.9.072-.251.135-.506.2-.76.08-.3.162-.608.235-.916.062-.26.116-.524.173-.787.067-.309.135-.617.2-.93.051-.267.1-.538.142-.808.041-.233.087-.462.124-.7.156-.072.309-.156.465-.233.178-.087.357-.174.533-.267.254-.134.5-.277.754-.422.166-.1.332-.188.5-.288.272-.167.539-.346.806-.526.135-.092.272-.177.406-.271.4-.281.79-.574,1.173-.883.564-.454,1.119-.942,1.652-1.453.233-.223.452-.443.663-.66a25.186,25.186,0,0,0,2.455-2.933l.042.016c.083.032.176.07.271.109s.208.087.321.136.205.093.314.143.23.11.352.17.275.141.417.217c.074.04.148.08.224.123l.074.042c.181.1.366.214.553.332l.007.005c.081.051.162.1.244.158.176.117.353.243.529.373.09.066.179.131.268.2h0c.178.14.353.291.527.445.08.07.161.137.24.21l.014.015q.339.318.656.677c.021.024.044.045.065.069a8.42,8.42,0,0,1,1.092,1.591,7.518,7.518,0,0,1,.389.866,7.988,7.988,0,0,1,.5,2.833c0,4.1-1.771,6.984-5.656,9.068A22.07,22.07,0,0,1,1080.123,698.229Zm33.176-15.043,1.4,2.791.387.774-7.753-1.206-.854-.2-1.174-.278,1.564-2.738Zm6.244,11.7-.067-.011q-.511-.086-1.058-.188l-.092-.017q-1.781-.335-3.941-.834l2.281-1.826Zm-25.947-6.9c-.495-.154-1-.315-1.5-.473l-1.308-.413c-.007-.1-.024-.2-.034-.295-.012-.125-.027-.25-.044-.373-.035-.26-.082-.516-.138-.77-.023-.106-.041-.213-.068-.318a9.6,9.6,0,0,0-.32-1.036c-.01-.027-.024-.054-.035-.081-.1-.262-.21-.521-.335-.775l10.37,2.456-3.71,2.969c-.77-.236-1.559-.481-2.352-.728Zm9.831-1.31,8.989,2.129h0l3.948.935a1.01,1.01,0,0,0-.248.146l-4.193,3.354c-1.064-.265-2.183-.554-3.333-.861l-.084-.023-1.144-1.143-4.723-4.723Zm1.173,4.6c-1.831-.519-3.771-1.086-5.807-1.7l2.283-1.826Zm19.227,4.057c-.25,0-.529-.013-.817-.029l-.227-.012-4.46-4.46-.827-.826,16.525,3.914C1132.356,694.59,1129.277,695.336,1123.827,695.336Zm7.025-6.8c.248.251.487.511.714.78l-10.547-1.641,1.507-2.637.331-.579.8.107A14.879,14.879,0,0,1,1130.852,688.536Zm-11.948-1.19-1.4-.218-1.812-3.623,5.021.669Zm-15.632-2.762-.5-.118-.874-.207-1.389-2.779,4.214.562Zm-5.158-3.423,1.248,2.5L1088.123,681c-.035-.038-.072-.07-.107-.107-.175-.187-.353-.367-.535-.538-.018-.017-.035-.037-.053-.054l-.059-.054c-.226-.208-.456-.4-.687-.589l-.024-.021Zm-18.971-4.7h0a12.468,12.468,0,0,1,.988,1.409l-.036.052c-.079.112-.174.243-.279.384l-.1.139c-.117.155-.25.326-.4.506l-.172.21c-.13.157-.27.323-.419.494-.065.074-.128.148-.2.224-.221.248-.454.5-.712.769-.194.2-.4.4-.612.609-.491.471-1,.921-1.522,1.339a20.175,20.175,0,0,1-4.69,2.842,17.129,17.129,0,0,1-4.018,1.179,16.791,16.791,0,0,1-2.675.215c-.578,0-1.13-.031-1.67-.078-.162-.014-.319-.033-.479-.051q-.578-.065-1.127-.16c-.152-.027-.306-.053-.456-.083-.444-.09-.875-.192-1.29-.31-.041-.011-.086-.02-.127-.032-.453-.132-.885-.283-1.3-.443-.124-.048-.243-.1-.365-.15q-.449-.183-.869-.384c-.12-.057-.24-.114-.357-.174q-.476-.241-.915-.5c-.051-.03-.107-.059-.157-.089-.338-.205-.658-.416-.963-.63-.09-.063-.173-.127-.26-.19q-.327-.238-.629-.48c-.088-.071-.175-.141-.259-.211q-.321-.269-.611-.536c-.044-.04-.092-.081-.135-.121q-.347-.326-.647-.641c-.056-.058-.106-.114-.159-.171-.144-.155-.282-.307-.41-.454l-.159-.185q-.189-.227-.353-.434c-.029-.037-.062-.077-.089-.113l-.025-.033c.027-.005.049-.015.075-.02a8.251,8.251,0,0,0,1.179-.307c.083-.028.161-.059.241-.089a7.714,7.714,0,0,0,.937-.421c.036-.019.076-.036.111-.055a7.291,7.291,0,0,0,.87-.58c.063-.048.124-.1.184-.147a7.311,7.311,0,0,0,.721-.666c.011-.011.019-.023.03-.034a7.7,7.7,0,0,0,.57-.706c.04-.056.081-.111.119-.167a7.766,7.766,0,0,0,.45-.74c.022-.04.04-.08.06-.121q.171-.334.3-.662c.02-.05.041-.1.06-.148.09-.239.164-.471.224-.7.005-.016.013-.035.017-.052.018,0,.043-.008.061-.011.167-.026.349-.059.554-.1l.05-.01c.213-.046.447-.1.69-.173.063-.017.124-.036.189-.055.226-.066.459-.143.7-.231.037-.014.071-.024.109-.038.268-.1.544-.223.822-.355.071-.034.14-.07.21-.106q.369-.186.736-.413c.047-.029.094-.054.141-.084a8.7,8.7,0,0,0,.819-.6c.066-.054.129-.112.194-.168a8.323,8.323,0,0,0,.658-.644c.048-.052.1-.1.143-.153a8.014,8.014,0,0,0,.678-.913c.02-.031.044-.054.064-.086C1067.007,670.548,1074.793,671.08,1079.143,676.461Zm-30.434-11.723c5.73,0,8.078,1.98,9.964,3.572a10.019,10.019,0,0,0,2.568,1.753l-.011.014a6.125,6.125,0,0,1-.609.607c-.054.048-.109.094-.164.139a6.97,6.97,0,0,1-.594.441c-.024.016-.047.034-.072.05-.227.145-.457.272-.686.388l-.169.082c-.2.1-.4.185-.6.261l-.081.033c-.222.084-.438.155-.644.216l-.143.041c-.177.05-.347.094-.505.13l-.071.017c-.178.039-.338.069-.481.093l-.09.015c-.119.018-.226.034-.31.044l-.022,0-8.249-4.125a1,1,0,0,0-.447-.105h-9.6A20.115,20.115,0,0,1,1048.709,664.738Zm-15.029,6.892c.234-.224.5-.471.793-.732.029.034.07.079.1.115.129.15.263.3.419.481.071.08.153.169.23.254.136.152.27.3.422.465.117.127.245.262.372.4s.252.268.39.41c.166.172.343.349.521.528.11.109.215.216.328.327.07.069.132.133.2.2h-1.03a3.368,3.368,0,0,0-.68-1.078A5.5,5.5,0,0,0,1033.68,671.63Zm1.393,5.708a3.416,3.416,0,0,0,1.233-1.262h3.37a19.742,19.742,0,0,0,6.391,3.811l-.074.028c-.2.082-.4.155-.608.222-.074.024-.149.047-.224.069q-.282.082-.573.149c-.058.014-.115.029-.173.042-.244.051-.493.1-.744.131-.076.012-.153.02-.229.03-.191.024-.384.045-.578.062-.083.007-.167.015-.251.02-.257.018-.516.032-.775.038-.044,0-.089,0-.133,0-.226,0-.452,0-.679,0l-.271-.008c-.2-.006-.4-.015-.6-.027l-.218-.013c-.257-.017-.513-.039-.766-.065l-.242-.026q-.282-.03-.56-.066l-.255-.034c-.244-.033-.487-.069-.723-.107l-.112-.019c-.212-.035-.419-.072-.623-.109l-.227-.043-.513-.1-.172-.036c-.213-.045-.419-.091-.617-.136l-.166-.039-.434-.1-.165-.041c-.176-.045-.346-.088-.5-.13l-.016-.005c-.156-.041-.3-.081-.433-.119l-.046-.013A4.594,4.594,0,0,1,1035.073,677.338Z" fill="#1a1a1a"/>
      <path id="Path_1982" data-name="Path 1982" d="M1143.67,708.092H1023.2a1,1,0,0,0,0,2H1143.67a1,1,0,0,0,0-2Z" fill="#1a1a1a"/>
    </g>
  </g>
</svg>