<?xml version="1.0" encoding="utf-8"?>
<svg width="800px" height="800px" viewBox="-23.09 0 182.934 182.934" xmlns="http://www.w3.org/2000/svg">
  <g id="Group_2400" data-name="Group 2400" transform="translate(-269.023 -377.265)">
    <g id="Group_2398" data-name="Group 2398">
      <g id="Group_2292" data-name="Group 2292">
        <g id="Group_2291" data-name="Group 2291">
          <g id="Group_2290" data-name="Group 2290">
            <g id="Group_2289" data-name="Group 2289">
              <g id="Group_2288" data-name="Group 2288">
                <path id="Path_1157" data-name="Path 1157" d="M404.4,400.7a7.731,7.731,0,0,0-4.487-5.112c-3.256.5-6.86,1.3-5.435,2.277a7.17,7.17,0,0,1,2.294,4.026,18.933,18.933,0,0,0,6.21,1.644v1.417A3.672,3.672,0,0,0,404.4,400.7Z" fill="#333"/>
              </g>
            </g>
          </g>
        </g>
      </g>
      <g id="Group_2297" data-name="Group 2297">
        <g id="Group_2296" data-name="Group 2296">
          <g id="Group_2295" data-name="Group 2295">
            <g id="Group_2294" data-name="Group 2294">
              <g id="Group_2293" data-name="Group 2293">
                <circle id="Ellipse_134" data-name="Ellipse 134" cx="2.126" cy="2.126" r="2.126" transform="translate(371.806 385.108)" fill="#7a7a7a"/>
              </g>
            </g>
          </g>
        </g>
      </g>
      <g id="Group_2302" data-name="Group 2302">
        <g id="Group_2301" data-name="Group 2301">
          <g id="Group_2300" data-name="Group 2300">
            <g id="Group_2299" data-name="Group 2299">
              <g id="Group_2298" data-name="Group 2298">
                <path id="Path_1158" data-name="Path 1158" d="M388.815,400.031a.722.722,0,0,1-.152-.016,83.39,83.39,0,0,0-15.433-1.4h-.2c-8.632,0-10.364-4.554-10.434-4.749a.75.75,0,1,1,1.412-.507c.057.148,1.526,3.756,9.019,3.756h.19a85.072,85.072,0,0,1,15.748,1.432.75.75,0,0,1-.15,1.485Z" fill="#7a7a7a"/>
              </g>
            </g>
          </g>
        </g>
      </g>
      <g id="Group_2307" data-name="Group 2307">
        <g id="Group_2306" data-name="Group 2306">
          <g id="Group_2305" data-name="Group 2305">
            <g id="Group_2304" data-name="Group 2304">
              <g id="Group_2303" data-name="Group 2303">
                <path id="Path_1159" data-name="Path 1159" d="M402.987,404.283a.751.751,0,0,1-.72-.959c.015-.077.293-1.781-3.8-3.343-.552-.21-1.085-.416-1.609-.619a98.015,98.015,0,0,0-16.713-5.019.75.75,0,0,1,.328-1.464,99.313,99.313,0,0,1,16.926,5.084c.522.2,1.053.407,1.6.617,5.61,2.142,4.738,5.061,4.7,5.184A.751.751,0,0,1,402.987,404.283Z" fill="#7a7a7a"/>
              </g>
            </g>
          </g>
        </g>
      </g>
      <g id="Group_2312" data-name="Group 2312">
        <g id="Group_2311" data-name="Group 2311">
          <g id="Group_2310" data-name="Group 2310">
            <g id="Group_2309" data-name="Group 2309">
              <g id="Group_2308" data-name="Group 2308">
                <path id="Path_1160" data-name="Path 1160" d="M380.31,394.361a.75.75,0,1,1,0-1.5c5.623,0,6.342-3.6,6.348-3.636a.751.751,0,0,1,1.477.268C388.126,389.542,387.171,394.361,380.31,394.361Z" fill="#7a7a7a"/>
              </g>
            </g>
          </g>
        </g>
      </g>
      <g id="Group_2317" data-name="Group 2317">
        <g id="Group_2316" data-name="Group 2316">
          <g id="Group_2315" data-name="Group 2315">
            <g id="Group_2314" data-name="Group 2314">
              <g id="Group_2313" data-name="Group 2313">
                <path id="Path_1161" data-name="Path 1161" d="M394.483,397.863c-1.425-.98,2.179-1.78,5.435-2.277-.374-.191-.767-.376-1.183-.557-2.947-1.286-11.338-5.67-11.338-5.67s-2.5-5.494-7.087-7.086-8.3-4.252-12.756-4.252-11.183,2.973-12.756,8.5c0,0-.782,25.512,21.26,25.512a11.8,11.8,0,0,0,5.444-1.493,6.164,6.164,0,0,0,3.06-5.594c0-2.957-1.417-2.941-1.417-4.252,0-2.642,5.669-1.417,5.669-1.417a48.178,48.178,0,0,1,7.963,2.608A7.17,7.17,0,0,0,394.483,397.863Z" fill="#666"/>
              </g>
            </g>
          </g>
        </g>
      </g>
      <g id="Group_2322" data-name="Group 2322">
        <g id="Group_2321" data-name="Group 2321">
          <g id="Group_2320" data-name="Group 2320">
            <g id="Group_2319" data-name="Group 2319">
              <g id="Group_2318" data-name="Group 2318">
                <path id="Path_1162" data-name="Path 1162" d="M368.971,477.233c0-.143,0-.275,0-.416a48.679,48.679,0,0,1-12.375,2.867l-52.825,52.825H316.53l52.328-52.328Q368.969,478.747,368.971,477.233Z" fill="#333"/>
              </g>
            </g>
          </g>
        </g>
      </g>
      <g id="Group_2327" data-name="Group 2327">
        <g id="Group_2326" data-name="Group 2326">
          <g id="Group_2325" data-name="Group 2325">
            <g id="Group_2324" data-name="Group 2324">
              <g id="Group_2323" data-name="Group 2323">
                <path id="Path_1163" data-name="Path 1163" d="M384.562,463.06s-2.8,8.82-15.587,13.757c0,.141,0,.273,0,.416a37.23,37.23,0,0,1-9.921,25.512c9.325,0,12.756-8.5,12.756-8.5s8.545-17.333,12.982-31.332Z" fill="#333"/>
              </g>
            </g>
          </g>
        </g>
      </g>
      <g id="Group_2332" data-name="Group 2332">
        <g id="Group_2331" data-name="Group 2331">
          <g id="Group_2330" data-name="Group 2330">
            <g id="Group_2329" data-name="Group 2329">
              <g id="Group_2328" data-name="Group 2328">
                <path id="Path_1164" data-name="Path 1164" d="M380.31,433.3a30.522,30.522,0,0,0-15.43-8.308c-.772-.152-1.529-.267-2.268-.352a28.823,28.823,0,0,0-13.483,1.574L330.7,436.131s-18.479,34.362-21.26,39.685,2.834,4.252,2.834,4.252h36.851c30.028,0,35.433-17.008,35.433-17.008l.226-.151C386.344,458,387.4,453.5,387.4,450.3,387.4,437.99,380.31,433.3,380.31,433.3Z" fill="#333"/>
              </g>
            </g>
          </g>
        </g>
      </g>
      <g id="Group_2337" data-name="Group 2337">
        <g id="Group_2336" data-name="Group 2336">
          <g id="Group_2335" data-name="Group 2335">
            <g id="Group_2334" data-name="Group 2334">
              <g id="Group_2333" data-name="Group 2333">
                <line id="Line_2" data-name="Line 2" x1="38.268" y2="53.858" transform="translate(271.176 480.068)" fill="#333"/>
              </g>
            </g>
          </g>
        </g>
      </g>
      <g id="Group_2342" data-name="Group 2342">
        <g id="Group_2341" data-name="Group 2341">
          <g id="Group_2340" data-name="Group 2340">
            <g id="Group_2339" data-name="Group 2339">
              <g id="Group_2338" data-name="Group 2338">
                <path id="Path_1165" data-name="Path 1165" d="M384.562,416.289H387.4a12.322,12.322,0,0,0-5.67-5.67l-.225-.075a11.8,11.8,0,0,1-5.444,1.493c-22.042,0-21.26-25.512-21.26-25.512-7.677,2.531-9.921,11.338-9.921,11.338h2.835c-5.487,4.63-5.67,9.922-5.67,9.922h2.835a9.222,9.222,0,0,0-1.417,5.669l1.949.433A32.453,32.453,0,0,1,363.3,424.793h0l1.578.2a30.522,30.522,0,0,1,15.43,8.308,7.94,7.94,0,0,0,4.252-7.086H387.4C387.4,419.76,384.562,416.289,384.562,416.289Z" fill="#333"/>
              </g>
            </g>
          </g>
        </g>
      </g>
      <g id="Group_2347" data-name="Group 2347">
        <g id="Group_2346" data-name="Group 2346">
          <g id="Group_2345" data-name="Group 2345">
            <g id="Group_2344" data-name="Group 2344">
              <g id="Group_2343" data-name="Group 2343">
                <path id="Path_1166" data-name="Path 1166" d="M363.3,424.793Z" fill="#333"/>
              </g>
            </g>
          </g>
        </g>
      </g>
      <g id="Group_2352" data-name="Group 2352">
        <g id="Group_2351" data-name="Group 2351">
          <g id="Group_2350" data-name="Group 2350">
            <g id="Group_2349" data-name="Group 2349">
              <g id="Group_2348" data-name="Group 2348">
                <path id="Path_1167" data-name="Path 1167" d="M363.3,424.793Z" fill="#333"/>
              </g>
            </g>
          </g>
        </g>
      </g>
      <g id="Group_2357" data-name="Group 2357">
        <g id="Group_2356" data-name="Group 2356">
          <g id="Group_2355" data-name="Group 2355">
            <g id="Group_2354" data-name="Group 2354">
              <g id="Group_2353" data-name="Group 2353">
                <path id="Path_1168" data-name="Path 1168" d="M363.3,424.793a32.453,32.453,0,0,0-17.893-10.906l-1.949-.433s-21.544,11.339-29.764,11.339-19.424,8.145-21.26,14.173l1.417,2.834s-9.424,5.654-11.338,14.174l1.417,2.834s-5.547,10.42-4.252,22.677l2.835,2.835-12.756,43.937.171-.171c.955-3.922,4.026-10.583,11.167-22.506,4.347-7.256,10.051-16.863,15.821-26.608C309.4,457.879,322.2,436.131,322.2,436.131s10.153-18.379,40.412-11.5c-.781-.091-1.541-.145-2.279-.173Z" fill="#333"/>
              </g>
            </g>
          </g>
        </g>
      </g>
      <g id="Group_2362" data-name="Group 2362">
        <g id="Group_2361" data-name="Group 2361">
          <g id="Group_2360" data-name="Group 2360">
            <g id="Group_2359" data-name="Group 2359">
              <g id="Group_2358" data-name="Group 2358">
                <path id="Path_1169" data-name="Path 1169" d="M278.263,532.509s-.311.226-.813.527l-7.691,16.481s-2.463,4.252,4.252,4.252a23.5,23.5,0,0,0,11.338-2.835s9.719.935,12.756-7.086,4.252-11.339,4.252-11.339H278.263Z" fill="#333"/>
              </g>
            </g>
          </g>
        </g>
      </g>
      <g id="Group_2367" data-name="Group 2367">
        <g id="Group_2366" data-name="Group 2366">
          <g id="Group_2365" data-name="Group 2365">
            <g id="Group_2364" data-name="Group 2364">
              <g id="Group_2363" data-name="Group 2363">
                <path id="Path_1170" data-name="Path 1170" d="M349.129,480.068H343.46l-48.08,48.08-4.361,4.361h12.756L356.6,479.684A70.049,70.049,0,0,1,349.129,480.068Z" fill="#333"/>
              </g>
            </g>
          </g>
        </g>
      </g>
      <g id="Group_2372" data-name="Group 2372">
        <g id="Group_2371" data-name="Group 2371">
          <g id="Group_2370" data-name="Group 2370">
            <g id="Group_2369" data-name="Group 2369">
              <g id="Group_2368" data-name="Group 2368">
                <path id="Path_1171" data-name="Path 1171" d="M330.7,480.068,283.46,527.312l-5.2,5.2h12.756l4.361-4.361,48.08-48.08Z" fill="#333"/>
              </g>
            </g>
          </g>
        </g>
      </g>
      <g id="Group_2377" data-name="Group 2377">
        <g id="Group_2376" data-name="Group 2376">
          <g id="Group_2375" data-name="Group 2375">
            <g id="Group_2374" data-name="Group 2374">
              <g id="Group_2373" data-name="Group 2373">
                <path id="Path_1172" data-name="Path 1172" d="M322.2,436.131s-12.8,21.748-25.282,42.841c-5.77,9.745-11.474,19.352-15.821,26.608-7.141,11.923-10.212,18.584-11.167,22.506-.883,3.63.048,4.911,1.246,5.84,1.846,1.432,4.843-.033,6.274-.89.5-.3.813-.527.813-.527l5.2-5.2L330.7,480.068H312.278s-5.616,1.071-2.834-4.252c.2-.393.5-.948.861-1.632,4.551-8.583,20.4-38.053,20.4-38.053l18.425-9.921a28.282,28.282,0,0,1,11.2-1.747c.738.028,1.5.082,2.279.173C332.353,417.752,322.2,436.131,322.2,436.131Z" fill="#333"/>
              </g>
            </g>
          </g>
        </g>
      </g>
      <g id="Group_2382" data-name="Group 2382">
        <g id="Group_2381" data-name="Group 2381">
          <g id="Group_2380" data-name="Group 2380">
            <g id="Group_2379" data-name="Group 2379">
              <g id="Group_2378" data-name="Group 2378">
                <path id="Path_1173" data-name="Path 1173" d="M320.782,549.517c0,2.565-3.694,5.669-7.086,5.669s-2.835,4.252-2.835,4.252a3.116,3.116,0,0,1,2.835-1.417c.691,1.652,2.834,1.417,2.834,1.417,3.776,0,4.252-2.834,4.252-2.834a4.384,4.384,0,0,0,4.252,2.834H337.79s-.557-4.252,2.835-4.252h-8.5c-4.467,0-5.669-5.669-5.669-5.669V531.191a25.886,25.886,0,0,1-5.67,1.174Z" fill="#b3b3b3"/>
              </g>
            </g>
          </g>
        </g>
      </g>
      <g id="Group_2387" data-name="Group 2387">
        <g id="Group_2386" data-name="Group 2386">
          <g id="Group_2385" data-name="Group 2385">
            <g id="Group_2384" data-name="Group 2384">
              <g id="Group_2383" data-name="Group 2383">
                <path id="Path_1174" data-name="Path 1174" d="M316.53,532.509h1.418c1,0,1.938-.057,2.834-.144a25.886,25.886,0,0,0,5.67-1.174,17.614,17.614,0,0,0,5.669-2.934l11.968-11.338,14.961-14.174a37.032,37.032,0,0,0,9.808-22.564Z" fill="#333"/>
              </g>
            </g>
          </g>
        </g>
      </g>
      <g id="Group_2392" data-name="Group 2392">
        <g id="Group_2391" data-name="Group 2391">
          <g id="Group_2390" data-name="Group 2390">
            <g id="Group_2389" data-name="Group 2389">
              <g id="Group_2388" data-name="Group 2388">
                <path id="Path_1175" data-name="Path 1175" d="M343.188,560.2c-.1,0-.218,0-.349-.013a.75.75,0,0,1,.054-1.5h.567a.75.75,0,0,1,.077,1.5C343.517,560.186,343.387,560.2,343.188,560.2Z" fill="#7a7a7a"/>
              </g>
            </g>
          </g>
        </g>
      </g>
      <g id="Group_2397" data-name="Group 2397">
        <g id="Group_2396" data-name="Group 2396">
          <g id="Group_2395" data-name="Group 2395">
            <g id="Group_2394" data-name="Group 2394">
              <g id="Group_2393" data-name="Group 2393">
                <path id="Path_1176" data-name="Path 1176" d="M373.223,555.186H359.05c-4.467,0-5.669-5.669-5.669-5.669l-1.418-22.677,7.087-24.1-14.961,14.174,2.205,9.921s1.418,20.112,1.418,22.677-3.7,5.669-7.087,5.669-2.835,4.252-2.835,4.252a3.116,3.116,0,0,1,2.835-1.417,2.514,2.514,0,0,0,2.268,1.417h.567c3.775,0,4.252-2.834,4.252-2.834a4.714,4.714,0,0,0,.913,1.463,4.454,4.454,0,0,0,3.338,1.371h19.843c2.664,0,2.835-1.417,2.835-1.417,3.123,0,4.252,1.417,4.252,1.417C378.893,555.133,373.223,555.186,373.223,555.186Z" fill="#b3b3b3"/>
              </g>
            </g>
          </g>
        </g>
      </g>
    </g>
    <g id="Group_2399" data-name="Group 2399">
      <path id="Path_1177" data-name="Path 1177" d="M405.582,400.495c-.687-2.524-2.143-4.194-4.869-5.583-.382-.195-.794-.389-1.224-.577-2.625-1.144-9.727-4.832-11.071-5.532-.559-1.121-3.082-5.742-7.408-7.245-1.471-.51-2.871-1.142-4.223-1.753-2.892-1.307-5.624-2.54-8.779-2.54a16.259,16.259,0,0,0-7.839,2.281,12.051,12.051,0,0,0-5.507,6.4c-7.681,2.776-9.964,11.356-10.058,11.726a.749.749,0,0,0,.727.935h.928a14.954,14.954,0,0,0-4.513,9.146.752.752,0,0,0,.75.776h1.617a10.166,10.166,0,0,0-.986,4.482c-3.046,1.573-21.659,11.025-28.978,11.025-3.963,0-8.866,1.807-13.449,4.959-4.4,3.027-7.591,6.671-8.528,9.746a.75.75,0,0,0,.047.554l1.115,2.23c-2.145,1.419-9.4,6.7-11.1,14.278a.751.751,0,0,0,.06.5l1.248,2.5a44.129,44.129,0,0,0-4.157,22.759.748.748,0,0,0,.215.451l2.521,2.522-12.632,43.511a.75.75,0,0,0,.025.489c-.714,3.552.362,4.981,1.653,5.982l.019.012.006.007c.006,0,.013.005.019.009a3.777,3.777,0,0,0,2.325.731,7.635,7.635,0,0,0,2.777-.615l-6.772,14.513a3.732,3.732,0,0,0-.148,3.434c.73,1.267,2.435,1.909,5.068,1.909a24.455,24.455,0,0,0,11.519-2.822c1.605.08,10.357.128,13.277-7.584,2.368-6.255,3.636-9.669,4.074-10.854H318.4c.676,0,1.371-.035,2.085-.086v16.344c0,2.032-3.277,4.919-6.337,4.919a3.292,3.292,0,0,0-2.6,1.087,5.693,5.693,0,0,0-.98,4.013.75.75,0,0,0,1.39.282,2.215,2.215,0,0,1,1.74-1.041,3.518,3.518,0,0,0,3.009,1.422c.142,0,.25-.006.308-.011a5.035,5.035,0,0,0,4.293-1.952,5.135,5.135,0,0,0,4.2,1.952h12.729c.011,0,.021-.006.032-.007a.753.753,0,0,0,.275-.059l.012-.008a.727.727,0,0,0,.215-.16c.009-.008.022-.012.03-.021s.014-.03.024-.043a.824.824,0,0,0,.058-.072,2.22,2.22,0,0,1,1.742-1.041,3.3,3.3,0,0,0,2.661,1.409h.018c.122.008.236.012.331.012.2,0,.327-.013.348-.015a5.024,5.024,0,0,0,4.25-1.947q.138.177.289.34a5.2,5.2,0,0,0,3.753,1.615c.071,0,.124,0,.156,0H372.26c2.081,0,2.957-.8,3.323-1.4a4.521,4.521,0,0,1,3.177,1.121.749.749,0,0,0,1.336-.467,4.319,4.319,0,0,0-1.274-3.189c-1.822-1.8-4.955-1.821-5.147-1.813H359.5c-3.6,0-4.8-4.515-4.925-5.028l-1.4-22.483,6.9-23.461c8.995-.336,12.62-8.333,12.868-8.91.327-.667,8.676-17.732,13.015-31.418,1.754-5.533,2.643-9.85,2.643-12.832,0-10.113-4.6-15.222-6.556-16.944a8.651,8.651,0,0,0,3.706-6.4h2.1a.75.75,0,0,0,.75-.75,18.7,18.7,0,0,0-2.205-9.172h1.455a.75.75,0,0,0,.662-1.1,13.917,13.917,0,0,0-5.117-5.534,6.963,6.963,0,0,0,2.371-5.452,5.12,5.12,0,0,0-1.063-3.482c-.252-.349-.355-.5-.355-.77a.6.6,0,0,1,.234-.52c.766-.619,3.1-.469,4.534-.163h.007a42.312,42.312,0,0,1,7.074,2.276l.764.3a23.268,23.268,0,0,0,5.73,1.657v.7a.75.75,0,0,0,1.128.648A4.443,4.443,0,0,0,405.582,400.495Zm-7.854-5.208-.242.051-.416.094-.211.05c-.138.034-.267.067-.391.1-.051.013-.106.027-.155.041-.167.046-.325.093-.47.139l-.032.011c-.132.042-.255.084-.369.127l-.115.044c-.08.031-.157.062-.227.093-.039.016-.076.033-.112.05-.063.029-.123.058-.179.087l-.092.049c-.056.031-.107.062-.156.093-.021.014-.044.027-.064.041a2.061,2.061,0,0,0-.176.131l-.009.009c-.035.029-.065.059-.094.088a92.5,92.5,0,0,0-9.67-2.864,6.482,6.482,0,0,0,3.711-3.31c1.886.979,6.809,3.522,9.626,4.841Zm.123,6.03c-.061-.206-.134-.383-.2-.576s-.122-.376-.19-.548c-.1-.246-.207-.464-.315-.686-.041-.084-.077-.181-.12-.262l.288.111c.524.2,1.056.409,1.608.619,2.669,1.019,3.476,2.1,3.712,2.744A21.747,21.747,0,0,1,397.851,401.317ZM283.689,484.523a.75.75,0,0,0-.19-.739l-2.646-2.646c-1.149-11.762,4.141-21.882,4.2-21.984a.75.75,0,0,0,.008-.687l-1.3-2.592c1.951-7.959,10.842-13.383,10.932-13.438a.75.75,0,0,0,.285-.978l-1.28-2.56c2.246-6.5,13.777-13.363,20.451-13.363,7.93,0,27.338-9.977,29.869-11.3l1.682.374c.808.18,1.6.4,2.394.638.261.08.515.178.773.265.523.176,1.045.354,1.558.557.3.119.6.253.894.381.46.2.918.4,1.368.62.306.149.608.309.909.468.43.227.855.461,1.273.707q.449.263.887.541c.409.258.811.528,1.208.8.281.2.562.392.836.6.4.3.788.611,1.173.928.252.207.507.41.752.624.409.358.8.735,1.193,1.114.2.2.41.382.606.583.036.037.067.076.1.113l-.038-.007c-.161-.033-.329-.062-.493-.093-.4-.078-.805-.156-1.22-.228-.221-.038-.45-.072-.674-.108-.368-.06-.734-.12-1.11-.174-.252-.036-.51-.067-.766-.1-.359-.047-.718-.094-1.084-.135-.271-.031-.545-.056-.819-.082-.361-.036-.722-.071-1.088-.1-.282-.023-.568-.039-.854-.057-.365-.023-.73-.045-1.1-.06-.294-.013-.591-.02-.888-.028-.366-.009-.732-.015-1.1-.017-.3,0-.609,0-.914.007-.37.006-.74.016-1.113.03-.308.012-.616.028-.926.046q-.561.033-1.124.082c-.311.026-.621.054-.933.087-.378.04-.755.088-1.134.139-.311.042-.622.084-.934.133-.381.06-.762.131-1.144.2-.309.058-.617.115-.926.181-.386.082-.771.178-1.157.273-.3.075-.606.146-.908.229-.394.109-.785.232-1.178.355-.291.091-.583.176-.874.276-.409.14-.815.3-1.221.456-.27.1-.541.2-.809.311-.448.186-.892.4-1.336.605-.221.1-.446.2-.666.307-.662.33-1.317.683-1.965,1.066q-.6.354-1.153.716c-.123.08-.236.161-.356.242-.24.161-.483.322-.71.485-.141.1-.27.2-.406.3-.194.144-.392.287-.576.43-.149.116-.286.23-.428.346-.157.126-.319.253-.468.379s-.293.255-.438.383c-.126.11-.258.222-.379.332-.147.134-.282.265-.422.4-.105.1-.215.2-.315.3-.145.142-.278.279-.413.418-.081.083-.168.168-.246.25-.142.149-.271.291-.4.435-.06.066-.125.134-.182.2-.138.154-.263.3-.387.446-.04.048-.086.1-.125.146-.132.158-.252.307-.368.454l-.071.088c-.123.157-.235.3-.339.444l-.033.043c-.111.151-.211.289-.3.418l-.006.008c-.358.513-.547.84-.589.916l-.017.028-.038.065-.031.053-1.3,2.212-.674,1.145-1.123,1.907c-1.716,2.913-4.028,6.837-6.711,11.387l-.038.064-.378.641-1.592,2.7c-.977,1.656-1.991,3.375-3.031,5.136l-.167.283-1.812,3.068-1.5,2.538c-2.253,3.812-4.574,7.739-6.88,11.633-6.62,11.181-11.941,20.132-15.818,26.6-.6,1.005-1.171,1.97-1.725,2.917-.107.182-.214.366-.319.546q-.791,1.356-1.513,2.632l-.263.468c-.476.845-.935,1.671-1.367,2.463l-.054.1c-.438.806-.847,1.576-1.239,2.327-.044.085-.1.179-.14.264Zm-12.576,43.734h0a40.545,40.545,0,0,1,2.872-7.4q.314-.657.658-1.35c1.838-3.7,4.347-8.2,7.551-13.548,2.182-3.642,4.821-8.069,7.89-13.235q3.582-6.027,7.933-13.376c6.139-10.37,12.391-20.964,17.144-29.027,4.8-8.148,8.075-13.706,8.139-13.816l.006-.01,0-.006a16.025,16.025,0,0,1,1.562-2.154c.152-.181.315-.371.49-.567.35-.392.747-.812,1.194-1.25a27.993,27.993,0,0,1,5.418-4.123c.661-.388,1.332-.738,2.009-1.069.211-.1.425-.2.637-.294.478-.22.958-.43,1.441-.623.236-.1.472-.188.709-.276.5-.187,1.006-.359,1.512-.52.2-.063.39-.131.587-.19.7-.207,1.394-.395,2.1-.557.112-.026.225-.045.338-.07q.893-.2,1.785-.35c.232-.04.464-.073.7-.108q.736-.113,1.47-.2c.236-.027.472-.054.707-.077q.807-.076,1.608-.122c.166-.01.333-.025.5-.032q1.042-.05,2.073-.051c.153,0,.3.005.455.006.555.005,1.108.017,1.655.039.223.009.444.021.666.033q.751.041,1.489.1c.121.01.243.019.363.03l-.061.011q-.545.087-1.042.185l-.079.015c-1.091.217-2,.46-2.7.674l-.115.036c-.178.056-.341.108-.489.158l-.143.049c-.124.043-.232.081-.33.117l-.114.041-.212.082-.074.029-.072.029-.046.02a.549.549,0,0,0-.06.028L330.8,435.465a.735.735,0,0,0-.3.3l-.119.219c-.069.13-.164.306-.295.551l-.532.989c-3.369,6.268-14.867,27.663-19.079,35.589-.076.143-.147.276-.218.411l-.158.3c-.044.084-.084.16-.127.24l-.071.133c-.12.229-.232.439-.333.631l-.068.129c-.1.186-.189.359-.264.5a9.276,9.276,0,0,0-.581,1.336,3.151,3.151,0,0,0,.185,2.987,2.216,2.216,0,0,0,.188.21l-37.513,52.8C270.863,532.053,270.474,530.883,271.113,528.257Zm1.623,5.4,37.6-52.922.015,0,.121.032a4.736,4.736,0,0,0,.516.091c.038.005.074.007.112.01.146.014.288.023.426.026l.108,0,.043,0c.143,0,.276-.006.4-.013l.117-.009c.1-.008.19-.016.273-.025l.1-.012c.093-.012.175-.024.23-.033h16.548l-51.116,51.115-.008.006-.007.005-.125.085-.047.032-.162.1-.074.048c-.087.055-.183.114-.29.178C276.537,532.974,274.3,534.141,272.736,533.658ZM342.1,480.812l-50.941,50.941H280.527l50.941-50.941Zm7.48,0c.761,0,1.556-.017,2.366-.043.243-.007.486-.015.727-.025q.9-.037,1.825-.1c.184-.012.375-.017.558-.031l-44.47,44.469-6.671,6.672H293.283l50.941-50.941Zm9.408-.637q1.67-.232,3.261-.55l.173-.034q.918-.187,1.808-.4c.107-.026.215-.055.322-.082,1.414-.353,2.791-.745,4.1-1.207-.012.66-.03,1.316-.075,1.953L344.027,504.4l-27.353,27.354H306.039l44.827-44.828,6.531-6.531c.3-.033.584-.083.879-.121C358.514,480.243,358.752,480.209,358.991,480.175Zm-61.134,63.4c-2.794,7.379-11.609,6.64-11.983,6.606a.749.749,0,0,0-.462.106,22.992,22.992,0,0,1-10.948,2.725c-1.995,0-3.333-.41-3.766-1.153a2.3,2.3,0,0,1,.163-1.973.56.56,0,0,0,.031-.059l7.6-16.276.1-.064.1-.065c.071-.045.131-.085.186-.121l.052-.035.022-.014h22.783C301.17,534.775,299.937,538.082,297.857,543.576Zm70.466-61.351c-.015.109-.022.225-.038.334-.036.244-.081.479-.12.719-.1.594-.205,1.182-.328,1.751-.049.231-.1.457-.158.684-.133.563-.274,1.116-.427,1.654q-.089.307-.18.609-.249.822-.526,1.6c-.059.168-.118.339-.18.5q-.3.825-.633,1.6c-.049.115-.1.235-.146.348q-.39.9-.8,1.724c-.01.02-.019.041-.028.06-.591,1.187-1.2,2.258-1.793,3.205v0c-.284.454-.563.876-.835,1.273-.053.077-.1.148-.156.223-.216.312-.428.609-.631.882-.067.089-.13.173-.2.258-.181.24-.357.468-.523.674-.063.08-.126.158-.187.232-.155.19-.3.366-.436.523-.051.06-.1.124-.154.18q-.193.223-.35.393l-.1.112q-.156.168-.255.27l-.04.043c-.066.067-.111.11-.116.116h0l-14.958,14.171h0l-11.945,11.317a17.169,17.169,0,0,1-5.413,2.787,24.982,24.982,0,0,1-5.2,1.1c-.1.011-.2.028-.3.038h0c-.829.08-1.607.125-2.366.137Zm-27.244,72.2h-8.5c-3.555,0-4.769-4.4-4.92-5.006V531.708a18.018,18.018,0,0,0,5.435-2.913L344.1,518.367,346,526.942c.082,1.174,1.411,20.125,1.411,22.569C347.415,551.543,344.138,554.43,341.079,554.43Zm-15.591,4.252-.058,0a3.638,3.638,0,0,1-3.5-2.367.745.745,0,0,0-.769-.462.753.753,0,0,0-.664.611c-.043.227-.506,2.216-3.514,2.216-.025,0-.054,0-.078,0-.066.006-1.6.146-2.065-.96a.748.748,0,0,0-.621-.458c-.017,0-.1-.009-.239-.009a4.264,4.264,0,0,0-1.841.419,2.615,2.615,0,0,1,.538-1.172,1.835,1.835,0,0,1,1.471-.576c3.736,0,7.837-3.359,7.837-6.419V533.032c.1-.012.188-.033.284-.045q.809-.106,1.593-.254c.111-.021.224-.037.335-.059.614-.125,1.213-.271,1.8-.435.051-.014.106-.023.156-.038v17.31a.737.737,0,0,0,.017.155c.054.256,1.386,6.264,6.4,6.264h5.6c-.018.03-.028.063-.046.093a4.03,4.03,0,0,0-.212.427c-.036.083-.079.162-.11.247a4.851,4.851,0,0,0-.15.511c-.015.06-.037.119-.05.179a6.03,6.03,0,0,0-.1.665c-.006.056-.006.1-.01.156-.013.155-.023.3-.026.441l0,.033Zm26.21-32.06a.754.754,0,0,0-.03.259l1.418,22.677a.667.667,0,0,0,.015.108c.054.256,1.386,6.264,6.4,6.264h14.179c.018,0,2.695,0,4.087,1.382a2.729,2.729,0,0,1,.393.488,8.219,8.219,0,0,0-3.069-.535.749.749,0,0,0-.744.66c0,.008-.24.757-2.09.757H352.417l-.056,0a3.683,3.683,0,0,1-2.732-1.133,3.933,3.933,0,0,1-.768-1.234.746.746,0,0,0-.7-.466.63.63,0,0,0-.075,0,.755.755,0,0,0-.664.611c-.043.227-.506,2.216-3.514,2.216h-.537a1.771,1.771,0,0,1-1.605-.956.75.75,0,0,0-.622-.458,4.221,4.221,0,0,0-2.072.407l.012-.051a3.435,3.435,0,0,1,.156-.492c.017-.042.033-.084.051-.125a2.1,2.1,0,0,1,.313-.5,1.586,1.586,0,0,1,.138-.123,1.254,1.254,0,0,1,.144-.129,1.553,1.553,0,0,1,.189-.1,1.494,1.494,0,0,1,.148-.079,2.03,2.03,0,0,1,.261-.07c.045-.011.086-.028.134-.036a2.722,2.722,0,0,1,.456-.036c3.735,0,7.836-3.359,7.836-6.419,0-2.562-1.361-21.908-1.419-22.73a.808.808,0,0,0-.016-.11l-2.113-9.506L358,505.2ZM371.587,493.9c-.008.016-.016.033-.023.051-.03.074-2.876,6.915-10.237,7.913.058-.067.124-.15.184-.222l.144-.174q.262-.319.553-.693l.117-.15a36.743,36.743,0,0,0,2.429-3.6l.028-.048c.27-.456.54-.937.809-1.439l.093-.175q.384-.728.759-1.517l.08-.167a38.543,38.543,0,0,0,2.226-6c.007-.024.013-.049.019-.073q.282-1.02.515-2.1c.033-.149.062-.3.093-.451q.186-.912.333-1.866c.032-.206.063-.412.091-.621.084-.606.15-1.227.206-1.858.015-.164.041-.318.054-.484.008-.1.011-.2.017-.307.014-.195.024-.391.034-.588.034-.622.055-1.245.059-1.866,0-.05,0-.1,0-.148.537-.215,1.035-.445,1.537-.672.118-.053.238-.1.355-.156.466-.216.9-.441,1.34-.667.195-.1.393-.2.586-.3.46-.249.894-.5,1.32-.761.151-.09.3-.177.452-.27.542-.339,1.054-.682,1.541-1.029.033-.023.066-.044.1-.067a27.036,27.036,0,0,0,5.012-4.6C377.884,481.088,371.66,493.756,371.587,493.9Zm12.138-56.247A22.941,22.941,0,0,1,387.1,450.3c0,2.784-.839,6.864-2.494,12.128l-.007,0a.746.746,0,0,0-.258.319.79.79,0,0,0-.04.076v0l-.024.067c-.008.021-.019.052-.031.082s-.035.088-.054.137-.044.109-.073.176c-.037.089-.083.191-.133.3l-.095.2c-.048.1-.1.21-.16.323-.036.07-.07.138-.109.212-.1.188-.211.389-.335.6-.03.051-.065.108-.1.161q-.176.3-.386.622l-.1.15a21.4,21.4,0,0,1-1.361,1.837l-.02.025a25.578,25.578,0,0,1-4.219,4c-.158.121-.313.247-.474.364-.34.248-.709.492-1.078.736-.189.125-.375.254-.567.375-.352.221-.732.438-1.11.655-.232.132-.46.27-.7.4-.34.184-.707.36-1.067.538a36.885,36.885,0,0,1-3.8,1.6q-.585.21-1.184.407c-.442.143-.884.285-1.329.413-.4.117-.822.222-1.237.33q-1.086.281-2.172.51c-.345.073-.694.141-1.046.207q-1.071.2-2.13.358c-.49.072-.982.142-1.482.2-.4.05-.809.1-1.209.139q-1.365.137-2.784.219c-.205.012-.413.026-.616.036-1.163.056-2.344.09-3.544.09H312.732a.805.805,0,0,0-.139.013c-.639.119-2.1.17-2.552-.433a.9.9,0,0,1-.113-.313.951.951,0,0,1-.046-.127,2.087,2.087,0,0,1,.026-.448c.008-.059,0-.1.01-.166a4.535,4.535,0,0,1,.191-.645c.016-.044.019-.079.037-.125a8.638,8.638,0,0,1,.416-.911c2.638-5.048,19.633-36.659,21.149-39.479l18.2-9.8.033-.014.1-.039.027-.01c.06-.023.132-.051.22-.083l.035-.012c.094-.034.2-.072.323-.113l.036-.012c.126-.043.267-.089.421-.137l.043-.013q.24-.075.521-.156l.035-.01c.2-.057.411-.115.638-.174h.008a29.018,29.018,0,0,1,3.434-.664l.131-.016c.277-.035.561-.068.853-.1l.295-.026q.366-.033.745-.057l.4-.022q.342-.017.695-.026c.157,0,.315-.008.474-.009.218,0,.44,0,.663,0,.179,0,.357,0,.54.01.078,0,.159.008.238.011l2.853.317h0l1.543.191c.359.071.71.167,1.065.252.327.078.659.144.983.234.348.1.687.217,1.03.327.326.1.655.2.977.311s.64.259.96.388.67.256,1,.4c.311.139.613.3.92.453.33.162.664.312.989.488s.619.363.929.545.624.351.93.546.613.42.92.631.6.393.886.608c.375.277.739.58,1.107.876.214.173.434.332.645.511q.863.732,1.7,1.535a.7.7,0,0,0,.1.084A13.831,13.831,0,0,1,383.725,437.657Zm2.813-22.125h-1.522a.752.752,0,0,0-.583,1.223,15.635,15.635,0,0,1,2.653,8.7h-2.07a.75.75,0,0,0-.748.8,7.161,7.161,0,0,1-3.4,6.092c-.243-.227-.495-.432-.741-.651-.276-.244-.549-.5-.829-.728-.318-.265-.643-.511-.966-.762-.283-.219-.562-.445-.849-.654-.331-.24-.669-.461-1.006-.687-.288-.194-.572-.395-.864-.578-.347-.217-.7-.413-1.053-.615-.29-.167-.577-.343-.871-.5-.366-.2-.74-.367-1.112-.546-.289-.138-.573-.288-.865-.417-.394-.174-.8-.324-1.2-.48-.277-.109-.551-.23-.832-.329-.447-.16-.9-.294-1.358-.432-.24-.072-.476-.158-.718-.225q-1.024-.282-2.07-.489l-.054-.013h-.006l-.047-.007h-.01c-.426-.084-.876-.14-1.319-.206-.267-.313-.558-.6-.836-.906s-.563-.633-.861-.933c-.341-.343-.7-.662-1.059-.989-.309-.285-.608-.581-.927-.854-.37-.316-.76-.605-1.142-.9-.329-.256-.647-.525-.985-.769-.4-.29-.822-.552-1.236-.824-.34-.223-.67-.46-1.017-.67-.44-.267-.9-.5-1.349-.749-.34-.186-.671-.386-1.017-.56-.482-.241-.981-.449-1.475-.668-.331-.146-.655-.31-.992-.446-.56-.226-1.134-.415-1.706-.61-.283-.1-.559-.212-.845-.3q-1.3-.4-2.624-.7l-1.4-.312a9.577,9.577,0,0,1,1.362-4.691.749.749,0,0,0-.653-1.117h-1.982a15.015,15.015,0,0,1,5.3-8.6.75.75,0,0,0-.484-1.323h-1.808c.761-2.129,3.078-7.319,8.15-9.5v.024c.005.189.012.4.023.626l0,.051c.011.226.026.473.044.733l.01.142c.02.266.043.544.071.84,0,.039.009.078.012.117.029.288.062.589.1.9,0,.034.007.066.012.1.04.324.088.661.141,1.007.011.069.022.137.033.207q.082.522.185,1.07c.011.059.024.12.036.18.069.357.144.72.228,1.091.009.038.016.074.025.112.088.386.188.78.294,1.178l.065.242c.109.395.226.794.354,1.2.022.07.046.14.069.21.129.4.267.8.417,1.2.011.03.021.059.032.088.155.415.326.831.505,1.246.035.082.07.164.106.246q.27.611.575,1.216c.038.074.077.147.115.22.212.409.433.815.672,1.217l.025.044c.242.407.5.807.776,1.2.051.074.1.149.154.223q.4.574.851,1.128l.172.206c.318.381.647.757,1,1.119,3.725,3.842,8.739,5.789,14.9,5.789h.089l.087,0,.064,0,.111,0,.1-.006.13-.009.12-.01.157-.014.144-.015.175-.019.166-.022.192-.026.182-.029.21-.035.2-.037.221-.043.209-.046.236-.055.218-.056.244-.066.225-.067c.084-.025.168-.052.253-.08l.227-.077c.087-.031.173-.063.26-.1s.152-.058.228-.089.176-.074.264-.112l.226-.1c.088-.041.177-.085.265-.13s.148-.075.221-.115c.032-.017.064-.031.1-.049A11.472,11.472,0,0,1,386.538,415.532Zm-3.048-13.189a3.689,3.689,0,0,1,.776,2.6,5.45,5.45,0,0,1-2.7,4.954,11.118,11.118,0,0,1-5.053,1.382c-5.738,0-10.387-1.792-13.819-5.327q-.319-.33-.618-.672c-.068-.078-.132-.159-.2-.237-.129-.153-.259-.3-.382-.46-.075-.1-.145-.192-.218-.288-.109-.143-.219-.286-.324-.431-.074-.1-.145-.21-.217-.315-.1-.141-.2-.281-.288-.423-.071-.11-.139-.221-.208-.331-.089-.141-.177-.282-.262-.424-.067-.113-.131-.227-.2-.34-.082-.142-.163-.284-.24-.427-.063-.116-.123-.233-.184-.35-.074-.142-.148-.285-.219-.428-.059-.118-.115-.238-.172-.357-.067-.142-.134-.284-.2-.427-.054-.12-.106-.24-.158-.36-.062-.144-.124-.288-.183-.432-.05-.119-.1-.238-.145-.358-.057-.144-.112-.287-.167-.431-.045-.121-.089-.241-.133-.362-.051-.143-.1-.286-.151-.429q-.062-.178-.12-.357c-.047-.143-.093-.287-.138-.43-.036-.117-.073-.235-.108-.352-.043-.144-.084-.287-.125-.43-.032-.113-.065-.227-.1-.34-.04-.145-.078-.29-.115-.434-.028-.109-.056-.219-.083-.328-.036-.143-.069-.286-.1-.428-.025-.107-.051-.215-.075-.321-.032-.144-.062-.286-.091-.428-.021-.1-.043-.2-.063-.3-.03-.149-.058-.295-.085-.441-.017-.089-.035-.179-.05-.267-.028-.154-.053-.3-.079-.454-.012-.078-.027-.157-.039-.233-.026-.163-.05-.322-.073-.48-.009-.059-.019-.121-.027-.18q-.045-.309-.082-.6l0-.025c-.053-.418-.1-.814-.131-1.184l-.007-.081c-.014-.154-.027-.306-.039-.45,0-.039-.006-.075-.008-.114-.01-.129-.02-.257-.028-.378l-.006-.112c-.008-.115-.014-.228-.02-.334l-.005-.11c-.005-.1-.01-.2-.014-.29l0-.1c0-.087-.006-.171-.009-.249l0-.081c0-.078,0-.153,0-.22v-.054c0-.072,0-.141,0-.2v-.012c0-.108,0-.184,0-.239,1.527-5.133,7.936-7.866,12.008-7.866,2.832,0,5.421,1.169,8.161,2.407,1.383.624,2.814,1.27,4.348,1.8,3.707,1.288,6.014,5.434,6.536,6.457-.253.791-1.457,3.423-6.289,3.423a.485.485,0,0,0-.066.014.668.668,0,0,0-.148.029.739.739,0,0,0-.131.051.756.756,0,0,0-.117.08.676.676,0,0,0-.1.1.654.654,0,0,0-.078.116.747.747,0,0,0-.062.138c-.007.022-.022.039-.027.061a.571.571,0,0,0,0,.083.727.727,0,0,0-.016.081c0,.024.011.043.013.066a.733.733,0,0,0,.03.148.743.743,0,0,0,.051.131.751.751,0,0,0,.079.117.681.681,0,0,0,.1.1.647.647,0,0,0,.115.078.753.753,0,0,0,.139.062.565.565,0,0,0,.061.027,101.68,101.68,0,0,1,13.559,3.823,1.8,1.8,0,0,0,.353.315,2.787,2.787,0,0,1,.374.32c.034.034.068.071.1.108a3.8,3.8,0,0,1,.276.337c.027.036.055.069.081.107a5.732,5.732,0,0,1,.321.524c.023.043.044.09.066.133.082.158.16.325.236.5l.042.1a40.056,40.056,0,0,0-6.584-2.064c-.061-.013-.2-.04-.382-.073a85.381,85.381,0,0,0-15.373-1.361h-.19c-7.493,0-8.963-3.608-9.019-3.756a.75.75,0,1,0-1.412.506c.07.2,1.851,4.825,10.633,4.749a81.6,81.6,0,0,1,9.8.558,2.09,2.09,0,0,0-.633,1.527A2.616,2.616,0,0,0,383.49,402.343Zm20.687.362c-.2-1.07-1.125-2.758-4.721-4.131-.55-.21-1.08-.415-1.6-.617-.6-.232-1.19-.46-1.784-.685.034-.012.06-.023.1-.035.054-.018.121-.038.182-.056s.137-.044.218-.068.157-.042.236-.064.169-.047.267-.072.2-.047.3-.071l.32-.075c.113-.025.244-.052.369-.078l.377-.078c.133-.026.284-.053.428-.08l.463-.084c.152-.027.321-.053.483-.08l.437-.071a6.865,6.865,0,0,1,3.889,4.529A3.438,3.438,0,0,1,404.177,402.7Z" fill="#1a1a1a"/>
      <circle id="Ellipse_135" data-name="Ellipse 135" cx="2.126" cy="2.126" r="2.126" transform="translate(372.26 385.101)" fill="#1a1a1a"/>
    </g>
  </g>
</svg>