<?xml version="1.0" encoding="utf-8"?>
<svg width="800px" height="800px" viewBox="-3.37 0 49.339 49.339" xmlns="http://www.w3.org/2000/svg">
  <g id="Group_5935" data-name="Group 5935" transform="translate(-1096.053 -1322.459)">
    <g id="Group_5933" data-name="Group 5933">
      <g id="Group_5857" data-name="Group 5857">
        <g id="Group_5856" data-name="Group 5856">
          <g id="Group_5855" data-name="Group 5855">
            <path id="Path_2140" data-name="Path 2140" d="M1135.071,1328.52l-2.834,1.418,1.986.993a5.466,5.466,0,0,1,3.683-.993A3.477,3.477,0,0,0,1135.071,1328.52Z" fill="#b3b3b3"/>
          </g>
        </g>
      </g>
      <g id="Group_5860" data-name="Group 5860">
        <g id="Group_5859" data-name="Group 5859">
          <g id="Group_5858" data-name="Group 5858">
            <path id="Path_2141" data-name="Path 2141" d="M1127.985,1335.607s-3.9-2.379-1.418-5.669,8.5-1.418,8.5-1.418a10.649,10.649,0,0,0,2.277-4.209.848.848,0,0,0-1.413-.845c-.8.816-1.684,1.686-2.281,2.22-1.377,1.229-9.738-1.181-11.339,7.086a20.529,20.529,0,0,0-3.4,1.627,37.151,37.151,0,0,0-5.1,8.295C1119.346,1336.91,1127.985,1335.607,1127.985,1335.607Z" fill="#f95b67"/>
          </g>
        </g>
      </g>
      <g id="Group_5863" data-name="Group 5863">
        <g id="Group_5862" data-name="Group 5862">
          <g id="Group_5861" data-name="Group 5861">
            <path id="Path_2142" data-name="Path 2142" d="M1131.237,1339.862c-.127.458-.263.925-.418,1.414A6.061,6.061,0,0,0,1131.237,1339.862Z" fill="#333"/>
          </g>
        </g>
      </g>
      <g id="Group_5866" data-name="Group 5866">
        <g id="Group_5865" data-name="Group 5865">
          <g id="Group_5864" data-name="Group 5864">
            <path id="Path_2143" data-name="Path 2143" d="M1130.819,1341.276a3.711,3.711,0,0,0-.13.36C1130.732,1341.516,1130.78,1341.4,1130.819,1341.276Z" fill="#333"/>
          </g>
        </g>
      </g>
      <g id="Group_5869" data-name="Group 5869">
        <g id="Group_5868" data-name="Group 5868">
          <g id="Group_5867" data-name="Group 5867">
            <path id="Path_2144" data-name="Path 2144" d="M1135.071,1328.52s-6.026-1.872-8.5,1.418,1.418,5.669,1.418,5.669a3.425,3.425,0,0,1,3.252,4.255c1.256-4.518,1.295-7.5,2.986-8.931l-1.986-.993Z" fill="#333"/>
          </g>
        </g>
      </g>
      <g id="Group_5872" data-name="Group 5872">
        <g id="Group_5871" data-name="Group 5871">
          <g id="Group_5870" data-name="Group 5870">
            <path id="Path_2145" data-name="Path 2145" d="M1116.465,1351.244l.008,0Z" fill="none"/>
          </g>
        </g>
      </g>
      <g id="Group_5875" data-name="Group 5875">
        <g id="Group_5874" data-name="Group 5874">
          <g id="Group_5873" data-name="Group 5873">
            <path id="Path_2146" data-name="Path 2146" d="M1116.618,1351.2l.013,0Z" fill="none"/>
          </g>
        </g>
      </g>
      <g id="Group_5878" data-name="Group 5878">
        <g id="Group_5877" data-name="Group 5877">
          <g id="Group_5876" data-name="Group 5876">
            <path id="Path_2147" data-name="Path 2147" d="M1112.051,1352.061h0Z" fill="none"/>
          </g>
        </g>
      </g>
      <g id="Group_5881" data-name="Group 5881">
        <g id="Group_5880" data-name="Group 5880">
          <g id="Group_5879" data-name="Group 5879">
            <path id="Path_2148" data-name="Path 2148" d="M1116.333,1351.277Z" fill="none"/>
          </g>
        </g>
      </g>
      <g id="Group_5884" data-name="Group 5884">
        <g id="Group_5883" data-name="Group 5883">
          <g id="Group_5882" data-name="Group 5882">
            <path id="Path_2149" data-name="Path 2149" d="M1110.308,1352.274l.04-.005Z" fill="none"/>
          </g>
        </g>
      </g>
      <g id="Group_5887" data-name="Group 5887">
        <g id="Group_5886" data-name="Group 5886">
          <g id="Group_5885" data-name="Group 5885">
            <path id="Path_2150" data-name="Path 2150" d="M1110.348,1353.02a.75.75,0,0,1-.08-1.5c.283-.031.558-.062.825-.1q.441-.054.851-.111a.751.751,0,0,1,.205,1.487c-.259.035-.528.071-.805.1s-.586.07-.893.1l-.022,0h0A.766.766,0,0,1,1110.348,1353.02Z" fill="#7a7a7a"/>
          </g>
        </g>
      </g>
      <g id="Group_5890" data-name="Group 5890">
        <g id="Group_5889" data-name="Group 5889">
          <g id="Group_5888" data-name="Group 5888">
            <path id="Path_2151" data-name="Path 2151" d="M1116.333,1352.026a.75.75,0,0,1-.73-.578.781.781,0,0,1-.02-.173.751.751,0,0,1,.578-.729l.117-.028a.75.75,0,0,1,.375,1.452h0l-.146.035A.719.719,0,0,1,1116.333,1352.026Z" fill="#7a7a7a"/>
          </g>
        </g>
      </g>
      <g id="Group_5893" data-name="Group 5893">
        <g id="Group_5892" data-name="Group 5892">
          <g id="Group_5891" data-name="Group 5891">
            <path id="Path_2152" data-name="Path 2152" d="M1112.05,1352.811a.751.751,0,0,1-.1-1.494h0l.1-.013c2.1-.294,3.567-.625,4.107-.756h0a.75.75,0,0,1,.353,1.458c-.7.168-2.172.494-4.28.787l-.077.011h0A.883.883,0,0,1,1112.05,1352.811Z" fill="#7a7a7a"/>
          </g>
        </g>
      </g>
      <g id="Group_5896" data-name="Group 5896">
        <g id="Group_5895" data-name="Group 5895">
          <g id="Group_5894" data-name="Group 5894">
            <path id="Path_2153" data-name="Path 2153" d="M1116.63,1351.952a.752.752,0,1,1,.375-.1.709.709,0,0,1-.166.066l-.016.005h0l-.006,0-.009,0A.76.76,0,0,1,1116.63,1351.952Z" fill="#7a7a7a"/>
          </g>
        </g>
      </g>
      <g id="Group_5899" data-name="Group 5899">
        <g id="Group_5898" data-name="Group 5898">
          <g id="Group_5897" data-name="Group 5897">
            <path id="Path_2154" data-name="Path 2154" d="M1116.473,1351.992a.75.75,0,0,1-.184-1.477l.106-.027.007,0,.022-.005h0a.765.765,0,0,1,.9.538.735.735,0,0,1-.514.911l-.156.04A.769.769,0,0,1,1116.473,1351.992Z" fill="#7a7a7a"/>
          </g>
        </g>
      </g>
      <g id="Group_5902" data-name="Group 5902">
        <g id="Group_5901" data-name="Group 5901">
          <g id="Group_5900" data-name="Group 5900">
            <path id="Path_2155" data-name="Path 2155" d="M1133.653,1358.251l-18.7-4.348a17.616,17.616,0,0,1-2.353,2.287l21.053,4.9Z" fill="#fda654"/>
          </g>
        </g>
      </g>
      <g id="Group_5905" data-name="Group 5905">
        <g id="Group_5904" data-name="Group 5904">
          <g id="Group_5903" data-name="Group 5903">
            <path id="Path_2156" data-name="Path 2156" d="M1103.89,1352.615c.155-.4.315-.79.477-1.175l-7.563-1.758v2.834l9,2.093.921-1.994Z" fill="#fda654"/>
          </g>
        </g>
      </g>
      <g id="Group_5908" data-name="Group 5908">
        <g id="Group_5907" data-name="Group 5907">
          <g id="Group_5906" data-name="Group 5906">
            <path id="Path_2157" data-name="Path 2157" d="M1112.046,1352.061q-.79.109-1.7.208l-.04.005q-.428.045-.879.087l-.114.01c-.227.021-.458.04-.694.059l-.223.017-.079.005q-.463.034-.947.062l-.069.005a2.759,2.759,0,0,0-.578.1l-.921,1.994-7.583,16.431a8.852,8.852,0,0,0,8.5-5.669l2.834-7.087,1.026-2.563,1.037-2.593.427-1.067Z" fill="#333"/>
          </g>
        </g>
      </g>
      <g id="Group_5911" data-name="Group 5911">
        <g id="Group_5910" data-name="Group 5910">
          <g id="Group_5909" data-name="Group 5909">
            <path id="Path_2158" data-name="Path 2158" d="M1116.631,1351.2l-.013,0-.145.037-.008,0-.131.033h0c-.614.149-2.117.485-4.282.784h0l-.427,1.067-1.037,2.593-1.026,2.563a22.076,22.076,0,0,0,3.043-2.094,17.616,17.616,0,0,0,2.353-2.287,10.336,10.336,0,0,0,1.691-2.7Z" fill="#333"/>
          </g>
        </g>
      </g>
      <g id="Group_5914" data-name="Group 5914">
        <g id="Group_5913" data-name="Group 5913">
          <g id="Group_5912" data-name="Group 5912">
            <path id="Path_2159" data-name="Path 2159" d="M1127.985,1335.607s-8.639,1.3-14.174,7.087a37.151,37.151,0,0,1,5.1-8.295,34.979,34.979,0,0,0-14.544,17.041c-.162.385-.322.775-.477,1.175.366,0,.725,0,1.079-.011.059,0,.119,0,.178,0q.506-.01.995-.029l.181-.007c.332-.013.66-.028.98-.046l.069-.005q.483-.027.947-.062l.079-.005.219-.018c.236-.019.471-.037.7-.058l.114-.01q.452-.042.879-.087l.04-.005c.6-.064,1.171-.135,1.7-.208h.005c2.161-.3,3.665-.635,4.282-.784h0l.132-.033.008,0,.145-.037.013,0,.015,0a26.91,26.91,0,0,0,2.835-.793v2.21h1.417a14.606,14.606,0,0,0,2.071-3.617c3.1-1.492,6.435-3.843,7.72-7.362a3.711,3.711,0,0,1,.13-.36c.155-.489.291-.956.418-1.414A3.425,3.425,0,0,0,1127.985,1335.607Z" fill="#333"/>
          </g>
        </g>
      </g>
      <g id="Group_5917" data-name="Group 5917">
        <g id="Group_5916" data-name="Group 5916">
          <g id="Group_5915" data-name="Group 5915">
            <path id="Path_2160" data-name="Path 2160" d="M1131.237,1339.862c-.127.458-.263.925-.418,1.414A6.061,6.061,0,0,0,1131.237,1339.862Z" fill="none"/>
          </g>
        </g>
      </g>
      <g id="Group_5920" data-name="Group 5920">
        <g id="Group_5919" data-name="Group 5919">
          <g id="Group_5918" data-name="Group 5918">
            <path id="Path_2161" data-name="Path 2161" d="M1116.465,1351.244l.008,0Z" fill="none"/>
          </g>
        </g>
      </g>
      <g id="Group_5923" data-name="Group 5923">
        <g id="Group_5922" data-name="Group 5922">
          <g id="Group_5921" data-name="Group 5921">
            <path id="Path_2162" data-name="Path 2162" d="M1116.618,1351.2l.013,0Z" fill="none"/>
          </g>
        </g>
      </g>
      <g id="Group_5926" data-name="Group 5926">
        <g id="Group_5925" data-name="Group 5925">
          <g id="Group_5924" data-name="Group 5924">
            <path id="Path_2163" data-name="Path 2163" d="M1112.051,1352.061h0Z" fill="none"/>
          </g>
        </g>
      </g>
      <g id="Group_5929" data-name="Group 5929">
        <g id="Group_5928" data-name="Group 5928">
          <g id="Group_5927" data-name="Group 5927">
            <path id="Path_2164" data-name="Path 2164" d="M1116.333,1351.277Z" fill="none"/>
          </g>
        </g>
      </g>
      <g id="Group_5932" data-name="Group 5932">
        <g id="Group_5931" data-name="Group 5931">
          <g id="Group_5930" data-name="Group 5930">
            <path id="Path_2165" data-name="Path 2165" d="M1110.308,1352.274l.04-.005Z" fill="none"/>
          </g>
        </g>
      </g>
    </g>
    <g id="Group_5934" data-name="Group 5934">
      <path id="Path_2166" data-name="Path 2166" d="M1138.535,1329.531a4.254,4.254,0,0,0-2.1-1.535,12.811,12.811,0,0,0,1.632-3.467,1.6,1.6,0,0,0-2.664-1.589c-.977.991-1.754,1.747-2.246,2.185a6.526,6.526,0,0,1-1.943.3c-3.058.228-8.133.6-9.545,6.793a23.842,23.842,0,0,0-3.131,1.537,35.838,35.838,0,0,0-14.6,16.821l-6.964-1.62a.75.75,0,1,0-.339,1.461l6.7,1.559c-.049.123-.1.248-.146.373a.749.749,0,0,0,.7,1.021h1.662l-.174.376-8.405-1.955a.75.75,0,1,0-.339,1.461l8.1,1.884-7.2,15.595a.751.751,0,0,0,.621,1.062c.018,0,.143.01.352.01a9.623,9.623,0,0,0,8.909-6.149l2.737-6.843a23.623,23.623,0,0,0,2.625-1.8l20.7,4.815a.771.771,0,0,0,.171.02.75.75,0,0,0,.169-1.481l-9.361-2.177a.741.741,0,0,0-.219-.443,1.162,1.162,0,0,1-.449-.828.845.845,0,0,1,.027-.173l9.66,2.247a.75.75,0,1,0,.34-1.461l-5.288-1.23-1.3-2.594a.527.527,0,0,0-.273-.285.721.721,0,0,0-.19-.095c-.009,0-.016-.01-.026-.012l-4.595-1.149a18.633,18.633,0,0,0,1.393-2.606c4.06-2.005,6.687-4.56,7.829-7.627a.275.275,0,0,0,.016-.029l.04-.105c.034-.089.066-.178.1-.269l.006-.017c.158-.5.3-.974.425-1.44.391-1.407.665-2.661.906-3.767.5-2.3.864-3.965,1.843-4.792a4.843,4.843,0,0,1,3.2-.816.75.75,0,0,0,.629-1.157Zm-15.983,3.953a.752.752,0,0,0,.5-.569c1.057-5.463,5.227-5.773,8.271-6,1.316-.1,2.267-.168,2.83-.671.523-.467,1.3-1.224,2.316-2.252a.08.08,0,0,1,.116-.014.083.083,0,0,1,.045.113,10.916,10.916,0,0,1-1.816,3.581l-.134-.032-.149-.035-.306-.066-.128-.026q-.233-.047-.5-.09c-.053-.009-.111-.016-.166-.024-.13-.02-.262-.039-.4-.057l-.23-.025c-.129-.014-.258-.026-.392-.037-.087-.007-.175-.012-.264-.018-.133-.008-.267-.013-.4-.017-.092,0-.183-.005-.277-.005-.145,0-.292,0-.44.008-.087,0-.173,0-.26.009-.189.011-.378.029-.569.051-.048.005-.1.007-.144.014q-.352.047-.7.123c-.073.016-.144.038-.216.056-.163.041-.324.084-.484.136-.086.028-.171.062-.257.094-.143.053-.284.11-.423.175-.088.04-.174.083-.26.128-.135.07-.267.148-.4.23-.081.051-.161.1-.239.156-.136.1-.265.206-.393.317-.063.056-.129.106-.19.165a4.985,4.985,0,0,0-.521.584,4.148,4.148,0,0,0-.909,3.351,3.911,3.911,0,0,0,.213.72c.03.078.071.146.106.22a4.663,4.663,0,0,0,.213.425c.048.082.1.155.155.233.076.113.15.227.231.331.06.077.12.144.181.216s.11.136.166.2l-.085.021c-.25.06-.517.127-.813.206l-.072.021c-.274.074-.567.159-.873.252-.091.027-.181.056-.275.085-.3.093-.605.194-.925.3-.058.019-.111.036-.169.057-.371.13-.754.275-1.147.431-.1.039-.2.081-.3.121q-.483.2-.982.422c-.1.046-.2.089-.3.136-.415.193-.835.4-1.258.621-.076.04-.152.084-.228.125q-.534.286-1.069.608c-.115.07-.229.138-.344.21-.43.267-.858.545-1.28.847.21-.368.437-.752.679-1.146.029-.047.063-.1.092-.143.215-.344.437-.693.674-1.045.093-.137.2-.274.292-.412.184-.263.365-.526.56-.787.132-.175.274-.344.41-.517.163-.207.324-.415.494-.616A19.94,19.94,0,0,1,1122.552,1333.484Zm-16.518,31.593a8.077,8.077,0,0,1-6.622,5.17l7.072-15.321v0l.761-1.648c.031,0,.065-.006.1-.008l.07-.005c.326-.019.645-.039.959-.062l.3-.024q.359-.027.7-.059l.117-.01c.3-.028.6-.058.93-.093l.022,0,.017,0,.411-.046Zm17.2-10.184c-.019.016-.07.066-.133.133l-2.2-.51v-.013l-.38-1.138h.284l3.613.9-1.021.511A.723.723,0,0,0,1123.231,1354.893Zm-4.188-1.221.148.446-.709-.165Zm-.313-1.521-2.42,1.21c-.006,0-.01.009-.016.012a10.56,10.56,0,0,0,.877-1.525c.333-.079.861-.211,1.559-.42Zm-6.146.592.2-.031.026,0,.146-.021.261-.041.253-.041.2-.032.294-.05.145-.025.211-.037.255-.048.072-.013.046-.009.2-.037.333-.066a11.421,11.421,0,0,1-.842,1.132,15.767,15.767,0,0,1-1.279,1.323c-.311.291-.627.582-.975.865l0,0c-.344.281-.68.537-.995.765Zm1.715,2.942c.139-.134.262-.269.394-.4.178-.182.368-.362.532-.546l.1.024a2.417,2.417,0,0,0-.12.709,2.331,2.331,0,0,0,.072.574l-1.085-.252C1114.233,1355.756,1114.262,1355.72,1114.3,1355.685Zm8.147,2.024-5.15-1.2a.741.741,0,0,0-.138-.193,1.162,1.162,0,0,1-.449-.829,1,1,0,0,1,.094-.387l5.555,1.291a2.427,2.427,0,0,0-.062.493A2.313,2.313,0,0,0,1122.446,1357.709Zm2.808-2.181.978-.489.4.81Zm-2.61-7.206a.744.744,0,0,0-.365.381,15.936,15.936,0,0,1-1.746,3.162h-.3v-1.46a.749.749,0,0,0-.987-.712,26.071,26.071,0,0,1-2.747.77l-.045.011h0l-.052.013-.1.026-.016,0-.117.028h-.005l-.169.04c-.293.068-.735.167-1.325.282l-.093.017-.472.089-.192.033-.438.077-.249.04-.461.074-.251.036c-.183.028-.365.055-.558.081l-.01,0c-.263.037-.538.072-.821.107s-.575.069-.888.1c-.282.03-.572.059-.866.086l-.115.01c-.225.021-.457.039-.69.057l-.294.024q-.458.033-.935.061l.025.443c-.008-.013-.023-.019-.032-.031l-.062-.408c-.315.018-.639.033-.967.046l-.179.007c-.322.012-.65.021-.986.028l-.121,0,.018-.043.033-.079v0a35.481,35.481,0,0,1,10.722-14.3l-.015.024c-.18.286-.349.566-.513.841l-.141.242q-.183.313-.351.612c-.039.069-.079.139-.116.207-.141.253-.273.5-.4.728-.021.039-.038.073-.058.111q-.155.292-.286.555l-.094.186c-.078.157-.15.3-.215.438l-.051.1c-.078.162-.144.3-.2.425-.019.04-.031.067-.047.1l-.095.207-.033.076c-.025.056-.043.1-.049.112a.749.749,0,0,0,.276.92.712.712,0,0,0,.223.1.837.837,0,0,0,.084.013.773.773,0,0,0,.106.015c.012,0,.023-.007.035-.007a.7.7,0,0,0,.191-.039.558.558,0,0,0,.08-.023.739.739,0,0,0,.236-.163q.486-.507,1.005-.968c.113-.1.232-.191.346-.289.235-.2.47-.4.711-.588.144-.111.292-.211.437-.318.219-.16.437-.323.66-.473.156-.106.315-.2.474-.3.214-.137.429-.277.645-.405.163-.1.327-.187.491-.279.211-.119.423-.24.634-.352.167-.088.332-.169.5-.252.206-.1.413-.207.617-.3.167-.079.331-.151.495-.224.2-.09.4-.179.6-.262.163-.068.323-.131.482-.195.192-.077.384-.153.571-.224.155-.058.306-.112.457-.167.183-.065.364-.13.54-.189.144-.049.284-.1.423-.139.171-.056.34-.11.5-.159.131-.04.258-.078.382-.114.157-.045.31-.089.456-.129l.333-.09.405-.1.271-.066c.125-.03.244-.057.353-.081l.2-.043.3-.061.111-.022.234-.044.017,0,.029-.005a2.6,2.6,0,0,1,.3.034c.074.011.149.013.222.03a2.772,2.772,0,0,1,.305.1c.067.026.138.043.2.074a2.409,2.409,0,0,1,.3.18c.053.035.112.061.163.1a2.537,2.537,0,0,1,.4.373,2.573,2.573,0,0,1,.274.392l0,.006a2.6,2.6,0,0,1,.224.52l.006.016a3.035,3.035,0,0,1,.118.654l0,.03a3.739,3.739,0,0,1-.039.795c0,.015,0,.029,0,.044-.118.423-.243.853-.385,1.3a3.539,3.539,0,0,0-.131.362C1128.982,1344.124,1126.512,1346.46,1122.644,1348.322Zm8.755-12.345q-.062.285-.127.583c-.067-.1-.138-.186-.214-.275a4.026,4.026,0,0,0-.618-.586c-.075-.058-.16-.1-.239-.152a4.035,4.035,0,0,0-.475-.286c-.1-.049-.21-.08-.315-.12a4.012,4.012,0,0,0-.473-.161c-.116-.028-.236-.039-.355-.057s-.234-.051-.355-.058l-.064-.046-.069-.052c-.053-.041-.114-.091-.178-.143l-.073-.061c-.09-.078-.186-.165-.285-.263-.017-.017-.036-.038-.053-.057-.08-.081-.16-.168-.239-.261-.031-.037-.062-.078-.093-.117-.064-.082-.127-.169-.187-.258-.031-.047-.061-.094-.09-.143a2.884,2.884,0,0,1-.156-.3c-.022-.047-.046-.093-.066-.141a2.556,2.556,0,0,1-.144-.475,2.689,2.689,0,0,1,.635-2.162,3.507,3.507,0,0,1,.5-.525c.058-.051.123-.093.184-.14a3.8,3.8,0,0,1,.4-.271c.075-.043.153-.083.23-.122q.206-.1.422-.185c.08-.03.16-.062.242-.088.159-.052.322-.094.487-.131.069-.016.136-.036.205-.049.233-.045.468-.079.7-.1.052,0,.1-.005.155-.009.188-.014.376-.023.562-.026.089,0,.177,0,.265,0,.148,0,.294.005.437.013.091,0,.181.01.27.017.14.011.276.023.409.038l.145.016-.876.438a.751.751,0,0,0,0,1.342l1.107.553A13.607,13.607,0,0,0,1131.4,1335.977Zm2.749-5.922-.234-.117,1.326-.663a2.791,2.791,0,0,1,.616.1A5.009,5.009,0,0,0,1134.148,1330.055Z" fill="#1a1a1a"/>
      <path id="Path_2167" data-name="Path 2167" d="M1130.111,1328.979a.959.959,0,1,0,.958.959A.96.96,0,0,0,1130.111,1328.979Z" fill="#1a1a1a"/>
    </g>
  </g>
</svg>