<?xml version="1.0" encoding="utf-8"?>
<svg width="800px" height="800px" viewBox="0 -3.1 66.696 66.696" xmlns="http://www.w3.org/2000/svg">
  <g id="Group_5580" data-name="Group 5580" transform="translate(-225.9 -145.116)">
    <g id="Group_5579" data-name="Group 5579">
      <g id="Group_5530" data-name="Group 5530">
        <g id="Group_5529" data-name="Group 5529">
          <g id="Group_5528" data-name="Group 5528">
            <path id="Path_2034" data-name="Path 2034" d="M276.256,165.173a11.121,11.121,0,0,1-1.933,5.656A9.2,9.2,0,0,0,276.256,165.173Z" fill="#333"/>
          </g>
        </g>
      </g>
      <g id="Group_5533" data-name="Group 5533">
        <g id="Group_5532" data-name="Group 5532">
          <g id="Group_5531" data-name="Group 5531">
            <path id="Path_2035" data-name="Path 2035" d="M276.256,165.172Z" fill="#333"/>
          </g>
        </g>
      </g>
      <g id="Group_5536" data-name="Group 5536">
        <g id="Group_5535" data-name="Group 5535">
          <g id="Group_5534" data-name="Group 5534">
            <path id="Path_2036" data-name="Path 2036" d="M266.335,155.251c-.23,0-.461.018-.692.035-9.814.736-20.8,16.828-24.82,25.477h4.252s22.446-.9,29.248-9.934a11.121,11.121,0,0,0,1.933-5.656h0C276.256,159.693,273.268,155.251,266.335,155.251Z" fill="#333"/>
          </g>
        </g>
      </g>
      <g id="Group_5539" data-name="Group 5539">
        <g id="Group_5538" data-name="Group 5538">
          <g id="Group_5537" data-name="Group 5537">
            <circle id="Ellipse_156" data-name="Ellipse 156" cx="1.417" cy="1.417" r="1.417" transform="translate(276.256 149.582)" fill="#333"/>
          </g>
        </g>
      </g>
      <g id="Group_5542" data-name="Group 5542">
        <g id="Group_5541" data-name="Group 5541">
          <g id="Group_5540" data-name="Group 5540">
            <path id="Path_2037" data-name="Path 2037" d="M289.012,152.416l-5.67-2.834-4.252,4.252,3.668,1.222C283.494,153.914,285.2,153.1,289.012,152.416Z" fill="#b3b3b3"/>
          </g>
        </g>
      </g>
      <g id="Group_5545" data-name="Group 5545">
        <g id="Group_5544" data-name="Group 5544">
          <g id="Group_5543" data-name="Group 5543">
            <path id="Path_2038" data-name="Path 2038" d="M272,146.747a10.152,10.152,0,0,0-1.692.981,6.251,6.251,0,0,0,3.109,4.688l2.835-2.834h1.417a8.2,8.2,0,0,1,4.189,1.48l1.48-1.48S278.694,143.681,272,146.747Z" fill="#974144"/>
          </g>
        </g>
      </g>
      <g id="Group_5548" data-name="Group 5548">
        <g id="Group_5547" data-name="Group 5547">
          <g id="Group_5546" data-name="Group 5546">
            <path id="Path_2039" data-name="Path 2039" d="M279.09,153.834l2.772-2.772a8.2,8.2,0,0,0-4.189-1.48h-1.417l-2.835,2.834a6.251,6.251,0,0,1-3.109-4.688,10.2,10.2,0,0,0-3.977,6.106l-.692,1.452c.231-.017.462-.035.692-.035a10.309,10.309,0,0,1,6.576,2l9.847-2.2Z" fill="#333"/>
          </g>
        </g>
      </g>
      <g id="Group_5551" data-name="Group 5551">
        <g id="Group_5550" data-name="Group 5550">
          <g id="Group_5549" data-name="Group 5549">
            <path id="Path_2040" data-name="Path 2040" d="M282.758,155.056l-9.847,2.2a8.2,8.2,0,0,1,2.358,3.033,12.184,12.184,0,0,1,5.75,6.578C283.54,160.731,281.327,157.275,282.758,155.056Z" fill="#974144"/>
          </g>
        </g>
      </g>
      <g id="Group_5554" data-name="Group 5554">
        <g id="Group_5553" data-name="Group 5553">
          <g id="Group_5552" data-name="Group 5552">
            <path id="Path_2041" data-name="Path 2041" d="M273.692,171.779q-.207.3-.431.6Q273.485,172.077,273.692,171.779Z" fill="#333"/>
          </g>
        </g>
      </g>
      <g id="Group_5557" data-name="Group 5557">
        <g id="Group_5556" data-name="Group 5556">
          <g id="Group_5555" data-name="Group 5555">
            <path id="Path_2042" data-name="Path 2042" d="M273.834,171.575c-.046.068-.094.136-.142.2C273.74,171.711,273.788,171.643,273.834,171.575Z" fill="#333"/>
          </g>
        </g>
      </g>
      <g id="Group_5560" data-name="Group 5560">
        <g id="Group_5559" data-name="Group 5559">
          <g id="Group_5558" data-name="Group 5558">
            <path id="Path_2043" data-name="Path 2043" d="M245.075,180.763a28.115,28.115,0,0,0-7.087,8.5q.723,0,1.446-.029a41.68,41.68,0,0,0,7.466-.99,50.275,50.275,0,0,0,12.384-4.6l.1-.053c.379-.2.752-.406,1.122-.614.107-.059.212-.12.318-.181q.426-.241.843-.491c.093-.055.186-.109.277-.165q.534-.322,1.054-.653l.19-.124q.431-.277.851-.56c.1-.067.2-.135.3-.2.117-.08.23-.161.345-.241.159-.111.318-.22.474-.332l.183-.129q.483-.35.95-.705c.078-.059.155-.12.233-.18q.363-.279.714-.562l.254-.2c.3-.242.588-.485.872-.729l0,0c.286-.247.564-.495.837-.744l.224-.207q.315-.291.618-.585c.064-.062.129-.123.192-.185q.383-.376.744-.753c.039-.04.075-.08.113-.12q.3-.321.593-.643c.064-.071.127-.143.19-.214.186-.211.367-.423.543-.634.036-.044.074-.088.11-.131q.311-.378.6-.756c.045-.059.087-.117.131-.175q.224-.3.431-.6c.048-.068.1-.136.142-.2.17-.249.335-.5.489-.746C267.521,179.864,245.075,180.763,245.075,180.763Z" fill="#333"/>
          </g>
        </g>
      </g>
      <g id="Group_5563" data-name="Group 5563">
        <g id="Group_5562" data-name="Group 5562">
          <g id="Group_5561" data-name="Group 5561">
            <path id="Path_2044" data-name="Path 2044" d="M275.269,160.284a11.642,11.642,0,0,1,.987,4.888,11.913,11.913,0,0,1-2.422,6.4c-.046.068-.094.136-.142.2q-.207.3-.431.6c-.044.058-.086.116-.131.175-.191.252-.39.5-.6.756-.036.043-.074.087-.11.131-.176.211-.357.423-.543.634l-.19.214q-.289.321-.593.643c-.038.04-.074.08-.113.12q-.361.376-.744.753c-.063.062-.128.123-.192.185q-.3.294-.618.585l-.224.207c-.274.249-.551.5-.837.744l0,0c-.284.244-.576.487-.872.729l-.254.2q-.351.283-.714.562c-.078.06-.154.121-.233.18q-.468.355-.95.705l-.183.129c-.153.11-.306.219-.462.328-.118.082-.238.163-.357.245-.1.067-.2.135-.3.2q-.42.282-.851.56l-.19.124q-.519.332-1.054.653c-.091.056-.184.11-.277.165q-.417.249-.843.491c-.106.061-.211.122-.318.181-.37.208-.743.414-1.122.614l-.1.053a3.481,3.481,0,0,0,1.381,2.78h1.418l3.13-3.913c4.579-1.552,10.85-5.328,15.295-14.512.19-.392.358-.773.511-1.145A12.184,12.184,0,0,0,275.269,160.284Z" fill="#666"/>
          </g>
        </g>
      </g>
      <g id="Group_5566" data-name="Group 5566">
        <g id="Group_5565" data-name="Group 5565">
          <g id="Group_5564" data-name="Group 5564">
            <path id="Path_2045" data-name="Path 2045" d="M291.846,199.188H241.79c.677-1.161,1.42-2.568,2.224-4.252h47.832Z" fill="#be8a66"/>
          </g>
        </g>
      </g>
      <g id="Group_5569" data-name="Group 5569">
        <g id="Group_5568" data-name="Group 5568">
          <g id="Group_5567" data-name="Group 5567">
            <path id="Path_2046" data-name="Path 2046" d="M226.65,194.936h5.845a12.532,12.532,0,0,0-2.716,4.252H226.65Z" fill="#be8a66"/>
          </g>
        </g>
      </g>
      <g id="Group_5572" data-name="Group 5572">
        <g id="Group_5571" data-name="Group 5571">
          <g id="Group_5570" data-name="Group 5570">
            <path id="Path_2047" data-name="Path 2047" d="M239.434,189.238l-.029.029a36.84,36.84,0,0,0-6.91,5.669,12.532,12.532,0,0,0-2.716,4.252,5.793,5.793,0,0,0-.3,1.417v2.835l2.835-1.417v2.834l4.252-2.834v2.834s1.8.18,5.219-5.669c.677-1.161,1.42-2.568,2.224-4.252.77-1.616,1.595-3.485,2.478-5.669l.408-1.019A41.68,41.68,0,0,1,239.434,189.238Z" fill="#333"/>
          </g>
        </g>
      </g>
      <g id="Group_5575" data-name="Group 5575">
        <g id="Group_5574" data-name="Group 5574">
          <g id="Group_5573" data-name="Group 5573">
            <path id="Path_2048" data-name="Path 2048" d="M276.256,165.173a11.121,11.121,0,0,1-1.933,5.656A9.2,9.2,0,0,0,276.256,165.173Z" fill="none"/>
          </g>
        </g>
      </g>
      <g id="Group_5578" data-name="Group 5578">
        <g id="Group_5577" data-name="Group 5577">
          <g id="Group_5576" data-name="Group 5576">
            <path id="Path_2049" data-name="Path 2049" d="M273.692,171.779q-.207.3-.431.6Q273.485,172.077,273.692,171.779Z" fill="none"/>
          </g>
        </g>
      </g>
    </g>
    <path id="Path_2050" data-name="Path 2050" d="M291.846,198.438h-26.6a.735.735,0,0,0,.228-.163.749.749,0,0,0-.05-1.059.966.966,0,0,1-.34-1.086,1.875,1.875,0,0,1,.209-.444h26.555a.75.75,0,0,0,0-1.5H276.885a1.987,1.987,0,0,0-.494-.83,2.282,2.282,0,0,0-1.552-.587h-4.075l-2.607-1.3-5.6-4.479a.7.7,0,0,0,.109-.086l2.995-3.743c4.634-1.62,11.012-5.509,15.52-14.824.186-.385.359-.773.529-1.187a18.282,18.282,0,0,0,1.3-8.51c-.061-1.411-.105-2.431.374-3.174h0c.645-1,2.42-1.71,5.756-2.307a.75.75,0,0,0,.2-1.409l-5.535-2.768c-.769-.883-5.553-5.924-12.121-2.913a11.01,11.01,0,0,0-1.815,1.053h0a10.941,10.941,0,0,0-4.26,6.482l-.473.991c-10.367,1.222-21.284,17.856-25,25.855a.749.749,0,0,0,.68,1.066h2.23a28.727,28.727,0,0,0-5.728,7.405.748.748,0,0,0,.021.737c.014.023.04.033.056.054a35.593,35.593,0,0,0-5.231,4.478H226.65a.75.75,0,0,0,0,1.5h4.238c-.246.322-.465.64-.67.956l-.134.211c-.205.33-.392.656-.551.978-.021.043-.037.085-.058.128-.076.16-.153.321-.218.479H226.65a.75.75,0,0,0,0,1.5h2.172a5.974,5.974,0,0,0-.086.615c0,.017,0,.035,0,.052v2.835a.751.751,0,0,0,1.086.671l1.749-.875v1.621a.749.749,0,0,0,1.166.624l3.086-2.057v1.433a.751.751,0,0,0,.676.747,1.017,1.017,0,0,0,.1,0c.646,0,2.543-.542,5.613-5.671h49.633a.75.75,0,0,0,0-1.5Zm-27.434-.113a.767.767,0,0,0,.184.113h-6.438a.736.736,0,0,0,.178-1.222.965.965,0,0,1-.341-1.086,1.838,1.838,0,0,1,.21-.444h5.447a2.6,2.6,0,0,0-.12.863A2.521,2.521,0,0,0,264.412,198.325Zm-17.224-8.78.264-.659a49.732,49.732,0,0,0,8.676-2.89l3.593,5.989-1,1h0l-1.2,1.2H245.19C245.852,192.747,246.522,191.2,247.188,189.545Zm19.353,2.707-.517.517h-2.347l-2.481-1.241-3.694-6.157q.613-.29,1.225-.6a3.508,3.508,0,0,0,1.483,2.253l6.419,5.136Zm-1.569-10.443a.751.751,0,0,0-.345.242l-2.905,3.631h-.842a2.677,2.677,0,0,1-.778-1.615c.261-.141.519-.284.776-.428l.322-.183q.432-.246.855-.5l.281-.167c.361-.218.718-.439,1.068-.662L263.6,182c.292-.188.58-.376.864-.568l.665-.454q.235-.165.469-.333l.185-.131q.49-.354.965-.716l.237-.183q.369-.283.726-.571l.258-.208c.3-.246.6-.493.891-.745s.574-.5.853-.758l.228-.21q.322-.3.632-.6l.195-.189c.26-.255.514-.512.759-.767l.116-.124q.312-.328.608-.659l.194-.218q.287-.325.557-.651l.113-.134q.319-.39.614-.778l.134-.18c.154-.206.3-.412.445-.616l.148-.212.017-.027c.17-.249.335-.5.489-.746v0c.023-.037.042-.073.064-.109.039-.064.074-.127.112-.19.13-.22.257-.439.375-.655.056-.1.108-.209.162-.314.089-.173.177-.347.257-.518.057-.12.109-.239.161-.358q.1-.232.191-.461c.049-.125.1-.249.14-.372.052-.147.1-.293.145-.438.038-.122.076-.243.109-.363.041-.15.075-.3.108-.444.025-.111.052-.223.073-.333.031-.165.052-.328.073-.49.012-.089.028-.179.037-.267.022-.228.033-.453.035-.674,0-.023.013-.042.013-.065s-.011-.039-.013-.061c0-.494-.031-.969-.076-1.434-.008-.075-.018-.148-.027-.222a13.042,13.042,0,0,0-.223-1.349c.1.08.2.155.3.24.04.034.081.066.122.1q.324.282.644.607c.049.05.1.1.147.155.183.193.363.4.54.613.038.048.078.092.116.14.2.255.4.528.585.816.044.066.086.137.128.2q.242.386.461.81c.031.06.063.116.093.177.14.282.265.586.388.894-.12.279-.242.549-.371.815C275.482,176.669,269.35,180.325,264.972,181.809Zm16.608-25.722a12.1,12.1,0,0,0-.064,2.615,17.459,17.459,0,0,1-.584,6.154c-.116-.213-.241-.409-.364-.609-.053-.085-.1-.177-.157-.26q-.332-.512-.689-.962c-.057-.072-.116-.135-.174-.2-.187-.225-.375-.442-.568-.645-.087-.091-.174-.177-.261-.264-.172-.171-.344-.333-.518-.488-.088-.078-.175-.157-.264-.231-.191-.162-.382-.312-.573-.455-.064-.048-.128-.1-.191-.146q-.377-.273-.742-.5c-.064-.04-.125-.073-.188-.111-.118-.071-.237-.144-.352-.209a8.911,8.911,0,0,0-1.412-2.1l2.072-.462Zm.911-1.911-2.012-.67,1.913-1.913,1.1-1.1,3.259,1.63A8.25,8.25,0,0,0,282.491,154.176Zm-10.175-6.747a8.626,8.626,0,0,1,9.995,2.123l-.55.551c-.1-.059-.2-.1-.3-.158-.136-.075-.272-.147-.411-.215-.214-.1-.432-.195-.653-.282-.138-.054-.274-.111-.415-.158-.244-.082-.493-.147-.744-.207-.123-.03-.244-.068-.368-.093a8.967,8.967,0,0,0-1.146-.156.435.435,0,0,0-.051,0h-1.417a.75.75,0,0,0-.53.219l-2.422,2.422c-.078-.056-.164-.123-.256-.2-.026-.022-.055-.05-.083-.074-.067-.058-.135-.118-.206-.188-.037-.035-.075-.079-.112-.117-.065-.068-.13-.137-.2-.214-.042-.049-.084-.1-.125-.157-.063-.079-.126-.159-.189-.248-.044-.062-.087-.13-.13-.2-.06-.092-.119-.186-.176-.287-.044-.075-.085-.157-.127-.238-.054-.1-.106-.215-.157-.329-.04-.09-.077-.185-.115-.281-.047-.121-.091-.247-.133-.378-.033-.1-.065-.211-.1-.322-.016-.058-.028-.123-.044-.183A9.537,9.537,0,0,1,272.316,147.429Zm-5.3,6.727a.765.765,0,0,0,.063-.2,9.578,9.578,0,0,1,2.8-4.9c.006.019.015.034.021.053a8.141,8.141,0,0,0,.363.9c.024.05.047.1.071.148a7.64,7.64,0,0,0,.425.745c.024.037.048.07.072.106a7.077,7.077,0,0,0,.468.621l.033.037a6.4,6.4,0,0,0,.471.491l.037.037c.153.142.3.262.435.368l.062.048c.129.1.246.178.351.244l.052.034c.1.061.184.11.247.144l.025.012c.057.03.1.05.11.055a.742.742,0,0,0,.272.058c.012,0,.022.008.034.008s.033-.009.051-.01a.788.788,0,0,0,.18-.036.689.689,0,0,0,.3-.174l2.379-2.378a1.391,1.391,0,0,0-.074.43,1.417,1.417,0,0,0,2.835,0,1.383,1.383,0,0,0-.074-.428c.153.04.3.078.454.127.1.032.193.064.288.1.216.081.427.175.635.276.069.034.14.063.209.1.018.01.036.023.055.033l-2.1,2.1a.751.751,0,0,0,.293,1.242l1.1.368-2.062.459-4.787,1.068a9.6,9.6,0,0,0-2.751-1.355c-.057-.019-.114-.036-.172-.054a12.127,12.127,0,0,0-1.53-.353c-.032,0-.066-.006-.1-.011a14.479,14.479,0,0,0-1.5-.139c-.073,0-.139-.017-.212-.019Zm-1.279,1.875c.2-.014.4-.03.6-.03.443,0,.855.027,1.257.062.127.012.255.023.379.038.311.036.606.086.893.142.25.051.492.112.729.179.08.022.161.044.239.068a8,8,0,0,1,2.614,1.35,7.459,7.459,0,0,1,2.109,2.7c.025.054.047.107.071.161.109.244.2.5.294.757.032.094.068.189.1.283q.132.426.228.878c.028.131.047.257.07.385.042.238.078.479.106.727.009.085.023.176.031.259.035.386.055.781.055,1.187a6.016,6.016,0,0,1-.035.622c-.008.075-.022.153-.033.229-.019.139-.039.278-.067.421-.018.091-.042.185-.063.278-.032.133-.064.266-.1.4-.027.1-.057.191-.088.287q-.068.215-.147.432-.049.134-.1.267-.1.247-.212.5c-.032.072-.063.143-.1.214-.1.207-.2.416-.313.627-.02.036-.037.072-.057.109-.154.284-.323.572-.5.863-.1.129-.209.253-.314.379s-.2.254-.315.376-.257.261-.386.39-.229.239-.352.354-.283.244-.425.366-.255.227-.391.335-.31.233-.467.349c-.139.1-.274.21-.418.311-.166.115-.342.225-.513.336-.145.1-.286.192-.435.284-.185.114-.38.221-.571.331-.144.083-.285.169-.433.25-.2.108-.406.211-.611.316-.148.075-.293.154-.443.228-.224.109-.455.212-.684.317-.138.062-.271.128-.411.189-.263.116-.532.225-.8.335-.11.045-.218.093-.329.137-.315.125-.635.244-.956.361l-.2.077q-.552.2-1.112.382l-.07.023a77.359,77.359,0,0,1-17.991,3.164h-3.041C246.786,170.335,257.14,156.676,265.733,156.031ZM245.35,181.5h0l.128-.007.166-.01.163-.01.229-.015.205-.014.287-.021.236-.018.336-.027.285-.024.37-.033.322-.029.474-.046.281-.028.808-.087.308-.036.575-.068.387-.049.562-.072.42-.058.566-.08.461-.068.58-.089.472-.076.625-.105.456-.079c.236-.042.475-.086.714-.131l.4-.075q.561-.108,1.131-.227.848-.177,1.658-.369c.183-.043.357-.089.537-.133.353-.086.707-.172,1.05-.262.209-.055.41-.113.615-.169.3-.084.607-.166.9-.253.214-.062.419-.128.628-.192.275-.084.551-.169.818-.256.21-.069.412-.14.617-.21.255-.087.51-.175.757-.265.2-.073.4-.148.594-.224.24-.091.479-.183.712-.278.189-.077.374-.155.559-.234.228-.1.454-.195.676-.295.177-.08.35-.161.523-.243.217-.1.431-.207.64-.313.082-.041.169-.08.25-.122l-.136.125c-.268.244-.541.488-.825.734s-.566.478-.859.716l-.248.2q-.345.277-.7.552l-.229.178q-.461.35-.935.693l-.18.127c-.1.075-.211.149-.318.223l-.781.539q-.414.28-.839.553l-.186.121c-.341.218-.688.432-1.039.645l-.273.162q-.411.246-.83.484l-.314.179c-.365.205-.733.407-1.141.623l-.068.034c-.879.463-1.768.888-2.661,1.295a.722.722,0,0,0-.245.088.708.708,0,0,0-.076.068,48.26,48.26,0,0,1-9.216,3.076q-.933.207-1.861.373a39.9,39.9,0,0,1-5.47.6l-.12,0A28.12,28.12,0,0,1,245.35,181.5Zm-8.029,22.212v-1.69a.75.75,0,0,0-1.166-.624l-3.086,2.058v-1.434a.75.75,0,0,0-1.086-.67l-1.749.875v-1.594a5.105,5.105,0,0,1,.257-1.209,11.691,11.691,0,0,1,2.559-3.984,36.176,36.176,0,0,1,6.632-5.461c.52-.023,1.044-.059,1.571-.1.128-.011.257-.027.385-.039.449-.042.9-.09,1.352-.148.191-.024.384-.052.576-.079q.609-.086,1.222-.19c.189-.032.378-.063.568-.1.109-.02.218-.036.327-.057-.785,1.93-1.574,3.728-2.347,5.348q-.282.6-.563,1.156c-.559,1.122-1.106,2.142-1.631,3.041h0C239.356,201.869,238.067,203.165,237.321,203.712Zm5.887-5.527c.156-.289.312-.583.47-.888.075-.146.151-.3.227-.445q.221-.437.444-.893c.046-.093.09-.179.136-.273h12.08a2.6,2.6,0,0,0-.12.863,2.525,2.525,0,0,0,.88,1.776.767.767,0,0,0,.184.113H243.074C243.118,198.357,243.164,198.267,243.208,198.185Z" fill="#1a1a1a"/>
  </g>
</svg>