<?xml version="1.0" encoding="utf-8"?>
<svg width="800px" height="800px" viewBox="-44.65 0 259.453 259.453" xmlns="http://www.w3.org/2000/svg">
  <g id="Group_1329" data-name="Group 1329" transform="translate(-433.35 -1260.014)">
    <path id="Path_890" data-name="Path 890" d="M581.239,1309.668a.75.75,0,0,0,.263,1.453,22.035,22.035,0,0,0,22.01-22.01c0-5.137-2.371-10.5-2.832-11.5.01-1.133-.245-6.942-6.236-11.632a22.878,22.878,0,0,0-5.353-3.074c-4.619-1.919-10.511-2.893-17.511-2.893-12.525,0-20.091,4.176-27.409,8.214-6.875,3.794-13.369,7.377-23.615,7.377a16,16,0,0,1-3.769-.536,30.594,30.594,0,0,0-7.543-.881,20.167,20.167,0,0,0-6.048.794,38.976,38.976,0,0,0-14.475,7.695,62.514,62.514,0,0,0-9.859,10.226c-4.208,5.416-7.964,13.346-11.169,23.564-4.685,1.719-6.741,3.013-7.278,4.574a3.1,3.1,0,0,0,1.059,3.2,4.841,4.841,0,0,0-2.512,2.581,2.848,2.848,0,0,0,.441,2.37,2.967,2.967,0,0,0,1.133,1.03,4.274,4.274,0,0,0-2,2.286,2.853,2.853,0,0,0,.445,2.352,2.79,2.79,0,0,0,.536.61c-18.238,1.661-26.163,8.348-26.163,10.453a1.992,1.992,0,0,0,.7,1.676,1.846,1.846,0,0,0,1.146.368,2.31,2.31,0,0,0,.394-.034h3.716c-2.974,1.962-4.541,3.856-4.541,4.915a2.186,2.186,0,0,0,.761,1.859,1.781,1.781,0,0,0,1.086.346,2.183,2.183,0,0,0,.4-.038h22.7q-.178,1.413-.337,2.791h-23.86a.75.75,0,0,0,0,1.5h54.526v8.421H435.517a.75.75,0,0,0,0,1.5h23.7c.242,1.54.914,4.252,3.232,4.252,1.976,0,3.552-2.7,4.3-4.252h5.993c-1.711,5.114-9.579,29.85-15.218,68.187-1.115,7.585-2.092,15.355-2.9,23.093a5.04,5.04,0,0,0,.978,3.734c-1.163,6.3-4.65,26.255-5.236,41.688-.081,2.145.012,5.057,1.751,5.576a1.863,1.863,0,0,0,.533.079c1.4,0,3.774-1.611,8.829-9.657a4.276,4.276,0,0,0,1.262,2.589,3.286,3.286,0,0,0,2.518.785,3.53,3.53,0,0,0,.687.067,4,4,0,0,0,1.428-.286v7.942c0,.133-.066,3.279,1.735,5.13a4.379,4.379,0,0,0,3.266,1.309c4.722,0,7.5-5.817,16.107-64.3,5.068-19.11,8.687-36.752,8.723-36.927a.541.541,0,0,0,.009-.058l.052-.416c9.014-11.172,14.6-43.454,15.433-48.533h29.793v.667a23.359,23.359,0,0,1,7.128,5,2.879,2.879,0,0,0,2.876-2.876v-2.793h31.848a.75.75,0,0,0,0-1.5H552.488v-8.421h31.848a.75.75,0,0,0,0-1.5H552.488v-2.085a4.967,4.967,0,0,0-2.954-4.552c.073-.837.119-1.685.119-2.534v-5.3c15.765-11.494,15.828-30.823,15.638-35.041a10.5,10.5,0,0,0,6.8-2.5,9.95,9.95,0,0,0,3.017-6.84,16.719,16.719,0,0,0,8.711,2.362,20.92,20.92,0,0,0,6.742-1.151C589.629,1306.431,581.328,1309.635,581.239,1309.668ZM599.16,1278.3c0,.042-.008.089-.013.135-.008.078-.017.16-.03.247-.007.051-.019.106-.028.16-.024.139-.057.285-.1.437-.024.094-.047.187-.078.282-.025.074-.057.148-.085.221-.038.1-.078.194-.124.29-.034.069-.071.137-.109.2a3.074,3.074,0,0,1-.2.311c-.038.053-.074.107-.116.158a2.7,2.7,0,0,1-.424.416c-.026.02-.057.034-.084.053a2.634,2.634,0,0,1-.328.208c-.011.006-.024.009-.036.015a3.1,3.1,0,0,1-.429.176l-.008,0a6.645,6.645,0,0,1-3.9-.3.721.721,0,0,0-.329-.029l-.087.013-.088.015c-.031.006-.055.009-.093.017s-.084.017-.127.025l-.141.029-.155.036c-.062.014-.119.026-.188.044s-.123.032-.185.048-.146.038-.226.061-.141.042-.213.064-.165.049-.254.077-.159.055-.241.083-.179.061-.273.095l-.26.1c-.1.038-.193.076-.294.118s-.181.079-.272.12-.205.091-.31.141-.189.095-.284.143-.21.107-.317.165-.193.11-.29.167-.214.125-.322.192-.194.127-.291.192-.214.144-.32.221-.193.145-.289.219-.211.164-.315.251-.187.164-.28.248-.2.185-.3.283-.181.184-.27.279-.193.208-.288.317-.168.2-.252.31c-.055.07-.113.134-.167.206h-.005c-.041.005-.093.015-.14.021-.072.01-.143.021-.228.035-.069.012-.147.028-.225.044s-.16.032-.249.052-.19.045-.292.071-.183.048-.281.075c-.114.031-.228.065-.35.1-.1.031-.2.067-.309.1-.134.045-.265.09-.407.143-.1.038-.212.085-.319.128-.339.137-.7.3-1.072.483-.059.029-.114.053-.173.083-.167.086-.341.186-.513.282-.131.073-.259.142-.392.222-.174.1-.351.218-.53.333-.141.09-.282.182-.426.28-.181.124-.364.256-.549.393-.149.109-.3.224-.449.342-.187.147-.374.3-.565.456-.156.132-.314.275-.472.416-.19.17-.378.336-.57.52-.171.163-.343.345-.514.52q-.454.463-.911.983c-.213.243-.426.481-.639.743-.169.207-.337.436-.505.656-.192.249-.383.5-.573.763-.17.237-.339.49-.508.741-.115.171-.232.328-.347.506l-.163.254c-7.21-6.044-7.424-11.278-7.424-11.87a3.053,3.053,0,0,1,1.029-2.482l.047-.039a3.326,3.326,0,0,1,.542-.352c.041-.021.09-.039.134-.06a4.543,4.543,0,0,1,.49-.2c.084-.029.17-.056.261-.082q.278-.078.588-.134c.061-.012.115-.027.178-.037.281-.044.582-.075.9-.094.163-.01.336-.015.512-.018a23.857,23.857,0,0,0,5.466,2.977,17.217,17.217,0,0,0,6.16,1.226,12.487,12.487,0,0,0,5.977-1.466.75.75,0,0,0-.71-1.321c-6.609,3.551-14.095-1.265-15.817-2.489a9.911,9.911,0,0,0-.943-6.628,7.288,7.288,0,0,0-.51-.746c-.057-.075-.121-.145-.181-.217-.134-.16-.273-.316-.421-.465-.075-.075-.152-.148-.231-.221-.033-.03-.064-.064-.1-.094a7.078,7.078,0,0,1,3.771,2.033.75.75,0,0,0,1.228-.861,7.8,7.8,0,0,0-4.117-2.487c.315-.04.645-.08.985-.118l.207-.025c.417-.046.853-.09,1.3-.132l.322-.027c.347-.031.7-.06,1.065-.087l.492-.034c.328-.022.661-.042,1-.06.182-.01.365-.019.55-.027.227-.011.463-.018.694-.026-.073.079-.149.154-.216.239a5.491,5.491,0,0,0-.8,4.8.75.75,0,0,0,.731.581.758.758,0,0,0,.169-.019.749.749,0,0,0,.562-.9,4.061,4.061,0,0,1,.511-3.526,3.472,3.472,0,0,1,2.41-1.173,20.61,20.61,0,0,1,8.5,2.959.741.741,0,0,0-.189.6c0,.026.362,2.613-1.072,3.506a.75.75,0,0,0,.793,1.273c1.826-1.136,1.869-3.578,1.8-4.57,1.1.7,2.095,1.409,2.94,2.055a.742.742,0,0,0-.171.439c0,.03-.11,2.936-2.289,3.552a.75.75,0,0,0,.2,1.472.73.73,0,0,0,.205-.029c2.556-.722,3.178-3.3,3.33-4.423.995.821,1.592,1.386,1.615,1.408a.746.746,0,0,0,.855.13l.047-.017.022-.008a1.47,1.47,0,0,1,.152-.039l.033-.007a2.254,2.254,0,0,1,.242-.03l.049,0a2.4,2.4,0,0,1,.322.009l.064.005a2.963,2.963,0,0,1,.394.076c.025.007.051.013.076.021a3.335,3.335,0,0,1,.46.171l.084.039a4.379,4.379,0,0,1,.519.3l.087.06a5.7,5.7,0,0,1,.576.459l.036.034v.018C599.17,1278.166,599.165,1278.232,599.16,1278.3Zm-49.584,16.386a.75.75,0,0,0,.744.845h4.92v9.171a.749.749,0,0,0,.75.75c4.041,0,6.428-1.449,7.753-2.742v4.647c-.19.385-.385.766-.584,1.137-.06.113-.121.219-.181.329-.153.279-.307.555-.465.825-.1.166-.193.327-.29.488q-.18.3-.365.592c-.116.184-.232.368-.349.545-.089.135-.18.266-.27.4-.31.457-.623.9-.936,1.311l-.03.04c-4.549,5.976-9.282,7.5-10.85,7.854h0c-.189.042-.328.067-.418.082l-.026,0a.7.7,0,0,0-.092.005.756.756,0,0,0-.1.006.784.784,0,0,0-.165.048c-.022.01-.045.015-.067.027a.726.726,0,0,0-.156.115c-.014.013-.031.022-.044.036a.763.763,0,0,0-.142.216,21.341,21.341,0,0,1-8.2,8.739,26.049,26.049,0,0,1-13.161,3.554c-.018-.083-.038-.174-.061-.272-.009-.042-.021-.089-.032-.133-.014-.06-.028-.116-.044-.18s-.031-.118-.046-.177-.03-.113-.047-.174-.038-.133-.057-.2l-.054-.19c-.021-.071-.046-.147-.069-.222s-.04-.13-.062-.2-.054-.162-.082-.244-.046-.139-.071-.212l-.094-.26c-.027-.075-.053-.148-.082-.225s-.071-.185-.108-.278c-.03-.078-.059-.154-.091-.233-.039-.1-.081-.2-.123-.3-.034-.081-.067-.161-.1-.243-.043-.1-.089-.2-.135-.3s-.077-.173-.118-.262-.1-.208-.15-.312-.086-.179-.131-.27c-.053-.107-.11-.215-.166-.323-.048-.093-.1-.186-.147-.281s-.119-.218-.18-.328-.107-.193-.163-.291-.131-.224-.2-.337-.117-.2-.178-.3c-.07-.114-.143-.228-.215-.343s-.129-.2-.2-.3-.154-.231-.233-.347-.141-.206-.214-.31-.167-.234-.253-.352-.153-.209-.231-.313-.179-.235-.271-.352-.167-.214-.254-.321-.191-.234-.29-.352-.18-.215-.273-.322-.205-.235-.31-.352-.2-.218-.3-.327-.218-.231-.329-.347-.212-.22-.321-.33-.231-.229-.349-.344-.228-.219-.345-.328-.247-.229-.373-.343-.242-.217-.366-.325-.262-.226-.4-.339-.259-.215-.392-.322-.277-.223-.419-.333-.279-.214-.421-.321-.289-.215-.437-.322-.3-.213-.454-.319-.3-.21-.459-.314-.319-.208-.48-.312-.322-.205-.486-.306-.337-.2-.508-.3-.338-.2-.513-.3-.357-.2-.539-.3-.352-.19-.532-.283-.385-.195-.581-.291-.364-.181-.551-.269-.408-.188-.614-.281-.381-.171-.577-.255c-.061-.027-.119-.055-.181-.081.116-.128.223-.255.337-.383q.323-.36.635-.721.347-.4.681-.8.3-.362.595-.722c.216-.267.427-.533.636-.8.187-.24.372-.48.552-.72q.3-.4.59-.8c.173-.24.345-.479.511-.718.187-.269.367-.537.546-.805.158-.238.316-.476.468-.714.172-.269.337-.538.5-.807.144-.237.288-.474.426-.711.157-.27.306-.54.455-.81.129-.236.26-.471.384-.706.142-.273.276-.545.411-.817.115-.232.231-.465.34-.7.128-.275.247-.549.366-.823.1-.231.2-.461.3-.691.113-.276.216-.551.32-.827.086-.229.176-.457.256-.686.1-.278.185-.556.274-.834.072-.225.148-.45.214-.675.083-.283.154-.565.228-.848.057-.22.12-.439.172-.659.068-.291.124-.581.183-.872.042-.21.09-.421.128-.631.053-.3.093-.606.136-.91.028-.2.063-.394.086-.591.04-.333.064-.665.091-1,.013-.166.034-.333.044-.5q.043-.747.044-1.492a13.905,13.905,0,0,0-.1-1.556c-.012-.108-.024-.216-.038-.324a14.518,14.518,0,0,0-.278-1.481c-.02-.082-.045-.163-.067-.245q-.177-.672-.415-1.324c-.027-.074-.05-.149-.079-.222a14.917,14.917,0,0,0-.612-1.374c-.049-.1-.1-.191-.15-.286a15.184,15.184,0,0,0-.779-1.32l-.017-.024a15.011,15.011,0,0,0-.908-1.2c-.067-.081-.132-.162-.2-.241a14.512,14.512,0,0,0-1.028-1.078c-.062-.059-.128-.114-.192-.172q-.508-.464-1.058-.875c-.038-.029-.072-.063-.111-.092.036,0,.075.005.111.009.284.034.556.083.834.124.393.058.788.113,1.17.185.286.054.561.121.841.182.357.079.717.156,1.063.245.278.072.545.153.815.231.332.1.664.191.984.3.265.086.521.178.778.27.307.109.614.219.91.335.25.1.491.2.733.3.285.12.568.24.842.364q.347.157.679.32c.264.127.525.255.777.385.211.109.419.219.622.329.242.131.479.263.709.4.191.11.38.22.563.329.22.133.433.264.64.4.17.107.339.214.5.32.2.13.388.258.572.385.147.1.295.2.432.3.177.126.343.247.505.368.12.089.245.181.357.267.155.118.3.228.433.338.1.077.2.158.288.23.131.107.245.2.357.3l.213.18c.109.095.2.175.285.253l.131.117c.089.081.155.143.21.2l.05.046.1.1a.75.75,0,0,0,1.138-.077q.588-.79,1.189-1.535c.135-.166.272-.323.407-.486.268-.324.535-.649.806-.959.164-.188.33-.366.495-.549.245-.273.49-.548.737-.811.179-.19.359-.369.538-.553.236-.243.472-.488.71-.722.187-.185.376-.361.565-.54.231-.221.462-.443.7-.655.193-.176.386-.345.58-.515.229-.2.458-.407.688-.6.2-.167.393-.326.59-.487.227-.187.455-.374.682-.554.2-.156.4-.306.6-.458.226-.172.452-.344.678-.51.2-.146.4-.286.6-.427.225-.159.449-.318.673-.47.2-.136.4-.267.6-.4.223-.146.446-.292.668-.433.2-.125.393-.246.589-.366.221-.135.442-.269.662-.4.2-.115.39-.228.585-.338.218-.124.436-.246.652-.365q.288-.157.573-.308c.217-.115.432-.226.647-.335.187-.095.375-.189.56-.28q.321-.157.637-.306c.182-.086.364-.171.544-.253q.315-.142.626-.278c.177-.077.354-.154.528-.228.206-.087.409-.169.612-.251.17-.069.341-.138.508-.2.2-.078.4-.153.6-.227.163-.06.327-.122.487-.18.2-.071.39-.137.584-.2.153-.052.308-.107.459-.156.193-.065.382-.124.571-.184.144-.045.289-.092.43-.135.188-.058.37-.11.552-.163.134-.039.271-.08.4-.116.183-.052.36-.1.537-.145.121-.032.245-.066.363-.1.189-.049.37-.092.551-.135l.292-.071c.209-.049.408-.092.6-.135l.18-.039c.51-.108.977-.2,1.4-.266h0c.207-.036.4-.066.583-.093l.108-.016c.142-.021.28-.041.4-.057l.1-.013.333-.041.08-.008.275-.029.041,0,.224-.02h.007l.116-.008.087.025a9.19,9.19,0,0,1,1.3.444c.027.011.05.025.076.036a7.224,7.224,0,0,1,1.13.622c.015.01.028.022.043.033a5.951,5.951,0,0,1,.942.8l.018.021a5.618,5.618,0,0,1,.745.989,8.422,8.422,0,0,1,.791,5.455l-.133.007C551.8,1278.9,549.6,1294.527,549.576,1294.685Zm6.841,25.032c-.162.57-.332,1.133-.515,1.687-.084.254-.171.505-.258.755q-.276.783-.58,1.545c-.09.225-.177.453-.27.675q-.42,1-.889,1.968c-.02.043-.039.088-.06.131-.336.683-.7,1.347-1.071,2-.112.2-.231.387-.347.58q-.413.692-.852,1.359-.21.318-.427.631c-.306.442-.624.876-.95,1.3-.131.171-.257.345-.391.514-.049.062-.1.121-.154.183v-10.065c0-.048,0-.117,0-.2v-.065c0-.1.005-.223.012-.359a17.377,17.377,0,0,0,6.973-3.451c-.015.059-.027.121-.043.18C556.54,1319.3,556.476,1319.509,556.417,1319.717Zm-18.1,37.425a4.847,4.847,0,0,1,.323-1.741,4.97,4.97,0,0,1,2.232-2.565,4.876,4.876,0,0,1,1.681-.559,5.015,5.015,0,0,1,.684-.054h.677c-.035.036-.061.081-.1.118a4.834,4.834,0,0,0-.376.464c-.052.071-.106.139-.154.214a5.031,5.031,0,0,0-.4.75l-.005.009a4.975,4.975,0,0,0-.393,1.948v2.084h-4.17Zm4.92-6.419a6.418,6.418,0,0,0-.89.068h0a6.262,6.262,0,0,0-1.04.245c-.1.033-.2.075-.307.113a6.413,6.413,0,0,0-.673.3c-.1.054-.207.108-.309.168a6.312,6.312,0,0,0-.634.427c-.073.055-.149.1-.22.161a6.633,6.633,0,0,0-.734.709c-.047.053-.086.114-.131.169a6.184,6.184,0,0,0-.48.659c-.061.1-.115.194-.171.293a6.583,6.583,0,0,0-.316.649c-.044.1-.089.2-.127.311-.021.057-.05.11-.069.168l-.249-1c-1.251-6.388-10.288-6.28-10.672-6.275a.746.746,0,0,0-.543.249,30.255,30.255,0,0,1-15.687,9.672h-9.934v-2.085a5.008,5.008,0,0,0-5-5h-7.087c-.1,0-.2,0-.308.009-.077-.181-.156-.349-.234-.524-.056-.126-.111-.254-.167-.376-.176-.381-.354-.748-.532-1.09a12.612,12.612,0,0,0-2.506-3.493,11.939,11.939,0,0,1-2.8-4.04c-.106-.239-.2-.472-.29-.7-.023-.06-.046-.119-.068-.178-.075-.2-.146-.4-.21-.588-.007-.022-.016-.045-.023-.067-.07-.212-.132-.414-.188-.607-.014-.048-.027-.095-.041-.142-.044-.158-.085-.31-.121-.451-.007-.028-.015-.057-.022-.084-.04-.162-.075-.31-.1-.444l-.02-.1c-.011-.051-.019-.092-.028-.138q.572-.3,1.156-.6l.048-.025.005,0,.133-.071.014-.008c.155-.082.312-.167.467-.25l.463-.248.694-.378,0,0,.173-.094q.834-.461,1.689-.945l.132-.076.013-.007c.748-.427,1.489-.878,2.233-1.321.491-.293.99-.575,1.473-.872l.13-.08q.885-.543,1.773-1.11l.176-.112q.9-.571,1.793-1.166l.127-.084.038-.025q.955-.638,1.891-1.284c.14-.1.273-.194.412-.291.47-.329.94-.657,1.4-.985l.062-.045.013-.009.137-.1q.893-.647,1.778-1.315h0l.16-.121q.893-.675,1.773-1.372l.11-.087c1.259-1,2.485-2.024,3.641-3.042l.123-.109q.836-.736,1.647-1.493h0l.149-.138q.818-.766,1.609-1.55l.1-.093c.44-.438.87-.878,1.283-1.31.171.069.339.139.506.21.216.092.435.183.646.278s.434.2.648.3.409.192.606.291.414.214.619.321c.189.1.381.2.565.3.2.111.4.225.59.339.176.1.354.2.525.309.191.116.375.235.559.353.164.1.33.21.489.316.182.122.355.245.53.368.153.107.307.213.455.321.17.125.334.252.5.379.141.109.285.217.422.326.159.128.312.256.465.385.133.111.268.222.4.334.149.13.292.261.436.392.122.111.246.221.364.333.141.133.275.267.411.4.112.111.227.221.335.332.131.134.255.269.38.4.1.111.21.222.31.333.122.135.237.269.353.4.095.111.193.221.285.331.113.136.219.27.327.405.087.109.176.218.26.326.1.137.2.271.3.407.078.106.159.212.235.317.1.136.187.27.279.4.071.1.144.208.212.311.088.133.17.264.254.4.064.1.132.2.194.306.08.13.154.259.23.388.058.1.118.2.173.3.073.128.139.251.207.376.053.1.108.2.158.29.063.121.121.238.181.357.048.1.1.191.144.285.057.118.11.232.163.347.042.089.085.18.125.267.05.111.1.217.142.326.037.087.077.176.112.261.043.1.08.2.119.3s.071.173.1.256.069.184.1.275.062.164.089.241.059.174.088.26.051.147.074.216.049.156.073.233.044.139.063.2.04.138.059.206.036.124.052.18c.019.072.035.135.052.2.012.045.025.095.036.138.016.063.028.117.042.173.008.037.019.079.027.114s.015.072.023.109c.026.119.047.222.06.3l0,.016c.015.081.022.131.023.138a.75.75,0,0,0,.744.651,27.765,27.765,0,0,0,14.56-3.776c.417-.252.811-.511,1.2-.774.111-.076.217-.152.325-.229q.426-.3.821-.609c.093-.072.187-.143.278-.215.336-.268.659-.538.964-.809l.123-.114q.4-.357.758-.713c.081-.08.159-.159.238-.238q.316-.321.605-.635c.055-.06.113-.12.167-.18q.357-.4.672-.78c.041-.051.078-.1.119-.149.169-.209.328-.413.479-.612l.149-.2c.15-.2.291-.4.421-.59.016-.024.037-.05.053-.074v24.122c0,.708-.027,1.418-.08,2.119a4.983,4.983,0,0,0-.587-.035Zm-6.984,7.087H514.843a32.908,32.908,0,0,0,11.712-8.418c1.51.04,7.96.486,8.865,5.1Zm-41.2-1.418a.75.75,0,0,0-.75.75v14.882a1.376,1.376,0,0,1-2.752,0v-16.3a3.5,3.5,0,0,1,7,0V1369.9a1.376,1.376,0,0,1-2.752,0v-12.757A.75.75,0,0,0,495.045,1356.392Zm-17.205-16.5c-.028.094-.055.185-.083.283-.1.36-.212.736-.323,1.143s-.225.845-.339,1.3c-.038.149-.075.311-.113.464-.076.313-.153.624-.228.953-.045.2-.088.4-.133.606-.066.3-.133.6-.2.915-.046.22-.087.447-.13.672-.059.308-.118.614-.174.929-.041.236-.078.476-.117.715-.05.312-.1.623-.145.939-.036.25-.066.5-.1.752-.039.313-.078.624-.111.939-.026.257-.048.513-.07.77-.026.312-.051.622-.07.934-.016.26-.026.517-.036.776-.007.18-.021.362-.025.541h-5.97c.016-.087.03-.17.047-.259.038-.193.082-.392.126-.591q.087-.4.189-.817c.052-.212.109-.427.168-.644.075-.279.158-.563.244-.85.068-.223.138-.447.212-.673.1-.29.2-.584.31-.878.084-.228.168-.455.26-.685.121-.3.254-.6.389-.9.1-.225.2-.449.307-.674.151-.312.32-.622.489-.932.114-.21.221-.421.344-.63.2-.34.422-.672.644-1.005.114-.172.218-.347.339-.517.355-.5.734-.985,1.146-1.456.323-.369.664-.718,1.013-1.057.1-.094.2-.186.293-.277q.445-.415.918-.8c.068-.055.134-.114.2-.168.319-.251.652-.482.988-.71-.008.025-.017.057-.025.083C478.006,1339.33,477.925,1339.6,477.84,1339.89Zm-8.6,15.129h6.226a21.762,21.762,0,0,0,.255,2.791h-6.766Q469.04,1356.409,469.236,1355.019Zm35.047-38.466q.711-.864,1.366-1.711c.132-.169.266-.338.4-.508.4-.532.787-1.058,1.159-1.579.233-.325.461-.652.687-.981.174-.254.338-.505.5-.756q.588-.886,1.139-1.786c.052-.084.1-.166.15-.25q.654-1.085,1.247-2.187c.034-.063.066-.126.1-.19q.553-1.041,1.049-2.1c.1-.218.2-.433.294-.649.231-.516.456-1.032.664-1.554q.3-.741.549-1.454c.087-.246.176-.492.258-.739.239-.719.446-1.415.626-2.09.027-.106.053-.212.08-.318.209-.816.381-1.6.514-2.352.081-.458.148-.906.207-1.347.02-.147.033-.289.05-.434.035-.292.068-.582.093-.865.015-.166.025-.327.037-.491.019-.256.036-.51.047-.76.008-.166.013-.329.018-.492q.011-.36.012-.71c0-.16,0-.317,0-.473,0-.232-.01-.459-.019-.685-.006-.146-.011-.294-.018-.437-.014-.235-.031-.462-.05-.689-.01-.125-.018-.252-.03-.375-.026-.276-.058-.544-.092-.808-.009-.064-.015-.132-.023-.2-.045-.325-.094-.64-.149-.947-.016-.094-.035-.183-.053-.275-.039-.209-.079-.417-.122-.617-.024-.113-.051-.222-.076-.332-.039-.171-.079-.342-.121-.506-.028-.111-.057-.219-.087-.328q-.061-.229-.126-.45-.045-.157-.093-.309c-.043-.142-.087-.279-.132-.413-.031-.095-.062-.189-.094-.28-.045-.133-.091-.259-.138-.385-.03-.082-.06-.167-.091-.246-.05-.131-.1-.253-.149-.374-.025-.063-.051-.131-.077-.191v0l.116.076a12.382,12.382,0,0,1,1.16.855c.026.022.049.045.074.067a12.974,12.974,0,0,1,1.018.972c.048.051.1.1.146.152a13.562,13.562,0,0,1,.9,1.1c.055.075.109.15.163.226a13.81,13.81,0,0,1,.762,1.206c.032.058.061.118.092.176a13.5,13.5,0,0,1,.6,1.263c.018.043.039.086.056.129a13.277,13.277,0,0,1,.457,1.375c.025.089.051.177.073.267a12.975,12.975,0,0,1,.279,1.4c.011.083.019.167.029.25a12.47,12.47,0,0,1,.1,1.5c0,.6-.031,1.2-.077,1.809a24.766,24.766,0,0,1-.387,2.847q-.208,1.068-.513,2.14c-.044.157-.08.313-.128.469-.131.437-.279.875-.434,1.312-.018.052-.032.1-.05.154-.123.34-.262.681-.4,1.021-.06.15-.112.3-.175.449-.374.893-.8,1.787-1.274,2.683-.046.089-.086.177-.134.266q-.393.732-.827,1.464l-.008.014c-.282.475-.579.95-.887,1.425l-.035.057c-.163.249-.341.5-.511.75s-.326.489-.5.734c-.045.063-.094.126-.14.19-.309.431-.625.863-.956,1.294-.049.064-.1.128-.152.192-.718.927-1.481,1.854-2.3,2.782-.034.039-.072.078-.107.117q-.607.686-1.249,1.371c-.119.127-.255.26-.378.389-.4.415-.8.833-1.224,1.258h0l-.094.092q-.775.768-1.577,1.519h0l-.146.136q-.8.742-1.617,1.466h0l-.121.107q-.874.771-1.8,1.542-.875.729-1.782,1.451h0l-.107.084q-.867.687-1.748,1.354l-.157.118q-.873.66-1.75,1.294l-.136.1-.009.006-.012.008c-.368.266-.75.532-1.129.8-.241.17-.475.339-.719.508-.459.318-.929.633-1.4.948-.168.113-.331.227-.5.34h0l-.122.081q-.888.588-1.774,1.154h0l-.094.06a98.993,98.993,0,0,0,13.968-13.565C504.182,1316.677,504.232,1316.615,504.283,1316.553Zm89.236-49.391a14.163,14.163,0,0,1,5.542,8.969l-.02-.01c-.12-.072-.234-.121-.351-.18s-.215-.117-.318-.16-.214-.076-.321-.112-.205-.078-.3-.1-.193-.039-.289-.057-.193-.044-.282-.055-.167-.011-.251-.016-.172-.016-.249-.016h-.009c-.1,0-.179.009-.266.016-.057,0-.121,0-.174.01a3.319,3.319,0,0,0-.362.063c-1.574-1.441-8.393-7.329-15.371-8.268a.723.723,0,0,0-.412-.141c-.244,0-.481.015-.714.038-.234-.012-.469-.038-.7-.038-.461,0-.912.006-1.358.014l-.394.009q-.487.012-.963.03c-.125,0-.251.008-.375.014-.418.017-.83.037-1.231.06l-.091.006q-.564.034-1.1.075c-.12.008-.236.018-.354.027q-.416.033-.815.069l-.331.03c-.351.033-.7.068-1.025.1l-.142.017q-.431.048-.836.1l-.322.041q-.315.039-.613.08l-.29.04c-.269.037-.529.075-.775.113l-.169.026c-.2.031-.382.06-.561.09l-.249.041-.419.072-.209.037-.493.091c.021-.058.041-.114.064-.175l.038-.1c.055-.138.115-.284.183-.437.014-.031.031-.064.045-.1.058-.127.122-.26.191-.4.023-.046.045-.091.07-.138.089-.171.184-.346.291-.527h0c.106-.179.223-.363.347-.548l.1-.151c.1-.153.216-.306.335-.462.032-.042.062-.084.095-.126q.225-.288.483-.578c.035-.04.073-.08.109-.119.145-.159.3-.318.458-.476l.158-.155a13.193,13.193,0,0,1,1.372-1.139l.206-.145q.321-.222.67-.437c.059-.037.115-.074.176-.11.262-.156.54-.306.826-.453,6.717.017,12.35.951,16.745,2.777A21.419,21.419,0,0,1,593.519,1267.162Zm-113.472,26.661a61.015,61.015,0,0,1,9.619-9.981,37.566,37.566,0,0,1,13.828-7.388,21.013,21.013,0,0,1,5.251-.779c.265,0,.412.01.412.01l.061,0a28.9,28.9,0,0,1,7.239.845,17.464,17.464,0,0,0,4.1.572c10.632,0,17.29-3.674,24.34-7.564,6.591-3.637,13.389-7.388,23.918-7.953-.071.052-.126.108-.194.161q-.43.335-.813.677c-.094.084-.188.167-.278.252-.31.3-.6.591-.867.888l-.008.009c-.268.3-.505.606-.727.907-.066.088-.126.175-.188.263-.158.224-.3.443-.438.66-.048.077-.1.154-.143.23-.165.278-.314.548-.443.807-.024.047-.041.089-.064.135q-.159.325-.283.622c-.031.073-.059.142-.086.212-.071.177-.133.342-.187.5-.015.043-.032.088-.046.13-.063.19-.114.357-.154.5l-.007.023-.123.013-.188.02-.219.026-.267.033c-.133.018-.271.036-.422.058l-.22.034-.351.055c-.088.014-.183.031-.275.047-.118.02-.235.04-.359.063l-.318.06-.392.077-.342.072c-.138.029-.278.059-.421.091l-.377.086c-.148.034-.3.071-.454.109l-.393.1c-.163.042-.331.087-.5.132l-.4.109c-.182.05-.369.105-.557.16-.131.039-.26.075-.394.116-.234.07-.473.147-.714.224l-.282.089c-.333.109-.674.226-1.02.349-.121.043-.247.091-.37.136-.233.085-.467.17-.705.261-.149.057-.3.119-.45.178-.219.086-.437.173-.659.264l-.491.208c-.216.093-.434.187-.654.284q-.255.114-.512.233-.328.151-.661.31c-.175.084-.351.169-.528.257-.224.11-.449.225-.676.342-.176.091-.353.181-.531.276-.235.125-.472.256-.709.387-.171.095-.341.187-.513.285-.26.149-.522.305-.785.461-.152.091-.3.178-.454.271-.351.215-.7.439-1.057.668-.065.043-.13.081-.2.124q-.622.409-1.248.85c-.14.1-.28.2-.42.3-.281.2-.563.407-.845.62-.166.125-.332.257-.5.386-.256.2-.512.4-.768.6-.177.144-.354.292-.531.44-.245.205-.491.412-.735.625-.181.157-.36.317-.54.478q-.363.326-.725.664c-.179.168-.359.338-.538.51-.242.234-.484.474-.725.717-.174.175-.348.349-.521.529-.25.259-.5.525-.744.793-.163.177-.327.351-.488.531-.272.3-.54.618-.809.933-.135.158-.27.31-.4.471-.4.482-.8.976-1.191,1.487a32.492,32.492,0,0,0-21.122-8.132h-.045a.732.732,0,0,0-.148.02.379.379,0,0,0-.048.007c-.013,0-.024.01-.037.014a.751.751,0,0,0-.07.03.647.647,0,0,0-.092.044.377.377,0,0,0-.045.035.543.543,0,0,0-.064.052.642.642,0,0,0-.058.058c-.007.008-.017.012-.023.021a.422.422,0,0,0-.026.046.527.527,0,0,0-.04.056l-.011.015c-.005.009,0,.02-.006.029a.711.711,0,0,0-.049.13c-.005.018-.016.033-.02.052s0,.033,0,.05a.81.81,0,0,0-.006.109c0,.017,0,.031,0,.048s.006.062.012.093a.829.829,0,0,0,.044.127.72.72,0,0,0,.048.1c.006.01.007.021.014.031v0c.035.051,2.98,4.535,2.549,12.13-.009.154-.029.318-.041.474-.029.389-.057.777-.1,1.18-.031.26-.078.533-.117.8-.047.321-.086.636-.145.965-.048.264-.106.527-.161.79-.05.245-.1.49-.152.734-.061.262-.133.522-.2.783-.063.245-.121.49-.19.733-.073.26-.157.518-.236.777-.075.243-.145.486-.225.727s-.179.506-.269.759-.17.49-.263.735-.2.485-.293.728-.2.5-.305.75-.211.47-.317.705c-.115.253-.225.508-.345.76-.107.227-.223.451-.335.676-.129.259-.253.518-.387.774-.112.216-.232.429-.348.643-.143.264-.283.53-.431.792-.118.209-.243.414-.365.621-.155.266-.307.532-.468.8-.123.2-.253.4-.379.6-.168.268-.334.536-.507.8-.122.187-.25.372-.375.558-.185.276-.368.553-.558.827-.121.173-.247.345-.37.518-.2.284-.4.568-.609.85-.118.159-.24.316-.359.475-.219.291-.437.583-.661.872-.118.152-.24.3-.36.452-.232.293-.463.587-.7.878-.112.137-.228.272-.342.408-.249.3-.5.6-.753.9-.114.133-.231.264-.346.4-.259.3-.518.6-.782.892-.11.124-.224.245-.335.368-.273.3-.546.6-.824.9-.106.114-.215.225-.321.339-.286.3-.572.606-.862.905-.11.114-.223.225-.333.338-.292.3-.583.6-.879.889-.089.089-.18.176-.27.265q-.476.469-.956.933c-.1.1-.21.2-.315.3-.31.3-.621.591-.935.882-.084.079-.17.155-.254.234q-.5.462-1.005.918l-.318.282q-.477.426-.955.847c-.1.089-.207.177-.31.267-.325.282-.65.563-.976.84l-.173.145q-.555.469-1.112.931l-.305.249c-.328.269-.656.538-.984.8-.114.092-.228.181-.342.272-.318.253-.635.507-.951.756-.055.042-.11.084-.164.127q-.562.44-1.124.871c-.033.025-.066.049-.1.075q-.591.452-1.18.893l-.242.179c-.344.256-.687.512-1.03.762l-.093.068c-.389.284-.777.566-1.163.842q-.626.448-1.244.882-1.011.71-2.059,1.425c-.308.158-.608.332-.912.5-.262.144-.528.28-.786.43-.313.182-.617.38-.925.571-.247.153-.5.3-.743.459-.366.24-.722.495-1.079.748-.177.125-.359.242-.534.37q-.792.581-1.552,1.2a40.436,40.436,0,0,0-10.344,12.995c-.385.75-.745,1.512-1.085,2.279-.014.032-.031.063-.045.095q.117-.963.244-1.936c.537-4.148,1.176-8.333,1.9-12.439q.287-1.631.59-3.222c.167-.883.335-1.757.507-2.61h0v0l.03-.151a189.148,189.148,0,0,1,4.679-18.676C472.188,1307.048,475.9,1299.16,480.047,1293.823Zm-20.073,39.1c.188-.661,1.124-1.407,2.781-2.217a.75.75,0,0,0-.221-1.416,2.533,2.533,0,0,1-1.862-.893,1.341,1.341,0,0,1-.27-1.15c.2-.695,1.234-1.485,3.063-2.346a.75.75,0,0,0-.123-1.4,2.033,2.033,0,0,1-1.252-.771,1.312,1.312,0,0,1-.256-1.2c.395-1.149,2.932-2.333,5.3-3.252-.021.072-.042.15-.063.223q-.5,1.665-.973,3.405c-.057.208-.113.417-.17.627q-.477,1.766-.934,3.6c-.042.169-.083.341-.125.51-.316,1.288-.627,2.595-.928,3.931l0,.02c-.3,1.337-.591,2.7-.875,4.086-.026.122-.053.239-.078.362-1.428-.051-2.369-.384-2.739-.973A1.346,1.346,0,0,1,459.974,1332.923Zm-24.457,13.514a.768.768,0,0,0-.185.023.572.572,0,0,1-.36-.041.633.633,0,0,1-.126-.446c.225-.941,7.368-8.085,27.8-9.228-.1.526-.2,1.062-.306,1.6-.028.147-.056.289-.084.437q-.216,1.149-.425,2.32c-.221.02-.431.045-.649.066-.307.031-.615.061-.915.094s-.6.071-.891.108-.582.071-.866.109-.573.083-.857.126-.553.081-.823.125-.548.093-.82.141-.526.09-.781.138-.528.1-.79.157c-.246.05-.494.1-.734.149-.26.055-.51.114-.764.172-.228.052-.46.1-.683.156-.258.062-.5.127-.755.191-.205.052-.417.1-.617.157-.262.07-.511.143-.764.214-.178.051-.361.1-.535.151-.3.088-.585.179-.872.269-.219.069-.436.138-.648.208-.288.095-.576.191-.851.287-.155.054-.3.109-.449.164-.213.077-.43.154-.636.232-.156.059-.3.119-.454.179-.187.073-.378.147-.558.22-.15.061-.29.122-.435.184-.172.072-.346.145-.511.217-.14.061-.272.122-.407.183-.157.072-.316.143-.467.213l-.387.186c-.141.069-.285.137-.421.2s-.24.122-.359.184c-.1.05-.2.1-.3.152Zm1.417,7.082a.762.762,0,0,0-.206.029.471.471,0,0,1-.3-.034c-.079-.06-.164-.266-.165-.644.07-.488,1.708-2.672,6.107-5.022q.338-.18.708-.366c.092-.046.192-.093.287-.14.16-.079.318-.157.487-.237.116-.055.241-.11.361-.165.157-.072.312-.144.476-.217.133-.058.274-.117.411-.176.165-.07.327-.14.5-.211.142-.058.292-.117.439-.175.177-.071.352-.141.535-.211.155-.059.317-.118.477-.176.187-.07.373-.139.567-.208.167-.059.341-.116.512-.175.2-.067.395-.135.6-.2.178-.058.363-.115.546-.172.212-.066.422-.132.641-.2.187-.056.38-.11.572-.165.226-.064.452-.128.685-.191.2-.053.4-.1.6-.157.24-.062.482-.123.729-.184.207-.05.419-.1.63-.147.256-.059.514-.117.777-.174.217-.047.438-.092.66-.138.269-.054.54-.109.817-.161.23-.044.465-.086.7-.128.281-.05.565-.1.854-.146.242-.04.488-.078.735-.116q.442-.068.9-.131c.254-.035.512-.069.772-.1q.462-.058.938-.112.4-.047.81-.088l.463-.044c-.26,1.505-.5,3.023-.737,4.542-.041.267-.089.532-.13.8q-.422,2.77-.788,5.541Zm25.135,4.291c.1-.248.2-.5.308-.744.081-.187.161-.375.245-.561.288-.636.587-1.27.907-1.894.476-.93.99-1.825,1.521-2.7.1-.166.2-.333.3-.5q.783-1.251,1.64-2.424c.109-.149.223-.295.334-.443.592-.786,1.2-1.552,1.845-2.282.015-.016.029-.034.043-.051.652-.738,1.339-1.438,2.041-2.116.069-.067.138-.134.208-.2-.244.4-.475.811-.7,1.232-.063.119-.121.242-.182.362q-.276.543-.53,1.108c-.066.147-.132.294-.2.444q-.282.658-.533,1.346c-.024.064-.05.125-.073.19-.186.521-.356,1.057-.516,1.6-.044.151-.084.3-.126.455q-.173.627-.323,1.271c-.038.165-.078.33-.114.5-.124.573-.238,1.153-.334,1.746-.2,1.207-.331,2.435-.4,3.66Zm14.874-3.544a49.978,49.978,0,0,1,1.939-12.555q.125-.459.245-.878c.028-.1.054-.185.082-.279.05-.173.1-.347.148-.508.005.017.012.035.018.051.057.173.123.355.189.537.036.1.067.194.106.3q.165.433.365.888a13.43,13.43,0,0,0,3.167,4.541,11.19,11.19,0,0,1,2.185,3.077c.164.314.327.653.489,1,.042.089.083.18.124.271s.082.193.124.287c-.036.011-.067.029-.1.04-.136.043-.264.1-.4.154a6.37,6.37,0,0,0-.614.27c-.133.069-.258.149-.385.227-.182.112-.36.227-.529.356-.121.091-.235.188-.349.288-.158.139-.308.283-.451.436-.1.11-.2.221-.3.339a6.214,6.214,0,0,0-.372.51c-.083.124-.166.246-.24.376a6.547,6.547,0,0,0-.288.59c-.057.13-.12.256-.169.39a6.419,6.419,0,0,0-.2.7c-.028.118-.068.232-.089.353a6.3,6.3,0,0,0-.1,1.113v.668h-4.3A20.81,20.81,0,0,1,476.943,1354.266Zm6.1,3.544v-.668a4.934,4.934,0,0,1,4.234-4.865h0a5.027,5.027,0,0,1,.684-.054h3.519c-.12.122-.216.265-.323.4-.087.11-.186.209-.264.326a4.878,4.878,0,0,0-.271.5c-.061.116-.135.224-.186.346a5.009,5.009,0,0,0-.194.624c-.029.1-.073.2-.1.309a5,5,0,0,0-.1,1v2.084Zm7,11.421v2.793a19.22,19.22,0,0,1,7.128.75,2.879,2.879,0,0,0,2.876-2.876v-.667h2.077l-.039.052c-.145.193-.307.4-.492.628-.016.018-.034.039-.049.058-.17.206-.36.427-.562.656l-.183.2q-.308.341-.663.7c-.038.038-.071.074-.109.113-.272.274-.568.557-.881.843-.077.071-.159.142-.238.213-.263.235-.541.472-.83.71-.086.07-.168.139-.255.209-.368.294-.755.587-1.165.878-.073.052-.152.1-.227.155-.349.242-.715.481-1.094.717-.122.075-.244.151-.369.226-.47.28-.955.556-1.469.818-.32.164-.651.321-.988.475-.673.309-1.318.572-1.972.808a.747.747,0,0,0-.489.6c-.684,5.027-2.663,12.107-4.927,12.108a1.041,1.041,0,0,1-.28-.057c-.672-.245-1.451-1.363-2.078-3.436a36.542,36.542,0,0,1-1.1-7.485c-.015-.344-.032-.686-.041-1.047a.746.746,0,0,0-.013-.126c0-.006-.015-.078-.037-.192l-.009-.045-.023-.123-.029-.159-.031-.168-.036-.193c-.012-.067-.025-.142-.039-.216l-.043-.242c-.015-.082-.03-.17-.046-.258s-.029-.17-.045-.26l-.05-.295c-.018-.1-.036-.208-.054-.316s-.033-.2-.05-.3c-.02-.117-.039-.236-.059-.358l-.051-.317c-.021-.129-.042-.261-.063-.394-.017-.111-.034-.222-.052-.335-.02-.133-.04-.268-.061-.4l-.054-.363c-.021-.142-.041-.287-.062-.433-.017-.117-.034-.234-.05-.353-.022-.154-.042-.311-.063-.468-.016-.115-.031-.229-.046-.344-.021-.16-.041-.322-.061-.483-.014-.115-.029-.23-.043-.346-.021-.174-.04-.348-.06-.522-.011-.1-.023-.2-.034-.3-.023-.215-.044-.429-.065-.642-.006-.061-.013-.122-.019-.183v-.013Zm2.516,11.056q-.123.735-.251,1.484c-.071.413-.142.827-.215,1.245-.09.517-.182,1.039-.275,1.563-.073.409-.146.818-.221,1.232-.1.545-.2,1.1-.3,1.651-.076.41-.151.819-.228,1.234-.108.574-.219,1.157-.33,1.74-.077.4-.152.8-.231,1.213-.119.618-.242,1.245-.365,1.871-.076.385-.15.766-.227,1.155-.134.678-.273,1.366-.412,2.054-.071.35-.14.7-.212,1.049q-.318,1.559-.65,3.148a82.388,82.388,0,0,0-1.608,10.551,20.122,20.122,0,0,0,.521,7.534,6.357,6.357,0,0,0,.332.788c.041.081.086.148.129.224.081.142.164.282.25.4.055.076.111.142.167.21.081.1.162.19.245.272.062.06.124.117.187.17a3.007,3.007,0,0,0,.242.182c.066.044.13.089.2.126s.158.079.237.114.13.061.194.082a2.166,2.166,0,0,0,.245.064,2.333,2.333,0,0,0,.3.049c.071.006.144.017.211.017l.016,0a1.9,1.9,0,0,0,.386-.039,5.706,5.706,0,0,0,.842-.084c.086-.015.171-.037.257-.055a5.863,5.863,0,0,0,.6-.16c.094-.03.188-.062.282-.1.2-.077.407-.167.61-.266.077-.038.154-.07.231-.111a8.678,8.678,0,0,0,.828-.5l.014-.009c-.044.138-.089.278-.133.414-.082.254-.165.505-.247.753q-.138.414-.276.817c-.082.239-.164.477-.245.711-.1.27-.189.535-.284.8-.079.22-.158.44-.237.655-.1.268-.2.53-.3.791-.075.2-.151.4-.227.6-.1.266-.2.524-.307.781-.072.181-.144.364-.216.541-.109.268-.218.528-.327.787-.065.154-.13.312-.2.463-.119.278-.238.547-.357.814-.055.125-.111.253-.166.375-.133.295-.266.579-.4.861-.042.088-.083.178-.124.264q-.243.508-.484.989l-.036.073a37.933,37.933,0,0,1-2.625,4.484l-.038.054q-.236.339-.47.653l-.065.086c-.147.195-.293.385-.438.566-.027.033-.054.065-.08.1-.14.171-.279.338-.417.5l-.094.1c-.133.151-.266.3-.4.436-.034.036-.068.07-.1.1q-.192.2-.383.383l-.107.1c-.125.117-.248.229-.371.335-.037.033-.075.064-.112.1-.12.1-.239.2-.358.289l-.117.089q-.174.131-.345.246c-.04.027-.08.055-.12.081-.112.073-.223.141-.333.206-.041.024-.082.049-.123.072-.108.06-.214.115-.32.167l-.127.063c-.1.048-.206.09-.308.131-.043.017-.086.036-.128.051-.1.037-.2.069-.3.1-.043.013-.086.028-.129.04-.1.026-.19.046-.284.066-.044.009-.088.02-.131.027-.092.016-.182.026-.272.036-.044.005-.088.012-.132.015-.089.007-.177.007-.265.007-.042,0-.084,0-.125,0-.093,0-.184-.012-.275-.021-.034,0-.069-.005-.1-.009a3.346,3.346,0,0,1-.365-.07c-.636-.156-1.129-.792-1.467-1.889h0a19.89,19.89,0,0,1-.4-6.684,63.753,63.753,0,0,1,1.009-7.552l6.979-33.5c.012,0,.024-.012.037-.015a2.8,2.8,0,0,0,.58-.234l.092-.05a3.588,3.588,0,0,0,.536-.38c.029-.024.058-.049.086-.075a5.232,5.232,0,0,0,.5-.509c.026-.03.05-.061.075-.091a7.407,7.407,0,0,0,.465-.628c.02-.03.039-.062.059-.093.151-.233.3-.479.436-.738.014-.025.027-.052.04-.078q.214-.405.413-.843l.015-.036q.2-.446.379-.914l.018-.045c.118-.308.229-.622.336-.94l.033-.1c.1-.308.2-.62.292-.932l.037-.121q.134-.459.253-.914l.037-.141c.078-.3.15-.594.219-.884l.034-.143q.1-.433.189-.848l.028-.131c.057-.275.111-.541.16-.8l.023-.119c.049-.255.094-.5.134-.732l.014-.079c.041-.234.078-.455.11-.657l.01-.058c.032-.2.061-.394.085-.558.465-.177.927-.368,1.4-.579-.038.23-.074.458-.112.69Q492.662,1379.67,492.559,1380.287Zm-2.417,54.383q-.084.234-.17.47-.171.474-.345.948c-.064.174-.127.348-.192.522q-.229.618-.464,1.235l-.2.522q-.187.486-.377.969-.1.252-.2.5-.23.578-.464,1.15l-.21.508q-.252.609-.508,1.21c-.057.132-.114.263-.172.4q-.207.48-.417.951-.1.221-.2.44-.267.589-.536,1.165c-.063.134-.127.266-.19.4q-.228.48-.458.946c-.05.1-.1.206-.15.307-.188.377-.378.745-.567,1.107l-.187.354c-.194.363-.388.721-.583,1.067-.037.067-.075.132-.113.2q-.258.452-.516.881c-.058.1-.116.2-.175.29q-.294.48-.59.931l-.155.231q-.264.391-.526.756l-.125.175c-.2.276-.406.536-.609.786-.053.066-.106.13-.16.194-.207.249-.415.489-.623.709-.017.018-.033.033-.05.05-.2.207-.395.4-.592.577-.049.044-.1.089-.146.131-.2.18-.411.345-.616.492-.039.028-.078.052-.117.079a5.892,5.892,0,0,1-.558.342c-.036.019-.071.041-.106.058a4.387,4.387,0,0,1-.612.254c-.046.015-.092.027-.138.041a3.48,3.48,0,0,1-.623.125,2.735,2.735,0,0,1-1-.088,4.048,4.048,0,0,1-.519-.187c-.056-.024-.108-.056-.163-.083-.108-.054-.217-.107-.321-.17-.061-.038-.119-.084-.179-.126-.091-.063-.183-.125-.27-.2-.061-.05-.118-.107-.176-.161-.081-.075-.162-.148-.24-.23-.057-.062-.111-.13-.167-.195-.073-.086-.145-.172-.214-.266-.054-.073-.106-.152-.157-.229-.066-.1-.131-.2-.193-.3-.049-.084-.1-.173-.144-.261-.059-.111-.118-.224-.174-.343-.045-.094-.088-.193-.13-.292-.03-.068-.058-.14-.086-.211.036-.061.068-.127.1-.188.407-.7.807-1.419,1.187-2.152.406-.785.8-1.6,1.185-2.44.125-.273.245-.558.367-.836.257-.58.511-1.165.757-1.768.138-.337.271-.682.4-1.026.223-.572.443-1.151.657-1.742q.2-.547.391-1.106c.089-.257.183-.5.27-.765.022.029.048.051.071.079.065.08.133.156.2.228.048.049.1.1.146.145.076.068.154.129.234.189.05.037.1.077.151.111a2.63,2.63,0,0,0,.28.155c.047.024.092.052.14.072a2.9,2.9,0,0,0,.454.155,5.259,5.259,0,0,0,.641.115c.084.01.168.009.252.015.114.008.228.021.342.021.012,0,.023,0,.035,0a5.341,5.341,0,0,0,.937-.094c.062-.012.125-.026.188-.04a6.165,6.165,0,0,0,.934-.278l.023-.007a7.715,7.715,0,0,0,.964-.473c.064-.036.127-.073.191-.111a10.294,10.294,0,0,0,.965-.655l.023-.019c.313-.243.626-.518.938-.812.064-.06.129-.12.193-.183.315-.306.63-.634.944-.992.041-.047.083-.1.125-.148q.426-.495.849-1.052c.062-.081.123-.159.185-.242q.461-.62.918-1.31c.06-.091.121-.187.181-.28q.408-.632.814-1.319c.05-.085.1-.166.151-.253.026-.045.052-.087.079-.132Zm-27.7-62.687c-.312,0-1.209,0-1.707-2.752h4.326C464.056,1371.114,463.039,1371.983,462.446,1371.983Zm16.319-2.752.006.059c.01.106.021.212.032.318.015.159.03.316.047.475.012.111.025.221.037.332.017.155.034.309.052.464.014.118.029.235.043.353.018.146.035.292.054.437.015.121.031.24.047.359.019.145.037.289.057.433l.048.348c.02.141.039.28.059.418.017.119.035.235.052.352s.038.259.057.387.035.233.053.349.039.247.058.369.035.224.052.333.036.223.054.333.035.216.052.321.037.219.055.327c.015.092.031.184.046.272.019.113.037.22.056.326.012.075.025.149.038.22.017.1.034.194.05.287l.038.214.037.2c.013.076.027.152.04.22l.025.14.036.195.018.093c.026.14.048.255.059.316,0,.126.009.28.015.452l0,.065c.007.171.015.365.026.573l.005.091c.011.212.025.441.041.682,0,.039,0,.077.008.117q.025.366.06.768l.012.132c.024.275.051.557.082.85l.014.121q.049.454.112.93l.01.075c.045.331.094.668.149,1.006v.007c.055.336.116.673.182,1.009l.018.091c.064.321.135.639.211.954.01.045.021.089.031.133.076.306.158.608.246.9.014.049.029.1.043.145q.133.437.287.849l.051.132c.1.274.217.539.337.79.016.033.033.065.049.1a7.818,7.818,0,0,0,.4.722c.012.017.024.033.035.051a5.317,5.317,0,0,0,.473.632l.006.007a3.62,3.62,0,0,0,.53.49c.017.013.034.029.052.042a2.758,2.758,0,0,0,.569.315c.017.007.032.02.049.027q-.092.422-.183.84c-.1.452-.2.905-.295,1.352-.09.406-.18.807-.27,1.209-.093.418-.186.837-.279,1.25s-.186.816-.278,1.223l-.273,1.193c-.1.414-.191.821-.287,1.229-.087.371-.174.745-.26,1.111-.1.432-.2.855-.306,1.28-.081.338-.162.679-.243,1.012-.106.44-.213.87-.319,1.3-.076.307-.151.619-.227.922-.12.482-.239.952-.359,1.424-.061.244-.123.493-.184.734q-.271,1.064-.541,2.091c-3.234,12.315-6.417,21.29-9.463,26.677-3.555,6.286-6.2,6.59-7.876,6.27a3.442,3.442,0,0,1-.843-.275c-.09-.043-.162-.107-.247-.157a3.368,3.368,0,0,1-.459-.3c-.089-.073-.16-.165-.241-.246a4.035,4.035,0,0,1-.34-.352c-.077-.1-.138-.209-.208-.314-.088-.131-.182-.257-.259-.4-.064-.116-.113-.241-.17-.362-.066-.144-.139-.283-.2-.432-.049-.128-.086-.26-.13-.391-.049-.151-.1-.3-.146-.453-.037-.134-.064-.269-.1-.4-.036-.153-.075-.306-.1-.458s-.045-.273-.067-.41-.044-.262-.06-.391c5.823-39.53,14.013-64.515,15.3-68.294Zm-22.665,91.5.006-.042c.682-6.512,1.482-13.048,2.384-19.476.011.023.024.043.035.066.025.05.052.094.077.143a6.881,6.881,0,0,0,.433.724c.034.05.067.1.1.152a5.738,5.738,0,0,0,.571.669c.042.042.087.081.13.121a4.859,4.859,0,0,0,.6.485c.031.021.06.046.091.066a4.771,4.771,0,0,0,.748.387c.059.025.12.047.18.07a5.185,5.185,0,0,0,.845.244,5.951,5.951,0,0,0,1.029.1c.03,0,.06.009.09.009l.074,0c.075,0,.148-.008.222-.011.121-.007.242-.015.363-.029.079-.01.158-.023.237-.036q.171-.027.342-.066c.081-.018.162-.039.243-.061.111-.031.221-.066.332-.1.081-.028.162-.056.242-.087.111-.043.222-.093.333-.143.078-.036.156-.07.234-.109.117-.059.234-.126.351-.194.07-.04.14-.077.21-.12.157-.1.314-.207.471-.32.051-.036.1-.073.152-.112.159-.12.317-.246.476-.382.069-.06.138-.127.208-.19.114-.1.228-.206.341-.318.078-.076.155-.158.232-.238.106-.109.212-.219.317-.336.079-.087.158-.179.238-.271.1-.12.207-.243.311-.37.079-.1.158-.2.237-.3.105-.134.21-.273.315-.415.076-.1.153-.208.23-.315.109-.154.219-.315.328-.476.072-.107.144-.211.216-.321.121-.184.241-.377.362-.571.061-.1.121-.191.182-.291.181-.3.362-.606.544-.927.227-.4.454-.827.682-1.263.07-.134.14-.275.21-.413.161-.316.321-.639.482-.972q.117-.243.234-.49.247-.528.5-1.084c.065-.143.129-.283.193-.429.228-.518.455-1.051.683-1.6.036-.088.073-.183.109-.272q.289-.708.578-1.453c.075-.192.149-.389.223-.585q.24-.632.481-1.289c.077-.21.154-.419.23-.632.177-.492.354-1,.531-1.51.055-.159.11-.312.164-.472q.345-1.013.692-2.078c.011-.036.023-.069.034-.1l-.488,2.342a63.976,63.976,0,0,0-1.036,7.758q-.037.571-.058,1.111c-.005.121-.006.234-.01.353-.007.236-.014.472-.017.7,0,.134,0,.261,0,.393,0,.2,0,.4,0,.592,0,.137.01.266.015.4.007.177.013.356.023.526.008.131.02.254.03.38.013.162.025.324.041.478.013.124.029.242.045.361.018.147.036.293.058.433.018.115.039.224.059.334.025.133.049.266.077.393.023.106.048.206.074.307.019.076.035.158.055.231-.168.539-.348,1.057-.524,1.583-.149.442-.291.9-.444,1.33-.207.582-.426,1.138-.642,1.7-.147.385-.288.784-.439,1.161-.248.614-.508,1.2-.766,1.789-.131.3-.256.615-.39.909q-.6,1.306-1.227,2.526c-.458.884-.942,1.753-1.438,2.584h0l-.1.16c-5.26,8.728-10.607,10.914-12.372,10.606a2.718,2.718,0,0,1-1.421-.648A3.4,3.4,0,0,1,456.1,1460.727Zm-3.562,49.345c-.034-.011-.825-.29-.681-4.082.561-14.767,3.8-33.742,5.076-40.731.11.049.228.086.345.127.06.021.117.047.179.066a5.007,5.007,0,0,0,.608.146,3.458,3.458,0,0,0,.526.043c.023,0,.042.005.066.005.062,0,.132-.009.2-.012.082,0,.163-.007.248-.015.1-.01.21-.026.318-.043.085-.013.17-.027.258-.044.115-.023.234-.051.355-.082.089-.023.178-.047.27-.074.126-.037.254-.078.386-.123.094-.033.19-.068.287-.105.135-.052.272-.106.412-.167.1-.043.2-.09.3-.138.143-.067.286-.135.432-.21.108-.056.217-.117.327-.177.147-.081.295-.163.446-.253.115-.069.233-.146.35-.22.151-.1.3-.191.456-.3.123-.085.249-.178.374-.268.153-.11.305-.217.46-.337.136-.1.274-.22.412-.331s.3-.237.448-.366.331-.3.5-.447c.129-.117.256-.225.385-.348q.439-.417.887-.884c.11-.114.221-.241.33-.359.2-.211.391-.42.588-.646.126-.145.253-.3.38-.453.182-.216.364-.431.547-.66.133-.168.267-.348.4-.523s.278-.354.418-.544c-1.1,5.344-2.244,10.941-3.324,16.218-.028.136-.056.27-.083.405-.084.407-.166.812-.249,1.215l-.066.325c-.038.183-.075.367-.113.548q-.312,1.524-.612,2.995-.217,1.066-.429,2.1c-.8,3.892-1.506,7.381-2.073,10.173l-.008.041c-.2.986-.382,1.882-.542,2.677l-.005.023c-.1.495-.193.955-.275,1.368-.024.116-.045.225-.068.335s-.047.238-.069.348c-.036.18-.069.347-.1.5l0,.019c-.036.182-.069.35-.1.5-.116.589-.2,1.155-.257,1.7-.005.04-.016.087-.02.127C454.677,1510.327,452.739,1510.132,452.538,1510.072Zm19.829,7.9a2.9,2.9,0,0,1-2.187-.851c-1.36-1.393-1.315-4.022-1.314-4.068v-8.813c.021-.016.042-.039.063-.056a9.52,9.52,0,0,0,.77-.673c.046-.045.094-.095.141-.142.262-.264.527-.547.8-.864l.027-.031c.272-.325.548-.686.825-1.066.053-.072.106-.143.158-.217q.405-.569.816-1.214c.051-.08.1-.164.154-.245.279-.448.561-.915.845-1.417l.024-.04c.288-.51.58-1.056.873-1.621.056-.109.113-.216.169-.326q.426-.836.86-1.746c.056-.117.112-.239.168-.358.3-.631.593-1.281.893-1.965l.021-.045c.3-.693.61-1.423.919-2.171.06-.145.12-.289.18-.437q.447-1.1.9-2.268c.061-.159.123-.322.185-.482.313-.817.627-1.652.944-2.522l.011-.03c.319-.876.641-1.787.965-2.717.063-.183.127-.364.191-.549q.468-1.359.943-2.792c.065-.2.13-.4.2-.6.326-.992.653-2,.983-3.048.015-.045.029-.092.043-.137.324-1.026.651-2.085.979-3.162.068-.226.137-.45.206-.679q.486-1.609.979-3.293c.029-.1.058-.193.087-.293C478.574,1510.264,475.771,1517.967,472.367,1517.967Zm14.646-63.145c-7.467,28.148-14.147,44.888-19.319,48.41a2.784,2.784,0,0,1-2.239.583.762.762,0,0,0-.173-.02.854.854,0,0,0-.144.013,1.767,1.767,0,0,1-1.419-.419c-.706-.646-.986-2.01-.809-3.942h0a18.065,18.065,0,0,1,.272-1.845c.043-.218.1-.482.152-.767.061-.3.126-.629.2-1,.012-.061.025-.128.038-.19.033-.165.067-.332.1-.509l.1-.479.073-.363c.1-.49.206-1.019.32-1.579l.061-.3c.049-.243.1-.494.152-.75.014-.068.027-.134.041-.2.123-.606.254-1.247.389-1.912.032-.157.063-.313.1-.472q.08-.391.162-.795c.021-.1.043-.211.065-.318q.106-.525.217-1.067l.021-.1c.082-.4.164-.805.249-1.218l.03-.147.213-1.044.076-.373c.068-.335.138-.675.208-1.018.024-.121.049-.243.075-.365q.234-1.154.481-2.357.277-1.357.566-2.768c.016-.08.033-.16.049-.24,1.387-6.78,2.935-14.33,4.369-21.315.03.046.066.081.1.126a7.1,7.1,0,0,0,.492.645c.047.055.091.113.139.165a5.891,5.891,0,0,0,.693.644c.055.043.114.08.17.12a5.264,5.264,0,0,0,.627.394c.075.041.151.082.228.119a5.5,5.5,0,0,0,.867.336,4.14,4.14,0,0,0,.675.125c.072.008.145.01.219.014s.165.017.249.017c.131,0,.264-.006.4-.017,4.281-.379,9-7.355,14.021-20.734.363-.965.713-1.93,1.052-2.886l.029-.083q.495-1.4.951-2.754l.018-.053C491.132,1438.546,489.209,1446.546,487.013,1454.822Zm8.948-37.83q-.225.272-.453.525h0c-1.591,1.761-3.177,2.654-4.715,2.654a.594.594,0,0,0-.192.026.774.774,0,0,1-.393-.035c-.343-.113-.841-.487-1.235-1.637a11.3,11.3,0,0,1-.5-2.883,30.086,30.086,0,0,1,.057-4.056,80.782,80.782,0,0,1,1.581-10.354q.342-1.637.668-3.239c.063-.308.122-.607.184-.913.153-.759.307-1.519.455-2.266.065-.328.126-.647.19-.973.14-.713.281-1.427.416-2.128.073-.381.142-.752.214-1.129.12-.632.241-1.265.357-1.887.08-.431.156-.852.234-1.278.1-.558.206-1.118.3-1.667.079-.439.153-.867.23-1.3.093-.525.187-1.054.277-1.57.076-.44.147-.869.221-1.3.084-.495.17-.995.251-1.482.073-.444.142-.876.213-1.312.066-.4.134-.815.2-1.212.226-.12.44-.243.657-.366.1-.055.2-.108.294-.163q.555-.323,1.073-.655c.056-.036.108-.074.163-.11q.429-.281.832-.565c.107-.075.207-.151.311-.226.21-.154.416-.307.615-.461.108-.084.213-.167.318-.251q.282-.225.548-.448c.1-.081.191-.161.283-.241.186-.161.364-.32.538-.479.071-.065.146-.131.214-.2.478-.446.909-.88,1.294-1.293.059-.063.112-.123.169-.185.13-.142.256-.282.375-.418.062-.07.119-.138.178-.206.106-.124.206-.243.3-.36l.157-.192c.1-.118.183-.23.268-.34.039-.05.079-.1.116-.15.1-.129.187-.25.27-.365.016-.021.034-.044.049-.065.1-.134.18-.254.254-.364.023-.033.039-.058.06-.089.036-.053.074-.11.1-.156h7.205C510.216,1374.889,504.563,1406.585,495.961,1416.992Zm16.092-49.261H500.047v-8.421h42.437v8.421Zm38.935-12.005v16.3a1.376,1.376,0,0,1-2.752,0v-14.882a.75.75,0,0,0-1.5,0V1369.9a1.376,1.376,0,0,1-2.752,0v-14.173a3.5,3.5,0,0,1,3.5-3.5,3.518,3.518,0,0,1,1.036.156h0A3.487,3.487,0,0,1,550.988,1355.726Zm-1.335-14.251v-6.087c.278-.313.535-.643.8-.965.237-.286.484-.564.713-.857.3-.379.571-.776.851-1.167.21-.291.429-.574.63-.872.283-.421.545-.859.811-1.293.177-.286.364-.564.533-.856.29-.5.557-1.022.826-1.541.124-.24.261-.47.381-.714q.567-1.152,1.065-2.355c.087-.21.159-.431.242-.643.237-.6.474-1.2.685-1.822.111-.326.2-.666.308-1,.163-.52.332-1.036.478-1.568.1-.373.185-.759.278-1.137.115-.462.239-.918.34-1.389a31.132,31.132,0,0,0,5.182-6.753c.016-.028.034-.054.05-.082C563.766,1316.551,562.238,1331.679,549.653,1341.475Zm21.44-36.79a9.142,9.142,0,0,1-5.85,2.117v-6.352a.748.748,0,0,0-.6-.736c-.012,0-.025,0-.037,0a.833.833,0,0,0-.111-.011.478.478,0,0,0-.052.008.608.608,0,0,0-.111.016.719.719,0,0,0-.121.04.735.735,0,0,0-.094.044.679.679,0,0,0-.114.086.786.786,0,0,0-.068.06.738.738,0,0,0-.129.2l-.026.055c-.013.025-.03.061-.054.1l0,.006c-.376.689-2.14,3.36-6.981,3.612v-9.152a.75.75,0,0,0-.75-.75h-4.771c.033-.153.076-.329.123-.516.008-.031.015-.061.024-.093.047-.183.1-.381.164-.59.013-.046.028-.094.042-.141.065-.213.137-.436.218-.67.016-.048.035-.1.053-.148q.123-.348.271-.721c.016-.038.031-.077.047-.116.1-.242.21-.493.326-.747.032-.07.063-.139.1-.209.122-.257.255-.519.4-.784.044-.084.091-.169.137-.254.146-.264.3-.531.468-.8.052-.083.106-.165.16-.248.155-.242.32-.485.493-.728.065-.09.131-.181.2-.271.178-.239.368-.477.565-.714.076-.092.151-.184.231-.276.222-.255.458-.508.7-.758q.141-.142.288-.285c.256-.247.522-.491.8-.73.1-.084.2-.165.307-.248q.385-.311.8-.608c.122-.086.244-.171.37-.255q.442-.3.922-.571c.124-.072.245-.145.373-.214.365-.2.748-.387,1.144-.566q.209-.094.425-.186c.416-.175.845-.341,1.294-.492.129-.044.264-.083.4-.124.447-.14.906-.269,1.386-.382.057-.014.111-.03.169-.043-.01.014-.015.029-.025.043a4.214,4.214,0,0,0-.391.666c-.012.026-.022.052-.034.078a4.6,4.6,0,0,0-.243.688c-.006.023-.01.045-.016.068a5.321,5.321,0,0,0-.124.675c0,.016,0,.032,0,.048a5.951,5.951,0,0,0-.036.634c0,3.081,2.264,8.485,8.641,13.576l0,0c.427.34.846.65,1.268.96C573.588,1300.927,572.731,1303.185,571.093,1304.685Zm3.918-7.575-.7-1.565c.226-.34.453-.673.681-.987.114-.156.227-.3.341-.455.218-.287.437-.566.655-.83q.18-.217.358-.426c.215-.248.429-.484.641-.712.119-.127.238-.254.356-.375.216-.221.431-.427.645-.628.11-.1.221-.211.33-.309.231-.208.459-.4.686-.584.087-.072.176-.15.263-.219.3-.238.6-.46.891-.662l.024-.017c.3-.212.6-.4.893-.577.066-.04.128-.072.193-.11.217-.126.431-.247.636-.355.092-.047.178-.088.267-.132.172-.085.343-.169.507-.242.092-.041.181-.078.27-.116.151-.064.3-.124.439-.178l.25-.092q.2-.072.387-.131l.218-.068c.119-.035.23-.066.336-.093.06-.016.123-.033.179-.046.1-.025.2-.046.287-.064.044-.009.092-.02.132-.027.091-.018.169-.03.24-.041l.069-.011c.093.084.181.169.267.253.114.112.232.224.334.336s.2.236.3.354.182.22.26.328.155.234.228.35.136.213.193.318.112.229.163.343.1.205.135.306.073.222.106.333.062.2.083.292.04.216.056.323c.014.091.032.184.04.273.01.106.01.208.012.311,0,.084.007.171,0,.253,0,.1-.015.2-.025.3-.008.077-.013.157-.024.231-.015.1-.036.19-.057.283-.014.067-.026.137-.043.2-.025.094-.053.18-.082.267-.018.057-.035.118-.054.172-.033.088-.067.168-.1.249-.02.046-.038.1-.058.139-.038.084-.077.158-.116.233-.017.032-.034.069-.05.1-.043.078-.084.146-.124.212-.012.019-.025.043-.036.061-.046.074-.089.136-.127.192l-.012.017c-.073.1-.122.164-.145.191l-.011.014h0l0,0a.726.726,0,0,0-.062.1.776.776,0,0,0-.051.08.719.719,0,0,0-.041.135c-.005.022-.015.042-.019.064a.8.8,0,0,0,0,.13.493.493,0,0,0,0,.077.744.744,0,0,0,.055.2,9.636,9.636,0,0,0,.434.868c.042.075.085.147.127.219.129.216.26.42.4.611.031.044.061.092.093.135.166.225.335.433.507.626.041.047.083.089.124.134.14.151.279.291.418.422.043.041.086.083.129.122.172.155.342.3.507.426l.056.041c.1.078.207.155.306.224C586.765,1299.772,580.547,1300.967,575.011,1297.11Zm17.162,1.922c0-.008,0-.015,0-.023s0-.018,0-.027a.771.771,0,0,0-.024-.109.683.683,0,0,0-.021-.093.741.741,0,0,0-.065-.126c-.015-.025-.025-.051-.042-.074a.758.758,0,0,0-.11-.109c-.019-.016-.034-.036-.054-.051a.767.767,0,0,0-.209-.1,6.794,6.794,0,0,1-3.608-3.448,6.538,6.538,0,0,0,1.128-4.066,5.68,5.68,0,0,0-.087-.651c-.013-.073-.034-.144-.051-.217-.032-.141-.065-.283-.107-.423-.026-.084-.058-.167-.087-.251-.044-.127-.09-.254-.143-.379-.037-.087-.079-.173-.119-.259-.058-.121-.118-.242-.184-.361-.047-.086-.1-.171-.148-.256q-.108-.179-.228-.355c-.056-.082-.114-.165-.174-.247q-.132-.178-.278-.355c-.064-.077-.126-.155-.193-.232-.108-.123-.224-.245-.342-.366-.066-.069-.13-.138-.2-.206-.022-.021-.041-.043-.063-.065l0,0c.021-.026.045-.049.066-.075.114-.135.229-.267.348-.392.05-.051.1-.1.152-.148.094-.093.189-.187.286-.275.059-.053.12-.1.18-.154.091-.077.183-.156.276-.229.064-.05.128-.1.193-.144.091-.068.182-.136.274-.2.066-.046.132-.089.2-.132.091-.06.182-.12.274-.175.067-.041.133-.08.2-.118.091-.053.182-.1.273-.154.066-.036.131-.07.2-.1.091-.047.182-.093.272-.136.063-.031.126-.06.189-.089.089-.041.178-.081.266-.118.06-.026.12-.052.18-.076.087-.036.173-.07.257-.1l.166-.063.249-.088.148-.051.235-.074c.044-.013.089-.028.132-.04.076-.023.147-.043.217-.062l.107-.029c.074-.02.141-.036.205-.052l.076-.019.189-.042.043-.009c.068-.015.127-.026.175-.035,2.572.785,4.586.635,5.987-.449a4.284,4.284,0,0,0,.432-.391c.039-.04.075-.08.111-.121a4.141,4.141,0,0,0,.27-.328c.028-.038.058-.074.084-.113a4.73,4.73,0,0,0,.276-.445c.018-.033.032-.066.049-.1.064-.124.123-.248.175-.373.01-.022.022-.044.031-.066a26.667,26.667,0,0,1,1.809,8.7,20.546,20.546,0,0,1-16.7,20.156c.518-.324,1.062-.692,1.607-1.106C590.355,1305.554,592.173,1302.4,592.173,1299.032Z" fill="#1a1a1a"/>
    <path id="Path_891" data-name="Path 891" d="M581.5,1277.1a3.584,3.584,0,1,0-3.585-3.585A3.589,3.589,0,0,0,581.5,1277.1Zm0-5.669a2.084,2.084,0,1,1-2.085,2.084A2.086,2.086,0,0,1,581.5,1271.436Z" fill="#1a1a1a"/>
    <path id="Path_892" data-name="Path 892" d="M585.53,1278.474c-4.487,1.406-10.462-.524-11.841-3.825a.75.75,0,1,0-1.384.578c1.3,3.115,5.7,5.21,10.048,5.21a12.176,12.176,0,0,0,3.625-.531.75.75,0,0,0-.448-1.432Z" fill="#1a1a1a"/>
    <path id="Path_893" data-name="Path 893" d="M597.206,1278.449a3.444,3.444,0,0,0-3.63,1.844.75.75,0,0,0,.368.995.741.741,0,0,0,.313.069.75.75,0,0,0,.682-.436,1.987,1.987,0,0,1,2.043-.99.749.749,0,0,0,.224-1.482Z" fill="#1a1a1a"/>
  </g>
</svg>