<?xml version="1.0" encoding="utf-8"?>
<svg width="800px" height="800px" viewBox="0 -19.71 93.626 93.626" xmlns="http://www.w3.org/2000/svg">
  <g id="Group_1851" data-name="Group 1851" transform="translate(-1034.295 -924.418)">
    <g id="Group_1716" data-name="Group 1716">
      <g id="Group_1685" data-name="Group 1685">
        <g id="Group_1684" data-name="Group 1684">
          <g id="Group_1683" data-name="Group 1683">
            <g id="Group_1682" data-name="Group 1682">
              <g id="Group_1681" data-name="Group 1681">
                <rect id="Rectangle_34" data-name="Rectangle 34" width="92.126" height="4.252" transform="translate(1035.045 967.687)" fill="#be8a66"/>
              </g>
            </g>
          </g>
        </g>
      </g>
      <g id="Group_1690" data-name="Group 1690">
        <g id="Group_1689" data-name="Group 1689">
          <g id="Group_1688" data-name="Group 1688">
            <g id="Group_1687" data-name="Group 1687">
              <g id="Group_1686" data-name="Group 1686">
                <path id="Path_1030" data-name="Path 1030" d="M1107.328,928l-1.417,1.418s-4.385-4.252-7.087-4.252c-.057,0-1.417,1.417-1.417,1.417a17.226,17.226,0,0,0-7.087-1.417L1088.9,928q-1.282,0-2.54.1,1.257-.1,2.54-.1a8.5,8.5,0,0,1,8.5,8.5c0,7.242-9.4,13.32-22.167,15.078l-6.189,6.182h8.513a2.835,2.835,0,0,1,2.835,2.835,4.009,4.009,0,0,0,5.669,0l12.756-14.173.63-.421a6.53,6.53,0,0,1,7.244,0l.63.421a30.968,30.968,0,0,0,5.669,7.086s1.418.917,1.418-9.921C1114.415,932.638,1107.328,928,1107.328,928Z" fill="#4d4d4d"/>
              </g>
            </g>
          </g>
        </g>
      </g>
      <g id="Group_1695" data-name="Group 1695">
        <g id="Group_1694" data-name="Group 1694">
          <g id="Group_1693" data-name="Group 1693">
            <g id="Group_1692" data-name="Group 1692">
              <g id="Group_1691" data-name="Group 1691">
                <path id="Path_1031" data-name="Path 1031" d="M1067.643,952.1h-7.019l-.906.839,0,0-21.836,21.836c1.3,2.614,5.669,1.417,5.669,1.417,1.3,2.614,5.67,1.417,5.67,1.417v-.032l19.833-19.811,6.189-6.182A55.925,55.925,0,0,1,1067.643,952.1Z" fill="#252525"/>
              </g>
            </g>
          </g>
        </g>
      </g>
      <g id="Group_1700" data-name="Group 1700">
        <g id="Group_1699" data-name="Group 1699">
          <g id="Group_1698" data-name="Group 1698">
            <g id="Group_1697" data-name="Group 1697">
              <g id="Group_1696" data-name="Group 1696">
                <path id="Path_1032" data-name="Path 1032" d="M1088.9,928q-1.282,0-2.54.1t-2.487.288a32.341,32.341,0,0,0-6.364,1.666c-.614.228-1.221.47-1.816.734q-.551.244-1.09.508-1.078.528-2.112,1.131t-2.017,1.278l-12.974,8.9-4.981,3.419-3.178,2.18a2.13,2.13,0,0,0,1.189,3.889h17.11a55.925,55.925,0,0,0,7.6-.513c12.765-1.758,22.167-7.836,22.167-15.078A8.5,8.5,0,0,0,1088.9,928Z" fill="#252525"/>
              </g>
            </g>
          </g>
        </g>
      </g>
      <g id="Group_1705" data-name="Group 1705">
        <g id="Group_1704" data-name="Group 1704">
          <g id="Group_1703" data-name="Group 1703">
            <g id="Group_1702" data-name="Group 1702">
              <g id="Group_1701" data-name="Group 1701">
                <path id="Path_1033" data-name="Path 1033" d="M1111.58,944.991l-2.835-1.417-1.417,2.834a30.961,30.961,0,0,0,5.669,7.087s1.418.917,1.418-9.921Z" fill="#252525"/>
              </g>
            </g>
          </g>
        </g>
      </g>
      <g id="Group_1710" data-name="Group 1710">
        <g id="Group_1709" data-name="Group 1709">
          <g id="Group_1708" data-name="Group 1708">
            <g id="Group_1707" data-name="Group 1707">
              <g id="Group_1706" data-name="Group 1706">
                <path id="Path_1034" data-name="Path 1034" d="M1127.171,969.1" fill="none" stroke="#1a1a1a" stroke-linecap="round" stroke-linejoin="round" stroke-width="6"/>
              </g>
            </g>
          </g>
        </g>
      </g>
      <g id="Group_1715" data-name="Group 1715">
        <g id="Group_1714" data-name="Group 1714">
          <g id="Group_1713" data-name="Group 1713">
            <g id="Group_1712" data-name="Group 1712">
              <g id="Group_1711" data-name="Group 1711">
                <path id="Path_1035" data-name="Path 1035" d="M1059.608,969.1" fill="none" stroke="#1a1a1a" stroke-linecap="round" stroke-linejoin="round" stroke-width="6"/>
              </g>
            </g>
          </g>
        </g>
      </g>
    </g>
    <g id="Group_1850" data-name="Group 1850">
      <g id="Group_1721" data-name="Group 1721">
        <g id="Group_1720" data-name="Group 1720">
          <g id="Group_1719" data-name="Group 1719">
            <g id="Group_1718" data-name="Group 1718">
              <g id="Group_1717" data-name="Group 1717">
                <circle id="Ellipse_131" data-name="Ellipse 131" cx="1.417" cy="1.417" r="1.417" transform="translate(1108.745 939.341)" fill="#1a1a1a"/>
              </g>
            </g>
          </g>
        </g>
      </g>
      <g id="Group_1726" data-name="Group 1726">
        <g id="Group_1725" data-name="Group 1725">
          <g id="Group_1724" data-name="Group 1724">
            <g id="Group_1723" data-name="Group 1723">
              <g id="Group_1722" data-name="Group 1722">
                <path id="Path_1036" data-name="Path 1036" d="M1113,954.264a.749.749,0,0,1-.738-.626l-1.418-8.5a.75.75,0,0,1,1.48-.247l1.417,8.5a.75.75,0,0,1-.616.863A.765.765,0,0,1,1113,954.264Z" fill="#1a1a1a"/>
              </g>
            </g>
          </g>
        </g>
      </g>
      <g id="Group_1731" data-name="Group 1731">
        <g id="Group_1730" data-name="Group 1730">
          <g id="Group_1729" data-name="Group 1729">
            <g id="Group_1728" data-name="Group 1728">
              <g id="Group_1727" data-name="Group 1727">
                <path id="Path_1037" data-name="Path 1037" d="M1113.079,954.265a.849.849,0,0,1-.574-.2,31.456,31.456,0,0,1-5.825-7.275.751.751,0,0,1-.023-.713l1.417-2.835a.753.753,0,0,1,1.007-.335l2.5,1.249,2.5-1.249a.751.751,0,0,1,1.086.671c0,9.691-1.126,10.3-1.607,10.565A1,1,0,0,1,1113.079,954.265Zm-4.9-7.887a31.454,31.454,0,0,0,4.792,6.066c.246-.737.63-2.677.684-7.653l-1.742.871a.754.754,0,0,1-.671,0l-2.164-1.082Z" fill="#1a1a1a"/>
              </g>
            </g>
          </g>
        </g>
      </g>
      <g id="Group_1736" data-name="Group 1736">
        <g id="Group_1735" data-name="Group 1735">
          <g id="Group_1734" data-name="Group 1734">
            <g id="Group_1733" data-name="Group 1733">
              <g id="Group_1732" data-name="Group 1732">
                <path id="Path_1038" data-name="Path 1038" d="M1090.321,965.853a.949.949,0,0,1-.2-.02l-7.086-1.417a1,1,0,0,1-.8-.981v-1.417a1,1,0,0,1,2,0v.6l6.282,1.256a1,1,0,0,1-.195,1.981Z" fill="#1a1a1a"/>
              </g>
            </g>
          </g>
        </g>
      </g>
      <g id="Group_1745" data-name="Group 1745">
        <g id="Group_1740" data-name="Group 1740">
          <g id="Group_1739" data-name="Group 1739">
            <g id="Group_1738" data-name="Group 1738">
              <g id="Group_1737" data-name="Group 1737">
                <path id="Path_1039" data-name="Path 1039" d="M1088.9,967.687h5.669l-4.252-2.835Z" fill="#1a1a1a"/>
              </g>
            </g>
          </g>
        </g>
        <g id="Group_1744" data-name="Group 1744">
          <g id="Group_1743" data-name="Group 1743">
            <g id="Group_1742" data-name="Group 1742">
              <g id="Group_1741" data-name="Group 1741">
                <path id="Path_1040" data-name="Path 1040" d="M1094.572,968.687H1088.9a1,1,0,0,1-.895-1.447l1.418-2.834a1,1,0,0,1,1.449-.385l4.252,2.834a1,1,0,0,1-.555,1.832Zm-4.051-2h.748l-.561-.374Z" fill="#1a1a1a"/>
              </g>
            </g>
          </g>
        </g>
      </g>
      <g id="Group_1754" data-name="Group 1754">
        <g id="Group_1749" data-name="Group 1749">
          <g id="Group_1748" data-name="Group 1748">
            <g id="Group_1747" data-name="Group 1747">
              <g id="Group_1746" data-name="Group 1746">
                <path id="Path_1041" data-name="Path 1041" d="M1066.226,964.853l-1.417,2.835h5.669Z" fill="#1a1a1a"/>
              </g>
            </g>
          </g>
        </g>
        <g id="Group_1753" data-name="Group 1753">
          <g id="Group_1752" data-name="Group 1752">
            <g id="Group_1751" data-name="Group 1751">
              <g id="Group_1750" data-name="Group 1750">
                <path id="Path_1042" data-name="Path 1042" d="M1070.478,968.687h-5.67a1,1,0,0,1-.894-1.447l1.417-2.834a1,1,0,0,1,1.449-.385l4.252,2.834a1,1,0,0,1-.554,1.832Zm-4.052-2h.749l-.561-.374Z" fill="#1a1a1a"/>
              </g>
            </g>
          </g>
        </g>
      </g>
      <g id="Group_1759" data-name="Group 1759">
        <g id="Group_1758" data-name="Group 1758">
          <g id="Group_1757" data-name="Group 1757">
            <g id="Group_1756" data-name="Group 1756">
              <g id="Group_1755" data-name="Group 1755">
                <path id="Path_1043" data-name="Path 1043" d="M1066.226,965.853a1,1,0,0,1-.895-.553l-1.29-2.579a1,1,0,0,1,1.789-.9l1.29,2.58a1,1,0,0,1-.894,1.447Z" fill="#1a1a1a"/>
              </g>
            </g>
          </g>
        </g>
      </g>
      <g id="Group_1764" data-name="Group 1764">
        <g id="Group_1763" data-name="Group 1763">
          <g id="Group_1762" data-name="Group 1762">
            <g id="Group_1761" data-name="Group 1761">
              <g id="Group_1760" data-name="Group 1760">
                <path id="Path_1044" data-name="Path 1044" d="M1059.169,952.847h-8.636a2.876,2.876,0,0,1-2.13-.955l-.008-.01h0a.75.75,0,1,1,1.118-1h0a1.359,1.359,0,0,0,1.019.463h8.636a.75.75,0,0,1,0,1.5Z" fill="#1a1a1a"/>
              </g>
            </g>
          </g>
        </g>
      </g>
      <g id="Group_1769" data-name="Group 1769">
        <g id="Group_1768" data-name="Group 1768">
          <g id="Group_1767" data-name="Group 1767">
            <g id="Group_1766" data-name="Group 1766">
              <g id="Group_1765" data-name="Group 1765">
                <path id="Path_1045" data-name="Path 1045" d="M1083.875,929.138a.75.75,0,0,1-.114-1.492c.842-.13,1.7-.229,2.544-.294a.748.748,0,0,1,.806.69c0,.02,0,.039,0,.058a.751.751,0,0,1-.693.748c-.808.062-1.626.156-2.429.281A.767.767,0,0,1,1083.875,929.138Z" fill="#1a1a1a"/>
              </g>
            </g>
          </g>
        </g>
      </g>
      <g id="Group_1774" data-name="Group 1774">
        <g id="Group_1773" data-name="Group 1773">
          <g id="Group_1772" data-name="Group 1772">
            <g id="Group_1771" data-name="Group 1771">
              <g id="Group_1770" data-name="Group 1770">
                <path id="Path_1046" data-name="Path 1046" d="M1077.512,930.8a.75.75,0,0,1-.262-1.453,33.254,33.254,0,0,1,6.511-1.705.753.753,0,0,1,.856.627.739.739,0,0,1,.009.115.75.75,0,0,1-.635.741,31.668,31.668,0,0,0-6.217,1.627A.752.752,0,0,1,1077.512,930.8Z" fill="#1a1a1a"/>
              </g>
            </g>
          </g>
        </g>
      </g>
      <g id="Group_1779" data-name="Group 1779">
        <g id="Group_1778" data-name="Group 1778">
          <g id="Group_1777" data-name="Group 1777">
            <g id="Group_1776" data-name="Group 1776">
              <g id="Group_1775" data-name="Group 1775">
                <path id="Path_1047" data-name="Path 1047" d="M1052.522,946.778a.751.751,0,0,1-.425-1.369l4.982-3.418a.75.75,0,1,1,.848,1.237l-4.981,3.418A.747.747,0,0,1,1052.522,946.778Z" fill="#1a1a1a"/>
              </g>
            </g>
          </g>
        </g>
      </g>
      <g id="Group_1784" data-name="Group 1784">
        <g id="Group_1783" data-name="Group 1783">
          <g id="Group_1782" data-name="Group 1782">
            <g id="Group_1781" data-name="Group 1781">
              <g id="Group_1780" data-name="Group 1780">
                <path id="Path_1048" data-name="Path 1048" d="M1059.718,953.686a.664.664,0,0,1-.077,0,.749.749,0,0,1-.535-.311c-.234-.33-.42-.615-.584-.895a.75.75,0,0,1,.647-1.129h1.455a.75.75,0,0,1,.51,1.3l-.907.84A.747.747,0,0,1,1059.718,953.686Z" fill="#1a1a1a"/>
              </g>
            </g>
          </g>
        </g>
      </g>
      <g id="Group_1789" data-name="Group 1789">
        <g id="Group_1788" data-name="Group 1788">
          <g id="Group_1787" data-name="Group 1787">
            <g id="Group_1786" data-name="Group 1786">
              <g id="Group_1785" data-name="Group 1785">
                <path id="Path_1049" data-name="Path 1049" d="M1083.233,962.525a4.723,4.723,0,0,1-3.364-1.394.747.747,0,0,1-.22-.53,2.087,2.087,0,0,0-2.085-2.085h-8.505a.752.752,0,0,1-.538-1.281l6.189-6.182a.747.747,0,0,1,.428-.212c12.67-1.745,21.519-7.639,21.519-14.335a7.764,7.764,0,0,0-7.754-7.754c-.827,0-1.662.032-2.483.1a.75.75,0,0,1-.805-.69c0-.02,0-.04,0-.059a.75.75,0,0,1,.692-.747c.7-.054,1.42-.087,2.133-.1l1.211-2.423a.75.75,0,0,1,.671-.414,18.758,18.758,0,0,1,6.909,1.27c1.221-1.27,1.256-1.27,1.595-1.27,2.425,0,5.741,2.76,7.068,3.959l.906-.905a.749.749,0,0,1,.941-.1c.3.2,7.426,4.987,7.426,16.218,0,9.691-1.126,10.3-1.607,10.566a.949.949,0,0,1-.968-.015.758.758,0,0,1-.085-.064,31.385,31.385,0,0,1-5.736-7.124l-.487-.325a5.766,5.766,0,0,0-6.412,0l-.551.368-12.694,14.1A4.744,4.744,0,0,1,1083.233,962.525Zm-2.1-2.267a3.26,3.26,0,0,0,4.4-.187l12.729-14.145a.71.71,0,0,1,.141-.122l.63-.421a7.262,7.262,0,0,1,8.076,0l.63.421a.748.748,0,0,1,.232.246,31.347,31.347,0,0,0,5,6.414c.266-.794.692-2.985.692-8.871,0-8.771-4.726-13.342-6.268-14.6l-.956.956a.75.75,0,0,1-1.052.008c-1.109-1.074-4.3-3.786-6.3-4.023-.26.256-.737.744-1.145,1.169a.751.751,0,0,1-.876.152,16.532,16.532,0,0,0-6.291-1.332l-.7,1.4a9.267,9.267,0,0,1,8.078,9.179c0,7.42-9.265,13.891-22.564,15.786l-4.73,4.724h6.7A3.591,3.591,0,0,1,1081.133,960.258Z" fill="#1a1a1a"/>
              </g>
            </g>
          </g>
        </g>
      </g>
      <g id="Group_1794" data-name="Group 1794">
        <g id="Group_1793" data-name="Group 1793">
          <g id="Group_1792" data-name="Group 1792">
            <g id="Group_1791" data-name="Group 1791">
              <g id="Group_1790" data-name="Group 1790">
                <path id="Path_1050" data-name="Path 1050" d="M1048.954,952.132a.746.746,0,0,1-.559-.25,2.863,2.863,0,0,1,.527-4.294l3.175-2.179a.75.75,0,1,1,.849,1.237l-3.178,2.18,0,0h0a1.378,1.378,0,0,0-.606,1.119v.022a1.352,1.352,0,0,0,.356.911.75.75,0,0,1-.559,1.25Z" fill="#1a1a1a"/>
              </g>
            </g>
          </g>
        </g>
      </g>
      <g id="Group_1799" data-name="Group 1799">
        <g id="Group_1798" data-name="Group 1798">
          <g id="Group_1797" data-name="Group 1797">
            <g id="Group_1796" data-name="Group 1796">
              <g id="Group_1795" data-name="Group 1795">
                <path id="Path_1051" data-name="Path 1051" d="M1047.041,978.633a4.587,4.587,0,0,1-3.853-1.593c-1.343.255-4.716.6-5.98-1.931a.75.75,0,0,1,.141-.865l21.836-21.836.93-.861a.745.745,0,0,1,.509-.2h7.019a55.185,55.185,0,0,0,7.495-.506.749.749,0,0,1,.632,1.273l-25.941,25.912a.737.737,0,0,1-.413.307A9.857,9.857,0,0,1,1047.041,978.633Zm-3.493-3.191a.75.75,0,0,1,.671.415c.868,1.739,3.747,1.261,4.577,1.082l24.385-24.359c-1.823.177-3.679.267-5.538.267h-6.725l-.691.64-21.384,21.385c1.3,1.445,4.473.607,4.508.6A.743.743,0,0,1,1043.548,975.442Z" fill="#1a1a1a"/>
              </g>
            </g>
          </g>
        </g>
      </g>
      <g id="Group_1804" data-name="Group 1804">
        <g id="Group_1803" data-name="Group 1803">
          <g id="Group_1802" data-name="Group 1802">
            <g id="Group_1801" data-name="Group 1801">
              <g id="Group_1800" data-name="Group 1800">
                <path id="Path_1052" data-name="Path 1052" d="M1067.643,952.847h-17.11a2.876,2.876,0,0,1-1.609-5.26l21.129-14.5c.669-.459,1.363-.9,2.062-1.307s1.432-.8,2.162-1.157q.552-.27,1.115-.52c.562-.249,1.169-.5,1.857-.752a33.281,33.281,0,0,1,6.512-1.705c.842-.13,1.7-.229,2.544-.294s1.733-.1,2.6-.1a9.265,9.265,0,0,1,9.254,9.254c0,7.466-9.382,13.972-22.814,15.82A56.592,56.592,0,0,1,1067.643,952.847Zm21.26-24.095c-.827,0-1.662.032-2.483.1s-1.626.156-2.429.281a31.668,31.668,0,0,0-6.217,1.627c-.659.246-1.24.481-1.774.718q-.537.238-1.064.5c-.7.341-1.392.713-2.064,1.105s-1.331.81-1.97,1.249l-21.134,14.5a1.381,1.381,0,0,0-.611,1.145,1.4,1.4,0,0,0,1.376,1.376h17.11a55.185,55.185,0,0,0,7.495-.506c12.67-1.745,21.519-7.639,21.519-14.335A7.764,7.764,0,0,0,1088.9,928.752Z" fill="#1a1a1a"/>
              </g>
            </g>
          </g>
        </g>
      </g>
      <g id="Group_1809" data-name="Group 1809">
        <g id="Group_1808" data-name="Group 1808">
          <g id="Group_1807" data-name="Group 1807">
            <g id="Group_1806" data-name="Group 1806">
              <g id="Group_1805" data-name="Group 1805">
                <path id="Path_1053" data-name="Path 1053" d="M1127.171,969.1" fill="none" stroke="#1a1a1a" stroke-linecap="round" stroke-linejoin="round" stroke-width="6"/>
              </g>
            </g>
          </g>
        </g>
      </g>
      <g id="Group_1814" data-name="Group 1814">
        <g id="Group_1813" data-name="Group 1813">
          <g id="Group_1812" data-name="Group 1812">
            <g id="Group_1811" data-name="Group 1811">
              <g id="Group_1810" data-name="Group 1810">
                <path id="Path_1054" data-name="Path 1054" d="M1059.608,969.1" fill="none" stroke="#1a1a1a" stroke-linecap="round" stroke-linejoin="round" stroke-width="6"/>
              </g>
            </g>
          </g>
        </g>
      </g>
      <g id="Group_1819" data-name="Group 1819">
        <g id="Group_1818" data-name="Group 1818">
          <g id="Group_1817" data-name="Group 1817">
            <g id="Group_1816" data-name="Group 1816">
              <g id="Group_1815" data-name="Group 1815">
                <path id="Path_1055" data-name="Path 1055" d="M1127.171,968.437h-68.032a.75.75,0,0,1,0-1.5h68.032a.75.75,0,0,1,0,1.5Z" fill="#1a1a1a"/>
              </g>
            </g>
          </g>
        </g>
      </g>
      <g id="Group_1824" data-name="Group 1824">
        <g id="Group_1823" data-name="Group 1823">
          <g id="Group_1822" data-name="Group 1822">
            <g id="Group_1821" data-name="Group 1821">
              <g id="Group_1820" data-name="Group 1820">
                <path id="Path_1056" data-name="Path 1056" d="M1127.171,972.689h-72.284a.75.75,0,0,1,0-1.5h72.284a.75.75,0,0,1,0,1.5Z" fill="#1a1a1a"/>
              </g>
            </g>
          </g>
        </g>
      </g>
      <g id="Group_1829" data-name="Group 1829">
        <g id="Group_1828" data-name="Group 1828">
          <g id="Group_1827" data-name="Group 1827">
            <g id="Group_1826" data-name="Group 1826">
              <g id="Group_1825" data-name="Group 1825">
                <path id="Path_1057" data-name="Path 1057" d="M1040.714,972.689h-5.669a.75.75,0,0,1,0-1.5h5.669a.75.75,0,0,1,0,1.5Z" fill="#1a1a1a"/>
              </g>
            </g>
          </g>
        </g>
      </g>
      <g id="Group_1834" data-name="Group 1834">
        <g id="Group_1833" data-name="Group 1833">
          <g id="Group_1832" data-name="Group 1832">
            <g id="Group_1831" data-name="Group 1831">
              <g id="Group_1830" data-name="Group 1830">
                <path id="Path_1058" data-name="Path 1058" d="M1044.966,968.437h-9.921a.75.75,0,0,1,0-1.5h9.921a.75.75,0,0,1,0,1.5Z" fill="#1a1a1a"/>
              </g>
            </g>
          </g>
        </g>
      </g>
      <g id="Group_1839" data-name="Group 1839">
        <g id="Group_1838" data-name="Group 1838">
          <g id="Group_1837" data-name="Group 1837">
            <g id="Group_1836" data-name="Group 1836">
              <g id="Group_1835" data-name="Group 1835">
                <path id="Path_1059" data-name="Path 1059" d="M1090.32,972.939a.993.993,0,0,1-.707-.293l-1.417-1.417a1,1,0,0,1-.293-.707v-2.835a1,1,0,0,1,2,0v2.421l1.124,1.124a1,1,0,0,1-.707,1.707Z" fill="#1a1a1a"/>
              </g>
            </g>
          </g>
        </g>
      </g>
      <g id="Group_1844" data-name="Group 1844">
        <g id="Group_1843" data-name="Group 1843">
          <g id="Group_1842" data-name="Group 1842">
            <g id="Group_1841" data-name="Group 1841">
              <g id="Group_1840" data-name="Group 1840">
                <path id="Path_1060" data-name="Path 1060" d="M1066.226,972.939a.993.993,0,0,1-.707-.293l-1.418-1.417a1,1,0,0,1-.293-.707v-2.835a1,1,0,0,1,2,0v2.421l1.125,1.124a1,1,0,0,1-.707,1.707Z" fill="#1a1a1a"/>
              </g>
            </g>
          </g>
        </g>
      </g>
      <g id="Group_1849" data-name="Group 1849">
        <g id="Group_1848" data-name="Group 1848">
          <g id="Group_1847" data-name="Group 1847">
            <g id="Group_1846" data-name="Group 1846">
              <g id="Group_1845" data-name="Group 1845">
                <circle id="Ellipse_132" data-name="Ellipse 132" cx="1.417" cy="1.417" r="1.417" transform="translate(1108.745 939.341)" fill="#1a1a1a"/>
              </g>
            </g>
          </g>
        </g>
      </g>
    </g>
  </g>
</svg>