<?xml version="1.0" encoding="utf-8"?>
<svg width="800px" height="800px" viewBox="-23.77 0 121.971 121.971" xmlns="http://www.w3.org/2000/svg">
  <g id="Group_6760" data-name="Group 6760" transform="translate(-524.809 -1436.432)">
    <g id="Group_6758" data-name="Group 6758">
      <g id="Group_6646" data-name="Group 6646">
        <g id="Group_6645" data-name="Group 6645">
          <g id="Group_6644" data-name="Group 6644">
            <path id="Path_2404" data-name="Path 2404" d="M526.2,1452.769s1.173,19.843,9.921,19.843a6.086,6.086,0,0,0,4.252-1.417" fill="#e4cec0"/>
          </g>
        </g>
      </g>
      <g id="Group_6649" data-name="Group 6649">
        <g id="Group_6648" data-name="Group 6648">
          <g id="Group_6647" data-name="Group 6647">
            <path id="Path_2405" data-name="Path 2405" d="M557.378,1452.769s-1.174,19.843-9.922,19.843a6.086,6.086,0,0,1-4.252-1.417" fill="#e4cec0"/>
          </g>
        </g>
      </g>
      <g id="Group_6652" data-name="Group 6652">
        <g id="Group_6651" data-name="Group 6651">
          <g id="Group_6650" data-name="Group 6650">
            <path id="Path_2406" data-name="Path 2406" d="M595.567,1508.044c-6.413-28.086-21.808-38.267-29.685-38.267h0c-9.975,0-15.591,6.494-15.591,12.756h0S558.623,1508.008,595.567,1508.044Z" fill="#be8a66"/>
          </g>
        </g>
      </g>
      <g id="Group_6655" data-name="Group 6655">
        <g id="Group_6654" data-name="Group 6654">
          <g id="Group_6653" data-name="Group 6653">
            <path id="Path_2407" data-name="Path 2407" d="M595.567,1508.044c-11.858-.012-20.764-2.646-27.4-6.215l30.252,30.252A122.946,122.946,0,0,0,595.567,1508.044Z" fill="#985c4c"/>
          </g>
        </g>
      </g>
      <g id="Group_6658" data-name="Group 6658">
        <g id="Group_6657" data-name="Group 6657">
          <g id="Group_6656" data-name="Group 6656">
            <path id="Path_2408" data-name="Path 2408" d="M561.63,1542.038c-1.63,0-2.323,1.347-2.617,2.528l2.617,13.085H567.3l-2.661-13.3A2.952,2.952,0,0,0,561.63,1542.038Z" fill="#fda654"/>
          </g>
        </g>
      </g>
      <g id="Group_6661" data-name="Group 6661">
        <g id="Group_6660" data-name="Group 6660">
          <g id="Group_6659" data-name="Group 6659">
            <path id="Path_2409" data-name="Path 2409" d="M552.066,1509.832l.971,4.857,5.251-1.751A52.3,52.3,0,0,1,552.066,1509.832Z" fill="#fda654"/>
          </g>
        </g>
      </g>
      <g id="Group_6664" data-name="Group 6664">
        <g id="Group_6663" data-name="Group 6663">
          <g id="Group_6662" data-name="Group 6662">
            <path id="Path_2410" data-name="Path 2410" d="M559.647,1519.39a17.745,17.745,0,0,0-5.514.777l2.995,14.974.25-.167,3.847-7.694Z" fill="#fda654"/>
          </g>
        </g>
      </g>
      <g id="Group_6667" data-name="Group 6667">
        <g id="Group_6666" data-name="Group 6666">
          <g id="Group_6665" data-name="Group 6665">
            <path id="Path_2411" data-name="Path 2411" d="M560.892,1514l-.68-.286c-.631-.239-1.244-.489-1.849-.743-.026-.01-.05-.022-.075-.033l-2.328.776h0l4.252,5.67h3.069A16.377,16.377,0,0,1,560.892,1514Z" fill="#e4cec0"/>
          </g>
        </g>
      </g>
      <g id="Group_6670" data-name="Group 6670">
        <g id="Group_6669" data-name="Group 6669">
          <g id="Group_6668" data-name="Group 6668">
            <path id="Path_2412" data-name="Path 2412" d="M558.363,1512.971l-.011-.054-.064.021C558.313,1512.949,558.337,1512.961,558.363,1512.971Z" fill="#e4cec0"/>
          </g>
        </g>
      </g>
      <g id="Group_6673" data-name="Group 6673">
        <g id="Group_6672" data-name="Group 6672">
          <g id="Group_6671" data-name="Group 6671">
            <path id="Path_2413" data-name="Path 2413" d="M541.787,1478.281a21.428,21.428,0,0,0,12.02-3.955c2.649-2.688,6.737-4.549,12.075-4.549,0,0-3.7-2.186-5.67-8.5s-2.834-8.5-2.834-8.5h0c-6.54-6.6-11.339-2.834-11.339-2.834l5.669,2.834s-7.166-.731-9.921,5.67c-2.755-6.4-9.921-5.67-9.921-5.67l5.669-2.834s-4.8-3.768-11.338,2.834c0,0-3.04,12.251,4.251,21.26C530.448,1474.029,533.377,1478.281,541.787,1478.281Z" fill="#e5e5e5"/>
          </g>
        </g>
      </g>
      <g id="Group_6676" data-name="Group 6676">
        <g id="Group_6675" data-name="Group 6675">
          <g id="Group_6674" data-name="Group 6674">
            <path id="Path_2414" data-name="Path 2414" d="M568.716,1519.384s-18.425-19.6-18.425-36.851a11.776,11.776,0,0,1,3.516-8.207,21.428,21.428,0,0,1-12.02,3.955c-8.41,0-11.339-4.252-11.339-4.252a43.244,43.244,0,0,0,21.618,35.8,52.3,52.3,0,0,0,6.222,3.106l.064-.021.011.054c.605.254,1.218.5,1.849.743l.68.286a16.377,16.377,0,0,0,2.389,5.384,11.1,11.1,0,0,0,1.183,1.417l-3.239,6.479-3.847,7.694,5.669,4.252v-2.834h0l4.247,3.186,1.422,1.066v-5.669h4.252v-5.669l1.89-3.78Z" fill="#e4cec0"/>
          </g>
        </g>
      </g>
      <g id="Group_6679" data-name="Group 6679">
        <g id="Group_6678" data-name="Group 6678">
          <g id="Group_6677" data-name="Group 6677">
            <path id="Path_2415" data-name="Path 2415" d="M527.614,1437.179s-1.311,6.338,1.894,9.762l3.775-1.258Z" fill="#666"/>
          </g>
        </g>
      </g>
      <g id="Group_6682" data-name="Group 6682">
        <g id="Group_6681" data-name="Group 6681">
          <g id="Group_6680" data-name="Group 6680">
            <path id="Path_2416" data-name="Path 2416" d="M554.066,1446.941c3.205-3.424,1.894-9.762,1.894-9.762h0l-5.669,8.5Z" fill="#666"/>
          </g>
        </g>
      </g>
      <g id="Group_6685" data-name="Group 6685">
        <g id="Group_6684" data-name="Group 6684">
          <g id="Group_6683" data-name="Group 6683">
            <path id="Path_2417" data-name="Path 2417" d="M557.378,1452.769a8.754,8.754,0,0,0-3.714-5.432c.142-.126.275-.259.4-.4l-3.775-1.258,5.669-8.5-9.542,7.422a32.088,32.088,0,0,0-9.262,0l-9.542-7.422,5.669,8.5-3.775,1.258c.128.137.26.27.4.4a8.749,8.749,0,0,0-3.713,5.432c6.539-6.6,11.338-2.834,11.338-2.834l-5.669,2.834s7.166-.731,9.921,5.67c2.755-6.4,9.921-5.67,9.921-5.67l-5.669-2.834S550.838,1446.167,557.378,1452.769Z" fill="#985c4c"/>
          </g>
        </g>
      </g>
      <g id="Group_6688" data-name="Group 6688">
        <g id="Group_6687" data-name="Group 6687">
          <g id="Group_6686" data-name="Group 6686">
            <line id="Line_4" data-name="Line 4" y2="5.669" transform="translate(541.787 1488.202)" fill="#e4cec0"/>
          </g>
        </g>
      </g>
      <g id="Group_6691" data-name="Group 6691">
        <g id="Group_6690" data-name="Group 6690">
          <g id="Group_6689" data-name="Group 6689">
            <line id="Line_5" data-name="Line 5" y2="5.669" transform="translate(536.118 1481.116)" fill="#e4cec0"/>
          </g>
        </g>
      </g>
      <g id="Group_6694" data-name="Group 6694">
        <g id="Group_6693" data-name="Group 6693">
          <g id="Group_6692" data-name="Group 6692">
            <line id="Line_6" data-name="Line 6" y2="5.669" transform="translate(547.456 1482.533)" fill="#e4cec0"/>
          </g>
        </g>
      </g>
      <g id="Group_6697" data-name="Group 6697">
        <g id="Group_6696" data-name="Group 6696">
          <g id="Group_6695" data-name="Group 6695">
            <line id="Line_7" data-name="Line 7" y2="5.669" transform="translate(547.456 1495.289)" fill="#e4cec0"/>
          </g>
        </g>
      </g>
      <g id="Group_6700" data-name="Group 6700">
        <g id="Group_6699" data-name="Group 6699">
          <g id="Group_6698" data-name="Group 6698">
            <path id="Path_2418" data-name="Path 2418" d="M573.069,1515.232a14.176,14.176,0,0,1-5.135,3.286c.495.56.782.866.782.866l4.826,4.825a14.181,14.181,0,0,0,5.2-3.307Z" fill="#be8a66"/>
          </g>
        </g>
      </g>
      <g id="Group_6703" data-name="Group 6703">
        <g id="Group_6702" data-name="Group 6702">
          <g id="Group_6701" data-name="Group 6701">
            <path id="Path_2419" data-name="Path 2419" d="M553.015,1495.178c3.306,8.357,8.877,16,12.417,20.374a14.182,14.182,0,0,0,4.8-3.154Z" fill="#be8a66"/>
          </g>
        </g>
      </g>
      <g id="Group_6706" data-name="Group 6706">
        <g id="Group_6705" data-name="Group 6705">
          <g id="Group_6704" data-name="Group 6704">
            <path id="Path_2420" data-name="Path 2420" d="M581.573,1523.736l-2.835-2.834a14.181,14.181,0,0,1-5.2,3.307l1.316,1.316,1.518,1.519A14.177,14.177,0,0,0,581.573,1523.736Z" fill="#985c4c"/>
          </g>
        </g>
      </g>
      <g id="Group_6709" data-name="Group 6709">
        <g id="Group_6708" data-name="Group 6708">
          <g id="Group_6707" data-name="Group 6707">
            <path id="Path_2421" data-name="Path 2421" d="M573.069,1515.232l-2.835-2.834a14.182,14.182,0,0,1-4.8,3.154c1.051,1.3,1.922,2.311,2.5,2.966A14.176,14.176,0,0,0,573.069,1515.232Z" fill="#985c4c"/>
          </g>
        </g>
      </g>
      <g id="Group_6712" data-name="Group 6712">
        <g id="Group_6711" data-name="Group 6711">
          <g id="Group_6710" data-name="Group 6710">
            <path id="Path_2422" data-name="Path 2422" d="M584.88,1535.548l7.931,7.93s1.417-1.94,1.417-7.087l-4.151-4.151A14.188,14.188,0,0,1,584.88,1535.548Z" fill="#be8a66"/>
          </g>
        </g>
      </g>
      <g id="Group_6715" data-name="Group 6715">
        <g id="Group_6714" data-name="Group 6714">
          <g id="Group_6713" data-name="Group 6713">
            <path id="Path_2423" data-name="Path 2423" d="M581.573,1523.736a14.177,14.177,0,0,1-5.2,3.308l5.67,5.669a14.181,14.181,0,0,0,5.2-3.307Z" fill="#be8a66"/>
          </g>
        </g>
      </g>
      <g id="Group_6718" data-name="Group 6718">
        <g id="Group_6717" data-name="Group 6717">
          <g id="Group_6716" data-name="Group 6716">
            <path id="Path_2424" data-name="Path 2424" d="M590.077,1532.24l-2.835-2.834a14.181,14.181,0,0,1-5.2,3.307l2.834,2.835A14.188,14.188,0,0,0,590.077,1532.24Z" fill="#985c4c"/>
          </g>
        </g>
      </g>
      <g id="Group_6721" data-name="Group 6721">
        <g id="Group_6720" data-name="Group 6720">
          <g id="Group_6719" data-name="Group 6719">
            <path id="Path_2425" data-name="Path 2425" d="M578.738,1520.9a14.187,14.187,0,0,0,3.308-5.2l-5.67-5.669a14.181,14.181,0,0,1-3.307,5.2Z" fill="#be8a66"/>
          </g>
        </g>
      </g>
      <g id="Group_6724" data-name="Group 6724">
        <g id="Group_6723" data-name="Group 6723">
          <g id="Group_6722" data-name="Group 6722">
            <path id="Path_2426" data-name="Path 2426" d="M587.242,1529.406a14.186,14.186,0,0,0,3.308-5.2l-5.67-5.669a14.181,14.181,0,0,1-3.307,5.2Z" fill="#be8a66"/>
          </g>
        </g>
      </g>
      <g id="Group_6727" data-name="Group 6727">
        <g id="Group_6726" data-name="Group 6726">
          <g id="Group_6725" data-name="Group 6725">
            <path id="Path_2427" data-name="Path 2427" d="M587.242,1529.406l2.835,2.834a14.181,14.181,0,0,0,3.307-5.2l-2.834-2.835A14.186,14.186,0,0,1,587.242,1529.406Z" fill="#985c4c"/>
          </g>
        </g>
      </g>
      <g id="Group_6730" data-name="Group 6730">
        <g id="Group_6729" data-name="Group 6729">
          <g id="Group_6728" data-name="Group 6728">
            <path id="Path_2428" data-name="Path 2428" d="M578.738,1520.9l2.835,2.834a14.181,14.181,0,0,0,3.307-5.2l-2.834-2.835A14.187,14.187,0,0,1,578.738,1520.9Z" fill="#985c4c"/>
          </g>
        </g>
      </g>
      <g id="Group_6733" data-name="Group 6733">
        <g id="Group_6732" data-name="Group 6732">
          <g id="Group_6731" data-name="Group 6731">
            <path id="Path_2429" data-name="Path 2429" d="M598.421,1532.081l-5.037-5.037a14.181,14.181,0,0,1-3.307,5.2l4.151,4.151h4.252Q598.48,1534.192,598.421,1532.081Z" fill="#be8a66"/>
          </g>
        </g>
      </g>
      <g id="Group_6736" data-name="Group 6736">
        <g id="Group_6735" data-name="Group 6735">
          <g id="Group_6734" data-name="Group 6734">
            <path id="Path_2430" data-name="Path 2430" d="M570.234,1512.4l2.835,2.834a14.181,14.181,0,0,0,3.307-5.2l-2.834-2.835A14.187,14.187,0,0,1,570.234,1512.4Z" fill="#985c4c"/>
          </g>
        </g>
      </g>
      <g id="Group_6739" data-name="Group 6739">
        <g id="Group_6738" data-name="Group 6738">
          <g id="Group_6737" data-name="Group 6737">
            <path id="Path_2431" data-name="Path 2431" d="M573.542,1507.2l-5.373-5.372c-14.032-7.552-17.878-19.3-17.878-19.3a34.905,34.905,0,0,0,2.724,12.645l17.219,17.22A14.187,14.187,0,0,0,573.542,1507.2Z" fill="#be8a66"/>
          </g>
        </g>
      </g>
      <g id="Group_6742" data-name="Group 6742">
        <g id="Group_6741" data-name="Group 6741">
          <g id="Group_6740" data-name="Group 6740">
            <path id="Path_2432" data-name="Path 2432" d="M541.787,1458.439c-.463,0-1.664,5.669-2.835,5.669,1.58,2.639,1.673,5.669,2.835,5.669s1.255-3.03,2.835-5.669C543.451,1464.108,542.25,1458.439,541.787,1458.439Z" fill="#666"/>
          </g>
        </g>
      </g>
      <g id="Group_6745" data-name="Group 6745">
        <g id="Group_6744" data-name="Group 6744">
          <g id="Group_6743" data-name="Group 6743">
            <path id="Path_2433" data-name="Path 2433" d="M563.047,1536.391h0v2.834l-5.669-4.252-.25.167-4,2.668s-2.99,1.607,0,4.252c0,0,1.721,1.417,2.834,1.417,0,0-.486,2.835,2.835,2.835a7.568,7.568,0,0,1,.218-1.747c.294-1.181.987-2.528,2.617-2.528a2.952,2.952,0,0,1,3.008,2.311,3.612,3.612,0,0,1,.119.591s2.435.051,2.537-5.363Z" fill="#b3b3b3"/>
          </g>
        </g>
      </g>
      <g id="Group_6748" data-name="Group 6748">
        <g id="Group_6747" data-name="Group 6747">
          <g id="Group_6746" data-name="Group 6746">
            <line id="Line_8" data-name="Line 8" y1="7.087" x2="2.835" transform="translate(555.96 1536.391)" fill="#b3b3b3"/>
          </g>
        </g>
      </g>
      <g id="Group_6751" data-name="Group 6751">
        <g id="Group_6750" data-name="Group 6750">
          <g id="Group_6749" data-name="Group 6749">
            <path id="Path_2434" data-name="Path 2434" d="M555.96,1513.714l-2.923.975-1.329.442s-4.243,1.432-2.834,5.67a6.218,6.218,0,0,0,5.669,4.252l-2.835-2.835s.044-1.212,2.425-2.051a17.745,17.745,0,0,1,5.514-.777c.185,0,.371-.006.565-.006l-4.252-5.67Z" fill="#b3b3b3"/>
          </g>
        </g>
      </g>
      <g id="Group_6754" data-name="Group 6754">
        <g id="Group_6753" data-name="Group 6753">
          <g id="Group_6752" data-name="Group 6752">
            <circle id="Ellipse_165" data-name="Ellipse 165" cx="2.835" cy="2.835" r="2.835" transform="translate(546.039 1454.187)" fill="#fda654"/>
          </g>
        </g>
      </g>
      <g id="Group_6757" data-name="Group 6757">
        <g id="Group_6756" data-name="Group 6756">
          <g id="Group_6755" data-name="Group 6755">
            <circle id="Ellipse_166" data-name="Ellipse 166" cx="2.835" cy="2.835" r="2.835" transform="translate(531.866 1454.187)" fill="#fda654"/>
          </g>
        </g>
      </g>
    </g>
    <g id="Group_6759" data-name="Group 6759">
      <path id="Path_2435" data-name="Path 2435" d="M541.787,1487.453a.75.75,0,0,0-.75.75v5.669a.75.75,0,0,0,1.5,0V1488.2A.75.75,0,0,0,541.787,1487.453Z" fill="#1a1a1a"/>
      <path id="Path_2436" data-name="Path 2436" d="M536.118,1480.366a.75.75,0,0,0-.75.75v5.669a.75.75,0,0,0,1.5,0v-5.669A.75.75,0,0,0,536.118,1480.366Z" fill="#1a1a1a"/>
      <path id="Path_2437" data-name="Path 2437" d="M547.457,1481.783a.75.75,0,0,0-.75.75v5.67a.75.75,0,0,0,1.5,0v-5.67A.75.75,0,0,0,547.457,1481.783Z" fill="#1a1a1a"/>
      <path id="Path_2438" data-name="Path 2438" d="M547.457,1494.539a.75.75,0,0,0-.75.75v5.669a.75.75,0,0,0,1.5,0v-5.669A.75.75,0,0,0,547.457,1494.539Z" fill="#1a1a1a"/>
      <path id="Path_2439" data-name="Path 2439" d="M599.17,1532.061a124.3,124.3,0,0,0-2.872-24.184c-6.4-28.037-21.79-38.644-30.176-38.84-.669-.468-3.555-2.734-5.194-7.987-.023-.075-2.079-6.655-2.809-8.393a9.237,9.237,0,0,0-3.344-5.4c2.952-3.391,2.161-8.888,1.927-10.117a.767.767,0,0,0-.033-.17c-.012-.055-.019-.086-.021-.09s-.007-.007-.01-.012a.744.744,0,0,0-.167-.239.531.531,0,0,0-.051-.032.611.611,0,0,0-.069-.044.744.744,0,0,0-.287-.108c-.013,0-.023-.012-.037-.013h-.022c-.016,0-.031,0-.047,0a.724.724,0,0,0-.2.026l-.048.015a.716.716,0,0,0-.189.1c-.007.005-.016.006-.023.012l-.029.022,0,0-9.258,7.2a33.308,33.308,0,0,0-8.847,0l-9.289-7.224a.4.4,0,0,0-.037-.02.715.715,0,0,0-.171-.089.689.689,0,0,0-.088-.023.74.74,0,0,0-.148-.019.632.632,0,0,0-.1,0c-.021,0-.042,0-.063,0a.624.624,0,0,0-.086.031c-.028.009-.056.017-.084.029a.731.731,0,0,0-.16.1c-.012.01-.026.014-.038.024l-.006.008a.756.756,0,0,0-.146.2.571.571,0,0,0-.025.069.755.755,0,0,0-.047.126c-.055.269-1.3,6.535,1.92,10.23a9.311,9.311,0,0,0-3.34,5.37c-.2.815-2.86,12.649,4.242,21.66a44.4,44.4,0,0,0,21.693,36.01l.778,3.889-.7.235a5.059,5.059,0,0,0-3.306,6.617,6.933,6.933,0,0,0,6.333,4.763l1.8,8.994-3.562,2.374a3.379,3.379,0,0,0-1.668,2.324,3.719,3.719,0,0,0,1.585,3.147,8.445,8.445,0,0,0,2.547,1.465,3.159,3.159,0,0,0,.7,1.83,3.577,3.577,0,0,0,2.851,1.124l2.148,10.739a.75.75,0,1,0,1.471-.294l-2.579-12.9c.027-.1.057-.186.087-.273s.064-.2.1-.283.087-.177.131-.259.074-.147.113-.208a2.128,2.128,0,0,1,.146-.189c.04-.049.079-.1.119-.145a1.769,1.769,0,0,1,.155-.131c.04-.031.079-.068.118-.094a1.714,1.714,0,0,1,.158-.083c.036-.017.073-.039.107-.053a1.484,1.484,0,0,1,.155-.045c.029-.007.061-.019.089-.025a1.42,1.42,0,0,1,.148-.018c.019,0,.042-.007.06-.008.061,0,.115,0,.157,0a2.814,2.814,0,0,1,.81.11,2.011,2.011,0,0,1,.232.117,1.988,1.988,0,0,1,.419.213,1.967,1.967,0,0,1,.2.218,2.032,2.032,0,0,1,.294.33,2.744,2.744,0,0,1,.132.3,2.889,2.889,0,0,1,.2.465l2.652,13.255a.749.749,0,0,0,.734.6.821.821,0,0,0,.148-.014.749.749,0,0,0,.588-.883l-2.407-12.036a2.876,2.876,0,0,0,.781-.538,6.283,6.283,0,0,0,1.543-3.923l.315.237a.751.751,0,0,0,.45.15.737.737,0,0,0,.336-.08.748.748,0,0,0,.414-.67v-4.92h3.5a.75.75,0,0,0,.75-.75v-5.492l1.346-2.691.782.783,5.669,5.669,2.835,2.835,7.93,7.93a.751.751,0,0,0,.531.22l.057,0a.75.75,0,0,0,.548-.306c.061-.083,1.417-2,1.549-6.779h3.515a.75.75,0,0,0,.75-.75C599.23,1534.975,599.21,1533.518,599.17,1532.061Zm-7.1-3.86c-.2.4-.418.788-.656,1.165-.053.084-.113.163-.168.245q-.289.44-.611.855c-.092.118-.188.232-.284.347s-.2.224-.3.337l-.9-.9-.862-.862c.144-.16.277-.33.414-.5.074-.089.151-.175.223-.266q.447-.566.839-1.173c.055-.086.1-.175.158-.262q.311-.5.579-1.03c.062-.12.124-.24.182-.362.043-.089.092-.175.133-.265l1.679,1.68c-.091.227-.184.455-.289.678C592.16,1528,592.118,1528.1,592.068,1528.2Zm-12.271-3.907c-.273.212-.556.412-.845.6-.086.057-.168.12-.256.175-.376.237-.765.455-1.162.654-.1.05-.2.091-.3.139-.224.1-.452.2-.681.29l-1.679-1.679c.091-.042.178-.092.267-.135.12-.057.238-.118.356-.178q.531-.271,1.039-.585c.084-.052.171-.1.254-.153q.61-.393,1.179-.843c.088-.069.171-.143.257-.215.168-.139.341-.273.5-.419l1.758,1.758c-.113.1-.222.2-.338.3S579.915,1524.2,579.8,1524.294Zm9.437,1.071q-.3.6-.656,1.166c-.054.085-.116.166-.171.25-.192.29-.394.574-.607.848-.093.119-.19.235-.287.351s-.2.223-.3.335l-4.593-4.592c.147-.163.282-.336.422-.505.07-.085.143-.167.211-.254q.452-.57.845-1.181c.053-.082.1-.167.151-.251q.315-.508.586-1.041c.061-.119.122-.236.179-.356.043-.09.093-.176.134-.267l4.514,4.514c-.093.231-.187.461-.294.687C589.322,1525.167,589.283,1525.268,589.234,1525.365Zm-5.67-5.668c-.2.4-.418.788-.656,1.165-.053.084-.113.163-.167.246-.194.292-.4.578-.612.854-.092.118-.188.232-.283.347s-.2.225-.3.337l-.9-.9-.863-.862c.144-.16.277-.33.415-.5.073-.09.15-.176.222-.266.3-.378.579-.769.839-1.174.055-.086.105-.175.158-.262q.31-.5.579-1.03c.062-.12.124-.24.182-.362.043-.089.092-.175.133-.265l1.679,1.68c-.091.228-.184.455-.289.678C583.656,1519.492,583.614,1519.6,583.564,1519.7Zm-6.6,1.761c-.277.215-.563.418-.856.612-.082.054-.16.114-.243.166-.378.239-.769.458-1.168.658-.1.048-.2.088-.294.134-.226.106-.457.2-.689.293l-4.451-4.451-.059-.063c.1-.045.194-.1.291-.147.126-.06.25-.123.374-.188q.522-.269,1.022-.579c.082-.051.166-.1.247-.149.4-.259.788-.539,1.163-.835.093-.074.182-.153.274-.229.161-.133.326-.261.48-.4l2.241,2.241,2.352,2.352c-.112.1-.221.205-.337.3S577.082,1521.366,576.964,1521.458Zm-24.743-30.978q-.245-.882-.439-1.744c-.041-.182-.074-.364-.112-.546-.088-.424-.171-.846-.24-1.262-.013-.078-.023-.156-.035-.234a40.578,40.578,0,0,0,16.322,15.742l.015.016,4.922,4.922c-.093.231-.187.462-.293.688-.047.1-.086.2-.135.3q-.3.6-.656,1.166c-.054.085-.116.166-.171.251-.192.289-.393.573-.607.848-.093.119-.19.234-.287.35s-.2.223-.3.335l-13.762-13.762-2.764-2.764c-.105-.264-.206-.529-.306-.8-.089-.24-.177-.479-.261-.717q-.181-.507-.349-1.015c-.112-.343-.215-.683-.317-1.023C552.371,1490.981,552.291,1490.731,552.221,1490.48Zm28.509,26.381q-.3.6-.656,1.166c-.054.085-.116.166-.171.25-.192.29-.393.574-.607.848-.093.119-.19.235-.287.351s-.2.223-.3.335l-2.352-2.351-2.241-2.241c.145-.161.278-.331.415-.5.074-.089.15-.175.222-.265q.447-.567.84-1.175c.054-.085.1-.172.155-.258.209-.338.4-.685.585-1.038.059-.117.119-.233.176-.351.043-.091.094-.178.135-.27l4.514,4.514c-.093.231-.187.462-.293.688C580.818,1516.663,580.779,1516.764,580.73,1516.861Zm-9.449-4.477c.145-.16.277-.331.415-.5.074-.089.15-.175.222-.265q.447-.568.84-1.176c.054-.083.1-.171.154-.255q.313-.508.584-1.038c.061-.119.122-.236.179-.356.043-.09.093-.177.134-.267l1.68,1.679c-.093.229-.186.458-.291.682-.047.1-.088.2-.138.3q-.3.6-.655,1.165c-.054.086-.116.167-.172.252-.192.289-.393.573-.606.847-.093.119-.19.234-.286.35s-.2.224-.3.336l-.9-.9Zm-4.37-2.25,2.236,2.237c-.1.088-.193.18-.294.265s-.2.169-.3.25q-.4.318-.824.6c-.06.041-.117.086-.178.125-.343.224-.7.43-1.062.622-.1.052-.2.1-.3.147-.173.085-.352.162-.529.241a88.541,88.541,0,0,1-10.325-16.066Zm.02,5.558q.171-.087.34-.178.5-.269.983-.575c.065-.042.133-.08.2-.123.373-.247.733-.513,1.083-.793.091-.073.178-.151.268-.226.139-.117.282-.229.418-.352l.863.862.9.9c-.111.1-.217.2-.331.3s-.224.188-.339.278c-.277.217-.565.422-.859.616-.075.05-.147.106-.223.154-.371.236-.754.451-1.146.649-.1.053-.212.1-.318.148-.2.1-.412.182-.621.268-.41-.472-.915-1.066-1.5-1.772C566.743,1515.794,566.835,1515.74,566.931,1515.692Zm26.984,10.821-1.66-1.659-6.289-6.289-.555-.556-.128-.128-13.489-13.488a58.838,58.838,0,0,0,20.135,4.31c.3.014.613.015.916.026.7.025,1.405.056,2.121.062a121.58,121.58,0,0,1,2.642,21.416Zm-13.191-47.623c4.392,4.719,10.323,13.45,13.892,28.379-.622-.008-1.237-.025-1.849-.048-.423-.016-.859-.022-1.275-.045-.984-.055-1.951-.135-2.909-.228-.668-.066-1.314-.148-1.959-.232-.561-.071-1.124-.14-1.675-.225-.647-.1-1.272-.219-1.895-.337-.377-.071-.753-.142-1.125-.219q-1.02-.215-2-.456c-.258-.064-.511-.132-.766-.2a50.78,50.78,0,0,1-6.381-2.13c-.128-.052-.258-.1-.385-.157q-.941-.4-1.824-.815c-.191-.09-.378-.186-.568-.279a43.269,43.269,0,0,1-6.38-3.818c-.128-.094-.254-.188-.38-.283-.238-.177-.468-.354-.7-.532a36.808,36.808,0,0,1-11.342-14.421l-.008-.019c-.04-.1-.072-.183-.1-.256l-.056-.149c0-.124.013-.247.019-.371.011-.219.02-.439.045-.658.014-.126.04-.25.059-.375.035-.231.071-.463.123-.694.028-.123.065-.245.1-.367.059-.225.12-.449.194-.672.048-.142.1-.282.158-.423.072-.191.147-.381.231-.569s.167-.352.257-.525c.071-.139.143-.278.22-.415.122-.215.251-.427.389-.635.054-.084.11-.168.167-.251.171-.246.35-.488.542-.724l.091-.11c.221-.265.452-.524.7-.774l.01-.011a12.861,12.861,0,0,1,1.082-.977l.009-.007a16.528,16.528,0,0,1,10.443-3.336C569.295,1470.527,574.987,1472.724,580.724,1478.89Zm-26.9-32.82-2.366-.788,3.989-5.984C555.55,1441.206,555.387,1444.093,553.826,1446.07Zm-25.7-6.772,3.988,5.984-2.366.788C528.188,1444.093,528.024,1441.206,528.126,1439.3Zm2.226,8.645a.748.748,0,0,0,.307-.569v-.026l2.861-.954a.749.749,0,0,0,.386-1.127l-3.1-4.659,5.894,4.584a.752.752,0,0,0,.575.15,31.438,31.438,0,0,1,9.032,0,.753.753,0,0,0,.575-.15l5.9-4.584-3.106,4.659a.75.75,0,0,0,.387,1.127l2.86.953v.026a.747.747,0,0,0,.307.57,9.614,9.614,0,0,1,2.178,2.169c-.279-.193-.554-.364-.825-.524-.068-.04-.134-.079-.2-.116-.249-.141-.495-.273-.737-.388-.088-.043-.173-.077-.26-.116-.144-.064-.287-.126-.428-.181s-.283-.11-.421-.159l-.032-.01a8.52,8.52,0,0,0-3.283-.491,6.873,6.873,0,0,0-3.609,1.2l-.028.021a.749.749,0,0,0,.128,1.26l3.185,1.593a10.112,10.112,0,0,0-7.1,4.608,10.113,10.113,0,0,0-7.1-4.608l3.186-1.593a.75.75,0,0,0,.127-1.26l-.029-.022a6.883,6.883,0,0,0-3.608-1.2,8.551,8.551,0,0,0-3.174.457c-.058.019-.114.036-.172.056-.119.042-.24.088-.362.136q-.257.1-.517.219c-.06.028-.119.05-.18.079-.252.12-.509.258-.769.405l-.176.1c-.275.162-.553.335-.837.53A9.633,9.633,0,0,1,530.352,1447.943Zm18.522,6.993a2.085,2.085,0,1,1-2.085,2.085A2.087,2.087,0,0,1,548.874,1454.936Zm-7.2,5.629.113-.33c.039.114.077.224.112.328a12.106,12.106,0,0,0,1.724,3.8,20.076,20.076,0,0,0-1.15,2.917,7.878,7.878,0,0,1-.686,1.7,7.854,7.854,0,0,1-.686-1.7,19.959,19.959,0,0,0-1.15-2.917A12.093,12.093,0,0,0,541.674,1460.565Zm-4.889-3.544a2.084,2.084,0,1,1-2.085-2.085A2.087,2.087,0,0,1,536.785,1457.021Zm-10.441,2.468c1.185,6,3.86,13.85,9.748,13.873.052,0,.155.008.3.008a6.633,6.633,0,0,0,4.5-1.638.75.75,0,1,0-1.045-1.076,5.351,5.351,0,0,1-3.672,1.208.555.555,0,0,0-.057,0c-4.044,0-6.318-5.086-7.513-9.353a53.207,53.207,0,0,1-1.635-9.442c.08-.078.159-.154.239-.228.12-.114.241-.231.359-.337s.262-.225.392-.334.235-.2.35-.292c.13-.1.256-.194.384-.288.112-.083.225-.171.336-.247.127-.088.251-.166.376-.246.107-.069.215-.142.321-.2.124-.075.246-.139.368-.206.1-.056.2-.116.3-.166.122-.062.241-.114.361-.169.095-.043.192-.091.286-.131.121-.05.238-.091.356-.134.088-.033.178-.069.264-.1.12-.04.237-.071.354-.1.079-.022.16-.048.238-.067.119-.03.233-.051.348-.073.072-.015.146-.033.217-.044.12-.02.235-.032.35-.045.061-.007.124-.018.183-.023.119-.01.233-.013.348-.017.051,0,.106-.007.156-.007.121,0,.236,0,.35.009.04,0,.082,0,.121,0,.118.008.229.021.339.035l.1.01c.123.017.239.038.353.061.016,0,.035.005.051.009.113.023.221.05.325.078l.045.011c.117.033.228.068.332.1l-4.346,2.173a.75.75,0,0,0,.41,1.417,9.764,9.764,0,0,1,1.868.047,3.592,3.592,0,1,0,3.538,1.06,8.113,8.113,0,0,1,3.563,3.736,14.86,14.86,0,0,0-.654,1.721,13.159,13.159,0,0,1-1.423,3.288.749.749,0,0,0-.523,1.125,15.819,15.819,0,0,1,1.367,3.259c.492,1.489.916,2.775,2.111,2.775s1.619-1.286,2.111-2.775a15.815,15.815,0,0,1,1.367-3.259.749.749,0,0,0-.523-1.125,13.116,13.116,0,0,1-1.423-3.289,14.9,14.9,0,0,0-.654-1.72,8.116,8.116,0,0,1,3.563-3.735,3.58,3.58,0,1,0,3.539-1.061,9.931,9.931,0,0,1,1.865-.047.75.75,0,0,0,.411-1.417l-4.331-2.166c1.454-.487,4.122-.725,7.471,1.883.025.019.048.035.072.054.167.131.337.279.507.424.085.073.168.14.253.216.135.12.272.255.409.385.06.057.12.113.18.172a53.207,53.207,0,0,1-1.635,9.442c-1.2,4.267-3.469,9.353-7.513,9.353a.557.557,0,0,0-.057,0,5.3,5.3,0,0,1-3.672-1.208.75.75,0,1,0-1.045,1.076,6.633,6.633,0,0,0,4.5,1.638c.146,0,.249-.005.3-.008,7.077-.028,9.513-11.361,10.3-17.192.433,1.29,1,3.031,1.717,5.327a18.21,18.21,0,0,0,4.409,7.616,16.577,16.577,0,0,0-10.594,4.641c-.141.1-.3.2-.45.3-.174.114-.339.227-.525.341s-.376.218-.564.327-.38.227-.586.338-.432.217-.649.325-.411.213-.631.315-.485.2-.728.3c-.226.093-.441.193-.676.281-.264.1-.548.183-.823.274-.233.076-.456.161-.7.23-.3.087-.625.154-.941.229-.231.054-.452.12-.689.166-.365.072-.749.117-1.128.168-.2.028-.4.069-.606.09a18.235,18.235,0,0,1-1.832.092c-7.86,0-10.7-3.891-10.721-3.927a.555.555,0,0,0-.035-.046A22.934,22.934,0,0,1,526.344,1459.489Zm26.779,51.8.021.011c.957.52,1.948,1.015,2.961,1.487.036.017.069.036.105.052l-2.108.7-.5.165Zm6.8,3.116.341.143c.126.458.269.9.419,1.329.044.125.091.247.137.369.119.319.245.628.378.931.05.112.1.227.149.337.18.386.368.762.571,1.119h-1.328l-2.61-3.48-.793-1.057,1.071-.357.491.2c.118.047.246.1.357.145C559.393,1514.2,559.665,1514.308,559.921,1514.406Zm3.638,6.53-2.028,4.054-.971-4.856h2.346C563.121,1520.419,563.337,1520.69,563.559,1520.936Zm-6.077,12.152L555,1520.7c.094-.026.18-.055.279-.079s.211-.051.32-.074q.418-.09.882-.16c.085-.013.163-.028.25-.04q.6-.081,1.264-.13c.108-.008.225-.012.337-.019.225-.014.464-.021.7-.029l1.4,7.009-1.729,3.457Zm-7.9-12.524a3.6,3.6,0,0,1,2.36-4.721l1.329-.443h0l.84-.28,1.571-.523,3.052,4.069c-.153.007-.289.022-.437.031-.217.013-.43.027-.637.044-.3.025-.588.057-.87.092-.186.023-.374.044-.551.071-.295.045-.571.1-.842.155-.139.029-.286.053-.419.085a11.248,11.248,0,0,0-1.1.315c-2.781.981-2.918,2.556-2.924,2.732a.745.745,0,0,0,.219.557l.819.82A5.221,5.221,0,0,1,549.585,1520.564Zm2.994,1.464a2.66,2.66,0,0,1,1-.807l.452,2.259Zm1.044,19.47c-.529-.466-1.143-1.163-1.07-1.827a1.876,1.876,0,0,1,.928-1.2c.021-.011.041-.023.061-.036l3.81-2.54.642.481-2.5,6.251A7.443,7.443,0,0,1,553.623,1541.5Zm11.667,2.419c-.025-.075-.06-.141-.088-.214-.038-.1-.075-.194-.118-.286s-.1-.2-.16-.3-.1-.169-.148-.247-.133-.178-.2-.263-.112-.143-.174-.208c-.076-.08-.161-.151-.244-.223-.065-.057-.127-.117-.2-.168a3.28,3.28,0,0,0-.286-.182c-.072-.043-.14-.091-.215-.129a3.43,3.43,0,0,0-.336-.138c-.074-.029-.145-.063-.222-.087a3.837,3.837,0,0,0-.408-.094c-.068-.013-.133-.034-.2-.044a4.556,4.556,0,0,0-.66-.047,3.2,3.2,0,0,0-1.152.2,3.836,3.836,0,0,0-2.192,2.893,8.376,8.376,0,0,0-.195,1.12,1.736,1.736,0,0,1-1.042-.529,1.852,1.852,0,0,1-.354-1.312l2.543-6.358,3.36,2.52a.75.75,0,0,0,1.2-.6v-1.334l2.736,2.051C566.427,1542.484,565.771,1543.507,565.29,1543.917Zm7.007-14.948a.764.764,0,0,0-.079.336v4.919h-3.5a.75.75,0,0,0-.75.75v4.17l-.221-.167h0l-4.247-3.186a.754.754,0,0,0-.2-.1.572.572,0,0,0-.072-.017.8.8,0,0,0-.147-.024c-.01,0-.02,0-.03,0s-.022.007-.033.007a.73.73,0,0,0-.717.743v1.334l-3.969-2.976,3.568-7.134v0l3.239-6.478a.749.749,0,0,0-.14-.866,10.037,10.037,0,0,1-1.1-1.321,15.436,15.436,0,0,1-2.273-5.135.754.754,0,0,0-.436-.505l-.7-.3c-.257-.1-.524-.2-.806-.315l-.312-.127-.5-.207a.782.782,0,0,0-.128-.095.758.758,0,0,0-.319-.1l-.16-.07c-.984-.422-1.949-.866-2.886-1.335l-.119-.062c-.962-.485-1.9-.991-2.8-1.52a42.915,42.915,0,0,1-21.154-33.267c.025.021.059.043.085.063.154.12.322.241.5.366.056.039.1.076.163.115.24.16.5.321.783.482.06.034.126.066.188.1.232.126.477.251.737.373.1.049.211.1.321.145.254.112.524.22.8.325.108.04.21.081.322.12.393.136.806.266,1.25.381.064.017.135.03.2.046q.578.144,1.212.258c.155.027.315.051.475.075.372.058.758.105,1.158.144.169.017.333.035.507.048.571.042,1.16.071,1.788.071.605,0,1.191-.037,1.769-.088.144-.013.286-.027.428-.043a20.619,20.619,0,0,0,3.229-.626c.125-.035.248-.071.372-.108a22.307,22.307,0,0,0,2.807-1.048c.1-.046.2-.093.3-.14s.215-.1.318-.146c-.038.069-.064.143-.1.214-.158.307-.3.617-.436.931-.07.168-.133.337-.2.506-.094.26-.179.521-.256.785-.055.189-.109.378-.155.57-.066.277-.115.554-.161.832-.028.169-.063.338-.083.509a11.422,11.422,0,0,0-.087,1.354c0,.482.016.97.043,1.463,0,.063.011.128.015.191q.042.669.116,1.35l.007.06c.587,5.226,2.64,11,6.134,17.259q.412.741.837,1.465l.021.036c.337.575.679,1.138,1.024,1.694l.033.054a97.31,97.31,0,0,0,6.015,8.581l.058.073c.222.283.439.558.655.827l.084.1c.088.11.179.226.266.333.113.14.215.262.324.395l.111.137c.886,1.079,1.616,1.926,2.089,2.459.286.324.495.555.633.7l.164.177.016.017,4.825,4.825.934.934Zm5.674-1.792c.12-.057.238-.118.357-.179q.531-.272,1.039-.584c.084-.052.17-.1.253-.153.406-.261.8-.543,1.178-.842.089-.071.174-.146.262-.219.167-.138.338-.271.5-.417l2.241,2.241,2.352,2.352c-.112.1-.221.205-.337.3s-.229.192-.347.284c-.277.215-.562.417-.854.611-.083.054-.162.115-.246.167-.377.238-.767.457-1.165.656-.1.051-.205.092-.306.14-.223.1-.45.2-.678.289l-4.514-4.514C577.795,1527.27,577.881,1527.22,577.971,1527.177Zm5.67,5.669c.12-.057.238-.118.356-.178q.531-.271,1.039-.585c.084-.052.171-.1.254-.153q.611-.393,1.179-.843c.088-.069.171-.144.257-.215.168-.139.341-.273.5-.419l1.758,1.758c-.112.1-.22.2-.335.3s-.232.194-.351.287c-.275.213-.558.414-.848.606-.085.056-.165.118-.251.172-.377.238-.767.456-1.166.656-.1.048-.2.088-.3.135-.226.106-.456.2-.687.293l-1.679-1.68C583.465,1532.939,583.552,1532.889,583.641,1532.846Zm8.961,9.363-6.393-6.394c.089-.041.175-.09.264-.133.122-.058.242-.12.363-.182q.525-.268,1.029-.579c.087-.054.176-.1.262-.158q.607-.391,1.174-.84c.091-.071.177-.148.266-.222.166-.137.336-.27.5-.414l3.413,3.413A15.834,15.834,0,0,1,592.6,1542.209Zm1.937-6.568-3.415-3.414c.147-.163.282-.336.421-.505.071-.085.144-.167.212-.254.3-.38.583-.773.845-1.181.053-.082.1-.167.151-.251.21-.339.405-.687.586-1.041.061-.119.121-.236.179-.356.043-.09.093-.176.134-.267l4.027,4.027c.028,1.088.044,2.175.049,3.242Z" fill="#1a1a1a"/>
    </g>
  </g>
</svg>