<?xml version="1.0" encoding="utf-8"?>
<svg width="800px" height="800px" viewBox="0 -5.67 61.028 61.028" xmlns="http://www.w3.org/2000/svg">
  <g id="Group_7182" data-name="Group 7182" transform="translate(-1081.51 -155.472)">
    <g id="Group_7127" data-name="Group 7127">
      <g id="Group_7084" data-name="Group 7084">
        <g id="Group_7083" data-name="Group 7083">
          <g id="Group_7082" data-name="Group 7082">
            <path id="Path_2548" data-name="Path 2548" d="M1137.535,161.891s-1.717.285-2.835,2.835l2.36,1.18a7.7,7.7,0,0,1,3.31-2.6A5.594,5.594,0,0,0,1137.535,161.891Z" fill="#b3b3b3"/>
          </g>
        </g>
      </g>
      <g id="Group_7087" data-name="Group 7087">
        <g id="Group_7086" data-name="Group 7086">
          <g id="Group_7085" data-name="Group 7085">
            <path id="Path_2549" data-name="Path 2549" d="M1136.308,162.522a3.005,3.005,0,0,1,1.227-.631s-2.14-5.669-9.921-5.669a19.627,19.627,0,0,1-.21,2.5C1131.886,158.953,1134.63,160.607,1136.308,162.522Z" fill="#e6e6e6"/>
          </g>
        </g>
      </g>
      <g id="Group_7090" data-name="Group 7090">
        <g id="Group_7089" data-name="Group 7089">
          <g id="Group_7088" data-name="Group 7088">
            <path id="Path_2550" data-name="Path 2550" d="M1136.308,162.522c-1.678-1.915-4.422-3.569-8.9-3.8-.289,1.992-.978,4.664-2.625,6.007h9.921A5.625,5.625,0,0,1,1136.308,162.522Z" fill="#e6e6e6"/>
          </g>
        </g>
      </g>
      <g id="Group_7093" data-name="Group 7093">
        <g id="Group_7092" data-name="Group 7092">
          <g id="Group_7091" data-name="Group 7091">
            <path id="Path_2551" data-name="Path 2551" d="M1134.7,164.726l-4.377,4.931a15.5,15.5,0,0,0,5.8.738l.044.044c.077-2.182.293-3.525.9-4.533Z" fill="#e6e6e6"/>
          </g>
        </g>
      </g>
      <g id="Group_7096" data-name="Group 7096">
        <g id="Group_7095" data-name="Group 7095">
          <g id="Group_7094" data-name="Group 7094">
            <path id="Path_2552" data-name="Path 2552" d="M1124.779,164.726a8.837,8.837,0,0,0,5.544,4.931l4.377-4.931Z" fill="#be8a66"/>
          </g>
        </g>
      </g>
      <g id="Group_7099" data-name="Group 7099">
        <g id="Group_7098" data-name="Group 7098">
          <g id="Group_7097" data-name="Group 7097">
            <path id="Path_2553" data-name="Path 2553" d="M1082.259,184.569s1.476,2.251,7.087,1.417a143.642,143.642,0,0,0,14.525-3.529,35.263,35.263,0,0,1-3.186-2.14Z" fill="#985c4c"/>
          </g>
        </g>
      </g>
      <g id="Group_7102" data-name="Group 7102">
        <g id="Group_7101" data-name="Group 7101">
          <g id="Group_7100" data-name="Group 7100">
            <path id="Path_2554" data-name="Path 2554" d="M1129.318,173.271a10.14,10.14,0,0,1-3.122,4.211,14.147,14.147,0,0,1-5.669,2.152c-8,1.6-19.842.683-19.842.683a35.263,35.263,0,0,0,3.186,2.14c3.454,2.087,9.273,4.946,15.239,4.946a19.507,19.507,0,0,0,11.928-4.071c3.134-2.455,5.08-5.677,5.08-8.685A15.911,15.911,0,0,1,1129.318,173.271Z" fill="#e4cec0"/>
          </g>
        </g>
      </g>
      <g id="Group_7105" data-name="Group 7105">
        <g id="Group_7104" data-name="Group 7104">
          <g id="Group_7103" data-name="Group 7103">
            <path id="Path_2555" data-name="Path 2555" d="M1120.527,176.607a27.436,27.436,0,0,1-4.252-.542l-15.59,4.252s11.839.917,19.842-.683a14.147,14.147,0,0,0,5.669-2.152,10.14,10.14,0,0,0,3.122-4.211C1128,176.32,1123.808,176.766,1120.527,176.607Z" fill="#be8a66"/>
          </g>
        </g>
      </g>
      <g id="Group_7108" data-name="Group 7108">
        <g id="Group_7107" data-name="Group 7107">
          <g id="Group_7106" data-name="Group 7106">
            <path id="Path_2556" data-name="Path 2556" d="M1122.765,166.172c-.644.439-1.4.946-2.238,1.5-7.061,4.662-19.842,12.648-19.842,12.648l15.59-4.252a27.436,27.436,0,0,0,4.252.542c3.281.159,7.474-.287,8.791-3.336A13.016,13.016,0,0,1,1122.765,166.172Z" fill="#985c4c"/>
          </g>
        </g>
      </g>
      <g id="Group_7111" data-name="Group 7111">
        <g id="Group_7110" data-name="Group 7110">
          <g id="Group_7109" data-name="Group 7109">
            <path id="Path_2557" data-name="Path 2557" d="M1124.779,198.074a.75.75,0,0,1-.315-.069,3.049,3.049,0,0,1-1.812-3.755.61.61,0,0,1,.039-.1l1.082-2.164-7.833-3.917a.75.75,0,1,1,.671-1.342l8.5,4.252a.751.751,0,0,1,.336,1.007l-1.388,2.777a1.557,1.557,0,0,0,1.032,1.876.75.75,0,0,1-.315,1.43Z" fill="#7a7a7a"/>
          </g>
        </g>
      </g>
      <g id="Group_7114" data-name="Group 7114">
        <g id="Group_7113" data-name="Group 7113">
          <g id="Group_7112" data-name="Group 7112">
            <path id="Path_2558" data-name="Path 2558" d="M1110.606,200.159l31.181-15.591v4.252l-31.181,15.591Z" fill="#fda654"/>
          </g>
        </g>
      </g>
      <g id="Group_7117" data-name="Group 7117">
        <g id="Group_7116" data-name="Group 7116">
          <g id="Group_7115" data-name="Group 7115">
            <path id="Path_2559" data-name="Path 2559" d="M1126.2,192.4h-1.418a.75.75,0,0,1,0-1.5h1.418a.75.75,0,0,1,0,1.5Z" fill="#7a7a7a"/>
          </g>
        </g>
      </g>
      <g id="Group_7120" data-name="Group 7120">
        <g id="Group_7119" data-name="Group 7119">
          <g id="Group_7118" data-name="Group 7118">
            <path id="Path_2560" data-name="Path 2560" d="M1119.11,200.909a.722.722,0,0,1-.172-.02,2.629,2.629,0,0,1-1.782-1.255,3.435,3.435,0,0,1-.176-2.544.741.741,0,0,1,.042-.1l1.233-2.466-4.04-6.734a.75.75,0,0,1,1.286-.772l4.252,7.087a.751.751,0,0,1,.028.721l-1.389,2.777a1.928,1.928,0,0,0,.076,1.3,1.176,1.176,0,0,0,.813.523.75.75,0,0,1-.171,1.48Z" fill="#7a7a7a"/>
          </g>
        </g>
      </g>
      <g id="Group_7123" data-name="Group 7123">
        <g id="Group_7122" data-name="Group 7122">
          <g id="Group_7121" data-name="Group 7121">
            <path id="Path_2561" data-name="Path 2561" d="M1120.527,195.24h-1.417a.75.75,0,0,1,0-1.5h1.417a.75.75,0,0,1,0,1.5Z" fill="#7a7a7a"/>
          </g>
        </g>
      </g>
      <g id="Group_7126" data-name="Group 7126">
        <g id="Group_7125" data-name="Group 7125">
          <g id="Group_7124" data-name="Group 7124">
            <path id="Path_2562" data-name="Path 2562" d="M1136.118,170.4a15.5,15.5,0,0,1-5.8-.738,8.837,8.837,0,0,1-5.544-4.931c-.375.306-1.079.808-2.014,1.446a13.016,13.016,0,0,0,6.553,7.1,15.911,15.911,0,0,0,6.8,1.376c0-1.687,0-3.061.044-4.208Z" fill="#fda654"/>
          </g>
        </g>
      </g>
    </g>
    <g id="Group_7181" data-name="Group 7181">
      <g id="Group_7130" data-name="Group 7130">
        <g id="Group_7129" data-name="Group 7129">
          <g id="Group_7128" data-name="Group 7128">
            <path id="Path_2563" data-name="Path 2563" d="M1137.059,166.656a.75.75,0,0,1-.335-.08l-2.359-1.179a.751.751,0,0,1-.352-.972c1.267-2.89,3.313-3.259,3.4-3.273a.69.69,0,0,1,.279.006,6.339,6.339,0,0,1,3.232,1.645.75.75,0,0,1-.2,1.169,7.211,7.211,0,0,0-3.016,2.32A.751.751,0,0,1,1137.059,166.656Zm-1.352-2.266,1.112.557a7.779,7.779,0,0,1,2.166-1.729,5.688,5.688,0,0,0-1.436-.554A3.585,3.585,0,0,0,1135.707,164.39Z" fill="#1a1a1a"/>
          </g>
        </g>
      </g>
      <g id="Group_7135" data-name="Group 7135">
        <g id="Group_7132" data-name="Group 7132">
          <g id="Group_7131" data-name="Group 7131">
            <circle id="Ellipse_170" data-name="Ellipse 170" cx="0.709" cy="0.709" r="0.709" transform="translate(1131.866 161.891)" fill="#1a1a1a"/>
          </g>
        </g>
        <g id="Group_7134" data-name="Group 7134">
          <g id="Group_7133" data-name="Group 7133">
            <path id="Path_2564" data-name="Path 2564" d="M1132.574,163.809a1.209,1.209,0,1,1,1.209-1.209A1.21,1.21,0,0,1,1132.574,163.809Zm0-1.418a.209.209,0,1,0,.209.209A.209.209,0,0,0,1132.574,162.391Z" fill="#1a1a1a"/>
          </g>
        </g>
      </g>
      <g id="Group_7138" data-name="Group 7138">
        <g id="Group_7137" data-name="Group 7137">
          <g id="Group_7136" data-name="Group 7136">
            <path id="Path_2565" data-name="Path 2565" d="M1136.308,163.272a.749.749,0,0,1-.565-.256c-1.9-2.163-4.713-3.357-8.378-3.548a.75.75,0,0,1-.7-.856,19.308,19.308,0,0,0,.2-2.392.749.749,0,0,1,.75-.748c8.2,0,10.528,5.9,10.623,6.155a.75.75,0,0,1-.579,1h0a2.432,2.432,0,0,0-.884.479A.751.751,0,0,1,1136.308,163.272Zm-8.061-5.244a12.756,12.756,0,0,1,8.172,3.514l.085-.047c-.772-1.341-3.031-4.254-8.169-4.5C1128.318,157.275,1128.291,157.628,1128.247,158.028Z" fill="#1a1a1a"/>
          </g>
        </g>
      </g>
      <g id="Group_7141" data-name="Group 7141">
        <g id="Group_7140" data-name="Group 7140">
          <g id="Group_7139" data-name="Group 7139">
            <path id="Path_2566" data-name="Path 2566" d="M1134.7,165.476h-9.921a.75.75,0,0,1-.474-1.331c1.457-1.188,2.086-3.665,2.357-5.534a.756.756,0,0,1,.782-.641c4.084.214,7.255,1.579,9.427,4.058a.75.75,0,0,1-.1,1.081,4.937,4.937,0,0,0-1.387,1.918A.749.749,0,0,1,1134.7,165.476Zm-8.273-1.5h7.8a6.574,6.574,0,0,1,1.019-1.485,11.435,11.435,0,0,0-7.21-2.976A12.361,12.361,0,0,1,1126.427,163.976Z" fill="#1a1a1a"/>
          </g>
        </g>
      </g>
      <g id="Group_7144" data-name="Group 7144">
        <g id="Group_7143" data-name="Group 7143">
          <g id="Group_7142" data-name="Group 7142">
            <path id="Path_2567" data-name="Path 2567" d="M1136.161,171.189a.758.758,0,0,1-.211-.03,16.218,16.218,0,0,1-5.87-.793.751.751,0,0,1-.318-1.208l4.377-4.93a.752.752,0,0,1,.9-.173l2.359,1.18a.749.749,0,0,1,.308,1.056c-.493.822-.715,1.992-.792,4.175a.75.75,0,0,1-.75.723Zm-4.49-1.921a15.752,15.752,0,0,0,3.774.407,10.8,10.8,0,0,1,.613-3.432l-1.178-.589Z" fill="#1a1a1a"/>
          </g>
        </g>
      </g>
      <g id="Group_7147" data-name="Group 7147">
        <g id="Group_7146" data-name="Group 7146">
          <g id="Group_7145" data-name="Group 7145">
            <path id="Path_2568" data-name="Path 2568" d="M1130.323,170.407a.752.752,0,0,1-.243-.041,9.479,9.479,0,0,1-5.992-5.349.75.75,0,0,1,.691-1.041h9.921a.749.749,0,0,1,.561,1.248l-4.377,4.931A.752.752,0,0,1,1130.323,170.407Zm-4.32-4.931a8.1,8.1,0,0,0,4.1,3.3l2.93-3.3Z" fill="#1a1a1a"/>
          </g>
        </g>
      </g>
      <g id="Group_7150" data-name="Group 7150">
        <g id="Group_7149" data-name="Group 7149">
          <g id="Group_7148" data-name="Group 7148">
            <path id="Path_2569" data-name="Path 2569" d="M1136.117,175.4A16.743,16.743,0,0,1,1129,173.95a13.752,13.752,0,0,1-6.932-7.5.749.749,0,0,1,.273-.9c.964-.658,1.625-1.131,1.963-1.407a.75.75,0,0,1,1.165.289,8.044,8.044,0,0,0,5.1,4.513,14.932,14.932,0,0,0,5.482.7.736.736,0,0,1,.6.216l.044.044a.752.752,0,0,1,.219.557c-.04,1.139-.044,2.509-.044,4.181A.75.75,0,0,1,1136.117,175.4Zm-12.422-8.955a12.159,12.159,0,0,0,5.94,6.149,14.828,14.828,0,0,0,5.733,1.292c0-1.012.006-1.906.022-2.705a16.455,16.455,0,0,1-5.31-.812,9.6,9.6,0,0,1-5.579-4.491Q1124.155,166.124,1123.695,166.442Z" fill="#1a1a1a"/>
          </g>
        </g>
      </g>
      <g id="Group_7153" data-name="Group 7153">
        <g id="Group_7152" data-name="Group 7152">
          <g id="Group_7151" data-name="Group 7151">
            <path id="Path_2570" data-name="Path 2570" d="M1086.986,186.924c-3.947,0-5.2-1.715-5.354-1.944a.751.751,0,0,1,.459-1.142l18.425-4.252a.743.743,0,0,1,.63.14,35.042,35.042,0,0,0,3.113,2.089.75.75,0,0,1-.182,1.364,144.464,144.464,0,0,1-14.621,3.549A16.839,16.839,0,0,1,1086.986,186.924Zm-2.924-2a9.849,9.849,0,0,0,5.174.321,127.983,127.983,0,0,0,12.812-3.05c-.712-.469-1.236-.846-1.536-1.068Zm-1.8-.354h0Z" fill="#1a1a1a"/>
          </g>
        </g>
      </g>
      <g id="Group_7156" data-name="Group 7156">
        <g id="Group_7155" data-name="Group 7155">
          <g id="Group_7154" data-name="Group 7154">
            <path id="Path_2571" data-name="Path 2571" d="M1119.11,188.153c-6,0-11.811-2.748-15.626-5.054a35.672,35.672,0,0,1-3.262-2.192.75.75,0,0,1-.237-.862.741.741,0,0,1,.757-.476c.117.009,11.832.89,19.638-.67a13.356,13.356,0,0,0,5.359-2.011,9.4,9.4,0,0,0,2.887-3.907.749.749,0,0,1,.422-.41.736.736,0,0,1,.587.02,15.259,15.259,0,0,0,6.482,1.306.75.75,0,0,1,.75.75c0,3.176-2.006,6.643-5.367,9.275A20.162,20.162,0,0,1,1119.11,188.153Zm-15.81-6.934c.294.189.615.389.959.6,3.653,2.207,9.194,4.838,14.851,4.838a18.656,18.656,0,0,0,11.465-3.912c2.733-2.14,4.463-4.84,4.75-7.358a16.764,16.764,0,0,1-5.627-1.131,10.609,10.609,0,0,1-3.044,3.824,14.706,14.706,0,0,1-5.98,2.293C1114.9,181.524,1107.283,181.4,1103.3,181.219Z" fill="#1a1a1a"/>
          </g>
        </g>
      </g>
      <g id="Group_7159" data-name="Group 7159">
        <g id="Group_7158" data-name="Group 7158">
          <g id="Group_7157" data-name="Group 7157">
            <path id="Path_2572" data-name="Path 2572" d="M1108.433,181.333c-4.243,0-7.55-.249-7.807-.269a.75.75,0,0,1-.139-1.471l15.591-4.252a.739.739,0,0,1,.362-.008,27.094,27.094,0,0,0,4.124.525h0c3.047.145,6.921-.232,8.067-2.885a.75.75,0,0,1,1.38.586,10.873,10.873,0,0,1-3.356,4.517,14.706,14.706,0,0,1-5.98,2.293A66.168,66.168,0,0,1,1108.433,181.333Zm-2.955-1.546a73.921,73.921,0,0,0,14.9-.888,13.424,13.424,0,0,0,5.339-2,16.763,16.763,0,0,1-5.228.453h0a28.752,28.752,0,0,1-4.193-.52Z" fill="#1a1a1a"/>
          </g>
        </g>
      </g>
      <g id="Group_7162" data-name="Group 7162">
        <g id="Group_7161" data-name="Group 7161">
          <g id="Group_7160" data-name="Group 7160">
            <path id="Path_2573" data-name="Path 2573" d="M1100.684,181.067a.751.751,0,0,1-.4-1.387c.128-.079,12.855-8.034,19.827-12.637.831-.548,1.587-1.053,2.228-1.49a.748.748,0,0,1,1.118.339,12.283,12.283,0,0,0,6.175,6.7.749.749,0,0,1,.372.977c-1.176,2.723-4.462,4.039-9.516,3.788a28.752,28.752,0,0,1-4.194-.52l-15.415,4.2A.749.749,0,0,1,1100.684,181.067Zm21.754-13.769c-.462.311-.964.645-1.5,1-4.438,2.93-11.2,7.212-15.572,9.967l10.71-2.921a.739.739,0,0,1,.362-.008,27.094,27.094,0,0,0,4.124.525c2.788.133,6.278-.172,7.723-2.266A13.652,13.652,0,0,1,1122.438,167.3Z" fill="#1a1a1a"/>
          </g>
        </g>
      </g>
      <g id="Group_7165" data-name="Group 7165">
        <g id="Group_7164" data-name="Group 7164">
          <g id="Group_7163" data-name="Group 7163">
            <path id="Path_2574" data-name="Path 2574" d="M1124.779,198.074a.75.75,0,0,1-.315-.069,3.049,3.049,0,0,1-1.812-3.755.61.61,0,0,1,.039-.1l1.082-2.164-7.833-3.917a.75.75,0,1,1,.671-1.342l8.5,4.252a.751.751,0,0,1,.336,1.007l-1.388,2.777a1.557,1.557,0,0,0,1.032,1.876.75.75,0,0,1-.315,1.43Z" fill="#1a1a1a"/>
          </g>
        </g>
      </g>
      <g id="Group_7168" data-name="Group 7168">
        <g id="Group_7167" data-name="Group 7167">
          <g id="Group_7166" data-name="Group 7166">
            <path id="Path_2575" data-name="Path 2575" d="M1110.606,200.909a.75.75,0,0,1-.336-1.421l31.181-15.59a.75.75,0,1,1,.671,1.342l-31.181,15.59A.745.745,0,0,1,1110.606,200.909Z" fill="#1a1a1a"/>
          </g>
        </g>
      </g>
      <g id="Group_7171" data-name="Group 7171">
        <g id="Group_7170" data-name="Group 7170">
          <g id="Group_7169" data-name="Group 7169">
            <path id="Path_2576" data-name="Path 2576" d="M1110.606,205.161a.75.75,0,0,1-.336-1.421l31.181-15.59a.75.75,0,1,1,.671,1.341l-31.181,15.591A.745.745,0,0,1,1110.606,205.161Z" fill="#1a1a1a"/>
          </g>
        </g>
      </g>
      <g id="Group_7174" data-name="Group 7174">
        <g id="Group_7173" data-name="Group 7173">
          <g id="Group_7172" data-name="Group 7172">
            <path id="Path_2577" data-name="Path 2577" d="M1126.2,192.4h-1.418a.75.75,0,0,1,0-1.5h1.418a.75.75,0,0,1,0,1.5Z" fill="#1a1a1a"/>
          </g>
        </g>
      </g>
      <g id="Group_7177" data-name="Group 7177">
        <g id="Group_7176" data-name="Group 7176">
          <g id="Group_7175" data-name="Group 7175">
            <path id="Path_2578" data-name="Path 2578" d="M1119.11,200.909a.722.722,0,0,1-.172-.02,2.629,2.629,0,0,1-1.782-1.255,3.435,3.435,0,0,1-.176-2.544.741.741,0,0,1,.042-.1l1.233-2.466-4.04-6.734a.75.75,0,0,1,1.286-.772l4.252,7.087a.751.751,0,0,1,.028.721l-1.389,2.777a1.928,1.928,0,0,0,.076,1.3,1.176,1.176,0,0,0,.813.523.75.75,0,0,1-.171,1.48Z" fill="#1a1a1a"/>
          </g>
        </g>
      </g>
      <g id="Group_7180" data-name="Group 7180">
        <g id="Group_7179" data-name="Group 7179">
          <g id="Group_7178" data-name="Group 7178">
            <path id="Path_2579" data-name="Path 2579" d="M1120.527,195.24h-1.417a.75.75,0,0,1,0-1.5h1.417a.75.75,0,0,1,0,1.5Z" fill="#1a1a1a"/>
          </g>
        </g>
      </g>
    </g>
  </g>
</svg>