<?xml version="1.0" encoding="utf-8"?>
<svg width="800px" height="800px" viewBox="-34.48 0 215.516 215.516" xmlns="http://www.w3.org/2000/svg">
  <g id="Group_4880" data-name="Group 4880" transform="translate(-432.858 -867.416)">
    <g id="Group_4879" data-name="Group 4879">
      <g id="Group_4770" data-name="Group 4770">
        <g id="Group_4769" data-name="Group 4769">
          <g id="Group_4768" data-name="Group 4768">
            <path id="Path_1768" data-name="Path 1768" d="M572.506,879.505c-1.721.462-8.5,1.417-8.5,1.417s1.306-2.835,5.669-2.835a5.973,5.973,0,0,1,2.835-2.834c.521.193,1,.394,1.438.6C573.948,876.942,573.8,879.158,572.506,879.505Z" fill="#666"/>
          </g>
        </g>
      </g>
      <g id="Group_4773" data-name="Group 4773">
        <g id="Group_4772" data-name="Group 4772">
          <g id="Group_4771" data-name="Group 4771">
            <path id="Path_1769" data-name="Path 1769" d="M564,880.922s6.783-.955,8.5-1.417c1.29-.347,1.442-2.563,1.438-3.651,6.85,3.222,4.231,7.9,4.231,7.9l-1.417-1.418h-5.67S566.719,882.46,564,880.922Z" fill="#b3b3b3"/>
          </g>
        </g>
      </g>
      <g id="Group_4776" data-name="Group 4776">
        <g id="Group_4775" data-name="Group 4775">
          <g id="Group_4774" data-name="Group 4774">
            <path id="Path_1770" data-name="Path 1770" d="M569.671,878.087s-1.037-4.252-7.086-4.252h-4.252" fill="#333"/>
          </g>
        </g>
      </g>
      <g id="Group_4779" data-name="Group 4779">
        <g id="Group_4778" data-name="Group 4778">
          <g id="Group_4777" data-name="Group 4777">
            <path id="Path_1771" data-name="Path 1771" d="M485.435,978.686q.63-.573,1.267-1.147Z" fill="#333"/>
          </g>
        </g>
      </g>
      <g id="Group_4782" data-name="Group 4782">
        <g id="Group_4781" data-name="Group 4781">
          <g id="Group_4780" data-name="Group 4780">
            <path id="Path_1772" data-name="Path 1772" d="M481.952,981.867c.585-.538,1.171-1.076,1.765-1.619Q482.827,981.063,481.952,981.867Z" fill="#333"/>
          </g>
        </g>
      </g>
      <g id="Group_4785" data-name="Group 4785">
        <g id="Group_4784" data-name="Group 4784">
          <g id="Group_4783" data-name="Group 4783">
            <path id="Path_1773" data-name="Path 1773" d="M558.335,900.777l0-.012Z" fill="#333"/>
          </g>
        </g>
      </g>
      <g id="Group_4788" data-name="Group 4788">
        <g id="Group_4787" data-name="Group 4787">
          <g id="Group_4786" data-name="Group 4786">
            <path id="Path_1774" data-name="Path 1774" d="M483.717,980.248q.852-.777,1.718-1.562Q484.57,979.469,483.717,980.248Z" fill="#333"/>
          </g>
        </g>
      </g>
      <g id="Group_4791" data-name="Group 4791">
        <g id="Group_4790" data-name="Group 4790">
          <g id="Group_4789" data-name="Group 4789">
            <path id="Path_1775" data-name="Path 1775" d="M514.4,916.355,502.28,933.573h0Z" fill="#333"/>
          </g>
        </g>
      </g>
      <g id="Group_4794" data-name="Group 4794">
        <g id="Group_4793" data-name="Group 4793">
          <g id="Group_4792" data-name="Group 4792">
            <path id="Path_1776" data-name="Path 1776" d="M491.017,949.578q.353-1.023.7-2.042c.121-.352.248-.7.372-1.046l.645.646Z" fill="#333"/>
          </g>
        </g>
      </g>
      <g id="Group_4797" data-name="Group 4797">
        <g id="Group_4796" data-name="Group 4796">
          <g id="Group_4795" data-name="Group 4795">
            <path id="Path_1777" data-name="Path 1777" d="M499.845,935.82a14.593,14.593,0,0,0,2.434-2.247l-1.933,2.748Z" fill="#333"/>
          </g>
        </g>
      </g>
      <g id="Group_4800" data-name="Group 4800">
        <g id="Group_4799" data-name="Group 4799">
          <g id="Group_4798" data-name="Group 4798">
            <path id="Path_1778" data-name="Path 1778" d="M502.28,933.573h0Z" fill="#333"/>
          </g>
        </g>
      </g>
      <g id="Group_4803" data-name="Group 4803">
        <g id="Group_4802" data-name="Group 4802">
          <g id="Group_4801" data-name="Group 4801">
            <path id="Path_1779" data-name="Path 1779" d="M502.279,933.573c-.447,1.288-.821,2.479-1.119,3.563l-.814-.815Z" fill="#333"/>
          </g>
        </g>
      </g>
      <g id="Group_4806" data-name="Group 4806">
        <g id="Group_4805" data-name="Group 4805">
          <g id="Group_4804" data-name="Group 4804">
            <rect id="Rectangle_41" data-name="Rectangle 41" width="3.36" transform="translate(500.346 936.321) rotate(-54.865)" fill="#333"/>
          </g>
        </g>
      </g>
      <g id="Group_4809" data-name="Group 4809">
        <g id="Group_4808" data-name="Group 4808">
          <g id="Group_4807" data-name="Group 4807">
            <path id="Path_1780" data-name="Path 1780" d="M492.735,947.136l-1.719,2.442,1.719-2.442Z" fill="#333"/>
          </g>
        </g>
      </g>
      <g id="Group_4812" data-name="Group 4812">
        <g id="Group_4811" data-name="Group 4811">
          <g id="Group_4810" data-name="Group 4810">
            <path id="Path_1781" data-name="Path 1781" d="M518.55,959.948l-1.084,11.919-2.03-2.031,2-9.466C517.8,960.234,518.175,960.092,518.55,959.948Z" fill="#be8a66"/>
          </g>
        </g>
      </g>
      <g id="Group_4815" data-name="Group 4815">
        <g id="Group_4814" data-name="Group 4814">
          <g id="Group_4813" data-name="Group 4813">
            <path id="Path_1782" data-name="Path 1782" d="M505.767,942.412c-.122.051-.245.1-.368.148C505.522,942.513,505.645,942.463,505.767,942.412Z" fill="#333"/>
          </g>
        </g>
      </g>
      <g id="Group_4818" data-name="Group 4818">
        <g id="Group_4817" data-name="Group 4817">
          <g id="Group_4816" data-name="Group 4816">
            <path id="Path_1783" data-name="Path 1783" d="M504.56,942.843q-.342.1-.692.182Q504.218,942.945,504.56,942.843Z" fill="#333"/>
          </g>
        </g>
      </g>
      <g id="Group_4821" data-name="Group 4821">
        <g id="Group_4820" data-name="Group 4820">
          <g id="Group_4819" data-name="Group 4819">
            <path id="Path_1784" data-name="Path 1784" d="M492.09,946.49l-17.379-17.379,8.995-9.921,13.851,14.342q-1.041,2.109-2.022,4.3Q493.681,942,492.09,946.49Z" fill="#be8a66"/>
          </g>
        </g>
      </g>
      <g id="Group_4824" data-name="Group 4824">
        <g id="Group_4823" data-name="Group 4823">
          <g id="Group_4822" data-name="Group 4822">
            <path id="Path_1785" data-name="Path 1785" d="M501.16,937.136c.3-1.084.672-2.275,1.119-3.563h0L514.4,916.355l12.251-21.162c1.71-1.559,3.332-2.956,4.833-4.2.52.971,3.893,6.183,15.514,4.1,12.791-2.294,11.339,4.622,11.339,5.67l0,.012.006.037c.161,1.006,2.447,17.16-14.388,30.218q-.406.316-.829.63c-.128.094-.252.189-.382.284l-.047.019-.036.014-.114.045-.046.018-.2.076-.067.026-.262.1-.1.038-.315.115-.129.046-.374.132-.144.05c-.138.048-.283.1-.436.149l-.162.054-.494.163-.175.056c-.177.057-.362.115-.551.174l-.188.059-.615.186-.185.054c-.224.066-.455.133-.691.2l-.169.048c-.255.071-.518.142-.786.214l-.13.035q-.456.12-.934.239l-.033.008c-1.013.251-2.1.494-3.245.714-.441.084-.892.164-1.348.24l-.223.037c-.444.072-.892.141-1.348.2l-.042.006c-1.01.138-2.047.25-3.1.328h0c-1.111.082-2.241.124-3.376.117l-.136,0c-.471-.005-.944-.02-1.416-.043l-.365-.019c-.524-.031-1.047-.07-1.568-.126-.075-.008-.149-.02-.223-.028-.332-.038-.663-.078-.993-.127l-.129-.022c-.36-.055-.72-.115-1.078-.184h-.006c-.8-.155-1.589-.344-2.365-.574,0,0-3.243,5.142-8.163,7.429-.153.071-.309.138-.466.2-.122.051-.245.1-.368.148q-.412.157-.839.283-.342.1-.692.182a10.177,10.177,0,0,1-1.541.235q-.34.024-.687.024C500.085,943.284,500.13,940.9,501.16,937.136Z" fill="#333"/>
          </g>
        </g>
      </g>
      <g id="Group_4827" data-name="Group 4827">
        <g id="Group_4826" data-name="Group 4826">
          <g id="Group_4825" data-name="Group 4825">
            <path id="Path_1786" data-name="Path 1786" d="M497.557,933.532a130.94,130.94,0,0,1,29.09-38.339L514.4,916.355l-12.117,17.218a14.593,14.593,0,0,1-2.434,2.247,12.228,12.228,0,0,1-4.31,2.015Q496.513,935.636,497.557,933.532Z" fill="#333"/>
          </g>
        </g>
      </g>
      <g id="Group_4830" data-name="Group 4830">
        <g id="Group_4829" data-name="Group 4829">
          <g id="Group_4828" data-name="Group 4828">
            <path id="Path_1787" data-name="Path 1787" d="M499.845,935.82l.5.5-7.611,10.815-.645-.646q1.584-4.486,3.445-8.655A12.228,12.228,0,0,0,499.845,935.82Z" fill="#e5e5e5"/>
          </g>
        </g>
      </g>
      <g id="Group_4833" data-name="Group 4833">
        <g id="Group_4832" data-name="Group 4832">
          <g id="Group_4831" data-name="Group 4831">
            <path id="Path_1788" data-name="Path 1788" d="M491.017,949.578l1.718-2.442,7.611-10.815.814.815c-1.03,3.76-1.075,6.148.48,6.148q.346,0,.687-.024a10.177,10.177,0,0,0,1.541-.235q.35-.08.692-.182.426-.126.839-.283c.123-.047.246-.1.368-.148.157-.065.313-.132.466-.2,4.921-2.287,8.162-7.429,8.162-7.429.777.23,1.567.419,2.366.574h.006c.358.069.718.129,1.078.184l.129.022c.33.049.661.089.993.127.074.008.147.02.221.028-2.247,2.275-5.91,5.907-9.9,9.55a120.257,120.257,0,0,1-10.045,8.38C492.435,958.572,487.543,959.865,491.017,949.578Z" fill="#e5e5e5"/>
          </g>
        </g>
      </g>
      <g id="Group_4836" data-name="Group 4836">
        <g id="Group_4835" data-name="Group 4835">
          <g id="Group_4834" data-name="Group 4834">
            <path id="Path_1789" data-name="Path 1789" d="M505.767,942.412c.157-.065.313-.132.466-.2h0C506.08,942.28,505.924,942.347,505.767,942.412Z" fill="#333"/>
          </g>
        </g>
      </g>
      <g id="Group_4839" data-name="Group 4839">
        <g id="Group_4838" data-name="Group 4838">
          <g id="Group_4837" data-name="Group 4837">
            <path id="Path_1790" data-name="Path 1790" d="M503.868,943.025a10.177,10.177,0,0,1-1.541.235A10.177,10.177,0,0,0,503.868,943.025Z" fill="#333"/>
          </g>
        </g>
      </g>
      <g id="Group_4842" data-name="Group 4842">
        <g id="Group_4841" data-name="Group 4841">
          <g id="Group_4840" data-name="Group 4840">
            <path id="Path_1791" data-name="Path 1791" d="M505.4,942.56q-.412.157-.839.283Q504.986,942.717,505.4,942.56Z" fill="#333"/>
          </g>
        </g>
      </g>
      <g id="Group_4845" data-name="Group 4845">
        <g id="Group_4844" data-name="Group 4844">
          <g id="Group_4843" data-name="Group 4843">
            <rect id="Rectangle_42" data-name="Rectangle 42" height="13.224" transform="translate(496.54 935.116)" fill="#e5e5e5"/>
          </g>
        </g>
      </g>
      <g id="Group_4848" data-name="Group 4848">
        <g id="Group_4847" data-name="Group 4847">
          <g id="Group_4846" data-name="Group 4846">
            <path id="Path_1792" data-name="Path 1792" d="M491.017,949.578c-3.474,10.287,1.418,8.994,8.229,4.068a120.257,120.257,0,0,0,10.045-8.38c3.987-3.643,7.65-7.275,9.9-9.55h0c.521.056,1.044.095,1.568.126l.365.019c.472.023.945.038,1.416.043l.136,0c1.136.008,2.265-.035,3.376-.117h0L511.6,947.577l-10.147,8.278-34.879,28.454Z" fill="#333"/>
          </g>
        </g>
      </g>
      <g id="Group_4851" data-name="Group 4851">
        <g id="Group_4850" data-name="Group 4850">
          <g id="Group_4849" data-name="Group 4849">
            <path id="Path_1793" data-name="Path 1793" d="M466.576,984.309l34.879-28.454,10.147-8.278,14.45-11.788h0c1.054-.078,2.09-.189,3.1-.328l.042-.006c.456-.063.9-.131,1.348-.2l.223-.037c.456-.076.907-.156,1.348-.24L514.265,950.24l-9.931,8.494L454.7,1001.181Z" fill="#333"/>
          </g>
        </g>
      </g>
      <g id="Group_4854" data-name="Group 4854">
        <g id="Group_4853" data-name="Group 4853">
          <g id="Group_4852" data-name="Group 4852">
            <path id="Path_1794" data-name="Path 1794" d="M517.434,960.37l-2,9.466-23.717,112.346L501.434,964.6l17.156-14.225V954.9Z" fill="#333"/>
          </g>
        </g>
      </g>
      <g id="Group_4857" data-name="Group 4857">
        <g id="Group_4856" data-name="Group 4856">
          <g id="Group_4855" data-name="Group 4855">
            <path id="Path_1795" data-name="Path 1795" d="M457.7,1038.245l22.837-55.079.148-.136c.417-.386.842-.775,1.264-1.163q.876-.807,1.765-1.619.852-.777,1.718-1.562l1.267-1.147q1.061-.957,2.137-1.923l.587-.524q3.762-3.364,7.749-6.824l-1.49,6.22Z" fill="#333"/>
          </g>
        </g>
      </g>
      <g id="Group_4860" data-name="Group 4860">
        <g id="Group_4859" data-name="Group 4859">
          <g id="Group_4858" data-name="Group 4858">
            <path id="Path_1796" data-name="Path 1796" d="M495.685,974.488l1.49-6.22q2.1-1.824,4.252-3.666l.007-.006h0l-2.629,31.13-25.512,72.284Z" fill="#333"/>
          </g>
        </g>
      </g>
      <g id="Group_4863" data-name="Group 4863">
        <g id="Group_4862" data-name="Group 4862">
          <g id="Group_4861" data-name="Group 4861">
            <path id="Path_1797" data-name="Path 1797" d="M454.7,1001.181l49.631-42.447,9.931-8.494,17.849-15.265c1.144-.22,2.231-.463,3.245-.714l.033-.008c.319-.08.63-.159.934-.239l.13-.035c.268-.072.531-.143.786-.214l.169-.048c.236-.067.467-.133.691-.2l.185-.054.615-.186.188-.059q.285-.089.551-.174l.175-.056.494-.163.162-.054.436-.149.144-.05.374-.132.129-.046.315-.115.1-.038.262-.1.067-.026.2-.076.046-.018.114-.045.036-.014.047-.019c-9.306,6.768-18.141,13.586-26.462,20.309q-5.186,4.191-10.1,8.323-2.4,2.019-4.743,4.017h0l-.007.006q-1.2,1.026-2.377,2.043-.942.813-1.875,1.623-3.978,3.454-7.749,6.824l-.587.524q-1.078.966-2.137,1.923l-1.267,1.147q-.865.783-1.718,1.562-.89.815-1.765,1.619c-.422.388-.847.777-1.264,1.163l-.148.136c-.967.894-1.926,1.784-2.867,2.663-27.889,26.061-44.065,45.329-44.065,45.329Z" fill="#333"/>
          </g>
        </g>
      </g>
      <g id="Group_4866" data-name="Group 4866">
        <g id="Group_4865" data-name="Group 4865">
          <g id="Group_4864" data-name="Group 4864">
            <path id="Path_1798" data-name="Path 1798" d="M537.073,973.048l21.751,21.26H540.4l-18.917-18.425C525.165,972.2,537.071,973.048,537.073,973.048Z" fill="#be8a66"/>
          </g>
        </g>
      </g>
      <g id="Group_4869" data-name="Group 4869">
        <g id="Group_4868" data-name="Group 4868">
          <g id="Group_4867" data-name="Group 4867">
            <path id="Path_1799" data-name="Path 1799" d="M518.543,974.324c.341-.053.729-.123,1.158-.222,2.362-.547,5.8-1.912,7.45-5.306v4.252a10.8,10.8,0,0,0,5.171-4.75,15.155,15.155,0,0,0,1.865-6.589h.051v1.418s.791,7.086,4.252,7.086,6.252,4.3,5.669,9.922l-7.086-7.087h0s-11.908-.848-15.591,2.835h0a3.281,3.281,0,0,0,0,4.252S518.337,979.622,518.543,974.324Z" fill="#b3b3b3"/>
          </g>
        </g>
      </g>
      <g id="Group_4872" data-name="Group 4872">
        <g id="Group_4871" data-name="Group 4871">
          <g id="Group_4870" data-name="Group 4870">
            <path id="Path_1800" data-name="Path 1800" d="M517.466,971.867l1.084-11.919c-.375.144-.748.286-1.116.422l1.156-5.474v-4.525l23.644-18.227.7-.237c.061-.081.125-.162.186-.242l.005,0q.422-.313.829-.63c16.835-13.058,14.549-29.212,14.388-30.218l-.006-.037,0-.012c0-1.048,1.452-7.964-11.339-5.67C535.373,897.18,532,891.968,531.48,891a91.705,91.705,0,0,1,9.845-7.24s6.876-15.591,18.425-15.591,12.756,7.087,12.756,7.087a5.973,5.973,0,0,0-2.835,2.834c-4.363,0-5.669,2.835-5.669,2.835,2.717,1.538,7.086,1.417,7.086,1.417-2.862,0-2.834,5.67-2.834,5.67v14.173c0,9.8-2.386,9.7-18.425,34.016a54.883,54.883,0,0,1-10.216,11.483c-1.159,8.511-5.375,12.611-5.375,12.611,0,.492-.02.961-.051,1.417a15.155,15.155,0,0,1-1.865,6.589,10.8,10.8,0,0,1-5.171,4.75V968.8c-1.651,3.394-5.088,4.759-7.45,5.306-.429.1-.817.169-1.158.222a12.048,12.048,0,0,1-1.313.141Z" fill="#e5e5e5"/>
          </g>
        </g>
      </g>
      <g id="Group_4875" data-name="Group 4875">
        <g id="Group_4874" data-name="Group 4874">
          <g id="Group_4873" data-name="Group 4873">
            <circle id="Ellipse_150" data-name="Ellipse 150" cx="2.126" cy="2.126" r="2.126" transform="translate(561.167 873.835)" fill="#ffff40"/>
          </g>
        </g>
      </g>
      <g id="Group_4878" data-name="Group 4878">
        <g id="Group_4877" data-name="Group 4877">
          <g id="Group_4876" data-name="Group 4876">
            <path id="Path_1801" data-name="Path 1801" d="M502.28,933.573h0Z" fill="none"/>
          </g>
        </g>
      </g>
    </g>
    <path id="Path_1802" data-name="Path 1802" d="M579.154,879.938c-.618-1.925-2.264-3.527-4.891-4.763h0c-.355-.167-.737-.317-1.117-.467-.466-1.623-2.851-7.292-13.4-7.292-4.956,0-9.841,2.792-14.126,8.073a39.678,39.678,0,0,0-4.887,7.749A95.717,95.717,0,0,0,531,890.419c-1.635,1.35-3.27,2.77-4.86,4.22a132.7,132.7,0,0,0-28.774,37.618l-13.122-13.588a.75.75,0,1,0-1.079,1.042l13.485,13.964c-.188.383-.362.754-.54,1.129-.111.233-.228.472-.337.7-.293.627-.576,1.247-.853,1.865-.023.052-.049.106-.073.159h0c-.592,1.331-1.16,2.688-1.708,4.057-.178.444-.342.893-.514,1.34-.283.731-.575,1.458-.844,2.2l-16.542-16.542a.75.75,0,0,0-1.061,1.06l17.044,17.044c-.073.2-.145.4-.215.608q-.332.969-.667,1.94l-24.379,34.644-11.873,16.872-21.1,29.977a.75.75,0,0,0,1.188.914c.161-.192,16.472-19.536,44-45.264l.344-.319-21.52,51.9a.749.749,0,0,0,.356.957.738.738,0,0,0,.336.08.75.75,0,0,0,.645-.366L493.809,979.1l-21.245,88.731a.75.75,0,0,0,1.436.424l23.654-67.017-6.683,80.879a.749.749,0,0,0,.639.8.664.664,0,0,0,.109.008.75.75,0,0,0,.733-.595l23.432-110.992.8.8-.205,2.248a.751.751,0,0,0,.747.818h.026c.013,0,.218-.011.538-.042.15,5.075,3.42,5.678,3.568,5.7a.812.812,0,0,0,.12.01.75.75,0,0,0,.556-1.253,2.256,2.256,0,0,1-.4-2.552l18.239,17.765a.75.75,0,0,0,1.046-1.074L522.6,975.925l.013-.011c.068-.048.149-.089.222-.135.148-.095.3-.19.459-.276.105-.056.221-.1.331-.157.147-.069.291-.139.447-.2.128-.053.266-.1.4-.149.151-.055.3-.111.457-.162s.3-.091.455-.134.31-.09.47-.131.332-.08.5-.118.315-.072.476-.1c.177-.036.357-.069.537-.1.159-.028.317-.056.477-.082q.282-.045.567-.084c.156-.022.313-.044.47-.063q.293-.036.586-.068c.153-.017.307-.032.461-.047.2-.018.4-.036.6-.052.15-.012.3-.022.448-.032.2-.014.4-.027.6-.038.141-.008.281-.014.42-.02.2-.009.4-.018.6-.025l.38-.01c.2-.005.4-.01.592-.012.119,0,.233,0,.35,0,.191,0,.384,0,.567,0,.108,0,.208,0,.312,0,.181,0,.363,0,.533.008.1,0,.186.006.281.009.164,0,.331.009.482.016l.255.013c.135.007.276.013.4.021l6.888,6.887a.756.756,0,0,0,.37.2l14.3,13.977a.75.75,0,1,0,1.048-1.072l-14.411-14.086a11.319,11.319,0,0,0-2.38-8.274,5.5,5.5,0,0,0-4.067-1.949c-2.254,0-3.3-4.679-3.5-6.379v-1.375a.747.747,0,0,0-.041-.206c.017-.311.034-.619.039-.908.909-.992,4.246-5.074,5.33-12.529a55.682,55.682,0,0,0,10.138-11.455c4.239-6.425,7.467-11.064,10.061-14.791,7.027-10.1,8.489-12.2,8.489-19.638V888.005c0-.919.2-3.525,1.214-4.538a1.162,1.162,0,0,1,.809-.376l.062,0h5.359l1.2,1.2a.75.75,0,0,0,.53.22.726.726,0,0,0,.1-.008.743.743,0,0,0,.551-.376A5.594,5.594,0,0,0,579.154,879.938Zm-5.987-3.352c-.008.107-.016.214-.027.315-.007.067-.017.131-.026.2-.013.092-.026.182-.042.268-.011.062-.024.122-.037.181-.017.08-.036.156-.057.23-.014.054-.03.106-.046.157-.023.068-.046.132-.071.193-.018.044-.036.089-.055.129a1.542,1.542,0,0,1-.087.157c-.02.032-.039.067-.06.1a.924.924,0,0,1-.109.121c-.019.018-.037.041-.056.056a.525.525,0,0,1-.183.1c-.122.032-.278.068-.45.106l-.172.036c-.129.027-.266.055-.414.084l-.228.044-.516.094-.194.035c-.244.043-.5.087-.76.131l-.265.043-.564.093-.328.053-.541.085-.3.046-.778.12-.154.023-.688.1-.01,0c.022-.016.042-.031.065-.046a4.895,4.895,0,0,1,.475-.282c.046-.024.085-.05.132-.073a5.668,5.668,0,0,1,.729-.292c.075-.025.159-.045.239-.068a6.5,6.5,0,0,1,.684-.155c.1-.017.192-.035.293-.049a8.3,8.3,0,0,1,1.1-.078h0a.758.758,0,0,0,.175-.021l.013-.006a.742.742,0,0,0,.238-.112c.018-.013.033-.029.049-.043a.7.7,0,0,0,.132-.145.726.726,0,0,0,.043-.065c.008-.016.021-.028.029-.045s.016-.034.04-.081a6.557,6.557,0,0,1,.5-.794c.015-.021.027-.04.042-.06.068-.092.147-.187.226-.281.034-.04.065-.08.1-.12.072-.082.153-.162.233-.242.054-.053.107-.107.165-.159.074-.067.155-.13.235-.193s.151-.116.231-.17.158-.1.239-.143c.058-.032.119-.06.179-.088.218.084.432.173.641.264v.056C573.178,876.457,573.172,876.52,573.167,876.586Zm-40.6,16.846c.135.116.274.232.428.349.079.061.165.12.249.18.137.1.278.2.43.293.1.064.205.127.312.19q.231.138.484.27c.116.062.233.123.356.182.185.09.38.174.58.258.124.053.244.106.374.156.256.1.528.188.808.275.091.029.173.061.267.088.375.109.774.206,1.193.291.127.026.266.045.4.068.307.055.62.106.951.147.176.021.363.036.547.053.309.029.624.053.953.068.206.01.416.015.629.019.338.006.687,0,1.045-.007.222-.006.441-.011.67-.023.4-.021.818-.057,1.242-.1.208-.021.408-.034.622-.059.649-.077,1.319-.172,2.024-.3,4.561-.817,7.794-.51,9.352.889a4.284,4.284,0,0,1,1.123,3.684c-.011.149-.018.27-.018.356h0a.828.828,0,0,0,.008.1l0,.028,0,.017v0l0,.022c.1.631,2.154,14.644-11.109,26.962-.064.06-.127.119-.192.178-.351.323-.717.643-1.09.963-.1.086-.2.173-.3.258-.456.385-.926.767-1.416,1.147q-.4.31-.815.619l-.3.225-.344.134h0l-.066.024-1.893.672-.169.055-.323.106-.09.029-.081.026c-.065.022-.136.044-.2.065l-.339.107-.165.051-.022.007c-.2.06-.4.122-.6.183l-.185.055c-.221.065-.45.13-.718.206l-.132.038-.311.085c-.159.044-.325.089-.512.138l-.082.022c-.241.064-.484.126-.722.186l-.234.059c-1.068.265-2.147.5-3.206.7h0c-.217.042-.442.079-.663.118s-.44.082-.664.119l-.223.036c-.437.072-.88.139-1.371.207-.191.026-.38.036-.571.06-.84.1-1.678.2-2.489.263h-.007c-.116.009-.227.012-.342.019-1.011.066-2.009.1-2.959.1l-.136,0q-.693-.008-1.388-.042l-.357-.018c-.586-.035-1.073-.074-1.534-.124l-.215-.027c-.324-.037-.647-.077-1.017-.132l-.077-.013c-.352-.054-.7-.112-1.056-.181-.788-.152-1.56-.339-2.3-.556a.749.749,0,0,0-.847.319l-.042.065c-.39.591-3.439,5.056-7.8,7.084-.145.066-.292.129-.44.191l-.116.046-.231.093h0c-.247.095-.511.184-.784.265q-.318.094-.645.17c-.25.057-.492.1-.729.139s-.468.062-.7.078q-.315.023-.634.023c-.176,0-.22-.058-.253-.1-.155-.2-.58-1.175.5-5.1.144-.524.308-1.078.49-1.658.055-.177.123-.371.182-.552.128-.4.256-.793.4-1.21l12.052-17.127c.013-.018.024-.037.036-.056l12.194-21.062c1.335-1.215,2.7-2.409,4.072-3.557.035.046.079.1.117.145s.081.1.127.16c.079.094.168.192.26.293.045.049.084.095.132.145.143.148.3.3.471.454C532.464,893.35,532.517,893.391,532.565,893.432ZM516.851,937l-.4.4-.8.8-.454.444c-.221.217-.444.436-.674.659-.174.17-.353.343-.531.515l-.682.658-.552.53-.726.692-.56.53c-.274.259-.552.519-.831.78l-.491.459q-.672.624-1.359,1.253a117.91,117.91,0,0,1-9.979,8.325c-5.774,4.176-7.367,3.658-7.718,3.4a.691.691,0,0,1-.075-.065c-.007-.006-.014-.016-.021-.023s-.038-.042-.057-.067l-.022-.033c-.019-.028-.038-.055-.057-.088-.006-.012-.012-.028-.018-.04-.019-.036-.037-.073-.055-.116-.008-.02-.015-.046-.023-.068-.014-.04-.029-.08-.041-.126-.009-.03-.015-.066-.022-.1s-.022-.088-.031-.138-.011-.091-.017-.136-.014-.1-.019-.149-.005-.109-.007-.164-.007-.111-.008-.173,0-.131,0-.2,0-.125.005-.2.013-.157.019-.236.01-.141.018-.218.023-.171.035-.257.021-.17.036-.263.033-.183.049-.274.035-.2.058-.315.046-.207.068-.31.049-.227.079-.35.059-.231.089-.346c.034-.131.065-.258.1-.4.032-.115.07-.241.1-.361.044-.152.086-.3.136-.463.037-.121.082-.253.122-.38.05-.156.1-.311.154-.475l1.653-2.35,2.315-3.289,4.543-6.455c-.014.056-.024.106-.037.162-.039.163-.073.317-.108.473-.045.2-.088.4-.125.589-.028.147-.053.288-.078.428-.03.179-.058.354-.081.521-.017.13-.033.256-.046.379-.017.16-.029.314-.038.462-.007.112-.014.224-.016.329,0,.143,0,.277.006.408,0,.094.006.191.014.28.012.128.032.245.052.361.014.076.024.156.041.228a2.888,2.888,0,0,0,.109.333c.02.053.035.112.057.161a2.1,2.1,0,0,0,.239.407,1.748,1.748,0,0,0,1.445.69c.231,0,.459-.009.686-.025h0l.054,0a10.974,10.974,0,0,0,1.654-.251c.25-.058.5-.122.74-.2.309-.092.61-.194.893-.3l.006,0q.192-.074.381-.153h0c.165-.069.33-.14.493-.215a22.477,22.477,0,0,0,8.165-7.239c.619.168,1.258.316,1.91.442h.006c.288.055.582.1.89.154l.071.012Zm-22.283,5.064q.73-1.82,1.515-3.6c.12-.034.236-.083.356-.12.242-.074.482-.151.719-.24.18-.068.358-.143.535-.219.229-.1.455-.2.678-.311.084-.042.172-.074.256-.118l-.861,1.224L493.6,944.6c.193-.515.379-1.033.58-1.545C494.309,942.728,494.435,942.394,494.568,942.063Zm28.827-42.75-9.632,16.638-3.161,4.492L501.7,933.1c-.236.271-.488.514-.738.762-.124.123-.24.26-.367.377-.275.254-.564.477-.852.7-.113.088-.22.192-.335.275a12.02,12.02,0,0,1-1.1.706c-.119.068-.241.128-.361.191-.267.141-.537.272-.812.39-.064.028-.129.053-.194.08l.1-.226c.38-.814.771-1.636,1.193-2.489A129.914,129.914,0,0,1,523.4,899.313Zm-34.172,54.272c-.012.082-.02.161-.03.241-.036.312-.06.609-.067.886,0,.037-.005.078-.005.115a5.842,5.842,0,0,0,.05.83c.008.063.019.123.029.183a3.729,3.729,0,0,0,.166.653c.005.015.008.034.014.049a2.6,2.6,0,0,0,.3.557c.028.041.059.081.089.119a2.115,2.115,0,0,0,.756.628c.04.02.084.033.126.051a2.3,2.3,0,0,0,.236.093c.052.016.108.025.161.038.078.018.155.039.238.051.059.009.122.01.183.016.083.007.165.015.252.016.012,0,.022,0,.035,0s.054-.007.079-.007a4.56,4.56,0,0,0,.53-.045c.051-.008.1-.014.155-.023a6.494,6.494,0,0,0,.687-.158c.035-.01.072-.024.107-.034q.322-.1.671-.234c.064-.024.128-.049.194-.076.268-.109.545-.231.836-.372.03-.015.063-.033.1-.048.266-.132.543-.278.828-.436l.239-.134c.32-.181.647-.374.99-.588l.067-.043c.326-.2.665-.427,1.013-.66l.282-.192c.374-.255.756-.521,1.155-.81A119.582,119.582,0,0,0,509.8,945.82q.73-.668,1.445-1.332l.395-.371c.337-.315.675-.63,1-.942l.483-.459c.295-.28.59-.56.876-.834.159-.152.31-.3.466-.45.277-.266.554-.532.821-.792l.489-.477c.245-.239.491-.479.726-.71.174-.17.337-.331.5-.5.208-.205.417-.411.616-.609l.54-.537.487-.487c.186-.186.359-.36.533-.536l.288-.289.249.021.235.02c.237.018.483.035.752.051h.007l.374.019q.723.036,1.445.044l.138,0h0c.376,0,.756,0,1.143-.01L504.261,952.6l-33.932,27.681L489.245,953.4C489.235,953.463,489.231,953.521,489.223,953.585ZM467.13,984.824l59.215-48.306c.051,0,.106-.013.157-.017.9-.073,1.821-.17,2.789-.3h.007l.277-.04L526,939.214l-67.253,57.518Zm10.031.457c-15.771,14.737-27.872,27.39-35.379,35.565l13.48-19.156,77.188-66.016q1.531-.3,3.123-.693c.322-.08.637-.161.938-.241l.138-.037c.271-.071.537-.144.8-.216l.169-.048c.2-.058.411-.117.636-.183l.024-.007-1.912,1.474c-5.637,4.2-11.284,8.555-16.886,13.018l-1.344,1.036-.007.008-.014.009-1.28,1.061c-.34.274-.683.543-1.022.817-3.38,2.731-6.783,5.534-10.114,8.331q-2.408,2.022-4.755,4.028-1.2,1.027-2.381,2.046-.942.814-1.876,1.625c-2.683,2.33-5.293,4.628-7.756,6.83l-.588.525q-1.081.968-2.139,1.926l-1.269,1.147-.578.525q-.57.517-1.134,1.033l-.006.005h0l-.878.8-.89.818h0l-1.412,1.3h0C479.063,983.511,478.1,984.4,477.161,985.281Zm-14.789,43.661,18.8-45.336,1.29-1.187q.789-.726,1.59-1.458l.163-.15.01-.008h0l.005-.005.007-.006q.8-.734,1.62-1.474l.082-.075h0L487.2,978.1q1.061-.957,2.135-1.921l.587-.524c1.123-1,2.284-2.033,3.462-3.071.333-.294.673-.591,1.009-.887.494-.434,1-.873,1.5-1.311l-.915,3.821Zm34.043-54.279,1.433-5.985.393-.341q.849-.735,1.707-1.475c.193-.167.391-.336.585-.5l-2.467,29.207-20.7,58.641Zm5.741-9.692,15.558-12.9.126-.1v2.847l-1.719,8.142-1.419,6.721h0l-21.254,100.677Zm15.268-.921-.559,6.154-.611-.61Zm1.86,10.907c.2-.038.393-.08.587-.125a12.461,12.461,0,0,0,6.531-3.583v1.637l-.085.02c-.216.047-.43.1-.642.149l-.218.056q-.264.069-.522.145c-.078.023-.155.045-.232.069-.178.055-.352.113-.524.173-.06.021-.122.041-.181.063-.228.083-.451.17-.666.263l-.1.046q-.267.118-.521.247c-.067.035-.131.071-.2.106-.133.072-.263.147-.389.224-.067.041-.132.083-.2.125-.124.081-.242.166-.358.253-.053.04-.109.08-.161.121a5.8,5.8,0,0,0-.458.406c-.016.016-.031.033-.046.05a4.5,4.5,0,0,0-.987,2.514A6.447,6.447,0,0,1,519.284,974.957Zm19.206-3.994a3.976,3.976,0,0,1,2.953,1.454,9.181,9.181,0,0,1,2.032,5.84l-5.867-5.734,0-.005h0l-.006-.006a.746.746,0,0,0-.342-.191l-.071-.008h-.007c-.3-.027-1.521-.108-3.191-.109h-.022c-.9,0-1.934.025-3.022.1l-.117.008q-.513.033-1.037.082l-.038,0,.022-.019c.229-.176.465-.376.706-.593l.118-.107c.238-.221.479-.463.72-.727.04-.045.08-.091.121-.136.244-.276.487-.572.725-.9.03-.04.058-.083.087-.123a12.907,12.907,0,0,0,.724-1.121,13.684,13.684,0,0,0,.693-1.411c.065-.152.12-.311.18-.467.086-.221.181-.435.257-.662.076.259.162.525.257.791C535.548,970.262,537.262,970.963,538.49,970.963ZM567.5,888.009v14.173c0,6.971-1.255,8.774-8.22,18.781-2.6,3.734-5.833,8.382-10.082,14.821a54.221,54.221,0,0,1-10.076,11.327.753.753,0,0,0-.256.469c-1.106,8.121-5.115,12.136-5.155,12.175a.75.75,0,0,0-.227.537c0,.431-.016.878-.049,1.366a14.483,14.483,0,0,1-1.768,6.267,10.8,10.8,0,0,1-3.769,3.909V968.8a.75.75,0,0,0-1.425-.328c-1.493,3.068-4.6,4.36-6.945,4.9-.357.083-.718.152-1.1.212-.132.02-.256.037-.37.053l.154-1.7,1.084-11.92a.725.725,0,0,0-.607-.8c-.023,0-.045-.009-.069-.011s-.047-.011-.071-.011a.7.7,0,0,0-.1.007l.877-4.154a.8.8,0,0,0,.016-.155v-4.122l1.29-1.029,16.777-12.934q2.814-2.1,5.622-4.145l.145-.049a.747.747,0,0,0,.355-.256l.121-.156q.387-.289.763-.58a44.883,44.883,0,0,0,4.333-3.821c11.562-11.64,10.661-24.424,10.384-26.751-.021-.173-.038-.288-.046-.341s.008-.122.013-.2a5.764,5.764,0,0,0-1.617-4.9c-1.942-1.745-5.514-2.165-10.618-1.249-.65.116-1.267.206-1.863.278-.219.026-.423.041-.634.062-.366.036-.729.071-1.074.091-.234.014-.456.019-.68.026-.3.01-.6.017-.882.015-.222,0-.437-.008-.65-.016q-.4-.015-.77-.044c-.2-.016-.4-.033-.6-.055-.239-.027-.468-.059-.693-.095-.178-.027-.36-.053-.529-.086-.226-.043-.438-.094-.649-.144-.147-.036-.3-.068-.441-.106-.254-.071-.491-.149-.723-.229-.135-.046-.269-.093-.4-.142-.234-.09-.462-.183-.672-.281-.11-.051-.208-.1-.312-.158-.148-.075-.3-.15-.432-.228-.1-.059-.2-.119-.292-.179-.12-.075-.239-.15-.35-.227-.088-.061-.171-.122-.253-.184-.1-.076-.2-.152-.292-.229-.073-.059-.145-.119-.211-.178-.088-.079-.17-.156-.249-.232-.055-.054-.113-.109-.164-.161-.078-.082-.149-.16-.217-.238-.037-.043-.08-.088-.114-.13-.083-.1-.156-.194-.222-.284l-.034-.045h0a90.71,90.71,0,0,1,9.246-6.758.753.753,0,0,0,.3-.34,38.3,38.3,0,0,1,4.8-7.651c2.779-3.418,7.28-7.492,12.94-7.492,8.994,0,11.323,4.37,11.866,5.928-.02.011-.036.028-.056.039a5.222,5.222,0,0,0-.731.516c-.029.024-.059.045-.088.069a6.461,6.461,0,0,0-.6.6l-.1.112c-.1.119-.194.235-.281.351a7.462,7.462,0,0,0-5.813-3.366,2.806,2.806,0,0,0-.652-.082c-.076,0-.147.017-.221.023-.164-.007-.317-.023-.488-.023h-4.252a.75.75,0,0,0,0,1.5h2.451a2.842,2.842,0,0,0-.366,1.376,2.876,2.876,0,0,0,5.752,0,2.83,2.83,0,0,0-.1-.711,5.325,5.325,0,0,1,2.489,2.152,6.389,6.389,0,0,0-5.237,3.206.475.475,0,0,0-.016.062.879.879,0,0,0-.04.112.559.559,0,0,0,0,.058.633.633,0,0,0,0,.1c0,.015,0,.03,0,.044a.2.2,0,0,0,0,.024.764.764,0,0,0,.023.091.577.577,0,0,0,.026.09.752.752,0,0,0,.079.148c.007.011.006.025.014.035l.009.008.024.028a.74.74,0,0,0,.2.169l.032.017h0a8.642,8.642,0,0,0,1.166.536l.081.028a12.441,12.441,0,0,0,1.2.372l.134.032c.39.1.777.175,1.156.239.053.01.1.018.156.026.369.06.725.106,1.062.142l.072.01A10.492,10.492,0,0,0,567.5,888.009Zm-2.835-12.048a1.376,1.376,0,1,1-1.583-1.355c.2.009.391.017.574.035A1.374,1.374,0,0,1,564.669,875.961Zm13.182,6.411-.563-.563a.747.747,0,0,0-.53-.22H570.97a20.067,20.067,0,0,1-3.787-.356l-.067-.013c.507-.078,1.041-.161,1.575-.246l.1-.016.671-.11.169-.028c.2-.032.387-.065.575-.1l.207-.036.49-.087.225-.041c.146-.027.283-.053.418-.08l.208-.04c.135-.027.256-.053.375-.078l.156-.033c.158-.036.3-.07.418-.1a1.981,1.981,0,0,0,.423-.173,1.411,1.411,0,0,0,.122-.078,2.109,2.109,0,0,0,.256-.189c.042-.037.083-.079.124-.12a2.52,2.52,0,0,0,.209-.245c.035-.048.072-.1.106-.147a3.13,3.13,0,0,0,.187-.335c.024-.047.05-.09.072-.14a4.507,4.507,0,0,0,.205-.558c.01-.034.017-.073.026-.108.047-.17.088-.348.123-.537.014-.08.024-.165.036-.247.015-.1.033-.191.045-.294a6.3,6.3,0,0,1,3.083,3.314A4.053,4.053,0,0,1,577.851,882.372Z" fill="#1a1a1a"/>
  </g>
</svg>