<?xml version="1.0" encoding="utf-8"?>
<svg width="800px" height="800px" viewBox="0 -14.17 55.359 55.359" xmlns="http://www.w3.org/2000/svg">
  <g id="Group_5527" data-name="Group 5527" transform="translate(-818.877 -1214.126)">
    <g id="Group_5526" data-name="Group 5526">
      <g id="Group_5486" data-name="Group 5486">
        <g id="Group_5485" data-name="Group 5485">
          <g id="Group_5484" data-name="Group 5484">
            <path id="Path_2020" data-name="Path 2020" d="M849.392,1224.8v2.767c.983.043,1.939.068,2.834.068a4.686,4.686,0,0,0,4.252-2.835Z" fill="#e6e6e6"/>
          </g>
        </g>
      </g>
      <g id="Group_5489" data-name="Group 5489">
        <g id="Group_5488" data-name="Group 5488">
          <g id="Group_5487" data-name="Group 5487">
            <path id="Path_2021" data-name="Path 2021" d="M838.053,1225.548h-.37a.75.75,0,0,1-.37-1.4l.241-.132a.747.747,0,0,1,.9.124l.131.131a.75.75,0,0,1-.531,1.28Z" fill="#7a7a7a"/>
          </g>
        </g>
      </g>
      <g id="Group_5492" data-name="Group 5492">
        <g id="Group_5491" data-name="Group 5491">
          <g id="Group_5490" data-name="Group 5490">
            <path id="Path_2022" data-name="Path 2022" d="M852.226,1227.632a4.686,4.686,0,0,0,4.252-2.835h-7.086v2.767C850.375,1227.607,851.331,1227.632,852.226,1227.632Z" fill="#e6e6e6"/>
          </g>
        </g>
      </g>
      <g id="Group_5495" data-name="Group 5495">
        <g id="Group_5494" data-name="Group 5494">
          <g id="Group_5493" data-name="Group 5493">
            <path id="Path_2023" data-name="Path 2023" d="M841.144,1226.919q.5.053,1.012.1h.008c.352.035.711.069,1.074.1l.137.013c.758.069,1.536.136,2.321.2l.057,0c.807.062,1.62.117,2.423.163h.007q.612.034,1.208.061h0V1224.8H837.683c-.8.452-1.62.918-2.465,1.418l.018,0,.036.005.043.006.072.01.053.007.087.011.076.011.132.017.08.011.146.019.106.013.188.025.024,0,.908.114.079.01.286.035.135.016.291.035.158.019.3.035.193.022.3.035.217.024.306.035.222.025.324.036.938.1Z" fill="#333"/>
          </g>
        </g>
      </g>
      <g id="Group_5498" data-name="Group 5498">
        <g id="Group_5497" data-name="Group 5497">
          <g id="Group_5496" data-name="Group 5496">
            <path id="Path_2024" data-name="Path 2024" d="M843.84,1221.6l-24.212-6.726s-.113,2.856,4.252,4.252,11.338,2.835,11.338,2.835h7.877C843.344,1221.842,843.6,1221.717,843.84,1221.6Z" fill="#333"/>
          </g>
        </g>
      </g>
      <g id="Group_5501" data-name="Group 5501">
        <g id="Group_5500" data-name="Group 5500">
          <g id="Group_5499" data-name="Group 5499">
            <path id="Path_2025" data-name="Path 2025" d="M843.095,1221.963h-7.877l2.7,2.7.131.131H842.3a6.621,6.621,0,0,0,5.669-2.834Z" fill="#333"/>
          </g>
        </g>
      </g>
      <g id="Group_5504" data-name="Group 5504">
        <g id="Group_5503" data-name="Group 5503">
          <g id="Group_5502" data-name="Group 5502">
            <path id="Path_2026" data-name="Path 2026" d="M859.313,1221.963s.928,2.446,12.135-1.214a10.564,10.564,0,0,0-2.214-.2,3.9,3.9,0,0,0-.345-.66,48.722,48.722,0,0,0-8.159-.757Z" fill="#333"/>
          </g>
        </g>
      </g>
      <g id="Group_5507" data-name="Group 5507">
        <g id="Group_5506" data-name="Group 5506">
          <g id="Group_5505" data-name="Group 5505">
            <path id="Path_2027" data-name="Path 2027" d="M859.313,1221.963l0,.008Z" fill="none"/>
          </g>
        </g>
      </g>
      <g id="Group_5510" data-name="Group 5510">
        <g id="Group_5509" data-name="Group 5509">
          <g id="Group_5508" data-name="Group 5508">
            <path id="Path_2028" data-name="Path 2028" d="M869.234,1221.963h4.252s-.212-.823-2.038-1.214c-10.831,3.537-12.061,1.371-12.131,1.222a4.779,4.779,0,0,0,4.248,2.826,22.116,22.116,0,0,0,4.6-.709c.3-.753.529-1.44.691-2Z" fill="#e6e6e6"/>
          </g>
        </g>
      </g>
      <g id="Group_5513" data-name="Group 5513">
        <g id="Group_5512" data-name="Group 5512">
          <g id="Group_5511" data-name="Group 5511">
            <path id="Path_2029" data-name="Path 2029" d="M852.226,1227.632c-.9,0-1.851-.025-2.834-.068h0c-.4-.018-.8-.038-1.2-.061h-.011c-.8-.046-1.616-.1-2.423-.163l-.057,0c-.785-.061-1.563-.128-2.321-.2l-.137-.013c-.363-.034-.722-.068-1.074-.1h-.005c-.348-.035-.685-.069-1.015-.1l-.216-.022-.938-.1h0c1.077,2.9,4.291,7.923,13.651,7.923a14.211,14.211,0,0,0,9.452-3.3l-6.618-6.618A4.686,4.686,0,0,1,852.226,1227.632Z" fill="#b3b3b3"/>
          </g>
        </g>
      </g>
      <g id="Group_5516" data-name="Group 5516">
        <g id="Group_5515" data-name="Group 5515">
          <g id="Group_5514" data-name="Group 5514">
            <path id="Path_2030" data-name="Path 2030" d="M859.317,1221.971l0-.008,1.417-2.835a48.722,48.722,0,0,1,8.159.757,5.932,5.932,0,0,0-2.489-2.174c-1.855-.883-8.017-3.007-22.56,3.891-.244.115-.5.24-.745.361h4.879a6.621,6.621,0,0,1-5.669,2.834h14.173l6.618,6.618a15.806,15.806,0,0,0,2.387-2.513,20.321,20.321,0,0,0,2.679-4.814,22.116,22.116,0,0,1-4.6.709A4.779,4.779,0,0,1,859.317,1221.971Z" fill="#757bb8"/>
          </g>
        </g>
      </g>
      <g id="Group_5519" data-name="Group 5519">
        <g id="Group_5518" data-name="Group 5518">
          <g id="Group_5517" data-name="Group 5517">
            <rect id="Rectangle_46" data-name="Rectangle 46" width="39.685" height="2.835" transform="translate(832.384 1237.553)" fill="#be8a66"/>
          </g>
        </g>
      </g>
      <g id="Group_5522" data-name="Group 5522">
        <g id="Group_5521" data-name="Group 5521">
          <g id="Group_5520" data-name="Group 5520">
            <path id="Path_2031" data-name="Path 2031" d="M852.226,1227.632a4.686,4.686,0,0,0,4.252-2.835h-7.086v2.767C850.375,1227.607,851.331,1227.632,852.226,1227.632Z" fill="none"/>
          </g>
        </g>
      </g>
      <g id="Group_5525" data-name="Group 5525">
        <g id="Group_5524" data-name="Group 5524">
          <g id="Group_5523" data-name="Group 5523">
            <path id="Path_2032" data-name="Path 2032" d="M859.313,1221.963l0,.008Z" fill="none"/>
          </g>
        </g>
      </g>
    </g>
    <path id="Path_2033" data-name="Path 2033" d="M874.212,1221.775c-.054-.212-.438-1.294-2.606-1.76a10.782,10.782,0,0,0-1.9-.212c-.052-.1-.114-.2-.187-.318a6.665,6.665,0,0,0-2.8-2.452c-2.777-1.322-9.449-2.57-22.944,3.773l-23.949-6.652a.75.75,0,0,0-.951.692c-.005.141-.079,3.444,4.773,5,3.935,1.258,10.009,2.558,11.2,2.808l1.849,1.849c-.611.347-1.221.692-1.858,1.069a.742.742,0,0,0-.333.8.778.778,0,0,0,.65.6l.053.007.08.011.055.008.325.043.055.007.128.016.062.008,1.186.151.077.009,2.29.267a12.509,12.509,0,0,0,9.218,7.441.727.727,0,0,0,.178.318l.887.887-.668.668h-16.7a.75.75,0,0,0,0,1.5H847.32a2.256,2.256,0,0,0-.1.678.744.744,0,0,0,.423.656H832.384a.75.75,0,0,0,0,1.5h39.685a.75.75,0,0,0,0-1.5h-18.1a.738.738,0,0,0,.23-.167.75.75,0,0,0-.058-1.059c-.069-.062-.086-.1-.086-.108h18.011a.75.75,0,0,0,0-1.5H859.623l-1.2-1.2a.751.751,0,0,0-.531-.22h-1.3l-.345-.115a14.564,14.564,0,0,0,7.324-3.282,16.542,16.542,0,0,0,2.5-2.633,20.923,20.923,0,0,0,2.78-4.991h0c.221-.556.421-1.119.589-1.652h4.038a.75.75,0,0,0,.726-.938Zm-38.916-.562c-.761-.159-7.149-1.508-11.188-2.8a5.423,5.423,0,0,1-3.432-2.468l18.961,5.267Zm1.733,1.5h9.248a6.2,6.2,0,0,1-3.972,1.335h-3.941Zm3.044,3.337h0l-2.555-.3.364-.205h10.763v1.227c-.142-.008-.279-.013-.423-.021-.8-.045-1.606-.1-2.408-.161l-.057-.005c-.781-.06-1.556-.127-2.315-.2l-.132-.012c-.36-.033-.716-.067-1.064-.1h-.013q-.514-.051-1.008-.1h0l-.213-.022C840.688,1226.117,840.374,1226.084,840.073,1226.05Zm8.231,13.588a.746.746,0,0,0,.421-.679c-.008-.52.365-.644.682-.655h3.154c0,.01,0,.019,0,.03a1.63,1.63,0,0,0,.586,1.2.72.72,0,0,0,.179.109Zm5.162-2.834h-.929l-1.2-1.2-.286-.286c.3.032.59.07.9.091.012.005.02.015.032.019l2.534.845Zm.178-2.835c-7.729,0-11.04-3.542-12.444-6.29.287.03.576.059.832.083l.047.006.012,0c.352.034.713.069,1.075.1l.141.014c.761.069,1.543.137,2.332.2l.057.005c.812.062,1.63.118,2.448.164.408.023.814.043,1.214.061h0c.521.023,1.02.04,1.492.051.2.005.371.005.559.008.252,0,.517.01.747.01h.121l.131,0,.033,0c.086,0,.192-.012.315-.025l.058-.006c.13-.016.28-.041.44-.074l.083-.016c.165-.037.343-.086.527-.146.034-.011.066-.02.1-.032a5.352,5.352,0,0,0,.58-.24l.108-.052a5.358,5.358,0,0,0,.6-.361l.1-.074a5.321,5.321,0,0,0,.6-.508c.031-.031.06-.063.091-.095a5.512,5.512,0,0,0,.565-.688c.009-.013.021-.023.03-.036l5.324,5.324A13.634,13.634,0,0,1,853.644,1233.969Zm-3.5-7.13v-1.291h4.953c-.048.054-.094.114-.143.164-.067.068-.134.137-.2.2a3.553,3.553,0,0,1-.3.236c-.073.052-.146.109-.219.154-.089.054-.176.1-.263.142a4.075,4.075,0,0,1-1.74.441c-.376,0-.783-.006-1.2-.015l-.373-.011C850.486,1226.852,850.311,1226.845,850.142,1226.839Zm14.744,1.608a15.151,15.151,0,0,1-1.758,1.94l-6.119-6.12a.713.713,0,0,0-.118-.078.657.657,0,0,0-.087-.058.666.666,0,0,0-.076-.034.836.836,0,0,0-.1-.019.7.7,0,0,0-.15-.03h-9.473c.014-.01.025-.02.038-.03.067-.051.127-.1.19-.153s.12-.1.176-.144.112-.1.167-.152.1-.092.148-.137.1-.1.147-.151.083-.083.119-.123.087-.1.129-.146.062-.07.089-.1c.041-.049.075-.093.11-.138l.061-.076c.034-.045.059-.081.086-.118l.039-.055c.025-.036.042-.063.059-.089l.021-.031c.02-.03.032-.05.037-.058a.75.75,0,0,0-.646-1.131h-1.47c11.527-5.017,17.175-3.966,19.573-2.825a5.534,5.534,0,0,1,.734.42l-.149-.018q-.533-.069-1.1-.132l-.168-.019c-.434-.046-.883-.087-1.343-.123-.113-.009-.228-.016-.344-.024-.36-.026-.725-.047-1.1-.065-.137-.006-.272-.013-.41-.018-.485-.018-.974-.031-1.469-.031a.748.748,0,0,0-.67.415l-1.418,2.834a.533.533,0,0,0-.015.058.651.651,0,0,0-.021.079.77.77,0,0,0-.041.169c0,.012,0,.024,0,.036a.877.877,0,0,0,.019.112.827.827,0,0,0,.024.148l.01.021v.008l.011.023.009.021.019.038.024.05c.013.027.027.055.045.09l.026.05c.023.042.047.086.076.137l.029.05c.032.056.067.114.107.178l.03.047c.043.067.089.137.14.21l.035.049c.052.075.108.15.169.229l.045.055c.061.078.125.156.2.236l.059.065c.069.076.139.152.215.229l.085.081c.074.07.148.14.228.209.037.033.078.064.117.1.076.062.152.124.233.183.05.037.1.072.158.108.076.052.152.1.233.152.065.039.135.075.2.112s.148.082.227.119.168.073.253.107.146.062.223.089c.1.033.2.06.3.088.074.021.147.044.224.062.106.024.217.04.327.057.081.013.159.029.243.038.108.012.222.014.335.019.079,0,.154.014.235.014h.1c.288-.006.6-.026.917-.053.093-.008.189-.019.284-.029.251-.025.51-.058.778-.1.094-.013.186-.025.282-.04.337-.053.683-.114,1.045-.186A18.62,18.62,0,0,1,864.886,1228.447Zm2.72-5q-.246.057-.485.11c-.177.038-.356.079-.527.113-.231.046-.45.083-.67.121-.149.026-.3.055-.448.077-.237.036-.458.061-.679.087-.112.012-.233.031-.341.041-.321.03-.624.049-.9.054-.082,0-.155-.011-.233-.015a3.606,3.606,0,0,1-.426-.039c-.085-.014-.166-.034-.247-.053-.113-.028-.224-.059-.33-.1-.07-.025-.14-.05-.206-.078a3.627,3.627,0,0,1-.331-.162c-.045-.025-.094-.048-.138-.075-.011-.007-.02-.015-.032-.022a23.068,23.068,0,0,0,6.308-.936C867.831,1222.83,867.728,1223.123,867.606,1223.445Zm.635-2.513-.4.109q-.512.136-.981.25l-.205.051c-.367.086-.71.161-1.038.228-.1.021-.191.038-.286.057q-.366.072-.7.128l-.245.042c-.277.044-.54.081-.784.111l-.171.018c-.19.021-.371.039-.542.052l-.2.014c-.177.011-.344.018-.5.022l-.088,0c-.172,0-.327,0-.474-.008-.053,0-.1-.006-.152-.009-.1-.006-.194-.014-.282-.023l-.119-.013c-.111-.014-.212-.03-.3-.049-.032-.006-.06-.013-.09-.02-.062-.014-.12-.028-.173-.043l-.077-.023c-.063-.02-.121-.041-.169-.061h-.005l.942-1.886c.355.005.708.015,1.057.029.137.005.271.014.406.02.211.011.423.021.63.034.155.01.307.022.461.034l.448.034a.929.929,0,0,0-.171.513.959.959,0,1,0,1.849-.342l.313.037.431.056.439.06.4.058.412.063.356.057.2.033c.077.147.112.237.112.237l.017.041Z" fill="#1a1a1a"/>
  </g>
</svg>