<?xml version="1.0" encoding="utf-8"?>
<svg width="800px" height="800px" viewBox="-31.93 0 117.794 117.794" xmlns="http://www.w3.org/2000/svg">
  <g id="Group_1617" data-name="Group 1617" transform="translate(-726.736 -856.077)">
    <g id="Group_1615" data-name="Group 1615">
      <g id="Group_1530" data-name="Group 1530">
        <g id="Group_1529" data-name="Group 1529">
          <g id="Group_1528" data-name="Group 1528">
            <path id="Path_979" data-name="Path 979" d="M747.328,876.67s.062-.045.161-.132C747.384,876.622,747.328,876.67,747.328,876.67Z" fill="none"/>
          </g>
        </g>
      </g>
      <g id="Group_1533" data-name="Group 1533">
        <g id="Group_1532" data-name="Group 1532">
          <g id="Group_1531" data-name="Group 1531">
            <path id="Path_980" data-name="Path 980" d="M760.084,862.5c.877-3.037,4.252-2.835,4.252-2.835h4.7a7.848,7.848,0,0,0-6.115-2.835c-6.374,0-12.756,3.466-12.756,11.339,0,5.613-2.081,7.848-2.674,8.372A26.22,26.22,0,0,1,762.919,871h4.252c0-2.338.6-3.6,1.417-4.243v-.009C768.588,863.413,760.084,862.5,760.084,862.5Z" fill="#b3b3b3"/>
          </g>
        </g>
      </g>
      <g id="Group_1536" data-name="Group 1536">
        <g id="Group_1535" data-name="Group 1535">
          <g id="Group_1534" data-name="Group 1534">
            <path id="Path_981" data-name="Path 981" d="M772.84,866.749a4.576,4.576,0,0,0-2.835-5.67s-1.417,1.645-1.417,5.679C770.267,865.429,772.84,866.749,772.84,866.749Z" fill="#b3b3b3"/>
          </g>
        </g>
      </g>
      <g id="Group_1539" data-name="Group 1539">
        <g id="Group_1538" data-name="Group 1538">
          <g id="Group_1537" data-name="Group 1537">
            <circle id="Ellipse_129" data-name="Ellipse 129" cx="1.417" cy="1.417" r="1.417" transform="translate(762.919 859.662)" fill="#7a7a7a"/>
          </g>
        </g>
      </g>
      <g id="Group_1542" data-name="Group 1542">
        <g id="Group_1541" data-name="Group 1541">
          <g id="Group_1540" data-name="Group 1540">
            <path id="Path_982" data-name="Path 982" d="M769.034,859.662h-4.7s-3.375-.2-4.252,2.835c0,0,8.5.916,8.5,4.252v.009c0-4.034,1.417-5.679,1.417-5.679A7.417,7.417,0,0,0,769.034,859.662Z" fill="#333"/>
          </g>
        </g>
      </g>
      <g id="Group_1545" data-name="Group 1545">
        <g id="Group_1544" data-name="Group 1544">
          <g id="Group_1543" data-name="Group 1543">
            <path id="Path_983" data-name="Path 983" d="M751.586,882.091c0-.076,0-.15,0-.227C751.584,881.941,751.585,882.015,751.586,882.091Z" fill="none"/>
          </g>
        </g>
      </g>
      <g id="Group_1548" data-name="Group 1548">
        <g id="Group_1547" data-name="Group 1547">
          <g id="Group_1546" data-name="Group 1546">
            <path id="Path_984" data-name="Path 984" d="M751.594,882.948v0Z" fill="none"/>
          </g>
        </g>
      </g>
      <g id="Group_1551" data-name="Group 1551">
        <g id="Group_1550" data-name="Group 1550">
          <g id="Group_1549" data-name="Group 1549">
            <path id="Path_985" data-name="Path 985" d="M751.593,883.575a.75.75,0,0,1-.75-.741l-.007-.737a.749.749,0,0,1,.744-.755h0a.751.751,0,0,1,.752.744l.007.73a.75.75,0,0,1-.741.759Z" fill="#7a7a7a"/>
          </g>
        </g>
      </g>
      <g id="Group_1554" data-name="Group 1554">
        <g id="Group_1553" data-name="Group 1553">
          <g id="Group_1552" data-name="Group 1552">
            <path id="Path_986" data-name="Path 986" d="M751.584,882.614a.749.749,0,0,1-.75-.745c0-.309,0-.623,0-.947a.75.75,0,0,1,1.5,0c0,.32,0,.632,0,.937v.005a.75.75,0,0,1-.745.75Z" fill="#7a7a7a"/>
          </g>
        </g>
      </g>
      <g id="Group_1557" data-name="Group 1557">
        <g id="Group_1556" data-name="Group 1556">
          <g id="Group_1555" data-name="Group 1555">
            <path id="Path_987" data-name="Path 987" d="M745.466,927.026h-2.39a.75.75,0,0,1,0-1.5h2.39a.75.75,0,0,1,0,1.5Z" fill="#7a7a7a"/>
          </g>
        </g>
      </g>
      <g id="Group_1560" data-name="Group 1560">
        <g id="Group_1559" data-name="Group 1559">
          <g id="Group_1558" data-name="Group 1558">
            <path id="Path_988" data-name="Path 988" d="M775.675,897.93v-8.5c0-5.435-2.364-8.371-4.361-9.884a9.919,9.919,0,0,1,.109,1.38,39.737,39.737,0,0,1-1.418,9.921,43.255,43.255,0,0,1-7.086,28.347v4.252a1.6,1.6,0,0,0,.36,1c6.259-6.968,6.726-13.758,6.726-13.758C776.049,906.787,775.675,897.93,775.675,897.93Z" fill="#666"/>
          </g>
        </g>
      </g>
      <g id="Group_1563" data-name="Group 1563">
        <g id="Group_1562" data-name="Group 1562">
          <g id="Group_1561" data-name="Group 1561">
            <path id="Path_989" data-name="Path 989" d="M743.076,910.018a.751.751,0,0,1-.75-.75.751.751,0,0,1,.119-.405c.281-.437.551-.859.813-1.274a.75.75,0,0,1,1.384.4.742.742,0,0,1-.116.4c-.265.418-.536.844-.819,1.283A.748.748,0,0,1,743.076,910.018Z" fill="#7a7a7a"/>
          </g>
        </g>
      </g>
      <g id="Group_1566" data-name="Group 1566">
        <g id="Group_1565" data-name="Group 1565">
          <g id="Group_1564" data-name="Group 1564">
            <path id="Path_990" data-name="Path 990" d="M760.084,924.859V919.19l-1.417-4.252s-2.242,5.68-5.6,9.167a6,6,0,0,1,2.342,2.171h3.378A2.991,2.991,0,0,1,760.084,924.859Z" fill="#333"/>
          </g>
        </g>
      </g>
      <g id="Group_1569" data-name="Group 1569">
        <g id="Group_1568" data-name="Group 1568">
          <g id="Group_1567" data-name="Group 1567">
            <path id="Path_991" data-name="Path 991" d="M751.644,886.674v0c-.005-1.138-.033-2.361-.05-3.723v-.123q0-.36-.007-.734c0-.076,0-.15,0-.227,0-.307,0-.62,0-.942,0-4.129-4.252-4.252-4.252-4.252-18.55,12.5-9.921,49.606-9.921,49.606h1.417a37.719,37.719,0,0,1,1.418-10.509,22.891,22.891,0,0,1,2.834-6.5c.282-.437.552-.862.816-1.278.084-.132.164-.26.245-.389.179-.284.355-.564.525-.838l.264-.427c.164-.265.322-.525.478-.781.076-.126.155-.253.229-.377.216-.358.426-.709.627-1.051l.1-.167c.173-.3.342-.587.5-.872.074-.129.145-.255.217-.383.114-.2.227-.4.336-.6.074-.135.148-.269.22-.4.1-.188.2-.373.3-.556.066-.125.134-.251.2-.373.126-.242.247-.478.365-.712.068-.135.134-.268.2-.4.092-.186.183-.371.269-.553.06-.125.117-.248.174-.371.068-.146.135-.291.2-.434.057-.125.112-.25.166-.374s.118-.273.175-.408c.05-.119.1-.239.15-.357.067-.166.131-.328.194-.49s.129-.339.19-.506c.047-.128.094-.255.138-.381s.081-.237.12-.355.073-.221.108-.331.074-.236.109-.352.062-.214.092-.32.066-.23.1-.343.059-.233.088-.349c.048-.192.092-.383.134-.572.021-.1.044-.2.064-.3.024-.116.045-.232.067-.348.018-.093.034-.186.05-.278.021-.116.04-.233.058-.349.014-.09.027-.181.04-.272.017-.117.034-.234.049-.351.008-.065.015-.13.023-.194q.044-.369.075-.738c.007-.078.014-.155.02-.233.01-.128.019-.257.027-.386l.015-.233.018-.359,0-.04c0-.067.005-.134.008-.2.019-.515.029-1.039.031-1.582v-.029C751.646,887.077,751.645,886.877,751.644,886.674Z" fill="#666"/>
          </g>
        </g>
      </g>
      <g id="Group_1572" data-name="Group 1572">
        <g id="Group_1571" data-name="Group 1571">
          <g id="Group_1570" data-name="Group 1570">
            <path id="Path_992" data-name="Path 992" d="M771.314,879.542c-.638-4.57-4.143-8.541-4.143-8.541h-4.252a26.22,26.22,0,0,0-15.43,5.537c-.1.087-.161.132-.161.132s4.252.123,4.252,4.252c0,.322,0,.635,0,.942,0,.077,0,.151,0,.227,0,.249,0,.495.007.734v.123c.018,1.364.045,2.585.05,3.723v0h0c0,.2,0,.4,0,.6v.029c0,.542-.012,1.068-.031,1.582,0,.067-.005.134-.008.2l0,.04,1.442-.938a31.143,31.143,0,0,0,11.29,6.906,10.566,10.566,0,0,0,5.669-4.252,39.737,39.737,0,0,0,1.418-9.921A9.919,9.919,0,0,0,771.314,879.542Z" fill="#b3b3b3"/>
          </g>
        </g>
      </g>
      <g id="Group_1575" data-name="Group 1575">
        <g id="Group_1574" data-name="Group 1574">
          <g id="Group_1573" data-name="Group 1573">
            <path id="Path_993" data-name="Path 993" d="M743.076,909.268a22.891,22.891,0,0,0-2.834,6.5,37.719,37.719,0,0,0-1.418,10.509h4.252A64.9,64.9,0,0,1,743.076,909.268Z" fill="#333"/>
          </g>
        </g>
      </g>
      <g id="Group_1578" data-name="Group 1578">
        <g id="Group_1577" data-name="Group 1577">
          <g id="Group_1576" data-name="Group 1576">
            <path id="Path_994" data-name="Path 994" d="M743.076,926.276h2.389a4.918,4.918,0,0,1,3.281-1.417V919.19l-5.67-9.922A64.9,64.9,0,0,0,743.076,926.276Z" fill="#b3b3b3"/>
          </g>
        </g>
      </g>
      <g id="Group_1581" data-name="Group 1581">
        <g id="Group_1580" data-name="Group 1580">
          <g id="Group_1579" data-name="Group 1579">
            <path id="Path_995" data-name="Path 995" d="M764.336,895.095a31.143,31.143,0,0,1-11.29-6.906l-1.442.938c-.005.12-.012.24-.018.359l-.015.233c-.008.129-.017.258-.027.386-.006.078-.013.155-.02.233q-.031.369-.075.738c-.008.064-.015.129-.023.194-.015.117-.032.234-.049.351-.013.091-.026.182-.04.272-.018.116-.037.233-.058.349-.016.092-.032.185-.05.278-.021.116-.043.232-.067.348-.02.1-.043.2-.064.3-.042.189-.086.38-.134.572-.029.116-.057.231-.088.349s-.064.228-.1.343-.06.212-.092.32-.072.234-.109.352-.071.22-.108.331-.079.236-.12.355-.091.253-.138.381q-.091.249-.19.506c-.063.162-.127.324-.194.49-.048.118-.1.238-.15.357-.057.135-.115.271-.175.408s-.109.249-.166.374c-.064.143-.131.288-.2.434-.057.123-.114.246-.174.371-.086.182-.177.367-.269.553-.065.133-.131.266-.2.4-.118.233-.239.47-.365.712-.064.122-.132.248-.2.373-.1.183-.2.368-.3.556-.072.133-.146.267-.22.4-.109.2-.222.4-.336.6-.072.127-.143.254-.217.383-.162.285-.331.575-.5.872l-.1.167c-.2.341-.411.693-.627,1.051-.074.124-.153.251-.229.377-.156.256-.314.516-.478.781-.086.141-.175.283-.264.427-.17.274-.346.554-.525.838-.081.129-.161.257-.245.389-.264.416-.534.841-.816,1.278l5.67,9.922h2.834a25.049,25.049,0,0,0,4.252-14.174,25.049,25.049,0,0,1-4.252,14.174v4.252a9.97,9.97,0,0,1,1.484.663c3.361-3.487,5.6-9.167,5.6-9.167a20.171,20.171,0,0,0,8.5-12.756,20.171,20.171,0,0,1-8.5,12.756l1.417,4.252h2.835a43.255,43.255,0,0,0,7.086-28.347A10.566,10.566,0,0,1,764.336,895.095Z" fill="#b3b3b3"/>
          </g>
        </g>
      </g>
      <g id="Group_1584" data-name="Group 1584">
        <g id="Group_1583" data-name="Group 1583">
          <g id="Group_1582" data-name="Group 1582">
            <path id="Path_996" data-name="Path 996" d="M743.892,908.74a.75.75,0,0,1-.634-1.151l.245-.388a.75.75,0,0,1,1.269.8l-.246.39A.749.749,0,0,1,743.892,908.74Z" fill="#7a7a7a"/>
          </g>
        </g>
      </g>
      <g id="Group_1587" data-name="Group 1587">
        <g id="Group_1586" data-name="Group 1586">
          <g id="Group_1585" data-name="Group 1585">
            <path id="Path_997" data-name="Path 997" d="M769.908,926.276a3.334,3.334,0,0,1,1.515,2.835,13,13,0,0,0-5.67-1.417,4.142,4.142,0,0,1,0,4.252s-1.732-4.252-4.252-4.252h-2.834a2.288,2.288,0,0,1,.117-1.418h-3.378a5.324,5.324,0,0,1,.426,4.252c-1.369-4.08-3.9-4.247-4.218-4.252h-.034a5.644,5.644,0,0,1,0,5.67c-.058-2.723-2.834-4.252-2.834-4.252-2.456-1.037-4.252,1.417-4.252,1.417a4.071,4.071,0,0,1,.971-2.835H727.486v12.756h52.441V926.276Z" fill="#be8a66"/>
          </g>
        </g>
      </g>
      <g id="Group_1590" data-name="Group 1590">
        <g id="Group_1589" data-name="Group 1589">
          <g id="Group_1588" data-name="Group 1588">
            <path id="Path_998" data-name="Path 998" d="M771.423,929.111a3.334,3.334,0,0,0-1.515-2.835,10.761,10.761,0,0,0-5.572-1.417,1.339,1.339,0,0,1-1.057-.415,1.6,1.6,0,0,1-.36-1V919.19h-2.835v5.669a2.991,2.991,0,0,0-1.3,1.417,2.288,2.288,0,0,0-.117,1.418H761.5c2.52,0,4.252,4.252,4.252,4.252a4.142,4.142,0,0,0,0-4.252A13,13,0,0,1,771.423,929.111Z" fill="#fda654"/>
          </g>
        </g>
      </g>
      <g id="Group_1593" data-name="Group 1593">
        <g id="Group_1592" data-name="Group 1592">
          <g id="Group_1591" data-name="Group 1591">
            <path id="Path_999" data-name="Path 999" d="M755.406,926.276h0a6,6,0,0,0-2.342-2.171,9.97,9.97,0,0,0-1.484-.663V919.19h-2.834v5.669a4.918,4.918,0,0,0-3.281,1.417h0a4.071,4.071,0,0,0-.971,2.835s1.8-2.454,4.252-1.417c0,0,2.776,1.529,2.834,4.252a5.644,5.644,0,0,0,0-5.67h.034c.318.005,2.849.172,4.218,4.252A5.324,5.324,0,0,0,755.406,926.276Z" fill="#fda654"/>
          </g>
        </g>
      </g>
      <g id="Group_1596" data-name="Group 1596">
        <g id="Group_1595" data-name="Group 1595">
          <g id="Group_1594" data-name="Group 1594">
            <path id="Path_1000" data-name="Path 1000" d="M732.8,951.589c-.529,2.129-1.166,6.512,1.775,8.7l-4.252,12.756a6.3,6.3,0,0,0,7.087-4.252c1.971-5.3,2.835-8.5,2.835-8.5s5.62-1.631,7.086-5.669c.205-.565.465-1.28.758-2.085a12.073,12.073,0,0,1-7.136,2.085C737.409,954.623,734.34,953.392,732.8,951.589Z" fill="#666"/>
          </g>
        </g>
      </g>
      <g id="Group_1599" data-name="Group 1599">
        <g id="Group_1598" data-name="Group 1598">
          <g id="Group_1597" data-name="Group 1597">
            <path id="Path_1001" data-name="Path 1001" d="M742.368,948.953a11.453,11.453,0,0,1-7.715-2.576l-1.5,3.994s-.172.471-.358,1.218c1.543,1.8,4.612,3.034,8.153,3.034a12.073,12.073,0,0,0,7.136-2.085c.686-1.888,1.56-4.293,2.382-6.551C748.908,947.754,745.865,948.953,742.368,948.953Z" fill="#e5e5e5"/>
          </g>
        </g>
      </g>
      <g id="Group_1602" data-name="Group 1602">
        <g id="Group_1601" data-name="Group 1601">
          <g id="Group_1600" data-name="Group 1600">
            <path id="Path_1002" data-name="Path 1002" d="M734.572,941.867" fill="none" stroke="#7a7a7a" stroke-linecap="round" stroke-linejoin="round" stroke-width="3"/>
          </g>
        </g>
      </g>
      <g id="Group_1605" data-name="Group 1605">
        <g id="Group_1604" data-name="Group 1604">
          <g id="Group_1603" data-name="Group 1603">
            <path id="Path_1003" data-name="Path 1003" d="M736.328,941.909l-1.675,4.468a11.453,11.453,0,0,0,7.715,2.576c3.5,0,6.54-1.2,8.1-2.966.5-1.365.973-2.675,1.376-3.784C748.9,943,741.013,944.73,736.328,941.909Z" fill="#666"/>
          </g>
        </g>
      </g>
      <g id="Group_1608" data-name="Group 1608">
        <g id="Group_1607" data-name="Group 1607">
          <g id="Group_1606" data-name="Group 1606">
            <path id="Path_1004" data-name="Path 1004" d="M737.407,939.032l-1.079,2.877c4.685,2.821,12.576,1.091,15.516.294L753,939.032Z" fill="#e5e5e5"/>
          </g>
        </g>
      </g>
      <g id="Group_1611" data-name="Group 1611">
        <g id="Group_1610" data-name="Group 1610">
          <g id="Group_1609" data-name="Group 1609">
            <circle id="Ellipse_130" data-name="Ellipse 130" cx="1.417" cy="1.417" r="1.417" transform="translate(762.919 859.662)" fill="#f95b67"/>
          </g>
        </g>
      </g>
      <g id="Group_1614" data-name="Group 1614">
        <g id="Group_1613" data-name="Group 1613">
          <g id="Group_1612" data-name="Group 1612">
            <path id="Path_1005" data-name="Path 1005" d="M734.572,941.867" fill="none" stroke="#1a1a1a" stroke-linecap="round" stroke-linejoin="round" stroke-width="3"/>
          </g>
        </g>
      </g>
    </g>
    <g id="Group_1616" data-name="Group 1616">
      <path id="Path_1006" data-name="Path 1006" d="M727.486,927.026h16.638c-.015.035-.019.076-.033.112a4.927,4.927,0,0,0-.18.623c-.024.105-.059.2-.077.312a6.058,6.058,0,0,0-.09,1.038.75.75,0,0,0,1.353.445c.06-.08,1.47-1.931,3.316-1.189.281.168,2.372,1.489,2.417,3.595a.75.75,0,0,0,1.369.408,6.2,6.2,0,0,0,.654-4.917,5.883,5.883,0,0,1,2.268,3.314.75.75,0,0,0,.7.511.733.733,0,0,0,.715-.487c.005-.011.02-.054.041-.119.007-.024.014-.051.023-.083.018-.059.036-.124.057-.208.012-.047.022-.1.034-.151.02-.088.037-.181.056-.287.012-.067.022-.132.032-.205.016-.117.028-.243.039-.375.006-.076.013-.147.017-.227.008-.177.006-.364,0-.559,0-.045,0-.086,0-.131a5.926,5.926,0,0,0-.1-.752c-.014-.072-.038-.146-.055-.22-.035-.148-.064-.3-.113-.448h1.3c0,.013,0,.023,0,.035,0,.1,0,.189,0,.273,0,.033,0,.06.006.091q.008.092.018.168c0,.028.007.051.011.075.008.048.015.088.023.123,0,.015.006.028.009.04.009.039.017.068.021.081a.751.751,0,0,0,.718.532H761.5c1.646,0,3.126,2.733,3.557,3.785a.751.751,0,0,0,.624.463c.024,0,.047,0,.071,0a.739.739,0,0,0,.234-.059.711.711,0,0,0,.1-.026.741.741,0,0,0,.293-.255,4.552,4.552,0,0,0,.526-3.844,12.693,12.693,0,0,1,3.692,1.035c.087.039.16.072.223.1.091.045.153.075.187.093l.049.025h0a.705.705,0,0,0,.144.036.737.737,0,0,0,.6-.046.751.751,0,0,0,.37-.646,4.552,4.552,0,0,0-.034-.54c-.007-.06-.022-.117-.031-.176-.019-.114-.038-.229-.067-.34-.017-.067-.04-.131-.06-.2-.031-.1-.062-.2-.1-.295-.026-.066-.058-.13-.088-.194-.042-.092-.086-.183-.136-.271-.013-.024-.022-.049-.036-.072h8.307a.75.75,0,0,0,0-1.5h-9.816a11.475,11.475,0,0,0-5.561-1.414,26.241,26.241,0,0,0,6.165-13c5.948-4.122,5.731-12.638,5.71-13.2v-8.489c0-5.538-2.351-8.636-4.423-10.3a19.4,19.4,0,0,0-4.074-8.378c.035-1.669.419-2.848,1.126-3.407,1.275-1.008,3.424.06,3.445.071a.748.748,0,0,0,1.055-.44,5.248,5.248,0,0,0-3.007-6.472,8.831,8.831,0,0,0-.942-1.329,8.56,8.56,0,0,0-6.686-3.1c-6.723,0-13.506,3.738-13.506,12.089,0,5.364-1.99,7.425-2.412,7.8l-.144.119c-7.763,5.267-11.981,15.659-12.2,30.064a96.186,96.186,0,0,0,1.82,19.376h-8.995a.75.75,0,0,0,0,1.5Zm12.113-1.5c.006-.369.019-.736.035-1.1s.027-.746.054-1.113c.037-.512.1-1.014.151-1.517.038-.338.066-.681.113-1.015.077-.549.177-1.085.278-1.622.051-.274.09-.555.147-.826.17-.8.363-1.588.586-2.357.149-.518.3-1,.463-1.461.074-.216.149-.4.224-.6.083-.224.166-.459.248-.666l.02-.046,0,.069c-.015.224-.028.465-.041.7-.008.151-.018.292-.026.448q-.028.6-.049,1.258c0,.112,0,.234-.007.348-.009.335-.017.671-.02,1.023,0,.177,0,.363,0,.544,0,.3,0,.607,0,.923,0,.205.008.418.012.628.007.3.013.608.023.921.008.225.019.455.029.684.014.312.029.624.048.943.014.239.031.48.048.722.022.321.046.642.074.968.021.249.046.5.07.753.032.33.068.662.106,1,.015.133.026.262.042.4Zm5.6-.037c-.016.014-.033.023-.048.037h-1.409c-.016-.125-.031-.251-.045-.375q-.084-.712-.149-1.411c-.018-.193-.037-.387-.053-.577-.052-.629-.1-1.251-.129-1.857l0-.074c-.03-.59-.05-1.163-.064-1.726,0-.185-.007-.365-.01-.546-.007-.407-.011-.807-.01-1.2,0-.177,0-.354,0-.527q.006-.675.023-1.307c0-.077,0-.16.005-.236.016-.491.036-.957.059-1.4.007-.139.015-.269.023-.4.018-.308.036-.606.056-.887.01-.134.019-.268.029-.4q.033-.418.066-.789c.006-.064.011-.134.017-.2L748,919.389v4.8c-.172.029-.37.073-.579.128l-.069.017a5.9,5.9,0,0,0-.638.219c-.036.014-.07.027-.106.043a5.179,5.179,0,0,0-.657.337c-.039.023-.076.047-.115.072A4.534,4.534,0,0,0,745.2,925.489ZM767.3,901.444a.754.754,0,0,0-.872.6,19.56,19.56,0,0,1-8.14,12.24.7.7,0,0,0-.153.123c-.009.009-.021.016-.029.025l-.005.006a.812.812,0,0,0-.137.221c-.008.021-.323.809-.882,1.961l-.011.024q-.132.272-.281.566l-.037.073q-.14.276-.294.568l-.058.109c-.1.184-.2.373-.307.565-.027.05-.056.1-.085.151-.1.181-.2.363-.312.547l-.114.193q-.153.258-.314.518c-.048.078-.1.155-.145.232q-.155.246-.316.49-.084.128-.171.255-.155.23-.315.457c-.067.094-.134.188-.2.281-.1.141-.207.279-.313.417-.075.1-.152.2-.229.3-.1.129-.207.255-.312.381-.084.1-.168.2-.254.3-.04.046-.081.089-.121.134-.183-.087-.372-.171-.566-.25v-3.493a25.928,25.928,0,0,0,4.252-14.417.75.75,0,0,0-1.5,0,24.936,24.936,0,0,1-3.892,13.424h-2.009l-5.228-9.15c.2-.3.386-.6.573-.9l.246-.39q.269-.427.528-.844l.131-.214.134-.214c.164-.266.323-.527.481-.785l.23-.379c.217-.361.428-.714.63-1.057l.1-.17q.261-.447.507-.877l.218-.387c.116-.2.229-.408.34-.606l.223-.407c.1-.191.2-.378.323-.6l.179-.338c.129-.245.251-.484.37-.72l.221-.444c.087-.177.174-.354.255-.526l.38-.82c.058-.129.115-.256.17-.382s.12-.278.178-.416l.153-.365c.069-.17.135-.336.2-.5s.133-.348.2-.518c.048-.131.1-.263.142-.394s.084-.244.124-.366l.119-.364c.036-.115.071-.228.1-.339l.1-.357c.031-.109.063-.219.092-.329l.091-.362c.049-.2.1-.395.139-.591l.066-.3c.025-.121.048-.242.069-.36l.053-.29c.02-.12.04-.24.059-.36l.041-.279c.018-.121.036-.243.052-.371l.022-.2c.03-.253.056-.507.078-.76l.062-.857.624-.4a31.962,31.962,0,0,0,11.127,6.66.774.774,0,0,0,.238.041l.014,0a.756.756,0,0,0,.194-.025l.057-.017.051-.015.077-.024.077-.024.113-.039.1-.036.142-.052.124-.047.227-.092.156-.066c.084-.037.171-.075.262-.117l.146-.069.238-.117.168-.087c.082-.043.165-.089.251-.136l.174-.1c.093-.053.187-.11.282-.169.053-.033.106-.064.16-.1.148-.093.3-.191.447-.3l.075-.055c.128-.092.256-.187.385-.287.054-.042.107-.088.161-.131.1-.082.2-.166.3-.253.06-.052.119-.106.179-.161.1-.087.191-.178.285-.271.059-.057.117-.114.175-.174.028-.029.058-.056.086-.086a43.256,43.256,0,0,1-1.617,13.927l-.008.028c-.337,1.186-.74,2.408-1.215,3.652-.027.071-.055.142-.082.212-.237.611-.489,1.226-.764,1.846v0c-.26.587-.544,1.179-.84,1.773-.056.113-.112.226-.17.34q-.449.88-.953,1.768c-.054.094-.112.189-.167.283q-.454.782-.956,1.565c-.051.08-.1.16-.154.241h-1.882l-.517-1.549-.548-1.646a20.791,20.791,0,0,0,8.348-12.928.716.716,0,0,0,.013-.137A.751.751,0,0,0,767.3,901.444ZM751.58,925.526a.751.751,0,0,0-.663,1.1,5.341,5.341,0,0,1,.661,2.8,7.321,7.321,0,0,0-2.47-2.389.642.642,0,0,0-.07-.034,4.043,4.043,0,0,0-.692-.216c-.041-.009-.082-.02-.122-.027a3.7,3.7,0,0,0-.629-.063c-.018,0-.037-.006-.054-.006-.041,0-.08.007-.121.008-.086,0-.171.008-.256.017-.065.006-.13.014-.194.024-.083.013-.165.029-.246.047-.061.013-.121.026-.18.042-.087.023-.171.051-.255.08-.05.016-.1.031-.149.05-.13.049-.257.1-.379.163a2.666,2.666,0,0,1,.263-.345,4.186,4.186,0,0,1,2.729-1.168.75.75,0,0,0,.743-.75V919.94h1.334v3.5a.751.751,0,0,0,.5.706,9.268,9.268,0,0,1,1.373.613,5.308,5.308,0,0,1,2.06,1.9,4.065,4.065,0,0,1,.408.95A4.808,4.808,0,0,0,751.58,925.526Zm7.754-1.069a4.079,4.079,0,0,0-.508.445c-.041.041-.079.083-.117.126a3.458,3.458,0,0,0-.344.447c-.011.018-.028.033-.039.051h-2.512c-.031-.045-.076-.084-.109-.129a6.039,6.039,0,0,0-.461-.546c-.069-.074-.133-.15-.208-.222a7,7,0,0,0-.8-.673l-.01-.008c.039-.045.075-.094.113-.139.107-.125.209-.253.312-.382.149-.183.3-.366.438-.554.1-.134.2-.268.3-.4.137-.189.272-.378.4-.569.094-.138.186-.274.277-.411.127-.193.25-.384.371-.577.085-.135.169-.268.251-.4.12-.2.234-.391.347-.584.073-.126.146-.25.216-.373.114-.2.221-.4.327-.592.059-.109.12-.219.177-.326.111-.208.212-.406.312-.6.043-.083.089-.17.129-.251.135-.271.261-.529.375-.767l.765,2.3Zm10.14,2.431a2.926,2.926,0,0,1,.873.928,13.4,13.4,0,0,0-4.593-.872.752.752,0,0,0-.658.388.736.736,0,0,0-.009.655.64.64,0,0,0,.031.1v0h0l.007.013.019.031.041.078.019.036c.024.046.051.1.079.168l0,.006a3.687,3.687,0,0,1,.32,1.59,6.946,6.946,0,0,0-2.795-2.786c-.1-.044-.209-.069-.313-.1a3.254,3.254,0,0,0-.321-.107,3.019,3.019,0,0,0-.677-.076h-2.129a1.656,1.656,0,0,1,.105-.384h0a2.3,2.3,0,0,1,.993-1.058.748.748,0,0,0,.363-.642V919.94h1.335v3.483c0,.011,0,.034,0,.066a2.337,2.337,0,0,0,.552,1.456h0a2.083,2.083,0,0,0,1.615.663A9.854,9.854,0,0,1,769.474,926.888Zm1.257-26.976c.02-.177.038-.349.055-.521.016-.146.031-.293.045-.436.015-.17.029-.335.042-.5.012-.139.024-.28.034-.417.011-.166.021-.325.031-.487.007-.128.016-.259.023-.384.009-.168.014-.33.021-.494,0-.111.01-.225.014-.334.006-.2.01-.4.013-.592,0-.06,0-.125,0-.185q.006-.378,0-.731c0-.07,0-.135,0-.2,0-.161,0-.322-.007-.475,0-.091-.005-.176-.008-.264,0-.122-.007-.246-.011-.362,0-.086-.008-.164-.011-.246-.006-.112-.011-.224-.017-.329,0-.074-.008-.141-.013-.212-.006-.1-.012-.2-.019-.3-.005-.067-.01-.128-.015-.191-.007-.089-.014-.177-.021-.258-.005-.06-.01-.114-.015-.17-.008-.077-.015-.151-.022-.22-.005-.047-.009-.089-.014-.133-.007-.068-.014-.132-.021-.191-.005-.037-.008-.069-.013-.1-.006-.056-.013-.107-.019-.152l-.009-.069-.008-.06.021-.076.018-.067.054-.2c.007-.028.014-.052.022-.083.02-.079.043-.168.066-.261.01-.037.018-.07.028-.11.033-.133.069-.278.106-.436l.008-.034c.034-.146.069-.3.106-.464.013-.059.027-.123.04-.184.027-.123.054-.249.082-.381.015-.076.031-.156.047-.235.026-.127.052-.257.078-.392.017-.087.034-.175.05-.265.026-.136.051-.275.076-.418.017-.1.034-.19.05-.287.025-.148.05-.3.074-.453.016-.1.031-.194.046-.294.026-.168.05-.339.074-.513.013-.091.026-.181.039-.274q.043-.337.084-.687c.005-.045.011-.088.016-.134q.047-.42.085-.853c.006-.075.011-.152.017-.228.018-.214.035-.429.048-.647.007-.105.012-.21.017-.315.011-.193.021-.387.028-.582,0-.117.007-.235.009-.352s.008-.219.01-.329a11.584,11.584,0,0,1,2.755,8.086v8.536c0,.084.292,8.469-5.326,12.093a.75.75,0,0,0-.341.579c-.005.062-.465,5.907-5.589,12.2v-3.421c.157-.241.3-.481.456-.721.1-.16.205-.321.3-.48.192-.314.374-.626.555-.939.069-.119.142-.238.209-.357q.367-.648.706-1.292c.035-.068.067-.135.1-.2.187-.361.37-.722.544-1.081.074-.152.141-.3.213-.455.128-.274.258-.547.379-.819.077-.172.147-.342.221-.513.107-.25.216-.5.318-.748.074-.181.143-.36.214-.54.093-.236.186-.471.274-.705.07-.187.135-.372.2-.557.08-.224.161-.448.237-.67.065-.188.125-.375.187-.562.071-.218.142-.435.209-.65.057-.186.112-.369.166-.553.064-.213.126-.426.185-.637.052-.184.1-.366.15-.548.055-.206.108-.41.159-.614.047-.182.091-.364.134-.544q.072-.3.138-.595c.04-.179.079-.356.116-.533.042-.194.081-.387.119-.579.035-.173.068-.346.1-.516.035-.191.069-.379.1-.567.029-.168.058-.335.084-.5.03-.184.058-.365.085-.546.024-.163.048-.325.07-.485.025-.18.047-.356.069-.532C770.694,900.218,770.713,900.063,770.731,899.912ZM769.39,865.5c0-.021.005-.04.007-.061.031-.349.074-.671.125-.969.005-.03.009-.064.015-.093.052-.291.112-.554.175-.8.011-.042.022-.085.033-.125.063-.228.129-.436.2-.62.012-.034.024-.066.037-.1.067-.178.134-.341.2-.477l.02-.039c.034-.073.063-.124.095-.184a3.6,3.6,0,0,1,1.986,3.681,6.158,6.158,0,0,0-1.835-.3,4.207,4.207,0,0,0-1.053.128Zm-.266-4.458-.012.022c-.075.127-.158.279-.245.459l-.031.065c-.088.184-.177.394-.267.633l-.033.09c-.088.244-.175.515-.255.815l-.031.116q-.118.461-.212,1.008c0,.026-.011.046-.015.073-.012-.01-.028-.018-.04-.028a6.353,6.353,0,0,0-.668-.464c-.057-.035-.117-.067-.176-.1-.2-.112-.4-.22-.608-.321-.071-.034-.141-.069-.214-.1-.267-.122-.539-.237-.818-.342l-.018-.007c-.278-.1-.558-.2-.839-.284l-.239-.073q-.344-.1-.681-.191l-.172-.046c-.274-.069-.541-.132-.8-.188l-.19-.039q-.3-.063-.575-.114l-.2-.037c-.221-.04-.432-.075-.618-.1a3.11,3.11,0,0,1,1.846-1.3,1.4,1.4,0,0,0-.095.5,1.417,1.417,0,1,0,2.834,0,1.4,1.4,0,0,0-.174-.667h3.1A7.738,7.738,0,0,1,769.124,861.046Zm-18.211,7.12c0-4.884,3.144-10.589,12.006-10.589a7.035,7.035,0,0,1,4.214,1.335h-2.752a4.873,4.873,0,0,0-5.017,3.376.749.749,0,0,0,.64.953c.154.017.32.038.493.061l.205.031c.113.017.225.033.343.052l.244.042c.111.02.222.038.337.06.093.017.188.037.282.056.11.022.218.043.329.067l.3.066c.111.025.222.05.334.077s.2.051.3.076.223.057.334.088.2.057.3.086.218.063.326.1.2.064.3.1.212.07.316.106l.287.106c.1.038.2.077.3.117s.181.076.27.114.19.085.282.128.168.081.249.123.174.092.257.139.15.086.22.13.155.1.228.152.128.09.187.136.129.108.189.164.1.094.15.143a2.08,2.08,0,0,1,.145.176c.038.05.078.1.109.149a1.447,1.447,0,0,1,.094.19,1.552,1.552,0,0,1,.064.154c0,.016,0,.032.008.048a5.764,5.764,0,0,0-1.35,3.779h-3.523c-.623,0-1.229.033-1.827.082-.184.014-.361.036-.542.055-.424.045-.841.1-1.251.164-.182.029-.362.057-.541.09q-.691.126-1.351.287c-.095.023-.2.042-.289.066-.525.133-1.033.282-1.527.441-.152.048-.3.1-.445.152-.344.117-.681.237-1.008.363-.167.065-.331.129-.494.2-.312.127-.612.257-.906.389-.134.06-.272.118-.4.179-.389.182-.763.366-1.117.55-.144.075-.272.148-.41.223-.217.117-.43.234-.631.349-.062.036-.134.072-.193.107A16.3,16.3,0,0,0,750.913,868.166Zm-1.285,7.757.126-.08q.231-.15.486-.306c.071-.044.146-.088.22-.133.155-.094.318-.189.486-.285.083-.048.166-.1.252-.144.191-.106.391-.214.6-.322.068-.036.133-.072.2-.108q.414-.215.862-.427c.065-.03.135-.06.2-.091.237-.11.479-.218.73-.325.109-.047.222-.092.333-.138.221-.091.446-.18.677-.267.122-.046.244-.092.369-.137.247-.09.5-.175.758-.259.109-.036.216-.073.327-.108q.55-.171,1.128-.322c.059-.015.12-.027.178-.042.33-.082.665-.159,1.007-.229.133-.027.268-.05.4-.075.279-.051.561-.1.847-.14.15-.022.3-.043.452-.062.295-.037.595-.066.9-.091.138-.012.274-.026.413-.035.441-.028.887-.046,1.341-.046h3.9a17.866,17.866,0,0,1,3.752,7.894,9.35,9.35,0,0,1,.1,1.277c0,.3-.006.6-.015.891,0,.1-.009.191-.013.287-.008.2-.017.4-.029.594-.006.112-.015.223-.023.334-.013.177-.025.355-.04.53-.01.118-.022.234-.033.351-.016.164-.032.327-.05.487-.013.119-.027.236-.041.353-.019.156-.038.312-.058.465-.015.113-.03.225-.046.336-.021.149-.042.3-.064.442-.016.109-.033.217-.05.324-.023.142-.046.281-.069.418-.017.1-.034.2-.052.3-.024.138-.049.271-.073.4-.017.088-.033.178-.05.263-.026.135-.052.263-.078.391-.015.076-.031.154-.046.227-.027.128-.053.249-.079.368-.013.063-.027.129-.041.189-.029.132-.057.254-.085.373-.009.038-.018.08-.027.117-.036.15-.069.29-.1.416-.016.06-.028.109-.042.163s-.03.12-.043.171c-.02.077-.038.142-.054.2l-.013.05c-.016.06-.029.109-.041.148-.1.163-.219.308-.33.459-.1.129-.187.268-.288.389-.127.151-.261.283-.394.421-.1.107-.2.224-.308.324-.139.131-.281.243-.422.361-.1.086-.207.182-.311.262-.148.114-.293.209-.439.309-.1.066-.194.14-.288.2-.16.1-.311.186-.463.272-.074.042-.153.093-.225.132-.182.1-.349.178-.511.253-.033.016-.072.038-.1.052a9.157,9.157,0,0,1-.881.353,30.52,30.52,0,0,1-10.781-6.649.75.75,0,0,0-.231-.151.813.813,0,0,0-.088-.024.78.78,0,0,0-.172-.033c-.012,0-.023-.007-.034-.007a.808.808,0,0,0-.12.017c-.024,0-.046,0-.069.01a.762.762,0,0,0-.22.094l-.247.16c0-.144,0-.291,0-.441,0-.2,0-.4,0-.612,0-.711-.015-1.455-.028-2.245-.007-.477-.015-.97-.021-1.483l-.011-1.08c0-.306,0-.617,0-.937a6,6,0,0,0-.066-.861c-.011-.075-.024-.147-.037-.219a5.131,5.131,0,0,0-.153-.619c-.015-.044-.025-.091-.041-.134a4.445,4.445,0,0,0-.284-.64c-.028-.049-.057-.095-.086-.143a4.222,4.222,0,0,0-.3-.437c-.033-.043-.065-.088-.1-.13a4.322,4.322,0,0,0-.432-.452c-.025-.023-.052-.042-.077-.064a4.556,4.556,0,0,0-.414-.319l-.138-.093a5.431,5.431,0,0,0-.471-.271c-.014-.007-.028-.016-.043-.023-.174-.086-.348-.158-.523-.224l-.057-.024C749.271,876.16,749.443,876.044,749.628,875.923Zm-2.094,1.514a3.669,3.669,0,0,1,2.968,1.886l.027.059a3.059,3.059,0,0,1,.131.357c.011.037.023.072.033.109a3.494,3.494,0,0,1,.078.378c.007.045.018.087.023.134a4.34,4.34,0,0,1,.036.562c0,.324,0,.638,0,.947l0,.227h0l.007.737,0,.12v0c.006.517.014,1.013.021,1.492.013.783.025,1.52.028,2.229,0,.2,0,.4,0,.623,0,.534-.011,1.05-.031,1.564l-.087,1.408c-.021.238-.045.476-.074.718l-.02.182c-.015.113-.031.227-.048.344l-.039.261c-.017.111-.036.224-.055.335l-.049.27c-.021.111-.042.223-.065.336l-.061.284c-.041.183-.084.367-.129.55l-.086.338c-.027.1-.055.2-.093.331l-.09.311c-.034.113-.07.228-.105.341l-.221.664c-.043.122-.088.246-.134.371-.059.163-.121.326-.185.492s-.123.317-.19.479l-.146.348c-.056.133-.112.265-.172.4l-.529,1.156c-.079.167-.162.337-.264.543l-.2.394c-.11.219-.224.44-.341.665l-.019.037-.2.369c-.1.181-.194.364-.309.577l-.2.37-.111.2c-.073.132-.146.263-.223.4l-.213.377c-.161.283-.328.571-.5.862l-.1.169c-.2.339-.408.688-.623,1.045l-.825,1.347-.906,1.45c-.263.414-.532.835-.812,1.271a23.559,23.559,0,0,0-2.925,6.7c-.233.8-.435,1.625-.612,2.46-.058.278-.1.566-.151.848-.106.564-.212,1.128-.292,1.706-.048.342-.077.693-.116,1.039-.06.53-.121,1.059-.16,1.6-.027.377-.037.76-.054,1.141s-.05.779-.056,1.176h-.068C737.04,920.811,731.139,888.8,747.534,877.437Z" fill="#1a1a1a"/>
      <path id="Path_1007" data-name="Path 1007" d="M779.927,938.282H727.486a.75.75,0,0,0,0,1.5h8.839l-.7,1.864-1.676,4.468-1.5,4c-.007.021-.188.518-.381,1.3-.594,2.391-1.131,6.654,1.629,9.136l-4.089,12.266a.749.749,0,0,0,.562.972,6.372,6.372,0,0,0,1.141.089,6.925,6.925,0,0,0,6.8-4.814c1.59-4.271,2.456-7.164,2.746-8.176,1.38-.476,5.821-2.268,7.177-6l.758-2.085,2.382-6.551,1.376-3.783.974-2.678h26.4a.75.75,0,0,0,0-1.5Zm-33.3,16.085c-1.317,3.625-6.538,5.189-6.59,5.205a.749.749,0,0,0-.515.525c-.009.032-.88,3.244-2.814,8.437a5.44,5.44,0,0,1-5.372,3.852l3.952-11.857a.751.751,0,0,0-.263-.839c-2.092-1.557-2.115-4.46-1.761-6.636.116.091.246.172.369.257.09.063.176.128.27.188q.377.241.79.455c.041.021.077.045.118.066.319.159.655.3,1,.438.1.039.212.072.318.11.25.088.5.172.765.247.135.038.272.072.41.107q.37.093.751.167c.144.028.287.056.433.079.273.045.549.079.828.109.13.014.258.031.39.042.411.033.826.054,1.247.054.464,0,.921-.028,1.373-.067.125-.011.248-.025.371-.039.367-.042.727-.1,1.082-.162.087-.016.176-.029.263-.047.425-.088.838-.2,1.239-.318.1-.03.19-.064.285-.1.318-.106.625-.223.924-.35.061-.026.129-.045.189-.072Zm.841-2.314c-.083.059-.17.116-.257.173s-.2.133-.309.2-.248.135-.375.2c-.111.058-.22.117-.336.171-.133.063-.274.119-.413.176-.117.049-.233.1-.354.145-.147.054-.3.1-.452.15-.122.039-.242.081-.368.117-.159.045-.325.082-.49.122-.124.03-.246.063-.373.089-.176.036-.357.064-.536.093-.122.02-.241.044-.365.061-.2.027-.411.044-.618.063-.105.009-.207.024-.313.031q-.473.031-.955.032c-.39,0-.776-.017-1.156-.048-.13-.01-.255-.031-.384-.045-.246-.027-.493-.053-.732-.092-.149-.024-.291-.059-.437-.088-.211-.042-.423-.082-.627-.134-.15-.038-.292-.085-.438-.128-.19-.056-.381-.111-.562-.175-.144-.051-.28-.109-.419-.165-.171-.068-.342-.137-.5-.214-.135-.063-.261-.132-.389-.2-.152-.081-.3-.162-.446-.25-.121-.075-.235-.154-.349-.233-.132-.093-.262-.186-.384-.285-.106-.085-.2-.174-.3-.264-.066-.061-.127-.124-.189-.187.126-.454.225-.731.225-.731l1.132-3.018q.354.25.746.473c.016.01.034.017.051.027.266.15.544.289.833.42.1.044.2.083.3.125.213.089.429.175.652.254.124.043.25.082.376.122.212.067.427.13.646.187.135.035.27.069.408.1.223.051.45.1.679.137.137.024.273.05.412.07.251.038.505.066.761.091.121.011.24.027.362.036.379.028.763.045,1.15.045a15.26,15.26,0,0,0,1.611-.093c.153-.016.3-.038.455-.059q.591-.08,1.159-.2c.138-.03.276-.057.412-.091a13.172,13.172,0,0,0,1.419-.434c.054-.02.1-.046.155-.066a11.368,11.368,0,0,0,1.131-.519c.054-.029.117-.049.171-.079Zm2.357-6.48c-.092.1-.2.193-.3.288s-.183.18-.286.264c-.124.1-.263.193-.4.288-.113.079-.219.161-.339.236-.143.089-.3.167-.454.249-.128.069-.251.143-.386.206-.162.077-.336.143-.507.212-.14.057-.276.119-.422.171-.183.065-.377.118-.567.175-.147.043-.288.093-.439.131-.207.053-.423.092-.636.135-.146.029-.287.065-.435.09-.24.039-.488.064-.735.091-.13.014-.257.036-.388.047q-.573.047-1.162.047c-.354,0-.7-.014-1.049-.039-.114-.009-.225-.025-.338-.036-.228-.022-.457-.045-.68-.078-.131-.019-.258-.046-.388-.07-.2-.035-.4-.071-.591-.115-.133-.03-.262-.067-.392-.1-.182-.048-.363-.1-.538-.152-.129-.041-.255-.086-.38-.131-.167-.06-.333-.121-.493-.188-.122-.05-.239-.1-.357-.159-.153-.071-.3-.144-.449-.222-.112-.06-.221-.121-.327-.185-.139-.082-.273-.168-.4-.256-.1-.068-.2-.137-.291-.208-.052-.039-.1-.082-.149-.122l1.188-3.166.007,0c.066.031.136.056.2.086.207.093.415.186.629.266.116.043.237.077.355.117.171.057.34.118.515.168.137.039.279.07.418.1.161.04.321.084.484.119.147.031.3.054.445.081s.318.061.48.086.31.039.466.057.316.042.475.057.319.024.479.035.316.024.474.031.323.01.484.014.315.009.472.009l.083,0c.067,0,.135-.005.2-.005q.466,0,.93-.025l.347-.016c.353-.021.7-.046,1.05-.078l.1-.008c.375-.036.741-.079,1.1-.127.112-.014.221-.03.332-.045.273-.038.541-.079.8-.121l.271-.044c.331-.057.653-.116.962-.176l.239-.049q.361-.074.7-.148l.258-.057.165-.037Zm1.452-3.995-.06.015-.262.066-.308.075c-.111.027-.231.054-.351.082l-.319.072-.414.088-.35.072c-.149.03-.3.059-.459.089l-.383.069c-.163.028-.327.057-.5.084-.134.022-.273.043-.411.064-.173.026-.346.052-.524.076-.144.019-.292.036-.438.054-.181.022-.361.045-.546.065-.152.016-.307.028-.461.041-.185.017-.368.035-.556.048s-.378.021-.567.03q-.435.021-.873.027c-.205,0-.409.008-.614.005-.157,0-.313-.011-.47-.017-.2-.006-.39-.012-.583-.025-.159-.01-.316-.028-.475-.042-.19-.018-.38-.035-.567-.059-.158-.021-.313-.047-.468-.072-.185-.029-.369-.06-.551-.1-.152-.031-.3-.066-.451-.1q-.27-.066-.533-.142c-.145-.042-.287-.088-.427-.136-.174-.059-.344-.124-.511-.192-.134-.054-.266-.11-.395-.17-.064-.03-.124-.065-.186-.1l.663-1.768h14Z" fill="#1a1a1a"/>
    </g>
  </g>
</svg>