<?xml version="1.0" encoding="utf-8"?>
<svg width="800px" height="800px" viewBox="0 -27.61 133.311 133.311" xmlns="http://www.w3.org/2000/svg">
  <g id="Group_6643" data-name="Group 6643" transform="translate(-246.346 -931.438)">
    <g id="Group_6642" data-name="Group 6642">
      <g id="Group_6572" data-name="Group 6572">
        <g id="Group_6571" data-name="Group 6571">
          <g id="Group_6570" data-name="Group 6570">
            <path id="Path_2379" data-name="Path 2379" d="M270.226,962.036c.017-.107.038-.212.056-.319L247.1,990.358c1.186,9,8.5,7.087,8.5,7.087l22.677-29.764C274.73,967.09,271.934,964.27,270.226,962.036Z" fill="#333"/>
          </g>
        </g>
      </g>
      <g id="Group_6575" data-name="Group 6575">
        <g id="Group_6574" data-name="Group 6574">
          <g id="Group_6573" data-name="Group 6573">
            <path id="Path_2380" data-name="Path 2380" d="M277.652,955.19l-4.938-1.646a35.257,35.257,0,0,0-2.432,8.173c-.018.107-.039.212-.056.319A35.442,35.442,0,0,1,277.652,955.19Z" fill="#ffff40"/>
          </g>
        </g>
      </g>
      <g id="Group_6578" data-name="Group 6578">
        <g id="Group_6577" data-name="Group 6577">
          <g id="Group_6576" data-name="Group 6576">
            <path id="Path_2381" data-name="Path 2381" d="M277.652,955.19a35.442,35.442,0,0,0-7.426,6.846c1.708,2.234,4.5,5.054,8.051,5.645,0,0,7.526-2.962,12.42-8.143Z" fill="#f95b67"/>
          </g>
        </g>
      </g>
      <g id="Group_6581" data-name="Group 6581">
        <g id="Group_6580" data-name="Group 6580">
          <g id="Group_6579" data-name="Group 6579">
            <path id="Path_2382" data-name="Path 2382" d="M343.474,957.76s-2.423-.1-6.716-6.2a59.031,59.031,0,0,1-3.2-5.141v0a35.659,35.659,0,0,0-7.086-7.085h0c3.564,6.966,2.484,11.759.72,14.708a11.179,11.179,0,0,1-3.554,3.717,36.223,36.223,0,0,0,16.738,5.616c.555.033,1.117.053,1.687.053,10.27,0,12.756.66,12.756,4.252h2.834S358.288,960.747,343.474,957.76Z" fill="#333"/>
          </g>
        </g>
      </g>
      <g id="Group_6584" data-name="Group 6584">
        <g id="Group_6583" data-name="Group 6583">
          <g id="Group_6582" data-name="Group 6582">
            <path id="Path_2383" data-name="Path 2383" d="M326.466,939.335h0a35.27,35.27,0,0,0-21.259-7.086,102.217,102.217,0,0,0-32.6,4.252,52.186,52.186,0,0,0,7.851,5.84,94.343,94.343,0,0,0,33.251,12.585s6.81-1.928,9.922,2.835a11.179,11.179,0,0,0,3.554-3.717C328.95,951.094,330.03,946.3,326.466,939.335Z" fill="#333"/>
          </g>
        </g>
      </g>
      <g id="Group_6587" data-name="Group 6587">
        <g id="Group_6586" data-name="Group 6586">
          <g id="Group_6585" data-name="Group 6585">
            <path id="Path_2384" data-name="Path 2384" d="M336.758,952.312a.752.752,0,0,1-.614-.318,60.565,60.565,0,0,1-3.241-5.2c-.008-.013-.015-.027-.022-.04a.75.75,0,0,1,1.27-.787,36.318,36.318,0,0,1,3.274,5.252.75.75,0,0,1-.667,1.092Z" fill="#7a7a7a"/>
          </g>
        </g>
      </g>
      <g id="Group_6590" data-name="Group 6590">
        <g id="Group_6589" data-name="Group 6589">
          <g id="Group_6588" data-name="Group 6588">
            <path id="Path_2385" data-name="Path 2385" d="M323.632,957.76c-3.112-4.763-9.922-2.835-9.922-2.835a7.485,7.485,0,0,0,1.109,6.984C316.561,957.128,323.632,957.76,323.632,957.76Z" fill="#b3b3b3"/>
          </g>
        </g>
      </g>
      <g id="Group_6593" data-name="Group 6593">
        <g id="Group_6592" data-name="Group 6592">
          <g id="Group_6591" data-name="Group 6591">
            <path id="Path_2386" data-name="Path 2386" d="M349.144,970.516l5.669-2.835c0-3.234-2.019-4.091-9.92-4.23C344.9,969.254,349.144,970.516,349.144,970.516Z" fill="#689fca"/>
          </g>
        </g>
      </g>
      <g id="Group_6596" data-name="Group 6596">
        <g id="Group_6595" data-name="Group 6595">
          <g id="Group_6594" data-name="Group 6594">
            <path id="Path_2387" data-name="Path 2387" d="M313.71,954.925a94.343,94.343,0,0,1-33.251-12.585,35.648,35.648,0,0,0-5.184,6.388l16.651,5.55a5.459,5.459,0,0,0-.893-.77s.523-1.417,2.835-1.417a2.694,2.694,0,0,1,2.835,2.834,3.017,3.017,0,0,1,2.622,1.682l.212-.264S301.8,952.869,313.71,954.925Z" fill="#333"/>
          </g>
        </g>
      </g>
      <g id="Group_6599" data-name="Group 6599">
        <g id="Group_6598" data-name="Group 6598">
          <g id="Group_6597" data-name="Group 6597">
            <path id="Path_2388" data-name="Path 2388" d="M313.71,954.925c-11.908-2.056-14.173,1.418-14.173,1.418l-.212.264c.021.053.045.1.063.158l15.431,5.144A7.485,7.485,0,0,1,313.71,954.925Z" fill="#f95b67"/>
          </g>
        </g>
      </g>
      <g id="Group_6602" data-name="Group 6602">
        <g id="Group_6601" data-name="Group 6601">
          <g id="Group_6600" data-name="Group 6600">
            <path id="Path_2389" data-name="Path 2389" d="M321.552,966.738c-.236.29-.486.6-.755.943a7.626,7.626,0,0,1-1.413,1.419l10.574,3.525c-.425-.427-.657-.692-.657-.692S325.5,969.369,321.552,966.738Z" fill="#be8a66"/>
          </g>
        </g>
      </g>
      <g id="Group_6605" data-name="Group 6605">
        <g id="Group_6604" data-name="Group 6604">
          <g id="Group_6603" data-name="Group 6603">
            <path id="Path_2390" data-name="Path 2390" d="M325.049,963.429" fill="none" stroke="#7a7a7a" stroke-linecap="round" stroke-linejoin="round" stroke-width="3"/>
          </g>
        </g>
      </g>
      <g id="Group_6608" data-name="Group 6608">
        <g id="Group_6607" data-name="Group 6607">
          <g id="Group_6606" data-name="Group 6606">
            <path id="Path_2391" data-name="Path 2391" d="M347.726,974.768l1.418-4.252s-4.24-1.262-4.251-7.065c-.873-.015-1.815-.022-2.836-.022-.57,0-1.132-.02-1.687-.053a36.223,36.223,0,0,1-16.738-5.616s-7.071-.632-8.813,4.149a7.683,7.683,0,0,0,1.726,1.52c.5.33,1.043.683,1.6,1.051,1.088.717,2.253,1.49,3.406,2.258,3.951,2.631,7.749,5.2,7.749,5.2s.232.265.657.692c2.2,2.21,9.651,8.837,17.768,6.4h2.835Z" fill="#e5e5e5"/>
          </g>
        </g>
      </g>
      <g id="Group_6611" data-name="Group 6611">
        <g id="Group_6610" data-name="Group 6610">
          <g id="Group_6609" data-name="Group 6609">
            <path id="Path_2392" data-name="Path 2392" d="M318.146,964.48l-.184.367a4.719,4.719,0,0,1-3.185,2.717,4.8,4.8,0,0,1-1.067.117s2.43,3.835,5.674,1.419a7.626,7.626,0,0,0,1.413-1.419c.269-.341.519-.653.755-.943C320.4,965.97,319.234,965.2,318.146,964.48Z" fill="#b3b3b3"/>
          </g>
        </g>
      </g>
      <g id="Group_6614" data-name="Group 6614">
        <g id="Group_6613" data-name="Group 6613">
          <g id="Group_6612" data-name="Group 6612">
            <path id="Path_2393" data-name="Path 2393" d="M293.473,956.792a7.02,7.02,0,0,1,.346,1.515A7.02,7.02,0,0,0,293.473,956.792Z" fill="#b3b3b3"/>
          </g>
        </g>
      </g>
      <g id="Group_6617" data-name="Group 6617">
        <g id="Group_6616" data-name="Group 6616">
          <g id="Group_6615" data-name="Group 6615">
            <path id="Path_2394" data-name="Path 2394" d="M292.248,954.638a6.934,6.934,0,0,1,1.225,2.154A6.934,6.934,0,0,0,292.248,954.638Z" fill="none"/>
          </g>
        </g>
      </g>
      <g id="Group_6620" data-name="Group 6620">
        <g id="Group_6619" data-name="Group 6619">
          <g id="Group_6618" data-name="Group 6618">
            <path id="Path_2395" data-name="Path 2395" d="M293.819,958.307a7.02,7.02,0,0,0-.346-1.515,6.934,6.934,0,0,0-1.225-2.154c-.11-.132-.218-.252-.322-.36l-16.651-5.55L255.6,942.169v5.67l17.114,5.705,20.76,6.919a4.688,4.688,0,0,0,.394-1.286A7.6,7.6,0,0,0,293.819,958.307Z" fill="#be8a66"/>
          </g>
        </g>
      </g>
      <g id="Group_6623" data-name="Group 6623">
        <g id="Group_6622" data-name="Group 6622">
          <g id="Group_6621" data-name="Group 6621">
            <path id="Path_2396" data-name="Path 2396" d="M296.7,963.429l-1.407-1.406a4.818,4.818,0,0,1-2.845,1.406,1.617,1.617,0,0,1-.549-.09,20.371,20.371,0,0,0-2.286,5.76c12.048,1.617,20.052-1.066,22.917-2.283l-13.173-4.391C299.088,962.844,298.4,963.429,296.7,963.429Z" fill="#333"/>
          </g>
        </g>
      </g>
      <g id="Group_6626" data-name="Group 6626">
        <g id="Group_6625" data-name="Group 6625">
          <g id="Group_6624" data-name="Group 6624">
            <path id="Path_2397" data-name="Path 2397" d="M316.545,963.429a7.683,7.683,0,0,1-1.726-1.52l-15.431-5.144a3.22,3.22,0,0,1,.149.995v4.252a1.139,1.139,0,0,1-.177.413l13.173,4.391,2.244.748a4.719,4.719,0,0,0,3.185-2.717l.184-.367C317.588,964.112,317.05,963.759,316.545,963.429Z" fill="#be8a66"/>
          </g>
        </g>
      </g>
      <g id="Group_6629" data-name="Group 6629">
        <g id="Group_6628" data-name="Group 6628">
          <g id="Group_6627" data-name="Group 6627">
            <path id="Path_2398" data-name="Path 2398" d="M299.388,956.765a2.963,2.963,0,0,0-2.685-1.84v4.252a2.968,2.968,0,0,1-.049.527,3.833,3.833,0,0,1-.709,1.583,5.407,5.407,0,0,1-.649.736l1.407,1.406c1.7,0,2.385-.585,2.657-1a1.139,1.139,0,0,0,.177-.413V957.76A3.22,3.22,0,0,0,299.388,956.765Z" fill="#b3b3b3"/>
          </g>
        </g>
      </g>
      <g id="Group_6632" data-name="Group 6632">
        <g id="Group_6631" data-name="Group 6631">
          <g id="Group_6630" data-name="Group 6630">
            <path id="Path_2399" data-name="Path 2399" d="M293.868,952.091c-2.312,0-2.835,1.417-2.835,1.417a5.459,5.459,0,0,1,.893.77c.1.108.212.228.322.36a6.934,6.934,0,0,1,1.225,2.154,7.02,7.02,0,0,1,.346,1.515,7.6,7.6,0,0,1,.049.87,4.688,4.688,0,0,1-.394,1.286,2.438,2.438,0,0,1-2.441,1.549,1.459,1.459,0,0,0,.869,1.327,1.617,1.617,0,0,0,.549.09,4.818,4.818,0,0,0,2.845-1.406,5.407,5.407,0,0,0,.649-.736,3.833,3.833,0,0,0,.709-1.583,2.968,2.968,0,0,0,.049-.527v-4.252A2.694,2.694,0,0,0,293.868,952.091Z" fill="#b3b3b3"/>
          </g>
        </g>
      </g>
      <g id="Group_6635" data-name="Group 6635">
        <g id="Group_6634" data-name="Group 6634">
          <g id="Group_6633" data-name="Group 6633">
            <path id="Path_2400" data-name="Path 2400" d="M358.014,970.3a18.673,18.673,0,0,0-5.663,10.132c5.355,4.342,20.887,17.843,20.887,28.352a9.066,9.066,0,0,0,4.244-3.434C377.2,985.838,363.077,973.942,358.014,970.3Z" fill="#333"/>
          </g>
        </g>
      </g>
      <g id="Group_6638" data-name="Group 6638">
        <g id="Group_6637" data-name="Group 6637">
          <g id="Group_6636" data-name="Group 6636">
            <path id="Path_2401" data-name="Path 2401" d="M359.807,968.9q-.619-.37-1.261-.73c-.3-.165-.593-.33-.9-.491h-2.835l-5.669,2.835-1.418,4.252,2.835,4.252s.674.507,1.79,1.412a18.673,18.673,0,0,1,5.663-10.132c5.063,3.642,19.183,15.538,19.468,35.05a9.066,9.066,0,0,0,1.425-5.07C378.907,993.949,375.591,978.347,359.807,968.9Z" fill="#ffff40"/>
          </g>
        </g>
      </g>
      <g id="Group_6641" data-name="Group 6641">
        <g id="Group_6640" data-name="Group 6640">
          <g id="Group_6639" data-name="Group 6639">
            <path id="Path_2402" data-name="Path 2402" d="M325.049,963.429" fill="none" stroke="#1a1a1a" stroke-linecap="round" stroke-linejoin="round" stroke-width="3"/>
          </g>
        </g>
      </g>
    </g>
    <path id="Path_2403" data-name="Path 2403" d="M360.192,968.258h0q-.628-.376-1.279-.739c-.173-.1-.35-.192-.526-.288-.137-1.771-1.614-7.555-14.764-10.206a.431.431,0,0,0-.088-.013c-.022,0-2.247-.329-6.15-5.863a36,36,0,0,0-10.466-12.412l0,0a35.83,35.83,0,0,0-21.663-7.235h0a103.905,103.905,0,0,0-32.867,4.285.749.749,0,0,0-.3,1.253,50.752,50.752,0,0,0,7.2,5.44,36.378,36.378,0,0,0-4.311,5.359l-19.136-6.379a.75.75,0,1,0-.474,1.423l27.572,9.191,8.565,2.855c.057.063.113.122.172.192a6.15,6.15,0,0,1,1.092,1.921,6.237,6.237,0,0,1,.31,1.353h0a7.065,7.065,0,0,1,.044.73c-.005.033-.015.086-.03.152-.006.032-.018.076-.028.114s-.018.079-.031.126l0,.008-37.189-12.4a.75.75,0,1,0-.474,1.423L271.723,954a36.042,36.042,0,0,0-2.139,7.385l-23.071,28.5a.752.752,0,0,0-.161.57c.417,3.162,1.607,5.424,3.538,6.722a7.328,7.328,0,0,0,4.11,1.188,7.548,7.548,0,0,0,1.79-.2.742.742,0,0,0,.407-.271l22.553-29.6a40.144,40.144,0,0,0,12.15-7.9l1.386.462a1.546,1.546,0,0,1-1.206.405.762.762,0,0,0-.561.2.753.753,0,0,0-.236.548,2.339,2.339,0,0,0,.63,1.556,20.751,20.751,0,0,0-2.033,5.387.748.748,0,0,0,.636.885,56.1,56.1,0,0,0,7.466.51,41.463,41.463,0,0,0,15.578-2.736l.416.139a.74.74,0,0,0,.1.328,5.932,5.932,0,0,0,3.451,2.5,3.8,3.8,0,0,0,.694.064,4.183,4.183,0,0,0,2.265-.725l10.069,3.356c1.975,1.956,7.746,7.019,14.556,7.018a13.254,13.254,0,0,0,3.723-.529h2.472c.273.209.819.634,1.571,1.244,4.835,3.921,20.61,17.509,20.61,27.77a.749.749,0,0,0,.988.711,9.585,9.585,0,0,0,6.181-9.215C379.657,992.713,375.557,977.453,360.192,968.258Zm-.77,1.287h0c14.789,8.85,18.735,23.483,18.735,30.735a9.787,9.787,0,0,1-.125,1.581c0-.034-.009-.066-.012-.1-.025-.234-.057-.463-.085-.7-.042-.344-.082-.689-.132-1.028-.036-.242-.079-.48-.119-.72-.054-.321-.106-.641-.167-.957-.046-.244-.1-.485-.151-.727-.063-.3-.127-.608-.2-.907-.057-.242-.119-.48-.179-.719-.075-.292-.15-.584-.231-.872-.066-.237-.135-.471-.2-.705-.085-.283-.171-.565-.26-.843-.074-.23-.151-.458-.229-.684q-.141-.414-.289-.821-.123-.333-.249-.663c-.1-.268-.209-.533-.317-.8-.088-.214-.176-.427-.266-.639-.113-.262-.227-.52-.344-.777-.093-.206-.186-.411-.281-.614q-.182-.384-.369-.76c-.1-.2-.193-.392-.292-.585-.13-.253-.264-.5-.4-.75-.1-.183-.2-.367-.3-.548-.14-.252-.284-.5-.428-.747-.1-.168-.194-.339-.294-.505-.155-.26-.313-.512-.471-.765-.092-.147-.182-.3-.275-.441-.181-.283-.364-.557-.548-.832-.073-.109-.145-.221-.218-.329q-.781-1.145-1.588-2.195c-.065-.085-.131-.166-.2-.25-.2-.261-.4-.52-.609-.772-.093-.115-.185-.225-.278-.338-.176-.214-.353-.429-.529-.637-.1-.123-.208-.241-.312-.361-.166-.191-.331-.382-.5-.568-.107-.121-.214-.237-.322-.356-.161-.178-.322-.355-.483-.527-.108-.117-.216-.23-.324-.345q-.236-.247-.468-.488c-.11-.113-.218-.223-.328-.334-.151-.153-.3-.3-.451-.451-.109-.109-.218-.214-.326-.32-.147-.142-.292-.282-.437-.419l-.317-.3q-.216-.2-.427-.394l-.3-.272c-.142-.129-.283-.253-.422-.376l-.278-.244c-.138-.12-.272-.235-.406-.349l-.267-.227c-.132-.11-.258-.215-.385-.319-.082-.068-.165-.137-.246-.2-.128-.1-.252-.2-.375-.3l-.218-.173c-.123-.1-.24-.187-.356-.277l-.192-.148c-.125-.1-.243-.184-.36-.271l-.136-.1c-.157-.117-.306-.226-.445-.325a.726.726,0,0,0-.222-.108c-.024-.007-.049-.007-.074-.012a.765.765,0,0,0-.142-.022c-.006,0-.012,0-.019,0a.751.751,0,0,0-.168.03.867.867,0,0,0-.085.019.757.757,0,0,0-.228.138c-.443.4-.85.8-1.233,1.222-.128.139-.24.281-.361.422-.244.283-.484.566-.7.854-.127.168-.243.336-.363.505-.189.268-.373.535-.543.8-.112.177-.217.352-.321.529-.156.267-.3.531-.443.8-.091.175-.181.348-.266.523-.132.271-.252.538-.367.805-.07.163-.144.325-.208.485-.116.29-.219.572-.318.854-.045.13-.1.263-.14.392-.131.4-.249.792-.35,1.169l0,0c-.377-.3-.644-.5-.78-.607l-2.561-3.842,1.2-3.609,5.1-2.549.135-.068h2.471c.242.13.48.263.718.4Q358.811,969.181,359.422,969.545Zm-13.186-2.889-.015-.032c-.078-.189-.148-.392-.213-.6-.021-.067-.038-.138-.058-.207-.042-.153-.081-.312-.115-.476-.018-.083-.034-.168-.049-.253-.031-.173-.055-.353-.076-.538-.009-.081-.021-.159-.028-.242,0-.027,0-.058,0-.086.445.011.864.025,1.263.042,3.12.136,4.888.454,5.883.986l.062.033c.088.05.167.1.243.155s.133.1.193.153c.031.027.064.054.092.081a2.325,2.325,0,0,1,.631,1.557l-2.926,1.463-.057.028a2.123,2.123,0,1,0-1.21.381,2.085,2.085,0,0,0,.709-.131l-1.457.729-.048-.021-.085-.04c-.045-.022-.1-.048-.146-.075l-.074-.038c-.078-.043-.161-.092-.249-.146l-.082-.054c-.065-.043-.132-.088-.2-.137-.035-.026-.072-.053-.108-.081-.067-.05-.135-.1-.2-.161-.037-.03-.073-.06-.109-.092-.086-.075-.173-.156-.26-.242l-.057-.054c-.1-.106-.207-.222-.309-.345-.031-.036-.06-.077-.091-.115-.072-.092-.144-.188-.215-.289-.035-.051-.07-.1-.105-.157-.067-.1-.131-.211-.194-.323-.031-.054-.062-.106-.092-.162C346.392,967,346.311,966.835,346.236,966.656ZM332.923,946.83c.075.134.15.26.225.392.194.341.388.683.582,1.011.13.219.259.426.388.64.141.231.282.469.422.694.234.375.467.735.7,1.09.035.053.071.111.106.164q.4.609.8,1.173c4.109,5.832,6.681,6.445,7.219,6.509,11.094,2.245,13.1,6.722,13.462,8.428h-1.3l0-.02c-.247-2.17-1.617-3.224-4.343-3.74l-.067-.012q-.387-.072-.808-.13l-.273-.036c-.208-.026-.422-.049-.642-.071-.185-.019-.373-.037-.566-.053l-.369-.027c-1.766-.128-3.878-.163-6.395-.163-.521,0-1.058-.017-1.643-.051-.522-.031-1.036-.08-1.545-.138-.157-.018-.312-.04-.468-.06-.355-.047-.708-.1-1.055-.155-.166-.027-.33-.055-.494-.085-.355-.064-.7-.135-1.051-.21-.129-.028-.26-.053-.388-.082-.468-.108-.928-.222-1.376-.344l-.136-.04q-.6-.166-1.177-.349c-.131-.041-.258-.084-.386-.126-.3-.1-.6-.2-.885-.3l-.375-.135q-.461-.17-.9-.344c-.081-.032-.166-.064-.245-.1-.37-.15-.727-.3-1.068-.45l-.157-.072c-.282-.126-.555-.251-.815-.374l-.269-.13c-.219-.106-.431-.21-.632-.312l-.233-.118c-.222-.115-.433-.227-.631-.334l-.107-.057q-.348-.19-.639-.357l-.114-.067-.293-.173c.035-.029.08-.071.117-.1.128-.106.259-.219.4-.348.081-.073.16-.148.244-.228.14-.135.282-.28.429-.436.089-.092.174-.182.263-.283.159-.177.316-.373.476-.574.079-.1.156-.19.234-.295.235-.317.467-.654.689-1.025.1-.172.205-.354.3-.541.032-.06.062-.123.093-.184.067-.132.133-.265.2-.4.036-.076.069-.155.1-.233.058-.132.114-.265.168-.4.034-.085.067-.172.1-.259.052-.14.1-.284.148-.43.03-.089.059-.178.087-.27.047-.157.09-.32.132-.484.023-.085.046-.169.067-.257.05-.213.094-.432.134-.655.007-.043.018-.084.025-.129.045-.269.083-.546.112-.831.008-.076.011-.155.017-.233.018-.21.034-.423.042-.642,0-.107,0-.218.006-.327,0-.2,0-.394,0-.6,0-.122-.01-.245-.016-.369-.011-.2-.026-.4-.045-.611-.012-.127-.024-.255-.04-.385-.025-.217-.058-.439-.094-.663-.02-.124-.037-.247-.06-.374-.048-.264-.107-.535-.17-.809-.021-.09-.037-.178-.059-.269q-.137-.552-.313-1.126c-.026-.085-.059-.172-.086-.257-.083-.257-.166-.513-.262-.776A34.917,34.917,0,0,1,332.923,946.83Zm-11.549,10.22c-.091.008-.176.015-.27.025-.27.03-.55.069-.841.12-.057.01-.116.025-.175.036-.238.044-.478.1-.723.158-.1.026-.2.056-.307.085-.21.06-.419.126-.629.2-.108.038-.214.076-.321.118-.229.089-.453.191-.676.3-.079.039-.16.072-.238.114a7.469,7.469,0,0,0-.857.531c-.059.042-.112.093-.169.138a6.253,6.253,0,0,0-.612.532c-.082.082-.159.171-.237.258a6.1,6.1,0,0,0-.457.579c-.044.062-.1.111-.139.176l-.007-.012a5.529,5.529,0,0,1-.293-.667c-.022-.059-.041-.117-.06-.176q-.089-.262-.15-.521c-.012-.052-.027-.1-.038-.157a6.351,6.351,0,0,1-.1-.631c-.005-.039-.006-.077-.01-.116-.015-.171-.024-.338-.026-.5,0-.055,0-.111,0-.165,0-.169.007-.334.019-.49,0-.02,0-.041,0-.06.014-.173.034-.335.057-.489.007-.047.014-.091.022-.137.018-.107.037-.21.056-.3.008-.037.016-.078.024-.113.025-.113.05-.216.074-.3l.005-.019.227-.046.017,0c.116-.022.25-.045.392-.066l.108-.016c.114-.017.236-.033.364-.047l.144-.017c.152-.016.312-.03.479-.041l.068-.006c.187-.011.384-.018.585-.021h.169c.154,0,.31,0,.469.01l.2.01c.188.011.378.028.571.05l.1.01c.22.028.443.067.666.112.065.013.13.03.2.045.166.038.332.081.5.131.072.021.143.042.214.066.2.065.393.139.586.222.029.013.059.022.087.035a6.326,6.326,0,0,1,.641.337c.059.035.117.075.175.113a5.4,5.4,0,0,1,.456.324c.061.047.121.094.18.144.035.03.067.066.1.1l-.1.008C321.721,957.019,321.551,957.033,321.374,957.05Zm-5.274,6.981c.013.008.023.018.035.026.331.216.693.455,1.049.689-.013.026-.025.051-.042.082l-.038.071c-.044.079-.1.169-.161.267l-.014.022c-.067.1-.15.213-.241.325-.027.033-.059.067-.088.1-.071.083-.15.166-.234.249-.041.04-.083.079-.126.118a3.764,3.764,0,0,1-.3.243c-.043.031-.082.063-.127.093a3.487,3.487,0,0,1-.512.286c-.027.012-.059.02-.086.032a3.645,3.645,0,0,1-.428.141l-2.012-.671h0l-4.432-1.477-8.051-2.684v-4.088l14.1,4.7c.147.168.319.319.483.476.1.093.182.192.284.281A9.07,9.07,0,0,0,316.1,964.031Zm-7.912-8.978.1.005c.478.021.981.055,1.513.1l.042,0c.526.048,1.084.111,1.666.187l.384.055c.279.039.576.088.868.133-.006.025-.011.056-.016.082-.021.094-.04.19-.059.295-.01.056-.019.115-.028.173-.016.1-.031.2-.045.309-.008.068-.015.138-.023.209-.011.108-.02.219-.028.333-.005.077-.009.154-.013.234,0,.119-.005.241-.005.365,0,.081,0,.161,0,.244,0,.134.014.272.025.412.006.078.01.154.018.233.019.173.046.35.078.529.008.048.013.094.022.143.044.228.1.46.169.694.016.052.038.106.055.159.058.18.12.361.194.542.008.02.013.04.021.06l-12.514-4.172C301.43,955.818,303.526,954.858,308.188,955.053Zm-11.638,6.678a4.556,4.556,0,0,0,.842-1.9,3.755,3.755,0,0,0,.06-.659v-3.343c.016.005.029.008.044.014s.046.021.069.03a1.99,1.99,0,0,1,.787.558c.023.026.048.047.069.075a1.891,1.891,0,0,1,.138.248,1.607,1.607,0,0,1,.115.235v0a2.429,2.429,0,0,1,.113.764v4.151a.589.589,0,0,1-.056.106c-.12.184-.521.595-1.725.655l-.669-.668Q296.447,961.87,296.55,961.731ZM305.206,933a34.378,34.378,0,0,1,20.665,6.828c.093.185.175.365.262.547.1.208.2.419.294.622s.163.392.243.588.171.4.245.6.132.377.2.564.137.385.2.572.1.361.153.541.107.367.151.545.076.35.114.525.077.343.107.509.052.342.076.512.051.32.069.475.027.329.04.493c.011.148.027.3.034.443.007.166.005.323.006.484,0,.135.007.273,0,.4,0,.164-.017.32-.028.479-.007.12-.01.244-.021.361-.015.16-.038.312-.059.466-.015.109-.025.221-.042.327-.026.155-.059.3-.089.453-.02.1-.037.2-.059.292-.035.149-.076.291-.116.434-.025.088-.046.179-.072.265-.043.143-.093.279-.141.416-.028.078-.052.16-.081.235-.057.152-.119.3-.181.44-.024.054-.045.112-.069.165-.073.163-.15.317-.227.469-.016.03-.03.062-.045.092-.094.179-.191.351-.289.515a10.66,10.66,0,0,1-.662.97c-.067.089-.134.17-.2.254-.166.207-.333.4-.5.58-.062.067-.124.137-.185.2a10.785,10.785,0,0,1-1.148,1.032l-.042.031c-.021-.025-.045-.045-.066-.07-.13-.157-.272-.3-.414-.444a8.8,8.8,0,0,0-6.442-2.432,13.884,13.884,0,0,0-3.2.377c-.472-.087-.93-.183-1.393-.276s-.911-.175-1.356-.27c-.473-.1-.931-.21-1.4-.316-.443-.1-.893-.2-1.328-.3s-.884-.225-1.325-.337-.873-.218-1.3-.332-.843-.238-1.264-.357-.845-.235-1.255-.357-.79-.245-1.186-.368c-.412-.128-.831-.254-1.235-.385-.373-.122-.732-.248-1.1-.372-.406-.138-.82-.274-1.217-.414-.355-.126-.694-.255-1.041-.382-.392-.144-.79-.285-1.172-.431-.333-.127-.65-.257-.975-.385-.379-.15-.766-.3-1.136-.449-.322-.132-.628-.266-.943-.4-.355-.15-.717-.3-1.062-.45-.308-.134-.6-.27-.9-.406-.336-.151-.679-.3-1.005-.453-.272-.126-.529-.253-.795-.38-.336-.161-.68-.321-1.006-.482-.252-.124-.489-.248-.735-.372-.322-.162-.65-.325-.961-.486-.24-.125-.465-.249-.7-.373-.3-.16-.606-.32-.894-.478-.2-.108-.382-.214-.575-.322-.308-.172-.621-.345-.915-.514-.147-.084-.281-.166-.424-.25-.325-.189-.652-.379-.96-.565q-.664-.4-1.279-.788a59.974,59.974,0,0,1-6.754-4.879A103,103,0,0,1,305.206,933Zm-24.64,10.293c.171.106.352.214.529.322.125.076.247.151.376.228.407.245.825.492,1.26.742l.261.148c.36.2.727.412,1.1.62.163.09.33.18.5.27q.488.264.993.53l.53.278q.63.325,1.291.653c.1.047.185.094.281.141.528.259,1.072.519,1.627.778.18.085.366.168.549.252q.6.274,1.214.547.322.143.649.284c.432.187.873.373,1.319.558.186.077.368.155.556.232q.936.379,1.91.754c.165.063.334.124.5.186q.758.285,1.539.565.363.129.732.257.726.254,1.474.5c.237.078.473.157.714.235.7.225,1.407.447,2.132.663l.167.05q.935.276,1.9.543c-.114.011-.211.028-.321.041-.171.02-.339.04-.5.064-.192.028-.375.059-.553.091-.149.027-.3.054-.435.084-.168.036-.325.074-.48.114-.127.032-.255.064-.373.1-.146.042-.28.086-.414.131-.106.036-.216.071-.315.108-.126.047-.239.095-.353.144-.087.037-.178.074-.258.111-.109.051-.2.1-.3.153-.068.036-.141.072-.2.108-.1.054-.176.107-.258.161-.048.031-.1.063-.148.094-.093.065-.171.126-.247.187-.021.017-.048.035-.068.052l-.006,0a3.8,3.8,0,0,0-2.038-1.11c-.005-.027-.015-.06-.02-.088-.015-.083-.034-.168-.057-.259-.015-.059-.031-.116-.05-.177-.028-.094-.061-.187-.1-.284-.023-.062-.047-.123-.075-.186-.047-.1-.105-.209-.165-.314-.032-.055-.058-.109-.094-.163a3.02,3.02,0,0,0-.359-.456,3.466,3.466,0,0,0-2.61-.995,5.452,5.452,0,0,0-.876.072c-.085.014-.161.033-.24.05a4.463,4.463,0,0,0-.5.133c-.075.026-.147.051-.217.08a3.6,3.6,0,0,0-.408.2c-.046.026-.1.049-.14.076a3.381,3.381,0,0,0-.42.308c-.025.022-.042.042-.065.063a3.292,3.292,0,0,0-.25.257c-.031.036-.055.068-.082.1-.054.069-.1.132-.14.193-.02.03-.038.055-.054.083-.007.012-.019.028-.026.04l-14.017-4.672A35,35,0,0,1,280.566,943.291Zm-7.432,11.183,2.857.952c-.031.023-.058.047-.088.069q-.572.426-1.11.871l-.207.172c-.353.3-.7.594-1.02.889l-.161.149c-.331.3-.651.607-.947.9l-.058.058c-.295.292-.569.573-.824.84-.017.019-.039.04-.056.058A34.34,34.34,0,0,1,273.134,954.474Zm-17.961,42.294a6.272,6.272,0,0,1-4.446-.833c-1.5-1.007-2.452-2.808-2.842-5.359l22.234-27.466c.043.052.092.106.136.158.081.1.165.194.249.292.165.191.337.381.515.573.093.1.186.2.283.3.2.21.416.416.634.622.079.074.153.149.233.222.3.273.615.539.943.794.069.054.143.1.213.155.262.2.531.388.81.568.119.077.242.149.365.222q.366.221.75.416c.135.069.27.136.408.2.275.127.557.238.845.341.121.043.238.093.361.132.04.012.077.03.116.042ZM278.215,966.9c-.2-.039-.4-.093-.6-.148-.146-.04-.3-.07-.439-.118-.246-.082-.483-.186-.72-.289-.114-.049-.233-.089-.344-.143a10.679,10.679,0,0,1-.95-.522c-.017-.011-.037-.019-.055-.03-.327-.2-.643-.425-.948-.657-.083-.063-.159-.133-.241-.2-.216-.171-.43-.344-.634-.525-.106-.094-.2-.192-.3-.288-.169-.159-.34-.318-.5-.48-.108-.11-.208-.221-.312-.332-.141-.151-.284-.3-.416-.452-.106-.12-.2-.239-.3-.359-.087-.1-.174-.207-.257-.31l.029-.033c.093-.11.2-.24.328-.379l.1-.118c.145-.165.309-.347.488-.541l.122-.132c.163-.176.339-.363.525-.556l.127-.132c.218-.225.452-.46.7-.7l.173-.167q.359-.346.746-.7l.079-.074c.278-.252.569-.505.867-.757.069-.059.14-.118.21-.176.309-.257.624-.511.949-.758l.039-.028c.311-.236.631-.462.954-.682l.137-.091,11.546,3.848A40.112,40.112,0,0,1,278.215,966.9Zm15.936-6.109a5.359,5.359,0,0,0,.461-1.517.727.727,0,0,0,.006-.093,8.454,8.454,0,0,0-.054-.956,7.811,7.811,0,0,0-.384-1.677h0q-.114-.326-.256-.638a7.7,7.7,0,0,0-1.1-1.747h0c-.122-.146-.242-.278-.356-.4-.142-.148-.276-.276-.4-.387a2.713,2.713,0,0,1,1.8-.531,2.047,2.047,0,0,1,1.523.528,2.381,2.381,0,0,1,.561,1.556v4.252a2.3,2.3,0,0,1-.036.4,3.069,3.069,0,0,1-.576,1.271,4.634,4.634,0,0,1-.559.633h0a4.147,4.147,0,0,1-2.331,1.2.856.856,0,0,1-.3-.047h0A3.313,3.313,0,0,0,294.151,960.787Zm-3.605,7.674a20.761,20.761,0,0,1,1.745-4.287c.016,0,.035,0,.052,0,.036,0,.07.008.107.008a2.9,2.9,0,0,0,.5-.053l.054-.012a5.081,5.081,0,0,0,1.446-.556c.02-.011.04-.02.061-.032a7.033,7.033,0,0,0,.674-.443c.021-.016.045-.027.066-.043l.92.92a.754.754,0,0,0,.53.219c.227,0,.434-.012.632-.029l.172-.019c.139-.017.272-.037.4-.061.052-.01.105-.019.154-.03a4.4,4.4,0,0,0,.428-.117l.031-.009a3.6,3.6,0,0,0,.388-.161l.1-.054c.083-.044.162-.09.235-.137.03-.02.061-.039.089-.059a2.768,2.768,0,0,0,.238-.187l.019-.015.006-.006,10.694,3.565A45.456,45.456,0,0,1,290.546,968.461Zm26.261.651a3.431,3.431,0,0,1-1.627-.876,4.924,4.924,0,0,0,.614-.215c.013-.005.028-.009.041-.015a4.928,4.928,0,0,0,.682-.362c.064-.041.122-.083.183-.125a5.069,5.069,0,0,0,.406-.308c.055-.047.11-.092.163-.14a5.217,5.217,0,0,0,.371-.373c.024-.026.051-.051.074-.077.132-.151.246-.3.348-.442.031-.043.055-.081.083-.123.07-.1.133-.2.188-.292.023-.039.044-.074.065-.111s.032-.054.045-.077l.528.349,1.282.849.2.134-.245.309a8.146,8.146,0,0,1-.635.723,5.693,5.693,0,0,1-.637.559A2.671,2.671,0,0,1,316.807,969.112Zm4.58-.967c.114-.145.213-.267.321-.4,1.045.7,2.065,1.379,2.994,2l.206.138.267.179.526.353-4.868-1.622Q321.113,968.491,321.387,968.145Zm26.339,10.125a.741.741,0,0,0-.215.031c-7.748,2.329-14.986-4.161-17.021-6.206-.4-.4-.617-.647-.625-.656a.694.694,0,0,0-.144-.127l-1.877-1.264c-1.478-.994-3.653-2.454-5.877-3.935-1.154-.768-2.319-1.542-3.409-2.259h0c-.558-.368-1.1-.722-1.6-1.052h0a7.453,7.453,0,0,1-.769-.582c-.074-.064-.143-.132-.214-.2-.091-.085-.172-.175-.257-.264.028-.06.053-.123.084-.18.047-.087.094-.173.146-.255a4.1,4.1,0,0,1,.26-.371c.054-.07.107-.142.164-.208.108-.124.223-.237.341-.348.052-.048.1-.1.154-.147a5.835,5.835,0,0,1,1.165-.77c.045-.023.092-.041.137-.063.165-.079.332-.154.5-.22.063-.025.127-.046.19-.069.156-.057.312-.11.469-.157q.1-.03.2-.057c.157-.044.315-.084.471-.119l.18-.04c.167-.035.333-.065.5-.092.044-.007.089-.016.133-.022.2-.03.388-.055.573-.075l.021,0c.406-.043.779-.063,1.1-.072h.01c.148,0,.282,0,.4,0h.075l.249.005.085,0,.066,0c.229.152.665.431,1.279.786l.015.008c.2.118.43.245.673.379l.211.112c.192.1.387.208.6.317.1.053.212.107.319.16.2.1.393.2.6.3.129.062.264.124.4.187.208.1.417.193.637.292.149.066.3.132.46.2.221.1.444.19.676.285.169.069.341.136.515.205.235.092.474.183.72.273.185.069.372.136.562.2.251.088.506.173.766.258.2.065.4.13.6.193.268.082.542.161.818.24.208.059.415.118.628.174.287.076.582.146.877.216.214.051.424.1.642.15.314.069.636.128.958.189.21.039.416.082.63.118.36.06.729.109,1.1.158.185.025.365.055.551.076q.84.1,1.706.151c.353.021.687.034,1.013.043.981.027,1.868.014,2.708.022l.121,0c0,.057.017.1.021.16a10.543,10.543,0,0,0,.178,1.314c0,.014.007.025.01.039a8.67,8.67,0,0,0,.33,1.134c.027.074.055.146.084.218A7.526,7.526,0,0,0,346.5,969.7a6.922,6.922,0,0,0,1.717,1.236l-1.2,3.6a.753.753,0,0,0,.087.654l2.057,3.086Zm26.2,29.367c-.46-4.246-3.719-13.6-20.735-27.49.024-.1.047-.2.073-.306.038-.155.078-.311.122-.471.053-.193.113-.391.174-.591.051-.166.1-.332.16-.5.068-.2.147-.414.226-.624.064-.173.128-.345.2-.521.088-.216.189-.435.288-.654.08-.175.156-.349.243-.525.112-.226.238-.454.363-.681.094-.171.182-.342.284-.513.141-.239.3-.476.458-.713.106-.16.2-.32.316-.479.186-.262.4-.519.6-.777.105-.13.2-.263.309-.392.33-.384.682-.761,1.063-1.128.4.3.871.661,1.379,1.07.069.056.135.107.206.165.114.093.235.2.354.293l.255.211c.121.1.248.212.372.319.091.078.179.152.272.233.129.112.263.233.4.35.093.083.184.162.278.247.13.117.265.242.4.365.1.093.2.183.3.279.126.117.254.242.381.363s.227.215.343.327.246.245.37.367.246.242.371.369.258.266.387.4.244.249.367.379.265.286.4.429.245.262.369.4.256.288.384.432.258.289.388.439.248.292.372.438.269.315.4.478c.122.148.244.3.367.455.135.168.271.332.4.5s.247.322.37.483.266.343.4.521.245.338.368.507.261.357.39.541.235.344.353.517c.131.192.263.381.393.577.116.176.23.358.345.538.127.2.256.394.381.6.116.187.229.381.343.572s.244.4.363.607.219.392.329.589.237.42.352.635c.106.2.207.4.311.6.114.221.23.44.341.665.1.2.194.408.29.612.11.232.222.462.329.7.094.208.182.422.273.633.1.239.208.475.308.718.088.218.171.441.257.662.1.243.192.484.282.732.083.225.159.457.238.686.087.25.175.5.257.75.074.23.142.465.212.7.079.261.16.519.234.783.066.233.124.472.185.708.07.27.143.539.208.813.057.24.106.486.159.729.06.277.123.553.177.834.048.247.087.5.131.75.049.284.1.566.144.854.038.254.067.514.1.772.038.29.078.579.11.873.027.26.045.526.068.789.025.3.054.6.072.9.017.265.024.536.035.8s.024.536.029.808A8.456,8.456,0,0,1,373.923,1007.637Z" fill="#1a1a1a"/>
  </g>
</svg>