<?xml version="1.0" encoding="utf-8"?>
<svg width="800px" height="800px" viewBox="-44.65 0 257.952 257.952" xmlns="http://www.w3.org/2000/svg">
  <g id="Group_1328" data-name="Group 1328" transform="translate(-434.1 -1260.765)">
    <g id="Group_1078" data-name="Group 1078">
      <g id="Group_1077" data-name="Group 1077">
        <g id="Group_1076" data-name="Group 1076">
          <path id="Path_808" data-name="Path 808" d="M570.163,1279.19s2.178-7.99-5.669-9.921a68.166,68.166,0,0,1,14.173-1.418c8.167,0,17.008,8.5,17.008,8.5s1.891-.943,4.252,1.417c0,0,.357,6.627-7.087,4.252,0,0-4.6.629-7.087,4.252,0,0-6.491.212-12.293,9.19-.155.239-.309.48-.463.732-.048.08-.1.156-.143.235-6.6-5.27-8.36-10.51-8.36-12.991C564.494,1280.775,566.242,1279.19,570.163,1279.19Z" fill="#e5e5e5"/>
        </g>
      </g>
    </g>
    <g id="Group_1081" data-name="Group 1081">
      <g id="Group_1080" data-name="Group 1080">
        <g id="Group_1079" data-name="Group 1079">
          <path id="Path_809" data-name="Path 809" d="M587.171,1294.78s3.627-4.19-1.418-8.5c2.483-3.623,7.087-4.252,7.087-4.252,7.444,2.375,7.087-4.252,7.087-4.252s2.834,5.878,2.834,11.339a21.259,21.259,0,0,1-21.26,21.26s9.922-3.706,9.922-11.339A7.625,7.625,0,0,1,587.171,1294.78Z" fill="#666"/>
        </g>
      </g>
    </g>
    <g id="Group_1084" data-name="Group 1084">
      <g id="Group_1083" data-name="Group 1083">
        <g id="Group_1082" data-name="Group 1082">
          <path id="Path_810" data-name="Path 810" d="M574.415,1297.615c-.549-.393-1.067-.788-1.561-1.182.048-.079.095-.155.143-.235,5.914-9.7,12.756-9.922,12.756-9.922,5.045,4.314,1.418,8.5,1.418,8.5a7.625,7.625,0,0,0,4.252,4.252S582.308,1303.268,574.415,1297.615Z" fill="#666"/>
        </g>
      </g>
    </g>
    <g id="Group_1087" data-name="Group 1087">
      <g id="Group_1086" data-name="Group 1086">
        <g id="Group_1085" data-name="Group 1085">
          <path id="Path_811" data-name="Path 811" d="M555.99,1304.7v-9.922h-5.67s1.941-15.146,19.114-15.57c-3.409.188-4.94,1.736-4.94,4.232,0,2.481,1.758,7.721,8.36,12.991.048-.079.095-.155.143-.235.154-.252.308-.493.463-.732l.955,2.149c0,10.84-9.921,9.921-9.921,9.921v-7.086S562.708,1304.7,555.99,1304.7Z" fill="#333"/>
        </g>
      </g>
    </g>
    <g id="Group_1090" data-name="Group 1090">
      <g id="Group_1089" data-name="Group 1089">
        <g id="Group_1088" data-name="Group 1088">
          <path id="Path_812" data-name="Path 812" d="M571.58,1260.765c7.593,0,13.151,1.143,17.224,2.834a22.055,22.055,0,0,1,5.178,2.973c6.292,4.926,5.945,11.2,5.945,11.2-2.361-2.36-4.252-1.417-4.252-1.417s-8.841-8.5-17.008-8.5a68.166,68.166,0,0,0-14.173,1.418A12.742,12.742,0,0,1,571.58,1260.765Z" fill="#80cdbb"/>
        </g>
      </g>
    </g>
    <g id="Group_1093" data-name="Group 1093">
      <g id="Group_1092" data-name="Group 1092">
        <g id="Group_1091" data-name="Group 1091">
          <path id="Path_813" data-name="Path 813" d="M520.557,1291.946a13.925,13.925,0,0,0-8.5-12.756,31.861,31.861,0,0,1,21.259,8.5c13.167-17.706,31.182-18.425,31.182-18.425,7.847,1.931,5.669,9.921,5.669,9.921-.252,0-.494.007-.729.02-17.173.424-19.114,15.57-19.114,15.57h5.67v9.922c6.718,0,8.5-4.252,8.5-4.252v7.086c-6.528,13.324-15.539,14.187-15.539,14.187l-.052-.013a21.852,21.852,0,0,1-8.5,9.087,26.91,26.91,0,0,1-14.173,3.668s-1.644-12.389-17.008-18.425l-.107-.042C515.81,1308.871,520.557,1300.694,520.557,1291.946Z" fill="#ffff40"/>
        </g>
      </g>
    </g>
    <g id="Group_1096" data-name="Group 1096">
      <g id="Group_1095" data-name="Group 1095">
        <g id="Group_1094" data-name="Group 1094">
          <path id="Path_814" data-name="Path 814" d="M564.494,1307.536s2.291,22.69-15.591,35.433V1335.1a38.9,38.9,0,0,0,9.014-18.295A32.028,32.028,0,0,0,564.494,1307.536Z" fill="#80cdbb"/>
        </g>
      </g>
    </g>
    <g id="Group_1099" data-name="Group 1099">
      <g id="Group_1098" data-name="Group 1098">
        <g id="Group_1097" data-name="Group 1097">
          <path id="Path_815" data-name="Path 815" d="M548.955,1321.723s4.212-.406,8.962-4.918A38.9,38.9,0,0,1,548.9,1335.1v-11.973A13.286,13.286,0,0,1,548.955,1321.723Z" fill="#ffff40"/>
        </g>
      </g>
    </g>
    <g id="Group_1102" data-name="Group 1102">
      <g id="Group_1101" data-name="Group 1101">
        <g id="Group_1100" data-name="Group 1100">
          <path id="Path_816" data-name="Path 816" d="M462.446,1372.733c-1.536,0-2.254-1.675-2.58-4.252h6.4C465.152,1370.984,463.711,1372.733,462.446,1372.733Z" fill="#ffff40"/>
        </g>
      </g>
    </g>
    <g id="Group_1105" data-name="Group 1105">
      <g id="Group_1104" data-name="Group 1104">
        <g id="Group_1103" data-name="Group 1103">
          <path id="Path_817" data-name="Path 817" d="M485.123,1391.912a.77.77,0,0,1-.141-.013.75.75,0,0,1-.6-.861l.006-.033h0l.007-.029a.75.75,0,0,1,1.461.34v0A.751.751,0,0,1,485.123,1391.912Zm.728-.571h0Z" fill="#7a7a7a"/>
        </g>
      </g>
    </g>
    <g id="Group_1108" data-name="Group 1108">
      <g id="Group_1107" data-name="Group 1107">
        <g id="Group_1106" data-name="Group 1106">
          <path id="Path_818" data-name="Path 818" d="M473.785,1368.481h5.669c.35,4.477,1.417,9.921,1.417,9.921s.317,12.756,4.253,12.756v0c-1.557,7.239-3.047,13.511-4.473,18.944-3.564,13.575-6.729,21.894-9.535,26.856-3.392,6-6.259,7.095-8.669,6.637-2.875-.546-3.869-3.521-4.185-6.072C464.651,1394.086,473.785,1368.481,473.785,1368.481Z" fill="#ffff40"/>
        </g>
      </g>
    </g>
    <g id="Group_1111" data-name="Group 1111">
      <g id="Group_1110" data-name="Group 1110">
        <g id="Group_1109" data-name="Group 1109">
          <path id="Path_819" data-name="Path 819" d="M451.108,1505.961c.591-15.586,4.116-35.616,5.289-41.934a3.478,3.478,0,0,0,1.8.832c2.208.386,7.808-2.1,13.145-10.957-3.392,16.524-7.932,38.676-8.893,43.555a19.081,19.081,0,0,0-.283,1.921C456.677,1508.488,450.719,1516.2,451.108,1505.961Z" fill="#ffff40"/>
        </g>
      </g>
    </g>
    <g id="Group_1114" data-name="Group 1114">
      <g id="Group_1113" data-name="Group 1113">
        <g id="Group_1112" data-name="Group 1112">
          <path id="Path_820" data-name="Path 820" d="M487.738,1455.014c-8.142,55.341-11.006,63.7-15.37,63.7-4.4,0-4.252-5.669-4.252-5.669v-9.2C474.684,1499.379,482.128,1476.165,487.738,1455.014Z" fill="#ffff40"/>
        </g>
      </g>
    </g>
    <g id="Group_1117" data-name="Group 1117">
      <g id="Group_1116" data-name="Group 1116">
        <g id="Group_1115" data-name="Group 1115">
          <path id="Path_821" data-name="Path 821" d="M487.781,1411.532a80.707,80.707,0,0,1,1.594-10.452c2.206-10.547,3.607-18.554,4.466-24a24.945,24.945,0,0,0,9.708-8.6h8.5s-5.863,37.313-15.514,48.989q-.236.285-.474.549c-1.653,1.832-3.414,2.9-5.272,2.9,0,0-1.627.484-2.529-2.154A19,19,0,0,1,487.781,1411.532Z" fill="#ffff40"/>
        </g>
      </g>
    </g>
    <g id="Group_1120" data-name="Group 1120">
      <g id="Group_1119" data-name="Group 1119">
        <g id="Group_1118" data-name="Group 1118">
          <path id="Path_822" data-name="Path 822" d="M477.014,1432.83a63.781,63.781,0,0,1,1.023-7.656l3.118-14.967,3.968-19.045v0c3.935,0,5.669-12.756,5.669-12.756.709-.255,1.383-.535,2.03-.83.347-.159.688-.321,1.018-.489-.859,5.443-2.26,13.45-4.466,24a80.707,80.707,0,0,0-1.594,10.452,19,19,0,0,0,.483,7.236c.9,2.638,2.529,2.154,2.529,2.154,1.858,0,3.619-1.071,5.272-2.9-5.594,18.789-12.028,25.292-16.611,24.163a3.117,3.117,0,0,1-2-2.4A21.1,21.1,0,0,1,477.014,1432.83Z" fill="#ffff40"/>
        </g>
      </g>
    </g>
    <g id="Group_1123" data-name="Group 1123">
      <g id="Group_1122" data-name="Group 1122">
        <g id="Group_1121" data-name="Group 1121">
          <path id="Path_823" data-name="Path 823" d="M462.163,1499.378a19.081,19.081,0,0,1,.283-1.921c.961-4.879,5.5-27.031,8.893-43.555.033-.056.067-.108.1-.164.747,2.052,1.945,3.52,3.763,4.034a3.49,3.49,0,0,0,1.27.114c9.57-.847,19.593-39.867,19.593-39.867q.238-.264.474-.549l-.077.617s-3.6,17.6-8.724,36.927c-5.61,21.151-13.054,44.365-19.622,48.838a3.517,3.517,0,0,1-2.835.692S461.621,1505.3,462.163,1499.378Z" fill="#ffff40"/>
        </g>
      </g>
    </g>
    <g id="Group_1126" data-name="Group 1126">
      <g id="Group_1125" data-name="Group 1125">
        <g id="Group_1124" data-name="Group 1124">
          <path id="Path_824" data-name="Path 824" d="M472.9,1451.114a69.163,69.163,0,0,0,4.551-11.33,3.117,3.117,0,0,0,2,2.4c4.583,1.129,11.017-5.374,16.611-24.163,0,0-10.023,39.02-19.593,39.867a3.49,3.49,0,0,1-1.27-.114c-1.818-.514-3.016-1.982-3.763-4.034C471.929,1452.917,472.416,1452.045,472.9,1451.114Z" fill="#ffff40"/>
        </g>
      </g>
    </g>
    <g id="Group_1129" data-name="Group 1129">
      <g id="Group_1128" data-name="Group 1128">
        <g id="Group_1127" data-name="Group 1127">
          <path id="Path_825" data-name="Path 825" d="M455.36,1460.607c.855-8.162,1.84-15.866,2.9-23.08.316,2.551,1.31,5.526,4.185,6.072,2.41.458,5.277-.638,8.669-6.637,2.806-4.962,5.971-13.281,9.535-26.856l.505.1-3.118,14.967a63.781,63.781,0,0,0-1.023,7.656,21.1,21.1,0,0,0,.436,6.954,69.163,69.163,0,0,1-4.551,11.33c-.483.931-.97,1.8-1.46,2.624-.033.056-.067.108-.1.164-5.337,8.854-10.937,11.343-13.145,10.957a3.478,3.478,0,0,1-1.8-.832A4.127,4.127,0,0,1,455.36,1460.607Z" fill="#ffff40"/>
        </g>
      </g>
    </g>
    <g id="Group_1132" data-name="Group 1132">
      <g id="Group_1131" data-name="Group 1131">
        <g id="Group_1130" data-name="Group 1130">
          <path id="Path_826" data-name="Path 826" d="M462.425,1330.033a3.23,3.23,0,0,1-2.388-1.237c-1.08-1.718-.121-3.053,3.109-4.573a2.744,2.744,0,0,1-1.691-1.1c-1.421-2.259.679-3.856,6.841-6.083a190.773,190.773,0,0,0-4.7,18.75c-1.766.028-3.333-.289-3.986-1.329C458.565,1332.8,459.432,1331.495,462.425,1330.033Z" fill="#ffff40"/>
        </g>
      </g>
    </g>
    <g id="Group_1135" data-name="Group 1135">
      <g id="Group_1134" data-name="Group 1134">
        <g id="Group_1133" data-name="Group 1133">
          <path id="Path_827" data-name="Path 827" d="M500.177,1324.123c.037-.029.074-.057.11-.087C500.251,1324.066,500.214,1324.094,500.177,1324.123Z" fill="none"/>
        </g>
      </g>
    </g>
    <g id="Group_1138" data-name="Group 1138">
      <g id="Group_1137" data-name="Group 1137">
        <g id="Group_1136" data-name="Group 1136">
          <path id="Path_828" data-name="Path 828" d="M498.259,1325.606l.16-.121Z" fill="none"/>
        </g>
      </g>
    </g>
    <g id="Group_1141" data-name="Group 1141">
      <g id="Group_1140" data-name="Group 1140">
        <g id="Group_1139" data-name="Group 1139">
          <path id="Path_829" data-name="Path 829" d="M496.36,1327.008l.133-.1Z" fill="none"/>
        </g>
      </g>
    </g>
    <g id="Group_1144" data-name="Group 1144">
      <g id="Group_1143" data-name="Group 1143">
        <g id="Group_1142" data-name="Group 1142">
          <path id="Path_830" data-name="Path 830" d="M505.654,1319.431l.147-.138Z" fill="none"/>
        </g>
      </g>
    </g>
    <g id="Group_1147" data-name="Group 1147">
      <g id="Group_1146" data-name="Group 1146">
        <g id="Group_1145" data-name="Group 1145">
          <path id="Path_831" data-name="Path 831" d="M503.9,1321.019l.122-.108Z" fill="none"/>
        </g>
      </g>
    </g>
    <g id="Group_1150" data-name="Group 1150">
      <g id="Group_1149" data-name="Group 1149">
        <g id="Group_1148" data-name="Group 1148">
          <path id="Path_832" data-name="Path 832" d="M488.59,1332.173l.134-.083Z" fill="none"/>
        </g>
      </g>
    </g>
    <g id="Group_1153" data-name="Group 1153">
      <g id="Group_1152" data-name="Group 1152">
        <g id="Group_1151" data-name="Group 1151">
          <path id="Path_833" data-name="Path 833" d="M484.763,1334.433l.133-.075Z" fill="none"/>
        </g>
      </g>
    </g>
    <g id="Group_1156" data-name="Group 1156">
      <g id="Group_1155" data-name="Group 1155">
        <g id="Group_1154" data-name="Group 1154">
          <path id="Path_834" data-name="Path 834" d="M482.91,1335.468l.174-.095Z" fill="none"/>
        </g>
      </g>
    </g>
    <g id="Group_1159" data-name="Group 1159">
      <g id="Group_1158" data-name="Group 1158">
        <g id="Group_1157" data-name="Group 1157">
          <path id="Path_835" data-name="Path 835" d="M490.488,1330.986l.174-.111Z" fill="none"/>
        </g>
      </g>
    </g>
    <g id="Group_1162" data-name="Group 1162">
      <g id="Group_1161" data-name="Group 1161">
        <g id="Group_1160" data-name="Group 1160">
          <path id="Path_836" data-name="Path 836" d="M492.446,1329.714l.124-.082Z" fill="none"/>
        </g>
      </g>
    </g>
    <g id="Group_1165" data-name="Group 1165">
      <g id="Group_1164" data-name="Group 1164">
        <g id="Group_1163" data-name="Group 1163">
          <path id="Path_837" data-name="Path 837" d="M507.394,1317.759l.1-.093Z" fill="none"/>
        </g>
      </g>
    </g>
    <g id="Group_1168" data-name="Group 1168">
      <g id="Group_1167" data-name="Group 1167">
        <g id="Group_1166" data-name="Group 1166">
          <path id="Path_838" data-name="Path 838" d="M507.394,1317.759q-.783.777-1.593,1.534l-.147.138q-.805.75-1.632,1.48l-.122.108q-1.766,1.552-3.613,3.017c-.036.03-.073.058-.11.087q-.873.691-1.758,1.362l-.16.121q-.879.663-1.766,1.305l-.133.1c-1.258.908-2.525,1.783-3.79,2.624l-.124.082q-.894.593-1.784,1.161l-.174.111q-.885.563-1.764,1.1l-.134.083c-1.248.765-2.483,1.494-3.694,2.185l-.133.075q-.849.483-1.679.94l-.174.095c-.235.129-.464.25-.7.376h-.655c46.718-32.79,30.494-56.654,30.494-56.654a13.925,13.925,0,0,1,8.5,12.756c0,8.749-4.748,16.926-11.448,24.054q-.792.843-1.62,1.666Z" fill="#80cdbb"/>
        </g>
      </g>
    </g>
    <g id="Group_1171" data-name="Group 1171">
      <g id="Group_1170" data-name="Group 1170">
        <g id="Group_1169" data-name="Group 1169">
          <path id="Path_839" data-name="Path 839" d="M498.419,1326.235a.75.75,0,0,1-.453-1.347q.877-.666,1.746-1.353a.75.75,0,0,1,.931,1.176q-.879.7-1.771,1.372A.746.746,0,0,1,498.419,1326.235Z" fill="#7a7a7a"/>
        </g>
      </g>
    </g>
    <g id="Group_1174" data-name="Group 1174">
      <g id="Group_1173" data-name="Group 1173">
        <g id="Group_1172" data-name="Group 1172">
          <path id="Path_840" data-name="Path 840" d="M500.288,1324.786a.75.75,0,0,1-.467-1.337c1.24-.985,2.446-1.992,3.583-2.993a.75.75,0,1,1,.991,1.126c-1.156,1.018-2.381,2.041-3.641,3.042A.75.75,0,0,1,500.288,1324.786Z" fill="#7a7a7a"/>
        </g>
      </g>
    </g>
    <g id="Group_1177" data-name="Group 1177">
      <g id="Group_1176" data-name="Group 1176">
        <g id="Group_1175" data-name="Group 1175">
          <path id="Path_841" data-name="Path 841" d="M504.022,1321.661a.751.751,0,0,1-.5-1.313q.82-.722,1.617-1.466a.75.75,0,1,1,1.023,1.1q-.812.756-1.647,1.493A.748.748,0,0,1,504.022,1321.661Z" fill="#7a7a7a"/>
        </g>
      </g>
    </g>
    <g id="Group_1180" data-name="Group 1180">
      <g id="Group_1179" data-name="Group 1179">
        <g id="Group_1178" data-name="Group 1178">
          <path id="Path_842" data-name="Path 842" d="M496.494,1327.661a.75.75,0,0,1-.441-1.357q.881-.637,1.754-1.3a.75.75,0,0,1,.9,1.2q-.885.669-1.778,1.315A.749.749,0,0,1,496.494,1327.661Z" fill="#7a7a7a"/>
        </g>
      </g>
    </g>
    <g id="Group_1183" data-name="Group 1183">
      <g id="Group_1182" data-name="Group 1182">
        <g id="Group_1181" data-name="Group 1181">
          <path id="Path_843" data-name="Path 843" d="M484.9,1335.108a.751.751,0,0,1-.373-1.4c1.235-.7,2.471-1.435,3.674-2.173a.75.75,0,0,1,.784,1.279c-1.216.745-2.462,1.482-3.7,2.19l-.011.007h0A.748.748,0,0,1,484.9,1335.108Z" fill="#7a7a7a"/>
        </g>
      </g>
    </g>
    <g id="Group_1186" data-name="Group 1186">
      <g id="Group_1185" data-name="Group 1185">
        <g id="Group_1184" data-name="Group 1184">
          <path id="Path_844" data-name="Path 844" d="M483.085,1336.122a.75.75,0,0,1-.363-1.407q.827-.454,1.67-.933a.749.749,0,1,1,.741,1.3q-.852.486-1.687.945A.749.749,0,0,1,483.085,1336.122Z" fill="#7a7a7a"/>
        </g>
      </g>
    </g>
    <g id="Group_1189" data-name="Group 1189">
      <g id="Group_1188" data-name="Group 1188">
        <g id="Group_1187" data-name="Group 1187">
          <path id="Path_845" data-name="Path 845" d="M507.489,1318.416a.75.75,0,0,1-.529-1.281h0c.556-.554,1.093-1.106,1.6-1.641l.006-.006a.75.75,0,0,1,1.093,1.027c-.52.553-1.071,1.12-1.638,1.685A.75.75,0,0,1,507.489,1318.416Z" fill="#7a7a7a"/>
        </g>
      </g>
    </g>
    <g id="Group_1192" data-name="Group 1192">
      <g id="Group_1191" data-name="Group 1191">
        <g id="Group_1190" data-name="Group 1190">
          <path id="Path_846" data-name="Path 846" d="M488.725,1332.84a.751.751,0,0,1-.394-1.39q.875-.535,1.754-1.1a.75.75,0,1,1,.806,1.265q-.889.567-1.774,1.111A.75.75,0,0,1,488.725,1332.84Z" fill="#7a7a7a"/>
        </g>
      </g>
    </g>
    <g id="Group_1195" data-name="Group 1195">
      <g id="Group_1194" data-name="Group 1194">
        <g id="Group_1193" data-name="Group 1193">
          <path id="Path_847" data-name="Path 847" d="M492.57,1330.382a.75.75,0,0,1-.416-1.374c1.27-.844,2.513-1.7,3.7-2.558l.063-.044.008-.006a.75.75,0,1,1,.878,1.216l-.009.006-.069.05c-1.187.856-2.431,1.717-3.7,2.56l-.038.025h0A.746.746,0,0,1,492.57,1330.382Z" fill="#7a7a7a"/>
        </g>
      </g>
    </g>
    <g id="Group_1198" data-name="Group 1198">
      <g id="Group_1197" data-name="Group 1197">
        <g id="Group_1196" data-name="Group 1196">
          <path id="Path_848" data-name="Path 848" d="M490.663,1331.625a.751.751,0,0,1-.4-1.383q.885-.564,1.773-1.153a.75.75,0,1,1,.829,1.25q-.9.6-1.795,1.168A.742.742,0,0,1,490.663,1331.625Z" fill="#7a7a7a"/>
        </g>
      </g>
    </g>
    <g id="Group_1201" data-name="Group 1201">
      <g id="Group_1200" data-name="Group 1200">
        <g id="Group_1199" data-name="Group 1199">
          <path id="Path_849" data-name="Path 849" d="M505.8,1320.043a.749.749,0,0,1-.513-1.3q.8-.751,1.577-1.519a.75.75,0,0,1,1.057,1.064q-.791.784-1.609,1.55A.748.748,0,0,1,505.8,1320.043Z" fill="#7a7a7a"/>
        </g>
      </g>
    </g>
    <g id="Group_1204" data-name="Group 1204">
      <g id="Group_1203" data-name="Group 1203">
        <g id="Group_1202" data-name="Group 1202">
          <path id="Path_850" data-name="Path 850" d="M482.22,1336.594a.752.752,0,0,1-.364-1.41l.694-.374a.75.75,0,0,1,.721,1.316l-.694.378A.754.754,0,0,1,482.22,1336.594Z" fill="#7a7a7a"/>
        </g>
      </g>
    </g>
    <g id="Group_1207" data-name="Group 1207">
      <g id="Group_1206" data-name="Group 1206">
        <g id="Group_1205" data-name="Group 1205">
          <path id="Path_851" data-name="Path 851" d="M463.568,1335.948c-.4,2.007-.767,3.962-1.1,5.849-9.44.783-16.106,3.071-20.448,5.39h-6.5s-1.417.361-1.417-1.26C434.1,1344.41,442.51,1336.911,463.568,1335.948Z" fill="#ffff40"/>
        </g>
      </g>
    </g>
    <g id="Group_1210" data-name="Group 1210">
      <g id="Group_1209" data-name="Group 1209">
        <g id="Group_1208" data-name="Group 1208">
          <path id="Path_852" data-name="Path 852" d="M481.145,1337.17a.75.75,0,0,1-.661-.4.766.766,0,0,1-.09-.354.751.751,0,0,1,.395-.661l.139-.074a.75.75,0,1,1,.707,1.322l-.135.073A.757.757,0,0,1,481.145,1337.17Z" fill="#7a7a7a"/>
        </g>
      </g>
    </g>
    <g id="Group_1213" data-name="Group 1213">
      <g id="Group_1212" data-name="Group 1212">
        <g id="Group_1211" data-name="Group 1211">
          <path id="Path_853" data-name="Path 853" d="M479.455,1338.05a.75.75,0,0,1-.423-1.37c.714-.485,1.41-.969,2.1-1.45a.747.747,0,0,1,.431-.136h.655a.75.75,0,0,1,.356,1.41l-.251.136c-.23.125-.46.25-.686.37l-.133.071,0,0q-.864.457-1.7.885A.744.744,0,0,1,479.455,1338.05Z" fill="#7a7a7a"/>
        </g>
      </g>
    </g>
    <g id="Group_1216" data-name="Group 1216">
      <g id="Group_1215" data-name="Group 1215">
        <g id="Group_1214" data-name="Group 1214">
          <path id="Path_854" data-name="Path 854" d="M481.282,1337.1a.75.75,0,0,1-.352-1.413l.011-.005c.218-.116.44-.237.662-.357l.254-.138a.751.751,0,0,1,.357-.09h.006a.75.75,0,0,1,.357,1.41q-.468.253-.93.5l-.014.008A.751.751,0,0,1,481.282,1337.1Z" fill="#7a7a7a"/>
        </g>
      </g>
    </g>
    <g id="Group_1219" data-name="Group 1219">
      <g id="Group_1218" data-name="Group 1218">
        <g id="Group_1217" data-name="Group 1217">
          <path id="Path_855" data-name="Path 855" d="M479.455,1338.05a.749.749,0,0,1-.342-1.417c.55-.282,1.112-.575,1.681-.876a.75.75,0,0,1,.7,1.326q-.864.457-1.7.885A.747.747,0,0,1,479.455,1338.05Z" fill="#7a7a7a"/>
        </g>
      </g>
    </g>
    <g id="Group_1222" data-name="Group 1222">
      <g id="Group_1221" data-name="Group 1221">
        <g id="Group_1220" data-name="Group 1220">
          <path id="Path_856" data-name="Path 856" d="M460.564,1354.269h-23.63s-1.417.406-1.417-1.417c0-.832,2.009-3.265,6.5-5.665,4.342-2.319,11.008-4.607,20.448-5.39C461.634,1346.536,461.01,1350.825,460.564,1354.269Z" fill="#ffff40"/>
        </g>
      </g>
    </g>
    <g id="Group_1225" data-name="Group 1225">
      <g id="Group_1224" data-name="Group 1224">
        <g id="Group_1223" data-name="Group 1223">
          <path id="Path_857" data-name="Path 857" d="M474.129,1341.513a18.456,18.456,0,0,1,5.325-4.213s-.606,1.68-1.3,4.213a50.684,50.684,0,0,0-1.965,12.756h-7.615A25.5,25.5,0,0,1,474.129,1341.513Z" fill="#ffff40"/>
        </g>
      </g>
    </g>
    <g id="Group_1228" data-name="Group 1228">
      <g id="Group_1227" data-name="Group 1227">
        <g id="Group_1226" data-name="Group 1226">
          <path id="Path_858" data-name="Path 858" d="M462.861,1354.269a40.049,40.049,0,0,1,10.152-12.756,36.1,36.1,0,0,1,6.441-4.213,18.456,18.456,0,0,0-5.325,4.213,25.5,25.5,0,0,0-5.551,12.756,36.423,36.423,0,0,0-.432,4.291h-7.2A43.938,43.938,0,0,1,462.861,1354.269Z" fill="#ffff40"/>
        </g>
      </g>
    </g>
    <g id="Group_1231" data-name="Group 1231">
      <g id="Group_1230" data-name="Group 1230">
        <g id="Group_1229" data-name="Group 1229">
          <path id="Path_859" data-name="Path 859" d="M460.564,1354.269c.446-3.444,1.07-7.733,1.9-12.472.333-1.887.7-3.842,1.1-5.849l.03-.154a190.773,190.773,0,0,1,4.7-18.75c2.82-9.075,6.472-17.649,11.158-23.681a61.42,61.42,0,0,1,9.739-10.1c11.15-9.045,20.025-8.322,20.025-8.322,6.259,0,7.866,1.417,11.339,1.417,21.473,0,27.027-15.59,51.023-15.59a12.742,12.742,0,0,0-7.086,8.5s-18.015.719-31.182,18.425a31.861,31.861,0,0,0-21.259-8.5s16.224,23.864-30.494,56.654c-.689.484-1.388.969-2.1,1.456a36.1,36.1,0,0,0-6.441,4.213,40.049,40.049,0,0,0-10.152,12.756,43.938,43.938,0,0,0-1.915,4.291h-.9C460.181,1357.346,460.353,1355.9,460.564,1354.269Z" fill="#689fca"/>
        </g>
      </g>
    </g>
    <g id="Group_1234" data-name="Group 1234">
      <g id="Group_1233" data-name="Group 1233">
        <g id="Group_1232" data-name="Group 1232">
          <path id="Path_860" data-name="Path 860" d="M478.158,1341.513c.69-2.533,1.3-4.213,1.3-4.213a17.233,17.233,0,0,0,1.267,4.213,12.788,12.788,0,0,0,2.985,4.291,12,12,0,0,1,2.346,3.285c.407.78.781,1.611,1.119,2.445a5.665,5.665,0,0,0-4.882,5.609v1.417h-5.67a20.525,20.525,0,0,1-.426-4.291A50.684,50.684,0,0,1,478.158,1341.513Z" fill="#689fca"/>
        </g>
      </g>
    </g>
    <g id="Group_1237" data-name="Group 1237">
      <g id="Group_1236" data-name="Group 1236">
        <g id="Group_1235" data-name="Group 1235">
          <path id="Path_861" data-name="Path 861" d="M487.171,1351.534a5.67,5.67,0,0,1,.787-.061h7.087a4.252,4.252,0,0,0-4.252,4.252h0v2.834h-8.5v-1.417A5.665,5.665,0,0,1,487.171,1351.534Z" fill="#666"/>
        </g>
      </g>
    </g>
    <g id="Group_1240" data-name="Group 1240">
      <g id="Group_1239" data-name="Group 1239">
        <g id="Group_1238" data-name="Group 1238">
          <path id="Path_862" data-name="Path 862" d="M543.568,1354.07a4.252,4.252,0,0,1,3.918-2.6A4.252,4.252,0,0,0,543.568,1354.07Z" fill="#666"/>
        </g>
      </g>
    </g>
    <g id="Group_1243" data-name="Group 1243">
      <g id="Group_1242" data-name="Group 1242">
        <g id="Group_1241" data-name="Group 1241">
          <path id="Path_863" data-name="Path 863" d="M542.447,1351.534a5.657,5.657,0,0,1,.787-.061h4.252a4.248,4.248,0,0,0-4.252,4.252h0v2.834h-5.67v-1.417A5.666,5.666,0,0,1,542.447,1351.534Z" fill="#666"/>
        </g>
      </g>
    </g>
    <g id="Group_1246" data-name="Group 1246">
      <g id="Group_1245" data-name="Group 1245">
        <g id="Group_1244" data-name="Group 1244">
          <rect id="Rectangle_32" data-name="Rectangle 32" width="32.598" height="9.921" transform="translate(551.738 1358.56)" fill="#be8a66"/>
        </g>
      </g>
    </g>
    <g id="Group_1249" data-name="Group 1249">
      <g id="Group_1248" data-name="Group 1248">
        <g id="Group_1247" data-name="Group 1247">
          <path id="Path_864" data-name="Path 864" d="M510.067,1358.56h33.167v9.921H499.3v-9.921Z" fill="#be8a66"/>
        </g>
      </g>
    </g>
    <g id="Group_1252" data-name="Group 1252">
      <g id="Group_1251" data-name="Group 1251">
        <g id="Group_1250" data-name="Group 1250">
          <path id="Path_865" data-name="Path 865" d="M460.044,1358.56h30.749v9.921H435.517v-9.921Z" fill="#be8a66"/>
        </g>
      </g>
    </g>
    <g id="Group_1255" data-name="Group 1255">
      <g id="Group_1254" data-name="Group 1254">
        <g id="Group_1253" data-name="Group 1253">
          <path id="Path_866" data-name="Path 866" d="M481.145,1336.42l.137-.073q.465-.248.938-.5.344-.186.69-.376l.174-.095q.831-.458,1.679-.94l.133-.075c1.211-.691,2.446-1.42,3.694-2.185l.134-.083q.879-.54,1.764-1.1l.174-.111q.89-.569,1.784-1.161l.124-.082c1.265-.841,2.532-1.716,3.79-2.624l.133-.1q.887-.642,1.766-1.305l.16-.121q.885-.671,1.758-1.362c.037-.029.074-.057.11-.087q1.844-1.462,3.613-3.017l.122-.108q.826-.731,1.632-1.48l.147-.138q.81-.758,1.593-1.534l.1-.093q.826-.824,1.62-1.666h0l.107.041c15.364,6.036,17.008,18.425,17.008,18.425A26.91,26.91,0,0,0,540.4,1330.8a21.852,21.852,0,0,0,8.5-9.087l.052.013a13.286,13.286,0,0,0-.052,1.4v25.512a28.2,28.2,0,0,1-.16,3.024,4.242,4.242,0,0,0-1.257-.19h-4.252a5.718,5.718,0,0,0-5.67,5.67v1.417h-.354l-1.063-4.252c-1.144-5.842-9.921-5.669-9.921-5.669a30.838,30.838,0,0,1-16.159,9.921H499.3v-2.835a4.252,4.252,0,0,0-4.252-4.252h-7.087a5.67,5.67,0,0,0-.787.061c-.338-.834-.712-1.665-1.119-2.445a12,12,0,0,0-2.346-3.285,12.788,12.788,0,0,1-2.985-4.291,17.233,17.233,0,0,1-1.267-4.213Q480.285,1336.875,481.145,1336.42Z" fill="#fda654"/>
        </g>
      </g>
    </g>
    <g id="Group_1258" data-name="Group 1258">
      <g id="Group_1257" data-name="Group 1257">
        <g id="Group_1256" data-name="Group 1256">
          <path id="Path_867" data-name="Path 867" d="M543.568,1354.07a4.253,4.253,0,0,1,8.17,1.655h0v16.3a2.126,2.126,0,0,1-4.252,0V1369.9a2.126,2.126,0,0,1-4.252,0v-14.172h0A4.243,4.243,0,0,1,543.568,1354.07Z" fill="#666"/>
        </g>
      </g>
    </g>
    <g id="Group_1261" data-name="Group 1261">
      <g id="Group_1260" data-name="Group 1260">
        <g id="Group_1259" data-name="Group 1259">
          <path id="Path_868" data-name="Path 868" d="M485.124,1368.481h5.669v3.543a2.126,2.126,0,0,0,4.252,0V1369.9a2.126,2.126,0,0,0,4.252,0v-1.417h4.252a24.945,24.945,0,0,1-9.708,8.6c-.33.168-.671.33-1.018.489-.647.295-1.321.575-2.03.83,0,0-1.734,12.756-5.669,12.756s-4.253-12.756-4.253-12.756-1.067-5.444-1.417-9.921Z" fill="#689fca"/>
        </g>
      </g>
    </g>
    <g id="Group_1264" data-name="Group 1264">
      <g id="Group_1263" data-name="Group 1263">
        <g id="Group_1262" data-name="Group 1262">
          <path id="Path_869" data-name="Path 869" d="M495.045,1351.473a4.252,4.252,0,0,1,4.252,4.252V1369.9a2.126,2.126,0,0,1-4.252,0v2.125a2.126,2.126,0,0,1-4.252,0v-16.3h0A4.252,4.252,0,0,1,495.045,1351.473Z" fill="#666"/>
        </g>
      </g>
    </g>
    <g id="Group_1267" data-name="Group 1267">
      <g id="Group_1266" data-name="Group 1266">
        <g id="Group_1265" data-name="Group 1265">
          <circle id="Ellipse_125" data-name="Ellipse 125" cx="2.835" cy="2.835" r="2.835" transform="translate(578.667 1270.686)" fill="#80cdbb"/>
        </g>
      </g>
    </g>
    <g id="Group_1270" data-name="Group 1270">
      <g id="Group_1269" data-name="Group 1269">
        <g id="Group_1268" data-name="Group 1268">
          <path id="Path_870" data-name="Path 870" d="M581.549,1284.151a17.24,17.24,0,0,1-6.16-1.226,23.535,23.535,0,0,1-5.693-3.148.75.75,0,0,1,.933-1.175c.086.069,8.7,6.784,16.187,2.762a.75.75,0,0,1,.71,1.321A12.487,12.487,0,0,1,581.549,1284.151Z" fill="#7a7a7a"/>
        </g>
      </g>
    </g>
    <g id="Group_1273" data-name="Group 1273">
      <g id="Group_1272" data-name="Group 1272">
        <g id="Group_1271" data-name="Group 1271">
          <path id="Path_871" data-name="Path 871" d="M582.353,1280.437c-4.351,0-8.747-2.095-10.048-5.21a.75.75,0,1,1,1.384-.578c1.379,3.3,7.354,5.231,11.84,3.825a.75.75,0,0,1,.449,1.432A12.176,12.176,0,0,1,582.353,1280.437Z" fill="#7a7a7a"/>
        </g>
      </g>
    </g>
    <g id="Group_1276" data-name="Group 1276">
      <g id="Group_1275" data-name="Group 1275">
        <g id="Group_1274" data-name="Group 1274">
          <path id="Path_872" data-name="Path 872" d="M594.257,1281.357a.741.741,0,0,1-.313-.069.75.75,0,0,1-.368-.995,3.444,3.444,0,0,1,3.63-1.844.749.749,0,0,1-.224,1.482,1.987,1.987,0,0,0-2.043.99A.75.75,0,0,1,594.257,1281.357Z" fill="#7a7a7a"/>
        </g>
      </g>
    </g>
    <g id="Group_1279" data-name="Group 1279">
      <g id="Group_1278" data-name="Group 1278">
        <g id="Group_1277" data-name="Group 1277">
          <path id="Path_873" data-name="Path 873" d="M590.005,1279.94a.75.75,0,0,1-.2-1.472c2.18-.616,2.289-3.522,2.29-3.552a.739.739,0,0,1,.771-.728.75.75,0,0,1,.728.771c-.005.165-.154,4.041-3.38,4.952A.735.735,0,0,1,590.005,1279.94Z" fill="#7a7a7a"/>
        </g>
      </g>
    </g>
    <g id="Group_1282" data-name="Group 1282">
      <g id="Group_1281" data-name="Group 1281">
        <g id="Group_1280" data-name="Group 1280">
          <path id="Path_874" data-name="Path 874" d="M587.121,1277.1a.75.75,0,0,1-.4-1.386c1.434-.893,1.075-3.48,1.072-3.506a.75.75,0,0,1,1.483-.221c.022.146.51,3.586-1.762,5A.745.745,0,0,1,587.121,1277.1Z" fill="#7a7a7a"/>
        </g>
      </g>
    </g>
    <g id="Group_1285" data-name="Group 1285">
      <g id="Group_1284" data-name="Group 1284">
        <g id="Group_1283" data-name="Group 1283">
          <path id="Path_875" data-name="Path 875" d="M575.832,1274.27a.75.75,0,0,1-.731-.581,5.487,5.487,0,0,1,.8-4.8,5.177,5.177,0,0,1,4.184-1.791.75.75,0,0,1,0,1.5,3.729,3.729,0,0,0-3.011,1.224,4.068,4.068,0,0,0-.51,3.527.75.75,0,0,1-.562.9A.758.758,0,0,1,575.832,1274.27Z" fill="#7a7a7a"/>
        </g>
      </g>
    </g>
    <g id="Group_1288" data-name="Group 1288">
      <g id="Group_1287" data-name="Group 1287">
        <g id="Group_1286" data-name="Group 1286">
          <path id="Path_876" data-name="Path 876" d="M573,1272.853a.75.75,0,0,1-.613-.316c-.039-.053-1.94-2.519-7.892-2.519a.75.75,0,0,1,0-1.5c6.849,0,9.031,3.029,9.12,3.158a.749.749,0,0,1-.615,1.177Z" fill="#7a7a7a"/>
        </g>
      </g>
    </g>
    <g id="Group_1291" data-name="Group 1291">
      <g id="Group_1290" data-name="Group 1290">
        <g id="Group_1289" data-name="Group 1289">
          <path id="Path_877" data-name="Path 877" d="M569.434,1279.21c.235-.013.477-.02.729-.02C569.913,1279.19,569.678,1279.2,569.434,1279.21Z" fill="none"/>
        </g>
      </g>
    </g>
    <g id="Group_1294" data-name="Group 1294">
      <g id="Group_1293" data-name="Group 1293">
        <g id="Group_1292" data-name="Group 1292">
          <path id="Path_878" data-name="Path 878" d="M569.434,1279.21c.235-.013.477-.02.729-.02C569.913,1279.19,569.678,1279.2,569.434,1279.21Z" fill="none"/>
        </g>
      </g>
    </g>
    <g id="Group_1297" data-name="Group 1297">
      <g id="Group_1296" data-name="Group 1296">
        <g id="Group_1295" data-name="Group 1295">
          <path id="Path_879" data-name="Path 879" d="M500.177,1324.123c.037-.029.074-.057.11-.087C500.251,1324.066,500.214,1324.094,500.177,1324.123Z" fill="none"/>
        </g>
      </g>
    </g>
    <g id="Group_1300" data-name="Group 1300">
      <g id="Group_1299" data-name="Group 1299">
        <g id="Group_1298" data-name="Group 1298">
          <path id="Path_880" data-name="Path 880" d="M498.259,1325.606l.16-.121Z" fill="none"/>
        </g>
      </g>
    </g>
    <g id="Group_1303" data-name="Group 1303">
      <g id="Group_1302" data-name="Group 1302">
        <g id="Group_1301" data-name="Group 1301">
          <path id="Path_881" data-name="Path 881" d="M496.36,1327.008l.133-.1Z" fill="none"/>
        </g>
      </g>
    </g>
    <g id="Group_1306" data-name="Group 1306">
      <g id="Group_1305" data-name="Group 1305">
        <g id="Group_1304" data-name="Group 1304">
          <path id="Path_882" data-name="Path 882" d="M505.654,1319.431l.147-.138Z" fill="none"/>
        </g>
      </g>
    </g>
    <g id="Group_1309" data-name="Group 1309">
      <g id="Group_1308" data-name="Group 1308">
        <g id="Group_1307" data-name="Group 1307">
          <path id="Path_883" data-name="Path 883" d="M503.9,1321.019l.122-.108Z" fill="none"/>
        </g>
      </g>
    </g>
    <g id="Group_1312" data-name="Group 1312">
      <g id="Group_1311" data-name="Group 1311">
        <g id="Group_1310" data-name="Group 1310">
          <path id="Path_884" data-name="Path 884" d="M488.59,1332.173l.134-.083Z" fill="none"/>
        </g>
      </g>
    </g>
    <g id="Group_1315" data-name="Group 1315">
      <g id="Group_1314" data-name="Group 1314">
        <g id="Group_1313" data-name="Group 1313">
          <path id="Path_885" data-name="Path 885" d="M484.763,1334.433l.133-.075Z" fill="none"/>
        </g>
      </g>
    </g>
    <g id="Group_1318" data-name="Group 1318">
      <g id="Group_1317" data-name="Group 1317">
        <g id="Group_1316" data-name="Group 1316">
          <path id="Path_886" data-name="Path 886" d="M482.91,1335.468l.174-.095Z" fill="none"/>
        </g>
      </g>
    </g>
    <g id="Group_1321" data-name="Group 1321">
      <g id="Group_1320" data-name="Group 1320">
        <g id="Group_1319" data-name="Group 1319">
          <path id="Path_887" data-name="Path 887" d="M490.488,1330.986l.174-.111Z" fill="none"/>
        </g>
      </g>
    </g>
    <g id="Group_1324" data-name="Group 1324">
      <g id="Group_1323" data-name="Group 1323">
        <g id="Group_1322" data-name="Group 1322">
          <path id="Path_888" data-name="Path 888" d="M492.446,1329.714l.124-.082Z" fill="none"/>
        </g>
      </g>
    </g>
    <g id="Group_1327" data-name="Group 1327">
      <g id="Group_1326" data-name="Group 1326">
        <g id="Group_1325" data-name="Group 1325">
          <path id="Path_889" data-name="Path 889" d="M507.394,1317.759l.1-.093Z" fill="none"/>
        </g>
      </g>
    </g>
  </g>
</svg>