<?xml version="1.0" encoding="utf-8"?>
<svg width="800px" height="800px" viewBox="-35.43 0 129.059 129.059" xmlns="http://www.w3.org/2000/svg">
  <g id="Group_2443" data-name="Group 2443" transform="translate(-178.314 -449.466)">
    <g id="Group_2441" data-name="Group 2441">
      <g id="Group_2405" data-name="Group 2405">
        <g id="Group_2404" data-name="Group 2404">
          <g id="Group_2403" data-name="Group 2403">
            <g id="Group_2402" data-name="Group 2402">
              <g id="Group_2401" data-name="Group 2401">
                <rect id="Rectangle_36" data-name="Rectangle 36" width="14.173" height="127.559" transform="translate(179.064 450.216)" fill="#fda654"/>
              </g>
            </g>
          </g>
        </g>
      </g>
      <g id="Group_2410" data-name="Group 2410">
        <g id="Group_2409" data-name="Group 2409">
          <g id="Group_2408" data-name="Group 2408">
            <g id="Group_2407" data-name="Group 2407">
              <g id="Group_2406" data-name="Group 2406">
                <path id="Path_1178" data-name="Path 1178" d="M214.5,465.806l2.834-1.417v-4.252l-15.617-5.857a.992.992,0,0,0-.925,1.736Z" fill="#666"/>
              </g>
            </g>
          </g>
        </g>
      </g>
      <g id="Group_2415" data-name="Group 2415">
        <g id="Group_2414" data-name="Group 2414">
          <g id="Group_2413" data-name="Group 2413">
            <g id="Group_2412" data-name="Group 2412">
              <g id="Group_2411" data-name="Group 2411">
                <path id="Path_1179" data-name="Path 1179" d="M220.377,560.892l-1.628,15.465a5.162,5.162,0,0,1-2.835-4.251v-7.087l2.828-7.777Q219.588,559.167,220.377,560.892Z" fill="#666"/>
              </g>
            </g>
          </g>
        </g>
      </g>
      <g id="Group_2420" data-name="Group 2420">
        <g id="Group_2419" data-name="Group 2419">
          <g id="Group_2418" data-name="Group 2418">
            <g id="Group_2417" data-name="Group 2417">
              <g id="Group_2416" data-name="Group 2416">
                <path id="Path_1180" data-name="Path 1180" d="M215.914,515.413c0,25.37,9.921,31.181,9.921,31.181v25.512s-2.312-4.319-5.458-11.214q-.787-1.724-1.635-3.65c-.909-2.072-1.862-4.313-2.828-6.682-6.1-14.956-12.756-35.163-12.756-52.155C203.158,511.017,215.914,515.413,215.914,515.413Z" fill="#985c4c"/>
              </g>
            </g>
          </g>
        </g>
      </g>
      <g id="Group_2425" data-name="Group 2425">
        <g id="Group_2424" data-name="Group 2424">
          <g id="Group_2423" data-name="Group 2423">
            <g id="Group_2422" data-name="Group 2422">
              <g id="Group_2421" data-name="Group 2421">
                <path id="Path_1181" data-name="Path 1181" d="M217.331,484.232h0s9.922.382,9.922-15.591c0,0,3.817,4.609,2.184,14.784-.183,1.144-.432,2.355-.767,3.641h0a103.446,103.446,0,0,1,0,34.016h0V538.09s.392,5.888-2.835,8.5c0,0-9.921-5.811-9.921-31.181,0,0-12.756-4.4-12.756-17.008A14.173,14.173,0,0,1,217.331,484.232Z" fill="#333"/>
              </g>
            </g>
          </g>
        </g>
      </g>
      <g id="Group_2430" data-name="Group 2430">
        <g id="Group_2429" data-name="Group 2429">
          <g id="Group_2428" data-name="Group 2428">
            <g id="Group_2427" data-name="Group 2427">
              <g id="Group_2426" data-name="Group 2426">
                <path id="Path_1182" data-name="Path 1182" d="M187.567,512.578v-5.669c0-3.259,1.418-4.252,1.418-4.252a7.583,7.583,0,0,1-1.418-4.252v-7.087a4.466,4.466,0,0,0-2.834-4.252c4.229,0,4.252,4.252,4.252,4.252v5.669c0,3.133,2.834,5.67,2.834,5.67l1.418,2.834,2.834,5.67h-1.417a1.544,1.544,0,0,0-.881.23l-.536-.939-2.835-4.961a1.66,1.66,0,0,0-1.417,1.418v5.669c-1.144,4.16-4.252,2.835-4.252,2.835A2.835,2.835,0,0,0,187.567,512.578Z" fill="#333"/>
              </g>
            </g>
          </g>
        </g>
      </g>
      <g id="Group_2435" data-name="Group 2435">
        <g id="Group_2434" data-name="Group 2434">
          <g id="Group_2433" data-name="Group 2433">
            <g id="Group_2432" data-name="Group 2432">
              <g id="Group_2431" data-name="Group 2431">
                <path id="Path_1183" data-name="Path 1183" d="M193.773,511.391a1.544,1.544,0,0,1,.881-.23h3.237a54.928,54.928,0,0,1-.4-5.67c0-3.259,1.119-15.282,7.086-21.259,9.215-9.231,12.756-7.856,12.756-11.339s-2.834-7.087-2.834-7.087l2.834-1.417v-4.252l1.417.1a11.342,11.342,0,0,1,17.008,9.821c0,10.985-4.252,14.174-4.252,14.174V479.98l-2.067,3.445c1.633-10.175-2.184-14.784-2.184-14.784,0,15.973-9.922,15.591-9.922,15.591h0A14.173,14.173,0,0,0,203.158,498.4c0,16.992,6.656,37.2,12.756,52.155.966,2.369,1.919,4.61,2.828,6.682l-2.828,7.777c-6.528-7.94-8.5-26.929-8.5-26.929a41.183,41.183,0,0,1-6.065-11.552l-2.439,3.048s-5.669-5.91-5.669-17.008A1.381,1.381,0,0,1,193.773,511.391Z" fill="#e5e5e5"/>
              </g>
            </g>
          </g>
        </g>
      </g>
      <g id="Group_2440" data-name="Group 2440">
        <g id="Group_2439" data-name="Group 2439">
          <g id="Group_2438" data-name="Group 2438">
            <g id="Group_2437" data-name="Group 2437">
              <g id="Group_2436" data-name="Group 2436">
                <path id="Path_1184" data-name="Path 1184" d="M217.331,464.389s.562-2.656,5.67-2.835,4.252,7.087,4.252,7.087S220.721,470.235,217.331,464.389Z" fill="#ffff40"/>
              </g>
            </g>
          </g>
        </g>
      </g>
    </g>
    <g id="Group_2442" data-name="Group 2442">
      <path id="Path_1185" data-name="Path 1185" d="M223,462.472a1.917,1.917,0,1,0,1.917,1.917A1.919,1.919,0,0,0,223,462.472Z" fill="#1a1a1a"/>
      <path id="Path_1186" data-name="Path 1186" d="M179.064,449.466a.749.749,0,0,0-.75.75V577.775a.75.75,0,0,0,1.5,0V450.216A.75.75,0,0,0,179.064,449.466Z" fill="#1a1a1a"/>
      <path id="Path_1187" data-name="Path 1187" d="M224.418,457.97a12.1,12.1,0,0,0-5.843,1.5l-1.082-.076-15.516-5.819a1.742,1.742,0,0,0-1.624,3.048l13.615,9.724c.384.513,2.613,3.615,2.613,6.543,0,1.259-.48,1.6-2.514,2.844a48.314,48.314,0,0,0-10.023,7.965c-5.993,6-7.305,17.764-7.305,21.789,0,.915.084,2.7.315,4.92h-.519l-2.548-5.1v-55.1a.75.75,0,0,0-1.5,0v52.1a.764.764,0,0,0-.152-.2c-.006-.005-.009-.013-.015-.019h0l-.01-.009c-.117-.107-2.575-2.4-2.575-5.1v-5.673a4.841,4.841,0,0,0-5-5,.75.75,0,0,0-.74.628.745.745,0,0,0,.437.8c.02.009.036.024.057.032s.056.021.116.047c.043.018.109.053.17.084.033.016.058.027.1.048.1.055.217.127.34.212.011.007.019.011.03.019a3.921,3.921,0,0,1,.423.345h0a3.608,3.608,0,0,1,.774,1.055c.006.012.015.022.021.034a3.771,3.771,0,0,1,.227.666c.009.037.025.065.034.1a4.254,4.254,0,0,1,.1.93v7.093a8.779,8.779,0,0,0,1.19,4.183,6.869,6.869,0,0,0-1.19,4.315v5.669a2.087,2.087,0,0,1-2.084,2.085.75.75,0,0,0-.294,1.44l.1.038.06.02c.054.018.116.036.194.058l.119.029c.085.021.179.038.282.055.047.008.088.016.138.023a4.1,4.1,0,0,0,.5.035h.013a3.626,3.626,0,0,0,.42-.027c.04,0,.079-.011.119-.017.118-.018.238-.042.36-.073.046-.012.092-.023.138-.037a3.3,3.3,0,0,0,.491-.187,4.738,4.738,0,0,0,2.329-3.244.745.745,0,0,0,.027-.2v-5.613a.962.962,0,0,1,.083-.25.914.914,0,0,1,.059-.1.486.486,0,0,1,.036-.056.832.832,0,0,1,.152-.15l.657,1.149,1.765,3.088v67.124a.75.75,0,0,0,1.5,0V522.133a22.384,22.384,0,0,0,4.378,7.972.764.764,0,0,0,.575.23.75.75,0,0,0,.552-.281l1.607-2.009a40.831,40.831,0,0,0,5.588,10.336c.247,2.208,2.316,19.134,8.477,26.894V572.1a5.892,5.892,0,0,0,3.218,4.914.749.749,0,0,0,1.112-.576l1.344-12.76c2.53,5.4,4.316,8.746,4.336,8.784a.751.751,0,0,0,.661.4.764.764,0,0,0,.183-.023.75.75,0,0,0,.567-.727V546.919c3.18-2.919,2.85-8.629,2.835-8.829V521.144a103.971,103.971,0,0,0,.016-34.044c.291-1.138.529-2.282.714-3.4l.6-1.008v1.545a.751.751,0,0,0,1.2.6c.186-.14,4.552-3.544,4.552-14.774A12.1,12.1,0,0,0,224.418,457.97ZM201.153,455.1a.214.214,0,0,1,.193-.135.282.282,0,0,1,.1.023l15.131,5.674v3.268l-2.016,1.008-13.34-9.528A.216.216,0,0,1,201.153,455.1ZM188.33,506.416c.12-2.367,1.085-3.145,1.085-3.145a.749.749,0,0,0,.14-1.1,6.866,6.866,0,0,1-1.238-3.765v-.414a10.025,10.025,0,0,0,2.892,5.122l1.357,2.714h0l2.292,4.584h-.2a2.748,2.748,0,0,0-.548.052l-3.053-5.344a.741.741,0,0,0-.253-.254c-.014-.009-.026-.02-.041-.028a.748.748,0,0,0-.323-.087c-.012,0-.022-.009-.034-.009a.738.738,0,0,0-.114.009A2.385,2.385,0,0,0,188.33,506.416ZM208,537.629a40.3,40.3,0,0,1-5.95-11.341.752.752,0,0,0-.582-.49.766.766,0,0,0-.125-.01.749.749,0,0,0-.586.281L198.9,528.4a26.106,26.106,0,0,1-4.908-15.821v-.115a.584.584,0,0,1,.2-.448.861.861,0,0,1,.465-.1h3.237a.751.751,0,0,0,.746-.836,54.7,54.7,0,0,1-.4-5.584c0-3.593,1.261-15.114,6.867-20.73a47.073,47.073,0,0,1,9.743-7.745c2.016-1.231,3.232-1.975,3.232-4.123a13.375,13.375,0,0,0-2.464-6.808l1.444-.722a9.557,9.557,0,0,0,8.223,4.212,11.727,11.727,0,0,0,1.193-.06c-.129,5.343-1.421,9.273-3.874,11.653q-.229.222-.461.416c-.027.023-.053.041-.08.063-.128.105-.257.207-.385.3l-.022.015a7.761,7.761,0,0,1-4.324,1.519A14.94,14.94,0,0,0,202.408,498.4c0,17.38,6.967,38.109,12.811,52.438q.674,1.648,1.369,3.293c.163.385.328.763.492,1.145.285.664.567,1.331.854,1.986L216.5,561.21l-.819,2.253c-5.671-8.208-7.507-25.272-7.526-25.451A.755.755,0,0,0,208,537.629ZM226.545,468a8.382,8.382,0,0,1-8.383-3.688c.292-.561,1.351-1.888,4.865-2.011a2.806,2.806,0,0,1,2.306.859C226.542,464.473,226.591,466.913,226.545,468ZM218.136,575.01a4.2,4.2,0,0,1-1.472-2.9v-6.955l2.147-5.9.036.08c.14.313.275.612.413.916.116.257.235.523.349.774ZM225.085,569c-.977-1.947-2.393-4.844-4.026-8.424q-.785-1.718-1.63-3.64c-.96-2.186-1.909-4.428-2.821-6.663-.03-.074-.061-.153-.091-.228q-.456-1.122-.92-2.293c-.118-.3-.236-.6-.355-.907-.226-.578-.452-1.161-.68-1.755-.135-.354-.27-.714-.406-1.073q-.321-.853-.643-1.724-.205-.558-.41-1.123-.328-.9-.653-1.827c-.127-.362-.255-.721-.382-1.087-.248-.713-.493-1.437-.737-2.163-.091-.274-.185-.544-.276-.82q-.5-1.5-.976-3.026c-.075-.242-.148-.487-.223-.73-.241-.782-.481-1.567-.714-2.359-.11-.373-.216-.748-.324-1.123q-.291-1.012-.573-2.032-.166-.611-.329-1.223-.266-1-.518-2c-.1-.407-.206-.814-.3-1.222-.173-.708-.337-1.418-.5-2.127-.082-.362-.168-.724-.248-1.086q-.322-1.473-.61-2.945c-.017-.086-.036-.173-.053-.259q-.308-1.593-.566-3.18c-.054-.332-.1-.661-.151-.992-.112-.73-.221-1.459-.317-2.185-.052-.394-.1-.786-.145-1.179-.044-.371-.081-.739-.121-1.109l.018.031q.26.486.543.944c.041.066.084.131.126.2q.24.378.494.736c.049.069.1.138.146.206q.311.426.635.825c.033.04.067.078.1.118q.288.346.585.671l.168.184c.229.244.46.483.693.711l.027.024c.228.221.457.432.688.637.058.051.115.1.174.152.224.195.448.384.672.564l.04.033c.24.193.479.375.717.551l.161.117c.2.147.4.289.6.424l.107.074c.228.153.451.3.671.436l.141.087c.183.113.361.221.536.323l.126.074q.308.177.594.333l.1.053c.162.087.317.167.466.243l.121.062c.168.084.329.163.478.233l.062.029c.13.061.25.116.362.166l.1.046.326.14c0,.749.018,1.478.038,2.193.007.236.018.461.027.694.017.472.035.942.059,1.4.015.268.033.527.049.79.026.407.052.813.083,1.208.021.271.045.534.069.8.033.372.067.742.1,1.1.027.264.057.524.086.782.041.35.083.7.128,1.034.033.251.066.5.1.745.048.335.1.662.15.986.037.234.074.468.114.7.056.327.115.645.174.961.04.211.079.424.12.63.067.332.137.652.208.972.038.177.076.359.116.532.093.4.19.794.289,1.179.02.077.039.16.059.237.121.459.245.9.373,1.335.038.131.079.253.118.381.09.3.182.591.275.875.052.158.106.308.158.462.084.242.167.484.252.717.058.159.117.313.176.467.083.217.165.431.249.64.061.152.123.3.185.448q.125.3.251.585.095.215.189.423.128.277.257.544c.063.13.125.261.188.387.089.177.177.347.266.516.061.116.121.234.182.346.094.173.187.337.28.5.057.1.112.2.168.295.11.186.219.364.328.539.039.062.078.129.116.19.148.233.294.454.439.667.038.056.076.107.114.162.106.153.213.3.317.446.054.074.107.142.161.213.087.116.174.231.259.339.059.074.115.143.173.213.078.1.155.191.232.282l.172.2c.073.085.145.167.217.246l.162.176c.071.076.14.149.209.219l.148.152c.068.068.132.13.2.192.046.045.092.09.137.131.064.06.124.115.184.169l.119.107c.064.056.123.106.182.156l.089.075c.083.069.162.131.233.186l.071.053.12.091Zm2.836-30.865c0,.053.3,4.985-2.141,7.491l-.016-.014c-.082-.065-.177-.145-.278-.233l-.085-.074c-.117-.1-.242-.218-.379-.351l-.031-.03c-.125-.123-.26-.261-.4-.409l-.121-.129c-.155-.169-.316-.349-.485-.551l-.035-.043c-.158-.189-.321-.4-.488-.615-.046-.06-.093-.122-.139-.185-.183-.245-.368-.5-.557-.784l-.021-.031c-.181-.27-.365-.564-.55-.869-.05-.081-.1-.164-.149-.248-.195-.33-.391-.673-.587-1.044-.274-.518-.554-1.089-.835-1.719-1.824-4.093-3.676-10.632-3.931-20.541q-.03-1.145-.03-2.347a.742.742,0,0,0-.419-.663.714.714,0,0,0-.086-.046h0c-.172-.06-12.247-4.384-12.247-16.3a13.412,13.412,0,0,1,13.412-13.423,6.3,6.3,0,0,0,.911-.062h.014c.1-.014.206-.03.319-.05l.039-.006c.1-.018.214-.041.328-.065l.073-.016c.107-.023.217-.051.33-.081l.108-.028c.107-.03.218-.064.33-.1.046-.015.09-.027.137-.043.108-.036.219-.077.331-.119.054-.02.106-.038.161-.06.108-.042.219-.091.33-.14.061-.027.121-.051.183-.08.108-.05.217-.106.327-.162.067-.035.134-.066.2-.1.108-.058.217-.124.326-.189.071-.042.141-.08.213-.125.111-.07.223-.148.335-.225.07-.048.14-.091.21-.142.122-.088.244-.187.366-.284.06-.048.12-.09.18-.14.181-.152.363-.313.542-.487,2.453-2.36,3.887-5.989,4.278-10.809.863,2.248,1.718,6.144.8,11.84-.189,1.175-.442,2.377-.753,3.571a.751.751,0,0,0-.014.313,102.5,102.5,0,0,1,0,33.769.722.722,0,0,0-.01.123Zm4.333-55.972V479.98a.75.75,0,0,0-1.393-.386l-.309.515c0-.038,0-.073,0-.111.009-.175.01-.339.016-.51.011-.353.021-.7.02-1.039,0-.193-.007-.376-.012-.563-.007-.3-.016-.593-.033-.877-.011-.185-.024-.363-.039-.542q-.033-.406-.076-.792c-.02-.168-.04-.334-.062-.5-.034-.252-.073-.495-.114-.733-.025-.146-.049-.294-.077-.435-.047-.244-.1-.475-.151-.7-.027-.118-.053-.241-.081-.354-.067-.264-.137-.512-.208-.754-.019-.062-.036-.13-.055-.191-.092-.3-.188-.58-.285-.844-.021-.058-.042-.107-.064-.164-.076-.2-.152-.393-.228-.571-.034-.079-.067-.149-.1-.224-.064-.142-.127-.279-.188-.406-.037-.075-.072-.143-.108-.213-.056-.111-.111-.216-.165-.314-.035-.063-.067-.121-.1-.179-.052-.09-.1-.172-.148-.249-.029-.047-.056-.093-.083-.135-.046-.072-.086-.132-.125-.19-.022-.032-.043-.065-.063-.093v0c.075-1.021.17-4.367-1.586-6.274a4.285,4.285,0,0,0-3.465-1.344,8.5,8.5,0,0,0-4.893,1.414v-1.277l.614.043a.754.754,0,0,0,.429-.1,10.591,10.591,0,0,1,15.882,9.172C235.006,476.673,233.417,480.357,232.254,482.167Z" fill="#1a1a1a"/>
    </g>
  </g>
</svg>