<?xml version="1.0" encoding="utf-8"?>
<svg width="800px" height="800px" viewBox="-1.8 0 95.043 95.043" xmlns="http://www.w3.org/2000/svg">
  <g id="Group_5483" data-name="Group 5483" transform="translate(-797.739 -1081.431)">
    <g id="Group_5481" data-name="Group 5481">
      <g id="Group_5420" data-name="Group 5420">
        <g id="Group_5419" data-name="Group 5419">
          <g id="Group_5418" data-name="Group 5418">
            <path id="Path_1997" data-name="Path 1997" d="M823.225,1114.779v0Z" fill="none"/>
          </g>
        </g>
      </g>
      <g id="Group_5423" data-name="Group 5423">
        <g id="Group_5422" data-name="Group 5422">
          <g id="Group_5421" data-name="Group 5421">
            <path id="Path_1998" data-name="Path 1998" d="M823.23,1115.431h-.025a.75.75,0,0,1-.726-.757,11.494,11.494,0,0,1,1.132-4.819.75.75,0,0,1,1.4.122c.059.214.108.415.151.6a.746.746,0,0,1-.091.557,8.272,8.272,0,0,0-1.094,3.586A.75.75,0,0,1,823.23,1115.431Z" fill="#7a7a7a"/>
          </g>
        </g>
      </g>
      <g id="Group_5426" data-name="Group 5426">
        <g id="Group_5425" data-name="Group 5425">
          <g id="Group_5424" data-name="Group 5424">
            <path id="Path_1999" data-name="Path 1999" d="M836.131,1105.138c.485.277.97.577,1.449.9a17.035,17.035,0,0,1,5.074,5.182c.275.2.552.414.831.636l.219.174c.109.089.22.182.331.274.08.068.161.136.242.206.108.092.216.186.325.282q.131.116.261.234c.106.1.212.191.319.29s.234.22.352.332c.155.147.31.3.467.452.108.106.216.212.325.322s.2.2.3.3.219.225.33.341l.291.306c.123.131.247.265.371.4l.262.284q.3.331.61.68l.169.195c.172.195.344.393.519.6l.248.292c.149.176.3.354.451.536l.256.308c.161.194.323.393.486.594.076.093.152.185.229.281.239.3.48.6.725.908a96.147,96.147,0,0,1,12.756,21.26c0-16.44-9.411-39.685-26.22-39.685a16.432,16.432,0,0,0-6.174,1.2c.645.232,1.331.5,2.037.821S835.4,1104.723,836.131,1105.138Z" fill="#333"/>
          </g>
        </g>
      </g>
      <g id="Group_5429" data-name="Group 5429">
        <g id="Group_5428" data-name="Group 5428">
          <g id="Group_5427" data-name="Group 5427">
            <path id="Path_2000" data-name="Path 2000" d="M823.226,1115.48h-.011a.731.731,0,0,1-.739-.725v-.036l0-.053v0l0-.027a.74.74,0,0,1,.779-.7.75.75,0,0,1,.717.692.7.7,0,0,1,0,.1v0l0,.026v.008h0A.773.773,0,0,1,823.226,1115.48Z" fill="#7a7a7a"/>
          </g>
        </g>
      </g>
      <g id="Group_5432" data-name="Group 5432">
        <g id="Group_5431" data-name="Group 5431">
          <g id="Group_5430" data-name="Group 5430">
            <path id="Path_2001" data-name="Path 2001" d="M837.58,1106.04c-.479-.325-.964-.625-1.449-.9-.727-.415-1.454-.778-2.161-1.1s-1.392-.589-2.037-.821c-.1.04-.191.086-.287.128a14.278,14.278,0,0,0-7.357,6.826c.056.2.1.394.143.571a6.319,6.319,0,0,1,5.511-3.042c.122-.005.242-.012.369-.012q.451,0,.891.008a18.707,18.707,0,0,1,9.99,2.55q.725.438,1.461.972A17.035,17.035,0,0,0,837.58,1106.04Z" fill="#e6e6e6"/>
          </g>
        </g>
      </g>
      <g id="Group_5435" data-name="Group 5435">
        <g id="Group_5434" data-name="Group 5434">
          <g id="Group_5433" data-name="Group 5433">
            <path id="Path_2002" data-name="Path 2002" d="M830.312,1103.44c-5.292-8.64-19.843-8.5-19.843-8.5a5.846,5.846,0,0,1-1.931,1.609c13.265,1.327,18.245,6.555,19.773,8.75a15.511,15.511,0,0,1,2.367-1.489Z" fill="#e6e6e6"/>
          </g>
        </g>
      </g>
      <g id="Group_5438" data-name="Group 5438">
        <g id="Group_5437" data-name="Group 5437">
          <g id="Group_5436" data-name="Group 5436">
            <path id="Path_2003" data-name="Path 2003" d="M820.39,1090.684c-6.775-2.9-7.086,4.252-7.086,4.252v.158a31.359,31.359,0,0,1,10.856,2.931C824.666,1095.719,824.5,1092.442,820.39,1090.684Z" fill="#333"/>
          </g>
        </g>
      </g>
      <g id="Group_5441" data-name="Group 5441">
        <g id="Group_5440" data-name="Group 5440">
          <g id="Group_5439" data-name="Group 5439">
            <path id="Path_2004" data-name="Path 2004" d="M830.312,1090.684h-1.418l1.418-8.5a12.552,12.552,0,0,0-5.67,2.835v-2.835a16.374,16.374,0,0,0-7.086,4.252V1083.6c-5.611,4.579-5.39,8.545-7.087,11.338,0,0,1.115-.009,2.835.158v-.158s.311-7.148,7.086-4.252c4.113,1.758,4.276,5.035,3.77,7.341a15.045,15.045,0,0,1,6.152,5.415l.366.366c.316-.161.637-.316.968-.457C828.081,1099.592,830.312,1090.684,830.312,1090.684Z" fill="#f95b67"/>
          </g>
        </g>
      </g>
      <g id="Group_5444" data-name="Group 5444">
        <g id="Group_5443" data-name="Group 5443">
          <g id="Group_5442" data-name="Group 5442">
            <path id="Path_2005" data-name="Path 2005" d="M818.264,1102.023a3.542,3.542,0,0,0,3.243-2.119,32.179,32.179,0,0,0-6.667-2.321,3.531,3.531,0,0,0,3.424,4.44Z" fill="#f95b67"/>
          </g>
        </g>
      </g>
      <g id="Group_5447" data-name="Group 5447">
        <g id="Group_5446" data-name="Group 5446">
          <g id="Group_5445" data-name="Group 5445">
            <path id="Path_2006" data-name="Path 2006" d="M814.8,1099.207a3.49,3.49,0,0,1-.076-.727,3.534,3.534,0,0,1,.119-.9,47.514,47.514,0,0,0-6.3-1.038,60.616,60.616,0,0,1-9.67,4.148.549.549,0,0,0-.364.658l16.217-2.163Z" fill="#b3b3b3"/>
          </g>
        </g>
      </g>
      <g id="Group_5450" data-name="Group 5450">
        <g id="Group_5449" data-name="Group 5449">
          <g id="Group_5448" data-name="Group 5448">
            <path id="Path_2007" data-name="Path 2007" d="M818.264,1102.023a3.543,3.543,0,0,1-3.467-2.816l-.076-.019-16.217,2.163a.555.555,0,0,0,.579.45c13.306-.489,17.918,1.553,21.307,3.057a5.271,5.271,0,0,1,.963.56l-.842-4.209A3.516,3.516,0,0,1,818.264,1102.023Z" fill="#ffff40"/>
          </g>
        </g>
      </g>
      <g id="Group_5453" data-name="Group 5453">
        <g id="Group_5452" data-name="Group 5452">
          <g id="Group_5451" data-name="Group 5451">
            <path id="Path_2008" data-name="Path 2008" d="M821.507,1099.9a3.545,3.545,0,0,1-1,1.3l.842,4.209a8.7,8.7,0,0,1,2.936,4.757,13.439,13.439,0,0,1,4.022-4.88A17.327,17.327,0,0,0,821.507,1099.9Z" fill="#333"/>
          </g>
        </g>
      </g>
      <g id="Group_5456" data-name="Group 5456">
        <g id="Group_5455" data-name="Group 5455">
          <g id="Group_5454" data-name="Group 5454">
            <path id="Path_2009" data-name="Path 2009" d="M817.556,1095.147a1.628,1.628,0,1,1,1.627-1.628A1.63,1.63,0,0,1,817.556,1095.147Zm0-1.756a.129.129,0,0,0-.128.128c0,.14.255.14.255,0A.128.128,0,0,0,817.556,1093.391Z" fill="#e6e6e6"/>
          </g>
        </g>
      </g>
      <g id="Group_5459" data-name="Group 5459">
        <g id="Group_5458" data-name="Group 5458">
          <g id="Group_5457" data-name="Group 5457">
            <path id="Path_2010" data-name="Path 2010" d="M866.532,1153.834l-4.46-12.489c-2.055-.356-4.106-.789-6.133-1.3-1.484-.371-2.955-.781-4.4-1.229l.013.032c3.043,7.323,8.143,18.686,13.208,25.886,2.823,4.014,5.636,6.735,8.074,6.735Z" fill="#333"/>
          </g>
        </g>
      </g>
      <g id="Group_5462" data-name="Group 5462">
        <g id="Group_5461" data-name="Group 5461">
          <g id="Group_5460" data-name="Group 5460">
            <path id="Path_2011" data-name="Path 2011" d="M866.532,1153.834l6.3,17.638c-2.438,0-5.251-2.721-8.074-6.735-5.065-7.2-10.165-18.563-13.208-25.886l-.04-.04c-.033-.01-.067-.019-.1-.03-2.239-.695-4.42-1.484-6.52-2.347.751,1.86,1.706,4.161,2.811,6.691h-8.884a7.087,7.087,0,0,0-7.087,7.087,3.239,3.239,0,0,1-1.417-4.252,12.793,12.793,0,0,1,5.21-6.012,40.752,40.752,0,0,1-8.253-13.831l4.46,2.835-12.755,11.339,35.432,35.433h34.016Z" fill="#be8a66"/>
          </g>
        </g>
      </g>
      <g id="Group_5465" data-name="Group 5465">
        <g id="Group_5464" data-name="Group 5464">
          <g id="Group_5463" data-name="Group 5463">
            <path id="Path_2012" data-name="Path 2012" d="M851.571,1120.448c-.245-.311-.486-.612-.725-.908-.077-.1-.153-.188-.229-.282-.163-.2-.325-.4-.486-.593l-.256-.308c-.152-.182-.3-.36-.451-.536l-.248-.292c-.175-.2-.347-.4-.519-.6l-.169-.195q-.309-.348-.61-.68l-.262-.284c-.124-.134-.248-.268-.371-.4l-.291-.306c-.111-.116-.221-.229-.33-.341s-.2-.2-.3-.3-.217-.216-.325-.322c-.157-.154-.312-.305-.467-.452-.118-.112-.236-.225-.352-.332s-.213-.194-.319-.29q-.13-.118-.261-.234c-.109-.1-.217-.19-.325-.282-.081-.07-.162-.138-.242-.206-.111-.092-.222-.185-.331-.274l-.219-.174c-.279-.222-.556-.436-.831-.636q-.738-.536-1.461-.972a18.707,18.707,0,0,0-9.99-2.55q-.44-.008-.891-.008c-.127,0-.247.007-.369.012a6.319,6.319,0,0,0-5.511,3.042,8.989,8.989,0,0,0-1.2,3.935c0,.025,0,.049,0,.074v.024a15,15,0,0,0,3.294,8.984,24.347,24.347,0,0,0,2.021,2.354c3.918,4.06,9.7,7.587,16.349,10.317,2.1.863,4.281,1.652,6.52,2.347.033.011.067.02.1.03l.027.008c1.448.448,2.919.858,4.4,1.229,2.027.508,4.078.941,6.133,1.3.752.13,1.5.254,2.255.363A96.147,96.147,0,0,0,851.571,1120.448Z" fill="#333"/>
          </g>
        </g>
      </g>
      <g id="Group_5468" data-name="Group 5468">
        <g id="Group_5467" data-name="Group 5467">
          <g id="Group_5466" data-name="Group 5466">
            <path id="Path_2013" data-name="Path 2013" d="M835.522,1139.948a12.793,12.793,0,0,0-5.21,6.012,3.239,3.239,0,0,0,1.417,4.252,7.087,7.087,0,0,1,7.087-7.087h0A36.968,36.968,0,0,1,835.522,1139.948Z" fill="#ffff40"/>
          </g>
        </g>
      </g>
      <g id="Group_5471" data-name="Group 5471">
        <g id="Group_5470" data-name="Group 5470">
          <g id="Group_5469" data-name="Group 5469">
            <path id="Path_2014" data-name="Path 2014" d="M847.7,1143.125c-1.105-2.53-2.06-4.831-2.811-6.691-6.645-2.73-12.431-6.257-16.349-10.317a24.347,24.347,0,0,1-2.021-2.354c.181.649.429,1.449.75,2.354a40.752,40.752,0,0,0,8.253,13.831,36.968,36.968,0,0,0,3.294,3.177H847.7Z" fill="#e6e6e6"/>
          </g>
        </g>
      </g>
      <g id="Group_5474" data-name="Group 5474">
        <g id="Group_5473" data-name="Group 5473">
          <g id="Group_5472" data-name="Group 5472">
            <path id="Path_2015" data-name="Path 2015" d="M864.757,1164.737c-5.072-7.21-10.18-18.6-13.221-25.918l-.127-.038c-2.239-.695-4.42-1.484-6.52-2.347.751,1.86,1.706,4.161,2.811,6.691,5.118,11.729,13.433,28.347,19.462,28.347Z" fill="#333"/>
          </g>
        </g>
      </g>
      <g id="Group_5477" data-name="Group 5477">
        <g id="Group_5476" data-name="Group 5476">
          <g id="Group_5475" data-name="Group 5475">
            <path id="Path_2016" data-name="Path 2016" d="M823.225,1114.779v0Z" fill="none"/>
          </g>
        </g>
      </g>
      <g id="Group_5480" data-name="Group 5480">
        <g id="Group_5479" data-name="Group 5479">
          <g id="Group_5478" data-name="Group 5478">
            <path id="Path_2017" data-name="Path 2017" d="M838.816,1157.3" fill="none" stroke="#1a1a1a" stroke-linecap="round" stroke-linejoin="round" stroke-width="3"/>
          </g>
        </g>
      </g>
    </g>
    <g id="Group_5482" data-name="Group 5482">
      <circle id="Ellipse_155" data-name="Ellipse 155" cx="1.311" cy="1.311" r="1.311" transform="translate(816.244 1092.208)" fill="#1a1a1a"/>
      <path id="Path_2018" data-name="Path 2018" d="M888.953,1175.194l-21.771-21.77-3.977-11.137c.338.054.677.114,1.015.163a.757.757,0,0,0,.106.008h0a.764.764,0,0,0,.142-.014.663.663,0,0,0,.122-.047.86.86,0,0,0,.085-.032.753.753,0,0,0,.234-.189l.006,0c.005-.007,0-.016.009-.023a.748.748,0,0,0,.125-.29.578.578,0,0,0,.014-.083c0-.023.012-.044.012-.068,0-16.527-9.6-40.435-26.97-40.435a17.08,17.08,0,0,0-6.222,1.172c-2.777-3.618-.866-11.5-.846-11.578a.75.75,0,0,0-.727-.933h-.532l1.272-7.63a.75.75,0,0,0-.893-.858,13.531,13.531,0,0,0-4.767,2.035v-1.3a.75.75,0,0,0-.926-.73,15.937,15.937,0,0,0-6.16,3.273V1083.6a.75.75,0,0,0-1.224-.581,17.925,17.925,0,0,0-6.121,8.908,14.579,14.579,0,0,1-1.133,2.621h0a4.967,4.967,0,0,1-1.676,1.355,59.911,59.911,0,0,1-9.534,4.083,1.3,1.3,0,0,0-.847,1.526.737.737,0,0,0,.1.24,1.289,1.289,0,0,0,1.241.8c13.14-.482,17.669,1.525,20.975,2.992a4.554,4.554,0,0,1,.827.482,7.744,7.744,0,0,1,2.582,4.112,11.436,11.436,0,0,0-1.011,4.462l0,.031v.005l0,.027v0l0,.053v.036h0v.023a15.643,15.643,0,0,0,3.36,9.313c.2.724.447,1.487.727,2.276.158.446.335.919.531,1.414.063.161.141.336.209.5.141.343.28.685.439,1.046.094.212.2.435.3.652.154.333.3.663.475,1.007.118.24.254.489.381.734.174.336.345.668.535,1.011.144.261.3.526.458.79.2.339.392.676.606,1.02.17.274.355.549.535.824.224.342.446.682.686,1.025.2.281.408.562.616.844.253.341.505.682.775,1.023.224.284.461.565.7.847.188.226.361.452.557.677-.012.008-.023.018-.036.026-.071.049-.14.1-.211.156-.192.139-.383.281-.569.434-.095.078-.187.162-.28.243-.158.137-.315.277-.468.424-.1.094-.193.192-.289.29-.143.145-.283.293-.42.446-.094.106-.187.213-.278.322-.133.157-.261.318-.387.481-.086.113-.172.225-.255.34-.125.172-.244.349-.362.528-.074.113-.15.225-.222.34-.123.2-.237.4-.351.609-.055.1-.115.2-.167.3-.162.31-.313.624-.449.943a3.941,3.941,0,0,0,1.762,5.213.752.752,0,0,0,.345.084l.013,0a.74.74,0,0,0,.737-.746,6.345,6.345,0,0,1,6.337-6.337h8.394c8.248,18.807,14.961,28.347,19.952,28.347a.75.75,0,0,0,.706-1l-.884-2.476c2.152,2.33,4.083,3.478,5.847,3.478a.75.75,0,0,0,.707-1l-5.177-14.5,19.531,19.532a.75.75,0,0,0,1.061-1.061Zm-50.846-72.421c15.134,0,24.026,19.605,25.309,35.137-.022-.045-.047-.094-.069-.14-.083-.168-.168-.341-.257-.52l-.114-.227q-.155-.307-.32-.631l-.075-.147q-.211-.413-.442-.849l-.055-.1q-.2-.378-.413-.773l-.129-.239q-.2-.362-.4-.735c-.039-.072-.078-.142-.118-.214q-.535-.964-1.145-2.006l-.152-.257q-.234-.4-.48-.806l-.178-.3q-.288-.476-.59-.962l-.074-.119q-.342-.549-.7-1.11c-.06-.094-.123-.19-.184-.285q-.273-.423-.555-.851c-.079-.12-.158-.239-.239-.359q-.284-.429-.58-.861c-.069-.1-.138-.2-.208-.307q-.393-.573-.8-1.152l-.182-.255q-.325-.457-.662-.919l-.3-.407c-.2-.269-.4-.537-.6-.807-.1-.137-.205-.273-.31-.41q-.405-.531-.825-1.065l-.088-.113c-.247-.313-.49-.616-.731-.915l-.051-.062-.179-.221q-.247-.3-.49-.6l-.126-.151-.132-.16c-.153-.184-.3-.363-.456-.542l-.25-.295c-.121-.141-.239-.276-.358-.412l-.166-.191-.171-.2c-.208-.235-.414-.463-.617-.687l-.265-.287c-.126-.137-.252-.273-.376-.405l-.3-.312c-.111-.117-.223-.233-.334-.346l-.029-.029-.275-.281-.33-.326c-.16-.157-.319-.311-.475-.459-.121-.115-.241-.23-.361-.342-.106-.1-.211-.191-.325-.294l-.267-.24c-.112-.1-.224-.2-.332-.288l-.251-.213q-.169-.142-.339-.281l-.225-.18-.077-.058c-.221-.175-.441-.347-.659-.508-.172-.276-.376-.536-.567-.8-.146-.2-.277-.416-.434-.615-.232-.3-.5-.575-.751-.858-.16-.176-.3-.361-.472-.532-.3-.309-.639-.6-.971-.893-.148-.131-.281-.271-.435-.4q-.75-.621-1.585-1.188c-.478-.323-.981-.636-1.5-.931-.7-.4-1.45-.781-2.226-1.129l-.164-.073A15.69,15.69,0,0,1,838.107,1102.773Zm1.01,5.6c-.265-.109-.533-.212-.8-.307-.116-.04-.234-.08-.351-.118-.272-.089-.549-.17-.829-.246-.1-.027-.2-.056-.3-.081-.379-.1-.766-.181-1.165-.255-.071-.013-.146-.023-.218-.035q-.5-.087-1.025-.154c-.135-.017-.273-.032-.411-.047-.313-.034-.634-.063-.961-.087-.136-.01-.271-.021-.409-.029-.461-.028-.933-.049-1.427-.058-.3-.006-.6-.009-.906-.009-.11,0-.215.005-.32.009l-.077,0c-.313.012-.615.042-.911.082-.092.012-.18.03-.271.046-.2.034-.4.073-.6.12-.1.024-.2.051-.295.079-.183.052-.362.112-.537.176-.09.034-.181.065-.269.1-.029.012-.06.021-.089.033.089-.1.18-.2.273-.293.194-.2.39-.4.6-.594.168-.155.346-.3.523-.45.227-.188.454-.375.694-.551.136-.1.277-.195.417-.29q.376-.255.773-.489c.18-.106.36-.211.546-.31.374-.2.753-.4,1.147-.565l.024-.012h0l0,0c.585.217,1.165.443,1.716.691.731.329,1.437.687,2.1,1.064.483.276.954.569,1.4.87.477.323.924.664,1.354,1.014.138.112.265.23.4.345.179.155.348.315.517.474l-.043-.017C839.3,1108.438,839.206,1108.4,839.117,1108.368Zm-12.359-5.894c-.071-.064-.139-.126-.213-.191-.258-.222-.531-.448-.83-.678-.048-.037-.1-.075-.152-.112-.258-.193-.53-.388-.819-.584-.144-.1-.3-.194-.448-.292-.211-.135-.429-.27-.656-.4-.181-.108-.361-.215-.553-.322-.262-.147-.54-.291-.822-.435-.147-.075-.276-.152-.429-.226s-.337-.149-.5-.226c-.283-.13-.565-.261-.866-.388-.22-.093-.448-.18-.674-.269-.286-.113-.576-.225-.879-.334-.226-.081-.455-.159-.686-.237-.321-.108-.651-.212-.988-.315-.228-.068-.455-.136-.686-.2-.356-.1-.725-.2-1.1-.29-.149-.038-.291-.081-.442-.117l-.293-.064c-.248-.057-.5-.112-.76-.166q-.477-.1-.964-.193c-.258-.048-.516-.1-.781-.142-.4-.068-.8-.129-1.2-.188-.166-.024-.32-.054-.489-.077a4.151,4.151,0,0,0,.315-.33l.284.008.16.006.143.006a34.207,34.207,0,0,1,10.686,2.211l.04.016c.419.17.834.36,1.245.558.069.033.138.062.206.1.45.222.893.461,1.325.719l.044.027c.4.242.793.5,1.174.778.052.037.1.073.156.111q.566.42,1.089.892c.06.054.117.109.175.164a13.018,13.018,0,0,1,.961.99c.013.016.028.031.042.046a12.171,12.171,0,0,1,.858,1.147l.082.122c-.119.07-.23.148-.346.22-.15.093-.3.186-.445.283-.083.055-.171.1-.252.161-.126-.157-.267-.323-.419-.5l-.036-.038c-.163-.183-.345-.374-.54-.571-.055-.056-.113-.112-.171-.168C827.133,1102.815,826.951,1102.646,826.758,1102.474Zm-7.193-1.534c-.07.038-.143.069-.216.1a2.766,2.766,0,0,1-.345.122c-.058.016-.116.034-.175.046a2.722,2.722,0,0,1-.565.065,2.778,2.778,0,0,1-.52-.052c-.066-.013-.13-.035-.2-.053a2.585,2.585,0,0,1-.291-.09c-.074-.028-.144-.064-.215-.1s-.158-.079-.233-.125-.135-.089-.2-.136-.139-.109-.2-.168-.114-.1-.167-.16-.125-.144-.183-.22c-.043-.056-.088-.111-.127-.17a2.8,2.8,0,0,1-.155-.28c-.028-.056-.06-.109-.084-.167a2.668,2.668,0,0,1-.118-.368c-.012-.043-.03-.083-.039-.127s-.008-.091-.015-.135a2.737,2.737,0,0,1-.042-.4c.175.046.346.093.516.14.648.179,1.28.37,1.889.577.066.023.137.044.2.066.327.114.645.234.96.355.125.048.251.1.372.145q.454.181.892.375l.115.052a2.194,2.194,0,0,1-.623.565C819.721,1100.844,819.646,1100.9,819.565,1100.94Zm-10.865-3.62c.186.019.357.045.538.065.659.076,1.313.158,1.95.257.221.034.43.072.645.109.637.107,1.263.223,1.873.353l.278.061c-.009.1-.013.21-.013.315v.051l-11.119,1.483A45.563,45.563,0,0,0,808.7,1097.32Zm5.471-3.193c.005-.024.009-.046.014-.07.024-.112.052-.231.084-.354l.027-.1c.029-.1.061-.21.1-.317.011-.033.021-.064.032-.1.047-.133.1-.268.158-.4.013-.028.027-.055.04-.084q.077-.167.168-.33c.019-.034.038-.069.058-.1a4.008,4.008,0,0,1,.255-.381c.013-.017.028-.032.041-.048a3.2,3.2,0,0,1,.272-.3c.029-.029.059-.057.09-.085a2.787,2.787,0,0,1,.377-.291c1.005-.629,2.422-.56,4.212.205a8.17,8.17,0,0,1,.949.482c.1.056.176.12.266.179a6.485,6.485,0,0,1,.536.383c.094.078.175.162.262.243a5.237,5.237,0,0,1,.39.4c.079.093.149.191.22.288a4.492,4.492,0,0,1,.282.435c.06.106.114.214.165.324a4.5,4.5,0,0,1,.187.48c.038.116.076.233.1.353a4.9,4.9,0,0,1,.095.539c.016.122.036.243.044.37a6.13,6.13,0,0,1,0,.621c0,.121,0,.238-.011.362,0,.025-.01.053-.012.078-.282-.127-.567-.242-.852-.358-.049-.02-.1-.042-.146-.062q-.9-.36-1.8-.649c-.085-.028-.172-.053-.258-.08-.689-.215-1.373-.406-2.043-.567-.3-.073-.606-.14-.9-.2l-.345-.071c-.315-.064-.627-.123-.929-.176l-.056-.011c-.355-.061-.7-.114-1.029-.162-.042-.006-.083-.013-.125-.018-.336-.048-.662-.091-.971-.127l.007-.042C814.137,1094.305,814.153,1094.218,814.171,1094.127Zm2.635-8.872v1.177a.75.75,0,0,0,1.3.513,16.378,16.378,0,0,1,5.789-3.764v1.834a.75.75,0,0,0,1.269.541,11.894,11.894,0,0,1,4.221-2.357l-1.227,7.362a.749.749,0,0,0,.739.873h.488c-.37,1.9-1.006,6.275.144,9.7-.175-.2-.37-.381-.558-.57-.069-.069-.134-.141-.205-.209a16.581,16.581,0,0,0-2.7-2.1l-.026-.015c-.336-.211-.676-.421-1.036-.617.024-.147.022-.284.039-.428.022-.2.045-.4.053-.6.011-.235,0-.462-.006-.687-.009-.187-.015-.374-.037-.554a6.348,6.348,0,0,0-.12-.643c-.039-.171-.072-.344-.123-.508a5.951,5.951,0,0,0-.237-.6c-.066-.153-.125-.31-.2-.456a6.029,6.029,0,0,0-.358-.556c-.092-.133-.174-.272-.278-.4a6.642,6.642,0,0,0-.493-.515c-.112-.111-.212-.228-.334-.333a7.754,7.754,0,0,0-.675-.493c-.116-.079-.217-.167-.341-.242a9.38,9.38,0,0,0-1.2-.616c-2.273-.972-4.158-1-5.6-.092a4.187,4.187,0,0,0-.54.412c-.042.037-.083.074-.124.113a4.762,4.762,0,0,0-.435.467l-.006.008a5.009,5.009,0,0,0-.36.522c-.028.045-.055.09-.082.136-.1.176-.2.353-.279.532l0,0c-.084.185-.155.367-.22.548-.017.046-.032.09-.047.135-.059.173-.113.344-.157.508v0c-.046.169-.081.328-.113.48-.008.04-.016.076-.023.114-.027.137-.05.268-.067.383l0,.012c-.352-.027-.667-.047-.942-.06.253-.571.469-1.169.692-1.788A16.326,16.326,0,0,1,816.806,1085.255Zm-10.377,15.8,6.746-.9,1.077-.143c.01.027.026.051.037.078.029.071.066.138.1.207a4.126,4.126,0,0,0,.254.467c.048.076.1.149.149.221a4.338,4.338,0,0,0,.323.392c.057.062.11.127.17.185a4.327,4.327,0,0,0,.549.453c.064.044.135.078.2.119a4.277,4.277,0,0,0,.451.245c.089.041.181.076.273.111a4.292,4.292,0,0,0,.476.148c.086.021.169.045.257.06a4.212,4.212,0,0,0,.773.079,4.268,4.268,0,0,0,.8-.085c.057-.011.112-.025.168-.038a4.253,4.253,0,0,0,.736-.239l.015,0,.212,1.061.106.531C817.632,1102.82,814.078,1101.388,806.429,1101.051Zm15.6,3.942-.7-3.518c.011-.012.019-.025.03-.036a4.215,4.215,0,0,0,.39-.473c.018-.023.04-.044.056-.067l.119.061c.295.157.58.315.85.474l.158.094c.282.169.555.339.81.508l.062.042a16.168,16.168,0,0,1,3.009,2.551c.035.038.074.079.107.116.082.093.153.179.226.266.043.053.087.1.127.156-.153.129-.3.267-.443.4-.05.046-.1.091-.152.138a14.559,14.559,0,0,0-1.7,1.89c-.044.058-.082.119-.125.178-.138.19-.278.379-.4.574A8.487,8.487,0,0,0,822.033,1104.993Zm1.945,9.729a8.279,8.279,0,0,1,1.095-3.586,5.609,5.609,0,0,1,4.9-2.683l.084,0c.368-.015.758-.007,1.132,0a17.905,17.905,0,0,1,9.616,2.441c.464.28.937.6,1.408.937h0c.267.194.535.4.8.615l.213.17q.16.131.324.268l.236.2q.158.135.315.273l.568.513c.113.1.228.215.344.326.152.144.3.292.457.442l1.225,1.252c.121.128.243.26.366.394l.259.281q.3.327.6.671l.168.193c.169.192.339.389.512.59l.833.991.78.95.043.054c.119.147.241.3.361.45s.238.3.36.451h0q.561.711,1.1,1.419l.239.316q.514.684,1.007,1.363c.059.082.116.164.175.246q.439.61.859,1.214l.18.258q.457.663.892,1.315l.208.314c.28.423.555.844.821,1.258l.045.071c.276.431.54.854.8,1.274l.191.31c.248.4.49.8.722,1.193l.144.244q.3.511.588,1.006l.147.256q.318.556.614,1.087c.051.092.1.184.152.275.182.33.359.654.528.968.018.035.039.071.057.1.18.337.35.66.515.976l.137.261c.156.3.308.6.45.879.029.058.056.113.085.17q.185.369.353.711c.031.062.063.126.092.187q.185.378.347.719c.03.062.058.123.087.183.095.2.186.4.269.574l.037.079c.091.2.172.376.248.544l.031.07q-.449-.074-.9-.152c-1.527-.265-3.052-.587-4.563-.936a.73.73,0,0,0-.485-.112c-.343-.081-.69-.152-1.03-.237-1.479-.37-2.947-.78-4.364-1.219l-.056-.016-.07-.021c-.868-.269-1.731-.567-2.593-.869-1.3-.456-2.6-.934-3.865-1.455-6.835-2.809-12.4-6.316-16.1-10.144a23.889,23.889,0,0,1-1.959-2.283,14.242,14.242,0,0,1-3.145-8.539Zm8.789,20.537c-.24-.35-.479-.7-.7-1.048-.155-.241-.3-.479-.447-.718-.068-.113-.132-.224-.2-.336l1.989-1.99c.326.226.674.445,1.013.667.26.171.511.346.779.514.468.294.958.58,1.447.866.227.133.442.269.672.4l.016.01L834,1136.954c-.256-.333-.517-.667-.757-1C833.08,1135.722,832.926,1135.491,832.767,1135.259Zm-2.982-5.1c-.158-.323-.3-.638-.448-.949-.091-.2-.186-.4-.271-.6-.145-.332-.278-.651-.407-.967-.064-.157-.134-.321-.194-.474-.014-.034-.024-.064-.037-.1.193.192.409.379.61.569.227.213.448.426.685.637.3.265.616.526.932.788.246.2.485.409.741.61s.524.4.788.595l-1.54,1.54-.012-.023q-.267-.487-.511-.965C830.007,1130.6,829.892,1130.375,829.785,1130.156Zm7.819,10.854c-.521-.505-1.032-1.027-1.527-1.565l0,0c-.4-.434-.761-.872-1.127-1.31l3.768-3.768c.286.152.561.308.853.458.158.08.328.156.488.236.621.31,1.247.618,1.894.915.317.146.648.283.971.425l.1.044-4.974,4.974C837.9,1141.279,837.749,1141.15,837.6,1141.01Zm-6.6,5.244c.123-.289.26-.574.4-.853.046-.089.1-.175.147-.262.1-.188.208-.376.321-.558.064-.1.133-.2.2-.3.106-.162.213-.323.326-.479.075-.1.153-.2.23-.3.114-.146.228-.292.347-.433.083-.1.168-.193.254-.288.12-.134.242-.266.368-.393.089-.091.18-.179.271-.266.128-.122.258-.24.39-.355.094-.081.189-.161.285-.239.135-.109.273-.213.411-.314.1-.07.193-.141.292-.207.048-.032.1-.06.147-.092.2.206.4.4.6.6.281.284.56.568.848.842.076.072.148.151.225.223-.034.007-.064.021-.1.029a7.833,7.833,0,0,0-.943.29c-.05.019-.1.042-.147.062a7.755,7.755,0,0,0-.853.405c-.029.017-.06.03-.089.047a7.814,7.814,0,0,0-.817.544c-.053.039-.1.078-.157.119a7.935,7.935,0,0,0-.718.641c-.04.04-.077.082-.115.123a7.767,7.767,0,0,0-.621.736c-.012.015-.024.029-.035.044a7.681,7.681,0,0,0-.528.843c-.03.055-.061.11-.091.166a7.833,7.833,0,0,0-.394.893c-.021.057-.039.114-.058.172a7.743,7.743,0,0,0-.276,1A2.414,2.414,0,0,1,831,1146.254Zm8.207-3.879,5.181-5.181.055.132q.914,2.245,1.872,4.477c.081.189.158.383.24.572Zm9.179.452h0c-.639-1.467-1.269-2.96-1.889-4.455q-.121-.292-.241-.586c.372.144.75.276,1.126.413.255.094.509.19.766.281.938.334,1.881.656,2.829.954.146.35.3.712.451,1.073.028.066.054.129.083.2.177.419.359.847.544,1.278.048.11.093.218.141.329.178.412.36.831.544,1.253.057.129.111.256.168.386.173.393.35.791.527,1.19.075.167.147.332.223.5.167.374.339.751.511,1.129l.261.578c.024.051.047.1.071.155.05.107.1.216.15.324.1.206.192.412.288.619s.192.416.29.626l.062.132c.09.192.183.385.274.577l.168.353c.106.224.211.446.318.67l.053.11c.124.258.252.515.377.773.025.05.049.1.073.15.114.232.226.464.34.7l.044.09c.146.294.295.587.442.88l.021.041c.118.235.235.472.355.706l.036.072c.151.3.3.588.457.882l.033.063c.117.226.233.453.351.678l.032.06c.152.29.307.575.462.862l.064.121c.112.207.222.417.334.623l.025.044c.16.293.321.578.482.867l.119.213c.1.177.2.357.3.532.158.278.318.547.477.821.138.238.276.482.416.717l.022.037c.147.247.3.484.442.727s.3.505.457.75l.025.041c.14.224.281.438.421.657.16.25.319.5.479.747l.025.039c.135.2.271.4.406.6.155.229.311.465.466.687l1.933,5.412C861.779,1168.91,855.456,1159.023,848.388,1142.827Zm16.982,21.478q-.449-.638-.9-1.317c-.1-.146-.192-.3-.288-.449-.2-.311-.4-.622-.606-.944-.118-.189-.235-.386-.353-.578-.179-.291-.357-.58-.534-.878-.13-.218-.259-.442-.388-.663-.165-.282-.33-.565-.494-.853-.133-.233-.265-.471-.4-.707-.16-.286-.32-.572-.479-.862-.133-.243-.265-.489-.4-.735-.155-.288-.31-.576-.464-.868q-.2-.383-.4-.769c-.069-.131-.137-.264-.205-.4-.079-.154-.16-.307-.239-.461q-.2-.4-.406-.8c-.141-.282-.283-.563-.423-.846s-.273-.551-.409-.827-.271-.555-.405-.833-.271-.562-.4-.844-.261-.549-.391-.823-.267-.567-.4-.849l-.373-.807c-.13-.284-.262-.569-.39-.852-.122-.266-.24-.529-.36-.794-.127-.282-.255-.565-.38-.845l-.345-.781c-.121-.274-.244-.55-.363-.822l-.343-.791-.336-.776c-.115-.267-.225-.527-.336-.789-.1-.245-.211-.494-.313-.735l-.009-.02c.09.026.184.047.274.073.874.249,1.755.489,2.645.712.32.08.648.148.971.225l8.326,19.428a.75.75,0,0,0,1.379-.591l-7.892-18.416.191.04c.322.069.645.126.968.191.6.121,1.207.247,1.811.355l4.313,12.078,5.859,16.4C870.269,1169.95,868.209,1168.341,865.37,1164.305Z" fill="#1a1a1a"/>
      <path id="Path_2019" data-name="Path 2019" d="M819.5,1139.761a.75.75,0,0,0-1.06,1.06l35.433,35.433a.75.75,0,0,0,1.06-1.06Z" fill="#1a1a1a"/>
    </g>
  </g>
</svg>