<?xml version="1.0" encoding="utf-8"?>
<svg width="800px" height="800px" viewBox="0 -7.47 81.631 81.631" xmlns="http://www.w3.org/2000/svg">
  <g id="Group_5985" data-name="Group 5985" transform="translate(-934.573 -1370.648)">
    <g id="Group_5984" data-name="Group 5984">
      <g id="Group_5938" data-name="Group 5938">
        <g id="Group_5937" data-name="Group 5937">
          <g id="Group_5936" data-name="Group 5936">
            <path id="Path_2168" data-name="Path 2168" d="M946.946,1372.335a8.376,8.376,0,0,0-3.774-.937,14.529,14.529,0,0,0-2.822.269,9.891,9.891,0,0,1-1.808,5.791,4.679,4.679,0,0,1,1.795,1.027A12.343,12.343,0,0,0,946.946,1372.335Z" fill="#689fca"/>
          </g>
        </g>
      </g>
      <g id="Group_5941" data-name="Group 5941">
        <g id="Group_5940" data-name="Group 5940">
          <g id="Group_5939" data-name="Group 5939">
            <path id="Path_2169" data-name="Path 2169" d="M953.093,1378.485a16.608,16.608,0,0,0-6.147-6.15,12.343,12.343,0,0,1-6.609,6.15s3.032,4.252,9.921,4.252a29.528,29.528,0,0,0-1.417,8.5,7.087,7.087,0,0,1,7.087-7.087,8.88,8.88,0,0,1,4.135,1.3Z" fill="#94d056"/>
          </g>
        </g>
      </g>
      <g id="Group_5944" data-name="Group 5944">
        <g id="Group_5943" data-name="Group 5943">
          <g id="Group_5942" data-name="Group 5942">
            <path id="Path_2170" data-name="Path 2170" d="M940.337,1378.485a5.947,5.947,0,0,0-4.252-1.417c-2.355,5.3,1.417,7.086,1.417,7.086v-1.417l2.835,1.417S939.568,1380.452,940.337,1378.485Z" fill="#666"/>
          </g>
        </g>
      </g>
      <g id="Group_5947" data-name="Group 5947">
        <g id="Group_5946" data-name="Group 5946">
          <g id="Group_5945" data-name="Group 5945">
            <path id="Path_2171" data-name="Path 2171" d="M936.085,1377.068a7.556,7.556,0,0,1,2.457.39,9.891,9.891,0,0,0,1.808-5.791C934.6,1372.793,936.085,1377.068,936.085,1377.068Z" fill="#fc4b36"/>
          </g>
        </g>
      </g>
      <g id="Group_5950" data-name="Group 5950">
        <g id="Group_5949" data-name="Group 5949">
          <g id="Group_5948" data-name="Group 5948">
            <path id="Path_2172" data-name="Path 2172" d="M958.222,1403.329h-.537a.748.748,0,0,1-.451-.151c-.565-.426-1.066-.826-1.531-1.223a.749.749,0,0,1,.891-1.2c.593.38,1.243.762,1.986,1.167a.749.749,0,0,1-.358,1.408Z" fill="#7a7a7a"/>
          </g>
        </g>
      </g>
      <g id="Group_5953" data-name="Group 5953">
        <g id="Group_5952" data-name="Group 5952">
          <g id="Group_5951" data-name="Group 5951">
            <path id="Path_2173" data-name="Path 2173" d="M981.439,1408.249s-.1-.141-.278-.392c-1.4-1.97-7.949-11.067-14.635-17.4a15.842,15.842,0,0,1,3.575,12.123l9.125,5.61C979.965,1408.226,980.7,1408.248,981.439,1408.249Z" fill="#94d056"/>
          </g>
        </g>
      </g>
      <g id="Group_5956" data-name="Group 5956">
        <g id="Group_5955" data-name="Group 5955">
          <g id="Group_5954" data-name="Group 5954">
            <path id="Path_2174" data-name="Path 2174" d="M950.258,1382.737c-6.889,0-9.921-4.252-9.921-4.252-.769,1.967,0,5.669,0,5.669,0,8.011,4.252,11.339,4.252,11.339l4.978-1a7.989,7.989,0,0,1-.726-3.256A29.528,29.528,0,0,1,950.258,1382.737Z" fill="#e6e6e6"/>
          </g>
        </g>
      </g>
      <g id="Group_5959" data-name="Group 5959">
        <g id="Group_5958" data-name="Group 5958">
          <g id="Group_5957" data-name="Group 5957">
            <path id="Path_2175" data-name="Path 2175" d="M979.226,1408.19l-9.125-5.61H957.686c8.783,6.621,24.075,11.85,31.781,14.215,2.9.89,4.728,1.375,4.728,1.375Z" fill="#689fca"/>
          </g>
        </g>
      </g>
      <g id="Group_5962" data-name="Group 5962">
        <g id="Group_5961" data-name="Group 5961">
          <g id="Group_5960" data-name="Group 5960">
            <path id="Path_2176" data-name="Path 2176" d="M966.526,1390.457a33.677,33.677,0,0,0-6.463-5,8.88,8.88,0,0,0-4.135-1.3,7.087,7.087,0,0,0-7.087,7.087,7.989,7.989,0,0,0,.726,3.256c1.118,2.521,3.478,4.869,6.622,6.888.644.413,1.326.81,2.033,1.195H970.1A15.842,15.842,0,0,0,966.526,1390.457Z" fill="#5cb755"/>
          </g>
        </g>
      </g>
      <g id="Group_5965" data-name="Group 5965">
        <g id="Group_5964" data-name="Group 5964">
          <g id="Group_5963" data-name="Group 5963">
            <path id="Path_2177" data-name="Path 2177" d="M989.467,1416.8c-3.773-1.158-9.365-3-15.121-5.362l7.093,5.32,34.016,19.842Z" fill="#94d056"/>
          </g>
        </g>
      </g>
      <g id="Group_5968" data-name="Group 5968">
        <g id="Group_5967" data-name="Group 5967">
          <g id="Group_5966" data-name="Group 5966">
            <path id="Path_2178" data-name="Path 2178" d="M981.439,1416.753l-7.093-5.32c-6-2.459-12.177-5.474-16.66-8.853h.536c-.707-.385-1.389-.782-2.033-1.195-3.144-2.019-5.5-4.367-6.622-6.888l-4.978,1a20.228,20.228,0,0,0,10.533,12.981l.806,4.027h2.834a7.032,7.032,0,0,0,2.812-1.917,31.548,31.548,0,0,0,5.692.5Z" fill="#ffff40"/>
          </g>
        </g>
      </g>
      <g id="Group_5971" data-name="Group 5971">
        <g id="Group_5970" data-name="Group 5970">
          <g id="Group_5969" data-name="Group 5969">
            <path id="Path_2179" data-name="Path 2179" d="M940.337,1405.414l28.346,28.346v-5.669l-28.346-28.346Z" fill="#be8a66"/>
          </g>
        </g>
      </g>
      <g id="Group_5974" data-name="Group 5974">
        <g id="Group_5973" data-name="Group 5973">
          <g id="Group_5972" data-name="Group 5972">
            <path id="Path_2180" data-name="Path 2180" d="M953.192,1418.821a.759.759,0,0,1-.216-.032,2.87,2.87,0,1,1,3.57-3.57.75.75,0,0,1-.934.934,1.346,1.346,0,0,0-1.769,1.308,1.329,1.329,0,0,0,.068.393.751.751,0,0,1-.719.967Zm.61-4.153a1.376,1.376,0,0,0-1.3,1.838,2.89,2.89,0,0,1,1.757-1.758A1.358,1.358,0,0,0,953.8,1414.668Z" fill="#7a7a7a"/>
          </g>
        </g>
      </g>
      <g id="Group_5977" data-name="Group 5977">
        <g id="Group_5976" data-name="Group 5976">
          <g id="Group_5975" data-name="Group 5975">
            <path id="Path_2181" data-name="Path 2181" d="M949.039,1414.569a.752.752,0,0,1-.215-.032,2.87,2.87,0,1,1,3.57-3.57.75.75,0,0,1-.935.934,1.361,1.361,0,0,0-.393-.068,1.348,1.348,0,0,0-1.308,1.771.751.751,0,0,1-.719.965Zm.61-4.153a1.377,1.377,0,0,0-1.3,1.839,2.894,2.894,0,0,1,1.758-1.759A1.368,1.368,0,0,0,949.649,1410.416Z" fill="#7a7a7a"/>
          </g>
        </g>
      </g>
      <g id="Group_5980" data-name="Group 5980">
        <g id="Group_5979" data-name="Group 5979">
          <g id="Group_5978" data-name="Group 5978">
            <path id="Path_2182" data-name="Path 2182" d="M957.345,1416.585a1.25,1.25,0,0,1-1.25-1.25v-2.126a1.25,1.25,0,0,1,2.5,0v2.126A1.249,1.249,0,0,1,957.345,1416.585Z" fill="#7a7a7a"/>
          </g>
        </g>
      </g>
      <g id="Group_5983" data-name="Group 5983">
        <g id="Group_5982" data-name="Group 5982">
          <g id="Group_5981" data-name="Group 5981">
            <path id="Path_2183" data-name="Path 2183" d="M953.106,1412.268a1.25,1.25,0,0,1-1.25-1.25v-3.041a1.25,1.25,0,0,1,2.5,0v3.041A1.249,1.249,0,0,1,953.106,1412.268Z" fill="#7a7a7a"/>
          </g>
        </g>
      </g>
    </g>
    <path id="Path_2184" data-name="Path 2184" d="M1015.909,1436l-22.753-17.336c.534.15.839.231.847.233a.75.75,0,0,0,.608-1.349l-12.905-8.6a.746.746,0,0,0,.474-.808.736.736,0,0,0-.142-.338l-.265-.374c-1.8-2.544-8.2-11.326-14.732-17.511a34.491,34.491,0,0,0-6.516-5.055l-6.829-6.829a17.117,17.117,0,0,0-6.413-6.363h0a9.13,9.13,0,0,0-4.11-1.016,15.262,15.262,0,0,0-2.966.283c-2.179.426-3.681,1.334-4.465,2.7a4.714,4.714,0,0,0-.444,3.4c-2.371,5.695,1.841,7.785,1.884,7.806a.75.75,0,0,0,1.071-.678v-.2l1.349.674c.146,7.03,3.434,10.481,4.312,11.275a20.86,20.86,0,0,0,8.072,11.545,1.239,1.239,0,0,0-.129.532v1.993a2.814,2.814,0,0,0-1.025-.791l-9.964-9.964a.75.75,0,0,0-1.061,1.06l8.834,8.833a2.874,2.874,0,0,0-1.722,1.827l-6.051-6.051a.75.75,0,0,0-1.061,1.061l7.486,7.485a2.851,2.851,0,0,0,.712.712l3.272,3.272a2.849,2.849,0,0,0,1.122,1.122l15.755,15.755a.75.75,0,0,0,1.061-1.061l-15.29-15.289a.652.652,0,0,0-.014-.087,1.358,1.358,0,0,1-.067-.393,1.346,1.346,0,0,1,1.769-1.308c.025.007.049,0,.074,0l12.467,12.466a.75.75,0,1,0,1.061-1.06l-11.2-11.2a1.23,1.23,0,0,0,.579-1.028v-2.084h.167a.754.754,0,0,0,.221-.033,7.69,7.69,0,0,0,2.856-1.827,32.565,32.565,0,0,0,5.282.442l13.987,5.595,33.969,19.815a.75.75,0,0,0,.832-1.245Zm-26.222-19.92c-3.681-1.129-9.281-2.973-15.057-5.339q-4.93-2.021-8.854-4.061l-.024-.012c-.57-.3-1.115-.593-1.652-.889-.1-.055-.2-.108-.3-.163-.427-.238-.831-.476-1.236-.715-.2-.115-.4-.23-.591-.347-.316-.191-.613-.381-.915-.572-.263-.166-.528-.332-.784-.5-.076-.05-.145-.1-.221-.151h9.832l3.92,2.41,5.014,3.083,10.9,7.266Zm-39.435-21.885a7.264,7.264,0,0,1-.661-2.952,6.344,6.344,0,0,1,6.337-6.337,4.9,4.9,0,0,1,.83.076,9.71,9.71,0,0,1,2.942,1.132,32.666,32.666,0,0,1,6.271,4.852c.254.3.488.6.707.906.063.087.119.175.179.262.152.222.3.444.434.666.065.107.127.214.188.322q.18.313.34.627c.053.1.107.208.157.312q.166.351.31.7c.03.073.065.146.094.219q.18.453.323.9c.024.071.042.141.064.212.069.225.134.448.191.667.027.1.05.2.074.3.044.189.086.375.123.558.02.1.039.2.056.292.035.189.064.374.09.555.012.078.025.158.035.234.032.251.06.5.079.729,0,.023,0,.044.005.068.017.211.029.413.037.607,0,.073,0,.142.006.212,0,.138.007.273.007.4,0,.069,0,.137,0,.2,0,.123,0,.239-.008.348,0,.051,0,.105-.005.153-.006.129-.013.248-.021.355l0,.054v.01H958.418c-.194-.107-.378-.211-.56-.316-.12-.069-.249-.14-.364-.207q-.473-.279-.9-.552C953.455,1398.738,951.262,1396.469,950.252,1394.193Zm29.711,13.278-.509-.021-8.546-5.254c0-.036.007-.086.011-.124.007-.078.014-.157.021-.247s.011-.163.016-.253.011-.212.015-.328c0-.1.006-.194.008-.3,0-.129,0-.265,0-.406,0-.11,0-.217-.005-.333,0-.156-.014-.322-.023-.49-.007-.116-.012-.227-.021-.349-.015-.2-.039-.408-.063-.619-.011-.1-.019-.2-.033-.305-.042-.321-.094-.653-.161-1-.007-.037-.017-.076-.025-.112-.061-.308-.131-.621-.215-.942-.03-.117-.069-.237-.1-.355-.07-.248-.142-.5-.228-.75-.013-.04-.022-.079-.036-.12A147.857,147.857,0,0,1,979.963,1407.471Zm-27.529-28.626a.767.767,0,0,0,.128.17l4.5,4.5c-.017,0-.033,0-.051-.005a6.312,6.312,0,0,0-1.079-.1,7.916,7.916,0,0,0-.819.044c-.09.009-.178.028-.267.04-.177.025-.355.048-.528.085-.1.022-.2.053-.306.079-.154.039-.31.076-.46.124-.107.034-.209.076-.313.115-.141.052-.283.1-.421.162-.105.045-.206.1-.309.149-.13.063-.261.126-.387.2-.1.058-.2.121-.3.183-.119.074-.239.147-.355.227-.1.069-.191.142-.285.214-.11.084-.219.168-.324.257s-.179.161-.267.243-.2.186-.293.284c-.031.032-.065.061-.1.093.013-.06.025-.12.038-.178.024-.109.047-.216.071-.32.02-.088.04-.175.06-.259.025-.1.05-.206.074-.3.019-.077.038-.153.057-.226q.036-.144.072-.276c.016-.063.033-.127.049-.186.024-.088.047-.171.07-.25l.042-.15c.021-.072.04-.136.058-.2.013-.042.026-.088.038-.126.016-.054.03-.1.044-.145s.021-.068.03-.094l.032-.1.016-.049.018-.055a.75.75,0,0,0-.709-.995,15.074,15.074,0,0,1-1.509-.082c-.122-.012-.242-.026-.361-.04-.44-.055-.866-.123-1.265-.211l-.068-.013c-.421-.1-.812-.211-1.186-.335-.1-.032-.188-.064-.279-.1-.33-.118-.645-.243-.937-.376l-.09-.038c-.317-.147-.606-.3-.879-.46-.071-.041-.138-.081-.206-.122-.229-.139-.445-.278-.642-.417-.029-.02-.062-.04-.09-.061-.217-.156-.411-.309-.588-.457-.048-.04-.093-.079-.138-.118-.138-.119-.265-.235-.376-.341l-.053-.051.072-.037c.1-.051.209-.109.322-.169a1.9,1.9,0,0,0,1.187.423,1.91,1.91,0,0,0,1.778-2.625l.027-.028c.061-.061.122-.127.184-.191.174-.179.346-.367.518-.565.072-.084.143-.167.214-.253q.288-.35.565-.736c.037-.051.074-.1.11-.149.217-.312.426-.645.629-1,.017-.03.036-.055.053-.085A16.509,16.509,0,0,1,952.434,1378.845Zm-6.534-6.157c-.008.013-.015.029-.023.043-.2.344-.413.665-.631.967-.051.072-.1.141-.156.211-.2.269-.408.524-.616.76-.023.026-.046.055-.069.081-.175.195-.352.365-.529.538a1.9,1.9,0,0,0-.7-.138,1.921,1.921,0,0,0-1.918,1.918c0,.056.012.109.017.165-.1.056-.213.116-.306.163l-.1.049c-.143.07-.276.131-.382.177l-.005,0c-.061-.046-.142-.1-.218-.15l-.09-.061a5.564,5.564,0,0,0-.5-.289h0c.021-.036.041-.077.062-.113s.055-.1.082-.149q.114-.21.225-.444c.021-.044.042-.086.063-.132q.135-.3.26-.635c.02-.053.038-.111.057-.166q.1-.272.182-.568c.022-.077.044-.153.065-.232.063-.237.122-.484.174-.744.006-.03.013-.058.019-.088.055-.287.1-.591.138-.907.011-.092.02-.189.03-.285.012-.119.027-.233.037-.356a13.976,13.976,0,0,1,2.107-.156A7.384,7.384,0,0,1,945.9,1372.688Zm-8.858,1.689,2.484-1.732,0,.019a11.293,11.293,0,0,1-.187,1.129c-.02.093-.041.184-.062.273-.077.317-.161.618-.255.889-.007.019-.012.041-.018.059a8.077,8.077,0,0,1-.332.791c-.028.059-.057.116-.085.172-.1.2-.211.395-.318.562-.009.014-.018.031-.027.046l-.018,0c-.063-.016-.135-.027-.2-.042-.225-.052-.453-.1-.687-.129-.1-.013-.2-.022-.3-.033s-.226-.03-.343-.038A3.149,3.149,0,0,1,937.042,1374.377Zm.8,7.689a.764.764,0,0,0-.336-.079.749.749,0,0,0-.725.56c-.62-.842-1.119-2.32-.206-4.692.132.009.266.016.4.031s.283.032.412.055a6.221,6.221,0,0,1,.853.21c.027.009.061.016.087.025a4.7,4.7,0,0,1,1.151.572c0,.015,0,.033-.008.049a6.994,6.994,0,0,0-.155.912c0,.032-.007.064-.01.1-.032.334-.047.674-.048,1.012v.02c0,.347.014.689.035,1.018l.006.075c.021.31.05.6.081.874l0,.03Zm3.249,2.088a.777.777,0,0,0-.016-.152c-.022-.109-.048-.248-.074-.4l-.019-.122c-.021-.124-.041-.26-.061-.4-.007-.052-.015-.1-.022-.157-.05-.388-.1-.827-.122-1.281,0-.065-.006-.131-.009-.2-.008-.169-.012-.339-.014-.509,0-.068,0-.137,0-.2,0-.227.009-.452.026-.669.028.025.064.054.093.08.118.106.244.214.38.327.06.049.119.1.184.149.169.134.351.269.547.407.035.025.065.049.1.074.231.159.483.318.749.475.075.044.155.086.232.13.21.118.429.232.659.345.095.046.188.092.286.137.295.135.6.265.929.387.031.011.059.025.091.036.355.129.734.245,1.127.351.113.031.231.057.347.085q.458.112.946.2c.131.023.261.047.395.067.452.067.917.123,1.409.152a29.758,29.758,0,0,0-1.16,7.783,8,8,0,0,0,.045.8c.008.079.02.158.03.237q.037.3.1.594c.016.08.032.161.05.241.059.252.128.5.21.755l.014.05.005.017-3.735.747C943.948,1393.853,941.087,1390.607,941.087,1384.154Zm8.562,26.262a1.374,1.374,0,0,1,.362.063l.044.045a2.887,2.887,0,0,0-1.7,1.731,1.377,1.377,0,0,1,1.3-1.839Zm2.857,6.09a1.344,1.344,0,0,1-.08-.462,1.377,1.377,0,0,1,1.376-1.376,1.362,1.362,0,0,1,.461.08A2.89,2.89,0,0,0,952.506,1416.506Zm-1.411-1.4-1.333-1.332a.733.733,0,0,0,0-.175,1.348,1.348,0,0,1,1.308-1.771,1.347,1.347,0,0,1,.361.063l1.441,1.441A2.868,2.868,0,0,0,951.095,1415.111Zm5-.785a2.84,2.84,0,0,0-.924-.808l-1.441-1.44a1.232,1.232,0,0,0,.626-1.06v-2.1c.036.018.066.039.1.058l.735,3.672a.751.751,0,0,0,.736.6h.167Zm11.171-3.993a31.063,31.063,0,0,1-5.557-.487.776.776,0,0,0-.135-.012.752.752,0,0,0-.555.245,6.543,6.543,0,0,1-2.385,1.672h-2.092l-.685-3.424a.747.747,0,0,0-.4-.523,19.785,19.785,0,0,1-9.939-11.732l1.812-.363,1.812-.362c.037.072.084.143.123.215q.113.205.236.411c.1.169.208.337.32.506q.135.2.28.405c.122.168.25.336.382.5.1.133.211.265.323.4.142.168.292.334.444.5.119.129.236.258.361.386.164.168.338.334.513.5.129.123.255.246.39.368.19.172.393.341.594.51.135.113.264.227.4.339.231.185.477.367.722.549.124.092.241.186.368.277q.547.391,1.135.771c.455.387.944.777,1.494,1.192h0q.776.584,1.637,1.168c.252.171.519.337.778.506.325.212.644.424.986.636s.72.433,1.084.648c.265.158.523.315.8.472.459.262.929.518,1.4.774.2.107.388.214.589.321q.92.487,1.865.958c.08.04.155.08.236.12,2.4,1.188,4.891,2.3,7.368,3.312l.537.4,1.939,1.455-8.907-3.563A.736.736,0,0,0,967.266,1410.333Zm14.59,5.794-2.686-2.014c1.35.5,2.659.963,3.916,1.4l.359.123,1.032.349.844.28.968.317q.571.186,1.11.357l.419.132c.452.143.892.281,1.3.406l16.194,12.338Z" fill="#1a1a1a"/>
  </g>
</svg>