<?xml version="1.0" encoding="utf-8"?>
<svg width="800px" height="800px" viewBox="-9.21 0 76.618 76.618" xmlns="http://www.w3.org/2000/svg">
  <g id="Group_2875" data-name="Group 2875" transform="translate(-337.054 -832.225)">
    <g id="Group_2873" data-name="Group 2873">
      <g id="Group_2802" data-name="Group 2802">
        <g id="Group_2801" data-name="Group 2801">
          <g id="Group_2800" data-name="Group 2800">
            <g id="Group_2799" data-name="Group 2799">
              <g id="Group_2798" data-name="Group 2798">
                <path id="Path_1262" data-name="Path 1262" d="M376.073,837.227l-7.087,4.252h13.683a.8.8,0,0,0,.5-1.418A13.788,13.788,0,0,0,376.073,837.227Z" fill="#333"/>
              </g>
            </g>
          </g>
        </g>
      </g>
      <g id="Group_2807" data-name="Group 2807">
        <g id="Group_2806" data-name="Group 2806">
          <g id="Group_2805" data-name="Group 2805">
            <g id="Group_2804" data-name="Group 2804">
              <g id="Group_2803" data-name="Group 2803">
                <path id="Path_1263" data-name="Path 1263" d="M367.569,832.975h-9.922v4.591A13.311,13.311,0,0,1,367.569,832.975Z" fill="#333"/>
              </g>
            </g>
          </g>
        </g>
      </g>
      <g id="Group_2812" data-name="Group 2812">
        <g id="Group_2811" data-name="Group 2811">
          <g id="Group_2810" data-name="Group 2810">
            <g id="Group_2809" data-name="Group 2809">
              <g id="Group_2808" data-name="Group 2808">
                <path id="Path_1264" data-name="Path 1264" d="M364.734,835.81c5.789,0,8.5,2.835,8.5,2.835l.177.177,2.658-1.6a10.881,10.881,0,0,0-8.5-4.252,13.311,13.311,0,0,0-9.922,4.591,11.775,11.775,0,0,0-1.607,2.5h.19A10.366,10.366,0,0,1,364.734,835.81Z" fill="#e5e5e5"/>
              </g>
            </g>
          </g>
        </g>
      </g>
      <g id="Group_2817" data-name="Group 2817">
        <g id="Group_2816" data-name="Group 2816">
          <g id="Group_2815" data-name="Group 2815">
            <g id="Group_2814" data-name="Group 2814">
              <g id="Group_2813" data-name="Group 2813">
                <path id="Path_1265" data-name="Path 1265" d="M368.986,841.479l4.429-2.657-.177-.177s-2.715-2.835-8.5-2.835a10.366,10.366,0,0,0-8.5,4.252h-.19a12.982,12.982,0,0,0-1.227,5.669C361.013,841.314,368.986,841.479,368.986,841.479Z" fill="#333"/>
              </g>
            </g>
          </g>
        </g>
      </g>
      <g id="Group_2822" data-name="Group 2822">
        <g id="Group_2821" data-name="Group 2821">
          <g id="Group_2820" data-name="Group 2820">
            <g id="Group_2819" data-name="Group 2819">
              <g id="Group_2818" data-name="Group 2818">
                <circle id="Ellipse_136" data-name="Ellipse 136" cx="1.417" cy="1.417" r="1.417" transform="translate(366.151 837.227)" fill="#e5e5e5"/>
              </g>
            </g>
          </g>
        </g>
      </g>
      <g id="Group_2827" data-name="Group 2827">
        <g id="Group_2826" data-name="Group 2826">
          <g id="Group_2825" data-name="Group 2825">
            <g id="Group_2824" data-name="Group 2824">
              <g id="Group_2823" data-name="Group 2823">
                <path id="Path_1266" data-name="Path 1266" d="M368.986,841.479s-7.973-.165-14.173,4.252c0,0,1.141,4.005,4.252,5.669a20.658,20.658,0,0,0,11.338-2.834s2.4-7.087,7.087-7.087Z" fill="#e5e5e5"/>
              </g>
            </g>
          </g>
        </g>
      </g>
      <g id="Group_2832" data-name="Group 2832">
        <g id="Group_2831" data-name="Group 2831">
          <g id="Group_2830" data-name="Group 2830">
            <g id="Group_2829" data-name="Group 2829">
              <g id="Group_2828" data-name="Group 2828">
                <path id="Path_1267" data-name="Path 1267" d="M383.159,885.416l-2.834-4.9v13.4a35.442,35.442,0,0,1-8.5-8.508l-.005,0v21.26l4.253-1.417,2.834,1.417,2.835-1.417,2.834,1.417,2.835-1.417,4.252,1.417Z" fill="#985c4c"/>
              </g>
            </g>
          </g>
        </g>
      </g>
      <g id="Group_2837" data-name="Group 2837">
        <g id="Group_2836" data-name="Group 2836">
          <g id="Group_2835" data-name="Group 2835">
            <g id="Group_2834" data-name="Group 2834">
              <g id="Group_2833" data-name="Group 2833">
                <path id="Path_1268" data-name="Path 1268" d="M354.813,845.731s-7.087,2.323-7.087,11.339c0,7.39,5.71,12.184,7.771,13.675a23.417,23.417,0,0,1-4.936-13.675C350.561,847.648,354.813,845.731,354.813,845.731Z" fill="#985c4c"/>
              </g>
            </g>
          </g>
        </g>
      </g>
      <g id="Group_2842" data-name="Group 2842">
        <g id="Group_2841" data-name="Group 2841">
          <g id="Group_2840" data-name="Group 2840">
            <g id="Group_2839" data-name="Group 2839">
              <g id="Group_2838" data-name="Group 2838">
                <path id="Path_1269" data-name="Path 1269" d="M376.4,873.747l3.922,6.773,2.834,4.9V878.33a55.5,55.5,0,0,0-1.056-10.283Z" fill="#985c4c"/>
              </g>
            </g>
          </g>
        </g>
      </g>
      <g id="Group_2847" data-name="Group 2847">
        <g id="Group_2846" data-name="Group 2846">
          <g id="Group_2845" data-name="Group 2845">
            <g id="Group_2844" data-name="Group 2844">
              <g id="Group_2843" data-name="Group 2843">
                <path id="Path_1270" data-name="Path 1270" d="M378.907,858.487c-1.628-2.882-4.524-7.087-7.087-7.087-.176,0-.344.01-.507.026-4.616.45-3.744,7.061-3.744,7.061l7.275,12.567,6.448-6.448A27.529,27.529,0,0,0,378.907,858.487Z" fill="#985c4c"/>
              </g>
            </g>
          </g>
        </g>
      </g>
      <g id="Group_2852" data-name="Group 2852">
        <g id="Group_2851" data-name="Group 2851">
          <g id="Group_2850" data-name="Group 2850">
            <g id="Group_2849" data-name="Group 2849">
              <g id="Group_2848" data-name="Group 2848">
                <path id="Path_1271" data-name="Path 1271" d="M376.4,873.747l-3.765,3.765a9.9,9.9,0,0,0,7.687,3.652v-.644l-.926-1.6Z" fill="#e5e5e5"/>
              </g>
            </g>
          </g>
        </g>
      </g>
      <g id="Group_2857" data-name="Group 2857">
        <g id="Group_2856" data-name="Group 2856">
          <g id="Group_2855" data-name="Group 2855">
            <g id="Group_2854" data-name="Group 2854">
              <g id="Group_2853" data-name="Group 2853">
                <path id="Path_1272" data-name="Path 1272" d="M372.638,877.512l-3.279,3.279a22.822,22.822,0,0,0,2.466,4.621,35.442,35.442,0,0,0,8.5,8.508V881.164A9.9,9.9,0,0,1,372.638,877.512Z" fill="#d9ef68"/>
              </g>
            </g>
          </g>
        </g>
      </g>
      <g id="Group_2862" data-name="Group 2862">
        <g id="Group_2861" data-name="Group 2861">
          <g id="Group_2860" data-name="Group 2860">
            <g id="Group_2859" data-name="Group 2859">
              <g id="Group_2858" data-name="Group 2858">
                <path id="Path_1273" data-name="Path 1273" d="M371.077,874.822l3.767-3.768-4.441-7.671v7.86A9.871,9.871,0,0,0,371.077,874.822Z" fill="#e5e5e5"/>
              </g>
            </g>
          </g>
        </g>
      </g>
      <g id="Group_2867" data-name="Group 2867">
        <g id="Group_2866" data-name="Group 2866">
          <g id="Group_2865" data-name="Group 2865">
            <g id="Group_2864" data-name="Group 2864">
              <g id="Group_2863" data-name="Group 2863">
                <path id="Path_1274" data-name="Path 1274" d="M370.4,871.243v-7.86l-2.834-4.9s-.872-6.611,3.744-7.061l-.91-2.86a20.658,20.658,0,0,1-11.338,2.834c-3.111-1.664-4.252-5.669-4.252-5.669s-4.252,1.917-4.252,11.339a23.417,23.417,0,0,0,4.936,13.675,40.343,40.343,0,0,0,9.237,9h1.417l4.926-4.925A9.871,9.871,0,0,1,370.4,871.243Z" fill="#d9ef68"/>
              </g>
            </g>
          </g>
        </g>
      </g>
      <g id="Group_2872" data-name="Group 2872">
        <g id="Group_2871" data-name="Group 2871">
          <g id="Group_2870" data-name="Group 2870">
            <g id="Group_2869" data-name="Group 2869">
              <g id="Group_2868" data-name="Group 2868">
                <path id="Path_1275" data-name="Path 1275" d="M337.8,908.093,394.5,851.4v4.252l-52.441,52.441Z" fill="#fda654"/>
              </g>
            </g>
          </g>
        </g>
      </g>
    </g>
    <g id="Group_2874" data-name="Group 2874">
      <path id="Path_1276" data-name="Path 1276" d="M367.569,840.062a1.418,1.418,0,1,0-1.418-1.417A1.418,1.418,0,0,0,367.569,840.062Z" fill="#1a1a1a"/>
      <path id="Path_1277" data-name="Path 1277" d="M393.967,855.122l-12.394,12.394h0l-5.7,5.7-1.4,1.4-5.563,5.564a.985.985,0,0,0-.909.908l-1.9,1.9a1.107,1.107,0,0,1-1.03-.893.987.987,0,0,0,.648-.856l.508-.509a.984.984,0,0,0,.909-.908l10.245-10.246,4.441-4.441h0l13.205-13.2a.75.75,0,0,0-1.061-1.061l-12.318,12.318a26.134,26.134,0,0,0-2.089-5.07h0c-1.57-2.779-4.654-7.43-7.7-7.464l-.659-2.07c.428-1.12,2.623-6.355,6.294-6.355h5.5a1.455,1.455,0,0,0,1.429-1.146,1.434,1.434,0,0,0-.8-1.639,70.2,70.2,0,0,0-7.082-2.85,11.547,11.547,0,0,0-8.967-4.369h-9.921a.75.75,0,0,0-.75.75v4.347a12.5,12.5,0,0,0-1.534,2.416,13.636,13.636,0,0,0-1.274,5.477,11.574,11.574,0,0,0-3.34,2.264,12.833,12.833,0,0,0-3.773,9.591c0,7.525,5.511,12.4,7.987,14.212a41.41,41.41,0,0,0,8.746,8.664,1149.136,1149.136,0,0,1-2.094,3.277l-1.2,1.2a7.543,7.543,0,0,0-4.47,4.469l-18.671,18.671a.75.75,0,0,0,1.061,1.061L356.4,890.563a3.131,3.131,0,0,0,1.065,1.066l-15.935,15.934a.75.75,0,0,0,1.061,1.061l16.554-16.554a.985.985,0,0,0,.908-.909l.509-.508a.986.986,0,0,0,.909-.909l3.343-3.343a.986.986,0,0,0,.909-.909l.508-.509a.984.984,0,0,0,.909-.908l1.91-1.911h.08a24.289,24.289,0,0,0,1.944,3.461v21.051a.75.75,0,0,0,.987.711l3.958-1.318,2.557,1.278a.752.752,0,0,0,.67,0l2.5-1.25,2.5,1.25a.754.754,0,0,0,.671,0l2.557-1.278,3.957,1.318a.719.719,0,0,0,.237.039.75.75,0,0,0,.7-1.029l-8.45-21.125V878.33a56.4,56.4,0,0,0-1-10.032l12.116-12.115a.75.75,0,0,0-1.061-1.061Zm-14.826,25.209c-.247-.032-.491-.072-.733-.123-.1-.022-.2-.049-.3-.074q-.306-.076-.6-.172c-.1-.033-.2-.067-.306-.1q-.313-.116-.618-.254c-.079-.035-.159-.066-.237-.1-.275-.133-.544-.278-.805-.438-.05-.031-.1-.067-.146-.1-.21-.135-.416-.277-.615-.43-.083-.063-.163-.131-.244-.2-.163-.134-.323-.273-.477-.419-.08-.074-.159-.15-.235-.227-.049-.05-.094-.105-.142-.155l2.569-2.569,3.123,5.393-.036,0C379.266,880.352,379.2,880.339,379.141,880.331Zm-6.537-1.724c.049.051.1.1.153.147.1.1.2.189.3.281.172.162.35.318.532.467.035.029.067.062.1.09a1.015,1.015,0,0,0-.031.155v.417h-2.609Zm-12.172,10.051a1.107,1.107,0,0,1-1.031-.892.986.986,0,0,0,.648-.856l.509-.509a.986.986,0,0,0,.909-.909l.6-.6a3.136,3.136,0,0,0,1.065,1.065Zm-2.118,1.127a.882.882,0,0,1-.075-.075Q358.275,889.749,358.314,889.785Zm12.839-23.609,2.753,4.755-2.48,2.481c-.014-.057-.028-.115-.041-.172q-.08-.352-.13-.709c-.014-.1-.031-.2-.042-.295a9.124,9.124,0,0,1-.06-.993Zm-7.169,17.941c-.027-.025-.052-.049-.077-.077Zm14.27-25.261h0a25.893,25.893,0,0,1,2.2,5.53l-1.979,1.979L375,869.833l-3.952-6.825-.4-.7-2.351-4.061a11.551,11.551,0,0,1-.036-1.306c0-.078,0-.155.008-.236,0-.1.015-.2.023-.309.012-.149.025-.3.045-.452.007-.055.017-.111.025-.166.028-.19.06-.381.1-.571.008-.04.021-.08.031-.12a5.973,5.973,0,0,1,.163-.579c.023-.069.055-.134.082-.2a4.848,4.848,0,0,1,.193-.455,3.671,3.671,0,0,1,.382-.6c.055-.069.119-.121.177-.183a3.032,3.032,0,0,1,.237-.243,2.269,2.269,0,0,1,.2-.13,2.5,2.5,0,0,1,.286-.191c.071-.037.153-.059.228-.09a2.975,2.975,0,0,1,.323-.127,3.644,3.644,0,0,1,.625-.115c.139-.013.283-.022.434-.022C373.452,852.15,375.917,854.72,378.254,858.856ZM369.8,848.038c-.133.072-.265.141-.4.21-.152.079-.3.159-.454.233-.17.083-.338.16-.506.237-.148.068-.3.139-.443.2-.167.073-.331.138-.5.205-.144.058-.289.119-.431.173-.162.062-.321.117-.48.174-.139.049-.28.1-.417.146-.158.053-.312.1-.467.147-.132.041-.267.084-.4.122-.151.043-.3.08-.444.119-.128.034-.259.07-.384.1-.142.035-.279.064-.418.1-.122.028-.247.057-.366.082-.135.027-.264.05-.395.074-.115.021-.232.045-.342.063-.13.022-.252.039-.376.058-.1.015-.21.032-.309.045-.12.016-.232.028-.347.041-.1.011-.194.024-.285.033-.111.011-.213.019-.317.027-.084.007-.172.016-.252.021-.111.008-.212.012-.315.017-.062,0-.129.008-.188.01-.106,0-.2.006-.3.008l-.141,0c-.1,0-.18,0-.264,0h-.1l-.192-.005-.094,0c-.081,0-.148-.007-.2-.01a5.793,5.793,0,0,1-.658-.446c-.049-.037-.1-.074-.145-.113a7.006,7.006,0,0,1-.564-.508c-.021-.021-.04-.044-.061-.066-.16-.166-.31-.338-.452-.512-.035-.043-.071-.086-.1-.129-.149-.189-.288-.381-.416-.572-.024-.036-.046-.071-.069-.107-.111-.171-.214-.34-.31-.505-.021-.037-.044-.075-.064-.112q-.156-.277-.283-.536l-.053-.11c-.072-.151-.139-.295-.2-.429l-.029-.066c-.063-.147-.116-.28-.161-.4l-.008-.02c.126-.084.251-.168.379-.248.156-.1.313-.2.472-.292.214-.127.431-.245.648-.362.157-.085.313-.171.47-.251.224-.112.449-.217.673-.32.153-.07.3-.144.458-.21.239-.1.477-.2.715-.291.138-.054.276-.113.413-.164.277-.1.552-.2.826-.286.1-.032.2-.069.292-.1q.546-.174,1.077-.316c.145-.04.285-.072.429-.108.208-.052.418-.107.621-.153.168-.039.329-.071.494-.105s.341-.073.506-.1.336-.06.5-.089c.145-.025.291-.051.431-.073.17-.027.332-.05.493-.073.123-.017.248-.035.366-.05.162-.02.317-.039.468-.055l.3-.033c.15-.015.3-.028.432-.04.082-.007.162-.014.239-.019.136-.011.269-.02.389-.028l.164-.009.345-.016.076,0c.241-.008.42-.01.509-.01h4.747A14.968,14.968,0,0,0,369.8,848.038Zm-14.161-3.743a11.943,11.943,0,0,1,.919-3.557c.006,0,.009-.01.015-.013a.745.745,0,0,0,.292-.26,9.643,9.643,0,0,1,7.872-3.905c.442,0,.858.023,1.261.055.105.008.207.018.309.028.359.036.706.08,1.034.137l.093.014c.355.064.687.141,1.006.224l.24.066c.269.076.528.156.77.241.037.014.078.026.115.039.272.1.523.2.759.307l.171.079c.193.09.375.18.543.27.033.018.07.036.1.054.191.1.363.207.518.305l.106.069c.125.081.239.159.339.231l.043.031-2.6,1.561-.763.457-.126,0-.3.006c-.089,0-.176.005-.282.01l-.265.013-.291.017c-.1.006-.209.015-.318.023l-.351.029c-.116.01-.236.022-.36.035s-.272.028-.414.045l-.387.047c-.16.021-.326.045-.495.069-.13.019-.256.037-.39.058-.209.034-.426.073-.645.112-.105.02-.205.035-.312.056q-.487.094-1,.212c-.1.022-.2.05-.3.074-.253.061-.507.123-.767.194-.134.036-.269.077-.4.115-.233.067-.467.137-.7.212-.147.046-.3.1-.443.146-.234.078-.467.161-.7.248-.151.055-.3.111-.452.171-.244.095-.488.2-.733.3-.142.061-.284.119-.426.184-.282.128-.564.266-.846.408-.1.052-.208.1-.311.154C356.374,843.866,356,844.073,355.636,844.295Zm21.854-3.566h-5.8l2.107-1.264,2.36-1.416a68.811,68.811,0,0,1,6.663,2.68Zm-2.554-3.7-.432.26-.983.59-.025-.02c-.1-.084-.216-.181-.365-.3l-.058-.043c-.147-.11-.317-.229-.51-.355l-.07-.047c-.2-.13-.439-.267-.692-.405l-.154-.082c-.264-.139-.551-.277-.866-.412l-.155-.063c-.321-.133-.664-.261-1.036-.38l-.073-.025c-.381-.12-.8-.225-1.231-.32-.084-.019-.166-.038-.253-.055q-.654-.132-1.386-.214c-.088-.01-.179-.016-.269-.025-.522-.049-1.064-.083-1.644-.083-.344,0-.677.015-1,.042-.112.009-.216.025-.325.037-.209.023-.417.046-.617.078-.123.02-.239.047-.358.07-.177.035-.354.069-.524.111-.121.03-.236.064-.354.1-.159.045-.316.09-.469.14l-.051.016c.147-.092.292-.191.441-.275.076-.043.151-.09.227-.13.36-.193.724-.365,1.088-.518.085-.036.169-.066.254-.1q.448-.177.9-.317c.091-.029.182-.059.273-.086.361-.1.718-.194,1.069-.264.057-.011.112-.018.168-.029.3-.056.6-.1.889-.131.09-.01.18-.02.268-.028.331-.029.655-.049.96-.049A10.139,10.139,0,0,1,374.936,837.034ZM358.4,833.725h2.985c-.116.058-.221.134-.335.2-.326.175-.643.358-.953.556-.175.111-.345.225-.513.344-.3.212-.589.436-.871.671-.1.084-.214.154-.313.24Zm-9.921,23.345a11.581,11.581,0,0,1,2.669-7.852c-.1.231-.189.473-.279.728-.009.025-.017.054-.026.08-.1.286-.192.592-.281.91-.028.1-.055.2-.081.307q-.111.431-.207.9c-.018.088-.038.17-.055.26q-.113.594-.2,1.251c-.013.1-.023.212-.035.317q-.062.536-.1,1.113c-.01.139-.019.276-.027.418-.027.5-.045,1.019-.045,1.569,0,.527.029,1.053.071,1.58.01.129.021.257.034.386.052.524.118,1.048.212,1.571.006.031.013.062.019.092.092.5.207,1,.336,1.495.033.128.066.255.1.383.145.52.3,1.04.49,1.558.02.054.042.108.062.161.175.478.371.955.58,1.431.054.124.108.248.165.371.047.1.088.2.136.3A14.885,14.885,0,0,1,348.476,857.07ZM356.1,870.3c-3.18-4.364-4.792-8.816-4.792-13.233,0-.489.015-.95.038-1.4.006-.13.015-.256.023-.382q.033-.493.081-.953c.012-.11.022-.222.035-.328.048-.391.1-.767.165-1.121.008-.045.018-.085.026-.129.059-.31.123-.6.191-.888.023-.095.047-.187.071-.279.063-.241.13-.472.2-.692.021-.067.041-.137.063-.2.092-.276.187-.537.287-.781.016-.041.034-.078.051-.119q.128-.3.261-.575c.028-.057.056-.114.085-.169q.135-.264.272-.5c.016-.026.031-.054.046-.08q.165-.273.329-.5c.016-.023.031-.042.047-.064.094-.131.187-.251.278-.362l.058-.071a5.95,5.95,0,0,1,.53-.555c.006.015.015.034.021.05.067.159.139.326.225.509l.008.017c.082.174.175.358.275.547.028.054.057.108.088.163q.138.254.3.518c.024.039.044.075.068.114.13.207.272.417.423.627.037.052.077.1.117.155.126.17.26.337.4.5.045.053.088.106.135.158.181.205.373.405.579.6.037.035.077.067.115.1.176.159.362.312.556.458.064.048.128.1.194.143a7.278,7.278,0,0,0,.758.476.751.751,0,0,0,.271.085l.1.009.069,0,.137.01.106.005c.064,0,.126.006.2.008.044,0,.1,0,.147,0,.083,0,.165,0,.261,0h.037l.062,0c.192,0,.408-.006.643-.016l.154-.006c.268-.014.56-.035.875-.066l.2-.021c.3-.032.617-.073.953-.124.048-.007.091-.012.139-.02.366-.059.755-.134,1.158-.221l.279-.063c.422-.1.855-.2,1.309-.338l.035-.011c.438-.129.893-.283,1.356-.451.108-.039.213-.077.322-.118.476-.181.96-.379,1.456-.606.074-.033.148-.072.222-.106.254-.119.508-.237.766-.369l.38,1.194-.014.005c-.022.006-.042.017-.064.023a4.31,4.31,0,0,0-.683.275c-.073.036-.142.078-.212.118a4.066,4.066,0,0,0-.48.323c-.063.049-.127.095-.186.147a4.379,4.379,0,0,0-.564.581c-1.815,2.285-1.335,6.105-1.314,6.266a.763.763,0,0,0,.094.278l2.734,4.722v7.658c0,.31.016.619.043.926.009.1.025.2.037.3.024.207.05.414.087.619.02.117.047.232.071.348.04.188.083.375.133.561.032.12.068.239.105.359.028.091.05.183.08.273l-4.125,4.126a3.083,3.083,0,0,0-1.131.234A40.234,40.234,0,0,1,356.1,870.3Zm18.552,11.861a1,1,0,0,0,1-1v-.329c.037.019.073.04.11.058a10.4,10.4,0,0,0,1,.41c.1.036.207.064.311.1.243.077.488.15.737.21.13.031.261.057.393.083.231.047.463.086.7.117.137.019.274.035.412.048.086.008.17.024.256.03v10.548a34.784,34.784,0,0,1-7.131-7.447,23.547,23.547,0,0,1-1.657-2.825Zm12.993,22.383a.751.751,0,0,0-.573.041l-2.5,1.249-2.5-1.249a.752.752,0,0,0-.671,0l-2.5,1.249-2.5-1.249a.75.75,0,0,0-.573-.041l-3.265,1.088V887.673l.02.024c.059.074.12.143.179.216.168.206.337.41.506.607.087.1.174.2.261.3.144.164.287.326.431.483.093.1.185.2.278.3.138.146.274.291.41.432l.28.287c.135.137.268.27.4.4.09.088.179.176.268.261.137.132.271.258.4.383.081.076.163.154.243.227.146.135.288.262.429.388.061.055.125.113.186.166.2.174.389.34.574.5l.124.1c.143.12.284.237.417.346l.183.147.3.242.184.144.244.188.168.126.2.147.135.1.162.117.1.068.12.084.052.036.082.055a.746.746,0,0,0,.357.118c.012,0,.022,0,.034,0a.192.192,0,0,0,.025,0,.751.751,0,0,0,.75-.75V883.313l1.408,2.432,7.883,19.708Zm-5.239-26.217v4.294l-1.435-2.48-3.633-6.274,4.282-4.282A54.215,54.215,0,0,1,382.409,878.33Z" fill="#1a1a1a"/>
    </g>
  </g>
</svg>