<?xml version="1.0" ?>


<svg fill="#000000" width="800px" height="800px" viewBox="0 0 64 64" version="1.1" xml:space="preserve" xmlns="http://www.w3.org/2000/svg" xmlns:xlink="http://www.w3.org/1999/xlink">

<g id="Layer_2"/>

<g id="Layer_3"/>

<g id="Layer_4">

<g>

<path d="M63.9,40.7c-0.6-1.1-16-27.4-29.3-27.4c0,0,0,0,0,0c0,0,0,0,0,0C21.2,13.2,1,45,0.2,46.3C0,46.6-0.1,47,0.1,47.4    C0.3,47.7,0.6,48,1,48l9.4,0.7c0,0,0,0,0,0l6.1,0.4l22.7,1.6c0,0,0.1,0,0.1,0c0,0,0,0,0,0c0,0,0,0,0,0c0,0,0,0,0,0c0,0,0,0,0,0    c0,0,0,0,0,0c0,0,0.1,0,0.1,0c0.1,0,0.2,0,0.2,0l23.4-8.4c0.3-0.1,0.6-0.4,0.7-0.7C64,41.3,64,41,63.9,40.7z M59.1,37.2l-18.8,6.4    c-1-15.8-3.2-24.6-4.2-28C44.6,17.1,54.4,30.1,59.1,37.2z M33.7,15.5c0.9,2.7,3.7,13,4.6,33l-10-0.7c0.4-2.9,0.9-9.9-1.8-13    c-0.9-1.1-2.1-1.6-3.5-1.6c-6.3,0-11.7,10.3-13.2,13.3l-6.8-0.5C7.2,39.7,23.2,16.6,33.7,15.5z M12.3,46.6    c2.1-4.1,6.7-11.3,10.8-11.3c0.7,0,1.3,0.3,1.8,0.8c1.9,2.3,1.6,8.3,1.2,11.4l-10.8-0.8L12.3,46.6z M40.5,48.1    c0-0.7-0.1-1.5-0.1-2.2l19.9-6.8c0.4,0.6,0.7,1.1,0.9,1.5L40.5,48.1z"/>

</g>

</g>

<g id="Layer_5"/>

<g id="Layer_6"/>

<g id="Layer_7"/>

<g id="Layer_8"/>

<g id="Layer_9"/>

<g id="Layer_10"/>

<g id="Layer_11"/>

<g id="Layer_12"/>

<g id="Layer_13"/>

<g id="Layer_15"/>

<g id="Layer_16"/>

<g id="Layer_17"/>

<g id="Layer_18"/>

<g id="Layer_19"/>

<g id="Layer_20"/>

<g id="Layer_21"/>

<g id="Layer_22"/>

<g id="Layer_23"/>

<g id="Layer_24"/>

<g id="Layer_25"/>

<g id="Layer_26"/>

<g id="Layer_27"/>

</svg>