<?xml version="1.0" ?>


<svg fill="#000000" width="800px" height="800px" viewBox="0 0 64 64" version="1.1" xml:space="preserve" xmlns="http://www.w3.org/2000/svg" xmlns:xlink="http://www.w3.org/1999/xlink">

<g id="Layer_2"/>

<g id="Layer_3"/>

<g id="Layer_4"/>

<g id="Layer_5"/>

<g id="Layer_6"/>

<g id="Layer_7"/>

<g id="Layer_8"/>

<g id="Layer_9"/>

<g id="Layer_10"/>

<g id="Layer_11"/>

<g id="Layer_12"/>

<g id="Layer_13"/>

<g id="Layer_15"/>

<g id="Layer_16"/>

<g id="Layer_17"/>

<g id="Layer_18"/>

<g id="Layer_19"/>

<g id="Layer_20"/>

<g id="Layer_21"/>

<g id="Layer_22">

<g>

<path d="M61.4,41c-0.1-1.5-0.7-2.9-1.5-4.1c-1.8-2.6-4.8-7.6-4.8-12.6c0-4.2,1.5-8,2.7-11c0.9-2.2,1.6-4.1,1.6-5.7    c0-4.3-1.2-7.6-15.7-7.6H20.4C5.8,0,4.6,3.3,4.6,7.6c0,1.6,0.7,3.5,1.6,5.7c1.2,3,2.7,6.8,2.7,11c0,5-3,10.1-4.8,12.6    c-0.9,1.2-1.4,2.6-1.5,4.1L1.2,56.5c0,0.4,0.2,0.9,0.6,1.1c12.9,7.2,29.3,6.5,30,6.5c0.1,0,0.1,0,0.2,0c0.1,0,0.1,0,0.2,0    c0.1,0,0.7,0,1.7,0c4.6,0,17.7-0.6,28.3-6.5c0.4-0.2,0.6-0.6,0.6-1.1L61.4,41z M32,21.1L23.9,9.5c-0.2-0.3-0.3-0.8-0.1-1.1    c0.2-0.4,0.6-0.6,1-0.6h14.5c0.4,0,0.8,0.2,1,0.6c0.2,0.4,0.2,0.8-0.1,1.1L32,21.1z M32.9,61.8l0.2-38.5l8.8-12.6    c0.7-1,0.8-2.3,0.2-3.4c-0.6-1.1-1.7-1.8-2.9-1.8H24.8c-1.2,0-2.4,0.7-2.9,1.8c-0.6,1.1-0.5,2.4,0.2,3.4l8.8,12.6l-0.2,38.5    c-3.7,0-16.7-0.3-27.2-5.9l1.3-14.7c0.1-1.1,0.5-2.2,1.1-3.1c2-2.8,5.2-8.3,5.2-13.9c0-4.6-1.6-8.6-2.8-11.8    c-0.8-2-1.5-3.7-1.5-4.8c0-2.8,0-5.4,13.5-5.4h23.3c13.5,0,13.5,2.6,13.5,5.4c0,1.2-0.7,2.9-1.5,4.8c-1.3,3.2-2.8,7.2-2.8,11.8    c0,5.6,3.3,11.1,5.2,13.9c0.6,0.9,1,2,1.1,3.1l1.3,14.7C49.5,61.7,35.8,61.8,32.9,61.8z"/>

<path d="M48,26.7c0.5-0.3,0.8-0.9,0.5-1.5c-0.3-0.5-0.9-0.8-1.5-0.5c-4.4,2.2-8.9,1.3-9,1.3c-0.6-0.1-1.2,0.2-1.3,0.8    c-0.1,0.6,0.2,1.2,0.8,1.3c0.1,0,1.2,0.3,2.9,0.3C42.5,28.4,45.2,28.1,48,26.7z"/>

<path d="M51.3,43.4c-5.5,2.6-9.7,1.7-9.8,1.7c-0.6-0.1-1.2,0.2-1.3,0.8c-0.1,0.6,0.2,1.2,0.8,1.3c0.1,0,1,0.2,2.6,0.2    c2,0,5.1-0.4,8.7-2c0.6-0.3,0.8-0.9,0.5-1.5C52.5,43.4,51.9,43.2,51.3,43.4z"/>

<path d="M15.4,25.2c-0.3,0.5-0.1,1.2,0.5,1.5c2.8,1.4,5.5,1.7,7.5,1.7c1.7,0,2.8-0.2,2.9-0.3c0.6-0.1,1-0.7,0.8-1.3    c-0.1-0.6-0.7-1-1.3-0.8c0,0-4.5,1-9-1.3C16.3,24.4,15.7,24.6,15.4,25.2z"/>

<path d="M22.3,45.1c0,0-4.2,1-9.8-1.7c-0.6-0.3-1.2,0-1.5,0.5c-0.3,0.6,0,1.2,0.5,1.5c3.6,1.7,6.6,2,8.7,2c1.5,0,2.5-0.2,2.6-0.2    c0.6-0.1,1-0.7,0.8-1.3C23.5,45.3,22.9,44.9,22.3,45.1z"/>

</g>

</g>

<g id="Layer_23"/>

<g id="Layer_24"/>

<g id="Layer_25"/>

<g id="Layer_26"/>

<g id="Layer_27"/>

</svg>