<?xml version="1.0" ?>


<svg fill="#000000" width="800px" height="800px" viewBox="0 0 64 64" version="1.1" xml:space="preserve" xmlns="http://www.w3.org/2000/svg" xmlns:xlink="http://www.w3.org/1999/xlink">

<g id="Layer_2"/>

<g id="Layer_3"/>

<g id="Layer_4"/>

<g id="Layer_5"/>

<g id="Layer_6"/>

<g id="Layer_7"/>

<g id="Layer_8"/>

<g id="Layer_9"/>

<g id="Layer_10"/>

<g id="Layer_11"/>

<g id="Layer_12"/>

<g id="Layer_13"/>

<g id="Layer_15"/>

<g id="Layer_16"/>

<g id="Layer_17"/>

<g id="Layer_18"/>

<g id="Layer_19"/>

<g id="Layer_20"/>

<g id="Layer_21"/>

<g id="Layer_22"/>

<g id="Layer_23">

<g>

<path d="M54.1,23.6H37.7v-2.4h10.2c0.3,0,0.5-0.1,0.7-0.3l6.2-5.7c0.2-0.2,0.4-0.5,0.4-0.8c0-0.3-0.1-0.6-0.4-0.8l-6.2-5.7    c-0.2-0.2-0.5-0.3-0.7-0.3H37.7V1.1c0-0.6-0.5-1.1-1.1-1.1h-8.8c-0.6,0-1.1,0.5-1.1,1.1v6.4H18c-0.6,0-1.1,0.5-1.1,1.1V20    c0,0.6,0.5,1.1,1.1,1.1h8.7v2.4H16.1c-0.3,0-0.5,0.1-0.7,0.3l-6.2,5.7c-0.2,0.2-0.4,0.5-0.4,0.8c0,0.3,0.1,0.6,0.4,0.8l6.2,5.7    c0.2,0.2,0.5,0.3,0.7,0.3h10.5v25.7c0,0.6,0.5,1.1,1.1,1.1h8.8c0.6,0,1.1-0.5,1.1-1.1V37.2h16.4c0.6,0,1.1-0.5,1.1-1.1V24.7    C55.2,24.1,54.7,23.6,54.1,23.6z M28.9,2.2h6.6v5.3h-6.6V2.2z M19.1,9.7h8.7h8.8h10.8l5,4.6l-5,4.6H36.6h-8.8h-8.7V9.7z     M28.9,21.2h6.6v2.4h-6.6V21.2z M35.5,61.8h-6.6V37.2h6.6V61.8z M53,35H36.6h-8.8H16.6l-5-4.6l5-4.6h11.2h8.8H53V35z"/>

<path d="M30.9,30.4c0,0.6,0.5,1.1,1.1,1.1h17.7c0.6,0,1.1-0.5,1.1-1.1c0-0.6-0.5-1.1-1.1-1.1H32C31.4,29.3,30.9,29.8,30.9,30.4z"/>

<path d="M25.5,29.3h-2.2c-0.6,0-1.1,0.5-1.1,1.1c0,0.6,0.5,1.1,1.1,1.1h2.2c0.6,0,1.1-0.5,1.1-1.1C26.6,29.8,26.1,29.3,25.5,29.3z    "/>

<path d="M33.1,14.3c0-0.6-0.5-1.1-1.1-1.1H21.1c-0.6,0-1.1,0.5-1.1,1.1s0.5,1.1,1.1,1.1H32C32.6,15.4,33.1,14.9,33.1,14.3z"/>

<path d="M42.2,15.4h2.2c0.6,0,1.1-0.5,1.1-1.1s-0.5-1.1-1.1-1.1h-2.2c-0.6,0-1.1,0.5-1.1,1.1S41.6,15.4,42.2,15.4z"/>

</g>

</g>

<g id="Layer_24"/>

<g id="Layer_25"/>

<g id="Layer_26"/>

<g id="Layer_27"/>

</svg>