<?xml version="1.0" ?>


<svg fill="#000000" width="800px" height="800px" viewBox="0 0 64 64" version="1.1" xml:space="preserve" xmlns="http://www.w3.org/2000/svg" xmlns:xlink="http://www.w3.org/1999/xlink">

<g id="Layer_2"/>

<g id="Layer_3"/>

<g id="Layer_4"/>

<g id="Layer_5"/>

<g id="Layer_6"/>

<g id="Layer_7"/>

<g id="Layer_8"/>

<g id="Layer_9">

<g>

<path d="M59.2,30.9h-1.1c1-1.6,1.6-3.9,1.6-6.6c0-5-2.1-8.8-4.8-8.8H10.7c-2.8,0-4.8,3.8-4.8,8.8c0,2.7,0.6,5,1.6,6.6H4.8    c-2.8,0-4.8,3.8-4.8,8.8s2.1,8.8,4.8,8.8H16h43.1c2.8,0,4.8-3.8,4.8-8.8S61.9,30.9,59.2,30.9z M54.8,17.7c1.1,0,2.6,2.6,2.6,6.6    c0,4-1.5,6.6-2.6,6.6H16h-2.1c0,0,0.1-0.1,0.1-0.2c0.1-0.1,0.1-0.2,0.2-0.3c0.1-0.1,0.1-0.2,0.2-0.3c0.1-0.1,0.1-0.2,0.2-0.4    c0-0.1,0.1-0.2,0.1-0.3c0-0.1,0.1-0.3,0.1-0.4c0-0.1,0.1-0.2,0.1-0.4c0-0.1,0.1-0.3,0.1-0.4c0-0.1,0.1-0.2,0.1-0.4    c0-0.2,0.1-0.3,0.1-0.5c0-0.1,0.1-0.2,0.1-0.4c0-0.2,0.1-0.3,0.1-0.5c0-0.1,0-0.2,0-0.4c0-0.2,0-0.4,0.1-0.6c0-0.1,0-0.2,0-0.3    c0-0.3,0-0.6,0-1c0-0.3,0-0.6,0-1c0-0.1,0-0.2,0-0.3c0-0.2,0-0.4-0.1-0.6c0-0.1,0-0.2,0-0.4c0-0.2,0-0.3-0.1-0.5    c0-0.1,0-0.2-0.1-0.4c0-0.2-0.1-0.3-0.1-0.5c0-0.1-0.1-0.2-0.1-0.4c0-0.1-0.1-0.3-0.1-0.4c0-0.1-0.1-0.2-0.1-0.4    c0-0.1-0.1-0.3-0.1-0.4c0-0.1-0.1-0.2-0.1-0.3c-0.1-0.1-0.1-0.2-0.2-0.4c0-0.1-0.1-0.2-0.2-0.3c-0.1-0.1-0.1-0.2-0.2-0.3    c0-0.1-0.1-0.1-0.1-0.2H54.8z M18.6,39.7c0,4-1.6,6.6-2.6,6.6s-2.6-2.6-2.6-6.6c0-4,1.5-6.6,2.6-6.6h0    C17.1,33.1,18.6,35.7,18.6,39.7z M8,24.3c0-4,1.6-6.6,2.6-6.6s2.6,2.6,2.6,6.6c0,4-1.5,6.6-2.6,6.6h0C9.6,30.9,8,28.3,8,24.3z     M2.2,39.7c0-4,1.6-6.6,2.6-6.6s2.6,2.6,2.6,6.6s-1.6,6.6-2.6,6.6S2.2,43.8,2.2,39.7z M8.2,46.2c0.1-0.1,0.1-0.2,0.2-0.3    c0.1-0.1,0.1-0.2,0.2-0.3c0.1-0.1,0.1-0.2,0.2-0.4c0-0.1,0.1-0.2,0.1-0.3c0-0.1,0.1-0.3,0.1-0.4c0-0.1,0.1-0.2,0.1-0.4    c0-0.1,0.1-0.3,0.1-0.4c0-0.1,0.1-0.2,0.1-0.4c0-0.2,0.1-0.3,0.1-0.5c0-0.1,0.1-0.2,0.1-0.4c0-0.2,0.1-0.3,0.1-0.5    c0-0.1,0-0.2,0-0.4c0-0.2,0-0.4,0.1-0.6c0-0.1,0-0.2,0-0.3c0-0.3,0-0.6,0-1s0-0.6,0-1c0-0.1,0-0.2,0-0.3c0-0.2,0-0.4-0.1-0.6    c0-0.1,0-0.2,0-0.4c0-0.2,0-0.3-0.1-0.5c0-0.1,0-0.2-0.1-0.4c0-0.2-0.1-0.3-0.1-0.5c0-0.1-0.1-0.2-0.1-0.4c0-0.1-0.1-0.3-0.1-0.4    C9,35.2,9,35.1,8.9,35c0-0.1-0.1-0.3-0.1-0.4c0-0.1-0.1-0.2-0.1-0.3c-0.1-0.1-0.1-0.2-0.2-0.4c0-0.1-0.1-0.2-0.2-0.3    c-0.1-0.1-0.1-0.2-0.2-0.3c0-0.1-0.1-0.1-0.1-0.2h2.6c0,0,0,0,0,0h2.1c-1,1.6-1.6,3.9-1.6,6.6c0,2.7,0.6,5,1.6,6.6H8.1    C8.1,46.3,8.2,46.2,8.2,46.2z M59.2,46.3H19.3c0,0,0.1-0.1,0.1-0.2c0.1-0.1,0.1-0.2,0.2-0.3c0-0.1,0.1-0.2,0.1-0.3    c0.1-0.1,0.1-0.2,0.2-0.4c0-0.1,0.1-0.2,0.1-0.3c0.1-0.1,0.1-0.3,0.1-0.4c0-0.1,0.1-0.2,0.1-0.3c0-0.1,0.1-0.3,0.1-0.5    c0-0.1,0.1-0.2,0.1-0.3c0-0.2,0.1-0.3,0.1-0.5c0-0.1,0-0.2,0.1-0.4c0-0.2,0.1-0.4,0.1-0.5c0-0.1,0-0.2,0-0.3c0-0.2,0-0.4,0.1-0.6    c0-0.1,0-0.2,0-0.3c0-0.3,0-0.6,0-1s0-0.6,0-1c0-0.1,0-0.2,0-0.3c0-0.2,0-0.4-0.1-0.6c0-0.1,0-0.2,0-0.3c0-0.2,0-0.4-0.1-0.5    c0-0.1,0-0.2-0.1-0.4c0-0.2-0.1-0.3-0.1-0.5c0-0.1-0.1-0.2-0.1-0.3c0-0.2-0.1-0.3-0.1-0.5c0-0.1-0.1-0.2-0.1-0.3    c0-0.1-0.1-0.3-0.1-0.4c0-0.1-0.1-0.2-0.1-0.3c-0.1-0.1-0.1-0.3-0.2-0.4c0-0.1-0.1-0.2-0.1-0.3c-0.1-0.1-0.1-0.2-0.2-0.3    c0,0-0.1-0.1-0.1-0.1h35.5c0,0,0,0,0,0h4.3c1.1,0,2.6,2.6,2.6,6.6S60.2,46.3,59.2,46.3z"/>

<path d="M18.3,21.7h6.3l3.6,1.2c0.1,0,0.2,0.1,0.3,0.1c0.2,0,0.3,0,0.5-0.1l2.4-1.1H37c0.6,0,1.1-0.5,1.1-1.1s-0.5-1.1-1.1-1.1    h-5.8c-0.2,0-0.3,0-0.5,0.1l-2.2,1.1l-3.3-1.1c-0.1,0-0.2-0.1-0.3-0.1h-6.5c-0.6,0-1.1,0.5-1.1,1.1S17.7,21.7,18.3,21.7z"/>

<path d="M43,21.7h8.7c0.6,0,1.1-0.5,1.1-1.1s-0.5-1.1-1.1-1.1H43c-0.6,0-1.1,0.5-1.1,1.1S42.4,21.7,43,21.7z"/>

<path d="M18.3,28.6H32c0.6,0,1.1-0.5,1.1-1.1s-0.5-1.1-1.1-1.1H18.3c-0.6,0-1.1,0.5-1.1,1.1S17.7,28.6,18.3,28.6z"/>

<path d="M35.9,27.4c0,0.6,0.5,1.1,1.1,1.1h3.6c0.1,0,0.2,0,0.3,0l4.7-1.4l2.1,1.3c0.2,0.1,0.4,0.2,0.6,0.2h4.8    c0.6,0,1.1-0.5,1.1-1.1s-0.5-1.1-1.1-1.1h-4.5l-2.3-1.4c-0.3-0.2-0.6-0.2-0.9-0.1l-5,1.5H37C36.4,26.3,35.9,26.8,35.9,27.4z"/>

<path d="M23.8,37.4h6.3l3.6,1.2c0.1,0,0.2,0.1,0.3,0.1c0.2,0,0.3,0,0.5-0.1l2.4-1.1h5.5c0.6,0,1.1-0.5,1.1-1.1s-0.5-1.1-1.1-1.1    h-5.8c-0.2,0-0.3,0-0.5,0.1l-2.2,1.1l-3.3-1.1c-0.1,0-0.2-0.1-0.3-0.1h-6.5c-0.6,0-1.1,0.5-1.1,1.1S23.2,37.4,23.8,37.4z"/>

<path d="M48.5,37.4h8.7c0.6,0,1.1-0.5,1.1-1.1s-0.5-1.1-1.1-1.1h-8.7c-0.6,0-1.1,0.5-1.1,1.1S47.9,37.4,48.5,37.4z"/>

<path d="M37.4,42.1H23.8c-0.6,0-1.1,0.5-1.1,1.1s0.5,1.1,1.1,1.1h13.7c0.6,0,1.1-0.5,1.1-1.1S38,42.1,37.4,42.1z"/>

<path d="M58.5,42.1H54l-2.3-1.4c-0.3-0.2-0.6-0.2-0.9-0.1l-5,1.5h-3.4c-0.6,0-1.1,0.5-1.1,1.1s0.5,1.1,1.1,1.1H46    c0.1,0,0.2,0,0.3,0l4.7-1.4l2.1,1.3c0.2,0.1,0.4,0.2,0.6,0.2h4.8c0.6,0,1.1-0.5,1.1-1.1S59.2,42.1,58.5,42.1z"/>

</g>

</g>

<g id="Layer_10"/>

<g id="Layer_11"/>

<g id="Layer_12"/>

<g id="Layer_13"/>

<g id="Layer_15"/>

<g id="Layer_16"/>

<g id="Layer_17"/>

<g id="Layer_18"/>

<g id="Layer_19"/>

<g id="Layer_20"/>

<g id="Layer_21"/>

<g id="Layer_22"/>

<g id="Layer_23"/>

<g id="Layer_24"/>

<g id="Layer_25"/>

<g id="Layer_26"/>

<g id="Layer_27"/>

</svg>