<?xml version="1.0" ?>


<svg fill="#000000" width="800px" height="800px" viewBox="0 0 64 64" version="1.1" xml:space="preserve" xmlns="http://www.w3.org/2000/svg" xmlns:xlink="http://www.w3.org/1999/xlink">

<g id="Layer_2"/>

<g id="Layer_3"/>

<g id="Layer_4"/>

<g id="Layer_5"/>

<g id="Layer_6"/>

<g id="Layer_7"/>

<g id="Layer_8"/>

<g id="Layer_9"/>

<g id="Layer_10"/>

<g id="Layer_11"/>

<g id="Layer_12"/>

<g id="Layer_13"/>

<g id="Layer_15">

<g>

<path d="M62,43.9C61.9,43.9,61.9,43.9,62,43.9c-1.8-2.2-4.5-3.5-7.3-3.5H31.8l10.3-10.3c3.3-3.3,5.2-7.7,5.2-12.4    c0-4.7-1.8-9.1-5.2-12.4c-0.4-0.4-1.1-0.4-1.6,0L2.7,43C1,44.8,0,47.1,0,49.6c0,1.3,0.2,2.5,0.7,3.6c0,0,0,0,0,0.1c0,0,0,0,0,0    c0,0,0,0,0,0c0,0,0,0,0,0c0.1,0.1,0.1,0.2,0.2,0.4L1,53.9c0.3,0.5,0.6,0.9,0.9,1.4c0,0.1,0.1,0.2,0.2,0.3c1.8,2.2,4.4,3.5,7.3,3.5    h25.9h19.3c2.5,0,4.8-1,6.6-2.7c1.8-1.8,2.7-4.1,2.7-6.6C64,47.6,63.3,45.6,62,43.9z M58.1,43.5H32.3l-0.9-0.9h23.3    C55.9,42.6,57.1,42.9,58.1,43.5z M41.3,7.6c2.4,2.8,3.8,6.3,3.8,10.1c0,4.1-1.6,8-4.5,10.9L28.7,40.4H9.4c-0.3,0-0.6,0-1,0    c0,0,0,0,0,0L41.3,7.6z M9.4,56.9c-1.2,0-2.4-0.3-3.5-0.9h25.9l0.9,0.9H9.4z M59.7,54.8c-1.3,1.3-3.1,2.1-5.1,2.1H35.8L33,54.1    c-0.2-0.2-0.5-0.3-0.8-0.3H3.5C3.3,53.5,3.2,53.2,3,53l-0.1-0.2c0-0.1-0.1-0.2-0.1-0.3c-0.4-0.9-0.5-1.8-0.5-2.7    c0-1.9,0.7-3.7,2.1-5.1c1.3-1.3,3.1-2.1,5.1-2.1h18.9l2.8,2.8c0.2,0.2,0.5,0.3,0.8,0.3h28.7c0.8,1.2,1.2,2.6,1.2,4    C61.8,51.7,61.1,53.5,59.7,54.8z"/>

<path d="M9.2,46.8c-1.6,0-3,1.3-3,3c0,1.6,1.3,3,3,3s3-1.3,3-3C12.2,48.1,10.9,46.8,9.2,46.8z M9.2,50.5c-0.4,0-0.8-0.3-0.8-0.8    c0-0.4,0.3-0.8,0.8-0.8c0.4,0,0.8,0.3,0.8,0.8C10,50.2,9.6,50.5,9.2,50.5z"/>

<path d="M54.8,46.8c-1.6,0-3,1.3-3,3c0,1.6,1.3,3,3,3c0.2,0,0.4,0,0.6-0.1c1.3-0.3,2.4-1.5,2.4-2.9c0,0,0,0,0,0    C57.8,48.1,56.5,46.8,54.8,46.8z M54.1,49.8c0-0.4,0.3-0.8,0.8-0.8c0.1,0,0.2,0,0.3,0.1c0.3,0.1,0.5,0.4,0.5,0.7    c0,0.1,0,0.1,0,0.2c0,0,0,0.1,0,0.1c0,0.1-0.1,0.1-0.1,0.2c0,0,0,0.1-0.1,0.1c0,0-0.1,0.1-0.1,0.1c0,0-0.1,0-0.1,0.1    c-0.1,0-0.2,0.1-0.3,0.1C54.4,50.5,54.1,50.2,54.1,49.8z"/>

<path d="M23.7,31.9c0.3,0,0.6-0.1,0.8-0.3l10.1-10.1c0.4-0.4,0.4-1.1,0-1.6c-0.4-0.4-1.1-0.4-1.6,0L22.9,30    c-0.4,0.4-0.4,1.1,0,1.6C23.1,31.8,23.4,31.9,23.7,31.9z"/>

</g>

</g>

<g id="Layer_16"/>

<g id="Layer_17"/>

<g id="Layer_18"/>

<g id="Layer_19"/>

<g id="Layer_20"/>

<g id="Layer_21"/>

<g id="Layer_22"/>

<g id="Layer_23"/>

<g id="Layer_24"/>

<g id="Layer_25"/>

<g id="Layer_26"/>

<g id="Layer_27"/>

</svg>