<?xml version="1.0" encoding="utf-8"?>


<svg height="800px" width="800px" version="1.1" id="Layer_1" xmlns="http://www.w3.org/2000/svg" xmlns:xlink="http://www.w3.org/1999/xlink" 
	 viewBox="0 0 100 100" enable-background="new 0 0 100 100" xml:space="preserve">
<path fill="#231F20" d="M65.1,41.8v-3.2l0.2-0.1c2.7-0.9,5.8-3.4,5.8-9.9c0-5.8-4.7-10.5-10.5-10.5c-1.1,0-2.1,0.2-3.1,0.5
	c-2.3-2.4-5.4-3.7-8.7-3.7c-5.1,0-9.6,3.2-11.4,7.9c-3.4,1.1-5.8,4.3-5.8,7.9c0,4.1,2.9,7.4,6.7,8.2v2.9c-2.2,0.8-3.7,2.9-3.7,5.3
	v27.6c0,2.5,1.7,4.7,4,5.4l0.7,4c0,0.1,0.1,0.3,0.1,0.4c0.5,1.2,1.6,1.9,2.9,1.9h18.7c1.3,0,2.4-0.8,2.9-1.9
	c0.1-0.1,0.1-0.3,0.1-0.4l0.7-4c2.3-0.7,4-2.9,4-5.4V47.2C68.8,44.7,67.2,42.6,65.1,41.8z M42.2,39.1h4.5v2.3h-4.5V39.1z M46.7,52.4
	C45,53.8,44,55.9,44,58.2c0,4.2,3.4,7.6,7.6,7.6c0,0,0.1,0,0.1,0c0,0,0.1,0,0.1,0c4.2,0,7.6-3.4,7.6-7.6c0-2.2-1-4.3-2.7-5.8v-3.2h5
	v21h-4.2c-0.2,0-0.5,0.1-0.6,0.4c-1,2-2.9,3.3-5.1,3.3c-2.2,0-4.2-1.2-5.1-3.3c-0.1-0.2-0.3-0.4-0.6-0.4h-4.2v-21h4.8V52.4z
	 M56.7,39.1h4.7v2.3h-4.7V39.1z M35.4,30.8c0-2.3,1.6-4.2,3.8-4.6c0.7-0.1,1.3-0.6,1.5-1.3c1-3.7,4.3-6.2,8.1-6.2
	c2.6,0,5.1,1.2,6.7,3.3c0.5,0.7,1.5,0.9,2.2,0.5c0.9-0.4,1.9-0.6,2.9-0.6c3.8,0,6.8,3.1,6.8,6.8c0,5.3-2.5,6.2-3.4,6.5l-1,0.4h-8.3
	h-0.2c-1,0-1.8,0.8-1.8,1.8v6v10c0,0.6,0.3,1.2,0.9,1.6c1.1,0.7,1.8,1.9,1.8,3.3c0,2.1-1.7,3.8-3.8,3.9c-2.1-0.1-3.8-1.8-3.8-3.9
	c0-1.3,0.7-2.6,1.8-3.3c0.5-0.3,0.9-0.9,0.9-1.6V37.3c0-1-0.8-1.8-1.8-1.8h-0.2h-8.2h-0.2C37.5,35.4,35.4,33.3,35.4,30.8z
	 M60.6,82.8H42.9l-0.4-2.3H61L60.6,82.8z M65.1,74.7c0,1.1-0.9,2-2,2H40.4c-1.1,0-2-0.9-2-2V47.2c0-1.1,0.9-2,2-2h6.3V48h-5.4
	c-0.3,0-0.6,0.3-0.6,0.6v22.2c0,0.3,0.3,0.6,0.6,0.6h4.4c1.2,2.2,3.5,3.6,6.1,3.6c2.5,0,4.8-1.4,6.1-3.6h4.4c0.3,0,0.6-0.3,0.6-0.6
	V48.6c0-0.3-0.3-0.6-0.6-0.6h-5.6v-2.8h6.4c1.1,0,2,0.9,2,2V74.7z"/>
</svg>