<?xml version="1.0" encoding="utf-8"?>


<svg height="800px" width="800px" version="1.1" id="Layer_1" xmlns="http://www.w3.org/2000/svg" xmlns:xlink="http://www.w3.org/1999/xlink" 
	 viewBox="0 0 100 100" enable-background="new 0 0 100 100" xml:space="preserve">
<g>
	<path fill="#FFDD00" d="M62.8,58.2h-19v4.9c1.4,1.1,2.3,2.7,2.3,4.5c0,3.2-2.7,5.8-6,5.8c-3.3,0-6-2.6-6-5.8c0-2,1.1-3.8,2.8-4.8
		v-4.6h-7.5l-4,24.1c-0.4,2.2,1.4,4.1,3.7,4.1h34.1c2.3,0,4-1.9,3.7-4.1L62.8,58.2z"/>
	<path fill="#231F20" d="M65.8,77.9c-0.4,0-0.7-0.1-1-0.3c-0.4-0.3-0.7-0.7-0.8-1.3l-3.5-21.9c-0.1-0.5,0.1-1,0.4-1.4
		c0.3-0.4,0.8-0.7,1.3-0.7c6.9-0.5,13,4.5,13.9,11.4v0c0.8,6.5-3.4,12.6-9.8,14.2C66.1,77.9,65.9,77.9,65.8,77.9z M64.5,56l2.8,17.5
		c3.5-1.7,5.6-5.5,5.1-9.4l0,0C71.8,59.9,68.6,56.6,64.5,56z"/>
	<path fill="#231F20" d="M63.1,88.2H29c-1.6,0-3.2-0.7-4.2-1.9c-1.1-1.2-1.5-2.9-1.3-4.5L29,47c0.1-0.9,0.9-1.6,1.8-1.6h6
		c1,0,1.8,0.8,1.8,1.8v14.4c0,0.6-0.3,1.2-0.8,1.6c-1.2,0.8-1.9,2.1-1.9,3.5c0,2.3,1.9,4.2,4.2,4.2s4.2-1.9,4.2-4.2
		c0-1.2-0.6-2.4-1.6-3.2c-0.4-0.4-0.7-0.9-0.7-1.4V47.3c0-1,0.8-1.8,1.8-1.8h5.8c1,0,1.8,0.8,1.8,1.8v4.5c0,0.7,0.6,1.3,1.3,1.3
		s1.3-0.6,1.3-1.3v-4.5c0-1,0.8-1.8,1.8-1.8h5.4c0.9,0,1.7,0.7,1.8,1.6l5.5,34.8c0.3,1.6-0.2,3.2-1.3,4.5
		C66.2,87.5,64.7,88.2,63.1,88.2z M32.4,49.2l-5.2,33.2c-0.1,0.5,0.1,1.1,0.4,1.5c0.4,0.4,0.9,0.6,1.4,0.6h34.1c0.6,0,1-0.2,1.4-0.6
		c0.4-0.4,0.5-0.9,0.4-1.5l-5.2-33.2h-1.9v2.7c0,2.8-2.2,5-5,5s-5-2.2-5-5v-2.7h-2.1v12.1c1.4,1.5,2.3,3.4,2.3,5.5
		c0,4.3-3.5,7.9-7.9,7.9s-7.9-3.5-7.9-7.9c0-2.3,1-4.5,2.8-6V49.2H32.4z"/>
	<path fill="#231F20" d="M40,74.6c-4.3,0-7.9-3.5-7.9-7.9c0-2.3,1-4.5,2.8-6V49.2h-2.6c-5.3,0-9.6-4.3-9.6-9.6
		c0-3.5,1.9-6.6,4.8-8.3C29,24.5,35.1,19.6,42,19.6c4.2,0,8.2,1.8,11,5c0.8-0.2,1.6-0.3,2.4-0.3c3.9,0,7.3,2.6,8.4,6.2
		c3.8,1.3,6.4,5,6.4,9.1c0,5.3-4.3,9.6-9.6,9.6h-2.8v2.7c0,2.8-2.2,5-5,5s-5-2.2-5-5v-2.7h-2.1v12.1c1.4,1.5,2.3,3.4,2.3,5.5
		C47.9,71.1,44.3,74.6,40,74.6z M42,23.3c-5.4,0-10.1,4-10.9,9.4c-0.1,0.6-0.5,1.2-1.1,1.4c-2.2,0.9-3.5,3.1-3.5,5.4
		c0,3.3,2.7,5.9,5.9,5.9h4.5c1,0,1.8,0.8,1.8,1.8v14.4c0,0.6-0.3,1.2-0.8,1.6c-1.2,0.8-1.9,2.1-1.9,3.5c0,2.3,1.9,4.2,4.2,4.2
		s4.2-1.9,4.2-4.2c0-1.2-0.6-2.4-1.6-3.2c-0.4-0.4-0.7-0.9-0.7-1.4V47.3c0-1,0.8-1.8,1.8-1.8h5.8c1,0,1.8,0.8,1.8,1.8v4.5
		c0,0.7,0.6,1.3,1.3,1.3s1.3-0.6,1.3-1.3v-4.5c0-1,0.8-1.8,1.8-1.8h4.6c3.3,0,5.9-2.7,5.9-5.9c0-2.8-2-5.2-4.7-5.8
		c-0.8-0.2-1.3-0.8-1.4-1.5c-0.4-2.4-2.5-4.3-5-4.3c-0.7,0-1.5,0.2-2.2,0.5c-0.8,0.4-1.8,0.1-2.3-0.6C48.8,25,45.5,23.3,42,23.3z"/>
	<path fill="#231F20" d="M35.4,58.8c-0.3,0-0.6-0.3-0.6-0.6c0-0.3,0.3-0.6,0.6-0.6c0.3,0,0.6,0.3,0.6,0.6
		C36.1,58.6,35.8,58.8,35.4,58.8z M31.7,58.8h-2.5c-0.3,0-0.6-0.3-0.6-0.6c0-0.3,0.3-0.6,0.6-0.6h2.5c0.3,0,0.6,0.3,0.6,0.6
		C32.4,58.6,32.1,58.8,31.7,58.8z"/>
	<path fill="#231F20" d="M59.8,58.8h-1.2c-0.3,0-0.6-0.3-0.6-0.6c0-0.3,0.3-0.6,0.6-0.6h1.2c0.3,0,0.6,0.3,0.6,0.6
		C60.4,58.6,60.1,58.8,59.8,58.8z M56.1,58.8c-0.3,0-0.6-0.3-0.6-0.6c0-0.3,0.3-0.6,0.6-0.6c0.3,0,0.6,0.3,0.6,0.6
		C56.7,58.6,56.4,58.8,56.1,58.8z M52.4,58.8h-1.2c-0.3,0-0.6-0.3-0.6-0.6c0-0.3,0.3-0.6,0.6-0.6h1.2c0.3,0,0.6,0.3,0.6,0.6
		C53,58.6,52.7,58.8,52.4,58.8z M48.7,58.8c-0.3,0-0.6-0.3-0.6-0.6c0-0.3,0.3-0.6,0.6-0.6c0.3,0,0.6,0.3,0.6,0.6
		C49.3,58.6,49,58.8,48.7,58.8z M45,58.8h-1.2c-0.3,0-0.6-0.3-0.6-0.6c0-0.3,0.3-0.6,0.6-0.6H45c0.3,0,0.6,0.3,0.6,0.6
		C45.6,58.6,45.3,58.8,45,58.8z"/>
</g>
</svg>