<?xml version="1.0" encoding="utf-8"?>


<svg height="800px" width="800px" version="1.1" id="Layer_1" xmlns="http://www.w3.org/2000/svg" xmlns:xlink="http://www.w3.org/1999/xlink" 
	 viewBox="0 0 100 100" enable-background="new 0 0 100 100" xml:space="preserve">
<g>
	<path fill="#231F20" d="M55.4,59.8h-7.9c-3.4,0-6.2,2.8-6.2,6.2V74c0,3.4,2.8,6.2,6.2,6.2h7.9c3.4,0,6.2-2.8,6.2-6.2v-8.1
		C61.6,62.5,58.8,59.8,55.4,59.8z M59.1,74c0,2-1.7,3.7-3.7,3.7h-7.9c-2,0-3.7-1.7-3.7-3.7v-8.1c0-2,1.7-3.7,3.7-3.7h7.9
		c2,0,3.7,1.7,3.7,3.7V74z"/>
	<path fill="#231F20" d="M63,53.3c0-0.6,0.1-1.3,0.1-1.9c0-4.7-0.9-9.3-2.6-12.9c-0.6-1.3-1-2.6-1.1-3.8c3.6-0.9,6.4-4.2,6.4-8.1
		c0-4.6-3.8-8.4-8.4-8.4c-1.4,0-2.8,0.4-4.1,1.1c-1-0.7-2.1-1.1-3.3-1.1c-2.5,0-4.6,1.6-5.4,3.9c-2.8,0.7-5,3.3-5,6.3
		c0,2.7,1.7,5.1,4.1,6c-0.1,1.3-0.5,2.7-1.1,4.1c-1.7,3.6-2.6,8.2-2.6,12.9c0,0.6,0,1.3,0.1,1.9c-3.1,0.9-5.4,3.7-5.4,7.1V80
		c0,4.1,3.3,7.4,7.4,7.4H61c4.1,0,7.4-3.3,7.4-7.4V60.4C68.4,57,66.1,54.1,63,53.3z M46,25.5c1.1,0,1.9-0.8,1.9-1.8
		c0-1.1,0.9-1.9,1.9-1.9c0.6,0,1.2,0.3,1.6,0.8c0.3,0.4,0.8,0.7,1.3,0.8c0.5,0.1,1-0.1,1.4-0.4c0.9-0.7,1.9-1.2,3.1-1.2
		c2.6,0,4.7,2.1,4.7,4.7c0,2.6-2.1,4.7-4.7,4.7c-1,0-1.8,0.8-1.8,1.8v0v6.3c0,0.9-0.5,1.6-1.2,1.8c0,0,0,0,0,0c-0.1,0-0.1,0-0.2,0
		c-0.1,0-0.1,0-0.2,0c-0.1,0-0.1,0-0.2,0c-0.1,0-0.1,0-0.2,0c-0.1,0-0.1,0-0.2,0c-0.1,0-0.1,0-0.2,0C53.1,41,53,41,53,41
		c0,0-0.1,0-0.1-0.1c-0.1,0-0.1-0.1-0.1-0.1c0,0-0.1-0.1-0.1-0.1c0,0-0.1-0.1-0.1-0.1c0,0-0.1-0.1-0.1-0.1c0,0,0-0.1-0.1-0.1
		c-0.1-0.2-0.2-0.5-0.2-0.8V33c0-1-0.8-1.8-1.8-1.8h-4.2c-1.6,0-2.8-1.3-2.8-2.8C43.2,26.8,44.5,25.5,46,25.5z M64.7,80
		c0,2-1.7,3.7-3.7,3.7H41.9c-2,0-3.7-1.7-3.7-3.7V60.4c0-2,1.7-3.7,3.7-3.7c0.5,0,1-0.2,1.4-0.6c0.4-0.4,0.5-0.9,0.5-1.4
		c-0.1-1.1-0.2-2.2-0.2-3.3c0-4.2,0.8-8.2,2.3-11.3c0.8-1.7,1.3-3.4,1.5-5.2h1.1v4.6c0,0.4,0,0.7,0.1,1c0,0,0,0,0,0.1
		c0.1,0.3,0.2,0.6,0.3,0.9c0,0,0,0.1,0,0.1c0.1,0.3,0.3,0.6,0.5,0.8c0,0,0,0,0,0.1c0.2,0.3,0.4,0.5,0.6,0.7c0,0,0,0,0,0
		c0,0,0.1,0.1,0.1,0.1c0.1,0.1,0.2,0.2,0.4,0.3c0.1,0.1,0.3,0.2,0.4,0.3c0.2,0.1,0.3,0.2,0.5,0.3c0.1,0.1,0.3,0.1,0.4,0.2
		c0.2,0.1,0.4,0.1,0.6,0.2c0.2,0,0.3,0.1,0.5,0.1c0.2,0,0.4,0,0.6,0.1c0.1,0,0.3,0,0.4,0c0,0,0.1,0,0.1,0c0,0,0.1,0,0.1,0
		c0.2,0,0.5,0,0.7-0.1c0.1,0,0.1,0,0.2,0c0.3-0.1,0.5-0.1,0.8-0.2c0.1-0.1,0.2-0.1,0.4-0.2c0.1-0.1,0.2-0.1,0.4-0.2
		c0.6-0.4,1.2-0.9,1.6-1.4c0.8,2.6,1.2,5.6,1.2,8.7c0,1.1-0.1,2.2-0.2,3.3c-0.1,0.5,0.1,1,0.5,1.4c0.4,0.4,0.8,0.6,1.4,0.6
		c2,0,3.7,1.7,3.7,3.7V80z"/>
	<path fill="#231F20" d="M47.3,41.2c0.3,0,0.6-0.3,0.6-0.6c0-0.3-0.3-0.6-0.6-0.6c-0.3,0-0.6,0.3-0.6,0.6
		C46.7,40.9,47,41.2,47.3,41.2z"/>
</g>
</svg>