<?xml version="1.0" encoding="utf-8"?>


<svg height="800px" width="800px" version="1.1" id="Layer_1" xmlns="http://www.w3.org/2000/svg" xmlns:xlink="http://www.w3.org/1999/xlink" 
	 viewBox="0 0 100 100" enable-background="new 0 0 100 100" xml:space="preserve">
<g>
	<path fill="#231F20" d="M76,58.1L76,58.1c-0.8-6.3-5.9-11-12.1-11.4l-0.6-3.5c3.9-1.2,6.8-4.9,6.8-9.2c0-4.1-2.6-7.7-6.4-9.1
		c-1.1-3.6-4.5-6.2-8.4-6.2c-0.8,0-1.6,0.1-2.4,0.3c-2.8-3.1-6.8-5-11-5c-6.9,0-12.9,4.9-14.4,11.6c-3,1.7-4.8,4.9-4.8,8.3
		c0,4,2.5,7.5,6,8.9l-5.3,33.3c-0.3,1.6,0.2,3.2,1.3,4.5c1.1,1.2,2.6,1.9,4.2,1.9h34.1c1.6,0,3.2-0.7,4.2-1.9
		c1.1-1.2,1.5-2.9,1.3-4.5l-0.7-4.5C73.3,69.6,76.7,64.1,76,58.1z M26.4,34c0-2.3,1.4-4.5,3.5-5.4c0.6-0.3,1-0.8,1.1-1.4
		c0.8-5.4,5.5-9.4,10.9-9.4c3.6,0,6.8,1.7,8.9,4.5c0.5,0.7,1.5,1,2.3,0.6c0.7-0.3,1.4-0.5,2.2-0.5c2.5,0,4.6,1.8,5,4.3
		c0.1,0.8,0.7,1.4,1.4,1.5c2.7,0.6,4.7,3,4.7,5.8c0,3.3-2.7,5.9-5.9,5.9h-4.6c-1,0-1.8,0.8-1.8,1.8v4.5c0,0.7-0.6,1.3-1.3,1.3
		s-1.3-0.6-1.3-1.3v-4.5c0-1-0.8-1.8-1.8-1.8h-5.8c-1,0-1.8,0.8-1.8,1.8v14.8c0,0.1,0,0.3,0,0.4c0.1,0.4,0.3,0.8,0.6,1
		c1,0.8,1.6,2,1.6,3.2c0,2.3-1.9,4.2-4.2,4.2s-4.2-1.9-4.2-4.2c0-1.4,0.7-2.7,1.9-3.5c0.5-0.3,0.8-0.9,0.8-1.6V41.8
		c0-1-0.8-1.8-1.8-1.8h-4.5C29.1,39.9,26.4,37.3,26.4,34z M64.5,78.3c-0.4,0.4-0.9,0.6-1.4,0.6H29c-0.5,0-1-0.2-1.4-0.6
		c-0.4-0.4-0.5-0.9-0.4-1.5l3.7-23.6h0.9c0.3,0,0.6-0.3,0.6-0.6c0-0.3-0.3-0.6-0.6-0.6h-0.7l1.3-8.4h2.5v8.7
		c-0.1,0.1-0.1,0.2-0.1,0.3c0,0.1,0,0.2,0.1,0.3v2.3c-1.8,1.5-2.8,3.7-2.8,6c0,4.3,3.5,7.9,7.9,7.9s7.9-3.5,7.9-7.9
		c0-2.1-0.8-4-2.3-5.5V43.6h2.1v2.7c0,2.8,2.2,5,5,5c2.8,0,5-2.2,5-5v-2.7h1.9l0.8,5.2c0,0,0,0,0,0l3.5,21.9c0,0,0,0,0,0l1,6.1
		C65,77.4,64.8,77.9,64.5,78.3z M67.2,68l-0.9-5.4l-1.9-12.1c4.1,0.6,7.4,3.8,7.9,8.1C72.8,62.5,70.7,66.3,67.2,68z"/>
	<path fill="#231F20" d="M52.4,52h-1.2c-0.3,0-0.6,0.3-0.6,0.6c0,0.3,0.3,0.6,0.6,0.6h1.2c0.3,0,0.6-0.3,0.6-0.6
		C53,52.3,52.7,52,52.4,52z"/>
	<path fill="#231F20" d="M48.7,52c-0.3,0-0.6,0.3-0.6,0.6c0,0.3,0.3,0.6,0.6,0.6c0.3,0,0.6-0.3,0.6-0.6C49.3,52.3,49,52,48.7,52z"/>
	<path fill="#231F20" d="M59.8,52h-1.2c-0.3,0-0.6,0.3-0.6,0.6c0,0.3,0.3,0.6,0.6,0.6h1.2c0.3,0,0.6-0.3,0.6-0.6
		C60.4,52.3,60.1,52,59.8,52z"/>
	<path fill="#231F20" d="M56.1,52c-0.3,0-0.6,0.3-0.6,0.6c0,0.3,0.3,0.6,0.6,0.6c0.3,0,0.6-0.3,0.6-0.6C56.7,52.3,56.4,52,56.1,52z"
		/>
</g>
</svg>