<?xml version="1.0" encoding="utf-8"?>


<svg height="800px" width="800px" version="1.1" id="Layer_1" xmlns="http://www.w3.org/2000/svg" xmlns:xlink="http://www.w3.org/1999/xlink" 
	 viewBox="0 0 100 100" enable-background="new 0 0 100 100" xml:space="preserve">
<g>
	<path fill="#FFDD00" d="M69.3,72.5c-2.3-4.1-1.8-8.9-1-13.5l1.2-9.4h-6.3c0.2,0.5,0.3,0.9,0.3,1.4c0,2.6-2.1,4.6-4.6,4.6
		c-2.6,0-4.6-2.1-4.6-4.6c0-0.5,0.1-1,0.3-1.4h-9.6l2.1,10.6c0.8,2.9-1.2,5.9-4.3,6.1l-2.4,0.2c-8.8,0.7-13.1,8-13.1,16.8h22.6v-1
		c0-1.5,1.3-2.8,2.8-2.8c0.9,0,1.7,0.4,2.2,1.1l2,2.7h13.9v-5.1C70.8,76.3,70.3,74.3,69.3,72.5L69.3,72.5z"/>
	<g>
		<path fill="#231F20" d="M70.8,91H27.3c-1,0-1.8-0.8-1.8-1.8v-5.7c0-1,0.8-1.8,1.8-1.8h20.8c0.4-2.2,2.3-3.8,4.6-3.8
			c1.5,0,2.8,0.7,3.7,1.9l1.5,2h13c1,0,1.8,0.8,1.8,1.8v5.7C72.7,90.1,71.9,91,70.8,91z M29.1,87.3H69v-2H56.9
			c-0.6,0-1.1-0.3-1.5-0.7l-2-2.7c0,0,0,0,0,0c-0.2-0.2-0.5-0.4-0.8-0.4c-0.5,0-1,0.4-1,1v1c0,1-0.8,1.8-1.8,1.8H29.1V87.3z"/>
		<path fill="#231F20" d="M27.3,85.3c-1,0-1.8-0.8-1.8-1.8v-0.9c0-0.8,0.6-1.6,1.4-1.8l0,0c0.6-0.1,1.2,0,1.6,0.4
			c0.5,0.4,0.7,0.9,0.7,1.5l0,0.3c0,0.2,0,0.3,0,0.5C29.1,84.4,28.3,85.3,27.3,85.3z"/>
	</g>
	<path fill="#231F20" d="M58.9,57.6c-3.6,0-6.5-2.9-6.5-6.5c0-1.3,0.4-2.6,1.1-3.6c-0.2,0-0.5,0.1-0.7,0.1c-2.7,0-4.8-2.2-4.8-4.8
		v-0.8h-3.3c-4.1,0-7.6-3.1-8-7c-0.3-2.9,1.1-5.7,3.5-7.3c-0.1-0.4-0.1-0.8-0.1-1.3c0-4.6,3.7-8.4,8.4-8.4c3,0,5.7,1.6,7.1,4
		c1.5-0.7,3.1-1.1,4.7-1.1c4,0,7.7,2.3,9.4,5.9c3.1,1.1,5.2,4,5.2,7.3c0,3.3-2.1,6.3-5.2,7.3c-0.3,0.3-0.7,0.5-1.2,0.5h-4.6v5.2
		c0.9,1.1,1.4,2.6,1.4,4.1C65.4,54.7,62.5,57.6,58.9,57.6z M55.7,41.4c0.1,0,0.1,0,0.2,0c1,0.1,1.7,0.9,1.7,1.8v4.6
		c0,0.5-0.2,1-0.6,1.3c-0.6,0.5-0.9,1.2-0.9,2c0,1.5,1.2,2.8,2.8,2.8c1.5,0,2.8-1.2,2.8-2.8c0-0.8-0.3-1.5-0.9-2
		c-0.4-0.3-0.6-0.8-0.6-1.3v-7.7c0-1,0.8-1.8,1.8-1.8h5.6c0.1-0.1,0.2-0.1,0.4-0.1c1.9-0.4,3.1-2.1,3.1-4c0-1.9-1.4-3.6-3.2-4
		c-0.6-0.1-1.1-0.6-1.3-1.1c-1-2.6-3.6-4.4-6.4-4.4c-1.6,0-3.2,0.6-4.4,1.6c-0.5,0.4-1.2,0.5-1.8,0.3c-0.6-0.2-1.1-0.7-1.2-1.3
		c-0.5-2.1-2.4-3.6-4.5-3.6c-2.6,0-4.7,2.1-4.7,4.7c0,0.5,0.1,1,0.3,1.6c0.3,1-0.1,2-1.1,2.4c-1.7,0.7-2.8,2.4-2.6,4.2
		c0.2,2.1,2.1,3.7,4.3,3.7h5.2c1,0,1.8,0.8,1.8,1.8v2.7c0,0.6,0.5,1.1,1.1,1.1c0.5,0,1-0.4,1.1-0.9C54.1,42,54.8,41.4,55.7,41.4z"/>
	<path fill="#231F20" d="M70.8,85.3H56.9c-0.6,0-1.1-0.3-1.5-0.7l-2-2.7c-0.2-0.2-0.5-0.4-0.8-0.4c-0.5,0-1,0.4-1,1v1
		c0,1-0.8,1.8-1.8,1.8H27.3c-1,0-1.8-0.8-1.8-1.8c0-10.6,5.8-18,14.8-18.7l2.4-0.2c0.9-0.1,1.7-0.5,2.2-1.3c0.5-0.7,0.7-1.7,0.4-2.5
		c0,0,0-0.1,0-0.1l-4-20.2c-0.1-0.5,0-1.1,0.4-1.5c0.4-0.4,0.9-0.7,1.4-0.7h6.8c1,0,1.8,0.8,1.8,1.8v2.7c0,0.6,0.5,1.1,1.1,1.1
		c0.5,0,1-0.4,1.1-0.9c0.2-0.9,1-1.6,2-1.5c1,0.1,1.7,0.9,1.7,1.8v4.6c0,0.5-0.2,1-0.6,1.3c-0.6,0.5-0.9,1.2-0.9,2
		c0,1.5,1.2,2.8,2.8,2.8c1.5,0,2.8-1.2,2.8-2.8c0-0.8-0.3-1.5-0.9-2c-0.4-0.3-0.6-0.8-0.6-1.3v-7.7c0-1,0.8-1.8,1.8-1.8h8.7
		c0.5,0,1,0.2,1.4,0.6c0.4,0.4,0.5,0.9,0.4,1.5l-2.5,19c-0.9,5-1.1,9,0.8,12.3c1.1,2,1.7,4.4,1.7,6.7v5.1
		C72.7,84.4,71.9,85.3,70.8,85.3z M57.8,81.6H69v-3.2c0-1.7-0.4-3.4-1.3-4.9c-2.5-4.6-2.1-9.8-1.2-14.7l2.2-16.8h-4.8v5.2
		c0.9,1.1,1.4,2.6,1.4,4.1c0,3.6-2.9,6.5-6.5,6.5c-3.6,0-6.5-2.9-6.5-6.5c0-1.3,0.4-2.6,1.1-3.6c-0.2,0-0.5,0.1-0.7,0.1
		c-2.7,0-4.8-2.2-4.8-4.8v-0.8h-2.7l3.6,17.9c0.5,1.9,0.2,3.9-1,5.6c-1.1,1.7-3,2.7-5,2.9l-2.4,0.2c-7.6,0.6-10.8,6.9-11.3,13.1
		h18.9c0.4-2.2,2.3-3.8,4.6-3.8c1.5,0,2.8,0.7,3.7,1.9L57.8,81.6z"/>
	<path fill="#231F20" d="M52.3,50.3h-1.2c-0.3,0-0.6-0.3-0.6-0.6c0-0.3,0.3-0.6,0.6-0.6h1.2c0.3,0,0.6,0.3,0.6,0.6
		C53,50,52.7,50.3,52.3,50.3z M48.6,50.3c-0.3,0-0.6-0.3-0.6-0.6c0-0.3,0.3-0.6,0.6-0.6c0.3,0,0.6,0.3,0.6,0.6
		C49.3,50,49,50.3,48.6,50.3z M46.2,50.3h-1.2c-0.3,0-0.6-0.3-0.6-0.6c0-0.3,0.3-0.6,0.6-0.6h1.2c0.3,0,0.6,0.3,0.6,0.6
		C46.8,50,46.5,50.3,46.2,50.3z"/>
	<path fill="#231F20" d="M69.6,50.3h-0.1c-0.3,0-0.6-0.3-0.6-0.6c0-0.3,0.3-0.6,0.6-0.6h0.1c0.3,0,0.6,0.3,0.6,0.6
		C70.2,50,69.9,50.3,69.6,50.3z M67,50.3c-0.3,0-0.6-0.3-0.6-0.6c0-0.3,0.3-0.6,0.6-0.6c0.3,0,0.6,0.3,0.6,0.6
		C67.6,50,67.3,50.3,67,50.3z M64.5,50.3h-1.2c-0.3,0-0.6-0.3-0.6-0.6c0-0.3,0.3-0.6,0.6-0.6h1.2c0.3,0,0.6,0.3,0.6,0.6
		C65.1,50,64.8,50.3,64.5,50.3z"/>
</g>
</svg>