<?xml version="1.0" encoding="utf-8"?>


<svg height="800px" width="800px" version="1.1" id="Layer_1" xmlns="http://www.w3.org/2000/svg" xmlns:xlink="http://www.w3.org/1999/xlink" 
	 viewBox="0 0 100 100" enable-background="new 0 0 100 100" xml:space="preserve">
<g>
	<path fill="#FFDD00" d="M47.6,52.7v0.6c1.6,1.1,2.7,2.9,2.7,5c0,3.3-2.7,6-6,6c-3.3,0-6-2.7-6-6c0-2.1,1.1-3.9,2.7-5v-0.6H30.3v4.8
		c0,10.6,8.6,19.2,19.2,19.2s19.2-8.6,19.2-19.2v-4.8H47.6z"/>
	<path fill="#231F20" d="M38.9,53.7h-1.2c-0.3,0-0.6-0.3-0.6-0.6c0-0.3,0.3-0.6,0.6-0.6h1.2c0.3,0,0.6,0.3,0.6,0.6
		C39.5,53.4,39.3,53.7,38.9,53.7z M35.2,53.7c-0.3,0-0.6-0.3-0.6-0.6c0-0.3,0.3-0.6,0.6-0.6c0.3,0,0.6,0.3,0.6,0.6
		C35.8,53.4,35.6,53.7,35.2,53.7z M31.5,53.7h-1.2c-0.3,0-0.6-0.3-0.6-0.6c0-0.3,0.3-0.6,0.6-0.6h1.2c0.3,0,0.6,0.3,0.6,0.6
		C32.1,53.4,31.9,53.7,31.5,53.7z"/>
	<path fill="#231F20" d="M67.3,53.7c-0.3,0-0.6-0.3-0.6-0.6c0-0.3,0.3-0.6,0.6-0.6c0.3,0,0.6,0.3,0.6,0.6
		C67.9,53.4,67.7,53.7,67.3,53.7z M63.6,53.7h-1.2c-0.3,0-0.6-0.3-0.6-0.6c0-0.3,0.3-0.6,0.6-0.6h1.2c0.3,0,0.6,0.3,0.6,0.6
		C64.2,53.4,64,53.7,63.6,53.7z M59.9,53.7c-0.3,0-0.6-0.3-0.6-0.6c0-0.3,0.3-0.6,0.6-0.6c0.3,0,0.6,0.3,0.6,0.6
		C60.5,53.4,60.3,53.7,59.9,53.7z M56.2,53.7H55c-0.3,0-0.6-0.3-0.6-0.6c0-0.3,0.3-0.6,0.6-0.6h1.2c0.3,0,0.6,0.3,0.6,0.6
		C56.8,53.4,56.6,53.7,56.2,53.7z M52.5,53.7c-0.3,0-0.6-0.3-0.6-0.6c0-0.3,0.3-0.6,0.6-0.6c0.3,0,0.6,0.3,0.6,0.6
		C53.1,53.4,52.9,53.7,52.5,53.7z M48.8,53.7h-1.2c-0.3,0-0.6-0.3-0.6-0.6c0-0.3,0.3-0.6,0.6-0.6h1.2c0.3,0,0.6,0.3,0.6,0.6
		C49.4,53.4,49.2,53.7,48.8,53.7z"/>
	<path fill="#231F20" d="M63.2,88.2H35.9c-1,0-1.8-0.8-1.8-1.8c0-1,0.8-1.8,1.8-1.8h27.3c1,0,1.8,0.8,1.8,1.8
		C65,87.4,64.2,88.2,63.2,88.2z"/>
	<path fill="#231F20" d="M49.5,88.2c-1,0-1.8-0.8-1.8-1.8v-9c0-1,0.8-1.8,1.8-1.8c1,0,1.8,0.8,1.8,1.8v9
		C51.4,87.4,50.5,88.2,49.5,88.2z"/>
	<path fill="#231F20" d="M49.5,78.6c-11.6,0-21.1-9.5-21.1-21.1V46.1c0-1,0.8-1.8,1.8-1.8h10.8c1,0,1.8,0.8,1.8,1.8v7.3
		c0,0.6-0.3,1.2-0.8,1.6c-1.2,0.8-1.9,2.1-1.9,3.5c0,2.3,1.8,4.1,4.1,4.1c2.3,0,4.1-1.8,4.1-4.1c0-1.4-0.7-2.7-1.9-3.5
		c-0.5-0.3-0.8-0.9-0.8-1.6v-7.3c0-1,0.8-1.8,1.8-1.8h21.1c1,0,1.9,0.8,1.9,1.8v11.4C70.6,69.1,61.2,78.6,49.5,78.6z M32.1,47.9v9.6
		c0,9.6,7.8,17.4,17.4,17.4c9.6,0,17.4-7.8,17.4-17.4v-9.6H49.4v4.5c1.7,1.5,2.7,3.6,2.7,5.9c0,4.3-3.5,7.8-7.8,7.8
		s-7.8-3.5-7.8-7.8c0-2.3,1-4.5,2.7-5.9v-4.5H32.1z"/>
	<path fill="#231F20" d="M44.4,66.2c-4.3,0-7.8-3.5-7.8-7.8c0-2.3,1-4.5,2.7-5.9v-4.5h-7.8c-0.4,0-0.7-0.1-1.1-0.3
		c-1.7-1.2-2.7-3.1-2.7-5.1c0-2.5,1.5-4.7,3.7-5.7c0-0.2,0-0.3,0-0.5c0-5.4,4-9.9,9.3-10.6c1.3-5,5.8-8.5,11-8.5
		c4.5,0,8.6,2.7,10.4,6.8c3.7,1.3,6.3,4.8,6.3,8.8c0,1.3-0.3,2.5-0.8,3.6c2,2.5,3.1,5.6,3.1,8.9c0,0.3,0,0.7,0,1
		c-0.1,1-0.9,1.8-1.8,1.8H49.4v4.5c1.7,1.5,2.7,3.6,2.7,5.9C52.2,62.7,48.7,66.2,44.4,66.2z M32.1,44.2h9c1,0,1.8,0.8,1.8,1.8v7.3
		c0,0.6-0.3,1.2-0.8,1.6c-1.2,0.8-1.9,2.1-1.9,3.5c0,2.3,1.8,4.1,4.1,4.1c2.3,0,4.1-1.8,4.1-4.1c0-1.4-0.7-2.7-1.9-3.5
		c-0.5-0.3-0.8-0.9-0.8-1.6v-7.3c0-1,0.8-1.8,1.8-1.8h19.3c-0.2-2.4-1.2-4.6-2.9-6.4c-0.6-0.6-0.7-1.5-0.2-2.2
		c0.6-0.9,0.8-1.9,0.8-2.9c0-2.6-1.8-4.9-4.4-5.4c-0.6-0.1-1.1-0.6-1.3-1.2c-1.1-3.1-4-5.2-7.3-5.2c-3.9,0-7.2,2.9-7.6,6.8
		c-0.1,1-1,1.7-2,1.6c-3.8,0-6.9,3.2-6.9,7.1c0,0.5,0.1,1,0.1,1.4c0.1,0.5,0,1-0.3,1.4c-0.3,0.4-0.8,0.7-1.3,0.8
		c-1.3,0.2-2.2,1.2-2.2,2.5C31.4,43.1,31.6,43.8,32.1,44.2z"/>
</g>
</svg>