<?xml version="1.0" encoding="utf-8"?>


<svg version="1.1" id="Layer_1" xmlns="http://www.w3.org/2000/svg" xmlns:xlink="http://www.w3.org/1999/xlink" 
	 viewBox="0 0 100 100" enable-background="new 0 0 100 100" xml:space="preserve">
<g>
	<path fill="#FFDD00" d="M53.8,28.5c-8.6,0-16.4,3.3-21.4,8.4c-1.1,1.1-1.7,2.7-1.7,4.2v15.4c0,1.6,0.6,3.1,1.7,4.2
		c5.1,5.1,12.8,8.4,21.4,8.4c8.6,0,16.4-3.3,21.4-8.4c1.1-1.1,1.7-2.7,1.7-4.2V41.1c0-1.6-0.6-3.1-1.7-4.2
		C70.2,31.8,62.5,28.5,53.8,28.5z"/>
	<path fill="#231F20" d="M53.6,60.7c-8.4,0-16.8-2-23.3-5.9c-0.6-0.4-0.8-1.1-0.4-1.7c0.4-0.6,1.1-0.8,1.7-0.4
		c12.1,7.4,31.8,7.4,43.9,0c0.6-0.4,1.3-0.2,1.7,0.4c0.4,0.6,0.2,1.3-0.4,1.7C70.4,58.8,62,60.7,53.6,60.7z"/>
	<path fill="#231F20" d="M76.9,47.5H30.7c-0.7,0-1.2-0.6-1.2-1.2S30,45,30.7,45h46.2c0.7,0,1.2,0.6,1.2,1.2S77.6,47.5,76.9,47.5z"/>
	<path fill="#231F20" d="M53.8,71c-8.8,0-17.1-3.2-22.7-8.9c-1.4-1.4-2.2-3.4-2.2-5.5V36.3c0-2.1,0.8-4.1,2.2-5.5
		c5.6-5.7,13.9-8.9,22.7-8.9s17.1,3.2,22.7,8.9c1.4,1.4,2.2,3.4,2.2,5.5v20.2c0,2.1-0.8,4.1-2.2,5.5C70.9,67.7,62.7,71,53.8,71z
		 M53.8,25.6c-7.8,0-15.2,2.8-20.1,7.8c-0.7,0.7-1.2,1.8-1.2,2.9v20.2c0,1.1,0.4,2.2,1.2,2.9c4.9,5,12.3,7.8,20.1,7.8
		c7.8,0,15.2-2.8,20.1-7.8c0.7-0.7,1.2-1.8,1.2-2.9V36.3c0-1.1-0.4-2.2-1.2-2.9C69,28.4,61.7,25.6,53.8,25.6z"/>
	
		<rect x="22.9" y="43.2" transform="matrix(4.481932e-011 -1 1 4.481932e-011 -2.968 90.911)" fill="#231F20" width="42" height="7.5"/>
	
		<rect x="43" y="43.2" transform="matrix(4.490636e-011 -1 1 4.490636e-011 17.0765 110.9556)" fill="#231F20" width="42" height="7.5"/>
	<path fill="#231F20" d="M76.2,40.3c-0.2,0-0.4-0.1-0.6-0.2c-12.1-7.4-31.8-7.4-43.9,0c-0.6,0.4-1.3,0.2-1.7-0.4
		c-0.4-0.6-0.2-1.3,0.4-1.7c12.8-7.9,33.7-7.9,46.5,0c0.6,0.4,0.8,1.1,0.4,1.7C77,40.1,76.6,40.3,76.2,40.3z"/>
	<path fill="#231F20" d="M30.4,52.5h-8.6c-1.2,0-2.2-1-2.2-2.2v-1c0-1.2,1-2.2,2.2-2.2h8.6V52.5z"/>
	<path fill="#231F20" d="M25.9,50.6h-3.1v-8.4c0-0.7,0.6-1.2,1.2-1.2h0.6c0.7,0,1.2,0.6,1.2,1.2V50.6z"/>
	<path fill="#231F20" d="M66.8,81.5H62c-1.7,0-3.2-0.7-4.3-2c-1-1.3-2.5-2-4.2-2c-1.6,0-3.1,0.7-4.2,2c-1.1,1.3-2.6,2-4.3,2h-4.3
		c-3.1,0-5.5-2.5-5.5-5.5V65c0-1,0.8-1.8,1.8-1.8h0.7c0.3,0,0.6,0.1,0.9,0.3c4.4,2.6,9.6,3.9,15,3.9s10.6-1.4,15-3.9
		c0.3-0.2,0.6-0.3,0.9-0.3h0.7c1,0,1.8,0.8,1.8,1.8v10.9C72.4,79,69.9,81.5,66.8,81.5z M53.6,73.7c2.7,0,5.3,1.2,7,3.4
		c0.3,0.4,0.9,0.7,1.4,0.7h4.8c1,0,1.8-0.8,1.8-1.8v-8.3c-4.5,2.2-9.6,3.3-14.9,3.3S43.5,69.8,39,67.7v8.3c0,1,0.8,1.8,1.8,1.8h4.3
		c0.6,0,1.1-0.2,1.4-0.7C48.3,74.9,50.8,73.7,53.6,73.7z"/>
</g>
</svg>