<?xml version="1.0" ?>

<!DOCTYPE svg  PUBLIC '-//W3C//DTD SVG 1.1//EN'  'http://www.w3.org/Graphics/SVG/1.1/DTD/svg11.dtd'>


<svg fill="#000000" width="800px" height="800px" viewBox="0 0 512 512" enable-background="new 0 0 512 512" version="1.1" xml:space="preserve" xmlns="http://www.w3.org/2000/svg" xmlns:xlink="http://www.w3.org/1999/xlink">

<g id="Layer_1"/>

<g id="Layer_2">

<g>

<path d="M302.5,195.6c0-0.1,0-0.1,0-0.2c0-0.2,0-0.3,0-0.5c0-0.1,0-0.2,0-0.3c0-0.1,0-0.3-0.1-0.4c0-0.1,0-0.2-0.1-0.3    c0-0.1-0.1-0.2-0.1-0.4c0-0.1-0.1-0.2-0.1-0.4c0-0.1-0.1-0.2-0.1-0.3c-0.1-0.1-0.1-0.3-0.2-0.4c0-0.1-0.1-0.2-0.1-0.3    c-0.1-0.1-0.2-0.3-0.2-0.4c0-0.1-0.1-0.1-0.1-0.2c0,0,0,0,0,0c-0.1-0.1-0.2-0.3-0.3-0.4c-0.1-0.1-0.1-0.2-0.2-0.2    c-0.1-0.1-0.2-0.2-0.2-0.3c-0.1-0.1-0.2-0.2-0.3-0.3c0,0-0.1-0.1-0.1-0.1c-0.5-0.5-1-0.9-1.6-1.2c-0.1-0.1-0.3-0.1-0.4-0.2    c-0.1,0-0.1-0.1-0.2-0.1c-0.2-0.1-0.4-0.1-0.6-0.2c0,0-0.1,0-0.1,0c-0.2-0.1-0.3-0.1-0.5-0.1c-0.1,0-0.1,0-0.2-0.1    c-0.1,0-0.3,0-0.4-0.1c-0.1,0-0.2,0-0.4-0.1c-0.1,0-0.2,0-0.3,0c-0.2,0-0.3,0-0.5,0c0,0,0,0-0.1,0H92.5c0,0,0,0-0.1,0    c-0.1,0-0.3,0-0.4,0c-0.1,0-0.2,0-0.4,0c-0.1,0-0.2,0-0.3,0c-0.2,0-0.3,0-0.5,0.1c0,0-0.1,0-0.1,0c-0.7,0.2-1.3,0.4-1.9,0.7    c-0.2,0.1-0.3,0.2-0.5,0.3c0,0-0.1,0-0.1,0.1c-0.4,0.2-0.7,0.5-1,0.8c0,0-0.1,0.1-0.1,0.1c-0.1,0.1-0.2,0.2-0.3,0.3    c-0.1,0.1-0.1,0.1-0.2,0.2c-0.1,0.1-0.1,0.2-0.2,0.3c-0.1,0.1-0.2,0.2-0.2,0.3c0,0,0,0,0,0.1c0,0.1-0.1,0.2-0.1,0.2    c-0.1,0.1-0.1,0.2-0.2,0.4c-0.1,0.1-0.1,0.2-0.2,0.3c-0.1,0.1-0.1,0.2-0.2,0.3c-0.1,0.1-0.1,0.3-0.1,0.4c0,0.1-0.1,0.2-0.1,0.3    c0,0.1-0.1,0.3-0.1,0.4c0,0.1,0,0.2-0.1,0.3c0,0.2-0.1,0.3-0.1,0.5c0,0.1,0,0.1,0,0.2c0,0.2,0,0.4,0,0.6c0,0,0,0.1,0,0.1v0.1    c0,0,0,0,0,0v121.8c0,4.1,3.4,7.5,7.5,7.5H295h26.4c12.2,0,22.1-9.9,22.1-22.1v-61.5c0-3.9,3.2-7.1,7.1-7.1h1.4v2    c0,9.9,8.1,18,18,18h26v5c0,4.1,3.4,7.5,7.5,7.5s7.5-3.4,7.5-7.5v-11.8h8.5c4.1,0,7.5-3.4,7.5-7.5s-3.4-7.5-7.5-7.5H411v-11.5h8.5    c4.1,0,7.5-3.4,7.5-7.5s-3.4-7.5-7.5-7.5H411v-11.8c0-4.1-3.4-7.5-7.5-7.5s-7.5,3.4-7.5,7.5v5h-26c-9.9,0-18,8.1-18,18v2h-1.4    c-12.2,0-22.1,9.9-22.1,22.1V303c0,3.9-3.2,7.1-7.1,7.1h-18.9V195.8c0,0,0,0,0,0L302.5,195.6C302.5,195.6,302.5,195.6,302.5,195.6    z M367,217.4c0-1.7,1.3-3,3-3h26v25.1h-26c-1.7,0-3-1.3-3-3V217.4z M269.6,203.1l-75.8,49l-75.8-49H269.6z M100,209.4l89.7,58    c1.2,0.8,2.7,1.2,4.1,1.2s2.8-0.4,4.1-1.2l89.7-58v100.7H100V209.4z"/>

</g>

</g>

</svg>