<?xml version="1.0" ?>

<!DOCTYPE svg  PUBLIC '-//W3C//DTD SVG 1.1//EN'  'http://www.w3.org/Graphics/SVG/1.1/DTD/svg11.dtd'>


<svg fill="#000000" width="800px" height="800px" viewBox="0 0 512 512" enable-background="new 0 0 512 512" version="1.1" xml:space="preserve" xmlns="http://www.w3.org/2000/svg" xmlns:xlink="http://www.w3.org/1999/xlink">

<g id="Layer_1"/>

<g id="Layer_2">

<g>

<path d="M116.8,256c0,4.1,3.4,7.5,7.5,7.5h288.6c4.1,0,7.5-3.4,7.5-7.5s-3.4-7.5-7.5-7.5H124.3C120.1,248.5,116.8,251.9,116.8,256    z"/>

<path d="M154.5,229.3v-52.7c0-4.1-3.4-7.5-7.5-7.5s-7.5,3.4-7.5,7.5v52.7c0,4.1,3.4,7.5,7.5,7.5S154.5,233.5,154.5,229.3z"/>

<path d="M191.3,236.8c4.1,0,7.5-3.4,7.5-7.5v-52.7c0-4.1-3.4-7.5-7.5-7.5H168c-4.1,0-7.5,3.4-7.5,7.5v52.7c0,4.1,3.4,7.5,7.5,7.5    H191.3z M175.5,184.2h8.3v37.7h-8.3V184.2z"/>

<path d="M220,229.3v-52.7c0-4.1-3.4-7.5-7.5-7.5s-7.5,3.4-7.5,7.5v52.7c0,4.1,3.4,7.5,7.5,7.5S220,233.5,220,229.3z"/>

<path d="M241,229.3v-52.7c0-4.1-3.4-7.5-7.5-7.5s-7.5,3.4-7.5,7.5v52.7c0,4.1,3.4,7.5,7.5,7.5S241,233.5,241,229.3z"/>

<path d="M279.8,236.8c4.1,0,7.5-3.4,7.5-7.5v-52.7c0-4.1-3.4-7.5-7.5-7.5h-23.3c-4.1,0-7.5,3.4-7.5,7.5v52.7    c0,4.1,3.4,7.5,7.5,7.5H279.8z M264,184.2h8.3v37.7H264V184.2z"/>

<path d="M308.5,229.3v-52.7c0-4.1-3.4-7.5-7.5-7.5s-7.5,3.4-7.5,7.5v52.7c0,4.1,3.4,7.5,7.5,7.5S308.5,233.5,308.5,229.3z"/>

<path d="M329.5,229.3v-52.7c0-4.1-3.4-7.5-7.5-7.5s-7.5,3.4-7.5,7.5v52.7c0,4.1,3.4,7.5,7.5,7.5S329.5,233.5,329.5,229.3z"/>

<path d="M369,169.2h-23.3c-4.1,0-7.5,3.4-7.5,7.5v52.7c0,4.1,3.4,7.5,7.5,7.5H369c4.1,0,7.5-3.4,7.5-7.5v-52.7    C376.5,172.5,373.1,169.2,369,169.2z M361.5,221.8h-8.3v-37.7h8.3V221.8z"/>

<path d="M397.7,229.3v-52.7c0-4.1-3.4-7.5-7.5-7.5s-7.5,3.4-7.5,7.5v52.7c0,4.1,3.4,7.5,7.5,7.5S397.7,233.5,397.7,229.3z"/>

<path d="M147,275.2c-4.1,0-7.5,3.4-7.5,7.5v52.7c0,4.1,3.4,7.5,7.5,7.5s7.5-3.4,7.5-7.5v-52.7C154.5,278.5,151.1,275.2,147,275.2z    "/>

<path d="M191.3,275.2H168c-4.1,0-7.5,3.4-7.5,7.5v52.7c0,4.1,3.4,7.5,7.5,7.5h23.3c4.1,0,7.5-3.4,7.5-7.5v-52.7    C198.8,278.5,195.5,275.2,191.3,275.2z M183.8,327.8h-8.3v-37.7h8.3V327.8z"/>

<path d="M212.5,275.2c-4.1,0-7.5,3.4-7.5,7.5v52.7c0,4.1,3.4,7.5,7.5,7.5s7.5-3.4,7.5-7.5v-52.7    C220,278.5,216.6,275.2,212.5,275.2z"/>

<path d="M233.5,275.2c-4.1,0-7.5,3.4-7.5,7.5v52.7c0,4.1,3.4,7.5,7.5,7.5s7.5-3.4,7.5-7.5v-52.7    C241,278.5,237.6,275.2,233.5,275.2z"/>

<path d="M279.8,275.2h-23.3c-4.1,0-7.5,3.4-7.5,7.5v52.7c0,4.1,3.4,7.5,7.5,7.5h23.3c4.1,0,7.5-3.4,7.5-7.5v-52.7    C287.3,278.5,284,275.2,279.8,275.2z M272.3,327.8H264v-37.7h8.3V327.8z"/>

<path d="M301,275.2c-4.1,0-7.5,3.4-7.5,7.5v52.7c0,4.1,3.4,7.5,7.5,7.5s7.5-3.4,7.5-7.5v-52.7C308.5,278.5,305.1,275.2,301,275.2z    "/>

<path d="M322,275.2c-4.1,0-7.5,3.4-7.5,7.5v52.7c0,4.1,3.4,7.5,7.5,7.5s7.5-3.4,7.5-7.5v-52.7C329.5,278.5,326.1,275.2,322,275.2z    "/>

<path d="M376.5,282.7c0-4.1-3.4-7.5-7.5-7.5h-23.3c-4.1,0-7.5,3.4-7.5,7.5v52.7c0,4.1,3.4,7.5,7.5,7.5H369c4.1,0,7.5-3.4,7.5-7.5    V282.7z M361.5,327.8h-8.3v-37.7h8.3V327.8z"/>

<path d="M382.7,282.7v52.7c0,4.1,3.4,7.5,7.5,7.5s7.5-3.4,7.5-7.5v-52.7c0-4.1-3.4-7.5-7.5-7.5S382.7,278.5,382.7,282.7z"/>

<path d="M93.9,136.8c4.1,0,7.5-3.4,7.5-7.5v-27.2h27.2c4.1,0,7.5-3.4,7.5-7.5s-3.4-7.5-7.5-7.5H93.9c-4.1,0-7.5,3.4-7.5,7.5v34.7    C86.4,133.5,89.8,136.8,93.9,136.8z"/>

<path d="M418.1,87.2h-34.7c-4.1,0-7.5,3.4-7.5,7.5s3.4,7.5,7.5,7.5h27.2v27.2c0,4.1,3.4,7.5,7.5,7.5s7.5-3.4,7.5-7.5V94.7    C425.6,90.5,422.2,87.2,418.1,87.2z"/>

<path d="M128.6,409.8h-27.2v-27.2c0-4.1-3.4-7.5-7.5-7.5s-7.5,3.4-7.5,7.5v34.7c0,4.1,3.4,7.5,7.5,7.5h34.7c4.1,0,7.5-3.4,7.5-7.5    S132.7,409.8,128.6,409.8z"/>

<path d="M418.1,375.2c-4.1,0-7.5,3.4-7.5,7.5v27.2h-27.2c-4.1,0-7.5,3.4-7.5,7.5s3.4,7.5,7.5,7.5h34.7c4.1,0,7.5-3.4,7.5-7.5    v-34.7C425.6,378.5,422.2,375.2,418.1,375.2z"/>

</g>

</g>

</svg>