<?xml version="1.0" ?>

<!DOCTYPE svg  PUBLIC '-//W3C//DTD SVG 1.1//EN'  'http://www.w3.org/Graphics/SVG/1.1/DTD/svg11.dtd'>


<svg fill="#000000" width="800px" height="800px" viewBox="0 0 512 512" enable-background="new 0 0 512 512" version="1.1" xml:space="preserve" xmlns="http://www.w3.org/2000/svg" xmlns:xlink="http://www.w3.org/1999/xlink">

<g id="Layer_1"/>

<g id="Layer_2">

<g>

<path d="M382.6,82h-39.2c-4.1,0-7.5,3.4-7.5,7.5v14.9c0,3.9-3.2,7.1-7.1,7.1s-7.1-3.2-7.1-7.1V89.5c0-4.1-3.4-7.5-7.5-7.5h-41.4    c-4.1,0-7.5,3.4-7.5,7.5v14.9c0,3.9-3.2,7.1-7.1,7.1h-3.4c-3.9,0-7.1-3.2-7.1-7.1V90.6c0-4.1-3.4-7.5-7.5-7.5h-35.8    c-4.1,0-7.5,3.4-7.5,7.5v13.8c0,3.9-3.2,7.1-7.1,7.1h-4.5c-3.9,0-7.1-3.2-7.1-7.1V90.6c0-4.1-3.4-7.5-7.5-7.5h-41.4    c-4.1,0-7.5,3.4-7.5,7.5v330.9c0,4.1,3.4,7.5,7.5,7.5h41.4c4.1,0,7.5-3.4,7.5-7.5v-13.8c0-3.9,3.2-7.1,7.1-7.1h4.5    c3.9,0,7.1,3.2,7.1,7.1v13.8c0,4.1,3.4,7.5,7.5,7.5h35.8c4.1,0,7.5-3.4,7.5-7.5v-13.8c0-3.9,3.2-7.1,7.1-7.1h3.4    c3.9,0,7.1,3.2,7.1,7.1v14.9c0,4.1,3.4,7.5,7.5,7.5h41.4c4.1,0,7.5-3.4,7.5-7.5v-14.9c0-3.9,3.2-7.1,7.1-7.1s7.1,3.2,7.1,7.1v14.9    c0,4.1,3.4,7.5,7.5,7.5h39.2c4.1,0,7.5-3.4,7.5-7.5V89.5C390.1,85.4,386.7,82,382.6,82z M375.1,415h-24.2v-7.4    c0-12.2-9.9-22.1-22.1-22.1c-12.2,0-22.1,9.9-22.1,22.1v7.4h-26.4v-7.4c0-12.2-9.9-22.1-22.1-22.1h-3.4    c-12.2,0-22.1,9.9-22.1,22.1v6.3H212v-6.3c0-12.2-9.9-22.1-22.1-22.1h-4.5c-12.2,0-22.1,9.9-22.1,22.1v6.3h-26.4V98.1h26.4v6.3    c0,12.2,9.9,22.1,22.1,22.1h4.5c12.2,0,22.1-9.9,22.1-22.1v-6.3h20.8v6.3c0,12.2,9.9,22.1,22.1,22.1h3.4    c12.2,0,22.1-9.9,22.1-22.1V97h26.4v7.4c0,12.2,9.9,22.1,22.1,22.1c12.2,0,22.1-9.9,22.1-22.1V97h24.2V415z"/>

<path d="M282.1,161.5H167.9c-4.1,0-7.5,3.4-7.5,7.5s3.4,7.5,7.5,7.5h114.3c4.1,0,7.5-3.4,7.5-7.5S286.3,161.5,282.1,161.5z"/>

<path d="M344.1,161.5h-24.6c-4.1,0-7.5,3.4-7.5,7.5s3.4,7.5,7.5,7.5h24.6c4.1,0,7.5-3.4,7.5-7.5S348.3,161.5,344.1,161.5z"/>

<path d="M282.1,209.3H167.9c-4.1,0-7.5,3.4-7.5,7.5s3.4,7.5,7.5,7.5h114.3c4.1,0,7.5-3.4,7.5-7.5S286.3,209.3,282.1,209.3z"/>

<path d="M319.5,224.3h24.6c4.1,0,7.5-3.4,7.5-7.5s-3.4-7.5-7.5-7.5h-24.6c-4.1,0-7.5,3.4-7.5,7.5S315.3,224.3,319.5,224.3z"/>

<path d="M282.1,257.1H167.9c-4.1,0-7.5,3.4-7.5,7.5s3.4,7.5,7.5,7.5h114.3c4.1,0,7.5-3.4,7.5-7.5S286.3,257.1,282.1,257.1z"/>

<path d="M319.5,272.1h24.6c4.1,0,7.5-3.4,7.5-7.5s-3.4-7.5-7.5-7.5h-24.6c-4.1,0-7.5,3.4-7.5,7.5S315.3,272.1,319.5,272.1z"/>

<path d="M333.7,308.3c7.7,0,12.7,2.5,15.5,3.7l3.1-12.2c-3.6-1.7-8.4-3.2-15.6-3.5v-9.5h-10.5V297c-11.5,2.3-18.2,9.7-18.2,19.1    c0,10.4,7.9,15.8,19.4,19.7c8,2.7,11.4,5.3,11.4,9.4c0,4.3-4.2,6.7-10.3,6.7c-7,0-13.3-2.3-17.9-4.7l-3.2,12.6    c4.1,2.4,11.1,4.3,18.3,4.6v10.2h10.5v-11c12.4-2.2,19.1-10.3,19.1-19.9c0-9.7-5.2-15.6-18-20.1c-9.1-3.4-12.9-5.7-12.9-9.2    C324.5,311.3,326.7,308.3,333.7,308.3z"/>

</g>

</g>

</svg>