<?xml version="1.0" ?>

<!DOCTYPE svg  PUBLIC '-//W3C//DTD SVG 1.1//EN'  'http://www.w3.org/Graphics/SVG/1.1/DTD/svg11.dtd'>


<svg fill="#000000" width="800px" height="800px" viewBox="0 0 512 512" enable-background="new 0 0 512 512" version="1.1" xml:space="preserve" xmlns="http://www.w3.org/2000/svg" xmlns:xlink="http://www.w3.org/1999/xlink">

<g id="Layer_1"/>

<g id="Layer_2">

<g>

<path d="M134.2,364.4c0.3,0.3,0.5,0.5,0.8,0.7c29.3,29,69.6,46.9,114,46.9c19.5,0,38.6-3.4,56.6-10.2    c12.6,14.1,30.8,22.9,51.1,22.9c37.8,0,68.6-30.8,68.6-68.6c0-20.6-9.1-39.1-23.6-51.7c6.3-17.5,9.5-35.9,9.5-54.8    c0-44.4-17.9-84.6-46.9-114c-0.2-0.3-0.4-0.6-0.7-0.8c-0.3-0.3-0.5-0.5-0.8-0.7c-29.3-29-69.6-46.9-114-46.9    c-44.4,0-84.6,17.9-114,46.9c-0.3,0.2-0.6,0.4-0.8,0.7c-0.3,0.3-0.5,0.5-0.7,0.8c-29,29.3-46.9,69.6-46.9,114    c0,44.4,17.9,84.6,46.9,114C133.7,363.9,133.9,364.2,134.2,364.4z M410.4,356.1c0,29.6-24.1,53.6-53.6,53.6s-53.6-24.1-53.6-53.6    s24.1-53.6,53.6-53.6S410.4,326.5,410.4,356.1z M356.7,287.5c-37.8,0-68.6,30.8-68.6,68.6c0,12,3.1,23.2,8.5,33    c-12.9,4.4-26.4,7-40.1,7.7V370c0-4.1-3.4-7.5-7.5-7.5s-7.5,3.4-7.5,7.5v26.8c-35-1.8-66.8-15.8-91.2-37.8l18.9-18.9    c2.9-2.9,2.9-7.7,0-10.6c-2.9-2.9-7.7-2.9-10.6,0l-18.9,18.9c-22.1-24.4-36.1-56.2-37.8-91.2h26.8c4.1,0,7.5-3.4,7.5-7.5    s-3.4-7.5-7.5-7.5h-26.8c1.8-35,15.8-66.8,37.8-91.2l18.9,18.9c1.5,1.5,3.4,2.2,5.3,2.2s3.8-0.7,5.3-2.2c2.9-2.9,2.9-7.7,0-10.6    l-18.9-18.9c24.4-22.1,56.2-36.1,91.2-37.8v26.8c0,4.1,3.4,7.5,7.5,7.5s7.5-3.4,7.5-7.5v-26.8c35,1.8,66.8,15.8,91.2,37.8    l-18.9,18.9c-2.9,2.9-2.9,7.7,0,10.6c1.5,1.5,3.4,2.2,5.3,2.2s3.8-0.7,5.3-2.2l18.9-18.9c22.1,24.4,36.1,56.2,37.8,91.2h-26.8    c-4.1,0-7.5,3.4-7.5,7.5s3.4,7.5,7.5,7.5h26.8c-0.7,13.1-3,26-7.1,38.4C379.4,290.4,368.4,287.5,356.7,287.5z"/>

<path d="M249,165.4c-4.1,0-7.5,3.4-7.5,7.5v80.2l-38.8,38.8c-2.9,2.9-2.9,7.7,0,10.6c1.5,1.5,3.4,2.2,5.3,2.2s3.8-0.7,5.3-2.2    l41-41c1.4-1.4,2.2-3.3,2.2-5.3v-83.3C256.5,168.8,253.1,165.4,249,165.4z"/>

<path d="M338.9,367.9l3.5-2.9c5.5-4.9,10.1-10,10.1-16.3c0-6.9-4.7-11.9-13.3-11.9c-5.1,0-9.5,1.7-12.4,3.9l2.5,6.3    c2-1.5,4.8-3.1,8.1-3.1c4.4,0,6.2,2.4,6.2,5.5c-0.1,4.4-4.1,8.7-12.4,16.1l-4.9,4.4v5.4h26.8v-7.3h-14.3V367.9z"/>

<path d="M382.7,337.5h-10.8l-14.3,23.1v5.8h16.8v9h8.4v-9h4.5v-6.6h-4.5V337.5z M374.3,351.3v8.4h-8.5v-0.1l5.1-8.3    c1.3-2.4,2.3-4.6,3.5-7h0.2C374.4,346.7,374.3,349,374.3,351.3z"/>

</g>

</g>

</svg>