<?xml version="1.0" ?>

<!DOCTYPE svg  PUBLIC '-//W3C//DTD SVG 1.1//EN'  'http://www.w3.org/Graphics/SVG/1.1/DTD/svg11.dtd'>


<svg fill="#000000" width="800px" height="800px" viewBox="0 0 512 512" enable-background="new 0 0 512 512" version="1.1" xml:space="preserve" xmlns="http://www.w3.org/2000/svg" xmlns:xlink="http://www.w3.org/1999/xlink">

<g id="Layer_1"/>

<g id="Layer_2">

<g>

<path d="M395.1,108.1H116.9c-13.3,0-24,10.8-24,24v195.5c0,13.3,10.8,24,24,24H204v37.2h-32.2c-4.1,0-7.5,3.4-7.5,7.5    s3.4,7.5,7.5,7.5h39.7h88.9h39.7c4.1,0,7.5-3.4,7.5-7.5s-3.4-7.5-7.5-7.5H308v-37.2h87.1c13.3,0,24-10.8,24-24V132.2    C419.1,118.9,408.4,108.1,395.1,108.1z M293,388.9H219v-37.2H293V388.9z M404.1,327.7c0,5-4.1,9-9,9h-94.6h-88.9h-94.6    c-5,0-9-4.1-9-9V132.2c0-5,4.1-9,9-9h278.2c5,0,9,4.1,9,9V327.7z"/>

<path d="M332.6,195.8H220.4l-10-29.2c-1-3-3.9-5.1-7.1-5.1h-23.8c-4.1,0-7.5,3.4-7.5,7.5s3.4,7.5,7.5,7.5h18.5l10,29.1l18.8,62.4    c0.7,2.2,2.3,3.9,4.3,4.8c-0.5,1.8-0.8,3.6-0.8,5.6c0,11,9,20,20,20s20-9,20-20c0-1.7-0.2-3.4-0.7-5h8.6c-0.4,1.6-0.7,3.3-0.7,5    c0,11,9,20,20,20s20-9,20-20c0-1.9-0.3-3.8-0.8-5.6c2-0.8,3.7-2.5,4.3-4.8l18.8-62.5c0.7-2.3,0.3-4.7-1.2-6.6    S334.9,195.8,332.6,195.8z M255.1,278.3c0,2.7-2.2,5-5,5c-2.7,0-5-2.2-5-5c0-2.7,2.2-5,5-5C252.9,273.3,255.1,275.6,255.1,278.3z     M297.4,283.3c-2.7,0-5-2.2-5-5c0-2.7,2.2-5,5-5c2.7,0,5,2.2,5,5C302.4,281,300.2,283.3,297.4,283.3z M308.2,258.3h-68.8    l-14.3-47.5h97.4L308.2,258.3z"/>

</g>

</g>

</svg>