<?xml version="1.0" ?>

<!DOCTYPE svg  PUBLIC '-//W3C//DTD SVG 1.1//EN'  'http://www.w3.org/Graphics/SVG/1.1/DTD/svg11.dtd'>


<svg fill="#000000" width="800px" height="800px" viewBox="0 0 512 512" enable-background="new 0 0 512 512" version="1.1" xml:space="preserve" xmlns="http://www.w3.org/2000/svg" xmlns:xlink="http://www.w3.org/1999/xlink">

<g id="Layer_1"/>

<g id="Layer_2">

<g>

<path d="M399.6,221.9c-1.4-2-3.7-3.2-6.1-3.2h-54.2V195c0-4.1-3.4-7.5-7.5-7.5H193.6c-5.2-24.9-27.3-43.7-53.7-43.7    c-30.3,0-54.9,24.6-54.9,54.9c0,27.4,20.2,50.2,46.5,54.2v80.6c0,4.1,3.4,7.5,7.5,7.5h25.1c4.1,15.6,18.2,27.1,35,27.1    s31-11.5,35-27.1h96.7c4.1,15.6,18.2,27.1,35,27.1s31-11.5,35-27.1h18.6c4.1,0,7.5-3.4,7.5-7.5v-70.7c0-1.6-0.5-3.1-1.4-4.3    L399.6,221.9z M412,265.3v1.2h-40.8v-32.8h18.4L412,265.3z M100,198.7c0-22,17.9-39.9,39.9-39.9s39.9,17.9,39.9,39.9    s-17.9,39.9-39.9,39.9S100,220.7,100,198.7z M146.6,253.2c25.9-3.2,46.2-24.4,48-50.6h129.7v123.6h-89.4    c-2.8-17.2-17.8-30.3-35.7-30.3s-32.9,13.1-35.7,30.3h-16.9V253.2z M199.2,353.1c-11.7,0-21.2-9.5-21.2-21.2s9.5-21.2,21.2-21.2    s21.2,9.5,21.2,21.2S210.8,353.1,199.2,353.1z M365.9,353.1c-11.7,0-21.2-9.5-21.2-21.2s9.5-21.2,21.2-21.2s21.2,9.5,21.2,21.2    S377.6,353.1,365.9,353.1z M401.6,326.1c-2.8-17.2-17.8-30.3-35.7-30.3c-10.5,0-20,4.5-26.6,11.7v-73.7h16.9V274    c0,4.1,3.4,7.5,7.5,7.5H412v44.5H401.6z"/>

<path d="M164.6,198.7c0-4.1-3.4-7.5-7.5-7.5h-34.4c-4.1,0-7.5,3.4-7.5,7.5s3.4,7.5,7.5,7.5h34.4    C161.3,206.2,164.6,202.9,164.6,198.7z"/>

</g>

</g>

</svg>