<?xml version="1.0" ?>

<!DOCTYPE svg  PUBLIC '-//W3C//DTD SVG 1.1//EN'  'http://www.w3.org/Graphics/SVG/1.1/DTD/svg11.dtd'>


<svg fill="#000000" width="800px" height="800px" viewBox="0 0 512 512" enable-background="new 0 0 512 512" version="1.1" xml:space="preserve" xmlns="http://www.w3.org/2000/svg" xmlns:xlink="http://www.w3.org/1999/xlink">

<g id="Layer_1"/>

<g id="Layer_2">

<g>

<path d="M369,285c-2,0-3.9,0.8-5.3,2.2c-1.4,1.4-2.2,3.3-2.2,5.3c0,2,0.8,3.9,2.2,5.3c1.4,1.4,3.3,2.2,5.3,2.2    c2,0,3.9-0.8,5.3-2.2c1.4-1.4,2.2-3.3,2.2-5.3c0-2-0.8-3.9-2.2-5.3C372.9,285.8,370.9,285,369,285z"/>

<path d="M412.1,259.1h-18.9v-78.8c0-4.1-3.4-7.5-7.5-7.5h-37.3v-51.9c0-4.1-3.4-7.5-7.5-7.5H240.2v-9.2c0-4.1-3.4-7.5-7.5-7.5    H124.4c-4.1,0-7.5,3.4-7.5,7.5v68.6H91.6c-4.1,0-7.5,3.4-7.5,7.5v227.6c0,4.1,3.4,7.5,7.5,7.5h294.2c4.1,0,7.5-3.4,7.5-7.5v-78.8    h18.9c8.7,0,15.8-7.1,15.8-15.8v-38.3C427.9,266.2,420.8,259.1,412.1,259.1z M333.4,128.4v44.4h-14.5V155c0-4.1-3.5-7.5-7.6-7.5    c-1.2,0-2.1-0.9-2.2-2c-0.4-3.8-3.6-6.8-7.5-6.8H271c-3.8,0-7.1,2.9-7.5,6.7c-0.1,1.2-1.1,2-2.2,2h-0.1c-4.1,0-7.5,3.4-7.5,7.5    v17.8h-13.5v-44.4H333.4z M268.7,172.8v-12c3.2-1.5,5.9-4,7.7-7.1h19.9c1.7,3.1,4.4,5.6,7.6,7.1v12H268.7z M131.9,111.6h93.2v9.2    v51.9h-14.5v-34.6c0-2-0.8-4-2.3-5.4c-1.4-1.4-3.4-2.2-5.4-2.1c-1.1,0-2-0.9-2.2-2c-0.4-3.8-3.6-6.7-7.5-6.7h-30.6    c-3.8,0-7.1,2.9-7.5,6.7c-0.1,1.1-1,2-2.2,2c-2-0.1-4,0.7-5.4,2.1c-1.5,1.4-2.3,3.4-2.3,5.4v34.6h-13.5V111.6z M160.4,172.8v-28.7    c3.2-1.5,5.9-4,7.7-7.1H188c1.7,3.1,4.4,5.6,7.6,7.1v28.7H160.4z M378.2,354.8h-17.2c-4.8,0-8.7,4-8.7,9c0,5,3.9,9,8.7,9h17.2    v27.7H99.1v-27.7h17.2c4.8,0,8.7-4,8.7-9c0-5-3.9-9-8.7-9H99.1V233.4h17.2c4.8,0,8.7-4,8.7-9c0-5-3.9-9-8.7-9H99.1v-27.7h25.4    h108.2h145.6v27.7h-17.2c-4.8,0-8.7,4-8.7,9c0,5,3.9,9,8.7,9h17.2v25.7h-26c-8.7,0-15.8,7.1-15.8,15.8v38.3    c0,8.7,7.1,15.8,15.8,15.8h26V354.8z M412.9,313.2c0,0.5-0.4,0.8-0.8,0.8h-26.3c0,0-0.1,0-0.1,0s-0.1,0-0.1,0h-33.4    c-0.5,0-0.8-0.4-0.8-0.8v-38.3c0-0.5,0.4-0.8,0.8-0.8h59.9c0.5,0,0.8,0.4,0.8,0.8V313.2z"/>

<path d="M186.2,215.4h-35c-4.8,0-8.7,4-8.7,9c0,5,3.9,9,8.7,9h35c4.8,0,8.7-4,8.7-9C194.9,219.5,191,215.4,186.2,215.4z"/>

<path d="M256.1,215.4h-35c-4.8,0-8.7,4-8.7,9c0,5,3.9,9,8.7,9h35c4.8,0,8.7-4,8.7-9C264.8,219.5,260.9,215.4,256.1,215.4z"/>

<path d="M326.1,215.4h-35c-4.8,0-8.7,4-8.7,9c0,5,3.9,9,8.7,9h35c4.8,0,8.7-4,8.7-9C334.8,219.5,330.9,215.4,326.1,215.4z"/>

<path d="M256.1,354.8h-35c-4.8,0-8.7,4-8.7,9c0,5,3.9,9,8.7,9h35c4.8,0,8.7-4,8.7-9C264.8,358.8,260.9,354.8,256.1,354.8z"/>

<path d="M326.1,354.8h-35c-4.8,0-8.7,4-8.7,9c0,5,3.9,9,8.7,9h35c4.8,0,8.7-4,8.7-9C334.8,358.8,330.9,354.8,326.1,354.8z"/>

<path d="M186.2,354.8h-35c-4.8,0-8.7,4-8.7,9c0,5,3.9,9,8.7,9h35c4.8,0,8.7-4,8.7-9C194.9,358.8,191,354.8,186.2,354.8z"/>

</g>

</g>

</svg>