<?xml version="1.0" ?>

<!DOCTYPE svg  PUBLIC '-//W3C//DTD SVG 1.1//EN'  'http://www.w3.org/Graphics/SVG/1.1/DTD/svg11.dtd'>


<svg fill="#000000" width="800px" height="800px" viewBox="0 0 512 512" enable-background="new 0 0 512 512" version="1.1" xml:space="preserve" xmlns="http://www.w3.org/2000/svg" xmlns:xlink="http://www.w3.org/1999/xlink">

<g id="Layer_1"/>

<g id="Layer_2">

<g>

<path d="M408.5,215.1c-1.2-4.4,0.4-11.3,1.9-17.9c2.3-9.9,4.9-21.1-0.4-30.1c-5.3-9.2-16.4-12.6-26.2-15.5c-6.4-2-13.1-4-16.2-7.1    c-3.1-3.1-5.2-9.8-7.1-16.2c-3-9.8-6.3-20.9-15.5-26.2c-3.6-2.1-7.8-3.1-12.7-3.1c-5.7,0-11.7,1.4-17.4,2.7    c-5.2,1.2-10.1,2.3-14.3,2.3c-1.4,0-2.6-0.1-3.7-0.4c-4.1-1.1-9.1-5.8-13.9-10.3c-7.5-7.1-16.1-15.1-27-15.1s-19.4,8-27,15.1    c-4.8,4.5-9.8,9.2-13.9,10.3c-1,0.3-2.3,0.4-3.7,0.4c-4.1,0-9.1-1.1-14.3-2.3c-5.8-1.3-11.7-2.7-17.4-2.7c-5,0-9.1,1-12.7,3.1    c-9.2,5.3-12.6,16.4-15.5,26.2c-2,6.4-4,13.1-7.1,16.2c-3.1,3.1-9.8,5.2-16.2,7.1c-9.8,3-20.9,6.3-26.2,15.5    c-5.3,9.1-2.7,20.3-0.4,30.1c1.5,6.6,3.1,13.5,1.9,17.9c-1.1,4.1-5.8,9.1-10.3,13.9c-7.1,7.5-15.1,16.1-15.1,27s8,19.4,15.1,27    c4.5,4.8,9.2,9.8,10.3,13.9c1.2,4.4-0.4,11.3-1.9,17.9c-2.3,9.9-4.9,21.1,0.4,30.1c5.3,9.2,16.4,12.6,26.2,15.5    c6.4,2,13.1,4,16.2,7.1c3.1,3.1,5.2,9.8,7.1,16.2c3,9.8,6.3,20.9,15.5,26.2c3.6,2.1,7.8,3.1,12.7,3.1c5.7,0,11.7-1.4,17.4-2.7    c5.2-1.2,10.1-2.3,14.3-2.3c1.4,0,2.6,0.1,3.7,0.4c4.1,1.1,9.1,5.8,13.9,10.3c7.5,7.1,16.1,15.1,27,15.1s19.4-8,27-15.1    c4.8-4.5,9.8-9.2,13.9-10.3c1-0.3,2.3-0.4,3.7-0.4c4.1,0,9.1,1.1,14.3,2.3c5.8,1.3,11.7,2.7,17.4,2.7c5,0,9.1-1,12.7-3.1    c9.2-5.3,12.6-16.4,15.5-26.2c2-6.4,4-13.1,7.1-16.2c3.1-3.1,9.8-5.2,16.2-7.1c9.8-3,20.9-6.3,26.2-15.5    c5.3-9.1,2.7-20.3,0.4-30.1c-1.5-6.6-3.1-13.5-1.9-17.9c1.1-4.1,5.8-9.1,10.3-13.9c7.1-7.5,15.1-16.1,15.1-27s-8-19.4-15.1-27    C414.3,224.2,409.6,219.2,408.5,215.1z M407.8,272.7c-5.8,6.2-11.7,12.5-13.8,20.3c-2.2,8.1-0.1,16.8,1.8,25.2    c1.7,7.5,3.5,15.3,1.2,19.3c-2.4,4.1-10.1,6.4-17.6,8.7c-8.2,2.5-16.7,5.1-22.5,10.9c-5.8,5.8-8.4,14.3-10.9,22.5    c-2.3,7.5-4.6,15.2-8.7,17.6c-1.3,0.7-3,1.1-5.2,1.1c-4,0-8.9-1.1-14.1-2.3c-5.8-1.3-11.8-2.7-17.6-2.7c-2.8,0-5.2,0.3-7.5,0.9    c-7.8,2.1-14.1,8-20.3,13.8c-5.8,5.4-11.8,11-16.7,11s-10.9-5.6-16.7-11c-6.2-5.8-12.5-11.7-20.3-13.8c-2.3-0.6-4.8-0.9-7.5-0.9    c-5.8,0-11.8,1.4-17.6,2.7c-5.2,1.2-10,2.3-14.1,2.3c-2.2,0-3.9-0.4-5.2-1.1c-4.1-2.4-6.4-10.1-8.7-17.6    c-2.5-8.2-5.1-16.7-10.9-22.5c-5.8-5.8-14.3-8.4-22.5-10.9c-7.5-2.3-15.2-4.6-17.6-8.7c-2.3-4-0.5-11.7,1.2-19.3    c1.9-8.4,4-17.1,1.8-25.2c-2.1-7.8-8-14.1-13.8-20.3c-5.4-5.8-11-11.8-11-16.7c0-5,5.6-10.9,11-16.7c5.8-6.2,11.7-12.5,13.8-20.3    c2.2-8.1,0.1-16.8-1.8-25.2c-1.7-7.5-3.5-15.3-1.2-19.3c2.4-4.1,10.1-6.4,17.6-8.7c8.2-2.5,16.7-5.1,22.5-10.9    c5.8-5.8,8.4-14.3,10.9-22.5c2.3-7.5,4.6-15.2,8.7-17.6c1.3-0.7,3-1.1,5.2-1.1c4,0,8.9,1.1,14.1,2.3c5.8,1.3,11.8,2.7,17.6,2.7    c2.8,0,5.2-0.3,7.5-0.9c7.8-2.1,14.1-8,20.3-13.8c5.8-5.4,11.8-11,16.7-11s10.9,5.6,16.7,11c6.2,5.8,12.5,11.7,20.3,13.8    c2.3,0.6,4.8,0.9,7.5,0.9c5.8,0,11.8-1.4,17.6-2.7c5.2-1.2,10-2.3,14.1-2.3c2.2,0,3.9,0.4,5.2,1.1c4.1,2.4,6.4,10.1,8.7,17.6    c2.5,8.2,5.1,16.7,10.9,22.5c5.8,5.8,14.3,8.4,22.5,10.9c7.5,2.3,15.2,4.6,17.6,8.7c2.3,4,0.5,11.7-1.2,19.3    c-1.9,8.4-4,17.1-1.8,25.2c2.1,7.8,8,14.1,13.8,20.3c5.4,5.8,11,11.8,11,16.7C418.9,261,413.3,266.9,407.8,272.7z"/>

<path d="M198.9,234.6c19.7,0,35.6-16,35.6-35.6c0-19.7-16-35.6-35.6-35.6c-19.7,0-35.6,16-35.6,35.6    C163.3,218.6,179.3,234.6,198.9,234.6z M198.9,178.3c11.4,0,20.6,9.3,20.6,20.6c0,11.4-9.3,20.6-20.6,20.6s-20.6-9.3-20.6-20.6    C178.3,187.6,187.6,178.3,198.9,178.3z"/>

<path d="M313.1,277.4c-19.7,0-35.6,16-35.6,35.6c0,19.7,16,35.6,35.6,35.6c19.7,0,35.6-16,35.6-35.6    C348.7,293.4,332.7,277.4,313.1,277.4z M313.1,333.7c-11.4,0-20.6-9.3-20.6-20.6s9.3-20.6,20.6-20.6s20.6,9.3,20.6,20.6    S324.4,333.7,313.1,333.7z"/>

<path d="M339,173c-2.9-2.9-7.7-2.9-10.6,0L173,328.3c-2.9,2.9-2.9,7.7,0,10.6c1.5,1.5,3.4,2.2,5.3,2.2s3.8-0.7,5.3-2.2L339,183.7    C341.9,180.7,341.9,176,339,173z"/>

</g>

</g>

</svg>