<?xml version="1.0" ?>

<!DOCTYPE svg  PUBLIC '-//W3C//DTD SVG 1.1//EN'  'http://www.w3.org/Graphics/SVG/1.1/DTD/svg11.dtd'>


<svg fill="#000000" width="800px" height="800px" viewBox="0 0 512 512" enable-background="new 0 0 512 512" version="1.1" xml:space="preserve" xmlns="http://www.w3.org/2000/svg" xmlns:xlink="http://www.w3.org/1999/xlink">

<g id="Layer_1"/>

<g id="Layer_2">

<g>

<path d="M371.5,148c-10.4-20-20-44.2-18.4-51.3c0.5-2.2,0-4.6-1.4-6.4c-1.4-1.8-3.6-2.8-5.9-2.8H166.2c-2.3,0-4.5,1-5.9,2.8    c-1.4,1.8-1.9,4.1-1.4,6.4c1.7,7.1-7.9,31.3-18.4,51.3c-11.6,1.1-20.8,10.9-20.8,22.8v170.4c0,11.9,9.1,21.7,20.8,22.8    c10.4,20,20,44.2,18.4,51.3c-0.5,2.2,0,4.6,1.4,6.4c1.4,1.8,3.6,2.8,5.9,2.8h179.6c2.3,0,4.5-1,5.9-2.8c1.4-1.8,1.9-4.1,1.4-6.4    c-1.7-7.1,7.9-31.3,18.4-51.3c11.6-1.1,20.8-10.9,20.8-22.8V170.8C392.3,158.9,383.1,149.1,371.5,148z M173.7,102.5h164.6    c1.7,13.7,10.2,32.9,16.3,45.4H157.4C163.5,135.5,172,116.3,173.7,102.5z M338.3,409.5H173.7c-1.7-13.7-10.2-32.9-16.3-45.4h197.2    C348.5,376.5,340,395.7,338.3,409.5z M377.3,341.2c0,4.3-3.5,7.9-7.9,7.9h-2.5c0,0,0,0,0,0H145.1c0,0,0,0,0,0h-2.4    c-4.3,0-7.9-3.5-7.9-7.9V170.8c0-4.3,3.5-7.9,7.9-7.9h2.4c0,0,0,0,0.1,0h221.8c0,0,0,0,0,0c0,0,0,0,0,0h2.4c4.3,0,7.9,3.5,7.9,7.9    V341.2z"/>

<path d="M344,288.2H168c-4.1,0-7.5,3.4-7.5,7.5v36.5c0,4.1,3.4,7.5,7.5,7.5h176c4.1,0,7.5-3.4,7.5-7.5v-36.5    C351.5,291.6,348.1,288.2,344,288.2z M175.5,303.2h23.6v21.5h-23.6V303.2z M336.5,324.7H214.1v-21.5h122.4V324.7z"/>

<path d="M256,232.7c4.3,0,7.1-3.1,7.1-7.2c-0.1-4.3-2.8-7.3-7-7.3s-7.1,3-7.1,7.3C248.9,229.6,251.9,232.7,256,232.7z"/>

<path d="M256,258.2c4.3,0,7.1-3.1,7.1-7.2c-0.1-4.3-2.8-7.3-7-7.3s-7.1,3.1-7.1,7.3C248.9,255.1,251.9,258.2,256,258.2z"/>

<path d="M210.8,239.6c4.7,0,8-1.3,10.3-3.7l0.2,0.1c-0.9,3.9-3.2,7.2-6.5,9.5c-2.8,1.9-6.5,2.9-10.1,3.2c-2.4,0.2-3.7,0.2-5.2,0    v9.4c1.3,0.1,3.4,0.2,5.5,0c8-0.3,14.7-2.8,19.6-7.2c5.6-5.1,9-12.9,9-23.6c0-12-6.2-22.1-19.4-22.1c-11.3,0-19.3,8.4-19.3,18.5    C194.7,233.5,202.1,239.6,210.8,239.6z M213.8,213.9c5.5,0,7.5,5.4,7.5,10.8c0,1.5-0.2,2.3-0.6,3c-1.1,1.8-3.4,3.4-6.6,3.4    c-4.9,0-7.3-3.8-7.3-8.2C206.7,217.5,209.7,213.9,213.8,213.9z"/>

<path d="M299,257.3h11.4v-12.2h6.2v-9h-6.2V206h-14.7l-19.4,31.3v7.8H299V257.3z M287.4,236.1v-0.2l6.9-11.2    c1.7-3.2,3.1-6.2,4.7-9.6h0.3c-0.2,3.3-0.4,6.5-0.4,9.6v11.4H287.4z"/>

<path d="M338.6,247.3l4.7-3.9c7.4-6.6,13.7-13.5,13.7-22.1c0-9.3-6.4-16.1-18-16.1c-6.9,0-12.9,2.4-16.8,5.3l3.4,8.6    c2.7-2.1,6.6-4.3,11-4.3c5.9,0,8.4,3.3,8.4,7.5c-0.2,6-5.6,11.8-16.8,21.8l-6.6,6v7.3h36.4v-9.9h-19.3V247.3z"/>

</g>

</g>

</svg>