<?xml version="1.0" ?>
<svg fill="#000000" width="800px" height="800px" viewBox="0 0 100 100" data-name="Layer 1" id="Layer_1" xmlns="http://www.w3.org/2000/svg"><path d="M69.11,81H22a1.49,1.49,0,0,1-1.14-.53,1.51,1.51,0,0,1-.34-1.21L29.54,24A1.49,1.49,0,0,1,31,22.74H90.55A1.5,1.5,0,0,1,92,24.48L85.19,66.17C83.79,74.75,77,81,69.11,81ZM23.73,78H69.11c6.44,0,12-5.16,13.12-12.28l6.55-39.95H32.29Z"/><path d="M63.78,45a1.51,1.51,0,0,1-1.51-1.5,1.49,1.49,0,0,1,.07-.43l2.94-17.36H54.46l-3,17.76v0A1.47,1.47,0,0,1,50,45a1.61,1.61,0,0,1-1.18-.53,1.52,1.52,0,0,1-.35-1.22L51.71,24a1.5,1.5,0,0,1,1.48-1.25H67.06a1.49,1.49,0,0,1,1.48,1.75L65.26,43.77A1.49,1.49,0,0,1,63.78,45Z"/><path d="M63.76,45a1.49,1.49,0,0,1-1.28-.72L57,35.3a1.5,1.5,0,1,1,2.56-1.56l5.49,9a1.5,1.5,0,0,1-.5,2.06A1.46,1.46,0,0,1,63.76,45Z"/><path d="M50,45a1.45,1.45,0,0,1-1-.4,1.5,1.5,0,0,1-.09-2.12l8.31-9a1.5,1.5,0,0,1,2.21,2l-8.31,9A1.51,1.51,0,0,1,50,45Z"/><path d="M36.35,34.52H15.64a1.5,1.5,0,0,1,0-3H36.35a1.5,1.5,0,0,1,0,3Z"/><path d="M19.41,41H5.6a1.5,1.5,0,0,1,0-3H19.41a1.5,1.5,0,1,1,0,3Z"/><path d="M30.91,50.49H18.36a1.5,1.5,0,1,1,0-3H30.91a1.5,1.5,0,0,1,0,3Z"/><path d="M18.71,65.49H9.5a1.5,1.5,0,0,1,0-3h9.21a1.5,1.5,0,0,1,0,3Z"/><path d="M40.75,65.49H23.8a1.5,1.5,0,0,1,0-3h17a1.5,1.5,0,1,1,0,3Z"/></svg>