<?xml version="1.0" ?>
<svg fill="#000000" width="800px" height="800px" viewBox="0 0 100 100" data-name="Layer 1" id="Layer_1" xmlns="http://www.w3.org/2000/svg"><path d="M89.52,93.21H13.63a1.5,1.5,0,0,1-1.5-1.5V40.58a1.5,1.5,0,0,1,1.5-1.5h18.8a1.5,1.5,0,0,1,0,3H15.13V90.21H88V42.08H70.32a1.5,1.5,0,0,1,0-3h19.2a1.5,1.5,0,0,1,1.5,1.5V91.71A1.5,1.5,0,0,1,89.52,93.21Z"/><path d="M13.64,93.21a1.5,1.5,0,0,1-1.22-2.38L38.63,54.32a1.5,1.5,0,0,1,2.44,1.75L14.86,92.58A1.52,1.52,0,0,1,13.64,93.21Z"/><path d="M89.53,93.21a1.49,1.49,0,0,1-1.21-.61L61.31,56a1.5,1.5,0,1,1,2.41-1.78l27,36.64a1.51,1.51,0,0,1-.32,2.1A1.55,1.55,0,0,1,89.53,93.21Z"/><path d="M51.28,61.23a1.51,1.51,0,0,1-1.38-.92,1.49,1.49,0,0,1,.81-2L89,42.47a1.5,1.5,0,0,1,1.15,2.77L51.86,61.12A1.66,1.66,0,0,1,51.28,61.23Z"/><path d="M51.28,61.23a1.52,1.52,0,0,1-.55-.1L13.08,46.19a1.5,1.5,0,0,1,1.11-2.79L51.84,58.34a1.49,1.49,0,0,1,.84,1.94A1.51,1.51,0,0,1,51.28,61.23Z"/><path d="M51.39,53.16a1.5,1.5,0,0,1-1.5-1.5V25.11a1.51,1.51,0,0,1,1-1.42l18.92-6.46a1.5,1.5,0,0,1,1.59.41,1.47,1.47,0,0,1,.4,1V45.21a1.5,1.5,0,0,1-1,1.42L51.88,53.08A1.62,1.62,0,0,1,51.39,53.16Zm1.5-27V49.56l15.93-5.42V20.75Z"/><path d="M51.39,53.11a1.61,1.61,0,0,1-.48-.08L32,46.58a1.5,1.5,0,0,1-1-1.42V18.61a1.5,1.5,0,0,1,1.5-1.5,1.62,1.62,0,0,1,.49.08l5.13,1.75a1.5,1.5,0,1,1-1,2.84L33.94,20.7V44.09l16,5.42V26.13l-4.57-1.55a1.5,1.5,0,1,1,1-2.84l5.59,1.9a1.5,1.5,0,0,1,1,1.42V51.61a1.51,1.51,0,0,1-.62,1.22A1.56,1.56,0,0,1,51.39,53.11Z"/><path d="M45.28,24.56l-3.45-1.17-.07,0-4.67-1.59a1.5,1.5,0,0,1,1-2.84l4.6,1.57.07,0,3.54,1.2-.47,1.43Z"/><path d="M45.32,34l-8.22-2.8a1.49,1.49,0,0,1-.94-1.9,1.51,1.51,0,0,1,1.9-.94l8.21,2.8Z"/><path d="M32.45,20.11a1.5,1.5,0,0,1-.62-2.87l9.25-4.18a1.5,1.5,0,1,1,1.23,2.73L33.06,20A1.49,1.49,0,0,1,32.45,20.11Z"/><path d="M42.25,23.45a1.5,1.5,0,0,1-1.5-1.5,1.48,1.48,0,0,1,1-1.4l17.67-8a1.5,1.5,0,1,1,1.23,2.73l-17.74,8A1.68,1.68,0,0,1,42.25,23.45Z"/><path d="M41.7,15.92a1.5,1.5,0,0,1-.62-2.86l9.77-4.43a1.5,1.5,0,1,1,1.24,2.73l-9.78,4.43A1.49,1.49,0,0,1,41.7,15.92Z"/><path d="M57.25,14.15a1.5,1.5,0,0,1-.62-.13l-5.78-2.66a1.49,1.49,0,0,1-.74-2,1.51,1.51,0,0,1,2-.74l5.78,2.66a1.5,1.5,0,0,1-.63,2.86Z"/><path d="M70.33,20.16A1.56,1.56,0,0,1,69.7,20L56.63,14a1.5,1.5,0,1,1,1.25-2.73L71,17.3a1.48,1.48,0,0,1,.74,2A1.51,1.51,0,0,1,70.33,20.16Z"/></svg>