<?xml version="1.0" ?>
<svg fill="#000000" width="800px" height="800px" viewBox="0 0 100 100" data-name="Layer 1" id="Layer_1" xmlns="http://www.w3.org/2000/svg"><path d="M71.11,81H12.93a1.5,1.5,0,0,1-1.5-1.5V23a1.5,1.5,0,0,1,1.5-1.5H80.71a1.5,1.5,0,0,1,1.5,1.5V51.23a1.5,1.5,0,1,1-3,0V24.46H14.43V78H71.11a1.5,1.5,0,0,1,0,3Z"/><path d="M54.54,44.2A1.51,1.51,0,0,1,53,42.7c0-.07,0-.13,0-.19V24.45H40.25v18a1.36,1.36,0,0,1,0,.29,1.47,1.47,0,0,1-1.47,1.5,1.56,1.56,0,0,1-1.56-1.5V23a1.5,1.5,0,0,1,1.5-1.5H54.54A1.5,1.5,0,0,1,56,23V42.7A1.5,1.5,0,0,1,54.54,44.2Z"/><path d="M54.52,44.2a1.48,1.48,0,0,1-1.17-.56l-7.87-9.87a1.5,1.5,0,1,1,2.34-1.87l7.87,9.86a1.5,1.5,0,0,1-1.17,2.44Z"/><path d="M38.81,44.2a1.56,1.56,0,0,1-.93-.32,1.5,1.5,0,0,1-.24-2.11l7.87-10a1.5,1.5,0,1,1,2.35,1.86L40,43.63A1.53,1.53,0,0,1,38.81,44.2Z"/><path d="M35.67,74.81H19.38a1.5,1.5,0,1,1,0-3H35.67a1.5,1.5,0,0,1,0,3Z"/><path d="M90.76,83.68a1.46,1.46,0,0,1-.7-.18l-9.35-4.92L71.35,83.5a1.49,1.49,0,0,1-2.17-1.58L71,71.51,63.4,64.13a1.5,1.5,0,0,1,.83-2.56l10.46-1.52,4.67-9.48a1.51,1.51,0,0,1,1.35-.83,1.49,1.49,0,0,1,1.34.83l4.68,9.48,10.46,1.52A1.5,1.5,0,0,1,98,64.13l-7.57,7.38,1.79,10.41a1.52,1.52,0,0,1-.6,1.47A1.5,1.5,0,0,1,90.76,83.68ZM80.71,75.39a1.57,1.57,0,0,1,.7.17l7.36,3.87-1.41-8.19a1.52,1.52,0,0,1,.43-1.33l6-5.81-8.23-1.19a1.53,1.53,0,0,1-1.13-.82l-3.68-7.46L77,62.09a1.53,1.53,0,0,1-1.13.82L67.67,64.1l6,5.81a1.46,1.46,0,0,1,.43,1.33l-1.4,8.19L80,75.56A1.57,1.57,0,0,1,80.71,75.39Z"/></svg>