<?xml version="1.0" ?>
<svg fill="#000000" width="800px" height="800px" viewBox="0 0 500 500" id="Layer_1" version="1.1" xml:space="preserve" xmlns="http://www.w3.org/2000/svg" xmlns:xlink="http://www.w3.org/1999/xlink"><path d="M193,182c-22.6,0-41-18.4-41-41s18.4-41,41-41s41,18.4,41,41S215.6,182,193,182z M193,105c-19.9,0-36,16.1-36,36  s16.1,36,36,36s36-16.1,36-36S212.9,105,193,105z"/><circle cx="307" cy="141" r="38.5"/><circle cx="193" cy="250" r="38.5"/><circle cx="307" cy="250" r="38.5"/><path d="M193,400c-22.6,0-41-18.4-41-41s18.4-41,41-41s41,18.4,41,41S215.6,400,193,400z M193,323c-19.9,0-36,16.1-36,36  s16.1,36,36,36s36-16.1,36-36S212.9,323,193,323z"/><circle cx="307" cy="359" r="38.5"/></svg>