<?xml version="1.0" encoding="UTF-8" standalone="no"?>

<!DOCTYPE svg PUBLIC "-//W3C//DTD SVG 1.1//EN" "http://www.w3.org/Graphics/SVG/1.1/DTD/svg11.dtd">


<svg width="800px" height="800px" viewBox="0 -1.5 2253 2253" version="1.1" xmlns="http://www.w3.org/2000/svg" xmlns:xlink="http://www.w3.org/1999/xlink" xml:space="preserve" xmlns:serif="http://www.serif.com/" style="fill-rule:evenodd;clip-rule:evenodd;stroke-linecap:round;stroke-linejoin:round;stroke-miterlimit:1.5;">

<rect id="normalized_stacked_bar_chart" x="1.997" y="0" width="2250" height="2250" style="fill:none;"/>

<rect x="493.68" y="895.833" width="312.5" height="958.333" style="fill:#1c4e80;stroke:#202020;stroke-width:66.67px;"/>

<rect x="493.68" y="708.333" width="312.5" height="187.5" style="fill:#ea6a47;stroke:#202020;stroke-width:66.67px;"/>

<rect x="493.68" y="401.042" width="312.5" height="307.292" style="fill:#eee;stroke:#202020;stroke-width:66.67px;"/>

<rect x="1535.35" y="1083.33" width="312.5" height="770.833" style="fill:#1c4e80;stroke:#202020;stroke-width:66.67px;"/>

<rect x="1014.51" y="1229.17" width="312.5" height="625" style="fill:#1c4e80;stroke:#202020;stroke-width:66.67px;"/>

<rect x="1535.35" y="854.167" width="312.5" height="229.167" style="fill:#ea6a47;stroke:#202020;stroke-width:66.67px;"/>

<rect x="1014.51" y="914.583" width="312.5" height="314.583" style="fill:#ea6a47;stroke:#202020;stroke-width:66.67px;"/>

<rect x="1014.51" y="395.833" width="312.5" height="518.75" style="fill:#eee;stroke:#202020;stroke-width:66.67px;"/>

<rect x="1535.35" y="395.833" width="312.5" height="458.333" style="fill:#eee;stroke:#202020;stroke-width:66.67px;"/>

<g>

<path d="M385.346,387.5l-100,-200l-100,200l200,-0Z" style="fill:#202020;"/>

<path d="M1960.35,1962.5l200,100l-200,100l0,-200Z" style="fill:#202020;"/>

<path d="M285.346,347.5l0,1715l1715,-0" style="fill:none;stroke:#202020;stroke-width:66.67px;"/>

</g>

</svg>