<?xml version="1.0" encoding="utf-8"?>
<svg width="800px" height="800px" viewBox="0 0 64 64" fill="none" xmlns="http://www.w3.org/2000/svg">
<path fill-rule="evenodd" clip-rule="evenodd" d="M38.2653 15.3929L15.8615 25.0216L24.2661 45.2543L46.2684 35.6506L38.2653 15.3929Z" fill="#2A2941"/>
<path d="M19.7502 52.232L24.1406 43.7788L26.2229 45.3544L26.6996 35.0754L18.3703 41.0027L20.8039 41.9531L16.1375 50.1062L19.7502 52.232Z" fill="#2A2941"/>
<path d="M26.6996 35.0755L26.2229 45.3544L24.1406 43.7788L19.7251 52.232L16.1375 50.1062L20.8039 41.9531L18.3452 41.0027L26.6996 35.0755ZM27.8035 33.0747L26.1226 34.2752L17.7933 40.2024L16.288 41.2778L18.0191 41.9531L19.3739 42.4783L15.2845 49.606L14.8078 50.4563L15.6608 50.9565L19.2484 53.0823L20.1516 53.6325L20.6534 52.6822L24.5169 45.2793L25.6459 46.1297L27.1763 47.2801L27.2766 45.3794L27.7533 35.1005L27.8035 33.0747Z" fill="#2A2941"/>
<path fill-rule="evenodd" clip-rule="evenodd" d="M48.4511 31.8742L40.1469 11.5415L17.7933 21.1702L26.1979 41.4279L48.4511 31.8742Z" fill="white"/>
<path d="M25.7714 42.4033L16.8149 20.77L40.5483 10.5411L49.4295 32.2494L25.7714 42.4033ZM18.7718 21.5703L26.5993 40.4275L47.4727 31.4741L39.7204 12.5419L18.7718 21.5703Z" fill="#2A2941"/>
<path d="M41.9679 16.0395L19.5499 25.4126L20.1325 26.7962L42.5504 17.4231L41.9679 16.0395Z" fill="#2A2941"/>
<path fill-rule="evenodd" clip-rule="evenodd" d="M20.8792 24.1963L22.5601 23.4711L21.9579 22.0455L20.277 22.7458L20.8792 24.1963Z" fill="#2A2941"/>
<path fill-rule="evenodd" clip-rule="evenodd" d="M23.8145 22.9959L25.4954 22.2957L24.8933 20.8701L23.1873 21.5454L23.8145 22.9959Z" fill="#2A2941"/>
<path fill-rule="evenodd" clip-rule="evenodd" d="M26.6996 21.7955L28.3805 21.0702L27.7784 19.6447L26.0975 20.3449L26.6996 21.7955Z" fill="#2A2941"/>
<path fill-rule="evenodd" clip-rule="evenodd" d="M35.4303 23.9962C35.4303 23.9962 38.4158 22.8457 39.4193 25.2967C40.3727 27.5975 37.4875 28.898 37.4875 28.898C37.2868 27.9477 36.4589 25.1966 35.4303 23.9962Z" fill="#A694FE"/>
<path fill-rule="evenodd" clip-rule="evenodd" d="M35.3049 23.6961L34.9034 23.8462L35.1794 24.1713C36.1579 25.3467 36.9607 28.0227 37.1865 28.9231L37.2868 29.2982L37.6381 29.1482C38.1649 28.8981 38.6416 28.5479 39.043 28.1478C39.4695 27.7727 39.7455 27.2975 39.8709 26.7473C39.9963 26.2221 39.9462 25.6468 39.7204 25.1467C39.5197 24.6215 39.1684 24.1713 38.6918 23.8462C38.2151 23.521 37.6381 23.371 37.061 23.396C36.4589 23.396 35.8819 23.496 35.3049 23.6961ZM35.9571 24.1463C36.3084 24.0462 36.6847 24.0212 37.061 24.0212C37.5126 23.9962 37.9642 24.1213 38.3405 24.3714C38.7168 24.6215 38.9928 24.9716 39.1434 25.3968C39.319 25.7969 39.3441 26.2221 39.2437 26.6472C39.1433 27.0724 38.9176 27.4475 38.5914 27.7226C38.3405 27.9727 38.0395 28.2228 37.7133 28.3979C37.337 26.8973 36.7349 25.4718 35.9571 24.1463Z" fill="#2A2941"/>
<path fill-rule="evenodd" clip-rule="evenodd" d="M29.5597 31.274C28.1547 30.5487 27.6028 28.773 27.653 27.1224C30.7388 26.122 33.4985 24.6715 35.631 22.1455C37.8388 24.1213 38.767 26.2471 38.8423 29.7734C35.0289 29.2982 32.1437 30.1736 29.5597 31.274Z" fill="#32EDBB"/>
<path fill-rule="evenodd" clip-rule="evenodd" d="M29.4091 31.5491L29.5346 31.6241L29.6851 31.5741C32.219 30.4737 35.054 29.6233 38.8172 30.0985L39.1935 30.1485V29.7984C39.1183 26.147 38.1649 23.9712 35.8819 21.9454L35.631 21.7203L35.4052 21.9704C33.3229 24.4464 30.6134 25.8719 27.5777 26.8473L27.377 26.9223V27.1224C27.3017 28.8981 27.9289 30.7738 29.4091 31.5491ZM29.5848 30.9238C28.4307 30.2486 27.9791 28.773 27.9791 27.3225C30.9395 26.3221 33.5738 24.9216 35.6561 22.5707C37.5628 24.3463 38.3907 26.3221 38.5162 29.4233C34.8784 29.0231 32.0936 29.8734 29.5848 30.9238Z" fill="#2A2941"/>
<path fill-rule="evenodd" clip-rule="evenodd" d="M27.7784 28.5979C27.7784 28.5979 26.2229 29.1481 26.7247 30.2735C27.2265 31.374 28.7067 30.5987 28.7067 30.5987C28.23 29.9984 27.9289 29.3232 27.7784 28.5979Z" fill="#4C5EFD"/>
<path fill-rule="evenodd" clip-rule="evenodd" d="M28.0795 28.5229L28.0042 28.1727L27.653 28.2978C27.3519 28.4228 27.0759 28.5729 26.8501 28.773C26.5992 28.948 26.4236 29.1981 26.3484 29.4982C26.2731 29.7983 26.2982 30.0985 26.4236 30.3736C26.524 30.5987 26.6745 30.7987 26.9003 30.9238C27.1261 31.0488 27.3519 31.1239 27.6028 31.1239C28.0293 31.1239 28.4558 31.0238 28.8321 30.8487L29.1582 30.6737L28.9325 30.3736C28.506 29.8484 28.23 29.1981 28.0795 28.5229ZM27.5526 29.0481C27.7031 29.5483 27.9038 29.9984 28.1798 30.4486C28.0544 30.4736 27.954 30.5236 27.8286 30.5236C27.678 30.5736 27.5024 30.5486 27.3519 30.4736C27.2014 30.3986 27.0759 30.2985 27.0007 30.1485C26.9254 29.9984 26.9254 29.8234 26.9756 29.6733C27.0257 29.5232 27.1261 29.3732 27.2515 29.2731C27.3519 29.1731 27.4522 29.1231 27.5526 29.0481Z" fill="#2A2941"/>
<path fill-rule="evenodd" clip-rule="evenodd" d="M31.09 30.6988C31.8678 32.0493 32.3695 33.5499 32.5702 35.1005L35.3048 33.9C34.502 32.6996 33.8497 31.3741 33.3981 29.9985C32.5953 30.1736 31.8176 30.4237 31.09 30.6988Z" fill="#A694FE"/>
<path fill-rule="evenodd" clip-rule="evenodd" d="M30.9646 30.4236L30.6384 30.5487L30.789 30.8488C31.5416 32.1743 32.0434 33.6248 32.2441 35.1254L32.2943 35.5756L35.8066 34.05L35.6059 33.7499C34.8031 32.5494 34.1759 31.2739 33.7243 29.9234L33.6239 29.6483L33.348 29.6983C32.5451 29.8734 31.7423 30.1235 30.9646 30.4236ZM31.5416 30.8488C32.0935 30.6487 32.6455 30.4736 33.2225 30.3486C33.649 31.549 34.201 32.6745 34.8783 33.7499L32.8462 34.6252C32.5953 33.2997 32.1688 32.0492 31.5416 30.8488Z" fill="#2A2941"/>
<path fill-rule="evenodd" clip-rule="evenodd" d="M28.4307 26.7973C28.4808 28.3479 29.083 29.8234 30.1367 30.9989C30.1868 31.0489 30.2872 31.0989 30.3625 31.0989C30.4377 31.0989 30.5381 31.0739 30.5882 30.9989C30.6384 30.9239 30.6886 30.8738 30.6886 30.7738C30.6886 30.6988 30.6635 30.6237 30.5882 30.5487C29.6349 29.4983 29.108 28.1728 29.0579 26.7973C29.0579 26.7223 29.0328 26.6472 28.9575 26.5722C28.9073 26.5222 28.807 26.4722 28.7317 26.4722C28.6565 26.4722 28.5561 26.4972 28.5059 26.5722C28.4558 26.6472 28.4307 26.7223 28.4307 26.7973Z" fill="#2A2941"/>
<path d="M21.5063 52.232L25.9218 43.7788L27.9791 45.3544L28.4557 35.0754L20.1516 41.0027L22.5851 41.9531L17.9187 50.1062L21.5063 52.232Z" fill="#FEC34E"/>
<path d="M28.4558 35.0755L27.9791 45.3544L25.8968 43.7788L21.4813 52.232L17.9187 50.1062L22.5851 41.9531L20.1265 41.0027L28.4558 35.0755ZM29.5597 33.0747L27.8787 34.2752L19.5495 40.2024L18.0442 41.2778L19.7753 41.9531L21.13 42.4783L17.0406 49.606L16.564 50.4563L17.417 50.9565L21.0046 53.0823L21.9078 53.6325L22.4095 52.6822L26.2731 45.2793L27.4021 46.1297L28.9324 47.2801L29.0328 45.3794L29.5095 35.1005L29.5597 33.0747Z" fill="#2A2941"/>
</svg>