<?xml version="1.0" encoding="utf-8"?>
<svg width="800px" height="800px" viewBox="0 0 64 64" fill="none" xmlns="http://www.w3.org/2000/svg">
<path fill-rule="evenodd" clip-rule="evenodd" d="M38.5659 18.478L16.0869 28.1317L24.5165 48.4644L46.5439 38.8108L38.5659 18.478Z" fill="#2A2941"/>
<path fill-rule="evenodd" clip-rule="evenodd" d="M47.5976 39.2359L39.0175 17.4526L15.0582 27.7315L24.09 49.5148L47.5976 39.2359ZM38.1394 19.4784L45.5906 38.3606L24.943 47.389L17.1155 28.5318L38.1645 19.5784V19.4784H38.1394Z" fill="#2A2941"/>
<path fill-rule="evenodd" clip-rule="evenodd" d="M36.2327 35.5095C38.4404 39.1859 42.0531 41.5618 44.8881 41.3618C47.3217 41.1867 48.6513 37.3352 46.8199 35.5846C45.0135 33.8339 40.7987 34.059 36.2327 35.5095Z" fill="#2A2941"/>
<path fill-rule="evenodd" clip-rule="evenodd" d="M35.6807 33.7588L33.473 34.4841L34.7023 36.4849C37.3616 40.8115 41.7019 43.4625 45.0637 43.2374C46.0421 43.1374 46.9453 42.7373 47.698 42.087C48.4506 41.4618 48.9775 40.6114 49.2534 39.6611C49.6047 38.7357 49.6799 37.7604 49.4792 36.81C49.2785 35.8596 48.8269 34.9843 48.1496 34.259C46.9453 33.2336 45.4651 32.6584 43.8846 32.6084C41.1249 32.4583 38.3401 32.8335 35.7058 33.7088L35.6807 33.7588ZM36.2327 35.5095C38.4404 39.1859 42.0531 41.5618 44.8881 41.3617C47.3216 41.1867 48.6513 37.3352 46.8199 35.5845C45.0135 33.8339 40.7987 34.059 36.2327 35.5095Z" fill="#2A2941"/>
<path fill-rule="evenodd" clip-rule="evenodd" d="M43.8846 36.5849C44.0351 36.6099 44.1856 36.6849 44.3111 36.7849C44.4365 36.885 44.5369 36.985 44.6121 37.1101C44.6874 37.2351 44.7376 37.3852 44.7627 37.5352C44.7877 37.6853 44.7877 37.8353 44.7376 37.9854C44.6874 38.2105 44.5619 38.4106 44.3863 38.5856C44.2107 38.7357 44.01 38.8357 43.7591 38.8857C43.5333 38.9107 43.2824 38.8857 43.0817 38.7857C42.881 38.6857 42.6803 38.5356 42.58 38.3355C42.4545 38.1354 42.4044 37.9104 42.4044 37.6853C42.4044 37.4602 42.5047 37.2351 42.6302 37.035C42.7807 36.86 42.9563 36.7099 43.1821 36.6349C43.433 36.5348 43.6588 36.5348 43.8846 36.5849Z" fill="#2A2941"/>
<path d="M43.0566 37.4353L35.9567 35.3845" stroke="#2A2941" stroke-width="1.1443" stroke-miterlimit="1.32" stroke-linecap="square"/>
<path fill-rule="evenodd" clip-rule="evenodd" d="M16.8896 26.3311L14.3808 27.3564L15.4094 29.8824L17.9182 28.857L16.8896 26.3311Z" fill="#2A2941"/>
<path fill-rule="evenodd" clip-rule="evenodd" d="M18.7462 29.1822L17.2409 25.5308L13.5529 27.0313L15.0582 30.7077L18.7462 29.1822ZM16.8896 26.3311L14.3808 27.3565L15.4094 29.8824L17.9183 28.857L16.8896 26.3311Z" fill="#2A2941"/>
<path fill-rule="evenodd" clip-rule="evenodd" d="M25.2942 46.6138L22.7603 47.6392L23.7889 50.1651L26.2978 49.1397L25.2942 46.6138Z" fill="#2A2941"/>
<path fill-rule="evenodd" clip-rule="evenodd" d="M27.1256 49.4398L25.6203 45.7634L22.0076 47.264L23.5129 50.9404L27.1256 49.4398ZM25.2942 46.6137L22.7603 47.6391L23.7889 50.1401L26.2977 49.1147L25.2942 46.6137Z" fill="#2A2941"/>
<path fill-rule="evenodd" clip-rule="evenodd" d="M39.2433 16.6775L36.7344 17.7029L37.763 20.2038L40.297 19.1784L39.2433 16.6775Z" fill="#A694FE"/>
<path fill-rule="evenodd" clip-rule="evenodd" d="M41.0998 19.5785L39.6195 15.8521L35.9316 17.3776L37.4369 21.054L41.0998 19.5785ZM39.2432 16.7274L36.7344 17.7528L37.763 20.2537L40.2969 19.2283L39.2432 16.7274Z" fill="#2A2941"/>
<path fill-rule="evenodd" clip-rule="evenodd" d="M39.3938 15.677L16.9147 25.3307L25.2942 45.6634L47.3718 36.0097L39.3436 15.677H39.3938Z" fill="white" stroke="#2A2941" stroke-width="2.8507" stroke-miterlimit="10" stroke-linecap="square"/>
<path fill-rule="evenodd" clip-rule="evenodd" d="M28.2295 27.4815L34.1754 24.9055L39.9457 28.682L35.2542 36.9351L26.7744 33.7089L28.2295 27.4815Z" fill="#32EDBB"/>
<path fill-rule="evenodd" clip-rule="evenodd" d="M34.2507 24.0303L27.5521 26.9314L25.8461 34.1841L35.5804 37.8855L40.9743 28.4319L34.2507 24.0303ZM28.8818 28.0318L34.1002 25.7559L38.9171 28.9071L34.903 35.9598L27.6776 33.2338L28.8818 28.0318Z" fill="#2A2941"/>
<path fill-rule="evenodd" clip-rule="evenodd" d="M37.0605 32.7584C39.2683 36.4348 42.8559 38.8107 45.716 38.6106C48.1495 38.4356 49.4792 34.5841 47.6227 32.8334C45.8163 31.0828 41.6266 31.2578 37.0605 32.7584Z" fill="#A694FE"/>
<path fill-rule="evenodd" clip-rule="evenodd" d="M36.5086 30.9579L34.3008 31.6832L35.5302 33.6839C38.2146 38.0106 42.5298 40.6616 45.8916 40.4365C46.87 40.3115 47.7732 39.9113 48.5259 39.2861C49.2785 38.6608 49.8054 37.8105 50.0813 36.8852C50.4326 35.9598 50.5078 34.9844 50.3071 34.0341C50.1064 33.0837 49.6548 32.2084 48.9774 31.4831C47.7732 30.4577 46.2679 29.8825 44.7124 29.8325C41.9527 29.7074 39.168 30.0826 36.5588 30.9829H36.5086V30.9579ZM37.0605 32.7086C39.2683 36.385 42.881 38.7609 45.716 38.5608C48.1495 38.3857 49.4792 34.5343 47.6227 32.7836C45.7912 31.0329 41.6015 31.258 37.0355 32.7586V32.7086H37.0605Z" fill="#2A2941"/>
<path fill-rule="evenodd" clip-rule="evenodd" d="M44.7124 33.7839C44.863 33.8089 45.0135 33.8839 45.1389 33.9839C45.2644 34.084 45.3647 34.184 45.44 34.3091C45.5153 34.4341 45.5654 34.5842 45.5905 34.7342C45.6156 34.8843 45.6156 35.0343 45.5654 35.1844C45.5153 35.4095 45.3898 35.6096 45.2142 35.7846C45.0386 35.9347 44.8379 36.0347 44.587 36.0847C44.3612 36.1097 44.1103 36.0847 43.9096 35.9847C43.7089 35.8847 43.5082 35.7346 43.4079 35.5345C43.2824 35.3344 43.2322 35.1094 43.2322 34.8843C43.2322 34.6592 43.3326 34.4341 43.458 34.234C43.6086 34.059 43.7842 33.9089 44.01 33.8339C44.2358 33.7338 44.4866 33.7088 44.7124 33.7839Z" fill="#2A2941"/>
<path fill-rule="evenodd" clip-rule="evenodd" d="M44.2609 34.3842L36.5588 32.1833L36.3832 32.7836L44.0853 34.9844L44.2609 34.3842Z" fill="#2A2941"/>
<path fill-rule="evenodd" clip-rule="evenodd" d="M17.7176 23.53L15.1837 24.5554L16.2123 27.0814L18.7211 26.056L17.7176 23.53Z" fill="#A694FE"/>
<path fill-rule="evenodd" clip-rule="evenodd" d="M19.5741 26.356L18.0688 22.7046L14.3808 24.2052L15.8861 27.8816L19.5741 26.356ZM17.7175 23.5049L15.1836 24.5303L16.2122 27.0562L18.7211 26.0309L17.7175 23.5049Z" fill="#2A2941"/>
<path fill-rule="evenodd" clip-rule="evenodd" d="M26.097 43.7876L23.5631 44.813L24.5917 47.3139L27.1005 46.2885L26.097 43.7876Z" fill="#A694FE"/>
<path fill-rule="evenodd" clip-rule="evenodd" d="M27.9284 46.6388L26.398 42.9624L22.7101 44.463L24.2154 48.1144L27.9284 46.6388ZM26.097 43.7877L23.5631 44.8131L24.5917 47.3141L27.1005 46.2887L26.097 43.7877Z" fill="#2A2941"/>
<path fill-rule="evenodd" clip-rule="evenodd" d="M40.0711 13.8513L37.5623 14.8767L38.5909 17.3777L41.1248 16.3523L40.0711 13.8513Z" fill="#A694FE"/>
<path fill-rule="evenodd" clip-rule="evenodd" d="M41.9277 16.7024L40.4224 13.051L36.7344 14.5516L38.2397 18.203L41.9277 16.7024ZM40.0712 13.8513L37.5623 14.8767L38.591 17.3777L41.0998 16.3523L40.0712 13.8513Z" fill="#2A2941"/>
</svg>