<?xml version="1.0" encoding="utf-8"?>
<svg width="800px" height="800px" viewBox="0 0 64 64" fill="none" xmlns="http://www.w3.org/2000/svg">
<path fill-rule="evenodd" clip-rule="evenodd" d="M44.7931 29.0514C42.6857 23.0491 37.9692 20.7732 33.955 20.3481C28.4858 19.7728 21.8124 22.699 19.9056 28.9763C18.0491 34.8536 20.4325 39.9555 23.8947 42.7316C26.5038 44.8324 31.3459 47.0332 36.6646 45.2075L44.7931 29.0514Z" fill="#2A2941"/>
<path fill-rule="evenodd" clip-rule="evenodd" d="M37.1162 45.7829L45.4956 29.1265L45.4204 28.8264C43.2126 22.499 38.2451 20.1231 34.0052 19.6979C28.2349 19.0727 21.2604 22.1989 19.2283 28.8014C17.3216 34.9537 19.8304 40.3308 23.4431 43.2319C26.1777 45.4577 31.2706 47.7836 36.8402 45.8329L37.1162 45.7829ZM44.0907 29.0015L36.1879 44.6824C31.2455 46.2831 26.7296 44.2073 24.271 42.2315C21.0095 39.5805 18.8018 34.7537 20.5078 29.1765C22.3141 23.2243 28.6614 20.4482 33.8798 21.0234C37.6179 21.3736 42.0585 23.4994 44.0907 29.0015Z" fill="#2A2941"/>
<path fill-rule="evenodd" clip-rule="evenodd" d="M44.9688 26.5756C42.9115 20.6984 38.2953 18.4475 34.3565 18.0473C28.9876 17.4721 22.4646 20.3482 20.583 26.5006C18.7767 32.2527 21.0848 37.2547 24.4968 39.9807C27.0558 42.0315 31.7975 44.2073 37.0158 42.4066L44.9688 26.5756Z" fill="#FEC34E"/>
<path fill-rule="evenodd" clip-rule="evenodd" d="M37.4172 42.9317L45.621 26.6255L45.5458 26.3504C43.3882 20.1481 38.5211 17.8222 34.3815 17.397C28.7367 16.7718 21.9127 19.848 19.9056 26.3254C18.0491 32.3527 20.4827 37.6047 24.0452 40.4558C26.7296 42.6316 31.7222 44.9325 37.1663 43.0068L37.4172 42.9317ZM44.2412 26.5255L36.4889 41.8813C31.6469 43.4319 27.2063 41.4062 24.8229 39.4804C21.6367 36.8794 19.4791 32.1526 21.1601 26.6755C22.9413 20.8483 29.1381 18.1223 34.2561 18.6725C37.919 19.0476 42.2592 21.1234 44.2412 26.5255Z" fill="#2A2941"/>
<path d="M27.2063 37.5046C28.7367 36.7043 29.3639 34.8536 28.5611 33.328C27.7833 31.8274 25.9017 31.2272 24.3714 32.0275C22.841 32.8278 22.2138 34.6785 23.0166 36.2041C23.7692 37.7047 25.6508 38.2799 27.2063 37.5046Z" fill="#F5F5F5"/>
<path d="M41.7073 30.5521C43.2377 29.7768 43.8398 27.901 43.0621 26.4005C42.2843 24.8999 40.4027 24.3247 38.8974 25.1C37.3921 25.8753 36.7649 27.751 37.5427 29.2516C38.2953 30.7771 40.1769 31.3524 41.7073 30.5521Z" fill="#F5F5F5"/>
<path fill-rule="evenodd" clip-rule="evenodd" d="M40.1267 28.1511C36.2381 30.9272 32.0483 33.203 27.5576 34.8287C28.8371 37.0045 32.5501 38.8802 35.8116 37.6547C40.5031 35.8541 41.3812 31.3273 40.1267 28.1511Z" fill="#F5F5F5"/>
<path fill-rule="evenodd" clip-rule="evenodd" d="M40.3525 27.9259L40.0515 27.1506L39.3741 27.6258C35.5356 30.3519 31.396 32.6277 26.9554 34.2283L26.2279 34.5034L26.6293 35.1787C28.0342 37.5546 32.0985 39.6304 35.6861 38.2549C40.7539 36.3291 41.7073 31.4023 40.3525 27.9259ZM39.3992 29.2014C40.1267 32.0275 39.0981 35.5788 35.2095 37.0544C32.5752 38.0548 29.6399 36.8293 28.1848 35.1537C32.1738 33.6531 35.9119 31.6023 39.3992 29.2014Z" fill="#2A2941"/>
<path fill-rule="evenodd" clip-rule="evenodd" d="M37.0158 42.2315C37.0158 42.2315 36.1879 38.8552 36.3133 37.1546C36.6896 30.9522 41.3811 27.9511 44.9437 26.5505L37.0158 42.2315Z" fill="#FEC34E"/>
<path fill-rule="evenodd" clip-rule="evenodd" d="M36.3886 42.3814C36.4388 42.6565 36.6646 42.8316 36.9405 42.8566C37.2165 42.8816 37.4674 42.7565 37.5928 42.5065L45.5207 26.8255C45.621 26.5754 45.596 26.3003 45.4203 26.1002C45.2196 25.9252 44.9437 25.8251 44.6928 25.9502C40.9546 27.4007 36.0624 30.6019 35.661 37.1044C35.5356 38.8801 36.3886 42.3814 36.3886 42.3814ZM37.2416 40.3306C37.066 39.3052 36.8653 38.0548 36.9405 37.1794C37.2416 32.2275 40.5031 29.4265 43.5387 27.8759L37.2416 40.3306Z" fill="#2A2941"/>
<path fill-rule="evenodd" clip-rule="evenodd" d="M24.9986 31.1523C24.8731 30.1269 25.5254 29.3266 26.3784 28.9264C27.2063 28.5263 28.26 28.5263 28.9374 29.2015L29.4141 29.6517L30.3173 28.7263L29.8406 28.2762C28.7618 27.2508 27.1561 27.1507 25.8265 27.776C24.5219 28.4012 23.5434 29.6767 23.7191 31.3023L23.7943 31.9276L25.0738 31.7775L24.9986 31.1523Z" fill="#2A2941"/>
<path fill-rule="evenodd" clip-rule="evenodd" d="M38.9727 23.7494C37.7935 22.5989 36.1879 22.5489 34.8833 23.1992C33.5787 23.8494 32.6504 25.1749 32.801 26.6505L32.8762 27.3007L34.1557 27.1757L34.0805 26.5254C33.9801 25.5751 34.6324 24.7748 35.4603 24.3496C36.2882 23.9495 37.3168 23.9245 38.0695 24.6497L38.5211 25.0999L39.4243 24.1996L38.9727 23.7494Z" fill="#2A2941"/>
</svg>