<?xml version="1.0" encoding="utf-8"?>
<svg width="800px" height="800px" viewBox="0 0 64 64" fill="none" xmlns="http://www.w3.org/2000/svg">
<path fill-rule="evenodd" clip-rule="evenodd" d="M35.8295 23.2435L12.5978 33.2223L21.3285 54.2303L44.0835 44.2515L35.8044 23.2185H35.8295V23.2435Z" fill="#2A2941"/>
<path fill-rule="evenodd" clip-rule="evenodd" d="M18.9451 42.1756L25.6186 39.3995L24.9663 37.7239L18.2928 40.6L18.9451 42.1756Z" fill="#31CEA8"/>
<path fill-rule="evenodd" clip-rule="evenodd" d="M16.9381 39.9999L18.3681 43.5512L26.9984 39.9749L25.5433 36.3235L16.9381 39.9999ZM18.9702 42.1757L25.6437 39.3997L24.9914 37.724L18.2928 40.6251L18.9702 42.1757Z" fill="#2A2941"/>
<path fill-rule="evenodd" clip-rule="evenodd" d="M21.7801 49.0284L28.4536 46.2523L27.8013 44.5767L21.1529 47.4277L21.7801 49.0284Z" fill="#31CEA8"/>
<path fill-rule="evenodd" clip-rule="evenodd" d="M19.7731 46.8275L21.2282 50.3789L29.8585 46.8025L28.4034 43.1511L19.7731 46.8275ZM21.7801 49.0284L28.4536 46.2523L27.8013 44.5767L21.1529 47.4277L21.7801 49.0284Z" fill="#2A2941"/>
<path fill-rule="evenodd" clip-rule="evenodd" d="M33.1952 44.1015L39.6429 41.4005L36.2309 32.8972L29.5826 35.7233L33.1952 44.1015Z" fill="#4C5EFD"/>
<path fill-rule="evenodd" clip-rule="evenodd" d="M28.2027 35.173L32.6433 45.4769L41.0228 41.9756L36.8581 31.5466L28.2278 35.223V35.173H28.2027ZM33.1952 44.1014L39.6429 41.4004L36.2309 32.8971L29.5825 35.7232L33.1952 44.1014Z" fill="#2A2941"/>
<path fill-rule="evenodd" clip-rule="evenodd" d="M35.3528 15.5404C36.7327 15.5905 38.0373 16.0406 39.1662 16.8409C40.2701 17.6412 41.1231 18.7416 41.5998 20.0171C42.0765 21.2926 42.1768 22.6932 41.8758 24.0187C41.5747 25.3442 40.8722 26.5446 39.8687 27.495C38.8652 28.4203 37.6108 29.0456 36.2811 29.2707C34.9263 29.4957 33.5465 29.3207 32.2921 28.7705C31.0377 28.2203 29.9839 27.2949 29.2564 26.1445C28.5288 24.994 28.1525 23.6435 28.2027 22.293C28.2529 20.4673 29.0557 18.7166 30.3854 17.4662C31.7401 16.1657 33.5214 15.4904 35.3528 15.5404Z" fill="#2A2941"/>
<path fill-rule="evenodd" clip-rule="evenodd" d="M32.7186 14.5151L35.0016 19.542C33.8726 20.0672 32.7186 22.6682 32.6182 23.8187L27.45 25.2692C27.0737 23.2935 27.1992 21.2427 27.8765 19.342C28.5539 17.9915 30.3352 15.3154 32.7186 14.5151Z" fill="#2A2941"/>
<path fill-rule="evenodd" clip-rule="evenodd" d="M38.6394 29.1706L36.808 24.3938C36.3062 24.5939 35.7793 24.6439 35.2525 24.5188C34.7256 24.3938 34.249 24.1437 33.8977 23.7686L28.4787 25.9444C28.855 27.445 30.8119 28.9955 32.543 29.5708C34.55 29.9959 36.6825 29.8709 38.6394 29.1706Z" fill="#2A2941"/>
<path fill-rule="evenodd" clip-rule="evenodd" d="M32.8691 15.7157L34.7758 20.3924C35.3528 20.4175 35.9299 20.5925 36.4316 20.8926C36.9334 21.1927 37.3348 21.6429 37.6108 22.1431L42.2772 20.5675C41.7754 18.9669 40.7719 17.5414 39.4171 16.541C37.385 15.5406 35.0769 15.2655 32.8691 15.7157Z" fill="#2A2941"/>
<path fill-rule="evenodd" clip-rule="evenodd" d="M42.1517 20.1172L37.6108 21.9679C37.7111 22.4931 37.661 23.0433 37.4602 23.5435C37.2595 24.0437 36.9083 24.4688 36.4818 24.769L38.3133 29.2206C39.7182 28.5704 40.8722 27.47 41.5496 26.0945C42.3023 24.7189 42.4026 21.7678 42.1517 20.1172Z" fill="#2A2941"/>
<path fill-rule="evenodd" clip-rule="evenodd" d="M34.4246 20.4925C34.826 20.3424 35.2525 20.3174 35.6539 20.4174C36.0553 20.5175 36.4316 20.7176 36.7327 21.0177C37.0086 21.3178 37.2093 21.6929 37.2846 22.1181C37.3599 22.5182 37.3097 22.9434 37.1341 23.3436C36.9585 23.7187 36.6825 24.0438 36.3313 24.2689C35.98 24.494 35.5535 24.619 35.1521 24.594C34.7256 24.594 34.3242 24.444 33.973 24.2189C33.6217 23.9688 33.3709 23.6437 33.2203 23.2435C33.12 22.9934 33.0698 22.6933 33.0698 22.4182C33.0698 22.1431 33.1451 21.868 33.2454 21.6179C33.3709 21.3678 33.5214 21.1427 33.7221 20.9426C33.9228 20.7426 34.1737 20.5925 34.4246 20.4925Z" fill="#2A2941"/>
<path fill-rule="evenodd" clip-rule="evenodd" d="M45.4885 30.0461L39.2917 36.7737C39.2917 36.7737 37.4602 40.6502 37.8616 41.0503C38.2631 41.4505 41.7503 39.1996 41.8256 39.0996L48.0224 32.247L45.4885 30.0461Z" fill="#2A2941"/>
<path fill-rule="evenodd" clip-rule="evenodd" d="M50.4559 24.2938L46.216 29.1957L48.8001 31.5466L53.0902 26.4446C53.1153 26.1195 53.04 25.7694 52.9146 25.4693C52.7891 25.1692 52.5884 24.8941 52.3125 24.694C52.0616 24.4939 51.7605 24.3438 51.4344 24.2688C51.1082 24.1938 50.7821 24.1938 50.4559 24.2938Z" fill="#2A2941"/>
<path fill-rule="evenodd" clip-rule="evenodd" d="M36.833 19.7671L13.5763 29.7459L22.307 50.7539L45.062 40.7751L36.7828 19.7671H36.833Z" fill="white"/>
<path fill-rule="evenodd" clip-rule="evenodd" d="M12.8738 35.2731L40.245 23.7687L37.4352 17.0662L10.3901 28.4955L12.8738 35.2981V35.2731Z" fill="#A694FE"/>
<path fill-rule="evenodd" clip-rule="evenodd" d="M9.03531 27.9202L12.2717 36.6985L41.6249 24.3438L37.9871 15.6655L9.03531 27.9202ZM12.8738 35.273L40.1949 23.7686L37.4352 17.0661L10.365 28.5204L12.8738 35.323V35.273Z" fill="#2A2941"/>
<path fill-rule="evenodd" clip-rule="evenodd" d="M19.9487 38.6993L26.6221 35.9232L25.9448 34.2476L19.2964 37.0986L19.9487 38.6993Z" fill="#31CEA8"/>
<path fill-rule="evenodd" clip-rule="evenodd" d="M17.9165 36.5236L19.3717 40.0749L28.002 36.4986L26.5469 32.8472L17.9165 36.5236ZM19.9487 38.6994L26.6221 35.9233L25.9448 34.2477L19.2964 37.0988L19.9487 38.6994Z" fill="#2A2941"/>
<path fill-rule="evenodd" clip-rule="evenodd" d="M22.7836 45.552L29.4571 42.776L28.8048 41.1003L22.1313 43.9514L22.7836 45.552Z" fill="#31CEA8"/>
<path fill-rule="evenodd" clip-rule="evenodd" d="M20.7766 43.3512L22.2066 46.9026L30.8369 43.3262L29.3818 39.6748L20.7766 43.3512ZM22.7836 45.552L29.4571 42.776L28.7797 41.1003L22.1313 43.9514L22.7836 45.552Z" fill="#2A2941"/>
<path fill-rule="evenodd" clip-rule="evenodd" d="M34.2238 40.6252L40.6715 37.9241L37.2595 29.4209L30.5861 32.222L34.2238 40.6252Z" fill="#4C5EFD"/>
<path fill-rule="evenodd" clip-rule="evenodd" d="M29.2062 31.6968L33.6468 42.0257L42.0263 38.4994L37.8617 27.9954L29.2062 31.6968ZM34.1988 40.6252L40.6465 37.9241L37.2345 29.4209L30.5861 32.247L34.1988 40.6252Z" fill="#2A2941"/>
<path fill-rule="evenodd" clip-rule="evenodd" d="M46.1659 41.2003L37.2846 18.6667L12.5477 29.2708L21.8805 51.7793L46.1659 41.1503V41.2003ZM36.3815 20.7926L44.0835 40.3L22.7335 49.7035L14.6551 30.1711L36.3815 20.8426V20.7926Z" fill="#2A2941"/>
<path d="M24.7405 28.1454L28.7295 26.5198" stroke="#2A2941" stroke-width="1.6551" stroke-miterlimit="1.22" stroke-linecap="square"/>
<path fill-rule="evenodd" clip-rule="evenodd" d="M36.3815 12.0642C37.7613 12.1142 39.0659 12.5644 40.1698 13.3647C41.2737 14.165 42.1267 15.2654 42.6033 16.5409C43.08 17.8164 43.1804 19.2169 42.8542 20.5424C42.5532 21.8679 41.8507 23.0684 40.8472 24.0187C39.8436 24.9441 38.5892 25.5693 37.2345 25.7944C35.8797 26.0195 34.4998 25.8444 33.2454 25.2692C31.991 24.719 30.9373 23.7937 30.2098 22.6432C29.4822 21.4928 29.1059 20.1423 29.1561 18.7668C29.1811 17.8664 29.3818 16.9661 29.7582 16.1408C30.1345 15.3154 30.6613 14.5652 31.3387 13.9399C32.0161 13.3147 32.7938 12.8395 33.6468 12.5144C34.55 12.1893 35.4532 12.0392 36.3815 12.0642Z" fill="white"/>
<path fill-rule="evenodd" clip-rule="evenodd" d="M33.7221 11.0637L36.0051 16.0906C34.8762 16.6158 33.7221 19.2168 33.6468 20.3673L28.4787 21.8178C28.1023 19.8421 28.2529 17.7913 28.9052 15.8906C29.5575 14.515 31.3638 11.839 33.7221 11.0637Z" fill="#4C5EFD"/>
<path fill-rule="evenodd" clip-rule="evenodd" d="M37.4352 16.5909L34.3242 9.78833L33.421 10.0884C30.7617 10.9638 28.7296 13.9399 27.9769 15.4655C27.2243 17.6163 27.0486 19.9172 27.4751 22.143L27.7511 23.1684L34.6755 21.2427L34.7256 20.5174C34.8762 19.6671 35.2023 18.8418 35.6539 18.0915C35.8546 17.6913 36.1306 17.3412 36.5069 17.0911L37.4352 16.6409V16.5909ZM33.7472 11.0638L36.0302 16.0907C34.9012 16.6159 33.7472 19.2169 33.6719 20.3674L28.5038 21.8179C28.1274 19.8422 28.278 17.7914 28.9303 15.8906C29.5826 14.5151 31.3638 11.8391 33.7472 11.0638Z" fill="#2A2941"/>
<path fill-rule="evenodd" clip-rule="evenodd" d="M39.6429 25.6943L37.8115 20.9175C37.3097 21.1176 36.7828 21.1676 36.256 21.0425C35.7291 20.9175 35.2525 20.6674 34.9012 20.2922L29.4822 22.4931C29.8836 23.9936 31.8154 25.5442 33.5465 26.1195C35.5535 26.5446 37.686 26.4196 39.6429 25.6943Z" fill="#32EDBB"/>
<path fill-rule="evenodd" clip-rule="evenodd" d="M40.1698 26.6198L40.9475 26.1696L38.4387 19.6171L37.4853 19.8922C37.1592 20.0173 36.833 20.0423 36.4818 19.9922C36.1557 19.9172 35.8295 19.7672 35.6037 19.5171L35.127 19.0669L28.2027 21.843L28.4536 22.7433C28.9303 24.519 31.1631 26.4447 33.2454 27.12C34.6504 27.4451 36.1055 27.5201 37.5355 27.345C38.4638 27.27 39.3419 27.0449 40.1949 26.6448L40.1698 26.6198ZM39.6178 25.6944L37.7864 20.9176C37.2846 21.1177 36.7578 21.1677 36.2309 21.0426C35.7041 20.9176 35.2274 20.6675 34.8762 20.2924L29.4571 22.4932C29.8585 23.9938 31.7903 25.5444 33.5214 26.1196C35.5535 26.5447 37.686 26.4197 39.6178 25.6944Z" fill="#2A2941"/>
<path fill-rule="evenodd" clip-rule="evenodd" d="M33.8726 12.2643L35.7793 16.9411C36.3563 16.9661 36.9334 17.1412 37.4351 17.4413C37.9369 17.7414 38.3383 18.1916 38.6143 18.6918L43.2556 17.1162C42.7538 15.4906 41.7503 14.09 40.3956 13.0897C38.3634 12.0893 36.0553 11.7892 33.8726 12.2643Z" fill="#A694FE"/>
<path fill-rule="evenodd" clip-rule="evenodd" d="M33.6468 11.2139L32.3924 11.4639L35.0769 18.0415H35.8295C36.6574 17.9914 37.2595 18.6667 37.686 19.3169L38.1376 20.0172L44.51 17.8414L44.2341 16.791C43.657 14.9403 42.503 13.3147 40.9224 12.1642C38.6645 11.0138 36.0804 10.6636 33.5967 11.1888L33.6468 11.2139ZM33.8475 12.2392L35.7542 16.916C36.3313 16.941 36.9083 17.1161 37.4101 17.4162C37.9118 17.7163 38.3132 18.1665 38.5892 18.6667L43.2556 17.0911C42.7539 15.4905 41.7503 14.0649 40.3956 13.0646C38.3634 12.0642 36.0553 11.7891 33.8475 12.2392Z" fill="#2A2941"/>
<path fill-rule="evenodd" clip-rule="evenodd" d="M43.1803 16.6409L38.6143 18.4916C38.7146 19.0168 38.6645 19.567 38.4638 20.0672C38.2631 20.5674 37.9118 20.9925 37.4853 21.2926L39.2917 25.7443C40.6966 25.0941 41.8507 23.9937 42.5531 22.6181C43.3058 21.3427 43.4312 18.2915 43.1803 16.6409Z" fill="#FEC34E"/>
<path fill-rule="evenodd" clip-rule="evenodd" d="M44.2592 16.4908L44.0584 15.1653L37.4352 17.8413L37.5606 18.6666C37.6359 19.0167 37.5857 19.3669 37.4603 19.667C37.3348 19.9921 37.109 20.2672 36.808 20.4423L36.1808 20.9425L38.6645 27.0698L39.6178 26.7447C41.2737 26.0194 42.6033 24.7439 43.4312 23.1433C44.2842 21.6678 44.4599 18.3165 44.1588 16.4908H44.2592ZM43.2055 16.6408L38.6394 18.4915C38.7398 19.0167 38.6896 19.567 38.4889 20.0671C38.2882 20.5673 37.9369 20.9925 37.5104 21.2926L39.3168 25.7443C40.7217 25.0941 41.8758 23.9936 42.5782 22.6181C43.3058 21.3426 43.4312 18.2915 43.1804 16.6659H43.2055V16.6408Z" fill="#2A2941"/>
<path fill-rule="evenodd" clip-rule="evenodd" d="M36.4065 11.0137C34.826 10.9887 33.2956 11.4139 31.9659 12.2642C30.6362 13.1145 29.6076 14.315 28.9553 15.7655C28.3281 17.1911 28.1274 18.7917 28.4034 20.3423C28.6794 21.8929 29.4069 23.3184 30.4857 24.4438C31.5645 25.5693 32.9694 26.3696 34.4998 26.7197C36.0302 27.0698 37.6358 26.9448 39.091 26.3946C40.5712 25.8444 41.8256 24.869 42.7288 23.5935C43.6319 22.318 44.1588 20.7925 44.209 19.2419C44.234 18.1915 44.0584 17.1411 43.6821 16.1657C43.3058 15.1903 42.7288 14.29 42.0012 13.5147C41.2736 12.7644 40.3956 12.1392 39.4422 11.714C38.4888 11.2638 37.4602 11.0137 36.4065 11.0137ZM36.4065 12.0641C37.7864 12.1142 39.091 12.5643 40.2199 13.3646C41.3238 14.1649 42.1768 15.2654 42.6535 16.5408C43.1302 17.8163 43.2305 19.2169 42.9044 20.5424C42.6033 21.8679 41.9008 23.0683 40.8973 24.0187C39.8938 24.944 38.6394 25.5693 37.2846 25.7944C35.9299 26.0194 34.55 25.8444 33.2956 25.2692C32.0412 24.7189 30.9875 23.7936 30.2599 22.6432C29.5324 21.4927 29.156 20.1422 29.2062 18.7667C29.2564 16.941 30.0592 15.1903 31.3889 13.9399C32.7437 12.6894 34.5249 12.0141 36.4065 12.0641Z" fill="#2A2941"/>
<path fill-rule="evenodd" clip-rule="evenodd" d="M35.4532 16.991C35.8546 16.841 36.2811 16.8159 36.6825 16.916C37.0839 17.016 37.4602 17.2161 37.7362 17.5412C38.0122 17.8413 38.2129 18.2165 38.2881 18.6416C38.3634 19.0418 38.3132 19.4669 38.1376 19.8671C37.962 20.2422 37.686 20.5674 37.3348 20.7925C36.9836 21.0175 36.5571 21.1176 36.1557 21.1176C35.7292 21.1176 35.3277 20.9675 34.9765 20.7424C34.6253 20.4923 34.3744 20.1672 34.2239 19.7921C34.0232 19.2669 34.0482 18.6666 34.274 18.1414C34.4747 17.5912 34.9012 17.1911 35.4532 16.991Z" fill="white"/>
<path fill-rule="evenodd" clip-rule="evenodd" d="M35.0518 16.0158C34.4747 16.2408 33.973 16.641 33.6217 17.1662C33.2705 17.6914 33.0698 18.2916 33.0698 18.9169C33.0698 19.5421 33.2454 20.1673 33.5716 20.6925C33.9228 21.2177 34.3995 21.6429 34.9765 21.868C35.5535 22.1181 36.1807 22.1931 36.8079 22.0681C37.4351 21.968 37.9871 21.6679 38.4387 21.2177C38.8903 20.7926 39.2164 20.2174 39.3418 19.6171C39.4673 19.0169 39.4171 18.3666 39.1913 17.7914C38.8652 17.0161 38.2631 16.3659 37.4853 16.0408C36.7327 15.7156 35.8546 15.7156 35.0518 16.0158ZM35.4532 16.9911C35.8546 16.8411 36.2811 16.8161 36.6825 16.9161C37.0839 17.0161 37.4602 17.2162 37.7362 17.5413C38.0122 17.8414 38.2129 18.2166 38.2881 18.6418C38.3634 19.0419 38.3132 19.4671 38.1376 19.8672C37.962 20.2424 37.686 20.5675 37.3348 20.7926C36.9836 21.0177 36.5571 21.1177 36.1556 21.1177C35.7291 21.1177 35.3277 20.9676 34.9765 20.7426C34.6253 20.4925 34.3744 20.1673 34.2239 19.7922C34.0231 19.267 34.0482 18.6668 34.274 18.1416C34.4747 17.6164 34.9012 17.1912 35.4532 16.9911ZM35.0518 16.0158L34.55 16.2158L35.0518 16.0158Z" fill="#2A2941"/>
<path fill-rule="evenodd" clip-rule="evenodd" d="M46.5171 26.5698L40.3203 33.2974C40.3203 33.2974 38.4889 37.1739 38.8903 37.574C39.3168 37.9492 42.7789 35.7233 42.8291 35.6233L49.0259 28.8207L46.5171 26.5698Z" fill="#FFB800"/>
<path fill-rule="evenodd" clip-rule="evenodd" d="M50.5312 28.6706L46.4167 25.0942L39.4171 32.6971L39.3418 32.8472C38.7397 34.0977 38.238 35.4232 37.8366 36.7487C37.7864 37.0488 37.7864 37.3739 37.8366 37.674C37.8867 37.9241 38.0122 38.1742 38.2129 38.3493C38.4387 38.5243 38.7146 38.6244 39.0157 38.6494C39.2917 38.6744 39.5927 38.6244 39.8687 38.5243C41.0478 38.0242 42.1768 37.4239 43.2305 36.6987C43.4061 36.5986 43.5817 36.4736 43.7323 36.3235C43.8075 36.2235 49.8789 29.5209 49.8789 29.5209L50.6064 28.7206L50.5312 28.6706ZM46.5422 26.5698L40.3454 33.2974C40.3454 33.2974 38.4888 37.1738 38.9153 37.574C39.3418 37.9491 42.804 35.7233 42.8542 35.6232L49.051 28.8207L46.5422 26.5698Z" fill="#2A2941"/>
<path fill-rule="evenodd" clip-rule="evenodd" d="M51.4594 20.7925L47.2195 25.6944L49.7534 28.0203L54.0435 22.9183C54.0435 22.5932 53.9934 22.2681 53.8679 21.968C53.7425 21.6679 53.5418 21.4178 53.2909 21.1927C53.04 20.9926 52.7389 20.8426 52.4379 20.7675C52.1117 20.7175 51.7856 20.7175 51.4594 20.7925Z" fill="#FFB800"/>
<path fill-rule="evenodd" clip-rule="evenodd" d="M51.0831 19.8172L50.8323 19.9172L45.7644 25.7945L49.8789 29.5709L55.0722 23.4185L55.1223 23.1685C55.1976 22.6433 55.1223 22.1181 54.9216 21.6429C54.7209 21.1677 54.3948 20.7425 53.9683 20.4174C53.592 20.0673 53.1153 19.8422 52.6135 19.7422C52.0867 19.6421 51.5598 19.6671 51.0831 19.8172ZM51.4595 20.7926L47.2196 25.6944L49.7535 28.0203L54.0435 22.9184C54.0435 22.5932 53.9934 22.2681 53.8679 21.968C53.7425 21.6679 53.5418 21.4178 53.2909 21.1927C53.04 20.9926 52.739 20.8426 52.4379 20.7675C52.1118 20.7425 51.7856 20.7175 51.4595 20.7926Z" fill="#2A2941"/>
<path fill-rule="evenodd" clip-rule="evenodd" d="M46.8934 24.0688L45.6139 25.6194L50.2301 29.4709L51.5347 27.9453L46.8934 24.0688Z" fill="#4C5EFD"/>
<path fill-rule="evenodd" clip-rule="evenodd" d="M53.04 27.8201L46.7429 22.5681L44.1337 25.7443L50.3556 30.9463L53.04 27.8201ZM46.8934 24.0687L45.6139 25.6193L50.2301 29.4707L51.5347 27.9452L46.8934 24.0687Z" fill="#2A2941"/>
</svg>