<?xml version="1.0" encoding="utf-8"?>
<svg width="800px" height="800px" viewBox="0 0 64 64" fill="none" xmlns="http://www.w3.org/2000/svg">
<path fill-rule="evenodd" clip-rule="evenodd" d="M37.814 19.7346L15.5608 29.2883L23.9152 49.4209L45.7168 39.8673L37.7889 19.7346H37.814Z" fill="#2A2941"/>
<path fill-rule="evenodd" clip-rule="evenodd" d="M39.7458 15.8083L17.4926 25.387L25.8469 45.4946L47.6987 35.941L39.7458 15.8083Z" fill="white"/>
<path fill-rule="evenodd" clip-rule="evenodd" d="M48.6772 36.3661L40.1723 14.8079L16.4891 24.9617L25.4205 46.5199L48.6772 36.3661ZM39.3193 16.7836L46.6702 35.4907L26.2233 44.4191L18.4961 25.737L39.3193 16.7836Z" fill="#2A2941"/>
<path fill-rule="evenodd" clip-rule="evenodd" d="M19.2236 31.0139L42.5055 20.9851L41.9034 19.5596L18.5964 29.6134L19.2236 31.0139Z" fill="#2A2941"/>
<path fill-rule="evenodd" clip-rule="evenodd" d="M31.2409 37.7166L27.5028 39.3673C27.4777 39.2922 27.4526 39.2172 27.4275 39.1422C26.6749 37.0164 26.8003 34.6905 27.7537 32.6647C28.707 30.639 30.413 29.0634 32.5204 28.2631C34.5024 27.3877 36.7603 27.3377 38.7925 28.088C40.8246 28.8383 42.4804 30.3639 43.4338 32.3146L40.072 33.8152C39.52 32.7898 38.5918 32.0145 37.4879 31.6393C36.384 31.2642 35.1798 31.3142 34.101 31.7894C32.972 32.2396 32.0437 33.1149 31.5169 34.2153C30.9649 35.2907 30.8646 36.5662 31.2409 37.7166Z" fill="#A694FE"/>
<path fill-rule="evenodd" clip-rule="evenodd" d="M31.2409 37.7166L27.5028 39.3673C27.4777 39.2922 27.4526 39.2172 27.4275 39.1422C26.6749 37.0164 26.8003 34.6905 27.7537 32.6647C28.707 30.639 30.413 29.0634 32.5204 28.2631C34.5024 27.3877 36.7603 27.3377 38.7925 28.088C40.8246 28.8383 42.4804 30.3639 43.4338 32.3146L40.072 33.8152C39.52 32.7898 38.5918 32.0145 37.4879 31.6393C36.384 31.2642 35.1798 31.3142 34.101 31.7894C32.972 32.2396 32.0437 33.1149 31.5169 34.2153C30.9649 35.2907 30.8646 36.5662 31.2409 37.7166ZM30.137 37.1914L28.0296 38.1168C27.6031 36.2911 27.8791 34.3904 28.7572 32.7398C29.6353 31.0891 31.0904 29.8136 32.8466 29.1634C34.4773 28.4381 36.2836 28.3381 37.9896 28.8383C39.6956 29.3385 41.1508 30.4139 42.1292 31.8894L40.3981 32.6397C39.6455 31.6393 38.5667 30.9391 37.3624 30.639C36.1582 30.3388 34.8787 30.4389 33.7246 30.9391C32.4953 31.4393 31.4918 32.3146 30.8144 33.44C30.2123 34.5654 29.9363 35.891 30.137 37.1914Z" fill="#2A2941"/>
<path fill-rule="evenodd" clip-rule="evenodd" d="M37.237 31.1892L38.4161 28.238C39.9465 29.0884 42.4052 30.739 43.0073 32.0645C42.2546 32.7147 41.3264 33.1399 40.3228 33.29C39.4448 32.3646 38.3911 31.6643 37.237 31.1892Z" fill="#2A2941"/>
<path fill-rule="evenodd" clip-rule="evenodd" d="M34.7031 33.3649C34.954 33.2648 35.2049 33.2398 35.4808 33.3149C35.7317 33.3649 35.9826 33.4899 36.1582 33.69C36.3338 33.8651 36.4593 34.1152 36.5094 34.3653C36.5596 34.6154 36.5345 34.8905 36.4342 35.1406C36.3338 35.3907 36.1582 35.5907 35.9575 35.7408C35.7317 35.8908 35.4808 35.9659 35.2299 35.9909C34.9791 35.9909 34.7031 35.9159 34.4773 35.7908C34.2515 35.6407 34.0759 35.4407 33.9755 35.2156C33.9003 35.0405 33.8752 34.8655 33.8752 34.6904C33.8752 34.5153 33.9003 34.3152 33.9755 34.1652C34.0508 33.9901 34.1512 33.8401 34.2766 33.715C34.3769 33.54 34.5275 33.4399 34.7031 33.3649Z" fill="#A694FE"/>
<path fill-rule="evenodd" clip-rule="evenodd" d="M34.7031 33.3649C34.954 33.2648 35.2049 33.2398 35.4808 33.3149C35.7317 33.3649 35.9826 33.4899 36.1582 33.69C36.3338 33.8651 36.4593 34.1152 36.5094 34.3653C36.5596 34.6154 36.5345 34.8905 36.4342 35.1406C36.3338 35.3907 36.1582 35.5907 35.9575 35.7408C35.7317 35.8908 35.4808 35.9659 35.2299 35.9909C34.9791 35.9909 34.7031 35.9159 34.4773 35.7908C34.2515 35.6407 34.0759 35.4407 33.9755 35.2156C33.9003 35.0405 33.8752 34.8655 33.8752 34.6904C33.8752 34.5153 33.9003 34.3152 33.9755 34.1652C34.0508 33.9901 34.1512 33.8401 34.2766 33.715C34.3769 33.54 34.5275 33.4399 34.7031 33.3649ZM34.9289 33.8651C35.0292 33.8151 35.1296 33.765 35.255 33.765C35.3554 33.765 35.4808 33.765 35.5812 33.79C35.6815 33.8151 35.7819 33.8901 35.8822 33.9651C35.9575 34.0401 36.0328 34.1402 36.0829 34.2402C36.1331 34.3403 36.1582 34.4653 36.1582 34.5653C36.1582 34.6654 36.1331 34.7904 36.0829 34.8905C36.0328 34.9905 35.9826 35.0905 35.8822 35.1656C35.807 35.2406 35.7066 35.2906 35.6063 35.3406C35.5059 35.3907 35.4056 35.4407 35.2801 35.4407C35.1798 35.4407 35.0543 35.4407 34.954 35.4157C34.8536 35.3907 34.7533 35.3156 34.6529 35.2406C34.5777 35.1656 34.5024 35.0655 34.4522 34.9655C34.402 34.8655 34.3769 34.7404 34.3769 34.6404C34.3769 34.5403 34.402 34.4153 34.4522 34.3152C34.5024 34.2152 34.5526 34.1152 34.6529 34.0401C34.7282 33.9651 34.8285 33.9151 34.9289 33.8651Z" fill="#2A2941"/>
<path fill-rule="evenodd" clip-rule="evenodd" d="M36.1331 33.79L36.8858 32.0643L36.3087 31.8142L35.5561 33.5399L36.1331 33.79Z" fill="#2A2941"/>
<path fill-rule="evenodd" clip-rule="evenodd" d="M20.3275 28.088L21.9833 27.3877L21.3812 25.9622L19.7003 26.6874L20.3275 28.088Z" fill="#2A2941"/>
<path fill-rule="evenodd" clip-rule="evenodd" d="M23.2378 26.8875L24.8936 26.1873L24.2915 24.7617L22.6357 25.487L23.2378 26.8875Z" fill="#2A2941"/>
<path fill-rule="evenodd" clip-rule="evenodd" d="M26.0978 25.712L27.7537 25.0117L27.1516 23.5862L25.4957 24.2864L26.0978 25.712Z" fill="#2A2941"/>
</svg>