<?xml version="1.0" encoding="utf-8"?>
<svg width="800px" height="800px" viewBox="0 0 24 24" fill="none" xmlns="http://www.w3.org/2000/svg">
<path d="M4.00033 7H20.0003M5.00033 4H19.0003M6.89629 20H17.1044C18.1275 20 18.639 20 19.0447 19.8084C19.402 19.6396 19.7012 19.3687 19.9047 19.03C20.1358 18.6454 20.1867 18.1364 20.2885 17.1184L20.7365 12.6388C20.8279 11.7244 20.8736 11.2672 20.7236 10.9138C20.5918 10.6034 20.3593 10.3465 20.0635 10.1844C19.7268 10 19.2673 10 18.3484 10H5.6523C4.73336 10 4.27389 10 3.93718 10.1844C3.64141 10.3465 3.40887 10.6034 3.27708 10.9138C3.12706 11.2672 3.17278 11.7244 3.26422 12.6388L3.71218 17.1184C3.81398 18.1364 3.86488 18.6454 4.09593 19.03C4.29943 19.3687 4.59872 19.6396 4.95601 19.8084C5.36167 20 5.87321 20 6.89629 20ZM15.0003 15C15.0003 16.1046 13.6572 17 12.0003 17C10.3435 17 9.00033 16.1046 9.00033 15C9.00033 13.8954 10.3435 13 12.0003 13C13.6572 13 15.0003 13.8954 15.0003 15Z" stroke="#000000" stroke-width="2" stroke-linecap="round" stroke-linejoin="round"/>
</svg>