<?xml version="1.0" encoding="utf-8"?>
<svg width="800px" height="800px" viewBox="0 0 24 24" fill="none" xmlns="http://www.w3.org/2000/svg">
<path d="M7 7.6589C6.36815 7.18374 6 6.61337 6 6C6 4.34315 8.68629 3 12 3C15.3137 3 18 4.34315 18 6C18 6.61337 17.6318 7.18374 17 7.6589M21 21H17.5M21 21L19.8842 18.7683C19.7434 18.4869 19.6731 18.3461 19.6156 18.2055C19.2935 17.4168 19.2316 16.5459 19.439 15.7195C19.4759 15.5722 19.5257 15.423 19.6252 15.1244L19.9211 14.2368C20.3884 12.8347 19.1238 11.4691 17.69 11.8275C17.2341 11.9415 16.8037 12.1402 16.4213 12.4134L13.3007 14.6509M21 21H17M3 21H6.5M3 21L4.11583 18.7683C4.25657 18.4869 4.32695 18.3461 4.38437 18.2055C4.7065 17.4168 4.76839 16.5459 4.56104 15.7195C4.52408 15.5722 4.47432 15.423 4.3748 15.1244L4.07893 14.2368C3.61157 12.8347 4.87622 11.4691 6.31001 11.8275C6.76593 11.9415 7.19633 12.1402 7.57875 12.4134L10.6993 14.6509M3 21H7M13.3007 14.6509C13.7125 15.0824 14.1347 15.8424 14.7973 17.0351L17 21M13.3007 14.6509C13.145 14.4877 12.9907 14.3714 12.8255 14.2966C12.3009 14.0588 11.6991 14.0588 11.1745 14.2966C11.0093 14.3714 10.855 14.4877 10.6993 14.6509M10.6993 14.6509C10.2875 15.0824 9.86531 15.8424 9.2027 17.0351L7 21M17 21H7M14 9C14 10.1046 13.1046 11 12 11C10.8954 11 10 10.1046 10 9C10 7.89543 10.8954 7 12 7C13.1046 7 14 7.89543 14 9Z" stroke="#000000" stroke-width="2" stroke-linecap="round" stroke-linejoin="round"/>
</svg>