<?xml version="1.0" encoding="utf-8"?>
<svg width="800px" height="800px" viewBox="0 0 24 24" fill="none" xmlns="http://www.w3.org/2000/svg">
<path d="M7 17C7 17 8 14 12 14C16 14 17 17 17 17M14 9C14 10.1046 13.1046 11 12 11C10.8954 11 10 10.1046 10 9C10 7.89543 10.8954 7 12 7C13.1046 7 14 7.89543 14 9ZM12 20L14.5314 17.4686C14.7043 17.2957 14.7908 17.2092 14.8917 17.1474C14.9812 17.0925 15.0787 17.0521 15.1808 17.0276C15.2959 17 15.4182 17 15.6627 17H16.8C17.9201 17 18.4802 17 18.908 16.782C19.2843 16.5903 19.5903 16.2843 19.782 15.908C20 15.4802 20 14.9201 20 13.8V7.2C20 6.0799 20 5.51984 19.782 5.09202C19.5903 4.71569 19.2843 4.40973 18.908 4.21799C18.4802 4 17.9201 4 16.8 4H7.2C6.0799 4 5.51984 4 5.09202 4.21799C4.71569 4.40973 4.40973 4.71569 4.21799 5.09202C4 5.51984 4 6.07989 4 7.2V13.8C4 14.9201 4 15.4802 4.21799 15.908C4.40973 16.2843 4.71569 16.5903 5.09202 16.782C5.51984 17 6.0799 17 7.2 17H8.33726C8.58185 17 8.70414 17 8.81923 17.0276C8.92127 17.0521 9.01881 17.0925 9.10828 17.1474C9.2092 17.2092 9.29568 17.2957 9.46863 17.4686L12 20Z" stroke="#000000" stroke-width="2" stroke-linecap="round" stroke-linejoin="round"/>
</svg>