<?xml version="1.0" encoding="utf-8"?>
<svg width="800px" height="800px" viewBox="0 0 24 24" fill="none" xmlns="http://www.w3.org/2000/svg">
<path d="M22.0008 12.0001C22.0008 8.71493 20.4167 5.79978 17.9707 3.97681C17.9906 4.14847 18 4.32307 18 4.50006C18 6.81633 16.25 8.72388 14 8.9726V5.00006L13 7.00006H11L10 5.00006V8.9726C7.75002 8.72388 6 6.81633 6 4.50006C6 4.32307 6.01022 4.14847 6.0301 3.97681C3.58409 5.79978 2 8.71493 2 12.0001C2 13.178 2.20406 14.3084 2.57812 15.358C3.00138 15.1296 3.48575 15.0001 4.00038 15.0001C5.58039 15.0001 6.87512 16.2215 6.99182 17.7717C7.52359 17.292 8.22826 17.0001 9.00075 17.0001C10.6576 17.0001 12.0008 18.3432 12.0008 20.0001C12.0008 18.3432 13.3431 17.0001 15 17.0001C15.7725 17.0001 16.4768 17.292 17.0086 17.7717C17.1253 16.2215 18.4212 15.0001 20.0012 15.0001C20.5158 15.0001 20.9998 15.1296 21.4231 15.358C21.7971 14.3084 22.0008 13.178 22.0008 12.0001Z" stroke="#000000" stroke-width="2" stroke-linecap="round" stroke-linejoin="round"/>
</svg>