<?xml version="1.0" encoding="utf-8"?>
<svg width="800px" height="800px" viewBox="0 0 24 24" fill="none" xmlns="http://www.w3.org/2000/svg">
<path d="M20.2929 21.7071C20.6834 22.0976 21.3166 22.0976 21.7071 21.7071C22.0976 21.3166 22.0976 20.6834 21.7071 20.2929L20.2929 21.7071ZM3.70711 2.29289C3.31658 1.90237 2.68342 1.90237 2.29289 2.29289C1.90237 2.68342 1.90237 3.31658 2.29289 3.70711L3.70711 2.29289ZM20 13C20 13.5523 20.4477 14 21 14C21.5523 14 22 13.5523 22 13H20ZM22 11C22 10.4477 21.5523 10 21 10C20.4477 10 20 10.4477 20 11H22ZM18 19C18.5523 19 19 18.5523 19 18C19 17.4477 18.5523 17 18 17V19ZM4.09202 17.782L4.54601 16.891H4.54601L4.09202 17.782ZM3.21799 16.908L4.10899 16.454L4.10899 16.454L3.21799 16.908ZM3.15224 7.23463L2.22836 6.85195H2.22836L3.15224 7.23463ZM6 7C6.55228 7 7 6.55228 7 6C7 5.44772 6.55228 5 6 5V7ZM4.23463 6.15224L3.85195 5.22836H3.85195L4.23463 6.15224ZM17 19C17.5523 19 18 18.5523 18 18C18 17.4477 17.5523 17 17 17V19ZM15 17C14.4477 17 14 17.4477 14 18C14 18.5523 14.4477 19 15 19V17ZM11.6504 5C11.0981 5 10.6504 5.44772 10.6504 6C10.6504 6.55228 11.0981 7 11.6504 7V5ZM19.0004 14.34C19.0004 14.8923 19.4481 15.34 20.0004 15.34C20.5527 15.34 21.0004 14.8923 21.0004 14.34H19.0004ZM21.7071 20.2929L3.70711 2.29289L2.29289 3.70711L20.2929 21.7071L21.7071 20.2929ZM22 13V11H20V13H22ZM18 17H6.2V19H18V17ZM4 14.8V9H2V14.8H4ZM6.2 17C5.62345 17 5.25117 16.9992 4.96784 16.9761C4.69617 16.9539 4.59545 16.9162 4.54601 16.891L3.63803 18.673C4.01641 18.8658 4.40963 18.9371 4.80497 18.9694C5.18864 19.0008 5.65645 19 6.2 19V17ZM2 14.8C2 15.3436 1.99922 15.8114 2.03057 16.195C2.06287 16.5904 2.13419 16.9836 2.32698 17.362L4.10899 16.454C4.0838 16.4045 4.04612 16.3038 4.02393 16.0322C4.00078 15.7488 4 15.3766 4 14.8H2ZM4.54601 16.891C4.35785 16.7951 4.20487 16.6422 4.10899 16.454L2.32698 17.362C2.6146 17.9265 3.07354 18.3854 3.63803 18.673L4.54601 16.891ZM4 9C4 8.52038 4.00054 8.21074 4.01671 7.97376C4.03227 7.74576 4.05888 7.65893 4.07612 7.61732L2.22836 6.85195C2.09336 7.17788 2.04385 7.50779 2.02135 7.83762C1.99946 8.15846 2 8.54774 2 9H4ZM6 5C5.54774 5 5.15846 4.99946 4.83762 5.02135C4.50779 5.04385 4.17788 5.09336 3.85195 5.22836L4.61732 7.07612C4.65893 7.05888 4.74576 7.03227 4.97376 7.01671C5.21074 7.00054 5.52038 7 6 7V5ZM4.07612 7.61732C4.17761 7.37229 4.37229 7.17761 4.61732 7.07612L3.85195 5.22836C3.11687 5.53284 2.53284 6.11687 2.22836 6.85195L4.07612 7.61732ZM17 17H15V19H17V17ZM11.6504 7H18.0004V5H11.6504V7ZM19.0004 8V14.34H21.0004V8H19.0004ZM18.0004 7C18.5527 7 19.0004 7.44771 19.0004 8H21.0004C21.0004 6.34315 19.6572 5 18.0004 5V7Z" fill="#000000"/>
</svg>