<?xml version="1.0" encoding="utf-8"?>
<svg width="800px" height="800px" viewBox="0 0 24 24" fill="none" xmlns="http://www.w3.org/2000/svg">
<path d="M13.5 11V7L16.5 11V7M7.5 7V9.5C7.5 10.3284 8.17157 11 9 11C9.82843 11 10.5 10.3284 10.5 9.5V7M15.2 21H8.8C7.11984 21 6.27976 21 5.63803 20.673C5.07354 20.3854 4.6146 19.9265 4.32698 19.362C4 18.7202 4 17.8802 4 16.2V7.8C4 6.11984 4 5.27976 4.32698 4.63803C4.6146 4.07354 5.07354 3.6146 5.63803 3.32698C6.27976 3 7.11984 3 8.8 3H15.2C16.8802 3 17.7202 3 18.362 3.32698C18.9265 3.6146 19.3854 4.07354 19.673 4.63803C20 5.27976 20 6.11984 20 7.8V16.2C20 17.8802 20 18.7202 19.673 19.362C19.3854 19.9265 18.9265 20.3854 18.362 20.673C17.7202 21 16.8802 21 15.2 21ZM14 21V17C14 15.8954 13.1046 15 12 15C10.8954 15 10 15.8954 10 17V21H14Z" stroke="#000000" stroke-width="2" stroke-linecap="round" stroke-linejoin="round"/>
</svg>