<?xml version="1.0" encoding="utf-8"?>
<svg width="800px" height="800px" viewBox="0 0 24 24" fill="none" xmlns="http://www.w3.org/2000/svg">
<path d="M13 4V11M8 5V10M11 14V19M16 13V20M4.6 10H19.4C19.9601 10 20.2401 10 20.454 9.89101C20.6422 9.79513 20.7951 9.64215 20.891 9.45399C21 9.24008 21 8.96005 21 8.4V6.6C21 6.03995 21 5.75992 20.891 5.54601C20.7951 5.35785 20.6422 5.20487 20.454 5.10899C20.2401 5 19.9601 5 19.4 5H4.6C4.03995 5 3.75992 5 3.54601 5.10899C3.35785 5.20487 3.20487 5.35785 3.10899 5.54601C3 5.75992 3 6.03995 3 6.6V8.4C3 8.96005 3 9.24008 3.10899 9.45399C3.20487 9.64215 3.35785 9.79513 3.54601 9.89101C3.75992 10 4.03995 10 4.6 10ZM4.6 19H19.4C19.9601 19 20.2401 19 20.454 18.891C20.6422 18.7951 20.7951 18.6422 20.891 18.454C21 18.2401 21 17.9601 21 17.4V15.6C21 15.0399 21 14.7599 20.891 14.546C20.7951 14.3578 20.6422 14.2049 20.454 14.109C20.2401 14 19.9601 14 19.4 14H4.6C4.03995 14 3.75992 14 3.54601 14.109C3.35785 14.2049 3.20487 14.3578 3.10899 14.546C3 14.7599 3 15.0399 3 15.6V17.4C3 17.9601 3 18.2401 3.10899 18.454C3.20487 18.6422 3.35785 18.7951 3.54601 18.891C3.75992 19 4.03995 19 4.6 19Z" stroke="#000000" stroke-width="2" stroke-linecap="round" stroke-linejoin="round"/>
</svg>