<?xml version="1.0" encoding="utf-8"?>
<svg width="800px" height="800px" viewBox="0 0 24 24" fill="none" xmlns="http://www.w3.org/2000/svg">
<path d="M19 9V16M19 16V21M19 16H14M10 9V16M10 16H5M10 16H14M5 16V9M5 16V21M14 16V21M4.6 9H19.4C19.9601 9 20.2401 9 20.454 8.89101C20.6422 8.79513 20.7951 8.64215 20.891 8.45399C21 8.24008 21 7.96005 21 7.4V4.6C21 4.03995 21 3.75992 20.891 3.54601C20.7951 3.35785 20.6422 3.20487 20.454 3.10899C20.2401 3 19.9601 3 19.4 3H4.6C4.03995 3 3.75992 3 3.54601 3.10899C3.35785 3.20487 3.20487 3.35785 3.10899 3.54601C3 3.75992 3 4.03995 3 4.6V7.4C3 7.96005 3 8.24008 3.10899 8.45399C3.20487 8.64215 3.35785 8.79513 3.54601 8.89101C3.75992 9 4.03995 9 4.6 9Z" stroke="#000000" stroke-width="2" stroke-linecap="round" stroke-linejoin="round"/>
</svg>