<?xml version="1.0" encoding="utf-8"?>
<svg width="800px" height="800px" viewBox="0 0 24 24" fill="none" xmlns="http://www.w3.org/2000/svg">
<path d="M11 10.5C11 11.0523 11.4477 11.5 12 11.5C12.5523 11.5 13 11.0523 13 10.5H11ZM13.6446 6.13848L14.4663 6.70839L14.4663 6.70839L13.6446 6.13848ZM10.3554 6.13847L9.53373 6.70839L10.3554 6.13847ZM10.6718 3.9923L9.83975 3.4376L10.6718 3.9923ZM12 2L12.8321 1.4453C12.6466 1.1671 12.3344 1 12 1C11.6656 1 11.3534 1.1671 11.1679 1.4453L12 2ZM13.3282 3.9923L12.4962 4.547V4.547L13.3282 3.9923ZM8 20V11H6V20H8ZM16 11C16 10.9126 16.0484 10.9305 15.92 11.0519C15.7894 11.1754 15.5468 11.3327 15.1641 11.4857C14.4043 11.7897 13.2861 12 12 12V14C13.4754 14 14.8571 13.7626 15.9069 13.3427C16.4291 13.1338 16.9187 12.8601 17.2942 12.505C17.6718 12.148 18 11.6397 18 11H16ZM12 12C10.7139 12 9.59568 11.7897 8.83586 11.4857C8.45317 11.3327 8.21059 11.1754 8.08003 11.0519C7.95159 10.9305 8 10.9126 8 11H6C6 11.6397 6.32823 12.148 6.70582 12.505C7.08129 12.8601 7.57094 13.1338 8.09308 13.3427C9.1429 13.7626 10.5246 14 12 14V12ZM8 11C8 11.0874 7.95159 11.0695 8.08003 10.9481C8.21059 10.8246 8.45317 10.6673 8.83586 10.5143C9.59568 10.2103 10.7139 10 12 10V8C10.5246 8 9.1429 8.23738 8.09308 8.65731C7.57094 8.86616 7.08129 9.13987 6.70582 9.49495C6.32823 9.85204 6 10.3603 6 11H8ZM12 10C13.2861 10 14.4043 10.2103 15.1641 10.5143C15.5468 10.6673 15.7894 10.8246 15.92 10.9481C16.0484 11.0695 16 11.0874 16 11H18C18 10.3603 17.6718 9.85204 17.2942 9.49495C16.9187 9.13987 16.4291 8.86616 15.9069 8.65731C14.8571 8.23738 13.4754 8 12 8V10ZM16 20C16 19.9126 16.0484 19.9305 15.92 20.0519C15.7894 20.1754 15.5468 20.3327 15.1641 20.4857C14.4043 20.7897 13.2861 21 12 21V23C13.4754 23 14.8571 22.7626 15.9069 22.3427C16.4291 22.1338 16.9187 21.8601 17.2942 21.505C17.6718 21.148 18 20.6397 18 20H16ZM12 21C10.7139 21 9.59568 20.7897 8.83586 20.4857C8.45317 20.3327 8.21059 20.1754 8.08003 20.0519C7.95159 19.9305 8 19.9126 8 20H6C6 20.6397 6.32823 21.148 6.70582 21.505C7.08129 21.8601 7.57094 22.1338 8.09308 22.3427C9.1429 22.7626 10.5246 23 12 23V21ZM13 10.5V7H11V10.5H13ZM12.8229 5.56856C12.6406 5.83132 12.3399 6 12 6V8C13.0232 8 13.9264 7.48684 14.4663 6.70839L12.8229 5.56856ZM12 6C11.6601 6 11.3594 5.83132 11.1771 5.56856L9.53373 6.70839C10.0736 7.48684 10.9768 8 12 8V6ZM11.5038 4.547L12.8321 2.5547L11.1679 1.4453L9.83975 3.4376L11.5038 4.547ZM11.1679 2.5547L12.4962 4.547L14.1603 3.4376L12.8321 1.4453L11.1679 2.5547ZM11.1771 5.56856C11.1529 5.53366 11.1178 5.46599 11.1581 5.27948C11.202 5.07597 11.3215 4.82058 11.5038 4.547L9.83975 3.4376C9.58409 3.82109 9.32035 4.31434 9.2031 4.85742C9.08218 5.41751 9.10788 6.09439 9.53373 6.70839L11.1771 5.56856ZM14.4663 6.70839C14.8921 6.09439 14.9178 5.41751 14.7969 4.85742C14.6797 4.31434 14.4159 3.82109 14.1603 3.4376L12.4962 4.547C12.6785 4.82058 12.798 5.07597 12.8419 5.27948C12.8822 5.46599 12.8471 5.53366 12.8229 5.56856L14.4663 6.70839ZM16 11V20H18V11H16Z" fill="#000000"/>
</svg>