<?xml version="1.0" encoding="utf-8"?>
<svg width="800px" height="800px" viewBox="0 0 24 24" fill="none" xmlns="http://www.w3.org/2000/svg">
<path d="M12.8615 6.80542L14.5461 10.3356L20 11.0939L16 15.2887L17.0922 21L12 18.7113L6.90783 21L8 15.2887L4 11.0939L9.45391 10.3356L11.1385 6.80542M12.8615 6.80542C13.5349 6.48354 14 5.7961 14 5C14 3.89543 13.1046 3 12 3C10.8954 3 10 3.89543 10 5C10 5.7961 10.4651 6.48354 11.1385 6.80542M12.8615 6.80542C12.6006 6.93014 12.3085 7 12 7C11.6915 7 11.3994 6.93014 11.1385 6.80542" stroke="#000000" stroke-width="2" stroke-linecap="round" stroke-linejoin="round"/>
</svg>