<?xml version="1.0" encoding="utf-8"?>
<svg width="800px" height="800px" viewBox="0 0 24 24" fill="none" xmlns="http://www.w3.org/2000/svg">
<path d="M14 7.14614C13.5 7.00383 12.6851 6.99859 12 7.00383C11.7709 7.00558 11.9094 6.9944 11.6 7.00383C10.7926 7.03273 10.0016 7.41781 10 8.50882C9.99825 9.67108 11 10.015 12 10.015C13 10.015 14 10.2803 14 11.5211C14 12.4536 13.1925 12.8621 12.1861 12.9974C11.3861 12.9974 11 13.0272 10 12.8838M12 13V14M12 6V7M21 17V17.8C21 18.9201 21 19.4802 20.782 19.908C20.5903 20.2843 20.2843 20.5903 19.908 20.782C19.4802 21 18.9201 21 17.8 21H6.2C5.0799 21 4.51984 21 4.09202 20.782C3.71569 20.5903 3.40973 20.2843 3.21799 19.908C3 19.4802 3 18.9201 3 17.8V17M19 10C19 13.866 15.866 17 12 17C8.13401 17 5 13.866 5 10C5 6.13401 8.13401 3 12 3C15.866 3 19 6.13401 19 10Z" stroke="#000000" stroke-width="2" stroke-linecap="round" stroke-linejoin="round"/>
</svg>