<?xml version="1.0" encoding="utf-8"?>
<svg width="800px" height="800px" viewBox="0 0 24 24" fill="none" xmlns="http://www.w3.org/2000/svg">
<path d="M10 3H15.8C16.9201 3 17.4802 3 17.908 3.21799C18.2843 3.40973 18.5903 3.71569 18.782 4.09202C19 4.51984 19 5.0799 19 6.2V9M19 9L17 7M19 9L21 7M6 18H18M6 9H9C9.93188 9 10.3978 9 10.7654 8.84776C11.2554 8.64477 11.6448 8.25542 11.8478 7.76537C12 7.39782 12 6.93188 12 6C12 5.06812 12 4.60218 11.8478 4.23463C11.6448 3.74458 11.2554 3.35523 10.7654 3.15224C10.3978 3 9.93188 3 9 3H6C5.06812 3 4.60218 3 4.23463 3.15224C3.74458 3.35523 3.35523 3.74458 3.15224 4.23463C3 4.60218 3 5.06812 3 6C3 6.93188 3 7.39782 3.15224 7.76537C3.35523 8.25542 3.74458 8.64477 4.23463 8.84776C4.60218 9 5.06812 9 6 9ZM6 21H18C18.9319 21 19.3978 21 19.7654 20.8478C20.2554 20.6448 20.6448 20.2554 20.8478 19.7654C21 19.3978 21 18.9319 21 18C21 17.0681 21 16.6022 20.8478 16.2346C20.6448 15.7446 20.2554 15.3552 19.7654 15.1522C19.3978 15 18.9319 15 18 15H6C5.06812 15 4.60218 15 4.23463 15.1522C3.74458 15.3552 3.35523 15.7446 3.15224 16.2346C3 16.6022 3 17.0681 3 18C3 18.9319 3 19.3978 3.15224 19.7654C3.35523 20.2554 3.74458 20.6448 4.23463 20.8478C4.60218 21 5.06812 21 6 21Z" stroke="#000000" stroke-width="2" stroke-linecap="round" stroke-linejoin="round"/>
</svg>