<?xml version="1.0" encoding="utf-8"?>
<svg width="800px" height="800px" viewBox="0 0 24 24" fill="none" xmlns="http://www.w3.org/2000/svg">
<path d="M4 3V21M20 3V21M10.6 18H13.4C13.9601 18 14.2401 18 14.454 17.891C14.6422 17.7951 14.7951 17.6422 14.891 17.454C15 17.2401 15 16.9601 15 16.4V7.6C15 7.03995 15 6.75992 14.891 6.54601C14.7951 6.35785 14.6422 6.20487 14.454 6.10899C14.2401 6 13.9601 6 13.4 6H10.6C10.0399 6 9.75992 6 9.54601 6.10899C9.35785 6.20487 9.20487 6.35785 9.10899 6.54601C9 6.75992 9 7.03995 9 7.6V16.4C9 16.9601 9 17.2401 9.10899 17.454C9.20487 17.6422 9.35785 17.7951 9.54601 17.891C9.75992 18 10.0399 18 10.6 18Z" stroke="#000000" stroke-width="2" stroke-linecap="round" stroke-linejoin="round"/>
</svg>