<?xml version="1.0" encoding="utf-8"?>
<svg width="800px" height="800px" viewBox="0 0 24 24" fill="none" xmlns="http://www.w3.org/2000/svg">
<path d="M19.9381 11C20.0694 11 20.2614 11.0259 20.3827 11.0761C20.504 11.1264 20.6142 11.2 20.7071 11.2929C20.8 11.3858 20.8736 11.496 20.9239 11.6173C20.9741 11.7386 21 11.8687 21 12C21 12.1313 20.9741 12.2614 20.9239 12.3827C20.8736 12.504 20.8 12.6142 20.7071 12.7071C20.6142 12.8 20.504 12.8736 20.3827 12.9239C20.2614 12.9741 20.0694 13 19.9381 13M20 12C20 7.58172 16.4183 4 12 4M20 12H16M20 12C20 13.3471 19.667 14.6165 19.0789 15.7303M4.06189 13C3.93057 13 3.73864 12.9741 3.61732 12.9239C3.49599 12.8736 3.38575 12.8 3.29289 12.7071C3.20003 12.6142 3.12638 12.504 3.07612 12.3827C3.02587 12.2614 3 12.1313 3 12C3 11.8687 3.02587 11.7386 3.07612 11.6173C3.12638 11.496 3.20003 11.3858 3.29289 11.2929C3.38575 11.2 3.49599 11.1264 3.61732 11.0761C3.73864 11.0259 3.93057 11 4.06189 11M4 12H8M4 12C4 9.79086 4.89543 7.79086 6.34315 6.34315M4 12C4 13.3476 4.33322 14.6175 4.92177 15.7315M5.57113 7.23788C5.46796 7.13471 5.3625 6.98884 5.30666 6.85404C5.25082 6.71923 5.22208 6.57475 5.22208 6.42883C5.22208 6.28292 5.25082 6.13844 5.30666 6.00363C5.3625 5.86882 5.44434 5.74633 5.54752 5.64316C5.65069 5.53998 5.77318 5.45814 5.90799 5.4023C6.0428 5.34646 6.18728 5.31772 6.33319 5.31772C6.47911 5.31772 6.62359 5.34646 6.7584 5.4023C6.8932 5.45814 7.01758 5.55654 7.12075 5.65971M16.8576 5.6431C16.9608 5.53992 17.1067 5.45808 17.2415 5.40224C17.3763 5.3464 17.5208 5.31766 17.6667 5.31766C17.8127 5.31766 17.9571 5.3464 18.092 5.40224C18.2268 5.45808 18.3492 5.53992 18.4524 5.6431C18.5556 5.74628 18.6374 5.86876 18.6933 6.00357C18.7491 6.13838 18.7779 6.28286 18.7779 6.42877C18.7779 6.57469 18.7491 6.71917 18.6933 6.85398C18.6374 6.98878 18.533 7.13601 18.4298 7.23918M11 4.06189C11 3.93057 11.0259 3.73864 11.0761 3.61732C11.1264 3.49599 11.2 3.38575 11.2929 3.29289C11.3858 3.20003 11.496 3.12638 11.6173 3.07612C11.7386 3.02587 11.8687 3 12 3C12.1313 3 12.2614 3.02587 12.3827 3.07612C12.504 3.12638 12.6142 3.20003 12.7071 3.29289C12.8 3.38575 12.8736 3.49599 12.9239 3.61732C12.9741 3.73864 13 3.93057 13 4.06189M12 4V8M12 4C9.79086 4 7.79086 4.89543 6.34315 6.34315M9 9L6.34315 6.34315M15 9L17.6667 6.35306M11.5938 12.914C11.7179 12.9693 11.8554 13 12 13C12.1446 13 12.2821 12.9693 12.4062 12.914M11.5938 12.914C11.2439 12.7583 11 12.4076 11 12C11 11.4477 11.4477 11 12 11C12.5523 11 13 11.4477 13 12C13 12.4076 12.7561 12.7583 12.4062 12.914M11.5938 12.914L8 21H16L12.4062 12.914M4.92177 15.7315C4.9035 15.7389 4.88542 15.7468 4.86753 15.7551C4.73529 15.8168 4.61649 15.9039 4.51791 16.0114C4.41933 16.119 4.34291 16.245 4.293 16.3821C4.2431 16.5192 4.22069 16.6648 4.22705 16.8106C4.23342 16.9563 4.26843 17.0994 4.3301 17.2317C4.39176 17.3639 4.47887 17.4827 4.58645 17.5813C4.69403 17.6799 4.81997 17.7563 4.95708 17.8062L5.71713 15.718C5.58001 15.6681 5.43441 15.6457 5.28864 15.652C5.16258 15.6576 5.03853 15.6845 4.92177 15.7315ZM19.0789 15.7303C18.9631 15.684 18.8401 15.6576 18.7152 15.6521C18.5695 15.6457 18.4239 15.6681 18.2867 15.7181L19.0468 17.8063C19.1839 17.7564 19.3098 17.6799 19.4174 17.5814C19.525 17.4828 19.6121 17.364 19.6738 17.2317C19.7354 17.0995 19.7705 16.9564 19.7768 16.8106C19.7832 16.6648 19.7608 16.5192 19.7109 16.3821C19.661 16.245 19.5845 16.1191 19.486 16.0115C19.3874 15.9039 19.2686 15.8168 19.1363 15.7551C19.1174 15.7463 19.0982 15.738 19.0789 15.7303ZM12 12H12.01" stroke="#000000" stroke-width="2" stroke-linecap="round" stroke-linejoin="round"/>
</svg>