<?xml version="1.0" encoding="utf-8"?>
<svg width="800px" height="800px" viewBox="0 0 24 24" fill="none" xmlns="http://www.w3.org/2000/svg">
<path d="M12 3H7.2C6.0799 3 5.51984 3 5.09202 3.21799C4.71569 3.40973 4.40973 3.71569 4.21799 4.09202C4 4.51984 4 5.0799 4 6.2V17.8C4 18.9201 4 19.4802 4.21799 19.908C4.40973 20.2843 4.71569 20.5903 5.09202 20.782C5.51984 21 6.0799 21 7.2 21H9M12 3L18 9M12 3V7.4C12 7.96005 12 8.24008 12.109 8.45399C12.2049 8.64215 12.3578 8.79513 12.546 8.89101C12.7599 9 13.0399 9 13.6 9H18M18 9V10M8 17H10M8 13H11M8 9H9M19 18.0039V17C19 15.8954 18.1046 15 17 15C15.8954 15 15 15.8954 15 17V18.0039M15.5 21H18.5C18.9659 21 19.1989 21 19.3827 20.9239C19.6277 20.8224 19.8224 20.6277 19.9239 20.3827C20 20.1989 20 19.9659 20 19.5C20 19.0341 20 18.8011 19.9239 18.6173C19.8224 18.3723 19.6277 18.1776 19.3827 18.0761C19.1989 18 18.9659 18 18.5 18H15.5C15.0341 18 14.8011 18 14.6173 18.0761C14.3723 18.1776 14.1776 18.3723 14.0761 18.6173C14 18.8011 14 19.0341 14 19.5C14 19.9659 14 20.1989 14.0761 20.3827C14.1776 20.6277 14.3723 20.8224 14.6173 20.9239C14.8011 21 15.0341 21 15.5 21Z" stroke="#000000" stroke-width="2" stroke-linecap="round" stroke-linejoin="round"/>
</svg>