<?xml version="1.0" encoding="utf-8"?>
<svg width="800px" height="800px" viewBox="0 0 24 24" fill="none" xmlns="http://www.w3.org/2000/svg">
<path d="M17 5H10.2C9.0799 5 8.51984 5 8.09202 5.21799C7.71569 5.40973 7.40973 5.71569 7.21799 6.09202C7 6.51984 7 7.0799 7 8.2V11.8C7 12.9201 7 13.4802 7.21799 13.908C7.40973 14.2843 7.71569 14.5903 8.09202 14.782C8.51984 15 9.0799 15 10.2 15H17.8C18.9201 15 19.4802 15 19.908 14.782C20.2843 14.5903 20.5903 14.2843 20.782 13.908C21 13.4802 21 12.9201 21 11.8V9M17 5L21 9M17 5V7.4C17 7.96005 17 8.24008 17.109 8.45399C17.2049 8.64215 17.3578 8.79513 17.546 8.89101C17.7599 9 18.0399 9 18.6 9H21M17 19H9.4C7.15979 19 6.03969 19 5.18404 18.564C4.43139 18.1805 3.81947 17.5686 3.43597 16.816C3 15.9603 3 14.8402 3 12.6V9" stroke="#000000" stroke-width="2" stroke-linecap="round" stroke-linejoin="round"/>
</svg>