<?xml version="1.0" encoding="utf-8"?>
<svg width="800px" height="800px" viewBox="0 0 24 24" fill="none" xmlns="http://www.w3.org/2000/svg">
<path d="M3 4H21M3 8H21M19 4V20M5 4V20M13.7678 19.219C12.7915 20.2604 11.2085 20.2604 10.2322 19.219C9.74408 18.6983 9.5 18.0158 9.5 17.3333C9.5 16.6509 9.74408 15.9684 10.2322 15.4477C10.2322 15.4477 10.4375 16 11.0625 16.3333C11.0625 15.6667 11.2188 14.6667 11.9956 14C12.625 14.6667 13.2785 14.9258 13.7678 15.4477C14.2559 15.9684 14.5 16.6509 14.5 17.3333C14.5 18.0158 14.2559 18.6983 13.7678 19.219Z" stroke="#000000" stroke-width="2" stroke-linecap="round" stroke-linejoin="round"/>
</svg>