<?xml version="1.0" encoding="utf-8"?>
<svg width="800px" height="800px" viewBox="0 0 24 24" fill="none" xmlns="http://www.w3.org/2000/svg">
<path d="M9 3V5.4C9 5.96005 9 6.24008 9.10899 6.45399C9.20487 6.64215 9.35785 6.79513 9.54601 6.89101C9.75992 7 10.0399 7 10.6 7H12.4C12.9601 7 13.2401 7 13.454 6.89101C13.6422 6.79513 13.7951 6.64215 13.891 6.45399C14 6.24008 14 5.96005 14 5.4V3.004M19 9.1225V17.8C19 18.9201 19 19.4802 18.782 19.908C18.5903 20.2843 18.2843 20.5903 17.908 20.782C17.4802 21 16.9201 21 15.8 21H8.2C7.07989 21 6.51984 21 6.09202 20.782C5.71569 20.5903 5.40973 20.2843 5.21799 19.908C5 19.4802 5 18.9201 5 17.8V6.2C5 5.07989 5 4.51984 5.21799 4.09202C5.40973 3.71569 5.71569 3.40973 6.09202 3.21799C6.51984 3 7.07989 3 8.2 3H13.462C14.0268 3 14.3092 3 14.5699 3.07183C14.8009 3.13546 15.0186 3.24008 15.2126 3.3807C15.4315 3.53943 15.608 3.75994 15.9608 4.20098L18.2988 7.12348C18.5587 7.44834 18.6886 7.61078 18.781 7.79166C18.863 7.95213 18.9229 8.12295 18.9592 8.29948C19 8.49845 19 8.70646 19 9.1225ZM14 15.5C14 16.8807 12.8807 18 11.5 18C10.1193 18 9 16.8807 9 15.5C9 14.1193 10.1193 13 11.5 13C12.8807 13 14 14.1193 14 15.5Z" stroke="#000000" stroke-width="2" stroke-linecap="round" stroke-linejoin="round"/>
</svg>