<?xml version="1.0" encoding="utf-8"?>
<svg width="800px" height="800px" viewBox="0 0 24 24" fill="none" xmlns="http://www.w3.org/2000/svg">
<path d="M5.6 20H18.4C18.9601 20 19.2401 20 19.454 19.891C19.6422 19.7951 19.7951 19.6422 19.891 19.454C20 19.2401 20 18.9601 20 18.4V6.93137C20 6.32556 20 6.02265 19.8802 5.88238C19.7763 5.76068 19.6203 5.69609 19.4608 5.70865C19.2769 5.72312 19.0627 5.93731 18.6343 6.36569L15.3657 9.63431C14.9373 10.0627 14.7231 10.2769 14.5392 10.2914C14.3797 10.3039 14.2237 10.2393 14.1198 10.1176C14 9.97735 14 9.67445 14 9.06863V6.93137C14 6.32556 14 6.02265 13.8802 5.88238C13.7763 5.76068 13.6203 5.69609 13.4608 5.70865C13.2769 5.72312 13.0627 5.93731 12.6343 6.36569L9.36569 9.63431C8.93731 10.0627 8.72312 10.2769 8.53923 10.2914C8.37967 10.3039 8.22374 10.2393 8.1198 10.1176C8 9.97735 8 9.67445 8 9.06863V4.8C8 4.51997 8 4.37996 7.9455 4.273C7.89757 4.17892 7.82108 4.10243 7.727 4.0545C7.62004 4 7.48003 4 7.2 4H4.8C4.51997 4 4.37996 4 4.273 4.0545C4.17892 4.10243 4.10243 4.17892 4.0545 4.273C4 4.37996 4 4.51997 4 4.8V18.4C4 18.9601 4 19.2401 4.10899 19.454C4.20487 19.6422 4.35785 19.7951 4.54601 19.891C4.75992 20 5.03995 20 5.6 20Z" stroke="#000000" stroke-width="2" stroke-linecap="round" stroke-linejoin="round"/>
</svg>