<?xml version="1.0" encoding="utf-8"?>
<svg width="800px" height="800px" viewBox="0 0 24 24" fill="none" xmlns="http://www.w3.org/2000/svg">
<path d="M13 4H17.8C18.9201 4 19.4802 4 19.908 4.21799C20.2843 4.40973 20.5903 4.71569 20.782 5.09202C21 5.51984 21 6.0799 21 7.2V16M3 16V14M8.87263 4.20378C8.80442 4.20789 8.73575 4.20997 8.66667 4.20997C7.64218 4.20997 6.70766 3.75244 5.99998 3C5.2923 3.75241 4.3578 4.20993 3.33333 4.20993C3.26426 4.20993 3.19559 4.20785 3.12738 4.20373C3.04423 4.58531 3 4.98548 3 5.39793C3 7.61207 4.27477 9.4725 6 10C7.72523 9.4725 9 7.61207 9 5.39793C9 4.9855 8.95577 4.58534 8.87263 4.20378ZM2 16H22V16.8C22 17.9201 22 18.4802 21.782 18.908C21.5903 19.2843 21.2843 19.5903 20.908 19.782C20.4802 20 19.9201 20 18.8 20H5.2C4.0799 20 3.51984 20 3.09202 19.782C2.71569 19.5903 2.40973 19.2843 2.21799 18.908C2 18.4802 2 17.9201 2 16.8V16Z" stroke="#000000" stroke-width="2" stroke-linecap="round" stroke-linejoin="round"/>
</svg>