<?xml version="1.0" encoding="utf-8"?>
<svg width="800px" height="800px" viewBox="0 0 24 24" fill="none" xmlns="http://www.w3.org/2000/svg">
<path d="M6 3C6 2.44772 5.55228 2 5 2C4.44772 2 4 2.44772 4 3H6ZM4 6C4 6.55228 4.44772 7 5 7C5.55228 7 6 6.55228 6 6H4ZM5 8C4.44772 8 4 8.44772 4 9C4 9.55228 4.44772 10 5 10V8ZM5.01 10C5.56228 10 6.01 9.55228 6.01 9C6.01 8.44772 5.56228 8 5.01 8V10ZM9 3C8.44772 3 8 3.44772 8 4C8 4.55228 8.44772 5 9 5V3ZM20 16C20 16.5523 20.4477 17 21 17C21.5523 17 22 16.5523 22 16H20ZM19.908 4.21799L19.454 5.10899V5.10899L19.908 4.21799ZM20.782 5.09202L19.891 5.54601V5.54601L20.782 5.09202ZM2 16C2 16.5523 2.44772 17 3 17C3.55228 17 4 16.5523 4 16H2ZM4 13C4 12.4477 3.55228 12 3 12C2.44772 12 2 12.4477 2 13H4ZM2 16V15C1.44772 15 1 15.4477 1 16H2ZM22 16H23C23 15.4477 22.5523 15 22 15V16ZM3.09202 19.782L3.54601 18.891L3.09202 19.782ZM2.21799 18.908L3.10899 18.454L2.21799 18.908ZM21.782 18.908L20.891 18.454L21.782 18.908ZM20.908 19.782L20.454 18.891L20.908 19.782ZM4 3V6H6V3H4ZM5 10H5.01V8H5V10ZM9 5H17.8V3H9V5ZM20 7.2V16H22V7.2H20ZM17.8 5C18.3766 5 18.7488 5.00078 19.0322 5.02393C19.3038 5.04612 19.4045 5.0838 19.454 5.10899L20.362 3.32698C19.9836 3.13419 19.5904 3.06287 19.195 3.03057C18.8114 2.99922 18.3436 3 17.8 3V5ZM22 7.2C22 6.65645 22.0008 6.18864 21.9694 5.80497C21.9371 5.40963 21.8658 5.01641 21.673 4.63803L19.891 5.54601C19.9162 5.59545 19.9539 5.69617 19.9761 5.96784C19.9992 6.25117 20 6.62345 20 7.2H22ZM19.454 5.10899C19.6422 5.20487 19.7951 5.35785 19.891 5.54601L21.673 4.63803C21.3854 4.07354 20.9265 3.6146 20.362 3.32698L19.454 5.10899ZM4 16V13H2V16H4ZM2 17H22V15H2V17ZM21 16V16.8H23V16H21ZM18.8 19H5.2V21H18.8V19ZM3 16.8V16H1V16.8H3ZM5.2 19C4.62345 19 4.25117 18.9992 3.96784 18.9761C3.69617 18.9539 3.59545 18.9162 3.54601 18.891L2.63803 20.673C3.01641 20.8658 3.40963 20.9371 3.80497 20.9694C4.18864 21.0008 4.65645 21 5.2 21V19ZM1 16.8C1 17.3436 0.999222 17.8114 1.03057 18.195C1.06287 18.5904 1.13419 18.9836 1.32698 19.362L3.10899 18.454C3.0838 18.4045 3.04612 18.3038 3.02393 18.0322C3.00078 17.7488 3 17.3766 3 16.8H1ZM3.54601 18.891C3.35785 18.7951 3.20487 18.6422 3.10899 18.454L1.32698 19.362C1.6146 19.9265 2.07354 20.3854 2.63803 20.673L3.54601 18.891ZM21 16.8C21 17.3766 20.9992 17.7488 20.9761 18.0322C20.9539 18.3038 20.9162 18.4045 20.891 18.454L22.673 19.362C22.8658 18.9836 22.9371 18.5904 22.9694 18.195C23.0008 17.8114 23 17.3436 23 16.8H21ZM18.8 21C19.3436 21 19.8114 21.0008 20.195 20.9694C20.5904 20.9371 20.9836 20.8658 21.362 20.673L20.454 18.891C20.4045 18.9162 20.3038 18.9539 20.0322 18.9761C19.7488 18.9992 19.3766 19 18.8 19V21ZM20.891 18.454C20.7951 18.6422 20.6422 18.7951 20.454 18.891L21.362 20.673C21.9265 20.3854 22.3854 19.9265 22.673 19.362L20.891 18.454Z" fill="#000000"/>
</svg>