<?xml version="1.0" encoding="utf-8"?>
<svg width="800px" height="800px" viewBox="0 0 24 24" fill="none" xmlns="http://www.w3.org/2000/svg">
<path d="M21 4.49991C20.5 4.37589 19.6851 4.37133 19 4.37589C18.7709 4.37742 18.9094 4.36768 18.6 4.37589C17.7926 4.40108 17.0017 4.73666 17 5.68741C16.9983 6.70025 18 6.99991 19 6.99991C20 6.99991 21 7.23111 21 8.31241C21 9.125 20.1925 9.48106 19.1861 9.59896C18.3861 9.59896 18 9.62491 17 9.49991M19 10V11M19 3V4M13 3H7.20003C6.07992 3 5.51987 3 5.09205 3.21799C4.71572 3.40973 4.40976 3.71569 4.21801 4.09202C4.00003 4.51984 4.00003 5.0799 4.00003 6.2V11.8C4.00003 12.9201 4.00003 13.4802 4.21801 13.908C4.40976 14.2843 4.71572 14.5903 5.09205 14.782C5.51987 15 6.07992 15 7.20003 15H20M10 18H14M4.58888 21H19.4112C20.2684 21 20.697 21 20.9551 20.8195C21.1805 20.6618 21.3311 20.4183 21.3713 20.1462C21.4173 19.8345 21.2256 19.4512 20.8423 18.6845L20.3267 17.6534C19.8451 16.6902 19.6043 16.2086 19.2451 15.8567C18.9274 15.5456 18.5445 15.309 18.1241 15.164C17.6488 15 17.1103 15 16.0335 15H7.96659C6.88972 15 6.35128 15 5.87592 15.164C5.45554 15.309 5.07266 15.5456 4.75497 15.8567C4.39573 16.2086 4.15493 16.6902 3.67334 17.6534L3.1578 18.6845C2.77444 19.4512 2.58276 19.8345 2.6288 20.1462C2.669 20.4183 2.81952 20.6618 3.04492 20.8195C3.30306 21 3.73166 21 4.58888 21Z" stroke="#000000" stroke-width="2" stroke-linecap="round" stroke-linejoin="round"/>
</svg>