<?xml version="1.0" encoding="utf-8"?>
<svg width="800px" height="800px" viewBox="0 0 24 24" fill="none" xmlns="http://www.w3.org/2000/svg">
<path d="M11 20C11.5523 20 12 19.5523 12 19C12 18.4477 11.5523 18 11 18V20ZM20 11C20 11.5523 20.4477 12 21 12C21.5523 12 22 11.5523 22 11H20ZM3.21799 17.908L4.10899 17.454L4.10899 17.454L3.21799 17.908ZM4.09202 18.782L4.54601 17.891H4.54601L4.09202 18.782ZM19.908 5.21799L20.362 4.32698V4.32698L19.908 5.21799ZM20.782 6.09202L19.891 6.54601L19.891 6.54601L20.782 6.09202ZM4.09202 5.21799L3.63803 4.32698L3.63803 4.32698L4.09202 5.21799ZM3.21799 6.09202L2.32698 5.63803L2.32698 5.63803L3.21799 6.09202ZM15.5499 11.6335L16.1046 12.4655L15.5499 11.6335ZM21.1614 9.09434C21.621 8.78799 21.7451 8.16712 21.4388 7.70759C21.1324 7.24806 20.5116 7.12389 20.052 7.43024L21.1614 9.09434ZM3.70216 7.26658C3.24263 6.96023 2.62176 7.0844 2.31541 7.54393C2.00906 8.00346 2.13323 8.62433 2.59276 8.93068L3.70216 7.26658ZM8.44975 11.6335L9.00445 10.8014L8.44975 11.6335ZM12.932 13.0827L13.165 14.0552H13.165L12.932 13.0827ZM11.0677 13.0827L10.8346 14.0552H10.8346L11.0677 13.0827ZM6.2 6H17.8V4H6.2V6ZM4 15.8V8.2H2V15.8H4ZM11 18H6.2V20H11V18ZM20 8.2V11H22V8.2H20ZM2 15.8C2 16.3436 1.99922 16.8114 2.03057 17.195C2.06287 17.5904 2.13419 17.9836 2.32698 18.362L4.10899 17.454C4.0838 17.4045 4.04612 17.3038 4.02393 17.0322C4.00078 16.7488 4 16.3766 4 15.8H2ZM6.2 18C5.62345 18 5.25117 17.9992 4.96784 17.9761C4.69617 17.9539 4.59545 17.9162 4.54601 17.891L3.63803 19.673C4.01641 19.8658 4.40963 19.9371 4.80497 19.9694C5.18864 20.0008 5.65645 20 6.2 20V18ZM2.32698 18.362C2.6146 18.9265 3.07354 19.3854 3.63803 19.673L4.54601 17.891C4.35785 17.7951 4.20487 17.6422 4.10899 17.454L2.32698 18.362ZM17.8 6C18.3766 6 18.7488 6.00078 19.0322 6.02393C19.3038 6.04612 19.4045 6.0838 19.454 6.10899L20.362 4.32698C19.9836 4.13419 19.5904 4.06287 19.195 4.03057C18.8114 3.99922 18.3436 4 17.8 4V6ZM22 8.2C22 7.65645 22.0008 7.18864 21.9694 6.80497C21.9371 6.40963 21.8658 6.01641 21.673 5.63803L19.891 6.54601C19.9162 6.59545 19.9539 6.69617 19.9761 6.96784C19.9992 7.25117 20 7.62345 20 8.2H22ZM19.454 6.10899C19.6422 6.20487 19.7951 6.35785 19.891 6.54601L21.673 5.63803C21.3854 5.07354 20.9265 4.6146 20.362 4.32698L19.454 6.10899ZM6.2 4C5.65645 4 5.18864 3.99922 4.80497 4.03057C4.40963 4.06287 4.01641 4.13419 3.63803 4.32698L4.54601 6.10899C4.59545 6.0838 4.69617 6.04612 4.96784 6.02393C5.25117 6.00078 5.62345 6 6.2 6V4ZM4 8.2C4 7.62345 4.00078 7.25117 4.02393 6.96784C4.04612 6.69617 4.0838 6.59545 4.10899 6.54601L2.32698 5.63803C2.13419 6.01641 2.06287 6.40963 2.03057 6.80497C1.99922 7.18864 2 7.65645 2 8.2H4ZM3.63803 4.32698C3.07354 4.6146 2.6146 5.07354 2.32698 5.63803L4.10899 6.54601C4.20487 6.35785 4.35785 6.20487 4.54601 6.10899L3.63803 4.32698ZM16.1046 12.4655L21.1614 9.09434L20.052 7.43024L14.9952 10.8014L16.1046 12.4655ZM2.59276 8.93068L7.89505 12.4655L9.00445 10.8014L3.70216 7.26658L2.59276 8.93068ZM14.9952 10.8014C13.6468 11.7004 13.1773 11.9956 12.699 12.1102L13.165 14.0552C14.0734 13.8375 14.8869 13.2773 16.1046 12.4655L14.9952 10.8014ZM7.89505 12.4655C9.11273 13.2773 9.92625 13.8375 10.8346 14.0552L11.3007 12.1102C10.8223 11.9956 10.3528 11.7004 9.00445 10.8014L7.89505 12.4655ZM12.699 12.1102C12.2394 12.2203 11.7603 12.2203 11.3007 12.1102L10.8346 14.0552C11.6006 14.2387 12.3991 14.2387 13.165 14.0552L12.699 12.1102ZM16 18H20V16H16V18ZM20 18V19H22V18H20ZM20 19H16V21H20V19ZM16 19V18H14V19H16ZM16 19H14C14 20.1046 14.8954 21 16 21V19ZM20 19V21C21.1046 21 22 20.1046 22 19H20ZM20 18H22C22 16.8954 21.1046 16 20 16V18ZM16 16C14.8954 16 14 16.8954 14 18H16V16ZM17 17V16H15V17H17ZM19 16V17H21V16H19ZM18 15C18.5523 15 19 15.4477 19 16H21C21 14.3431 19.6569 13 18 13V15ZM17 16C17 15.4477 17.4477 15 18 15V13C16.3431 13 15 14.3431 15 16H17Z" fill="#000000"/>
</svg>