<?xml version="1.0" encoding="utf-8"?>
<svg width="800px" height="800px" viewBox="0 0 24 24" fill="none" xmlns="http://www.w3.org/2000/svg">
<path d="M8.00039 12H7.00039M17.0004 12H16.0004M12.0004 8.49997L15.5843 7.4248C16.0858 7.27436 16.3365 7.19914 16.5913 7.16822C16.8616 7.13541 17.1351 7.13955 17.4042 7.18053C17.658 7.21916 17.9063 7.30194 18.403 7.4675C19.9307 7.97675 20.6946 8.23138 21.1851 8.70624C21.7027 9.2074 22.0227 9.87809 22.0865 10.5957C22.147 11.2757 21.8643 12.0297 21.2988 13.5375L20.779 14.9236C20.4983 15.6722 20.358 16.0465 20.1149 16.3223C19.9001 16.566 19.6293 16.7537 19.3257 16.8692C18.9821 17 18.5823 17 17.7828 17H16.7558C16.4741 17 16.3332 17 16.1952 16.9807C16.0727 16.9635 15.952 16.935 15.8348 16.8956C15.7027 16.8511 15.5767 16.7881 15.3247 16.6621L14.8626 16.4311C13.8131 15.9063 13.2884 15.644 12.738 15.5407C12.2505 15.4492 11.7503 15.4492 11.2628 15.5407C10.7124 15.644 10.1877 15.9063 9.13823 16.4311L8.67606 16.6621C8.42407 16.7881 8.29807 16.8511 8.16603 16.8956C8.04876 16.935 7.92808 16.9635 7.80555 16.9807C7.66758 17 7.52671 17 7.24498 17H6.218C5.41848 17 5.01873 17 4.6751 16.8692C4.37153 16.7537 4.10067 16.566 3.88592 16.3223C3.64283 16.0465 3.50247 15.6722 3.22174 14.9236L2.70198 13.5375C2.13652 12.0297 1.8538 11.2757 1.91429 10.5957C1.97813 9.87809 2.2981 9.2074 2.81571 8.70624C3.30616 8.23138 4.07005 7.97675 5.59782 7.4675C6.09449 7.30194 6.34283 7.21916 6.59654 7.18053C6.86572 7.13955 7.13923 7.13541 7.40953 7.16822C7.66429 7.19914 7.91502 7.27436 8.41649 7.4248L12.0004 8.49997Z" stroke="#000000" stroke-width="2" stroke-linecap="round" stroke-linejoin="round"/>
</svg>