<?xml version="1.0" encoding="utf-8"?>
<svg width="800px" height="800px" viewBox="0 0 24 24" fill="none" xmlns="http://www.w3.org/2000/svg">
<path d="M9.87673 14.1194L14.1242 9.88161M15 12C15 13.6569 13.6569 15 12 15C10.3431 15 9 13.6569 9 12C9 10.3431 10.3431 9 12 9C13.6569 9 15 10.3431 15 12ZM21.0039 12C21.0039 16.9706 16.9745 21 12.0039 21C9.9675 21 3.00463 21 3.00463 21C3.00463 21 4.56382 17.2561 3.93982 16.0008C3.34076 14.7956 3.00391 13.4372 3.00391 12C3.00391 7.02944 7.03334 3 12.0039 3C16.9745 3 21.0039 7.02944 21.0039 12Z" stroke="#000000" stroke-width="2" stroke-linecap="round" stroke-linejoin="round"/>
</svg>