<?xml version="1.0" encoding="utf-8"?>
<svg width="800px" height="800px" viewBox="0 0 24 24" fill="none" xmlns="http://www.w3.org/2000/svg">
<path d="M3 21H21M3 18H21M5.82333 3.00037C6.2383 3.36683 6.5 3.90285 6.5 4.5C6.5 5.60457 5.60457 6.5 4.5 6.5C3.90285 6.5 3.36683 6.2383 3.00037 5.82333M5.82333 3.00037C5.94144 3 6.06676 3 6.2 3H17.8C17.9332 3 18.0586 3 18.1767 3.00037M5.82333 3.00037C4.94852 3.00308 4.46895 3.02593 4.09202 3.21799C3.71569 3.40973 3.40973 3.71569 3.21799 4.09202C3.02593 4.46895 3.00308 4.94852 3.00037 5.82333M3.00037 5.82333C3 5.94144 3 6.06676 3 6.2V11.8C3 11.9332 3 12.0586 3.00037 12.1767M3.00037 12.1767C3.36683 11.7617 3.90285 11.5 4.5 11.5C5.60457 11.5 6.5 12.3954 6.5 13.5C6.5 14.0971 6.2383 14.6332 5.82333 14.9996M3.00037 12.1767C3.00308 13.0515 3.02593 13.531 3.21799 13.908C3.40973 14.2843 3.71569 14.5903 4.09202 14.782C4.46895 14.9741 4.94852 14.9969 5.82333 14.9996M5.82333 14.9996C5.94144 15 6.06676 15 6.2 15H17.8C17.9332 15 18.0586 15 18.1767 14.9996M21 12.1771C20.6335 11.7619 20.0973 11.5 19.5 11.5C18.3954 11.5 17.5 12.3954 17.5 13.5C17.5 14.0971 17.7617 14.6332 18.1767 14.9996M21 12.1771C21.0004 12.0589 21 11.9334 21 11.8V6.2C21 6.06676 21 5.94144 20.9996 5.82333M21 12.1771C20.9973 13.0516 20.974 13.5311 20.782 13.908C20.5903 14.2843 20.2843 14.5903 19.908 14.782C19.5311 14.9741 19.0515 14.9969 18.1767 14.9996M20.9996 5.82333C20.6332 6.2383 20.0971 6.5 19.5 6.5C18.3954 6.5 17.5 5.60457 17.5 4.5C17.5 3.90285 17.7617 3.36683 18.1767 3.00037M20.9996 5.82333C20.9969 4.94852 20.9741 4.46895 20.782 4.09202C20.5903 3.71569 20.2843 3.40973 19.908 3.21799C19.5311 3.02593 19.0515 3.00308 18.1767 3.00037M14 9C14 10.1046 13.1046 11 12 11C10.8954 11 10 10.1046 10 9C10 7.89543 10.8954 7 12 7C13.1046 7 14 7.89543 14 9Z" stroke="#000000" stroke-width="2" stroke-linecap="round" stroke-linejoin="round"/>
</svg>