<?xml version="1.0" encoding="utf-8"?>
<svg width="800px" height="800px" viewBox="0 0 24 24" fill="none" xmlns="http://www.w3.org/2000/svg">
<path d="M4 20H20M11.2 16H12.8C13.9201 16 14.4802 16 14.908 15.782C15.2843 15.5903 15.5903 15.2843 15.782 14.908C16 14.4802 16 13.9201 16 12.8V7.2C16 6.0799 16 5.51984 15.782 5.09202C15.5903 4.71569 15.2843 4.40973 14.908 4.21799C14.4802 4 13.9201 4 12.8 4H11.2C10.0799 4 9.51984 4 9.09202 4.21799C8.71569 4.40973 8.40973 4.71569 8.21799 5.09202C8 5.51984 8 6.07989 8 7.2V12.8C8 13.9201 8 14.4802 8.21799 14.908C8.40973 15.2843 8.71569 15.5903 9.09202 15.782C9.51984 16 10.0799 16 11.2 16Z" stroke="#000000" stroke-width="2" stroke-linecap="round" stroke-linejoin="round"/>
</svg>