<?xml version="1.0" encoding="utf-8"?>
<svg width="800px" height="800px" viewBox="0 0 24 24" fill="none" xmlns="http://www.w3.org/2000/svg">
<path d="M10.7747 3.50725C11.2266 3.32005 11.4526 3.22645 11.6864 3.18942C11.8937 3.15659 12.1049 3.15659 12.3121 3.18942C12.5459 3.22645 12.7719 3.32005 13.2239 3.50725L17.1387 5.12881C17.5906 5.31601 17.8166 5.40961 18.0081 5.54875C18.1779 5.67211 18.3272 5.82142 18.4505 5.99121C18.5897 6.18272 18.6833 6.40869 18.8705 6.86064L20.492 10.7754C20.6792 11.2274 20.7728 11.4533 20.8099 11.6871C20.8427 11.8944 20.8427 12.1056 20.8099 12.3129C20.7728 12.5467 20.6792 12.7727 20.492 13.2246L18.8705 17.1394C18.6833 17.5913 18.5897 17.8173 18.4505 18.0088C18.3272 18.1786 18.1779 18.3279 18.0081 18.4513C17.8166 18.5904 17.5906 18.684 17.1387 18.8712L13.2239 20.4928C12.7719 20.68 12.5459 20.7736 12.3121 20.8106C12.1049 20.8434 11.8937 20.8434 11.6864 20.8106C11.4526 20.7736 11.2266 20.68 10.7747 20.4928L6.8599 18.8712C6.40796 18.684 6.18199 18.5904 5.99048 18.4513C5.82069 18.3279 5.67138 18.1786 5.54802 18.0088C5.40888 17.8173 5.31528 17.5913 5.12808 17.1394L3.50652 13.2246C3.31932 12.7727 3.22572 12.5467 3.18869 12.3129C3.15585 12.1056 3.15585 11.8944 3.18869 11.6871C3.22572 11.4533 3.31932 11.2274 3.50652 10.7754L5.12808 6.86064C5.31528 6.40869 5.40888 6.18272 5.54802 5.99121C5.67138 5.82142 5.82069 5.67211 5.99048 5.54875C6.18199 5.40961 6.40796 5.31601 6.8599 5.12881L10.7747 3.50725Z" stroke="#000000" stroke-width="2" stroke-linejoin="round"/>
</svg>