<?xml version="1.0" encoding="utf-8"?>
<svg width="800px" height="800px" viewBox="0 0 24 24" fill="none" xmlns="http://www.w3.org/2000/svg">
<path d="M13 6L14.8686 4.13137C15.2646 3.73536 15.4627 3.53735 15.691 3.46316C15.8918 3.3979 16.1082 3.3979 16.309 3.46316C16.5373 3.53735 16.7354 3.73535 17.1314 4.13137L19.8686 6.86863C20.2646 7.26465 20.4627 7.46265 20.5368 7.69098C20.6021 7.89183 20.6021 8.10817 20.5368 8.30902C20.4627 8.53735 20.2646 8.73535 19.8686 9.13137L18 11M13 6L11.9499 6.30002M13 6L18 11M3 21L5.63622 9.57637C5.73171 9.16261 5.77945 8.95573 5.86132 8.77473C6.04707 8.36411 6.36605 8.02826 6.76656 7.82162C6.94311 7.73054 7.14726 7.67221 7.55556 7.55556M3 21L14.4236 18.3638C14.8374 18.2683 15.0443 18.2206 15.2253 18.1387C15.6359 17.9529 15.9717 17.634 16.1784 17.2334C16.2695 17.0569 16.3278 16.8527 16.4444 16.4444M3 21L8.43934 15.5605M18 11L17.7 12.0501M3 3L21 21M11 14.5C11 15.3284 10.3284 16 9.5 16C8.67157 16 8 15.3284 8 14.5C8 13.6716 8.67157 13 9.5 13C10.3284 13 11 13.6716 11 14.5Z" stroke="#000000" stroke-width="2" stroke-linecap="round" stroke-linejoin="round"/>
</svg>