<?xml version="1.0" encoding="utf-8"?>
<svg width="800px" height="800px" viewBox="0 0 24 24" fill="none" xmlns="http://www.w3.org/2000/svg">
<path d="M11.8903 9.11013L6.52606 3.74585C6.13004 3.34983 5.93203 3.15182 5.7037 3.07763C5.50286 3.01237 5.28651 3.01237 5.08567 3.07763C4.85734 3.15182 4.65933 3.34983 4.26331 3.74584L3.69763 4.31153C3.30161 4.70755 3.1036 4.90555 3.02941 5.13388C2.96415 5.33473 2.96415 5.55107 3.02941 5.75192C3.1036 5.98024 3.30161 6.17826 3.69763 6.57427L9.06192 11.9386M14.7188 11.9386L20.0828 17.3026C20.4788 17.6986 20.6768 17.8966 20.751 18.125C20.8163 18.3258 20.8163 18.5422 20.751 18.743C20.6768 18.9713 20.4788 19.1693 20.0828 19.5654L19.5171 20.131C19.1211 20.5271 18.9231 20.7251 18.6948 20.7993C18.4939 20.8645 18.2776 20.8645 18.0767 20.7993C17.8484 20.7251 17.6504 20.5271 17.2544 20.131L11.8903 14.767M8.00024 6.99968L8.88946 6.10925M17.0002 15.9999L17.8945 15.1143M15.4998 5.50202L18.3282 8.33044M3 21.0018L3.04745 20.6696C3.21536 19.4942 3.29932 18.9066 3.49029 18.3579C3.65975 17.871 3.89124 17.408 4.17906 16.9803C4.50341 16.4984 4.92319 16.0786 5.76274 15.239L17.4107 3.59104C18.1918 2.80999 19.4581 2.80999 20.2392 3.59103C21.0202 4.37208 21.0202 5.63841 20.2392 6.41946L8.37744 18.2812C7.61579 19.0428 7.23497 19.4237 6.8012 19.7265C6.41618 19.9953 6.00093 20.218 5.56398 20.39C5.07171 20.5838 4.54375 20.6903 3.48793 20.9033L3 21.0018Z" stroke="#000000" stroke-width="2" stroke-linecap="round" stroke-linejoin="round"/>
</svg>