<?xml version="1.0" encoding="utf-8"?>
<svg width="800px" height="800px" viewBox="0 0 24 24" fill="none" xmlns="http://www.w3.org/2000/svg">
<path d="M13.325 7.67505L17.411 3.58902C18.192 2.80797 19.4584 2.80797 20.2394 3.58902C21.0205 4.37007 21.0205 5.6364 20.2394 6.41745L16.1534 10.5035M10.5 10.5L6.1026 14.8974C5.50491 15.4951 5.20606 15.7939 4.95434 16.1276C4.73078 16.424 4.53521 16.7404 4.37014 17.0729C4.18427 17.4473 4.05063 17.8483 3.78337 18.6501L3.00024 20.9998L5.43419 20.0599C6.14139 19.7868 6.495 19.6503 6.82584 19.4723C7.11972 19.3142 7.39989 19.1318 7.66345 18.9271C7.96016 18.6967 8.22819 18.4287 8.76425 17.8926L13.3284 13.3284M9.65685 17H7L7 14M3 3L21 21" stroke="#000000" stroke-width="2" stroke-linecap="round" stroke-linejoin="round"/>
</svg>