<?xml version="1.0" encoding="utf-8"?>
<svg width="800px" height="800px" viewBox="0 0 24 24" fill="none" xmlns="http://www.w3.org/2000/svg">
<path d="M20 18V7.8C20 6.11984 20 5.27976 19.673 4.63803C19.3854 4.07354 18.9265 3.6146 18.362 3.32698C17.7202 3 16.8802 3 15.2 3H8.8C7.11984 3 6.27976 3 5.63803 3.32698C5.07354 3.6146 4.6146 4.07354 4.32698 4.63803C4 5.27976 4 6.11984 4 7.8V18M20 18C20 19.6569 18.6569 21 17 21H7C5.34315 21 4 19.6569 4 18M20 18C20 16.3431 18.6569 15 17 15H7C5.34315 15 4 16.3431 4 18M11.5 6.5L10.5 9H13.5L12.5 11.5M7 18H9" stroke="#000000" stroke-width="2" stroke-linecap="round" stroke-linejoin="round"/>
</svg>