<?xml version="1.0" encoding="utf-8"?>
<svg width="800px" height="800px" viewBox="0 0 24 24" fill="none" xmlns="http://www.w3.org/2000/svg">
<path d="M5.01361 18.8356C4.92281 19.3804 5.29083 19.8956 5.8356 19.9864C6.38037 20.0772 6.8956 19.7092 6.98639 19.1644L5.01361 18.8356ZM7.5 10L8.48639 10.1644C8.55129 9.77507 8.38106 9.38396 8.05187 9.16611C7.72269 8.94826 7.29615 8.94445 6.96312 9.15638L7.5 10ZM2.8616 7.03803L3.85283 7.17019L2.8616 7.03803ZM3 6.00004L3.99123 6.1322C4.01769 5.93374 3.98397 5.7319 3.89443 5.55282L3 6.00004ZM2 4.00004L1.59386 3.08623C1.3443 3.19714 1.15096 3.40529 1.05874 3.66235C0.966521 3.9194 0.983441 4.20299 1.10557 4.44725L2 4.00004ZM18.5883 11.9418L17.6078 12.1379L17.6078 12.1379L18.5883 11.9418ZM19.0194 19.1962C19.1277 19.7377 19.6546 20.0889 20.1961 19.9806C20.7377 19.8723 21.0889 19.3455 20.9806 18.8039L19.0194 19.1962ZM15.9917 9.03415L16.1421 8.04552L15.9917 9.03415ZM18.3604 10.976L17.4205 11.3174L17.4205 11.3174L18.3604 10.976ZM2.93225 3.60017L3.27687 4.53891L3.27687 4.53891L2.93225 3.60017ZM10.9868 8.83459L9.98899 8.90093V8.90093L10.9868 8.83459ZM2.75369 10.3856L1.85545 10.8251L1.85545 10.8251L2.75369 10.3856ZM4.50841 11.5062L4.48753 12.5059L4.48753 12.5059L4.50841 11.5062ZM11 8.00004C10.4477 8.00004 10 8.44775 10 9.00004C10 9.55232 10.4477 10 11 10V8.00004ZM18 9.00004C17.4477 9.00004 17 9.44775 17 10C17 10.5523 17.4477 11 18 11V9.00004ZM21 13C21 13.5523 21.4477 14 22 14C22.5523 14 23 13.5523 23 13H21ZM22.6432 18.4899C23.0661 18.1347 23.1209 17.5039 22.7657 17.081C22.4104 16.6582 21.7796 16.6034 21.3568 16.9586L22.6432 18.4899ZM4.64324 16.9586C4.22037 16.6034 3.58958 16.6582 3.23433 17.081C2.87908 17.5039 2.9339 18.1347 3.35676 18.4899L4.64324 16.9586ZM16.5861 20.4061C16.8104 20.9108 17.4014 21.1381 17.9061 20.9138C18.4108 20.6895 18.6381 20.0985 18.4138 19.5938L16.5861 20.4061ZM15.614 15.7564L16.5278 15.3503C16.3394 14.9264 15.8842 14.6877 15.4284 14.7738L15.614 15.7564ZM7.58619 19.5939C7.36188 20.0986 7.58918 20.6895 8.09386 20.9138C8.59855 21.1381 9.18951 20.9108 9.41381 20.4062L7.58619 19.5939ZM10.386 15.7564L10.5716 14.7738C10.1158 14.6877 9.66063 14.9264 9.47223 15.3502L10.386 15.7564ZM6.98639 19.1644L8.48639 10.1644L6.51361 9.83564L5.01361 18.8356L6.98639 19.1644ZM3.85283 7.17019L3.99123 6.1322L2.00877 5.86787L1.87037 6.90586L3.85283 7.17019ZM3.89443 5.55282L2.89443 3.55282L1.10557 4.44725L2.10557 6.44725L3.89443 5.55282ZM10 9.84889V10H12V9.84889H10ZM16 10V9.00004H14V10H16ZM17.6078 12.1379L19.0194 19.1962L20.9806 18.8039L19.5689 11.7457L17.6078 12.1379ZM15 10C15.5461 10 15.7102 10.0028 15.8413 10.0228L16.1421 8.04552C15.8247 7.99724 15.4771 8.00004 15 8.00004V10ZM19.5689 11.7457C19.4754 11.2778 19.4099 10.9365 19.3004 10.6347L17.4205 11.3174C17.4657 11.4421 17.5007 11.6024 17.6078 12.1379L19.5689 11.7457ZM15.8413 10.0228C16.5649 10.1328 17.1706 10.6294 17.4205 11.3174L19.3004 10.6347C18.8007 9.25874 17.5893 8.26564 16.1421 8.04552L15.8413 10.0228ZM10 10C10 11.6569 11.3431 13 13 13V11C12.4477 11 12 10.5523 12 10H10ZM2.40614 4.91385C2.9203 4.68533 3.12942 4.59304 3.27687 4.53891L2.58762 2.66143C2.36103 2.74461 2.07332 2.87314 1.59386 3.08623L2.40614 4.91385ZM12 9.84889C12 9.32421 12.0006 9.0091 11.9846 8.76826L9.98899 8.90093C9.99941 9.05766 10 9.28623 10 9.84889H12ZM3.27687 4.53891C6.40926 3.38896 9.76764 5.57149 9.98899 8.90093L11.9846 8.76826C11.6747 4.10704 6.97296 1.05151 2.58762 2.66143L3.27687 4.53891ZM13 13C14.6569 13 16 11.6569 16 10H14C14 10.5523 13.5523 11 13 11V13ZM1.87037 6.90586C1.74801 7.82356 1.64762 8.57092 1.61591 9.15478C1.58526 9.7192 1.60324 10.3097 1.85545 10.8251L3.65192 9.9461C3.63817 9.918 3.58548 9.76937 3.61297 9.26323C3.6394 8.77652 3.72594 8.12186 3.85283 7.17019L1.87037 6.90586ZM6.96312 9.15638C6.15313 9.67183 5.59562 10.0257 5.16518 10.2544C4.71756 10.4923 4.56057 10.507 4.52928 10.5064L4.48753 12.5059C5.06124 12.5179 5.6045 12.2858 6.10366 12.0206C6.62001 11.7462 7.2558 11.3407 8.03688 10.8437L6.96312 9.15638ZM1.85545 10.8251C2.34904 11.8339 3.36473 12.4825 4.48753 12.5059L4.52928 10.5064C4.15501 10.4986 3.81645 10.2824 3.65192 9.9461L1.85545 10.8251ZM15 8.00004H11V10H15V8.00004ZM18 11H19V9.00004H18V11ZM19 11C20.1046 11 21 11.8955 21 13H23C23 10.7909 21.2091 9.00004 19 9.00004V11ZM21.3568 16.9586C19.0967 18.8573 16.1831 20.0001 13 20.0001V22.0001C16.671 22.0001 20.0363 20.6801 22.6432 18.4899L21.3568 16.9586ZM13 20.0001C9.81692 20.0001 6.90334 18.8573 4.64324 16.9586L3.35676 18.4899C5.96373 20.6801 9.32902 22.0001 13 22.0001V20.0001ZM18.4138 19.5938L16.5278 15.3503L14.7001 16.1625L16.5861 20.4061L18.4138 19.5938ZM9.41381 20.4062L11.2999 16.1625L9.47223 15.3502L7.58619 19.5939L9.41381 20.4062ZM15.4284 14.7738C14.6424 14.9222 13.8314 15 13.0007 15V17C13.9566 17 14.8919 16.9104 15.7995 16.739L15.4284 14.7738ZM13.0007 15C12.1699 15 11.3575 14.9222 10.5716 14.7738L10.2005 16.739C11.1082 16.9105 12.0448 17 13.0007 17V15Z" fill="#000000"/>
</svg>