<?xml version="1.0" encoding="utf-8"?>
<svg width="800px" height="800px" viewBox="0 0 24 24" fill="none" xmlns="http://www.w3.org/2000/svg">
<path d="M2 19V8C2 6.34315 3.34315 5 5 5C5.85772 5 6.63136 5.35995 7.17812 5.93703M6 5.17071V19M22.0001 10.5C22.0001 12.9853 19.9854 15 17.5001 15C16.2057 15 15.039 14.4535 14.2181 13.5788L7.1792 5.93817M22.0001 10.5C22.0001 8.01472 19.9854 6 17.5001 6C16.0864 6 14.825 6.65184 14 7.67134M22.0001 10.5L22 19M10 9.00011V19M14 13.3421V19M18 14.9725V19M18 6.02746V11" stroke="#000000" stroke-width="2" stroke-linecap="round"/>
</svg>