<?xml version="1.0" encoding="utf-8"?>
<svg width="800px" height="800px" viewBox="0 0 24 24" fill="none" xmlns="http://www.w3.org/2000/svg">
<path d="M16.999 17L12.5688 5.57989C13.1222 5.21342 13.7857 5 14.499 5C15.3041 5 16.0457 5.27181 16.637 5.72867C15.9492 4.12406 14.3554 3 12.499 3C10.7576 3 9.24715 3.98922 8.49904 5.4364L8.4668 5.5L4 17M4.6 21H16.4C16.9601 21 17.2401 21 17.454 20.891C17.6422 20.7951 17.7951 20.6422 17.891 20.454C18 20.2401 18 19.9601 18 19.4V18.6C18 18.0399 18 17.7599 17.891 17.546C17.7951 17.3578 17.6422 17.2049 17.454 17.109C17.2401 17 16.9601 17 16.4 17H4.6C4.03995 17 3.75992 17 3.54601 17.109C3.35785 17.2049 3.20487 17.3578 3.10899 17.546C3 17.7599 3 18.0399 3 18.6V19.4C3 19.9601 3 20.2401 3.10899 20.454C3.20487 20.6422 3.35785 20.7951 3.54601 20.891C3.75992 21 4.03995 21 4.6 21ZM18.2645 7.82535C18.4303 7.8839 18.6136 7.80797 18.6895 7.64929C18.8143 7.38837 19.1857 7.38837 19.3105 7.64929C19.3864 7.80797 19.5697 7.8839 19.7355 7.82535C20.0083 7.72908 20.2709 7.99173 20.1746 8.26446C20.1161 8.43031 20.192 8.61363 20.3507 8.68951C20.6116 8.81428 20.6116 9.18572 20.3507 9.31049C20.192 9.38637 20.1161 9.56969 20.1746 9.73554C20.2709 10.0083 20.0083 10.2709 19.7355 10.1746C19.5697 10.1161 19.3864 10.192 19.3105 10.3507C19.1857 10.6116 18.8143 10.6116 18.6895 10.3507C18.6136 10.192 18.4303 10.1161 18.2645 10.1746C17.9917 10.2709 17.7291 10.0083 17.8254 9.73554C17.8839 9.56969 17.808 9.38637 17.6493 9.31049C17.3884 9.18572 17.3884 8.81428 17.6493 8.68951C17.808 8.61363 17.8839 8.43031 17.8254 8.26446C17.7291 7.99173 17.9917 7.72908 18.2645 7.82535Z" stroke="#000000" stroke-width="2" stroke-linecap="round" stroke-linejoin="round"/>
</svg>