<?xml version="1.0" encoding="utf-8"?>
<svg width="800px" height="800px" viewBox="0 0 24 24" fill="none" xmlns="http://www.w3.org/2000/svg">
<path d="M6 9V13M10 9V13M20 12H22M20 8L22 6M22 18L20 16M5.2 19H12.8C13.9201 19 14.4802 19 14.908 18.782C15.2843 18.5903 15.5903 18.2843 15.782 17.908C16 17.4802 16 16.9201 16 15.8V8.2C16 7.0799 16 6.51984 15.782 6.09202C15.5903 5.71569 15.2843 5.40973 14.908 5.21799C14.4802 5 13.9201 5 12.8 5H5.2C4.0799 5 3.51984 5 3.09202 5.21799C2.71569 5.40973 2.40973 5.71569 2.21799 6.09202C2 6.51984 2 7.07989 2 8.2V15.8C2 16.9201 2 17.4802 2.21799 17.908C2.40973 18.2843 2.71569 18.5903 3.09202 18.782C3.51984 19 4.07989 19 5.2 19Z" stroke="#000000" stroke-width="2" stroke-linecap="round" stroke-linejoin="round"/>
</svg>