<?xml version="1.0" encoding="utf-8"?>
<svg width="800px" height="800px" viewBox="0 0 24 24" fill="none" xmlns="http://www.w3.org/2000/svg">
<path d="M8 8.5V8M14 6.5V8.34961M8.65039 3H13.462C14.0268 3 14.3092 3 14.5699 3.07183C14.8009 3.13546 15.0186 3.24008 15.2126 3.3807C15.4315 3.53943 15.608 3.75994 15.9608 4.20098L18.2988 7.12348C18.5587 7.44834 18.6886 7.61078 18.781 7.79166C18.863 7.95213 18.9229 8.12295 18.9592 8.29948C19 8.49845 19 8.70646 19 9.1225V13.3496M3 3L5.01811 5.01811M21 21L18.9819 18.9819M5.01811 5.01811C5 5.32914 5 5.71125 5 6.2V17.8C5 18.9201 5 19.4802 5.21799 19.908C5.40973 20.2843 5.71569 20.5903 6.09202 20.782C6.51984 21 7.0799 21 8.2 21H15.8C16.9201 21 17.4802 21 17.908 20.782C18.2843 20.5903 18.5903 20.2843 18.782 19.908C18.9049 19.6668 18.9585 19.3837 18.9819 18.9819M5.01811 5.01811L8 8M18.9819 18.9819L8 8" stroke="#000000" stroke-width="2" stroke-linecap="round" stroke-linejoin="round"/>
</svg>