<?xml version="1.0" encoding="utf-8"?>
<svg width="800px" height="800px" viewBox="0 0 24 24" fill="none" xmlns="http://www.w3.org/2000/svg">
<path d="M2 12C2.31566 12.2762 2.47348 12.4143 2.62328 12.5533C4.73938 14.5169 6.19676 17.0865 6.79584 19.9105C6.83825 20.1104 6.87576 20.3167 6.95079 20.7294L7 21M2 12C2.31565 11.7238 2.47347 11.5857 2.62327 11.4467C4.73938 9.48319 6.19676 6.9135 6.79584 4.08957C6.83824 3.88967 6.87576 3.68334 6.95079 3.27068L7 3M2 12H22M7 3C10.2097 4.2839 13.7903 4.2839 17 3M7 3L17 21M17 3L17.0492 3.27064C17.1242 3.68335 17.1618 3.8897 17.2042 4.08962C17.8033 6.9135 19.2606 9.48314 21.3767 11.4467C21.5265 11.5857 21.6843 11.7238 22 12M17 3L7 21M22 12C21.6843 12.2762 21.5265 12.4143 21.3767 12.5533C19.2606 14.5169 17.8032 17.0865 17.2042 19.9105C17.1618 20.1104 17.1242 20.3167 17.0492 20.7294L17 21M17 21C13.7903 19.7161 10.2097 19.7161 7 21M7 12C8.07273 13.2893 8.90219 14.7628 9.44793 16.3487L9.5 16.5C11.1503 16.1699 12.8497 16.1699 14.5 16.5L14.5521 16.3487C15.0978 14.7628 15.9273 13.2893 17 12C15.9273 10.7107 15.0978 9.23723 14.5521 7.65132L14.5 7.49999C12.8497 7.83005 11.1503 7.83005 9.5 7.49999L9.44793 7.65132C8.90219 9.23723 8.07273 10.7107 7 12Z" stroke="#000000" stroke-width="2" stroke-linecap="round" stroke-linejoin="round"/>
</svg>