<?xml version="1.0" encoding="utf-8"?>
<svg width="800px" height="800px" viewBox="0 0 24 24" fill="none" xmlns="http://www.w3.org/2000/svg">
<path d="M20.9999 8L19.8061 10.3876C19.3121 11.3758 18.3021 12 17.1972 12M3.19727 8L4.39107 10.3876C4.85614 11.3178 5.7783 11.9254 6.80639 11.9936M9.09445 9.74918C9.82354 10.5195 10.8556 11 12 11C13.1443 11 14.1764 10.5195 14.9055 9.74918M9.09445 9.74918C8.41603 9.03243 7.99997 8.0648 7.99997 7C7.99997 4.79086 9.79084 3 12 3C14.2091 3 16 4.79086 16 7C16 8.0648 15.5839 9.03243 14.9055 9.74918M9.09445 9.74918C8.14375 10.2764 7.35131 11.0543 6.80639 11.9936M14.9055 9.74918C16.7509 10.7725 18 12.7404 18 15C18 18.3137 15.3137 21 12 21C8.68627 21 5.99997 18.3137 5.99997 15C5.99997 13.9045 6.29358 12.8776 6.80639 11.9936M12 14H12.01M12 17H12.01" stroke="#000000" stroke-width="2" stroke-linecap="round" stroke-linejoin="round"/>
</svg>