<?xml version="1.0" encoding="utf-8"?>
<svg width="800px" height="800px" viewBox="0 0 24 24" fill="none" xmlns="http://www.w3.org/2000/svg">
<path d="M18 17V19.4C18 19.9601 18 20.2401 17.891 20.454C17.7951 20.6422 17.6422 20.7951 17.454 20.891C17.2401 21 16.9601 21 16.4 21H7.6C7.03995 21 6.75992 21 6.54601 20.891C6.35785 20.7951 6.20487 20.6422 6.10899 20.454C6 20.2401 6 19.9601 6 19.4V17M12 10H12.01M16 10C16 12.2091 14.2091 14 12 14C9.79086 14 8 12.2091 8 10C8 7.79086 9.79086 6 12 6C14.2091 6 16 7.79086 16 10ZM12.5 10C12.5 10.2761 12.2761 10.5 12 10.5C11.7239 10.5 11.5 10.2761 11.5 10C11.5 9.72386 11.7239 9.5 12 9.5C12.2761 9.5 12.5 9.72386 12.5 10ZM6.2 17H17.8C18.9201 17 19.4802 17 19.908 16.782C20.2843 16.5903 20.5903 16.2843 20.782 15.908C21 15.4802 21 14.9201 21 13.8V6.2C21 5.0799 21 4.51984 20.782 4.09202C20.5903 3.71569 20.2843 3.40973 19.908 3.21799C19.4802 3 18.9201 3 17.8 3H6.2C5.0799 3 4.51984 3 4.09202 3.21799C3.71569 3.40973 3.40973 3.71569 3.21799 4.09202C3 4.51984 3 5.07989 3 6.2V13.8C3 14.9201 3 15.4802 3.21799 15.908C3.40973 16.2843 3.71569 16.5903 4.09202 16.782C4.51984 17 5.07989 17 6.2 17Z" stroke="#000000" stroke-width="2" stroke-linecap="round" stroke-linejoin="round"/>
</svg>