<?xml version="1.0" encoding="utf-8"?>
<svg width="800px" height="800px" viewBox="0 0 24 24" fill="none" xmlns="http://www.w3.org/2000/svg">
<path d="M20 10.9993V7.19927C20 6.07916 20 5.51911 19.782 5.09129C19.5903 4.71496 19.2843 4.409 18.908 4.21725C18.4802 3.99927 17.9201 3.99927 16.8 3.99927H7.2C6.0799 3.99927 5.51984 3.99927 5.09202 4.21725C4.71569 4.409 4.40973 4.71496 4.21799 5.09129C4 5.51911 4 6.07916 4 7.19927V16.7993C4 17.9194 4 18.4794 4.21799 18.9072C4.40973 19.2836 4.71569 19.5895 5.09202 19.7813C5.51984 19.9993 6.0799 19.9993 7.2 19.9993H11M9.12109 12.9999H14.8823M8 15.9999L10.2708 9.75526C10.8037 8.28977 11.0701 7.55703 11.46 7.34968C11.7976 7.17012 12.2024 7.17012 12.54 7.34968C12.9299 7.55703 13.1963 8.28978 13.7292 9.75526L14.9091 12.9999M20 18.0038V16.9999C20 15.8953 19.1046 14.9999 18 14.9999C16.8954 14.9999 16 15.8953 16 16.9999V18.0038M16.5 20.9999H19.5C19.9659 20.9999 20.1989 20.9999 20.3827 20.9238C20.6277 20.8223 20.8224 20.6276 20.9239 20.3826C21 20.1988 21 19.9658 21 19.4999C21 19.034 21 18.801 20.9239 18.6172C20.8224 18.3722 20.6277 18.1775 20.3827 18.076C20.1989 17.9999 19.9659 17.9999 19.5 17.9999H16.5C16.0341 17.9999 15.8011 17.9999 15.6173 18.076C15.3723 18.1775 15.1776 18.3722 15.0761 18.6172C15 18.801 15 19.034 15 19.4999C15 19.9658 15 20.1988 15.0761 20.3826C15.1776 20.6276 15.3723 20.8223 15.6173 20.9238C15.8011 20.9999 16.0341 20.9999 16.5 20.9999Z" stroke="#000000" stroke-width="2" stroke-linecap="round" stroke-linejoin="round"/>
</svg>