<?xml version="1.0" encoding="utf-8"?>
<svg width="800px" height="800px" viewBox="0 0 24 24" fill="none" xmlns="http://www.w3.org/2000/svg">
<path d="M9.76065 10L14.1646 12.936C14.5692 13.2057 14.7715 13.3405 14.9316 13.513C15.0737 13.6659 15.1909 13.8401 15.279 14.0293C15.3785 14.2427 15.4272 14.4809 15.5246 14.9573L16.3678 19.0794C16.5024 19.7374 16.5697 20.0664 16.4814 20.324C16.404 20.55 16.2483 20.7408 16.0425 20.8619C15.8077 21 15.4719 21 14.8002 21H13.7606M9.76065 10L5.35671 12.936C4.95212 13.2057 4.74983 13.3405 4.58964 13.513C4.44762 13.6659 4.3304 13.8401 4.24225 14.0293C4.14283 14.2427 4.09411 14.4809 3.99666 14.9573L3.1535 19.0794C3.01891 19.7374 2.95161 20.0664 3.03986 20.324C3.11725 20.55 3.27297 20.7408 3.47884 20.8619C3.71357 21 4.04939 21 4.72105 21H9.76065M9.76065 10V15M9.76065 21H13.7606M9.76065 21V15M13.7606 21L9.76065 15M9.06982 6.51302C9.23001 6.34054 9.4323 6.20568 9.83689 5.93596L14.2408 3L18.6448 5.93596C19.0493 6.20568 19.2516 6.34054 19.4118 6.51302C19.5539 6.66594 19.6711 6.84014 19.7592 7.02931C19.8586 7.24267 19.9074 7.48086 20.0048 7.95725L20.848 12.0794C20.9826 12.7374 21.0499 13.0664 20.9616 13.324C20.8842 13.55 20.7285 13.7408 20.5226 13.8619C20.2879 14 19.9521 14 19.2804 14" stroke="#000000" stroke-width="2" stroke-linecap="round" stroke-linejoin="round"/>
</svg>