<?xml version="1.0" encoding="utf-8"?>
<svg width="800px" height="800px" viewBox="0 0 24 24" fill="none" xmlns="http://www.w3.org/2000/svg">
<path d="M6 3V9M6 9L4 7M6 9L8 7M18 3V9M18 9L16 7M18 9L20 7M12 9L7.26094 13.3082C6.9784 13.5651 6.83714 13.6935 6.72444 13.8429C6.62442 13.9754 6.5413 14.1199 6.47699 14.273C6.40453 14.4455 6.36453 14.6322 6.28452 15.0056L5.4147 19.0648C5.27277 19.7271 5.20181 20.0582 5.28885 20.3179C5.36518 20.5455 5.52089 20.7381 5.72752 20.8605C5.96315 21 6.30183 21 6.97918 21H17.0208C17.6982 21 18.0368 21 18.2725 20.8605C18.4791 20.7381 18.6348 20.5455 18.7111 20.3179C18.7982 20.0582 18.7272 19.7271 18.5853 19.0648L17.7155 15.0056C17.6355 14.6322 17.5955 14.4455 17.523 14.273C17.4587 14.1199 17.3756 13.9754 17.2756 13.8429C17.1629 13.6935 17.0216 13.5651 16.7391 13.3082L12 9ZM12 9V21M12 15L16 21" stroke="#000000" stroke-width="2" stroke-linecap="round" stroke-linejoin="round"/>
</svg>