<?xml version="1.0" encoding="utf-8"?>
<svg width="800px" height="800px" viewBox="0 0 24 24" fill="none" xmlns="http://www.w3.org/2000/svg">
<path d="M7 17.0001H8.34903C9.3274 17.0001 9.81658 17.0001 10.2769 16.8895C10.6851 16.7915 11.0753 16.6299 11.4331 16.4106C11.8368 16.1633 12.1827 15.8173 12.8745 15.1255L20 8.00006C21.1046 6.89549 21.1046 5.10463 20 4.00006C18.8954 2.89549 17.1046 2.89549 16 4.00006L8.87452 11.1255C8.18271 11.8173 7.83681 12.1633 7.58944 12.5669C7.37012 12.9248 7.20851 13.315 7.11052 13.7231C7 14.1835 7 14.6727 7 15.651V17.0001ZM7 17.0001L3 21.0001M9.5 10.5001L11 12.0001M12 8.00006L13.5 9.50006M14.5 5.50006L16 7.00006" stroke="#000000" stroke-width="2" stroke-linecap="round" stroke-linejoin="round"/>
</svg>