<?xml version="1.0" encoding="utf-8"?>
<svg width="800px" height="800px" viewBox="0 0 24 24" fill="none" xmlns="http://www.w3.org/2000/svg">
<path d="M15.0001 17.0001V21.0001H9.0001V17.0001M19.2784 17.0001H4.72182C4.17319 17.0001 3.89888 17.0001 3.76119 16.8884C3.64151 16.7913 3.57328 16.6445 3.57627 16.4904C3.5797 16.3131 3.75659 16.1035 4.11038 15.6842L6.13538 13.2842C6.22352 13.1797 6.26759 13.1275 6.32141 13.0899C6.36911 13.0567 6.42223 13.032 6.47841 13.017C6.5418 13.0001 6.61014 13.0001 6.74682 13.0001H17.2534C17.3901 13.0001 17.4584 13.0001 17.5218 13.017C17.578 13.032 17.6311 13.0567 17.6788 13.0899C17.7326 13.1275 17.7767 13.1797 17.8648 13.2842L19.8898 15.6842C20.2436 16.1035 20.4205 16.3131 20.4239 16.4904C20.4269 16.6445 20.3587 16.7913 20.239 16.8884C20.1013 17.0001 19.827 17.0001 19.2784 17.0001ZM5.60245 11.598L8.34531 9.198C8.42902 9.12476 8.47087 9.08813 8.51829 9.06203C8.56034 9.03889 8.60551 9.02191 8.6524 9.01164C8.70527 9.00006 8.76088 9.00006 8.87211 9.00006H15.1281C15.2393 9.00006 15.2949 9.00006 15.3478 9.01164C15.3947 9.02191 15.4399 9.03889 15.4819 9.06203C15.5293 9.08813 15.5712 9.12476 15.6549 9.198L18.3977 11.598C18.8937 12.032 19.1417 12.249 19.1655 12.4377C19.186 12.6011 19.1247 12.7642 19.0016 12.8737C18.8595 13.0001 18.53 13.0001 17.8709 13.0001H6.12926C5.4702 13.0001 5.14067 13.0001 4.99857 12.8737C4.87545 12.7642 4.81417 12.6011 4.83473 12.4377C4.85846 12.249 5.10646 12.032 5.60245 11.598ZM13.0414 3.89257L17.3581 7.59266C17.8653 8.02739 18.1189 8.24475 18.1441 8.43411C18.1659 8.59814 18.1052 8.76235 17.9819 8.87268C17.8395 9.00006 17.5055 9.00006 16.8375 9.00006H7.1627C6.4947 9.00006 6.1607 9.00006 6.01833 8.87268C5.89501 8.76235 5.83427 8.59814 5.85609 8.43411C5.88129 8.24475 6.13488 8.02739 6.64207 7.59266L10.9588 3.89257C11.3284 3.5758 11.5132 3.41741 11.7204 3.35704C11.9031 3.30384 12.0971 3.30384 12.2798 3.35704C12.487 3.41741 12.6718 3.5758 13.0414 3.89257Z" stroke="#000000" stroke-width="2" stroke-linejoin="round"/>
</svg>