<?xml version="1.0" encoding="utf-8"?>
<svg width="800px" height="800px" viewBox="0 0 24 24" fill="none" xmlns="http://www.w3.org/2000/svg">
<path d="M13.5003 13.5L16.0744 10.9259M20.0003 7L16.0744 10.9259M18.1123 14.3903L20.2274 17.986C21.0117 19.3192 20.0503 21 18.5035 21H5.49718C3.95034 21 2.98903 19.3192 3.77331 17.986L10.2765 6.93058C11.0498 5.61596 12.9509 5.61596 13.7242 6.93058L16.0744 10.9259M12.0003 5.94462V3M14.0003 15C14.0003 16.1046 13.1049 17 12.0003 17C10.8958 17 10.0003 16.1046 10.0003 15C10.0003 13.8954 10.8958 13 12.0003 13C13.1049 13 14.0003 13.8954 14.0003 15Z" stroke="#000000" stroke-width="2" stroke-linecap="round" stroke-linejoin="round"/>
</svg>