<?xml version="1.0" encoding="utf-8"?>
<svg width="800px" height="800px" viewBox="0 0 24 24" fill="none" xmlns="http://www.w3.org/2000/svg">
<path d="M7.99999 8.00003L10.2111 3.57774C10.9482 2.10364 13.0518 2.10364 13.7888 3.57774L16 8.00003M16 8.00003L13 7.00003M16 8.00003L17 5.00003M18.6699 12.5001L21.0284 16.415C21.8146 17.7199 20.7628 19.5417 19.2395 19.5134L14.6699 19.4283M14.6699 19.4283L16.9532 17.2824M14.6699 19.4283L16.5198 21.6511M5.33011 12.5001L2.97159 16.415C2.18541 17.7199 3.23721 19.5417 4.76044 19.5134L9.33011 19.4283M9.33011 19.4283L7.04679 17.2824M9.33011 19.4283L7.48013 21.6511M11.5 10.5001L9.99999 13.5001H14L12.5 16.5001" stroke="#000000" stroke-width="2" stroke-linecap="round" stroke-linejoin="round"/>
</svg>