<?xml version="1.0" encoding="utf-8"?>

<!DOCTYPE svg PUBLIC "-//W3C//DTD SVG 1.1//EN" "http://www.w3.org/Graphics/SVG/1.1/DTD/svg11.dtd">

<svg version="1.1" id="_x32_" xmlns="http://www.w3.org/2000/svg" xmlns:xlink="http://www.w3.org/1999/xlink" 
	 width="800px" height="800px" viewBox="0 0 512 512"  xml:space="preserve">
<style type="text/css">
<![CDATA[
	.st0{fill:#000000;}
]]>
</style>
<g>
	<path class="st0" d="M18.941,474.5c0,20.719,16.781,37.5,37.5,37.5h404.984c20.703,0,37.5-16.781,37.5-37.5V235.813H18.941V474.5z
		 M226.675,364v-54.156c0-0.781,0.422-1.484,1.078-1.859c0.672-0.375,1.484-0.359,2.141,0.031l90.75,54.172
		c0.641,0.375,1.031,1.078,1.031,1.813c0,0.75-0.391,1.453-1.031,1.828L229.894,420c-0.656,0.406-1.469,0.422-2.141,0.031
		c-0.656-0.375-1.078-1.078-1.078-1.859V364z"/>
	<polygon class="st0" points="82.285,144.531 128.972,212.016 193.3,212.016 146.613,144.531 	"/>
	<polygon class="st0" points="197.472,144.531 244.175,212.016 308.519,212.016 261.816,144.531 	"/>
	<path class="st0" d="M18.941,212.016h59.156L31.41,144.531l33.672-74.875l-21.313,3.953C23.41,77.375,9.941,96.906,13.707,117.281
		l5.234,28.375V212.016z"/>
	<polygon class="st0" points="312.675,144.531 359.363,212.016 423.722,212.016 377.019,144.531 	"/>
	<polygon class="st0" points="427.894,144.531 474.565,212.016 498.925,212.016 498.925,144.531 	"/>
	<polygon class="st0" points="178.363,48.766 115.097,60.438 81.441,135.281 144.707,123.609 	"/>
	<polygon class="st0" points="291.66,27.844 228.394,39.531 194.722,114.375 257.988,102.688 	"/>
	<polygon class="st0" points="404.957,6.938 341.675,18.625 308.019,93.469 371.285,81.781 	"/>
	<path class="st0" d="M485.706,30.172c-3-16.328-16.188-28.016-31.766-30.172L421.3,72.563l69.859-12.875L485.706,30.172z"/>
</g>
</svg>