<?xml version="1.0" encoding="utf-8"?>

<!DOCTYPE svg PUBLIC "-//W3C//DTD SVG 1.1//EN" "http://www.w3.org/Graphics/SVG/1.1/DTD/svg11.dtd">

<svg height="800px" width="800px" version="1.1" id="_x32_" xmlns="http://www.w3.org/2000/svg" xmlns:xlink="http://www.w3.org/1999/xlink" 
	 viewBox="0 0 512 512"  xml:space="preserve">
<style type="text/css">
	.st0{fill:#000000;}
</style>
<g>
	<path class="st0" d="M436.097,405.199c-13.077-18.419-32.744-28.504-51.117-35.111c-9.217-3.303-18.191-5.724-26.038-7.778
		c-7.824-2.055-14.576-3.791-18.93-5.442l-0.007,0.008c-1.035-0.388-2.078-0.852-3.128-1.263c0-8.494,0-15.412,0-18.252
		c-0.053-5.556-0.274-10.694-2.717-15.801c-1.233-2.512-3.288-5-6.059-6.607c-2.747-1.621-5.921-2.284-9.042-2.268
		c-1.058,0-1.781,0-2.961,0c0-1.553,0-3.258,0-4.932c9.803-10.641,26.335-27.568,32.485-54.862c2.04-0.913,4.072-1.948,6.012-3.318
		c4.818-3.319,8.897-8.136,12.353-14.697c3.493-6.584,6.576-15.002,9.872-26.525c1.667-5.846,2.436-10.922,2.436-15.436
		c0.008-5.213-1.065-9.727-3.036-13.396c-2.306-4.369-5.746-7.178-8.99-8.874l-0.685-22.955
		c16.95-3.372,27.774-12.141,29.722-30.872c4.635-44.48-46.17-86.738-115.615-98.268c0.266-0.876,0.464-1.804,0.556-2.748
		c0.83-7.901-4.681-14.933-12.315-15.725c-7.618-0.807-14.469,4.948-15.291,12.832c-0.106,0.959-0.106,1.903-0.023,2.816
		c-70.328-3.067-128.767,27.796-133.418,72.277c-2.085,19.995,7.947,31.023,25.94,37.721l-1.332,45.013
		c-0.487,0.251-0.952,0.396-1.454,0.708c-2.77,1.712-5.579,4.392-7.535,8.061c-1.971,3.684-3.044,8.19-3.028,13.395
		c0,4.529,0.768,9.606,2.436,15.436c4.406,15.359,8.38,25.254,13.532,32.53c2.573,3.608,5.496,6.508,8.677,8.708
		c1.956,1.37,3.98,2.405,6.028,3.318c6.142,27.294,22.674,44.221,32.477,54.862c0,1.674,0,3.379,0,4.932c-1.18,0-1.902,0-2.961,0
		c-3.121-0.016-6.287,0.647-9.042,2.268c-2.056,1.202-3.768,2.907-4.97,4.75c-1.835,2.77-2.68,5.708-3.174,8.608
		c-0.495,2.93-0.632,5.914-0.632,9.05c0,2.846,0,9.788,0,18.282c-1.005,0.38-2.048,0.853-2.999,1.187
		c-5.952,2.116-15.983,4.339-27.309,7.452c-17.034,4.719-37.371,11.501-53.994,24.942c-8.289,6.743-15.626,15.2-20.809,25.787
		c-5.191,10.565-8.182,23.184-8.167,37.904c0,3.204,0.137,6.5,0.418,9.91c0.221,2.527,1.188,4.597,2.314,6.294
		c2.169,3.158,5.016,5.518,8.608,7.931c6.264,4.148,14.956,8.197,26.076,12.185c33.3,11.881,88.435,22.75,156.739,22.765
		c55.5,0,102.348-7.208,135.784-16.25c16.738-4.544,30.088-9.514,39.739-14.462c4.833-2.504,8.738-4.97,11.851-7.672
		c1.545-1.37,2.899-2.801,4.057-4.498c1.118-1.698,2.086-3.768,2.313-6.294c0.282-3.403,0.412-6.698,0.412-9.88
		C450.193,433.307,444.797,417.446,436.097,405.199z M301.013,301.922v2.892c0,3.882,0,7.322,0,10.61h-90.025
		c0-3.288,0-6.728,0-10.61v-2.892l-1.942-2.154c-10.724-11.85-27.057-27.119-31.769-53.675l-0.761-4.323l-4.133-1.469
		c-2.618-0.929-4.62-1.888-6.363-3.106c-2.588-1.819-4.924-4.3-7.649-9.392c-2.702-5.054-5.556-12.62-8.685-23.603
		c-1.362-4.803-1.864-8.532-1.864-11.303c0.007-3.212,0.624-5.084,1.256-6.271c0.951-1.736,2.108-2.459,3.592-3.06
		c1.248-0.472,2.534-0.586,2.999-0.594l4.27,0.449l5.236,11.698c0,0,1.31-30.84,20.528-61.118c20.147,2.428,43.612,3.897,68.54,6.5
		c30.011,3.135,57.548,7.398,80.314,8.616c11.364,24.63,12.269,46.002,12.269,46.002l4.97-11.097l4.833-1.051
		c0.898,0.076,2.771,0.396,4.08,1.264c0.867,0.563,1.568,1.202,2.215,2.39c0.624,1.187,1.241,3.059,1.256,6.286
		c0,2.771-0.494,6.5-1.856,11.287c-4.164,14.652-7.886,23.169-11.31,27.895c-1.706,2.39-3.281,3.882-5.024,5.1
		c-1.743,1.218-3.744,2.177-6.37,3.106l-4.133,1.469l-0.762,4.323c-4.704,26.556-21.045,41.824-31.769,53.675L301.013,301.922z"/>
</g>
</svg>