<?xml version="1.0" encoding="utf-8"?>

<!DOCTYPE svg PUBLIC "-//W3C//DTD SVG 1.1//EN" "http://www.w3.org/Graphics/SVG/1.1/DTD/svg11.dtd">

<svg version="1.1" id="_x32_" xmlns="http://www.w3.org/2000/svg" xmlns:xlink="http://www.w3.org/1999/xlink" 
	 viewBox="0 0 512 512"  xml:space="preserve">
<style type="text/css">
	.st0{fill:#000000;}
</style>
<g>
	<path class="st0" d="M207.882,304.111c18.384,18.392,48.197,18.392,66.589,0c18.384-18.384,18.384-48.196,0-66.581
		c-18.392-18.392-48.206-18.392-66.589,0C189.489,255.915,189.489,285.728,207.882,304.111z"/>
	<path class="st0" d="M364.346,218.42l-18.136,19.034l7.674,7.665c8.708,8.708,13.002,20.001,13.011,31.404
		c-0.009,11.404-4.312,22.696-13.011,31.414c-6.802,6.954-19.317,12.994-30.139,16.801c-11.839,4.268-22.652,10.471-31.215,19.017
		c-7.324,7.297-12.953,16.493-15.382,27.093c-3.533,15.544-5.056,32.825-9.008,49.121c-3.91,16.331-9.95,31.08-21.232,42.346
		c-1.48,1.48-3.055,2.908-4.748,4.286c-9.384,7.648-19.137,13.122-29.42,16.219c-15.433,4.552-32.388,4.192-53.27-4.14
		c-20.814-8.35-45.245-25.082-73.151-53.005c-37.281-37.23-54.433-68.181-58.788-92.81c-2.207-12.371-1.42-23.294,1.652-33.603
		c3.088-10.291,8.572-20.044,16.219-29.428c1.386-1.702,2.815-3.276,4.303-4.764c11.258-11.275,25.989-17.315,42.32-21.224
		c16.305-3.943,33.577-5.466,49.121-8.999c10.6-2.438,19.805-8.058,27.102-15.373c8.538-8.572,14.731-19.368,19.008-31.224
		c3.815-10.831,9.83-23.338,16.793-30.147c8.708-8.7,20.001-13.003,31.412-13.012c11.412,0.009,22.696,4.303,31.404,13.012
		l7.682,7.682l19.026-18.136l-8.127-8.127c-27.615-27.615-72.364-27.615-99.978,0c-11.831,11.977-18.392,27.434-22.944,39.822
		c-3.216,8.974-7.734,16.433-12.866,21.54c-4.414,4.406-9.119,7.118-14.432,8.359c-12.789,2.993-30.668,4.61-49.318,9.051
		c-18.615,4.465-38.598,12.01-54.792,28.196c-2.105,2.104-4.141,4.346-6.091,6.75c-9.377,11.506-16.776,24.304-21.02,38.488
		c-6.441,21.266-5.337,45.305,4.928,70.61c10.249,25.382,29.232,52.338,58.805,81.92c39.42,39.377,74.28,60.164,106.746,66.076
		c16.185,2.926,31.635,1.916,45.793-2.344c14.175-4.243,26.973-11.635,38.496-21.027c2.387-1.933,4.62-3.969,6.715-6.066
		c16.186-16.202,23.748-36.178,28.206-54.793c4.44-18.658,6.065-36.546,9.068-49.352c1.24-5.295,3.944-9.983,8.35-14.414
		c5.115-5.132,12.575-9.649,21.532-12.874c12.413-4.543,27.845-11.121,39.822-22.944c27.614-27.623,27.614-72.363,0-99.978
		L364.346,218.42z"/>
	<polygon class="st0" points="268.021,208.308 303.694,243.972 426.547,115.071 396.923,85.437 	"/>
	<polygon class="st0" points="454.838,15.349 403.732,66.446 445.547,108.261 496.652,57.155 	"/>
	<polygon class="st0" points="446.959,10.199 436.753,0.002 420.114,16.64 430.312,26.838 	"/>
	<polygon class="st0" points="415.238,41.92 405.032,31.722 388.393,48.361 398.591,58.558 	"/>
	<polygon class="st0" points="501.794,65.043 485.155,81.682 495.352,91.879 512,75.24 	"/>
	
		<rect x="459.642" y="98.416" transform="matrix(-0.7071 -0.7071 0.7071 -0.7071 719.0573 518.2056)" class="st0" width="14.422" height="23.531"/>
	<polygon class="st0" points="115.5,343.84 168.154,396.493 182.089,382.558 129.444,329.904 	"/>
</g>
</svg>