<?xml version="1.0" encoding="utf-8"?>

<!DOCTYPE svg PUBLIC "-//W3C//DTD SVG 1.1//EN" "http://www.w3.org/Graphics/SVG/1.1/DTD/svg11.dtd">

<svg height="800px" width="800px" version="1.1" id="_x32_" xmlns="http://www.w3.org/2000/svg" xmlns:xlink="http://www.w3.org/1999/xlink" 
	 viewBox="0 0 512 512"  xml:space="preserve">
<style type="text/css">
	.st0{fill:#000000;}
</style>
<g>
	<path class="st0" d="M505.296,6.559c-12.231-12.224-33.342-6.765-55.71,11.414c-20.281,16.085-126.487,102.01-182.065,155.494
		c-38.739,33.712-68.884,66.573-75.517,90.889l55.487,55.494c24.323-6.626,57.184-36.771,90.896-75.517
		c53.49-55.578,139.416-161.784,155.494-182.058C512.06,39.902,517.527,18.797,505.296,6.559z"/>
	<polygon class="st0" points="151.254,303.856 208.285,360.894 236.81,332.368 179.773,275.331 	"/>
	<path class="st0" d="M4.969,404.066c-6.436,6.444-6.436,16.881,0,23.324l79.782,79.782c6.444,6.437,16.88,6.437,23.317,0
		l44.135-44.142L49.105,359.938L4.969,404.066z"/>
	<path class="st0" d="M140.288,314.818c-16.448,16.454-34.551-11.52-69.102,23.038l-10.423,10.416l103.1,103.107l10.43-10.423
		c34.543-34.55,6.576-52.653,23.032-69.101L140.288,314.818z"/>
</g>
</svg>