<?xml version="1.0" encoding="utf-8"?>

<!DOCTYPE svg PUBLIC "-//W3C//DTD SVG 1.1//EN" "http://www.w3.org/Graphics/SVG/1.1/DTD/svg11.dtd">

<svg version="1.1" id="_x32_" xmlns="http://www.w3.org/2000/svg" xmlns:xlink="http://www.w3.org/1999/xlink" 
	 width="800px" height="800px" viewBox="0 0 512 512"  xml:space="preserve">
<style type="text/css">
<![CDATA[
	.st0{fill:#000000;}
]]>
</style>
<g>
	<path class="st0" d="M412.42,174.719l39.922,57.688h-45.156l-39.922-57.688h-57.109l39.938,57.688h-45.156l-39.922-57.688h-57.109
		l39.922,57.688h-45.141l-39.922-57.688h-57.109l39.922,57.688H100.42l-38.469-55.578L459.779,65.844l-4.484-16.047l-0.953-3.438
		l-6.203-22.203c-3.953-14.188-16.547-23.5-30.5-24.156l-21.656,62.641l-43.5,12.141l22.406-64.75l-55,15.344l-22.406,64.75
		l-43.484,12.125l22.406-64.75l-55.016,15.344l-22.406,64.766l-43.484,12.125L177.904,65l-55.016,15.344l-22.391,64.75l-43.5,12.125
		l22.406-64.75l-18.516,5.172c-17.703,4.938-28.063,23.297-23.125,41.016l6.203,22.188l-1.297,0.375l5.438,19.469l1.328-0.375
		v52.094v2.219v244.094c0,18.375,14.906,33.281,33.281,33.281h359.469c18.391,0,33.281-14.906,33.281-33.281V234.625v-2.219v-57.688
		H412.42z"/>
</g>
</svg>