<?xml version="1.0" encoding="utf-8"?>

<!DOCTYPE svg PUBLIC "-//W3C//DTD SVG 1.1//EN" "http://www.w3.org/Graphics/SVG/1.1/DTD/svg11.dtd">

<svg version="1.1" id="_x32_" xmlns="http://www.w3.org/2000/svg" xmlns:xlink="http://www.w3.org/1999/xlink" 
	 width="800px" height="800px" viewBox="0 0 512 512"  xml:space="preserve">
<style type="text/css">
<![CDATA[
	.st0{fill:#000000;}
]]>
</style>
<g>
	<path class="st0" d="M420.547,253.344V0h-32.578v29.75c-88.422,12.125-175.516,12.125-263.938,0V0H91.453v253.344
		c-5.594,4.688-9.219,11.625-9.219,19.5c0,14.109,11.422,25.547,25.531,25.547c8.266,0,15.531-3.984,20.188-10.063h256.094
		c4.656,6.078,11.922,10.063,20.188,10.063c14.109,0,25.531-11.438,25.531-25.547C429.766,264.969,426.141,258.031,420.547,253.344z
		 M387.969,177.813v75.5c-1.453,1.203-2.766,2.547-3.922,4.047H127.953c-1.156-1.5-2.469-2.844-3.922-4.047v-75.5
		C212.25,188.5,299.75,188.5,387.969,177.813z"/>
	<path class="st0" d="M357.938,460.906c-1.25,0-2.422,0.203-3.625,0.375l-1.422-1.438l-62.047-62l-10.219-10.203l-21.344,21.328
		l73.266,73.234l0.25,0.234c-0.219,1.313-0.406,2.641-0.406,4.031c0,14.094,11.438,25.531,25.531,25.531
		c14.109,0,25.547-11.438,25.547-25.531C383.469,472.344,372.031,460.906,357.938,460.906z"/>
	<polygon class="st0" points="227.594,377.281 231.359,381.063 252.719,359.734 248.906,355.938 227.547,334.609 190.938,298.031 
		148.266,298.031 206.203,355.969 	"/>
	<path class="st0" d="M179.453,482.203l84.391-84.344l20.563-20.578l21.375-21.313l57.953-57.938h-42.672l-36.609,36.578
		l-21.359,21.328l-41.938,41.906l-62.047,62l-1.438,1.438c-1.188-0.172-2.359-0.375-3.609-0.375
		c-14.094,0-25.547,11.438-25.547,25.563c0,14.094,11.453,25.531,25.563,25.531c14.094,0,25.531-11.438,25.531-25.531
		c0-1.391-0.188-2.719-0.406-4.031L179.453,482.203z M256.453,376.375c3.922,0,7.109,3.188,7.109,7.094
		c0,3.938-3.188,7.125-7.109,7.125s-7.109-3.188-7.109-7.125C249.344,379.563,252.531,376.375,256.453,376.375z"/>
</g>
</svg>