<?xml version="1.0" encoding="utf-8"?>

<!DOCTYPE svg PUBLIC "-//W3C//DTD SVG 1.1//EN" "http://www.w3.org/Graphics/SVG/1.1/DTD/svg11.dtd">

<svg height="800px" width="800px" version="1.1" id="_x32_" xmlns="http://www.w3.org/2000/svg" xmlns:xlink="http://www.w3.org/1999/xlink" 
	 viewBox="0 0 512 512"  xml:space="preserve">
<style type="text/css">
	.st0{fill:#000000;}
</style>
<g>
	<path class="st0" d="M508.856,329.338H473.42V70.752H276.586V0h-46.314v70.752H38.58v258.586H3.144v46.314h120.028L80.605,512
		h48.469l42.56-136.349h58.639v105.488h46.314V375.651h58.639L377.785,512h48.469l-42.567-136.349h125.169V329.338z
		 M434.825,329.338H77.174V109.347h357.651V329.338z"/>
	<path class="st0" d="M217.993,290.026c6.226,6.928,16.878,7.531,23.858,1.365l1.809-1.598c6.543-5.789,30.996-33.138,42.16-20.714
		l5.526,5.141c6.746,6.286,17.285,6.03,23.722-0.573l54.462-55.902c5.684-5.835,6.422-14.895,1.749-21.574l-1.696-2.42
		c-2.82-4.033-7.244-6.642-12.136-7.154c-4.884-0.512-9.762,1.123-13.35,4.478l-4.244,3.966c-6.452,6.015-16.44,6.09-22.983,0.166
		l-8.39-7.614c-6.708-6.076-17.006-5.819-23.406,0.581l-71.385,73.036c-6.385,6.385-6.649,16.644-0.611,23.353L217.993,290.026z"/>
</g>
</svg>