<?xml version="1.0" encoding="utf-8"?>

<!DOCTYPE svg PUBLIC "-//W3C//DTD SVG 1.1//EN" "http://www.w3.org/Graphics/SVG/1.1/DTD/svg11.dtd">

<svg version="1.1" id="_x32_" xmlns="http://www.w3.org/2000/svg" xmlns:xlink="http://www.w3.org/1999/xlink" 
	 width="800px" height="800px" viewBox="0 0 512 512"  xml:space="preserve">
<style type="text/css">
<![CDATA[
	.st0{fill:#000000;}
]]>
</style>
<g>
	<path class="st0" d="M446.031,0H65.969C29.531,0,0,29.531,0,65.969v380.063C0,482.469,29.531,512,65.969,512h380.063
		C482.469,512,512,482.469,512,446.031V65.969C512,29.531,482.469,0,446.031,0z M62.063,426.656H31.031v-31.031h31.031V426.656z
		 M62.063,349.094H31.031v-31.031h31.031V349.094z M62.063,271.516H31.031v-31.031h31.031V271.516z M62.063,193.938H31.031v-31.031
		h31.031V193.938z M62.063,116.375H31.031V85.344h31.031V116.375z M93.094,62.063h151.266V142.5
		c-53.719,5.438-96.406,48.141-101.859,101.875H93.094V62.063z M244.359,449.938H93.094V267.625H142.5
		c5.453,53.734,48.141,96.438,101.859,101.875V449.938z M197.281,314.719c-15.063-15.063-24.328-35.734-24.344-58.719
		c0.016-22.984,9.281-43.656,24.344-58.719s35.734-24.328,58.719-24.344c22.984,0.016,43.656,9.281,58.719,24.344
		s24.328,35.734,24.344,58.719c-0.016,22.984-9.281,43.656-24.344,58.719S278.984,339.047,256,339.063
		C233.016,339.047,212.344,329.781,197.281,314.719z M418.906,449.938H267.625V369.5c53.734-5.438,96.422-48.141,101.875-101.875
		h49.406V449.938z M418.906,244.375H369.5c-5.453-53.734-48.141-96.438-101.875-101.875V62.063h151.281V244.375z M480.969,426.656
		h-31.031v-31.031h31.031V426.656z M480.969,349.094h-31.031v-31.031h31.031V349.094z M480.969,271.516h-31.031v-31.031h31.031
		V271.516z M480.969,193.938h-31.031v-31.031h31.031V193.938z M480.969,116.375h-31.031V85.344h31.031V116.375z"/>
	<path class="st0" d="M277.594,252.531v-0.266c8.75-4.609,13.281-11.734,13.281-19.703c0-15.359-12.75-26.25-34.953-26.25
		c-19.234,0-32.344,8.797-34.969,20.25c-0.172,0.844,0.359,1.531,1.391,1.672l14.875,2.797c1.031,0.141,1.734-0.141,2.094-0.969
		c2.094-5.875,7.156-9.781,15.906-9.781c9.969,0,15.906,5.313,15.906,12.844c0,8.375-6.813,13.828-17.313,13.828h-4.703
		c-1.063,0-1.766,0.563-1.766,1.391v11.031c0,0.844,0.703,1.406,1.766,1.406h5.047c11.719,0,19.422,5.875,19.422,15.5
		c0,8.094-6.469,14.109-17.484,14.109c-9.781,0-15.563-4.469-18-10.047c-0.375-0.844-1.234-1.125-2.109-0.984l-15.203,2.797
		c-1.063,0.281-1.594,0.969-1.406,1.813c3.672,13,18.188,20.406,36.719,20.406c21.328,0,37.25-11.469,37.25-28.781
		C293.344,263.156,284.594,254.906,277.594,252.531z"/>
</g>
</svg>