<?xml version="1.0" encoding="utf-8"?>

<!DOCTYPE svg PUBLIC "-//W3C//DTD SVG 1.1//EN" "http://www.w3.org/Graphics/SVG/1.1/DTD/svg11.dtd">

<svg height="800px" width="800px" version="1.1" id="_x32_" xmlns="http://www.w3.org/2000/svg" xmlns:xlink="http://www.w3.org/1999/xlink" 
	 viewBox="0 0 512 512"  xml:space="preserve">
<style type="text/css">
	.st0{fill:#000000;}
</style>
<g>
	<path class="st0" d="M129.306,263.768c0.435,2.663,0.888,5.386,1.34,8.154l44.415-8.798c-0.635-2.733-1.262-5.43-1.87-8.058
		c-4.36-18.901,44.128-48.131,53.448-106.304c1.766-11.026,2.498-21.538,2.297-31.502L25.229,157.611
		c3.62,9.294,8.301,18.727,14.132,28.247C70.158,236.096,126.129,244.623,129.306,263.768z"/>
	<path class="st0" d="M213.489,55.946L16.126,95.035c-1.183,10.843-0.887,22.268,1.131,34.112l208.197-41.248
		C222.8,76.186,218.71,65.518,213.489,55.946z"/>
	<path class="st0" d="M100.258,2.01c-33.921,6.727-62.08,29.518-75.812,61.332l169.28-33.529C168.9,5.63,134.178-4.708,100.258,2.01
		z"/>
	<path class="st0" d="M278.058,175.756c-21.103,55.014,6.187,104.616-7.066,118.774c-1.844,1.976-3.733,3.994-5.656,6.03
		l34.024,29.883c1.776-2.157,3.533-4.298,5.248-6.387c12.34-14.959,65.048,5.717,116.877-22.294
		c9.816-5.308,18.605-11.13,26.393-17.343L291.877,147.352C286.708,155.88,282.061,165.322,278.058,175.756z"/>
	<path class="st0" d="M309.595,123.7l159.456,140.095c7.684-9.25,13.671-18.98,18.074-28.952L335.988,102.049
		C326.668,107.697,317.774,114.893,309.595,123.7z"/>
	<path class="st0" d="M460.993,112.178c-25.976-22.834-61.21-31.301-94.809-22.834l129.643,113.91
		C499.908,168.846,486.977,134.995,460.993,112.178z"/>
	<path class="st0" d="M209.068,359.647c5.474,22.816,10.634,44.816,14.803,63.96c15.498-19.005,31.884-39.403,47.592-58.825
		l-36.584-32.146C226.402,341.52,217.718,350.597,209.068,359.647z"/>
	<path class="st0" d="M144.821,428.166c-12.566,13.932-22.478,25.567-27.968,33.346c-11.878,16.795-9.79,30.892,1.401,40.734h0.018
		v0.009c11.208,9.833,25.444,10.094,40.587-3.846c0.435-0.409,0.904-0.853,1.357-1.298c-0.818-1.958-1.592-4.046-2.297-6.3
		C154.054,478.361,149.564,455.682,144.821,428.166z"/>
	<path class="st0" d="M185.33,306.147l-47.766,9.468c10.607,68.224,22.12,145.411,30.405,172.074
		c6.117,19.658,18.561,26.576,33.182,23.679v0.008c0,0,0-0.008,0.008-0.008c0.009,0,0.009,0,0.009,0v-0.009
		c14.619-2.889,23.495-14.036,21.651-34.53C220.311,449.017,201.532,373.274,185.33,306.147z"/>
</g>
</svg>