<?xml version="1.0" encoding="utf-8"?>

<!DOCTYPE svg PUBLIC "-//W3C//DTD SVG 1.1//EN" "http://www.w3.org/Graphics/SVG/1.1/DTD/svg11.dtd">

<svg version="1.1" id="_x32_" xmlns="http://www.w3.org/2000/svg" xmlns:xlink="http://www.w3.org/1999/xlink" 
	 width="800px" height="800px" viewBox="0 0 512 512"  xml:space="preserve">
<style type="text/css">
<![CDATA[
	.st0{fill:#000000;}
]]>
</style>
<g>
	<path class="st0" d="M119.469,317.031c21.109,0,38.219-17.094,38.219-38.188c0-21.125-17.109-38.219-38.219-38.219
		c-21.094,0-38.219,17.094-38.219,38.219C81.25,299.938,98.375,317.031,119.469,317.031z"/>
	<path class="st0" d="M119.469,337.422c-28.016,0-48.391,33.109-48.391,53.484s0,63.344,0,63.344h96.797c0,0,0-42.969,0-63.344
		S147.5,337.422,119.469,337.422z"/>
	<path class="st0" d="M256,317.031c21.094,0,38.203-17.094,38.203-38.188c0-21.125-17.109-38.219-38.203-38.219
		s-38.219,17.094-38.219,38.219C217.781,299.938,234.906,317.031,256,317.031z"/>
	<path class="st0" d="M256,337.422c-28.031,0-48.406,33.109-48.406,53.484s0,63.344,0,63.344h96.813c0,0,0-42.969,0-63.344
		S284.016,337.422,256,337.422z"/>
	<path class="st0" d="M392.516,317.031c21.109,0,38.234-17.094,38.234-38.188c0-21.125-17.125-38.219-38.234-38.219
		c-21.078,0-38.203,17.094-38.203,38.219C354.313,299.938,371.438,317.031,392.516,317.031z"/>
	<path class="st0" d="M0,57.75v320h56.922c1.922-7.969,5.406-16.25,10.328-24H24v-272h464v272h-43.25
		c4.922,7.75,8.406,16.031,10.328,24H512v-320H0z"/>
	<path class="st0" d="M392.516,337.422c-28.016,0-48.391,33.109-48.391,53.484s0,63.344,0,63.344h96.797c0,0,0-42.969,0-63.344
		S420.531,337.422,392.516,337.422z"/>
</g>
</svg>