<?xml version="1.0" encoding="utf-8"?>

<!DOCTYPE svg PUBLIC "-//W3C//DTD SVG 1.1//EN" "http://www.w3.org/Graphics/SVG/1.1/DTD/svg11.dtd">

<svg height="800px" width="800px" version="1.1" id="_x32_" xmlns="http://www.w3.org/2000/svg" xmlns:xlink="http://www.w3.org/1999/xlink" 
	 viewBox="0 0 512 512"  xml:space="preserve">
<style type="text/css">
	.st0{fill:#000000;}
</style>
<g>
	<path class="st0" d="M385.91,126.416c-31.093-25.912-83.977-65.666-93.574-78.465H274.13v251.229
		c-5.767-1.646-11.832-2.578-18.125-2.578c-36.518,0-66.12,29.601-66.12,66.124c0,36.505,29.602,66.115,66.12,66.115
		c36.514,0,66.115-29.61,66.115-66.115c0,0,0-196.709,0-206.005c0-9.304,4.766-32.256,47.985,10.958
		c25.594,25.589-16.154,41.662-13.562,83.122l6.098-0.866c7.464-21.475,36.594-37.319,49.186-50.957
		C432.556,176.517,417.005,152.328,385.91,126.416z"/>
	<path class="st0" d="M140.034,317.705l-31.383-13.706c-7.464,18.676-11.246,38.413-11.246,58.727
		c0,21.374,4.198,42.137,12.476,61.712c0.093,0.213,0.182,0.425,0.275,0.628l31.366-13.672c-6.557-15.343-9.886-31.705-9.908-48.668
		C131.615,347.119,134.444,331.988,140.034,317.705z"/>
	<path class="st0" d="M371.967,317.705c5.568,14.267,8.401,29.397,8.418,45.021c0,16.776-3.282,33.053-9.78,48.448
		c-0.03,0.068-0.059,0.144-0.093,0.22l31.331,13.672c8.465-19.695,12.752-40.653,12.752-62.34c0-20.339-3.774-40.076-11.226-58.745
		L371.967,317.705z"/>
	<path class="st0" d="M50.67,278.697l-31.34-13.69C6.502,296.025,0,328.883,0,362.726c0,34.554,6.777,68.091,20.369,100.186
		l0.497,1.137l31.344-13.672c-11.93-27.668-17.982-57.15-17.998-87.65C34.212,333.633,39.75,305.373,50.67,278.697z"/>
	<path class="st0" d="M492.696,265.007l-31.374,13.698c10.911,26.608,16.45,54.861,16.467,84.021
		c0,29.94-5.862,58.973-17.439,86.353c-0.182,0.432-0.365,0.865-0.547,1.289l31.336,13.664C504.986,432.004,512,397.942,512,362.726
		C512,328.85,505.499,295.966,492.696,265.007z"/>
</g>
</svg>