<?xml version="1.0" encoding="utf-8"?>

<!DOCTYPE svg PUBLIC "-//W3C//DTD SVG 1.1//EN" "http://www.w3.org/Graphics/SVG/1.1/DTD/svg11.dtd">

<svg height="800px" width="800px" version="1.1" id="_x32_" xmlns="http://www.w3.org/2000/svg" xmlns:xlink="http://www.w3.org/1999/xlink" 
	 viewBox="0 0 512 512"  xml:space="preserve">
<style type="text/css">
	.st0{fill:#000000;}
</style>
<g>
	<path class="st0" d="M412.61,0H99.383C71.261,0,48.466,22.796,48.466,50.917v413.164c0,13.108,5.37,25.649,14.856,34.687
		c9.501,9.045,22.281,13.81,35.374,13.175l286.226-13.84v-0.008c10.651-0.09,20.869-2.285,30.168-6.222
		c14.252-6.028,26.329-16.066,34.882-28.719c8.552-12.645,13.564-27.987,13.564-44.367V50.917C463.534,22.796,440.732,0,412.61,0z
		 M433.95,418.788c-0.008,6.916-1.398,13.415-3.907,19.36c-3.765,8.904-10.098,16.537-18.046,21.9
		c-7.947,5.37-17.44,8.478-27.793,8.485c-6.512-0.008-12.958-1.562-19.151-4.698c-9.254-4.705-17.978-13.056-24.498-25.306
		c-6.506-12.234-10.763-28.36-10.771-48.184v-8.828c0-3.025-1.516-5.841-4.041-7.506c-2.524-1.658-5.721-1.942-8.492-0.74
		l-222.477,95.86c-3.704,1.591-7.962,1.224-11.33-0.994c-3.368-2.218-5.393-5.983-5.393-10.009V53.546
		c0-13.235,10.726-23.961,23.954-23.961h307.976c13.235,0,23.969,10.726,23.969,23.961V418.788z"/>
	<path class="st0" d="M200.93,212.774v75.536c-6.375-2.353-13.919-3.048-21.683-1.547c-18.658,3.594-31.505,18.308-28.701,32.865
		c2.809,14.565,20.197,23.453,38.855,19.853c16.56-3.182,28.518-15.14,29.029-27.995h0.104v-99.877l89.414-13.445v74.371
		c-6.379-2.338-13.919-3.025-21.683-1.531c-18.658,3.585-31.501,18.306-28.7,32.864c2.808,14.557,20.196,23.453,38.858,19.853
		c16.555-3.197,28.514-15.148,29.021-27.995h0.108v-98.72v-32.812l-124.623,15.76V212.774z"/>
</g>
</svg>