<?xml version="1.0" encoding="utf-8"?>

<!DOCTYPE svg PUBLIC "-//W3C//DTD SVG 1.1//EN" "http://www.w3.org/Graphics/SVG/1.1/DTD/svg11.dtd">

<svg height="800px" width="800px" version="1.1" id="_x32_" xmlns="http://www.w3.org/2000/svg" xmlns:xlink="http://www.w3.org/1999/xlink" 
	 viewBox="0 0 512 512"  xml:space="preserve">
<style type="text/css">
	.st0{fill:#000000;}
</style>
<g>
	<path class="st0" d="M378.409,0H208.294h-13.175l-9.314,9.314L57.016,138.102l-9.314,9.314v13.176v265.513
		c0,47.361,38.528,85.896,85.896,85.896h244.811c47.36,0,85.888-38.535,85.888-85.896V85.895C464.298,38.528,425.769,0,378.409,0z
		 M432.493,426.104c0,29.877-24.214,54.092-54.084,54.092H133.598c-29.878,0-54.092-24.215-54.092-54.092V160.591h83.717
		c24.885,0,45.07-20.179,45.07-45.07V31.804h170.116c29.87,0,54.084,24.214,54.084,54.091V426.104z"/>
	<path class="st0" d="M288.59,223.362c-22.63-10.927-41.75-35.596-41.75-35.596v16.429V324.36
		c-7.062-2.598-15.417-3.365-24.029-1.704c-20.674,3.972-34.908,20.283-31.801,36.412c3.107,16.136,22.382,25.988,43.052,22.001
		c18.356-3.533,31.605-16.786,32.174-31.015h0.112V246.626c59.377,7.254,49.623,49.281,45.517,61.604
		C346.085,269.898,328.287,242.521,288.59,223.362z"/>
</g>
</svg>