<?xml version="1.0" encoding="utf-8"?>

<!DOCTYPE svg PUBLIC "-//W3C//DTD SVG 1.1//EN" "http://www.w3.org/Graphics/SVG/1.1/DTD/svg11.dtd">

<svg height="800px" width="800px" version="1.1" id="_x32_" xmlns="http://www.w3.org/2000/svg" xmlns:xlink="http://www.w3.org/1999/xlink" 
	 viewBox="0 0 512 512"  xml:space="preserve">
<style type="text/css">
	.st0{fill:#000000;}
</style>
<g>
	<path class="st0" d="M419.921,421.121V90.888H92.079v330.234H419.921z M195.948,311.04c10.086-3.564,27.264-16.252,27.264-23.782
		c0-4.993,0-11.232,0-19.779c-6.413-7.137-11.287-21.603-14.182-38.001c-6.752-2.41-10.608-6.276-15.428-23.16
		c-4.928-17.268,6.688-17.378,7.632-17.369c-1.631-11.04-3.857-32.862,1.914-43.8c0,0-3.948-7.118-3.948-16.59
		c16.582,2.373,69.488-31.57,85.282-3.94c22.912-2.372,36.59,29.939,26.201,64.331c0,0,12.844-0.614,7.714,17.369
		c-4.828,16.884-8.676,20.75-15.437,23.16c-2.904,16.398-7.76,30.864-14.172,38.001c0,8.547,0,14.786,0,19.779
		c0,7.53,16.17,19.641,27.246,23.782c20.704,7.741,71.997,28.372,68.709,67.912c-0.798,9.491-52.934,19.33-128.752,19.33
		c-75.818,0-127.936-9.839-128.724-19.33C123.96,339.458,175.143,318.37,195.948,311.04z"/>
	<path class="st0" d="M442.888,58.53L497.809,3.6c-4.187-0.952-9.51-1.721-15.959-1.721c-5.954,0-12.843,0.65-20.658,2.418
		c-1.109,0.256-2.308,0.623-3.719,1.117c-1.42,0.494-3.042,1.117-4.938,1.805c-3.774,1.374-8.602,2.968-14.612,3.948
		c-4.012,0.669-8.547,1.063-13.696,1.063c-15.986,0-85.391,0-102.495,0c-2.437,0-3.811,0-3.82,0h-0.293l-0.302-0.01
		c-4.232-0.22-8.419-0.861-12.578-1.695c-4.159-0.842-8.291-1.878-12.386-2.968c-8.172-2.19-16.206-4.553-23.425-6.01
		C264.126,0.568,259.71-0.009,256,0c-2.776,0-5.964,0.32-9.408,0.888c-3.444,0.577-7.146,1.411-10.984,2.382
		c-7.704,1.942-15.922,4.434-24.194,6.348c-5.524,1.274-11.076,2.3-16.728,2.602l-0.302,0.01h-0.293c0,0-88.039,0-106.315,0
		c-7.732,0.008-14.072-0.907-19.321-2.218c-5.231-1.3-9.316-2.932-12.44-4.068c-2.08-0.769-3.738-1.31-5.204-1.648
		c-7.814-1.768-14.704-2.418-20.659-2.418c-7.585,0-13.65,1.053-18.102,2.234L66.464,58.53H442.888z"/>
	<path class="st0" d="M69.111,453.469L14.182,508.4c4.195,0.953,9.518,1.722,15.967,1.722c5.955,0,12.845-0.65,20.659-2.418
		c1.108-0.257,2.309-0.623,3.72-1.118c1.419-0.485,3.041-1.117,4.928-1.804c3.784-1.366,8.612-2.978,14.622-3.958
		c4.013-0.659,8.548-1.053,13.696-1.053c18.276,0,106.315,0,106.315,0h0.293l0.302,0.008c4.232,0.22,8.419,0.861,12.578,1.695
		c4.159,0.834,8.291,1.878,12.386,2.968c8.172,2.19,16.206,4.544,23.416,6.01c4.8,0.98,9.225,1.558,12.935,1.549
		c2.776,0,5.964-0.321,9.409-0.898c3.444-0.568,7.136-1.401,10.984-2.372c7.705-1.933,15.922-4.434,24.195-6.349
		c5.515-1.282,11.076-2.3,16.728-2.602l0.302-0.008h0.293c0.009,0,1.383,0,3.82,0c2.446,0,5.955,0,10.224,0
		c8.538,0,20.109,0,32.266,0c24.286,0,50.872,0,60.005,0c7.733-0.01,14.072,0.898,19.321,2.207c5.24,1.31,9.318,2.941,12.441,4.077
		c2.08,0.769,3.728,1.31,5.204,1.649c7.815,1.768,14.704,2.418,20.658,2.418c6.432,0,11.791-0.761,15.977-1.713l-54.939-54.94
		H69.111z"/>
	<path class="st0" d="M499.77,317.911v-0.293l0.018-0.302c0.211-4.233,0.852-8.42,1.686-12.579
		c0.834-4.158,1.878-8.291,2.968-12.386c2.19-8.172,4.554-16.206,6.01-23.424C511.432,264.126,512,259.71,512,256
		c0-2.776-0.321-5.964-0.898-9.408c-0.568-3.444-1.401-7.146-2.372-10.994c-1.943-7.695-4.434-15.913-6.349-24.185
		c-1.282-5.524-2.309-11.076-2.593-16.728l-0.018-0.294v-0.311c0,0,0-88.038,0-106.306c-0.01-7.732,0.907-14.072,2.207-19.321
		c1.31-5.24,2.941-9.316,4.077-12.44c0.761-2.08,1.31-3.729,1.649-5.204c1.768-7.814,2.418-14.704,2.418-20.659
		c0-7.585-1.054-13.65-2.245-18.102L452.14,67.783v376.434l55.728,55.727c1.19-4.452,2.254-10.498,2.254-18.094
		c0-5.954-0.65-12.843-2.418-20.658c-0.257-1.109-0.623-2.308-1.118-3.719c-0.494-1.42-1.108-3.042-1.804-4.938
		c-1.374-3.774-2.978-8.602-3.958-14.621c-0.659-4.003-1.053-8.529-1.053-13.687c0-15.994,0-85.391,0-102.494
		C499.77,319.294,499.77,317.92,499.77,317.911z"/>
	<path class="st0" d="M59.859,70.44L3.609,14.182C2.648,18.377,1.878,23.7,1.878,30.149c0,5.955,0.65,12.845,2.427,20.659
		c0.248,1.108,0.614,2.309,1.109,3.72c0.486,1.419,1.109,3.041,1.805,4.928c1.374,3.784,2.978,8.612,3.958,14.622
		c0.66,4.013,1.054,8.538,1.054,13.696c0,18.268,0,106.306,0,106.306v0.303l-0.01,0.302c-0.22,4.233-0.861,8.419-1.704,12.578
		c-0.824,4.159-1.878,8.291-2.96,12.386c-2.19,8.162-4.553,16.207-6.01,23.426C0.568,247.874-0.009,252.289,0,256
		c0,2.776,0.32,5.964,0.898,9.409c0.568,3.444,1.402,7.146,2.372,10.983c1.932,7.705,4.434,15.922,6.348,24.196
		c1.284,5.524,2.3,11.075,2.602,16.728l0.01,0.312v0.283c0,0,0,1.384,0,3.821c0,2.446,0,5.954,0,10.224c0,8.538,0,20.109,0,32.266
		c0,24.286,0,50.862,0,60.005c0.008,7.733-0.907,14.072-2.208,19.321c-1.31,5.24-2.95,9.318-4.077,12.441
		c-0.769,2.08-1.31,3.728-1.64,5.212c-1.777,7.806-2.427,14.695-2.427,20.649c0,7.586,1.053,13.65,2.234,18.094l55.746-55.727V70.44
		z"/>
</g>
</svg>