<?xml version="1.0" encoding="utf-8"?>

<!DOCTYPE svg PUBLIC "-//W3C//DTD SVG 1.1//EN" "http://www.w3.org/Graphics/SVG/1.1/DTD/svg11.dtd">

<svg height="800px" width="800px" version="1.1" id="_x32_" xmlns="http://www.w3.org/2000/svg" xmlns:xlink="http://www.w3.org/1999/xlink" 
	 viewBox="0 0 512 512"  xml:space="preserve">
<style type="text/css">
	.st0{fill:#000000;}
</style>
<g>
	<path class="st0" d="M502.176,124.264l-179.85-28.626c-6.358-1.01-12.328,3.319-13.342,9.678
		c-1.011,6.358,3.323,12.327,9.68,13.337l179.851,28.618c6.354,1.011,12.327-3.319,13.338-9.668
		C512.864,131.244,508.531,125.274,502.176,124.264z"/>
	<path class="st0" d="M261.53,130.092c1.111,2.643,4.155,3.872,6.785,2.76l4.772-2.013c2.635-1.112,3.868-4.151,2.756-6.786
		l-11.087-26.239c-1.112-2.635-4.151-3.871-6.786-2.759l-4.772,2.021c-2.635,1.111-3.867,4.15-2.756,6.785L261.53,130.092z"/>
	<path class="st0" d="M273.122,157.53l11.084,26.24c1.116,2.627,4.151,3.87,6.786,2.752l4.772-2.014
		c2.634-1.111,3.866-4.15,2.756-6.785l-11.088-26.24c-1.112-2.634-4.151-3.87-6.785-2.752l-4.773,2.014
		C273.243,151.856,272.007,154.894,273.122,157.53z"/>
	<path class="st0" d="M295.795,211.199l11.087,26.239c1.116,2.635,4.151,3.871,6.786,2.759l4.772-2.021
		c2.634-1.119,3.866-4.15,2.756-6.785l-11.088-26.24c-1.111-2.635-4.15-3.864-6.785-2.76l-4.772,2.021
		C295.915,205.517,294.683,208.564,295.795,211.199z"/>
	<path class="st0" d="M24.447,89.241c-7.594,1.858-13.24,1.368-13.24,1.368c-3.346,0.342-6.408,2.021-8.499,4.648
		c-2.091,2.642-3.032,6-2.608,9.327l0.61,4.834c0.851,6.723,6.902,11.534,13.637,10.85c0,0,3.96,0.49,13-1.314
		c8.624-1.718,17.756-4.469,27.11-8.659l0.35-0.163l-7.688-30.025C40.283,84.01,32.934,87.174,24.447,89.241z"/>
	<path class="st0" d="M491.571,161.858L320.281,134.6c11.527,18.778,10.307,36.936,11.236,53.584
		c1.842,33.033,6.513,55.34,20.286,93.798c7.061,19.711,17.888,43.06,31.331,88.093c2.398,8.036-1.652,16.579-9.622,19.237
		c-7.967,2.658-16.587-1.648-19.241-9.615c0,0-103.533-246.247-133.745-313.634c-19.097-42.593-70.756-61.62-130.3-18.001
		c-12.289,8.993-22.389,18.055-33.068,25.586l8.04,31.394c34.798-18.429,50.486-40.682,77.154-36.748
		c23.512,3.466,23.492,21.499,35.252,55.814c11.768,34.315,87.428,253.21,99.849,292.136c18.51,55.511,78.529,85.512,134.048,66.998
		c55.515-18.514,83.698-74.585,67.002-134.044c0,0-13.501-46.821-21.456-78.439c-5.382-21.383-2.958-50.078,2.402-66.089
		C468.495,177.629,491.571,161.858,491.571,161.858z"/>
</g>
</svg>