<?xml version="1.0" encoding="utf-8"?>

<!DOCTYPE svg PUBLIC "-//W3C//DTD SVG 1.1//EN" "http://www.w3.org/Graphics/SVG/1.1/DTD/svg11.dtd">

<svg height="800px" width="800px" version="1.1" id="_x32_" xmlns="http://www.w3.org/2000/svg" xmlns:xlink="http://www.w3.org/1999/xlink" 
	 viewBox="0 0 512 512"  xml:space="preserve">
<style type="text/css">
	.st0{fill:#000000;}
</style>
<g>
	<path class="st0" d="M450.352,0.016L61.64,0C27.598,0.016,0.008,27.59,0.008,61.64v388.704c0.008,34.05,27.583,61.64,61.632,61.64
		L450.352,512c34.05-0.016,61.624-27.606,61.64-61.656V61.64C511.975,27.59,484.394,0.016,450.352,0.016z M432.331,58.097
		c11.915,0,21.573,9.649,21.573,21.572c0,11.907-9.658,21.564-21.573,21.564c-11.907,0-21.564-9.657-21.564-21.564
		C410.767,67.746,420.424,58.097,432.331,58.097z M79.653,58.097c11.915,0,21.573,9.649,21.573,21.572
		c0,11.907-9.658,21.564-21.573,21.564c-11.907,0-21.564-9.657-21.564-21.564C58.089,67.746,67.746,58.097,79.653,58.097z
		 M79.653,453.911c-11.907,0-21.564-9.657-21.564-21.572c0-11.906,9.657-21.564,21.564-21.564c11.923,0,21.58,9.658,21.58,21.564
		C101.233,444.254,91.577,453.911,79.653,453.911z M256.008,432.652c-97.562,0-176.644-79.091-176.644-176.644
		c0-97.554,79.082-176.644,176.644-176.644c97.554,0,176.636,79.09,176.636,176.644
		C432.645,353.561,353.562,432.652,256.008,432.652z M432.331,453.911c-11.907,0-21.564-9.657-21.564-21.572
		c0-11.906,9.657-21.564,21.564-21.564c11.923,0,21.58,9.658,21.58,21.564C453.911,444.254,444.254,453.911,432.331,453.911z"/>
	<path class="st0" d="M256.008,194.545c-33.945,0-61.463,27.51-61.463,61.463c0,33.937,27.518,61.463,61.463,61.463
		c33.945,0,61.455-27.526,61.455-61.463C317.463,222.055,289.953,194.545,256.008,194.545z"/>
</g>
</svg>