<?xml version="1.0" encoding="utf-8"?>

<!DOCTYPE svg PUBLIC "-//W3C//DTD SVG 1.1//EN" "http://www.w3.org/Graphics/SVG/1.1/DTD/svg11.dtd">

<svg height="800px" width="800px" version="1.1" id="_x32_" xmlns="http://www.w3.org/2000/svg" xmlns:xlink="http://www.w3.org/1999/xlink" 
	 viewBox="0 0 512 512"  xml:space="preserve">
<style type="text/css">
	.st0{fill:#000000;}
</style>
<g>
	<path class="st0" d="M337.316,0v213.832c-0.019,22.556-9.058,42.699-23.823,57.502c-14.804,14.776-34.946,23.804-57.482,23.823
		c-22.557-0.019-42.699-9.048-57.503-23.823c-14.765-14.803-23.804-34.946-23.822-57.502V0h-60.23v213.832
		c-0.019,38.998,15.896,74.576,41.452,100.103c18.758,18.798,42.99,32.336,69.969,38.209V512h60.249V352.144
		c26.998-5.873,51.211-19.411,69.969-38.209c25.557-25.528,41.471-61.106,41.452-100.103V0H337.316z"/>
</g>
</svg>