<?xml version="1.0" encoding="utf-8"?>

<!DOCTYPE svg PUBLIC "-//W3C//DTD SVG 1.1//EN" "http://www.w3.org/Graphics/SVG/1.1/DTD/svg11.dtd">

<svg height="800px" width="800px" version="1.1" id="_x32_" xmlns="http://www.w3.org/2000/svg" xmlns:xlink="http://www.w3.org/1999/xlink" 
	 viewBox="0 0 512 512"  xml:space="preserve">
<style type="text/css">
	.st0{fill:#000000;}
</style>
<g>
	<polygon class="st0" points="462.658,22.305 421.62,61.43 450.126,89.93 489.251,48.89 	"/>
	<polygon class="st0" points="511.546,13.882 497.665,0 490.44,6.46 484.467,0.501 466.279,16.772 494.779,45.272 511.06,27.084 
		505.082,21.116 	"/>
	<path class="st0" d="M475.496,83.972c-1.039-1.038-2.578-1.189-3.452-0.321L461.08,94.624c-0.864,0.868-0.722,2.398,0.316,3.437
		l7.516,7.518c1.044,1.057,2.583,1.19,3.448,0.321l10.964-10.954c0.873-0.87,0.727-2.418-0.308-3.466L475.496,83.972z"/>
	<path class="st0" d="M498.996,60.458c-1.038-1.02-2.583-1.171-3.447-0.303L484.585,71.11c-0.873,0.878-0.727,2.418,0.312,3.456
		l7.522,7.518c1.034,1.048,2.573,1.19,3.446,0.302l10.964-10.944c0.864-0.878,0.727-2.408-0.312-3.466L498.996,60.458z"/>
	<path class="st0" d="M414.391,51.061c1.039,1.039,2.579,1.18,3.442,0.312l10.969-10.964c0.868-0.878,0.727-2.408-0.308-3.446
		l-7.521-7.518c-1.039-1.039-2.588-1.19-3.451-0.312l-10.969,10.945c-0.86,0.879-0.722,2.418,0.321,3.466L414.391,51.061z"/>
	<path class="st0" d="M437.896,27.556c1.034,1.058,2.573,1.19,3.442,0.312l10.968-10.963c0.864-0.86,0.727-2.399-0.312-3.448
		l-7.521-7.516c-1.044-1.04-2.588-1.181-3.451-0.312l-10.964,10.964c-0.869,0.878-0.722,2.399,0.316,3.448L437.896,27.556z"/>
	<path class="st0" d="M260.34,294.449l-43.152-43.148l99.171-95.54c-42.142-30.804-90.7-36.319-126.359-0.66
		c-7.894,7.894-17.07,24.194-25.611,29.898c-5.151,3.428,18.986,31.324-18.523,57.425c-35.881,24.978-51.274-12.333-56.973-7.582
		c-12.13,10.114-41.301,22.305-58.62,38.681C-21.314,322.27-1.605,398.809,56.02,456.434
		c57.62,57.624,134.164,77.333,182.921,25.752c16.371-17.329,28.562-46.482,38.681-58.635c4.75-5.695-32.576-21.088-7.598-56.963
		c26.112-37.51,54.013-13.363,57.45-18.519c5.694-8.555,21.994-17.716,29.884-25.61c35.942-35.942,30.049-84.992-1.407-127.355
		L260.34,294.449z M75.039,456.651l-9.619-9.614l-9.618-9.622l60.897-77.976l18.154,18.161l18.161,18.16L75.039,456.651z
		 M161.915,276.628c-4.528,4.789-9.278,8.812-14.104,11.984c-5.26,3.438-10.52,5.808-15.634,7.026
		c-5.841,1.397-11.224,1.208-15.583-0.548c-1.907-0.774-3.635-1.889-4.99-3.248c-0.354-0.359-0.68-0.727-0.977-1.124
		c-0.756-0.935-1.351-1.974-1.8-3.126l-0.028-0.094l-0.043-0.076c-1.908-3.834-0.699-8.556,2.824-10.993
		c3.452-2.418,8.121-1.982,11.096,0.973c0.364,0.358,0.704,0.765,1.002,1.2c1.152,1.652,1.695,3.664,1.535,5.666l-0.237,2.814
		l2.739-0.699c0.571-0.151,1.152-0.321,1.729-0.51c3.838-1.246,8.05-3.456,12.163-6.393c4.008-2.824,8.078-6.412,12.083-10.643
		c0.986-1.048,1.945-2.096,2.852-3.126l2.819-3.267c1.993-2.314,4.028-4.486,6.039-6.469c4.529-4.486,8.769-7.895,12.957-10.426
		c2.421-1.454,4.811-2.588,7.101-3.362c2.64-0.888,5.185-1.312,7.569-1.246c2.545,0.057,5.043,0.718,7.054,1.889
		c0.496,0.274,0.959,0.586,1.45,0.954l0.08,0.066l0.085,0.057c0.516,0.302,0.988,0.688,1.403,1.114
		c0.316,0.302,0.604,0.642,0.859,1.02c0.274,0.397,0.506,0.812,0.704,1.247l0.618,1.246l-0.094,0.075l0.094,1.096
		c0.227,2.72-1.011,5.364-3.229,6.903c-3.022,2.106-7.102,1.728-9.704-0.868c-0.311-0.312-0.613-0.652-0.863-1.03
		c-0.406-0.585-0.727-1.227-0.958-1.907l-0.761-2.248l-2.092,1.132c-1.209,0.643-2.483,1.426-3.758,2.362
		c-3.267,2.332-6.748,5.477-10.62,9.613c-1.728,1.851-3.536,3.891-5.378,6.082l-1.356,1.634l-1.478,1.746
		C164.087,274.278,163.019,275.467,161.915,276.628z M201.62,346.086l-35.258-35.253l9.623-9.614l35.249,35.253L201.62,346.086z
		 M270.265,327c-0.77,2.276-1.903,4.674-3.362,7.092c-2.531,4.212-5.936,8.443-10.421,12.976c-1.988,1.993-4.165,4.023-6.469,6.035
		l-3.258,2.804c-1.043,0.906-2.087,1.861-3.135,2.871c-4.236,4.004-7.82,8.065-10.653,12.068c-2.932,4.127-5.137,8.329-6.383,12.163
		c-0.185,0.576-0.359,1.152-0.501,1.719l-0.703,2.747l2.814-0.236c1.992-0.16,4.004,0.378,5.661,1.549
		c0.43,0.284,0.827,0.623,1.195,0.982c2.97,2.984,3.385,7.65,0.986,11.116c-2.45,3.504-7.177,4.721-11.006,2.814l-0.08-0.048
		l-0.09-0.019c-1.147-0.452-2.2-1.057-3.12-1.794c-0.401-0.311-0.77-0.632-1.119-0.991c-1.356-1.351-2.475-3.079-3.249-4.996
		c-1.756-4.345-1.95-9.737-0.552-15.573c1.223-5.118,3.588-10.378,7.03-15.629c3.164-4.835,7.196-9.575,11.98-14.109
		c1.156-1.096,2.347-2.172,3.513-3.173l1.748-1.482l1.619-1.351c2.201-1.851,4.24-3.636,6.091-5.382
		c4.127-3.862,7.277-7.348,9.619-10.615c0.921-1.265,1.718-2.54,2.356-3.74l1.119-2.106l-2.252-0.765
		c-0.67-0.226-1.312-0.547-1.894-0.953c-0.373-0.265-0.717-0.548-1.038-0.87c-2.601-2.596-2.965-6.676-0.864-9.698
		c1.544-2.229,4.193-3.456,6.913-3.23l1.091,0.095l0.07-0.095l1.162,0.576c0.529,0.236,0.95,0.463,1.336,0.746
		c0.368,0.265,0.712,0.548,1.029,0.85c0.416,0.416,0.789,0.897,1.1,1.417l0.057,0.075l0.066,0.085
		c0.368,0.482,0.685,0.954,0.954,1.436c1.171,2.03,1.837,4.523,1.89,7.054C271.577,321.816,271.157,324.366,270.265,327z"/>
	<polygon class="st0" points="224.373,251.367 242.326,269.31 260.269,287.263 444.011,96.343 415.203,67.55 	"/>
</g>
</svg>