<?xml version="1.0" encoding="utf-8"?>


<svg version="1.1" id="Icons" xmlns="http://www.w3.org/2000/svg" xmlns:xlink="http://www.w3.org/1999/xlink" 
	 viewBox="0 0 32 32" xml:space="preserve">
<style type="text/css">
	.st0{fill:none;stroke:#000000;stroke-width:2;stroke-linecap:round;stroke-linejoin:round;stroke-miterlimit:10;}
</style>
<g>
	<path d="M7,26h20c0.6,0,1-0.4,1-1V3c0-0.6-0.4-1-1-1H8C5.8,2,4,3.8,4,6v21c0,0,0,0,0,0c0,1.7,1.3,3,3,3h20c0.6,0,1-0.4,1-1
		s-0.4-1-1-1H7c-0.6,0-1-0.4-1-1S6.4,26,7,26z M10.1,18.6l5-10c0.3-0.7,1.5-0.7,1.8,0l5,10c0.2,0.5,0,1.1-0.4,1.3
		C21.3,20,21.2,20,21,20c-0.4,0-0.7-0.2-0.9-0.6L18.9,17h-5.8l-1.2,2.4c-0.2,0.5-0.8,0.7-1.3,0.4C10.1,19.6,9.9,19,10.1,18.6z"/>
	<polygon points="16,11.2 14.1,15 17.9,15 	"/>
</g>
</svg>