<?xml version="1.0" encoding="utf-8"?>


<svg version="1.1" id="Icons" xmlns="http://www.w3.org/2000/svg" xmlns:xlink="http://www.w3.org/1999/xlink" 
	 viewBox="0 0 32 32" xml:space="preserve">
<style type="text/css">
	.st0{fill:none;stroke:#000000;stroke-width:2;stroke-linecap:round;stroke-linejoin:round;stroke-miterlimit:10;}
</style>
<path d="M30,15c0-2.7-1.6-5.1-3.8-6.2C27.3,7.9,28,6.5,28,5c0-0.6-0.4-1-1-1s-1,0.4-1,1c0,1.3-0.9,2.4-2.2,2.8l-1,0.3
	c-3.4,0.1-6.3,2.7-6.8,6h-4.4c-0.2,0-0.3,0-0.5,0c0,0-0.1,0-0.1,0c-0.1,0-0.3,0-0.4,0.1C7.4,14.6,5,17.3,5,20.6V22
	c-1.7,0.2-3,1.7-3,3.5C2,27.4,3.6,29,5.5,29H7c2.2,0,4-1.8,4-4v-1h3.5l2.2,3.4c0.5,0.8,1.4,1.3,2.3,1.5c0.9,0.2,1.9-0.1,2.7-0.6
	c1.5-1.1,1.8-3.2,0.8-4.7c0,0,0,0,0,0l-1.1-1.7c0.5,0.1,1,0.2,1.6,0.2C26.9,22,30,18.9,30,15z M24,14c0-0.6,0.4-1,1-1s1,0.4,1,1v2
	c0,0.6-0.4,1-1,1s-1-0.4-1-1V14z M10,22H7v-1.4c0-2,1.3-3.7,3-4.3V22z"/>
</svg>