<?xml version="1.0" encoding="utf-8"?>


<svg version="1.1" id="Icons" xmlns="http://www.w3.org/2000/svg" xmlns:xlink="http://www.w3.org/1999/xlink" 
	 viewBox="0 0 32 32" xml:space="preserve">
<style type="text/css">
	.st0{fill:none;stroke:#000000;stroke-width:2;stroke-linecap:round;stroke-linejoin:round;stroke-miterlimit:10;}
</style>
<path d="M29,16h-3.3c0.2-0.3,0.4-0.7,0.6-1c1.5-0.2,2.7-1.4,2.7-3c0-1.5-1.2-2.8-2.7-3c-1-2.2-3.1-3.7-5.5-4l-0.6-0.3
	C19.5,4.5,19,3.8,19,3c0-0.6-0.4-1-1-1s-1,0.4-1,1c0,0.9,0.3,1.7,0.8,2.4C16,6,14.5,7.3,13.7,9c-1.5,0.2-2.7,1.4-2.7,3
	s1.2,2.8,2.7,3c0.2,0.4,0.4,0.7,0.6,1H6V5.8C6,4.8,6.8,4,7.8,4c0.5,0,1,0.2,1.3,0.5l0.6,0.6l-1.4,1C8,6.5,7.9,7.2,8.2,7.6
	C8.4,7.9,8.7,8,9,8c0.2,0,0.4-0.1,0.6-0.2l4-3c0.4-0.3,0.5-1,0.2-1.4c-0.3-0.4-1-0.5-1.4-0.2l-1,0.8l-0.8-0.8C9.8,2.4,8.9,2,7.8,2
	C5.7,2,4,3.7,4,5.8V16H3c-0.6,0-1,0.4-1,1v4.6c0,2.2,1.1,4.2,2.8,5.3l-0.8,1.7c-0.2,0.5,0,1.1,0.5,1.3C4.7,30,4.9,30,5,30
	c0.4,0,0.7-0.2,0.9-0.6l0.7-1.7C7.2,27.9,7.8,28,8.4,28h15.1c0.6,0,1.2-0.1,1.8-0.3l0.7,1.7c0.2,0.4,0.5,0.6,0.9,0.6
	c0.1,0,0.3,0,0.4-0.1c0.5-0.2,0.7-0.8,0.5-1.3l-0.8-1.7c1.7-1.2,2.8-3.1,2.8-5.3V17C30,16.4,29.6,16,29,16z M18,11c0,0.6-0.4,1-1,1
	s-1-0.4-1-1V9c0-0.6,0.4-1,1-1s1,0.4,1,1V11z M22,11c0,0.6-0.4,1-1,1s-1-0.4-1-1V9c0-0.6,0.4-1,1-1s1,0.4,1,1V11z"/>
</svg>