<?xml version="1.0" encoding="utf-8"?>


<svg version="1.1" id="Icons" xmlns="http://www.w3.org/2000/svg" xmlns:xlink="http://www.w3.org/1999/xlink" 
	 viewBox="0 0 32 32" xml:space="preserve">
<style type="text/css">
	.st0{fill:none;stroke:#000000;stroke-width:2;stroke-linecap:round;stroke-linejoin:round;stroke-miterlimit:10;}
</style>
<path d="M28.4,7.3c-1.1-0.4-1.9-1-2.6-1.5c-1.2-0.8-2.4-1.6-4.3-1.9c-0.5-0.1-1,0.3-1.1,0.8c-0.4,2.1-2.2,3.6-4.3,3.6
	s-3.9-1.5-4.3-3.6c-0.1-0.5-0.6-0.9-1.1-0.8c-2,0.3-3.2,1.1-4.3,1.9C5.5,6.4,4.7,6.9,3.6,7.3C3.2,7.5,2.9,8,3,8.5l1.2,4.5
	c0.1,0.5,0.5,0.8,1,0.8l1.9-0.1c-0.8,3.4-0.6,7,0.5,10.3c0.1,0.4,0.4,0.6,0.8,0.7c2,0.2,3.6,1.6,4.2,3.6c0.1,0.4,0.5,0.7,1,0.7h4.8
	c0.4,0,0.8-0.3,1-0.7c0.5-2,2.2-3.4,4.2-3.6c0.4,0,0.7-0.3,0.8-0.7c1.2-3.3,1.4-6.9,0.5-10.3l1.9,0.1c0.5,0,0.9-0.3,1-0.8L29,8.5
	C29.1,8,28.8,7.5,28.4,7.3z M19.8,17c-0.5,1.7-2.1,3-3.8,3c-2.2,0-4-1.8-4-4s1.8-4,4-4c0.5,0,1,0.1,1.5,0.3c0.4,0.1,0.6,0.5,0.6,0.9
	s-0.2,0.8-0.6,0.9C17.2,14.3,17,14.6,17,15c0,0.7,0.7,1.2,1.4,0.9c0.4-0.2,0.8-0.1,1.1,0.1C19.8,16.3,20,16.7,19.8,17z"/>
</svg>