<?xml version="1.0" encoding="utf-8"?>


<svg version="1.1" id="Icons" xmlns="http://www.w3.org/2000/svg" xmlns:xlink="http://www.w3.org/1999/xlink" 
	 viewBox="0 0 32 32" xml:space="preserve">
<style type="text/css">
	.st0{fill:none;stroke:#000000;stroke-width:2;stroke-linecap:round;stroke-linejoin:round;stroke-miterlimit:10;}
</style>
<g>
	<path d="M16,8.7c-0.2,0-0.3,0-0.5-0.1c-0.6-0.1-1.1-0.5-1.4-1.1c-0.3-0.5-0.1-1.1,0.4-1.4C15,6,15.6,6.1,15.9,6.6
		c0,0.1,0.1,0.1,0.1,0.1c0.1,0,0.1,0,0.2,0c0.3-0.2,0.4-0.7,0.2-1c-0.2-0.3-0.4-0.5-0.7-0.5c-0.6,0-1-0.5-1-1c0-0.6,0.5-1,1-1
		c1,0,1.9,0.6,2.4,1.5c0.7,1.2,0.3,2.9-0.9,3.7C16.9,8.6,16.4,8.7,16,8.7z"/>
</g>
<g>
	<path d="M14,15c-0.6,0-1-0.4-1-1v-1c0-0.6,0.4-1,1-1s1,0.4,1,1v1C15,14.6,14.6,15,14,15z"/>
</g>
<g>
	<path d="M18,15c-0.6,0-1-0.4-1-1v-1c0-0.6,0.4-1,1-1s1,0.4,1,1v1C19,14.6,18.6,15,18,15z"/>
</g>
<g>
	<path d="M21.8,22.8c1.6,0,3.3-0.1,4.8-0.4c1.5-4.3,1.5-9-0.1-13.2C24.8,4.9,20.6,2,16,2S7.2,4.9,5.6,9.2c-0.8,2.2-1.2,4.4-1.3,6.7
		C8.1,20.2,14.7,22.8,21.8,22.8z M16,5c3.9,0,7,3.1,7,7s-3.1,7-7,7s-7-3.1-7-7S12.1,5,16,5z"/>
	<path d="M21.8,24.8c-6.7,0-12.9-2.2-17.2-5.9c0.2,1.3,0.5,2.7,1,3.9C7.2,27.1,11.4,30,16,30c3.9,0,7.6-2.1,9.6-5.4
		C24.3,24.7,23,24.8,21.8,24.8z"/>
</g>
</svg>