<?xml version="1.0" encoding="utf-8"?>


<svg version="1.1" id="Icons" xmlns="http://www.w3.org/2000/svg" xmlns:xlink="http://www.w3.org/1999/xlink" 
	 viewBox="0 0 32 32" xml:space="preserve">
<style type="text/css">
	.st0{fill:none;stroke:#000000;stroke-width:2;stroke-linecap:round;stroke-linejoin:round;stroke-miterlimit:10;}
</style>
<path d="M28,23h-1.2c0.1-0.3,0.2-0.6,0.2-1c0-1.4-0.9-2.5-2.2-2.9c0.1-0.3,0.2-0.7,0.2-1.1c0-1.4-0.9-2.5-2.2-2.9
	c0.1-0.3,0.2-0.7,0.2-1.1c0-1.4-0.9-2.5-2.2-2.9c0.1-0.3,0.2-0.7,0.2-1.1c0-1.3-0.8-2.4-2-2.8V4c0-0.6-0.4-1-1-1h-4
	c-0.6,0-1,0.4-1,1v3.2c-1.2,0.4-2,1.5-2,2.8c0,0.4,0.1,0.8,0.2,1.1C9.9,11.5,9,12.6,9,14c0,0.4,0.1,0.8,0.2,1.1
	C7.9,15.5,7,16.6,7,18c0,0.4,0.1,0.8,0.2,1.1C5.9,19.5,5,20.6,5,22c0,0.4,0.1,0.7,0.2,1H4c-0.6,0-1,0.4-1,1v4c0,0.6,0.4,1,1,1h24
	c0.6,0,1-0.4,1-1v-4C29,23.4,28.6,23,28,23z M14,9h4c0.6,0,1,0.4,1,1s-0.4,1-1,1h-4c-0.6,0-1-0.4-1-1S13.4,9,14,9z M12,13h2h4h2
	c0.6,0,1,0.4,1,1s-0.4,1-1,1h-8c-0.6,0-1-0.4-1-1S11.4,13,12,13z M10,17h2h8h2c0.6,0,1,0.4,1,1s-0.4,1-1,1H10c-0.6,0-1-0.4-1-1
	S9.4,17,10,17z M7,22c0-0.6,0.4-1,1-1h2h12h2c0.6,0,1,0.4,1,1s-0.4,1-1,1H8C7.4,23,7,22.6,7,22z"/>
</svg>