<?xml version="1.0" encoding="utf-8"?>


<svg version="1.1" id="Icons" xmlns="http://www.w3.org/2000/svg" xmlns:xlink="http://www.w3.org/1999/xlink" 
	 viewBox="0 0 32 32" xml:space="preserve">
<style type="text/css">
	.st0{fill:none;stroke:#000000;stroke-width:2;stroke-linecap:round;stroke-linejoin:round;stroke-miterlimit:10;}
</style>
<path d="M23.5,13h-1.8c0.8-1.2,1.3-2.5,1.3-4c0-3.9-3.1-7-7-7S9,5.1,9,9c0,1.5,0.4,2.8,1.3,4H8.5C7.1,13,6,14.1,6,15.5
	S7.1,18,8.5,18h4.4c-0.4,0.7-0.8,1.4-1.4,2c-1.2,1.4-1.8,3.2-1.4,5.1c0.4,2.4,2.3,4.3,4.6,4.8C15.1,30,15.6,30,16,30
	c1.4,0,2.7-0.5,3.8-1.3c1.4-1.1,2.2-2.8,2.2-4.7c0-1.4-0.5-2.7-1.4-3.8c-0.6-0.7-1.1-1.5-1.5-2.2h4.3c1.4,0,2.5-1.1,2.5-2.5
	S24.9,13,23.5,13z M20,24c0,1.2-0.5,2.3-1.5,3.1c-1,0.8-2.2,1.1-3.4,0.8c-1.5-0.3-2.8-1.6-3.1-3.2c-0.2-1.2,0.1-2.5,1-3.4
	c0.9-1,1.6-2.1,2.1-3.3h1.8c0.5,1.2,1.3,2.3,2.2,3.5C19.7,22.2,20,23.1,20,24z M16,13c-2.2,0-4-1.8-4-4s1.8-4,4-4s4,1.8,4,4
	S18.2,13,16,13z"/>
</svg>