<?xml version="1.0" encoding="utf-8"?>


<svg version="1.1" id="Icons" xmlns="http://www.w3.org/2000/svg" xmlns:xlink="http://www.w3.org/1999/xlink" 
	 viewBox="0 0 32 32" xml:space="preserve">
<style type="text/css">
	.st0{fill:none;stroke:#000000;stroke-width:2;stroke-linecap:round;stroke-linejoin:round;stroke-miterlimit:10;}
</style>
<g>
	<path d="M11.1,10.7c2.1-2.1,3.6-4.8,4.1-7.4C13.9,2.4,12.3,2,10.7,2C8.4,2,6.3,2.8,4.8,4.4C3.2,6,2.3,8.1,2.3,10.3
		c0,1.7,0.5,3.2,1.4,4.6C6.3,14.3,9,12.9,11.1,10.7z"/>
	<path d="M16.9,4.8c-0.8,2.6-2.3,5.2-4.4,7.3c-2.1,2.1-4.7,3.6-7.3,4.4c1.6,1.4,3.5,2.1,5.5,2.1c2.1,0,4.3-0.8,5.9-2.4
		c1.6-1.6,2.4-3.7,2.4-5.9C19,8.2,18.2,6.3,16.9,4.8z"/>
</g>
<g>
	<path d="M25.8,29c-1.3,0-2.8-0.6-4-1.8c-3.1-3.1-6.7-11.1-6.9-11.4c-0.2-0.4-0.1-0.8,0.2-1.1c0.3-0.3,0.7-0.4,1.1-0.2
		c0.3,0.2,8.3,3.8,11.4,6.9c2,2,2.4,5,0.7,6.6C27.7,28.7,26.8,29,25.8,29z M18,17.6c1.3,2.6,3.4,6.5,5.2,8.2
		c1.2,1.2,2.9,1.6,3.8,0.7c0.5-0.5,0.5-1.2,0.4-1.6c-0.1-0.8-0.5-1.5-1.2-2.2C24.5,21.1,20.6,18.9,18,17.6z"/>
</g>
</svg>