<?xml version="1.0" encoding="utf-8"?>


<svg version="1.1" id="Icons" xmlns="http://www.w3.org/2000/svg" xmlns:xlink="http://www.w3.org/1999/xlink" 
	 viewBox="0 0 32 32" xml:space="preserve">
<style type="text/css">
	.st0{fill:none;stroke:#000000;stroke-width:2;stroke-linecap:round;stroke-linejoin:round;stroke-miterlimit:10;}
</style>
<g>
	<path d="M28,9.4c-1.7,0-3,1.3-3,2.8V13h-8V4c0-0.6-0.4-1-1-1C9.9,3,5,7.9,5,14s4.9,11,11,11s11-4.9,11-11v-1.8c0-0.5,0.4-0.8,1-0.8
		c0.6,0,1-0.4,1-1S28.6,9.4,28,9.4z"/>
	<path d="M9,24c-1.7,0-3,1.3-3,3s1.3,3,3,3s3-1.3,3-3S10.7,24,9,24z"/>
	<path d="M23,24c-1.7,0-3,1.3-3,3s1.3,3,3,3s3-1.3,3-3S24.7,24,23,24z"/>
</g>
</svg>