<?xml version="1.0" encoding="utf-8"?>


<svg version="1.1" id="Icons" xmlns="http://www.w3.org/2000/svg" xmlns:xlink="http://www.w3.org/1999/xlink" 
	 viewBox="0 0 32 32" xml:space="preserve">
<style type="text/css">
	.st0{fill:none;stroke:#000000;stroke-width:2;stroke-linecap:round;stroke-linejoin:round;stroke-miterlimit:10;}
</style>
<g>
	<path d="M26,22c-2.2,0-4,1.8-4,4s1.8,4,4,4s4-1.8,4-4S28.2,22,26,22z M26,28c-1.1,0-2-0.9-2-2s0.9-2,2-2s2,0.9,2,2S27.1,28,26,28z"
		/>
	<path d="M29.5,19.9C28.4,19.3,27.2,19,26,19c-2,0-3.8,0.8-5.1,2.4c-0.4,0.4-0.8,0.6-1.3,0.6H13c-1.1,0-2-0.9-2-2V9h3
		c0.1,0,0.1,0,0.2,0c0.1,0,0.2,0,0.3,0C15.9,9,17,7.9,17,6.5S15.9,4,14.5,4c-0.1,0-0.2,0-0.3,0c-0.1,0-0.1,0-0.2,0H4.5
		C3.1,4,2,5.1,2,6.5S3.1,9,4.5,9H6v13.1c-1.7,0.4-3,2-3,3.9c0,2.2,1.8,4,4,4c1.9,0,3.4-1.3,3.9-3H19c0.3,0,0.6-0.2,0.8-0.4l2.8-4.1
		c0.9-1,2-1.5,3.3-1.5c0.9,0,1.7,0.2,2.5,0.7c0.5,0.3,1.1,0.1,1.4-0.4C30.1,20.8,30,20.2,29.5,19.9z M7,28c-1.1,0-2-0.9-2-2
		s0.9-2,2-2s2,0.9,2,2S8.1,28,7,28z"/>
</g>
</svg>