<?xml version="1.0" encoding="utf-8"?>


<svg version="1.1" id="Icons" xmlns="http://www.w3.org/2000/svg" xmlns:xlink="http://www.w3.org/1999/xlink" 
	 viewBox="0 0 32 32" xml:space="preserve">
<style type="text/css">
	.st0{fill:none;stroke:#000000;stroke-width:2;stroke-linecap:round;stroke-linejoin:round;stroke-miterlimit:10;}
</style>
<g>
	<path d="M26,7c-1.5,0-2.7,0.8-3.4,2H17V6h11c0.6,0,1-0.4,1-1s-0.4-1-1-1H4C3.4,4,3,4.4,3,5s0.4,1,1,1h11v3C7.8,9,2,14.8,2,22
		c0,0.6,0.4,1,1,1h3v3c-0.9-0.1-1.7-0.6-2.1-1.4c-0.2-0.5-0.8-0.7-1.3-0.4c-0.5,0.2-0.7,0.8-0.4,1.3C2.9,27,4.5,28,6.2,28H19
		c0.6,0,1-0.4,1-1s-0.4-1-1-1h-4v-3.6c2.7-1.1,4.7-3.6,5-6.6l4.3-1.3c0.5,0.3,1.1,0.4,1.8,0.4c2.2,0,4-1.8,4-4S28.2,7,26,7z
		 M12,11.4V15c0,1.7-1.3,3-3,3H4.8C6,14.8,8.7,12.4,12,11.4z M13,26H8v-3h4.1c0.3,0,0.6,0,0.9-0.1V26z M26,13c-1.1,0-2-0.9-2-2
		s0.9-2,2-2s2,0.9,2,2S27.1,13,26,13z"/>
	<path d="M26.9,10.6c0-0.1-0.1-0.1-0.1-0.2c0,0-0.1-0.1-0.1-0.1c-0.4-0.4-1-0.4-1.4,0c0,0-0.1,0.1-0.1,0.1c0,0.1-0.1,0.1-0.1,0.2
		c0,0.1,0,0.1-0.1,0.2c0,0.1,0,0.1,0,0.2c0,0.1,0,0.3,0.1,0.4c0.1,0.1,0.1,0.2,0.2,0.3c0.1,0.1,0.2,0.2,0.3,0.2
		c0.1,0,0.3,0.1,0.4,0.1c0.1,0,0.3,0,0.4-0.1s0.2-0.1,0.3-0.2c0.1-0.1,0.2-0.2,0.2-0.3C27,11.3,27,11.1,27,11c0-0.1,0-0.1,0-0.2
		C27,10.7,26.9,10.7,26.9,10.6z"/>
</g>
</svg>