<?xml version="1.0" encoding="utf-8"?>
<svg version="1.1" xmlns="http://www.w3.org/2000/svg" xmlns:xlink="http://www.w3.org/1999/xlink" 
	 width="800px" height="800px" viewBox="0 0 32 32" xml:space="preserve">
<style type="text/css">
	.dashing_een{fill:#0B1719;}
</style>
<path class="dashing_een" d="M2.147,12.139l1.426-1.426c0.197-0.197,0.516-0.197,0.713,0c0.197,0.197,0.197,0.516,0,0.713
	L2.86,12.852c-0.197,0.197-0.516,0.197-0.713,0C1.95,12.655,1.95,12.336,2.147,12.139z M5.713,9.287
	c0.197,0.197,0.516,0.197,0.713,0L7.852,7.86c0.197-0.197,0.197-0.516,0-0.713c-0.197-0.197-0.516-0.197-0.713,0L5.713,8.574
	C5.516,8.771,5.516,9.089,5.713,9.287z M7.852,12.852c0.197-0.197,0.197-0.516,0-0.713l-1.426-1.426
	c-0.197-0.197-0.516-0.197-0.713,0c-0.197,0.197-0.197,0.516,0,0.713l1.426,1.426C7.336,13.049,7.655,13.049,7.852,12.852z
	 M4.287,9.287c0.197-0.197,0.197-0.516,0-0.713L2.86,7.147c-0.197-0.197-0.516-0.197-0.713,0c-0.197,0.197-0.197,0.516,0,0.713
	l1.426,1.426C3.771,9.484,4.089,9.484,4.287,9.287z M14.147,8.852c0.197,0.197,0.516,0.197,0.713,0l1.426-1.426
	c0.197-0.197,0.197-0.516,0-0.713c-0.197-0.197-0.516-0.197-0.713,0l-1.426,1.426C13.95,8.336,13.95,8.655,14.147,8.852z
	 M17.713,5.287c0.197,0.197,0.516,0.197,0.713,0l1.426-1.426c0.197-0.197,0.197-0.516,0-0.713c-0.197-0.197-0.516-0.197-0.713,0
	l-1.426,1.426C17.516,4.771,17.516,5.089,17.713,5.287z M19.852,8.852c0.197-0.197,0.197-0.516,0-0.713l-1.426-1.426
	c-0.197-0.197-0.516-0.197-0.713,0c-0.197,0.197-0.197,0.516,0,0.713l1.426,1.426C19.336,9.049,19.655,9.049,19.852,8.852z
	 M16.287,5.287c0.197-0.197,0.197-0.516,0-0.713L14.86,3.147c-0.197-0.197-0.516-0.197-0.713,0c-0.197,0.197-0.197,0.516,0,0.713
	l1.426,1.426C15.771,5.484,16.089,5.484,16.287,5.287z M4.147,23.852c0.197,0.197,0.516,0.197,0.713,0l1.426-1.426
	c0.197-0.197,0.197-0.516,0-0.713c-0.197-0.197-0.516-0.197-0.713,0l-1.426,1.426C3.95,23.336,3.95,23.655,4.147,23.852z
	 M7.713,20.287c0.197,0.197,0.516,0.197,0.713,0l1.426-1.426c0.197-0.197,0.197-0.516,0-0.713c-0.197-0.197-0.516-0.197-0.713,0
	l-1.426,1.426C7.516,19.771,7.516,20.089,7.713,20.287z M9.852,23.852c0.197-0.197,0.197-0.516,0-0.713l-1.426-1.426
	c-0.197-0.197-0.516-0.197-0.713,0s-0.197,0.516,0,0.713l1.426,1.426C9.336,24.049,9.655,24.049,9.852,23.852z M6.287,20.287
	c0.197-0.197,0.197-0.516,0-0.713L4.86,18.147c-0.197-0.197-0.516-0.197-0.713,0c-0.197,0.197-0.197,0.516,0,0.713l1.426,1.426
	C5.771,20.484,6.089,20.484,6.287,20.287z M13.151,11.323l15.556,15.556c0.39,0.39,0.39,1.024,0,1.414l-1.414,1.414
	c-0.39,0.39-1.024,0.39-1.414,0L10.323,14.151c-0.39-0.39-0.39-1.024,0-1.414l1.414-1.414
	C12.127,10.933,12.761,10.933,13.151,11.323z M10.999,13.414l2.828,2.828l1.414-1.414l-2.828-2.828L10.999,13.414z M28.001,27.586
	L28.001,27.586L15.98,15.566l-1.414,1.414l12.021,12.021L28.001,27.586l0.353,0.354L28.001,27.586z"/>
</svg>