<?xml version="1.0" encoding="utf-8"?>
<svg version="1.1" xmlns="http://www.w3.org/2000/svg" xmlns:xlink="http://www.w3.org/1999/xlink" 
	 width="800px" height="800px" viewBox="0 0 32 32" xml:space="preserve">
<style type="text/css">
	.dashing_een{fill:#0B1719;}
</style>
<path class="dashing_een" d="M17,6.5C17,6.224,17.224,6,17.5,6h2C19.776,6,20,6.224,20,6.5S19.776,7,19.5,7h-2
	C17.224,7,17,6.776,17,6.5z M12.5,7h2C14.776,7,15,6.776,15,6.5S14.776,6,14.5,6h-2C12.224,6,12,6.224,12,6.5S12.224,7,12.5,7z
	 M17.5,12h2c0.276,0,0.5-0.224,0.5-0.5S19.776,11,19.5,11h-2c-0.276,0-0.5,0.224-0.5,0.5S17.224,12,17.5,12z M12.5,12h2
	c0.276,0,0.5-0.224,0.5-0.5S14.776,11,14.5,11h-2c-0.276,0-0.5,0.224-0.5,0.5S12.224,12,12.5,12z M7.309,31.962
	c0.187,0.078,0.402,0.035,0.545-0.108L16,23.707l8.146,8.146c0.143,0.143,0.358,0.186,0.545,0.108C24.878,31.885,25,31.702,25,31.5
	v-31C25,0.224,24.776,0,24.5,0h-17C7.224,0,7,0.224,7,0.5v31C7,31.702,7.122,31.885,7.309,31.962z M24,1v29.293l-7.646-7.646
	c-0.195-0.195-0.512-0.195-0.707,0L8,30.293V1H24z"/>
</svg>