<?xml version="1.0" encoding="utf-8"?>
<svg version="1.1" xmlns="http://www.w3.org/2000/svg" xmlns:xlink="http://www.w3.org/1999/xlink" 
	 width="800px" height="800px" viewBox="0 0 32 32" xml:space="preserve">
<style type="text/css">
	.dashing_een{fill:#0B1719;}
</style>
<path class="dashing_een" d="M24.5,32h-2c-0.276,0-0.5-0.224-0.5-0.5s0.224-0.5,0.5-0.5h2c0.276,0,0.5,0.224,0.5,0.5
	S24.776,32,24.5,32z M20,31.5c0-0.276-0.224-0.5-0.5-0.5h-2c-0.276,0-0.5,0.224-0.5,0.5s0.224,0.5,0.5,0.5h2
	C19.776,32,20,31.776,20,31.5z M15,31.5c0-0.276-0.224-0.5-0.5-0.5h-2c-0.276,0-0.5,0.224-0.5,0.5s0.224,0.5,0.5,0.5h2
	C14.776,32,15,31.776,15,31.5z M10,31.5c0-0.276-0.224-0.5-0.5-0.5h-2C7.224,31,7,31.224,7,31.5S7.224,32,7.5,32h2
	C9.776,32,10,31.776,10,31.5z M29.5,27c0.276,0,0.5-0.224,0.5-0.5v-2c0-0.276-0.224-0.5-0.5-0.5S29,24.224,29,24.5v2
	C29,26.776,29.224,27,29.5,27z M29.5,29c-0.276,0-0.5,0.224-0.5,0.5V31h-1.5c-0.276,0-0.5,0.224-0.5,0.5s0.224,0.5,0.5,0.5h2
	c0.276,0,0.5-0.224,0.5-0.5v-2C30,29.224,29.776,29,29.5,29z M31.5,19h-2c-0.276,0-0.5,0.224-0.5,0.5v2c0,0.276,0.224,0.5,0.5,0.5
	s0.5-0.224,0.5-0.5V20h1.5c0.276,0,0.5-0.224,0.5-0.5S31.776,19,31.5,19z M4.5,31H3v-1.5C3,29.224,2.776,29,2.5,29S2,29.224,2,29.5
	v2C2,31.776,2.224,32,2.5,32h2C4.776,32,5,31.776,5,31.5S4.776,31,4.5,31z M2.5,27C2.776,27,3,26.776,3,26.5v-2
	C3,24.224,2.776,24,2.5,24S2,24.224,2,24.5v2C2,26.776,2.224,27,2.5,27z M2.5,19h-2C0.224,19,0,19.224,0,19.5S0.224,20,0.5,20H2v1.5
	C2,21.776,2.224,22,2.5,22S3,21.776,3,21.5v-2C3,19.224,2.776,19,2.5,19z M17.399,22.257l-4.596,4.596
	C12.709,26.948,12.582,27,12.45,27H7.5c-0.138,0-0.263-0.056-0.354-0.146S7,26.638,7,26.5v-4.95c0-0.133,0.052-0.26,0.146-0.354
	l4.596-4.596c0.195-0.195,0.512-0.195,0.707,0l2.121,2.121L25.885,7.408l-2.121-2.121c-0.195-0.195-0.195-0.512,0-0.707
	c0.195-0.195,0.512-0.195,0.707,0l4.95,4.95c0.195,0.195,0.195,0.512,0,0.707c-0.195,0.195-0.512,0.195-0.707,0l-2.121-2.121
	L15.278,19.429l2.121,2.121C17.595,21.746,17.595,22.062,17.399,22.257z M16.339,21.904l-4.243-4.243L8,21.757V26h4.243
	L16.339,21.904z"/>
</svg>