<?xml version="1.0" encoding="utf-8"?>
<svg version="1.1" xmlns="http://www.w3.org/2000/svg" xmlns:xlink="http://www.w3.org/1999/xlink" 
	 width="800px" height="800px" viewBox="0 0 32 32" xml:space="preserve">
<style type="text/css">
	.dashing_een{fill:#0B1719;}
</style>
<path class="dashing_een" d="M26.5,3h-1.64l-0.886-2.658C23.906,0.138,23.715,0,23.5,0h-15C8.285,0,8.094,0.138,8.026,0.342L7.14,3
	H5.5C5.224,3,5,3.224,5,3.5v4C5,7.776,5.224,8,5.5,8h1.54l1.962,23.542C9.023,31.801,9.24,32,9.5,32h13
	c0.26,0,0.477-0.199,0.498-0.458L24.96,8h1.54C26.776,8,27,7.776,27,7.5v-4C27,3.224,26.776,3,26.5,3z M8.86,1H23.14l0.667,2H8.194
	L8.86,1z M22.04,31H9.96L8.043,8h15.913L22.04,31z M26,7H6V4h1.5h17H26V7z M19.713,14.574l1.426-1.426
	c0.197-0.197,0.516-0.197,0.713,0c0.197,0.197,0.197,0.516,0,0.713l-1.426,1.426c-0.197,0.197-0.516,0.197-0.713,0
	C19.516,15.09,19.516,14.771,19.713,14.574z M16.148,18.139l1.426-1.426c0.197-0.197,0.516-0.197,0.713,0s0.197,0.516,0,0.713
	l-1.426,1.426c-0.197,0.197-0.516,0.197-0.713,0C15.951,18.655,15.951,18.336,16.148,18.139z M13.713,14.574l1.426-1.426
	c0.197-0.197,0.516-0.197,0.713,0c0.197,0.197,0.197,0.516,0,0.713l-1.426,1.426c-0.197,0.197-0.516,0.197-0.713,0
	C13.516,15.09,13.516,14.771,13.713,14.574z M10.148,18.139l1.426-1.426c0.197-0.197,0.516-0.197,0.713,0
	c0.197,0.197,0.197,0.516,0,0.713l-1.426,1.426c-0.197,0.197-0.516,0.197-0.713,0C9.951,18.655,9.951,18.336,10.148,18.139z"/>
</svg>