<?xml version="1.0" encoding="utf-8"?>
<svg version="1.1" xmlns="http://www.w3.org/2000/svg" xmlns:xlink="http://www.w3.org/1999/xlink" 
	 width="800px" height="800px" viewBox="0 0 32 32" xml:space="preserve">
<style type="text/css">
	.dashing_een{fill:#0B1719;}
</style>
<path class="dashing_een" d="M12.5,10h2c0.276,0,0.5,0.224,0.5,0.5S14.776,11,14.5,11h-2c-0.276,0-0.5-0.224-0.5-0.5
	S12.224,10,12.5,10z M7,10.5C7,10.776,7.224,11,7.5,11h2c0.276,0,0.5-0.224,0.5-0.5S9.776,10,9.5,10h-2C7.224,10,7,10.224,7,10.5z
	 M17,10.5c0,0.276,0.224,0.5,0.5,0.5h2c0.276,0,0.5-0.224,0.5-0.5S19.776,10,19.5,10h-2C17.224,10,17,10.224,17,10.5z M22,10.5
	c0,0.276,0.224,0.5,0.5,0.5h2c0.276,0,0.5-0.224,0.5-0.5S24.776,10,24.5,10h-2C22.224,10,22,10.224,22,10.5z M12,15.5
	c0,0.276,0.224,0.5,0.5,0.5h2c0.276,0,0.5-0.224,0.5-0.5S14.776,15,14.5,15h-2C12.224,15,12,15.224,12,15.5z M7,15.5
	C7,15.776,7.224,16,7.5,16h2c0.276,0,0.5-0.224,0.5-0.5S9.776,15,9.5,15h-2C7.224,15,7,15.224,7,15.5z M17,15.5
	c0,0.276,0.224,0.5,0.5,0.5h2c0.276,0,0.5-0.224,0.5-0.5S19.776,15,19.5,15h-2C17.224,15,17,15.224,17,15.5z M22,15.5
	c0,0.276,0.224,0.5,0.5,0.5h2c0.276,0,0.5-0.224,0.5-0.5S24.776,15,24.5,15h-2C22.224,15,22,15.224,22,15.5z M0.5,24h18.262
	l-1.726,4.314c-0.082,0.204-0.021,0.435,0.148,0.574c0.171,0.138,0.41,0.148,0.593,0.027L25.151,24H31.5c0.276,0,0.5-0.224,0.5-0.5
	v-20C32,3.224,31.776,3,31.5,3h-31C0.224,3,0,3.224,0,3.5v20C0,23.776,0.224,24,0.5,24z M31,4v19h-6
	c-0.099,0-0.195,0.029-0.277,0.084l-6.16,4.107l1.401-3.506c0.062-0.153,0.042-0.329-0.05-0.466C19.821,23.082,19.666,23,19.5,23H1
	V4H31z"/>
</svg>