<?xml version="1.0" encoding="utf-8"?>
<svg version="1.1" xmlns="http://www.w3.org/2000/svg" xmlns:xlink="http://www.w3.org/1999/xlink" 
	 width="800px" height="800px" viewBox="0 0 32 32" xml:space="preserve">
<style type="text/css">
	.dashing_een{fill:#0B1719;}
</style>
<path class="dashing_een" d="M31.5,6h-31C0.224,6,0,6.224,0,6.5v7C0,13.776,0.224,14,0.5,14H2v12.5C2,26.776,2.224,27,2.5,27h27
	c0.276,0,0.5-0.224,0.5-0.5V14h1.5c0.276,0,0.5-0.224,0.5-0.5v-7C32,6.224,31.776,6,31.5,6z M29,26H3V14h26V26z M31,13H1V7h30V13z
	 M19.713,18.574l1.426-1.426c0.197-0.197,0.516-0.197,0.713,0c0.197,0.197,0.197,0.516,0,0.713l-1.426,1.426
	c-0.197,0.197-0.516,0.197-0.713,0S19.516,18.771,19.713,18.574z M16.148,22.139l1.426-1.426c0.197-0.197,0.516-0.197,0.713,0
	s0.197,0.516,0,0.713l-1.426,1.426c-0.197,0.197-0.516,0.197-0.713,0C15.951,22.655,15.951,22.336,16.148,22.139z M13.713,18.574
	l1.426-1.426c0.197-0.197,0.516-0.197,0.713,0c0.197,0.197,0.197,0.516,0,0.713l-1.426,1.426c-0.197,0.197-0.516,0.197-0.713,0
	C13.516,19.09,13.516,18.771,13.713,18.574z M10.148,22.139l1.426-1.426c0.197-0.197,0.516-0.197,0.713,0
	c0.197,0.197,0.197,0.516,0,0.713l-1.426,1.426c-0.197,0.197-0.516,0.197-0.713,0C9.951,22.655,9.951,22.336,10.148,22.139z"/>
</svg>