<?xml version="1.0" encoding="utf-8"?>
<svg version="1.1" xmlns="http://www.w3.org/2000/svg" xmlns:xlink="http://www.w3.org/1999/xlink" 
	 width="800px" height="800px" viewBox="0 0 32 32" xml:space="preserve">
<style type="text/css">
	.dashing_een{fill:#0B1719;}
</style>
<path class="dashing_een" d="M18.5,16h2c0.276,0,0.5,0.224,0.5,0.5S20.776,17,20.5,17h-2c-0.276,0-0.5-0.224-0.5-0.5
	S18.224,16,18.5,16z M23,16.5c0,0.276,0.224,0.5,0.5,0.5h2c0.276,0,0.5-0.224,0.5-0.5S25.776,16,25.5,16h-2
	C23.224,16,23,16.224,23,16.5z M18,21.5c0,0.276,0.224,0.5,0.5,0.5h2c0.276,0,0.5-0.224,0.5-0.5S20.776,21,20.5,21h-2
	C18.224,21,18,21.224,18,21.5z M23,21.5c0,0.276,0.224,0.5,0.5,0.5h2c0.276,0,0.5-0.224,0.5-0.5S25.776,21,25.5,21h-2
	C23.224,21,23,21.224,23,21.5z M18,26.5c0,0.276,0.224,0.5,0.5,0.5h2c0.276,0,0.5-0.224,0.5-0.5S20.776,26,20.5,26h-2
	C18.224,26,18,26.224,18,26.5z M23,26.5c0,0.276,0.224,0.5,0.5,0.5h2c0.276,0,0.5-0.224,0.5-0.5S25.776,26,25.5,26h-2
	C23.224,26,23,26.224,23,26.5z M6,7.5C6,7.776,6.224,8,6.5,8h2C8.776,8,9,7.776,9,7.5S8.776,7,8.5,7h-2C6.224,7,6,7.224,6,7.5z
	 M11,7.5C11,7.776,11.224,8,11.5,8h2C13.776,8,14,7.776,14,7.5S13.776,7,13.5,7h-2C11.224,7,11,7.224,11,7.5z M6,12.5
	C6,12.776,6.224,13,6.5,13h2C8.776,13,9,12.776,9,12.5S8.776,12,8.5,12h-2C6.224,12,6,12.224,6,12.5z M6,17.5
	C6,17.776,6.224,18,6.5,18h2C8.776,18,9,17.776,9,17.5S8.776,17,8.5,17h-2C6.224,17,6,17.224,6,17.5z M31,14.502V31.5
	c0,0.276-0.224,0.5-0.5,0.5h-17c-0.276,0-0.5-0.224-0.5-0.5V23H1.5C1.224,23,1,22.776,1,22.5v-22C1,0.224,1.224,0,1.5,0h11.998
	c0.123,0.003,0.255,0.047,0.354,0.145l0.001,0.001l0.001,0.001l5,5l0.001,0.001l0.001,0.001C18.952,5.246,19,5.373,19,5.5
	c0,0.001,0,0.001,0,0.002V9h6.498c0.155-0.003,0.255,0.048,0.354,0.145l0.001,0.001l0.001,0.001l5,5l0.001,0.001l0.001,0.001
	C30.952,14.246,31,14.374,31,14.502z M26,14h3.293L26,10.707V14z M14,5h3.293L14,1.707V5z M13,22v-4h-1.5
	c-0.276,0-0.5-0.224-0.5-0.5s0.224-0.5,0.5-0.5H13v-4h-1.5c-0.276,0-0.5-0.224-0.5-0.5s0.224-0.5,0.5-0.5H13V9.5
	C13,9.224,13.224,9,13.5,9H18V6h-4.5C13.224,6,13,5.776,13,5.5V1H2v21H13z M30,15h-4.5c-0.276,0-0.5-0.224-0.5-0.5V10H14v21h16V15z"
	/>
</svg>