<?xml version="1.0" encoding="utf-8"?>
<svg version="1.1" xmlns="http://www.w3.org/2000/svg" xmlns:xlink="http://www.w3.org/1999/xlink" 
	 width="800px" height="800px" viewBox="0 0 32 32" xml:space="preserve">
<style type="text/css">
	.dashing_een{fill:#0B1719;}
</style>
<path class="dashing_een" d="M10.873,22.707l1.414,1.414c0.195,0.195,0.195,0.512,0,0.707s-0.512,0.195-0.707,0l-1.414-1.414
	c-0.195-0.195-0.195-0.512,0-0.707C10.362,22.512,10.678,22.512,10.873,22.707z M20.066,22.707c-0.195,0.195-0.195,0.512,0,0.707
	l1.414,1.414c0.195,0.195,0.512,0.195,0.707,0c0.195-0.195,0.195-0.512,0-0.707l-1.414-1.414
	C20.578,22.512,20.261,22.512,20.066,22.707z M14.763,20.939l-1.414,1.414c-0.195,0.195-0.195,0.512,0,0.707
	c0.195,0.195,0.512,0.195,0.707,0l1.414-1.414c0.195-0.195,0.195-0.512,0-0.707S14.958,20.744,14.763,20.939z M25.369,20.939
	c-0.195-0.195-0.512-0.195-0.707,0l-1.414,1.414c-0.195,0.195-0.195,0.512,0,0.707s0.512,0.195,0.707,0l1.414-1.414
	C25.565,21.451,25.565,21.135,25.369,20.939z M32,24c0,2.757-2.243,5-5,5H5c-2.757,0-5-2.243-5-5s2.243-5,5-5h20v-5H12.5
	c-0.276,0-0.5-0.224-0.5-0.5v-9C12,4.224,12.224,4,12.5,4h13C25.776,4,26,4.224,26,4.5V19h1C29.757,19,32,21.243,32,24z M25,13V5H13
	v8H25z M31,24c0-2.206-1.794-4-4-4h-8.934l0.586,0.586c0.195,0.195,0.195,0.512,0,0.707c-0.195,0.195-0.512,0.195-0.707,0L16.652,20
	H8.166l0.586,0.586c0.195,0.195,0.195,0.512,0,0.707c-0.195,0.195-0.512,0.195-0.707,0L6.752,20H5c-2.206,0-4,1.794-4,4s1.794,4,4,4
	h22C29.206,28,31,26.206,31,24z M20,7.5C20,7.776,20.224,8,20.5,8h2C22.776,8,23,7.776,23,7.5S22.776,7,22.5,7h-2
	C20.224,7,20,7.224,20,7.5z M15,7.5C15,7.776,15.224,8,15.5,8h2C17.776,8,18,7.776,18,7.5S17.776,7,17.5,7h-2
	C15.224,7,15,7.224,15,7.5z M20,10.5c0,0.276,0.224,0.5,0.5,0.5h2c0.276,0,0.5-0.224,0.5-0.5S22.776,10,22.5,10h-2
	C20.224,10,20,10.224,20,10.5z M15,10.5c0,0.276,0.224,0.5,0.5,0.5h2c0.276,0,0.5-0.224,0.5-0.5S17.776,10,17.5,10h-2
	C15.224,10,15,10.224,15,10.5z"/>
</svg>