<?xml version="1.0" encoding="utf-8"?>
<svg version="1.1" xmlns="http://www.w3.org/2000/svg" xmlns:xlink="http://www.w3.org/1999/xlink" 
	 width="800px" height="800px" viewBox="0 0 32 32" xml:space="preserve">
<style type="text/css">
	.dashing_een{fill:#0B1719;}
</style>
<path class="dashing_een" d="M20,9.5C20,9.224,20.224,9,20.5,9h2C22.776,9,23,9.224,23,9.5v2c0,0.276-0.224,0.5-0.5,0.5
	S22,11.776,22,11.5V10h-1.5C20.224,10,20,9.776,20,9.5z M15.5,10h2c0.276,0,0.5-0.224,0.5-0.5S17.776,9,17.5,9h-2
	C15.224,9,15,9.224,15,9.5S15.224,10,15.5,10z M7.5,9h-2C5.224,9,5,9.224,5,9.5S5.224,10,5.5,10h2C7.776,10,8,9.776,8,9.5
	S7.776,9,7.5,9z M2.5,9h-2C0.224,9,0,9.224,0,9.5S0.224,10,0.5,10h2C2.776,10,3,9.776,3,9.5S2.776,9,2.5,9z M22.5,29
	c-0.276,0-0.5,0.224-0.5,0.5v2c0,0.276,0.224,0.5,0.5,0.5s0.5-0.224,0.5-0.5v-2C23,29.224,22.776,29,22.5,29z M22.5,14
	c-0.276,0-0.5,0.224-0.5,0.5v2c0,0.276,0.224,0.5,0.5,0.5s0.5-0.224,0.5-0.5v-2C23,14.224,22.776,14,22.5,14z M22.5,24
	c-0.276,0-0.5,0.224-0.5,0.5v2c0,0.276,0.224,0.5,0.5,0.5s0.5-0.224,0.5-0.5v-2C23,24.224,22.776,24,22.5,24z M31.5,21H23v-1.5
	c0-0.276-0.224-0.5-0.5-0.5S22,19.224,22,19.5V21H11V10h1.5c0.276,0,0.5-0.224,0.5-0.5S12.776,9,12.5,9H11V0.5
	C11,0.224,10.776,0,10.5,0S10,0.224,10,0.5v21c0,0.276,0.224,0.5,0.5,0.5h21c0.276,0,0.5-0.224,0.5-0.5S31.776,21,31.5,21z"/>
</svg>