<?xml version="1.0" encoding="utf-8"?>
<svg version="1.1" xmlns="http://www.w3.org/2000/svg" xmlns:xlink="http://www.w3.org/1999/xlink" 
	 width="800px" height="800px" viewBox="0 0 32 32" xml:space="preserve">
<style type="text/css">
	.dashing_een{fill:#141414;}
	.st0{fill:#141414;}
</style>
<path class="dashing_een" d="M20,17.5v2c0,0.276-0.224,0.5-0.5,0.5h-2c-0.276,0-0.5-0.224-0.5-0.5s0.224-0.5,0.5-0.5H19v-1.5
	c0-0.276,0.224-0.5,0.5-0.5S20,17.224,20,17.5z M14.5,19H13v-1.5c0-0.276-0.224-0.5-0.5-0.5S12,17.224,12,17.5v2
	c0,0.276,0.224,0.5,0.5,0.5h2c0.276,0,0.5-0.224,0.5-0.5S14.776,19,14.5,19z M19.5,12h-2c-0.276,0-0.5,0.224-0.5,0.5
	s0.224,0.5,0.5,0.5H19v1.5c0,0.276,0.224,0.5,0.5,0.5s0.5-0.224,0.5-0.5v-2C20,12.224,19.776,12,19.5,12z M14.5,12h-2
	c-0.276,0-0.5,0.224-0.5,0.5v2c0,0.276,0.224,0.5,0.5,0.5s0.5-0.224,0.5-0.5V13h1.5c0.276,0,0.5-0.224,0.5-0.5S14.776,12,14.5,12z
	 M10,16.5V10h6.5c0.276,0,0.5-0.224,0.5-0.5v-7C17,2.224,16.776,2,16.5,2h-14C2.224,2,2,2.224,2,2.5v14C2,16.776,2.224,17,2.5,17h7
	C9.776,17,10,16.776,10,16.5z M3,3h13v6H9.5C9.224,9,9,9.224,9,9.5V16H3V3z M30,29.5v-14c0-0.276-0.224-0.5-0.5-0.5h-7
	c-0.276,0-0.5,0.224-0.5,0.5V22h-6.5c-0.276,0-0.5,0.224-0.5,0.5v7c0,0.276,0.224,0.5,0.5,0.5h14C29.776,30,30,29.776,30,29.5z
	 M16,23h6.5c0.276,0,0.5-0.224,0.5-0.5V16h6v13H16V23z"/>
</svg>