<?xml version="1.0" encoding="utf-8"?>
<svg version="1.1" xmlns="http://www.w3.org/2000/svg" xmlns:xlink="http://www.w3.org/1999/xlink" 
	 width="800px" height="800px" viewBox="0 0 32 32" xml:space="preserve">
<style type="text/css">
	.dashing_een{fill:#0B1719;}
</style>
<path class="dashing_een" d="M24.5,9.5h-2C22.224,9.5,22,9.276,22,9s0.224-0.5,0.5-0.5h2C24.776,8.5,25,8.724,25,9
	S24.776,9.5,24.5,9.5z M20,9c0-0.276-0.224-0.5-0.5-0.5h-2C17.224,8.5,17,8.724,17,9s0.224,0.5,0.5,0.5h2C19.776,9.5,20,9.276,20,9z
	 M15,9c0-0.276-0.224-0.5-0.5-0.5h-2C12.224,8.5,12,8.724,12,9s0.224,0.5,0.5,0.5h2C14.776,9.5,15,9.276,15,9z M10,9
	c0-0.276-0.224-0.5-0.5-0.5h-2C7.224,8.5,7,8.724,7,9s0.224,0.5,0.5,0.5h2C9.776,9.5,10,9.276,10,9z M21,5
	c-0.276,0-0.5,0.224-0.5,0.5v2C20.5,7.776,20.724,8,21,8s0.5-0.224,0.5-0.5v-2C21.5,5.224,21.276,5,21,5z M21,10
	c-0.276,0-0.5,0.224-0.5,0.5v2c0,0.276,0.224,0.5,0.5,0.5s0.5-0.224,0.5-0.5v-2C21.5,10.224,21.276,10,21,10z M16,5
	c-0.276,0-0.5,0.224-0.5,0.5v2C15.5,7.776,15.724,8,16,8s0.5-0.224,0.5-0.5v-2C16.5,5.224,16.276,5,16,5z M16,10
	c-0.276,0-0.5,0.224-0.5,0.5v2c0,0.276,0.224,0.5,0.5,0.5s0.5-0.224,0.5-0.5v-2C16.5,10.224,16.276,10,16,10z M11,5
	c-0.276,0-0.5,0.224-0.5,0.5v2C10.5,7.776,10.724,8,11,8s0.5-0.224,0.5-0.5v-2C11.5,5.224,11.276,5,11,5z M11,10
	c-0.276,0-0.5,0.224-0.5,0.5v2c0,0.276,0.224,0.5,0.5,0.5s0.5-0.224,0.5-0.5v-2C11.5,10.224,11.276,10,11,10z M32,0.5v31
	c0,0.276-0.224,0.5-0.5,0.5S31,31.776,31,31.5V18H1v13.5C1,31.776,0.776,32,0.5,32S0,31.776,0,31.5v-31C0,0.224,0.224,0,0.5,0h31
	C31.776,0,32,0.224,32,0.5z M1,17h30V1H1V17z"/>
</svg>