<?xml version="1.0" encoding="utf-8"?>
<svg version="1.1" xmlns="http://www.w3.org/2000/svg" xmlns:xlink="http://www.w3.org/1999/xlink" 
	 width="800px" height="800px" viewBox="0 0 32 32" xml:space="preserve">
<style type="text/css">
	.dashing_een{fill:#0B1719;}
</style>
<path class="dashing_een" d="M24.139,20.852l-1.426-1.426c-0.197-0.197-0.197-0.516,0-0.713s0.516-0.197,0.713,0l1.426,1.426
	c0.197,0.197,0.197,0.516,0,0.713C24.655,21.049,24.336,21.049,24.139,20.852z M31.963,12.689l-4.5,11
	C27.386,23.877,27.203,24,27,24H5c-0.203,0-0.386-0.123-0.463-0.311l-4.5-11c-0.063-0.154-0.045-0.33,0.048-0.468
	C0.178,12.083,0.333,12,0.5,12h10.81l4.358-3.874c0.189-0.169,0.475-0.169,0.664,0L20.69,12H31.5c0.167,0,0.322,0.083,0.415,0.221
	C32.008,12.36,32.026,12.535,31.963,12.689z M12.815,12h6.37L16,9.169L12.815,12z M30.755,13H20.5h-9H1.245l4.091,10h21.329
	L30.755,13z M19.148,15.148c-0.197,0.197-0.197,0.516,0,0.713l1.426,1.426c0.197,0.197,0.516,0.197,0.713,0
	c0.197-0.197,0.197-0.516,0-0.713l-1.426-1.426C19.664,14.951,19.345,14.951,19.148,15.148z M7.861,20.852l1.426-1.426
	c0.197-0.197,0.197-0.516,0-0.713c-0.197-0.197-0.516-0.197-0.713,0l-1.426,1.426c-0.197,0.197-0.197,0.516,0,0.713
	C7.345,21.049,7.664,21.049,7.861,20.852z M11.426,17.287l1.426-1.426c0.197-0.197,0.197-0.516,0-0.713
	c-0.197-0.197-0.516-0.197-0.713,0l-1.426,1.426c-0.197,0.197-0.197,0.516,0,0.713C10.91,17.484,11.229,17.484,11.426,17.287z"/>
</svg>