<?xml version="1.0" encoding="utf-8"?>
<svg version="1.1" xmlns="http://www.w3.org/2000/svg" xmlns:xlink="http://www.w3.org/1999/xlink" 
	 width="800px" height="800px" viewBox="0 0 32 32" xml:space="preserve">
<style type="text/css">
	.dashing_een{fill:#0B1719;}
</style>
<path class="dashing_een" d="M16.707,8.632l1.414-1.414c0.195-0.195,0.512-0.195,0.707,0c0.195,0.195,0.195,0.512,0,0.707
	l-1.414,1.414c-0.195,0.195-0.512,0.195-0.707,0S16.512,8.827,16.707,8.632z M20.243,5.803c0.195,0.195,0.512,0.195,0.707,0
	l1.414-1.414c0.195-0.195,0.195-0.512,0-0.707c-0.195-0.195-0.512-0.195-0.707,0l-1.414,1.414
	C20.047,5.292,20.047,5.608,20.243,5.803z M13.172,12.874c0.195,0.195,0.512,0.195,0.707,0l1.414-1.414
	c0.195-0.195,0.195-0.512,0-0.707c-0.195-0.195-0.512-0.195-0.707,0l-1.414,1.414C12.976,12.363,12.976,12.679,13.172,12.874z
	 M13.172,7.218c-0.195,0.195-0.195,0.512,0,0.707l1.414,1.414c0.195,0.195,0.512,0.195,0.707,0s0.195-0.512,0-0.707l-1.414-1.414
	C13.683,7.022,13.367,7.022,13.172,7.218z M9.636,3.682c-0.195,0.195-0.195,0.512,0,0.707l1.414,1.414
	c0.195,0.195,0.512,0.195,0.707,0c0.195-0.195,0.195-0.512,0-0.707l-1.414-1.414C10.148,3.487,9.832,3.487,9.636,3.682z
	 M15.646,2.621l-1.414,1.414c-0.195,0.195-0.195,0.512,0,0.707s0.512,0.195,0.707,0L16,3.682l1.061,1.061
	c0.195,0.195,0.512,0.195,0.707,0s0.195-0.512,0-0.707l-1.414-1.414C16.158,2.426,15.842,2.426,15.646,2.621z M25.999,0.505
	C26,0.375,25.952,0.245,25.853,0.147c-0.195-0.195-0.512-0.195-0.707,0l-1.414,1.414c-0.195,0.195-0.195,0.512,0,0.707
	s0.512,0.195,0.707,0L25,1.707v7.049c0,4.963-4.037,9-9,9c-1.973,0-3.793-0.645-5.278-1.726l1.035-1.035
	c0.195-0.195,0.195-0.512,0-0.707c-0.195-0.195-0.512-0.195-0.707,0l-1.106,1.106C8.14,13.748,7,11.386,7,8.757V1.707l0.561,0.561
	c0.195,0.195,0.512,0.195,0.707,0s0.195-0.512,0-0.707L6.854,0.147c-0.195-0.195-0.512-0.195-0.707,0
	C6.048,0.245,6,0.375,6.001,0.505c0,0-0.001,0.001-0.001,0.002v8.25c0,5.345,4.219,9.712,9.5,9.975V31.5c0,0.276,0.224,0.5,0.5,0.5
	s0.5-0.224,0.5-0.5V18.731c5.281-0.263,9.5-4.63,9.5-9.975v-8.25C26,0.506,25.999,0.505,25.999,0.505z"/>
</svg>