<?xml version="1.0" encoding="utf-8"?>
<svg version="1.1" xmlns="http://www.w3.org/2000/svg" xmlns:xlink="http://www.w3.org/1999/xlink" 
	 width="800px" height="800px" viewBox="0 0 32 32" xml:space="preserve">
<style type="text/css">
	.dashing_een{fill:#0B1719;}
</style>
<path class="dashing_een" d="M13.148,28.852c0.197,0.197,0.516,0.197,0.713,0l1.426-1.426c0.197-0.197,0.197-0.516,0-0.713
	c-0.197-0.197-0.516-0.197-0.713,0l-1.426,1.426C12.951,28.336,12.951,28.655,13.148,28.852z M16.713,25.287
	c0.197,0.197,0.516,0.197,0.713,0l1.426-1.426c0.197-0.197,0.197-0.516,0-0.713c-0.197-0.197-0.516-0.197-0.713,0l-1.426,1.426
	C16.516,24.771,16.516,25.09,16.713,25.287z M18.852,28.852c0.197-0.197,0.197-0.516,0-0.713l-1.426-1.426
	c-0.197-0.197-0.516-0.197-0.713,0s-0.197,0.516,0,0.713l1.426,1.426C18.336,29.049,18.655,29.049,18.852,28.852z M15.287,25.287
	c0.197-0.197,0.197-0.516,0-0.713l-1.426-1.426c-0.197-0.197-0.516-0.197-0.713,0c-0.197,0.197-0.197,0.516,0,0.713l1.426,1.426
	C14.771,25.484,15.09,25.484,15.287,25.287z M13.148,28.852c0.197,0.197,0.516,0.197,0.713,0l1.426-1.426
	c0.197-0.197,0.197-0.516,0-0.713c-0.197-0.197-0.516-0.197-0.713,0l-1.426,1.426C12.951,28.336,12.951,28.655,13.148,28.852z
	 M16.713,25.287c0.197,0.197,0.516,0.197,0.713,0l1.426-1.426c0.197-0.197,0.197-0.516,0-0.713c-0.197-0.197-0.516-0.197-0.713,0
	l-1.426,1.426C16.516,24.771,16.516,25.09,16.713,25.287z M18.852,28.852c0.197-0.197,0.197-0.516,0-0.713l-1.426-1.426
	c-0.197-0.197-0.516-0.197-0.713,0s-0.197,0.516,0,0.713l1.426,1.426C18.336,29.049,18.655,29.049,18.852,28.852z M15.287,25.287
	c0.197-0.197,0.197-0.516,0-0.713l-1.426-1.426c-0.197-0.197-0.516-0.197-0.713,0c-0.197,0.197-0.197,0.516,0,0.713l1.426,1.426
	C14.771,25.484,15.09,25.484,15.287,25.287z M24.5,32h-17C7.224,32,7,31.776,7,31.5v-20C7,11.224,7.224,11,7.5,11H9V7.5
	C9,7.224,9.224,7,9.5,7H11V3.5C11,3.224,11.224,3,11.5,3H14V0.5C14,0.224,14.224,0,14.5,0h3C17.776,0,18,0.224,18,0.5V3h2.5
	C20.776,3,21,3.224,21,3.5V7h1.5C22.776,7,23,7.224,23,7.5V11h1.5c0.276,0,0.5,0.224,0.5,0.5v20C25,31.776,24.776,32,24.5,32z M8,31
	h16V12h-1.5c-0.276,0-0.5-0.224-0.5-0.5V8h-1.5C20.224,8,20,7.776,20,7.5V4h-2.5C17.224,4,17,3.776,17,3.5V1h-2v2.5
	C15,3.776,14.776,4,14.5,4H12v3.5C12,7.776,11.776,8,11.5,8H10v3.5c0,0.276-0.224,0.5-0.5,0.5H8V31z M13.148,19.852
	c0.197,0.197,0.516,0.197,0.713,0l1.426-1.426c0.197-0.197,0.197-0.516,0-0.713c-0.197-0.197-0.516-0.197-0.713,0l-1.426,1.426
	C12.951,19.336,12.951,19.655,13.148,19.852z M16.713,16.287c0.197,0.197,0.516,0.197,0.713,0l1.426-1.426
	c0.197-0.197,0.197-0.516,0-0.713c-0.197-0.197-0.516-0.197-0.713,0l-1.426,1.426C16.516,15.771,16.516,16.09,16.713,16.287z
	 M18.852,19.852c0.197-0.197,0.197-0.516,0-0.713l-1.426-1.426c-0.197-0.197-0.516-0.197-0.713,0s-0.197,0.516,0,0.713l1.426,1.426
	C18.336,20.049,18.655,20.049,18.852,19.852z M15.287,16.287c0.197-0.197,0.197-0.516,0-0.713l-1.426-1.426
	c-0.197-0.197-0.516-0.197-0.713,0c-0.197,0.197-0.197,0.516,0,0.713l1.426,1.426C14.771,16.484,15.09,16.484,15.287,16.287z
	 M13.148,19.852c0.197,0.197,0.516,0.197,0.713,0l1.426-1.426c0.197-0.197,0.197-0.516,0-0.713c-0.197-0.197-0.516-0.197-0.713,0
	l-1.426,1.426C12.951,19.336,12.951,19.655,13.148,19.852z M16.713,16.287c0.197,0.197,0.516,0.197,0.713,0l1.426-1.426
	c0.197-0.197,0.197-0.516,0-0.713c-0.197-0.197-0.516-0.197-0.713,0l-1.426,1.426C16.516,15.771,16.516,16.09,16.713,16.287z
	 M18.852,19.852c0.197-0.197,0.197-0.516,0-0.713l-1.426-1.426c-0.197-0.197-0.516-0.197-0.713,0s-0.197,0.516,0,0.713l1.426,1.426
	C18.336,20.049,18.655,20.049,18.852,19.852z M15.287,16.287c0.197-0.197,0.197-0.516,0-0.713l-1.426-1.426
	c-0.197-0.197-0.516-0.197-0.713,0c-0.197,0.197-0.197,0.516,0,0.713l1.426,1.426C14.771,16.484,15.09,16.484,15.287,16.287z"/>
</svg>