<?xml version="1.0" encoding="utf-8"?>
<svg version="1.1" xmlns="http://www.w3.org/2000/svg" xmlns:xlink="http://www.w3.org/1999/xlink" 
	 width="800px" height="800px" viewBox="0 0 32 32" xml:space="preserve">
<style type="text/css">
	.dashing_een{fill:#0B1719;}
</style>
<path class="dashing_een" d="M31.5,6h-31C0.224,6,0,6.224,0,6.5v20C0,26.776,0.224,27,0.5,27h31c0.276,0,0.5-0.224,0.5-0.5v-20
	C32,6.224,31.776,6,31.5,6z M1,26V7.715L1.504,8.22c0.195,0.195,0.512,0.195,0.707,0c0.195-0.195,0.195-0.512,0-0.707L1.699,7
	h28.602l-0.512,0.512c-0.195,0.195-0.195,0.512,0,0.707c0.195,0.195,0.512,0.195,0.707,0L31,7.715V26H1z M24.839,13.169
	c0.195,0.195,0.195,0.512,0,0.707l-1.414,1.414c-0.195,0.195-0.512,0.195-0.707,0s-0.195-0.512,0-0.707l1.414-1.414
	C24.327,12.974,24.643,12.974,24.839,13.169z M28.374,9.634c0.195,0.195,0.195,0.512,0,0.707l-1.414,1.414
	c-0.195,0.195-0.512,0.195-0.707,0s-0.195-0.512,0-0.707l1.414-1.414C27.863,9.438,28.179,9.438,28.374,9.634z M21.303,16.705
	c0.195,0.195,0.195,0.512,0,0.707l-1.414,1.414c-0.195,0.195-0.512,0.195-0.707,0c-0.195-0.195-0.195-0.512,0-0.707l1.414-1.414
	C20.792,16.509,21.108,16.509,21.303,16.705z M17.768,20.24c0.195,0.195,0.195,0.512,0,0.707l-1.414,1.414
	c-0.195,0.195-0.512,0.195-0.707,0l-1.414-1.414c-0.195-0.195-0.195-0.512,0-0.707c0.195-0.195,0.512-0.195,0.707,0L16,21.301
	l1.061-1.061C17.256,20.045,17.572,20.045,17.768,20.24z M9.282,14.584c0.195,0.195,0.195,0.512,0,0.707s-0.512,0.195-0.707,0
	l-1.414-1.414c-0.195-0.195-0.195-0.512,0-0.707c0.195-0.195,0.512-0.195,0.707,0L9.282,14.584z M5.747,11.048
	c0.195,0.195,0.195,0.512,0,0.707s-0.512,0.195-0.707,0l-1.414-1.414c-0.195-0.195-0.195-0.512,0-0.707
	c0.195-0.195,0.512-0.195,0.707,0L5.747,11.048z M12.818,18.119c0.195,0.195,0.195,0.512,0,0.707c-0.195,0.195-0.512,0.195-0.707,0
	l-1.414-1.414c-0.195-0.195-0.195-0.512,0-0.707c0.195-0.195,0.512-0.195,0.707,0L12.818,18.119z"/>
</svg>