<?xml version="1.0" encoding="utf-8"?>
<svg version="1.1" xmlns="http://www.w3.org/2000/svg" xmlns:xlink="http://www.w3.org/1999/xlink" 
	 width="800px" height="800px" viewBox="0 0 32 32" xml:space="preserve">
<style type="text/css">
	.dashing_een{fill:#0B1719;}
</style>
<path class="dashing_een" d="M13.5,22h-2c-0.276,0-0.5-0.224-0.5-0.5s0.224-0.5,0.5-0.5h2c0.276,0,0.5,0.224,0.5,0.5
	S13.776,22,13.5,22z M19,21.5c0-0.276-0.224-0.5-0.5-0.5h-2c-0.276,0-0.5,0.224-0.5,0.5s0.224,0.5,0.5,0.5h2
	C18.776,22,19,21.776,19,21.5z M21,11.5c0-0.276-0.224-0.5-0.5-0.5h-2c-0.276,0-0.5,0.224-0.5,0.5s0.224,0.5,0.5,0.5h2
	C20.776,12,21,11.776,21,11.5z M16,11.5c0-0.276-0.224-0.5-0.5-0.5h-2c-0.276,0-0.5,0.224-0.5,0.5s0.224,0.5,0.5,0.5h2
	C15.776,12,16,11.776,16,11.5z M23.5,14c-0.276,0-0.5,0.224-0.5,0.5v2c0,0.276,0.224,0.5,0.5,0.5s0.5-0.224,0.5-0.5v-2
	C24,14.224,23.776,14,23.5,14z M23.5,19c-0.276,0-0.5,0.224-0.5,0.5V21h-1.5c-0.276,0-0.5,0.224-0.5,0.5s0.224,0.5,0.5,0.5h2
	c0.276,0,0.5-0.224,0.5-0.5v-2C24,19.224,23.776,19,23.5,19z M10.5,11h-2C8.224,11,8,11.224,8,11.5v2C8,13.776,8.224,14,8.5,14
	S9,13.776,9,13.5V12h1.5c0.276,0,0.5-0.224,0.5-0.5S10.776,11,10.5,11z M8.5,16C8.224,16,8,16.224,8,16.5v2
	C8,18.776,8.224,19,8.5,19S9,18.776,9,18.5v-2C9,16.224,8.776,16,8.5,16z M32,29.5v-18c0-0.276-0.224-0.5-0.5-0.5H24V2.5
	C24,2.224,23.776,2,23.5,2h-23C0.224,2,0,2.224,0,2.5v19C0,21.776,0.224,22,0.5,22H8v7.5C8,29.776,8.224,30,8.5,30h23
	C31.776,30,32,29.776,32,29.5z M9,21.5C9,21.224,8.776,21,8.5,21H1V3h22v8.5c0,0.276,0.224,0.5,0.5,0.5H31v17H9V21.5z"/>
</svg>