<?xml version="1.0" encoding="utf-8"?>
<svg version="1.1" xmlns="http://www.w3.org/2000/svg" xmlns:xlink="http://www.w3.org/1999/xlink" 
	 width="800px" height="800px" viewBox="0 0 32 32" xml:space="preserve">
<style type="text/css">
	.dashing_een{fill:#141414;}
	.st0{fill:#141414;}
</style>
<path class="dashing_een" d="M21.273,14.357l-1.848,0.765c-0.255,0.106-0.548-0.015-0.653-0.271s0.015-0.548,0.271-0.653
	l1.848-0.765c0.255-0.106,0.548,0.015,0.653,0.271C21.649,13.959,21.528,14.251,21.273,14.357z M13.228,17.148
	c-0.106-0.255-0.398-0.376-0.653-0.271l-1.848,0.765c-0.255,0.106-0.376,0.398-0.271,0.653c0.106,0.255,0.398,0.376,0.653,0.271
	l1.848-0.765C13.213,17.696,13.334,17.403,13.228,17.148z M27,16c0,6.065-4.935,11-11,11S5,22.065,5,16S9.935,5,16,5S27,9.935,27,16
	z M26,16c0-1.179-0.216-2.305-0.592-3.356l-1.364,0.565c-0.255,0.106-0.547-0.015-0.653-0.271c-0.106-0.255,0.015-0.548,0.271-0.653
	l1.363-0.565C23.417,8.345,19.982,6,16,6C10.486,6,6,10.486,6,16c0,1.179,0.216,2.305,0.592,3.356l1.364-0.565
	c0.255-0.106,0.547,0.015,0.653,0.271s-0.015,0.547-0.271,0.653l-1.363,0.565C8.583,23.655,12.018,26,16,26
	C21.514,26,26,21.514,26,16z M3.99,20.975c-0.106-0.255-0.398-0.376-0.653-0.271L1.489,21.47c-0.255,0.106-0.376,0.398-0.271,0.653
	c0.106,0.255,0.398,0.376,0.653,0.271l1.848-0.765C3.974,21.522,4.095,21.23,3.99,20.975z M17.386,15.426
	c-0.106-0.255-0.398-0.376-0.653-0.271l-1.848,0.765c-0.255,0.106-0.376,0.398-0.271,0.653c0.106,0.255,0.398,0.376,0.653,0.271
	l1.848-0.765C17.371,15.973,17.492,15.681,17.386,15.426z M30.782,9.877c-0.106-0.255-0.398-0.376-0.653-0.271l-1.848,0.765
	c-0.255,0.106-0.376,0.398-0.271,0.653c0.106,0.255,0.398,0.376,0.653,0.271l1.848-0.765C30.767,10.425,30.888,10.132,30.782,9.877z
	"/>
</svg>