<?xml version="1.0" encoding="utf-8"?>
<svg version="1.1" xmlns="http://www.w3.org/2000/svg" xmlns:xlink="http://www.w3.org/1999/xlink" 
	 width="800px" height="800px" viewBox="0 0 32 32" xml:space="preserve">
<style type="text/css">
	.dashing_een{fill:#0B1719;}
</style>
<path class="dashing_een" d="M21,16.5c0,0.276-0.224,0.5-0.5,0.5h-2c-0.276,0-0.5-0.224-0.5-0.5s0.224-0.5,0.5-0.5h2
	C20.776,16,21,16.224,21,16.5z M23.5,16c-0.276,0-0.5,0.224-0.5,0.5s0.224,0.5,0.5,0.5h2c0.276,0,0.5-0.224,0.5-0.5
	S25.776,16,25.5,16H23.5z M20.5,21h-2c-0.276,0-0.5,0.224-0.5,0.5s0.224,0.5,0.5,0.5h2c0.276,0,0.5-0.224,0.5-0.5S20.776,21,20.5,21
	z M25.5,21h-2c-0.276,0-0.5,0.224-0.5,0.5s0.224,0.5,0.5,0.5h2c0.276,0,0.5-0.224,0.5-0.5S25.776,21,25.5,21z M20.5,26h-2
	c-0.276,0-0.5,0.224-0.5,0.5s0.224,0.5,0.5,0.5h2c0.276,0,0.5-0.224,0.5-0.5S20.776,26,20.5,26z M25.5,26h-2
	c-0.276,0-0.5,0.224-0.5,0.5s0.224,0.5,0.5,0.5h2c0.276,0,0.5-0.224,0.5-0.5S25.776,26,25.5,26z M8.5,8h-2C6.224,8,6,8.224,6,8.5
	S6.224,9,6.5,9h2C8.776,9,9,8.776,9,8.5S8.776,8,8.5,8z M11.5,9h2C13.776,9,14,8.776,14,8.5S13.776,8,13.5,8h-2
	C11.224,8,11,8.224,11,8.5S11.224,9,11.5,9z M8.5,13h-2C6.224,13,6,13.224,6,13.5S6.224,14,6.5,14h2C8.776,14,9,13.776,9,13.5
	S8.776,13,8.5,13z M8.5,18h-2C6.224,18,6,18.224,6,18.5S6.224,19,6.5,19h2C8.776,19,9,18.776,9,18.5S8.776,18,8.5,18z M31,14.5v17
	c0,0.276-0.224,0.5-0.5,0.5h-17c-0.276,0-0.5-0.224-0.5-0.5V25H1.5C1.224,25,1,24.776,1,24.5v-22C1,2.224,1.224,2,1.5,2H6V0.5
	C6,0.224,6.224,0,6.5,0h7C13.776,0,14,0.224,14,0.5V2h4.5C18.776,2,19,2.224,19,2.5V9h6.5c0.133,0,0.26,0.053,0.354,0.146l5,5
	C30.947,14.24,31,14.367,31,14.5z M26,14h3.293L26,10.707V14z M7,4h6V1H7V4z M13,24v-5h-1.5c-0.276,0-0.5-0.224-0.5-0.5
	s0.224-0.5,0.5-0.5H13v-4h-1.5c-0.276,0-0.5-0.224-0.5-0.5s0.224-0.5,0.5-0.5H13V9.5C13,9.224,13.224,9,13.5,9H18V3h-4v1.5
	C14,4.776,13.776,5,13.5,5h-7C6.224,5,6,4.776,6,4.5V3H2v21H13z M30,15h-4.5c-0.276,0-0.5-0.224-0.5-0.5V10H14v21h16V15z"/>
</svg>