<?xml version="1.0" encoding="utf-8"?>
<svg version="1.1" xmlns="http://www.w3.org/2000/svg" xmlns:xlink="http://www.w3.org/1999/xlink" 
	 width="800px" height="800px" viewBox="0 0 32 32" xml:space="preserve">
<style type="text/css">
	.dashing_een{fill:#0B1719;}
</style>
<path class="dashing_een" d="M21,10.5c0,0.276-0.224,0.5-0.5,0.5S20,10.776,20,10.5s0.224-0.5,0.5-0.5S21,10.224,21,10.5z M29,13.5
	v-3c0-0.276-0.224-0.5-0.5-0.5h-5c-0.276,0-0.5,0.224-0.5,0.5v3c0,0.276,0.224,0.5,0.5,0.5h5C28.776,14,29,13.776,29,13.5z M24,11h4
	v2h-4V11z M32,7.5v20c0,0.276-0.224,0.5-0.5,0.5h-31C0.224,28,0,27.776,0,27.5v-20C0,7.224,0.224,7,0.5,7H3V5.5
	C3,5.224,3.224,5,3.5,5h5C8.776,5,9,5.224,9,5.5V7h22.5C31.776,7,32,7.224,32,7.5z M4,7h4V6H4V7z M31,8H1v19h30V8z M18,17
	c0-1.103-0.897-2-2-2s-2,0.897-2,2s0.897,2,2,2S18,18.103,18,17z M17,17c0,0.551-0.448,1-1,1s-1-0.449-1-1s0.448-1,1-1
	S17,16.449,17,17z M19.356,20.828c0.168-0.192,0.172-0.488,0.002-0.687c-0.184-0.213-0.5-0.234-0.707-0.045
	c-0.421,0.384-0.907,0.667-1.443,0.84c-0.262,0.084-0.411,0.374-0.327,0.646c0.083,0.272,0.364,0.424,0.627,0.339
	c0.672-0.216,1.28-0.57,1.807-1.051C19.33,20.857,19.343,20.843,19.356,20.828z M20.765,18.365c0.056-0.064,0.097-0.143,0.116-0.233
	c0.15-0.698,0.157-1.439,0.021-2.141c-0.054-0.28-0.318-0.461-0.589-0.406c-0.269,0.056-0.446,0.325-0.392,0.607
	c0.109,0.562,0.104,1.154-0.016,1.714c-0.06,0.278,0.11,0.554,0.38,0.617C20.468,18.564,20.649,18.498,20.765,18.365z
	 M14.953,21.747c0.045-0.052,0.081-0.113,0.103-0.183c0.087-0.27-0.056-0.562-0.318-0.653c-0.524-0.18-1-0.468-1.415-0.854
	c-0.205-0.191-0.531-0.184-0.716,0.027c-0.185,0.211-0.178,0.528,0.027,0.72l0.02,0.018c0.518,0.483,1.114,0.842,1.769,1.068
	C14.618,21.957,14.824,21.894,14.953,21.747z M11.965,18.274c0.103-0.117,0.151-0.282,0.118-0.45
	c-0.113-0.562-0.111-1.154,0.006-1.714c0.058-0.278-0.114-0.553-0.384-0.614c-0.27-0.062-0.535,0.116-0.594,0.394
	c-0.146,0.698-0.149,1.438-0.008,2.14c0.056,0.279,0.321,0.459,0.591,0.402C11.803,18.411,11.896,18.354,11.965,18.274z
	 M14.988,12.919c0.115-0.131,0.161-0.322,0.104-0.503c-0.085-0.271-0.366-0.421-0.63-0.334c-0.669,0.221-1.275,0.579-1.8,1.062
	c-0.199,0.188-0.223,0.516-0.039,0.729c0.184,0.212,0.5,0.232,0.706,0.042c0.42-0.387,0.904-0.673,1.44-0.85
	C14.857,13.036,14.931,12.985,14.988,12.919z M17.043,12.205c-0.045,0.052-0.081,0.113-0.103,0.183
	c-0.087,0.27,0.056,0.562,0.318,0.653c0.524,0.18,1,0.468,1.415,0.854c0.205,0.191,0.531,0.184,0.716-0.027
	c0.185-0.211,0.178-0.528-0.027-0.72l-0.02-0.018c-0.518-0.483-1.114-0.842-1.769-1.068C17.377,11.995,17.171,12.058,17.043,12.205z
	"/>
</svg>