<?xml version="1.0" encoding="utf-8"?>
<svg version="1.1" xmlns="http://www.w3.org/2000/svg" xmlns:xlink="http://www.w3.org/1999/xlink" 
	 width="800px" height="800px" viewBox="0 0 32 32" xml:space="preserve">
<style type="text/css">
	.dashing_een{fill:#0B1719;}
</style>
<path class="dashing_een" d="M11,22.5v2c0,0.276-0.224,0.5-0.5,0.5S10,24.776,10,24.5v-2c0-0.276,0.224-0.5,0.5-0.5
	S11,22.224,11,22.5z M10.5,27c-0.276,0-0.5,0.224-0.5,0.5v2c0,0.276,0.224,0.5,0.5,0.5s0.5-0.224,0.5-0.5v-2
	C11,27.224,10.776,27,10.5,27z M10.5,17c-0.276,0-0.5,0.224-0.5,0.5v2c0,0.276,0.224,0.5,0.5,0.5s0.5-0.224,0.5-0.5v-2
	C11,17.224,10.776,17,10.5,17z M15.5,22c-0.276,0-0.5,0.224-0.5,0.5v2c0,0.276,0.224,0.5,0.5,0.5s0.5-0.224,0.5-0.5v-2
	C16,22.224,15.776,22,15.5,22z M15.5,27c-0.276,0-0.5,0.224-0.5,0.5v2c0,0.276,0.224,0.5,0.5,0.5s0.5-0.224,0.5-0.5v-2
	C16,27.224,15.776,27,15.5,27z M15.5,17c-0.276,0-0.5,0.224-0.5,0.5v2c0,0.276,0.224,0.5,0.5,0.5s0.5-0.224,0.5-0.5v-2
	C16,17.224,15.776,17,15.5,17z M20.5,22c-0.276,0-0.5,0.224-0.5,0.5v2c0,0.276,0.224,0.5,0.5,0.5s0.5-0.224,0.5-0.5v-2
	C21,22.224,20.776,22,20.5,22z M20.5,27c-0.276,0-0.5,0.224-0.5,0.5v2c0,0.276,0.224,0.5,0.5,0.5s0.5-0.224,0.5-0.5v-2
	C21,27.224,20.776,27,20.5,27z M20.5,17c-0.276,0-0.5,0.224-0.5,0.5v2c0,0.276,0.224,0.5,0.5,0.5s0.5-0.224,0.5-0.5v-2
	C21,17.224,20.776,17,20.5,17z M25.5,22c-0.276,0-0.5,0.224-0.5,0.5v2c0,0.276,0.224,0.5,0.5,0.5s0.5-0.224,0.5-0.5v-2
	C26,22.224,25.776,22,25.5,22z M25.5,27c-0.276,0-0.5,0.224-0.5,0.5v2c0,0.276,0.224,0.5,0.5,0.5s0.5-0.224,0.5-0.5v-2
	C26,27.224,25.776,27,25.5,27z M25.5,17c-0.276,0-0.5,0.224-0.5,0.5v2c0,0.276,0.224,0.5,0.5,0.5s0.5-0.224,0.5-0.5v-2
	C26,17.224,25.776,17,25.5,17z M5.5,22C5.224,22,5,22.224,5,22.5v2C5,24.776,5.224,25,5.5,25S6,24.776,6,24.5v-2
	C6,22.224,5.776,22,5.5,22z M5.5,27C5.224,27,5,27.224,5,27.5v2C5,29.776,5.224,30,5.5,30S6,29.776,6,29.5v-2
	C6,27.224,5.776,27,5.5,27z M5.5,17C5.224,17,5,17.224,5,17.5v2C5,19.776,5.224,20,5.5,20S6,19.776,6,19.5v-2
	C6,17.224,5.776,17,5.5,17z M31,9c0-2.757-2.243-5-5-5c-0.43,0-0.86,0.059-1.286,0.176C23.93,1.726,21.609,0,19,0
	c-2.116,0-4.044,1.104-5.123,2.874C12.937,1.701,11.518,1,10,1C7.243,1,5,3.243,5,6c0,0.045,0.001,0.09,0.002,0.135
	C4.672,6.045,4.337,6,4,6c-2.206,0-4,1.794-4,4s1.794,4,4,4h22C28.757,14,31,11.757,31,9z M5.362,7.344
	C5.534,7.43,5.74,7.413,5.894,7.297s0.226-0.311,0.188-0.499C6.027,6.537,6,6.269,6,6c0-2.206,1.794-4,4-4
	c1.449,0,2.788,0.803,3.495,2.097c0.092,0.167,0.27,0.277,0.463,0.259c0.192-0.009,0.361-0.127,0.436-0.304
	C15.18,2.198,16.987,1,19,1c2.329,0,4.382,1.65,4.881,3.924c0.031,0.143,0.124,0.265,0.253,0.334s0.28,0.077,0.418,0.024
	C25.029,5.095,25.518,5,26,5c2.206,0,4,1.794,4,4s-1.794,4-4,4H4c-1.654,0-3-1.346-3-3s1.346-3,3-3C4.46,7,4.919,7.115,5.362,7.344z
	"/>
</svg>