<?xml version="1.0" encoding="utf-8"?>
<svg version="1.1" xmlns="http://www.w3.org/2000/svg" xmlns:xlink="http://www.w3.org/1999/xlink" 
	 width="800px" height="800px" viewBox="0 0 32 32" xml:space="preserve">
<style type="text/css">
	.dashing_een{fill:#0B1719;}
</style>
<path class="dashing_een" d="M19.5,20h-2c-0.276,0-0.5-0.224-0.5-0.5s0.224-0.5,0.5-0.5h2c0.276,0,0.5,0.224,0.5,0.5
	S19.776,20,19.5,20z M15,19.5c0-0.276-0.224-0.5-0.5-0.5h-2c-0.276,0-0.5,0.224-0.5,0.5s0.224,0.5,0.5,0.5h2
	C14.776,20,15,19.776,15,19.5z M9.5,19h-2C7.224,19,7,19.224,7,19.5v2C7,21.776,7.224,22,7.5,22S8,21.776,8,21.5V20h1.5
	c0.276,0,0.5-0.224,0.5-0.5S9.776,19,9.5,19z M7.5,24C7.224,24,7,24.224,7,24.5v2C7,26.776,7.224,27,7.5,27S8,26.776,8,26.5v-2
	C8,24.224,7.776,24,7.5,24z M24.5,19h-2c-0.276,0-0.5,0.224-0.5,0.5s0.224,0.5,0.5,0.5H24v1.5c0,0.276,0.224,0.5,0.5,0.5
	s0.5-0.224,0.5-0.5v-2C25,19.224,24.776,19,24.5,19z M24.5,24c-0.276,0-0.5,0.224-0.5,0.5v2c0,0.276,0.224,0.5,0.5,0.5
	s0.5-0.224,0.5-0.5v-2C25,24.224,24.776,24,24.5,24z M30,8v23.5c0,0.276-0.224,0.5-0.5,0.5h-27C2.224,32,2,31.776,2,31.5v-31
	C2,0.224,2.224,0,2.5,0h19.769c0.136,0,0.266,0.056,0.36,0.153l7.231,7.5C29.95,7.746,30,7.87,30,8z M29,8.202L22.057,1H3v30h4v-1.5
	C7,29.224,7.224,29,7.5,29S8,29.224,8,29.5V31h16v-1.5c0-0.276,0.224-0.5,0.5-0.5s0.5,0.224,0.5,0.5V31h4V8.202z M24.5,16
	c-0.276,0-0.5,0.224-0.5,0.5s0.224,0.5,0.5,0.5s0.5-0.224,0.5-0.5S24.776,16,24.5,16z"/>
</svg>