<?xml version="1.0" encoding="utf-8"?>
<svg version="1.1" xmlns="http://www.w3.org/2000/svg" xmlns:xlink="http://www.w3.org/1999/xlink" 
	 width="800px" height="800px" viewBox="0 0 32 32" xml:space="preserve">
<style type="text/css">
	.dashing_een{fill:#0B1719;}
</style>
<path class="dashing_een" d="M13.148,8.139l1.426-1.426c0.197-0.197,0.516-0.197,0.713,0c0.197,0.197,0.197,0.516,0,0.713
	l-1.426,1.426c-0.197,0.197-0.516,0.197-0.713,0C12.951,8.655,12.951,8.336,13.148,8.139z M16.713,5.287
	c0.197,0.197,0.516,0.197,0.713,0l1.426-1.426c0.197-0.197,0.197-0.516,0-0.713c-0.197-0.197-0.516-0.197-0.713,0l-1.426,1.426
	C16.516,4.771,16.516,5.09,16.713,5.287z M18.852,8.852c0.197-0.197,0.197-0.516,0-0.713l-1.426-1.426
	c-0.197-0.197-0.516-0.197-0.713,0c-0.197,0.197-0.197,0.516,0,0.713l1.426,1.426C18.336,9.049,18.655,9.049,18.852,8.852z
	 M15.287,5.287c0.197-0.197,0.197-0.516,0-0.713l-1.426-1.426c-0.197-0.197-0.516-0.197-0.713,0c-0.197,0.197-0.197,0.516,0,0.713
	l1.426,1.426C14.771,5.484,15.09,5.484,15.287,5.287z M13.148,18.852c0.197,0.197,0.516,0.197,0.713,0l1.426-1.426
	c0.197-0.197,0.197-0.516,0-0.713c-0.197-0.197-0.516-0.197-0.713,0l-1.426,1.426C12.951,18.336,12.951,18.655,13.148,18.852z
	 M16.713,15.287c0.197,0.197,0.516,0.197,0.713,0l1.426-1.426c0.197-0.197,0.197-0.516,0-0.713c-0.197-0.197-0.516-0.197-0.713,0
	l-1.426,1.426C16.516,14.771,16.516,15.09,16.713,15.287z M18.852,18.852c0.197-0.197,0.197-0.516,0-0.713l-1.426-1.426
	c-0.197-0.197-0.516-0.197-0.713,0s-0.197,0.516,0,0.713l1.426,1.426C18.336,19.049,18.655,19.049,18.852,18.852z M15.287,15.287
	c0.197-0.197,0.197-0.516,0-0.713l-1.426-1.426c-0.197-0.197-0.516-0.197-0.713,0c-0.197,0.197-0.197,0.516,0,0.713l1.426,1.426
	C14.771,15.484,15.09,15.484,15.287,15.287z M13.148,28.852c0.197,0.197,0.516,0.197,0.713,0l1.426-1.426
	c0.197-0.197,0.197-0.516,0-0.713c-0.197-0.197-0.516-0.197-0.713,0l-1.426,1.426C12.951,28.336,12.951,28.655,13.148,28.852z
	 M16.713,25.287c0.197,0.197,0.516,0.197,0.713,0l1.426-1.426c0.197-0.197,0.197-0.516,0-0.713c-0.197-0.197-0.516-0.197-0.713,0
	l-1.426,1.426C16.516,24.771,16.516,25.09,16.713,25.287z M18.852,28.852c0.197-0.197,0.197-0.516,0-0.713l-1.426-1.426
	c-0.197-0.197-0.516-0.197-0.713,0s-0.197,0.516,0,0.713l1.426,1.426C18.336,29.049,18.655,29.049,18.852,28.852z M15.287,25.287
	c0.197-0.197,0.197-0.516,0-0.713l-1.426-1.426c-0.197-0.197-0.516-0.197-0.713,0c-0.197,0.197-0.197,0.516,0,0.713l1.426,1.426
	C14.771,25.484,15.09,25.484,15.287,25.287z M25,31.5v-31C25,0.224,24.776,0,24.5,0h-17C7.224,0,7,0.224,7,0.5v31
	C7,31.776,7.224,32,7.5,32h17C24.776,32,25,31.776,25,31.5z M8,1h16v30H8V1z"/>
</svg>