<?xml version="1.0" encoding="utf-8"?>
<svg version="1.1" xmlns="http://www.w3.org/2000/svg" xmlns:xlink="http://www.w3.org/1999/xlink" 
	 width="800px" height="800px" viewBox="0 0 32 32" xml:space="preserve">
<style type="text/css">
	.dashing_een{fill:#0B1719;}
</style>
<path class="dashing_een" d="M4,7.5v2C4,9.776,3.776,10,3.5,10S3,9.776,3,9.5v-2C3,7.224,3.224,7,3.5,7S4,7.224,4,7.5z M3.5,12
	C3.224,12,3,12.224,3,12.5v2C3,14.776,3.224,15,3.5,15S4,14.776,4,14.5v-2C4,12.224,3.776,12,3.5,12z M3.5,17
	C3.224,17,3,17.224,3,17.5v2C3,19.776,3.224,20,3.5,20S4,19.776,4,19.5v-2C4,17.224,3.776,17,3.5,17z M3.5,22
	C3.224,22,3,22.224,3,22.5v2C3,24.776,3.224,25,3.5,25S4,24.776,4,24.5v-2C4,22.224,3.776,22,3.5,22z M28.5,7
	C28.224,7,28,7.224,28,7.5v2c0,0.276,0.224,0.5,0.5,0.5S29,9.776,29,9.5v-2C29,7.224,28.776,7,28.5,7z M28.5,12
	c-0.276,0-0.5,0.224-0.5,0.5v2c0,0.276,0.224,0.5,0.5,0.5s0.5-0.224,0.5-0.5v-2C29,12.224,28.776,12,28.5,12z M28.5,17
	c-0.276,0-0.5,0.224-0.5,0.5v2c0,0.276,0.224,0.5,0.5,0.5s0.5-0.224,0.5-0.5v-2C29,17.224,28.776,17,28.5,17z M28.5,22
	c-0.276,0-0.5,0.224-0.5,0.5v2c0,0.276,0.224,0.5,0.5,0.5s0.5-0.224,0.5-0.5v-2C29,22.224,28.776,22,28.5,22z M7,28.5
	C7,28.776,7.224,29,7.5,29h2c0.276,0,0.5-0.224,0.5-0.5S9.776,28,9.5,28h-2C7.224,28,7,28.224,7,28.5z M4.5,28H4v-0.5
	C4,27.224,3.776,27,3.5,27S3,27.224,3,27.5V28H2.5C2.224,28,2,28.224,2,28.5S2.224,29,2.5,29H3v0.5C3,29.776,3.224,30,3.5,30
	S4,29.776,4,29.5V29h0.5C4.776,29,5,28.776,5,28.5S4.776,28,4.5,28z M12,28.5c0,0.276,0.224,0.5,0.5,0.5h2
	c0.276,0,0.5-0.224,0.5-0.5S14.776,28,14.5,28h-2C12.224,28,12,28.224,12,28.5z M17,28.5c0,0.276,0.224,0.5,0.5,0.5h2
	c0.276,0,0.5-0.224,0.5-0.5S19.776,28,19.5,28h-2C17.224,28,17,28.224,17,28.5z M22,28.5c0,0.276,0.224,0.5,0.5,0.5h2
	c0.276,0,0.5-0.224,0.5-0.5S24.776,28,24.5,28h-2C22.224,28,22,28.224,22,28.5z M29.5,28H29v-0.5c0-0.276-0.224-0.5-0.5-0.5
	S28,27.224,28,27.5V28h-0.5c-0.276,0-0.5,0.224-0.5,0.5s0.224,0.5,0.5,0.5H28v0.5c0,0.276,0.224,0.5,0.5,0.5s0.5-0.224,0.5-0.5V29
	h0.5c0.276,0,0.5-0.224,0.5-0.5S29.776,28,29.5,28z M7,3.5C7,3.776,7.224,4,7.5,4h2C9.776,4,10,3.776,10,3.5S9.776,3,9.5,3h-2
	C7.224,3,7,3.224,7,3.5z M4.5,3H4V2.5C4,2.224,3.776,2,3.5,2S3,2.224,3,2.5V3H2.5C2.224,3,2,3.224,2,3.5S2.224,4,2.5,4H3v0.5
	C3,4.776,3.224,5,3.5,5S4,4.776,4,4.5V4h0.5C4.776,4,5,3.776,5,3.5S4.776,3,4.5,3z M12,3.5C12,3.776,12.224,4,12.5,4h2
	C14.776,4,15,3.776,15,3.5S14.776,3,14.5,3h-2C12.224,3,12,3.224,12,3.5z M17,3.5C17,3.776,17.224,4,17.5,4h2
	C19.776,4,20,3.776,20,3.5S19.776,3,19.5,3h-2C17.224,3,17,3.224,17,3.5z M22,3.5C22,3.776,22.224,4,22.5,4h2
	C24.776,4,25,3.776,25,3.5S24.776,3,24.5,3h-2C22.224,3,22,3.224,22,3.5z M29.5,3H29V2.5C29,2.224,28.776,2,28.5,2S28,2.224,28,2.5
	V3h-0.5C27.224,3,27,3.224,27,3.5S27.224,4,27.5,4H28v0.5C28,4.776,28.224,5,28.5,5S29,4.776,29,4.5V4h0.5C29.776,4,30,3.776,30,3.5
	S29.776,3,29.5,3z"/>
</svg>