<?xml version="1.0" ?>

<!DOCTYPE svg  PUBLIC '-//W3C//DTD SVG 1.1//EN'  'http://www.w3.org/Graphics/SVG/1.1/DTD/svg11.dtd'>


<svg width="800px" height="800px" viewBox="0 0 512 512" enable-background="new 0 0 512 512" version="1.1" xml:space="preserve" xmlns="http://www.w3.org/2000/svg" xmlns:xlink="http://www.w3.org/1999/xlink">

<g id="_x30_1"/>

<g id="_x30_2"/>

<g id="_x30_3"/>

<g id="_x30_4"/>

<g id="_x30_5"/>

<g id="_x30_6"/>

<g id="_x30_7"/>

<g id="_x30_8"/>

<g id="_x30_9"/>

<g id="_x31_0"/>

<g id="_x31_1"/>

<g id="_x31_2"/>

<g id="_x31_3"/>

<g id="_x31_4"/>

<g id="_x31_5"/>

<g id="_x31_6"/>

<g id="_x31_7"/>

<g id="_x31_8"/>

<g id="_x31_9"/>

<g id="_x32_0"/>

<g id="_x32_1"/>

<g id="_x32_2"/>

<g id="_x32_3"/>

<g id="_x32_4"/>

<g id="_x32_5"/>

<g id="_x32_6"/>

<g id="_x32_7"/>

<g id="_x32_8"/>

<g id="_x32_9"/>

<g id="_x33_0"/>

<g id="_x33_1"/>

<g id="_x33_2"/>

<g id="_x33_3"/>

<g id="_x33_4"/>

<g id="_x33_5"/>

<g id="_x33_6"/>

<g id="_x33_7"/>

<g id="_x33_8"/>

<g id="_x33_9"/>

<g id="_x34_0"/>

<g id="_x34_1"/>

<g id="_x34_2"/>

<g id="_x34_3"/>

<g id="_x34_4"/>

<g id="_x34_5"/>

<g id="_x34_6"/>

<g id="_x34_7"/>

<g id="_x34_8"/>

<g id="_x34_9"/>

<g id="_x35_0">

<g>

<path d="    M-269.499-683.602c-43.863,44.825-115.773,45.611-160.598,1.748c-44.853-43.864-45.64-115.777-1.776-160.603L-269.499-683.602z" fill="none" stroke="#000000" stroke-linecap="round" stroke-linejoin="round" stroke-miterlimit="10" stroke-width="20.1478"/>

<path d="    M-434.116-685.961l-39.523,86.971h97.337l-28.251-64.019c-9.145-4.952-17.766-11.214-25.543-18.845    C-431.494-683.194-432.805-684.563-434.116-685.961L-434.116-685.961z" fill="none" stroke="#000000" stroke-linecap="round" stroke-linejoin="round" stroke-miterlimit="10" stroke-width="20.1478"/>

<line fill="none" stroke="#000000" stroke-linecap="round" stroke-linejoin="round" stroke-miterlimit="10" stroke-width="20.1478" x1="-298.129" x2="-345.167" y1="-817.437" y2="-769.32"/>

<path d="    M-64.397-663.33c-33.377,34.078-88.046,34.689-122.151,1.311c-34.106-33.35-34.718-88.048-1.34-122.156L-64.397-663.33z" fill="none" stroke="#000000" stroke-linecap="round" stroke-linejoin="round" stroke-miterlimit="10" stroke-width="20.1478"/>

<path d="    M-189.607-665.136l-30.058,66.146h74.037l-21.494-48.699c-6.961-3.757-13.515-8.535-19.427-14.33    C-187.598-663.038-188.617-664.087-189.607-665.136L-189.607-665.136z" fill="none" stroke="#000000" stroke-linecap="round" stroke-linejoin="round" stroke-miterlimit="10" stroke-width="20.1478"/>

<line fill="none" stroke="#000000" stroke-linecap="round" stroke-linejoin="round" stroke-miterlimit="10" stroke-width="20.1478" x1="-86.183" x2="-121.979" y1="-765.126" y2="-728.543"/>

<line fill="none" stroke="#000000" stroke-linecap="round" stroke-linejoin="round" stroke-miterlimit="10" stroke-width="20.1478" x1="-409.476" x2="-409.476" y1="-779.485" y2="-779.776"/>

<line fill="none" stroke="#000000" stroke-linecap="round" stroke-linejoin="round" stroke-miterlimit="10" stroke-width="20.1478" x1="-381.952" x2="-381.952" y1="-749.428" y2="-749.689"/>

<line fill="none" stroke="#000000" stroke-linecap="round" stroke-linejoin="round" stroke-miterlimit="10" stroke-width="20.1478" x1="-353.729" x2="-353.729" y1="-721.991" y2="-722.281"/>

<line fill="none" stroke="#000000" stroke-linecap="round" stroke-linejoin="round" stroke-miterlimit="10" stroke-width="20.1478" x1="-327.633" x2="-327.633" y1="-697.321" y2="-697.583"/>

<line fill="none" stroke="#000000" stroke-linecap="round" stroke-linejoin="round" stroke-miterlimit="10" stroke-width="20.1478" x1="-163.977" x2="-163.977" y1="-724.378" y2="-724.641"/>

<line fill="none" stroke="#000000" stroke-linecap="round" stroke-linejoin="round" stroke-miterlimit="10" stroke-width="20.1478" x1="-131.881" x2="-131.881" y1="-693.068" y2="-693.33"/>

<path d="    M-122.706-901.029c28.863,0,52.397-23.534,52.397-52.398c0-28.864-23.534-52.398-52.397-52.398    c-28.864,0-52.426,23.534-52.426,52.398C-175.132-924.563-151.57-901.029-122.706-901.029L-122.706-901.029z" fill="none" stroke="#000000" stroke-linecap="round" stroke-linejoin="round" stroke-miterlimit="10" stroke-width="20.1478"/>

<line fill="none" stroke="#000000" stroke-linecap="round" stroke-linejoin="round" stroke-miterlimit="10" stroke-width="20.1478" x1="-514.56" x2="-36" y1="-599.369" y2="-598.612"/>

<line fill="none" stroke="#000000" stroke-linecap="round" stroke-linejoin="round" stroke-miterlimit="10" stroke-width="20.1478" x1="-359.642" x2="-359.642" y1="-989.398" y2="-989.66"/>

<line fill="none" stroke="#000000" stroke-linecap="round" stroke-linejoin="round" stroke-miterlimit="10" stroke-width="20.1478" x1="-460.59" x2="-460.59" y1="-990.417" y2="-990.709"/>

<line fill="none" stroke="#000000" stroke-linecap="round" stroke-linejoin="round" stroke-miterlimit="10" stroke-width="20.1478" x1="-389.699" x2="-389.699" y1="-923.893" y2="-924.155"/>

<line fill="none" stroke="#000000" stroke-linecap="round" stroke-linejoin="round" stroke-miterlimit="10" stroke-width="20.1478" x1="-264.839" x2="-264.839" y1="-1011.737" y2="-1012"/>

<line fill="none" stroke="#000000" stroke-linecap="round" stroke-linejoin="round" stroke-miterlimit="10" stroke-width="20.1478" x1="-196.277" x2="-196.277" y1="-853.757" y2="-854.02"/>

<line fill="none" stroke="#000000" stroke-linecap="round" stroke-linejoin="round" stroke-miterlimit="10" stroke-width="20.1478" x1="-207.054" x2="-287.207" y1="-986.573" y2="-897.185"/>

<line fill="none" stroke="#000000" stroke-linecap="round" stroke-linejoin="round" stroke-miterlimit="10" stroke-width="20.1478" x1="-428.203" x2="-479.085" y1="-964.233" y2="-905.66"/>

<line fill="none" stroke="#000000" stroke-linecap="round" stroke-linejoin="round" stroke-miterlimit="10" stroke-width="20.1478" x1="-45.99" x2="-79.892" y1="-870.214" y2="-833.223"/>

</g>

<g>

<path d="    M254.99-771.838c22.682,0,41.177-18.497,41.177-41.179c0-22.682-18.496-41.179-41.177-41.179    c-22.683,0-41.178,18.497-41.178,41.179C213.812-790.335,232.307-771.838,254.99-771.838L254.99-771.838z" fill="none" stroke="#000000" stroke-linecap="round" stroke-linejoin="round" stroke-miterlimit="10" stroke-width="20.1764"/>

<path d="    M92.682-722.465c15.141,0,27.492-12.351,27.492-27.492s-12.351-27.493-27.492-27.493c-15.17,0-27.521,12.351-27.521,27.493    S77.512-722.465,92.682-722.465L92.682-722.465z" fill="none" stroke="#000000" stroke-linecap="round" stroke-linejoin="round" stroke-miterlimit="10" stroke-width="20.1764"/>

<path d="    M172.307-954.694c15.141,0,27.492-12.351,27.492-27.493c0-15.142-12.351-27.492-27.492-27.492s-27.491,12.35-27.491,27.492    C144.815-967.045,157.166-954.694,172.307-954.694L172.307-954.694z" fill="none" stroke="#000000" stroke-linecap="round" stroke-linejoin="round" stroke-miterlimit="10" stroke-width="20.1764"/>

<path d="    M255.464-896.949C388.32-896.949,496-858.442,496-810.91c0,47.503-107.68,86.04-240.536,86.04c-50.946,0-98.18-5.67-137.072-15.35    c1.128-3.027,1.781-6.294,1.781-9.737c0-15.171-12.32-27.493-27.492-27.493c-12.499,0-23.008,8.313-26.393,19.684    c-32.183-14.607-51.391-33.073-51.391-53.144C14.898-858.442,122.608-896.949,255.464-896.949L255.464-896.949z" fill="none" stroke="#000000" stroke-linecap="round" stroke-linejoin="round" stroke-miterlimit="10" stroke-width="20.1764"/>

<path d="    M199.412-977.614c40.525,12.647,90.877,57.359,130.48,120.449c56.765,90.375,70.006,184.222,29.6,209.577    c-40.405,25.384-119.199-27.314-175.934-117.688c-53.588-85.297-68.372-173.682-35.893-204.678    c4.513,9.056,13.834,15.261,24.641,15.261C185.904-954.694,197.215-964.611,199.412-977.614L199.412-977.614z" fill="none" stroke="#000000" stroke-linecap="round" stroke-linejoin="round" stroke-miterlimit="10" stroke-width="20.1764"/>

</g>

<g>

<path d="    M750.941-657.173c77.058,0,139.925-62.869,139.925-139.928C890.866-874.16,827.999-937,750.941-937    c-77.057,0-139.894,62.84-139.894,139.899C611.047-720.042,673.884-657.173,750.941-657.173L750.941-657.173z" fill="none" stroke="#000000" stroke-linecap="round" stroke-linejoin="round" stroke-miterlimit="10" stroke-width="20.1764"/>

<path d="    M875.209-863.231c89.13,7.609,152.321,26.617,152.321,48.856c0,8.284-8.754,16.128-24.384,23.091 M934.697-772.894    c-40.364,6.846-90.981,10.929-145.946,10.929c-131.847,0-238.751-23.473-238.751-52.41c0-14.689,27.585-27.969,71.975-37.487" fill="none" stroke="#000000" stroke-linecap="round" stroke-linejoin="round" stroke-miterlimit="10" stroke-width="20.1764"/>

<path d="    M969.187-741.987c17.567,0,31.875-14.308,31.875-31.876c0-17.539-14.308-31.875-31.875-31.875s-31.874,14.336-31.874,31.875    C937.313-756.295,951.619-741.987,969.187-741.987L969.187-741.987z" fill="none" stroke="#000000" stroke-linecap="round" stroke-linejoin="round" stroke-miterlimit="10" stroke-width="20.1764"/>

<path d="    M867.864-722.01c-31.141,12.486-74.854,20.271-123.268,20.271c-38.955,0-74.883-5.023-103.615-13.514" fill="none" stroke="#000000" stroke-linecap="round" stroke-linejoin="round" stroke-miterlimit="10" stroke-width="20.1764"/>

<path d="    M887.048-830.034c-31.259,15.688-80.348,25.794-135.549,25.794c-54.758,0-103.496-9.959-134.782-25.412" fill="none" stroke="#000000" stroke-linecap="round" stroke-linejoin="round" stroke-miterlimit="10" stroke-width="20.1764"/>

<path d="    M832.581-908.65c-23.384,4.613-49.883,7.257-77.968,7.257c-30.522,0-59.166-3.114-83.959-8.52" fill="none" stroke="#000000" stroke-linecap="round" stroke-linejoin="round" stroke-miterlimit="10" stroke-width="20.1764"/>

</g>

<g>

<path d="    M1321.394-839.521c129.086,0,234.366-20.577,234.366-45.754c0-25.206-105.28-45.754-234.366-45.754    c-129.114,0-234.394,20.548-234.394,45.754C1087-860.098,1192.279-839.521,1321.394-839.521L1321.394-839.521z" fill="none" stroke="#000000" stroke-linecap="round" stroke-linejoin="round" stroke-miterlimit="10" stroke-width="20.1478"/>

<polygon fill="none" points="    1163.559,-578.799 1462.71,-578.799 1355.544,-785.507 1266.01,-785.507   " stroke="#000000" stroke-linecap="round" stroke-linejoin="round" stroke-miterlimit="10" stroke-width="20.1478"/>

<line fill="none" stroke="#000000" stroke-linecap="round" stroke-linejoin="round" stroke-miterlimit="10" stroke-width="20.1478" x1="1278.984" x2="1251.893" y1="-696.972" y2="-578.799"/>

<line fill="none" stroke="#000000" stroke-linecap="round" stroke-linejoin="round" stroke-miterlimit="10" stroke-width="20.1478" x1="1292.416" x2="1286.872" y1="-759.501" y2="-735.295"/>

<line fill="none" stroke="#000000" stroke-linecap="round" stroke-linejoin="round" stroke-miterlimit="10" stroke-width="20.1478" x1="1337.283" x2="1351.343" y1="-759.501" y2="-705.602"/>

<line fill="none" stroke="#000000" stroke-linecap="round" stroke-linejoin="round" stroke-miterlimit="10" stroke-width="20.1478" x1="1261.638" x2="1261.638" y1="-965.667" y2="-965.952"/>

<line fill="none" stroke="#000000" stroke-linecap="round" stroke-linejoin="round" stroke-miterlimit="10" stroke-width="20.1478" x1="1322.108" x2="1322.108" y1="-965.667" y2="-965.952"/>

<line fill="none" stroke="#000000" stroke-linecap="round" stroke-linejoin="round" stroke-miterlimit="10" stroke-width="20.1478" x1="1382.607" x2="1382.607" y1="-965.667" y2="-965.952"/>

<path d="    M1219.199-999.503h204.331v73.047c-30.864-3.887-65.528-6.059-102.137-6.059c-36.636,0-71.302,2.172-102.194,6.059V-999.503z" fill="none" stroke="#000000" stroke-linecap="round" stroke-linejoin="round" stroke-miterlimit="10" stroke-width="20.1478"/>

<path d="    M1321.565-1044c30.949,0,57.612,18.205,69.9,44.497h-139.802C1263.953-1025.795,1290.645-1044,1321.565-1044L1321.565-1044z" fill="none" stroke="#000000" stroke-linecap="round" stroke-linejoin="round" stroke-miterlimit="10" stroke-width="20.1478"/>

<line fill="none" stroke="#000000" stroke-linecap="round" stroke-linejoin="round" stroke-miterlimit="10" stroke-width="20.1478" x1="1425.56" x2="1448.25" y1="-957.293" y2="-957.293"/>

<line fill="none" stroke="#000000" stroke-linecap="round" stroke-linejoin="round" stroke-miterlimit="10" stroke-width="20.1478" x1="1196.852" x2="1219.543" y1="-957.293" y2="-957.293"/>

<line fill="none" stroke="#000000" stroke-linecap="round" stroke-linejoin="round" stroke-miterlimit="10" stroke-width="20.1478" x1="1258.065" x2="1384.693" y1="-885.275" y2="-885.275"/>

<line fill="none" stroke="#000000" stroke-linecap="round" stroke-linejoin="round" stroke-miterlimit="10" stroke-width="20.1478" x1="1357.431" x2="1359.802" y1="-678.825" y2="-669.737"/>

</g>

<g>

<path d="    M1851.136-628.278c30.578,0,55.556-24.949,55.556-55.557c0-30.579-24.978-55.527-55.556-55.527    c-30.606,0-55.555,24.948-55.555,55.527C1795.581-653.227,1820.529-628.278,1851.136-628.278L1851.136-628.278z" fill="none" stroke="#000000" stroke-linecap="round" stroke-linejoin="round" stroke-miterlimit="10" stroke-width="20.1764"/>

<path d="    M1786.408-1009L1786.408-1009c14.631,0,26.634,11.975,26.634,26.635v82.306l0.086,75.533    c-0.058,16.204,45.724,14.861,45.724,0.257l-0.028-75.79h37.637v-26.807c0-12.403,10.146-22.548,22.548-22.548l0,0    c12.403,0,22.548,10.146,22.548,22.548v28.55v0.114v29.979v180.273c0,50.498-41.295,91.794-91.792,91.794l0,0    c-50.496,0-91.819-41.296-91.819-91.794v-210.251l-0.058-84.364C1757.887-997.197,1771.775-1009,1786.408-1009L1786.408-1009z" fill="none" stroke="#000000" stroke-linecap="round" stroke-linejoin="round" stroke-miterlimit="10" stroke-width="20.1764"/>

<line fill="none" stroke="#000000" stroke-linecap="round" stroke-linejoin="round" stroke-miterlimit="10" stroke-width="20.1764" x1="1902.947" x2="1902.947" y1="-817.553" y2="-768.883"/>

<line fill="none" stroke="#000000" stroke-linecap="round" stroke-linejoin="round" stroke-miterlimit="10" stroke-width="20.1764" x1="1860.71" x2="1860.71" y1="-784.516" y2="-707.383"/>

<line fill="none" stroke="#000000" stroke-linecap="round" stroke-linejoin="round" stroke-miterlimit="10" stroke-width="20.1764" x1="1799.496" x2="1799.496" y1="-784.516" y2="-705.525"/>

<line fill="none" stroke="#000000" stroke-linecap="round" stroke-linejoin="round" stroke-miterlimit="10" stroke-width="20.1764" x1="1902.947" x2="1902.947" y1="-866.536" y2="-850.618"/>

<line fill="none" stroke="#000000" stroke-linecap="round" stroke-linejoin="round" stroke-miterlimit="10" stroke-width="20.1764" x1="1827.816" x2="1827.816" y1="-695.609" y2="-695.894"/>

<path d="    M2084.073-852.762v158.839c0,23.749-22.148,43.153-49.24,43.153l0,0c-27.091,0-49.239-19.404-49.239-43.153v-139.949v-0.057    v-65.645c0-8.573,8.002-15.604,17.805-15.604l0,0c9.802,0,17.832,7.03,17.832,15.604v37.581c-0.028,0.314-0.028,0.6-0.028,0.915    v65.645c0,8.573,7.001,15.604,15.604,15.604l0,0c8.573,0,15.604-7.03,15.604-15.604v-57.329    C2052.38-868.28,2084.073-868.166,2084.073-852.762L2084.073-852.762z" fill="none" stroke="#000000" stroke-linecap="round" stroke-linejoin="round" stroke-miterlimit="10" stroke-width="20.1764"/>

<path d="    M2033.776-683.492c9.859,0,17.89-8.059,17.89-17.918c0-9.86-8.03-17.891-17.89-17.891s-17.919,8.03-17.919,17.891    C2015.857-691.55,2023.917-683.492,2033.776-683.492L2033.776-683.492z" fill="none" stroke="#000000" stroke-linecap="round" stroke-linejoin="round" stroke-miterlimit="10" stroke-width="20.1764"/>

<path d="    M1713.135-925.751v150.18c0,22.462-20.977,40.81-46.582,40.81l0,0c-25.605,0-46.553-18.348-46.553-40.81v-132.347v-0.057v-62.072    c0-8.117,7.572-14.747,16.832-14.747l0,0c9.26,0,16.861,6.63,16.861,14.747v35.551c-0.029,0.286-0.029,0.572-0.029,0.857v62.072    c0,8.117,6.631,14.747,14.746,14.747l0,0c8.116,0,14.775-6.63,14.775-14.747v-54.185    C1683.156-940.469,1713.135-940.326,1713.135-925.751L1713.135-925.751z" fill="none" stroke="#000000" stroke-linecap="round" stroke-linejoin="round" stroke-miterlimit="10" stroke-width="20.1764"/>

<line fill="none" stroke="#000000" stroke-linecap="round" stroke-linejoin="round" stroke-miterlimit="10" stroke-width="20.1764" x1="1665.124" x2="1665.124" y1="-769.656" y2="-769.941"/>

<line fill="none" stroke="#000000" stroke-linecap="round" stroke-linejoin="round" stroke-miterlimit="10" stroke-width="20.1764" x1="1666.953" x2="1666.953" y1="-816.152" y2="-800.263"/>

<line fill="none" stroke="#000000" stroke-linecap="round" stroke-linejoin="round" stroke-miterlimit="10" stroke-width="20.1764" x1="2013.028" x2="2013.028" y1="-758.938" y2="-742.677"/>

<line fill="none" stroke="#000000" stroke-linecap="round" stroke-linejoin="round" stroke-miterlimit="10" stroke-width="20.1764" x1="2057.267" x2="2057.267" y1="-749.307" y2="-742.706"/>

</g>

<g>

<polygon fill="none" points="    1832.477,-321.009 1875.942,-247.963 1772.377,-186.319 1728.91,-259.394   " stroke="#000000" stroke-linecap="round" stroke-linejoin="round" stroke-miterlimit="10" stroke-width="20.1478"/>

<polygon fill="none" points="    1756.373,-404.715 1795.439,-339.042 1752.916,-313.75 1713.85,-379.395   " stroke="#000000" stroke-linecap="round" stroke-linejoin="round" stroke-miterlimit="10" stroke-width="20.1478"/>

<polygon fill="none" points="    1873.856,-207.267 1912.922,-141.594 1870.398,-116.302 1831.333,-181.946   " stroke="#000000" stroke-linecap="round" stroke-linejoin="round" stroke-miterlimit="10" stroke-width="20.1478"/>

<path d="    M1896.404-339.957l26.406,44.382c5.286,8.917,2.343,20.52-6.545,25.835l0,0c-8.916,5.287-20.519,2.343-25.834-6.573    l-26.406-44.382c-5.286-8.888-2.343-20.52,6.545-25.806l0,0C1879.486-351.817,1891.089-348.845,1896.404-339.957L1896.404-339.957    z" fill="none" stroke="#000000" stroke-linecap="round" stroke-linejoin="round" stroke-miterlimit="10" stroke-width="20.1478"/>

<line fill="none" stroke="#000000" stroke-linecap="round" stroke-linejoin="round" stroke-miterlimit="10" stroke-width="20.1478" x1="1775.578" x2="1793.182" y1="-327.211" y2="-297.632"/>

<line fill="none" stroke="#000000" stroke-linecap="round" stroke-linejoin="round" stroke-miterlimit="10" stroke-width="20.1478" x1="1836.648" x2="1853.967" y1="-224.557" y2="-195.436"/>

<path d="    M1838.791-50c121.627,0,220.792-99.195,220.792-220.797c0-121.63-99.165-220.797-220.792-220.797    c-121.598,0-220.791,99.167-220.791,220.797C1618-149.195,1717.193-50,1838.791-50L1838.791-50z" fill="none" stroke="#000000" stroke-linecap="round" stroke-linejoin="round" stroke-miterlimit="10" stroke-width="20.1478"/>

<path d="    M2007.286-470.732c130.828-74.104,88.505,26.378-71.616,126.832" fill="none" stroke="#000000" stroke-linecap="round" stroke-linejoin="round" stroke-miterlimit="10" stroke-width="20.1478"/>

</g>

<g>

<line fill="none" stroke="#000000" stroke-linecap="round" stroke-linejoin="round" stroke-miterlimit="10" stroke-width="20.1764" x1="1187.622" x2="1277.014" y1="-159.131" y2="-159.532"/>

<line fill="none" stroke="#000000" stroke-linecap="round" stroke-linejoin="round" stroke-miterlimit="10" stroke-width="20.1764" x1="1309.764" x2="1366.005" y1="-170.934" y2="-230.435"/>

<path d="    M1103.176-233.121c10.002,0,18.146-8.174,18.146-18.177c0-10.002-8.145-18.146-18.146-18.146c-10.03,0-18.176,8.145-18.176,18.146    C1085-241.294,1093.146-233.121,1103.176-233.121L1103.176-233.121z" fill="none" stroke="#000000" stroke-linecap="round" stroke-linejoin="round" stroke-miterlimit="10" stroke-width="20.1764"/>

<line fill="none" stroke="#000000" stroke-linecap="round" stroke-linejoin="round" stroke-miterlimit="10" stroke-width="20.1764" x1="1390.781" x2="1377.836" y1="-400.276" y2="-268.816"/>

<line fill="none" stroke="#000000" stroke-linecap="round" stroke-linejoin="round" stroke-miterlimit="10" stroke-width="20.1764" x1="1456.311" x2="1392.782" y1="-347.664" y2="-262.1"/>

<line fill="none" stroke="#000000" stroke-linecap="round" stroke-linejoin="round" stroke-miterlimit="10" stroke-width="20.1764" x1="1517.209" x2="1397.469" y1="-261.328" y2="-246.095"/>

<line fill="none" stroke="#000000" stroke-linecap="round" stroke-linejoin="round" stroke-miterlimit="10" stroke-width="20.1764" x1="1113.949" x2="1151.386" y1="-233.321" y2="-181.537"/>

<path d="    M1166.532-146.757c10.031,0,18.176-8.145,18.176-18.176c0-10.002-8.145-18.147-18.176-18.147    c-10.002,0-18.146,8.146-18.146,18.147C1148.386-154.902,1156.53-146.757,1166.532-146.757L1166.532-146.757z" fill="none" stroke="#000000" stroke-linecap="round" stroke-linejoin="round" stroke-miterlimit="10" stroke-width="20.1764"/>

<path d="    M1295.161-141.927c10.002,0,18.175-8.174,18.175-18.176c0-10.003-8.173-18.176-18.175-18.176    c-10.003,0-18.147,8.173-18.147,18.176C1277.014-150.101,1285.158-141.927,1295.161-141.927L1295.161-141.927z" fill="none" stroke="#000000" stroke-linecap="round" stroke-linejoin="round" stroke-miterlimit="10" stroke-width="20.1764"/>

<path d="    M1379.322-227.919c10.002,0,18.146-8.174,18.146-18.176c0-10.003-8.145-18.177-18.146-18.177    c-10.003,0-18.176,8.174-18.176,18.177C1361.146-236.093,1369.319-227.919,1379.322-227.919L1379.322-227.919z" fill="none" stroke="#000000" stroke-linecap="round" stroke-linejoin="round" stroke-miterlimit="10" stroke-width="20.1764"/>

<path d="    M1535.07-247.21c10.002,0,18.176-8.173,18.176-18.176c0-10.002-8.174-18.176-18.176-18.176s-18.146,8.174-18.146,18.176    C1516.924-255.383,1525.068-247.21,1535.07-247.21L1535.07-247.21z" fill="none" stroke="#000000" stroke-linecap="round" stroke-linejoin="round" stroke-miterlimit="10" stroke-width="20.1764"/>

<path d="    M1469.398-344.32c10.003,0,18.147-8.173,18.147-18.176s-8.145-18.176-18.147-18.176c-10.03,0-18.175,8.174-18.175,18.176    S1459.368-344.32,1469.398-344.32L1469.398-344.32z" fill="none" stroke="#000000" stroke-linecap="round" stroke-linejoin="round" stroke-miterlimit="10" stroke-width="20.1764"/>

<path d="    M1392.296-400.677c10.002,0,18.147-8.145,18.147-18.147c0-10.031-8.146-18.176-18.147-18.176s-18.175,8.145-18.175,18.176    C1374.121-408.821,1382.294-400.677,1392.296-400.677L1392.296-400.677z" fill="none" stroke="#000000" stroke-linecap="round" stroke-linejoin="round" stroke-miterlimit="10" stroke-width="20.1764"/>

</g>

<g>

<path d="    M787.754-504C907.18-504,1004-414.835,1004-304.808c0,96.166-101.707,259.864-214.361,259.864    c-111.081,0-218.133-163.841-218.133-259.864C571.506-414.835,668.327-504,787.754-504L787.754-504z" fill="none" stroke="#000000" stroke-linecap="round" stroke-linejoin="round" stroke-miterlimit="10" stroke-width="20.1764"/>

<path d="    M714.566-334.559c32.179,27.292,49.268,59.987,38.18,73.076c-11.089,13.06-46.153,1.543-78.331-25.75    c-32.15-27.292-49.24-60.015-38.18-73.075C647.323-373.396,682.387-361.851,714.566-334.559L714.566-334.559z" fill="none" stroke="#000000" stroke-linecap="round" stroke-linejoin="round" stroke-miterlimit="10" stroke-width="20.1764"/>

<path d="    M855.91-334.559c-32.178,27.292-49.268,59.987-38.18,73.076c11.09,13.06,46.154,1.543,78.303-25.75    c32.18-27.292,49.27-60.015,38.182-73.075C923.125-373.396,888.061-361.851,855.91-334.559L855.91-334.559z" fill="none" stroke="#000000" stroke-linecap="round" stroke-linejoin="round" stroke-miterlimit="10" stroke-width="20.1764"/>

<line fill="none" stroke="#000000" stroke-linecap="round" stroke-linejoin="round" stroke-miterlimit="10" stroke-width="20.1764" x1="755.489" x2="755.489" y1="-185.893" y2="-186.151"/>

<line fill="none" stroke="#000000" stroke-linecap="round" stroke-linejoin="round" stroke-miterlimit="10" stroke-width="20.1764" x1="815.988" x2="815.988" y1="-185.893" y2="-186.151"/>

</g>

<g>

<path d="    M183.502-420.989c39.38,9.459,82.647,26.006,125.885,49.298c126.284,67.96,204.673,167.584,175.124,222.512    c-16.29,30.265-61.928,40.639-120.741,32.522 M298.242-131.832c-30.864-9.745-63.385-23.435-95.907-40.953    C76.079-240.745-2.338-340.369,27.24-395.297c16.775-31.151,64.671-41.239,126.028-31.722" fill="none" stroke="#000000" stroke-linecap="round" stroke-linejoin="round" stroke-miterlimit="10" stroke-width="20.1764"/>

<path d="    M123.232-302.417c-10.974-15.976-14.746-30.179-9.288-40.324c14.604-27.121,89.906-14.975,168.208,27.149    c26.406,14.204,49.754,30.007,68.559,45.754 M371.944-250.118c22.747,23.806,33.121,45.84,25.491,59.986    c-14.604,27.149-89.906,15.003-168.208-27.15c-37.637-20.262-69.129-43.782-90.048-65.759" fill="none" stroke="#000000" stroke-linecap="round" stroke-linejoin="round" stroke-miterlimit="10" stroke-width="20.1764"/>

<path d="    M267.578-288.528c12.231,6.573,16.804,21.777,10.23,33.98c-6.572,12.231-21.805,16.775-34.007,10.23    c-12.203-6.572-16.775-21.805-10.202-34.008C240.172-290.528,255.375-295.101,267.578-288.528L267.578-288.528z" fill="none" stroke="#000000" stroke-linecap="round" stroke-linejoin="round" stroke-miterlimit="10" stroke-width="20.1764"/>

<line fill="none" stroke="#000000" stroke-linecap="round" stroke-linejoin="round" stroke-miterlimit="10" stroke-width="20.1764" x1="328.763" x2="328.849" y1="-122.688" y2="-122.858"/>

</g>

<g>

<path d="    M-273.813-266.798c66.157,0,120.111-53.956,120.111-120.115c0-66.131-53.954-120.087-120.111-120.087    c-66.129,0-120.084,53.956-120.084,120.087C-393.897-320.754-339.943-266.798-273.813-266.798L-273.813-266.798z" fill="none" stroke="#000000" stroke-linecap="round" stroke-linejoin="round" stroke-miterlimit="10" stroke-width="20.1764"/>

<path d="    M-202.112-290.547c-20.005,14.918-44.81,23.749-71.701,23.749c-26.863,0-51.669-8.83-71.673-23.749    c21.376-4.772,45.781-7.516,71.702-7.516C-247.894-298.063-223.488-295.319-202.112-290.547L-202.112-290.547z" fill="none" stroke="#000000" stroke-linecap="round" stroke-linejoin="round" stroke-miterlimit="10" stroke-width="20.1764"/>

<path d="    M-208.399-432.153c10.06,13.546,16.003,30.322,16.003,48.469c0,15.375-4.286,29.75-11.688,42.011h-139.431    c-7.43-12.26-11.688-26.635-11.688-42.011c0-18.147,5.944-34.923,16.003-48.469H-208.399z" fill="none" stroke="#000000" stroke-linecap="round" stroke-linejoin="round" stroke-miterlimit="10" stroke-width="20.1764"/>

<path d="    M-319.281-400.545c-5.287,6.944-5.229,11.688-1.657,20.062" fill="none" stroke="#000000" stroke-linecap="round" stroke-linejoin="round" stroke-miterlimit="10" stroke-width="20.1764"/>

<path d="    M-231.376-499.284c-10.517,12.203-26.12,19.948-43.495,19.948c-17.09,0-32.436-7.488-42.953-19.348    c13.632-5.373,28.492-8.316,44.01-8.316C-258.868-507-244.579-504.256-231.376-499.284L-231.376-499.284z" fill="none" stroke="#000000" stroke-linecap="round" stroke-linejoin="round" stroke-miterlimit="10" stroke-width="20.1764"/>

<path d="    M-402.014-344.045h16.004c6.715,17.633,17.518,33.265,31.207,45.783c-4.258-3.858-8.202-8.031-11.86-12.489    c-22.748,1.429-43.667,9.831-60.699,23.063v-31.007C-427.362-332.643-415.959-344.045-402.014-344.045L-402.014-344.045z     M-354.803-298.234c1.086,0.972,2.201,1.943,3.315,2.915C-352.603-296.291-353.717-297.263-354.803-298.234L-354.803-298.234z     M-351.431-295.262c0.543,0.458,1.086,0.915,1.629,1.343C-350.345-294.348-350.888-294.805-351.431-295.262L-351.431-295.262z     M-349.745-293.862c1.115,0.915,2.258,1.8,3.401,2.687C-347.487-292.062-348.63-292.947-349.745-293.862L-349.745-293.862z     M-346.173-291.061c0.572,0.429,1.143,0.857,1.686,1.257C-345.03-290.204-345.601-290.632-346.173-291.061L-346.173-291.061z     M-344.458-289.775c0.6,0.429,1.2,0.857,1.8,1.286C-343.258-288.917-343.858-289.346-344.458-289.775L-344.458-289.775z     M-342.629-288.489c0.543,0.4,1.114,0.8,1.686,1.171C-341.515-287.689-342.086-288.089-342.629-288.489L-342.629-288.489z     M-340.714-287.146c1.172,0.772,2.372,1.543,3.572,2.287C-338.342-285.603-339.542-286.374-340.714-287.146L-340.714-287.146z     M-336.914-284.717c0.543,0.343,1.058,0.657,1.601,0.972C-335.856-284.06-336.371-284.374-336.914-284.717L-336.914-284.717z     M-335.027-283.574c1.2,0.715,2.4,1.4,3.629,2.086C-332.627-282.173-333.827-282.859-335.027-283.574L-335.027-283.574z     M-331.055-281.316c0.515,0.286,1.058,0.572,1.601,0.857C-329.998-280.744-330.541-281.03-331.055-281.316L-331.055-281.316z     M-329.198-280.315c0.629,0.314,1.258,0.657,1.886,0.972C-327.94-279.658-328.569-280.001-329.198-280.315L-329.198-280.315z     M-327.14-279.287c0.543,0.286,1.115,0.571,1.687,0.829C-326.025-278.715-326.597-279.001-327.14-279.287L-327.14-279.287z     M-325.054-278.258c0.571,0.257,1.143,0.543,1.715,0.8C-323.911-277.715-324.482-278-325.054-278.258L-325.054-278.258z     M-323.167-277.4c0.628,0.286,1.286,0.571,1.915,0.857C-321.882-276.829-322.539-277.115-323.167-277.4L-323.167-277.4z     M-320.91-276.4c0.543,0.229,1.058,0.457,1.601,0.657C-319.853-275.943-320.367-276.171-320.91-276.4L-320.91-276.4z     M-318.881-275.542c1.286,0.514,2.572,1,3.858,1.485C-316.309-274.542-317.595-275.029-318.881-275.542L-318.881-275.542z     M-314.537-273.885c0.514,0.171,1.029,0.371,1.543,0.543C-313.508-273.514-314.023-273.714-314.537-273.885L-314.537-273.885z     M-312.537-273.2c0.657,0.229,1.314,0.457,1.972,0.657C-311.222-272.743-311.879-272.971-312.537-273.2L-312.537-273.2z     M-310.365-272.485c0.6,0.2,1.171,0.371,1.772,0.543C-309.193-272.114-309.765-272.285-310.365-272.485L-310.365-272.485z     M-308.05-271.771c0.543,0.172,1.086,0.314,1.629,0.486C-306.964-271.457-307.507-271.599-308.05-271.771L-308.05-271.771z     M-306.05-271.199c0.658,0.2,1.315,0.371,2,0.543C-304.735-270.828-305.392-270.999-306.05-271.199L-306.05-271.199z     M-303.621-270.542c0.543,0.143,1.058,0.257,1.601,0.399C-302.563-270.285-303.078-270.399-303.621-270.542L-303.621-270.542z     M-301.449-269.999c0.6,0.143,1.2,0.285,1.801,0.399C-300.249-269.713-300.849-269.856-301.449-269.999L-301.449-269.999z     M-299.419-269.542c0.686,0.143,1.343,0.286,2.029,0.429C-298.076-269.255-298.734-269.399-299.419-269.542L-299.419-269.542z     M-296.848-269.027c0.543,0.114,1.058,0.2,1.572,0.314C-295.79-268.827-296.305-268.913-296.848-269.027L-296.848-269.027z     M-294.704-268.627c0.686,0.115,1.372,0.229,2.058,0.344C-293.333-268.398-294.019-268.512-294.704-268.627L-294.704-268.627z     M-292.475-268.255c0.628,0.114,1.257,0.2,1.886,0.286C-291.218-268.055-291.847-268.141-292.475-268.255L-292.475-268.255z     M-289.989-267.884c0.543,0.058,1.086,0.144,1.657,0.2C-288.903-267.741-289.446-267.827-289.989-267.884L-289.989-267.884z     M-287.846-267.626c0.686,0.086,1.372,0.171,2.086,0.229C-286.474-267.456-287.16-267.541-287.846-267.626L-287.846-267.626z     M-285.359-267.37c0.572,0.058,1.143,0.114,1.743,0.172C-284.216-267.255-284.788-267.312-285.359-267.37L-285.359-267.37z     M-283.016-267.169c0.6,0.057,1.2,0.086,1.8,0.143C-281.816-267.083-282.416-267.113-283.016-267.169L-283.016-267.169z     M-280.873-266.998c0.686,0.028,1.4,0.057,2.115,0.085C-279.472-266.941-280.187-266.969-280.873-266.998L-280.873-266.998z     M-278.187-266.883c0.543,0.028,1.086,0.028,1.629,0.057C-277.101-266.855-277.644-266.855-278.187-266.883L-278.187-266.883z     M-275.958-266.827c0.714,0,1.429,0.028,2.144,0.028c0.714,0,1.429-0.028,2.143-0.028c-0.714,0-1.429,0.028-2.143,0.028    C-274.528-266.798-275.243-266.827-275.958-266.827L-275.958-266.827z M-271.042-266.827c0.543-0.028,1.086-0.028,1.629-0.057    C-269.956-266.855-270.499-266.855-271.042-266.827L-271.042-266.827z M-268.842-266.913c0.715-0.028,1.43-0.057,2.115-0.085    C-267.412-266.969-268.127-266.941-268.842-266.913L-268.842-266.913z M-266.384-267.027c0.601-0.028,1.2-0.086,1.801-0.143    C-265.184-267.113-265.783-267.055-266.384-267.027L-266.384-267.027z M-263.983-267.198c0.571-0.058,1.144-0.114,1.743-0.172    C-262.84-267.312-263.412-267.255-263.983-267.198L-263.983-267.198z M-261.84-267.398c0.686-0.058,1.4-0.143,2.086-0.229    C-260.439-267.541-261.154-267.456-261.84-267.398L-261.84-267.398z M-259.239-267.684c0.543-0.057,1.086-0.143,1.629-0.2    C-258.153-267.827-258.696-267.741-259.239-267.684L-259.239-267.684z M-257.039-267.969c0.657-0.086,1.314-0.2,1.972-0.286    C-255.725-268.169-256.382-268.055-257.039-267.969L-257.039-267.969z M-254.953-268.284c0.687-0.114,1.372-0.229,2.058-0.344    C-253.581-268.512-254.267-268.398-254.953-268.284L-254.953-268.284z M-252.353-268.712c0.515-0.114,1.058-0.2,1.601-0.314    C-251.295-268.913-251.838-268.827-252.353-268.712L-252.353-268.712z M-250.209-269.113c0.687-0.143,1.344-0.286,2.029-0.429    C-248.865-269.399-249.522-269.255-250.209-269.113L-250.209-269.113z M-247.979-269.599c0.6-0.114,1.2-0.257,1.829-0.399    C-246.779-269.856-247.38-269.713-247.979-269.599L-247.979-269.599z M-245.579-270.142c0.543-0.143,1.086-0.257,1.629-0.399    C-244.493-270.399-245.036-270.285-245.579-270.142L-245.579-270.142z M-243.55-270.656c0.657-0.172,1.314-0.343,2-0.543    C-242.235-270.999-242.893-270.828-243.55-270.656L-243.55-270.656z M-241.179-271.285c0.543-0.172,1.087-0.314,1.63-0.486    C-240.092-271.599-240.636-271.457-241.179-271.285L-241.179-271.285z M-239.006-271.914c0.6-0.2,1.2-0.371,1.8-0.571    C-237.806-272.285-238.406-272.114-239.006-271.914L-239.006-271.914z M-237.063-272.542c0.687-0.2,1.344-0.429,2.001-0.657    C-235.72-272.971-236.377-272.743-237.063-272.542L-237.063-272.542z M-234.662-273.342c0.543-0.172,1.086-0.372,1.6-0.543    C-233.576-273.714-234.119-273.514-234.662-273.342L-234.662-273.342z M-232.604-274.057c1.314-0.485,2.601-0.972,3.886-1.485    C-230.004-275.029-231.29-274.542-232.604-274.057L-232.604-274.057z M-228.318-275.714c0.571-0.229,1.114-0.457,1.657-0.715    C-227.204-276.171-227.747-275.943-228.318-275.714L-228.318-275.714z M-226.375-276.543c0.657-0.257,1.286-0.543,1.943-0.857    C-225.089-277.086-225.718-276.8-226.375-276.543L-226.375-276.543z M-224.289-277.458c0.572-0.257,1.172-0.543,1.772-0.829    C-223.117-278-223.717-277.715-224.289-277.458L-224.289-277.458z M-222.174-278.429c0.6-0.286,1.172-0.572,1.771-0.886    C-221.002-279.001-221.574-278.715-222.174-278.429L-222.174-278.429z M-220.316-279.344c0.657-0.314,1.286-0.657,1.915-0.972    C-219.03-280.001-219.659-279.658-220.316-279.344L-220.316-279.344z M-218.202-280.43c0.572-0.314,1.144-0.6,1.715-0.915    C-217.059-281.03-217.63-280.744-218.202-280.43L-218.202-280.43z M-216.259-281.487c1.258-0.657,2.486-1.372,3.716-2.115    C-213.772-282.859-215.001-282.145-216.259-281.487L-216.259-281.487z M-212.314-283.716c0.543-0.343,1.114-0.686,1.686-1.029    C-211.2-284.402-211.771-284.06-212.314-283.716L-212.314-283.716z M-210.485-284.831c1.229-0.771,2.429-1.543,3.629-2.343    C-208.057-286.374-209.257-285.603-210.485-284.831L-210.485-284.831z M-206.714-287.289c1.801-1.229,3.572-2.486,5.315-3.801    C-203.142-289.775-204.913-288.518-206.714-287.289L-206.714-287.289z M-201.313-291.147c17.747-13.46,31.636-31.75,39.723-52.898    h16.004c13.917,0,25.349,11.403,25.349,25.349v31.579c-16.976-13.432-37.923-22.005-60.728-23.577    C-186.967-303.407-193.797-296.862-201.313-291.147L-201.313-291.147z" fill="none" stroke="#000000" stroke-linecap="round" stroke-linejoin="round" stroke-miterlimit="10" stroke-width="20.1764"/>

<path d="    M-180.965-310.694C-123.667-306.722-78-258.596-78-200.325v158.354h-392.314v-158.354c0-58.5,46.01-106.769,103.651-110.427    c22.034,26.835,55.441,43.953,92.85,43.953C-236.405-266.798-202.998-283.888-180.965-310.694L-180.965-310.694z" fill="none" stroke="#000000" stroke-linecap="round" stroke-linejoin="round" stroke-miterlimit="10" stroke-width="20.1764"/>

<path d="    M-470.314-181.434v-18.891c0-13.003,2.286-25.521,6.458-37.151h34.865v56.042H-470.314z" fill="none" stroke="#000000" stroke-linecap="round" stroke-linejoin="round" stroke-miterlimit="10" stroke-width="20.1764"/>

<rect fill="none" height="89.394" stroke="#000000" stroke-linecap="round" stroke-linejoin="round" stroke-miterlimit="10" stroke-width="20.1764" width="168.123" x="-357.89" y="-186.978"/>

<line fill="none" stroke="#000000" stroke-linecap="round" stroke-linejoin="round" stroke-miterlimit="10" stroke-width="20.1764" x1="-357.89" x2="-189.767" y1="-156.085" y2="-156.085"/>

<line fill="none" stroke="#000000" stroke-linecap="round" stroke-linejoin="round" stroke-miterlimit="10" stroke-width="20.1764" x1="-234.806" x2="-234.806" y1="-133.394" y2="-133.623"/>

<line fill="none" stroke="#000000" stroke-linecap="round" stroke-linejoin="round" stroke-miterlimit="10" stroke-width="20.1764" x1="-357.89" x2="-273.843" y1="-129.393" y2="-129.393"/>

<line fill="none" stroke="#000000" stroke-linecap="round" stroke-linejoin="round" stroke-miterlimit="10" stroke-width="20.1764" x1="-398.041" x2="-398.041" y1="-149.398" y2="-46.258"/>

<line fill="none" stroke="#000000" stroke-linecap="round" stroke-linejoin="round" stroke-miterlimit="10" stroke-width="20.1764" x1="-148.958" x2="-148.958" y1="-149.398" y2="-44.943"/>

</g>

<g>

<path d="    M-276.237,481c123.228,0,223.764-100.539,223.764-223.769c0-123.259-100.536-223.77-223.764-223.77    C-399.492,33.462-500,133.972-500,257.231C-500,380.461-399.492,481-276.237,481L-276.237,481z" fill="none" stroke="#000000" stroke-linecap="round" stroke-linejoin="round" stroke-miterlimit="10" stroke-width="20.1764"/>

<path d="    M-119.746,97.306c41.495,40.61,67.272,97.252,67.272,159.925c0,0.942-0.029,1.886-0.058,2.857    c-0.285,12.604-2.429,33.694-6.229,49.898c-0.2,0.886-0.429,1.8-0.657,2.686l0,0l-80.618-16.518    c16.946,46.183,10.06,71.646-22.69,74.59c-34.607-3.001-69.187-20.806-103.794-58.386c-16.747,40.267-48.097,33.522-50.269,77.019    L-306.243,479l-0.029-0.028c-4.058-0.543-8.087-1.2-12.088-1.943l-0.686-0.144c-5.287-1.028-10.488-2.229-15.604-3.601l-0.657-0.2    c-5.144-1.4-10.203-2.972-15.204-4.715l-0.543-0.2c-5.001-1.772-9.945-3.744-14.774-5.858l-0.458-0.2    c-4.858-2.115-9.63-4.43-14.289-6.888l-0.372-0.2c-4.687-2.486-9.288-5.144-13.774-7.944l-0.257-0.172    c-4.487-2.829-8.888-5.802-13.174-8.945l-0.2-0.143c-4.315-3.144-8.516-6.459-12.574-9.917l-0.085-0.057    c-33.865-28.75-59.042-67.417-71.073-111.514h-0.029l71.559-62.358c47.553-12.146,59.442,14.889,89.191-9.717    c16.632-35.552-0.714-92.823-38.923-90.793l-58.384,16.204l-34.865-34.894c3.943-6.001,8.145-11.832,12.631-17.404l0.058-0.086    c1.314-1.629,2.629-3.229,3.972-4.801l0.143-0.171c0.886-1.029,1.772-2.058,2.687-3.086l0.372-0.429    c1.2-1.343,2.4-2.687,3.629-4.001c0.2-0.2,0.372-0.4,0.571-0.6c0.857-0.915,1.743-1.829,2.601-2.744    c0.286-0.286,0.543-0.543,0.8-0.8c1.029-1.029,2.029-2.058,3.058-3.086c0.4-0.372,0.8-0.743,1.172-1.143    c0.829-0.8,1.658-1.572,2.486-2.343c0.457-0.429,0.886-0.857,1.343-1.257c0.771-0.715,1.543-1.429,2.314-2.115    c0.629-0.571,1.286-1.143,1.915-1.686c0.743-0.686,1.515-1.314,2.257-1.972c0.657-0.543,1.286-1.086,1.915-1.629    c0.628-0.515,1.286-1.058,1.915-1.572c0.743-0.629,1.515-1.229,2.286-1.829c0.686-0.543,1.372-1.086,2.058-1.629    c0.829-0.658,1.686-1.315,2.543-1.943c0.486-0.372,1-0.743,1.486-1.115c0.886-0.657,1.772-1.314,2.658-1.943    c0.601-0.429,1.172-0.829,1.772-1.257c0.972-0.686,1.943-1.343,2.915-2.029c0.457-0.286,0.915-0.6,1.343-0.886    c1-0.686,2-1.343,3-1.972c0.514-0.343,1.029-0.657,1.543-1c1.058-0.686,2.144-1.372,3.258-2.029    c0.4-0.257,0.829-0.514,1.229-0.743c1.086-0.657,2.201-1.315,3.287-1.943c0.429-0.257,0.857-0.515,1.286-0.743    c1.2-0.686,2.429-1.372,3.629-2.058c0.371-0.171,0.743-0.372,1.086-0.572c1.2-0.628,2.4-1.286,3.601-1.886    c0.372-0.2,0.714-0.371,1.057-0.543c1.315-0.686,2.629-1.343,3.944-1.972c0.343-0.171,0.686-0.314,1.029-0.486    c1.257-0.6,2.543-1.2,3.83-1.8c0.286-0.114,0.571-0.257,0.886-0.4c1.372-0.628,2.772-1.229,4.201-1.829    c0.314-0.143,0.628-0.286,0.972-0.429c1.314-0.543,2.658-1.086,3.972-1.6c0.286-0.114,0.543-0.229,0.829-0.343    c25.663,17.833,46.811,43.811,55.813,91.623c29.178-3.258,50.468-43.354,82.36-21.348    C-185.703,138.173-151.009,118.197-119.746,97.306L-119.746,97.306z" fill="none" stroke="#000000" stroke-linecap="round" stroke-linejoin="round" stroke-miterlimit="10" stroke-width="20.1764"/>

</g>

<g>

<path d="    M258.5,84.109L258.5,84.109c77.218,0,140.402,63.187,140.402,140.435v108.913c0,13.718-2,27.007-5.715,39.581l9.059,2.144    c31.149,7.373,50.583,38.924,43.181,70.046l0,0c-7.401,31.15-38.923,50.584-70.072,43.21l-47.896-11.374    c-8.573-2.029-16.261-5.916-22.719-11.088c-14.518,5.115-30.063,7.887-46.239,7.887l0,0c-15.917,0-31.207-2.686-45.495-7.602    c-6.401,5.03-13.975,8.803-22.405,10.803l-47.896,11.374c-31.15,7.374-62.671-12.06-70.073-43.21l0,0    c-7.373-31.122,12.06-62.673,43.181-70.046l8.059-1.915c-3.772-12.632-5.801-26.007-5.801-39.81V224.544    C118.069,147.296,181.254,84.109,258.5,84.109L258.5,84.109z" fill="none" stroke="#000000" stroke-linecap="round" stroke-linejoin="round" stroke-miterlimit="10" stroke-width="20.1764"/>

<path d="    M259.585,304.563c34.979,0,63.5-28.521,63.5-63.501c0-34.951-28.521-63.473-63.5-63.473c-34.95,0-63.471,28.521-63.471,63.473    C196.115,276.042,224.635,304.563,259.585,304.563L259.585,304.563z" fill="none" stroke="#000000" stroke-linecap="round" stroke-linejoin="round" stroke-miterlimit="10" stroke-width="20.1764"/>

<path d="    M259.585,267.526c14.575,0,26.463-11.889,26.463-26.464c0-14.546-11.888-26.435-26.463-26.435    c-14.574,0-26.434,11.889-26.434,26.435C233.151,255.637,245.011,267.526,259.585,267.526L259.585,267.526z" fill="none" stroke="#000000" stroke-linecap="round" stroke-linejoin="round" stroke-miterlimit="10" stroke-width="20.1764"/>

<path d="    M187.284,161.271c47.925-30.464,95.821-28.292,143.746,0" fill="none" stroke="#000000" stroke-linecap="round" stroke-linejoin="round" stroke-miterlimit="10" stroke-width="20.1764"/>

<line fill="none" stroke="#000000" stroke-linecap="round" stroke-linejoin="round" stroke-miterlimit="10" stroke-width="20.1764" x1="159.078" x2="159.078" y1="70.22" y2="121.604"/>

<path d="    M160.65,68.791c12.631,0,22.948-10.288,22.948-22.92c0-12.631-10.316-22.92-22.948-22.92c-12.603,0-22.919,10.289-22.919,22.92    C137.73,58.503,148.047,68.791,160.65,68.791L160.65,68.791z" fill="none" stroke="#000000" stroke-linecap="round" stroke-linejoin="round" stroke-miterlimit="10" stroke-width="20.1764"/>

<line fill="none" stroke="#000000" stroke-linecap="round" stroke-linejoin="round" stroke-miterlimit="10" stroke-width="20.1764" x1="358.951" x2="358.951" y1="70.22" y2="121.604"/>

<path d="    M360.522,68.791c12.632,0,22.948-10.288,22.948-22.92c0-12.631-10.316-22.92-22.948-22.92c-12.603,0-22.919,10.289-22.919,22.92    C337.603,58.503,347.919,68.791,360.522,68.791L360.522,68.791z" fill="none" stroke="#000000" stroke-linecap="round" stroke-linejoin="round" stroke-miterlimit="10" stroke-width="20.1764"/>

<path d="    M314.626,342.087v1.743c0,31.465-25.748,57.242-57.212,57.242l0,0c-31.493,0-57.241-25.777-57.241-57.242v-1.743H314.626z" fill="none" stroke="#000000" stroke-linecap="round" stroke-linejoin="round" stroke-miterlimit="10" stroke-width="20.1764"/>

</g>

<g>

<path d="    M780.998,25h35.809c25.262,0,45.895,20.663,45.895,45.897v215.91l-2.457-3.429h-43.953v52.813h-35.293    c-0.6,0-1.199-0.028-1.771-0.057v-52.756h-43.953l-0.171,0.257V70.897C735.103,45.663,755.764,25,780.998,25L780.998,25z" fill="none" stroke="#000000" stroke-linecap="round" stroke-linejoin="round" stroke-miterlimit="10" stroke-width="20.1764"/>

<path d="    M772.053,97.761h54.269c3.086,0,5.602,2.515,5.602,5.602v24.063c0,3.058-2.516,5.602-5.602,5.602h-54.269    c-3.086,0-5.601-2.543-5.601-5.602v-24.063C766.452,100.276,768.967,97.761,772.053,97.761L772.053,97.761z" fill="none" stroke="#000000" stroke-linecap="round" stroke-linejoin="round" stroke-miterlimit="10" stroke-width="20.1764"/>

<polygon fill="none" points="    674.518,367.884 735.274,283.378 779.227,283.378 779.227,367.884   " stroke="#000000" stroke-linecap="round" stroke-linejoin="round" stroke-miterlimit="10" stroke-width="20.1764"/>

<polygon fill="none" points="    921,367.884 860.244,283.378 816.291,283.378 816.291,367.884   " stroke="#000000" stroke-linecap="round" stroke-linejoin="round" stroke-miterlimit="10" stroke-width="20.1764"/>

<line fill="none" stroke="#000000" stroke-linecap="round" stroke-linejoin="round" stroke-miterlimit="10" stroke-width="20.1764" x1="798.916" x2="798.717" y1="193.584" y2="246.769"/>

<line fill="none" stroke="#000000" stroke-linecap="round" stroke-linejoin="round" stroke-miterlimit="10" stroke-width="20.1764" x1="727.043" x2="727.043" y1="391.347" y2="462.994"/>

<line fill="none" stroke="#000000" stroke-linecap="round" stroke-linejoin="round" stroke-miterlimit="10" stroke-width="20.1764" x1="801.688" x2="801.688" y1="391.347" y2="449.276"/>

<line fill="none" stroke="#000000" stroke-linecap="round" stroke-linejoin="round" stroke-miterlimit="10" stroke-width="20.1764" x1="801.688" x2="801.688" y1="477.912" y2="491.916"/>

<line fill="none" stroke="#000000" stroke-linecap="round" stroke-linejoin="round" stroke-miterlimit="10" stroke-width="20.1764" x1="876.305" x2="876.305" y1="391.347" y2="462.994"/>

<line fill="none" stroke="#000000" stroke-linecap="round" stroke-linejoin="round" stroke-miterlimit="10" stroke-width="20.1764" x1="764.366" x2="764.366" y1="391.347" y2="399.378"/>

<line fill="none" stroke="#000000" stroke-linecap="round" stroke-linejoin="round" stroke-miterlimit="10" stroke-width="20.1764" x1="764.366" x2="764.366" y1="428.671" y2="480.426"/>

<line fill="none" stroke="#000000" stroke-linecap="round" stroke-linejoin="round" stroke-miterlimit="10" stroke-width="20.1764" x1="735.103" x2="862.701" y1="159.919" y2="159.919"/>

<line fill="none" stroke="#000000" stroke-linecap="round" stroke-linejoin="round" stroke-miterlimit="10" stroke-width="20.1764" x1="834.953" x2="834.953" y1="391.347" y2="399.378"/>

<line fill="none" stroke="#000000" stroke-linecap="round" stroke-linejoin="round" stroke-miterlimit="10" stroke-width="20.1764" x1="834.953" x2="834.953" y1="428.671" y2="480.426"/>

</g>

<g>

<path d="    M1438.128,22.896L1438.128,22.896c8.001-4.229,17.975-1.143,22.204,6.859l44.41,84.049c4.201,7.974,1.114,17.976-6.858,22.206l0,0    c-8.002,4.201-17.976,1.143-22.205-6.859l-44.41-84.049C1427.068,37.1,1430.154,27.126,1438.128,22.896L1438.128,22.896z" fill="none" stroke="#000000" stroke-linecap="round" stroke-linejoin="round" stroke-miterlimit="10" stroke-width="20.1478"/>

<polygon fill="none" points="    1188.673,193.824 1431.269,45.102 1475.679,129.151 1216.078,245.723   " stroke="#000000" stroke-linecap="round" stroke-linejoin="round" stroke-miterlimit="10" stroke-width="20.1478"/>

<path d="    M1157.523,224.718l37.094-19.605l16.604,31.408l-37.123,19.605c-0.027-0.114-0.085-0.2-0.143-0.286L1157.523,224.718z" fill="none" stroke="#000000" stroke-linecap="round" stroke-linejoin="round" stroke-miterlimit="10" stroke-width="20.1478"/>

<path d="    M1138.49,218.859L1138.49,218.859c6.859-3.629,15.403-1,19.033,5.859l16.432,31.122c3.629,6.859,1,15.433-5.858,19.033l0,0    c-6.858,3.63-15.403,0.972-19.032-5.858l-16.433-31.15C1129.002,231.034,1131.632,222.46,1138.49,218.859L1138.49,218.859z" fill="none" stroke="#000000" stroke-linecap="round" stroke-linejoin="round" stroke-miterlimit="10" stroke-width="20.1478"/>

<rect fill="none" height="34.551" stroke="#000000" stroke-linecap="round" stroke-linejoin="round" stroke-miterlimit="10" stroke-width="20.1478" width="61.699" x="1312.1" y="242.036"/>

<polyline fill="none" points="    1287.408,488.811 1342.936,276.587 1394.775,490.041   " stroke="#000000" stroke-linecap="round" stroke-linejoin="round" stroke-miterlimit="10" stroke-width="20.1478"/>

<line fill="none" stroke="#000000" stroke-linecap="round" stroke-linejoin="round" stroke-miterlimit="10" stroke-width="20.1478" x1="1342.649" x2="1342.649" y1="494.356" y2="287.047"/>

<line fill="none" stroke="#000000" stroke-linecap="round" stroke-linejoin="round" stroke-miterlimit="10" stroke-width="20.1478" x1="1342.649" x2="1342.649" y1="237.435" y2="194.91"/>

</g>

<g>

<path d="    M1853.079,163.991c71.759,0,129.914,58.157,129.914,129.889c0,40.725-18.747,77.048-48.039,100.854    c14.089-17.347,22.548-39.467,22.548-63.559c0-55.671-45.124-100.825-100.793-100.825c-55.698,0-100.822,45.154-100.822,100.825    c0,31.122,14.117,58.957,36.265,77.448c-41.009-21.834-68.957-65.017-68.957-114.743    C1723.194,222.148,1781.349,163.991,1853.079,163.991L1853.079,163.991z" fill="none" stroke="#000000" stroke-linecap="round" stroke-linejoin="round" stroke-miterlimit="10" stroke-width="20.1478"/>

<path d="    M1856.709,432c55.526,0,100.793-45.297,100.793-100.825c0-55.527-45.267-100.825-100.793-100.825s-100.822,45.297-100.822,100.825    C1755.887,386.703,1801.183,432,1856.709,432L1856.709,432z" fill="none" stroke="#000000" stroke-linecap="round" stroke-linejoin="round" stroke-miterlimit="10" stroke-width="20.1478"/>

<line fill="none" stroke="#000000" stroke-linecap="round" stroke-linejoin="round" stroke-miterlimit="10" stroke-width="20.1478" x1="1803.011" x2="1954.759" y1="254.642" y2="307.684"/>

<line fill="none" stroke="#000000" stroke-linecap="round" stroke-linejoin="round" stroke-miterlimit="10" stroke-width="20.1478" x1="1764.574" x2="1954.587" y1="290.137" y2="355.409"/>

<line fill="none" stroke="#000000" stroke-linecap="round" stroke-linejoin="round" stroke-miterlimit="10" stroke-width="20.1478" x1="1757.173" x2="1924.523" y1="347.293" y2="405.765"/>

<line fill="none" stroke="#000000" stroke-linecap="round" stroke-linejoin="round" stroke-miterlimit="10" stroke-width="20.1478" x1="1680.527" x2="1621" y1="286.106" y2="286.106"/>

<line fill="none" stroke="#000000" stroke-linecap="round" stroke-linejoin="round" stroke-miterlimit="10" stroke-width="20.1478" x1="1853.107" x2="1853.107" y1="71.14" y2="127.067"/>

<line fill="none" stroke="#000000" stroke-linecap="round" stroke-linejoin="round" stroke-miterlimit="10" stroke-width="20.1478" x1="2082.701" x2="2023.146" y1="286.335" y2="286.335"/>

<line fill="none" stroke="#000000" stroke-linecap="round" stroke-linejoin="round" stroke-miterlimit="10" stroke-width="20.1478" x1="1727.022" x2="1677.784" y1="182.596" y2="149.13"/>

<line fill="none" stroke="#000000" stroke-linecap="round" stroke-linejoin="round" stroke-miterlimit="10" stroke-width="20.1478" x1="1978.479" x2="2027.718" y1="182.596" y2="149.13"/>

</g>

</g>

</svg>