<?xml version="1.0" ?>

<!DOCTYPE svg  PUBLIC '-//W3C//DTD SVG 1.1//EN'  'http://www.w3.org/Graphics/SVG/1.1/DTD/svg11.dtd'>


<svg width="800px" height="800px" viewBox="0 0 512 512" enable-background="new 0 0 512 512" version="1.1" xml:space="preserve" xmlns="http://www.w3.org/2000/svg" xmlns:xlink="http://www.w3.org/1999/xlink">

<g id="_x30_1"/>

<g id="_x30_2"/>

<g id="_x30_3"/>

<g id="_x30_4"/>

<g id="_x30_5"/>

<g id="_x30_6"/>

<g id="_x30_7"/>

<g id="_x30_8"/>

<g id="_x30_9"/>

<g id="_x31_0"/>

<g id="_x31_1"/>

<g id="_x31_2"/>

<g id="_x31_3"/>

<g id="_x31_4"/>

<g id="_x31_5"/>

<g id="_x31_6"/>

<g id="_x31_7"/>

<g id="_x31_8"/>

<g id="_x31_9"/>

<g id="_x32_0"/>

<g id="_x32_1"/>

<g id="_x32_2"/>

<g id="_x32_3"/>

<g id="_x32_4"/>

<g id="_x32_5"/>

<g id="_x32_6"/>

<g id="_x32_7"/>

<g id="_x32_8"/>

<g id="_x32_9"/>

<g id="_x33_0"/>

<g id="_x33_1"/>

<g id="_x33_2"/>

<g id="_x33_3"/>

<g id="_x33_4"/>

<g id="_x33_5"/>

<g id="_x33_6"/>

<g id="_x33_7"/>

<g id="_x33_8"/>

<g id="_x33_9"/>

<g id="_x34_0"/>

<g id="_x34_1"/>

<g id="_x34_2"/>

<g id="_x34_3"/>

<g id="_x34_4"/>

<g id="_x34_5"/>

<g id="_x34_6"/>

<g id="_x34_7"/>

<g id="_x34_8"/>

<g id="_x34_9"/>

<g id="_x35_0">

<g>

<path d="    M-1333.499-151.602c-43.863,44.825-115.773,45.611-160.598,1.748c-44.853-43.864-45.64-115.777-1.776-160.603L-1333.499-151.602z" fill="none" stroke="#000000" stroke-linecap="round" stroke-linejoin="round" stroke-miterlimit="10" stroke-width="20.1478"/>

<path d="    M-1498.116-153.961l-39.523,86.971h97.337l-28.251-64.019c-9.145-4.952-17.766-11.214-25.543-18.845    C-1495.494-151.194-1496.805-152.563-1498.116-153.961L-1498.116-153.961z" fill="none" stroke="#000000" stroke-linecap="round" stroke-linejoin="round" stroke-miterlimit="10" stroke-width="20.1478"/>

<line fill="none" stroke="#000000" stroke-linecap="round" stroke-linejoin="round" stroke-miterlimit="10" stroke-width="20.1478" x1="-1362.129" x2="-1409.167" y1="-285.437" y2="-237.32"/>

<path d="    M-1128.397-131.33c-33.377,34.078-88.046,34.689-122.151,1.311c-34.106-33.35-34.718-88.048-1.34-122.156L-1128.397-131.33z" fill="none" stroke="#000000" stroke-linecap="round" stroke-linejoin="round" stroke-miterlimit="10" stroke-width="20.1478"/>

<path d="    M-1253.607-133.136l-30.058,66.146h74.037l-21.494-48.699c-6.961-3.757-13.515-8.535-19.427-14.33    C-1251.598-131.038-1252.617-132.087-1253.607-133.136L-1253.607-133.136z" fill="none" stroke="#000000" stroke-linecap="round" stroke-linejoin="round" stroke-miterlimit="10" stroke-width="20.1478"/>

<line fill="none" stroke="#000000" stroke-linecap="round" stroke-linejoin="round" stroke-miterlimit="10" stroke-width="20.1478" x1="-1150.183" x2="-1185.979" y1="-233.126" y2="-196.543"/>

<line fill="none" stroke="#000000" stroke-linecap="round" stroke-linejoin="round" stroke-miterlimit="10" stroke-width="20.1478" x1="-1473.476" x2="-1473.476" y1="-247.485" y2="-247.776"/>

<line fill="none" stroke="#000000" stroke-linecap="round" stroke-linejoin="round" stroke-miterlimit="10" stroke-width="20.1478" x1="-1445.952" x2="-1445.952" y1="-217.428" y2="-217.689"/>

<line fill="none" stroke="#000000" stroke-linecap="round" stroke-linejoin="round" stroke-miterlimit="10" stroke-width="20.1478" x1="-1417.729" x2="-1417.729" y1="-189.991" y2="-190.281"/>

<line fill="none" stroke="#000000" stroke-linecap="round" stroke-linejoin="round" stroke-miterlimit="10" stroke-width="20.1478" x1="-1391.633" x2="-1391.633" y1="-165.321" y2="-165.583"/>

<line fill="none" stroke="#000000" stroke-linecap="round" stroke-linejoin="round" stroke-miterlimit="10" stroke-width="20.1478" x1="-1227.977" x2="-1227.977" y1="-192.378" y2="-192.641"/>

<line fill="none" stroke="#000000" stroke-linecap="round" stroke-linejoin="round" stroke-miterlimit="10" stroke-width="20.1478" x1="-1195.881" x2="-1195.881" y1="-161.068" y2="-161.33"/>

<path d="    M-1186.706-369.029c28.863,0,52.397-23.534,52.397-52.398c0-28.864-23.534-52.398-52.397-52.398    c-28.864,0-52.426,23.534-52.426,52.398C-1239.132-392.563-1215.57-369.029-1186.706-369.029L-1186.706-369.029z" fill="none" stroke="#000000" stroke-linecap="round" stroke-linejoin="round" stroke-miterlimit="10" stroke-width="20.1478"/>

<line fill="none" stroke="#000000" stroke-linecap="round" stroke-linejoin="round" stroke-miterlimit="10" stroke-width="20.1478" x1="-1578.56" x2="-1100" y1="-67.369" y2="-66.612"/>

<line fill="none" stroke="#000000" stroke-linecap="round" stroke-linejoin="round" stroke-miterlimit="10" stroke-width="20.1478" x1="-1423.642" x2="-1423.642" y1="-457.398" y2="-457.66"/>

<line fill="none" stroke="#000000" stroke-linecap="round" stroke-linejoin="round" stroke-miterlimit="10" stroke-width="20.1478" x1="-1524.59" x2="-1524.59" y1="-458.417" y2="-458.709"/>

<line fill="none" stroke="#000000" stroke-linecap="round" stroke-linejoin="round" stroke-miterlimit="10" stroke-width="20.1478" x1="-1453.699" x2="-1453.699" y1="-391.893" y2="-392.155"/>

<line fill="none" stroke="#000000" stroke-linecap="round" stroke-linejoin="round" stroke-miterlimit="10" stroke-width="20.1478" x1="-1328.839" x2="-1328.839" y1="-479.737" y2="-480"/>

<line fill="none" stroke="#000000" stroke-linecap="round" stroke-linejoin="round" stroke-miterlimit="10" stroke-width="20.1478" x1="-1260.277" x2="-1260.277" y1="-321.757" y2="-322.02"/>

<line fill="none" stroke="#000000" stroke-linecap="round" stroke-linejoin="round" stroke-miterlimit="10" stroke-width="20.1478" x1="-1271.054" x2="-1351.207" y1="-454.573" y2="-365.185"/>

<line fill="none" stroke="#000000" stroke-linecap="round" stroke-linejoin="round" stroke-miterlimit="10" stroke-width="20.1478" x1="-1492.203" x2="-1543.085" y1="-432.233" y2="-373.66"/>

<line fill="none" stroke="#000000" stroke-linecap="round" stroke-linejoin="round" stroke-miterlimit="10" stroke-width="20.1478" x1="-1109.99" x2="-1143.892" y1="-338.214" y2="-301.223"/>

</g>

<g>

<path d="    M-809.01-239.838c22.682,0,41.177-18.497,41.177-41.179c0-22.682-18.496-41.179-41.177-41.179    c-22.683,0-41.178,18.497-41.178,41.179C-850.188-258.335-831.693-239.838-809.01-239.838L-809.01-239.838z" fill="none" stroke="#000000" stroke-linecap="round" stroke-linejoin="round" stroke-miterlimit="10" stroke-width="20.1764"/>

<path d="    M-971.318-190.465c15.141,0,27.492-12.351,27.492-27.492s-12.351-27.493-27.492-27.493c-15.17,0-27.521,12.351-27.521,27.493    S-986.488-190.465-971.318-190.465L-971.318-190.465z" fill="none" stroke="#000000" stroke-linecap="round" stroke-linejoin="round" stroke-miterlimit="10" stroke-width="20.1764"/>

<path d="    M-891.693-422.694c15.141,0,27.492-12.351,27.492-27.493c0-15.142-12.351-27.492-27.492-27.492s-27.491,12.35-27.491,27.492    C-919.185-435.045-906.834-422.694-891.693-422.694L-891.693-422.694z" fill="none" stroke="#000000" stroke-linecap="round" stroke-linejoin="round" stroke-miterlimit="10" stroke-width="20.1764"/>

<path d="    M-808.536-364.949c132.855,0,240.536,38.507,240.536,86.04c0,47.503-107.68,86.04-240.536,86.04    c-50.946,0-98.18-5.67-137.072-15.35c1.128-3.027,1.781-6.294,1.781-9.737c0-15.171-12.32-27.493-27.492-27.493    c-12.499,0-23.008,8.313-26.393,19.684c-32.183-14.607-51.391-33.073-51.391-53.144    C-1049.102-326.442-941.392-364.949-808.536-364.949L-808.536-364.949z" fill="none" stroke="#000000" stroke-linecap="round" stroke-linejoin="round" stroke-miterlimit="10" stroke-width="20.1764"/>

<path d="    M-864.588-445.614c40.525,12.647,90.877,57.359,130.48,120.449c56.765,90.375,70.006,184.222,29.6,209.577    c-40.405,25.384-119.199-27.314-175.934-117.688c-53.588-85.297-68.372-173.682-35.893-204.678    c4.513,9.056,13.834,15.261,24.641,15.261C-878.096-422.694-866.785-432.611-864.588-445.614L-864.588-445.614z" fill="none" stroke="#000000" stroke-linecap="round" stroke-linejoin="round" stroke-miterlimit="10" stroke-width="20.1764"/>

</g>

<g>

<path d="    M-313.059-125.173c77.058,0,139.925-62.869,139.925-139.928c0-77.059-62.867-139.899-139.925-139.899    c-77.057,0-139.894,62.84-139.894,139.899C-452.953-188.042-390.116-125.173-313.059-125.173L-313.059-125.173z" fill="none" stroke="#000000" stroke-linecap="round" stroke-linejoin="round" stroke-miterlimit="10" stroke-width="20.1764"/>

<path d="    M-188.791-331.231c89.13,7.609,152.321,26.617,152.321,48.856c0,8.284-8.754,16.128-24.384,23.091 M-129.303-240.894    c-40.364,6.846-90.981,10.929-145.946,10.929c-131.847,0-238.751-23.473-238.751-52.41c0-14.689,27.585-27.969,71.975-37.487" fill="none" stroke="#000000" stroke-linecap="round" stroke-linejoin="round" stroke-miterlimit="10" stroke-width="20.1764"/>

<path d="    M-94.813-209.987c17.567,0,31.875-14.308,31.875-31.876c0-17.539-14.308-31.875-31.875-31.875s-31.874,14.336-31.874,31.875    C-126.688-224.295-112.381-209.987-94.813-209.987L-94.813-209.987z" fill="none" stroke="#000000" stroke-linecap="round" stroke-linejoin="round" stroke-miterlimit="10" stroke-width="20.1764"/>

<path d="    M-196.136-190.01c-31.141,12.486-74.854,20.271-123.268,20.271c-38.955,0-74.883-5.023-103.615-13.514" fill="none" stroke="#000000" stroke-linecap="round" stroke-linejoin="round" stroke-miterlimit="10" stroke-width="20.1764"/>

<path d="    M-176.952-298.034c-31.259,15.688-80.348,25.794-135.549,25.794c-54.758,0-103.496-9.959-134.782-25.412" fill="none" stroke="#000000" stroke-linecap="round" stroke-linejoin="round" stroke-miterlimit="10" stroke-width="20.1764"/>

<path d="    M-231.419-376.65c-23.384,4.613-49.883,7.257-77.968,7.257c-30.522,0-59.166-3.114-83.959-8.52" fill="none" stroke="#000000" stroke-linecap="round" stroke-linejoin="round" stroke-miterlimit="10" stroke-width="20.1764"/>

</g>

<g>

<path d="    M257.394-307.521c129.086,0,234.366-20.577,234.366-45.754c0-25.206-105.28-45.754-234.366-45.754    C128.279-399.029,23-378.481,23-353.275C23-328.098,128.279-307.521,257.394-307.521L257.394-307.521z" fill="none" stroke="#000000" stroke-linecap="round" stroke-linejoin="round" stroke-miterlimit="10" stroke-width="20.1478"/>

<polygon fill="none" points="    99.559,-46.799 398.71,-46.799 291.544,-253.507 202.01,-253.507   " stroke="#000000" stroke-linecap="round" stroke-linejoin="round" stroke-miterlimit="10" stroke-width="20.1478"/>

<line fill="none" stroke="#000000" stroke-linecap="round" stroke-linejoin="round" stroke-miterlimit="10" stroke-width="20.1478" x1="214.984" x2="187.893" y1="-164.972" y2="-46.799"/>

<line fill="none" stroke="#000000" stroke-linecap="round" stroke-linejoin="round" stroke-miterlimit="10" stroke-width="20.1478" x1="228.416" x2="222.872" y1="-227.501" y2="-203.295"/>

<line fill="none" stroke="#000000" stroke-linecap="round" stroke-linejoin="round" stroke-miterlimit="10" stroke-width="20.1478" x1="273.283" x2="287.343" y1="-227.501" y2="-173.602"/>

<line fill="none" stroke="#000000" stroke-linecap="round" stroke-linejoin="round" stroke-miterlimit="10" stroke-width="20.1478" x1="197.638" x2="197.638" y1="-433.667" y2="-433.952"/>

<line fill="none" stroke="#000000" stroke-linecap="round" stroke-linejoin="round" stroke-miterlimit="10" stroke-width="20.1478" x1="258.108" x2="258.108" y1="-433.667" y2="-433.952"/>

<line fill="none" stroke="#000000" stroke-linecap="round" stroke-linejoin="round" stroke-miterlimit="10" stroke-width="20.1478" x1="318.607" x2="318.607" y1="-433.667" y2="-433.952"/>

<path d="    M155.199-467.503H359.53v73.047c-30.864-3.887-65.528-6.059-102.137-6.059c-36.636,0-71.302,2.172-102.194,6.059V-467.503z" fill="none" stroke="#000000" stroke-linecap="round" stroke-linejoin="round" stroke-miterlimit="10" stroke-width="20.1478"/>

<path d="    M257.565-512c30.949,0,57.612,18.205,69.9,44.497H187.664C199.953-493.795,226.645-512,257.565-512L257.565-512z" fill="none" stroke="#000000" stroke-linecap="round" stroke-linejoin="round" stroke-miterlimit="10" stroke-width="20.1478"/>

<line fill="none" stroke="#000000" stroke-linecap="round" stroke-linejoin="round" stroke-miterlimit="10" stroke-width="20.1478" x1="361.56" x2="384.25" y1="-425.293" y2="-425.293"/>

<line fill="none" stroke="#000000" stroke-linecap="round" stroke-linejoin="round" stroke-miterlimit="10" stroke-width="20.1478" x1="132.852" x2="155.543" y1="-425.293" y2="-425.293"/>

<line fill="none" stroke="#000000" stroke-linecap="round" stroke-linejoin="round" stroke-miterlimit="10" stroke-width="20.1478" x1="194.065" x2="320.693" y1="-353.275" y2="-353.275"/>

<line fill="none" stroke="#000000" stroke-linecap="round" stroke-linejoin="round" stroke-miterlimit="10" stroke-width="20.1478" x1="293.431" x2="295.802" y1="-146.825" y2="-137.737"/>

</g>

<g>

<path d="    M787.136-96.278c30.578,0,55.556-24.949,55.556-55.557c0-30.579-24.978-55.527-55.556-55.527    c-30.606,0-55.555,24.948-55.555,55.527C731.581-121.227,756.529-96.278,787.136-96.278L787.136-96.278z" fill="none" stroke="#000000" stroke-linecap="round" stroke-linejoin="round" stroke-miterlimit="10" stroke-width="20.1764"/>

<path d="    M722.408-477L722.408-477c14.631,0,26.634,11.975,26.634,26.635v82.306l0.086,75.533c-0.058,16.204,45.724,14.861,45.724,0.257    l-0.028-75.79h37.637v-26.807c0-12.403,10.146-22.548,22.548-22.548l0,0c12.403,0,22.548,10.146,22.548,22.548v28.55v0.114v29.979    v180.273c0,50.498-41.295,91.794-91.792,91.794l0,0c-50.496,0-91.819-41.296-91.819-91.794v-210.251l-0.058-84.364    C693.887-465.197,707.775-477,722.408-477L722.408-477z" fill="none" stroke="#000000" stroke-linecap="round" stroke-linejoin="round" stroke-miterlimit="10" stroke-width="20.1764"/>

<line fill="none" stroke="#000000" stroke-linecap="round" stroke-linejoin="round" stroke-miterlimit="10" stroke-width="20.1764" x1="838.947" x2="838.947" y1="-285.553" y2="-236.883"/>

<line fill="none" stroke="#000000" stroke-linecap="round" stroke-linejoin="round" stroke-miterlimit="10" stroke-width="20.1764" x1="796.71" x2="796.71" y1="-252.516" y2="-175.383"/>

<line fill="none" stroke="#000000" stroke-linecap="round" stroke-linejoin="round" stroke-miterlimit="10" stroke-width="20.1764" x1="735.496" x2="735.496" y1="-252.516" y2="-173.525"/>

<line fill="none" stroke="#000000" stroke-linecap="round" stroke-linejoin="round" stroke-miterlimit="10" stroke-width="20.1764" x1="838.947" x2="838.947" y1="-334.536" y2="-318.618"/>

<line fill="none" stroke="#000000" stroke-linecap="round" stroke-linejoin="round" stroke-miterlimit="10" stroke-width="20.1764" x1="763.816" x2="763.816" y1="-163.609" y2="-163.894"/>

<path d="    M1020.073-320.762v158.839c0,23.749-22.148,43.153-49.24,43.153l0,0c-27.091,0-49.239-19.404-49.239-43.153v-139.949v-0.057    v-65.645c0-8.573,8.002-15.604,17.805-15.604l0,0c9.802,0,17.832,7.03,17.832,15.604v37.581c-0.028,0.314-0.028,0.6-0.028,0.915    v65.645c0,8.573,7.001,15.604,15.604,15.604l0,0c8.573,0,15.604-7.03,15.604-15.604v-57.329    C988.38-336.28,1020.073-336.166,1020.073-320.762L1020.073-320.762z" fill="none" stroke="#000000" stroke-linecap="round" stroke-linejoin="round" stroke-miterlimit="10" stroke-width="20.1764"/>

<path d="    M969.776-151.492c9.859,0,17.89-8.059,17.89-17.918c0-9.86-8.03-17.891-17.89-17.891s-17.919,8.03-17.919,17.891    C951.857-159.55,959.917-151.492,969.776-151.492L969.776-151.492z" fill="none" stroke="#000000" stroke-linecap="round" stroke-linejoin="round" stroke-miterlimit="10" stroke-width="20.1764"/>

<path d="    M649.135-393.751v150.18c0,22.462-20.977,40.81-46.582,40.81l0,0c-25.605,0-46.553-18.348-46.553-40.81v-132.347v-0.057v-62.072    c0-8.117,7.572-14.747,16.832-14.747l0,0c9.26,0,16.861,6.63,16.861,14.747v35.551c-0.029,0.286-0.029,0.572-0.029,0.857v62.072    c0,8.117,6.631,14.747,14.746,14.747l0,0c8.116,0,14.775-6.63,14.775-14.747v-54.185    C619.156-408.469,649.135-408.326,649.135-393.751L649.135-393.751z" fill="none" stroke="#000000" stroke-linecap="round" stroke-linejoin="round" stroke-miterlimit="10" stroke-width="20.1764"/>

<line fill="none" stroke="#000000" stroke-linecap="round" stroke-linejoin="round" stroke-miterlimit="10" stroke-width="20.1764" x1="601.124" x2="601.124" y1="-237.656" y2="-237.941"/>

<line fill="none" stroke="#000000" stroke-linecap="round" stroke-linejoin="round" stroke-miterlimit="10" stroke-width="20.1764" x1="602.953" x2="602.953" y1="-284.152" y2="-268.263"/>

<line fill="none" stroke="#000000" stroke-linecap="round" stroke-linejoin="round" stroke-miterlimit="10" stroke-width="20.1764" x1="949.028" x2="949.028" y1="-226.938" y2="-210.677"/>

<line fill="none" stroke="#000000" stroke-linecap="round" stroke-linejoin="round" stroke-miterlimit="10" stroke-width="20.1764" x1="993.267" x2="993.267" y1="-217.307" y2="-210.706"/>

</g>

<g>

<polygon fill="none" points="    768.477,210.991 811.942,284.037 708.377,345.681 664.91,272.606   " stroke="#000000" stroke-linecap="round" stroke-linejoin="round" stroke-miterlimit="10" stroke-width="20.1478"/>

<polygon fill="none" points="    692.373,127.285 731.439,192.958 688.916,218.25 649.85,152.605   " stroke="#000000" stroke-linecap="round" stroke-linejoin="round" stroke-miterlimit="10" stroke-width="20.1478"/>

<polygon fill="none" points="    809.856,324.733 848.922,390.406 806.398,415.698 767.333,350.054   " stroke="#000000" stroke-linecap="round" stroke-linejoin="round" stroke-miterlimit="10" stroke-width="20.1478"/>

<path d="    M832.404,192.043l26.406,44.382c5.286,8.917,2.343,20.52-6.545,25.835l0,0c-8.916,5.287-20.519,2.343-25.834-6.573l-26.406-44.382    c-5.286-8.888-2.343-20.52,6.545-25.806l0,0C815.486,180.183,827.089,183.155,832.404,192.043L832.404,192.043z" fill="none" stroke="#000000" stroke-linecap="round" stroke-linejoin="round" stroke-miterlimit="10" stroke-width="20.1478"/>

<line fill="none" stroke="#000000" stroke-linecap="round" stroke-linejoin="round" stroke-miterlimit="10" stroke-width="20.1478" x1="711.578" x2="729.182" y1="204.789" y2="234.368"/>

<line fill="none" stroke="#000000" stroke-linecap="round" stroke-linejoin="round" stroke-miterlimit="10" stroke-width="20.1478" x1="772.648" x2="789.967" y1="307.443" y2="336.564"/>

<path d="    M774.791,482c121.627,0,220.792-99.195,220.792-220.797c0-121.63-99.165-220.797-220.792-220.797    C653.193,40.406,554,139.573,554,261.203C554,382.805,653.193,482,774.791,482L774.791,482z" fill="none" stroke="#000000" stroke-linecap="round" stroke-linejoin="round" stroke-miterlimit="10" stroke-width="20.1478"/>

<path d="    M943.286,61.268c130.828-74.104,88.505,26.378-71.616,126.832" fill="none" stroke="#000000" stroke-linecap="round" stroke-linejoin="round" stroke-miterlimit="10" stroke-width="20.1478"/>

</g>

<g>

<line fill="none" stroke="#000000" stroke-linecap="round" stroke-linejoin="round" stroke-miterlimit="10" stroke-width="20.1764" x1="123.622" x2="213.014" y1="372.869" y2="372.468"/>

<line fill="none" stroke="#000000" stroke-linecap="round" stroke-linejoin="round" stroke-miterlimit="10" stroke-width="20.1764" x1="245.764" x2="302.005" y1="361.066" y2="301.565"/>

<path d="    M39.176,298.879c10.002,0,18.146-8.174,18.146-18.177c0-10.002-8.145-18.146-18.146-18.146c-10.03,0-18.176,8.145-18.176,18.146    C21,290.706,29.146,298.879,39.176,298.879L39.176,298.879z" fill="none" stroke="#000000" stroke-linecap="round" stroke-linejoin="round" stroke-miterlimit="10" stroke-width="20.1764"/>

<line fill="none" stroke="#000000" stroke-linecap="round" stroke-linejoin="round" stroke-miterlimit="10" stroke-width="20.1764" x1="326.781" x2="313.836" y1="131.724" y2="263.184"/>

<line fill="none" stroke="#000000" stroke-linecap="round" stroke-linejoin="round" stroke-miterlimit="10" stroke-width="20.1764" x1="392.311" x2="328.782" y1="184.336" y2="269.9"/>

<line fill="none" stroke="#000000" stroke-linecap="round" stroke-linejoin="round" stroke-miterlimit="10" stroke-width="20.1764" x1="453.209" x2="333.469" y1="270.672" y2="285.905"/>

<line fill="none" stroke="#000000" stroke-linecap="round" stroke-linejoin="round" stroke-miterlimit="10" stroke-width="20.1764" x1="49.949" x2="87.386" y1="298.679" y2="350.463"/>

<path d="    M102.532,385.243c10.031,0,18.176-8.145,18.176-18.176c0-10.002-8.145-18.147-18.176-18.147c-10.002,0-18.146,8.146-18.146,18.147    C84.386,377.098,92.53,385.243,102.532,385.243L102.532,385.243z" fill="none" stroke="#000000" stroke-linecap="round" stroke-linejoin="round" stroke-miterlimit="10" stroke-width="20.1764"/>

<path d="    M231.161,390.073c10.002,0,18.175-8.174,18.175-18.176c0-10.003-8.173-18.176-18.175-18.176c-10.003,0-18.147,8.173-18.147,18.176    C213.014,381.899,221.158,390.073,231.161,390.073L231.161,390.073z" fill="none" stroke="#000000" stroke-linecap="round" stroke-linejoin="round" stroke-miterlimit="10" stroke-width="20.1764"/>

<path d="    M315.322,304.081c10.002,0,18.146-8.174,18.146-18.176c0-10.003-8.145-18.177-18.146-18.177c-10.003,0-18.176,8.174-18.176,18.177    C297.146,295.907,305.319,304.081,315.322,304.081L315.322,304.081z" fill="none" stroke="#000000" stroke-linecap="round" stroke-linejoin="round" stroke-miterlimit="10" stroke-width="20.1764"/>

<path d="    M471.07,284.79c10.002,0,18.176-8.173,18.176-18.176c0-10.002-8.174-18.176-18.176-18.176s-18.146,8.174-18.146,18.176    C452.924,276.617,461.068,284.79,471.07,284.79L471.07,284.79z" fill="none" stroke="#000000" stroke-linecap="round" stroke-linejoin="round" stroke-miterlimit="10" stroke-width="20.1764"/>

<path d="    M405.398,187.68c10.003,0,18.147-8.173,18.147-18.176s-8.145-18.176-18.147-18.176c-10.03,0-18.175,8.174-18.175,18.176    S395.368,187.68,405.398,187.68L405.398,187.68z" fill="none" stroke="#000000" stroke-linecap="round" stroke-linejoin="round" stroke-miterlimit="10" stroke-width="20.1764"/>

<path d="    M328.296,131.323c10.002,0,18.147-8.145,18.147-18.147c0-10.031-8.146-18.176-18.147-18.176s-18.175,8.145-18.175,18.176    C310.121,123.179,318.294,131.323,328.296,131.323L328.296,131.323z" fill="none" stroke="#000000" stroke-linecap="round" stroke-linejoin="round" stroke-miterlimit="10" stroke-width="20.1764"/>

</g>

<g>

<path d="    M-276.246,28C-156.82,28-60,117.165-60,227.192c0,96.166-101.707,259.864-214.361,259.864    c-111.081,0-218.133-163.841-218.133-259.864C-492.494,117.165-395.673,28-276.246,28L-276.246,28z" fill="none" stroke="#000000" stroke-linecap="round" stroke-linejoin="round" stroke-miterlimit="10" stroke-width="20.1764"/>

<path d="    M-349.434,197.441c32.179,27.292,49.268,59.987,38.18,73.076c-11.089,13.06-46.153,1.543-78.331-25.75    c-32.15-27.292-49.24-60.015-38.18-73.075C-416.677,158.604-381.613,170.149-349.434,197.441L-349.434,197.441z" fill="none" stroke="#000000" stroke-linecap="round" stroke-linejoin="round" stroke-miterlimit="10" stroke-width="20.1764"/>

<path d="    M-208.09,197.441c-32.178,27.292-49.268,59.987-38.18,73.076c11.09,13.06,46.154,1.543,78.303-25.75    c32.18-27.292,49.27-60.015,38.182-73.075C-140.875,158.604-175.939,170.149-208.09,197.441L-208.09,197.441z" fill="none" stroke="#000000" stroke-linecap="round" stroke-linejoin="round" stroke-miterlimit="10" stroke-width="20.1764"/>

<line fill="none" stroke="#000000" stroke-linecap="round" stroke-linejoin="round" stroke-miterlimit="10" stroke-width="20.1764" x1="-308.511" x2="-308.511" y1="346.107" y2="345.849"/>

<line fill="none" stroke="#000000" stroke-linecap="round" stroke-linejoin="round" stroke-miterlimit="10" stroke-width="20.1764" x1="-248.012" x2="-248.012" y1="346.107" y2="345.849"/>

</g>

<g>

<path d="    M-880.498,111.011c39.38,9.459,82.647,26.006,125.885,49.298c126.284,67.96,204.673,167.584,175.124,222.512    c-16.29,30.265-61.928,40.639-120.741,32.522 M-765.758,400.168c-30.864-9.745-63.385-23.435-95.907-40.953    c-126.256-67.96-204.673-167.584-175.096-222.512c16.775-31.151,64.671-41.239,126.028-31.722" fill="none" stroke="#000000" stroke-linecap="round" stroke-linejoin="round" stroke-miterlimit="10" stroke-width="20.1764"/>

<path d="    M-940.768,229.583c-10.974-15.976-14.746-30.179-9.288-40.324c14.604-27.121,89.906-14.975,168.208,27.149    c26.406,14.204,49.754,30.007,68.559,45.754 M-692.056,281.882c22.747,23.806,33.121,45.84,25.491,59.986    c-14.604,27.149-89.906,15.003-168.208-27.15c-37.637-20.262-69.129-43.782-90.048-65.759" fill="none" stroke="#000000" stroke-linecap="round" stroke-linejoin="round" stroke-miterlimit="10" stroke-width="20.1764"/>

<path d="    M-796.422,243.472c12.231,6.573,16.804,21.777,10.23,33.98c-6.572,12.231-21.805,16.775-34.007,10.23    c-12.203-6.572-16.775-21.805-10.202-34.008C-823.828,241.472-808.625,236.899-796.422,243.472L-796.422,243.472z" fill="none" stroke="#000000" stroke-linecap="round" stroke-linejoin="round" stroke-miterlimit="10" stroke-width="20.1764"/>

<line fill="none" stroke="#000000" stroke-linecap="round" stroke-linejoin="round" stroke-miterlimit="10" stroke-width="20.1764" x1="-735.237" x2="-735.151" y1="409.313" y2="409.142"/>

</g>

<g>

<path d="    M-1337.813,265.202c66.157,0,120.111-53.956,120.111-120.115c0-66.131-53.954-120.087-120.111-120.087    c-66.129,0-120.084,53.956-120.084,120.087C-1457.897,211.246-1403.943,265.202-1337.813,265.202L-1337.813,265.202z" fill="none" stroke="#000000" stroke-linecap="round" stroke-linejoin="round" stroke-miterlimit="10" stroke-width="20.1764"/>

<path d="    M-1266.112,241.453c-20.005,14.918-44.81,23.749-71.701,23.749c-26.863,0-51.669-8.83-71.673-23.749    c21.376-4.772,45.781-7.516,71.702-7.516C-1311.894,233.937-1287.488,236.681-1266.112,241.453L-1266.112,241.453z" fill="none" stroke="#000000" stroke-linecap="round" stroke-linejoin="round" stroke-miterlimit="10" stroke-width="20.1764"/>

<path d="    M-1272.399,99.847c10.06,13.546,16.003,30.322,16.003,48.469c0,15.375-4.286,29.75-11.688,42.011h-139.431    c-7.43-12.26-11.688-26.635-11.688-42.011c0-18.147,5.944-34.923,16.003-48.469H-1272.399z" fill="none" stroke="#000000" stroke-linecap="round" stroke-linejoin="round" stroke-miterlimit="10" stroke-width="20.1764"/>

<path d="    M-1383.281,131.455c-5.287,6.944-5.229,11.688-1.657,20.062" fill="none" stroke="#000000" stroke-linecap="round" stroke-linejoin="round" stroke-miterlimit="10" stroke-width="20.1764"/>

<path d="    M-1295.376,32.716c-10.517,12.203-26.12,19.948-43.495,19.948c-17.09,0-32.436-7.488-42.953-19.348    c13.632-5.373,28.492-8.316,44.01-8.316C-1322.868,25-1308.579,27.744-1295.376,32.716L-1295.376,32.716z" fill="none" stroke="#000000" stroke-linecap="round" stroke-linejoin="round" stroke-miterlimit="10" stroke-width="20.1764"/>

<path d="    M-1466.014,187.955h16.004c6.715,17.633,17.518,33.265,31.207,45.783c-4.258-3.858-8.202-8.031-11.86-12.489    c-22.748,1.429-43.667,9.831-60.699,23.063v-31.007C-1491.362,199.357-1479.959,187.955-1466.014,187.955L-1466.014,187.955z     M-1418.803,233.766c1.086,0.972,2.201,1.943,3.315,2.915C-1416.603,235.709-1417.717,234.737-1418.803,233.766L-1418.803,233.766    z M-1415.431,236.738c0.543,0.458,1.086,0.915,1.629,1.343C-1414.345,237.652-1414.888,237.195-1415.431,236.738    L-1415.431,236.738z M-1413.745,238.138c1.115,0.915,2.258,1.8,3.401,2.687C-1411.487,239.938-1412.63,239.053-1413.745,238.138    L-1413.745,238.138z M-1410.173,240.939c0.572,0.429,1.143,0.857,1.686,1.257C-1409.03,241.796-1409.601,241.368-1410.173,240.939    L-1410.173,240.939z M-1408.458,242.225c0.6,0.429,1.2,0.857,1.8,1.286C-1407.258,243.083-1407.858,242.654-1408.458,242.225    L-1408.458,242.225z M-1406.629,243.511c0.543,0.4,1.114,0.8,1.686,1.171C-1405.515,244.311-1406.086,243.911-1406.629,243.511    L-1406.629,243.511z M-1404.714,244.854c1.172,0.772,2.372,1.543,3.572,2.287    C-1402.342,246.397-1403.542,245.626-1404.714,244.854L-1404.714,244.854z M-1400.914,247.283    c0.543,0.343,1.058,0.657,1.601,0.972C-1399.856,247.94-1400.371,247.626-1400.914,247.283L-1400.914,247.283z M-1399.027,248.426    c1.2,0.715,2.4,1.4,3.629,2.086C-1396.627,249.827-1397.827,249.141-1399.027,248.426L-1399.027,248.426z M-1395.055,250.684    c0.515,0.286,1.058,0.572,1.601,0.857C-1393.998,251.256-1394.541,250.97-1395.055,250.684L-1395.055,250.684z M-1393.198,251.685    c0.629,0.314,1.258,0.657,1.886,0.972C-1391.94,252.342-1392.569,251.999-1393.198,251.685L-1393.198,251.685z M-1391.14,252.713    c0.543,0.286,1.115,0.571,1.687,0.829C-1390.025,253.285-1390.597,252.999-1391.14,252.713L-1391.14,252.713z M-1389.054,253.742    c0.571,0.257,1.143,0.543,1.715,0.8C-1387.911,254.285-1388.482,254-1389.054,253.742L-1389.054,253.742z M-1387.167,254.6    c0.628,0.286,1.286,0.571,1.915,0.857C-1385.882,255.171-1386.539,254.885-1387.167,254.6L-1387.167,254.6z M-1384.91,255.6    c0.543,0.229,1.058,0.457,1.601,0.657C-1383.853,256.057-1384.367,255.829-1384.91,255.6L-1384.91,255.6z M-1382.881,256.458    c1.286,0.514,2.572,1,3.858,1.485C-1380.309,257.458-1381.595,256.971-1382.881,256.458L-1382.881,256.458z M-1378.537,258.115    c0.514,0.171,1.029,0.371,1.543,0.543C-1377.508,258.486-1378.023,258.286-1378.537,258.115L-1378.537,258.115z M-1376.537,258.8    c0.657,0.229,1.314,0.457,1.972,0.657C-1375.222,259.257-1375.879,259.029-1376.537,258.8L-1376.537,258.8z M-1374.365,259.515    c0.6,0.2,1.171,0.371,1.772,0.543C-1373.193,259.886-1373.765,259.715-1374.365,259.515L-1374.365,259.515z M-1372.05,260.229    c0.543,0.172,1.086,0.314,1.629,0.486C-1370.964,260.543-1371.507,260.401-1372.05,260.229L-1372.05,260.229z M-1370.05,260.801    c0.658,0.2,1.315,0.371,2,0.543C-1368.735,261.172-1369.392,261.001-1370.05,260.801L-1370.05,260.801z M-1367.621,261.458    c0.543,0.143,1.058,0.257,1.601,0.399C-1366.563,261.715-1367.078,261.601-1367.621,261.458L-1367.621,261.458z     M-1365.449,262.001c0.6,0.143,1.2,0.285,1.801,0.399C-1364.249,262.287-1364.849,262.144-1365.449,262.001L-1365.449,262.001z     M-1363.419,262.458c0.686,0.143,1.343,0.286,2.029,0.429C-1362.076,262.745-1362.734,262.601-1363.419,262.458L-1363.419,262.458    z M-1360.848,262.973c0.543,0.114,1.058,0.2,1.572,0.314C-1359.79,263.173-1360.305,263.087-1360.848,262.973L-1360.848,262.973z     M-1358.704,263.373c0.686,0.115,1.372,0.229,2.058,0.344C-1357.333,263.602-1358.019,263.488-1358.704,263.373L-1358.704,263.373    z M-1356.475,263.745c0.628,0.114,1.257,0.2,1.886,0.286C-1355.218,263.945-1355.847,263.859-1356.475,263.745L-1356.475,263.745z     M-1353.989,264.116c0.543,0.058,1.086,0.144,1.657,0.2C-1352.903,264.259-1353.446,264.173-1353.989,264.116L-1353.989,264.116z     M-1351.846,264.374c0.686,0.086,1.372,0.171,2.086,0.229C-1350.474,264.544-1351.16,264.459-1351.846,264.374L-1351.846,264.374z     M-1349.359,264.63c0.572,0.058,1.143,0.114,1.743,0.172C-1348.216,264.745-1348.788,264.688-1349.359,264.63L-1349.359,264.63z     M-1347.016,264.831c0.6,0.057,1.2,0.086,1.8,0.143C-1345.816,264.917-1346.416,264.887-1347.016,264.831L-1347.016,264.831z     M-1344.873,265.002c0.686,0.028,1.4,0.057,2.115,0.085C-1343.472,265.059-1344.187,265.031-1344.873,265.002L-1344.873,265.002z     M-1342.187,265.117c0.543,0.028,1.086,0.028,1.629,0.057C-1341.101,265.145-1341.644,265.145-1342.187,265.117L-1342.187,265.117    z M-1339.958,265.173c0.714,0,1.429,0.028,2.144,0.028c0.714,0,1.429-0.028,2.143-0.028c-0.714,0-1.429,0.028-2.143,0.028    C-1338.528,265.202-1339.243,265.173-1339.958,265.173L-1339.958,265.173z M-1335.042,265.173    c0.543-0.028,1.086-0.028,1.629-0.057C-1333.956,265.145-1334.499,265.145-1335.042,265.173L-1335.042,265.173z     M-1332.842,265.087c0.715-0.028,1.43-0.057,2.115-0.085C-1331.412,265.031-1332.127,265.059-1332.842,265.087L-1332.842,265.087z     M-1330.384,264.973c0.601-0.028,1.2-0.086,1.801-0.143C-1329.184,264.887-1329.783,264.945-1330.384,264.973L-1330.384,264.973z     M-1327.983,264.802c0.571-0.058,1.144-0.114,1.743-0.172C-1326.84,264.688-1327.412,264.745-1327.983,264.802L-1327.983,264.802z     M-1325.84,264.602c0.686-0.058,1.4-0.143,2.086-0.229C-1324.439,264.459-1325.154,264.544-1325.84,264.602L-1325.84,264.602z     M-1323.239,264.316c0.543-0.057,1.086-0.143,1.629-0.2C-1322.153,264.173-1322.696,264.259-1323.239,264.316L-1323.239,264.316z     M-1321.039,264.031c0.657-0.086,1.314-0.2,1.972-0.286C-1319.725,263.831-1320.382,263.945-1321.039,264.031L-1321.039,264.031z     M-1318.953,263.716c0.687-0.114,1.372-0.229,2.058-0.344C-1317.581,263.488-1318.267,263.602-1318.953,263.716L-1318.953,263.716    z M-1316.353,263.288c0.515-0.114,1.058-0.2,1.601-0.314C-1315.295,263.087-1315.838,263.173-1316.353,263.288L-1316.353,263.288z     M-1314.209,262.887c0.687-0.143,1.344-0.286,2.029-0.429C-1312.865,262.601-1313.522,262.745-1314.209,262.887L-1314.209,262.887    z M-1311.979,262.401c0.6-0.114,1.2-0.257,1.829-0.399C-1310.779,262.144-1311.38,262.287-1311.979,262.401L-1311.979,262.401z     M-1309.579,261.858c0.543-0.143,1.086-0.257,1.629-0.399C-1308.493,261.601-1309.036,261.715-1309.579,261.858L-1309.579,261.858    z M-1307.55,261.344c0.657-0.172,1.314-0.343,2-0.543C-1306.235,261.001-1306.893,261.172-1307.55,261.344L-1307.55,261.344z     M-1305.179,260.715c0.543-0.172,1.087-0.314,1.63-0.486C-1304.092,260.401-1304.636,260.543-1305.179,260.715L-1305.179,260.715z     M-1303.006,260.086c0.6-0.2,1.2-0.371,1.8-0.571C-1301.806,259.715-1302.406,259.886-1303.006,260.086L-1303.006,260.086z     M-1301.063,259.458c0.687-0.2,1.344-0.429,2.001-0.657C-1299.72,259.029-1300.377,259.257-1301.063,259.458L-1301.063,259.458z     M-1298.662,258.658c0.543-0.172,1.086-0.372,1.6-0.543C-1297.576,258.286-1298.119,258.486-1298.662,258.658L-1298.662,258.658z     M-1296.604,257.943c1.314-0.485,2.601-0.972,3.886-1.485C-1294.004,256.971-1295.29,257.458-1296.604,257.943L-1296.604,257.943z     M-1292.318,256.286c0.571-0.229,1.114-0.457,1.657-0.715C-1291.204,255.829-1291.747,256.057-1292.318,256.286L-1292.318,256.286    z M-1290.375,255.457c0.657-0.257,1.286-0.543,1.943-0.857C-1289.089,254.914-1289.718,255.2-1290.375,255.457L-1290.375,255.457z     M-1288.289,254.542c0.572-0.257,1.172-0.543,1.772-0.829C-1287.117,254-1287.717,254.285-1288.289,254.542L-1288.289,254.542z     M-1286.174,253.571c0.6-0.286,1.172-0.572,1.771-0.886C-1285.002,252.999-1285.574,253.285-1286.174,253.571L-1286.174,253.571z     M-1284.316,252.656c0.657-0.314,1.286-0.657,1.915-0.972C-1283.03,251.999-1283.659,252.342-1284.316,252.656L-1284.316,252.656z     M-1282.202,251.57c0.572-0.314,1.144-0.6,1.715-0.915C-1281.059,250.97-1281.63,251.256-1282.202,251.57L-1282.202,251.57z     M-1280.259,250.513c1.258-0.657,2.486-1.372,3.716-2.115C-1277.772,249.141-1279.001,249.855-1280.259,250.513L-1280.259,250.513    z M-1276.314,248.284c0.543-0.343,1.114-0.686,1.686-1.029C-1275.2,247.598-1275.771,247.94-1276.314,248.284L-1276.314,248.284z     M-1274.485,247.169c1.229-0.771,2.429-1.543,3.629-2.343C-1272.057,245.626-1273.257,246.397-1274.485,247.169L-1274.485,247.169    z M-1270.714,244.711c1.801-1.229,3.572-2.486,5.315-3.801C-1267.142,242.225-1268.913,243.482-1270.714,244.711    L-1270.714,244.711z M-1265.313,240.853c17.747-13.46,31.636-31.75,39.723-52.898h16.004c13.917,0,25.349,11.403,25.349,25.349    v31.579c-16.976-13.432-37.923-22.005-60.728-23.577C-1250.967,228.593-1257.797,235.138-1265.313,240.853L-1265.313,240.853z" fill="none" stroke="#000000" stroke-linecap="round" stroke-linejoin="round" stroke-miterlimit="10" stroke-width="20.1764"/>

<path d="    M-1244.965,221.306c57.298,3.972,102.965,52.098,102.965,110.37v158.354h-392.314V331.675c0-58.5,46.01-106.769,103.651-110.427    c22.034,26.835,55.441,43.953,92.85,43.953C-1300.405,265.202-1266.998,248.112-1244.965,221.306L-1244.965,221.306z" fill="none" stroke="#000000" stroke-linecap="round" stroke-linejoin="round" stroke-miterlimit="10" stroke-width="20.1764"/>

<path d="    M-1534.314,350.566v-18.891c0-13.003,2.286-25.521,6.458-37.151h34.865v56.042H-1534.314z" fill="none" stroke="#000000" stroke-linecap="round" stroke-linejoin="round" stroke-miterlimit="10" stroke-width="20.1764"/>

<rect fill="none" height="89.394" stroke="#000000" stroke-linecap="round" stroke-linejoin="round" stroke-miterlimit="10" stroke-width="20.1764" width="168.123" x="-1421.89" y="345.022"/>

<line fill="none" stroke="#000000" stroke-linecap="round" stroke-linejoin="round" stroke-miterlimit="10" stroke-width="20.1764" x1="-1421.89" x2="-1253.767" y1="375.915" y2="375.915"/>

<line fill="none" stroke="#000000" stroke-linecap="round" stroke-linejoin="round" stroke-miterlimit="10" stroke-width="20.1764" x1="-1298.806" x2="-1298.806" y1="398.606" y2="398.377"/>

<line fill="none" stroke="#000000" stroke-linecap="round" stroke-linejoin="round" stroke-miterlimit="10" stroke-width="20.1764" x1="-1421.89" x2="-1337.843" y1="402.607" y2="402.607"/>

<line fill="none" stroke="#000000" stroke-linecap="round" stroke-linejoin="round" stroke-miterlimit="10" stroke-width="20.1764" x1="-1462.041" x2="-1462.041" y1="382.602" y2="485.742"/>

<line fill="none" stroke="#000000" stroke-linecap="round" stroke-linejoin="round" stroke-miterlimit="10" stroke-width="20.1764" x1="-1212.958" x2="-1212.958" y1="382.602" y2="487.057"/>

</g>

<g>

<path d="    M-1340.237,1013c123.228,0,223.764-100.539,223.764-223.769c0-123.259-100.536-223.77-223.764-223.77    c-123.255,0-223.763,100.51-223.763,223.77C-1564,912.461-1463.492,1013-1340.237,1013L-1340.237,1013z" fill="none" stroke="#000000" stroke-linecap="round" stroke-linejoin="round" stroke-miterlimit="10" stroke-width="20.1764"/>

<path d="    M-1183.746,629.306c41.495,40.61,67.272,97.252,67.272,159.925c0,0.942-0.029,1.886-0.058,2.857    c-0.285,12.604-2.429,33.694-6.229,49.898c-0.2,0.886-0.429,1.8-0.657,2.686l0,0l-80.618-16.518    c16.946,46.183,10.06,71.646-22.69,74.59c-34.607-3.001-69.187-20.806-103.794-58.386c-16.747,40.267-48.097,33.522-50.269,77.019    l10.545,89.622l-0.029-0.028c-4.058-0.543-8.087-1.2-12.088-1.943l-0.686-0.144c-5.287-1.028-10.488-2.229-15.604-3.601    l-0.657-0.2c-5.144-1.4-10.203-2.972-15.204-4.715l-0.543-0.2c-5.001-1.772-9.945-3.744-14.774-5.858l-0.458-0.2    c-4.858-2.115-9.63-4.43-14.289-6.888l-0.372-0.2c-4.687-2.486-9.288-5.144-13.774-7.944l-0.257-0.172    c-4.487-2.829-8.888-5.802-13.174-8.945l-0.2-0.143c-4.315-3.144-8.516-6.459-12.574-9.917l-0.085-0.057    c-33.865-28.75-59.042-67.417-71.073-111.514h-0.029l71.559-62.358c47.553-12.146,59.442,14.889,89.191-9.717    c16.632-35.552-0.714-92.823-38.923-90.793l-58.384,16.204l-34.865-34.894c3.943-6.001,8.145-11.832,12.631-17.404l0.058-0.086    c1.314-1.629,2.629-3.229,3.972-4.801l0.143-0.171c0.886-1.029,1.772-2.058,2.687-3.086l0.372-0.429    c1.2-1.343,2.4-2.687,3.629-4.001c0.2-0.2,0.372-0.4,0.571-0.6c0.857-0.915,1.743-1.829,2.601-2.744    c0.286-0.286,0.543-0.543,0.8-0.8c1.029-1.029,2.029-2.058,3.058-3.086c0.4-0.372,0.8-0.743,1.172-1.143    c0.829-0.8,1.658-1.572,2.486-2.343c0.457-0.429,0.886-0.857,1.343-1.257c0.771-0.715,1.543-1.429,2.314-2.115    c0.629-0.571,1.286-1.143,1.915-1.686c0.743-0.686,1.515-1.314,2.257-1.972c0.657-0.543,1.286-1.086,1.915-1.629    c0.628-0.515,1.286-1.058,1.915-1.572c0.743-0.629,1.515-1.229,2.286-1.829c0.686-0.543,1.372-1.086,2.058-1.629    c0.829-0.658,1.686-1.315,2.543-1.943c0.486-0.372,1-0.743,1.486-1.115c0.886-0.657,1.772-1.314,2.658-1.943    c0.601-0.429,1.172-0.829,1.772-1.257c0.972-0.686,1.943-1.343,2.915-2.029c0.457-0.286,0.915-0.6,1.343-0.886    c1-0.686,2-1.343,3-1.972c0.514-0.343,1.029-0.657,1.543-1c1.058-0.686,2.144-1.372,3.258-2.029    c0.4-0.257,0.829-0.514,1.229-0.743c1.086-0.657,2.201-1.315,3.287-1.943c0.429-0.257,0.857-0.515,1.286-0.743    c1.2-0.686,2.429-1.372,3.629-2.058c0.371-0.171,0.743-0.372,1.086-0.572c1.2-0.628,2.4-1.286,3.601-1.886    c0.372-0.2,0.714-0.371,1.057-0.543c1.315-0.686,2.629-1.343,3.944-1.972c0.343-0.171,0.686-0.314,1.029-0.486    c1.257-0.6,2.543-1.2,3.83-1.8c0.286-0.114,0.571-0.257,0.886-0.4c1.372-0.628,2.772-1.229,4.201-1.829    c0.314-0.143,0.628-0.286,0.972-0.429c1.314-0.543,2.658-1.086,3.972-1.6c0.286-0.114,0.543-0.229,0.829-0.343    c25.663,17.833,46.811,43.811,55.813,91.623c29.178-3.258,50.468-43.354,82.36-21.348    C-1249.703,670.173-1215.009,650.197-1183.746,629.306L-1183.746,629.306z" fill="none" stroke="#000000" stroke-linecap="round" stroke-linejoin="round" stroke-miterlimit="10" stroke-width="20.1764"/>

</g>

<g>

<path d="    M-805.5,616.109L-805.5,616.109c77.218,0,140.402,63.187,140.402,140.435v108.913c0,13.718-2,27.007-5.715,39.581l9.059,2.144    c31.149,7.373,50.583,38.924,43.181,70.046l0,0c-7.401,31.15-38.923,50.584-70.072,43.21l-47.896-11.374    c-8.573-2.029-16.261-5.916-22.719-11.088c-14.518,5.115-30.063,7.887-46.239,7.887l0,0c-15.917,0-31.207-2.686-45.495-7.602    c-6.401,5.03-13.975,8.803-22.405,10.803l-47.896,11.374c-31.15,7.374-62.671-12.06-70.073-43.21l0,0    c-7.373-31.122,12.06-62.673,43.181-70.046l8.059-1.915c-3.772-12.632-5.801-26.007-5.801-39.81V756.544    C-945.931,679.296-882.746,616.109-805.5,616.109L-805.5,616.109z" fill="none" stroke="#000000" stroke-linecap="round" stroke-linejoin="round" stroke-miterlimit="10" stroke-width="20.1764"/>

<path d="    M-804.415,836.563c34.979,0,63.5-28.521,63.5-63.501c0-34.951-28.521-63.473-63.5-63.473c-34.95,0-63.471,28.521-63.471,63.473    C-867.885,808.042-839.365,836.563-804.415,836.563L-804.415,836.563z" fill="none" stroke="#000000" stroke-linecap="round" stroke-linejoin="round" stroke-miterlimit="10" stroke-width="20.1764"/>

<path d="    M-804.415,799.526c14.575,0,26.463-11.889,26.463-26.464c0-14.546-11.888-26.435-26.463-26.435    c-14.574,0-26.434,11.889-26.434,26.435C-830.849,787.637-818.989,799.526-804.415,799.526L-804.415,799.526z" fill="none" stroke="#000000" stroke-linecap="round" stroke-linejoin="round" stroke-miterlimit="10" stroke-width="20.1764"/>

<path d="    M-876.716,693.271c47.925-30.464,95.821-28.292,143.746,0" fill="none" stroke="#000000" stroke-linecap="round" stroke-linejoin="round" stroke-miterlimit="10" stroke-width="20.1764"/>

<line fill="none" stroke="#000000" stroke-linecap="round" stroke-linejoin="round" stroke-miterlimit="10" stroke-width="20.1764" x1="-904.922" x2="-904.922" y1="602.22" y2="653.604"/>

<path d="    M-903.35,600.791c12.631,0,22.948-10.288,22.948-22.92c0-12.631-10.316-22.92-22.948-22.92c-12.603,0-22.919,10.289-22.919,22.92    C-926.27,590.503-915.953,600.791-903.35,600.791L-903.35,600.791z" fill="none" stroke="#000000" stroke-linecap="round" stroke-linejoin="round" stroke-miterlimit="10" stroke-width="20.1764"/>

<line fill="none" stroke="#000000" stroke-linecap="round" stroke-linejoin="round" stroke-miterlimit="10" stroke-width="20.1764" x1="-705.049" x2="-705.049" y1="602.22" y2="653.604"/>

<path d="    M-703.478,600.791c12.632,0,22.948-10.288,22.948-22.92c0-12.631-10.316-22.92-22.948-22.92c-12.603,0-22.919,10.289-22.919,22.92    C-726.397,590.503-716.081,600.791-703.478,600.791L-703.478,600.791z" fill="none" stroke="#000000" stroke-linecap="round" stroke-linejoin="round" stroke-miterlimit="10" stroke-width="20.1764"/>

<path d="    M-749.374,874.087v1.743c0,31.465-25.748,57.242-57.212,57.242l0,0c-31.493,0-57.241-25.777-57.241-57.242v-1.743H-749.374z" fill="none" stroke="#000000" stroke-linecap="round" stroke-linejoin="round" stroke-miterlimit="10" stroke-width="20.1764"/>

</g>

<g>

<path d="    M-283.002,557h35.809c25.262,0,45.895,20.663,45.895,45.897v215.91l-2.457-3.429h-43.953v52.813h-35.293    c-0.6,0-1.199-0.028-1.771-0.057v-52.756h-43.953l-0.171,0.257V602.897C-328.897,577.663-308.236,557-283.002,557L-283.002,557z" fill="none" stroke="#000000" stroke-linecap="round" stroke-linejoin="round" stroke-miterlimit="10" stroke-width="20.1764"/>

<path d="    M-291.947,629.761h54.269c3.086,0,5.602,2.515,5.602,5.602v24.063c0,3.058-2.516,5.602-5.602,5.602h-54.269    c-3.086,0-5.601-2.543-5.601-5.602v-24.063C-297.548,632.276-295.033,629.761-291.947,629.761L-291.947,629.761z" fill="none" stroke="#000000" stroke-linecap="round" stroke-linejoin="round" stroke-miterlimit="10" stroke-width="20.1764"/>

<polygon fill="none" points="    -389.482,899.884 -328.726,815.378 -284.773,815.378 -284.773,899.884   " stroke="#000000" stroke-linecap="round" stroke-linejoin="round" stroke-miterlimit="10" stroke-width="20.1764"/>

<polygon fill="none" points="    -143,899.884 -203.756,815.378 -247.709,815.378 -247.709,899.884   " stroke="#000000" stroke-linecap="round" stroke-linejoin="round" stroke-miterlimit="10" stroke-width="20.1764"/>

<line fill="none" stroke="#000000" stroke-linecap="round" stroke-linejoin="round" stroke-miterlimit="10" stroke-width="20.1764" x1="-265.084" x2="-265.283" y1="725.584" y2="778.769"/>

<line fill="none" stroke="#000000" stroke-linecap="round" stroke-linejoin="round" stroke-miterlimit="10" stroke-width="20.1764" x1="-336.957" x2="-336.957" y1="923.347" y2="994.994"/>

<line fill="none" stroke="#000000" stroke-linecap="round" stroke-linejoin="round" stroke-miterlimit="10" stroke-width="20.1764" x1="-262.313" x2="-262.313" y1="923.347" y2="981.276"/>

<line fill="none" stroke="#000000" stroke-linecap="round" stroke-linejoin="round" stroke-miterlimit="10" stroke-width="20.1764" x1="-262.313" x2="-262.313" y1="1009.912" y2="1023.916"/>

<line fill="none" stroke="#000000" stroke-linecap="round" stroke-linejoin="round" stroke-miterlimit="10" stroke-width="20.1764" x1="-187.695" x2="-187.695" y1="923.347" y2="994.994"/>

<line fill="none" stroke="#000000" stroke-linecap="round" stroke-linejoin="round" stroke-miterlimit="10" stroke-width="20.1764" x1="-299.634" x2="-299.634" y1="923.347" y2="931.378"/>

<line fill="none" stroke="#000000" stroke-linecap="round" stroke-linejoin="round" stroke-miterlimit="10" stroke-width="20.1764" x1="-299.634" x2="-299.634" y1="960.671" y2="1012.426"/>

<line fill="none" stroke="#000000" stroke-linecap="round" stroke-linejoin="round" stroke-miterlimit="10" stroke-width="20.1764" x1="-328.897" x2="-201.299" y1="691.919" y2="691.919"/>

<line fill="none" stroke="#000000" stroke-linecap="round" stroke-linejoin="round" stroke-miterlimit="10" stroke-width="20.1764" x1="-229.047" x2="-229.047" y1="923.347" y2="931.378"/>

<line fill="none" stroke="#000000" stroke-linecap="round" stroke-linejoin="round" stroke-miterlimit="10" stroke-width="20.1764" x1="-229.047" x2="-229.047" y1="960.671" y2="1012.426"/>

</g>

<g>

<path d="    M374.128,554.896L374.128,554.896c8.001-4.229,17.975-1.143,22.204,6.859l44.41,84.049c4.201,7.974,1.114,17.976-6.858,22.206l0,0    c-8.002,4.201-17.976,1.143-22.205-6.859l-44.41-84.049C363.068,569.1,366.154,559.126,374.128,554.896L374.128,554.896z" fill="none" stroke="#000000" stroke-linecap="round" stroke-linejoin="round" stroke-miterlimit="10" stroke-width="20.1478"/>

<polygon fill="none" points="    124.673,725.824 367.269,577.102 411.679,661.151 152.078,777.723   " stroke="#000000" stroke-linecap="round" stroke-linejoin="round" stroke-miterlimit="10" stroke-width="20.1478"/>

<path d="    M93.523,756.718l37.094-19.605l16.604,31.408l-37.123,19.605c-0.027-0.114-0.085-0.2-0.143-0.286L93.523,756.718z" fill="none" stroke="#000000" stroke-linecap="round" stroke-linejoin="round" stroke-miterlimit="10" stroke-width="20.1478"/>

<path d="    M74.49,750.859L74.49,750.859c6.859-3.629,15.403-1,19.033,5.859l16.432,31.122c3.629,6.859,1,15.433-5.858,19.033l0,0    c-6.858,3.63-15.403,0.972-19.032-5.858l-16.433-31.15C65.002,763.034,67.632,754.46,74.49,750.859L74.49,750.859z" fill="none" stroke="#000000" stroke-linecap="round" stroke-linejoin="round" stroke-miterlimit="10" stroke-width="20.1478"/>

<rect fill="none" height="34.551" stroke="#000000" stroke-linecap="round" stroke-linejoin="round" stroke-miterlimit="10" stroke-width="20.1478" width="61.699" x="248.1" y="774.036"/>

<polyline fill="none" points="    223.408,1020.811 278.936,808.587 330.775,1022.041   " stroke="#000000" stroke-linecap="round" stroke-linejoin="round" stroke-miterlimit="10" stroke-width="20.1478"/>

<line fill="none" stroke="#000000" stroke-linecap="round" stroke-linejoin="round" stroke-miterlimit="10" stroke-width="20.1478" x1="278.649" x2="278.649" y1="1026.356" y2="819.047"/>

<line fill="none" stroke="#000000" stroke-linecap="round" stroke-linejoin="round" stroke-miterlimit="10" stroke-width="20.1478" x1="278.649" x2="278.649" y1="769.435" y2="726.91"/>

</g>

<g>

<path d="    M789.079,695.991c71.759,0,129.914,58.157,129.914,129.889c0,40.725-18.747,77.048-48.039,100.854    c14.089-17.347,22.548-39.467,22.548-63.559c0-55.671-45.124-100.825-100.793-100.825c-55.698,0-100.822,45.154-100.822,100.825    c0,31.122,14.117,58.957,36.265,77.448c-41.009-21.834-68.957-65.017-68.957-114.743    C659.194,754.148,717.349,695.991,789.079,695.991L789.079,695.991z" fill="none" stroke="#000000" stroke-linecap="round" stroke-linejoin="round" stroke-miterlimit="10" stroke-width="20.1478"/>

<path d="    M792.709,964c55.526,0,100.793-45.297,100.793-100.825c0-55.527-45.267-100.825-100.793-100.825s-100.822,45.297-100.822,100.825    C691.887,918.703,737.183,964,792.709,964L792.709,964z" fill="none" stroke="#000000" stroke-linecap="round" stroke-linejoin="round" stroke-miterlimit="10" stroke-width="20.1478"/>

<line fill="none" stroke="#000000" stroke-linecap="round" stroke-linejoin="round" stroke-miterlimit="10" stroke-width="20.1478" x1="739.011" x2="890.759" y1="786.642" y2="839.684"/>

<line fill="none" stroke="#000000" stroke-linecap="round" stroke-linejoin="round" stroke-miterlimit="10" stroke-width="20.1478" x1="700.574" x2="890.587" y1="822.137" y2="887.409"/>

<line fill="none" stroke="#000000" stroke-linecap="round" stroke-linejoin="round" stroke-miterlimit="10" stroke-width="20.1478" x1="693.173" x2="860.523" y1="879.293" y2="937.765"/>

<line fill="none" stroke="#000000" stroke-linecap="round" stroke-linejoin="round" stroke-miterlimit="10" stroke-width="20.1478" x1="616.527" x2="557" y1="818.106" y2="818.106"/>

<line fill="none" stroke="#000000" stroke-linecap="round" stroke-linejoin="round" stroke-miterlimit="10" stroke-width="20.1478" x1="789.107" x2="789.107" y1="603.14" y2="659.067"/>

<line fill="none" stroke="#000000" stroke-linecap="round" stroke-linejoin="round" stroke-miterlimit="10" stroke-width="20.1478" x1="1018.701" x2="959.146" y1="818.335" y2="818.335"/>

<line fill="none" stroke="#000000" stroke-linecap="round" stroke-linejoin="round" stroke-miterlimit="10" stroke-width="20.1478" x1="663.022" x2="613.784" y1="714.596" y2="681.13"/>

<line fill="none" stroke="#000000" stroke-linecap="round" stroke-linejoin="round" stroke-miterlimit="10" stroke-width="20.1478" x1="914.479" x2="963.718" y1="714.596" y2="681.13"/>

</g>

</g>

</svg>