<?xml version="1.0" ?>

<!DOCTYPE svg  PUBLIC '-//W3C//DTD SVG 1.1//EN'  'http://www.w3.org/Graphics/SVG/1.1/DTD/svg11.dtd'>


<svg width="800px" height="800px" viewBox="0 0 512 512" enable-background="new 0 0 512 512" version="1.1" xml:space="preserve" xmlns="http://www.w3.org/2000/svg" xmlns:xlink="http://www.w3.org/1999/xlink">

<g id="_x30_1"/>

<g id="_x30_2"/>

<g id="_x30_3"/>

<g id="_x30_4"/>

<g id="_x30_5"/>

<g id="_x30_6"/>

<g id="_x30_7"/>

<g id="_x30_8"/>

<g id="_x30_9"/>

<g id="_x31_0"/>

<g id="_x31_1"/>

<g id="_x31_2"/>

<g id="_x31_3"/>

<g id="_x31_4"/>

<g id="_x31_5"/>

<g id="_x31_6"/>

<g id="_x31_7"/>

<g id="_x31_8"/>

<g id="_x31_9"/>

<g id="_x32_0"/>

<g id="_x32_1"/>

<g id="_x32_2"/>

<g id="_x32_3"/>

<g id="_x32_4"/>

<g id="_x32_5"/>

<g id="_x32_6"/>

<g id="_x32_7"/>

<g id="_x32_8"/>

<g id="_x32_9"/>

<g id="_x33_0"/>

<g id="_x33_1"/>

<g id="_x33_2"/>

<g id="_x33_3"/>

<g id="_x33_4"/>

<g id="_x33_5"/>

<g id="_x33_6"/>

<g id="_x33_7"/>

<g id="_x33_8"/>

<g id="_x33_9"/>

<g id="_x34_0"/>

<g id="_x34_1"/>

<g id="_x34_2"/>

<g id="_x34_3"/>

<g id="_x34_4"/>

<g id="_x34_5"/>

<g id="_x34_6"/>

<g id="_x34_7"/>

<g id="_x34_8"/>

<g id="_x34_9"/>

<g id="_x35_0">

<g>

<path d="    M-269.499,380.398c-43.863,44.825-115.773,45.611-160.598,1.748c-44.853-43.864-45.64-115.777-1.776-160.603L-269.499,380.398z" fill="none" stroke="#000000" stroke-linecap="round" stroke-linejoin="round" stroke-miterlimit="10" stroke-width="20.1478"/>

<path d="    M-434.116,378.039l-39.523,86.971h97.337l-28.251-64.019c-9.145-4.952-17.766-11.214-25.543-18.845    C-431.494,380.806-432.805,379.437-434.116,378.039L-434.116,378.039z" fill="none" stroke="#000000" stroke-linecap="round" stroke-linejoin="round" stroke-miterlimit="10" stroke-width="20.1478"/>

<line fill="none" stroke="#000000" stroke-linecap="round" stroke-linejoin="round" stroke-miterlimit="10" stroke-width="20.1478" x1="-298.129" x2="-345.167" y1="246.563" y2="294.68"/>

<path d="    M-64.397,400.67c-33.377,34.078-88.046,34.689-122.151,1.311c-34.106-33.35-34.718-88.048-1.34-122.156L-64.397,400.67z" fill="none" stroke="#000000" stroke-linecap="round" stroke-linejoin="round" stroke-miterlimit="10" stroke-width="20.1478"/>

<path d="    M-189.607,398.864l-30.058,66.146h74.037l-21.494-48.699c-6.961-3.757-13.515-8.535-19.427-14.33    C-187.598,400.962-188.617,399.913-189.607,398.864L-189.607,398.864z" fill="none" stroke="#000000" stroke-linecap="round" stroke-linejoin="round" stroke-miterlimit="10" stroke-width="20.1478"/>

<line fill="none" stroke="#000000" stroke-linecap="round" stroke-linejoin="round" stroke-miterlimit="10" stroke-width="20.1478" x1="-86.183" x2="-121.979" y1="298.874" y2="335.457"/>

<line fill="none" stroke="#000000" stroke-linecap="round" stroke-linejoin="round" stroke-miterlimit="10" stroke-width="20.1478" x1="-409.476" x2="-409.476" y1="284.515" y2="284.224"/>

<line fill="none" stroke="#000000" stroke-linecap="round" stroke-linejoin="round" stroke-miterlimit="10" stroke-width="20.1478" x1="-381.952" x2="-381.952" y1="314.572" y2="314.311"/>

<line fill="none" stroke="#000000" stroke-linecap="round" stroke-linejoin="round" stroke-miterlimit="10" stroke-width="20.1478" x1="-353.729" x2="-353.729" y1="342.009" y2="341.719"/>

<line fill="none" stroke="#000000" stroke-linecap="round" stroke-linejoin="round" stroke-miterlimit="10" stroke-width="20.1478" x1="-327.633" x2="-327.633" y1="366.679" y2="366.417"/>

<line fill="none" stroke="#000000" stroke-linecap="round" stroke-linejoin="round" stroke-miterlimit="10" stroke-width="20.1478" x1="-163.977" x2="-163.977" y1="339.622" y2="339.359"/>

<line fill="none" stroke="#000000" stroke-linecap="round" stroke-linejoin="round" stroke-miterlimit="10" stroke-width="20.1478" x1="-131.881" x2="-131.881" y1="370.932" y2="370.67"/>

<path d="    M-122.706,162.971c28.863,0,52.397-23.534,52.397-52.398c0-28.864-23.534-52.398-52.397-52.398    c-28.864,0-52.426,23.534-52.426,52.398C-175.132,139.437-151.57,162.971-122.706,162.971L-122.706,162.971z" fill="none" stroke="#000000" stroke-linecap="round" stroke-linejoin="round" stroke-miterlimit="10" stroke-width="20.1478"/>

<line fill="none" stroke="#000000" stroke-linecap="round" stroke-linejoin="round" stroke-miterlimit="10" stroke-width="20.1478" x1="-514.56" x2="-36" y1="464.631" y2="465.388"/>

<line fill="none" stroke="#000000" stroke-linecap="round" stroke-linejoin="round" stroke-miterlimit="10" stroke-width="20.1478" x1="-359.642" x2="-359.642" y1="74.602" y2="74.34"/>

<line fill="none" stroke="#000000" stroke-linecap="round" stroke-linejoin="round" stroke-miterlimit="10" stroke-width="20.1478" x1="-460.59" x2="-460.59" y1="73.583" y2="73.291"/>

<line fill="none" stroke="#000000" stroke-linecap="round" stroke-linejoin="round" stroke-miterlimit="10" stroke-width="20.1478" x1="-389.699" x2="-389.699" y1="140.107" y2="139.845"/>

<line fill="none" stroke="#000000" stroke-linecap="round" stroke-linejoin="round" stroke-miterlimit="10" stroke-width="20.1478" x1="-264.839" x2="-264.839" y1="52.263" y2="52"/>

<line fill="none" stroke="#000000" stroke-linecap="round" stroke-linejoin="round" stroke-miterlimit="10" stroke-width="20.1478" x1="-196.277" x2="-196.277" y1="210.243" y2="209.98"/>

<line fill="none" stroke="#000000" stroke-linecap="round" stroke-linejoin="round" stroke-miterlimit="10" stroke-width="20.1478" x1="-207.054" x2="-287.207" y1="77.427" y2="166.815"/>

<line fill="none" stroke="#000000" stroke-linecap="round" stroke-linejoin="round" stroke-miterlimit="10" stroke-width="20.1478" x1="-428.203" x2="-479.085" y1="99.767" y2="158.34"/>

<line fill="none" stroke="#000000" stroke-linecap="round" stroke-linejoin="round" stroke-miterlimit="10" stroke-width="20.1478" x1="-45.99" x2="-79.892" y1="193.786" y2="230.777"/>

</g>

<g>

<path d="    M254.99,292.162c22.682,0,41.177-18.497,41.177-41.179c0-22.682-18.496-41.179-41.177-41.179    c-22.683,0-41.178,18.497-41.178,41.179C213.812,273.665,232.307,292.162,254.99,292.162L254.99,292.162z" fill="none" stroke="#000000" stroke-linecap="round" stroke-linejoin="round" stroke-miterlimit="10" stroke-width="20.1764"/>

<path d="    M92.682,341.535c15.141,0,27.492-12.351,27.492-27.492s-12.351-27.493-27.492-27.493c-15.17,0-27.521,12.351-27.521,27.493    S77.512,341.535,92.682,341.535L92.682,341.535z" fill="none" stroke="#000000" stroke-linecap="round" stroke-linejoin="round" stroke-miterlimit="10" stroke-width="20.1764"/>

<path d="    M172.307,109.306c15.141,0,27.492-12.351,27.492-27.493c0-15.142-12.351-27.492-27.492-27.492s-27.491,12.35-27.491,27.492    C144.815,96.955,157.166,109.306,172.307,109.306L172.307,109.306z" fill="none" stroke="#000000" stroke-linecap="round" stroke-linejoin="round" stroke-miterlimit="10" stroke-width="20.1764"/>

<path d="    M255.464,167.051C388.32,167.051,496,205.558,496,253.09c0,47.503-107.68,86.04-240.536,86.04c-50.946,0-98.18-5.67-137.072-15.35    c1.128-3.027,1.781-6.294,1.781-9.737c0-15.171-12.32-27.493-27.492-27.493c-12.499,0-23.008,8.313-26.393,19.684    c-32.183-14.607-51.391-33.073-51.391-53.144C14.898,205.558,122.608,167.051,255.464,167.051L255.464,167.051z" fill="none" stroke="#000000" stroke-linecap="round" stroke-linejoin="round" stroke-miterlimit="10" stroke-width="20.1764"/>

<path d="    M199.412,86.386c40.525,12.647,90.877,57.359,130.48,120.449c56.765,90.375,70.006,184.222,29.6,209.577    c-40.405,25.384-119.199-27.314-175.934-117.688c-53.588-85.297-68.372-173.682-35.893-204.678    c4.513,9.056,13.834,15.261,24.641,15.261C185.904,109.306,197.215,99.389,199.412,86.386L199.412,86.386z" fill="none" stroke="#000000" stroke-linecap="round" stroke-linejoin="round" stroke-miterlimit="10" stroke-width="20.1764"/>

</g>

<g>

<path d="    M750.941,406.827c77.058,0,139.925-62.869,139.925-139.928C890.866,189.84,827.999,127,750.941,127    c-77.057,0-139.894,62.84-139.894,139.899C611.047,343.958,673.884,406.827,750.941,406.827L750.941,406.827z" fill="none" stroke="#000000" stroke-linecap="round" stroke-linejoin="round" stroke-miterlimit="10" stroke-width="20.1764"/>

<path d="    M875.209,200.769c89.13,7.609,152.321,26.617,152.321,48.856c0,8.284-8.754,16.128-24.384,23.091 M934.697,291.106    c-40.364,6.846-90.981,10.929-145.946,10.929c-131.847,0-238.751-23.473-238.751-52.41c0-14.689,27.585-27.969,71.975-37.487" fill="none" stroke="#000000" stroke-linecap="round" stroke-linejoin="round" stroke-miterlimit="10" stroke-width="20.1764"/>

<path d="    M969.187,322.013c17.567,0,31.875-14.308,31.875-31.876c0-17.539-14.308-31.875-31.875-31.875s-31.874,14.336-31.874,31.875    C937.313,307.705,951.619,322.013,969.187,322.013L969.187,322.013z" fill="none" stroke="#000000" stroke-linecap="round" stroke-linejoin="round" stroke-miterlimit="10" stroke-width="20.1764"/>

<path d="    M867.864,341.99c-31.141,12.486-74.854,20.271-123.268,20.271c-38.955,0-74.883-5.023-103.615-13.514" fill="none" stroke="#000000" stroke-linecap="round" stroke-linejoin="round" stroke-miterlimit="10" stroke-width="20.1764"/>

<path d="    M887.048,233.966c-31.259,15.688-80.348,25.794-135.549,25.794c-54.758,0-103.496-9.959-134.782-25.412" fill="none" stroke="#000000" stroke-linecap="round" stroke-linejoin="round" stroke-miterlimit="10" stroke-width="20.1764"/>

<path d="    M832.581,155.35c-23.384,4.613-49.883,7.257-77.968,7.257c-30.522,0-59.166-3.114-83.959-8.52" fill="none" stroke="#000000" stroke-linecap="round" stroke-linejoin="round" stroke-miterlimit="10" stroke-width="20.1764"/>

</g>

<g>

<path d="    M1321.394,224.479c129.086,0,234.366-20.577,234.366-45.754c0-25.206-105.28-45.754-234.366-45.754    c-129.114,0-234.394,20.548-234.394,45.754C1087,203.902,1192.279,224.479,1321.394,224.479L1321.394,224.479z" fill="none" stroke="#000000" stroke-linecap="round" stroke-linejoin="round" stroke-miterlimit="10" stroke-width="20.1478"/>

<polygon fill="none" points="    1163.559,485.201 1462.71,485.201 1355.544,278.493 1266.01,278.493   " stroke="#000000" stroke-linecap="round" stroke-linejoin="round" stroke-miterlimit="10" stroke-width="20.1478"/>

<line fill="none" stroke="#000000" stroke-linecap="round" stroke-linejoin="round" stroke-miterlimit="10" stroke-width="20.1478" x1="1278.984" x2="1251.893" y1="367.028" y2="485.201"/>

<line fill="none" stroke="#000000" stroke-linecap="round" stroke-linejoin="round" stroke-miterlimit="10" stroke-width="20.1478" x1="1292.416" x2="1286.872" y1="304.499" y2="328.705"/>

<line fill="none" stroke="#000000" stroke-linecap="round" stroke-linejoin="round" stroke-miterlimit="10" stroke-width="20.1478" x1="1337.283" x2="1351.343" y1="304.499" y2="358.398"/>

<line fill="none" stroke="#000000" stroke-linecap="round" stroke-linejoin="round" stroke-miterlimit="10" stroke-width="20.1478" x1="1261.638" x2="1261.638" y1="98.333" y2="98.048"/>

<line fill="none" stroke="#000000" stroke-linecap="round" stroke-linejoin="round" stroke-miterlimit="10" stroke-width="20.1478" x1="1322.108" x2="1322.108" y1="98.333" y2="98.048"/>

<line fill="none" stroke="#000000" stroke-linecap="round" stroke-linejoin="round" stroke-miterlimit="10" stroke-width="20.1478" x1="1382.607" x2="1382.607" y1="98.333" y2="98.048"/>

<path d="    M1219.199,64.497h204.331v73.047c-30.864-3.887-65.528-6.059-102.137-6.059c-36.636,0-71.302,2.172-102.194,6.059V64.497z" fill="none" stroke="#000000" stroke-linecap="round" stroke-linejoin="round" stroke-miterlimit="10" stroke-width="20.1478"/>

<path d="    M1321.565,20c30.949,0,57.612,18.205,69.9,44.497h-139.802C1263.953,38.205,1290.645,20,1321.565,20L1321.565,20z" fill="none" stroke="#000000" stroke-linecap="round" stroke-linejoin="round" stroke-miterlimit="10" stroke-width="20.1478"/>

<line fill="none" stroke="#000000" stroke-linecap="round" stroke-linejoin="round" stroke-miterlimit="10" stroke-width="20.1478" x1="1425.56" x2="1448.25" y1="106.707" y2="106.707"/>

<line fill="none" stroke="#000000" stroke-linecap="round" stroke-linejoin="round" stroke-miterlimit="10" stroke-width="20.1478" x1="1196.852" x2="1219.543" y1="106.707" y2="106.707"/>

<line fill="none" stroke="#000000" stroke-linecap="round" stroke-linejoin="round" stroke-miterlimit="10" stroke-width="20.1478" x1="1258.065" x2="1384.693" y1="178.725" y2="178.725"/>

<line fill="none" stroke="#000000" stroke-linecap="round" stroke-linejoin="round" stroke-miterlimit="10" stroke-width="20.1478" x1="1357.431" x2="1359.802" y1="385.175" y2="394.263"/>

</g>

<g>

<path d="    M1851.136,435.722c30.578,0,55.556-24.949,55.556-55.557c0-30.579-24.978-55.527-55.556-55.527    c-30.606,0-55.555,24.948-55.555,55.527C1795.581,410.773,1820.529,435.722,1851.136,435.722L1851.136,435.722z" fill="none" stroke="#000000" stroke-linecap="round" stroke-linejoin="round" stroke-miterlimit="10" stroke-width="20.1764"/>

<path d="    M1786.408,55L1786.408,55c14.631,0,26.634,11.975,26.634,26.635v82.306l0.086,75.533c-0.058,16.204,45.724,14.861,45.724,0.257    l-0.028-75.79h37.637v-26.807c0-12.403,10.146-22.548,22.548-22.548l0,0c12.403,0,22.548,10.146,22.548,22.548v28.55v0.114v29.979    V376.05c0,50.498-41.295,91.794-91.792,91.794l0,0c-50.496,0-91.819-41.296-91.819-91.794V165.799l-0.058-84.364    C1757.887,66.803,1771.775,55,1786.408,55L1786.408,55z" fill="none" stroke="#000000" stroke-linecap="round" stroke-linejoin="round" stroke-miterlimit="10" stroke-width="20.1764"/>

<line fill="none" stroke="#000000" stroke-linecap="round" stroke-linejoin="round" stroke-miterlimit="10" stroke-width="20.1764" x1="1902.947" x2="1902.947" y1="246.447" y2="295.117"/>

<line fill="none" stroke="#000000" stroke-linecap="round" stroke-linejoin="round" stroke-miterlimit="10" stroke-width="20.1764" x1="1860.71" x2="1860.71" y1="279.484" y2="356.617"/>

<line fill="none" stroke="#000000" stroke-linecap="round" stroke-linejoin="round" stroke-miterlimit="10" stroke-width="20.1764" x1="1799.496" x2="1799.496" y1="279.484" y2="358.475"/>

<line fill="none" stroke="#000000" stroke-linecap="round" stroke-linejoin="round" stroke-miterlimit="10" stroke-width="20.1764" x1="1902.947" x2="1902.947" y1="197.464" y2="213.382"/>

<line fill="none" stroke="#000000" stroke-linecap="round" stroke-linejoin="round" stroke-miterlimit="10" stroke-width="20.1764" x1="1827.816" x2="1827.816" y1="368.391" y2="368.106"/>

<path d="    M2084.073,211.238v158.839c0,23.749-22.148,43.153-49.24,43.153l0,0c-27.091,0-49.239-19.404-49.239-43.153V230.129v-0.057    v-65.645c0-8.573,8.002-15.604,17.805-15.604l0,0c9.802,0,17.832,7.03,17.832,15.604v37.581c-0.028,0.314-0.028,0.6-0.028,0.915    v65.645c0,8.573,7.001,15.604,15.604,15.604l0,0c8.573,0,15.604-7.03,15.604-15.604v-57.329    C2052.38,195.72,2084.073,195.834,2084.073,211.238L2084.073,211.238z" fill="none" stroke="#000000" stroke-linecap="round" stroke-linejoin="round" stroke-miterlimit="10" stroke-width="20.1764"/>

<path d="    M2033.776,380.508c9.859,0,17.89-8.059,17.89-17.918c0-9.86-8.03-17.891-17.89-17.891s-17.919,8.03-17.919,17.891    C2015.857,372.45,2023.917,380.508,2033.776,380.508L2033.776,380.508z" fill="none" stroke="#000000" stroke-linecap="round" stroke-linejoin="round" stroke-miterlimit="10" stroke-width="20.1764"/>

<path d="    M1713.135,138.249v150.18c0,22.462-20.977,40.81-46.582,40.81l0,0c-25.605,0-46.553-18.348-46.553-40.81V156.082v-0.057V93.953    c0-8.117,7.572-14.747,16.832-14.747l0,0c9.26,0,16.861,6.63,16.861,14.747v35.551c-0.029,0.286-0.029,0.572-0.029,0.857v62.072    c0,8.117,6.631,14.747,14.746,14.747l0,0c8.116,0,14.775-6.63,14.775-14.747v-54.185    C1683.156,123.531,1713.135,123.674,1713.135,138.249L1713.135,138.249z" fill="none" stroke="#000000" stroke-linecap="round" stroke-linejoin="round" stroke-miterlimit="10" stroke-width="20.1764"/>

<line fill="none" stroke="#000000" stroke-linecap="round" stroke-linejoin="round" stroke-miterlimit="10" stroke-width="20.1764" x1="1665.124" x2="1665.124" y1="294.344" y2="294.059"/>

<line fill="none" stroke="#000000" stroke-linecap="round" stroke-linejoin="round" stroke-miterlimit="10" stroke-width="20.1764" x1="1666.953" x2="1666.953" y1="247.848" y2="263.737"/>

<line fill="none" stroke="#000000" stroke-linecap="round" stroke-linejoin="round" stroke-miterlimit="10" stroke-width="20.1764" x1="2013.028" x2="2013.028" y1="305.062" y2="321.323"/>

<line fill="none" stroke="#000000" stroke-linecap="round" stroke-linejoin="round" stroke-miterlimit="10" stroke-width="20.1764" x1="2057.267" x2="2057.267" y1="314.693" y2="321.294"/>

</g>

<g>

<polygon fill="none" points="    1832.477,742.991 1875.942,816.037 1772.377,877.681 1728.91,804.606   " stroke="#000000" stroke-linecap="round" stroke-linejoin="round" stroke-miterlimit="10" stroke-width="20.1478"/>

<polygon fill="none" points="    1756.373,659.285 1795.439,724.958 1752.916,750.25 1713.85,684.605   " stroke="#000000" stroke-linecap="round" stroke-linejoin="round" stroke-miterlimit="10" stroke-width="20.1478"/>

<polygon fill="none" points="    1873.856,856.733 1912.922,922.406 1870.398,947.698 1831.333,882.054   " stroke="#000000" stroke-linecap="round" stroke-linejoin="round" stroke-miterlimit="10" stroke-width="20.1478"/>

<path d="    M1896.404,724.043l26.406,44.382c5.286,8.917,2.343,20.52-6.545,25.835l0,0c-8.916,5.287-20.519,2.343-25.834-6.573    l-26.406-44.382c-5.286-8.888-2.343-20.52,6.545-25.806l0,0C1879.486,712.183,1891.089,715.155,1896.404,724.043L1896.404,724.043    z" fill="none" stroke="#000000" stroke-linecap="round" stroke-linejoin="round" stroke-miterlimit="10" stroke-width="20.1478"/>

<line fill="none" stroke="#000000" stroke-linecap="round" stroke-linejoin="round" stroke-miterlimit="10" stroke-width="20.1478" x1="1775.578" x2="1793.182" y1="736.789" y2="766.368"/>

<line fill="none" stroke="#000000" stroke-linecap="round" stroke-linejoin="round" stroke-miterlimit="10" stroke-width="20.1478" x1="1836.648" x2="1853.967" y1="839.443" y2="868.564"/>

<path d="    M1838.791,1014c121.627,0,220.792-99.195,220.792-220.797c0-121.63-99.165-220.797-220.792-220.797    c-121.598,0-220.791,99.167-220.791,220.797C1618,914.805,1717.193,1014,1838.791,1014L1838.791,1014z" fill="none" stroke="#000000" stroke-linecap="round" stroke-linejoin="round" stroke-miterlimit="10" stroke-width="20.1478"/>

<path d="    M2007.286,593.268c130.828-74.104,88.505,26.378-71.616,126.832" fill="none" stroke="#000000" stroke-linecap="round" stroke-linejoin="round" stroke-miterlimit="10" stroke-width="20.1478"/>

</g>

<g>

<line fill="none" stroke="#000000" stroke-linecap="round" stroke-linejoin="round" stroke-miterlimit="10" stroke-width="20.1764" x1="1187.622" x2="1277.014" y1="904.869" y2="904.468"/>

<line fill="none" stroke="#000000" stroke-linecap="round" stroke-linejoin="round" stroke-miterlimit="10" stroke-width="20.1764" x1="1309.764" x2="1366.005" y1="893.066" y2="833.565"/>

<path d="    M1103.176,830.879c10.002,0,18.146-8.174,18.146-18.177c0-10.002-8.145-18.146-18.146-18.146c-10.03,0-18.176,8.145-18.176,18.146    C1085,822.706,1093.146,830.879,1103.176,830.879L1103.176,830.879z" fill="none" stroke="#000000" stroke-linecap="round" stroke-linejoin="round" stroke-miterlimit="10" stroke-width="20.1764"/>

<line fill="none" stroke="#000000" stroke-linecap="round" stroke-linejoin="round" stroke-miterlimit="10" stroke-width="20.1764" x1="1390.781" x2="1377.836" y1="663.724" y2="795.184"/>

<line fill="none" stroke="#000000" stroke-linecap="round" stroke-linejoin="round" stroke-miterlimit="10" stroke-width="20.1764" x1="1456.311" x2="1392.782" y1="716.336" y2="801.9"/>

<line fill="none" stroke="#000000" stroke-linecap="round" stroke-linejoin="round" stroke-miterlimit="10" stroke-width="20.1764" x1="1517.209" x2="1397.469" y1="802.672" y2="817.905"/>

<line fill="none" stroke="#000000" stroke-linecap="round" stroke-linejoin="round" stroke-miterlimit="10" stroke-width="20.1764" x1="1113.949" x2="1151.386" y1="830.679" y2="882.463"/>

<path d="    M1166.532,917.243c10.031,0,18.176-8.145,18.176-18.176c0-10.002-8.145-18.147-18.176-18.147    c-10.002,0-18.146,8.146-18.146,18.147C1148.386,909.098,1156.53,917.243,1166.532,917.243L1166.532,917.243z" fill="none" stroke="#000000" stroke-linecap="round" stroke-linejoin="round" stroke-miterlimit="10" stroke-width="20.1764"/>

<path d="    M1295.161,922.073c10.002,0,18.175-8.174,18.175-18.176c0-10.003-8.173-18.176-18.175-18.176    c-10.003,0-18.147,8.173-18.147,18.176C1277.014,913.899,1285.158,922.073,1295.161,922.073L1295.161,922.073z" fill="none" stroke="#000000" stroke-linecap="round" stroke-linejoin="round" stroke-miterlimit="10" stroke-width="20.1764"/>

<path d="    M1379.322,836.081c10.002,0,18.146-8.174,18.146-18.176c0-10.003-8.145-18.177-18.146-18.177    c-10.003,0-18.176,8.174-18.176,18.177C1361.146,827.907,1369.319,836.081,1379.322,836.081L1379.322,836.081z" fill="none" stroke="#000000" stroke-linecap="round" stroke-linejoin="round" stroke-miterlimit="10" stroke-width="20.1764"/>

<path d="    M1535.07,816.79c10.002,0,18.176-8.173,18.176-18.176c0-10.002-8.174-18.176-18.176-18.176s-18.146,8.174-18.146,18.176    C1516.924,808.617,1525.068,816.79,1535.07,816.79L1535.07,816.79z" fill="none" stroke="#000000" stroke-linecap="round" stroke-linejoin="round" stroke-miterlimit="10" stroke-width="20.1764"/>

<path d="    M1469.398,719.68c10.003,0,18.147-8.173,18.147-18.176s-8.145-18.176-18.147-18.176c-10.03,0-18.175,8.174-18.175,18.176    S1459.368,719.68,1469.398,719.68L1469.398,719.68z" fill="none" stroke="#000000" stroke-linecap="round" stroke-linejoin="round" stroke-miterlimit="10" stroke-width="20.1764"/>

<path d="    M1392.296,663.323c10.002,0,18.147-8.145,18.147-18.147c0-10.031-8.146-18.176-18.147-18.176s-18.175,8.145-18.175,18.176    C1374.121,655.179,1382.294,663.323,1392.296,663.323L1392.296,663.323z" fill="none" stroke="#000000" stroke-linecap="round" stroke-linejoin="round" stroke-miterlimit="10" stroke-width="20.1764"/>

</g>

<g>

<path d="    M787.754,560C907.18,560,1004,649.165,1004,759.192c0,96.166-101.707,259.864-214.361,259.864    c-111.081,0-218.133-163.841-218.133-259.864C571.506,649.165,668.327,560,787.754,560L787.754,560z" fill="none" stroke="#000000" stroke-linecap="round" stroke-linejoin="round" stroke-miterlimit="10" stroke-width="20.1764"/>

<path d="    M714.566,729.441c32.179,27.292,49.268,59.987,38.18,73.076c-11.089,13.06-46.153,1.543-78.331-25.75    c-32.15-27.292-49.24-60.015-38.18-73.075C647.323,690.604,682.387,702.149,714.566,729.441L714.566,729.441z" fill="none" stroke="#000000" stroke-linecap="round" stroke-linejoin="round" stroke-miterlimit="10" stroke-width="20.1764"/>

<path d="    M855.91,729.441c-32.178,27.292-49.268,59.987-38.18,73.076c11.09,13.06,46.154,1.543,78.303-25.75    c32.18-27.292,49.27-60.015,38.182-73.075C923.125,690.604,888.061,702.149,855.91,729.441L855.91,729.441z" fill="none" stroke="#000000" stroke-linecap="round" stroke-linejoin="round" stroke-miterlimit="10" stroke-width="20.1764"/>

<line fill="none" stroke="#000000" stroke-linecap="round" stroke-linejoin="round" stroke-miterlimit="10" stroke-width="20.1764" x1="755.489" x2="755.489" y1="878.107" y2="877.849"/>

<line fill="none" stroke="#000000" stroke-linecap="round" stroke-linejoin="round" stroke-miterlimit="10" stroke-width="20.1764" x1="815.988" x2="815.988" y1="878.107" y2="877.849"/>

</g>

<g>

<path d="    M183.502,643.011c39.38,9.459,82.647,26.006,125.885,49.298c126.284,67.96,204.673,167.584,175.124,222.512    c-16.29,30.265-61.928,40.639-120.741,32.522 M298.242,932.168c-30.864-9.745-63.385-23.435-95.907-40.953    C76.079,823.255-2.338,723.631,27.24,668.703c16.775-31.151,64.671-41.239,126.028-31.722" fill="none" stroke="#000000" stroke-linecap="round" stroke-linejoin="round" stroke-miterlimit="10" stroke-width="20.1764"/>

<path d="    M123.232,761.583c-10.974-15.976-14.746-30.179-9.288-40.324c14.604-27.121,89.906-14.975,168.208,27.149    c26.406,14.204,49.754,30.007,68.559,45.754 M371.944,813.882c22.747,23.806,33.121,45.84,25.491,59.986    c-14.604,27.149-89.906,15.003-168.208-27.15c-37.637-20.262-69.129-43.782-90.048-65.759" fill="none" stroke="#000000" stroke-linecap="round" stroke-linejoin="round" stroke-miterlimit="10" stroke-width="20.1764"/>

<path d="    M267.578,775.472c12.231,6.573,16.804,21.777,10.23,33.98c-6.572,12.231-21.805,16.775-34.007,10.23    c-12.203-6.572-16.775-21.805-10.202-34.008C240.172,773.472,255.375,768.899,267.578,775.472L267.578,775.472z" fill="none" stroke="#000000" stroke-linecap="round" stroke-linejoin="round" stroke-miterlimit="10" stroke-width="20.1764"/>

<line fill="none" stroke="#000000" stroke-linecap="round" stroke-linejoin="round" stroke-miterlimit="10" stroke-width="20.1764" x1="328.763" x2="328.849" y1="941.313" y2="941.142"/>

</g>

<g>

<path d="    M-273.813,797.202c66.157,0,120.111-53.956,120.111-120.115c0-66.131-53.954-120.087-120.111-120.087    c-66.129,0-120.084,53.956-120.084,120.087C-393.897,743.246-339.943,797.202-273.813,797.202L-273.813,797.202z" fill="none" stroke="#000000" stroke-linecap="round" stroke-linejoin="round" stroke-miterlimit="10" stroke-width="20.1764"/>

<path d="    M-202.112,773.453c-20.005,14.918-44.81,23.749-71.701,23.749c-26.863,0-51.669-8.83-71.673-23.749    c21.376-4.772,45.781-7.516,71.702-7.516C-247.894,765.937-223.488,768.681-202.112,773.453L-202.112,773.453z" fill="none" stroke="#000000" stroke-linecap="round" stroke-linejoin="round" stroke-miterlimit="10" stroke-width="20.1764"/>

<path d="    M-208.399,631.847c10.06,13.546,16.003,30.322,16.003,48.469c0,15.375-4.286,29.75-11.688,42.011h-139.431    c-7.43-12.26-11.688-26.635-11.688-42.011c0-18.147,5.944-34.923,16.003-48.469H-208.399z" fill="none" stroke="#000000" stroke-linecap="round" stroke-linejoin="round" stroke-miterlimit="10" stroke-width="20.1764"/>

<path d="    M-319.281,663.455c-5.287,6.944-5.229,11.688-1.657,20.062" fill="none" stroke="#000000" stroke-linecap="round" stroke-linejoin="round" stroke-miterlimit="10" stroke-width="20.1764"/>

<path d="    M-231.376,564.716c-10.517,12.203-26.12,19.948-43.495,19.948c-17.09,0-32.436-7.488-42.953-19.348    c13.632-5.373,28.492-8.316,44.01-8.316C-258.868,557-244.579,559.744-231.376,564.716L-231.376,564.716z" fill="none" stroke="#000000" stroke-linecap="round" stroke-linejoin="round" stroke-miterlimit="10" stroke-width="20.1764"/>

<path d="    M-402.014,719.955h16.004c6.715,17.633,17.518,33.265,31.207,45.783c-4.258-3.858-8.202-8.031-11.86-12.489    c-22.748,1.429-43.667,9.831-60.699,23.063v-31.007C-427.362,731.357-415.959,719.955-402.014,719.955L-402.014,719.955z     M-354.803,765.766c1.086,0.972,2.201,1.943,3.315,2.915C-352.603,767.709-353.717,766.737-354.803,765.766L-354.803,765.766z     M-351.431,768.738c0.543,0.458,1.086,0.915,1.629,1.343C-350.345,769.652-350.888,769.195-351.431,768.738L-351.431,768.738z     M-349.745,770.138c1.115,0.915,2.258,1.8,3.401,2.687C-347.487,771.938-348.63,771.053-349.745,770.138L-349.745,770.138z     M-346.173,772.939c0.572,0.429,1.143,0.857,1.686,1.257C-345.03,773.796-345.601,773.368-346.173,772.939L-346.173,772.939z     M-344.458,774.225c0.6,0.429,1.2,0.857,1.8,1.286C-343.258,775.083-343.858,774.654-344.458,774.225L-344.458,774.225z     M-342.629,775.511c0.543,0.4,1.114,0.8,1.686,1.171C-341.515,776.311-342.086,775.911-342.629,775.511L-342.629,775.511z     M-340.714,776.854c1.172,0.772,2.372,1.543,3.572,2.287C-338.342,778.397-339.542,777.626-340.714,776.854L-340.714,776.854z     M-336.914,779.283c0.543,0.343,1.058,0.657,1.601,0.972C-335.856,779.94-336.371,779.626-336.914,779.283L-336.914,779.283z     M-335.027,780.426c1.2,0.715,2.4,1.4,3.629,2.086C-332.627,781.827-333.827,781.141-335.027,780.426L-335.027,780.426z     M-331.055,782.684c0.515,0.286,1.058,0.572,1.601,0.857C-329.998,783.256-330.541,782.97-331.055,782.684L-331.055,782.684z     M-329.198,783.685c0.629,0.314,1.258,0.657,1.886,0.972C-327.94,784.342-328.569,783.999-329.198,783.685L-329.198,783.685z     M-327.14,784.713c0.543,0.286,1.115,0.571,1.687,0.829C-326.025,785.285-326.597,784.999-327.14,784.713L-327.14,784.713z     M-325.054,785.742c0.571,0.257,1.143,0.543,1.715,0.8C-323.911,786.285-324.482,786-325.054,785.742L-325.054,785.742z     M-323.167,786.6c0.628,0.286,1.286,0.571,1.915,0.857C-321.882,787.171-322.539,786.885-323.167,786.6L-323.167,786.6z     M-320.91,787.6c0.543,0.229,1.058,0.457,1.601,0.657C-319.853,788.057-320.367,787.829-320.91,787.6L-320.91,787.6z     M-318.881,788.458c1.286,0.514,2.572,1,3.858,1.485C-316.309,789.458-317.595,788.971-318.881,788.458L-318.881,788.458z     M-314.537,790.115c0.514,0.171,1.029,0.371,1.543,0.543C-313.508,790.486-314.023,790.286-314.537,790.115L-314.537,790.115z     M-312.537,790.8c0.657,0.229,1.314,0.457,1.972,0.657C-311.222,791.257-311.879,791.029-312.537,790.8L-312.537,790.8z     M-310.365,791.515c0.6,0.2,1.171,0.371,1.772,0.543C-309.193,791.886-309.765,791.715-310.365,791.515L-310.365,791.515z     M-308.05,792.229c0.543,0.172,1.086,0.314,1.629,0.486C-306.964,792.543-307.507,792.401-308.05,792.229L-308.05,792.229z     M-306.05,792.801c0.658,0.2,1.315,0.371,2,0.543C-304.735,793.172-305.392,793.001-306.05,792.801L-306.05,792.801z     M-303.621,793.458c0.543,0.143,1.058,0.257,1.601,0.399C-302.563,793.715-303.078,793.601-303.621,793.458L-303.621,793.458z     M-301.449,794.001c0.6,0.143,1.2,0.285,1.801,0.399C-300.249,794.287-300.849,794.144-301.449,794.001L-301.449,794.001z     M-299.419,794.458c0.686,0.143,1.343,0.286,2.029,0.429C-298.076,794.745-298.734,794.601-299.419,794.458L-299.419,794.458z     M-296.848,794.973c0.543,0.114,1.058,0.2,1.572,0.314C-295.79,795.173-296.305,795.087-296.848,794.973L-296.848,794.973z     M-294.704,795.373c0.686,0.115,1.372,0.229,2.058,0.344C-293.333,795.602-294.019,795.488-294.704,795.373L-294.704,795.373z     M-292.475,795.745c0.628,0.114,1.257,0.2,1.886,0.286C-291.218,795.945-291.847,795.859-292.475,795.745L-292.475,795.745z     M-289.989,796.116c0.543,0.058,1.086,0.144,1.657,0.2C-288.903,796.259-289.446,796.173-289.989,796.116L-289.989,796.116z     M-287.846,796.374c0.686,0.086,1.372,0.171,2.086,0.229C-286.474,796.544-287.16,796.459-287.846,796.374L-287.846,796.374z     M-285.359,796.63c0.572,0.058,1.143,0.114,1.743,0.172C-284.216,796.745-284.788,796.688-285.359,796.63L-285.359,796.63z     M-283.016,796.831c0.6,0.057,1.2,0.086,1.8,0.143C-281.816,796.917-282.416,796.887-283.016,796.831L-283.016,796.831z     M-280.873,797.002c0.686,0.028,1.4,0.057,2.115,0.085C-279.472,797.059-280.187,797.031-280.873,797.002L-280.873,797.002z     M-278.187,797.117c0.543,0.028,1.086,0.028,1.629,0.057C-277.101,797.145-277.644,797.145-278.187,797.117L-278.187,797.117z     M-275.958,797.173c0.714,0,1.429,0.028,2.144,0.028c0.714,0,1.429-0.028,2.143-0.028c-0.714,0-1.429,0.028-2.143,0.028    C-274.528,797.202-275.243,797.173-275.958,797.173L-275.958,797.173z M-271.042,797.173c0.543-0.028,1.086-0.028,1.629-0.057    C-269.956,797.145-270.499,797.145-271.042,797.173L-271.042,797.173z M-268.842,797.087c0.715-0.028,1.43-0.057,2.115-0.085    C-267.412,797.031-268.127,797.059-268.842,797.087L-268.842,797.087z M-266.384,796.973c0.601-0.028,1.2-0.086,1.801-0.143    C-265.184,796.887-265.783,796.945-266.384,796.973L-266.384,796.973z M-263.983,796.802c0.571-0.058,1.144-0.114,1.743-0.172    C-262.84,796.688-263.412,796.745-263.983,796.802L-263.983,796.802z M-261.84,796.602c0.686-0.058,1.4-0.143,2.086-0.229    C-260.439,796.459-261.154,796.544-261.84,796.602L-261.84,796.602z M-259.239,796.316c0.543-0.057,1.086-0.143,1.629-0.2    C-258.153,796.173-258.696,796.259-259.239,796.316L-259.239,796.316z M-257.039,796.031c0.657-0.086,1.314-0.2,1.972-0.286    C-255.725,795.831-256.382,795.945-257.039,796.031L-257.039,796.031z M-254.953,795.716c0.687-0.114,1.372-0.229,2.058-0.344    C-253.581,795.488-254.267,795.602-254.953,795.716L-254.953,795.716z M-252.353,795.288c0.515-0.114,1.058-0.2,1.601-0.314    C-251.295,795.087-251.838,795.173-252.353,795.288L-252.353,795.288z M-250.209,794.887c0.687-0.143,1.344-0.286,2.029-0.429    C-248.865,794.601-249.522,794.745-250.209,794.887L-250.209,794.887z M-247.979,794.401c0.6-0.114,1.2-0.257,1.829-0.399    C-246.779,794.144-247.38,794.287-247.979,794.401L-247.979,794.401z M-245.579,793.858c0.543-0.143,1.086-0.257,1.629-0.399    C-244.493,793.601-245.036,793.715-245.579,793.858L-245.579,793.858z M-243.55,793.344c0.657-0.172,1.314-0.343,2-0.543    C-242.235,793.001-242.893,793.172-243.55,793.344L-243.55,793.344z M-241.179,792.715c0.543-0.172,1.087-0.314,1.63-0.486    C-240.092,792.401-240.636,792.543-241.179,792.715L-241.179,792.715z M-239.006,792.086c0.6-0.2,1.2-0.371,1.8-0.571    C-237.806,791.715-238.406,791.886-239.006,792.086L-239.006,792.086z M-237.063,791.458c0.687-0.2,1.344-0.429,2.001-0.657    C-235.72,791.029-236.377,791.257-237.063,791.458L-237.063,791.458z M-234.662,790.658c0.543-0.172,1.086-0.372,1.6-0.543    C-233.576,790.286-234.119,790.486-234.662,790.658L-234.662,790.658z M-232.604,789.943c1.314-0.485,2.601-0.972,3.886-1.485    C-230.004,788.971-231.29,789.458-232.604,789.943L-232.604,789.943z M-228.318,788.286c0.571-0.229,1.114-0.457,1.657-0.715    C-227.204,787.829-227.747,788.057-228.318,788.286L-228.318,788.286z M-226.375,787.457c0.657-0.257,1.286-0.543,1.943-0.857    C-225.089,786.914-225.718,787.2-226.375,787.457L-226.375,787.457z M-224.289,786.542c0.572-0.257,1.172-0.543,1.772-0.829    C-223.117,786-223.717,786.285-224.289,786.542L-224.289,786.542z M-222.174,785.571c0.6-0.286,1.172-0.572,1.771-0.886    C-221.002,784.999-221.574,785.285-222.174,785.571L-222.174,785.571z M-220.316,784.656c0.657-0.314,1.286-0.657,1.915-0.972    C-219.03,783.999-219.659,784.342-220.316,784.656L-220.316,784.656z M-218.202,783.57c0.572-0.314,1.144-0.6,1.715-0.915    C-217.059,782.97-217.63,783.256-218.202,783.57L-218.202,783.57z M-216.259,782.513c1.258-0.657,2.486-1.372,3.716-2.115    C-213.772,781.141-215.001,781.855-216.259,782.513L-216.259,782.513z M-212.314,780.284c0.543-0.343,1.114-0.686,1.686-1.029    C-211.2,779.598-211.771,779.94-212.314,780.284L-212.314,780.284z M-210.485,779.169c1.229-0.771,2.429-1.543,3.629-2.343    C-208.057,777.626-209.257,778.397-210.485,779.169L-210.485,779.169z M-206.714,776.711c1.801-1.229,3.572-2.486,5.315-3.801    C-203.142,774.225-204.913,775.482-206.714,776.711L-206.714,776.711z M-201.313,772.853c17.747-13.46,31.636-31.75,39.723-52.898    h16.004c13.917,0,25.349,11.403,25.349,25.349v31.579c-16.976-13.432-37.923-22.005-60.728-23.577    C-186.967,760.593-193.797,767.138-201.313,772.853L-201.313,772.853z" fill="none" stroke="#000000" stroke-linecap="round" stroke-linejoin="round" stroke-miterlimit="10" stroke-width="20.1764"/>

<path d="    M-180.965,753.306C-123.667,757.278-78,805.404-78,863.675v158.354h-392.314V863.675c0-58.5,46.01-106.769,103.651-110.427    c22.034,26.835,55.441,43.953,92.85,43.953C-236.405,797.202-202.998,780.112-180.965,753.306L-180.965,753.306z" fill="none" stroke="#000000" stroke-linecap="round" stroke-linejoin="round" stroke-miterlimit="10" stroke-width="20.1764"/>

<path d="    M-470.314,882.566v-18.891c0-13.003,2.286-25.521,6.458-37.151h34.865v56.042H-470.314z" fill="none" stroke="#000000" stroke-linecap="round" stroke-linejoin="round" stroke-miterlimit="10" stroke-width="20.1764"/>

<rect fill="none" height="89.394" stroke="#000000" stroke-linecap="round" stroke-linejoin="round" stroke-miterlimit="10" stroke-width="20.1764" width="168.123" x="-357.89" y="877.022"/>

<line fill="none" stroke="#000000" stroke-linecap="round" stroke-linejoin="round" stroke-miterlimit="10" stroke-width="20.1764" x1="-357.89" x2="-189.767" y1="907.915" y2="907.915"/>

<line fill="none" stroke="#000000" stroke-linecap="round" stroke-linejoin="round" stroke-miterlimit="10" stroke-width="20.1764" x1="-234.806" x2="-234.806" y1="930.606" y2="930.377"/>

<line fill="none" stroke="#000000" stroke-linecap="round" stroke-linejoin="round" stroke-miterlimit="10" stroke-width="20.1764" x1="-357.89" x2="-273.843" y1="934.607" y2="934.607"/>

<line fill="none" stroke="#000000" stroke-linecap="round" stroke-linejoin="round" stroke-miterlimit="10" stroke-width="20.1764" x1="-398.041" x2="-398.041" y1="914.602" y2="1017.742"/>

<line fill="none" stroke="#000000" stroke-linecap="round" stroke-linejoin="round" stroke-miterlimit="10" stroke-width="20.1764" x1="-148.958" x2="-148.958" y1="914.602" y2="1019.057"/>

</g>

<g>

<path d="    M-276.237,1545c123.228,0,223.764-100.539,223.764-223.769c0-123.259-100.536-223.77-223.764-223.77    c-123.255,0-223.763,100.51-223.763,223.77C-500,1444.461-399.492,1545-276.237,1545L-276.237,1545z" fill="none" stroke="#000000" stroke-linecap="round" stroke-linejoin="round" stroke-miterlimit="10" stroke-width="20.1764"/>

<path d="    M-119.746,1161.306c41.495,40.61,67.272,97.252,67.272,159.925c0,0.942-0.029,1.886-0.058,2.857    c-0.285,12.604-2.429,33.694-6.229,49.898c-0.2,0.886-0.429,1.8-0.657,2.686l0,0l-80.618-16.518    c16.946,46.183,10.06,71.646-22.69,74.59c-34.607-3.001-69.187-20.806-103.794-58.386c-16.747,40.267-48.097,33.522-50.269,77.019    l10.545,89.622l-0.029-0.028c-4.058-0.543-8.087-1.2-12.088-1.943l-0.686-0.144c-5.287-1.028-10.488-2.229-15.604-3.601    l-0.657-0.2c-5.144-1.4-10.203-2.972-15.204-4.715l-0.543-0.2c-5.001-1.772-9.945-3.744-14.774-5.858l-0.458-0.2    c-4.858-2.115-9.63-4.43-14.289-6.888l-0.372-0.2c-4.687-2.486-9.288-5.144-13.774-7.944l-0.257-0.172    c-4.487-2.829-8.888-5.802-13.174-8.945l-0.2-0.143c-4.315-3.144-8.516-6.459-12.574-9.917l-0.085-0.057    c-33.865-28.75-59.042-67.417-71.073-111.514h-0.029l71.559-62.358c47.553-12.146,59.442,14.889,89.191-9.717    c16.632-35.552-0.714-92.823-38.923-90.793l-58.384,16.204l-34.865-34.894c3.943-6.001,8.145-11.832,12.631-17.404l0.058-0.086    c1.314-1.629,2.629-3.229,3.972-4.801l0.143-0.171c0.886-1.029,1.772-2.058,2.687-3.086l0.372-0.429    c1.2-1.343,2.4-2.687,3.629-4.001c0.2-0.2,0.372-0.4,0.571-0.6c0.857-0.915,1.743-1.829,2.601-2.744    c0.286-0.286,0.543-0.543,0.8-0.8c1.029-1.029,2.029-2.058,3.058-3.086c0.4-0.372,0.8-0.743,1.172-1.143    c0.829-0.8,1.658-1.572,2.486-2.343c0.457-0.429,0.886-0.857,1.343-1.257c0.771-0.715,1.543-1.429,2.314-2.115    c0.629-0.571,1.286-1.143,1.915-1.686c0.743-0.686,1.515-1.314,2.257-1.972c0.657-0.543,1.286-1.086,1.915-1.629    c0.628-0.515,1.286-1.058,1.915-1.572c0.743-0.629,1.515-1.229,2.286-1.829c0.686-0.543,1.372-1.086,2.058-1.629    c0.829-0.658,1.686-1.315,2.543-1.943c0.486-0.372,1-0.743,1.486-1.115c0.886-0.657,1.772-1.314,2.658-1.943    c0.601-0.429,1.172-0.829,1.772-1.257c0.972-0.686,1.943-1.343,2.915-2.029c0.457-0.286,0.915-0.6,1.343-0.886    c1-0.686,2-1.343,3-1.972c0.514-0.343,1.029-0.657,1.543-1c1.058-0.686,2.144-1.372,3.258-2.029    c0.4-0.257,0.829-0.514,1.229-0.743c1.086-0.657,2.201-1.315,3.287-1.943c0.429-0.257,0.857-0.515,1.286-0.743    c1.2-0.686,2.429-1.372,3.629-2.058c0.371-0.171,0.743-0.372,1.086-0.572c1.2-0.628,2.4-1.286,3.601-1.886    c0.372-0.2,0.714-0.371,1.057-0.543c1.315-0.686,2.629-1.343,3.944-1.972c0.343-0.171,0.686-0.314,1.029-0.486    c1.257-0.6,2.543-1.2,3.83-1.8c0.286-0.114,0.571-0.257,0.886-0.4c1.372-0.628,2.772-1.229,4.201-1.829    c0.314-0.143,0.628-0.286,0.972-0.429c1.314-0.543,2.658-1.086,3.972-1.6c0.286-0.114,0.543-0.229,0.829-0.343    c25.663,17.833,46.811,43.811,55.813,91.623c29.178-3.258,50.468-43.354,82.36-21.348    C-185.703,1202.173-151.009,1182.197-119.746,1161.306L-119.746,1161.306z" fill="none" stroke="#000000" stroke-linecap="round" stroke-linejoin="round" stroke-miterlimit="10" stroke-width="20.1764"/>

</g>

<g>

<path d="    M258.5,1148.109L258.5,1148.109c77.218,0,140.402,63.187,140.402,140.435v108.913c0,13.718-2,27.007-5.715,39.581l9.059,2.144    c31.149,7.373,50.583,38.924,43.181,70.046l0,0c-7.401,31.15-38.923,50.584-70.072,43.21l-47.896-11.374    c-8.573-2.029-16.261-5.916-22.719-11.088c-14.518,5.115-30.063,7.887-46.239,7.887l0,0c-15.917,0-31.207-2.686-45.495-7.602    c-6.401,5.03-13.975,8.803-22.405,10.803l-47.896,11.374c-31.15,7.374-62.671-12.06-70.073-43.21l0,0    c-7.373-31.122,12.06-62.673,43.181-70.046l8.059-1.915c-3.772-12.632-5.801-26.007-5.801-39.81v-108.913    C118.069,1211.296,181.254,1148.109,258.5,1148.109L258.5,1148.109z" fill="none" stroke="#000000" stroke-linecap="round" stroke-linejoin="round" stroke-miterlimit="10" stroke-width="20.1764"/>

<path d="    M259.585,1368.563c34.979,0,63.5-28.521,63.5-63.501c0-34.951-28.521-63.473-63.5-63.473c-34.95,0-63.471,28.521-63.471,63.473    C196.115,1340.042,224.635,1368.563,259.585,1368.563L259.585,1368.563z" fill="none" stroke="#000000" stroke-linecap="round" stroke-linejoin="round" stroke-miterlimit="10" stroke-width="20.1764"/>

<path d="    M259.585,1331.526c14.575,0,26.463-11.889,26.463-26.464c0-14.546-11.888-26.435-26.463-26.435    c-14.574,0-26.434,11.889-26.434,26.435C233.151,1319.637,245.011,1331.526,259.585,1331.526L259.585,1331.526z" fill="none" stroke="#000000" stroke-linecap="round" stroke-linejoin="round" stroke-miterlimit="10" stroke-width="20.1764"/>

<path d="    M187.284,1225.271c47.925-30.464,95.821-28.292,143.746,0" fill="none" stroke="#000000" stroke-linecap="round" stroke-linejoin="round" stroke-miterlimit="10" stroke-width="20.1764"/>

<line fill="none" stroke="#000000" stroke-linecap="round" stroke-linejoin="round" stroke-miterlimit="10" stroke-width="20.1764" x1="159.078" x2="159.078" y1="1134.22" y2="1185.604"/>

<path d="    M160.65,1132.791c12.631,0,22.948-10.288,22.948-22.92c0-12.631-10.316-22.92-22.948-22.92c-12.603,0-22.919,10.289-22.919,22.92    C137.73,1122.503,148.047,1132.791,160.65,1132.791L160.65,1132.791z" fill="none" stroke="#000000" stroke-linecap="round" stroke-linejoin="round" stroke-miterlimit="10" stroke-width="20.1764"/>

<line fill="none" stroke="#000000" stroke-linecap="round" stroke-linejoin="round" stroke-miterlimit="10" stroke-width="20.1764" x1="358.951" x2="358.951" y1="1134.22" y2="1185.604"/>

<path d="    M360.522,1132.791c12.632,0,22.948-10.288,22.948-22.92c0-12.631-10.316-22.92-22.948-22.92c-12.603,0-22.919,10.289-22.919,22.92    C337.603,1122.503,347.919,1132.791,360.522,1132.791L360.522,1132.791z" fill="none" stroke="#000000" stroke-linecap="round" stroke-linejoin="round" stroke-miterlimit="10" stroke-width="20.1764"/>

<path d="    M314.626,1406.087v1.743c0,31.465-25.748,57.242-57.212,57.242l0,0c-31.493,0-57.241-25.777-57.241-57.242v-1.743H314.626z" fill="none" stroke="#000000" stroke-linecap="round" stroke-linejoin="round" stroke-miterlimit="10" stroke-width="20.1764"/>

</g>

<g>

<path d="    M780.998,1089h35.809c25.262,0,45.895,20.663,45.895,45.897v215.91l-2.457-3.429h-43.953v52.813h-35.293    c-0.6,0-1.199-0.028-1.771-0.057v-52.756h-43.953l-0.171,0.257v-212.738C735.103,1109.663,755.764,1089,780.998,1089L780.998,1089    z" fill="none" stroke="#000000" stroke-linecap="round" stroke-linejoin="round" stroke-miterlimit="10" stroke-width="20.1764"/>

<path d="    M772.053,1161.761h54.269c3.086,0,5.602,2.515,5.602,5.602v24.063c0,3.058-2.516,5.602-5.602,5.602h-54.269    c-3.086,0-5.601-2.543-5.601-5.602v-24.063C766.452,1164.276,768.967,1161.761,772.053,1161.761L772.053,1161.761z" fill="none" stroke="#000000" stroke-linecap="round" stroke-linejoin="round" stroke-miterlimit="10" stroke-width="20.1764"/>

<polygon fill="none" points="    674.518,1431.884 735.274,1347.378 779.227,1347.378 779.227,1431.884   " stroke="#000000" stroke-linecap="round" stroke-linejoin="round" stroke-miterlimit="10" stroke-width="20.1764"/>

<polygon fill="none" points="    921,1431.884 860.244,1347.378 816.291,1347.378 816.291,1431.884   " stroke="#000000" stroke-linecap="round" stroke-linejoin="round" stroke-miterlimit="10" stroke-width="20.1764"/>

<line fill="none" stroke="#000000" stroke-linecap="round" stroke-linejoin="round" stroke-miterlimit="10" stroke-width="20.1764" x1="798.916" x2="798.717" y1="1257.584" y2="1310.769"/>

<line fill="none" stroke="#000000" stroke-linecap="round" stroke-linejoin="round" stroke-miterlimit="10" stroke-width="20.1764" x1="727.043" x2="727.043" y1="1455.347" y2="1526.994"/>

<line fill="none" stroke="#000000" stroke-linecap="round" stroke-linejoin="round" stroke-miterlimit="10" stroke-width="20.1764" x1="801.688" x2="801.688" y1="1455.347" y2="1513.276"/>

<line fill="none" stroke="#000000" stroke-linecap="round" stroke-linejoin="round" stroke-miterlimit="10" stroke-width="20.1764" x1="801.688" x2="801.688" y1="1541.912" y2="1555.916"/>

<line fill="none" stroke="#000000" stroke-linecap="round" stroke-linejoin="round" stroke-miterlimit="10" stroke-width="20.1764" x1="876.305" x2="876.305" y1="1455.347" y2="1526.994"/>

<line fill="none" stroke="#000000" stroke-linecap="round" stroke-linejoin="round" stroke-miterlimit="10" stroke-width="20.1764" x1="764.366" x2="764.366" y1="1455.347" y2="1463.378"/>

<line fill="none" stroke="#000000" stroke-linecap="round" stroke-linejoin="round" stroke-miterlimit="10" stroke-width="20.1764" x1="764.366" x2="764.366" y1="1492.671" y2="1544.426"/>

<line fill="none" stroke="#000000" stroke-linecap="round" stroke-linejoin="round" stroke-miterlimit="10" stroke-width="20.1764" x1="735.103" x2="862.701" y1="1223.919" y2="1223.919"/>

<line fill="none" stroke="#000000" stroke-linecap="round" stroke-linejoin="round" stroke-miterlimit="10" stroke-width="20.1764" x1="834.953" x2="834.953" y1="1455.347" y2="1463.378"/>

<line fill="none" stroke="#000000" stroke-linecap="round" stroke-linejoin="round" stroke-miterlimit="10" stroke-width="20.1764" x1="834.953" x2="834.953" y1="1492.671" y2="1544.426"/>

</g>

<g>

<path d="    M1438.128,1086.896L1438.128,1086.896c8.001-4.229,17.975-1.143,22.204,6.859l44.41,84.049c4.201,7.974,1.114,17.976-6.858,22.206    l0,0c-8.002,4.201-17.976,1.143-22.205-6.859l-44.41-84.049C1427.068,1101.1,1430.154,1091.126,1438.128,1086.896    L1438.128,1086.896z" fill="none" stroke="#000000" stroke-linecap="round" stroke-linejoin="round" stroke-miterlimit="10" stroke-width="20.1478"/>

<polygon fill="none" points="    1188.673,1257.824 1431.269,1109.102 1475.679,1193.151 1216.078,1309.723   " stroke="#000000" stroke-linecap="round" stroke-linejoin="round" stroke-miterlimit="10" stroke-width="20.1478"/>

<path d="    M1157.523,1288.718l37.094-19.605l16.604,31.408l-37.123,19.605c-0.027-0.114-0.085-0.2-0.143-0.286L1157.523,1288.718z" fill="none" stroke="#000000" stroke-linecap="round" stroke-linejoin="round" stroke-miterlimit="10" stroke-width="20.1478"/>

<path d="    M1138.49,1282.859L1138.49,1282.859c6.859-3.629,15.403-1,19.033,5.859l16.432,31.122c3.629,6.859,1,15.433-5.858,19.033l0,0    c-6.858,3.63-15.403,0.972-19.032-5.858l-16.433-31.15C1129.002,1295.034,1131.632,1286.46,1138.49,1282.859L1138.49,1282.859z" fill="none" stroke="#000000" stroke-linecap="round" stroke-linejoin="round" stroke-miterlimit="10" stroke-width="20.1478"/>

<rect fill="none" height="34.551" stroke="#000000" stroke-linecap="round" stroke-linejoin="round" stroke-miterlimit="10" stroke-width="20.1478" width="61.699" x="1312.1" y="1306.036"/>

<polyline fill="none" points="    1287.408,1552.811 1342.936,1340.587 1394.775,1554.041   " stroke="#000000" stroke-linecap="round" stroke-linejoin="round" stroke-miterlimit="10" stroke-width="20.1478"/>

<line fill="none" stroke="#000000" stroke-linecap="round" stroke-linejoin="round" stroke-miterlimit="10" stroke-width="20.1478" x1="1342.649" x2="1342.649" y1="1558.356" y2="1351.047"/>

<line fill="none" stroke="#000000" stroke-linecap="round" stroke-linejoin="round" stroke-miterlimit="10" stroke-width="20.1478" x1="1342.649" x2="1342.649" y1="1301.435" y2="1258.91"/>

</g>

<g>

<path d="    M1853.079,1227.991c71.759,0,129.914,58.157,129.914,129.889c0,40.725-18.747,77.048-48.039,100.854    c14.089-17.347,22.548-39.467,22.548-63.559c0-55.671-45.124-100.825-100.793-100.825c-55.698,0-100.822,45.154-100.822,100.825    c0,31.122,14.117,58.957,36.265,77.448c-41.009-21.834-68.957-65.017-68.957-114.743    C1723.194,1286.148,1781.349,1227.991,1853.079,1227.991L1853.079,1227.991z" fill="none" stroke="#000000" stroke-linecap="round" stroke-linejoin="round" stroke-miterlimit="10" stroke-width="20.1478"/>

<path d="    M1856.709,1496c55.526,0,100.793-45.297,100.793-100.825c0-55.527-45.267-100.825-100.793-100.825    s-100.822,45.297-100.822,100.825C1755.887,1450.703,1801.183,1496,1856.709,1496L1856.709,1496z" fill="none" stroke="#000000" stroke-linecap="round" stroke-linejoin="round" stroke-miterlimit="10" stroke-width="20.1478"/>

<line fill="none" stroke="#000000" stroke-linecap="round" stroke-linejoin="round" stroke-miterlimit="10" stroke-width="20.1478" x1="1803.011" x2="1954.759" y1="1318.642" y2="1371.684"/>

<line fill="none" stroke="#000000" stroke-linecap="round" stroke-linejoin="round" stroke-miterlimit="10" stroke-width="20.1478" x1="1764.574" x2="1954.587" y1="1354.137" y2="1419.409"/>

<line fill="none" stroke="#000000" stroke-linecap="round" stroke-linejoin="round" stroke-miterlimit="10" stroke-width="20.1478" x1="1757.173" x2="1924.523" y1="1411.293" y2="1469.765"/>

<line fill="none" stroke="#000000" stroke-linecap="round" stroke-linejoin="round" stroke-miterlimit="10" stroke-width="20.1478" x1="1680.527" x2="1621" y1="1350.106" y2="1350.106"/>

<line fill="none" stroke="#000000" stroke-linecap="round" stroke-linejoin="round" stroke-miterlimit="10" stroke-width="20.1478" x1="1853.107" x2="1853.107" y1="1135.14" y2="1191.067"/>

<line fill="none" stroke="#000000" stroke-linecap="round" stroke-linejoin="round" stroke-miterlimit="10" stroke-width="20.1478" x1="2082.701" x2="2023.146" y1="1350.335" y2="1350.335"/>

<line fill="none" stroke="#000000" stroke-linecap="round" stroke-linejoin="round" stroke-miterlimit="10" stroke-width="20.1478" x1="1727.022" x2="1677.784" y1="1246.596" y2="1213.13"/>

<line fill="none" stroke="#000000" stroke-linecap="round" stroke-linejoin="round" stroke-miterlimit="10" stroke-width="20.1478" x1="1978.479" x2="2027.718" y1="1246.596" y2="1213.13"/>

</g>

</g>

</svg>