<?xml version="1.0" ?>

<!DOCTYPE svg  PUBLIC '-//W3C//DTD SVG 1.1//EN'  'http://www.w3.org/Graphics/SVG/1.1/DTD/svg11.dtd'>


<svg width="800px" height="800px" viewBox="0 0 512 512" enable-background="new 0 0 512 512" version="1.1" xml:space="preserve" xmlns="http://www.w3.org/2000/svg" xmlns:xlink="http://www.w3.org/1999/xlink">

<g id="_x30_1"/>

<g id="_x30_2"/>

<g id="_x30_3"/>

<g id="_x30_4"/>

<g id="_x30_5"/>

<g id="_x30_6"/>

<g id="_x30_7"/>

<g id="_x30_8"/>

<g id="_x30_9"/>

<g id="_x31_0"/>

<g id="_x31_1"/>

<g id="_x31_2"/>

<g id="_x31_3"/>

<g id="_x31_4"/>

<g id="_x31_5"/>

<g id="_x31_6"/>

<g id="_x31_7"/>

<g id="_x31_8"/>

<g id="_x31_9"/>

<g id="_x32_0"/>

<g id="_x32_1"/>

<g id="_x32_2"/>

<g id="_x32_3"/>

<g id="_x32_4"/>

<g id="_x32_5"/>

<g id="_x32_6"/>

<g id="_x32_7"/>

<g id="_x32_8"/>

<g id="_x32_9"/>

<g id="_x33_0"/>

<g id="_x33_1"/>

<g id="_x33_2"/>

<g id="_x33_3"/>

<g id="_x33_4"/>

<g id="_x33_5"/>

<g id="_x33_6"/>

<g id="_x33_7"/>

<g id="_x33_8"/>

<g id="_x33_9"/>

<g id="_x34_0"/>

<g id="_x34_1"/>

<g id="_x34_2"/>

<g id="_x34_3"/>

<g id="_x34_4"/>

<g id="_x34_5"/>

<g id="_x34_6"/>

<g id="_x34_7"/>

<g id="_x34_8"/>

<g id="_x34_9"/>

<g id="_x35_0">

<g>

<path d="    M-1865.499,380.398c-43.863,44.825-115.773,45.611-160.598,1.748c-44.853-43.864-45.64-115.777-1.776-160.603L-1865.499,380.398z" fill="none" stroke="#000000" stroke-linecap="round" stroke-linejoin="round" stroke-miterlimit="10" stroke-width="20.1478"/>

<path d="    M-2030.116,378.039l-39.523,86.971h97.337l-28.251-64.019c-9.145-4.952-17.766-11.214-25.543-18.845    C-2027.494,380.806-2028.805,379.437-2030.116,378.039L-2030.116,378.039z" fill="none" stroke="#000000" stroke-linecap="round" stroke-linejoin="round" stroke-miterlimit="10" stroke-width="20.1478"/>

<line fill="none" stroke="#000000" stroke-linecap="round" stroke-linejoin="round" stroke-miterlimit="10" stroke-width="20.1478" x1="-1894.129" x2="-1941.167" y1="246.563" y2="294.68"/>

<path d="    M-1660.397,400.67c-33.377,34.078-88.046,34.689-122.151,1.311c-34.106-33.35-34.718-88.048-1.34-122.156L-1660.397,400.67z" fill="none" stroke="#000000" stroke-linecap="round" stroke-linejoin="round" stroke-miterlimit="10" stroke-width="20.1478"/>

<path d="    M-1785.607,398.864l-30.058,66.146h74.037l-21.494-48.699c-6.961-3.757-13.515-8.535-19.427-14.33    C-1783.598,400.962-1784.617,399.913-1785.607,398.864L-1785.607,398.864z" fill="none" stroke="#000000" stroke-linecap="round" stroke-linejoin="round" stroke-miterlimit="10" stroke-width="20.1478"/>

<line fill="none" stroke="#000000" stroke-linecap="round" stroke-linejoin="round" stroke-miterlimit="10" stroke-width="20.1478" x1="-1682.183" x2="-1717.979" y1="298.874" y2="335.457"/>

<line fill="none" stroke="#000000" stroke-linecap="round" stroke-linejoin="round" stroke-miterlimit="10" stroke-width="20.1478" x1="-2005.476" x2="-2005.476" y1="284.515" y2="284.224"/>

<line fill="none" stroke="#000000" stroke-linecap="round" stroke-linejoin="round" stroke-miterlimit="10" stroke-width="20.1478" x1="-1977.952" x2="-1977.952" y1="314.572" y2="314.311"/>

<line fill="none" stroke="#000000" stroke-linecap="round" stroke-linejoin="round" stroke-miterlimit="10" stroke-width="20.1478" x1="-1949.729" x2="-1949.729" y1="342.009" y2="341.719"/>

<line fill="none" stroke="#000000" stroke-linecap="round" stroke-linejoin="round" stroke-miterlimit="10" stroke-width="20.1478" x1="-1923.633" x2="-1923.633" y1="366.679" y2="366.417"/>

<line fill="none" stroke="#000000" stroke-linecap="round" stroke-linejoin="round" stroke-miterlimit="10" stroke-width="20.1478" x1="-1759.977" x2="-1759.977" y1="339.622" y2="339.359"/>

<line fill="none" stroke="#000000" stroke-linecap="round" stroke-linejoin="round" stroke-miterlimit="10" stroke-width="20.1478" x1="-1727.881" x2="-1727.881" y1="370.932" y2="370.67"/>

<path d="    M-1718.706,162.971c28.863,0,52.397-23.534,52.397-52.398c0-28.864-23.534-52.398-52.397-52.398    c-28.864,0-52.426,23.534-52.426,52.398C-1771.132,139.437-1747.57,162.971-1718.706,162.971L-1718.706,162.971z" fill="none" stroke="#000000" stroke-linecap="round" stroke-linejoin="round" stroke-miterlimit="10" stroke-width="20.1478"/>

<line fill="none" stroke="#000000" stroke-linecap="round" stroke-linejoin="round" stroke-miterlimit="10" stroke-width="20.1478" x1="-2110.56" x2="-1632" y1="464.631" y2="465.388"/>

<line fill="none" stroke="#000000" stroke-linecap="round" stroke-linejoin="round" stroke-miterlimit="10" stroke-width="20.1478" x1="-1955.642" x2="-1955.642" y1="74.602" y2="74.34"/>

<line fill="none" stroke="#000000" stroke-linecap="round" stroke-linejoin="round" stroke-miterlimit="10" stroke-width="20.1478" x1="-2056.59" x2="-2056.59" y1="73.583" y2="73.291"/>

<line fill="none" stroke="#000000" stroke-linecap="round" stroke-linejoin="round" stroke-miterlimit="10" stroke-width="20.1478" x1="-1985.699" x2="-1985.699" y1="140.107" y2="139.845"/>

<line fill="none" stroke="#000000" stroke-linecap="round" stroke-linejoin="round" stroke-miterlimit="10" stroke-width="20.1478" x1="-1860.839" x2="-1860.839" y1="52.263" y2="52"/>

<line fill="none" stroke="#000000" stroke-linecap="round" stroke-linejoin="round" stroke-miterlimit="10" stroke-width="20.1478" x1="-1792.277" x2="-1792.277" y1="210.243" y2="209.98"/>

<line fill="none" stroke="#000000" stroke-linecap="round" stroke-linejoin="round" stroke-miterlimit="10" stroke-width="20.1478" x1="-1803.054" x2="-1883.207" y1="77.427" y2="166.815"/>

<line fill="none" stroke="#000000" stroke-linecap="round" stroke-linejoin="round" stroke-miterlimit="10" stroke-width="20.1478" x1="-2024.203" x2="-2075.085" y1="99.767" y2="158.34"/>

<line fill="none" stroke="#000000" stroke-linecap="round" stroke-linejoin="round" stroke-miterlimit="10" stroke-width="20.1478" x1="-1641.99" x2="-1675.892" y1="193.786" y2="230.777"/>

</g>

<g>

<path d="    M-1341.01,292.162c22.682,0,41.177-18.497,41.177-41.179c0-22.682-18.496-41.179-41.177-41.179    c-22.683,0-41.178,18.497-41.178,41.179C-1382.188,273.665-1363.693,292.162-1341.01,292.162L-1341.01,292.162z" fill="none" stroke="#000000" stroke-linecap="round" stroke-linejoin="round" stroke-miterlimit="10" stroke-width="20.1764"/>

<path d="    M-1503.318,341.535c15.141,0,27.492-12.351,27.492-27.492s-12.351-27.493-27.492-27.493c-15.17,0-27.521,12.351-27.521,27.493    S-1518.488,341.535-1503.318,341.535L-1503.318,341.535z" fill="none" stroke="#000000" stroke-linecap="round" stroke-linejoin="round" stroke-miterlimit="10" stroke-width="20.1764"/>

<path d="    M-1423.693,109.306c15.141,0,27.492-12.351,27.492-27.493c0-15.142-12.351-27.492-27.492-27.492s-27.491,12.35-27.491,27.492    C-1451.185,96.955-1438.834,109.306-1423.693,109.306L-1423.693,109.306z" fill="none" stroke="#000000" stroke-linecap="round" stroke-linejoin="round" stroke-miterlimit="10" stroke-width="20.1764"/>

<path d="    M-1340.536,167.051c132.855,0,240.536,38.507,240.536,86.04c0,47.503-107.68,86.04-240.536,86.04    c-50.946,0-98.18-5.67-137.072-15.35c1.128-3.027,1.781-6.294,1.781-9.737c0-15.171-12.32-27.493-27.492-27.493    c-12.499,0-23.008,8.313-26.393,19.684c-32.183-14.607-51.391-33.073-51.391-53.144    C-1581.102,205.558-1473.392,167.051-1340.536,167.051L-1340.536,167.051z" fill="none" stroke="#000000" stroke-linecap="round" stroke-linejoin="round" stroke-miterlimit="10" stroke-width="20.1764"/>

<path d="    M-1396.588,86.386c40.525,12.647,90.877,57.359,130.48,120.449c56.765,90.375,70.006,184.222,29.6,209.577    c-40.405,25.384-119.199-27.314-175.934-117.688c-53.588-85.297-68.372-173.682-35.893-204.678    c4.513,9.056,13.834,15.261,24.641,15.261C-1410.096,109.306-1398.785,99.389-1396.588,86.386L-1396.588,86.386z" fill="none" stroke="#000000" stroke-linecap="round" stroke-linejoin="round" stroke-miterlimit="10" stroke-width="20.1764"/>

</g>

<g>

<path d="    M-845.059,406.827c77.058,0,139.925-62.869,139.925-139.928c0-77.059-62.867-139.899-139.925-139.899    c-77.057,0-139.894,62.84-139.894,139.899C-984.953,343.958-922.116,406.827-845.059,406.827L-845.059,406.827z" fill="none" stroke="#000000" stroke-linecap="round" stroke-linejoin="round" stroke-miterlimit="10" stroke-width="20.1764"/>

<path d="    M-720.791,200.769c89.13,7.609,152.321,26.617,152.321,48.856c0,8.284-8.754,16.128-24.384,23.091 M-661.303,291.106    c-40.364,6.846-90.981,10.929-145.946,10.929c-131.847,0-238.751-23.473-238.751-52.41c0-14.689,27.585-27.969,71.975-37.487" fill="none" stroke="#000000" stroke-linecap="round" stroke-linejoin="round" stroke-miterlimit="10" stroke-width="20.1764"/>

<path d="    M-626.813,322.013c17.567,0,31.875-14.308,31.875-31.876c0-17.539-14.308-31.875-31.875-31.875s-31.874,14.336-31.874,31.875    C-658.688,307.705-644.381,322.013-626.813,322.013L-626.813,322.013z" fill="none" stroke="#000000" stroke-linecap="round" stroke-linejoin="round" stroke-miterlimit="10" stroke-width="20.1764"/>

<path d="    M-728.136,341.99c-31.141,12.486-74.854,20.271-123.268,20.271c-38.955,0-74.883-5.023-103.615-13.514" fill="none" stroke="#000000" stroke-linecap="round" stroke-linejoin="round" stroke-miterlimit="10" stroke-width="20.1764"/>

<path d="    M-708.952,233.966c-31.259,15.688-80.348,25.794-135.549,25.794c-54.758,0-103.496-9.959-134.782-25.412" fill="none" stroke="#000000" stroke-linecap="round" stroke-linejoin="round" stroke-miterlimit="10" stroke-width="20.1764"/>

<path d="    M-763.419,155.35c-23.384,4.613-49.883,7.257-77.968,7.257c-30.522,0-59.166-3.114-83.959-8.52" fill="none" stroke="#000000" stroke-linecap="round" stroke-linejoin="round" stroke-miterlimit="10" stroke-width="20.1764"/>

</g>

<g>

<path d="    M-274.606,224.479c129.086,0,234.366-20.577,234.366-45.754c0-25.206-105.28-45.754-234.366-45.754    c-129.114,0-234.394,20.548-234.394,45.754C-509,203.902-403.721,224.479-274.606,224.479L-274.606,224.479z" fill="none" stroke="#000000" stroke-linecap="round" stroke-linejoin="round" stroke-miterlimit="10" stroke-width="20.1478"/>

<polygon fill="none" points="    -432.441,485.201 -133.29,485.201 -240.456,278.493 -329.99,278.493   " stroke="#000000" stroke-linecap="round" stroke-linejoin="round" stroke-miterlimit="10" stroke-width="20.1478"/>

<line fill="none" stroke="#000000" stroke-linecap="round" stroke-linejoin="round" stroke-miterlimit="10" stroke-width="20.1478" x1="-317.016" x2="-344.107" y1="367.028" y2="485.201"/>

<line fill="none" stroke="#000000" stroke-linecap="round" stroke-linejoin="round" stroke-miterlimit="10" stroke-width="20.1478" x1="-303.584" x2="-309.128" y1="304.499" y2="328.705"/>

<line fill="none" stroke="#000000" stroke-linecap="round" stroke-linejoin="round" stroke-miterlimit="10" stroke-width="20.1478" x1="-258.717" x2="-244.657" y1="304.499" y2="358.398"/>

<line fill="none" stroke="#000000" stroke-linecap="round" stroke-linejoin="round" stroke-miterlimit="10" stroke-width="20.1478" x1="-334.362" x2="-334.362" y1="98.333" y2="98.048"/>

<line fill="none" stroke="#000000" stroke-linecap="round" stroke-linejoin="round" stroke-miterlimit="10" stroke-width="20.1478" x1="-273.892" x2="-273.892" y1="98.333" y2="98.048"/>

<line fill="none" stroke="#000000" stroke-linecap="round" stroke-linejoin="round" stroke-miterlimit="10" stroke-width="20.1478" x1="-213.393" x2="-213.393" y1="98.333" y2="98.048"/>

<path d="    M-376.801,64.497h204.331v73.047c-30.864-3.887-65.528-6.059-102.137-6.059c-36.636,0-71.302,2.172-102.194,6.059V64.497z" fill="none" stroke="#000000" stroke-linecap="round" stroke-linejoin="round" stroke-miterlimit="10" stroke-width="20.1478"/>

<path d="    M-274.435,20c30.949,0,57.612,18.205,69.9,44.497h-139.802C-332.047,38.205-305.355,20-274.435,20L-274.435,20z" fill="none" stroke="#000000" stroke-linecap="round" stroke-linejoin="round" stroke-miterlimit="10" stroke-width="20.1478"/>

<line fill="none" stroke="#000000" stroke-linecap="round" stroke-linejoin="round" stroke-miterlimit="10" stroke-width="20.1478" x1="-170.44" x2="-147.75" y1="106.707" y2="106.707"/>

<line fill="none" stroke="#000000" stroke-linecap="round" stroke-linejoin="round" stroke-miterlimit="10" stroke-width="20.1478" x1="-399.148" x2="-376.457" y1="106.707" y2="106.707"/>

<line fill="none" stroke="#000000" stroke-linecap="round" stroke-linejoin="round" stroke-miterlimit="10" stroke-width="20.1478" x1="-337.935" x2="-211.307" y1="178.725" y2="178.725"/>

<line fill="none" stroke="#000000" stroke-linecap="round" stroke-linejoin="round" stroke-miterlimit="10" stroke-width="20.1478" x1="-238.569" x2="-236.198" y1="385.175" y2="394.263"/>

</g>

<g>

<path d="    M255.136,435.722c30.578,0,55.556-24.949,55.556-55.557c0-30.579-24.978-55.527-55.556-55.527    c-30.606,0-55.555,24.948-55.555,55.527C199.581,410.773,224.529,435.722,255.136,435.722L255.136,435.722z" fill="none" stroke="#000000" stroke-linecap="round" stroke-linejoin="round" stroke-miterlimit="10" stroke-width="20.1764"/>

<path d="    M190.408,55L190.408,55c14.631,0,26.634,11.975,26.634,26.635v82.306l0.086,75.533c-0.058,16.204,45.724,14.861,45.724,0.257    l-0.028-75.79h37.637v-26.807c0-12.403,10.146-22.548,22.548-22.548l0,0c12.403,0,22.548,10.146,22.548,22.548v28.55v0.114v29.979    V376.05c0,50.498-41.295,91.794-91.792,91.794l0,0c-50.496,0-91.819-41.296-91.819-91.794V165.799l-0.058-84.364    C161.887,66.803,175.775,55,190.408,55L190.408,55z" fill="none" stroke="#000000" stroke-linecap="round" stroke-linejoin="round" stroke-miterlimit="10" stroke-width="20.1764"/>

<line fill="none" stroke="#000000" stroke-linecap="round" stroke-linejoin="round" stroke-miterlimit="10" stroke-width="20.1764" x1="306.947" x2="306.947" y1="246.447" y2="295.117"/>

<line fill="none" stroke="#000000" stroke-linecap="round" stroke-linejoin="round" stroke-miterlimit="10" stroke-width="20.1764" x1="264.71" x2="264.71" y1="279.484" y2="356.617"/>

<line fill="none" stroke="#000000" stroke-linecap="round" stroke-linejoin="round" stroke-miterlimit="10" stroke-width="20.1764" x1="203.496" x2="203.496" y1="279.484" y2="358.475"/>

<line fill="none" stroke="#000000" stroke-linecap="round" stroke-linejoin="round" stroke-miterlimit="10" stroke-width="20.1764" x1="306.947" x2="306.947" y1="197.464" y2="213.382"/>

<line fill="none" stroke="#000000" stroke-linecap="round" stroke-linejoin="round" stroke-miterlimit="10" stroke-width="20.1764" x1="231.816" x2="231.816" y1="368.391" y2="368.106"/>

<path d="    M488.073,211.238v158.839c0,23.749-22.148,43.153-49.24,43.153l0,0c-27.091,0-49.239-19.404-49.239-43.153V230.129v-0.057v-65.645    c0-8.573,8.002-15.604,17.805-15.604l0,0c9.802,0,17.832,7.03,17.832,15.604v37.581c-0.028,0.314-0.028,0.6-0.028,0.915v65.645    c0,8.573,7.001,15.604,15.604,15.604l0,0c8.573,0,15.604-7.03,15.604-15.604v-57.329    C456.38,195.72,488.073,195.834,488.073,211.238L488.073,211.238z" fill="none" stroke="#000000" stroke-linecap="round" stroke-linejoin="round" stroke-miterlimit="10" stroke-width="20.1764"/>

<path d="    M437.776,380.508c9.859,0,17.89-8.059,17.89-17.918c0-9.86-8.03-17.891-17.89-17.891s-17.919,8.03-17.919,17.891    C419.857,372.45,427.917,380.508,437.776,380.508L437.776,380.508z" fill="none" stroke="#000000" stroke-linecap="round" stroke-linejoin="round" stroke-miterlimit="10" stroke-width="20.1764"/>

<path d="    M117.135,138.249v150.18c0,22.462-20.977,40.81-46.582,40.81l0,0c-25.605,0-46.553-18.348-46.553-40.81V156.082v-0.057V93.953    c0-8.117,7.572-14.747,16.832-14.747l0,0c9.26,0,16.861,6.63,16.861,14.747v35.551c-0.029,0.286-0.029,0.572-0.029,0.857v62.072    c0,8.117,6.631,14.747,14.746,14.747l0,0c8.116,0,14.775-6.63,14.775-14.747v-54.185    C87.156,123.531,117.135,123.674,117.135,138.249L117.135,138.249z" fill="none" stroke="#000000" stroke-linecap="round" stroke-linejoin="round" stroke-miterlimit="10" stroke-width="20.1764"/>

<line fill="none" stroke="#000000" stroke-linecap="round" stroke-linejoin="round" stroke-miterlimit="10" stroke-width="20.1764" x1="69.124" x2="69.124" y1="294.344" y2="294.059"/>

<line fill="none" stroke="#000000" stroke-linecap="round" stroke-linejoin="round" stroke-miterlimit="10" stroke-width="20.1764" x1="70.953" x2="70.953" y1="247.848" y2="263.737"/>

<line fill="none" stroke="#000000" stroke-linecap="round" stroke-linejoin="round" stroke-miterlimit="10" stroke-width="20.1764" x1="417.028" x2="417.028" y1="305.062" y2="321.323"/>

<line fill="none" stroke="#000000" stroke-linecap="round" stroke-linejoin="round" stroke-miterlimit="10" stroke-width="20.1764" x1="461.267" x2="461.267" y1="314.693" y2="321.294"/>

</g>

<g>

<polygon fill="none" points="    236.477,742.991 279.942,816.037 176.377,877.681 132.91,804.606   " stroke="#000000" stroke-linecap="round" stroke-linejoin="round" stroke-miterlimit="10" stroke-width="20.1478"/>

<polygon fill="none" points="    160.373,659.285 199.439,724.958 156.916,750.25 117.85,684.605   " stroke="#000000" stroke-linecap="round" stroke-linejoin="round" stroke-miterlimit="10" stroke-width="20.1478"/>

<polygon fill="none" points="    277.856,856.733 316.922,922.406 274.398,947.698 235.333,882.054   " stroke="#000000" stroke-linecap="round" stroke-linejoin="round" stroke-miterlimit="10" stroke-width="20.1478"/>

<path d="    M300.404,724.043l26.406,44.382c5.286,8.917,2.343,20.52-6.545,25.835l0,0c-8.916,5.287-20.519,2.343-25.834-6.573l-26.406-44.382    c-5.286-8.888-2.343-20.52,6.545-25.806l0,0C283.486,712.183,295.089,715.155,300.404,724.043L300.404,724.043z" fill="none" stroke="#000000" stroke-linecap="round" stroke-linejoin="round" stroke-miterlimit="10" stroke-width="20.1478"/>

<line fill="none" stroke="#000000" stroke-linecap="round" stroke-linejoin="round" stroke-miterlimit="10" stroke-width="20.1478" x1="179.578" x2="197.182" y1="736.789" y2="766.368"/>

<line fill="none" stroke="#000000" stroke-linecap="round" stroke-linejoin="round" stroke-miterlimit="10" stroke-width="20.1478" x1="240.648" x2="257.967" y1="839.443" y2="868.564"/>

<path d="    M242.791,1014c121.627,0,220.792-99.195,220.792-220.797c0-121.63-99.165-220.797-220.792-220.797    C121.193,572.406,22,671.573,22,793.203C22,914.805,121.193,1014,242.791,1014L242.791,1014z" fill="none" stroke="#000000" stroke-linecap="round" stroke-linejoin="round" stroke-miterlimit="10" stroke-width="20.1478"/>

<path d="    M411.286,593.268c130.828-74.104,88.505,26.378-71.616,126.832" fill="none" stroke="#000000" stroke-linecap="round" stroke-linejoin="round" stroke-miterlimit="10" stroke-width="20.1478"/>

</g>

<g>

<line fill="none" stroke="#000000" stroke-linecap="round" stroke-linejoin="round" stroke-miterlimit="10" stroke-width="20.1764" x1="-408.378" x2="-318.986" y1="904.869" y2="904.468"/>

<line fill="none" stroke="#000000" stroke-linecap="round" stroke-linejoin="round" stroke-miterlimit="10" stroke-width="20.1764" x1="-286.236" x2="-229.995" y1="893.066" y2="833.565"/>

<path d="    M-492.824,830.879c10.002,0,18.146-8.174,18.146-18.177c0-10.002-8.145-18.146-18.146-18.146c-10.03,0-18.176,8.145-18.176,18.146    C-511,822.706-502.854,830.879-492.824,830.879L-492.824,830.879z" fill="none" stroke="#000000" stroke-linecap="round" stroke-linejoin="round" stroke-miterlimit="10" stroke-width="20.1764"/>

<line fill="none" stroke="#000000" stroke-linecap="round" stroke-linejoin="round" stroke-miterlimit="10" stroke-width="20.1764" x1="-205.219" x2="-218.164" y1="663.724" y2="795.184"/>

<line fill="none" stroke="#000000" stroke-linecap="round" stroke-linejoin="round" stroke-miterlimit="10" stroke-width="20.1764" x1="-139.689" x2="-203.218" y1="716.336" y2="801.9"/>

<line fill="none" stroke="#000000" stroke-linecap="round" stroke-linejoin="round" stroke-miterlimit="10" stroke-width="20.1764" x1="-78.791" x2="-198.531" y1="802.672" y2="817.905"/>

<line fill="none" stroke="#000000" stroke-linecap="round" stroke-linejoin="round" stroke-miterlimit="10" stroke-width="20.1764" x1="-482.051" x2="-444.614" y1="830.679" y2="882.463"/>

<path d="    M-429.468,917.243c10.031,0,18.176-8.145,18.176-18.176c0-10.002-8.145-18.147-18.176-18.147    c-10.002,0-18.146,8.146-18.146,18.147C-447.614,909.098-439.47,917.243-429.468,917.243L-429.468,917.243z" fill="none" stroke="#000000" stroke-linecap="round" stroke-linejoin="round" stroke-miterlimit="10" stroke-width="20.1764"/>

<path d="    M-300.839,922.073c10.002,0,18.175-8.174,18.175-18.176c0-10.003-8.173-18.176-18.175-18.176    c-10.003,0-18.147,8.173-18.147,18.176C-318.986,913.899-310.842,922.073-300.839,922.073L-300.839,922.073z" fill="none" stroke="#000000" stroke-linecap="round" stroke-linejoin="round" stroke-miterlimit="10" stroke-width="20.1764"/>

<path d="    M-216.678,836.081c10.002,0,18.146-8.174,18.146-18.176c0-10.003-8.145-18.177-18.146-18.177    c-10.003,0-18.176,8.174-18.176,18.177C-234.854,827.907-226.681,836.081-216.678,836.081L-216.678,836.081z" fill="none" stroke="#000000" stroke-linecap="round" stroke-linejoin="round" stroke-miterlimit="10" stroke-width="20.1764"/>

<path d="    M-60.93,816.79c10.002,0,18.176-8.173,18.176-18.176c0-10.002-8.174-18.176-18.176-18.176s-18.146,8.174-18.146,18.176    C-79.076,808.617-70.932,816.79-60.93,816.79L-60.93,816.79z" fill="none" stroke="#000000" stroke-linecap="round" stroke-linejoin="round" stroke-miterlimit="10" stroke-width="20.1764"/>

<path d="    M-126.602,719.68c10.003,0,18.147-8.173,18.147-18.176s-8.145-18.176-18.147-18.176c-10.03,0-18.175,8.174-18.175,18.176    S-136.632,719.68-126.602,719.68L-126.602,719.68z" fill="none" stroke="#000000" stroke-linecap="round" stroke-linejoin="round" stroke-miterlimit="10" stroke-width="20.1764"/>

<path d="    M-203.704,663.323c10.002,0,18.147-8.145,18.147-18.147c0-10.031-8.146-18.176-18.147-18.176s-18.175,8.145-18.175,18.176    C-221.879,655.179-213.706,663.323-203.704,663.323L-203.704,663.323z" fill="none" stroke="#000000" stroke-linecap="round" stroke-linejoin="round" stroke-miterlimit="10" stroke-width="20.1764"/>

</g>

<g>

<path d="    M-808.246,560C-688.82,560-592,649.165-592,759.192c0,96.166-101.707,259.864-214.361,259.864    c-111.081,0-218.133-163.841-218.133-259.864C-1024.494,649.165-927.673,560-808.246,560L-808.246,560z" fill="none" stroke="#000000" stroke-linecap="round" stroke-linejoin="round" stroke-miterlimit="10" stroke-width="20.1764"/>

<path d="    M-881.434,729.441c32.179,27.292,49.268,59.987,38.18,73.076c-11.089,13.06-46.153,1.543-78.331-25.75    c-32.15-27.292-49.24-60.015-38.18-73.075C-948.677,690.604-913.613,702.149-881.434,729.441L-881.434,729.441z" fill="none" stroke="#000000" stroke-linecap="round" stroke-linejoin="round" stroke-miterlimit="10" stroke-width="20.1764"/>

<path d="    M-740.09,729.441c-32.178,27.292-49.268,59.987-38.18,73.076c11.09,13.06,46.154,1.543,78.303-25.75    c32.18-27.292,49.27-60.015,38.182-73.075C-672.875,690.604-707.939,702.149-740.09,729.441L-740.09,729.441z" fill="none" stroke="#000000" stroke-linecap="round" stroke-linejoin="round" stroke-miterlimit="10" stroke-width="20.1764"/>

<line fill="none" stroke="#000000" stroke-linecap="round" stroke-linejoin="round" stroke-miterlimit="10" stroke-width="20.1764" x1="-840.511" x2="-840.511" y1="878.107" y2="877.849"/>

<line fill="none" stroke="#000000" stroke-linecap="round" stroke-linejoin="round" stroke-miterlimit="10" stroke-width="20.1764" x1="-780.012" x2="-780.012" y1="878.107" y2="877.849"/>

</g>

<g>

<path d="    M-1412.498,643.011c39.38,9.459,82.647,26.006,125.885,49.298c126.284,67.96,204.673,167.584,175.124,222.512    c-16.29,30.265-61.928,40.639-120.741,32.522 M-1297.758,932.168c-30.864-9.745-63.385-23.435-95.907-40.953    c-126.256-67.96-204.673-167.584-175.096-222.512c16.775-31.151,64.671-41.239,126.028-31.722" fill="none" stroke="#000000" stroke-linecap="round" stroke-linejoin="round" stroke-miterlimit="10" stroke-width="20.1764"/>

<path d="    M-1472.768,761.583c-10.974-15.976-14.746-30.179-9.288-40.324c14.604-27.121,89.906-14.975,168.208,27.149    c26.406,14.204,49.754,30.007,68.559,45.754 M-1224.056,813.882c22.747,23.806,33.121,45.84,25.491,59.986    c-14.604,27.149-89.906,15.003-168.208-27.15c-37.637-20.262-69.129-43.782-90.048-65.759" fill="none" stroke="#000000" stroke-linecap="round" stroke-linejoin="round" stroke-miterlimit="10" stroke-width="20.1764"/>

<path d="    M-1328.422,775.472c12.231,6.573,16.804,21.777,10.23,33.98c-6.572,12.231-21.805,16.775-34.007,10.23    c-12.203-6.572-16.775-21.805-10.202-34.008C-1355.828,773.472-1340.625,768.899-1328.422,775.472L-1328.422,775.472z" fill="none" stroke="#000000" stroke-linecap="round" stroke-linejoin="round" stroke-miterlimit="10" stroke-width="20.1764"/>

<line fill="none" stroke="#000000" stroke-linecap="round" stroke-linejoin="round" stroke-miterlimit="10" stroke-width="20.1764" x1="-1267.237" x2="-1267.151" y1="941.313" y2="941.142"/>

</g>

<g>

<path d="    M-1869.813,797.202c66.157,0,120.111-53.956,120.111-120.115c0-66.131-53.954-120.087-120.111-120.087    c-66.129,0-120.084,53.956-120.084,120.087C-1989.897,743.246-1935.943,797.202-1869.813,797.202L-1869.813,797.202z" fill="none" stroke="#000000" stroke-linecap="round" stroke-linejoin="round" stroke-miterlimit="10" stroke-width="20.1764"/>

<path d="    M-1798.112,773.453c-20.005,14.918-44.81,23.749-71.701,23.749c-26.863,0-51.669-8.83-71.673-23.749    c21.376-4.772,45.781-7.516,71.702-7.516C-1843.894,765.937-1819.488,768.681-1798.112,773.453L-1798.112,773.453z" fill="none" stroke="#000000" stroke-linecap="round" stroke-linejoin="round" stroke-miterlimit="10" stroke-width="20.1764"/>

<path d="    M-1804.399,631.847c10.06,13.546,16.003,30.322,16.003,48.469c0,15.375-4.286,29.75-11.688,42.011h-139.431    c-7.43-12.26-11.688-26.635-11.688-42.011c0-18.147,5.944-34.923,16.003-48.469H-1804.399z" fill="none" stroke="#000000" stroke-linecap="round" stroke-linejoin="round" stroke-miterlimit="10" stroke-width="20.1764"/>

<path d="    M-1915.281,663.455c-5.287,6.944-5.229,11.688-1.657,20.062" fill="none" stroke="#000000" stroke-linecap="round" stroke-linejoin="round" stroke-miterlimit="10" stroke-width="20.1764"/>

<path d="    M-1827.376,564.716c-10.517,12.203-26.12,19.948-43.495,19.948c-17.09,0-32.436-7.488-42.953-19.348    c13.632-5.373,28.492-8.316,44.01-8.316C-1854.868,557-1840.579,559.744-1827.376,564.716L-1827.376,564.716z" fill="none" stroke="#000000" stroke-linecap="round" stroke-linejoin="round" stroke-miterlimit="10" stroke-width="20.1764"/>

<path d="    M-1998.014,719.955h16.004c6.715,17.633,17.518,33.265,31.207,45.783c-4.258-3.858-8.202-8.031-11.86-12.489    c-22.748,1.429-43.667,9.831-60.699,23.063v-31.007C-2023.362,731.357-2011.959,719.955-1998.014,719.955L-1998.014,719.955z     M-1950.803,765.766c1.086,0.972,2.201,1.943,3.315,2.915C-1948.603,767.709-1949.717,766.737-1950.803,765.766L-1950.803,765.766    z M-1947.431,768.738c0.543,0.458,1.086,0.915,1.629,1.343C-1946.345,769.652-1946.888,769.195-1947.431,768.738    L-1947.431,768.738z M-1945.745,770.138c1.115,0.915,2.258,1.8,3.401,2.687C-1943.487,771.938-1944.63,771.053-1945.745,770.138    L-1945.745,770.138z M-1942.173,772.939c0.572,0.429,1.143,0.857,1.686,1.257C-1941.03,773.796-1941.601,773.368-1942.173,772.939    L-1942.173,772.939z M-1940.458,774.225c0.6,0.429,1.2,0.857,1.8,1.286C-1939.258,775.083-1939.858,774.654-1940.458,774.225    L-1940.458,774.225z M-1938.629,775.511c0.543,0.4,1.114,0.8,1.686,1.171C-1937.515,776.311-1938.086,775.911-1938.629,775.511    L-1938.629,775.511z M-1936.714,776.854c1.172,0.772,2.372,1.543,3.572,2.287    C-1934.342,778.397-1935.542,777.626-1936.714,776.854L-1936.714,776.854z M-1932.914,779.283    c0.543,0.343,1.058,0.657,1.601,0.972C-1931.856,779.94-1932.371,779.626-1932.914,779.283L-1932.914,779.283z M-1931.027,780.426    c1.2,0.715,2.4,1.4,3.629,2.086C-1928.627,781.827-1929.827,781.141-1931.027,780.426L-1931.027,780.426z M-1927.055,782.684    c0.515,0.286,1.058,0.572,1.601,0.857C-1925.998,783.256-1926.541,782.97-1927.055,782.684L-1927.055,782.684z M-1925.198,783.685    c0.629,0.314,1.258,0.657,1.886,0.972C-1923.94,784.342-1924.569,783.999-1925.198,783.685L-1925.198,783.685z M-1923.14,784.713    c0.543,0.286,1.115,0.571,1.687,0.829C-1922.025,785.285-1922.597,784.999-1923.14,784.713L-1923.14,784.713z M-1921.054,785.742    c0.571,0.257,1.143,0.543,1.715,0.8C-1919.911,786.285-1920.482,786-1921.054,785.742L-1921.054,785.742z M-1919.167,786.6    c0.628,0.286,1.286,0.571,1.915,0.857C-1917.882,787.171-1918.539,786.885-1919.167,786.6L-1919.167,786.6z M-1916.91,787.6    c0.543,0.229,1.058,0.457,1.601,0.657C-1915.853,788.057-1916.367,787.829-1916.91,787.6L-1916.91,787.6z M-1914.881,788.458    c1.286,0.514,2.572,1,3.858,1.485C-1912.309,789.458-1913.595,788.971-1914.881,788.458L-1914.881,788.458z M-1910.537,790.115    c0.514,0.171,1.029,0.371,1.543,0.543C-1909.508,790.486-1910.023,790.286-1910.537,790.115L-1910.537,790.115z M-1908.537,790.8    c0.657,0.229,1.314,0.457,1.972,0.657C-1907.222,791.257-1907.879,791.029-1908.537,790.8L-1908.537,790.8z M-1906.365,791.515    c0.6,0.2,1.171,0.371,1.772,0.543C-1905.193,791.886-1905.765,791.715-1906.365,791.515L-1906.365,791.515z M-1904.05,792.229    c0.543,0.172,1.086,0.314,1.629,0.486C-1902.964,792.543-1903.507,792.401-1904.05,792.229L-1904.05,792.229z M-1902.05,792.801    c0.658,0.2,1.315,0.371,2,0.543C-1900.735,793.172-1901.392,793.001-1902.05,792.801L-1902.05,792.801z M-1899.621,793.458    c0.543,0.143,1.058,0.257,1.601,0.399C-1898.563,793.715-1899.078,793.601-1899.621,793.458L-1899.621,793.458z     M-1897.449,794.001c0.6,0.143,1.2,0.285,1.801,0.399C-1896.249,794.287-1896.849,794.144-1897.449,794.001L-1897.449,794.001z     M-1895.419,794.458c0.686,0.143,1.343,0.286,2.029,0.429C-1894.076,794.745-1894.734,794.601-1895.419,794.458L-1895.419,794.458    z M-1892.848,794.973c0.543,0.114,1.058,0.2,1.572,0.314C-1891.79,795.173-1892.305,795.087-1892.848,794.973L-1892.848,794.973z     M-1890.704,795.373c0.686,0.115,1.372,0.229,2.058,0.344C-1889.333,795.602-1890.019,795.488-1890.704,795.373L-1890.704,795.373    z M-1888.475,795.745c0.628,0.114,1.257,0.2,1.886,0.286C-1887.218,795.945-1887.847,795.859-1888.475,795.745L-1888.475,795.745z     M-1885.989,796.116c0.543,0.058,1.086,0.144,1.657,0.2C-1884.903,796.259-1885.446,796.173-1885.989,796.116L-1885.989,796.116z     M-1883.846,796.374c0.686,0.086,1.372,0.171,2.086,0.229C-1882.474,796.544-1883.16,796.459-1883.846,796.374L-1883.846,796.374z     M-1881.359,796.63c0.572,0.058,1.143,0.114,1.743,0.172C-1880.216,796.745-1880.788,796.688-1881.359,796.63L-1881.359,796.63z     M-1879.016,796.831c0.6,0.057,1.2,0.086,1.8,0.143C-1877.816,796.917-1878.416,796.887-1879.016,796.831L-1879.016,796.831z     M-1876.873,797.002c0.686,0.028,1.4,0.057,2.115,0.085C-1875.472,797.059-1876.187,797.031-1876.873,797.002L-1876.873,797.002z     M-1874.187,797.117c0.543,0.028,1.086,0.028,1.629,0.057C-1873.101,797.145-1873.644,797.145-1874.187,797.117L-1874.187,797.117    z M-1871.958,797.173c0.714,0,1.429,0.028,2.144,0.028c0.714,0,1.429-0.028,2.143-0.028c-0.714,0-1.429,0.028-2.143,0.028    C-1870.528,797.202-1871.243,797.173-1871.958,797.173L-1871.958,797.173z M-1867.042,797.173    c0.543-0.028,1.086-0.028,1.629-0.057C-1865.956,797.145-1866.499,797.145-1867.042,797.173L-1867.042,797.173z     M-1864.842,797.087c0.715-0.028,1.43-0.057,2.115-0.085C-1863.412,797.031-1864.127,797.059-1864.842,797.087L-1864.842,797.087z     M-1862.384,796.973c0.601-0.028,1.2-0.086,1.801-0.143C-1861.184,796.887-1861.783,796.945-1862.384,796.973L-1862.384,796.973z     M-1859.983,796.802c0.571-0.058,1.144-0.114,1.743-0.172C-1858.84,796.688-1859.412,796.745-1859.983,796.802L-1859.983,796.802z     M-1857.84,796.602c0.686-0.058,1.4-0.143,2.086-0.229C-1856.439,796.459-1857.154,796.544-1857.84,796.602L-1857.84,796.602z     M-1855.239,796.316c0.543-0.057,1.086-0.143,1.629-0.2C-1854.153,796.173-1854.696,796.259-1855.239,796.316L-1855.239,796.316z     M-1853.039,796.031c0.657-0.086,1.314-0.2,1.972-0.286C-1851.725,795.831-1852.382,795.945-1853.039,796.031L-1853.039,796.031z     M-1850.953,795.716c0.687-0.114,1.372-0.229,2.058-0.344C-1849.581,795.488-1850.267,795.602-1850.953,795.716L-1850.953,795.716    z M-1848.353,795.288c0.515-0.114,1.058-0.2,1.601-0.314C-1847.295,795.087-1847.838,795.173-1848.353,795.288L-1848.353,795.288z     M-1846.209,794.887c0.687-0.143,1.344-0.286,2.029-0.429C-1844.865,794.601-1845.522,794.745-1846.209,794.887L-1846.209,794.887    z M-1843.979,794.401c0.6-0.114,1.2-0.257,1.829-0.399C-1842.779,794.144-1843.38,794.287-1843.979,794.401L-1843.979,794.401z     M-1841.579,793.858c0.543-0.143,1.086-0.257,1.629-0.399C-1840.493,793.601-1841.036,793.715-1841.579,793.858L-1841.579,793.858    z M-1839.55,793.344c0.657-0.172,1.314-0.343,2-0.543C-1838.235,793.001-1838.893,793.172-1839.55,793.344L-1839.55,793.344z     M-1837.179,792.715c0.543-0.172,1.087-0.314,1.63-0.486C-1836.092,792.401-1836.636,792.543-1837.179,792.715L-1837.179,792.715z     M-1835.006,792.086c0.6-0.2,1.2-0.371,1.8-0.571C-1833.806,791.715-1834.406,791.886-1835.006,792.086L-1835.006,792.086z     M-1833.063,791.458c0.687-0.2,1.344-0.429,2.001-0.657C-1831.72,791.029-1832.377,791.257-1833.063,791.458L-1833.063,791.458z     M-1830.662,790.658c0.543-0.172,1.086-0.372,1.6-0.543C-1829.576,790.286-1830.119,790.486-1830.662,790.658L-1830.662,790.658z     M-1828.604,789.943c1.314-0.485,2.601-0.972,3.886-1.485C-1826.004,788.971-1827.29,789.458-1828.604,789.943L-1828.604,789.943z     M-1824.318,788.286c0.571-0.229,1.114-0.457,1.657-0.715C-1823.204,787.829-1823.747,788.057-1824.318,788.286L-1824.318,788.286    z M-1822.375,787.457c0.657-0.257,1.286-0.543,1.943-0.857C-1821.089,786.914-1821.718,787.2-1822.375,787.457L-1822.375,787.457z     M-1820.289,786.542c0.572-0.257,1.172-0.543,1.772-0.829C-1819.117,786-1819.717,786.285-1820.289,786.542L-1820.289,786.542z     M-1818.174,785.571c0.6-0.286,1.172-0.572,1.771-0.886C-1817.002,784.999-1817.574,785.285-1818.174,785.571L-1818.174,785.571z     M-1816.316,784.656c0.657-0.314,1.286-0.657,1.915-0.972C-1815.03,783.999-1815.659,784.342-1816.316,784.656L-1816.316,784.656z     M-1814.202,783.57c0.572-0.314,1.144-0.6,1.715-0.915C-1813.059,782.97-1813.63,783.256-1814.202,783.57L-1814.202,783.57z     M-1812.259,782.513c1.258-0.657,2.486-1.372,3.716-2.115C-1809.772,781.141-1811.001,781.855-1812.259,782.513L-1812.259,782.513    z M-1808.314,780.284c0.543-0.343,1.114-0.686,1.686-1.029C-1807.2,779.598-1807.771,779.94-1808.314,780.284L-1808.314,780.284z     M-1806.485,779.169c1.229-0.771,2.429-1.543,3.629-2.343C-1804.057,777.626-1805.257,778.397-1806.485,779.169L-1806.485,779.169    z M-1802.714,776.711c1.801-1.229,3.572-2.486,5.315-3.801C-1799.142,774.225-1800.913,775.482-1802.714,776.711    L-1802.714,776.711z M-1797.313,772.853c17.747-13.46,31.636-31.75,39.723-52.898h16.004c13.917,0,25.349,11.403,25.349,25.349    v31.579c-16.976-13.432-37.923-22.005-60.728-23.577C-1782.967,760.593-1789.797,767.138-1797.313,772.853L-1797.313,772.853z" fill="none" stroke="#000000" stroke-linecap="round" stroke-linejoin="round" stroke-miterlimit="10" stroke-width="20.1764"/>

<path d="    M-1776.965,753.306c57.298,3.972,102.965,52.098,102.965,110.37v158.354h-392.314V863.675c0-58.5,46.01-106.769,103.651-110.427    c22.034,26.835,55.441,43.953,92.85,43.953C-1832.405,797.202-1798.998,780.112-1776.965,753.306L-1776.965,753.306z" fill="none" stroke="#000000" stroke-linecap="round" stroke-linejoin="round" stroke-miterlimit="10" stroke-width="20.1764"/>

<path d="    M-2066.314,882.566v-18.891c0-13.003,2.286-25.521,6.458-37.151h34.865v56.042H-2066.314z" fill="none" stroke="#000000" stroke-linecap="round" stroke-linejoin="round" stroke-miterlimit="10" stroke-width="20.1764"/>

<rect fill="none" height="89.394" stroke="#000000" stroke-linecap="round" stroke-linejoin="round" stroke-miterlimit="10" stroke-width="20.1764" width="168.123" x="-1953.89" y="877.022"/>

<line fill="none" stroke="#000000" stroke-linecap="round" stroke-linejoin="round" stroke-miterlimit="10" stroke-width="20.1764" x1="-1953.89" x2="-1785.767" y1="907.915" y2="907.915"/>

<line fill="none" stroke="#000000" stroke-linecap="round" stroke-linejoin="round" stroke-miterlimit="10" stroke-width="20.1764" x1="-1830.806" x2="-1830.806" y1="930.606" y2="930.377"/>

<line fill="none" stroke="#000000" stroke-linecap="round" stroke-linejoin="round" stroke-miterlimit="10" stroke-width="20.1764" x1="-1953.89" x2="-1869.843" y1="934.607" y2="934.607"/>

<line fill="none" stroke="#000000" stroke-linecap="round" stroke-linejoin="round" stroke-miterlimit="10" stroke-width="20.1764" x1="-1994.041" x2="-1994.041" y1="914.602" y2="1017.742"/>

<line fill="none" stroke="#000000" stroke-linecap="round" stroke-linejoin="round" stroke-miterlimit="10" stroke-width="20.1764" x1="-1744.958" x2="-1744.958" y1="914.602" y2="1019.057"/>

</g>

<g>

<path d="    M-1872.237,1545c123.228,0,223.764-100.539,223.764-223.769c0-123.259-100.536-223.77-223.764-223.77    c-123.255,0-223.763,100.51-223.763,223.77C-2096,1444.461-1995.492,1545-1872.237,1545L-1872.237,1545z" fill="none" stroke="#000000" stroke-linecap="round" stroke-linejoin="round" stroke-miterlimit="10" stroke-width="20.1764"/>

<path d="    M-1715.746,1161.306c41.495,40.61,67.272,97.252,67.272,159.925c0,0.942-0.029,1.886-0.058,2.857    c-0.285,12.604-2.429,33.694-6.229,49.898c-0.2,0.886-0.429,1.8-0.657,2.686l0,0l-80.618-16.518    c16.946,46.183,10.06,71.646-22.69,74.59c-34.607-3.001-69.187-20.806-103.794-58.386c-16.747,40.267-48.097,33.522-50.269,77.019    l10.545,89.622l-0.029-0.028c-4.058-0.543-8.087-1.2-12.088-1.943l-0.686-0.144c-5.287-1.028-10.488-2.229-15.604-3.601    l-0.657-0.2c-5.144-1.4-10.203-2.972-15.204-4.715l-0.543-0.2c-5.001-1.772-9.945-3.744-14.774-5.858l-0.458-0.2    c-4.858-2.115-9.63-4.43-14.289-6.888l-0.372-0.2c-4.687-2.486-9.288-5.144-13.774-7.944l-0.257-0.172    c-4.487-2.829-8.888-5.802-13.174-8.945l-0.2-0.143c-4.315-3.144-8.516-6.459-12.574-9.917l-0.085-0.057    c-33.865-28.75-59.042-67.417-71.073-111.514h-0.029l71.559-62.358c47.553-12.146,59.442,14.889,89.191-9.717    c16.632-35.552-0.714-92.823-38.923-90.793l-58.384,16.204l-34.865-34.894c3.943-6.001,8.145-11.832,12.631-17.404l0.058-0.086    c1.314-1.629,2.629-3.229,3.972-4.801l0.143-0.171c0.886-1.029,1.772-2.058,2.687-3.086l0.372-0.429    c1.2-1.343,2.4-2.687,3.629-4.001c0.2-0.2,0.372-0.4,0.571-0.6c0.857-0.915,1.743-1.829,2.601-2.744    c0.286-0.286,0.543-0.543,0.8-0.8c1.029-1.029,2.029-2.058,3.058-3.086c0.4-0.372,0.8-0.743,1.172-1.143    c0.829-0.8,1.658-1.572,2.486-2.343c0.457-0.429,0.886-0.857,1.343-1.257c0.771-0.715,1.543-1.429,2.314-2.115    c0.629-0.571,1.286-1.143,1.915-1.686c0.743-0.686,1.515-1.314,2.257-1.972c0.657-0.543,1.286-1.086,1.915-1.629    c0.628-0.515,1.286-1.058,1.915-1.572c0.743-0.629,1.515-1.229,2.286-1.829c0.686-0.543,1.372-1.086,2.058-1.629    c0.829-0.658,1.686-1.315,2.543-1.943c0.486-0.372,1-0.743,1.486-1.115c0.886-0.657,1.772-1.314,2.658-1.943    c0.601-0.429,1.172-0.829,1.772-1.257c0.972-0.686,1.943-1.343,2.915-2.029c0.457-0.286,0.915-0.6,1.343-0.886    c1-0.686,2-1.343,3-1.972c0.514-0.343,1.029-0.657,1.543-1c1.058-0.686,2.144-1.372,3.258-2.029    c0.4-0.257,0.829-0.514,1.229-0.743c1.086-0.657,2.201-1.315,3.287-1.943c0.429-0.257,0.857-0.515,1.286-0.743    c1.2-0.686,2.429-1.372,3.629-2.058c0.371-0.171,0.743-0.372,1.086-0.572c1.2-0.628,2.4-1.286,3.601-1.886    c0.372-0.2,0.714-0.371,1.057-0.543c1.315-0.686,2.629-1.343,3.944-1.972c0.343-0.171,0.686-0.314,1.029-0.486    c1.257-0.6,2.543-1.2,3.83-1.8c0.286-0.114,0.571-0.257,0.886-0.4c1.372-0.628,2.772-1.229,4.201-1.829    c0.314-0.143,0.628-0.286,0.972-0.429c1.314-0.543,2.658-1.086,3.972-1.6c0.286-0.114,0.543-0.229,0.829-0.343    c25.663,17.833,46.811,43.811,55.813,91.623c29.178-3.258,50.468-43.354,82.36-21.348    C-1781.703,1202.173-1747.009,1182.197-1715.746,1161.306L-1715.746,1161.306z" fill="none" stroke="#000000" stroke-linecap="round" stroke-linejoin="round" stroke-miterlimit="10" stroke-width="20.1764"/>

</g>

<g>

<path d="    M-1337.5,1148.109L-1337.5,1148.109c77.218,0,140.402,63.187,140.402,140.435v108.913c0,13.718-2,27.007-5.715,39.581l9.059,2.144    c31.149,7.373,50.583,38.924,43.181,70.046l0,0c-7.401,31.15-38.923,50.584-70.072,43.21l-47.896-11.374    c-8.573-2.029-16.261-5.916-22.719-11.088c-14.518,5.115-30.063,7.887-46.239,7.887l0,0c-15.917,0-31.207-2.686-45.495-7.602    c-6.401,5.03-13.975,8.803-22.405,10.803l-47.896,11.374c-31.15,7.374-62.671-12.06-70.073-43.21l0,0    c-7.373-31.122,12.06-62.673,43.181-70.046l8.059-1.915c-3.772-12.632-5.801-26.007-5.801-39.81v-108.913    C-1477.931,1211.296-1414.746,1148.109-1337.5,1148.109L-1337.5,1148.109z" fill="none" stroke="#000000" stroke-linecap="round" stroke-linejoin="round" stroke-miterlimit="10" stroke-width="20.1764"/>

<path d="    M-1336.415,1368.563c34.979,0,63.5-28.521,63.5-63.501c0-34.951-28.521-63.473-63.5-63.473c-34.95,0-63.471,28.521-63.471,63.473    C-1399.885,1340.042-1371.365,1368.563-1336.415,1368.563L-1336.415,1368.563z" fill="none" stroke="#000000" stroke-linecap="round" stroke-linejoin="round" stroke-miterlimit="10" stroke-width="20.1764"/>

<path d="    M-1336.415,1331.526c14.575,0,26.463-11.889,26.463-26.464c0-14.546-11.888-26.435-26.463-26.435    c-14.574,0-26.434,11.889-26.434,26.435C-1362.849,1319.637-1350.989,1331.526-1336.415,1331.526L-1336.415,1331.526z" fill="none" stroke="#000000" stroke-linecap="round" stroke-linejoin="round" stroke-miterlimit="10" stroke-width="20.1764"/>

<path d="    M-1408.716,1225.271c47.925-30.464,95.821-28.292,143.746,0" fill="none" stroke="#000000" stroke-linecap="round" stroke-linejoin="round" stroke-miterlimit="10" stroke-width="20.1764"/>

<line fill="none" stroke="#000000" stroke-linecap="round" stroke-linejoin="round" stroke-miterlimit="10" stroke-width="20.1764" x1="-1436.922" x2="-1436.922" y1="1134.22" y2="1185.604"/>

<path d="    M-1435.35,1132.791c12.631,0,22.948-10.288,22.948-22.92c0-12.631-10.316-22.92-22.948-22.92    c-12.603,0-22.919,10.289-22.919,22.92C-1458.27,1122.503-1447.953,1132.791-1435.35,1132.791L-1435.35,1132.791z" fill="none" stroke="#000000" stroke-linecap="round" stroke-linejoin="round" stroke-miterlimit="10" stroke-width="20.1764"/>

<line fill="none" stroke="#000000" stroke-linecap="round" stroke-linejoin="round" stroke-miterlimit="10" stroke-width="20.1764" x1="-1237.049" x2="-1237.049" y1="1134.22" y2="1185.604"/>

<path d="    M-1235.478,1132.791c12.632,0,22.948-10.288,22.948-22.92c0-12.631-10.316-22.92-22.948-22.92    c-12.603,0-22.919,10.289-22.919,22.92C-1258.397,1122.503-1248.081,1132.791-1235.478,1132.791L-1235.478,1132.791z" fill="none" stroke="#000000" stroke-linecap="round" stroke-linejoin="round" stroke-miterlimit="10" stroke-width="20.1764"/>

<path d="    M-1281.374,1406.087v1.743c0,31.465-25.748,57.242-57.212,57.242l0,0c-31.493,0-57.241-25.777-57.241-57.242v-1.743H-1281.374z" fill="none" stroke="#000000" stroke-linecap="round" stroke-linejoin="round" stroke-miterlimit="10" stroke-width="20.1764"/>

</g>

<g>

<path d="    M-815.002,1089h35.809c25.262,0,45.895,20.663,45.895,45.897v215.91l-2.457-3.429h-43.953v52.813h-35.293    c-0.6,0-1.199-0.028-1.771-0.057v-52.756h-43.953l-0.171,0.257v-212.738C-860.897,1109.663-840.236,1089-815.002,1089    L-815.002,1089z" fill="none" stroke="#000000" stroke-linecap="round" stroke-linejoin="round" stroke-miterlimit="10" stroke-width="20.1764"/>

<path d="    M-823.947,1161.761h54.269c3.086,0,5.602,2.515,5.602,5.602v24.063c0,3.058-2.516,5.602-5.602,5.602h-54.269    c-3.086,0-5.601-2.543-5.601-5.602v-24.063C-829.548,1164.276-827.033,1161.761-823.947,1161.761L-823.947,1161.761z" fill="none" stroke="#000000" stroke-linecap="round" stroke-linejoin="round" stroke-miterlimit="10" stroke-width="20.1764"/>

<polygon fill="none" points="    -921.482,1431.884 -860.726,1347.378 -816.773,1347.378 -816.773,1431.884   " stroke="#000000" stroke-linecap="round" stroke-linejoin="round" stroke-miterlimit="10" stroke-width="20.1764"/>

<polygon fill="none" points="    -675,1431.884 -735.756,1347.378 -779.709,1347.378 -779.709,1431.884   " stroke="#000000" stroke-linecap="round" stroke-linejoin="round" stroke-miterlimit="10" stroke-width="20.1764"/>

<line fill="none" stroke="#000000" stroke-linecap="round" stroke-linejoin="round" stroke-miterlimit="10" stroke-width="20.1764" x1="-797.084" x2="-797.283" y1="1257.584" y2="1310.769"/>

<line fill="none" stroke="#000000" stroke-linecap="round" stroke-linejoin="round" stroke-miterlimit="10" stroke-width="20.1764" x1="-868.957" x2="-868.957" y1="1455.347" y2="1526.994"/>

<line fill="none" stroke="#000000" stroke-linecap="round" stroke-linejoin="round" stroke-miterlimit="10" stroke-width="20.1764" x1="-794.313" x2="-794.313" y1="1455.347" y2="1513.276"/>

<line fill="none" stroke="#000000" stroke-linecap="round" stroke-linejoin="round" stroke-miterlimit="10" stroke-width="20.1764" x1="-794.313" x2="-794.313" y1="1541.912" y2="1555.916"/>

<line fill="none" stroke="#000000" stroke-linecap="round" stroke-linejoin="round" stroke-miterlimit="10" stroke-width="20.1764" x1="-719.695" x2="-719.695" y1="1455.347" y2="1526.994"/>

<line fill="none" stroke="#000000" stroke-linecap="round" stroke-linejoin="round" stroke-miterlimit="10" stroke-width="20.1764" x1="-831.634" x2="-831.634" y1="1455.347" y2="1463.378"/>

<line fill="none" stroke="#000000" stroke-linecap="round" stroke-linejoin="round" stroke-miterlimit="10" stroke-width="20.1764" x1="-831.634" x2="-831.634" y1="1492.671" y2="1544.426"/>

<line fill="none" stroke="#000000" stroke-linecap="round" stroke-linejoin="round" stroke-miterlimit="10" stroke-width="20.1764" x1="-860.897" x2="-733.299" y1="1223.919" y2="1223.919"/>

<line fill="none" stroke="#000000" stroke-linecap="round" stroke-linejoin="round" stroke-miterlimit="10" stroke-width="20.1764" x1="-761.047" x2="-761.047" y1="1455.347" y2="1463.378"/>

<line fill="none" stroke="#000000" stroke-linecap="round" stroke-linejoin="round" stroke-miterlimit="10" stroke-width="20.1764" x1="-761.047" x2="-761.047" y1="1492.671" y2="1544.426"/>

</g>

<g>

<path d="    M-157.872,1086.896L-157.872,1086.896c8.001-4.229,17.975-1.143,22.204,6.859l44.41,84.049c4.201,7.974,1.114,17.976-6.858,22.206    l0,0c-8.002,4.201-17.976,1.143-22.205-6.859l-44.41-84.049C-168.932,1101.1-165.846,1091.126-157.872,1086.896L-157.872,1086.896    z" fill="none" stroke="#000000" stroke-linecap="round" stroke-linejoin="round" stroke-miterlimit="10" stroke-width="20.1478"/>

<polygon fill="none" points="    -407.327,1257.824 -164.731,1109.102 -120.321,1193.151 -379.922,1309.723   " stroke="#000000" stroke-linecap="round" stroke-linejoin="round" stroke-miterlimit="10" stroke-width="20.1478"/>

<path d="    M-438.477,1288.718l37.094-19.605l16.604,31.408l-37.123,19.605c-0.027-0.114-0.085-0.2-0.143-0.286L-438.477,1288.718z" fill="none" stroke="#000000" stroke-linecap="round" stroke-linejoin="round" stroke-miterlimit="10" stroke-width="20.1478"/>

<path d="    M-457.51,1282.859L-457.51,1282.859c6.859-3.629,15.403-1,19.033,5.859l16.432,31.122c3.629,6.859,1,15.433-5.858,19.033l0,0    c-6.858,3.63-15.403,0.972-19.032-5.858l-16.433-31.15C-466.998,1295.034-464.368,1286.46-457.51,1282.859L-457.51,1282.859z" fill="none" stroke="#000000" stroke-linecap="round" stroke-linejoin="round" stroke-miterlimit="10" stroke-width="20.1478"/>

<rect fill="none" height="34.551" stroke="#000000" stroke-linecap="round" stroke-linejoin="round" stroke-miterlimit="10" stroke-width="20.1478" width="61.699" x="-283.9" y="1306.036"/>

<polyline fill="none" points="    -308.592,1552.811 -253.064,1340.587 -201.225,1554.041   " stroke="#000000" stroke-linecap="round" stroke-linejoin="round" stroke-miterlimit="10" stroke-width="20.1478"/>

<line fill="none" stroke="#000000" stroke-linecap="round" stroke-linejoin="round" stroke-miterlimit="10" stroke-width="20.1478" x1="-253.351" x2="-253.351" y1="1558.356" y2="1351.047"/>

<line fill="none" stroke="#000000" stroke-linecap="round" stroke-linejoin="round" stroke-miterlimit="10" stroke-width="20.1478" x1="-253.351" x2="-253.351" y1="1301.435" y2="1258.91"/>

</g>

<g>

<path d="    M257.079,1227.991c71.759,0,129.914,58.157,129.914,129.889c0,40.725-18.747,77.048-48.039,100.854    c14.089-17.347,22.548-39.467,22.548-63.559c0-55.671-45.124-100.825-100.793-100.825c-55.698,0-100.822,45.154-100.822,100.825    c0,31.122,14.117,58.957,36.265,77.448c-41.009-21.834-68.957-65.017-68.957-114.743    C127.194,1286.148,185.349,1227.991,257.079,1227.991L257.079,1227.991z" fill="none" stroke="#000000" stroke-linecap="round" stroke-linejoin="round" stroke-miterlimit="10" stroke-width="20.1478"/>

<path d="    M260.709,1496c55.526,0,100.793-45.297,100.793-100.825c0-55.527-45.267-100.825-100.793-100.825s-100.822,45.297-100.822,100.825    C159.887,1450.703,205.183,1496,260.709,1496L260.709,1496z" fill="none" stroke="#000000" stroke-linecap="round" stroke-linejoin="round" stroke-miterlimit="10" stroke-width="20.1478"/>

<line fill="none" stroke="#000000" stroke-linecap="round" stroke-linejoin="round" stroke-miterlimit="10" stroke-width="20.1478" x1="207.011" x2="358.759" y1="1318.642" y2="1371.684"/>

<line fill="none" stroke="#000000" stroke-linecap="round" stroke-linejoin="round" stroke-miterlimit="10" stroke-width="20.1478" x1="168.574" x2="358.587" y1="1354.137" y2="1419.409"/>

<line fill="none" stroke="#000000" stroke-linecap="round" stroke-linejoin="round" stroke-miterlimit="10" stroke-width="20.1478" x1="161.173" x2="328.523" y1="1411.293" y2="1469.765"/>

<line fill="none" stroke="#000000" stroke-linecap="round" stroke-linejoin="round" stroke-miterlimit="10" stroke-width="20.1478" x1="84.527" x2="25" y1="1350.106" y2="1350.106"/>

<line fill="none" stroke="#000000" stroke-linecap="round" stroke-linejoin="round" stroke-miterlimit="10" stroke-width="20.1478" x1="257.107" x2="257.107" y1="1135.14" y2="1191.067"/>

<line fill="none" stroke="#000000" stroke-linecap="round" stroke-linejoin="round" stroke-miterlimit="10" stroke-width="20.1478" x1="486.701" x2="427.146" y1="1350.335" y2="1350.335"/>

<line fill="none" stroke="#000000" stroke-linecap="round" stroke-linejoin="round" stroke-miterlimit="10" stroke-width="20.1478" x1="131.022" x2="81.784" y1="1246.596" y2="1213.13"/>

<line fill="none" stroke="#000000" stroke-linecap="round" stroke-linejoin="round" stroke-miterlimit="10" stroke-width="20.1478" x1="382.479" x2="431.718" y1="1246.596" y2="1213.13"/>

</g>

</g>

</svg>