<?xml version="1.0" ?>

<!DOCTYPE svg  PUBLIC '-//W3C//DTD SVG 1.1//EN'  'http://www.w3.org/Graphics/SVG/1.1/DTD/svg11.dtd'>


<svg width="800px" height="800px" viewBox="0 0 512 512" enable-background="new 0 0 512 512" version="1.1" xml:space="preserve" xmlns="http://www.w3.org/2000/svg" xmlns:xlink="http://www.w3.org/1999/xlink">

<g id="_x30_1"/>

<g id="_x30_2"/>

<g id="_x30_3"/>

<g id="_x30_4"/>

<g id="_x30_5"/>

<g id="_x30_6"/>

<g id="_x30_7"/>

<g id="_x30_8"/>

<g id="_x30_9"/>

<g id="_x31_0"/>

<g id="_x31_1"/>

<g id="_x31_2"/>

<g id="_x31_3"/>

<g id="_x31_4"/>

<g id="_x31_5"/>

<g id="_x31_6"/>

<g id="_x31_7"/>

<g id="_x31_8"/>

<g id="_x31_9"/>

<g id="_x32_0"/>

<g id="_x32_1"/>

<g id="_x32_2"/>

<g id="_x32_3"/>

<g id="_x32_4"/>

<g id="_x32_5"/>

<g id="_x32_6"/>

<g id="_x32_7"/>

<g id="_x32_8"/>

<g id="_x32_9"/>

<g id="_x33_0"/>

<g id="_x33_1"/>

<g id="_x33_2"/>

<g id="_x33_3"/>

<g id="_x33_4"/>

<g id="_x33_5"/>

<g id="_x33_6"/>

<g id="_x33_7"/>

<g id="_x33_8"/>

<g id="_x33_9"/>

<g id="_x34_0"/>

<g id="_x34_1"/>

<g id="_x34_2"/>

<g id="_x34_3"/>

<g id="_x34_4"/>

<g id="_x34_5"/>

<g id="_x34_6"/>

<g id="_x34_7"/>

<g id="_x34_8"/>

<g id="_x34_9"/>

<g id="_x35_0">

<g>

<path d="    M-1333.499-683.602c-43.863,44.825-115.773,45.611-160.598,1.748c-44.853-43.864-45.64-115.777-1.776-160.603L-1333.499-683.602z" fill="none" stroke="#000000" stroke-linecap="round" stroke-linejoin="round" stroke-miterlimit="10" stroke-width="20.1478"/>

<path d="    M-1498.116-685.961l-39.523,86.971h97.337l-28.251-64.019c-9.145-4.952-17.766-11.214-25.543-18.845    C-1495.494-683.194-1496.805-684.563-1498.116-685.961L-1498.116-685.961z" fill="none" stroke="#000000" stroke-linecap="round" stroke-linejoin="round" stroke-miterlimit="10" stroke-width="20.1478"/>

<line fill="none" stroke="#000000" stroke-linecap="round" stroke-linejoin="round" stroke-miterlimit="10" stroke-width="20.1478" x1="-1362.129" x2="-1409.167" y1="-817.437" y2="-769.32"/>

<path d="    M-1128.397-663.33c-33.377,34.078-88.046,34.689-122.151,1.311c-34.106-33.35-34.718-88.048-1.34-122.156L-1128.397-663.33z" fill="none" stroke="#000000" stroke-linecap="round" stroke-linejoin="round" stroke-miterlimit="10" stroke-width="20.1478"/>

<path d="    M-1253.607-665.136l-30.058,66.146h74.037l-21.494-48.699c-6.961-3.757-13.515-8.535-19.427-14.33    C-1251.598-663.038-1252.617-664.087-1253.607-665.136L-1253.607-665.136z" fill="none" stroke="#000000" stroke-linecap="round" stroke-linejoin="round" stroke-miterlimit="10" stroke-width="20.1478"/>

<line fill="none" stroke="#000000" stroke-linecap="round" stroke-linejoin="round" stroke-miterlimit="10" stroke-width="20.1478" x1="-1150.183" x2="-1185.979" y1="-765.126" y2="-728.543"/>

<line fill="none" stroke="#000000" stroke-linecap="round" stroke-linejoin="round" stroke-miterlimit="10" stroke-width="20.1478" x1="-1473.476" x2="-1473.476" y1="-779.485" y2="-779.776"/>

<line fill="none" stroke="#000000" stroke-linecap="round" stroke-linejoin="round" stroke-miterlimit="10" stroke-width="20.1478" x1="-1445.952" x2="-1445.952" y1="-749.428" y2="-749.689"/>

<line fill="none" stroke="#000000" stroke-linecap="round" stroke-linejoin="round" stroke-miterlimit="10" stroke-width="20.1478" x1="-1417.729" x2="-1417.729" y1="-721.991" y2="-722.281"/>

<line fill="none" stroke="#000000" stroke-linecap="round" stroke-linejoin="round" stroke-miterlimit="10" stroke-width="20.1478" x1="-1391.633" x2="-1391.633" y1="-697.321" y2="-697.583"/>

<line fill="none" stroke="#000000" stroke-linecap="round" stroke-linejoin="round" stroke-miterlimit="10" stroke-width="20.1478" x1="-1227.977" x2="-1227.977" y1="-724.378" y2="-724.641"/>

<line fill="none" stroke="#000000" stroke-linecap="round" stroke-linejoin="round" stroke-miterlimit="10" stroke-width="20.1478" x1="-1195.881" x2="-1195.881" y1="-693.068" y2="-693.33"/>

<path d="    M-1186.706-901.029c28.863,0,52.397-23.534,52.397-52.398c0-28.864-23.534-52.398-52.397-52.398    c-28.864,0-52.426,23.534-52.426,52.398C-1239.132-924.563-1215.57-901.029-1186.706-901.029L-1186.706-901.029z" fill="none" stroke="#000000" stroke-linecap="round" stroke-linejoin="round" stroke-miterlimit="10" stroke-width="20.1478"/>

<line fill="none" stroke="#000000" stroke-linecap="round" stroke-linejoin="round" stroke-miterlimit="10" stroke-width="20.1478" x1="-1578.56" x2="-1100" y1="-599.369" y2="-598.612"/>

<line fill="none" stroke="#000000" stroke-linecap="round" stroke-linejoin="round" stroke-miterlimit="10" stroke-width="20.1478" x1="-1423.642" x2="-1423.642" y1="-989.398" y2="-989.66"/>

<line fill="none" stroke="#000000" stroke-linecap="round" stroke-linejoin="round" stroke-miterlimit="10" stroke-width="20.1478" x1="-1524.59" x2="-1524.59" y1="-990.417" y2="-990.709"/>

<line fill="none" stroke="#000000" stroke-linecap="round" stroke-linejoin="round" stroke-miterlimit="10" stroke-width="20.1478" x1="-1453.699" x2="-1453.699" y1="-923.893" y2="-924.155"/>

<line fill="none" stroke="#000000" stroke-linecap="round" stroke-linejoin="round" stroke-miterlimit="10" stroke-width="20.1478" x1="-1328.839" x2="-1328.839" y1="-1011.737" y2="-1012"/>

<line fill="none" stroke="#000000" stroke-linecap="round" stroke-linejoin="round" stroke-miterlimit="10" stroke-width="20.1478" x1="-1260.277" x2="-1260.277" y1="-853.757" y2="-854.02"/>

<line fill="none" stroke="#000000" stroke-linecap="round" stroke-linejoin="round" stroke-miterlimit="10" stroke-width="20.1478" x1="-1271.054" x2="-1351.207" y1="-986.573" y2="-897.185"/>

<line fill="none" stroke="#000000" stroke-linecap="round" stroke-linejoin="round" stroke-miterlimit="10" stroke-width="20.1478" x1="-1492.203" x2="-1543.085" y1="-964.233" y2="-905.66"/>

<line fill="none" stroke="#000000" stroke-linecap="round" stroke-linejoin="round" stroke-miterlimit="10" stroke-width="20.1478" x1="-1109.99" x2="-1143.892" y1="-870.214" y2="-833.223"/>

</g>

<g>

<path d="    M-809.01-771.838c22.682,0,41.177-18.497,41.177-41.179c0-22.682-18.496-41.179-41.177-41.179    c-22.683,0-41.178,18.497-41.178,41.179C-850.188-790.335-831.693-771.838-809.01-771.838L-809.01-771.838z" fill="none" stroke="#000000" stroke-linecap="round" stroke-linejoin="round" stroke-miterlimit="10" stroke-width="20.1764"/>

<path d="    M-971.318-722.465c15.141,0,27.492-12.351,27.492-27.492s-12.351-27.493-27.492-27.493c-15.17,0-27.521,12.351-27.521,27.493    S-986.488-722.465-971.318-722.465L-971.318-722.465z" fill="none" stroke="#000000" stroke-linecap="round" stroke-linejoin="round" stroke-miterlimit="10" stroke-width="20.1764"/>

<path d="    M-891.693-954.694c15.141,0,27.492-12.351,27.492-27.493c0-15.142-12.351-27.492-27.492-27.492s-27.491,12.35-27.491,27.492    C-919.185-967.045-906.834-954.694-891.693-954.694L-891.693-954.694z" fill="none" stroke="#000000" stroke-linecap="round" stroke-linejoin="round" stroke-miterlimit="10" stroke-width="20.1764"/>

<path d="    M-808.536-896.949c132.855,0,240.536,38.507,240.536,86.04c0,47.503-107.68,86.04-240.536,86.04    c-50.946,0-98.18-5.67-137.072-15.35c1.128-3.027,1.781-6.294,1.781-9.737c0-15.171-12.32-27.493-27.492-27.493    c-12.499,0-23.008,8.313-26.393,19.684c-32.183-14.607-51.391-33.073-51.391-53.144    C-1049.102-858.442-941.392-896.949-808.536-896.949L-808.536-896.949z" fill="none" stroke="#000000" stroke-linecap="round" stroke-linejoin="round" stroke-miterlimit="10" stroke-width="20.1764"/>

<path d="    M-864.588-977.614c40.525,12.647,90.877,57.359,130.48,120.449c56.765,90.375,70.006,184.222,29.6,209.577    c-40.405,25.384-119.199-27.314-175.934-117.688c-53.588-85.297-68.372-173.682-35.893-204.678    c4.513,9.056,13.834,15.261,24.641,15.261C-878.096-954.694-866.785-964.611-864.588-977.614L-864.588-977.614z" fill="none" stroke="#000000" stroke-linecap="round" stroke-linejoin="round" stroke-miterlimit="10" stroke-width="20.1764"/>

</g>

<g>

<path d="    M-313.059-657.173c77.058,0,139.925-62.869,139.925-139.928c0-77.059-62.867-139.899-139.925-139.899    c-77.057,0-139.894,62.84-139.894,139.899C-452.953-720.042-390.116-657.173-313.059-657.173L-313.059-657.173z" fill="none" stroke="#000000" stroke-linecap="round" stroke-linejoin="round" stroke-miterlimit="10" stroke-width="20.1764"/>

<path d="    M-188.791-863.231c89.13,7.609,152.321,26.617,152.321,48.856c0,8.284-8.754,16.128-24.384,23.091 M-129.303-772.894    c-40.364,6.846-90.981,10.929-145.946,10.929c-131.847,0-238.751-23.473-238.751-52.41c0-14.689,27.585-27.969,71.975-37.487" fill="none" stroke="#000000" stroke-linecap="round" stroke-linejoin="round" stroke-miterlimit="10" stroke-width="20.1764"/>

<path d="    M-94.813-741.987c17.567,0,31.875-14.308,31.875-31.876c0-17.539-14.308-31.875-31.875-31.875s-31.874,14.336-31.874,31.875    C-126.688-756.295-112.381-741.987-94.813-741.987L-94.813-741.987z" fill="none" stroke="#000000" stroke-linecap="round" stroke-linejoin="round" stroke-miterlimit="10" stroke-width="20.1764"/>

<path d="    M-196.136-722.01c-31.141,12.486-74.854,20.271-123.268,20.271c-38.955,0-74.883-5.023-103.615-13.514" fill="none" stroke="#000000" stroke-linecap="round" stroke-linejoin="round" stroke-miterlimit="10" stroke-width="20.1764"/>

<path d="    M-176.952-830.034c-31.259,15.688-80.348,25.794-135.549,25.794c-54.758,0-103.496-9.959-134.782-25.412" fill="none" stroke="#000000" stroke-linecap="round" stroke-linejoin="round" stroke-miterlimit="10" stroke-width="20.1764"/>

<path d="    M-231.419-908.65c-23.384,4.613-49.883,7.257-77.968,7.257c-30.522,0-59.166-3.114-83.959-8.52" fill="none" stroke="#000000" stroke-linecap="round" stroke-linejoin="round" stroke-miterlimit="10" stroke-width="20.1764"/>

</g>

<g>

<path d="    M257.394-839.521c129.086,0,234.366-20.577,234.366-45.754c0-25.206-105.28-45.754-234.366-45.754    C128.279-931.029,23-910.481,23-885.275C23-860.098,128.279-839.521,257.394-839.521L257.394-839.521z" fill="none" stroke="#000000" stroke-linecap="round" stroke-linejoin="round" stroke-miterlimit="10" stroke-width="20.1478"/>

<polygon fill="none" points="    99.559,-578.799 398.71,-578.799 291.544,-785.507 202.01,-785.507   " stroke="#000000" stroke-linecap="round" stroke-linejoin="round" stroke-miterlimit="10" stroke-width="20.1478"/>

<line fill="none" stroke="#000000" stroke-linecap="round" stroke-linejoin="round" stroke-miterlimit="10" stroke-width="20.1478" x1="214.984" x2="187.893" y1="-696.972" y2="-578.799"/>

<line fill="none" stroke="#000000" stroke-linecap="round" stroke-linejoin="round" stroke-miterlimit="10" stroke-width="20.1478" x1="228.416" x2="222.872" y1="-759.501" y2="-735.295"/>

<line fill="none" stroke="#000000" stroke-linecap="round" stroke-linejoin="round" stroke-miterlimit="10" stroke-width="20.1478" x1="273.283" x2="287.343" y1="-759.501" y2="-705.602"/>

<line fill="none" stroke="#000000" stroke-linecap="round" stroke-linejoin="round" stroke-miterlimit="10" stroke-width="20.1478" x1="197.638" x2="197.638" y1="-965.667" y2="-965.952"/>

<line fill="none" stroke="#000000" stroke-linecap="round" stroke-linejoin="round" stroke-miterlimit="10" stroke-width="20.1478" x1="258.108" x2="258.108" y1="-965.667" y2="-965.952"/>

<line fill="none" stroke="#000000" stroke-linecap="round" stroke-linejoin="round" stroke-miterlimit="10" stroke-width="20.1478" x1="318.607" x2="318.607" y1="-965.667" y2="-965.952"/>

<path d="    M155.199-999.503H359.53v73.047c-30.864-3.887-65.528-6.059-102.137-6.059c-36.636,0-71.302,2.172-102.194,6.059V-999.503z" fill="none" stroke="#000000" stroke-linecap="round" stroke-linejoin="round" stroke-miterlimit="10" stroke-width="20.1478"/>

<path d="    M257.565-1044c30.949,0,57.612,18.205,69.9,44.497H187.664C199.953-1025.795,226.645-1044,257.565-1044L257.565-1044z" fill="none" stroke="#000000" stroke-linecap="round" stroke-linejoin="round" stroke-miterlimit="10" stroke-width="20.1478"/>

<line fill="none" stroke="#000000" stroke-linecap="round" stroke-linejoin="round" stroke-miterlimit="10" stroke-width="20.1478" x1="361.56" x2="384.25" y1="-957.293" y2="-957.293"/>

<line fill="none" stroke="#000000" stroke-linecap="round" stroke-linejoin="round" stroke-miterlimit="10" stroke-width="20.1478" x1="132.852" x2="155.543" y1="-957.293" y2="-957.293"/>

<line fill="none" stroke="#000000" stroke-linecap="round" stroke-linejoin="round" stroke-miterlimit="10" stroke-width="20.1478" x1="194.065" x2="320.693" y1="-885.275" y2="-885.275"/>

<line fill="none" stroke="#000000" stroke-linecap="round" stroke-linejoin="round" stroke-miterlimit="10" stroke-width="20.1478" x1="293.431" x2="295.802" y1="-678.825" y2="-669.737"/>

</g>

<g>

<path d="    M787.136-628.278c30.578,0,55.556-24.949,55.556-55.557c0-30.579-24.978-55.527-55.556-55.527    c-30.606,0-55.555,24.948-55.555,55.527C731.581-653.227,756.529-628.278,787.136-628.278L787.136-628.278z" fill="none" stroke="#000000" stroke-linecap="round" stroke-linejoin="round" stroke-miterlimit="10" stroke-width="20.1764"/>

<path d="    M722.408-1009L722.408-1009c14.631,0,26.634,11.975,26.634,26.635v82.306l0.086,75.533c-0.058,16.204,45.724,14.861,45.724,0.257    l-0.028-75.79h37.637v-26.807c0-12.403,10.146-22.548,22.548-22.548l0,0c12.403,0,22.548,10.146,22.548,22.548v28.55v0.114v29.979    v180.273c0,50.498-41.295,91.794-91.792,91.794l0,0c-50.496,0-91.819-41.296-91.819-91.794v-210.251l-0.058-84.364    C693.887-997.197,707.775-1009,722.408-1009L722.408-1009z" fill="none" stroke="#000000" stroke-linecap="round" stroke-linejoin="round" stroke-miterlimit="10" stroke-width="20.1764"/>

<line fill="none" stroke="#000000" stroke-linecap="round" stroke-linejoin="round" stroke-miterlimit="10" stroke-width="20.1764" x1="838.947" x2="838.947" y1="-817.553" y2="-768.883"/>

<line fill="none" stroke="#000000" stroke-linecap="round" stroke-linejoin="round" stroke-miterlimit="10" stroke-width="20.1764" x1="796.71" x2="796.71" y1="-784.516" y2="-707.383"/>

<line fill="none" stroke="#000000" stroke-linecap="round" stroke-linejoin="round" stroke-miterlimit="10" stroke-width="20.1764" x1="735.496" x2="735.496" y1="-784.516" y2="-705.525"/>

<line fill="none" stroke="#000000" stroke-linecap="round" stroke-linejoin="round" stroke-miterlimit="10" stroke-width="20.1764" x1="838.947" x2="838.947" y1="-866.536" y2="-850.618"/>

<line fill="none" stroke="#000000" stroke-linecap="round" stroke-linejoin="round" stroke-miterlimit="10" stroke-width="20.1764" x1="763.816" x2="763.816" y1="-695.609" y2="-695.894"/>

<path d="    M1020.073-852.762v158.839c0,23.749-22.148,43.153-49.24,43.153l0,0c-27.091,0-49.239-19.404-49.239-43.153v-139.949v-0.057    v-65.645c0-8.573,8.002-15.604,17.805-15.604l0,0c9.802,0,17.832,7.03,17.832,15.604v37.581c-0.028,0.314-0.028,0.6-0.028,0.915    v65.645c0,8.573,7.001,15.604,15.604,15.604l0,0c8.573,0,15.604-7.03,15.604-15.604v-57.329    C988.38-868.28,1020.073-868.166,1020.073-852.762L1020.073-852.762z" fill="none" stroke="#000000" stroke-linecap="round" stroke-linejoin="round" stroke-miterlimit="10" stroke-width="20.1764"/>

<path d="    M969.776-683.492c9.859,0,17.89-8.059,17.89-17.918c0-9.86-8.03-17.891-17.89-17.891s-17.919,8.03-17.919,17.891    C951.857-691.55,959.917-683.492,969.776-683.492L969.776-683.492z" fill="none" stroke="#000000" stroke-linecap="round" stroke-linejoin="round" stroke-miterlimit="10" stroke-width="20.1764"/>

<path d="    M649.135-925.751v150.18c0,22.462-20.977,40.81-46.582,40.81l0,0c-25.605,0-46.553-18.348-46.553-40.81v-132.347v-0.057v-62.072    c0-8.117,7.572-14.747,16.832-14.747l0,0c9.26,0,16.861,6.63,16.861,14.747v35.551c-0.029,0.286-0.029,0.572-0.029,0.857v62.072    c0,8.117,6.631,14.747,14.746,14.747l0,0c8.116,0,14.775-6.63,14.775-14.747v-54.185    C619.156-940.469,649.135-940.326,649.135-925.751L649.135-925.751z" fill="none" stroke="#000000" stroke-linecap="round" stroke-linejoin="round" stroke-miterlimit="10" stroke-width="20.1764"/>

<line fill="none" stroke="#000000" stroke-linecap="round" stroke-linejoin="round" stroke-miterlimit="10" stroke-width="20.1764" x1="601.124" x2="601.124" y1="-769.656" y2="-769.941"/>

<line fill="none" stroke="#000000" stroke-linecap="round" stroke-linejoin="round" stroke-miterlimit="10" stroke-width="20.1764" x1="602.953" x2="602.953" y1="-816.152" y2="-800.263"/>

<line fill="none" stroke="#000000" stroke-linecap="round" stroke-linejoin="round" stroke-miterlimit="10" stroke-width="20.1764" x1="949.028" x2="949.028" y1="-758.938" y2="-742.677"/>

<line fill="none" stroke="#000000" stroke-linecap="round" stroke-linejoin="round" stroke-miterlimit="10" stroke-width="20.1764" x1="993.267" x2="993.267" y1="-749.307" y2="-742.706"/>

</g>

<g>

<polygon fill="none" points="    768.477,-321.009 811.942,-247.963 708.377,-186.319 664.91,-259.394   " stroke="#000000" stroke-linecap="round" stroke-linejoin="round" stroke-miterlimit="10" stroke-width="20.1478"/>

<polygon fill="none" points="    692.373,-404.715 731.439,-339.042 688.916,-313.75 649.85,-379.395   " stroke="#000000" stroke-linecap="round" stroke-linejoin="round" stroke-miterlimit="10" stroke-width="20.1478"/>

<polygon fill="none" points="    809.856,-207.267 848.922,-141.594 806.398,-116.302 767.333,-181.946   " stroke="#000000" stroke-linecap="round" stroke-linejoin="round" stroke-miterlimit="10" stroke-width="20.1478"/>

<path d="    M832.404-339.957l26.406,44.382c5.286,8.917,2.343,20.52-6.545,25.835l0,0c-8.916,5.287-20.519,2.343-25.834-6.573l-26.406-44.382    c-5.286-8.888-2.343-20.52,6.545-25.806l0,0C815.486-351.817,827.089-348.845,832.404-339.957L832.404-339.957z" fill="none" stroke="#000000" stroke-linecap="round" stroke-linejoin="round" stroke-miterlimit="10" stroke-width="20.1478"/>

<line fill="none" stroke="#000000" stroke-linecap="round" stroke-linejoin="round" stroke-miterlimit="10" stroke-width="20.1478" x1="711.578" x2="729.182" y1="-327.211" y2="-297.632"/>

<line fill="none" stroke="#000000" stroke-linecap="round" stroke-linejoin="round" stroke-miterlimit="10" stroke-width="20.1478" x1="772.648" x2="789.967" y1="-224.557" y2="-195.436"/>

<path d="    M774.791-50c121.627,0,220.792-99.195,220.792-220.797c0-121.63-99.165-220.797-220.792-220.797    C653.193-491.594,554-392.427,554-270.797C554-149.195,653.193-50,774.791-50L774.791-50z" fill="none" stroke="#000000" stroke-linecap="round" stroke-linejoin="round" stroke-miterlimit="10" stroke-width="20.1478"/>

<path d="    M943.286-470.732c130.828-74.104,88.505,26.378-71.616,126.832" fill="none" stroke="#000000" stroke-linecap="round" stroke-linejoin="round" stroke-miterlimit="10" stroke-width="20.1478"/>

</g>

<g>

<line fill="none" stroke="#000000" stroke-linecap="round" stroke-linejoin="round" stroke-miterlimit="10" stroke-width="20.1764" x1="123.622" x2="213.014" y1="-159.131" y2="-159.532"/>

<line fill="none" stroke="#000000" stroke-linecap="round" stroke-linejoin="round" stroke-miterlimit="10" stroke-width="20.1764" x1="245.764" x2="302.005" y1="-170.934" y2="-230.435"/>

<path d="    M39.176-233.121c10.002,0,18.146-8.174,18.146-18.177c0-10.002-8.145-18.146-18.146-18.146c-10.03,0-18.176,8.145-18.176,18.146    C21-241.294,29.146-233.121,39.176-233.121L39.176-233.121z" fill="none" stroke="#000000" stroke-linecap="round" stroke-linejoin="round" stroke-miterlimit="10" stroke-width="20.1764"/>

<line fill="none" stroke="#000000" stroke-linecap="round" stroke-linejoin="round" stroke-miterlimit="10" stroke-width="20.1764" x1="326.781" x2="313.836" y1="-400.276" y2="-268.816"/>

<line fill="none" stroke="#000000" stroke-linecap="round" stroke-linejoin="round" stroke-miterlimit="10" stroke-width="20.1764" x1="392.311" x2="328.782" y1="-347.664" y2="-262.1"/>

<line fill="none" stroke="#000000" stroke-linecap="round" stroke-linejoin="round" stroke-miterlimit="10" stroke-width="20.1764" x1="453.209" x2="333.469" y1="-261.328" y2="-246.095"/>

<line fill="none" stroke="#000000" stroke-linecap="round" stroke-linejoin="round" stroke-miterlimit="10" stroke-width="20.1764" x1="49.949" x2="87.386" y1="-233.321" y2="-181.537"/>

<path d="    M102.532-146.757c10.031,0,18.176-8.145,18.176-18.176c0-10.002-8.145-18.147-18.176-18.147c-10.002,0-18.146,8.146-18.146,18.147    C84.386-154.902,92.53-146.757,102.532-146.757L102.532-146.757z" fill="none" stroke="#000000" stroke-linecap="round" stroke-linejoin="round" stroke-miterlimit="10" stroke-width="20.1764"/>

<path d="    M231.161-141.927c10.002,0,18.175-8.174,18.175-18.176c0-10.003-8.173-18.176-18.175-18.176c-10.003,0-18.147,8.173-18.147,18.176    C213.014-150.101,221.158-141.927,231.161-141.927L231.161-141.927z" fill="none" stroke="#000000" stroke-linecap="round" stroke-linejoin="round" stroke-miterlimit="10" stroke-width="20.1764"/>

<path d="    M315.322-227.919c10.002,0,18.146-8.174,18.146-18.176c0-10.003-8.145-18.177-18.146-18.177c-10.003,0-18.176,8.174-18.176,18.177    C297.146-236.093,305.319-227.919,315.322-227.919L315.322-227.919z" fill="none" stroke="#000000" stroke-linecap="round" stroke-linejoin="round" stroke-miterlimit="10" stroke-width="20.1764"/>

<path d="    M471.07-247.21c10.002,0,18.176-8.173,18.176-18.176c0-10.002-8.174-18.176-18.176-18.176s-18.146,8.174-18.146,18.176    C452.924-255.383,461.068-247.21,471.07-247.21L471.07-247.21z" fill="none" stroke="#000000" stroke-linecap="round" stroke-linejoin="round" stroke-miterlimit="10" stroke-width="20.1764"/>

<path d="    M405.398-344.32c10.003,0,18.147-8.173,18.147-18.176s-8.145-18.176-18.147-18.176c-10.03,0-18.175,8.174-18.175,18.176    S395.368-344.32,405.398-344.32L405.398-344.32z" fill="none" stroke="#000000" stroke-linecap="round" stroke-linejoin="round" stroke-miterlimit="10" stroke-width="20.1764"/>

<path d="    M328.296-400.677c10.002,0,18.147-8.145,18.147-18.147c0-10.031-8.146-18.176-18.147-18.176s-18.175,8.145-18.175,18.176    C310.121-408.821,318.294-400.677,328.296-400.677L328.296-400.677z" fill="none" stroke="#000000" stroke-linecap="round" stroke-linejoin="round" stroke-miterlimit="10" stroke-width="20.1764"/>

</g>

<g>

<path d="    M-276.246-504C-156.82-504-60-414.835-60-304.808c0,96.166-101.707,259.864-214.361,259.864    c-111.081,0-218.133-163.841-218.133-259.864C-492.494-414.835-395.673-504-276.246-504L-276.246-504z" fill="none" stroke="#000000" stroke-linecap="round" stroke-linejoin="round" stroke-miterlimit="10" stroke-width="20.1764"/>

<path d="    M-349.434-334.559c32.179,27.292,49.268,59.987,38.18,73.076c-11.089,13.06-46.153,1.543-78.331-25.75    c-32.15-27.292-49.24-60.015-38.18-73.075C-416.677-373.396-381.613-361.851-349.434-334.559L-349.434-334.559z" fill="none" stroke="#000000" stroke-linecap="round" stroke-linejoin="round" stroke-miterlimit="10" stroke-width="20.1764"/>

<path d="    M-208.09-334.559c-32.178,27.292-49.268,59.987-38.18,73.076c11.09,13.06,46.154,1.543,78.303-25.75    c32.18-27.292,49.27-60.015,38.182-73.075C-140.875-373.396-175.939-361.851-208.09-334.559L-208.09-334.559z" fill="none" stroke="#000000" stroke-linecap="round" stroke-linejoin="round" stroke-miterlimit="10" stroke-width="20.1764"/>

<line fill="none" stroke="#000000" stroke-linecap="round" stroke-linejoin="round" stroke-miterlimit="10" stroke-width="20.1764" x1="-308.511" x2="-308.511" y1="-185.893" y2="-186.151"/>

<line fill="none" stroke="#000000" stroke-linecap="round" stroke-linejoin="round" stroke-miterlimit="10" stroke-width="20.1764" x1="-248.012" x2="-248.012" y1="-185.893" y2="-186.151"/>

</g>

<g>

<path d="    M-880.498-420.989c39.38,9.459,82.647,26.006,125.885,49.298c126.284,67.96,204.673,167.584,175.124,222.512    c-16.29,30.265-61.928,40.639-120.741,32.522 M-765.758-131.832c-30.864-9.745-63.385-23.435-95.907-40.953    c-126.256-67.96-204.673-167.584-175.096-222.512c16.775-31.151,64.671-41.239,126.028-31.722" fill="none" stroke="#000000" stroke-linecap="round" stroke-linejoin="round" stroke-miterlimit="10" stroke-width="20.1764"/>

<path d="    M-940.768-302.417c-10.974-15.976-14.746-30.179-9.288-40.324c14.604-27.121,89.906-14.975,168.208,27.149    c26.406,14.204,49.754,30.007,68.559,45.754 M-692.056-250.118c22.747,23.806,33.121,45.84,25.491,59.986    c-14.604,27.149-89.906,15.003-168.208-27.15c-37.637-20.262-69.129-43.782-90.048-65.759" fill="none" stroke="#000000" stroke-linecap="round" stroke-linejoin="round" stroke-miterlimit="10" stroke-width="20.1764"/>

<path d="    M-796.422-288.528c12.231,6.573,16.804,21.777,10.23,33.98c-6.572,12.231-21.805,16.775-34.007,10.23    c-12.203-6.572-16.775-21.805-10.202-34.008C-823.828-290.528-808.625-295.101-796.422-288.528L-796.422-288.528z" fill="none" stroke="#000000" stroke-linecap="round" stroke-linejoin="round" stroke-miterlimit="10" stroke-width="20.1764"/>

<line fill="none" stroke="#000000" stroke-linecap="round" stroke-linejoin="round" stroke-miterlimit="10" stroke-width="20.1764" x1="-735.237" x2="-735.151" y1="-122.688" y2="-122.858"/>

</g>

<g>

<path d="    M-1337.813-266.798c66.157,0,120.111-53.956,120.111-120.115c0-66.131-53.954-120.087-120.111-120.087    c-66.129,0-120.084,53.956-120.084,120.087C-1457.897-320.754-1403.943-266.798-1337.813-266.798L-1337.813-266.798z" fill="none" stroke="#000000" stroke-linecap="round" stroke-linejoin="round" stroke-miterlimit="10" stroke-width="20.1764"/>

<path d="    M-1266.112-290.547c-20.005,14.918-44.81,23.749-71.701,23.749c-26.863,0-51.669-8.83-71.673-23.749    c21.376-4.772,45.781-7.516,71.702-7.516C-1311.894-298.063-1287.488-295.319-1266.112-290.547L-1266.112-290.547z" fill="none" stroke="#000000" stroke-linecap="round" stroke-linejoin="round" stroke-miterlimit="10" stroke-width="20.1764"/>

<path d="    M-1272.399-432.153c10.06,13.546,16.003,30.322,16.003,48.469c0,15.375-4.286,29.75-11.688,42.011h-139.431    c-7.43-12.26-11.688-26.635-11.688-42.011c0-18.147,5.944-34.923,16.003-48.469H-1272.399z" fill="none" stroke="#000000" stroke-linecap="round" stroke-linejoin="round" stroke-miterlimit="10" stroke-width="20.1764"/>

<path d="    M-1383.281-400.545c-5.287,6.944-5.229,11.688-1.657,20.062" fill="none" stroke="#000000" stroke-linecap="round" stroke-linejoin="round" stroke-miterlimit="10" stroke-width="20.1764"/>

<path d="    M-1295.376-499.284c-10.517,12.203-26.12,19.948-43.495,19.948c-17.09,0-32.436-7.488-42.953-19.348    c13.632-5.373,28.492-8.316,44.01-8.316C-1322.868-507-1308.579-504.256-1295.376-499.284L-1295.376-499.284z" fill="none" stroke="#000000" stroke-linecap="round" stroke-linejoin="round" stroke-miterlimit="10" stroke-width="20.1764"/>

<path d="    M-1466.014-344.045h16.004c6.715,17.633,17.518,33.265,31.207,45.783c-4.258-3.858-8.202-8.031-11.86-12.489    c-22.748,1.429-43.667,9.831-60.699,23.063v-31.007C-1491.362-332.643-1479.959-344.045-1466.014-344.045L-1466.014-344.045z     M-1418.803-298.234c1.086,0.972,2.201,1.943,3.315,2.915C-1416.603-296.291-1417.717-297.263-1418.803-298.234L-1418.803-298.234    z M-1415.431-295.262c0.543,0.458,1.086,0.915,1.629,1.343C-1414.345-294.348-1414.888-294.805-1415.431-295.262    L-1415.431-295.262z M-1413.745-293.862c1.115,0.915,2.258,1.8,3.401,2.687C-1411.487-292.062-1412.63-292.947-1413.745-293.862    L-1413.745-293.862z M-1410.173-291.061c0.572,0.429,1.143,0.857,1.686,1.257C-1409.03-290.204-1409.601-290.632-1410.173-291.061    L-1410.173-291.061z M-1408.458-289.775c0.6,0.429,1.2,0.857,1.8,1.286C-1407.258-288.917-1407.858-289.346-1408.458-289.775    L-1408.458-289.775z M-1406.629-288.489c0.543,0.4,1.114,0.8,1.686,1.171C-1405.515-287.689-1406.086-288.089-1406.629-288.489    L-1406.629-288.489z M-1404.714-287.146c1.172,0.772,2.372,1.543,3.572,2.287    C-1402.342-285.603-1403.542-286.374-1404.714-287.146L-1404.714-287.146z M-1400.914-284.717    c0.543,0.343,1.058,0.657,1.601,0.972C-1399.856-284.06-1400.371-284.374-1400.914-284.717L-1400.914-284.717z M-1399.027-283.574    c1.2,0.715,2.4,1.4,3.629,2.086C-1396.627-282.173-1397.827-282.859-1399.027-283.574L-1399.027-283.574z M-1395.055-281.316    c0.515,0.286,1.058,0.572,1.601,0.857C-1393.998-280.744-1394.541-281.03-1395.055-281.316L-1395.055-281.316z M-1393.198-280.315    c0.629,0.314,1.258,0.657,1.886,0.972C-1391.94-279.658-1392.569-280.001-1393.198-280.315L-1393.198-280.315z M-1391.14-279.287    c0.543,0.286,1.115,0.571,1.687,0.829C-1390.025-278.715-1390.597-279.001-1391.14-279.287L-1391.14-279.287z M-1389.054-278.258    c0.571,0.257,1.143,0.543,1.715,0.8C-1387.911-277.715-1388.482-278-1389.054-278.258L-1389.054-278.258z M-1387.167-277.4    c0.628,0.286,1.286,0.571,1.915,0.857C-1385.882-276.829-1386.539-277.115-1387.167-277.4L-1387.167-277.4z M-1384.91-276.4    c0.543,0.229,1.058,0.457,1.601,0.657C-1383.853-275.943-1384.367-276.171-1384.91-276.4L-1384.91-276.4z M-1382.881-275.542    c1.286,0.514,2.572,1,3.858,1.485C-1380.309-274.542-1381.595-275.029-1382.881-275.542L-1382.881-275.542z M-1378.537-273.885    c0.514,0.171,1.029,0.371,1.543,0.543C-1377.508-273.514-1378.023-273.714-1378.537-273.885L-1378.537-273.885z M-1376.537-273.2    c0.657,0.229,1.314,0.457,1.972,0.657C-1375.222-272.743-1375.879-272.971-1376.537-273.2L-1376.537-273.2z M-1374.365-272.485    c0.6,0.2,1.171,0.371,1.772,0.543C-1373.193-272.114-1373.765-272.285-1374.365-272.485L-1374.365-272.485z M-1372.05-271.771    c0.543,0.172,1.086,0.314,1.629,0.486C-1370.964-271.457-1371.507-271.599-1372.05-271.771L-1372.05-271.771z M-1370.05-271.199    c0.658,0.2,1.315,0.371,2,0.543C-1368.735-270.828-1369.392-270.999-1370.05-271.199L-1370.05-271.199z M-1367.621-270.542    c0.543,0.143,1.058,0.257,1.601,0.399C-1366.563-270.285-1367.078-270.399-1367.621-270.542L-1367.621-270.542z     M-1365.449-269.999c0.6,0.143,1.2,0.285,1.801,0.399C-1364.249-269.713-1364.849-269.856-1365.449-269.999L-1365.449-269.999z     M-1363.419-269.542c0.686,0.143,1.343,0.286,2.029,0.429C-1362.076-269.255-1362.734-269.399-1363.419-269.542L-1363.419-269.542    z M-1360.848-269.027c0.543,0.114,1.058,0.2,1.572,0.314C-1359.79-268.827-1360.305-268.913-1360.848-269.027L-1360.848-269.027z     M-1358.704-268.627c0.686,0.115,1.372,0.229,2.058,0.344C-1357.333-268.398-1358.019-268.512-1358.704-268.627L-1358.704-268.627    z M-1356.475-268.255c0.628,0.114,1.257,0.2,1.886,0.286C-1355.218-268.055-1355.847-268.141-1356.475-268.255L-1356.475-268.255z     M-1353.989-267.884c0.543,0.058,1.086,0.144,1.657,0.2C-1352.903-267.741-1353.446-267.827-1353.989-267.884L-1353.989-267.884z     M-1351.846-267.626c0.686,0.086,1.372,0.171,2.086,0.229C-1350.474-267.456-1351.16-267.541-1351.846-267.626L-1351.846-267.626z     M-1349.359-267.37c0.572,0.058,1.143,0.114,1.743,0.172C-1348.216-267.255-1348.788-267.312-1349.359-267.37L-1349.359-267.37z     M-1347.016-267.169c0.6,0.057,1.2,0.086,1.8,0.143C-1345.816-267.083-1346.416-267.113-1347.016-267.169L-1347.016-267.169z     M-1344.873-266.998c0.686,0.028,1.4,0.057,2.115,0.085C-1343.472-266.941-1344.187-266.969-1344.873-266.998L-1344.873-266.998z     M-1342.187-266.883c0.543,0.028,1.086,0.028,1.629,0.057C-1341.101-266.855-1341.644-266.855-1342.187-266.883L-1342.187-266.883    z M-1339.958-266.827c0.714,0,1.429,0.028,2.144,0.028c0.714,0,1.429-0.028,2.143-0.028c-0.714,0-1.429,0.028-2.143,0.028    C-1338.528-266.798-1339.243-266.827-1339.958-266.827L-1339.958-266.827z M-1335.042-266.827    c0.543-0.028,1.086-0.028,1.629-0.057C-1333.956-266.855-1334.499-266.855-1335.042-266.827L-1335.042-266.827z     M-1332.842-266.913c0.715-0.028,1.43-0.057,2.115-0.085C-1331.412-266.969-1332.127-266.941-1332.842-266.913L-1332.842-266.913z     M-1330.384-267.027c0.601-0.028,1.2-0.086,1.801-0.143C-1329.184-267.113-1329.783-267.055-1330.384-267.027L-1330.384-267.027z     M-1327.983-267.198c0.571-0.058,1.144-0.114,1.743-0.172C-1326.84-267.312-1327.412-267.255-1327.983-267.198L-1327.983-267.198z     M-1325.84-267.398c0.686-0.058,1.4-0.143,2.086-0.229C-1324.439-267.541-1325.154-267.456-1325.84-267.398L-1325.84-267.398z     M-1323.239-267.684c0.543-0.057,1.086-0.143,1.629-0.2C-1322.153-267.827-1322.696-267.741-1323.239-267.684L-1323.239-267.684z     M-1321.039-267.969c0.657-0.086,1.314-0.2,1.972-0.286C-1319.725-268.169-1320.382-268.055-1321.039-267.969L-1321.039-267.969z     M-1318.953-268.284c0.687-0.114,1.372-0.229,2.058-0.344C-1317.581-268.512-1318.267-268.398-1318.953-268.284L-1318.953-268.284    z M-1316.353-268.712c0.515-0.114,1.058-0.2,1.601-0.314C-1315.295-268.913-1315.838-268.827-1316.353-268.712L-1316.353-268.712z     M-1314.209-269.113c0.687-0.143,1.344-0.286,2.029-0.429C-1312.865-269.399-1313.522-269.255-1314.209-269.113L-1314.209-269.113    z M-1311.979-269.599c0.6-0.114,1.2-0.257,1.829-0.399C-1310.779-269.856-1311.38-269.713-1311.979-269.599L-1311.979-269.599z     M-1309.579-270.142c0.543-0.143,1.086-0.257,1.629-0.399C-1308.493-270.399-1309.036-270.285-1309.579-270.142L-1309.579-270.142    z M-1307.55-270.656c0.657-0.172,1.314-0.343,2-0.543C-1306.235-270.999-1306.893-270.828-1307.55-270.656L-1307.55-270.656z     M-1305.179-271.285c0.543-0.172,1.087-0.314,1.63-0.486C-1304.092-271.599-1304.636-271.457-1305.179-271.285L-1305.179-271.285z     M-1303.006-271.914c0.6-0.2,1.2-0.371,1.8-0.571C-1301.806-272.285-1302.406-272.114-1303.006-271.914L-1303.006-271.914z     M-1301.063-272.542c0.687-0.2,1.344-0.429,2.001-0.657C-1299.72-272.971-1300.377-272.743-1301.063-272.542L-1301.063-272.542z     M-1298.662-273.342c0.543-0.172,1.086-0.372,1.6-0.543C-1297.576-273.714-1298.119-273.514-1298.662-273.342L-1298.662-273.342z     M-1296.604-274.057c1.314-0.485,2.601-0.972,3.886-1.485C-1294.004-275.029-1295.29-274.542-1296.604-274.057L-1296.604-274.057z     M-1292.318-275.714c0.571-0.229,1.114-0.457,1.657-0.715C-1291.204-276.171-1291.747-275.943-1292.318-275.714L-1292.318-275.714    z M-1290.375-276.543c0.657-0.257,1.286-0.543,1.943-0.857C-1289.089-277.086-1289.718-276.8-1290.375-276.543L-1290.375-276.543z     M-1288.289-277.458c0.572-0.257,1.172-0.543,1.772-0.829C-1287.117-278-1287.717-277.715-1288.289-277.458L-1288.289-277.458z     M-1286.174-278.429c0.6-0.286,1.172-0.572,1.771-0.886C-1285.002-279.001-1285.574-278.715-1286.174-278.429L-1286.174-278.429z     M-1284.316-279.344c0.657-0.314,1.286-0.657,1.915-0.972C-1283.03-280.001-1283.659-279.658-1284.316-279.344L-1284.316-279.344z     M-1282.202-280.43c0.572-0.314,1.144-0.6,1.715-0.915C-1281.059-281.03-1281.63-280.744-1282.202-280.43L-1282.202-280.43z     M-1280.259-281.487c1.258-0.657,2.486-1.372,3.716-2.115C-1277.772-282.859-1279.001-282.145-1280.259-281.487L-1280.259-281.487    z M-1276.314-283.716c0.543-0.343,1.114-0.686,1.686-1.029C-1275.2-284.402-1275.771-284.06-1276.314-283.716L-1276.314-283.716z     M-1274.485-284.831c1.229-0.771,2.429-1.543,3.629-2.343C-1272.057-286.374-1273.257-285.603-1274.485-284.831L-1274.485-284.831    z M-1270.714-287.289c1.801-1.229,3.572-2.486,5.315-3.801C-1267.142-289.775-1268.913-288.518-1270.714-287.289    L-1270.714-287.289z M-1265.313-291.147c17.747-13.46,31.636-31.75,39.723-52.898h16.004c13.917,0,25.349,11.403,25.349,25.349    v31.579c-16.976-13.432-37.923-22.005-60.728-23.577C-1250.967-303.407-1257.797-296.862-1265.313-291.147L-1265.313-291.147z" fill="none" stroke="#000000" stroke-linecap="round" stroke-linejoin="round" stroke-miterlimit="10" stroke-width="20.1764"/>

<path d="    M-1244.965-310.694c57.298,3.972,102.965,52.098,102.965,110.37v158.354h-392.314v-158.354c0-58.5,46.01-106.769,103.651-110.427    c22.034,26.835,55.441,43.953,92.85,43.953C-1300.405-266.798-1266.998-283.888-1244.965-310.694L-1244.965-310.694z" fill="none" stroke="#000000" stroke-linecap="round" stroke-linejoin="round" stroke-miterlimit="10" stroke-width="20.1764"/>

<path d="    M-1534.314-181.434v-18.891c0-13.003,2.286-25.521,6.458-37.151h34.865v56.042H-1534.314z" fill="none" stroke="#000000" stroke-linecap="round" stroke-linejoin="round" stroke-miterlimit="10" stroke-width="20.1764"/>

<rect fill="none" height="89.394" stroke="#000000" stroke-linecap="round" stroke-linejoin="round" stroke-miterlimit="10" stroke-width="20.1764" width="168.123" x="-1421.89" y="-186.978"/>

<line fill="none" stroke="#000000" stroke-linecap="round" stroke-linejoin="round" stroke-miterlimit="10" stroke-width="20.1764" x1="-1421.89" x2="-1253.767" y1="-156.085" y2="-156.085"/>

<line fill="none" stroke="#000000" stroke-linecap="round" stroke-linejoin="round" stroke-miterlimit="10" stroke-width="20.1764" x1="-1298.806" x2="-1298.806" y1="-133.394" y2="-133.623"/>

<line fill="none" stroke="#000000" stroke-linecap="round" stroke-linejoin="round" stroke-miterlimit="10" stroke-width="20.1764" x1="-1421.89" x2="-1337.843" y1="-129.393" y2="-129.393"/>

<line fill="none" stroke="#000000" stroke-linecap="round" stroke-linejoin="round" stroke-miterlimit="10" stroke-width="20.1764" x1="-1462.041" x2="-1462.041" y1="-149.398" y2="-46.258"/>

<line fill="none" stroke="#000000" stroke-linecap="round" stroke-linejoin="round" stroke-miterlimit="10" stroke-width="20.1764" x1="-1212.958" x2="-1212.958" y1="-149.398" y2="-44.943"/>

</g>

<g>

<path d="    M-1340.237,481c123.228,0,223.764-100.539,223.764-223.769c0-123.259-100.536-223.77-223.764-223.77    c-123.255,0-223.763,100.51-223.763,223.77C-1564,380.461-1463.492,481-1340.237,481L-1340.237,481z" fill="none" stroke="#000000" stroke-linecap="round" stroke-linejoin="round" stroke-miterlimit="10" stroke-width="20.1764"/>

<path d="    M-1183.746,97.306c41.495,40.61,67.272,97.252,67.272,159.925c0,0.942-0.029,1.886-0.058,2.857    c-0.285,12.604-2.429,33.694-6.229,49.898c-0.2,0.886-0.429,1.8-0.657,2.686l0,0l-80.618-16.518    c16.946,46.183,10.06,71.646-22.69,74.59c-34.607-3.001-69.187-20.806-103.794-58.386c-16.747,40.267-48.097,33.522-50.269,77.019    l10.545,89.622l-0.029-0.028c-4.058-0.543-8.087-1.2-12.088-1.943l-0.686-0.144c-5.287-1.028-10.488-2.229-15.604-3.601    l-0.657-0.2c-5.144-1.4-10.203-2.972-15.204-4.715l-0.543-0.2c-5.001-1.772-9.945-3.744-14.774-5.858l-0.458-0.2    c-4.858-2.115-9.63-4.43-14.289-6.888l-0.372-0.2c-4.687-2.486-9.288-5.144-13.774-7.944l-0.257-0.172    c-4.487-2.829-8.888-5.802-13.174-8.945l-0.2-0.143c-4.315-3.144-8.516-6.459-12.574-9.917l-0.085-0.057    c-33.865-28.75-59.042-67.417-71.073-111.514h-0.029l71.559-62.358c47.553-12.146,59.442,14.889,89.191-9.717    c16.632-35.552-0.714-92.823-38.923-90.793l-58.384,16.204l-34.865-34.894c3.943-6.001,8.145-11.832,12.631-17.404l0.058-0.086    c1.314-1.629,2.629-3.229,3.972-4.801l0.143-0.171c0.886-1.029,1.772-2.058,2.687-3.086l0.372-0.429    c1.2-1.343,2.4-2.687,3.629-4.001c0.2-0.2,0.372-0.4,0.571-0.6c0.857-0.915,1.743-1.829,2.601-2.744    c0.286-0.286,0.543-0.543,0.8-0.8c1.029-1.029,2.029-2.058,3.058-3.086c0.4-0.372,0.8-0.743,1.172-1.143    c0.829-0.8,1.658-1.572,2.486-2.343c0.457-0.429,0.886-0.857,1.343-1.257c0.771-0.715,1.543-1.429,2.314-2.115    c0.629-0.571,1.286-1.143,1.915-1.686c0.743-0.686,1.515-1.314,2.257-1.972c0.657-0.543,1.286-1.086,1.915-1.629    c0.628-0.515,1.286-1.058,1.915-1.572c0.743-0.629,1.515-1.229,2.286-1.829c0.686-0.543,1.372-1.086,2.058-1.629    c0.829-0.658,1.686-1.315,2.543-1.943c0.486-0.372,1-0.743,1.486-1.115c0.886-0.657,1.772-1.314,2.658-1.943    c0.601-0.429,1.172-0.829,1.772-1.257c0.972-0.686,1.943-1.343,2.915-2.029c0.457-0.286,0.915-0.6,1.343-0.886    c1-0.686,2-1.343,3-1.972c0.514-0.343,1.029-0.657,1.543-1c1.058-0.686,2.144-1.372,3.258-2.029    c0.4-0.257,0.829-0.514,1.229-0.743c1.086-0.657,2.201-1.315,3.287-1.943c0.429-0.257,0.857-0.515,1.286-0.743    c1.2-0.686,2.429-1.372,3.629-2.058c0.371-0.171,0.743-0.372,1.086-0.572c1.2-0.628,2.4-1.286,3.601-1.886    c0.372-0.2,0.714-0.371,1.057-0.543c1.315-0.686,2.629-1.343,3.944-1.972c0.343-0.171,0.686-0.314,1.029-0.486    c1.257-0.6,2.543-1.2,3.83-1.8c0.286-0.114,0.571-0.257,0.886-0.4c1.372-0.628,2.772-1.229,4.201-1.829    c0.314-0.143,0.628-0.286,0.972-0.429c1.314-0.543,2.658-1.086,3.972-1.6c0.286-0.114,0.543-0.229,0.829-0.343    c25.663,17.833,46.811,43.811,55.813,91.623c29.178-3.258,50.468-43.354,82.36-21.348    C-1249.703,138.173-1215.009,118.197-1183.746,97.306L-1183.746,97.306z" fill="none" stroke="#000000" stroke-linecap="round" stroke-linejoin="round" stroke-miterlimit="10" stroke-width="20.1764"/>

</g>

<g>

<path d="    M-805.5,84.109L-805.5,84.109c77.218,0,140.402,63.187,140.402,140.435v108.913c0,13.718-2,27.007-5.715,39.581l9.059,2.144    c31.149,7.373,50.583,38.924,43.181,70.046l0,0c-7.401,31.15-38.923,50.584-70.072,43.21l-47.896-11.374    c-8.573-2.029-16.261-5.916-22.719-11.088c-14.518,5.115-30.063,7.887-46.239,7.887l0,0c-15.917,0-31.207-2.686-45.495-7.602    c-6.401,5.03-13.975,8.803-22.405,10.803l-47.896,11.374c-31.15,7.374-62.671-12.06-70.073-43.21l0,0    c-7.373-31.122,12.06-62.673,43.181-70.046l8.059-1.915c-3.772-12.632-5.801-26.007-5.801-39.81V224.544    C-945.931,147.296-882.746,84.109-805.5,84.109L-805.5,84.109z" fill="none" stroke="#000000" stroke-linecap="round" stroke-linejoin="round" stroke-miterlimit="10" stroke-width="20.1764"/>

<path d="    M-804.415,304.563c34.979,0,63.5-28.521,63.5-63.501c0-34.951-28.521-63.473-63.5-63.473c-34.95,0-63.471,28.521-63.471,63.473    C-867.885,276.042-839.365,304.563-804.415,304.563L-804.415,304.563z" fill="none" stroke="#000000" stroke-linecap="round" stroke-linejoin="round" stroke-miterlimit="10" stroke-width="20.1764"/>

<path d="    M-804.415,267.526c14.575,0,26.463-11.889,26.463-26.464c0-14.546-11.888-26.435-26.463-26.435    c-14.574,0-26.434,11.889-26.434,26.435C-830.849,255.637-818.989,267.526-804.415,267.526L-804.415,267.526z" fill="none" stroke="#000000" stroke-linecap="round" stroke-linejoin="round" stroke-miterlimit="10" stroke-width="20.1764"/>

<path d="    M-876.716,161.271c47.925-30.464,95.821-28.292,143.746,0" fill="none" stroke="#000000" stroke-linecap="round" stroke-linejoin="round" stroke-miterlimit="10" stroke-width="20.1764"/>

<line fill="none" stroke="#000000" stroke-linecap="round" stroke-linejoin="round" stroke-miterlimit="10" stroke-width="20.1764" x1="-904.922" x2="-904.922" y1="70.22" y2="121.604"/>

<path d="    M-903.35,68.791c12.631,0,22.948-10.288,22.948-22.92c0-12.631-10.316-22.92-22.948-22.92c-12.603,0-22.919,10.289-22.919,22.92    C-926.27,58.503-915.953,68.791-903.35,68.791L-903.35,68.791z" fill="none" stroke="#000000" stroke-linecap="round" stroke-linejoin="round" stroke-miterlimit="10" stroke-width="20.1764"/>

<line fill="none" stroke="#000000" stroke-linecap="round" stroke-linejoin="round" stroke-miterlimit="10" stroke-width="20.1764" x1="-705.049" x2="-705.049" y1="70.22" y2="121.604"/>

<path d="    M-703.478,68.791c12.632,0,22.948-10.288,22.948-22.92c0-12.631-10.316-22.92-22.948-22.92c-12.603,0-22.919,10.289-22.919,22.92    C-726.397,58.503-716.081,68.791-703.478,68.791L-703.478,68.791z" fill="none" stroke="#000000" stroke-linecap="round" stroke-linejoin="round" stroke-miterlimit="10" stroke-width="20.1764"/>

<path d="    M-749.374,342.087v1.743c0,31.465-25.748,57.242-57.212,57.242l0,0c-31.493,0-57.241-25.777-57.241-57.242v-1.743H-749.374z" fill="none" stroke="#000000" stroke-linecap="round" stroke-linejoin="round" stroke-miterlimit="10" stroke-width="20.1764"/>

</g>

<g>

<path d="    M-283.002,25h35.809c25.262,0,45.895,20.663,45.895,45.897v215.91l-2.457-3.429h-43.953v52.813h-35.293    c-0.6,0-1.199-0.028-1.771-0.057v-52.756h-43.953l-0.171,0.257V70.897C-328.897,45.663-308.236,25-283.002,25L-283.002,25z" fill="none" stroke="#000000" stroke-linecap="round" stroke-linejoin="round" stroke-miterlimit="10" stroke-width="20.1764"/>

<path d="    M-291.947,97.761h54.269c3.086,0,5.602,2.515,5.602,5.602v24.063c0,3.058-2.516,5.602-5.602,5.602h-54.269    c-3.086,0-5.601-2.543-5.601-5.602v-24.063C-297.548,100.276-295.033,97.761-291.947,97.761L-291.947,97.761z" fill="none" stroke="#000000" stroke-linecap="round" stroke-linejoin="round" stroke-miterlimit="10" stroke-width="20.1764"/>

<polygon fill="none" points="    -389.482,367.884 -328.726,283.378 -284.773,283.378 -284.773,367.884   " stroke="#000000" stroke-linecap="round" stroke-linejoin="round" stroke-miterlimit="10" stroke-width="20.1764"/>

<polygon fill="none" points="    -143,367.884 -203.756,283.378 -247.709,283.378 -247.709,367.884   " stroke="#000000" stroke-linecap="round" stroke-linejoin="round" stroke-miterlimit="10" stroke-width="20.1764"/>

<line fill="none" stroke="#000000" stroke-linecap="round" stroke-linejoin="round" stroke-miterlimit="10" stroke-width="20.1764" x1="-265.084" x2="-265.283" y1="193.584" y2="246.769"/>

<line fill="none" stroke="#000000" stroke-linecap="round" stroke-linejoin="round" stroke-miterlimit="10" stroke-width="20.1764" x1="-336.957" x2="-336.957" y1="391.347" y2="462.994"/>

<line fill="none" stroke="#000000" stroke-linecap="round" stroke-linejoin="round" stroke-miterlimit="10" stroke-width="20.1764" x1="-262.313" x2="-262.313" y1="391.347" y2="449.276"/>

<line fill="none" stroke="#000000" stroke-linecap="round" stroke-linejoin="round" stroke-miterlimit="10" stroke-width="20.1764" x1="-262.313" x2="-262.313" y1="477.912" y2="491.916"/>

<line fill="none" stroke="#000000" stroke-linecap="round" stroke-linejoin="round" stroke-miterlimit="10" stroke-width="20.1764" x1="-187.695" x2="-187.695" y1="391.347" y2="462.994"/>

<line fill="none" stroke="#000000" stroke-linecap="round" stroke-linejoin="round" stroke-miterlimit="10" stroke-width="20.1764" x1="-299.634" x2="-299.634" y1="391.347" y2="399.378"/>

<line fill="none" stroke="#000000" stroke-linecap="round" stroke-linejoin="round" stroke-miterlimit="10" stroke-width="20.1764" x1="-299.634" x2="-299.634" y1="428.671" y2="480.426"/>

<line fill="none" stroke="#000000" stroke-linecap="round" stroke-linejoin="round" stroke-miterlimit="10" stroke-width="20.1764" x1="-328.897" x2="-201.299" y1="159.919" y2="159.919"/>

<line fill="none" stroke="#000000" stroke-linecap="round" stroke-linejoin="round" stroke-miterlimit="10" stroke-width="20.1764" x1="-229.047" x2="-229.047" y1="391.347" y2="399.378"/>

<line fill="none" stroke="#000000" stroke-linecap="round" stroke-linejoin="round" stroke-miterlimit="10" stroke-width="20.1764" x1="-229.047" x2="-229.047" y1="428.671" y2="480.426"/>

</g>

<g>

<path d="    M374.128,22.896L374.128,22.896c8.001-4.229,17.975-1.143,22.204,6.859l44.41,84.049c4.201,7.974,1.114,17.976-6.858,22.206l0,0    c-8.002,4.201-17.976,1.143-22.205-6.859l-44.41-84.049C363.068,37.1,366.154,27.126,374.128,22.896L374.128,22.896z" fill="none" stroke="#000000" stroke-linecap="round" stroke-linejoin="round" stroke-miterlimit="10" stroke-width="20.1478"/>

<polygon fill="none" points="    124.673,193.824 367.269,45.102 411.679,129.151 152.078,245.723   " stroke="#000000" stroke-linecap="round" stroke-linejoin="round" stroke-miterlimit="10" stroke-width="20.1478"/>

<path d="    M93.523,224.718l37.094-19.605l16.604,31.408l-37.123,19.605c-0.027-0.114-0.085-0.2-0.143-0.286L93.523,224.718z" fill="none" stroke="#000000" stroke-linecap="round" stroke-linejoin="round" stroke-miterlimit="10" stroke-width="20.1478"/>

<path d="    M74.49,218.859L74.49,218.859c6.859-3.629,15.403-1,19.033,5.859l16.432,31.122c3.629,6.859,1,15.433-5.858,19.033l0,0    c-6.858,3.63-15.403,0.972-19.032-5.858l-16.433-31.15C65.002,231.034,67.632,222.46,74.49,218.859L74.49,218.859z" fill="none" stroke="#000000" stroke-linecap="round" stroke-linejoin="round" stroke-miterlimit="10" stroke-width="20.1478"/>

<rect fill="none" height="34.551" stroke="#000000" stroke-linecap="round" stroke-linejoin="round" stroke-miterlimit="10" stroke-width="20.1478" width="61.699" x="248.1" y="242.036"/>

<polyline fill="none" points="    223.408,488.811 278.936,276.587 330.775,490.041   " stroke="#000000" stroke-linecap="round" stroke-linejoin="round" stroke-miterlimit="10" stroke-width="20.1478"/>

<line fill="none" stroke="#000000" stroke-linecap="round" stroke-linejoin="round" stroke-miterlimit="10" stroke-width="20.1478" x1="278.649" x2="278.649" y1="494.356" y2="287.047"/>

<line fill="none" stroke="#000000" stroke-linecap="round" stroke-linejoin="round" stroke-miterlimit="10" stroke-width="20.1478" x1="278.649" x2="278.649" y1="237.435" y2="194.91"/>

</g>

<g>

<path d="    M789.079,163.991c71.759,0,129.914,58.157,129.914,129.889c0,40.725-18.747,77.048-48.039,100.854    c14.089-17.347,22.548-39.467,22.548-63.559c0-55.671-45.124-100.825-100.793-100.825c-55.698,0-100.822,45.154-100.822,100.825    c0,31.122,14.117,58.957,36.265,77.448c-41.009-21.834-68.957-65.017-68.957-114.743    C659.194,222.148,717.349,163.991,789.079,163.991L789.079,163.991z" fill="none" stroke="#000000" stroke-linecap="round" stroke-linejoin="round" stroke-miterlimit="10" stroke-width="20.1478"/>

<path d="    M792.709,432c55.526,0,100.793-45.297,100.793-100.825c0-55.527-45.267-100.825-100.793-100.825s-100.822,45.297-100.822,100.825    C691.887,386.703,737.183,432,792.709,432L792.709,432z" fill="none" stroke="#000000" stroke-linecap="round" stroke-linejoin="round" stroke-miterlimit="10" stroke-width="20.1478"/>

<line fill="none" stroke="#000000" stroke-linecap="round" stroke-linejoin="round" stroke-miterlimit="10" stroke-width="20.1478" x1="739.011" x2="890.759" y1="254.642" y2="307.684"/>

<line fill="none" stroke="#000000" stroke-linecap="round" stroke-linejoin="round" stroke-miterlimit="10" stroke-width="20.1478" x1="700.574" x2="890.587" y1="290.137" y2="355.409"/>

<line fill="none" stroke="#000000" stroke-linecap="round" stroke-linejoin="round" stroke-miterlimit="10" stroke-width="20.1478" x1="693.173" x2="860.523" y1="347.293" y2="405.765"/>

<line fill="none" stroke="#000000" stroke-linecap="round" stroke-linejoin="round" stroke-miterlimit="10" stroke-width="20.1478" x1="616.527" x2="557" y1="286.106" y2="286.106"/>

<line fill="none" stroke="#000000" stroke-linecap="round" stroke-linejoin="round" stroke-miterlimit="10" stroke-width="20.1478" x1="789.107" x2="789.107" y1="71.14" y2="127.067"/>

<line fill="none" stroke="#000000" stroke-linecap="round" stroke-linejoin="round" stroke-miterlimit="10" stroke-width="20.1478" x1="1018.701" x2="959.146" y1="286.335" y2="286.335"/>

<line fill="none" stroke="#000000" stroke-linecap="round" stroke-linejoin="round" stroke-miterlimit="10" stroke-width="20.1478" x1="663.022" x2="613.784" y1="182.596" y2="149.13"/>

<line fill="none" stroke="#000000" stroke-linecap="round" stroke-linejoin="round" stroke-miterlimit="10" stroke-width="20.1478" x1="914.479" x2="963.718" y1="182.596" y2="149.13"/>

</g>

</g>

</svg>