<?xml version="1.0" ?>

<!DOCTYPE svg  PUBLIC '-//W3C//DTD SVG 1.1//EN'  'http://www.w3.org/Graphics/SVG/1.1/DTD/svg11.dtd'>


<svg width="800px" height="800px" viewBox="0 0 24 24" enable-background="new 0 0 24 24" version="1.1" xml:space="preserve" xmlns="http://www.w3.org/2000/svg" xmlns:xlink="http://www.w3.org/1999/xlink">

<g id="Battery20"/>

<g id="Battery19"/>

<g id="Battery18"/>

<g id="Battery17">

<g>

<path d="M15,4v2c0,0.55-0.45,1-1,1h-4C9.45,7,9,6.55,9,6V4c0-1.1,0.9-2,2-2h2C14.1,2,15,2.9,15,4z" fill="#C3464B"/>

<path d="M18,9v9c0,2.21-1.79,4-4,4h-4c-2.21,0-4-1.79-4-4V9c0-2.21,1.79-4,4-4h4C16.21,5,18,6.79,18,9z" fill="#E05757"/>

</g>

<g>

<path d="M4.001,19c-0.3335,0-0.6592-0.166-0.8491-0.4697c-0.2925-0.4688-0.1504-1.0859,0.3184-1.3779l16-10    c0.4683-0.293,1.085-0.1504,1.3779,0.3174c0.2925,0.4688,0.1504,1.0859-0.3184,1.3779l-16,10C4.3652,18.9512,4.1821,19,4.001,19z" fill="#C3464B"/>

</g>

</g>

<g id="Battery16"/>

<g id="Battery15"/>

<g id="Battery14"/>

<g id="Battery13"/>

<g id="Battery12"/>

<g id="Battery11"/>

<g id="Battery10"/>

<g id="Battery09"/>

<g id="Battery08"/>

<g id="Battery07"/>

<g id="Battery06"/>

<g id="Battery05"/>

<g id="Battery04"/>

<g id="Battery03"/>

<g id="Battery02"/>

<g id="Battery01"/>

</svg>