<?xml version="1.0" ?>

<!DOCTYPE svg  PUBLIC '-//W3C//DTD SVG 1.1//EN'  'http://www.w3.org/Graphics/SVG/1.1/DTD/svg11.dtd'>


<svg width="800px" height="800px" viewBox="0 0 24 24" enable-background="new 0 0 24 24" version="1.1" xml:space="preserve" xmlns="http://www.w3.org/2000/svg" xmlns:xlink="http://www.w3.org/1999/xlink">

<g id="Battery20"/>

<g id="Battery19"/>

<g id="Battery18"/>

<g id="Battery17"/>

<g id="Battery16"/>

<g id="Battery15">

<g>

<path d="M15,4v2c0,0.55-0.45,1-1,1h-4C9.45,7,9,6.55,9,6V4c0-1.1,0.9-2,2-2h2C14.1,2,15,2.9,15,4z" fill="#1777BA"/>

<path d="M18,9v9c0,2.21-1.79,4-4,4h-4c-2.21,0-4-1.79-4-4V9c0-2.21,1.79-4,4-4h4C16.21,5,18,6.79,18,9z" fill="#2FA3D5"/>

</g>

<g>

<path d="M14,19h-4c-0.5527,0-1-0.4473-1-1s0.4473-1,1-1h4c0.5527,0,1,0.4473,1,1S14.5527,19,14,19z" fill="#1777BA"/>

</g>

<g>

<path d="M14,16h-4c-0.5527,0-1-0.4473-1-1s0.4473-1,1-1h4c0.5527,0,1,0.4473,1,1S14.5527,16,14,16z" fill="#1777BA"/>

</g>

<g>

<path d="M14,13h-4c-0.5527,0-1-0.4473-1-1s0.4473-1,1-1h4c0.5527,0,1,0.4473,1,1S14.5527,13,14,13z" fill="#1777BA"/>

</g>

<g>

<path d="M14,10h-4c-0.5527,0-1-0.4473-1-1s0.4473-1,1-1h4c0.5527,0,1,0.4473,1,1S14.5527,10,14,10z" fill="#1777BA"/>

</g>

</g>

<g id="Battery14"/>

<g id="Battery13"/>

<g id="Battery12"/>

<g id="Battery11"/>

<g id="Battery10"/>

<g id="Battery09"/>

<g id="Battery08"/>

<g id="Battery07"/>

<g id="Battery06"/>

<g id="Battery05"/>

<g id="Battery04"/>

<g id="Battery03"/>

<g id="Battery02"/>

<g id="Battery01"/>

</svg>