<?xml version="1.0" encoding="utf-8"?>

<svg fill="#000000" width="800px" height="800px" viewBox="0 0 32 32" version="1.1" xmlns="http://www.w3.org/2000/svg">
<title>bag</title>
<path d="M17.891 9.805h-3.79c0 0-6.17 4.831-6.17 12.108s6.486 7.347 6.486 7.347 1.688 0.125 3.125 0c0 0.062 6.525-0.865 6.525-7.353 0.001-6.486-6.176-12.102-6.176-12.102zM14.101 9.33h3.797v-1.424h-3.797v1.424zM17.84 7.432l1.928-4.747c0 0-1.217 1.009-1.928 1.009-0.713 0-1.84-0.979-1.84-0.979s-1.216 0.979-1.928 0.979-1.869-0.949-1.869-0.949l1.958 4.688h3.679z"></path>
</svg>