<?xml version="1.0" encoding="utf-8"?>

<svg fill="#000000" width="800px" height="800px" viewBox="0 0 32 32" version="1.1" xmlns="http://www.w3.org/2000/svg">
<title>megaphone1</title>
<path d="M28.5 27c-0.828 0-1.5-0.672-1.5-1.5v-18c0-0.828 0.672-1.5 1.5-1.5s1.5 0.672 1.5 1.5v18c0 0.828-0.672 1.5-1.5 1.5zM21 25c0 1.104-0.896 2-2 2h-9c-1.104 0-2-0.896-2-2v-3.959l-3.991-0.888v-7.229l22.024-4.853v16.984l-5.033-1.119v1.064zM20 23.713l-11-2.449v3.736c0 0.552 0.448 1 1 1h9c0.553 0 1-0.448 1-1v-1.287zM2 21c-0.552 0-1-0.448-1-1v-7c0-0.553 0.448-1 1-1s1 0.447 1 1v7c0 0.552-0.448 1-1 1z"></path>
</svg>