<?xml version="1.0" encoding="utf-8"?>

<svg fill="#000000" width="800px" height="800px" viewBox="0 0 32 32" version="1.1" xmlns="http://www.w3.org/2000/svg">
<title>sad</title>
<path d="M16 4c-6.628 0-12 5.372-12 12 0 6.627 5.372 12 12 12 6.627 0 12-5.373 12-12 0-6.628-5.373-12-12-12zM19.938 9.688c0.828 0 1.5 0.896 1.5 2s-0.672 2-1.5 2-1.5-0.896-1.5-2 0.671-2 1.5-2zM11.938 9.688c0.828 0 1.5 0.896 1.5 2s-0.672 2-1.5 2-1.5-0.896-1.5-2 0.671-2 1.5-2zM15.93 20.259c-4.625 0-6.058 2.419-6.058 2.419s1.333-4.18 6.065-4.18c4.76 0 5.938 4.323 5.938 4.323s-1.32-2.562-5.945-2.562z"></path>
</svg>