<?xml version="1.0" ?>


<svg fill="#000000" width="800px" height="800px" viewBox="0 0 32 32" xmlns="http://www.w3.org/2000/svg">

<title/>

<g data-name="Layer 40" id="Layer_40">

<path d="M29.57,15.18l-13-9a1,1,0,0,0-1.14,1.64L27.24,16,15.43,24.18a1,1,0,0,0-.25,1.39,1,1,0,0,0,1.39.25l13-9a1,1,0,0,0,0-1.64Z"/>

<path d="M24,16a1,1,0,0,0-.43-.82l-13-9A1,1,0,0,0,9.43,7.82L21.24,16,9.43,24.18a1,1,0,0,0-.25,1.39,1,1,0,0,0,1.39.25l13-9A1,1,0,0,0,24,16Z"/>

<path d="M18,16a1,1,0,0,0-.43-.82l-13-9A1,1,0,0,0,3.43,7.82L15.24,16,3.43,24.18a1,1,0,0,0-.25,1.39,1,1,0,0,0,1.39.25l13-9A1,1,0,0,0,18,16Z"/>

</g>

</svg>