<?xml version="1.0" ?>
<svg fill="#000000" width="800px" height="800px" viewBox="0 0 512 512" data-name="Layer 1" id="Layer_1" xmlns="http://www.w3.org/2000/svg"><path d="M412.2,282.08l65.8,65.8-65.8,65.8-21.35-21.34L422,361.15c-85.15-9.22-136.51-52-186.37-93.55C181.12,222.14,129.6,179.21,34,179.21V149c106.53,0,164.72,48.49,221,95.38,46.61,38.85,91,75.84,162.62,85.78l-26.76-26.75ZM285.13,242.9c39.83-31.14,79-53.8,132.53-61.14l-26.81,26.81,21.35,21.35,65.8-65.8-65.8-65.8-21.35,21.34,31.21,31.22c-68.71,7.48-115.36,36.84-155.53,68.24ZM34,332.79V363c89.3,0,145.69-35,193.32-72.73l-18.75-23.66C158.46,306.32,109.6,332.79,34,332.79Z"/></svg>