<?xml version="1.0" ?>


<svg width="800px" height="800px" viewBox="0 0 80 80" data-name="Layer 1" id="Layer_1" xmlns="http://www.w3.org/2000/svg">

<defs>

<style>.cls-1{fill:none;stroke:#000000;stroke-linecap:round;stroke-linejoin:round;stroke-width:4px;}</style>

</defs>

<title/>

<path class="cls-1" d="M43.974,9.262C43.979,9.174,44,9.09,44,9a4,4,0,0,0-8,0c0,.09.021.174.026.262a3.981,3.981,0,0,0,7.947,0Z"/>

<path class="cls-1" d="M70.738,43.974c.088.006.172.026.262.026a4,4,0,0,0,0-8c-.09,0-.174.021-.262.026a3.981,3.981,0,0,0,0,7.947Z"/>

<path class="cls-1" d="M43.974,70.738c.006.088.026.172.026.262a4,4,0,0,1-8,0c0-.09.021-.174.026-.262a3.981,3.981,0,0,1,7.947,0Z"/>

<path class="cls-1" d="M9.262,43.974a3.981,3.981,0,0,0,0-7.947C9.174,36.021,9.09,36,9,36a4,4,0,0,0,0,8C9.09,44,9.174,43.979,9.262,43.974Z"/>

<path class="cls-1" d="M70.738,36.026A31,31,0,0,0,43.974,9.262"/>

<path class="cls-1" d="M70.738,43.974A31,31,0,0,1,43.974,70.738"/>

<path class="cls-1" d="M9.262,36.026A31,31,0,0,1,36.026,9.262"/>

<path class="cls-1" d="M36.026,70.738A31,31,0,0,1,9.262,43.974"/>

<circle class="cls-1" cx="40" cy="40" r="20"/>

<g id="xrp_logo">

<path d="M40,39.007a8.021,8.021,0,0,1-5.859-2.554l-5.99-6.444A.6.6,0,0,1,28.59,29H31.8a2,2,0,0,1,1.465.638l3.715,4a4.152,4.152,0,0,0,2.529,1.343A3.979,3.979,0,0,0,42.93,33.73l3.8-4.092A2,2,0,0,1,48.2,29H51.41a.6.6,0,0,1,.439,1.008l-5.99,6.445A8.022,8.022,0,0,1,40,39.007Z"/>

<path d="M40,40.993a8.021,8.021,0,0,0-5.859,2.554l-5.99,6.444A.6.6,0,0,0,28.59,51H31.8a2,2,0,0,0,1.465-.638l3.715-4a4.152,4.152,0,0,1,2.529-1.343A3.979,3.979,0,0,1,42.93,46.27l3.8,4.092A2,2,0,0,0,48.2,51H51.41a.6.6,0,0,0,.439-1.008l-5.99-6.445A8.022,8.022,0,0,0,40,40.993Z"/>

</g>

</svg>