<?xml version="1.0" ?>
<svg width="800px" height="800px" viewBox="0 0 80 80" data-name="Layer 1" id="Layer_1" xmlns="http://www.w3.org/2000/svg"><defs><style>.cls-1{fill:none;stroke:#000000;stroke-linecap:round;stroke-linejoin:round;stroke-width:4px;}</style></defs><title/><path class="cls-1" d="M43.974,9.262C43.979,9.174,44,9.09,44,9a4,4,0,0,0-8,0c0,.09.021.174.026.262a3.981,3.981,0,0,0,7.947,0Z"/><path class="cls-1" d="M70.738,43.974c.088.006.172.026.262.026a4,4,0,0,0,0-8c-.09,0-.174.021-.262.026a3.981,3.981,0,0,0,0,7.947Z"/><path class="cls-1" d="M43.974,70.738c.006.088.026.172.026.262a4,4,0,0,1-8,0c0-.09.021-.174.026-.262a3.981,3.981,0,0,1,7.947,0Z"/><path class="cls-1" d="M9.262,43.974a3.981,3.981,0,0,0,0-7.947C9.174,36.021,9.09,36,9,36a4,4,0,0,0,0,8C9.09,44,9.174,43.979,9.262,43.974Z"/><path class="cls-1" d="M70.738,36.026A31,31,0,0,0,43.974,9.262"/><path class="cls-1" d="M70.738,43.974A31,31,0,0,1,43.974,70.738"/><path class="cls-1" d="M9.262,36.026A31,31,0,0,1,36.026,9.262"/><path class="cls-1" d="M36.026,70.738A31,31,0,0,1,9.262,43.974"/><circle class="cls-1" cx="40" cy="40" r="20"/><path d="M54,37.325l-4.462-4.6a1.4,1.4,0,0,0-.667-.384l-18.538-4.6A1.4,1.4,0,0,0,28.7,29.63l10.35,25.3a1.4,1.4,0,0,0,1.1.856,1.448,1.448,0,0,0,.194.013,1.4,1.4,0,0,0,1.1-.535l12.65-16.1A1.4,1.4,0,0,0,54,37.325Zm-12.713.052L35.72,32.349a.2.2,0,0,1,.182-.343l9.208,2.285a.2.2,0,0,1,.078.349l-3.376,2.75A.4.4,0,0,1,41.292,37.377Zm-1.257,2.846-.577,7.295a.2.2,0,0,1-.384.06L33.936,35.023a.2.2,0,0,1,.319-.224L39.9,39.9A.4.4,0,0,1,40.034,40.224Zm3.1.473,6.246-.609a.2.2,0,0,1,.177.323l-7.077,9.007a.2.2,0,0,1-.357-.139l.651-8.215A.4.4,0,0,1,43.138,40.7Zm6.812-3.366-3.685.359a.156.156,0,0,1-.113-.276l2.142-1.744a.312.312,0,0,1,.42.025l1.332,1.373A.156.156,0,0,1,49.95,37.332Z"/></svg>