<?xml version="1.0" ?>


<svg width="800px" height="800px" viewBox="0 0 80 80" data-name="Layer 1" id="Layer_1" xmlns="http://www.w3.org/2000/svg">

<defs>

<style>.cls-1{fill:none;stroke:#000000;stroke-linecap:round;stroke-linejoin:round;stroke-width:4px;}</style>

</defs>

<title/>

<g id="bat_change">

<path class="cls-1" d="M11,32V25A14,14,0,0,1,25,11h7"/>

<polyline class="cls-1" points="26 5 32 11 26 17"/>

<path class="cls-1" d="M69,48v7A14,14,0,0,1,55,69H48"/>

<polyline class="cls-1" points="54 75 48 69 54 63"/>

<path class="cls-1" d="M31.384,25.113a20,20,0,1,1,23.5,23.5"/>

<circle class="cls-1" cx="29" cy="51" r="20"/>

<path d="M40.749,60h-23.5a1,1,0,0,1-.862-1.507L28.138,38.52a1,1,0,0,1,1.724,0L41.611,58.493A1,1,0,0,1,40.749,60ZM23.2,56H34.8a.4.4,0,0,0,.345-.6l-5.8-9.866a.4.4,0,0,0-.69,0l-5.8,9.866A.4.4,0,0,0,23.2,56Z"/>

</g>

</svg>