<?xml version="1.0" ?>
<svg width="800px" height="800px" viewBox="0 0 80 80" data-name="Layer 1" id="Layer_1" xmlns="http://www.w3.org/2000/svg"><defs><style>.cls-1{fill:none;stroke:#000000;stroke-linecap:round;stroke-miterlimit:10;stroke-width:4px;}</style></defs><title/><path class="cls-1" d="M67,34V23a7,7,0,0,0-7-7H23A14,14,0,0,0,9,30V50A14,14,0,0,0,23,64H60a7,7,0,0,0,7-7V52"/><path class="cls-1" d="M61,34h6a4,4,0,0,1,4,4v4a4,4,0,0,1-4,4H61a6,6,0,0,1-6-6v0a6,6,0,0,1,6-6Z"/><circle cx="61" cy="40" r="2"/><path d="M45,36.325l-4.462-4.6a1.4,1.4,0,0,0-.667-.384l-18.538-4.6A1.4,1.4,0,0,0,19.7,28.63l10.35,25.3a1.4,1.4,0,0,0,1.1.856,1.448,1.448,0,0,0,.194.013,1.4,1.4,0,0,0,1.1-.535l12.65-16.1A1.4,1.4,0,0,0,45,36.325Zm-12.713.052L26.72,31.349a.2.2,0,0,1,.182-.343l9.208,2.285a.2.2,0,0,1,.078.349l-3.376,2.75A.4.4,0,0,1,32.292,36.377Zm-1.257,2.846-.577,7.295a.2.2,0,0,1-.384.06L24.936,34.023a.2.2,0,0,1,.319-.224L30.9,38.9A.4.4,0,0,1,31.034,39.224Zm3.1.473,6.246-.609a.2.2,0,0,1,.177.323l-7.077,9.007a.2.2,0,0,1-.357-.139l.651-8.215A.4.4,0,0,1,34.138,39.7Zm6.812-3.366-3.685.359a.156.156,0,0,1-.113-.276l2.142-1.744a.312.312,0,0,1,.42.025l1.332,1.373A.156.156,0,0,1,40.95,36.332Z"/></svg>