<?xml version="1.0" ?>


<svg width="800px" height="800px" viewBox="0 0 80 80" data-name="Layer 1" id="Layer_1" xmlns="http://www.w3.org/2000/svg">

<defs>

<style>.cls-1{fill:none;stroke:#000000;stroke-linecap:round;stroke-linejoin:round;stroke-width:4px;}</style>

</defs>

<title/>

<g id="xrp">

<ellipse class="cls-1" cx="40" cy="34.988" rx="35" ry="23"/>

<path class="cls-1" d="M62.737,24.576C66.642,27.476,69,31.1,69,34.988a10.382,10.382,0,0,1-1.329,4.991,17.512,17.512,0,0,1-5.384,5.747"/>

<path class="cls-1" d="M5,34.988V47.835a13,13,0,0,0,4.778,10.08c7.637,6.225,18.353,10.1,30.222,10.1s22.585-3.873,30.222-10.1A13,13,0,0,0,75,47.835V34.988"/>

<line class="cls-1" x1="40" x2="40" y1="67.719" y2="58.531"/>

<line class="cls-1" x1="51.667" x2="51.667" y1="66.344" y2="57.679"/>

<line class="cls-1" x1="63.333" x2="63.333" y1="61.875" y2="52.988"/>

<line class="cls-1" x1="16.667" x2="16.667" y1="61.75" y2="57.679"/>

<line class="cls-1" x1="28.333" x2="28.333" y1="65.813" y2="57.679"/>

<g id="xrp_logo">

<path d="M40,34.093a14.321,14.321,0,0,1-8.106-2.322l-8.287-5.858c-.494-.349-.117-.917.608-.917H28.66a3.571,3.571,0,0,1,2.027.58l5.14,3.633a7.045,7.045,0,0,0,3.5,1.221A7.319,7.319,0,0,0,44.053,29.3l5.261-3.72A3.571,3.571,0,0,1,51.34,25h4.445c.725,0,1.1.568.608.917l-8.287,5.859A14.324,14.324,0,0,1,40,34.093Z"/>

<path d="M40,35.9a14.321,14.321,0,0,0-8.106,2.322l-8.287,5.858c-.494.349-.117.917.608.917H28.66a3.571,3.571,0,0,0,2.027-.58l5.14-3.633a7.045,7.045,0,0,1,3.5-1.221A7.319,7.319,0,0,1,44.053,40.7l5.261,3.72A3.571,3.571,0,0,0,51.34,45h4.445c.725,0,1.1-.568.608-.917L48.106,38.22A14.324,14.324,0,0,0,40,35.9Z"/>

</g>

</g>

</svg>