<?xml version="1.0" ?>

<!DOCTYPE svg  PUBLIC '-//W3C//DTD SVG 1.1//EN'  'http://www.w3.org/Graphics/SVG/1.1/DTD/svg11.dtd'>


<svg fill="#000000" width="800px" height="800px" viewBox="0 0 270.92 270.92" style="shape-rendering:geometricPrecision; text-rendering:geometricPrecision; image-rendering:optimizeQuality; fill-rule:evenodd; clip-rule:evenodd" version="1.1" xml:space="preserve" xmlns="http://www.w3.org/2000/svg" xmlns:xlink="http://www.w3.org/1999/xlink">

<defs>

<style type="text/css">
   <![CDATA[
    .fil0 {fill:black;fill-rule:nonzero}
   ]]>
  </style>

</defs>

<g id="Layer_x0020_1">

<path class="fil0" d="M135.48 160.83c-4.8,0 -8.73,-3.91 -8.73,-8.7 0,-4.4 -3.53,-7.95 -7.93,-7.95 -4.39,0 -7.93,3.55 -7.93,7.95 0,10.75 6.99,19.83 16.65,23.15l0 4.49c0,4.38 3.55,7.95 7.94,7.95 4.38,0 7.93,-3.57 7.93,-7.95l0 -4.49c9.66,-3.32 16.65,-12.4 16.65,-23.15 0,-13.58 -11.03,-24.61 -24.58,-24.61 -4.8,0 -8.73,-3.91 -8.73,-8.71 0,-4.81 3.93,-8.72 8.73,-8.72 4.79,0 8.72,3.91 8.72,8.72 0,4.38 3.55,7.94 7.94,7.94 4.38,0 7.92,-3.56 7.92,-7.94 0,-10.77 -6.99,-19.83 -16.65,-23.16l0 -4.51c0,-4.38 -3.55,-7.94 -7.93,-7.94 -4.39,0 -7.94,3.56 -7.94,7.94l0 4.51c-9.66,3.33 -16.65,12.39 -16.65,23.16 0,13.56 11.02,24.58 24.59,24.58 4.79,0 8.72,3.91 8.72,8.74 0,4.79 -3.93,8.7 -8.72,8.7zm-69.24 46l-14.21 0c-10.9,-0.24 -19.72,-9.16 -19.72,-20.13l0 -13.76c17.12,3.25 30.66,16.79 33.93,33.89zm172.4 -33.89l0 13.76c0,10.97 -8.81,19.89 -19.7,20.13l-14.26 -0.01c3.27,-17.1 16.84,-30.65 33.96,-33.88zm-33.96 -108.91l13.79 0c11.1,0 20.14,9.04 20.16,20.14l-0.01 13.75c-17.11,-3.26 -30.67,-16.79 -33.94,-33.89zm17.56 -15.86l-170.55 0c-4.38,0 -7.94,3.56 -7.94,7.93 0,4.37 3.56,7.93 7.94,7.93l136.97 0c3.57,25.85 24.1,46.38 49.98,49.91l0 42.99c-25.9,3.54 -46.44,24.08 -49.98,49.95l-106.4 0c-3.54,-25.87 -24.06,-46.39 -49.95,-49.95l0 -73.49c0,-4.39 -3.56,-7.94 -7.94,-7.94 -4.39,0 -7.94,3.55 -7.94,7.94l0 82.36c0,0.13 -0.02,0.25 -0.02,0.4l0 24.24c0,17.79 14.47,32.27 32.28,32.27l3.34 0c0.15,0 0.3,0.04 0.45,0.04l165.99 0c0.15,0 0.31,-0.04 0.47,-0.04l3.3 0c17.81,0 32.27,-14.48 32.27,-32.27l0 -110.02c0,-17.77 -14.46,-32.25 -32.27,-32.25z"/>

</g>

</svg>