<?xml version="1.0" ?>

<!DOCTYPE svg  PUBLIC '-//W3C//DTD SVG 1.1//EN'  'http://www.w3.org/Graphics/SVG/1.1/DTD/svg11.dtd'>


<svg fill="#000000" width="800px" height="800px" viewBox="0 0 270.92 270.92" style="shape-rendering:geometricPrecision; text-rendering:geometricPrecision; image-rendering:optimizeQuality; fill-rule:evenodd; clip-rule:evenodd" version="1.1" xml:space="preserve" xmlns="http://www.w3.org/2000/svg" xmlns:xlink="http://www.w3.org/1999/xlink">

<defs>

<style type="text/css">
   <![CDATA[
    .fil0 {fill:black;fill-rule:nonzero}
   ]]>
  </style>

</defs>

<g id="Layer_x0020_1">

<path class="fil0" d="M234.16 32.29l-59.02 0c-1.81,0 -3.55,0.61 -4.96,1.74l-37.5 30 -108.32 0c-4.39,0 -7.93,3.56 -7.93,7.94 0,4.38 3.54,7.93 7.93,7.93l111.1 0c1.81,0 3.55,-0.61 4.96,-1.73l37.51 -30.01 56.23 0c2.46,0 4.47,2.01 4.47,4.48l0 43.78 -182.53 0c-4.38,0 -7.93,3.56 -7.93,7.94 0,4.38 3.55,7.94 7.93,7.94l182.53 0 0 88.55c0,12.07 -9.83,21.9 -21.9,21.9l-162.98 0c-11.83,0 -21.45,-9.63 -21.45,-21.46l0 -96.93c0,-4.38 -3.55,-7.94 -7.94,-7.94 -4.39,0 -7.93,3.56 -7.93,7.94l0 96.93c0,20.59 16.74,37.33 37.32,37.33l162.98 0c20.83,0 37.77,-16.94 37.77,-37.77l0 -148.21c0,-11.22 -9.13,-20.35 -20.34,-20.35z"/>

</g>

</svg>