<?xml version="1.0" encoding="utf-8"?>
<svg width="800px" height="800px" viewBox="0 0 24 24" fill="none" xmlns="http://www.w3.org/2000/svg">
<path d="M17.8371 2.79199H6.65558C5.62635 2.79199 4.79199 3.62635 4.79199 4.65558V18.7924C4.79199 19.2866 4.98833 19.7607 5.33783 20.1101L5.57258 20.3449C6.17071 20.943 7.14046 20.943 7.73859 20.3449C8.20475 19.8787 8.9169 19.7632 9.50655 20.058L11.4129 21.0112C11.9376 21.2735 12.5551 21.2735 13.0798 21.0112L15.1401 19.981C15.6648 19.7187 16.2823 19.7187 16.807 19.981L17.0037 20.0794C18.2428 20.699 19.7007 19.7979 19.7007 18.4126V4.65558C19.7007 3.62635 18.8664 2.79199 17.8371 2.79199Z" stroke="#1C1C1C" stroke-width="1.7" stroke-linecap="round"/>
<path d="M10.1831 11.0449L10.6943 11.5561C10.9767 11.8384 11.4344 11.8384 11.7168 11.5561L14.2729 9" stroke="#DF1463" stroke-width="1.7" stroke-linecap="round"/>
<path d="M8.51929 15.8371H15.9737" stroke="#1C1C1C" stroke-width="1.7" stroke-linecap="round"/>
</svg>