<?xml version="1.0" encoding="utf-8"?>
<svg width="800px" height="800px" viewBox="0 0 24 24" fill="none" xmlns="http://www.w3.org/2000/svg">
<path fill-rule="evenodd" clip-rule="evenodd" d="M4.5898 11.4111L12.1068 3.89404C12.3655 3.63537 12.7849 3.63537 13.0436 3.89404L17.2197 8.07017C17.4784 8.32884 17.4784 8.74824 17.2197 9.00691L9.70267 16.5239C9.444 16.7826 9.0246 16.7826 8.76593 16.5239L4.5898 12.3478C4.33113 12.0891 4.33113 11.6697 4.5898 11.4111ZM3.38772 13.5499C2.46516 12.6273 2.46516 11.1316 3.38772 10.209L10.9048 2.69196C11.8273 1.76939 13.3231 1.76939 14.2457 2.69196L18.4218 6.86808C19.3443 7.79065 19.3443 9.28642 18.4218 10.209L16.9299 11.7009L20.2757 15.0466C21.5275 16.2985 21.5275 18.328 20.2757 19.5799C19.0239 20.8317 16.9943 20.8317 15.7425 19.5799L12.3967 16.2341L10.9048 17.726C9.98219 18.6486 8.48641 18.6486 7.56385 17.726L3.38772 13.5499ZM13.5988 15.032L16.9445 18.3778C17.5325 18.9657 18.4857 18.9657 19.0736 18.3778C19.6615 17.7899 19.6615 16.8366 19.0736 16.2487L15.7278 12.903L13.5988 15.032Z" fill="#1C1C1C"/>
<path d="M2.89844 21.1017H7.62319" stroke="#DF1463" stroke-width="1.7" stroke-linecap="round"/>
</svg>