<?xml version="1.0" encoding="utf-8"?>
<svg width="800px" height="800px" viewBox="0 0 24 24" fill="none" xmlns="http://www.w3.org/2000/svg">
<path d="M12.0711 6.46826C12.0711 5.43517 12.0711 3.36897 10.0049 2.85242" stroke="#DF1463" stroke-width="1.70441" stroke-linecap="round"/>
<path d="M7.17563 7.13013C8.46592 7.13013 9.5119 8.17611 9.5119 9.4664C9.5119 10.7567 8.46592 11.8027 7.17563 11.8027C5.88534 11.8027 4.83936 10.7567 4.83936 9.4664C4.83936 8.17611 5.88534 7.13013 7.17563 7.13013Z" stroke="#1C1C1C" stroke-width="1.70441" stroke-linecap="round"/>
<path d="M9.51205 11.8027C10.8023 11.8027 11.8483 12.8487 11.8483 14.1389C11.8483 15.4292 10.8023 16.4752 9.51205 16.4752C8.22177 16.4752 7.17578 15.4292 7.17578 14.1389C7.17578 12.8487 8.22177 11.8027 9.51205 11.8027Z" stroke="#1C1C1C" stroke-width="1.70441" stroke-linecap="round"/>
<path d="M11.8482 7.13013C13.1385 7.13013 14.1845 8.17611 14.1845 9.4664C14.1845 10.7567 13.1385 11.8027 11.8482 11.8027C10.5579 11.8027 9.51196 10.7567 9.51196 9.4664C9.51196 8.17611 10.5579 7.13013 11.8482 7.13013Z" stroke="#1C1C1C" stroke-width="1.70441" stroke-linecap="round"/>
<path d="M11.8482 16.4752C13.1385 16.4752 14.1845 17.5212 14.1845 18.8115C14.1845 20.1018 13.1385 21.1478 11.8482 21.1478C10.5579 21.1478 9.51196 20.1018 9.51196 18.8115C9.51196 17.5212 10.5579 16.4752 11.8482 16.4752Z" stroke="#1C1C1C" stroke-width="1.70441" stroke-linecap="round"/>
<path d="M14.1847 11.8027C15.475 11.8027 16.5209 12.8487 16.5209 14.1389C16.5209 15.4292 15.475 16.4752 14.1847 16.4752C12.8944 16.4752 11.8484 15.4292 11.8484 14.1389C11.8484 12.8487 12.8944 11.8027 14.1847 11.8027Z" stroke="#1C1C1C" stroke-width="1.70441" stroke-linecap="round"/>
<path d="M16.5208 7.13013C17.8111 7.13013 18.8571 8.17611 18.8571 9.4664C18.8571 10.7567 17.8111 11.8027 16.5208 11.8027C15.2306 11.8027 14.1846 10.7567 14.1846 9.4664C14.1846 8.17611 15.2306 7.13013 16.5208 7.13013Z" stroke="#1C1C1C" stroke-width="1.70441" stroke-linecap="round"/>
</svg>