<?xml version="1.0" encoding="utf-8"?>
<svg width="800px" height="800px" viewBox="0 0 24 24" fill="none" xmlns="http://www.w3.org/2000/svg">
<path d="M17.4933 2.84436H6.50649C4.48389 2.84436 2.84424 4.48401 2.84424 6.50662V17.4934C2.84424 19.516 4.48389 21.1556 6.50649 21.1556H17.4933C19.5159 21.1556 21.1555 19.516 21.1555 17.4934V6.50662C21.1555 4.48401 19.5159 2.84436 17.4933 2.84436Z" stroke="#1C1C1C" stroke-width="1.7" stroke-linecap="round"/>
<path fill-rule="evenodd" clip-rule="evenodd" d="M14.9044 11.3688C15.5487 10.7245 16.5934 10.7245 17.2378 11.3688C17.8828 12.0138 17.8829 13.0572 17.2391 13.7009L16.8416 14.0985L16.8352 14.1049L16.8288 14.1113L16.8224 14.1177L16.8159 14.1241L16.8095 14.1306L16.8031 14.137L16.7966 14.1434L16.7902 14.1499L16.7838 14.1563L16.7773 14.1628L16.7708 14.1692L16.7644 14.1757L16.7579 14.1822L16.7514 14.1886L16.745 14.1951L16.7385 14.2016L16.732 14.2081L16.7255 14.2146L16.719 14.2211L16.7125 14.2276L16.6864 14.2537L16.6799 14.2602L16.6733 14.2668L16.6668 14.2733L16.6602 14.2798L16.6537 14.2864L16.6471 14.2929L16.6406 14.2995L16.634 14.3061L16.6274 14.3127L16.6209 14.3192L16.6143 14.3258L16.6077 14.3324L16.6011 14.339L16.5945 14.3456L16.5879 14.3522L16.5813 14.3588L16.5747 14.3654L16.5681 14.372L16.5614 14.3786L16.5548 14.3853L16.5482 14.3919L16.5416 14.3985L16.5349 14.4052L16.5283 14.4118L16.5216 14.4185L16.515 14.4251L16.5083 14.4318L16.5016 14.4384L16.495 14.4451L16.4883 14.4518L16.4816 14.4584L16.475 14.4651L16.4683 14.4718L16.4616 14.4785L16.4549 14.4852L16.4482 14.4919L16.4415 14.4986L16.4348 14.5053L16.4281 14.512L16.4214 14.5187L16.4146 14.5254L16.4079 14.5322L16.4012 14.5389L16.3944 14.5456L16.3877 14.5524L16.381 14.5591L16.3742 14.5659L16.3675 14.5726L16.3607 14.5794L16.354 14.5861L16.3472 14.5929L16.3404 14.5996L16.3337 14.6064L16.3269 14.6132L16.3201 14.62L16.3133 14.6267L16.3065 14.6335L16.2998 14.6403L16.293 14.6471L16.2862 14.6539L16.2794 14.6607L16.2726 14.6675L16.2657 14.6743L16.2589 14.6812L16.2521 14.688L16.2453 14.6948L16.2385 14.7016L16.2316 14.7084L16.2248 14.7153L16.218 14.7221L16.2111 14.729L16.2043 14.7358L16.1974 14.7427L16.1906 14.7495L16.1837 14.7564L16.1769 14.7632L16.17 14.7701L16.1631 14.7769L16.1563 14.7838L16.1494 14.7907L16.1425 14.7976L16.1356 14.8044L16.1287 14.8113L16.1219 14.8182L16.115 14.8251L16.1081 14.832L16.1012 14.8389L16.0943 14.8458L16.0874 14.8527L16.0805 14.8596L16.0735 14.8665L16.0711 14.869L13.7376 12.5355L14.9044 11.3688ZM12.5356 13.7376L11.3688 14.9044C10.7245 15.5487 10.7245 16.5934 11.3688 17.2378C12.0133 17.8823 13.0577 17.8824 13.7019 17.2381L13.7089 17.2312L13.7159 17.2242L13.7229 17.2172L13.7299 17.2102L13.7369 17.2032L13.7439 17.1962L13.7509 17.1892L13.7579 17.1822L13.7649 17.1752L13.7719 17.1682L13.7789 17.1612L13.7859 17.1542L13.7929 17.1472L13.7999 17.1402L13.8069 17.1331L13.814 17.1261L13.821 17.1191L13.828 17.1121L13.8351 17.105L13.8421 17.098L13.8491 17.091L13.8562 17.0839L13.8632 17.0769L13.8703 17.0698L13.8773 17.0628L13.8843 17.0557L13.8914 17.0487L13.8985 17.0416L13.9055 17.0346L13.9126 17.0275L13.9196 17.0205L13.9267 17.0134L13.9338 17.0063L13.9408 16.9993L13.9479 16.9922L13.955 16.9851L13.962 16.978L13.9691 16.971L13.9762 16.9639L13.9833 16.9568L14.04 16.9001L14.0471 16.893L14.0542 16.8859L14.0613 16.8788L14.0684 16.8717L14.0755 16.8645L14.0826 16.8574L14.0898 16.8503L14.0969 16.8432L14.104 16.8361L14.1111 16.829L14.1182 16.8218L14.1254 16.8147L14.1325 16.8076L14.1396 16.8005L14.1467 16.7933L14.1539 16.7862L14.161 16.7791L14.1681 16.772L14.1753 16.7648L14.1824 16.7577L14.1895 16.7505L14.1967 16.7434L14.2038 16.7363L14.211 16.7291L14.2181 16.722L14.2252 16.7148L14.2324 16.7077L14.2395 16.7005L14.2467 16.6934L14.2538 16.6862L14.261 16.6791L14.2682 16.6719L14.2753 16.6648L14.2825 16.6576L14.2896 16.6505L14.2968 16.6433L14.304 16.6361L14.3111 16.629L14.3183 16.6218L14.3254 16.6146L14.3326 16.6075L14.3398 16.6003L14.347 16.5931L14.3541 16.586L14.3613 16.5788L14.3685 16.5716L14.3756 16.5644L14.3828 16.5573L14.39 16.5501L14.3972 16.5429L14.4044 16.5357L14.4115 16.5285L14.4187 16.5214L14.4259 16.5142L14.4331 16.507L14.4403 16.4998L14.4474 16.4926L14.4546 16.4854L14.4618 16.4783L14.469 16.4711L14.4762 16.4639L14.4834 16.4567L14.4906 16.4495L14.4978 16.4423L14.505 16.4351L14.5122 16.4279L14.5194 16.4207L14.5265 16.4135L14.5337 16.4063L14.5409 16.3991L14.5481 16.3919L14.5553 16.3847L14.5625 16.3775L14.5697 16.3703L14.5769 16.3631L14.5841 16.3559L14.5913 16.3487L14.5985 16.3415L14.6057 16.3343L14.6129 16.3271L14.6201 16.3199L14.6274 16.3127L14.6346 16.3055L14.6418 16.2983L14.649 16.2911L14.6562 16.2839L14.6634 16.2767L14.6706 16.2695L14.6778 16.2623L14.685 16.2551L14.6922 16.2479L14.6994 16.2407L14.7066 16.2335L14.7138 16.2262L14.721 16.219L14.7283 16.2118L14.7355 16.2046L14.7427 16.1974L14.7499 16.1902L14.7571 16.183L14.7643 16.1758L14.7715 16.1686L14.7787 16.1614L14.7859 16.1541L14.7931 16.1469L14.8004 16.1397L14.8076 16.1325L14.8148 16.1253L14.822 16.1181L14.8292 16.1109L14.8364 16.1037L14.8436 16.0965L14.8508 16.0893L14.858 16.082L14.8652 16.0748L14.869 16.0711L12.5356 13.7376ZM16.669 16.6752L16.5062 16.8381L16.499 16.8452L16.4919 16.8524L16.4847 16.8596L16.4775 16.8667L16.4703 16.8739L16.4632 16.8811L16.456 16.8883L16.4488 16.8954L16.4416 16.9026L16.4345 16.9098L16.4273 16.917L16.4201 16.9241L16.4129 16.9313L16.4057 16.9385L16.3986 16.9457L16.3914 16.9529L16.3842 16.9601L16.377 16.9672L16.3698 16.9744L16.3626 16.9816L16.3554 16.9888L16.3482 16.996L16.341 17.0032L16.3339 17.0104L16.3267 17.0176L16.3195 17.0248L16.3123 17.032L16.3051 17.0392L16.2979 17.0464L16.2907 17.0536L16.2835 17.0608L16.2763 17.0679L16.2691 17.0751L16.2619 17.0823L16.2547 17.0895L16.2475 17.0967L16.2403 17.104L16.2331 17.1112L16.2259 17.1184L16.2187 17.1256L16.2115 17.1328L16.2043 17.14L16.1971 17.1472L16.1899 17.1544L16.1827 17.1616L16.1755 17.1688L16.1683 17.176L16.161 17.1832L16.1538 17.1904L16.1466 17.1976L16.1394 17.2048L16.1322 17.212L16.125 17.2192L16.1178 17.2264L16.1106 17.2337L16.1034 17.2409L16.0962 17.2481L16.089 17.2553L16.0817 17.2625L16.0745 17.2697L16.0673 17.2769L16.0601 17.2841L16.0529 17.2913L16.0457 17.2985L16.0385 17.3058L16.0313 17.313L16.0241 17.3202L16.0169 17.3274L16.0096 17.3346L16.0024 17.3418L15.9952 17.349L15.988 17.3562L15.9808 17.3634L15.9736 17.3707L15.9664 17.3779L15.9592 17.3851L15.952 17.3923L15.9448 17.3995L15.9375 17.4067L15.9303 17.4139L15.9231 17.4211L15.9159 17.4283L15.9087 17.4355L15.9015 17.4427L15.8943 17.45L15.8871 17.4572L15.8799 17.4644L15.8727 17.4716L15.8655 17.4788L15.8583 17.486L15.851 17.4932L15.8438 17.5004L15.8366 17.5076L15.8294 17.5148L15.8222 17.522L15.815 17.5292L15.8078 17.5364L15.8006 17.5436L15.7934 17.5508L15.7862 17.558L15.779 17.5652L15.7718 17.5724L15.7646 17.5796L15.7574 17.5868L15.7502 17.594L15.743 17.6012L15.7358 17.6084L15.7286 17.6156L15.7214 17.6228L15.7142 17.63L15.707 17.6372L15.6999 17.6444L15.6927 17.6516L15.6855 17.6588L15.6783 17.666L15.6711 17.6731L15.6639 17.6803L15.6567 17.6875L15.6495 17.6947L15.6423 17.7019L15.6352 17.7091L15.628 17.7163L15.6208 17.7234L15.6136 17.7306L15.6064 17.7378L15.5993 17.745L15.5921 17.7522L15.5849 17.7593L15.5777 17.7665L15.5705 17.7737L15.5634 17.7809L15.5562 17.788L15.549 17.7952L15.5419 17.8024L15.5347 17.8095L15.5275 17.8167L15.5204 17.8239L15.5132 17.831L15.506 17.8382L15.4989 17.8454L15.4917 17.8525L15.4845 17.8597L15.4774 17.8669L15.4702 17.874L15.4631 17.8812L15.4559 17.8883L15.4488 17.8955L15.4416 17.9026L15.4345 17.9098L15.4273 17.9169L15.4202 17.9241L15.413 17.9312L15.4059 17.9383L15.3988 17.9455L15.3916 17.9526L15.3845 17.9598L15.3773 17.9669L15.3702 17.974L15.3631 17.9812L15.3559 17.9883L15.3488 17.9954L15.3417 18.0026L15.3346 18.0097L15.3274 18.0168L15.3203 18.0239L15.3132 18.0311L15.3061 18.0382L15.299 18.0453L15.2918 18.0524L15.2847 18.0595L15.2776 18.0666L15.2705 18.0737L15.2634 18.0808L15.2563 18.0879L15.2492 18.095L15.2421 18.1021L15.235 18.1092L15.2279 18.1163L15.2208 18.1234L15.2137 18.1305L15.1854 18.1589L15.1783 18.166L15.1712 18.173L15.1641 18.1801L15.157 18.1872L15.15 18.1943L15.1429 18.2013L15.1358 18.2084L15.1288 18.2155L15.1217 18.2225L15.1146 18.2296L15.1076 18.2367L15.1005 18.2437L15.0935 18.2508L15.0864 18.2578L15.0794 18.2649L15.0723 18.2719L15.0653 18.279L15.0582 18.286L15.0512 18.293L15.0442 18.3001L15.0371 18.3071L15.0301 18.3141L15.0231 18.3212L15.0161 18.3282L15.009 18.3352L15.002 18.3422L14.995 18.3493L14.988 18.3563L14.981 18.3633L14.974 18.3703L14.9669 18.3773L14.9599 18.3843L14.9529 18.3913L14.9459 18.3983L14.9389 18.4053L14.932 18.4123L14.925 18.4193L14.918 18.4263L14.911 18.4332L14.904 18.4402C13.5956 19.7486 11.4748 19.748 10.1667 18.4399C8.85848 17.1316 8.85848 15.0105 10.1667 13.7023L13.7023 10.1667C15.0105 8.85848 17.1316 8.85848 18.4399 10.1667C19.7476 11.4744 19.7501 13.5942 18.4412 14.903L18.4352 14.909L18.4292 14.915L18.4232 14.9211L18.4171 14.9271L18.4111 14.9331L18.4051 14.9392L18.399 14.9452L18.3929 14.9513L18.3869 14.9574L18.3808 14.9634L18.3747 14.9695L18.3686 14.9756L18.3626 14.9817L18.3565 14.9878L18.3503 14.9939L18.3442 15L18.3381 15.0061L18.332 15.0122L18.3259 15.0184L18.3197 15.0245L18.3136 15.0307L18.3074 15.0368L18.3013 15.043L18.2951 15.0491L18.289 15.0553L18.2828 15.0615L18.2766 15.0676L18.2704 15.0738L18.2642 15.08L18.258 15.0862L18.2518 15.0924L18.2456 15.0986L18.2394 15.1049L18.2332 15.1111L18.2269 15.1173L18.2207 15.1236L18.2144 15.1298L18.2082 15.136L18.2019 15.1423L18.1957 15.1486L18.1894 15.1548L18.1831 15.1611L18.1769 15.1674L18.1706 15.1737L18.1643 15.1799L18.158 15.1862L18.1517 15.1925L18.1454 15.1989L18.1391 15.2052L18.1328 15.2115L18.1264 15.2178L18.1201 15.2241L18.1138 15.2305L18.1074 15.2368L18.1011 15.2432L18.0947 15.2495L18.0884 15.2559L18.082 15.2623L18.0756 15.2686L18.0692 15.275L18.0629 15.2814L18.0565 15.2878L18.0501 15.2942L18.0437 15.3006L18.0373 15.307L18.0309 15.3134L18.0244 15.3198L18.018 15.3262L18.0116 15.3326L18.0052 15.3391L17.9987 15.3455L17.9923 15.352L17.9858 15.3584L17.9794 15.3649L17.9729 15.3713L17.9665 15.3778L17.96 15.3843L17.9535 15.3907L17.947 15.3972L17.9406 15.4037L17.9341 15.4102L17.9276 15.4167L17.9211 15.4232L17.9146 15.4297L17.8885 15.4558L17.8819 15.4623L17.8754 15.4688L17.8689 15.4754L17.8623 15.4819L17.8558 15.4885L17.8492 15.495L17.8426 15.5016L17.8361 15.5082L17.8295 15.5147L17.8229 15.5213L17.8164 15.5279L17.8098 15.5345L17.8032 15.5411L17.7966 15.5477L17.79 15.5543L17.7834 15.5609L17.7768 15.5675L17.7701 15.5741L17.7635 15.5807L17.7569 15.5873L17.7503 15.594L17.7436 15.6006L17.737 15.6072L17.7304 15.6139L17.7237 15.6205L17.7171 15.6272L17.7104 15.6338L17.7037 15.6405L17.6971 15.6472L17.6904 15.6539L17.6837 15.6605L17.677 15.6672L17.6704 15.6739L17.6637 15.6806L17.657 15.6873L17.6503 15.694L17.6436 15.7007L17.6369 15.7074L17.6302 15.7141L17.6234 15.7208L17.6167 15.7275L17.61 15.7343L17.6033 15.741L17.5965 15.7477L17.5898 15.7544L17.5831 15.7612L17.5763 15.7679L17.5696 15.7747L17.5628 15.7814L17.556 15.7882L17.5493 15.795L17.5425 15.8017L17.5357 15.8085L17.529 15.8153L17.5222 15.822L17.5154 15.8288L17.5086 15.8356L17.5018 15.8424L17.495 15.8492L17.4882 15.856L17.4814 15.8628L17.4746 15.8696L17.4678 15.8764L17.461 15.8832L17.4542 15.8901L17.4474 15.8969L17.4405 15.9037L17.4337 15.9105L17.4269 15.9174L17.42 15.9242L17.4132 15.931L17.4064 15.9379L17.3995 15.9447L17.3927 15.9516L17.3858 15.9584L17.3789 15.9653L17.3721 15.9722L17.3652 15.979L17.3583 15.9859L17.3515 15.9928L17.3446 15.9997L17.3377 16.0065L17.3308 16.0134L17.3239 16.0203L17.317 16.0272L17.3102 16.0341L17.3033 16.041L17.2964 16.0479L17.2894 16.0548L17.2825 16.0617L17.2756 16.0686L17.2687 16.0755L17.2618 16.0824L17.2549 16.0894L17.2479 16.0963L17.241 16.1032L17.2341 16.1102L17.2272 16.1171L17.2202 16.124L17.2133 16.131L17.2063 16.1379L17.1994 16.1449L17.1924 16.1518L17.1855 16.1588L17.1785 16.1657L17.1716 16.1727L17.1646 16.1797L17.1576 16.1866L17.1507 16.1936L17.1437 16.2006L17.1367 16.2075L17.1297 16.2145L17.1227 16.2215L17.1158 16.2285L17.1088 16.2355L17.1018 16.2425L17.0948 16.2494L17.0878 16.2564L17.0808 16.2634L17.0738 16.2704L17.0668 16.2775L17.0598 16.2845L17.0528 16.2915L17.0458 16.2985L17.0387 16.3055L17.0317 16.3125L17.0247 16.3195L17.0177 16.3266L17.0107 16.3336L17.0036 16.3406L16.9966 16.3476L16.9896 16.3547L16.9825 16.3617L16.9755 16.3688L16.9684 16.3758L16.9614 16.3828L16.7348 16.6095L16.6752 16.669C16.6742 16.6701 16.6732 16.6711 16.6721 16.6721C16.6711 16.6732 16.6701 16.6742 16.669 16.6752Z" fill="#1C1C1C"/>
<circle cx="7.5" cy="7.5" r="1.65" stroke="#DF1463" stroke-width="1.7"/>
</svg>