<?xml version="1.0" encoding="utf-8"?>
<svg width="800px" height="800px" viewBox="0 0 24 24" fill="none" xmlns="http://www.w3.org/2000/svg">
<path fill-rule="evenodd" clip-rule="evenodd" d="M18.9512 12.85L17.6556 14.1456C17.3237 14.4775 17.3237 15.0157 17.6556 15.3477C17.9876 15.6796 18.5258 15.6796 18.8577 15.3477L21.2807 12.9247C21.7914 12.414 21.7914 11.5859 21.2807 11.0752L18.8577 8.65222C18.5258 8.32027 17.9876 8.32027 17.6556 8.65222C17.3237 8.98416 17.3237 9.52235 17.6556 9.8543L18.9513 11.15H13.6789C13.2094 11.15 12.8289 11.5305 12.8289 12C12.8289 12.4694 13.2094 12.85 13.6789 12.85H18.9512Z" fill="#DF1463"/>
<path d="M18.5234 5.59105C17.8232 4.87678 17.0069 4.27676 16.105 3.82153C14.8666 3.19645 13.4669 2.84436 11.985 2.84436C6.92846 2.84436 2.82935 6.94347 2.82935 12C2.82935 17.0565 6.92846 21.1556 11.985 21.1556C13.4669 21.1556 14.8666 20.8035 16.105 20.1784C16.8777 19.7884 17.5876 19.2921 18.2154 18.7087" stroke="#1C1C1C" stroke-width="1.7" stroke-linecap="round"/>
</svg>