<?xml version="1.0" encoding="utf-8"?>
<svg width="800px" height="800px" viewBox="0 0 24 24" fill="none" xmlns="http://www.w3.org/2000/svg">
<path d="M19.3733 4.48999H4.62677C3.60873 4.48999 2.78345 5.31527 2.78345 6.33331V15.5499C2.78345 16.5679 3.60873 17.3932 4.62676 17.3932H7.39174H7.89722C8.31578 17.3932 8.72188 17.5357 9.04873 17.7971L10.8485 19.237C11.5217 19.7756 12.4783 19.7756 13.1516 19.237L14.9513 17.7971C15.2782 17.5357 15.6843 17.3932 16.1029 17.3932H16.6083H19.3733C20.3913 17.3932 21.2166 16.5679 21.2166 15.5499V6.33331C21.2166 5.31527 20.3913 4.48999 19.3733 4.48999Z" stroke="#1C1C1C" stroke-width="1.56682" stroke-linecap="round"/>
<circle cx="9.08953" cy="10.7961" r="1.45525" fill="#DF1463"/>
<circle cx="14.9106" cy="10.7961" r="1.45525" fill="#DF1463"/>
</svg>