<?xml version="1.0" encoding="utf-8"?>
<svg width="800px" height="800px" viewBox="0 0 24 24" fill="none" xmlns="http://www.w3.org/2000/svg">
<path d="M8.68367 20.0242L19.5602 9.14768C20.4537 8.25419 20.4537 6.80555 19.5602 5.91206C18.6667 5.01857 17.2181 5.01857 16.3246 5.91206L5.44804 16.7886C4.55455 17.6821 4.55455 19.1307 5.44805 20.0242C6.34154 20.9177 7.79018 20.9177 8.68367 20.0242Z" stroke="#1C1C1C" stroke-width="1.7" stroke-linecap="round"/>
<path d="M16.6483 5.5885L14.7669 3.70711C14.3764 3.31658 13.7432 3.31658 13.3527 3.70711L10.8842 6.17564C10.4937 6.56616 10.4937 7.19933 10.8842 7.58985L12.7656 9.47124" stroke="#1C1C1C" stroke-width="1.7" stroke-linecap="round"/>
<circle cx="3.5" cy="5.5" r="1.5" fill="#DF1463"/>
<circle cx="5.5" cy="9.5" r="1.5" fill="#DF1463"/>
<circle cx="7.5" cy="3.5" r="1.5" fill="#DF1463"/>
</svg>