<?xml version="1.0" encoding="utf-8"?>
<svg width="800px" height="800px" viewBox="0 0 24 24" fill="none" xmlns="http://www.w3.org/2000/svg">
<path d="M7.76147 6.50974V4.67964C7.76147 3.66891 8.58084 2.84955 9.59157 2.84955H15.0819C16.0926 2.84955 16.912 3.66891 16.912 4.67964V6.50974" stroke="#DF1463" stroke-width="1.69904" stroke-linecap="round"/>
<path d="M7.76147 17.4903V19.3204C7.76147 20.3311 8.58084 21.1505 9.59157 21.1505H15.0819C16.0926 21.1505 16.912 20.3311 16.912 19.3204V17.4903" stroke="#DF1463" stroke-width="1.69904" stroke-linecap="round"/>
<path d="M5.9314 15.6602V8.3398C5.9314 7.32907 6.75076 6.5097 7.76149 6.5097H16.912C17.9227 6.5097 18.7421 7.32906 18.7421 8.3398V15.6602C18.7421 16.6709 17.9227 17.4903 16.912 17.4903H7.76149C6.75076 17.4903 5.9314 16.6709 5.9314 15.6602Z" stroke="#1C1C1C" stroke-width="1.69904" stroke-linecap="round"/>
</svg>