<?xml version="1.0" encoding="utf-8"?>
<svg width="800px" height="800px" viewBox="0 0 150 150" fill="none" xmlns="http://www.w3.org/2000/svg">
<path d="M137.5 75C137.5 112.5 93.75 112.5 37.5 112.5C37.5 112.5 37.4812 99.9688 50 100C92.4062 100.112 96.5813 88.8125 96.875 85.3813C96.7813 84.8313 96.7 84.2625 96.625 83.6937L62.5 75.5V87.5H43.75L50 81.25V72.5L34.375 68.75H18.75L12.5 62.5L35.225 57.9562L9.375 50V43.75H43.75C52.0438 43.75 59.3375 45.5875 63.8812 50H112.5C126.306 50 137.5 61.1937 137.5 75Z" fill="#2E7D32"/>
<path opacity="0.3" d="M112.5 62.5V71.875C104.175 71.875 96.6313 78.7125 96.6313 83.6938L87.9625 81.6125C90.1063 70.9125 100.444 62.5 112.5 62.5Z" fill="#000000"/>
<path opacity="0.4" d="M50 72.5L34.375 68.75H18.75L12.5 62.5H37.5L50 65.0813V72.5ZM62.5 67.6625V75.5L87.9563 81.6125C88.525 78.7937 89.6875 76.15 91.2688 73.7625C91.2813 73.725 91.325 73.625 91.325 73.625L62.5 67.6625ZM137.5 75C137.5 75.4875 137.413 75.9 137.394 76.375C137.406 76.325 137.425 76.2625 137.444 76.2125C137.456 75.8063 137.5 75.4188 137.5 75ZM137.081 80.4625C137.25 79.1562 137.35 77.7875 137.394 76.375C134.963 85.3375 122.588 106.25 68.75 106.25C61.325 106.25 39.05 106.25 39.05 106.25C37.5 109.375 37.5 112.5 37.5 112.5C89.8688 112.5 131.356 112.463 136.838 82.2C136.944 81.6375 137 81.0437 137.081 80.4625Z" fill="white"/>
</svg>