<?xml version="1.0" ?>


<svg width="800px" height="800px" viewBox="0 0 32 32" xmlns="http://www.w3.org/2000/svg">

<defs>

<style>.cls-1{fill:none;stroke:#4d4d4d;stroke-linecap:round;stroke-linejoin:round;stroke-width:2px;}</style>

</defs>

<title/>

<g data-name="Layer 2" id="Layer_2">

<path class="cls-1" d="M16.82,5.52a6,6,0,0,0-6-4.52A6.17,6.17,0,0,0,5,7.25V25a6,6,0,0,0,6,6H21a6,6,0,0,0,6-6V9a2,2,0,0,0-2-2H18.74A2,2,0,0,1,16.82,5.52Z"/>

<circle class="cls-1" cx="11" cy="7" r="3"/>

<circle class="cls-1" cx="11" cy="16" r="3"/>

<circle class="cls-1" cx="21" cy="16" r="3"/>

<circle class="cls-1" cx="21" cy="25" r="3"/>

<circle class="cls-1" cx="11" cy="25" r="3"/>

<line class="cls-1" x1="24" x2="18" y1="10" y2="10"/>

</g>

</svg>