<?xml version="1.0" ?>

<!DOCTYPE svg  PUBLIC '-//W3C//DTD SVG 1.1//EN'  'http://www.w3.org/Graphics/SVG/1.1/DTD/svg11.dtd'>


<svg width="800px" height="800px" viewBox="0 0 32 32" enable-background="new 0 0 32 32" id="_x3C_Layer_x3E_" version="1.1" xml:space="preserve" xmlns="http://www.w3.org/2000/svg" xmlns:xlink="http://www.w3.org/1999/xlink">

<g id="emoji_x2C__mobile_x2C__phone_x2C__sadness">

<g id="XMLID_1728_">

<path d="M20.5,12.979c0.27,0,0.5,0.229,0.5,0.5s-0.23,0.5-0.5,0.5s-0.5-0.229-0.5-0.5    S20.23,12.979,20.5,12.979z" fill="#263238" id="XMLID_1872_"/>

<path d="M11.5,12.979c0.27,0,0.5,0.229,0.5,0.5s-0.23,0.5-0.5,0.5s-0.5-0.229-0.5-0.5    S11.23,12.979,11.5,12.979z" fill="#263238" id="XMLID_1871_"/>

</g>

<g id="XMLID_17_">

<g id="XMLID_4062_">

<line fill="none" id="XMLID_4067_" stroke="#455A64" stroke-linecap="round" stroke-linejoin="round" stroke-miterlimit="10" x1="14.5" x2="17.5" y1="3.5" y2="3.5"/>

<path d="     M24.5,27.5c0,1.65-1.35,3-3,3h-11c-1.65,0-3-1.35-3-3v-23c0-1.65,1.35-3,3-3h11c1.65,0,3,1.35,3,3V27.5z" fill="none" id="XMLID_4066_" stroke="#455A64" stroke-linecap="round" stroke-linejoin="round" stroke-miterlimit="10"/>

<path d="     M17,15.5c0-0.553-0.447-1-1-1s-1,0.447-1,1" fill="none" id="XMLID_4065_" stroke="#455A64" stroke-linecap="round" stroke-linejoin="round" stroke-miterlimit="10"/>

<path d="     M20.5,12.979c0.27,0,0.5,0.229,0.5,0.5s-0.23,0.5-0.5,0.5s-0.5-0.229-0.5-0.5S20.23,12.979,20.5,12.979z" fill="none" id="XMLID_4064_" stroke="#455A64" stroke-linecap="round" stroke-linejoin="round" stroke-miterlimit="10"/>

<path d="     M11.5,12.979c0.27,0,0.5,0.229,0.5,0.5s-0.23,0.5-0.5,0.5s-0.5-0.229-0.5-0.5S11.23,12.979,11.5,12.979z" fill="none" id="XMLID_4063_" stroke="#455A64" stroke-linecap="round" stroke-linejoin="round" stroke-miterlimit="10"/>

</g>

<g id="XMLID_4056_">

<line fill="none" id="XMLID_4061_" stroke="#263238" stroke-linecap="round" stroke-linejoin="round" stroke-miterlimit="10" x1="14.5" x2="17.5" y1="3.5" y2="3.5"/>

<path d="     M24.5,27.5c0,1.65-1.35,3-3,3h-11c-1.65,0-3-1.35-3-3v-23c0-1.65,1.35-3,3-3h11c1.65,0,3,1.35,3,3V27.5z" fill="none" id="XMLID_4060_" stroke="#263238" stroke-linecap="round" stroke-linejoin="round" stroke-miterlimit="10"/>

<path d="     M17,15.5c0-0.553-0.447-1-1-1s-1,0.447-1,1" fill="none" id="XMLID_4059_" stroke="#263238" stroke-linecap="round" stroke-linejoin="round" stroke-miterlimit="10"/>

<path d="     M20.5,12.979c0.27,0,0.5,0.229,0.5,0.5s-0.23,0.5-0.5,0.5s-0.5-0.229-0.5-0.5S20.23,12.979,20.5,12.979z" fill="none" id="XMLID_4058_" stroke="#263238" stroke-linecap="round" stroke-linejoin="round" stroke-miterlimit="10"/>

<path d="     M11.5,12.979c0.27,0,0.5,0.229,0.5,0.5s-0.23,0.5-0.5,0.5s-0.5-0.229-0.5-0.5S11.23,12.979,11.5,12.979z" fill="none" id="XMLID_4057_" stroke="#263238" stroke-linecap="round" stroke-linejoin="round" stroke-miterlimit="10"/>

</g>

</g>

</g>

</svg>