<?xml version="1.0" ?>

<!DOCTYPE svg  PUBLIC '-//W3C//DTD SVG 1.1//EN'  'http://www.w3.org/Graphics/SVG/1.1/DTD/svg11.dtd'>


<svg width="800px" height="800px" viewBox="0 0 32 32" enable-background="new 0 0 32 32" id="_x3C_Layer_x3E_" version="1.1" xml:space="preserve" xmlns="http://www.w3.org/2000/svg" xmlns:xlink="http://www.w3.org/1999/xlink">

<g id="hand_x2C__rating_x2C__smile_x2C__emoji_x2C__choice">

<g id="XMLID_4437_">

<g id="XMLID_4438_">

<circle cx="24" cy="8" fill="none" id="XMLID_4448_" r="6.5" stroke="#455A64" stroke-miterlimit="10"/>

<path d="     M10.541,13.984C9.761,14.316,8.902,14.5,8,14.5c-3.59,0-6.5-2.91-6.5-6.5S4.41,1.5,8,1.5c3.422,0,6.227,2.645,6.481,6.002" fill="none" id="XMLID_4447_" stroke="#455A64" stroke-linecap="round" stroke-linejoin="round" stroke-miterlimit="10"/>

<path d="     M20.845,10.484C21.409,9.311,22.61,8.5,24,8.5c1.42,0,2.642,0.845,3.19,2.06" fill="none" id="XMLID_4446_" stroke="#455A64" stroke-linecap="round" stroke-linejoin="round" stroke-miterlimit="10"/>

<line fill="none" id="XMLID_4445_" stroke="#455A64" stroke-linecap="round" stroke-linejoin="round" stroke-miterlimit="10" x1="22.5" x2="22.5" y1="6" y2="5.5"/>

<line fill="none" id="XMLID_4444_" stroke="#455A64" stroke-linecap="round" stroke-linejoin="round" stroke-miterlimit="10" x1="25.5" x2="25.5" y1="5.5" y2="6"/>

<path d="     M11.5,7.5C11.5,9.434,9.933,11,8,11c-1.934,0-3.5-1.566-3.5-3.5" fill="none" id="XMLID_4443_" stroke="#455A64" stroke-linecap="round" stroke-linejoin="round" stroke-miterlimit="10"/>

<g id="XMLID_4441_">

<path d="      M11.891,30.534l-1.4-1.244c-0.7-0.63-1.24-1.41-1.58-2.29L6.9,21.45c-0.17-0.47,0.05-0.99,0.5-1.2      c0.239-0.11,0.479-0.16,0.729-0.16c0.63,0,1.24,0.351,1.55,0.95l1.84,3.7c0.62-0.46,0.98-1.19,0.98-1.95V11      c0-0.83,0.67-1.5,1.5-1.5s1.5,0.67,1.5,1.5v8c0-0.83,0.67-1.5,1.5-1.5s1.5,0.67,1.5,1.5v0.5c0-0.83,0.67-1.5,1.5-1.5      s1.5,0.67,1.5,1.5v1c0-0.83,0.67-1.5,1.5-1.5s1.5,0.67,1.5,1.5v8.09c0,0.675-0.202,1.333-0.573,1.891" fill="none" id="XMLID_4442_" stroke="#455A64" stroke-linecap="round" stroke-linejoin="round" stroke-miterlimit="10"/>

</g>

<line fill="none" id="XMLID_4440_" stroke="#455A64" stroke-linecap="round" stroke-linejoin="round" stroke-miterlimit="10" x1="6.5" x2="6.5" y1="6" y2="5.5"/>

<line fill="none" id="XMLID_4439_" stroke="#455A64" stroke-linecap="round" stroke-linejoin="round" stroke-miterlimit="10" x1="9.5" x2="9.5" y1="5.5" y2="6"/>

</g>

</g>

<g id="XMLID_4425_">

<g id="XMLID_4426_">

<circle cx="24" cy="8" fill="none" id="XMLID_4436_" r="6.5" stroke="#263238" stroke-linecap="round" stroke-linejoin="round" stroke-miterlimit="10"/>

<path d="     M10.541,13.984C9.761,14.316,8.902,14.5,8,14.5c-3.59,0-6.5-2.91-6.5-6.5S4.41,1.5,8,1.5c3.422,0,6.227,2.645,6.481,6.002" fill="none" id="XMLID_4435_" stroke="#263238" stroke-linecap="round" stroke-linejoin="round" stroke-miterlimit="10"/>

<path d="     M20.845,10.484C21.409,9.311,22.61,8.5,24,8.5c1.42,0,2.642,0.845,3.19,2.06" fill="none" id="XMLID_4434_" stroke="#263238" stroke-linecap="round" stroke-linejoin="round" stroke-miterlimit="10"/>

<line fill="none" id="XMLID_4433_" stroke="#263238" stroke-linecap="round" stroke-linejoin="round" stroke-miterlimit="10" x1="22.5" x2="22.5" y1="6" y2="5.5"/>

<line fill="none" id="XMLID_4432_" stroke="#263238" stroke-linecap="round" stroke-linejoin="round" stroke-miterlimit="10" x1="25.5" x2="25.5" y1="5.5" y2="6"/>

<path d="     M11.5,7.5C11.5,9.434,9.933,11,8,11c-1.934,0-3.5-1.566-3.5-3.5" fill="none" id="XMLID_4431_" stroke="#263238" stroke-linecap="round" stroke-linejoin="round" stroke-miterlimit="10"/>

<g id="XMLID_4429_">

<path d="      M11.891,30.534l-1.4-1.244c-0.7-0.63-1.24-1.41-1.58-2.29L6.9,21.45c-0.17-0.47,0.05-0.99,0.5-1.2      c0.239-0.11,0.479-0.16,0.729-0.16c0.63,0,1.24,0.351,1.55,0.95l1.84,3.7c0.62-0.46,0.98-1.19,0.98-1.95V11      c0-0.83,0.67-1.5,1.5-1.5s1.5,0.67,1.5,1.5v8c0-0.83,0.67-1.5,1.5-1.5s1.5,0.67,1.5,1.5v0.5c0-0.83,0.67-1.5,1.5-1.5      s1.5,0.67,1.5,1.5v1c0-0.83,0.67-1.5,1.5-1.5s1.5,0.67,1.5,1.5v8.09c0,0.675-0.202,1.333-0.573,1.891" fill="none" id="XMLID_4430_" stroke="#263238" stroke-linecap="round" stroke-linejoin="round" stroke-miterlimit="10"/>

</g>

<line fill="none" id="XMLID_4428_" stroke="#263238" stroke-linecap="round" stroke-linejoin="round" stroke-miterlimit="10" x1="6.5" x2="6.5" y1="6" y2="5.5"/>

<line fill="none" id="XMLID_4427_" stroke="#263238" stroke-linecap="round" stroke-linejoin="round" stroke-miterlimit="10" x1="9.5" x2="9.5" y1="5.5" y2="6"/>

</g>

</g>

</g>

</svg>