<?xml version="1.0" ?>

<!DOCTYPE svg  PUBLIC '-//W3C//DTD SVG 1.1//EN'  'http://www.w3.org/Graphics/SVG/1.1/DTD/svg11.dtd'>


<svg width="800px" height="800px" viewBox="0 0 32 32" enable-background="new 0 0 32 32" id="_x3C_Layer_x3E_" version="1.1" xml:space="preserve" xmlns="http://www.w3.org/2000/svg" xmlns:xlink="http://www.w3.org/1999/xlink">

<g id="message_x2C__letter_x2C__mail_x2C__tick_x2C__e-mail_x2C__check">

<g id="XMLID_2986_">

<g id="XMLID_3882_">

<line fill="none" id="XMLID_4293_" stroke="#455A64" stroke-linecap="round" stroke-linejoin="round" stroke-miterlimit="10" x1="26.5" x2="26.5" y1="15.8" y2="1.5"/>

<polyline fill="none" id="XMLID_4292_" points="     26.5,1.5 5.5,1.5 5.5,15.8    " stroke="#455A64" stroke-linecap="round" stroke-linejoin="round" stroke-miterlimit="10"/>

<polyline fill="none" id="XMLID_4234_" points="     21,20.111 29.5,13.5 29.5,30.5 2.5,30.5 2.5,13.5 11.054,20.153    " stroke="#455A64" stroke-linecap="round" stroke-linejoin="round" stroke-miterlimit="10"/>

<polyline fill="none" id="XMLID_4233_" points="     2.5,29 16,19.5 29.5,29    " stroke="#455A64" stroke-linecap="round" stroke-linejoin="round" stroke-miterlimit="10"/>

<line fill="none" id="XMLID_4232_" stroke="#455A64" stroke-linecap="round" stroke-linejoin="round" stroke-miterlimit="10" x1="26.495" x2="29.5" y1="11.052" y2="13.5"/>

<line fill="none" id="XMLID_3935_" stroke="#455A64" stroke-linecap="round" stroke-linejoin="round" stroke-miterlimit="10" x1="2.5" x2="5.5" y1="13.5" y2="11.056"/>

<path d="     M20.972,9.48c0.018,0.171,0.027,0.344,0.027,0.52c0,2.762-2.239,5-5,5s-5-2.238-5-5c0-2.761,2.239-5,5-5     c0.92,0,1.781,0.249,2.522,0.682" fill="none" id="XMLID_3934_" stroke="#455A64" stroke-linecap="round" stroke-linejoin="round" stroke-miterlimit="10"/>

<polyline fill="none" id="XMLID_3883_" points="     20.79,6.481 15.999,11.272 13.69,8.965    " stroke="#455A64" stroke-linecap="round" stroke-linejoin="round" stroke-miterlimit="10"/>

</g>

</g>

<g id="XMLID_2976_">

<g id="XMLID_2977_">

<line fill="none" id="XMLID_2985_" stroke="#263238" stroke-linecap="round" stroke-linejoin="round" stroke-miterlimit="10" x1="26.5" x2="26.5" y1="15.8" y2="1.5"/>

<polyline fill="none" id="XMLID_2984_" points="     26.5,1.5 5.5,1.5 5.5,15.8    " stroke="#263238" stroke-linecap="round" stroke-linejoin="round" stroke-miterlimit="10"/>

<polyline fill="none" id="XMLID_2983_" points="     21,20.111 29.5,13.5 29.5,30.5 2.5,30.5 2.5,13.5 11.054,20.153    " stroke="#263238" stroke-linecap="round" stroke-linejoin="round" stroke-miterlimit="10"/>

<polyline fill="none" id="XMLID_2982_" points="     2.5,29 16,19.5 29.5,29    " stroke="#263238" stroke-linecap="round" stroke-linejoin="round" stroke-miterlimit="10"/>

<line fill="none" id="XMLID_2981_" stroke="#263238" stroke-linecap="round" stroke-linejoin="round" stroke-miterlimit="10" x1="26.495" x2="29.5" y1="11.052" y2="13.5"/>

<line fill="none" id="XMLID_2980_" stroke="#263238" stroke-linecap="round" stroke-linejoin="round" stroke-miterlimit="10" x1="2.5" x2="5.5" y1="13.5" y2="11.056"/>

<path d="     M20.972,9.48c0.018,0.171,0.027,0.344,0.027,0.52c0,2.762-2.239,5-5,5s-5-2.238-5-5c0-2.761,2.239-5,5-5     c0.92,0,1.781,0.249,2.522,0.682" fill="none" id="XMLID_2979_" stroke="#263238" stroke-linecap="round" stroke-linejoin="round" stroke-miterlimit="10"/>

<polyline fill="none" id="XMLID_2978_" points="     20.79,6.481 15.999,11.272 13.69,8.965    " stroke="#263238" stroke-linecap="round" stroke-linejoin="round" stroke-miterlimit="10"/>

</g>

</g>

</g>

</svg>