<?xml version="1.0" encoding="utf-8"?>

<svg fill="#000000" version="1.1" id="earth" xmlns="http://www.w3.org/2000/svg" xmlns:xlink="http://www.w3.org/1999/xlink" 
	 width="800px" height="800px" viewBox="0 0 256 182" enable-background="new 0 0 256 182" xml:space="preserve">
<path d="M168.971,108.022c8.088,0,14.646,6.552,14.646,14.634s-6.557,14.635-14.646,14.635c-8.088,0-14.646-6.552-14.646-14.634
	S160.883,108.022,168.971,108.022z M168.971,72.827c-13.746,0-26.209,5.589-35.24,14.614l11.828,11.82
	c5.998-5.993,14.276-9.708,23.412-9.708s17.414,3.715,23.412,9.708l11.828-11.82C195.18,78.417,182.717,72.827,168.971,72.827z
	 M168.971,37.634c-23.461,0-44.732,9.533-60.138,24.928l11.835,11.826c12.372-12.37,29.459-20.028,48.303-20.028
	s35.931,7.659,48.303,20.028l11.835-11.826C213.704,47.168,192.433,37.634,168.971,37.634z M168.971,2.442
	c-33.169,0-63.241,13.485-85.029,35.248l11.828,11.826c18.76-18.746,44.648-30.349,73.2-30.349s54.44,11.603,73.2,30.35L254,37.69
	C232.213,15.927,202.141,2.442,168.971,2.442z M52.568,84.868c9.488,0,18.976,3.657,26.29,10.872l43.882,43.882
	c4.645,4.645,4.645,12.157,0,16.802c-4.645,4.645-12.157,4.645-16.802,0l-35.382-35.382c-1.384-1.581-3.855-1.581-5.436,0
	c-1.581,1.581-1.581,4.052,0,5.634l35.185,35.185c3.657,3.855,8.697,5.831,13.936,5.831s10.279-2.174,13.936-5.831
	c1.779-1.581,3.262-3.855,4.25-6.029h49.911c6.622,0,11.959,5.238,11.959,11.761c0,6.622-5.436,11.959-11.959,11.959h-81.241
	c-9.686,0.198-20.162-3.459-27.673-10.872l-30.54-30.54c-3.855-3.855-8.895-5.831-13.936-5.831H2V84.967h50.568V84.868z"/>
</svg>