<?xml version="1.0" encoding="utf-8"?>

<svg fill="#000000" height="800px" width="800px" version="1.2" baseProfile="tiny" id="Layer_1" xmlns="http://www.w3.org/2000/svg" xmlns:xlink="http://www.w3.org/1999/xlink"
	  viewBox="-205 51 256 256" xml:space="preserve">
<g>
	<path d="M26.9,75.1C14.6,62.8-1.8,56-19.2,56c-17.5,0-33.8,6.8-46.2,19.1l-49.6,49.6c-12.3,12.3-19.1,28.7-19.1,46.2
		s6.8,33.8,19.1,46.2c3.7,3.7,7.8,6.9,12.2,9.6l0.7,0.4l28.4-28.4l-1.7-0.4c-5.1-1.2-9.7-3.8-13.3-7.4c-5.3-5.3-8.3-12.4-8.3-20
		c0-7.5,2.9-14.6,8.3-20l49.6-49.6c5.3-5.3,12.4-8.3,20-8.3c7.5,0,14.6,2.9,20,8.3c5.3,5.3,8.3,12.4,8.3,20s-2.9,14.6-8.3,20l-15,15
		l0.3,0.6c5.9,13.9,7.6,29.1,4.9,44l-0.6,3.1l36.6-36.6C39.2,155.1,46,138.7,46,121.2C46,103.8,39.2,87.4,26.9,75.1z"/>
	<path d="M-51.2,131.4l-0.7-0.4l-28.4,28.4l1.7,0.4c5.1,1.2,9.7,3.8,13.3,7.4c11,11,11,28.9,0,39.9l-49.6,49.6
		c-5.3,5.3-12.4,8.3-20,8.3c-7.5,0-14.6-2.9-20-8.3c-5.3-5.3-8.3-12.4-8.3-20c0-7.5,2.9-14.6,8.3-20l15-15l-0.3-0.6
		c-5.9-13.9-7.6-29.1-4.9-44l0.6-3.1l-36.6,36.6c-12.3,12.3-19.1,28.7-19.1,46.2c0,17.5,6.8,33.8,19.1,46.2
		c12.3,12.3,28.7,19.1,46.2,19.1s33.9-6.8,46.2-19.1l49.6-49.6c12.3-12.3,19.1-28.7,19.1-46.2S-26.7,153.3-39,141
		C-42.7,137.4-46.8,134.1-51.2,131.4z"/>
</g>
</svg>