<?xml version="1.0" encoding="utf-8"?>

<svg fill="#000000" height="800px" width="800px" version="1.2" baseProfile="tiny" id="MO0ney_sign_by_Adioma"
	 xmlns="http://www.w3.org/2000/svg" xmlns:xlink="http://www.w3.org/1999/xlink"  viewBox="0 0 256 256"
	 xml:space="preserve">
<path d="M198.2,169.8c0-39.4-42.1-50.6-60.3-55.8c-34.4-9.6-37.3-22-36.8-28.3c1.2-15.5,18.2-19.3,34-15.9
	c12.4,2.7,25.2,10,32.3,15.6L189.9,59c-11.1-7.6-25.3-17.4-46.1-21.4V12h-32.9v24.7C79,39.1,57.8,59.1,57.8,86.6
	c0,26.8,19.4,39.4,38.8,48.8c16.2,7.7,61.4,15.8,58.8,36.2c-1.4,11.1-13.2,19.3-32.7,16.8c-17-2.1-35.2-16.4-35.2-16.4l-24.9,24.7
	c15,12.1,30.9,19.7,48.2,23.2v24.1h32.9v-22.9C175.1,217.7,198.2,196.3,198.2,169.8z"/>
</svg>