<?xml version="1.0" encoding="utf-8"?>

<svg fill="#000000" height="800px" width="800px" version="1.2" baseProfile="tiny" id="earth" xmlns="http://www.w3.org/2000/svg" xmlns:xlink="http://www.w3.org/1999/xlink"
	  viewBox="-63 65 128 128" xml:space="preserve">
<path d="M46.8,154L18,160.6c-0.2,1.4-0.8,2.9-1.7,4.1c-1.7,2.6-4.3,4.5-7.3,5.3c-3,0.7-6.2,0.2-8.8-1.6l-24.8-15.8
	c-1.2-0.7-1.4-2.1-0.7-3.2s2.1-1.4,3.1-0.7l24.9,15.8c3.3,2,7.6,1.1,9.7-2.1s1.1-7.6-2.1-9.7l-31-19.6c-5.1-3.2-11-5.7-16.6-2.9
	L-63,144.8v29.4l18.4-13.7c2.9-0.7,6.1-0.1,8.8,1.6l21.6,13.6c5.3,3.3,11.8,4.1,17.4,2.6L50,167.6c3.7-0.8,6.2-4.5,5.3-8.5
	C54.3,155.5,50.6,153.2,46.8,154z M26.4,81.3C8.2,81.3-6.5,96-6.5,114.2c0,18.2,14.7,32.9,32.9,32.9c18.2,0,32.9-14.7,32.9-32.9
	C59.3,96,44.5,81.3,26.4,81.3z M45.1,102l-22.6,31.2L8,117.5c-1.6-1.8-1.5-4.5,0.2-6.2c1.8-1.6,4.5-1.5,6.2,0.2l7.3,7.9L38,96.9
	c1.4-1.9,4.1-2.4,6.1-1C46,97.3,46.5,100.1,45.1,102z"/>
</svg>