<?xml version="1.0" encoding="utf-8"?>

<svg fill="#000000" height="800px" width="800px" version="1.1" id="Layer_1" xmlns="http://www.w3.org/2000/svg" xmlns:xlink="http://www.w3.org/1999/xlink" 
	 viewBox="0 0 256 256" xml:space="preserve">
<g transform="translate(-150 -140)">
	<g>
		<circle cx="278" cy="325.7" r="21.1"/>
		<path d="M278,143.1c-69,0-124.9,55.9-124.9,124.9S209,392.9,278,392.9c69,0,124.9-55.9,124.9-124.9S347,143.1,278,143.1z
			 M278,189.2c11.6,0,21.1,9.4,21.1,21.1c0,11.6-9.4,21.1-21.1,21.1s-21.1-9.4-21.1-21.1C256.9,198.7,266.4,189.2,278,189.2z
			 M278,378.5c-1.9,0-3.8-0.1-5.7-0.3c-27.9-2.8-49.6-26.4-49.6-55c0-30.5,24.7-55.3,55.3-55.3c30.5,0,55.3-24.7,55.3-55.3
			c0-28.6-21.7-52.1-49.6-55c58.4,3,104.9,51.1,104.9,110.2C388.5,329,339,378.5,278,378.5z"/>
	</g>
</g>
</svg>