<?xml version="1.0" ?>

<!DOCTYPE svg  PUBLIC '-//W3C//DTD SVG 1.1//EN'  'http://www.w3.org/Graphics/SVG/1.1/DTD/svg11.dtd'>


<svg fill="#000000" width="800px" height="800px" viewBox="0 0 32 32" enable-background="new 0 0 32 32" version="1.1" xml:space="preserve" xmlns="http://www.w3.org/2000/svg" xmlns:xlink="http://www.w3.org/1999/xlink">

<g id="Approved"/>

<g id="Approved_1_"/>

<g id="File_Approve"/>

<g id="Folder_Approved"/>

<g id="Security_Approved"/>

<g id="Certificate_Approved"/>

<g id="User_Approved"/>

<g id="ID_Card_Approved">

<g>

<path d="M31,6c0-0.552-0.447-1-1-1H2C1.447,5,1,5.448,1,6v20c0,0.552,0.447,1,1,1h28c0.553,0,1-0.448,1-1v-8c0-0.552-0.447-1-1-1    s-1,0.448-1,1v7H3V13.801h20.75c0.553,0,1-0.448,1-1s-0.447-1-1-1H3v-1.676h20.75c0.553,0,1-0.448,1-1s-0.447-1-1-1H3V7h26v1.62    c0,0.552,0.447,1,1,1s1-0.448,1-1V6z"/>

<path d="M29.316,12.071l-10.004,9.36L14.684,17.1c-0.404-0.378-1.035-0.357-1.414,0.047c-0.377,0.403-0.356,1.036,0.047,1.413    l5.313,4.971c0.192,0.18,0.438,0.27,0.684,0.27s0.491-0.09,0.684-0.27l10.688-10c0.403-0.377,0.424-1.01,0.047-1.413    C30.353,11.714,29.721,11.694,29.316,12.071z"/>

</g>

</g>

<g id="Android_Approved"/>

<g id="Privacy_Approved"/>

<g id="Approved_2_"/>

<g id="Message_Approved"/>

<g id="Upload_Approved"/>

<g id="Download_Approved"/>

<g id="Email_Approved"/>

<g id="Data_Approved"/>

</svg>