<?xml version="1.0" ?>

<!DOCTYPE svg  PUBLIC '-//W3C//DTD SVG 1.1//EN'  'http://www.w3.org/Graphics/SVG/1.1/DTD/svg11.dtd'>


<svg fill="#000000" width="800px" height="800px" viewBox="0 0 32 32" enable-background="new 0 0 32 32" version="1.1" xml:space="preserve" xmlns="http://www.w3.org/2000/svg" xmlns:xlink="http://www.w3.org/1999/xlink">

<g id="Approved"/>

<g id="Approved_1_"/>

<g id="File_Approve"/>

<g id="Folder_Approved"/>

<g id="Security_Approved"/>

<g id="Certificate_Approved"/>

<g id="User_Approved"/>

<g id="ID_Card_Approved"/>

<g id="Android_Approved"/>

<g id="Privacy_Approved"/>

<g id="Approved_2_"/>

<g id="Message_Approved"/>

<g id="Upload_Approved">

<g>

<path d="M30.03,17.224c-0.29-0.47-0.907-0.615-1.376-0.324c-0.47,0.291-0.615,0.907-0.324,1.377C28.768,18.984,29,19.809,29,20.66    c0,2.048-1.354,3.837-3.218,4.254c-0.084,0.019-0.165,0.048-0.239,0.086H6.245c-0.056-0.014-0.114-0.023-0.173-0.027    C4.349,24.849,3,23.306,3,21.46c0-1.952,1.471-3.54,3.28-3.54c0.919,0,1.771,0.407,2.397,1.146    c0.271,0.32,0.714,0.417,1.107,0.272c0.394-0.145,0.656-0.539,0.656-0.959c0-2.308,1.27-4.364,3.14-5.341v1.341    c0,0.553,0.448,1,1,1s1-0.447,1-1v-2.79V6.56c0-0.553-0.448-1-1-1h-0.726L16,3.414l2.146,2.146H17.42c-0.552,0-1,0.447-1,1v5.03    v4.641c0,0.553,0.448,1,1,1s1-0.447,1-1v-3.207c1.327,0.688,2.375,1.933,2.855,3.475c0.164,0.526,0.726,0.818,1.252,0.657    c0.527-0.165,0.822-0.726,0.657-1.253c-0.747-2.396-2.535-4.274-4.765-5.062V7.56h2.14c0.404,0,0.769-0.243,0.924-0.617    s0.069-0.804-0.217-1.09l-4.56-4.56c-0.391-0.391-1.023-0.391-1.414,0l-4.56,4.56c-0.286,0.286-0.372,0.716-0.217,1.09    s0.52,0.617,0.924,0.617h2.14v3.282c-2.453,0.87-4.31,3.042-4.923,5.679C7.927,16.13,7.114,15.92,6.28,15.92    C3.369,15.92,1,18.405,1,21.46c0,2.796,2.026,5.15,4.66,5.48C5.766,26.979,5.881,27,6,27h20c0.255,0,0.489-0.096,0.666-0.254    C29.203,25.96,31,23.474,31,20.66C31,19.437,30.665,18.248,30.03,17.224z"/>

<path d="M14.684,17.301c-0.404-0.378-1.036-0.357-1.414,0.046c-0.378,0.402-0.357,1.035,0.045,1.413l5.311,4.971    C18.819,23.91,19.064,24,19.31,24s0.491-0.09,0.683-0.27l10.69-10c0.403-0.378,0.424-1.011,0.047-1.414    c-0.379-0.403-1.011-0.425-1.414-0.047l-10.006,9.361L14.684,17.301z"/>

</g>

</g>

<g id="Download_Approved"/>

<g id="Email_Approved"/>

<g id="Data_Approved"/>

</svg>