<?xml version="1.0" ?>

<!DOCTYPE svg  PUBLIC '-//W3C//DTD SVG 1.1//EN'  'http://www.w3.org/Graphics/SVG/1.1/DTD/svg11.dtd'>


<svg fill="#000000" width="800px" height="800px" viewBox="0 0 32 32" enable-background="new 0 0 32 32" version="1.1" xml:space="preserve" xmlns="http://www.w3.org/2000/svg" xmlns:xlink="http://www.w3.org/1999/xlink">

<g id="Approved"/>

<g id="Approved_1_"/>

<g id="File_Approve"/>

<g id="Folder_Approved"/>

<g id="Security_Approved"/>

<g id="Certificate_Approved"/>

<g id="User_Approved"/>

<g id="ID_Card_Approved"/>

<g id="Android_Approved"/>

<g id="Privacy_Approved"/>

<g id="Approved_2_"/>

<g id="Message_Approved"/>

<g id="Upload_Approved"/>

<g id="Download_Approved">

<g>

<path d="M14.684,10.301c-0.404-0.377-1.037-0.358-1.414,0.046c-0.378,0.402-0.357,1.035,0.045,1.413l5.311,4.971    C18.819,16.91,19.064,17,19.31,17s0.491-0.09,0.683-0.27l10.69-10c0.403-0.378,0.424-1.011,0.047-1.414    c-0.379-0.403-1.011-0.425-1.414-0.047l-10.006,9.361L14.684,10.301z"/>

<path d="M29.127,10.663c-0.391-0.391-1.024-0.391-1.415,0c-0.39,0.391-0.39,1.023,0,1.414C28.531,12.895,29,14.052,29,15.25    c0,2.042-1.354,3.827-3.218,4.244c-0.084,0.019-0.165,0.048-0.239,0.086H18.42v-1.003c0-0.553-0.448-1-1-1s-1,0.447-1,1v2.003    v4.86c0,0.553,0.448,1,1,1h0.726L16,28.586l-2.146-2.146h0.726c0.552,0,1-0.447,1-1v-4.86v-4.006c0-0.553-0.448-1-1-1    s-1,0.447-1,1v3.006H6.245c-0.057-0.015-0.117-0.024-0.178-0.028C4.347,19.437,3,17.895,3,16.04c0-1.952,1.471-3.54,3.28-3.54    c0.913,0,1.765,0.408,2.401,1.15c0.273,0.318,0.715,0.412,1.106,0.268c0.393-0.146,0.653-0.539,0.653-0.958    C10.44,9.674,12.934,7,16,7c2.066,0,3.945,1.211,4.902,3.16c0.243,0.495,0.84,0.698,1.338,0.457    c0.496-0.243,0.7-0.843,0.457-1.338C21.401,6.64,18.835,5,16,5c-3.553,0-6.541,2.594-7.347,6.103    C7.922,10.711,7.11,10.5,6.28,10.5C3.369,10.5,1,12.985,1,16.04c0,2.809,2.028,5.164,4.665,5.482C5.769,21.56,5.882,21.58,6,21.58    h7.58v2.86h-2.14c-0.404,0-0.769,0.243-0.924,0.617s-0.069,0.804,0.217,1.09l4.56,4.56C15.488,30.902,15.744,31,16,31    s0.512-0.098,0.707-0.293l4.56-4.56c0.286-0.286,0.372-0.716,0.217-1.09s-0.52-0.617-0.924-0.617h-2.14v-2.86H26    c0.255,0,0.489-0.096,0.666-0.254C29.203,20.54,31,18.059,31,15.25C31,13.524,30.317,11.853,29.127,10.663z"/>

</g>

</g>

<g id="Email_Approved"/>

<g id="Data_Approved"/>

</svg>