<?xml version="1.0" ?>


<svg fill="#000000" width="800px" height="800px" viewBox="0 0 64 64" version="1.0" xml:space="preserve" xmlns="http://www.w3.org/2000/svg" xmlns:xlink="http://www.w3.org/1999/xlink">

<g id="tree"/>

<g id="Layer_3"/>

<g id="Layer_4"/>

<g id="Layer_5"/>

<g id="Layer_6"/>

<g id="Layer_7"/>

<g id="Layer_8"/>

<g id="Layer_9"/>

<g id="Layer_11"/>

<g id="Layer_12"/>

<g id="Layer_13"/>

<g id="Layer_14"/>

<g id="Layer_15"/>

<g id="Layer_16"/>

<g id="Layer_17"/>

<g id="Layer_18"/>

<g id="Layer_19"/>

<g id="Layer_20">

<g>

<path d="M33.95,26.51v2.59c-0.55,0.51-1.09,1.03-1.64,1.54v-2.53C32.86,27.58,33.41,27.04,33.95,26.51z"/>

<path d="M36.37,28.35v2.29c-0.58-0.55-1.16-1.1-1.74-1.65v-2.43C35.21,27.16,35.79,27.75,36.37,28.35z"/>

<path d="M33.95,22.56v2.32c-0.55-0.56-1.09-1.13-1.64-1.69v-2.21C32.86,21.51,33.41,22.03,33.95,22.56z"/>

<path d="M36.37,20.98v2.22c-0.58,0.56-1.16,1.13-1.74,1.69v-2.28C35.21,22.07,35.79,21.52,36.37,20.98z"/>

<path d="M31.73,27.89h-2.22c0.52-0.59,1.04-1.17,1.56-1.76h2.29C32.82,26.72,32.28,27.3,31.73,27.89z"/>

<path d="M33.55,25.45h-2.56c-0.49-0.54-0.99-1.08-1.48-1.62h2.46C32.5,24.37,33.03,24.91,33.55,25.45z"/>

<path d="M39.18,23.83c-0.51,0.54-1.01,1.08-1.52,1.62h-2.62c0.55-0.54,1.11-1.08,1.66-1.62H39.18z"/>

<path d="M39.18,27.89h-2.3c-0.57-0.59-1.14-1.17-1.71-1.76h2.4C38.11,26.72,38.65,27.3,39.18,27.89z"/>

</g>

<path d="M46.14,15.81c0-2.14-1.74-3.88-3.87-3.88H26.43c-1.01,0-2.01,0.41-2.73,1.14c-0.73,0.73-1.14,1.71-1.14,2.74   c0,1.67,1.09,3.13,2.66,3.66c-0.11,0.58-0.19,1.18-0.19,1.78v8.1c0,0.81-0.28,1.6-0.79,2.23l-4.31,5.32   c-3.23,3.99-2.62,9.88,1.37,13.11c1.72,1.39,3.79,2.07,5.85,2.07c2.72,0,5.42-1.18,7.26-3.45l5.8-7.16l0,0l1.38-1.71   c0.52-0.65,0.96-1.37,1.3-2.14c0.66-1.52,0.73-2.87,0.77-3.68c0.03-0.57,0.02-1.02,0-1.26v-2.42v-9c0-0.6-0.07-1.19-0.19-1.77   c0.57-0.19,1.09-0.51,1.52-0.94C45.72,17.82,46.14,16.82,46.14,15.81z M33.64,47.99c-2.89,3.57-8.15,4.12-11.71,1.24   c-3.56-2.89-4.11-8.14-1.23-11.71l4.31-5.32c0.65-0.8,1.01-1.81,1.01-2.86v-8.1c0-0.53,0.05-1.06,0.15-1.58   c0.08,0.01,0.17,0.01,0.25,0.01h15.84c0.08,0,0.17,0,0.25-0.01c0.1,0.52,0.15,1.04,0.15,1.58l0,8.9c-0.03,0-0.06-0.01-0.09-0.01   c-3.25,0-5.9,2.65-5.9,5.9c0,2,1.01,3.83,2.66,4.92L33.64,47.99z M42.67,33.87L42.67,33.87c-0.04,0.75-0.1,1.99-0.69,3.34   c-0.3,0.69-0.69,1.34-1.16,1.92l-0.85,1.06c-1.42-0.89-2.29-2.45-2.29-4.14c0-2.7,2.2-4.9,4.9-4.9c0.03,0,0.06,0,0.09,0l0,1.56   C42.69,32.95,42.7,33.35,42.67,33.87z M42.81,18.63c-0.17,0.03-0.36,0.05-0.54,0.05H26.43c-0.19,0-0.37-0.02-0.54-0.05   c-1.35-0.27-2.33-1.46-2.33-2.82c0-0.77,0.3-1.49,0.84-2.04c0.54-0.54,1.28-0.84,2.03-0.84h15.84c1.58,0,2.87,1.29,2.87,2.88   c0,0.75-0.31,1.49-0.84,2.03C43.89,18.24,43.36,18.52,42.81,18.63z"/>

</g>

<g id="Layer_21"/>

<g id="Layer_22"/>

<g id="Layer_23"/>

<g id="Layer_24"/>

<g id="Layer_25"/>

</svg>