<?xml version="1.0" ?>


<svg fill="#000000" width="800px" height="800px" viewBox="0 0 64 64" version="1.0" xml:space="preserve" xmlns="http://www.w3.org/2000/svg" xmlns:xlink="http://www.w3.org/1999/xlink">

<g id="tree"/>

<g id="Layer_3"/>

<g id="Layer_4"/>

<g id="Layer_5"/>

<g id="Layer_6"/>

<g id="Layer_7"/>

<g id="Layer_8"/>

<g id="Layer_9"/>

<g id="Layer_11"/>

<g id="Layer_12"/>

<g id="Layer_13"/>

<g id="Layer_14"/>

<g id="Layer_15"/>

<g id="Layer_16"/>

<g id="Layer_17"/>

<g id="Layer_18"/>

<g id="Layer_19"/>

<g id="Layer_20"/>

<g id="Layer_21"/>

<g id="Layer_22"/>

<g id="Layer_23"/>

<g id="Layer_24"/>

<g id="Layer_25">

<g>

<path d="M32,28.66c-0.97,0-1.75-0.79-1.75-1.76s0.79-1.75,1.75-1.75s1.75,0.79,1.75,1.75S32.97,28.66,32,28.66z M32,26.15    c-0.42,0-0.75,0.34-0.75,0.75c0,0.42,0.34,0.76,0.75,0.76s0.75-0.34,0.75-0.76C32.75,26.48,32.42,26.15,32,26.15z"/>

</g>

<g>

<g>

<circle cx="27.95" cy="25.47" r="0.68"/>

</g>

<g>

<circle cx="35.81" cy="25.47" r="0.68"/>

</g>

</g>

<g>

<path d="M43.68,44.25h-7.4c-0.21,0-0.4-0.13-0.47-0.33c-0.07-0.2-0.02-0.42,0.14-0.55c0.05-0.04,0.1-0.09,0.15-0.15    c-0.81-0.09-1.5-0.47-1.88-1.08c-0.39-0.62-0.42-1.4-0.09-2.3c0.46-1.14,1.3-1.56,2.18-2.01c0.35-0.17,0.7-0.35,1.06-0.59    c0.1-0.06,0.19-0.12,0.27-0.18c1.59-1.17,2.2-2.89,2.64-4.41c0.05-0.17,0.19-0.3,0.36-0.35c0.17-0.04,0.36,0.01,0.48,0.15    c2.17,2.32,3.37,5.36,3.37,8.54c0,0.71-0.05,1.37-0.17,2.02c-0.04,0.28-0.1,0.56-0.16,0.84C44.12,44.09,43.91,44.25,43.68,44.25z     M37.32,43.25h5.96c0.03-0.13,0.05-0.26,0.07-0.39c0.11-0.6,0.16-1.21,0.16-1.86c0-2.64-0.89-5.16-2.52-7.2    c-0.51,1.51-1.26,2.98-2.72,4.06c-0.1,0.08-0.23,0.17-0.35,0.24c-0.39,0.25-0.79,0.45-1.14,0.63c-0.8,0.41-1.38,0.7-1.69,1.44    c-0.09,0.24-0.33,0.92-0.01,1.45c0.31,0.5,1.07,0.73,1.88,0.58c0.19-0.03,0.37,0.04,0.49,0.18c0.11,0.15,0.14,0.35,0.06,0.52    C37.44,43.02,37.38,43.14,37.32,43.25z"/>

</g>

<path d="M47.53,36.55l-3.72-6.05c-0.46-0.73-1.1-1.27-1.87-1.61c0.02-1.12-0.09-2.25-0.34-3.35c0.07-0.3,0.14-0.61,0.18-0.91   c0.04-0.33,0.06-0.66,0.06-1c0.01-0.04,0.02-0.07,0.02-0.11v-0.04c0-0.01,0-0.03,0-0.04l-0.02-0.21l0-0.14l-0.01,0l-0.32-4.09   c0-0.03-0.02-0.07-0.03-0.1c-0.01-0.02,0-0.04-0.01-0.06L39,13.04c-0.03-0.05-0.06-0.13-0.06-0.23c0-0.09,0.01-0.14,0.01-0.16   c0.04,0.01,0.16,0.03,0.24,0.1c0.04,0.03,0.06,0.08,0.08,0.13c0.01,0.04,0.03,0.07,0.05,0.11c0.84,1.29,1.61,2.64,2.29,4.02   c0.66,1.35,1.25,2.75,1.75,4.17c0.01,0.02,0.03,0.03,0.04,0.05c-0.32,0.33-0.52,0.77-0.52,1.26c0,1,0.81,1.81,1.81,1.81   s1.81-0.81,1.81-1.81c0-0.76-0.47-1.41-1.14-1.68c0.01-0.04,0.04-0.07,0.04-0.11c0.01-1.65-0.22-3.27-0.68-4.81   c-0.6-1.99-1.58-3.85-2.92-5.5c-0.38-0.48-3.85-4.72-9.09-4.29c-2.84,0.22-5.37,1.7-7.51,4.38c-1.99,2.49-2.48,5.22-2.69,6.38   c-0.16,0.87-0.2,1.67-0.21,1.71c-0.01,0.32-0.01,0.58,0,0.75c-0.01,0.19-0.02,0.37-0.02,0.54c-0.05,0.97-0.09,1.94-0.13,2.99   c-0.01,0.1-0.01,0.2-0.01,0.29l-0.01,0l0,0.13c0,0.01,0,0.03,0,0.04c0,0.05,0.01,0.1,0.01,0.14l0,0.13   c0.02,0.6,0.09,1.18,0.21,1.75c-0.18,1.01-0.26,2.05-0.26,3.09c-0.78,0.34-1.43,0.89-1.89,1.63l-3.72,6.05   c-1.21,1.98-0.59,4.57,1.38,5.79l0.92,0.57c0.28,0.17,0.56,0.29,0.85,0.38c0.02,0.14,0.04,0.29,0.07,0.45   c-0.83,0.18-1.46,0.92-1.46,1.8c0,1.02,0.83,1.85,1.84,1.85h0.92c0.65,1.2,1.47,2.26,2.45,3.17c-0.79,0.29-1.36,1.05-1.36,1.93   c0,1.15,0.93,2.08,2.08,2.08h4.16c0.41,0,0.81-0.12,1.12-0.33c0.31-0.2,0.56-0.47,0.71-0.77c0.17-0.31,0.25-0.63,0.25-0.98   c0-0.58-0.26-1.12-0.68-1.5c0.21-1.06,1.15-1.86,2.26-1.86c0.62,0,1.2,0.24,1.64,0.67c0.32,0.32,0.53,0.72,0.62,1.16   c-0.44,0.39-0.72,0.94-0.72,1.53c0,0.35,0.08,0.68,0.24,0.96c0.17,0.35,0.44,0.63,0.76,0.81c0.32,0.2,0.69,0.31,1.06,0.31h4.17   c1.14,0,2.07-0.93,2.07-2.08c0-0.88-0.55-1.62-1.32-1.92c0.98-0.92,1.81-2,2.45-3.19h0.86c1.02,0,1.85-0.83,1.85-1.85   c0-0.86-0.6-1.57-1.39-1.78c0.32-0.1,0.64-0.23,0.92-0.41l0.92-0.56l0,0c0.96-0.59,1.63-1.52,1.89-2.61   C48.29,38.63,48.11,37.5,47.53,36.55z M35.57,43.63c-0.09,0.05-0.2,0.09-0.3,0.13c-0.07,0.02-0.13,0.06-0.21,0.08   c-0.01,0-0.03,0-0.04,0.01c-0.14,0.03-0.28,0.05-0.42,0.06c-0.04,0-0.08,0-0.12,0c-0.13,0-0.26,0-0.39-0.01   c-0.03,0-0.06,0-0.09-0.01c-0.69-0.07-1.39-0.32-1.99-0.59h0c0,0,0,0,0,0c-0.35-0.16-0.67-0.32-0.94-0.48   c-0.03-0.02-0.06-0.03-0.09-0.05c-0.03-0.02-0.06-0.03-0.09-0.05c-0.31-0.19-0.54-0.34-0.63-0.4c-0.03-0.02-0.04-0.03-0.04-0.03   c-0.42-0.3-0.91-0.68-1.44-1.16c-0.03-0.04-0.07-0.07-0.11-0.1c-0.84-0.76-1.76-1.75-2.61-2.97c-1.03-1.47-1.81-3.08-2.31-4.77   c-0.05-0.16-0.09-0.33-0.14-0.51c-0.35-1.3-0.53-2.66-0.55-4.03c-0.01-0.84,0.04-1.68,0.14-2.5c0.06,0.04,0.12,0.08,0.17,0.13   c0.13,0.1,0.26,0.19,0.39,0.28c0.19,0.13,0.38,0.27,0.57,0.39c0.13,0.09,0.27,0.17,0.4,0.26c0.19,0.12,0.37,0.23,0.56,0.34   c0.14,0.08,0.27,0.16,0.41,0.23c0.19,0.1,0.37,0.2,0.56,0.29c0.14,0.07,0.27,0.14,0.41,0.2c0.19,0.09,0.38,0.17,0.57,0.25   c0.13,0.06,0.27,0.11,0.4,0.17c0.2,0.08,0.39,0.14,0.59,0.21c0.13,0.04,0.25,0.09,0.38,0.13c0.22,0.07,0.43,0.12,0.65,0.18   c0.11,0.03,0.21,0.06,0.32,0.08c0.32,0.08,0.65,0.14,0.97,0.19c0.29,0.05,0.59,0.08,0.88,0.11c0.1,0.01,0.2,0.01,0.31,0.02   c0.2,0.01,0.39,0.02,0.59,0.02c0.04,0,0.07,0,0.11,0c0.04,0,0.09-0.01,0.13-0.01c0.44,0,0.88-0.03,1.31-0.08   c0.38-0.05,0.74-0.11,1.09-0.19c0.1-0.02,0.19-0.04,0.29-0.07c0.29-0.07,0.57-0.15,0.84-0.23c0.05-0.02,0.11-0.03,0.16-0.05   c0.31-0.1,0.61-0.22,0.9-0.34c0.08-0.03,0.15-0.07,0.23-0.1c0.22-0.1,0.44-0.2,0.65-0.31c0.06-0.03,0.13-0.06,0.2-0.1   c0.25-0.13,0.49-0.26,0.71-0.4c0.06-0.04,0.11-0.07,0.17-0.1c0.17-0.11,0.33-0.21,0.48-0.31c0.06-0.04,0.12-0.08,0.18-0.13   c0.17-0.12,0.34-0.24,0.49-0.36c0.05-0.04,0.08-0.07,0.13-0.1c0.11-0.08,0.21-0.17,0.3-0.24c0.02-0.02,0.05-0.04,0.07-0.06   c0.14,0.87,0.19,1.76,0.15,2.64c-0.04,0.92-0.19,1.86-0.44,2.8c-0.06,0.22-0.13,0.45-0.19,0.67c0,0,0,0,0,0c0,0,0,0,0,0   c-0.45,1.52-1.05,3.24-2.64,4.41c-0.08,0.07-0.17,0.12-0.27,0.18c-0.36,0.23-0.71,0.41-1.06,0.59c-0.88,0.45-1.72,0.87-2.18,2.01   c-0.33,0.9-0.3,1.68,0.09,2.3c0.38,0.61,1.07,0.99,1.88,1.08c-0.09,0.1-0.2,0.17-0.3,0.25C35.73,43.53,35.65,43.59,35.57,43.63z    M20.59,39.65c0.03-0.23,0.06-0.46,0.1-0.68c0.02-0.13,0.05-0.25,0.08-0.38c0.04-0.2,0.09-0.41,0.14-0.61   c0.04-0.13,0.08-0.26,0.12-0.39c0.06-0.19,0.12-0.39,0.19-0.58c0.05-0.13,0.1-0.25,0.15-0.38c0.08-0.19,0.16-0.37,0.25-0.56   c0.06-0.12,0.12-0.24,0.18-0.36c0.09-0.18,0.2-0.36,0.3-0.54c0.07-0.11,0.13-0.23,0.2-0.34c0.12-0.18,0.24-0.36,0.37-0.53   c0.07-0.1,0.14-0.2,0.22-0.3c0.02-0.02,0.03-0.04,0.05-0.06c0.06,0.18,0.13,0.35,0.19,0.52c0.07,0.19,0.13,0.38,0.2,0.56   c0.1,0.25,0.21,0.5,0.33,0.75c0.07,0.16,0.14,0.33,0.22,0.49c0.14,0.28,0.29,0.55,0.44,0.83c0.07,0.12,0.13,0.25,0.21,0.38   c0.23,0.39,0.48,0.78,0.74,1.16c0.38,0.54,0.77,1.04,1.16,1.5c0.25,0.29,0.5,0.56,0.74,0.81l-6.66,0.02c0-0.33,0.02-0.66,0.05-0.98   C20.56,39.87,20.58,39.76,20.59,39.65z M23.15,22.97c0-0.02,0-0.04,0-0.06c0-0.01,0-0.1,0-0.11c0.04-0.97,0.08-1.94,0.13-2.93   c0-0.05,0-0.09,0-0.14l0.38-0.06c2.83-0.43,5.69-0.67,8.5-0.7c2.61-0.02,5.2,0.12,7.91,0.43c0.04,0.01,0.09,0.01,0.13,0.01   c0.11,0.02,0.22,0.04,0.33,0.05l0.27,3.45c-0.24-0.03-0.47-0.06-0.71-0.09c-0.46-0.06-0.93-0.12-1.4-0.18   c-0.17-0.02-0.34-0.03-0.5-0.05c-0.61-0.06-1.21-0.12-1.82-0.16c-0.02,0-0.03,0-0.05,0c-1.42-0.1-2.84-0.16-4.26-0.15   c-0.73,0-1.46,0.02-2.2,0.05c-0.05,0-0.1,0-0.15,0c-0.15,0.01-0.3,0.02-0.44,0.03c-0.64,0.03-1.28,0.07-1.92,0.12   c-0.13,0.01-0.26,0.03-0.38,0.04c-0.64,0.06-1.29,0.12-1.93,0.2c-0.21,0.03-0.42,0.06-0.63,0.08C24,22.86,23.57,22.91,23.15,22.97z    M40.62,25.33c-0.05,0.05-0.14,0.13-0.24,0.23c-0.02,0.01-0.03,0.03-0.05,0.05c-0.11,0.1-0.25,0.22-0.42,0.36   c-0.01,0.01-0.03,0.02-0.05,0.04c-0.17,0.14-0.37,0.29-0.6,0.45c0,0-0.01,0.01-0.01,0.01c-0.22,0.16-0.47,0.32-0.73,0.48   c-0.03,0.02-0.07,0.04-0.1,0.06c-0.26,0.16-0.54,0.31-0.84,0.46c-0.05,0.03-0.1,0.05-0.15,0.08c-0.3,0.15-0.63,0.29-0.97,0.42   c-0.06,0.02-0.11,0.04-0.17,0.06c-0.35,0.13-0.72,0.25-1.11,0.35c-0.05,0.01-0.09,0.02-0.14,0.03c-0.41,0.1-0.84,0.19-1.29,0.24   c-1,0.12-2.02,0.1-3.03-0.06c-0.31-0.05-0.62-0.11-0.93-0.18c-0.1-0.02-0.21-0.06-0.31-0.09c-0.21-0.05-0.41-0.11-0.62-0.17   c-0.13-0.04-0.26-0.1-0.4-0.14c-0.18-0.06-0.36-0.12-0.54-0.2c-0.14-0.06-0.28-0.12-0.42-0.18c-0.17-0.08-0.35-0.15-0.52-0.23   c-0.14-0.07-0.29-0.15-0.43-0.23c-0.17-0.09-0.33-0.17-0.5-0.26c-0.15-0.08-0.29-0.18-0.44-0.26c-0.16-0.1-0.33-0.19-0.49-0.3   c-0.15-0.1-0.3-0.2-0.44-0.3c-0.16-0.11-0.33-0.22-0.49-0.34c-0.15-0.11-0.29-0.22-0.44-0.34c-0.14-0.11-0.28-0.21-0.42-0.32   c-0.07-0.34-0.11-0.69-0.14-1.05c0.28-0.04,0.56-0.08,0.84-0.12c0.42-0.06,0.83-0.12,1.25-0.17c0.29-0.03,0.59-0.06,0.89-0.09   c0.45-0.05,0.9-0.1,1.35-0.13c0.46-0.04,0.92-0.06,1.38-0.09c0.28-0.02,0.55-0.04,0.83-0.05c3.7-0.15,7.43,0.05,11.12,0.6   c-0.01,0.19-0.03,0.37-0.05,0.55c-0.04,0.3-0.09,0.58-0.15,0.82C40.62,25.32,40.62,25.33,40.62,25.33z M29.65,43.09   c0,0,0.01,0.01,0.01,0.01c0.01,0.01,0.06,0.04,0.13,0.09c0,0,0,0,0.01,0c0.03,0.02,0.04,0.03,0.08,0.05h-9.15   c-0.05-0.28-0.1-0.56-0.13-0.85c-0.02-0.14-0.01-0.29-0.03-0.44l7.64-0.03c0.15,0.14,0.31,0.27,0.45,0.39   c0.01,0.01,0.02,0.02,0.03,0.03C29.03,42.64,29.35,42.89,29.65,43.09z M36.95,42.2c-0.62,0.11-1.21,0-1.59-0.29l8.11-0.03   c-0.03,0.33-0.06,0.65-0.12,0.97c-0.03,0.15,0.02,0.29,0.12,0.41h-6.17c0.07-0.12,0.14-0.22,0.2-0.35l0.4-0.87L36.95,42.2z    M34.92,40.91c0.02-0.31,0.11-0.6,0.16-0.74c0.3-0.74,0.88-1.03,1.69-1.44c0.35-0.18,0.75-0.38,1.14-0.63   c0.12-0.07,0.25-0.15,0.35-0.24c1.46-1.07,2.2-2.55,2.72-4.05c1.61,2,2.49,4.48,2.52,7.07L34.92,40.91z M44.7,23.29   c-0.45,0-0.81-0.36-0.81-0.81s0.36-0.81,0.81-0.81s0.81,0.36,0.81,0.81S45.15,23.29,44.7,23.29z M23.3,18.61   c0-0.01,0.05-0.77,0.19-1.58c0.2-1.09,0.65-3.65,2.49-5.94c1.96-2.46,4.25-3.8,6.81-4c4.75-0.38,7.88,3.47,8.23,3.92   c1.26,1.56,2.19,3.3,2.75,5.17c0.4,1.33,0.62,2.72,0.64,4.14l-0.26,0.07c-0.48-1.3-1.03-2.59-1.64-3.83   c-0.69-1.4-1.46-2.77-2.31-4.08c-0.08-0.19-0.19-0.35-0.34-0.49c-0.4-0.35-1.08-0.5-1.53-0.14c-0.38,0.31-0.38,0.79-0.38,0.95   c0,0.25,0.07,0.49,0.17,0.67l2.1,4.94c-1.79-0.23-4.6-0.49-8.05-0.44c-2.85,0.04-5.76,0.28-8.64,0.72l-0.22,0.03   C23.3,18.69,23.3,18.65,23.3,18.61z M19.31,41.61l-0.92-0.57c-1.5-0.92-1.98-2.9-1.06-4.41l3.72-6.05   c0.27-0.44,0.63-0.79,1.05-1.05c0,0.04,0.01,0.08,0.01,0.12c0.03,0.48,0.08,0.96,0.15,1.43c0.01,0.09,0.03,0.18,0.05,0.27   c0.07,0.42,0.15,0.83,0.25,1.24c0.01,0.06,0.02,0.13,0.04,0.19c-0.1,0.12-0.2,0.25-0.3,0.37c-0.11,0.14-0.23,0.28-0.34,0.42   c-0.12,0.17-0.24,0.34-0.35,0.51c-0.1,0.15-0.2,0.29-0.29,0.44c-0.11,0.18-0.2,0.36-0.3,0.54c-0.08,0.15-0.17,0.3-0.25,0.45   c-0.09,0.19-0.17,0.38-0.25,0.57c-0.07,0.16-0.14,0.31-0.2,0.47c-0.08,0.2-0.14,0.41-0.21,0.61c-0.05,0.16-0.11,0.31-0.15,0.46   c-0.06,0.22-0.11,0.44-0.16,0.66c-0.03,0.15-0.07,0.3-0.1,0.45c-0.05,0.25-0.08,0.5-0.11,0.76c-0.02,0.13-0.04,0.25-0.05,0.38   c-0.03,0.38-0.05,0.77-0.05,1.15c0,0.24,0.01,0.48,0.02,0.72C19.45,41.69,19.38,41.65,19.31,41.61z M29.28,52.57   c-0.08,0.15-0.2,0.29-0.37,0.4c-0.16,0.11-0.36,0.17-0.57,0.17h-4.16c-0.6,0-1.08-0.48-1.08-1.08c0-0.59,0.48-1.07,1.08-1.07h0.47   h3.69c0.21,0,0.41,0.06,0.59,0.18c0.31,0.2,0.49,0.53,0.49,0.89C29.42,52.22,29.38,52.39,29.28,52.57z M40.85,52.05   c0,0.6-0.48,1.08-1.07,1.08h-4.17c-0.19,0-0.37-0.05-0.55-0.17c-0.16-0.09-0.29-0.23-0.39-0.42c-0.08-0.15-0.13-0.32-0.13-0.5   c0-0.36,0.2-0.71,0.52-0.9c0.01-0.01,0.03-0.02,0.04-0.03c0.05-0.03,0.11-0.05,0.16-0.07c0.03-0.01,0.05-0.02,0.08-0.03   c0.09-0.02,0.18-0.04,0.27-0.04h3.76h0.41C40.36,50.98,40.85,51.47,40.85,52.05z M39.2,49.98h-3.59c-0.15,0-0.3,0.02-0.44,0.05   c-0.16-0.51-0.44-0.98-0.83-1.37c-0.62-0.62-1.46-0.97-2.34-0.97c-1.47,0-2.75,0.99-3.17,2.35c-0.16-0.04-0.32-0.06-0.49-0.06   h-3.52c-1.07-0.85-1.96-1.87-2.67-3.04h19.69C41.15,48.1,40.25,49.13,39.2,49.98z M44.69,45.09c0,0.46-0.39,0.85-0.85,0.85h-1.15   H21.3h-1.21c-0.46,0-0.84-0.38-0.84-0.85c0-0.46,0.38-0.84,0.84-0.84h0.22H31.7c0.03,0.01,0.06,0.02,0.1,0.04   c0.11,0.05,0.23,0.09,0.34,0.14c0.17,0.07,0.34,0.13,0.51,0.18c0.06,0.02,0.12,0.04,0.18,0.05c0.23,0.07,0.46,0.12,0.68,0.16   c0.04,0.01,0.07,0.01,0.11,0.02c0.33,0.05,0.64,0.07,0.94,0.06c0.13,0,0.26-0.01,0.38-0.03c0.06-0.01,0.12-0.02,0.18-0.03   c0.08-0.02,0.17-0.03,0.25-0.05c0.02-0.01,0.04-0.02,0.07-0.03c0.19-0.05,0.37-0.12,0.53-0.21c0.07-0.04,0.14-0.08,0.21-0.12   c0.1-0.06,0.2-0.11,0.29-0.19h7.38C44.31,44.25,44.69,44.63,44.69,45.09z M47.06,39.5c-0.2,0.84-0.71,1.55-1.44,1.99l-0.92,0.56   c-0.08,0.05-0.17,0.1-0.25,0.14c0.04-0.39,0.06-0.78,0.06-1.2c0-3.09-1.12-6.03-3.17-8.33c0.04-0.15,0.08-0.29,0.12-0.43   c0.12-0.45,0.22-0.91,0.29-1.36c0.02-0.14,0.04-0.27,0.06-0.41c0.02-0.17,0.06-0.34,0.07-0.51c0.44,0.26,0.8,0.62,1.08,1.06   l3.72,6.05C47.12,37.8,47.26,38.66,47.06,39.5z"/>

<g>

<g>

<g>

<path d="M51.4,13.05c-0.28,0-0.5-0.22-0.5-0.5v-1.39c0-0.28,0.22-0.5,0.5-0.5s0.5,0.22,0.5,0.5v1.39      C51.9,12.82,51.67,13.05,51.4,13.05z"/>

</g>

</g>

<g>

<g>

<path d="M54.54,14.8h-1.39c-0.28,0-0.5-0.22-0.5-0.5s0.22-0.5,0.5-0.5h1.39c0.28,0,0.5,0.22,0.5,0.5S54.82,14.8,54.54,14.8z"/>

</g>

</g>

<g>

<g>

<path d="M51.4,17.94c-0.28,0-0.5-0.22-0.5-0.5v-1.39c0-0.28,0.22-0.5,0.5-0.5s0.5,0.22,0.5,0.5v1.39      C51.9,17.72,51.67,17.94,51.4,17.94z"/>

</g>

</g>

<g>

<g>

<path d="M49.65,14.8h-1.39c-0.28,0-0.5-0.22-0.5-0.5s0.22-0.5,0.5-0.5h1.39c0.28,0,0.5,0.22,0.5,0.5S49.92,14.8,49.65,14.8z"/>

</g>

</g>

<g>

<g>

<path d="M51.4,13.05c-0.28,0-0.5-0.22-0.5-0.5v-1.39c0-0.28,0.22-0.5,0.5-0.5s0.5,0.22,0.5,0.5v1.39      C51.9,12.82,51.67,13.05,51.4,13.05z"/>

</g>

</g>

</g>

<g>

<g>

<g>

<path d="M12.64,25.57c-0.28,0-0.5-0.22-0.5-0.5v-1c0-0.28,0.22-0.5,0.5-0.5s0.5,0.22,0.5,0.5v1      C13.14,25.35,12.92,25.57,12.64,25.57z"/>

</g>

</g>

<g>

<g>

<path d="M14.9,26.83h-1c-0.28,0-0.5-0.22-0.5-0.5s0.22-0.5,0.5-0.5h1c0.28,0,0.5,0.22,0.5,0.5S15.18,26.83,14.9,26.83z"/>

</g>

</g>

<g>

<g>

<path d="M12.64,29.09c-0.28,0-0.5-0.22-0.5-0.5v-1c0-0.28,0.22-0.5,0.5-0.5s0.5,0.22,0.5,0.5v1      C13.14,28.87,12.92,29.09,12.64,29.09z"/>

</g>

</g>

<g>

<g>

<path d="M11.38,26.83h-1c-0.28,0-0.5-0.22-0.5-0.5s0.22-0.5,0.5-0.5h1c0.28,0,0.5,0.22,0.5,0.5S11.66,26.83,11.38,26.83z"/>

</g>

</g>

<g>

<g>

<path d="M12.64,25.57c-0.28,0-0.5-0.22-0.5-0.5v-1c0-0.28,0.22-0.5,0.5-0.5s0.5,0.22,0.5,0.5v1      C13.14,25.35,12.92,25.57,12.64,25.57z"/>

</g>

</g>

</g>

</g>

</svg>