<?xml version="1.0" ?>


<svg fill="#000000" width="800px" height="800px" viewBox="0 0 64 64" version="1.0" xml:space="preserve" xmlns="http://www.w3.org/2000/svg" xmlns:xlink="http://www.w3.org/1999/xlink">

<g id="tree"/>

<g id="Layer_3">

<path d="M52.14,35.56h-3.03l1.29-1.21c0.2-0.19,0.21-0.51,0.02-0.71c-0.19-0.2-0.51-0.21-0.71-0.02l-2.06,1.94h-2.47l0,0v-2.43   l1.95-2.11c0.19-0.2,0.17-0.52-0.03-0.71c-0.2-0.19-0.52-0.17-0.71,0.03l-1.21,1.31V28.6c0-0.28-0.22-0.5-0.5-0.5   s-0.5,0.22-0.5,0.5v3.03l-1.21-1.29c-0.19-0.2-0.51-0.21-0.71-0.02c-0.2,0.19-0.21,0.51-0.02,0.71l1.94,2.06v2.47l0,0h-2.43   l-2.11-1.95c-0.2-0.19-0.52-0.17-0.71,0.03c-0.19,0.2-0.17,0.52,0.03,0.71l1.31,1.21h-3.05c-0.28,0-0.5,0.22-0.5,0.5   s0.22,0.5,0.5,0.5h3.03l-1.29,1.21c-0.2,0.19-0.21,0.51-0.02,0.71c0.19,0.2,0.51,0.21,0.71,0.02l2.06-1.94h2.47l0,0v2.43   l-1.95,2.11c-0.19,0.2-0.17,0.52,0.03,0.71c0.2,0.19,0.52,0.17,0.71-0.03l1.21-1.31v3.05c0,0.28,0.22,0.5,0.5,0.5s0.5-0.22,0.5-0.5   v-3.03l1.21,1.29c0.19,0.2,0.51,0.21,0.71,0.02c0.2-0.19,0.21-0.51,0.02-0.71l-1.94-2.06v-2.47l0,0h2.43l2.11,1.95   c0.2,0.19,0.52,0.17,0.71-0.03c0.19-0.2,0.17-0.52-0.03-0.71l-1.31-1.21h3.05c0.28,0,0.5-0.22,0.5-0.5S52.42,35.56,52.14,35.56z    M44.68,36.06L44.68,36.06L44.68,36.06L44.68,36.06L44.68,36.06z"/>

<path d="M14.4,32.64c0.17,0.01,0.3-0.11,0.34-0.27c0.25-0.93,1.01-1.57,1.82-1.59c0.61-0.02,1.25,0.32,1.58,0.84   c0.28,0.44,0.28,0.88,0.28,1.09c0,0.58-0.22,1.02-0.33,1.21c-1.01,1.71-2.08,2.8-2.86,3.47c-1.08,0.93-2.09,1.48-2.79,2.83   c-0.31,0.6-0.46,1.17-0.54,1.63c-0.04,0.21,0.13,0.4,0.34,0.4h8.59c0.19,0,0.34-0.15,0.34-0.34V40.4c0-0.19-0.16-0.35-0.35-0.34   c-1.36,0.03-2.72,0.06-4.08,0.09c-0.31,0.01-0.47-0.36-0.25-0.58c0.53-0.53,1.17-1.22,1.86-2.04c1.65-1.95,2.47-2.96,2.64-4.31   c0.02-0.15,0.28-2.54-1.22-3.77c-0.52-0.43-1.11-0.59-1.47-0.69c-1.16-0.32-2.17-0.14-2.69,0c0,0-2.83,0.24-3.26,3.41   c-0.03,0.2,0.13,0.38,0.33,0.39L14.4,32.64z"/>

<path d="M30.89,28.65h-6.21c-0.24,0-0.45,0.17-0.5,0.41l-1.14,5.92c-0.06,0.31,0.18,0.61,0.5,0.61l1.65,0   c0.14,0,0.27-0.06,0.37-0.16c0.25-0.28,0.84-0.81,1.7-0.78c0.81,0.03,1.32,0.54,1.42,0.65c0.58,0.61,0.58,1.39,0.59,1.95   c0,0.45,0,1.03-0.38,1.61c-0.11,0.16-0.66,1.01-1.58,1.02c-0.67,0.01-1.33-0.43-1.68-1.12c-0.15-0.1-0.31-0.21-0.46-0.31   l-1.61-0.03c-0.34-0.01-0.59,0.31-0.5,0.63c0.09,0.33,0.23,0.71,0.46,1.09c0.77,1.3,2.02,1.78,2.44,1.93   c0.02,0.01,0.04,0.01,0.06,0.02c0.35,0.08,0.79,0.15,1.31,0.16c0.5,0.01,0.93-0.05,1.28-0.11c0.03-0.01,0.06-0.01,0.09-0.03   c0.36-0.14,0.87-0.37,1.39-0.79c1.16-0.94,1.55-2.13,1.67-2.52c0.15-0.49,0.66-2.32-0.32-4.11c-0.33-0.6-0.73-1.02-1.02-1.28   c-0.01-0.01-0.02-0.02-0.03-0.03c-0.26-0.2-1.28-0.94-2.64-0.77c-0.69,0.08-1.2,0.37-1.49,0.57l0.26-1.78   c0.04-0.25,0.25-0.44,0.5-0.44h3.69c0.25,0,0.46-0.18,0.5-0.43l0.21-1.28C31.44,28.93,31.21,28.65,30.89,28.65z"/>

<path d="M54.85,11.28h-9.69V8.81c0-0.76-0.62-1.38-1.38-1.38h-2.38c-0.76,0-1.38,0.62-1.38,1.38v2.47h-5.48V8.83   c0-0.76-0.62-1.38-1.38-1.38h-2.38c-0.76,0-1.38,0.62-1.38,1.38v2.45h-5.92V8.83c0-0.76-0.62-1.38-1.38-1.38h-2.38   c-0.76,0-1.38,0.62-1.38,1.38v2.45H9.15c-1.21,0-2.19,0.98-2.19,2.19v37.07c0,1.21,0.98,2.19,2.19,2.19h45.71   c1.21,0,2.19-0.98,2.19-2.19V13.47C57.04,12.26,56.06,11.28,54.85,11.28z M41.04,8.81c0-0.21,0.17-0.38,0.38-0.38h2.38   c0.21,0,0.38,0.17,0.38,0.38v6.33c0,0.21-0.17,0.38-0.38,0.38h-2.38c-0.21,0-0.38-0.17-0.38-0.38V8.81z M30.44,8.83   c0-0.21,0.17-0.38,0.38-0.38h2.38c0.21,0,0.38,0.17,0.38,0.38v6.33c0,0.21-0.17,0.38-0.38,0.38h-2.38c-0.21,0-0.38-0.17-0.38-0.38   V8.83z M19.39,8.83c0-0.21,0.17-0.38,0.38-0.38h2.38c0.21,0,0.38,0.17,0.38,0.38v6.33c0,0.21-0.17,0.38-0.38,0.38h-2.38   c-0.21,0-0.38-0.17-0.38-0.38V8.83z M9.15,12.28h9.25v2.89c0,0.76,0.62,1.38,1.38,1.38h2.38c0.76,0,1.38-0.62,1.38-1.38v-2.89h5.92   v2.89c0,0.76,0.62,1.38,1.38,1.38h2.38c0.76,0,1.38-0.62,1.38-1.38v-2.89h5.48v2.86c0,0.76,0.62,1.38,1.38,1.38h2.38   c0.76,0,1.38-0.62,1.38-1.38v-2.86h9.69c0.66,0,1.19,0.53,1.19,1.19v7.12H7.96v-7.12C7.96,12.81,8.49,12.28,9.15,12.28z    M54.85,51.72H9.15c-0.66,0-1.19-0.53-1.19-1.19V21.58h48.08v28.95C56.04,51.19,55.51,51.72,54.85,51.72z"/>

</g>

<g id="Layer_4"/>

<g id="Layer_5"/>

<g id="Layer_6"/>

<g id="Layer_7"/>

<g id="Layer_8"/>

<g id="Layer_9"/>

<g id="Layer_11"/>

<g id="Layer_12"/>

<g id="Layer_13"/>

<g id="Layer_14"/>

<g id="Layer_15"/>

<g id="Layer_16"/>

<g id="Layer_17"/>

<g id="Layer_18"/>

<g id="Layer_19"/>

<g id="Layer_20"/>

<g id="Layer_21"/>

<g id="Layer_22"/>

<g id="Layer_23"/>

<g id="Layer_24"/>

<g id="Layer_25"/>

</svg>