<?xml version="1.0" ?>


<svg fill="#000000" width="800px" height="800px" viewBox="0 0 64 64" version="1.0" xml:space="preserve" xmlns="http://www.w3.org/2000/svg" xmlns:xlink="http://www.w3.org/1999/xlink">

<g id="tree"/>

<g id="Layer_3"/>

<g id="Layer_4"/>

<g id="Layer_5"/>

<g id="Layer_6"/>

<g id="Layer_7"/>

<g id="Layer_8"/>

<g id="Layer_9"/>

<g id="Layer_11"/>

<g id="Layer_12"/>

<g id="Layer_13"/>

<g id="Layer_14"/>

<g id="Layer_15"/>

<g id="Layer_16"/>

<g id="Layer_17">

<path d="M56.02,46.84c-0.07-0.01-0.14-0.01-0.19-0.01c-0.96,0.03-1.71,0.8-1.71,1.75c0,0.96,0.79,1.75,1.75,1.75   c0.34,0,0.62,0.28,0.62,0.63c0,0.34-0.28,0.62-0.62,0.62h-6.45L47.36,48h3.86c1.17,0,2.16-0.83,2.36-1.98L55.7,34c0,0,0,0,0,0   c0.11-0.61-0.06-1.23-0.46-1.71c-0.4-0.48-0.98-0.75-1.61-0.75c-1.96,0-3.81,0.76-5.22,2.13c-1.4,1.37-2.19,3.21-2.23,5.2   c0,0.16-0.15,0.3-0.32,0.3h-1.7c0.02-0.2,0.03-0.41,0.03-0.62c0-3.03-1.89-5.64-4.71-6.64c0.02-0.47,0.09-0.95,0.19-1.43   c0.21-1.01,0.59-1.97,1.13-2.85c0.08-0.14,0.09-0.3,0.04-0.45c-0.06-0.15-0.19-0.26-0.34-0.29c-1.5-0.38-2.42-0.28-2.89,0.31   c-0.24,0.3-0.27,0.62-0.29,0.86c-0.02,0.22-0.04,0.28-0.09,0.33c-0.06,0.05-0.18,0.1-0.35,0.09c-0.16-0.01-0.28-0.06-0.32-0.11   c-0.03-0.04-0.04-0.1-0.04-0.28c0-0.23,0-0.55-0.21-0.87c-0.38-0.56-1.18-0.77-2.45-0.63c-0.16,0.02-0.3,0.11-0.38,0.25   c-0.08,0.14-0.09,0.31-0.02,0.45c0.42,0.94,0.69,1.88,0.86,2.84c-1.14-2.05-3.02-3.64-5.27-4.42c0.02-0.09,0.04-0.17,0.04-0.26   c0-0.33-0.11-0.64-0.31-0.92c0.02-0.65,0.1-1.31,0.25-1.96c0.27-1.26,0.75-2.46,1.42-3.56c0.08-0.14,0.1-0.3,0.04-0.45   c-0.06-0.15-0.19-0.26-0.34-0.29c-1.79-0.45-2.89-0.34-3.45,0.35c-0.27,0.34-0.3,0.7-0.33,0.99c-0.03,0.28-0.05,0.39-0.15,0.49   c-0.22,0.2-0.81,0.19-1-0.03c-0.07-0.07-0.07-0.17-0.07-0.42c0-0.27,0-0.64-0.23-1c-0.42-0.67-1.38-0.91-2.92-0.73   c-0.16,0.02-0.3,0.11-0.38,0.25c-0.08,0.14-0.09,0.31-0.02,0.45c0.53,1.19,0.91,2.43,1.11,3.69c0.13,0.83,0.2,1.66,0.2,2.47   c-0.11,0.2-0.16,0.43-0.16,0.67c0,0.08,0.02,0.16,0.04,0.24c-1.19,0.41-2.29,1.05-3.24,1.9c-2.97-2.14-6.46-3.28-10.14-3.28   l-0.61,0.01c-0.15,0-0.29,0.07-0.38,0.18c-0.1,0.11-0.14,0.26-0.11,0.41l3.54,20.04c0.31,1.76,1.83,3.03,3.61,3.03h3.12l-2.07,3.58   h-5.51c-0.94,0-1.7,0.76-1.7,1.72c0,0.94,0.76,1.7,1.7,1.7h44.83c0.14,0,0.27,0,0.36-0.02c2.08-0.17,3.72-1.95,3.72-4.06   C59.87,48.74,58.18,46.96,56.02,46.84z M48.27,51.58h-1.64L44.56,48h1.65L48.27,51.58z M43.4,48l2.07,3.58H20.43L22.5,48H43.4z    M43.19,38.55c0,0.22-0.01,0.42-0.03,0.62H31.14c-0.02-0.2-0.05-0.4-0.05-0.62c0-0.3,0.02-0.6,0.07-0.89   c0.01-0.1,0.04-0.2,0.06-0.29c0.04-0.19,0.07-0.38,0.13-0.56c0.03-0.12,0.08-0.23,0.12-0.34c0.06-0.16,0.11-0.31,0.18-0.46   c0.06-0.12,0.12-0.23,0.18-0.35c0.07-0.13,0.15-0.27,0.23-0.4c0.08-0.12,0.16-0.23,0.24-0.34c0.09-0.11,0.17-0.23,0.27-0.34   c0.1-0.11,0.2-0.21,0.3-0.32c0.1-0.1,0.2-0.19,0.3-0.28c0.11-0.1,0.23-0.19,0.35-0.28c0.11-0.08,0.23-0.16,0.35-0.24   c0.12-0.08,0.25-0.15,0.38-0.22c0.06-0.03,0.12-0.06,0.17-0.08c0.01,0.03,0.03,0.06,0.04,0.09c0.03,0.08,0.06,0.16,0.11,0.23   c0.02,0.04,0.05,0.07,0.08,0.11c0.04,0.06,0.09,0.12,0.14,0.18c0.03,0.04,0.07,0.07,0.11,0.11c0.06,0.05,0.12,0.1,0.18,0.15   c0.05,0.03,0.09,0.06,0.14,0.09c0.07,0.04,0.14,0.08,0.22,0.12c0.05,0.03,0.11,0.05,0.16,0.08c0.08,0.04,0.17,0.07,0.26,0.09   c0.06,0.02,0.11,0.04,0.17,0.05c0.1,0.03,0.21,0.05,0.32,0.07c0.05,0.01,0.1,0.02,0.16,0.03c0.17,0.02,0.34,0.03,0.52,0.03   c0.18,0,0.36-0.01,0.53-0.03c0.06-0.01,0.11-0.02,0.16-0.03c0.11-0.02,0.22-0.04,0.32-0.07c0.06-0.02,0.12-0.04,0.18-0.06   c0.08-0.03,0.16-0.05,0.23-0.08c0.38,0.3,0.97,0.85,1.09,1.35c0.06,0.23,0.26,0.38,0.49,0.38c0.04,0,0.08,0,0.12-0.01   c0.27-0.07,0.43-0.34,0.37-0.6c-0.17-0.69-0.76-1.31-1.2-1.7c0.05-0.05,0.09-0.11,0.13-0.16c0.03-0.04,0.06-0.09,0.08-0.13   c0.03-0.06,0.06-0.12,0.09-0.19c0.02-0.05,0.04-0.09,0.05-0.14c0.01-0.02,0.02-0.04,0.02-0.06C41.82,34.04,43.19,36.15,43.19,38.55   z M35.46,27.78c0.04,0.06,0.04,0.16,0.04,0.31c0,0.25,0,0.62,0.3,0.95c0.24,0.26,0.61,0.42,1.01,0.43   c0.42,0.02,0.81-0.11,1.07-0.35c0.35-0.32,0.39-0.71,0.42-0.98c0.02-0.17,0.03-0.27,0.08-0.33c0.04-0.05,0.27-0.26,1.22-0.1   c-0.42,0.81-0.72,1.66-0.91,2.55c-0.14,0.64-0.22,1.28-0.23,1.91c0,0.11,0.08,0.28,0.14,0.37c0.01,0.01,0.02,0.03,0.03,0.04   c0.06,0.07,0.09,0.15,0.09,0.22c0,0.32-0.65,0.79-1.68,0.79c-0.87,0-1.46-0.34-1.62-0.64c0.39,0.07,0.75,0.12,1.03,0.12   c0.4,0,0.69-0.07,0.86-0.22c0.21-0.18,0.26-0.51,0.08-0.72c-0.18-0.21-0.47-0.25-0.67-0.07c-0.15,0.05-0.68,0-1.23-0.11   c-0.02-0.63-0.06-1.24-0.16-1.84c-0.14-0.87-0.37-1.72-0.69-2.56C35.13,27.57,35.39,27.67,35.46,27.78z M22.75,18.89   c0.96-0.03,1.23,0.23,1.29,0.33c0.07,0.1,0.07,0.23,0.07,0.45c0,0.31,0,0.72,0.33,1.1c0.57,0.61,1.79,0.66,2.41,0.09   c0.4-0.36,0.45-0.81,0.48-1.13c0.02-0.23,0.04-0.37,0.12-0.47c0.11-0.13,0.49-0.38,1.78-0.15c-0.55,1.03-0.95,2.13-1.2,3.27   c-0.17,0.78-0.26,1.56-0.27,2.34c0,0.13,0.04,0.25,0.13,0.34c0.08,0.09,0.18,0.24,0.18,0.41c0,0.1-0.03,0.2-0.09,0.29   c-0.24,0.38-1,0.8-2.09,0.8c-1.1,0-1.84-0.41-2.09-0.81l0-0.01c-0.05-0.07-0.07-0.15-0.07-0.23c0.53,0.09,1.3,0.21,1.88,0.21   c0.22,0,0.41-0.02,0.55-0.06c0.26-0.08,0.42-0.35,0.34-0.62c-0.08-0.26-0.35-0.42-0.62-0.34c-0.23,0.07-1.16-0.03-2.01-0.19   c-0.01-0.78-0.07-1.57-0.19-2.35C23.48,21.06,23.17,19.96,22.75,18.89z M23.2,26.6c0.01,0.01,0.03,0.02,0.04,0.03   c0.12,0.13,0.27,0.24,0.43,0.34c0.02,0.01,0.03,0.02,0.05,0.03c0.17,0.1,0.36,0.19,0.56,0.27c0.04,0.01,0.07,0.03,0.11,0.04   c0.2,0.07,0.42,0.13,0.65,0.17c0.04,0.01,0.08,0.01,0.11,0.02c0.24,0.04,0.49,0.06,0.74,0.06c0.25,0,0.5-0.02,0.74-0.06   c0.04-0.01,0.08-0.01,0.11-0.02c0.23-0.04,0.44-0.1,0.64-0.17c0.04-0.01,0.07-0.03,0.11-0.04c0.01,0,0.02-0.01,0.02-0.01   c0.45,0.38,1.62,1.36,2.05,2.12c0.09,0.16,0.26,0.25,0.44,0.25c0.08,0,0.17-0.02,0.25-0.06c0.24-0.14,0.33-0.44,0.19-0.68   c-0.44-0.78-1.4-1.65-2-2.16c0.04-0.03,0.08-0.07,0.11-0.1c0.01-0.01,0.02-0.02,0.03-0.02c2.63,0.86,4.7,2.96,5.53,5.58   c-0.1,0.05-0.19,0.11-0.29,0.16c-0.14,0.08-0.28,0.15-0.42,0.23c-0.16,0.1-0.31,0.21-0.46,0.32c-0.13,0.09-0.25,0.18-0.37,0.28   c-0.14,0.12-0.28,0.25-0.41,0.38c-0.11,0.11-0.22,0.21-0.32,0.32c-0.13,0.14-0.24,0.29-0.35,0.44c-0.09,0.12-0.18,0.23-0.26,0.35   c-0.11,0.16-0.2,0.33-0.29,0.51c-0.07,0.12-0.14,0.24-0.2,0.37c-0.09,0.19-0.15,0.38-0.22,0.57c-0.05,0.12-0.1,0.25-0.14,0.37   c-0.07,0.22-0.11,0.44-0.15,0.67c-0.02,0.11-0.06,0.22-0.07,0.33c-0.05,0.34-0.08,0.69-0.08,1.04c0,0.21,0.01,0.42,0.03,0.62h-2.09   c-0.8,0-1.49-0.56-1.67-1.36c-0.51-2.19-1.42-4.23-2.72-6.05c-0.25-0.35-0.51-0.7-0.78-1.03c-0.09-0.12-0.2-0.22-0.29-0.34   c-0.18-0.21-0.37-0.43-0.56-0.63c-0.12-0.12-0.24-0.24-0.37-0.36c-0.19-0.18-0.37-0.37-0.57-0.54c-0.13-0.12-0.27-0.24-0.41-0.35   c-0.11-0.09-0.22-0.19-0.33-0.28C21.17,27.49,22.15,26.94,23.2,26.6z M12.79,44.79L9.35,25.33l0.02,0c3.59,0,7.01,1.14,9.87,3.31   c1.38,1.03,2.58,2.27,3.57,3.69c1.22,1.72,2.08,3.64,2.56,5.7c0.28,1.26,1.37,2.14,2.65,2.14h2.66h0.61h12.3h2.27   c0.73,0,1.32-0.58,1.32-1.29c0.04-1.71,0.72-3.3,1.93-4.49c1.22-1.19,2.83-1.85,4.53-1.85c0.32,0,0.63,0.14,0.84,0.39   c0.21,0.25,0.3,0.57,0.24,0.89L52.6,45.84C52.48,46.51,51.9,47,51.22,47h-4.73h-2.8H22.21h-2.8h-3.99   C14.13,47,13.02,46.07,12.79,44.79z M19.7,48h1.64l-2.07,3.58h-1.65L19.7,48z M56.02,53.99C55.94,54,55.87,54,55.79,54H10.96   c-0.39,0-0.7-0.31-0.7-0.72c0-0.39,0.31-0.7,0.7-0.7h5.8h2.8h26.78h2.8h6.74c0.89,0,1.62-0.73,1.62-1.62c0-0.9-0.73-1.63-1.62-1.63   c-0.42,0-0.75-0.33-0.75-0.75c0-0.41,0.3-0.72,0.73-0.75c0.02,0,0.05,0.01,0.07,0.01c1.65,0.07,2.94,1.42,2.94,3.08   C58.87,52.51,57.64,53.85,56.02,53.99z"/>

<g>

<g>

<path d="M16,32.78c-0.28,0-0.5-0.22-0.5-0.5V30.8c0-0.28,0.22-0.5,0.5-0.5s0.5,0.22,0.5,0.5v1.48     C16.5,32.56,16.28,32.78,16,32.78z"/>

</g>

<g>

<path d="M16.42,33.2c0-0.28,0.22-0.5,0.5-0.5h1.48c0.28,0,0.5,0.22,0.5,0.5s-0.22,0.5-0.5,0.5h-1.48     C16.64,33.7,16.42,33.48,16.42,33.2z"/>

</g>

<g>

<path d="M16,33.62c0.28,0,0.5,0.22,0.5,0.5v1.48c0,0.28-0.22,0.5-0.5,0.5s-0.5-0.22-0.5-0.5v-1.48     C15.5,33.84,15.72,33.62,16,33.62z"/>

</g>

<g>

<path d="M15.58,33.2c0,0.28-0.22,0.5-0.5,0.5H13.6c-0.28,0-0.5-0.22-0.5-0.5s0.22-0.5,0.5-0.5h1.48     C15.36,32.7,15.58,32.92,15.58,33.2z"/>

</g>

<g>

<path d="M16,32.78c-0.28,0-0.5-0.22-0.5-0.5V30.8c0-0.28,0.22-0.5,0.5-0.5s0.5,0.22,0.5,0.5v1.48     C16.5,32.56,16.28,32.78,16,32.78z"/>

</g>

</g>

<path d="M33.9,45.54H18.96c-0.28,0-0.5-0.22-0.5-0.5s0.22-0.5,0.5-0.5H33.9c0.28,0,0.5,0.22,0.5,0.5S34.18,45.54,33.9,45.54z"/>

</g>

<g id="Layer_18"/>

<g id="Layer_19"/>

<g id="Layer_20"/>

<g id="Layer_21"/>

<g id="Layer_22"/>

<g id="Layer_23"/>

<g id="Layer_24"/>

<g id="Layer_25"/>

</svg>