<?xml version="1.0" ?><!DOCTYPE svg  PUBLIC '-//W3C//DTD SVG 1.1//EN'  'http://www.w3.org/Graphics/SVG/1.1/DTD/svg11.dtd'>
<svg fill="#000000" width="800px" height="800px" viewBox="0 0 16 16" style="fill-rule:evenodd;clip-rule:evenodd;stroke-linejoin:round;stroke-miterlimit:1.41421;" version="1.1" xml:space="preserve" xmlns="http://www.w3.org/2000/svg" xmlns:serif="http://www.serif.com/" xmlns:xlink="http://www.w3.org/1999/xlink"><rect height="15.36" id="_3" style="fill:none;" width="15.36" x="0" y="0"/><path d="M4.847,10.105c-0.071,0 -0.14,0.03 -0.188,0.083c-0.049,0.052 -0.073,0.122 -0.068,0.193c0.046,0.611 0.163,2.086 0.264,2.894c0,0.001 0,0.001 0,0.002c0.03,0.193 0.199,0.347 0.393,0.359c0.001,0 0.001,0 0.002,0c1.633,0.059 3.27,0.059 4.904,0c0,0 0.001,0 0.001,0c0.202,-0.013 0.375,-0.179 0.396,-0.382c0,0 0,0 0,0c0,-0.003 0.188,-2.099 0.257,-2.869c0.006,-0.072 -0.018,-0.143 -0.066,-0.196c-0.049,-0.053 -0.118,-0.084 -0.19,-0.084c-1.04,0 -4.672,0 -5.705,0Zm6.672,-4.49c0.009,-0.096 -0.023,-0.192 -0.087,-0.263c-0.065,-0.071 -0.157,-0.112 -0.254,-0.112c-1.307,0 -5.645,0 -6.953,0c-0.096,0 -0.188,0.041 -0.253,0.112c-0.065,0.071 -0.097,0.167 -0.087,0.263c0.082,0.859 0.282,2.959 0.357,3.751c0.017,0.176 0.165,0.31 0.341,0.31c1.142,0 5.096,0 6.238,0c0.176,0 0.323,-0.134 0.34,-0.31c0.076,-0.792 0.276,-2.892 0.358,-3.751Zm-3.263,0.471c0.168,0.064 0.351,0.228 0.391,0.272c0.388,0.431 0.478,1.201 0.038,1.839c-0.329,0.477 -0.94,0.829 -1.523,0.648c-0.74,-0.23 -0.983,-1.31 -0.464,-2.095c0.264,-0.4 0.701,-0.705 1.19,-0.726c0.002,0 0.004,0 0.006,0c0.032,-0.001 0.032,-0.001 0.064,0c0,0 0.001,0 0.002,0c0.105,0.005 0.204,0.026 0.296,0.062Zm0.213,0.708c-0.013,-0.023 -0.037,-0.036 -0.063,-0.036c-0.025,0 -0.049,0.014 -0.062,0.037c-0.288,0.514 -0.592,1.018 -0.891,1.527c-0.013,0.023 -0.013,0.051 0,0.074c0.014,0.023 0.039,0.037 0.066,0.036c0.46,-0.054 0.991,-0.521 1.048,-1.108c0.018,-0.186 -0.015,-0.376 -0.098,-0.53Zm-0.5,-0.231c0.013,-0.022 0.013,-0.051 0,-0.074c-0.013,-0.022 -0.038,-0.036 -0.064,-0.036c0,0 0,0 0,0c-0.001,0 -0.002,0 -0.003,0c-0.738,0.031 -1.306,1.006 -0.994,1.639c0,0 0,0 0,0c0.015,0.032 0.047,0.052 0.082,0.053c0.035,0 0.068,-0.018 0.085,-0.049c0.288,-0.516 0.594,-1.022 0.894,-1.533Zm-3.893,-1.986c0.012,0.132 0.123,0.233 0.255,0.233c1.09,0 5.652,0 6.741,0c0.133,0 0.244,-0.101 0.256,-0.233c0.034,-0.38 0.101,-1.129 0.136,-1.521c0.005,-0.065 -0.016,-0.13 -0.06,-0.178c-0.044,-0.048 -0.107,-0.075 -0.172,-0.075c-1.155,0 -5.905,0 -7.061,0c-0.065,0 -0.127,0.027 -0.171,0.075c-0.044,0.048 -0.066,0.113 -0.06,0.178c0.035,0.392 0.102,1.141 0.136,1.521Zm-0.048,-2.206c0,0 6.375,0 7.469,-0.001c0.041,0 0.079,-0.021 0.1,-0.057c0.021,-0.036 0.022,-0.079 0.002,-0.116c-0.067,-0.168 -0.158,-0.416 -0.189,-0.483c-0.017,-0.004 -0.034,-0.006 -0.052,-0.006c-2.449,-0.056 -4.9,-0.011 -7.351,-0.011c0,0 0,0 0,0c-0.087,0.002 -0.139,0.251 -0.248,0.495c-0.063,0.14 0.138,0.176 0.237,0.178c0.01,0 0.032,0.001 0.032,0.001Z"/></svg>