<?xml version="1.0" encoding="utf-8"?>

<svg width="800px" height="800px" viewBox="0 0 1024 1024" class="icon"  version="1.1" xmlns="http://www.w3.org/2000/svg"><path d="M419.3 518.2V266.8c-25.2-19.1-43-47.3-48.7-79.7h-8.9c-3.4 0-6.8 0.2-10.3 0.5-28 2.7-53.2 16.2-71.1 37.9-17.8 21.7-26.2 49.1-23.5 77.1 2.8 29.1 17.8 55.8 41 73.5 0.2 0.1 0.4 0.3 0.5 0.4l0.2 0.2c0.1 0.1 0.2 0.1 0.3 0.2 51.1 38.5 92.1 87.1 120.5 141.3zM293.5 917H481c-20.6-17.9-37.2-40.5-47.9-66.1H293.5c-18.2 0-33 14.8-33 33-0.1 18.3 14.8 33.1 33 33.1z m235.7-574.1v-54.6c-10.5 2.8-21.6 4.4-33 4.4-11.4 0-22.5-1.5-33-4.4v54.6h66z m0 98.9v-55.1h-66.1v55.1h66.1z m0 98.9v-55.1h-66.1v55.1h66.1z m0 98.8v-55.1h-66.1v55.1h66.1z m0 98.9v-55.1h-66.1v55.1h66.1z m9.5 164.8c-6.1-13-9.6-27.4-9.6-42.7v-78.3h-66c0.1 53 30.9 99 75.6 121z m41.1-738v-29.8c0-15.8-12.9-28.7-28.7-28.7H441.2c-15.8 0-28.7 12.9-28.7 28.7v29.8c0 46.1 37.5 83.6 83.6 83.6 46.2 0.1 83.7-37.4 83.7-83.6z m155.6 137.4c2.7-28-5.6-55.4-23.5-77.1-17.9-21.7-43.1-35.2-71.1-37.9-3.4-0.3-6.9-0.5-10.3-0.5h-8.8c-5.7 32.4-23.5 60.6-48.7 79.7v251.3c28.5-54.2 69.4-102.8 120.4-141.3 0.1 0 0.2-0.1 0.2-0.2l0.3-0.2c0.2-0.1 0.4-0.3 0.5-0.4 23.2-17.6 38.1-44.4 41-73.4z m10.4 475.9v-28.3c0-4.8-3.9-8.6-8.6-8.6-4.8 0-8.6 3.9-8.6 8.6v28.3c0 9.8-1.5 19.5-4.4 28.7 0 0 17.6 0.1 19.6 0.3 1.3-9.6 2-19.3 2-29zM770.6 884c0-18.2-14.8-33-33-33H598.1c-8.6 0-16.9-1.6-24.5-4.5-0.2 0-0.5-0.1-0.7-0.2v14.3c0 31.1 25.2 56.4 56.3 56.5h108.4c18.2-0.1 33-14.9 33-33.1z m10.9-63c19.8 13.9 32.8 36.9 32.8 62.9 0 42.4-34.5 76.8-76.8 76.8h-444c-42.4 0-76.8-34.5-76.8-76.8 0-42.4 34.5-76.8 76.8-76.8h127.6c-1.2-8.2-1.8-16.6-1.8-25.1V666.1c-9.9-98.4-63.3-191-146.7-254.2l-0.2-0.1c-0.3-0.2-0.6-0.5-1-0.7l-1.2-0.9c-32.3-25-53.1-62.6-57.1-103.3-3.9-39.6 7.9-78.4 33.2-109.1 25.3-30.7 61-49.8 100.7-53.7 4.9-0.5 21.5-0.7 21.5-0.7v-7.9-0.4c0.2-39.8 32.6-72.2 72.5-72.2h109.9c40 0 72.5 32.5 72.5 72.5v7.9s16.6 0.2 21.5 0.7c39.6 3.9 75.4 22.9 100.7 53.7 25.3 30.7 37.1 69.5 33.2 109.1-4 40.7-24.7 78.3-57.1 103.3-0.4 0.3-0.7 0.6-1.1 0.9-0.3 0.3-0.7 0.5-1 0.7l-0.1 0.1C636.3 475 582.9 567.6 573 666.1V782c0 13.8 11.3 25.1 25.1 25.1h83.2c5.1-8.6 7.9-18.5 7.9-28.7v-28.3c0-26.5 21.5-48.1 48-48.1s48 21.6 48 48.1v28.3c0 14.4-1.2 28.7-3.7 42.6z" fill="#663333" /><path d="M737.6 850.9c18.2 0 33 14.8 33 33s-14.8 33-33 33H629.2c-31.1-0.1-56.3-25.4-56.3-56.5v-14.3c0.2 0.1 0.5 0.2 0.7 0.2 7.6 2.9 15.9 4.5 24.5 4.5h139.5zM745.8 750.1v28.3c0 9.7-0.7 19.4-2 29-2.1-0.2-19.6-0.3-19.6-0.3 2.9-9.2 4.4-18.9 4.4-28.7v-28.3c0-4.8 3.9-8.6 8.6-8.6 4.8 0 8.6 3.9 8.6 8.6z" fill="#9ACE57" /><path d="M711.9 225.5c17.8 21.7 26.2 49.1 23.5 77.1-2.8 29-17.8 55.8-41 73.5-0.2 0.1-0.4 0.3-0.5 0.4l-0.3 0.2c-0.1 0-0.1 0.1-0.2 0.2-51 38.6-91.9 87.2-120.4 141.3V266.8c25.2-19.1 43-47.3 48.7-79.7h8.8c3.4 0 6.9 0.2 10.3 0.5 28 2.8 53.2 16.2 71.1 37.9z" fill="#6A973A" /><path d="M471.6 150.3c0-12.1-9.8-21.9-21.9-21.9-12.1 0-21.9 9.8-21.9 21.9s9.8 21.9 21.9 21.9c12.1 0 21.9-9.8 21.9-21.9z m92.9 0c0-12.1-9.8-21.9-21.9-21.9s-21.9 9.8-21.9 21.9 9.8 21.9 21.9 21.9 21.9-9.8 21.9-21.9z m15.3-14.9v29.8c0 46.1-37.5 83.6-83.6 83.6-46.1 0-83.6-37.5-83.6-83.6v-29.8c0-15.8 12.9-28.7 28.7-28.7h109.9c15.7 0 28.6 12.9 28.6 28.7z" fill="#9ACE57" /><path d="M542.6 128.4c12.1 0 21.9 9.8 21.9 21.9s-9.8 21.9-21.9 21.9-21.9-9.8-21.9-21.9 9.8-21.9 21.9-21.9z" fill="#663333" /><path d="M529.1 860.5c0 15.3 3.5 29.7 9.6 42.7-44.6-22-75.5-67.9-75.5-121h66v78.3zM463.1 683.3h66.1v55.1h-66.1zM463.1 584.5h66.1v55.1h-66.1zM463.1 485.6h66.1v55.1h-66.1zM463.1 386.7h66.1v55.1h-66.1zM529.2 288.3v54.6h-66.1v-54.6c10.5 2.8 21.6 4.4 33 4.4 11.5 0 22.5-1.5 33.1-4.4z" fill="#FFCC66" /><path d="M481 917H293.5c-18.2 0-33-14.8-33-33s14.8-33 33-33h139.7c10.6 25.5 27.2 48.1 47.8 66z" fill="#9ACE57" /><path d="M449.7 128.4c12.1 0 21.9 9.8 21.9 21.9s-9.8 21.9-21.9 21.9c-12.1 0-21.9-9.8-21.9-21.9s9.8-21.9 21.9-21.9z" fill="#663333" /><path d="M419.3 266.8v251.3c-28.5-54.2-69.4-102.8-120.4-141.3-0.1-0.1-0.2-0.1-0.3-0.2l-0.2-0.2c-0.2-0.1-0.4-0.3-0.5-0.4-23.2-17.7-38.2-44.5-41-73.5-2.7-28 5.6-55.3 23.5-77.1 17.9-21.7 43.1-35.2 71.1-37.9 3.5-0.3 6.9-0.5 10.3-0.5h8.9c5.6 32.5 23.4 60.8 48.6 79.8z" fill="#6A973A" /></svg>