<?xml version="1.0" encoding="utf-8"?>

<svg width="800px" height="800px" viewBox="0 0 1024 1024" class="icon"  version="1.1" xmlns="http://www.w3.org/2000/svg"><path d="M951.3 571.7c10.1 5.2 14.1 17.6 8.9 27.8a20.74 20.74 0 0 1-18.4 11.2c-3.2 0-6.4-0.7-9.4-2.3l-139.8-71.9L657 553.6v3.2c7.5 9.3 14.3 19.4 20.2 30.1L834 639.3c8.4 2.8 14.1 10.7 14.1 19.6v184.8c0 11.4-9.2 20.6-20.6 20.6-11.4 0-20.6-9.2-20.6-20.6v-170l-109.3-36.5c5.2 19.1 8 39.4 8 60.4 0 51.8-17.1 101.7-48.1 140.4-36.5 45.6-89 71.7-144 71.7s-107.6-26.1-144-71.7c-31-38.8-48.1-88.6-48.1-140.4 0-20.7 2.7-40.8 7.8-59.8l-107.6 35.9v169.9c0 11.4-9.2 20.6-20.6 20.6-11.4 0-20.6-9.2-20.6-20.6V658.8c0-8.9 5.7-16.7 14.1-19.6l154.8-51.7c6-10.9 13-21.2 20.6-30.8v-3.2L234 536.4 94.2 608.3c-3 1.6-6.2 2.3-9.4 2.3-7.5 0-14.7-4.1-18.4-11.2-5.2-10.1-1.2-22.6 8.9-27.8l145.5-74.9c3.7-1.9 7.9-2.6 12-2.1L369.7 512v-19.2l-94.4-62.1H84.8c-11.4 0-20.6-9.2-20.6-20.6 0-11.4 9.2-20.6 20.6-20.6h196.8c4 0 8 1.2 11.3 3.4l76.9 50.6v-24c0-6.6 0.6-13.1 1.8-19.4l-120-118.8c-3.9-3.9-6.1-9.2-6.1-14.7V135.9c0-11.4 9.2-20.6 20.6-20.6 11.4 0 20.6 9.2 20.6 20.6v122.2l102.1 101c8.5-12.1 19.4-22.4 32-30v-28.2c0-28.9 16-54.2 39.5-67.4V205c0-11.4 9.2-20.6 20.6-20.6 11.4 0 20.6 9.2 20.6 20.6v18.5H525V205c0-11.4 9.2-20.6 20.6-20.6 11.4 0 20.6 9.2 20.6 20.6v28.4c23.6 13.3 39.5 38.5 39.5 67.4V329c12.7 7.7 23.7 18.1 32.2 30.3L740.3 258V135.9c0-11.4 9.2-20.6 20.6-20.6 11.4 0 20.6 9.2 20.6 20.6v130.8c0 5.5-2.2 10.8-6.1 14.7L655.3 400.5c1.1 6.2 1.8 12.6 1.8 19.1v23.8l76.7-50.4c3.4-2.2 7.3-3.4 11.3-3.4h196.8c11.4 0 20.6 9.2 20.6 20.6 0 11.4-9.2 20.6-20.6 20.6H751.2L657 492.7V512l136.7-17.4c4.1-0.5 8.3 0.2 12 2.1l145.6 75z" fill="#663333" /><path d="M664.3 697.6c0 31.4-7.6 61.9-21.7 88.4-29.7-40.6-77.4-65.5-129.1-65.5-51.8 0-99.4 24.9-129.1 65.5-14.2-26.5-21.8-56.9-21.8-88.4 0-94.2 67.7-170.8 150.9-170.8 83.1-0.1 150.8 76.6 150.8 170.8zM615.8 419.5v98.6c-29.7-20.7-64.8-32.7-102.4-32.7-37.6 0-72.7 12-102.4 32.7v-98.6c0-35.6 28.9-64.5 64.5-64.5h75.8c35.5 0.1 64.5 29 64.5 64.5z" fill="#B2ABAC" /><path d="M513.4 761.7c43.1 0 82.5 23.3 103.3 60.3-28.6 28.6-62.5 46.4-103.5 46.4s-74.6-17.9-103.2-46.5c21-36.9 60.3-60.2 103.4-60.2zM564.7 300.8v13.9c-4.4-0.6-98.1-0.6-102.5 0v-13.9c0-19.9 16.2-36.1 36.1-36.1h30.4c19.8 0.1 36 16.3 36 36.1z" fill="#B2ABAC" /><path d="M513.4 559.7c-10.3 0-18.6 8.3-18.6 18.6s8.3 18.6 18.6 18.6c28.1 0 54.6 18.8 69.3 49.1 3.2 6.6 9.8 10.5 16.7 10.5 2.7 0 5.5-0.6 8.1-1.8 9.2-4.5 13.1-15.6 8.6-24.8-20.9-43.3-60.2-70.2-102.7-70.2z" fill="#663333" /></svg>