<?xml version="1.0" encoding="utf-8"?>
<svg version="1.1" xmlns="http://www.w3.org/2000/svg" xmlns:xlink="http://www.w3.org/1999/xlink" 
	 width="800px" height="800px" viewBox="0 0 32 32" xml:space="preserve">
<style type="text/css">
	.avocado_een{fill:#231F20;}
	.avocado_drie{fill:#716558;}
	.avocado_negentien{fill:#E0A838;}
	.avocado_twintig{fill:#EAD13F;}
	.avocado_achttien{fill:#D1712A;}
	.avocado_zeventien{fill:#CC4121;}
	.avocado_tien{fill:#C3CC6A;}
	.st0{fill:#FFFAEE;}
	.st1{fill:#3D3935;}
	.st2{fill:#DBD2C1;}
	.st3{fill:#A3AEB5;}
	.st4{fill:#788287;}
	.st5{fill:#8D3E93;}
	.st6{fill:#248EBC;}
	.st7{fill:#6F9B45;}
	.st8{fill:#AF9480;}
</style>
<g>
	<path class="avocado_drie" d="M0.5,1.5v28h31v-28H0.5z M29.5,27.5h-27v-24h27V27.5z"/>
	<path class="avocado_zeventien" d="M6.5,21.5v2c0,0.551-0.449,1-1,1s-1-0.449-1-1v-2c0-0.551,0.449-1,1-1
		S6.5,20.949,6.5,21.5z M5.5,13.5c-0.551,0-1,0.449-1,1v2c0,0.551,0.449,1,1,1s1-0.449,1-1v-2C6.5,13.949,6.051,13.5,5.5,13.5z
		 M5.5,10.5c0.551,0,1-0.449,1-1v-2c0-0.551-0.449-1-1-1s-1,0.449-1,1v2C4.5,10.051,4.949,10.5,5.5,10.5z"/>
	<g>
		<g>
			<path class="avocado_achttien" d="M8.5,14.5v2c0,0.551-0.449,1-1,1s-1-0.449-1-1v-2c0-0.551,0.449-1,1-1
				S8.5,13.949,8.5,14.5z M20.5,20.5c-0.551,0-1,0.449-1,1v2c0,0.551,0.449,1,1,1s1-0.449,1-1v-2C21.5,20.949,21.051,20.5,20.5,20.5
				z M7.5,10.5c0.551,0,1-0.449,1-1v-2c0-0.551-0.449-1-1-1s-1,0.449-1,1v2C6.5,10.051,6.949,10.5,7.5,10.5z"/>
		</g>
	</g>
	<g>
		<g>
			<path class="avocado_negentien" d="M23.5,21.5v2c0,0.551-0.449,1-1,1s-1-0.449-1-1v-2c0-0.551,0.449-1,1-1
				S23.5,20.949,23.5,21.5z M9.5,10.5c0.551,0,1-0.449,1-1v-2c0-0.551-0.449-1-1-1s-1,0.449-1,1v2C8.5,10.051,8.949,10.5,9.5,10.5z
				 M9.5,13.5c-0.551,0-1,0.449-1,1v2c0,0.551,0.449,1,1,1s1-0.449,1-1v-2C10.5,13.949,10.051,13.5,9.5,13.5z"/>
		</g>
	</g>
	<g>
		<g>
			<path class="avocado_twintig" d="M25.5,21.5v2c0,0.551-0.449,1-1,1s-1-0.449-1-1v-2c0-0.551,0.449-1,1-1
				S25.5,20.949,25.5,21.5z M24.5,10.5c0.551,0,1-0.449,1-1v-2c0-0.551-0.449-1-1-1s-1,0.449-1,1v2
				C23.5,10.051,23.949,10.5,24.5,10.5z M24.5,13.5c-0.551,0-1,0.449-1,1v2c0,0.551,0.449,1,1,1s1-0.449,1-1v-2
				C25.5,13.949,25.051,13.5,24.5,13.5z"/>
		</g>
	</g>
	<path class="avocado_tien" d="M27.5,21.5v2c0,0.551-0.449,1-1,1s-1-0.449-1-1v-2c0-0.551,0.449-1,1-1S27.5,20.949,27.5,21.5z
		 M26.5,10.5c0.551,0,1-0.449,1-1v-2c0-0.551-0.449-1-1-1s-1,0.449-1,1v2C25.5,10.051,25.949,10.5,26.5,10.5z M26.5,13.5
		c-0.551,0-1,0.449-1,1v2c0,0.551,0.449,1,1,1s1-0.449,1-1v-2C27.5,13.949,27.051,13.5,26.5,13.5z"/>
	<path class="avocado_een" d="M0,1v29h32V1H0z M31,29H1V2h30V29z M30,3H2v25h28V3z M29,4v4h-1V7.5C28,6.672,27.328,6,26.5,6
		c-0.386,0-0.734,0.15-1,0.389C25.234,6.15,24.886,6,24.5,6C23.672,6,23,6.672,23,7.5V8H11V7.5C11,6.672,10.328,6,9.5,6
		c-0.386,0-0.734,0.15-1,0.389C8.234,6.15,7.886,6,7.5,6s-0.734,0.15-1,0.389C6.234,6.15,5.886,6,5.5,6C4.672,6,4,6.672,4,7.5V8H3V4
		H29z M26.5,20c-0.386,0-0.734,0.15-1,0.389C25.234,20.15,24.886,20,24.5,20s-0.734,0.15-1,0.389C23.234,20.15,22.886,20,22.5,20
		s-0.734,0.15-1,0.389C21.234,20.15,20.886,20,20.5,20c-0.828,0-1.5,0.672-1.5,1.5V22H7v-0.5C7,20.672,6.328,20,5.5,20
		S4,20.672,4,21.5V22H3v-6h1v0.5C4,17.328,4.672,18,5.5,18c0.386,0,0.734-0.15,1-0.389C6.766,17.85,7.114,18,7.5,18
		s0.734-0.15,1-0.389C8.766,17.85,9.114,18,9.5,18c0.828,0,1.5-0.672,1.5-1.5V16h12v0.5c0,0.828,0.672,1.5,1.5,1.5
		c0.386,0,0.734-0.15,1-0.389C25.766,17.85,26.114,18,26.5,18c0.828,0,1.5-0.672,1.5-1.5V16h1v6h-1v-0.5
		C28,20.672,27.328,20,26.5,20z M26,21.5c0-0.276,0.224-0.5,0.5-0.5s0.5,0.224,0.5,0.5v2c0,0.276-0.224,0.5-0.5,0.5
		S26,23.776,26,23.5V21.5z M24,21.5c0-0.276,0.224-0.5,0.5-0.5s0.5,0.224,0.5,0.5v2c0,0.276-0.224,0.5-0.5,0.5S24,23.776,24,23.5
		V21.5z M22,21.5c0-0.276,0.224-0.5,0.5-0.5s0.5,0.224,0.5,0.5v2c0,0.276-0.224,0.5-0.5,0.5S22,23.776,22,23.5V21.5z M21,23.5
		c0,0.276-0.224,0.5-0.5,0.5S20,23.776,20,23.5v-2c0-0.276,0.224-0.5,0.5-0.5s0.5,0.224,0.5,0.5V23.5z M6,21.5v2
		C6,23.776,5.776,24,5.5,24S5,23.776,5,23.5v-2C5,21.224,5.224,21,5.5,21S6,21.224,6,21.5z M6,16.5C6,16.776,5.776,17,5.5,17
		S5,16.776,5,16.5v-2C5,14.224,5.224,14,5.5,14S6,14.224,6,14.5V16.5z M8,16.5C8,16.776,7.776,17,7.5,17S7,16.776,7,16.5v-2
		C7,14.224,7.224,14,7.5,14S8,14.224,8,14.5V16.5z M9,14.5C9,14.224,9.224,14,9.5,14s0.5,0.224,0.5,0.5v2c0,0.276-0.224,0.5-0.5,0.5
		S9,16.776,9,16.5V14.5z M25,16.5c0,0.276-0.224,0.5-0.5,0.5S24,16.776,24,16.5v-2c0-0.276,0.224-0.5,0.5-0.5s0.5,0.224,0.5,0.5
		V16.5z M26,14.5c0-0.276,0.224-0.5,0.5-0.5s0.5,0.224,0.5,0.5v2c0,0.276-0.224,0.5-0.5,0.5S26,16.776,26,16.5V14.5z M28,15v-0.5
		c0-0.828-0.672-1.5-1.5-1.5c-0.386,0-0.734,0.15-1,0.389C25.234,13.15,24.886,13,24.5,13c-0.828,0-1.5,0.672-1.5,1.5V15H11v-0.5
		c0-0.828-0.672-1.5-1.5-1.5c-0.386,0-0.734,0.15-1,0.389C8.234,13.15,7.886,13,7.5,13s-0.734,0.15-1,0.389
		C6.234,13.15,5.886,13,5.5,13C4.672,13,4,13.672,4,14.5V15H3V9h1v0.5C4,10.328,4.672,11,5.5,11c0.386,0,0.734-0.15,1-0.389
		C6.766,10.85,7.114,11,7.5,11s0.734-0.15,1-0.389C8.766,10.85,9.114,11,9.5,11c0.828,0,1.5-0.672,1.5-1.5V9h12v0.5
		c0,0.828,0.672,1.5,1.5,1.5c0.386,0,0.734-0.15,1-0.389C25.766,10.85,26.114,11,26.5,11c0.828,0,1.5-0.672,1.5-1.5V9h1v6H28z
		 M6,9.5C6,9.776,5.776,10,5.5,10S5,9.776,5,9.5v-2C5,7.224,5.224,7,5.5,7S6,7.224,6,7.5V9.5z M8,9.5C8,9.776,7.776,10,7.5,10
		S7,9.776,7,9.5v-2C7,7.224,7.224,7,7.5,7S8,7.224,8,7.5V9.5z M9,7.5C9,7.224,9.224,7,9.5,7S10,7.224,10,7.5v2
		C10,9.776,9.776,10,9.5,10S9,9.776,9,9.5V7.5z M25,9.5c0,0.276-0.224,0.5-0.5,0.5S24,9.776,24,9.5v-2C24,7.224,24.224,7,24.5,7
		S25,7.224,25,7.5V9.5z M26,7.5C26,7.224,26.224,7,26.5,7S27,7.224,27,7.5v2c0,0.276-0.224,0.5-0.5,0.5S26,9.776,26,9.5V7.5z M3,27
		v-4h1v0.5C4,24.328,4.672,25,5.5,25S7,24.328,7,23.5V23h12v0.5c0,0.828,0.672,1.5,1.5,1.5c0.386,0,0.734-0.15,1-0.389
		C21.766,24.85,22.114,25,22.5,25s0.734-0.15,1-0.389C23.766,24.85,24.114,25,24.5,25s0.734-0.15,1-0.389
		C25.766,24.85,26.114,25,26.5,25c0.828,0,1.5-0.672,1.5-1.5V23h1v4H3z"/>
</g>
</svg>