<?xml version="1.0" encoding="utf-8"?>
<svg version="1.1" xmlns="http://www.w3.org/2000/svg" xmlns:xlink="http://www.w3.org/1999/xlink" 
	 width="800px" height="800px" viewBox="0 0 32 32" xml:space="preserve">
<style type="text/css">
	.avocado_een{fill:#231F20;}
	.avocado_acht{fill:#A3AEB5;}
	.avocado_zeven{fill:#788287;}
	.st0{fill:#CC4121;}
	.st1{fill:#FFFAEE;}
	.st2{fill:#3D3935;}
	.st3{fill:#E0A838;}
	.st4{fill:#716558;}
	.st5{fill:#DBD2C1;}
	.st6{fill:#EAD13F;}
	.st7{fill:#D1712A;}
	.st8{fill:#8D3E93;}
	.st9{fill:#248EBC;}
	.st10{fill:#6F9B45;}
	.st11{fill:#AF9480;}
	.st12{fill:#C3CC6A;}
	.st13{fill:#231F20;}
</style>
<g>
	<path class="avocado_zeven" d="M8.411,31.5C7.143,25.024,6.5,18.399,6.5,11.802v-1.684L7.309,8.5h15.383l0.809,1.618v1.684
		c0,6.598-0.643,13.223-1.911,19.698L8.411,31.5z"/>
	<g>
		<path class="avocado_acht" d="M21.359,8.5H8.641l0.75-3h2.199l0.834-5h5.152l0.834,5h2.199L21.359,8.5z M11,11
			c-1.105,0-2,0.895-2,2c0,1.105,0.895,2,2,2s2-0.895,2-2C13,11.895,12.105,11,11,11z"/>
	</g>
	<path class="avocado_een" d="M23,8h-1.25L21,5h-2.167L18,0h-6l-0.833,5H9L8.25,8H7l-1,2v1.802C6,18.584,6.67,25.35,8,32l14,0
		c1.33-6.65,2-13.416,2-20.198V10L23,8z M12.847,1h4.306l0.667,4H12.18L12.847,1z M9.781,6h10.438l0.5,2H9.281L9.781,6z M23,11.802
		C23,18.23,22.387,24.684,21.177,31L8.823,31C7.613,24.684,7,18.23,7,11.802v-1.566L7.618,9h14.764L23,10.236V11.802z"/>
</g>
</svg>