<?xml version="1.0" encoding="utf-8"?>
<svg version="1.1" xmlns="http://www.w3.org/2000/svg" xmlns:xlink="http://www.w3.org/1999/xlink" 
	 width="800px" height="800px" viewBox="0 0 32 32" xml:space="preserve">
<style type="text/css">
	.avocado_een{fill:#231F20;}
	.avocado_zeven{fill:#788287;}
	.avocado_achttien{fill:#D1712A;}
	.avocado_negentien{fill:#E0A838;}
	.avocado_twintig{fill:#EAD13F;}
	.st0{fill:#716558;}
	.st1{fill:#CC4121;}
	.st2{fill:#FFFAEE;}
	.st3{fill:#3D3935;}
	.st4{fill:#DBD2C1;}
	.st5{fill:#A3AEB5;}
	.st6{fill:#8D3E93;}
	.st7{fill:#248EBC;}
	.st8{fill:#6F9B45;}
	.st9{fill:#AF9480;}
	.st10{fill:#C3CC6A;}
	.st11{fill:#231F20;}
	.st12{fill:#EAD13F;}
	.st13{fill:#E0A838;}
</style>
<path class="avocado_zeven" d="M4.5,4.5h-1v-2h7v2h-1v6h-5V4.5z M13.5,18.5h5v-14h1v-2h-7v2h1V18.5z M22.5,14.5h5v-10h1v-2h-7v2h1
	V14.5z"/>
<g>
	<path class="avocado_twintig" d="M25,29.5c-1.378,0-2.5-1.122-2.5-2.5V14h5v13C27.5,28.378,26.378,29.5,25,29.5z"/>
</g>
<g>
	<path class="avocado_negentien" d="M16,29.5c-1.378,0-2.5-1.122-2.5-2.5v-9h5v9C18.5,28.378,17.378,29.5,16,29.5z"/>
</g>
<g>
	<path class="avocado_achttien" d="M7,29.5c-1.378,0-2.5-1.122-2.5-2.5V10h5v17C9.5,28.378,8.378,29.5,7,29.5z"/>
</g>
<path class="avocado_een" d="M3,5h1v22c0,1.657,1.343,3,3,3s3-1.343,3-3V5h1V2H3V5z M9,27c0,1.103-0.897,2-2,2s-2-0.897-2-2v-2h2v-1
	H5v-3h2v-1H5v-3h2v-1H5v-3h2v-1H5V9h2V8H5V5h4V27z M4,3h6v1H4V3z M12,5h1v22c0,1.657,1.343,3,3,3s3-1.343,3-3V5h1V2h-8V5z M18,27
	c0,1.103-0.897,2-2,2s-2-0.897-2-2v-2h2v-1h-2v-3h2v-1h-2v-3h2v-1h-2v-3h2v-1h-2V9h2V8h-2V5h4V27z M13,3h6v1h-6V3z M21,2v3h1v22
	c0,1.657,1.343,3,3,3s3-1.343,3-3V5h1V2H21z M27,27c0,1.103-0.897,2-2,2s-2-0.897-2-2v-2h2v-1h-2v-3h2v-1h-2v-3h2v-1h-2v-3h2v-1h-2
	V9h2V8h-2V5h4V27z M28,4h-6V3h6V4z"/>
</svg>