<?xml version="1.0" encoding="utf-8"?>
<svg version="1.1" xmlns="http://www.w3.org/2000/svg" xmlns:xlink="http://www.w3.org/1999/xlink" 
	 width="800px" height="800px" viewBox="0 0 32 32" xml:space="preserve">
<style type="text/css">
	.avocado_een{fill:#231F20;}
	.avocado_zes{fill:#FFFAEE;}
	.avocado_achttien{fill:#D1712A;}
	.st0{fill:#3D3935;}
	.st1{fill:#E0A838;}
	.st2{fill:#716558;}
	.st3{fill:#DBD2C1;}
	.st4{fill:#A3AEB5;}
	.st5{fill:#788287;}
	.st6{fill:#EAD13F;}
	.st7{fill:#CC4121;}
	.st8{fill:#8D3E93;}
	.st9{fill:#248EBC;}
	.st10{fill:#6F9B45;}
	.st11{fill:#AF9480;}
	.st12{fill:#C3CC6A;}
</style>
<g>
	<path class="avocado_zes" d="M29.5,3.738v22.523l-19-7.6v-7.323L29.5,3.738z M2.5,11.5v7h2v-7H2.5z"/>
	<g>
		<polygon class="avocado_achttien" points="12.5,19.462 12.5,22.5 7.5,22.5 7.5,19.5 10.5,19.5 10.5,10.5 4.5,10.5 4.5,19.5 
			5.5,19.5 5.5,24.5 14.5,24.5 14.5,20.262 		"/>
	</g>
	<path class="avocado_een" d="M30,3l-19,7.6V10H4v1H2v8h2v1h1v5h10v-4l15,6V3z M3,18v-6h1v6H3z M5,11h5v8H5V11z M8,20h3v-0.6
		l1,0.4V22H8L8,20z M14,24H6v-4h1l0,3h6v-2.8l1,0.4V24z M29,25.523l-18-7.2v-6.646l18-7.2V25.523z"/>
</g>
</svg>