<?xml version="1.0" encoding="utf-8"?>
<svg version="1.1" xmlns="http://www.w3.org/2000/svg" xmlns:xlink="http://www.w3.org/1999/xlink" 
	 width="800px" height="800px" viewBox="0 0 32 32" xml:space="preserve">
<style type="text/css">
	.avocado_een{fill:#231F20;}
	.avocado_zeven{fill:#788287;}
	.avocado_acht{fill:#A3AEB5;}
	.st0{fill:#CC4121;}
	.st1{fill:#FFFAEE;}
	.st2{fill:#6F9B45;}
	.st3{fill:#DBD2C1;}
	.st4{fill:#3D3935;}
	.st5{fill:#EAD13F;}
	.st6{fill:#8D3E93;}
	.st7{fill:#BF63C1;}
	.st8{fill:#C3CC6A;}
	.st9{fill:#E0A838;}
	.st10{fill:#231F20;}
	.st11{fill:none;}
	.st12{fill:#D1712A;}
	.st13{fill:#AF9480;}
	.st14{fill:#716558;}
	.st15{fill:#788287;}
	.st16{fill:#A3AEB5;}
</style>
<g>
	<path class="avocado_zeven" d="M10,25.5c-4.687,0-8.5-3.813-8.5-8.5S5.313,8.5,10,8.5c1.328,0,2.61,0.306,3.812,0.911l0.322,0.162
		L16,7.707L19.293,11l-1.866,1.866l0.163,0.323c0.604,1.201,0.91,2.483,0.91,3.812C18.5,21.687,14.687,25.5,10,25.5z M10,10.5
		c-3.584,0-6.5,2.916-6.5,6.5s2.916,6.5,6.5,6.5s6.5-2.916,6.5-6.5S13.584,10.5,10,10.5z"/>
	<g>
		<path class="avocado_acht" d="M15,30.5c-4.687,0-8.5-3.813-8.5-8.5s3.813-8.5,8.5-8.5c1.328,0,2.61,0.306,3.812,0.911l0.322,0.162
			L21,12.707L24.293,16l-1.866,1.866l0.163,0.323c0.604,1.201,0.91,2.483,0.91,3.812C23.5,26.687,19.687,30.5,15,30.5z M15,15.5
			c-3.584,0-6.5,2.916-6.5,6.5s2.916,6.5,6.5,6.5s6.5-2.916,6.5-6.5S18.584,15.5,15,15.5z"/>
	</g>
	<path class="avocado_een" d="M30.31,4.5C30.73,4.133,31,3.601,31,3c0-1.105-0.895-2-2-2c-0.601,0-1.133,0.27-1.5,0.69
		C27.133,1.27,26.601,1,26,1c-0.873,0-1.608,0.563-1.88,1.343C23.8,2.126,23.415,2,23,2c-1.105,0-2,0.895-2,2c-1.105,0-2,0.895-2,2
		c-1.105,0-2,0.895-2,2l-1-1l-1.964,1.964C12.821,8.352,11.453,8,10,8c-4.971,0-9,4.029-9,9c0,3.787,2.34,7.027,5.653,8.355
		C7.984,28.663,11.216,31,15,31c4.971,0,9-4.029,9-9c0-1.453-0.352-2.821-0.964-4.036L25,16l-1-1c1.105,0,2-0.895,2-2
		c1.105,0,2-0.895,2-2c1.105,0,2-0.895,2-2c0-0.415-0.126-0.8-0.343-1.12C30.437,7.608,31,6.873,31,6
		C31,5.399,30.73,4.867,30.31,4.5z M29,2c0.551,0,1,0.449,1,1s-0.449,1-1,1s-1-0.449-1-1S28.449,2,29,2z M26,2c0.551,0,1,0.449,1,1
		s-0.449,1-1,1s-1-0.449-1-1S25.449,2,26,2z M22,4c0-0.551,0.449-1,1-1s1,0.449,1,1s-0.449,1-1,1c-0.11,0-0.212-0.03-0.312-0.063
		c-0.159-0.253-0.372-0.466-0.625-0.625C22.03,4.212,22,4.11,22,4z M20,6c0-0.551,0.449-1,1-1c0.11,0,0.212,0.03,0.312,0.063
		c0.159,0.253,0.372,0.466,0.625,0.625C21.97,5.788,22,5.89,22,6c0,0.551-0.449,1-1,1c-0.11,0-0.212-0.03-0.312-0.063
		c-0.159-0.253-0.372-0.466-0.625-0.625C20.03,6.212,20,6.11,20,6z M19,7c0.11,0,0.212,0.03,0.312,0.063
		c0.159,0.253,0.372,0.466,0.625,0.625C19.97,7.788,20,7.89,20,8c0,0.551-0.449,1-1,1s-1-0.449-1-1S18.449,7,19,7z M10,9
		c1.25,0,2.456,0.288,3.586,0.857l0.646,0.325l0.511-0.511L16,8.414L18.586,11l-1.257,1.257l-0.511,0.511l0.239,0.476
		c-0.423-0.101-0.86-0.16-1.305-0.198C14.49,11.213,12.389,10,10,10c-3.86,0-7,3.14-7,7c0,1.75,0.657,3.342,1.723,4.57l-0.715,0.715
		C2.762,20.874,2,19.026,2,17C2,12.589,5.589,9,10,9z M6.026,21.482C4.786,20.384,4,18.787,4,17c0-3.314,2.686-6,6-6
		c1.787,0,3.384,0.786,4.482,2.026C9.926,13.286,6.286,16.926,6.026,21.482z M4.721,22.986l0.711-0.711
		c0.194,0.168,0.395,0.326,0.606,0.473c0.036,0.439,0.105,0.867,0.202,1.286C5.693,23.74,5.182,23.393,4.721,22.986z M22.329,17.257
		l-0.511,0.511l0.325,0.646C22.712,19.544,23,20.75,23,22c0,4.411-3.589,8-8,8c-2.026,0-3.873-0.763-5.284-2.009l0.707-0.707
		C11.652,28.35,13.25,29,15,29c3.86,0,7-3.14,7-7s-3.14-7-7-7s-7,3.14-7,7c0,1.75,0.65,3.348,1.716,4.577l-0.707,0.707
		C7.763,25.873,7,24.026,7,22c0-4.411,3.589-8,8-8c1.25,0,2.456,0.288,3.586,0.857l0.646,0.325l0.511-0.511L21,13.414L23.586,16
		L22.329,17.257z M9,22c0-3.314,2.686-6,6-6c0.312,0,0.617,0.031,0.916,0.077C15.965,16.379,16,16.685,16,17c0,3.314-2.686,6-6,6
		c-0.315,0-0.621-0.035-0.923-0.084C9.031,22.617,9,22.312,9,22z M10,24c3.86,0,7-3.14,7-7c0-0.225-0.014-0.446-0.037-0.665
		c0.359,0.124,0.701,0.28,1.026,0.467C17.991,16.868,18,16.933,18,17c0,4.411-3.589,8-8,8c-0.066,0-0.131-0.008-0.197-0.01
		c-0.187-0.324-0.343-0.668-0.468-1.027C9.554,23.986,9.775,24,10,24z M10.513,25.974c4.56-0.258,8.203-3.901,8.461-8.461
		C20.214,18.612,21,20.213,21,22c0,3.314-2.686,6-6,6C13.213,28,11.612,27.214,10.513,25.974z M21,12l-1.964,1.964
		c-0.225-0.113-0.46-0.207-0.694-0.302c-0.092-0.238-0.192-0.472-0.306-0.698L20,11l-1-1c1.105,0,2-0.895,2-2c1.105,0,2-0.895,2-2
		c0.873,0,1.608-0.563,1.88-1.343C25.2,4.874,25.585,5,26,5c0.601,0,1.133-0.27,1.5-0.69c0.059,0.068,0.122,0.131,0.19,0.19
		C27.27,4.867,27,5.399,27,6c0,0.415,0.126,0.8,0.343,1.12C26.563,7.392,26,8.127,26,9c-1.105,0-2,0.895-2,2c-1.105,0-2,0.895-2,2
		L21,12z M25,13c0,0.551-0.449,1-1,1s-1-0.449-1-1s0.449-1,1-1c0.11,0,0.212,0.03,0.312,0.063c0.159,0.253,0.372,0.466,0.625,0.625
		C24.97,12.788,25,12.89,25,13z M27,11c0,0.551-0.449,1-1,1c-0.11,0-0.212-0.03-0.312-0.063c-0.159-0.253-0.372-0.466-0.625-0.625
		C25.03,11.212,25,11.11,25,11c0-0.551,0.449-1,1-1c0.11,0,0.212,0.03,0.312,0.063c0.159,0.253,0.372,0.466,0.625,0.625
		C26.97,10.788,27,10.89,27,11z M28,10c-0.11,0-0.212-0.03-0.312-0.063c-0.159-0.253-0.372-0.466-0.625-0.625
		C27.03,9.212,27,9.11,27,9c0-0.551,0.449-1,1-1s1,0.449,1,1S28.551,10,28,10z M29,7c-0.551,0-1-0.449-1-1s0.449-1,1-1s1,0.449,1,1
		S29.551,7,29,7z"/>
</g>
</svg>