<?xml version="1.0" encoding="utf-8"?>
<svg version="1.1" xmlns="http://www.w3.org/2000/svg" xmlns:xlink="http://www.w3.org/1999/xlink" 
	 width="800px" height="800px" viewBox="0 0 32 32" xml:space="preserve">
<style type="text/css">
	.avocado_een{fill:#231F20;}
	.avocado_zeventien{fill:#CC4121;}
	.avocado_acht{fill:#A3AEB5;}
	.st0{fill:#FFFAEE;}
	.st1{fill:#3D3935;}
	.st2{fill:#E0A838;}
	.st3{fill:#716558;}
	.st4{fill:#DBD2C1;}
	.st5{fill:#788287;}
	.st6{fill:#EAD13F;}
	.st7{fill:#D1712A;}
	.st8{fill:#8D3E93;}
	.st9{fill:#248EBC;}
	.st10{fill:#6F9B45;}
	.st11{fill:#AF9480;}
	.st12{fill:#C3CC6A;}
</style>
<g>
	<path class="avocado_zeventien" d="M16,9.5c2.481,0,4.5,2.019,4.5,4.5v10.5h7V14c0-6.341-5.159-11.5-11.5-11.5
		S4.5,7.659,4.5,14v10.5h7V14C11.5,11.519,13.519,9.5,16,9.5z"/>
	<g>
		<path class="avocado_acht" d="M11.5,29.5h-7v-5h7V29.5z M27.5,24.5h-7v5h7V24.5z"/>
	</g>
	<path class="avocado_een" d="M16,2C9.373,2,4,7.373,4,14v16h8V14c0-2.209,1.791-4,4-4s4,1.791,4,4v16h8V14
		C28,7.373,22.627,2,16,2z M11,29H5v-4h6V29z M27,29h-6v-4h6V29z M21,24V14c0-2.757-2.243-5-5-5s-5,2.243-5,5v10H5V14
		C5,7.935,9.935,3,16,3s11,4.935,11,11v10H21z"/>
</g>
</svg>