<?xml version="1.0" encoding="utf-8"?>
<svg version="1.1" xmlns="http://www.w3.org/2000/svg" xmlns:xlink="http://www.w3.org/1999/xlink" 
	 width="800px" height="800px" viewBox="0 0 32 32" xml:space="preserve">
<style type="text/css">
	.avocado_een{fill:#231F20;}
	.avocado_drie{fill:#716558;}
	.avocado_acht{fill:#A3AEB5;}
	.avocado_zeven{fill:#788287;}
	.avocado_vier{fill:#AF9480;}
</style>
<g>
	<path class="avocado_vier" d="M23.474,8.5H8.526c-2.443,0-4.617,1.64-5.288,3.989L2.663,14.5h26.674l-0.575-2.011
		C28.091,10.14,25.917,8.5,23.474,8.5z"/>
	<g>
		<polygon class="avocado_acht" points="30.5,16.5 30.5,14.5 1.5,14.5 1.5,16.5 2.401,16.5 4.401,25.5 27.599,25.5 
			29.599,16.5 		"/>
	</g>
	<polygon class="avocado_zeven" points="29.266,18 29.599,16.5 2.401,16.5 2.734,18 	"/>
	<path class="avocado_drie" d="M15.072,10.679L14.2,8.5h3.6l-0.872,2.179C16.593,11.517,15.407,11.517,15.072,10.679z
		 M10.928,10.679L11.8,8.5H8.526c-0.107,0-0.21,0.02-0.315,0.026l0.861,2.153C9.407,11.517,10.593,11.517,10.928,10.679z
		 M22.928,10.679l0.861-2.153C23.684,8.52,23.581,8.5,23.474,8.5H20.2l0.872,2.179C21.407,11.517,22.593,11.517,22.928,10.679z"/>
	<path class="avocado_een" d="M29.714,14l-0.471-1.648C28.507,9.776,26.153,8,23.474,8H8.526
		c-2.679,0-5.033,1.776-5.769,4.352L2.286,14H1v3h1l2,9h24l2-9h1v-3H29.714z M3.718,12.626C4.328,10.491,6.305,9,8.526,9h14.948
		c2.221,0,4.198,1.491,4.808,3.626L28.674,14H3.326L3.718,12.626z M27.198,25H4.802l-1.778-8h25.951L27.198,25z M30,16H2v-1h28V16z"
		/>
</g>
</svg>