<?xml version="1.0" encoding="utf-8"?>
<svg version="1.1" xmlns="http://www.w3.org/2000/svg" xmlns:xlink="http://www.w3.org/1999/xlink" 
	 width="800px" height="800px" viewBox="0 0 32 32" xml:space="preserve">
<style type="text/css">
	.avocado_een{fill:#231F20;}
	.avocado_negentien{fill:#E0A838;}
	.avocado_twintig{fill:#EAD13F;}
	.avocado_negen{fill:#6F9B45;}
	.st0{fill:#FFFAEE;}
	.st1{fill:#3D3935;}
	.st2{fill:#716558;}
	.st3{fill:#DBD2C1;}
	.st4{fill:#A3AEB5;}
	.st5{fill:#788287;}
	.st6{fill:#D1712A;}
	.st7{fill:#CC4121;}
	.st8{fill:#8D3E93;}
	.st9{fill:#248EBC;}
	.st10{fill:#AF9480;}
	.st11{fill:#C3CC6A;}
</style>
<g>
	<g>
		<path class="avocado_twintig" d="M9.5,3.866V10.5c0,3.309,2.691,6,6,6c3.213,0,5.844-2.539,5.993-5.715L9.5,3.866z"/>
	</g>
	<path class="avocado_negen" d="M15.5,27.302l-0.481-1.704c-1.467-5.193-6.157-8.868-11.511-9.088
		C3.729,23.489,8.494,28.5,15,28.5h1c6.506,0,11.271-5.011,11.492-11.99c-5.354,0.22-10.043,3.895-11.511,9.088L15.5,27.302z"/>
	<g>
		<g>
			<path class="avocado_negentien" d="M15.5,7.327l6-3.462V10.5c0,0.113-0.001,0.174-0.007,0.285L15.5,7.327z"/>
		</g>
	</g>
	<path class="avocado_een" d="M16,23.999v-7.031c3.355-0.257,6-3.047,6-6.467C22,6.91,22,3,22,3l-6.5,3.75L9,3
		c0,0,0,3.91,0,7.5c0,3.42,2.645,6.211,6,6.467v7.031C13.04,19.302,8.407,16,3,16c0,7.18,4.82,13,12,13h1c7.18,0,12-5.82,12-13
		C22.593,16,17.96,19.302,16,23.999z M7.053,24.526c-1.759-1.968-2.812-4.594-3.016-7.482C9.84,17.543,14.477,22.191,14.959,28
		C11.808,27.99,9.076,26.789,7.053,24.526z M21,4.731v5.192l-4.5-2.596L21,4.731z M10,4.731l10.972,6.33c0,0.001,0,0.001,0,0.002
		C20.69,13.836,18.348,16,15.5,16c-3.038,0-5.5-2.462-5.5-5.5V4.731z M16.041,28c0.482-5.809,5.119-10.457,10.923-10.956
		C26.527,23.439,22.071,27.979,16.041,28z"/>
</g>
</svg>