<?xml version="1.0" encoding="utf-8"?>
<svg version="1.1" xmlns="http://www.w3.org/2000/svg" xmlns:xlink="http://www.w3.org/1999/xlink" 
	 width="800px" height="800px" viewBox="0 0 32 32" xml:space="preserve">
<style type="text/css">
	.avocado_een{fill:#231F20;}
	.avocado_negen{fill:#6F9B45;}
	.avocado_acht{fill:#A3AEB5;}
	.avocado_zeven{fill:#788287;}
	.st0{fill:#FFFAEE;}
	.st1{fill:#3D3935;}
	.st2{fill:#E0A838;}
	.st3{fill:#716558;}
	.st4{fill:#DBD2C1;}
	.st5{fill:#EAD13F;}
	.st6{fill:#D1712A;}
	.st7{fill:#CC4121;}
	.st8{fill:#8D3E93;}
	.st9{fill:#248EBC;}
	.st10{fill:#AF9480;}
	.st11{fill:#C3CC6A;}
</style>
<g>
	<g>
		<path class="avocado_acht" d="M15.998,31.469C15.071,31.117,10.5,29.076,10.5,23v-3.717l4.639-2.783h1.723l4.639,2.783V23
			C21.5,29.025,16.895,31.119,15.998,31.469z"/>
	</g>
	<path class="avocado_negen" d="M14.92,11.5c-0.262,0-0.476-0.197-0.498-0.458l-0.675-8.094
		c-0.053-0.638,0.157-1.248,0.59-1.718C14.77,0.759,15.36,0.5,16,0.5c0.64,0,1.231,0.259,1.664,0.729
		c0.433,0.471,0.642,1.081,0.589,1.718l-0.675,8.094c-0.022,0.262-0.236,0.458-0.498,0.458H14.92z"/>
	<path class="avocado_zeven" d="M15.139,16.5L10.5,19.283V23c0,6.076,4.571,8.117,5.498,8.469
		C16.895,31.119,21.5,29.025,21.5,23v-3.717L16.861,16.5H15.139z M20,23c0,4.307-2.746,6.193-4.001,6.829
		C14.746,29.195,12,27.312,12,23v-2.868L15.554,18h0.892L20,20.132V23z"/>
	<path class="avocado_een" d="M17,16v-4h0.08c0.52,0,0.953-0.399,0.997-0.917l0.674-8.094C18.885,1.38,17.592,0,16,0
		s-2.885,1.38-2.75,2.989l0.674,8.094C13.967,11.601,14.4,12,14.92,12H15v4l-5,3v4c0,7.083,6,9,6,9s6-1.917,6-9v-4L17,16z M14.92,11
		l-0.674-8.094c-0.041-0.496,0.122-0.971,0.459-1.338C15.042,1.202,15.502,1,16,1c0.498,0,0.958,0.202,1.295,0.568
		c0.337,0.366,0.5,0.842,0.459,1.338L17.08,11H14.92z M21,23c0,5.426-3.857,7.45-4.997,7.93C14.879,30.449,11,28.398,11,23v-3.434
		L15.277,17h1.446L21,19.566V23z"/>
</g>
</svg>