<?xml version="1.0" encoding="utf-8"?>
<svg version="1.1" xmlns="http://www.w3.org/2000/svg" xmlns:xlink="http://www.w3.org/1999/xlink" 
	 width="800px" height="800px" viewBox="0 0 32 32" xml:space="preserve">
<style type="text/css">
	.avocado_een{fill:#231F20;}
	.avocado_negen{fill:#6F9B45;}
	.avocado_tien{fill:#C3CC6A;}
	.st0{fill:#CC4121;}
	.st1{fill:#FFFAEE;}
	.st2{fill:#3D3935;}
	.st3{fill:#E0A838;}
	.st4{fill:#716558;}
	.st5{fill:#DBD2C1;}
	.st6{fill:#A3AEB5;}
	.st7{fill:#788287;}
	.st8{fill:#EAD13F;}
	.st9{fill:#D1712A;}
	.st10{fill:#8D3E93;}
	.st11{fill:#248EBC;}
	.st12{fill:#AF9480;}
	.st13{fill:#231F20;}
</style>
<g>
	<path class="avocado_negen" d="M22.999,31.113c-0.24,0-0.499-0.191-0.499-0.501c0-0.245,0.083-0.4,0.223-0.493l3.605-2.403
		c0.508-0.339,0.754-0.923,0.643-1.523c-0.112-0.601-0.553-1.057-1.149-1.189L18.5,23.377V28.5h-6v-5h-5v5h-6V3.389
		C1.5,2.348,2.347,1.5,3.389,1.5h1.888c0.374,0,0.736,0.109,1.047,0.317l1.335,0.89C8.186,3.059,8.5,3.646,8.5,4.278
		c0,0.814-0.519,1.534-1.291,1.791L5.5,6.64V11c0,1.379,1.122,2.5,2.5,2.5h2.591c4.088,0,8.007,1.256,11.334,3.633l6.751,4.821
		c1.142,0.816,1.824,2.142,1.824,3.545c0,1.879-1.197,3.54-2.979,4.134l-4.363,1.454C23.106,31.104,23.052,31.113,22.999,31.113z"/>
	<path class="avocado_tien" d="M11.5,16c0.828,0,1.5,0.672,1.5,1.5S12.328,19,11.5,19S10,18.328,10,17.5S10.672,16,11.5,16z
		 M14,15.5c0,0.828,0.672,1.5,1.5,1.5s1.5-0.672,1.5-1.5c0-0.422-0.176-0.802-0.456-1.075c-0.455-0.146-0.916-0.272-1.381-0.384
		C14.497,14.195,14,14.788,14,15.5z M10,14.5c0-0.386-0.15-0.734-0.389-1H8c-0.191,0-0.375-0.026-0.554-0.067
		C7.171,13.705,7,14.082,7,14.5C7,15.328,7.672,16,8.5,16S10,15.328,10,14.5z"/>
	<path class="avocado_een" d="M5,4H4V3h1V4z M31,25.499c0,2.091-1.338,3.946-3.321,4.608l-4.363,1.454
		c-0.106,0.035-0.213,0.052-0.318,0.052c-0.531,0-0.998-0.43-0.998-1.001v-0.077c0-0.334,0.167-0.647,0.445-0.832L26.05,27.3
		c0.733-0.489,0.522-1.617-0.338-1.808L19,24v5h-7v-5H8v5H1V3.389C1,2.069,2.069,1,3.389,1h1.888c0.472,0,0.933,0.14,1.325,0.401
		l1.335,0.89C8.601,2.734,9,3.48,9,4.278c0,1.028-0.658,1.941-1.633,2.266L6,7v4c0,1.105,0.895,2,2,2h2.591
		c4.168,0,8.233,1.302,11.625,3.725l6.751,4.822C30.242,22.459,31,23.931,31,25.499z M30,25.499c0-1.243-0.604-2.416-1.615-3.138
		l-6.751-4.822C18.393,15.224,14.574,14,10.591,14H8c-1.654,0-3-1.346-3-3V6.279l2.05-0.683C7.618,5.406,8,4.877,8,4.278
		c0-0.465-0.231-0.897-0.618-1.155l-1.335-0.89C5.818,2.081,5.552,2,5.277,2H3.389C2.623,2,2,2.623,2,3.389V28h2v-5h1v5h2v-5h6v5h2
		v-5h1v5h2v-5.247l7.929,1.762c0.783,0.174,1.385,0.796,1.532,1.585c0.147,0.789-0.189,1.586-0.857,2.031L23,30.535v0.077
		l4.363-1.454C28.94,28.633,30,27.162,30,25.499z"/>
</g>
</svg>