<?xml version="1.0" encoding="utf-8"?>
<svg version="1.1" xmlns="http://www.w3.org/2000/svg" xmlns:xlink="http://www.w3.org/1999/xlink" 
	 width="800px" height="800px" viewBox="0 0 32 32" xml:space="preserve">
<style type="text/css">
	.avocado_een{fill:#231F20;}
	.avocado_negentien{fill:#E0A838;}
	.avocado_achttien{fill:#D1712A;}
	.avocado_zeventien{fill:#CC4121;}
	.st0{fill:#FFFAEE;}
	.st1{fill:#3D3935;}
	.st2{fill:#716558;}
	.st3{fill:#DBD2C1;}
	.st4{fill:#A3AEB5;}
	.st5{fill:#788287;}
	.st6{fill:#EAD13F;}
	.st7{fill:#8D3E93;}
	.st8{fill:#248EBC;}
	.st9{fill:#6F9B45;}
	.st10{fill:#AF9480;}
	.st11{fill:#C3CC6A;}
</style>
<g>
	<path class="avocado_zeventien" d="M27.5,9.5c0-5.636-2.617-9-7-9c-3.015,0-5.233,1.593-6.291,4.499
		C18.07,6.568,18.5,11.425,18.5,13.5c0,1.176-0.219,2.288-0.651,3.313c0.434,0.22,0.873,0.388,1.31,0.501l0.681,0.177l-0.821,1.231
		c-0.103,0.153-0.112,0.351-0.024,0.513c0.087,0.163,0.256,0.265,0.44,0.265h2.132c0.185,0,0.354-0.102,0.44-0.264
		c0.087-0.163,0.078-0.36-0.024-0.514l-0.821-1.23l0.68-0.177C24.653,16.583,27.5,13.663,27.5,9.5z"/>
	<g>
		<g>
			<path class="avocado_achttien" d="M12.841,21.315l-0.68,0.177l0.821,1.23c0.103,0.153,0.112,0.351,0.024,0.514
				c-0.087,0.162-0.256,0.264-0.44,0.264h-2.132c-0.185,0-0.354-0.102-0.44-0.265c-0.087-0.162-0.078-0.359,0.024-0.513l0.821-1.23
				l-0.68-0.177C7.347,20.583,4.5,17.663,4.5,13.5c0-5.636,2.617-9,7-9s7,3.364,7,9C18.5,17.663,15.653,20.583,12.841,21.315z M20,4
				c0,0.828-0.672,1.5-1.5,1.5S17,4.828,17,4s0.672-1.5,1.5-1.5S20,3.172,20,4z"/>
		</g>
	</g>
	<g>
		<g>
			<path class="avocado_negentien" d="M11,8c0,0.828-0.672,1.5-1.5,1.5S8,8.828,8,8s0.672-1.5,1.5-1.5S11,7.172,11,8z"/>
		</g>
	</g>
	<path class="avocado_een" d="M28,9.5C28,3.552,25.196,0,20.5,0c-3.114,0-5.377,1.581-6.561,4.368
		C13.197,4.125,12.382,4,11.5,4C6.804,4,4,7.552,4,13.5c0,4.363,2.949,7.496,6.033,8.299l-0.431,0.646
		c-0.205,0.308-0.224,0.701-0.049,1.026C9.727,23.798,10.065,24,10.434,24h0.505c-0.124,0.527-0.439,0.856-0.824,1.239
		C9.593,25.762,9,26.354,9,27.5c0,1.152,0.599,1.764,1.127,2.303C10.615,30.301,11,30.693,11,31.5c0,0.276,0.224,0.5,0.5,0.5
		s0.5-0.224,0.5-0.5c0-1.215-0.643-1.87-1.159-2.397C10.371,28.623,10,28.244,10,27.5c0-0.731,0.363-1.094,0.822-1.553
		c0.451-0.45,0.993-0.998,1.138-1.947h0.606c0.369,0,0.707-0.202,0.881-0.528c0.174-0.325,0.156-0.719-0.049-1.026l-0.431-0.646
		c2.039-0.531,4.014-2.085,5.121-4.335c0.312,0.133,0.627,0.252,0.945,0.335l-0.431,0.646c-0.205,0.308-0.224,0.701-0.049,1.026
		C18.727,19.798,19.065,20,19.434,20h0.606c0.145,0.949,0.687,1.497,1.138,1.947C21.637,22.406,22,22.769,22,23.5
		c0,0.744-0.371,1.123-0.841,1.603C20.643,25.63,20,26.285,20,27.5c0,0.276,0.224,0.5,0.5,0.5s0.5-0.224,0.5-0.5
		c0-0.807,0.385-1.199,0.873-1.697C22.401,25.264,23,24.652,23,23.5c0-1.146-0.593-1.738-1.115-2.261
		c-0.385-0.384-0.7-0.712-0.824-1.239h0.505c0.369,0,0.707-0.202,0.881-0.528c0.174-0.325,0.156-0.719-0.049-1.026l-0.431-0.646
		C25.051,16.996,28,13.863,28,9.5z M10.434,23l1.066-1.6l1.066,1.6H10.434z M12.07,20.957l-0.57,0.076l-0.57-0.076
		C8.468,20.631,5,18.101,5,13.5C5,10.944,5.633,5,11.5,5s6.5,5.944,6.5,8.5C18,18.101,14.532,20.631,12.07,20.957z M19.434,19
		l1.066-1.6l1.066,1.6H19.434z M21.07,16.957l-0.57,0.076l-0.57-0.076c-0.454-0.06-0.945-0.221-1.44-0.431
		C18.815,15.606,19,14.591,19,13.5c0-4.347-1.503-7.407-4.143-8.743C15.694,2.751,17.32,1,20.5,1C26.367,1,27,6.944,27,9.5
		C27,14.101,23.532,16.631,21.07,16.957z"/>
</g>
</svg>