<?xml version="1.0" encoding="utf-8"?>
<svg version="1.1" xmlns="http://www.w3.org/2000/svg" xmlns:xlink="http://www.w3.org/1999/xlink"  width="800px"
	 height="800px" viewBox="0 0 32 32" xml:space="preserve">
<style type="text/css">
	.avocado_een{fill:#231F20;}
	.avocado_zes{fill:#FFFAEE;}
	.avocado_acht{fill:#A3AEB5;}
	.avocado_twintig{fill:#EAD13F;}
	.st0{fill:#231F20;}
	.st1{fill:#0B1719;}
	.st2{fill:#CC4121;}
	.st3{fill:#6F9B45;}
	.st4{fill:#DBD2C1;}
	.st5{fill:#3D3935;}
	.st6{fill:#8D3E93;}
	.st7{fill:#BF63C1;}
	.st8{fill:#C3CC6A;}
	.st9{fill:#E0A838;}
	.st10{fill:#788287;}
	.st11{fill:none;}
	.st12{fill:#D1712A;}
	.st13{fill:#AF9480;}
	.st14{fill:#716558;}
</style>
<g id="LABELS">
</g>
<g>
	<g>
		<g>
			<path class="avocado_twintig" d="M20.619,10.5L22.062,8H9.938l1.443,2.5l-2.582,4.472c-0.334,0.578-0.423,1.252-0.25,1.897
				s0.586,1.184,1.165,1.518l2.598,1.5c0.38,0.22,0.812,0.335,1.248,0.335c0.892,0,1.723-0.479,2.167-1.25L16,18.5l0.273,0.473
				c0.445,0.771,1.276,1.25,2.167,1.25c0.436,0,0.867-0.116,1.248-0.335l2.598-1.5c0.578-0.333,0.992-0.873,1.165-1.518
				s0.084-1.319-0.25-1.897L20.619,10.5z"/>
		</g>
		<g>
			<path class="avocado_acht" d="M23.977,4.683L22.062,8H9.938L8.023,4.683l6.928-4L16,2.501l1.049-1.818L23.977,4.683z
				 M21.657,30.298l8.66-5l-0.25-0.433c-0.267-0.463-0.766-0.75-1.301-0.75c-0.261,0-0.52,0.069-0.748,0.201l-2.165,1.25l-4-6.928
				l-1.732,1l4,6.928l-2.166,1.25c-0.716,0.414-0.962,1.333-0.549,2.049L21.657,30.298z M10.343,30.298l0.25-0.433
				c0.414-0.716,0.167-1.635-0.549-2.049l-2.166-1.25l4-6.928l-1.732-1l-4,6.928l-2.165-1.25c-0.228-0.132-0.487-0.201-0.748-0.201
				c-0.535,0-1.034,0.287-1.301,0.75l-0.25,0.433L10.343,30.298z"/>
		</g>
		<path class="avocado_zes" d="M18,6c0,0.552-0.448,1-1,1s-1-0.448-1-1s0.448-1,1-1S18,5.448,18,6z M14,11c-0.552,0-1,0.448-1,1
			s0.448,1,1,1s1-0.448,1-1S14.552,11,14,11z M18,9c-0.552,0-1,0.448-1,1s0.448,1,1,1s1-0.448,1-1S18.552,9,18,9z"/>
		<path class="avocado_een" d="M30.5,24.615c-0.37-0.642-1.043-1-1.734-1c-0.339,0-0.683,0.086-0.998,0.268l-1.732,1l-3.5-6.062l0,0
			c1.435-0.828,1.927-2.663,1.098-4.098L21.196,10.5l3.464-6L16.866,0L16,1.5L15.134,0L7.34,4.5l3.464,6l-2.438,4.222
			c-0.828,1.435-0.337,3.27,1.098,4.098l0,0l-3.5,6.062l-1.732-1c-0.315-0.182-0.659-0.268-0.998-0.268
			c-0.691,0-1.363,0.359-1.734,1L1,25.481l9.526,5.5l0.5-0.866c0.552-0.957,0.224-2.18-0.732-2.732l-1.732-1l3.5-6.062h0
			c0.472,0.273,0.988,0.402,1.497,0.402c0.953,0,1.865-0.472,2.441-1.293c0.576,0.821,1.488,1.293,2.441,1.293
			c0.509,0,1.025-0.13,1.497-0.402l0,0l3.5,6.062l-1.732,1c-0.957,0.552-1.284,1.775-0.732,2.732l0.5,0.866l9.526-5.5L30.5,24.615z
			 M8.706,4.866l6.062-3.5L15.423,2.5l-4.041,7L8.706,4.866z M7.196,26.749l2.598,1.5c0.231,0.134,0.397,0.349,0.466,0.607
			c0.069,0.258,0.034,0.528-0.1,0.759l-7.794-4.5c0.178-0.309,0.511-0.5,0.868-0.5c0.176,0,0.344,0.045,0.498,0.134l2.598,1.5
			l4-6.928l0.866,0.5L7.196,26.749z M15.294,18.722c-0.356,0.617-1.021,1-1.735,1c-0.348,0-0.693-0.093-0.997-0.268l-2.598-1.5
			c-0.955-0.551-1.283-1.777-0.732-2.732l8-13.856l6.062,3.5L15.294,18.722z M18.441,19.723c-0.714,0-1.379-0.383-1.735-1
			L16.577,18.5l4.041-7l2.149,3.722c0.551,0.955,0.223,2.181-0.732,2.732l-2.598,1.5C19.134,19.63,18.789,19.723,18.441,19.723z
			 M21.84,29.615c-0.134-0.231-0.169-0.501-0.1-0.759c0.069-0.258,0.235-0.474,0.466-0.607l2.598-1.5l-4-6.928l0.866-0.5l4,6.928
			l2.598-1.5c0.154-0.089,0.322-0.134,0.498-0.134c0.357,0,0.69,0.192,0.868,0.5L21.84,29.615z"/>
	</g>
</g>
</svg>