<?xml version="1.0" encoding="utf-8"?>
<svg version="1.1" xmlns="http://www.w3.org/2000/svg" xmlns:xlink="http://www.w3.org/1999/xlink" 
	 width="800px" height="800px" viewBox="0 0 32 32" xml:space="preserve">
<style type="text/css">
	.avocado_een{fill:#231F20;}
	.avocado_zes{fill:#FFFAEE;}
	.avocado_drie{fill:#716558;}
	.avocado_acht{fill:#A3AEB5;}
	.st0{fill:#3D3935;}
	.st1{fill:#E0A838;}
	.st2{fill:#DBD2C1;}
	.st3{fill:#788287;}
	.st4{fill:#EAD13F;}
	.st5{fill:#D1712A;}
	.st6{fill:#CC4121;}
	.st7{fill:#8D3E93;}
	.st8{fill:#248EBC;}
	.st9{fill:#6F9B45;}
	.st10{fill:#AF9480;}
	.st11{fill:#C3CC6A;}
</style>
<g>
	<rect x="4.5" y="3.5" class="avocado_drie" width="23" height="28"/>
	<rect x="6.5" y="5.5" class="avocado_zes" width="19" height="24"/>
	<g>
		<path class="avocado_acht" d="M10.5,6.5v-4h3.036l0.118-0.333C14.009,1.17,14.952,0.5,16,0.5s1.991,0.67,2.346,1.667
			L18.464,2.5H21.5v4H10.5z"/>
	</g>
	<path class="avocado_een" d="M20,14h-8v-1h8V14z M20,15h-8v1h8V15z M20,17h-8v1h8V17z M20,19h-8v1h8V19z M28,3v29H4V3h6V2
		h3.184C13.597,0.837,14.696,0,16,0s2.403,0.837,2.816,2H22v1H28z M10,7V6H7v23h18V6h-3v1H10z M11,6h10V3h-2.89l-0.236-0.665
		C17.59,1.536,16.837,1,16,1s-1.59,0.536-1.874,1.335L13.89,3H11V6z M27,4h-5v1h4v25H6V5h4V4H5v27h22V4z"/>
</g>
</svg>