<?xml version="1.0" encoding="utf-8"?>
<svg version="1.1" xmlns="http://www.w3.org/2000/svg" xmlns:xlink="http://www.w3.org/1999/xlink" 
	 width="800px" height="800px" viewBox="0 0 32 32" xml:space="preserve">
<style type="text/css">
	.avocado_een{fill:#231F20;}
	.avocado_twee{fill:#3D3935;}
	.avocado_zeventien{fill:#CC4121;}
	.avocado_acht{fill:#A3AEB5;}
	.avocado_zeven{fill:#788287;}
	.st0{fill:#FFFAEE;}
	.st1{fill:#E0A838;}
	.st2{fill:#716558;}
	.st3{fill:#DBD2C1;}
	.st4{fill:#EAD13F;}
	.st5{fill:#D1712A;}
	.st6{fill:#8D3E93;}
	.st7{fill:#248EBC;}
	.st8{fill:#6F9B45;}
	.st9{fill:#AF9480;}
	.st10{fill:#C3CC6A;}
</style>
<g>
	<g>
		<g>
			<path class="avocado_twee" d="M24,27.5c-1.76,0-3.221-1.306-3.464-3h6.929C27.221,26.194,25.76,27.5,24,27.5z M9,27.5
				c-1.76,0-3.221-1.306-3.464-3h6.929C12.221,26.194,10.76,27.5,9,27.5z"/>
		</g>
	</g>
	<polygon class="avocado_zeventien" points="31.207,24.5 30,23.293 28.793,24.5 0.5,24.5 0.5,21.5 1.5,21.5 1.5,17.424 
		7.394,16.441 9.377,9.5 23.623,9.5 25.592,16.391 29.135,17.572 30,16.707 30.793,17.5 31.5,17.5 31.5,24.5 	"/>
	<polygon class="avocado_zeven" points="31.207,24.5 30,23.293 28.793,24.5 0.5,24.5 0.5,21.5 29,21.5 30,20.5 31,21.5 
		31.5,21.5 31.5,24.5 	"/>
	<g>
		<polygon class="avocado_acht" points="10.641,14.5 11.391,11.5 21.609,11.5 22.359,14.5 		"/>
	</g>
	<path class="avocado_een" d="M31,17l-1-1l-1,1l-3-1l-2-7H9l-2,7l-6,1v4H0v4h5.149c0.446,1.721,1.99,3,3.851,3
		s3.405-1.279,3.851-3h7.307c0.444,1.721,1.982,3,3.842,3s3.398-1.279,3.842-3H29l1-1l1,1h1v-8H31z M2,17.847l5.788-0.965L9.754,10
		h13.491l1.938,6.782l4.087,1.362l0.73-0.73L30.586,18H31v2.793l-1-1L28.793,21H2V17.847z M9,27c-1.301,0-2.394-0.84-2.808-2h5.615
		C11.394,26.16,10.301,27,9,27z M24,27c-1.301,0-2.397-0.838-2.809-2h5.618C26.397,26.162,25.301,27,24,27z M31,23.586l-1-1
		L28.586,24H1v-2h28.207L30,21.207L30.793,22H31V23.586z M11,11l-1,4h13l-1-4H11z M11.281,14l0.5-2H16v2H11.281z M17,14v-2h4.219
		l0.5,2H17z"/>
</g>
</svg>