<?xml version="1.0" encoding="utf-8"?>
<svg version="1.1" xmlns="http://www.w3.org/2000/svg" xmlns:xlink="http://www.w3.org/1999/xlink" 
	 width="800px" height="800px" viewBox="0 0 32 32" xml:space="preserve">
<style type="text/css">
	.avocado_een{fill:#231F20;}
	.avocado_acht{fill:#A3AEB5;}
	.avocado_zeven{fill:#788287;}
	.st0{fill:#FFFAEE;}
	.st1{fill:#3D3935;}
	.st2{fill:#E0A838;}
	.st3{fill:#716558;}
	.st4{fill:#DBD2C1;}
	.st5{fill:#EAD13F;}
	.st6{fill:#D1712A;}
	.st7{fill:#CC4121;}
	.st8{fill:#8D3E93;}
	.st9{fill:#248EBC;}
	.st10{fill:#6F9B45;}
	.st11{fill:#AF9480;}
	.st12{fill:#C3CC6A;}
</style>
<g>
	<path class="avocado_zeven" d="M16,29.5c-5.79,0-10.5-4.71-10.5-10.5c0-8.749,8.829-15.247,10.498-16.396
		C17.667,3.765,26.5,10.326,26.5,19C26.5,24.79,21.79,29.5,16,29.5z"/>
	<g>
		<circle class="avocado_acht" cx="10" cy="17" r="2"/>
	</g>
	<path class="avocado_een" d="M16,2C16,2,5,9,5,19c0,6.075,4.925,11,11,11s11-4.925,11-11C27,9.077,16,2,16,2z M16,29
		c-5.514,0-10-4.486-10-10c0-8.086,7.846-14.248,9.998-15.785C18.15,4.762,26,10.96,26,19C26,24.514,21.514,29,16,29z"/>
</g>
</svg>