<?xml version="1.0" encoding="utf-8"?>
<svg version="1.1" xmlns="http://www.w3.org/2000/svg" xmlns:xlink="http://www.w3.org/1999/xlink" 
	 width="800px" height="800px" viewBox="0 0 32 32" xml:space="preserve">
<style type="text/css">
	.avocado_een{fill:#231F20;}
	.avocado_negentien{fill:#E0A838;}
	.avocado_twintig{fill:#EAD13F;}
	.avocado_achttien{fill:#D1712A;}
	.st0{fill:#FFFAEE;}
	.st1{fill:#3D3935;}
	.st2{fill:#716558;}
	.st3{fill:#DBD2C1;}
	.st4{fill:#A3AEB5;}
	.st5{fill:#788287;}
	.st6{fill:#CC4121;}
	.st7{fill:#8D3E93;}
	.st8{fill:#248EBC;}
	.st9{fill:#6F9B45;}
	.st10{fill:#AF9480;}
	.st11{fill:#C3CC6A;}
</style>
<g>
	<g>
		<path class="avocado_twintig" d="M2.5,12.5V12c0-2.888,1.339-5.649,3.595-7.441L29.5,12.36v0.14H2.5z"/>
	</g>
	<g>
		<path class="avocado_negentien" d="M18.95,12.5C18.701,10.53,17.038,9,15,9s-3.701,1.53-3.95,3.5H2.5v15h27v-15H18.95z"/>
	</g>
	<g>
		<g>
			<path class="avocado_achttien" d="M18.961,12.5C18.985,12.663,19,12.83,19,13c0,2.209-1.791,4-4,4s-4-1.791-4-4
				c0-0.17,0.015-0.337,0.039-0.5H18.961z M9,18c-2.209,0-4,1.791-4,4c0,2.209,1.791,4,4,4s4-1.791,4-4C13,19.791,11.209,18,9,18z
				 M24,16c-2.209,0-4,1.791-4,4c0,2.209,1.791,4,4,4s4-1.791,4-4C28,17.791,26.209,16,24,16z"/>
		</g>
	</g>
	<path class="avocado_een" d="M6,4c-2.518,1.889-4,4.852-4,8v16h28V12L6,4z M6.198,5.12L26.838,12H3
		C3,9.354,4.187,6.819,6.198,5.12z M29,27H3V13h26V27z"/>
</g>
</svg>