<?xml version="1.0" encoding="utf-8"?>
<svg version="1.1" xmlns="http://www.w3.org/2000/svg" xmlns:xlink="http://www.w3.org/1999/xlink" 
	 width="800px" height="800px" viewBox="0 0 32 32" xml:space="preserve">
<style type="text/css">
	.avocado_zeventien{fill:#CC4121;}
	.avocado_een{fill:#231F20;}
	.avocado_zeven{fill:#788287;}
	.avocado_twintig{fill:#EAD13F;}
	.avocado_negen{fill:#6F9B45;}
	.st0{fill:#A3AEB5;}
	.st1{fill:#FFFAEE;}
	.st2{fill:#DBD2C1;}
	.st3{fill:#3D3935;}
	.st4{fill:#8D3E93;}
	.st5{fill:#BF63C1;}
	.st6{fill:#C3CC6A;}
	.st7{fill:#E0A838;}
	.st8{fill:#231F20;}
	.st9{fill:none;}
</style>
<g>
	<polygon class="avocado_zeven" points="27.5,5.691 27.5,4.5 22.5,4.5 22.5,2.5 9.5,2.5 9.5,4.5 4.5,4.5 4.5,5.691 9.5,8.191 
		9.5,12.5 4.5,12.5 4.5,13.691 9.5,16.191 9.5,20.5 4.5,20.5 4.5,21.691 9.5,24.191 9.5,29.5 22.5,29.5 22.5,24.191 27.5,21.691 
		27.5,20.5 22.5,20.5 22.5,16.191 27.5,13.691 27.5,12.5 22.5,12.5 22.5,8.191 	"/>
	<circle class="avocado_zeventien" cx="16" cy="8" r="2.5"/>
	<g>
		<circle class="avocado_twintig" cx="16" cy="16" r="2.5"/>
		<g>
			<path class="st9" d="M16,14.5c0.827,0,1.5,0.673,1.5,1.5s-0.673,1.5-1.5,1.5s-1.5-0.673-1.5-1.5S15.173,14.5,16,14.5 M16,13.5
				c-1.378,0-2.5,1.122-2.5,2.5s1.122,2.5,2.5,2.5s2.5-1.122,2.5-2.5S17.378,13.5,16,13.5L16,13.5z"/>
		</g>
	</g>
	<circle class="avocado_negen" cx="16" cy="24" r="2.5"/>
	<path class="avocado_een" d="M28,6V4h-5V2H9v2H4v2l5,2.5V12H4v2l5,2.5V20H4v2l5,2.5V30h14v-5.5l5-2.5v-2h-5v-3.5l5-2.5v-2h-5V8.5
		L28,6z M27,5v0.382l-4,2V5H27z M5,5.382V5h4v2.382L5,5.382z M5,13.382V13h4v2.382L5,13.382z M5,21.382V21h4v2.382L5,21.382z M27,21
		v0.382l-4,2V21H27z M27,13v0.382l-4,2V13H27z M22,29H10V3h12V29z M16,5c-1.657,0-3,1.343-3,3s1.343,3,3,3s3-1.343,3-3
		S17.657,5,16,5z M16,10c-1.103,0-2-0.897-2-2s0.897-2,2-2s2,0.897,2,2S17.103,10,16,10z M16,13c-1.657,0-3,1.343-3,3s1.343,3,3,3
		s3-1.343,3-3S17.657,13,16,13z M16,18c-1.103,0-2-0.897-2-2s0.897-2,2-2s2,0.897,2,2S17.103,18,16,18z M16,21c-1.657,0-3,1.343-3,3
		s1.343,3,3,3s3-1.343,3-3S17.657,21,16,21z M16,26c-1.103,0-2-0.897-2-2s0.897-2,2-2s2,0.897,2,2S17.103,26,16,26z"/>
</g>
</svg>