<?xml version="1.0" encoding="utf-8"?>
<svg version="1.1" xmlns="http://www.w3.org/2000/svg" xmlns:xlink="http://www.w3.org/1999/xlink" 
	 width="800px" height="800px" viewBox="0 0 32 32" xml:space="preserve">
<style type="text/css">
	.avocado_een{fill:#231F20;}
	.avocado_zeven{fill:#788287;}
	.avocado_acht{fill:#A3AEB5;}
	.st0{fill:#E0A838;}
	.st1{fill:#EAD13F;}
	.st2{fill:#FFFAEE;}
	.st3{fill:#DBD2C1;}
	.st4{fill:#3D3935;}
	.st5{fill:#6F9B45;}
	.st6{fill:#CC4121;}
	.st7{fill:#E598A3;}
	.st8{fill:#D36781;}
	.st9{fill:#8D3E93;}
	.st10{fill:#BF63C1;}
	.st11{fill:#AF9480;}
	.st12{fill:#716558;}
	.st13{fill:#0E608E;}
	.st14{fill:#248EBC;}
	.st15{fill:#D1712A;}
	.st16{fill:#C3CC6A;}
</style>
<g>
	<path class="avocado_zeven" d="M18.5,18.772l2.184-1.56c3.016-2.154,4.816-5.652,4.816-9.358V4.999l0.165-0.149
		C26.203,4.365,26.5,3.708,26.5,3c0-1.378-1.121-2.5-2.5-2.5S21.5,1.622,21.5,3c0,0.708,0.297,1.365,0.835,1.85L22.5,4.999v2.855
		c0,2.739-1.33,5.325-3.559,6.917L17,16.157l-1.941-1.386C12.83,13.179,11.5,10.593,11.5,7.854V4.999l0.165-0.149
		C12.203,4.365,12.5,3.708,12.5,3c0-1.378-1.121-2.5-2.5-2.5S7.5,1.622,7.5,3c0,0.708,0.297,1.365,0.835,1.85L8.5,4.999v2.855
		c0,3.706,1.801,7.204,4.816,9.358l2.184,1.56V25c0,1.93-1.57,3.5-3.5,3.5S8.5,26.93,8.5,25v-2c0-0.827-0.673-1.5-1.5-1.5
		S5.5,22.173,5.5,23v2c0,3.584,2.916,6.5,6.5,6.5s6.5-2.916,6.5-6.5V18.772z"/>
	<g>
		<path class="avocado_acht" d="M11,3c0,0.552-0.448,1-1,1S9,3.552,9,3s0.448-1,1-1S11,2.448,11,3z M24,2
			c-0.552,0-1,0.448-1,1s0.448,1,1,1s1-0.448,1-1S24.552,2,24,2z M5.5,25v-2c0-0.827,0.673-1.5,1.5-1.5s1.5,0.673,1.5,1.5v2
			c0,0.369,0.073,0.718,0.18,1.053C9.76,25.457,10.5,24.321,10.5,23c0-1.933-1.567-3.5-3.5-3.5S3.5,21.067,3.5,23
			c0,1.442,0.873,2.678,2.118,3.214C5.543,25.82,5.5,25.415,5.5,25z"/>
	</g>
	<path class="avocado_een" d="M24,0c-1.657,0-3,1.343-3,3c0,0.885,0.39,1.672,1,2.221v2.633c0,2.578-1.252,5.012-3.35,6.51
		L17,15.542l-1.65-1.179C13.252,12.866,12,10.432,12,7.854V5.221C12.61,4.672,13,3.885,13,3c0-1.657-1.343-3-3-3S7,1.343,7,3
		c0,0.885,0.39,1.672,1,2.221v2.633c0,3.867,1.878,7.518,5.025,9.765L15,19.029V25c0,1.654-1.346,3-3,3
		c-1.204,0-2.238-0.717-2.715-1.743C10.317,25.535,11,24.352,11,23c0-2.206-1.794-4-4-4c-2.206,0-4,1.794-4,4
		c0,1.546,0.888,2.876,2.176,3.539C5.88,29.66,8.669,32,12,32c3.86,0,7-3.14,7-7v-5.971l1.975-1.411
		C24.122,15.372,26,11.721,26,7.854V5.221C26.61,4.672,27,3.885,27,3C27,1.343,25.657,0,24,0z M4,23c0-1.657,1.343-3,3-3
		s3,1.343,3,3c0,0.872-0.386,1.64-0.981,2.186C9.015,25.123,9,25.064,9,25v-2c0-1.104-0.896-2-2-2s-2,0.896-2,2v2
		c0,0.075,0.009,0.148,0.011,0.223C4.395,24.676,4,23.889,4,23z M25.331,4.478L25,4.776v3.078c0,3.545-1.722,6.891-4.606,8.951
		L18,18.514V25c0,3.308-2.692,6-6,6s-6-2.692-6-6v-2c0-0.551,0.449-1,1-1s1,0.449,1,1v2c0,2.206,1.794,4,4,4c2.206,0,4-1.794,4-4
		v-6.486l-2.394-1.71C10.722,14.745,9,11.399,9,7.854V4.776L8.669,4.478C8.238,4.09,8,3.565,8,3c0-1.103,0.897-2,2-2
		c1.103,0,2,0.897,2,2c0,0.565-0.238,1.09-0.669,1.478L11,4.776v3.078c0,2.9,1.409,5.638,3.769,7.323L17,16.771l2.231-1.594
		C21.591,13.492,23,10.754,23,7.854V4.776l-0.331-0.298C22.238,4.09,22,3.565,22,3c0-1.103,0.897-2,2-2c1.103,0,2,0.897,2,2
		C26,3.565,25.762,4.09,25.331,4.478z"/>
</g>
</svg>