<?xml version="1.0" encoding="utf-8"?>
<svg version="1.1" xmlns="http://www.w3.org/2000/svg" xmlns:xlink="http://www.w3.org/1999/xlink" 
	 width="800px" height="800px" viewBox="0 0 32 32" xml:space="preserve">
<style type="text/css">
	.avocado_een{fill:#231F20;}
	.avocado_zeventien{fill:#CC4121;}
	.avocado_achttien{fill:#D1712A;}
	.avocado_negentien{fill:#E0A838;}
	.st0{fill:#EAD13F;}
	.st1{fill:#788287;}
	.st2{fill:#FFFAEE;}
	.st3{fill:#DBD2C1;}
	.st4{fill:#3D3935;}
	.st5{fill:#6F9B45;}
	.st6{fill:#E598A3;}
	.st7{fill:#D36781;}
	.st8{fill:#8D3E93;}
	.st9{fill:#BF63C1;}
	.st10{fill:#A3AEB5;}
	.st11{fill:#AF9480;}
	.st12{fill:#716558;}
	.st13{fill:#0E608E;}
	.st14{fill:#248EBC;}
	.st15{fill:#C3CC6A;}
</style>
<g>
	<g>
		<circle class="avocado_achttien" cx="16" cy="16" r="11.5"/>
	</g>
	<path class="avocado_zeventien" d="M16,29.5C8.556,29.5,2.5,23.444,2.5,16S8.556,2.5,16,2.5S29.5,8.556,29.5,16
		S23.444,29.5,16,29.5z M16,4.5C9.659,4.5,4.5,9.659,4.5,16S9.659,27.5,16,27.5S27.5,22.341,27.5,16S22.341,4.5,16,4.5z"/>
	<g>
		<g>
			<path class="avocado_negentien" d="M16,22.5c-4.136,0-7.5-3.364-7.5-7.5c0-0.827,0.673-1.5,1.5-1.5s1.5,0.673,1.5,1.5
				c0,2.481,2.019,4.5,4.5,4.5c0.827,0,1.5,0.673,1.5,1.5S16.827,22.5,16,22.5z M22,19.5c-0.827,0-1.5-0.673-1.5-1.5
				s0.673-1.5,1.5-1.5s1.5,0.673,1.5,1.5S22.827,19.5,22,19.5z M17,16.5c-0.827,0-1.5-0.673-1.5-1.5c0-3.032,2.468-5.5,5.5-5.5
				c0.827,0,1.5,0.673,1.5,1.5s-0.673,1.5-1.5,1.5c-1.379,0-2.5,1.121-2.5,2.5C18.5,15.827,17.827,16.5,17,16.5z"/>
		</g>
	</g>
	<path class="avocado_een" d="M16,2C8.268,2,2,8.268,2,16s6.268,14,14,14s14-6.268,14-14S23.732,2,16,2z M16,29
		C8.832,29,3,23.168,3,16S8.832,3,16,3s13,5.832,13,13S23.168,29,16,29z M16,4C9.383,4,4,9.383,4,16s5.383,12,12,12s12-5.383,12-12
		S22.617,4,16,4z M16,27C9.925,27,5,22.075,5,16S9.925,5,16,5s11,4.925,11,11S22.075,27,16,27z M16,19c-2.206,0-4-1.794-4-4
		c0-1.104-0.896-2-2-2s-2,0.896-2,2c0,4.411,3.589,8,8,8c1.104,0,2-0.896,2-2S17.104,19,16,19z M16,22c-3.86,0-7-3.14-7-7
		c0-0.551,0.449-1,1-1s1,0.449,1,1c0,2.757,2.243,5,5,5c0.551,0,1,0.449,1,1S16.551,22,16,22z M23,11c0-1.104-0.896-2-2-2
		c-3.309,0-6,2.691-6,6c0,1.104,0.896,2,2,2s2-0.896,2-2c0-1.103,0.897-2,2-2C22.104,13,23,12.104,23,11z M18,15
		c0,0.551-0.449,1-1,1s-1-0.449-1-1c0-2.757,2.243-5,5-5c0.551,0,1,0.449,1,1s-0.449,1-1,1C19.346,12,18,13.346,18,15z M22,16
		c-1.105,0-2,0.895-2,2s0.895,2,2,2s2-0.895,2-2S23.105,16,22,16z M22,19c-0.551,0-1-0.449-1-1s0.449-1,1-1s1,0.449,1,1
		S22.551,19,22,19z"/>
</g>
</svg>