<?xml version="1.0" encoding="utf-8"?>
<svg version="1.1" xmlns="http://www.w3.org/2000/svg" xmlns:xlink="http://www.w3.org/1999/xlink" 
	 width="800px" height="800px" viewBox="0 0 32 32" xml:space="preserve">
<style type="text/css">
	.avocado_een{fill:#231F20;}
	.avocado_twee{fill:#3D3935;}
	.avocado_vijf{fill:#DBD2C1;}
	.st0{fill:#E0A838;}
	.st1{fill:#EAD13F;}
	.st2{fill:#788287;}
	.st3{fill:#FFFAEE;}
	.st4{fill:#6F9B45;}
	.st5{fill:#CC4121;}
	.st6{fill:#E598A3;}
	.st7{fill:#D36781;}
	.st8{fill:#8D3E93;}
	.st9{fill:#BF63C1;}
	.st10{fill:#A3AEB5;}
	.st11{fill:#AF9480;}
	.st12{fill:#716558;}
	.st13{fill:#0E608E;}
	.st14{fill:#248EBC;}
	.st15{fill:#D1712A;}
	.st16{fill:#C3CC6A;}
</style>
<g>
	<g>
		<path class="avocado_twee" d="M16,26.935c-4.887,0-9.717-0.758-14.366-2.253L7.317,7.629C10.13,8.513,13.048,8.961,16,8.961
			s5.87-0.448,8.683-1.332l5.685,17.053C25.718,26.177,20.887,26.935,16,26.935z"/>
	</g>
	<g>
		<g>
			<path class="avocado_vijf" d="M7,22.768c-0.339,0-0.657-0.132-0.896-0.372c-0.239-0.24-0.371-0.558-0.371-0.896
				s0.132-0.657,0.371-0.896l2.73-2.73c0.284-0.283,0.661-0.439,1.062-0.439c0.231,0,0.463,0.055,0.67,0.158l3.033,1.517
				l1.608-1.608L13.5,15.793V13.5c0-0.551,0.448-1,1-1s1,0.449,1,1v1.707l3.759,3.759l-3.757,3.13
				c-0.448,0.374-1.056,0.58-1.601,0.58s-1.063-0.173-1.5-0.5L9.953,20.34l-2.057,2.057C7.657,22.636,7.339,22.768,7,22.768z
				 M20.5,12.5c-1.657,0-3,1.343-3,3s1.343,3,3,3s3-1.343,3-3S22.157,12.5,20.5,12.5z"/>
		</g>
	</g>
	<path class="avocado_een" d="M25,7c-2.921,0.974-5.96,1.46-9,1.46c-3.039,0-6.079-0.487-9-1.46l-5.999,18
		c4.868,1.623,9.933,2.434,14.999,2.434c5.065,0,10.131-0.811,14.999-2.434L25,7z M16,26.435c-4.668,0-9.285-0.699-13.732-2.077
		l5.37-16.109C10.353,9.054,13.162,9.461,16,9.461c2.838,0,5.647-0.407,8.362-1.212l5.37,16.109
		C25.281,25.737,20.666,26.435,16,26.435z M20.5,12c-1.933,0-3.5,1.567-3.5,3.5c0,0.19,0.027,0.374,0.056,0.556L16,15v-1.5
		c0-0.828-0.672-1.5-1.5-1.5c-0.828,0-1.5,0.672-1.5,1.5V16l1.5,1.5l-1,1l-2.711-1.355c-0.284-0.142-0.59-0.211-0.894-0.211
		c-0.519,0-1.031,0.202-1.415,0.586L5.75,20.25c-0.69,0.69-0.69,1.81,0,2.5c0.345,0.345,0.798,0.518,1.25,0.518
		c0.452,0,0.905-0.173,1.25-0.518L10,21l2.102,1.576c0.534,0.401,1.168,0.6,1.8,0.6c0.684,0,1.366-0.233,1.921-0.695L20,19
		l-0.056-0.056C20.126,18.973,20.31,19,20.5,19c1.933,0,3.5-1.567,3.5-3.5S22.433,12,20.5,12z M15.182,21.713
		c-0.359,0.299-0.813,0.464-1.281,0.464c-0.436,0-0.851-0.138-1.2-0.4L9.906,19.68l-2.363,2.363C7.398,22.188,7.205,22.268,7,22.268
		s-0.398-0.08-0.543-0.225c-0.145-0.145-0.225-0.338-0.225-0.543s0.08-0.398,0.225-0.543l2.731-2.731
		c0.189-0.189,0.44-0.293,0.708-0.293c0.156,0,0.306,0.036,0.447,0.106l3.355,1.678l2.217-2.217L14,15.586V13.5
		c0-0.276,0.224-0.5,0.5-0.5c0.276,0,0.5,0.224,0.5,0.5v1.914l3.519,3.519L15.182,21.713z M20.5,18c-1.378,0-2.5-1.122-2.5-2.5
		s1.122-2.5,2.5-2.5c1.379,0,2.5,1.122,2.5,2.5S21.879,18,20.5,18z"/>
</g>
</svg>