<?xml version="1.0" encoding="utf-8"?>
<svg version="1.1" xmlns="http://www.w3.org/2000/svg" xmlns:xlink="http://www.w3.org/1999/xlink"  width="800px"
	 height="800px" viewBox="0 0 32 32" xml:space="preserve">
<style type="text/css">
	.avocado_een{fill:#231F20;}
	.avocado_zeven{fill:#788287;}
	.avocado_acht{fill:#A3AEB5;}
	.st0{fill:#231F20;}
	.st1{fill:#0B1719;}
	.st2{fill:#EAD13F;}
	.st3{fill:#E0A838;}
	.st4{fill:#FFFAEE;}
	.st5{fill:#DBD2C1;}
	.st6{fill:#3D3935;}
	.st7{fill:#6F9B45;}
	.st8{fill:#CC4121;}
	.st9{fill:#E598A3;}
	.st10{fill:#D36781;}
	.st11{fill:#8D3E93;}
	.st12{fill:#BF63C1;}
	.st13{fill:#AF9480;}
	.st14{fill:#716558;}
	.st15{fill:#0E608E;}
	.st16{fill:#248EBC;}
	.st17{fill:#D1712A;}
	.st18{fill:#C3CC6A;}
</style>
<g id="LABELS">
</g>
<g>
	<g>
		<path class="avocado_zeven" d="M5,26.5c-2.481,0-4.5-2.019-4.5-4.5V11c0-3.033,2.467-5.5,5.5-5.5h11c3.033,0,5.5,2.467,5.5,5.5
			v3.5H24c0.996,0,1.952,0.44,2.624,1.208L27,16.139l0.376-0.43C28.048,14.94,29.004,14.5,30,14.5h1.5V16
			c0,1.586-1.08,2.974-2.625,3.375L28.5,19.471V22c0,2.481-2.019,4.5-4.5,4.5H5z M22.5,19c0,1.378,1.122,2.5,2.5,2.5h0.5v-2.028
			l-0.375-0.097c-0.671-0.174-1.276-0.55-1.75-1.088L22.5,17.293V19z"/>
		<g>
			<path class="avocado_acht" d="M16.5,26.5h-11c-2.761,0-5-2.239-5-5v-3H14c1.381,0,2.5,1.119,2.5,2.5V26.5z"/>
		</g>
		<path class="avocado_een" d="M30,14c-1.202,0-2.267,0.541-3,1.38C26.267,14.541,25.202,14,24,14h-1v-3c0-3.314-2.686-6-6-6H6
			c-3.314,0-6,2.686-6,6v11c0,2.761,2.239,5,5,5h19c2.761,0,5-2.239,5-5v-2.141c1.722-0.446,3-1.997,3-3.859v-2H30z M23,18.617
			c0.522,0.593,1.21,1.037,2,1.242V21c-1.105,0-2-0.895-2-2V18.617z M1,22v-3h3v6.859C2.278,25.412,1,23.862,1,22z M5,19h3v7H5V19z
			 M16,26h-3v-7h1c1.105,0,2,0.895,2,2V26z M12,26H9v-7h3V26z M31,16c0,1.359-0.926,2.547-2.251,2.891L28,19.085V22
			c0,2.209-1.791,4-4,4h-7v-5c0-1.657-1.343-3-3-3H1v-7c0-2.761,2.239-5,5-5h11c2.761,0,5,2.239,5,5v8c0,1.657,1.343,3,3,3h1v-2.915
			l-0.749-0.194C23.926,18.547,23,17.359,23,16v-1h1c0.864,0,1.662,0.369,2.247,1.038L27,16.899l0.753-0.861
			C28.338,15.369,29.136,15,30,15h1V16z M7,15H5v-2h2V15z M12,15h-2v-2h2V15z"/>
	</g>
</g>
</svg>