<?xml version="1.0" encoding="utf-8"?>
<svg version="1.1" xmlns="http://www.w3.org/2000/svg" xmlns:xlink="http://www.w3.org/1999/xlink"  width="800px"
	 height="800px" viewBox="0 0 32 32" xml:space="preserve">
<style type="text/css">
	.avocado_een{fill:#231F20;}
	.avocado_zes{fill:#FFFAEE;}
	.avocado_negen{fill:#6F9B45;}
	.avocado_zeventien{fill:#CC4121;}
	.avocado_twintig{fill:#EAD13F;}
	.st0{fill:#231F20;}
	.st1{fill:#0B1719;}
	.st2{fill:#A3AEB5;}
	.st3{fill:#DBD2C1;}
	.st4{fill:#3D3935;}
	.st5{fill:#8D3E93;}
	.st6{fill:#BF63C1;}
	.st7{fill:#C3CC6A;}
	.st8{fill:#E0A838;}
	.st9{fill:#788287;}
	.st10{fill:none;}
	.st11{fill:#D1712A;}
	.st12{fill:#AF9480;}
	.st13{fill:#716558;}
</style>
<g id="LABELS">
</g>
<g>
	<g>
		<g>
			<path class="avocado_twintig" d="M16,8.5c0.51,0,1.008,0.045,1.5,0.109V6.5h-3v2.109C14.992,8.545,15.49,8.5,16,8.5z"/>
		</g>
		<circle class="avocado_zeventien" cx="16" cy="20" r="11.5"/>
		<path class="avocado_negen" d="M4.5,20c0,0.86,0.102,1.694,0.281,2.5h22.439c0.179-0.806,0.281-1.64,0.281-2.5
			c0-0.86-0.102-1.694-0.281-2.5H4.781C4.602,18.306,4.5,19.14,4.5,20z"/>
		<path class="avocado_zes" d="M4.781,22.5h22.439c-0.236,1.062-0.612,2.071-1.119,3H5.899C5.392,24.571,5.016,23.562,4.781,22.5z
			 M4.781,17.5h22.439c-0.236-1.062-0.612-2.071-1.119-3H5.899C5.392,15.429,5.016,16.438,4.781,17.5z"/>
		<path class="avocado_een" d="M18,8.18V6h-1V5.207l0.414-0.414C17.786,4.421,18,3.905,18,3.379V2c0-1.103-0.897-2-2-2s-2,0.897-2,2
			v0.5h1V2c0-0.551,0.448-1,1-1s1,0.449,1,1v1.379c0,0.263-0.106,0.521-0.293,0.707L16,4.793V6h-2v2.18C8.327,9.134,4,14.056,4,20
			c0,6.627,5.373,12,12,12s12-5.373,12-12C28,14.056,23.673,9.134,18,8.18z M27,20c0,0.684-0.071,1.35-0.191,2H5.191
			C5.071,21.35,5,20.684,5,20s0.071-1.35,0.191-2h21.618C26.929,18.65,27,19.316,27,20z M26.574,23
			c-0.198,0.698-0.463,1.366-0.788,2H6.214c-0.325-0.634-0.59-1.302-0.788-2H26.574z M5.426,17c0.198-0.698,0.463-1.366,0.788-2
			h19.571c0.325,0.634,0.59,1.302,0.788,2H5.426z M15,7h2v1.05C16.669,8.023,16.338,8,16,8s-0.669,0.023-1,0.05V7z M16,9
			c3.852,0,7.242,1.994,9.208,5H6.792C8.758,10.994,12.148,9,16,9z M16,31c-3.852,0-7.242-1.994-9.208-5h18.415
			C23.242,29.006,19.852,31,16,31z"/>
	</g>
</g>
</svg>