<?xml version="1.0" encoding="utf-8"?>
<svg version="1.1" xmlns="http://www.w3.org/2000/svg" xmlns:xlink="http://www.w3.org/1999/xlink" 
	 width="800px" height="800px" viewBox="0 0 32 32" xml:space="preserve">
<style type="text/css">
	.avocado_een{fill:#231F20;}
	.avocado_zes{fill:#FFFAEE;}
	.avocado_negen{fill:#6F9B45;}
	.avocado_twintig{fill:#EAD13F;}
	.st0{fill:#E0A838;}
	.st1{fill:#788287;}
	.st2{fill:#DBD2C1;}
	.st3{fill:#3D3935;}
	.st4{fill:#CC4121;}
	.st5{fill:#E598A3;}
	.st6{fill:#D36781;}
	.st7{fill:#8D3E93;}
	.st8{fill:#BF63C1;}
	.st9{fill:#A3AEB5;}
	.st10{fill:#AF9480;}
	.st11{fill:#716558;}
	.st12{fill:#0E608E;}
	.st13{fill:#248EBC;}
	.st14{fill:#D1712A;}
	.st15{fill:#C3CC6A;}
</style>
<g>
	<path class="avocado_negen" d="M14.5,31.5v-5.167l-0.358-0.106C11.388,25.406,9.5,22.874,9.5,20v-8.641L5.777,12.29
		c-0.041,0.011-0.082,0.016-0.122,0.016c-0.215,0-0.406-0.138-0.474-0.343l-0.416-1.248c-0.082-0.246,0.038-0.515,0.277-0.617
		l3.291-1.411c0.421-0.181,0.87-0.242,1.328-0.181c0.938,0.126,1.701,0.829,2.041,1.712l3.831,9.961
		c0.164,0.427,0.769,0.427,0.933,0l3.831-9.96c0.34-0.883,1.102-1.586,2.039-1.713c0.459-0.062,0.908-0.001,1.329,0.181l3.292,1.41
		c0.239,0.102,0.359,0.371,0.277,0.617l-0.416,1.248c-0.068,0.205-0.259,0.343-0.474,0.343l0,0c-0.041,0-0.082-0.005-0.122-0.016
		L22.5,11.359V20c0,2.874-1.888,5.406-4.642,6.227L17.5,26.333V31.5H14.5z"/>
	<g>
		<path class="avocado_twintig" d="M11.702,10.219l3.831,9.961c0.164,0.427,0.769,0.427,0.933,0l3.831-9.96
			c0.216-0.562,0.616-1.03,1.11-1.344C20.938,5.56,18.634,0.5,16,0.5s-4.938,5.06-5.408,8.375
			C11.087,9.189,11.486,9.657,11.702,10.219z"/>
	</g>
	<path class="avocado_zes" d="M15,5c0,0.552-0.448,1-1,1s-1-0.448-1-1s0.448-1,1-1S15,4.448,15,5z M16,2c-0.552,0-1,0.448-1,1
		s0.448,1,1,1c0.552,0,1-0.448,1-1S16.552,2,16,2z M16,6c-0.552,0-1,0.448-1,1s0.448,1,1,1c0.552,0,1-0.448,1-1S16.552,6,16,6z"/>
	<path class="avocado_een" d="M27.154,9.638l-3.291-1.41c-0.386-0.165-0.787-0.243-1.18-0.243
		c-0.307,0-0.609,0.049-0.898,0.139C21.091,4.656,18.766,0,16,0s-5.091,4.656-5.785,8.123C9.926,8.032,9.624,7.984,9.317,7.984
		c-0.394,0-0.795,0.078-1.18,0.243l-3.291,1.41c-0.478,0.205-0.719,0.742-0.555,1.235l0.416,1.249
		c0.139,0.416,0.527,0.684,0.948,0.684c0.08,0,0.162-0.01,0.243-0.03L9,12v8c0,3.17,2.109,5.845,5,6.706V32h4v-5.294
		c2.891-0.861,5-3.536,5-6.706v-8l3.102,0.775c0.081,0.02,0.163,0.03,0.243,0.03c0.421,0,0.809-0.268,0.948-0.684l0.416-1.249
		C27.873,10.38,27.632,9.842,27.154,9.638z M16,1c2.105,0,4.31,4.388,4.862,7.609c-0.425,0.325-0.774,0.761-0.98,1.299L16,20
		L12.118,9.908c-0.207-0.538-0.555-0.974-0.98-1.299C11.69,5.388,13.895,1,16,1z M26.344,11.805l-3.102-0.775
		C23.162,11.01,23.081,11,23,11c-0.221,0-0.438,0.073-0.615,0.212C22.142,11.401,22,11.692,22,12v8c0,2.633-1.762,4.996-4.285,5.748
		C17.291,25.874,17,26.264,17,26.706V31h-2v-4.294c0-0.442-0.291-0.832-0.715-0.958C11.762,24.996,10,22.633,10,20v-8
		c0-0.308-0.142-0.599-0.385-0.788C9.438,11.073,9.221,11,9,11c-0.081,0-0.162,0.01-0.242,0.03l-3.102,0.775L5.24,10.557l3.291-1.41
		c0.252-0.108,0.516-0.163,0.786-0.163c0.822,0,1.573,0.516,1.868,1.283l3.882,10.092C15.215,20.745,15.586,21,16,21
		s0.785-0.255,0.933-0.641l3.882-10.092c0.295-0.767,1.046-1.283,1.868-1.283c0.27,0,0.535,0.055,0.786,0.163l3.291,1.41
		L26.344,11.805z"/>
</g>
</svg>