<?xml version="1.0" encoding="utf-8"?>
<svg version="1.1" xmlns="http://www.w3.org/2000/svg" xmlns:xlink="http://www.w3.org/1999/xlink" 
	 width="800px" height="800px" viewBox="0 0 32 32" xml:space="preserve">
<style type="text/css">
	.avocado_een{fill:#231F20;}
	.avocado_zes{fill:#FFFAEE;}
	.avocado_vijftien{fill:#D36781;}
	.avocado_zestien{fill:#E598A3;}
	.avocado_zeventien{fill:#CC4121;}
	.st0{fill:#EAD13F;}
	.st1{fill:#E0A838;}
	.st2{fill:#788287;}
	.st3{fill:#DBD2C1;}
	.st4{fill:#3D3935;}
	.st5{fill:#6F9B45;}
	.st6{fill:#8D3E93;}
	.st7{fill:#BF63C1;}
	.st8{fill:#A3AEB5;}
	.st9{fill:#AF9480;}
	.st10{fill:#716558;}
	.st11{fill:#0E608E;}
	.st12{fill:#248EBC;}
	.st13{fill:#D1712A;}
	.st14{fill:#C3CC6A;}
	.st15{fill:#0B1719;}
	.st16{fill:#231F20;}
</style>
<g>
	<g>
		<polygon class="avocado_zestien" points="30.5,31.5 30.5,12.481 16,23.002 1.5,12.464 1.5,31.5 		"/>
	</g>
	<polygon class="avocado_vijftien" points="16,0.625 1.5,12.464 16,23 30.497,12.481 	"/>
	<polygon class="avocado_zes" points="5.5,3.5 5.5,15.372 16,23 26.5,15.377 26.5,3.5 	"/>
	<path class="avocado_zeventien" d="M16.002,17.839C14.857,17.034,10.5,13.785,10.5,11c0-1.654,1.346-3,3-3
		c0.811,0,1.571,0.321,2.143,0.905L16,9.271l0.357-0.365C16.929,8.321,17.689,8,18.5,8c1.654,0,3,1.346,3,3
		C21.5,13.509,17.764,16.619,16.002,17.839z"/>
	<path class="avocado_een" d="M31,12v20H1V12l4-3.2V3h7.25L16,0l3.75,3H27v5.8L31,12z M27,10.081v4.315l2.828-2.053L27,10.081z
		 M13.851,3h4.298L16,1.281L13.851,3z M6,4v11.117l10,7.265l10-7.26V4H6z M2.177,12.339L5,14.391v-4.31L2.177,12.339z M2,30.293
		l9.757-9.757L2,13.447V30.293z M29.293,31l-9.868-9.868L16,23.618l-3.424-2.487L2.707,31H29.293z M30,13.454l-9.756,7.083
		L30,30.293V13.454z M16,18.45l-0.286-0.201C13.996,17.038,10,13.907,10,11c0-1.93,1.57-3.5,3.5-3.5c0.946,0,1.834,0.375,2.5,1.056
		l0,0C16.666,7.875,17.554,7.5,18.5,7.5c1.93,0,3.5,1.57,3.5,3.5c0,3.199-5.128,6.846-5.713,7.251L16,18.45z M13.5,8.5
		C12.122,8.5,11,9.621,11,11c0,1.919,2.533,4.433,5.003,6.227C17.882,15.867,21,13.08,21,11c0-1.379-1.122-2.5-2.5-2.5
		c-0.675,0-1.309,0.269-1.785,0.755L16,9.985l-0.715-0.73C14.809,8.769,14.175,8.5,13.5,8.5z"/>
</g>
</svg>