<?xml version="1.0" encoding="utf-8"?>
<svg version="1.1" xmlns="http://www.w3.org/2000/svg" xmlns:xlink="http://www.w3.org/1999/xlink"  width="800px"
	 height="800px" viewBox="0 0 32 32" xml:space="preserve">
<style type="text/css">
	.avocado_een{fill:#231F20;}
	.avocado_zeven{fill:#788287;}
	.avocado_acht{fill:#A3AEB5;}
	.st0{fill:#231F20;}
	.st1{fill:#0B1719;}
	.st2{fill:#EAD13F;}
	.st3{fill:#E0A838;}
	.st4{fill:#FFFAEE;}
	.st5{fill:#DBD2C1;}
	.st6{fill:#3D3935;}
	.st7{fill:#6F9B45;}
	.st8{fill:#CC4121;}
	.st9{fill:#E598A3;}
	.st10{fill:#D36781;}
	.st11{fill:#8D3E93;}
	.st12{fill:#BF63C1;}
	.st13{fill:#AF9480;}
	.st14{fill:#716558;}
	.st15{fill:#0E608E;}
	.st16{fill:#248EBC;}
	.st17{fill:#D1712A;}
	.st18{fill:#C3CC6A;}
</style>
<g id="LABELS">
</g>
<g>
	<g>
		<g>
			<path class="avocado_acht" d="M14.641,26.5l1.154-4.617l-0.46-0.136c-3.296-0.974-6.28-2.652-8.204-3.889l-0.469-0.301
				l-1.728,3.455C4.168,22.547,2.625,23.5,0.91,23.5h-0.27L2.266,17l-1.625-6.5h0.27c1.715,0,3.258,0.953,4.024,2.487l1.728,3.455
				l0.469-0.301c2.049-1.317,5.214-3.085,8.659-4.021l0.473-0.129L14.641,5.5h0.27c1.715,0,3.258,0.953,4.024,2.487l1.771,3.541
				l0.281,0.022c5.409,0.433,9.312,4.31,10.35,5.449c-1.101,1.21-5.424,5.5-11.336,5.5h-0.309l-0.757,1.513
				c-0.767,1.534-2.31,2.487-4.024,2.487H14.641z"/>
		</g>
		<path class="avocado_een" d="M25,16h-2v-2h2V16z M32,17c0,0-4.82,6-12,6l-0.618,1.236C18.535,25.93,16.804,27,14.91,27H14
			l1.193-4.773c-3.379-0.998-6.462-2.745-8.333-3.947l-1.478,2.957C4.535,22.93,2.804,24,0.91,24H0l1.75-7L0,10h0.91
			c1.894,0,3.625,1.07,4.472,2.764l1.478,2.957c1.956-1.257,5.24-3.115,8.799-4.083L14,5h0.91c1.894,0,3.625,1.07,4.472,2.764
			l1.644,3.289C27.633,11.581,32,17,32,17z M6.382,17l-1.894-3.789c-0.625-1.251-1.831-2.067-3.202-2.194L2.781,17l-1.496,5.983
			c1.372-0.127,2.577-0.943,3.202-2.194L6.382,17z M20,22c4.274,0,7.7-2.338,9.596-4H27v1h-1v-1h-1v1h-1v-1h-1v-1h7.649
			c-1.339-1.377-4.926-4.569-9.702-4.951l-0.562-0.045l-1.897-3.793c-0.625-1.251-1.831-2.067-3.202-2.194l1.582,6.329l-0.945,0.257
			c-3.381,0.919-6.5,2.66-8.521,3.959L6.719,17l0.682,0.438c1.553,0.998,4.668,2.823,8.076,3.83l0.919,0.272l-1.111,4.443
			c1.372-0.127,2.577-0.943,3.202-2.194L19.382,22H20z"/>
		<path class="avocado_zeven" d="M21,19h-1v-4h1V19z M19,15h-1v4h1V15z"/>
	</g>
</g>
</svg>