<?xml version="1.0" encoding="utf-8"?>
<svg version="1.1" xmlns="http://www.w3.org/2000/svg" xmlns:xlink="http://www.w3.org/1999/xlink"  width="800px"
	 height="800px" viewBox="0 0 32 32" xml:space="preserve">
<style type="text/css">
	.avocado_een{fill:#231F20;}
	.avocado_zes{fill:#FFFAEE;}
	.avocado_zeventien{fill:#CC4121;}
	.st0{fill:#231F20;}
	.st1{fill:#0B1719;}
	.st2{fill:#A3AEB5;}
	.st3{fill:#6F9B45;}
	.st4{fill:#DBD2C1;}
	.st5{fill:#3D3935;}
	.st6{fill:#EAD13F;}
	.st7{fill:#8D3E93;}
	.st8{fill:#BF63C1;}
	.st9{fill:#C3CC6A;}
	.st10{fill:#E0A838;}
	.st11{fill:#788287;}
	.st12{fill:none;}
	.st13{fill:#D1712A;}
	.st14{fill:#AF9480;}
	.st15{fill:#716558;}
</style>
<g id="LABELS">
</g>
<g>
	<g>
		<path class="avocado_zes" d="M18.5,31.5V9c0-1.93-1.57-3.5-3.5-3.5S11.5,7.07,11.5,9v2.5h-5V9c0-4.687,3.813-8.5,8.5-8.5
			s8.5,3.813,8.5,8.5v22.5H18.5z"/>
		<path class="avocado_zeventien" d="M18.5,10.5V9c0-1.93-1.57-3.5-3.5-3.5c-0.444,0-0.866,0.091-1.257,0.243l-3.662-3.662
			c1.034-0.737,2.237-1.245,3.541-1.459L23.5,10.5v5L18.5,10.5z M11.5,9c0-0.156,0.026-0.304,0.046-0.454L7.688,4.688
			C7.015,5.825,6.602,7.129,6.524,8.524L9.5,11.5h2V9z M23.5,20.5l-5-5v5l5,5V20.5z M18.5,25.5v6h5v-1L18.5,25.5z"/>
		<path class="avocado_een" d="M15,0c-4.971,0-9,4.029-9,9v3h6V9c0-1.657,1.343-3,3-3s3,1.343,3,3v23h6V9C24,4.029,19.971,0,15,0z
			 M23,9v0.293l-8.279-8.279C14.814,1.011,14.906,1,15,1C19.411,1,23,4.589,23,9z M7,9.707L8.293,11H7V9.707z M11,11H9.707
			L7.034,8.327C7.118,7.326,7.389,6.38,7.809,5.516l3.218,3.218C11.021,8.824,11,8.909,11,9V11z M11.276,7.569L8.319,4.612
			C8.788,3.9,9.368,3.269,10.033,2.74l2.869,2.869C12.166,6.067,11.592,6.75,11.276,7.569z M15,5c-0.39,0-0.759,0.073-1.115,0.178
			l-3.016-3.016c0.783-0.475,1.65-0.825,2.578-1.008L23,10.707v3.586l-4-4V9C19,6.794,17.206,5,15,5z M23,19.293l-4-4v-3.586l4,4
			V19.293z M23,24.293l-4-4v-3.586l4,4V24.293z M23,29.293l-4-4v-3.586l4,4V29.293z M23,31h-4v-4.293l4,4V31z"/>
	</g>
</g>
</svg>