<?xml version="1.0" encoding="utf-8"?>
<svg version="1.1" xmlns="http://www.w3.org/2000/svg" xmlns:xlink="http://www.w3.org/1999/xlink" 
	 width="800px" height="800px" viewBox="0 0 32 32" xml:space="preserve">
<style type="text/css">
	.avocado_een{fill:#231F20;}
	.avocado_zeventien{fill:#CC4121;}
	.avocado_twintig{fill:#EAD13F;}
	.avocado_achttien{fill:#D1712A;}
	.avocado_negen{fill:#6F9B45;}
	.avocado_twaalf{fill:#248EBC;}
	.avocado_dertien{fill:#8D3E93;}
	.st0{fill:#FFFAEE;}
	.st1{fill:#E0A838;}
	.st2{fill:#A3AEB5;}
	.st3{fill:#788287;}
	.st4{fill:#C3CC6A;}
	.st5{fill:#3D3935;}
	.st6{fill:#D36781;}
	.st7{fill:#E598A3;}
	.st8{fill:#716558;}
	.st9{fill:#AF9480;}
	.st10{fill:#DBD2C1;}
	.st11{fill:#231F20;}
</style>
<g>
	<path class="avocado_twaalf" d="M9.013,27.538C9.211,22.913,11.694,18.486,16,16c-4.309-2.488-9.39-2.421-13.496-0.275
		C2.413,20.393,4.756,24.961,9.013,27.538z"/>
	<g>
		<path class="avocado_achttien" d="M22.987,4.462C22.789,9.087,20.306,13.514,16,16c4.309,2.488,9.39,2.421,13.496,0.275
			C29.587,11.607,27.244,7.039,22.987,4.462z"/>
	</g>
	<g>
		<path class="avocado_dertien" d="M22.499,27.82C18.593,25.336,16,20.972,16,16c-4.309,2.488-6.791,6.921-6.986,11.55
			C13.011,29.963,18.139,30.218,22.499,27.82z"/>
	</g>
	<g>
		<path class="avocado_twintig" d="M9.501,4.18C13.407,6.664,16,11.028,16,16c4.309-2.488,6.791-6.921,6.986-11.55
			C18.989,2.037,13.861,1.782,9.501,4.18z"/>
	</g>
	<path class="avocado_negen" d="M2.514,15.718C6.618,13.577,11.694,13.514,16,16c0-4.976-2.598-9.342-6.51-11.825
		C5.402,6.43,2.617,10.743,2.514,15.718z"/>
	<path class="avocado_zeventien" d="M29.486,16.282C25.382,18.423,20.306,18.486,16,16c0,4.976,2.598,9.342,6.51,11.825
		C26.598,25.57,29.383,21.257,29.486,16.282z"/>
	<path class="avocado_een" d="M16,2C8.268,2,2,8.268,2,16s6.268,14,14,14s14-6.268,14-14S23.732,2,16,2z M28.998,15.952
		c-3.808,1.889-8.19,1.875-11.971,0c3.625-2.404,5.958-6.273,6.398-10.608C26.777,7.687,28.982,11.564,28.998,15.952z M22.46,4.735
		c-0.273,4.234-2.484,8.022-5.989,10.353c-0.268-4.347-2.447-8.296-5.983-10.845C12.165,3.454,14.028,3,16,3
		C18.352,3,20.555,3.638,22.46,4.735z M9.471,4.776c3.532,2.354,5.708,6.151,5.974,10.359c-3.9-1.941-8.413-2.028-12.389-0.238
		C3.421,10.575,5.909,6.857,9.471,4.776z M3.002,16.047c3.808-1.887,8.192-1.873,11.972,0.001c-3.628,2.405-5.96,6.27-6.4,10.607
		C5.222,24.312,3.018,20.435,3.002,16.047z M9.542,27.266c0.273-4.236,2.478-8.021,5.987-10.354
		c0.268,4.352,2.447,8.295,5.984,10.844C19.837,28.546,17.973,29,16,29C13.648,29,11.447,28.363,9.542,27.266z M22.531,27.222
		c-3.534-2.354-5.711-6.145-5.976-10.359c2.035,1.013,4.237,1.523,6.442,1.523c2.025,0,4.045-0.455,5.949-1.314
		C28.589,21.406,26.101,25.136,22.531,27.222z"/>
</g>
</svg>