<?xml version="1.0" encoding="utf-8"?>
<svg version="1.1" xmlns="http://www.w3.org/2000/svg" xmlns:xlink="http://www.w3.org/1999/xlink" 
	 width="800px" height="800px" viewBox="0 0 32 32" xml:space="preserve">
<style type="text/css">
	.avocado_een{fill:#231F20;}
	.avocado_twintig{fill:#EAD13F;}
	.avocado_negentien{fill:#E0A838;}
	.avocado_twee{fill:#3D3935;}
	.st0{fill:#CC4121;}
	.st1{fill:#FFFAEE;}
	.st2{fill:#D1712A;}
	.st3{fill:#A3AEB5;}
	.st4{fill:#788287;}
	.st5{fill:#C3CC6A;}
	.st6{fill:#6F9B45;}
	.st7{fill:#248EBC;}
	.st8{fill:#8D3E93;}
	.st9{fill:#D36781;}
	.st10{fill:#E598A3;}
	.st11{fill:#716558;}
	.st12{fill:#AF9480;}
	.st13{fill:#DBD2C1;}
	.st14{fill:#231F20;}
</style>
<g>
	<g>
		<rect x="5.5" y="14.5" class="avocado_twintig" width="21" height="15"/>
	</g>
	<g>
		<path class="avocado_twee" d="M16.575,21.423l0.272-0.187C17.256,20.956,17.5,20.494,17.5,20c0-0.827-0.673-1.5-1.5-1.5
			s-1.5,0.673-1.5,1.5c0,0.494,0.244,0.956,0.653,1.237l0.272,0.187L14.61,25.5h2.78L16.575,21.423z"/>
	</g>
	<g>
		<g>
			<path class="avocado_negentien" d="M11.5,9v5.5h-2V9c0-3.584,2.916-6.5,6.5-6.5s6.5,2.916,6.5,6.5v5.5h-2V9
				c0-2.481-2.019-4.5-4.5-4.5S11.5,6.519,11.5,9z M9.5,17h-4v2h4c0.552,0,1-0.448,1-1C10.5,17.448,10.052,17,9.5,17z M9.5,21h-4v2
				h4c0.552,0,1-0.448,1-1C10.5,21.448,10.052,21,9.5,21z M9.5,25h-4v2h4c0.552,0,1-0.448,1-1C10.5,25.448,10.052,25,9.5,25z M22,26
				c0,0.552,0.448,1,1,1h3.5v-2H23C22.448,25,22,25.448,22,26z M22,22c0,0.552,0.448,1,1,1h3.5v-2H23C22.448,21,22,21.448,22,22z
				 M23,17c-0.552,0-1,0.448-1,1c0,0.552,0.448,1,1,1h3.5v-2H23z"/>
		</g>
	</g>
	<path class="avocado_een" d="M23,14V9c0-3.866-3.134-7-7-7S9,5.134,9,9v5H5v16h22V14H23z M10,9c0-3.308,2.692-6,6-6
		s6,2.692,6,6v5h-1V9c0-2.757-2.243-5-5-5s-5,2.243-5,5v5h-1V9z M20,14h-8V9c0-2.209,1.791-4,4-4s4,1.791,4,4V14z M26,29H6V15h20V29
		z M18,20c0-1.105-0.895-2-2-2s-2,0.895-2,2c0,0.685,0.345,1.288,0.87,1.649L14,26h4l-0.87-4.351C17.655,21.288,18,20.685,18,20z
		 M16.149,21.845L16.78,25h-1.56l0.631-3.155l0.129-0.647l-0.544-0.373C15.163,20.637,15,20.329,15,20c0-0.551,0.449-1,1-1
		s1,0.449,1,1c0,0.329-0.163,0.637-0.436,0.825l-0.544,0.373L16.149,21.845z"/>
</g>
</svg>