<?xml version="1.0" encoding="utf-8"?>
<svg version="1.1" xmlns="http://www.w3.org/2000/svg" xmlns:xlink="http://www.w3.org/1999/xlink" 
	 width="800px" height="800px" viewBox="0 0 32 32" xml:space="preserve">
<style type="text/css">
	.avocado_een{fill:#231F20;}
	.avocado_zeventien{fill:#CC4121;}
	.avocado_zes{fill:#FFFAEE;}
	.avocado_achttien{fill:#D1712A;}
	.st0{fill:#EAD13F;}
	.st1{fill:#E0A838;}
	.st2{fill:#A3AEB5;}
	.st3{fill:#788287;}
	.st4{fill:#C3CC6A;}
	.st5{fill:#6F9B45;}
	.st6{fill:#248EBC;}
	.st7{fill:#8D3E93;}
	.st8{fill:#3D3935;}
	.st9{fill:#D36781;}
	.st10{fill:#E598A3;}
	.st11{fill:#716558;}
	.st12{fill:#AF9480;}
	.st13{fill:#DBD2C1;}
	.st14{fill:#231F20;}
</style>
<g>
	<g>
		<rect x="7.5" y="5.5" class="avocado_achttien" width="17" height="26"/>
	</g>
	<path class="avocado_zes" d="M26.5,5.5h-21v-5h21V5.5z M24.5,10.5h-13v17h13V10.5z"/>
	<polygon class="avocado_zeventien" points="24.5,17.5 21.5,17.5 21.5,14.5 18.5,14.5 18.5,17.5 15.5,17.5 15.5,20.5 
		18.5,20.5 18.5,23.5 21.5,23.5 21.5,20.5 24.5,20.5 	"/>
	<path class="avocado_een" d="M27,0H5v6h2v26h18V6h2V0z M16,20v-2h3v-3h2v3h3v2h-3v3h-2v-3H16z M22,17v-3h-4v3h-3v4h3v3h4v-3
		h2v6H12V11h12v6H22z M24,10H11v18h13v3H8V6h16V10z M26,5H6V1h20V5z"/>
</g>
</svg>