<?xml version="1.0" encoding="utf-8"?>
<svg version="1.1" xmlns="http://www.w3.org/2000/svg" xmlns:xlink="http://www.w3.org/1999/xlink" 
	 width="800px" height="800px" viewBox="0 0 32 32" xml:space="preserve">
<style type="text/css">
	.avocado_een{fill:#231F20;}
	.avocado_zeventien{fill:#CC4121;}
	.avocado_negentien{fill:#E0A838;}
	.avocado_achttien{fill:#D1712A;}
	.st0{fill:#EAD13F;}
	.st1{fill:#FFFAEE;}
	.st2{fill:#A3AEB5;}
	.st3{fill:#788287;}
	.st4{fill:#C3CC6A;}
	.st5{fill:#6F9B45;}
	.st6{fill:#248EBC;}
	.st7{fill:#8D3E93;}
	.st8{fill:#3D3935;}
	.st9{fill:#D36781;}
	.st10{fill:#E598A3;}
	.st11{fill:#716558;}
	.st12{fill:#AF9480;}
	.st13{fill:#DBD2C1;}
	.st14{fill:#231F20;}
</style>
<g>
	<g>
		<polygon class="avocado_achttien" points="18.5,5.5 20.793,5.5 16,0.707 11.207,5.5 13.5,5.5 13.5,26.5 11.207,26.5 
			16,31.293 20.793,26.5 18.5,26.5 		"/>
	</g>
	<rect x="13.5" y="18.5" class="avocado_zeventien" width="5" height="1.5"/>
	<g>
		<polygon class="avocado_negentien" points="31.293,16 26.5,11.207 26.5,13.5 5.5,13.5 5.5,11.207 0.707,16 5.5,20.793 
			5.5,18.5 26.5,18.5 26.5,20.793 		"/>
	</g>
	<path class="avocado_een" d="M32,16l-6-6v3h-7V6h3l-6-6l-6,6h3v7H6v-3l-6,6l6,6v-3h7v7h-3l6,6l6-6h-3v-7h7v3L32,16z
		 M12.414,5L16,1.414L19.586,5H18v8h-4V5H12.414z M19.586,27L16,30.586L12.414,27H14v-8h4v8H19.586z M5,18v1.586L1.414,16L5,12.414
		V14h22v-1.586L30.586,16L27,19.586V18H5z"/>
</g>
</svg>