<?xml version="1.0" encoding="utf-8"?>
<svg version="1.1" xmlns="http://www.w3.org/2000/svg" xmlns:xlink="http://www.w3.org/1999/xlink"  width="800px"
	 height="800px" viewBox="0 0 32 32" xml:space="preserve">
<style type="text/css">
	.avocado_een{fill:#231F20;}
	.avocado_drie{fill:#716558;}
	.avocado_acht{fill:#A3AEB5;}
	.avocado_zeventien{fill:#CC4121;}
	.avocado_achttien{fill:#D1712A;}
	.st0{fill:#231F20;}
	.st1{fill:#0B1719;}
	.st2{fill:#FFFAEE;}
	.st3{fill:#6F9B45;}
	.st4{fill:#DBD2C1;}
	.st5{fill:#3D3935;}
	.st6{fill:#EAD13F;}
	.st7{fill:#8D3E93;}
	.st8{fill:#BF63C1;}
	.st9{fill:#C3CC6A;}
	.st10{fill:#E0A838;}
	.st11{fill:#788287;}
	.st12{fill:none;}
	.st13{fill:#AF9480;}
</style>
<g id="LABELS">
</g>
<g>
	<g>
		<g>
			<path class="avocado_acht" d="M9.5,31.5V31c0-1.378,1.121-2.5,2.5-2.5h2.087l-0.42-0.745C13.555,27.555,13.5,27.308,13.5,27
				s0.055-0.555,0.167-0.755l0.42-0.745H12c-1.93,0-3.5-1.57-3.5-3.5V6.5h15v1.802l0.63-0.169C24.465,8.042,24.742,8,25,8
				c1.93,0,3.5,1.57,3.5,3.5v3.084c0,1.223-0.651,2.373-1.699,3.001l-2.33,1.397c-0.599,0.359-0.971,1.015-0.971,1.713V22
				c0,1.93-1.57,3.5-3.5,3.5h-2.087l0.42,0.745c0.112,0.2,0.167,0.447,0.167,0.755s-0.055,0.555-0.167,0.755l-0.42,0.745H20
				c1.379,0,2.5,1.122,2.5,2.5v0.5H9.5z M24.998,10c-0.818,0-1.491,0.667-1.498,1.487v5.747l2.271-1.362
				c0.449-0.27,0.729-0.763,0.729-1.287V11.5c0-0.827-0.673-1.5-1.5-1.5H24.998z"/>
		</g>
		<path class="avocado_drie" d="M11.5,0.5v2.703c0.616,0.77,1,1.734,1,2.797c0,0.171-0.032,0.334-0.05,0.5h2.05v-6H11.5z"/>
		<g>
			<path class="avocado_achttien" d="M8.5,6.5h3.95C12.468,6.334,12.5,6.171,12.5,6c0-2.485-2.015-4.5-4.5-4.5S3.5,3.515,3.5,6
				s2.015,4.5,4.5,4.5c0.171,0,0.334-0.032,0.5-0.05V6.5z"/>
		</g>
		<path class="avocado_zeventien" d="M12,25.5c-1.93,0-3.5-1.57-3.5-3.5V10h15v12c0,1.93-1.57,3.5-3.5,3.5H12z"/>
		<path class="avocado_een" d="M25,7.5c-0.349,0-0.679,0.063-1,0.149V6h-9V0h-4v2.023C10.162,1.39,9.131,1,8,1C5.239,1,3,3.239,3,6
			s2.239,5,5,5v11c0,2.209,1.791,4,4,4h1.231C13.083,26.263,13,26.591,13,27s0.083,0.737,0.231,1H12c-1.657,0-3,1.343-3,3v1h14v-1
			c0-1.657-1.343-3-3-3h-1.231C18.917,27.737,19,27.409,19,27s-0.083-0.737-0.231-1H20c2.209,0,4-1.791,4-4v-1.303
			c0-0.526,0.276-1.014,0.728-1.285l2.33-1.397C28.263,17.292,29,15.99,29,14.585V11.5C29,9.291,27.209,7.5,25,7.5z M14,1v5h-1
			c0-1.118-0.38-2.14-1-2.973V1L14,1z M4,6c0-2.206,1.794-4,4-4c2.206,0,4,1.794,4,4H8v4C5.794,10,4,8.206,4,6z M20,29
			c1.103,0,2,0.897,2,2H10c0-1.103,0.897-2,2-2H20z M14,27c0-0.469,0-1,2-1s2,0.531,2,1s0,1-2,1S14,27.469,14,27z M23,22
			c0,1.654-1.346,3-3,3h-8c-1.654,0-3-1.346-3-3V7h14V22z M24,11.491c0.005-0.548,0.449-0.991,0.998-0.991H25c0.552,0,1,0.448,1,1
			v3.085c0,0.351-0.184,0.677-0.486,0.858L24,16.35V11.491z M28,14.585c0,1.048-0.558,2.034-1.457,2.573l-2.33,1.397
			C24.137,18.6,24.07,18.658,24,18.712v-1.195l0.513-0.308l1.515-0.909C26.628,15.94,27,15.283,27,14.585V11.5
			c0-1.103-0.897-2-2.002-2c-0.358,0-0.697,0.101-0.998,0.276V8.704C24.315,8.586,24.644,8.5,25,8.5c1.654,0,3,1.346,3,3V14.585z"/>
	</g>
</g>
</svg>