<?xml version="1.0" encoding="utf-8"?>
<svg version="1.1" xmlns="http://www.w3.org/2000/svg" xmlns:xlink="http://www.w3.org/1999/xlink" 
	 width="800px" height="800px" viewBox="0 0 32 32" xml:space="preserve">
<style type="text/css">
	.avocado_een{fill:#231F20;}
	.avocado_zeventien{fill:#CC4121;}
	.avocado_achttien{fill:#D1712A;}
	.avocado_acht{fill:#A3AEB5;}
	.st0{fill:#EAD13F;}
	.st1{fill:#FFFAEE;}
	.st2{fill:#E0A838;}
	.st3{fill:#788287;}
	.st4{fill:#C3CC6A;}
	.st5{fill:#6F9B45;}
	.st6{fill:#248EBC;}
	.st7{fill:#8D3E93;}
	.st8{fill:#3D3935;}
	.st9{fill:#D36781;}
	.st10{fill:#E598A3;}
	.st11{fill:#716558;}
	.st12{fill:#AF9480;}
	.st13{fill:#DBD2C1;}
	.st14{fill:#231F20;}
</style>
<g>
	<g>
		<path class="avocado_acht" d="M30.146,30.146c0.097-0.097,0.103-0.254,0.014-0.358L19.703,17.589l-2.114,2.114
			l12.199,10.457C29.893,30.249,30.05,30.244,30.146,30.146z"/>
	</g>
	<g>
		<path class="avocado_achttien" d="M13,24.293L24.293,13l-1.232-1.232c-0.584-0.584-1.537-0.584-2.121,0l-0.456,0.456
			l-9.566-7.826l0.356-0.39c0.542-0.593,0.524-1.501-0.041-2.067L10,0.707L0.707,10l1.232,1.232
			c0.564,0.566,1.473,0.583,2.067,0.042l0.39-0.356l7.827,9.566l-0.456,0.456c-0.283,0.283-0.439,0.66-0.439,1.061
			s0.156,0.777,0.439,1.061L13,24.293z"/>
	</g>
	<polygon class="avocado_zeventien" points="20.871,12.543 10.512,4.064 4.065,10.511 12.54,20.874 	"/>
	<path class="avocado_een" d="M30.54,29.463L20.386,17.614L25,13l-1.586-1.586c-0.391-0.391-0.902-0.586-1.414-0.586
		s-1.024,0.195-1.414,0.586L20.45,11.55l-8.807-7.206c0.717-0.785,0.702-1.999-0.057-2.758L10,0L0,10l1.586,1.586
		c0.389,0.389,0.897,0.582,1.406,0.582c0.485,0,0.97-0.176,1.352-0.525l7.206,8.807l-0.136,0.136c-0.781,0.781-0.781,2.047,0,2.828
		L13,25l4.618-4.618L29.463,30.54c0.143,0.123,0.32,0.184,0.497,0.184c0.196,0,0.392-0.075,0.54-0.224
		C30.782,30.218,30.799,29.766,30.54,29.463z M12.121,22.707c-0.39-0.39-0.39-1.024,0-1.414l0.776-0.776L4.422,10.156L3.67,10.905
		c-0.186,0.17-0.427,0.264-0.678,0.264c-0.264,0-0.512-0.103-0.699-0.29L1.414,10L10,1.414l0.879,0.879
		c0.376,0.376,0.388,0.981,0.026,1.377l-0.747,0.75l10.36,8.477l0.776-0.776c0.189-0.189,0.44-0.293,0.707-0.293
		c0.267,0,0.518,0.104,0.707,0.293L23.586,13L13,23.586L12.121,22.707z M18.334,19.666l1.344-1.344l8.102,9.458L18.334,19.666z"/>
</g>
</svg>