<?xml version="1.0" encoding="utf-8"?>
<svg version="1.1" xmlns="http://www.w3.org/2000/svg" xmlns:xlink="http://www.w3.org/1999/xlink" 
	 width="800px" height="800px" viewBox="0 0 32 32" xml:space="preserve">
<style type="text/css">
	.avocado_een{fill:#231F20;}
	.avocado_zes{fill:#FFFAEE;}
	.avocado_negen{fill:#6F9B45;}
	.avocado_vier{fill:#AF9480;}
	.st0{fill:#EAD13F;}
	.st1{fill:#CC4121;}
	.st2{fill:#E0A838;}
	.st3{fill:#D1712A;}
	.st4{fill:#A3AEB5;}
	.st5{fill:#788287;}
	.st6{fill:#C3CC6A;}
	.st7{fill:#248EBC;}
	.st8{fill:#8D3E93;}
	.st9{fill:#3D3935;}
	.st10{fill:#D36781;}
	.st11{fill:#E598A3;}
	.st12{fill:#716558;}
	.st13{fill:#DBD2C1;}
	.st14{fill:#231F20;}
</style>
<g>
	<path class="avocado_vier" d="M24.394,12.468c-0.349-2.983-2.431-5.927-6.188-8.75C13.934,0.51,7.979,0.934,4.354,4.704
		c-4.317,4.49-3.694,10.804,1.588,16.086c4.509,4.507,9.105,4.87,13.661,1.075l0.365-0.304l7.693,8.334
		c0.094,0.101,0.221,0.158,0.357,0.161c0.13-0.013,0.267-0.049,0.364-0.146l1.527-1.528c0.098-0.097,0.149-0.226,0.146-0.363
		c-0.002-0.138-0.06-0.265-0.16-0.358l-8.335-7.693l0.305-0.365C23.821,17.254,24.672,14.854,24.394,12.468z"/>
	<path class="avocado_negen" d="M18.205,3.719c-1.921-1.442-4.183-2.15-6.419-2.15c-2.737,0-5.438,1.061-7.433,3.136
		c-4.317,4.49-3.694,10.804,1.588,16.086c1.632,1.631,3.313,2.729,5.003,3.265l13.104-13.104
		C23.266,8.476,21.302,6.044,18.205,3.719z"/>
	<circle class="avocado_zes" cx="11" cy="24" r="3.5"/>
	<path class="avocado_een" d="M30.235,27.294l-7.985-7.371c4.569-5.487,3.333-11.288-3.745-16.604
		c-1.995-1.498-4.367-2.243-6.721-2.243c-2.858,0-5.691,1.098-7.79,3.282c-4.862,5.057-3.421,11.771,1.594,16.787
		c0.555,0.555,1.115,1.027,1.677,1.458C7.101,23.039,7,23.506,7,24c0,2.209,1.791,4,4,4c1.941,0,3.558-1.384,3.921-3.218
		c1.681-0.324,3.355-1.161,5.002-2.531l7.371,7.985c0.198,0.214,0.466,0.322,0.735,0.322c0.255,0,0.511-0.097,0.707-0.293
		l1.528-1.528C30.666,28.334,30.653,27.679,30.235,27.294z M6.295,20.437C2.444,16.586-0.281,10.245,4.714,5.05
		c1.844-1.918,4.355-2.975,7.069-2.975c2.193,0,4.367,0.726,6.121,2.043c2.913,2.188,4.768,4.435,5.571,6.699L13.441,20.852
		C12.764,20.326,11.924,20,11,20c-1.353,0-2.545,0.676-3.269,1.705C7.251,21.326,6.772,20.914,6.295,20.437z M11,27
		c-1.654,0-3-1.346-3-3c0-1.654,1.346-3,3-3c1.654,0,3,1.346,3,3C14,25.654,12.654,27,11,27z M28.029,29.557l-8.016-8.684
		l-0.73,0.608c-1.428,1.189-2.871,1.92-4.311,2.246c-0.056-0.816-0.352-1.559-0.824-2.168l9.634-9.634c0.04,0.2,0.091,0.4,0.115,0.6
		c0.262,2.245-0.551,4.518-2.415,6.758l-0.608,0.73l8.684,8.016L28.029,29.557z"/>
</g>
</svg>