<?xml version="1.0" encoding="utf-8"?>
<svg version="1.1" xmlns="http://www.w3.org/2000/svg" xmlns:xlink="http://www.w3.org/1999/xlink"  width="800px"
	 height="800px" viewBox="0 0 32 32" xml:space="preserve">
<style type="text/css">
	.avocado_een{fill:#231F20;}
	.avocado_vier{fill:#AF9480;}
	.avocado_zes{fill:#FFFAEE;}
	.avocado_negen{fill:#6F9B45;}
	.avocado_twintig{fill:#EAD13F;}
	.st0{fill:#231F20;}
	.st1{fill:#0B1719;}
	.st2{fill:#A3AEB5;}
	.st3{fill:#CC4121;}
	.st4{fill:#DBD2C1;}
	.st5{fill:#3D3935;}
	.st6{fill:#8D3E93;}
	.st7{fill:#BF63C1;}
	.st8{fill:#C3CC6A;}
	.st9{fill:#E0A838;}
	.st10{fill:#788287;}
	.st11{fill:none;}
	.st12{fill:#D1712A;}
	.st13{fill:#716558;}
</style>
<g id="LABELS">
</g>
<g>
	<g>
		<polygon class="avocado_vier" points="28.293,0.707 26.293,3.707 28.293,5.707 31.293,3.707 		"/>
		<path class="avocado_negen" d="M26.707,8.257l-3-3l-3,3l0.5,0.5l-1.056,1.056c-0.936,0.936-2.156,1.536-3.469,1.707l-2.564,0.333
			c-2.188,0.285-4.221,1.285-5.781,2.845l-7.629,7.629l8.964,8.964l7.61-7.61c1.572-1.572,2.576-3.624,2.852-5.831l0.319-2.553
			c0.166-1.324,0.768-2.555,1.711-3.498l1.044-1.044l0.5,0.5L26.707,8.257z"/>
		<path class="avocado_zes" d="M9,14l5,5l-6,6l-5-5L9,14z M18,23l-2-2l-6,6l2,2L18,23z"/>
		<g>
			<path class="avocado_twintig" d="M20.151,9.813c-0.936,0.936-2.156,1.536-3.469,1.707l-1.913,0.249l5.443,5.443l0.239-1.913
				c0.166-1.324,0.768-2.555,1.711-3.498l1.044-1.044l-2-2L20.151,9.813z"/>
		</g>
		<path class="avocado_een" d="M20,8.257l0.5,0.5L19.798,9.46c-0.854,0.854-1.983,1.41-3.181,1.565l-2.563,0.333
			c-2.286,0.297-4.441,1.358-6.071,2.988L0,22.329L9.671,32l7.964-7.963c1.643-1.643,2.705-3.817,2.994-6.123l0.319-2.552
			c0.15-1.207,0.707-2.346,1.568-3.207l0.691-0.691l0.5,0.5l3.707-3.707L23.707,4.55L20,8.257z M8.689,15.053
			c0.11-0.11,0.227-0.211,0.342-0.315L13.293,19L8,24.293l-4.275-4.275L8.689,15.053z M16.928,23.33l-4.946,4.945L10.707,27
			L16,21.707l1.261,1.261C17.151,23.09,17.044,23.214,16.928,23.33z M17.896,22.189L16,20.293L9.293,27l1.982,1.982l-1.604,1.604
			l-8.257-8.257l1.604-1.604L8,25.707L14.707,19l-4.898-4.898c1.283-0.934,2.793-1.546,4.374-1.752l0.407-0.053l5.097,5.096
			l-0.05,0.398C19.437,19.379,18.83,20.898,17.896,22.189z M21.81,11.448c-1.018,1.018-1.676,2.363-1.854,3.79l-0.112,0.898
			l-4.003-4.002l0.905-0.118c1.414-0.183,2.749-0.84,3.759-1.849l0.702-0.703l1.293,1.293L21.81,11.448z M23.707,10.55l-2.293-2.293
			l2.293-2.293L26,8.257L23.707,10.55z M28.215-0.078l-2.565,3.848l2.58,2.58l3.849-2.566L28.215-0.078z M26.937,3.644l1.435-2.152
			l2.137,2.138l-2.151,1.434L26.937,3.644z"/>
	</g>
</g>
</svg>