<?xml version="1.0" encoding="utf-8"?>
<svg version="1.1" xmlns="http://www.w3.org/2000/svg" xmlns:xlink="http://www.w3.org/1999/xlink" 
	 width="800px" height="800px" viewBox="0 0 32 32" xml:space="preserve">
<style type="text/css">
	.avocado_een{fill:#231F20;}
	.avocado_negentien{fill:#E0A838;}
	.avocado_achttien{fill:#D1712A;}
	.avocado_acht{fill:#A3AEB5;}
	.avocado_zeven{fill:#788287;}
	.st0{fill:#EAD13F;}
	.st1{fill:#CC4121;}
	.st2{fill:#FFFAEE;}
	.st3{fill:#C3CC6A;}
	.st4{fill:#6F9B45;}
	.st5{fill:#248EBC;}
	.st6{fill:#8D3E93;}
	.st7{fill:#3D3935;}
	.st8{fill:#D36781;}
	.st9{fill:#E598A3;}
	.st10{fill:#716558;}
	.st11{fill:#AF9480;}
	.st12{fill:#DBD2C1;}
	.st13{fill:#231F20;}
</style>
<g>
	<g>
		<path class="avocado_acht" d="M30.5,29.5h-15v-27h15V29.5z M13.5,12.46v-1.1L4.26,8.28C4.079,8.22,3.893,8.189,3.705,8.189
			c-0.83,0-1.552,0.592-1.717,1.418c-0.098,0.491,0.019,1.002,0.321,1.4c0.302,0.399,0.762,0.649,1.26,0.688L13.5,12.46z
			 M4.26,16.72l9.24-3.08v-1.1l-9.931,0.764c-0.498,0.039-0.958,0.289-1.26,0.688c-0.303,0.398-0.419,0.909-0.319,1.411
			c0.163,0.815,0.885,1.407,1.715,1.407C3.893,16.811,4.079,16.78,4.26,16.72z"/>
	</g>
	<path class="avocado_zeven" d="M17.5,11.36l9.24-3.08c0.181-0.061,0.367-0.091,0.555-0.091c0.83,0,1.552,0.592,1.715,1.407
		c0.1,0.502-0.017,1.013-0.319,1.411c-0.302,0.399-0.762,0.649-1.26,0.688L17.5,12.46V11.36z M27.295,16.811
		c0.816,0,1.552-0.592,1.717-1.418c0.098-0.491-0.019-1.002-0.321-1.4c-0.302-0.399-0.762-0.649-1.26-0.688L17.5,12.54v1.1
		l9.24,3.08C26.921,16.78,27.074,16.811,27.295,16.811z"/>
	<g>
		<path class="avocado_negentien" d="M15,26.5c-0.827,0-1.5-0.673-1.5-1.5V9c0-0.827,0.673-1.5,1.5-1.5h0.5v19H15z"/>
	</g>
	<g>
		<path class="avocado_achttien" d="M15.5,26.5v-19H16c0.827,0,1.5,0.673,1.5,1.5v16c0,0.827-0.673,1.5-1.5,1.5H15.5z"/>
	</g>
	<path class="avocado_een" d="M15,2v5c-0.052,0-0.102,0.011-0.153,0.015C14.578,6.048,13.909,5,12.5,5H12v1h0.5
		c0.889,0,1.251,0.748,1.399,1.332C13.358,7.69,13,8.303,13,9v1.667L4.418,7.806C4.181,7.727,3.941,7.69,3.705,7.69
		c-1.039,0-1.982,0.727-2.207,1.821c-0.272,1.322,0.688,2.581,2.034,2.685l3.97,0.305l-3.97,0.305
		c-1.346,0.104-2.298,1.361-2.034,2.685L1.5,15.501c0.216,1.082,1.166,1.81,2.205,1.81c0.235,0,0.476-0.037,0.713-0.116L13,14.334
		V25c0,1.105,0.895,2,2,2v3h16V2H15z M18,13.08l9.392,0.723c0.362,0.028,0.681,0.202,0.9,0.492c0.219,0.289,0.301,0.644,0.227,1.011
		c-0.117,0.583-0.632,1.006-1.225,1.006c-0.133,0-0.267-0.022-0.396-0.065L18,13.279V13.08z M18,11.721l8.898-2.966
		c0.13-0.043,0.263-0.065,0.396-0.065c0.593,0,1.108,0.423,1.227,1.017c0.071,0.356-0.01,0.711-0.229,1s-0.539,0.464-0.9,0.492
		L18,11.92V11.721z M17,25c0,0.551-0.449,1-1,1V8c0.551,0,1,0.449,1,1V25z M2.708,10.706c-0.219-0.289-0.3-0.644-0.227-1.011
		C2.597,9.113,3.112,8.69,3.705,8.69c0.133,0,0.267,0.022,0.396,0.065L13,11.721v0.199l-9.392-0.722
		C3.247,11.17,2.927,10.995,2.708,10.706z M4.102,16.246c-0.13,0.043-0.263,0.065-0.396,0.065c-0.593,0-1.108-0.423-1.227-1.017
		c-0.071-0.356,0.01-0.711,0.229-1c0.219-0.289,0.539-0.464,0.901-0.492L13,13.08v0.199L4.102,16.246z M14,25V9c0-0.551,0.449-1,1-1
		v18C14.449,26,14,25.551,14,25z M30,29H16v-2c1.105,0,2-0.895,2-2V14.334l8.582,2.861c0.237,0.079,0.477,0.116,0.713,0.116
		c1.039,0,2.004-0.703,2.207-1.821c0.247-1.357-0.688-2.581-2.034-2.685l-3.97-0.305l3.97-0.305
		c1.346-0.104,2.352-1.436,2.032-2.695c-0.269-1.148-1.166-1.81-2.205-1.81c-0.235,0-0.476,0.037-0.713,0.116L18,10.667V9
		c0-0.698-0.359-1.311-0.901-1.669C17.244,6.747,17.605,6,18.5,6H19V5h-0.5c-1.409,0-2.078,1.048-2.347,2.015
		C16.102,7.011,16.052,7,16,7V3h14V29z"/>
</g>
</svg>