<?xml version="1.0" encoding="utf-8"?>
<svg version="1.1" xmlns="http://www.w3.org/2000/svg" xmlns:xlink="http://www.w3.org/1999/xlink" 
	 width="800px" height="800px" viewBox="0 0 32 32" xml:space="preserve">
<style type="text/css">
	.avocado_een{fill:#231F20;}
	.avocado_zes{fill:#FFFAEE;}
	.avocado_negentien{fill:#E0A838;}
	.avocado_achttien{fill:#D1712A;}
	.avocado_vijf{fill:#DBD2C1;}
	.st0{fill:#EAD13F;}
	.st1{fill:#CC4121;}
	.st2{fill:#A3AEB5;}
	.st3{fill:#788287;}
	.st4{fill:#C3CC6A;}
	.st5{fill:#6F9B45;}
	.st6{fill:#248EBC;}
	.st7{fill:#8D3E93;}
	.st8{fill:#3D3935;}
	.st9{fill:#D36781;}
	.st10{fill:#E598A3;}
	.st11{fill:#716558;}
	.st12{fill:#AF9480;}
	.st13{fill:#231F20;}
</style>
<g>
	<g>
		<polygon class="avocado_vijf" points="27.5,7.5 27.5,26.5 4.5,26.5 4.5,28.5 29.5,28.5 29.5,7.5 		"/>
	</g>
	<rect x="2.5" y="5.5" class="avocado_zes" width="25" height="21"/>
	<g>
		<rect x="4.5" y="4.5" class="avocado_achttien" width="9" height="11"/>
	</g>
	<g>
		<polygon class="avocado_negentien" points="5.5,23.5 5.5,22.25 9.219,19.461 13,18.516 17,19.516 21.219,18.461 24.5,16 
			24.5,23.5 		"/>
	</g>
	<path class="avocado_een" d="M7,10h4v1H7V10z M7,13h4v-1H7V13z M21,18l4-3v9H5v-2l4-3l4-1l4,1L21,18z M17,20.031l-4-1
		l-3.562,0.89L6,22.5V23h18v-6l-2.562,1.921L17,20.031z M30,7v22H4v-2H2V5h2V4h4.092C8.299,3.419,8.849,3,9.5,3s1.201,0.419,1.408,1
		H14v1h14v2H30z M5,15h8V5h-2v2.5C11,8.327,10.327,9,9.5,9S8,8.327,8,7.5V7h1v0.5C9,7.775,9.224,8,9.5,8S10,7.775,10,7.5V5H5V15z
		 M3,26h24V6H14v10H4V6H3V26z M29,8h-1v19H5v1h24V8z"/>
</g>
</svg>