<?xml version="1.0" encoding="utf-8"?>
<svg version="1.1" xmlns="http://www.w3.org/2000/svg" xmlns:xlink="http://www.w3.org/1999/xlink" 
	 width="800px" height="800px" viewBox="0 0 32 32" xml:space="preserve">
<style type="text/css">
	.avocado_een{fill:#231F20;}
	.avocado_zes{fill:#FFFAEE;}
	.avocado_twintig{fill:#EAD13F;}
	.avocado_negentien{fill:#E0A838;}
	.st0{fill:#CC4121;}
	.st1{fill:#D1712A;}
	.st2{fill:#A3AEB5;}
	.st3{fill:#788287;}
	.st4{fill:#C3CC6A;}
	.st5{fill:#6F9B45;}
	.st6{fill:#248EBC;}
	.st7{fill:#8D3E93;}
	.st8{fill:#3D3935;}
	.st9{fill:#D36781;}
	.st10{fill:#E598A3;}
	.st11{fill:#716558;}
	.st12{fill:#AF9480;}
	.st13{fill:#DBD2C1;}
	.st14{fill:#231F20;}
</style>
<g>
	<g>
		<path class="avocado_negentien" d="M15.927,29.573c-0.827,0-1.5-0.673-1.5-1.5v-1.5h3v1.5
			C17.427,28.9,16.754,29.573,15.927,29.573z"/>
	</g>
	<g>
		<path class="avocado_twintig" d="M4.641,26.5l0.75-3h0.742l0.15-0.209C7.079,22.176,7.5,20.87,7.5,19.515V14
			c0-4.687,3.813-8.5,8.5-8.5s8.5,3.813,8.5,8.5v5.515c0,1.355,0.421,2.661,1.217,3.776l0.15,0.209h0.742l0.75,3H4.641z"/>
	</g>
	<circle class="avocado_zes" cx="12" cy="12" r="2"/>
	<path class="avocado_een" d="M27,23h-0.876C25.401,21.989,25,20.774,25,19.515V14c0-4.414-3.179-8.078-7.371-8.845
		C17.861,4.828,18,4.431,18,4c0-1.105-0.895-2-2-2s-2,0.895-2,2c0,0.431,0.139,0.828,0.372,1.154C10.18,5.922,7,9.586,7,14v5.515
		C7,20.774,6.599,21.989,5.876,23H5l-1,4h10v1c0,1.105,0.895,2,2,2s2-0.895,2-2v-1h10L27,23z M16,3c0.552,0,1,0.448,1,1
		c0,0.552-0.448,1-1,1s-1-0.448-1-1C15,3.448,15.448,3,16,3z M8,19.515V14c0-4.411,3.589-8,8-8s8,3.589,8,8v5.515
		c0,1.243,0.322,2.436,0.926,3.485H7.074C7.678,21.951,8,20.758,8,19.515z M17,28c0,0.551-0.449,1-1,1s-1-0.449-1-1v-1h2V28z
		 M5.281,26l0.5-2h20.438l0.5,2H5.281z"/>
</g>
</svg>