<?xml version="1.0" encoding="utf-8"?>
<svg version="1.1" xmlns="http://www.w3.org/2000/svg" xmlns:xlink="http://www.w3.org/1999/xlink" 
	 width="800px" height="800px" viewBox="0 0 32 32" xml:space="preserve">
<style type="text/css">
	.avocado_een{fill:#231F20;}
	.avocado_drie{fill:#716558;}
	.avocado_zestien{fill:#E598A3;}
	.st0{fill:#A3AEB5;}
	.st1{fill:#FFFAEE;}
	.st2{fill:#AF9480;}
	.st3{fill:#DBD2C1;}
	.st4{fill:#CC4121;}
	.st5{fill:#788287;}
	.st6{fill:#EAD13F;}
	.st7{fill:#C3CC6A;}
	.st8{fill:#D1712A;}
	.st9{fill:#E0A838;}
	.st10{fill:#6F9B45;}
	.st11{fill:#0E608E;}
	.st12{fill:#3D3935;}
	.st13{fill:#248EBC;}
	.st14{fill:#BF63C1;}
</style>
<g>
	<path class="avocado_drie" d="M7.207,4.5L5.5,2.793V1.5h22v1.293L25.793,4.5H7.207z M27.5,30.5v-1.293L25.793,27.5H7.207
		L5.5,29.207V30.5H27.5z"/>
	<g>
		<rect x="7.5" y="4.5" class="avocado_zestien" width="18" height="23"/>
	</g>
	<path class="avocado_een" d="M28,3V1H5v2l2,2v22l-2,2v2h23v-2l-2-2V5L28,3z M6,2.586V2h21v0.586L25.586,4H7.414L6,2.586z
		 M25,23.447L17.45,27h-4.025L25,21.553V23.447z M25,17.447l-17,8v-1.894l17-8V17.447z M25,14.447l-17,8v-1.894l17-8V14.447z
		 M25,11.447l-17,8v-1.894l17-8V11.447z M25,8.447l-17,8v-1.894l17-8V8.447z M8,8.553L15.55,5h4.025L8,10.447V8.553z M13.201,5
		L8,7.447V5H13.201z M8,26.553l17-8v1.894l-13.917,6.549L11.084,27H8V26.553z M27,29.414V30H6v-0.586L7.414,28h18.172L27,29.414z
		 M19.799,27L25,24.553V27H19.799z M25,5.447l-17,8v-1.894L21.925,5H25V5.447z"/>
</g>
</svg>