<?xml version="1.0" encoding="utf-8"?>
<svg version="1.1" xmlns="http://www.w3.org/2000/svg" xmlns:xlink="http://www.w3.org/1999/xlink" 
	 width="800px" height="800px" viewBox="0 0 32 32" xml:space="preserve">
<style type="text/css">
	.avocado_acht{fill:#A3AEB5;}
	.avocado_een{fill:#231F20;}
	.avocado_zeven{fill:#788287;}
	.avocado_twintig{fill:#EAD13F;}
	.st0{fill:#FFFAEE;}
	.st1{fill:#AF9480;}
	.st2{fill:#DBD2C1;}
	.st3{fill:#CC4121;}
	.st4{fill:#C3CC6A;}
	.st5{fill:#D1712A;}
	.st6{fill:#E0A838;}
	.st7{fill:#716558;}
	.st8{fill:#6F9B45;}
	.st9{fill:#0E608E;}
	.st10{fill:#E598A3;}
	.st11{fill:#3D3935;}
	.st12{fill:#248EBC;}
	.st13{fill:#BF63C1;}
</style>
<g>
	<g>
		<polygon class="avocado_acht" points="11.5,22.559 11.5,21.5 0.5,21.5 0.5,10.5 11.5,10.5 11.5,9.441 18.5,8.566 
			18.5,23.434 		"/>
	</g>
	<path class="avocado_zeven" d="M9,14.974c0.305,0.275,0.5,0.668,0.5,1.11s-0.195,0.835-0.5,1.11V21.5h2.5v-11H9V14.974z"/>
	<g>
		<g>
			<path class="avocado_twintig" d="M18.5,22.596V9.404l13-2.786v18.763L18.5,22.596z M8,17.583c-0.827,0-1.5-0.673-1.5-1.5
				s0.673-1.5,1.5-1.5s1.5,0.673,1.5,1.5S8.827,17.583,8,17.583z"/>
		</g>
	</g>
	<path class="avocado_een" d="M19,8.786V8l-8,1v1H0v12h11v1l8,1v-0.786L32,26V6L19,8.786z M11,21H1V11h10V21z M18,22.867
		l-6-0.75V9.883l6-0.75V22.867z M31,24.763l-12-2.571V9.808l12-2.571V24.763z M8,18.083c1.105,0,2-0.895,2-2s-0.895-2-2-2
		c-1.105,0-2,0.895-2,2S6.895,18.083,8,18.083z M8,15.083c0.551,0,1,0.449,1,1s-0.449,1-1,1s-1-0.449-1-1S7.449,15.083,8,15.083z"/>
</g>
</svg>