<?xml version="1.0" encoding="utf-8"?>
<svg version="1.1" xmlns="http://www.w3.org/2000/svg" xmlns:xlink="http://www.w3.org/1999/xlink" 
	 width="800px" height="800px" viewBox="0 0 32 32" xml:space="preserve">
<style type="text/css">
	.avocado_een{fill:#231F20;}
	.avocado_zes{fill:#FFFAEE;}
	.avocado_twintig{fill:#EAD13F;}
	.avocado_negentien{fill:#E0A838;}
	.st0{fill:#A3AEB5;}
	.st1{fill:#AF9480;}
	.st2{fill:#DBD2C1;}
	.st3{fill:#CC4121;}
	.st4{fill:#788287;}
	.st5{fill:#C3CC6A;}
	.st6{fill:#D1712A;}
	.st7{fill:#716558;}
	.st8{fill:#6F9B45;}
	.st9{fill:#0E608E;}
	.st10{fill:#E598A3;}
	.st11{fill:#FFFAEE;}
	.st12{fill:#3D3935;}
	.st13{fill:#248EBC;}
	.st14{fill:#BF63C1;}
</style>
<g>
	<path class="avocado_zes" d="M3,14.5c-1.378,0-2.5-1.122-2.5-2.5S1.622,9.5,3,9.5c0.952,0,1.809,0.538,2.235,1.404
		l0.037,0.074L6.293,12l-1.021,1.021l-0.037,0.074C4.809,13.962,3.952,14.5,3,14.5z"/>
	<g>
		<path class="avocado_twintig" d="M20,20.5c-1.469,0-2.85-0.572-3.889-1.611c-2.145-2.145-2.145-5.634,0-7.778
			C17.15,10.072,18.531,9.5,20,9.5s2.85,0.572,3.889,1.611L27.778,15l-3.889,3.889C22.85,19.928,21.469,20.5,20,20.5z"/>
	</g>
	<g>
		<path class="avocado_negentien" d="M26.278,13.5l1.5,1.5l-3.889,3.889C22.85,19.928,21.469,20.5,20,20.5
			s-2.85-0.572-3.889-1.611c-2.145-2.145-2.145-5.634,0-7.778C17.15,10.072,18.531,9.5,20,9.5c0.451,0,0.887,0.071,1.314,0.176
			c-0.62-2.7-2.775-4.796-5.499-5.126C15.54,4.516,15.268,4.5,15,4.5c-3.584,0-6.5,2.916-6.5,6.5v1.602
			c0,6.445,5.062,11.782,11.285,11.896c0,0,0.216,0.002,0.216,0.002c3.071,0,5.959-1.196,8.131-3.368
			c2.054-2.054,3.235-4.748,3.357-7.632H26.278z"/>
	</g>
	<path class="avocado_een" d="M5.683,10.683C5.195,9.69,4.182,9,3,9c-1.657,0-3,1.343-3,3s1.343,3,3,3
		c1.182,0,2.195-0.69,2.683-1.683L7,12L5.683,10.683z M4.859,12.727l-0.073,0.148C4.445,13.569,3.76,14,3,14c-1.103,0-2-0.897-2-2
		s0.897-2,2-2c0.76,0,1.445,0.431,1.786,1.125l0.073,0.149L5.586,12L4.859,12.727z M11,9h2v2h-2V9z M32,13h-5.515l-2.243-2.243
		c-0.725-0.725-1.595-1.198-2.512-1.474c-0.745-2.713-2.978-4.881-5.856-5.23C15.58,4.017,15.288,4,15,4
		c-3.526,0-6.434,2.609-6.92,6H6l2,2l-2,2h2.085C8.687,19.397,12.72,23.892,18,24.813V28h1v-3.057
		c0.257,0.022,0.513,0.05,0.775,0.055C19.85,24.999,19.926,25,20,25v3h1v-3.05C27.159,24.44,32,19.29,32,13z M23.536,11.464
		L27.071,15l-3.535,3.536C22.591,19.48,21.336,20,20,20c-1.336,0-2.591-0.52-3.536-1.464S15,16.336,15,15
		c0-1.336,0.52-2.591,1.464-3.536C17.409,10.52,18.664,10,20,10S22.591,10.52,23.536,11.464z M20,24l-0.206-0.002
		C13.842,23.889,9,18.777,9,12.602V11c0-1.603,0.624-3.11,1.757-4.243S13.397,5,15,5c0.25,0,0.503,0.015,0.755,0.046
		c2.262,0.274,4.098,1.873,4.861,4.013l0,0C20.41,9.038,20.206,9,20,9c-1.536,0-3.071,0.586-4.243,1.757
		c-2.343,2.343-2.343,6.142,0,8.485C16.929,20.414,18.464,21,20,21s3.071-0.586,4.243-1.757L28.485,15l-1-1h3.47
		C30.448,19.599,25.729,24,20,24z"/>
</g>
</svg>