<?xml version="1.0" encoding="utf-8"?>
<svg version="1.1" xmlns="http://www.w3.org/2000/svg" xmlns:xlink="http://www.w3.org/1999/xlink" 
	 width="800px" height="800px" viewBox="0 0 32 32" xml:space="preserve">
<style type="text/css">
	.avocado_zeventien{fill:#CC4121;}
	.avocado_een{fill:#231F20;}
	.avocado_zes{fill:#FFFAEE;}
	.avocado_twintig{fill:#EAD13F;}
	.avocado_negen{fill:#6F9B45;}
	.avocado_elf{fill:#0E608E;}
	.st0{fill:#A3AEB5;}
	.st1{fill:#AF9480;}
	.st2{fill:#DBD2C1;}
	.st3{fill:#788287;}
	.st4{fill:#C3CC6A;}
	.st5{fill:#D1712A;}
	.st6{fill:#E0A838;}
	.st7{fill:#716558;}
	.st8{fill:#E598A3;}
	.st9{fill:#FFFAEE;}
	.st10{fill:#3D3935;}
	.st11{fill:#248EBC;}
	.st12{fill:#BF63C1;}
</style>
<g>
	<path class="avocado_negen" d="M16,2.5C8.544,2.5,2.5,8.544,2.5,16H16V2.5z"/>
	<path class="avocado_elf" d="M16,16v13.5c7.456,0,13.5-6.044,13.5-13.5H16z"/>
	<path class="avocado_zeventien" d="M2.5,16c0,7.456,6.044,13.5,13.5,13.5V16H2.5z"/>
	<g>
		<path class="avocado_twintig" d="M16,2.5V16h13.5C29.5,8.544,23.456,2.5,16,2.5z"/>
	</g>
	<path class="avocado_zes" d="M21.612,22.124c-0.104,0-0.207-0.039-0.306-0.117l-6.32-4.916
		c-0.045-0.035-0.088-0.073-0.129-0.114C14.594,16.715,14.45,16.369,14.45,16s0.144-0.715,0.404-0.976l0.17-0.17
		c0.261-0.261,0.607-0.404,0.976-0.404s0.715,0.144,0.975,0.404c0.043,0.042,0.082,0.085,0.117,0.131l4.916,6.321
		c0.16,0.206,0.125,0.391,0.067,0.509C21.986,21.997,21.795,22.124,21.612,22.124z"/>
	<path class="avocado_een" d="M16,2C8.268,2,2,8.268,2,16s6.268,14,14,14s14-6.268,14-14S23.732,2,16,2z M16,29
		C8.832,29,3,23.168,3,16S8.832,3,16,3s13,5.832,13,13S23.168,29,16,29z M17.486,14.678c-0.048-0.062-0.157-0.177-0.157-0.177
		C16.962,14.134,16.481,13.95,16,13.95s-0.962,0.184-1.329,0.551l-0.17,0.17c-0.734,0.734-0.734,1.924,0,2.659
		c0,0,0.116,0.109,0.177,0.157l6.321,4.916c0.199,0.155,0.411,0.222,0.613,0.222c0.741,0,1.358-0.895,0.79-1.625L17.486,14.678z
		 M15.292,16.697c-0.029-0.022-0.056-0.046-0.084-0.074c-0.343-0.343-0.343-0.901,0-1.245l0.17-0.17
		c0.166-0.166,0.387-0.258,0.622-0.258s0.456,0.092,0.624,0.26c0.026,0.026,0.05,0.053,0.072,0.082l4.916,6.321L15.292,16.697z"/>
</g>
</svg>