<?xml version="1.0" encoding="utf-8"?>
<svg version="1.1" xmlns="http://www.w3.org/2000/svg" xmlns:xlink="http://www.w3.org/1999/xlink" 
	 width="800px" height="800px" viewBox="0 0 32 32" xml:space="preserve">
<style type="text/css">
	.avocado_acht{fill:#A3AEB5;}
	.avocado_vijf{fill:#DBD2C1;}
	.avocado_een{fill:#231F20;}
	.avocado_zes{fill:#FFFAEE;}
	.st0{fill:#CC4121;}
	.st1{fill:#6F9B45;}
	.st2{fill:#3D3935;}
	.st3{fill:#EAD13F;}
	.st4{fill:#8D3E93;}
	.st5{fill:#BF63C1;}
	.st6{fill:#C3CC6A;}
	.st7{fill:#E0A838;}
</style>
<g>
	<circle class="avocado_zes" cx="12" cy="20" r="11.5"/>
	<g>
		<polygon class="avocado_acht" points="13.73,14.023 27.979,1.686 30.314,4.021 17.977,18.27 		"/>
	</g>
	<g>
		<circle class="avocado_vijf" cx="12.5" cy="19.5" r="3.5"/>
	</g>
	<path class="avocado_een" d="M31,5c-0.086,0-0.164,0.029-0.244,0.049L30.4,4.693L31,4l-3-3l-0.693,0.6l-0.357-0.357
		C26.971,1.164,27,1.086,27,1c0-0.552-0.448-1-1-1s-1,0.448-1,1c0,0.552,0.448,1,1,1c0.086,0,0.164-0.029,0.244-0.049l0.306,0.306
		l-1.385,1.201l-0.214-0.214C24.971,3.164,25,3.086,25,3c0-0.552-0.448-1-1-1s-1,0.448-1,1c0,0.552,0.448,1,1,1
		c0.086,0,0.164-0.029,0.244-0.049l0.163,0.163l-6.378,5.527C16.256,8.605,14.202,8,12,8C5.373,8,0,13.373,0,20
		c0,6.627,5.373,12,12,12s12-5.373,12-12c0-2.202-0.605-4.256-1.641-6.029l5.527-6.378l0.163,0.163C28.029,7.836,28,7.914,28,8
		c0,0.552,0.448,1,1,1s1-0.448,1-1c0-0.552-0.448-1-1-1c-0.086,0-0.164,0.029-0.244,0.049l-0.214-0.214l1.201-1.385l0.306,0.306
		C30.029,5.836,30,5.914,30,6c0,0.552,0.448,1,1,1s1-0.448,1-1C32,5.448,31.552,5,31,5z M23,20c0,6.065-4.935,11-11,11
		S1,26.065,1,20S5.935,9,12,9c1.891,0,3.654,0.507,5.209,1.353L13,14l5,5l3.647-4.209C22.493,16.346,23,18.109,23,20z
		 M17.948,17.533l-3.481-3.481L27.951,2.365l1.683,1.683L17.948,17.533z M6.354,20.646l5,5l-0.707,0.707l-5-5L6.354,20.646z"/>
</g>
</svg>