<?xml version="1.0" encoding="utf-8"?>
<svg version="1.1" xmlns="http://www.w3.org/2000/svg" xmlns:xlink="http://www.w3.org/1999/xlink" 
	 width="800px" height="800px" viewBox="0 0 32 32" xml:space="preserve">
<style type="text/css">
	.avocado_een{fill:#231F20;}
	.avocado_zeven{fill:#788287;}
	.avocado_twintig{fill:#EAD13F;}
	.avocado_negentien{fill:#E0A838;}
	.st0{fill:#A3AEB5;}
	.st1{fill:#FFFAEE;}
	.st2{fill:#AF9480;}
	.st3{fill:#DBD2C1;}
	.st4{fill:#CC4121;}
	.st5{fill:#C3CC6A;}
	.st6{fill:#D1712A;}
	.st7{fill:#716558;}
	.st8{fill:#6F9B45;}
	.st9{fill:#0E608E;}
	.st10{fill:#E598A3;}
	.st11{fill:#3D3935;}
	.st12{fill:#248EBC;}
	.st13{fill:#BF63C1;}
</style>
<g>
	<g>
		<path class="avocado_twintig" d="M9,28.5c-4.687,0-8.5-3.813-8.5-8.5s3.813-8.5,8.5-8.5h3.5v-2h5v2H21
			c4.687,0,8.5,3.813,8.5,8.5s-3.813,8.5-8.5,8.5H9z"/>
	</g>
	<g>
		<g>
			<path class="avocado_negentien" d="M13.5,9.5v-3h-2v-3H15c0.827,0,1.5,0.673,1.5,1.5v4.5H13.5z M30.206,26.5l-2.001-2.002
				C29.054,23.145,29.5,21.599,29.5,20s-0.446-3.145-1.295-4.498l2.002-2.002H31.5v5.293L30.293,20l1.207,1.207V26.5L30.206,26.5z"
				/>
		</g>
	</g>
	<path class="avocado_zeven" d="M0.884,22.5C0.629,21.679,0.5,20.84,0.5,20s0.129-1.679,0.384-2.5h4.115
		c1.379,0,2.5,1.122,2.5,2.5s-1.121,2.5-2.5,2.5H0.884z M15.5,20c0-1.378-1.121-2.5-2.5-2.5s-2.5,1.122-2.5,2.5s1.121,2.5,2.5,2.5
		S15.5,21.378,15.5,20z M23.5,20c0-1.378-1.121-2.5-2.5-2.5s-2.5,1.122-2.5,2.5s1.121,2.5,2.5,2.5S23.5,21.378,23.5,20z"/>
	<path class="avocado_een" d="M13,17c-1.657,0-3,1.343-3,3s1.343,3,3,3s3-1.343,3-3S14.657,17,13,17z M13,22
		c-1.103,0-2-0.897-2-2c0-1.103,0.897-2,2-2c1.103,0,2,0.897,2,2C15,21.103,14.103,22,13,22z M21,17c-1.657,0-3,1.343-3,3
		s1.343,3,3,3s3-1.343,3-3S22.657,17,21,17z M21,22c-1.103,0-2-0.897-2-2c0-1.103,0.897-2,2-2c1.103,0,2,0.897,2,2
		C23,21.103,22.103,22,21,22z M32,13h-2l-1.721,1.721C26.643,12.47,23.996,11,21,11h-3V9h-1V5c0-1.105-0.895-2-2-2h-4v4h2v2h-1v2H9
		c-3.917,0-7.24,2.507-8.477,6c-0.597,1.716-0.686,3.573-0.208,5.33C1.343,26.169,4.836,29,9,29h12c2.996,0,5.643-1.47,7.278-3.721
		L30,27h2v-6l-1-1l1-1V13z M12,6V4h3c0.551,0,1,0.449,1,1v4h-2V6H12z M13,10h4v1h-4V10z M1,20c0-0.692,0.097-1.359,0.263-2h3.736
		c1.103,0,2,0.897,2,2c0,1.103-0.897,2-2,2H1.263C1.098,21.359,1,20.692,1,20z M21,28H9c-3.35,0-6.221-2.072-7.411-5h3.41
		c1.657,0,3-1.343,3-3s-1.343-3-3-3h-3.41C2.779,14.072,5.65,12,9,12h12c4.411,0,8,3.589,8,8C29,24.411,25.411,28,21,28z M31,21.414
		V26h-0.586l-1.58-1.58c0.678-1.198,1.082-2.567,1.146-4.026L31,21.414z M31,18.586l-1.02,1.02
		c-0.063-1.459-0.468-2.828-1.146-4.026l1.58-1.58H31V18.586z"/>
</g>
</svg>