<?xml version="1.0" encoding="utf-8"?>
<svg version="1.1" xmlns="http://www.w3.org/2000/svg" xmlns:xlink="http://www.w3.org/1999/xlink" 
	 width="800px" height="800px" viewBox="0 0 32 32" xml:space="preserve">
<style type="text/css">
	.avocado_vijf{fill:#DBD2C1;}
	.avocado_een{fill:#231F20;}
	.avocado_zes{fill:#FFFAEE;}
	.avocado_negentien{fill:#E0A838;}
	.st0{fill:#A3AEB5;}
	.st1{fill:#AF9480;}
	.st2{fill:#CC4121;}
	.st3{fill:#788287;}
	.st4{fill:#EAD13F;}
	.st5{fill:#C3CC6A;}
	.st6{fill:#D1712A;}
	.st7{fill:#716558;}
	.st8{fill:#6F9B45;}
	.st9{fill:#0E608E;}
	.st10{fill:#E598A3;}
	.st11{fill:#FFFAEE;}
	.st12{fill:#3D3935;}
	.st13{fill:#248EBC;}
	.st14{fill:#BF63C1;}
</style>
<g>
	<polygon class="avocado_zes" points="2.5,13.793 2.5,2.5 13.795,2.5 29.293,18 18,29.293 	"/>
	<g>
		<rect x="5" y="5" class="avocado_negentien" width="4" height="4"/>
	</g>
	<path class="avocado_een" d="M14,2H2v12l16,16l12-12L14,2z M3,13.586V3h10.586l15,15L18,28.586L3,13.586z M6,6h2v2H6V6z"/>
	<g>
		<g>
			<path class="avocado_vijf" d="M20.354,17.646l-0.707,0.707l-6-6l0.707-0.707L20.354,17.646z M11.646,14.354l6,6
				l0.707-0.707l-6-6L11.646,14.354z"/>
		</g>
	</g>
</g>
</svg>