<?xml version="1.0" encoding="utf-8"?>
<svg version="1.1" xmlns="http://www.w3.org/2000/svg" xmlns:xlink="http://www.w3.org/1999/xlink" 
	 width="800px" height="800px" viewBox="0 0 32 32" xml:space="preserve">
<style type="text/css">
	.avocado_acht{fill:#A3AEB5;}
	.avocado_een{fill:#231F20;}
	.avocado_zeven{fill:#788287;}
	.st0{fill:#FFFAEE;}
	.st1{fill:#AF9480;}
	.st2{fill:#DBD2C1;}
	.st3{fill:#CC4121;}
	.st4{fill:#EAD13F;}
	.st5{fill:#C3CC6A;}
	.st6{fill:#D1712A;}
	.st7{fill:#E0A838;}
	.st8{fill:#716558;}
	.st9{fill:#6F9B45;}
	.st10{fill:#0E608E;}
	.st11{fill:#E598A3;}
	.st12{fill:#3D3935;}
	.st13{fill:#248EBC;}
	.st14{fill:#BF63C1;}
</style>
<g>
	<g>
		<path class="avocado_acht" d="M7.5,31.5v-9h1V16c0-1.938,0.742-3.778,2.089-5.184l0.089-0.093l0.033-0.125
			c0.283-1.071,0.86-2.014,1.67-2.727l0.143-0.125l0.023-0.188c0.141-1.105,0.81-2.085,1.791-2.619l0.199-0.109L15.5,0.5h1
			l0.963,4.331l0.199,0.108c0.982,0.536,1.652,1.518,1.792,2.624l0.023,0.188l0.143,0.125c0.83,0.731,1.414,1.681,1.689,2.743
			l0.033,0.126l0.089,0.094C22.766,12.241,23.5,14.074,23.5,16v6.5h1v9H7.5z"/>
	</g>
	<path class="avocado_zeven" d="M17,23h-2v-2h2V23z M17,17h-2v2h2V17z M17,13h-2v2h2V13z M17,25h-2v2h2V25z M17,29h-2v2h2V29z
		 M13,25h-2v2h2V25z M13,29h-2v2h2V29z M21,25h-2v2h2V25z M21,29h-2v2h2V29z"/>
	<path class="avocado_een" d="M24,16c0-2.136-0.842-4.071-2.206-5.506c-0.305-1.179-0.958-2.212-1.844-2.993
		c-0.164-1.302-0.944-2.398-2.048-3l-1-4.501h-1.803l-1,4.501c-1.103,0.601-1.883,1.696-2.048,2.996
		c-0.88,0.774-1.514,1.806-1.823,2.973C8.851,11.907,8,13.853,8,16v6H7v10h18V22h-1V16z M16,7c1.66,0,3.105,0.829,4.005,2.082
		C18.826,8.398,17.461,8,16,8c-1.478,0-2.858,0.408-4.046,1.107C12.856,7.836,14.325,7,16,7z M15.901,1h0.197l0.684,3.079
		C16.529,4.029,16.268,4,16,4s-0.529,0.029-0.783,0.079L15.901,1z M16,5c1.168,0,2.173,0.677,2.669,1.654
		C17.862,6.249,16.964,6,16,6c-0.958,0-1.852,0.244-2.655,0.643C13.84,5.672,14.837,5,16,5z M9,16c0-3.86,3.14-7,7-7s7,3.14,7,7v6
		h-1v-6c0-3.314-2.686-6-6-6s-6,2.686-6,6v6H9V16z M24,31H8v-8h3v0v-7c0-2.757,2.243-5,5-5s5,2.243,5,5v7h3V31z"/>
</g>
</svg>