<?xml version="1.0" encoding="utf-8"?>
<svg version="1.1" xmlns="http://www.w3.org/2000/svg" xmlns:xlink="http://www.w3.org/1999/xlink" 
	 width="800px" height="800px" viewBox="0 0 32 32" xml:space="preserve">
<style type="text/css">
	.avocado_acht{fill:#A3AEB5;}
	.avocado_zeventien{fill:#CC4121;}
	.avocado_een{fill:#231F20;}
	.avocado_zeven{fill:#788287;}
	.avocado_negentien{fill:#E0A838;}
	.st0{fill:#FFFAEE;}
	.st1{fill:#AF9480;}
	.st2{fill:#DBD2C1;}
	.st3{fill:#EAD13F;}
	.st4{fill:#C3CC6A;}
	.st5{fill:#D1712A;}
	.st6{fill:#716558;}
	.st7{fill:#6F9B45;}
	.st8{fill:#0E608E;}
	.st9{fill:#E598A3;}
	.st10{fill:#3D3935;}
	.st11{fill:#248EBC;}
	.st12{fill:#BF63C1;}
</style>
<g>
	<g>
		<path class="avocado_acht" d="M22.557,17.5l0.75-7H22.5v-1h7v8H22.557z M9.309,17.5l-1-2H2.5v-4h6v4h6v2H9.309z"/>
	</g>
	<polygon class="avocado_zeventien" points="14.5,17.5 14.5,15.5 8.5,15.5 8.5,11.5 2.5,11.5 2.5,7.5 8.5,7.5 8.5,11.5 
		14.5,11.5 14.5,15.5 20.5,15.5 20.5,17.5 	"/>
	<path class="avocado_zeven" d="M28,12h-3v2h3V12z M4.339,24.5l-3.601-9h7.57l1,2h21.97l-2.625,7H4.339z"/>
	<g>
		<g>
			<path class="avocado_negentien" d="M29.591,22l-0.937,2.5H4.339l-1-2.5H29.591z M20.5,15.5v-4h-6v-4h-6v4h6v4H20.5z"/>
		</g>
	</g>
	<path class="avocado_een" d="M30,17V9h-8v2h0.75l-0.643,6H21v-6h-6V7H2v8H0l4,10h25l3-8H30z M23.863,10H29v7h-5.887
		L23.863,10z M8,15H3v-3h5V15z M9,15v-3h5v3H9z M9,16h5v1H9.5L9,16z M15,17v-1h5v1H15z M15,12h5v3h-5V12z M9,8h5v3H9V8z M3,8h5v3H3
		V8z M28.307,24H4.677l-3.2-8H8l1,2l21.557,0L28.307,24z"/>
</g>
</svg>