<?xml version="1.0" encoding="utf-8"?>
<svg version="1.1" xmlns="http://www.w3.org/2000/svg" xmlns:xlink="http://www.w3.org/1999/xlink" 
	 width="800px" height="800px" viewBox="0 0 32 32" xml:space="preserve">
<style type="text/css">
	.avocado_een{fill:#231F20;}
	.avocado_tien{fill:#C3CC6A;}
	.avocado_negen{fill:#6F9B45;}
	.st0{fill:#A3AEB5;}
	.st1{fill:#FFFAEE;}
	.st2{fill:#AF9480;}
	.st3{fill:#DBD2C1;}
	.st4{fill:#CC4121;}
	.st5{fill:#788287;}
	.st6{fill:#EAD13F;}
	.st7{fill:#D1712A;}
	.st8{fill:#E0A838;}
	.st9{fill:#716558;}
	.st10{fill:#0E608E;}
	.st11{fill:#E598A3;}
	.st12{fill:#3D3935;}
	.st13{fill:#248EBC;}
	.st14{fill:#BF63C1;}
</style>
<g>
	<path class="avocado_negen" d="M19.5,27c0-1.93,1.57-3.5,3.5-3.5c0.693,0,1.348,0.207,1.913,0.57
		c0.058-2.845-0.468-3.57-0.468-3.57l0.01-0.171c-0.302,0.102-0.619,0.17-0.955,0.17c-1.654,0-3-1.346-3-3s1.346-3,3-3
		c0.459,0,0.89,0.112,1.279,0.297l0.046-0.781c0.097-0.651,0.146-1.325,0.146-2.015c0-5.523-3.142-9.5-8.972-9.5
		S7.028,6.477,7.028,12c0,0.711,0.052,1.404,0.155,2.073l0.038,0.652c0.39-0.185,0.82-0.297,1.279-0.297c1.654,0,3,1.346,3,3
		s-1.346,3-3,3c-0.337,0-0.656-0.068-0.959-0.171L7.555,20.5c0,0-0.528,0.594-0.479,3.51C7.582,23.656,8.289,23.429,9,23.429
		c1.93,0,3.5,1.57,3.5,3.5c0,0.77-0.265,1.507-0.678,2.067c2.366,0.674,6.255,0.652,8.318,0.01C19.74,28.437,19.5,27.747,19.5,27z"
		/>
	<path class="avocado_tien" d="M5.5,5.429c0-1.654,1.346-3,3-3c1.051,0,1.974,0.545,2.51,1.365
		C9.367,4.802,8.212,6.348,7.585,8.271C6.38,7.882,5.5,6.762,5.5,5.429z M8.5,20.428c1.654,0,3-1.346,3-3s-1.346-3-3-3s-3,1.346-3,3
		S6.846,20.428,8.5,20.428z M24.432,8.337C25.629,7.942,26.5,6.827,26.5,5.5c0-1.654-1.346-3-3-3c-1.029,0-1.938,0.522-2.479,1.314
		C22.664,4.834,23.815,6.397,24.432,8.337z M9,23.429c-1.93,0-3.5,1.57-3.5,3.5s1.57,3.5,3.5,3.5s3.5-1.57,3.5-3.5
		S10.93,23.429,9,23.429z M23,23.5c-1.93,0-3.5,1.57-3.5,3.5s1.57,3.5,3.5,3.5s3.5-1.57,3.5-3.5S24.93,23.5,23,23.5z M19,13
		c0,2.209-1.343,3-3,3s-3-0.791-3-3c0-2.209,1.343-3,3-3S19,10.791,19,13z M17,12c0-0.552-0.448-1-1-1s-1,0.448-1,1
		c0,0.552,0.448,1,1,1S17,12.552,17,12z M23.5,14.499c-1.654,0-3,1.346-3,3s1.346,3,3,3s3-1.346,3-3S25.154,14.499,23.5,14.499z"/>
	<path class="avocado_een" d="M27,17.499c0-1.278-0.692-2.384-1.715-2.995l0.062-0.414C25.449,13.415,25.5,12.712,25.5,12
		c0-1.229-0.151-2.361-0.429-3.393C26.212,8.033,27,6.865,27,5.5C27,3.567,25.433,2,23.5,2c-1.023,0-1.921,0.459-2.56,1.16
		C19.556,2.407,17.897,2,16,2s-3.556,0.407-4.94,1.16C10.421,2.459,9.523,2,8.5,2C6.567,2,5,3.567,5,5.5
		c0,1.365,0.788,2.533,1.929,3.107C6.651,9.639,6.5,10.771,6.5,12c0,0.733,0.054,1.457,0.162,2.149l0.055,0.354
		C5.693,15.114,5,16.221,5,17.499c0,1.351,0.774,2.51,1.895,3.093c-0.189,0.487-0.386,1.44-0.393,3.307C5.593,24.633,5,25.742,5,27
		c0,2.209,1.791,4,4,4c1.245,0,2.343-0.58,3.076-1.472c1.27,0.3,2.596,0.455,3.924,0.455c1.328,0,2.654-0.155,3.924-0.455
		C20.657,30.42,21.755,31,23,31c2.209,0,4-1.791,4-4c0-1.258-0.593-2.367-1.502-3.101c-0.008-1.867-0.204-2.82-0.393-3.307
		C26.226,20.009,27,18.85,27,17.499z M23.5,3C24.878,3,26,4.122,26,5.5c0,0.916-0.502,1.708-1.24,2.141
		c-0.624-1.654-1.63-2.986-2.962-3.941C22.244,3.274,22.835,3,23.5,3z M6,5.5C6,4.122,7.122,3,8.5,3c0.665,0,1.256,0.274,1.702,0.7
		C8.87,4.654,7.863,5.986,7.24,7.641C6.502,7.208,6,6.416,6,5.5z M6,17.499c0-1.378,1.122-2.5,2.5-2.5s2.5,1.122,2.5,2.5
		c0,1.379-1.122,2.5-2.5,2.5S6,18.878,6,17.499z M11.64,28.394l-0.004-0.001l-0.004,0.015C11.126,29.351,10.143,30,9,30
		c-1.654,0-3-1.346-3-3c0-1.654,1.346-3,3-3s3,1.346,3,3C12,27.506,11.862,27.976,11.64,28.394z M19.353,28.629
		c-2.182,0.465-4.522,0.465-6.706,0C12.87,28.13,13,27.581,13,27c0-2.209-1.791-4-4-4c-0.527,0-1.027,0.108-1.488,0.293
		c0.046-1.492,0.226-2.131,0.319-2.361c0.217,0.042,0.439,0.067,0.668,0.067c1.933,0,3.5-1.567,3.5-3.5c0-1.933-1.567-3.5-3.5-3.5
		c-0.288,0-0.564,0.045-0.833,0.111L7.65,13.997C7.55,13.354,7.5,12.683,7.5,12c0-5.552,3.257-9,8.5-9s8.5,3.448,8.5,9
		c0,0.662-0.047,1.315-0.142,1.941l-0.025,0.169c-0.268-0.066-0.544-0.111-0.833-0.111c-1.933,0-3.5,1.567-3.5,3.5
		c0,1.933,1.567,3.5,3.5,3.5c0.229,0,0.452-0.025,0.668-0.067c0.093,0.229,0.273,0.869,0.319,2.361C24.027,23.108,23.527,23,23,23
		c-2.209,0-4,1.791-4,4C19,27.581,19.13,28.13,19.353,28.629z M26,27c0,1.654-1.346,3-3,3c-1.143,0-2.126-0.649-2.633-1.592
		l-0.004-0.015l-0.004,0.001C20.138,27.976,20,27.506,20,27c0-1.654,1.346-3,3-3S26,25.346,26,27z M23.5,19.999
		c-1.378,0-2.5-1.121-2.5-2.5c0-1.378,1.122-2.5,2.5-2.5s2.5,1.122,2.5,2.5C26,18.878,24.878,19.999,23.5,19.999z M10,9h2v2h-2V9z
		 M22,11h-2V9h2V11z"/>
</g>
</svg>