<?xml version="1.0" encoding="utf-8"?>
<svg version="1.1" xmlns="http://www.w3.org/2000/svg" xmlns:xlink="http://www.w3.org/1999/xlink" 
	 width="800px" height="800px" viewBox="0 0 32 32" xml:space="preserve">
<style type="text/css">
	.avocado_een{fill:#231F20;}
	.avocado_zes{fill:#FFFAEE;}
	.avocado_tien{fill:#C3CC6A;}
	.avocado_negen{fill:#6F9B45;}
	.st0{fill:#A3AEB5;}
	.st1{fill:#AF9480;}
	.st2{fill:#DBD2C1;}
	.st3{fill:#CC4121;}
	.st4{fill:#788287;}
	.st5{fill:#EAD13F;}
	.st6{fill:#D1712A;}
	.st7{fill:#E0A838;}
	.st8{fill:#716558;}
	.st9{fill:#0E608E;}
	.st10{fill:#E598A3;}
	.st11{fill:#FFFAEE;}
	.st12{fill:#3D3935;}
	.st13{fill:#248EBC;}
	.st14{fill:#BF63C1;}
</style>
<g>
	<rect x="0.5" y="4.5" class="avocado_zes" width="31" height="23"/>
	<polygon class="avocado_negen" points="23,14 19,17 15,18 11,19.5 7,19.5 3,20.5 3,24 23,24 	"/>
	<polygon class="avocado_tien" points="23,14 23,24 29,24 29,11 	"/>
	<path class="avocado_een" d="M0,4v24h32V4H0z M31,27H1V5h30V27z M29,24H3v-1h26V24z M23,14h-3v-1h4v4h-1V14z M23.7,14.1
		l-4.579,3.386l-4,1L11,20H7.062L3,21.016v-1.029L7,19h3.909l3.915-1.468l3.957-0.993L23.1,13.3L23.7,14.1z"/>
</g>
</svg>