<?xml version="1.0" encoding="utf-8"?>
<svg version="1.1" xmlns="http://www.w3.org/2000/svg" xmlns:xlink="http://www.w3.org/1999/xlink" 
	 width="800px" height="800px" viewBox="0 0 32 32" xml:space="preserve">
<style type="text/css">
	.avocado_een{fill:#231F20;}
	.avocado_acht{fill:#A3AEB5;}
	.avocado_achttien{fill:#D1712A;}
	.st0{fill:#FFFAEE;}
	.st1{fill:#AF9480;}
	.st2{fill:#DBD2C1;}
	.st3{fill:#CC4121;}
	.st4{fill:#788287;}
	.st5{fill:#EAD13F;}
	.st6{fill:#C3CC6A;}
	.st7{fill:#E0A838;}
	.st8{fill:#716558;}
	.st9{fill:#6F9B45;}
	.st10{fill:#0E608E;}
	.st11{fill:#E598A3;}
	.st12{fill:#3D3935;}
	.st13{fill:#248EBC;}
	.st14{fill:#BF63C1;}
	.st15{fill:none;}
</style>
<g>
	<path class="avocado_acht" d="M24,10.5h-0.5V10c0-4.136-3.364-7.5-7.5-7.5c-3.436,0-6.422,2.329-7.264,5.663L8.651,8.501
			L8.305,8.538C4.995,8.891,2.5,11.668,2.5,15c0,3.584,2.916,6.5,6.5,6.5h15c3.032,0,5.5-2.467,5.5-5.5S27.032,10.5,24,10.5z"/>

	<polygon class="avocado_achttien" points="16,14.7 11.207,19.493 12.5,19.493 12.5,29.5 19.5,29.5 19.5,19.493 20.793,19.493"/>

	<path class="avocado_een" d="M24,10c0-4.418-3.582-8-8-8c-3.741,0-6.873,2.572-7.748,6.041C4.738,8.415,2,11.387,2,15
		c0,3.866,3.134,7,7,7h3v8h8v-8h4c3.314,0,6-2.686,6-6S27.314,10,24,10z M19,19v10h-6V19h-0.586L16,15.414L19.586,19H19z M24,21h-4
		v-1h2l-6-6l-6,6h2v1H9c-3.308,0-6-2.692-6-6c0-3.076,2.303-5.64,5.357-5.964l0.693-0.074l0.171-0.676C10.006,5.174,12.794,3,16,3
		c3.86,0,7,3.14,7,7v1h1c2.757,0,5,2.243,5,5S26.757,21,24,21z"/>
</g>
</svg>