<?xml version="1.0" encoding="utf-8"?>
<svg version="1.1" xmlns="http://www.w3.org/2000/svg" xmlns:xlink="http://www.w3.org/1999/xlink" 
	 width="800px" height="800px" viewBox="0 0 32 32" xml:space="preserve">
<style type="text/css">
	.avocado_vijf{fill:#DBD2C1;}
	.avocado_zeventien{fill:#CC4121;}
	.avocado_een{fill:#231F20;}
	.avocado_zes{fill:#FFFAEE;}
	.st0{fill:#A3AEB5;}
	.st1{fill:#AF9480;}
	.st2{fill:#788287;}
	.st3{fill:#EAD13F;}
	.st4{fill:#C3CC6A;}
	.st5{fill:#D1712A;}
	.st6{fill:#E0A838;}
	.st7{fill:#716558;}
	.st8{fill:#6F9B45;}
	.st9{fill:#0E608E;}
	.st10{fill:#E598A3;}
	.st11{fill:#FFFAEE;}
	.st12{fill:#3D3935;}
	.st13{fill:#248EBC;}
	.st14{fill:#BF63C1;}
</style>
<g>
	<circle class="avocado_zes" cx="16" cy="16" r="11.5"/>
	<path class="avocado_zeventien" d="M16,2.5C8.544,2.5,2.5,8.544,2.5,16S8.544,29.5,16,29.5S29.5,23.456,29.5,16
		S23.456,2.5,16,2.5z M16,27.5C9.649,27.5,4.5,22.351,4.5,16S9.649,4.5,16,4.5S27.5,9.649,27.5,16S22.351,27.5,16,27.5z"/>
	<g>
		<g>
			<path class="avocado_vijf" d="M16,4.5C9.649,4.5,4.5,9.649,4.5,16c0,6.351,5.149,11.5,11.5,11.5S27.5,22.351,27.5,16
				C27.5,9.649,22.351,4.5,16,4.5z M16,26c-5.514,0-10-4.486-10-10S10.486,6,16,6s10,4.486,10,10S21.514,26,16,26z"/>
		</g>
	</g>
	<path class="avocado_een" d="M16,2C8.268,2,2,8.268,2,16s6.268,14,14,14s14-6.268,14-14S23.732,2,16,2z M16,29
		C8.832,29,3,23.168,3,16S8.832,3,16,3s13,5.832,13,13S23.168,29,16,29z M16,4C9.383,4,4,9.383,4,16s5.383,12,12,12s12-5.383,12-12
		S22.617,4,16,4z M16,27C9.925,27,5,22.075,5,16S9.925,5,16,5s11,4.925,11,11S22.075,27,16,27z M15,24h2v1h-2V24z M17,8h-2V7h2V8z
		 M25,15v2h-1v-2H25z M7,15h1v2H7V15z M16,16h4v1h-5v-7h1V16z"/>
</g>
</svg>