<?xml version="1.0" encoding="utf-8"?>
<svg version="1.1" xmlns="http://www.w3.org/2000/svg" xmlns:xlink="http://www.w3.org/1999/xlink" 
	 width="800px" height="800px" viewBox="0 0 32 32" xml:space="preserve">
<style type="text/css">
	.avocado_zeventien{fill:#CC4121;}
	.avocado_een{fill:#231F20;}
	.avocado_achttien{fill:#D1712A;}
	.st0{fill:#A3AEB5;}
	.st1{fill:#FFFAEE;}
	.st2{fill:#AF9480;}
	.st3{fill:#DBD2C1;}
	.st4{fill:#788287;}
	.st5{fill:#EAD13F;}
	.st6{fill:#C3CC6A;}
	.st7{fill:#E0A838;}
	.st8{fill:#716558;}
	.st9{fill:#6F9B45;}
	.st10{fill:#0E608E;}
	.st11{fill:#E598A3;}
	.st12{fill:#3D3935;}
	.st13{fill:#248EBC;}
	.st14{fill:#BF63C1;}
</style>
<g>
	<g>
		<rect x="5.5" y="21.5" class="avocado_achttien" width="21" height="6"/>
	</g>
	<path class="avocado_zeventien" d="M29.646,14.354c-0.439-0.439-1.024-0.682-1.646-0.682s-1.207,0.242-1.646,0.682
		L25.5,15.207V12c0-3.032-2.468-5.5-5.5-5.5c-1.351,0-2.653,0.501-3.666,1.409L16,8.209l-0.334-0.3C14.653,7.001,13.351,6.5,12,6.5
		c-3.032,0-5.5,2.468-5.5,5.5v3.207l-0.854-0.854C5.207,13.914,4.622,13.672,4,13.672s-1.207,0.242-1.646,0.682
		c-0.908,0.908-0.908,2.385,0,3.293L6.207,21.5H7v6h1v-6h1v6h1v-6h1v6h1v-6h1v6h1v-6h2v6h1v-6h1v6h1v-6h1v6h1v-6h1v6h1v-6H24v6h1v-6
		h0.793l3.854-3.854C30.555,16.738,30.555,15.262,29.646,14.354z"/>
	<path class="avocado_een" d="M30,14c-0.552-0.552-1.276-0.828-2-0.828S26.552,13.448,26,14l0-2c0-3.314-2.686-6-6-6
		c-1.539,0-2.937,0.601-4,1.537C14.88,6.552,13.539,6,12,6c-3.314,0-6,2.686-6,6l0,2c-0.552-0.552-1.276-0.828-2-0.828
		S2.552,13.448,2,14c-1.105,1.105-1.105,2.895,0,4l3,3v7h22v-7l3-3C31.105,16.895,31.105,15.104,30,14z M2.707,17.293
		c-0.713-0.713-0.713-1.873,0-2.586C3.052,14.362,3.512,14.172,4,14.172s0.948,0.19,1.293,0.536L7,16.414V12c0-2.757,2.243-5,5-5
		c1.271,0,2.402,0.47,3.302,1.275C14.5,9.296,14,10.591,14,12v9H6.414L2.707,17.293z M14,27H6v-5l8,0V27z M26,27H15v-5h11V27z
		 M29.293,17.293L25.586,21H15v-9c0-2.757,2.243-5,5-5s5,2.243,5,5l0,4.414l1.707-1.707c0.345-0.345,0.804-0.536,1.293-0.536
		s0.948,0.19,1.293,0.536C30.006,15.42,30.006,16.58,29.293,17.293z"/>
</g>
</svg>