<?xml version="1.0" encoding="utf-8"?>
<svg version="1.1" xmlns="http://www.w3.org/2000/svg" xmlns:xlink="http://www.w3.org/1999/xlink" 
	 width="800px" height="800px" viewBox="0 0 32 32" xml:space="preserve">
<style type="text/css">
	.avocado_een{fill:#231F20;}
	.avocado_twintig{fill:#EAD13F;}
	.avocado_achttien{fill:#D1712A;}
	.avocado_negentien{fill:#E0A838;}
	.st0{fill:#A3AEB5;}
	.st1{fill:#FFFAEE;}
	.st2{fill:#AF9480;}
	.st3{fill:#DBD2C1;}
	.st4{fill:#CC4121;}
	.st5{fill:#788287;}
	.st6{fill:#C3CC6A;}
	.st7{fill:#716558;}
	.st8{fill:#6F9B45;}
	.st9{fill:#0E608E;}
	.st10{fill:#E598A3;}
	.st11{fill:#3D3935;}
	.st12{fill:#248EBC;}
	.st13{fill:#BF63C1;}
</style>
<g>
	<g>
		<g>
			<path class="avocado_twintig" d="M14.5,18.5h-12v-5h12V18.5z M18.5,18.5h11v-5h-11V18.5z M5.5,5.5h-3v5h3V5.5z M26.5,5.5v5
				h3v-5H26.5z M21.5,5.5h-11v5h11V5.5z M2.5,26.5h3v-5h-3V26.5z M26.5,26.5h3v-5h-3V26.5z M10.5,26.5h11v-5h-11V26.5z"/>
		</g>
	</g>
	<g>
		<g>
			<path class="avocado_negentien" d="M10.5,21.5H12v5h-1.5v3h-5v-11h5V21.5z M10.5,2.5h-5v11h5v-3H12v-5h-1.5V2.5z
				 M13.5,29.5h5v-3h-5V29.5z M18.5,2.5h-5v3h5V2.5z M26.5,5.5v-3h-5v11h5v-3H28v-5H26.5z M26.5,18.5h-5v11h5v-3H28v-5h-1.5V18.5z
				 M18.5,10.5h-5v11h5v-3H20v-5h-1.5V10.5z"/>
		</g>
	</g>
	<g>
		<g>
			<path class="avocado_achttien" d="M5.5,18.5h5V20h-5V18.5z M21.501,18.5V20h5v-1.5H21.501z M13.5,28h5v-1.5h-5V28z
				 M13.5,11.999h5v-1.5h-5V11.999z"/>
		</g>
	</g>
	<path class="avocado_een" d="M30,11V5h-3V2h-6v3h-2V2h-6v3h-2V2H5v3H2v6h3v2H2v6h3v2H2v6h3v3h6v-3h2v3h6v-3h2v3h6v-3h3v-6h-3
		v-2h3v-6h-3v-2H30z M29,6v4h-2V6H29z M14,3h4v2h-4V3z M21,6v4H11V6H21z M18,21h-4V11h4V21z M19,19h2v2h-2V19z M13,21h-2v-2h2V21z
		 M13,13h-2v-2h2V13z M19,11h2v2h-2V11z M3,10V6h2v4H3z M6,3h4v10H6V3z M3,18v-4h10v4H3z M3,26v-4h2v4H3z M10,29H6V19h4V29z M18,29
		h-4v-2h4V29z M11,26v-4h10v4H11z M29,22v4h-2v-4H29z M26,29h-4V19h4V29z M29,14v4H19v-4H29z M26,13h-4V3h4V13z"/>
</g>
</svg>