<?xml version="1.0" encoding="utf-8"?>
<svg version="1.1" xmlns="http://www.w3.org/2000/svg" xmlns:xlink="http://www.w3.org/1999/xlink" 
	 width="800px" height="800px" viewBox="0 0 32 32" xml:space="preserve">
<style type="text/css">
	.avocado_acht{fill:#A3AEB5;}
	.avocado_een{fill:#231F20;}
	.avocado_zeven{fill:#788287;}
	.avocado_zes{fill:#FFFAEE;}
	.st0{fill:#AF9480;}
	.st1{fill:#DBD2C1;}
	.st2{fill:#CC4121;}
	.st3{fill:#EAD13F;}
	.st4{fill:#C3CC6A;}
	.st5{fill:#D1712A;}
	.st6{fill:#E0A838;}
	.st7{fill:#716558;}
	.st8{fill:#6F9B45;}
	.st9{fill:#0E608E;}
	.st10{fill:#E598A3;}
	.st11{fill:#FFFAEE;}
	.st12{fill:#3D3935;}
	.st13{fill:#248EBC;}
	.st14{fill:#BF63C1;}
</style>
<g>
	<g>
		<path class="avocado_acht" d="M3.5,28.5v-22h8.249l0.131-0.3C12.598,4.56,14.215,3.5,16,3.5s3.402,1.06,4.12,2.7l0.131,0.3
			H28.5v22H3.5z"/>
	</g>
	<circle class="avocado_zes" cx="16" cy="8" r="2.5"/>
	<path class="avocado_een" d="M20.578,6C19.806,4.236,18.049,3,16,3s-3.806,1.236-4.578,3H3v23h26V6H20.578z M28,28H4V7h8.076
		l0.262-0.599C12.977,4.942,14.414,4,16,4s3.023,0.942,3.662,2.401L19.924,7H28V28z M16,5c-1.657,0-3,1.343-3,3s1.343,3,3,3
		s3-1.343,3-3S17.657,5,16,5z M16,10c-1.103,0-2-0.897-2-2s0.897-2,2-2c0.6,0,1.133,0.271,1.5,0.691l-1.724,0.862l0.447,0.895
		l1.731-0.865C17.983,7.717,18,7.856,18,8C18,9.103,17.103,10,16,10z"/>
	<path class="avocado_zeven" d="M14,14.892V20H9.273l-0.838-4.607c-0.25-1.373,0.548-2.721,1.873-3.163
		C12.124,11.625,14,12.977,14,14.892z M9.701,22.358C9.874,23.309,10.703,24,11.669,24H12c1.105,0,2-0.895,2-2v-1H9.455
		L9.701,22.358z M21.692,12.231C19.876,11.625,18,12.977,18,14.892V20h4.727l0.838-4.607C23.815,14.02,23.016,12.672,21.692,12.231z
		 M18,22c0,1.105,0.895,2,2,2h0.331c0.967,0,1.795-0.691,1.968-1.642L22.545,21H18V22z"/>
</g>
</svg>