<?xml version="1.0" encoding="utf-8"?>
<svg version="1.1" xmlns="http://www.w3.org/2000/svg" xmlns:xlink="http://www.w3.org/1999/xlink" 
	 width="800px" height="800px" viewBox="0 0 32 32" xml:space="preserve">
<style type="text/css">
	.avocado_acht{fill:#A3AEB5;}
	.avocado_een{fill:#231F20;}
	.avocado_zeven{fill:#788287;}
	.st0{fill:#FFFAEE;}
	.st1{fill:#AF9480;}
	.st2{fill:#DBD2C1;}
	.st3{fill:#CC4121;}
	.st4{fill:#EAD13F;}
	.st5{fill:#C3CC6A;}
	.st6{fill:#D1712A;}
	.st7{fill:#E0A838;}
	.st8{fill:#716558;}
	.st9{fill:#6F9B45;}
	.st10{fill:#0E608E;}
	.st11{fill:#E598A3;}
	.st12{fill:#3D3935;}
	.st13{fill:#248EBC;}
	.st14{fill:#BF63C1;}
</style>
<g>
	<g>
		<rect x="10.5" y="10.5" class="avocado_acht" width="11" height="15"/>
	</g>
	<path class="avocado_zeven" d="M15.207,29.5l-4.5-4.5h10.586l-4.5,4.5H15.207z M14,16.5c-0.827,0-1.5-0.673-1.5-1.5v-4.5h-2
		V3c0-1.379,1.121-2.5,2.5-2.5h6c1.379,0,2.5,1.121,2.5,2.5v7.5h-6V15C15.5,15.827,14.827,16.5,14,16.5z"/>
	<path class="avocado_een" d="M19,0h-6c-1.657,0-3,1.343-3,3v23h1l4,4v1c0,0.552,0.448,1,1,1s1-0.448,1-1v-1l4-4h1V3
		C22,1.343,20.657,0,19,0z M21,25h-0.414l-4,4h-1.171l-4-4H11V11h1v4c0,1.105,0.895,2,2,2s2-0.895,2-2v-4h5V25z M21,10h-6v5
		c0,0.551-0.449,1-1,1s-1-0.449-1-1v-5h-2V3c0-1.103,0.897-2,2-2h6c1.103,0,2,0.897,2,2V10z"/>
</g>
</svg>