<?xml version="1.0" ?>


<svg fill="#000000" width="800px" height="800px" viewBox="0 0 64 64" version="1.1" xml:space="preserve" xmlns="http://www.w3.org/2000/svg" xmlns:xlink="http://www.w3.org/1999/xlink">

<g id="orgami"/>

<g id="embroidery"/>

<g id="craftsman"/>

<g id="pottery"/>

<g id="sculpt"/>

<g id="yarn"/>

<g id="scissors"/>

<g id="sewing_machine"/>

<g id="knitting"/>

<g id="stationary"/>

<g id="stapler"/>

<g id="compass"/>

<g id="cutter"/>

<g id="pin_tool"/>

<g id="wood_chisel"/>

<g id="adhesive_tape"/>

<g id="sewing_clothes"/>

<g id="anvil">

<path d="M60,11H17c-1.3,0-2.4,0.8-2.8,2L4,13c0,0,0,0,0,0c-0.4,0-0.7,0.2-0.9,0.6c-0.2,0.4-0.1,0.8,0.1,1.1L14,27.4V28   c0,1.7,1.3,3,3,3h2c0.6,0,1,0.4,1,1v13c-3.9,0-7,3.1-7,7c0,0.6,0.4,1,1,1h36c0.6,0,1-0.4,1-1c0-3.9-3.1-7-7-7v-8   c0-8.8,7.2-16,16-16c0.6,0,1-0.4,1-1v-8C61,11.4,60.6,11,60,11z M6.2,15l7.8,0v9.3L6.2,15z M48.9,51H15.1c0.5-2.3,2.5-4,4.9-4h1h22   h1C46.4,47,48.4,48.7,48.9,51z M59,19c-9.5,0.5-17,8.4-17,18v8H22V32c0-1.7-1.3-3-3-3h-2c-0.6,0-1-0.4-1-1V14c0-0.6,0.4-1,1-1h42   V19z"/>

</g>

<g id="glue_gun"/>

<g id="roller_brush"/>

</svg>