<?xml version="1.0" ?>


<svg fill="#000000" width="800px" height="800px" viewBox="0 0 64 64" version="1.1" xml:space="preserve" xmlns="http://www.w3.org/2000/svg" xmlns:xlink="http://www.w3.org/1999/xlink">

<g id="orgami"/>

<g id="embroidery">

<g>

<path d="M41,12.7V11h2v1c0,0.6,0.4,1,1,1h4c0.6,0,1-0.4,1-1V4c0-0.6-0.4-1-1-1h-4c-0.6,0-1,0.4-1,1v1h-2V4c0-0.6-0.4-1-1-1h-3    c-0.3,0-0.5,0.1-0.7,0.3C36.1,3.5,36,3.7,36,4l0,1h-8l0-1c0-0.3-0.1-0.5-0.3-0.7C27.5,3.1,27.3,3,27,3h-3c-0.6,0-1,0.4-1,1v1h-3    c-0.6,0-1,0.4-1,1v4c0,0.6,0.4,1,1,1h3v1.7C13.7,16.3,7,25.4,7,36c0,13.8,11.2,25,25,25s25-11.2,25-25C57,25.4,50.3,16.3,41,12.7z     M45,5h2v6h-2v-1V6V5z M43,7v2h-2V7H43z M39,5v7c-0.3-0.1-0.7-0.2-1-0.3c0-0.1,0-0.1,0-0.2L38,5H39z M28,11h4h4l0,0.3    c-1.3-0.2-2.6-0.3-4-0.3s-2.7,0.1-4,0.3L28,11z M36,7l0,2h-8l0-2H36z M21,9V7h2v2H21z M25,5h1l0,6.5c0,0.1,0,0.2,0,0.2    c-0.3,0.1-0.7,0.2-1,0.3V5z M32,59C19.3,59,9,48.7,9,36s10.3-23,23-23s23,10.3,23,23S44.7,59,32,59z"/>

<path d="M32,15c-11.6,0-21,9.4-21,21s9.4,21,21,21s21-9.4,21-21S43.6,15,32,15z M32,55c-10.5,0-19-8.5-19-19s8.5-19,19-19    s19,8.5,19,19S42.5,55,32,55z"/>

<path d="M48.7,35.3c-2.3-2.3-6.6-3.1-9.5-3.4c0.5-1,0.8-2,0.8-3c0-0.6-0.4-1-1-1c-1,0-2,0.3-3,0.8c-0.3-2.8-1.1-7.2-3.4-9.5    c-0.4-0.4-1-0.4-1.4,0c-2.3,2.3-3.1,6.6-3.4,9.5c-1-0.5-2-0.8-3-0.8c-0.6,0-1,0.4-1,1c0,1,0.3,2,0.8,3c-2.8,0.3-7.2,1.1-9.5,3.4    c-0.4,0.4-0.4,1,0,1.4c2.3,2.3,6.6,3.1,9.5,3.4c-0.5,1-0.8,2-0.8,3c0,0.6,0.4,1,1,1c1,0,2-0.3,3-0.8c0.3,2.8,1.1,7.2,3.4,9.5    c0.2,0.2,0.5,0.3,0.7,0.3s0.5-0.1,0.7-0.3c2.3-2.3,3.1-6.6,3.4-9.5c1,0.5,2,0.8,3,0.8c0.6,0,1-0.4,1-1c0-1-0.3-2-0.8-3    c2.8-0.3,7.2-1.1,9.5-3.4C49.1,36.3,49.1,35.7,48.7,35.3z M32,50.4c-1-1.5-1.5-3.5-1.8-5.3c0.3,0.6,0.6,1.2,1.1,1.6    c0.2,0.2,0.5,0.3,0.7,0.3s0.5-0.1,0.7-0.3c0.4-0.4,0.8-1,1.1-1.6C33.5,46.9,33,48.9,32,50.4z M32,21.6c1,1.5,1.5,3.5,1.8,5.3    c-0.3-0.6-0.6-1.2-1.1-1.6c-0.4-0.4-1-0.4-1.4,0c-0.4,0.4-0.8,1-1.1,1.6C30.5,25.1,31,23.1,32,21.6z M30,36c0-1.1,0.9-2,2-2    s2,0.9,2,2s-0.9,2-2,2S30,37.1,30,36z M33,32.1c-0.3-0.1-0.6-0.1-1-0.1s-0.7,0.1-1,0.1c0.1-1.2,0.3-3,1-4.3    C32.6,29.1,32.9,30.9,33,32.1z M28.1,35c-0.1,0.3-0.1,0.6-0.1,1s0.1,0.7,0.1,1c-1.2-0.1-3-0.3-4.3-1C25.1,35.4,26.9,35.1,28.1,35z     M31,39.9c0.3,0.1,0.6,0.1,1,0.1s0.7-0.1,1-0.1c-0.1,1.2-0.3,3-1,4.3C31.4,42.9,31.1,41.1,31,39.9z M35.9,37    c0.1-0.3,0.1-0.6,0.1-1s-0.1-0.7-0.1-1c1.2,0.1,3,0.3,4.3,1C38.9,36.6,37.1,36.9,35.9,37z M36.1,33c-0.6,0-1,0-1.1,0    c0-0.1,0-0.6,0-1.1c1-0.8,2-1.4,2.9-1.7C37.5,31,36.9,32,36.1,33z M29,31.9c0,0.6,0,1,0,1.1c-0.1,0-0.6,0-1.1,0    c-0.8-1-1.4-2-1.7-2.9C27,30.5,28,31.1,29,31.9z M21.3,35.3c-0.4,0.4-0.4,1,0,1.4c0.4,0.4,1,0.8,1.6,1.1c-1.8-0.3-3.8-0.8-5.3-1.8    c1.5-1,3.5-1.5,5.3-1.8C22.3,34.5,21.7,34.8,21.3,35.3z M27.9,39c0.6,0,1,0,1.1,0c0,0.1,0,0.6,0,1.1c-1,0.8-2,1.4-2.9,1.7    C26.5,41,27.1,40,27.9,39z M35,40.1c0-0.6,0-1,0-1.1c0.1,0,0.6,0,1.1,0c0.8,1,1.4,2,1.7,2.9C37,41.5,36,40.9,35,40.1z M42.7,36.7    c0.4-0.4,0.4-1,0-1.4c-0.4-0.4-1-0.8-1.6-1.1c1.8,0.3,3.8,0.8,5.3,1.8c-1.5,1-3.5,1.5-5.3,1.8C41.7,37.5,42.3,37.2,42.7,36.7z"/>

</g>

</g>

<g id="craftsman"/>

<g id="pottery"/>

<g id="sculpt"/>

<g id="yarn"/>

<g id="scissors"/>

<g id="sewing_machine"/>

<g id="knitting"/>

<g id="stationary"/>

<g id="stapler"/>

<g id="compass"/>

<g id="cutter"/>

<g id="pin_tool"/>

<g id="wood_chisel"/>

<g id="adhesive_tape"/>

<g id="sewing_clothes"/>

<g id="anvil"/>

<g id="glue_gun"/>

<g id="roller_brush"/>

</svg>