<?xml version="1.0" ?>


<svg fill="#000000" width="800px" height="800px" viewBox="0 0 64 64" version="1.1" xml:space="preserve" xmlns="http://www.w3.org/2000/svg" xmlns:xlink="http://www.w3.org/1999/xlink">

<g id="orgami"/>

<g id="embroidery"/>

<g id="craftsman"/>

<g id="pottery"/>

<g id="sculpt"/>

<g id="yarn"/>

<g id="scissors"/>

<g id="sewing_machine"/>

<g id="knitting"/>

<g id="stationary"/>

<g id="stapler"/>

<g id="compass"/>

<g id="cutter"/>

<g id="pin_tool"/>

<g id="wood_chisel"/>

<g id="adhesive_tape">

<g>

<path d="M58,24h-3v-3c0-1.7-1.3-3-3-3h-0.1C51.4,10.7,45.4,5,38,5c0,0,0,0,0,0c0,0,0,0,0,0s0,0,0,0c0,0,0,0,0,0    c-4,0-8.1,1.4-11.3,4L21,13.5c-2.8,2.3-6.4,3.5-10,3.5H8H4c-0.6,0-1,0.4-1,1v14v18c0,1.7,1.3,3,3,3h46c1.7,0,3-1.3,3-3h3    c1.7,0,3-1.3,3-3V27C61,25.3,59.7,24,58,24z M49.9,18h-6c-0.5-2.8-2.9-5-5.9-5s-5.4,2.2-5.9,5h-6C26.6,11.9,31.7,7,38,7    S49.4,11.9,49.9,18z M41.9,18h-7.7c0.4-1.7,2-3,3.9-3S41.4,16.3,41.9,18z M22.3,15l3.4-2.7C24.8,14,24.2,16,24.1,18h-0.9    c-1.1,0-2.1,0.6-2.6,1.6l-5.9,10.9c-0.2,0.3-0.5,0.5-0.9,0.5H9V19h2C15.1,19,19.1,17.6,22.3,15z M5,19h2v12H5V19z M53,50    c0,0.6-0.4,1-1,1H6c-0.6,0-1-0.4-1-1V33h3h5.8c1.1,0,2.1-0.6,2.6-1.6l5.9-10.9c0.2-0.3,0.5-0.5,0.9-0.5H52c0.6,0,1,0.4,1,1v4v24    V50z M59,47c0,0.6-0.4,1-1,1h-3V26h3c0.6,0,1,0.4,1,1V47z"/>

<path d="M49,28H27c-0.6,0-1,0.4-1,1v18c0,0.6,0.4,1,1,1h22c0.6,0,1-0.4,1-1V29C50,28.4,49.6,28,49,28z M48,46H28V30h20V46z"/>

</g>

</g>

<g id="sewing_clothes"/>

<g id="anvil"/>

<g id="glue_gun"/>

<g id="roller_brush"/>

</svg>