<?xml version="1.0" ?>


<svg fill="#000000" width="800px" height="800px" viewBox="0 0 64 64" version="1.1" xml:space="preserve" xmlns="http://www.w3.org/2000/svg" xmlns:xlink="http://www.w3.org/1999/xlink">

<g id="orgami"/>

<g id="embroidery"/>

<g id="craftsman"/>

<g id="pottery"/>

<g id="sculpt"/>

<g id="yarn"/>

<g id="scissors"/>

<g id="sewing_machine"/>

<g id="knitting"/>

<g id="stationary">

<g>

<path d="M50,48H26V4c0-0.6-0.4-1-1-1H14c-0.6,0-1,0.4-1,1v56c0,0.6,0.4,1,1,1h36c0.6,0,1-0.4,1-1V49C51,48.4,50.6,48,50,48z     M49,59h-2v-1c0-0.6-0.4-1-1-1s-1,0.4-1,1v1h-2v-1c0-0.6-0.4-1-1-1s-1,0.4-1,1v1h-2v-1c0-0.6-0.4-1-1-1s-1,0.4-1,1v1h-2v-1    c0-0.6-0.4-1-1-1s-1,0.4-1,1v1h-2v-1c0-0.6-0.4-1-1-1s-1,0.4-1,1v1h-2v-1c0-0.6-0.4-1-1-1s-1,0.4-1,1v1h-2v-1c0-0.6-0.4-1-1-1    s-1,0.4-1,1v1h-2v-1c0-0.6-0.4-1-1-1s-1,0.4-1,1v1h-2v-2h1c0.6,0,1-0.4,1-1s-0.4-1-1-1h-1v-2h1c0.6,0,1-0.4,1-1s-0.4-1-1-1h-1v-2    h1c0.6,0,1-0.4,1-1s-0.4-1-1-1h-1v-2h1c0.6,0,1-0.4,1-1s-0.4-1-1-1h-1v-2h1c0.6,0,1-0.4,1-1s-0.4-1-1-1h-1v-2h1c0.6,0,1-0.4,1-1    s-0.4-1-1-1h-1v-2h1c0.6,0,1-0.4,1-1s-0.4-1-1-1h-1v-2h1c0.6,0,1-0.4,1-1s-0.4-1-1-1h-1v-2h1c0.6,0,1-0.4,1-1s-0.4-1-1-1h-1v-2h1    c0.6,0,1-0.4,1-1s-0.4-1-1-1h-1v-2h1c0.6,0,1-0.4,1-1s-0.4-1-1-1h-1v-2h1c0.6,0,1-0.4,1-1s-0.4-1-1-1h-1V9h1c0.6,0,1-0.4,1-1    s-0.4-1-1-1h-1V5h9v44c0,0.6,0.4,1,1,1h24V59z"/>

<path d="M34,46h6c3.3,0,6-2.7,6-6V14c0,0,0-0.1,0-0.1c0-0.1,0-0.1,0-0.2c0-0.1-0.1-0.1-0.1-0.2c0,0,0-0.1-0.1-0.1l-8-10    c-0.4-0.5-1.2-0.5-1.6,0l-8,10c0,0,0,0.1-0.1,0.1c0,0.1-0.1,0.1-0.1,0.2c0,0.1,0,0.1,0,0.2c0,0,0,0.1,0,0.1v26    C28,43.3,30.7,46,34,46z M36,15v18h-2V15H36z M40,15v18h-2V15H40z M44,15v18h-2V15H44z M44,35v2H30v-2H44z M32,33h-2V15h2V33z     M40,44h-6c-2.2,0-4-1.8-4-4v-1h14v1C44,42.2,42.2,44,40,44z M37,5.6l5.9,7.4H31.1L37,5.6z"/>

</g>

</g>

<g id="stapler"/>

<g id="compass"/>

<g id="cutter"/>

<g id="pin_tool"/>

<g id="wood_chisel"/>

<g id="adhesive_tape"/>

<g id="sewing_clothes"/>

<g id="anvil"/>

<g id="glue_gun"/>

<g id="roller_brush"/>

</svg>