<?xml version="1.0" ?>


<svg fill="#000000" width="800px" height="800px" viewBox="0 0 64 64" version="1.1" xml:space="preserve" xmlns="http://www.w3.org/2000/svg" xmlns:xlink="http://www.w3.org/1999/xlink">

<g id="orgami"/>

<g id="embroidery"/>

<g id="craftsman">

<g>

<path d="M29,27c0-1.7-1.3-3-3-3s-3,1.3-3,3c0,0.6,0.4,1,1,1s1-0.4,1-1c0-0.6,0.4-1,1-1s1,0.4,1,1c0,0.6,0.4,1,1,1S29,27.6,29,27z"/>

<path d="M36,28c0.6,0,1-0.4,1-1c0-0.6,0.4-1,1-1s1,0.4,1,1c0,0.6,0.4,1,1,1s1-0.4,1-1c0-1.7-1.3-3-3-3s-3,1.3-3,3    C35,27.6,35.4,28,36,28z"/>

<path d="M35.8,35.6c0.3-0.4,0.2-1.1-0.2-1.4c-0.4-0.3-1.1-0.2-1.4,0.2C34,34.7,33.1,35,32,35s-2-0.3-2.2-0.6    c-0.3-0.4-1-0.5-1.4-0.2c-0.4,0.3-0.5,1-0.2,1.4c1,1.3,3.2,1.4,3.8,1.4S34.8,36.9,35.8,35.6z"/>

<path d="M59.8,53.1c-0.5-3-3-5.3-6-5.7l-10.5-1.2c0-0.2,0-0.4-0.1-0.6l-2-3.5c-0.2-0.4-0.7-0.6-1.1-0.4V40c0-0.1,0-0.3-0.1-0.4    c3.2-2.2,5.4-5.6,6-9.6h0.6c2.5,0,4.5-2,4.5-4.5c0-1.6-0.8-2.9-2-3.7V16c0-7.2-5.8-13-13-13h-8c-7.2,0-13,5.8-13,13v5.8    c-1.2,0.8-2,2.2-2,3.7c0,2.5,2,4.5,4.5,4.5h0.6c0.5,4,2.8,7.4,6,9.6C24,39.7,24,39.9,24,40v1.8c-0.4-0.1-0.9,0-1.1,0.4l-2,3.5    c-0.1,0.2-0.1,0.4-0.1,0.6l-10.5,1.2c-3,0.4-5.4,2.7-6,5.7L3,59.8c-0.1,0.3,0,0.6,0.2,0.8S3.7,61,4,61h56c0.3,0,0.6-0.1,0.8-0.4    c0.2-0.2,0.3-0.5,0.2-0.8L59.8,53.1z M22.9,48l6.6,3.8c0.2,0.1,0.3,0.1,0.5,0.1c0.3,0,0.7-0.2,0.9-0.5l1.1-2l1.1,2    c0.2,0.3,0.5,0.5,0.9,0.5c0.2,0,0.3,0,0.5-0.1l6.6-3.8l2.9,0.3c-0.2,3.1-2.8,5.6-6,5.6H26c-3.2,0-5.8-2.5-6-5.6L22.9,48z M26,56    h12c4.2,0,7.7-3.3,8-7.4l5,0.6V59H13v-9.8l5-0.6C18.3,52.7,21.8,56,26,56z M40.9,45.8l-6.5,3.8l-1-1.7l6.5-3.8L40.9,45.8z     M46.5,28H46v-5h0.5c1.4,0,2.5,1.1,2.5,2.5S47.9,28,46.5,28z M17,16c0-6.1,4.9-11,11-11h8c6.1,0,11,4.9,11,11v5.1    c-0.2,0-0.3-0.1-0.5-0.1H46c0,0,0,0,0-0.1c0-0.3-0.1-0.6-0.3-0.8l-2.2-1.9c-1.9-1.7-5.1-1.7-7,0c-0.6,0.5-1.4,0.8-2.2,0.8h-4.7    c-0.8,0-1.6-0.3-2.2-0.8c-1.9-1.7-5.1-1.7-7,0l-2.2,1.9c-0.2,0.2-0.3,0.5-0.3,0.8c0,0,0,0,0,0.1h-0.5c-0.2,0-0.3,0-0.5,0.1V16z     M15,25.5c0-1.4,1.1-2.5,2.5-2.5H18v5h-0.5C16.1,28,15,26.9,15,25.5z M20,28.2V22v-0.7l1.8-1.7c1.2-1.1,3.2-1.1,4.3,0    c0.9,0.8,2.2,1.3,3.5,1.3h4.7c1.3,0,2.6-0.5,3.5-1.3c1.2-1.1,3.2-1.1,4.3,0l1.8,1.7V22v6.2C44,34.7,38.6,40,32,40    C25.4,40,20,34.7,20,28.2z M32,42c2.1,0,4.2-0.5,6-1.3v2.2l-6,3.5l-6-3.5v-2.2C27.8,41.5,29.9,42,32,42z M24.1,44.1l6.5,3.8    l-1,1.7l-6.5-3.8L24.1,44.1z M6.2,53.5c0.4-2.1,2.1-3.8,4.3-4l0.5-0.1V59H5.2L6.2,53.5z M53,59v-9.6l0.5,0.1    c2.2,0.3,3.9,1.9,4.3,4l1,5.5H53z"/>

</g>

</g>

<g id="pottery"/>

<g id="sculpt"/>

<g id="yarn"/>

<g id="scissors"/>

<g id="sewing_machine"/>

<g id="knitting"/>

<g id="stationary"/>

<g id="stapler"/>

<g id="compass"/>

<g id="cutter"/>

<g id="pin_tool"/>

<g id="wood_chisel"/>

<g id="adhesive_tape"/>

<g id="sewing_clothes"/>

<g id="anvil"/>

<g id="glue_gun"/>

<g id="roller_brush"/>

</svg>