<?xml version="1.0" encoding="utf-8"?>

<svg width="800px" height="800px" viewBox="0 0 1024 1024" class="icon"  version="1.1" xmlns="http://www.w3.org/2000/svg"><path d="M518.981 669.717l305.644-567.906c0.275-0.524 0.243-1.106 0.518-1.631 0.793-1.78 1.215-3.542 1.637-5.407 0.361-1.635 0.778-3.186 0.824-4.856 0.048-1.719-0.227-3.344-0.494-5.049-0.272-1.755-0.492-3.454-1.134-5.116-0.537-1.523-1.402-2.849-2.21-4.25-0.963-1.667-1.928-3.282-3.26-4.725-0.418-0.408-0.56-0.971-0.97-1.378-0.878-0.85-2.035-1.196-3.02-1.913-1.042-0.745-1.752-1.795-2.9-2.413-0.578-0.305-1.16-0.272-1.738-0.526-1.619-0.756-3.306-1.123-5.041-1.541-1.737-0.395-3.423-0.838-5.169-0.887-1.643-0.072-3.187 0.227-4.838 0.473-1.809 0.271-3.563 0.509-5.278 1.129-1.496 0.539-2.789 1.377-4.19 2.185-1.672 0.99-3.288 1.949-4.758 3.314-0.436 0.384-0.966 0.532-1.407 0.97L344.731 525.109c-63.061 28.507-161.979 113.698-117.73 251.146 28.636 88.839 25.212 107.189 23.859 110.222-1.093 1.054-5.546 3.107-8.821 4.607-6.444 3-13.367 6.302-20.338 11.117l-19.236 15.18 5.569 18.914c1.837 6.329 8.74 21.117 32.674 21.782 58.935 1.639 240.474-66.472 278.273-288.36z" fill="#152B3C" /><path d="M486.619 621.174L784.321 68.023c0.999-0.723 1.971-1.484 3.04-2.117 1.399-0.81 2.694-1.647 4.19-2.183 1.716-0.621 3.469-0.86 5.278-1.131 1.652-0.246 3.196-0.545 4.837-0.473 1.747 0.049 3.433 0.492 5.169 0.888 1.737 0.417 3.424 0.783 5.043 1.54 0.58 0.254 1.16 0.223 1.738 0.526 1.148 0.617 1.857 1.668 2.901 2.415 0.983 0.714 2.14 1.062 3.018 1.912 0.412 0.407 0.552 0.97 0.97 1.378 1.332 1.443 2.297 3.058 3.26 4.725 0.808 1.399 1.673 2.727 2.21 4.251 0.644 1.661 0.862 3.36 1.134 5.116 0.267 1.704 0.542 3.33 0.494 5.048-0.046 1.669-0.463 3.219-0.824 4.856-0.421 1.864-0.844 3.629-1.637 5.407-0.275 0.524-0.243 1.106-0.518 1.631L518.981 669.717c-37.799 221.887-219.338 289.997-278.272 288.362-23.934-0.668-30.837-15.454-32.674-21.783l-5.569-18.914 10.176-8.031c62.721-1.389 236.995-71.082 273.977-288.177z" fill="#030504" /><path d="M525.441 657.715l-6.459 12.002c-37.801 221.889-219.34 289.997-278.274 288.36-23.932-0.666-30.836-15.453-32.673-21.783l-5.568-18.912 19.234-15.181c6.969-4.816 13.894-8.117 20.338-11.117 3.275-1.501 7.728-3.553 8.819-4.607 1.356-3.033 4.777-21.383-23.856-110.222-41.235-128.083 41.835-210.733 104.375-244.475l194.064 125.935z" fill="#FF3B30" /><path d="M431.357 686.909c4.724-20.193-1.729-41.494-16.681-55.864l-95.751-92.024a238.176 238.176 0 0 1 12.453-7.241l194.064 125.935-6.459 12.003c-37.801 221.889-219.34 289.997-278.274 288.36-19.51-0.543-27.618-10.423-30.975-17.503 67.098-9.23 179.969-75.61 221.623-253.666z" fill="#030504" /><path d="M271.899 698.309m-33.711 0a33.711 33.711 0 1 0 67.422 0 33.711 33.711 0 1 0-67.422 0Z" fill="#FFFFFF" /></svg>