<?xml version="1.0" encoding="utf-8"?>

<svg width="800px" height="800px" viewBox="0 0 1024 1024" class="icon"  version="1.1" xmlns="http://www.w3.org/2000/svg"><path d="M164.424 120.203h695.151V960H164.424z" fill="#152B3C" /><path d="M265.393 236.355h549.214v663.494H265.393z" fill="" /><path d="M237.393 208.355h549.214v663.494H237.393z" fill="#EEEEEE" /><path d="M376.287 181.403h327.427v115.4H376.287z" fill="" /><path d="M348.287 153.403h327.427v115.4H348.287z" fill="#FCB814" /><path d="M512 151.676m-87.676 0a87.676 87.676 0 1 0 175.352 0 87.676 87.676 0 1 0-175.352 0Z" fill="#FCB814" /><path d="M512 151.676m-34.784 0a34.784 34.784 0 1 0 69.568 0 34.784 34.784 0 1 0-69.568 0Z" fill="#152B3C" /><path d="M528.463 121.213c2.667 4.922 4.32 10.473 4.32 16.463 0 19.213-15.573 34.784-34.784 34.784-5.99 0-11.541-1.653-16.463-4.32 5.885 10.86 17.243 18.32 30.463 18.32 19.212 0 34.784-15.571 34.784-34.784 0.001-13.22-7.46-24.579-18.32-30.463z" fill="" /></svg>