<?xml version="1.0" encoding="utf-8"?>

<svg width="800px" height="800px" viewBox="0 0 1024 1024" class="icon"  version="1.1" xmlns="http://www.w3.org/2000/svg"><path d="M839.851 254.995l-527.007-10.478L184.798 289h521.064z" fill="#152B3C" /><path d="M707 960H184V289h523zM839 883.949l-132 67.733V289.719l132-34.364z" fill="#FCB814" /><path d="M839 883.949l-132 67.733V289.719l132-34.364z" fill="" /><path d="M551.221 427.009a41.585 41.82 0 1 0 83.17 0 41.585 41.82 0 1 0-83.17 0Z" fill="#0DB14B" /><path d="M267.732 427.009a41.585 41.82 0 1 0 83.17 0 41.585 41.82 0 1 0-83.17 0Z" fill="#0DB14B" /><path d="M614.15 390.821c3.834 6.33 6.162 13.686 6.162 21.639 0 23.098-18.618 41.821-41.584 41.821-7.84 0-15.09-2.311-21.347-6.102 7.298 12.053 20.366 20.18 35.425 20.18 22.965 0 41.584-18.723 41.584-41.819 0-15.216-8.161-28.402-20.24-35.719zM330.662 390.821c3.832 6.33 6.162 13.686 6.162 21.639 0 23.098-18.617 41.821-41.584 41.821-7.838 0-15.087-2.312-21.345-6.102 7.298 12.053 20.364 20.18 35.423 20.18 22.967 0 41.584-18.723 41.584-41.819-0.001-15.216-8.162-28.402-20.24-35.719z" fill="" /><path d="M586.5 438.595c-8.221 0-16.5-6.666-16.5-14.887v-204.53c0-70.346-51.217-125.453-118-125.453s-118 55.108-118 125.453V408.82c0 8.221-6.279 14.887-14.5 14.887S305 417.041 305 408.82V219.178c0-87.044 65.52-155.229 149-155.229s149 68.185 149 155.229v204.529c0 8.222-8.279 14.888-16.5 14.888z" fill="#152B3C" /><path d="M661 259.944c-8.221 0-17-6.666-17-14.888v-25.878c0-69.175-56.222-125.453-126-125.453s-126 56.278-126 125.453v25.878c0 8.221-6.279 14.888-14.5 14.888s-14.5-6.666-14.5-14.888v-25.878c0-85.596 71.307-155.229 157.5-155.229S678 133.582 678 219.178v25.878c0 8.222-8.779 14.888-17 14.888z" fill="#152B3C" /></svg>