<?xml version="1.0" ?>


<svg fill="#000000" width="800px" height="800px" viewBox="0 0 32 32" id="Outlined" xmlns="http://www.w3.org/2000/svg">

<title/>

<g id="Fill">

<path d="M10,24a3,3,0,1,0,3,3A3,3,0,0,0,10,24Zm0,4a1,1,0,1,1,1-1A1,1,0,0,1,10,28Z"/>

<path d="M22,24a3,3,0,1,0,3,3A3,3,0,0,0,22,24Zm0,4a1,1,0,1,1,1-1A1,1,0,0,1,22,28Z"/>

<path d="M6.78,6,6.35,4.27A3,3,0,0,0,3.44,2H2V4H3.44a1,1,0,0,1,1,.76L8,19.24H8l.37,1.49A3,3,0,0,0,11.31,23H25V21H11.31a1,1,0,0,1-1-.76l-.12-.5L25,16.25a3,3,0,0,0,2.23-2.19l2-8.06Zm18.55,7.58a1,1,0,0,1-.75.73L9.73,17.8,7.28,8H26.72Z"/>

</g>

</svg>