<?xml version="1.0" ?>


<svg fill="#000000" width="800px" height="800px" viewBox="0 0 32 32" id="Outlined" xmlns="http://www.w3.org/2000/svg">

<title/>

<g id="Fill">

<path d="M21.17,1.41l-2.29,2.3A3,3,0,0,0,18,5.83a3,3,0,0,0,.77,2L13.5,13.09l-1.38-1.38a3,3,0,0,0-4.24,0L4.59,15l5.5,5.5-7.8,7.79,1.42,1.42,7.79-7.8,5.5,5.5,3.29-3.29a3,3,0,0,0,0-4.24L18.91,18.5l5.27-5.27a3,3,0,0,0,2,.77,3,3,0,0,0,2.12-.88l2.3-2.29ZM18.88,21.29a1,1,0,0,1,0,1.42L17,24.59,7.41,15l1.88-1.88a1,1,0,0,1,1.42,0l1.38,1.38,5.41,5.41Zm-4-6.79,5.26-5.26,2.59,2.59L17.5,17.09Zm12-2.79a1,1,0,0,1-1.42,0L20.29,6.54h0a1,1,0,0,1-.29-.7,1,1,0,0,1,.29-.71l.88-.88,6.59,6.59Z"/>

</g>

</svg>