<?xml version="1.0" ?>
<svg fill="#000000" width="800px" height="800px" viewBox="0 0 64 64" data-name="Layer 1" id="Layer_1" xmlns="http://www.w3.org/2000/svg"><path d="M59,31.1843V30a3.0033,3.0033,0,0,0-3-3H49.9535c1.135-1.271,1.0951-3.3629,1.0464-5a1,1,0,0,0-1-1H48.0391A4.9893,4.9893,0,0,0,45,22.0465V16a1,1,0,0,0-1-1H39V4a1,1,0,0,0-1-1H26a1,1,0,0,0-1,1V15H20a1,1,0,0,0-1,1V27H8a3.0033,3.0033,0,0,0-3,3v1.1843A2.995,2.995,0,0,0,3,34v8a2.9769,2.9769,0,0,0,.78,2A2.9769,2.9769,0,0,0,3,46v8a2.995,2.995,0,0,0,2,2.8157V58a3.0033,3.0033,0,0,0,3,3H56a3.0033,3.0033,0,0,0,3-3V56.8157A2.995,2.995,0,0,0,61,54V46a2.9769,2.9769,0,0,0-.78-2A2.9769,2.9769,0,0,0,61,42V34A2.995,2.995,0,0,0,59,31.1843ZM6,55a1.0009,1.0009,0,0,1-1-1V46a1.0009,1.0009,0,0,1,1-1h9V55ZM17,33H58a1.0009,1.0009,0,0,1,1,1v8a1.0009,1.0009,0,0,1-1,1H17ZM48.0391,23H49v.9609A3.0425,3.0425,0,0,1,45.9609,27H45v-.9609A3.0425,3.0425,0,0,1,48.0391,23Zm-6,4A3.0425,3.0425,0,0,1,39,23.9609V23h.9609A3.0425,3.0425,0,0,1,43,26.0391V27ZM43,22.0465c-1.271-1.135-3.3629-1.0951-5-1.0464a1,1,0,0,0-1,1v1.9609A4.9893,4.9893,0,0,0,38.0465,27H33V17H43ZM27,5H37V15H27ZM21,17H31V27H21ZM7,30a1.0009,1.0009,0,0,1,1-1H56a1.0009,1.0009,0,0,1,1,1v1H7ZM5,34a1.0009,1.0009,0,0,1,1-1h9V43H6a1.0009,1.0009,0,0,1-1-1ZM57,58a1.0009,1.0009,0,0,1-1,1H8a1.0009,1.0009,0,0,1-1-1V57H57Zm2-4a1.0009,1.0009,0,0,1-1,1H17V45H58a1.0009,1.0009,0,0,1,1,1Z"/><path d="M12,37a1,1,0,0,0,0-2A1,1,0,0,0,12,37Z"/><path d="M12,41a1,1,0,0,0,0-2A1,1,0,0,0,12,41Z"/><path d="M12,49a1,1,0,0,0,0-2A1,1,0,0,0,12,49Z"/><path d="M12,51a1,1,0,0,0,0,2A1,1,0,0,0,12,51Z"/></svg>