<?xml version="1.0" ?>
<svg fill="#000000" width="800px" height="800px" viewBox="0 0 64 64" data-name="Layer 1" id="Layer_1" xmlns="http://www.w3.org/2000/svg"><path d="M60,35H52.3929c1.863-3.092-.9426-7.1143-4.4039-7.8943-.2034-5.7145-7.4907-8.6187-10.989-3.162a5.7578,5.7578,0,0,0-10,0c-3.5028-5.4606-10.7872-2.5468-10.989,3.162-3.4606.78-6.2672,4.8014-4.4039,7.8943H4a1,1,0,0,0-1,1c.0006,1.9945,0,6.0062,0,8v4a9.01,9.01,0,0,0,8,8.941V58a3.0033,3.0033,0,0,0,3,3H50a3.0033,3.0033,0,0,0,3-3V56.941A9.01,9.01,0,0,0,61,48V36A1,1,0,0,0,60,35Zm-9-2c0,1.6533-2.1753,2-4,2s-4-.3467-4-2a4.555,4.555,0,0,1,3.1133-3.86C48.4783,28.37,51.0158,30.9572,51,33ZM23,33c.0463-1.9867,2.2066-4.236,4.3326-3.9575A4.4385,4.4385,0,0,1,31,33c0,1.6533-2.1753,2-4,2S23,34.6533,23,33Zm10,0c.0463-1.9867,2.2066-4.236,4.3326-3.9575A4.4385,4.4385,0,0,1,41,33c0,1.6533-2.1753,2-4,2S33,34.6533,33,33Zm9-10a4.3689,4.3689,0,0,1,3.9961,4.1074,6.3028,6.3028,0,0,0-3.24,1.8633,10.2923,10.2923,0,0,1-1.5126,0,6.3032,6.3032,0,0,0-3.24-1.8633A4.3688,4.3688,0,0,1,42,23ZM32,23a4.3689,4.3689,0,0,1,3.9961,4.1074,6.3028,6.3028,0,0,0-3.24,1.8633,10.2923,10.2923,0,0,1-1.5126,0,6.3032,6.3032,0,0,0-3.24-1.8633A4.3688,4.3688,0,0,1,32,23ZM22,23a4.3689,4.3689,0,0,1,3.9961,4.1074,6.3028,6.3028,0,0,0-3.24,1.8633,10.2923,10.2923,0,0,1-1.5126,0,6.3032,6.3032,0,0,0-3.24-1.8633A4.3688,4.3688,0,0,1,22,23ZM13,33c-.0154-2.0428,2.5214-4.63,4.8867-3.86A4.555,4.555,0,0,1,21,33c0,1.6533-2.1753,2-4,2S13,34.6533,13,33ZM51,58a1.0009,1.0009,0,0,1-1,1H14a1.0009,1.0009,0,0,1-1-1V57H51Zm1-3H12a7.0081,7.0081,0,0,1-7-7c.012-1.7095-.0086-5.31,0-7H7v3a1,1,0,0,0,1,1h4a1,1,0,0,0,1-1V40a1,1,0,0,0-2,0v3H9c-.0208-4.5935.5788-3.9751-4-4V37H59v6H57V40a1,1,0,0,0-1-1H52a1,1,0,0,0-1,1v4a1,1,0,0,0,2,0V41h2c.0208,4.5935-.5788,3.9751,4,4v3A7.0081,7.0081,0,0,1,52,55Z"/><path d="M36,39a1,1,0,0,0-1,1v3H33V40a1,1,0,0,0-1-1H28a1,1,0,0,0-1,1v4a1,1,0,0,0,2,0V41h2v3a1,1,0,0,0,1,1h4a1,1,0,0,0,1-1V40A1,1,0,0,0,36,39Z"/><path d="M48,39a1,1,0,0,0-1,1v3H45V40a1,1,0,0,0-1-1H40a1,1,0,0,0-1,1v4a1,1,0,0,0,2,0V41h2v3a1,1,0,0,0,1,1h4a1,1,0,0,0,1-1V40A1,1,0,0,0,48,39Z"/><path d="M24,39a1,1,0,0,0-1,1v3H21V40a1,1,0,0,0-1-1H16a1,1,0,0,0-1,1v4a1,1,0,0,0,2,0V41h2v3a1,1,0,0,0,1,1h4a1,1,0,0,0,1-1V40A1,1,0,0,0,24,39Z"/><path d="M58,3H45.04A18.76,18.76,0,0,0,33.6973,7H18a1,1,0,0,0-1,1A11.0125,11.0125,0,0,0,28,19c6.896.312,9.1915-3.2864,13.0019-8.1515A4.901,4.901,0,0,1,44.8472,9H58A3,3,0,0,0,58,3Zm0,4H44.8472A6.8925,6.8925,0,0,0,39.44,9.5986l-3.2187,4.0235A9.385,9.385,0,0,1,28,17a9.0128,9.0128,0,0,1-8.9448-8H34a1.0021,1.0021,0,0,0,.5547-.168A17.2385,17.2385,0,0,1,45.04,5L58,5A1,1,0,0,1,58,7Z"/></svg>