<?xml version="1.0" ?>
<svg fill="#000000" width="800px" height="800px" viewBox="0 0 64 64" data-name="Layer 1" id="Layer_1" xmlns="http://www.w3.org/2000/svg"><path d="M55.6816,45a5.1719,5.1719,0,0,0,1.6476-.2787c3.3246-1.0327,4.7281-5.5226,2.7615-8.38l-1.4032-2.1875-.0007-.0007L45.4092,13.459a5.1825,5.1825,0,0,0-8.8184,0L29.4335,24.614l-2.0243-3.155a5.2146,5.2146,0,0,0-8.8184,0L5.3132,42.1526l-.0007.0007L3.9092,44.3408c-1.9668,2.8573-.5626,7.3487,2.7616,8.38A5.1728,5.1728,0,0,0,8.3184,53C11.8861,53,19.4943,53,23,53c3.4852,0,11.1424,0,14.6817,0a5.1708,5.1708,0,0,0,1.6475-.2787A5.6724,5.6724,0,0,0,42.4529,45Zm-7.5551-2a4,4,0,0,1,7.7275-.0119c-.0577.0031-.1141.0119-.1724.0119Zm10.4082-1.7539a3.5022,3.5022,0,0,1-.8165,1.003C55.9086,36.2449,47.1338,36.8264,46.09,43H42.05c.5623-7.0926,8.9742-11.4081,15.0771-7.5745l1.28,1.9954A3.75,3.75,0,0,1,58.5347,41.2461ZM11.6294,36.0127a15.8912,15.8912,0,0,1,9.8267,3.0918,19.6468,19.6468,0,0,0-2.539,3.1037A11.958,11.958,0,0,0,8.7852,40.4456Zm6.4485,14.5624A16.0482,16.0482,0,0,1,34.3706,36.0127c.0727.1132,2.69,4.1931,2.8441,4.4327A12.0409,12.0409,0,0,0,22.0507,51h-3.996C18.0635,50.8585,18.0653,50.7159,18.0779,50.5751ZM31.6621,28.0869a16.0142,16.0142,0,0,1,7.7938,3.0175,17.97,17.97,0,0,0-3.1844,4.1668C35.1255,33.4852,32.81,29.8768,31.6621,28.0869ZM52,28c.1245,0,.248.0059.3706.0127l2.8442,4.4327a12.0535,12.0535,0,0,0-14.9482,9.0523L37.5414,37.25a16.3757,16.3757,0,0,1,4.13-5.4681A15.977,15.977,0,0,1,52,28ZM38.2744,14.5391a3.1975,3.1975,0,0,1,5.4512,0l7.375,11.4942A17.9647,17.9647,0,0,0,40.9788,29.77a17.9782,17.9782,0,0,0-10.0839-3.73Zm-18,8a3.1975,3.1975,0,0,1,5.4512,0l7.3827,11.5061a17.8824,17.8824,0,0,0-10.11,3.74A17.9775,17.9775,0,0,0,12.8951,34.04ZM5.4653,49.2461a3.75,3.75,0,0,1,.1275-3.8252l1.28-1.9954a10.1369,10.1369,0,0,1,11.0376.5188,18.7764,18.7764,0,0,0-1.4485,4.0585,6.0049,6.0049,0,0,0-10.18,2.2463A3.5022,3.5022,0,0,1,5.4653,49.2461ZM8.3184,51c-.0583,0-.1147-.0088-.1724-.0119A4,4,0,0,1,15.8735,51Zm21.8081,0a4,4,0,0,1,7.7275-.0119c-.0577.0031-.1141.0119-.1724.0119Zm10.4082-1.7539a3.5022,3.5022,0,0,1-.8165,1.003C37.9086,44.2449,29.1338,44.8264,28.09,51H24.05c.5623-7.0925,8.9738-11.4079,15.0768-7.5746l.7162,1.1159A4.1749,4.1749,0,0,1,40.5347,49.2461Z"/></svg>