<?xml version="1.0" ?>
<svg fill="#000000" width="800px" height="800px" viewBox="0 0 64 64" data-name="Layer 1" id="Layer_1" xmlns="http://www.w3.org/2000/svg"><path d="M60,15H32.7451c.6142-.4626,2.392-3.7208.2549-4l-4,0c-3.5631,0-8.4371,0-12,0a1,1,0,0,0-1,1c.0051,1.3855-1.1627,1.7736-1.6583,3H10a3.01,3.01,0,0,0-2.22,5A3.01,3.01,0,0,0,10,25l4.11,0a4.3784,4.3784,0,0,0,1.13,3.9755,2.2465,2.2465,0,0,1-.0007,3.3678A4.1725,4.1725,0,0,0,14,35.3291c.0183,2.0048,1.0054,2.518,1.7534,3.6709H4a1,1,0,0,0-1,1,9.0108,9.0108,0,0,0,8,8.941V50a3.0033,3.0033,0,0,0,3,3H34a3.0033,3.0033,0,0,0,3-3V48.941A9.0108,9.0108,0,0,0,45,40a1.0029,1.0029,0,0,0-1.0465-1A4.9893,4.9893,0,0,0,45,35.9609V34a1,1,0,0,0-1-1H42.0391A5.0211,5.0211,0,0,0,38,35.0563,5.2506,5.2506,0,0,0,33.2708,33a4.2373,4.2373,0,0,0-.5117-5.3261A2.25,2.25,0,0,1,32.2421,25H60a1,1,0,0,0,1-1V16A1,1,0,0,0,60,15Zm-1,4H41V17H59Zm-26.2412-.6553A2.3857,2.3857,0,0,1,32.0349,17H39v2H33.2788C33.108,18.7572,32.9279,18.5417,32.7588,18.3447Zm-1.5181-4.6635a4.2494,4.2494,0,0,0-.0028,5.97,3.9,3.9,0,0,1,.5726.7886l0,0a2.2423,2.2423,0,0,1-.57,2.5684,4.2419,4.2419,0,0,0,0,5.9673,2.2464,2.2464,0,0,1-.0007,3.3677A4.1725,4.1725,0,0,0,30,35.3291c.0194,2.0051,1.004,2.5224,1.76,3.6709H29.89c-.2253-1.5118-1.8737-2.1106-1.89-3.6708a2.2653,2.2653,0,0,1,.76-1.6852,4.212,4.212,0,0,0,0-5.97,2.2428,2.2428,0,0,1,0-3.3637,4.2044,4.2044,0,0,0,0-5.9654A2.2588,2.2588,0,0,1,28,16.6641c.0156-1.5577,1.6645-2.1564,1.89-3.6641h1.8692A4.5228,4.5228,0,0,1,31.2407,13.6812ZM21.89,39c-.2253-1.5118-1.8737-2.1106-1.89-3.6708a2.2653,2.2653,0,0,1,.76-1.6852,4.212,4.212,0,0,0,0-5.97,2.2428,2.2428,0,0,1,0-3.3637,4.2044,4.2044,0,0,0,0-5.9654A2.2588,2.2588,0,0,1,20,16.6641c.0156-1.5577,1.6645-2.1564,1.89-3.6641h1.8625a4.4413,4.4413,0,0,1-.5114.6812,4.2365,4.2365,0,0,0,.0006,5.9653,2.2408,2.2408,0,0,1-.0006,3.3618,4.2079,4.2079,0,0,0,0,5.9673,2.2462,2.2462,0,0,1,0,3.3677,4.2442,4.2442,0,0,0,0,5.9716,4.489,4.489,0,0,1,.513.6851Zm4,0c-.2253-1.5118-1.8737-2.1106-1.89-3.6708a2.2653,2.2653,0,0,1,.76-1.6852,4.212,4.212,0,0,0,0-5.97,2.2428,2.2428,0,0,1,0-3.3637,4.2044,4.2044,0,0,0,0-5.9654A2.2588,2.2588,0,0,1,24,16.6641c.0156-1.5577,1.6645-2.1564,1.89-3.6641h1.8625a4.4413,4.4413,0,0,1-.5114.6812,4.2365,4.2365,0,0,0,.0006,5.9653,2.2408,2.2408,0,0,1-.0006,3.3618,4.2079,4.2079,0,0,0,0,5.9673,2.2462,2.2462,0,0,1,0,3.3677,4.2442,4.2442,0,0,0,0,5.9716,4.489,4.489,0,0,1,.513.6851ZM10,17h4.0112a3.9916,3.9916,0,0,0,.7085,2H10A1,1,0,0,1,10,17ZM9,22a1.0013,1.0013,0,0,1,1-1h5.9661a2.2033,2.2033,0,0,1-.7185,2H10A1.0013,1.0013,0,0,1,9,22Zm7.76,15.0142a2.2583,2.2583,0,0,1,0-3.37,4.2121,4.2121,0,0,0-.0006-5.97,2.2221,2.2221,0,0,1-.2641-3.0457,4.3245,4.3245,0,0,0,.2635-6.2834,2.2926,2.2926,0,0,1-.7059-2.1894c.3678-1.2251,1.536-1.66,1.8368-3.1553h1.8625a4.4413,4.4413,0,0,1-.5114.6812,4.2365,4.2365,0,0,0,.0006,5.9653,2.2408,2.2408,0,0,1-.0006,3.3618,4.2079,4.2079,0,0,0,0,5.9673,2.2462,2.2462,0,0,1,0,3.3677,4.2442,4.2442,0,0,0,0,5.9716,4.489,4.489,0,0,1,.513.6851H17.89A4.52,4.52,0,0,0,16.76,37.0142ZM35,50a1.0013,1.0013,0,0,1-1,1H14a1.0013,1.0013,0,0,1-1-1V49H35Zm1-3H12a7.0109,7.0109,0,0,1-6.9287-6H42.9287A7.0109,7.0109,0,0,1,36,47Zm6.0391-12H43v.9609A3.0425,3.0425,0,0,1,39.9609,39H39v-.9609A3.0425,3.0425,0,0,1,42.0391,35ZM37,38.0391V39h-.9609A3.0425,3.0425,0,0,1,33,35.9609V35h.9609A3.0425,3.0425,0,0,1,37,38.0391ZM33.6828,22.9355A4.1911,4.1911,0,0,0,33.9888,21H39v2H33.6616C33.67,22.9808,33.6744,22.9551,33.6828,22.9355ZM59,23H41V21H59Z"/></svg>