<?xml version="1.0" ?>
<svg fill="#000000" width="800px" height="800px" viewBox="0 0 64 64" data-name="Layer 1" id="Layer_1" xmlns="http://www.w3.org/2000/svg"><path d="M59,31.1843V30a3.0033,3.0033,0,0,0-3-3H48.8091c10.646-7.7543-.8764-30.6765-11.8314-22.149a7.6719,7.6719,0,0,0-9.9554,0C16.0636-3.6775,4.5469,19.2507,15.1909,27H8a3.0033,3.0033,0,0,0-3,3v1.1843A2.995,2.995,0,0,0,3,34v8a2.9769,2.9769,0,0,0,.78,2A2.9769,2.9769,0,0,0,3,46v8a2.995,2.995,0,0,0,2,2.8157V58a3.0033,3.0033,0,0,0,3,3H56a3.0033,3.0033,0,0,0,3-3V56.8157A2.995,2.995,0,0,0,61,54V46a2.9769,2.9769,0,0,0-.78-2A2.9769,2.9769,0,0,0,61,42V34A2.995,2.995,0,0,0,59,31.1843ZM6,55a1.0013,1.0013,0,0,1-1-1V46a1.0013,1.0013,0,0,1,1-1h9V55ZM17,33H58a1.0013,1.0013,0,0,1,1,1v8a1.0013,1.0013,0,0,1-1,1H17ZM42,5c4.9854,0,9,7.1118,9,13-.0837,7.84-6.3285,9.8654-11.7328,8.668a9.3363,9.3363,0,0,0,1.6643-1.7635,6.99,6.99,0,1,0,.6815-13.8857,15.6534,15.6534,0,0,0-3.1063-4.8112A6.116,6.116,0,0,1,42,5Zm.3572,17.1162a15.9578,15.9578,0,0,0-.0515-9.1019c6.3678.5618,6.1256,9.7668-.2759,9.9845C42.1409,22.7061,42.2593,22.4187,42.3572,22.1162ZM36.3077,6.84C42.8182,12.8572,43.4575,27.0237,32,27c-11.4588.0222-10.8172-14.1426-4.3076-20.16A6.0226,6.0226,0,0,1,36.3077,6.84Zm-15.254,9.8808a13.3359,13.3359,0,0,0,.9165,6.2777c-6.4062-.22-6.6391-9.425-.2759-9.9845A18.1826,18.1826,0,0,0,21.0537,16.7211ZM13,18c.0168-7.0988,5.8875-16.3054,12.4933-11.7924a15.6534,15.6534,0,0,0-3.1063,4.8112,6.99,6.99,0,1,0,.6815,13.8857,9.3363,9.3363,0,0,0,1.6643,1.7635C19.3289,27.8655,13.0835,25.8405,13,18ZM7,30a1.0013,1.0013,0,0,1,1-1H56a1.0013,1.0013,0,0,1,1,1v1H7ZM5,34a1.0013,1.0013,0,0,1,1-1h9V43H6a1.0013,1.0013,0,0,1-1-1ZM57,58a1.0013,1.0013,0,0,1-1,1H8a1.0013,1.0013,0,0,1-1-1V57H57Zm2-4a1.0013,1.0013,0,0,1-1,1H17V45H58a1.0013,1.0013,0,0,1,1,1Z"/><path d="M12,37a1,1,0,0,0,0-2A1,1,0,0,0,12,37Z"/><path d="M12,41a1,1,0,0,0,0-2A1,1,0,0,0,12,41Z"/><path d="M12,49a1,1,0,0,0,0-2A1,1,0,0,0,12,49Z"/><path d="M12,51a1,1,0,0,0,0,2A1,1,0,0,0,12,51Z"/><path d="M25,18a7.0078,7.0078,0,0,0,7,7c9.2646-.3286,9.2622-13.6728,0-14A7.0078,7.0078,0,0,0,25,18Zm12,0c-.21,6.6077-9.7907,6.6062-10,0C27.21,11.3923,36.7907,11.3938,37,18Z"/><path d="M29,18a3,3,0,0,0,6,0A3,3,0,0,0,29,18Zm4,0a1,1,0,0,1-2,0A1,1,0,0,1,33,18Z"/></svg>