<?xml version="1.0" ?>
<svg fill="#000000" width="800px" height="800px" viewBox="0 0 64 64" data-name="Layer 1" id="Layer_1" xmlns="http://www.w3.org/2000/svg"><path d="M59,31.1843V30a3.0033,3.0033,0,0,0-3-3H48.89c4.8906-4.7118.6148-13.1291-6.1281-11.8836C47.3929,10.9637,44.2889,2.92,38,3a6.996,6.996,0,0,0-6,3.4131A6.9964,6.9964,0,0,0,26,3c-6.29-.08-9.3924,7.9663-4.7614,12.1164C14.4929,13.8705,10.2214,22.2918,15.1105,27H8a3.0033,3.0033,0,0,0-3,3v1.1843A2.995,2.995,0,0,0,3,34v8a2.9769,2.9769,0,0,0,.78,2A2.9769,2.9769,0,0,0,3,46v8a2.995,2.995,0,0,0,2,2.8157V58a3.0033,3.0033,0,0,0,3,3H56a3.0033,3.0033,0,0,0,3-3V56.8157A2.995,2.995,0,0,0,61,54V46a2.9769,2.9769,0,0,0-.78-2A2.9769,2.9769,0,0,0,61,42V34A2.995,2.995,0,0,0,59,31.1843ZM6,55a1.0009,1.0009,0,0,1-1-1V46a1.0009,1.0009,0,0,1,1-1h9V55ZM17,33H58a1.0009,1.0009,0,0,1,1,1v8a1.0009,1.0009,0,0,1-1,1H17ZM49,22c-.21,6.6077-9.7907,6.6062-10,0C39.21,15.3923,48.7907,15.3938,49,22ZM27,22c.21-6.6077,9.7907-6.6062,10,0C36.79,28.6077,27.2093,28.6062,27,22Zm.11,5H24.89A7.0418,7.0418,0,0,0,26,25.5868,7.0418,7.0418,0,0,0,27.1105,27Zm3.6509-11.8836A7.0335,7.0335,0,0,0,32,13.5868a7.0335,7.0335,0,0,0,1.2386,1.53A6.7507,6.7507,0,0,0,30.7614,15.1164ZM38,25.5868A7.0418,7.0418,0,0,0,39.1105,27H36.89A7.0418,7.0418,0,0,0,38,25.5868Zm0-7.1736a7.0335,7.0335,0,0,0-1.2386-1.53,6.7507,6.7507,0,0,0,2.4772,0A7.0335,7.0335,0,0,0,38,18.4132ZM38,5c6.6077.21,6.6062,9.7907,0,10C31.3923,14.79,31.3938,5.2093,38,5ZM21,10c.21-6.6077,9.7907-6.6062,10,0C30.79,16.6077,21.2093,16.6062,21,10Zm5,7a6.9943,6.9943,0,0,0,1.2386-.1164A7.0335,7.0335,0,0,0,26,18.4132a7.0335,7.0335,0,0,0-1.2386-1.53A6.9943,6.9943,0,0,0,26,17ZM15,22c.21-6.6077,9.7907-6.6062,10,0C24.79,28.6077,15.2093,28.6062,15,22ZM7,30a1.0009,1.0009,0,0,1,1-1H56a1.0009,1.0009,0,0,1,1,1v1H7ZM5,34a1.0009,1.0009,0,0,1,1-1h9V43H6a1.0009,1.0009,0,0,1-1-1ZM57,58a1.0009,1.0009,0,0,1-1,1H8a1.0009,1.0009,0,0,1-1-1V57H57Zm2-4a1.0009,1.0009,0,0,1-1,1H17V45H58a1.0009,1.0009,0,0,1,1,1Z"/><path d="M12,37a1,1,0,0,0,0-2A1,1,0,0,0,12,37Z"/><path d="M20,19a1,1,0,0,0,0,2A1,1,0,0,0,20,19Z"/><path d="M20,23a1,1,0,0,0,0,2A1,1,0,0,0,20,23Z"/><path d="M34,21a1,1,0,0,0,0,2A1,1,0,0,0,34,21Z"/><path d="M30,21a1,1,0,0,0,0,2A1,1,0,0,0,30,21Z"/><path d="M28.1213,12.1213a1,1,0,0,0-1.4142-1.4142A1,1,0,0,0,28.1213,12.1213Z"/><path d="M25.2929,9.2929a1,1,0,0,0-1.4143-1.4142A1,1,0,0,0,25.2929,9.2929Z"/><path d="M12,41a1,1,0,0,0,0-2A1,1,0,0,0,12,41Z"/><path d="M12,49a1,1,0,0,0,0-2A1,1,0,0,0,12,49Z"/><path d="M12,51a1,1,0,0,0,0,2A1,1,0,0,0,12,51Z"/><path d="M46.1213,21.2929a1,1,0,0,0-1.4142-1.4142A1,1,0,0,0,46.1213,21.2929Z"/><path d="M43.2929,24.1213a1,1,0,0,0-1.4143-1.4142A1,1,0,0,0,43.2929,24.1213Z"/></svg>