<?xml version="1.0" ?>
<svg fill="#000000" width="800px" height="800px" viewBox="0 0 64 64" data-name="Layer 1" id="Layer_1" xmlns="http://www.w3.org/2000/svg"><path d="M50,11a3.0033,3.0033,0,0,0-3,3V52a1,1,0,0,0,1,1h4a1,1,0,0,0,1-1V14A3.0033,3.0033,0,0,0,50,11Zm0,2a1.0006,1.0006,0,0,1,1,1V39H49V14A1.0006,1.0006,0,0,1,50,13ZM49,51V41h2V51Z"/><path d="M58,11a3.0033,3.0033,0,0,0-3,3V52a1,1,0,0,0,1,1h4a1,1,0,0,0,1-1V14A3.0033,3.0033,0,0,0,58,11Zm0,2a1.0006,1.0006,0,0,1,1,1V39H57V14A1.0006,1.0006,0,0,1,58,13ZM57,51V41h2V51Z"/><path d="M24,11A21.0242,21.0242,0,0,0,3,32c1.154,27.8593,40.85,27.8512,42,0A21.0242,21.0242,0,0,0,24,11Zm0,40A19.0216,19.0216,0,0,1,5,32C6.0438,6.7939,41.96,6.8013,43,32A19.0215,19.0215,0,0,1,24,51Z"/><path d="M40.4991,27.9771a16.6227,16.6227,0,0,0-1.2119-3.3647,17,17,0,0,0-30.5749.0008,17.26,17.26,0,0,0-1.4038,4.21A17.0456,17.0456,0,0,0,22.4119,48.92a16.0677,16.0677,0,0,0,3.1762,0A17.0251,17.0251,0,0,0,40.4991,27.9771Zm-13.83,18.7712c-.1578.0285-.3179.05-.4773.0731a14.9363,14.9363,0,0,1-.9041-2.9326A15.0036,15.0036,0,0,1,37.8018,26.1611a15.0275,15.0275,0,0,1,.659,1.9427c-8.537.7629-14.0487,10.5054-10.2576,18.2858A13.26,13.26,0,0,1,26.6691,46.7483Zm-5.3382,0a13.26,13.26,0,0,1-1.5341-.3587c3.7913-7.7816-1.721-17.5224-10.2576-18.2858a15.0275,15.0275,0,0,1,.659-1.9427,15.0324,15.0324,0,0,1,3.02.777,15.1554,15.1554,0,0,1,9.74,13.1369,15.2576,15.2576,0,0,1-.2561,3.8818,14.962,14.962,0,0,1-.8938,2.8646C21.6488,46.7979,21.4887,46.7768,21.3309,46.7483Zm-6.828-3.1751A14.9934,14.9934,0,0,1,9.165,34.1006,7.0351,7.0351,0,0,1,14.5029,43.5732Zm3.4326,2.13a14.8736,14.8736,0,0,1-1.78-.9447A9.03,9.03,0,0,0,9.0031,32.06a13.639,13.639,0,0,1,.1383-1.9913C16.5183,30.62,21.2566,39.0466,17.9355,45.7031ZM24.089,34.998q-.089.0021-.1779,0a16.9,16.9,0,0,0-2.5044-4.47,2.9886,2.9886,0,0,1,5.1866,0A16.8967,16.8967,0,0,0,24.089,34.998Zm3.8777-6.0151a5.0027,5.0027,0,0,0-7.9334,0,16.8918,16.8918,0,0,0-1.4987-1.3435,7.0236,7.0236,0,0,1,10.9308,0A16.8918,16.8918,0,0,0,27.9667,28.9829Zm3.14-2.4835a9.0242,9.0242,0,0,0-14.2128,0,16.8823,16.8823,0,0,0-1.7951-.9439,11.0456,11.0456,0,0,1,17.803,0A16.8823,16.8823,0,0,0,31.1064,26.4994Zm7.7811,3.7582a14.8481,14.8481,0,0,1,.1094,1.8025,9.03,9.03,0,0,0-7.1522,12.6983,14.8736,14.8736,0,0,1-1.78.9447c-3.3213-6.6574,1.4176-15.0823,8.7941-15.6343C38.8669,30.132,38.88,30.1943,38.8875,30.2576Zm-.3212,5.26a15.04,15.04,0,0,1-5.0692,8.0557,7.035,7.035,0,0,1,5.3379-9.4726C38.7674,34.5794,38.68,35.0521,38.5663,35.5175ZM24,17a14.9907,14.9907,0,0,1,12.8483,7.2989,17.0152,17.0152,0,0,0-2.0288.5132,13.0328,13.0328,0,0,0-21.639,0,17.0152,17.0152,0,0,0-2.0288-.5132A14.9907,14.9907,0,0,1,24,17Zm-.1245,29.9937c.0384-.1006.0881-.1985.1245-.2995.0364.101.0861.1989.1245.2995A1.5682,1.5682,0,0,1,23.8755,46.9937Z"/></svg>