<?xml version="1.0" ?>


<svg width="800px" height="800px" viewBox="0 0 20 20" version="1.1" xmlns="http://www.w3.org/2000/svg">

<g id="layer1">

<path d="M 0 4 L 0 15 L 18 15 L 18 4 L 0 4 z M 1 5 L 17 5 L 17 14 L 1 14 L 1 5 z M 3 6 C 3 6.558207 2.558207 7 2 7 L 2 8 C 3.0986472 8 4 7.0986472 4 6 L 3 6 z M 8.5 6 L 8.5 7 C 7.677495 7 7 7.677495 7 8.5 C 7 9.322505 7.677495 10 8.5 10 L 9.5 10 C 9.782065 10 10 10.217935 10 10.5 C 10 10.782065 9.782065 11 9.5 11 L 8.5 11 L 7 11 L 7 12 L 8.5 12 L 8.5 13 L 9.5 13 L 9.5 12 C 10.322504 12 11 11.322505 11 10.5 C 11 9.6774955 10.322504 9 9.5 9 L 8.5 9 C 8.217935 9 8 8.782065 8 8.5 C 8 8.217935 8.217935 8 8.5 8 L 9.5 8 L 11 8 L 11 7 L 9.5 7 L 9.5 6 L 8.5 6 z M 14 6 C 14 7.0986472 14.901353 8 16 8 L 16 7 C 15.441793 7 15 6.558207 15 6 L 14 6 z M 19 6 L 19 16 L 2 16 L 2 17 L 20 17 L 20 6 L 19 6 z M 2 11 L 2 12 C 2.558207 12 3 12.441793 3 13 L 4 13 C 4 11.901353 3.0986472 11 2 11 z M 16 11 C 14.901353 11 14 11.901353 14 13 L 15 13 C 15 12.441793 15.441793 12 16 12 L 16 11 z " style="fill:#222222; fill-opacity:1; stroke:none; stroke-width:0px;"/>

</g>

</svg>