<?xml version="1.0" ?>


<svg width="800px" height="800px" viewBox="0 0 20 20" version="1.1" xmlns="http://www.w3.org/2000/svg">

<g id="layer1">

<path d="M 0 5 L 0 16 L 20 16 L 20 5 L 0 5 z M 1 6 L 19 6 L 19 15 L 1 15 L 1 6 z M 3 7 C 3 7.558207 2.558207 8 2 8 L 2 9 C 3.0986472 9 4 8.0986472 4 7 L 3 7 z M 7.7070312 7 L 7 7.7148438 L 8.7929688 9.5273438 L 8 9.5273438 L 8 10.539062 L 9.5 10.539062 L 9.5 11.044922 L 8 11.044922 L 8 12.056641 L 9.5 12.056641 L 9.5 14 L 10.5 14 L 10.5 12.056641 L 12 12.056641 L 12 11.044922 L 10.5 11.044922 L 10.5 10.539062 L 12 10.539062 L 12 9.5273438 L 11.207031 9.5273438 L 13 7.7148438 L 12.292969 7 L 10 9.3183594 L 7.7070312 7 z M 16 7 C 16 8.0986472 16.901353 9 18 9 L 18 8 C 17.441793 8 17 7.558207 17 7 L 16 7 z M 2 12 L 2 13 C 2.558207 13 3 13.441793 3 14 L 4 14 C 4 12.901353 3.0986472 12 2 12 z M 18 12 C 16.901353 12 16 12.901353 16 14 L 17 14 C 17 13.441793 17.441793 13 18 13 L 18 12 z " style="fill:#222222; fill-opacity:1; stroke:none; stroke-width:0px;"/>

</g>

</svg>