<?xml version="1.0" ?>


<svg width="800px" height="800px" viewBox="0 0 20 20" version="1.1" xmlns="http://www.w3.org/2000/svg">

<g id="layer1">

<path d="M 11.478516 0 L 11.085938 0.025390625 L 10.699219 0.091796875 L 10.324219 0.203125 L 9.9609375 0.35546875 L 9.6191406 0.546875 L 9.3007812 0.77539062 L 9.0097656 1.0390625 L 8.75 1.3339844 L 8.5253906 1.6542969 L 8.3359375 2 L 7.4726562 2 L 7 3 L 8.0351562 3 L 8.0019531 3.3339844 L 8.0019531 3.6660156 L 8.0351562 4 L 7.4726562 4 L 7 5 L 8.3359375 5 L 8.5253906 5.3457031 L 8.75 5.6660156 L 9.0097656 5.9609375 L 9.3007812 6.2246094 L 9.6191406 6.453125 L 9.9609375 6.6464844 L 10.324219 6.796875 L 10.699219 6.9082031 L 11.085938 6.9785156 L 11.478516 7 L 11.871094 6.9824219 L 12.257812 6.9179688 L 12.634766 6.8105469 L 13 6.6640625 L 12.570312 5.7597656 L 12.25 5.8828125 L 11.919922 5.9667969 L 11.580078 6 L 11.236328 5.9863281 L 10.898438 5.9277344 L 10.574219 5.8242188 L 10.265625 5.6738281 L 9.9785156 5.4863281 L 9.7226562 5.2597656 L 9.4980469 5 L 11.287109 5 L 11.761719 4 L 9.0488281 4 L 9.0058594 3.6660156 L 9.0058594 3.3339844 L 9.0488281 3 L 11.738281 3 L 12.210938 2 L 9.4980469 2 L 9.7226562 1.7402344 L 9.9785156 1.5136719 L 10.265625 1.3261719 L 10.574219 1.1757812 L 10.898438 1.0722656 L 11.236328 1.0136719 L 11.580078 1 L 11.919922 1.0332031 L 12.25 1.1171875 L 12.570312 1.2402344 L 13 0.33789062 L 12.634766 0.18945312 L 12.257812 0.08203125 L 11.871094 0.01953125 L 11.478516 0 z M 6 4.2402344 L 0 6.1328125 L 0 6.5 L 0 9 L 1 9 L 1 17 L 0 17 L 0 20 L 20 20 L 20 17 L 19.5 17 L 19 17 L 19 9 L 20 9 L 20 6.1328125 L 14 4.2402344 L 14 5.2871094 L 19 6.8671875 L 19 8 L 1 8 L 1 6.8652344 L 6 5.2871094 L 6 4.2402344 z M 2 9 L 3 9 L 3 17 L 2 17 L 2 9 z M 4 9 L 6 9 L 6 17 L 4 17 L 4 9 z M 7 9 L 8 9 L 8 17 L 7 17 L 7 9 z M 9 9 L 11 9 L 11 17 L 9 17 L 9 9 z M 12 9 L 13 9 L 13 17 L 12 17 L 12 9 z M 14 9 L 16 9 L 16 17 L 14 17 L 14 9 z M 17 9 L 18 9 L 18 17 L 17 17 L 17 9 z M 1 18 L 4 18 L 6 18 L 9 18 L 11 18 L 14 18 L 16 18 L 19 18 L 19 19 L 1 19 L 1 18 z " style="fill:#222222; fill-opacity:1; stroke:none; stroke-width:0px;"/>

</g>

</svg>