<?xml version="1.0" ?>


<svg width="800px" height="800px" viewBox="0 0 20 20" version="1.1" xmlns="http://www.w3.org/2000/svg">

<g id="layer1">

<path d="M 0 4 L 0 15 L 18 15 L 18 4 L 0 4 z M 1 5 L 17 5 L 17 14 L 1 14 L 1 5 z M 3 6 C 3 6.558207 2.558207 7 2 7 L 2 8 C 3.0986472 8 4 7.0986472 4 6 L 3 6 z M 6.7070312 6 L 6 6.7148438 L 7.7929688 8.5273438 L 7 8.5273438 L 7 9.5390625 L 8.5 9.5390625 L 8.5 10.044922 L 7 10.044922 L 7 11.056641 L 8.5 11.056641 L 8.5 13 L 9.5 13 L 9.5 11.056641 L 11 11.056641 L 11 10.044922 L 9.5 10.044922 L 9.5 9.5390625 L 11 9.5390625 L 11 8.5273438 L 10.207031 8.5273438 L 12 6.7148438 L 11.292969 6 L 9 8.3183594 L 6.7070312 6 z M 14 6 C 14 7.0986472 14.901353 8 16 8 L 16 7 C 15.441793 7 15 6.558207 15 6 L 14 6 z M 19 6 L 19 16 L 2 16 L 2 17 L 20 17 L 20 6 L 19 6 z M 2 11 L 2 12 C 2.558207 12 3 12.441793 3 13 L 4 13 C 4 11.901353 3.0986472 11 2 11 z M 16 11 C 14.901353 11 14 11.901353 14 13 L 15 13 C 15 12.441793 15.441793 12 16 12 L 16 11 z " style="fill:#222222; fill-opacity:1; stroke:none; stroke-width:0px;"/>

</g>

</svg>