<?xml version="1.0" ?>


<svg width="800px" height="800px" viewBox="0 0 20 20" version="1.1" xmlns="http://www.w3.org/2000/svg">

<g id="layer1">

<path d="M 0 2 L 0 15 L 5.765625 15 C 5.6176937 14.67556 5.4836296 14.344411 5.3769531 14 L 1 14 L 1 12 L 5.0253906 12 C 5.0155569 11.833467 5 11.668899 5 11.5 C 5 11.331101 5.0155569 11.166533 5.0253906 11 L 1 11 L 1 9 L 5.3769531 9 C 5.4836296 8.6555895 5.6176937 8.3244403 5.765625 8 L 1 8 L 1 6 L 7.0390625 6 C 7.3460623 5.6401983 7.6810686 5.3045909 8.0429688 5 L 1 5 L 1 3 L 13 3.0253906 L 13 2 L 0 2 z M 13.5 5 C 9.9101489 5 7 7.910149 7 11.5 C 7 15.089851 9.9101489 18 13.5 18 C 17.089851 18 20 15.089851 20 11.5 C 20 7.910149 17.089851 5 13.5 5 z M 13.5 6 C 16.537566 6 19 8.462434 19 11.5 C 19 14.537566 16.537566 17 13.5 17 C 10.462434 17 8 14.537566 8 11.5 C 8 8.462434 10.462434 6 13.5 6 z M 14.478516 8 L 14.085938 8.0253906 L 13.699219 8.0917969 L 13.324219 8.203125 L 12.960938 8.3554688 L 12.619141 8.546875 L 12.300781 8.7753906 L 12.009766 9.0390625 L 11.75 9.3339844 L 11.525391 9.6542969 L 11.335938 10 L 10.472656 10 L 10 11 L 11.035156 11 L 11.001953 11.333984 L 11.001953 11.666016 L 11.035156 12 L 10.472656 12 L 10 13 L 11.335938 13 L 11.525391 13.345703 L 11.75 13.666016 L 12.009766 13.960938 L 12.300781 14.224609 L 12.619141 14.453125 L 12.960938 14.646484 L 13.324219 14.796875 L 13.699219 14.908203 L 14.085938 14.978516 L 14.478516 15 L 14.871094 14.982422 L 15.257812 14.917969 L 15.634766 14.810547 L 16 14.664062 L 15.570312 13.759766 L 15.25 13.882812 L 14.919922 13.966797 L 14.580078 14 L 14.236328 13.986328 L 13.898438 13.927734 L 13.574219 13.824219 L 13.265625 13.673828 L 12.978516 13.486328 L 12.722656 13.259766 L 12.498047 13 L 14.287109 13 L 14.761719 12 L 12.048828 12 L 12.005859 11.666016 L 12.005859 11.333984 L 12.048828 11 L 14.738281 11 L 15.210938 10 L 12.498047 10 L 12.722656 9.7402344 L 12.978516 9.5136719 L 13.265625 9.3261719 L 13.574219 9.1757812 L 13.898438 9.0722656 L 14.236328 9.0136719 L 14.580078 9 L 14.919922 9.0332031 L 15.25 9.1171875 L 15.570312 9.2402344 L 16 8.3378906 L 15.634766 8.1894531 L 15.257812 8.0820312 L 14.871094 8.0195312 L 14.478516 8 z " style="fill:#222222; fill-opacity:1; stroke:none; stroke-width:0px;"/>

</g>

</svg>