<?xml version="1.0" ?>


<svg fill="#000000" width="800px" height="800px" viewBox="0 0 64 64" id="Layer_1_1_" version="1.1" xml:space="preserve" xmlns="http://www.w3.org/2000/svg" xmlns:xlink="http://www.w3.org/1999/xlink">

<g>

<path d="M58.059,46.74L50,44.262v-2.132c1.849-1.816,3-4.34,3-7.129h1c2.757,0,5-2.243,5-5c0-1.627-0.793-3.061-2-3.974V22   c0-7.72-6.28-14-14-14c-1.826,0-3.566,0.362-5.166,1H35V6c0-2.757-2.243-5-5-5H14c-2.757,0-5,2.243-5,5v3H4c-1.654,0-3,1.346-3,3v1   v7v16c0,3.859,3.14,7,7,7h28v1.262l-8.059,2.479C24.986,47.65,23,50.34,23,53.432V63h40v-9.568C63,50.34,61.014,47.65,58.059,46.74   z M52.406,47.094l-3.739,6.482l-4.097-2.731l4.712-4.712L52.406,47.094z M41.847,57h2.306l0.667,4H41.18L41.847,57z M44.465,55   h-2.93l-0.841-1.261L43,52.202l2.306,1.537L44.465,55z M48,44.586l-5,5l-5-5v-0.939C39.473,44.502,41.178,45,43,45   s3.527-0.498,5-1.353V44.586z M51,35c0,4.411-3.589,8-8,8c-2.953,0-5.532-1.613-6.918-4h2.102c0.414,1.161,1.514,2,2.816,2h4   c1.654,0,3-1.346,3-3s-1.346-3-3-3h-4c-1.302,0-2.402,0.839-2.816,2h-2.921C35.097,36.359,35,35.692,35,35v-8.037   c3.003-0.226,5.803-1.466,8-3.555c2.197,2.089,4.997,3.329,8,3.555V35z M40,38c0-0.552,0.449-1,1-1h4c0.551,0,1,0.448,1,1   s-0.449,1-1,1h-4C40.449,39,40,38.552,40,38z M33,33h-1c-1.654,0-3-1.346-3-3s1.346-3,3-3h1V33z M31,34.899   C31.323,34.965,31.658,35,32,35h1c0,0.685,0.07,1.354,0.202,2H32c-0.551,0-1-0.448-1-1V34.899z M54,33h-1v-6h1c1.654,0,3,1.346,3,3   S55.654,33,54,33z M55,22v3.101C54.677,25.035,54.342,25,54,25h-1h-1c-2.958,0-5.738-1.151-7.828-3.242L43,20.585l-1.171,1.173   C39.738,23.849,36.958,25,34,25h-1h-1c-0.342,0-0.677,0.035-1,0.101V22c0-6.617,5.383-12,12-12S55,15.383,55,22z M11,6   c0-1.654,1.346-3,3-3h16c1.654,0,3,1.346,3,3v3h-2V5H13v4h-2V6z M29,9H15V7h14V9z M3,12c0-0.552,0.449-1,1-1h30.368   C31.106,13.565,29,17.538,29,22v3h-4v-2h-6v2H8c-2.757,0-5-2.243-5-5v-7V12z M23,25v4h-2v-4H23z M3,36V24.889   C4.272,26.19,6.042,27,8,27h11v4h6v-4h3.026C27.391,27.838,27,28.87,27,30c0,1.627,0.793,3.061,2,3.974V36c0,1.654,1.346,3,3,3   h1.841c0.314,0.716,0.713,1.383,1.178,2H8C5.243,41,3,38.757,3,36z M36.719,46.133l4.712,4.712l-4.101,2.734l-3.771-6.474   L36.719,46.133z M25,53.432c0-2.209,1.418-4.13,3.529-4.779l3.066-0.943l5.075,8.712l2.359-1.573l0.918,1.378L39.153,61H33v-5h-2v5   h-6V53.432z M61,61h-6v-5h-2v5h-6.153l-0.796-4.774l0.918-1.377l2.363,1.576l5.034-8.726l3.103,0.955   c2.111,0.649,3.53,2.57,3.53,4.779V61z"/>

<circle cx="38" cy="29" r="1"/>

<circle cx="48" cy="29" r="1"/>

<rect height="2" width="2" x="15" y="29"/>

<rect height="2" width="2" x="11" y="29"/>

</g>

</svg>