<?xml version="1.0" ?>


<svg fill="#000000" width="800px" height="800px" viewBox="0 0 64 64" id="Layer_1_1_" version="1.1" xml:space="preserve" xmlns="http://www.w3.org/2000/svg" xmlns:xlink="http://www.w3.org/1999/xlink">

<g>

<circle cx="18" cy="23" r="1"/>

<circle cx="28" cy="23" r="1"/>

<path d="M47,57c5.514,0,10-4.486,10-10s-4.486-10-10-10s-10,4.486-10,10S41.486,57,47,57z M47,39c4.411,0,8,3.589,8,8s-3.589,8-8,8   s-8-3.589-8-8S42.589,39,47,39z"/>

<path d="M47,53c3.309,0,6-2.691,6-6s-2.691-6-6-6s-6,2.691-6,6S43.691,53,47,53z M47,43c2.206,0,4,1.794,4,4s-1.794,4-4,4   s-4-1.794-4-4S44.794,43,47,43z"/>

<path d="M55.671,12.743C56.528,11.886,57,10.747,57,9.536C57,7.035,54.965,5,52.464,5c-1.211,0-2.351,0.472-3.207,1.329L49,6.586   l-0.257-0.257C47.886,5.472,46.747,5,45.536,5C43.035,5,41,7.035,41,9.536c0,1.211,0.472,2.351,1.329,3.207L49,19.414   L55.671,12.743z M43,9.536C43,8.138,44.138,7,45.536,7c0.677,0,1.314,0.264,1.793,0.743L49,9.414l1.671-1.671   C51.15,7.264,51.787,7,52.464,7C53.862,7,55,8.138,55,9.536c0,0.677-0.264,1.314-0.743,1.793L49,16.586l-5.257-5.257   C43.264,10.85,43,10.213,43,9.536z"/>

<path d="M51.303,23H60c1.654,0,3-1.346,3-3V4c0-1.654-1.346-3-3-3H38c-1.654,0-3,1.346-3,3v3.038C32.262,3.381,27.909,1,23,1   C14.729,1,8,7.729,8,16v3h0.031C6.806,19.912,6,21.359,6,23c0,1.627,0.793,3.061,2,3.974V30v10.365l-1.804,0.481   C3.137,41.662,1,44.443,1,47.61V59h35.373l1.988,1.988l2.413-1.451c0.563,0.279,1.153,0.521,1.764,0.726L43.218,63h7.563   l0.681-2.737c0.611-0.205,1.201-0.447,1.764-0.726l2.413,1.451l5.348-5.348l-1.451-2.413c0.279-0.563,0.521-1.153,0.726-1.764   L63,50.782v-7.563l-2.737-0.681c-0.205-0.611-0.447-1.201-0.726-1.764l1.451-2.413l-5.348-5.348l-2.413,1.451   c-0.563-0.279-1.153-0.521-1.764-0.726L50.782,31h-7.563l-0.681,2.737c-0.611,0.205-1.201,0.447-1.764,0.726l-2.413-1.451   L38,33.373v-6.398c1.207-0.914,2-2.348,2-3.974h4v4.869L51.303,23z M10,16c0-7.168,5.832-13,13-13s13,5.832,13,13v2.101   C35.677,18.035,35.342,18,35,18h-1v-3h-2c0,1.654-1.346,3-3,3c-0.864,0-1.662-0.369-2.248-1.038L26,16.102l-0.752,0.861   c-1.171,1.338-3.324,1.338-4.495,0L20,16.102l-0.752,0.861C18.662,17.631,17.864,18,17,18c-1.654,0-3-1.346-3-3h-2v3h-1   c-0.342,0-0.677,0.035-1,0.101V16z M31,43.218v0.739l-2.316,4.478l-4.202-3.502l4.818-4.818l4.873,1.3   c-0.158,0.366-0.307,0.738-0.436,1.123L31,43.218z M22.721,53h0.559l1.333,4h-3.225L22.721,53z M23.5,51h-1l-1.976-2.635L23,46.302   l2.476,2.063L23.5,51z M16.701,40.115l4.818,4.818l-4.206,3.505l-3.89-7.449L16.701,40.115z M28,38.586l-5,5l-5-5v-0.8   C19.502,38.556,21.199,39,23,39s3.498-0.444,5-1.214V38.586z M23,37c-3.113,0-5.861-1.59-7.478-4h2.662   c0.414,1.161,1.514,2,2.816,2h4c1.654,0,3-1.346,3-3s-1.346-3-3-3h-4c-1.302,0-2.402,0.839-2.816,2h-3.659   C14.191,30.06,14,29.053,14,28v-9.002C14.836,19.626,15.875,20,17,20c1.086,0,2.138-0.363,3-1.018c1.725,1.311,4.275,1.311,6,0   C26.862,19.637,27.914,20,29,20c1.125,0,2.164-0.374,3-1.002V28C32,32.962,27.962,37,23,37z M20,32c0-0.551,0.449-1,1-1h4   c0.551,0,1,0.449,1,1s-0.449,1-1,1h-4C20.449,33,20,32.551,20,32z M11,20h1v6h-1c-1.654,0-3-1.346-3-3S9.346,20,11,20z M10,27.899   C10.323,27.965,10.658,28,11,28h1c0,1.041,0.155,2.045,0.426,3H11c-0.551,0-1-0.449-1-1V27.899z M10,32.816   C10.314,32.928,10.648,33,11,33h2.214c0.688,1.34,1.634,2.526,2.786,3.479v1.753l-6,1.6V32.816z M3,47.61   c0-2.262,1.526-4.249,3.712-4.831l4.73-1.262l5.245,10.045l2.298-1.915l1.9,2.534L19.279,57H11v-7H9v7H3V47.61z M26.721,57   l-1.607-4.819l1.9-2.534l2.302,1.918L31,48.31v2.471l2.737,0.681c0.205,0.611,0.447,1.201,0.726,1.764l-1.451,2.413l1.36,1.36   H26.721z M38.669,35.532l2.048,1.231l0.504-0.278c0.75-0.413,1.567-0.75,2.43-1l0.552-0.161L44.782,33h4.437l0.579,2.323   l0.552,0.161c0.862,0.25,1.68,0.587,2.43,1l0.504,0.278l2.048-1.231l3.137,3.137l-1.231,2.048l0.278,0.504   c0.413,0.75,0.75,1.567,1,2.43l0.161,0.552L61,44.782v4.437l-2.323,0.579l-0.161,0.552c-0.25,0.862-0.587,1.68-1,2.43l-0.278,0.504   l1.231,2.048l-3.137,3.137l-2.048-1.231l-0.504,0.278c-0.75,0.413-1.567,0.75-2.43,1l-0.552,0.161L49.218,61h-4.437l-0.579-2.323   l-0.552-0.161c-0.862-0.25-1.68-0.587-2.43-1l-0.504-0.278l-2.048,1.231l-3.137-3.137l1.231-2.048l-0.278-0.504   c-0.413-0.75-0.75-1.567-1-2.43l-0.161-0.552L33,49.218v-4.437l2.323-0.579l0.161-0.552c0.25-0.862,0.587-1.68,1-2.43l0.278-0.504   l-1.231-2.048L38.669,35.532z M36,35.373l-2.988,2.988l0.483,0.804L30,38.232v-1.753c2.441-2.019,4-5.07,4-8.479h1   c0.342,0,0.677-0.035,1-0.101V35.373z M35,26h-1v-6h1c1.654,0,3,1.346,3,3S36.654,26,35,26z M39.576,21   c-0.352-0.801-0.913-1.483-1.607-2H38v-3c0-1.883-0.364-3.679-1-5.34V4c0-0.551,0.449-1,1-1h22c0.551,0,1,0.449,1,1v16   c0,0.551-0.449,1-1,1h-9.303L46,24.131V21H39.576z"/>

</g>

</svg>