<?xml version="1.0" encoding="utf-8"?>

<svg width="800px" height="800px" viewBox="0 0 1024 1024" class="icon"  version="1.1" xmlns="http://www.w3.org/2000/svg"><path d="M732.1 399.3C534.6 356 696.5 82.1 425.9 104.8s-527.2 645.8-46.8 791.7 728-415 353-497.2z" fill="#464BD8" /><path d="M589.4 669.5V641h-84.9v28.5c0 14.5-11.7 26.2-26.2 26.2h-51.6c-26.4 0-47.7 21.4-47.7 47.7h335.9c0-26.4-21.4-47.7-47.7-47.7h-51.6c-14.5 0-26.2-11.7-26.2-26.2z" fill="#FFFFFF" /><path d="M589.4 641v28.5c0 14.5 11.7 26.2 26.2 26.2h51.6c26.4 0 47.7 21.4 47.7 47.7h-336c0-26.4 21.4-47.7 47.7-47.7h51.6c14.5 0 26.2-11.7 26.2-26.2V641h85m0-18.6h-84.9c-10.2 0-18.5 8.3-18.5 18.5v28.5c0 4.2-3.4 7.7-7.7 7.7h-51.6c-36.5 0-66.3 29.7-66.3 66.3 0 10.2 8.3 18.5 18.5 18.5h335.9c10.2 0 18.5-8.3 18.5-18.5 0-36.5-29.7-66.3-66.3-66.3h-51.6c-4.2 0-7.7-3.4-7.7-7.7V641c0.2-10.3-8.1-18.6-18.3-18.6z" fill="#151B28" /><path d="M667.1 695.7h-51.5c-14.5 0-26.2-11.7-26.2-26.2V641h-61v28.5c0 14.5-11.7 26.2-26.2 26.2h-51.5c-26.4 0-47.7 21.4-47.7 47.7h312c-0.1-26.3-21.5-47.7-47.9-47.7z" fill="#464BD8" /><path d="M546.9 650.2c-60 0-116.5-23.4-158.9-65.8-42.5-42.4-65.8-98.9-65.8-159 0-123.9 100.8-224.8 224.8-224.8s224.8 100.8 224.8 224.8c0 60.1-23.4 116.5-65.8 159-42.6 42.5-99 65.8-159.1 65.8z m-8.6-198.6c-12.2 15.7-47.6 54.1-101.9 54.8-13.6 0.2-20.5 5.2-20.4 14.9 0.1 11.8 9.7 27 24.4 38.6 18.6 14.7 43.5 22.8 70.1 22.8h2.3c37.2-0.6 65.7-16.6 76.1-42.9 9.6-24.2 1.7-52-21-74.7l-29.6-13.5z m35.5-31.6c19.8 2.7 70.7 14.1 98.4 60.7 3.4 5.7 8.9 12.4 15.9 12.4 6.7 0 14.2-6.1 19.9-16.2 11.7-20.7 16.7-59.5-7.9-100.6-17.1-28.6-41.5-44.9-66.9-44.9-29.4 0-53.2 21.5-62.5 56.2l3.1 32.4z m-62.3-159.7c-25.8 0-61.7 17.7-83.6 57.1-16.3 29.3-18.2 58.8-5.3 80.9 10.9 18.5 30.9 29 54.9 29 7.9 0 16.3-1.2 24.7-3.4l26.5-18.9c-7.5-18.5-23.1-68.3 3.4-115.6 3.3-5.8 6.4-14 2.8-20-3.3-5.7-12.1-9.1-23.4-9.1z" fill="#FFFFFF" /><path d="M546.9 210c119 0 215.5 96.5 215.5 215.5 0 119.1-96.5 215.5-215.5 215.5s-215.5-96.4-215.5-215.5c0-119 96.5-215.5 215.5-215.5m-69.4 226.6c9.1 0 18.7-1.3 28.8-4.2l34-24.3s-30.7-59.6-0.1-114.3c14.9-26.6-2-42.9-28.7-42.9-28.3 0-67.5 18.2-91.7 61.9-36.5 65.6-2 123.8 57.7 123.8m210.6 65.8c29.9 0 59-65.7 20-130.8-20.2-33.6-48.3-49.5-74.9-49.5-31.8 0-61.3 22.7-71.9 64.7l4 41.5s66.9 3.2 99 57c7 12 15.4 17.1 23.8 17.1M510.5 592h2.4c86.3-1.4 117.3-79.4 60.3-134.7L535.3 440s-36.3 56.3-99 57.1c-62.1 0.9-21.1 94.9 74.2 94.9m36.4-400.6c-31.6 0-62.2 6.2-91.1 18.4-27.9 11.8-52.9 28.7-74.4 50.2s-38.4 46.5-50.2 74.4c-12.2 28.9-18.4 59.5-18.4 91.1 0 31.6 6.2 62.3 18.4 91.1 11.8 27.9 28.7 52.9 50.2 74.4 21.5 21.5 46.5 38.4 74.4 50.1 28.9 12.2 59.5 18.4 91.1 18.4s62.2-6.2 91.1-18.4c27.9-11.8 52.9-28.7 74.4-50.1 21.5-21.5 38.4-46.5 50.2-74.4 12.2-28.9 18.4-59.5 18.4-91.1 0-31.6-6.2-62.2-18.4-91.1-11.8-27.9-28.7-52.9-50.2-74.4s-46.5-38.4-74.4-50.2c-28.9-12.2-59.5-18.4-91.1-18.4z m-69.4 226.7c-20.7 0-37.8-8.9-46.9-24.5-11.3-19.2-9.3-45.3 5.4-71.7 20.1-36.2 52.4-52.4 75.5-52.4 9.3 0 14.4 2.7 15.4 4.5 0.6 1 0.7 4.4-2.9 10.8-25.5 45.6-14.8 93.2-6.5 116.8l-19.3 13.8c-7.1 1.8-14.1 2.7-20.7 2.7z m102.6-29.6c8.4-29.6 28.6-47.8 53.1-47.8 22.1 0 43.6 14.7 59 40.5 21.1 35.2 19.1 71.2 7.8 91.2-4.7 8.4-9.8 11.5-11.9 11.5-1.1 0-4.2-1.7-7.9-7.9-26.7-44.9-73.3-59.3-97.8-64l-2.3-23.5z m-69.6 184.9c-24.5 0-47.4-7.4-64.4-20.8-14.3-11.3-20.8-24.2-20.9-31.4 0-2.4 0.7-3 0.9-3.2 1.3-1.1 4.6-2.3 10.4-2.4 52.3-0.7 88.1-33.8 104.4-52.7l21.5 9.8c19.2 19.8 25.8 43.4 17.8 63.6-9 22.7-34.3 36.6-67.6 37.1h-2.1z" fill="#151B28" /><path d="M733.2 533.9c-7.2-1.3-14.3-6.5-20.3-16.6-4-6.7-8.6-12.7-13.5-17.9-11.7 6.4-24.9 3.3-35.2-13.8-3.7-6.3-8-11.8-12.5-16.8-20.9-7.6-37.8-8.5-37.8-8.5l-1.9-19.6c-9.8-4.3-19-7.1-26.7-8.9 2 5.2 3.6 8.3 3.6 8.3l-20.9 15 5.3 2.4c5.2 5 9.4 10.3 13.2 15.6l35.5 16.1c57 55.4 26 133.4-60.3 134.7-42.8 0.7-74.9-17.5-92.1-38.1-64.7-21.1-85.4-87.7-33.2-88.4 32.3-0.4 57.5-15.6 74.5-30.2-20.7-3.8-37.2-15.2-47.1-31.5-38.4-6.2-62.8-38.4-58.3-79.7-16.3 30-25.5 64.6-25.5 101.2 0 65.2 29 123.6 74.7 163.1 28 13.2 59.2 20.7 92.2 20.7 79.5 0 148.9-43.1 186.3-107.1z m-189-249.4c35.1-7.5 62.3 9.6 44.6 41.1-4.4 7.9-7.5 15.9-9.6 23.9 29.2-36.9 81.2-37.5 117.4 6.1 21.9 4.8 43.7 20.3 60.2 47.8 2 3.3 3.7 6.6 5.3 9.9-3.4-60.2-31.5-113.8-74.4-150.8-27.9-13.2-59.2-20.7-92.1-20.7-24.1 0-47.3 4-69 11.4 14.5 4.2 22.6 15.3 17.6 31.3z" fill="#2AEFC8" /><path d="M546.9 425.5m-38.7 0a38.7 38.7 0 1 0 77.4 0 38.7 38.7 0 1 0-77.4 0Z" fill="#2AEFC8" /><path d="M546.9 386.8c21.4 0 38.7 17.3 38.7 38.7s-17.3 38.7-38.7 38.7-38.7-17.3-38.7-38.7 17.3-38.7 38.7-38.7m0-17c-30.7 0-55.7 25-55.7 55.7s25 55.7 55.7 55.7 55.7-25 55.7-55.7-25-55.7-55.7-55.7z" fill="#151B28" /><path d="M546.9 425.5m-12.9 0a12.9 12.9 0 1 0 25.8 0 12.9 12.9 0 1 0-25.8 0Z" fill="#FFFFFF" /><path d="M546.9 412.6c7.1 0 12.9 5.8 12.9 12.9 0 7.1-5.8 12.9-12.9 12.9-7.1 0-12.9-5.8-12.9-12.9 0-7.1 5.8-12.9 12.9-12.9m0-9.4c-12.3 0-22.3 10-22.3 22.3s10 22.3 22.3 22.3 22.3-10 22.3-22.3-10-22.3-22.3-22.3z" fill="#151B28" /><path d="M546.9 712.8m-18.5 0a18.5 18.5 0 1 0 37 0 18.5 18.5 0 1 0-37 0Z" fill="#FFFFFF" /><path d="M546.9 694.3c10.2 0 18.5 8.3 18.5 18.5s-8.3 18.5-18.5 18.5-18.5-8.3-18.5-18.5 8.3-18.5 18.5-18.5m0-9.4c-15.4 0-27.9 12.5-27.9 27.9 0 15.4 12.5 27.9 27.9 27.9s27.9-12.5 27.9-27.9c0-15.4-12.5-27.9-27.9-27.9z" fill="#151B28" /><path d="M601.3 712.8m-5.8 0a5.8 5.8 0 1 0 11.6 0 5.8 5.8 0 1 0-11.6 0Z" fill="#FFFFFF" /><path d="M601.3 707c3.2 0 5.8 2.6 5.8 5.8 0 3.2-2.6 5.8-5.8 5.8s-5.8-2.6-5.8-5.8c0.1-3.2 2.6-5.8 5.8-5.8m0-5.6c-6.3 0-11.4 5.1-11.4 11.4s5.1 11.4 11.4 11.4 11.4-5.1 11.4-11.4-5.1-11.4-11.4-11.4z" fill="#151B28" /><path d="M492.5 712.8m-5.8 0a5.8 5.8 0 1 0 11.6 0 5.8 5.8 0 1 0-11.6 0Z" fill="#FFFFFF" /><path d="M492.5 707c3.2 0 5.8 2.6 5.8 5.8 0 3.2-2.6 5.8-5.8 5.8s-5.8-2.6-5.8-5.8c0-3.2 2.6-5.8 5.8-5.8m0-5.6c-6.3 0-11.4 5.1-11.4 11.4s5.1 11.4 11.4 11.4c6.3 0 11.4-5.1 11.4-11.4s-5.1-11.4-11.4-11.4z" fill="#151B28" /></svg>