<?xml version="1.0" encoding="utf-8"?>

<svg width="800px" height="800px" viewBox="0 0 1024 1024" class="icon"  version="1.1" xmlns="http://www.w3.org/2000/svg"><path d="M732.1 399.3C534.6 356 696.5 82.1 425.9 104.8s-527.2 645.8-46.8 791.7 728-415 353-497.2z" fill="#464BD8" /><path d="M425.2 659.6c-4.9 0-8.9-4-8.9-8.9v-11.2c0-4.9 4-8.9 8.9-8.9H649c4.9 0 8.9 4 8.9 8.9v11.2c0 4.9-4 8.9-8.9 8.9H425.2z" fill="#2AEFC8" /><path d="M648.9 639.4v11.2H425.2v-11.2h223.7m0-17.9H425.2c-9.9 0-17.9 8-17.9 17.9v11.2c0 9.9 8 17.9 17.9 17.9H649c9.9 0 17.9-8 17.9-17.9v-11.2c-0.1-9.8-8.1-17.9-18-17.9z" fill="#151B28" /><path d="M381.6 755.4c-2.7 0-5.2-1.2-6.9-3.3-1.7-2.1-2.4-4.8-1.8-7.4l34.4-168.5c0.8-4.2 4.5-7.2 8.8-7.2h16.2c2.7 0 5.2 1.2 6.9 3.3 1.7 2.1 2.4 4.8 1.8 7.4l-34.4 168.5c-0.8 4.2-4.5 7.2-8.8 7.2h-16.2z" fill="#514DDF" /><path d="M432.1 578l-34.4 168.5h-16.2L415.9 578h16.2m0-17.9h-16.2c-8.5 0-15.8 6-17.5 14.3L364 742.9c-1.1 5.3 0.3 10.7 3.7 14.9 3.4 4.2 8.5 6.6 13.9 6.6h16.2c8.5 0 15.8-6 17.5-14.3l34.4-168.5c1.1-5.3-0.3-10.7-3.7-14.9-3.4-4.2-8.5-6.6-13.9-6.6z m0 35.8z" fill="#151B28" /><path d="M676.3 755.4c-4.3 0-7.9-3-8.8-7.2l-34.4-168.5c-0.5-2.6 0.1-5.4 1.8-7.4 1.7-2.1 4.2-3.3 6.9-3.3H658c4.3 0 7.9 3 8.8 7.2l34.4 168.5c0.5 2.6-0.1 5.4-1.8 7.4a8.82 8.82 0 0 1-6.9 3.3h-16.2z" fill="#514DDF" /><path d="M658.2 578l34.4 168.5h-16.2L642 578h16.2m0-17.9H642c-5.4 0-10.5 2.4-13.9 6.6-3.4 4.2-4.7 9.6-3.7 14.9l34.4 168.5c1.7 8.3 9 14.3 17.5 14.3h16.2c5.4 0 10.5-2.4 13.9-6.6 3.4-4.2 4.7-9.6 3.7-14.9l-34.4-168.5c-1.7-8.3-9-14.3-17.5-14.3zM537 536.7c-5.1 0-9.3-4.1-9.3-9.3V449c0-5.1 4.1-9.3 9.3-9.3s9.3 4.1 9.3 9.3v78.5c0 5.1-4.1 9.2-9.3 9.2z m-75.7 0c-5.1 0-9.3-4.1-9.3-9.3V449c0-5.1 4.1-9.3 9.3-9.3s9.3 4.1 9.3 9.3v78.5c0 5.1-4.1 9.2-9.3 9.2z m151.5 0c-5.1 0-9.3-4.1-9.3-9.3V449c0-5.1 4.1-9.3 9.3-9.3s9.3 4.1 9.3 9.3v78.5c-0.1 5.1-4.2 9.2-9.3 9.2z" fill="#151B28" /><path d="M431.6 458.2c-35.9 0-65.1-29.2-65.1-65.1v-59.8c0-35.9 29.2-65.1 65.1-65.1h210.8c35.9 0 65.1 29.2 65.1 65.1v59.8c0 35.9-29.2 65.1-65.1 65.1H431.6z" fill="#FFFFFF" /><path d="M642.4 277.5c30.8 0 55.8 25 55.8 55.8v59.8c0 30.8-25 55.8-55.8 55.8H431.6c-30.8 0-55.8-25-55.8-55.8v-59.8c0-30.8 25-55.8 55.8-55.8h210.8m0-18.5H431.6c-41 0-74.3 33.3-74.3 74.3v59.8c0 41 33.3 74.3 74.3 74.3h210.8c41 0 74.3-33.3 74.3-74.3v-59.8c0.1-41-33.3-74.3-74.3-74.3z" fill="#151B28" /><path d="M626.6 434.6h-156c-27.7 0-50.2-22.5-50.2-50.2v-16.8c0-27.7 22.5-50.2 50.2-50.2h156c27.7 0 50.2 22.5 50.2 50.2v16.8c-0.1 27.8-22.5 50.2-50.2 50.2z" fill="#2AEFC8" /><path d="M622 310.7c21.1 0 38.2 17.1 38.2 38.2v28.7c0 21.1-17.1 38.2-38.2 38.2H452.1c-21.1 0-38.2-17.1-38.2-38.2v-28.7c0-21.1 17.1-38.2 38.2-38.2H622m0-9.4H452.1c-26.2 0-47.6 21.3-47.6 47.6v28.7c0 26.2 21.3 47.6 47.6 47.6H622c26.2 0 47.6-21.3 47.6-47.6v-28.7c0-26.3-21.4-47.6-47.6-47.6z" fill="#151B28" /><path d="M594.4 376.6H479.7c-7.4 0-13.3-6-13.3-13.3 0-7.4 6-13.3 13.3-13.3h114.8c7.4 0 13.3 6 13.3 13.3-0.1 7.3-6 13.3-13.4 13.3zM363.6 587.3c-16.7 0-30.3-13.6-30.3-30.3v-4.8c0-16.7 13.6-30.3 30.3-30.3h346.9c16.7 0 30.3 13.6 30.3 30.3v4.8c0 16.7-13.6 30.3-30.3 30.3H363.6z" fill="#FFFFFF" /><path d="M710.5 531c11.6 0 21.1 9.4 21.1 21.1v4.8c0 11.6-9.4 21.1-21.1 21.1H363.6c-11.6 0-21.1-9.4-21.1-21.1v-4.8c0-11.6 9.4-21.1 21.1-21.1h346.9m0-18.5H363.6c-21.8 0-39.6 17.8-39.6 39.6v4.8c0 21.8 17.8 39.6 39.6 39.6h346.9c21.8 0 39.6-17.8 39.6-39.6v-4.8c0-21.8-17.8-39.6-39.6-39.6z" fill="#151B28" /><path d="M696.9 562.8H377.2c-4.5 0-8.2-3.7-8.2-8.2 0-4.5 3.7-8.2 8.2-8.2h319.6c4.5 0 8.2 3.7 8.2 8.2 0.1 4.5-3.6 8.2-8.1 8.2z" fill="#2AEFC8" /></svg>