<?xml version="1.0" ?>

<!DOCTYPE svg  PUBLIC '-//W3C//DTD SVG 1.1//EN'  'http://www.w3.org/Graphics/SVG/1.1/DTD/svg11.dtd'>


<svg fill="#000000" width="800px" height="800px" viewBox="0 0 512 512" enable-background="new 0 0 512 512" id="Nails" version="1.1" xml:space="preserve" xmlns="http://www.w3.org/2000/svg" xmlns:xlink="http://www.w3.org/1999/xlink">

<g id="Nails_1_">

<g>

<path d="M201.193,65.479H76.35c-2.652,0-5.066,1.458-6.301,3.806c-1.233,2.347-1.066,5.162,0.435,7.343l1.51,2.198    c6.479,9.43,17.177,15.059,28.617,15.059h22.107v265.378l7.813,79.874l0.031,0.257c0.585,4.131,4.038,7.129,8.21,7.129    s7.625-2.998,8.21-7.129l7.815-79.84l0.027-265.669h22.256c12.584,0,24.207-6.829,30.332-17.824    c1.223-2.195,1.19-4.905-0.083-7.07C206.057,66.823,203.705,65.479,201.193,65.479z M134.718,153.959h8.107v15.938h-8.107V153.959    z M134.718,141.959v-15.938h8.107v15.938H134.718z M138.771,400.12l-4.054-41.443V181.897h8.107v176.779L138.771,400.12z     M142.825,114.021h-8.107V93.884h8.107V114.021z M177.08,81.884h-22.255h-32.107H100.61c-4.904,0-9.6-1.58-13.447-4.405h103.359    C186.687,80.292,181.995,81.884,177.08,81.884z"/>

<path d="M246.66,109.238c-36.509,0.533-56.548,28.907-60.19,34.583c-1.316,2.047-1.41,4.645-0.245,6.78    c1.168,2.139,3.407,3.468,5.845,3.468h30.546c2.7,0,4.896,2.196,4.896,4.896v18.021l-11.693,3.457l3.402,11.508l8.291-2.451v16.99    l-11.693,3.457l3.402,11.508l8.291-2.451v16.991l-11.693,3.457l3.402,11.508l8.291-2.451v16.989l-11.693,3.457l3.402,11.508    l8.291-2.451v16.99l-11.693,3.457l3.402,11.508l8.291-2.451v16.991l-11.693,3.457l3.402,11.508l8.291-2.451v16.99l-11.693,3.457    l3.402,11.508l9.913-2.931l12.164,47.576c0.749,2.936,3.389,4.986,6.419,4.986c3.031,0,5.671-2.051,6.419-4.984l13.788-53.921    v-5.126l11.693-3.457l-3.402-11.508l-8.291,2.451v-16.99l11.693-3.457l-3.402-11.508l-8.291,2.451v-16.99l11.693-3.457    l-3.402-11.508l-8.291,2.451v-16.99l11.693-3.457l-3.402-11.508l-8.291,2.451v-16.99l11.693-3.457l-3.402-11.508l-8.291,2.451    v-16.991l11.693-3.457l-3.402-11.508l-8.291,2.451v-16.99l11.693-3.457l-3.402-11.508l-8.291,2.451v-6.072    c0-2.7,2.196-4.896,4.896-4.896h30.544c2.397,0,4.619-1.299,5.799-3.388c1.178-2.088,1.141-4.658-0.098-6.709    C295.901,122.178,272.03,108.894,246.66,109.238z M255.924,358.192l-8.206,32.094l-7.068-27.646l15.274-4.517V358.192z     M255.924,345.61l-16.412,4.853v-16.99l16.412-4.853V345.61z M255.924,316.106l-16.412,4.853v-16.99l16.412-4.854V316.106z     M255.924,286.602l-16.412,4.854v-16.99l16.412-4.854V286.602z M255.924,257.098l-16.412,4.854v-16.99l16.412-4.853V257.098z     M255.924,227.595l-16.412,4.853v-16.991l16.412-4.853V227.595z M255.924,198.09l-16.412,4.853v-16.99l16.412-4.853V198.09z     M272.82,142.069c-9.316,0-16.896,7.58-16.896,16.896v9.62l-16.412,4.853v-14.473c0-9.316-7.58-16.896-16.896-16.896h-19.638    c7.899-8.685,22.545-20.521,43.858-20.832c17.699-0.274,34.63,7.544,46.08,20.832H272.82z"/>

<path d="M316.17,236.807c-0.958,2.604-0.31,5.553,1.652,7.515c1.359,1.36,3.194,2.089,5.061,2.089    c0.825,0,1.656-0.143,2.455-0.436l40.582-14.926l45.573-45.572l6.081,6.082c2.787,2.788,6.494,4.323,10.437,4.323    s7.649-1.535,10.437-4.323c2.788-2.788,4.324-6.495,4.324-10.438c0-3.943-1.536-7.65-4.324-10.438l-46.987-46.988    c-2.788-2.788-6.495-4.323-10.438-4.323s-7.649,1.536-10.437,4.323c-2.788,2.788-4.324,6.495-4.324,10.438    c0,3.943,1.536,7.65,4.324,10.438l6.08,6.081l-45.571,45.572L316.17,236.807z M379.071,132.181    c0.703-0.703,1.524-0.809,1.951-0.809c0.428,0,1.249,0.105,1.953,0.809l46.987,46.988c0.703,0.703,0.809,1.525,0.809,1.952    s-0.105,1.248-0.81,1.952c-0.703,0.703-1.524,0.809-1.951,0.809s-1.248-0.105-1.951-0.809l-46.989-46.988    c-0.703-0.703-0.809-1.525-0.809-1.952S378.367,132.885,379.071,132.181z M385.151,159.137l17.855,17.855l-9.372,9.372    l-11.606-11.606l-8.486,8.485l11.606,11.607l-5.801,5.801l-11.606-11.606l-8.484,8.485l11.605,11.605l-11.562,11.562    l-28.241,10.387l10.387-28.241L385.151,159.137z"/>

<path d="M297.591,323.017c0,3.942,1.536,7.649,4.323,10.437c2.788,2.788,6.494,4.324,10.438,4.324    c3.942,0,7.649-1.535,10.437-4.323l6.082-6.081l45.572,45.572l40.584,14.925c0.798,0.294,1.628,0.436,2.453,0.436    c1.865,0,3.7-0.729,5.061-2.089c1.961-1.961,2.61-4.91,1.652-7.516l-14.925-40.582l-45.571-45.572l6.08-6.08    c2.788-2.789,4.324-6.496,4.324-10.438s-1.536-7.649-4.324-10.438c-5.753-5.755-15.118-5.755-20.875,0l-46.986,46.987    C299.127,315.367,297.591,319.074,297.591,323.017z M409.303,372.979l-28.241-10.386l-43.706-43.707l17.855-17.854l9.372,9.372    l-11.606,11.607l8.486,8.484l11.605-11.605l5.802,5.801l-11.606,11.605l8.484,8.486l11.606-11.607l11.562,11.563L409.303,372.979z     M310.4,321.064l46.986-46.988c0.538-0.538,1.245-0.807,1.953-0.807c0.707,0,1.414,0.269,1.952,0.807    c0.703,0.703,0.809,1.525,0.809,1.952s-0.105,1.249-0.809,1.952l-23.494,23.494l-17.413,17.412l0,0l-6.081,6.082    c-0.704,0.703-1.524,0.809-1.952,0.809c-0.427,0-1.248-0.105-1.952-0.81c-0.703-0.703-0.809-1.524-0.809-1.951    S309.696,321.768,310.4,321.064z"/>

</g>

</g>

</svg>