<?xml version="1.0" ?>

<!DOCTYPE svg  PUBLIC '-//W3C//DTD SVG 1.1//EN'  'http://www.w3.org/Graphics/SVG/1.1/DTD/svg11.dtd'>


<svg fill="#000000" width="800px" height="800px" viewBox="0 0 512 512" enable-background="new 0 0 512 512" id="Paint_x5F_bucket" version="1.1" xml:space="preserve" xmlns="http://www.w3.org/2000/svg" xmlns:xlink="http://www.w3.org/1999/xlink">

<g id="Paint_x5F_bucket_1_">

<g>

<rect height="15.169" width="12" x="350.951" y="113.662"/>

<path d="M196.428,349.562v43.909h185.899v28.264H130.09v-88.963h-12v100.963h8.173c2.372,11.139,12.282,19.52,24.116,19.52h211.66    c11.835,0,21.745-8.381,24.117-19.52h8.171V316.462c26.323-23.734,42.899-58.083,42.899-96.233v-72.457h-22.074v-17.094h-20.825    V74.126V58.748h-0.003v-0.001h-276.23v0.001h-0.004v71.93H97.265v17.094H74.773v72.457    C74.773,289.018,128.654,345.45,196.428,349.562z M208.428,381.471v-31.66h99.217c27.787,0,53.558-8.795,74.68-23.742v55.402    H208.428z M362.039,441.254h-211.66c-5.15,0-9.595-3.093-11.568-7.52h234.797C371.635,438.161,367.191,441.254,362.039,441.254z     M425.227,159.771v60.457c0,30.558-11.721,58.428-30.899,79.358V176.871h20.825v-17.1H425.227z M403.152,142.678v22.193h-8.825    v-22.193H403.152z M382.324,130.678v36.514c-0.031,7.186-5.885,13.023-13.078,13.023c-7.213,0-13.081-5.868-13.081-13.081v-1.046    c0-11.016-8.96-19.977-19.976-19.977c-4.398,0-7.977-3.578-7.977-7.977v-10.526c0-9.644-7.846-17.489-17.488-17.489    c-9.645,0-17.489,7.845-17.489,17.489v2.504c0,2.078-1.69,3.768-3.769,3.768c-2.077,0-3.768-1.69-3.768-3.768V70.748h65.252    v30.362h12V70.748h19.373v52.508h0.003v7.422H382.324z M273.699,117.256H130.094V70.748h143.605V117.256z M167.191,155.59v12.776    v2.505c0,2.077-1.691,3.768-3.77,3.768c-2.076,0-3.768-1.69-3.768-3.768v-41.615h30.717v3.154c0,3.082-2.508,5.59-5.591,5.59    C175.081,138,167.191,145.891,167.191,155.59z M130.09,129.256h17.564v41.615c0,8.694,7.074,15.768,15.768,15.768    c8.695,0,15.77-7.073,15.77-15.768v-2.505V155.59c0-3.082,2.507-5.59,5.589-5.59c9.7,0,17.591-7.89,17.591-17.59v-3.154h71.328    v0.857c0,8.695,7.073,15.768,15.768,15.768c8.695,0,15.769-7.073,15.769-15.768v-2.504c0-3.026,2.462-5.489,5.489-5.489    c3.025,0,5.488,2.463,5.488,5.489v10.526c0,11.015,8.963,19.977,19.977,19.977c4.398,0,7.976,3.578,7.976,7.977v1.046    c0,13.83,11.251,25.081,25.081,25.081c4.789,0,9.268-1.351,13.078-3.689v122.457c-20.322,16.754-46.347,26.828-74.68,26.828    h-99.217V183.146h120.719v-12H196.428v166.391c-25.06-1.676-47.994-11.236-66.338-26.22V176.871h0.004v-46.193h-0.004V129.256z     M109.265,142.678h8.825v22.193h-8.825V142.678z M86.773,159.771h10.491v17.1h20.825v123.164    c-19.424-20.979-31.316-49.028-31.316-79.807V159.771z"/>

<path d="M297.506,218.673l-4.906,6.977c-3.258,4.631-31.832,45.778-31.832,64.124c0,20.258,16.48,36.739,36.738,36.739    s36.74-16.481,36.74-36.739c0-18.346-28.574-59.493-31.832-64.124L297.506,218.673z M297.506,314.513    c-13.642,0-24.738-11.099-24.738-24.739c0-9.504,13.641-33.24,24.739-50.016c11.099,16.771,24.739,40.503,24.739,50.016    C322.246,303.414,311.147,314.513,297.506,314.513z"/>

<polygon points="215.254,263.396 227.254,263.396 227.254,201.459 256.209,201.459 256.209,189.459 215.254,189.459   "/>

<rect height="13.402" width="12" x="215.254" y="274.807"/>

</g>

</g>

</svg>