<?xml version="1.0" ?>

<!DOCTYPE svg  PUBLIC '-//W3C//DTD SVG 1.1//EN'  'http://www.w3.org/Graphics/SVG/1.1/DTD/svg11.dtd'>


<svg fill="#000000" width="800px" height="800px" viewBox="0 0 512 512" enable-background="new 0 0 512 512" id="Sliding_x5F_scale" version="1.1" xml:space="preserve" xmlns="http://www.w3.org/2000/svg" xmlns:xlink="http://www.w3.org/1999/xlink">

<g id="Sliding_x5F_scale_1_">

<path d="M262.021,212.339h211.823v40.94h-22.41v-11.755h-12v11.755h-21.463v-20.471h-12v20.471h-22.094v-11.755h-12v11.755h-22.094   v-20.471h-12v20.471h-22.252v-11.755h-12v11.755h-22.252v-20.471h-12v20.471h-19.54v-17.755h-132.67v17.755H103.5v-20.471h-12   v20.471H77.324v-10.201h-12v10.201H38.16v-40.94h78.909v17.613h132.67v-47.513h-9.657v-18.068h-39.938v18.068h-71.447h-11.627   h-1.841l0-53.979h-6c-6.404,0-12.17,3.186-15.048,8.313l-2.66,4.741c-2.183,3.891-4.26,8.976-6.172,15.115   c-4.163,13.356-6.271,27.569-6.266,42.241l0,1.469H75.77l0-1.469c0.005-14.672-2.103-28.885-6.266-42.241   c-1.914-6.142-3.991-11.227-6.172-15.114l-2.66-4.742c-2.877-5.127-8.643-8.313-15.048-8.313h-6l0,53.979H26.156v29.743h0.004   v41.099h-0.004v29.185l19.191,80.108c2.958,12.345,13.889,20.966,26.583,20.966h6v-82.079h-12v68.867   c-4.374-1.85-7.748-5.685-8.913-10.55l-18.861-78.729v-15.768h27.774v22.164h12v-22.166h39.139v17.758h0v100.501h6   c12.694,0,23.626-8.622,26.585-20.968l19.056-79.533h81.029v-17.758h236.104v-64.94H262.021V212.339z M212.144,176.371h15.938   v6.068h-15.938V176.371z M129.069,194.439h71.075h37.596v23.513h-108.67V194.439z M96.805,160.198   c1.664-5.34,3.407-9.65,5.181-12.812l1.242-2.215l0,49.268h13.469v5.77l-25.614,0.06l0-1.402   C91.078,185.407,93.003,172.397,96.805,160.198z M38.156,194.439h13.469l-0.001-49.269l1.243,2.216   c1.772,3.159,3.516,7.47,5.181,12.813c3.802,12.198,5.727,25.208,5.722,38.667l0,1.402l-25.614-0.06V194.439z M137.985,359.774   c-1.166,4.866-4.541,8.702-8.915,10.553v-69.812h23.113L137.985,359.774z M155.059,288.516H129.07v-5.479h27.301L155.059,288.516z    M237.74,271.037H129.07v-11.758h0v-11.755h108.67V271.037z"/>

</g>

</svg>