<?xml version="1.0" ?>

<!DOCTYPE svg  PUBLIC '-//W3C//DTD SVG 1.1//EN'  'http://www.w3.org/Graphics/SVG/1.1/DTD/svg11.dtd'>


<svg fill="#000000" width="800px" height="800px" viewBox="0 0 512 512" enable-background="new 0 0 512 512" id="Drill" version="1.1" xml:space="preserve" xmlns="http://www.w3.org/2000/svg" xmlns:xlink="http://www.w3.org/1999/xlink">

<g id="Drill_1_">

<g>

<path d="M433.445,258.493c8.406,0,15.245-6.839,15.245-15.245s-6.839-15.245-15.245-15.245c-8.405,0-15.244,6.839-15.244,15.245    S425.04,258.493,433.445,258.493z M433.445,240.003c1.789,0,3.245,1.456,3.245,3.245s-1.456,3.245-3.245,3.245    s-3.244-1.456-3.244-3.245S431.656,240.003,433.445,240.003z"/>

<path d="M146.404,159.271c3.457,5.261,9.402,8.747,16.153,8.747h30.862v-5.045h13.839v13.441h28.463v52.182h6.386v36.066h-6.386    v105.417h-7.831v12h7.831h42.851h7.66v-12h-7.66V264.662h-6.545v-26.854h103.314c1.889,0,3.77-0.046,5.639-0.129l4.221,44.044    l15.242-1.464l6.605,67.821l-24.904,24.772v35.724h110.463V121.794h-0.141c0.092-2.088,0.138-4.189,0.138-6.301v-6.001    l-143.263,0.026l-10.793-6.096h-78.521v8.808h-12.306h-12h-28.463v13.441h-13.839v-5.045h-30.862    c-5.28,0-10.069,2.133-13.561,5.578l-39.382,9.936c-1.328,0.335-2.473,1.042-3.374,1.975H19.393v12h90.72L146.404,159.271z     M263.067,370.079v-13.573h-12v13.573h-3.346v-93.417h3.346v68.48h12v-68.48h3.505v93.417H263.067z M260.027,264.662h-5.92    v-36.066h5.92v9.212V264.662z M399.266,268.316l-3.264,0.313l-3.072-32.058c1.074-0.153,2.146-0.317,3.211-0.498l2.178,22.365    L399.266,268.316z M468.784,266.238v-74.685c4.571-6.237,8.524-12.95,11.823-20.049v204.8h-11.823V270.467V266.238z     M475.604,151.205h-56.854v12h52.571c-3.051,7.225-6.803,13.965-11.187,20.143h-53.412c-24.186,0-44.212-18.151-47.171-41.546    h118.4C477.288,145.001,476.508,148.14,475.604,151.205z M456.784,262.01l-44.513,15.893l-2.018-20.714l-2.276-23.746    c18.478-5.118,35.169-14.641,48.807-28.029V262.01z M415.774,356.326h26.916v-12h-23.95l-5.27-54.109l43.313-15.465v101.553    h-61.095L415.774,356.326z M394.145,396.576v-8.271h86.463v8.271H394.145z M272.027,115.423h63.367l10.795,6.097l134.284-0.025    c-0.124,2.807-0.335,5.576-0.63,8.307H347.177v6c0,32.834,26.712,59.546,59.547,59.546h43.413    c-18.646,19.146-44.68,30.46-74.795,30.46H272.027v-9.212V115.423z M247.721,124.231h12.306v92.364h-12.306v-40.182V124.231z     M219.258,124.231h16.463v40.182h-16.463v-1.441v-37.3V124.231z M193.958,137.672h13.301v13.3h-13.301V137.672z M162.558,132.627    h18.862v23.391h-18.862c-4.039,0-7.326-3.286-7.326-7.326v-8.74C155.232,135.913,158.519,132.627,162.558,132.627z     M143.232,140.035v6.061l-12.009-3.03L143.232,140.035z"/>

<rect height="12" width="45.459" x="282.043" y="206.238"/>

<rect height="12" width="45.459" x="282.043" y="168.83"/>

<rect height="12" width="45.459" x="282.043" y="187.534"/>

<rect height="12" width="19.554" x="386.257" y="151.205"/>

</g>

</g>

</svg>