<?xml version="1.0" ?>

<!DOCTYPE svg  PUBLIC '-//W3C//DTD SVG 1.1//EN'  'http://www.w3.org/Graphics/SVG/1.1/DTD/svg11.dtd'>


<svg fill="#000000" width="800px" height="800px" viewBox="0 0 512 512" enable-background="new 0 0 512 512" id="Hammer" version="1.1" xml:space="preserve" xmlns="http://www.w3.org/2000/svg" xmlns:xlink="http://www.w3.org/1999/xlink">

<g id="Hammer_1_">

<g>

<path d="M183.485,110.61h22.548v20.224h15.08v23.784v12v23.988v120.281v135.287c0,15.271,12.425,27.696,27.696,27.696h1.019    c15.271,0,27.695-12.425,27.695-27.696V310.887v-80.659v-0.001h-12v0.001v68.659h-32.41v-96.281h32.41v8.68v6.156h12v-6.156    v-20.68v-23.988v-12v-23.784h12.443V93.159c13.637-1.17,51.588-3.126,85.59,7.133c3.827,1.154,7.89-0.612,9.654-4.204    c1.764-3.59,0.685-7.884-2.57-10.21l-9.951-7.116c-31.33-22.405-90.688-40.632-132.316-40.632h-34.34v16.396h-22.548V44.135    h-57.538v74.457h57.538V110.61z M265.523,310.887v135.287c0,8.654-7.04,15.696-15.695,15.696h-1.019    c-8.655,0-15.696-7.042-15.696-15.696V310.887H265.523z M265.523,190.606h-32.41v-23.988h32.41V190.606z M265.523,154.618h-32.41    v-23.784h32.41V154.618z M358.849,83.99c-38.126-6.94-73.899-2.433-75.659-2.203l-5.223,0.682v36.366h-0.443h-40.995V50.13h3.845    C276.354,50.13,328.265,65.221,358.849,83.99z M218.033,50.13h6.495v68.705h-3.415h-3.077V68.186h-0.003v-13.66V50.13z     M206.033,66.525V98.61h-22.548V66.525H206.033z M137.947,56.135h33.538v50.457h-33.538V56.135z"/>

<rect height="66.294" width="12" x="243.318" y="368.971"/>

<rect height="22.652" width="12" x="243.318" y="333.93"/>

</g>

</g>

</svg>