<?xml version="1.0" ?>

<!DOCTYPE svg  PUBLIC '-//W3C//DTD SVG 1.1//EN'  'http://www.w3.org/Graphics/SVG/1.1/DTD/svg11.dtd'>


<svg fill="#000000" width="800px" height="800px" viewBox="0 0 512 512" enable-background="new 0 0 512 512" version="1.1" xml:space="preserve" xmlns="http://www.w3.org/2000/svg" xmlns:xlink="http://www.w3.org/1999/xlink">

<g id="Layer_1">

<g id="Layer_1_1_">

<g id="Concrete_x5F_mixer_x5F_truck"/>

</g>

</g>

<g id="Concrete_x5F_mixer">

<g id="Concrete_x5F_mixer_1_">

<g>

<path d="M326.676,326.367c-10.988,0-19.929,8.941-19.929,19.93s8.94,19.928,19.929,19.928c10.989,0,19.93-8.939,19.93-19.928     S337.665,326.367,326.676,326.367z M326.676,354.225c-4.372,0-7.929-3.557-7.929-7.928c0-4.373,3.557-7.93,7.929-7.93     s7.93,3.557,7.93,7.93C334.605,350.668,331.048,354.225,326.676,354.225z"/>

<path d="M108.591,326.367c-10.988,0-19.929,8.941-19.929,19.93s8.94,19.928,19.929,19.928s19.929-8.939,19.929-19.928     S119.579,326.367,108.591,326.367z M108.591,354.225c-4.372,0-7.929-3.557-7.929-7.928c0-4.373,3.557-7.93,7.929-7.93     s7.929,3.557,7.929,7.93C116.52,350.668,112.963,354.225,108.591,354.225z"/>

<path d="M387.605,326.367c-10.989,0-19.93,8.941-19.93,19.93s8.94,19.928,19.93,19.928c10.988,0,19.929-8.939,19.929-19.928     S398.594,326.367,387.605,326.367z M387.605,354.225c-4.372,0-7.93-3.557-7.93-7.928c0-4.373,3.558-7.93,7.93-7.93     s7.929,3.557,7.929,7.93C395.534,350.668,391.978,354.225,387.605,354.225z"/>

<path d="M114.591,185.52H74.218L56.16,227.157v15.678h58.431V185.52z M102.591,230.834H68.16v-1.187l13.933-32.128h20.498     V230.834z"/>

<rect height="12" width="26.407" x="87.542" y="247.866"/>

<path d="M480.49,147.901h-14.416v11.84l-10.656-30.502l-135.072,4.479l-104.675,64.23c-4.983-3.815-11.206-6.09-17.953-6.09     c-6.585,0-12.674,2.165-17.596,5.816V166.21H62.068l-27.131,62.168v53.766H19.51v48.416h11.128v24.578h42.579     c3.963,15.848,18.316,27.623,35.374,27.623c17.057,0,31.411-11.775,35.374-27.621h18.722v-0.006h128.617     c3.962,15.85,18.316,27.627,35.375,27.627c12.723,0,23.938-6.555,30.465-16.459c6.526,9.904,17.742,16.459,30.465,16.459     c19.149,0,34.886-14.842,36.343-33.623h0.121v-49.156v-6v-14.906l5.081-3.799h47.67v-35.631l15.667-11.71v-74.035v-6v-12.52h-12     V147.901z M412.072,319.281c-6.475-5.869-15.059-9.449-24.464-9.449c-12.723,0-23.938,6.555-30.465,16.459     c-6.526-9.904-17.742-16.459-30.465-16.459c-9.405,0-17.99,3.58-24.464,9.449v-13.299h109.857V319.281z M222.092,238.216     l17.758,50.825v12.914h-38.473v-51.138C209.955,249.753,217.404,245.011,222.092,238.216z M290.215,322.605H180.122v-8.65     h110.093V322.605z M189.377,301.955h-9.255v-56.72c2.757,2.046,5.883,3.619,9.255,4.611V301.955z M157.437,322.607     c-2.401-4.971-5.539-9.48-9.388-13.424c-9.543-9.799-22.384-15.195-36.158-15.195h-5.59l9.162-8.291h52.659v36.91H157.437z      M162.313,339.305c-0.188-1.578-0.47-3.143-0.798-4.697h18.607v-0.002h15.842v8.529h-33.353     C162.552,341.854,162.462,340.572,162.313,339.305z M207.964,334.605h33.277v8.529h-33.277V334.605z M253.241,334.605h36.974     v8.529h-36.974V334.605z M367.676,293.982h-77.461v7.973H251.85v-8.676l119.153-15.797l95.071-70.461v4.16l-98.398,73.967     V293.982z M258.589,185.691l60.334-37.021l5.449,15.596l11.328-3.959l-5.213-14.919l98.794-3.275l21.438,61.354l-79.383,58.834     l-32.575-93.235l-11.328,3.96l32.768,93.785l-70.024,9.283l-6.11-17.486l-11.328,3.957l5.289,15.141l-3.483,0.461l-29.422-84.21     l3.001-1.842l20.704,59.258l11.328-3.959L258.589,185.691z M464.783,192.428c0.102,0.291,0.004,0.611-0.244,0.795l-3.724,2.76     l-18.968-54.288l5.15-0.171L464.783,192.428z M234.654,200.377l27.74,79.4l-12.491,1.654l-23.495-67.246     c-0.422-1.661-0.988-3.265-1.678-4.802l-0.84-2.402L234.654,200.377z M197.718,203.858c7.029,0,13.092,4.153,15.908,10.127     l1.208,3.459c0.303,1.291,0.479,2.629,0.479,4.012c0,9.701-7.894,17.596-17.596,17.596c-9.696,0-17.585-7.884-17.596-17.577     v-0.038C180.133,211.742,188.021,203.858,197.718,203.858z M46.938,230.882l22.986-52.672h98.198v7.31H123.71v12h44.412v23.896     c0,0.013-0.001,0.025-0.001,0.039c0,0.013,0.001,0.025,0.001,0.038v52.204H110.84l-35.024,31.695H46.939v-23.248h-0.002V230.882z      M31.51,294.145h3.428v24.416H31.51V294.145z M42.638,334.605h31.423c-0.922,2.717-1.533,5.574-1.788,8.533H42.638V334.605z      M108.591,370.762c-13.489,0-24.464-10.975-24.464-24.465s10.975-24.465,24.464-24.465c13.49,0,24.465,10.975,24.465,24.465     S122.081,370.762,108.591,370.762z M144.91,343.141c-1.606-18.633-17.277-33.309-36.319-33.309     c-10.809,0-20.528,4.732-27.212,12.227H46.939v-4.666h33.499l12.603-11.404h18.85c10.509,0,20.297,4.107,27.565,11.572     c3.684,3.775,6.534,8.223,8.472,13.213c1.234,3.191,2.064,6.537,2.468,9.939c0.095,0.803,0.167,1.613,0.215,2.428H144.91z      M326.679,370.762c-13.489,0-24.464-10.975-24.464-24.465s10.975-24.465,24.464-24.465c13.49,0,24.465,10.975,24.465,24.465     S340.169,370.762,326.679,370.762z M387.608,370.762c-13.49,0-24.465-10.975-24.465-24.465s10.975-24.465,24.465-24.465     c13.489,0,24.464,10.975,24.464,24.465S401.098,370.762,387.608,370.762z M464.823,263.277h-19.616l19.616-14.662V263.277z      M480.49,221.923l-68.418,51.141v20.918h-32.396v-2.842l98.398-73.967v-57.272h2.416V221.923z"/>

</g>

</g>

</g>

</svg>