<?xml version="1.0" ?>

<!DOCTYPE svg  PUBLIC '-//W3C//DTD SVG 1.1//EN'  'http://www.w3.org/Graphics/SVG/1.1/DTD/svg11.dtd'>


<svg fill="#000000" width="800px" height="800px" viewBox="0 0 512 512" enable-background="new 0 0 512 512" id="Screwdriver" version="1.1" xml:space="preserve" xmlns="http://www.w3.org/2000/svg" xmlns:xlink="http://www.w3.org/1999/xlink">

<g>

<path d="M351.45,166.272V71.474c0-23.322-18.974-42.296-42.296-42.296s-42.296,18.974-42.296,42.296v143.845H255.51v12h11.349   h8.832v22h18.093v167.69h-8.914v65.813h47.988v-65.84l-8.332-0.032V249.32h18.093v-22h8.832h10.767v-12H351.45v-37.614h-12v18.156   h-13.4V46.339c8.077,5.447,13.4,14.681,13.4,25.135v94.798H351.45z M312.525,400.232h-6.742v-4.281h6.742V400.232z    M320.857,470.822h-23.988V429.01h8.914v-16.777h6.742v16.672l8.332,0.031V470.822z M312.525,383.951h-6.742V249.32h6.742V383.951z    M330.618,237.32h-6.093h-30.742h-6.093v-10h42.928V237.32z M339.45,215.319h-60.592v-7.458h60.592V215.319z M314.05,195.861   h-10.373v-86.753h-12v86.753h-12.818V71.474c0-10.199,5.071-19.23,12.818-24.723V94.24h12V41.684   c1.778-0.326,3.606-0.505,5.478-0.505c1.667,0,3.301,0.141,4.896,0.401V195.861z"/>

<path d="M160.55,345.238v94.797c0,23.322,18.974,42.297,42.296,42.297s42.296-18.975,42.296-42.297V296.19h11.349v-12h-11.349   h-8.832v-22.001h-17.223V90.332l8.368-17.785l-9.545-43.368h-28.25l-10.93,43.723l9.614,17.696v171.592h-18.962v22.001h-8.832   h-10.767v12h10.767v37.614h12v-18.156h13.4V465.17c-8.077-5.447-13.4-14.68-13.4-25.135v-94.797H160.55z M200.344,111.767h6.743   v4.282h-6.743V111.767z M199.029,41.178h9.235l6.594,29.957l-7.771,16.514v12.118h-6.743V87.548l-8.839-16.271L199.029,41.178z    M200.344,128.049h6.743v134.14h-6.743V128.049z M181.382,274.189h6.962v0.49h30.743v-0.49h5.223v10.001h-42.928V274.189z    M172.55,296.19h60.592v7.458H172.55V296.19z M197.95,315.648h10.373v86.754h12v-86.754h12.818v124.387   c0,10.199-5.071,19.23-12.818,24.724V417.27h-12v52.557c-1.778,0.326-3.607,0.506-5.478,0.506c-1.667,0-3.301-0.142-4.896-0.402   V315.648z"/>

</g>

</svg>