<?xml version="1.0" encoding="utf-8"?>
<svg width="800px" height="800px" viewBox="0 0 64 64" xmlns="http://www.w3.org/2000/svg">
  <g fill="none" fill-rule="evenodd">
    <path fill="#BD7575" d="M10,22.9905507 C10,14.1592134 17.1672873,7 26.0094779,7 L37.9905221,7 C46.8323126,7 54,14.1621582 54,22.9905507 L54,59 L10,59 L10,22.9905507 Z"/>
    <polygon fill="#9C4D4D" points="32 5 57 21 32 17.43 7 21" transform="matrix(1 0 0 -1 0 26)"/>
    <path fill="#9C4D4D" d="M14 42C14 43.6568542 15.3431458 45 17 45 18.6568542 45 20 43.6568542 20 42L14 42zM26 42C26 43.6568542 27.3431458 45 29 45 30.6568542 45 32 43.6568542 32 42L26 42zM38 42C38 43.6568542 39.3431458 45 41 45 42.6568542 45 44 43.6568542 44 42L38 42z"/>
    <path fill="#FFAF40" d="M20 42C20 43.6568542 21.3431458 45 23 45 24.6568542 45 26 43.6568542 26 42L20 42zM32 42C32 43.6568542 33.3431458 45 35 45 36.6568542 45 38 43.6568542 38 42L32 42zM44 42C44 43.6568542 45.3431458 45 47 45 48.6568542 45 50 43.6568542 50 42L44 42z"/>
    <path fill="#9C4D4D" d="M20 47C20 48.6568542 21.3431458 50 23 50 24.6568542 50 26 48.6568542 26 47L20 47zM32 47C32 48.6568542 33.3431458 50 35 50 36.6568542 50 38 48.6568542 38 47L32 47zM44 47C44 48.6568542 45.3431458 50 47 50 48.6568542 50 50 48.6568542 50 47L44 47z"/>
    <path fill="#FFAF40" d="M26 47C26 48.6568542 27.3431458 50 29 50 30.6568542 50 32 48.6568542 32 47L26 47zM38 47C38 48.6568542 39.3431458 50 41 50 42.6568542 50 44 48.6568542 44 47L38 47zM14 47C14 48.6568542 15.3431458 50 17 50 18.6568542 50 20 48.6568542 20 47L14 47zM32 29.1941843L37 33C37 33 33.6027595 34.3038534 32 34.3038534 30.3972405 34.3038534 27 33 27 33L32 29.1941843z"/>
    <circle cx="22" cy="25" r="6" fill="#FFAF40" stroke="#0A3586" stroke-linecap="round" stroke-width="2"/>
    <circle cx="22" cy="25" r="2" fill="#0A3586"/>
    <circle cx="42" cy="25" r="6" fill="#FFAF40" stroke="#0A3586" stroke-linecap="round" stroke-width="2"/>
    <circle cx="42" cy="25" r="2" fill="#0A3586"/>
  </g>
</svg>