<?xml version="1.0" ?>


<svg width="800px" height="800px" viewBox="0 0 20 20" version="1.1" xmlns="http://www.w3.org/2000/svg">

<g id="layer1">

<path d="M 9.3378906 0.005859375 L 9.0136719 0.046875 L 8.6992188 0.1328125 L 8.3964844 0.2578125 L 8.1132812 0.41992188 L 7.8554688 0.61914062 L 7.6210938 0.84960938 L 7.4238281 1.1074219 L 7.2597656 1.390625 L 7.1347656 1.6914062 L 7.0488281 2.0078125 L 7.0058594 2.3300781 L 7.0058594 2.65625 L 7.046875 2.9804688 L 7.1308594 3.296875 L 7.2539062 3.5996094 L 7.4160156 3.8828125 L 7.6132812 4.140625 L 7.8457031 4.3730469 L 8.1015625 4.5722656 L 8.3847656 4.7382812 L 8.6855469 4.8632812 L 9.0019531 4.9511719 L 9.0019531 9 L 7.0019531 9 L 7.0019531 10 L 9.0019531 10 L 9.0019531 18.986328 L 8.3769531 18.9375 L 7.7558594 18.845703 L 7.1425781 18.71875 L 6.5390625 18.550781 L 5.9472656 18.345703 L 5.3671875 18.105469 L 4.8066406 17.828125 L 4.2636719 17.519531 L 3.7402344 17.173828 L 3.2382812 16.796875 L 2.7617188 16.390625 L 2.3125 15.953125 L 1.890625 15.488281 L 1.5 15 L 5 15 L 4 14 L 0 14 L 0 18 L 1 19 L 1 15.982422 L 1.4570312 16.503906 L 1.9472656 16.996094 L 2.4648438 17.457031 L 3.0136719 17.882812 L 3.5839844 18.275391 L 4.1816406 18.628906 L 4.8007812 18.945312 L 5.4355469 19.222656 L 6.0878906 19.457031 L 6.7539062 19.652344 L 7.4316406 19.802734 L 8.1152344 19.912109 L 8.8066406 19.978516 L 9.5 20 L 10.193359 19.978516 L 10.882812 19.912109 L 11.570312 19.802734 L 12.246094 19.652344 L 12.914062 19.457031 L 13.564453 19.222656 L 14.201172 18.945312 L 14.820312 18.628906 L 15.414062 18.275391 L 15.988281 17.882812 L 16.535156 17.457031 L 17.054688 16.996094 L 17.544922 16.503906 L 18 15.982422 L 18 19 L 19.001953 18 L 19.001953 14 L 15.001953 14 L 14 15 L 17.5 15 L 17.109375 15.488281 L 16.689453 15.953125 L 16.238281 16.390625 L 15.763672 16.796875 L 15.261719 17.173828 L 14.738281 17.519531 L 14.195312 17.828125 L 13.632812 18.105469 L 13.054688 18.345703 L 12.460938 18.550781 L 11.859375 18.71875 L 11.246094 18.845703 L 10.625 18.9375 L 10 18.986328 L 10 10 L 12 10 L 12 9 L 10 9 L 10 4.9511719 L 10.314453 4.8632812 L 10.617188 4.7382812 L 10.898438 4.5722656 L 11.15625 4.3730469 L 11.386719 4.140625 L 11.583984 3.8828125 L 11.748047 3.5996094 L 11.871094 3.296875 L 11.955078 2.9804688 L 11.996094 2.65625 L 11.994141 2.3300781 L 11.951172 2.0078125 L 11.867188 1.6914062 L 11.742188 1.390625 L 11.576172 1.1074219 L 11.376953 0.84960938 L 11.146484 0.61914062 L 10.886719 0.41992188 L 10.605469 0.2578125 L 10.302734 0.1328125 L 9.9882812 0.046875 L 9.6640625 0.005859375 L 9.3378906 0.005859375 z M 9.5644531 1.0019531 L 9.8164062 1.0351562 L 10.060547 1.1074219 L 10.287109 1.2226562 L 10.492188 1.375 L 10.666016 1.5585938 L 10.810547 1.7695312 L 10.916016 2.0019531 L 10.978516 2.2460938 L 11.001953 2.5019531 L 10.978516 2.7539062 L 10.916016 3 L 10.810547 3.2304688 L 10.666016 3.4414062 L 10.492188 3.6269531 L 10.287109 3.7792969 L 10.060547 3.8925781 L 9.8164062 3.9667969 L 9.5644531 4 L 9.3085938 3.9882812 L 9.0605469 3.9355469 L 8.8242188 3.8398438 L 8.609375 3.7070312 L 8.4179688 3.5371094 L 8.2558594 3.3417969 L 8.1328125 3.1171875 L 8.046875 2.8789062 L 8.0058594 2.6289062 L 8.0058594 2.3730469 L 8.046875 2.1230469 L 8.1328125 1.8828125 L 8.2558594 1.6621094 L 8.4179688 1.4628906 L 8.609375 1.2949219 L 8.8242188 1.1621094 L 9.0605469 1.0664062 L 9.3085938 1.0136719 L 9.5644531 1.0019531 z " style="fill:#222222; fill-opacity:1; stroke:none; stroke-width:0px;"/>

</g>

</svg>