<?xml version="1.0" ?>
<svg width="800px" height="800px" viewBox="0 0 24 24" fill="none" xmlns="http://www.w3.org/2000/svg"><path clip-rule="evenodd" d="M21 12.5C21.2761 12.5 21.5 12.2761 21.5 12C21.5 11.7239 21.2761 11.5 21 11.5H3C2.72386 11.5 2.5 11.7239 2.5 12C2.5 12.2761 2.72386 12.5 3 12.5H21ZM19.2906 3.40687C19.4675 3.28053 19.5425 3.0544 19.4761 2.84741C19.4098 2.64042 19.2174 2.5 19 2.5H5C4.78264 2.5 4.59019 2.64042 4.52385 2.84741C4.45752 3.0544 4.53251 3.28053 4.70938 3.40687L11.7094 8.40687C11.8832 8.53104 12.1168 8.53104 12.2906 8.40687L19.2906 3.40687ZM19 21.5C19.2174 21.5 19.4098 21.3596 19.4761 21.1526C19.5425 20.9456 19.4675 20.7195 19.2906 20.5931L12.2906 15.5931C12.1168 15.469 11.8832 15.469 11.7094 15.5931L4.70938 20.5931C4.53251 20.7195 4.45752 20.9456 4.52385 21.1526C4.59019 21.3596 4.78264 21.5 5 21.5H19Z" fill="#000000" fill-rule="evenodd"/></svg>