<?xml version="1.0" ?>
<svg width="800px" height="800px" viewBox="0 0 24 24" fill="none" xmlns="http://www.w3.org/2000/svg"><path clip-rule="evenodd" d="M6 3.5C4.61929 3.5 3.5 4.61929 3.5 6C3.5 7.20948 4.35888 8.21836 5.5 8.44999V15.55C4.35888 15.7816 3.5 16.7905 3.5 18C3.5 19.3807 4.61929 20.5 6 20.5C7.20948 20.5 8.21836 19.6411 8.44999 18.5H15.55C15.7816 19.6411 16.7905 20.5 18 20.5C19.3807 20.5 20.5 19.3807 20.5 18C20.5 16.7905 19.6411 15.7816 18.5 15.55V8.44999C19.6411 8.21836 20.5 7.20948 20.5 6C20.5 4.61929 19.3807 3.5 18 3.5C16.7905 3.5 15.7816 4.35888 15.55 5.5H8.44999C8.21836 4.35888 7.20948 3.5 6 3.5ZM6.5 15.55V8.44999C7.47957 8.25115 8.25115 7.47957 8.44999 6.5H15.55C15.7488 7.47957 16.5204 8.25115 17.5 8.44999V15.55C16.5204 15.7488 15.7488 16.5204 15.55 17.5H8.44999C8.25115 16.5204 7.47957 15.7488 6.5 15.55Z" fill="#000000" fill-rule="evenodd"/></svg>