<?xml version="1.0" ?>
<svg fill="#000000" width="800px" height="800px" viewBox="0 0 64 64" data-name="Material Expand" id="Material_Expand" xmlns="http://www.w3.org/2000/svg"><rect height="4" width="4" x="10" y="42"/><rect height="4" width="4" x="30" y="22"/><rect height="4" width="10" x="27" y="30"/><rect height="4" width="4" x="50" y="42"/><rect height="4" width="4" x="10" y="10"/><rect height="4" width="4" x="50" y="10"/><path d="M60,2H4A2,2,0,0,0,2,4V52a2,2,0,0,0,2,2H6v6a2,2,0,0,0,2,2h9a2,2,0,0,0,1.984-1.752L19.765,54h24.47l.781,6.248A2,2,0,0,0,47,62h9a2,2,0,0,0,2-2V54h2a2,2,0,0,0,2-2V4A2,2,0,0,0,60,2ZM15.234,58H10V54h5.735ZM54,58H48.766l-.5-4H54Zm4-8H6V6H58Z"/><path d="M32,45A17,17,0,1,0,15,28,17.019,17.019,0,0,0,32,45Zm0-30A13,13,0,1,1,19,28,13.015,13.015,0,0,1,32,15Z"/></svg>