<?xml version="1.0" ?>
<svg fill="#000000" width="800px" height="800px" viewBox="0 0 64 64" data-name="Material Expand" id="Material_Expand" xmlns="http://www.w3.org/2000/svg"><path d="M44,2H20a2,2,0,0,0-2,2V15H15a2,2,0,0,0-1.994,2.153l3,39A2,2,0,0,0,18,58h8v4h4V58h4v4h4V58h8a2,2,0,0,0,1.994-1.847l3-39A2,2,0,0,0,49,15H46V4A2,2,0,0,0,44,2ZM22,6H42v9H38V10H34v5H30V10H26v5H22ZM44.148,54h-24.3L17.16,19H46.84Z"/><path d="M30,45.908V50h4V40.908l7.317-6.4A2,2,0,0,0,42,33V26H38v6.092l-4,3.5V23H30V40.592l-4-3.5V31H22v7a2,2,0,0,0,.683,1.505Z"/></svg>