<?xml version="1.0" ?>
<svg fill="#000000" width="800px" height="800px" viewBox="0 0 64 64" data-name="Material Expand" id="Material_Expand" xmlns="http://www.w3.org/2000/svg"><path d="M50,16a11.891,11.891,0,0,0-4.149.74,16.992,16.992,0,0,0-33.59-.614A12,12,0,0,0,14,40h4V36H14a8,8,0,0,1-.052-16l.1,0a2,2,0,0,0,2-1.868A12.991,12.991,0,0,1,42,19c0,.249-.019.5-.036.74l-.012.18a2,2,0,0,0,3.209,1.724A7.907,7.907,0,0,1,50,20a8,8,0,0,1,0,16H44v4h6a12,12,0,0,0,0-24Z"/><path d="M12,49a2,2,0,0,0-2,2v9a2,2,0,0,0,2,2H52a2,2,0,0,0,2-2V51a2,2,0,0,0-2-2H34V40.908l7.317-6.4A2,2,0,0,0,42,33V26H38v6.093l-4,3.5V23H30V40.593l-4-3.5V31H22v7a2,2,0,0,0,.683,1.505L30,45.908V49Zm38,9H14V53H50Z"/></svg>