<?xml version="1.0" ?>
<svg fill="#000000" width="800px" height="800px" viewBox="0 0 64 64" data-name="Material Expand" id="Material_Expand" xmlns="http://www.w3.org/2000/svg"><path d="M60,38H38.94l-.82-27.062a6.123,6.123,0,0,0-12.24,0L25.06,38H4a2,2,0,0,0-2,2V56a2,2,0,0,0,2,2H6v4h4V58H54v4h4V58h2a2,2,0,0,0,2-2V40A2,2,0,0,0,60,38ZM32,9a2.113,2.113,0,0,1,2.122,2.059L34.211,14H29.789l.089-2.941A2.113,2.113,0,0,1,32,9Zm-2.332,9h4.664l.606,20H29.062ZM14,42H26v4H14ZM58,54H6V42h4v6a2,2,0,0,0,2,2H28a2,2,0,0,0,2-2V42H58Z"/><rect height="4" width="4" x="34" y="46"/><rect height="4" width="4" x="42" y="46"/><rect height="20" width="4" x="2" y="6"/><rect height="12" width="4" x="10" y="10"/><rect height="4" width="4" x="18" y="14"/><rect height="20" width="4" x="58" y="6"/><rect height="12" width="4" x="50" y="10"/><rect height="4" width="4" x="42" y="14"/></svg>