<?xml version="1.0" ?>
<svg fill="#000000" width="800px" height="800px" viewBox="0 0 64 64" data-name="Material Expand" id="Material_Expand" xmlns="http://www.w3.org/2000/svg"><path d="M4,22H25a2,2,0,0,0,2-2V8a2,2,0,0,0-2-2H14.236L12.789,3.105A2,2,0,0,0,11,2H4A2,2,0,0,0,2,4V20A2,2,0,0,0,4,22ZM6,6H9.764L11.211,8.9A2,2,0,0,0,13,10H23v8H6Z"/><path d="M60,6H49.236L47.789,3.105A2,2,0,0,0,46,2H39a2,2,0,0,0-2,2V20a2,2,0,0,0,2,2H60a2,2,0,0,0,2-2V8A2,2,0,0,0,60,6ZM58,18H41V6h3.764L46.211,8.9A2,2,0,0,0,48,10H58Z"/><path d="M25,46H14.236l-1.447-2.9A2,2,0,0,0,11,42H4a2,2,0,0,0-2,2V60a2,2,0,0,0,2,2H25a2,2,0,0,0,2-2V48A2,2,0,0,0,25,46ZM23,58H6V46H9.764l1.447,2.9A2,2,0,0,0,13,50H23Z"/><path d="M60,46H49.236l-1.447-2.9A2,2,0,0,0,46,42H39a2,2,0,0,0-2,2V60a2,2,0,0,0,2,2H60a2,2,0,0,0,2-2V48A2,2,0,0,0,60,46ZM58,58H41V46h3.764l1.447,2.9A2,2,0,0,0,48,50H58Z"/><polygon points="51 38 51 26 47 26 47 30 17 30 17 26 13 26 13 38 17 38 17 34 47 34 47 38 51 38"/></svg>