<?xml version="1.0" encoding="utf-8"?>


<svg version="1.1" id="Icons" xmlns="http://www.w3.org/2000/svg" xmlns:xlink="http://www.w3.org/1999/xlink" 
	 viewBox="0 0 32 32" xml:space="preserve">
<style type="text/css">
	.st0{fill:none;stroke:#000000;stroke-width:2;stroke-linecap:round;stroke-linejoin:round;stroke-miterlimit:10;}
</style>
<circle class="st0" cx="14.8" cy="17" r="10.7"/>
<path class="st0" d="M20,7.6l0.8-0.8C21.7,6,23.1,6,24,6.8l1,1c0.9,0.9,0.9,2.2,0,3.1l-0.8,0.8"/>
<path class="st0" d="M25.9,8.7L23.1,6l1.4-1.4c0.7-0.7,1.9-0.7,2.7,0l0.1,0.1c0.7,0.7,0.7,1.9,0,2.7L25.9,8.7z"/>
<path class="st0" d="M7.2,9.4l2,2c1.8,1.8,4.1,3.1,6.6,3.8l0,0c2.5,0.7,4.8,2,6.6,3.8l2,2"/>
<path class="st0" d="M4.5,14.9l2,2c1.8,1.8,4.1,3.1,6.6,3.8l0,0c2.5,0.7,4.8,2,6.6,3.8l1.2,1.2"/>
</svg>