<?xml version="1.0" encoding="utf-8"?>


<svg version="1.1" id="Icons" xmlns="http://www.w3.org/2000/svg" xmlns:xlink="http://www.w3.org/1999/xlink" 
	 viewBox="0 0 32 32" xml:space="preserve">
<style type="text/css">
	.st0{fill:none;stroke:#000000;stroke-width:2;stroke-linecap:round;stroke-linejoin:round;stroke-miterlimit:10;}
</style>
<path class="st0" d="M15.3,5l-1.5,1.5c-0.8,0.8-1,2.1-0.3,3c0.8,1.2,2.5,1.3,3.5,0.3l1.5-1.5c0.8-0.8,2.1-1,3-0.3
	c1.2,0.8,1.3,2.5,0.3,3.5L7.4,26c-0.8,0.8-1,2.1-0.3,3c0.8,1.2,2.5,1.3,3.5,0.3L25,14.7c2.7-2.7,2.7-7,0-9.7l0,0
	C22.4,2.4,18,2.4,15.3,5z"/>
<line class="st0" x1="9.7" y1="23.6" x2="11.3" y2="28.5"/>
<line class="st0" x1="13.7" y1="19.6" x2="15.3" y2="24.4"/>
<line class="st0" x1="17.8" y1="15.5" x2="19.4" y2="20.4"/>
<path class="st0" d="M21.8,11.5L21.8,11.5c1,1,1.6,2.4,1.6,3.9l0,0.9"/>
<path class="st0" d="M22.6,9.1L22.9,9c1.3-0.4,2.8-0.1,3.8,0.9l0,0"/>
<path class="st0" d="M21.8,3.4L21.8,3.4c-1,1-1.3,2.5-0.9,3.8L21,7.5"/>
<path class="st0" d="M15.3,5L15.3,5c0.5,1.5,1.7,2.7,3.2,3.2l0,0"/>
</svg>