<?xml version="1.0" encoding="utf-8"?>


<svg version="1.1" id="Icons" xmlns="http://www.w3.org/2000/svg" xmlns:xlink="http://www.w3.org/1999/xlink" 
	 viewBox="0 0 32 32" xml:space="preserve">
<style type="text/css">
	.st0{fill:none;stroke:#000000;stroke-width:2;stroke-linecap:round;stroke-linejoin:round;stroke-miterlimit:10;}
</style>
<rect x="7" y="16" class="st0" width="18" height="14"/>
<path class="st0" d="M23,6.7c-0.2-1-1.1-1.7-2.1-1.7h-1.3c-2.1,0-4.2-0.4-6-1.5c-0.6-0.4-1.4-0.6-2.2-0.4c-1.2,0.2-2.1,1.2-2.3,2.4
	C8.7,7.3,10.2,9,12,9v2.5c0,0.8,0.7,1.5,1.5,1.5s1.5-0.7,1.5-1.5V9h6C22.2,9,23.2,7.9,23,6.7z"/>
<polyline class="st0" points="23,8 27,8 27,16 5,16 5,8 9,8 "/>
<polyline class="st0" points="7,23 18,23 18,16 "/>
<line class="st0" x1="25" y1="23" x2="18" y2="23"/>
<line class="st0" x1="15" y1="30" x2="15" y2="24"/>
</svg>