<?xml version="1.0" encoding="utf-8"?>


<svg version="1.1" id="Icons" xmlns="http://www.w3.org/2000/svg" xmlns:xlink="http://www.w3.org/1999/xlink" 
	 viewBox="0 0 32 32" xml:space="preserve">
<style type="text/css">
	.st0{fill:none;stroke:#000000;stroke-width:2;stroke-linecap:round;stroke-linejoin:round;stroke-miterlimit:10;}
</style>
<path class="st0" d="M24.6,5L25,6.6c0.1,0.5,0.6,0.9,1.1,1l1.7,0.2c1.2,0.1,1.6,1.7,0.6,2.4L27,11c-0.5,0.3-0.7,0.8-0.6,1.4l0.4,1.7
	c0.3,1.2-1.2,2.1-2.1,1.3l-1.3-1.1c-0.4-0.4-1-0.4-1.5-0.1l-1.5,0.9c-1.1,0.6-2.3-0.5-1.9-1.6l0.7-1.6c0.2-0.5,0.1-1.1-0.3-1.5
	l-1.3-1.1c-0.9-0.8-0.3-2.3,1-2.2l1.7,0.2c0.6,0,1.1-0.3,1.3-0.8l0.7-1.6C22.7,3.6,24.4,3.8,24.6,5z"/>
<path class="st0" d="M17,8.6c-5.4,1.9-10.4,4.8-14.6,8.6L2,17.5h0c1.9,0.3,3,2.3,2.2,4l-1.1,2.3l0,0C4.7,23.1,6.3,24.3,6,26
	l-0.4,1.7C5.6,28,6,28.1,6.2,27.8c2.6-5.6,7.4-10.1,13.4-12.6"/>
</svg>