<?xml version="1.0" encoding="utf-8"?>


<svg version="1.1" id="Icons" xmlns="http://www.w3.org/2000/svg" xmlns:xlink="http://www.w3.org/1999/xlink" 
	 viewBox="0 0 32 32" xml:space="preserve">
<style type="text/css">
	.st0{fill:none;stroke:#000000;stroke-width:2;stroke-linecap:round;stroke-linejoin:round;stroke-miterlimit:10;}
</style>
<path class="st0" d="M24.4,23.4c1.1-0.2,2.2-0.8,2.8-1.9s0.7-2.3,0.3-3.4c0.9-0.7,1.5-1.8,1.5-3.1s-0.6-2.4-1.5-3.1
	c0.4-1.1,0.4-2.3-0.3-3.4s-1.7-1.7-2.8-1.9c-0.2-1.1-0.8-2.2-1.9-2.8c-1.1-0.6-2.3-0.7-3.4-0.3C18.4,2.6,17.3,2,16,2
	c-1.3,0-2.4,0.6-3.1,1.5c-1.1-0.4-2.3-0.4-3.4,0.3C8.4,4.4,7.8,5.4,7.6,6.6C6.4,6.8,5.4,7.4,4.7,8.5c-0.6,1.1-0.7,2.3-0.3,3.4
	C3.6,12.6,3,13.7,3,15s0.6,2.4,1.5,3.1c-0.4,1.1-0.4,2.3,0.3,3.4c0.6,1.1,1.7,1.7,2.8,1.9"/>
<circle class="st0" cx="16" cy="6" r="0"/>
<circle class="st0" cx="8.2" cy="10.5" r="0"/>
<circle class="st0" cx="23.8" cy="10.5" r="0"/>
<circle class="st0" cx="16" cy="21" r="2"/>
<path class="st0" d="M14.4,19.8l-2.7-1.9c-1.1-0.8-2.7,0-2.7,1.4v3.3c0,1.4,1.6,2.2,2.7,1.4l2.7-1.9"/>
<path class="st0" d="M17.6,22.2l2.7,1.9c1.1,0.8,2.7,0,2.7-1.4v-3.3c0-1.4-1.6-2.2-2.7-1.4l-2.7,1.9"/>
<polyline class="st0" points="16.4,23 18.5,29.6 19.8,27.1 22.3,28.4 21,24.4 "/>
<polyline class="st0" points="11,24.4 9.7,28.4 12.2,27.1 13.5,29.6 15.6,23 "/>
<path class="st0" d="M12.3,18.4C11.5,17.5,11,16.3,11,15c0-2.8,2.2-5,5-5s5,2.2,5,5c0,1.3-0.5,2.5-1.3,3.4"/>
</svg>