<?xml version="1.0" encoding="utf-8"?>


<svg version="1.1" id="Icons" xmlns="http://www.w3.org/2000/svg" xmlns:xlink="http://www.w3.org/1999/xlink" 
	 viewBox="0 0 32 32" xml:space="preserve">
<style type="text/css">
	.st0{fill:none;stroke:#000000;stroke-width:2;stroke-linecap:round;stroke-linejoin:round;stroke-miterlimit:10;}
</style>
<path class="st0" d="M16,17L16,17c-1.7,0-3-1.3-3-3v-4c0-1.7,1.3-3,3-3h0c1.7,0,3,1.3,3,3v4C19,15.7,17.7,17,16,17z"/>
<path class="st0" d="M19.8,9.5c1.2,0.7,3.5,0.5,5.8-0.5c3-1.3,4.9-3.5,4.3-4.9s-3.5-1.4-6.5-0.1C20.9,5,19.2,6.7,19,8"/>
<path class="st0" d="M19,15c0,1,1.5,4,4,5.1c3,1.3,6.3,1.3,6.9-0.1c0.2-0.5,0-1.2-0.4-1.9c-0.8-1.4-1.6-3.2-1.7-4.8
	c-0.1-3.8,1.1-5.5,1.9-7.8"/>
<path class="st0" d="M12.2,9.5c-1.2,0.7-3.5,0.5-5.8-0.5c-3-1.3-4.9-3.5-4.3-4.9s3.5-1.4,6.5-0.1C11.1,5,12.8,6.7,13,8"/>
<path class="st0" d="M13,15c0,1-1.5,4-4,5.1c-3,1.3-6.3,1.3-6.9-0.1c-0.2-0.5,0-1.2,0.4-1.9c0.8-1.4,1.6-3.2,1.7-4.8
	c0.1-3.8-1.1-5.5-1.9-7.8"/>
<path class="st0" d="M10,19.5c-0.3,1.9-1.2,3.7-2.7,5.1L5,27l0.6-0.1c2.6-0.5,5.2,0.8,6.4,3.1l0,0l1.2-2.6c1.5-3.3,2.4-6.8,2.7-10.4
	"/>
<path class="st0" d="M21.8,19.5c0.3,1.9,1.2,3.7,2.7,5.1l2.4,2.4l-0.6-0.1c-2.6-0.5-5.2,0.8-6.4,3.1l0,0l-1.2-2.6
	c-1.5-3.3-2.4-6.8-2.7-10.4"/>
</svg>