<?xml version="1.0" encoding="utf-8"?>

<svg width="800px" height="800px" viewBox="0 0 1024 1024" class="icon"  version="1.1" xmlns="http://www.w3.org/2000/svg"><path d="M508 1006.1c-27.1 0-49.3-22.2-49.3-49.3V716.7c0-27.1 22.2-49.3 49.3-49.3 27.1 0 49.3 22.2 49.3 49.3v240.1c0 27.1-22.2 49.3-49.3 49.3z" fill="#E2BFA3" /><path d="M508 1010.1c-29.4 0-53.3-23.9-53.3-53.3V716.7c0-29.4 23.9-53.3 53.3-53.3s53.3 23.9 53.3 53.3v240.1c0 29.4-23.9 53.3-53.3 53.3z m0-338.7c-25 0-45.3 20.3-45.3 45.3v240.1c0 25 20.3 45.3 45.3 45.3 25 0 45.3-20.3 45.3-45.3V716.7c0-25-20.3-45.3-45.3-45.3z" fill="#49332E" /><path d="M596.6 772.2H419.4c-64.4 0-116.5-52.2-116.5-116.5V135.5C302.9 71.1 355.1 19 419.4 19h177.1C660.9 19 713 71.2 713 135.5v520.2c0.1 64.3-52.1 116.5-116.4 116.5z" fill="#442421" /><path d="M596.6 776.2H419.4c-66.5 0-120.5-54.1-120.5-120.5V135.5C298.9 69 353 14.9 419.4 14.9h177.1C663 14.9 717 69 717 135.4v520.2c0.1 66.5-54 120.6-120.4 120.6zM419.4 22.9c-62 0-112.5 50.5-112.5 112.5v520.2c0 62 50.5 112.5 112.5 112.5h177.1c62 0 112.5-50.5 112.5-112.5V135.5C709 73.5 658.5 23 596.5 23H419.4z" fill="#49332E" /><path d="M422.2 266.4c4.9 9 10.7 38.2 1.3 43.3-9.4 5.1-30.6-15.9-35.4-24.9-4.9-9-1.2-20.4 8.3-25.5 9.4-5.1 20.9-1.9 25.8 7.1z" fill="#C18761" /><path d="M397.5 265.9h22.8v33.6h-22.8z" fill="#F9DDCD" /><path d="M395.438459 289.950639a20.6 15.3 61.679 1 0 26.937288-14.516973 20.6 15.3 61.679 1 0-26.937288 14.516973Z" fill="#F9DDCD" /><path d="M396.582854 289.333905a18.9 14 61.679 1 0 24.648498-13.283505 18.9 14 61.679 1 0-24.648498 13.283505Z" fill="#F9DCCC" /><path d="M397.639218 288.764612a17.2 12.8 61.679 1 0 22.53577-12.144919 17.2 12.8 61.679 1 0-22.53577 12.144919Z" fill="#F9DBCA" /><path d="M398.783612 288.147878a15.5 11.5 61.679 1 0 20.246982-10.911451 15.5 11.5 61.679 1 0-20.246982 10.911451Z" fill="#F8DAC9" /><path d="M399.928007 287.531144a13.8 10.2 61.679 1 0 17.958192-9.677983 13.8 10.2 61.679 1 0-17.958192 9.677983Z" fill="#F8D9C8" /><path d="M401.072402 286.914409a12 8.9 61.679 1 0 15.669402-8.444513 12 8.9 61.679 1 0-15.669402 8.444513Z" fill="#F8D8C7" /><path d="M402.128766 286.345116a10.3 7.7 61.679 1 0 13.556674-7.305927 10.3 7.7 61.679 1 0-13.556674 7.305927Z" fill="#F8D7C6" /><path d="M403.27316 285.728382a8.6 6.4 61.679 1 0 11.267886-6.072459 8.6 6.4 61.679 1 0-11.267886 6.072459Z" fill="#F8D7C5" /><path d="M404.417555 285.111648a6.9 5.1 61.679 1 0 8.979096-4.838991 6.9 5.1 61.679 1 0-8.979096 4.838991Z" fill="#F7D6C3" /><path d="M405.56195 284.494914a5.2 3.8 61.679 1 0 6.690306-3.605523 5.2 3.8 61.679 1 0-6.690306 3.605523Z" fill="#F7D5C3" /><path d="M406.618314 283.925621a3.4 2.6 61.679 1 0 4.577578-2.466937 3.4 2.6 61.679 1 0-4.577578 2.466937Z" fill="#F7D4C2" /><path d="M407.762708 283.308887a1.7 1.3 61.679 1 0 2.28879-1.233469 1.7 1.3 61.679 1 0-2.28879 1.233469Z" fill="#F7D4C1" /><path d="M548.9 261.7c-1.9 10.1-15.5 36.5-26.1 34.6s-13.9-31.6-12-41.6 11.9-16.7 22.4-14.7c10.5 1.9 17.5 11.6 15.7 21.7z" fill="#C18761" /><path d="M519.9 248.6h16.9v34.9h-16.9z" fill="#F9DDCD" /><path d="M543.4 268.8c-2.1 11.2-10.5 19.1-18.8 17.5-4.2-0.8-7.5-3.7-9.6-7.9h3.8v-15.2h-5.6c2.1-11.2 10.5-19.1 18.8-17.5 4.2 0.8 7.5 3.7 9.6 7.9h-3.8v15.2h5.6z" fill="#F9DDCD" /><path d="M514.623085 263.574143a14 18.9 10.423 1 0 27.53797 5.065591 14 18.9 10.423 1 0-27.53797-5.065591Z" fill="#F9DCCC" /><path d="M515.803284 263.79124a12.8 17.2 10.423 1 0 25.177573 4.631397 12.8 17.2 10.423 1 0-25.177573-4.631397Z" fill="#F9DBCA" /><path d="M517.081833 264.026428a11.5 15.5 10.423 1 0 22.620475 4.161021 11.5 15.5 10.423 1 0-22.620475-4.161021Z" fill="#F8DAC9" /><path d="M518.360381 264.261616a10.2 13.8 10.423 1 0 20.063378 3.690645 10.2 13.8 10.423 1 0-20.063378-3.690645Z" fill="#F8D9C8" /><path d="M519.63893 264.496804a8.9 12 10.423 1 0 17.506281 3.220269 8.9 12 10.423 1 0-17.506281-3.220269Z" fill="#F8D8C7" /><path d="M520.819129 264.713901a7.7 10.3 10.423 1 0 15.145883 2.786075 7.7 10.3 10.423 1 0-15.145883-2.786075Z" fill="#F8D7C6" /><path d="M522.097677 264.949089a6.4 8.6 10.423 1 0 12.588787 2.315699 6.4 8.6 10.423 1 0-12.588787-2.315699Z" fill="#F8D7C5" /><path d="M523.376226 265.184277a5.1 6.9 10.423 1 0 10.031689 1.845323 5.1 6.9 10.423 1 0-10.031689-1.845323Z" fill="#F7D6C3" /><path d="M524.654774 265.419465a3.8 5.2 10.423 1 0 7.474592 1.374946 3.8 5.2 10.423 1 0-7.474592-1.374946Z" fill="#F7D5C3" /><path d="M525.834973 265.636562a2.6 3.4 10.423 1 0 5.114195 0.940753 2.6 3.4 10.423 1 0-5.114195-0.940753Z" fill="#F7D4C2" /><path d="M527.113522 265.87175a1.3 1.7 10.423 1 0 2.557097 0.470376 1.3 1.7 10.423 1 0-2.557097-0.470376Z" fill="#F7D4C1" /><path d="M618.7 403.3c-7.6 6.9-34.6 19.5-41.8 11.6-7.2-7.9 8.2-33.5 15.8-40.3 7.6-6.9 19.6-6 26.7 2 7.3 7.8 6.9 19.8-0.7 26.7z" fill="#C18761" /><path d="M584.6 380H615v28.5h-30.4z" fill="#F9DDCD" /><path d="M589.499273 382.950514a15.3 20.6 47.951 1 0 20.494837 22.722713 15.3 20.6 47.951 1 0-20.494837-22.722713Z" fill="#F9DDCD" /><path d="M590.369969 383.915858a14 18.9 47.951 1 0 18.753445 20.792025 14 18.9 47.951 1 0-18.753445-20.792025Z" fill="#F9DCCC" /><path d="M591.173688 384.806945a12.8 17.2 47.951 1 0 17.146007 19.009851 12.8 17.2 47.951 1 0-17.146007-19.009851Z" fill="#F9DBCA" /><path d="M592.044384 385.772289a11.5 15.5 47.951 1 0 15.404616 17.079163 11.5 15.5 47.951 1 0-15.404616-17.079163Z" fill="#F8DAC9" /><path d="M592.915079 386.737633a10.2 13.8 47.951 1 0 13.663225 15.148475 10.2 13.8 47.951 1 0-13.663225-15.148475Z" fill="#F8D9C8" /><path d="M593.785775 387.702977a8.9 12 47.951 1 0 11.921833 13.217787 8.9 12 47.951 1 0-11.921833-13.217787Z" fill="#F8D8C7" /><path d="M594.589494 388.594063a7.7 10.3 47.951 1 0 10.314395 11.435614 7.7 10.3 47.951 1 0-10.314395-11.435614Z" fill="#F8D7C6" /><path d="M595.46019 389.559407a6.4 8.6 47.951 1 0 8.573004 9.504926 6.4 8.6 47.951 1 0-8.573004-9.504926Z" fill="#F8D7C5" /><path d="M596.330886 390.524751a5.1 6.9 47.951 1 0 6.831612 7.574238 5.1 6.9 47.951 1 0-6.831612-7.574238Z" fill="#F7D6C3" /><path d="M597.201581 391.490095a3.8 5.2 47.951 1 0 5.090221 5.64355 3.8 5.2 47.951 1 0-5.090221-5.64355Z" fill="#F7D5C3" /><path d="M598.0053 392.381182a2.6 3.4 47.951 1 0 3.482783 3.861376 2.6 3.4 47.951 1 0-3.482783-3.861376Z" fill="#F7D4C2" /><path d="M598.875996 393.346526a1.3 1.7 47.951 1 0 1.741391 1.930688 1.3 1.7 47.951 1 0-1.741391-1.930688Z" fill="#F7D4C1" /><path d="M426.1 465.6c-7.6 6.9-34.6 19.5-41.8 11.6-7.2-7.9 8.2-33.5 15.8-40.3 7.6-6.9 19.6-6 26.7 2 7.2 7.8 6.9 19.8-0.7 26.7z" fill="#C18761" /><path d="M391.9 442.3h30.4v28.5h-30.4z" fill="#F9DDCD" /><path d="M396.88295 445.126356a15.3 20.6 47.951 1 0 20.494837 22.722712 15.3 20.6 47.951 1 0-20.494837-22.722712Z" fill="#F9DDCD" /><path d="M397.753646 446.0917a14 18.9 47.951 1 0 18.753446 20.792024 14 18.9 47.951 1 0-18.753446-20.792024Z" fill="#F9DCCC" /><path d="M398.557365 446.982786a12.8 17.2 47.951 1 0 17.146007 19.009851 12.8 17.2 47.951 1 0-17.146007-19.009851Z" fill="#F9DBCA" /><path d="M399.428061 447.94813a11.5 15.5 47.951 1 0 15.404616 17.079163 11.5 15.5 47.951 1 0-15.404616-17.079163Z" fill="#F8DAC9" /><path d="M400.298757 448.913474a10.2 13.8 47.951 1 0 13.663224 15.148475 10.2 13.8 47.951 1 0-13.663224-15.148475Z" fill="#F8D9C8" /><path d="M401.169452 449.878818a8.9 12 47.951 1 0 11.921833 13.217787 8.9 12 47.951 1 0-11.921833-13.217787Z" fill="#F8D8C7" /><path d="M401.973171 450.769905a7.7 10.3 47.951 1 0 10.314395 11.435614 7.7 10.3 47.951 1 0-10.314395-11.435614Z" fill="#F8D7C6" /><path d="M402.843867 451.735249a6.4 8.6 47.951 1 0 8.573004 9.504926 6.4 8.6 47.951 1 0-8.573004-9.504926Z" fill="#F8D7C5" /><path d="M403.714563 452.700593a5.1 6.9 47.951 1 0 6.831612 7.574238 5.1 6.9 47.951 1 0-6.831612-7.574238Z" fill="#F7D6C3" /><path d="M404.585258 453.665937a3.8 5.2 47.951 1 0 5.090221 5.64355 3.8 5.2 47.951 1 0-5.090221-5.64355Z" fill="#F7D5C3" /><path d="M405.388977 454.557024a2.6 3.4 47.951 1 0 3.482783 3.861376 2.6 3.4 47.951 1 0-3.482783-3.861376Z" fill="#F7D4C2" /><path d="M406.259673 455.522368a1.3 1.7 47.951 1 0 1.741391 1.930688 1.3 1.7 47.951 1 0-1.741391-1.930688Z" fill="#F7D4C1" /><path d="M504 559.1c-0.8 10.2-11.8 37.9-22.5 37-10.7-0.9-17-30-16.1-40.2 0.8-10.2 10.2-17.8 20.8-16.9s18.6 9.9 17.8 20.1z" fill="#C18761" /><path d="M476.4 548.2h15.2v34.6h-15.2z" fill="#F9DDCD" /><path d="M499.3 566.8c-0.9 11.4-8.5 20-17 19.3-4.2-0.3-7.8-3-10.3-6.9h3.4v-14.9h-6.7c0.9-11.4 8.5-20 17-19.3 4.2 0.3 7.8 3 10.3 6.9h-3.4v14.9h6.7z" fill="#F9DDCD" /><path d="MNaN NaNaNaN NaN NaN 1 0 NaN NaN NaN NaN NaN 1 0 NaN NaNZ" fill="#F9DCCC" /><path d="MNaN NaNaNaN NaN NaN 1 0 NaN NaN NaN NaN NaN 1 0 NaN NaNZ" fill="#F9DBCA" /><path d="MNaN NaNaNaN NaN NaN 1 0 NaN NaN NaN NaN NaN 1 0 NaN NaNZ" fill="#F8DAC9" /><path d="MNaN NaNaNaN NaN NaN 1 0 NaN NaN NaN NaN NaN 1 0 NaN NaNZ" fill="#F8D9C8" /><path d="MNaN NaNaNaN NaN NaN 1 0 NaN NaN NaN NaN NaN 1 0 NaN NaNZ" fill="#F8D8C7" /><path d="MNaN NaNaNaN NaN NaN 1 0 NaN NaN NaN NaN NaN 1 0 NaN NaNZ" fill="#F8D7C6" /><path d="MNaN NaNaNaN NaN NaN 1 0 NaN NaN NaN NaN NaN 1 0 NaN NaNZ" fill="#F8D7C5" /><path d="MNaN NaNaNaN NaN NaN 1 0 NaN NaN NaN NaN NaN 1 0 NaN NaNZ" fill="#F7D6C3" /><path d="MNaN NaNaNaN NaN NaN 1 0 NaN NaN NaN NaN NaN 1 0 NaN NaNZ" fill="#F7D5C3" /><path d="MNaN NaNaNaN NaN NaN 1 0 NaN NaN NaN NaN NaN 1 0 NaN NaNZ" fill="#F7D4C2" /><path d="MNaN NaNaNaN NaN NaN 1 0 NaN NaN NaN NaN NaN 1 0 NaN NaNZ" fill="#F7D4C1" /><path d="M560.4 681.5c-7.2 7.3-33.4 21.5-41 14-7.6-7.5 6.2-33.9 13.4-41.2 7.2-7.3 19.2-7.1 26.8 0.4 7.6 7.6 8 19.6 0.8 26.8z" fill="#C18761" /><path d="M526.3 658.8h29.4v29.6h-29.4z" fill="#F9DDCD" /><path d="M530.106846 662.882206a15.3 20.6 44.627 1 0 21.77787 21.496148 15.3 20.6 44.627 1 0-21.77787-21.496148Z" fill="#F9DDCD" /><path d="M531.03205 663.795441a14 18.9 44.627 1 0 19.927462 19.669678 14 18.9 44.627 1 0-19.927462-19.669678Z" fill="#F9DCCC" /><path d="M531.886084 664.638427a12.8 17.2 44.627 1 0 18.219394 17.983706 12.8 17.2 44.627 1 0-18.219394-17.983706Z" fill="#F9DBCA" /><path d="M532.811288 665.551662a11.5 15.5 44.627 1 0 16.368986 16.157236 11.5 15.5 44.627 1 0-16.368986-16.157236Z" fill="#F8DAC9" /><path d="M533.736491 666.464897a10.2 13.8 44.627 1 0 14.51858 14.330766 10.2 13.8 44.627 1 0-14.51858-14.330766Z" fill="#F8D9C8" /><path d="M534.661695 667.378132a8.9 12 44.627 1 0 12.668172 12.504296 8.9 12 44.627 1 0-12.668172-12.504296Z" fill="#F8D8C7" /><path d="M535.515729 668.221119a7.7 10.3 44.627 1 0 10.960104 10.818323 7.7 10.3 44.627 1 0-10.960104-10.818323Z" fill="#F8D7C6" /><path d="M536.440932 669.134354a6.4 8.6 44.627 1 0 9.109698 8.991853 6.4 8.6 44.627 1 0-9.109698-8.991853Z" fill="#F8D7C5" /><path d="M537.366136 670.047589a5.1 6.9 44.627 1 0 7.25929 7.165382 5.1 6.9 44.627 1 0-7.25929-7.165382Z" fill="#F7D6C3" /><path d="M538.29134 670.960824a3.8 5.2 44.627 1 0 5.408882 5.338912 3.8 5.2 44.627 1 0-5.408882-5.338912Z" fill="#F7D5C3" /><path d="M539.145374 671.80381a2.6 3.4 44.627 1 0 3.700814 3.65294 2.6 3.4 44.627 1 0-3.700814-3.65294Z" fill="#F7D4C2" /><path d="M540.070577 672.717045a1.3 1.7 44.627 1 0 1.850408 1.82647 1.3 1.7 44.627 1 0-1.850408-1.82647Z" fill="#F7D4C1" /><path d="M597.9 118.4c4.2 9.3 8.2 38.9-1.6 43.3s-29.5-17.9-33.7-27.2 0.2-20.5 9.9-24.9c9.8-4.4 21.1-0.5 25.4 8.8z" fill="#C18761" /><path d="M573.1 116.7h21v34.2h-21z" fill="#F9DDCD" /><path d="M595.1 127.4v15.1h4.4c-1 4.5-3.5 8.2-7.3 10-7.7 3.5-17.8-2.1-22.5-12.4h2.4V125h-4.4c1-4.5 3.5-8.2 7.3-10 7.7-3.5 17.8 2.1 22.5 12.4h-2.4z" fill="#F9DDCD" /><path d="M570.861486 139.570098a18.9 14 65.492 1 0 25.477294-11.614968 18.9 14 65.492 1 0-25.477294 11.614968Z" fill="#F9DCCC" /><path d="M571.95337 139.072313a17.2 12.8 65.492 1 0 23.293526-10.619399 17.2 12.8 65.492 1 0-23.293526 10.619399Z" fill="#F9DBCA" /><path d="M573.136245 138.533047a15.5 11.5 65.492 1 0 20.927777-9.540867 15.5 11.5 65.492 1 0-20.927777 9.540867Z" fill="#F8DAC9" /><path d="M574.319119 137.993781a13.8 10.2 65.492 1 0 18.562029-8.462334 13.8 10.2 65.492 1 0-18.562029 8.462334Z" fill="#F8D9C8" /><path d="M575.501993 137.454514a12 8.9 65.492 1 0 16.19628-7.383801 12 8.9 65.492 1 0-16.19628 7.383801Z" fill="#F8D8C7" /><path d="M576.593877 136.95673a10.3 7.7 65.492 1 0 14.012512-6.388233 10.3 7.7 65.492 1 0-14.012512 6.388233Z" fill="#F8D7C6" /><path d="M577.776752 136.417463a8.6 6.4 65.492 1 0 11.646763-5.309699 8.6 6.4 65.492 1 0-11.646763 5.309699Z" fill="#F8D7C5" /><path d="M578.959626 135.878197a6.9 5.1 65.492 1 0 9.281014-4.231167 6.9 5.1 65.492 1 0-9.281014 4.231167Z" fill="#F7D6C3" /><path d="M580.142501 135.338931a5.2 3.8 65.492 1 0 6.915265-3.152634 5.2 3.8 65.492 1 0-6.915265 3.152634Z" fill="#F7D5C3" /><path d="M581.234385 134.841146a3.4 2.6 65.492 1 0 4.731497-2.157065 3.4 2.6 65.492 1 0-4.731497 2.157065Z" fill="#F7D4C2" /><path d="M582.417259 134.30188a1.7 1.3 65.492 1 0 2.365749-1.078533 1.7 1.3 65.492 1 0-2.365749 1.078533Z" fill="#F7D4C1" /><path d="M499.4 63.8c3.5 7.6 6.7 31.8-1.3 35.4-8 3.6-24.1-14.7-27.6-22.3-3.5-7.6 0.2-16.7 8.1-20.4 8-3.6 17.3-0.4 20.8 7.3z" fill="#C18761" /><path d="M479 62.3h17.2v28H479z" fill="#F9DDCD" /><path d="M476.217731 81.486226a16.9 12.5 65.492 1 0 22.747584-10.370507 16.9 12.5 65.492 1 0-22.747584 10.370507Z" fill="#F9DDCD" /><path d="M477.127635 81.071406a15.5 11.5 65.492 1 0 20.927777-9.540867 15.5 11.5 65.492 1 0-20.927777 9.540867Z" fill="#F9DCCC" /><path d="M478.128528 80.615103a14.1 10.4 65.492 1 0 18.92599-8.628262 14.1 10.4 65.492 1 0-18.92599 8.628262Z" fill="#F9DBCA" /><path d="M479.038432 80.200283a12.7 9.4 65.492 1 0 17.106183-7.798621 12.7 9.4 65.492 1 0-17.106183 7.798621Z" fill="#F8DAC9" /><path d="M480.039326 79.743981a11.3 8.3 65.492 1 0 15.104395-6.886017 11.3 8.3 65.492 1 0-15.104395 6.886017Z" fill="#F8D9C8" /><path d="M480.949229 79.32916a9.9 7.3 65.492 1 0 13.284589-6.056376 9.9 7.3 65.492 1 0-13.284589 6.056376Z" fill="#F8D8C7" /><path d="M481.859132 78.91434a8.4 6.3 65.492 1 0 11.464783-5.226736 8.4 6.3 65.492 1 0-11.464783 5.226736Z" fill="#F8D7C6" /><path d="M482.860026 78.458038a7 5.2 65.492 1 0 9.462995-4.314131 7 5.2 65.492 1 0-9.462995 4.314131Z" fill="#F8D7C5" /><path d="M483.769929 78.043218a5.6 4.2 65.492 1 0 7.643189-3.484491 5.6 4.2 65.492 1 0-7.643189 3.484491Z" fill="#F7D6C3" /><path d="M484.770823 77.586915a4.2 3.1 65.492 1 0 5.641401-2.571886 4.2 3.1 65.492 1 0-5.641401 2.571886Z" fill="#F7D5C3" /><path d="M485.680726 77.172095a2.8 2.1 65.492 1 0 3.821594-1.742245 2.8 2.1 65.492 1 0-3.821594 1.742245Z" fill="#F7D4C2" /><path d="M486.68162 76.715793a1.4 1 65.492 1 0 1.819807-0.829641 1.4 1 65.492 1 0-1.819807 0.829641Z" fill="#F7D4C1" /><path d="M486.6 175.6c-9.6 0-17.4-7.8-17.4-17.4v-5.7c0-9.6 7.8-17.4 17.4-17.4 9.6 0 17.4 7.8 17.4 17.4v5.7c0 9.6-7.8 17.4-17.4 17.4z" fill="#E29866" /><path d="M658.4 265.2l-0.5 0.1c-9.1 2.6-18.6-2.7-21.2-11.8l-1.7-6c-2.6-9.1 2.7-18.6 11.8-21.2l0.5-0.1c9.1-2.6 18.6 2.7 21.2 11.8l1.7 6c2.6 9.1-2.7 18.6-11.8 21.2z" fill="#E29866" /><path d="M478.6 401l-1.6 0.5c-8.8 2.5-18-2.6-20.5-11.4l-2-7.1c-2.5-8.8 2.6-18 11.4-20.5l1.6-0.5c8.8-2.5 18 2.6 20.5 11.4l2 7.1c2.5 8.9-2.6 18-11.4 20.5z" fill="#E29866" /><path d="M361.8 376.9c-9.3-2.6-14.7-12.2-12.1-21.4l1.5-5.5c2.6-9.3 12.2-14.7 21.4-12.1 9.3 2.6 14.7 12.2 12.1 21.4l-1.5 5.5c-2.5 9.2-12.1 14.6-21.4 12.1z" fill="#E29866" /><path d="M358.3 692.9c-9.3-2.6-14.7-12.2-12.1-21.4l1.5-5.5c2.6-9.3 12.2-14.7 21.4-12.1 9.3 2.6 14.7 12.2 12.1 21.4l-1.5 5.5c-2.5 9.2-12.1 14.6-21.4 12.1z" fill="#E29866" /><path d="M614 701.9c-2-9.4 4-18.7 13.4-20.7l5.6-1.2c9.4-2 18.7 4 20.7 13.4s-4 18.7-13.4 20.7l-5.6 1.2c-9.4 2-18.7-4-20.7-13.4z" fill="#E29866" /><path d="M614 586.8c-2-9.4 4-18.7 13.4-20.7l5.6-1.2c9.4-2 18.7 4 20.7 13.4s-4 18.7-13.4 20.7l-5.6 1.2c-9.4 2-18.7-4-20.7-13.4z" fill="#E29866" /><path d="M501.1 466.3c-2-9.4 4-18.7 13.4-20.7l5.6-1.2c9.4-2 18.7 4 20.7 13.4s-4 18.7-13.4 20.7l-5.6 1.2c-9.4 2-18.7-4-20.7-13.4z" fill="#E29866" /><path d="M362.6 586.8c-2-9.4 4-18.7 13.4-20.7l5.6-1.2c9.4-2 18.7 4 20.7 13.4s-4 18.7-13.4 20.7l-5.6 1.2c-9.4 2-18.7-4-20.7-13.4z" fill="#E29866" /><path d="M355.359388 134.211939a43 61.7 55.538 1 0 101.743505-69.827066 43 61.7 55.538 1 0-101.743505 69.827066Z" fill="#C1977A" /><path d="M382.6 169.3h-0.3c-9.6 0-17.3-7.7-17.3-17.3v-6c0-9.6 7.7-17.3 17.3-17.3h0.3c9.6 0 17.3 7.7 17.3 17.3v6c0 9.6-7.8 17.3-17.3 17.3z" fill="#E29866" /><path d="M368 64.6c6.3-5.5 28.5-15.5 34.3-8.9 5.8 6.6-7.1 27.3-13.4 32.8-6.3 5.5-16.1 4.6-21.9-1.9-5.7-6.7-5.3-16.5 1-22z" fill="#C18761" /><path d="M370.9 60.7H396v23h-25.1z" fill="#F9DDCD" /><path d="M391.645159 81.563478a12.5 16.9 48.814 1 0-16.46264-18.814396 12.5 16.9 48.814 1 0 16.46264 18.814396Z" fill="#F9DDCD" /><path d="M390.986653 80.810902a11.5 15.5 48.814 1 0-15.145628-17.309244 11.5 15.5 48.814 1 0 15.145628 17.309244Z" fill="#F9DCCC" /><path d="M390.262297 79.983068a10.4 14.1 48.814 1 0-13.696916-15.653577 10.4 14.1 48.814 1 0 13.696916 15.653577Z" fill="#F9DBCA" /><path d="M389.603791 79.230492a9.4 12.7 48.814 1 0-12.379905-14.148425 9.4 12.7 48.814 1 0 12.379905 14.148425Z" fill="#F8DAC9" /><path d="M388.879435 78.402659a8.3 11.3 48.814 1 0-10.931193-12.492759 8.3 11.3 48.814 1 0 10.931193 12.492759Z" fill="#F8D9C8" /><path d="M388.22093 77.650083a7.3 9.9 48.814 1 0-9.614182-10.987607 7.3 9.9 48.814 1 0 9.614182 10.987607Z" fill="#F8D8C7" /><path d="M387.562424 76.897507a6.3 8.4 48.814 1 0-8.29717-9.482455 6.3 8.4 48.814 1 0 8.29717 9.482455Z" fill="#F8D7C6" /><path d="M386.838068 76.069674a5.2 7 48.814 1 0-6.848458-7.826789 5.2 7 48.814 1 0 6.848458 7.826789Z" fill="#F8D7C5" /><path d="M386.179562 75.317098a4.2 5.6 48.814 1 0-5.531447-6.321637 4.2 5.6 48.814 1 0 5.531447 6.321637Z" fill="#F7D6C3" /><path d="M385.455206 74.489265a3.1 4.2 48.814 1 0-4.082734-4.66597 3.1 4.2 48.814 1 0 4.082734 4.66597Z" fill="#F7D5C3" /><path d="M384.796701 73.736689a2.1 2.8 48.814 1 0-2.765724-3.160819 2.1 2.8 48.814 1 0 2.765724 3.160819Z" fill="#F7D4C2" /><path d="M384.072344 72.908855a1 1.4 48.814 1 0-1.317011-1.505151 1 1.4 48.814 1 0 1.317011 1.505151Z" fill="#F7D4C1" /><path d="M415.2 127.1c6.3-5.5 28.5-15.5 34.3-8.9 5.8 6.6-7.1 27.3-13.4 32.8-6.3 5.5-16.1 4.6-21.9-1.9-5.7-6.6-5.3-16.5 1-22z" fill="#C18761" /><path d="M418 123.2h25.1v23H418z" fill="#F9DDCD" /><path d="M438.773482 144.172953a12.5 16.9 48.814 1 0-16.462639-18.814396 12.5 16.9 48.814 1 0 16.462639 18.814396Z" fill="#F9DDCD" /><path d="M438.114977 143.420377a11.5 15.5 48.814 1 0-15.145629-17.309244 11.5 15.5 48.814 1 0 15.145629 17.309244Z" fill="#F9DCCC" /><path d="M437.390621 142.592544a10.4 14.1 48.814 1 0-13.696917-15.653577 10.4 14.1 48.814 1 0 13.696917 15.653577Z" fill="#F9DBCA" /><path d="M436.732115 141.839968a9.4 12.7 48.814 1 0-12.379905-14.148426 9.4 12.7 48.814 1 0 12.379905 14.148426Z" fill="#F8DAC9" /><path d="M436.007759 141.012135a8.3 11.3 48.814 1 0-10.931193-12.492759 8.3 11.3 48.814 1 0 10.931193 12.492759Z" fill="#F8D9C8" /><path d="M435.349253 140.259559a7.3 9.9 48.814 1 0-9.614181-10.987607 7.3 9.9 48.814 1 0 9.614181 10.987607Z" fill="#F8D8C7" /><path d="M434.690748 139.506983a6.3 8.4 48.814 1 0-8.297171-9.482456 6.3 8.4 48.814 1 0 8.297171 9.482456Z" fill="#F8D7C6" /><path d="M433.966392 138.67915a5.2 7 48.814 1 0-6.848459-7.826789 5.2 7 48.814 1 0 6.848459 7.826789Z" fill="#F8D7C5" /><path d="M433.307886 137.926574a4.2 5.6 48.814 1 0-5.531447-6.321637 4.2 5.6 48.814 1 0 5.531447 6.321637Z" fill="#F7D6C3" /><path d="M432.58353 137.09874a3.1 4.2 48.814 1 0-4.082735-4.66597 3.1 4.2 48.814 1 0 4.082735 4.66597Z" fill="#F7D5C3" /><path d="M431.925024 136.346164a2.1 2.8 48.814 1 0-2.765723-3.160818 2.1 2.8 48.814 1 0 2.765723 3.160818Z" fill="#F7D4C2" /><path d="M431.200668 135.518331a1 1.4 48.814 1 0-1.317011-1.505152 1 1.4 48.814 1 0 1.317011 1.505152Z" fill="#F7D4C1" /></svg>