<?xml version="1.0" encoding="utf-8"?>

<svg width="800px" height="800px" viewBox="0 0 1024 1024" class="icon"  version="1.1" xmlns="http://www.w3.org/2000/svg"><path d="M605.6 879.6c0 92.2-40.4 117.7-90.2 117.7s-90.2-25.5-90.2-117.7 40.4-216.1 90.2-216.1 90.2 124 90.2 216.1z" fill="#F4D967" /><path d="M515.4 1003.3c-29.4 0-52.3-8.8-68.2-26.2-18.6-20.4-28-53.2-28-97.4 0-46.9 10-101 26.8-144.7 19.1-49.8 43.8-77.3 69.3-77.3 25.6 0 50.2 27.5 69.3 77.3 16.8 43.7 26.8 97.8 26.8 144.7 0 44.3-9.4 77.1-28 97.4-15.7 17.4-38.6 26.2-68 26.2z m0-333.8c-20 0-41.2 25.4-58.2 69.6-16 41.8-26 95.6-26 140.5 0 41.2 8.4 71.3 24.9 89.4 13.7 15 33.1 22.3 59.3 22.3 26.2 0 45.6-7.3 59.3-22.3 16.5-18.1 24.9-48.2 24.9-89.4 0-44.9-10-98.7-26-140.5-17-44.2-38.2-69.6-58.2-69.6z" fill="#49332E" /><path d="M680.5 766.4H350.3c-76.1 0-137.8-61.7-137.8-137.8v-299c0-167.3 135.6-302.9 302.9-302.9 167.3 0 302.9 135.6 302.9 302.9v299c0 76.1-61.7 137.8-137.8 137.8z" fill="#B2806F" /><path d="M678.2 772.3H352.7c-80.5 0-146.1-65.5-146.1-146.1V329.6c0-170.3 138.5-308.8 308.8-308.8s308.8 138.5 308.8 308.8v296.7c0 80.5-65.5 146-146 146zM515.4 32.7c-163.7 0-296.9 133.2-296.9 296.9v296.7c0 74 60.2 134.2 134.2 134.2h325.5c74 0 134.2-60.2 134.2-134.2V329.6c-0.1-163.8-133.3-296.9-297-296.9z" fill="#49332E" /><path d="M678.2 772.3H352.7c-80.5 0-146.1-65.5-146.1-146.1V329.6c0-170.3 138.5-308.8 308.8-308.8s308.8 138.5 308.8 308.8v296.7c0 80.5-65.5 146-146 146zM515.4 32.7c-163.7 0-296.9 133.2-296.9 296.9v296.7c0 74 60.2 134.2 134.2 134.2h325.5c74 0 134.2-60.2 134.2-134.2V329.6c-0.1-163.8-133.3-296.9-297-296.9z" fill="#49332E" /><path d="M510.4 31.7c-68 0-130.9 22.4-181.4 60.3-31.5 47.8-49.8 105-49.8 166.5v296.7c0 77.4 62.7 140.1 140.1 140.1h325.5c21.1 0 41-4.7 59-13 6.2-15.8 9.6-33.1 9.6-51.1V334.5c-0.1-167.2-135.7-302.8-303-302.8z" fill="#D89479" /><path d="M678.2 772.3H352.7c-80.5 0-146.1-65.5-146.1-146.1V329.6c0-170.3 138.5-308.8 308.8-308.8s308.8 138.5 308.8 308.8v296.7c0 80.5-65.5 146-146 146zM515.4 32.7c-163.7 0-296.9 133.2-296.9 296.9v296.7c0 74 60.2 134.2 134.2 134.2h325.5c74 0 134.2-60.2 134.2-134.2V329.6c-0.1-163.8-133.3-296.9-297-296.9z" fill="#49332E" /><path d="M423.4 379.2c-2.5 0-4.5-2-4.5-4.5 0-22.5-18.1-40.7-40.3-40.7-22.2 0-40.3 18.3-40.3 40.7 0 2.5-2 4.5-4.5 4.5s-4.5-2-4.5-4.5c0-27.4 22.1-49.7 49.3-49.7 27.2 0 49.3 22.3 49.3 49.7-0.1 2.5-2.1 4.5-4.5 4.5z" fill="#49332E" /><path d="M332.6 379.2c-0.2 0-0.5 0-0.7-0.1-15.5-2.5-28.3-11.5-34.1-24-1-2.2-0.1-4.9 2.2-5.9 2.2-1 4.9-0.1 5.9 2.2 4.5 9.7 15 17 27.4 19 2.4 0.4 4.1 2.7 3.7 5.1-0.3 2.1-2.2 3.7-4.4 3.7zM338.3 359.6c-0.2 0-0.5 0-0.7-0.1-13.9-2.3-25.3-10.3-30.6-21.6-1-2.2-0.1-4.9 2.2-5.9 2.2-1 4.9-0.1 5.9 2.2 3.9 8.4 13 14.7 23.9 16.5 2.4 0.4 4.1 2.7 3.7 5.1-0.4 2.2-2.3 3.8-4.4 3.8z" fill="#49332E" /><path d="M697.1 379.2c-2.5 0-4.5-2-4.5-4.5 0-22.5-18.1-40.7-40.3-40.7-22.2 0-40.3 18.3-40.3 40.7 0 2.5-2 4.5-4.5 4.5s-4.5-2-4.5-4.5c0-27.4 22.1-49.7 49.3-49.7 27.2 0 49.3 22.3 49.3 49.7-0.1 2.5-2.1 4.5-4.5 4.5z" fill="#49332E" /><path d="M698.2 379.2c-2.2 0-4-1.6-4.4-3.8-0.4-2.4 1.3-4.7 3.7-5.1 12.4-2 22.9-9.3 27.4-19 1-2.2 3.7-3.2 5.9-2.2s3.2 3.7 2.2 5.9c-5.8 12.5-18.6 21.5-34.1 24-0.2 0.2-0.5 0.2-0.7 0.2zM692.6 359.6c-2.2 0-4-1.6-4.4-3.8-0.4-2.4 1.3-4.7 3.7-5.1 10.8-1.8 20-8.1 23.9-16.5 1-2.2 3.7-3.2 5.9-2.2s3.2 3.7 2.2 5.9c-5.2 11.2-16.6 19.3-30.6 21.6-0.2 0.1-0.5 0.1-0.7 0.1z" fill="#49332E" /><path d="M339.3 421.1a42.6 26.1 0 1 0 85.2 0 42.6 26.1 0 1 0-85.2 0Z" fill="#DD5E54" /><path d="M606.3 421.1a42.6 26.1 0 1 0 85.2 0 42.6 26.1 0 1 0-85.2 0Z" fill="#DD5E54" /><path d="M457.2 429c-1.4 8.4-2.2 17.3-2.2 26.5 0 54.6 27.1 95.8 60.5 95.8s60.5-41.2 60.5-95.8c0-9.2-0.8-18.1-2.2-26.5H457.2z" fill="#CE1B1B" /><path d="M515.4 555.8c-36.4 0-64.9-44-64.9-100.3 0-9.2 0.8-18.4 2.3-27.3 0.4-2.1 2.2-3.7 4.4-3.7h116.5c2.2 0 4 1.6 4.4 3.7 1.5 8.9 2.3 18.1 2.3 27.3-0.1 56.2-28.6 100.3-65 100.3zM461 433.5c-1 7.2-1.6 14.6-1.6 22 0 51.2 24.6 91.3 56 91.3s56-40.1 56-91.3c0-7.4-0.5-14.8-1.6-22H461z" fill="#49332E" /><path d="M575.8 465.3c0.1-2.1 0.1-4.3 0.1-6.4 0-10.3-0.8-20.3-2.2-29.8H457.2c-1.4 9.5-2.2 19.5-2.2 29.8 0 2.2 0 4.3 0.1 6.4h120.7z" fill="#FFFFFF" /><path d="M575.8 469.7H455.1c-2.4 0-4.4-1.9-4.5-4.3-0.1-2.4-0.1-4.5-0.1-6.6 0-10.3 0.8-20.5 2.3-30.5 0.3-2.2 2.2-3.8 4.4-3.8h116.5c2.2 0 4.1 1.6 4.4 3.8 1.5 10 2.3 20.2 2.3 30.5 0 2.1 0 4.2-0.1 6.6-0.1 2.4-2.1 4.3-4.5 4.3z m-116.4-8.9h111.9v-2c0-8.5-0.5-17-1.6-25.4H461.1c-1.1 8.3-1.6 16.8-1.6 25.4-0.1 0.7-0.1 1.3-0.1 2z" fill="#49332E" /><path d="M515.4 515.7c-7.3 0-14.1-11.3-22-10.6-10.3 1-15.8 11.2-20.9 20 11 18 26.1 26.2 42.9 26.2 16.8 0 31.9-8.2 42.9-26.2-5.5-9.3-12-20.7-22.7-20.7-8.4 0-13.6 11.3-20.2 11.3z" fill="#D66161" /><path d="M515.4 555.8c-19.3 0-35.4-9.8-46.7-28.4-0.9-1.4-0.9-3.2 0-4.6l0.8-1.3c5.1-8.8 11.5-19.7 23.6-20.8 5.9-0.6 10.7 3.1 14.9 6.3 2.7 2.1 5.6 4.2 7.5 4.2 1.4 0 3.8-2.1 5.9-4 3.6-3.3 8.2-7.3 14.3-7.3 13 0 20.4 12.4 26.2 22.4l0.3 0.5c0.8 1.4 0.8 3.2 0 4.6-11.3 18.6-27.5 28.4-46.8 28.4zM477.8 525c9.5 14.3 22.4 21.8 37.7 21.8 15.2 0 28.2-7.5 37.7-21.8-4.7-7.9-10.1-16.2-17.4-16.2-2.8 0-5.5 2.4-8.4 5-3.3 2.9-7 6.3-11.8 6.3-5 0-9.2-3.2-12.9-6.1-3.1-2.3-6.2-4.7-8.6-4.5-7.4 0.8-12 8.1-16.3 15.5z" fill="#49332E" /><path d="M494.8 63.2c-40.5 0-79.2 8-114.6 22.4 5.2-0.2 10.4-0.3 15.6-0.3 221.9 0 401.8 179.9 401.8 401.8v-121c0.1-167.3-135.5-302.9-302.8-302.9z" fill="#EFDBCE" /></svg>