<?xml version="1.0" ?>
<svg width="800px" height="800px" viewBox="0 0 64 64" id="duotone_outline" xmlns="http://www.w3.org/2000/svg"><path d="M32,62a1,1,0,0,1-1-1V27a1,1,0,0,1,2,0V61A1,1,0,0,1,32,62Z" style="fill:#363636"/><path d="M43,62H21a3,3,0,0,1-3-3V56H13a3,3,0,0,1-3-3V30A11.013,11.013,0,0,1,21,19h1V12a10,10,0,0,1,20,0v7h1A11.013,11.013,0,0,1,54,30V53a3,3,0,0,1-3,3H46v3A3,3,0,0,1,43,62ZM21,21a9.01,9.01,0,0,0-9,9V53a1,1,0,0,0,1,1h6a1,1,0,0,1,1,1v4a1,1,0,0,0,1,1H43a1,1,0,0,0,1-1V55a1,1,0,0,1,1-1h6a1,1,0,0,0,1-1V30a9.01,9.01,0,0,0-9-9H42a2,2,0,0,1-2-2V12a8,8,0,0,0-16,0v7a2,2,0,0,1-2,2Z" style="fill:#e78753"/><path d="M32,23a6.006,6.006,0,0,1-6-6V12a6,6,0,0,1,12,0v5A6.006,6.006,0,0,1,32,23ZM32,8a4,4,0,0,0-4,4v5a4,4,0,0,0,8,0V12A4,4,0,0,0,32,8Z" style="fill:#363636"/><path d="M19,56a1,1,0,0,1-1-1V33a1,1,0,0,1,2,0V55A1,1,0,0,1,19,56Z" style="fill:#e78753"/><path d="M45,56a1,1,0,0,1-1-1V33a1,1,0,0,1,2,0V55A1,1,0,0,1,45,56Z" style="fill:#e78753"/></svg>