<?xml version="1.0" ?>
<svg width="800px" height="800px" viewBox="0 0 64 64" id="duotone_outline" xmlns="http://www.w3.org/2000/svg"><path d="M47.831,41.506a14.07,14.07,0,0,1-4.23-.652,1,1,0,0,1-.655-.654A13.99,13.99,0,0,1,60.5,22.646a1,1,0,0,1,.654.655A13.991,13.991,0,0,1,47.831,41.506Zm-3.124-2.412A11.988,11.988,0,0,0,59.394,24.407,11.988,11.988,0,0,0,44.707,39.094Z" style="fill:#e78753"/><path d="M42.15,42.65a1,1,0,0,1-.707-1.707L53.465,28.922a1,1,0,0,1,1.414,1.414L42.857,42.357A.993.993,0,0,1,42.15,42.65Z" style="fill:#363636"/><path d="M16.319,21.855A13.99,13.99,0,0,1,3,3.65,1,1,0,0,1,3.65,3,13.989,13.989,0,0,1,21.2,20.55a1.007,1.007,0,0,1-.654.654A14.075,14.075,0,0,1,16.319,21.855ZM4.757,4.757A11.986,11.986,0,0,0,19.443,19.443,11.986,11.986,0,0,0,4.757,4.757Z" style="fill:#e78753"/><path d="M22,23a1,1,0,0,1-.707-.293L9.272,10.687a1,1,0,0,1,1.415-1.415l12.02,12.021A1,1,0,0,1,22,23Z" style="fill:#363636"/><path d="M28.469,62.005A13.991,13.991,0,0,1,15.146,43.8a1,1,0,0,1,.654-.654A13.989,13.989,0,0,1,33.354,60.7a1.006,1.006,0,0,1-.655.655A14.1,14.1,0,0,1,28.469,62.005ZM32.4,60.4h0ZM16.906,44.906A11.988,11.988,0,0,0,31.593,59.593,11.988,11.988,0,0,0,16.906,44.906Z" style="fill:#e78753"/><path d="M26.371,55.371a1,1,0,0,1-.707-.293L13.643,43.057a1,1,0,0,1,1.414-1.414L27.078,53.664a1,1,0,0,1-.707,1.707Z" style="fill:#363636"/><path d="M33,32H11a1,1,0,0,1,0-2H33a1,1,0,0,1,0,2Z" style="fill:#363636"/><path d="M6,32H3a1,1,0,0,1,0-2H6a1,1,0,0,1,0,2Z" style="fill:#363636"/><path d="M33,32a1,1,0,0,1,0-2,4,4,0,1,0-4-4,1,1,0,0,1-2,0,6,6,0,1,1,6,6Z" style="fill:#363636"/><path d="M52,49H36a1,1,0,0,1,0-2H52a1,1,0,0,1,0,2Z" style="fill:#363636"/><path d="M52,59a6.006,6.006,0,0,1-6-6,1,1,0,0,1,2,0,4,4,0,1,0,4-4,1,1,0,0,1,0-2,6,6,0,0,1,0,12Z" style="fill:#363636"/><path d="M54,14H38a1,1,0,0,1,0-2H54a1,1,0,0,1,0,2Z" style="fill:#363636"/><path d="M54,14a1,1,0,0,1,0-2,4,4,0,1,0-4-4,1,1,0,0,1-2,0,6,6,0,1,1,6,6Z" style="fill:#363636"/><path d="M23,37H6a1,1,0,0,1,0-2H23a1,1,0,0,1,0,2Z" style="fill:#363636"/></svg>