<?xml version="1.0" ?>
<svg width="800px" height="800px" viewBox="0 0 64 64" id="duotone_outline" xmlns="http://www.w3.org/2000/svg"><path d="M34,12a1,1,0,0,1-.972-1.239,35.138,35.138,0,0,0,.927-6.573l-3.69.615A25.348,25.348,0,0,1,31,11a1,1,0,0,1-1,1h0a1,1,0,0,1-1-1A22.532,22.532,0,0,0,28.045,4.3a1,1,0,0,1,.79-1.284l6-1A1,1,0,0,1,36,3.023a38.211,38.211,0,0,1-1.029,8.216A1,1,0,0,1,34,12Z" style="fill:#363636"/><path d="M32,62a1,1,0,0,1-.5-.133,15.158,15.158,0,0,1-7.035-8.926,1,1,0,1,1,1.92-.56A13.156,13.156,0,0,0,32,59.832a13.373,13.373,0,0,0,4.152-4.184,1,1,0,0,1,1.7,1.059,15.358,15.358,0,0,1-5.349,5.16A1,1,0,0,1,32,62Z" style="fill:#e78753"/><path d="M23.691,54.87a1,1,0,0,1-.626-.22,17.433,17.433,0,0,1-5.9-9.886,1,1,0,1,1,1.953-.431,15.638,15.638,0,0,0,4.663,8.3q.514-.343,1.021-.751a16.184,16.184,0,0,0,4.133-5.112,1,1,0,0,1,1.773.925,18.2,18.2,0,0,1-4.653,5.745A15.915,15.915,0,0,1,24.2,54.731,1,1,0,0,1,23.691,54.87Z" style="fill:#e78753"/><path d="M15.413,46.139a1,1,0,0,1-.812-.416,14.212,14.212,0,0,1-2.04-12.346,1,1,0,0,1,1.921.558A12.247,12.247,0,0,0,15.887,44.06a14.794,14.794,0,0,0,1.954-.466,14.633,14.633,0,0,0,7.8-5.788A1,1,0,1,1,27.3,38.918a16.708,16.708,0,0,1-11.767,7.213A1.013,1.013,0,0,1,15.413,46.139Z" style="fill:#e78753"/><path d="M40.349,54.868a1,1,0,0,1-.508-.139,15.85,15.85,0,0,1-1.886-1.312,19,19,0,0,1-6.159-9.5,1,1,0,0,1,1.921-.556,16.985,16.985,0,0,0,5.491,8.5q.522.42,1.05.772A15.632,15.632,0,0,0,44.9,44.337a1,1,0,1,1,1.953.429,17.426,17.426,0,0,1-5.871,9.88A1,1,0,0,1,40.349,54.868Z" style="fill:#e78753"/><path d="M48.587,46.139a1.013,1.013,0,0,1-.122-.008A16.719,16.719,0,0,1,36.7,38.918a1,1,0,0,1,1.662-1.112,14.741,14.741,0,0,0,9.753,6.254,12.247,12.247,0,0,0,1.405-10.125,1,1,0,0,1,1.921-.558A14.212,14.212,0,0,1,49.4,45.723,1,1,0,0,1,48.587,46.139Z" style="fill:#e78753"/><path d="M32,45.109a1,1,0,0,1-.5-.133q-.408-.237-.8-.5a15.32,15.32,0,0,1-5.115-5.653,14.919,14.919,0,0,1-1.724-7c0-.4.019-.789.05-1.179a1,1,0,1,1,1.994.155c-.027.338-.044.679-.044,1.024a12.931,12.931,0,0,0,1.5,6.069A13.323,13.323,0,0,0,31.8,42.81c.066.044.133.087.2.129.069-.043.137-.088.2-.133A13.321,13.321,0,0,0,36.643,37.9,13.011,13.011,0,0,0,37.922,34.2a1,1,0,1,1,1.967.362,15.037,15.037,0,0,1-1.474,4.262,15.341,15.341,0,0,1-5.106,5.648c-.265.175-.534.343-.81.5A1,1,0,0,1,32,45.109Z" style="fill:#e78753"/><path d="M14.544,34.692q-.556,0-1.093-.038a12.729,12.729,0,0,1-2.454-.4,1,1,0,0,1-.7-.716c-1.339-5.2,2.128-11.638,6.07-15.056a19.577,19.577,0,0,1,9.434-4.14,21.98,21.98,0,0,1,2.3-.246,77.394,77.394,0,0,1,7.8,0,20.369,20.369,0,0,1,2.246.237,19.47,19.47,0,0,1,9.494,4.149c3.942,3.418,7.409,9.857,6.07,15.056a1,1,0,0,1-.7.716,12.731,12.731,0,0,1-2.453.4,21.62,21.62,0,0,1-11.973-3.07,17.237,17.237,0,0,1-2.406-1.723,19.865,19.865,0,0,1-5.085-6.823,14.125,14.125,0,0,1-1.156-4.15,1,1,0,0,1,1.988-.217,12.149,12.149,0,0,0,1,3.56,17.816,17.816,0,0,0,4.565,6.119,15.189,15.189,0,0,0,2.126,1.52,19.516,19.516,0,0,0,10.8,2.789,11.893,11.893,0,0,0,1.487-.2c.7-4.187-2.188-9.538-5.567-12.468a17.441,17.441,0,0,0-8.5-3.685A18.488,18.488,0,0,0,35.8,16.1a75.748,75.748,0,0,0-7.595,0,19.819,19.819,0,0,0-2.085.223A17.534,17.534,0,0,0,17.672,20c-3.379,2.93-6.271,8.281-5.567,12.468a11.885,11.885,0,0,0,1.488.2,19.586,19.586,0,0,0,10.8-2.79A15.177,15.177,0,0,0,26.52,28.35a18.111,18.111,0,0,0,2.166-2.241,1,1,0,0,1,1.551,1.264,20.26,20.26,0,0,1-2.407,2.488,17.224,17.224,0,0,1-2.407,1.722A22.114,22.114,0,0,1,14.544,34.692Z" style="fill:#e78753"/></svg>