<?xml version="1.0" ?>
<svg width="800px" height="800px" viewBox="0 0 64 64" id="duotone_outline" xmlns="http://www.w3.org/2000/svg"><path d="M56,48H21a1,1,0,0,1-1-1A14.015,14.015,0,0,1,34,33h.923L33.083,8.147A2,2,0,0,1,35.077,6h20.9a2,2,0,0,1,2,2.049L57,47.025A1,1,0,0,1,56,48ZM22.042,46H55.025l.95-38h-20.9L37,33.926A1,1,0,0,1,36,35H34A12.016,12.016,0,0,0,22.042,46ZM35.077,8Z" style="fill:#e78753"/><path d="M54,54H47a1,1,0,0,1-1-1,1,1,0,0,0-2,0,1,1,0,0,1-1,1H23a3,3,0,0,1-3-3V47a1,1,0,0,1,1-1H56a1,1,0,0,1,1,1v4A3,3,0,0,1,54,54Zm-6.171-2H54a1,1,0,0,0,1-1V48H22v3a1,1,0,0,0,1,1H42.171a3,3,0,0,1,5.658,0Z" style="fill:#363636"/><path d="M7.025,48a1,1,0,0,1-1-1,14.016,14.016,0,0,1,14-14h.924L19.108,8.147A2,2,0,0,1,21.1,6H30a1,1,0,0,1,0,2H21.1l1.92,25.926a1,1,0,0,1-1,1.074h-2a12.014,12.014,0,0,0-12,12A1,1,0,0,1,7.025,48Z" style="fill:#e78753"/><path d="M17,54H9.025a3,3,0,0,1-3-3V47a1,1,0,0,1,1-1H17a1,1,0,0,1,0,2H8.025v3a1,1,0,0,0,1,1H17a1,1,0,0,1,0,2Z" style="fill:#363636"/></svg>