<?xml version="1.0" ?>
<svg width="800px" height="800px" viewBox="0 0 64 64" id="duotone_outline" xmlns="http://www.w3.org/2000/svg"><path d="M52,42a1,1,0,0,1-1-1V35a19,19,0,0,0-38,0v6a1,1,0,0,1-2,0V35a21,21,0,0,1,42,0v6A1,1,0,0,1,52,42Z" style="fill:#e78753"/><path d="M53,58H11a5.006,5.006,0,0,1-5-5V45a5.006,5.006,0,0,1,5-5H53a5.006,5.006,0,0,1,5,5v8A5.006,5.006,0,0,1,53,58ZM11,42a3,3,0,0,0-3,3v8a3,3,0,0,0,3,3H53a3,3,0,0,0,3-3V45a3,3,0,0,0-3-3Z" style="fill:#363636"/><path d="M32,16a5,5,0,1,1,5-5A5.006,5.006,0,0,1,32,16Zm0-8a3,3,0,1,0,3,3A3,3,0,0,0,32,8Z" style="fill:#363636"/><path d="M32,54a1,1,0,0,1-1-1V45a1,1,0,0,1,2,0v8A1,1,0,0,1,32,54Z" style="fill:#e78753"/><path d="M23,54a1,1,0,0,1-1-1V45a1,1,0,0,1,2,0v8A1,1,0,0,1,23,54Z" style="fill:#e78753"/><path d="M14,54a1,1,0,0,1-1-1V45a1,1,0,0,1,2,0v8A1,1,0,0,1,14,54Z" style="fill:#e78753"/><path d="M41,54a1,1,0,0,1-1-1V45a1,1,0,0,1,2,0v8A1,1,0,0,1,41,54Z" style="fill:#e78753"/><path d="M50,54a1,1,0,0,1-1-1V45a1,1,0,0,1,2,0v8A1,1,0,0,1,50,54Z" style="fill:#e78753"/></svg>