<?xml version="1.0" ?>
<svg width="800px" height="800px" viewBox="0 0 64 64" id="duotone_outline" xmlns="http://www.w3.org/2000/svg"><path d="M32,62a1,1,0,0,1-1-1V47a1,1,0,0,1,2,0V61A1,1,0,0,1,32,62Z" style="fill:#363636"/><path d="M42,62H32a1,1,0,0,1-1-1A12.013,12.013,0,0,1,43,49H53a1,1,0,0,1,1,1A12.013,12.013,0,0,1,42,62Zm-8.95-2H42a10.013,10.013,0,0,0,9.95-9H43A10.013,10.013,0,0,0,33.05,60Z" style="fill:#363636"/><path d="M32,62H22A12.013,12.013,0,0,1,10,50a1,1,0,0,1,1-1H21A12.013,12.013,0,0,1,33,61,1,1,0,0,1,32,62ZM12.05,51A10.014,10.014,0,0,0,22,60h8.95A10.014,10.014,0,0,0,21,51Z" style="fill:#363636"/><path d="M32,37A12,12,0,1,1,44,25,12.013,12.013,0,0,1,32,37Zm0-22A10,10,0,1,0,42,25,10.011,10.011,0,0,0,32,15Z" style="fill:#363636"/><path d="M32,32a7,7,0,0,1,0-14,1,1,0,0,1,0,2,5,5,0,1,0,5,5,1,1,0,0,1,2,0A7.009,7.009,0,0,1,32,32Z" style="fill:#363636"/><path d="M32,48a5.007,5.007,0,0,1-4.97-4.451,5,5,0,0,1-8.609-4.971,5,5,0,0,1-4.97-8.608,5,5,0,0,1,0-9.94,5,5,0,0,1,4.97-8.608A5,5,0,0,1,27.03,6.451a5,5,0,0,1,9.94,0,5,5,0,0,1,8.608,4.971,5,5,0,0,1,4.971,8.608,5,5,0,0,1,0,9.94,5,5,0,0,1-4.971,8.608,5,5,0,0,1-8.608,4.971A5.008,5.008,0,0,1,32,48Zm-4-9.072a.96.96,0,0,1,.259.034,1,1,0,0,1,.741.966V43a3,3,0,0,0,6,0V39.928a1,1,0,0,1,1.866-.5L38.4,42.089a3,3,0,0,0,5.2-3l-1.536-2.661a1,1,0,0,1,1.366-1.366L46.089,36.6a3,3,0,0,0,3-5.2l-2.661-1.536a1,1,0,0,1,.5-1.866H50a3,3,0,0,0,0-6H46.928a1,1,0,0,1-.5-1.866L49.089,18.6a3,3,0,1,0-3-5.2l-2.661,1.536a1,1,0,0,1-1.366-1.366L43.6,10.911a3,3,0,0,0-5.2-3l-1.536,2.66a1,1,0,0,1-1.866-.5V7a3,3,0,0,0-6,0v3.071a1,1,0,0,1-1.866.5L25.6,7.911a3,3,0,1,0-5.2,3l1.536,2.661a1,1,0,0,1-1.366,1.366L17.912,13.4a3,3,0,1,0-3,5.2l2.66,1.536a1,1,0,0,1-.5,1.866H14a3,3,0,0,0,0,6h3.072a1,1,0,0,1,.5,1.866L14.912,31.4a3,3,0,1,0,3,5.2l2.66-1.536a1,1,0,0,1,1.366,1.366L20.4,39.089a3,3,0,0,0,5.2,3l1.536-2.661A1,1,0,0,1,28,38.928Z" style="fill:#e78753"/></svg>