<?xml version="1.0" ?>
<svg width="800px" height="800px" viewBox="0 0 64 64" id="duotone_outline" xmlns="http://www.w3.org/2000/svg"><path d="M38,37.724a1,1,0,0,1-.428-1.9l10-4.723a1,1,0,0,1,.854,1.808l-10,4.724A1,1,0,0,1,38,37.724Z" style="fill:#e78753"/><path d="M11.207,61.645a9.022,9.022,0,1,1,3.836-.867A9.008,9.008,0,0,1,11.207,61.645ZM11.2,45.636a7.005,7.005,0,1,0,6.335,4.015h0A7.021,7.021,0,0,0,11.2,45.636Z" style="fill:#363636"/><path d="M12.756,56.932a1,1,0,0,1-.428-1.905,2.639,2.639,0,1,0-3.514-1.259,1,1,0,1,1-1.808.853,4.64,4.64,0,1,1,6.176,2.215A1,1,0,0,1,12.756,56.932Z" style="fill:#e78753"/><path d="M14.621,60.87a1,1,0,0,1-.428-1.9l17.38-8.2a1,1,0,0,1,.854,1.808l-17.38,8.2A.983.983,0,0,1,14.621,60.87Z" style="fill:#363636"/><path d="M50.731,43.82a1,1,0,0,1-.426-1.9l5.479-2.58a7,7,0,1,0-5.977-12.662l-17.38,8.211a1,1,0,0,1-.854-1.809l17.38-8.211a9,9,0,1,1,7.685,16.28l-5.482,2.58A.988.988,0,0,1,50.731,43.82Z" style="fill:#363636"/><path d="M7.791,46.41a1,1,0,0,1-.429-1.9l5.48-2.59a1,1,0,1,1,.855,1.809L8.218,46.314A.99.99,0,0,1,7.791,46.41Z" style="fill:#363636"/><path d="M52.793,61.645a9,9,0,1,1,8.144-5.163h0a9.022,9.022,0,0,1-8.144,5.163ZM52.8,45.636a7,7,0,1,0,6.325,9.993h0A7.008,7.008,0,0,0,52.8,45.636Zm7.229,10.42h0Z" style="fill:#363636"/><path d="M52.8,57.282a4.641,4.641,0,1,1,1.983-8.838,1,1,0,0,1-.853,1.809,2.639,2.639,0,1,0,1.26,3.515,1,1,0,1,1,1.808.853,4.647,4.647,0,0,1-4.2,2.661Z" style="fill:#e78753"/><path d="M49.379,60.87a.983.983,0,0,1-.426-.1L7.364,41.145a9,9,0,1,1,7.683-16.28L56.638,44.506a1,1,0,1,1-.856,1.808L14.193,26.674A7,7,0,1,0,8.218,39.336l41.589,19.63a1,1,0,0,1-.428,1.9Z" style="fill:#363636"/><path d="M28,45a.983.983,0,0,1-.426-.1L8.843,36.055A1,1,0,1,1,9.7,34.246L28.427,43.1A1,1,0,0,1,28,45Z" style="fill:#e78753"/><path d="M43.729,45.85a.993.993,0,0,1-.425-.1L24.573,36.9a1,1,0,0,1,.854-1.808l18.73,8.849a1,1,0,0,1-.428,1.905Z" style="fill:#e78753"/><path d="M21,35.165a.983.983,0,0,1-.426-.1l-4-1.889a1,1,0,0,1,.854-1.809l4,1.89a1,1,0,0,1-.428,1.9Z" style="fill:#e78753"/><path d="M32,25a7,7,0,1,1,7-7A7.009,7.009,0,0,1,32,25Zm0-12a5,5,0,1,0,5,5A5.006,5.006,0,0,0,32,13Z" style="fill:#363636"/><path d="M32,29A12.013,12.013,0,0,1,20,17c0-5.606,3.9-8.74,8.83-12.708.814-.655,1.661-1.337,2.529-2.061a1,1,0,0,1,1.282,0c.868.724,1.715,1.406,2.529,2.061C40.1,8.26,44,11.394,44,17A12.013,12.013,0,0,1,32,29ZM32,4.3c-.654.537-1.3,1.053-1.916,1.553C25.391,9.625,22,12.352,22,17a10,10,0,0,0,20,0c0-4.648-3.391-7.375-8.084-11.149C33.3,5.351,32.654,4.835,32,4.3Z" style="fill:#e78753"/><path d="M48,38a1,1,0,0,1-.428-1.9l8-3.78a1,1,0,0,1,.854,1.809l-8,3.779A.983.983,0,0,1,48,38Z" style="fill:#e78753"/></svg>