<?xml version="1.0" ?>


<svg width="800px" height="800px" viewBox="0 0 32 32" xmlns="http://www.w3.org/2000/svg">

<defs>

<style>.cls-1{fill:#00df8e;}.cls-2{fill:#bfffc8;}</style>

</defs>

<title/>

<g id="fill">

<rect class="cls-1" height="28" rx="4" ry="4" width="26.53" x="2.74" y="2"/>

<path class="cls-2" d="M7.53,27.32A1,1,0,0,1,7,27.15a1,1,0,0,1-.28-1.39l2.23-3.34a2.41,2.41,0,0,1,2.77-1l2.14.71a.41.41,0,0,0,.48-.18l2.51-4.17a2.41,2.41,0,0,1,2-1.17,2.44,2.44,0,0,1,2.06,1.07l4.42,6.62a1,1,0,1,1-1.67,1.11l-4.41-6.62a.39.39,0,0,0-.35-.18.41.41,0,0,0-.35.2L16,23a2.38,2.38,0,0,1-2.83,1l-2.14-.71a.41.41,0,0,0-.47.16L8.36,26.87A1,1,0,0,1,7.53,27.32Z"/>

<path class="cls-2" d="M24.11,15.53a2.48,2.48,0,1,1,2.47-2.48A2.48,2.48,0,0,1,24.11,15.53Zm0-2.95a.47.47,0,0,0-.48.47.48.48,0,1,0,.95,0A.47.47,0,0,0,24.11,12.58Z"/>

</g>

</svg>