<?xml version="1.0" ?>


<svg fill="#000000" width="800px" height="800px" viewBox="0 0 256 256" id="Layer_1" version="1.1" xml:space="preserve" xmlns="http://www.w3.org/2000/svg" xmlns:xlink="http://www.w3.org/1999/xlink">

<g>

<path d="M175.6,149c-1.7,3.7-3.8,7.3-6.3,10.5c-8.5,11-20.7,18.1-34.6,19.9c-13.8,1.8-27.5-1.9-38.5-10.3c-2.8-2.2-5.4-4.6-7.7-7.3   l-2.3-2.7L21.9,186l2.9,4.8c7.7,12.6,17.6,23.7,29.5,32.8c21.3,16.4,46.9,25,73.3,25c5.3,0,10.6-0.3,16-1   c32-4.2,60.5-20.6,80.1-46.1c9.9-12.9,17-27.3,21.1-42.9l1.4-5.4l-69.2-7.3L175.6,149z M233.9,161.5c-3.9,12.2-9.9,23.7-17.8,34   c-18.1,23.5-44.3,38.6-73.7,42.4c-29.5,3.8-58.7-4-82.2-22c-9.4-7.2-17.5-15.8-24-25.4l47.4-19.8c2.1,2.2,4.4,4.2,6.8,6   c13.1,10,29.3,14.4,45.7,12.3c16.4-2.1,30.9-10.5,41-23.6c2.3-2.9,4.2-6,5.9-9.3L233.9,161.5z"/>

<path d="M76,132c-1.1-12.9,2.7-25.7,10.6-36c6.3-8.2,14.8-14.3,24.6-17.6l3.3-1.1l-0.8-69.6l-5.6,0.9c-30.4,5.1-57.4,21.2-76,45.5   C9.6,83.5,1.8,120.9,10.8,156.9l1.4,5.5l64.2-26.9L76,132z M18.9,149.1c-6.2-31.4,1.3-63.6,20.9-89c16-20.8,38.7-35.2,64.4-40.8   l0.6,51.3C94.6,74.7,85.7,81.4,79,90.2c-8.6,11.2-13.1,25-12.8,39.1L18.9,149.1z"/>

<path d="M144.3,78.3c3.3,1,6.5,2.5,9.5,4.3c2,1.1,4,2.4,5.9,3.9c1.7,1.3,3.2,2.6,4.6,4c2.6,2.5,5,5.3,7,8.4c3,4.5,5.3,9.4,6.7,14.8   c0.3,1.1,0.6,2.1,0.8,3.3l0.7,3.4l69.2,7.3l-0.3-5.6c-0.9-17.9-5.8-35.7-14.2-51.4c-1.6-3.1-3.4-6.2-5.6-9.4h0   c-2.4-3.6-5-7.2-7.8-10.6c-2.1-2.5-4.3-5-6.7-7.4c-2.8-2.9-5.8-5.6-9.1-8.3c-1.2-1-2.4-1.9-3.6-2.9c-1.3-1-2.7-2-3.9-2.9   c-3.5-2.5-6.8-4.6-10.3-6.5c-2.7-1.5-5.5-3-8.5-4.4c-10.8-5-22.3-8.4-34-10l-5.6-0.8l0.8,69.6L144.3,78.3z M174.8,27   c2.8,1.3,5.4,2.7,7.8,4.1c3.1,1.8,6.2,3.7,9.5,6c1.2,0.8,2.4,1.7,3.6,2.6c1.1,0.8,2.2,1.7,3.3,2.6c3.1,2.5,5.8,5.1,8.4,7.7   c2.2,2.2,4.3,4.5,6.2,6.8c2.6,3.1,5,6.4,7.2,9.7c2,3,3.6,5.8,5.1,8.7c6.9,12.8,11.2,27.1,12.7,41.7l-51-5.4c0-0.2-0.1-0.3-0.1-0.5   c-1.7-6.3-4.4-12.2-8-17.5c-2.4-3.7-5.3-7-8.3-10c-1.6-1.6-3.4-3.1-5.4-4.7c-2.3-1.8-4.7-3.4-7-4.6c-2.9-1.7-5.9-3.1-8.9-4.2   l-0.6-51.3C158,20.4,166.6,23.2,174.8,27z"/>

<path d="M162.3,48.2c1.2,0,2.4-0.5,3.4-1.4l5.6-5.5c1.9-1.9,1.9-4.9,0.1-6.8c-1.9-1.9-4.9-1.9-6.8-0.1l-5.6,5.5   c-1.9,1.9-1.9,4.9-0.1,6.8C159.8,47.8,161,48.2,162.3,48.2z"/>

<path d="M171,72.7c0.9,1,2.2,1.5,3.5,1.5c1.2,0,2.4-0.5,3.4-1.4l17-16.6c1.9-1.9,1.9-4.9,0.1-6.8c-1.9-1.9-4.9-1.9-6.8-0.1   l-17,16.6C169.2,67.8,169.1,70.8,171,72.7z"/>

<path d="M188.8,93.2c0.9,1,2.2,1.5,3.5,1.5c1.2,0,2.4-0.5,3.4-1.4l17.3-16.9c1.9-1.9,1.9-4.9,0.1-6.8c-1.9-1.9-4.9-1.9-6.8-0.1   l-17.3,16.9C186.9,88.2,186.9,91.3,188.8,93.2z"/>

<path d="M215.2,105.3c0.9,0.9,2.2,1.4,3.4,1.4c1.2,0,2.5-0.5,3.4-1.4l3.1-3.1c1.9-1.9,1.9-4.9,0-6.8c-1.9-1.9-4.9-1.9-6.8,0   l-3.1,3.1C213.3,100.3,213.3,103.4,215.2,105.3z"/>

</g>

</svg>