<?xml version="1.0" ?>


<svg fill="#000000" width="800px" height="800px" viewBox="0 0 256 256" id="Layer_1" version="1.1" xml:space="preserve" xmlns="http://www.w3.org/2000/svg" xmlns:xlink="http://www.w3.org/1999/xlink">

<g>

<path d="M244.3,89.9c-8.2-44.8-57.1-75.4-98.9-81.4c-3.3-0.5-6.7-0.8-10.3-0.9c-4.7-0.3-9.4-0.3-13.9,0c-3.8,0.1-7.2,0.4-10.5,0.9   c-41.8,6-90.7,36.6-98.9,81.4l-1.1,6l6.1-0.3c24.5-1.2,48.4,4.5,65.6,15.5l2,1.3l2.3-0.8c12.4-4.6,27.2-5.8,34.9-6.2l1.7-0.1   c0.6,0,6.9,0,7.8-0.1l3.5,0.1c9.4,0.4,23.1,1.8,34.8,6.2l2.3,0.8l2-1.3c17.2-11,41.2-16.6,65.6-15.5l6.1,0.3L244.3,89.9z    M232.8,85.7c-23.3,0-45.1,5.5-62.3,15.9c-12.4-4.2-26-5.5-35.5-6l-3.5-0.1c-1.2,0-8.1,0-8.6,0l-1.8,0.1c-9.5,0.4-23.2,1.8-35.5,6   c-17.2-10.3-39-15.9-62.3-15.9c-0.2,0-0.4,0-0.5,0C33.1,48.7,75.5,23.4,112,18.2c2.9-0.4,6-0.7,9.6-0.8c4.2-0.3,8.5-0.3,12.9,0   c3.4,0.1,6.5,0.4,9.4,0.8c36.6,5.3,78.9,30.5,89.4,67.6C233.2,85.7,233,85.7,232.8,85.7z"/>

<path d="M129.6,177.5c-13.1-4.6-21.2-8-22.4-17.4c-0.9-6.8,4.2-14,11.4-16.2c7.5-2.2,17.6-1.3,27.1,2.5c2.5,1,5.3-0.2,6.3-2.7   c1-2.5-0.2-5.3-2.7-6.3c-5.5-2.2-11.2-3.6-16.7-4.1v-9.6c0-2.7-2.2-4.9-4.9-4.9s-4.9,2.2-4.9,4.9v9.6c-2.4,0.3-4.8,0.7-7,1.3   c-11.8,3.5-19.8,15.3-18.3,26.8c2.1,15.9,16.3,20.9,28.9,25.3c6.9,2.4,13.3,4.7,17.2,8.4c3.5,3.3,5.3,7.5,5.3,11.9   c0,4.3-2,8.5-5.5,11.6c-3.9,3.5-9.2,5.5-16,6c-5.1,0.3-11-0.3-18.2-1.6c-1.7-0.3-3.6-0.7-5.2-1.2c-2.6-0.8-5.3,0.7-6.1,3.3   c-0.8,2.6,0.7,5.3,3.3,6.1c2.1,0.6,4.3,1.1,6.2,1.4c5.8,1.1,10.7,1.6,15.3,1.8v9.4c0,2.7,2.2,4.9,4.9,4.9s4.9-2.2,4.9-4.9v-10   c7-1.2,12.8-3.7,17.4-7.9c5.6-5,8.7-11.6,8.8-18.8c0.1-7.2-2.9-13.9-8.3-19C145,182.9,137.2,180.2,129.6,177.5z"/>

</g>

</svg>