<?xml version="1.0" ?>


<svg fill="#000000" width="800px" height="800px" viewBox="0 0 256 256" id="Layer_1" version="1.1" xml:space="preserve" xmlns="http://www.w3.org/2000/svg" xmlns:xlink="http://www.w3.org/1999/xlink">

<g>

<path d="M162.2,92.6c-18.9-18.9-49.6-18.9-68.4,0c-9.1,9.1-14.2,21.3-14.2,34.2s5,25.1,14.2,34.2c3.9,3.9,8.3,7,13.2,9.4l0.3,60.3   c0,1.3,0.5,2.5,1.4,3.4l17.7,17.7c1,1,2.2,1.4,3.5,1.4s2.5-0.5,3.5-1.4l11.8-11.8c0.9-0.9,1.4-2.2,1.4-3.5l-0.2-65   c5.9-2.4,11.3-6,15.8-10.6C181.1,142.2,181.1,111.5,162.2,92.6z M142,162.7c-3.3,1.3-5.4,4.4-5.5,8.1l0.2,63.8l-6.9,6.9l-12.8-12.8   l-0.3-61.5c0-2-1.2-3.8-3.1-4.5c-4.9-1.9-9.2-4.8-13-8.6c-7.3-7.3-11.3-17-11.3-27.3s4-20,11.3-27.3c15-15,39.5-15,54.5,0   c15,15,15,39.5,0,54.5C151.5,157.9,147,160.8,142,162.7z"/>

<path d="M119.9,111.1c-4.5,4.5-4.5,11.8,0,16.3c4.5,4.5,11.8,4.5,16.3,0c4.5-4.5,4.5-11.8,0-16.3   C131.7,106.6,124.4,106.6,119.9,111.1z"/>

<path d="M243.3,107.5c-5.5-5-13-7.3-20.4-6.4l-2.8,0.4c-8.9-32.3-34.5-57.8-66.7-66.7l0.4-2.8c0.1-1.1,0.2-2.2,0.2-3.4   c0-14.3-11.6-25.9-25.8-25.9c-7.3,0-14.4,3.2-19.5,8.9c-4.8,5.5-7.1,12.9-6.2,20.4l0.4,2.8C70.4,43.6,44.9,69.2,36,101.5l-2.9-0.3   c-7.3-1-14.7,1.3-20.3,6.2c-5.6,4.9-8.9,12-8.9,19.4c0,7.5,3.2,14.6,8.8,19.5c5.5,4.9,12.9,7.2,20.4,6.3l2.9-0.4   c6.8,24.8,23.5,45.9,46.1,58.3c2.4,1.3,5.4,0.4,6.7-1.9c1.3-2.4,0.4-5.4-1.9-6.7c-21.5-11.8-37-32.4-42.4-56.3   c-0.6-2.5-2.9-4.1-5.5-3.8l-7.1,1c-4.6,0.5-9.3-0.9-12.7-3.9c-3.5-3.1-5.5-7.5-5.5-12.1c0-4.6,2-9,5.5-12c3.5-3,8-4.4,12.6-3.8   l7.2,0.9c2.5,0.3,4.8-1.3,5.4-3.8c7.2-32.1,32.6-57.5,64.7-64.7c2.5-0.6,4.1-2.9,3.8-5.4l-0.9-7.1c-0.5-4.6,0.9-9.3,3.9-12.7   c3.2-3.5,7.6-5.6,12.1-5.6c8.8,0,16,7.2,16,16c0,0.7,0,1.4-0.1,2.1l-0.9,7.2c-0.3,2.5,1.3,4.9,3.8,5.4   c32.1,7.2,57.5,32.6,64.7,64.7c0.6,2.5,2.9,4.1,5.4,3.8l7.1-0.9c4.6-0.6,9.2,0.9,12.7,4c3.5,3,5.5,7.3,5.5,11.9c0,4.6-2,9-5.5,12.1   c-3.5,3.1-8,4.5-12.5,3.9l-7.2-1c-2.5-0.3-4.9,1.3-5.5,3.8c-5.4,23.9-20.9,44.5-42.5,56.3c-2.4,1.3-3.2,4.3-1.9,6.7   c0.9,1.6,2.6,2.5,4.3,2.5c0.8,0,1.6-0.2,2.4-0.6c22.7-12.5,39.4-33.6,46.2-58.4l2.8,0.4c7.3,0.9,14.7-1.3,20.3-6.3   c5.6-5,8.9-12.1,8.9-19.5C252.1,119.3,248.8,112.2,243.3,107.5z"/>

</g>

</svg>