<?xml version="1.0" ?>


<svg width="800px" height="800px" viewBox="0 0 20 20" version="1.1" xmlns="http://www.w3.org/2000/svg">

<g id="layer1">

<path d="M 5 4 L 5 17 L 11 17 C 12.704976 17 14 15.382037 14 13.5 C 14 11.97373 13.141496 10.63652 11.910156 10.179688 C 12.577077 9.5291236 13 8.5631208 13 7.5 C 13 5.6179626 11.704976 4 10 4 L 5 4 z M 6 5 L 7 5 L 7 9 L 8 9 L 8 5 L 10 5 C 11.056448 5 12 6.0683294 12 7.5 C 12 8.9316701 11.056448 10 10 10 L 6 10 L 6 5 z M 6 11 L 7 11 L 7 15 L 8 15 L 8 11 L 10 11 L 11 11 C 12.056448 11 13 12.068329 13 13.5 C 13 14.931671 12.056448 16 11 16 L 6 16 L 6 11 z " style="fill:#222222; fill-opacity:1; stroke:none; stroke-width:0px;"/>

</g>

</svg>