<?xml version="1.0" ?>

<!DOCTYPE svg  PUBLIC '-//W3C//DTD SVG 1.1//EN'  'http://www.w3.org/Graphics/SVG/1.1/DTD/svg11.dtd'>


<svg fill="#000000" width="800px" height="800px" viewBox="0 0 1806222 1806222" style="shape-rendering:geometricPrecision; text-rendering:geometricPrecision; image-rendering:optimizeQuality; fill-rule:evenodd; clip-rule:evenodd" version="1.1" xml:space="preserve" xmlns="http://www.w3.org/2000/svg" xmlns:xlink="http://www.w3.org/1999/xlink">

<defs>

<style type="text/css">
   <![CDATA[
    .fil0 {fill:black;fill-rule:nonzero}
   ]]>
  </style>

</defs>

<g id="Layer_x0020_1">

<path class="fil0" d="M0 903111c0,-249381 101089,-475169 264516,-638595 163426,-163427 389214,-264516 638595,-264516 249381,0 475169,101089 638596,264516 163426,163426 264515,389214 264515,638595 0,249381 -101089,475169 -264515,638596 -163427,163426 -389215,264515 -638596,264515 -249381,0 -475169,-101089 -638595,-264515 -163427,-163427 -264516,-389215 -264516,-638596zm915154 -599395l-252 -180 -404 -281 -183 -122 -224 -146 -419 -261 -420 -249 -232 -130 -200 -110 -240 -126 -118 -61 -77 -45 -45 -20 -122 -61 -122 -62 -119 -57 -32 -20 -90 -41 -126 -57 -122 -57 -110 -53 -12 -4 -127 -57 -122 -53 -126 -53 -69 -32 -57 -21 -127 -53 -126 -52 -126 -49 -25 -13 -101 -40 -127 -49 -130 -49 -106 -41 -20 -4 -130 -49 -131 -45 -130 -44 -61 -21 -65 -20 -135 -45 -130 -41 -130 -44 -13 -4 -118 -33 -134 -41 -131 -40 -97 -29 -37 -8 -130 -37 -135 -36 -268 -70 -135 -32 -134 -33 -135 -32 -4 -4 -269 -58 -134 -28 -90 -20 -48 -9 -139 -24 -134 -28 -277 -49 -139 -25 -138 -20c-460,-73 -929,-135 -1401,-175l-143 -12 -285 -21 -142 -8 -143 -8 -142 -8 -448 -21 -526 -8 -4 4 -489 4 -32 0 -522 21 -423 28 -45 4 -187 13 -45 4 -45 4 -45 4 -48 4 -45 4 -45 4 -45 4 -138 16 -45 4 -45 4 -45 5 -49 8 -44 4 -45 4 -45 4 -45 8 -45 4 -93 12 -45 4 -45 9 -45 4 -45 8 -44 4 -45 8 -171 24 -310 53 -484 86 -212 41 -269 61 -61 12 -61 12 -774 192 -61 16 -57 16 -61 16 -57 17 -179 53 -57 16 -61 16 -119 37 -57 16 -236 74 -57 20 -256 81 -212 74 -464 171 -261 97 -460 188 -200 85 -256 114 -196 90 -252 118 -200 98 -240 122 -204 106 -232 126 -432 240 -212 123 -207 126 -224 134 -196 127 -407 268 -244 167 -159 114 -395 285 -269 204 -122 98 -281 224 -98 81 -301 249 -74 65 -317 281 -49 45 -334 309 -25 25 -346 342 -4 0 -381431 381435c-7950,7950 -7950,20844 0,28794 7950,7950 20844,7950 28794,0l346675 -346678 0 1067637 -346675 -346679c-7950,-7950 -20844,-7950 -28794,0 -7950,7950 -7950,20844 0,28794l381431 381436 4 0 346 342 25 24 334 310 49 44 317 281 74 66 301 248 98 81 281 224 122 98 269 204 395 285 159 114 244 167 407 269 196 126 224 134 207 127 212 122 432 240 232 126 204 106 240 122 200 98 252 118 196 90 256 114 200 86 460 187 261 98 464 171 212 73 256 81 57 21 236 73 57 16 57 17 62 20 57 16 61 17 175 53 61 16 57 16 61 16 57 17 778 191 61 12 61 13 269 61 212 40 484 86 310 53 171 24 45 8 44 5 45 8 45 4 45 8 45 4 93 12 45 4 45 8 45 4 45 5 44 4 49 8 45 4 45 4 45 4 138 16 45 4 45 4 45 4 48 5 45 4 45 4 45 4 187 12 45 4 423 29 522 20 32 0 489 4 4 4 526 -8 448 -20 142 -9 143 -8 142 -8 143 -8 24 0 118 -12 143 -12 142 -13 982 -118 138 -20 9 0 130 -25 138 -20 139 -24 277 -49 138 -29 135 -24 48 -8 90 -21 134 -28 139 -33 130 -24 4 -4 135 -33 134 -32 135 -33 268 -69 135 -37 134 -37 33 -8 97 -32 135 -37 130 -41 131 -40 134 -41 130 -45 131 -41 65 -20 65 -24 130 -45 127 -45 256 -94 130 -49 127 -48 101 -37 25 -12 126 -53 126 -49 127 -53 57 -20 69 -33 126 -53 122 -57 249 -110 122 -57 248 -118 123 -61 118 -57 122 -61 45 -21 77 -44 118 -62 240 -126 200 -110 232 -130 420 -249 419 -260 224 -147 183 -122 404 -281 252 -179 41 -29 37 -28 40 -29 25 -20 12 -8 41 -33 36 -28 41 -29 37 -28 40 -33 37 -28 41 -29 36 -33 37 -28 33 -25 8 -4 36 -32 37 -29 41 -32 37 -29 36 -32 41 -29 37 -32 36 -29 37 -33 32 -24 9 -4 36 -33 37 -32 37 -29 36 -32 37 -33 37 -32 36 -29 37 -33 146 -126 37 -32 37 -33 36 -33 37 -32 37 -33 36 -32 37 -33 106 -98 37 -32 36 -33 281 -269 33 -32 36 -37 37 -32 33 -33 36 -37 33 -32 37 -37 32 -32 4 0 342 -347 381090 -381089c7950,-7950 7950,-20844 0,-28794 -7950,-7950 -20845,-7950 -28795,0l-346670 346671 0 -1067621 346670 346670c7950,7950 20845,7950 28795,0 7950,-7950 7950,-20844 0,-28794l-381090 -381089 -342 -346 -4 0 -32 -33 -37 -36 -33 -33 -36 -37 -33 -32 -37 -33 -32 -37 -37 -32 -281 -269 -36 -33 -37 -32 -69 -65 0 -4 -37 -29 -37 -32 -36 -33 -37 -33 -37 -32 -32 -33 -37 -32 -36 -33 -37 -28 -37 -33 -4 -8 -32 -25 -37 -32 -37 -33 -36 -28 -37 -33 -37 -32 -40 -33 -37 -29 -37 -32 -36 -33 -9 -4 -28 -24 -37 -33 -40 -28 -37 -33 -37 -28 -36 -33 -41 -28 -37 -33 -36 -29 -41 -32 -8 -4 -29 -25 -41 -28 -36 -33 -37 -28 -41 -29 -77 -61 -37 -28 -40 -29 -41 -32 -12 -9 -25 -20 -40 -28 -37 -29 -41 -28zm-621844 -10406c-156055,156054 -252583,371656 -252583,609801 0,238145 96528,453747 252583,609802 156054,156054 371656,252582 609801,252582 238145,0 453747,-96528 609802,-252582 156054,-156055 252582,-371657 252582,-609802 0,-238145 -96528,-453747 -252582,-609801 -156055,-156055 -371657,-252583 -609802,-252583 -238145,0 -453747,96528 -609801,252583z" id="Curve_x0020_12"/>

</g>

</svg>