<?xml version="1.0" encoding="utf-8"?>


<svg version="1.1" id="Icons" xmlns="http://www.w3.org/2000/svg" xmlns:xlink="http://www.w3.org/1999/xlink" 
	 viewBox="0 0 32 32" xml:space="preserve">
<style type="text/css">
	.st0{fill:none;stroke:#000000;stroke-width:2;stroke-linecap:round;stroke-linejoin:round;stroke-miterlimit:10;}
	.st1{fill:none;stroke:#000000;stroke-width:2;stroke-linejoin:round;stroke-miterlimit:10;}
</style>
<line class="st0" x1="16" y1="3" x2="16" y2="6"/>
<line class="st0" x1="16" y1="10" x2="16" y2="13"/>
<path class="st0" d="M16,10L16,10c-1.1,0-2-0.9-2-2v0c0-1.1,0.9-2,2-2h0c1.1,0,2,0.9,2,2v0C18,9.1,17.1,10,16,10z"/>
<path class="st0" d="M7,14.1c2.3-0.7,5.5-1.1,9-1.1c3.5,0,6.7,0.4,9,1.1"/>
<path class="st0" d="M16,29L16,29c-5,0-9-4-9-9v-5.9V9c0-3.3,2.7-6,6-6h6c3.3,0,6,2.7,6,6v11C25,25,21,29,16,29z"/>
</svg>