<?xml version="1.0" encoding="utf-8"?>


<svg version="1.1" id="Icons" xmlns="http://www.w3.org/2000/svg" xmlns:xlink="http://www.w3.org/1999/xlink" 
	 viewBox="0 0 32 32" xml:space="preserve">
<style type="text/css">
	.st0{fill:none;stroke:#000000;stroke-width:2;stroke-linecap:round;stroke-linejoin:round;stroke-miterlimit:10;}
	.st1{fill:none;stroke:#000000;stroke-width:2;stroke-linejoin:round;stroke-miterlimit:10;}
</style>
<polyline class="st0" points="25,17 9,17 13,14 "/>
<polyline class="st0" points="29,6 29,4 3,4 3,23 14,23 "/>
<polyline class="st0" points="15,29 10,29 12,26 "/>
<line class="st0" x1="18" y1="23" x2="29" y2="23"/>
<line class="st0" x1="22" y1="26" x2="25" y2="26"/>
<path class="st0" d="M18,20v7c0,1.1,0.9,2,2,2h7c1.1,0,2-0.9,2-2V12c0-1.1-0.9-2-2-2h-7c-1.1,0-2,0.9-2,2v2"/>
</svg>