<?xml version="1.0" encoding="utf-8"?>


<svg version="1.1" id="Icons" xmlns="http://www.w3.org/2000/svg" xmlns:xlink="http://www.w3.org/1999/xlink" 
	 viewBox="0 0 32 32" xml:space="preserve">
<style type="text/css">
	.st0{fill:none;stroke:#000000;stroke-width:2;stroke-linecap:round;stroke-linejoin:round;stroke-miterlimit:10;}
	.st1{fill:none;stroke:#000000;stroke-width:2;stroke-linejoin:round;stroke-miterlimit:10;}
</style>
<path class="st0" d="M29,14.1V11c0-1.1-0.9-2-2-2h-4l-1.4-2.9c-0.3-0.7-1-1.1-1.8-1.1h-7.5c-0.8,0-1.5,0.4-1.8,1.1L9,9H5
	c-1.1,0-2,0.9-2,2v14c0,1.1,0.9,2,2,2h8.1"/>
<line class="st0" x1="6" y1="12" x2="8" y2="12"/>
<circle class="st0" cx="22" cy="22" r="7"/>
<polyline class="st0" points="22,17.3 22,22 25.5,20.8 "/>
<path class="st0" d="M15.1,22.9C12.2,22.5,10,20,10,17c0-3.3,2.7-6,6-6c2.6,0,4.8,1.7,5.7,4"/>
</svg>