<?xml version="1.0" encoding="utf-8"?>


<svg version="1.1" id="Icons" xmlns="http://www.w3.org/2000/svg" xmlns:xlink="http://www.w3.org/1999/xlink" 
	 viewBox="0 0 32 32" xml:space="preserve">
<style type="text/css">
	.st0{fill:none;stroke:#000000;stroke-width:2;stroke-linecap:round;stroke-linejoin:round;stroke-miterlimit:10;}
	.st1{fill:none;stroke:#000000;stroke-width:2;stroke-linejoin:round;stroke-miterlimit:10;}
</style>
<line class="st0" x1="3" y1="19" x2="16" y2="19"/>
<line class="st0" x1="8" y1="29" x2="17" y2="29"/>
<path class="st0" d="M11.2,29c1.1-1.4,1.8-3.9,1.8-6H5c-1.1,0-2-0.9-2-2V6c0-1.1,0.9-2,2-2h20c1.1,0,2,0.9,2,2v6"/>
<circle class="st0" cx="24" cy="20" r="5"/>
<path class="st0" d="M25,25h-2l-2.8,2.2c-0.7,0.6-0.3,1.8,0.6,1.8h6.3c0.9,0,1.4-1.2,0.6-1.8L25,25z"/>
<circle class="st0" cx="24" cy="20" r="1"/>
</svg>