<?xml version="1.0" encoding="utf-8"?>


<svg version="1.1" id="Icons" xmlns="http://www.w3.org/2000/svg" xmlns:xlink="http://www.w3.org/1999/xlink" 
	 viewBox="0 0 32 32" xml:space="preserve">
<style type="text/css">
	.st0{fill:none;stroke:#000000;stroke-width:2;stroke-linecap:round;stroke-linejoin:round;stroke-miterlimit:10;}
	.st1{fill:none;stroke:#000000;stroke-width:2;stroke-linejoin:round;stroke-miterlimit:10;}
</style>
<path class="st0" d="M15,3v1.3C15,5.2,14.2,6,13.3,6h-2.6C9.8,6,9,5.2,9,4.3V3"/>
<path class="st0" d="M19,7V5c0-1.1-0.9-2-2-2H7C5.9,3,5,3.9,5,5v22c0,1.1,0.9,2,2,2h10c1.1,0,2-0.9,2-2v-2"/>
<path class="st0" d="M17,18h10l-0.9-1.3C25.4,15.6,25,14.3,25,13v0c0-1.7-1.3-3-3-3h0c-1.7,0-3,1.3-3,3v0c0,1.3-0.4,2.6-1.1,3.7
	L17,18z"/>
<path class="st0" d="M24,20c0,1.1-0.9,2-2,2s-2-0.9-2-2"/>
<line class="st0" x1="9" y1="25" x2="15" y2="25"/>
</svg>