<?xml version="1.0" encoding="utf-8"?>


<svg version="1.1" id="Icons" xmlns="http://www.w3.org/2000/svg" xmlns:xlink="http://www.w3.org/1999/xlink" 
	 viewBox="0 0 32 32" xml:space="preserve">
<style type="text/css">
	.st0{fill:none;stroke:#000000;stroke-width:2;stroke-linecap:round;stroke-linejoin:round;stroke-miterlimit:10;}
	.st1{fill:none;stroke:#000000;stroke-width:2;stroke-linejoin:round;stroke-miterlimit:10;}
</style>
<circle class="st0" cx="16" cy="14" r="5"/>
<circle class="st0" cx="16" cy="14" r="1"/>
<path class="st0" d="M20.3,23.3l2,2.4c1.1,1.3,0.1,3.3-1.5,3.3h-9.5c-1.7,0-2.6-2-1.5-3.3l2-2.4"/>
<path class="st0" d="M27,23H5c-1.1,0-2-0.9-2-2V7c0-1.1,0.9-2,2-2h22c1.1,0,2,0.9,2,2v14C29,22.1,28.1,23,27,23z"/>
<line class="st0" x1="3" y1="3" x2="29" y2="29"/>
<line class="st0" x1="23" y1="9" x2="25" y2="9"/>
</svg>