<?xml version="1.0" encoding="iso-8859-1"?>

<!DOCTYPE svg PUBLIC "-//W3C//DTD SVG 1.1//EN" "http://www.w3.org/Graphics/SVG/1.1/DTD/svg11.dtd">

<svg version="1.1" xmlns="http://www.w3.org/2000/svg" xmlns:xlink="http://www.w3.org/1999/xlink" 
	 viewBox="0 0 512 512" xml:space="preserve">
<g id="elephant">
	<rect x="409.6" y="159.6" width="25.6" height="25.6"/>
	<g>
		<rect x="410" y="236" style="fill:#FFFFFF;" width="25" height="26"/>
		<rect x="435" y="262" style="fill:#FFFFFF;" width="26" height="26"/>
	</g>
	<g>
		<polygon style="fill:#959186;" points="435,160 435,185 410,185 410,160 435,160 435,134 435,108 410,108 410,83 384,83 358,83 
			358,108 333,108 333,134 307,134 307,108 281.6,108 256,108 230.4,108 204.8,108 179.2,108 154,108 154,134 128,134 102,134 
			102,160 77,160 77,185 51,185 51,210.8 51,236.4 51,262 51,287.6 51,313.2 51,339 77,339 77,313.2 77,288 102,288 102,313.2 
			102,338.8 102,364.4 102,390 102,415.6 102,441.2 102,467 128,467 128,441.2 128,415.6 128,390 128,364 153.6,364 179.2,364 
			204.8,364 230.4,364 256,364 282,364 282,390 282,415.6 282,441.2 282,467 307,467 307,441.2 307,415.6 307,390 307,364 
			332.8,364 358,364 358,338.8 358,313 384,313 384,288 409.6,288 435,288 435,262 410,262 410,236 435,236 435,262 461,262 
			461,236.4 461,210.8 461,185.2 461,160 		"/>
		<polygon style="fill:#959186;" points="435,338.8 435,364.4 435,390 461,390 461,364.4 461,338.8 461,313.2 461,288 435,288 
			435,313.2 		"/>
	</g>
	<g>
		<polygon style="fill:#66645D;" points="154,390 154,415.6 154,441.2 154,467 179,467 179,441.2 179,415.6 179,390 179,364 
			154,364 		"/>
		<polygon style="fill:#66645D;" points="333,364 333,390 333,415.6 333,441.2 333,467 358,467 358,441.2 358,415.6 358,390 
			358,364 		"/>
	</g>
</g>
<g id="Layer_1">
</g>
</svg>