<?xml version="1.0" ?>


<svg fill="#000000" width="800px" height="800px" viewBox="0 0 100 100" enable-background="new 0 0 100 100" id="Layer_1" version="1.1" xml:space="preserve" xmlns="http://www.w3.org/2000/svg" xmlns:xlink="http://www.w3.org/1999/xlink">

<g>

<path d="M43.04,65.078c0.002,0.001,0.004,0.001,0.006,0.002c0.002,0.001,0.003,0.002,0.004,0.003   c1.586,0.775,3.482,1.165,5.496,1.165c1.862,0,3.824-0.333,5.737-1c6.69-2.336,10.823-8.071,9.215-12.784   c-0.009-0.026-0.019-0.052-0.031-0.077c-1.131-3.178-4.656-5.17-9.133-5.233c-1.29-4.22-4.08-6.963-7.417-7.23   c-0.003,0-0.005-0.001-0.008-0.001c-0.011-0.001-0.021-0.003-0.032-0.004c-1.882-0.132-3.734,0.535-5.356,1.944   c-2.552,2.217-4.246,6.044-4.53,10.237C36.59,58.083,39.075,63.406,43.04,65.078z M53.637,63.399   c-1.309,0.456-2.636,0.738-3.921,0.845c0.263-0.184,0.524-0.379,0.777-0.599c2.454-2.133,4.099-5.755,4.474-9.787   c2.671-1.81,5.683-0.843,6.775-0.384C62.649,57.105,59.124,61.483,53.637,63.399z M55.041,51.566   c-0.026-0.826-0.099-1.639-0.237-2.431c2.208,0.112,4.073,0.778,5.338,1.858C58.691,50.743,56.861,50.737,55.041,51.566z    M52.646,48.378c0.39,1.534,0.532,3.17,0.42,4.901c-0.247,3.681-1.688,7.004-3.857,8.889c-0.457,0.397-0.933,0.716-1.42,0.956   c0.67-1.027,1.292-2.368,1.455-3.96c0.244-2.391-0.592-4.758-2.485-7.035c-1.539-1.852-2.226-3.725-2.044-5.568   c0.228-2.301,1.744-3.99,2.396-4.62C49.589,42.342,51.738,44.802,52.646,48.378z M38.944,52.231c0.25-3.684,1.693-7.008,3.861-8.89   c0.455-0.396,0.93-0.713,1.417-0.952c-0.669,1.026-1.29,2.366-1.452,3.956c-0.244,2.391,0.592,4.758,2.484,7.035   c1.539,1.852,2.226,3.725,2.044,5.567c-0.243,2.455-1.957,4.218-2.514,4.733c-0.284-0.101-0.565-0.207-0.829-0.334   c-0.017-0.009-0.036-0.013-0.053-0.022c-0.019-0.009-0.035-0.023-0.055-0.031C40.664,61.988,38.602,57.336,38.944,52.231z"/>

<path d="M79.027,12.689H74.95l-2.097-6.991C72.728,5.283,72.347,5,71.914,5H28.086c-0.432,0-0.814,0.283-0.938,0.698l-2.097,6.991   h-4.077c-0.541,0-0.979,0.438-0.979,0.979v7.689c0,0.541,0.438,0.979,0.979,0.979h1.779l5.116,71.755   C27.905,94.603,28.331,95,28.845,95h42.309c0.513,0,0.94-0.397,0.976-0.909l5.116-71.755h1.78c0.541,0,0.979-0.438,0.979-0.979   v-7.689C80.006,13.128,79.568,12.689,79.027,12.689z M28.814,6.958h42.372l1.72,5.731H27.095L28.814,6.958z M29.757,93.042   l-0.312-4.371h41.109l-0.312,4.371H29.757z M70.694,86.714H29.305l-4.59-64.377h50.569L70.694,86.714z M78.048,20.379h-1.712   H23.664h-1.712v-5.731h3.827h48.442h3.827V20.379z"/>

<path d="M50,73.772c11.411,0,20.696-9.284,20.696-20.696S61.411,32.38,50,32.38c-11.412,0-20.696,9.284-20.696,20.696   S38.588,73.772,50,73.772z M50,34.338c10.332,0,18.738,8.406,18.738,18.738S60.332,71.814,50,71.814   c-10.333,0-18.738-8.406-18.738-18.738S39.667,34.338,50,34.338z"/>

</g>

</svg>