<?xml version="1.0" ?>


<svg fill="#000000" width="800px" height="800px" viewBox="0 0 100 100" enable-background="new 0 0 100 100" id="Layer_1" version="1.1" xml:space="preserve" xmlns="http://www.w3.org/2000/svg" xmlns:xlink="http://www.w3.org/1999/xlink">

<g>

<path d="M80.405,5.03H24.641c-0.553,0-1,0.438-1,0.978v19.888c0,0.54,0.447,0.978,1,0.978h1.927v1.108l-12.82-0.743   c-1.061-0.059-2.089,0.309-2.853,1.013c-0.764,0.704-1.202,1.697-1.202,2.724c0,1.027,0.438,2.02,1.202,2.725   c0.71,0.654,1.657,1.019,2.628,1.019c0.074,0,0.149-0.002,0.225-0.007l12.969-0.751c0.468,1.762,2.094,3.072,4.039,3.072h1.233   l2.851,7.787c0.143,0.389,0.52,0.649,0.941,0.649s0.799-0.259,0.941-0.649l2.851-7.787h1.233c2.309,0,4.188-1.837,4.188-4.096   v-6.04c12.754,0.476,22.98,10.766,22.98,23.355v22.562c0,0.172-0.143,0.311-0.317,0.311H24.641c-0.553,0-1,0.438-1,0.978v19.888   c0,0.54,0.447,0.978,1,0.978h56.022c5.318,0,9.645-4.231,9.645-9.433V14.715C90.308,9.375,85.865,5.03,80.405,5.03z M35.78,41.589   l-1.668-4.556h3.336L35.78,41.589z M13.628,32.76c-0.499,0.026-0.991-0.142-1.361-0.483c-0.37-0.341-0.574-0.803-0.574-1.301   c0-0.498,0.204-0.959,0.574-1.301c0.343-0.316,0.783-0.487,1.25-0.487c0.037,0,0.074,0.001,0.111,0.003l12.939,0.75v2.069   L13.628,32.76z M42.993,32.937c0,1.18-0.981,2.14-2.188,2.14H30.755c-1.206,0-2.188-0.96-2.188-2.14v-0.005V29.02v-2.145h14.426   V32.937z M88.308,85.537c0,4.122-3.43,7.476-7.645,7.476H25.641V75.082h42.016c1.277,0,2.317-1.017,2.317-2.268V50.252   c0-13.969-11.619-25.334-25.901-25.334h-0.079H27.567h-1.927V6.986h54.765c4.357,0,7.902,3.467,7.902,7.729V85.537z"/>

<path d="M73.32,11.46c-5.776,0-10.477,4.597-10.477,10.246c0,5.65,4.7,10.247,10.477,10.247s10.477-4.597,10.477-10.247   C83.797,16.057,79.097,11.46,73.32,11.46z M73.32,29.998c-4.674,0-8.477-3.719-8.477-8.291s3.803-8.29,8.477-8.29   s8.477,3.719,8.477,8.29S77.994,29.998,73.32,29.998z"/>

</g>

</svg>