<?xml version="1.0" ?>
<svg fill="#000000" width="800px" height="800px" viewBox="0 0 100 100" enable-background="new 0 0 100 100" id="Layer_1" version="1.1" xml:space="preserve" xmlns="http://www.w3.org/2000/svg" xmlns:xlink="http://www.w3.org/1999/xlink"><path d="M94.509,45.907C94.509,45.907,94.509,45.907,94.509,45.907L83.51,24.951c-0.171-0.326-0.509-0.53-0.878-0.53H66.49v-8.883  c0-0.507-0.383-0.932-0.887-0.985L6.145,8.283c-0.38-0.037-0.743,0.138-0.943,0.459C5,9.063,5,9.47,5.199,9.792l9.882,15.904v5.906  C8.581,38.306,5,47.122,5,56.483c0,2.72,0.32,5.384,0.905,7.963c0.005,0.034,0.015,0.065,0.024,0.098  c2.143,9.325,7.944,17.462,16.279,22.518l-1.84,3.172c-0.178,0.307-0.179,0.685-0.002,0.992c0.177,0.307,0.505,0.496,0.859,0.496  h39.123c0.354,0,0.682-0.189,0.858-0.496c0.177-0.307,0.177-0.685-0.001-0.992l-1.84-3.172c8.332-5.054,14.13-13.187,16.276-22.507  c0.009-0.033,0.018-0.064,0.024-0.097c0.587-2.583,0.908-5.251,0.908-7.974c0-8.73-3.117-16.986-8.808-23.497H78.1l8.826,16.892  c0.529,1.013,1.421,1.76,2.513,2.102c0.423,0.133,0.855,0.198,1.285,0.198c0.681,0,1.357-0.164,1.977-0.489  c1.015-0.53,1.761-1.423,2.103-2.516C95.144,48.08,95.04,46.921,94.509,45.907z M17.063,31.004v-4.601h47.446v4.601H17.063z   M64.508,16.43v7.992H16.623L7.952,10.466L64.508,16.43z M22.944,89.74l0.832-1.434h0.884H56.91h0.884l0.832,1.434H22.944z   M56.664,86.325H24.906c-8.561-4.556-14.59-12.427-16.886-21.564c3.382-2.017,20.527-11.295,32.064,0.241  c4.696,4.696,10.196,6.257,15.433,6.257c7.399,0,14.253-3.109,17.59-4.898C70.535,74.812,64.722,82.037,56.664,86.325z   M73.812,63.684c-2.613,1.605-20.428,11.813-32.326-0.083c-11.985-11.986-29.197-3.551-33.912-0.87  c-0.381-2.038-0.593-4.124-0.593-6.248c0-8.838,3.372-17.166,9.506-23.497h48.595c6.133,6.331,9.506,14.659,9.506,23.497  C74.589,58.939,74.318,61.348,73.812,63.684z M92.912,48.581c-0.184,0.587-0.584,1.067-1.129,1.351  c-0.545,0.284-1.167,0.34-1.751,0.156c-0.586-0.184-1.065-0.584-1.349-1.128l-9.105-17.424c-0.171-0.327-0.51-0.532-0.879-0.532  H66.49v-4.601h15.544l10.72,20.425C93.039,47.372,93.095,47.995,92.912,48.581z"/></svg>