<?xml version="1.0" ?>
<svg width="800px" height="800px" viewBox="0 0 200 200" data-name="Layer 1" id="Layer_1" xmlns="http://www.w3.org/2000/svg"><defs><style>.cls-1,.cls-3{fill:#ffc861;}.cls-1,.cls-4,.cls-6{stroke:#2f4360;stroke-width:6px;}.cls-1{stroke-miterlimit:10;}.cls-2,.cls-4{fill:#ffffff;}.cls-4,.cls-6{stroke-linecap:round;stroke-linejoin:round;}.cls-5{fill:#2f4360;}.cls-6{fill:none;}</style></defs><title/><rect class="cls-1" height="117" rx="9.25" ry="9.25" width="134" x="33" y="38"/><path class="cls-1" d="M25.18,135.33H174.82a0.91,0.91,0,0,1,.91.91V194.5a0,0,0,0,1,0,0H24.28a0,0,0,0,1,0,0V136.24A0.91,0.91,0,0,1,25.18,135.33Z"/><rect class="cls-2" height="180" width="112" x="44" y="14.5"/><rect class="cls-3" height="180" rx="7.47" ry="7.47" width="101" x="54.79" y="14.5"/><rect class="cls-4" height="22.33" width="22" x="89" y="24.5"/><rect class="cls-4" height="22.33" width="22" x="122.17" y="24.5"/><rect class="cls-4" height="22.33" width="22" x="55.83" y="24.5"/><rect class="cls-4" height="22.33" width="22" x="89" y="55.83"/><rect class="cls-4" height="22.33" width="22" x="122.17" y="55.83"/><rect class="cls-4" height="22.33" width="22" x="55.83" y="55.83"/><rect class="cls-4" height="22.33" width="22" x="89" y="87.17"/><rect class="cls-4" height="22.33" width="22" x="122.17" y="87.17"/><rect class="cls-4" height="22.33" width="22" x="55.83" y="87.17"/><rect class="cls-4" height="22.33" width="22" x="122.17" y="118.5"/><rect class="cls-4" height="22.33" width="22" x="89" y="118.5"/><rect class="cls-4" height="22.33" width="22" x="55.83" y="118.5"/><rect class="cls-4" height="22.33" width="22" x="89" y="149.83"/><rect class="cls-4" height="22.33" width="22" x="122.17" y="149.83"/><rect class="cls-4" height="22.33" width="22" x="55.83" y="149.83"/><rect class="cls-2" height="40.67" rx="0.94" ry="0.94" width="22" x="89" y="150.83"/><path class="cls-5" d="M108,153.83V188.5H92V153.83h16m2.06-6H89.94A3.94,3.94,0,0,0,86,151.77v38.79a3.94,3.94,0,0,0,3.94,3.94h20.12a3.94,3.94,0,0,0,3.94-3.94V151.77a3.94,3.94,0,0,0-3.94-3.94h0Z"/><path class="cls-6" d="M46.87,5.5H153.13A2.87,2.87,0,0,1,156,8.37V194.5a0,0,0,0,1,0,0H44a0,0,0,0,1,0,0V8.37A2.87,2.87,0,0,1,46.87,5.5Z"/></svg>