<?xml version="1.0" ?>
<svg width="800px" height="800px" viewBox="0 0 200 200" data-name="Layer 1" id="Layer_1" xmlns="http://www.w3.org/2000/svg"><defs><style>.cls-1{fill:#223244;}.cls-2{fill:#b7b7b7;}.cls-3{fill:#ffffff;}.cls-4{fill:#ffc861;}.cls-5{fill:#bf9649;}.cls-6{fill:#fff4df;}.cls-7,.cls-9{fill:none;stroke:#2f4360;stroke-linecap:round;stroke-linejoin:round;}.cls-7{stroke-width:6.18px;}.cls-8{fill:#2f4360;}.cls-9{stroke-width:6px;}</style></defs><title/><rect class="cls-1" height="133.25" transform="translate(-35.56 85.79) rotate(-45)" width="8" x="81.77" y="19.2"/><polygon class="cls-2" points="20.34 14.59 14.54 20.39 28.39 37 35.83 41.54 41.49 35.88 36.95 28.45 20.34 14.59"/><path class="cls-3" d="M137.13,117.36a6.38,6.38,0,0,0,5.45,5,7.06,7.06,0,0,1,4.32,2l33.38,33.38c5.77,5.77,6.75,14.42,2.81,20.69a15.19,15.19,0,0,1-2.67,3.17c-6.39,5.79-16.64,4.9-23.1-1.57l-33-33a7.06,7.06,0,0,1-2-4.32,6.38,6.38,0,0,0-5-5.45,11.12,11.12,0,0,1-5.75-2.94l-4.46-4.46,22.63-22.63,4.46,4.46A11.12,11.12,0,0,1,137.13,117.36Z"/><path class="cls-4" d="M137.13,117.36a6.38,6.38,0,0,0,5.45,5,7.06,7.06,0,0,1,4.32,2l33.38,33.38c5.77,5.77,6.75,14.42,2.81,20.69-6.38,4-15.25,2.7-21.06-3.11l-33-33a7.06,7.06,0,0,1-2-4.32,6.36,6.36,0,0,0-5-5.44,11.11,11.11,0,0,1-5.75-2.95l-4.46-4.46,17.91-17.91,4.46,4.46A11.12,11.12,0,0,1,137.13,117.36Z"/><rect class="cls-5" height="36.03" rx="2.33" ry="2.33" transform="translate(-58.46 156.09) rotate(-45)" width="4.66" x="156.85" y="130.59"/><rect class="cls-6" height="43.18" rx="2.33" ry="2.33" transform="translate(-64.82 156.41) rotate(-45)" width="4.66" x="154.07" y="134.86"/><path class="cls-7" d="M134.18,111.61l-4.46-4.46L107.1,129.77l4.46,4.46a11.16,11.16,0,0,0,5.75,2.94,6.36,6.36,0,0,1,5,5.45,7.09,7.09,0,0,0,2,4.32l33,33c6.47,6.47,16.72,7.35,23.1,1.57,6.82-6.17,6.69-17-.14-23.86L146.9,124.32a7.09,7.09,0,0,0-4.32-2,6.36,6.36,0,0,1-5.45-5A11.16,11.16,0,0,0,134.18,111.61Z"/><path class="cls-3" d="M123.28,93.47L58.35,158.4a19.7,19.7,0,1,1-16.76-16.76l64.93-64.93c19.7-19.7,20.2-22,19.41-24.09a24.61,24.61,0,0,1,33.83-30.95c0.39,0.19.8,0.39,1.18,0.61L145.38,37.86a6.42,6.42,0,0,0,0,9l7.72,7.72a6.41,6.41,0,0,0,6.3,1.6,6.27,6.27,0,0,0,2.74-1.61L177.7,39.05a24.27,24.27,0,0,1,2.52,6.55c0.06,0.28.12,0.56,0.16,0.85a24.58,24.58,0,0,1-33,27.62C145.32,73.29,143,73.77,123.28,93.47Z"/><path class="cls-4" d="M123.28,93.47L58.35,158.4a19.71,19.71,0,0,1-30.67,19,19.68,19.68,0,0,1,18.95-30.68l64.93-64.93c19.7-19.7,20.2-22,19.41-24.09a24.59,24.59,0,0,1,27.61-33l-13.2,13.2a6.42,6.42,0,0,0,0,9l12.76,12.76a6.41,6.41,0,0,0,6.3,1.6,6.27,6.27,0,0,0,2.74-1.61l13.2-13.2a24.58,24.58,0,0,1-33,27.62C145.32,73.29,143,73.77,123.28,93.47Z"/><polygon class="cls-8" points="46.39 153.61 49.15 163.92 41.6 171.47 31.3 168.7 28.54 158.4 36.08 150.85 46.39 153.61"/><path class="cls-9" d="M147.37,74.07a24.62,24.62,0,0,0,30.33-35L162.14,54.62a6.41,6.41,0,0,1-9,0l-7.71-7.71a6.41,6.41,0,0,1,0-9L160.94,22.3a24.62,24.62,0,0,0-35,30.33c0.79,2.06.3,4.39-19.4,24.09L41.59,141.65a19.72,19.72,0,1,0,16.76,16.76l64.93-64.93C143,73.78,145.31,73.29,147.37,74.07Z"/></svg>