<?xml version="1.0" ?>
<svg width="800px" height="800px" viewBox="0 0 60 60" xmlns="http://www.w3.org/2000/svg"><rect fill="#ffffff" height="60" rx="10" width="60"/><path d="M50,45a7,7,0,0,1-11.92,4.98l-.03-.03L30,42l-8.05,7.95-.03.03a7,7,0,0,1-11.3-7.87L24.44,11.73l.1-.21a5.995,5.995,0,0,1,10.92,0l.1.21L49.38,42.11A6.969,6.969,0,0,1,50,45Z" fill="#f2c4bb"/><path d="M43,53.5a8.471,8.471,0,0,1-5.973-2.451L30,44.108l-7,6.91A8.5,8.5,0,0,1,9.255,41.489L23.186,10.875a7.494,7.494,0,0,1,13.639.024l.09.188,13.83,30.4A8.417,8.417,0,0,1,51.5,45,8.51,8.51,0,0,1,43,53.5Zm-13-13a1.493,1.493,0,0,1,1.054.433l8.05,7.95A5.5,5.5,0,0,0,48.5,45a5.443,5.443,0,0,0-.485-2.269L34.1,12.163a4.494,4.494,0,0,0-8.2-.023l-.112.235L11.985,42.731a5.5,5.5,0,0,0,8.883,6.18l8.078-7.978A1.493,1.493,0,0,1,30,40.5Z" fill="#f28080"/><path d="M30,43.5a1.493,1.493,0,0,1-1.054-.433C25.561,39.724,22.1,35.842,22.1,32.4a7.9,7.9,0,0,1,15.8,0c0,3.443-3.461,7.325-6.846,10.667A1.493,1.493,0,0,1,30,43.5Zm0-16a4.86,4.86,0,0,0-4.9,4.9c0,2.193,2.956,5.492,4.9,7.478,1.945-1.986,4.9-5.285,4.9-7.478A4.86,4.86,0,0,0,30,27.5Z" fill="#f28080"/><path d="M10.619,43.61a1.5,1.5,0,0,1-1.364-2.121L23.186,10.875a7.494,7.494,0,0,1,13.639.024l.09.188,13.83,30.4a1.5,1.5,0,1,1-2.73,1.242L34.1,12.163a4.494,4.494,0,0,0-8.2-.023l-.112.235L11.985,42.731A1.5,1.5,0,0,1,10.619,43.61Z" fill="#f2bf80"/></svg>