<?xml version="1.0" ?>
<svg width="800px" height="800px" viewBox="0 0 60 60" xmlns="http://www.w3.org/2000/svg"><rect fill="#ffffff" height="60" rx="10" width="60"/><rect fill="#f1f3f4" height="44" rx="6" width="44" x="8" y="8"/><path d="M46,53.5H14A7.508,7.508,0,0,1,6.5,46V14A7.508,7.508,0,0,1,14,6.5H46A7.508,7.508,0,0,1,53.5,14V46A7.508,7.508,0,0,1,46,53.5ZM14,9.5A4.505,4.505,0,0,0,9.5,14V46A4.505,4.505,0,0,0,14,50.5H46A4.505,4.505,0,0,0,50.5,46V14A4.505,4.505,0,0,0,46,9.5Z" fill="#bf95bc"/><path d="M30,53.5A1.5,1.5,0,0,1,28.5,52V8a1.5,1.5,0,0,1,3,0V52A1.5,1.5,0,0,1,30,53.5Z" fill="#bf95bc"/><path d="M52,31.5H8a1.5,1.5,0,0,1,0-3H52a1.5,1.5,0,0,1,0,3Z" fill="#bf95bc"/><path d="M46,20.5H36a1.5,1.5,0,0,1,0-3H46a1.5,1.5,0,0,1,0,3Z" fill="#f29580"/><path d="M44,39.5H38a1.5,1.5,0,0,1,0-3h6a1.5,1.5,0,0,1,0,3Z" fill="#f29580"/><path d="M44,45.5H38a1.5,1.5,0,0,1,0-3h6a1.5,1.5,0,0,1,0,3Z" fill="#f29580"/><path d="M24,20.5H14a1.5,1.5,0,0,1,0-3H24a1.5,1.5,0,0,1,0,3Z" fill="#f29580"/><path d="M19,25.5A1.5,1.5,0,0,1,17.5,24V14a1.5,1.5,0,0,1,3,0V24A1.5,1.5,0,0,1,19,25.5Z" fill="#f29580"/><path d="M22.536,46.036a1.5,1.5,0,0,1-1.061-.44L14.4,38.525A1.5,1.5,0,0,1,16.525,36.4L23.6,43.475a1.5,1.5,0,0,1-1.06,2.561Z" fill="#f29580"/><path d="M15.464,46.036a1.5,1.5,0,0,1-1.06-2.561L21.475,36.4A1.5,1.5,0,0,1,23.6,38.525L16.525,45.6A1.5,1.5,0,0,1,15.464,46.036Z" fill="#f29580"/><path d="M8,47.5A1.5,1.5,0,0,1,6.5,46V14A7.508,7.508,0,0,1,14,6.5H46a1.5,1.5,0,0,1,0,3H14A4.505,4.505,0,0,0,9.5,14V46A1.5,1.5,0,0,1,8,47.5Z" fill="#ffafc5"/></svg>