<?xml version="1.0" ?>
<svg width="800px" height="800px" viewBox="0 0 60 60" xmlns="http://www.w3.org/2000/svg"><rect fill="#ffffff" height="60" rx="10" width="60"/><path d="M8,16V36a6,6,0,0,0,6,6H44l8,8V16a6,6,0,0,0-6-6H14A6,6,0,0,0,8,16Z" fill="#ffe1a0"/><path d="M52,51.5a1.5,1.5,0,0,1-1.061-.439L43.379,43.5H14A7.508,7.508,0,0,1,6.5,36V16A7.508,7.508,0,0,1,14,8.5H46A7.508,7.508,0,0,1,53.5,16V50A1.5,1.5,0,0,1,52,51.5Zm-38-40A4.505,4.505,0,0,0,9.5,16V36A4.505,4.505,0,0,0,14,40.5H44a1.5,1.5,0,0,1,1.061.439l5.439,5.44V16A4.505,4.505,0,0,0,46,11.5Z" fill="#f29580"/><path d="M42,19.5H22a1.5,1.5,0,0,1,0-3H42a1.5,1.5,0,0,1,0,3Z" fill="#f29580"/><path d="M42,27.5H18a1.5,1.5,0,0,1,0-3H42a1.5,1.5,0,0,1,0,3Z" fill="#f29580"/><path d="M34,35.5H18a1.5,1.5,0,0,1,0-3H34a1.5,1.5,0,0,1,0,3Z" fill="#f29580"/><path d="M8,37.5A1.5,1.5,0,0,1,6.5,36V16A7.508,7.508,0,0,1,14,8.5H46a1.5,1.5,0,0,1,0,3H14A4.505,4.505,0,0,0,9.5,16V36A1.5,1.5,0,0,1,8,37.5Z" fill="#ffafc5"/></svg>