<?xml version="1.0" ?>
<svg width="800px" height="800px" viewBox="0 0 60 60" xmlns="http://www.w3.org/2000/svg"><rect fill="#ffffff" height="60" rx="10" width="60"/><rect fill="#f2bdd6" height="32" rx="4" width="30" x="8" y="14"/><path d="M34,47.5H12A5.506,5.506,0,0,1,6.5,42V18A5.506,5.506,0,0,1,12,12.5H34A5.506,5.506,0,0,1,39.5,18V42A5.506,5.506,0,0,1,34,47.5Zm-22-32A2.5,2.5,0,0,0,9.5,18V42A2.5,2.5,0,0,0,12,44.5H34A2.5,2.5,0,0,0,36.5,42V18A2.5,2.5,0,0,0,34,15.5Z" fill="#bf95bc"/><polygon fill="#f2bdd6" points="46 16 38 22 38 38 46 44 46 16"/><path d="M46,45.5a1.5,1.5,0,0,1-.9-.3l-8-6a1.5,1.5,0,0,1-.6-1.2V22a1.5,1.5,0,0,1,.6-1.2l8-6A1.5,1.5,0,0,1,47.5,16V44A1.5,1.5,0,0,1,46,45.5Zm-6.5-8.25,5,3.75V19l-5,3.75Z" fill="#bf95bc"/><rect fill="#f2bdd6" height="28" width="6" x="46" y="16"/><path d="M52,45.5H46A1.5,1.5,0,0,1,44.5,44V16A1.5,1.5,0,0,1,46,14.5h6A1.5,1.5,0,0,1,53.5,16V44A1.5,1.5,0,0,1,52,45.5Zm-4.5-3h3v-25h-3Z" fill="#bf95bc"/><path d="M8,43.5A1.5,1.5,0,0,1,6.5,42V18A5.506,5.506,0,0,1,12,12.5H34a1.5,1.5,0,0,1,0,3H12A2.5,2.5,0,0,0,9.5,18V42A1.5,1.5,0,0,1,8,43.5Z" fill="#ffafc5"/><polygon fill="#ffe1a0" points="23 20 25.939 25.955 32.511 26.91 27.755 31.545 28.878 38.09 23 35 17.122 38.09 18.245 31.545 13.489 26.91 20.061 25.955 23 20"/><path d="M28.878,39.59a1.5,1.5,0,0,1-.7-.172L23,36.7l-5.18,2.723a1.5,1.5,0,0,1-2.176-1.581l.989-5.768-4.191-4.085a1.5,1.5,0,0,1,.831-2.559l5.792-.841,2.59-5.248a1.5,1.5,0,0,1,2.69,0l2.59,5.248,5.792.841a1.5,1.5,0,0,1,.831,2.559l-4.191,4.085.989,5.768a1.5,1.5,0,0,1-1.478,1.753ZM23,33.5a1.51,1.51,0,0,1,.7.172l3.188,1.676-.609-3.55a1.5,1.5,0,0,1,.431-1.327l2.579-2.514-3.564-.518a1.5,1.5,0,0,1-1.129-.82L23,23.389l-1.594,3.23a1.5,1.5,0,0,1-1.129.82l-3.564.518,2.579,2.514a1.5,1.5,0,0,1,.431,1.327l-.609,3.55L22.3,33.672A1.51,1.51,0,0,1,23,33.5Z" fill="#f29580"/></svg>