<?xml version="1.0" ?>
<svg width="800px" height="800px" viewBox="0 0 60 60" xmlns="http://www.w3.org/2000/svg"><rect fill="#ffffff" height="60" rx="10" width="60"/><polygon fill="#acedf6" points="30 18.36 18 26 8 19.64 20 12 30 18.36"/><path d="M18,27.5a1.5,1.5,0,0,1-.8-.234l-10-6.36a1.5,1.5,0,0,1,0-2.531l12-7.64a1.5,1.5,0,0,1,1.611,0l10,6.36a1.5,1.5,0,0,1,0,2.531l-12,7.64A1.5,1.5,0,0,1,18,27.5Zm-7.206-7.86L18,24.222l9.206-5.862L20,13.778Z" fill="#8d9cf4"/><path d="M18,27.5a1.5,1.5,0,0,1-.8-.234l-10-6.36a1.5,1.5,0,0,1,0-2.531l12-7.64a1.5,1.5,0,0,1,1.611,0l10,6.36a1.5,1.5,0,1,1-1.61,2.531L20,13.778,10.794,19.64l8.011,5.094A1.5,1.5,0,0,1,18,27.5Z" fill="#7bcdd1"/><polygon fill="#acedf6" points="42 44 30 52 18 44 18 26 42 26 42 44"/><path d="M30,53.5a1.5,1.5,0,0,1-.832-.252l-12-8A1.5,1.5,0,0,1,16.5,44V26A1.5,1.5,0,0,1,18,24.5H42A1.5,1.5,0,0,1,43.5,26V44a1.5,1.5,0,0,1-.668,1.248l-12,8A1.5,1.5,0,0,1,30,53.5ZM19.5,43.2l10.5,7,10.5-7V27.5h-21ZM42,44h0Z" fill="#8d9cf4"/><polygon fill="#acedf6" points="52 19.64 42 26 30 18.36 40 12 52 19.64"/><path d="M42,27.5a1.5,1.5,0,0,1-.806-.235l-12-7.64a1.5,1.5,0,0,1,0-2.531l10-6.36a1.5,1.5,0,0,1,1.611,0l12,7.64a1.5,1.5,0,0,1,0,2.531l-10,6.36A1.5,1.5,0,0,1,42,27.5Zm-9.206-9.14L42,24.222l7.206-4.582L40,13.778Z" fill="#8d9cf4"/><polygon fill="#acedf6" points="30 33.64 20 40 8 32.36 18 26 30 33.64"/><path d="M20,41.5a1.5,1.5,0,0,1-.806-.235l-12-7.64a1.5,1.5,0,0,1,0-2.531l10-6.36a1.5,1.5,0,0,1,1.611,0l12,7.64a1.5,1.5,0,0,1,0,2.531l-10,6.36A1.5,1.5,0,0,1,20,41.5Zm-9.206-9.14L20,38.222l7.206-4.582L18,27.778Z" fill="#8d9cf4"/><polygon fill="#f1f3f4" points="42 26 30 33.64 18 26 30 18.36 42 26"/><path d="M30,35.14a1.5,1.5,0,0,1-.806-.235l-12-7.64a1.5,1.5,0,0,1,0-2.53l12-7.64a1.5,1.5,0,0,1,1.612,0l12,7.64a1.5,1.5,0,0,1,0,2.53l-12,7.64A1.5,1.5,0,0,1,30,35.14ZM20.793,26,30,31.862,39.207,26,30,20.138Z" fill="#8d9cf4"/><polygon fill="#acedf6" points="52 32.36 40 40 30 33.64 42 26 52 32.36"/><path d="M40,41.5a1.5,1.5,0,0,1-.8-.234l-10-6.36a1.5,1.5,0,0,1,0-2.531l12-7.64a1.5,1.5,0,0,1,1.611,0l10,6.36a1.5,1.5,0,0,1,0,2.531l-12,7.64A1.5,1.5,0,0,1,40,41.5Zm-7.206-7.86L40,38.222l9.206-5.862L42,27.778Z" fill="#8d9cf4"/></svg>