<?xml version="1.0" ?>
<svg width="800px" height="800px" viewBox="0 0 60 60" xmlns="http://www.w3.org/2000/svg"><rect fill="#ffffff" height="60" rx="10" width="60"/><circle cx="30" cy="30" fill="#c1f7fd" r="22"/><path d="M30,53.5A23.5,23.5,0,1,1,53.5,30,23.527,23.527,0,0,1,30,53.5Zm0-44A20.5,20.5,0,1,0,50.5,30,20.523,20.523,0,0,0,30,9.5Z" fill="#7bcdd1"/><path d="M8,31.5A1.5,1.5,0,0,1,6.5,30,23.527,23.527,0,0,1,30,6.5a1.5,1.5,0,0,1,0,3A20.523,20.523,0,0,0,9.5,30,1.5,1.5,0,0,1,8,31.5Z" fill="#bbd9c8"/><path d="M30,45.5A15.5,15.5,0,1,1,45.5,30,15.517,15.517,0,0,1,30,45.5Zm0-28A12.5,12.5,0,1,0,42.5,30,12.514,12.514,0,0,0,30,17.5Z" fill="#7bcdd1"/><path d="M30,30,41.809,11.442a21.978,21.978,0,0,0-23.618,0Z" fill="#bec6f4"/><path d="M30,31.5a1.5,1.5,0,0,1-1.266-.7L16.925,12.248a1.5,1.5,0,0,1,.459-2.07,23.476,23.476,0,0,1,25.232,0,1.5,1.5,0,0,1,.459,2.07L31.266,30.805A1.5,1.5,0,0,1,30,31.5ZM20.29,11.948,30,27.206l9.71-15.258a20.481,20.481,0,0,0-19.42,0Z" fill="#8d9cf4"/><circle cx="30" cy="30" fill="#8d9cf4" r="6"/><path d="M30,37.5A7.5,7.5,0,1,1,37.5,30,7.508,7.508,0,0,1,30,37.5Zm0-12A4.5,4.5,0,1,0,34.5,30,4.505,4.505,0,0,0,30,25.5Z" fill="#f1f3f4"/></svg>