<?xml version="1.0" ?>
<svg width="800px" height="800px" viewBox="0 0 60 60" xmlns="http://www.w3.org/2000/svg"><rect fill="#ffffff" height="60" rx="10" width="60"/><path d="M46.124,8.124,37.651,16.6a1.173,1.173,0,0,1-1.659,0h0a1.168,1.168,0,0,1-.148-1.473c1.718-2.556,2.2-5.109.977-6.326-1.588-1.588-5.451-.3-8.628,2.876a14.137,14.137,0,0,0-2.821,3.915,3.193,3.193,0,0,1-2.771,1.8,15.115,15.115,0,0,0-10.227,4.347c-6.354,6.353-5.71,17.3,1.438,24.447s18.094,7.792,24.447,1.438A15.115,15.115,0,0,0,42.606,37.4a3.193,3.193,0,0,1,1.8-2.771,14.137,14.137,0,0,0,3.915-2.821c3.177-3.177,4.464-7.04,2.876-8.628-1.217-1.218-3.77-.741-6.326.977a1.168,1.168,0,0,1-1.473-.148h0a1.173,1.173,0,0,1,0-1.659l8.473-8.473Z" fill="#ffafc5"/><path d="M27.356,53.489a20.82,20.82,0,0,1-14.605-6.24C5.03,39.527,4.385,27.608,11.313,20.68A16.7,16.7,0,0,1,22.542,15.9a1.7,1.7,0,0,0,1.471-.941,15.619,15.619,0,0,1,3.119-4.341,14.7,14.7,0,0,1,5.5-3.588c2.2-.733,4.063-.48,5.254.711,1.375,1.375,1.479,3.621.37,6.138l6.811-6.812a1.5,1.5,0,0,1,2.122,2.122l-8.474,8.472a2.737,2.737,0,0,1-3.78,0,2.67,2.67,0,0,1-.332-3.369c1.533-2.282,1.6-3.992,1.162-4.43-.725-.724-3.688.057-6.508,2.877a12.642,12.642,0,0,0-2.522,3.489,4.72,4.72,0,0,1-4.072,2.67A13.525,13.525,0,0,0,13.435,22.8C7.676,28.56,8.321,38.575,14.873,45.127s16.565,7.2,22.326,1.438a13.525,13.525,0,0,0,3.907-9.224,4.72,4.72,0,0,1,2.67-4.072,12.642,12.642,0,0,0,3.489-2.522c2.82-2.821,3.6-5.785,2.877-6.508-.439-.438-2.148-.372-4.43,1.162a2.671,2.671,0,0,1-3.369-4.113l8.472-8.473a1.5,1.5,0,0,1,2.122,2.122l-6.811,6.811c2.516-1.109,4.762-1.006,6.137.37,1.191,1.191,1.443,3.057.711,5.254a14.7,14.7,0,0,1-3.588,5.5,15.619,15.619,0,0,1-4.341,3.119,1.7,1.7,0,0,0-.941,1.471A16.378,16.378,0,0,1,27.356,53.489Z" fill="#f28080"/><path d="M19.564,29.588a3.507,3.507,0,0,1-2.5-1.035,1.5,1.5,0,0,1,2.121-2.121.534.534,0,0,0,.754,0l4.315-4.314a3.619,3.619,0,0,1,5,0,1.5,1.5,0,1,1-2.121,2.121.534.534,0,0,0-.754,0l-4.315,4.314A3.506,3.506,0,0,1,19.564,29.588Z" fill="#f1f3f4"/><path d="M32.507,43.374a1.5,1.5,0,0,1-1.06-.44,3.533,3.533,0,0,1,0-5l4.314-4.314a.535.535,0,0,0,0-.755,1.5,1.5,0,0,1,2.121-2.121,3.533,3.533,0,0,1,0,5l-4.314,4.314a.535.535,0,0,0,0,.755,1.5,1.5,0,0,1-1.061,2.561Z" fill="#f1f3f4"/><path d="M36.821,27.555a1.5,1.5,0,0,1-1.06-.44l-2.876-2.876a1.5,1.5,0,1,1,2.121-2.121l2.876,2.876a1.5,1.5,0,0,1-1.061,2.561Z" fill="#bf95bc"/><path d="M31.069,33.307a1.5,1.5,0,0,1-1.061-.439l-2.876-2.876a1.5,1.5,0,0,1,2.121-2.121l2.876,2.876a1.5,1.5,0,0,1-1.06,2.56Z" fill="#bf95bc"/><path d="M25.317,39.06a1.5,1.5,0,0,1-1.061-.44L21.38,35.744A1.5,1.5,0,1,1,23.5,33.623L26.377,36.5a1.5,1.5,0,0,1-1.06,2.561Z" fill="#bf95bc"/><path d="M13.812,47.688a1.5,1.5,0,0,1-1.061-.439C5.03,39.527,4.385,27.608,11.313,20.68A16.7,16.7,0,0,1,22.542,15.9a1.5,1.5,0,1,1,.117,3A13.525,13.525,0,0,0,13.435,22.8C7.676,28.56,8.321,38.575,14.873,45.127a1.5,1.5,0,0,1-1.061,2.561Z" fill="#bf95bc"/></svg>