<?xml version="1.0" ?>
<svg width="800px" height="800px" viewBox="0 0 60 60" xmlns="http://www.w3.org/2000/svg"><rect fill="#ffffff" height="60" rx="10" width="60"/><path d="M52,23a12.99,12.99,0,0,0-22-9.367A12.991,12.991,0,0,0,11.7,32.071h-.01L28.567,49.4h0a1.995,1.995,0,0,0,2.86,0h0L48.312,32.071H48.3A12.95,12.95,0,0,0,52,23Z" fill="#f2c4bb"/><path d="M30,51.5a3.471,3.471,0,0,1-2.433-.987c-.025-.022-.05-.046-.074-.071L10.614,33.118c-.035-.036-.068-.073-.1-.112A14.491,14.491,0,0,1,30,11.642,14.492,14.492,0,0,1,49.484,33.007a1.276,1.276,0,0,1-.1.111L32.507,50.442q-.036.038-.075.072A3.467,3.467,0,0,1,30,51.5Zm-.412-3.206c.019.017.037.035.056.054a.493.493,0,0,0,.712,0l.056-.055L47.135,31.13c.03-.037.061-.072.094-.106A11.492,11.492,0,0,0,31.04,14.714a1.5,1.5,0,0,1-2.08,0,11.492,11.492,0,0,0-16.189,16.31c.034.034.065.07.095.106Z" fill="#f28080"/><path d="M31.433,50.9a1.5,1.5,0,0,1-1.075-2.547L47.135,31.13c.03-.037.061-.072.094-.106A11.437,11.437,0,0,0,50.5,23a1.5,1.5,0,0,1,3,0,14.416,14.416,0,0,1-4.016,10.007,1.276,1.276,0,0,1-.1.111L32.507,50.442A1.5,1.5,0,0,1,31.433,50.9Z" fill="#bf95bc"/><path d="M34,39.5c-.04,0-.081,0-.121-.005a1.5,1.5,0,0,1-1.343-1.17L30,26.915l-2.536,11.41a1.5,1.5,0,0,1-2.857.232l-2.94-7.352-2.419,3.627A1.5,1.5,0,0,1,18,35.5H8a1.5,1.5,0,0,1,0-3h9.2l3.555-5.332a1.5,1.5,0,0,1,2.641.275l2.2,5.491,2.947-13.259a1.5,1.5,0,0,1,2.928,0l2.947,13.259,2.2-5.491a1.5,1.5,0,0,1,2.641-.275L42.8,32.5H52a1.5,1.5,0,0,1,0,3H42a1.5,1.5,0,0,1-1.248-.668l-2.419-3.627-2.94,7.352A1.5,1.5,0,0,1,34,39.5Z" fill="#8d9cf4"/></svg>