<?xml version="1.0" ?>
<svg width="800px" height="800px" viewBox="0 0 60 60" xmlns="http://www.w3.org/2000/svg"><rect fill="#ffffff" height="60" rx="10" width="60"/><rect fill="#bec6f4" height="12" rx="6" width="16" x="8" y="40"/><path d="M18,53.5H14a7.5,7.5,0,0,1,0-15h4a7.5,7.5,0,0,1,0,15Zm-4-12a4.5,4.5,0,0,0,0,9h4a4.5,4.5,0,0,0,0-9Z" fill="#bf95bc"/><rect fill="#bec6f4" height="12" rx="6" width="16" x="36" y="32"/><path d="M46,45.5H42a7.5,7.5,0,0,1,0-15h4a7.5,7.5,0,0,1,0,15Zm-4-12a4.5,4.5,0,0,0,0,9h4a4.5,4.5,0,0,0,0-9Z" fill="#bf95bc"/><path d="M24,47.5A1.5,1.5,0,0,1,22.5,46V16a1.5,1.5,0,0,1,3,0V46A1.5,1.5,0,0,1,24,47.5Z" fill="#bf95bc"/><path d="M52,39.5A1.5,1.5,0,0,1,50.5,38V8a1.5,1.5,0,0,1,3,0V38A1.5,1.5,0,0,1,52,39.5Z" fill="#bf95bc"/><polygon fill="#feb9aa" points="52 16 24 24 24 16 52 8 52 16"/><path d="M24,25.5A1.5,1.5,0,0,1,22.5,24V16a1.5,1.5,0,0,1,1.088-1.442l28-8A1.5,1.5,0,0,1,53.5,8v8a1.5,1.5,0,0,1-1.088,1.442l-28,8A1.491,1.491,0,0,1,24,25.5Zm1.5-8.369v4.88l25-7.142V9.989ZM52,16h0Z" fill="#ffafc5"/><path d="M24,25.5a1.5,1.5,0,0,1-.411-2.942L50.5,14.869V8a1.5,1.5,0,0,1,3,0v8a1.5,1.5,0,0,1-1.088,1.442l-28,8A1.514,1.514,0,0,1,24,25.5Z" fill="#f28080"/></svg>