<?xml version="1.0" ?>
<svg width="800px" height="800px" viewBox="0 0 60 60" xmlns="http://www.w3.org/2000/svg"><rect fill="#ffffff" height="60" rx="10" width="60"/><rect fill="#f1f3f4" height="29.333" width="9.778" x="9.222" y="22.667"/><path d="M19,53.5H9.222a1.5,1.5,0,0,1-1.5-1.5V22.667a1.5,1.5,0,0,1,1.5-1.5H19a1.5,1.5,0,0,1,1.5,1.5V52A1.5,1.5,0,0,1,19,53.5Zm-8.278-3H17.5V24.167H10.722Z" fill="#8d9cf4"/><path d="M52,33.667V52H42.222V34.889a4.882,4.882,0,0,0-7.333-4.229V52H25.111V22.667h9.778v1.87A10.839,10.839,0,0,1,41,22.667,11,11,0,0,1,52,33.667Z" fill="#f1f3f4"/><path d="M52,53.5H42.222a1.5,1.5,0,0,1-1.5-1.5V34.889A3.392,3.392,0,0,0,37.333,31.5a3.29,3.29,0,0,0-.944.136V52a1.5,1.5,0,0,1-1.5,1.5H25.111a1.5,1.5,0,0,1-1.5-1.5V22.667a1.5,1.5,0,0,1,1.5-1.5h9.778a1.5,1.5,0,0,1,1.387.929A12.389,12.389,0,0,1,41,21.167a12.514,12.514,0,0,1,12.5,12.5V52A1.5,1.5,0,0,1,52,53.5Zm-8.278-3H50.5V33.667a9.511,9.511,0,0,0-9.5-9.5,9.354,9.354,0,0,0-5.27,1.611,1.5,1.5,0,0,1-2.341-1.241v-.37H26.611V50.5h6.778V30.66a1.5,1.5,0,0,1,.751-1.3,6.382,6.382,0,0,1,9.582,5.529Z" fill="#8d9cf4"/><circle cx="14.111" cy="14.111" fill="#f1f3f4" r="6.111"/><path d="M14.111,21.722a7.611,7.611,0,1,1,7.611-7.611A7.62,7.62,0,0,1,14.111,21.722Zm0-12.222a4.611,4.611,0,1,0,4.611,4.611A4.617,4.617,0,0,0,14.111,9.5Z" fill="#8d9cf4"/><path d="M8,15.611a1.5,1.5,0,0,1-1.5-1.5A7.621,7.621,0,0,1,14.111,6.5a1.5,1.5,0,0,1,0,3A4.617,4.617,0,0,0,9.5,14.111,1.5,1.5,0,0,1,8,15.611Z" fill="#7bcdd1"/><path d="M25.111,53.5a1.5,1.5,0,0,1-1.5-1.5V22.667a1.5,1.5,0,0,1,1.5-1.5h9.778a1.5,1.5,0,0,1,0,3H26.611V52A1.5,1.5,0,0,1,25.111,53.5Z" fill="#7bcdd1"/><path d="M52,35.167a1.5,1.5,0,0,1-1.5-1.5,9.511,9.511,0,0,0-9.5-9.5,9.354,9.354,0,0,0-5.27,1.611A1.5,1.5,0,1,1,34.047,23.3,12.339,12.339,0,0,1,41,21.167a12.514,12.514,0,0,1,12.5,12.5A1.5,1.5,0,0,1,52,35.167Z" fill="#8d9cf4"/></svg>