<?xml version="1.0" ?>
<svg width="800px" height="800px" viewBox="0 0 60 60" xmlns="http://www.w3.org/2000/svg"><rect fill="#ffffff" height="60" rx="10" width="60"/><path d="M30,10C17.85,10,8,18.954,8,30a18.839,18.839,0,0,0,4.947,12.633L10,50l8.041-3.217A23.5,23.5,0,0,0,30,50c12.15,0,22-8.954,22-20S42.15,10,30,10Z" fill="#bec6f4"/><path d="M10,51.5a1.5,1.5,0,0,1-1.393-2.057l2.609-6.523A20.37,20.37,0,0,1,6.5,30C6.5,18.145,17.042,8.5,30,8.5S53.5,18.145,53.5,30,42.958,51.5,30,51.5a25.086,25.086,0,0,1-12.072-3.056l-7.371,2.949A1.5,1.5,0,0,1,10,51.5Zm8.042-6.217a1.511,1.511,0,0,1,.762.208A22.024,22.024,0,0,0,30,48.5c11.3,0,20.5-8.3,20.5-18.5S41.3,11.5,30,11.5,9.5,19.8,9.5,30a17.217,17.217,0,0,0,4.563,11.631,1.5,1.5,0,0,1,.276,1.559l-1.647,4.117,4.792-1.916A1.5,1.5,0,0,1,18.042,45.283Z" fill="#8d9cf4"/><polygon fill="#f1f3f4" points="16 36 24 28 34 36 44 24 36 32 26 24 16 36"/><path d="M34,37.5a1.487,1.487,0,0,1-.936-.329L24.111,30.01l-7.05,7.051a1.5,1.5,0,0,1-2.213-2.021l10-12a1.5,1.5,0,0,1,2.089-.211l8.952,7.161,7.05-7.051a1.5,1.5,0,0,1,2.213,2.021l-10,12A1.5,1.5,0,0,1,34,37.5ZM25.332,27.145l8.457,6.765.879-1.055L26.211,26.09Z" fill="#f1f3f4"/><path d="M8,31.5A1.5,1.5,0,0,1,6.5,30C6.5,18.145,17.042,8.5,30,8.5a1.5,1.5,0,0,1,0,3C18.7,11.5,9.5,19.8,9.5,30A1.5,1.5,0,0,1,8,31.5Z" fill="#7bcdd1"/></svg>