<?xml version="1.0" ?>
<svg width="800px" height="800px" viewBox="0 0 60 60" xmlns="http://www.w3.org/2000/svg"><rect fill="#ffffff" height="60" rx="10" width="60"/><path d="M51.38,41.628l-1.612-.967A16,16,0,0,1,42.893,32.2l4.055-1.352a3,3,0,0,0-1.9-5.692L42,26.172V22a12,12,0,0,0-24,0v4.172l-3.052-1.018a3,3,0,1,0-1.9,5.692L17.107,32.2a16,16,0,0,1-6.875,8.463l-1.612.967A1.277,1.277,0,0,0,9.277,44h3.487a2,2,0,0,1,1.789,1.106l.341.683A4,4,0,0,0,18.472,48h3.639a7.994,7.994,0,0,1,3.578.845l.622.31A7.994,7.994,0,0,0,29.889,50h.222a7.994,7.994,0,0,0,3.578-.845l.622-.31A7.994,7.994,0,0,1,37.889,48h3.639a4,4,0,0,0,3.578-2.211l.341-.683A2,2,0,0,1,47.236,44h3.487a1.277,1.277,0,0,0,.657-2.372Z" fill="#f1f3f4"/><path d="M30.111,51.5h-.222a9.552,9.552,0,0,1-4.249-1l-.621-.31a6.527,6.527,0,0,0-2.908-.687H18.472a5.471,5.471,0,0,1-4.919-3.04l-.342-.684a.5.5,0,0,0-.447-.276H9.277A2.777,2.777,0,0,1,7.85,40.341l1.611-.966a14.519,14.519,0,0,0,5.654-6.261l-2.538-.845a4.5,4.5,0,1,1,2.848-8.538l1.075.36V22a13.5,13.5,0,0,1,27,0v2.091l1.077-.36a4.5,4.5,0,1,1,2.845,8.538l-2.537.845a14.519,14.519,0,0,0,5.654,6.261l1.611.966A2.777,2.777,0,0,1,50.723,45.5H47.236a.5.5,0,0,0-.447.276l-.342.684a5.471,5.471,0,0,1-4.919,3.04H37.889a6.527,6.527,0,0,0-2.908.687l-.621.31A9.552,9.552,0,0,1,30.111,51.5Zm-20.028-9h2.681A3.481,3.481,0,0,1,15.9,44.435l.341.683A2.486,2.486,0,0,0,18.472,46.5h3.639a9.552,9.552,0,0,1,4.249,1l.621.31a6.527,6.527,0,0,0,2.908.687h.222a6.527,6.527,0,0,0,2.908-.687l.621-.31a9.552,9.552,0,0,1,4.249-1h3.639a2.486,2.486,0,0,0,2.236-1.382l.341-.683A3.481,3.481,0,0,1,47.236,42.5h2.681L49,41.947a17.532,17.532,0,0,1-7.52-9.257,1.5,1.5,0,0,1,.942-1.916l4.056-1.351a1.5,1.5,0,0,0,.2-2.766,1.479,1.479,0,0,0-1.143-.08L42.475,27.6A1.5,1.5,0,0,1,40.5,26.172V22a10.5,10.5,0,0,0-21,0v4.172A1.5,1.5,0,0,1,17.525,27.6l-3.051-1.018a1.5,1.5,0,0,0-.949,2.846l4.057,1.351a1.5,1.5,0,0,1,.942,1.916A17.532,17.532,0,0,1,11,41.947Zm40.525.414h0Z" fill="#f2bf80"/><path d="M18,27.672a1.5,1.5,0,0,1-1.5-1.5V22A13.515,13.515,0,0,1,30,8.5a1.5,1.5,0,0,1,0,3A10.512,10.512,0,0,0,19.5,22v4.172A1.5,1.5,0,0,1,18,27.672Z" fill="#ffe1a0"/><path d="M11.154,28.552a1.5,1.5,0,0,1-1.423-1.975,4.5,4.5,0,0,1,5.694-2.846l3.05,1.018a1.5,1.5,0,0,1-.95,2.846l-3.051-1.018a1.5,1.5,0,0,0-1.9.949A1.5,1.5,0,0,1,11.154,28.552Z" fill="#f2bf80"/></svg>