<?xml version="1.0" ?>
<svg width="800px" height="800px" viewBox="0 0 60 60" xmlns="http://www.w3.org/2000/svg"><rect fill="#ffffff" height="60" rx="10" width="60"/><rect fill="#eac8c9" height="32" rx="6" width="44" x="8" y="14"/><path d="M46,47.5H14A7.508,7.508,0,0,1,6.5,40V20A7.508,7.508,0,0,1,14,12.5H46A7.508,7.508,0,0,1,53.5,20V40A7.508,7.508,0,0,1,46,47.5Zm-32-32A4.505,4.505,0,0,0,9.5,20V40A4.505,4.505,0,0,0,14,44.5H46A4.505,4.505,0,0,0,50.5,40V20A4.505,4.505,0,0,0,46,15.5Z" fill="#f28080"/><path d="M24,23.886V36.114a2,2,0,0,0,3.162,1.627l8.56-6.114a2,2,0,0,0,0-3.254l-8.56-6.114A2,2,0,0,0,24,23.886Z" fill="#f1f3f4"/><path d="M26,39.616a3.5,3.5,0,0,1-3.5-3.5V23.887a3.5,3.5,0,0,1,5.534-2.849l8.559,6.113a3.5,3.5,0,0,1,0,5.7l-8.559,6.113A3.493,3.493,0,0,1,26,39.616Zm0-16.233a.531.531,0,0,0-.234.058.484.484,0,0,0-.271.446V36.113a.5.5,0,0,0,.791.408l8.559-6.114a.5.5,0,0,0,0-.814l-8.559-6.114A.488.488,0,0,0,26.005,23.383Z" fill="#f28080"/><path d="M8,41.5A1.5,1.5,0,0,1,6.5,40V20A7.508,7.508,0,0,1,14,12.5H46a1.5,1.5,0,0,1,0,3H14A4.505,4.505,0,0,0,9.5,20V40A1.5,1.5,0,0,1,8,41.5Z" fill="#f29580"/></svg>