<?xml version="1.0" ?>


<svg fill="#000000" width="800px" height="800px" viewBox="0 0 64 64" xmlns="http://www.w3.org/2000/svg">

<g id="a"/>

<g id="b">

<path d="M39,13c-2.4733,0-4.8308,.4894-7,1.353-2.1692-.8636-4.5267-1.353-7-1.353-10.4766,0-19,8.5234-19,19s8.5234,19,19,19c2.4733,0,4.8308-.4894,7-1.353,2.1692,.8636,4.5267,1.353,7,1.353,10.4766,0,19-8.5234,19-19s-8.5234-19-19-19Zm16.3892,14.5507l-15.6717-12.5143c7.514,.3159,13.7695,5.5183,15.6717,12.5143Zm-18.7014-12.3746l19.2381,15.3623c.0414,.4828,.074,.9682,.074,1.4615,0,1.0211-.1063,2.0162-.2797,2.9882l-13.353-10.6611c-1.6245-3.662-4.3732-6.7086-7.806-8.719,.6929-.1879,1.4019-.3327,2.1266-.4319Zm16.9882,25.363l-9.7159-7.7531c.0108-.2627,.0398-.5207,.0398-.786,0-1.4434-.1761-2.8441-.4825-4.1962l11.6866,9.3287c-.3813,1.201-.9032,2.337-1.528,3.4066Zm-21.6761,6.9351c-5.8879-2.6745-10-8.5972-10-15.4742s4.1121-12.7997,10-15.4742c5.8879,2.6745,10,8.5972,10,15.4742s-4.1121,12.7997-10,15.4742Zm-9.5828-24.7216l-6.4374-5.1362c1.1253-.7083,2.3351-1.2899,3.6167-1.7212l4.8701,3.8913c-.7733,.9187-1.4589,1.9116-2.0494,2.9661Zm-2.0879,12.6967l-11.3552-9.0677c.4154-1.181,.9559-2.3005,1.6088-3.3466l9.4955,7.4177c-.0416,.5117-.0784,1.025-.0784,1.5472,0,1.1793,.1227,2.3289,.3293,3.4493Zm21.4901,5.3595l6.6439,5.3054c-.9429,.6342-1.9547,1.1711-3.018,1.6086l-5.3751-4.1976c.6546-.8539,1.2449-1.7574,1.7492-2.7164ZM27.7896,15.2493l.9694,.7722c-1.0472,.6736-2.0239,1.4441-2.9174,2.3041l-3.8149-3.0482c.9673-.1716,1.9574-.2773,2.9733-.2773,.952,0,1.8797,.0981,2.7896,.2493Zm-13.5083,3.5712l7.2264,5.7658c-.4846,1.1389-.8614,2.334-1.1168,3.5732l-8.6569-6.7627c.7573-.9456,1.6083-1.8113,2.5473-2.5764Zm-5.8715,16.8488l16.689,13.3257c-.0333,.0002-.0654,.005-.0988,.005-8.1132,0-14.9067-5.7165-16.5902-13.3307Zm19.5545,13.0547l-19.923-15.908c-.013-.2723-.0413-.5406-.0413-.816,0-1.2133,.133-2.3951,.3757-3.5371l12.887,10.2909c1.5546,4.0679,4.4607,7.4623,8.176,9.6381-.484,.1312-.9745,.2437-1.4744,.3321Zm9.2078,.174l-1.4946-1.1935c1.1284-.7697,2.1592-1.6667,3.0959-2.6549l4.3755,3.4171c-1.3307,.3356-2.7155,.5334-4.1489,.5334-.6179,0-1.2269-.0375-1.8279-.1021Zm12.9193-4.0428l-7.4189-5.9244c.4745-1.2054,.8239-2.4697,1.044-3.78l8.845,7.0577c-.7297,.967-1.5544,1.8556-2.47,2.6466Z"/>

</g>

</svg>