<?xml version="1.0" ?>


<svg fill="#000000" width="800px" height="800px" viewBox="0 0 64 64" xmlns="http://www.w3.org/2000/svg">

<g id="a"/>

<g id="b">

<path d="M54,9H10c-.5527,0-1,.4478-1,1v7.3042c0,.1348,.0273,.2681,.0801,.3921l1.9199,4.5078v23.7959c0,1.103,.8975,2,2,2H31v1.1843c-1.1615,.4141-2,1.5138-2,2.8157,0,1.6543,1.3457,3,3,3s3-1.3457,3-3c0-1.3019-.8385-2.4016-2-2.8157v-1.1843h18c1.1025,0,2-.897,2-2V22.2041l1.9199-4.5078c.0527-.124,.0801-.2573,.0801-.3921v-7.3042c0-.5522-.4473-1-1-1Zm-22,44c-.5518,0-1-.4487-1-1s.4482-1,1-1,1,.4487,1,1-.4482,1-1,1Zm-19-7V23H51v23H13ZM53,17.1001l-1.661,3.8999H12.661l-1.661-3.8999v-6.1001H53v6.1001ZM14,15c0-.5522,.4473-1,1-1H49c.5527,0,1,.4478,1,1s-.4473,1-1,1H15c-.5527,0-1-.4478-1-1Zm34,21.0005c-.0005,.5521-.4484,.9993-1.0005,.999l-6.814-.0029c-.2754,0-.4785,.3159-.8574,1.0723-.4141,.8242-.9814,1.9531-2.2959,1.9531-2.0137,0-2.4561-2.8687-2.8828-5.6431-.0928-.5991-.1816-1.1821-.2832-1.6973-.5-2.5454-1.5596-3.5459-3.9072-3.6919-3.2275-.2031-4.6182,1.79-5.9688,3.7153-.3184,.4531-.624,.8872-.9355,1.272-2.4736,3.0518-5.6562,3.9507-5.791,3.9873-.5254,.146-1.082-.1665-1.2285-.7002-.1455-.5317,.167-1.0811,.6982-1.228,.0498-.0142,2.7236-.7964,4.7666-3.3179,.2852-.3516,.5625-.749,.8525-1.1621,1.4316-2.0391,3.4062-4.8354,7.7295-4.5625,4.2695,.2651,5.3242,3.1528,5.7471,5.3022,.1055,.5396,.2002,1.1504,.2969,1.7788,.1846,1.1987,.5195,3.3745,.9521,3.9062,.127-.1411,.333-.5518,.4619-.8096,.4355-.8662,1.0928-2.1748,2.6455-2.1748l6.815,.0029c.5525,.0003,1,.4485,.9995,1.001h0Zm0,4.9995c0,.5522-.4473,1-1,1h-3c-.5527,0-1-.4478-1-1s.4473-1,1-1h3c.5527,0,1,.4478,1,1Z"/>

</g>

</svg>