<?xml version="1.0" ?>


<svg fill="#000000" width="800px" height="800px" viewBox="0 0 64 64" xmlns="http://www.w3.org/2000/svg">

<g id="a"/>

<g id="b">

<path d="M56.9062,29.9102c-.0469-.5156-.4785-.9102-.9961-.9102h-17.5371L18.5654,11.8242c-.3516-.3047-.8662-.3242-1.2427-.0537-6.4639,4.6895-10.3228,12.252-10.3228,20.2295,0,13.7852,11.2148,25,25,25s25-11.2148,25-25c0-.6963-.0317-1.3994-.0938-2.0898Zm-9.9062,2.0898c0,8.2715-6.729,15-15,15-1.4933,0-2.9335-.2261-4.2958-.6343l10.8146-15.3657h8.447c.0219,.3239,.0342,.6572,.0342,1Zm-30,0c0-5.1895,2.7065-10,7.1014-12.7274l12.5606,10.8912-10.8859,15.467c-5.1694-2.3702-8.7761-7.5814-8.7761-13.6308Zm15,23c-12.6821,0-23-10.3174-23-23,0-7.0752,3.2998-13.7959,8.8652-18.1348l4.6624,4.0428c-4.6732,3.1401-7.5276,8.4161-7.5276,14.092,0,9.374,7.626,17,17,17s17-7.626,17-17c0-.3409-.0126-.6734-.0319-1h6.0084c.0156,.333,.0234,.668,.0234,1,0,12.6826-10.3179,23-23,23Zm-3.6646-37.4043c.2793,.2422,.6694,.3086,1.0146,.1768,1.3296-.5127,2.7256-.7725,4.1499-.7725,5.436,0,10.1763,3.8691,11.2705,9.2012,.0952,.4648,.5049,.7988,.9795,.7988h8.0898c.2861,0,.5586-.1221,.748-.3369,.1899-.2139,.2788-.499,.2446-.7822-1.2944-10.7637-10.4658-18.8809-21.3325-18.8809-4.105,0-8.0981,1.1641-11.5479,3.3672-.2661,.1699-.4365,.4551-.4595,.7705-.0229,.3145,.1045,.6211,.3428,.8281l6.5,5.6299Zm20.3546,7.4043l-3.1023-2.4788c-1.7783-3.5706-5.0695-6.2051-8.9528-7.1418l-7.3851-5.903c1.3466-.3003,2.7271-.4635,4.1245-.4725l19.1481,15.303c.0505,.2318,.1146,.4581,.1567,.6931h-3.9891Zm2.7426-4.1248l-14.4739-11.5674c6.501,1.1671,11.9316,5.5742,14.4739,11.5674ZM26.8999,10.1586l6.0881,4.862c-1.2911,.0485-2.5611,.2691-3.7858,.6796l-5.0068-4.3369c.871-.4742,1.777-.8706,2.7046-1.2047Z"/>

</g>

</svg>