<?xml version="1.0" encoding="utf-8"?>

<!DOCTYPE svg PUBLIC "-//W3C//DTD SVG 1.1//EN" "http://www.w3.org/Graphics/SVG/1.1/DTD/svg11.dtd">

<svg version="1.1" id="Icons" xmlns="http://www.w3.org/2000/svg" xmlns:xlink="http://www.w3.org/1999/xlink" 
	 width="800px" height="800px" viewBox="0 0 512 512" enable-background="new 0 0 512 512" xml:space="preserve">
<g id="Messages">
	<g>
		<g>
			<g>
				<g>
					<path fill="#B6D82A" d="M398.24878,512H113.75122C51.18805,512,0,460.81195,0,398.24878V113.75122
						C0,51.18805,51.18805,0,113.75122,0h284.49756C460.81195,0,512,51.18805,512,113.75122v284.49756
						C512,460.81195,460.81195,512,398.24878,512z"/>
				</g>
			</g>
		</g>
	</g>
	<g>
		<g>
			<g opacity="0.1">
				<g>
					<path fill="#333333" d="M317.72531,88.64738c-73.44945,0-133.20459,59.75513-133.20459,133.20459
						s59.75514,133.20459,133.20459,133.20459c11.71457,0,23.32755-1.52536,34.56543-4.53775
						c1.62158,1.24469,3.28683,2.40118,4.97433,3.4552c10.20703,6.37674,21.73093,9.65552,33.46686,9.65552
						c4.89236,0,9.82303-0.57022,14.70737-1.72314c2.03409-0.48022,3.61649-2.07596,4.08066-4.11273
						c0.46332-2.03677-0.27261-4.16086-1.89777-5.47327c-6.59946-5.3316-12.14578-12.00235-16.22824-19.47855
						c17.23682-11.46777,31.68936-26.89236,41.98727-44.86514c11.48022-20.03629,17.54868-42.9023,17.54868-66.12473
						C450.9299,148.40251,391.17477,88.64738,317.72531,88.64738z"/>
				</g>
				<g>
					<path d="M390.73242,364.08594c-11.86914,0-23.52539-3.36328-33.70996-9.72559
						c-1.63574-1.02148-3.25977-2.14551-4.83008-3.34277c-11.20508,2.98242-22.79883,4.49512-34.4668,4.49512
						c-73.70117,0-133.66113-59.95996-133.66113-133.66113c0-73.7002,59.95996-133.66016,133.66113-133.66016
						c73.7002,0,133.66016,59.95996,133.66016,133.66016c0,23.30273-6.08887,46.24707-17.60938,66.35156
						c-10.22168,17.84082-24.66309,33.31836-41.78125,44.78516c4.02539,7.25781,9.52051,13.8125,15.91406,18.97754
						c1.74707,1.41113,2.55371,3.73828,2.05469,5.92969c-0.49805,2.18945-2.2334,3.93848-4.41992,4.45508
						C400.66602,363.50195,395.68262,364.08594,390.73242,364.08594z M352.39062,350.01953l0.17871,0.1377
						c1.60156,1.23047,3.26367,2.38477,4.93652,3.42969c10.03906,6.27148,21.52832,9.58691,33.22656,9.58691
						c4.87988,0,9.79199-0.57617,14.60254-1.71191c1.84961-0.43652,3.31738-1.91602,3.74023-3.76953
						c0.42188-1.85352-0.26074-3.82324-1.74023-5.01758c-6.5918-5.3252-12.24219-12.1084-16.3418-19.61426l-0.2002-0.36719
						l0.34766-0.23145c17.15332-11.41211,31.62305-26.87305,41.84473-44.71191
						c11.44043-19.96777,17.48828-42.75488,17.48828-65.89844c0-73.19727-59.55078-132.74805-132.74805-132.74805
						c-73.19824,0-132.74902,59.55078-132.74902,132.74805c0,73.19824,59.55078,132.74902,132.74902,132.74902
						c11.66309,0,23.25293-1.52148,34.44727-4.52246L352.39062,350.01953z"/>
				</g>
			</g>
			<g>
				<g>
					<path fill="#EAEAEA" d="M430.50742,206.90364c0-70.54353-57.18689-127.73042-127.73044-127.73042
						s-127.73041,57.18689-127.73041,127.73042s57.18689,127.73042,127.73041,127.73042
						c12.42847,0,24.43927-1.78229,35.79901-5.09283c2.07108,1.74142,4.27982,3.36679,6.6409,4.8418
						c13.65732,8.53177,29.49176,10.67502,44.01669,7.24722c-8.75363-7.07303-15.44107-15.92822-19.8837-25.70035
						C406.02917,293.48508,430.50742,253.05446,430.50742,206.90364z"/>
				</g>
				<g>
					<path fill="#333333" d="M375.78223,349.20703c-11.83398,0-23.45312-3.30664-33.74414-9.73535
						c-1.62988-1.01758-3.23926-2.13086-4.80957-3.32715c-11.20508,2.98047-22.7793,4.48926-34.45117,4.48926
						c-73.73926,0-133.73047-59.99121-133.73047-133.73047S229.03809,73.17285,302.77734,73.17285
						s133.73047,59.99121,133.73047,133.73047c0,23.31445-6.09277,46.27051-17.61816,66.38672
						c-10.25879,17.9043-24.62207,33.28809-41.75,44.77246c4.02734,7.24609,9.44336,13.71289,15.86426,18.90039
						c1.78125,1.43848,2.58789,3.7666,2.08008,5.99902c-0.50879,2.23242-2.24414,3.98145-4.47266,4.50781
						C385.68555,348.63184,380.71484,349.20605,375.78223,349.20703z M338.57617,323.54102
						c1.39453,0,2.76562,0.48633,3.86133,1.40723c1.91797,1.6123,3.92188,2.97314,5.95703,4.24463
						C356.75391,334.41455,366.19434,337,375.80664,337c0.06934,0,0.13867,0,0.20703,0
						c-4.91797-5-9.02832-11.87402-12.12598-18.6875c-1.25391-2.75879-0.25488-5.96924,2.33008-7.55127
						c36.49902-22.33398,58.29004-61.15259,58.29004-103.88306c0-67.12207-54.6084-121.7179-121.73047-121.7179
						s-121.73047,54.61469-121.73047,121.73676s54.6084,121.73361,121.73047,121.73361
						c11.58984,0,23.06934-1.63126,34.12012-4.85196C337.4502,323.61853,338.01465,323.54102,338.57617,323.54102z"/>
				</g>
			</g>
			<g>
				<g>
					<g>
						<path fill="#FFFFFF" d="M204.52832,209.70508c-0.10547,0-0.21191-0.00293-0.31934-0.00781
							c-3.30859-0.17383-5.85059-2.99707-5.67773-6.30664c3.0752-58.6416,53.28809-103.83105,111.92383-100.77734
							c3.30957,0.17383,5.85156,2.99707,5.67871,6.30566c-0.17383,3.30859-3.01172,5.81934-6.30566,5.67871
							c-52.01465-2.72656-96.58496,37.38867-99.3125,89.42188C210.34766,207.22168,207.69824,209.70508,204.52832,209.70508z"/>
					</g>
				</g>
				<g>
					<g>
						
							<ellipse transform="matrix(0.93969 -0.34202 0.34202 0.93969 -18.96312 120.96049)" fill="#FFFFFF" cx="333.51895" cy="114.25283" rx="6.88787" ry="6.88787"/>
					</g>
				</g>
			</g>
			<g>
				<g>
					<g>
						<path fill="#333333" d="M375,169H231c-4.9707,0-9-4.0293-9-9s4.0293-9,9-9h144c4.9707,0,9,4.0293,9,9S379.9707,169,375,169z"
							/>
					</g>
				</g>
				<g>
					<g>
						<path fill="#333333" d="M375,216H231c-4.9707,0-9-4.0293-9-9s4.0293-9,9-9h144c4.9707,0,9,4.0293,9,9S379.9707,216,375,216z"
							/>
					</g>
				</g>
				<g>
					<g>
						<path fill="#333333" d="M303,262h-72c-4.9707,0-9-4.0293-9-9s4.0293-9,9-9h72c4.9707,0,9,4.0293,9,9S307.9707,262,303,262z"/>
					</g>
				</g>
			</g>
		</g>
		<g>
			<g opacity="0.1">
				<g>
					<path fill="#333333" d="M192.0528,227.00789c57.41087,0,104.11777,46.70689,104.11777,104.11775
						S249.46367,435.24341,192.0528,435.24341c-9.15656,0-18.2337-1.19226-27.01767-3.54688
						c-1.26749,0.9729-2.56909,1.87686-3.88812,2.70071c-7.9782,4.98428-16.9857,7.54712-26.15897,7.54712
						c-3.82405,0-7.67805-0.44571-11.49583-1.34686c-1.58994-0.37537-2.82677-1.62268-3.18961-3.21469
						c-0.36214-1.59201,0.2131-3.25229,1.48338-4.27811c5.15839-4.16739,9.49361-9.3815,12.68462-15.22516
						c-13.47297-8.96365-24.76962-21.02008-32.81886-35.0683c-8.97339-15.66113-13.71671-33.53409-13.71671-51.68561
						C87.93503,273.71478,134.64191,227.00789,192.0528,227.00789z"/>
				</g>
				<g>
					<path d="M134.98828,442.30078c-3.87109,0-7.7666-0.45605-11.57812-1.35645c-1.70898-0.4043-3.06543-1.77051-3.45508-3.48242
						s0.24121-3.53125,1.60742-4.63477c4.99609-4.03613,9.29102-9.15918,12.43848-14.83203
						c-13.38086-8.96387-24.66895-21.06152-32.65918-35.00586c-9.00391-15.7168-13.76367-33.65137-13.76367-51.86328
						c0-57.60742,46.86719-104.47461,104.47461-104.47461s104.47461,46.86719,104.47461,104.47461
						s-46.86719,104.47363-104.47461,104.47363c-9.11914,0-18.18164-1.18164-26.94043-3.51367
						c-1.22266,0.93262-2.49219,1.81152-3.77539,2.61426C153.37695,439.67285,144.26562,442.30078,134.98828,442.30078z
						 M192.05273,227.36426c-57.21387,0-103.76172,46.54785-103.76172,103.76172c0,18.08789,4.72656,35.89941,13.66992,51.50781
						c7.98926,13.94336,19.2998,26.02832,32.70703,34.94922l0.27246,0.18066l-0.15723,0.28711
						c-3.2041,5.86816-7.62109,11.16895-12.77344,15.33105c-1.15527,0.93359-1.68945,2.47266-1.35938,3.92188
						c0.33008,1.44824,1.47754,2.60449,2.92383,2.94727c3.75781,0.88672,7.59766,1.33691,11.41406,1.33691
						c9.14355,0,18.12402-2.59082,25.9707-7.49316c1.3125-0.82031,2.61133-1.72266,3.85938-2.68164l0.13867-0.10645l0.1709,0.04492
						c8.75,2.3457,17.80859,3.53516,26.9248,3.53516c57.21387,0,103.76172-46.54688,103.76172-103.76074
						S249.2666,227.36426,192.05273,227.36426z"/>
				</g>
			</g>
			<g>
				<g>
					<path fill="#BFD827" d="M78.08808,318.56802c0-55.1395,44.69946-99.83896,99.83895-99.83896
						s99.83896,44.69946,99.83896,99.83896s-44.69946,99.83896-99.83896,99.83896c-9.71455,0-19.10266-1.39313-27.98186-3.98074
						c-1.61884,1.36115-3.34526,2.63159-5.19078,3.78452c-10.67509,6.66876-23.05189,8.34399-34.40512,5.6647
						c6.84216-5.52856,12.06933-12.4501,15.54186-20.08838C97.22121,386.24338,78.08808,354.64124,78.08808,318.56802z"/>
				</g>
				<g>
					<path fill="#333333" d="M120.86621,431.1084c-3.95703,0-7.94336-0.46094-11.89453-1.39355
						c-2.22949-0.52637-3.96387-2.27539-4.47266-4.50781c-0.50781-2.23242,0.29883-4.55957,2.08008-5.99902
						c4.57812-3.7002,8.48633-8.25293,11.48145-13.34668c-28.88965-19.78516-45.97266-52.01562-45.97266-87.29297
						c0-58.35938,47.47949-105.83887,105.83887-105.83887s105.83887,47.47949,105.83887,105.83887
						s-47.47949,105.83887-105.83887,105.83887c-9.02246,0-17.97266-1.13965-26.64746-3.3916
						c-1.09473,0.8125-2.21191,1.5752-3.34375,2.2832C139.67969,428.45605,130.35742,431.1084,120.86621,431.1084z
						 M177.92676,224.72949c-51.74316,0-93.83887,42.0957-93.83887,93.83887c0,32.93848,16.79785,62.88281,44.93555,80.10059
						c2.58496,1.58203,3.58398,4.84277,2.33008,7.60156c-2.06543,4.54395-4.69629,8.83105-7.7959,12.73828
						c6.3252-0.44238,12.48438-2.42969,18.01855-5.88672c1.54199-0.96387,3.05957-2.07129,4.50781-3.28906
						c1.53613-1.29004,3.61914-1.72559,5.54004-1.16797c8.51855,2.4834,17.36816,3.74219,26.30273,3.74219
						c51.74316,0,93.83887-42.0957,93.83887-93.83887S229.66992,224.72949,177.92676,224.72949z"/>
				</g>
			</g>
		</g>
		<g>
			<g>
				<g>
					<circle fill="#F2F2F2" cx="136.10715" cy="318.21158" r="15.154"/>
				</g>
			</g>
			<g>
				<g>
					<circle fill="#F2F2F2" cx="178.21982" cy="318.21158" r="15.154"/>
				</g>
			</g>
			<g>
				<g>
					<circle fill="#F2F2F2" cx="221.99692" cy="318.21158" r="15.154"/>
				</g>
			</g>
		</g>
	</g>
</g>
</svg>