<?xml version="1.0" encoding="utf-8"?>

<!DOCTYPE svg PUBLIC "-//W3C//DTD SVG 1.1//EN" "http://www.w3.org/Graphics/SVG/1.1/DTD/svg11.dtd">

<svg version="1.1" id="Icons" xmlns="http://www.w3.org/2000/svg" xmlns:xlink="http://www.w3.org/1999/xlink" 
	 width="800px" height="800px" viewBox="0 0 512 512" enable-background="new 0 0 512 512" xml:space="preserve">
<g id="Email">
	<g>
		<g>
			<g>
				<path fill="#FC8C12" d="M398.24878,512H113.75122C51.18805,512,0,460.81195,0,398.24878V113.75122
					C0,51.18805,51.18805,0,113.75122,0h284.49756C460.81195,0,512,51.18805,512,113.75122v284.49756
					C512,460.81195,460.81195,512,398.24878,512z"/>
			</g>
		</g>
	</g>
	<g>
		<g>
			<g>
				<polyline fill="#333333" points="419.93774,185.94553 256.24387,38 255.75612,38 92.06225,185.91829 				"/>
			</g>
			<g>
				<path fill="#333333" d="M419.93555,191.94531c-1.43457,0-2.87305-0.51074-4.02148-1.54883L256,45.86621L96.08496,190.37012
					c-2.45801,2.22266-6.25293,2.0293-8.47461-0.42969c-2.22168-2.45801-2.0293-6.25293,0.42969-8.47461L251.7334,33.54785
					C252.83594,32.55176,254.26953,32,255.75586,32h0.48828c1.48633,0,2.91992,0.55176,4.02344,1.54883l163.69336,147.94531
					c2.45801,2.22168,2.64941,6.01562,0.42773,8.47461C423.2041,191.27832,421.57324,191.94531,419.93555,191.94531z"/>
			</g>
		</g>
		<g>
			<g>
				<rect x="92.06225" y="185.91829" fill="#EAEAEA" width="327.87552" height="227.97276"/>
			</g>
			<g>
				<path fill="#333333" d="M419.9375,419.89062H92.0625c-3.31348,0-6-2.68652-6-6V185.91797c0-3.31348,2.68652-6,6-6h327.875
					c3.31348,0,6,2.68652,6,6v227.97266C425.9375,417.2041,423.25098,419.89062,419.9375,419.89062z M98.0625,407.89062h315.875
					V191.91797H98.0625V407.89062z"/>
			</g>
		</g>
		<g opacity="0.1">
			<g>
				<path d="M442,202c0-3.31371-2.4274-6.68414-6.25-9.25l-11.49329-10.72119L108,196c-3.31371,0-6,2.68629-6,6v228
					c0,3.31372,2.68629,6,6,6h328c3.31372,0,6-2.68628,6-6V202z"/>
			</g>
		</g>
		<g>
			<g>
				<path fill="#333333" d="M233.63672,305.02429L98.93867,191.62433L111,186h291l8.16943,8.16942L277.90601,305.07877
					C277.90601,305.07877,256.27344,288.04855,233.63672,305.02429z"/>
			</g>
		</g>
		<g>
			<g>
				<polyline fill="#D3D3D3" points="419.57706,413.89105 277.90601,305.07877 419.93774,186.10895 				"/>
			</g>
			<g>
				<path fill="#333333" d="M419.57324,419.89062c-1.27637,0-2.56152-0.4043-3.65039-1.24121l-141.6709-108.81152
					c-1.44336-1.1084-2.30566-2.8125-2.34473-4.63184c-0.03809-1.81934,0.75098-3.55762,2.14648-4.72656l142.03125-118.96973
					c2.53906-2.12891,6.32422-1.79395,8.45215,0.74707c2.12793,2.54004,1.79297,6.32422-0.74707,8.45215L287.49219,304.87598
					l135.73926,104.25586c2.62891,2.01855,3.12305,5.78516,1.10449,8.41309
					C423.1543,419.08398,421.37305,419.89062,419.57324,419.89062z"/>
			</g>
		</g>
		<g>
			<g>
				<polyline fill="#D3D3D3" points="92.06225,413.89105 233.63672,305.07877 92.06225,185.91829 				"/>
			</g>
			<g>
				<path fill="#333333" d="M92.06641,419.89062c-1.7998,0-3.5791-0.80566-4.76074-2.34375
					c-2.01953-2.62695-1.52637-6.39453,1.10059-8.41309l135.66113-104.2666L88.19922,190.50879
					c-2.53516-2.13379-2.86133-5.91895-0.72754-8.4541c2.13574-2.53613,5.91992-2.85938,8.4541-0.72754L237.5,300.48828
					c1.39062,1.1709,2.17578,2.90723,2.13477,4.72363c-0.04004,1.81641-0.90137,3.51758-2.3418,4.62402L95.71875,418.64746
					C94.62891,419.48535,93.34277,419.89062,92.06641,419.89062z"/>
			</g>
		</g>
		<g>
			<g>
				<path fill="#EAEAEA" d="M419.93774,413.94553L277.90601,305.71457C264.5,295,248,294.83334,233.63672,305.74561
					L92.06225,413.9183"/>
			</g>
			<g>
				<path fill="#333333" d="M419.93262,419.94531c-1.26758,0-2.54492-0.39941-3.63184-1.22754L274.26953,310.4873
					c-0.03711-0.02832-0.07324-0.05664-0.10938-0.08594c-11.37598-9.0918-24.82324-9.04785-36.89355,0.12207L95.70508,418.68555
					c-2.63477,2.0127-6.40039,1.50684-8.41016-1.125c-2.01172-2.63281-1.50781-6.39844,1.125-8.41016l141.57422-108.17188
					c16.54785-12.5752,35.83008-12.56445,51.60254,0.00488l141.97754,108.18945c2.63574,2.00879,3.14453,5.77344,1.13574,8.40918
					C423.5293,419.13086,421.74121,419.94531,419.93262,419.94531z"/>
			</g>
		</g>
		<g opacity="0.1">
			<g>
				<polygon points="395.51639,164.11272 411.09549,178.22047 403.38235,192 373,192 373.2038,143.70766 				"/>
			</g>
		</g>
		<g>
			<g>
				<path fill="#333333" d="M419.9375,419.89062H92.0625c-3.31348,0-6-2.68652-6-6V186.10938c0-3.31348,2.68652-6,6-6h327.875
					c3.31348,0,6,2.68652,6,6v227.78125C425.9375,417.2041,423.25098,419.89062,419.9375,419.89062z M98.0625,407.89062h315.875
					V192.10938H98.0625V407.89062z"/>
			</g>
		</g>
		<g>
			<g>
				<path fill="#F5FEFF" d="M277.90601,305.07877c0,0-21.90601-20.07877-44.26929,0l-94.84052-80.08229V78.33334H373.2038v145.33835
					L277.90601,305.07877z"/>
			</g>
			<g>
				<path fill="#333333" d="M277.7666,313.08984l-3.89941-3.57422c-0.18066-0.16016-4.95801-4.35156-11.81934-6.33398
					c-8.69141-2.50977-16.9043-0.37012-24.40234,6.3623l-3.8877,3.49023L132.7959,227.78223V72.33301h246.4082V226.4375
					L277.7666,313.08984z M255.13574,290.15332c8.97363,0,16.98145,3.40332,22.58984,7.18848l89.47852-76.43555V84.33301H144.7959
					v137.87695l88.93848,75.09863C241.00391,292.10254,248.34668,290.15332,255.13574,290.15332z"/>
			</g>
		</g>
		<g opacity="0.1">
			<g>
				<path d="M138.69432,196.98535l94.89145,75.09674c0,0,6.13354-6.00333,22.41423-6.00333s21.79138,5.94174,21.79138,5.94174
					L373,194v30l-89.14862,76l-5.94537,5.07877c0,0-5.7514-7.45883-21.40601-7.45883s-22.86328,7.45883-22.86328,7.45883
					l-94.84052-80.08229L138.69432,196.98535z"/>
			</g>
		</g>
		<g>
			<g>
				<path fill="#333333" d="M335,145H178c-3.31348,0-6-2.68652-6-6s2.68652-6,6-6h157c3.31348,0,6,2.68652,6,6
					S338.31348,145,335,145z"/>
			</g>
		</g>
		<g>
			<g>
				<path fill="#333333" d="M335,184H178c-3.31348,0-6-2.68652-6-6s2.68652-6,6-6h157c3.31348,0,6,2.68652,6,6
					S338.31348,184,335,184z"/>
			</g>
		</g>
		<g>
			<g>
				<path fill="#333333" d="M256,223h-78c-3.31348,0-6-2.68652-6-6s2.68652-6,6-6h78c3.31348,0,6,2.68652,6,6S259.31348,223,256,223
					z"/>
			</g>
		</g>
	</g>
	<g>
		<g>
			<path fill="#FFFFFF" d="M119,365c-3.31348,0-6-2.68652-6-6v-97c0-3.31348,2.68652-6,6-6s6,2.68652,6,6v97
				C125,362.31348,122.31348,365,119,365z"/>
		</g>
	</g>
	<g>
		<g>
			<circle fill="#FFFFFF" cx="119" cy="237.96568" r="5.95766"/>
		</g>
	</g>
</g>
</svg>