<?xml version="1.0" ?>


<svg fill="#000000" width="800px" height="800px" viewBox="0 0 25 25" xmlns="http://www.w3.org/2000/svg">

<g id="capricorn">

<path d="M14.61,13.51a3.44,3.44,0,0,0-3.1,1.81,6.4,6.4,0,0,1-.64-2.82c0-2.87,1.77-5.21,3.94-5.21H15a1,1,0,0,0,0-2H8a1,1,0,0,0,0,2h2.75A8,8,0,0,0,8.87,12.5a8,8,0,0,0,1.7,5,.93.93,0,0,1-.55.18,1.11,1.11,0,0,1-1.12-1.1,1,1,0,0,0-2,0A3.11,3.11,0,0,0,10,19.71a3,3,0,0,0,2.06-.81,5.18,5.18,0,0,0,2.45.79l.08,0h.2a.76.76,0,0,0,.16,0,3.26,3.26,0,0,0,3.13-3.07A3.31,3.31,0,0,0,14.61,13.51Zm.13,4.19a3.06,3.06,0,0,1-1.69-.57c0-.12,0-.24.06-.36s0,0,0,0a1.41,1.41,0,0,1,1.49-1.24c.81,0,1.49.51,1.49,1.1S15.49,17.65,14.74,17.7Z"/>

<path d="M21,1H4A3,3,0,0,0,1,4V21a3,3,0,0,0,3,3H21a3,3,0,0,0,3-3V4A3,3,0,0,0,21,1Zm1,20a1,1,0,0,1-1,1H4a1,1,0,0,1-1-1V4A1,1,0,0,1,4,3H21a1,1,0,0,1,1,1Z"/>

</g>

</svg>