<?xml version="1.0" ?>


<svg fill="#000000" width="800px" height="800px" viewBox="0 0 25 25" xmlns="http://www.w3.org/2000/svg">

<g id="conjungtion">

<path d="M13.49,10.27V8.35l.23.23a1,1,0,0,0,1.42-1.41L13.22,5.22a1.17,1.17,0,0,0-.3-.19l-.1,0a1,1,0,0,0-.24,0,.41.41,0,0,0-.11,0,1,1,0,0,0-.3,0h0a1.21,1.21,0,0,0-.3.2l0,0L9.86,7.15a1,1,0,0,0,.7,1.71,1,1,0,0,0,.71-.29l.23-.23v1.93a5,5,0,1,0,2,0Zm-1,7.8a2.95,2.95,0,1,1,2.95-3A2.95,2.95,0,0,1,12.5,18.07Z"/>

<circle cx="12.5" cy="15.12" r="0.78"/>

<path d="M21,1H4A3,3,0,0,0,1,4V21a3,3,0,0,0,3,3H21a3,3,0,0,0,3-3V4A3,3,0,0,0,21,1Zm1,20a1,1,0,0,1-1,1H4a1,1,0,0,1-1-1V4A1,1,0,0,1,4,3H21a1,1,0,0,1,1,1Z"/>

</g>

</svg>