<?xml version="1.0" ?>


<svg fill="#000000" width="800px" height="800px" viewBox="0 0 25 25" xmlns="http://www.w3.org/2000/svg">

<g id="neptunus">

<path d="M17.85,5.46A1,1,0,0,0,17,4.92h-.14l-.18,0-.19,0a1,1,0,0,0-.17.1l-.09.05L14.87,6.26a.78.78,0,0,0-.16.2.82.82,0,0,0-.17-.2L13.21,5.15l-.09-.05A.91.91,0,0,0,13,5L12.9,5l-.14,0-.15,0h-.09l-.13,0-.16,0-.09,0L12,5.1l-.09.05L10.59,6.26a1.23,1.23,0,0,0-.23.28,1,1,0,0,0-.23-.28L8.79,5.15,8.71,5.1A.91.91,0,0,0,8.58,5L8.49,5,8.35,5l-.15,0H8.11L8,5,7.82,5,7.73,5l-.12.08-.09.05L6.18,6.26a1,1,0,0,0-.13,1.41A1,1,0,0,0,7.16,8v2.68a5.65,5.65,0,0,0,4.41,5.62v0h-.68a1,1,0,0,0,0,2h.68v.77a1,1,0,0,0,2,0v-.77h.68a1,1,0,0,0,0-2h-.68v0A5.65,5.65,0,0,0,18,10.65V8a.71.71,0,0,0,.2,0A1,1,0,0,0,19,7.67a1,1,0,0,0-.13-1.41ZM9.16,10.65V8A1,1,0,0,0,9.49,8a1,1,0,0,0,.77-.36.87.87,0,0,0,.1-.19.87.87,0,0,0,.1.19,1,1,0,0,0,.77.36A1,1,0,0,0,11.57,8v6.22A3.69,3.69,0,0,1,9.16,10.65Zm4.41,3.54V8a1,1,0,0,0,.34.06,1,1,0,0,0,.77-.36s0,0,0-.06,0,0,0,.06a1,1,0,0,0,.77.36A1,1,0,0,0,16,7.89v2.76A3.69,3.69,0,0,1,13.57,14.19Z"/>

<path d="M21,1H4A3,3,0,0,0,1,4V21a3,3,0,0,0,3,3H21a3,3,0,0,0,3-3V4A3,3,0,0,0,21,1Zm1,20a1,1,0,0,1-1,1H4a1,1,0,0,1-1-1V4A1,1,0,0,1,4,3H21a1,1,0,0,1,1,1Z"/>

</g>

</svg>