<?xml version="1.0" ?>


<svg fill="#000000" width="800px" height="800px" viewBox="0 0 25 25" xmlns="http://www.w3.org/2000/svg">

<g id="sagitarius">

<path d="M17.52,16.53l1.17-1.28a1,1,0,0,0-.07-1.42,1,1,0,0,0-1.41.07l-1,1.14L8.65,6.79h.79a1,1,0,0,0,0-2H6.36A1,1,0,0,0,6,4.86H6L6,4.9a.63.63,0,0,0-.23.16l-.08.08a1.43,1.43,0,0,0-.14.2,1,1,0,0,0,0,.1.84.84,0,0,0-.07.35V9.15a1,1,0,0,0,2,0V8.37l7.43,8.16-1.17,1.28a1,1,0,0,0,.06,1.41,1.05,1.05,0,0,0,.68.26,1,1,0,0,0,.74-.33l1-1.14,1.71,1.87a1,1,0,0,0,.73.33,1,1,0,0,0,.68-.26,1,1,0,0,0,.06-1.41Z"/>

<path d="M21,1H4A3,3,0,0,0,1,4V21a3,3,0,0,0,3,3H21a3,3,0,0,0,3-3V4A3,3,0,0,0,21,1Zm1,20a1,1,0,0,1-1,1H4a1,1,0,0,1-1-1V4A1,1,0,0,1,4,3H21a1,1,0,0,1,1,1Z"/>

</g>

</svg>