<?xml version="1.0" ?>


<svg fill="#000000" width="800px" height="800px" viewBox="0 0 25 25" xmlns="http://www.w3.org/2000/svg">

<g id="pluto">

<path d="M18.24,7.87a1,1,0,0,0-1,1,4.56,4.56,0,0,1-4.74,4.35A4.56,4.56,0,0,1,7.76,8.87a1,1,0,0,0-2,0,6.49,6.49,0,0,0,5.74,6.27v.78H10.43a1,1,0,0,0,0,2H11.5v1a1,1,0,0,0,2,0v-1h1.07a1,1,0,0,0,0-2H13.5v-.78a6.49,6.49,0,0,0,5.74-6.27A1,1,0,0,0,18.24,7.87Z"/>

<path d="M12.5,12.06A3.52,3.52,0,1,0,9,8.55,3.52,3.52,0,0,0,12.5,12.06Zm0-5A1.52,1.52,0,1,1,11,8.55,1.52,1.52,0,0,1,12.5,7Z"/>

<path d="M21,1H4A3,3,0,0,0,1,4V21a3,3,0,0,0,3,3H21a3,3,0,0,0,3-3V4A3,3,0,0,0,21,1Zm1,20a1,1,0,0,1-1,1H4a1,1,0,0,1-1-1V4A1,1,0,0,1,4,3H21a1,1,0,0,1,1,1Z"/>

</g>

</svg>