<?xml version="1.0" ?>


<svg fill="#000000" width="800px" height="800px" viewBox="0 0 25 25" xmlns="http://www.w3.org/2000/svg">

<g id="mars">

<path d="M19.3,6.17A1.28,1.28,0,0,0,19.16,6a.46.46,0,0,0-.07-.07.68.68,0,0,0-.26-.18l0,0h0a1,1,0,0,0-.34-.07H15.68a1,1,0,0,0-1,1,1,1,0,0,0,1,1H16L14.42,9.17a6.07,6.07,0,0,0-3.26-.94,5.71,5.71,0,0,0-5.85,5.55,5.71,5.71,0,0,0,5.85,5.56A5.72,5.72,0,0,0,17,13.78a5.35,5.35,0,0,0-1.12-3.25L17.41,9v.32a1,1,0,0,0,1,1h0a1,1,0,0,0,1-1l0-2.74a1,1,0,0,0-.07-.35ZM11.16,17.34a3.72,3.72,0,0,1-3.85-3.56,3.71,3.71,0,0,1,3.85-3.55A3.71,3.71,0,0,1,15,13.78,3.72,3.72,0,0,1,11.16,17.34Z"/>

<path d="M21,1H4A3,3,0,0,0,1,4V21a3,3,0,0,0,3,3H21a3,3,0,0,0,3-3V4A3,3,0,0,0,21,1Zm1,20a1,1,0,0,1-1,1H4a1,1,0,0,1-1-1V4A1,1,0,0,1,4,3H21a1,1,0,0,1,1,1Z"/>

</g>

</svg>