<?xml version="1.0" ?>


<svg fill="#000000" width="800px" height="800px" viewBox="0 0 25 25" xmlns="http://www.w3.org/2000/svg">

<g id="leo">

<path d="M18.4,12.62a2.68,2.68,0,0,1-1-2.43,1.08,1.08,0,0,0,0-.19c0-.05,0-.09,0-.14a4.93,4.93,0,0,0-4.84-5,4.93,4.93,0,0,0-4.84,5,5.15,5.15,0,0,0,.67,2.54,4,4,0,0,0-2.27,3.73,3.82,3.82,0,0,0,3.56,4,3.82,3.82,0,0,0,3.56-4,4.07,4.07,0,0,0-2.06-3.63l0,0A3.06,3.06,0,0,1,9.69,9.86a2.93,2.93,0,0,1,2.84-3,2.93,2.93,0,0,1,2.84,3c0,.05,0,.1,0,.15s0,.06,0,.09a4.58,4.58,0,0,0,2,4.26,1,1,0,0,0,.49.13,1,1,0,0,0,.87-.51A1,1,0,0,0,18.4,12.62ZM9.65,18.15a1.84,1.84,0,0,1-1.56-2,1.84,1.84,0,0,1,1.56-2,1.84,1.84,0,0,1,1.56,2A1.84,1.84,0,0,1,9.65,18.15Z"/>

<path d="M21,1H4A3,3,0,0,0,1,4V21a3,3,0,0,0,3,3H21a3,3,0,0,0,3-3V4A3,3,0,0,0,21,1Zm1,20a1,1,0,0,1-1,1H4a1,1,0,0,1-1-1V4A1,1,0,0,1,4,3H21a1,1,0,0,1,1,1Z"/>

</g>

</svg>