<?xml version="1.0" encoding="utf-8"?>

<svg width="800px" height="800px" viewBox="0 0 1024 1024" class="icon"  version="1.1" xmlns="http://www.w3.org/2000/svg"><path d="M914.29 219.43c0-80.66-65.62-146.29-146.29-146.29H274.29c-84.57 0-155.45 64.11-164.57 146.29v475.43h146.29v256h585.14V346.08c43.69-25.34 73.14-72.62 73.14-126.65z m-585.14 73.14c0-19.55 15.43-35.57 34.75-36.53a90.403 90.403 0 0 1-16.44 36.53h-18.31zM182.87 621.71v-384c0-50.41 41.02-91.43 91.43-91.43 30.46 0 57.48 14.97 74.1 37.94-52.3 8.33-92.39 53.74-92.39 108.34v329.15h-73.14z m585.14 256H329.15V365.72h438.86v511.99z m0-585.14H429.54c6.12-17.37 9.32-35.86 9.32-54.86 0-33.81-10.25-65.26-27.8-91.43H768c40.34 0 73.14 32.8 73.14 73.14s-32.79 73.15-73.13 73.15z" fill="#0F1F3C" /><path d="M416.392 762.75L635.83 449.3l44.933 31.456-219.438 313.45zM457.15 588.27c42.34 0 76.8-34.46 76.8-76.8s-34.46-76.8-76.8-76.8c-42.34 0-76.8 34.46-76.8 76.8s34.46 76.8 76.8 76.8z m0-109.72c18.14 0 32.91 14.77 32.91 32.91 0 18.14-14.77 32.91-32.91 32.91-18.14 0-32.91-14.77-32.91-32.91 0-18.14 14.77-32.91 32.91-32.91zM563.2 731.46c0 42.34 34.46 76.8 76.8 76.8s76.8-34.46 76.8-76.8-34.46-76.8-76.8-76.8-76.8 34.46-76.8 76.8z m109.72 0c0 18.14-14.77 32.91-32.91 32.91s-32.91-14.77-32.91-32.91c0-18.14 14.77-32.91 32.91-32.91s32.91 14.77 32.91 32.91z" fill="#0F1F3C" /></svg>