<?xml version="1.0" encoding="utf-8"?>

<svg width="800px" height="800px" viewBox="0 0 1024 1024" class="icon"  version="1.1" xmlns="http://www.w3.org/2000/svg"><path d="M475.54 839.12C311.2 820.88 182.97 681.12 182.97 512c0-181.48 147.66-329.14 329.14-329.14 169.12 0 308.88 128.23 327.12 292.57h-71.12v73.14H914.4V512c0-221.82-180.46-402.29-402.29-402.29S109.83 290.18 109.83 512s180.46 402.29 402.29 402.29h36.57V768h-73.14v71.12z" fill="#0F1F3C" /><path d="M636.12 666.73c25.27 0 36.38-13.82 40.08-64.01-11.78-3.03-30.98-10.43-39.41-17.84-1 35.02-2.01 40.05-5.73 40.05h-4.38c-3.03 0-3.36-0.99-3.36-11.78v-74.41h35.36v-119.6H628.7c8.08-15.14 16.5-32.98 24.58-50.85l-50.52-15.5c-5.05 20.86-14.83 47.16-23.58 66.35h-29.64l20.55-9.08c-5.05-16.52-18.53-39.74-31-57.26l-40.42 17.52c9.43 14.79 19.53 33.68 24.93 48.82h-30.99v119.6h27.28c-2.7 42.09-9.77 74.74-56.94 94.98 10.45 8.75 23.25 26.92 28.63 38.7 59.29-28.6 71.07-75.1 75.12-133.68h11.78v74.74c0 39.75 6.75 53.25 39.41 53.25h18.23z m-26.26-170.45h-70.74V461.6h70.74v34.68z" fill="#0F1F3C" /><path d="M448.52 671.43V547.49c6.07 11.12 11.8 22.54 15.15 30.97l26.61-39.06c-6.06-7.4-32.99-35.71-41.76-43.77v-3.39h38.73v-45.45h-38.73v-41.8c14.48-3.69 28.3-7.4 41.09-12.11L463 352.79c-28.96 11.8-70.05 22.25-108.11 27.97 5.05 10.43 11.11 26.92 12.8 37.71 10.78-1.35 21.89-2.7 33.34-4.41v32.71h-45.81v45.45h37.06c-11.11 29.32-27.61 60.98-44.79 81.19 7.41 13.13 18.51 34 22.91 48.84 11.11-14.84 21.56-34.72 30.64-56.28v105.44h47.48zM868.69 635.73L728.53 789.29l-76.74-69.97-49.28 54.04 130.77 119.21 189.44-207.52z" fill="#0F1F3C" /></svg>