<?xml version="1.0" encoding="utf-8"?>

<svg width="800px" height="800px" viewBox="0 0 1024 1024" class="icon"  version="1.1" xmlns="http://www.w3.org/2000/svg"><path d="M730.14 584.75l-88.4-208.38c33.12-33.09 53.62-78.82 53.62-129.34 0-100.98-81.86-182.84-182.83-182.84-100.98 0-182.84 81.86-182.84 182.84 0 51.68 21.63 98.13 56.1 131.39l-87.52 206.33H110.06v219.43h803.88V584.75h-183.8zM512.53 137.32c60.49 0 109.7 49.21 109.7 109.7s-49.21 109.7-109.7 109.7-109.71-49.21-109.71-109.7 49.22-109.7 109.71-109.7z m-63.94 280.42c19.97 7.49 41.35 12.12 63.94 12.12 23.67 0 46.13-4.85 66.89-13.04l71.23 167.93h-272.9l70.84-167.01z m392.2 313.29H183.2v-73.14h657.59v73.14zM146.63 877.63h731.36v73.14H146.63z" fill="#0F1F3C" /></svg>