<?xml version="1.0" encoding="utf-8"?>

<svg width="800px" height="800px" viewBox="0 0 1024 1024" class="icon"  version="1.1" xmlns="http://www.w3.org/2000/svg"><path d="M553.89 875.24c0.15-0.02 0.29-0.05 0.44-0.07l-0.19-0.19-0.25 0.26zM448.03 670.45V546.51c6.07 11.12 11.8 22.54 15.16 30.97l26.61-39.06c-6.06-7.4-32.99-35.71-41.76-43.77v-3.39h38.74V445.8h-38.74v-41.79c14.48-3.69 28.3-7.41 41.09-12.11l-26.61-40.08c-28.96 11.8-70.05 22.25-108.11 27.97 5.05 10.43 11.11 26.92 12.8 37.72 10.78-1.35 21.89-2.7 33.34-4.41v32.71h-45.81v45.45h37.06c-11.11 29.32-27.61 60.98-44.79 81.19 7.4 13.13 18.51 34 22.9 48.84 11.11-14.84 21.56-34.72 30.64-56.28v105.45h47.48z" fill="#0F1F3C" /><path d="M617.46 665.74h18.18c25.27 0 36.38-13.82 40.08-64.01-11.78-3.03-30.98-10.43-39.41-17.84-1 35.02-2.01 40.05-5.73 40.05h-4.38c-3.03 0-3.36-0.99-3.36-11.78v-74.41h35.36v-119.6h-29.98c8.08-15.14 16.5-32.98 24.58-50.85l-50.52-15.5c-5.05 20.87-14.83 47.16-23.58 66.35h-29.64l20.55-9.08c-5.05-16.52-18.53-39.74-31-57.26l-40.42 17.52c9.43 14.79 19.53 33.68 24.93 48.82h-30.98v119.6h27.28c-2.7 42.09-9.77 74.74-56.94 94.98 10.45 8.75 23.25 26.92 28.63 38.7 59.29-28.6 71.07-75.1 75.12-133.68h11.78v74.74c0.04 39.76 6.78 53.25 39.45 53.25zM538.64 495.3v-34.69h70.74v34.69h-70.74z" fill="#0F1F3C" /><path d="M804.58 321.59v358.96l-292.57 168.9-292.57-168.9V342.7l292.57-168.9 141.04 81.43h-56.47v73.15h182.86V145.52h-73.15v55.98L512.01 89.34 146.29 300.48v422.29l365.72 211.14 365.71-211.14V321.59z" fill="#0F1F3C" /></svg>