<?xml version="1.0" encoding="utf-8"?>

<svg width="800px" height="800px" viewBox="0 0 1024 1024" class="icon"  version="1.1" xmlns="http://www.w3.org/2000/svg"><path d="M182.88 146.2h585.14v365.71h73.14V73.06H109.74v877.71h402.28v-73.14H182.88z" fill="#0F1F3C" /><path d="M256.01 219.34h438.86v73.14H256.01zM256.01 365.63h365.71v73.14H256.01zM256.01 511.91h219.43v73.14H256.01zM731.44 545.76L548.59 646.33v201.14l182.86 100.57L914.3 847.47V646.33L731.44 545.76z m109.72 258.46l-109.71 60.34-109.71-60.34V689.58l109.71-60.34 109.71 60.34v114.64z" fill="#0F1F3C" /><path d="M731.44 746.9m-36.57 0a36.57 36.57 0 1 0 73.14 0 36.57 36.57 0 1 0-73.14 0Z" fill="#0F1F3C" /></svg>