<?xml version="1.0" encoding="utf-8"?>

<svg width="800px" height="800px" viewBox="0 0 1024 1024" class="icon"  version="1.1" xmlns="http://www.w3.org/2000/svg"><path d="M323.95 314.98v54.86h66.59v20.73h-64.5v54.86h64.5v62.14h54.86v-62.14h64.5v-54.86h-64.5v-20.73h66.61v-54.86h-34.98l46.5-46.5-38.79-38.78-66.77 66.76-66.77-66.76-38.78 38.78 46.5 46.5z" fill="#0F1F3C" /><path d="M731.43 256V109.71H109.71v804.57h804.57V256H731.43z m-73.15 585.14H182.86V182.86h475.43v658.28z m182.86 0H731.43v-512h109.71v512z" fill="#0F1F3C" /><path d="M255.77 548.25h329.14v73.14H255.77zM255.77 694.76h329.14v73.14H255.77z" fill="#0F1F3C" /></svg>