<?xml version="1.0" encoding="utf-8"?>

<svg width="800px" height="800px" viewBox="0 0 1024 1024" class="icon"  version="1.1" xmlns="http://www.w3.org/2000/svg"><path d="M900.64 356.27c0.02-0.13 0.13-0.21 0.14-0.34-0.02 0.13-0.12 0.22-0.14 0.34z" fill="#FDF5F2" /><path d="M731.58 182.45H109.87v475.43h621.71V182.45z m-73.14 402.28H183.01V255.59h475.43v329.14z" fill="#0F1F3C" /><path d="M768.12 438.98h72.5v329.14H365.85v-73.17H292.7v146.32h621.06V365.84H768.12zM852.67 225.66l34.48 42.98 32.71-129.45-53.18-13.43-6.86 27.07c-34.34-32.29-84.7-67.37-150.21-81.07l-11.21 53.71c77.23 16.14 129.8 69.69 154.27 100.19zM176.37 800.59l-34.48-42.96-32.71 129.43 53.18 13.43 6.86-27.09c34.34 32.29 84.71 67.41 150.23 81.09l11.21-53.71c-77.22-16.12-129.81-69.69-154.29-100.19zM322.74 365.95v54.85h70.55v23.91h-68.35v54.86h68.35v65.93h54.86v-65.93h68.38v-54.86h-68.38V420.8h70.57v-54.85h-39.24l50.44-50.43-38.79-38.79-70.41 70.39-70.39-70.39-38.79 38.79 50.43 50.43z" fill="#0F1F3C" /></svg>