<?xml version="1.0" encoding="utf-8"?>

<svg width="800px" height="800px" viewBox="0 0 1024 1024" class="icon"  version="1.1" xmlns="http://www.w3.org/2000/svg"><path d="M692.81 686.13h-4c-2.76 0-3.06-0.9-3.06-10.76v-67.94h32.29V498.25h-27.37c7.38-13.82 15.07-30.11 22.44-46.42l-46.12-14.15c-4.61 19.05-13.54 43.06-21.53 60.58H618.4l18.77-8.29c-4.61-15.08-16.92-36.28-28.31-52.28l-36.9 16c8.61 13.51 17.83 30.75 22.76 44.58h-28.29v109.19h24.91c-2.46 38.43-8.92 68.24-51.98 86.72 9.54 7.99 21.23 24.58 26.14 35.33 54.13-26.11 64.89-68.57 68.58-122.05h10.76v68.24c0 36.3 6.16 48.62 35.98 48.62h16.6c23.08 0 33.22-12.62 36.6-58.44-10.76-2.76-28.29-9.52-35.98-16.29-0.92 31.95-1.84 36.54-5.23 36.54z m-19.36-117.45h-64.59v-31.67h64.59v31.67z" fill="#0F1F3C" /><path d="M564.27 608.04c-5.53-6.76-30.12-32.6-38.13-39.96v-3.09h35.37v-41.5h-35.37v-38.16c13.22-3.37 25.84-6.76 37.51-11.06l-24.29-36.6c-26.44 10.77-63.96 20.31-98.71 25.54 4.61 9.52 10.14 24.58 11.69 34.44 9.84-1.23 19.98-2.46 30.44-4.03v29.87h-41.83v41.5h33.83c-10.14 26.77-25.21 55.68-40.9 74.13 6.76 11.99 16.9 31.04 20.91 44.59 10.14-13.55 19.68-31.7 27.98-51.38v96.27h43.36V615.43c5.54 10.16 10.77 20.58 13.83 28.27l24.31-35.66z" fill="#0F1F3C" /><path d="M925.88 873.8l-84.91-84.91c45.04-56.31 72.13-127.6 72.13-205.31 0-181.78-147.36-329.14-329.14-329.14-181.78 0-329.14 147.36-329.14 329.14s147.36 329.14 329.14 329.14c77.71 0 148.99-27.09 205.3-72.12l84.92 84.92 51.7-51.72z m-341.92-34.22c-141.16 0-256-114.84-256-256s114.84-256 256-256 256 114.84 256 256-114.84 256-256 256z" fill="#0F1F3C" /><path d="M182.87 183.21h658.28v108.97h73.14V110.07H109.72v804.57h182.47V841.5H182.87z" fill="#0F1F3C" /></svg>