<?xml version="1.0" encoding="utf-8"?>
<svg width="800px" height="800px" viewBox="0 0 163 163" xmlns="http://www.w3.org/2000/svg"><title>Gestures</title><circle cx="81.5" cy="81" r="80" fill="#adeada"/><path d="M148.62,103.5a7.75,7.75,0,0,0-7.81-6.31H139.2c4.17,0,7.55-3.74,7.55-8s-3.38-8-7.55-8h-3.77a7.5,7.5,0,1,0,0-15h-6.88A7.5,7.5,0,0,0,136,57.4a7.66,7.66,0,0,0-7.81-6.21h-9.38a7.29,7.29,0,0,1-6.26,3h6.88a7.5,7.5,0,1,1,0,15h3.77c4.17,0,7.55,3.75,7.55,8s-3.38,8-7.55,8h1.61a7.75,7.75,0,0,1,7.81,6.31,7.61,7.61,0,0,1-7.45,8.92l-34-.66c2.76,9.67,2.07,12.58,1.48,15.88a19.83,19.83,0,0,1-1.23,4.14c0.18,0.33.34,0.63,0.47,0.9a15.54,15.54,0,0,1,1.4,4.79,127.36,127.36,0,0,1,1,13.77,5.52,5.52,0,0,0,2.85,1.45c4.19,0.64,8.14-4.61,9.83-8a19.42,19.42,0,0,0,1.63-5c0.59-3.3,1.28-6.22-1.48-15.89l34,0.69A7.61,7.61,0,0,0,148.62,103.5Z" fill="#95e2d6"/><path d="M57.72,86v7.82A3.75,3.75,0,0,1,54,97.61H35.22a3.75,3.75,0,0,1-3.75-3.75V45.11a3.74,3.74,0,0,1,3.75-3.75H54a3.74,3.74,0,0,1,3.75,3.75V86Z" fill="#fde45c"/><path d="M123.2,85h1.61a7.85,7.85,0,0,1,7.81,6.43,7.66,7.66,0,0,1-7.45,9l-34-.63c2.76,9.67,2.07,12.59,1.48,15.89a19.42,19.42,0,0,1-1.63,5c-1.69,3.42-5.64,8.67-9.83,8a5.52,5.52,0,0,1-2.85-1.45,127.38,127.38,0,0,0-1-13.77,15.55,15.55,0,0,0-1.4-4.79,58.08,58.08,0,0,0-3.5-5.88c-6.25-8.42-11.72-15.29-14.07-17.5H57.72V49.36H58l12.59-8.18A32.68,32.68,0,0,1,83,38.73h29.16A7.84,7.84,0,0,1,120,45.15a7.67,7.67,0,0,1-7.45,9h6.88a7.71,7.71,0,0,1,0,15.41h3.77A7.7,7.7,0,0,1,123.2,85Z" fill="#fce7d0"/><path d="M132.6,92.37c-0.68-3.8-4.59-6.18-8.79-6.18H122a8.37,8.37,0,0,0,8.5-8c0-4.25-3.8-8-8.5-8h-4.24c4.69,0,8.5-3.25,8.5-7.51s-3.8-7.49-8.5-7.49H110c5.16,0,9.24-4.47,8.39-9.29-0.68-3.8-4.58-6.71-8.79-6.71H93.85c4.21,0,11.11,4.19,11.78,8a10.22,10.22,0,0,1-.59,6A2.88,2.88,0,0,0,107.18,57c3.27,0.86,6.08,2.66,6.1,5.56a7.9,7.9,0,0,1-1.71,5.46,2.77,2.77,0,0,0,.28,4.1c2,1.63,3.35,4,3.35,5.85a7.24,7.24,0,0,1-2.47,5.17,2.76,2.76,0,0,0,.63,4.43,7,7,0,0,1,3.49,4.78c0.74,4.17-4.66,8-8.81,8.92h16.18C129.37,101.29,133.46,97.2,132.6,92.37Z" fill="#f4c7ad"/><path d="M123.2,71.8h-7.7a1.5,1.5,0,1,1,0-3h7.7A1.5,1.5,0,1,1,123.2,71.8Z" fill="#5a150b"/><path d="M123.2,87.2a1.5,1.5,0,0,1,0-3,6.2,6.2,0,0,0,0-12.4,1.5,1.5,0,0,1,0-3A9.2,9.2,0,0,1,123.2,87.2Z" fill="#5a150b"/><path d="M119.43,56.39h-7.71a1.5,1.5,0,0,1,0-3h7.71A1.5,1.5,0,0,1,119.43,56.39Z" fill="#5a150b"/><path d="M119.43,71.8a1.5,1.5,0,0,1,0-3,6.21,6.21,0,0,0,0-12.41,1.5,1.5,0,0,1,0-3A9.21,9.21,0,0,1,119.43,71.8Z" fill="#5a150b"/><path d="M112.55,56.39a1.5,1.5,0,0,1,0-3,6,6,0,0,0,4.55-2.12A6.23,6.23,0,0,0,112.19,41H83a31.05,31.05,0,0,0-11.71,2.29l-12.47,8.1a1.5,1.5,0,0,1-1.63-2.52L69.8,40.67a1.5,1.5,0,0,1,.25-0.13A34,34,0,0,1,83,38h29.16a9.23,9.23,0,0,1,7.19,15.24A9,9,0,0,1,112.55,56.39Z" fill="#5a150b"/><path d="M88.64,100.77a2,2,0,0,0-1.41,2.47c2,7.52,1,10.32.44,13.37A19,19,0,0,1,86,121.51c-1.24,2.5-3.68,5.91-6.54,7.35a4.87,4.87,0,0,0,1.71.59c4.19,0.64,8.14-4.62,9.83-8a18.53,18.53,0,0,0,1.63-4.81c0.59-3.29,2.46-7.85-.26-16.85Z" fill="#f4c7ad"/><path d="M81.92,131a6.15,6.15,0,0,1-.93-0.07,7.11,7.11,0,0,1-3.62-1.82,1.5,1.5,0,0,1-.5-1.1,127.07,127.07,0,0,0-1-13.58,14.06,14.06,0,0,0-1.26-4.35,57.64,57.64,0,0,0-3.36-5.65c-6.52-8.78-11.71-15.25-13.89-17.29a1.5,1.5,0,0,1,2.06-2.19c2.33,2.2,7.53,8.65,14.25,17.7a59.19,59.19,0,0,1,3.65,6.12A17.11,17.11,0,0,1,78.8,114a128,128,0,0,1,1,13.25,3.77,3.77,0,0,0,1.61.7c3.2,0.49,6.68-4,8.25-7.21a17.86,17.86,0,0,0,1.5-4.65l0.06-.33c0.54-3,1.06-5.87-1.51-14.87A1.5,1.5,0,0,1,91.22,99l34,0.63a6,6,0,0,0,4.53-2.12,6.23,6.23,0,0,0-4.91-10.29H117.2a1.5,1.5,0,0,1,0-3h7.61A9.23,9.23,0,0,1,132,99.44a9,9,0,0,1-6.83,3.17l-32-.59c2.14,8.19,1.58,11.28,1,14.28l-0.06.34a20.77,20.77,0,0,1-1.76,5.42C90.69,125.5,86.67,131,81.92,131Z" fill="#5a150b"/><path d="M54,41.19H51.66L51.2,43.43a13,13,0,0,1,.72,4.91l0.32,40.85a3.33,3.33,0,0,1-3.33,3.33l-17.5-.33v1.67a3.33,3.33,0,0,0,3.33,3.33H54a3.44,3.44,0,0,0,3.44-3.44V45.11A3.64,3.64,0,0,0,54,41.19Z" fill="#f7c726"/><path d="M54,99.11H35.22A5.26,5.26,0,0,1,30,93.86V45.11a5.26,5.26,0,0,1,5.25-5.25H54a5.26,5.26,0,0,1,5.25,5.25V93.86A5.26,5.26,0,0,1,54,99.11ZM35.22,42.86A2.25,2.25,0,0,0,33,45.11V93.86a2.25,2.25,0,0,0,2.25,2.25H54a2.25,2.25,0,0,0,2.25-2.25V45.11A2.25,2.25,0,0,0,54,42.86H35.22Z" fill="#5a150b"/></svg>