<?xml version="1.0" encoding="utf-8"?>
<svg width="800px" height="800px" viewBox="0 0 163 163" xmlns="http://www.w3.org/2000/svg"><title>Gestures</title><circle cx="82" cy="81.2" r="80" fill="#adeada"/><path d="M101.95,69.61A7.93,7.93,0,0,1,111,61.78c4,0.57,6.76,4.4,6.76,8.44V99.33c0,14.9-17,27.29-37.92,27a44,44,0,0,1-18.15-4,39.64,39.64,0,0,1-6.28-3.59A31.19,31.19,0,0,1,42.35,94.43s-1-17.08,0-19A7.67,7.67,0,0,1,52.83,72l1.33,1.24h0.31v-12c0-4.05,2.76-7.88,6.76-8.44a7.92,7.92,0,0,1,9.07,7.83V31.37c0-4.05,2.74-7.88,6.76-8.45a7.92,7.92,0,0,1,9.06,7.83V62.4a7.91,7.91,0,1,1,15.82,0v7.21Z" fill="#fce7d0"/><path d="M54.47,89.81a1.5,1.5,0,0,1-1.5-1.5V61.23c0-5,3.46-9.29,8.06-9.92a9.42,9.42,0,0,1,10.73,8.36,1.5,1.5,0,1,1-3,.3,6.42,6.42,0,0,0-7.33-5.69c-3.07.42-5.47,3.48-5.47,7V88.31A1.5,1.5,0,0,1,54.47,89.81Z" fill="#5a150b"/><path d="M96.5,54V99.33c0,12.13-10.94,22.58-26.41,25.9a45.61,45.61,0,0,0,9.49,1.09c20.94,0.29,37.92-12.09,37.92-27V70.21c0-4-2.84-7.87-6.84-8.44a8,8,0,0,0-9.16,7.83V62.4a8.28,8.28,0,0,0-8-8.26" fill="#f4c7ad"/><path d="M81,30.74q0.07,21.73.14,43.46a2.91,2.91,0,0,0,3,2.73,2.82,2.82,0,0,0,2.3-2.16l-0.86-44a7.71,7.71,0,0,0-8.79-7.83,8.83,8.83,0,0,0-1.28.27A7.79,7.79,0,0,1,81,30.74Z" fill="#f4c7ad"/><path d="M86.5,63.55a7.9,7.9,0,0,1,7.89-7.92H94.5V42.24a8.15,8.15,0,0,0-8-7.9V63.55Z" fill="#95e2d6"/><path d="M119.76,73.28a11,11,0,0,0-1.26-.07v27.27c0,14.9-16.76,27.29-37.7,27a43.51,43.51,0,0,1-18-4,39.11,39.11,0,0,1-6.23-3.59c-0.67-.47-1.28-1-1.9-1.48a30.28,30.28,0,0,0,10,11.83,39.69,39.69,0,0,0,6.29,3.59,42.89,42.89,0,0,0,17.91,4c20.94,0.29,37.68-12.09,37.68-27V81.71C126.5,77.68,123.76,73.85,119.76,73.28Z" fill="#95e2d6"/><path d="M101.95,75.77a1.5,1.5,0,0,1-1.5-1.5V62.4a6.41,6.41,0,1,0-12.82,0,1.5,1.5,0,1,1-3,0,9.41,9.41,0,1,1,18.82,0V74.27A1.5,1.5,0,0,1,101.95,75.77Z" fill="#5a150b"/><path d="M80.57,127.83H79.84a45.45,45.45,0,0,1-18.75-4.16A41.29,41.29,0,0,1,54.58,120,32.82,32.82,0,0,1,40.85,94.5C40.48,88,40,76.74,41,74.79a9.39,9.39,0,0,1,5.51-4.74,9.09,9.09,0,0,1,7,.64,1.49,1.49,0,0,1,.33.23l1.33,1.24a1.5,1.5,0,0,1-2,2.19L52,73.27a6.1,6.1,0,0,0-4.54-.36,6.42,6.42,0,0,0-3.75,3.25c-0.46,1.27-.29,10.26.16,18.19A29.81,29.81,0,0,0,56.3,117.49a38.34,38.34,0,0,0,6,3.45,42.52,42.52,0,0,0,17.55,3.89c11.6,0.17,22.7-3.8,29.6-10.61,4.45-4.39,6.8-9.53,6.8-14.89V70.21c0-3.46-2.4-6.51-5.47-7a6.43,6.43,0,0,0-7.36,6.35,1.5,1.5,0,0,1-3,0,9.43,9.43,0,0,1,10.78-9.32c4.59,0.65,8.05,4.92,8.05,9.92V99.33c0,6.18-2.66,12.06-7.69,17C104.28,123.57,92.72,127.83,80.57,127.83Z" fill="#5a150b"/><path d="M86.13,71.82a1.5,1.5,0,0,1-1.5-1.5V30.74a6.42,6.42,0,0,0-7.35-6.35c-3.11.44-5.47,3.44-5.47,7V68.52a1.5,1.5,0,0,1-3,0V31.37c0-5,3.46-9.29,8.05-9.94a9.42,9.42,0,0,1,10.77,9.32V70.32A1.5,1.5,0,0,1,86.13,71.82Z" fill="#5a150b"/></svg>