<?xml version="1.0" encoding="utf-8"?>
<svg width="800px" height="800px" viewBox="0 0 163 163" xmlns="http://www.w3.org/2000/svg"><title>Gestures</title><circle cx="83.5" cy="81.5" r="80" fill="#f7bac8"/><path d="M118.47,59.85c-0.83,0-2.47.14-2.47,0.39v46.48c0,14-16.07,25.64-35.73,25.36a41.85,41.85,0,0,1-17.1-3.77,38.91,38.91,0,0,1-8-5l0.05,0.1a43.44,43.44,0,0,0,17.73,15.64,42.62,42.62,0,0,0,17.26,3.77C109.84,143.14,126,131.51,126,117.5V67.28A7.51,7.51,0,0,0,118.47,59.85Z" fill="#f49bb5"/><path d="M100.89,56.5a7.43,7.43,0,0,1,14.87,0v50.22c0,14-15.94,25.64-35.61,25.36a41.55,41.55,0,0,1-17-3.77,43.46,43.46,0,0,1-17.74-15.64L33.08,94.31c-1.57-1.92-3.44-4.72-1.56-8.37a7.43,7.43,0,0,1,10-3.19l1.24,1.15L56.29,96.36v-52a7.43,7.43,0,1,1,14.87,0V34.86a7.43,7.43,0,0,1,14.87,0v9.48a7.43,7.43,0,1,1,14.87,0V56.5Z" fill="#fce7d0"/><path d="M107.5,49.07A7.49,7.49,0,0,0,100,56.5V44.34c0-4.11-5.74-6.91-9.85-6.91,0,0,5.85,0,4.85,13v56.26C95,118.09,84.58,127.9,70.1,131a44.55,44.55,0,0,0,9.14,1C98.9,132.36,115,120.73,115,106.72V56.5A7.48,7.48,0,0,0,107.5,49.07Z" fill="#f4c7ad"/><path d="M86,77.24a1.5,1.5,0,0,1-1.5-1.5V34.86a5.93,5.93,0,0,0-11.87,0V74.07a1.5,1.5,0,0,1-3,0V34.86a8.93,8.93,0,0,1,17.87,0V75.74A1.5,1.5,0,0,1,86,77.24Z" fill="#5a150b"/><path d="M100.89,77.24a1.5,1.5,0,0,1-1.5-1.5V44.33a5.93,5.93,0,1,0-11.87,0,1.5,1.5,0,1,1-3,0,8.93,8.93,0,1,1,17.87,0V75.74A1.5,1.5,0,0,1,100.89,77.24Z" fill="#5a150b"/><path d="M80.81,133.59H80.12a43,43,0,0,1-17.64-3.91A45,45,0,0,1,44.12,113.5L31.87,95.2c-1.19-1.46-4.15-5.18-1.68-10a9,9,0,0,1,12-3.84,1.49,1.49,0,0,1,.33.23l12.24,11.3V44.33a8.93,8.93,0,1,1,17.87,0,1.5,1.5,0,1,1-3,0,5.93,5.93,0,1,0-11.87,0v52a1.5,1.5,0,0,1-2.52,1.1L40.67,84a5.94,5.94,0,0,0-7.82,2.63c-1.32,2.56-.4,4.54,1.39,6.73l0.08,0.11,12.29,18.37a42,42,0,0,0,17.11,15.11,40.06,40.06,0,0,0,16.44,3.64c10.93,0.15,21.27-3.56,27.74-9.94,4.16-4.1,6.36-8.92,6.36-13.92V56.5a5.93,5.93,0,0,0-11.87,0,1.5,1.5,0,0,1-3,0,8.93,8.93,0,0,1,17.87,0v50.22c0,5.83-2.51,11.38-7.25,16.06C103.12,129.57,92.24,133.59,80.81,133.59Z" fill="#5a150b"/></svg>