<?xml version="1.0" encoding="utf-8"?>
<svg width="800px" height="800px" viewBox="0 0 163 163" xmlns="http://www.w3.org/2000/svg"><title>Gestures</title><circle cx="81.5" cy="81" r="80" fill="#fde45c"/><path d="M122.45,69.82a5.59,5.59,0,0,0-2.45.62v32c0,13.08-15,23.94-33.41,23.69a39.11,39.11,0,0,1-16-3.53,36.19,36.19,0,0,1-7.13-4.32l0.32,0.5a40.58,40.58,0,0,0,16.54,14.59A37.51,37.51,0,0,0,96,136.92c18.37,0.25,33-10.6,33-23.69V76.76A6.61,6.61,0,0,0,122.45,69.82Z" fill="#f7c726"/><path d="M105.82,66a6.94,6.94,0,0,1,13.89,0v36.48c0,13.08-14.9,23.94-33.26,23.69a38.75,38.75,0,0,1-15.92-3.53A40.61,40.61,0,0,1,54,108L42.49,90.87C41,89.08,39.29,86.46,41,83a6.93,6.93,0,0,1,9.35-3l1.17,1.07L64.18,92.79V37.26a6.94,6.94,0,1,1,13.88,0V28.42a6.94,6.94,0,0,1,13.89,0V38.83a6.94,6.94,0,0,1,13.88,0V66Z" fill="#fce7d0"/><path d="M113,60A7,7,0,0,0,106,67V39.81c0-3.83-5-6.94-8.88-6.94,0,0,3.88,0,2.88,9.7v60.86c0,10.45-9.45,19.47-22.63,22.55a41.75,41.75,0,0,0,9.2,1.13c18.37,0.25,33.43-10.6,33.43-23.69V67A7,7,0,0,0,113,60Z" fill="#f4c7ad"/><path d="M91.94,75a1.5,1.5,0,0,1-1.5-1.5V28.42a5.44,5.44,0,0,0-10.89,0V72a1.5,1.5,0,0,1-3,0V28.42a8.44,8.44,0,0,1,16.89,0V73.53A1.5,1.5,0,0,1,91.94,75Z" fill="#5a150b"/><path d="M105.82,78.5a1.5,1.5,0,0,1-1.5-1.5V38.83a5.44,5.44,0,1,0-10.88,0,1.5,1.5,0,0,1-3,0,8.44,8.44,0,1,1,16.88,0V77A1.5,1.5,0,0,1,105.82,78.5Z" fill="#5a150b"/><path d="M87.06,127.64H86.42A40.18,40.18,0,0,1,69.9,124a42.12,42.12,0,0,1-17.17-15.12L41.28,91.76c-1.11-1.38-3.89-4.9-1.58-9.4a8.43,8.43,0,0,1,11.37-3.62,1.52,1.52,0,0,1,.32.23L52.57,80l10.11,9.33V37.26a8.44,8.44,0,0,1,16.88,0,1.5,1.5,0,0,1-3,0,5.44,5.44,0,0,0-10.88,0V92.79a1.5,1.5,0,0,1-2.52,1.1L49.53,81.32a5.44,5.44,0,0,0-7.16,2.42c-1.2,2.33-.36,4.16,1.28,6.19L43.74,90l11.49,17.15a39.13,39.13,0,0,0,15.93,14.06,37.24,37.24,0,0,0,15.31,3.39c10.14,0.15,19.81-3.32,25.83-9.25,3.86-3.81,5.91-8.28,5.91-12.93V66a5.44,5.44,0,0,0-10.89,0,1.5,1.5,0,0,1-3,0,8.44,8.44,0,0,1,16.89,0v36.48c0,5.47-2.35,10.68-6.8,15.07C108,123.88,97.77,127.64,87.06,127.64Z" fill="#5a150b"/></svg>