<?xml version="1.0" encoding="utf-8"?>
<svg width="800px" height="800px" viewBox="0 0 163 163" xmlns="http://www.w3.org/2000/svg"><title>Gestures</title><circle cx="81.54" cy="81.22" r="80" fill="#fde45c"/><path d="M117.46,95.29v8.09c0,13.66-17.16,24.4-36.67,24.4H79.26c-9.81,0-18.1-3.61-23.85-9.54a32.6,32.6,0,0,0,30.86,21.54h1.53c19.51,0,35.67-11.48,35.67-25.14V88.07C123.46,92,120.46,95.1,117.46,95.29Z" fill="#f7c726"/><path d="M117.46,69.9v6.9c0,4-5,7.24-9,7.24v4.61a7.5,7.5,0,0,0,15,0V77.15C123.46,73.14,120.46,69.91,117.46,69.9Z" fill="#f7c726"/><path d="M84.27,84l-0.44-.23A23.75,23.75,0,0,0,80,82.12l0,0.66h0.57c1.32,0,2.77.71,4.24,0.84C84.62,83.55,84.44,84.07,84.27,84Z" fill="#f7c726"/><path d="M97.89,33.92a7.19,7.19,0,0,0-4.39.89,7.22,7.22,0,0,1,1.27,5L90.26,58.53a7.46,7.46,0,0,0-5.8,7V84.24a36.57,36.57,0,0,1,8.6,1.68l1.07,0.23c0.22,0.09-.68.2,1.32,0.3V67.74c0-3.42,1.85-6.29,5-7l4-18.74A7.45,7.45,0,0,0,97.89,33.92Z" fill="#f7c726"/><path d="M116.1,64.15V75.66a7.25,7.25,0,0,1-14.5,0V64.15A7.25,7.25,0,0,1,116.1,64.15Z" fill="#fce7d0"/><path d="M92.66,51.65a6.89,6.89,0,0,1,1.7-.21,7.25,7.25,0,0,1,7.24,7.25V76.81a7.24,7.24,0,0,1-7.24,7.24,26.83,26.83,0,0,1-2.74-.47c-0.06-3.6-2.42-5.21-4.51-6.18V58.69A7.24,7.24,0,0,1,92.66,51.65Z" fill="#fce7d0"/><path d="M87.1,58.69V77.41l-0.69-.3L86,76.88c-3.43-1.3-8.69-1.87-12.74-1.94H72.66L72.6,71.55l9.92-40.34A7.25,7.25,0,0,1,96.92,32.9L92.66,51.65A7.24,7.24,0,0,0,87.1,58.69Z" fill="#fce7d0"/><path d="M72.6,71.55l0.06,3.39a26.6,26.6,0,0,0-16,4.91l-9.42-45,0.28,0.87a7.25,7.25,0,0,1,14.07-3.5Z" fill="#fce7d0"/><path d="M94.36,84.05a7.24,7.24,0,0,0,7.24-7.24,7.25,7.25,0,0,0,14.5,0v26.57c0,13.66-15.55,25-34.73,24.74h-1.5c-18.74,0-31.9-15-31.9-30.29V96.63a20.89,20.89,0,0,1,8.71-16.78,26.6,26.6,0,0,1,16-4.91h0.57c4.05,0.07,9.31.64,12.74,1.94l0.44,0.23,0.69,0.3c2.09,1,4.45,2.57,4.51,6.18A26.83,26.83,0,0,0,94.36,84.05Z" fill="#fce7d0"/><path d="M109,84.05a7,7,0,0,1-6.9-7.24c0,3.23-2.67,6-4.67,6.89v19.68c0,11.17-10.85,20.62-25.14,23.61a29.93,29.93,0,0,0,7.54.79h1.5c19.18,0,35.1-10.74,35.1-24.4V76.81A7.4,7.4,0,0,1,109,84.05Z" fill="#f4c7ad"/><path d="M116.1,65.29V76.81a7.25,7.25,0,0,1-14.5,0V65.29A7.25,7.25,0,0,1,116.1,65.29Z" fill="#f4c7ad"/><path d="M108.84,85.55a8.75,8.75,0,0,1-8.74-8.74,1.5,1.5,0,0,1,3,0,5.75,5.75,0,0,0,11.5,0,1.5,1.5,0,0,1,3,0A8.76,8.76,0,0,1,108.84,85.55Z" fill="#5a150b"/><path d="M94.29,51.44a6.61,6.61,0,0,0-1.66.21h0.14a7.41,7.41,0,0,1,5.69,7V76.81a7.37,7.37,0,0,1-5.56,7,11.12,11.12,0,0,0,1.46.24,7.12,7.12,0,0,0,7.1-7.24V58.69A7.19,7.19,0,0,0,94.29,51.44Z" fill="#f4c7ad"/><path d="M56.9,33.72l11,39.36,0,2.21a31,31,0,0,1,4.71-.35L72.6,71.55l-11-39.36a7.25,7.25,0,0,0-11.5-4A7.26,7.26,0,0,1,56.9,33.72Z" fill="#f4c7ad"/><path d="M55.2,80.16l-9.42-45a1.49,1.49,0,0,1,0-.76,8.75,8.75,0,0,1,17.23-2.54l9.46,33.82L81,30.94a8.73,8.73,0,0,1,9.69-7.57,8.76,8.76,0,0,1,7.67,9.7,1.61,1.61,0,0,1,0,.16l-4.32,19-2.93-.66,4.3-18.92a5.75,5.75,0,0,0-9.28-5.1A5.69,5.69,0,0,0,84,31.39a1.52,1.52,0,0,1,0,.19L74.06,71.91a1.5,1.5,0,0,1-2.9,0l-11-39.36a5.77,5.77,0,0,0-7-4.23,5.75,5.75,0,0,0-4.2,7,1.49,1.49,0,0,1,0,.58l9.13,43.64Z" fill="#5a150b"/><path d="M94.36,85.55a17.5,17.5,0,0,1-2.72-.44l-0.31-.06,0.57-2.95,0.33,0.07c1.19,0.24,1.91.37,2.13,0.38a5.75,5.75,0,0,0,5.73-5.74V58.69a5.75,5.75,0,0,0-5.74-5.75A5.39,5.39,0,0,0,93,53.1a5.72,5.72,0,0,0-4.43,5.59V77.41h-3V58.69a8.7,8.7,0,0,1,6.71-8.51,8.3,8.3,0,0,1,2-.25,8.76,8.76,0,0,1,8.74,8.75V76.81A8.75,8.75,0,0,1,94.36,85.55Z" fill="#5a150b"/><path d="M82,129.62H79.86c-20.63,0-33.4-16.5-33.4-31.79V96.63a22.27,22.27,0,0,1,9.32-18,28.15,28.15,0,0,1,16.88-5.21h0.57c4,0.07,9.57.64,13.27,2l0.17,0.08,0.38,0.2L87.72,76a8.22,8.22,0,0,1,5.39,7.52,8.76,8.76,0,0,1-8.6,8.89l-8.36.65q-3.87,3.68-7.77,7.34a1.5,1.5,0,0,1-2.06-2.19q4.08-3.84,8.15-7.7a1.5,1.5,0,0,1,.92-0.41l9-.7a5.78,5.78,0,0,0,5.74-5.85c0-2.23-1.12-3.68-3.64-4.84l-0.64-.28-0.12-.06-0.35-.19C82,77,76.9,76.5,73.21,76.44H72.66a25.19,25.19,0,0,0-15.1,4.62,19.3,19.3,0,0,0-8.1,15.58v1.19c0,17.22,15.72,28.79,30.4,28.79h1.5c10.64,0.15,20.75-3.47,27-9.69,4-4,6.19-8.68,6.19-13.55V65.29a5.75,5.75,0,0,0-11.5,0,1.5,1.5,0,0,1-3,0,8.75,8.75,0,0,1,17.5,0v38.09c0,5.69-2.45,11.12-7.08,15.69C103.79,125.7,93.17,129.62,82,129.62Z" fill="#5a150b"/></svg>