<?xml version="1.0" encoding="utf-8"?>
<svg width="800px" height="800px" viewBox="0 0 24 24" xmlns="http://www.w3.org/2000/svg" fill="none" stroke="#000000" stroke-width="1" stroke-linecap="round" stroke-linejoin="miter"><path d="M11,14.52a5.72,5.72,0,0,1-.82-.67h0A5.72,5.72,0,0,1,9.48,13,5.67,5.67,0,0,1,9,12.12a5.63,5.63,0,0,1-.28-1,4.78,4.78,0,0,1-.1-1,4.85,4.85,0,0,1,.1-1,5,5,0,0,1,.76-1.87,5.22,5.22,0,0,1,.67-.82l.37-.37.37-.37.37-.37L11.63,5,12,4.61l.37-.37.37-.37.37-.37a4.72,4.72,0,0,1,.82-.67,5.27,5.27,0,0,1,.91-.48,5.42,5.42,0,0,1,1-.29,5.55,5.55,0,0,1,2,0,5.42,5.42,0,0,1,1,.29,5.27,5.27,0,0,1,.91.48,5.12,5.12,0,0,1,.82.67h0a5.12,5.12,0,0,1,.67.82,5.27,5.27,0,0,1,.48.91,5.42,5.42,0,0,1,.29,1,5.55,5.55,0,0,1,0,2,5.42,5.42,0,0,1-.29,1,5.27,5.27,0,0,1-.48.91,4.72,4.72,0,0,1-.67.82l-.37.37-.37.37-.37.37-.37.37"></path><path d="M13,9.48a5.72,5.72,0,0,1,.82.67h0a5.72,5.72,0,0,1,.67.82,5,5,0,0,1,.76,1.88,4.78,4.78,0,0,1,.1,1,4.85,4.85,0,0,1-.1,1,5,5,0,0,1-.76,1.87,5.22,5.22,0,0,1-.67.82l-.37.37-.37.37-.37.37-.37.37-.37.37-.37.37-.37.37-.37.37a4.72,4.72,0,0,1-.82.67,5.27,5.27,0,0,1-.91.48,5.42,5.42,0,0,1-1,.29,5.55,5.55,0,0,1-2,0,5.42,5.42,0,0,1-1-.29,5.27,5.27,0,0,1-.91-.48,5.12,5.12,0,0,1-.82-.67h0a5.12,5.12,0,0,1-.67-.82,5.27,5.27,0,0,1-.48-.91,5.42,5.42,0,0,1-.29-1,5.55,5.55,0,0,1,0-2,5.42,5.42,0,0,1,.29-1,5.27,5.27,0,0,1,.48-.91,4.72,4.72,0,0,1,.67-.82l.37-.37.37-.37L4.61,12,5,11.63"></path></svg>