<?xml version="1.0" ?>


<svg width="800px" height="800px" viewBox="0 0 32 32" xmlns="http://www.w3.org/2000/svg">

<defs>

<style>.cls-1{fill:none;}.cls-2{fill:#17061c;}.cls-3{fill:#ff4a64;}</style>

</defs>

<title/>

<g id="washmachine">

<rect class="cls-1" height="32" id="bg" width="32" x="-0.01"/>

<path class="cls-2" d="M21.57,29.5H10.41a5,5,0,0,1-5-5V7.5a5,5,0,0,1,5-5H21.57a5,5,0,0,1,5,5v17A5,5,0,0,1,21.57,29.5ZM10.41,4.5a3,3,0,0,0-3,3v17a3,3,0,0,0,3,3H21.57a3,3,0,0,0,3-3V7.5a3,3,0,0,0-3-3Z"/>

<path class="cls-2" d="M25.57,11.5H6.41a1,1,0,0,1,0-2H25.57a1,1,0,0,1,0,2Z"/>

<circle class="cls-3" cx="15.99" cy="19.49" r="5.22"/>

<path class="cls-2" d="M16,25.71a6.22,6.22,0,1,1,6.22-6.22A6.23,6.23,0,0,1,16,25.71Zm0-10.44a4.22,4.22,0,1,0,4.22,4.22A4.22,4.22,0,0,0,16,15.27Z"/>

<circle class="cls-2" cx="15.99" cy="19.49" r="1.82"/>

<path class="cls-2" d="M14.56,8.17H10.42a1,1,0,0,1,0-2h4.14a1,1,0,0,1,0,2Z"/>

<path class="cls-2" d="M21.56,8.17H17.42a1,1,0,0,1,0-2h4.14a1,1,0,0,1,0,2Z"/>

</g>

</svg>