<?xml version="1.0" ?>


<svg width="800px" height="800px" viewBox="0 0 32 32" xmlns="http://www.w3.org/2000/svg">

<defs>

<style>.cls-1{fill:none;}.cls-2{fill:#17061c;}.cls-3{fill:#ff4a64;}</style>

</defs>

<title/>

<g id="watch">

<rect class="cls-1" height="32" id="bg" width="32" x="-0.12" y="-0.18"/>

<path class="cls-2" d="M16.37,30.93h-1C13,30.93,11,28.59,11,25.71V5.94C11,3.06,13,.72,15.39.72h1c2.4,0,4.35,2.34,4.35,5.22V25.71C20.72,28.59,18.77,30.93,16.37,30.93Zm-1-28.21C14.12,2.72,13,4.19,13,5.94V25.71c0,1.74,1.08,3.22,2.35,3.22h1c1.27,0,2.35-1.48,2.35-3.22V5.94c0-1.75-1.08-3.22-2.35-3.22Z"/>

<rect class="cls-3" height="12.66" rx="2" ry="2" width="12.66" x="9.55" y="9.49"/>

<path class="cls-2" d="M20.21,23.15H11.55a3,3,0,0,1-3-3V11.49a3,3,0,0,1,3-3h8.66a3,3,0,0,1,3,3v8.66A3,3,0,0,1,20.21,23.15ZM11.55,10.49a1,1,0,0,0-1,1v8.66a1,1,0,0,0,1,1h8.66a1,1,0,0,0,1-1V11.49a1,1,0,0,0-1-1Z"/>

<path class="cls-2" d="M15.34,18.7a1.05,1.05,0,0,1-.7-.28L12.14,16a1,1,0,0,1,1.39-1.44L16,17a1,1,0,0,1,0,1.41A1,1,0,0,1,15.34,18.7Z"/>

<path class="cls-2" d="M15.34,18.7a1,1,0,0,1-.69-.28,1,1,0,0,1,0-1.41l3.58-3.75a1,1,0,1,1,1.44,1.38l-3.58,3.75A1,1,0,0,1,15.34,18.7Z"/>

</g>

</svg>