<?xml version="1.0" ?>


<svg fill="#000000" width="800px" height="800px" viewBox="0 0 512 512" enable-background="new 0 0 512 512" id="Layer_1" version="1.1" xml:space="preserve" xmlns="http://www.w3.org/2000/svg" xmlns:xlink="http://www.w3.org/1999/xlink">

<g>

<path d="M325.154,219.521l-0.006,2.729l-10.728,3.18c-22.168,6.586-38.022,25.692-40.384,48.679l-0.759,7.393h-5.993   c-5.038,0-9.114,4.082-9.114,9.114c0,5.032,4.076,9.114,9.114,9.114h10.146l0.012,3.133c2.409,32.065,17.284,64.302,45.332,77.972   c-3.602,7.381-9.933,13.072-18.002,15.564c-7.975,2.456-39.452,9.363-39.452,9.363l0,0c-0.006,0-0.024,0.006-0.03,0.006   l-0.024,0.006l0,0c-4.699,1.038-44.288,10.769-48.934,43.279c-2.658,18.572-5.761,36.206-5.767,36.254   c-0.469,2.646,0.267,5.376,1.994,7.441c1.733,2.065,4.29,3.252,6.984,3.252h267.341c2.694,0,5.251-1.187,6.978-3.252   c1.733-2.065,2.468-4.794,2-7.441c-0.012-0.047-3.115-17.682-5.773-36.254c-4.652-32.599-44.454-42.294-48.981-43.291l0,0   c0,0-31.477-6.907-39.452-9.363c-7.844-2.421-14.092-7.856-17.896-15.486c28.172-13.647,43.119-46.08,45.558-78.738v-2.445h9.826   c5.032,0,9.114-4.082,9.114-9.114c0-5.032-4.082-9.114-9.114-9.114h-6.147l-0.718-7.215c-2.284-23.093-18.151-42.294-40.413-48.892   l-10.443-3.097v-2.753c0-5.032-4.082-9.114-9.114-9.114h-38.04C329.242,210.431,325.166,214.501,325.154,219.521z M292.17,275.972   c1.602-15.617,12.377-28.6,27.437-33.073l5.5-1.632l-0.083,40.235H291.6L292.17,275.972z M288.74,419.231l14.905,58.54h-36.8   v-53.568C268.27,423.794,283.614,420.406,288.74,419.231z M234.377,451.64c1.234-8.651,7.423-14.917,14.24-19.331v45.463h-18.287   C231.47,470.865,232.983,461.383,234.377,451.64z M322.449,477.771l-16.003-62.878c1.341-0.374,7.981-2.593,10.01-3.542   l31.376,25.336c1.667,1.353,3.697,2.029,5.726,2.029c2.035,0,4.07-0.676,5.744-2.041l30.979-25.158   c1.928,0.884,8.396,3.014,9.755,3.388l-15.433,62.866H322.449z M439.576,424.203v53.568H403.37l14.371-58.528   C422.856,420.412,438.158,423.794,439.576,424.203z M472.05,451.64c1.388,9.743,2.907,19.225,4.047,26.131h-18.293v-45.457   C464.628,436.723,470.816,442.995,472.05,451.64z M375.031,400.422l-21.491,17.456l-21.972-17.747   c3.572-3.958,6.503-8.568,8.699-13.701c4.177,0.742,8.497,1.246,13.101,1.246c4.456,0,8.645-0.481,12.71-1.181   C368.261,391.682,371.293,396.375,375.031,400.422z M353.368,369.449c-36.361,0-55.205-34.13-57.721-67.274v-2.445h115.46   l0.006,1.756C408.568,335.319,389.723,369.449,353.368,369.449z M386.685,242.863c15.125,4.486,25.9,17.528,27.454,33.228   l0.534,5.411h-33.251v-40.2L386.685,242.863z M363.194,228.658v52.844h-19.943l0.113-52.844H363.194z"/>

<path d="M37.266,483.847h145.822c5.032,0,9.114-4.082,9.114-9.114s-4.082-9.114-9.114-9.114h-27.342V60.063   c0-1.127,0.605-2.136,1.614-2.694c12.496-6.954,46.537-23.141,92.563-23.141c45.469,0,79.865,16.21,92.533,23.188   c1.027,0.558,1.644,1.578,1.644,2.706v110.814c0,5.032,4.082,9.114,9.114,9.114c5.032,0,9.114-4.082,9.114-9.114V60.123   c0-7.749-4.242-14.905-11.078-18.679c-13.914-7.654-51.633-25.443-101.327-25.443c-50.298,0-87.686,17.789-101.445,25.455   c-6.758,3.774-10.959,10.906-10.959,18.608v113.912H37.266c-11.725,0-21.266,9.541-21.266,21.266v267.341   C16,474.306,25.541,483.847,37.266,483.847z M34.228,195.241c0-1.673,1.365-3.038,3.038-3.038h100.253v273.417H37.266   c-1.673,0-3.038-1.365-3.038-3.038V195.241z"/>

<path d="M219.543,107.14h60.759c5.032,0,9.114-4.082,9.114-9.114s-4.082-9.114-9.114-9.114h-60.759   c-5.032,0-9.114,4.082-9.114,9.114S214.512,107.14,219.543,107.14z"/>

<path d="M219.543,180.051h60.759c5.032,0,9.114-4.082,9.114-9.114c0-5.032-4.082-9.114-9.114-9.114h-60.759   c-5.032,0-9.114,4.082-9.114,9.114C210.43,175.969,214.512,180.051,219.543,180.051z"/>

<path d="M219.543,252.962h24.304c5.032,0,9.114-4.082,9.114-9.114c0-5.032-4.082-9.114-9.114-9.114h-24.304   c-5.032,0-9.114,4.082-9.114,9.114C210.43,248.88,214.512,252.962,219.543,252.962z"/>

<path d="M219.543,325.873h24.304c5.032,0,9.114-4.082,9.114-9.114s-4.082-9.114-9.114-9.114h-24.304   c-5.032,0-9.114,4.082-9.114,9.114S214.512,325.873,219.543,325.873z"/>

<path d="M219.543,398.784h12.152c5.032,0,9.114-4.082,9.114-9.114s-4.082-9.114-9.114-9.114h-12.152   c-5.032,0-9.114,4.082-9.114,9.114S214.512,398.784,219.543,398.784z"/>

<path d="M73.721,265.114h24.304c5.032,0,9.114-4.082,9.114-9.114c0-5.032-4.082-9.114-9.114-9.114H73.721   c-5.032,0-9.114,4.082-9.114,9.114C64.607,261.032,68.69,265.114,73.721,265.114z"/>

<path d="M73.721,338.025h24.304c5.032,0,9.114-4.082,9.114-9.114s-4.082-9.114-9.114-9.114H73.721   c-5.032,0-9.114,4.082-9.114,9.114S68.69,338.025,73.721,338.025z"/>

<path d="M73.721,410.936h24.304c5.032,0,9.114-4.082,9.114-9.114s-4.082-9.114-9.114-9.114H73.721   c-5.032,0-9.114,4.082-9.114,9.114S68.69,410.936,73.721,410.936z"/>

</g>

</svg>