<?xml version="1.0" ?>


<svg fill="#000000" width="800px" height="800px" viewBox="0 0 512 512" enable-background="new 0 0 512 512" id="Layer_1" version="1.1" xml:space="preserve" xmlns="http://www.w3.org/2000/svg" xmlns:xlink="http://www.w3.org/1999/xlink">

<g>

<path d="M480.309,288.421h-38.784c-3.551,0-10.805,3.131-11.697,3.131h-79.659c-2.499-1.625-5.11-3.102-7.845-4.206   c-9.181-3.556-64.601-16.234-71.005-18.219c-12.69-3.946-23.016-13.605-27.955-25.746c39.156-17.032,59.91-61.05,63.218-105.311   v-6.628h16.642c5.016,0,9.074-4.064,9.074-9.074s-4.059-9.074-9.074-9.074h-11.343l-1.258-12.761   c-2.972-30.035-23.589-54.977-52.525-63.555l-16.542-4.903v-6.191c0-5.01-4.059-9.074-9.074-9.074h-51.645   c-5.004,0-9.062,4.053-9.074,9.051l-0.012,6.156l-16.92,5.022c-28.818,8.543-49.418,33.378-52.49,63.248L101,113.294H89.887   c-5.01,0-9.074,4.064-9.074,9.074s4.064,9.074,9.074,9.074h17.073l0.012,7.314c3.273,43.457,23.79,87.103,62.498,104.324   c-4.886,12.4-14.734,22.065-27.707,26.071c-11.024,3.403-53.541,12.713-53.541,12.713c-0.077,0.012-0.154-0.018-0.23,0   c-5.914,1.288-57.937,13.836-64.034,56.099c-3.61,25.238-7.816,49.282-7.822,49.329c-0.461,2.635,0.266,5.341,1.991,7.396   s4.265,3.237,6.947,3.237c0,0,258.403,0.053,258.733,0.508c6.51,9.062,16.353,14.261,27.004,14.261h57.476   c-6.546,45.371-6.546,45.95-6.546,46.73c0,24.127,13.145,32.374,24.174,35.044c2.056,0.496,4.177,0.721,6.327,0.721   c14.687,0,30.572-11.012,34.477-25.143c2.682-9.712,11.26-32.764,14.663-41.803h39.198c4.124,0,7.999-1.607,10.912-4.525   c2.918-2.93,4.519-6.817,4.508-10.941l-0.272-108.985C495.705,295.322,488.787,288.421,480.309,288.421z M252.94,54.37   c21.829,6.475,37.378,25.297,39.623,47.959l1.087,10.965h-52.094V50.997L252.94,54.37z M223.407,34.958v78.336h-33.686   l0.171-78.336H223.407z M120.395,102.152c2.316-22.544,17.859-41.271,39.599-47.722l11.715-3.474l-0.136,62.338h-52.324   L120.395,102.152z M125.097,138.071v-6.628h163.348l0.012,5.943c-3.568,47.451-30.212,95.315-81.692,95.315   S128.642,184.836,125.097,138.071z M206.765,250.848c6.817,0,13.21-0.774,19.312-2.02c3.308,8.779,8.466,16.53,15.041,22.869   l-34.111,27.701l-34.66-27.997c6.428-6.304,11.455-13.972,14.681-22.644C193.254,250.057,199.788,250.848,206.765,250.848z    M157.022,282.366l44.302,35.771c1.66,1.335,3.68,2.009,5.701,2.009c2.026,0,4.053-0.673,5.719-2.032l43.77-35.541   c3.019,1.501,11.55,4.496,12.631,4.803l-25.232,92.402h-81.845l-24.73-90.577C141.007,288.256,153.856,283.973,157.022,282.366z    M119.686,293.455l23.572,86.323H86v-78.59C88.747,300.343,112.165,295.186,119.686,293.455z M41.923,340.551   c2.209-15.336,14.232-25.474,25.929-31.831v71.058H35.814C37.397,370.302,39.76,355.639,41.923,340.551z M278.703,366.238   c-1.471,4.384-1.796,8.98-1.465,13.54h-14.515l24.003-87.912c2.505,0.597,30.306,6.776,32.427,7.255   c-4.2,3.421-7.509,7.851-9.488,13.192C309.665,312.312,278.898,365.67,278.703,366.238z M425.846,418.013   c-0.532,1.394-13.038,34.229-16.618,47.191c-1.885,6.829-12.394,13.269-19.052,11.615c-6.351-1.524-10.285-4.974-10.327-16.53   c0.248-2.257,4.856-34.347,7.893-55.367c0.378-2.611-0.396-5.246-2.121-7.243c-1.725-1.985-4.224-3.131-6.859-3.131h-67.95   c-4.738,0-9.21-2.446-12.27-6.699c-3.226-4.49-4.277-10.055-2.871-15.053c0,0,30.673-53.193,30.868-53.772   c1.967-5.837,7.55-9.322,14.929-9.322h85.992v105.765C426.815,416.229,426.218,417.032,425.846,418.013z M445.607,410.096V306.57   h31.978l0.26,103.526H445.607z"/>

</g>

</svg>