<?xml version="1.0" ?>


<svg fill="#000000" width="800px" height="800px" viewBox="0 0 512 512" enable-background="new 0 0 512 512" id="Layer_1" version="1.1" xml:space="preserve" xmlns="http://www.w3.org/2000/svg" xmlns:xlink="http://www.w3.org/1999/xlink">

<g>

<path d="M25.116,495.762h315.948c2.694,0,5.245-1.187,6.978-3.252c1.733-2.065,2.468-4.794,2-7.441   c-0.012-0.047-3.685-20.922-6.829-42.899c-5.328-37.328-51.016-48.542-56.529-49.764c-0.006,0-0.012-0.006-0.018-0.006   l-6.871-1.519c-11.428-2.504-30.558-6.705-39.939-9.589c-10.52-3.246-18.596-10.918-22.874-20.755   c33.655-15.433,51.509-53.686,54.387-92.195v-4.545h13.273c5.038,0,9.114-4.082,9.114-9.114c0-5.032-4.076-9.114-9.114-9.114h-8.77   l-0.991-10.016c-2.634-26.63-20.922-48.762-46.578-56.357l-13.534-4.023V170.7c0-5.032-4.076-9.114-9.114-9.114h-44.952   c-5.026,0-9.108,4.07-9.114,9.09l-0.012,4.444l-13.855,4.112c-25.562,7.583-43.837,29.608-46.554,56.107l-1.056,10.229h-8.58   c-5.032,0-9.114,4.082-9.114,9.114c0,5.032,4.082,9.114,9.114,9.114h13.653l0.006,5.233c2.854,37.862,20.601,75.884,54.054,91.376   c-4.272,9.915-12.365,17.628-22.909,20.886c-9.393,2.884-28.522,7.085-39.95,9.589l-6.877,1.519c0,0-0.006,0.006-0.018,0.006   c-5.494,1.216-51.2,12.431-56.529,49.764c-3.145,21.978-6.818,42.852-6.824,42.899c-0.469,2.646,0.267,5.376,1.994,7.441   C19.865,494.575,22.422,495.762,25.116,495.762z M108.102,404.706l18.536,72.828H79.36V411.28   C81.668,410.598,101.629,406.189,108.102,404.706z M286.814,411.28v66.254h-46.56l17.878-72.816   C264.581,406.201,284.512,410.598,286.814,411.28z M325.168,444.757c1.78,12.437,3.732,24.517,5.103,32.777h-25.229v-58.487   C314.369,424.47,323.447,432.7,325.168,444.757z M223.117,196.665c18.524,5.494,31.721,21.456,33.625,40.692l0.813,8.212h-42.787   v-51.384L223.117,196.665z M196.541,179.814v65.755h-26.885l0.142-65.755H196.541z M109.301,237.203   c1.958-19.13,15.154-35.02,33.596-40.502l8.639-2.563l-0.107,51.432h-42.994L109.301,237.203z M113.395,268.342v-4.545h47.106   h0.018h92.64l0.006,3.857c-3.062,40.74-25.864,81.847-69.897,81.847S116.433,308.393,113.395,268.342z M183.268,367.728   c5.643,0,10.93-0.629,16.021-1.596c2.753,7.002,6.859,13.25,12.015,18.489l-27.822,22.601l-28.374-22.915   c4.931-5.132,8.918-11.274,11.719-18.251C172.042,367.076,177.471,367.728,183.268,367.728z M139.84,395.396l37.927,30.635   c1.673,1.353,3.697,2.029,5.726,2.029c2.041,0,4.07-0.676,5.75-2.041l37.458-30.427c2.498,1.205,11.547,4.213,13.724,4.794   l-18.94,77.148h-76.038l-19.64-77.159C127.967,399.799,137.236,396.684,139.84,395.396z M41.006,444.757   c1.721-12.057,10.799-20.287,20.126-25.71v58.487H35.909C37.28,469.274,39.226,457.182,41.006,444.757z"/>

<path d="M387.601,233.037c59.768,0,108.399-48.619,108.399-108.394S447.369,16.238,387.601,16.238S279.201,64.869,279.201,124.644   S327.832,233.037,387.601,233.037z M387.601,34.466c49.723,0,90.172,40.455,90.172,90.178s-40.449,90.166-90.172,90.166   s-90.172-40.443-90.172-90.166S337.878,34.466,387.601,34.466z"/>

<path d="M384.076,134.879h7.049c6.301,0,11.428,5.127,11.428,11.428c0,6.301-5.127,11.428-11.428,11.428H367.64   c-5.032,0-9.114,4.082-9.114,9.114s4.082,9.114,9.114,9.114h10.846v11.986c0,5.032,4.082,9.114,9.114,9.114   s9.114-4.082,9.114-9.114v-12.549c13.683-2.629,24.066-14.65,24.066-29.092c0-16.353-13.303-29.656-29.656-29.656h-7.049   c-6.301,0-11.428-5.127-11.428-11.428s5.127-11.428,11.428-11.428h23.485c5.032,0,9.114-4.082,9.114-9.114   s-4.082-9.114-9.114-9.114h-10.846v-14.24c0-5.032-4.082-9.114-9.114-9.114s-9.114,4.082-9.114,9.114v14.804   c-13.683,2.629-24.066,14.65-24.066,29.092C354.42,121.576,367.723,134.879,384.076,134.879z"/>

</g>

</svg>