<?xml version="1.0" ?>


<svg fill="#000000" width="800px" height="800px" viewBox="0 0 512 512" enable-background="new 0 0 512 512" id="Layer_1" version="1.1" xml:space="preserve" xmlns="http://www.w3.org/2000/svg" xmlns:xlink="http://www.w3.org/1999/xlink">

<g>

<path d="M286.683,392.406c-0.006,0-0.012-0.006-0.018-0.006c0,0-37.429-8.224-46.81-11.108   c-10.52-3.246-18.596-10.918-22.874-20.755c33.655-15.433,51.509-53.686,54.387-92.195v-4.545h13.273   c5.038,0,9.114-4.082,9.114-9.114c0-5.032-4.076-9.114-9.114-9.114h-8.77l-0.991-10.016c-2.634-26.63-20.922-48.762-46.578-56.357   l-13.534-4.023V170.7c0-5.032-4.076-9.114-9.114-9.114h-44.952c-5.026,0-9.108,4.07-9.114,9.09l-0.012,4.444l-13.855,4.112   c-25.562,7.583-43.837,29.608-46.554,56.107l-1.056,10.229h-8.58c-5.032,0-9.114,4.082-9.114,9.114   c0,5.032,4.082,9.114,9.114,9.114h13.653l0.006,5.233c2.854,37.862,20.601,75.884,54.054,91.376   c-4.272,9.915-12.365,17.628-22.909,20.886c-9.393,2.884-46.827,11.108-46.827,11.108s-0.006,0.006-0.018,0.006   c-5.494,1.216-51.2,12.431-56.529,49.764c-3.145,21.978-6.818,42.852-6.824,42.899c-0.469,2.646,0.267,5.376,1.994,7.441   c1.733,2.065,4.29,3.252,6.984,3.252h315.948c2.694,0,5.245-1.187,6.978-3.252c1.733-2.065,2.468-4.794,2-7.441   c-0.012-0.047-3.685-20.922-6.829-42.899C337.884,404.842,292.195,393.628,286.683,392.406z M286.814,411.28v66.254h-46.56   l17.878-72.816C264.581,406.201,284.512,410.598,286.814,411.28z M223.117,196.665c18.524,5.494,31.721,21.456,33.625,40.692   l0.813,8.212h-42.787v-51.384L223.117,196.665z M196.541,179.814v65.755h-26.885l0.142-65.755H196.541z M109.301,237.203   c1.958-19.13,15.154-35.02,33.596-40.502l8.639-2.563l-0.107,51.432h-42.994L109.301,237.203z M113.395,268.342v-4.545h139.764   l0.006,3.857c-3.062,40.74-25.864,81.847-69.897,81.847S116.433,308.393,113.395,268.342z M183.268,367.728   c5.643,0,10.93-0.629,16.021-1.596c2.753,7.002,6.859,13.25,12.015,18.489l-27.822,22.601l-28.374-22.915   c4.931-5.132,8.918-11.274,11.719-18.251C172.042,367.076,177.471,367.728,183.268,367.728z M108.102,404.706l18.536,72.828H79.36   V411.28C81.668,410.598,101.629,406.189,108.102,404.706z M41.006,444.757c1.721-12.057,10.799-20.287,20.126-25.71v58.487H35.909   C37.28,469.274,39.226,457.182,41.006,444.757z M145.448,477.534l-19.64-77.159c2.16-0.576,11.428-3.691,14.033-4.978   l37.927,30.635c1.673,1.353,3.697,2.029,5.726,2.029c2.041,0,4.07-0.676,5.75-2.041l37.458-30.427   c2.498,1.205,11.547,4.213,13.724,4.794l-18.94,77.148H145.448z M305.042,477.534v-58.487c9.327,5.423,18.406,13.653,20.126,25.71   c1.78,12.437,3.732,24.517,5.103,32.777H305.042z"/>

<path d="M387.601,16.238c-59.768,0-108.399,48.631-108.399,108.405s48.631,108.394,108.399,108.394S496,184.418,496,124.644   S447.369,16.238,387.601,16.238z M387.601,214.81c-49.723,0-90.172-40.443-90.172-90.166s40.449-90.178,90.172-90.178   s90.172,40.455,90.172,90.178S437.323,214.81,387.601,214.81z"/>

<path d="M417.405,91.962l-40.283,42.14l-19.729-18.228c-3.703-3.43-9.464-3.192-12.876,0.51c-3.418,3.691-3.192,9.458,0.51,12.876   l32.889,30.38l52.66-55.075c3.483-3.643,3.352-9.411-0.285-12.888C426.655,88.212,420.882,88.331,417.405,91.962z"/>

</g>

</svg>