<?xml version="1.0" ?>


<svg fill="#000000" width="800px" height="800px" viewBox="0 0 512 512" enable-background="new 0 0 512 512" id="Layer_1" version="1.1" xml:space="preserve" xmlns="http://www.w3.org/2000/svg" xmlns:xlink="http://www.w3.org/1999/xlink">

<g>

<path d="M484.584,319.536c-26.998-11.345-51.284-27.484-72.182-47.967c-12.722-12.46-34.634-12.472-47.385,0.012   c-6.171,6.046-12.722,11.588-19.462,16.863c-10.016-4.094-66.681-17.029-73.119-19.023c-12.745-3.964-23.117-13.665-28.078-25.858   c39.328-17.106,60.172-61.317,63.495-105.771v-6.657h16.721c5.032,0,9.114-4.082,9.114-9.114c0-5.032-4.082-9.114-9.114-9.114   h-11.392l-1.27-12.816c-2.985-30.142-23.687-55.206-52.749-63.833l-16.614-4.925v-6.218c0-5.032-4.082-9.114-9.114-9.114h-51.871   c-5.026,0-9.102,4.07-9.114,9.09l-0.012,6.183l-16.994,5.044c-28.944,8.58-49.64,33.525-52.72,63.536l-1.347,13.054H90.211   c-5.032,0-9.114,4.082-9.114,9.114c0,5.032,4.082,9.114,9.114,9.114h17.148l0.012,7.346c3.287,43.647,23.9,87.484,62.771,104.781   c-4.907,12.455-14.798,22.162-27.822,26.185c-11.078,3.418-54.061,12.828-54.061,12.828c-0.006,0-0.006,0-0.012,0   c-5.939,1.317-58.196,14.051-64.225,56.274c-3.637,25.396-7.874,49.498-7.886,49.545c-0.463,2.646,0.267,5.376,1.994,7.441   c1.733,2.065,4.29,3.252,6.984,3.252h279.239c10.336,20.673,22.785,40.265,37.405,58.54l20.951,26.179   C369.064,491.443,378.54,496,388.716,496c10.17,0,19.652-4.557,26.001-12.496l20.963-26.203   c27.466-34.343,47.522-73.184,59.603-115.467C497.869,332.768,493.271,323.18,484.584,319.536z M327.309,301.326   c-10.941,6.96-22.393,13.143-34.48,18.21c-3.453,1.46-6.023,4.017-7.987,6.942l8.105-33.026   C293.809,293.654,324.42,300.466,327.309,301.326z M253.977,53.725c21.924,6.515,37.548,25.419,39.796,48.169l1.092,11.013h-52.316   V50.337L253.977,53.725z M224.321,34.228v78.679h-33.833l0.166-78.679H224.321z M120.851,101.716   c2.326-22.631,17.937-41.452,39.773-47.931l11.772-3.489l-0.136,62.611H119.7L120.851,101.716z M125.575,137.792v-6.657h55.758   h0.018h108.293l0.006,5.969c-3.584,47.658-30.344,95.732-82.049,95.732S129.135,184.762,125.575,137.792z M207.6,251.063   c6.847,0,13.267-0.777,19.403-2.029c3.317,8.817,8.497,16.602,15.107,22.969l-34.266,27.822l-34.812-28.113   c6.462-6.337,11.511-14.045,14.745-22.749C194.03,250.268,200.598,251.063,207.6,251.063z M121.89,293.458l22.168,87.099H86.306   v-78.869C89.558,300.686,113.743,295.339,121.89,293.458z M42.066,341.135c2.184-15.309,14.258-25.473,26.013-31.863v71.286H35.913   C37.509,371.004,39.906,356.241,42.066,341.135z M162.867,380.557l-23.271-91.43c2.991-0.783,14.869-4.794,18.044-6.408   l44.496,35.928c1.667,1.341,3.697,2.017,5.726,2.017c2.035,0,4.07-0.676,5.744-2.041l43.968-35.696   c3.026,1.513,14.65,5.394,17.67,6.183l-22.447,91.448H162.867z M271.564,380.557c0,0,10.277-39.773,10.58-38.722   c3.792,13.273,8.461,26.161,13.807,38.722H271.564z M421.445,445.909l-20.957,26.203c-5.756,7.191-17.789,7.191-23.55,0   l-20.945-26.179c-25.953-32.433-44.905-69.15-56.09-109.593c28.848-9.09,70.378-44.395,77.878-51.741   c2.937-2.884,6.818-4.474,10.936-4.474c4.112,0,7.992,1.59,10.93,4.474c22.547,22.097,48.75,39.506,78.109,52.227   C466.338,376.771,447.398,413.476,421.445,445.909z"/>

<path d="M361.849,333.279c-3.56-3.56-9.333-3.56-12.888,0c-3.56,3.56-3.56,9.328-0.006,12.888l26.873,26.873l-26.873,26.873   c-3.554,3.56-3.554,9.328,0.006,12.888c1.78,1.78,4.106,2.67,6.444,2.67c2.326,0,4.664-0.89,6.444-2.67l26.867-26.873   l26.867,26.873c1.78,1.78,4.112,2.67,6.444,2.67s4.664-0.89,6.444-2.67c3.56-3.56,3.56-9.328,0-12.888l-26.867-26.873   l26.867-26.873c3.56-3.56,3.56-9.328,0-12.888c-3.56-3.56-9.328-3.56-12.888,0l-26.867,26.873L361.849,333.279z"/>

</g>

</svg>