<?xml version="1.0" ?>


<svg fill="#000000" width="800px" height="800px" viewBox="0 0 512 512" enable-background="new 0 0 512 512" id="Layer_1" version="1.1" xml:space="preserve" xmlns="http://www.w3.org/2000/svg" xmlns:xlink="http://www.w3.org/1999/xlink">

<g>

<path d="M25.489,492.969h327.397c2.688,0,5.24-1.184,6.969-3.245c1.723-2.06,2.457-4.784,1.989-7.425   c-0.006-0.047-3.813-21.682-7.075-44.453c-5.495-38.503-52.731-50.049-58.332-51.286c0,0,0,0-0.006,0   c0,0-38.663-8.479-48.527-11.522c-11.102-3.434-19.598-11.563-24.038-22.025c34.939-15.844,53.471-55.466,56.455-95.337v-5.068   h14.103c5.021,0,9.094-4.074,9.094-9.094s-4.074-9.094-9.094-9.094h-9.408l-1.06-10.693c-2.712-27.449-21.564-50.256-48.024-58.107   l-14.263-4.227v-4.914c0-5.021-4.074-9.094-9.094-9.094H165.99c-5.015,0-9.083,4.062-9.094,9.071l-0.012,4.885l-14.613,4.328   c-26.342,7.815-45.182,30.516-47.988,57.834l-1.125,10.918h-9.207c-5.021,0-9.094,4.074-9.094,9.094s4.074,9.094,9.094,9.094   h14.494l0.012,5.755c2.949,39.219,21.374,78.605,56.106,94.52c-4.423,10.521-12.943,18.71-24.086,22.156   c-9.87,3.043-48.533,11.522-48.533,11.522h-0.006c-5.601,1.237-52.837,12.783-58.332,51.286   c-3.256,22.771-7.064,44.406-7.075,44.453c-0.468,2.641,0.266,5.364,1.995,7.425C20.249,491.784,22.801,492.969,25.489,492.969z    M111.743,398.561l19.397,76.219H81.358v-69.25C83.892,404.772,104.769,400.166,111.743,398.561z M297.023,405.53v69.25h-49.042   l18.704-76.207C273.648,400.178,294.483,404.772,297.023,405.53z M336.764,440.427c1.877,13.085,3.925,25.791,5.352,34.353h-26.904   v-61.547C325.129,418.887,334.928,427.573,336.764,440.427z M230.764,183.05c19.337,5.743,33.109,22.404,35.099,42.476l0.876,8.893   h-45.069v-54.063L230.764,183.05z M203.48,165.571v68.847h-28.562l0.148-68.847H203.48z M112.377,225.36   c2.049-19.953,15.814-36.543,35.069-42.263l9.396-2.783l-0.113,54.104h-45.288L112.377,225.36z M116.622,257.676v-5.068h145.522   l0.012,4.381c-3.185,42.381-26.928,85.129-72.779,85.129S119.784,299.37,116.622,257.676z M189.377,360.307   c5.933,0,11.492-0.669,16.833-1.705c2.889,7.448,7.247,14.062,12.753,19.574l-29.373,23.849l-29.924-24.175   c5.27-5.406,9.533-11.895,12.469-19.314C177.595,359.62,183.296,360.307,189.377,360.307z M144.397,388.916l39.498,31.889   c1.67,1.338,3.695,2.013,5.714,2.013c2.031,0,4.068-0.675,5.737-2.037l39-31.67c2.629,1.279,12.298,4.506,14.678,5.139   l-19.776,80.529h-79.339l-20.504-80.547C131.768,393.606,141.655,390.272,144.397,388.916z M41.611,440.427   c1.835-12.854,11.634-21.54,21.558-27.194v61.547H36.265C37.686,466.218,39.74,453.512,41.611,440.427z"/>

<path d="M124.23,94.818h292.316V496h18.189v-67.272l42.44,42.44V496h18.189l0.243-469.177c0-5.968-4.861-10.823-10.829-10.823   H156.895c-3.849,0-7.437,2.06-9.402,5.447L114.84,78.595c-1.912,3.339-1.912,7.484,0.018,10.823   C116.788,92.746,120.382,94.818,124.23,94.818z M371.625,34.189h68.67L405.96,68.529L371.625,34.189z M388.34,76.629h-60.031   l30.013-30.019L388.34,76.629z M310.689,68.529l-34.341-34.341h68.675L310.689,68.529z M263.05,46.611l30.018,30.019h-60.037   L263.05,46.611z M215.411,68.529l-34.335-34.341h68.67L215.411,68.529z M472.617,94.818l-37.881,37.881V94.818H472.617z    M434.735,153.611l34.578,34.578l-34.578,34.578V153.611z M434.735,243.679l34.578,34.578l-34.578,34.578V243.679z    M450.005,233.223l27.171-27.171v54.341L450.005,233.223z M450.005,143.155l27.171-27.171v54.341L450.005,143.155z M434.735,333.74   l36.129,36.123l-36.129,37.769V333.74z M477.176,445.442l-27.313-27.313l27.313-28.55V445.442z M450.005,323.29l27.171-27.171   v54.335L450.005,323.29z M477.418,76.629h-53.838L465.849,34.5l11.569-0.311V76.629z M161.342,40.181l36.449,36.449h-60.878   L161.342,40.181z"/>

</g>

</svg>