<?xml version="1.0" ?>


<svg fill="#000000" width="800px" height="800px" viewBox="0 0 512 512" enable-background="new 0 0 512 512" id="Layer_1" version="1.1" xml:space="preserve" xmlns="http://www.w3.org/2000/svg" xmlns:xlink="http://www.w3.org/1999/xlink">

<g>

<path d="M454.479,255.905h-61.961v-75.85h15.972c5.031,0,9.113-4.082,9.113-9.113c0-5.031-4.082-9.113-9.113-9.113H234.974   c-5.031,0-9.113,4.082-9.113,9.113c0,5.031,4.082,9.113,9.113,9.113h46.849c0,0-39.219,179.201-39.076,180.234   c-12.062,1.952-22.861,7.606-31.06,15.954V255.608c0-5.031-4.082-9.113-9.113-9.113c-5.031,0-9.113,4.082-9.113,9.113v138.814   l-29.464,0.641V61.58c0-11.724-9.541-21.265-21.265-21.265H45.52c-11.724,0-21.265,9.541-21.265,21.265v349.349h5.767   l-11.73,15.509c-2.599,3.441-3.02,7.974-1.098,11.819c1.916,3.857,5.779,6.254,9.79,6.254c0.006,0,0.012,0,0.012,0l175.285,5.577   c0.101,0,0.196,0,0.297,0c1.549,0,2.943-0.492,4.224-1.181c10.247,13.741,26.48,22.778,44.897,22.778   c27.922,0,50.96-20.547,55.25-47.276c0.409,0.053,68.262,0.237,68.262,0.237c4.391,26.616,27.388,47.039,55.226,47.039   c27.845,0,50.842-20.422,55.232-47.039H496V297.414C496,274.524,477.376,255.905,454.479,255.905z M42.482,349.561   c0.961,0.338,102.324,0.338,103.286,0v43.141H42.482V349.561z M145.767,255.602c-0.961-0.338-102.324-0.338-103.286,0v-59.961   c0.961,0.338,102.324,0.338,103.286,0V255.602z M145.767,272.607v59.949c-0.961-0.338-102.324-0.338-103.286,0v-59.949   C43.443,272.945,144.806,272.945,145.767,272.607z M145.767,178.637c-0.961-0.338-102.324-0.338-103.286,0v-59.949   c0.961,0.338,102.324,0.338,103.286,0V178.637z M45.52,58.542h97.21c1.673,0,3.038,1.365,3.038,3.038v40.103   c-0.961-0.338-102.324-0.338-103.286,0V61.58C42.482,59.907,43.846,58.542,45.52,58.542z M40.933,426.723l8.265-10.941   l146.646-3.192c-0.047,0.997-0.297,1.934-0.297,2.943c0,5.66,1.098,11.024,2.664,16.18L40.933,426.723z M454.479,274.132   c12.845,0,23.294,10.442,23.294,23.282v88.192c-9.968-15.705-27.4-26.225-47.335-26.225c-27.839,0-50.836,20.422-55.226,47.039   h-48.516c3.619-35.113,28.035-77.684,58.947-85.533l6.877-1.744v-45.009H454.479z M251.699,453.458   c-20.909,0-37.925-17.016-37.925-37.925c0-20.909,17.016-37.925,37.925-37.925s37.925,17.017,37.925,37.925   C289.624,436.441,272.608,453.458,251.699,453.458z M306.95,406.657c-1.976-12.317-7.856-23.294-16.483-31.565l15.966-47.899   l8.081,2.854c1.003,0.356,2.029,0.522,3.038,0.522c3.756,0,7.268-2.338,8.591-6.076c1.679-4.747-0.813-9.956-5.553-11.629   l-28.574-10.098c-4.741-1.697-9.95,0.807-11.629,5.553s0.813,9.956,5.559,11.629l3.299,1.169l-14.459,43.366   c-4.402-2.005-9.102-3.382-14.02-4.189l39.717-180.24h73.809v125.334c-36.632,13.789-61.973,60.175-65.811,99.856   C308.439,405.654,307.359,406.603,306.95,406.657z M430.438,453.458c-20.909,0-37.919-17.016-37.919-37.925   c0-20.909,17.011-37.925,37.919-37.925c20.915,0,37.925,17.017,37.925,37.925C468.363,436.441,451.352,453.458,430.438,453.458z"/>

<path d="M245.285,409.101c-1.703,1.578-2.676,4.011-2.676,6.443s0.973,4.735,2.676,6.443c1.703,1.697,4.011,2.67,6.438,2.67   c2.314,0,4.622-0.973,6.443-2.67c1.703-1.827,2.67-4.011,2.67-6.443s-0.967-4.735-2.67-6.443   C254.642,405.695,248.567,405.695,245.285,409.101z"/>

<path d="M424.03,409.101c-1.703,1.578-2.676,4.011-2.676,6.443s0.973,4.735,2.676,6.443c1.703,1.697,4.011,2.67,6.438,2.67   c2.314,0,4.741-0.973,6.443-2.67c1.703-1.709,2.67-4.011,2.67-6.443s-0.967-4.865-2.67-6.443   C433.505,405.695,427.43,405.695,424.03,409.101z"/>

</g>

</svg>