<?xml version="1.0" ?>


<svg fill="#000000" width="800px" height="800px" viewBox="0 0 512 512" enable-background="new 0 0 512 512" id="Layer_1" version="1.1" xml:space="preserve" xmlns="http://www.w3.org/2000/svg" xmlns:xlink="http://www.w3.org/1999/xlink">

<g>

<path d="M135.643,217.627h30.656v93.796c0,17.67,14.378,32.054,32.054,32.054H404.29c17.67,0,32.054-14.384,32.054-32.054v-93.796   h41.444c5.729,0,10.782-3.62,13.195-9.462c2.616-6.32,1.452-13.476-2.867-17.789L322.333,23.38   c-8.769-8.757-22.771-9.044-31.271-0.573L125.345,190.638c-4.319,4.313-5.496,11.374-2.933,17.574   C124.819,214.019,129.885,217.627,135.643,217.627z M329.424,325.126h-47.37v-75.887c0-2.186,1.78-3.966,3.966-3.966h39.437   c2.186,0,3.966,1.78,3.966,3.966V325.126z M417.993,311.423c0,7.551-6.147,13.703-13.703,13.703h-56.515v-75.887   c0-12.305-10.012-22.317-22.317-22.317H286.02c-12.305,0-22.317,10.012-22.317,22.317v75.887h-65.35   c-7.556,0-13.703-6.153-13.703-13.703v-100.2l122.027-122.11l113.538,113.544c-1.326,1.589-2.222,3.56-2.222,5.794V311.423z    M304.078,35.758c1.398-1.41,3.859-0.812,5.251,0.573l161.768,162.945h-28.308L319.651,76.138c-7.132-7.144-18.739-7.144-25.871,0   L170.648,199.276h-28.034L304.078,35.758z"/>

<path d="M31.663,288.126c-3.584-3.584-9.39-3.584-12.974,0s-3.584,9.39,0,12.974l33.422,33.416c4.044,4.05,9.42,6.272,15.143,6.272   c5.717,0,11.093-2.222,15.137-6.272l33.422-33.416c3.584-3.584,3.584-9.39,0-12.974c-3.584-3.584-9.39-3.584-12.974,0   l-26.415,26.403V45.972l26.409,26.415c1.792,1.792,4.146,2.688,6.493,2.688s4.695-0.896,6.487-2.688   c3.584-3.584,3.584-9.39,0-12.974L82.39,25.985c-2.085-2.091-4.63-3.48-7.252-4.623c-4.64-2.024-12.715-0.955-15.776,0   c-2.704,0.844-5.167,2.539-7.252,4.623L18.688,59.413c-3.584,3.584-3.584,9.39,0,12.974s9.39,3.584,12.974,0l26.409-26.415v268.557   L31.663,288.126z"/>

<path d="M158.934,492.683c1.792,1.792,4.14,2.688,6.487,2.688c2.354,0,4.701-0.896,6.487-2.688   c3.584-3.584,3.584-9.39,0.006-12.974l-26.409-26.415h324.654l-26.409,26.415c-3.584,3.584-3.584,9.39,0,12.974   c1.792,1.792,4.14,2.688,6.487,2.688c2.348,0,4.695-0.896,6.487-2.688l33.416-33.416c2.133-2.127,2.995-4.106,4.785-7.365   c1.512-2.753,1.353-12.732-0.006-15.573c-1.503-3.143-2.646-5.221-4.773-7.347l-33.422-33.416c-3.584-3.584-9.39-3.584-12.974,0   c-3.584,3.584-3.584,9.39,0,12.974l26.409,26.403H145.506l26.403-26.403c3.584-3.584,3.584-9.39,0.006-12.974   c-3.584-3.584-9.396-3.584-12.98,0l-33.422,33.416c-4.044,4.05-6.266,9.426-6.266,15.137c0,5.723,2.228,11.111,6.266,15.137   L158.934,492.683z"/>

</g>

</svg>