<?xml version="1.0" ?>


<svg fill="#000000" width="800px" height="800px" viewBox="0 0 512 512" enable-background="new 0 0 512 512" id="Layer_1" version="1.1" xml:space="preserve" xmlns="http://www.w3.org/2000/svg" xmlns:xlink="http://www.w3.org/1999/xlink">

<g>

<path d="M183.088,338.025h303.796c2.694,0,5.245-1.187,6.978-3.252c1.733-2.065,2.468-4.794,2-7.441   c-0.012-0.047-3.542-20.103-6.562-41.238c-5.156-36.111-49.319-46.958-54.63-48.139c-0.006,0-0.006-0.006-0.012-0.006   c0,0-35.975-7.892-44.988-10.668c-9.891-3.05-17.522-10.206-21.64-19.432c32.29-14.982,49.426-51.782,52.191-88.831v-4.035h12.413   c5.032,0,9.114-4.082,9.114-9.114c0-5.032-4.082-9.114-9.114-9.114h-8.117l-0.92-9.304c-2.545-25.751-20.227-47.148-45.035-54.493   l-12.763-3.786v-4.059c0-5.032-4.076-9.114-9.114-9.114h-43.226c-5.026,0-9.102,4.07-9.114,9.09l-0.012,4.035l-13.072,3.869   c-24.713,7.334-42.383,28.623-45.012,54.244l-0.979,9.517h-7.933c-5.038,0-9.114,4.082-9.114,9.114   c0,5.032,4.076,9.114,9.114,9.114h12.775l0.012,4.723c2.735,36.408,19.765,72.982,51.871,88.018   c-4.112,9.286-11.76,16.495-21.681,19.557c-9.025,2.777-45,10.668-45,10.668c-0.006,0-0.012,0.006-0.012,0.006   c-5.316,1.181-49.474,12.027-54.63,48.139c-3.02,21.135-6.551,41.19-6.562,41.238c-0.469,2.646,0.267,5.376,2,7.441   C177.843,336.838,180.394,338.025,183.088,338.025z M471.255,288.682c1.685,11.76,3.519,23.188,4.836,31.115H452.6v-55.134   C461.323,269.867,469.677,277.616,471.255,288.682z M373.376,50.427c17.676,5.245,30.267,20.483,32.083,38.829l0.742,7.5h-40.401   V48.178L373.376,50.427z M347.571,34.229v62.527h-25.152l0.136-62.527H347.571z M264.383,89.102   c1.875-18.24,14.46-33.406,32.059-38.639l7.856-2.326l-0.107,48.619h-40.597L264.383,89.102z M268.323,119.019v-4.035h133.688   l0.012,3.347c-2.937,39.007-24.749,78.37-66.865,78.37C293.048,196.7,271.236,157.337,268.323,119.019z M335.158,214.928   c5.334,0,10.342-0.593,15.166-1.489c2.617,6.557,6.456,12.419,11.256,17.361l-26.22,21.295l-26.742-21.598   c4.587-4.842,8.283-10.621,10.935-17.136C324.507,214.311,329.664,214.928,335.158,214.928z M293.362,241.599l36.289,29.306   c1.667,1.353,3.697,2.029,5.726,2.029c2.035,0,4.07-0.676,5.744-2.041l35.838-29.104c2.356,1.121,55.188,14.288,57.413,14.958   v63.05H235.6v-63.05C237.825,256.077,283,251.5,293.362,241.599z M198.717,288.682c1.578-11.066,9.933-18.815,18.655-24.019v55.134   h-23.491C195.198,311.87,197.032,300.43,198.717,288.682z"/>

<path d="M16,27.548v456.917c0,6.361,5.18,11.535,11.547,11.535h80.197c6.367,0,11.547-5.174,11.547-11.535V27.548   c0-6.373-5.18-11.547-11.547-11.547H27.547C21.18,16.001,16,21.175,16,27.548z M34.228,34.229h66.835V76.76H73.721   c-5.032,0-9.114,4.082-9.114,9.114c0,5.032,4.082,9.114,9.114,9.114h27.342v30.38H73.721c-5.032,0-9.114,4.082-9.114,9.114   c0,5.032,4.082,9.114,9.114,9.114h27.342v30.38H73.721c-5.032,0-9.114,4.082-9.114,9.114s4.082,9.114,9.114,9.114h27.342v30.38   H73.721c-5.032,0-9.114,4.082-9.114,9.114c0,5.032,4.082,9.114,9.114,9.114h27.342v30.38H73.721c-5.032,0-9.114,4.082-9.114,9.114   c0,5.032,4.082,9.114,9.114,9.114h27.342v30.38H73.721c-5.032,0-9.114,4.082-9.114,9.114s4.082,9.114,9.114,9.114h27.342v30.38   H73.721c-5.032,0-9.114,4.082-9.114,9.114c0,5.032,4.082,9.114,9.114,9.114h27.342v30.38H73.721c-5.032,0-9.114,4.082-9.114,9.114   c0,5.032,4.082,9.114,9.114,9.114h27.342v42.531H34.228V34.229z"/>

<path d="M483.241,495.999c7.031,0,12.757-5.72,12.757-12.757v-65.613c0-7.037-5.726-12.769-12.757-12.769H242.987   c-2.611,0-74.104,34.165-74.104,34.165c-4.355,2.172-7.061,6.539-7.061,11.416c0,4.865,2.706,9.233,7.055,11.404   c0,0,71.505,34.153,74.11,34.153H483.241z M477.77,477.771h-26.38v-54.683h26.38V477.771z M186.814,450.441l43.41-21.717v43.422   L186.814,450.441z M248.452,423.088h184.711v54.683H248.452V423.088z"/>

</g>

</svg>