<?xml version="1.0" ?>
<svg width="800px" height="800px" viewBox="0 0 24 24" fill="none" xmlns="http://www.w3.org/2000/svg"><path clip-rule="evenodd" d="M13.959 3.34769C14.2858 2.85744 14.806 2.5 15.5 2.5C16.2749 2.5 16.8131 2.83366 17.1338 3.34689C17.4301 3.82115 17.5117 4.40157 17.5254 4.88L17.5257 4.89434V5.52449C19.7244 5.74082 21.5 7.37521 21.5 9.68417V17.0892C21.5 19.5328 19.4891 21.5001 17.0257 21.5001H6.97434C4.51086 21.5001 2.5 19.5328 2.5 17.0892V11C2.5 9.39934 2.97844 8.38036 3.89631 7.81389C4.75029 7.28685 5.88345 7.22877 6.97434 7.22877H12.8545C12.8754 7.22877 12.8963 7.22876 12.9173 7.22876C14.0175 7.22843 15.2679 7.22806 16.3224 8.11785C16.5335 8.29593 16.5602 8.61138 16.3821 8.82243C16.2041 9.03349 15.8886 9.06022 15.6776 8.88215C14.9241 8.24644 14.0302 8.22877 12.8545 8.22877H6.97434C5.85652 8.22877 5.00251 8.3063 4.4215 8.66488C3.90437 8.98403 3.5 9.60066 3.5 11V17.0892C3.5 18.9654 5.04789 20.5001 6.97434 20.5001H17.0257C18.9521 20.5001 20.5 18.9654 20.5 17.0892V9.68417C20.5 7.84612 18.9925 6.50006 17.0257 6.50006C16.7495 6.50006 16.5257 6.2762 16.5257 6.00006V4.9017C16.5131 4.48873 16.4406 4.12468 16.2857 3.87674C16.1543 3.66636 15.9425 3.5 15.5 3.5C15.194 3.5 14.9642 3.64259 14.791 3.90237C14.608 4.17697 14.5 4.57423 14.5 5.00006V6.00006C14.5 6.2762 14.2761 6.50006 14 6.50006H10C9.72386 6.50006 9.5 6.2762 9.5 6.00006V5.00006C9.5 4.52492 9.43495 4.13463 9.28471 3.87676C9.16162 3.66549 8.96002 3.50006 8.5113 3.50006C8.10927 3.50006 7.87278 3.6904 7.71517 3.97151C7.54288 4.2788 7.48255 4.67892 7.49919 4.97167C7.49973 4.98113 7.5 4.99059 7.5 5.00006V6.00006C7.5 6.2762 7.27614 6.50006 7 6.50006C6.72386 6.50006 6.5 6.2762 6.5 6.00006V5.01347C6.47792 4.57933 6.55986 3.9873 6.84291 3.48246C7.14391 2.94562 7.68376 2.50006 8.5113 2.50006C9.29214 2.50006 9.83489 2.83462 10.1488 3.37335C10.4355 3.86548 10.5 4.47519 10.5 5.00006V5.50006H13.5V5.00006C13.5 4.42589 13.642 3.82312 13.959 3.34769Z" fill="#000000" fill-rule="evenodd"/></svg>