<?xml version="1.0" ?>
<svg width="800px" height="800px" viewBox="0 0 24 24" fill="none" xmlns="http://www.w3.org/2000/svg"><path clip-rule="evenodd" d="M11.6465 2.64645C11.8417 2.45118 12.1583 2.45118 12.3536 2.64645L17.3536 7.64645C17.4966 7.78945 17.5394 8.0045 17.462 8.19134C17.3846 8.37818 17.2023 8.5 17 8.5H15.2071L19.3536 12.6464C19.4966 12.7894 19.5394 13.0045 19.462 13.1913C19.3846 13.3782 19.2023 13.5 19 13.5H15.3811L20.3201 17.6159C20.4818 17.7507 20.5418 17.9723 20.4702 18.1702C20.3985 18.3681 20.2105 18.5 20 18.5H14.5V21C14.5 21.2761 14.2762 21.5 14 21.5C13.7239 21.5 13.5 21.2761 13.5 21V18C13.5 17.7239 13.7239 17.5 14 17.5H18.619L13.6799 13.3841C13.5182 13.2493 13.4582 13.0277 13.5299 12.8298C13.6016 12.6319 13.7895 12.5 14 12.5H17.7929L13.6465 8.35355C13.5035 8.21055 13.4607 7.9955 13.5381 7.80866C13.6155 7.62182 13.7978 7.5 14 7.5H15.7929L12 3.70711L8.20713 7.5H10C10.2023 7.5 10.3846 7.62182 10.462 7.80866C10.5394 7.9955 10.4966 8.21055 10.3536 8.35355L6.20713 12.5H10C10.2105 12.5 10.3985 12.6319 10.4702 12.8298C10.5418 13.0277 10.4818 13.2493 10.3201 13.3841L5.38105 17.5H10C10.2762 17.5 10.5 17.7239 10.5 18V20C10.5 20.2761 10.2762 20.5 10 20.5C9.72388 20.5 9.50003 20.2761 9.50003 20V18.5H4.00003C3.78952 18.5 3.60155 18.3681 3.52989 18.1702C3.45823 17.9723 3.51822 17.7507 3.67993 17.6159L8.619 13.5H5.00003C4.79779 13.5 4.61548 13.3782 4.53809 13.1913C4.4607 13.0045 4.50347 12.7894 4.64647 12.6464L8.79292 8.5H7.00003C6.79779 8.5 6.61548 8.37818 6.53809 8.19134C6.4607 8.0045 6.50347 7.78945 6.64647 7.64645L11.6465 2.64645Z" fill="#000000" fill-rule="evenodd"/></svg>