<?xml version="1.0" ?>
<svg width="800px" height="800px" viewBox="0 0 24 24" fill="none" xmlns="http://www.w3.org/2000/svg"><path clip-rule="evenodd" d="M8.86317 4.52099C9.7633 3.33812 10.9572 2.5 12.5 2.5C14.984 2.5 16.5654 4.36209 17.534 6.3627C18.3672 8.08349 18.8122 10.0281 19.0197 11.3665C19.4621 11.274 19.9362 11.3212 20.3525 11.5181C21.0259 11.8364 21.5 12.5207 21.5 13.5C21.5 14.8483 20.3876 15.579 19.2836 15.6188C18.1607 15.6592 16.9214 15.0217 16.4047 13.5917C16.2453 13.1504 16.091 12.628 15.9341 12.0896C15.92 12.0414 15.906 11.993 15.8918 11.9445C15.7466 11.4454 15.597 10.9315 15.4326 10.4308C15.0636 9.30651 14.6523 8.35939 14.1464 7.85355C13.9512 7.65829 13.9512 7.34171 14.1464 7.14645C14.3417 6.95118 14.6583 6.95118 14.8536 7.14645C15.5477 7.84061 16.0175 9.0063 16.3827 10.1189C16.5527 10.6367 16.7071 11.167 16.8516 11.6635C16.8658 11.7126 16.88 11.7614 16.8942 11.8098C17.0525 12.3533 17.1983 12.8452 17.3453 13.252C17.7036 14.2439 18.5268 14.6454 19.2476 14.6194C19.9874 14.5928 20.5 14.1516 20.5 13.5C20.5 12.8793 20.2241 12.5635 19.9251 12.4221C19.5942 12.2656 19.1779 12.2941 18.8769 12.4837C18.7317 12.5753 18.5497 12.5859 18.3948 12.5119C18.2399 12.4379 18.1338 12.2897 18.1137 12.1192C17.9681 10.8813 17.5436 8.67726 16.634 6.79848C15.7157 4.9019 14.391 3.5 12.5 3.5C11.3709 3.5 10.4412 4.09855 9.65895 5.12656C8.87098 6.16204 8.2715 7.58805 7.82538 9.11075C6.93378 12.154 6.69891 15.4258 6.69891 16.2812C6.69891 16.5574 6.47505 16.7812 6.19891 16.7812C5.64252 16.7812 4.92995 16.8813 4.37629 17.1626C3.84724 17.4313 3.5 17.8373 3.5 18.5C3.5 19.2468 3.78214 19.713 4.21421 20.0132C4.67397 20.3327 5.35806 20.5 6.19891 20.5H17.7161C18.0868 20.5 18.6103 20.3845 18.9866 20.0766C19.3256 19.7993 19.6106 19.315 19.4582 18.4005C19.3369 17.6726 18.9488 17.2914 18.4783 17.0705C17.9781 16.8358 17.3737 16.7812 16.875 16.7812H9C8.72386 16.7812 8.5 16.5574 8.5 16.2812C8.5 16.0051 8.72386 15.7812 9 15.7812H16.875C17.4194 15.7812 18.2017 15.836 18.9031 16.1652C19.6342 16.5083 20.2628 17.1456 20.4446 18.236C20.6498 19.4669 20.2642 20.3235 19.6197 20.8507C19.0125 21.3474 18.2396 21.5 17.7161 21.5H6.19891C5.25156 21.5 4.3362 21.3157 3.64356 20.8344C2.92322 20.3338 2.5 19.55 2.5 18.5C2.5 17.3658 3.15276 16.6624 3.92344 16.271C4.49476 15.9808 5.14865 15.8478 5.71215 15.8015C5.77354 14.4789 6.06237 11.5716 6.86572 8.82959C7.3269 7.25546 7.96871 5.69639 8.86317 4.52099Z" fill="#000000" fill-rule="evenodd"/></svg>