<?xml version="1.0" ?>
<svg width="800px" height="800px" viewBox="0 0 24 24" fill="none" xmlns="http://www.w3.org/2000/svg"><path clip-rule="evenodd" d="M12 3.5C7.85789 3.5 4.50003 6.85786 4.50003 11L4.4998 11.0149C4.48148 11.6309 4.69827 12.9715 5.43352 14.2509C5.57112 14.4903 5.48857 14.7959 5.24914 14.9335C5.00972 15.0711 4.70409 14.9886 4.5665 14.7491C3.74196 13.3144 3.47808 11.7962 3.50003 10.9928C3.50393 6.30168 7.30801 2.5 12 2.5C16.6916 2.5 20.4955 6.30103 20.5 10.9916C20.5206 11.6302 20.4271 12.6571 20.0897 13.7366C19.7836 14.7161 19.2668 15.7704 18.421 16.6138L20.4496 20.7812C20.525 20.9361 20.5153 21.119 20.4239 21.2651C20.3326 21.4112 20.1724 21.5 20 21.5H4.00003C3.82768 21.5 3.66749 21.4112 3.5761 21.2651C3.48472 21.119 3.47503 20.9361 3.55046 20.7812L5.74096 16.2812C5.82469 16.1092 5.99922 16 6.19052 16H16C16.2762 16 16.5 16.2239 16.5 16.5C16.5 16.7761 16.2762 17 16 17H6.50323L4.79951 20.5H19.2005L17.36 16.7188C17.2608 16.5152 17.311 16.2703 17.4822 16.122C18.3134 15.4022 18.831 14.412 19.1353 13.4384C19.4396 12.4644 19.5183 11.5457 19.5003 11.017L19.5 11C19.5 6.85786 16.1422 3.5 12 3.5Z" fill="#000000" fill-rule="evenodd"/></svg>