<?xml version="1.0" ?>

<!DOCTYPE svg  PUBLIC '-//W3C//DTD SVG 1.1//EN'  'http://www.w3.org/Graphics/SVG/1.1/DTD/svg11.dtd'>


<svg width="800px" height="800px" viewBox="0 0 32 32" id="_x3C_Layer_x3E_" version="1.1" xml:space="preserve" xmlns="http://www.w3.org/2000/svg" xmlns:xlink="http://www.w3.org/1999/xlink">

<style type="text/css">
<![CDATA[
	.st0{fill:#E3F2FD;}
	.st1{fill:#80D8FF;}
	.st2{fill:#1AD2A4;}
	.st3{fill:#ECEFF1;}
	.st4{fill:#55FB9B;}
	.st5{fill:#BBDEFB;}
	.st6{fill:#C1AEE1;}
	.st7{fill:#FF5252;}
	.st8{fill:#FF8A80;}
	.st9{fill:#FFB74D;}
	.st10{fill:#FFF176;}
	.st11{fill:#FFFFFF;}
	.st12{fill:#65C7EA;}
	.st13{fill:#CFD8DC;}
	.st14{fill:#37474F;}
	.st15{fill:#78909C;}
	.st16{fill:#42A5F5;}
	.st17{fill:#455A64;}
]]>
</style>

<g id="Dash_DASH">

<g id="XMLID_273_">

<g id="XMLID_285_">

<path class="st16" d="M20.49,4.23c9.29,0,10.93,5.06,9.61,12.18c-0.88,4.78-3.09,8.44-6.8,10.16     c-1.68,0.77-3.26,1.2-6.97,1.2H5.79l0.88-4.9l9.26,0.01c5.57,0.01,7.05-2.41,7.78-4.52c0.27-0.8,0.89-3.25,0.92-4.7     c0.04-2.82-1.35-4.53-6.04-4.53L9.06,9.12l0.88-4.89H20.49z" id="XMLID_87_"/>

</g>

<g id="XMLID_286_">

<path class="st16" d="M5.38,13.54h10.81c0,0-0.11,0.58-0.46,2.01c-0.26,1.09-0.65,2.89-3.42,2.89H1.5     c0,0,0.11-0.58,0.46-2.01C2.22,15.34,2.61,13.54,5.38,13.54z" id="XMLID_90_"/>

</g>

</g>

<g id="XMLID_85_">

<g id="XMLID_86_">

<path class="st17" d="M16.33,28.27H5.79c-0.15,0-0.29-0.07-0.38-0.18c-0.1-0.11-0.13-0.26-0.11-0.41l0.88-4.9     c0.04-0.24,0.25-0.41,0.49-0.41h0l9.26,0.01c0.01,0,0.02,0,0.03,0c5.13,0,6.56-2.11,7.27-4.18c0.24-0.71,0.86-3.12,0.89-4.55     c0.02-1.25-0.26-2.13-0.88-2.75c-0.84-0.85-2.37-1.27-4.67-1.27L9.06,9.62c-0.28,0-0.5-0.22-0.5-0.5s0.22-0.5,0.5-0.5h0     l9.53,0.01c2.58,0,4.34,0.51,5.38,1.57c0.8,0.82,1.18,1.95,1.16,3.47c-0.03,1.56-0.68,4.07-0.95,4.85     c-0.78,2.27-2.43,4.86-8.22,4.86c-0.01,0-0.02,0-0.04,0l-8.84-0.01l-0.7,3.9h9.94c3.59,0,5.09-0.39,6.76-1.15     c3.37-1.56,5.63-4.95,6.52-9.8c0.77-4.15,0.4-7.07-1.14-8.92c-1.49-1.8-4.1-2.67-7.98-2.67H10.36L9.93,7.1     C9.88,7.37,9.62,7.55,9.35,7.5C9.08,7.46,8.9,7.19,8.95,6.92l0.5-2.78C9.49,3.9,9.7,3.73,9.94,3.73h10.55     c4.19,0,7.05,0.99,8.75,3.03c1.74,2.09,2.18,5.28,1.35,9.74c-0.95,5.18-3.4,8.82-7.08,10.52C21.75,27.83,20.08,28.27,16.33,28.27     z" id="XMLID_105_"/>

</g>

<g id="XMLID_274_">

<path class="st17" d="M1.5,18.94c-0.28,0-0.5-0.22-0.5-0.5s0.22-0.5,0.5-0.5h10.81c2.34,0,2.66-1.36,2.92-2.46     c0.16-0.64,0.27-1.11,0.34-1.44H5.38c-2,0-2.53,1-2.8,1.97c-0.07,0.27-0.34,0.44-0.61,0.39l0,0c-0.27-0.05-0.44-0.31-0.37-0.58     c0.33-1.19,1.05-2.79,3.78-2.79h10.81c0.15,0,0.29,0.07,0.38,0.18c0.1,0.11,0.13,0.27,0.11,0.41c0,0-0.11,0.59-0.47,2.04     c-0.28,1.17-0.78,3.27-3.91,3.27H1.5z" id="XMLID_92_"/>

</g>

</g>

</g>

</svg>