<?xml version="1.0" ?>

<!DOCTYPE svg  PUBLIC '-//W3C//DTD SVG 1.1//EN'  'http://www.w3.org/Graphics/SVG/1.1/DTD/svg11.dtd'>


<svg width="800px" height="800px" viewBox="0 0 32 32" id="_x3C_Layer_x3E_" version="1.1" xml:space="preserve" xmlns="http://www.w3.org/2000/svg" xmlns:xlink="http://www.w3.org/1999/xlink">

<style type="text/css">
<![CDATA[
	.st0{fill:#E3F2FD;}
	.st1{fill:#80D8FF;}
	.st2{fill:#1AD2A4;}
	.st3{fill:#ECEFF1;}
	.st4{fill:#55FB9B;}
	.st5{fill:#BBDEFB;}
	.st6{fill:#C1AEE1;}
	.st7{fill:#FF5252;}
	.st8{fill:#FF8A80;}
	.st9{fill:#FFB74D;}
	.st10{fill:#FFF176;}
	.st11{fill:#FFFFFF;}
	.st12{fill:#65C7EA;}
	.st13{fill:#CFD8DC;}
	.st14{fill:#37474F;}
	.st15{fill:#78909C;}
	.st16{fill:#42A5F5;}
	.st17{fill:#455A64;}
]]>
</style>

<g id="Ripple_XRP_1_">

<g id="XMLID_153_">

<path class="st12" d="M26.45,2.3c1.92,1.12,3.05,3.13,3.05,5.27c0,2.12-1.13,4.14-3.05,5.26    c-1.02,0.57-2.27,0.79-3.39,0.79c-1.35,0-2.37,1.01-2.37,2.35c0,1.69,1.35,2.35,2.37,2.35c1.24,0,2.37,0.23,3.39,0.79    c1.92,1.12,3.05,3.14,3.05,5.27s-1.13,4.15-3.05,5.27s-4.18,1.12-6.1,0c-1.93-1.12-3.06-3.14-3.06-5.27    c0-1.12,0.35-2.24,0.91-3.25c0.56-1.12,0.22-2.58-0.91-3.25c-1.57-0.9-2.82,0.11-3.27,0.9c-0.56,1.01-1.35,1.9-2.37,2.46    c-1.92,1.12-4.18,1.12-6.1,0C3.63,20.12,2.5,18.1,2.5,15.97c0-2.13,1.13-4.15,3.05-5.27c1.92-1.12,4.18-1.12,6.1,0    c1.02,0.67,1.81,1.57,2.48,2.47c0.68,1.12,2.15,1.56,3.28,0.89c1.58-0.78,1.36-2.35,0.9-3.25c-0.56-1.01-1.02-2.13-1.02-3.25    c0-2.13,1.14-4.15,3.06-5.27c0.9-0.55,2.04-0.78,3.05-0.78C24.42,1.51,25.54,1.74,26.45,2.3z" id="XMLID_72_"/>

</g>

<g id="XMLID_151_">

<path class="st17" d="M23.4,30.99c-1.13,0-2.27-0.3-3.3-0.9c-2.04-1.18-3.31-3.37-3.31-5.7    c0-1.14,0.34-2.35,0.97-3.49c0.45-0.9,0.13-2.07-0.73-2.58c-0.47-0.27-0.94-0.35-1.39-0.23c-0.57,0.16-1,0.61-1.19,0.94    c-0.65,1.17-1.53,2.09-2.56,2.65c-2.06,1.2-4.53,1.2-6.59-0.01C3.26,20.49,2,18.3,2,15.97c0-2.33,1.26-4.52,3.3-5.7    c2.07-1.21,4.54-1.21,6.6,0c1.21,0.8,2.08,1.87,2.63,2.6c0.58,0.96,1.75,1.28,2.62,0.76c0.49-0.24,0.78-0.55,0.91-0.95    c0.23-0.7-0.1-1.44-0.2-1.64c-0.72-1.3-1.07-2.44-1.07-3.48c0-2.33,1.27-4.51,3.31-5.7c1.21-0.74,2.59-0.85,3.3-0.85    c1.23,0,2.41,0.31,3.31,0.86C28.74,3.05,30,5.24,30,7.57c0,2.32-1.26,4.51-3.3,5.69c-0.99,0.56-2.28,0.86-3.64,0.86    c-1.07,0-1.87,0.8-1.87,1.85c0,1.46,1.22,1.85,1.87,1.85c1.4,0,2.59,0.28,3.63,0.85c0,0,0.01,0,0.01,0.01    c2.03,1.19,3.3,3.37,3.3,5.7s-1.26,4.52-3.3,5.7C25.67,30.69,24.53,30.99,23.4,30.99z M16.06,17.03c0.49,0,1,0.14,1.48,0.42    c1.33,0.79,1.81,2.5,1.11,3.91c-0.56,1.02-0.86,2.06-0.86,3.03c0,1.98,1.08,3.83,2.81,4.84c1.75,1.02,3.85,1.02,5.6,0    c1.73-1.01,2.8-2.86,2.8-4.84c0-1.97-1.07-3.83-2.8-4.83c-0.89-0.49-1.92-0.73-3.14-0.73c-1.43,0-2.87-0.98-2.87-2.85    c0-1.63,1.23-2.85,2.87-2.85c1.19,0,2.31-0.26,3.15-0.73c1.72-1,2.79-2.85,2.79-4.82c0-1.98-1.07-3.83-2.8-4.84    c-1.51-0.93-4.11-0.92-5.59-0.01c-1.74,1.02-2.82,2.87-2.82,4.84c0,0.86,0.31,1.85,0.96,3.01c0.41,0.8,0.51,1.71,0.27,2.43    c-0.21,0.65-0.69,1.17-1.38,1.51c-1.31,0.78-3.09,0.3-3.93-1.08c-0.48-0.64-1.27-1.62-2.33-2.31c-1.73-1.01-3.82-1.01-5.57,0.01    C4.07,12.14,3,13.99,3,15.97c0,1.98,1.07,3.83,2.8,4.84c1.75,1.02,3.85,1.02,5.6,0c0.88-0.48,1.63-1.26,2.18-2.27    c0.3-0.54,0.94-1.18,1.8-1.42C15.6,17.06,15.83,17.03,16.06,17.03z" id="XMLID_694_"/>

</g>

</g>

</svg>