<?xml version="1.0" ?>

<!DOCTYPE svg  PUBLIC '-//W3C//DTD SVG 1.1//EN'  'http://www.w3.org/Graphics/SVG/1.1/DTD/svg11.dtd'>


<svg width="800px" height="800px" viewBox="0 0 32 32" id="_x3C_Layer_x3E_" version="1.1" xml:space="preserve" xmlns="http://www.w3.org/2000/svg" xmlns:xlink="http://www.w3.org/1999/xlink">

<style type="text/css">
<![CDATA[
	.st0{fill:#E3F2FD;}
	.st1{fill:#80D8FF;}
	.st2{fill:#1AD2A4;}
	.st3{fill:#ECEFF1;}
	.st4{fill:#55FB9B;}
	.st5{fill:#BBDEFB;}
	.st6{fill:#C1AEE1;}
	.st7{fill:#FF5252;}
	.st8{fill:#FF8A80;}
	.st9{fill:#FFB74D;}
	.st10{fill:#FFF176;}
	.st11{fill:#FFFFFF;}
	.st12{fill:#65C7EA;}
	.st13{fill:#CFD8DC;}
	.st14{fill:#37474F;}
	.st15{fill:#78909C;}
	.st16{fill:#42A5F5;}
	.st17{fill:#455A64;}
]]>
</style>

<g id="tether_x2C__crypto">

<g id="XMLID_279_">

<path class="st2" d="M30.4,14.51c0.19,0.4,0.1,0.87-0.21,1.17L16.7,28.7c-0.39,0.38-1.01,0.38-1.4,0L1.81,15.68    c-0.31-0.3-0.4-0.77-0.21-1.17L6.59,4.08C6.76,3.72,7.11,3.5,7.51,3.5h16.98c0.4,0,0.75,0.22,0.92,0.58L30.4,14.51z" id="XMLID_53_"/>

</g>

<g id="XMLID_44_">

<g id="XMLID_213_">

<path class="st17" d="M16,29.49c-0.38,0-0.75-0.14-1.05-0.43L1.46,16.04C1,15.59,0.87,14.89,1.15,14.3L6.14,3.86     C6.39,3.33,6.92,3,7.51,3h16.98c0.59,0,1.12,0.33,1.37,0.87l4.99,10.43c0.28,0.59,0.15,1.29-0.31,1.75c0,0,0,0,0,0L17.05,29.06     C16.75,29.35,16.38,29.49,16,29.49z M7.51,4C7.3,4,7.13,4.11,7.04,4.29L2.05,14.73c-0.09,0.2-0.05,0.44,0.11,0.6l13.49,13.02     c0.2,0.19,0.51,0.19,0.7,0l13.49-13.02c0.16-0.15,0.2-0.4,0.11-0.6L24.96,4.3C24.87,4.11,24.7,4,24.49,4H7.51z" id="XMLID_724_"/>

</g>

<g id="XMLID_184_">

<g id="XMLID_4327_">

<path class="st11" d="M16,17c-3.53,0-9.5-0.53-9.5-2.5c0-1.94,5.77-2.37,7.54-2.45      c0.31-0.02,0.51,0.2,0.52,0.48c0.01,0.28-0.2,0.51-0.47,0.52c-4.37,0.21-6.48,1.07-6.59,1.46C7.65,15.02,10.7,16,16,16      s8.35-0.98,8.5-1.51c-0.11-0.37-2.2-1.22-6.53-1.44c-0.28-0.01-0.49-0.25-0.47-0.52c0.01-0.27,0.22-0.48,0.52-0.47      c1.75,0.09,7.48,0.53,7.48,2.45C25.5,16.47,19.53,17,16,17z" id="XMLID_723_"/>

</g>

<g id="XMLID_4303_">

<path class="st11" d="M22.5,9h-13C9.22,9,9,8.78,9,8.5S9.22,8,9.5,8h13C22.78,8,23,8.22,23,8.5S22.78,9,22.5,9z      " id="XMLID_722_"/>

</g>

<g id="XMLID_4310_">

<path class="st11" d="M16,23.5c-0.28,0-0.5-0.22-0.5-0.5v-6.5c0-0.28,0.22-0.5,0.5-0.5s0.5,0.22,0.5,0.5V23      C16.5,23.28,16.28,23.5,16,23.5z" id="XMLID_721_"/>

</g>

<g id="XMLID_4278_">

<path class="st11" d="M16,15c-0.28,0-0.5-0.22-0.5-0.5v-6C15.5,8.22,15.72,8,16,8s0.5,0.22,0.5,0.5v6      C16.5,14.78,16.28,15,16,15z" id="XMLID_720_"/>

</g>

</g>

</g>

</g>

</svg>