<?xml version="1.0" encoding="utf-8"?>
<svg version="1.1" xmlns="http://www.w3.org/2000/svg" xmlns:xlink="http://www.w3.org/1999/xlink" 
	 width="800px" height="800px" viewBox="0 0 32 32" xml:space="preserve">
<style type="text/css">
	.cubies_achtien{fill:#EDB57E;}
	.cubies_negentien{fill:#F2C99E;}
	.cubies_twintig{fill:#F9E0BD;}
	.cubies_eenentwintig{fill:#C9483A;}
	.cubies_tweeentwintig{fill:#D97360;}
	.cubies_drieentwintig{fill:#E69D8A;}
	.st0{fill:#98D3BC;}
	.st1{fill:#CCE2CD;}
	.st2{fill:#65C3AB;}
	.st3{fill:#4C4842;}
	.st4{fill:#67625D;}
	.st5{fill:#EDEAE5;}
	.st6{fill:#C9C6C0;}
	.st7{fill:#2EB39A;}
	.st8{fill:#FFF2DF;}
	.st9{fill:#BCD269;}
	.st10{fill:#D1DE8B;}
	.st11{fill:#EC9B5A;}
	.st12{fill:#837F79;}
	.st13{fill:#A5A29C;}
	.st14{fill:#8E7866;}
	.st15{fill:#725A48;}
	.st16{fill:#F2C7B5;}
	.st17{fill:#A4C83F;}
	.st18{fill:#E3D4C0;}
</style>
<g>
	<rect y="22" class="cubies_negentien" width="32" height="4"/>
	<path class="cubies_achtien" d="M29,32H3c-1.657,0-3-1.343-3-3v-3h32v3C32,30.657,30.657,32,29,32z"/>
	<path class="cubies_eenentwintig" d="M32,22H0V3c0-1.657,1.343-3,3-3h26c1.657,0,3,1.343,3,3V22z"/>
	<path class="cubies_tweeentwintig" d="M30,22H0V3c0-1.657,1.343-3,3-3h24c1.657,0,3,1.343,3,3V22z"/>
	<path class="cubies_negentien" d="M27,32H3c-1.657,0-3-1.343-3-3v-3h30v3C30,30.657,28.657,32,27,32z"/>
	<rect y="22" class="cubies_twintig" width="30" height="4"/>
	<path class="cubies_drieentwintig" d="M12.255,9.717C12.395,8.732,13.239,8,14.235,8l1.531,0c0.995,0,1.839,0.732,1.98,1.717
		L19.5,22h-9L12.255,9.717z M10,10c0-0.552-0.447-1-1-1H7c-0.553,0-1,0.448-1,1s0.447,1,1,1h2C9.553,11,10,10.552,10,10z M24,10
		c0-0.552-0.447-1-1-1h-2c-0.553,0-1,0.448-1,1s0.447,1,1,1h2C23.553,11,24,10.552,24,10z M19.949,6.465l1.415-1.414
		c0.391-0.391,0.391-1.024,0-1.415s-1.023-0.39-1.414,0L18.535,5.05c-0.391,0.391-0.391,1.024,0,1.415
		c0.195,0.195,0.451,0.293,0.707,0.293S19.754,6.66,19.949,6.465z M16,4V2c0-0.552-0.447-1-1-1s-1,0.448-1,1v2c0,0.552,0.447,1,1,1
		S16,4.552,16,4z M11.465,6.464c0.391-0.391,0.391-1.024,0-1.415L10.05,3.636c-0.391-0.39-1.023-0.39-1.414,0s-0.391,1.024,0,1.415
		l1.415,1.414c0.195,0.195,0.451,0.292,0.707,0.292S11.27,6.66,11.465,6.464z"/>
</g>
</svg>