<?xml version="1.0" encoding="utf-8"?>
<svg version="1.1" xmlns="http://www.w3.org/2000/svg" xmlns:xlink="http://www.w3.org/1999/xlink" 
	 width="800px" height="800px" viewBox="0 0 32 32" xml:space="preserve">
<style type="text/css">
	.cubies_eenentwintig{fill:#C9483A;}
	.cubies_tweeentwintig{fill:#D97360;}
	.cubies_vijf{fill:#C9C6C0;}
	.cubies_zes{fill:#EDEAE5;}
	.st0{fill:#F9E0BD;}
	.st1{fill:#F2C99E;}
	.st2{fill:#98D3BC;}
	.st3{fill:#CCE2CD;}
	.st4{fill:#65C3AB;}
	.st5{fill:#4C4842;}
	.st6{fill:#67625D;}
	.st7{fill:#EDB57E;}
	.st8{fill:#E69D8A;}
	.st9{fill:#2EB39A;}
	.st10{fill:#FFF2DF;}
	.st11{fill:#BCD269;}
	.st12{fill:#D1DE8B;}
	.st13{fill:#EC9B5A;}
	.st14{fill:#837F79;}
	.st15{fill:#A5A29C;}
	.st16{fill:#8E7866;}
	.st17{fill:#725A48;}
	.st18{fill:#F2C7B5;}
	.st19{fill:#A4C83F;}
	.st20{fill:#E3D4C0;}
</style>
<g>
	<path class="cubies_eenentwintig" d="M32,22V3c0-1.657-1.343-3-3-3H3C1.343,0,0,1.343,0,3v19H32z"/>
	<path class="cubies_vijf" d="M32,22v7c0,1.657-1.343,3-3,3H19c-1.657,0-3-1.343-3-3c0,1.657-1.343,3-3,3H3c-1.657,0-3-1.343-3-3v-7
		H32z"/>
	<path class="cubies_zes" d="M0,29v-7h14v7c0,1.657-1.343,3-3,3H3C1.343,32,0,30.657,0,29z M19,32h8c1.657,0,3-1.343,3-3v-7H16v7
		C16,30.657,17.343,32,19,32z"/>
	<path class="cubies_tweeentwintig" d="M14,22V12h2v10h14V3c0-1.657-1.343-3-3-3H3C1.343,0,0,1.343,0,3v19H14z"/>
</g>
</svg>