<?xml version="1.0" encoding="utf-8"?>
<svg version="1.1" xmlns="http://www.w3.org/2000/svg" xmlns:xlink="http://www.w3.org/1999/xlink" 
	 width="800px" height="800px" viewBox="0 0 32 32" xml:space="preserve">
<style type="text/css">
	.cubies_negentien{fill:#F2C99E;}
	.cubies_eenentwintig{fill:#C9483A;}
	.cubies_tweeentwintig{fill:#D97360;}
	.cubies_een{fill:#4C4842;}
	.cubies_twaalf{fill:#FFF2DF;}
	.st0{fill:#F9E0BD;}
	.st1{fill:#98D3BC;}
	.st2{fill:#CCE2CD;}
	.st3{fill:#65C3AB;}
	.st4{fill:#67625D;}
	.st5{fill:#EDEAE5;}
	.st6{fill:#C9C6C0;}
	.st7{fill:#EDB57E;}
	.st8{fill:#E69D8A;}
	.st9{fill:#2EB39A;}
	.st10{fill:#BCD269;}
	.st11{fill:#D1DE8B;}
	.st12{fill:#EC9B5A;}
	.st13{fill:#837F79;}
	.st14{fill:#A5A29C;}
	.st15{fill:#8E7866;}
	.st16{fill:#725A48;}
	.st17{fill:#F2C7B5;}
	.st18{fill:#A4C83F;}
	.st19{fill:#E3D4C0;}
</style>
<g>
	<path class="cubies_eenentwintig" d="M29,32H3c-1.657,0-3-1.343-3-3V3c0-1.657,1.343-3,3-3h26c1.657,0,3,1.343,3,3v26
		C32,30.657,30.657,32,29,32z"/>
	<path class="cubies_tweeentwintig" d="M27,32H3c-1.657,0-3-1.343-3-3V3c0-1.657,1.343-3,3-3h24c1.657,0,3,1.343,3,3v26
		C30,30.657,28.657,32,27,32z"/>
	<path class="cubies_negentien" d="M26,11c0,3.866-3.134,7-7,7h-8c-3.866,0-7-3.134-7-7c0-3.866,3.134-7,7-7h8
		C22.866,4,26,7.134,26,11z"/>
	<path class="cubies_een" d="M12,10c0,1.105-0.895,2-2,2s-2-0.895-2-2s0.895-2,2-2S12,8.895,12,10z M20,8c-1.105,0-2,0.895-2,2
		s0.895,2,2,2s2-0.895,2-2S21.105,8,20,8z"/>
	<path class="cubies_twaalf" d="M10,9.5C10,9.776,9.776,10,9.5,10S9,9.776,9,9.5S9.224,9,9.5,9S10,9.224,10,9.5z M19.5,9
		C19.224,9,19,9.224,19,9.5s0.224,0.5,0.5,0.5S20,9.776,20,9.5S19.776,9,19.5,9z"/>
	<path class="cubies_eenentwintig" d="M15,27L15,27c-0.552,0-1-0.448-1-1v-8h2v8C16,26.552,15.552,27,15,27z"/>
</g>
</svg>