<?xml version="1.0" encoding="utf-8"?>
<svg version="1.1" xmlns="http://www.w3.org/2000/svg" xmlns:xlink="http://www.w3.org/1999/xlink" 
	 width="800px" height="800px" viewBox="0 0 32 32" xml:space="preserve">
<style type="text/css">
	.cubies_dertien{fill:#A4C83F;}
	.cubies_veertien{fill:#BCD269;}
	.cubies_zestien{fill:#E8E8B5;}
	.cubies_vijftien{fill:#D1DE8B;}
	.st0{fill:#2EB39A;}
	.st1{fill:#65C3AB;}
	.st2{fill:#CCE2CD;}
	.st3{fill:#98D3BC;}
	.st4{fill:#F2C99E;}
	.st5{fill:#C9483A;}
	.st6{fill:#D97360;}
	.st7{fill:#F9E0BD;}
	.st8{fill:#4C4842;}
	.st9{fill:#67625D;}
	.st10{fill:#FFF2DF;}
	.st11{fill:#837F79;}
	.st12{fill:#C9C6C0;}
	.st13{fill:#EDEAE5;}
	.st14{fill:#EC9B5A;}
	.st15{fill:#EDB57E;}
	.st16{fill:#E3D4C0;}
	.st17{fill:#E69D8A;}
	.st18{fill:#AB9784;}
	.st19{fill:#C6B5A2;}
	.st20{fill:#F2C7B5;}
	.st21{fill:#8E7866;}
	.st22{fill:#725A48;}
</style>
<g>
	<path class="cubies_dertien" d="M29,0H3C1.343,0,0,1.343,0,3v26c0,1.657,1.343,3,3,3h26c1.657,0,3-1.343,3-3V3
		C32,1.343,30.657,0,29,0z"/>
	<path class="cubies_veertien" d="M27,0H3C1.343,0,0,1.343,0,3v26c0,1.657,1.343,3,3,3h24c1.657,0,3-1.343,3-3V3
		C30,1.343,28.657,0,27,0z"/>
	<path class="cubies_dertien" d="M14.229,13.681l-3.91-3.91c-0.426-0.426-0.426-1.116,0-1.542l3.91-3.91
		c0.426-0.426,1.116-0.426,1.542,0l3.91,3.91c0.426,0.426,0.426,1.116,0,1.542l-3.91,3.91
		C15.345,14.106,14.655,14.106,14.229,13.681z"/>
	<path class="cubies_vijftien" d="M3,18h24c0.552,0,1,0.448,1,1v10c0,0.552-0.448,1-1,1H3c-0.552,0-1-0.448-1-1V19
		C2,18.448,2.448,18,3,18z M14,10.5v-3C14,7.224,13.776,7,13.5,7S13,7.224,13,7.5v3c0,0.276,0.224,0.5,0.5,0.5S14,10.776,14,10.5z
		 M16.5,11c-0.276,0-0.5-0.224-0.5-0.5v-3C16,7.224,16.224,7,16.5,7S17,7.224,17,7.5v3C17,10.776,16.776,11,16.5,11z"/>
	<path class="cubies_zestien" d="M2,19v10c0,0.552,0.448,1,1,1h23c0.552,0,1-0.448,1-1V19c0-0.552-0.448-1-1-1H3
		C2.448,18,2,18.448,2,19z"/>
	<path class="cubies_veertien" d="M25,20.5c0-0.276-0.224-0.5-0.5-0.5h-20C4.224,20,4,20.224,4,20.5S4.224,21,4.5,21h19L23,23
		c0,0.552,0.448,1,1,1s1-0.448,1-1l-0.5-2C24.776,21,25,20.776,25,20.5z"/>
</g>
</svg>