<?xml version="1.0" encoding="utf-8"?>
<svg version="1.1" xmlns="http://www.w3.org/2000/svg" xmlns:xlink="http://www.w3.org/1999/xlink" 
	 width="800px" height="800px" viewBox="0 0 32 32" xml:space="preserve">
<style type="text/css">
	.cubies_zeventien{fill:#EC9B5A;}
	.cubies_negentien{fill:#F2C99E;}
	.cubies_twintig{fill:#F9E0BD;}
	.st0{fill:#C9483A;}
	.st1{fill:#D97360;}
	.st2{fill:#98D3BC;}
	.st3{fill:#CCE2CD;}
	.st4{fill:#65C3AB;}
	.st5{fill:#4C4842;}
	.st6{fill:#67625D;}
	.st7{fill:#EDEAE5;}
	.st8{fill:#C9C6C0;}
	.st9{fill:#EDB57E;}
	.st10{fill:#E69D8A;}
	.st11{fill:#2EB39A;}
	.st12{fill:#FFF2DF;}
	.st13{fill:#BCD269;}
	.st14{fill:#D1DE8B;}
	.st15{fill:#837F79;}
	.st16{fill:#A5A29C;}
	.st17{fill:#8E7866;}
	.st18{fill:#725A48;}
	.st19{fill:#F2C7B5;}
	.st20{fill:#A4C83F;}
	.st21{fill:#E3D4C0;}
</style>
<g>
	<path class="cubies_negentien" d="M29,32H3c-1.657,0-3-1.343-3-3V3c0-1.657,1.343-3,3-3h26c1.657,0,3,1.343,3,3v26
		C32,30.657,30.657,32,29,32z"/>
	<path class="cubies_twintig" d="M27,32H3c-1.657,0-3-1.343-3-3V3c0-1.657,1.343-3,3-3h24c1.657,0,3,1.343,3,3v26
		C30,30.657,28.657,32,27,32z"/>
	<path class="cubies_zeventien" d="M12,6c0,1.105-0.895,2-2,2S8,7.105,8,6s0.895-2,2-2S12,4.895,12,6z M22,24c-1.105,0-2,0.895-2,2
		s0.895,2,2,2s2-0.895,2-2S23.105,24,22,24z M10,20c-1.657,0-3,1.343-3,3s1.343,3,3,3s3-1.343,3-3S11.657,20,10,20z M22,6
		c-2.209,0-4,1.791-4,4s1.791,4,4,4s4-1.791,4-4S24.209,6,22,6z M5,12c-1.105,0-2,0.895-2,2s0.895,2,2,2s2-0.895,2-2S6.105,12,5,12z
		"/>
	<path class="cubies_negentien" d="M10.5,7.929C10.339,7.971,10.174,8,10,8C8.895,8,8,7.105,8,6c0-1.105,0.895-2,2-2
		c0.174,0,0.339,0.029,0.5,0.071C9.639,4.294,9,5.069,9,6C9,6.931,9.639,7.706,10.5,7.929z M19,10c0-2.038,1.53-3.701,3.5-3.95
		C22.334,6.03,22.171,6,22,6c-2.209,0-4,1.791-4,4c0,2.209,1.791,4,4,4c0.171,0,0.334-0.03,0.5-0.05C20.53,13.701,19,12.038,19,10z
		 M4,14c0-0.931,0.639-1.706,1.5-1.929C5.339,12.029,5.174,12,5,12c-1.105,0-2,0.895-2,2c0,1.105,0.895,2,2,2
		c0.174,0,0.339-0.029,0.5-0.071C4.639,15.706,4,14.931,4,14z M21,26c0-0.931,0.639-1.706,1.5-1.929C22.339,24.029,22.174,24,22,24
		c-1.105,0-2,0.895-2,2c0,1.105,0.895,2,2,2c0.174,0,0.339-0.029,0.5-0.071C21.639,27.706,21,26.931,21,26z M8,23
		c0-1.486,1.082-2.71,2.5-2.95C10.337,20.023,10.171,20,10,20c-1.657,0-3,1.343-3,3s1.343,3,3,3c0.171,0,0.337-0.023,0.5-0.05
		C9.082,25.71,8,24.486,8,23z"/>
</g>
</svg>