<?xml version="1.0" encoding="utf-8"?>
<svg version="1.1" xmlns="http://www.w3.org/2000/svg" xmlns:xlink="http://www.w3.org/1999/xlink" 
	 width="800px" height="800px" viewBox="0 0 32 32" xml:space="preserve">
<style type="text/css">
	.cubies_eenentwintig{fill:#C9483A;}
	.cubies_dertien{fill:#A4C83F;}
	.cubies_veertien{fill:#BCD269;}
	.cubies_zestien{fill:#E8E8B5;}
	.st0{fill:#2EB39A;}
	.st1{fill:#65C3AB;}
	.st2{fill:#CCE2CD;}
	.st3{fill:#98D3BC;}
	.st4{fill:#BCD269;}
	.st5{fill:#D1DE8B;}
	.st6{fill:#F2C99E;}
	.st7{fill:#D97360;}
	.st8{fill:#F9E0BD;}
	.st9{fill:#4C4842;}
	.st10{fill:#67625D;}
	.st11{fill:#FFF2DF;}
	.st12{fill:#837F79;}
	.st13{fill:#C9C6C0;}
	.st14{fill:#EDEAE5;}
	.st15{fill:#EC9B5A;}
	.st16{fill:#EDB57E;}
	.st17{fill:#E3D4C0;}
	.st18{fill:#E69D8A;}
	.st19{fill:#AB9784;}
	.st20{fill:#C6B5A2;}
	.st21{fill:#F2C7B5;}
	.st22{fill:#8E7866;}
	.st23{fill:#725A48;}
</style>
<g>
	<path class="cubies_dertien" d="M29,0H3C1.343,0,0,1.343,0,3v26c0,1.657,1.343,3,3,3h26c1.657,0,3-1.343,3-3V3
		C32,1.343,30.657,0,29,0z M19,18c0,0.552-0.448,1-1,1h-2c-0.552,0-1-0.448-1-1v-5c0-0.552,0.448-1,1-1h2c0.552,0,1,0.448,1,1V18z"
		/>
	<path class="cubies_veertien" d="M27,0H3C1.343,0,0,1.343,0,3v26c0,1.657,1.343,3,3,3h24c1.657,0,3-1.343,3-3V3
		C30,1.343,28.657,0,27,0z M17,18c0,0.552-0.448,1-1,1h-2c-0.552,0-1-0.448-1-1v-5c0-0.552,0.448-1,1-1h2c0.552,0,1,0.448,1,1V18z"
		/>
	<path class="cubies_zestien" d="M9,11c0,0.552-0.448,1-1,1s-1-0.448-1-1s0.448-1,1-1S9,10.448,9,11z M15,25c-0.552,0-1,0.448-1,1
		s0.448,1,1,1s1-0.448,1-1S15.552,25,15,25z M22,10c-0.552,0-1,0.448-1,1s0.448,1,1,1s1-0.448,1-1S22.552,10,22,10z M10,2
		C9.448,2,9,2.448,9,3s0.448,1,1,1s1-0.448,1-1S10.552,2,10,2z M20,2c-0.552,0-1,0.448-1,1s0.448,1,1,1s1-0.448,1-1S20.552,2,20,2z
		 M3,23c-0.552,0-1,0.448-1,1s0.448,1,1,1s1-0.448,1-1S3.552,23,3,23z M27,23c-0.552,0-1,0.448-1,1s0.448,1,1,1s1-0.448,1-1
		S27.552,23,27,23z"/>
	<path class="cubies_eenentwintig" d="M22,18.471v3.526c0,1.597-1.78,2.55-3.109,1.664l-2.074-1.383
		c-0.179,0.268-0.47,0.456-0.817,0.456h-2c-0.347,0-0.637-0.187-0.817-0.456l-2.074,1.383C9.78,24.547,8,23.594,8,21.997v-3.526
		c0-1.597,1.78-2.55,3.109-1.664l2.074,1.383c0.179-0.268,0.47-0.456,0.817-0.456h2c0.347,0,0.637,0.187,0.817,0.456l2.074-1.383
		C20.22,15.921,22,16.873,22,18.471z M15,6c-0.552,0-1,0.448-1,1s0.448,1,1,1s1-0.448,1-1S15.552,6,15,6z M8,28
		c-0.552,0-1,0.448-1,1s0.448,1,1,1s1-0.448,1-1S8.552,28,8,28z M22,28c-0.552,0-1,0.448-1,1s0.448,1,1,1s1-0.448,1-1
		S22.552,28,22,28z M3,16c-0.552,0-1,0.448-1,1s0.448,1,1,1s1-0.448,1-1S3.552,16,3,16z M3,4C2.448,4,2,4.448,2,5s0.448,1,1,1
		s1-0.448,1-1S3.552,4,3,4z M27,4c-0.552,0-1,0.448-1,1s0.448,1,1,1s1-0.448,1-1S27.552,4,27,4z M27,16c-0.552,0-1,0.448-1,1
		s0.448,1,1,1s1-0.448,1-1S27.552,16,27,16z"/>
</g>
</svg>