<?xml version="1.0" encoding="utf-8"?>
<svg version="1.1" xmlns="http://www.w3.org/2000/svg" xmlns:xlink="http://www.w3.org/1999/xlink" 
	 width="800px" height="800px" viewBox="0 0 32 32" xml:space="preserve">
<style type="text/css">
	.cubies_vierentwintig{fill:#F2C7B5;}
	.cubies_eenentwintig{fill:#C9483A;}
	.cubies_tweeentwintig{fill:#D97360;}
	.cubies_drieentwintig{fill:#E69D8A;}
	.st0{fill:#2EB39A;}
	.st1{fill:#65C3AB;}
	.st2{fill:#CCE2CD;}
	.st3{fill:#98D3BC;}
	.st4{fill:#A4C83F;}
	.st5{fill:#BCD269;}
	.st6{fill:#E8E8B5;}
	.st7{fill:#D1DE8B;}
	.st8{fill:#F2C99E;}
	.st9{fill:#F9E0BD;}
	.st10{fill:#4C4842;}
	.st11{fill:#67625D;}
	.st12{fill:#FFF2DF;}
	.st13{fill:#837F79;}
	.st14{fill:#C9C6C0;}
	.st15{fill:#EDEAE5;}
	.st16{fill:#EC9B5A;}
	.st17{fill:#EDB57E;}
	.st18{fill:#E3D4C0;}
	.st19{fill:#AB9784;}
	.st20{fill:#C6B5A2;}
	.st21{fill:#8E7866;}
	.st22{fill:#725A48;}
</style>
<g>
	<path class="cubies_eenentwintig" d="M3,0l26,0c1.657,0,3,1.343,3,3v26c0,1.657-1.343,3-3,3H3c-1.657,0-3-1.343-3-3L0,3
		C0,1.343,1.343,0,3,0z"/>
	<path class="cubies_tweeentwintig" d="M3,0l24,0c1.657,0,3,1.343,3,3v26c0,1.657-1.343,3-3,3H3c-1.657,0-3-1.343-3-3L0,3
		C0,1.343,1.343,0,3,0z"/>
	<polygon class="cubies_eenentwintig" points="20,0 10,0 15,5 	"/>
	<path class="cubies_vierentwintig" d="M14.121,5.879c-1.172,1.172-3.071,1.172-4.243,0L9.121,5.121
		C7.95,3.95,7.95,2.05,9.121,0.879L10,0l5,5L14.121,5.879z M15.879,5.879c1.172,1.172,3.071,1.172,4.243,0l0.757-0.757
		c1.172-1.172,1.172-3.071,0-4.243L20,0l-5,5L15.879,5.879z M30,16H0v2h30V16z"/>
	
		<rect x="30" y="16" transform="matrix(-1 -1.224647e-16 1.224647e-16 -1 62 34)" class="cubies_drieentwintig" width="2" height="2"/>
	<path class="cubies_drieentwintig" d="M16,9c0,0.552-0.448,1-1,1s-1-0.448-1-1c0-0.552,0.448-1,1-1S16,8.448,16,9z M15,12
		c-0.552,0-1,0.448-1,1c0,0.552,0.448,1,1,1s1-0.448,1-1C16,12.448,15.552,12,15,12z"/>
</g>
</svg>