<?xml version="1.0" encoding="utf-8"?>
<svg version="1.1" xmlns="http://www.w3.org/2000/svg" xmlns:xlink="http://www.w3.org/1999/xlink" 
	 width="800px" height="800px" viewBox="0 0 32 32" xml:space="preserve">
<style type="text/css">
	.cubies_twintig{fill:#F9E0BD;}
	.cubies_zesentwintig{fill:#65C3AB;}
	.cubies_zevenentwintig{fill:#98D3BC;}
	.cubies_twee{fill:#67625D;}
	.cubies_een{fill:#4C4842;}
	.cubies_negentien{fill:#F2C99E;}
	.cubies_tweeentwintig{fill:#D97360;}
	.cubies_drieentwintig{fill:#E69D8A;}
	.cubies_eenentwintig{fill:#C9483A;}
	.st0{fill:#A4C83F;}
	.st1{fill:#BCD269;}
	.st2{fill:#D1DE8B;}
	.st3{fill:#2EB39A;}
	.st4{fill:#EC9B5A;}
	.st5{fill:#A5C64A;}
	.st6{fill:#EDB57E;}
	.st7{fill:#CCE2CD;}
	.st8{fill:#FFF2DF;}
	.st9{fill:#C9C6C0;}
	.st10{fill:#725A48;}
	.st11{fill:#8E7866;}
	.st12{fill:#EDEAE5;}
	.st13{fill:#837F79;}
	.st14{fill:#A5A29C;}
	.st15{fill:#E3D4C0;}
	.st16{fill:#E8E8B5;}
	.st17{fill:#F2C99E;}
	.st18{fill:#F9E0BD;}
	.st19{fill:#AB9784;}
</style>
<g>
	<path class="cubies_eenentwintig" d="M29,28H3c-1.657,0-3-1.343-3-3v-9h32v9C32,26.657,30.657,28,29,28z"/>
	<rect y="14" class="cubies_tweeentwintig" width="32" height="2"/>
	<path class="cubies_negentien" d="M29,0L3,0C1.343,0,0,1.343,0,3l0,11h32V3C32,1.343,30.657,0,29,0z"/>
	<path class="cubies_twintig" d="M27,0L3,0C1.343,0,0,1.343,0,3l0,11h30V3C30,1.343,28.657,0,27,0z"/>
	<path class="cubies_zevenentwintig" d="M6,14H0V6h5c0.552,0,1,0.448,1,1V14z M22,7c0-0.552-0.448-1-1-1H9C8.448,6,8,6.448,8,7v7h14
		V7z M30,6h-5c-0.552,0-1,0.448-1,1v7h6V6z"/>
	<path class="cubies_een" d="M12,29c0,1.657-1.343,3-3,3c-0.353,0-1.647,0-2,0c-1.657,0-3-1.343-3-3s1.343-3,3-3
		c0.353,0,1.647,0,2,0C10.657,26,12,27.343,12,29z M25,26c-0.353,0-1.647,0-2,0c-1.657,0-3,1.343-3,3s1.343,3,3,3
		c0.353,0,1.647,0,2,0c1.657,0,3-1.343,3-3S26.657,26,25,26z"/>
	<path class="cubies_twee" d="M10,29c0,1.657-1.343,3-3,3s-3-1.343-3-3s1.343-3,3-3S10,27.343,10,29z M23,26c-1.657,0-3,1.343-3,3
		s1.343,3,3,3s3-1.343,3-3S24.657,26,23,26z"/>
	<path class="cubies_tweeentwintig" d="M0,16v9c0,1.657,1.343,3,3,3h1.184C4.597,26.837,5.696,26,7,26s2.403,0.837,2.816,2h10.367
		c0.413-1.163,1.512-2,2.816-2s2.403,0.837,2.816,2H27c1.657,0,3-1.343,3-3v-9H0z"/>
	<rect x="30" y="6" class="cubies_zesentwintig" width="2" height="8"/>
	<rect x="0" y="14" class="cubies_drieentwintig" width="30" height="2"/>
	<path class="cubies_twintig" d="M8,29c0,0.552-0.448,1-1,1s-1-0.448-1-1s0.448-1,1-1S8,28.448,8,29z M23,28c-0.552,0-1,0.448-1,1
		s0.448,1,1,1s1-0.448,1-1S23.552,28,23,28z"/>
</g>
</svg>