<?xml version="1.0" encoding="utf-8"?>
<svg version="1.1" xmlns="http://www.w3.org/2000/svg" xmlns:xlink="http://www.w3.org/1999/xlink" 
	 width="800px" height="800px" viewBox="0 0 32 32" xml:space="preserve">
<style type="text/css">
	.cubies_zevenentwintig{fill:#98D3BC;}
	.cubies_twee{fill:#67625D;}
	.cubies_een{fill:#4C4842;}
	.st0{fill:#A4C83F;}
	.st1{fill:#BCD269;}
	.st2{fill:#D1DE8B;}
	.st3{fill:#2EB39A;}
	.st4{fill:#EC9B5A;}
	.st5{fill:#A5C64A;}
	.st6{fill:#65C3AB;}
	.st7{fill:#EDB57E;}
	.st8{fill:#F9E0BD;}
	.st9{fill:#CCE2CD;}
	.st10{fill:#D97360;}
	.st11{fill:#E69D8A;}
	.st12{fill:#F2C99E;}
	.st13{fill:#C9483A;}
	.st14{fill:#FFF2DF;}
	.st15{fill:#C9C6C0;}
	.st16{fill:#725A48;}
	.st17{fill:#8E7866;}
	.st18{fill:#EDEAE5;}
	.st19{fill:#837F79;}
	.st20{fill:#A5A29C;}
	.st21{fill:#E3D4C0;}
	.st22{fill:#E8E8B5;}
	.st23{fill:#AB9784;}
</style>
<g>
	<path class="cubies_een" d="M29,32H3c-1.657,0-3-1.343-3-3V3c0-1.657,1.343-3,3-3h26c1.657,0,3,1.343,3,3v26
		C32,30.657,30.657,32,29,32z"/>
	<path class="cubies_twee" d="M27,32H3c-1.657,0-3-1.343-3-3V3c0-1.657,1.343-3,3-3h24c1.657,0,3,1.343,3,3v26
		C30,30.657,28.657,32,27,32z"/>
	<path class="cubies_een" d="M4,4c0,0.552-0.448,1-1,1S2,4.552,2,4s0.448-1,1-1S4,3.448,4,4z M3,9c-0.552,0-1,0.448-1,1s0.448,1,1,1
		s1-0.448,1-1S3.552,9,3,9z M3,15c-0.552,0-1,0.448-1,1c0,0.552,0.448,1,1,1s1-0.448,1-1C4,15.448,3.552,15,3,15z M3,21
		c-0.552,0-1,0.448-1,1s0.448,1,1,1s1-0.448,1-1S3.552,21,3,21z M3,27c-0.552,0-1,0.448-1,1s0.448,1,1,1s1-0.448,1-1S3.552,27,3,27z
		 M27,3c-0.552,0-1,0.448-1,1s0.448,1,1,1s1-0.448,1-1S27.552,3,27,3z M27,9c-0.552,0-1,0.448-1,1s0.448,1,1,1s1-0.448,1-1
		S27.552,9,27,9z M27,15c-0.552,0-1,0.448-1,1c0,0.552,0.448,1,1,1s1-0.448,1-1C28,15.448,27.552,15,27,15z M27,21
		c-0.552,0-1,0.448-1,1s0.448,1,1,1s1-0.448,1-1S27.552,21,27,21z M27,27c-0.552,0-1,0.448-1,1s0.448,1,1,1s1-0.448,1-1
		S27.552,27,27,27z"/>
	<path class="cubies_zevenentwintig" d="M23,7H7C6.448,7,6,6.552,6,6V0h18v6C24,6.552,23.552,7,23,7z M24,22V10c0-0.552-0.448-1-1-1
		H7c-0.552,0-1,0.448-1,1v12c0,0.552,0.448,1,1,1h16C23.552,23,24,22.552,24,22z M24,26c0-0.552-0.448-1-1-1H7c-0.552,0-1,0.448-1,1
		v6h18V26z"/>
</g>
</svg>