<?xml version="1.0" encoding="utf-8"?>
<svg version="1.1" xmlns="http://www.w3.org/2000/svg" xmlns:xlink="http://www.w3.org/1999/xlink" 
	 width="800px" height="800px" viewBox="0 0 32 32" xml:space="preserve">
<style type="text/css">
	.cubies_zesentwintig{fill:#65C3AB;}
	.cubies_vijfentwintig{fill:#2EB39A;}
	.cubies_tweeentwintig{fill:#D97360;}
	.cubies_eenentwintig{fill:#C9483A;}
	.cubies_vijf{fill:#C9C6C0;}
	.cubies_zes{fill:#EDEAE5;}
	.cubies_acht{fill:#8E7866;}
	.cubies_zeven{fill:#725A48;}
	.st0{fill:#A4C83F;}
	.st1{fill:#BCD269;}
	.st2{fill:#D1DE8B;}
	.st3{fill:#EC9B5A;}
	.st4{fill:#A5C64A;}
	.st5{fill:#EDB57E;}
	.st6{fill:#F9E0BD;}
	.st7{fill:#98D3BC;}
	.st8{fill:#CCE2CD;}
	.st9{fill:#E69D8A;}
	.st10{fill:#F2C99E;}
	.st11{fill:#4C4842;}
	.st12{fill:#67625D;}
	.st13{fill:#FFF2DF;}
	.st14{fill:#837F79;}
	.st15{fill:#A5A29C;}
	.st16{fill:#E3D4C0;}
	.st17{fill:#E8E8B5;}
	.st18{fill:#AB9784;}
</style>
<g>
	<rect x="4" y="9" class="cubies_vijf" width="28" height="8"/>
	<path class="cubies_zeven" d="M6,0H2C0.895,0,0,0.895,0,2v28c0,1.105,0.895,2,2,2h2c1.105,0,2-0.895,2-2V0z"/>
	<path class="cubies_acht" d="M2,0C0.895,0,0,0.895,0,2v28c0,1.105,0.895,2,2,2s2-0.895,2-2V0C4,0,3.105,0,2,0z"/>
	<path class="cubies_eenentwintig" d="M32,9H4V0h25c1.657,0,3,1.343,3,3V9z"/>
	<path class="cubies_tweeentwintig" d="M30,9H4V0h23c1.657,0,3,1.343,3,3V9z"/>
	<rect x="4" y="9" class="cubies_zes" width="26" height="8"/>
	<path class="cubies_vijfentwintig" d="M32,17H4v9h25c1.657,0,3-1.343,3-3V17z"/>
	<path class="cubies_zesentwintig" d="M30,17H4v9h23c1.657,0,3-1.343,3-3V17z"/>
</g>
</svg>