<?xml version="1.0" encoding="utf-8"?>
<svg version="1.1" xmlns="http://www.w3.org/2000/svg" xmlns:xlink="http://www.w3.org/1999/xlink" 
	 width="800px" height="800px" viewBox="0 0 32 32" xml:space="preserve">
<style type="text/css">
	.cubies_veertien{fill:#BCD269;}
	.cubies_dertien{fill:#A4C83F;}
	.cubies_acht{fill:#8E7866;}
	.cubies_zeven{fill:#725A48;}
	.cubies_zestien{fill:#E8E8B5;}
	.st0{fill:#D1DE8B;}
	.st1{fill:#2EB39A;}
	.st2{fill:#EC9B5A;}
	.st3{fill:#A5C64A;}
	.st4{fill:#65C3AB;}
	.st5{fill:#EDB57E;}
	.st6{fill:#F9E0BD;}
	.st7{fill:#98D3BC;}
	.st8{fill:#CCE2CD;}
	.st9{fill:#D97360;}
	.st10{fill:#E69D8A;}
	.st11{fill:#F2C99E;}
	.st12{fill:#4C4842;}
	.st13{fill:#67625D;}
	.st14{fill:#C9483A;}
	.st15{fill:#FFF2DF;}
	.st16{fill:#C9C6C0;}
	.st17{fill:#EDEAE5;}
	.st18{fill:#837F79;}
	.st19{fill:#A5A29C;}
	.st20{fill:#E3D4C0;}
	.st21{fill:#A4C83F;}
	.st22{fill:#AB9784;}
</style>
<g>
	<path class="cubies_zeven" d="M19,32h-6c-0.552,0-1-0.448-1-1v-4h8v4C20,31.552,19.552,32,19,32z"/>
	<path class="cubies_dertien" d="M29,27H3c-1.657,0-3-1.343-3-3V3c0-1.657,1.343-3,3-3h26c1.657,0,3,1.343,3,3v21
		C32,25.657,30.657,27,29,27z"/>
	<path class="cubies_veertien" d="M27,27H3c-1.657,0-3-1.343-3-3V3c0-1.657,1.343-3,3-3h24c1.657,0,3,1.343,3,3v21
		C30,25.657,28.657,27,27,27z"/>
	<path class="cubies_acht" d="M17,32h-4c-0.552,0-1-0.448-1-1v-4h6v4C18,31.552,17.552,32,17,32z"/>
	<path class="cubies_zestien" d="M6,5c0,0.552-0.448,1-1,1S4,5.552,4,5s0.448-1,1-1S6,4.448,6,5z M15,4c-0.552,0-1,0.448-1,1
		s0.448,1,1,1s1-0.448,1-1S15.552,4,15,4z M25,4c-0.552,0-1,0.448-1,1s0.448,1,1,1s1-0.448,1-1S25.552,4,25,4z M20,8
		c-0.552,0-1,0.448-1,1s0.448,1,1,1s1-0.448,1-1S20.552,8,20,8z M10,8C9.448,8,9,8.448,9,9s0.448,1,1,1s1-0.448,1-1S10.552,8,10,8z
		 M5,12c-0.552,0-1,0.448-1,1s0.448,1,1,1s1-0.448,1-1S5.552,12,5,12z M15,12c-0.552,0-1,0.448-1,1s0.448,1,1,1s1-0.448,1-1
		S15.552,12,15,12z M25,12c-0.552,0-1,0.448-1,1s0.448,1,1,1s1-0.448,1-1S25.552,12,25,12z M20,16c-0.552,0-1,0.448-1,1s0.448,1,1,1
		s1-0.448,1-1S20.552,16,20,16z M10,16c-0.552,0-1,0.448-1,1s0.448,1,1,1s1-0.448,1-1S10.552,16,10,16z M5,21c-0.552,0-1,0.448-1,1
		s0.448,1,1,1s1-0.448,1-1S5.552,21,5,21z M15,21c-0.552,0-1,0.448-1,1s0.448,1,1,1s1-0.448,1-1S15.552,21,15,21z M25,21
		c-0.552,0-1,0.448-1,1s0.448,1,1,1s1-0.448,1-1S25.552,21,25,21z"/>
</g>
</svg>