<?xml version="1.0" encoding="utf-8"?>
<svg version="1.1" xmlns="http://www.w3.org/2000/svg" xmlns:xlink="http://www.w3.org/1999/xlink" 
	 width="800px" height="800px" viewBox="0 0 32 32" xml:space="preserve">
<style type="text/css">
	.cubies_twintig{fill:#F9E0BD;}
	.cubies_een{fill:#4C4842;}
	.cubies_negentien{fill:#F2C99E;}
	.cubies_tweeentwintig{fill:#D97360;}
	.cubies_eenentwintig{fill:#C9483A;}
	.cubies_twaalf{fill:#FFF2DF;}
	.st0{fill:#A4C83F;}
	.st1{fill:#BCD269;}
	.st2{fill:#D1DE8B;}
	.st3{fill:#2EB39A;}
	.st4{fill:#EC9B5A;}
	.st5{fill:#65C3AB;}
	.st6{fill:#EDB57E;}
	.st7{fill:#98D3BC;}
	.st8{fill:#CCE2CD;}
	.st9{fill:#E69D8A;}
	.st10{fill:#67625D;}
	.st11{fill:#C9C6C0;}
	.st12{fill:#725A48;}
	.st13{fill:#8E7866;}
	.st14{fill:#EDEAE5;}
	.st15{fill:#837F79;}
	.st16{fill:#A5A29C;}
	.st17{fill:#E3D4C0;}
	.st18{fill:#E8E8B5;}
	.st19{fill:#F2C99E;}
	.st20{fill:#F9E0BD;}
	.st21{fill:#AB9784;}
</style>
<g>
	<path class="cubies_eenentwintig" d="M30,12l2,14v3c0,1.657-1.343,3-3,3H3c-1.657,0-3-1.343-3-3v-3l2-14H30z M32,3L32,3
		c0-1.657-1.343-3-3-3H3C1.343,0,0,1.343,0,3v0c0,0.552,0.448,1,1,1h30C31.552,4,32,3.552,32,3z"/>
	<path class="cubies_tweeentwintig" d="M28,12l2,14v3c0,1.657-1.343,3-3,3H3c-1.657,0-3-1.343-3-3v-3l2-14H28z M30,3L30,3
		c0-1.657-1.343-3-3-3H3C1.343,0,0,1.343,0,3v0c0,0.552,0.448,1,1,1h28C29.552,4,30,3.552,30,3z"/>
	<path class="cubies_een" d="M17,16v3c0,0.552-0.448,1-1,1h-2c-0.552,0-1-0.448-1-1v-3c0-1.105,0.895-2,2-2S17,14.895,17,16z M15,24
		c-1.105,0-2,0.895-2,2v4h4v-4C17,24.895,16.105,24,15,24z"/>
	<path class="cubies_twintig" d="M11,32h8v-1c0-0.552-0.448-1-1-1h-6c-0.552,0-1,0.448-1,1V32z"/>
	<path class="cubies_eenentwintig" d="M14,26v4h-1v-4c0-1.105,0.895-2,2-2c0.174,0,0.339,0.029,0.5,0.071
		C14.639,24.294,14,25.069,14,26z M14,19v-3c0-0.931,0.639-1.706,1.5-1.929C15.339,14.029,15.174,14,15,14c-1.105,0-2,0.895-2,2v3
		c0,0.552,0.448,1,1,1h1C14.448,20,14,19.552,14,19z"/>
	<rect x="2" y="4" class="cubies_twintig" width="28" height="8"/>
	<rect x="2" y="4" class="cubies_negentien" width="26" height="8"/>
	<path class="cubies_twaalf" d="M18,32h-7v-1c0-0.552,0.448-1,1-1h5c0.552,0,1,0.448,1,1V32z M17,7c0-1.105-0.895-2-2-2
		s-2,0.895-2,2L2,4v8l11-3v3h4V9l11,3V4L17,7z"/>
</g>
</svg>