<?xml version="1.0" encoding="utf-8"?>
<svg version="1.1" xmlns="http://www.w3.org/2000/svg" xmlns:xlink="http://www.w3.org/1999/xlink" 
	 width="800px" height="800px" viewBox="0 0 32 32" xml:space="preserve">
<style type="text/css">
	.cubies_twintig{fill:#F9E0BD;}
	.cubies_negentien{fill:#F2C99E;}
	.cubies_tweeentwintig{fill:#D97360;}
	.cubies_eenentwintig{fill:#C9483A;}
	.cubies_twaalf{fill:#FFF2DF;}
	.st0{fill:#A4C83F;}
	.st1{fill:#BCD269;}
	.st2{fill:#D1DE8B;}
	.st3{fill:#2EB39A;}
	.st4{fill:#EC9B5A;}
	.st5{fill:#A5C64A;}
	.st6{fill:#65C3AB;}
	.st7{fill:#EDB57E;}
	.st8{fill:#98D3BC;}
	.st9{fill:#CCE2CD;}
	.st10{fill:#E69D8A;}
	.st11{fill:#4C4842;}
	.st12{fill:#67625D;}
	.st13{fill:#C9C6C0;}
	.st14{fill:#725A48;}
	.st15{fill:#8E7866;}
	.st16{fill:#EDEAE5;}
	.st17{fill:#837F79;}
	.st18{fill:#A5A29C;}
	.st19{fill:#E3D4C0;}
	.st20{fill:#E8E8B5;}
	.st21{fill:#F2C99E;}
	.st22{fill:#F9E0BD;}
	.st23{fill:#AB9784;}
</style>
<g>
	<path class="cubies_eenentwintig" d="M32,19V3c0-1.657-1.343-3-3-3H3C1.343,0,0,1.343,0,3v16c0,0.552,0.448,1,1,1h30
		C31.552,20,32,19.552,32,19z"/>
	<path class="cubies_tweeentwintig" d="M30,19V3c0-1.657-1.343-3-3-3H3C1.343,0,0,1.343,0,3v16c0,0.552,0.448,1,1,1h28
		C29.552,20,30,19.552,30,19z"/>
	<path class="cubies_negentien" d="M4,20v9c0,1.657,1.343,3,3,3h18c1.657,0,3-1.343,3-3v-9H4z"/>
	<path class="cubies_twintig" d="M4,20v9c0,1.657,1.343,3,3,3h16c1.657,0,3-1.343,3-3v-9H4z"/>
	<path class="cubies_twaalf" d="M11,5c0,1.657-1.343,3-3,3S5,6.657,5,5s1.343-3,3-3S11,3.343,11,5z M22,2c-1.657,0-3,1.343-3,3
		s1.343,3,3,3s3-1.343,3-3S23.657,2,22,2z M15,10c-1.657,0-3,1.343-3,3s1.343,3,3,3s3-1.343,3-3S16.657,10,15,10z M1,10
		c-0.353,0-0.686,0.072-1,0.184v5.633C0.314,15.928,0.647,16,1,16c1.657,0,3-1.343,3-3S2.657,10,1,10z M30,10.184
		C29.686,10.072,29.353,10,29,10c-1.657,0-3,1.343-3,3s1.343,3,3,3c0.353,0,0.686-0.072,1-0.184V10.184z"/>
	<path class="cubies_twintig" d="M30,10.184v5.633c1.163-0.413,2-1.512,2-2.816S31.163,10.597,30,10.184z"/>
</g>
</svg>