<?xml version="1.0" encoding="utf-8"?>
<svg version="1.1" xmlns="http://www.w3.org/2000/svg" xmlns:xlink="http://www.w3.org/1999/xlink" 
	 width="800px" height="800px" viewBox="0 0 32 32" xml:space="preserve">
<style type="text/css">
	.cubies_veertien{fill:#BCD269;}
	.cubies_dertien{fill:#A4C83F;}
	.cubies_vijftien{fill:#D1DE8B;}
	.st0{fill:#2EB39A;}
	.st1{fill:#EC9B5A;}
	.st2{fill:#A5C64A;}
	.st3{fill:#65C3AB;}
	.st4{fill:#EDB57E;}
	.st5{fill:#F9E0BD;}
	.st6{fill:#98D3BC;}
	.st7{fill:#CCE2CD;}
	.st8{fill:#D97360;}
	.st9{fill:#E69D8A;}
	.st10{fill:#F2C99E;}
	.st11{fill:#4C4842;}
	.st12{fill:#67625D;}
	.st13{fill:#C9483A;}
	.st14{fill:#FFF2DF;}
	.st15{fill:#C9C6C0;}
	.st16{fill:#725A48;}
	.st17{fill:#8E7866;}
	.st18{fill:#EDEAE5;}
	.st19{fill:#837F79;}
	.st20{fill:#A5A29C;}
	.st21{fill:#E3D4C0;}
	.st22{fill:#A4C83F;}
	.st23{fill:#E8E8B5;}
	.st24{fill:#AB9784;}
</style>
<g>
	<path class="cubies_veertien" d="M29,32H3c-1.657,0-3-1.343-3-3V3c0-1.657,1.343-3,3-3h26c1.657,0,3,1.343,3,3v26
		C32,30.657,30.657,32,29,32z"/>
	<path class="cubies_vijftien" d="M27,32H3c-1.657,0-3-1.343-3-3V3c0-1.657,1.343-3,3-3h24c1.657,0,3,1.343,3,3v26
		C30,30.657,28.657,32,27,32z"/>
	<path class="cubies_dertien" d="M15,0c0,0-9,2.477-9,8v16c0,5.523,9,8,9,8s9-2.477,9-8V8C24,2.477,15,0,15,0z"/>
	<path class="cubies_vijftien" d="M22,23c0,3.866-3.134,7-7,7s-7-3.134-7-7s3.134-7,7-7S22,19.134,22,23z M15,2
		c-3.866,0-7,3.134-7,7s3.134,7,7,7s7-3.134,7-7S18.866,2,15,2z"/>
	<path class="cubies_veertien" d="M7,24V8c0-4.744,6.628-7.235,8.5-7.845C15.193,0.055,15,0,15,0S6,2.477,6,8v16c0,5.523,9,8,9,8
		s0.193-0.055,0.5-0.155C13.628,31.235,7,28.744,7,24z"/>
</g>
</svg>