<?xml version="1.0" encoding="utf-8"?>
<svg version="1.1" xmlns="http://www.w3.org/2000/svg" xmlns:xlink="http://www.w3.org/1999/xlink" 
	 width="800px" height="800px" viewBox="0 0 32 32" xml:space="preserve">
<style type="text/css">
	.cubies_een{fill:#4C4842;}
	.cubies_vijf{fill:#C9C6C0;}
	.cubies_zes{fill:#EDEAE5;}
	.st0{fill:#A4C83F;}
	.st1{fill:#BCD269;}
	.st2{fill:#D1DE8B;}
	.st3{fill:#2EB39A;}
	.st4{fill:#EC9B5A;}
	.st5{fill:#65C3AB;}
	.st6{fill:#EDB57E;}
	.st7{fill:#F9E0BD;}
	.st8{fill:#98D3BC;}
	.st9{fill:#CCE2CD;}
	.st10{fill:#D97360;}
	.st11{fill:#E69D8A;}
	.st12{fill:#F2C99E;}
	.st13{fill:#67625D;}
	.st14{fill:#C9483A;}
	.st15{fill:#FFF2DF;}
	.st16{fill:#725A48;}
	.st17{fill:#8E7866;}
	.st18{fill:#837F79;}
	.st19{fill:#A5A29C;}
	.st20{fill:#E3D4C0;}
	.st21{fill:#E8E8B5;}
	.st22{fill:#AB9784;}
</style>
<g>
	<path class="cubies_vijf" d="M29,0h-2H5H3C1.343,0,0,1.343,0,3v26c0,1.657,1.343,3,3,3c0.353,0,1.647,0,2,0
		c0.772,0,1.468-0.3,2-0.779C7.532,31.7,8.228,32,9,32c0.353,0,1.647,0,2,0c0.772,0,1.468-0.3,2-0.779C13.532,31.7,14.228,32,15,32
		c0.353,0,1.647,0,2,0c0.772,0,1.468-0.3,2-0.779C19.532,31.7,20.228,32,21,32c0.353,0,1.647,0,2,0c0.772,0,1.468-0.3,2-0.779
		C25.532,31.7,26.228,32,27,32c0.353,0,1.647,0,2,0c1.657,0,3-1.343,3-3V3C32,1.343,30.657,0,29,0z"/>
	<path class="cubies_zes" d="M27,0H3C1.343,0,0,1.343,0,3v26c0,1.657,1.343,3,3,3s3-1.343,3-3c0,1.657,1.343,3,3,3s3-1.343,3-3
		c0,1.657,1.343,3,3,3s3-1.343,3-3c0,1.657,1.343,3,3,3s3-1.343,3-3c0,1.657,1.343,3,3,3s3-1.343,3-3V3C30,1.343,28.657,0,27,0z"/>
	<path class="cubies_een" d="M18,14c0,1.657-1.343,3-3,3s-3-1.343-3-3s1.343-3,3-3S18,12.343,18,14z M8,8c-1.105,0-2,0.895-2,2
		s0.895,2,2,2s2-0.895,2-2S9.105,8,8,8z M22,8c-1.105,0-2,0.895-2,2s0.895,2,2,2s2-0.895,2-2S23.105,8,22,8z"/>
	<path class="cubies_zes" d="M8,9.5C8,9.776,7.776,10,7.5,10S7,9.776,7,9.5S7.224,9,7.5,9S8,9.224,8,9.5z M21.5,9
		C21.224,9,21,9.224,21,9.5s0.224,0.5,0.5,0.5S22,9.776,22,9.5S21.776,9,21.5,9z"/>
</g>
</svg>