<?xml version="1.0" encoding="utf-8"?>
<svg version="1.1" xmlns="http://www.w3.org/2000/svg" xmlns:xlink="http://www.w3.org/1999/xlink" 
	 width="800px" height="800px" viewBox="0 0 32 32" xml:space="preserve">
<style type="text/css">
	.cubies_twintig{fill:#F9E0BD;}
	.cubies_negentien{fill:#F2C99E;}
	.cubies_drieentwintig{fill:#E69D8A;}
	.cubies_eenentwintig{fill:#C9483A;}
	.st0{fill:#A4C83F;}
	.st1{fill:#BCD269;}
	.st2{fill:#D1DE8B;}
	.st3{fill:#2EB39A;}
	.st4{fill:#EC9B5A;}
	.st5{fill:#65C3AB;}
	.st6{fill:#EDB57E;}
	.st7{fill:#98D3BC;}
	.st8{fill:#CCE2CD;}
	.st9{fill:#D97360;}
	.st10{fill:#4C4842;}
	.st11{fill:#67625D;}
	.st12{fill:#FFF2DF;}
	.st13{fill:#C9C6C0;}
	.st14{fill:#725A48;}
	.st15{fill:#8E7866;}
	.st16{fill:#EDEAE5;}
	.st17{fill:#837F79;}
	.st18{fill:#A5A29C;}
	.st19{fill:#E3D4C0;}
	.st20{fill:#E8E8B5;}
	.st21{fill:#AB9784;}
</style>
<g>
	<path class="cubies_negentien" d="M29,0H3C1.343,0,0,1.343,0,3v26c0,1.657,1.343,3,3,3h26c1.657,0,3-1.343,3-3V3
		C32,1.343,30.657,0,29,0z M17,18c0,0.552-0.448,1-1,1s-1-0.448-1-1v-4c0-0.552,0.448-1,1-1s1,0.448,1,1V18z"/>
	<path class="cubies_twintig" d="M27,0H3C1.343,0,0,1.343,0,3v26c0,1.657,1.343,3,3,3h24c1.657,0,3-1.343,3-3V3
		C30,1.343,28.657,0,27,0z M17,18c0,0.552-0.448,1-1,1h-2c-0.552,0-1-0.448-1-1v-4c0-0.552,0.448-1,1-1h2c0.552,0,1,0.448,1,1V18z"
		/>
	<path class="cubies_drieentwintig" d="M4,30c-1.105,0-2-0.895-2-2V4c0-1.105,0.895-2,2-2h22c1.105,0,2,0.895,2,2v24
		c0,1.105-0.895,2-2,2H4z M13,11c-1.105,0-2,0.895-2,2v6c0,1.105,0.895,2,2,2h4c1.105,0,2-0.895,2-2v-6c0-1.105-0.895-2-2-2H13z"/>
	<path class="cubies_eenentwintig" d="M25,26c-0.256,0-0.512-0.098-0.707-0.293l-1-1c-0.391-0.391-0.391-1.023,0-1.414
		s1.023-0.391,1.414,0l1,1c0.391,0.391,0.391,1.023,0,1.414C25.512,25.902,25.256,26,25,26z M7.707,7.707l1-1
		c0.391-0.391,0.391-1.023,0-1.414s-1.023-0.391-1.414,0l-1,1c-0.391,0.391-0.391,1.023,0,1.414C6.488,7.902,6.744,8,7,8
		S7.512,7.902,7.707,7.707z M6.707,20.707c0.391-0.391,0.391-1.023,0-1.414l-1-1c-0.391-0.391-1.023-0.391-1.414,0
		s-0.391,1.023,0,1.414l1,1C5.488,20.902,5.744,21,6,21S6.512,20.902,6.707,20.707z M13.707,25.707l1-1
		c0.391-0.391,0.391-1.023,0-1.414s-1.023-0.391-1.414,0l-1,1c-0.391,0.391-0.391,1.023,0,1.414C12.488,25.902,12.744,26,13,26
		S13.512,25.902,13.707,25.707z M24.707,10.707c0.391-0.391,0.391-1.023,0-1.414l-1-1c-0.391-0.391-1.023-0.391-1.414,0
		s-0.391,1.023,0,1.414l1,1C23.488,10.902,23.744,11,24,11S24.512,10.902,24.707,10.707z"/>
	<path class="cubies_twintig" d="M8,28c-0.256,0-0.512-0.098-0.707-0.293l-1-1c-0.391-0.391-0.391-1.023,0-1.414
		s1.023-0.391,1.414,0l1,1c0.391,0.391,0.391,1.023,0,1.414C8.512,27.902,8.256,28,8,28z M17.707,6.707
		c0.391-0.391,0.391-1.023,0-1.414l-1-1c-0.391-0.391-1.023-0.391-1.414,0s-0.391,1.023,0,1.414l1,1C16.488,6.902,16.744,7,17,7
		S17.512,6.902,17.707,6.707z M24.707,18.707l1-1c0.391-0.391,0.391-1.023,0-1.414s-1.023-0.391-1.414,0l-1,1
		c-0.391,0.391-0.391,1.023,0,1.414C23.488,18.902,23.744,19,24,19S24.512,18.902,24.707,18.707z M19.707,27.707l1-1
		c0.391-0.391,0.391-1.023,0-1.414s-1.023-0.391-1.414,0l-1,1c-0.391,0.391-0.391,1.023,0,1.414C18.488,27.902,18.744,28,19,28
		S19.512,27.902,19.707,27.707z M7.707,14.707l1-1c0.391-0.391,0.391-1.023,0-1.414s-1.023-0.391-1.414,0l-1,1
		c-0.391,0.391-0.391,1.023,0,1.414C6.488,14.902,6.744,15,7,15S7.512,14.902,7.707,14.707z"/>
</g>
</svg>