<?xml version="1.0" encoding="utf-8"?>
<svg version="1.1" xmlns="http://www.w3.org/2000/svg" xmlns:xlink="http://www.w3.org/1999/xlink" 
	 width="800px" height="800px" viewBox="0 0 32 32" xml:space="preserve">
<style type="text/css">
	.cubies_twee{fill:#67625D;}
	.cubies_een{fill:#4C4842;}
	.cubies_vijf{fill:#C9C6C0;}
	.cubies_zes{fill:#EDEAE5;}
	.st0{fill:#A4C83F;}
	.st1{fill:#BCD269;}
	.st2{fill:#D1DE8B;}
	.st3{fill:#2EB39A;}
	.st4{fill:#EC9B5A;}
	.st5{fill:#65C3AB;}
	.st6{fill:#EDB57E;}
	.st7{fill:#F9E0BD;}
	.st8{fill:#98D3BC;}
	.st9{fill:#CCE2CD;}
	.st10{fill:#D97360;}
	.st11{fill:#E69D8A;}
	.st12{fill:#F2C99E;}
	.st13{fill:#C9483A;}
	.st14{fill:#FFF2DF;}
	.st15{fill:#725A48;}
	.st16{fill:#8E7866;}
	.st17{fill:#837F79;}
	.st18{fill:#A5A29C;}
	.st19{fill:#E3D4C0;}
	.st20{fill:#E8E8B5;}
	.st21{fill:#AB9784;}
</style>
<g>
	<path class="cubies_vijf" d="M29,32H3c-1.657,0-3-1.343-3-3V3c0-1.657,1.343-3,3-3h26c1.657,0,3,1.343,3,3v26
		C32,30.657,30.657,32,29,32z"/>
	<path class="cubies_zes" d="M27,32H3c-1.657,0-3-1.343-3-3V3c0-1.657,1.343-3,3-3h24c1.657,0,3,1.343,3,3v26
		C30,30.657,28.657,32,27,32z"/>
	<path class="cubies_twee" d="M8.722,0h12.347c0.081,0.248-0.008,0.52-0.219,0.674l-5.6,4.069c-0.211,0.153-0.497,0.153-0.708,0
		l-5.6-4.069C8.73,0.52,8.642,0.248,8.722,0z M0,6v9.552l2.585-1.878c0.211-0.153,0.3-0.425,0.219-0.674L0.665,6.416
		C0.584,6.168,0.353,6,0.092,6H0z M7.032,28H0v1c0,1.657,1.343,3,3,3h5.77l-1.164-3.584C7.525,28.168,7.293,28,7.032,28z
		 M29.163,6.416L27.024,13c-0.081,0.248,0.008,0.52,0.219,0.674L30,15.677V6h-0.264C29.475,6,29.244,6.168,29.163,6.416z M30,29v-1
		h-7.232c-0.261,0-0.492,0.168-0.573,0.416L21.031,32H27C28.657,32,30,30.657,30,29z M8.722,16l2.139,6.584
		C10.942,22.832,11.173,23,11.434,23h6.923c0.261,0,0.492-0.168,0.573-0.416L21.069,16c0.081-0.248-0.008-0.52-0.219-0.674
		l-5.6-4.069c-0.211-0.153-0.497-0.153-0.708,0l-5.6,4.069C8.73,15.48,8.642,15.752,8.722,16z"/>
	<path class="cubies_een" d="M32,15.677h-2V6h2V15.677z M30,28v1c0,1.657-1.343,3-3,3h2c1.657,0,3-1.343,3-3v-1H30z"/>
</g>
</svg>