<?xml version="1.0" encoding="utf-8"?>
<svg version="1.1" xmlns="http://www.w3.org/2000/svg" xmlns:xlink="http://www.w3.org/1999/xlink" 
	 width="800px" height="800px" viewBox="0 0 32 32" xml:space="preserve">
<style type="text/css">
	.cubies_achtien{fill:#EDB57E;}
	.cubies_twintig{fill:#F9E0BD;}
	.cubies_twee{fill:#67625D;}
	.cubies_negentien{fill:#F2C99E;}
	.cubies_tweeentwintig{fill:#D97360;}
	.cubies_eenentwintig{fill:#C9483A;}
	.cubies_acht{fill:#8E7866;}
	.cubies_zeven{fill:#725A48;}
	.st0{fill:#A4C83F;}
	.st1{fill:#BCD269;}
	.st2{fill:#D1DE8B;}
	.st3{fill:#2EB39A;}
	.st4{fill:#EC9B5A;}
	.st5{fill:#A5C64A;}
	.st6{fill:#65C3AB;}
	.st7{fill:#98D3BC;}
	.st8{fill:#CCE2CD;}
	.st9{fill:#E69D8A;}
	.st10{fill:#4C4842;}
	.st11{fill:#FFF2DF;}
	.st12{fill:#C9C6C0;}
	.st13{fill:#EDEAE5;}
	.st14{fill:#837F79;}
	.st15{fill:#A5A29C;}
	.st16{fill:#E3D4C0;}
	.st17{fill:#E8E8B5;}
	.st18{fill:#F2C99E;}
	.st19{fill:#F9E0BD;}
	.st20{fill:#EDB57E;}
	.st21{fill:#AB9784;}
</style>
<g>
	<path class="cubies_achtien" d="M14,32H3c-1.657,0-3-1.343-3-3V10h17v19C17,30.657,15.657,32,14,32z"/>
	<path class="cubies_negentien" d="M12,32H3c-1.657,0-3-1.343-3-3V3c0-1.657,1.343-3,3-3h9c1.657,0,3,1.343,3,3v26
		C15,30.657,13.657,32,12,32z"/>
	<path class="cubies_zeven" d="M17,10H0V3c0-1.657,1.343-3,3-3h11c1.657,0,3,1.343,3,3V10z"/>
	<path class="cubies_eenentwintig" d="M29,32H18c-1.657,0-3-1.343-3-3V3c0-1.657,1.343-3,3-3h11c1.657,0,3,1.343,3,3v26
		C32,30.657,30.657,32,29,32z"/>
	<path class="cubies_twintig" d="M27,32h-9c-1.657,0-3-1.343-3-3V3c0-1.657,1.343-3,3-3h9c1.657,0,3,1.343,3,3v26
		C30,30.657,28.657,32,27,32z"/>
	<path class="cubies_twee" d="M19.414,17c-0.769,0-1.536-0.292-2.121-0.877c-0.391-0.391-0.391-1.023,0-1.414s1.023-0.391,1.414,0
		c0.391,0.39,1.023,0.39,1.414,0c0.391-0.391,1.023-0.391,1.414,0s0.391,1.023,0,1.414C20.95,16.708,20.183,17,19.414,17z
		 M10.586,17c0.769,0,1.536-0.292,2.121-0.877c0.391-0.391,0.391-1.023,0-1.414s-1.023-0.391-1.414,0
		c-0.391,0.39-1.023,0.39-1.414,0c-0.391-0.391-1.023-0.391-1.414,0s-0.391,1.023,0,1.414C9.05,16.708,9.817,17,10.586,17z M13,25
		c0-0.552,0.448-1,1-1h1v2h-1C13.448,26,13,25.552,13,25z"/>
	<path class="cubies_tweeentwintig" d="M17,25c0-0.552-0.448-1-1-1h-1v2h1C16.552,26,17,25.552,17,25z M30,3v26c0,1.657-1.343,3-3,3
		h-3v-9h1c1.105,0,2-0.895,2-2v-1c0-1.105-0.895-2-2-2h-1v-7c0-0.552-0.448-1-1-1h-8V3c0-1.657,1.343-3,3-3h9
		C28.657,0,30,1.343,30,3z"/>
	<path class="cubies_acht" d="M12,0H3C1.343,0,0,1.343,0,3v26c0,1.657,1.343,3,3,3h3v-9H5c-1.105,0-2-0.895-2-2v-1
		c0-1.105,0.895-2,2-2h1v-7c0-0.552,0.448-1,1-1h8V3C15,1.343,13.657,0,12,0z"/>
</g>
</svg>