<?xml version="1.0" encoding="utf-8"?>
<svg version="1.1" xmlns="http://www.w3.org/2000/svg" xmlns:xlink="http://www.w3.org/1999/xlink" 
	 width="800px" height="800px" viewBox="0 0 32 32" xml:space="preserve">
<style type="text/css">
	.cubies_eenentwintig{fill:#C9483A;}
	.cubies_tweeentwintig{fill:#D97360;}
	.cubies_twee{fill:#67625D;}
	.cubies_een{fill:#4C4842;}
	.cubies_twaalf{fill:#FFF2DF;}
	.st0{fill:#F2C99E;}
	.st1{fill:#F9E0BD;}
	.st2{fill:#65C3AB;}
	.st3{fill:#725A48;}
	.st4{fill:#8E7866;}
	.st5{fill:#98D3BC;}
	.st6{fill:#CCE2CD;}
	.st7{fill:#EDB57E;}
	.st8{fill:#EC9B5A;}
	.st9{fill:#C9C6C0;}
	.st10{fill:#EDEAE5;}
	.st11{fill:#A4C83F;}
	.st12{fill:#BCD269;}
	.st13{fill:#D1DE8B;}
	.st14{fill:#E69D8A;}
	.st15{fill:#E3D4C0;}
	.st16{fill:#C6B5A2;}
	.st17{fill:#837F79;}
	.st18{fill:#A5A29C;}
	.st19{fill:#2EB39A;}
	.st20{fill:#AB9784;}
</style>
<g>
	<path class="cubies_eenentwintig" d="M29,32H3c-1.657,0-3-1.343-3-3V10h32v19C32,30.657,30.657,32,29,32z"/>
	<path class="cubies_tweeentwintig" d="M27,32H3c-1.657,0-3-1.343-3-3V10h30v19C30,30.657,28.657,32,27,32z"/>
	<path class="cubies_een" d="M29,0L3,0C1.343,0,0,1.343,0,3l0,7h32V3C32,1.343,30.657,0,29,0z"/>
	<path class="cubies_een" d="M30,18.184v5.633c1.163-0.413,2-1.512,2-2.816S31.163,18.597,30,18.184z"/>
	<path class="cubies_twee" d="M30,3v7H16v14c0,0.552-0.448,1-1,1s-1-0.448-1-1V10H0V3c0-1.657,1.343-3,3-3h24
		C28.657,0,30,1.343,30,3z M9,13c-1.657,0-3,1.343-3,3s1.343,3,3,3s3-1.343,3-3S10.657,13,9,13z M9,23c-1.657,0-3,1.343-3,3
		s1.343,3,3,3s3-1.343,3-3S10.657,23,9,23z M21,13c-1.657,0-3,1.343-3,3s1.343,3,3,3s3-1.343,3-3S22.657,13,21,13z M21,23
		c-1.657,0-3,1.343-3,3s1.343,3,3,3s3-1.343,3-3S22.657,23,21,23z M1,18c-0.353,0-0.686,0.072-1,0.184v5.633
		C0.314,23.928,0.647,24,1,24c1.657,0,3-1.343,3-3S2.657,18,1,18z M26,21c0,1.657,1.343,3,3,3c0.353,0,0.686-0.072,1-0.184v-5.633
		C29.686,18.072,29.353,18,29,18C27.343,18,26,19.343,26,21z"/>
	<path class="cubies_een" d="M11,5c0,1.105-0.895,2-2,2S7,6.105,7,5s0.895-2,2-2S11,3.895,11,5z M21,3c-1.105,0-2,0.895-2,2
		s0.895,2,2,2s2-0.895,2-2S22.105,3,21,3z"/>
	<path class="cubies_twaalf" d="M9,4.5C9,4.776,8.776,5,8.5,5S8,4.776,8,4.5S8.224,4,8.5,4S9,4.224,9,4.5z M20.5,4
		C20.224,4,20,4.224,20,4.5S20.224,5,20.5,5S21,4.776,21,4.5S20.776,4,20.5,4z"/>
</g>
</svg>