<?xml version="1.0" encoding="utf-8"?>
<svg version="1.1" xmlns="http://www.w3.org/2000/svg" xmlns:xlink="http://www.w3.org/1999/xlink" 
	 width="800px" height="800px" viewBox="0 0 32 32" xml:space="preserve">
<style type="text/css">
	.cubies_negentien{fill:#F2C99E;}
	.cubies_twintig{fill:#F9E0BD;}
	.cubies_achtien{fill:#EDB57E;}
	.cubies_zeventien{fill:#EC9B5A;}
	.st0{fill:#65C3AB;}
	.st1{fill:#725A48;}
	.st2{fill:#8E7866;}
	.st3{fill:#D97360;}
	.st4{fill:#98D3BC;}
	.st5{fill:#C9483A;}
	.st6{fill:#CCE2CD;}
	.st7{fill:#4C4842;}
	.st8{fill:#67625D;}
	.st9{fill:#FFF2DF;}
	.st10{fill:#C9C6C0;}
	.st11{fill:#EDEAE5;}
	.st12{fill:#A4C83F;}
	.st13{fill:#BCD269;}
	.st14{fill:#D1DE8B;}
	.st15{fill:#E69D8A;}
	.st16{fill:#E3D4C0;}
	.st17{fill:#C6B5A2;}
	.st18{fill:#837F79;}
	.st19{fill:#A5A29C;}
	.st20{fill:#2EB39A;}
	.st21{fill:#AB9784;}
</style>
<g>
	<path class="cubies_negentien" d="M29,32H3c-1.657,0-3-1.343-3-3V9c0-1.657,1.343-3,3-3h26c1.657,0,3,1.343,3,3v20
		C32,30.657,30.657,32,29,32z"/>
	<path class="cubies_twintig" d="M27,32H3c-1.657,0-3-1.343-3-3V9c0-1.657,1.343-3,3-3h24c1.657,0,3,1.343,3,3v20
		C30,30.657,28.657,32,27,32z"/>
	<path class="cubies_achtien" d="M23,0H9C7.343,0,6,1.343,6,3v3h6V5c0-0.552,0.448-1,1-1h6c0.552,0,1,0.448,1,1v1h6V3
		C26,1.343,24.657,0,23,0z"/>
	<path class="cubies_negentien" d="M21,0H9C7.343,0,6,1.343,6,3v3h4V5c0-0.552,0.448-1,1-1h8c0.552,0,1,0.448,1,1v1h4V3
		C24,1.343,22.657,0,21,0z"/>
	<path class="cubies_zeventien" d="M18,17c0-1.836-1.649-3.286-3.546-2.952c-1.226,0.216-2.222,1.237-2.415,2.467
		c-0.222,1.414,0.547,2.67,1.716,3.206l-0.591,4.137C13.077,24.461,13.544,25,14.153,25h1.694c0.609,0,1.076-0.539,0.99-1.141
		l-0.591-4.137C17.279,19.248,18,18.211,18,17z"/>
	<path class="cubies_achtien" d="M32,15h-2v-2h2V15z M32,18h-2v2h2V18z M32,23h-2v2h2V23z"/>
	<path class="cubies_negentien" d="M13.038,16.515c-0.222,1.414,0.547,2.67,1.716,3.206l-0.591,4.137
		C14.077,24.461,14.544,25,15.153,25h-1c-0.609,0-1.076-0.539-0.99-1.141l0.591-4.137c-1.168-0.536-1.938-1.793-1.716-3.206
		c0.193-1.23,1.189-2.251,2.415-2.467c0.343-0.06,0.671-0.045,0.99,0.003C14.222,14.271,13.231,15.289,13.038,16.515z M5,13H0v2h5
		c0.552,0,1-0.448,1-1C6,13.448,5.552,13,5,13z M5,18H0v2h5c0.552,0,1-0.448,1-1C6,18.448,5.552,18,5,18z M5,23H0v2h5
		c0.552,0,1-0.448,1-1C6,23.448,5.552,23,5,23z M24,24c0,0.552,0.448,1,1,1h5v-2h-5C24.448,23,24,23.448,24,24z M25,13
		c-0.552,0-1,0.448-1,1c0,0.552,0.448,1,1,1h5v-2H25z M24,19c0,0.552,0.448,1,1,1h5v-2h-5C24.448,18,24,18.448,24,19z"/>
</g>
</svg>