<?xml version="1.0" encoding="utf-8"?>
<svg version="1.1" xmlns="http://www.w3.org/2000/svg" xmlns:xlink="http://www.w3.org/1999/xlink" 
	 width="800px" height="800px" viewBox="0 0 32 32" xml:space="preserve">
<style type="text/css">
	.cubies_tweeentwintig{fill:#D97360;}
	.cubies_een{fill:#4C4842;}
	.cubies_twaalf{fill:#FFF2DF;}
	.cubies_elf{fill:#E3D4C0;}
	.cubies_negen{fill:#AB9784;}
	.cubies_tien{fill:#C6B5A2;}
	.st0{fill:#F2C99E;}
	.st1{fill:#F9E0BD;}
	.st2{fill:#65C3AB;}
	.st3{fill:#725A48;}
	.st4{fill:#8E7866;}
	.st5{fill:#98D3BC;}
	.st6{fill:#C9483A;}
	.st7{fill:#CCE2CD;}
	.st8{fill:#EDB57E;}
	.st9{fill:#EC9B5A;}
	.st10{fill:#67625D;}
	.st11{fill:#C9C6C0;}
	.st12{fill:#EDEAE5;}
	.st13{fill:#A4C83F;}
	.st14{fill:#BCD269;}
	.st15{fill:#D1DE8B;}
	.st16{fill:#E69D8A;}
	.st17{fill:#837F79;}
	.st18{fill:#A5A29C;}
	.st19{fill:#2EB39A;}
</style>
<g>
	<path class="cubies_elf" d="M29,32H3c-1.657,0-3-1.343-3-3V3c0-1.657,1.343-3,3-3h5c1.657,0,3,1.343,3,3v5h10V3
		c0-1.657,1.343-3,3-3h5c1.657,0,3,1.343,3,3v26C32,30.657,30.657,32,29,32z"/>
	<path class="cubies_twaalf" d="M27,32H3c-1.657,0-3-1.343-3-3V3c0-1.657,1.343-3,3-3h3c1.657,0,3,1.343,3,3v5h12V3
		c0-1.657,1.343-3,3-3h3c1.657,0,3,1.343,3,3v26C30,30.657,28.657,32,27,32z"/>
	<path class="cubies_een" d="M20,18c1.105,0,2,0.895,2,2s-0.895,2-2,2s-2-0.895-2-2S18.895,18,20,18z M8,20c0,1.105,0.895,2,2,2
		s2-0.895,2-2s-0.895-2-2-2S8,18.895,8,20z"/>
	<path class="cubies_twaalf" d="M20.5,19c0.276,0,0.5,0.224,0.5,0.5S20.776,20,20.5,20S20,19.776,20,19.5S20.224,19,20.5,19z
		 M10,19.5c0,0.276,0.224,0.5,0.5,0.5s0.5-0.224,0.5-0.5S10.776,19,10.5,19S10,19.224,10,19.5z"/>
	<path class="cubies_tien" d="M30,16h-8c-1.657,0-3-1.343-3-3V8h2V3c0-1.657,1.343-3,3-3h3c1.657,0,3,1.343,3,3V16z M8.658,25.974
		l3-1C11.862,24.906,12,24.715,12,24.5s-0.138-0.406-0.342-0.474l-3-1c-0.261-0.085-0.544,0.054-0.633,0.316
		c-0.087,0.262,0.055,0.545,0.316,0.632L9.919,24.5l-1.577,0.526c-0.262,0.087-0.403,0.37-0.316,0.632C8.096,25.868,8.291,26,8.5,26
		C8.553,26,8.605,25.992,8.658,25.974z M21.975,25.658c0.087-0.262-0.055-0.545-0.316-0.632L20.081,24.5l1.577-0.526
		c0.262-0.087,0.403-0.37,0.316-0.632c-0.088-0.262-0.37-0.402-0.633-0.316l-3,1C18.138,24.094,18,24.285,18,24.5
		s0.138,0.406,0.342,0.474l3,1C21.395,25.992,21.447,26,21.5,26C21.709,26,21.904,25.868,21.975,25.658z M6,25c0-1.657-1.343-3-3-3
		H0v7c0,1.657,1.343,3,3,3h3V25z"/>
	<path class="cubies_tweeentwintig" d="M15,23c1.105,0,2-0.105,2,1s-2,2-2,2s-2-0.895-2-2S13.895,23,15,23z M27,2h-3
		c-0.552,0-1,0.448-1,1v4c0,0.552,0.448,1,1,1h3c0.552,0,1-0.448,1-1V3C28,2.448,27.552,2,27,2z M6,2H3C2.448,2,2,2.448,2,3v4
		c0,0.552,0.448,1,1,1h3c0.552,0,1-0.448,1-1V3C7,2.448,6.552,2,6,2z"/>
	<path class="cubies_negen" d="M29,0h-2c1.657,0,3,1.343,3,3v13h2V3C32,1.343,30.657,0,29,0z"/>
</g>
</svg>