<?xml version="1.0" encoding="utf-8"?>
<svg version="1.1" xmlns="http://www.w3.org/2000/svg" xmlns:xlink="http://www.w3.org/1999/xlink" 
	 width="800px" height="800px" viewBox="0 0 32 32" xml:space="preserve">
<style type="text/css">
	.cubies_negentien{fill:#F2C99E;}
	.cubies_acht{fill:#8E7866;}
	.cubies_zeven{fill:#725A48;}
	.cubies_achtien{fill:#EDB57E;}
	.st0{fill:#F9E0BD;}
	.st1{fill:#65C3AB;}
	.st2{fill:#D97360;}
	.st3{fill:#725A48;}
	.st4{fill:#98D3BC;}
	.st5{fill:#C9483A;}
	.st6{fill:#CCE2CD;}
	.st7{fill:#EC9B5A;}
	.st8{fill:#4C4842;}
	.st9{fill:#67625D;}
	.st10{fill:#FFF2DF;}
	.st11{fill:#C9C6C0;}
	.st12{fill:#EDEAE5;}
	.st13{fill:#A4C83F;}
	.st14{fill:#BCD269;}
	.st15{fill:#D1DE8B;}
	.st16{fill:#E69D8A;}
	.st17{fill:#E3D4C0;}
	.st18{fill:#C6B5A2;}
	.st19{fill:#837F79;}
	.st20{fill:#A5A29C;}
	.st21{fill:#2EB39A;}
	.st22{fill:#AB9784;}
</style>
<g>
	<path class="cubies_zeven" d="M29,32H3c-1.657,0-3-1.343-3-3V9c0-1.657,1.343-3,3-3h26c1.657,0,3,1.343,3,3v20
		C32,30.657,30.657,32,29,32z"/>
	<path class="cubies_acht" d="M27,32H3c-1.657,0-3-1.343-3-3V9c0-1.657,1.343-3,3-3h24c1.657,0,3,1.343,3,3v20
		C30,30.657,28.657,32,27,32z"/>
	<path class="cubies_achtien" d="M20,0h-8c-1.657,0-3,1.343-3,3v3h5V4c0-0.552,0.448-1,1-1h2c0.552,0,1,0.448,1,1v2h5V3
		C23,1.343,21.657,0,20,0z"/>
	<path class="cubies_negentien" d="M21,3v3h-3V4c0-0.552-0.448-1-1-1h-4c-0.552,0-1,0.448-1,1v2H9V3c0-1.657,1.343-3,3-3h6
		C19.657,0,21,1.343,21,3z M8,10V6c0-0.552-0.448-1-1-1H5C4.448,5,4,5.448,4,6v4c0,0.552,0.448,1,1,1h2C7.552,11,8,10.552,8,10z
		 M28,10V6c0-0.552-0.448-1-1-1h-2c-0.552,0-1,0.448-1,1v4c0,0.552,0.448,1,1,1h2C27.552,11,28,10.552,28,10z"/>
</g>
</svg>