<?xml version="1.0" encoding="utf-8"?>
<svg version="1.1" xmlns="http://www.w3.org/2000/svg" xmlns:xlink="http://www.w3.org/1999/xlink" 
	 width="800px" height="800px" viewBox="0 0 32 32" xml:space="preserve">
<style type="text/css">
	.cubies_vijftien{fill:#D1DE8B;}
	.cubies_dertien{fill:#A4C83F;}
	.cubies_veertien{fill:#BCD269;}
	.st0{fill:#F2C99E;}
	.st1{fill:#F9E0BD;}
	.st2{fill:#65C3AB;}
	.st3{fill:#725A48;}
	.st4{fill:#8E7866;}
	.st5{fill:#D97360;}
	.st6{fill:#98D3BC;}
	.st7{fill:#C9483A;}
	.st8{fill:#CCE2CD;}
	.st9{fill:#EDB57E;}
	.st10{fill:#EC9B5A;}
	.st11{fill:#4C4842;}
	.st12{fill:#67625D;}
	.st13{fill:#FFF2DF;}
	.st14{fill:#C9C6C0;}
	.st15{fill:#EDEAE5;}
	.st16{fill:#E69D8A;}
	.st17{fill:#E3D4C0;}
	.st18{fill:#C6B5A2;}
	.st19{fill:#837F79;}
	.st20{fill:#A5A29C;}
	.st21{fill:#2EB39A;}
	.st22{fill:#AB9784;}
</style>
<g>
	<path class="cubies_dertien" d="M29,32H3c-1.657,0-3-1.343-3-3V3c0-1.657,1.343-3,3-3h26c1.657,0,3,1.343,3,3v26
		C32,30.657,30.657,32,29,32z"/>
	<path class="cubies_veertien" d="M27,32H3c-1.657,0-3-1.343-3-3V3c0-1.657,1.343-3,3-3h24c1.657,0,3,1.343,3,3v26
		C30,30.657,28.657,32,27,32z"/>
	<ellipse class="cubies_dertien" cx="15" cy="16" rx="6" ry="7"/>
	<path class="cubies_vijftien" d="M6,4c0,1.105-0.895,2-2,2S2,5.105,2,4s0.895-2,2-2S6,2.895,6,4z M26,26c-1.105,0-2,0.895-2,2
		s0.895,2,2,2s2-0.895,2-2S27.105,26,26,26z M15,11c-1.657,0-3,1.343-3,3s1.343,3,3,3s3-1.343,3-3S16.657,11,15,11z M19,21
		c0-1.657-1.343-3-3-3h-2c-1.657,0-3,1.343-3,3v0.207C12.062,22.318,13.461,23,15,23c1.539,0,2.938-0.682,4-1.793V21z"/>
</g>
</svg>