<?xml version="1.0" encoding="utf-8"?>
<svg version="1.1" xmlns="http://www.w3.org/2000/svg" xmlns:xlink="http://www.w3.org/1999/xlink" 
	 width="800px" height="800px" viewBox="0 0 32 32" xml:space="preserve">
<style type="text/css">
	.cubies_eenentwintig{fill:#C9483A;}
	.cubies_tweeentwintig{fill:#D97360;}
	.cubies_drieentwintig{fill:#E69D8A;}
	.cubies_dertien{fill:#A4C83F;}
	.cubies_veertien{fill:#BCD269;}
	.st0{fill:#2EB39A;}
	.st1{fill:#65C3AB;}
	.st2{fill:#CCE2CD;}
	.st3{fill:#98D3BC;}
	.st4{fill:#BCD269;}
	.st5{fill:#E8E8B5;}
	.st6{fill:#D1DE8B;}
	.st7{fill:#F2C99E;}
	.st8{fill:#F9E0BD;}
	.st9{fill:#4C4842;}
	.st10{fill:#67625D;}
	.st11{fill:#FFF2DF;}
	.st12{fill:#837F79;}
	.st13{fill:#C9C6C0;}
	.st14{fill:#EDEAE5;}
	.st15{fill:#EC9B5A;}
	.st16{fill:#EDB57E;}
	.st17{fill:#E3D4C0;}
	.st18{fill:#AB9784;}
	.st19{fill:#C6B5A2;}
	.st20{fill:#F2C7B5;}
	.st21{fill:#8E7866;}
	.st22{fill:#725A48;}
</style>
<g>
	<path class="cubies_eenentwintig" d="M27.555,6.37c-0.336-0.224-0.773-0.224-1.109,0l-1.891,1.26c-0.336,0.224-0.773,0.224-1.109,0
		l-1.891-1.26c-0.336-0.224-0.773-0.224-1.109,0l-1.891,1.26c-0.336,0.224-0.773,0.224-1.109,0l-1.891-1.26
		c-0.336-0.224-0.773-0.224-1.109,0l-1.891,1.26c-0.336,0.224-0.773,0.224-1.109,0L9.555,6.37c-0.336-0.224-0.773-0.224-1.109,0
		L6.555,7.63c-0.336,0.224-0.773,0.224-1.109,0L3.555,6.37c-0.336-0.224-0.773-0.224-1.109,0L0,8v21c0,1.657,1.343,3,3,3h26
		c1.657,0,3-1.343,3-3V8h-2L27.555,6.37z"/>
	<path class="cubies_dertien" d="M29,0L3,0C1.343,0,0,1.343,0,3l0,5l2.445-1.63c0.336-0.224,0.774-0.224,1.109,0l1.891,1.26
		c0.336,0.224,0.774,0.224,1.109,0l1.891-1.26c0.336-0.224,0.774-0.224,1.109,0l1.891,1.26c0.336,0.224,0.774,0.224,1.109,0
		l1.891-1.26c0.336-0.224,0.774-0.224,1.109,0l1.891,1.26c0.336,0.224,0.774,0.224,1.109,0l1.891-1.26
		c0.336-0.224,0.774-0.224,1.109,0l1.891,1.26c0.336,0.224,0.774,0.224,1.109,0l1.891-1.26c0.336-0.224,0.774-0.224,1.109,0L30,8h2
		V3C32,1.343,30.657,0,29,0z"/>
	<path class="cubies_veertien" d="M27,0L3,0C1.343,0,0,1.343,0,3l0,5l2.445-1.63c0.336-0.224,0.774-0.224,1.109,0l1.891,1.26
		c0.336,0.224,0.774,0.224,1.109,0l1.891-1.26c0.336-0.224,0.774-0.224,1.109,0l1.891,1.26c0.336,0.224,0.774,0.224,1.109,0
		l1.891-1.26c0.336-0.224,0.774-0.224,1.109,0l1.891,1.26c0.336,0.224,0.774,0.224,1.109,0l1.891-1.26
		c0.336-0.224,0.774-0.224,1.109,0l1.891,1.26c0.336,0.224,0.774,0.224,1.109,0l1.891-1.26c0.336-0.224,0.774-0.224,1.109,0L30,8V3
		C30,1.343,28.657,0,27,0z"/>
	<path class="cubies_tweeentwintig" d="M26.445,6.37l-1.891,1.26c-0.336,0.224-0.773,0.224-1.109,0l-1.891-1.26
		c-0.336-0.224-0.773-0.224-1.109,0l-1.891,1.26c-0.336,0.224-0.773,0.224-1.109,0l-1.891-1.26c-0.336-0.224-0.773-0.224-1.109,0
		l-1.891,1.26c-0.336,0.224-0.773,0.224-1.109,0L9.555,6.37c-0.336-0.224-0.773-0.224-1.109,0L6.555,7.63
		c-0.336,0.224-0.773,0.224-1.109,0L3.555,6.37c-0.336-0.224-0.773-0.224-1.109,0L0,8v21c0,1.657,1.343,3,3,3h24
		c1.657,0,3-1.343,3-3V8l-2.445-1.63C27.219,6.146,26.781,6.146,26.445,6.37z"/>
	<path class="cubies_drieentwintig" d="M12,15v1c0,0.552-0.448,1-1,1s-1-0.448-1-1v-1c0-0.552,0.448-1,1-1S12,14.448,12,15z M11,22
		c-0.552,0-1,0.448-1,1v1c0,0.552,0.448,1,1,1s1-0.448,1-1v-1C12,22.448,11.552,22,11,22z M7,10c-0.552,0-1,0.448-1,1v1
		c0,0.552,0.448,1,1,1s1-0.448,1-1v-1C8,10.448,7.552,10,7,10z M7,26c-0.552,0-1,0.448-1,1v1c0,0.552,0.448,1,1,1s1-0.448,1-1v-1
		C8,26.448,7.552,26,7,26z M3,22c-0.552,0-1,0.448-1,1v1c0,0.552,0.448,1,1,1s1-0.448,1-1v-1C4,22.448,3.552,22,3,22z M7,18
		c-0.552,0-1,0.448-1,1v1c0,0.552,0.448,1,1,1s1-0.448,1-1v-1C8,18.448,7.552,18,7,18z M3,14c-0.552,0-1,0.448-1,1v1
		c0,0.552,0.448,1,1,1s1-0.448,1-1v-1C4,14.448,3.552,14,3,14z M15,18c-0.552,0-1,0.448-1,1v1c0,0.552,0.448,1,1,1s1-0.448,1-1v-1
		C16,18.448,15.552,18,15,18z M15,26c-0.552,0-1,0.448-1,1v1c0,0.552,0.448,1,1,1s1-0.448,1-1v-1C16,26.448,15.552,26,15,26z M23,10
		c-0.552,0-1,0.448-1,1v1c0,0.552,0.448,1,1,1s1-0.448,1-1v-1C24,10.448,23.552,10,23,10z M23,18c-0.552,0-1,0.448-1,1v1
		c0,0.552,0.448,1,1,1s1-0.448,1-1v-1C24,18.448,23.552,18,23,18z M27,22c-0.552,0-1,0.448-1,1v1c0,0.552,0.448,1,1,1s1-0.448,1-1
		v-1C28,22.448,27.552,22,27,22z M27,14c-0.552,0-1,0.448-1,1v1c0,0.552,0.448,1,1,1s1-0.448,1-1v-1C28,14.448,27.552,14,27,14z
		 M23,26c-0.552,0-1,0.448-1,1v1c0,0.552,0.448,1,1,1s1-0.448,1-1v-1C24,26.448,23.552,26,23,26z M19,22c-0.552,0-1,0.448-1,1v1
		c0,0.552,0.448,1,1,1s1-0.448,1-1v-1C20,22.448,19.552,22,19,22z M19,14c-0.552,0-1,0.448-1,1v1c0,0.552,0.448,1,1,1s1-0.448,1-1
		v-1C20,14.448,19.552,14,19,14z M15,10c-0.552,0-1,0.448-1,1v1c0,0.552,0.448,1,1,1s1-0.448,1-1v-1C16,10.448,15.552,10,15,10z"/>
</g>
</svg>