<?xml version="1.0" encoding="utf-8"?>
<svg version="1.1" xmlns="http://www.w3.org/2000/svg" xmlns:xlink="http://www.w3.org/1999/xlink" 
	 width="800px" height="800px" viewBox="0 0 32 32" xml:space="preserve">
<style type="text/css">
	.cubies_negentien{fill:#F2C99E;}
	.cubies_twintig{fill:#F9E0BD;}
	.cubies_een{fill:#4C4842;}
	.cubies_twee{fill:#67625D;}
	.cubies_twaalf{fill:#FFF2DF;}
	.st0{fill:#2EB39A;}
	.st1{fill:#65C3AB;}
	.st2{fill:#CCE2CD;}
	.st3{fill:#98D3BC;}
	.st4{fill:#A4C83F;}
	.st5{fill:#BCD269;}
	.st6{fill:#E8E8B5;}
	.st7{fill:#D1DE8B;}
	.st8{fill:#C9483A;}
	.st9{fill:#D97360;}
	.st10{fill:#837F79;}
	.st11{fill:#67625D;}
	.st12{fill:#C9C6C0;}
	.st13{fill:#EDEAE5;}
	.st14{fill:#EC9B5A;}
	.st15{fill:#EDB57E;}
	.st16{fill:#4C4842;}
	.st17{fill:#E3D4C0;}
	.st18{fill:#E69D8A;}
	.st19{fill:#AB9784;}
	.st20{fill:#C6B5A2;}
	.st21{fill:#F9E0BD;}
	.st22{fill:#F2C7B5;}
	.st23{fill:#8E7866;}
	.st24{fill:#725A48;}
</style>
<g>
	<path class="cubies_negentien" d="M29,32H3c-1.657,0-3-1.343-3-3V14h32v15C32,30.657,30.657,32,29,32z"/>
	<path class="cubies_twintig" d="M27,32H3c-1.657,0-3-1.343-3-3V14h30v15C30,30.657,28.657,32,27,32z"/>
	<circle class="cubies_een" cx="10" cy="20" r="2"/>
	<path class="cubies_een" d="M32,14H0V3c0-1.657,1.343-3,3-3h26c1.657,0,3,1.343,3,3V14z"/>
	<path class="cubies_twee" d="M30,14H0V3c0-1.657,1.343-3,3-3h24c1.657,0,3,1.343,3,3V14z M17,28c0-0.552-0.448-1-1-1h-2
		c-0.552,0-1,0.448-1,1s0.448,1,1,1h2C16.552,29,17,28.552,17,28z M0,16v1h17v4c0,1.657,1.343,3,3,3h2c1.657,0,3-1.343,3-3v-4h5v-1
		H0z"/>
	<rect x="30" y="16" class="cubies_een" width="2" height="1"/>
	<path class="cubies_twaalf" d="M10.5,19c0.276,0,0.5,0.224,0.5,0.5S10.776,20,10.5,20S10,19.776,10,19.5S10.224,19,10.5,19z
		 M18.645,11.021l-1.924-0.584l1.924-0.584c0.265-0.08,0.414-0.359,0.333-0.624c-0.08-0.264-0.358-0.415-0.624-0.333L15,9.915
		l-3.355-1.018c-0.264-0.081-0.543,0.07-0.624,0.333c-0.08,0.264,0.069,0.543,0.333,0.624l1.924,0.584l-1.924,0.584
		c-0.265,0.08-0.414,0.359-0.333,0.624C11.087,11.861,11.285,12,11.5,12c0.048,0,0.097-0.007,0.145-0.021L15,10.96l3.355,1.018
		C18.403,11.993,18.452,12,18.5,12c0.215,0,0.413-0.139,0.479-0.355C19.059,11.381,18.91,11.102,18.645,11.021z M17,5v2
		c0,0.552-0.448,1-1,1c0,0.552-0.448,1-1,1s-1-0.448-1-1c-0.552,0-1-0.448-1-1V5c0-0.552,0.448-1,1-1h2C16.552,4,17,4.448,17,5z"/>
</g>
</svg>