<?xml version="1.0" encoding="utf-8"?>
<svg version="1.1" xmlns="http://www.w3.org/2000/svg" xmlns:xlink="http://www.w3.org/1999/xlink" 
	 width="800px" height="800px" viewBox="0 0 32 32" xml:space="preserve">
<style type="text/css">
	.cubies_twee{fill:#67625D;}
	.cubies_een{fill:#4C4842;}
	.cubies_vijf{fill:#C9C6C0;}
	.cubies_zes{fill:#EDEAE5;}
	.st0{fill:#F2C99E;}
	.st1{fill:#F9E0BD;}
	.st2{fill:#65C3AB;}
	.st3{fill:#725A48;}
	.st4{fill:#8E7866;}
	.st5{fill:#D97360;}
	.st6{fill:#98D3BC;}
	.st7{fill:#C9483A;}
	.st8{fill:#CCE2CD;}
	.st9{fill:#EDB57E;}
	.st10{fill:#EC9B5A;}
	.st11{fill:#FFF2DF;}
	.st12{fill:#A4C83F;}
	.st13{fill:#BCD269;}
	.st14{fill:#D1DE8B;}
	.st15{fill:#E69D8A;}
	.st16{fill:#E3D4C0;}
	.st17{fill:#C6B5A2;}
	.st18{fill:#837F79;}
	.st19{fill:#A5A29C;}
	.st20{fill:#2EB39A;}
	.st21{fill:#AB9784;}
</style>
<g>
	<path class="cubies_vijf" d="M29,32H3c-1.657,0-3-1.343-3-3V3c0-1.657,1.343-3,3-3h26c1.657,0,3,1.343,3,3v26
		C32,30.657,30.657,32,29,32z"/>
	<path class="cubies_zes" d="M27,32H3c-1.657,0-3-1.343-3-3V3c0-1.657,1.343-3,3-3h24c1.657,0,3,1.343,3,3v26
		C30,30.657,28.657,32,27,32z"/>
	<path class="cubies_vijf" d="M20,32h-1V20h1V32z M6,20H5v12h1V20z M13,20h-1v12h1V20z M26,0h-1v32h1V0z"/>
	<path class="cubies_een" d="M17,19V0h5v19c0,0.552-0.448,1-1,1h-3C17.448,20,17,19.552,17,19z M4,20h3c0.552,0,1-0.448,1-1V0H3v19
		C3,19.552,3.448,20,4,20z M11,20h3c0.552,0,1-0.448,1-1V0h-5v19C10,19.552,10.448,20,11,20z"/>
	<path class="cubies_twee" d="M20,20h-2c-0.552,0-1-0.448-1-1V0h4v19C21,19.552,20.552,20,20,20z M7,19V0H3v19c0,0.552,0.448,1,1,1
		h2C6.552,20,7,19.552,7,19z M14,19V0h-4v19c0,0.552,0.448,1,1,1h2C13.552,20,14,19.552,14,19z"/>
</g>
</svg>