<?xml version="1.0" encoding="utf-8"?>
<svg version="1.1" xmlns="http://www.w3.org/2000/svg" xmlns:xlink="http://www.w3.org/1999/xlink" 
	 width="800px" height="800px" viewBox="0 0 32 32" xml:space="preserve">
<style type="text/css">
	.cubies_twintig{fill:#F9E0BD;}
	.cubies_achtien{fill:#EDB57E;}
	.cubies_zeventien{fill:#EC9B5A;}
	.st0{fill:#F2C99E;}
	.st1{fill:#65C3AB;}
	.st2{fill:#725A48;}
	.st3{fill:#8E7866;}
	.st4{fill:#D97360;}
	.st5{fill:#98D3BC;}
	.st6{fill:#C9483A;}
	.st7{fill:#CCE2CD;}
	.st8{fill:#4C4842;}
	.st9{fill:#67625D;}
	.st10{fill:#FFF2DF;}
	.st11{fill:#C9C6C0;}
	.st12{fill:#EDEAE5;}
	.st13{fill:#A4C83F;}
	.st14{fill:#BCD269;}
	.st15{fill:#D1DE8B;}
	.st16{fill:#E69D8A;}
	.st17{fill:#E3D4C0;}
	.st18{fill:#C6B5A2;}
	.st19{fill:#837F79;}
	.st20{fill:#A5A29C;}
	.st21{fill:#2EB39A;}
	.st22{fill:#AB9784;}
</style>
<g>
	<path class="cubies_zeventien" d="M29,32H3c-1.657,0-3-1.343-3-3V3c0-1.657,1.343-3,3-3h26c1.657,0,3,1.343,3,3v26
		C32,30.657,30.657,32,29,32z"/>
	<path class="cubies_achtien" d="M27,32H3c-1.657,0-3-1.343-3-3V3c0-1.657,1.343-3,3-3h24c1.657,0,3,1.343,3,3v26
		C30,30.657,28.657,32,27,32z"/>
	<path class="cubies_twintig" d="M25,29H5c-1.105,0-2-0.895-2-2V5c0-1.105,0.895-2,2-2h20c1.105,0,2,0.895,2,2v22
		C27,28.105,26.105,29,25,29z"/>
	<path class="cubies_zeventien" d="M14.076,12.463l-3.127-7.55C10.769,4.478,11.088,4,11.558,4h6.883c0.47,0,0.79,0.478,0.61,0.913
		l-3.127,7.55C15.583,13.286,14.417,13.286,14.076,12.463z M13.152,12.846L9.744,4.617C9.589,4.244,9.225,4,8.82,4H5
		C4.448,4,4,4.448,4,5v5.234c0,0.404,0.244,0.769,0.617,0.924l7.228,2.994C12.669,14.493,13.493,13.669,13.152,12.846z
		 M25.087,12.363l-6.55,2.713c-0.823,0.341-0.823,1.507,0,1.848l6.55,2.713c0.435,0.18,0.913-0.139,0.913-0.61v-6.055
		C26,12.502,25.522,12.183,25.087,12.363z M18.154,14.152l7.228-2.994C25.756,11.003,26,10.639,26,10.234V5c0-0.552-0.448-1-1-1
		h-3.82c-0.404,0-0.769,0.244-0.924,0.617l-3.408,8.228C16.507,13.669,17.331,14.493,18.154,14.152z M11.463,15.076l-6.55-2.713
		C4.478,12.183,4,12.502,4,12.973v6.055c0,0.47,0.478,0.79,0.913,0.61l6.55-2.713C12.286,16.583,12.286,15.417,11.463,15.076z
		 M16.848,19.154l3.408,8.228C20.411,27.756,20.775,28,21.18,28H25c0.552,0,1-0.448,1-1v-5.234c0-0.404-0.244-0.769-0.617-0.924
		l-7.228-2.994C17.331,17.507,16.507,18.331,16.848,19.154z M14.076,19.537l-3.127,7.55C10.769,27.522,11.088,28,11.559,28h6.883
		c0.47,0,0.79-0.478,0.61-0.913l-3.127-7.55C15.583,18.714,14.417,18.714,14.076,19.537z M11.846,17.848l-7.228,2.994
		C4.244,20.997,4,21.361,4,21.766V27c0,0.552,0.448,1,1,1h3.82c0.404,0,0.769-0.244,0.924-0.617l3.408-8.228
		C13.493,18.331,12.669,17.507,11.846,17.848z"/>
</g>
</svg>