<?xml version="1.0" encoding="utf-8"?>
<svg version="1.1" xmlns="http://www.w3.org/2000/svg" xmlns:xlink="http://www.w3.org/1999/xlink" 
	 width="800px" height="800px" viewBox="0 0 32 32" xml:space="preserve">
<style type="text/css">
	.cubies_negentien{fill:#F2C99E;}
	.cubies_twintig{fill:#F9E0BD;}
	.cubies_zesentwintig{fill:#65C3AB;}
	.cubies_zevenentwintig{fill:#98D3BC;}
	.st0{fill:#725A48;}
	.st1{fill:#8E7866;}
	.st2{fill:#D97360;}
	.st3{fill:#C9483A;}
	.st4{fill:#CCE2CD;}
	.st5{fill:#EDB57E;}
	.st6{fill:#EC9B5A;}
	.st7{fill:#4C4842;}
	.st8{fill:#67625D;}
	.st9{fill:#FFF2DF;}
	.st10{fill:#C9C6C0;}
	.st11{fill:#EDEAE5;}
	.st12{fill:#A4C83F;}
	.st13{fill:#BCD269;}
	.st14{fill:#D1DE8B;}
	.st15{fill:#E69D8A;}
	.st16{fill:#E3D4C0;}
	.st17{fill:#C6B5A2;}
	.st18{fill:#837F79;}
	.st19{fill:#A5A29C;}
	.st20{fill:#2EB39A;}
	.st21{fill:#AB9784;}
</style>
<g>
	<path class="cubies_negentien" d="M32,20H0V3c0-1.657,1.343-3,3-3h26c1.657,0,3,1.343,3,3V20z"/>
	<path class="cubies_twintig" d="M30,20H0V3c0-1.657,1.343-3,3-3h24c1.657,0,3,1.343,3,3V20z"/>
	<path class="cubies_zesentwintig" d="M0,20v7c0,1.657,1.343,3,3,3h9v1c0,0.552,0.448,1,1,1h6c0.552,0,1-0.448,1-1v-1h9
		c1.657,0,3-1.343,3-3v-7H0z"/>
	<path class="cubies_zevenentwintig" d="M0,20v7c0,1.657,1.343,3,3,3h9v1c0,0.552,0.448,1,1,1h4c0.552,0,1-0.448,1-1v-1h9
		c1.657,0,3-1.343,3-3v-7H0z"/>
	<path class="cubies_negentien" d="M16,10v3c0,0.552-0.448,1-1,1s-1-0.448-1-1v-3c0-0.552,0.448-1,1-1S16,9.448,16,10z M9,9
		c-0.552,0-1,0.448-1,1v10h2V10C10,9.448,9.552,9,9,9z M12,9c-0.552,0-1,0.448-1,1v3c0,0.552,0.448,1,1,1s1-0.448,1-1v-3
		C13,9.448,12.552,9,12,9z M21,9c-0.552,0-1,0.448-1,1v10h2V10C22,9.448,21.552,9,21,9z M18,9c-0.552,0-1,0.448-1,1v3
		c0,0.552,0.448,1,1,1s1-0.448,1-1v-3C19,9.448,18.552,9,18,9z"/>
</g>
</svg>