<?xml version="1.0" encoding="utf-8"?>
<svg version="1.1" xmlns="http://www.w3.org/2000/svg" xmlns:xlink="http://www.w3.org/1999/xlink" 
	 width="800px" height="800px" viewBox="0 0 32 32" xml:space="preserve">
<style type="text/css">
	.cubies_twee{fill:#67625D;}
	.cubies_vijf{fill:#C9C6C0;}
	.cubies_zes{fill:#EDEAE5;}
	.st0{fill:#2EB39A;}
	.st1{fill:#65C3AB;}
	.st2{fill:#CCE2CD;}
	.st3{fill:#98D3BC;}
	.st4{fill:#A4C83F;}
	.st5{fill:#BCD269;}
	.st6{fill:#E8E8B5;}
	.st7{fill:#D1DE8B;}
	.st8{fill:#F2C99E;}
	.st9{fill:#C9483A;}
	.st10{fill:#D97360;}
	.st11{fill:#F9E0BD;}
	.st12{fill:#4C4842;}
	.st13{fill:#FFF2DF;}
	.st14{fill:#837F79;}
	.st15{fill:#67625D;}
	.st16{fill:#EC9B5A;}
	.st17{fill:#EDB57E;}
	.st18{fill:#E3D4C0;}
	.st19{fill:#E69D8A;}
	.st20{fill:#AB9784;}
	.st21{fill:#C6B5A2;}
	.st22{fill:#F2C7B5;}
	.st23{fill:#8E7866;}
	.st24{fill:#725A48;}
</style>
<g>
	<path class="cubies_vijf" d="M29,32H3c-1.657,0-3-1.343-3-3V3c0-1.657,1.343-3,3-3h26c1.657,0,3,1.343,3,3v26
		C32,30.657,30.657,32,29,32z"/>
	<path class="cubies_zes" d="M27,32H3c-1.657,0-3-1.343-3-3V3c0-1.657,1.343-3,3-3h24c1.657,0,3,1.343,3,3v26
		C30,30.657,28.657,32,27,32z"/>
	<path class="cubies_twee" d="M10,25c0,1.657-1.343,3-3,3s-3-1.343-3-3s1.343-3,3-3S10,23.343,10,25z M23,4c-1.657,0-3,1.343-3,3
		s1.343,3,3,3s3-1.343,3-3S24.657,4,23,4z M15,13c-1.657,0-3,1.343-3,3s1.343,3,3,3s3-1.343,3-3S16.657,13,15,13z"/>
	<path class="cubies_vijf" d="M7.5,27.95C7.337,27.977,7.171,28,7,28c-1.657,0-3-1.343-3-3s1.343-3,3-3
		c0.171,0,0.337,0.023,0.5,0.05C6.082,22.29,5,23.514,5,25S6.082,27.71,7.5,27.95z M21,7c0-1.486,1.082-2.71,2.5-2.95
		C23.337,4.023,23.171,4,23,4c-1.657,0-3,1.343-3,3s1.343,3,3,3c0.171,0,0.337-0.023,0.5-0.05C22.082,9.71,21,8.486,21,7z M13,16
		c0-1.486,1.082-2.71,2.5-2.95C15.337,13.023,15.171,13,15,13c-1.657,0-3,1.343-3,3s1.343,3,3,3c0.171,0,0.337-0.023,0.5-0.05
		C14.082,18.71,13,17.486,13,16z"/>
</g>
</svg>