<?xml version="1.0" encoding="utf-8"?>
<svg version="1.1" xmlns="http://www.w3.org/2000/svg" xmlns:xlink="http://www.w3.org/1999/xlink" 
	 width="800px" height="800px" viewBox="0 0 32 32" xml:space="preserve">
<style type="text/css">
	.cubies_een{fill:#4C4842;}
	.cubies_twaalf{fill:#FFF2DF;}
	.cubies_vijf{fill:#C9C6C0;}
	.cubies_zes{fill:#EDEAE5;}
	.cubies_dertien{fill:#A4C83F;}
	.st0{fill:#F2C99E;}
	.st1{fill:#F9E0BD;}
	.st2{fill:#65C3AB;}
	.st3{fill:#725A48;}
	.st4{fill:#8E7866;}
	.st5{fill:#D97360;}
	.st6{fill:#98D3BC;}
	.st7{fill:#C9483A;}
	.st8{fill:#CCE2CD;}
	.st9{fill:#EDB57E;}
	.st10{fill:#EC9B5A;}
	.st11{fill:#67625D;}
	.st12{fill:#BCD269;}
	.st13{fill:#D1DE8B;}
	.st14{fill:#E69D8A;}
	.st15{fill:#E3D4C0;}
	.st16{fill:#C6B5A2;}
	.st17{fill:#837F79;}
	.st18{fill:#A5A29C;}
	.st19{fill:#2EB39A;}
	.st20{fill:#AB9784;}
</style>
<g>
	<path class="cubies_vijf" d="M29,32H3c-1.657,0-3-1.343-3-3V3c0-1.657,1.343-3,3-3h26c1.657,0,3,1.343,3,3v26
		C32,30.657,30.657,32,29,32z"/>
	<path class="cubies_zes" d="M27,32H3c-1.657,0-3-1.343-3-3V3c0-1.657,1.343-3,3-3h24c1.657,0,3,1.343,3,3v26
		C30,30.657,28.657,32,27,32z"/>
	<circle class="cubies_dertien" cx="15" cy="16" r="11"/>
	<circle class="cubies_een" cx="15" cy="16" r="5"/>
	<circle class="cubies_twaalf" cx="11" cy="13" r="2"/>
</g>
</svg>