<?xml version="1.0" encoding="utf-8"?>
<svg version="1.1" xmlns="http://www.w3.org/2000/svg" xmlns:xlink="http://www.w3.org/1999/xlink" 
	 width="800px" height="800px" viewBox="0 0 32 32" xml:space="preserve">
<style type="text/css">
	.cubies_twintig{fill:#F9E0BD;}
	.cubies_negentien{fill:#F2C99E;}
	.cubies_zeventien{fill:#EC9B5A;}
	.cubies_achtien{fill:#EDB57E;}
	.st0{fill:#C9483A;}
	.st1{fill:#D97360;}
	.st2{fill:#65C3AB;}
	.st3{fill:#98D3BC;}
	.st4{fill:#E3D4C0;}
	.st5{fill:#FFF2DF;}
	.st6{fill:#CCE2CD;}
	.st7{fill:#4C4842;}
	.st8{fill:#67625D;}
	.st9{fill:#EDEAE5;}
	.st10{fill:#C9C6C0;}
	.st11{fill:#BCD269;}
	.st12{fill:#A4C83F;}
	.st13{fill:#837F79;}
	.st14{fill:#2EB39A;}
	.st15{fill:#725A48;}
	.st16{fill:#8E7866;}
	.st17{fill:#E69D8A;}
	.st18{fill:#EC9B5A;}
	.st19{fill:#A5A29C;}
	.st20{fill:#D1DE8B;}
	.st21{fill:#E8E8B5;}
</style>
<g>
	<path class="cubies_zeventien" d="M30,18H2V3c0-1.657,1.343-3,3-3h22c1.657,0,3,1.343,3,3V18z"/>
	<path class="cubies_achtien" d="M28,18H2V3c0-1.657,1.343-3,3-3h20c1.657,0,3,1.343,3,3V18z"/>
	<path class="cubies_negentien" d="M29,32h-7V15c0-1.657,1.343-3,3-3h4c1.657,0,3,1.343,3,3v14C32,30.657,30.657,32,29,32z"/>
	<path class="cubies_twintig" d="M8,32H3c-1.657,0-3-1.343-3-3V15c0-1.657,1.343-3,3-3h2c1.657,0,3,1.343,3,3V32z M30,29V15
		c0-1.657-1.343-3-3-3h-2c-1.657,0-3,1.343-3,3v17h5C28.657,32,30,30.657,30,29z"/>
	<path class="cubies_negentien" d="M20,5c0,0.552-0.448,1-1,1s-1-0.448-1-1s0.448-1,1-1S20,4.448,20,5z M11,4c-0.552,0-1,0.448-1,1
		s0.448,1,1,1s1-0.448,1-1S11.552,4,11,4z M19,10c-0.552,0-1,0.448-1,1s0.448,1,1,1s1-0.448,1-1S19.552,10,19,10z M11,10
		c-0.552,0-1,0.448-1,1s0.448,1,1,1s1-0.448,1-1S11.552,10,11,10z M15,7c-0.552,0-1,0.448-1,1s0.448,1,1,1s1-0.448,1-1
		S15.552,7,15,7z M22,18H8v14h14V18z"/>
</g>
</svg>