<?xml version="1.0" encoding="utf-8"?>
<svg version="1.1" xmlns="http://www.w3.org/2000/svg" xmlns:xlink="http://www.w3.org/1999/xlink" 
	 width="800px" height="800px" viewBox="0 0 32 32" xml:space="preserve">
<style type="text/css">
	.cubies_negentien{fill:#F2C99E;}
	.cubies_twintig{fill:#F9E0BD;}
	.cubies_eenentwintig{fill:#C9483A;}
	.cubies_tweeentwintig{fill:#D97360;}
	.cubies_negen{fill:#AB9784;}
	.cubies_tien{fill:#C6B5A2;}
	.st0{fill:#2EB39A;}
	.st1{fill:#65C3AB;}
	.st2{fill:#CCE2CD;}
	.st3{fill:#98D3BC;}
	.st4{fill:#A4C83F;}
	.st5{fill:#BCD269;}
	.st6{fill:#D1DE8B;}
	.st7{fill:#E8E8B5;}
	.st8{fill:#4C4842;}
	.st9{fill:#67625D;}
	.st10{fill:#FFF2DF;}
	.st11{fill:#837F79;}
	.st12{fill:#C9C6C0;}
	.st13{fill:#EDEAE5;}
	.st14{fill:#EC9B5A;}
	.st15{fill:#EDB57E;}
	.st16{fill:#E3D4C0;}
	.st17{fill:#E69D8A;}
	.st18{fill:#F2C7B5;}
	.st19{fill:#8E7866;}
	.st20{fill:#725A48;}
</style>
<g>
	<path class="cubies_eenentwintig" d="M31,6H1C0.448,6,0,5.552,0,5V3c0-1.657,1.343-3,3-3h26c1.657,0,3,1.343,3,3v2
		C32,5.552,31.552,6,31,6z"/>
	<path class="cubies_negen" d="M29,32H3c-1.657,0-3-1.343-3-3V7c0-0.552,0.448-1,1-1h30c0.552,0,1,0.448,1,1v22
		C32,30.657,30.657,32,29,32z"/>
	<path class="cubies_tien" d="M27,32H3c-1.657,0-3-1.343-3-3V7c0-0.552,0.448-1,1-1h28c0.552,0,1,0.448,1,1v22
		C30,30.657,28.657,32,27,32z"/>
	<path class="cubies_twintig" d="M30,26H7c-0.552,0-1-0.448-1-1V12c0-0.552,0.448-1,1-1h23V26z"/>
	<rect x="30" y="11" class="cubies_negentien" width="2" height="15"/>
	<path class="cubies_eenentwintig" d="M30,22.5c0,0.276,0.224,0.5,0.5,0.5s0.5-0.224,0.5-0.5v-8c0-0.276-0.224-0.5-0.5-0.5
		S30,14.224,30,14.5V18v1V22.5z"/>
	<path class="cubies_tweeentwintig" d="M29,6H1C0.448,6,0,5.552,0,5V3c0-1.657,1.343-3,3-3h24c1.657,0,3,1.343,3,3v2
		C30,5.552,29.552,6,29,6z M11,21.5v-1c0-0.276-0.224-0.5-0.5-0.5S10,20.224,10,20.5v1c0,0.276-0.224,0.5-0.5,0.5S9,21.776,9,21.5
		v-6C9,15.224,9.224,15,9.5,15s0.5,0.224,0.5,0.5v1c0,0.276,0.224,0.5,0.5,0.5s0.5-0.224,0.5-0.5v-1c0-0.827-0.673-1.5-1.5-1.5
		S8,14.673,8,15.5v6C8,22.327,8.673,23,9.5,23S11,22.327,11,21.5z M25.5,23c-0.827,0-1.5-0.673-1.5-1.5v-6
		c0-0.827,0.673-1.5,1.5-1.5s1.5,0.673,1.5,1.5v1c0,0.276-0.224,0.5-0.5,0.5S26,16.776,26,16.5v-1c0-0.276-0.224-0.5-0.5-0.5
		S25,15.224,25,15.5v6c0,0.276,0.224,0.5,0.5,0.5s0.5-0.224,0.5-0.5v-1c0-0.276,0.224-0.5,0.5-0.5s0.5,0.224,0.5,0.5v1
		C27,22.327,26.327,23,25.5,23z M23,14.5v8c0,0.276-0.224,0.5-0.5,0.5S22,22.776,22,22.5v-3.882l-1-2V22.5
		c0,0.276-0.224,0.5-0.5,0.5S20,22.776,20,22.5v-8c0-0.232,0.159-0.433,0.385-0.487c0.228-0.053,0.458,0.056,0.562,0.263L22,16.382
		V14.5c0-0.276,0.224-0.5,0.5-0.5S23,14.224,23,14.5z M15,17.5v-2c0-0.827-0.673-1.5-1.5-1.5h-1c-0.276,0-0.5,0.224-0.5,0.5v8
		c0,0.276,0.224,0.5,0.5,0.5s0.5-0.224,0.5-0.5V19h0.11l0.905,3.621C14.072,22.848,14.276,23,14.5,23
		c0.04,0,0.081-0.005,0.122-0.015c0.268-0.067,0.431-0.338,0.364-0.606l-0.878-3.51C14.632,18.635,15,18.11,15,17.5z M13,18v-3h0.5
		c0.276,0,0.5,0.224,0.5,0.5v2c0,0.276-0.224,0.5-0.5,0.5H13z M17.5,23c-0.827,0-1.5-0.673-1.5-1.5v-7c0-0.276,0.224-0.5,0.5-0.5
		s0.5,0.224,0.5,0.5v7c0,0.276,0.224,0.5,0.5,0.5s0.5-0.224,0.5-0.5v-7c0-0.276,0.224-0.5,0.5-0.5s0.5,0.224,0.5,0.5v7
		C19,22.327,18.327,23,17.5,23z M30,19h-1v3.5c0,0.276-0.224,0.5-0.5,0.5S28,22.776,28,22.5v-8c0-0.276,0.224-0.5,0.5-0.5
		s0.5,0.224,0.5,0.5V18h1V19z"/>
</g>
</svg>