<?xml version="1.0" encoding="utf-8"?>
<svg version="1.1" xmlns="http://www.w3.org/2000/svg" xmlns:xlink="http://www.w3.org/1999/xlink" 
	 width="800px" height="800px" viewBox="0 0 32 32" xml:space="preserve">
<style type="text/css">
	.cubies_twaalf{fill:#FFF2DF;}
	.cubies_zevenentwintig{fill:#98D3BC;}
	.cubies_tweeentwintig{fill:#D97360;}
	.cubies_twintig{fill:#F9E0BD;}
	.st0{fill:#F2C99E;}
	.st1{fill:#C9483A;}
	.st2{fill:#65C3AB;}
	.st3{fill:#EDB57E;}
	.st4{fill:#E3D4C0;}
	.st5{fill:#CCE2CD;}
	.st6{fill:#4C4842;}
	.st7{fill:#67625D;}
	.st8{fill:#EDEAE5;}
	.st9{fill:#C9C6C0;}
	.st10{fill:#BCD269;}
	.st11{fill:#A4C83F;}
	.st12{fill:#837F79;}
	.st13{fill:#EC9B5A;}
	.st14{fill:#2EB39A;}
	.st15{fill:#725A48;}
	.st16{fill:#8E7866;}
	.st17{fill:#E69D8A;}
	.st18{fill:#A5A29C;}
	.st19{fill:#D1DE8B;}
	.st20{fill:#E8E8B5;}
</style>
<g>
	<path class="cubies_twintig" d="M32,6V3c0-1.657-1.343-3-3-3H3C1.343,0,0,1.343,0,3v3c0.552,0,1,0.448,1,1c0,0.552-0.448,1-1,1v4
		c0.552,0,1,0.448,1,1c0,0.552-0.448,1-1,1v4c0.552,0,1,0.448,1,1c0,0.552-0.448,1-1,1v4c0.552,0,1,0.448,1,1c0,0.552-0.448,1-1,1v3
		c0,1.657,1.343,3,3,3h26c1.657,0,3-1.343,3-3v-3c-0.552,0-1-0.448-1-1c0-0.552,0.448-1,1-1v-4c-0.552,0-1-0.448-1-1
		c0-0.552,0.448-1,1-1v-4c-0.552,0-1-0.448-1-1c0-0.552,0.448-1,1-1V8c-0.552,0-1-0.448-1-1C31,6.448,31.448,6,32,6z"/>
	<path class="cubies_twaalf" d="M29,25c0-0.552,0.448-1,1-1v-4c-0.552,0-1-0.448-1-1c0-0.552,0.448-1,1-1v-4c-0.552,0-1-0.448-1-1
		c0-0.552,0.448-1,1-1V8c-0.552,0-1-0.448-1-1c0-0.552,0.448-1,1-1V3c0-1.657-1.343-3-3-3h-2c0,0.552-0.448,1-1,1s-1-0.448-1-1h-4
		c0,0.552-0.448,1-1,1s-1-0.448-1-1h-4c0,0.552-0.448,1-1,1s-1-0.448-1-1H7c0,0.552-0.448,1-1,1S5,0.552,5,0H3C1.343,0,0,1.343,0,3
		v3c0.552,0,1,0.448,1,1c0,0.552-0.448,1-1,1v4c0.552,0,1,0.448,1,1c0,0.552-0.448,1-1,1v4c0.552,0,1,0.448,1,1c0,0.552-0.448,1-1,1
		v4c0.552,0,1,0.448,1,1c0,0.552-0.448,1-1,1v3c0,1.657,1.343,3,3,3h2c0-0.552,0.448-1,1-1s1,0.448,1,1h4c0-0.552,0.448-1,1-1
		s1,0.448,1,1h4c0-0.552,0.448-1,1-1s1,0.448,1,1h4c0-0.552,0.448-1,1-1s1,0.448,1,1h2c1.657,0,3-1.343,3-3v-3
		C29.448,26,29,25.552,29,25z"/>
	<path class="cubies_zevenentwintig" d="M25,28H5c-0.552,0-1-0.448-1-1V5c0-0.552,0.448-1,1-1h20c0.552,0,1,0.448,1,1v22
		C26,27.552,25.552,28,25,28z"/>
	<path class="cubies_tweeentwintig" d="M12.272,17.597l-4.434-4.434c-1.125-1.125-1.125-2.948,0-4.073l0.247-0.247
		c1.125-1.125,2.948-1.125,4.073,0l0.844,0.844l0.844-0.844c1.125-1.125,2.948-1.125,4.073,0l0.233,0.233
		c1.129,1.129,1.125,2.962-0.011,4.084c-1.5,1.482-3.438,3.403-4.451,4.435C13.299,17.992,12.665,17.99,12.272,17.597z"/>
	<path class="cubies_twaalf" d="M19.5,26h-2c-0.276,0-0.5-0.224-0.5-0.5v-2.586c0-0.401,0.156-0.778,0.439-1.061l1.414-1.414
		C18.948,20.345,19,20.219,19,20.086V18.5c0-0.276-0.224-0.5-0.5-0.5S18,18.224,18,18.5v1c0,0.276-0.224,0.5-0.5,0.5
		S17,19.776,17,19.5v-1c0-0.827,0.673-1.5,1.5-1.5s1.5,0.673,1.5,1.5v1.586c0,0.401-0.156,0.778-0.439,1.061l-1.414,1.414
		C18.052,22.655,18,22.781,18,22.914V25h1.5c0.276,0,0.5,0.224,0.5,0.5S19.776,26,19.5,26z M24,24.5v-2c0-0.827-0.673-1.5-1.5-1.5
		H22v-3h1.5c0.276,0,0.5-0.224,0.5-0.5S23.776,17,23.5,17h-2c-0.276,0-0.5,0.224-0.5,0.5v4c0,0.276,0.224,0.5,0.5,0.5h1
		c0.276,0,0.5,0.224,0.5,0.5v2c0,0.276-0.224,0.5-0.5,0.5S22,24.776,22,24.5v-1c0-0.276-0.224-0.5-0.5-0.5S21,23.224,21,23.5v1
		c0,0.827,0.673,1.5,1.5,1.5S24,25.327,24,24.5z"/>
</g>
</svg>