<?xml version="1.0" encoding="utf-8"?>
<svg version="1.1" xmlns="http://www.w3.org/2000/svg" xmlns:xlink="http://www.w3.org/1999/xlink" 
	 width="800px" height="800px" viewBox="0 0 32 32" xml:space="preserve">
<style type="text/css">
	.cubies_zesentwintig{fill:#65C3AB;}
	.cubies_zevenentwintig{fill:#98D3BC;}
	.cubies_achtentwintig{fill:#CCE2CD;}
	.st0{fill:#F2C99E;}
	.st1{fill:#F9E0BD;}
	.st2{fill:#C9483A;}
	.st3{fill:#D97360;}
	.st4{fill:#EDB57E;}
	.st5{fill:#E3D4C0;}
	.st6{fill:#FFF2DF;}
	.st7{fill:#4C4842;}
	.st8{fill:#67625D;}
	.st9{fill:#EDEAE5;}
	.st10{fill:#C9C6C0;}
	.st11{fill:#BCD269;}
	.st12{fill:#A4C83F;}
	.st13{fill:#837F79;}
	.st14{fill:#EC9B5A;}
	.st15{fill:#2EB39A;}
	.st16{fill:#725A48;}
	.st17{fill:#8E7866;}
	.st18{fill:#E69D8A;}
	.st19{fill:#65C3AB;}
	.st20{fill:#A5A29C;}
	.st21{fill:#D1DE8B;}
	.st22{fill:#E8E8B5;}
</style>
<g>
	<path class="cubies_zesentwintig" d="M31,0l-6,0c-0.552,0-1,0.448-1,1v2h-4V1c0-0.552-0.448-1-1-1h-6c-0.552,0-1,0.448-1,1v2H8V1
		c0-0.552-0.448-1-1-1H1C0.448,0,0,0.448,0,1l0,5h32V1C32,0.448,31.552,0,31,0z"/>
	<path class="cubies_zevenentwintig" d="M29,32H3c-1.657,0-3-1.343-3-3V6h32v23C32,30.657,30.657,32,29,32z"/>
	<path class="cubies_achtentwintig" d="M27,32H3c-1.657,0-3-1.343-3-3V6h30v23C30,30.657,28.657,32,27,32z"/>
	<path class="cubies_zesentwintig" d="M15,10c-1.657,0-3,1.343-3,3v6c0,0.552,0.448,1,1,1h4c0.552,0,1-0.448,1-1v-6
		C18,11.343,16.657,10,15,10z"/>
	<path class="cubies_zevenentwintig" d="M30,1v5H0l0-5c0-0.552,0.448-1,1-1h4c0.552,0,1,0.448,1,1v2h6V1c0-0.552,0.448-1,1-1h4
		c0.552,0,1,0.448,1,1v2h6V1c0-0.552,0.448-1,1-1l4,0C29.552,0,30,0.448,30,1z M13,19v-6c0-1.486,1.082-2.71,2.5-2.95
		C15.337,10.023,15.171,10,15,10c-1.657,0-3,1.343-3,3v6c0,0.552,0.448,1,1,1h1C13.448,20,13,19.552,13,19z"/>
</g>
</svg>