<?xml version="1.0" encoding="utf-8"?>
<svg version="1.1" xmlns="http://www.w3.org/2000/svg" xmlns:xlink="http://www.w3.org/1999/xlink" 
	 width="800px" height="800px" viewBox="0 0 32 32" xml:space="preserve">
<style type="text/css">
	.cubies_zesentwintig{fill:#65C3AB;}
	.cubies_zevenentwintig{fill:#98D3BC;}
	.cubies_achtentwintig{fill:#CCE2CD;}
	.cubies_twintig{fill:#F9E0BD;}
	.cubies_negentien{fill:#F2C99E;}
	.cubies_achtien{fill:#EDB57E;}
	.st0{fill:#C9483A;}
	.st1{fill:#D97360;}
	.st2{fill:#E3D4C0;}
	.st3{fill:#FFF2DF;}
	.st4{fill:#4C4842;}
	.st5{fill:#67625D;}
	.st6{fill:#EDEAE5;}
	.st7{fill:#C9C6C0;}
	.st8{fill:#BCD269;}
	.st9{fill:#A4C83F;}
	.st10{fill:#837F79;}
	.st11{fill:#EC9B5A;}
	.st12{fill:#2EB39A;}
	.st13{fill:#725A48;}
	.st14{fill:#8E7866;}
	.st15{fill:#E69D8A;}
	.st16{fill:#65C3AB;}
	.st17{fill:#A5A29C;}
	.st18{fill:#D1DE8B;}
	.st19{fill:#E8E8B5;}
</style>
<g>
	<path class="cubies_twintig" d="M3,32h12V0L3,0C1.343,0,0,1.343,0,3l0,26C0,30.657,1.343,32,3,32z"/>
	<path class="cubies_zevenentwintig" d="M29,32H15V0h14c1.657,0,3,1.343,3,3v26C32,30.657,30.657,32,29,32z"/>
	<path class="cubies_achtentwintig" d="M27,32H15V0h12c1.657,0,3,1.343,3,3v26C30,30.657,28.657,32,27,32z"/>
	<path class="cubies_achtien" d="M6,7H4C3.448,7,3,6.552,3,6V4c0-0.552,0.448-1,1-1h2c0.552,0,1,0.448,1,1v2C7,6.552,6.552,7,6,7z
		 M13,6V4c0-0.552-0.448-1-1-1h-2C9.448,3,9,3.448,9,4v2c0,0.552,0.448,1,1,1h2C12.552,7,13,6.552,13,6z M7,12v-2
		c0-0.552-0.448-1-1-1H4c-0.552,0-1,0.448-1,1v2c0,0.552,0.448,1,1,1h2C6.552,13,7,12.552,7,12z M13,12v-2c0-0.552-0.448-1-1-1h-2
		c-0.552,0-1,0.448-1,1v2c0,0.552,0.448,1,1,1h2C12.552,13,13,12.552,13,12z M7,18v-2c0-0.552-0.448-1-1-1H4c-0.552,0-1,0.448-1,1v2
		c0,0.552,0.448,1,1,1h2C6.552,19,7,18.552,7,18z M13,18v-2c0-0.552-0.448-1-1-1h-2c-0.552,0-1,0.448-1,1v2c0,0.552,0.448,1,1,1h2
		C12.552,19,13,18.552,13,18z M7,24v-2c0-0.552-0.448-1-1-1H4c-0.552,0-1,0.448-1,1v2c0,0.552,0.448,1,1,1h2C6.552,25,7,24.552,7,24
		z M13,24v-2c0-0.552-0.448-1-1-1h-2c-0.552,0-1,0.448-1,1v2c0,0.552,0.448,1,1,1h2C12.552,25,13,24.552,13,24z M10,28
		c0-0.552-0.448-1-1-1H7c-0.552,0-1,0.448-1,1v4h4V28z"/>
	<path class="cubies_zesentwintig" d="M20,7h-2c-0.552,0-1-0.448-1-1V4c0-0.552,0.448-1,1-1h2c0.552,0,1,0.448,1,1v2
		C21,6.552,20.552,7,20,7z M27,6V4c0-0.552-0.448-1-1-1h-2c-0.552,0-1,0.448-1,1v2c0,0.552,0.448,1,1,1h2C26.552,7,27,6.552,27,6z
		 M21,12v-2c0-0.552-0.448-1-1-1h-2c-0.552,0-1,0.448-1,1v2c0,0.552,0.448,1,1,1h2C20.552,13,21,12.552,21,12z M27,12v-2
		c0-0.552-0.448-1-1-1h-2c-0.552,0-1,0.448-1,1v2c0,0.552,0.448,1,1,1h2C26.552,13,27,12.552,27,12z M21,18v-2c0-0.552-0.448-1-1-1
		h-2c-0.552,0-1,0.448-1,1v2c0,0.552,0.448,1,1,1h2C20.552,19,21,18.552,21,18z M27,18v-2c0-0.552-0.448-1-1-1h-2
		c-0.552,0-1,0.448-1,1v2c0,0.552,0.448,1,1,1h2C26.552,19,27,18.552,27,18z M21,24v-2c0-0.552-0.448-1-1-1h-2c-0.552,0-1,0.448-1,1
		v2c0,0.552,0.448,1,1,1h2C20.552,25,21,24.552,21,24z M27,24v-2c0-0.552-0.448-1-1-1h-2c-0.552,0-1,0.448-1,1v2
		c0,0.552,0.448,1,1,1h2C26.552,25,27,24.552,27,24z M24,28c0-0.552-0.448-1-1-1h-2c-0.552,0-1,0.448-1,1v4h4V28z"/>
	<path class="cubies_zevenentwintig" d="M17,18v-2c0-0.552,0.448-1,1-1h1c-0.552,0-1,0.448-1,1v2c0,0.552,0.448,1,1,1h-1
		C17.448,19,17,18.552,17,18z M18,13h1c-0.552,0-1-0.448-1-1v-2c0-0.552,0.448-1,1-1h-1c-0.552,0-1,0.448-1,1v2
		C17,12.552,17.448,13,18,13z M24,7h1c-0.552,0-1-0.448-1-1V4c0-0.552,0.448-1,1-1h-1c-0.552,0-1,0.448-1,1v2
		C23,6.552,23.448,7,24,7z M18,7h1c-0.552,0-1-0.448-1-1V4c0-0.552,0.448-1,1-1h-1c-0.552,0-1,0.448-1,1v2C17,6.552,17.448,7,18,7z
		 M24,13h1c-0.552,0-1-0.448-1-1v-2c0-0.552,0.448-1,1-1h-1c-0.552,0-1,0.448-1,1v2C23,12.552,23.448,13,24,13z M24,19h1
		c-0.552,0-1-0.448-1-1v-2c0-0.552,0.448-1,1-1h-1c-0.552,0-1,0.448-1,1v2C23,18.552,23.448,19,24,19z M18,24v-2
		c0-0.552,0.448-1,1-1h-1c-0.552,0-1,0.448-1,1v2c0,0.552,0.448,1,1,1h1C18.448,25,18,24.552,18,24z M22,27h-1c-0.552,0-1,0.448-1,1
		v4h1v-4C21,27.448,21.448,27,22,27z M24,24v-2c0-0.552,0.448-1,1-1h-1c-0.552,0-1,0.448-1,1v2c0,0.552,0.448,1,1,1h1
		C24.448,25,24,24.552,24,24z"/>
	<path class="cubies_negentien" d="M9,6V4c0-0.552,0.448-1,1-1h1c-0.552,0-1,0.448-1,1v2c0,0.552,0.448,1,1,1h-1
		C9.448,7,9,6.552,9,6z M10,13h1c-0.552,0-1-0.448-1-1v-2c0-0.552,0.448-1,1-1h-1c-0.552,0-1,0.448-1,1v2C9,12.552,9.448,13,10,13z
		 M10,19h1c-0.552,0-1-0.448-1-1v-2c0-0.552,0.448-1,1-1h-1c-0.552,0-1,0.448-1,1v2C9,18.552,9.448,19,10,19z M4,13h1
		c-0.552,0-1-0.448-1-1v-2c0-0.552,0.448-1,1-1H4c-0.552,0-1,0.448-1,1v2C3,12.552,3.448,13,4,13z M10,24v-2c0-0.552,0.448-1,1-1h-1
		c-0.552,0-1,0.448-1,1v2c0,0.552,0.448,1,1,1h1C10.448,25,10,24.552,10,24z M4,19h1c-0.552,0-1-0.448-1-1v-2c0-0.552,0.448-1,1-1H4
		c-0.552,0-1,0.448-1,1v2C3,18.552,3.448,19,4,19z M4,7h1C4.448,7,4,6.552,4,6V4c0-0.552,0.448-1,1-1H4C3.448,3,3,3.448,3,4v2
		C3,6.552,3.448,7,4,7z M8,27H7c-0.552,0-1,0.448-1,1v4h1v-4C7,27.448,7.448,27,8,27z M4,24v-2c0-0.552,0.448-1,1-1H4
		c-0.552,0-1,0.448-1,1v2c0,0.552,0.448,1,1,1h1C4.448,25,4,24.552,4,24z"/>
</g>
</svg>