<?xml version="1.0" encoding="utf-8"?>
<svg version="1.1" xmlns="http://www.w3.org/2000/svg" xmlns:xlink="http://www.w3.org/1999/xlink" 
	 width="800px" height="800px" viewBox="0 0 32 32" xml:space="preserve">
<style type="text/css">
	.cubies_zevenentwintig{fill:#98D3BC;}
	.cubies_achtentwintig{fill:#CCE2CD;}
	.cubies_eenentwintig{fill:#C9483A;}
	.cubies_tweeentwintig{fill:#D97360;}
	.cubies_acht{fill:#8E7866;}
	.cubies_zeven{fill:#725A48;}
	.st0{fill:#F2C99E;}
	.st1{fill:#F9E0BD;}
	.st2{fill:#65C3AB;}
	.st3{fill:#EDB57E;}
	.st4{fill:#E3D4C0;}
	.st5{fill:#FFF2DF;}
	.st6{fill:#4C4842;}
	.st7{fill:#67625D;}
	.st8{fill:#EDEAE5;}
	.st9{fill:#C9C6C0;}
	.st10{fill:#BCD269;}
	.st11{fill:#A4C83F;}
	.st12{fill:#837F79;}
	.st13{fill:#EC9B5A;}
	.st14{fill:#2EB39A;}
	.st15{fill:#E69D8A;}
	.st16{fill:#A5A29C;}
	.st17{fill:#D1DE8B;}
	.st18{fill:#E8E8B5;}
</style>
<g>
	<path class="cubies_zeven" d="M32,4H0V3c0-1.657,1.343-3,3-3h26c1.657,0,3,1.343,3,3V4z M32,28H0l0,1c0,1.657,1.343,3,3,3h26
		c1.657,0,3-1.343,3-3V28z"/>
	<path class="cubies_acht" d="M30,4H0V3c0-1.657,1.343-3,3-3h24c1.657,0,3,1.343,3,3V4z M30,28H0l0,1c0,1.657,1.343,3,3,3h24
		c1.657,0,3-1.343,3-3V28z"/>
	<path class="cubies_zevenentwintig" d="M32,10V4H0v6c0,3.314,2.686,6,6,6c-3.314,0-6,2.686-6,6v6h32v-6c0-3.314-2.686-6-6-6
		C29.314,16,32,13.314,32,10z"/>
	<path class="cubies_achtentwintig" d="M30,10V4H0v6c0,3.314,2.686,6,6,6c-3.314,0-6,2.686-6,6v6h30v-6c0-3.314-2.686-6-6-6
		C27.314,16,30,13.314,30,10z"/>
	<path class="cubies_eenentwintig" d="M32,28h-2v-2h2V28z M29.651,12c-0.825,2.329-3.04,4-5.651,4h2c2.611,0,4.827-1.671,5.651-4
		H29.651z"/>
	<path class="cubies_tweeentwintig" d="M30,26v2H0v-2C9.828,23.379,20.172,23.379,30,26z M6,16h6c0,0.552,0.448,1,1,1s1-0.448,1-1
		h10c2.611,0,4.827-1.671,5.651-4H0.349C1.173,14.329,3.389,16,6,16z M16,17c-0.552,0-1,0.448-1,1c0,0.552,0.448,1,1,1s1-0.448,1-1
		C17,17.448,16.552,17,16,17z M13,19c-0.552,0-1,0.448-1,1c0,0.552,0.448,1,1,1s1-0.448,1-1C14,19.448,13.552,19,13,19z M16,21
		c-0.552,0-1,0.448-1,1c0,0.552,0.448,1,1,1s1-0.448,1-1C17,21.448,16.552,21,16,21z"/>
</g>
</svg>