<?xml version="1.0" ?>


<svg width="800px" height="800px" viewBox="0 0 32 32" xmlns="http://www.w3.org/2000/svg">

<defs>

<style>.cls-1{fill:#dbe9fa;}.cls-2{fill:#d9dce1;}.cls-3{fill:#52acf9;}.cls-4{fill:#ffffff;}</style>

</defs>

<g id="calculator">

<circle class="cls-1" cx="16" cy="16" r="16"/>

<rect class="cls-2" height="15" width="14" x="16" y="2"/>

<rect class="cls-3" height="14" width="14" x="2" y="2"/>

<rect class="cls-2" height="14" width="14" x="2" y="16"/>

<rect class="cls-3" height="14" width="14" x="16" y="16"/>

<rect class="cls-4" height="2" width="7" x="19" y="8"/>

<polygon class="cls-4" points="10.5 6.5 8.5 6.5 8.5 9 6 9 6 11 8.5 11 8.5 13.5 10.5 13.5 10.5 11 13 11 13 9 10.5 9 10.5 6.5"/>

<rect class="cls-4" height="2" width="7" x="19" y="19"/>

<polygon class="cls-4" points="11.27 18.82 9.5 20.59 7.73 18.82 6.32 20.23 8.09 22 6.32 23.77 7.73 25.18 9.5 23.41 11.27 25.18 12.68 23.77 10.91 22 12.68 20.23 11.27 18.82"/>

<rect class="cls-4" height="2" width="7" x="19" y="23"/>

<path d="M17,2H2V30H30V2ZM4,4H15V15H4ZM4,28V17H15V28Zm24,0H17V17H28ZM17,15V4H28V15Z"/>

</g>

</svg>