<?xml version="1.0" ?>


<svg width="800px" height="800px" viewBox="0 0 32 32" xmlns="http://www.w3.org/2000/svg">

<defs>

<style>.cls-1{fill:#dbe9fa;}.cls-2{fill:#d9dce1;}.cls-3{fill:#52acf9;}.cls-4{fill:#ffffff;}</style>

</defs>

<g id="letterhead">

<circle class="cls-1" cx="16" cy="16" r="16"/>

<rect class="cls-2" height="27" width="20" x="3" y="3"/>

<rect class="cls-3" height="13" width="20" x="10" y="17"/>

<rect class="cls-3" height="9" width="13" x="15" y="7"/>

<polygon class="cls-2" points="10 17 14.5 23 25.5 23 30 17 10 17"/>

<path class="cls-4" d="M8,11a3,3,0,1,1,3-3A3,3,0,0,1,8,11ZM8,7A1,1,0,1,0,9,8,1,1,0,0,0,8,7Z"/>

<path d="M23,17V16h5V7H23V2H2V30H30V17Zm3,2-1.5,2h-9L14,19H26ZM26,9v5H17V9h9ZM4,28V4H21V7H15v9h6v1H10V28Zm19,0H12V19.67L14.5,23h11L28,19.67V28Z"/>

</g>

</svg>