<?xml version="1.0" ?>


<svg width="800px" height="800px" viewBox="0 0 32 32" xmlns="http://www.w3.org/2000/svg">

<defs>

<style>.cls-1{fill:#dbe9fa;}.cls-2{fill:#52acf9;}.cls-3{fill:#d9dce1;}.cls-4{fill:#ffffff;}</style>

</defs>

<g id="puzzle">

<circle class="cls-1" cx="16" cy="16" r="16"/>

<path class="cls-2" d="M15,15v4.17a3,3,0,0,0,0,5.66V30H30V15Z"/>

<path class="cls-3" d="M2,2V17H9V16a1,1,0,0,1,2,0v1h6V2Z"/>

<path class="cls-4" d="M15,2V9h1a1,1,0,0,1,0,2H15v6h5.17a3,3,0,0,0,5.66,0H30V2Z"/>

<path d="M17,2H2V17H9V16a1,1,0,0,1,2,0v1h4v2.18a3,3,0,0,0,0,5.64V30H30V2ZM12.82,15a3,3,0,0,0-5.64,0H4V4H15V9h1a1,1,0,0,1,0,2H15v4ZM28,28H17V23H16a1,1,0,0,1,0-2h1V17h3.18a3,3,0,0,0,5.64,0H28ZM26,15H24v1a1,1,0,0,1-2,0V15H17V12.82a3,3,0,0,0,0-5.64V4H28V15Z"/>

</g>

</svg>