<?xml version="1.0" ?>


<svg width="800px" height="800px" viewBox="0 0 32 32" xmlns="http://www.w3.org/2000/svg">

<defs>

<style>.cls-1{fill:#dbe9fa;}.cls-2{fill:#52acf9;}.cls-3{fill:#d9dce1;}.cls-4{fill:#ffffff;}</style>

</defs>

<g id="plan">

<circle class="cls-1" cx="16" cy="16" r="16"/>

<rect class="cls-2" height="24" width="20" x="6" y="6"/>

<path class="cls-3" d="M20,2H12A3,3,0,0,0,9,5v5H23V5A3,3,0,0,0,20,2Z"/>

<rect class="cls-4" height="2" width="8" x="15" y="12"/>

<rect class="cls-4" height="2" width="4" x="9" y="12"/>

<rect class="cls-4" height="2" width="8" x="15" y="16"/>

<rect class="cls-4" height="2" width="4" x="9" y="16"/>

<rect class="cls-4" height="2" width="8" x="15" y="20"/>

<rect class="cls-4" height="2" width="4" x="9" y="20"/>

<rect class="cls-4" height="2" width="8" x="15" y="24"/>

<rect class="cls-4" height="2" width="4" x="9" y="24"/>

<path d="M23,6V5a3,3,0,0,0-3-3H12A3,3,0,0,0,9,5V6H6V30H26V6ZM11,5a1,1,0,0,1,1-1h8a1,1,0,0,1,1,1V8H11V5ZM24,28H8V8H9v2H23V8h1Z"/>

</g>

</svg>