<?xml version="1.0" ?>


<svg width="800px" height="800px" viewBox="0 0 32 32" xmlns="http://www.w3.org/2000/svg">

<defs>

<style>.cls-1{fill:#dbe9fa;}.cls-2{fill:#52acf9;}.cls-3{fill:#d9dce1;}</style>

</defs>

<g data-name="target" id="target-2">

<circle class="cls-1" cx="16" cy="16" r="16"/>

<rect class="cls-2" height="10" width="2" x="15" y="11"/>

<rect class="cls-2" height="2" width="10" x="11" y="15"/>

<polygon class="cls-3" points="30 11 28 11 28 4 21 4 21 2 30 2 30 11"/>

<polygon class="cls-3" points="4 11 2 11 2 2 11 2 11 4 4 4 4 11"/>

<polygon class="cls-3" points="11 30 2 30 2 21 4 21 4 28 11 28 11 30"/>

<polygon class="cls-3" points="30 30 21 30 21 28 28 28 28 21 30 21 30 30"/>

<path d="M21,2V4h7v7h2V2ZM4,4h7V2H2v9H4ZM4,21H2v9h9V28H4Zm24,7H21v2h9V21H28Z"/>

</g>

</svg>