<?xml version="1.0" ?>


<svg width="800px" height="800px" viewBox="0 0 32 32" xmlns="http://www.w3.org/2000/svg">

<defs>

<style>.cls-1{fill:#dbe9fa;}.cls-2{fill:#d9dce1;}.cls-3{fill:#52acf9;}.cls-4{fill:#ffffff;}</style>

</defs>

<g id="presentation">

<circle class="cls-1" cx="16" cy="16" r="16"/>

<circle class="cls-2" cx="9" cy="5" r="3"/>

<path class="cls-2" d="M9,9a7,7,0,0,0-7,7v4H4V30H14V20h2V16A7,7,0,0,0,9,9Z"/>

<rect class="cls-3" height="15" width="13" x="17" y="2"/>

<rect class="cls-4" height="4" width="2" x="21" y="10"/>

<rect class="cls-4" height="8" width="2" x="24" y="6"/>

<path d="M9,8A3,3,0,1,0,6,5,3,3,0,0,0,9,8ZM9,4A1,1,0,1,1,8,5,1,1,0,0,1,9,4ZM9,9a7,7,0,0,0-7,7v4H4V30H14V20h2V16A7,7,0,0,0,9,9Zm5,9H12V28H6V18H4V16a5,5,0,0,1,10,0ZM17,2V17H30V2ZM28,15H19V4h9Z"/>

</g>

</svg>