<?xml version="1.0" ?>


<svg width="800px" height="800px" viewBox="0 0 32 32" xmlns="http://www.w3.org/2000/svg">

<defs>

<style>.cls-1{fill:#dbe9fa;}.cls-2{fill:#d9dce1;}.cls-3{fill:#ffffff;}.cls-4{fill:#52acf9;}</style>

</defs>

<g id="tape">

<circle class="cls-1" cx="16" cy="16" r="16"/>

<circle class="cls-2" cx="13" cy="16" r="8"/>

<circle class="cls-3" cx="13" cy="16" r="4"/>

<path class="cls-4" d="M20,15v2h3v.89a1,1,0,0,1-1.42.91L13.22,15H2V30H30V15Z"/>

<path d="M20.93,15A8,8,0,0,0,5.07,15H2V30H30V15ZM23,17v.89a1,1,0,0,1-1.42.91l-.94-.43A9,9,0,0,0,20.93,17ZM13,10a6,6,0,0,1,6,6,5.54,5.54,0,0,1-.21,1.53l-1.86-.85A3.82,3.82,0,0,0,17,16a4,4,0,0,0-7.86-1H7.09A6,6,0,0,1,13,10Zm.22,5H11.28a2,2,0,0,1,3.7.8ZM28,28H4V17h8.78l1.63.74h0l1,.43,3.81,1.73.66.31h0l.89.41A3,3,0,0,0,25,17.89V17h3Z"/>

</g>

</svg>