<?xml version="1.0" ?>


<svg width="800px" height="800px" viewBox="0 0 32 32" xmlns="http://www.w3.org/2000/svg">

<defs>

<style>.cls-1{fill:#dbe9fa;}.cls-2{fill:#52acf9;}.cls-3{fill:#d9dce1;}.cls-4{fill:#ffffff;}</style>

</defs>

<g id="money">

<circle class="cls-1" cx="16" cy="16" r="16"/>

<rect class="cls-2" height="20" width="28" x="2" y="6"/>

<rect class="cls-3" height="14" rx="2" width="22" x="5" y="9"/>

<circle class="cls-4" cx="16" cy="16" r="3"/>

<rect class="cls-4" height="2" width="4" x="20" y="12"/>

<rect class="cls-4" height="2" width="4" x="8" y="18"/>

<path d="M2,6V26H30V6ZM28,24H4V8H28ZM7,23H25a2,2,0,0,0,2-2V11a2,2,0,0,0-2-2H7a2,2,0,0,0-2,2V21A2,2,0,0,0,7,23ZM7,11H25V21H7Z"/>

</g>

</svg>