<?xml version="1.0" encoding="utf-8"?>

<svg width="800px" height="800px" viewBox="0 0 1024 1024" class="icon"  version="1.1" xmlns="http://www.w3.org/2000/svg"><path d="M512 512m-404.210526 0a404.210526 404.210526 0 1 0 808.421052 0 404.210526 404.210526 0 1 0-808.421052 0Z" fill="#FF8787" /><path d="M161.684211 974.982737V323.368421h323.368421v377.263158H215.578947v209.434947c81.273263-20.102737 149.396211-61.574737 180.601264-82.755368l-25.007158-49.367579 48.074105-24.360421 89.815579 177.394526-48.074105 24.360421-40.259369-79.494737c-41.633684 27.728842-126.976 77.096421-227.705263 93.884632L161.684211 974.982737zM215.578947 646.736842h215.578948v-107.789474H215.578947v107.789474z m0-161.68421h215.578948v-107.789474H215.578947v107.789474z m377.263158 485.052631h-53.894737V323.368421h323.368421v525.473684c0 37.160421-30.208 67.368421-67.368421 67.368421-72.272842 0-155.243789-92.240842-171.708631-121.532631l46.99621-26.408421c13.177263 23.444211 81.866105 94.046316 124.712421 94.046315 7.410526 0 13.473684-6.063158 13.473685-13.473684V377.263158h-215.578948v592.842105z m168.313263-655.979789l-60.631579-69.605053L733.749895 215.578947h-111.72379c-25.007158 26.435368-56.589474 53.248-96.14821 76.988632l-27.728842-46.214737c124.362105-74.644211 158.423579-183.457684 158.773894-184.535579l51.577264 15.575579c-0.862316 2.802526-12.018526 38.588632-43.11579 84.291369H862.315789v53.894736h-115.523368l54.999579 63.137685-40.636632 35.408842z m-377.263157 0l-60.631579-69.605053L356.459789 215.578947H244.762947a450.775579 450.775579 0 0 1-96.14821 76.988632l-27.75579-46.18779c123.418947-74.051368 158.423579-183.538526 158.773895-184.616421l51.577263 15.656421c-0.835368 2.748632-12.018526 38.561684-43.088842 84.264422H485.052632v53.894736h-115.523369l54.999579 63.137685-40.636631 35.408842z" fill="#231F20" /></svg>