<?xml version="1.0" encoding="utf-8"?>

<svg width="800px" height="800px" viewBox="0 0 1024 1024" class="icon"  version="1.1" xmlns="http://www.w3.org/2000/svg"><path d="M843.075368 388.877474c-37.025684 15.117474-74.213053 44.436211-116.008421 84.911158-18.324211-19.024842-37.618526-39.639579-58.179368-61.655579-46.160842-49.394526-96.956632-103.747368-156.806737-161.872842l-0.053895 0.161684-0.053894-0.215579c-56.481684 54.784-104.852211 106.226526-148.884211 153.384421l-0.080842 0.026947 0.026947 0.026948a163391.326316 163391.326316 0 0 0 110.484211 108.355368l-71.976421 70.575158a952.616421 952.616421 0 0 0-7.006316-7.491369c-86.447158-92.510316-150.096842-160.444632-213.207579-186.26021-44.247579 20.399158-73.135158 66.317474-73.431579 123.607579 0.296421 57.128421 29.022316 102.453895 73.054316 122.691368 37.025684-15.117474 74.213053-44.436211 116.008421-84.911158 18.324211 19.024842 37.618526 39.639579 58.206316 61.655579 46.133895 49.394526 96.929684 103.747368 156.806737 161.872842l0.053894-0.161684 0.053895 0.215579c56.481684-54.784 104.852211-106.226526 148.884211-153.384421l0.080842-0.026947-0.026948-0.026948c-38.885053-38.211368-84.884211-83.294316-110.48421-108.355368l71.976421-70.575158 7.033263 7.491369c86.447158 92.510316 150.069895 160.444632 213.207579 186.26021 44.247579-20.399158 73.135158-66.344421 73.431579-123.607579-0.350316-57.128421-29.076211-102.453895-73.108211-122.691368z" fill="#FF8787" /><path d="M592.842105 1024h-53.894737v-80.842105a26.974316 26.974316 0 0 0-53.894736 0v80.842105h-53.894737v-80.842105c0-44.570947 36.271158-80.842105 80.842105-80.842106s80.842105 36.271158 80.842105 80.842106v80.842105z m0-943.157895V0h-53.894737v80.842105c0 14.848-12.099368 26.947368-26.947368 26.947369s-26.947368-12.099368-26.947368-26.947369V0h-53.894737v80.842105c0 44.570947 36.271158 80.842105 80.842105 80.842106s80.842105-36.271158 80.842105-80.842106z m431.157895 431.589053h-0.080842C1023.514947 590.282105 970.536421 646.736842 897.562947 646.736842c-83.213474 0-156.752842-78.713263-268.045473-197.820631l-7.006316-7.491369L550.507789 512c17.408 17.057684 44.193684 43.277474 72.003369 70.575158l7.006316-7.491369c8.623158-9.242947 16.976842-18.162526 25.195789-26.893473 12.988632 13.554526 25.573053 26.165895 37.99579 38.265263l-23.821474 25.438316-7.895579 8.434526a15391.905684 15391.905684 0 0 1 62.625684 61.709474c41.067789 41.229474 41.067789 108.382316-0.107789 149.881263a104.097684 104.097684 0 0 1-73.808842 30.154105 111.346526 111.346526 0 0 1-75.021474-29.345684 2715.809684 2715.809684 0 0 1-62.652632-58.933895c-19.833263 19.240421-40.663579 38.885053-62.652631 58.933895a111.346526 111.346526 0 0 1-75.021474 29.345684 104.178526 104.178526 0 0 1-73.835789-30.154105 106.442105 106.442105 0 0 1-0.080842-149.881263c4.500211-4.500211 11.991579-11.883789 21.099789-20.857263 11.883789 12.826947 24.198737 25.950316 36.837053 39.370105-8.542316 8.434526-15.521684 15.306105-19.806316 19.617684a52.358737 52.358737 0 0 0 0.080842 73.647158c19.968 19.833263 52.008421 19.509895 74.428632-0.916211a2640.842105 2640.842105 0 0 0 60.631578-57.020631c-43.708632-43.924211-82.593684-85.504-118.541473-123.984842-20.587789-22.016-39.909053-42.684632-58.260211-61.709474C234.765474 610.357895 182.730105 646.736842 126.437053 646.736842 53.463579 646.736842 0.458105 590.282105 0.080842 512.431158H0L0.026947 512 0 511.568842h0.080842C0.485053 433.690947 53.463579 377.263158 126.437053 377.263158c83.213474 0 156.752842 78.686316 268.045473 197.820631l7.006316 7.491369L473.465263 512c-17.408-17.057684-44.193684-43.277474-71.976421-70.575158l-7.006316 7.491369-25.195789 26.893473a1553.515789 1553.515789 0 0 0-37.99579-38.265263l23.821474-25.438316 7.895579-8.434526a17490.620632 17490.620632 0 0 1-62.625684-61.709474c-41.067789-41.229474-41.067789-108.382316 0.107789-149.881263a104.097684 104.097684 0 0 1 73.808842-30.154105c26.597053 0 53.517474 9.754947 75.021474 29.345684 22.016 20.021895 42.846316 39.666526 62.679579 58.933895 19.833263-19.240421 40.663579-38.912 62.652632-58.933895a111.346526 111.346526 0 0 1 75.021473-29.345684c26.974316 0 53.571368 10.051368 73.808842 30.154105a106.469053 106.469053 0 0 1 0.10779 149.881263c-4.500211 4.500211-11.991579 11.883789-21.09979 20.857263a7598.349474 7598.349474 0 0 0-36.837052-39.370105c8.542316-8.434526 15.521684-15.306105 19.806316-19.617684a52.358737 52.358737 0 0 0-0.080843-73.647158c-19.968-19.833263-52.035368-19.509895-74.455579 0.916211-21.234526 19.348211-41.391158 38.373053-60.631578 57.020631a5356.058947 5356.058947 0 0 1 118.541473 123.984842c20.587789 22.042947 39.882105 42.684632 58.233263 61.709474C789.234526 413.642105 841.269895 377.263158 897.562947 377.263158c72.973474 0 125.978947 56.427789 126.356211 134.305684H1024l-0.026947 0.431158 0.026947 0.431158zM126.437053 592.842105c38.184421 0 81.030737-31.205053 132.473263-80.896C207.440842 462.201263 164.675368 431.157895 126.437053 431.157895c-49.664 0-72.353684 41.822316-72.515369 80.842105 0.161684 39.019789 22.878316 80.842105 72.515369 80.842105z m273.488842-228.486737c23.093895-24.441263 47.589053-49.906526 73.754947-76.234105a2640.842105 2640.842105 0 0 0-60.631579-57.020631c-22.420211-20.426105-54.460632-20.776421-74.455579-0.916211a52.358737 52.358737 0 0 0-0.080842 73.647158 16189.978947 16189.978947 0 0 0 61.413053 60.523789z m224.14821 295.289264c-23.093895 24.441263-47.589053 49.933474-73.754947 76.234105 19.240421 18.647579 39.397053 37.672421 60.631579 57.020631 22.420211 20.426105 54.460632 20.776421 74.455579 0.916211 20.210526-20.372211 20.237474-53.409684 0.080842-73.647158a16189.978947 16189.978947 0 0 0-61.413053-60.523789z m-38.480842-37.780211L512 549.726316l-73.593263 72.165052c23.04 24.387368 47.481263 49.825684 73.593263 76.045474a3918.147368 3918.147368 0 0 0 73.593263-76.072421z m0-219.728842c-23.04-24.414316-47.508211-49.852632-73.593263-76.099368-26.112 26.246737-50.526316 51.658105-73.593263 76.072421 28.483368 27.971368 56.050526 54.972632 73.593263 72.165052l73.593263-72.138105zM970.078316 512c-0.188632-39.019789-22.878316-80.842105-72.515369-80.842105-38.211368 0-81.057684 31.205053-132.446315 80.896C816.559158 561.798737 859.324632 592.842105 897.562947 592.842105c49.637053 0 72.326737-41.822316 72.515369-80.842105z" fill="#231F20" /></svg>