<?xml version="1.0" encoding="utf-8"?>

<svg width="800px" height="800px" viewBox="0 0 1024 1024" class="icon"  version="1.1" xmlns="http://www.w3.org/2000/svg"><path d="M860.402526 433.664C845.365895 331.776 735.528421 269.473684 565.894737 269.473684c-182.837895 0-296.421053 72.272842-296.421053 188.631579 0 68.096 39.154526 132.473263 108.058948 174.295579 40.205474 9.269895 85.072842 14.336 134.467368 14.336 201.512421 0 331.722105-80.842105 348.402526-213.072842z" fill="#FF8787" /><path d="M650.671158 1024C578.910316 943.858526 538.947368 850.054737 538.947368 700.631579h53.894737v-110.996211c134.736842-18.566737 215.578947-85.153684 215.578948-183.161263 0-116.358737-113.583158-188.631579-296.421053-188.631579-28.806737 0-55.646316 1.994105-80.842105 5.470316V166.534737c25.492211-3.152842 52.412632-4.850526 80.842105-4.850526 28.456421 0 55.376842 1.697684 80.842105 4.850526V110.026105h-215.578947v-53.894737h269.473684v119.969685c135.545263 31.366737 215.578947 112.774737 215.578947 228.109473s-80.033684 196.769684-215.578947 228.109474v70.575158h-53.840842c0.458105 155.809684 45.271579 239.723789 133.066105 321.104842h-75.290947zM538.947368 702.895158V594.432c-8.838737 0.377263-17.731368 0.673684-26.947368 0.673684s-18.108632-0.323368-26.947368-0.673684V700.631579l0.053894 2.263579H538.947368z m-107.789473 0v-113.25979c-134.736842-18.566737-215.578947-85.153684-215.578948-183.161263 0-84.156632 59.634526-145.057684 161.684211-172.43621v-57.936842C241.717895 207.467789 161.684211 288.875789 161.684211 404.210526s80.033684 196.769684 215.578947 228.109474v70.575158h53.894737zM581.712842 1024c-60.281263-80.976842-96.202105-180.008421-96.606316-321.104842H485.052632V700.631579h-53.894737c0 138.590316 30.989474 240.074105 84.237473 323.368421h66.317474z" fill="#231F20" /></svg>