<?xml version="1.0" encoding="utf-8"?>

<svg width="800px" height="800px" viewBox="0 0 1024 1024" class="icon"  version="1.1" xmlns="http://www.w3.org/2000/svg"><path d="M808.421053 512c0 163.705263-132.715789 296.421053-296.421053 296.421053S215.578947 675.705263 215.578947 512 348.294737 215.578947 512 215.578947s296.421053 132.715789 296.421053 296.421053z m-215.578948-80.842105h-161.68421v161.68421h161.68421v-161.68421z" fill="#F7C768" /><path d="M808.421053 538.947368h-107.789474v-53.894736h107.789474v53.894736z m-431.157895-161.68421h269.473684v269.473684H377.263158V377.263158z m53.894737 215.578947h161.68421v-161.68421h-161.68421v161.68421z m80.842105-485.052631C289.118316 107.789474 107.789474 289.118316 107.789474 512s181.328842 404.210526 404.210526 404.210526c9.081263 0 18.000842-0.754526 26.947368-1.374315v-53.894737c-8.919579 0.700632-17.866105 1.374316-26.947368 1.374315-193.158737 0-350.315789-157.157053-350.315789-350.315789S318.841263 161.684211 512 161.684211s350.315789 157.157053 350.315789 350.315789c0 165.295158-115.226947 303.858526-269.473684 340.533895v55.538526C777.135158 870.507789 916.210526 707.206737 916.210526 512c0-222.881684-181.328842-404.210526-404.210526-404.210526zM215.578947 538.947368h107.789474v-53.894736H215.578947v53.894736z m323.368421 161.684211h-53.894736v107.789474h53.894736v-107.789474zM485.052632 215.578947v107.789474h53.894736V215.578947h-53.894736z" fill="#231F20" /></svg>