<?xml version="1.0" encoding="utf-8"?>

<svg width="800px" height="800px" viewBox="0 0 1024 1024" class="icon"  version="1.1" xmlns="http://www.w3.org/2000/svg"><path d="M512 512m-296.421053 0a296.421053 296.421053 0 1 0 592.842106 0 296.421053 296.421053 0 1 0-592.842106 0Z" fill="#BBC4C9" /><path d="M970.105263 512c0 224.983579-163.166316 412.186947-377.263158 450.533053v-54.460632C777.135158 870.507789 916.210526 707.206737 916.210526 512c0-222.881684-181.328842-404.210526-404.210526-404.210526S107.789474 289.118316 107.789474 512s181.328842 404.210526 404.210526 404.210526c9.081263 0 18.000842-0.754526 26.947368-1.374315v53.894736c-8.973474 0.538947-17.866105 1.374316-26.947368 1.374316-252.604632 0-458.105263-205.500632-458.105263-458.105263S259.395368 53.894737 512 53.894737s458.105263 205.500632 458.105263 458.105263z m-215.578947-188.631579h-161.684211v-26.947368h161.684211V242.526316H269.473684v53.894737h161.684211v26.947368h-161.684211v485.052632h53.894737v-53.894737h377.263158v53.894737h53.894737V323.368421zM323.368421 646.736842h377.263158v53.894737H323.368421v-53.894737z m0-269.473684h107.789474c0 103.316211-72.784842 107.654737-81.084632 107.789474L350.315789 538.947368c46.592 0 134.736842-33.792 134.736843-161.68421h53.894736v107.789474c0 29.722947 24.171789 53.894737 53.894737 53.894736h107.789474v53.894737H323.368421v-215.578947z m377.263158 0v107.789474h-107.789474v-107.789474h107.789474z m-215.578947-80.842105h53.894736v26.947368h-53.894736v-26.947368z" fill="#231F20" /></svg>