<?xml version="1.0" encoding="utf-8"?>
<svg fill="#000000" width="800px" height="800px" viewBox="-1.44 0 49.432 49.432" xmlns="http://www.w3.org/2000/svg">
  <path id="book_notepad" data-name="book notepad" d="M717.584,351.746l-.631-1.01H678.721a3.05,3.05,0,0,0-.411.034,3.358,3.358,0,0,0-.994.288,2.98,2.98,0,0,0-.393.227,1.5,1.5,0,0,0-.624.8.851.851,0,0,0-.027.191.667.667,0,0,0,.011.081.785.785,0,0,0,.035.105,1.09,1.09,0,0,0,.094.186,1.729,1.729,0,0,0,.141.183,2.5,2.5,0,0,0,.428.39l.061.044c.038.023.111.071.185.115l0,0,.066.036c.068.039.137.075.21.109s.17.047.257.066l.074.016.106.039a2.206,2.206,0,0,0,.468.129,2.794,2.794,0,0,0,.309.04h40.163Zm-41.095,3.9c-.13-.045-.273-.1-.415-.162l-.111-.046c-.172-.079-.33-.162-.488-.249-.051-.029-.109-.06-.164-.094-.14-.082-.275-.17-.407-.264V396a4.249,4.249,0,0,0,2.154,3.781V355.854c-.144-.049-.286-.1-.425-.164A1.361,1.361,0,0,1,676.489,355.643Zm2.9.5v44.019l7.49,0h34.582V356.146Z" transform="translate(-674.904 -350.736)"/>
</svg>