<?xml version="1.0" encoding="utf-8"?>
<svg fill="#000000" width="800px" height="800px" viewBox="0 -5.84 60.072 60.072" xmlns="http://www.w3.org/2000/svg">
  <path id="camera_photo" data-name="camera photo" d="M926.081,671.028H914.875l-1.243-3.807a2.977,2.977,0,0,0-2.708-1.954l-24.992,0a2.973,2.973,0,0,0-2.7,1.965l-1.24,3.794H870.785a2.4,2.4,0,0,0-2.388,2.391v37.858a2.4,2.4,0,0,0,2.388,2.387h55.3a2.4,2.4,0,0,0,2.388-2.389V673.417A2.4,2.4,0,0,0,926.081,671.028Zm-40.632-3.088a.709.709,0,0,1,.475-.342h.019l25,0a.716.716,0,0,1,.484.361l1,3.072H884.438Zm27.175,25.645c-.011.169-.025.339-.038.5l-.012.137-.01.1c-.019.186-.045.373-.072.564l-.014.1-.008.059c-.029.194-.068.39-.111.612l-.018.092c-.042.2-.085.4-.132.58l-.018.063-.012.046c-.05.2-.109.4-.167.594l-.021.069c-.067.209-.136.412-.224.651a14.168,14.168,0,0,1-2.826,4.65c-.136.152-.277.3-.437.457l-.051.053c-.138.135-.277.267-.418.4l-.095.086a14.248,14.248,0,0,1-5.959,3.207c-.221.058-.446.11-.7.16-.217.047-.436.086-.7.126-.219.034-.442.061-.662.085l-.035,0-.018,0c-.207.022-.418.037-.629.051a.53.53,0,0,0-.085,0c-.237.012-.48.018-.726.018s-.484-.006-.719-.018l-.052,0c-.223-.012-.443-.029-.653-.049l-.05-.007-.016,0c-.219-.022-.441-.051-.7-.091-.222-.034-.441-.073-.683-.123-.227-.047-.453-.1-.675-.157a14.237,14.237,0,0,1-5.964-3.215l-.035-.032-.05-.044c-.142-.133-.282-.265-.442-.428l-.042-.041c-.144-.144-.285-.291-.439-.458a14.228,14.228,0,0,1-2.822-4.663c-.075-.208-.146-.419-.2-.6a.763.763,0,0,0-.024-.074c-.065-.207-.123-.414-.174-.611l-.019-.076c-.051-.205-.1-.41-.142-.615l-.009-.045-.01-.055c-.043-.2-.078-.4-.112-.616l-.015-.113c-.029-.2-.056-.395-.075-.592l-.007-.068-.008-.091c-.016-.192-.033-.386-.044-.576-.013-.241-.02-.484-.02-.743s.009-.529.023-.793c.008-.1.015-.2.023-.3l.01-.1c.01-.123.02-.247.034-.373.017-.154.037-.306.06-.464.014-.1.028-.19.043-.284.029-.169.059-.336.094-.517l.017-.074.018-.085a13.823,13.823,0,0,1,.541-1.87l.006-.03c.071-.188.148-.377.228-.569l.026-.062.021-.054c.08-.184.161-.367.24-.532l.024-.043.031-.066a14.268,14.268,0,0,1,1.322-2.183l.06-.081.043-.056c.106-.145.218-.283.331-.422l.127-.155c.114-.135.227-.269.356-.411l.057-.061.056-.058a14.116,14.116,0,0,1,1.241-1.187l.069-.059.119-.1c.121-.1.245-.2.374-.292.074-.059.148-.116.226-.171.117-.086.234-.169.354-.253.209-.143.419-.283.634-.413.074-.047.152-.091.231-.134l.1-.061c.166-.093.332-.185.488-.268l.129-.069.229-.116c.236-.114.477-.224.726-.33.1-.042.2-.079.3-.119l.068-.025c.166-.065.333-.125.494-.182l.158-.053c.076-.029.15-.052.225-.076.255-.081.513-.152.775-.22.129-.03.261-.058.391-.09.2-.043.4-.082.591-.118l.131-.023c.067-.014.137-.025.207-.037.287-.043.576-.074.869-.1.106-.009.212-.018.313-.025.308-.021.641-.037.973-.037s.664.016.966.037c.108.007.213.016.319.025.293.028.584.061.859.1.084.013.169.03.251.047l.1.015c.2.035.4.076.592.119.132.03.266.058.394.088.256.068.512.138.766.218.1.033.21.07.314.106l.08.029c.162.056.324.116.484.176l.082.031c.1.037.2.077.3.121q.359.153.705.321c.112.056.221.113.373.192s.3.164.458.252.281.163.423.251c.189.115.375.238.554.361.129.09.258.179.374.264l.213.162c.131.1.263.2.383.3l.071.061.085.074a14.132,14.132,0,0,1,1.3,1.24l.081.087c.128.14.251.284.365.423l.062.073.047.056c.122.148.239.3.35.444l.076.1a14.383,14.383,0,0,1,1.34,2.2l.047.1c.088.183.17.367.266.592l.031.07c.078.191.156.383.221.555l.017.052,0,.012a14.332,14.332,0,0,1,.529,1.837l.024.1.019.1c.034.16.061.324.09.51.017.094.032.191.047.285.021.149.039.3.057.442s.025.273.037.41l.009.117c.008.08.014.162.019.249.016.265.025.533.025.8S912.636,693.344,912.624,693.585Zm-14.19-9.89a9.147,9.147,0,1,0,9.146,9.147A9.182,9.182,0,0,0,898.434,683.7Z" transform="translate(-868.397 -665.267)"/>
</svg>