<?xml version="1.0" encoding="utf-8"?>
<svg fill="#000000" width="800px" height="800px" viewBox="0 -6.75 59.695 59.695" xmlns="http://www.w3.org/2000/svg">
  <path id="computer_screen" data-name="computer screen" d="M627.9,145.513a2.507,2.507,0,0,0-2.5-2.505H570.713a2.511,2.511,0,0,0-2.506,2.506v35.481a2.516,2.516,0,0,0,2.506,2.5h20.9v.656a3.193,3.193,0,0,1-2.074,2.732h-.342c-.966,0-1.4.546-1.4,1.085v.156c0,.541.43,1.085,1.4,1.085h17.725c.965,0,1.4-.544,1.4-1.085v-.156c0-.539-.431-1.085-1.4-1.085h-.346a3.2,3.2,0,0,1-2.07-2.737V183.5h20.9a2.51,2.51,0,0,0,2.5-2.506l0-5.705Zm-34.8,41.36a4.872,4.872,0,0,0,.829-2.724V183.5h8.24v.656a4.874,4.874,0,0,0,.83,2.719Zm30.532-12.155H572.473V146.6h51.164Z" transform="translate(-568.207 -143.008)"/>
</svg>