<?xml version="1.0" encoding="utf-8"?>
<svg fill="#000000" width="800px" height="800px" viewBox="0 0 46.924 46.924" xmlns="http://www.w3.org/2000/svg">
  <path id="compass_safari" data-name="compass safari" d="M798.306,685.319c-.128,0-.259.009-.388.022l-.08.009c-.1.01-.2.025-.3.045l-.064.012c-.139.031-.249.059-.359.091-.037.013-.084.027-.131.045l-.055.02-.041.015-.071.026c-.076.031-.152.061-.226.1a4.367,4.367,0,0,0-.516.284h0l0,0a4.147,4.147,0,0,0-1.851,2.857c-.023.225-.046.407-.051.577v.029l0,.047a4.152,4.152,0,0,0,4.148,4.118,3.815,3.815,0,0,0,.382-.02c.046,0,.088-.01.129-.015.078-.01.156-.022.232-.036s.123-.024.18-.039l.083-.019.065-.017a4.218,4.218,0,0,0,1.361-.661,4.091,4.091,0,0,0,1.638-2.579,4.507,4.507,0,0,0,.073-.753,4.148,4.148,0,0,0-4.147-4.152Zm16.588-12.444a23.459,23.459,0,1,0,6.872,16.59A23.306,23.306,0,0,0,814.894,672.875Zm-4.2-.774-6.037,18.591a6.424,6.424,0,0,1-2.547,4.005l-14.294,13.344-.527.492-.608-.387-.379-.241-.612-.387.225-.689,6-18.354a6.48,6.48,0,0,1,2.824-4.409L808.8,670.893l.524-.5.61.39.379.241.61.388Zm-13.853,23.666c-.149-.036-.27-.064-.387-.1-.078-.023-.158-.051-.238-.079-.12-.042-.231-.08-.336-.122-.086-.037-.167-.072-.248-.111-.1-.045-.205-.093-.306-.148-.077-.039-.155-.081-.233-.126-.1-.057-.2-.115-.294-.18-.071-.046-.144-.093-.212-.142-.088-.063-.176-.13-.266-.2l-.007,0-.041-.034c-.055-.044-.11-.087-.163-.134-.08-.066-.166-.147-.254-.232l-.04-.036c-.046-.044-.092-.088-.137-.135-.088-.09-.167-.18-.248-.269l-.034-.04c-.041-.047-.082-.093-.12-.14-.072-.088-.145-.187-.219-.289l0,0-.024-.037c-.054-.068-.08-.1-.1-.142l-.043-.064-3.352,10.251,7.906-7.38c-.156-.019-.276-.038-.392-.06C796.987,695.8,796.916,695.785,796.844,695.767Z" transform="translate(-774.85 -666.004)"/>
</svg>