<?xml version="1.0" encoding="utf-8"?>
<svg fill="#000000" width="800px" height="800px" viewBox="0 0 50.661 50.661" xmlns="http://www.w3.org/2000/svg">
  <path id="help" d="M893.09,570.095a15.653,15.653,0,0,1,10.685,0l3.4-3.4,3.867-3.868a25.3,25.3,0,0,0-25.216,0l3.867,3.868Zm-8.321,7.091c.2-.354.407-.7.615-1.008,0,0,.02-.035.042-.067.19-.285.412-.592.674-.927l.068-.088.033-.04c.24-.3.49-.6.747-.872l.056-.058,0-.005.032-.035c.286-.3.556-.57.826-.817s.568-.5.9-.767l.141-.11c.315-.244.617-.458.922-.659l.09-.056.005-.005.041-.025c.306-.2.589-.369.86-.521L888.705,569l-.658-.658-.656-.652v0l-3.57-3.571-.1.072c-.091.063-.182.125-.271.191-.12.088-.228.173-.336.256l-.152.119c-.68.527-1.336,1.09-1.951,1.673-.235.222-.463.446-.689.677-.159.164-.32.33-.475.5-.2.216-.4.437-.586.658-.3.347-.588.7-.86,1.053l-.156.2c-.074.1-.15.192-.223.291s-.137.193-.2.291l-.059.086,7.012,7.012Zm21.266-6.059c.227.126.467.27.74.442l.168.108a16.46,16.46,0,0,1,1.642,1.227c.055.045.108.092.163.142.252.22.5.456.741.694s.484.5.7.747l.129.15a15.981,15.981,0,0,1,1.235,1.649l.105.167c.17.272.317.51.444.738l2.782-2.783,4.227-4.226-.047-.067c-.074-.107-.147-.215-.223-.319-.061-.082-.122-.16-.184-.237l-.132-.17c-.34-.443-.694-.876-1.052-1.283-.162-.184-.325-.366-.492-.544-.126-.134-.247-.267-.375-.4q-.262-.27-.53-.533c-.5-.479-1-.934-1.5-1.351l-.082-.067-.05-.042c-.291-.237-.586-.468-.886-.689-.11-.082-.217-.16-.327-.237l-.184-.134-4.228,4.228Zm-22.3,19.01a15.634,15.634,0,0,1,0-10.684l-3.4-3.4-3.869-3.872a25.314,25.314,0,0,0,0,25.224l3.866-3.871ZM912.1,592.4c-.077.135-.161.278-.245.419-.015.024-.037.058-.056.09l-.006.007-.024.041-.267.421c-.033.051-.063.1-.1.161-.181.27-.373.53-.572.789-.043.057-.091.116-.138.175-.184.233-.366.449-.553.66-.049.059-.074.087-.1.114-.208.228-.431.459-.658.684l-.12.113-.053.051c-.188.178-.382.354-.583.526l-.158.137c-.247.206-.495.4-.75.592l-.116.082-.063.045c-.209.151-.419.29-.633.431l-.048.031c-.061.041-.126.08-.187.121-.208.127-.421.254-.636.375l2.783,2.785,4.227,4.226.057-.04c.107-.073.214-.148.318-.225.082-.059.16-.12.236-.182l.163-.125a25.51,25.51,0,0,0,4.738-4.742l.115-.147c.058-.071.113-.147.172-.222.076-.106.148-.212.222-.318l.045-.065-4.227-4.227Zm8.3-20.214-3.869,3.873-3.4,3.4a15.633,15.633,0,0,1,0,10.684l3.4,3.4,3.869,3.871a25.311,25.311,0,0,0,0-25.224ZM903.774,599.49a15.628,15.628,0,0,1-10.682,0l-3.4,3.4-3.87,3.87a25.314,25.314,0,0,0,25.219,0l-3.867-3.87Zm-12.94-1.029c-.063-.033-.127-.072-.191-.109l-.093-.053c-.115-.07-.22-.131-.323-.193s-.21-.132-.313-.2l-.076-.048c-.074-.049-.15-.1-.223-.149-.107-.073-.211-.146-.31-.219l-.078-.055c-.071-.051-.14-.1-.21-.156s-.152-.117-.226-.176l-.064-.05-.1-.078c-.063-.05-.124-.1-.183-.148s-.137-.117-.209-.178l-.075-.067-.041-.035c-.076-.064-.153-.133-.228-.2s-.124-.116-.188-.178l-.1-.091c-.163-.157-.312-.309-.463-.464l-.072-.074c-.064-.068-.129-.136-.193-.206s-.147-.164-.222-.251l-.034-.038-.052-.061c-.057-.065-.113-.129-.17-.2s-.113-.138-.169-.207l-.072-.094-.074-.093c-.045-.059-.092-.117-.136-.174s-.1-.139-.151-.207l-.076-.11-.077-.1-.118-.167c-.081-.119-.152-.232-.227-.348-.053-.08-.116-.176-.174-.271-.069-.111-.14-.23-.209-.348-.052-.088-.1-.18-.153-.266l-2.787,2.783-4.224,4.227.064.094c.063.09.123.18.187.265.112.155.231.3.348.454l.106.137a25.376,25.376,0,0,0,4.6,4.55l.171.134.209.161c.124.09.248.177.373.262l.013.009,4.225-4.226Z" transform="translate(-873.103 -559.464)"/>
</svg>