<?xml version="1.0" encoding="utf-8"?>
<svg fill="#000000" width="800px" height="800px" viewBox="-10.32 0 63.241 63.241" xmlns="http://www.w3.org/2000/svg">
  <path id="microphone_with_stand" data-name="microphone with stand" d="M418.17,681.242l-2.49-.01v-.042a2.327,2.327,0,0,0-2.36-2.265h-.011V663.406a5.59,5.59,0,0,0-5.589-5.561H387.885a5.586,5.586,0,0,0-5.587,5.564v15.516h-.014a2.33,2.33,0,0,0-2.362,2.27v.047H376.5v21.842a7.26,7.26,0,0,0,7.25,7.221h8.9v3.8h-6.692a2.272,2.272,0,0,0-2.268,2.267v2.444a2.274,2.274,0,0,0,2.269,2.269l23.684,0h0a2.282,2.282,0,0,0,2.266-2.271v-2.444a2.274,2.274,0,0,0-2.268-2.267H402.95v-3.8h8.908a7.257,7.257,0,0,0,7.244-7.222V681.242Zm-8.584,35.189v2.325H386.019v-2.325l7.564,0,8.437,0Zm7.188-13.349a4.929,4.929,0,0,1-4.916,4.9h-28.1a4.933,4.933,0,0,1-4.925-4.9V683.567h3.206V700.9a3.825,3.825,0,0,0,.156,1.071,3.916,3.916,0,0,0,2.9,2.7,3.864,3.864,0,0,0,.846.1h23.728a3.925,3.925,0,0,0,3.763-2.867c.008-.034.018-.069.027-.1a3.808,3.808,0,0,0,.112-.9V683.567h3.2Z" transform="translate(-376.503 -657.845)"/>
</svg>