<?xml version="1.0" encoding="utf-8"?>
<svg fill="#000000" width="800px" height="800px" viewBox="-2.96 0 53.081 53.081" xmlns="http://www.w3.org/2000/svg">
  <path id="note_taking" data-name="note taking" d="M374.217,139.739v52.744a.173.173,0,0,0,.168.167h8.384V139.569h-8.384A.174.174,0,0,0,374.217,139.739Zm42.587-.17H385.1V192.65h31.7a.172.172,0,0,0,.166-.17V139.738A.173.173,0,0,0,416.8,139.569Zm4.106,5.662h-1.719v8.889h1.726c.248,0,.47-.08.47-.168V145.4C421.387,145.314,421.161,145.231,420.91,145.231Zm0,32.87h-1.719v8.886h1.726c.248,0,.47-.077.47-.168V178.27C421.387,178.18,421.165,178.1,420.91,178.1Zm0-16.433h-1.719v8.886h1.726c.252,0,.47-.079.47-.171v-8.548C421.387,161.746,421.165,161.668,420.91,161.668Z" transform="translate(-374.217 -139.569)"/>
</svg>