<?xml version="1.0" encoding="utf-8"?>
<svg fill="#000000" width="800px" height="800px" viewBox="-1.75 0 53.403 53.403" xmlns="http://www.w3.org/2000/svg">
  <path id="server_connected" data-name="server connected" d="M302.435,710.775l-.009-.05c-.012-.09-.021-.163-.034-.237s-.04-.185-.064-.28l-.03-.12c-.032-.111-.066-.211-.1-.313a4.777,4.777,0,0,0-2.9-2.919,5.224,5.224,0,0,0-3.27.009,4.766,4.766,0,0,0-2.872,2.9c-.038.107-.072.216-.1.328l-.028.1c-.021.092-.046.188-.063.281-.014.077-.024.133-.032.192l-.016.119c-.006.035-.012.072-.015.111a4.587,4.587,0,0,0-.022.464,4.313,4.313,0,0,0,.022.456c0,.047.01.086.015.126l.011.072c.013.1.023.16.035.216.018.108.041.2.063.293l.035.129c.027.094.061.2.1.3a4.791,4.791,0,0,0,9.047-.013c.034-.1.065-.195.094-.3l.033-.128c.023-.094.044-.187.063-.281.011-.062.021-.123.028-.181l.017-.127c.007-.041.013-.08.018-.12.012-.138.021-.293.021-.448s-.009-.308-.022-.462C302.448,710.87,302.44,710.822,302.435,710.775Zm-11.834-.237,0-.034h-6.1v1.727h6.1c-.011-.072-.019-.151-.027-.231-.018-.2-.032-.415-.032-.632s.014-.43.035-.641C290.586,710.666,290.593,710.6,290.6,710.538Zm14.151.015c.009.062.015.123.022.187.021.209.031.42.031.628a6.106,6.106,0,0,1-.034.648c-.005.063-.016.139-.025.215h6.1V710.5h-6.1Zm-6.212-6.263v-3.648h-1.725v3.648a7.047,7.047,0,0,1,1.725,0ZM282.117,667.9a2.5,2.5,0,1,0,2.506,2.5A2.516,2.516,0,0,0,282.117,667.9Zm0,25.28a2.5,2.5,0,1,0-2.5-2.5A2.516,2.516,0,0,0,282.117,693.18Zm-9.4-30.416v15.277h49.91V662.764Zm9.4,12.47a4.831,4.831,0,1,1,4.833-4.83A4.838,4.838,0,0,1,282.117,675.234Zm-9.4,23.08H322.63V683.035H272.722Zm9.394-12.472a4.832,4.832,0,1,1-4.829,4.836A4.841,4.841,0,0,1,282.116,685.842Z" transform="translate(-272.722 -662.764)"/>
</svg>