<?xml version="1.0" encoding="utf-8"?>
<svg fill="#000000" width="800px" height="800px" viewBox="0 -2.23 53.902 53.902" xmlns="http://www.w3.org/2000/svg">
  <path id="sofa" d="M381.568,483.5v16.192h32.47V483.5Zm-2.768-8.7a1.019,1.019,0,0,0-.569-.181H371.86a1.012,1.012,0,0,0-1.008,1.01V500.45a1.011,1.011,0,0,0,1.008,1.006h6.375a1.017,1.017,0,0,0,.981-.8,1.134,1.134,0,0,0,.019-.182v-.059l.005-.026V475.625A1.021,1.021,0,0,0,378.8,474.8Zm-5.033,28.988v1.064h2.557v-1.064Zm45.166-31.495V460.746a5.37,5.37,0,0,0-5.351-5.348h-31.56a5.369,5.369,0,0,0-5.349,5.35v11.541h1.562a3.339,3.339,0,0,1,3.333,3.334v5.551h32.469v-5.549a3.356,3.356,0,0,1,3.333-3.336Zm.347,32.559h2.557v-1.064H419.28Zm4.466-30.233H417.37a1.151,1.151,0,0,0-.242.037,1.032,1.032,0,0,0-.674.569c-.006.019-.012.035-.017.054a1.031,1.031,0,0,0-.072.354V500.45a.784.784,0,0,0,.022.183,1.017,1.017,0,0,0,.986.823h6.375a1.023,1.023,0,0,0,1.006-1.007V475.625A1.013,1.013,0,0,0,423.746,474.615Z" transform="translate(-370.852 -455.398)"/>
</svg>