<?xml version="1.0" encoding="utf-8"?>
<svg fill="#000000" width="800px" height="800px" viewBox="-5.67 0 57.128 57.128" xmlns="http://www.w3.org/2000/svg">
  <path id="target_flag" data-name="target flag" d="M715.477,266.638l5.148-14.184.453-1.248H709.559v.931l0,.467-.037,27.18h-3.344l.008,0,.193-.065.64-.212V248.924H685.682a4.181,4.181,0,1,0-5.431,1.083V292.5h-.976a2,2,0,0,0-2.091,1.868v.2a1.977,1.977,0,0,0-1.9,1.859v2.918h14.251V296.4a1.94,1.94,0,0,0-1.9-1.835v-.224a1.993,1.993,0,0,0-2.092-1.843h-.861V279.829h13.155v2.284h23.235l-.451-1.249Zm-32.344-18.311a2.119,2.119,0,0,1-.311.1.232.232,0,0,1-.028.008,2.183,2.183,0,0,1-.364.044c-.021,0-.041.005-.062.005h-.03a1.819,1.819,0,0,1-.315-.033l-.015,0a2.133,2.133,0,0,1-.3-.079l-.181-.057a2.085,2.085,0,1,1,1.608.018Z" transform="translate(-675.284 -242.217)"/>
</svg>