<?xml version="1.0" encoding="utf-8"?>
<svg fill="#000000" width="800px" height="800px" viewBox="-3.46 0 56.36 56.36" xmlns="http://www.w3.org/2000/svg">
  <path id="wall_painting" data-name="wall painting" d="M292.372,298.961h5.547V284.944h-5.547Zm-2.16-16.341h.765v0h8.34l.764,0v-1.654h-9.869Zm23.609-22.2v-6.643l0-3.512,0-6.8a.886.886,0,0,0-.872-.869H273.83a.874.874,0,0,0-.871.871v6.8l0,3.516h0v6.643a.884.884,0,0,0,.872.868h39.121A.885.885,0,0,0,313.821,260.425Zm4.144-8.762h-1.818v.725h1.819a3.715,3.715,0,0,1,3.7,3.7V261.1a.906.906,0,0,1,0,.106,5.694,5.694,0,0,1-3.643,4.88l-19.1,6.155a6.259,6.259,0,0,0-4.124,5.678v.718h.724v-.726l-.005-.082a5.69,5.69,0,0,1,3.651-4.909l19.1-6.154a6.256,6.256,0,0,0,4.123-5.676v-5A4.45,4.45,0,0,0,317.965,251.663Z" transform="translate(-272.959 -242.601)"/>
</svg>