<?xml version="1.0" ?>


<svg width="800px" height="800px" viewBox="0 0 20 20" version="1.1" xmlns="http://www.w3.org/2000/svg">

<g id="layer1">

<path d="M 9.5039062 0.5 A 0.50005 0.50005 0 0 0 9.0527344 0.77734375 L 7.5527344 3.7773438 A 0.50005 0.50005 0 0 0 8 4.5 L 9 4.5 L 9 16.126953 C 8.6779918 15.76959 8.2801946 15.419218 7.7773438 15.083984 C 6.5844052 14.288693 6.1589762 13.589873 6.0488281 12.890625 C 6.6030456 12.66935 7 12.128953 7 11.5 C 7 10.677495 6.3225048 10 5.5 10 C 4.6774952 10 4 10.677495 4 11.5 C 4 12.157614 4.4352792 12.715942 5.0292969 12.916016 C 5.1666531 13.947414 5.8257402 14.984738 7.2226562 15.916016 C 8.6373178 16.859123 9 17.666667 9 18.5 L 9 20 L 10 20 L 10 18.5 L 10 15.5 C 10 14.666667 10.362682 13.859123 11.777344 12.916016 C 13.1363 12.010044 13.793624 11.003563 13.955078 10 L 14.5 10 A 0.50005 0.50005 0 0 0 15 9.5 L 15 7.5 A 0.50005 0.50005 0 0 0 14.5 7 L 12.5 7 A 0.50005 0.50005 0 0 0 12 7.5 L 12 9.5 A 0.50005 0.50005 0 0 0 12.5 10 L 12.9375 10 C 12.798997 10.663072 12.353513 11.330081 11.222656 12.083984 C 10.719805 12.419218 10.322008 12.76959 10 13.126953 L 10 4.5 L 11 4.5 A 0.50005 0.50005 0 0 0 11.447266 3.7773438 L 9.9472656 0.77734375 A 0.50005 0.50005 0 0 0 9.5039062 0.5 z M 9.5 2.1171875 L 10.191406 3.5 L 8.8085938 3.5 L 9.5 2.1171875 z M 13 8 L 14 8 L 14 9 L 13 9 L 13 8 z M 5.5 11 C 5.7820647 11 6 11.217935 6 11.5 C 6 11.782065 5.7820647 12 5.5 12 C 5.2179353 12 5 11.782065 5 11.5 C 5 11.217935 5.2179353 11 5.5 11 z " style="fill:#222222; fill-opacity:1; stroke:none; stroke-width:0px;"/>

</g>

</svg>