<?xml version="1.0" ?>


<svg width="800px" height="800px" viewBox="0 0 20 20" version="1.1" xmlns="http://www.w3.org/2000/svg">

<g id="layer1">

<path d="M 9.5,1 6,4.5 6.7070312,5.2070312 9,2.9140625 V 14 h 1 V 2.9140625 L 12.292969,5.2070312 13,4.5 Z M 11,6.1816406 V 7.2167969 A 5.5,5.5 0 0 1 14.470703,10.158203 3.5,3.5 0 0 1 15.5,10 3.5,3.5 0 0 1 19,13.5 3.5,3.5 0 0 1 15.5,17 3.5,3.5 0 0 1 13.441406,16.326172 5.5,5.5 0 0 1 9.5,18 5.5,5.5 0 0 1 5.6992188,16.466797 3,3 0 0 1 4,17 3,3 0 0 1 1,14 3,3 0 0 1 4,11 3,3 0 0 1 4.2109375,11.011719 5.5,5.5 0 0 1 8,7.2148438 v -1.03125 A 6.5,6.5 0 0 0 3.4882812,10.037109 4,4 0 0 0 0,14 4,4 0 0 0 4,18 4,4 0 0 0 5.5761719,17.671875 6.5,6.5 0 0 0 9.5,19 6.5,6.5 0 0 0 13.576172,17.5625 4.5,4.5 0 0 0 15.5,18 4.5,4.5 0 0 0 20,13.5 4.5,4.5 0 0 0 15.5,9 4.5,4.5 0 0 0 14.996094,9.0351562 6.5,6.5 0 0 0 11,6.1816406 Z" style="fill:#222222; fill-opacity:1; stroke:none; stroke-width:0px;"/>

</g>

</svg>