<?xml version="1.0" ?>


<svg width="800px" height="800px" viewBox="0 0 20 20" version="1.1" xmlns="http://www.w3.org/2000/svg">

<g id="layer1">

<path d="M 0,2 V 8 H 1 V 9 H 0 v 6 H 20 V 9 H 19 V 8 h 1 V 2 Z M 1,3 H 19 V 7 H 1 Z M 2,4 V 5 H 3 V 4 Z M 4,4 V 5 H 5 V 4 Z M 2,8 H 18 V 9 H 2 Z m -1,2 h 18 v 4 H 1 Z m 1,1 v 1 h 1 v -1 z m 2,0 v 1 h 1 v -1 z m 4,5 v 1 H 0 v 1 h 8 v 1 h 4 v -1 h 8 v -1 h -8 v -1 z m 1,1 h 2 v 1 H 9 Z" style="fill:#222222; fill-opacity:1; stroke:none; stroke-width:0px;"/>

</g>

</svg>