<?xml version="1.0" ?>

<!DOCTYPE svg  PUBLIC '-//W3C//DTD SVG 1.1//EN'  'http://www.w3.org/Graphics/SVG/1.1/DTD/svg11.dtd'>


<svg width="800px" height="800px" viewBox="0 0 512 512" enable-background="new 0 0 512 512" id="Layer_1" version="1.1" xml:space="preserve" xmlns="http://www.w3.org/2000/svg" xmlns:xlink="http://www.w3.org/1999/xlink">

<g>

<path d="   M371,382c0,6.627-5.373,12-12,12H153c-6.627,0-12-5.373-12-12V130c0-6.627,5.373-12,12-12h206c6.627,0,12,5.373,12,12V382z" fill="none" stroke="#3B3A3E" stroke-linecap="round" stroke-linejoin="round" stroke-miterlimit="10" stroke-width="20"/>

<circle cx="256" cy="256" fill="none" r="82.276" stroke="#3B3A3E" stroke-linecap="round" stroke-linejoin="round" stroke-miterlimit="10" stroke-width="20"/>

<path d="   M256,293.276c-20.554,0-37.276-16.722-37.276-37.276s16.722-37.276,37.276-37.276s37.276,16.722,37.276,37.276   S276.554,293.276,256,293.276z" fill="none" stroke="#3B3A3E" stroke-linecap="round" stroke-linejoin="round" stroke-miterlimit="10" stroke-width="20"/>

<path d="   M371,382c0,6.627-5.373,12-12,12H153c-6.627,0-12-5.373-12-12V130c0-6.627,5.373-12,12-12h206c6.627,0,12,5.373,12,12V382z" fill="#D9DCE1" stroke="#3B3A3E" stroke-linecap="round" stroke-linejoin="round" stroke-miterlimit="10" stroke-width="20"/>

<circle cx="256" cy="256" fill="#3C74BA" r="82.276" stroke="#3B3A3E" stroke-linecap="round" stroke-linejoin="round" stroke-miterlimit="10" stroke-width="20"/>

<path d="   M256,293.276c-20.554,0-37.276-16.722-37.276-37.276s16.722-37.276,37.276-37.276s37.276,16.722,37.276,37.276   S276.554,293.276,256,293.276z" fill="#D9DCE1" stroke="#3B3A3E" stroke-linecap="round" stroke-linejoin="round" stroke-miterlimit="10" stroke-width="20"/>

</g>

</svg>