<?xml version="1.0" ?>

<!DOCTYPE svg  PUBLIC '-//W3C//DTD SVG 1.1//EN'  'http://www.w3.org/Graphics/SVG/1.1/DTD/svg11.dtd'>


<svg width="800px" height="800px" viewBox="0 0 512 512" enable-background="new 0 0 512 512" id="Layer_1" version="1.1" xml:space="preserve" xmlns="http://www.w3.org/2000/svg" xmlns:xlink="http://www.w3.org/1999/xlink">

<g>

<path d="   M347.21,220.376v146.469H81.814V220.376h0.174c4.371,32.348,32.087,57.29,65.649,57.29c33.562,0,61.277-24.942,65.649-57.29h0.607   c0,36.595,29.661,66.256,66.256,66.256s66.256-29.661,66.256-66.256H347.21z" fill="none" stroke="#3B3A3E" stroke-linecap="round" stroke-linejoin="round" stroke-miterlimit="10" stroke-width="20"/>

<polygon fill="none" points="   430.619,343.625 346.405,315.76 346.405,273.654 430.619,238.978  " stroke="#3B3A3E" stroke-linecap="round" stroke-linejoin="round" stroke-miterlimit="10" stroke-width="20"/>

<path d="   M213.893,211.41c0,3.047-0.21,6.031-0.607,8.966c-4.372,32.348-32.087,57.29-65.649,57.29c-33.562,0-61.278-24.942-65.649-57.29   c-0.397-2.936-0.607-5.919-0.607-8.966c0-36.596,29.661-66.256,66.256-66.256C184.232,145.154,213.893,174.814,213.893,211.41z" fill="none" stroke="#3B3A3E" stroke-linecap="round" stroke-linejoin="round" stroke-miterlimit="10" stroke-width="20"/>

<path d="   M346.405,220.376c0,36.595-29.66,66.256-66.256,66.256s-66.256-29.661-66.256-66.256c0-36.583,29.661-66.256,66.256-66.256   S346.405,183.793,346.405,220.376z" fill="none" stroke="#3B3A3E" stroke-linecap="round" stroke-linejoin="round" stroke-miterlimit="10" stroke-width="20"/>

<line fill="none" stroke="#3B3A3E" stroke-linecap="round" stroke-linejoin="round" stroke-miterlimit="10" stroke-width="20" x1="116.676" x2="178.598" y1="333.718" y2="333.718"/>

<path d="   M347.21,220.376v146.469H81.814V220.376h0.174c4.371,32.348,32.087,57.29,65.649,57.29c33.562,0,61.277-24.942,65.649-57.29h0.607   c0,36.595,29.661,66.256,66.256,66.256s66.256-29.661,66.256-66.256H347.21z" fill="#65A0D6" stroke="#3B3A3E" stroke-linecap="round" stroke-linejoin="round" stroke-miterlimit="10" stroke-width="20"/>

<polygon fill="#65A0D6" points="   430.619,343.625 346.405,315.76 346.405,273.654 430.619,238.978  " stroke="#3B3A3E" stroke-linecap="round" stroke-linejoin="round" stroke-miterlimit="10" stroke-width="20"/>

<path d="   M213.893,211.41c0,3.047-0.21,6.031-0.607,8.966c-4.372,32.348-32.087,57.29-65.649,57.29c-33.562,0-61.278-24.942-65.649-57.29   c-0.397-2.936-0.607-5.919-0.607-8.966c0-36.596,29.661-66.256,66.256-66.256C184.232,145.154,213.893,174.814,213.893,211.41z" fill="#D9DCE1" stroke="#3B3A3E" stroke-linecap="round" stroke-linejoin="round" stroke-miterlimit="10" stroke-width="20"/>

<path d="   M346.405,220.376c0,36.595-29.66,66.256-66.256,66.256s-66.256-29.661-66.256-66.256c0-36.583,29.661-66.256,66.256-66.256   S346.405,183.793,346.405,220.376z" fill="#D9DCE1" stroke="#3B3A3E" stroke-linecap="round" stroke-linejoin="round" stroke-miterlimit="10" stroke-width="20"/>

<line fill="none" stroke="#3B3A3E" stroke-linecap="round" stroke-linejoin="round" stroke-miterlimit="10" stroke-width="20" x1="116.676" x2="178.598" y1="333.718" y2="333.718"/>

</g>

</svg>