<?xml version="1.0" ?>

<!DOCTYPE svg  PUBLIC '-//W3C//DTD SVG 1.1//EN'  'http://www.w3.org/Graphics/SVG/1.1/DTD/svg11.dtd'>


<svg width="800px" height="800px" viewBox="0 0 512 512" enable-background="new 0 0 512 512" id="Layer_1" version="1.1" xml:space="preserve" xmlns="http://www.w3.org/2000/svg" xmlns:xlink="http://www.w3.org/1999/xlink">

<g>

<path d="   M99.784,192.855l-7.146-31.603c-1.314-5.813,2.963-11.743,9.557-13.233l278.353-62.942c6.594-1.491,13.006,2.021,14.32,7.834   l7.146,31.603L99.784,192.855z" fill="#3C74BA" stroke="#3B3A3E" stroke-linecap="round" stroke-linejoin="round" stroke-miterlimit="10" stroke-width="20"/>

<line fill="#3C74BA" stroke="#3B3A3E" stroke-linecap="round" stroke-linejoin="round" stroke-miterlimit="10" stroke-width="20" x1="134.542" x2="191.338" y1="140.554" y2="172.303"/>

<line fill="#3C74BA" stroke="#3B3A3E" stroke-linecap="round" stroke-linejoin="round" stroke-miterlimit="10" stroke-width="20" x1="258.7" x2="312.207" y1="114.289" y2="144.324"/>

<path d="   M99.784,192.855l-7.146-31.603c-1.314-5.813,2.963-11.743,9.557-13.233l278.353-62.942c6.594-1.491,13.006,2.021,14.32,7.834   l7.146,31.603L99.784,192.855z" fill="#3C74BA" stroke="#3B3A3E" stroke-linecap="round" stroke-linejoin="round" stroke-miterlimit="10" stroke-width="20"/>

<line fill="#3C74BA" stroke="#3B3A3E" stroke-linecap="round" stroke-linejoin="round" stroke-miterlimit="10" stroke-width="20" x1="134.542" x2="191.338" y1="140.554" y2="172.303"/>

<line fill="#3C74BA" stroke="#3B3A3E" stroke-linecap="round" stroke-linejoin="round" stroke-miterlimit="10" stroke-width="20" x1="258.7" x2="312.207" y1="114.289" y2="144.324"/>

<path d="   M419.6,415.266c0,6.627-5.342,12-11.93,12H111.412c-6.589,0-11.93-5.373-11.93-12v-159c0-6.627,5.341-12,11.93-12H407.67   c6.588,0,11.93,5.373,11.93,12V415.266z" fill="none" stroke="#3B3A3E" stroke-linecap="round" stroke-linejoin="round" stroke-miterlimit="10" stroke-width="20"/>

<rect fill="none" height="51" stroke="#3B3A3E" stroke-linecap="round" stroke-linejoin="round" stroke-miterlimit="10" stroke-width="20" width="319.89" x="99.596" y="193.266"/>

<line fill="none" stroke="#3B3A3E" stroke-linecap="round" stroke-linejoin="round" stroke-miterlimit="10" stroke-width="20" x1="155.207" x2="205.374" y1="193.266" y2="243.433"/>

<line fill="none" stroke="#3B3A3E" stroke-linecap="round" stroke-linejoin="round" stroke-miterlimit="10" stroke-width="20" x1="283.207" x2="333.374" y1="193.266" y2="243.433"/>

<path d="   M419.6,415.266c0,6.627-5.342,12-11.93,12H111.412c-6.589,0-11.93-5.373-11.93-12v-159c0-6.627,5.341-12,11.93-12H407.67   c6.588,0,11.93,5.373,11.93,12V415.266z" fill="#D9DCE1" stroke="#3B3A3E" stroke-linecap="round" stroke-linejoin="round" stroke-miterlimit="10" stroke-width="20"/>

<rect fill="#3C74BA" height="51" stroke="#3B3A3E" stroke-linecap="round" stroke-linejoin="round" stroke-miterlimit="10" stroke-width="20" width="319.89" x="99.596" y="193.266"/>

<line fill="none" stroke="#3B3A3E" stroke-linecap="round" stroke-linejoin="round" stroke-miterlimit="10" stroke-width="20" x1="155.207" x2="205.374" y1="193.266" y2="243.433"/>

<line fill="none" stroke="#3B3A3E" stroke-linecap="round" stroke-linejoin="round" stroke-miterlimit="10" stroke-width="20" x1="283.207" x2="333.374" y1="193.266" y2="243.433"/>

</g>

</svg>