<?xml version="1.0" ?>

<!DOCTYPE svg  PUBLIC '-//W3C//DTD SVG 1.1//EN'  'http://www.w3.org/Graphics/SVG/1.1/DTD/svg11.dtd'>


<svg width="800px" height="800px" viewBox="0 0 512 512" enable-background="new 0 0 512 512" id="Layer_1" version="1.1" xml:space="preserve" xmlns="http://www.w3.org/2000/svg" xmlns:xlink="http://www.w3.org/1999/xlink">

<g>

<rect fill="none" height="265.377" stroke="#3B3A3E" stroke-linecap="round" stroke-linejoin="round" stroke-miterlimit="10" stroke-width="20" width="377.98" x="67.01" y="82.061"/>

<polygon fill="none" points="   190.956,139.643 321.044,214.75 190.956,289.857  " stroke="#3B3A3E" stroke-linecap="round" stroke-linejoin="round" stroke-miterlimit="10" stroke-width="20"/>

<line fill="none" stroke="#3B3A3E" stroke-linecap="round" stroke-linejoin="round" stroke-miterlimit="10" stroke-width="20" x1="444.99" x2="143" y1="405.939" y2="405.939"/>

<line fill="none" stroke="#3B3A3E" stroke-linecap="round" stroke-linejoin="round" stroke-miterlimit="10" stroke-width="20" x1="100" x2="67.01" y1="405.939" y2="405.939"/>

<path d="   M143,393.939v24c0,6.62-5.37,12-12,12h-19c-6.63,0-12-5.38-12-12v-24c0-6.63,5.37-12,12-12h19   C137.63,381.939,143,387.309,143,393.939z" fill="none" stroke="#3B3A3E" stroke-linecap="round" stroke-linejoin="round" stroke-miterlimit="10" stroke-width="20"/>

<rect fill="#D9DCE1" height="265.377" stroke="#3B3A3E" stroke-linecap="round" stroke-linejoin="round" stroke-miterlimit="10" stroke-width="20" width="377.98" x="67.01" y="82.061"/>

<polygon fill="#65A0D6" points="   190.956,139.643 321.044,214.75 190.956,289.857  " stroke="#3B3A3E" stroke-linecap="round" stroke-linejoin="round" stroke-miterlimit="10" stroke-width="20"/>

<line fill="none" stroke="#3B3A3E" stroke-linecap="round" stroke-linejoin="round" stroke-miterlimit="10" stroke-width="20" x1="444.99" x2="143" y1="405.939" y2="405.939"/>

<line fill="none" stroke="#3B3A3E" stroke-linecap="round" stroke-linejoin="round" stroke-miterlimit="10" stroke-width="20" x1="100" x2="67.01" y1="405.939" y2="405.939"/>

<path d="   M143,393.939v24c0,6.62-5.37,12-12,12h-19c-6.63,0-12-5.38-12-12v-24c0-6.63,5.37-12,12-12h19   C137.63,381.939,143,387.309,143,393.939z" fill="none" stroke="#3B3A3E" stroke-linecap="round" stroke-linejoin="round" stroke-miterlimit="10" stroke-width="20"/>

</g>

</svg>