<?xml version="1.0" ?>

<!DOCTYPE svg  PUBLIC '-//W3C//DTD SVG 1.1//EN'  'http://www.w3.org/Graphics/SVG/1.1/DTD/svg11.dtd'>


<svg width="800px" height="800px" viewBox="0 0 512 512" enable-background="new 0 0 512 512" id="Layer_1" version="1.1" xml:space="preserve" xmlns="http://www.w3.org/2000/svg" xmlns:xlink="http://www.w3.org/1999/xlink">

<g>

<rect fill="none" height="214" stroke="#3B3A3E" stroke-linecap="round" stroke-linejoin="round" stroke-miterlimit="10" stroke-width="20" width="304" x="104" y="121.665"/>

<path d="   M433.333,109.665c0,6.627-5.373,12-12,12H90.667c-6.628,0-12-5.373-12-12v-8.667c0-6.628,5.372-12,12-12h330.666   c6.627,0,12,5.372,12,12V109.665z" fill="none" stroke="#3B3A3E" stroke-linecap="round" stroke-linejoin="round" stroke-miterlimit="10" stroke-width="20"/>

<line fill="none" stroke="#3B3A3E" stroke-linecap="round" stroke-linejoin="round" stroke-miterlimit="10" stroke-width="20" x1="256" x2="256" y1="335.665" y2="423.002"/>

<line fill="none" stroke="#3B3A3E" stroke-linecap="round" stroke-linejoin="round" stroke-miterlimit="10" stroke-width="20" x1="256" x2="195.332" y1="335.665" y2="396.333"/>

<line fill="none" stroke="#3B3A3E" stroke-linecap="round" stroke-linejoin="round" stroke-miterlimit="10" stroke-width="20" x1="256" x2="315.334" y1="335.665" y2="394.999"/>

<rect fill="#65A0D6" height="214" stroke="#3B3A3E" stroke-linecap="round" stroke-linejoin="round" stroke-miterlimit="10" stroke-width="20" width="304" x="104" y="121.665"/>

<path d="   M433.333,109.665c0,6.627-5.373,12-12,12H90.667c-6.628,0-12-5.373-12-12v-8.667c0-6.628,5.372-12,12-12h330.666   c6.627,0,12,5.372,12,12V109.665z" fill="#D9DCE1" stroke="#3B3A3E" stroke-linecap="round" stroke-linejoin="round" stroke-miterlimit="10" stroke-width="20"/>

<line fill="none" stroke="#3B3A3E" stroke-linecap="round" stroke-linejoin="round" stroke-miterlimit="10" stroke-width="20" x1="256" x2="256" y1="335.665" y2="423.002"/>

<line fill="none" stroke="#3B3A3E" stroke-linecap="round" stroke-linejoin="round" stroke-miterlimit="10" stroke-width="20" x1="256" x2="195.332" y1="335.665" y2="396.333"/>

<line fill="none" stroke="#3B3A3E" stroke-linecap="round" stroke-linejoin="round" stroke-miterlimit="10" stroke-width="20" x1="256" x2="315.334" y1="335.665" y2="394.999"/>

</g>

</svg>