<?xml version="1.0" ?>

<!DOCTYPE svg  PUBLIC '-//W3C//DTD SVG 1.1//EN'  'http://www.w3.org/Graphics/SVG/1.1/DTD/svg11.dtd'>


<svg width="800px" height="800px" viewBox="0 0 512 512" enable-background="new 0 0 512 512" id="Layer_1" version="1.1" xml:space="preserve" xmlns="http://www.w3.org/2000/svg" xmlns:xlink="http://www.w3.org/1999/xlink">

<g>

<path d="   M444.99,399.654c0,6.627-5.371,12-12,12H79.01c-6.627,0-12-5.373-12-12v-236.25c0-6.628,5.373-12,12-12h353.98   c6.629,0,12,5.372,12,12V399.654z" fill="none" stroke="#3B3A3E" stroke-linecap="round" stroke-linejoin="round" stroke-miterlimit="10" stroke-width="20"/>

<circle cx="343.029" cy="288.345" fill="none" r="69.334" stroke="#3B3A3E" stroke-linecap="round" stroke-linejoin="round" stroke-miterlimit="10" stroke-width="20"/>

<circle cx="343.028" cy="288.345" fill="none" r="32.958" stroke="#3B3A3E" stroke-linecap="round" stroke-linejoin="round" stroke-miterlimit="10" stroke-width="20"/>

<path d="   M206.709,139.404c0,6.627-5.373,12-12,12h-74.668c-6.627,0-12-5.373-12-12v-27.059c0-6.627,5.373-12,12-12h74.668   c6.627,0,12,5.373,12,12V139.404z" fill="none" stroke="#3B3A3E" stroke-linecap="round" stroke-linejoin="round" stroke-miterlimit="10" stroke-width="20"/>

<line fill="none" stroke="#3B3A3E" stroke-linecap="round" stroke-linejoin="round" stroke-miterlimit="10" stroke-width="20" x1="102.709" x2="165.375" y1="182.346" y2="182.346"/>

<path d="   M444.99,399.654c0,6.627-5.371,12-12,12H79.01c-6.627,0-12-5.373-12-12v-236.25c0-6.628,5.373-12,12-12h353.98   c6.629,0,12,5.372,12,12V399.654z" fill="#D9DCE1" stroke="#3B3A3E" stroke-linecap="round" stroke-linejoin="round" stroke-miterlimit="10" stroke-width="20"/>

<circle cx="343.029" cy="288.345" fill="#3C74BA" r="69.334" stroke="#3B3A3E" stroke-linecap="round" stroke-linejoin="round" stroke-miterlimit="10" stroke-width="20"/>

<circle cx="343.028" cy="288.345" fill="#D9DCE1" r="32.958" stroke="#3B3A3E" stroke-linecap="round" stroke-linejoin="round" stroke-miterlimit="10" stroke-width="20"/>

<path d="   M206.709,139.404c0,6.627-5.373,12-12,12h-74.668c-6.627,0-12-5.373-12-12v-27.059c0-6.627,5.373-12,12-12h74.668   c6.627,0,12,5.373,12,12V139.404z" fill="#65A0D6" stroke="#3B3A3E" stroke-linecap="round" stroke-linejoin="round" stroke-miterlimit="10" stroke-width="20"/>

<line fill="none" stroke="#3B3A3E" stroke-linecap="round" stroke-linejoin="round" stroke-miterlimit="10" stroke-width="20" x1="102.709" x2="165.375" y1="182.346" y2="182.346"/>

</g>

</svg>