<?xml version="1.0" ?>

<!DOCTYPE svg  PUBLIC '-//W3C//DTD SVG 1.1//EN'  'http://www.w3.org/Graphics/SVG/1.1/DTD/svg11.dtd'>


<svg width="800px" height="800px" viewBox="0 0 512 512" enable-background="new 0 0 512 512" id="Layer_1" version="1.1" xml:space="preserve" xmlns="http://www.w3.org/2000/svg" xmlns:xlink="http://www.w3.org/1999/xlink">

<g>

<path d="   M403.745,189.83v170.99c0,6.63-5.37,12-12,12h-271.49c-6.62,0-12-5.37-12-12V139.18h93.46v38.65h190.03   C398.375,177.83,403.745,183.21,403.745,189.83z" fill="#3C74BA" stroke="#3B3A3E" stroke-linecap="round" stroke-linejoin="round" stroke-miterlimit="10" stroke-width="20"/>

<polygon fill="none" points="   236.503,228.355 315.19,273.786 236.503,319.217  " stroke="#3B3A3E" stroke-linecap="round" stroke-linejoin="round" stroke-miterlimit="10" stroke-width="20"/>

<path d="   M403.745,189.83v170.99c0,6.63-5.37,12-12,12h-271.49c-6.62,0-12-5.37-12-12V139.18h93.46v38.65h190.03   C398.375,177.83,403.745,183.21,403.745,189.83z" fill="none" stroke="#3B3A3E" stroke-linecap="round" stroke-linejoin="round" stroke-miterlimit="10" stroke-width="20"/>

<polygon fill="#D9DCE1" points="   236.503,228.355 315.19,273.786 236.503,319.217  " stroke="#3B3A3E" stroke-linecap="round" stroke-linejoin="round" stroke-miterlimit="10" stroke-width="20"/>

</g>

</svg>