<?xml version="1.0" encoding="utf-8"?>
<svg width="800px" height="800px" viewBox="-20.69 0 72.717 72.717" xmlns="http://www.w3.org/2000/svg">
  <g id="Group_1141" data-name="Group 1141" transform="translate(-85.495 -267.52)">
    <path id="Rectangle_196" data-name="Rectangle 196" d="M0,0H5.292a0,0,0,0,1,0,0V20.684A2.646,2.646,0,0,1,2.646,23.33h0A2.646,2.646,0,0,1,0,20.684V0A0,0,0,0,1,0,0Z" transform="translate(98.522 316.906)" fill="#534741" opacity="0.1" style="mix-blend-mode: multiply;isolation: isolate"/>
    <path id="Rectangle_197" data-name="Rectangle 197" d="M0,0H5.292a0,0,0,0,1,0,0V20.684A2.646,2.646,0,0,1,2.646,23.33h0A2.646,2.646,0,0,1,0,20.684V0A0,0,0,0,1,0,0Z" transform="translate(98.522 313.906)" fill="#e5af6e"/>
    <path id="Rectangle_198" data-name="Rectangle 198" d="M15.67,0h.005a15.67,15.67,0,0,1,15.67,15.67V49.76a3,3,0,0,1-3,3H3a3,3,0,0,1-3-3V15.67A15.67,15.67,0,0,1,15.67,0Z" transform="translate(85.495 273.52)" fill="#534741" opacity="0.1" style="mix-blend-mode: multiply;isolation: isolate"/>
    <path id="Rectangle_199" data-name="Rectangle 199" d="M15.67,0h.005a15.67,15.67,0,0,1,15.67,15.67V49.76a3,3,0,0,1-3,3H3a3,3,0,0,1-3-3V15.67A15.67,15.67,0,0,1,15.67,0Z" transform="translate(85.495 267.52)" fill="#99c64a"/>
    <path id="Path_791" data-name="Path 791" d="M113.84,317.279H88.5a3,3,0,0,1-3-3v2a3,3,0,0,0,3,3H113.84a3,3,0,0,0,3-3v-2A3,3,0,0,1,113.84,317.279Z" fill="#534741" opacity="0.1" style="mix-blend-mode: multiply;isolation: isolate"/>
    <path id="Path_792" data-name="Path 792" d="M101.17,267.9h0a14.974,14.974,0,0,0-14.974,14.975v1.486a14.974,14.974,0,0,1,14.974-14.974h0a14.975,14.975,0,0,1,14.975,14.974v-1.486A14.975,14.975,0,0,0,101.17,267.9Z" fill="#f9ccb8" opacity="0.2" style="mix-blend-mode: screen;isolation: isolate"/>
    <rect id="Rectangle_200" data-name="Rectangle 200" width="4.012" height="32.15" rx="2.006" transform="translate(92.986 281.93)" fill="#534741" opacity="0.1" style="mix-blend-mode: multiply;isolation: isolate"/>
    <rect id="Rectangle_201" data-name="Rectangle 201" width="4.012" height="32.15" rx="2.006" transform="translate(109.349 314.081) rotate(180)" fill="#534741" opacity="0.1" style="mix-blend-mode: multiply;isolation: isolate"/>
  </g>
</svg>