<?xml version="1.0" encoding="utf-8"?>

<!DOCTYPE svg PUBLIC "-//W3C//DTD SVG 1.1//EN" "http://www.w3.org/Graphics/SVG/1.1/DTD/svg11.dtd">

<svg version="1.1" xmlns="http://www.w3.org/2000/svg" xmlns:xlink="http://www.w3.org/1999/xlink"  width="800px"
	 height="800px" viewBox="0 0 96 96" xml:space="preserve">
<style type="text/css">
	.st0{fill:#353535;}
	.st1{fill:#FFFFFF;}
	.st2{fill:#FFBD1A;}
	.st3{fill:none;stroke:#353535;stroke-width:6;stroke-linecap:round;stroke-miterlimit:10;}
	.st4{fill:none;stroke:#353535;stroke-width:6;stroke-linecap:round;stroke-linejoin:round;stroke-miterlimit:10;}
	.st5{fill:#FFBD1A;stroke:#353535;stroke-width:6;stroke-linecap:round;stroke-miterlimit:10;}
</style>
<g id="guides_1_">
</g>
<g id="Mug">
	<path class="st3" d="M71,82h11c6.1,0,11-4.9,11-11V49c0-6.1-4.9-11-11-11H71"/>
	<line class="st3" x1="3" y1="37" x2="37" y2="37"/>
	<line class="st3" x1="45" y1="37" x2="51" y2="37"/>
	<path class="st4" d="M37,24c0-6.1,4.9-11,11-11s11,4.9,11,11v2h10c1.1,0,2,0.9,2,2v54c0,6.1-4.9,11-11,11H14C7.9,93,3,88.1,3,82V20
		c0-9.4,7.6-17,17-17s17,7.6,17,17v6"/>
	<path class="st2" d="M58,48H16c-1.1,0-2,0.9-2,2v2v2v24c0,2.2,1.8,4,4,4h38c2.2,0,4-1.8,4-4V54v-2v-2C60,48.9,59.1,48,58,48z
		 M27,72.5c0,1.7-1.3,3-3,3s-3-1.3-3-3v-15c0-1.7,1.3-3,3-3s3,1.3,3,3V72.5z M40,72.5c0,1.7-1.3,3-3,3s-3-1.3-3-3v-15
		c0-1.7,1.3-3,3-3s3,1.3,3,3V72.5z M53,72.5c0,1.7-1.3,3-3,3s-3-1.3-3-3v-15c0-1.7,1.3-3,3-3s3,1.3,3,3V72.5z"/>
</g>
<g id="Mug_2">
</g>
<g id="Can">
</g>
<g id="Beer_Cap">
</g>
<g id="Hop">
</g>
<g id="Barley">
</g>
</svg>