<?xml version="1.0" ?>
<svg width="800px" height="800px" viewBox="0 0 24 24" fill="none" xmlns="http://www.w3.org/2000/svg"><path d="M14.4334 5.42549C14.5536 5.30532 14.7024 5.21776 14.8658 5.17107L18.8256 4.0397C19.58 3.82417 20.2774 4.52159 20.0619 5.27595L18.9305 9.23574C18.8838 9.39915 18.7962 9.54796 18.6761 9.66813L12.7782 15.566L13.4853 16.2731C13.8758 16.6636 13.8758 17.2968 13.4853 17.6873L11.364 19.8086C10.9734 20.1991 10.3403 20.1991 9.94975 19.8086L7.82848 17.6873L6.41421 19.1016C6.02369 19.4921 5.39052 19.4921 5 19.1016C4.60948 18.7111 4.60948 18.0779 5 17.6874L6.41421 16.2732L4.29289 14.1518C3.90237 13.7612 3.90237 13.1281 4.29289 12.7375L6.41421 10.6162C6.80474 10.2257 7.4379 10.2257 7.82843 10.6162L8.53557 11.3234L14.4334 5.42549Z" fill="#4F4F4F"/></svg>