<?xml version="1.0" ?>
<svg width="800px" height="800px" viewBox="0 0 24 24" fill="none" xmlns="http://www.w3.org/2000/svg"><path clip-rule="evenodd" d="M2.55421 6.04902C1.57397 6.80648 1 7.97537 1 9.21416V17C1 18.6569 2.34315 20 4 20H4.85499C5.87969 20 6.83352 19.477 7.38447 18.613L8.95518 16.1498C9.13883 15.8618 9.45677 15.6875 9.79834 15.6875H14.2017C14.5432 15.6875 14.8612 15.8618 15.0448 16.1498L16.6155 18.613C17.1665 19.477 18.1203 20 19.145 20H20C21.6569 20 23 18.6569 23 17V9.21416C23 7.97537 22.426 6.80648 21.4458 6.04902L20.201 5.08715C18.4499 3.73405 16.2995 3 14.0865 3H9.91346C7.70051 3 5.55006 3.73405 3.79898 5.08715L2.55421 6.04902ZM6 12C6 12.5523 6.44772 13 7 13C7.55228 13 8 12.5523 8 12V11H9C9.55228 11 10 10.5523 10 10C10 9.44771 9.55228 9 9 9H8V8C8 7.44772 7.55229 7 7 7C6.44772 7 6 7.44772 6 8V9H5C4.44772 9 4 9.44772 4 10C4 10.5523 4.44772 11 5 11H6V12ZM20 10C20 10.5523 19.5523 11 19 11C18.4477 11 18 10.5523 18 10C18 9.44772 18.4477 9 19 9C19.5523 9 20 9.44772 20 10ZM17 13C16.4477 13 16 12.5523 16 12C16 11.4477 16.4477 11 17 11C17.5523 11 18 11.4477 18 12C18 12.5523 17.5523 13 17 13Z" fill="#4F4F4F" fill-rule="evenodd"/></svg>