<?xml version="1.0" ?>


<svg width="800px" height="800px" viewBox="0 0 64 64" xmlns="http://www.w3.org/2000/svg">

<defs>

<style>.cls-1{fill:#4c4337;}.cls-2{fill:#71c285;}.cls-3{fill:#4c8056;}.cls-4{fill:#f2f2f2;}.cls-5{fill:#ccc;}.cls-6{fill:#98856e;}.cls-7{fill:#cbb292;}.cls-8{fill:#5f443e;}.cls-9{fill:#7f5b53;}.cls-10{fill:#b0d3f0;}.cls-11{fill:#849eb4;}</style>

</defs>

<title/>

<g data-name="Layer 4" id="Layer_4">

<rect class="cls-1" height="11" width="2" x="41" y="24"/>

<polygon class="cls-2" points="58 58 58 42.71 58 42.71 34 35 34 58 58 58"/>

<polyline class="cls-3" points="34 31 62 40 62 44 34 35"/>

<rect class="cls-4" height="4" width="16" x="38" y="46"/>

<rect class="cls-5" height="4" width="16" x="38" y="50"/>

<rect class="cls-4" height="4" width="16" x="38" y="54"/>

<rect class="cls-6" height="4" width="12" x="34" y="20"/>

<rect class="cls-7" height="4" width="9" x="34" y="20"/>

<rect class="cls-8" height="4" width="60" x="2" y="58"/>

<rect class="cls-9" height="4" width="57" x="2" y="58"/>

<rect class="cls-7" height="50" width="30" x="4" y="8"/>

<path class="cls-5" d="M14,58V53a5,5,0,0,1,5-5h0a5,5,0,0,1,5,5v5"/>

<path class="cls-4" d="M17.5,48.25A5,5,0,0,0,14,53v5h7V53A5,5,0,0,0,17.5,48.25Z"/>

<rect class="cls-10" height="10" width="15" x="4" y="14"/>

<rect class="cls-11" height="10" width="15" x="19" y="14"/>

<rect class="cls-10" height="10" width="15" x="19" y="24"/>

<rect class="cls-11" height="10" width="15" x="19" y="34"/>

<rect class="cls-10" height="10" width="15" x="4" y="34"/>

<rect class="cls-11" height="10" width="15" x="4" y="24"/>

<rect class="cls-8" height="6" width="34" x="2" y="2"/>

<rect class="cls-9" height="6" width="31" x="2" y="2"/>

<path class="cls-1" d="M46,25H34V23H45V21H34V19H46a1,1,0,0,1,1,1v4A1,1,0,0,1,46,25Z"/>

<rect class="cls-5" height="2" transform="translate(-10.8 11.93) rotate(-45)" width="5.66" x="6.17" y="18"/>

<rect class="cls-5" height="2" transform="translate(-9.33 15.46) rotate(-45)" width="5.66" x="11.17" y="18"/>

<rect class="cls-5" height="2" transform="translate(-6.41 22.54) rotate(-45)" width="5.66" x="21.17" y="18"/>

<rect class="cls-5" height="2" transform="translate(-4.94 26.07) rotate(-45)" width="5.66" x="26.17" y="18"/>

<rect class="cls-5" height="2" transform="translate(-13.48 25.46) rotate(-45)" width="5.66" x="21.17" y="28"/>

<rect class="cls-5" height="2" transform="translate(-12.01 29) rotate(-45)" width="5.66" x="26.17" y="28"/>

<rect class="cls-5" height="2" transform="translate(-20.55 28.39) rotate(-45)" width="5.66" x="21.17" y="38"/>

<rect class="cls-5" height="2" transform="translate(-19.08 31.93) rotate(-45)" width="5.66" x="26.17" y="38"/>

<rect class="cls-5" height="2" transform="translate(-24.94 17.79) rotate(-45)" width="5.66" x="6.17" y="38"/>

<rect class="cls-5" height="2" transform="translate(-23.48 21.32) rotate(-45)" width="5.66" x="11.17" y="38"/>

<rect class="cls-5" height="2" transform="translate(-17.87 14.86) rotate(-45)" width="5.66" x="6.17" y="28"/>

<rect class="cls-5" height="2" transform="translate(-16.41 18.39) rotate(-45)" width="5.66" x="11.17" y="28"/>

<rect class="cls-1" height="6" width="2" x="37" y="14"/>

<rect class="cls-1" height="6" width="2" x="41" y="14"/>

<rect class="cls-1" height="2" width="8" x="34" y="27"/>

<path class="cls-1" d="M47,20H45V15H34V13H46a1,1,0,0,1,1,1Z"/>

</g>

</svg>