<?xml version="1.0" ?>


<svg width="800px" height="800px" viewBox="0 0 64 64" xmlns="http://www.w3.org/2000/svg">

<defs>

<style>.cls-1{fill:#5f443e;}.cls-2{fill:#7f5b53;}.cls-3{fill:#71c285;}.cls-4{fill:#98856e;}.cls-5{fill:#cbb292;}.cls-6{fill:#4482c3;}.cls-7{fill:#ccc;}.cls-8{fill:#f2f2f2;}.cls-9{fill:#999;}</style>

</defs>

<title/>

<g data-name="Layer 22" id="Layer_22">

<rect class="cls-1" height="4" width="60" x="2" y="58"/>

<rect class="cls-2" height="4" width="57" x="2" y="58"/>

<rect class="cls-1" height="14" width="8" x="28" y="44"/>

<rect class="cls-2" height="14" width="5" x="28" y="44"/>

<path class="cls-3" d="M49.9,58A5,5,0,0,0,45,54a4.93,4.93,0,0,0-1.09.13,5,5,0,0,0-9.82,0A4.93,4.93,0,0,0,33,54a5.47,5.47,0,0,0-1,.1,5.47,5.47,0,0,0-1-.1,4.93,4.93,0,0,0-1.09.13,5,5,0,0,0-9.82,0A4.93,4.93,0,0,0,19,54a5,5,0,0,0-4.9,4"/>

<rect class="cls-4" height="18" width="4" x="30" y="26"/>

<rect class="cls-5" height="18" width="2" x="30" y="26"/>

<rect class="cls-6" height="24" rx="2" ry="2" width="22" x="21" y="2"/>

<rect class="cls-7" height="16" width="14" x="25" y="6"/>

<rect class="cls-8" height="16" width="11" x="25" y="6"/>

<path class="cls-9" d="M33,15H29a1,1,0,0,1-1-1V10a1,1,0,0,1,1-1h4a3,3,0,0,1,0,6Zm-3-2h3a1,1,0,0,0,0-2H30Z"/>

<rect class="cls-9" height="5" width="2" x="28" y="14"/>

</g>

</svg>