<?xml version="1.0" encoding="utf-8"?>
<svg width="800px" height="800px" viewBox="-2.26 0 14.074 14.074" xmlns="http://www.w3.org/2000/svg">
  <g id="canvas" transform="translate(-43.289 14.074)">
    <path id="path186" d="M51.554-12.506H44.569L43.808-4.94h8.508l-.761-7.566" fill="#c3ead6"/>
    <path id="path188" d="M43.808-4.94l.761-7.566h6.985l.761,7.566Zm7.679.492h1.1a.245.245,0,0,0,.182-.081.245.245,0,0,0,.063-.19l-.811-8.058A.246.246,0,0,0,51.776-13H48.308v-.831a.246.246,0,0,0-.246-.246.246.246,0,0,0-.246.246V-13H44.347a.246.246,0,0,0-.245.221l-.811,8.058a.246.246,0,0,0,.062.19.245.245,0,0,0,.182.081h1.1L43.3-.321a.246.246,0,0,0,.158.309A.241.241,0,0,0,43.535,0a.246.246,0,0,0,.234-.17l1.384-4.277h2.662v3.331a.246.246,0,0,0,.246.246.246.246,0,0,0,.246-.246V-4.447H50.97L52.353-.17a.246.246,0,0,0,.234.17.241.241,0,0,0,.076-.012.246.246,0,0,0,.158-.309L51.487-4.447" fill="#171a1c"/>
  </g>
</svg>