<?xml version="1.0" encoding="utf-8"?>
<svg width="800px" height="800px" viewBox="0 -0.03 13.127 13.127" xmlns="http://www.w3.org/2000/svg">
  <g id="canvas_color" data-name="canvas color" transform="translate(-41.498 54.904)">
    <path id="path200" d="M45.153-46.007a.811.811,0,0,0-.81.809.811.811,0,0,0,.81.81.811.811,0,0,0,.81-.81.8.8,0,0,0-.238-.572.8.8,0,0,0-.572-.237" fill="#498a76"/>
    <path id="path202" d="M45.588-50.413a1.3,1.3,0,0,1-1.3-1.3,1.3,1.3,0,0,1,1.3-1.3,1.3,1.3,0,0,1,1.3,1.3A1.3,1.3,0,0,1,45.588-50.413ZM45.153-43.9a1.3,1.3,0,0,1-1.3-1.3,1.3,1.3,0,0,1,1.3-1.3,1.3,1.3,0,0,1,.921.381,1.291,1.291,0,0,1,.381.921A1.3,1.3,0,0,1,45.153-43.9Zm-2.526-4.783a1.3,1.3,0,0,1,1.3-1.3,1.3,1.3,0,0,1,1.3,1.3,1.3,1.3,0,0,1-1.3,1.3,1.3,1.3,0,0,1-1.3-1.3Zm5.435-5.733a6.037,6.037,0,0,0-4.3,1.779,6.082,6.082,0,0,0,0,8.591,6.008,6.008,0,0,0,3.12,1.659,4.885,4.885,0,0,1-.118-1.068,4.811,4.811,0,0,1,4.782-4.828,4.693,4.693,0,0,1,2.529.735,6.064,6.064,0,0,0-1.722-5.09,6.035,6.035,0,0,0-4.3-1.779" fill="#a3dac1"/>
    <path id="path204" d="M45.588-52.525a.811.811,0,0,0-.81.81.811.811,0,0,0,.81.81.811.811,0,0,0,.809-.81.81.81,0,0,0-.809-.81" fill="#c3ead6"/>
    <path id="path206" d="M44.738-48.679a.811.811,0,0,0-.81-.81.811.811,0,0,0-.809.81.811.811,0,0,0,.81.809.81.81,0,0,0,.809-.809" fill="#7dc3aa"/>
    <path id="path208" d="M45.153-44.388a.811.811,0,0,1-.81-.81.811.811,0,0,1,.81-.809.8.8,0,0,1,.572.237.8.8,0,0,1,.238.572A.811.811,0,0,1,45.153-44.388Zm0-2.111a1.3,1.3,0,0,0-1.3,1.3,1.3,1.3,0,0,0,1.3,1.3,1.3,1.3,0,0,0,1.3-1.3,1.291,1.291,0,0,0-.381-.921,1.3,1.3,0,0,0-.921-.381" fill="#171a1c"/>
    <path id="path210" d="M43.119-48.679a.811.811,0,0,1,.809-.81.811.811,0,0,1,.81.81.81.81,0,0,1-.809.809A.811.811,0,0,1,43.119-48.679Zm2.111,0a1.3,1.3,0,0,0-1.3-1.3,1.3,1.3,0,0,0-1.3,1.3,1.3,1.3,0,0,0,1.3,1.3,1.3,1.3,0,0,0,1.3-1.3" fill="#171a1c"/>
    <path id="path212" d="M45.588-50.906a.811.811,0,0,1-.81-.81.811.811,0,0,1,.81-.81.81.81,0,0,1,.809.81A.811.811,0,0,1,45.588-50.906Zm0-2.111a1.3,1.3,0,0,0-1.3,1.3,1.3,1.3,0,0,0,1.3,1.3,1.3,1.3,0,0,0,1.3-1.3,1.3,1.3,0,0,0-1.3-1.3" fill="#171a1c"/>
    <path id="path214" d="M54.08-47.543a4.693,4.693,0,0,0-2.529-.735,4.811,4.811,0,0,0-4.782,4.828,4.885,4.885,0,0,0,.118,1.068,6.007,6.007,0,0,1-3.12-1.659,6.082,6.082,0,0,1,0-8.591,6.037,6.037,0,0,1,4.3-1.779,6.035,6.035,0,0,1,4.3,1.779,6.064,6.064,0,0,1,1.722,5.09ZM48.062-54.9a6.523,6.523,0,0,0-4.643,1.923,6.574,6.574,0,0,0,0,9.287,6.5,6.5,0,0,0,3.771,1.859l.032,0a.247.247,0,0,0,.188-.087.245.245,0,0,0,.047-.231,4.395,4.395,0,0,1-.2-1.3,4.318,4.318,0,0,1,4.29-4.336,4.22,4.22,0,0,1,2.56.864.247.247,0,0,0,.236.033.246.246,0,0,0,.154-.182,6.558,6.558,0,0,0-1.8-5.909A6.525,6.525,0,0,0,48.062-54.9" fill="#171a1c"/>
  </g>
</svg>