<?xml version="1.0" encoding="utf-8"?>
<svg width="800px" height="800px" viewBox="-0.78 0 12.321 12.321" xmlns="http://www.w3.org/2000/svg">
  <g id="painting_brush" data-name="painting brush" transform="translate(-63.349 13.198)">
    <path id="path190" d="M67.562-8.476h2.331a.043.043,0,0,0,.043-.043l.123-4.151a.042.042,0,0,0-.043-.035H67.438a.043.043,0,0,0-.043.043l.123,4.137a.045.045,0,0,0,.043.05" fill="#498a76"/>
    <path id="path192" d="M73.57-7.984H63.885a.043.043,0,0,0-.043.043v.8h9.771v-.8a.043.043,0,0,0-.043-.043" fill="#c3ead6"/>
    <path id="path194" d="M63.842-6.23a.043.043,0,0,0,.043.043H73.57a.043.043,0,0,0,.043-.043v-.423H63.842v.423" fill="#c3ead6"/>
    <path id="path196" d="M72.925-5.7H64.482a12.714,12.714,0,0,1-.5,4.327h1.964l.622-1.92a.247.247,0,0,1,.256-.169.246.246,0,0,1,.222.212l.256,1.877h2.819l.761-2.865a.246.246,0,0,1,.264-.182.246.246,0,0,1,.22.232l.142,2.814h1.908a12.7,12.7,0,0,1-.5-4.327" fill="#a3dac1"/>
    <path id="path198" d="M73.613-7.145H63.842v-.8a.043.043,0,0,1,.043-.043H73.57a.043.043,0,0,1,.043.043Zm0,.915a.043.043,0,0,1-.043.043H63.885a.043.043,0,0,1-.043-.043v-.423h9.771Zm-.192,4.861H71.512L71.37-4.183a.246.246,0,0,0-.22-.232.246.246,0,0,0-.264.182l-.761,2.865H67.306L67.05-3.246a.246.246,0,0,0-.222-.212.247.247,0,0,0-.256.169l-.622,1.92H63.985a12.714,12.714,0,0,0,.5-4.327h8.443a12.7,12.7,0,0,0,.5,4.327ZM67.438-12.706h2.578a.042.042,0,0,1,.043.035l-.123,4.151a.043.043,0,0,1-.043.043H67.562a.045.045,0,0,1-.043-.05L67.4-12.663A.043.043,0,0,1,67.438-12.706Zm6.132,4.23H70.424c0-.012,0-.023,0-.035l.124-4.152a.536.536,0,0,0-.535-.535H67.438a.537.537,0,0,0-.535.543l.123,4.136a.4.4,0,0,0,0,.043H63.885a.536.536,0,0,0-.535.535V-6.23a.535.535,0,0,0,.535.534h.1c.025.774.049,3.28-.6,4.453a.245.245,0,0,0,0,.244.247.247,0,0,0,.212.121h2.53a.247.247,0,0,0,.234-.17l.345-1.066.14,1.024a.246.246,0,0,0,.244.212h3.223a.246.246,0,0,0,.238-.183l.406-1.527.074,1.477a.246.246,0,0,0,.246.233h2.53A.246.246,0,0,0,74.02-1a.245.245,0,0,0,0-.244c-.654-1.173-.63-3.679-.6-4.453h.151A.535.535,0,0,0,74.1-6.23V-7.941a.536.536,0,0,0-.535-.535" fill="#171a1c"/>
  </g>
</svg>