<?xml version="1.0" encoding="utf-8"?>
<svg width="800px" height="800px" viewBox="-2.56 0 13.716 13.716" xmlns="http://www.w3.org/2000/svg">
  <g id="pen_and_ruler" data-name="pen and ruler" transform="translate(-23.101 34.56)">
    <path id="path98" d="M29.791-31.368l-.467-.453-.766,4.067h.553l.681-3.614" fill="#498a76"/>
    <path id="path100" d="M30.9-32.073l-.446-1.5L29.5-32.338l.616.6.791-.332" fill="#7dc3aa"/>
    <path id="path102" d="M29.611-27.754h.553l.711-3.775-.6.252-.664,3.522" fill="#498a76"/>
    <path id="path104" d="M27.263-34.068H25.52v.86h.369a.246.246,0,0,1,.246.246.246.246,0,0,1-.246.246H25.52v.533h.369a.246.246,0,0,1,.246.246.246.246,0,0,1-.246.246H25.52v.533h.369a.246.246,0,0,1,.246.246.246.246,0,0,1-.246.246H25.52v.533h.369a.246.246,0,0,1,.246.246.246.246,0,0,1-.246.246H25.52v.533h.369a.246.246,0,0,1,.246.246.246.246,0,0,1-.246.246H25.52v.861h1.743v-6.315" fill="#a3dac1"/>
    <path id="path106" d="M25.274-27.262H23.6l0,1.128h7.6l0-1.128H25.274" fill="#7dc3aa"/>
    <path id="path108" d="M24.858-21.337h5.075l.575-4.305H24.284l.574,4.305" fill="#c3ead6"/>
    <path id="path110" d="M31.2-26.134h-7.6l0-1.128h7.6Zm-1.263,4.8H24.858l-.574-4.305h6.224ZM25.52-28.615h.369a.246.246,0,0,0,.246-.246.246.246,0,0,0-.246-.246H25.52v-.533h.369a.246.246,0,0,0,.246-.246.246.246,0,0,0-.246-.246H25.52v-.533h.369a.246.246,0,0,0,.246-.246.246.246,0,0,0-.246-.246H25.52v-.533h.369a.246.246,0,0,0,.246-.246.246.246,0,0,0-.246-.246H25.52v-.533h.369a.246.246,0,0,0,.246-.246.246.246,0,0,0-.246-.246H25.52v-.86h1.743v6.315H25.52Zm3.8-3.205.467.453-.681,3.614h-.553Zm1.133-1.753.446,1.5-.791.332-.616-.6Zm-.293,5.82h-.553l.664-3.522.6-.252Zm1.062,0h-.561l.779-4.133A.242.242,0,0,0,31.437-32l-.644-2.17a.246.246,0,0,0-.19-.171.245.245,0,0,0-.24.09l-1.39,1.787a.238.238,0,0,0-.048.105l-.868,4.607h-.3v-6.561a.246.246,0,0,0-.246-.246H25.274a.246.246,0,0,0-.246.246v6.561H23.567a.48.48,0,0,0-.466.492v1.128a.48.48,0,0,0,.466.492h.221l.611,4.584a.246.246,0,0,0,.244.214h5.506a.247.247,0,0,0,.244-.214L31-25.642h.221a.48.48,0,0,0,.465-.492v-1.128a.48.48,0,0,0-.465-.492" fill="#171a1c"/>
  </g>
</svg>