<?xml version="1.0" encoding="utf-8"?>
<svg width="800px" height="800px" viewBox="0 -1.03 13.461 13.461" xmlns="http://www.w3.org/2000/svg">
  <g id="vector_tool" data-name="vector tool" transform="translate(0 74.738)">
    <path id="path14" d="M.81-74.212a.318.318,0,0,0-.318.317.318.318,0,0,0,.318.318.317.317,0,0,0,.317-.318.317.317,0,0,0-.317-.317" fill="#498a76"/>
    <path id="path16" d="M1.243-67.809h.7v-.7h-.7v.7" fill="#498a76"/>
    <path id="path18" d="M7.082-74.246h-.7v.7h.7v-.7" fill="#498a76"/>
    <path id="path20" d="M12.652-74.212a.317.317,0,0,0-.317.317.317.317,0,0,0,.317.318.318.318,0,0,0,.318-.318.318.318,0,0,0-.318-.317" fill="#498a76"/>
    <path id="path22" d="M11.516-67.809h.7v-.7h-.7v.7" fill="#498a76"/>
    <path id="path24" d="M6.977-69.683a.246.246,0,0,1-.246.246.246.246,0,0,1-.246-.246v-2.6l-2.408,4.7a3.578,3.578,0,0,1,1.256,2.567H8.128a3.576,3.576,0,0,1,1.256-2.567l-2.408-4.7v2.6" fill="#a3dac1"/>
    <path id="path26" d="M5.089-64.524H4.733a.048.048,0,0,0-.048.048v.607a.048.048,0,0,0,.048.048h3.9a.048.048,0,0,0,.048-.048v-.607a.048.048,0,0,0-.048-.048H5.089" fill="#498a76"/>
    <path id="path28" d="M12.652-73.577a.317.317,0,0,1-.317-.318.317.317,0,0,1,.317-.317.318.318,0,0,1,.318.317A.318.318,0,0,1,12.652-73.577Zm-.433,5.066v.7h-.7v-.7Zm-2.834.929a3.576,3.576,0,0,0-1.256,2.567H5.333a3.578,3.578,0,0,0-1.256-2.567l2.408-4.7v2.6a.246.246,0,0,0,.246.246.246.246,0,0,0,.246-.246v-2.6ZM8.63-64.524a.048.048,0,0,1,.048.048v.607a.048.048,0,0,1-.048.048h-3.9a.048.048,0,0,1-.048-.048v-.607a.048.048,0,0,1,.048-.048h3.9ZM6.38-74.246h.7v.7h-.7ZM1.945-68.512v.7h-.7v-.7ZM.81-73.577A.318.318,0,0,1,.492-73.9a.318.318,0,0,1,.318-.317.317.317,0,0,1,.317.317A.317.317,0,0,1,.81-73.577ZM12.652-74.7a.808.808,0,0,0-.767.563H7.574v-.351a.246.246,0,0,0-.246-.246H6.133a.246.246,0,0,0-.246.246v.351H1.577A.809.809,0,0,0,.81-74.7.81.81,0,0,0,0-73.9a.81.81,0,0,0,.81.81.809.809,0,0,0,.767-.563H4.489A5.375,5.375,0,0,0,1.359-69H1a.246.246,0,0,0-.246.246v1.195A.246.246,0,0,0,1-67.317H2.191a.246.246,0,0,0,.246-.246v-1.195A.246.246,0,0,0,2.191-69h-.34a4.88,4.88,0,0,1,4.036-4.567v.274a.246.246,0,0,0,.246.246h.195L3.547-67.626a.245.245,0,0,0,.081.316,3.12,3.12,0,0,1,1.21,2.295h-.1a.541.541,0,0,0-.54.54v.607a.541.541,0,0,0,.54.54h3.9a.541.541,0,0,0,.54-.54v-.607a.541.541,0,0,0-.54-.54H8.623a3.079,3.079,0,0,1,1.211-2.295.246.246,0,0,0,.081-.316L7.133-73.051h.195a.246.246,0,0,0,.246-.246v-.274A4.88,4.88,0,0,1,11.61-69h-.34a.246.246,0,0,0-.246.246v1.195a.247.247,0,0,0,.246.246h1.195a.246.246,0,0,0,.246-.246v-1.195A.246.246,0,0,0,12.465-69H12.1a5.375,5.375,0,0,0-3.129-4.645h2.911a.808.808,0,0,0,.767.563.811.811,0,0,0,.81-.81.811.811,0,0,0-.81-.809" fill="#171a1c"/>
  </g>
</svg>