<?xml version="1.0" encoding="utf-8"?>


<svg version="1.1" id="Icons" xmlns="http://www.w3.org/2000/svg" xmlns:xlink="http://www.w3.org/1999/xlink" 
	 viewBox="0 0 32 32" xml:space="preserve">
<style type="text/css">
	.st0{fill:none;stroke:#000000;stroke-width:2;stroke-linecap:round;stroke-linejoin:round;stroke-miterlimit:10;}
</style>
<g>
	<path d="M26.9,8.7c-0.3,0-0.5-0.1-0.7-0.3l-2.8-2.8c-0.2-0.2-0.3-0.4-0.3-0.7s0.1-0.5,0.3-0.7l1.4-1.4c1.1-1.1,3-1.1,4.1,0L29,2.9
		c0.5,0.5,0.8,1.3,0.8,2c0,0.8-0.3,1.5-0.8,2l-1.4,1.4C27.4,8.6,27.1,8.7,26.9,8.7z M25.5,5l1.3,1.3l0.7-0.7
		c0.2-0.2,0.3-0.4,0.3-0.6s-0.1-0.5-0.3-0.6l-0.1-0.1c-0.3-0.3-0.9-0.3-1.3,0L25.5,5z"/>
</g>
<g>
	<path d="M23.1,8.7C19,4.6,12.5,4.2,7.9,7.5l1.3,1.3c2,2,4.4,3.4,7.1,4.1c3,0.8,5.8,2.4,8,4.6l1.9,1.9C27.1,15.7,26,11.6,23.1,8.7z"
		/>
	<path d="M19.8,25.4c-2-2-4.4-3.4-7.1-4.1c-3-0.8-5.8-2.4-8-4.6l-1.4-1.4c-0.6,3.6,0.5,7.4,3.3,10.1c2.3,2.3,5.3,3.4,8.3,3.4
		c2.2,0,4.5-0.6,6.4-1.9c0,0,0,0,0,0L19.8,25.4z"/>
	<path d="M23,19c-2-2-4.4-3.4-7.1-4.1c-3-0.8-5.8-2.4-8-4.6L6.4,8.8c-1.2,1.2-2,2.6-2.6,4.1l2.3,2.3c2,2,4.4,3.4,7.1,4.1
		c3,0.8,5.8,2.4,8,4.6l1.4,1.4c0.1,0.1,0.1,0.1,0.2,0.2c0.1-0.1,0.2-0.2,0.3-0.3c1.1-1.1,1.9-2.4,2.5-3.7c-0.1,0-0.2-0.1-0.3-0.2
		L23,19z"/>
</g>
<path d="M24.5,7.3L24.5,7.3c1,0.9,1.7,2,2.3,3.2c1.1-1.3,1-3.1-0.2-4.3l-1-1c-1.2-1.2-3-1.2-4.3-0.2C22.5,5.6,23.6,6.3,24.5,7.3z"/>
</svg>