<?xml version="1.0" encoding="utf-8"?>


<svg version="1.1" id="Icons" xmlns="http://www.w3.org/2000/svg" xmlns:xlink="http://www.w3.org/1999/xlink" 
	 viewBox="0 0 32 32" xml:space="preserve">
<style type="text/css">
	.st0{fill:none;stroke:#000000;stroke-width:2;stroke-linecap:round;stroke-linejoin:round;stroke-miterlimit:10;}
</style>
<g>
	<path d="M20.8,11.3c0,0,0-0.1-0.1-0.1L18,13.9l2.5,6.8l2.6-2.6c-0.2-0.2-0.4-0.5-0.4-0.8V16C22.7,14.2,22,12.5,20.8,11.3z"/>
	<polygon points="16.5,15.4 14,17.9 16.6,24.6 19,22.2 	"/>
	<path d="M22.8,2.8c-1.3,1.3-1.8,3.2-1.3,5l0,0C23.7,7,26.2,7.4,28,8.9c-0.2-1.7-1-3.3-2.2-4.6c-0.8-0.8-1.8-1.4-2.8-1.8
		C22.9,2.6,22.9,2.7,22.8,2.8z"/>
	<polygon points="12.5,19.4 10,21.9 12.6,28.6 15,26.2 	"/>
	<path d="M27.9,11.1c-0.3,0-0.5-0.1-0.7-0.3c-1.3-1.3-3.3-1.8-5-1.2L22,9.7c0.1,0,0.2,0.1,0.3,0.2c1.6,1.6,2.5,3.8,2.5,6.1v0.5l1-1
		C26.9,14.2,27.7,12.7,27.9,11.1C27.9,11.1,27.9,11.1,27.9,11.1z"/>
	<path d="M8.5,23.4l-1.8,1.8c-1.2,1.2-1.4,3-0.4,4.3c0.6,0.8,1.4,1.3,2.4,1.4c0.1,0,0.2,0,0.3,0c0.8,0,1.5-0.3,2.1-0.8L8.5,23.4z"/>
	<path d="M19.5,8c-0.5-2.1,0-4.3,1.3-6c-0.2,0-0.4,0-0.6,0c-1.8,0-3.4,0.6-4.8,1.6C16.1,5.6,17.6,7.2,19.5,8z"/>
	<path d="M15.1,11.5c1,0.1,1.9-0.3,2.6-1l0.8-0.8c-2-0.9-3.7-2.6-4.6-4.6l-0.7,0.7c-1.2,1.2-1.4,3-0.4,4.3
		C13.2,11,14.1,11.5,15.1,11.5z"/>
</g>
</svg>