<?xml version="1.0" encoding="utf-8"?>


<svg version="1.1" id="Icons" xmlns="http://www.w3.org/2000/svg" xmlns:xlink="http://www.w3.org/1999/xlink" 
	 viewBox="0 0 32 32" xml:space="preserve">
<style type="text/css">
	.st0{fill:none;stroke:#000000;stroke-width:2;stroke-linecap:round;stroke-linejoin:round;stroke-miterlimit:10;}
</style>
<g>
	<path d="M11,9.9v1.6c0,1.4,1.1,2.5,2.5,2.5s2.5-1.1,2.5-2.5V10h5c0.9,0,1.7-0.4,2.3-1.1c0.6-0.7,0.8-1.6,0.7-2.4
		C23.7,5.1,22.4,4,20.9,4h-1.3c-2.2,0-4-0.5-5.4-1.4c-0.9-0.6-1.9-0.7-2.9-0.5C9.6,2.4,8.4,3.7,8.1,5.3C7.9,6.4,8.2,7.6,8.9,8.6
		C9.5,9.2,10.2,9.7,11,9.9z"/>
	<path d="M15,31h10c0.6,0,1-0.4,1-1v-6H15V31z"/>
	<path d="M6,30c0,0.6,0.4,1,1,1h6v-7H6V30z"/>
	<path d="M27,7h-1c0,1.8-1,3.6-2.8,4.5c-0.7,0.4-1.5,0.5-2.3,0.5L18,12c-0.1,1.2-0.8,2.3-1.7,3c-0.2,0.2-0.4,0.3-0.6,0.4
		c0,0,0,0,0,0c-0.2,0.1-0.4,0.2-0.6,0.3c-0.1,0-0.1,0-0.2,0.1c-0.2,0.1-0.3,0.1-0.5,0.1C14,16,13.8,16,13.5,16c-0.3,0-0.6,0-0.8-0.1
		c-0.2,0-0.3-0.1-0.4-0.1c-0.1,0-0.2-0.1-0.3-0.1c-0.2-0.1-0.4-0.2-0.6-0.3c0,0-0.1,0-0.1-0.1c-0.2-0.1-0.4-0.2-0.6-0.4
		c-1-0.8-1.7-2.1-1.7-3.5v-0.3c-0.6-0.3-1.1-0.8-1.6-1.4C6.7,9,6.3,8,6.1,7H5C4.4,7,4,7.4,4,8v8c0,0.6,0.4,1,1,1h1v5h12v-4
		c0-0.6,0.4-1,1-1h0c0.6,0,1,0.4,1,1v4h6v-5h1c0.6,0,1-0.4,1-1V8C28,7.4,27.6,7,27,7z"/>
</g>
</svg>