<?xml version="1.0" encoding="utf-8"?>


<svg version="1.1" id="Icons" xmlns="http://www.w3.org/2000/svg" xmlns:xlink="http://www.w3.org/1999/xlink" 
	 viewBox="0 0 32 32" xml:space="preserve">
<style type="text/css">
	.st0{fill:none;stroke:#000000;stroke-width:2;stroke-linecap:round;stroke-linejoin:round;stroke-miterlimit:10;}
</style>
<path d="M27,24c0.6,0,1-0.4,1-1c0-3.8,0.9-7.5,2.6-10.9l1.3-2.6c0.2-0.3,0.1-0.7,0-1S31.3,8,31,8c-4.1,0-7.9,2-10.3,5.3l-2.2,3.1
	c-0.7,1-1.8,1.5-3,1.5c-1.3,0-2.4-0.7-3.1-1.7c-1.2-2-3.4-3.3-5.7-3.3H6c-0.4,0-0.7,0.2-0.9,0.5c-0.2,0.3-0.2,0.7,0,1l5,9
	c0.2,0.3,0.5,0.5,0.9,0.5h1.5l-1.2,3l-5.8,0c-1,0-2-0.3-2.7-1C2.3,25.5,2,24.9,2,24.3s0.3-1.3,0.8-1.7c0.8-0.7,2.1-0.7,2.8,0
	c0.4,0.4,1,0.4,1.4,0c0.4-0.4,0.4-1,0-1.4c-1.5-1.4-4-1.4-5.6,0c-0.9,0.8-1.4,2-1.4,3.2s0.5,2.3,1.4,3.2c1.1,1,2.5,1.5,3.9,1.5
	c0.1,0,0.1,0,0.2,0l6.4,0c0,0,0,0,0,0c0,0,0,0,0,0l13,0c0,0,0,0,0,0c0,0,0,0,0,0l5,0c0.6,0,1-0.4,1-1s-0.4-1-1-1l-4.3,0l-1.2-3H27z
	 M23.5,27l-10,0l1.2-3h7.6L23.5,27z"/>
<path d="M10,11.6c1.7,0.7,3.2,1.9,4.2,3.6c0.3,0.5,0.8,0.8,1.4,0.8c0.5,0,1-0.3,1.3-0.7l2.2-3.1c1.1-1.6,2.5-2.9,4.1-3.9
	c-0.7-0.6-1.3-1.1-1.9-1.5l1.7-3.4c0.2-0.3,0.1-0.7,0-1C22.7,2.2,22.3,2,22,2h-8c-0.3,0-0.7,0.2-0.9,0.5c-0.2,0.3-0.2,0.7,0,1
	l1.7,3.4C13.1,8,11.2,9.6,10,11.6z"/>
</svg>