<?xml version="1.0" encoding="utf-8"?>


<svg version="1.1" id="Icons" xmlns="http://www.w3.org/2000/svg" xmlns:xlink="http://www.w3.org/1999/xlink" 
	 viewBox="0 0 32 32" xml:space="preserve">
<style type="text/css">
	.st0{fill:none;stroke:#000000;stroke-width:2;stroke-linecap:round;stroke-linejoin:round;stroke-miterlimit:10;}
</style>
<path d="M25,8.9C24.9,8.4,24.5,8,24,8h-3V7c0-2.8-2.2-5-5-5s-5,2.2-5,5v1H8C7.5,8,7.1,8.4,7,8.9l-2,20c0,0.3,0.1,0.6,0.3,0.8
	S5.7,30,6,30h20c0.3,0,0.6-0.1,0.7-0.3s0.3-0.5,0.3-0.8L25,8.9z M13,7c0-1.7,1.3-3,3-3s3,1.3,3,3v1h-6V7z M21.9,24.4
	C21.7,24.8,21.4,25,21,25h-4v1c0,0.6-0.4,1-1,1s-1-0.4-1-1v-1h-4c-0.4,0-0.7-0.2-0.9-0.6c-0.2-0.3-0.1-0.8,0.1-1.1l1.6-2h-0.2
	c-0.4,0-0.7-0.2-0.9-0.6c-0.2-0.4-0.1-0.8,0.1-1.1l1.7-2.1c-0.3-0.1-0.5-0.3-0.6-0.5c-0.2-0.4-0.1-0.8,0.1-1.1l3.1-3.7
	c0.4-0.4,1.1-0.4,1.5,0l3.1,3.7c0.3,0.3,0.3,0.7,0.1,1.1c-0.1,0.3-0.3,0.5-0.6,0.5l1.7,2.1c0.2,0.3,0.3,0.7,0.1,1.1
	c-0.2,0.4-0.5,0.6-0.9,0.6h-0.2l1.6,2C22,23.7,22.1,24.1,21.9,24.4z"/>
</svg>