<?xml version="1.0" encoding="utf-8"?>


<svg version="1.1" id="Icons" xmlns="http://www.w3.org/2000/svg" xmlns:xlink="http://www.w3.org/1999/xlink" 
	 viewBox="0 0 32 32" xml:space="preserve">
<style type="text/css">
	.st0{fill:none;stroke:#000000;stroke-width:2;stroke-linecap:round;stroke-linejoin:round;stroke-miterlimit:10;}
</style>
<g>
	<path d="M30,12.7l-0.3-3.3C29.2,5,25.5,1.5,20.9,1c-2-0.2-4,0.2-5.8,1.2l-3.8,2.1c-0.1,0-0.1,0.1-0.2,0.1C9.9,4.4,8.9,5,8.3,6.1
		L7.9,6.9C7.6,7.5,7.6,8.2,7.8,8.8C4.2,10.9,2,14.8,2,19c0,0.8,0.1,1.5,0.2,2.2l4-2.7C6.1,18.4,6,18.2,6,18v-3c0-0.6,0.4-1,1-1
		s1,0.4,1,1v2.4c1.2-0.5,2.6-0.5,3.9,0c0.9,0.4,1.6,0.9,2.1,1.7V17c0-0.6,0.4-1,1-1s1,0.4,1,1v3c0,0.6-0.4,1-1,1c0,0-0.1,0-0.1,0
		c0,0,0,0.1,0,0.1c0.1,0.6,0.1,1.3,0,1.9c0,0,0.1,0,0.1,0c0.6,0,1.1-0.2,1.5-0.7c0.4-0.4,1-0.4,1.4-0.1c0.4,0.4,0.4,1,0.1,1.4
		c-0.8,0.8-1.8,1.3-3,1.3c-0.3,0-0.5-0.1-0.7-0.3c-0.1,0.2-0.2,0.3-0.3,0.4c-0.8,1.1-2.1,1.9-3.5,2l-4.8,0.5C7.9,29.7,10.8,31,14,31
		c6.3,0,11.5-4.9,12-11.1c0.2,0,0.4,0.1,0.5,0.1c2.5,0,4.5-2,4.5-4.5C31,14.5,30.6,13.5,30,12.7z M9.7,7.8L10.1,7
		c0.2-0.5,0.8-0.7,1.3-0.6l10.4,2.8C23.1,9.5,24,10.7,24,12c0,0.2-0.1,0.3-0.2,0.4s-0.2,0.1-0.4,0.1L10,8.6C9.8,8.5,9.7,8.3,9.7,8.3
		C9.7,8.2,9.6,8,9.7,7.8z M26.5,18c-0.2,0-0.4,0-0.6-0.1c-0.1-1.3-0.5-2.6-1-3.9c0,0,0.1,0,0.1-0.1c0.5-0.3,0.8-0.8,0.9-1.3l2.4,1.1
		c0.4,0.5,0.7,1.1,0.7,1.7C29,16.9,27.9,18,26.5,18z"/>
	<path d="M12.4,23.9c0.5-0.7,0.7-1.6,0.6-2.5c-0.2-1-0.9-1.9-1.8-2.3c-0.9-0.4-2-0.3-2.8,0.3l-6.8,4.6c-0.4,0.3-0.5,0.7-0.4,1.2
		C1.2,25.7,1.6,26,2,26c0,0,0.1,0,0.1,0l8.2-0.8C11.1,25.1,11.9,24.6,12.4,23.9z"/>
</g>
</svg>