<?xml version="1.0" encoding="utf-8"?>


<svg version="1.1" id="Icons" xmlns="http://www.w3.org/2000/svg" xmlns:xlink="http://www.w3.org/1999/xlink" 
	 viewBox="0 0 32 32" xml:space="preserve">
<style type="text/css">
	.st0{fill:none;stroke:#000000;stroke-width:2;stroke-linecap:round;stroke-linejoin:round;stroke-miterlimit:10;}
</style>
<g>
	<path d="M14.8,25.5c-1.3-2.5-3.4-4.5-5.9-5.7c-2.7,1.2-4.2,4.1-3.4,7c0.4,1.6,1.5,2.9,3,3.7c0.8,0.4,1.8,0.6,2.7,0.6
		c0.7,0,1.4-0.1,2.1-0.4l2.7-1C15.9,28.3,15.5,26.9,14.8,25.5z"/>
	<path d="M27.2,16.3l-2.5-9C25,7,25.3,6.7,25.5,6.3c0.5-0.8,0.6-1.8,0.3-2.6l0-0.1c-0.2-0.9-0.8-1.6-1.6-2S22.5,1,21.7,1.2L9,4.8
		C7.2,5.3,6.2,7.1,6.7,8.9l0,0.1c0.2,0.9,0.8,1.6,1.6,2.1c0.3,0.2,0.7,0.3,1.1,0.4l2,7.2c2.3,1.4,4.2,3.4,5.4,5.9
		c0.7,1.4,1.2,2.9,1.4,4.4l3.2-1.2C26.1,26,28.6,21,27.2,16.3z M22.8,6L10.5,9.5c-0.4,0.1-0.8,0.1-1.1-0.1C9,9.2,8.7,8.8,8.6,8.5
		l0-0.1C8.4,7.6,8.8,6.9,9.5,6.7l12.7-3.5c0.1,0,0.2,0,0.4,0c0.2,0,0.4,0.1,0.6,0.2c0.3,0.2,0.5,0.5,0.6,0.8l0,0.1
		C24.1,5,23.6,5.8,22.8,6z"/>
</g>
</svg>