<?xml version="1.0" encoding="utf-8"?>


<svg version="1.1" id="Icons" xmlns="http://www.w3.org/2000/svg" xmlns:xlink="http://www.w3.org/1999/xlink" 
	 viewBox="0 0 32 32" xml:space="preserve">
<style type="text/css">
	.st0{fill:none;stroke:#000000;stroke-width:2;stroke-linecap:round;stroke-linejoin:round;stroke-miterlimit:10;}
</style>
<path d="M24.8,25.4L21.4,21H23c0.4,0,0.7-0.2,0.9-0.6s0.1-0.8-0.1-1.1L20.2,15H21c0.4,0,0.7-0.2,0.9-0.6c0.2-0.4,0.1-0.8-0.1-1.1
	L17,7.6V7.4l0.4,0.4c0.2,0.2,0.5,0.3,0.7,0.3s0.5-0.1,0.7-0.3c0.4-0.4,0.4-1,0-1.4L18.4,6H19c0.6,0,1-0.4,1-1s-0.4-1-1-1h-0.6
	l0.4-0.4c0.4-0.4,0.4-1,0-1.4c-0.4-0.4-1-0.4-1.4,0L17,2.6V2c0-0.6-0.4-1-1-1s-1,0.4-1,1v0.6l-0.4-0.4c-0.4-0.4-1-0.4-1.4,0
	c-0.4,0.4-0.4,1,0,1.4L13.6,4H13c-0.6,0-1,0.4-1,1s0.4,1,1,1h0.6l-0.4,0.4c-0.4,0.4-0.4,1,0,1.4c0.2,0.2,0.5,0.3,0.7,0.3
	s0.5-0.1,0.7-0.3L15,7.4v0.2l-4.8,5.7c-0.2,0.3-0.3,0.7-0.1,1.1c0.2,0.4,0.5,0.6,0.9,0.6h0.8l-3.6,4.4c-0.2,0.3-0.3,0.7-0.1,1.1
	S8.6,21,9,21h1.6l-3.4,4.4c-0.2,0.3-0.3,0.7-0.1,1.1C7.3,26.8,7.6,27,8,27h5v3c0,0.6,0.4,1,1,1h4c0.6,0,1-0.4,1-1v-3h5
	c0.4,0,0.7-0.2,0.9-0.6C25.1,26.1,25,25.7,24.8,25.4z"/>
</svg>