<?xml version="1.0" ?>


<svg fill="#000000" width="800px" height="800px" viewBox="0 0 100 100" version="1.1" xml:space="preserve" xmlns="http://www.w3.org/2000/svg" xmlns:xlink="http://www.w3.org/1999/xlink">

<g id="jackhammer"/>

<g id="drilling_machine"/>

<g id="hammer">

<g>

<path d="M74.8,4H35c-1.7,0-3,1.3-3,3h-3c0-1.7-1.3-3-3-3H10C9.4,4,9,4.4,9,5v32c0,0.6,0.4,1,1,1h16c1.7,0,3-1.3,3-3h3    c0,1.7,1.3,3,3,3h6v48c0,5.5,4.5,10,10,10c5.5,0,10-4.5,10-10V38h7c1.7,0,3-1.3,3-3V22.1c4.5,0.5,8,4.3,8,8.9v5    c0,0.4,0.2,0.8,0.6,0.9c0.4,0.2,0.8,0.1,1.1-0.2l5-4.5C89,29.2,91,24.8,91,20.2C91,11.3,83.7,4,74.8,4z M27,35c0,0.6-0.4,1-1,1H11    V6h15c0.6,0,1,0.4,1,1v1v26V35z M29,33V9h3v24H29z M59,86c0,4.4-3.6,8-8,8s-8-3.6-8-8V38h16V86z M84.3,30.8l-3.3,3V31    c0-6.1-4.9-11-11-11c-0.6,0-1,0.4-1,1v14c0,0.6-0.4,1-1,1h-8H42h-7c-0.6,0-1-0.4-1-1v-1V8V7c0-0.6,0.4-1,1-1h39.8    C82.6,6,89,12.4,89,20.2C89,24.2,87.3,28.1,84.3,30.8z"/>

<path d="M51,11c-5.5,0-10,4.5-10,10s4.5,10,10,10c5.5,0,10-4.5,10-10S56.5,11,51,11z M51,29c-4.4,0-8-3.6-8-8s3.6-8,8-8s8,3.6,8,8    S55.4,29,51,29z"/>

</g>

</g>

<g id="measuring_tape"/>

<g id="wrench"/>

<g id="saw"/>

<g id="building"/>

<g id="wall"/>

<g id="crane"/>

<g id="barrier_sign"/>

<g id="concept"/>

<g id="shovel"/>

<g id="architecture"/>

<g id="safety_helmet"/>

<g id="worker"/>

<g id="teamwork"/>

<g id="roller_brush"/>

<g id="designs"/>

<g id="trolley"/>

<g id="pick_axe"/>

</svg>