<?xml version="1.0" ?>


<svg fill="#000000" width="800px" height="800px" viewBox="0 0 100 100" id="Layer_1" version="1.1" xml:space="preserve" xmlns="http://www.w3.org/2000/svg" xmlns:xlink="http://www.w3.org/1999/xlink">

<g id="jackhammer"/>

<g id="drilling_machine"/>

<g id="hammer"/>

<g id="measuring_tape"/>

<g id="wrench"/>

<g id="saw"/>

<g id="building"/>

<g id="wall"/>

<g id="crane"/>

<g id="barrier_sign"/>

<g id="concept"/>

<g id="shovel"/>

<g id="architecture"/>

<g id="safety_helmet"/>

<g id="worker"/>

<g id="teamwork"/>

<g id="roller_brush"/>

<g id="designs"/>

<g id="trolley"/>

<g id="pick_axe">

<g>

<path d="M92.9,26.9c-6.2-6.7-23.2-14.7-68.1-16.6c-0.3-1.5-1.1-2.9-2.2-4c-1.8-1.8-4.3-2.6-6.8-2.3C12.2,4.6,9.1,8.3,9,12.1    c-0.5,0.4-1.1,0.8-1.5,1.3C5.2,15.6,4,18.5,4,21.6c0,3.7,1.7,7.1,4.8,9.3c0,0.1,0.1,0.2,0.2,0.2V88c0,4.4,3.6,8,8,8s8-3.6,8-8    V30.9c14.8-3.6,37.7-5.2,69.8,3c0.1,0,0.2,0,0.3,0c0.2,0,0.4-0.1,0.6-0.2c0.2-0.2,0.4-0.5,0.4-0.8C96,32.8,96,30.3,92.9,26.9z     M16.1,6.1c1.9-0.3,3.8,0.3,5.1,1.7c0.7,0.7,1.2,1.6,1.5,2.6c-2.3-0.1-4.6-0.2-7-0.2c-1.6,0-3.2,0.3-4.6,0.9    C11.7,8.5,13.8,6.4,16.1,6.1z M23,88c0,3.3-2.7,6-6,6s-6-2.7-6-6V32.2c2.5,1.1,5.3,1.2,8,0.4c1.2-0.4,2.6-0.8,4-1.2V88z M51.3,26    c-10.9,0-19.9,1.3-27,3.1l-1,0.2c-1.7,0.4-3.4,0.9-4.9,1.4c-2.9,0.9-6,0.4-8.5-1.4S6,24.7,6,21.6c0-2.6,1-5,2.9-6.8    c0.3-0.3,0.7-0.6,1-0.8l1-0.7c1.4-0.8,3-1.2,4.8-1.2c65.5,1.4,76.2,15.1,78,19.5C77.2,27.5,63.1,26,51.3,26z"/>

<path d="M17,15c-3.3,0-6,2.7-6,6s2.7,6,6,6s6-2.7,6-6S20.3,15,17,15z M17,25c-2.2,0-4-1.8-4-4s1.8-4,4-4s4,1.8,4,4S19.2,25,17,25z    "/>

</g>

</g>

</svg>