<?xml version="1.0" encoding="utf-8"?>


<svg version="1.1" id="Слой_1" xmlns="http://www.w3.org/2000/svg" xmlns:xlink="http://www.w3.org/1999/xlink" 
	 viewBox="0 0 64 64" enable-background="new 0 0 64 64" xml:space="preserve">
<rect id="bg" x="-238" y="-55" display="none" fill="#6DCFF6" width="544" height="455"/>
<g id="audio">
	<path d="M32,29.3c-7.7,0-14,6.3-14,14s6.3,14,14,14s14-6.3,14-14C46,35.4,39.9,29.3,32,29.3z M32,55.3c-6.6,0-12-5.4-12-12
		s5.4-12,12-12c6.7,0,12,5.3,12,12C44,49.9,38.6,55.3,32,55.3z"/>
	<path d="M32,38c-2.8,0-5,2.2-5,5s2.2,5,5,5s5-2.2,5-5C37,40.2,34.8,38,32,38z M32,46c-1.7,0-3-1.3-3-3s1.3-3,3-3c1.7,0,3,1.3,3,3
		C35,44.7,33.7,46,32,46z"/>
	<path d="M32,19c1.7,0,3-1.3,3-3c0-1.7-1.3-3-3-3c-1.7,0-3,1.3-3,3S30.3,19,32,19z M32,15c0.6,0,1,0.4,1,1c0,0.6-0.4,1-1,1
		s-1-0.4-1-1S31.4,15,32,15z"/>
	<path d="M32,25c5,0,9-4,9-9c0-5-4-9-9-9c-5,0-9,4-9,9S27,25,32,25z M32,9c3.9,0,7,3.1,7,7c0,3.9-3.1,7-7,7c-3.9,0-7-3.1-7-7
		S28.1,9,32,9z"/>
	<path d="M46,1H18c-3.3,0-6,2.7-6,6v50c0,3.3,2.7,6,6,6h28c3.3,0,6-2.7,6-6V7C52,3.7,49.3,1,46,1z M50,57c0,2.2-1.8,4-4,4H18
		c-2.2,0-4-1.8-4-4V7c0-2.2,1.8-4,4-4h28c2.2,0,4,1.8,4,4V57z"/>
</g>
</svg>