<?xml version="1.0" encoding="utf-8"?>


<svg version="1.1" id="Слой_1" xmlns="http://www.w3.org/2000/svg" xmlns:xlink="http://www.w3.org/1999/xlink" 
	 viewBox="0 0 64 64" enable-background="new 0 0 64 64" xml:space="preserve">
<rect id="bg" x="-332" y="-337" display="none" fill="#6DCFF6" width="544" height="455"/>
<path id="earphones" d="M63,33.1v-1.9c0-9.3-4.1-18.1-11.3-24.1c-1.5-1.3-3.2-2.4-4.9-3.4c-0.9-0.5-1.8-0.9-2.7-1.3
	C40.2,0.8,36.2,0,32,0s-8.2,0.8-12.1,2.5c-0.9,0.4-1.8,0.8-2.7,1.3c-1.7,1-3.4,2.1-4.9,3.4C5.1,13.1,1,21.8,1,31.2v1.9
	c0,1.5,0.8,2.7,2,3.4v3.9c-1.2,0.6-2,1.8-2,3.1C1,45.4,2.6,47,4.5,47c0,0,0.1,0,0.1,0L8,50.4c0.2,2.9,2.3,5.3,5,5.8v3.1
	c0,2.6,2.1,4.7,4.7,4.7h2.6c2.6,0,4.7-2.1,4.7-4.7V40.7c0-2.6-2.1-4.7-4.7-4.7h-2.6c-2.6,0-4.7,2.1-4.7,4.7v3.1
	c-2.2,0.4-4,2-4.7,4.2l-1.7-1.7C7.5,45.6,8,44.6,8,43.5c0-1.8-1.3-3.2-3-3.4V37c2.1-0.1,4-1.8,4-3.9v-2.3c0-7,3-13.6,8.3-18
	c2.3-1.9,4.9-3.4,7.8-4.3c1.5-0.5,3-0.8,4.5-0.9c1.6-0.2,3.2-0.2,4.7,0c1.5,0.2,3.1,0.5,4.5,0.9c2.9,0.9,5.4,2.3,7.8,4.3
	c5.4,4.5,8.3,11,8.3,18v2.3c0,2.1,1.9,3.9,4,3.9v3.1c-1.7,0.2-3,1.7-3,3.4c0,1.1,0.5,2.1,1.3,2.7l-1.7,1.7c-0.7-2.2-2.5-3.8-4.7-4.2
	v-3.1c0-2.6-2.1-4.7-4.7-4.7h-2.6c-2.6,0-4.7,2.1-4.7,4.7v18.6c0,2.6,2.1,4.7,4.7,4.7h2.6c2.6,0,4.7-2.1,4.7-4.7v-3.1
	c2.7-0.5,4.8-2.9,5-5.8l3.4-3.4c0,0,0.1,0,0.1,0c1.9,0,3.5-1.6,3.5-3.5c0-1.4-0.8-2.6-2-3.1v-3.9C62.2,35.8,63,34.5,63,33.1z
	 M15,40.7c0-1.5,1.2-2.7,2.7-2.7h2.6c1.5,0,2.7,1.2,2.7,2.7v18.6c0,1.5-1.2,2.7-2.7,2.7h-2.6c-1.5,0-2.7-1.2-2.7-2.7V40.7z M13,45.8
	v8.4c-1.7-0.5-3-2.2-3-4.2S11.3,46.3,13,45.8z M49,59.3c0,1.5-1.2,2.7-2.7,2.7h-2.6c-1.5,0-2.7-1.2-2.7-2.7V40.7
	c0-1.5,1.2-2.7,2.7-2.7h2.6c1.5,0,2.7,1.2,2.7,2.7V59.3z M51,54.2v-8.4c1.7,0.5,3,2.2,3,4.2S52.7,53.7,51,54.2z M6,43.5
	C6,44.3,5.3,45,4.5,45S3,44.3,3,43.5S3.7,42,4.5,42S6,42.7,6,43.5z M57,33.1v-2.3c0-7.6-3.2-14.7-9.1-19.6c-2.5-2.1-5.4-3.7-8.5-4.6
	c-1.6-0.5-3.2-0.8-4.9-1c-0.8-0.1-1.7-0.1-2.6-0.1s-1.7,0-2.6,0.1c-1.7,0.2-3.3,0.5-4.9,1c-3.1,1-5.9,2.5-8.4,4.6
	C10.2,16.1,7,23.2,7,30.8v2.3C7,34.1,6,35,5,35s-2-0.9-2-1.9v-1.9c0-8.7,3.8-17,10.6-22.5c1.4-1.2,3-2.2,4.6-3.1
	c0.8-0.4,1.7-0.9,2.5-1.2C24.3,2.8,28.1,2,32,2s7.7,0.8,11.3,2.3c0.9,0.4,1.7,0.8,2.5,1.2c1.6,0.9,3.2,2,4.6,3.1
	C57.2,14.2,61,22.4,61,31.2v1.9c0,1.1-1,1.9-2,1.9S57,34.1,57,33.1z M59.5,45c-0.8,0-1.5-0.7-1.5-1.5s0.7-1.5,1.5-1.5
	s1.5,0.7,1.5,1.5S60.3,45,59.5,45z"/>
</svg>