<?xml version="1.0" encoding="utf-8"?>


<svg version="1.1" id="Слой_1" xmlns="http://www.w3.org/2000/svg" xmlns:xlink="http://www.w3.org/1999/xlink" 
	 viewBox="0 0 64 64" enable-background="new 0 0 64 64" xml:space="preserve">
<rect id="bg" x="-332" y="-149" display="none" fill="#6DCFF6" width="544" height="455"/>
<g id="Grinder">
	<path d="M46,33c2.2,0,4-1.8,4-4s-1.8-4-4-4s-4,1.8-4,4S43.8,33,46,33z M46,27c1.1,0,2,0.9,2,2s-0.9,2-2,2s-2-0.9-2-2S44.9,27,46,27
		z"/>
	<path d="M56,15H34.5c-4.5,0-5.8,2.6-6.8,6H24V8h22c4.6,0,8-3,8-7c0-0.6-0.4-1-1-1H4C3.4,0,3,0.4,3,1v2c0,2.7,2.3,5,5,5h6v13h-2
		c0-3.3-2.8-6.2-6-6.2S0,17.7,0,21v11c0,3.3,2.7,6,6,6c2.9,0,5.4-2.2,5.9-5h12.5l-5.8,20.8c-0.8,3.8,0.3,6.3,1.4,7.6
		c1.3,1.7,3.4,2.6,5.6,2.6H56c4.3,0,8-3.7,8-8V22.8C64,18.5,60.3,15,56,15z M34.5,17H56c3.3,0,6,2.6,6,5.8V53H20.8l8.6-30.8
		C30.7,18,31.7,17,34.5,17z M8,6C6.4,6,5,4.6,5,3V2h46.9c-0.6,2.6-3.3,4-5.9,4H24H14H8z M22,8v3h-6V8H22z M16,13h6v8h-6V13z M6,36
		c-2.1,0-4-1.9-4-4V21c0-2.2,1.9-4.2,4-4.2s4,2,4,4.2v11C10,34.1,8.1,36,6,36z M12,31v-8h2h10h3.2l-2.2,8H12z M56,62H25.5
		c-1.6,0-3.1-0.7-4-1.9c-1-1.3-1.4-3.1-1.1-5.1H62v1C62,59.3,59.3,62,56,62z"/>
	<path d="M58,49c0.6,0,1-0.4,1-1V28c0-0.6-0.4-1-1-1s-1,0.4-1,1v20C57,48.6,57.4,49,58,49z"/>
	<path d="M58,25c0.6,0,1-0.4,1-1v-2c0-0.6-0.4-1-1-1s-1,0.4-1,1v2C57,24.6,57.4,25,58,25z"/>
</g>
</svg>