<?xml version="1.0" encoding="utf-8"?>


<svg version="1.1" id="Слой_1" xmlns="http://www.w3.org/2000/svg" xmlns:xlink="http://www.w3.org/1999/xlink" 
	 viewBox="0 0 64 64" enable-background="new 0 0 64 64" xml:space="preserve">
<rect id="bg" x="-332" y="-55" display="none" fill="#6DCFF6" width="544" height="455"/>
<g id="lamp">
	<path d="M30.6,19.5l5.8,18.9c0.1,0.3,0.4,0.6,0.7,0.7c0.1,0,0.2,0,0.2,0c0.3,0,0.5-0.1,0.7-0.3l23.1-23.1c0.2-0.2,0.3-0.6,0.3-0.9
		s-0.3-0.6-0.7-0.7L42,8.1l-5.8-5.8c-3.1-3.1-8.3-3.1-11.4,0c-1.5,1.5-2.3,3.5-2.3,5.7c0,2.2,0.8,4.2,2.3,5.7l0.3,0.3l-15,13.7
		C9.3,27.3,8.4,27,7.5,27c-2.8,0-5,2.2-5,5s2.2,5,5,5c0.7,0,1.4-0.2,2.1-0.5L27,55.4c-6.4,1.6-11,6.7-11.2,6.9
		c-0.3,0.3-0.3,0.7-0.2,1.1c0.2,0.4,0.5,0.6,0.9,0.6h28c0.4,0,0.7-0.2,0.9-0.6s0.1-0.8-0.2-1.1C45,62.1,38.8,55,30.6,55
		c-0.4,0-0.8,0-1.3,0.1L11.2,35.4c0.8-0.9,1.3-2.1,1.3-3.4c0-1.1-0.4-2.1-1-2.9l15-13.7L30.6,19.5z M42.1,62H19
		c2.3-2,6.7-5.1,11.6-5.1C35.5,56.9,39.8,60,42.1,62z M4.5,32c0-1.7,1.3-3,3-3s3,1.3,3,3s-1.3,3-3,3S4.5,33.7,4.5,32z M55.5,18.6
		l-7-3.5c-0.5-0.2-1.1,0-1.3,0.4c-0.2,0.5,0,1.1,0.4,1.3l6.4,3.2L37.8,36.3l-5.2-17l9.1-9.1l16.9,5.3L55.5,18.6z M24.5,8
		c0-1.6,0.6-3.2,1.7-4.3c2.3-2.3,6.3-2.3,8.6,0L40.1,9l-8.6,8.6l-5.3-5.3C25.1,11.2,24.5,9.7,24.5,8z"/>
	<path d="M42.6,13.9l2,1C44.7,15,44.8,15,45,15c0.4,0,0.7-0.2,0.9-0.6c0.2-0.5,0-1.1-0.4-1.3l-2-1c-0.5-0.2-1.1,0-1.3,0.4
		C41.9,13,42.1,13.6,42.6,13.9z"/>
</g>
</svg>