<?xml version="1.0" encoding="utf-8"?>


<svg version="1.1" id="Слой_1" xmlns="http://www.w3.org/2000/svg" xmlns:xlink="http://www.w3.org/1999/xlink" 
	 viewBox="0 0 64 64" enable-background="new 0 0 64 64" xml:space="preserve">
<rect id="bg" x="-50" y="-149" display="none" fill="#6DCFF6" width="544" height="455"/>
<g id="_Mixer">
	<path d="M50,0H6C2.4,0,0,2.4,0,6v19c0,3.6,2.4,6,6,6h5v9h-1c-3.7,0-7,3.3-7,7V57c0,3.9,3.1,7,7,7h1h2h1c1.4,0,2.8-0.5,4-1.4
		c1.2,0.9,2.6,1.4,4,1.4h1h2h1c3.7,0,7-3.3,7-7V47c0-3.7-3.3-7-7-7h-1v-9h33c3.6,0,6-2.5,6-6V14C64,6.1,57.9,0,50,0z M19,47V57
		c0,1-0.4,2-1,2.8c-0.6-0.8-1-1.8-1-2.8V47c0-1,0.4-2,1-2.8C18.6,44.9,19,45.9,19,47z M5,57V47c0-1.6,0.9-3.1,2.2-4
		C7.1,43.3,7,43.6,7,44v16c0,0.4,0.1,0.8,0.2,1.2C5.9,60.3,5,58.8,5,57z M11,62c-0.9,0-2-0.8-2-2V44c0-1,1.1-2,2-2h2c1,0,2,1,2,2v3
		V57v3c0,1-1,2-2,2H11z M23,62c-1,0-2-1-2-2v-3V47v-3c0-1,1-2,2-2h2c1,0,2,1,2,2V60c0,1-1,2-2,2H23z M31,47V57c0,1.6-0.9,3.1-2.2,4
		c0.1-0.3,0.2-0.7,0.2-1V44c0-0.3-0.1-0.7-0.2-1C30.1,43.9,31,45.4,31,47z M23,40h-1c-1.4,0-2.8,0.5-4,1.4c-1.2-0.9-2.6-1.4-4-1.4
		h-1v-9h10V40z M62,25c0,2.5-1.5,4-4,4H6c-2.5,0-4-1.6-4-4V6c0-2.5,1.5-4,4-4h44c6.7,0,12,5.2,12,12V25z"/>
	<path d="M10,15.9c2.2,0,4-1.8,4-4s-1.8-4-4-4s-4,1.8-4,4S7.8,15.9,10,15.9z M10,9.9c1.1,0,2,0.9,2,2s-0.9,2-2,2s-2-0.9-2-2
		S8.9,9.9,10,9.9z"/>
	<path d="M28,18h17c3.3,0,6-2.7,6-6s-2.7-6-6-6H28c-3.2,0-6.1,2.9-6.1,6.1C21.9,15.3,24.7,18,28,18z M28,8h17c2.2,0,4,1.8,4,4
		s-1.8,4-4,4H28c-2.2,0-4.1-1.8-4.1-3.9C23.9,10,25.9,8,28,8z"/>
	<path d="M52,21H7c-0.6,0-1,0.4-1,1s0.4,1,1,1h45c0.6,0,1-0.4,1-1S52.6,21,52,21z"/>
	<path d="M56,21c-0.6,0-1,0.4-1,1s0.4,1,1,1h2c0.6,0,1-0.4,1-1s-0.4-1-1-1H56z"/>
</g>
</svg>