<?xml version="1.0" encoding="utf-8"?>


<svg version="1.1" id="Слой_1" xmlns="http://www.w3.org/2000/svg" xmlns:xlink="http://www.w3.org/1999/xlink" 
	 viewBox="0 0 64 64" enable-background="new 0 0 64 64" xml:space="preserve">
<rect id="bg" x="-144" y="-337" display="none" fill="#6DCFF6" width="544" height="455"/>
<g id="phone">
	<path d="M28,30c0,2.2,1.8,4,4,4s4-1.8,4-4s-1.8-4-4-4S28,27.8,28,30z M34,30c0,1.1-0.9,2-2,2s-2-0.9-2-2s0.9-2,2-2S34,28.9,34,30z"
		/>
	<path d="M21,26c-2.2,0-4,1.8-4,4s1.8,4,4,4s4-1.8,4-4S23.2,26,21,26z M21,32c-1.1,0-2-0.9-2-2s0.9-2,2-2s2,0.9,2,2S22.1,32,21,32z"
		/>
	<path d="M43,26c-2.2,0-4,1.8-4,4s1.8,4,4,4s4-1.8,4-4S45.2,26,43,26z M43,32c-1.1,0-2-0.9-2-2s0.9-2,2-2s2,0.9,2,2S44.1,32,43,32z"
		/>
	<path d="M36,41c0-2.2-1.8-4-4-4s-4,1.8-4,4s1.8,4,4,4S36,43.2,36,41z M32,43c-1.1,0-2-0.9-2-2s0.9-2,2-2s2,0.9,2,2S33.1,43,32,43z"
		/>
	<path d="M21,37c-2.2,0-4,1.8-4,4s1.8,4,4,4s4-1.8,4-4S23.2,37,21,37z M21,43c-1.1,0-2-0.9-2-2s0.9-2,2-2s2,0.9,2,2S22.1,43,21,43z"
		/>
	<path d="M43,37c-2.2,0-4,1.8-4,4s1.8,4,4,4s4-1.8,4-4S45.2,37,43,37z M43,43c-1.1,0-2-0.9-2-2s0.9-2,2-2s2,0.9,2,2S44.1,43,43,43z"
		/>
	<path d="M52,52.4V6.7C52,3,48.6,0,44.4,0H19.6C15.4,0,12,3,12,6.7v45.8c-6.2,3.4-9,8-9,10.5v1h58v-1C61,60.5,58.2,55.9,52,52.4z
		 M14,6.7C14,4.1,16.5,2,19.6,2h24.9C47.5,2,50,4.1,50,6.7v44.7c-4.4-2-10.3-3.4-17.8-3.4c-7.7,0-13.7,1.5-18.2,3.5V6.7z M5.2,62
		c1.2-4.1,9.5-12,27-12c17,0,25.4,7.9,26.6,12H5.2z"/>
	<path d="M21.2,22h21.5c2.3,0,4.2-1.9,4.2-4.2V8.2C47,5.9,45.1,4,42.8,4H21.2C18.9,4,17,5.9,17,8.2v9.5C17,20.1,18.9,22,21.2,22z
		 M19,8.2C19,7,20,6,21.2,6h21.5C44,6,45,7,45,8.2v9.5c0,1.2-1,2.2-2.2,2.2H21.2C20,20,19,19,19,17.8V8.2z"/>
	<path d="M39,55H25.8c-0.6,0-1,0.4-1,1s0.4,1,1,1H39c0.6,0,1-0.4,1-1S39.5,55,39,55z"/>
</g>
</svg>