<?xml version="1.0" encoding="utf-8"?>


<svg version="1.1" id="Слой_1" xmlns="http://www.w3.org/2000/svg" xmlns:xlink="http://www.w3.org/1999/xlink" 
	 viewBox="0 0 64 64" enable-background="new 0 0 64 64" xml:space="preserve">
<rect id="bg" x="-238" y="-243" display="none" fill="#6DCFF6" width="544" height="455"/>
<g id="vacuum_cleaner">
	<path d="M29.5,50.9c1.8,0,3.4-1.5,3.4-3.4s-1.5-3.4-3.4-3.4s-3.4,1.5-3.4,3.4S27.7,50.9,29.5,50.9z M29.5,45.9
		c0.9,0,1.6,0.7,1.6,1.6s-0.7,1.6-1.6,1.6s-1.6-0.7-1.6-1.6S28.6,45.9,29.5,45.9z"/>
	<path d="M60.8,58H57V10c0-5.8-4.2-10-10-10S37,4.2,37,10v14c0,1.9-1.1,3-3,3c-2,0-3-1-3-3.1V22h0c0-6-4.1-9.9-10-9.9
		c-6.9,0-10,4.9-10,9.9v12.5C5,36.1,0,41,0,48c0,1.5,0.3,3.2,1,5.3c0,0.2,0,0.5,0,0.7c0,5.5,4.4,10,9.9,10c0.1,0,0.1,0,0.1,0v0h34v0
		c0.1,0,0.1,0,0.2,0h15.6c2,0,3.2-1.1,3.2-3S62.8,58,60.8,58z M13,22c0-3.9,2.1-8,8-8c4.8,0,8,3.2,8,7.9v2c0,3.2,1.9,5.1,5,5.1
		c3,0,5-2,5-5V10c0-4.7,3.3-8,8-8s8,3.3,8,8v6h-3v-6c0-3.2-1.8-5-5-5c-3.1,0-5,1.9-5,5v13c0,4.3-2.5,9-8,9c-4.7,0-8-3.3-8-8v-2
		c0-3.2-1.8-5-5-5c-2.3,0-5,0.9-5,5v12c0,0-0.7,0-1,0c-0.7,0-1,0.1-2,0.2V22z M55,18v40h-3V18H55z M2,48c0-7.4,6.7-12,13-12
		c19,0,26.5,13.2,27.8,20h-22c0.1-0.6,0.2-1.3,0.2-2c0-5.5-4.5-10-10-10c-3.9,0-7.2,2.2-8.9,5.4C2,48.9,2,48.4,2,48z M11,62
		c-4.4,0-8-3.6-8-8s3.6-8,8-8s8,3.6,8,8S15.4,62,11,62z M20.1,58H43h1h1c0-7.7-8-22.4-27-23.9V22c0-2.2,0.8-3,3-3c2.1,0,3,0.9,3,3v2
		c0,5.8,4.2,10,10,10c6.6,0,10-5.5,10-11V10c0-2,1-3,3-3c2.1,0,3,0.9,3,3v48h-4.8c-2,0-3.2,1.1-3.2,3c0,0.4,0.1,0.7,0.1,1H17
		C18.3,61,19.5,59.6,20.1,58z M60.8,62H45.2c-1.1,0-1.2-0.5-1.2-1s0.1-1,1.2-1h15.6c1.1,0,1.2,0.5,1.2,1S61.9,62,60.8,62z"/>
</g>
</svg>