<?xml version="1.0" encoding="utf-8"?>
<svg width="800px" height="800px" viewBox="-0.21 0 32.871 32.871" xmlns="http://www.w3.org/2000/svg">
  <g id="announcement" transform="translate(-779.053 -112.499)">
    <path id="Rectangle_16" data-name="Rectangle 16" d="M5,0H9.947a0,0,0,0,1,0,0V10a0,0,0,0,1,0,0H5A5,5,0,0,1,0,5V5A5,5,0,0,1,5,0Z" transform="translate(780.053 120.499)" fill="#ffc2c2" stroke="#333" stroke-linecap="round" stroke-linejoin="round" stroke-width="2"/>
    <path id="Path_43" data-name="Path 43" d="M804,137.446,790,130.5v-10l14-7Z" fill="#ffc2c2" stroke="#333" stroke-linecap="round" stroke-linejoin="round" stroke-width="2"/>
    <line id="Line_52" data-name="Line 52" x2="8" y2="13.501" transform="translate(786 130.499)" fill="none" stroke="#333" stroke-linecap="round" stroke-linejoin="round" stroke-width="2"/>
    <line id="Line_53" data-name="Line 53" x2="4" transform="translate(807.053 125.499)" fill="none" stroke="#333" stroke-miterlimit="10" stroke-width="2"/>
    <line id="Line_54" data-name="Line 54" y1="2" x2="4" transform="translate(807.053 119.499)" fill="none" stroke="#333" stroke-miterlimit="10" stroke-width="2"/>
    <line id="Line_55" data-name="Line 55" x2="4" y2="2" transform="translate(807.053 129.499)" fill="none" stroke="#333" stroke-miterlimit="10" stroke-width="2"/>
  </g>
</svg>