<?xml version="1.0" encoding="utf-8"?>


<svg version="1.1" id="Icons" xmlns="http://www.w3.org/2000/svg" xmlns:xlink="http://www.w3.org/1999/xlink" 
	 viewBox="0 0 32 32" xml:space="preserve">
<style type="text/css">
	.st0{fill:none;stroke:#000000;stroke-width:2;stroke-linecap:round;stroke-linejoin:round;stroke-miterlimit:10;}
</style>
<g>
	<path d="M14,3H4C3.4,3,3,3.4,3,4v10c0,0.6,0.4,1,1,1h10c0.6,0,1-0.4,1-1V4C15,3.4,14.6,3,14,3z"/>
	<path d="M14,17H4c-0.6,0-1,0.4-1,1v10c0,0.6,0.4,1,1,1h10c0.6,0,1-0.4,1-1V18C15,17.4,14.6,17,14,17z"/>
	<path d="M28,3H18c-0.6,0-1,0.4-1,1v10c0,0.6,0.4,1,1,1h10c0.6,0,1-0.4,1-1V4C29,3.4,28.6,3,28,3z"/>
	<path d="M27,22h-3v-3c0-0.6-0.4-1-1-1s-1,0.4-1,1v3h-3c-0.6,0-1,0.4-1,1s0.4,1,1,1h3v3c0,0.6,0.4,1,1,1s1-0.4,1-1v-3h3
		c0.6,0,1-0.4,1-1S27.6,22,27,22z"/>
</g>
</svg>