<?xml version="1.0" encoding="utf-8"?>


<svg version="1.1" id="Icons" xmlns="http://www.w3.org/2000/svg" xmlns:xlink="http://www.w3.org/1999/xlink" 
	 viewBox="0 0 32 32" xml:space="preserve">
<style type="text/css">
	.st0{fill:none;stroke:#000000;stroke-width:2;stroke-linecap:round;stroke-linejoin:round;stroke-miterlimit:10;}
</style>
<path d="M27,4H5C3.3,4,2,5.3,2,7v18c0,1.7,1.3,3,3,3h5.8l-3.9-3.9c-2.5-2.5-2.5-6.7,0-9.2c1.2-1.2,2.9-1.9,4.6-1.9
	c1.7,0,3.3,0.7,4.5,1.8c1.2-1.2,2.8-1.8,4.5-1.8c1.7,0,3.4,0.7,4.6,1.9c2.5,2.5,2.5,6.7,0,9.2L21.2,28H27c1.7,0,3-1.3,3-3V7
	C30,5.3,28.7,4,27,4z M7.9,8.4C7.9,8.5,7.8,8.6,7.7,8.7C7.5,8.9,7.3,9,7,9S6.5,8.9,6.3,8.7C6.1,8.5,6,8.3,6,8c0-0.3,0.1-0.5,0.3-0.7
	c0,0,0.1-0.1,0.1-0.1c0.1,0,0.1-0.1,0.2-0.1C6.7,7,6.7,7,6.8,7c0.1,0,0.3,0,0.4,0c0.1,0,0.1,0,0.2,0.1c0.1,0,0.1,0.1,0.2,0.1
	c0,0,0.1,0.1,0.1,0.1c0.1,0.1,0.2,0.2,0.2,0.3C8,7.7,8,7.9,8,8C8,8.1,8,8.3,7.9,8.4z M10.7,8.7C10.5,8.9,10.3,9,10,9
	C9.7,9,9.5,8.9,9.3,8.7C9.1,8.5,9,8.3,9,8c0-0.1,0-0.3,0.1-0.4c0.1-0.1,0.1-0.2,0.2-0.3c0.1-0.1,0.2-0.2,0.3-0.2
	C10,6.9,10.4,7,10.7,7.3c0.1,0.1,0.2,0.2,0.2,0.3C11,7.7,11,7.9,11,8C11,8.3,10.9,8.5,10.7,8.7z M13.9,8.4c-0.1,0.1-0.1,0.2-0.2,0.3
	C13.5,8.9,13.3,9,13,9c-0.1,0-0.3,0-0.4-0.1c-0.1-0.1-0.2-0.1-0.3-0.2c-0.1-0.1-0.2-0.2-0.2-0.3C12,8.3,12,8.1,12,8
	c0-0.1,0-0.3,0.1-0.4c0.1-0.1,0.1-0.2,0.2-0.3c0.4-0.4,1-0.4,1.4,0c0.1,0.1,0.2,0.2,0.2,0.3C14,7.7,14,7.9,14,8
	C14,8.1,14,8.3,13.9,8.4z"/>
<path d="M23.7,16.3c-0.8-0.8-2-1.3-3.2-1.3s-2.3,0.5-3.2,1.3L16,17.7l-1.3-1.4c-0.8-0.8-2-1.3-3.2-1.3s-2.3,0.5-3.2,1.3
	c-1.7,1.8-1.7,4.6,0,6.4l7,7c0.2,0.2,0.4,0.3,0.7,0.3s0.5-0.1,0.7-0.3l7-7C25.4,20.9,25.4,18.1,23.7,16.3z"/>
</svg>