<?xml version="1.0" encoding="utf-8"?>


<svg version="1.1" id="Icons" xmlns="http://www.w3.org/2000/svg" xmlns:xlink="http://www.w3.org/1999/xlink" 
	 viewBox="0 0 32 32" xml:space="preserve">
<style type="text/css">
	.st0{fill:none;stroke:#000000;stroke-width:2;stroke-linecap:round;stroke-linejoin:round;stroke-miterlimit:10;}
</style>
<path d="M14,23c0-5.5,4.5-10,10-10c1.2,0,2.3,0.2,3.3,0.6l2.9-4.4c0.4-0.6,0.6-1.2,0.7-1.9C31,7.2,31,7.1,31,7c0-0.1,0-0.1,0-0.2
	c0-0.8-0.1-1.5-0.4-2.3c-0.7-1.4-2-2.4-3.5-2.6c-0.2,0-0.4,0-0.6,0c-0.1,0-0.1,0-0.2,0c-0.1,0-0.2,0-0.3,0c0,0,0,0,0,0c0,0,0,0,0,0
	H9.5C9.4,2,9.3,2,9.2,2.1C9.2,2,9.1,2,9,2C6.2,2,4,4.2,4,7c0,0.7,0.2,1.3,0.6,1.9C5.4,10.2,6.8,11,8.4,11h1.2L1.8,22.8
	c-0.9,1.4-1,3.1-0.3,4.6c0.7,1.4,2,2.4,3.5,2.6c0.2,0,0.4,0,0.6,0h11.4C15.1,28.2,14,25.7,14,23z M8.4,9C7.5,9,6.7,8.6,6.3,7.9
	C6.1,7.6,6,7.3,6,7c0-1.7,1.3-3,3-3c0.1,0,0.2,0,0.2-0.1C9.3,4,9.4,4,9.5,4h12.7c-1.7,2.2-1,4.2-0.6,5c0,0,0,0,0,0H8.4z"/>
<path d="M24,15c-4.4,0-8,3.6-8,8s3.6,8,8,8s8-3.6,8-8S28.4,15,24,15z M27,24h-2v2c0,0.6-0.4,1-1,1s-1-0.4-1-1v-2h-2
	c-0.6,0-1-0.4-1-1s0.4-1,1-1h2v-2c0-0.6,0.4-1,1-1s1,0.4,1,1v2h2c0.6,0,1,0.4,1,1S27.6,24,27,24z"/>
</svg>