<?xml version="1.0" encoding="utf-8"?>
<svg width="800px" height="800px" viewBox="0 -6.5 115 115" xmlns="http://www.w3.org/2000/svg">
  <g id="Brail" transform="translate(-525.03 -208.14)">
    <path id="Path_53" data-name="Path 53" d="M525.03,253.142a45,45,0,1,1,45,45A45,45,0,0,1,525.03,253.142Z" fill="#f9d015"/>
    <g id="Group_21" data-name="Group 21">
      <path id="Path_54" data-name="Path 54" d="M628.03,245.142a3,3,0,0,0,2.12-5.12,3.1,3.1,0,0,0-4.24,0,3,3,0,0,0,2.12,5.12Z" fill="#293a56"/>
      <path id="Path_55" data-name="Path 55" d="M619.03,253.142a3,3,0,0,0,2.12-5.12,3.1,3.1,0,0,0-4.24,0,3,3,0,0,0,2.12,5.12Z" fill="#293a56"/>
      <path id="Path_56" data-name="Path 56" d="M611.03,253.142a3,3,0,0,0,2.12-5.12,3.1,3.1,0,0,0-4.24,0,3,3,0,0,0,2.12,5.12Z" fill="#293a56"/>
      <path id="Path_57" data-name="Path 57" d="M591.03,253.142a3,3,0,0,0,2.12-5.12,3.1,3.1,0,0,0-4.24,0,3,3,0,0,0,2.12,5.12Z" fill="#293a56"/>
      <path id="Path_58" data-name="Path 58" d="M619.03,245.142a3,3,0,0,0,2.12-5.12,3.1,3.1,0,0,0-4.24,0,3,3,0,0,0,2.12,5.12Z" fill="#293a56"/>
      <path id="Path_59" data-name="Path 59" d="M599.03,245.142a3,3,0,0,0,2.12-5.12,3.1,3.1,0,0,0-4.24,0,3,3,0,0,0,2.12,5.12Z" fill="#293a56"/>
      <path id="Path_60" data-name="Path 60" d="M637.03,230.142h-74a3,3,0,0,0-3,3v25a3,3,0,0,0,3,3h4v46a3,3,0,0,0,3,3h52a3,3,0,0,0,3-3v-29a9.01,9.01,0,0,0-9-9h-1a8.941,8.941,0,0,0-4.419,1.168,8.993,8.993,0,0,0-7.581-4.168h-1a8.941,8.941,0,0,0-4.914,1.469,8.984,8.984,0,0,0-7.086-3.469h-1a8.965,8.965,0,0,0-3,.524v-3.524h51a3,3,0,0,0,3-3v-25A3,3,0,0,0,637.03,230.142Zm-64,26a2.994,2.994,0,0,1,3-3h1a2.994,2.994,0,0,1,3,3v33a3,3,0,0,0,6,0v-16a3,3,0,0,1,3-3h1a3,3,0,0,1,3,3v16a3,3,0,0,0,6,0v-14a3,3,0,0,1,3-3h1a3,3,0,0,1,3,3v14a3,3,0,0,0,6,0v-11a3,3,0,0,1,3-3h1a3,3,0,0,1,3,3v26h-46Zm61-1H585.971a9.01,9.01,0,0,0-8.941-8h-1a9.01,9.01,0,0,0-8.941,8H566.03v-19h68Z" fill="#293a56"/>
    </g>
  </g>
</svg>