<?xml version="1.0" encoding="utf-8"?>
<svg width="800px" height="800px" viewBox="0 -3 100 100" xmlns="http://www.w3.org/2000/svg">
  <g id="Fax" transform="translate(-380.03 -230.142)">
    <path id="Path_40" data-name="Path 40" d="M380.03,279.142a45,45,0,1,1,45,45A45,45,0,0,1,380.03,279.142Z" fill="#59d999"/>
    <g id="Group_20" data-name="Group 20">
      <g id="Group_19" data-name="Group 19">
        <g id="Group_18" data-name="Group 18">
          <path id="Path_41" data-name="Path 41" d="M442.72,240.382v4.45h-4.45Z" fill="#f9d015"/>
          <path id="Path_42" data-name="Path 42" d="M480.03,261.142v32.83a3,3,0,0,1-3,3h-2v10.17a3,3,0,0,1-3,3h-41a3,3,0,0,1-3-3v-10.17h-3v6.359a3,3,0,0,1-3,3h-18a3,3,0,0,1-3-3V254.992a3,3,0,0,1,3-3h18a3,3,0,0,1,3,3v3.15h3V247.831a2.993,2.993,0,0,1,.88-2.119l14.69-14.691a3,3,0,0,1,2.12-.879h26.31a3,3,0,0,1,3,3v25h2a3,3,0,0,1,3,3Zm-6,29.83v-26.83h-49v26.83h49Zm-5,13.17v-7.17h-35v7.17Zm0-46v-22H448.72v11.689a3,3,0,0,1-3,3H434.03v7.311Zm-26.31-13.311v-4.449l-4.449,4.449Zm-23.69,55.5V257.992h-12v42.339Z" fill="#293a56"/>
          <path id="Path_43" data-name="Path 43" d="M470.15,267.441a3,3,0,1,1-4.24,0A3.1,3.1,0,0,1,470.15,267.441Z" fill="#293a56"/>
          <path id="Path_44" data-name="Path 44" d="M470.15,275.441a3,3,0,1,1-4.24,0A3.1,3.1,0,0,1,470.15,275.441Z" fill="#293a56"/>
          <path id="Path_45" data-name="Path 45" d="M470.15,283.441a3,3,0,1,1-4.24,0A3.1,3.1,0,0,1,470.15,283.441Z" fill="#293a56"/>
          <path id="Path_46" data-name="Path 46" d="M461.15,267.441a3.1,3.1,0,1,1-2.12-.839A2.995,2.995,0,0,1,461.15,267.441Z" fill="#293a56"/>
          <path id="Path_47" data-name="Path 47" d="M461.15,275.441a3.1,3.1,0,1,1-2.12-.839A2.995,2.995,0,0,1,461.15,275.441Z" fill="#293a56"/>
          <path id="Path_48" data-name="Path 48" d="M461.15,283.441a3.1,3.1,0,1,1-2.12-.839A2.995,2.995,0,0,1,461.15,283.441Z" fill="#293a56"/>
          <path id="Path_49" data-name="Path 49" d="M452.15,267.441a3.1,3.1,0,1,1-2.12-.839A2.995,2.995,0,0,1,452.15,267.441Z" fill="#293a56"/>
          <path id="Path_50" data-name="Path 50" d="M452.15,275.441a3.1,3.1,0,1,1-2.12-.839A2.995,2.995,0,0,1,452.15,275.441Z" fill="#293a56"/>
          <path id="Path_51" data-name="Path 51" d="M452.15,283.441a3.1,3.1,0,1,1-2.12-.839A2.995,2.995,0,0,1,452.15,283.441Z" fill="#293a56"/>
          <path id="Path_52" data-name="Path 52" d="M438.03,282.561a3,3,0,0,1,0,6h-5a3,3,0,0,1,0-6Z" fill="#293a56"/>
        </g>
      </g>
    </g>
  </g>
</svg>