<?xml version="1.0" encoding="utf-8"?>
<svg width="800px" height="800px" viewBox="0 -13.47 116.94 116.94" xmlns="http://www.w3.org/2000/svg">
  <g id="Video_chat" data-name="Video chat" transform="translate(-240.09 -385.142)">
    <path id="Path_71" data-name="Path 71" d="M267.03,430.143a45,45,0,1,1,45,45A45,45,0,0,1,267.03,430.143Z" fill="#b6c6ad"/>
    <g id="Group_31" data-name="Group 31">
      <g id="Group_30" data-name="Group 30">
        <g id="Group_29" data-name="Group 29">
          <path id="Path_72" data-name="Path 72" d="M288.941,433.151H271.12c.31-2.79,1.43-4.549,3.67-5.67l3.731,2.221a3.008,3.008,0,0,0,3.089,0l3.67-2.221C287.51,428.6,288.63,430.372,288.941,433.151Z" fill="#f9d015"/>
          <path id="Path_73" data-name="Path 73" d="M320.03,393.191v60.941a3,3,0,0,1-3,3H294.07l4.621,8.59a3,3,0,0,1-2.641,4.42H264.07a3,3,0,0,1-2.64-4.42l4.62-8.59H243.09a3,3,0,0,1-3-3V393.191a3,3,0,0,1,3-3h73.94a3,3,0,0,1,3,3Zm-6,57.941V439.151H246.09v11.981Zm0-17.981v-36.96H246.09v36.96H265.1c.46-5.939,3.46-9.929,8.94-11.849a2.791,2.791,0,0,1,.99-.17,3.014,3.014,0,0,1,1.54.42l3.48,2.08,3.431-2.071a2.993,2.993,0,0,1,2.54-.259c5.48,1.92,8.48,5.91,8.94,11.849Zm-23,30.991-3.77-7h-14.4l-3.76,7Zm-19.91-30.991h17.821c-.311-2.779-1.431-4.549-3.661-5.67l-3.67,2.221a3.008,3.008,0,0,1-3.089,0l-3.731-2.221C272.55,428.6,271.43,430.361,271.12,433.151Z" fill="#293a56"/>
          <path id="Path_74" data-name="Path 74" d="M280.06,398.142a11,11,0,1,1-11,11A11.006,11.006,0,0,1,280.06,398.142Zm5,11a5,5,0,1,0-5,5A5,5,0,0,0,285.06,409.142Z" fill="#293a56"/>
          <path id="Path_75" data-name="Path 75" d="M282.18,443.031a3,3,0,1,1-4.239,0A3.1,3.1,0,0,1,282.18,443.031Z" fill="#293a56"/>
        </g>
      </g>
    </g>
  </g>
</svg>