<?xml version="1.0" encoding="utf-8"?>
<svg width="800px" height="800px" viewBox="0 -5.86 109.726 109.726" xmlns="http://www.w3.org/2000/svg">
  <g id="Walkie_talkie" data-name="Walkie talkie" transform="translate(-690.03 -372.14)">
    <path id="Path_88" data-name="Path 88" d="M690.03,417.141a45,45,0,1,1,45,45A45,45,0,0,1,690.03,417.141Z" fill="#f84d43"/>
    <g id="Group_36" data-name="Group 36">
      <path id="Path_89" data-name="Path 89" d="M798.878,406.957a3,3,0,0,0-2.122-.879h-2.032v-2.032a3,3,0,0,0-6,0v2.032H777.971a2.839,2.839,0,0,0-2.121-3.22v-9.717a3,3,0,0,0-6,0v9.717a2.992,2.992,0,0,0-2.157,2.865,2.762,2.762,0,0,0,.037.355H767.4a3,3,0,0,0-3,3v46.975a3,3,0,0,0,3,3h29.358a3,3,0,0,0,3-3V409.078A3,3,0,0,0,798.878,406.957Zm-5.122,46.1H770.4V412.079h23.358Z" fill="#293a56"/>
      <path id="Path_90" data-name="Path 90" d="M776.625,423.823h10.9a3,3,0,0,0,0-6h-10.9a3,3,0,0,0,0,6Z" fill="#293a56"/>
      <path id="Path_91" data-name="Path 91" d="M776.625,433.889h10.9a3,3,0,0,0,0-6h-10.9a3,3,0,0,0,0,6Z" fill="#293a56"/>
      <path id="Path_92" data-name="Path 92" d="M782.916,443.827h-1.678a3,3,0,0,0,0,6h1.678a3,3,0,0,0,0-6Z" fill="#293a56"/>
      <path id="Path_93" data-name="Path 93" d="M752.389,417.167h-2.033v-2.033a3,3,0,0,0-6,0v2.033H733.6a2.839,2.839,0,0,0-2.121-3.22V404.23a3,3,0,0,0-6,0v9.718a2.839,2.839,0,0,0-2.121,3.22h-.332a3,3,0,0,0-3,3v46.974a3,3,0,0,0,3,3h29.359a3,3,0,0,0,3-3V420.167a3,3,0,0,0-3-3Zm-3,46.974H726.03V423.168h23.359Z" fill="#293a56"/>
      <path id="Path_94" data-name="Path 94" d="M732.258,434.911h10.905a3,3,0,1,0,0-6H732.258a3,3,0,0,0,0,6Z" fill="#293a56"/>
      <path id="Path_95" data-name="Path 95" d="M732.258,444.977h10.905a3,3,0,0,0,0-6H732.258a3,3,0,0,0,0,6Z" fill="#293a56"/>
      <path id="Path_96" data-name="Path 96" d="M738.548,454.914H736.87a3,3,0,0,0,0,6h1.678a3,3,0,0,0,0-6Z" fill="#293a56"/>
    </g>
  </g>
</svg>