<?xml version="1.0" encoding="utf-8"?>
<svg width="800px" height="800px" viewBox="-4.5 0 99 99" xmlns="http://www.w3.org/2000/svg">
  <g id="Wifi_Modem" data-name="Wifi Modem" transform="translate(-715.03 -211.142)">
    <path id="Path_61" data-name="Path 61" d="M715.03,256.144a45,45,0,1,1,45,45A45,45,0,0,1,715.03,256.144Z" fill="#b6c6ad"/>
    <g id="Group_25" data-name="Group 25">
      <g id="Group_22" data-name="Group 22">
        <path id="Path_62" data-name="Path 62" d="M750.607,242.788a13.224,13.224,0,0,1,9.415-3.9h.005a13.25,13.25,0,0,1,9.427,3.909,3,3,0,0,0,4.243-4.241,19.2,19.2,0,0,0-13.668-5.668h-.007a19.177,19.177,0,0,0-13.659,5.661,3,3,0,0,0,4.244,4.24Z" fill="#293a56"/>
      </g>
      <g id="Group_23" data-name="Group 23">
        <path id="Path_63" data-name="Path 63" d="M760.066,244.117a13.161,13.161,0,0,0-9.376,3.89,3,3,0,1,0,4.247,4.238,7.2,7.2,0,0,1,5.129-2.128h0a7.242,7.242,0,0,1,5.153,2.143,3,3,0,0,0,4.248-4.237,13.2,13.2,0,0,0-9.4-3.906Z" fill="#293a56"/>
      </g>
      <g id="Group_24" data-name="Group 24">
        <path id="Path_64" data-name="Path 64" d="M798.227,258.39a3,3,0,0,0-3.948,1.555l-9.65,22.2h-21.6v-23a3,3,0,0,0-6,0v23h-21.6l-9.651-22.2a3,3,0,1,0-5.5,2.393l8.614,19.81a8.381,8.381,0,0,0-8.307,9.241l.913,10.049a9.765,9.765,0,0,0,9.531,8.7h58a9.764,9.764,0,0,0,9.531-8.7l.914-10.049a8.381,8.381,0,0,0-8.307-9.241l8.613-19.81A3,3,0,0,0,798.227,258.39ZM793.5,290.846l-.913,10.048a3.74,3.74,0,0,1-3.556,3.248h-58a3.739,3.739,0,0,1-3.555-3.248l-.914-10.048a2.4,2.4,0,0,1,2.469-2.7h14.5v5a3,3,0,0,0,6,0v-5h3v5a3,3,0,0,0,6,0v-5h3v5a3,3,0,0,0,6,0v-5h3v5a3,3,0,0,0,6,0v-5h14.5a2.395,2.395,0,0,1,2.469,2.7Z" fill="#293a56"/>
      </g>
    </g>
  </g>
</svg>