<?xml version="1.0" encoding="utf-8"?>
<svg width="800px" height="800px" viewBox="0 0 64 64" xmlns="http://www.w3.org/2000/svg"><title>Virtual Reality icons</title><path d="M32,18c-6.63,0-12.32-2.27-14.74-5.5A5.79,5.79,0,0,0,16,16c0,5,7.16,9,16,9s16-4,16-9a5.79,5.79,0,0,0-1.26-3.5C44.32,15.73,38.63,18,32,18Z" fill="#c8f1fb"/><ellipse cx="32" cy="10" rx="16" ry="9" fill="none" stroke="#47caf3" stroke-miterlimit="10" stroke-width="2"/><circle cx="25.5" cy="9.5" r="1.5" fill="#47caf3"/><circle cx="38.5" cy="9.5" r="1.5" fill="#47caf3"/><path d="M48,10V54c0,5-7.16,9-16,9s-16-4-16-9V10" fill="none" stroke="#47caf3" stroke-miterlimit="10" stroke-width="2"/><line x1="48" y1="39" x2="16" y2="39" fill="none" stroke="#47caf3" stroke-miterlimit="10" stroke-width="2"/><circle cx="19.5" cy="48" r="1" fill="#47caf3"/><circle cx="24.5" cy="48" r="1" fill="#47caf3"/><circle cx="29.5" cy="48" r="1" fill="#47caf3"/><circle cx="34.5" cy="48" r="1" fill="#47caf3"/><circle cx="39.5" cy="48" r="1" fill="#47caf3"/><circle cx="44.5" cy="48" r="1" fill="#47caf3"/><circle cx="22.5" cy="44" r="1" fill="#47caf3"/><circle cx="27.5" cy="44" r="1" fill="#47caf3"/><circle cx="32.5" cy="44" r="1" fill="#47caf3"/><circle cx="37.5" cy="44" r="1" fill="#47caf3"/><circle cx="42.5" cy="44" r="1" fill="#47caf3"/><circle cx="24.5" cy="56" r="1" fill="#47caf3"/><circle cx="29.5" cy="56" r="1" fill="#47caf3"/><circle cx="34.5" cy="56" r="1" fill="#47caf3"/><circle cx="39.5" cy="56" r="1" fill="#47caf3"/><circle cx="22.5" cy="52" r="1" fill="#47caf3"/><circle cx="27.5" cy="52" r="1" fill="#47caf3"/><circle cx="32.5" cy="52" r="1" fill="#47caf3"/><circle cx="37.5" cy="52" r="1" fill="#47caf3"/><circle cx="42.5" cy="52" r="1" fill="#47caf3"/></svg>