<?xml version="1.0" encoding="utf-8"?>
<svg width="800px" height="800px" viewBox="0 0 64 64" xmlns="http://www.w3.org/2000/svg"><title>Virtual Reality icons</title><path d="M32,42C18.49,42,7.13,38.18,3.91,33A5.64,5.64,0,0,0,3,36c0,6.63,13,12,29,12s29-5.37,29-12a5.64,5.64,0,0,0-.91-3C56.87,38.18,45.51,42,32,42Z" fill="#c8f1fb"/><ellipse cx="32" cy="30" rx="29" ry="12" fill="none" stroke="#47caf3" stroke-miterlimit="10" stroke-width="2"/><path d="M61,30h0A23.07,23.07,0,0,1,38,53H26A23.07,23.07,0,0,1,3,30H3" fill="none" stroke="#47caf3" stroke-miterlimit="10" stroke-width="2"/><circle cx="23" cy="25" r="1" fill="#47caf3"/><circle cx="29" cy="25" r="1" fill="#47caf3"/><circle cx="35" cy="25" r="1" fill="#47caf3"/><circle cx="41" cy="25" r="1" fill="#47caf3"/><line x1="29.75" y1="47.75" x2="34.25" y2="47.75" fill="none" stroke="#47caf3" stroke-linecap="round" stroke-miterlimit="10" stroke-width="2"/></svg>