<?xml version="1.0" ?>


<svg width="800px" height="800px" viewBox="0 0 64 64" enable-background="new 0 0 64 64" id="Layer_1" version="1.1" xml:space="preserve" xmlns="http://www.w3.org/2000/svg" xmlns:xlink="http://www.w3.org/1999/xlink">

<g>

<g>

<circle cx="32" cy="32" fill="#FCCE6B" r="30"/>

</g>

</g>

<g>

<g>

<path d="M32.2,27.5c-0.3,0-0.5-0.2-0.5-0.5V13.7c0-0.3,0.2-0.5,0.5-0.5h12.2c0.3,0,0.5,0.2,0.5,0.5    s-0.2,0.5-0.5,0.5H32.7V27C32.7,27.2,32.4,27.5,32.2,27.5z" fill="#54321F"/>

</g>

<g>

<polygon fill="#54321F" points="43.9,12.4 42.2,12.4 41.7,10.1 44.3,10.1   "/>

</g>

<g>

<circle cx="32.2" cy="13.7" fill="#54321F" r="1.4"/>

</g>

<g>

<path d="M45.2,20.8v1.2h-1c-0.6,4.3-3.4,7.8-7.3,9.5c-1.5,0.6-3.1,1-4.8,1c-6.1,0-11.2-4.5-12.1-10.4h-0.9v-1.2    H45.2z" fill="#54321F"/>

</g>

<g>

<g opacity="0.25">

<path d="M44.2,21.9h1v-1.2H25.3l10.4,10.4h1.6C41,29.5,43.6,26.1,44.2,21.9z" fill="#D8D8D7"/>

</g>

<g>

<polygon fill="#54321F" points="48.6,32.4 48.6,31.2 37.3,31.2 35.8,31.2 15.4,31.2 15.4,32.4 17.3,32.4 17.3,52.7 15.4,52.7      15.4,53.9 48.6,53.9 48.6,52.7 47.1,52.7 47.1,32.4    "/>

</g>

</g>

<g>

<rect fill="#FFFFFF" height="8.5" width="19.3" x="23.1" y="38.4"/>

</g>

<g opacity="0.25">

<polygon fill="#D8D8D7" points="26.7,32.4 47.1,32.4 47.1,52.7   "/>

</g>

<g>

<polygon fill="#FCCE6B" points="48.6,52.7 48.6,52.8 47.1,52.8 47.1,52.7   "/>

</g>

<g>

<circle cx="33.4" cy="42.7" fill="#49200C" r="1.2"/>

</g>

</g>

</svg>