<?xml version="1.0" ?>


<svg width="800px" height="800px" viewBox="0 0 64 64" enable-background="new 0 0 64 64" id="Layer_1" version="1.1" xml:space="preserve" xmlns="http://www.w3.org/2000/svg" xmlns:xlink="http://www.w3.org/1999/xlink">

<g>

<g>

<circle cx="32" cy="32" fill="#5BC4C5" r="30"/>

</g>

</g>

<g>

<ellipse cx="36.9" cy="43.8" fill="#49200C" rx="10.7" ry="6.5" transform="matrix(0.9529 -0.3032 0.3032 0.9529 -11.5357 13.2546)"/>

</g>

<g>

<path d="M47.1,40.5c0,0-16.5,1.7-20.4,6.5c0,0,3.5-1.3,8.1-1.4C39.3,45.5,46.8,43.6,47.1,40.5z" fill="#8E5E46"/>

</g>

<g>

<g>

<ellipse cx="23.4" cy="24.5" fill="#49200C" rx="6.5" ry="10.7" transform="matrix(0.2167 -0.9762 0.9762 0.2167 -5.5252 42.0579)"/>

</g>

<g>

<path d="M13,22.2c0,0,15.2,6.8,20.9,4.6c0,0-3.7-0.6-7.7-2.8C22.2,21.8,14.8,19.7,13,22.2z" fill="#8E5E46"/>

</g>

</g>

<g>

<path d="M41.5,10.9c0,0-8.9,8.8,0.3,18.3C41.9,29.2,51.2,19.6,41.5,10.9z" fill="#E8E5E6"/>

</g>

<g>

<path d="M58.7,31.1c0,0-8.3-9.4-18.3-0.7C40.4,30.4,49.4,40.3,58.7,31.1z" fill="#8E5E46"/>

</g>

<g>

<path d="M60.4,8.2c0,0-12.5,0.9-11.6,14.1C48.8,22.4,62.2,21.2,60.4,8.2z" fill="#8E5E46"/>

</g>

<g>

<path d="M17.2,41.7c-0.2,0-0.5-0.2-0.5-0.4c0-0.3,0.1-0.5,0.4-0.6c21.2-3.3,36.3-24.6,36.4-24.8   c0.2-0.2,0.5-0.3,0.7-0.1c0.2,0.2,0.3,0.5,0.1,0.7C54.3,16.7,39,38.3,17.2,41.7C17.3,41.7,17.3,41.7,17.2,41.7z" fill="#54321F"/>

</g>

<g>

<ellipse cx="17.3" cy="43.5" fill="#49200C" rx="5.1" ry="8.4" transform="matrix(0.4182 -0.9083 0.9083 0.4182 -29.4856 40.9815)"/>

</g>

<g>

<path d="M24.8,47c0,0-10.5-7.7-15.2-7c0,0,2.7,1.1,5.4,3.4C17.7,45.7,23.1,48.6,24.8,47z" fill="#8E5E46"/>

</g>

<g>

<path d="M54,31.7C54,31.7,53.9,31.7,54,31.7l-12.2-2c-0.2,0-0.4-0.3-0.4-0.5l0.1-13c0-0.3,0.2-0.5,0.5-0.5   c0,0,0,0,0,0c0.3,0,0.5,0.2,0.5,0.5l-0.1,12.6l11.7,2c0.3,0,0.5,0.3,0.4,0.6C54.5,31.5,54.2,31.7,54,31.7z" fill="#54321F"/>

</g>

</svg>