<?xml version="1.0" encoding="utf-8"?>
<svg width="800px" height="800px" viewBox="0 0 64 64" xmlns="http://www.w3.org/2000/svg">

<title>church</title>

<g id="church">

<circle cx="31.5" cy="28.5" r="21.5" style="fill:#e5efef"/>

<circle cx="49" cy="7" r="2" style="fill:none;stroke:#4c241d;stroke-linecap:round;stroke-linejoin:round;stroke-width:2px"/>

<circle cx="44.044" cy="24.014" r="1.069" style="fill:#4c241d"/>

<line x1="15" y1="5" x2="18" y2="8" style="fill:none;stroke:#4c241d;stroke-linecap:round;stroke-linejoin:round;stroke-width:2px"/>

<line x1="18" y1="5" x2="15" y2="8" style="fill:none;stroke:#4c241d;stroke-linecap:round;stroke-linejoin:round;stroke-width:2px"/>

<rect x="5" y="21" width="8" height="37" style="fill:#e7d1c4;stroke:#4c241d;stroke-linecap:round;stroke-linejoin:round;stroke-width:2px"/>

<path d="M9,12H9a4,4,0,0,1,4,4v5a0,0,0,0,1,0,0H5a0,0,0,0,1,0,0V16A4,4,0,0,1,9,12Z" style="fill:#9dc1e4;stroke:#4c241d;stroke-linecap:round;stroke-linejoin:round;stroke-width:2px"/>

<rect x="13" y="40" width="12" height="18" style="fill:#e7d1c4;stroke:#4c241d;stroke-linecap:round;stroke-linejoin:round;stroke-width:2px"/>

<path d="M19,44h0a2,2,0,0,1,2,2V58a0,0,0,0,1,0,0H17a0,0,0,0,1,0,0V46A2,2,0,0,1,19,44Z" style="fill:#6b4f5b;stroke:#4c241d;stroke-linecap:round;stroke-linejoin:round;stroke-width:2px"/>

<rect x="51" y="21" width="8" height="37" transform="translate(110 79) rotate(-180)" style="fill:#e7d1c4;stroke:#4c241d;stroke-linecap:round;stroke-linejoin:round;stroke-width:2px"/>

<path d="M51,12h8a0,0,0,0,1,0,0v5a4,4,0,0,1-4,4h0a4,4,0,0,1-4-4V12a0,0,0,0,1,0,0Z" transform="translate(110 33) rotate(-180)" style="fill:#9dc1e4;stroke:#4c241d;stroke-linecap:round;stroke-linejoin:round;stroke-width:2px"/>

<rect x="39" y="40" width="12" height="18" transform="translate(90 98) rotate(-180)" style="fill:#e7d1c4;stroke:#4c241d;stroke-linecap:round;stroke-linejoin:round;stroke-width:2px"/>

<path d="M43,44h4a0,0,0,0,1,0,0V56a2,2,0,0,1-2,2h0a2,2,0,0,1-2-2V44A0,0,0,0,1,43,44Z" transform="translate(90 102) rotate(-180)" style="fill:#6b4f5b;stroke:#4c241d;stroke-linecap:round;stroke-linejoin:round;stroke-width:2px"/>

<rect x="25" y="22" width="14" height="36" style="fill:#e7d1c4;stroke:#4c241d;stroke-linecap:round;stroke-linejoin:round;stroke-width:2px"/>

<path d="M32,7h0a7,7,0,0,1,7,7v8a0,0,0,0,1,0,0H25a0,0,0,0,1,0,0V14A7,7,0,0,1,32,7Z" style="fill:#9dc1e4;stroke:#4c241d;stroke-linecap:round;stroke-linejoin:round;stroke-width:2px"/>

<path d="M30,44h4a0,0,0,0,1,0,0V56a2,2,0,0,1-2,2h0a2,2,0,0,1-2-2V44a0,0,0,0,1,0,0Z" transform="translate(64 102) rotate(-180)" style="fill:#6b4f5b;stroke:#4c241d;stroke-linecap:round;stroke-linejoin:round;stroke-width:2px"/>

<polygon points="32 27.187 27 35.313 37 35.313 32 27.187" style="fill:none;stroke:#4c241d;stroke-linecap:round;stroke-linejoin:round;stroke-width:2px"/>

<polygon points="32 37.813 27 29.688 37 29.688 32 37.813" style="fill:none;stroke:#4c241d;stroke-linecap:round;stroke-linejoin:round;stroke-width:2px"/>

<line x1="55" y1="24" x2="55" y2="28" style="fill:none;stroke:#4c241d;stroke-linecap:round;stroke-linejoin:round;stroke-width:2px"/>

<line x1="9" y1="24" x2="9" y2="28" style="fill:none;stroke:#4c241d;stroke-linecap:round;stroke-linejoin:round;stroke-width:2px"/>

<line x1="55" y1="31" x2="55" y2="58" style="fill:none;stroke:#4c241d;stroke-linecap:round;stroke-linejoin:round;stroke-width:2px"/>

<line x1="9" y1="31" x2="9" y2="58" style="fill:none;stroke:#4c241d;stroke-linecap:round;stroke-linejoin:round;stroke-width:2px"/>

</g>

</svg>