<?xml version="1.0" encoding="utf-8"?>
<svg width="800px" height="800px" viewBox="0 0 64 64" xmlns="http://www.w3.org/2000/svg">

<title>costume</title>

<g id="costume">

<circle cx="34.5" cy="24.5" r="23" style="fill:#edebdc"/>

<rect x="5.26" y="28.519" width="5.171" height="6" transform="translate(12.338 -0.649) rotate(21.928)" style="fill:#e66353;stroke:#4c241d;stroke-linecap:round;stroke-linejoin:round;stroke-width:2px"/>

<path d="M16.6,15l-4.39-7.547L9.16,18.333c-1.513.7-3.223,3.524-3.9,5.406-1.207,3.334.04,6.842,2.785,7.836s5.948-.9,7.155-4.236c.721-1.99,1.715-3.924,1.32-5.422a7.945,7.945,0,0,1-.327-2.82Z" style="fill:#ffffff;stroke:#4c241d;stroke-linecap:round;stroke-linejoin:round;stroke-width:2px"/>

<rect x="39.501" y="28.519" width="5.171" height="6" transform="matrix(-0.928, 0.373, -0.373, -0.928, 92.898, 45.042)" style="fill:#e66353;stroke:#4c241d;stroke-linecap:round;stroke-linejoin:round;stroke-width:2px"/>

<path d="M33.329,15l4.39-7.547,3.053,10.88c1.512.7,3.223,3.524,3.9,5.406,1.207,3.334-.039,6.842-2.784,7.836s-5.949-.9-7.156-4.236c-.721-1.99-1.714-3.924-1.32-5.422a7.923,7.923,0,0,0,.327-2.82Z" style="fill:#ffffff;stroke:#4c241d;stroke-linecap:round;stroke-linejoin:round;stroke-width:2px"/>

<circle cx="54" cy="28" r="1.025" style="fill:#4c241d"/>

<circle cx="46" cy="56" r="1.025" style="fill:#4c241d"/>

<circle cx="52" cy="46" r="2" style="fill:none;stroke:#4c241d;stroke-linecap:round;stroke-linejoin:round;stroke-width:2px"/>

<path d="M35.39,16.606v-1.96l2.4-7.193a24.527,24.527,0,0,0-25.574,0l2.4,7.193v1.96a14.645,14.645,0,0,0,2.459,8.122l.738,1.106a18.462,18.462,0,0,0-4.795,9.591V59.4C20,64,29,64,36.988,59.4V35.425a18.462,18.462,0,0,0-4.8-9.591l.738-1.106A14.645,14.645,0,0,0,35.39,16.606Z" style="fill:#e66353;stroke:#4c241d;stroke-linecap:round;stroke-linejoin:round;stroke-width:2px"/>

<polygon points="32 12 25 15 18 12 18 5 32 5 32 12" style="fill:#ffffff;stroke:#4c241d;stroke-linecap:round;stroke-linejoin:round;stroke-width:2px"/>

<polygon points="32 5 25 6 25 3 32 1 32 5" style="fill:#ffffff;stroke:#4c241d;stroke-linecap:round;stroke-linejoin:round;stroke-width:2px"/>

<polygon points="18 5 25 6 25 3 18 1 18 5" style="fill:#ffffff;stroke:#4c241d;stroke-linecap:round;stroke-linejoin:round;stroke-width:2px"/>

<rect x="16" y="26" width="18" height="3" style="fill:#9dc1e4;stroke:#4c241d;stroke-linecap:round;stroke-linejoin:round;stroke-width:2px"/>

<rect x="18" y="29" width="3" height="22" style="fill:#9dc1e4;stroke:#4c241d;stroke-linecap:round;stroke-linejoin:round;stroke-width:2px"/>

<polygon points="24 45 21 33 21 29 28 44 24 45" style="fill:#9dc1e4;stroke:#4c241d;stroke-linecap:round;stroke-linejoin:round;stroke-width:2px"/>

<line x1="32" y1="54" x2="32" y2="58" style="fill:none;stroke:#ffffff;stroke-linecap:round;stroke-linejoin:round;stroke-width:2px"/>

<line x1="30" y1="56" x2="34" y2="56" style="fill:none;stroke:#ffffff;stroke-linecap:round;stroke-linejoin:round;stroke-width:2px"/>

<line x1="18" y1="54" x2="18" y2="58" style="fill:none;stroke:#ffffff;stroke-linecap:round;stroke-linejoin:round;stroke-width:2px"/>

<line x1="16" y1="56" x2="20" y2="56" style="fill:none;stroke:#ffffff;stroke-linecap:round;stroke-linejoin:round;stroke-width:2px"/>

<line x1="25" y1="56" x2="25" y2="60" style="fill:none;stroke:#ffffff;stroke-linecap:round;stroke-linejoin:round;stroke-width:2px"/>

<line x1="23" y1="58" x2="27" y2="58" style="fill:none;stroke:#ffffff;stroke-linecap:round;stroke-linejoin:round;stroke-width:2px"/>

<line x1="25" y1="9" x2="25" y2="16" style="fill:none;stroke:#4c241d;stroke-linecap:round;stroke-linejoin:round;stroke-width:2px"/>

<line x1="23" y1="11" x2="27" y2="11" style="fill:none;stroke:#4c241d;stroke-linecap:round;stroke-linejoin:round;stroke-width:2px"/>

</g>

</svg>