<?xml version="1.0" encoding="utf-8"?>
<svg width="800px" height="800px" viewBox="0 0 64 64" xmlns="http://www.w3.org/2000/svg">

<title>falafel</title>

<g id="falafel">

<circle cx="21.5" cy="27.5" r="18.5" style="fill:#e5efef"/>

<line x1="57.837" y1="24.663" x2="54.163" y2="28.337" style="fill:none;stroke:#4c241d;stroke-linecap:round;stroke-linejoin:round;stroke-width:2px"/>

<line x1="54.163" y1="24.663" x2="57.837" y2="28.337" style="fill:none;stroke:#4c241d;stroke-linecap:round;stroke-linejoin:round;stroke-width:2px"/>

<circle cx="49.5" cy="15.5" r="2.5" style="fill:none;stroke:#4c241d;stroke-linecap:round;stroke-linejoin:round;stroke-width:2px"/>

<circle cx="30" cy="8" r="1" style="fill:#4c241d"/>

<ellipse cx="32" cy="49" rx="17" ry="6" style="fill:#6b4f5b;stroke:#4c241d;stroke-linecap:round;stroke-linejoin:round;stroke-width:2px"/>

<rect x="23" y="24" width="18" height="11" rx="5" ry="5" style="fill:#ffded5;stroke:#4c241d;stroke-linecap:round;stroke-linejoin:round;stroke-width:2px"/>

<path d="M35.6,27.506A3,3,0,0,1,33,29H31a3,3,0,0,1-2.6-1.5" style="fill:none;stroke:#4c241d;stroke-linecap:round;stroke-linejoin:round;stroke-width:2px"/>

<ellipse cx="32" cy="45" rx="30" ry="5" style="fill:#b5a19c;stroke:#4c241d;stroke-linecap:round;stroke-linejoin:round;stroke-width:2px"/>

<rect x="14" y="35" width="18" height="11" rx="5" ry="5" style="fill:#ffded5;stroke:#4c241d;stroke-linecap:round;stroke-linejoin:round;stroke-width:2px"/>

<path d="M26.6,38.506A3,3,0,0,1,24,40H22a3,3,0,0,1-2.6-1.5" style="fill:none;stroke:#4c241d;stroke-linecap:round;stroke-linejoin:round;stroke-width:2px"/>

<rect x="32" y="35" width="18" height="11" rx="5" ry="5" style="fill:#ffded5;stroke:#4c241d;stroke-linecap:round;stroke-linejoin:round;stroke-width:2px"/>

<path d="M44.6,38.506A3,3,0,0,1,42,40H40a3,3,0,0,1-2.6-1.5" style="fill:none;stroke:#4c241d;stroke-linecap:round;stroke-linejoin:round;stroke-width:2px"/>

<line x1="32" y1="55" x2="55" y2="55" style="fill:none;stroke:#4c241d;stroke-linecap:round;stroke-linejoin:round;stroke-width:2px"/>

<line x1="58" y1="55" x2="62" y2="55" style="fill:none;stroke:#4c241d;stroke-linecap:round;stroke-linejoin:round;stroke-width:2px"/>

<path d="M17,5s-4,4-1,7,0,7,0,7" style="fill:none;stroke:#4c241d;stroke-linecap:round;stroke-linejoin:round;stroke-width:2px"/>

<path d="M13,14s-4,4-1,7,0,7,0,7" style="fill:none;stroke:#4c241d;stroke-linecap:round;stroke-linejoin:round;stroke-width:2px"/>

</g>

</svg>