<?xml version="1.0" encoding="utf-8"?>
<svg width="800px" height="800px" viewBox="0 0 64 64" xmlns="http://www.w3.org/2000/svg">

<title>flag</title>

<g id="flag">

<circle cx="41.5" cy="30.5" r="21.5" style="fill:#e5efef"/>

<circle cx="57" cy="21" r="1" style="fill:#4c241d"/>

<line x1="56" y1="3.463" x2="56" y2="4.878" style="fill:none;stroke:#4c241d;stroke-linecap:round;stroke-linejoin:round;stroke-width:2px"/>

<line x1="56" y1="9.122" x2="56" y2="10.537" style="fill:none;stroke:#4c241d;stroke-linecap:round;stroke-linejoin:round;stroke-width:2px"/>

<line x1="52.463" y1="7" x2="53.878" y2="7" style="fill:none;stroke:#4c241d;stroke-linecap:round;stroke-linejoin:round;stroke-width:2px"/>

<line x1="58.122" y1="7" x2="59.537" y2="7" style="fill:none;stroke:#4c241d;stroke-linecap:round;stroke-linejoin:round;stroke-width:2px"/>

<rect x="10" y="8" width="27" height="27" style="fill:#e66353;stroke:#4c241d;stroke-linecap:round;stroke-linejoin:round;stroke-width:2px"/>

<rect x="37" y="13" width="8" height="27" style="fill:#f96e43;stroke:#4c241d;stroke-linecap:round;stroke-linejoin:round;stroke-width:2px"/>

<path d="M21.036,23.578a10.122,10.122,0,0,1,1.4-12.238A10.12,10.12,0,1,0,32.492,28.106,10.122,10.122,0,0,1,21.036,23.578Z" style="fill:#ffffff;stroke:#4c241d;stroke-linecap:round;stroke-linejoin:round;stroke-width:2px"/>

<path d="M26.114,11.451l1.787.911a.227.227,0,0,0,.263-.042L29.582,10.9a.226.226,0,0,1,.383.2l-.314,1.981a.225.225,0,0,0,.121.237l1.787.911a.226.226,0,0,1-.067.424l-1.981.314a.225.225,0,0,0-.188.188l-.314,1.981a.226.226,0,0,1-.425.067l-.91-1.787a.228.228,0,0,0-.237-.121l-1.981.314a.226.226,0,0,1-.2-.383l1.418-1.418a.228.228,0,0,0,.042-.263l-.911-1.787A.226.226,0,0,1,26.114,11.451Z" style="fill:#fff"/>

<rect x="37" y="41" width="16" height="21" style="fill:#bf7e68;stroke:#4c241d;stroke-linecap:round;stroke-linejoin:round;stroke-width:2px"/>

<path d="M54.145,41A11.938,11.938,0,0,0,56,34.571C56,28.181,45,23,45,23S34,28.181,34,34.571A11.938,11.938,0,0,0,35.855,41Z" style="fill:#816982;stroke:#4c241d;stroke-linecap:round;stroke-linejoin:round;stroke-width:2px"/>

<polygon points="48 62 42 62 42 50.857 45 49 48 50.857 48 62" style="fill:#ffce56;stroke:#4c241d;stroke-linecap:round;stroke-linejoin:round;stroke-width:2px"/>

<line x1="60" y1="62" x2="6" y2="62" style="fill:none;stroke:#4c241d;stroke-linecap:round;stroke-linejoin:round;stroke-width:2px"/>

<rect x="7" y="8" width="3" height="45" style="fill:#bf7e68;stroke:#4c241d;stroke-linecap:round;stroke-linejoin:round;stroke-width:2px"/>

<path d="M2,62H38.874L39,61a3.981,3.981,0,0,0-6.6-3.016A12.539,12.539,0,0,0,21,47H2" style="fill:#a9ba5a;stroke:#4c241d;stroke-linecap:round;stroke-linejoin:round;stroke-width:2px"/>

</g>

</svg>