<?xml version="1.0" encoding="utf-8"?>
<svg width="800px" height="800px" viewBox="0 0 64 64" xmlns="http://www.w3.org/2000/svg">

<title>holding-star</title>

<g id="holding-star">

<circle cx="23.5" cy="32.5" r="21.5" style="fill:#e5efef"/>

<circle cx="46" cy="11" r="1" style="fill:#4c241d"/>

<circle cx="34" cy="39" r="1" style="fill:#4c241d"/>

<circle cx="55.5" cy="6.5" r="2.5" style="fill:none;stroke:#4c241d;stroke-linecap:round;stroke-linejoin:round;stroke-width:2px"/>

<line x1="15.837" y1="8.663" x2="12.163" y2="12.337" style="fill:none;stroke:#4c241d;stroke-linecap:round;stroke-linejoin:round;stroke-width:2px"/>

<line x1="12.163" y1="8.663" x2="15.837" y2="12.337" style="fill:none;stroke:#4c241d;stroke-linecap:round;stroke-linejoin:round;stroke-width:2px"/>

<path d="M21,42l-5.331-5.331a2.121,2.121,0,0,1-.226-2.733h0a2.122,2.122,0,0,1,3.226-.267l7.817,7.817A8.583,8.583,0,0,1,29,47.556V59H20V55.618a7.7,7.7,0,0,0-1.6-4.693l-5.872-7.633A12.212,12.212,0,0,1,10,35.846V21.5A2.5,2.5,0,0,1,12.5,19h0A2.5,2.5,0,0,1,15,21.5V35" style="fill:#ffe8dc;stroke:#4c241d;stroke-linecap:round;stroke-linejoin:round;stroke-width:2px"/>

<path d="M48,42l5.331-5.331a2.121,2.121,0,0,0,.226-2.733h0a2.122,2.122,0,0,0-3.226-.267l-7.817,7.817A8.583,8.583,0,0,0,40,47.556V59h9V55.618a7.7,7.7,0,0,1,1.6-4.693l5.872-7.633A12.212,12.212,0,0,0,59,35.846V21.5A2.5,2.5,0,0,0,56.5,19h0A2.5,2.5,0,0,0,54,21.5V35" style="fill:#ffe8dc;stroke:#4c241d;stroke-linecap:round;stroke-linejoin:round;stroke-width:2px"/>

<polygon points="26.49 13.51 31.403 14.045 34.5 10.192 37.597 14.045 42.51 13.51 41.976 18.424 45.828 21.521 41.976 24.617 42.51 29.531 37.597 28.997 34.5 32.849 31.403 28.997 26.49 29.531 27.024 24.617 23.172 21.521 27.024 18.424 26.49 13.51" style="fill:#0faa00;stroke:#4c241d;stroke-linecap:round;stroke-linejoin:round;stroke-width:2px"/>

<polygon points="30.49 17.51 32.95 17.778 34.5 15.849 36.05 17.778 38.51 17.51 38.243 19.971 40.172 21.521 38.243 23.071 38.51 25.531 36.05 25.264 34.5 27.192 32.95 25.264 30.49 25.531 30.757 23.071 28.828 21.521 30.757 19.971 30.49 17.51" style="fill:#ffce56"/>

</g>

</svg>