<?xml version="1.0" encoding="utf-8"?>
<svg width="800px" height="800px" viewBox="0 0 64 64" xmlns="http://www.w3.org/2000/svg">

<title>holmes</title>

<g id="holmes">

<circle cx="25" cy="31" r="23" style="fill:#eaeaea"/>

<path d="M49,62H14V53.775a9.409,9.409,0,0,1,5.293-8.568L31.5,39.5l12.207,5.707A9.409,9.409,0,0,1,49,53.775Z" style="fill:#b5a19c;stroke:#4c241d;stroke-linecap:round;stroke-linejoin:round;stroke-width:2px"/>

<polygon points="42.899 44.829 36.847 42 26.153 42 20.205 44.781 27.664 62 35.461 62 42.899 44.829" style="fill:#ffffff;stroke:#4c241d;stroke-linecap:round;stroke-linejoin:round;stroke-width:2px"/>

<line x1="57.837" y1="34.663" x2="54.163" y2="38.337" style="fill:none;stroke:#4c241d;stroke-linecap:round;stroke-linejoin:round;stroke-width:2px"/>

<line x1="54.163" y1="34.663" x2="57.837" y2="38.337" style="fill:none;stroke:#4c241d;stroke-linecap:round;stroke-linejoin:round;stroke-width:2px"/>

<circle cx="52.5" cy="6.5" r="2.5" style="fill:none;stroke:#4c241d;stroke-linecap:round;stroke-linejoin:round;stroke-width:2px"/>

<path d="M9.632,27.5A1.132,1.132,0,1,1,8.5,26.368,1.132,1.132,0,0,1,9.632,27.5Z" style="fill:#4c241d"/>

<rect x="26" y="38" width="11" height="8" style="fill:#ffe8dc;stroke:#4c241d;stroke-linecap:round;stroke-linejoin:round;stroke-width:2px"/>

<path d="M44,24.5V21H19v3.5a2.5,2.5,0,0,0-2.5,2.591,2.56,2.56,0,0,0,1.183,1.97,2.225,2.225,0,0,0,2.108.3A13.9,13.9,0,0,0,29.15,39.808a6.978,6.978,0,0,0,4.285-.046l.444-.143a13.908,13.908,0,0,0,9.293-10.27,2.285,2.285,0,0,0,2.093-.238,2.537,2.537,0,0,0,1.215-1.793A2.5,2.5,0,0,0,44,24.5Z" style="fill:#ffe8dc;stroke:#4c241d;stroke-linecap:round;stroke-linejoin:round;stroke-width:2px"/>

<circle cx="37.5" cy="27.5" r="1" style="fill:#4c241d"/>

<polygon points="35 62 28 62 30 46 33 46 35 62" style="fill:#6b4f5b;stroke:#4c241d;stroke-linecap:round;stroke-linejoin:round;stroke-width:2px"/>

<circle cx="25.5" cy="27.5" r="1" style="fill:#4c241d"/>

<path d="M44.381,32.044c-6.218,2.665-7.995-2.665-11.1-2.665a2.213,2.213,0,0,0-1.777.9,2.213,2.213,0,0,0-1.777-.9c-3.109,0-4.886,5.33-11.1,2.665-1.128-.483,6.218,5.33,11.548,2.665A3.167,3.167,0,0,0,31.5,33.576a3.161,3.161,0,0,0,1.333,1.133C38.163,37.374,45.509,31.561,44.381,32.044Z" style="fill:#6b4f5b;stroke:#4c241d;stroke-linecap:round;stroke-linejoin:round;stroke-width:2px"/>

<polygon points="32 46 37.195 48.898 41 43 37 41 32 46" style="fill:#ffffff;stroke:#4c241d;stroke-linecap:round;stroke-linejoin:round;stroke-width:2px"/>

<polygon points="31 46 25.805 48.898 22 43 26 41 31 46" style="fill:#ffffff;stroke:#4c241d;stroke-linecap:round;stroke-linejoin:round;stroke-width:2px"/>

<path d="M44.5,21H19a2,2,0,0,1-.895-.211l-4-2a2,2,0,1,1,1.79-3.578L19.472,17H43.966l3.042-1.737a2,2,0,0,1,1.984,3.474l-3.5,2A2.005,2.005,0,0,1,44.5,21Z" style="fill:#b5a19c;stroke:#4c241d;stroke-linecap:round;stroke-linejoin:round;stroke-width:2px"/>

<rect x="20" y="13" width="24" height="4" style="fill:#6b4f5b;stroke:#4c241d;stroke-linecap:round;stroke-linejoin:round;stroke-width:2px"/>

<path d="M22.262,1H41.738A2.262,2.262,0,0,1,44,3.262V13a0,0,0,0,1,0,0H20a0,0,0,0,1,0,0V3.262A2.262,2.262,0,0,1,22.262,1Z" style="fill:#b5a19c;stroke:#4c241d;stroke-linecap:round;stroke-linejoin:round;stroke-width:2px"/>

</g>

</svg>