<?xml version="1.0" encoding="utf-8"?>
<svg width="800px" height="800px" viewBox="0 0 64 64" xmlns="http://www.w3.org/2000/svg">

<title>philippines</title>

<g id="philippines">

<circle cx="39.5" cy="26.5" r="22.5" style="fill:#edebdc"/>

<rect x="47.225" y="42.5" width="6.7" height="6.7" style="fill:#e7d1c4;stroke:#4c241d;stroke-linecap:round;stroke-linejoin:round;stroke-width:2px"/>

<rect x="17.075" y="45.85" width="31.825" height="13.15" style="fill:#e7d1c4;stroke:#4c241d;stroke-linecap:round;stroke-linejoin:round;stroke-width:2px"/>

<rect x="48.9" y="50.875" width="10.05" height="8.125" style="fill:#e7d1c4;stroke:#4c241d;stroke-linecap:round;stroke-linejoin:round;stroke-width:2px"/>

<rect x="7.025" y="50.875" width="10.05" height="8.125" style="fill:#e7d1c4;stroke:#4c241d;stroke-linecap:round;stroke-linejoin:round;stroke-width:2px"/>

<line x1="5" y1="51" x2="17" y2="51" style="fill:none;stroke:#4c241d;stroke-linecap:round;stroke-linejoin:round;stroke-width:2px"/>

<line x1="48.9" y1="50.875" x2="60.625" y2="50.875" style="fill:none;stroke:#4c241d;stroke-linecap:round;stroke-linejoin:round;stroke-width:2px"/>

<rect x="49" y="47" width="8" height="4" style="fill:#e7d1c4;stroke:#4c241d;stroke-linecap:round;stroke-linejoin:round;stroke-width:2px"/>

<rect x="9" y="16" width="8.075" height="35" style="fill:#e7d1c4;stroke:#4c241d;stroke-linecap:round;stroke-linejoin:round;stroke-width:2px"/>

<line x1="8" y1="24" x2="19" y2="24" style="fill:none;stroke:#4c241d;stroke-linecap:round;stroke-linejoin:round;stroke-width:2px"/>

<rect x="21" y="37" width="26" height="8.85" style="fill:#a9ba5a;stroke:#4c241d;stroke-linecap:round;stroke-linejoin:round;stroke-width:2px"/>

<rect x="21" y="41" width="26" height="5" style="fill:#e7d1c4;stroke:#4c241d;stroke-linecap:round;stroke-linejoin:round;stroke-width:2px"/>

<line x1="47" y1="35" x2="47" y2="46" style="fill:none;stroke:#4c241d;stroke-linecap:round;stroke-linejoin:round;stroke-width:2px"/>

<line x1="21" y1="35" x2="21" y2="46" style="fill:none;stroke:#4c241d;stroke-linecap:round;stroke-linejoin:round;stroke-width:2px"/>

<rect x="17.075" y="39" width="3.925" height="7" style="fill:#e7d1c4;stroke:#4c241d;stroke-linecap:round;stroke-linejoin:round;stroke-width:2px"/>

<rect x="17" y="39" width="4" height="3" style="fill:#a9ba5a;stroke:#4c241d;stroke-linecap:round;stroke-linejoin:round;stroke-width:2px"/>

<polygon points="55.6 43 47 43 47 39 52.16 39 55.6 43" style="fill:#a9ba5a;stroke:#4c241d;stroke-linecap:round;stroke-linejoin:round;stroke-width:2px"/>

<rect x="27" y="27" width="13" height="19" style="fill:#e7d1c4;stroke:#4c241d;stroke-linecap:round;stroke-linejoin:round;stroke-width:2px"/>

<path d="M13.029,9h0l-.021.009A6.29,6.29,0,0,0,9,14.666V16h8V14.641A6.284,6.284,0,0,0,13.029,9Z" style="fill:#bf7e68;stroke:#4c241d;stroke-linecap:round;stroke-linejoin:round;stroke-width:2px"/>

<line x1="13" y1="27" x2="13" y2="29" style="fill:none;stroke:#4c241d;stroke-linecap:round;stroke-linejoin:round;stroke-width:2px"/>

<line x1="13" y1="19" x2="13" y2="21" style="fill:none;stroke:#4c241d;stroke-linecap:round;stroke-linejoin:round;stroke-width:2px"/>

<line x1="13" y1="32" x2="13" y2="34" style="fill:none;stroke:#4c241d;stroke-linecap:round;stroke-linejoin:round;stroke-width:2px"/>

<line x1="13" y1="37" x2="13" y2="39" style="fill:none;stroke:#4c241d;stroke-linecap:round;stroke-linejoin:round;stroke-width:2px"/>

<line x1="13" y1="42" x2="13" y2="44" style="fill:none;stroke:#4c241d;stroke-linecap:round;stroke-linejoin:round;stroke-width:2px"/>

<line x1="17.075" y1="55.9" x2="48.9" y2="55.9" style="fill:none;stroke:#4c241d;stroke-linecap:round;stroke-linejoin:round;stroke-width:2px"/>

<path d="M27.125,46c0-2.761,2.882-5,6.437-5S40,43.239,40,46Z" style="fill:none;stroke:#4c241d;stroke-linecap:round;stroke-linejoin:round;stroke-width:2px"/>

<polyline points="27 37 31 37 31 35 36 35 36 37 39 37" style="fill:none;stroke:#4c241d;stroke-linecap:round;stroke-linejoin:round;stroke-width:2px"/>

<line x1="30" y1="30" x2="30" y2="31" style="fill:none;stroke:#4c241d;stroke-linecap:round;stroke-linejoin:round;stroke-width:2px"/>

<line x1="37" y1="30" x2="37" y2="31" style="fill:none;stroke:#4c241d;stroke-linecap:round;stroke-linejoin:round;stroke-width:2px"/>

<line x1="34" y1="30" x2="34" y2="31" style="fill:none;stroke:#4c241d;stroke-linecap:round;stroke-linejoin:round;stroke-width:2px"/>

<path d="M27,27h0a9.253,9.253,0,0,1,4.612-7.939L35,19a8.248,8.248,0,0,1,5,8Z" style="fill:#a9ba5a;stroke:#4c241d;stroke-linecap:round;stroke-linejoin:round;stroke-width:2px"/>

<line x1="12" y1="54" x2="12" y2="57" style="fill:none;stroke:#4c241d;stroke-linecap:round;stroke-linejoin:round;stroke-width:2px"/>

<line x1="54" y1="54" x2="54" y2="57" style="fill:none;stroke:#4c241d;stroke-linecap:round;stroke-linejoin:round;stroke-width:2px"/>

<path d="M33,49h0a4,4,0,0,1,4,4v6a0,0,0,0,1,0,0H29a0,0,0,0,1,0,0V53A4,4,0,0,1,33,49Z" style="fill:#e7d1c4;stroke:#4c241d;stroke-linecap:round;stroke-linejoin:round;stroke-width:2px"/>

<path d="M41,51h0a4,4,0,0,1,4,4v4a0,0,0,0,1,0,0H37a0,0,0,0,1,0,0V55A4,4,0,0,1,41,51Z" style="fill:#e7d1c4;stroke:#4c241d;stroke-linecap:round;stroke-linejoin:round;stroke-width:2px"/>

<path d="M25,51h0a4,4,0,0,1,4,4v4a0,0,0,0,1,0,0H21a0,0,0,0,1,0,0V55A4,4,0,0,1,25,51Z" style="fill:#e7d1c4;stroke:#4c241d;stroke-linecap:round;stroke-linejoin:round;stroke-width:2px"/>

<line x1="3" y1="59" x2="62" y2="59" style="fill:none;stroke:#4c241d;stroke-linecap:round;stroke-linejoin:round;stroke-width:2px"/>

<path d="M33.5,12h0A1.5,1.5,0,0,1,35,13.5V19a0,0,0,0,1,0,0H32a0,0,0,0,1,0,0V13.5A1.5,1.5,0,0,1,33.5,12Z" style="fill:#e7d1c4;stroke:#4c241d;stroke-linecap:round;stroke-linejoin:round;stroke-width:2px"/>

<line x1="32" y1="16" x2="35" y2="16" style="fill:none;stroke:#4c241d;stroke-linecap:round;stroke-linejoin:round;stroke-width:2px"/>

<line x1="33.083" y1="58.833" x2="33.083" y2="55" style="fill:none;stroke:#4c241d;stroke-linecap:round;stroke-linejoin:round;stroke-width:2px"/>

<line x1="41.083" y1="58.833" x2="41.083" y2="55" style="fill:none;stroke:#4c241d;stroke-linecap:round;stroke-linejoin:round;stroke-width:2px"/>

<line x1="25.083" y1="58.833" x2="25.083" y2="55" style="fill:none;stroke:#4c241d;stroke-linecap:round;stroke-linejoin:round;stroke-width:2px"/>

<line x1="9" y1="48" x2="17" y2="48" style="fill:none;stroke:#4c241d;stroke-linecap:round;stroke-linejoin:round;stroke-width:2px"/>

</g>

</svg>