<?xml version="1.0" encoding="utf-8"?>
<svg width="800px" height="800px" viewBox="0 0 64 64" xmlns="http://www.w3.org/2000/svg">

<title>cock</title>

<g id="cock">

<circle cx="37" cy="37" r="23" style="fill:#edebdc"/>

<circle cx="10.5" cy="55.5" r="2.5" style="fill:none;stroke:#4c241d;stroke-linecap:round;stroke-linejoin:round;stroke-width:2px"/>

<circle cx="19" cy="47" r="1" style="fill:#4c241d"/>

<circle cx="38" cy="6" r="1" style="fill:#4c241d"/>

<line x1="49.837" y1="52.663" x2="46.163" y2="56.337" style="fill:none;stroke:#4c241d;stroke-linecap:round;stroke-linejoin:round;stroke-width:2px"/>

<line x1="46.163" y1="52.663" x2="49.837" y2="56.337" style="fill:none;stroke:#4c241d;stroke-linecap:round;stroke-linejoin:round;stroke-width:2px"/>

<path d="M54,35V20a8,8,0,1,0-16,0H28a2.893,2.893,0,0,1-3-3V13.657A7.378,7.378,0,0,0,22.372,8H14.045A8.511,8.511,0,0,0,11,13L7,17h7V29.375c0,3.363-.356,6.211,2.616,7.225A7.337,7.337,0,0,0,23.338,41H36.662a7.338,7.338,0,0,0,6.965-5.037,16.007,16.007,0,0,0,2.432-1.169,14.987,14.987,0,0,0,10.3,9.046L57,44A15,15,0,0,1,54,35Z" style="fill:#ffce56;stroke:#4c241d;stroke-linecap:round;stroke-linejoin:round;stroke-width:2px"/>

<path d="M22.372,8A3.6,3.6,0,0,1,23,8a3,3,0,0,0,0-6H14a3,3,0,0,0,0,6c.017,0,.033,0,.049,0l0,0Z" style="fill:#e86436;stroke:#4c241d;stroke-linecap:round;stroke-linejoin:round;stroke-width:2px"/>

<circle cx="16" cy="12.5" r="1.5" style="fill:#4c241d"/>

<line x1="16" y1="2" x2="16" y2="4" style="fill:none;stroke:#4c241d;stroke-linecap:round;stroke-linejoin:round;stroke-width:2px"/>

<line x1="20" y1="2" x2="20" y2="4" style="fill:none;stroke:#4c241d;stroke-linecap:round;stroke-linejoin:round;stroke-width:2px"/>

<path d="M41,24h0a4,4,0,0,1,4-4h.742a3.991,3.991,0,0,1,4,4.042C49.674,28.867,50.359,37.033,55,43" style="fill:none;stroke:#4c241d;stroke-linecap:round;stroke-linejoin:round;stroke-width:2px"/>

<path d="M37.69,23.909A6,6,0,0,1,32,28H31a6,6,0,0,1-6-6V17" style="fill:none;stroke:#4c241d;stroke-linecap:round;stroke-linejoin:round;stroke-width:2px"/>

<path d="M37.69,29.909A6,6,0,0,1,32,34H31a6,6,0,0,1-6-6V23" style="fill:none;stroke:#4c241d;stroke-linecap:round;stroke-linejoin:round;stroke-width:2px"/>

<path d="M37.69,23.909A6,6,0,0,0,38,22h0V20" style="fill:none;stroke:#4c241d;stroke-linecap:round;stroke-linejoin:round;stroke-width:2px"/>

<rect x="27" y="41" width="9" height="4" style="fill:#6b4f5b;stroke:#4c241d;stroke-linecap:round;stroke-linejoin:round;stroke-width:2px"/>

<polyline points="33 62 33 45 30 45 30 62" style="fill:#bf7e68;stroke:#4c241d;stroke-linecap:round;stroke-linejoin:round;stroke-width:2px"/>

<path d="M11,17h5a0,0,0,0,1,0,0V29a0,0,0,0,1,0,0H14.018A3.018,3.018,0,0,1,11,25.982V17A0,0,0,0,1,11,17Z" style="fill:#e86436;stroke:#4c241d;stroke-linecap:round;stroke-linejoin:round;stroke-width:2px"/>

</g>

</svg>