<?xml version="1.0" encoding="utf-8"?>
<svg width="800px" height="800px" viewBox="0 0 64 64" xmlns="http://www.w3.org/2000/svg">

<title>soccer-player</title>

<g id="soccer-player">

<circle cx="40.5" cy="26.5" r="21.5" style="fill:#eaeaea"/>

<line x1="55.129" y1="10" x2="52.181" y2="12.948" style="fill:none;stroke:#4c241d;stroke-linecap:round;stroke-linejoin:round;stroke-width:2px"/>

<line x1="52.181" y1="10" x2="55.129" y2="12.948" style="fill:none;stroke:#4c241d;stroke-linecap:round;stroke-linejoin:round;stroke-width:2px"/>

<circle cx="54.5" cy="26.5" r="2.5" style="fill:none;stroke:#4c241d;stroke-linecap:round;stroke-linejoin:round;stroke-width:2px"/>

<circle cx="4.017" cy="22.792" r="1.069" style="fill:#4c241d"/>

<polyline points="1 53 11 42 15 48 4 56" style="fill:#ffe8dc;stroke:#4c241d;stroke-linecap:round;stroke-linejoin:round;stroke-width:2px"/>

<polyline points="62 53 52 42 48 48 59 56" style="fill:#ffe8dc;stroke:#4c241d;stroke-linecap:round;stroke-linejoin:round;stroke-width:2px"/>

<polygon points="45 33.581 45 47.423 47.751 49.141 54.075 42.954 45 33.581" style="fill:#d6d6d6;stroke:#4c241d;stroke-linecap:round;stroke-linejoin:round;stroke-width:2px"/>

<path d="M26.9,27.684a15.489,15.489,0,0,1,9.1,0l2,10.382H24.9Z" style="fill:#ffe8dc;stroke:#4c241d;stroke-linecap:round;stroke-linejoin:round;stroke-width:2px"/>

<polygon points="18 33.581 18 47.423 15.249 49.141 8.925 42.954 18 33.581" style="fill:#d6d6d6;stroke:#4c241d;stroke-linecap:round;stroke-linejoin:round;stroke-width:2px"/>

<path d="M45,61.891V33.452a48.142,48.142,0,0,0-7.534-1.624,6.049,6.049,0,0,1-12.036-.012A45.372,45.372,0,0,0,18,33.452V61.891" style="fill:#ffffff;stroke:#4c241d;stroke-linecap:round;stroke-linejoin:round;stroke-width:2px"/>

<path d="M37.63,27.821l-3.962,1.73a5.456,5.456,0,0,1-4.336,0l-3.962-1.73A7.041,7.041,0,0,1,21,21.434v-8.7C21,7.36,25.7,3,31.5,3h0C37.3,3,42,7.36,42,12.738v8.7A7.041,7.041,0,0,1,37.63,27.821Z" style="fill:#ffe8dc;stroke:#4c241d;stroke-linecap:round;stroke-linejoin:round;stroke-width:2px"/>

<path d="M21,22.434a7.041,7.041,0,0,0,4.37,6.387l3.962,2.73a5.456,5.456,0,0,0,4.336,0l3.962-2.73A7.041,7.041,0,0,0,42,22.434v-4a7.041,7.041,0,0,1-4.37,6.387l-3.962,1.73a5.456,5.456,0,0,1-4.336,0l-3.962-1.73A7.041,7.041,0,0,1,21,18.434Z" style="fill:#ffce56;stroke:#4c241d;stroke-linecap:round;stroke-linejoin:round;stroke-width:2px"/>

<path d="M42,17h1a2,2,0,0,1,2,2v0a2,2,0,0,1-2,2H42a0,0,0,0,1,0,0V17A0,0,0,0,1,42,17Z" style="fill:#ffe8dc;stroke:#4c241d;stroke-linecap:round;stroke-linejoin:round;stroke-width:2px"/>

<path d="M18,17h1a2,2,0,0,1,2,2v0a2,2,0,0,1-2,2H18a0,0,0,0,1,0,0V17a0,0,0,0,1,0,0Z" transform="matrix(-1, 0, 0, -1, 39, 38)" style="fill:#ffe8dc;stroke:#4c241d;stroke-linecap:round;stroke-linejoin:round;stroke-width:2px"/>

<path d="M23.183,2A2.183,2.183,0,0,0,21,4.183V14a4,4,0,0,0,4-4H37.38A6.62,6.62,0,0,0,44,3.38V2Z" style="fill:#ffce56;stroke:#4c241d;stroke-linecap:round;stroke-linejoin:round;stroke-width:2px"/>

<line x1="40" y1="6" x2="43" y2="6" style="fill:none;stroke:#4c241d;stroke-linecap:round;stroke-linejoin:round;stroke-width:2px"/>

<circle cx="27.017" cy="17.792" r="1.069" style="fill:#4c241d"/>

<circle cx="36.017" cy="17.792" r="1.069" style="fill:#4c241d"/>

<polyline points="27 25 29 23 34 23 36 25" style="fill:none;stroke:#4c241d;stroke-linecap:round;stroke-linejoin:round;stroke-width:2px"/>

<polyline points="27 44 29 43 29 49" style="fill:none;stroke:#4c241d;stroke-linecap:round;stroke-linejoin:round;stroke-width:2px"/>

<polyline points="33 44 35 43 35 49" style="fill:none;stroke:#4c241d;stroke-linecap:round;stroke-linejoin:round;stroke-width:2px"/>

</g>

</svg>