<?xml version="1.0" encoding="utf-8"?>
<svg width="800px" height="800px" viewBox="0 0 64 64" xmlns="http://www.w3.org/2000/svg">

<title>soccer</title>

<g id="soccer">

<circle cx="24.5" cy="23.5" r="21.5" style="fill:#eaeaea"/>

<circle cx="32" cy="38" r="24" style="fill:#ffffff;stroke:#4c241d;stroke-linecap:round;stroke-linejoin:round;stroke-width:2px"/>

<circle cx="12.5" cy="8.5" r="2.5" style="fill:none;stroke:#4c241d;stroke-linecap:round;stroke-linejoin:round;stroke-width:2px"/>

<circle cx="5.082" cy="16.598" r="1.069" style="fill:#4c241d"/>

<circle cx="62.082" cy="46.598" r="1.069" style="fill:#4c241d"/>

<polygon points="31.922 28.185 22 36 26 48 39 48 43.201 35.705 31.922 28.185" style="fill:#6b4f5b;stroke:#4c241d;stroke-linecap:round;stroke-linejoin:round;stroke-width:2px"/>

<path d="M51.888,24.563,50.721,33.2,56,37.889A23.882,23.882,0,0,0,51.888,24.563Z" style="fill:#6b4f5b;stroke:#4c241d;stroke-linecap:round;stroke-linejoin:round;stroke-width:2px"/>

<path d="M38.995,60.961a24.036,24.036,0,0,0,12.512-8.988L43.2,53.251Z" style="fill:#6b4f5b;stroke:#4c241d;stroke-linecap:round;stroke-linejoin:round;stroke-width:2px"/>

<path d="M12.346,51.766a24.019,24.019,0,0,0,13.946,9.545l-4.4-8.06Z" style="fill:#6b4f5b;stroke:#4c241d;stroke-linecap:round;stroke-linejoin:round;stroke-width:2px"/>

<path d="M13.122,33.2l-1.14-8.434A23.871,23.871,0,0,0,8.006,37.746Z" style="fill:#6b4f5b;stroke:#4c241d;stroke-linecap:round;stroke-linejoin:round;stroke-width:2px"/>

<path d="M31.922,19.412l8.46-3.9a24.04,24.04,0,0,0-16.849.033Z" style="fill:#6b4f5b;stroke:#4c241d;stroke-linecap:round;stroke-linejoin:round;stroke-width:2px"/>

<line x1="31.922" y1="28.185" x2="31.922" y2="19.412" style="fill:none;stroke:#4c241d;stroke-linecap:round;stroke-linejoin:round;stroke-width:2px"/>

<line x1="43.201" y1="35.705" x2="50.721" y2="33.198" style="fill:none;stroke:#4c241d;stroke-linecap:round;stroke-linejoin:round;stroke-width:2px"/>

<line x1="39" y1="48" x2="43.201" y2="53.251" style="fill:none;stroke:#4c241d;stroke-linecap:round;stroke-linejoin:round;stroke-width:2px"/>

<line x1="26" y1="48" x2="21.895" y2="53.251" style="fill:none;stroke:#4c241d;stroke-linecap:round;stroke-linejoin:round;stroke-width:2px"/>

<line x1="22" y1="36" x2="13.122" y2="33.198" style="fill:none;stroke:#4c241d;stroke-linecap:round;stroke-linejoin:round;stroke-width:2px"/>

<rect x="32" y="8" width="27" height="17" style="fill:#9dc1e4;stroke:#4c241d;stroke-linecap:round;stroke-linejoin:round;stroke-width:2px"/>

<line x1="59" y1="8" x2="32" y2="25" style="fill:none;stroke:#4c241d;stroke-linecap:round;stroke-linejoin:round;stroke-width:2px"/>

<line x1="32" y1="8" x2="59" y2="25" style="fill:none;stroke:#4c241d;stroke-linecap:round;stroke-linejoin:round;stroke-width:2px"/>

<polygon points="59 15 47 15 47 8 44 8 44 15 32 15 32 18 44 18 44 25 47 25 47 18 59 18 59 15" style="fill:#e66353;stroke:#4c241d;stroke-linecap:round;stroke-linejoin:round;stroke-width:2px"/>

</g>

</svg>