<?xml version="1.0" encoding="utf-8"?>
<svg width="800px" height="800px" viewBox="0 0 64 64" xmlns="http://www.w3.org/2000/svg">

<title>soldier</title>

<g id="soldier">

<circle cx="36" cy="34" r="23" style="fill:#edebdc"/>

<line x1="56" y1="29" x2="56" y2="31" style="fill:none;stroke:#4c241d;stroke-linecap:round;stroke-linejoin:round;stroke-width:2px"/>

<line x1="56" y1="35" x2="56" y2="37" style="fill:none;stroke:#4c241d;stroke-linecap:round;stroke-linejoin:round;stroke-width:2px"/>

<line x1="52" y1="33" x2="54" y2="33" style="fill:none;stroke:#4c241d;stroke-linecap:round;stroke-linejoin:round;stroke-width:2px"/>

<line x1="58" y1="33" x2="60" y2="33" style="fill:none;stroke:#4c241d;stroke-linecap:round;stroke-linejoin:round;stroke-width:2px"/>

<circle cx="11.5" cy="39.5" r="1.5" style="fill:#4c241d"/>

<path d="M54,62H15V52.279a11.2,11.2,0,0,1,5.9-10.125L33.973,36,48.1,42.154A11.2,11.2,0,0,1,54,52.279Z" style="fill:#a9ba5a;stroke:#4c241d;stroke-linecap:round;stroke-linejoin:round;stroke-width:2px"/>

<circle cx="14.5" cy="3.5" r="1.132" style="fill:#4c241d"/>

<polygon points="31 49 23 49 21 41 29 38 31 49" style="fill:#ccc;stroke:#4c241d;stroke-linecap:round;stroke-linejoin:round;stroke-width:2px"/>

<polygon points="38 49 46 49 48 41 40 38 38 49" style="fill:#ccc;stroke:#4c241d;stroke-linecap:round;stroke-linejoin:round;stroke-width:2px"/>

<path d="M30,37h9a0,0,0,0,1,0,0v3a4,4,0,0,1-4,4H34a4,4,0,0,1-4-4V37a0,0,0,0,1,0,0Z" style="fill:#ffe8dc;stroke:#4c241d;stroke-linecap:round;stroke-linejoin:round;stroke-width:2px"/>

<path d="M22,24.5a2.5,2.5,0,0,0-2.5,2.591,2.56,2.56,0,0,0,1.183,1.97,2.225,2.225,0,0,0,2.108.3A13.9,13.9,0,0,0,32.15,39.808a6.978,6.978,0,0,0,4.285-.046l.444-.144a13.9,13.9,0,0,0,9.293-10.269,2.282,2.282,0,0,0,2.093-.238,2.537,2.537,0,0,0,1.215-1.793A2.5,2.5,0,0,0,47,24.5V20.379L26.786,18.166,22,20Z" style="fill:#ffe8dc;stroke:#4c241d;stroke-linecap:round;stroke-linejoin:round;stroke-width:2px"/>

<circle cx="39.5" cy="28.5" r="1" style="fill:#4c241d"/>

<circle cx="29.5" cy="28.5" r="1" style="fill:#4c241d"/>

<line x1="22" y1="62" x2="22" y2="57" style="fill:none;stroke:#4c241d;stroke-linecap:round;stroke-linejoin:round;stroke-width:2px"/>

<line x1="46" y1="62" x2="46" y2="57" style="fill:none;stroke:#4c241d;stroke-linecap:round;stroke-linejoin:round;stroke-width:2px"/>

<line x1="8.586" y1="10.586" x2="11.414" y2="13.414" style="fill:none;stroke:#4c241d;stroke-linecap:round;stroke-linejoin:round;stroke-width:2px"/>

<line x1="11.414" y1="10.586" x2="8.586" y2="13.414" style="fill:none;stroke:#4c241d;stroke-linecap:round;stroke-linejoin:round;stroke-width:2px"/>

<line x1="57.586" y1="43.586" x2="60.414" y2="46.414" style="fill:none;stroke:#4c241d;stroke-linecap:round;stroke-linejoin:round;stroke-width:2px"/>

<line x1="60.414" y1="43.586" x2="57.586" y2="46.414" style="fill:none;stroke:#4c241d;stroke-linecap:round;stroke-linejoin:round;stroke-width:2px"/>

<path d="M23.5,18h22A1.5,1.5,0,0,1,47,19.5V21a0,0,0,0,1,0,0H23.5A1.5,1.5,0,0,1,22,19.5v0A1.5,1.5,0,0,1,23.5,18Z" style="fill:#ffce56;stroke:#4c241d;stroke-linecap:round;stroke-linejoin:round;stroke-width:2px"/>

<path d="M49.639,12.861,44.522,7.605A10.267,10.267,0,0,0,39.01,6H22.9A3.9,3.9,0,0,0,19,9.9V14.1A3.9,3.9,0,0,0,22.9,18H42v-.672l3.451,2.3a3.981,3.981,0,0,0,5.757-1.5A4.111,4.111,0,0,0,49.639,12.861Z" style="fill:#e66353;stroke:#4c241d;stroke-linecap:round;stroke-linejoin:round;stroke-width:2px"/>

<path d="M28.47,8.17l-.718,1.97-2.431.33a.327.327,0,0,0-.189.6l1.7,1.357-.418,2.251a.337.337,0,0,0,.528.358l1.945-1.51,2,1.44a.335.335,0,0,0,.514-.375l-.5-2.236,1.651-1.416a.327.327,0,0,0-.21-.59L29.9,10.1l-.787-1.944A.343.343,0,0,0,28.47,8.17Z" style="fill:#ffce56"/>

<line x1="42" y1="14" x2="42" y2="17" style="fill:none;stroke:#4c241d;stroke-linecap:round;stroke-linejoin:round;stroke-width:2px"/>

</g>

</svg>