<?xml version="1.0" encoding="utf-8"?>
<svg width="800px" height="800px" viewBox="0 0 64 64" xmlns="http://www.w3.org/2000/svg">

<title>spanish-music</title>

<g id="spanish-music">

<circle cx="35" cy="32" r="23" style="fill:#e5efef"/>

<line x1="60" y1="32" x2="10" y2="32" style="fill:none;stroke:#4c241d;stroke-linecap:round;stroke-linejoin:round;stroke-width:2px"/>

<line x1="60" y1="38" x2="10" y2="38" style="fill:none;stroke:#4c241d;stroke-linecap:round;stroke-linejoin:round;stroke-width:2px"/>

<line x1="60" y1="44" x2="10" y2="44" style="fill:none;stroke:#4c241d;stroke-linecap:round;stroke-linejoin:round;stroke-width:2px"/>

<path d="M33.177,50.046a5.677,5.677,0,0,1,4.476-5.555,7.678,7.678,0,0,0,3.666-2.026c3.6-3.6,2.868-10.159-1.629-14.655s-11.057-5.226-14.655-1.629a7.678,7.678,0,0,0-2.026,3.666,5.677,5.677,0,0,1-5.555,4.476,10.164,10.164,0,0,0-7.48,2.849c-4.5,4.5-3.586,12.7,2.035,18.319s13.822,6.532,18.318,2.035A10.161,10.161,0,0,0,33.177,50.046Z" style="fill:#bf7e68;stroke:#4c241d;stroke-linecap:round;stroke-linejoin:round;stroke-width:2px"/>

<line x1="44" y1="53" x2="44" y2="55" style="fill:none;stroke:#4c241d;stroke-linecap:round;stroke-linejoin:round;stroke-width:2px"/>

<line x1="44" y1="59" x2="44" y2="61" style="fill:none;stroke:#4c241d;stroke-linecap:round;stroke-linejoin:round;stroke-width:2px"/>

<line x1="40" y1="57" x2="42" y2="57" style="fill:none;stroke:#4c241d;stroke-linecap:round;stroke-linejoin:round;stroke-width:2px"/>

<line x1="46" y1="57" x2="48" y2="57" style="fill:none;stroke:#4c241d;stroke-linecap:round;stroke-linejoin:round;stroke-width:2px"/>

<path d="M59.082,50.667A1.069,1.069,0,1,1,58.013,49.6,1.07,1.07,0,0,1,59.082,50.667Z" style="fill:#4c241d"/>

<path d="M12.967,24a9.494,9.494,0,0,0,8.4-5.067H4.568A9.494,9.494,0,0,0,12.967,24Z" style="fill:#f53e28;stroke:#4c241d;stroke-linecap:round;stroke-linejoin:round;stroke-width:2px"/>

<path d="M21.366,10.067H4.568a9.475,9.475,0,0,0,0,8.866h16.8a9.475,9.475,0,0,0,0-8.866Z" style="fill:#ffce56;stroke:#4c241d;stroke-linecap:round;stroke-linejoin:round;stroke-width:2px"/>

<path d="M12.967,5a9.494,9.494,0,0,0-8.4,5.067h16.8A9.494,9.494,0,0,0,12.967,5Z" style="fill:#f53e28;stroke:#4c241d;stroke-linecap:round;stroke-linejoin:round;stroke-width:2px"/>

<rect x="37.795" y="14.162" width="4.606" height="26.482" transform="translate(31.121 -20.327) rotate(45)" style="fill:#e7d1c4;stroke:#4c241d;stroke-linecap:round;stroke-linejoin:round;stroke-width:2px"/>

<line x1="58.292" y1="13.783" x2="60.076" y2="15.566" style="fill:none;stroke:#4c241d;stroke-linecap:round;stroke-linejoin:round;stroke-width:2px"/>

<line x1="55.85" y1="16.225" x2="57.633" y2="18.008" style="fill:none;stroke:#4c241d;stroke-linecap:round;stroke-linejoin:round;stroke-width:2px"/>

<line x1="52.593" y1="17.854" x2="54.377" y2="19.637" style="fill:none;stroke:#4c241d;stroke-linecap:round;stroke-linejoin:round;stroke-width:2px"/>

<line x1="53.717" y1="9.208" x2="51.934" y2="7.424" style="fill:none;stroke:#4c241d;stroke-linecap:round;stroke-linejoin:round;stroke-width:2px"/>

<line x1="51.275" y1="11.65" x2="49.492" y2="9.867" style="fill:none;stroke:#4c241d;stroke-linecap:round;stroke-linejoin:round;stroke-width:2px"/>

<line x1="49.647" y1="14.907" x2="47.863" y2="13.123" style="fill:none;stroke:#4c241d;stroke-linecap:round;stroke-linejoin:round;stroke-width:2px"/>

<path d="M51.089,19.668l-3.257-3.257,6.524-7.828a2.307,2.307,0,0,1,3.4-.155L59.072,9.74a2.307,2.307,0,0,1-.155,3.4Z" style="fill:#bf7e68;stroke:#4c241d;stroke-linecap:round;stroke-linejoin:round;stroke-width:2px"/>

<line x1="14.008" y1="47.72" x2="19.78" y2="53.492" style="fill:none;stroke:#4c241d;stroke-linecap:round;stroke-linejoin:round;stroke-width:2px"/>

<circle cx="28.292" cy="39.208" r="4.606" style="fill:#914d41;stroke:#4c241d;stroke-linecap:round;stroke-linejoin:round;stroke-width:2px"/>

</g>

</svg>