<?xml version="1.0" encoding="utf-8"?>
<svg width="800px" height="800px" viewBox="0 0 64 64" xmlns="http://www.w3.org/2000/svg">

<title>spanish-man</title>

<g id="spanish-man">

<circle cx="32" cy="36" r="23" style="fill:#e5efef"/>

<rect x="29.935" y="36.985" width="6.065" height="4.015" style="fill:#ffe8dc;stroke:#4c241d;stroke-linecap:round;stroke-linejoin:round;stroke-width:2px"/>

<path d="M29.935,41a4.059,4.059,0,0,1-4.321,4H15V60H51V45H40.321A4.059,4.059,0,0,1,36,41Z" style="fill:#f53e28;stroke:#4c241d;stroke-linecap:round;stroke-linejoin:round;stroke-width:2px"/>

<path d="M32.989,38h0a10.011,10.011,0,0,1-10.01-10.011V18.435H43v9.554A10.011,10.011,0,0,1,32.989,38Z" style="fill:#ffe8dc;stroke:#4c241d;stroke-linecap:round;stroke-linejoin:round;stroke-width:2px"/>

<path d="M42.689,22.094s-4.638,2.819-12.754.5c0,0-1.159,5.8-6.956,5.217V20.855A9.855,9.855,0,0,1,32.834,11h0a9.855,9.855,0,0,1,9.855,9.855Z" style="fill:#6b4f5b;stroke:#4c241d;stroke-linecap:round;stroke-linejoin:round;stroke-width:2px"/>

<circle cx="54.5" cy="35.5" r="2.5" style="fill:none;stroke:#4c241d;stroke-linecap:round;stroke-linejoin:round;stroke-width:2px"/>

<path d="M61.326,23.371A1.069,1.069,0,1,1,60.257,22.3,1.069,1.069,0,0,1,61.326,23.371Z" style="fill:#4c241d"/>

<line x1="7" y1="3" x2="7" y2="5" style="fill:none;stroke:#4c241d;stroke-linecap:round;stroke-linejoin:round;stroke-width:2px"/>

<line x1="7" y1="9" x2="7" y2="11" style="fill:none;stroke:#4c241d;stroke-linecap:round;stroke-linejoin:round;stroke-width:2px"/>

<line x1="3" y1="7" x2="5" y2="7" style="fill:none;stroke:#4c241d;stroke-linecap:round;stroke-linejoin:round;stroke-width:2px"/>

<line x1="9" y1="7" x2="11" y2="7" style="fill:none;stroke:#4c241d;stroke-linecap:round;stroke-linejoin:round;stroke-width:2px"/>

<path d="M7.082,26.667A1.069,1.069,0,1,1,6.013,25.6,1.07,1.07,0,0,1,7.082,26.667Z" style="fill:#4c241d"/>

<path d="M29.736,19.009a13.94,13.94,0,0,0-6.272,1.6A3.142,3.142,0,0,1,22.12,21H16.065A3.065,3.065,0,0,1,13,17.935h0A3.063,3.063,0,0,1,14.341,15.4L24.924,8.2A12.693,12.693,0,0,1,32.065,6h2.324a12.687,12.687,0,0,1,6.7,1.912l10.187,6.33A3.653,3.653,0,0,1,53,17.346h0A3.654,3.654,0,0,1,49.346,21h-5.3a3.145,3.145,0,0,1-1.345-.395,13.932,13.932,0,0,0-6.271-1.6Z" style="fill:#f53e28;stroke:#4c241d;stroke-linecap:round;stroke-linejoin:round;stroke-width:2px"/>

<path d="M22,21s2-5,9-6" style="fill:none;stroke:#4c241d;stroke-linecap:round;stroke-linejoin:round;stroke-width:2px"/>

<path d="M42,45h9a0,0,0,0,1,0,0v.021A3.979,3.979,0,0,1,47.021,49H45.979A3.979,3.979,0,0,1,42,45.021V45A0,0,0,0,1,42,45Z" style="fill:#ffce56;stroke:#4c241d;stroke-linecap:round;stroke-linejoin:round;stroke-width:2px"/>

<path d="M15,45h9a0,0,0,0,1,0,0v.021A3.979,3.979,0,0,1,20.021,49H18.979A3.979,3.979,0,0,1,15,45.021V45A0,0,0,0,1,15,45Z" style="fill:#ffce56;stroke:#4c241d;stroke-linecap:round;stroke-linejoin:round;stroke-width:2px"/>

<line x1="43.689" y1="60" x2="43.689" y2="54" style="fill:none;stroke:#4c241d;stroke-linecap:round;stroke-linejoin:round;stroke-width:2px"/>

<line x1="23" y1="60" x2="23" y2="54" style="fill:none;stroke:#4c241d;stroke-linecap:round;stroke-linejoin:round;stroke-width:2px"/>

</g>

</svg>