<?xml version="1.0" encoding="utf-8"?>
<svg width="800px" height="800px" viewBox="0 0 64 64" xmlns="http://www.w3.org/2000/svg">

<title>wineyard-field-france-ico</title>

<g id="wineyard-field-france-ico">

<circle cx="36" cy="32" r="23" style="fill:#e5efef"/>

<line x1="7" y1="5" x2="7" y2="7" style="fill:none;stroke:#4c241d;stroke-linecap:round;stroke-linejoin:round;stroke-width:2px"/>

<line x1="7" y1="11" x2="7" y2="13" style="fill:none;stroke:#4c241d;stroke-linecap:round;stroke-linejoin:round;stroke-width:2px"/>

<line x1="3" y1="9" x2="5" y2="9" style="fill:none;stroke:#4c241d;stroke-linecap:round;stroke-linejoin:round;stroke-width:2px"/>

<line x1="9" y1="9" x2="11" y2="9" style="fill:none;stroke:#4c241d;stroke-linecap:round;stroke-linejoin:round;stroke-width:2px"/>

<circle cx="56.5" cy="12.5" r="2.5" style="fill:none;stroke:#4c241d;stroke-linecap:round;stroke-linejoin:round;stroke-width:2px"/>

<path d="M5.651,22.1a1.069,1.069,0,1,1-1.069-1.069A1.069,1.069,0,0,1,5.651,22.1Z" style="fill:#4c241d"/>

<path d="M27,61S39,43,61,36" style="fill:none;stroke:#4c241d;stroke-linecap:round;stroke-linejoin:round;stroke-width:2px"/>

<path d="M38.049,49.064A43.452,43.452,0,0,0,3,36" style="fill:none;stroke:#4c241d;stroke-linecap:round;stroke-linejoin:round;stroke-width:2px"/>

<path d="M30.651,6.1a1.069,1.069,0,1,1-1.069-1.069A1.069,1.069,0,0,1,30.651,6.1Z" style="fill:#4c241d"/>

<line x1="16" y1="48" x2="16" y2="59" style="fill:none;stroke:#4c241d;stroke-linecap:round;stroke-linejoin:round;stroke-width:2px"/>

<line x1="12" y1="60" x2="20" y2="60" style="fill:none;stroke:#4c241d;stroke-linecap:round;stroke-linejoin:round;stroke-width:2px"/>

<path d="M47,60a26.625,26.625,0,0,1,12-9" style="fill:none;stroke:#4c241d;stroke-linecap:round;stroke-linejoin:round;stroke-width:2px"/>

<path d="M37.746,59.941A49.933,49.933,0,0,1,60.254,43.059" style="fill:none;stroke:#4c241d;stroke-linecap:round;stroke-linejoin:round;stroke-width:2px"/>

<path d="M29.865,42.44S38.8,34.575,49,31.352" style="fill:none;stroke:#4c241d;stroke-linecap:round;stroke-linejoin:round;stroke-width:2px"/>

<path d="M29.865,42.44s8.512-7.476,18.4-10.833" style="fill:#ffce56;stroke:#4c241d;stroke-linecap:round;stroke-linejoin:round;stroke-width:2px"/>

<path d="M49,31.358V27h4.458L42,18.646,30.542,27H35V38.52a54.8,54.8,0,0,1,14-7.162" style="fill:#ffffff;stroke:#4c241d;stroke-linecap:round;stroke-linejoin:round;stroke-width:2px"/>

<path d="M34.11,45.438A54.974,54.974,0,0,1,49,36" style="fill:none;stroke:#4c241d;stroke-linecap:round;stroke-linejoin:round;stroke-width:2px"/>

<path d="M6.354,34.832c-2.162,6.268,2.084,13.125,8.7,13.556q.359.024.725.024a10.894,10.894,0,0,0,4.127-.8,10.125,10.125,0,0,0,5.717-12.1L23.342,27H8.973Z" style="fill:#ffffff;stroke:#4c241d;stroke-linecap:round;stroke-linejoin:round;stroke-width:2px"/>

<path d="M5.861,39.406a10.028,10.028,0,0,0,9.194,8.982q.359.024.725.024a10.894,10.894,0,0,0,4.127-.8,10.125,10.125,0,0,0,5.717-12.1l-.167-.6a32.808,32.808,0,0,0-8.165,3.679C12.2,41.548,8.306,40.712,5.861,39.406Z" style="fill:#efefd2;stroke:#4c241d;stroke-linecap:round;stroke-linejoin:round;stroke-width:2px"/>

</g>

</svg>