<?xml version="1.0" ?>


<svg width="800px" height="800px" viewBox="0 0 64 64" id="Layer_1" version="1.1" xml:space="preserve" xmlns="http://www.w3.org/2000/svg" xmlns:xlink="http://www.w3.org/1999/xlink">

<style type="text/css">
	.st0{fill:#B4E6DD;}
	.st1{fill:#80D4C4;}
	.st2{fill:#D2F0EA;}
	.st3{fill:#FFFFFF;}
	.st4{fill:#FBD872;}
	.st5{fill:#DB7767;}
	.st6{fill:#F38E7A;}
	.st7{fill:#F6AF62;}
	.st8{fill:#32A48E;}
	.st9{fill:#A38FD8;}
	.st10{fill:#7C64BD;}
	.st11{fill:#EAA157;}
	.st12{fill:#9681CF;}
	.st13{fill:#F9C46A;}
	.st14{fill:#CE6B61;}
</style>

<g>

<rect class="st6" height="33.3" width="18.5" x="28.02" y="20.73"/>

<path class="st4" d="M46.5,54.02H28.04c-0.55,0-0.99,0.44-0.99,0.99S27.49,56,28.04,56H46.5c0.55,0,0.99-0.44,0.99-0.99   S47.05,54.02,46.5,54.02z"/>

<path class="st4" d="M46.5,18.75H28.04c-0.55,0-0.99,0.44-0.99,0.99s0.44,0.99,0.99,0.99H46.5c0.55,0,0.99-0.44,0.99-0.99   S47.05,18.75,46.5,18.75z"/>

<path class="st6" d="M44.06,18.62c-0.74-1.87-2.54-3.1-4.56-3.1h-4.47c-2.01,0-3.82,1.23-4.56,3.1l-0.05,0.13h13.68L44.06,18.62z"/>

<path class="st4" d="M42.83,14.76H31.71c-0.55,0-0.99,0.44-0.99,0.99c0,0.55,0.44,0.99,0.99,0.99h11.12c0.55,0,0.99-0.44,0.99-0.99   C43.82,15.2,43.38,14.76,42.83,14.76z"/>

<path class="st1" d="M38.14,10.05H36.4c-1.21,0-2.18,0.98-2.18,2.18v2.53h6.1v-2.53C40.32,11.03,39.35,10.05,38.14,10.05z"/>

<circle class="st3" cx="35.6" cy="12.61" r="0.71"/>

<polygon class="st2" points="33.42,13.32 16.51,17.23 16.51,8 33.42,11.9  "/>

</g>

</svg>