<?xml version="1.0" ?>


<svg width="800px" height="800px" viewBox="0 0 64 64" id="Layer_1" version="1.1" xml:space="preserve" xmlns="http://www.w3.org/2000/svg" xmlns:xlink="http://www.w3.org/1999/xlink">

<style type="text/css">
	.st0{fill:#B4E6DD;}
	.st1{fill:#80D4C4;}
	.st2{fill:#D2F0EA;}
	.st3{fill:#FFFFFF;}
	.st4{fill:#FBD872;}
	.st5{fill:#DB7767;}
	.st6{fill:#F38E7A;}
	.st7{fill:#F6AF62;}
	.st8{fill:#32A48E;}
	.st9{fill:#A38FD8;}
	.st10{fill:#7C64BD;}
	.st11{fill:#EAA157;}
	.st12{fill:#9681CF;}
	.st13{fill:#F9C46A;}
	.st14{fill:#CE6B61;}
</style>

<g>

<path class="st2" d="M49,35.11H15c-3.87,0-7,3.13-7,7c0,3.87,3.13,7,7,7h34c3.87,0,7-3.13,7-7C56,38.25,52.87,35.11,49,35.11z"/>

<path class="st0" d="M15,45.11c-1.65,0-3-1.35-3-3s1.35-3,3-3h34c1.65,0,3,1.35,3,3s-1.35,3-3,3H15z"/>

<circle class="st1" cx="15" cy="42.11" r="3"/>

<circle class="st1" cx="26.33" cy="42.11" r="3"/>

<circle class="st1" cx="37.67" cy="42.11" r="3"/>

<circle class="st1" cx="49" cy="42.11" r="3"/>

<path class="st6" d="M43.46,18.71h-6.28v-2.07c0-0.96-0.79-1.75-1.75-1.75h-6.87c-0.96,0-1.75,0.79-1.75,1.75v2.07h-6.28   c-1.1,0-2,0.9-2,2v12.4c0,1.1,0.9,2,2,2h22.93c1.1,0,2-0.9,2-2v-12.4C45.46,19.61,44.57,18.71,43.46,18.71z M28.32,16.64   c0-0.14,0.11-0.25,0.25-0.25h6.87c0.14,0,0.25,0.11,0.25,0.25v2.04h-7.37V16.64z"/>

<rect class="st5" height="8.21" width="10.18" x="26.91" y="26.9"/>

<circle class="st4" cx="32" cy="26.9" r="5.09"/>

</g>

</svg>