<?xml version="1.0" ?>


<svg width="800px" height="800px" viewBox="0 0 64 64" id="Layer_1" version="1.1" xml:space="preserve" xmlns="http://www.w3.org/2000/svg" xmlns:xlink="http://www.w3.org/1999/xlink">

<style type="text/css">
	.st0{fill:#B4E6DD;}
	.st1{fill:#80D4C4;}
	.st2{fill:#D2F0EA;}
	.st3{fill:#FFFFFF;}
	.st4{fill:#FBD872;}
	.st5{fill:#DB7767;}
	.st6{fill:#F38E7A;}
	.st7{fill:#F6AF62;}
	.st8{fill:#32A48E;}
	.st9{fill:#A38FD8;}
	.st10{fill:#7C64BD;}
	.st11{fill:#EAA157;}
	.st12{fill:#9681CF;}
	.st13{fill:#F9C46A;}
	.st14{fill:#CE6B61;}
</style>

<g>

<path class="st9" d="M48.17,47.59H15.83c-2.21,0-4,1.79-4,4v1.96h40.34v-1.96C52.17,49.38,50.38,47.59,48.17,47.59z"/>

<path class="st0" d="M47.83,43.9H16.17c-1.02,0-1.84,0.83-1.84,1.84c0,1.02,0.83,1.84,1.84,1.84h31.66c1.02,0,1.84-0.83,1.84-1.84   C49.67,44.72,48.85,43.9,47.83,43.9z"/>

<path class="st6" d="M32,17.79c-8.13,0-14.73,6.59-14.73,14.73V43.9h29.45V32.51C46.73,24.38,40.13,17.79,32,17.79z"/>

<g>

<path class="st5" d="M21.27,33.26c-0.41,0-0.75-0.34-0.75-0.75c0-6.33,5.15-11.48,11.48-11.48c0.41,0,0.75,0.34,0.75,0.75    s-0.34,0.75-0.75,0.75c-5.5,0-9.98,4.47-9.98,9.98C22.02,32.93,21.69,33.26,21.27,33.26z"/>

</g>

<g>

<path class="st2" d="M17.69,23.91l-5.87-2.68l4.99,4.34C17.07,24.99,17.36,24.44,17.69,23.91z"/>

<path class="st2" d="M30.19,15.89l-1.6-5.44l-0.01,5.69C29.11,16.03,29.65,15.95,30.19,15.89z"/>

<path class="st2" d="M25.17,17.26l-3.15-4.89l1.66,5.65C24.17,17.74,24.66,17.49,25.17,17.26z"/>

<path class="st2" d="M20.89,20.05l-4.61-3.98l3.35,5.22C20.03,20.86,20.45,20.44,20.89,20.05z"/>

<path class="st2" d="M35.42,16.14l-0.01-5.69l-1.6,5.44C34.35,15.95,34.89,16.03,35.42,16.14z"/>

<path class="st2" d="M44.37,21.29l3.35-5.22l-4.61,3.98C43.55,20.44,43.97,20.86,44.37,21.29z"/>

<path class="st2" d="M47.2,25.57l4.99-4.34l-5.87,2.68C46.64,24.44,46.93,25,47.2,25.57z"/>

<path class="st2" d="M40.32,18.02l1.66-5.65l-3.15,4.89C39.34,17.49,39.83,17.75,40.32,18.02z"/>

<polygon class="st2" points="48.73,33.15 48.73,35.26 56,34.21   "/>

<path class="st2" d="M15.8,28.42l-6.83-0.98l6.46,2.95C15.51,29.72,15.64,29.07,15.8,28.42z"/>

<path class="st2" d="M48.58,30.39l6.46-2.95l-6.83,0.98C48.36,29.07,48.49,29.72,48.58,30.39z"/>

<polygon class="st2" points="48.73,40.07 55.03,40.97 48.73,38.09   "/>

<polygon class="st2" points="15.27,33.15 8,34.21 15.27,35.26   "/>

<polygon class="st2" points="15.27,38.09 8.97,40.97 15.27,40.07   "/>

</g>

</g>

</svg>