<?xml version="1.0" ?>


<svg width="800px" height="800px" viewBox="0 0 64 64" id="Layer_1" version="1.1" xml:space="preserve" xmlns="http://www.w3.org/2000/svg" xmlns:xlink="http://www.w3.org/1999/xlink">

<style type="text/css">
	.st0{fill:#B4E6DD;}
	.st1{fill:#80D4C4;}
	.st2{fill:#D2F0EA;}
	.st3{fill:#FFFFFF;}
	.st4{fill:#FBD872;}
	.st5{fill:#DB7767;}
	.st6{fill:#F38E7A;}
	.st7{fill:#F6AF62;}
	.st8{fill:#32A48E;}
	.st9{fill:#A38FD8;}
	.st10{fill:#7C64BD;}
	.st11{fill:#EAA157;}
	.st12{fill:#9681CF;}
	.st13{fill:#F9C46A;}
	.st14{fill:#CE6B61;}
</style>

<g>

<path class="st9" d="M52,10.51H12c-2.21,0-4,1.79-4,4v22.16c0,2.21,1.79,4,4,4h40c2.21,0,4-1.79,4-4V14.51   C56,12.3,54.21,10.51,52,10.51z"/>

<rect class="st10" height="5.78" width="48" x="8" y="16.29"/>

<circle class="st3" cx="14.36" cy="27.31" r="2.89"/>

<path class="st4" d="M47.92,35.66v-3.21c0-4.76-3.87-8.63-8.63-8.63s-8.63,3.87-8.63,8.63v3.21c-1.55,0.23-2.74,1.55-2.74,3.17   v11.45c0,1.77,1.44,3.21,3.21,3.21h16.32c1.77,0,3.21-1.44,3.21-3.21V38.83C50.66,37.22,49.47,35.9,47.92,35.66z M39.29,27.04   c2.99,0,5.42,2.43,5.42,5.42v3.16H33.87v-3.16C33.87,29.47,36.3,27.04,39.29,27.04z"/>

<path class="st7" d="M39.29,40.86c-1.05,0-1.91,0.86-1.91,1.91v3.57c0,1.05,0.86,1.91,1.91,1.91c1.05,0,1.91-0.86,1.91-1.91v-3.57   C41.2,41.72,40.34,40.86,39.29,40.86z"/>

</g>

</svg>