<?xml version="1.0" ?>


<svg width="800px" height="800px" viewBox="0 0 64 64" id="Layer_1" version="1.1" xml:space="preserve" xmlns="http://www.w3.org/2000/svg" xmlns:xlink="http://www.w3.org/1999/xlink">

<style type="text/css">
	.st0{fill:#B4E6DD;}
	.st1{fill:#80D4C4;}
	.st2{fill:#D2F0EA;}
	.st3{fill:#FFFFFF;}
	.st4{fill:#FBD872;}
	.st5{fill:#DB7767;}
	.st6{fill:#F38E7A;}
	.st7{fill:#F6AF62;}
	.st8{fill:#32A48E;}
	.st9{fill:#A38FD8;}
	.st10{fill:#7C64BD;}
	.st11{fill:#EAA157;}
	.st12{fill:#9681CF;}
	.st13{fill:#F9C46A;}
	.st14{fill:#CE6B61;}
</style>

<g>

<g>

<g>

<path class="st2" d="M8.96,34.97c-0.09,0-0.18-0.02-0.26-0.07c-0.24-0.15-0.31-0.45-0.16-0.69l6.59-10.73     c0.18-0.3,0.67-0.3,0.86,0l6.6,10.73c0.15,0.24,0.07,0.55-0.16,0.69s-0.55,0.07-0.69-0.16l-6.17-10.04L9.38,34.73     C9.29,34.88,9.12,34.97,8.96,34.97z"/>

</g>

<path class="st6" d="M8,33.94c0,4.17,3.38,7.55,7.55,7.55c4.17,0,7.55-3.38,7.55-7.55H8z"/>

</g>

<g>

<g>

<path class="st2" d="M41.85,34.97c-0.09,0-0.18-0.02-0.26-0.07c-0.24-0.15-0.31-0.45-0.16-0.69l6.59-10.73     c0.18-0.3,0.67-0.3,0.86,0l6.6,10.73c0.15,0.24,0.07,0.55-0.16,0.69c-0.24,0.15-0.55,0.07-0.69-0.16l-6.17-10.04l-6.17,10.04     C42.19,34.88,42.02,34.97,41.85,34.97z"/>

</g>

<path class="st6" d="M40.9,33.94c0,4.17,3.38,7.55,7.55,7.55c4.17,0,7.55-3.38,7.55-7.55H40.9z"/>

</g>

<path class="st7" d="M38.29,45.47H25.93c-1,0-1.81,0.81-1.81,1.81s0.81,1.81,1.81,1.81h12.36c1,0,1.81-0.81,1.81-1.81   S39.29,45.47,38.29,45.47z"/>

<path class="st4" d="M49.18,22.95c-3.97-3.37-8.7-5.36-13.59-6c-0.69-1.21-1.98-2.04-3.48-2.04c-1.5,0-2.78,0.83-3.48,2.04   c-4.88,0.64-9.62,2.63-13.59,6c-0.68,0.57-0.73,1.6-0.1,2.23h0c0.54,0.54,1.42,0.61,2.01,0.11c3.31-2.83,7.24-4.57,11.31-5.25   c0.34,1.19,1.2,2.16,2.34,2.62v22.81h3.01V22.66c1.14-0.46,2-1.43,2.34-2.62c4.07,0.67,8,2.42,11.31,5.25   c0.59,0.5,1.46,0.44,2.01-0.11l0,0C49.9,24.55,49.85,23.53,49.18,22.95z M32.11,20.94c-1.11,0-2.01-0.9-2.01-2.01   s0.9-2.01,2.01-2.01c1.11,0,2.01,0.9,2.01,2.01S33.22,20.94,32.11,20.94z"/>

</g>

</svg>