<?xml version="1.0" ?>


<svg width="800px" height="800px" viewBox="0 0 64 64" id="Layer_1" version="1.1" xml:space="preserve" xmlns="http://www.w3.org/2000/svg" xmlns:xlink="http://www.w3.org/1999/xlink">

<style type="text/css">
	.st0{fill:#B4E6DD;}
	.st1{fill:#80D4C4;}
	.st2{fill:#D2F0EA;}
	.st3{fill:#FFFFFF;}
	.st4{fill:#FBD872;}
	.st5{fill:#DB7767;}
	.st6{fill:#F38E7A;}
	.st7{fill:#F6AF62;}
	.st8{fill:#32A48E;}
	.st9{fill:#A38FD8;}
	.st10{fill:#7C64BD;}
	.st11{fill:#EAA157;}
	.st12{fill:#9681CF;}
	.st13{fill:#F9C46A;}
	.st14{fill:#CE6B61;}
</style>

<g>

<path class="st2" d="M8.72,8c1.53,11.94,23.55,33.69,23.55,33.69l2.82-2.82c1.34-0.83,2.06,0.31,2.06,0.31l2.61-2.61l-1.19-1.19   L22.09,18.91C16.71,13.94,8.72,8,8.72,8z"/>

<path class="st10" d="M39.76,36.57L54.2,51.02c0,0,2.43,2.71,0.01,4.6c0,0-2.65,1.42-5.81-1.2c0,0,1.15-2.33-0.59-3.33   c0,0-6.71-4.57-10.67-11.9L39.76,36.57z"/>

<circle class="st3" cx="40.78" cy="40.94" r="0.74"/>

<circle class="st3" cx="45.94" cy="46.1" r="0.74"/>

<circle class="st3" cx="51.1" cy="51.26" r="0.74"/>

</g>

</svg>