<?xml version="1.0" ?>


<svg width="800px" height="800px" viewBox="0 0 64 64" id="Layer_1" version="1.1" xml:space="preserve" xmlns="http://www.w3.org/2000/svg" xmlns:xlink="http://www.w3.org/1999/xlink">

<style type="text/css">
	.st0{fill:#B4E6DD;}
	.st1{fill:#80D4C4;}
	.st2{fill:#D2F0EA;}
	.st3{fill:#FFFFFF;}
	.st4{fill:#FBD872;}
	.st5{fill:#DB7767;}
	.st6{fill:#F38E7A;}
	.st7{fill:#F6AF62;}
	.st8{fill:#32A48E;}
	.st9{fill:#A38FD8;}
	.st10{fill:#7C64BD;}
	.st11{fill:#EAA157;}
	.st12{fill:#9681CF;}
	.st13{fill:#F9C46A;}
	.st14{fill:#CE6B61;}
</style>

<g>

<path class="st6" d="M52,21.45H12c-2.45,0-4.33,2.19-3.95,4.62l3.58,22.96c0.3,1.95,1.98,3.38,3.95,3.38h32.84   c1.97,0,3.65-1.44,3.95-3.38l3.58-22.96C56.33,23.64,54.45,21.45,52,21.45z"/>

<path class="st5" d="M12,21.45h40c1.06,0,1.99,0.42,2.7,1.08v-4.33c0-1.25-1.02-2.27-2.27-2.27h-26.6c-0.7,0-1.35-0.32-1.79-0.87   L22,12.46c-0.43-0.55-1.09-0.87-1.79-0.87h-8.65c-1.25,0-2.27,1.02-2.27,2.27v8.67C10.01,21.87,10.94,21.45,12,21.45z"/>

<rect class="st3" height="2.98" width="37.49" x="13.25" y="18.47"/>

<rect class="st5" height="10.41" width="16.87" x="23.57" y="42"/>

<g>

<path class="st4" d="M38.4,34.71v-2.38c0-3.53-2.87-6.4-6.4-6.4c-3.53,0-6.4,2.87-6.4,6.4v2.38c-1.15,0.17-2.03,1.15-2.03,2.35    v8.49c0,1.32,1.07,2.38,2.38,2.38h12.1c1.32,0,2.38-1.07,2.38-2.38v-8.49C40.43,35.86,39.55,34.88,38.4,34.71z M32,28.31    c2.22,0,4.02,1.8,4.02,4.02v2.34h-8.04v-2.34C27.98,30.12,29.78,28.31,32,28.31z"/>

<path class="st7" d="M32,38.56c-0.78,0-1.42,0.64-1.42,1.42v2.65c0,0.78,0.64,1.42,1.42,1.42c0.78,0,1.42-0.64,1.42-1.42v-2.65    C33.42,39.2,32.78,38.56,32,38.56z"/>

</g>

</g>

</svg>