<?xml version="1.0" ?>


<svg width="800px" height="800px" viewBox="0 0 64 64" id="Layer_1" version="1.1" xml:space="preserve" xmlns="http://www.w3.org/2000/svg" xmlns:xlink="http://www.w3.org/1999/xlink">

<style type="text/css">
	.st0{fill:#B4E6DD;}
	.st1{fill:#80D4C4;}
	.st2{fill:#D2F0EA;}
	.st3{fill:#FFFFFF;}
	.st4{fill:#FBD872;}
	.st5{fill:#DB7767;}
	.st6{fill:#F38E7A;}
	.st7{fill:#F6AF62;}
	.st8{fill:#32A48E;}
	.st9{fill:#A38FD8;}
	.st10{fill:#7C64BD;}
	.st11{fill:#EAA157;}
	.st12{fill:#9681CF;}
	.st13{fill:#F9C46A;}
	.st14{fill:#CE6B61;}
</style>

<g>

<polygon class="st7" points="55.26,46.53 46.53,55.26 49.85,56 56,49.85  "/>

<g>

<rect class="st4" height="35.9" transform="matrix(0.7071 -0.7071 0.7071 0.7071 -15.8259 38.2071)" width="12.35" x="32.03" y="20.26"/>

<path class="st6" d="M26.71,11.23l0.21,0.21c2.64,2.64,3.63,6.31,2.96,9.72l-8.73,8.73c-3.41,0.67-7.08-0.33-9.72-2.96l-0.21-0.21    L26.71,11.23z"/>

<rect class="st5" height="4.57" transform="matrix(0.7071 -0.7071 0.7071 0.7071 -7.1891 17.3559)" width="21.9" x="6.41" y="15.07"/>

<path class="st7" d="M31.09,31.09c-0.56,0.56-0.56,1.46,0,2.01l4.26,4.26c0.56,0.56,1.46,0.56,2.01,0c0.56-0.56,0.56-1.46,0-2.01    l-4.26-4.26C32.55,30.53,31.65,30.53,31.09,31.09z"/>

<g>

<g>

<rect class="st6" height="3.27" transform="matrix(0.7071 -0.7071 0.7071 0.7071 -14.0089 14.531)" width="0.75" x="10.16" y="22.54"/>

</g>

<g>

<rect class="st6" height="3.27" transform="matrix(0.7071 -0.7071 0.7071 0.7071 -12.304 15.2372)" width="0.75" x="11.87" y="20.84"/>

</g>

<g>

<rect class="st6" height="3.27" transform="matrix(0.7071 -0.7071 0.7071 0.7071 -10.5991 15.9434)" width="0.75" x="13.57" y="19.13"/>

</g>

<g>

<rect class="st6" height="3.27" transform="matrix(0.7071 -0.7071 0.7071 0.7071 -8.8941 16.6496)" width="0.75" x="15.28" y="17.43"/>

</g>

<g>

<rect class="st6" height="3.27" transform="matrix(0.7071 -0.7071 0.7071 0.7071 -7.1892 17.3558)" width="0.75" x="16.98" y="15.72"/>

</g>

<g>

<rect class="st6" height="3.27" transform="matrix(0.7071 -0.7071 0.7071 0.7071 -5.4843 18.062)" width="0.75" x="18.69" y="14.02"/>

</g>

<g>

<rect class="st6" height="3.27" transform="matrix(0.7071 -0.7071 0.7071 0.7071 -3.779 18.7684)" width="0.75" x="20.39" y="12.31"/>

</g>

<g>

<rect class="st6" height="3.27" transform="matrix(0.7071 -0.7071 0.7071 0.7071 -2.0741 19.4746)" width="0.75" x="22.1" y="10.61"/>

</g>

<g>

<rect class="st6" height="3.27" transform="matrix(0.7071 -0.7071 0.7071 0.7071 -0.3691 20.1808)" width="0.75" x="23.8" y="8.9"/>

</g>

</g>

</g>

</g>

</svg>