<?xml version="1.0" encoding="utf-8"?>


<svg fill="#000000" height="800px" width="800px" version="1.1" id="Icons" xmlns="http://www.w3.org/2000/svg" xmlns:xlink="http://www.w3.org/1999/xlink" 
	 viewBox="0 0 32 32" xml:space="preserve">
<g>
	<path d="M4,26c0,0.6,0.4,1,1,1h22c0.6,0,1-0.4,1-1s-0.4-1-1-1H5C4.4,25,4,25.4,4,26z"/>
	<path d="M29,28H3c-0.6,0-1,0.4-1,1s0.4,1,1,1h26c0.6,0,1-0.4,1-1S29.6,28,29,28z"/>
	<path d="M4,12h24c0.4,0,0.8-0.3,1-0.7s0-0.9-0.4-1.1l-12-8c-0.3-0.2-0.8-0.2-1.1,0l-12,8c-0.4,0.2-0.5,0.7-0.4,1.1S3.6,12,4,12z"/>
	<path d="M17,23v-9c0-0.6-0.4-1-1-1s-1,0.4-1,1v9c0,0.6,0.4,1,1,1S17,23.6,17,23z"/>
	<path d="M13,23v-9c0-0.6-0.4-1-1-1s-1,0.4-1,1v9c0,0.6,0.4,1,1,1S13,23.6,13,23z"/>
	<path d="M9,23v-9c0-0.6-0.4-1-1-1s-1,0.4-1,1v9c0,0.6,0.4,1,1,1S9,23.6,9,23z"/>
	<path d="M25,23v-9c0-0.6-0.4-1-1-1s-1,0.4-1,1v9c0,0.6,0.4,1,1,1S25,23.6,25,23z"/>
	<path d="M21,23v-9c0-0.6-0.4-1-1-1s-1,0.4-1,1v9c0,0.6,0.4,1,1,1S21,23.6,21,23z"/>
</g>
</svg>