<?xml version="1.0" encoding="utf-8"?>


<svg fill="#000000" height="800px" width="800px" version="1.1" id="Icons" xmlns="http://www.w3.org/2000/svg" xmlns:xlink="http://www.w3.org/1999/xlink" 
	 viewBox="0 0 32 32" xml:space="preserve">
<g>
	<path d="M28.3,28C28.2,28,28.1,28,28,28v-9c0-0.4-0.2-0.7-0.5-0.9l-5-3c-0.3-0.2-0.7-0.2-1,0S21,15.6,21,16v4h-1v-2
		c0-0.6-0.4-1-1-1h-3v-5c0-0.4-0.2-0.7-0.5-0.9c-0.3-0.2-0.7-0.2-1,0l-5,3C9.2,14.3,9,14.6,9,15v5H5c-0.6,0-1,0.4-1,1v7
		C3.9,28,3.8,28,3.7,28c-0.5,0.2-0.8,0.7-0.6,1.3C3.2,29.7,3.6,30,4,30c0.1,0,0.2,0,0.3,0c4.1-1.3,7.7-2,11.7-2
		c4.3,0,8.7,1.1,11.7,2c0.5,0.2,1.1-0.1,1.2-0.7C29.1,28.8,28.8,28.2,28.3,28z"/>
	<path d="M20,12h5c2.8,0,5-2.2,5-5s-2.2-5-5-5c-2.4,0-4.4,1.7-4.9,4H20c-1.7,0-3,1.3-3,3S18.3,12,20,12z"/>
</g>
</svg>