<?xml version="1.0" encoding="utf-8"?>


<svg fill="#000000" height="800px" width="800px" version="1.1" id="Icons" xmlns="http://www.w3.org/2000/svg" xmlns:xlink="http://www.w3.org/1999/xlink" 
	 viewBox="0 0 32 32" xml:space="preserve">
<path d="M28.4,3.6c-0.7-0.7-1.6-0.9-2.5-0.8h0l-14,2.7C10.6,5.8,9.6,6.7,9.2,8c-0.4,1.2-0.1,2.5,0.8,3.4l4.6,4.6l-0.9,0.9l-0.8-0.8
	c-0.4-0.4-1-0.4-1.4-0.1l-7.6,6.4c-0.9,0.7-1.4,1.8-1.4,2.9c0,1.1,0.4,2.2,1.2,3c0.8,0.8,1.8,1.2,2.9,1.2c0.1,0,0.1,0,0.2,0
	c1.1,0,2.2-0.6,2.9-1.4l6.4-7.6c0.3-0.4,0.3-1-0.1-1.4l-0.8-0.8l0.9-0.9l4.6,4.6c0.7,0.7,1.5,1,2.4,1c0.3,0,0.7-0.1,1-0.2
	c1.2-0.4,2.2-1.4,2.4-2.7l2.7-14C29.3,5.2,29,4.3,28.4,3.6z"/>
</svg>