<?xml version="1.0" encoding="utf-8"?>


<svg fill="#000000" height="800px" width="800px" version="1.1" id="Icons" xmlns="http://www.w3.org/2000/svg" xmlns:xlink="http://www.w3.org/1999/xlink" 
	 viewBox="0 0 32 32" xml:space="preserve">
<g>
	<path d="M22,17l-0.8-2.3h-0.4c-3.4,0-6.7-0.7-9.5-1.9l-1,2.8c2.7,0.9,5.7,1.3,8.7,1.3H22z"/>
	<path d="M20.6,12.7l-2.8-8.4C17.5,3.5,16.8,3,16,3s-1.5,0.5-1.8,1.3L12,10.9C14.6,12.1,17.5,12.7,20.6,12.7z"/>
	<path d="M22.7,19h-3.6c-3.2,0-6.4-0.5-9.4-1.4l-0.7,2.1C9,19.8,9,19.9,9,20c0,2.3,3,4,7,4s7-1.7,7-4c0-0.1,0-0.2-0.1-0.3L22.7,19z"
		/>
</g>
<path d="M28.8,20.7C28.8,20.7,28.8,20.7,28.8,20.7l-4.3-2.4l0.3,0.8c0.1,0.3,0.2,0.6,0.2,1c0,3.5-3.8,6-9,6s-9-2.5-9-6
	c0-0.3,0.1-0.6,0.2-0.9l0.3-0.8l-4.3,2.4c-0.7,0.4-1.1,1.1-1,1.8c0,0.8,0.4,1.4,1.1,1.8L15,30.6c0.3,0.2,0.6,0.2,1,0.2
	s0.7-0.1,1-0.2l11.8-6.3c0.7-0.4,1.1-1,1.1-1.8C29.9,21.7,29.5,21,28.8,20.7z"/>
</svg>