<?xml version="1.0" encoding="utf-8"?>


<svg fill="#000000" height="800px" width="800px" version="1.1" id="Icons" xmlns="http://www.w3.org/2000/svg" xmlns:xlink="http://www.w3.org/1999/xlink" 
	 viewBox="0 0 32 32" xml:space="preserve">
<path d="M29,23.9c0-0.1,0-0.1,0-0.2c0-0.1-0.1-0.1-0.1-0.2c0-0.1-0.1-0.1-0.1-0.2c0-0.1-0.1-0.1-0.2-0.1c0,0-0.1-0.1-0.1-0.1
	l-10.6-5.3c0.5-0.7,0.5-1.6,0.2-2.4l-1-2.6V11h1c0.3,0,0.6-0.2,0.8-0.4l2-3C20.9,7.4,21,7.2,21,7V3c0-0.6-0.4-1-1-1h-8
	c-0.6,0-1,0.4-1,1v4c0,0.2,0.1,0.4,0.2,0.6l2,3c0.2,0.3,0.5,0.4,0.8,0.4h1v2c0,0.1,0,0.3,0.1,0.4l1.1,2.8c0.1,0.3,0,0.5-0.1,0.6
	c-0.1,0.1-0.2,0.3-0.5,0.3c-0.3,0-0.6-0.3-0.6-0.6V16c0-0.6-0.4-1-1-1s-1,0.4-1,1v0.4c0,0.6,0.2,1.2,0.6,1.7l-10.1,5
	c0,0-0.1,0.1-0.1,0.1c-0.1,0-0.1,0.1-0.2,0.1c0,0-0.1,0.1-0.1,0.2c0,0.1-0.1,0.1-0.1,0.2c0,0.1,0,0.1,0,0.2c0,0,0,0.1,0,0.1v5
	c0,0.6,0.4,1,1,1h24c0.6,0,1-0.4,1-1v-5C29,24,29,23.9,29,23.9z M16,19.1l7.8,3.9H8.2L16,19.1z"/>
</svg>