<?xml version="1.0" encoding="utf-8"?>


<svg fill="#000000" height="800px" width="800px" version="1.1" id="Icons" xmlns="http://www.w3.org/2000/svg" xmlns:xlink="http://www.w3.org/1999/xlink" 
	 viewBox="0 0 32 32" xml:space="preserve">
<g>
	<path d="M12.6,25.7C12.4,25,12,24.5,11.5,24H2.7C2.3,24.5,2,25.1,2,25.8V27c0,0.6,0.4,1,1,1h9c0.3,0,0.6-0.2,0.8-0.4
		c0.2-0.3,0.2-0.6,0.1-0.9L12.6,25.7z"/>
	<path d="M30,10h-3V9.7C27,8.2,25.8,7,24.3,7H23c0-0.6-0.4-1-1-1H7c-2.8,0-5,2.2-5,5c0,2.3,1.6,4.2,3.7,4.8L3.6,22h8.1l0.7-2h2.3
		c1.9,0,3.5-1.3,3.9-3l0.2-1H22c0.6,0,1-0.4,1-1h1.3c1.5,0,2.7-1.2,2.7-2.7V12h3c0.6,0,1-0.4,1-1S30.6,10,30,10z M8.9,10.4l-1,2
		C7.7,12.8,7.4,13,7,13c-0.2,0-0.3,0-0.4-0.1c-0.5-0.2-0.7-0.8-0.4-1.3l1-2C7.4,9.1,8,8.9,8.4,9.1C8.9,9.4,9.1,10,8.9,10.4z
		 M12.9,10.4l-1,2C11.7,12.8,11.4,13,11,13c-0.2,0-0.3,0-0.4-0.1c-0.5-0.2-0.7-0.8-0.4-1.3l1-2c0.2-0.5,0.8-0.7,1.3-0.4
		C12.9,9.4,13.1,10,12.9,10.4z M16.6,16.5c-0.2,0.9-1,1.5-2,1.5h-1.6l0.7-2h3L16.6,16.5z"/>
</g>
</svg>