<?xml version="1.0" encoding="utf-8"?>


<svg fill="#000000" height="800px" width="800px" version="1.1" id="Icons" xmlns="http://www.w3.org/2000/svg" xmlns:xlink="http://www.w3.org/1999/xlink" 
	 viewBox="0 0 32 32" xml:space="preserve">
<path d="M14,23c0-1.2,0.2-2.3,0.6-3.3c0-0.1,0-0.1,0-0.2c0,0,0.1-0.1,0.1-0.1c0.5-1.2,1.1-2.2,1.9-3.1c0.1-0.4,0.2-0.7,0.3-1.1
	c0-0.3,0-0.6-0.2-0.8S16.2,14,15.9,14c-1.1,0-2.1-0.4-2.9-1h6c0.6,0,1-0.4,1-1s-0.4-1-1-1h-0.2v-0.2c0-1.8-0.6-3.4-1.6-4.8l-0.7,2.5
	c-0.1,0.4-0.5,0.7-1,0.7c-0.1,0-0.2,0-0.3,0c-0.5-0.2-0.8-0.7-0.7-1.2l1.2-4.1c0-0.3-0.2-0.6-0.5-0.8c-2.6-1.3-5.7-1.3-8.3,0
	C6.5,3.1,6.4,3.5,6.3,3.8l1.2,4.1c0.2,0.5-0.2,1.1-0.7,1.2c-0.1,0-0.2,0-0.3,0c-0.4,0-0.8-0.3-1-0.7L4.9,6c-1,1.4-1.6,3-1.6,4.8V11
	H3c-0.6,0-1,0.4-1,1s0.4,1,1,1h2v1c0,2.2,0.9,4.2,2.4,5.5c-0.2,1.4-1.1,2.6-2.5,3c-2.5,0.7-4.4,2.9-5,5.7c-0.1,0.5,0,0.9,0.3,1.3
	C0.6,29.8,1,30,1.5,30h15.4C15.1,28.2,14,25.7,14,23z"/>
<path d="M24,15c-4.4,0-8,3.6-8,8s3.6,8,8,8s8-3.6,8-8S28.4,15,24,15z M27,24h-6c-0.6,0-1-0.4-1-1s0.4-1,1-1h6c0.6,0,1,0.4,1,1
	S27.6,24,27,24z"/>
</svg>