<?xml version="1.0" encoding="utf-8"?>


<svg fill="#000000" height="800px" width="800px" version="1.1" id="Icons" xmlns="http://www.w3.org/2000/svg" xmlns:xlink="http://www.w3.org/1999/xlink" 
	 viewBox="0 0 32 32" xml:space="preserve">
<path d="M28.9,24.4L24.4,20c1-1.8,1.6-3.8,1.6-6c0-6.6-5.4-12-12-12S2,7.4,2,14s5.4,12,12,12c2.2,0,4.2-0.6,6-1.6l4.5,4.5
	c0.6,0.6,1.3,0.9,2.1,0.9c0.8,0,1.6-0.3,2.1-0.9l0.2-0.2C30,27.5,30,25.6,28.9,24.4z M7,18c-0.6,0-1-0.4-1-1s0.4-1,1-1h0.1v-0.1
	C7.1,14,7.8,12.3,9,11v2c0,0.6,0.4,1,1,1s1-0.4,1-1V8.6c1.9-0.8,4.1-0.8,6,0V13c0,0.6,0.4,1,1,1s1-0.4,1-1v-2c1.2,1.3,1.9,3,1.9,4.9
	V16H21c0.6,0,1,0.4,1,1s-0.4,1-1,1H7z"/>
</svg>