<?xml version="1.0" encoding="utf-8"?>


<svg fill="#000000" height="800px" width="800px" version="1.1" id="Icons" xmlns="http://www.w3.org/2000/svg" xmlns:xlink="http://www.w3.org/1999/xlink" 
	 viewBox="0 0 32 32" xml:space="preserve">
<g>
	<path d="M17,15h13V3c0-0.6-0.4-1-1-1H17V15z M25.7,5.3c0.4,0.4,0.4,1,0,1.4l-5,5C20.5,11.9,20.3,12,20,12s-0.5-0.1-0.7-0.3
		c-0.4-0.4-0.4-1,0-1.4l5-5C24.7,4.9,25.3,4.9,25.7,5.3z M19.3,6.3l1-1c0.4-0.4,1-0.4,1.4,0s0.4,1,0,1.4l-1,1C20.5,7.9,20.3,8,20,8
		s-0.5-0.1-0.7-0.3C18.9,7.3,18.9,6.7,19.3,6.3z"/>
	<path d="M15,15V2H3C2.4,2,2,2.4,2,3v12H15z M4.3,6.3l1-1c0.4-0.4,1-0.4,1.4,0s0.4,1,0,1.4l-1,1C5.5,7.9,5.3,8,5,8S4.5,7.9,4.3,7.7
		C3.9,7.3,3.9,6.7,4.3,6.3z M4.3,10.3l5-5c0.4-0.4,1-0.4,1.4,0s0.4,1,0,1.4l-5,5C5.5,11.9,5.3,12,5,12s-0.5-0.1-0.7-0.3
		C3.9,11.3,3.9,10.7,4.3,10.3z"/>
	<path d="M15,17H2v12c0,0.6,0.4,1,1,1h12V17z M4.3,20.3l1-1c0.4-0.4,1-0.4,1.4,0s0.4,1,0,1.4l-1,1C5.5,21.9,5.3,22,5,22
		s-0.5-0.1-0.7-0.3C3.9,21.3,3.9,20.7,4.3,20.3z M5.7,25.7C5.5,25.9,5.3,26,5,26s-0.5-0.1-0.7-0.3c-0.4-0.4-0.4-1,0-1.4l5-5
		c0.4-0.4,1-0.4,1.4,0s0.4,1,0,1.4L5.7,25.7z"/>
	<path d="M17,17v13h12c0.6,0,1-0.4,1-1V17H17z M19.3,20.3l1-1c0.4-0.4,1-0.4,1.4,0s0.4,1,0,1.4l-1,1C20.5,21.9,20.3,22,20,22
		s-0.5-0.1-0.7-0.3C18.9,21.3,18.9,20.7,19.3,20.3z M25.7,20.7l-5,5C20.5,25.9,20.3,26,20,26s-0.5-0.1-0.7-0.3c-0.4-0.4-0.4-1,0-1.4
		l5-5c0.4-0.4,1-0.4,1.4,0S26.1,20.3,25.7,20.7z"/>
</g>
</svg>