<?xml version="1.0" encoding="utf-8"?>

<!DOCTYPE svg PUBLIC "-//W3C//DTD SVG 1.1//EN" "http://www.w3.org/Graphics/SVG/1.1/DTD/svg11.dtd">

<svg height="800px" width="800px" version="1.1" id="_x32_" xmlns="http://www.w3.org/2000/svg" xmlns:xlink="http://www.w3.org/1999/xlink" 
	 viewBox="0 0 512 512"  xml:space="preserve">
<style type="text/css">
	.st0{fill:#000000;}
</style>
<g>
	<path class="st0" d="M460.713,186.826c-43.5-4.348-84.83,8.698-102.23,36.982c0,0-15.717,0.14-36.414,0.331
		c4.357-35.484,52.809-52.624,113.473-83.536c81.904-41.744,72.189-78.179-13.055-136.309c-15.948-10.872-27.548,0-5.072,20.305
		c46.559,42.049,39.151,52.921,19.578,70.325c-13.41,11.914-25.993,19.33-32.628,14.509c-15.952-11.608-31.992-39.304-41.325-49.308
		c-10.153-10.88-23.82-4.762-11.604,15.229c15.949,26.101,34.075,45.671,13.778,58.726c-20.301,13.055-50.028,25.01-68.518,45.67
		c-18.474,20.661-21.12,37.048-21.107,44.786c-6.854,0.066-13.489,0.116-19.59,0.166c-6.098-0.05-12.732-0.1-19.59-0.166
		c0.016-7.738-2.629-24.125-21.107-44.786c-18.486-20.66-48.212-32.615-68.514-45.67c-20.301-13.055-2.174-32.625,13.778-58.726
		c12.215-19.991-1.451-26.108-11.604-15.229c-9.334,10.004-25.373,37.7-41.325,49.308c-6.635,4.821-19.222-2.596-32.628-14.509
		C55.434,77.52,48.026,66.648,94.585,24.598c22.476-20.305,10.876-31.177-5.076-20.305c-85.24,58.13-94.954,94.565-13.05,136.309
		c60.664,30.912,109.116,48.052,113.473,83.536c-20.698-0.19-36.415-0.331-36.415-0.331c-17.403-28.284-58.729-41.33-102.229-36.982
		c-43.5,4.341,8.698,113.102,84.826,117.45c0,0-17.114,207.724,119.885,207.724c137.002,0,119.885-207.724,119.885-207.724
		C452.011,299.927,504.213,191.166,460.713,186.826z M131.471,260.987c-4.931,9.235-20.95,7.391-33.897,0.612
		c-12.939-6.78-27.73-27.11-20.334-36.982c7.395-9.855,27.73-1.844,39.441,5.556C128.391,237.564,136.403,251.744,131.471,260.987z
		 M197.273,347.781c-8.408,0-15.224-6.821-15.224-15.221c0-8.408,6.816-15.229,15.224-15.229c8.408,0,15.225,6.82,15.225,15.229
		C212.498,340.96,205.681,347.781,197.273,347.781z M255.998,452.184c-22.823,0-41.326-18.511-41.326-41.33
		c0-22.818,18.503-41.321,41.326-41.321c22.822,0,41.33,18.503,41.33,41.321C297.328,433.673,278.821,452.184,255.998,452.184z
		 M314.727,347.781c-8.412,0-15.229-6.821-15.229-15.221c0-8.408,6.817-15.229,15.229-15.229c8.408,0,15.225,6.82,15.225,15.229
		C329.952,340.96,323.135,347.781,314.727,347.781z M414.427,261.599c-12.947,6.779-28.966,8.623-33.897-0.612
		c-4.932-9.243,3.08-23.422,14.791-30.813c11.711-7.4,32.041-15.412,39.441-5.556C442.156,234.489,427.361,254.819,414.427,261.599z
		"/>
</g>
</svg>