<?xml version="1.0" encoding="utf-8"?>

<!DOCTYPE svg PUBLIC "-//W3C//DTD SVG 1.1//EN" "http://www.w3.org/Graphics/SVG/1.1/DTD/svg11.dtd">

<svg version="1.1" id="_x32_" xmlns="http://www.w3.org/2000/svg" xmlns:xlink="http://www.w3.org/1999/xlink" 
	 width="800px" height="800px" viewBox="0 0 512 512"  xml:space="preserve">
<style type="text/css">
<![CDATA[
	.st0{fill:#000000;}
]]>
</style>
<g>
	<path class="st0" d="M507.317,91.987c-3.734-1.406-7.891,0.484-9.297,4.203c-2.047,5.422-4.328,9.844-6.719,13.375
		c-2.063,3.094-4.219,5.5-6.375,7.391c0.016-0.203,0.016-0.406,0.016-0.625c0-5.391-0.719-10.172-2.109-14.375
		c-2.047-6.328-5.672-11.328-10.203-14.594c-4.516-3.281-9.766-4.766-14.813-4.766c-5.531,0-10.891,1.75-15.313,4.969
		c-2.203,1.656-4.172,3.672-5.734,6.063c-1.547,2.391-2.688,5.156-3.234,8.141c-0.25,1.375-0.359,2.766-0.359,4.141
		c0,4.391,1.203,8.578,3.188,12.328c2.969,5.625,7.625,10.375,13.313,13.828c3.328,2.031,7.016,3.578,10.953,4.547
		c-0.219,0.188-0.438,0.406-0.688,0.609c-5.969,4.922-14.203,9.047-22.922,11.891c-52.688-72.813-169.422-97.609-267.875-42.766
		c-11.219,6.25-21.25,12.719-30.391,19.203c-24.703-29.719-86.891-34.703-78.875-11.578c7.266,20.953,17.922,43.938,22.906,57.547
		c-18.688,15.75-35.969,27.969-58.688,32.172c-20.734,3.875-26.891,9.375-23,29.641l8.578,67.813c0,0,24.172,13.984,32.75,18.719
		c18.906,10.453,56.109,33.234,111.094,50.188l20.844,65.375h52.156v-49.265c20.828,2.891,43.234,4.594,67.281,4.594
		c12.469,0,24.203-0.844,35.234-2.422v47.093h52.141l24.234-75.984c57.672-40.734,71.907-113.656,51.532-172.25
		c-3.141-9.016-7.125-17.547-11.797-25.625c7.766-2.859,15.219-6.594,21.625-11.391c4.797-3.563,9.016-7.734,12.219-12.625
		c0.313-0.469,0.625-0.969,0.922-1.469c0.5-0.156,1.016-0.281,1.531-0.469c6-2.125,11.828-6,16.953-11.688
		s9.563-13.156,13.141-22.641C512.942,97.565,511.052,93.393,507.317,91.987z M470.38,119.893c-0.078,1.156-0.266,2.25-0.547,3.359
		c-0.141,0-0.297,0-0.422,0c-2.906,0-5.766-0.578-8.438-1.625c-3.984-1.578-7.5-4.203-9.875-7.141c-1.172-1.469-2.078-3-2.641-4.453
		c-0.578-1.469-0.859-2.859-0.859-4.125c0-0.547,0.063-1.063,0.141-1.547c0.203-1.078,0.578-2,1.141-2.875
		c0.828-1.266,2.078-2.391,3.672-3.188c1.563-0.813,3.422-1.281,5.266-1.281c1.5,0,2.969,0.297,4.359,0.891
		c1.031,0.453,2,1.063,2.922,1.906c1.391,1.266,2.672,3.047,3.703,5.719c1,2.641,1.703,6.203,1.703,10.797
		C470.505,117.44,470.458,118.643,470.38,119.893z"/>
</g>
</svg>