<?xml version="1.0" encoding="utf-8"?>

<!DOCTYPE svg PUBLIC "-//W3C//DTD SVG 1.1//EN" "http://www.w3.org/Graphics/SVG/1.1/DTD/svg11.dtd">

<svg height="800px" width="800px" version="1.1" id="_x32_" xmlns="http://www.w3.org/2000/svg" xmlns:xlink="http://www.w3.org/1999/xlink" 
	 viewBox="0 0 512 512"  xml:space="preserve">
<style type="text/css">
	.st0{fill:#000000;}
</style>
<g>
	<path class="st0" d="M507.499,57.503l-37.738-29.838c-4.847-3.83-11.848-3.284-16.04,1.256c-1.202,1.311-3.984,4.177-7.944,8.153
		C417.884,65.048,329.968,149.769,231.018,233.25c-41.644,35.14-96.114,75.196-141.088,107.362
		c-22.49,16.09-42.618,30.216-57.657,40.85c-7.521,5.317-13.766,9.756-18.452,13.17c-2.346,1.703-4.3,3.152-5.876,4.37
		c-0.794,0.608-1.492,1.156-2.13,1.687c-0.651,0.54-1.207,1.01-1.93,1.727c-1.542,1.526-2.605,3.414-3.164,5.102
		c-0.57,1.711-0.716,3.213-0.72,4.477c0.046,3.013,0.72,4.924,1.398,6.727c1.33,3.283,3.113,6.111,5.41,9.278
		c4.011,5.456,9.636,11.598,16.803,18.017c10.738,9.586,24.898,19.673,41.756,27.503c16.841,7.814,36.45,13.363,57.769,13.363
		c15.948,0.015,32.812-3.144,49.77-10.627c15.474-6.82,30.983-17.246,46.137-31.842c7.274,1.118,14.483,1.826,21.519,1.826
		c36.774-0.008,69.425-14.418,94.069-34.662c21.889-18.071,37.772-40.642,44.911-63.467c15.878-2.12,29.943-8.192,41.733-16.676
		c20.953-15.081,35.209-37.074,44.53-58.79c9.124-21.469,13.497-42.546,13.694-58.489c1.379-9.964,1.973-19.435,1.973-28.212
		c-0.012-25.338-4.62-44.927-7.737-55.068c-0.84-2.744-1.183-5.224-1.186-7.598c0.007-4.663,1.344-9.102,3.841-13.694
		c3.71-6.874,10.145-13.655,16.552-19.504c3.202-2.935,6.37-5.656,9.228-8.26c2.878-2.674,5.417-4.948,7.837-8.462
		C513.432,68.215,512.345,61.334,507.499,57.503z M477.541,72.084c-5.965,5.456-12.839,12.168-18.507,20.537
		c-5.633,8.33-10.156,18.68-10.16,30.655c0,4.731,0.716,9.632,2.235,14.564c2.538,8.215,6.696,25.692,6.688,48.102
		c0,7.998-0.524,16.63-1.822,25.722l-0.12,1.673c0.02,7.698-1.599,19.041-5.132,31.233c-5.26,18.348-14.838,38.746-28.416,54.082
		c-6.782,7.69-14.511,14.133-23.173,18.733c-8.677,4.593-18.275,7.421-29.31,7.86c-5.429,0.208-10.011,4.076-11.128,9.394
		c-3.86,18.81-18.017,41.428-39.089,58.644c-21.064,17.292-48.591,29.299-79.046,29.283c-7.567,0-15.338-0.732-23.288-2.319
		c-3.918-0.786-7.983,0.47-10.777,3.328c-14.722,15.027-29.21,24.876-43.139,31.018c-13.936,6.134-27.353,8.608-40.222,8.616
		c-27.847,0.054-53.55-11.99-72.153-25.515c-9.278-6.72-16.746-13.778-21.619-19.396c-1.129-1.295-2.081-2.489-2.914-3.584
		c6.655-4.87,17.82-12.754,31.822-22.625c47.952-33.838,129.525-91.41,188.01-140.744c56.975-48.071,110.174-96.412,150.605-134.326
		c20.213-18.957,37.236-35.31,49.947-47.717c6.353-6.211,11.632-11.436,15.705-15.52c0.332-0.332,0.601-0.608,0.917-0.925
		l18.884,14.934C480.835,69.125,479.248,70.527,477.541,72.084z"/>
	<path class="st0" d="M377.307,184.385c-25.206,0-45.636,20.429-45.636,45.628c0,25.207,20.429,45.636,45.636,45.636
		c25.2,0,45.628-20.428,45.628-45.636C422.935,204.814,402.506,184.385,377.307,184.385z M379.056,201.931
		c-5.263,1.758-15.79,12.284-22.818,14.041c-7.021,1.757,0.516-9.447,8.777-14.041C380.814,193.162,384.328,200.175,379.056,201.931
		z"/>
	<path class="st0" d="M263.226,284.425c-25.207,0-45.636,20.429-45.636,45.629c0,25.206,20.428,45.636,45.636,45.636
		c25.199,0,45.628-20.429,45.628-45.636C308.854,304.855,288.424,284.425,263.226,284.425z M264.982,303.729
		c-5.27,1.758-15.797,12.284-22.818,14.041c-7.028,1.749,0.509-9.455,8.77-14.041C266.732,294.952,270.246,301.973,264.982,303.729z
		"/>
	<path class="st0" d="M134.988,367.128c-21.5,0-38.939,17.44-38.939,38.94c0,21.508,17.439,38.939,38.939,38.939
		c21.508,0,38.939-17.432,38.939-38.939C173.927,384.567,156.496,367.128,134.988,367.128z M131.05,383.665
		c-3.919,1.426-11.748,9.964-16.981,11.405c-5.221,1.418,0.386-7.675,6.531-11.405C132.36,376.545,134.973,382.24,131.05,383.665z"
		/>
</g>
</svg>