<?xml version="1.0" encoding="utf-8"?>

<!DOCTYPE svg PUBLIC "-//W3C//DTD SVG 1.1//EN" "http://www.w3.org/Graphics/SVG/1.1/DTD/svg11.dtd">

<svg height="800px" width="800px" version="1.1" id="_x32_" xmlns="http://www.w3.org/2000/svg" xmlns:xlink="http://www.w3.org/1999/xlink" 
	 viewBox="0 0 512 512"  xml:space="preserve">
<style type="text/css">
	.st0{fill:#000000;}
</style>
<g>
	<path class="st0" d="M504.412,185.549c-12.69-39.058-39.827-70.824-76.423-89.465c-13.762-7.015-27.69-10.422-39.643-11.954
		c-5.173-10.89-12.724-23.102-23.656-34.034C335.661,21.059,297.056,5.071,255.998,5.071c-41.058,0-79.663,15.988-108.692,45.025
		c-10.932,10.923-18.49,23.144-23.656,34.034c-11.953,1.54-25.898,4.948-39.643,11.962c-36.587,18.634-63.717,50.4-76.406,89.457
		c-12.69,39.048-9.409,80.709,9.224,117.288c7.014,13.769,16.288,24.726,25.044,32.997c-2.218,11.836-3.281,26.158-0.862,41.418
		c6.421,40.555,28.251,76.18,61.465,100.313c26.443,19.21,57.666,29.364,90.285,29.364c8.053,0,16.172-0.636,24.124-1.892
		c15.267-2.419,28.544-7.86,39.116-13.636c10.572,5.776,23.865,11.216,39.124,13.627c7.952,1.256,16.08,1.892,24.116,1.892
		c32.628,0,63.85-10.145,90.285-29.356c33.214-24.132,55.045-59.766,61.474-100.313c2.41-15.268,1.356-29.591-0.871-41.418
		c8.756-8.27,18.03-19.228,25.045-32.997C513.804,266.258,517.085,224.597,504.412,185.549z M467.598,288.792
		c-7.701,15.167-19.604,26.15-28.46,32.712l-4.001,2.963l1.49,4.738c2.428,7.735,4.805,18.416,4.805,30.209
		c0,4.211-0.302,8.564-0.988,12.992c-5.156,32.435-22.55,60.812-49.102,80.123c-21.16,15.36-46.021,23.446-72.095,23.455h-0.008
		c-6.429,0-12.924-0.52-19.269-1.516c-16.809-2.645-30.938-10.572-39.912-16.976l-4.052-2.871l-4.051,2.871
		c-8.974,6.404-23.103,14.331-39.912,16.976c-6.361,1.005-12.857,1.516-19.286,1.516c-26.082-0.008-50.934-8.086-72.087-23.455
		c-26.568-19.311-43.946-47.688-49.102-80.115c-0.704-4.436-1.004-8.788-1.004-13.007c0-11.786,2.377-22.467,4.804-30.202
		l1.491-4.738l-3.985-2.963c-8.856-6.555-20.776-17.545-28.477-32.712c-8.939-17.561-13.442-36.513-13.442-55.606
		c0-12.757,2.009-25.572,6.077-38.078c10.153-31.222,31.758-56.535,61.021-71.451c15.084-7.702,31.138-9.618,42.255-9.711
		l4.972-0.05l1.582-4.721c3.491-10.446,10.271-25.179,22.324-37.207c23.237-23.212,53.974-35.944,86.812-35.951
		c32.838,0.008,63.583,12.74,86.828,35.96c12.037,12.02,18.817,26.744,22.299,37.198l1.591,4.712l4.971,0.051
		c11.117,0.092,27.172,2.017,42.255,9.71c29.264,14.925,50.877,40.228,61.038,71.46c4.052,12.506,6.061,25.321,6.061,38.069
		C481.042,252.279,476.538,271.231,467.598,288.792z"/>
	<path class="st0" d="M398.993,153.004c-16.39-8.354-35.676-5.75-35.676-5.75c-12.154,0.109-23.638-8.881-27.305-19.83
		c0,0-3.473-19.143-16.49-32.152c-16.256-16.255-38.714-26.317-63.524-26.317c-24.802,0-47.269,10.062-63.525,26.317
		c-13.007,13.008-16.49,32.152-16.49,32.152c-3.515,11.443-14.983,19.939-27.288,19.839c0,0-19.294-2.612-35.692,5.742
		c-20.483,10.446-36.981,28.694-44.649,52.283c-7.668,23.588-5.039,48.064,5.391,68.547c8.354,16.398,25.497,25.622,25.497,25.622
		c10.346,7.115,14.338,20.592,10.421,32.084c0,0-8.438,17.545-5.558,35.718c3.591,22.709,15.854,44.046,35.918,58.627
		c20.073,14.582,44.155,19.637,66.864,16.046c18.172-2.879,32.243-16.322,32.243-16.322c10.204-7.743,23.178-7.743,33.733,0
		c0,0,14.079,13.443,32.244,16.314c22.718,3.599,46.791-1.456,66.864-16.038c20.072-14.581,32.327-35.918,35.927-58.627
		c2.879-18.172-5.558-35.718-5.558-35.718c-4.269-11.995,0.218-25.472,10.413-32.084c0,0,17.143-9.232,25.497-25.631
		c10.446-20.474,13.058-44.95,5.391-68.538C435.974,181.698,419.484,163.443,398.993,153.004z M330.764,272.796
		c-3.038,0-5.984-0.62-8.78-1.842c-7.216,9.182-17.218,23.313-27.858,43.929c8.187,2.947,15.612,6.622,22.116,10.932l1.825,1.214
		l-8.89,8.162l-1.038-0.494c-6.562-3.098-13.846-5.525-21.63-7.215c-4.486-0.946-8.99-1.616-13.367-1.984
		c-3.005-0.284-6.002-0.427-8.998-0.427l-1.825,0.017c-2.093,0-4.16,0.074-6.211,0.2c-2.269-0.126-4.336-0.2-6.412-0.2l-1.841-0.017
		c-2.98,0-5.993,0.142-8.99,0.427c-4.486,0.402-8.99,1.072-13.385,1.992c-7.767,1.682-15.042,4.102-21.596,7.208l-1.038,0.494
		l-8.932-8.162l1.842-1.214c6.529-4.31,13.954-7.985,22.107-10.932c-10.84-21.027-21.028-35.298-27.983-43.87
		c-2.746,1.18-5.642,1.783-8.647,1.783c-12.229,0-22.19-9.961-22.19-22.207c0-12.238,9.962-22.19,22.19-22.19
		c12.238,0,22.191,9.952,22.191,22.19c0,2.971-0.586,5.867-1.758,8.621c8.094,9.802,20.022,26.359,32.445,51.044
		c4.411-0.954,8.973-1.7,13.594-2.21v-58.82c-8.354-3.365-13.895-11.485-13.895-20.575c0-12.238,9.961-22.191,22.19-22.191
		c12.229,0,22.19,9.952,22.19,22.191c0,9.09-5.54,17.21-13.895,20.575v58.82c4.63,0.51,9.191,1.256,13.577,2.21
		c12.49-24.736,24.409-41.284,32.478-51.044c-1.18-2.762-1.774-5.658-1.774-8.621c0-12.238,9.952-22.19,22.19-22.19
		c12.23,0,22.191,9.952,22.191,22.19C352.955,262.835,342.994,272.796,330.764,272.796z"/>
</g>
</svg>