<?xml version="1.0" encoding="utf-8"?>

<!DOCTYPE svg PUBLIC "-//W3C//DTD SVG 1.1//EN" "http://www.w3.org/Graphics/SVG/1.1/DTD/svg11.dtd">

<svg height="800px" width="800px" version="1.1" id="_x32_" xmlns="http://www.w3.org/2000/svg" xmlns:xlink="http://www.w3.org/1999/xlink" 
	 viewBox="0 0 512 512"  xml:space="preserve">
<style type="text/css">
	.st0{fill:#000000;}
</style>
<g>
	<path class="st0" d="M511.096,224.33c-0.596-0.408-32.846-23.105-32.846-23.105c-2.321-1.631-3.278-4.596-2.352-7.286
		c0,0,12.736-37.308,12.972-37.974c0.298-0.808,0.094-1.836-0.768-2.376c-7.529-4.777-61.188-25.096-127.648-27.583
		c-22.901-62.436-59.15-107.445-66.004-113.131c-0.784-0.643-1.835-0.51-2.51,0c-0.565,0.446-32.108,24.093-32.108,24.093
		c-2.274,1.702-5.38,1.702-7.654,0c0,0-31.544-23.646-32.108-24.093c-0.675-0.51-1.726-0.643-2.51,0
		c-6.87,5.686-43.104,50.687-66.004,113.131c-66.459,2.486-120.134,22.806-127.663,27.575c-0.847,0.548-1.051,1.576-0.769,2.384
		c0.251,0.666,12.988,37.966,12.988,37.966c0.909,2.69-0.047,5.655-2.384,7.294c0,0-32.234,22.697-32.814,23.097
		c-0.705,0.47-1.144,1.427-0.784,2.376c3.294,8.289,34.571,56.898,86.866,97.97c-18.18,63.973-15.105,121.06-12.878,129.702
		c0.251,0.981,1.176,1.49,2.023,1.466c0.706-0.016,40.123-0.612,40.123-0.612c2.839-0.047,5.364,1.788,6.196,4.502
		c0,0,11.623,37.676,11.827,38.358c0.235,0.808,1.004,1.53,2.023,1.467c8.893-0.565,64.467-15.043,119.695-52.084
		c55.212,37.041,110.785,51.518,119.695,52.084c1.004,0.07,1.772-0.659,2.008-1.467c0.204-0.682,11.827-38.35,11.827-38.35
		c0.831-2.722,3.356-4.55,6.196-4.51c0,0,39.417,0.596,40.122,0.612c0.863,0.024,1.773-0.486,2.024-1.466
		c2.212-8.643,5.286-65.722-12.877-129.687c52.295-41.088,83.571-89.696,86.865-97.978
		C512.241,225.757,511.786,224.808,511.096,224.33z M327.624,284.444c-6.054,0-11.246-3.608-13.615-8.768h-42.9l30.336,30.336
		c5.333-1.969,11.544-0.847,15.811,3.427c5.882,5.866,5.882,15.379,0,21.246c-5.851,5.867-15.372,5.867-21.222,0
		c-4.282-4.274-5.411-10.493-3.451-15.826l-30.335-30.335v42.907c5.176,2.376,8.768,7.56,8.768,13.616
		c0,8.29-6.713,15.018-15.011,15.018c-8.298,0-15.027-6.729-15.027-15.018c0-6.055,3.592-11.239,8.768-13.616v-42.907
		l-30.336,30.335c1.96,5.333,0.847,11.552-3.435,15.826c-5.866,5.867-15.387,5.867-21.254,0c-5.866-5.866-5.866-15.371,0-21.246
		c4.298-4.274,10.494-5.396,15.826-3.427l30.336-30.336H198c-2.384,5.16-7.56,8.768-13.63,8.768
		c-8.282,0-15.027-6.729-15.027-15.018c0-8.298,6.744-15.027,15.027-15.027c6.07,0,11.246,3.6,13.63,8.76h42.884l-30.336-30.335
		c-5.333,1.968-11.529,0.855-15.811-3.428c-5.882-5.874-5.882-15.379,0-21.246c5.851-5.874,15.372-5.874,21.238,0
		c4.282,4.282,5.396,10.493,3.435,15.826l30.336,30.328v-42.9c-5.176-2.368-8.768-7.56-8.768-13.608
		c0-8.304,6.729-15.026,15.027-15.026c8.298,0,15.011,6.722,15.011,15.026c0,6.048-3.592,11.24-8.768,13.608v42.9l30.335-30.328
		c-1.96-5.333-0.847-11.544,3.435-15.826c5.866-5.874,15.372-5.866,21.254,0c5.866,5.867,5.866,15.372,0,21.246
		c-4.298,4.282-10.509,5.396-15.826,3.428l-30.336,30.335h42.9c2.384-5.16,7.56-8.76,13.615-8.76
		c8.298,0,15.027,6.721,15.027,15.027C342.65,277.723,335.921,284.444,327.624,284.444z"/>
</g>
</svg>