<?xml version="1.0" encoding="utf-8"?>

<!DOCTYPE svg PUBLIC "-//W3C//DTD SVG 1.1//EN" "http://www.w3.org/Graphics/SVG/1.1/DTD/svg11.dtd">

<svg height="800px" width="800px" version="1.1" id="_x32_" xmlns="http://www.w3.org/2000/svg" xmlns:xlink="http://www.w3.org/1999/xlink" 
	 viewBox="0 0 512 512"  xml:space="preserve">
<style type="text/css">
	.st0{fill:#000000;}
</style>
<g>
	<path class="st0" d="M406.871,121.397c-32.096,0.007-58.091,26.002-58.098,58.098V244.5h-5.209V83.739
		C343.556,37.482,306.082,0.007,259.825,0c-46.257,0.007-83.732,37.482-83.739,83.739v187.208c-0.247-0.085-0.495-0.156-0.714-0.22
		c-1.111-0.304-1.996-0.488-2.958-0.686c-2.81-0.566-6.185-1.139-9.186-1.727v-31.013c-0.006-32.088-26.002-58.09-58.098-58.098
		c-32.088,0.007-58.083,26.009-58.09,58.098v34.17c0,15.931,3.248,31.317,9.158,45.266c8.86,20.928,23.546,38.586,42.046,51.091
		c18.04,12.23,39.952,19.448,63.158,19.823l0.325,0.071h14.36V512h167.478v-14.494V360.687h6.604h0.049l0.736-0.021v-0.014
		c15.442-0.106,30.361-3.284,43.907-9.01c20.673-8.747,38.105-23.242,50.461-41.522c12.272-18.132,19.498-40.206,19.619-63.597
		h0.006l0.014-0.318v-0.22v-0.007v-66.484C464.954,147.399,438.959,121.404,406.871,121.397z M435.972,245.886v0.1
		c0.007,17.586-5.456,34.304-14.664,47.892c-9.265,13.702-22.28,24.516-37.743,31.069c-10.248,4.332-21.628,6.752-33.348,6.752
		h-0.049h-35.592v151.312h-109.5V358.734h-41.544h-0.241h-0.07c-17.906,0-34.913-5.541-48.728-14.912
		c-13.928-9.42-24.948-22.668-31.6-38.38c-4.416-10.425-6.865-21.99-6.865-33.971v-34.17c0.007-8.082,3.234-15.273,8.528-20.58
		c5.308-5.294,12.491-8.521,20.573-8.528c8.083,0.007,15.273,3.234,20.581,8.528c5.293,5.308,8.521,12.498,8.528,20.58v34.269
		c-0.049,5.746,1.918,11.706,4.856,16.002l0.056,0.077l0.014,0.028c1.678,2.413,3.185,3.503,4.345,4.324
		c2.195,1.451,3.61,1.932,4.969,2.449c1.288,0.453,2.484,0.793,3.666,1.097c0.906,1.033,1.77,1.726,2.428,2.229
		c2.456,1.677,3.504,1.818,4.31,2.123c1.416,0.404,1.862,0.418,2.293,0.496c0.665,0.078,0.906,0.085,1.133,0.106l0.983,0.022h41.784
		V83.739c0.007-15.167,6.108-28.762,16.037-38.713c9.951-9.937,23.546-16.03,38.713-16.037c15.167,0.007,28.762,6.1,38.713,16.037
		c9.929,9.95,16.03,23.546,16.037,38.713v189.749h35.592h0.07c2.725-0.007,5.535-0.41,8.16-1.238
		c2.633-0.814,5.025-2.032,7.042-3.368l0.092-0.057l0.156-0.106l-0.135,0.092c4.544-3.1,7.905-7.183,10.064-12.215
		c1.337-3.093,2.18-6.985,2.144-10.708v-66.392c0.007-8.09,3.234-15.273,8.528-20.581c5.308-5.294,12.492-8.521,20.581-8.528
		c8.082,0.007,15.265,3.234,20.58,8.521c5.287,5.315,8.514,12.498,8.521,20.588V245.886z"/>
</g>
</svg>