<?xml version="1.0" encoding="utf-8"?>

<!DOCTYPE svg PUBLIC "-//W3C//DTD SVG 1.1//EN" "http://www.w3.org/Graphics/SVG/1.1/DTD/svg11.dtd">

<svg version="1.1" id="_x32_" xmlns="http://www.w3.org/2000/svg" xmlns:xlink="http://www.w3.org/1999/xlink" 
	 width="800px" height="800px" viewBox="0 0 512 512"  xml:space="preserve">
<style type="text/css">
<![CDATA[
	.st0{fill:#000000;}
]]>
</style>
<g>
	<path class="st0" d="M195.865,364.097c0-7.188-5.844-13.016-13.016-13.016c-7.203,0-13.016,5.828-13.016,13.016
		s5.813,13.016,13.016,13.016C190.021,377.112,195.865,371.284,195.865,364.097z"/>
	<path class="st0" d="M316.146,364.097c0,7.188,5.828,13.016,13.016,13.016s13.031-5.828,13.031-13.016s-5.844-13.016-13.031-13.016
		S316.146,356.909,316.146,364.097z"/>
	<path class="st0" d="M110.35,342.784c-9.828,16.641-14.375,47.922,13.328,74.859c12.688,4.859,29.453-17.094,29.453-17.094
		c-14.281-0.281-43.266-20.469-28.656-58.563C126.975,336.175,120.162,326.144,110.35,342.784z"/>
	<path class="st0" d="M358.881,400.55c0,0,16.75,21.953,29.453,17.094c27.703-26.938,23.141-58.219,13.328-74.859
		c-9.797-16.641-16.625-6.609-14.125-0.797C402.146,380.081,373.146,400.269,358.881,400.55z"/>
	<path class="st0" d="M422.521,437.362c-55.875-2.672-82.203-25.938-91.063-55.313c-0.766,0.094-1.516,0.172-2.297,0.172
		c-9.984,0-18.109-8.141-18.109-18.125c0-9.703,7.656-17.625,17.25-18.078c0.141-1.641,0.313-3.266,0.516-4.906
		c0,0,19.578,2.563,19.578-7.641c0-10.219-26.375-163.328-27.234-171.844c-0.844-8.5,9.375-16.156,12.766-0.844
		c3.406,15.313,11.063,60.391,11.063,60.391s35.719-1.703,51.031,0c11.953,1.328,22.125-3.391,10.219-20.422
		C394.49,183.972,256.006,0.003,256.006,0.003s-138.484,183.969-150.234,200.75c-11.906,17.031-1.734,21.75,10.219,20.422
		c15.297-1.703,51.031,0,51.031,0s7.656-45.078,11.047-60.391c3.422-15.313,13.625-7.656,12.781,0.844
		c-0.859,8.516-27.234,161.625-27.234,171.844c0,10.203,19.563,7.641,19.563,7.641c0.234,1.641,0.391,3.266,0.547,4.906
		c9.578,0.453,17.25,8.375,17.25,18.078c0,9.984-8.125,18.125-18.125,18.125c-0.766,0-1.531-0.078-2.281-0.172
		c-8.859,29.375-35.188,52.641-91.078,55.313c-6.531,0.734-9.828,14.875,0.281,18.609c16.156,5.953,87.625,8.5,113.141-33.188
		c8.5-11.906,6.797,43.391-57.859,74.016c-7.641,3.391-5.953,18.719,11.922,14.453c20.953-4.984,82.016-29.766,99.031-91.016
		c17.016,61.25,78.078,86.031,99.031,91.016c17.859,4.266,19.563-11.063,11.922-14.453c-64.672-30.625-66.359-85.922-57.859-74.016
		c25.531,41.688,96.969,39.141,113.141,33.188C432.334,452.237,429.037,438.097,422.521,437.362z"/>
</g>
</svg>