<?xml version="1.0" encoding="utf-8"?>

<!DOCTYPE svg PUBLIC "-//W3C//DTD SVG 1.1//EN" "http://www.w3.org/Graphics/SVG/1.1/DTD/svg11.dtd">

<svg height="800px" width="800px" version="1.1" id="_x32_" xmlns="http://www.w3.org/2000/svg" xmlns:xlink="http://www.w3.org/1999/xlink" 
	 viewBox="0 0 512 512"  xml:space="preserve">
<style type="text/css">
	.st0{fill:#000000;}
</style>
<g>
	<path class="st0" d="M345.114,155.163c-13.113-21.232-35.755-26.934-50.43-26.934h-77.44c-14.599,0-37.318,5.702-50.354,26.934
		c-12.022,19.752-19.44,38.094-23.656,54.958c-2.18,8.821-3.507,17.252-4.132,25.371c-3.361,40.596,10.46,71.586,15.378,93.054
		c1.25,5.542,3.202,12.412,5.695,20.142c2.424,7.73,5.313,16.314,8.516,25.371c12.8,36.38,29.976,79.24,37.858,97.582
		C222.161,508.097,241.601,512,255.964,512c14.439,0,33.879-3.903,49.492-40.359c11.633-27.323,44.187-109.292,51.993-143.095
		c1.403-6.167,3.59-13.113,5.855-20.843c2.264-7.73,4.604-16.162,6.48-25.371C376.417,249.779,376.965,207.468,345.114,155.163z
		 M287.579,282.332c-7.021,0-12.724,5.702-12.724,12.724c0,6.944,5.702,12.647,12.724,12.647h43.18
		c-1.395,4.742-2.721,9.347-3.735,13.814c-7.106,30.754-38.43,110.016-50.27,137.835c-9.179,21.422-15.888,21.422-20.79,21.422
		c-4.872,0-11.535,0-20.729-21.46c-7.136-16.62-21.484-52.352-33.384-85.255h18.358c7.029,0,12.724-5.702,12.724-12.647
		c0-7.021-5.695-12.724-12.724-12.724h-27.201c-1.09-3.294-2.165-6.541-3.118-9.582c-2.218-6.9-3.934-12.922-4.97-17.527
		c-1.364-5.954-3.156-12.03-5.055-18.456c-5.504-18.632-11.74-39.75-9.628-65.236c0.061-0.792,0.214-1.6,0.29-2.394h67.248
		c7.029,0,12.647-5.702,12.647-12.724c0-6.945-5.618-12.648-12.647-12.648h-61.995c3.957-12.686,9.827-25.653,17.725-38.621
		c7.037-11.466,21.011-12.045,23.74-12.045h77.44c3.842,0,16.917,0.877,23.763,11.946c27.94,45.887,25.76,80.055,20.736,104.702
		c-0.442,2.158-0.968,4.155-1.456,6.229H287.579z"/>
	<polygon class="st0" points="315.451,110.588 336.263,50.163 305.036,47.876 298.534,87.786 288.127,85.506 292.031,25.082 
		259.501,20.515 260.545,71.822 248.836,71.822 248.836,0 210.062,3.423 213.965,36.478 224.371,75.245 216.565,78.668 
		197.049,31.927 169.718,42.189 194.7,110.588 	"/>
</g>
</svg>