<?xml version="1.0" encoding="utf-8"?>

<!DOCTYPE svg PUBLIC "-//W3C//DTD SVG 1.1//EN" "http://www.w3.org/Graphics/SVG/1.1/DTD/svg11.dtd">

<svg height="800px" width="800px" version="1.1" id="_x32_" xmlns="http://www.w3.org/2000/svg" xmlns:xlink="http://www.w3.org/1999/xlink" 
	 viewBox="0 0 512 512"  xml:space="preserve">
<style type="text/css">
	.st0{fill:#000000;}
</style>
<g>
	<path class="st0" d="M222.98,266.241c-9.992-1.128-17.299-3.849-22.137-7.148c-3.22-2.179-5.46-4.585-7.07-7.184
		c-1.592-2.616-2.572-5.486-2.974-8.828c-0.088-0.752-0.14-1.522-0.14-2.31c-0.053-5.206,2.135-11.996,6.492-20.378
		c6.448-12.574,17.263-28.034,26.616-47.205c9.345-19.179,17.132-42.436,17.115-70.566c-0.009-54.493-44.16-98.644-98.653-98.653
		c-26.923,0-51.579,10.806-69.482,28.314c-17.902,17.491-29.189,41.903-29.18,68.878l0.009,1.68c0.017,0.403,0.061,0.736,0.07,1.147
		C32.052,114.671,17.283,126.5,5.742,129.641c-18.426,5.031,10.237,16.939,47.038,18.645c6.352,14.052,14.787,23.266,20.475,30.641
		c3.149,4.052,5.512,7.525,7.061,11.069c1.539,3.553,2.476,7.218,2.493,12.547c0.017,6.72-1.698,16.204-6.702,29.617
		c-13.072,33.687-19.04,64.862-19.04,93.289c-0.017,29.382,6.406,55.789,17.727,78.625c16.975,34.308,44.782,60.373,77.4,77.732
		c32.654,17.378,70.199,26.206,107.604,26.223c56.191,0.035,100.709-14.201,135.165-35.839c51.781-32.47,80.55-80.76,96.456-120.466
		c15.907-39.777,19.127-71.345,19.215-72.098L512,266.241H222.98z M448.512,383.304c-15.697,25.506-37.519,50.503-67.897,69.175
		c-30.415,18.645-69.491,31.202-120.816,31.228c-44.781,0.035-89.886-14.288-123.152-41.098
		c-16.668-13.404-30.423-29.854-40.048-49.322c-9.634-19.468-15.206-41.972-15.206-67.837c0-25.05,5.267-53.268,17.446-84.644
		l0.018-0.053l0.035-0.105c4.489-12.057,6.973-22.19,7.84-31.271h68.738c-5.014,9.808-9.082,19.967-9.135,31.394
		c0,1.697,0.106,3.421,0.306,5.162c0.762,6.58,2.896,12.976,6.396,18.672c5.24,8.601,13.491,15.426,23.72,19.845
		c1.637,0.718,3.404,1.269,5.146,1.864C153.368,337,184.954,419.615,281.97,421.418c69.368,1.278,155.36-63.445,165.947-130.852
		h36.346C480.518,309.807,470.929,346.992,448.512,383.304z"/>
</g>
</svg>