<?xml version="1.0" encoding="utf-8"?>

<!DOCTYPE svg PUBLIC "-//W3C//DTD SVG 1.1//EN" "http://www.w3.org/Graphics/SVG/1.1/DTD/svg11.dtd">

<svg height="800px" width="800px" version="1.1" id="_x32_" xmlns="http://www.w3.org/2000/svg" xmlns:xlink="http://www.w3.org/1999/xlink" 
	 viewBox="0 0 512 512"  xml:space="preserve">
<style type="text/css">
	.st0{fill:#000000;}
</style>
<g>
	<path class="st0" d="M408.243,128.683c-25.53,0-46.22,20.69-46.22,46.22v70.376c0,2.056-0.382,3.766-1.073,5.401
		c-1.02,2.431-2.843,4.652-5.086,6.152c-2.273,1.5-4.688,2.326-7.726,2.341h-22.364V73.4c0-40.542-32.858-73.4-73.4-73.4
		c-40.541,0-73.4,32.859-73.4,73.4v216.584h-13.563c-2.258,0-4.171-0.428-5.994-1.193c-2.708-1.133-5.161-3.159-6.834-5.642
		c-1.666-2.52-2.58-5.244-2.604-8.597v-36.22c0-25.522-20.69-46.22-46.22-46.22c-25.522,0-46.213,20.699-46.213,46.22v36.22
		c-0.008,14.763,3.016,29.07,8.493,41.996c8.222,19.423,21.846,35.799,39.026,47.42c17.164,11.628,38.17,18.462,60.346,18.448
		h13.563V512h146.8V351.606h22.364c14.554,0.008,28.65-2.978,41.396-8.372c19.146-8.11,35.282-21.524,46.738-38.47
		c11.456-16.918,18.207-37.623,18.185-59.484v-70.376C454.456,149.373,433.765,128.683,408.243,128.683z"/>
</g>
</svg>