<?xml version="1.0" encoding="utf-8"?>

<!DOCTYPE svg PUBLIC "-//W3C//DTD SVG 1.1//EN" "http://www.w3.org/Graphics/SVG/1.1/DTD/svg11.dtd">

<svg height="800px" width="800px" version="1.1" id="_x32_" xmlns="http://www.w3.org/2000/svg" xmlns:xlink="http://www.w3.org/1999/xlink" 
	 viewBox="0 0 512 512"  xml:space="preserve">
<style type="text/css">
	.st0{fill:#000000;}
</style>
<g>
	<path class="st0" d="M476.937,291.067c0,0-52.605,19.292-103.464,0c50.859-24.553,63.128-68.38,63.128-115.724
		c-28.052,8.76-78.895,17.538-112.216-17.538c40.329-19.284,64.873-52.605,63.128-78.895C326.138,87.68,301.593,77.158,255.996,0
		c-45.582,77.158-70.134,87.68-131.508,78.911c-1.754,26.29,22.799,59.611,63.127,78.895
		c-33.321,35.075-84.164,26.298-112.232,17.538c0,47.344,12.285,91.17,63.127,115.724c-50.842,19.292-103.447,0-103.447,0
		S53.708,422.7,203.399,442.956V512h54.341h54.359v-69.597C458.526,420.552,476.937,291.067,476.937,291.067z"/>
</g>
</svg>