<?xml version="1.0" encoding="utf-8"?>

<!DOCTYPE svg PUBLIC "-//W3C//DTD SVG 1.1//EN" "http://www.w3.org/Graphics/SVG/1.1/DTD/svg11.dtd">

<svg height="800px" width="800px" version="1.1" id="_x32_" xmlns="http://www.w3.org/2000/svg" xmlns:xlink="http://www.w3.org/1999/xlink" 
	 viewBox="0 0 512 512"  xml:space="preserve">
<style type="text/css">
	.st0{fill:#000000;}
</style>
<g>
	<path class="st0" d="M473.561,122.416c-18.268-36.422-48.514-67.006-86.181-88.491C349.697,12.44,304.506,0.009,256.009,0
		C191.331,0.018,132.554,22.089,89.601,58.325c-21.467,18.117-38.981,39.807-51.145,64.091
		c-12.173,24.275-18.962,51.154-18.962,79.312c0,28.15,6.788,55.037,18.962,79.303c18.259,36.431,48.496,67.015,86.172,88.5
		c18.375,10.476,38.563,18.784,60.03,24.559C181.815,443.075,172.397,512,172.397,512h162.746c0,0-10.609-76.487-12.99-116.56
		c38.225-9.463,72.541-26.931,100.255-50.31c21.458-18.126,38.981-39.815,51.154-64.1c12.164-24.266,18.962-51.153,18.944-79.303
		C492.523,173.57,485.725,146.691,473.561,122.416z M449.571,269.017c-15.603,31.152-41.94,58.084-75.474,77.206
		c-15.008,8.556-31.445,15.522-48.958,20.64c12.599-39.406,55.605-97.18,55.605-97.18l-10.734-13.418
		c0,0-24.142,39.346-34.866,34.876c-10.734-4.47-6.264-53.651-6.264-53.651H307.42c3.572,33.978-10.734,70.639-30.406,60.804
		c-19.672-9.837-9.828-79.579-9.828-79.579l-18.783-2.683c0,0-8.939,82.262-30.406,91.21c-27.332,11.382-48.283-30.406-69.734-74.22
		l-19.672,9.836c5.358,15.203,45.6,85.834,54.54,105.506c1.44,3.172,2.132,9.578,2.292,18.073
		c-29.97-8.956-56.733-23.404-78.512-41.806c-18.908-15.958-34.067-34.84-44.481-55.614c-10.404-20.792-16.1-43.45-16.1-67.29
		c0-23.848,5.696-46.506,16.1-67.29c15.604-31.161,41.94-58.084,75.492-77.215c33.525-19.122,74.176-30.398,118.088-30.389
		c58.538-0.017,111.3,20.064,149.098,51.989c18.9,15.949,34.058,34.84,44.464,55.614c10.414,20.783,16.109,43.441,16.118,67.29
		C465.68,225.567,459.984,248.226,449.571,269.017z"/>
</g>
</svg>