<?xml version="1.0" encoding="utf-8"?>

<!DOCTYPE svg PUBLIC "-//W3C//DTD SVG 1.1//EN" "http://www.w3.org/Graphics/SVG/1.1/DTD/svg11.dtd">

<svg height="800px" width="800px" version="1.1" id="_x32_" xmlns="http://www.w3.org/2000/svg" xmlns:xlink="http://www.w3.org/1999/xlink" 
	 viewBox="0 0 512 512"  xml:space="preserve">
<style type="text/css">
	.st0{fill:#000000;}
</style>
<g>
	<path class="st0" d="M256,0C122.265,72.582,11.464,229.244,45.861,362.98c30.568,99.338,170.817,85.227,182.046,74.005V512h56.168
		v-75.015c11.247,11.222,151.496,25.333,182.064-74.005C500.537,229.244,389.718,72.582,256,0z M371.14,233.539l-103.676,86.944
		v63.508c0,7.375-5.978,13.361-13.37,13.361c-3.692,0-7.038-1.492-9.453-3.916c-2.416-2.416-3.925-5.753-3.925-9.445V342.9v-34.924
		v-79.508l-67.821-43.299c-6.253-3.976-8.065-12.248-4.088-18.467c2.553-3.994,6.857-6.184,11.265-6.184
		c2.467,0,4.959,0.672,7.21,2.105l53.434,34.113V85.978c0-7.392,5.986-13.37,13.378-13.37c3.691,0,7.038,1.502,9.453,3.916
		s3.916,5.761,3.916,9.453v127.853v31.715v40.013l86.494-72.53c5.65-4.736,14.077-3.994,18.838,1.656
		c2.096,2.502,3.131,5.564,3.131,8.599C375.927,227.088,374.314,230.9,371.14,233.539z"/>
</g>
</svg>