<?xml version="1.0" encoding="utf-8"?>

<!DOCTYPE svg PUBLIC "-//W3C//DTD SVG 1.1//EN" "http://www.w3.org/Graphics/SVG/1.1/DTD/svg11.dtd">

<svg height="800px" width="800px" version="1.1" id="_x32_" xmlns="http://www.w3.org/2000/svg" xmlns:xlink="http://www.w3.org/1999/xlink" 
	 viewBox="0 0 512 512"  xml:space="preserve">
<style type="text/css">
	.st0{fill:#000000;}
</style>
<g>
	<path class="st0" d="M161.636,143.856c3.422,0,6.202-2.78,6.202-6.203V92.228c0-3.414-2.78-6.195-6.202-6.195
		c-3.414,0-6.187,2.781-6.187,6.195v45.425C155.449,141.076,158.222,143.856,161.636,143.856z"/>
	<path class="st0" d="M310.092,251.176c17.335-7.485,29.74-20.749,33.035-30.47l12.742-50.851c1.491-4.4,0.481-8.928-2.604-11.693
		c-3.086-2.765-7.71-3.278-11.95-1.354l-44.808,20.468c-7.14,3.262-18.424,11.3-22.552,22.2l-16.766,43.277
		c-0.4-0.04-0.786-0.12-1.194-0.12c-0.409,0-0.794,0.071-1.194,0.12l-16.758-43.277c-4.127-10.9-15.411-18.938-22.56-22.2
		l-44.808-20.468c-4.239-1.924-8.863-1.411-11.949,1.354c-3.086,2.765-4.088,7.293-2.596,11.693l12.742,50.851
		c3.294,9.721,15.692,22.985,33.035,30.47c15.932,6.868,31.352,10.587,42.821,12.606v57.919l-6.684-17.262
		c-4.127-10.899-15.411-18.938-22.56-22.2l-44.808-20.468c-4.239-1.924-8.863-1.411-11.949,1.354
		c-3.086,2.765-4.088,7.293-2.596,11.693l12.742,50.851c3.294,9.722,15.692,22.985,33.035,30.47
		c15.932,6.868,31.352,10.595,42.821,12.606v57.92l-6.684-17.264c-4.127-10.899-15.411-18.938-22.56-22.199l-44.808-20.469
		c-4.239-1.923-8.863-1.41-11.949,1.355c-3.086,2.765-4.088,7.292-2.596,11.693l12.742,50.851
		c3.294,9.72,15.692,22.984,33.035,30.47c15.932,6.868,31.352,10.587,42.821,12.606v27.024c0,6.226,5.04,11.268,11.268,11.268
		c6.227,0,11.268-5.041,11.268-11.268v-27.024c11.468-2.02,26.887-5.738,42.828-12.606c17.335-7.486,29.74-20.75,33.035-30.47
		l12.742-50.851c1.491-4.4,0.481-8.928-2.604-11.693c-3.086-2.765-7.71-3.278-11.95-1.355l-44.808,20.469
		c-7.14,3.261-18.424,11.3-22.552,22.199l-6.692,17.279v-57.936c11.468-2.011,26.887-5.738,42.828-12.606
		c17.335-7.485,29.74-20.749,33.035-30.47l12.742-50.851c1.491-4.4,0.481-8.928-2.604-11.693c-3.086-2.765-7.71-3.278-11.95-1.354
		l-44.808,20.468c-7.14,3.262-18.424,11.301-22.552,22.2l-6.692,17.287v-57.944C278.732,261.762,294.151,258.044,310.092,251.176z"
		/>
	<path class="st0" d="M350.356,86.033c-3.422,0-6.195,2.781-6.195,6.195v45.425c0,3.422,2.773,6.203,6.195,6.203
		c3.414,0,6.195-2.78,6.195-6.203V92.228C356.551,88.814,353.77,86.033,350.356,86.033z"/>
	<path class="st0" d="M255.715,57.816c3.422,0,6.195-2.773,6.195-6.195V6.195c0-3.422-2.773-6.195-6.195-6.195
		c-3.414,0-6.194,2.773-6.194,6.195V51.62C249.52,55.042,252.301,57.816,255.715,57.816z"/>
	<path class="st0" d="M204.985,104.715c3.422,0,6.195-2.773,6.195-6.195V53.095c0-3.422-2.773-6.195-6.195-6.195
		c-3.414,0-6.195,2.773-6.195,6.195V98.52C198.79,101.942,201.571,104.715,204.985,104.715z"/>
	<path class="st0" d="M307.399,104.715c3.422,0,6.195-2.773,6.195-6.195V53.095c0-3.422-2.773-6.195-6.195-6.195
		c-3.414,0-6.195,2.773-6.195,6.195V98.52C301.204,101.942,303.985,104.715,307.399,104.715z"/>
	<path class="st0" d="M245.553,181.291c2.124,3.647,5.906,5.882,9.961,5.882c4.063-0.008,7.83-2.236,9.962-5.882l25.093-43.036
		c4.256-7.301,4.256-16.509,0-23.811l-25.093-43.028c-2.132-3.654-5.899-5.882-9.962-5.891c-4.055,0-7.837,2.236-9.961,5.891
		l-25.093,43.021c-4.255,7.309-4.255,16.517,0,23.826L245.553,181.291z"/>
</g>
</svg>