<?xml version="1.0" encoding="utf-8"?>

<!DOCTYPE svg PUBLIC "-//W3C//DTD SVG 1.1//EN" "http://www.w3.org/Graphics/SVG/1.1/DTD/svg11.dtd">

<svg height="800px" width="800px" version="1.1" id="_x32_" xmlns="http://www.w3.org/2000/svg" xmlns:xlink="http://www.w3.org/1999/xlink" 
	 viewBox="0 0 512 512"  xml:space="preserve">
<style type="text/css">
	.st0{fill:#000000;}
</style>
<g>
	<path class="st0" d="M340.049,31.89v42.634l-71.536,41.532V0h-25.02v116.056l-71.536-41.532V31.89H146.93v318.694l96.564,56.064
		v98.706V512h25.02v-6.645v-98.706l96.556-56.064V31.89H340.049z M243.494,377.708l-71.536-41.532V277.9l71.536,41.54V377.708z
		 M243.494,290.499l-71.536-41.54v-58.277l71.536,41.54V290.499z M243.494,203.282l-71.536-41.54v-58.277l71.536,41.532V203.282z
		 M340.049,336.177l-71.536,41.532v-58.269l71.536-41.54V336.177z M340.049,248.959l-71.536,41.54v-58.277l71.536-41.54V248.959z
		 M340.049,161.742l-71.536,41.54v-58.285l71.536-41.532V161.742z"/>
</g>
</svg>