<?xml version="1.0" encoding="utf-8"?>

<!DOCTYPE svg PUBLIC "-//W3C//DTD SVG 1.1//EN" "http://www.w3.org/Graphics/SVG/1.1/DTD/svg11.dtd">

<svg version="1.1" id="_x32_" xmlns="http://www.w3.org/2000/svg" xmlns:xlink="http://www.w3.org/1999/xlink" 
	 width="800px" height="800px" viewBox="0 0 512 512"  xml:space="preserve">
<style type="text/css">
<![CDATA[
	.st0{fill:#000000;}
]]>
</style>
<g>
	<path class="st0" d="M473.472,266.477l38.172-98.609c0.844-2.203,0.141-4.688-1.719-6.109c-1.875-1.438-4.453-1.453-6.344-0.063
		l-99.094,73.094c-21.328-2.516-44.391-53.469-145.922-78.75l29.672-4.234c4.734-0.672,8.891-3.438,11.359-7.547
		c2.453-4.094,2.922-9.078,1.297-13.563l-14.922-41.031c-1.828-5.016-6.047-8.781-11.234-10.016s-10.641,0.219-14.531,3.875
		l-67.922,63.938C82.394,149.867,0.003,238.32,0.003,266.477c3.734,23.609,48.891,77.875,117.25,104.25
		c7.141-9.969,12.906-19.594,17.516-28.766c13.453-26.828,17.234-49.875,17.234-65.734c0-6.391-0.625-11.609-1.422-15.266
		c-1.281-6.047,2.563-11.984,8.609-13.266c6.047-1.297,11.984,2.563,13.281,8.594c1.156,5.453,1.891,12.109,1.891,19.938
		c0,19.344-4.578,45.813-19.609,75.766c-4.219,8.422-9.313,17.125-15.328,26.016c23.5,6.406,49.203,9.297,76.484,6.703l20.25,39.453
		c2.047,4,5.688,6.938,10.031,8.094c4.344,1.141,8.969,0.406,12.75-2.063l15.453-10.109c4.266-2.781,6.906-7.422,7.172-12.484
		c0.234-5.063-1.938-9.953-5.891-13.141l-20.703-16.672c104.594-24.938,127.953-77.078,149.516-79.625l99.094,73.094
		c1.891,1.391,4.469,1.375,6.344-0.047c1.859-1.422,2.563-3.922,1.719-6.109L473.472,266.477z M76.425,273.945
		c-9.266,0-16.781-7.531-16.781-16.781c0-9.266,7.516-16.781,16.781-16.781s16.781,7.516,16.781,16.781
		C93.206,266.414,85.69,273.945,76.425,273.945z"/>
</g>
</svg>