<?xml version="1.0" encoding="utf-8"?>

<!DOCTYPE svg PUBLIC "-//W3C//DTD SVG 1.1//EN" "http://www.w3.org/Graphics/SVG/1.1/DTD/svg11.dtd">

<svg height="800px" width="800px" version="1.1" id="_x32_" xmlns="http://www.w3.org/2000/svg" xmlns:xlink="http://www.w3.org/1999/xlink" 
	 viewBox="0 0 512 512"  xml:space="preserve">
<style type="text/css">
	.st0{fill:#000000;}
</style>
<g>
	<path class="st0" d="M411.113,185.916c-40.945,0-70.184,17.544-71.647,54.094c-0.648,16.14-2.242,58.267,52.641,68.723
		C453.511,320.43,512,318.968,512,280.956C512,242.935,452.049,185.916,411.113,185.916z"/>
	<path class="st0" d="M180.09,237.087c7.31-16.082,10.234-13.159,10.234-35.089c0-14.398-7.31-43.868-40.936-38.02
		c-4.131,0.715-8.32,2.358-12.501,4.649c-16.353-20.731-36.394-62.136-38.677-68.985c-2.924-8.772-40.937,14.628-58.489,17.552
		c-17.545,2.924-32.164-1.462-38.013,1.462c-5.848,2.924,4.386,17.544,14.62,19.006c10.234,1.462,29.241-11.696,29.241-11.696
		l46.793-16.082c0,0,19.696,39.351,36.812,63.745c-27.014,19.795-51.433,61.996-51.433,61.996s-24.863,19.006-16.082,21.93
		c8.772,2.924,26.316-4.386,26.316-4.386S172.78,253.169,180.09,237.087z"/>
	<path class="st0" d="M454.686,396.644c-0.058,0-7.023-2.58-15.499-5.56c-8.304-2.867-17.897-6.087-24.271-7.721
		c-0.468-0.403-1.462-1.462-2.522-3.039c-2.398-3.393-5.322-9.068-8.18-15.327c-4.271-9.47-8.485-20.526-11.524-29.125
		c-1.52-4.328-2.809-8.074-3.688-10.703c-0.403-1.289-0.764-2.341-0.994-3.039c-0.23-0.706-0.345-1.051-0.345-1.051
		c-0.936-2.99-3.573-5.093-6.735-5.322c0,0-10.176-0.706-21.462-1.642c-5.668-0.469-11.573-0.936-16.608-1.405
		c-4.041-0.403-7.606-0.764-9.708-1.051c-0.468-0.526-1.347-1.52-2.284-2.809c-2.513-3.507-5.79-9.068-9.06-15.318
		c-2.398-4.452-4.854-9.24-7.137-13.98c-0.115-0.057-0.238-0.057-0.353-0.115c-5.322-1.642-11.876-3.63-18.948-4.977
		c2.111,4.51,4.509,9.422,6.965,14.448c4.033,8.247,8.419,16.551,12.452,23.162c2.045,3.278,3.975,6.144,6.02,8.542
		c1.002,1.224,1.996,2.276,3.277,3.327c1.232,0.936,2.752,2.053,5.38,2.522c2.637,0.468,6.842,0.87,11.992,1.396
		c10.94,1.06,25.732,2.168,33.396,2.751c1.987,6.087,5.733,16.961,10.176,28.074c3.393,8.428,7.08,16.969,10.94,23.869
		c1.93,3.45,3.861,6.546,6.02,9.183c1.052,1.281,2.226,2.513,3.565,3.564c1.347,1.109,2.982,2.102,5.15,2.686
		c5.322,1.346,15.212,4.624,23.516,7.49c4.147,1.462,7.95,2.801,10.76,3.802c2.743,0.994,4.444,1.635,4.444,1.635
		c3.918,1.462,8.304-0.584,9.766-4.502C460.648,402.492,458.604,398.106,454.686,396.644z"/>
	<path class="st0" d="M259.631,274.812l-0.765,33.224l-41.872,6.308c-3.096,0.477-5.618,2.818-6.316,5.856l-16.493,72.994
		l-23.334,6.136c-4.098,1.109-6.497,5.265-5.438,9.298c1.108,4.098,5.257,6.497,9.298,5.438l27.778-7.311
		c2.752-0.755,4.855-2.924,5.495-5.667l16.386-72.468l43.105-6.489c3.68-0.583,6.431-3.688,6.489-7.368l0.879-41.642
		c-1.175,0.057-2.341,0.23-3.45,0.345C267.409,274.056,263.49,274.525,259.631,274.812z"/>
	<path class="st0" d="M220.92,298.673c2.39-0.412,4.502-2.046,5.553-4.272l9.412-20.057c-5.438-0.641-10.522-1.692-15.318-3.154
		l-6.201,13.216l-53.166,9.528c-2.341,0.41-4.386,1.93-5.438,4.098l-39.54,79.014L82.71,387.748c-3.976,1.29-6.201,5.56-4.912,9.593
		c1.289,3.976,5.553,6.201,9.593,4.912l36.55-11.696c1.938-0.649,3.507-1.988,4.444-3.86l39.244-78.489L220.92,298.673z"/>
	<path class="st0" d="M330.694,266.327c-2.924-13.158-1.462-33.626-1.462-33.626l-32.172-11.696c0,0-13.159,1.462-24.854-19.007
		c-11.697-20.468-48.247-35.096-68.723-19.006c-5.741,4.518-6.02,29.216-7.31,39.475c-2.924,23.393,23.393,43.86,73.109,36.55
		C301.24,254.319,332.312,273.605,330.694,266.327z"/>
</g>
</svg>