<?xml version="1.0" encoding="utf-8"?>

<!DOCTYPE svg PUBLIC "-//W3C//DTD SVG 1.1//EN" "http://www.w3.org/Graphics/SVG/1.1/DTD/svg11.dtd">

<svg version="1.1" id="_x32_" xmlns="http://www.w3.org/2000/svg" xmlns:xlink="http://www.w3.org/1999/xlink" 
	 width="800px" height="800px" viewBox="0 0 512 512"  xml:space="preserve">
<style type="text/css">
<![CDATA[
	.st0{fill:#000000;}
]]>
</style>
<g>
	<path class="st0" d="M422.453,159.248c-27.703-27.656-59.484-41.672-94.484-41.672c-18.281,0-34.719,3.828-48,7.5V79.279
		c0-13.25-10.719-23.984-23.969-23.984s-23.969,10.734-23.969,23.984v45.797c-13.281-3.672-29.719-7.5-48-7.5
		c-35,0-66.781,14.016-94.484,41.672C57.5,191.232,39.563,251.232,43.875,312.091c4.922,69.813,37.844,130.906,92.703,172.046
		c24.656,18.484,51.766,27.859,80.594,27.859c16.828,0,30.313-3.203,38.359-5.125c0.156-0.047,0.313-0.078,0.469-0.109
		c0.156,0.031,0.313,0.063,0.453,0.109c8.063,1.922,21.547,5.125,38.391,5.125c28.813,0,55.922-9.375,80.594-27.859
		c54.844-41.141,87.766-102.234,92.688-172.031C472.438,251.232,454.5,191.248,422.453,159.248z M404.359,307.591
		c-2.547,36.094-16.297,87.156-67.297,125.39c-13.531,10.156-27.344,15.078-42.234,15.078c-9.313,0-17.203-1.875-23.547-3.391
		c-5.313-1.266-9.891-2.359-15.281-2.359s-9.969,1.094-15.281,2.359c-6.344,1.516-14.234,3.391-23.547,3.391
		c-14.891,0-28.703-4.922-42.234-15.078c-51-38.234-64.75-89.296-67.297-125.39c-3.297-46.656,11.141-87.172,27.078-103.094
		c20.641-20.609,38.031-22.984,49.313-22.984c13.281,0,26.156,3.75,38.609,7.375c11.469,3.328,22.297,6.484,33.359,6.484
		s21.891-3.156,33.359-6.484c12.453-3.625,25.328-7.375,38.609-7.375c11.281,0,28.672,2.375,49.313,22.984
		C393.234,220.419,407.656,260.935,404.359,307.591z"/>
	<path class="st0" d="M371.094,77.544c24.125-19.516,34.719-48.359,28.688-71.781c-21.656-10.781-52.063-6.438-76.188,13.109
		c-24.141,19.516-34.734,48.359-28.703,71.797C316.547,101.451,346.969,97.091,371.094,77.544z"/>
</g>
</svg>