<?xml version="1.0" encoding="utf-8"?>

<!DOCTYPE svg PUBLIC "-//W3C//DTD SVG 1.1//EN" "http://www.w3.org/Graphics/SVG/1.1/DTD/svg11.dtd">

<svg height="800px" width="800px" version="1.1" id="_x32_" xmlns="http://www.w3.org/2000/svg" xmlns:xlink="http://www.w3.org/1999/xlink" 
	 viewBox="0 0 512 512"  xml:space="preserve">
<style type="text/css">
	.st0{fill:#000000;}
</style>
<g>
	<path class="st0" d="M256.004,93.461c-27.626,0-57.125,40.488-63.74,87.694c-10.621,75.819,2.126,173.467,63.74,242.514
		c61.608-69.048,74.354-166.695,63.733-242.514C313.122,133.949,283.623,93.461,256.004,93.461z M259.982,369.296
		c0,2.201-1.785,3.986-3.978,3.986c-2.2,0-3.986-1.784-3.986-3.986V117.544c0-2.194,1.785-3.979,3.986-3.979
		c2.193,0,3.978,1.785,3.978,3.979V369.296z"/>
	<path class="st0" d="M134.17,149.802c8.08-10.13,16.8-19.287,25.978-27.415c-20.139,6.888-39.59,18.817-57.173,32.872
		c-23.45,18.708-43.54,41.102-57.656,59.802c-9.395,12.454-16.167,23.314-19.423,30.092c-0.954,1.982-3.338,2.814-5.314,1.86
		c-1.983-0.954-2.814-3.331-1.86-5.321c3.651-7.562,10.6-18.646,20.241-31.428c9.64-12.767,21.944-27.162,36.223-41.053
		c27.619-26.816,62.569-51.839,100.168-59.047c12.427-9.02,25.487-16.241,38.826-21.426C71.704,80.121,2.044,210.198,0,275.736
		c27.422-9.994,58.208-23.62,88.13-39.623C99.323,203.2,114.754,174.117,134.17,149.802z"/>
	<path class="st0" d="M124.115,251.196c13.231-25.092,30.085-51.654,48.732-73.251c4.244-4.905,8.584-9.538,12.992-13.857
		c7.46-30.624,23.279-56.396,41.892-69.94c-69.327,21.058-142.653,103.07-150.733,255.118
		c36.578-11.983,73.966-38.587,105.366-71.772c-4.237-31.482-4.217-64.462,0.436-97.668c0.062-0.442,0.15-0.878,0.212-1.328
		c-7.481,8.23-14.763,17.393-21.658,27.081c-16.875,23.667-31.543,50.318-41.926,73.271c-6.928,15.288-11.956,28.961-14.477,38.853
		c-0.545,2.126-2.711,3.413-4.844,2.875c-2.126-0.538-3.42-2.711-2.875-4.844C101.292,299.853,110.878,276.308,124.115,251.196z"/>
	<path class="st0" d="M436.815,169.212c14.279,13.891,26.583,28.286,36.223,41.053c9.64,12.781,16.59,23.865,20.241,31.428
		c0.954,1.99,0.123,4.367-1.867,5.321c-1.969,0.954-4.353,0.122-5.307-1.86c-3.256-6.779-10.028-17.638-19.423-30.092
		c-14.116-18.7-34.207-41.094-57.656-59.802c-17.584-14.055-37.034-25.984-57.173-32.872c9.177,8.128,17.898,17.284,25.978,27.415
		c19.416,24.315,34.847,53.398,46.04,86.311c29.921,16.003,60.708,29.629,88.13,39.623c-2.044-65.538-71.704-195.615-214.18-186.997
		c13.339,5.185,26.4,12.406,38.826,21.426C374.246,117.373,409.196,142.396,436.815,169.212z"/>
	<path class="st0" d="M284.269,94.148c18.613,13.544,34.432,39.316,41.892,69.94c4.408,4.319,8.748,8.952,12.992,13.857
		c18.647,21.596,35.501,48.159,48.732,73.251c13.237,25.112,22.823,48.657,26.883,64.538c0.545,2.132-0.749,4.306-2.875,4.844
		c-2.132,0.538-4.306-0.749-4.844-2.875c-2.521-9.892-7.549-23.565-14.477-38.853c-10.383-22.953-25.051-49.604-41.926-73.271
		c-6.895-9.688-14.177-18.851-21.658-27.081c0.062,0.45,0.15,0.886,0.212,1.328c4.653,33.206,4.673,66.186,0.436,97.668
		c31.4,33.185,68.781,59.789,105.366,71.772C426.922,197.219,353.596,115.206,284.269,94.148z"/>
</g>
</svg>