<?xml version="1.0" encoding="utf-8"?>

<!DOCTYPE svg PUBLIC "-//W3C//DTD SVG 1.1//EN" "http://www.w3.org/Graphics/SVG/1.1/DTD/svg11.dtd">

<svg height="800px" width="800px" version="1.1" id="_x32_" xmlns="http://www.w3.org/2000/svg" xmlns:xlink="http://www.w3.org/1999/xlink" 
	 viewBox="0 0 512 512"  xml:space="preserve">
<style type="text/css">
	.st0{fill:#000000;}
</style>
<g>
	<path class="st0" d="M304.925,113.578V0h-97.823v113.578c0,20.764-18.983,31.158-18.983,31.158h135.752
		C323.872,144.736,304.925,134.342,304.925,113.578z"/>
	<path class="st0" d="M207.102,398.431V512h97.823V398.431c0-20.754,18.946-31.149,18.946-31.149H188.12
		C188.12,367.282,207.102,377.677,207.102,398.431z"/>
	<path class="st0" d="M323.872,168.076H188.12c0,0,18.983,10.395,18.983,31.149v113.569c0,20.754-18.983,31.15-18.983,31.15h135.752
		c0,0-18.946-10.396-18.946-31.15V199.224C304.925,178.47,323.872,168.076,323.872,168.076z M239.852,314.764
		c0,3.888-3.173,7.033-7.041,7.033c-3.896,0-7.06-3.146-7.06-7.033V199.722c0-3.896,3.164-7.041,7.06-7.041
		c3.868,0,7.041,3.145,7.041,7.041V314.764z"/>
	<path class="st0" d="M125.325,291.678c-1.338-5.026-6.5-7.972-11.516-6.635l-38.543,10.314c-5.017,1.338-7.973,6.499-6.644,11.525
		c1.337,5.017,6.481,7.972,11.498,6.635l38.57-10.341C123.679,301.838,126.662,296.695,125.325,291.678z"/>
	<path class="st0" d="M386.694,221.633c1.364,5.017,6.499,7.972,11.516,6.635l38.544-10.296c5.025-1.365,7.982-6.527,6.643-11.516
		c-1.338-5.026-6.481-8-11.497-6.644l-38.562,10.322C388.339,211.473,385.356,216.634,386.694,221.633z"/>
	<path class="st0" d="M147.045,352.34l-28.22,28.194c-3.661,3.688-3.679,9.618,0,13.306c3.688,3.652,9.618,3.652,13.279,0
		l28.22-28.22c3.679-3.689,3.679-9.618,0.027-13.279C156.664,348.661,150.734,348.661,147.045,352.34z"/>
	<path class="st0" d="M364.954,160.97l28.239-28.22c3.688-3.661,3.688-9.6,0-13.26c-3.661-3.706-9.618-3.706-13.279,0
		l-28.238,28.202c-3.661,3.679-3.661,9.618,0.018,13.279C355.355,164.622,361.294,164.65,364.954,160.97z"/>
	<path class="st0" d="M364.954,352.313c-3.688-3.679-9.6-3.679-13.26,0c-3.678,3.661-3.678,9.617,0,13.306l28.202,28.193
		c3.678,3.678,9.618,3.678,13.297,0.027c3.634-3.688,3.661-9.618-0.018-13.306L364.954,352.313z"/>
	<path class="st0" d="M147.045,160.97c3.689,3.652,9.618,3.652,13.279,0c3.661-3.661,3.679-9.6,0-13.279l-28.22-28.247
		c-3.679-3.661-9.591-3.661-13.279,0c-3.661,3.661-3.661,9.617,0,13.306L147.045,160.97z"/>
	<path class="st0" d="M436.754,295.357l-38.561-10.341c-5.017-1.338-10.16,1.636-11.498,6.635
		c-1.356,5.017,1.618,10.16,6.643,11.525l38.562,10.313c4.998,1.365,10.16-1.618,11.497-6.607
		C444.708,301.838,441.752,296.695,436.754,295.357z"/>
	<path class="st0" d="M75.266,217.945l38.543,10.296c4.999,1.364,10.151-1.591,11.489-6.608c1.338-5.026-1.618-10.16-6.607-11.498
		l-38.589-10.368c-4.998-1.311-10.142,1.645-11.498,6.662C67.266,211.428,70.221,216.589,75.266,217.945z"/>
</g>
</svg>