<?xml version="1.0" encoding="utf-8"?>

<!DOCTYPE svg PUBLIC "-//W3C//DTD SVG 1.1//EN" "http://www.w3.org/Graphics/SVG/1.1/DTD/svg11.dtd">

<svg version="1.1" id="_x32_" xmlns="http://www.w3.org/2000/svg" xmlns:xlink="http://www.w3.org/1999/xlink" 
	 width="800px" height="800px" viewBox="0 0 512 512"  xml:space="preserve">
<style type="text/css">
<![CDATA[
	.st0{fill:#000000;}
]]>
</style>
<g>
	<path class="st0" d="M487.212,381.438c-71,8.859-161.718-62.219-161.718-194.875c0-101.594-58.031-124.406-58.031-124.406V16.531
		h-22.922v45.625c0,0-58.047,26.969-58.047,124.406c0,132.656-90.703,203.734-161.703,194.875
		c-33.188-4.125-24.891,8.297-20.75,24.875c4.156,16.594,42.391,48.813,103.656,37.313c47.031-8.813,81.469-40.531,102.031-74.5
		c-5.547,49.063-6,126.344,46.281,126.344c52.266,0,51.813-77.313,46.266-126.344c20.547,33.969,55,65.688,102.016,74.5
		c61.281,11.5,99.5-20.719,103.656-37.313C512.103,389.734,520.399,377.313,487.212,381.438z"/>
</g>
</svg>