<?xml version="1.0" encoding="utf-8"?>

<!DOCTYPE svg PUBLIC "-//W3C//DTD SVG 1.1//EN" "http://www.w3.org/Graphics/SVG/1.1/DTD/svg11.dtd">

<svg height="800px" width="800px" version="1.1" id="_x32_" xmlns="http://www.w3.org/2000/svg" xmlns:xlink="http://www.w3.org/1999/xlink" 
	 viewBox="0 0 512 512"  xml:space="preserve">
<style type="text/css">
	.st0{fill:#000000;}
</style>
<g>
	<path class="st0" d="M372.084,106.642c9.277,64.285-67.483,102.934-76.724,103.858c-15.122,1.498-2.291-20.244,0.566-43.667
		c2.857-23.414-22.813,21.742-39.922,21.742c-17.108,0-42.778-45.156-39.93-21.742c2.858,23.423,15.688,45.165,0.566,43.667
		c-9.242-0.923-86.001-39.573-76.724-103.858C79.202,131.363-9.325,265.891,0.797,276.762
		c10.122,10.889,57.334-15.827,88.527,53.424c28.293-26.785,62.865-20.845,80.104,40.558c56.507-40.035,74.747,16.62,86.576,34.616
		c11.821-17.996,30.061-74.65,86.568-34.616c17.238-61.402,51.812-67.343,80.112-40.558c31.194-69.251,78.406-42.535,88.519-53.424
		C521.324,265.891,432.797,131.363,372.084,106.642z"/>
</g>
</svg>