<?xml version="1.0" encoding="utf-8"?>

<!DOCTYPE svg PUBLIC "-//W3C//DTD SVG 1.1//EN" "http://www.w3.org/Graphics/SVG/1.1/DTD/svg11.dtd">

<svg height="800px" width="800px" version="1.1" id="_x32_" xmlns="http://www.w3.org/2000/svg" xmlns:xlink="http://www.w3.org/1999/xlink" 
	 viewBox="0 0 512 512"  xml:space="preserve">
<style type="text/css">
	.st0{fill:#000000;}
</style>
<g>
	<path class="st0" d="M457.242,71.075c-23.626,83.731-98.746,64.409-100.894,122.373c-1.804,48.383-72.988,103.035-72.988,103.035
		l-2.148-25.759c0,0,21.469-34.353,2.148-34.353c-19.322,0-27.36,25.767-27.36,25.767s-8.039-25.767-27.36-25.767
		c-19.322,0,2.148,34.353,2.148,34.353l-2.148,25.759c0,0-71.184-54.652-72.996-103.035c-2.14-57.964-77.276-38.642-100.886-122.373
		C42.75,28.489-18.221,182.713,5.381,206.323c53.674,25.758,55.814,55.814,47.228,72.988c-8.578,17.172,21.478,15.015,45.088,17.172
		c23.61,2.157,32.197,38.642,32.197,47.221c0,8.594,10.726-6.446,34.353-8.578c23.594-2.148,24.014,70.41,32.188,62.253
		c23.61-23.619,36.747,21.824,45.089,34.344c4.288,6.438,14.476,21.47,14.476,15.024c0,6.446,10.188-8.586,14.476-15.024
		c8.342-12.521,21.462-57.963,45.088-34.344c8.174,8.156,8.578-64.402,32.197-62.253c23.618,2.132,34.344,17.172,34.344,8.578
		c0-8.578,8.586-45.064,32.197-47.221c23.61-2.157,53.666,0,45.08-17.172c-8.595-17.173-6.438-47.229,47.237-72.988
		C530.221,182.713,469.249,28.489,457.242,71.075z"/>
</g>
</svg>