<?xml version="1.0" encoding="utf-8"?>

<!DOCTYPE svg PUBLIC "-//W3C//DTD SVG 1.1//EN" "http://www.w3.org/Graphics/SVG/1.1/DTD/svg11.dtd">

<svg height="800px" width="800px" version="1.1" id="_x32_" xmlns="http://www.w3.org/2000/svg" xmlns:xlink="http://www.w3.org/1999/xlink" 
	 viewBox="0 0 512 512"  xml:space="preserve">
<style type="text/css">
	.st0{fill:#000000;}
</style>
<g>
	<path class="st0" d="M437.506,127.916c16.857-10.821,28.094-29.6,28.094-51.116c0-33.58-27.221-60.8-60.8-60.8
		c-17.9,0-33.832,7.873-44.958,20.189C336.705,23.537,304.863,16,256,16s-80.705,7.537-103.842,20.189
		C141.032,23.873,125.099,16,107.2,16c-33.579,0-60.8,27.22-60.8,60.8c0,21.516,11.237,40.295,28.094,51.116
		C42.694,175.989,0,244.327,0,320.389C0,414.053,97.105,496,256,496s256-81.947,256-175.61
		C512,244.327,469.304,175.989,437.506,127.916z M168.932,259.989c-13.4,0-24.264-10.863-24.264-24.264
		c0-13.399,10.863-24.263,24.264-24.263c13.399,0,24.262,10.864,24.262,24.263C193.194,249.126,182.331,259.989,168.932,259.989z
		 M246.152,419.747h-35.058l-11.69-65.095h46.747V419.747z M200.532,297.6c0-14.138,24.837-25.6,55.474-25.6
		c30.626,0,55.463,11.462,55.463,25.6c0,14.137-24.837,25.6-55.463,25.6C225.368,323.2,200.532,311.737,200.532,297.6z
		 M300.894,419.747h-35.058v-65.095h46.742L300.894,419.747z M343.068,259.989c-13.399,0-24.263-10.863-24.263-24.264
		c0-13.399,10.864-24.263,24.263-24.263c13.4,0,24.264,10.864,24.264,24.263C367.332,249.126,356.468,259.989,343.068,259.989z"/>
</g>
</svg>