<?xml version="1.0" encoding="utf-8"?>

<!DOCTYPE svg PUBLIC "-//W3C//DTD SVG 1.1//EN" "http://www.w3.org/Graphics/SVG/1.1/DTD/svg11.dtd">

<svg version="1.1" id="_x32_" xmlns="http://www.w3.org/2000/svg" xmlns:xlink="http://www.w3.org/1999/xlink" 
	 width="800px" height="800px" viewBox="0 0 512 512"  xml:space="preserve">
<style type="text/css">
<![CDATA[
	.st0{fill:#000000;}
]]>
</style>
<g>
	<path class="st0" d="M124.166,227.493c42.125-16.906,62.547-64.766,45.641-106.891c-1.094-2.719-4.844-3.328-8.109-0.953
		c-7.703,5.578-3.969,15.641-12.781,19.188c-8.828,3.531-13.688-8.578-22.5-5.031c-8.828,3.547-3.969,15.656-12.781,19.188
		c-8.813,3.547-13.672-8.563-22.5-5.016c-6.203,2.5-5.703,9.188-7.891,14.203c-1.953-5.109-4.172-10.203-0.688-15.609
		c6.688-10.359,20.906-1.203,27.578-11.547c6.688-10.359-7.531-19.531-0.859-29.891s20.891-1.188,27.578-11.547
		c6.672-10.359-7.547-19.531-0.859-29.891c6.672-10.344,18.578-3.109,27.578-11.531c3.813-3.594,3.969-8.516,0.766-10.578
		C114.869,9.696,48.916,23.931,17.025,73.399c-31.906,49.469-17.656,115.422,31.813,147.313l0.109-0.531
		C70.603,234.165,98.431,237.821,124.166,227.493z"/>
	<path class="st0" d="M242.103,236.228c8.578,0,15.563-6.953,15.563-15.547s-6.985-15.563-15.563-15.563
		c-8.594,0-15.563,6.969-15.563,15.563S233.509,236.228,242.103,236.228z"/>
	<path class="st0" d="M323.541,236.228c8.594,0,15.547-6.953,15.547-15.547s-6.953-15.563-15.547-15.563
		s-15.563,6.969-15.563,15.563S314.947,236.228,323.541,236.228z"/>
	<path class="st0" d="M98.556,242.368c-5.703,0-11.344-0.531-16.891-1.563l17.906,47.5c3.031-6.484,7.438-13.375,13.969-20
		l-9.828-26.078C101.994,242.321,100.275,242.368,98.556,242.368z"/>
	<path class="st0" d="M148.228,413.587l-22.266,60.281c-1.922,5.219,0.75,11.016,5.969,12.938c5.203,1.922,11-0.75,12.922-5.953
		l18.094-49.016C157.759,427.118,152.65,421.149,148.228,413.587z"/>
	<path class="st0" d="M180.056,386.353l-25.859,17.063c2.328,4.813,4.953,8.938,7.703,12.5c1.578,2.047,3.203,3.906,4.859,5.609
		l1.109-3.016l27.078-17.859c-1.938-1.297-3.813-2.703-5.594-4.219C185.837,393.446,182.728,390.04,180.056,386.353z"/>
	<path class="st0" d="M122.025,370.884l-40.5,55.25c-3.297,4.484-2.328,10.781,2.156,14.063c4.484,3.297,10.781,2.328,14.063-2.156
		l34.484-47.016C128.322,385.509,124.712,378.868,122.025,370.884z"/>
	<path class="st0" d="M139.228,383.415l33.469-10.891c-1.266-3.469-2.219-7.063-2.813-10.734l-1.453-9.047l-37.688,12.281
		c0.891,3.063,1.938,5.891,3.094,8.531C135.447,377.212,137.275,380.493,139.228,383.415z"/>
	<path class="st0" d="M119.322,336.274l46.813,2.109l-3.25-20.297l-54-2.422c0.828,2.688,1.781,5.219,2.813,7.563
		C113.916,328.274,116.556,332.571,119.322,336.274z"/>
	<path class="st0" d="M99.4,319.04l-40.266,50.125c-3.469,4.344-2.781,10.672,1.547,14.156c4.344,3.484,10.672,2.781,14.156-1.547
		l34.203-42.594C105.291,333.618,101.869,326.978,99.4,319.04z"/>
	<path class="st0" d="M420.697,413.587c-4.422,7.563-9.531,13.531-14.719,18.25l18.094,49.016c1.922,5.203,7.719,7.875,12.922,5.953
		c5.219-1.922,7.891-7.719,5.969-12.938L420.697,413.587z"/>
	<path class="st0" d="M414.729,403.415l-25.875-17.063c-2.656,3.688-5.766,7.094-9.266,10.078c-1.797,1.516-3.672,2.922-5.609,4.219
		l27.078,17.859l1.109,3.016c1.656-1.703,3.281-3.563,4.859-5.609C409.775,412.353,412.4,408.228,414.729,403.415z"/>
	<path class="st0" d="M446.9,370.884c-2.688,7.984-6.313,14.625-10.203,20.141l34.469,47.016c3.297,4.484,9.594,5.453,14.063,2.156
		c4.5-3.281,5.469-9.578,2.172-14.063L446.9,370.884z"/>
	<path class="st0" d="M399.041,361.79c-0.578,3.672-1.547,7.266-2.828,10.734l33.484,10.891c1.953-2.922,3.781-6.203,5.391-9.859
		c1.156-2.641,2.203-5.469,3.094-8.531l-37.688-12.281L399.041,361.79z"/>
	<path class="st0" d="M457.229,323.228c1.031-2.344,1.969-4.875,2.813-7.563l-54,2.422l-3.25,20.297l46.797-2.109
		C452.369,332.571,455.01,328.274,457.229,323.228z"/>
	<path class="st0" d="M509.775,369.165l-40.25-50.125c-2.469,7.938-5.906,14.578-9.641,20.141l34.203,42.594
		c3.484,4.328,9.828,5.031,14.156,1.547S513.26,373.509,509.775,369.165z"/>
	<path class="st0" d="M165.353,276.415l-43.281-4.813l-14.703,18.625l54.672,6.063C161.853,289.478,162.994,282.728,165.353,276.415
		z"/>
	<path class="st0" d="M397.369,301.915c2.078-12.984-1.641-26.234-10.188-36.25c-8.531-10.016-21.031-15.781-34.188-15.781H214.509
		c-13.156,0-25.656,5.766-34.188,15.781c-8.547,10.016-12.266,23.266-10.188,36.25l8.781,54.844
		c3.5,21.797,22.297,37.828,44.375,37.828h120.922c22.078,0,40.875-16.031,44.375-37.828L397.369,301.915z"/>
	<path class="st0" d="M464.135,240.337l-10.203,3.922v-1.328c-3.188,0.594-6.422,0.906-9.688,0.953l-5.328,17.75
		c5.563,3.688,11.234,8.531,16.547,14.922l11.156-37.25C465.807,239.665,464.979,240.009,464.135,240.337z"/>
	<path class="st0" d="M444.4,279.259c-4.688-4.875-9.563-8.5-14.281-11.281l-23.625,3.688c2.344,6.313,3.594,13.016,3.625,19.813
		l39.453-6.156C447.885,283.118,446.15,281.087,444.4,279.259z"/>
	<path class="st0" d="M415.697,227.962c1.625,1.063,3.281,2.016,4.969,2.875c0.547,0.281,1.125,0.531,1.688,0.797
		c1.156,0.531,2.313,1.031,3.484,1.484c0.656,0.234,1.313,0.469,1.984,0.688c1.141,0.375,2.281,0.703,3.438,0.984
		c0.656,0.172,1.297,0.344,1.953,0.469c1.328,0.281,2.656,0.484,3.984,0.656c0.469,0.063,0.938,0.156,1.406,0.188
		c1.797,0.172,3.609,0.25,5.406,0.234c0.422-0.016,0.844-0.063,1.266-0.078c1.391-0.047,2.781-0.141,4.141-0.313
		c0.625-0.063,1.219-0.172,1.828-0.266c1.203-0.203,2.406-0.438,3.594-0.719c0.609-0.125,1.219-0.281,1.813-0.453
		c1.25-0.328,2.469-0.734,3.688-1.172c0.375-0.125,0.734-0.203,1.094-0.344v0.281c33.438-12.859,50.125-50.391,37.266-83.844
		c-12.875-33.453-50.406-50.125-83.844-37.266c-2.172,0.828-2.688,3.781-0.859,6.391c4.313,6.141,12.297,3.313,15,10.313
		c2.688,7-6.922,10.703-4.219,17.703c2.688,7,12.297,3.313,15,10.313c2.688,7-6.922,10.703-4.234,17.703
		c2.703,7,12.313,3.297,15,10.313c0.359,0.906,0.484,1.75,0.469,2.547c0,0.297-0.094,0.563-0.141,0.844
		c-0.063,0.5-0.125,1-0.281,1.469c-0.125,0.344-0.297,0.656-0.453,0.984c-0.188,0.406-0.359,0.797-0.578,1.188
		c-0.281,0.5-0.594,0.984-0.922,1.469c-0.141,0.234-0.281,0.484-0.438,0.719c-0.063-0.281-0.125-0.547-0.156-0.844
		c-0.063-0.422-0.094-0.859-0.125-1.297c0-0.141-0.016-0.281-0.031-0.422c-0.016-0.688-0.047-1.391-0.109-2.063
		c-0.016-0.063-0.016-0.109-0.031-0.172c-0.047-0.563-0.141-1.109-0.297-1.641c-0.031-0.078-0.063-0.156-0.094-0.219
		c-0.141-0.422-0.328-0.828-0.578-1.219c-0.078-0.125-0.156-0.234-0.234-0.359c-0.344-0.438-0.734-0.859-1.281-1.219
		c-4.813-3.203-9.219,3.406-14.031,0.203c-4.828-3.203-0.422-9.813-5.234-13.016c-4.813-3.219-9.219,3.391-14.031,0.188
		c-4.828-3.203-1.344-8.75-5.234-13.016c-1.656-1.813-3.969-1.922-4.969-0.438C386.463,181.587,392.697,212.649,415.697,227.962z"/>
</g>
</svg>