<?xml version="1.0" encoding="utf-8"?>

<!DOCTYPE svg PUBLIC "-//W3C//DTD SVG 1.1//EN" "http://www.w3.org/Graphics/SVG/1.1/DTD/svg11.dtd">

<svg version="1.1" id="_x32_" xmlns="http://www.w3.org/2000/svg" xmlns:xlink="http://www.w3.org/1999/xlink" 
	 width="800px" height="800px" viewBox="0 0 512 512"  xml:space="preserve">
<style type="text/css">
<![CDATA[
	.st0{fill:#000000;}
]]>
</style>
<g>
	<path class="st0" d="M509.305,219.094c-4.281,4.625-20.266,15.656-50.047,13.219c-13.156-1.063-25.203,2.156-35.266,6.969
		c-30.875-39.969-48.766-63.094-75.75-63.094c-25.125,0-71.297-1.813-84.25-7.219c-22.641-9.438-65.781-69.188-118.828-55.094
		c-15.453,4.125-28.453,9.688-39.313,16.594c-0.766-2.938-1.172-5.875-1.172-8.75c0-4.063,0.781-8.031,2.531-11.938
		c1.781-3.906,4.547-7.781,8.797-11.594c5.125-4.594,10.141-7.625,15.094-9.531c4.969-1.938,9.906-2.75,15-2.75
		c7.719,0,15.797,1.938,24.109,5.094c12.516,4.656,25.406,11.969,38.266,18.25c6.406,3.125,12.797,6,19.25,8.156
		c15.313,18.063,67.625,13.125,68.344-20.156c-9.891,7.844-18.688,5.281-18.688,5.281s6.531-1.844,10.141-6.906
		c-3.797,2.594-32.719-17.938-61.344,6.906c-0.359,0.031-0.672,0.063-1,0.063c-11.422-4.688-23.844-11.781-36.797-17.906
		c-6.688-3.156-13.547-6.063-20.594-8.219c-7.031-2.156-14.281-3.531-21.688-3.531c-6.5,0-13.125,1.094-19.656,3.625
		c-6.531,2.5-12.938,6.438-19.109,11.969c-5.438,4.875-9.391,10.25-11.938,15.906c-2.563,5.688-3.688,11.563-3.672,17.281
		c0,5.844,1.156,11.531,3.094,16.875c-28.984,24.531-38.016,61.813-35.016,108.875c5.25,82.156-17.984,93.281-17.984,93.281
		l-36.031,60.5c0,0-7.547,14.031-5.406,17.281c2.172,3.25,35.672,12.75,35.672,1.094c0-18.375,39.234-64.844,39.234-64.844
		s31.344-14.75,48.625-50.406h11.516l-5.031,35.281c0,0-29.188,46.344-30.797,49.656c-1.625,3.281-4.859,17.344,25.375,16.25
		c9.75,0,9.016-18.375,9.016-18.375l27.375-41.031l15.125-32.406l72.375,34.563c0,0-7.203,20.156-10.453,32.063
		c-1.406,5.188-12.797,51.5-12.797,51.5s-1.25,7.188,23.609,7.188c11.875,0,12.969-6.5,11.875-9.719
		c-1.078-3.25-2.156-11.906-2.156-11.906l17.281-31.688l36.734-28.781l27.734,32.406l-37.813,28.063c0,0-0.359,5.406,18.359,18.375
		c6.484-1.063,12.969-17.281,12.969-17.281s38.359-14.313,42.125-23.781c2.875-7.188-11.516-47.875-11.516-47.875
		s2.875-12.969,10.078-17.281c4.719-2.844,43.766,57.625,43.766,57.625c0.906,1.25,2.609,1.594,3.938,0.813l29.406-16.594
		c0.875-0.5,1.453-1.406,1.547-2.406l6.531-70.5c0,0,15.844-2.875,25.563-22.188l-30.188-7.969c2.766-2.406,5.75-4.781,8.844-6.844
		c10.516-7,25.297-8.344,37.641-18.781C514.273,232.313,513.32,216.188,509.305,219.094z"/>
</g>
</svg>