<?xml version="1.0" encoding="utf-8"?>

<!DOCTYPE svg PUBLIC "-//W3C//DTD SVG 1.1//EN" "http://www.w3.org/Graphics/SVG/1.1/DTD/svg11.dtd">

<svg height="800px" width="800px" version="1.1" id="_x32_" xmlns="http://www.w3.org/2000/svg" xmlns:xlink="http://www.w3.org/1999/xlink" 
	 viewBox="0 0 512 512"  xml:space="preserve">
<style type="text/css">
	.st0{fill:#000000;}
</style>
<g>
	<path class="st0" d="M282.615,179.018c-4.845-3.397-10.745-5.38-17.014-5.38h-19.187c-4.189,0-8.203,0.879-11.848,2.478
		c-5.469,2.39-10.106,6.364-13.383,11.377c-3.278,5.013-5.213,11.113-5.213,17.588v44.268c0,4.308,0.864,8.474,2.415,12.24
		c2.302,5.652,6.156,10.441,11.017,13.83c4.845,3.382,10.745,5.373,17.013,5.373h19.187c4.174,0,8.187-0.88,11.849-2.479
		c5.468-2.39,10.089-6.363,13.383-11.384c3.278-5.004,5.196-11.096,5.196-17.58v-44.268c0-4.317-0.847-8.474-2.398-12.24
		C291.313,187.189,287.475,182.408,282.615,179.018z M280.248,249.349c-0.016,2.118-0.416,4.085-1.151,5.884
		c-1.103,2.71-2.974,5.036-5.309,6.675c-2.35,1.632-5.132,2.575-8.187,2.575h-19.187c-2.047,0-3.949-0.424-5.692-1.183
		c-2.622-1.144-4.877-3.07-6.46-5.492c-1.583-2.431-2.494-5.293-2.494-8.458v-44.268c0-2.111,0.4-4.085,1.136-5.892
		c1.119-2.702,2.974-5.029,5.324-6.667c2.35-1.632,5.132-2.575,8.187-2.575h19.187c2.031,0,3.934,0.416,5.692,1.183
		c2.623,1.144,4.877,3.078,6.46,5.492c1.583,2.43,2.478,5.292,2.494,8.458V249.349z"/>
	<path class="st0" d="M275.163,401.912c0.016,8.994-1.023,15.358-2.43,19.62c-1.039,3.206-2.27,5.236-3.421,6.595
		c-0.88,1.023-1.728,1.711-2.655,2.247c-1.374,0.799-2.941,1.287-4.764,1.542c-1.822,0.265-3.822,0.296-5.884,0.288
		c-2.447,0.008-4.813-0.04-6.876-0.456c-1.551-0.312-2.894-0.799-4.094-1.559c-0.896-0.576-1.758-1.312-2.638-2.414
		c-1.311-1.655-2.686-4.229-3.773-8.411c-1.071-4.149-1.79-9.873-1.79-17.452c0-19.211,0-47.16,0-70.306c0-23.153,0-41.501,0-41.501
		h-15.782c0,0,0,73.376,0,111.806c0,10.242,1.119,18.292,3.262,24.832c1.583,4.9,3.805,8.954,6.523,12.16
		c2.047,2.39,4.365,4.268,6.732,5.652c3.566,2.094,7.18,3.054,10.361,3.51c3.182,0.456,5.98,0.431,8.076,0.44
		c2.462-0.008,5.948,0.032,9.881-0.752c2.942-0.592,6.204-1.671,9.338-3.677c2.367-1.487,4.621-3.486,6.604-5.996
		c2.974-3.766,5.26-8.594,6.795-14.511c1.519-5.94,2.335-13.015,2.335-21.658c0-19.211,0-47.16,0-70.306c0-23.153,0-41.501,0-41.501
		h-15.798C275.163,290.106,275.163,363.482,275.163,401.912z"/>
	<path class="st0" d="M233.718,161.71c0.96,2.558,1.679,4.581,2.159,5.964c0.24,0.688,0.416,1.223,0.527,1.567
		c0.064,0.176,0.112,0.304,0.144,0.392l0.032,0.088v0.016l13.895-4.788c-0.064-0.2-4.174-12.951-12.072-30.34
		c-6.412-14.062-15.254-31.171-26.574-47.177c1.342-2.686,2.126-5.732,2.126-8.962c0-10.737-8.426-19.443-18.82-19.443
		c-10.393,0-18.819,8.706-18.819,19.443s8.426,19.443,18.819,19.443c1.871,0,3.662-0.304,5.373-0.816
		c10.28,14.686,18.611,30.708,24.624,43.948C228.906,149.366,231.8,156.593,233.718,161.71z"/>
	<path class="st0" d="M335.699,78.468c0-10.737-8.426-19.443-18.819-19.443c-10.409,0-18.82,8.706-18.82,19.443
		c0,3.23,0.767,6.276,2.126,8.962c-11.32,16.006-20.178,33.115-26.59,47.186c-7.883,17.381-12.008,30.132-12.072,30.332
		l13.911,4.788c0.048-0.183,4.061-12.503,11.624-29.076c5.996-13.176,14.263-29.021,24.449-43.564
		c1.694,0.512,3.501,0.816,5.372,0.816C327.273,97.912,335.699,89.205,335.699,78.468z"/>
	<path class="st0" d="M113.142,96.361c-8.091-5.956-16.133-11.001-24.064-14.655c-3.965-1.83-7.898-3.302-11.8-4.349
		c-3.917-1.031-7.834-1.631-11.704-1.631c-0.847,0-1.726,0.04-2.59,0.096c-3.949,0.287-7.867,1.302-11.672,2.894
		c-6.684,2.79-13.096,7.315-19.076,13.167c-8.954,8.818-16.933,20.715-22.769,34.953C3.646,141.044,0,157.608,0,175.652
		c0,13.864,2.158,28.581,7.1,43.692c4.988,15.222,10.361,28.205,17.365,39.238c5.26,8.267,11.496,15.406,18.995,21.282
		c5.628,4.421,11.96,8.106,19.075,11.136c10.649,4.541,22.993,7.604,37.623,9.562c14.647,1.959,31.58,2.798,51.503,2.806
		c14.518,0,30.603-0.448,48.544-1.28v-16.308c-18.052,0.831-34.17,1.287-48.544,1.287c-23.089,0-41.749-1.191-56.811-3.79
		c-11.289-1.942-20.562-4.677-28.269-8.203c-5.788-2.662-10.698-5.756-15.046-9.394c-6.524-5.436-11.816-12.112-16.581-20.587
		c-4.749-8.458-8.906-18.716-12.904-30.972c-2.35-7.195-3.965-14.238-4.973-21.098c34.426,8.722,84.169-48.241,87.239-83.138
		c7.962,5.9,16.213,12.912,24.352,20.458c18.803,17.477,36.919,37.768,50.303,53.646c6.684,7.938,12.184,14.774,16.006,19.618
		c1.903,2.415,3.389,4.35,4.413,5.653c0.32,0.408,0.576,0.767,0.816,1.055v-25.759c-9.61-11.808-23.697-28.485-39.671-45.218
		C145.729,123.838,129.339,108.281,113.142,96.361z"/>
	<path class="st0" d="M148.654,420.54c-11.592,7.475-24.24,13.127-37.4,15.254c-3.614,0.591-7.163,0.863-10.601,0.863
		c-15.974,0-29.997-6.012-40.054-15.862c-5.021-4.932-9.05-10.824-11.832-17.46c-2.782-6.636-4.333-14.03-4.333-22.049
		c0-9.418,2.142-19.7,7.099-30.572c4.957-10.866,12.76-22.306,24.064-33.834l-11.081-11.617
		c-12.44,12.688-21.393,25.655-27.262,38.495c-5.852,12.839-8.602,25.551-8.602,37.528c0,10.193,1.983,19.851,5.628,28.525
		c5.468,13.048,14.63,23.873,26.127,31.404c11.496,7.516,25.375,11.76,40.246,11.76c4.285,0,8.65-0.352,13.063-1.072
		c15.958-2.614,30.588-9.322,43.587-17.716c17.46-11.305,32.027-25.719,42.9-38.199v-25.447c-4.925,6.58-11.96,15.302-20.627,24.224
		C170.752,403.831,160.247,413.088,148.654,420.54z"/>
	<path class="st0" d="M118.258,387.09c0-12.025-9.098-21.762-20.339-21.762c-11.225,0-20.322,9.737-20.322,21.762
		c0,12.016,9.098,21.762,20.322,21.762C109.16,408.852,118.258,399.106,118.258,387.09z"/>
	<path class="st0" d="M506.308,137.374c-5.373-17.469-14.008-32.155-24.001-42.884c-5.02-5.372-10.377-9.761-15.958-12.967
		c-5.564-3.206-11.384-5.269-17.332-5.7c-0.863-0.056-1.711-0.096-2.574-0.096c-3.886,0-7.787,0.6-11.704,1.631
		c-7.339,1.951-14.758,5.42-22.274,9.905c-13.144,7.843-26.623,18.852-39.686,30.972c-19.523,18.173-37.991,38.854-51.63,55.06
		c-3.438,4.07-6.588,7.867-9.338,11.257v25.767c4.141-5.42,25.855-33.482,52.269-60.936c13.927-14.502,29.181-28.829,43.62-39.494
		c3.07,34.897,52.813,91.86,87.223,83.138c-1.008,6.86-2.623,13.902-4.957,21.098c-4.749,14.526-9.706,26.231-15.622,35.497
		c-4.429,6.963-9.37,12.567-15.334,17.252c-4.493,3.518-9.578,6.508-15.542,9.058c-8.97,3.838-19.971,6.644-33.642,8.466
		c-13.671,1.83-29.996,2.67-49.487,2.67c-14.375,0-30.476-0.456-48.528-1.287v16.308c17.924,0.832,34.025,1.28,48.528,1.28
		c23.617-0.008,43.044-1.191,59.401-4.006c12.28-2.126,22.849-5.156,32.091-9.393c6.924-3.174,13.095-7.036,18.564-11.609
		c8.218-6.843,14.822-15.254,20.322-25.087c5.501-9.834,9.994-21.082,14.199-33.93c4.941-15.11,7.083-29.828,7.083-43.692
		C512,161.91,509.905,149.014,506.308,137.374z"/>
	<path class="st0" d="M447.498,305.263l-11.097,11.617c5.644,5.764,10.441,11.505,14.422,17.157
		c3.982,5.668,7.163,11.248,9.642,16.677c4.972,10.872,7.1,21.154,7.115,30.572c-0.016,8.019-1.567,15.414-4.349,22.049
		c-4.158,9.961-11.145,18.252-20.084,24.096c-8.938,5.844-19.811,9.226-31.802,9.226c-3.438,0-6.972-0.272-10.602-0.863
		c-13.238-2.151-25.982-7.875-37.655-15.438c-17.508-11.304-32.49-26.718-42.963-39.27c-3.214-3.862-5.996-7.435-8.314-10.545
		v25.439c2.766,3.182,5.788,6.516,9.05,9.882c9.466,9.778,20.85,19.907,33.85,28.326c12.983,8.394,27.63,15.102,43.572,17.716
		c4.429,0.72,8.794,1.072,13.064,1.072c19.843,0,37.863-7.539,50.926-20.354c6.523-6.396,11.816-14.119,15.446-22.81
		c3.646-8.674,5.644-18.332,5.644-28.525c0-11.976-2.75-24.688-8.618-37.528C468.892,330.918,459.938,317.951,447.498,305.263z"/>
	<path class="st0" d="M434.403,387.09c0-12.025-9.099-21.762-20.323-21.762c-11.224,0-20.323,9.737-20.323,21.762
		c0,12.016,9.099,21.762,20.323,21.762C425.304,408.852,434.403,399.106,434.403,387.09z"/>
</g>
</svg>