<?xml version="1.0" encoding="utf-8"?>

<!DOCTYPE svg PUBLIC "-//W3C//DTD SVG 1.1//EN" "http://www.w3.org/Graphics/SVG/1.1/DTD/svg11.dtd">

<svg height="800px" width="800px" version="1.1" id="_x32_" xmlns="http://www.w3.org/2000/svg" xmlns:xlink="http://www.w3.org/1999/xlink" 
	 viewBox="0 0 512 512"  xml:space="preserve">
<style type="text/css">
	.st0{fill:#000000;}
</style>
<g>
	<path class="st0" d="M373.262,358.748c4.72-4.744,111.788-96.092,111.788-96.092s-7.713-3.262-19.564-9.198
		c-11.096-5.536-9.198-12.142-8.006-17.788c1.168-5.632,18.688-73.255,18.688-73.255s-54.58,12.166-62.878,13.93
		c-8.298,1.789-10.974-1.167-12.166-3.845c-1.168-2.676-8.297-33.799-8.297-33.799s-45.967,55.165-55.773,64.047
		c-9.758,8.905-15.111-2.361-13.335-10.962c1.777-8.603,21.949-126.352,21.949-126.352s-22.242,11.57-31.438,16.62
		c-9.198,5.037-15.525,1.775-20.27-6.132C289.214,68.012,255.999,0,255.999,0s-33.215,68.012-37.959,75.921
		c-4.746,7.908-11.072,11.17-20.246,6.132c-9.223-5.05-31.44-16.62-31.44-16.62s20.148,117.749,21.925,126.352
		c1.8,8.601-3.553,19.868-13.334,10.962c-9.783-8.882-55.748-64.047-55.748-64.047s-7.13,31.123-8.322,33.799
		c-1.168,2.678-3.845,5.634-12.142,3.845c-8.298-1.764-62.878-13.93-62.878-13.93s17.496,67.622,18.688,73.255
		c1.192,5.646,3.066,12.252-8.006,17.788c-11.874,5.937-19.588,9.198-19.588,9.198s107.066,91.348,111.812,96.092
		c4.744,4.746,5.645,8.907,3.552,15.124c-2.068,6.23-22.77,31.438-22.77,31.438s108.516-11.813,114.891-9.477
		c6.35,2.324,11.558,1.74,13.31,18.506c1.704,16.777-3.309,97.662-3.309,97.662h11.041h1.04h11.072c0,0-5.044-80.884-3.292-97.662
		c1.698-16.766,6.917-16.182,13.268-18.506c6.363-2.336,114.89,9.477,114.89,9.477s-20.702-25.209-22.771-31.438
		C367.617,367.654,368.493,363.493,373.262,358.748z"/>
</g>
</svg>