<?xml version="1.0" encoding="utf-8"?>

<!DOCTYPE svg PUBLIC "-//W3C//DTD SVG 1.1//EN" "http://www.w3.org/Graphics/SVG/1.1/DTD/svg11.dtd">

<svg version="1.1" id="_x32_" xmlns="http://www.w3.org/2000/svg" xmlns:xlink="http://www.w3.org/1999/xlink" 
	 width="800px" height="800px" viewBox="0 0 512 512"  xml:space="preserve">
<style type="text/css">
<![CDATA[
	.st0{fill:#000000;}
]]>
</style>
<g>
	<path class="st0" d="M298.161,421.799v79.094c0,6.125-4.984,11.109-11.109,11.109h-62.094c-6.141,0-11.109-4.984-11.109-11.109
		v-79.094H298.161z"/>
	<path class="st0" d="M253.051,2.752c1.625-3.672,4.281-3.672,5.906,0l6.266,14.219c1.609,3.672,6.203,6.328,10.203,5.891
		l15.453-1.672c3.984-0.438,5.313,1.859,2.938,5.094l-9.172,12.547c-2.375,3.234-2.375,8.547,0,11.781l9.172,12.531
		c2.375,3.25,1.047,5.547-2.938,5.109l-15.453-1.688c-4-0.422-8.594,2.234-10.203,5.906l-6.266,14.219
		c-1.625,3.688-4.281,3.688-5.906,0l-6.281-14.219c-1.609-3.672-6.203-6.328-10.203-5.906l-15.438,1.688
		c-4,0.438-5.328-1.859-2.953-5.109l9.172-12.531c2.375-3.234,2.375-8.547,0-11.781l-9.172-12.547
		c-2.375-3.234-1.047-5.531,2.953-5.094l15.438,1.672c4,0.438,8.594-2.219,10.203-5.891L253.051,2.752z"/>
	<path class="st0" d="M410.379,372.971l-33.734-38.578c-2.406-2.75-3.594-6.453-3.266-10.172c0.328-3.734,2.125-7.141,4.969-9.375
		l10.609-8.344c2.938-2.297,4.75-5.828,5-9.672s-1.109-7.609-3.688-10.297l-45.469-47.313c-2.688-2.797-4.016-6.734-3.672-10.703
		c0.391-3.969,2.438-7.547,5.578-9.719l2.719-1.891c3.219-2.203,5.281-5.891,5.594-9.953c0.297-4.047-1.172-8.031-4-10.781
		l-67.75-65.688l-18.953-18.375c-4.719-4.563-11.922-4.563-16.641,0l-86.703,84.063c-2.828,2.75-4.297,6.734-3.984,10.781
		c0.234,3.047,1.438,5.875,3.391,8.031c0.656,0.734,1.391,1.375,2.188,1.922l2.719,1.891c0.797,0.547,1.5,1.172,2.156,1.875
		c1.922,2.109,3.125,4.875,3.422,7.844c0.359,3.969-0.984,7.906-3.656,10.703l-45.469,47.313c-2.578,2.688-3.938,6.438-3.688,10.297
		c0.188,2.875,1.25,5.594,3.016,7.734c0.578,0.703,1.234,1.359,1.969,1.938l6.688,5.266l3.938,3.078
		c2.828,2.234,4.641,5.641,4.969,9.375c0.313,3.719-0.859,7.422-3.266,10.172l-33.766,38.578c-3.016,3.484-4.063,8.438-2.719,12.969
		c0.719,2.359,2.047,4.422,3.781,5.984c1.547,1.406,3.422,2.422,5.516,2.891h295.656c4.375-0.969,7.922-4.359,9.266-8.875
		C414.473,381.408,413.442,376.455,410.379,372.971z"/>
</g>
</svg>