<?xml version="1.0" encoding="utf-8"?>

<!DOCTYPE svg PUBLIC "-//W3C//DTD SVG 1.1//EN" "http://www.w3.org/Graphics/SVG/1.1/DTD/svg11.dtd">

<svg height="800px" width="800px" version="1.1" id="_x32_" xmlns="http://www.w3.org/2000/svg" xmlns:xlink="http://www.w3.org/1999/xlink" 
	 viewBox="0 0 512 512"  xml:space="preserve">
<style type="text/css">
	.st0{fill:#000000;}
</style>
<g>
	<path class="st0" d="M177.5,56.677c7.59,11.688,18.433,23.404,30.231,30.525c7.884,4.778,16.044,7.516,24.112,7.516
		c5.312-0.008,10.622-1.176,15.897-3.336c5.274-2.16,10.493-5.32,15.446-9.188c9.896-7.719,18.653-18.259,24.828-28.421
		c4.126-6.744,7.094-13.342,8.619-18.525c0.864-2.95,1.232-5.44,1.222-6.965c0-0.239-0.027-0.386-0.027-0.57
		c-4.356-0.9-8.169-2.6-11.293-4.649c-3.51-2.316-6.286-4.888-8.968-7.296c-5.385-4.815-10.2-9.087-19.48-12.23
		C251.884,1.471,243.568,0,231.843,0c-15.4,0.01-24.865,2.518-31.518,5.642c-6.652,3.152-10.769,7.048-15.556,11.339
		c-3.17,2.83-6.671,5.9-11.395,8.233c-2.241,1.103-4.796,1.911-7.516,2.462c-0.01,0.185-0.027,0.368-0.027,0.607
		c-0.037,2.306,0.864,6.689,2.875,11.716C170.701,45.062,173.696,50.86,177.5,56.677z M266.797,31.628
		c4.733,0,8.574,3.841,8.574,8.582c0,4.741-3.841,8.582-8.574,8.582c-4.75,0-8.582-3.841-8.582-8.582
		C258.214,35.469,262.047,31.628,266.797,31.628z M199.811,31.628c4.742,0,8.582,3.841,8.582,8.582c0,4.741-3.841,8.582-8.582,8.582
		c-4.741,0-8.582-3.841-8.582-8.582C191.229,35.469,195.069,31.628,199.811,31.628z"/>
	<path class="st0" d="M150.191,217.729c11.926,10.19,22.678,18.202,31.132,26.501c5.605,5.54,10.31,11.311,13.102,18.267
		c1.6,3.96,2.481,8.279,2.472,12.782c0,1.12-0.054,2.251-0.156,3.4c-0.469,4.732-0.515,13.121-5.008,22.825
		c-2.582,5.624-6.598,11.615-12.579,17.982l83.012-0.008c-0.129-0.258-0.294-0.515-0.404-0.79
		c-1.948-4.411-2.684-9.042-2.684-13.526c0.009-5.724,1.176-11.266,2.794-16.476c1.635-5.21,3.758-10.08,5.89-14.38
		c3.822-7.737,8.555-14.399,13.985-20.73c5.431-6.321,11.56-12.35,18.433-19.039c13.728-13.36,30.544-29.422,51.347-55.61
		c11.964-15.07,17.514-33.944,17.523-53.516c0.009-21.3-6.68-43.224-18.387-60.794c-9.456-14.187-22.062-25.37-36.865-31.701
		c-0.588,4.163-1.856,8.48-3.64,13.066c-2.472,6.276-5.963,12.957-10.31,19.628c-8.72,13.305-20.794,26.629-35.441,35.542
		c-6.982,4.245-14.637,7.443-22.751,8.94c-0.175,14.372-1.296,62.383,19.673,72.858c-12.286,7.37-28.255-14.739-28.255-14.739
		s-15.97,22.108-28.247,14.739c20.712-10.356,20.5-57.412,20.39-72.371c-5.357-0.68-10.54-2.086-15.465-4.099
		c-6.928-2.848-13.37-6.799-19.296-11.43c-11.827-9.262-21.612-21.134-28.725-32.786c-4.723-7.782-8.27-15.437-10.328-22.439
		c-0.69-2.37-1.195-4.667-1.508-6.909c-14.812,6.33-27.419,17.514-36.874,31.701c-11.716,17.56-18.406,39.494-18.387,60.784
		c0.008,19.572,5.559,38.455,17.532,53.525C125.17,195.299,138.274,207.556,150.191,217.729z"/>
	<path class="st0" d="M425.056,377.807c-20.804,7.369-45.548,11.853-70.524,11.964c-2.674,10.227-8.132,19.296-15.557,26.372h19.481
		c11.963,0,23.036,3.786,32.142,10.172c15.492-4.576,28.834-14.141,39.475-25.839c10.071-11.036,17.633-23.909,22.246-35.459
		C444.426,369.904,435.219,374.205,425.056,377.807z"/>
	<path class="st0" d="M358.456,432.462H99.451c-11.008,0-20.896,4.438-28.118,11.651c-7.213,7.222-11.652,17.11-11.652,28.118
		s4.438,20.896,11.652,28.118C78.555,507.552,88.443,512,99.451,512h259.005c11.008,0,20.895-4.448,28.117-11.652
		c7.205-7.222,11.642-17.11,11.652-28.118c-0.01-11.008-4.447-20.895-11.652-28.118C379.351,436.9,369.464,432.462,358.456,432.462z
		"/>
	<path class="st0" d="M157.579,335.795c-11.008,0.01-20.896,4.448-28.126,11.652c-7.213,7.223-11.642,17.11-11.642,28.118
		c0,11.008,4.429,20.895,11.642,28.118c7.231,7.213,17.118,11.652,28.126,11.652h142.748c11.008,0,20.896-4.438,28.128-11.652
		c7.213-7.223,11.642-17.11,11.642-28.118c0-11.008-4.429-20.895-11.642-28.118c-7.232-7.204-17.12-11.642-28.128-11.652H157.579z"
		/>
</g>
</svg>