<?xml version="1.0" encoding="utf-8"?>

<!DOCTYPE svg PUBLIC "-//W3C//DTD SVG 1.1//EN" "http://www.w3.org/Graphics/SVG/1.1/DTD/svg11.dtd">

<svg height="800px" width="800px" version="1.1" id="_x32_" xmlns="http://www.w3.org/2000/svg" xmlns:xlink="http://www.w3.org/1999/xlink" 
	 viewBox="0 0 512 512"  xml:space="preserve">
<style type="text/css">
	.st0{fill:#000000;}
</style>
<g>
	<path class="st0" d="M467.202,189.321c21.36-22.395,31.444-51.156,31.461-77.804c0-10.585-1.596-20.876-4.831-30.374
		c-10.679-31.436-30.374-51.941-49.543-64.216c-9.601-6.16-19.082-10.344-27.45-13.018c-8.411-2.665-15.545-3.882-21.36-3.908
		c-2.406,0.026-4.554,0.147-7.263,0.984c-1.354,0.466-2.968,1.087-4.866,2.752c-0.932,0.837-1.915,1.993-2.674,3.511
		c-0.76,1.502-1.208,3.365-1.2,5.108c0,2.294,0.698,4.244,1.415,5.572l0.733,1.363l1.079,1.096
		c7.522,7.591,14.069,16.053,18.59,24.482c4.546,8.428,6.996,16.727,6.979,24.06c-0.044,6.495-1.708,12.301-5.944,18.202
		c-6.314,8.774-19.436,17.97-43.09,24.75c-23.581,6.797-57.277,11.102-103.239,11.085c-61.284,0.051-100.763-7.713-123.52-18.565
		c-11.409-5.4-18.552-11.404-22.805-17.271c-4.235-5.901-5.9-11.706-5.939-18.194c-0.022-7.341,2.424-15.64,6.97-24.068
		c4.521-8.428,11.077-16.891,18.59-24.482l1.079-1.088l0.729-1.354c0.733-1.363,1.424-3.296,1.42-5.59
		c0.012-1.734-0.436-3.589-1.195-5.099c-1.354-2.683-3.248-4.132-4.684-4.986c-2.221-1.277-3.886-1.622-5.474-1.915
		C119.591,0.086,118.095,0,116.52,0c-5.814,0.026-12.944,1.243-21.359,3.908c-12.54,4.011-27.632,11.404-41.774,23.81
		C39.261,40.106,26.178,57.592,18.172,81.143c-3.235,9.498-4.835,19.789-4.835,30.374c0.017,26.648,10.102,55.408,31.47,77.804
		c11.827,12.431,27.29,22.575,45.972,29.262L19.764,239.51l4.318,10.818c0.268,0.613,6.358,15.942,19.539,31.824
		c6.612,7.928,15.04,16.028,25.63,22.265c10.563,6.237,23.408,10.534,38.022,10.525c15.045,0.009,31.686-4.52,49.525-14.916
		l-10.662-18.323c-15.296,8.877-28.071,12.026-38.863,12.034c-10.49-0.018-19.367-2.96-27.268-7.592
		c-11.806-6.91-21.123-17.892-27.261-27.251c-1.384-2.105-2.562-4.072-3.632-5.926l88.419-26.061
		c1.544,0.034,3.002,0.198,4.572,0.198c73.219,0,113.898,0,113.898,0c0.03,0,10.171,0,29.49,0c19.324,0,47.8,0,84.411,0
		c1.571,0,3.028-0.164,4.572-0.198l88.406,26.061c-2.743,4.77-6.478,10.541-11.309,16.226c-5.452,6.444-12.164,12.672-19.946,17.166
		c-7.806,4.504-16.563,7.359-26.898,7.376c-10.783-0.009-23.559-3.157-38.854-12.034l-10.662,18.323
		c17.84,10.396,34.481,14.925,49.516,14.916c14.614,0.009,27.459-4.288,38.026-10.525c15.873-9.386,26.915-22.844,34.205-33.859
		c7.263-11.034,10.766-19.772,10.956-20.23l4.314-10.818l-71.006-20.928C439.907,211.896,455.366,201.752,467.202,189.321z
		 M285.491,205.901c-19.32,0-29.46,0-29.49,0c0,0-40.679,0-113.898,0c-38.272-0.069-64.592-13.147-81.97-31.228
		c-17.348-18.107-25.617-41.831-25.595-63.156c0-8.446,1.29-16.468,3.7-23.542c9.072-26.527,25.108-42.996,40.938-53.209
		c6.449-4.149,12.824-7.161,18.595-9.3c-2.057,3.055-4.011,6.16-5.736,9.36c-5.715,10.645-9.486,22.162-9.502,34.109
		c-0.039,10.482,3.11,21.248,9.989,30.651c10.356,14.174,28.067,25.086,54.383,32.669c26.398,7.574,61.818,11.896,109.097,11.913
		c63.039-0.051,104.999-7.625,132.587-20.609c13.776-6.513,24.034-14.536,30.891-23.973c6.884-9.412,10.034-20.169,9.99-30.659
		c-0.016-11.94-3.787-23.456-9.498-34.102c-1.709-3.166-3.632-6.237-5.668-9.256c9.308,3.45,20.152,9.144,30.323,18.081
		c11.62,10.223,22.334,24.405,29.141,44.324c2.406,7.074,3.7,15.096,3.7,23.542c0.018,21.324-8.247,45.056-25.596,63.156
		c-17.382,18.09-43.694,31.159-81.97,31.228C333.291,205.901,304.814,205.901,285.491,205.901z"/>
	<path class="st0" d="M349.345,367.892c-10.508,20.652-19.354,43.09-19.475,64.346c-0.009,10.749-2.19,19.41-5.84,26.579
		c-5.487,10.714-14.459,18.504-26.311,23.913c-11.814,5.383-26.407,8.075-41.719,8.066c-20.446,0.034-39.488-4.831-52.584-14.286
		c-6.586-4.736-11.775-10.525-15.442-17.693c-3.649-7.168-5.831-15.83-5.84-26.579c-0.121-21.256-8.968-43.694-19.475-64.346
		c-10.568-20.574-23.098-39.147-31.63-51.009l-17.21,12.388c8.14,11.301,20.165,29.167,29.977,48.31
		c9.882,19.074,17.254,39.631,17.133,54.658c-0.009,13.656,2.86,25.854,8.161,36.224c7.94,15.596,21.174,26.691,36.434,33.575
		c15.304,6.926,32.73,9.946,50.475,9.964c23.628-0.034,46.821-5.34,64.937-18.263c9.027-6.453,16.692-14.907,21.976-25.276
		c5.301-10.369,8.165-22.568,8.156-36.224c-0.112-15.028,7.255-35.585,17.133-54.658c9.817-19.142,21.842-37.009,29.977-48.31
		l-17.202-12.388C372.447,328.744,359.913,347.317,349.345,367.892z"/>
	<path class="st0" d="M202.721,329.116c0-7.601-6.159-6.108-13.764-6.108c-7.6,0-13.764-1.493-13.764,6.108
		c0,7.6,6.164,13.759,13.764,13.759C196.563,342.875,202.721,336.715,202.721,329.116z"/>
	<circle class="st0" cx="219.194" cy="448.396" r="12.073"/>
	<circle class="st0" cx="295.752" cy="448.396" r="12.073"/>
	<path class="st0" d="M325.987,342.875c7.605,0,13.768-6.16,13.768-13.759c0-7.601-6.163-6.108-13.768-6.108
		c-7.604,0-13.764-1.493-13.764,6.108C312.224,336.715,318.383,342.875,325.987,342.875z"/>
</g>
</svg>