<?xml version="1.0" encoding="utf-8"?>

<!DOCTYPE svg PUBLIC "-//W3C//DTD SVG 1.1//EN" "http://www.w3.org/Graphics/SVG/1.1/DTD/svg11.dtd">

<svg height="800px" width="800px" version="1.1" id="_x32_" xmlns="http://www.w3.org/2000/svg" xmlns:xlink="http://www.w3.org/1999/xlink" 
	 viewBox="0 0 512 512"  xml:space="preserve">
<style type="text/css">
	.st0{fill:#000000;}
</style>
<g>
	<path class="st0" d="M510.256,187.787c-2.16-7.414-6.118-13.725-11.079-18.567c-7.477-7.3-16.818-11.393-26.211-13.777
		c-9.43-2.386-19.109-3.114-28.034-3.124c-7.732,0-14.89,0.562-20.744,1.219h0.016c-4.732,0.531-9.07,1.426-12.788,2.103
		c-3.697,0.708-6.821,1.156-8.597,1.136l-0.557-0.042c-0.031-0.167-0.063-0.261-0.094-0.48c-2.63-18.598-4.03-36.864-9.06-55.494
		c-5.004-18.619-13.976-37.457-30.986-55.826c-8.07-8.83-17.973-13.454-27.476-13.403c-8.43-0.01-15.98,3.489-21.312,8.779
		c-5.337,5.279-8.763,12.517-8.784,20.504c-0.005,3.686,0.88,7.466,2.484,11.028l-0.067,0.031
		c4.992,13.434,7.794,25.784,7.768,35.719c0,5.935-0.948,10.955-2.754,15.141c-2.77,6.227-7.196,11.111-15.923,15.193
		c-8.695,4.019-21.816,6.685-40.06,6.664c-24.388,0.042-39.4-4.759-47.454-11.039c-4.082-3.155-6.697-6.623-8.529-10.819
		c-1.807-4.186-2.754-9.206-2.754-15.141c-0.026-9.935,2.77-22.285,7.768-35.719l-0.068-0.02c1.604-3.582,2.489-7.352,2.485-11.028
		c-0.021-7.997-3.448-15.235-8.784-20.514c-5.332-5.29-12.882-8.789-21.311-8.789c-9.502-0.042-19.406,4.571-27.476,13.412
		c-17.01,18.359-25.982,37.207-30.985,55.826c-5.035,18.63-6.431,36.896-9.06,55.494c-0.032,0.229-0.063,0.312-0.099,0.48
		l-0.552,0.042c-1.77,0.02-4.894-0.428-8.596-1.136c-3.718-0.687-8.055-1.572-12.793-2.103h0.01
		c-5.836-0.646-13.001-1.208-20.733-1.219c-11.892,0.031-25.143,1.25-37.338,6.134c-6.087,2.458-11.939,5.904-16.906,10.768
		c-4.962,4.842-8.919,11.153-11.08,18.567C0.563,191.806,0,196.014,0,200.282c0.099,18.276,9.836,37.583,27.684,53.817
		c16.844,15.245,41.243,27.617,72.728,33.24c0.114,0.489,0.223,0.896,0.344,1.458c1.874,8.664,4.102,25.242,8.247,44.591
		c6.285,29.115,16.896,65.167,39.16,94.835c11.142,14.798,25.31,27.981,43.201,37.364c17.879,9.404,39.378,14.902,64.636,14.892
		c37.978,0.083,67.422-12.58,88.905-31.667c32.281-28.669,47.173-70.136,55.613-104.562c4.186-17.234,6.706-32.854,8.654-44.225
		c0.912-5.353,1.708-9.748,2.4-12.674c31.496-5.624,55.9-17.994,72.744-33.25c17.848-16.234,27.58-35.541,27.684-53.817
		C512,196.014,511.438,191.806,510.256,187.787z M165.549,59.409c5.118-5.456,9.022-6.508,11.804-6.55c2.499,0,4.665,1,6.316,2.615
		c1.651,1.624,2.473,3.696,2.453,5.352l-0.625,2.572l-0.261,0.522l-0.198,0.541c-5.508,14.923-9.076,29.376-9.101,43.133
		c0,8.195,1.312,16.192,4.498,23.586c2.526,5.946,6.404,11.288,11.32,15.912c-7.967-0.167-16.605-0.292-24.993-0.396
		c-13.745-0.168-26.596-0.25-34.136-0.303c1.818-14.35,3.453-27.606,6.847-40.05C143.884,90.254,150.908,75.321,165.549,59.409z
		 M318.981,441.844c-16.234,10.59-36.442,17.276-62.98,17.307c-33.38-0.083-56.795-10.528-74.784-26.315
		c-12.834-11.267-22.712-25.689-30.455-41.195c0.901-4.78,3.015-9.133,6.436-13.392c6.935-8.612,19.78-16.308,36.791-21.514
		c16.974-5.258,37.921-8.122,60.576-8.122c30.204-0.031,57.394,5.144,76.138,14.1c9.383,4.456,16.584,9.809,21.234,15.536
		c4.483,5.581,6.706,11.33,6.893,17.994c-0.625,1.156-1.15,2.364-1.801,3.499C347.508,416.477,335.189,431.243,318.981,441.844z
		 M470.002,238.292c-14.417,13.058-36.708,24.524-67.495,29.033l-2.374,0.344l-1.994,1.333c-2.578,1.79-3.583,3.53-4.39,4.904
		c-1.431,2.708-2.014,4.927-2.702,7.571c-1.203,4.864-2.213,10.954-3.473,18.327c-3.228,19.193-8.054,46.892-18.27,73.634
		c-1.239-2.072-2.593-4.082-4.134-5.957c-10.201-12.444-25.977-21.139-44.992-27.054c-19.046-5.873-41.524-8.872-65.615-8.872
		c-32.12,0.02-61.362,5.28-83.464,15.746c-11.039,5.269-20.364,11.881-27.138,20.18c-0.822,1-1.468,2.124-2.207,3.177
		c-3.9-10.57-7.082-21.233-9.544-31.448c-1.562-6.426-2.837-12.549-3.988-18.442c6.936,1.916,14.099,2.937,21.363,2.937
		c20.879-0.011,42.372-7.331,61.09-19.443c18.708-12.132,34.692-29.126,44.258-48.954c5.878-12.204,8.32-24.596,8.315-36.312
		c-0.01-18.692-6.124-35.635-14.272-48.276c-1.229-1.906-2.582-3.509-3.9-5.207c3.54,0.198,7.086,0.406,10.924,0.406
		c26.914-0.042,46.606-4.947,60.424-15.433c6.856-5.227,11.97-11.913,15.141-19.306c3.186-7.394,4.499-15.392,4.499-23.586
		c-0.026-13.757-3.592-28.21-9.101-43.133l-0.204-0.541l-0.255-0.511l-0.625-2.593c-0.021-1.646,0.802-3.728,2.447-5.341
		c1.656-1.615,3.822-2.615,6.321-2.615c2.775,0.042,6.685,1.094,11.804,6.55c14.641,15.912,21.665,30.845,26.075,46.934
		c4.384,16.068,5.821,33.448,8.523,52.869c0.39,2.78,1.125,5.478,2.411,8.039c1.869,3.842,5.321,7.143,8.992,8.778
		c3.676,1.687,7.205,2.052,10.366,2.073c4.463-0.021,8.514-0.771,12.48-1.49c3.952-0.739,7.779-1.488,11.258-1.874l0.016-0.01
		c5.252-0.584,11.662-1.084,18.358-1.084c10.289-0.021,21.228,1.26,29.356,4.582c4.082,1.646,7.42,3.728,9.95,6.217
		c2.53,2.509,4.363,5.373,5.556,9.362c0.562,1.906,0.88,4.072,0.88,6.477C490.772,210.54,484.482,225.254,470.002,238.292z"/>
	<path class="st0" d="M207.474,389.839c-6.873,0-12.444,8.758-12.444,19.546c0,10.799,5.572,19.557,12.444,19.557
		c6.867,0,12.439-8.758,12.439-19.557C219.912,398.597,214.341,389.839,207.474,389.839z"/>
	<path class="st0" d="M287.449,389.839c-6.873,0-12.444,8.758-12.444,19.546c0,10.799,5.572,19.557,12.444,19.557
		c6.867,0,12.439-8.758,12.439-19.557C299.888,398.597,294.316,389.839,287.449,389.839z"/>
	<path class="st0" d="M316.774,229.898c-9.325,0-16.886,7.56-16.886,16.891c0,9.32,7.56,16.88,16.886,16.88
		c9.325,0,16.885-7.56,16.885-16.88C333.659,237.459,326.098,229.898,316.774,229.898z"/>
</g>
</svg>