<?xml version="1.0" encoding="utf-8"?>

<!DOCTYPE svg PUBLIC "-//W3C//DTD SVG 1.1//EN" "http://www.w3.org/Graphics/SVG/1.1/DTD/svg11.dtd">

<svg height="800px" width="800px" version="1.1" id="_x32_" xmlns="http://www.w3.org/2000/svg" xmlns:xlink="http://www.w3.org/1999/xlink" 
	 viewBox="0 0 512 512"  xml:space="preserve">
<style type="text/css">
	.st0{fill:#000000;}
</style>
<g>
	<path class="st0" d="M485.235,281.91l-44.273-25.356l-65.345,8.26c-1.168-4.886-2.55-9.608-4.173-14.099l46.634-18.049
		l27.349-47.596l-2.954-23.279c18.874-15.396,31.677-45.767,16.762-78.388c-18.024-39.422-54.964-47.27-54.964-47.27l2.07,70.755
		l-56.364-28.259c-5.169,72.541,40.787,95.467,69.029,93.252l1.031,8.098l-18.917,32.912l-40.512,15.688
		c-13.516-20.728-36.811-43.303-38.589-58.287c5.144-4.336,8.407-10.82,8.407-18.075c0-13.051-10.578-23.631-23.63-23.631
		s-23.64,10.58-23.64,23.631c0,6.475,2.611,12.34,6.818,16.607c-7.007,10.501-6.414,17.723-33.978,17.723
		c-27.555,0-26.97-7.222-33.977-17.723c4.216-4.267,6.826-10.132,6.826-16.607c0-13.051-10.588-23.631-23.648-23.631
		c-13.052,0-23.622,10.58-23.622,23.631c0,7.256,3.263,13.739,8.406,18.075c-1.777,14.984-25.073,37.558-38.588,58.287
		l-40.521-15.688l-18.9-32.912l1.022-8.098c28.242,2.215,74.198-20.711,69.021-93.252l-56.364,28.259l2.078-70.755
		c0,0-36.948,7.849-54.963,47.27c-14.924,32.62-2.113,62.992,16.752,78.388l-2.954,23.279l27.348,47.596l46.635,18.049
		c-1.606,4.491-2.998,9.213-4.174,14.099l-65.336-8.26L26.756,281.91L0,327.935l15.353,10.158l28.671-37.773l32.088-18.376
		l56.596,7.162c-0.293,4.259-0.404,8.518-0.301,12.786l-40.71,13.567L52.216,362.84l-6.414,60.279l18.195,2.868l11.42-52.628
		l30.672-36.811l29.478-9.832c2.216,9.223,5.634,17.929,10.45,25.64l-27.624,19.174l-11.867,51.546l15.903,52.791l17.774-4.808
		l-8.569-49.176l9.247-36.064l20.574-14.28c34.467,33.874,81.737,33.643,94.539,33.643c12.812,0,60.073,0.231,94.549-33.643
		l20.574,14.28l9.239,36.064l-8.56,49.176l17.774,4.808l15.903-52.791l-11.876-51.546l-27.632-19.174
		c4.826-7.711,8.244-16.418,10.458-25.64l29.479,9.832l30.68,36.811l11.412,52.628l18.195-2.868l-6.414-60.279l-39.482-47.381
		l-40.71-13.567c0.112-4.267-0.009-8.526-0.292-12.786l56.595-7.162l32.081,18.376l28.67,37.773L512,327.935L485.235,281.91z"/>
</g>
</svg>