<?xml version="1.0" encoding="utf-8"?>

<!DOCTYPE svg PUBLIC "-//W3C//DTD SVG 1.1//EN" "http://www.w3.org/Graphics/SVG/1.1/DTD/svg11.dtd">

<svg height="800px" width="800px" version="1.1" id="_x32_" xmlns="http://www.w3.org/2000/svg" xmlns:xlink="http://www.w3.org/1999/xlink" 
	 viewBox="0 0 512 512"  xml:space="preserve">
<style type="text/css">
	.st0{fill:#000000;}
</style>
<g>
	<path class="st0" d="M233.515,220.575c3.14-1.407,6.434-2.506,9.867-3.309v-64.838c0-6.968,5.645-12.62,12.62-12.62
		c6.96,0,12.62,5.652,12.62,12.62v64.838c3.743,0.874,7.331,2.119,10.748,3.719l86.916-119.647
		c8.134-25.023-5.567-51.918-30.59-60.045c-11.584-3.765-23.539-2.845-33.869,1.686c-3.882-21.806-22.92-38.362-45.824-38.362
		c-23.043,0-42.143,16.711-45.886,38.671c-10.424-5.011-22.703-6.194-34.565-2.335c-24.467,7.941-37.844,34.217-29.895,58.668
		L233.515,220.575z"/>
	<path class="st0" d="M200.805,277.024c-0.185-1.872-0.294-3.782-0.294-5.714c0-1.554,0.062-3.101,0.201-4.624l-61.737-20.058
		c-6.635-2.15-10.269-9.272-8.104-15.898c2.15-6.635,9.264-10.254,15.898-8.112l61.691,20.051c1.98-3.255,4.269-6.287,6.836-9.056
		l-86.946-119.67c-21.296-15.458-51.082-10.749-66.563,10.539c-7.145,9.844-9.976,21.512-8.862,32.74
		c-21.93-3.055-43.566,9.929-50.634,31.719c-7.114,21.9,2.862,45.244,22.595,55.598c-7.995,8.352-12.898,19.68-12.898,32.145
		c0,25.718,20.848,46.566,46.566,46.566L200.805,277.024z"/>
	<path class="st0" d="M196.289,375.043c-4.098,5.629-12.001,6.882-17.63,2.776c-5.645-4.091-6.898-11.977-2.784-17.622
		l38.184-52.567c-2.46-2.838-4.64-5.924-6.495-9.233L66.814,344.12c-21.28,15.473-25.997,45.275-10.532,66.57
		c7.144,9.844,17.368,16.138,28.394,18.528c-9.697,19.934-4.021,44.51,14.522,57.987c18.621,13.532,43.906,11.235,59.851-4.323
		c5.474,10.177,14.723,18.358,26.584,22.208c24.451,7.949,50.727-5.444,58.676-29.902V325.546c-3.386-0.727-6.681-1.756-9.82-3.078
		L196.289,375.043z"/>
	<path class="st0" d="M446.225,345.481l-142.297-46.234c-1.733,2.984-3.743,5.791-6.001,8.382l38.184,52.567
		c4.114,5.645,2.862,13.531-2.783,17.622c-5.645,4.106-13.532,2.854-17.631-2.791l-38.199-52.567
		c-3.418,1.447-7.037,2.552-10.779,3.279v148.034c8.134,25.038,35.013,38.725,60.051,30.606c11.569-3.773,20.709-11.545,26.4-21.28
		c15.961,15.358,41.076,17.569,59.619,4.106c18.636-13.54,24.266-38.3,14.399-58.258c11.382-2.065,22.007-8.343,29.338-18.427
		C471.635,389.712,467.026,360.583,446.225,345.481z"/>
	<path class="st0" d="M509.711,188.94c-7.114-21.891-28.921-34.905-50.974-31.68c1.546-11.468-1.114-23.508-8.46-33.599
		c-15.11-20.808-44.231-25.418-65.032-10.292l-87.89,120.97c2.304,2.567,4.376,5.359,6.171,8.328l61.691-20.051
		c6.635-2.142,13.748,1.477,15.914,8.112c2.134,6.627-1.484,13.74-8.104,15.898l-61.737,20.058c0.123,1.524,0.185,3.07,0.185,4.624
		c0,2.265-0.14,4.508-0.402,6.696l140.72,45.723c26.322,0,47.664-21.342,47.664-47.657c0-12.171-4.578-23.267-12.078-31.688
		C506.911,233.96,516.794,210.74,509.711,188.94z"/>
	<path class="st0" d="M297.046,271.302c0-22.672-18.373-41.053-41.045-41.053c-22.672,0-41.06,18.381-41.06,41.053
		c0,22.68,18.389,41.06,41.06,41.06C278.673,312.362,297.046,293.982,297.046,271.302z"/>
</g>
</svg>