<?xml version="1.0" encoding="utf-8"?>

<!DOCTYPE svg PUBLIC "-//W3C//DTD SVG 1.1//EN" "http://www.w3.org/Graphics/SVG/1.1/DTD/svg11.dtd">

<svg height="800px" width="800px" version="1.1" id="_x32_" xmlns="http://www.w3.org/2000/svg" xmlns:xlink="http://www.w3.org/1999/xlink" 
	 viewBox="0 0 512 512"  xml:space="preserve">
<style type="text/css">
	.st0{fill:#000000;}
</style>
<g>
	<path class="st0" d="M461.36,130.632c-8.348-46.895-44.191-70.067-88.241-67.021c-40.568,2.808-66.364,50.448-79.088,79.63
		c6.878-39.649,5.04-95.924-40.025-126.622c-68.832-46.903-122.018,19.462-127.531,28.212c-5.531,8.759-5.723,10.518,7.28,10.973
		c3.868,0.131,38.31-5.96,70.6,3.272l16.906-12.723l5.163,20.826c26.287,12.277,45.714,38.914,45.976,76
		c-19.392-29.385-51.734-50.291-90.114-54.123c-66.767-6.668-126.131,40.568-132.624,105.497c-0.508,5.225-0.036,1.496-0.036,1.496
		c-0.052,2.468,1.348,4.761,3.571,5.837c2.24,1.067,4.901,0.727,6.808-0.874c0,0,1.54-1.961,8.156-6.887
		c11.621-8.681,24.204-16.102,37.488-22.174l13.634-20.284l14.666,9.783c24.186-6.948,50.053-9.53,76.602-6.878
		c17.537,1.75,34.303,5.679,50.124,11.472c-37.173-6.222-95.487,7.648-122.562,53.02c-33.55,56.222-11.008,105.76-7.438,109.812
		c2.922,3.334,7.053,1.374,8.645-3.755c3.448-11.209,11.936-31.957,25.99-54.778l-2.8-19.488l12.636,4.611
		c19.111-27.03,45.905-54.744,81.59-71.659c-27.774,47.892-54.043,116.401-45.765,209.63C139.18,406.31,84.645,467.329,84.645,512
		h307.042c0-43.281-51.174-101.918-119.656-117.25c-14.142-40.97-23.224-107.361,9.765-196.224
		c8.015,12.802,17.974,31.196,25.639,53.16l12.181,2.791l-6.983,14.202c4.952,18.753,7.788,39.422,6.318,61.105
		c-0.385,5.523,2.52,9.941,4.585,6.502c31.59-52.888,29.069-110.494-4.113-147.281c22.244,9.897,39.203,30.277,51.751,52.906
		l17.082,5.496l-5.216,19.383c9.941,24.537,15.156,48.373,16.522,61.875c0.542,5.321,2.958,8.996,6.878,3.396
		c23.399-33.366,32.745-100.956,0.56-141.682c-24.975-31.563-73.89-38.362-104.938-33.41c23.207-31.406,76.586-28.579,76.586-28.579
		s10.325-18.516,12.444-21.098c2.117-2.582,10.098,20.048,10.098,20.048l51.314,27.196c0,0,6.405,5.382,8.54-2.468
		C462.339,147.336,463.565,139.968,461.36,130.632z"/>
</g>
</svg>