<?xml version="1.0" encoding="utf-8"?>

<!DOCTYPE svg PUBLIC "-//W3C//DTD SVG 1.1//EN" "http://www.w3.org/Graphics/SVG/1.1/DTD/svg11.dtd">

<svg height="800px" width="800px" version="1.1" id="_x32_" xmlns="http://www.w3.org/2000/svg" xmlns:xlink="http://www.w3.org/1999/xlink" 
	 viewBox="0 0 512 512"  xml:space="preserve">
<style type="text/css">
	.st0{fill:#000000;}
</style>
<g>
	<path class="st0" d="M213.427,94.319c0,0,0.314,0.14,0.702,0.314C213.873,94.518,213.733,94.452,213.427,94.319z"/>
	<path class="st0" d="M433.899,372.026c-0.025-22.102-12.038-40.895-32.631-49.267c-20.063-8.15-42.869-0.298-56.344,16.002
		c-14.25,17.256-19.024,41.201-38.245,54.486c-18.182,12.566-44.174,16.258-64.997,8.612c-22.573-8.257-27.33-34.926-22.772-55.973
		c5.515-25.48,25.711-41.052,44.273-57.409c36.131-31.822,63.427-76.399,69.125-124.75c5.68-48.12-12.319-96.62-50.218-127.327
		C242.986,4.718,185.669-7.494,136.855,4.578c-22.244,5.499-45.544,18.618-54.742,40.697c-9.876,23.606-1.123,47.459,21.913,58.21
		c10.982,5.128,22.904,8.117,35.058,7.589c12.997-0.554,25.629-4.418,38.691-3.964c22.095,0.776,47.723,10.371,49.045,35.628
		c1.288,24.58-15.026,47.311-31.673,63.8c-18.247,18.074-38.558,33.737-53.669,54.799c-30.169,42.068-38.872,100.046-23.383,149.306
		c12.171,38.658,39.914,70.743,77.036,87.29c39.334,17.538,86.118,18.008,126.906,5.128c37.799-11.931,70.297-37.437,91.187-71.082
		c11.006-17.745,20.616-38.551,20.675-59.837c-0.009,2.188-0.009,6.258,0-0.066C433.899,370.4,433.899,370.944,433.899,372.026z
		 M202.991,87.004c-0.215,0.594-0.628,2.799-1.172,3.186c-8.686-2.418-17.711-3.64-26.744-3.649c1.222,0,7.034,0.009-0.008,0
		c-0.371,0-0.264,0-0.016,0c-20.518,0.009-38.964,7.736-59.003-0.223c-7.894-3.129-15.72-7.53-16.959-16.629
		c-1.288-9.486,1.553-18.569,7.794-25.778c26.769-30.822,82.749-26.512,117.51-15.258c-4.525,12.36-9.066,24.729-13.607,37.089
		C208.193,72.827,205.583,79.911,202.991,87.004z M213.427,94.319c7.514-20.476,15.027-40.953,22.54-61.43
		c60.043,24.82,88.794,87.752,71.702,150.041c-17.768-5.63-35.52-11.27-53.288-16.91c-2.89-0.917-5.78-1.833-8.67-2.75
		c0.149,0.05,1.684-21.187,1.453-23.812C245.381,118.405,232.483,102.725,213.427,94.319z M173.051,255.556
		c16.25-16.991,35.471-31.037,50.086-49.565c6.886-8.71,12.88-18.198,17.239-28.419c1.734-4.038,3.072-2.097,7.002-0.85
		c18.858,5.978,37.717,11.964,56.558,17.942c-8.636,24.01-22.788,45.834-39.946,64.609c-8.983,9.867-19.569,18.115-29.46,27
		c-2.939,2.634-17.372,19.32-19.338,17.999c-17.818-11.914-35.635-23.821-53.437-35.735
		C165.291,264.019,169.089,259.702,173.051,255.556z M131.174,361.028c-0.017-28.709,7.794-58.251,23.416-82.469
		c12.352,8.258,24.704,16.514,37.04,24.779c5.631,3.756,11.262,7.522,16.893,11.287c1.453,0.974-4.376,10.238-5.202,12.302
		c-3.93,9.759-6.11,20.222-6.506,30.723c-0.331,9.206,0.742,18.528,3.616,27.305c0.66,1.99,7.744,15.978,7.464,16.234
		c-4.822,4.219-9.628,8.446-14.433,12.674c-11.61,10.196-23.218,20.394-34.827,30.598
		C140.008,420.873,131.157,390.867,131.174,361.028z M306.207,486.183c2.023-0.487,3.262-0.793-0.058,0.016
		c-8.372,2.032-3.385,0.818-0.107,0.026c-48.078,11.642-103.555,4.145-139.282-32.532c11.609-10.189,23.218-20.377,34.81-30.574
		c4.805-4.219,9.611-8.446,14.416-12.666c0.396-0.347,11.394,7.48,13.129,8.33c8.157,3.98,17.239,6.094,26.222,6.969
		c9.364,0.908,18.859,0.414,28.107-1.354c1.882-0.363,19.337-5.367,19.254-5.541c2.791,5.805,5.598,11.609,8.405,17.414
		c6.656,13.821,13.327,27.634,19.982,41.448C323.077,481.279,314.729,484.103,306.207,486.183z M400.425,413.153
		c-8.19,15.175-18.974,28.948-31.854,40.424c-8.075,7.201-16.976,13.467-26.438,18.669c-6.672-13.822-13.343-27.643-20.014-41.465
		c-2.807-5.813-5.614-11.626-8.406-17.43c0.1,0.198,13.657-10.518,14.978-11.832c6.655-6.679,11.841-14.713,16.48-22.878
		c8.422-14.846,15.078-34.134,33.837-38.13c16.331-3.475,31.689,9.628,33.951,25.431
		C415.304,382.388,408.071,399.009,400.425,413.153z"/>
	<path class="st0" d="M214.129,94.633C219.455,96.979,215.789,95.369,214.129,94.633L214.129,94.633z"/>
	<path class="st0" d="M306.15,486.199c0.017-0.007,0.042-0.007,0.058-0.016c-0.049,0.009-0.115,0.025-0.165,0.042
		C306.075,486.216,306.117,486.208,306.15,486.199z"/>
	<path class="st0" d="M155.482,47.504c-13.442,0-13.442,20.84,0,20.84C168.923,68.344,168.923,47.504,155.482,47.504z"/>
</g>
</svg>