<?xml version="1.0" encoding="utf-8"?>

<!DOCTYPE svg PUBLIC "-//W3C//DTD SVG 1.1//EN" "http://www.w3.org/Graphics/SVG/1.1/DTD/svg11.dtd">

<svg height="800px" width="800px" version="1.1" id="_x32_" xmlns="http://www.w3.org/2000/svg" xmlns:xlink="http://www.w3.org/1999/xlink" 
	 viewBox="0 0 512 512"  xml:space="preserve">
<style type="text/css">
	.st0{fill:#000000;}
</style>
<g>
	<path class="st0" d="M472.424,32.312c-12.072,13.082-115.592,114.873-234.626,215.307C149.468,322.148,8.699,416.005,0.41,424.287
		c-8.274,8.274,110.42,104.894,212.551,22.083c82.804,16.555,151.822-46.928,162.86-99.376
		c71.766-2.763,102.131-91.093,102.131-129.739c5.526-38.646-1.503-69.755-5.527-82.812C461.387,98.56,504.631,74.635,512,63.598
		L472.424,32.312z M130.141,451.889c-20.83,0-37.718-16.888-37.718-37.726c0-20.83,16.888-37.726,37.718-37.726
		c20.847,0,37.734,16.895,37.734,37.726C167.874,435.001,150.988,451.889,130.141,451.889z M263.574,387.483
		c-26.438,0-47.85-21.42-47.85-47.85c0-26.422,21.412-47.842,47.85-47.842c26.422,0,47.833,21.42,47.833,47.842
		C311.406,366.063,289.995,387.483,263.574,387.483z M383.189,282.588c-26.437,0-47.849-21.419-47.849-47.849
		c0-26.421,21.412-47.841,47.849-47.841c26.422,0,47.834,21.42,47.834,47.841C431.023,261.169,409.611,282.588,383.189,282.588z"/>
	<path class="st0" d="M370.293,205.296c-8.661,4.816-16.564,16.564-9.195,14.722c7.369-1.842,18.406-12.879,23.916-14.722
		C390.542,203.454,386.858,196.101,370.293,205.296z"/>
	<path class="st0" d="M250.678,312.032c-8.662,4.808-16.564,16.556-9.194,14.722c7.368-1.842,18.406-12.879,23.933-14.722
		C270.926,310.19,267.242,302.829,250.678,312.032z"/>
	<path class="st0" d="M116.211,392.46c-5.963,3.612-11.392,12.419-6.334,11.046c5.074-1.39,12.653-9.664,16.451-11.046
		C130.125,391.078,127.604,385.56,116.211,392.46z"/>
</g>
</svg>