<?xml version="1.0" encoding="utf-8"?>

<!DOCTYPE svg PUBLIC "-//W3C//DTD SVG 1.1//EN" "http://www.w3.org/Graphics/SVG/1.1/DTD/svg11.dtd">

<svg height="800px" width="800px" version="1.1" id="_x32_" xmlns="http://www.w3.org/2000/svg" xmlns:xlink="http://www.w3.org/1999/xlink" 
	 viewBox="0 0 512 512"  xml:space="preserve">
<style type="text/css">
	.st0{fill:#000000;}
</style>
<g>
	<path class="st0" d="M442.539,260.88c-3.297-3.552-7.413-5.388-12.509-5.426c-4.455,0.009-9.796,1.535-15.56,5.792
		c-0.376,0.274-0.819,0.34-1.206,0.556c-6.584,6.706-13.808,13.516-21.88,20.449c-5.077,4.351-12.716,3.758-17.068-1.319
		c-4.351-5.067-3.758-12.706,1.31-17.058c24.64-21.108,40.879-40.644,50.834-57.503c9.956-16.851,13.563-30.97,13.544-41.274
		c-0.019-9.004-2.599-15.005-5.793-18.669c-3.249-3.635-7.111-5.406-12.179-5.472c-4.963,0-11.331,2.006-18.225,7.657
		c-0.16,0.122-0.368,0.16-0.528,0.273c-11.576,13.064-25.225,26.534-41.341,40.351c-5.067,4.352-12.706,3.759-17.058-1.309
		c-4.352-5.068-3.768-12.706,1.309-17.058c32.759-28.087,54.451-54.178,67.798-76.934c13.366-22.756,18.367-42.104,18.349-56.807
		c-0.019-13.036-3.806-22.332-8.911-28.248c-5.18-5.887-11.614-8.825-19.261-8.882c-7.074,0-15.438,2.712-24.132,9.758
		c-14.816,12.047-52.04,43.752-95.311,80.457c-43.318,36.734-92.815,78.584-132.695,111.314
		c-26.836,22.004-49.026,47.972-64.398,75.814c-15.371,27.852-23.943,57.503-23.943,87.22c0.018,25.968,6.471,52.068,21.089,77.707
		c25.46,44.694,72.075,69.701,120.093,69.729c23.19-0.019,46.652-5.84,68.269-18.16c34.973-19.94,54.536-56.402,54.546-93.984
		c0-18.15-4.559-36.489-14.204-53.415c-15.513-27.202-43.864-42.404-73.101-42.433c-14.1,0.019-28.361,3.551-41.519,11.058
		c-20.976,11.944-32.703,33.815-32.713,56.364c0,10.879,2.722,21.862,8.515,32.025c9.118,15.994,25.799,24.932,42.998,24.941
		c8.308,0,16.662-2.072,24.414-6.499c12.028-6.838,18.725-19.356,18.744-32.289c0-6.236-1.554-12.499-4.879-18.33
		c-3.316-5.802-1.281-13.196,4.521-16.502c5.802-3.324,13.196-1.29,16.512,4.512c5.435,9.551,8.063,20.024,8.044,30.32
		c0.028,21.278-11.134,42.019-30.951,53.312c-11.472,6.556-24.037,9.692-36.404,9.683c-25.554,0.018-50.439-13.366-64.012-37.159
		c-7.93-13.873-11.717-29.076-11.707-44.014c-0.029-30.904,16.154-60.979,44.928-77.396c16.879-9.627,35.34-14.224,53.51-14.224
		c37.582-0.009,74.156,19.639,94.115,54.64c7.144,12.518,13.427,25.534,14.557,39.183c1.907,23.067,18.282,12.838,18.282,12.838
		l23.195-21.832c23.877-19.79,35.971-36.066,45.239-50.581c9.297-14.533,12.566-26.797,12.546-35.84
		C448.285,270.006,445.789,264.458,442.539,260.88z"/>
</g>
</svg>