<?xml version="1.0" encoding="utf-8"?>

<!DOCTYPE svg PUBLIC "-//W3C//DTD SVG 1.1//EN" "http://www.w3.org/Graphics/SVG/1.1/DTD/svg11.dtd">

<svg height="800px" width="800px" version="1.1" id="_x32_" xmlns="http://www.w3.org/2000/svg" xmlns:xlink="http://www.w3.org/1999/xlink" 
	 viewBox="0 0 512 512"  xml:space="preserve">
<style type="text/css">
	.st0{fill:#000000;}
</style>
<g>
	<path class="st0" d="M428.637,273.152c-29.548-130.859-129.429-147.715-183.619-128.745
		c-41.209,14.418-56.269,50.936-72.669,40.891c-15.634-22.681,4.946-66.321,20.352-100.552c18.874-41.92,0.754-82.507-43.46-84.683
		C132.334-0.774,106.801,6.48,93.433,42.1c-2.176,5.803-13.05,15.226-16.67,26.094c-3.061,9.174-0.733,35.516,6.521,34.065
		c7.247-1.451,12.325-18.114,18.846-23.918c6.522-5.796,17.396-15.218,29.713-13.768c12.325,1.444,20.691,6.28,16.864,20.173
		c-9.092,33.078-39.502,68.234-33.216,126.59c6.728,62.494,58.355,87.088,105.941,87.088l32.981,2.618l3.758,90.044l-39.122,97.796
		l-28.704,1.914c-5.851,0.394-10.272,5.452-9.886,11.296c0.394,5.844,5.451,10.273,11.295,9.886l35.371-2.356
		c4.083-0.277,7.627-2.847,9.147-6.653l42.446-106.114c0.552-1.374,0.815-2.901,0.753-4.38l-3.744-89.747l27.136,2.156
		l57.471,71.405l19.371,101.154l-19.854,12.635c-4.94,3.143-6.397,9.706-3.254,14.653c3.15,4.939,9.707,6.397,14.653,3.254
		l25.934-16.504c3.675-2.342,5.54-6.673,4.726-10.949l-21.223-110.832c-0.332-1.706-1.071-3.302-2.156-4.656l-46.562-57.852
		l98.03,7.78c2.196,0.497,3.917,0.656,4.974,0.393l0.663-0.477c0.594-0.483,0.863-1.292,0.78-2.431
		C436.968,308.275,436.111,298.064,428.637,273.152z"/>
</g>
</svg>