<?xml version="1.0" encoding="utf-8"?>

<!DOCTYPE svg PUBLIC "-//W3C//DTD SVG 1.1//EN" "http://www.w3.org/Graphics/SVG/1.1/DTD/svg11.dtd">

<svg height="800px" width="800px" version="1.1" id="_x32_" xmlns="http://www.w3.org/2000/svg" xmlns:xlink="http://www.w3.org/1999/xlink" 
	 viewBox="0 0 512 512"  xml:space="preserve">
<style type="text/css">
	.st0{fill:#000000;}
</style>
<g>
	<path class="st0" d="M492.894,249.818c-10.459-21.691-24.912-42.522-42.102-61.818c9.023-15.308,14.34-33.157,14.336-52.218
		C465.119,78.675,418.853,32.409,361.756,32.4c-52.497,0.009-95.727,39.139-102.389,89.813H256h-7.698
		C241.64,71.539,198.41,32.409,145.922,32.4C88.816,32.409,42.551,78.675,42.541,135.781c-0.01,20.254,5.938,39.198,16.056,55.17
		c-16.427,18.944-30.229,39.276-40.225,60.41C6.75,275.966,0.01,301.586,0,326.845c-0.02,20.713,4.624,41.212,14.776,59.921
		c15.22,28.162,42.555,51.661,82.174,67.682c39.692,16.07,91.862,25.132,159.051,25.151c89.545-0.059,152.565-16.05,194.578-43.558
		c20.953-13.753,36.515-30.547,46.647-49.276c10.152-18.709,14.789-39.208,14.775-59.921
		C511.99,301.048,504.971,274.89,492.894,249.818z M470.822,372.465c-11.412,21.006-32.248,39.98-67.062,54.154
		c-34.746,14.126-83.274,22.972-147.76,22.952c-86.026,0.049-143.499-15.786-178.088-38.622
		c-17.346-11.427-29.11-24.438-36.734-38.484c-7.595-14.046-11.135-29.296-11.149-45.62c-0.015-19.844,5.381-41.281,15.488-62.649
		c10.093-21.358,24.868-42.6,43.109-61.984l9.062-9.628l-8.407-10.206c-10.459-12.708-16.7-28.856-16.71-46.597
		c0.01-20.313,8.187-38.553,21.481-51.867c13.323-13.304,31.564-21.476,51.871-21.485c20.298,0.009,38.538,8.181,51.862,21.485
		c13.25,13.275,21.407,31.437,21.471,51.671l-0.044,0.929l-0.743,15.728H256h33.318l-0.904-16.696
		c0.073-20.215,8.231-38.367,21.471-51.632c13.323-13.304,31.564-21.476,51.871-21.485c20.298,0.009,38.538,8.181,51.862,21.485
		c13.294,13.314,21.471,31.554,21.481,51.867c-0.01,16.754-5.646,32.062-15.138,44.467l-7.849,10.244l8.959,9.306
		c18.914,19.618,34.266,41.251,44.769,63.059c10.523,21.808,16.144,43.724,16.13,63.988
		C481.956,343.169,478.418,358.419,470.822,372.465z"/>
	<path class="st0" d="M145.922,159.974c13.343,0,24.188-10.85,24.188-24.193c0-13.343-10.845-24.204-24.188-24.204
		c-13.338,0-24.198,10.861-24.198,24.204C121.724,149.124,132.584,159.974,145.922,159.974z"/>
	<path class="st0" d="M361.756,159.974c13.343,0,24.188-10.85,24.188-24.193c0-13.343-10.845-24.204-24.188-24.204
		c-13.338,0-24.198,10.861-24.198,24.204C337.558,149.124,348.418,159.974,361.756,159.974z"/>
	<path class="st0" d="M409.254,317.343h-282.93c-5.66,0-10.235,4.576-10.235,10.235c0,5.65,4.576,10.235,10.235,10.235h282.93
		c5.66,0,10.235-4.584,10.235-10.235C419.488,321.918,414.914,317.343,409.254,317.343z"/>
	<circle class="st0" cx="204.065" cy="261.684" r="8.758"/>
	<circle class="st0" cx="309.166" cy="261.684" r="8.758"/>
</g>
</svg>