<?xml version="1.0" encoding="utf-8"?>

<!DOCTYPE svg PUBLIC "-//W3C//DTD SVG 1.1//EN" "http://www.w3.org/Graphics/SVG/1.1/DTD/svg11.dtd">

<svg height="800px" width="800px" version="1.1" id="_x32_" xmlns="http://www.w3.org/2000/svg" xmlns:xlink="http://www.w3.org/1999/xlink" 
	 viewBox="0 0 512 512"  xml:space="preserve">
<style type="text/css">
	.st0{fill:#000000;}
</style>
<g>
	<path class="st0" d="M512,228.677c0.004-37.045-15.056-70.705-39.339-94.963c-23.254-23.28-55.148-38.04-90.376-39.227
		c-6.774-18.682-17.561-35.452-31.322-49.191C326.7,21.011,293.044,5.948,256,5.957c-37.045-0.009-70.705,15.055-94.968,39.339
		c-13.756,13.739-24.548,30.509-31.318,49.191c-35.227,1.186-67.121,15.947-90.375,39.227C15.05,157.972-0.009,191.632,0,228.677
		c-0.009,37.045,15.05,70.705,39.339,94.963c3.891,3.896,8.052,7.532,12.402,10.926c-3.398,11.817-5.26,24.284-5.255,37.174
		c-0.009,37.045,15.051,70.696,39.335,94.963c24.267,24.284,57.918,39.348,94.968,39.339c27.83,0.009,53.75-8.493,75.212-23.019
		c21.462,14.526,47.378,23.028,75.212,23.019c37.045,0.009,70.701-15.055,94.968-39.339c24.284-24.267,39.339-57.918,39.335-94.963
		c0.004-12.891-1.857-25.357-5.259-37.174c4.354-3.395,8.51-7.03,12.406-10.926C496.944,299.382,512.004,265.722,512,228.677z
		 M364.711,140.259c-0.009,30.058-12.146,57.156-31.842,76.878c-16.436,16.414-38.015,27.548-62.151,30.82
		c-1.117-6.259-1.731-12.692-1.736-19.28c0.005-30.058,12.151-57.156,31.842-76.869c16.436-16.423,38.01-27.557,62.151-30.82
		C364.092,127.238,364.711,133.67,364.711,140.259z M408.08,294.863c8.575,8.589,15.718,18.579,21.05,29.6
		c-15.306,8.242-32.799,12.916-51.438,12.925c-30.059-0.009-57.157-12.146-76.869-31.842c-8.576-8.588-15.718-18.57-21.051-29.591
		c15.306-8.25,32.799-12.925,51.438-12.925C361.27,263.039,388.368,275.176,408.08,294.863z M179.13,63.39
		C198.844,43.694,225.937,31.557,256,31.548c30.058,0.009,57.156,12.146,76.869,31.842c9.41,9.419,17.073,20.544,22.536,32.863
		c-28.146,4.701-53.386,18.155-72.679,37.461c-10.987,10.969-20.059,23.886-26.726,38.153c-6.67-14.268-15.744-27.184-26.73-38.153
		c-19.293-19.306-44.53-32.76-72.68-37.461C162.054,83.934,169.716,72.809,179.13,63.39z M149.024,120.988
		c24.137,3.263,45.716,14.397,62.148,30.82c19.696,19.714,31.838,46.811,31.842,76.869c0,6.588-0.616,13.021-1.736,19.28
		c-24.137-3.272-45.716-14.406-62.152-30.82c-19.692-19.722-31.833-46.82-31.838-76.878
		C147.288,133.67,147.904,127.238,149.024,120.988z M232.227,275.955c-5.334,11.021-12.475,21.004-21.055,29.591
		c-19.713,19.696-46.811,31.833-76.869,31.842c-18.64-0.009-36.132-4.684-51.438-12.925c5.333-11.022,12.476-21.012,21.05-29.6
		c19.714-19.687,46.811-31.824,76.874-31.833C199.424,263.03,216.92,267.705,232.227,275.955z M57.433,305.546
		c-19.696-19.713-31.833-46.811-31.842-76.869c0.009-30.058,12.146-57.156,31.842-76.869c17.241-17.228,40.136-28.673,65.719-31.279
		c-0.953,6.45-1.459,13.029-1.455,19.73c-0.009,37.054,15.051,70.705,39.335,94.972c1.104,1.099,2.246,2.164,3.394,3.229
		c-30.53,3.723-57.97,17.661-78.605,38.309c-9.601,9.593-17.73,20.674-24.085,32.83C60.268,308.282,58.827,306.94,57.433,305.546z
		 M180.788,480.452c-30.063-0.009-57.16-12.146-76.874-31.842c-19.69-19.713-31.833-46.811-31.838-76.869
		c0-7.835,0.845-15.462,2.416-22.821c18.025,8.986,38.34,14.068,59.81,14.059c23.582,0.009,45.78-6.12,65.069-16.812
		c-1.601,8.285-2.467,16.83-2.463,25.574c-0.004,36.578,14.687,69.831,38.431,94.02
		C219.309,475.093,200.705,480.443,180.788,480.452z M256,450.187c-0.554-0.528-1.12-1.039-1.662-1.576
		c-19.691-19.713-31.833-46.811-31.838-76.869c0.004-30.058,12.146-57.156,31.838-76.878c0.542-0.536,1.108-1.047,1.662-1.575
		c0.55,0.528,1.117,1.039,1.658,1.575c19.692,19.723,31.834,46.82,31.838,76.878c-0.003,30.058-12.146,57.156-31.838,76.869
		C257.116,449.147,256.549,449.658,256,450.187z M408.08,448.61c-19.713,19.696-46.811,31.833-76.869,31.842
		c-19.921-0.009-38.521-5.359-54.555-14.691c23.743-24.189,38.439-57.442,38.434-94.02c0-8.744-0.865-17.289-2.462-25.574
		c19.284,10.7,41.482,16.821,65.065,16.812c21.47,0.009,41.785-5.082,59.81-14.059c1.571,7.359,2.415,14.986,2.419,22.821
		C439.914,401.799,427.772,428.897,408.08,448.61z M454.567,305.546c-1.399,1.394-2.84,2.736-4.303,4.052
		c-6.359-12.155-14.484-23.237-24.085-32.83c-20.635-20.648-48.074-34.586-78.61-38.309c1.147-1.065,2.29-2.13,3.394-3.229
		c24.289-24.267,39.348-57.918,39.339-94.972c0-6.701-0.506-13.281-1.454-19.73c25.582,2.606,48.472,14.051,65.719,31.279
		c19.691,19.714,31.833,46.811,31.842,76.869C486.4,258.735,474.258,285.833,454.567,305.546z"/>
</g>
</svg>