<?xml version="1.0" encoding="utf-8"?>

<!DOCTYPE svg PUBLIC "-//W3C//DTD SVG 1.1//EN" "http://www.w3.org/Graphics/SVG/1.1/DTD/svg11.dtd">

<svg height="800px" width="800px" version="1.1" id="_x32_" xmlns="http://www.w3.org/2000/svg" xmlns:xlink="http://www.w3.org/1999/xlink" 
	 viewBox="0 0 512 512"  xml:space="preserve">
<style type="text/css">
	.st0{fill:#000000;}
</style>
<g>
	<path class="st0" d="M422.262,191.121c3.019-26.358-4.3-50.43-9.398-71.052c-0.69-2.787,4.228-7.463,7.391-7.624
		c17.209-0.816,32.654-12.569,37.34-30.102c5.805-21.716-7.087-44.014-28.812-49.82c-11.099-2.974-22.343-1.021-31.462,4.47
		c0.107-8.296-3.906-23.293-24.44-28.785c-20.525-5.474-31.5,5.519-35.531,12.766c-5.169-9.326-13.949-16.618-25.048-19.584
		c-21.707-5.805-44.023,7.096-49.82,28.812c-4.749,17.765,3.028,35.88,17.9,45.08c2.517,1.55,2.984,8.932,0.457,11.62
		c-11.324,12.05-22.728,21.761-32.261,33.659c-26.554-7.338-59.504-16.432-74.528-0.816c-16.879,17.55-17.64,59.522-0.314,64.924
		c8.493,2.652,31.75-5.124,53.269-13.724c-7.382,47.552,15.759,79.572-8.52,100.571c-31.347,27.11-88.02-22.702-140.322-3.628
		c-52.319,19.074-43.952,55.518-33.838,51.326c10.115-4.194,25.184-18.321,42.886-13.492c73.23,19.951-77.18,83.854-46.827,91.953
		c6.593,1.774,38.362-6.952,67.72-15.167c22.603-6.335,60.687-33.784,70.64-21.761c13.088,15.812-19.799,48.091-40.019,59.02
		c-23.615,12.776-53.744,22.29-52.499,28.678c2.778,14.262,40.816,22.612,64.155,14.952c27.118-8.878,56.96-19.208,63.617,0.018
		c5.984,17.326,5.187,33.712,0.322,43.522c-4.865,9.8,21.421,9.783,44.006-41.113c22.568-50.886-14.594-126.937,22.764-144.873
		c39.85-19.136,93.182-40.243,120.963-78.99c9.442,21.17,20.722,42.966,28.659,46.988c16.189,8.188,44.893-22.442,45.01-46.8
		C475.818,220.658,446.326,204.308,422.262,191.121z"/>
</g>
</svg>