<?xml version="1.0" encoding="utf-8"?>

<!DOCTYPE svg PUBLIC "-//W3C//DTD SVG 1.1//EN" "http://www.w3.org/Graphics/SVG/1.1/DTD/svg11.dtd">

<svg height="800px" width="800px" version="1.1" id="_x32_" xmlns="http://www.w3.org/2000/svg" xmlns:xlink="http://www.w3.org/1999/xlink" 
	 viewBox="0 0 512 512"  xml:space="preserve">
<style type="text/css">
	.st0{fill:#000000;}
</style>
<g>
	<path class="st0" d="M204.497,397.645c-27.999-8.612-62.445-19.38-62.445-19.38s19.38,58.146,49.52,68.906
		C221.727,457.948,243.332,409.602,204.497,397.645z"/>
	<path class="st0" d="M504.071,97.431c-7.415-5.868-17.864-5.998-25.431-0.328L311.858,222.191l-52.088-40.23
		c-39.621-30.598-91.488-37.09-136.413-19.715c-10.494-12.627-26.315-20.675-44.017-20.675c-31.604,0-57.225,25.621-57.225,57.232
		c0,16.911,7.385,32.061,19.044,42.54c0.221,1.409,0.458,2.812,0.458,4.283v45.519c0,6.615-2.348,12.628-6.12,17.482l52.675,40.688
		c50.542,39.034,121.056,39.034,171.598,0l40.977-31.649l152.126,64.228c7.934,3.345,17.101,1.479,23.091-4.71
		c5.99-6.181,7.553-15.417,3.948-23.236l-36.275-78.594l66.637-153.254C514.038,113.419,511.501,103.291,504.071,97.431z
		 M79.34,230.017c-17.246,0-31.223-13.976-31.223-31.215c0-17.253,13.976-31.222,31.223-31.222
		c17.246,0,31.222,13.969,31.222,31.222C110.563,216.041,96.586,230.017,79.34,230.017z M361.272,226.909l58.718-26.399
		c3.445-1.547,7.484-0.015,9.031,3.422c1.547,3.444,0.007,7.484-3.43,9.03l-58.718,26.399c-3.445,1.546-7.484,0.015-9.03-3.422
		C356.295,232.494,357.835,228.455,361.272,226.909z M424.646,266.757c0,3.772-3.056,6.828-6.828,6.828H365.92
		c-3.772,0-6.828-3.056-6.828-6.828s3.056-6.828,6.828-6.828h51.898C421.59,259.929,424.646,262.985,424.646,266.757z
		 M429.707,329.622c-1.509,3.459-5.526,5.044-8.985,3.544l-59.046-25.667c-3.46-1.509-5.045-5.525-3.544-8.985
		c1.509-3.46,5.525-5.044,8.984-3.544l59.047,25.667C429.623,322.146,431.208,326.161,429.707,329.622z"/>
	<path class="st0" d="M264.808,166.422l15.302-73c2.149-10.258-2.316-20.759-11.188-26.33c-8.885-5.563-20.286-5.007-28.578,1.394
		l-100.076,72.436c11.042-2.461,22.336-3.841,33.706-3.841C206.448,137.082,238.44,147.538,264.808,166.422z"/>
	<path class="st0" d="M13.001,232.616C5.822,232.616,0,238.439,0,245.625v45.519c0,7.186,5.822,13.009,13.001,13.009
		c7.186,0,13.009-5.822,13.009-13.009v-45.519C26.01,238.439,20.187,232.616,13.001,232.616z"/>
</g>
</svg>