<?xml version="1.0" encoding="utf-8"?>

<!DOCTYPE svg PUBLIC "-//W3C//DTD SVG 1.1//EN" "http://www.w3.org/Graphics/SVG/1.1/DTD/svg11.dtd">

<svg height="800px" width="800px" version="1.1" id="_x32_" xmlns="http://www.w3.org/2000/svg" xmlns:xlink="http://www.w3.org/1999/xlink" 
	 viewBox="0 0 512 512"  xml:space="preserve">
<style type="text/css">
	.st0{fill:#000000;}
</style>
<g>
	<path class="st0" d="M512,105.968c0-9.483-4.269-18.764-12.086-24.93c-5.748-4.544-12.739-6.85-19.686-6.842
		c-6.679-0.008-13.416,2.12-19.068,6.352l-155.8,116.859l-43.953-33.95c-3.778-2.923-7.668-5.51-11.602-7.965l9.393-44.824
		c0.521-2.454,0.766-4.916,0.766-7.355c0.008-12.174-6.21-23.716-16.8-30.358c-5.83-3.659-12.458-5.481-19.039-5.481
		c-7.653,0-15.313,2.476-21.694,7.348l-0.007-0.015L22.995,207.469l-0.097,0.075C8.449,218.691,0,235.909,0,254.159
		c0,18.251,8.456,35.46,22.898,46.609l-4.521-3.488l59.192,45.716c1.19,1.681,2.023,2.328,2.796,3.034
		c1.584,1.317,3.057,2.269,4.834,3.377c6.054,3.719,15.306,8.449,23.895,12.494c4.276,2.016,8.329,3.823,11.714,5.206
		c0.736,0.298,1.339,0.498,2.023,0.758c3.377,8.456,9.051,21.375,16.927,34.359c4.901,8.062,10.628,16.124,17.388,23.159
		c6.767,6.998,14.606,13.082,24.058,16.481c5.006,1.793,10.062,2.67,14.942,2.662c11.408,0.022,21.627-4.79,28.707-12.167
		c7.11-7.37,11.364-17.344,11.379-28.031c0.015-7.028-1.904-14.338-5.89-21.01c-3.956-6.634-9.891-12.583-17.626-17.396
		c2.893-0.729,5.898-1.525,8.97-2.424c13.156-3.89,27.643-9.371,39.722-18.645l34.709-26.803l142.309,60.084l0.008,0.008
		c3.986,1.673,8.196,2.492,12.346,2.492c8.434,0,16.718-3.376,22.832-9.668v-0.007c5.861-6.047,8.947-14.026,8.94-22.096
		c0-4.499-0.952-9.059-2.923-13.32L446.375,263.5l62.985-144.868C511.137,114.55,512,110.229,512,105.968z M488.409,109.53
		l-67.068,154.245l37.543,81.348c0.55,1.205,0.818,2.469,0.818,3.741c0,2.283-0.863,4.514-2.5,6.195
		c-1.725,1.784-4.053,2.722-6.425,2.722c-1.168,0-2.335-0.223-3.466-0.699l-154.595-65.268l-45.277,34.962
		c-10.553,8.27-27.48,13.93-41.752,17.358c-7.162,1.762-13.618,3.027-18.622,4.142c-2.536,0.58-4.648,1.072-6.79,1.785
		c-1.116,0.394-2.202,0.752-3.882,1.763c-0.848,0.543-1.904,1.242-3.176,2.736c-1.227,1.428-2.774,4.187-2.767,7.623
		c-0.022,3.377,1.51,6.173,2.774,7.631c1.309,1.532,2.409,2.246,3.302,2.803l0.669,0.402l0.721,0.312
		c7.995,3.413,17.975,9.014,22.594,11.892c5.139,3.198,8.285,6.597,10.211,9.802c1.904,3.227,2.648,6.306,2.662,9.304
		c0.015,4.522-1.845,8.939-4.968,12.16c-3.138,3.205-7.244,5.176-12.271,5.191c-2.187,0-4.582-0.372-7.259-1.324
		c-4.819-1.696-10.144-5.466-15.29-10.829c-7.727-7.987-14.83-19.27-20.258-29.771c-5.452-10.501-9.319-20.214-11.17-25.197
		l-2.767-7.437h-6.85c-0.513-0.171-1.279-0.438-2.328-0.863c-5.4-2.127-15.156-6.679-23.115-10.806
		c-2.32-1.206-4.47-2.366-6.351-3.422l-63.914-49.368c-8.836-6.827-13.997-17.343-13.997-28.506
		c0-11.178,5.169-21.702,14.004-28.521L216.003,93.176l0.194-0.149c2.335-1.8,5.102-2.699,7.928-2.699
		c2.402,0,4.774,0.646,6.902,1.978c3.845,2.41,6.084,6.604,6.091,11.007c0,0.878-0.089,1.771-0.275,2.67l-12.8,61.022l7.37,4.09
		c5.607,3.101,10.977,6.537,16.019,10.442l57.727,44.578L474.874,98.828c1.591-1.198,3.451-1.778,5.354-1.785
		c1.964,0.008,3.897,0.632,5.518,1.926l0.022,0.015c2.186,1.71,3.369,4.298,3.384,6.984
		C489.146,107.165,488.915,108.362,488.409,109.53z"/>
	<path class="st0" d="M106.261,219.406c-7.705,0-13.959,6.255-13.959,13.96c0,7.712,6.254,13.967,13.959,13.967
		c7.712,0,13.967-6.255,13.967-13.967C120.228,225.661,113.974,219.406,106.261,219.406z"/>
</g>
</svg>