<?xml version="1.0" encoding="utf-8"?>

<!DOCTYPE svg PUBLIC "-//W3C//DTD SVG 1.1//EN" "http://www.w3.org/Graphics/SVG/1.1/DTD/svg11.dtd">

<svg height="800px" width="800px" version="1.1" id="_x32_" xmlns="http://www.w3.org/2000/svg" xmlns:xlink="http://www.w3.org/1999/xlink" 
	 viewBox="0 0 512 512"  xml:space="preserve">
<style type="text/css">
	.st0{fill:#000000;}
</style>
<g>
	<path class="st0" d="M373.164,143.444h-118.21c0.052-0.764,0.199-1.615,0.199-2.328c0.018-6.4-2.014-10.386-2.674-11.455
		l-1.764-2.927l-3.257-0.999c-3.7-1.129-7.278-1.702-10.708-1.702c-4.038-0.008-7.721,0.886-11.03,2.085
		c-1.224-7.886-4.89-15.372-10.666-21.364c-7.06-7.331-17.448-12.403-29.52-12.385c-1.433,0-2.901,0.069-4.394,0.226h0.061
		c-8.789,0.851-15.806,3.873-20.661,6.67c-0.834,0.486-1.529,0.938-2.241,1.407L118.87,75.719
		c-2.606-11.611-8.372-21.434-16.302-28.322c-8.902-7.764-20.245-12.028-31.917-12.028c-14.295-0.044-29.068,6.566-39.802,20.001
		l-0.113,0.148l-10.822,14.46l0.008,0.009C15.363,75.763,11.456,81.738,8.624,88c-2.866,6.322-4.655,13.001-4.664,19.888
		c0,5.289,1.103,10.665,3.448,15.729c2.336,5.08,5.863,9.814,10.466,14.086l0.321,0.295l0.304,0.235c0,0,1.146,0.895,3.005,2.336
		c-3.066,8.658-6.81,22.694-6.826,40.098c0,8.338,0.877,17.422,3.144,26.958l1.468,6.192l38.856,3.657l0.842-8.842
		c1.016-10.674,3.882-21.217,6.522-28.982c0.399-1.19,0.773-2.171,1.155-3.23c8.607,7.017,16.744,13.8,22.789,19.141
		c14.807,13.158,20.062,25.481,20.079,35.981c-0.017,7.365-2.571,14.357-7.625,20.974c-5.037,6.583-12.654,12.628-22.303,17.3
		c-5.507,2.675-11.603,5.436-17.796,8.181c-0.278-2.597-0.495-5.619-0.495-9.136c0-4.368,0.313-9.406,1.181-15.008l1.642-10.604
		l-39.282,1.312l-2.197,5.298c-5.993,14.434-7.869,26.628-7.86,36.025c0,4.446,0.425,8.198,0.99,11.325c0,0-0.009,0.009-0.018,0.009
		c-4.42,1.754-7.043,2.761-7.043,2.761L0,303.341l9.136,20.566c6.488,14.608,20.932,23.797,36.616,23.797
		c1.416,0,2.823-0.104,4.213-0.234v0.008l58.38-3.726l75.098,36.503c3.952,1.91,6.348,5.897,6.348,10.135
		c0,0.843-0.095,1.702-0.296,2.588l-5.123,21.843c-0.339,0.27-1.06,0.764-2.294,1.389c-2.388,1.286-5.923,2.702-9.614,5.394
		c-1.841,1.372-3.787,3.161-5.324,5.671c-1.556,2.484-2.528,5.723-2.502,8.962v6.071l-0.061,12.784v0.044
		c0.008,11.873,9.623,21.486,21.495,21.495h43.077c10.24,0,19.567-5.897,23.97-15.155l25.499-53.681h137.673v5.706
		c-0.131,0.226-0.756,0.912-1.928,1.772c-1.798,1.389-4.594,2.952-7.59,5.298c-1.494,1.198-3.101,2.648-4.534,4.768
		c-1.433,2.085-2.588,5.072-2.562,8.242v8.893h0.009v12.662c0.009,11.873,9.622,21.486,21.495,21.495h46.508
		c13.27,0,24.5-9.797,26.298-22.954L512,321.893v-39.621C511.991,205.585,449.851,143.453,373.164,143.444z M42.486,198.133
		l-8.432-0.79c-0.981-5.793-1.589-11.438-1.589-16.675c0-11.386,1.937-21.139,3.995-28.391c4.768,3.761,10.074,7.964,15.659,12.42
		C49.417,171.297,44.944,183.629,42.486,198.133z M37.18,261.949l6.618-0.225c-0.157,2.484-0.27,4.906-0.27,7.139
		c0,6.844,0.652,12.385,1.355,16.475c-3.943,1.668-7.773,3.257-11.377,4.734c-0.235,0.095-0.452,0.182-0.686,0.278
		c-0.121-1.372-0.234-2.796-0.234-4.464C32.586,279.883,33.724,271.815,37.18,261.949z M494.214,320.677l-17.856,130.594
		c-0.582,4.342-4.29,7.573-8.668,7.573h-46.508c-2.041-0.009-3.708-1.676-3.708-3.708v-20.323c0.364-0.321,0.877-0.746,1.658-1.268
		c2.015-1.442,5.09-3.162,8.25-5.958c1.572-1.415,3.196-3.17,4.508-5.506c1.32-2.327,2.206-5.289,2.189-8.354v-14.001V365.89
		h-17.787v24.118H279.445V365.89h-17.787v36.156l-24.604,51.805c-1.45,3.057-4.525,4.994-7.903,4.994h-43.077
		c-2.041-0.009-3.708-1.676-3.708-3.708l0.06-12.74v-0.044v-5.906c0.13-0.148,0.582-0.591,1.607-1.207
		c1.806-1.13,4.785-2.38,8.077-4.247c1.641-0.964,3.421-2.11,5.185-3.856c1.737-1.72,3.465-4.256,4.186-7.382l5.332-22.729
		c0.512-2.214,0.764-4.438,0.764-6.635c0.009-10.942-6.184-21.191-16.362-26.132l-79.327-38.562l-63.279,4.048l-0.199,0.017
		c-0.912,0.105-1.798,0.156-2.658,0.156c-8.711,0-16.761-5.123-20.357-13.236l-1.572-3.525
		c14.018-5.558,42.226-17.006,63.547-27.332c11.716-5.688,21.564-13.262,28.652-22.476c7.069-9.18,11.308-20.141,11.299-31.804
		c0.009-16.814-8.702-33.993-26.09-49.304c-11.455-10.127-29.328-24.57-44.449-36.573c-13.418-10.656-24.56-19.306-26.906-21.113
		c-3.083-2.9-5.081-5.697-6.323-8.381c-1.242-2.727-1.798-5.393-1.806-8.285c0-3.752,0.999-7.964,3.084-12.567
		c2.067-4.585,5.21-9.501,9.162-14.478l0.095-0.113l10.639-14.226c7.721-9.502,16.944-13.296,25.924-13.349
		c7.339,0.009,14.53,2.684,20.236,7.652c5.698,4.985,9.979,12.202,11.395,21.782l0.582,4.047l56.982,36.059l4.986-4.793
		c0.252-0.295,7.59-6.644,18.004-7.6l0.13-0.009c0.869-0.095,1.729-0.139,2.571-0.139c7.122,0.026,12.671,2.823,16.744,6.982
		c4.056,4.143,6.27,9.702,6.227,14.348c0,0.86-0.07,1.702-0.199,2.502l0.008-0.052c-0.148,0.825-0.217,1.607-0.217,2.467
		c0.044,1.71,0.174,3.786,1.702,6.479c0.773,1.311,2.041,2.752,3.77,3.769c1.719,1.024,3.778,1.502,5.541,1.485h2.38l2.067-1.19
		c2.987-1.737,5.446-3.092,7.512-3.917c2.093-0.825,3.717-1.19,5.68-1.208c0.166,0,0.374,0.035,0.547,0.052
		c-0.148,3.074-1.25,8.467-6.965,16.762l14.626,10.126c1.815-2.614,3.282-5.115,4.559-7.53h123.647
		c33.463,0.009,63.668,13.531,85.598,35.444c21.92,21.938,35.442,52.135,35.452,85.598V320.677z"/>
	<path class="st0" d="M67.925,66.331c-3.83,0-6.948,3.117-6.948,6.948s3.117,6.948,6.948,6.948c3.83,0,6.948-3.118,6.948-6.948
		S71.755,66.331,67.925,66.331z"/>
	<path class="st0" d="M182.721,126.187c-7.877,0-14.252,6.366-14.252,14.235s6.375,14.244,14.252,14.244
		c7.869,0,14.252-6.375,14.252-14.244S190.59,126.187,182.721,126.187z"/>
</g>
</svg>