<?xml version="1.0" encoding="utf-8"?>

<!DOCTYPE svg PUBLIC "-//W3C//DTD SVG 1.1//EN" "http://www.w3.org/Graphics/SVG/1.1/DTD/svg11.dtd">

<svg height="800px" width="800px" version="1.1" id="_x32_" xmlns="http://www.w3.org/2000/svg" xmlns:xlink="http://www.w3.org/1999/xlink" 
	 viewBox="0 0 512 512"  xml:space="preserve">
<style type="text/css">
	.st0{fill:#000000;}
</style>
<g>
	<path class="st0" d="M252.558,292.496c0-16.436-13.327-29.764-29.764-29.764c-16.436,0-29.755,13.328-29.755,29.764
		c0,16.437,13.319,29.764,29.755,29.764C239.231,322.26,252.558,308.933,252.558,292.496z"/>
	<path class="st0" d="M295.255,262.732c-16.437,0-29.764,13.328-29.764,29.764c0,16.437,13.327,29.764,29.764,29.764
		c16.437,0,29.756-13.327,29.756-29.764C325.011,276.06,311.692,262.732,295.255,262.732z"/>
	<path class="st0" d="M257.881,323.478c-16.437,0-29.756,13.318-29.756,29.756s13.319,29.756,29.756,29.756
		c16.436,0,29.764-13.318,29.764-29.756S274.317,323.478,257.881,323.478z"/>
	<path class="st0" d="M118.299,392.738c-4.525-7.856,89.91-61.84,89.91-61.84s-37.234,1.826-60.598-11.723
		c-20.246,30.126-51.071,11.699-63.978,9.568c-3.529,65.155-67.862,17.836-61.387,37.044c8.004,23.751-2.526,67.779-20.798,90
		c-2.139,2.575-2.624,7.001,3.628,6.285c28.596-3.208,71.72,8.416,88.239,27.28c13.352,15.236,4.797-64.16,62.893-34.445
		c4.64-12.25,4.196-48.134,40.41-50.512c-2.295-25.552,20.361-58.261,20.361-58.261S122.832,400.587,118.299,392.738z"/>
	<path class="st0" d="M510.555,455.787c-18.271-22.22-28.801-66.249-20.797-90c6.474-19.209-57.858,28.11-61.387-37.044
		c-12.908,2.131-43.734,20.558-63.979-9.568c-23.364,13.549-60.606,11.723-60.606,11.723s94.442,53.983,89.909,61.84
		c-4.525,7.849-98.67-46.604-98.67-46.604s22.656,32.709,20.353,58.261c36.214,2.378,35.777,38.262,40.409,50.512
		c58.105-29.714,49.55,49.681,62.893,34.445c16.527-18.864,59.643-30.488,88.248-27.28
		C513.171,462.788,512.693,458.362,510.555,455.787z"/>
	<path class="st0" d="M183.537,160.179c8.49,9.954,40.187,26.81,24.861,59.709c23.676,13.023,41.347,45.839,41.347,45.839
		s-2.575-108.748,6.498-108.937c9.058-0.181,11.074,108.575,11.074,108.575s16.298-36.296,39.372-47.533
		c-16.683-32.241,14.266-50.397,22.36-60.696c-55.456-34.396,16.939-68.084-3.002-71.654c-24.689-4.393-56.921-35.309-68.948-61.453
		c-2.616-5.717-6.154-3.028-7.256,0.14c-9.592,27.132-41.849,58.894-66.316,64.308C163.735,92.86,237.487,123.488,183.537,160.179z"
		/>
</g>
</svg>