<?xml version="1.0" encoding="utf-8"?>

<!DOCTYPE svg PUBLIC "-//W3C//DTD SVG 1.1//EN" "http://www.w3.org/Graphics/SVG/1.1/DTD/svg11.dtd">

<svg height="800px" width="800px" version="1.1" id="_x32_" xmlns="http://www.w3.org/2000/svg" xmlns:xlink="http://www.w3.org/1999/xlink" 
	 viewBox="0 0 512 512"  xml:space="preserve">
<style type="text/css">
	.st0{fill:#000000;}
</style>
<g>
	<path class="st0" d="M511.885,328.618c0.246-3.99,0.084-9.008-0.363-14.603c-0.1-22.314-1.552-44.52-10.281-65.406
		c-18.076-43.2-60.173-60.581-104.692-60.581c-0.933,0-1.876,0-2.81,0c-18.94-1.166-38.399-0.61-56.876,0
		c-33.522,0-67.05,0-100.571,0c-0.131,0-3.249-9.1-6.553-18.648c-0.154-0.432-0.293-0.864-0.447-1.297
		c-3.165-9.122-6.375-18.308-7.209-20.06c-5.518-11.593-12.303-22.615-20.469-32.54c-17.02-20.686-39.896-35.937-65.583-43.586
		c-22.638-6.738-50.609-9.516-73.139-1.111c-4.901-0.74-9.363-3.142-14.009-5.503c-1.559-0.826-3.141-1.613-4.762-2.292
		c-4.029-1.791-8.328-3.172-13.284-3.172c-12.882,0-19.311,6.514-16.24,19.744c0.394,1.698,1.645,4.345,3.234,7.402
		c3.01,7.078,8.745,15.035,10.852,22.167c0.27,1.119,0.363,2.046,0.162,2.694c-1.691,5.48-3.388,10.96-5.079,16.44
		c-3.257,10.566-6.522,21.125-9.795,31.691C6.324,179.005-4.845,205.603,2.279,220.53c2.192,5.495,6.345,10.597,13.484,15.12
		c5.673,3.55,10.867,4.87,15.76,4.793c0.556,0.031,1.112,0.147,1.668,0.147c4.924,0,9.432-2.131,13.646-5.087
		c11.107-6.768,21.103-18.755,32.309-25.478c5.634-3.38,11.046-1.567,16.07,3.597c1.119,1.521,2.262,3.272,3.435,5.41
		c5.241,9.524,10.127,19.628,14.395,30.048c9.748,30.172,14.912,67.929,12.04,79.399c-5.781,23.108-14.526,45.685-23.804,67.752
		c-1.984,4.221-3.921,8.513-5.418,12.797c-0.186,0.424-0.363,0.865-0.549,1.289c-9.277,21.542,7.202,41.81,30.766,41.864
		c-1.459-0.008-3.581-0.008,0.039,0c1.613,0,0.98,0,0.023,0c2.57-0.008,5.14-0.718,7.703-1.914c5.48-1.42,10.451-4.5,13.901-9.965
		c1.143-1.806,2.277-3.604,3.412-5.403c8.868-11.137,17.536-26.212,25.833-40.9c6.013-9.517,12.026-19.034,18.03-28.55
		c1.652-2.608,3.821-6.761,6.367-10.837c6.577-8.181,12.72-12.45,18.308-9.578c33.252,17.088,84.408,15.537,117.713-0.718
		c0.594-0.293,1.25-0.301,1.906-0.324c0.355-0.008,0.726-0.039,1.066-0.016c4.106,0.625,9.223,5.503,14.533,12.257
		c0.518,0.803,1.034,1.613,1.551,2.424c7.016,11.052,14.032,22.105,21.048,33.158c3.504,6.252,6.159,11.176,7.332,13.02
		c6.468,10.188,12.937,20.377,19.412,30.573c12.419,19.558,45.122,21.156,56.645-0.548c10.111-18.779-11.06-47.769-18.084-64.194
		c-10.474-24.544-16.626-43.941-16.417-70.561c0.046-6.306-0.888-59.471,7.124-55.434c4.554,2.269,7.572,6.792,9.54,12.526
		c2.562,11.787,2.686,28.998,2.253,44.527c-0.602,6.592-1.32,12.342-1.713,16.225c-0.957,9.292-3.542,15.984,0.803,18.987
		c0.108,0.617,0.247,0.988,0.455,0.988c0.517,0,1.035,0,1.552,0c1.59,0.517,3.697,0.787,6.468,0.787c15.7,0,31.398,0,47.098,0
		c2.625,0,4.523-0.324,6.144-0.787c0.625,0,1.25,0,1.876,0c1.628,0,2.678-1.714,3.296-4.592
		C511.715,331.999,511.877,330.409,511.885,328.618z M17.654,220.083c-1.166-1.459-2.285-3.227-3.365-5.31
		c-0.826-2.871-0.934-6.561-0.455-10.836c2.014-8.414,7.224-18.771,9.068-24.715c4.794-15.428,9.578-30.858,14.333-46.294
		c1.297-4.206,9.107-19.536,6.375-24.274c-1.567-11.577-14-21.858-15.56-34.501c11.624-0.764,22.298,4.091,29.747,12.952
		c1.482,1.767,5.356,10.048,8.436,10.048c4.763,1.892,15.198-0.332,20.732,0.572c13.63,2.215,26.69,7.432,38.352,14.773
		c21.796,13.708,38.167,34.44,50.131,56.977c10.667,20.099,19.15,32.78,44.172,32.78c54.877,0,109.755,0,164.633,0
		c5.233,0,12.287-1.266,17.412,0c10.906,0,15.83,12.959,18.022,21.642c2.902,11.477-4.268,14.596-6.027,26.119
		c-0.518,3.372-0.742,6.861-1.043,10.327c-2.091,14.773-2.161,29.53-0.64,44.126c0.084,3.496,0.177,7.016,0.224,10.427
		c0.363,26.582,12.928,51.281,23.564,75.147c5.048,11.33,7.858,11.176-2.462,16.494c-6.9,3.558-13.808,7.108-20.708,10.659
		c-4.978,2.57-12.072-14.186-14.604-18.177c-10.728-16.88-33.027-69.766-57.734-69.766c-10.064,0.733-20.059,6.869-29.978,9.015
		c-22.746,4.924-47.823,5.156-70.4-0.872c-13.33-3.558-24.667-13.97-38.121-3.419c-8.244,6.452-13.53,17.058-19.056,25.81
		c-3.18,5.033-34.795,57.919-36.67,56.946c-10.242-5.272-20.477-10.536-30.719-15.807c-0.656-0.34,20.306-57,22.075-63.344
		c12.241-43.894-8.159-99.212-33.336-135.511c-23.147-33.375-54.986,28.071-77.724,23.764
		C23.505,224.929,20.61,223.023,17.654,220.083z"/>
	<path class="st0" d="M55.166,156.9c14.271,0,14.271-22.129,0-22.129C40.886,134.771,40.886,156.9,55.166,156.9z"/>
</g>
</svg>