<?xml version="1.0" encoding="utf-8"?>

<!DOCTYPE svg PUBLIC "-//W3C//DTD SVG 1.1//EN" "http://www.w3.org/Graphics/SVG/1.1/DTD/svg11.dtd">

<svg height="800px" width="800px" version="1.1" id="_x32_" xmlns="http://www.w3.org/2000/svg" xmlns:xlink="http://www.w3.org/1999/xlink" 
	 viewBox="0 0 512 512"  xml:space="preserve">
<style type="text/css">
	.st0{fill:#000000;}
</style>
<g>
	<path class="st0" d="M444.996,70.981l0.112-0.035c0,0,0.007-0.007,0.014-0.007L444.996,70.981z"/>
	<path class="st0" d="M508.305,102.187l0.007,0.006c-2.609-2.594-6.283-7.146-10.764-11.956c-4.517-4.818-9.951-9.978-16.627-13.99
		c-8.247-4.979-16.024-7.027-23.303-7.027h-0.014l-0.379,0.029c-4.088,0.028-7.98,0.645-11.718,1.578l-0.119,0.028l-0.056,0.021
		l-0.182,0.056l-0.042,0.014c-8.24,2.734-17.328,9.158-25.631,18.345c-8.282,9.214-15.645,21.29-19.404,35.441
		c-5.806,21.95-10.238,50.294-15.589,73.66c-2.665,11.655-5.574,22.062-8.8,29.495c-1.585,3.703-3.275,6.662-4.825,8.577
		c-1.557,1.956-2.896,2.756-3.674,2.952l-0.022,0.014l-1.697,0.231l-0.105-0.007c-2.034,0.042-5.435-1.262-9.685-3.962l-0.105-0.063
		c-13.065-8.106-33.303-26.971-68.268-26.95l-0.098,0.007c-6.22,0-12.89,0.575-20.043,1.894
		c-50.371,9.102-76.976,30.441-111.38,58.015c-11.101,8.9-20.638,16.388-30.133,21.522c-9.523,5.126-18.878,8.015-30.532,8.043
		c-3.437,0-7.069-0.26-10.968-0.814c-40.484-5.87-57.531-17.65-68.646-26.444l-0.007-0.014c-1.627-1.283-3.703-2.49-6.333-2.623
		v-0.014l-0.399-0.035c-1.69,0.014-3.338,0.54-4.713,1.571c-1.928,1.444-2.868,3.394-3.366,5.042L0.68,274.85
		c-0.498,1.704-0.674,3.443-0.68,5.252c0.042,6.536,2.279,14.965,6.879,23.969c4.544,8.857,11.528,18.128,21.325,25.652
		c1.389,1.332,42.005,38.926,128.652,56.444c-1.865,6.662-3.142,13.415-3.162,19.944c0,4.916,0.701,9.74,2.503,14.228
		c1.795,4.488,4.762,8.577,8.948,11.712l0.056,0.042l0.141,0.106l0.203,0.105v-0.006c2.622,1.76,5.645,2.398,8.556,2.398h0.014
		c5.954-0.05,12.279-2.322,19.138-5.772l0.014-0.007c13.857-7.097,29.93-19.741,43.184-34.067c4.004,0.084,8.058,0.154,12.194,0.154
		c27.37,0,57.532-2.209,90.386-7.181c-0.154,2.111-0.33,4.236-0.33,6.213c-0.007,16.305,4.803,28.394,11.142,36.424
		c3.156,4.018,6.69,7.019,10.196,9.074c3.506,2.034,7.034,3.218,10.526,3.246h0.021c2.02,0,4.27-0.434,6.276-1.83l0.007,0.007
		l0.084-0.056l0.091-0.063l0.19-0.154c34.235-28.001,49.011-69.263,49.088-100.566c22.504-32.672,27.56-68.569,27.552-101.346
		c-0.007-27.118-3.38-52.314-3.373-72.019v-0.098v-0.028v-0.253c-0.021-13.408,1.718-24.053,6.038-30.743l0.014-0.028
		c1.318-2.202,4.775-4.397,9.579-5.68h0.014c4.706-1.305,10.47-1.802,15.54-1.81l0.021,0.007h0.168c3.864,0,7.356,0.259,9.698,0.568
		l0.218,0.021l0.091,0.014h0.014v-0.014l1.62,0.091l0.05,0.007h0.084c5.196-0.021,9.684-2.378,12.882-5.519l0.007-0.014
		c3.149-3.142,5.406-7.342,5.462-12.083v-0.021C512,107.972,510.815,104.669,508.305,102.187z M499.967,116.647
		c-1.754,1.732-4.082,2.84-6.326,2.826l-0.905-0.056l0.022,0.007c-2.784-0.358-6.599-0.638-10.884-0.638
		c-5.694,0-12.209,0.49-18.204,2.132c-5.961,1.654-11.641,4.446-15.014,9.705c-5.961,9.481-7.462,21.816-7.49,36.01
		c0.014,20.708,3.38,45.715,3.373,72.138c-0.007,32.377-5,66.633-26.908,97.558l-0.68,0.961l0.022,1.178l0.014,1.598
		c0.035,28.443-13.85,67.426-45.484,93.239l-0.147,0.056l-0.778,0.077c-1.213,0.022-3.415-0.533-5.827-1.963
		c-7.307-4.278-16.704-15.772-16.718-37.44c-0.007-10.75,2.335-24.018,8.485-40.084l-6.704-2.566
		c-3.738,9.74-6.03,18.506-7.405,26.543c-34.32,5.449-65.54,7.742-93.766,7.742c-2.37,0-4.663-0.063-6.998-0.091
		c3.521-4.354,6.788-8.758,9.467-13.184l-6.157-3.703c-8.162,13.59-22.034,28.002-35.904,38.829
		c-6.929,5.414-13.864,9.95-20.021,13.078c-6.129,3.148-11.557,4.796-14.93,4.761c-1.69,0-2.742-0.364-3.394-0.813
		c-2.756-2.09-4.608-4.629-5.856-7.7c-1.242-3.078-1.83-6.711-1.823-10.729c-0.049-13.05,6.339-29.818,12.721-42.805l-6.452-3.155
		c-2.608,5.371-5.245,11.339-7.496,17.532c-43.548-8.43-75.343-22.076-96.233-33.647c-10.589-5.87-18.387-11.198-23.513-15.034
		c-2.566-1.922-4.467-3.471-5.708-4.53l-1.374-1.199l-0.33-0.302l-0.084-0.077l-0.141-0.134l-0.168-0.133
		c-8.738-6.592-15.014-14.93-19.074-22.826c-4.067-7.862-5.869-15.386-5.841-19.691c-0.007-0.849,0.07-1.515,0.168-2.034
		l0.176,0.112c11.788,9.481,31.339,22.468,73.162,28.394c4.292,0.61,8.373,0.905,12.279,0.905
		c13.267,0.014,24.48-3.471,34.979-9.173c10.511-5.701,20.385-13.534,31.521-22.433c34.656-27.7,58.92-47.279,107.222-56.121
		c6.627-1.22,12.728-1.746,18.367-1.746c21.122,0.021,35.834,7.356,47.643,14.916c5.898,3.786,11.024,7.643,15.877,10.673
		c4.846,3.002,9.509,5.35,14.733,5.386c1.402,0,2.834-0.182,4.242-0.589c3.374-0.961,6.122-3.212,8.436-6.094
		c4.046-5.084,7.132-12.349,9.937-21.114c8.324-26.213,13.618-66.192,21.024-94.074c3.296-12.468,9.909-23.345,17.314-31.584
		c7.349-8.218,15.596-13.766,21.543-15.694c3.24-0.799,6.374-1.283,9.572-1.283c5.61,0.014,11.466,1.43,18.59,5.694
		c5.54,3.317,10.4,7.854,14.614,12.363c4.229,4.509,7.763,8.948,10.982,12.181c0.687,0.715,0.926,1.374,0.954,2.37
		C502.702,112.671,501.727,114.936,499.967,116.647z"/>
</g>
</svg>