<?xml version="1.0" encoding="utf-8"?>

<!DOCTYPE svg PUBLIC "-//W3C//DTD SVG 1.1//EN" "http://www.w3.org/Graphics/SVG/1.1/DTD/svg11.dtd">

<svg height="800px" width="800px" version="1.1" id="_x32_" xmlns="http://www.w3.org/2000/svg" xmlns:xlink="http://www.w3.org/1999/xlink" 
	 viewBox="0 0 512 512"  xml:space="preserve">
<style type="text/css">
	.st0{fill:#000000;}
</style>
<g>
	<path class="st0" d="M283.689,86.511c-5.721-38.414-66.442-98.95-163.733-72.135C86.779,23.522,61.952,43.52,43.7,69.161
		c123.893,7.07,147.149,59.838,147.149,59.838l-13.14,21.743c-58.296-36.881-120.965-37.425-159.233-32.819
		C7.836,146.697,2.192,177.886,0.097,207.107c26.883-2.182,66.519-0.766,112.227,15.584l-6.614,30.986
		c0,0-43.846-12.744-105.71,5.362c1.475,21.181,4.762,46.319,8.98,72.29c43.574-10.949,81.378-5.722,81.378-5.722l6.663,30.694
		c-26.088-0.426-56.473,8.428-80.505,17.466c12.686,66.219,28.299,126.813,32.082,129.848c3.346,2.668,43.059-3.171,95.662-12.442
		c-5.664-41.032-21.714-77.507-21.714-77.507l26.494-4.732c13.248,29.201,20.551,55.948,24.595,76.954
		c20.948-3.831,43.098-8.011,65.23-12.268c-6.372-65.442-29.958-115.156-29.958-115.156l25.001-15.43
		c34.234,38.997,48.423,84.345,53.941,120.994c6.158-1.231,12.258-2.444,18.242-3.646c19.852-3.986,38.521-10.474,55.871-18.921
		c-25.7-113.264-98.921-181.898-98.921-181.898l33.962-22.015c61.264,57.277,90.716,128.48,104.75,179.677
		c27.843-20.638,50.973-46.25,68.75-73.24c-31.209-99.172-104.41-142.659-104.41-142.659l12.432-16.235
		c60.468,32.925,94.683,82.279,113.313,120.479c9.213-20.094,15.42-40.024,18.339-58.392
		C526.724,143.089,428.87,22.144,283.689,86.511z M173.199,268.486c-3.327,6.633-13.685,8.195-23.15,3.462
		c-9.456-4.733-14.45-13.946-11.124-20.589c3.317-6.644,13.674-8.186,23.14-3.453C171.531,252.63,176.525,261.852,173.199,268.486z
		 M242.812,309.548c-3.23,5.179-12.491,5.209-20.715,0.087c-8.224-5.12-12.278-13.47-9.058-18.639
		c3.22-5.16,12.501-5.208,20.715-0.078C241.978,296.038,246.031,304.378,242.812,309.548z M312.085,172.465
		c-2.279,4.277-10.881,4.122-19.202-0.34c-8.311-4.451-13.189-11.531-10.891-15.807c2.279-4.268,10.881-4.112,19.192,0.338
		C309.505,161.128,314.383,168.198,312.085,172.465z M208.131,198.863c-2.666,4.926-12.646,4.684-22.286-0.552
		c-9.621-5.247-15.265-13.481-12.578-18.407c2.676-4.927,12.646-4.676,22.286,0.552
		C205.184,185.693,210.817,193.927,208.131,198.863z"/>
</g>
</svg>