<?xml version="1.0" encoding="utf-8"?>

<!DOCTYPE svg PUBLIC "-//W3C//DTD SVG 1.1//EN" "http://www.w3.org/Graphics/SVG/1.1/DTD/svg11.dtd">

<svg height="800px" width="800px" version="1.1" id="_x32_" xmlns="http://www.w3.org/2000/svg" xmlns:xlink="http://www.w3.org/1999/xlink" 
	 viewBox="0 0 512 512"  xml:space="preserve">
<style type="text/css">
	.st0{fill:#000000;}
</style>
<g>
	<path class="st0" d="M474.437,155.864c-10.985-37.285-34.638-75.688-69.268-105.434C370.609,20.764,324.674,0,270.633,0
		c-54.04,0-99.976,20.764-134.536,50.43c-34.63,29.745-58.283,68.149-69.268,105.434c-1.762,5.926-2.646,12.105-2.646,18.196
		c0,16.278,6.491,31.749,17.155,44.66c16.121,19.48,41.215,34.474,73.285,45.138c0.321,0.078,0.72,0.243,1.042,0.322
		c0.595,0.196,1.229,0.368,1.832,0.556c-0.611,1.424-1.159,2.826-1.832,4.259c-9.224,20.201-23.333,40.644-39.125,56.6
		c-8.98,9.145-18.525,16.842-27.74,22.534c-9.223,5.77-18.204,9.536-25.579,11.062l-0.078,0.079
		c-16.842,3.766-28.226,18.603-28.226,35.194c0,2.568,0.243,5.214,0.806,7.86c3.766,16.756,18.682,28.218,35.194,28.218
		c2.646,0,5.292-0.321,7.86-0.877h0.079c22.846-5.136,43.697-16.114,62.456-30.066c14.031-10.586,27.021-22.934,38.726-36.478
		c11.627-13.554,21.97-28.226,30.786-43.697l0.242-0.399c6.412-11.471,12.105-23.418,16.756-35.602
		c0.579-1.542,1.017-3.132,1.566-4.69c2.678,0.25,5.371,0.478,8.057,0.674c0.188,0.015,0.383,0.023,0.572,0.031
		c-0.204,1.605-0.314,3.171-0.572,4.784c-4.095,26.785-14.195,55.323-27.02,79.298c-8.418,15.87-17.962,29.987-26.864,40.408
		c-4.408,5.129-8.66,9.458-12.261,12.583h-0.086c-3.523,3.132-6.733,5.136-8.096,5.778c-6.334,3.124-11.306,7.931-14.751,13.545
		c-3.366,5.614-5.214,12.191-5.214,18.76c0,5.457,1.206,10.985,3.774,16.121c6.335,12.668,19.16,19.958,32.305,19.958
		c5.458,0,10.985-1.199,16.122-3.767l0.078-0.078c8.339-4.173,15.87-9.545,22.846-15.558l0.087-0.078
		c12.261-10.585,23.645-23.732,34.309-38.725v-0.078c15.956-22.533,30.386-49.71,41.129-79.212
		c7.939-22.048,13.873-45.544,16.356-69.511c0.188-1.613,0.274-3.234,0.422-4.854c1.903-0.133,3.79-0.313,5.638-0.501
		c0.344,1.581,0.774,3.084,1.08,4.712c2.803,13.953,4.244,29.103,4.244,44.653v0.164c0,0.078,0,0.078,0,0.156
		c0,22.776-3.202,46.344-9.615,68.071c-6.334,21.805-16.035,41.77-28.382,57.884c-4.972,6.498-7.462,14.274-7.462,21.97
		c0,10.743,4.894,21.57,14.116,28.625c6.491,5.05,14.266,7.454,21.962,7.454c10.742,0,21.57-4.886,28.625-14.109
		c18.76-24.452,31.914-52.434,40.409-81.459c8.495-29.102,12.504-59.247,12.504-88.67c0-20.365-1.918-40.408-5.692-59.575
		c-0.306-1.528-0.729-2.976-1.058-4.487c0.345-0.11,0.713-0.212,1.058-0.329c10.186-3.445,19.644-7.29,28.303-11.619
		c18.118-9.146,32.869-20.044,43.619-33.034c10.663-12.911,17.154-28.382,17.154-44.66
		C477.084,167.968,476.2,161.79,474.437,155.864z M203.205,280.299c-3.766,9.059-8.096,18.118-13.068,26.855
		c-16.192,28.539-38.24,54.439-63.256,73.199v-0.079c-16.599,12.426-34.395,21.563-52.92,25.815l-0.321,0.078
		c-0.963,0.243-1.84,0.322-2.724,0.322c-5.449,0-10.421-3.844-11.706-9.458c-0.156-0.885-0.243-1.762-0.243-2.568
		c0-5.45,3.688-10.421,9.223-11.706c0.079,0,0.079,0,0.079,0c10.985-2.404,22.126-7.29,33.197-14.187
		c11.063-6.82,22.048-15.714,32.226-26.135c18.76-19.002,34.795-42.656,45.302-66.872c0.666-1.433,1.261-2.921,1.871-4.408
		c7.196,1.668,14.587,3.148,22.338,4.329c0.54,0.087,1.112,0.149,1.652,0.235C204.277,277.245,203.824,278.78,203.205,280.299z
		 M285.87,285.106c-2.489,20.364-7.697,40.565-14.673,59.81c-10.022,27.498-23.496,52.912-38.169,73.598
		c-9.779,13.874-20.044,25.5-30.387,34.481c-6.013,5.129-11.861,9.216-18.039,12.348c-1.762,0.877-3.523,1.276-5.371,1.276
		c-4.408,0-8.66-2.404-10.742-6.655c-0.877-1.762-1.284-3.524-1.284-5.371c0-4.408,2.412-8.66,6.655-10.743
		c4.009-2.004,8.26-4.886,13.068-9.137v0.078c4.816-4.165,9.866-9.301,14.994-15.314c10.108-11.94,20.364-27.177,29.588-44.418
		l0.157-0.235v-0.086c14.351-27.02,25.658-58.526,29.83-89.469c0.235-1.605,0.352-3.202,0.548-4.808
		c2.866,0.133,5.724,0.149,8.589,0.149c5.129,0,10.265-0.078,15.236-0.321c0.156-0.008,0.306-0.016,0.462-0.016
		C286.167,281.881,286.073,283.493,285.87,285.106z M358.106,409.62c-7.861,26.613-19.723,51.95-36.4,73.598
		c-2.404,3.124-5.935,4.729-9.544,4.729c-2.56,0-5.128-0.799-7.298-2.482c-3.124-2.404-4.729-5.934-4.729-9.544
		c0-2.56,0.807-5.128,2.49-7.297c14.508-18.916,25.25-41.528,32.39-65.738c7.132-24.295,10.578-49.952,10.578-74.968v-0.4
		c0-16.598-1.518-32.711-4.408-47.783c-0.289-1.613-0.72-3.077-1.049-4.651c0.344-0.062,0.705-0.102,1.049-0.164
		c7.807-1.3,15.299-2.842,22.526-4.651c0.321,1.542,0.744,3.014,1.05,4.572c3.288,16.92,4.885,34.795,4.885,52.92
		C369.646,355.016,365.959,383,358.106,409.62z M435.149,198.354c-10.022,12.261-28.938,24.773-55.394,33.91
		c-1.042,0.4-2.169,0.807-3.21,1.128c-6.256,2.083-12.825,4.009-19.879,5.692c-7.462,1.84-15.401,3.445-23.74,4.728
		c-5.206,0.877-10.578,1.605-16.113,2.161c-1.284,0.165-2.561,0.322-3.931,0.486c-0.477,0-0.955,0.078-1.44,0.078
		c-0.964,0.156-2.004,0.242-3.046,0.321c-6.812,0.642-13.788,1.119-21.006,1.362c-5.45,0.243-11.064,0.321-16.756,0.321
		c-2.404,0-4.807,0-7.219-0.078c-8.338-0.079-16.356-0.486-24.13-1.042c-0.798-0.086-1.605-0.164-2.326-0.243
		c-8.338-0.642-16.356-1.526-24.052-2.646c-8.26-1.206-16.113-2.646-23.653-4.408c-8.252-1.762-15.948-3.931-23.167-6.334
		c-9.944-3.132-18.925-6.82-26.778-10.742c-15.072-7.54-26.222-16.199-33.189-24.695c-6.976-8.581-9.866-16.521-9.866-24.295
		c0-2.967,0.399-6.013,1.362-9.223c9.059-30.864,29.666-64.617,59.333-90.033c29.745-25.414,67.984-42.733,113.686-42.733
		c45.702,0,83.941,17.319,113.686,42.733c29.666,25.416,50.274,59.168,59.332,90.033c0.963,3.21,1.362,6.256,1.362,9.223
		C445.014,181.834,442.125,189.774,435.149,198.354z"/>
</g>
</svg>