<?xml version="1.0" encoding="utf-8"?>

<!DOCTYPE svg PUBLIC "-//W3C//DTD SVG 1.1//EN" "http://www.w3.org/Graphics/SVG/1.1/DTD/svg11.dtd">

<svg height="800px" width="800px" version="1.1" id="_x32_" xmlns="http://www.w3.org/2000/svg" xmlns:xlink="http://www.w3.org/1999/xlink" 
	 viewBox="0 0 512 512"  xml:space="preserve">
<style type="text/css">
	.st0{fill:#000000;}
</style>
<g>
	<path class="st0" d="M510.991,107.933c-4.072-2.032-26.738-18.376-43.018-31.599c-16.287-13.232-34.324-8.088-34.324-8.088
		c-10.176-14.248-6.104-42.743-22.391-42.743c-17.296,3.056-18.312,28.495-8.136,52.918c-6.112,10.176-28.495,93.622-63.094,99.725
		c-42.613,7.523-27.479,6.112-66.15,6.112c-66.15,0-118.045,50.879-118.045,122.117c0,63.094-2.04,156.716-80.398,156.716
		c-32.567,0-36.631,0-59.022,0s-18.521,22.391-8.144,22.391c5.249,0,56.99,0,85.485,0c51.612,0,103.208-55.588,137.614-108.707
		c6.572,0.242,13.723-0.177,21.141-0.177c18.312,0,30.527,20.012,30.527,37.654c0,14.239,0,23.399,0,41.719
		c0,18.319,10.176,30.526,40.703,30.526c30.535,0,79.381,0,79.381,0c0-11.192-1.024-28.495-33.583-28.495
		c-32.567,0-46.307,0-46.307,0s-1.709-5.112,0-62.07c1.766-58.732-28.648-91.775-52.354-100.144c4.12-1.411,6.734-2.137,6.734-2.137
		c13.997,0.596,33.736,12.368,47.298,35.582c23.036-15.82,40.848-30.801,54.733-45l3.668,14.691
		c0.694,2.774,2.621,5.072,5.233,6.225l36.857,16.384c3.354,1.492,5.515,4.814,5.515,8.475v8.813c0,5.12,4.153,9.28,9.273,9.28
		c5.128,0,9.28-4.16,9.28-9.28v-18.28c0-3.693-1.33-17.231-11.667-22.399l-19.336-11.7c-2.967-1.29-5.047-4.032-5.491-7.24
		l-4.378-31.72c28.939-47.952,18.151-85.284,33.196-114.11c4.048-7.757,51.895-4.072,58.006-6.104
		C505.903,125.236,515.062,109.965,510.991,107.933z"/>
</g>
</svg>