<?xml version="1.0" encoding="utf-8"?>

<!DOCTYPE svg PUBLIC "-//W3C//DTD SVG 1.1//EN" "http://www.w3.org/Graphics/SVG/1.1/DTD/svg11.dtd">

<svg height="800px" width="800px" version="1.1" id="_x32_" xmlns="http://www.w3.org/2000/svg" xmlns:xlink="http://www.w3.org/1999/xlink" 
	 viewBox="0 0 512 512"  xml:space="preserve">
<style type="text/css">
	.st0{fill:#000000;}
</style>
<g>
	<path class="st0" d="M505.436,140.898c-7.428-19.551-20.362-36.366-36.383-50.561c-24.086-21.297-55.582-37.46-91.789-48.726
		l0.494,0.15l-0.511-0.159c-36.26-11.204-77.479-17.442-121.238-17.45c-33.348,0-65.214,3.634-94.523,10.304
		c-21.986,5.019-42.559,11.734-61.28,20.071c-27.984,12.483-52.052,28.469-70.102,48.549l-0.071,0.089
		c-8.999,10.066-16.516,21.262-21.792,33.577C2.947,149.077,0,162.46,0,176.25c0,41.95,5.929,82.048,17.328,118.864
		c17.115,55.175,46.635,103.187,87.394,137.753c20.362,17.283,43.53,31.099,68.992,40.53c25.461,9.44,53.111,14.451,82.294,14.451
		h0.054h0.229v-0.009c38.783-0.026,74.902-8.99,106.681-25.303c23.891-12.254,45.241-28.584,63.75-48.02
		c27.756-29.193,49.052-65.303,63.415-105.746C504.501,268.302,512,223.432,512,176.25C512,164.004,509.671,152.059,505.436,140.898
		z M376.717,94.113c7.004-2.779,15.933-1.129,19.956,3.714c4.041,4.861,1.659,11.02-5.328,13.825
		c-7.022,2.806-22.567,3.803-26.626-1.059C360.749,105.75,369.73,96.918,376.717,94.113z M384.904,142.266
		c8.046,0,14.592,4.552,14.592,10.128c0,5.602-6.546,10.11-14.592,10.11c-8.116,0-22.285-4.508-22.285-10.11
		C362.619,146.818,376.788,142.266,384.904,142.266z M361.93,189.783c4.041-4.843,19.586-3.873,26.556-1.067
		c7.022,2.77,9.405,8.955,5.364,13.798c-4.023,4.852-12.968,6.502-19.938,3.732C366.906,203.432,357.907,194.592,361.93,189.783z
		 M308.184,70.883c4.041-4.852,13.005-6.511,19.974-3.749c7.004,2.823,9.386,8.999,5.346,13.859
		c-4.024,4.835-16.763,11.072-23.768,8.267C302.75,86.49,304.162,75.719,308.184,70.883z M328.97,238.704
		c-7.675,3.07-17.539,1.253-21.985-4.102c-4.412-5.285-5.982-17.142,1.712-20.239c7.693-3.061,21.721,3.794,26.132,9.122
		C339.292,228.822,336.664,235.651,328.97,238.704z M309.102,120.068c7.005-2.752,15.934-1.093,19.974,3.732
		c4.041,4.844,1.623,11.046-5.346,13.799c-7.005,2.823-22.515,3.81-26.573-1.042C293.116,131.714,302.097,122.883,309.102,120.068z
		 M297.156,168.212c4.006-4.817,19.568-3.838,26.573-1.058c6.97,2.814,9.387,9.007,5.346,13.842
		c-4.04,4.843-12.969,6.485-19.974,3.697C302.097,181.905,293.116,173.065,297.156,168.212z M257.262,43.437
		c8.064,0,14.61,4.57,14.61,10.172c0,5.611-6.546,15.466-14.61,15.466c-8.099,0-14.627-9.854-14.627-15.466
		C242.634,48.007,249.162,43.437,257.262,43.437z M257.262,94.916c8.064,0,14.61,4.508,14.61,10.136
		c0,5.559-6.546,15.369-14.61,15.369c-8.099,0-14.627-9.81-14.627-15.369C242.634,99.424,249.162,94.916,257.262,94.916z
		 M257.262,184.375c8.064,0,14.61,9.793,14.61,15.378c0,5.593-6.546,10.119-14.61,10.119c-8.099,0-14.627-4.526-14.627-10.119
		C242.634,194.168,249.162,184.375,257.262,184.375z M257.262,243.635c10.075,0,18.28,12.316,18.28,19.312
		c0,7.013-8.205,12.713-18.28,12.713c-10.128,0-18.298-5.7-18.298-12.713C238.964,255.951,247.134,243.635,257.262,243.635z
		 M217.367,136.557c-4.058,4.852-19.603,3.865-26.591,1.042c-6.987-2.753-9.386-8.955-5.346-13.799
		c4.023-4.825,12.97-6.484,19.956-3.732C212.391,122.883,221.354,131.714,217.367,136.557z M205.386,184.693
		c-6.987,2.788-15.933,1.146-19.956-3.697c-4.04-4.835-1.64-11.028,5.346-13.842c6.988-2.78,22.533-3.759,26.591,1.058
		C221.354,173.065,212.391,181.905,205.386,184.693z M186.329,67.135c6.988-2.762,15.916-1.103,19.956,3.749
		c4.058,4.826,5.47,15.607-1.517,18.378c-7.005,2.805-19.78-3.432-23.786-8.267C176.943,76.133,179.342,69.957,186.329,67.135z
		 M179.642,223.485c4.412-5.328,18.457-12.183,26.15-9.122c7.711,3.097,6.14,14.954,1.694,20.239
		c-4.446,5.355-14.274,7.172-21.95,4.102C177.842,235.651,175.214,228.822,179.642,223.485z M151.87,152.394
		c0,5.602-14.186,10.11-22.268,10.11c-8.046,0-14.627-4.508-14.627-10.11c0-5.576,6.581-10.128,14.627-10.128
		C137.683,142.266,151.87,146.818,151.87,152.394z M135.424,213.551c-7.005,2.762-15.933,1.111-19.992-3.732
		c-4.041-4.834-1.606-11.01,5.382-13.816c6.97-2.797,22.515-3.768,26.573,1.059C151.41,201.914,142.394,210.737,135.424,213.551z
		 M114.639,92.799c4.006-4.808,12.951-6.467,19.956-3.706c7.005,2.806,15.986,11.637,11.945,16.507
		c-4.023,4.834-19.568,3.829-26.555,1.024C112.98,103.853,110.616,97.651,114.639,92.799z M456.083,296.676
		c-12.863,36.233-31.708,67.879-55.546,92.935c-15.898,16.691-33.984,30.481-54.064,40.777
		c-26.768,13.718-57.064,21.314-90.412,21.323h-0.054c-25.055-0.009-48.346-4.27-69.732-12.192
		c-21.386-7.931-40.866-19.524-58.175-34.213c-34.69-29.379-60.857-71.232-76.261-120.893c-4.517-14.584-7.94-29.934-10.534-45.744
		c2.964,2.938,6.122,5.823,9.51,8.646c25.744,21.517,63.381,39.304,108.022,49.926c29.766,7.093,62.639,11.028,97.169,11.028
		c45.313,0,87.783-6.803,124.097-18.571c36.33-11.743,66.503-28.523,87.271-47.818c1.288-1.19,2.347-2.434,3.564-3.634
		C467.605,258.713,462.629,278.289,456.083,296.676z"/>
</g>
</svg>