<?xml version="1.0" encoding="utf-8"?>

<!DOCTYPE svg PUBLIC "-//W3C//DTD SVG 1.1//EN" "http://www.w3.org/Graphics/SVG/1.1/DTD/svg11.dtd">

<svg height="800px" width="800px" version="1.1" id="_x32_" xmlns="http://www.w3.org/2000/svg" xmlns:xlink="http://www.w3.org/1999/xlink" 
	 viewBox="0 0 512 512"  xml:space="preserve">
<style type="text/css">
	.st0{fill:#000000;}
</style>
<g>
	<path class="st0" d="M392.247,1.021c-67.726-8.368-79.652,37.384-98.193,40.279c-11.958-3.978-24.756-6.143-38.049-6.143
		c-13.304,0-26.101,2.166-38.06,6.143c-18.542-2.887-30.467-48.647-98.188-40.279c-60.727,7.511-98.2,89.226-51.035,138.076
		c16.004,10.948,21.053-5.06,26.951,7.579c8.542,18.3,18.797,8.481,24.429,9.263c10.421,1.444,9.015,7.714,16.218,12.12
		c6.286,60.542,57.47,107.752,119.684,107.752c9.011,0,17.748-1.097,26.196-2.97c-5.586,6.324-12.752,11.233-21.696,11.233
		c-25.534,0-79.444,0-104.978,0c-39.714,0-41.609,58.64,0,58.64c17.023,0,48.238,0,48.238,0l0.943,39.722
		c0,0,17.023-16.076,33.098-16.083c8.511-0.008,7.394,11.677,0,14.188c-70.929,24.112-48.23,78.023-90.79,78.023
		c-35.94,0-36.884,53.436,2.838,53.436c31.207,0,70.929,0,70.929,0c26.955,0,42.561-40.669,59.583-43.504
		c179.786-17.511,137.56-172.527,70.485-239.023c13.522-17.309,22.436-38.384,24.827-61.414c7.202-4.406,5.797-10.676,16.225-12.12
		c5.624-0.782,15.88,9.037,24.421-9.263c5.899-12.639,10.955,3.368,26.952-7.579C490.443,90.247,452.969,8.532,392.247,1.021z
		 M129.039,110.946c-15.696,0-28.425-12.722-28.425-28.421c0-15.7,12.729-28.422,28.425-28.422c15.7,0,28.425,12.722,28.425,28.422
		C157.464,98.224,144.738,110.946,129.039,110.946z M192.047,165.908c-7.846,0-14.207-6.368-14.207-14.218
		c0-7.842,6.361-14.21,14.207-14.21c7.853,0,14.207,6.369,14.207,14.21C206.253,159.54,199.9,165.908,192.047,165.908z
		 M272.34,230.33h-32.68c-2.263,0-4.09-1.819-4.09-4.075c0-2.263,1.827-4.09,4.09-4.09h32.68c2.256,0,4.091,1.827,4.091,4.09
		C276.431,228.51,274.596,230.33,272.34,230.33z M282.273,190.54c-4.199,16.82-18.914,19.407-26.27,19.407
		c-7.358,0-22.072-2.587-26.275-19.407c-4.207-16.819,7.353-57.316,26.275-57.316C274.919,133.224,286.483,173.721,282.273,190.54z
		 M319.953,165.908c-7.846,0-14.207-6.368-14.207-14.218c0-7.842,6.361-14.21,14.207-14.21c7.853,0,14.207,6.369,14.207,14.21
		C334.16,159.54,327.806,165.908,319.953,165.908z M382.961,110.946c-15.696,0-28.425-12.722-28.425-28.421
		c0-15.7,12.729-28.422,28.425-28.422c15.696,0,28.425,12.722,28.425,28.422C411.386,98.224,398.657,110.946,382.961,110.946z"/>
</g>
</svg>