<?xml version="1.0" encoding="utf-8"?>

<!DOCTYPE svg PUBLIC "-//W3C//DTD SVG 1.1//EN" "http://www.w3.org/Graphics/SVG/1.1/DTD/svg11.dtd">

<svg height="800px" width="800px" version="1.1" id="_x32_" xmlns="http://www.w3.org/2000/svg" xmlns:xlink="http://www.w3.org/1999/xlink" 
	 viewBox="0 0 512 512"  xml:space="preserve">
<style type="text/css">
	.st0{fill:#000000;}
</style>
<g>
	<path class="st0" d="M358.408,347.678c0,0,2.348,75.11-9.389,143.188l21.125,7.042c0,0,21.124-89.194,11.736-143.188
		L358.408,347.678z"/>
	<path class="st0" d="M431.17,190.407c-1.043-1.356-2.156-2.599-3.251-3.895c0.852-0.895,6.764-7.128,12.884-17.142
		c3.199-5.216,6.433-11.45,8.919-18.56c2.486-7.076,4.242-15.066,4.242-23.654c0.017-7.32-1.304-15.066-4.469-22.707
		c-3.147-7.659-8.119-15.126-15.039-22.047c-12.397-12.379-19.456-23.158-23.455-32.122c-3.999-8.962-5.025-16.108-5.025-21.828
		c0-2.791,0.244-5.224,0.592-7.39c0.365-2.156,0.817-3.999,1.252-5.729c1.651-6.606-2.382-13.309-8.989-14.961
		c-6.607-1.652-13.318,2.364-14.97,8.98c-0.452,1.825-1.113,4.494-1.652,7.711c-0.522,3.234-0.938,7.068-0.938,11.388
		c0,8.884,1.774,19.82,7.198,31.913c5.424,12.127,14.395,25.367,28.531,39.494c4.852,4.851,7.824,9.519,9.684,14.014
		c1.844,4.477,2.59,8.85,2.608,13.284c0,5.172-1.078,10.458-2.851,15.482c-2.643,7.563-6.833,14.492-10.363,19.378
		c-1.756,2.452-3.321,4.398-4.433,5.686c-0.487,0.582-0.852,1-1.148,1.303c-32.253-26.732-72.051-32.582-109.832-19.282
		c5.598,13.614,10.292,28.862,11.91,44.276l0.973,9.119l-8.919,2.225c-2.608,0.661-5.668,0.973-9.336,0.973
		c-3.878,0-8.085-0.365-11.962-0.852l2.086,23.046l-51.048,2.842c-7.215,3.478-29.801,13.788-47.726,16.083
		c9.893,50.464,34.426,176.604,47.361,250.472h28.167V389.937l14.083,115.021h28.166c0,0-9.388-166.669,61.028-169.016
		c56.316-1.878,23.472,171.363,23.472,171.363L417.104,512C417.104,512,489.868,265.518,431.17,190.407z"/>
	<path class="st0" d="M273.908,218.574l-2.348-25.828c0,0,21.125,4.703,30.514,2.356c-4.695-44.606-37.556-89.202-37.556-89.202
		l-16.43-61.036l-42.266,42.25h-25.819h-25.82l-42.25-42.25L95.504,105.9c0,0-32.861,44.596-37.556,89.202
		c9.389,2.347,30.514-2.356,30.514-2.356l-2.347,25.828l42.25,2.348c0,0,32.861,16.43,51.639,16.43
		c18.794,0,51.655-16.43,51.655-16.43L273.908,218.574z"/>
</g>
</svg>