<?xml version="1.0" encoding="utf-8"?>

<!DOCTYPE svg PUBLIC "-//W3C//DTD SVG 1.1//EN" "http://www.w3.org/Graphics/SVG/1.1/DTD/svg11.dtd">

<svg height="800px" width="800px" version="1.1" id="_x32_" xmlns="http://www.w3.org/2000/svg" xmlns:xlink="http://www.w3.org/1999/xlink" 
	 viewBox="0 0 512 512"  xml:space="preserve">
<style type="text/css">
	.st0{fill:#000000;}
</style>
<g>
	<path class="st0" d="M256.004,0C157.423,0.008,77.544,79.887,77.536,178.468c0,56.388,0,88.108,0,119.822
		c0,9.044,0.934,17.146,2.778,24.49c2.73,11.023,7.639,20.195,13.266,27.659c2.346,3.121,4.79,5.931,7.256,8.629
		c-4.693,6.601-8.31,13.378-10.672,20.163c-3.896,11.135-4.878,21.967-4.878,31.841c0,17.616,0,28.193,0,28.193
		c-0.024,7.543,2.251,14.807,5.883,20.874c6.434,10.68,16.204,18.207,27.563,24.514c17.114,9.355,38.626,15.917,62.366,20.475
		c23.723,4.518,49.594,6.864,74.905,6.872c38.579-0.04,78.387-5.388,110.06-15.805c15.852-5.276,29.741-11.718,40.789-20.475
		c5.508-4.406,10.345-9.467,13.977-15.581c3.632-6.066,5.906-13.331,5.883-20.874c0,0,0-10.577,0-28.193
		c0-9.874-0.99-20.714-4.886-31.841c-2.354-6.793-5.97-13.562-10.664-20.18c4.454-4.846,8.796-10.169,12.588-16.651
		c3.337-5.731,6.107-12.284,7.934-19.62c1.844-7.343,2.778-15.445,2.778-24.49c0-31.714,0-63.435,0-119.822
		C434.457,79.887,354.586,0.008,256.004,0z M110.232,178.468c0.008-40.31,16.292-76.654,42.69-103.083
		c26.429-26.398,62.773-42.682,103.083-42.69c40.311,0.008,76.646,16.292,103.076,42.69c26.406,26.429,42.682,62.773,42.689,103.083
		c0,56.388,0,88.108,0,119.822c0,6.817-0.694,12.157-1.796,16.54c-1.676,6.57-4.127,11.151-7.727,16.012
		c-3.592,4.83-8.549,9.786-14.584,15.805l-4.238,4.239c-11.902,3.744-26.525,6.832-42.681,9.052
		c-21.632,2.993-46.042,4.51-70.779,4.51c-24.745,0-49.834-1.517-72.854-4.518c-18.207-2.379-35.034-5.739-49.362-9.882l-3.408-3.4
		c-8.095-8.038-14.073-14.128-17.817-20.658c-1.9-3.297-3.385-6.769-4.494-11.159c-1.102-4.383-1.796-9.723-1.796-16.54
		C110.232,266.576,110.232,234.856,110.232,178.468z M394.018,439.266c-0.024,1.27-0.256,2.37-1.317,4.206
		c-1.756,3.145-6.84,8.014-15.166,12.525c-12.42,6.864-31.322,12.963-52.755,17.018c-21.456,4.095-45.516,6.298-68.776,6.29
		c-35.425,0.04-72.806-5.188-99.81-14.152c-13.49-4.415-24.314-9.867-30.644-14.983c-3.185-2.539-5.204-4.909-6.258-6.698
		c-1.054-1.836-1.285-2.937-1.309-4.206c0,0,0-10.577,0-28.193c0-7.751,0.774-14.544,3.049-21.034
		c1.884-5.332,4.869-10.68,9.85-16.452c15.925,4.606,33.861,8.142,53.051,10.656c24.234,3.162,50.288,4.726,76.031,4.726
		s51.158-1.564,74.139-4.742c17.505-2.427,33.534-5.764,47.407-10.202c4.758,5.604,7.616,10.808,9.46,16.013
		c2.275,6.49,3.049,13.282,3.049,21.034C394.018,428.689,394.018,439.266,394.018,439.266z"/>
	<path class="st0" d="M256.004,311.221c63.58,0,115.129-51.541,115.129-115.128c0-63.595-51.549-115.137-115.129-115.137
		c-63.594,0-115.136,51.542-115.136,115.137C140.868,259.68,192.41,311.221,256.004,311.221z M206.69,273.809
		c-10.129-6.37-18.91-14.735-25.862-24.522l39.248-13.738L206.69,273.809z M256.004,288.193c-5.954,0-11.757-0.567-17.361-1.629
		l17.361-36.128l17.354,36.128C267.754,287.626,261.952,288.193,256.004,288.193z M346.755,180.432
		c0.934,5.1,1.349,10.345,1.349,15.661c0,7.647-0.918,15.015-2.69,22.103l-38.61-18.567L346.755,180.432z M307.362,119.639
		c11.2,7.503,20.627,17.433,27.563,29.056l-43,15.014L307.362,119.639z M331.174,249.287c-6.953,9.786-15.733,18.152-25.862,24.522
		l-13.386-38.259L331.174,249.287z M256.004,103.986c7.016,0,13.89,0.775,20.467,2.267l-20.467,42.578l-20.474-42.578
		C242.107,104.76,248.98,103.986,256.004,103.986z M204.639,119.639l15.437,44.07l-43-15.014
		C184.012,137.072,193.439,127.142,204.639,119.639z M163.897,196.093c0-5.316,0.416-10.56,1.349-15.661l39.96,19.197
		l-38.618,18.567C164.815,211.108,163.897,203.74,163.897,196.093z"/>
</g>
</svg>