<?xml version="1.0" encoding="utf-8"?>

<!DOCTYPE svg PUBLIC "-//W3C//DTD SVG 1.1//EN" "http://www.w3.org/Graphics/SVG/1.1/DTD/svg11.dtd">

<svg height="800px" width="800px" version="1.1" id="_x32_" xmlns="http://www.w3.org/2000/svg" xmlns:xlink="http://www.w3.org/1999/xlink" 
	 viewBox="0 0 512 512"  xml:space="preserve">
<style type="text/css">
	.st0{fill:#000000;}
</style>
<g>
	<path class="st0" d="M209.041,242.541c10.009-8.284,16.391-20.807,16.391-34.812c0-24.941-20.226-45.16-45.168-45.16
		c-13.788,0-26.134,6.189-34.418,15.932c-6.366-17.214-22.926-29.486-42.364-29.486c-24.94,0-45.159,20.227-45.159,45.168
		c0,24.941,20.219,45.168,45.159,45.168c0.274,0,0.54-0.016,0.806-0.024L24.985,386.965c-2.232,3.788-0.983,8.678,2.805,10.927
		l2.748,1.62c3.788,2.24,8.678,0.983,10.919-2.812l94.816-145.407c11.444,21.081,24.828,40.26,39.301,57.53l-34.352,56.304v52.525
		h14.626v-48.416l29.816-48.866c4.464,4.916,9.018,9.662,13.619,14.24l-14.143,40.824l0.702,82.51l14.626-0.129l-0.677-79.98
		l11.128-32.12c3.788,3.473,7.599,6.825,11.427,10.081l14.578,75.726l-3.538,70.608l14.618,0.734l3.626-72.373l-11.66-60.527
		c9.235,7.011,18.43,13.394,27.423,19.147l25.255,49.688L296.597,512l14.61-0.79l-4.118-76.29l-16.23-31.944
		c25.288,22.08,53.879,29.534,75.013,29.534c44.769,0,80.802-28.584,72.099-63.396C374.497,320.765,209.041,242.541,209.041,242.541
		z"/>
	<path class="st0" d="M293.873,244.604c26.335-13.168,249.812-114.954,179.954-184.345
		c-71.012-70.528-187.61,139.605-201.897,166.794C258.85,251.921,267.538,257.772,293.873,244.604z"/>
	<path class="st0" d="M487.872,253.613c-7.639-68.795-161.612-6.221-181.097,2.217c-17.834,7.72-15.69,14.642,4.198,18.978
		C330.869,279.143,495.383,321.288,487.872,253.613z"/>
	<path class="st0" d="M329.233,100.938C343.134,46.543,344.585-3.258,301.036,0.167C223.925,6.235,242.629,156.614,253,214.844
		C263.927,194.819,293.727,143.092,329.233,100.938z"/>
</g>
</svg>