<?xml version="1.0" encoding="utf-8"?>

<!DOCTYPE svg PUBLIC "-//W3C//DTD SVG 1.1//EN" "http://www.w3.org/Graphics/SVG/1.1/DTD/svg11.dtd">

<svg version="1.1" id="_x32_" xmlns="http://www.w3.org/2000/svg" xmlns:xlink="http://www.w3.org/1999/xlink" 
	 viewBox="0 0 512 512"  xml:space="preserve">
<style type="text/css">
	.st0{fill:#000000;}
</style>
<g>
	<polygon class="st0" points="87.782,387.68 188.96,428.576 194.888,413.901 93.711,373.015 	"/>
	
		<rect x="133.426" y="416.602" transform="matrix(-0.335 -0.9422 0.9422 -0.335 -254.4378 761.0066)" class="st0" width="15.82" height="107.382"/>
	
		<rect x="316.108" y="459.927" transform="matrix(-0.9272 -0.3746 0.3746 -0.9272 539.0723 1040.4717)" class="st0" width="109.114" height="15.827"/>
	
		<rect x="316.977" y="390.433" transform="matrix(0.9422 -0.3351 0.3351 0.9422 -112.0575 147.2467)" class="st0" width="107.372" height="15.82"/>
	<path class="st0" d="M393.84,16.268c-65.249,0-118.15,52.895-118.15,118.149c0,3.399,0.226,6.74,0.506,10.06h-40.288
		c0.169-2.616,0.396-5.223,0.396-7.878c0-65.254-52.902-118.14-118.15-118.14C52.901,18.459,0,71.345,0,136.599
		c0,60.505,45.512,110.311,104.152,117.252l114.462,162.106c-1.549,4.258-2.529,8.786-2.529,13.574
		c0,22.041,17.875,39.921,39.916,39.921c22.036,0,39.911-17.88,39.911-39.921c0-4.779-0.98-9.307-2.525-13.565l116.2-164.577
		C467.377,243.676,512,194.323,512,134.417C512,69.163,459.094,16.268,393.84,16.268z M118.155,189.775
		c-29.364,0-53.166-23.816-53.166-53.176c0-29.368,23.803-53.166,53.166-53.166s53.166,23.798,53.166,53.166
		C171.322,165.959,147.519,189.775,118.155,189.775z M201.999,311.836c-9.616,0-17.421-7.8-17.421-17.416
		c0-9.616,7.805-17.416,17.421-17.416c9.615,0,17.421,7.8,17.421,17.416C219.42,304.036,211.614,311.836,201.999,311.836z
		 M310.002,311.836c-9.635,0-17.436-7.8-17.436-17.416c0-9.616,7.801-17.416,17.436-17.416c9.615,0,17.416,7.8,17.416,17.416
		C327.418,304.036,319.617,311.836,310.002,311.836z M393.84,187.584c-29.369,0-53.171-23.798-53.171-53.167
		c0-29.358,23.802-53.176,53.171-53.176c29.36,0,53.167,23.818,53.167,53.176C447.007,163.786,423.2,187.584,393.84,187.584z"/>
</g>
</svg>