<?xml version="1.0" encoding="utf-8"?>

<!DOCTYPE svg PUBLIC "-//W3C//DTD SVG 1.1//EN" "http://www.w3.org/Graphics/SVG/1.1/DTD/svg11.dtd">

<svg height="800px" width="800px" version="1.1" id="_x32_" xmlns="http://www.w3.org/2000/svg" xmlns:xlink="http://www.w3.org/1999/xlink" 
	 viewBox="0 0 512 512"  xml:space="preserve">
<style type="text/css">
	.st0{fill:#000000;}
</style>
<g>
	<path class="st0" d="M173.825,168.478c5.197,14.218,8.81,41.316,11.192,67.133c5.774,0.949,11.378,2.348,16.761,4.197
		c-1.272-21.977-3.552-39.052-4.773-47.166c31.446,33.914,57.085,65.81,57.085,65.81l7.47-7.469
		c-26.385-45.445-68.752-91.898-85.836-109.864c102.885,27.462,188.594,57.552,188.594,57.552v-14.939
		C168.144,82.838,0,60.43,0,60.43v42.961c41.477,5.926,86.472,15.388,130.237,26.088
		C143.786,139.627,158.911,153.532,173.825,168.478z"/>
	<path class="st0" d="M308.276,127.68c33.626,28.022,170.01,16.813,140.123-13.073C418.504,84.712,325.089,105.264,308.276,127.68z"
		/>
	<path class="st0" d="M317.712,7.414c-41.68-7.029-105.886,63.876-106.582,91.889C254.777,102.636,359.4,14.435,317.712,7.414z"/>
	<path class="st0" d="M106.26,225.446c7.741-31.006-41.934-83.547-63.012-85.717C38.187,172.43,98.52,256.443,106.26,225.446z"/>
	<path class="st0" d="M510.775,243.844c-15.092-39.492-108.762-58.848-133.265-45.24
		C396.782,237.909,525.874,283.319,510.775,243.844z"/>
	<path class="st0" d="M167.212,252.848c-54.169,0-98.088,50.269-98.088,126.117c0,75.839,43.918,126.108,98.088,126.108
		c54.168,0,98.086-50.269,98.086-126.108C265.298,303.117,221.38,252.848,167.212,252.848z M115.841,348.137
		c-15.88-11.336,1.865-54.177,18.678-52.312C151.332,297.698,128.923,357.48,115.841,348.137z"/>
	<path class="st0" d="M286.3,254.391c-12.328,6.664-22.308,16.142-29.54,27.741c17.652,25.054,27.912,58.569,27.912,96.848
		c0,16.983-2.018,33.075-5.884,47.87c34.023,41.926,81.494,54.372,118.994,34.135c44.384-23.935,58.119-84.522,24.604-146.686
		C388.871,252.195,330.693,230.456,286.3,254.391z M314.024,324.813c-10.114,7.707-28.919-36.44-16.965-38.145
		C311.582,284.599,324.139,317.114,314.024,324.813z"/>
</g>
</svg>