<?xml version="1.0" encoding="utf-8"?>

<!DOCTYPE svg PUBLIC "-//W3C//DTD SVG 1.1//EN" "http://www.w3.org/Graphics/SVG/1.1/DTD/svg11.dtd">

<svg height="800px" width="800px" version="1.1" id="_x32_" xmlns="http://www.w3.org/2000/svg" xmlns:xlink="http://www.w3.org/1999/xlink" 
	 viewBox="0 0 512 512"  xml:space="preserve">
<style type="text/css">
	.st0{fill:#000000;}
</style>
<g>
	<path class="st0" d="M466.832,454.227l-29.047-30.606c-1.198-1.268-2.853-1.983-4.595-1.983c-1.742,0-3.405,0.715-4.604,1.974
		l-26.209,27.606c-1.199,1.259-2.862,1.974-4.604,1.974c-1.742,0-3.397-0.715-4.595-1.974l-26.201-27.606
		c-1.19-1.259-2.853-1.974-4.595-1.974c-1.742,0-3.405,0.715-4.604,1.974l-26.218,27.606c-1.19,1.259-2.854,1.974-4.595,1.974
		c-1.742,0-3.397-0.715-4.595-1.974l-10.458-11.01v-85c4.716,1.12,9.604,1.775,14.665,1.775c23.417,0,43.806-12.751,54.747-31.649
		c3.302,0.431,6.639,0.733,10.053,0.733c42.262,0,76.516-34.254,76.516-76.516c0-31.71-19.287-58.912-46.764-70.516
		c7.665-11.924,12.165-26.08,12.165-41.306c0-42.263-34.254-76.516-76.516-76.516c-8.82,0-17.252,1.569-25.14,4.311
		C326.3,28.486,294.521,0,256,0c-38.522,0-70.3,28.486-75.637,65.533c-7.888-2.751-16.329-4.32-25.149-4.32
		c-42.263,0-76.516,34.254-76.516,76.516c0,15.226,4.5,29.382,12.173,41.306c-27.486,11.613-46.763,38.806-46.763,70.516
		c0,42.263,34.253,76.516,76.516,76.516c3.414,0,6.751-0.302,10.053-0.733c10.94,18.898,31.33,31.649,54.747,31.649
		c5.052,0,9.949-0.655,14.656-1.775v85.25l-10.226,10.76c-1.198,1.259-2.853,1.974-4.595,1.974c-1.742,0-3.405-0.715-4.595-1.974
		l-26.236-27.615c-1.19-1.25-2.853-1.965-4.595-1.965c-1.742-0.009-3.397,0.707-4.595,1.965l-26.252,27.624
		c-1.199,1.258-2.863,1.974-4.604,1.974c-1.733,0-3.397-0.707-4.595-1.974l-26.288-27.632c-1.189-1.259-2.862-1.966-4.595-1.966
		c-1.733,0-3.396,0.707-4.595,1.966l-29.132,30.632c-1.12,1.181-1.75,2.741-1.75,4.371V512h425.146v-53.402
		C468.573,456.968,467.944,455.408,466.832,454.227z M285.072,425.578l-24.365,25.649c-1.198,1.25-2.853,1.965-4.595,1.965
		c-1.742,0-3.406-0.715-4.595-1.965l-24.598-25.882v-59.42c8.967,3.69,18.778,5.751,29.081,5.751c10.294,0,20.105-2.06,29.072-5.751
		V425.578z"/>
</g>
</svg>