<?xml version="1.0" encoding="utf-8"?>

<!DOCTYPE svg PUBLIC "-//W3C//DTD SVG 1.1//EN" "http://www.w3.org/Graphics/SVG/1.1/DTD/svg11.dtd">

<svg height="800px" width="800px" version="1.1" id="_x32_" xmlns="http://www.w3.org/2000/svg" xmlns:xlink="http://www.w3.org/1999/xlink" 
	 viewBox="0 0 512 512"  xml:space="preserve">
<style type="text/css">
	.st0{fill:#000000;}
</style>
<g>
	<path class="st0" d="M485.371,441.135c-6.431-8.475-16.078-14.092-27.611-15.913l0.004-0.007l-5.452-0.822
		c-0.776-0.392-1.433-0.638-2.275-0.953c-1.706-0.6-3.953-1.238-7.779-2.167c-39.894-17.657-77.83-47.338-112.771-88.214
		c-6.347-7.415-12.878-15.675-20.412-25.825c2.497-22.543,7.964-33.023,11.095-37.341c2.013-2.789,4.114-4.726,6.404-5.901
		c1.952-0.999,4.023-1.46,6.627-1.468c5.075,0,11.702,2.283,18.214,6.286c6.15,3.741,12.343,9.074,16.577,14.283
		c2.62,3.204,5.393,5.678,8.513,7.576c3.923,2.367,8.033,3.573,12.489,3.581c6.193,0,12.52-3.22,16.04-8.098
		c3.05-4.072,4.607-9.028,4.626-14.745c0-1.744-0.146-3.512-0.438-5.31c-2.451-15.236-7.353-29.174-14.564-41.422
		c-10.047-17.088-24.838-30.504-42.794-38.802c-11.948-5.502-27.334-8.552-43.343-8.582c-17.215,0.016-33.192,3.65-46.19,10.504
		c-6.474,3.381-12.309,7.745-17.284,12.87c-7.864-16.058-15.194-32.263-21.852-48.322c-11.787-28.414-20.208-52.862-25.202-68.376
		c-2.728-8.476-4.741-15.222-6.07-19.847l-1.987-7.169c-0.553-2.589-1.218-5.14-1.982-7.63l-0.204-0.784l-0.035,0.015
		c-3.738-11.786-9.796-22.274-17.795-30.703C159.013,6.362,145.451,0.023,131.529,0c-13.573,0-26.608,6.423-36.681,18.064
		C84.821,29.551,77.222,46.155,72.262,67.416c-2.778,11.956-7.438,37.396-7.442,73.416c0,32.202,3.788,64.757,11.268,96.843
		c-5.717,4.219-11.345,8.836-16.777,13.777c-13.534,12.286-24.065,29.013-31.302,49.713c-6.8,19.462-10.25,41.122-10.254,64.364
		c0.016,44.98,13.101,89.798,36.847,126.218c3.845,5.87,8.213,10.58,12.984,14.007c5.763,4.126,11.83,6.224,17.941,6.246h0.33
		c7.035,0,14.042-3.196,18.702-8.49c4.106-4.595,6.792-10.618,7.987-17.94c3.396-21.353,11.64-60.8,29.9-98.334l1.057,1.529
		l2.19-1.498l-2.167,1.53c30.607,43.934,68.18,76.589,111.673,97.042c33.968,15.997,72.014,24.45,110.016,24.45
		c26.646-0.008,47.165-3.988,60.354-7.622c5.155,2.013,13.265,4.748,22.186,6.139c2.39,0.369,4.767,0.553,7.307,0.553
		c11.641,0,22.398-4.987,29.478-13.638c6.242-7.538,9.689-17.395,9.704-27.784C494.242,458.131,491.084,448.603,485.371,441.135z
		 M273.332,208.67c10.142-5.386,22.882-7.791,35.199-7.776c12.996-0.03,25.528,2.705,33.423,6.401
		c15.56,7.238,25.587,17.91,32.367,29.358c6.162,10.434,9.386,21.422,11.072,30.527c-5.555-6.562-13.008-13.216-21.698-18.532
		c-9.12-5.533-19.574-9.69-30.627-9.728c-5.77-0.007-11.706,1.214-17.242,4.057c-8.344,4.257-15.432,12.009-20.592,23.119
		c-3.181,6.831-5.643,15.144-7.499,24.826c-13-19.209-24.63-38.887-35.106-58.326C256.544,221.316,263.739,213.818,273.332,208.67z
		 M95.254,72.764c4.423-19.086,10.808-31.718,17.362-39.172c6.623-7.46,12.939-9.934,19.105-9.988
		c6.911-0.031,14.483,3.558,21.096,10.504c6.581,6.899,11.928,16.973,14.237,28.582l0.043,0.215l0.053,0.216
		c0.096,0.338,19.225,74.2,61.918,158.604c3.596,7.099,7.422,14.292,11.352,21.506c-20.288-14.599-47.522-28.022-79.755-28.053
		c-19.289-0.031-40.104,4.964-61.633,16.996c-7.837-33.723-10.607-64.918-10.607-91.342C88.42,110.996,91.897,87.162,95.254,72.764z
		 M89.239,481.827c-0.534,3.381-1.591,5.209-2.228,5.893l-1.371,0.676c-0.653,0.016-2.213-0.322-4.303-1.828
		c-2.079-1.483-4.575-4.042-6.976-7.737c-22.478-34.4-33.016-75.598-33.001-113.302c-0.003-20.499,3.108-39.931,8.928-56.582
		c5.817-16.658,14.334-30.465,24.887-40.023c31.502-28.491,60.185-37.964,85.49-38.011c31.123-0.038,58.038,14.822,77.266,30.12
		c4.334,3.442,8.202,6.876,11.687,10.15c-2.063-0.184-4.13-0.376-6.166-0.376c-20.73,0.03-39.263,9.15-55.041,21.16
		c-15.813,12.055-29.148,27.199-39.705,40.539C110.188,381.35,95.221,444.992,89.239,481.827z M145.797,387.212l-0.024-0.03
		l4.184-2.912c0,0,0.008,0.007,0.011,0.015l0.012,0.016L145.797,387.212z M466.396,480.621c-2.704,3.126-6.066,5.063-11.564,5.132
		c-1.076,0-2.236-0.084-3.489-0.277c-5.401-0.829-10.891-2.49-14.936-3.957c-2.024-0.73-3.696-1.406-4.836-1.882l-1.295-0.569
		l-0.311-0.138L429.9,478.9l-2.789-1.314l-2.94,0.93c-13.714,4.341-34.48,8.183-58.959,8.168c-29.586,0-64.618-5.556-99.963-22.198
		c-35.34-16.658-71.088-44.349-102.348-89.175c-4.303-6.193-8.337-12.386-12.217-18.579c3.258-4.956,6.673-9.82,10.362-14.468
		c7.695-9.735,16.857-20.269,27.026-29.497c8.018,12.102,28.348,40.131,55.364,67.907c29.474,30.212,66.651,60.147,104.992,67.892
		l1.544-7.714c-37.792-7.469-76.874-39.878-106.578-71.611c-14.876-15.851-27.454-31.48-36.54-43.619
		c-4.544-6.07-8.213-11.265-10.857-15.16c-0.695-1.022-1.306-1.944-1.855-2.782c1.279-1.052,2.497-2.197,3.803-3.189
		c14.18-10.81,29.597-17.972,45.506-17.948l68.099,61.852c33.869,39.609,74.399,74.054,122.384,95.022l0.649,0.285l0.688,0.161
		c1.632,0.384,2.938,0.714,3.972,0.984l1.183,0.891c1.091,0.638,1.456,0.692,1.794,0.822l1.049,0.268
		c0.802,0.161,1.652,0.3,3.361,0.569c1.687,0.261,4.111,0.63,7.611,1.152l0.069,0.015l-0.096-0.015
		c6.024,0.976,9.747,3.526,12.408,6.923c2.628,3.404,4.027,7.914,4.019,12.47C470.657,472.784,469.044,477.478,466.396,480.621z"/>
</g>
</svg>