<?xml version="1.0" encoding="utf-8"?>

<!DOCTYPE svg PUBLIC "-//W3C//DTD SVG 1.1//EN" "http://www.w3.org/Graphics/SVG/1.1/DTD/svg11.dtd">

<svg height="800px" width="800px" version="1.1" id="_x32_" xmlns="http://www.w3.org/2000/svg" xmlns:xlink="http://www.w3.org/1999/xlink" 
	 viewBox="0 0 512 512"  xml:space="preserve">
<style type="text/css">
	.st0{fill:#000000;}
</style>
<g>
	<path class="st0" d="M86.963,212.632c11.073,0,38.78-7.789,80.831-7.789c42.05,0,69.761,7.789,80.831,7.789
		c17.933,0,32.465-14.536,32.465-32.465c0-17.922-14.532-32.465-32.465-32.465c-0.1,0-0.186,0.007-0.282,0.02
		c-2.016-15.996-15.64-28.386-32.178-28.386c-4.556,0-8.882,0.946-12.815,2.64c-5.417-14.378-19.284-24.601-35.557-24.601
		c-16.274,0-30.141,10.224-35.558,24.601c-3.929-1.694-8.255-2.64-12.811-2.64c-16.542,0-30.162,12.39-32.178,28.386
		c-0.096-0.013-0.189-0.02-0.284-0.02c-17.933,0-32.469,14.543-32.469,32.465C54.494,198.097,69.03,212.632,86.963,212.632z
		 M72.67,182.862l14.22,0.308l-12.42-12.204c-0.741-0.728-0.755-1.92-0.024-2.661c0.73-0.74,1.919-0.761,2.666-0.027l13.213,12.986
		l2.478-15.139c0.168-1.022,1.135-1.714,2.163-1.55c1.029,0.164,1.724,1.138,1.557,2.16l-2.908,17.766l9.144,8.982
		c9.273-1.468,21.436-3.339,36.226-4.539l-7.648-13.425l-17.285-3.586c-1.019-0.212-1.676-1.213-1.46-2.228
		c0.208-1.015,1.206-1.673,2.225-1.467l14.032,2.914l-6.864-12.061l-18.608-4.429c-1.012-0.24-1.636-1.262-1.396-2.263
		c0.24-1.014,1.255-1.646,2.27-1.398l15.177,3.62l-9.476-16.634c-0.518-0.905-0.199-2.05,0.703-2.571
		c0.905-0.514,2.056-0.199,2.571,0.706l9.668,16.97l5.06-15.482c0.319-0.994,1.382-1.529,2.372-1.207
		c0.988,0.322,1.526,1.392,1.203,2.38l-6.006,18.416c0.027,0.165,0.013,0.336,0,0.508l6.668,11.697l4.947-13.775
		c0.352-0.981,1.433-1.495,2.41-1.145c0.981,0.357,1.491,1.44,1.138,2.413l-6.036,16.813l8.512,14.933
		c7.052-0.486,14.622-0.809,22.75-0.856V174.75l-11.159-8.228c-0.84-0.617-1.018-1.796-0.397-2.633
		c0.617-0.836,1.793-1.014,2.633-0.397l8.924,6.582v-13.85c-0.069-0.048-0.147-0.061-0.216-0.123l-16.326-13.494
		c-0.802-0.672-0.911-1.858-0.25-2.66c0.668-0.802,1.855-0.912,2.657-0.247l14.135,11.697V137.63l-18.214-17.388
		c-0.755-0.713-0.778-1.906-0.062-2.66c0.716-0.747,1.912-0.782,2.66-0.062l15.616,14.9v-24.882c0-1.042,0.843-1.886,1.882-1.886
		c1.046,0,1.882,0.843,1.882,1.886v25.444l16.202-15.462c0.752-0.72,1.944-0.685,2.664,0.062c0.717,0.755,0.693,1.948-0.061,2.66
		l-18.804,17.944v13.692l14.721-12.178c0.806-0.665,1.992-0.555,2.66,0.247c0.662,0.802,0.548,1.988-0.253,2.66l-16.326,13.494
		c-0.236,0.206-0.514,0.315-0.802,0.37v14.028l9.51-7.007c0.84-0.617,2.019-0.439,2.64,0.397c0.617,0.837,0.435,2.016-0.401,2.633
		l-11.749,8.666v12.596c8.352,0.048,16.106,0.383,23.319,0.898l8.53-14.974l-6.034-16.813c-0.353-0.973,0.158-2.056,1.138-2.413
		c0.98-0.35,2.057,0.164,2.407,1.145l4.947,13.775l6.672-11.697c-0.014-0.171-0.031-0.343,0-0.508l-6.007-18.416
		c-0.326-0.988,0.213-2.057,1.204-2.38c0.991-0.322,2.056,0.213,2.372,1.207l5.053,15.482l9.67-16.97
		c0.515-0.905,1.67-1.221,2.575-0.706c0.902,0.521,1.218,1.666,0.703,2.571l-9.479,16.634l15.178-3.62
		c1.014-0.247,2.032,0.384,2.272,1.398c0.24,1.001-0.387,2.023-1.392,2.263l-18.612,4.429l-6.867,12.061l14.032-2.914
		c1.022-0.206,2.019,0.452,2.228,1.467c0.212,1.015-0.442,2.016-1.461,2.228l-17.285,3.586l-7.672,13.459
		c14.803,1.227,26.945,3.126,36.171,4.587l9.441-9.284l-3.119-17.511c-0.182-1.028,0.5-2.008,1.522-2.187
		c1.025-0.186,2.002,0.5,2.187,1.522l2.667,14.982l13.031-12.808c0.74-0.734,1.936-0.713,2.664,0.027
		c0.73,0.741,0.716,1.934-0.025,2.661l-12.249,12.04l14.07-0.144c1.039-0.014,1.889,0.823,1.903,1.865
		c0.01,1.036-0.826,1.892-1.868,1.906l-17.978,0.172l-7.607,7.48c4.738,0.734,8.673,1.276,10.648,1.262
		c1.045,0,1.888,0.843,1.888,1.886c0,1.042-0.843,1.879-1.888,1.879c-3.192,0-8.825-0.919-15.451-1.968
		c-14.725-2.318-36.857-5.814-65.38-5.814c-28.53,0-50.663,3.496-65.383,5.814c-6.62,1.049-12.253,1.968-15.448,1.968
		c-1.043,0-1.882-0.837-1.882-1.879c0-1.043,0.84-1.886,1.882-1.886c2.046,0.014,6.198-0.568,11.155-1.337l-7.305-7.179
		l-18.221-0.398c-1.042-0.027-1.865-0.884-1.841-1.926C70.771,183.664,71.635,182.842,72.67,182.862z"/>
	<path class="st0" d="M447.03,217.09c-0.096,0-0.181,0.013-0.274,0.013c-1.948-15.461-15.126-27.432-31.118-27.432
		c-4.402,0-8.588,0.912-12.39,2.544c-5.238-13.898-18.646-23.785-34.378-23.785c-15.736,0-29.146,9.887-34.385,23.785
		c-3.802-1.632-7.984-2.544-12.386-2.544c-15.996,0-29.171,11.972-31.118,27.432c-0.089,0-0.178-0.013-0.271-0.013
		c-17.34,0-31.392,14.062-31.392,31.396s14.053,31.389,31.392,31.389c10.706,0,37.498-7.529,78.16-7.529
		c40.655,0,67.454,7.529,78.16,7.529c17.337,0,31.389-14.056,31.389-31.389S464.367,217.09,447.03,217.09z M461.47,254.738
		l-17.382,0.171l-7.36,7.227c4.583,0.706,8.385,1.227,10.301,1.22c1.005,0,1.824,0.816,1.824,1.824c0,1.001-0.819,1.824-1.824,1.824
		c-3.088-0.021-8.536-0.899-14.94-1.899c-14.241-2.256-35.643-5.636-63.22-5.636c-27.587,0-48.989,3.38-63.226,5.636
		c-6.401,1-11.845,1.878-14.934,1.899c-1.011,0-1.824-0.823-1.824-1.824c0-1.008,0.813-1.824,1.824-1.824
		c1.974,0.007,5.989-0.556,10.785-1.296l-7.065-6.939l-17.618-0.384c-1.005-0.028-1.806-0.864-1.783-1.865
		c0.02-1.008,0.854-1.81,1.862-1.783l13.747,0.301l-12.008-11.8c-0.717-0.713-0.73-1.858-0.02-2.585
		c0.703-0.714,1.854-0.727,2.574-0.02l12.777,12.56l2.396-14.632c0.164-0.994,1.097-1.666,2.091-1.515
		c0.995,0.165,1.67,1.111,1.505,2.098l-2.808,17.182l8.838,8.681c8.972-1.42,20.727-3.23,35.027-4.388l-7.392-12.987l-16.716-3.469
		c-0.984-0.199-1.618-1.166-1.412-2.153c0.202-0.981,1.169-1.618,2.152-1.412l13.57,2.818l-6.64-11.663l-17.992-4.285
		c-0.977-0.227-1.58-1.214-1.347-2.194c0.233-0.981,1.213-1.584,2.194-1.344l14.676,3.489l-9.164-16.071
		c-0.497-0.878-0.192-1.996,0.682-2.489c0.874-0.494,1.988-0.198,2.485,0.679l9.345,16.414l4.892-14.975
		c0.309-0.953,1.337-1.481,2.294-1.166c0.96,0.315,1.477,1.338,1.166,2.304l-5.808,17.814c0.028,0.15,0.011,0.315,0,0.472
		l6.449,11.32l4.783-13.322c0.339-0.947,1.381-1.44,2.328-1.104c0.95,0.343,1.444,1.385,1.104,2.331l-5.838,16.264l8.228,14.439
		c6.815-0.472,14.141-0.788,21.999-0.836v-12.602l-10.789-7.954c-0.812-0.604-0.984-1.735-0.384-2.551
		c0.597-0.81,1.735-0.981,2.547-0.384l8.626,6.362v-13.384c-0.065-0.048-0.144-0.069-0.209-0.116l-15.784-13.062
		c-0.778-0.638-0.881-1.796-0.243-2.564c0.644-0.774,1.796-0.885,2.571-0.24l13.665,11.306v-13.308l-17.611-16.806
		c-0.73-0.7-0.755-1.852-0.062-2.571c0.692-0.734,1.851-0.761,2.574-0.069l15.098,14.406v-24.06c0-1.008,0.816-1.823,1.824-1.823
		c1.008,0,1.82,0.816,1.82,1.823v24.595l15.664-14.941c0.727-0.692,1.878-0.665,2.577,0.069c0.693,0.72,0.669,1.872-0.061,2.571
		l-18.18,17.34v13.24l14.234-11.773c0.775-0.645,1.927-0.534,2.568,0.24c0.641,0.768,0.534,1.926-0.24,2.564l-15.79,13.062
		c-0.23,0.185-0.497,0.295-0.772,0.35v13.569l9.195-6.781c0.812-0.597,1.95-0.426,2.547,0.384c0.596,0.816,0.425,1.947-0.384,2.551
		l-11.358,8.371v12.184c8.07,0.048,15.571,0.377,22.544,0.878l8.252-14.481l-5.834-16.264c-0.343-0.946,0.151-1.988,1.097-2.331
		c0.946-0.336,1.988,0.157,2.332,1.104l4.778,13.322l6.452-11.32c-0.014-0.157-0.031-0.315,0-0.472l-5.808-17.814
		c-0.312-0.966,0.206-1.988,1.162-2.304c0.961-0.315,1.986,0.213,2.298,1.166l4.885,14.975l9.352-16.414
		c0.497-0.878,1.611-1.173,2.489-0.679c0.871,0.494,1.176,1.612,0.679,2.489l-9.164,16.071l14.673-3.489
		c0.984-0.24,1.967,0.363,2.198,1.344c0.233,0.98-0.374,1.968-1.347,2.194l-17.995,4.285l-6.637,11.663l13.569-2.818
		c0.984-0.206,1.947,0.432,2.149,1.412c0.209,0.987-0.425,1.954-1.412,2.153l-16.713,3.469l-7.416,13.02
		c14.31,1.186,26.052,3.024,34.975,4.43l9.13-8.969l-3.017-16.942c-0.182-0.994,0.483-1.934,1.471-2.112
		c0.987-0.185,1.936,0.486,2.114,1.474l2.578,14.475l12.598-12.376c0.72-0.706,1.872-0.693,2.575,0.02
		c0.71,0.726,0.696,1.872-0.017,2.585l-11.844,11.628l13.6-0.13c1.004-0.014,1.83,0.795,1.837,1.803
		C463.287,253.895,462.477,254.724,461.47,254.738z"/>
	<path class="st0" d="M317.186,97.478c-2.568-1.104-5.396-1.722-8.372-1.722c-10.812,0-19.716,8.091-21.028,18.547
		c-0.066,0-0.124-0.013-0.189-0.013c-11.717,0-21.213,9.503-21.213,21.22c0,11.718,9.496,21.214,21.213,21.214
		c7.241,0,25.345-5.088,52.826-5.088c27.48,0,45.592,5.088,52.829,5.088c11.717,0,21.217-9.496,21.217-21.214
		c0-11.718-9.5-21.22-21.217-21.22c-0.066,0-0.12,0.013-0.186,0.013c-1.32-10.456-10.222-18.547-21.032-18.547
		c-2.976,0-5.801,0.617-8.376,1.722C360.121,88.092,351.06,81.4,340.423,81.4C329.791,81.4,320.724,88.092,317.186,97.478z
		 M331.9,126.59c-0.548-0.397-0.665-1.172-0.26-1.721c0.404-0.541,1.176-0.665,1.724-0.26l5.832,4.306v-9.057
		c-0.048-0.021-0.096-0.034-0.144-0.076l-10.666-8.824c-0.528-0.432-0.6-1.207-0.164-1.742c0.435-0.514,1.21-0.59,1.738-0.157
		l9.236,7.644v-8.996l-11.906-11.354c-0.494-0.466-0.508-1.254-0.041-1.741c0.47-0.494,1.251-0.514,1.741-0.048l10.206,9.743V88.044
		c0-0.686,0.552-1.234,1.227-1.234c0.682,0,1.234,0.548,1.234,1.234v16.627l10.587-10.107c0.49-0.466,1.268-0.446,1.742,0.048
		c0.47,0.487,0.453,1.275-0.042,1.741l-12.287,11.718v8.954l9.62-7.966c0.521-0.433,1.299-0.357,1.734,0.157
		c0.435,0.535,0.36,1.31-0.161,1.742l-10.672,8.824c-0.154,0.13-0.336,0.198-0.522,0.24v9.167l6.212-4.58
		c0.552-0.404,1.32-0.281,1.721,0.26c0.404,0.548,0.288,1.324-0.257,1.721l-7.676,5.664v8.234c5.455,0.027,10.525,0.254,15.236,0.59
		l5.578-9.784l-3.946-10.992c-0.23-0.638,0.106-1.351,0.744-1.577c0.638-0.226,1.344,0.11,1.578,0.748l3.232,8.995l4.357-7.645
		c-0.013-0.102-0.02-0.212,0-0.322l-3.925-12.04c-0.212-0.645,0.138-1.344,0.785-1.55c0.648-0.213,1.341,0.137,1.553,0.781
		l3.302,10.12l6.321-11.093c0.336-0.583,1.09-0.796,1.68-0.46c0.59,0.343,0.799,1.09,0.459,1.68l-6.195,10.874l9.922-2.372
		c0.661-0.158,1.327,0.254,1.484,0.912c0.154,0.665-0.253,1.33-0.912,1.488l-12.163,2.893l-4.487,7.886l9.17-1.906
		c0.668-0.144,1.32,0.288,1.457,0.96c0.14,0.658-0.288,1.316-0.956,1.453l-11.296,2.345l-5.012,8.797
		c9.675,0.802,17.608,2.036,23.638,2.996l6.171-6.068l-2.04-11.444c-0.12-0.672,0.329-1.31,0.998-1.433
		c0.668-0.124,1.306,0.329,1.43,1.001l1.742,9.784l8.516-8.365c0.483-0.48,1.261-0.473,1.741,0.014
		c0.477,0.486,0.466,1.261-0.013,1.741l-8.005,7.857l9.191-0.089c0.682-0.006,1.238,0.549,1.241,1.228
		c0.01,0.672-0.535,1.234-1.221,1.234l-11.745,0.124l-4.974,4.882c3.099,0.48,5.67,0.83,6.963,0.83c0.682,0,1.234,0.541,1.234,1.227
		c0,0.685-0.552,1.227-1.234,1.227c-2.088,0-5.77-0.597-10.1-1.275c-9.623-1.529-24.09-3.806-42.729-3.806
		c-18.643,0-33.107,2.276-42.73,3.806c-4.326,0.678-8.005,1.275-10.096,1.275c-0.682,0-1.23-0.542-1.23-1.227
		c0-0.686,0.549-1.227,1.23-1.227c1.338,0,4.049-0.377,7.292-0.878l-4.776-4.683l-11.906-0.274c-0.678-0.013-1.22-0.576-1.206-1.255
		c0.013-0.679,0.579-1.213,1.258-1.207l9.294,0.206l-8.118-7.974c-0.487-0.48-0.494-1.255-0.017-1.741
		c0.48-0.487,1.258-0.494,1.741-0.014l8.636,8.488l1.618-9.894c0.113-0.679,0.747-1.131,1.416-1.015
		c0.675,0.103,1.128,0.74,1.018,1.406l-1.899,11.615l5.972,5.869c6.064-0.96,14.011-2.18,23.678-2.962l-4.998-8.776l-11.3-2.345
		c-0.665-0.137-1.09-0.795-0.953-1.453c0.137-0.672,0.789-1.104,1.454-0.96l9.171,1.906l-4.488-7.886l-12.16-2.893
		c-0.658-0.157-1.066-0.823-0.912-1.488c0.157-0.658,0.823-1.07,1.488-0.912l9.918,2.372l-6.195-10.874
		c-0.336-0.59-0.13-1.337,0.459-1.68c0.594-0.336,1.348-0.123,1.68,0.46l6.318,11.093l3.308-10.12
		c0.208-0.644,0.902-0.994,1.55-0.781c0.647,0.206,0.997,0.905,0.788,1.55l-3.929,12.033c0.02,0.11,0.01,0.226,0,0.328l4.361,7.645
		l3.229-8.995c0.234-0.638,0.936-0.974,1.578-0.748c0.641,0.226,0.973,0.939,0.744,1.577l-3.946,10.992l5.561,9.763
		c4.607-0.329,9.558-0.542,14.872-0.569v-8.516L331.9,126.59z"/>
	<path class="st0" d="M173.837,317.063c12.955,0,23.456-10.497,23.456-23.456c0-12.952-10.501-23.456-23.456-23.456
		c-0.072,0-0.133,0.007-0.206,0.014c-1.453-11.554-11.296-20.501-23.247-20.501c-3.291,0-6.421,0.679-9.26,1.906
		c-3.911-10.388-13.932-17.772-25.688-17.772c-11.756,0-21.776,7.384-25.691,17.772c-2.842-1.227-5.966-1.906-9.256-1.906
		c-11.951,0-21.793,8.948-23.247,20.501c-0.069-0.007-0.134-0.014-0.206-0.014c-12.956,0-23.456,10.504-23.456,23.456
		c0,12.958,10.5,23.456,23.456,23.456c7.998,0,28.019-5.629,58.4-5.629C145.815,311.434,165.836,317.063,173.837,317.063z
		 M57.038,307.438c-0.755,0-1.361-0.597-1.361-1.351c0-0.755,0.606-1.365,1.361-1.365c1.481,0,4.477-0.411,8.063-0.967l-5.282-5.19
		l-13.162-0.281c-0.754-0.02-1.35-0.645-1.333-1.392c0.014-0.754,0.637-1.351,1.388-1.337l10.27,0.226l-8.971-8.818
		c-0.535-0.528-0.545-1.392-0.017-1.927c0.528-0.535,1.388-0.541,1.926-0.007l9.548,9.373l1.789-10.929
		c0.124-0.748,0.819-1.248,1.564-1.132c0.744,0.124,1.248,0.823,1.124,1.564l-2.101,12.842l6.606,6.479
		c6.702-1.055,15.486-2.406,26.175-3.27l-5.526-9.708l-12.486-2.585c-0.737-0.157-1.214-0.878-1.059-1.611
		c0.154-0.741,0.874-1.214,1.611-1.063l10.137,2.112l-4.96-8.715l-13.446-3.202c-0.727-0.172-1.179-0.912-1.004-1.639
		c0.168-0.734,0.905-1.186,1.638-1.014l10.964,2.619l-6.846-12.02c-0.374-0.644-0.14-1.48,0.51-1.851
		c0.652-0.377,1.485-0.151,1.855,0.508l6.983,12.266l3.658-11.19c0.233-0.713,0.998-1.104,1.711-0.871
		c0.716,0.233,1.107,1.001,0.87,1.714l-4.337,13.308c0.021,0.116,0.007,0.24,0,0.364l4.814,8.454l3.575-9.956
		c0.258-0.706,1.036-1.069,1.742-0.823c0.71,0.254,1.076,1.043,0.823,1.749l-4.361,12.149l6.147,10.786
		c5.094-0.35,10.566-0.59,16.438-0.624v-9.421l-8.064-5.938c-0.607-0.446-0.733-1.302-0.288-1.906
		c0.45-0.603,1.296-0.734,1.906-0.288l6.445,4.758v-10.01c-0.051-0.028-0.107-0.042-0.154-0.083l-11.797-9.756
		c-0.579-0.48-0.658-1.337-0.181-1.919c0.483-0.584,1.34-0.659,1.92-0.172l10.213,8.441v-9.942l-13.161-12.554
		c-0.546-0.521-0.562-1.385-0.045-1.926c0.518-0.542,1.382-0.57,1.923-0.049l11.283,10.765v-17.97c0-0.761,0.61-1.365,1.361-1.365
		c0.755,0,1.361,0.604,1.361,1.365v18.376l11.704-11.17c0.542-0.521,1.406-0.493,1.923,0.049c0.521,0.541,0.5,1.406-0.045,1.926
		l-13.582,12.952v9.901l10.634-8.798c0.579-0.486,1.44-0.411,1.92,0.172c0.476,0.582,0.397,1.439-0.182,1.919l-11.793,9.756
		c-0.171,0.138-0.374,0.22-0.579,0.268v10.127l6.87-5.06c0.607-0.446,1.457-0.315,1.903,0.288c0.449,0.604,0.319,1.46-0.288,1.906
		l-8.485,6.253v9.106c6.03,0.034,11.635,0.281,16.846,0.652l6.164-10.813l-4.364-12.149c-0.25-0.706,0.116-1.495,0.823-1.749
		c0.71-0.246,1.488,0.117,1.745,0.823l3.572,9.956l4.82-8.454c-0.014-0.124-0.024-0.247,0-0.364l-4.344-13.308
		c-0.233-0.713,0.158-1.481,0.871-1.714c0.717-0.233,1.485,0.158,1.718,0.871l3.647,11.19l6.99-12.266
		c0.37-0.659,1.203-0.885,1.858-0.508c0.651,0.371,0.878,1.207,0.503,1.851l-6.846,12.02l10.968-2.619
		c0.733-0.172,1.466,0.281,1.641,1.014c0.172,0.727-0.281,1.467-1.011,1.639l-13.442,3.202l-4.96,8.715l10.14-2.112
		c0.734-0.151,1.454,0.322,1.605,1.063c0.154,0.733-0.316,1.454-1.053,1.611l-12.49,2.585l-5.54,9.73
		c10.692,0.891,19.465,2.262,26.13,3.311l6.822-6.699l-2.259-12.664c-0.131-0.747,0.366-1.446,1.104-1.57
		c0.737-0.137,1.45,0.356,1.58,1.096l1.927,10.82l9.414-9.243c0.535-0.534,1.399-0.528,1.927,0.007
		c0.524,0.535,0.514,1.399-0.017,1.927l-8.849,8.687l10.162-0.095c0.75-0.007,1.364,0.596,1.371,1.351
		c0.01,0.754-0.593,1.364-1.344,1.378l-12.99,0.124l-5.499,5.402c3.425,0.528,6.267,0.912,7.696,0.912
		c0.754,0,1.361,0.61,1.361,1.365c0,0.754-0.607,1.351-1.361,1.351c-2.304,0-6.38-0.659-11.162-1.413
		c-10.642-1.687-26.631-4.204-47.238-4.204c-20.614,0-36.603,2.516-47.241,4.204C63.414,306.779,59.349,307.438,57.038,307.438z"/>
	<path class="st0" d="M197.231,75.325c7.238,0,25.345-5.094,52.826-5.094c27.48,0,45.592,5.094,52.829,5.094
		c11.718,0,21.214-9.503,21.214-21.221c0-11.71-9.497-21.214-21.214-21.214c-0.065,0-0.123,0-0.189,0.014
		c-1.316-10.456-10.219-18.554-21.028-18.554c-2.976,0-5.804,0.617-8.376,1.728C269.756,6.685,260.692,0,250.058,0
		c-10.635,0-19.699,6.685-23.24,16.078c-2.568-1.11-5.396-1.728-8.368-1.728c-10.812,0-19.716,8.097-21.032,18.554
		c-0.062-0.014-0.12-0.014-0.186-0.014c-11.717,0-21.217,9.504-21.217,21.214C176.015,65.822,185.514,75.325,197.231,75.325z
		 M187.89,55.866l9.294,0.206l-8.118-7.974c-0.483-0.48-0.49-1.262-0.013-1.749c0.477-0.486,1.258-0.486,1.741-0.013l8.636,8.488
		l1.618-9.894c0.11-0.672,0.744-1.125,1.413-1.015c0.675,0.11,1.131,0.741,1.018,1.412l-1.899,11.608l5.975,5.877
		c6.065-0.961,14.008-2.188,23.676-2.969l-4.995-8.77l-11.3-2.345c-0.665-0.144-1.093-0.796-0.956-1.46
		c0.14-0.665,0.792-1.098,1.457-0.96l9.171,1.906l-4.488-7.878l-12.163-2.893c-0.655-0.158-1.066-0.83-0.908-1.488
		c0.157-0.658,0.823-1.07,1.484-0.912l9.918,2.358l-6.194-10.861c-0.336-0.589-0.127-1.344,0.462-1.679
		c0.59-0.343,1.344-0.131,1.68,0.452l6.318,11.094l3.305-10.113c0.209-0.644,0.905-1.001,1.55-0.788c0.648,0.213,1,0.912,0.788,1.55
		l-3.925,12.04c0.02,0.11,0.01,0.213,0,0.329l4.357,7.645l3.232-9.003c0.23-0.638,0.936-0.973,1.574-0.747
		c0.641,0.226,0.973,0.939,0.744,1.584l-3.946,10.991l5.561,9.757c4.611-0.322,9.558-0.535,14.872-0.562v-8.523l-7.292-5.375
		c-0.548-0.404-0.665-1.172-0.264-1.721c0.404-0.555,1.176-0.666,1.724-0.26l5.832,4.299v-9.051
		c-0.045-0.027-0.096-0.041-0.141-0.075l-10.668-8.824c-0.524-0.439-0.596-1.214-0.164-1.741c0.436-0.521,1.213-0.59,1.738-0.158
		l9.236,7.645v-8.996l-11.903-11.36c-0.497-0.466-0.511-1.248-0.045-1.735c0.47-0.494,1.251-0.521,1.745-0.048l10.203,9.736V6.637
		c0-0.679,0.552-1.227,1.231-1.227c0.682,0,1.231,0.548,1.231,1.227v16.627l10.586-10.099c0.49-0.473,1.268-0.446,1.741,0.048
		c0.47,0.487,0.453,1.269-0.038,1.735l-12.29,11.724v8.948l9.62-7.96c0.524-0.432,1.299-0.363,1.734,0.158
		c0.436,0.528,0.364,1.302-0.161,1.741l-10.668,8.824c-0.158,0.13-0.336,0.199-0.524,0.24v9.167l6.215-4.58
		c0.548-0.405,1.317-0.295,1.721,0.26c0.404,0.548,0.288,1.316-0.257,1.721l-7.679,5.657v8.241
		c5.457,0.028,10.524,0.247,15.238,0.583l5.574-9.777l-3.946-10.991c-0.229-0.645,0.106-1.358,0.747-1.584
		c0.638-0.226,1.344,0.11,1.578,0.747l3.229,9.003l4.358-7.645c-0.01-0.116-0.017-0.22,0-0.329l-3.926-12.04
		c-0.209-0.638,0.141-1.337,0.786-1.55c0.647-0.213,1.344,0.144,1.552,0.788l3.305,10.113l6.318-11.094
		c0.336-0.583,1.09-0.795,1.684-0.452c0.586,0.336,0.795,1.09,0.456,1.679l-6.191,10.861l9.918-2.358
		c0.665-0.158,1.33,0.254,1.484,0.912c0.158,0.658-0.25,1.33-0.912,1.488l-12.16,2.893l-4.491,7.878l9.174-1.906
		c0.668-0.138,1.32,0.295,1.453,0.96c0.14,0.665-0.284,1.316-0.953,1.46l-11.296,2.345l-5.012,8.79
		c9.675,0.81,17.607,2.043,23.638,2.997l6.171-6.061l-2.04-11.451c-0.12-0.672,0.326-1.309,0.994-1.433
		c0.668-0.117,1.309,0.336,1.429,1.001l1.742,9.792l8.519-8.372c0.483-0.473,1.261-0.473,1.738,0.013
		c0.48,0.487,0.466,1.269-0.014,1.749l-8.005,7.857l9.191-0.089c0.682-0.007,1.238,0.541,1.244,1.22
		c0.007,0.679-0.538,1.242-1.22,1.242l-11.748,0.116l-4.971,4.889c3.096,0.48,5.666,0.829,6.962,0.823
		c0.679,0,1.231,0.548,1.231,1.234c0,0.679-0.552,1.227-1.231,1.227c-2.088-0.006-5.773-0.603-10.103-1.282
		c-9.623-1.522-24.09-3.798-42.726-3.798c-18.643,0-33.11,2.276-42.734,3.798c-4.326,0.679-8.004,1.276-10.093,1.282
		c-0.685,0-1.231-0.548-1.231-1.227c0-0.685,0.546-1.234,1.231-1.234c1.334,0.006,4.049-0.371,7.292-0.871l-4.776-4.696l-11.91-0.26
		c-0.678-0.014-1.22-0.576-1.203-1.255C186.649,56.394,187.211,55.859,187.89,55.866z"/>
	<path class="st0" d="M172.326,341.87c23.233,7.871,48.55,10.23,60.587,10.93c10.408,17.587,10.456,27.282,10.456,27.282h133.516
		c-11.272-18.279-23.199-31.506-35.373-41.68c0.614-5.636,2.479-11.203,6.963-14.426c22.729-16.332,44.036-44.739,44.036-44.739
		s-18.468,0-24.148,0c-3.819,7.343-9.452,12.98-15.907,17.402c-6.441-4.964-7.528-15.276-7.528-15.276l-7.813,1.419
		c0.425,6.829,3.918,14.125,6.648,18.896c-16.504,7.967-35.544,9.826-45.88,10.182c-30.192-14.021-58.948-23.469-80.08-58.191
		c-7.642-12.561-10.788-26.486-10.792-40.85c-10.216-1.173-22.064-2.112-35.386-2.263c-0.531,4.896-0.61,9.929-0.377,15.03
		c-13.134-3.956-18.31-14.529-18.31-14.529l-10.415,1.892c7.579,18.321,22.293,28.18,31.269,32.74
		c1.316,6.5,3.037,12.966,5.084,19.246c13.668,2.394,24.1,14.33,24.1,28.674c0,5.314-1.45,10.271-3.939,14.563
		c3.541,5.547,7.038,10.209,10.244,13.679c2.304,2.496,4.429,4.909,6.431,7.261c-34.255,15.146-68.928-11.526-68.928-11.526
		c-1.796,0,3.254-0.878-14.676-1.426c5.444,7.392,13.223,13.281,22.116,18.012c-9.4-0.706-24.862-4.011-38.215-17.066
		c0,0-4.734,0-8.523,0.48C107.484,317.585,130.293,348.686,172.326,341.87z"/>
	<path class="st0" d="M218.823,113.77c7.378,0.514,14.22,3.154,19.898,7.343c14.865-23.73,30.604-41.18,36.607-44.992l-18.464-2.846
		L240.53,90.684l-7.103-17.409l-8.523,2.846c0,0,4.262,10.648,2.839,19.884C227.174,99.7,223.749,105.85,218.823,113.77z"/>
	<path class="st0" d="M223.831,512h145.477c49.572-23.093,86.326-69.024,96.755-124.281H127.079
		C137.509,442.976,174.256,488.907,223.831,512z"/>
</g>
</svg>