<?xml version="1.0" encoding="utf-8"?>

<!DOCTYPE svg PUBLIC "-//W3C//DTD SVG 1.1//EN" "http://www.w3.org/Graphics/SVG/1.1/DTD/svg11.dtd">

<svg height="800px" width="800px" version="1.1" id="_x32_" xmlns="http://www.w3.org/2000/svg" xmlns:xlink="http://www.w3.org/1999/xlink" 
	 viewBox="0 0 512 512"  xml:space="preserve">
<style type="text/css">
	.st0{fill:#000000;}
</style>
<g>
	<path class="st0" d="M463.804,162.84h-0.324c-2.223-17.757-17.355-31.488-35.715-31.488c-5.056,0-9.863,1.034-14.238,2.904
		c-6.02-15.952-21.406-27.296-39.48-27.296c-18.072,0-33.455,11.343-39.479,27.296c-4.376-1.87-9.145-2.904-14.202-2.904
		c-18.392,0-33.492,13.73-35.752,31.488h-0.32c-19.902,0-36.039,16.132-36.039,36.03c0,19.906,16.137,36.047,36.039,36.047
		c6.274,0,17.318-2.223,32.807-4.446c0.021,0,0.041,0,0.062-0.008c18.885,15.838,55.838,30.766,46.267,46.382
		c-4.384,7.152-16.182,14.14-29.58,20.217c-49.535-42.756-146.108-62.9-74.407-177.472c24.314,2.55,41.022,6.488,49.272,6.488
		c19.615,0,35.535-15.92,35.535-35.538c0-19.611-15.92-35.498-35.535-35.498h-0.287c-2.223-17.494-17.105-31.02-35.219-31.02
		c-4.983,0-9.715,1.05-14.017,2.871C253.275,11.187,238.105,0,220.287,0c-17.79,0-32.959,11.187-38.873,26.894
		c-4.306-1.821-9.039-2.871-14.025-2.871c-18.106,0-33.021,13.525-35.211,31.02h-0.324c-19.614,0-35.502,15.887-35.502,35.498
		c0,19.618,15.887,35.538,35.502,35.538c8.427,0,25.713-4.117,50.958-6.668h0.013c-2.084,28.64,10.084,46.89,19.004,56.256
		c-0.004,0.016-0.008,0.033-0.013,0.041c-1.722,7.07-2.797,13.984-3.297,20.767c1.682,2.797,3.047,5.807,3.978,8.998
		c18.323,2.723,32.451,18.577,32.451,37.654c0,12.443-6.02,23.449-15.272,30.413c6.312,9.604,13.841,18.716,22.338,27.213
		c30.084,30.085,16.781,61.178-2.723,83.947h115.072c6.344-16.708,10.006-37.516,2.186-57.52c-0.004-0.008-0.008-0.024-0.016-0.033
		c22.317-15.042,43.695-32.815,45.623-46.709c1.058-7.628-1.693-13.304-6.664-18.15c4.65-7.242,11.163-19.348,14.443-34.324
		c0.004,0,0.008,0,0.008,0c26.787,2.542,45.04,6.955,53.862,6.955c19.902,0,36.039-16.142,36.039-36.047
		C499.843,178.972,483.706,162.84,463.804,162.84z M145.088,107.182c-1.292,1.189-7.283-2.764-15.493-10.294
		c-7.422-6.733-12.512-14.591-10.182-16.78c2.37-2.215,9.895,3.296,16.244,11.039C142.722,99.759,146.343,105.96,145.088,107.182z
		 M180.697,93.451c-1.866,0.854-7.03-5.774-13.34-17.207c-5.63-10.293-8.354-20.914-4.913-22.489
		c3.404-1.542,9.719,7.382,13.841,18.364C180.84,84.381,182.525,92.623,180.697,93.451z M304.947,91.147
		c6.348-7.743,13.877-13.254,16.211-11.039c2.329,2.19-2.764,10.047-10.146,16.78c-8.251,7.53-14.243,11.483-15.498,10.294
		C294.259,105.96,297.885,99.759,304.947,91.147z M264.319,72.119c4.126-10.982,10.4-19.906,13.845-18.364
		c3.404,1.575,0.714,12.196-4.954,22.489c-6.307,11.433-11.474,18.061-13.299,17.207C258.044,92.623,259.73,84.381,264.319,72.119z
		 M220.287,39.049c4.154,0,6.307,11.794,5.376,24.671c-1.042,14.271-3.121,23.277-5.376,23.277c-2.227,0-4.343-9.006-5.384-23.277
		C214.009,50.843,216.157,39.049,220.287,39.049z M208.079,155.934c-9.604-11.073-11.454-29.002-11.749-37.606
		c7.41-0.492,15.432-0.779,23.958-0.779c2.936,0,5.807,0.033,8.641,0.107C219.869,130.786,212.991,143.54,208.079,155.934z
		 M374.047,146.592c4.196,0,6.386,12.015,5.451,25.031c-1.042,14.518-3.191,23.63-5.451,23.63c-2.259,0-4.408-9.112-5.45-23.63
		C367.666,158.607,369.852,146.592,374.047,146.592z M315.346,161.551c3.478-1.623,9.863,7.447,14.021,18.611
		c4.663,12.442,6.348,20.791,4.482,21.661c-1.866,0.852-7.099-5.889-13.517-17.503C314.592,173.879,311.869,163.126,315.346,161.551
		z M297.704,215.733c-1.255,1.214-7.349-2.805-15.706-10.441c-7.492-6.848-12.697-14.772-10.294-17.035
		c2.37-2.255,10.006,3.347,16.424,11.228C295.338,208.236,298.996,214.511,297.704,215.733z M343.487,227.519
		c9.248-0.754,19.438-1.246,30.56-1.246c7.378,0,14.333,0.213,20.924,0.574c-2.982,8.063-8.428,16.716-18.192,23.015
		C365.8,243.882,353.329,237.411,343.487,227.519z M427.765,184.32c-6.385,11.614-11.655,18.356-13.516,17.503
		c-1.866-0.87-0.181-9.22,4.478-21.661c4.195-11.164,10.547-20.234,14.025-18.611C436.23,163.126,433.502,173.879,427.765,184.32z
		 M466.1,205.292c-8.357,7.636-14.414,11.655-15.71,10.441c-1.288-1.222,2.403-7.496,9.575-16.248
		c6.418-7.881,14.095-13.483,16.462-11.228C478.793,190.52,473.626,198.443,466.1,205.292z"/>
	<path class="st0" d="M248.661,346.684c2.317-25.319-5.852-26.082-17.404-35.186c-31.815,13.87-58.41,9.531-77.807-1.747
		c5.475-5.831,14.94-18.946,14.542-39.664c13.685,1.902,23.391,3.912,28.875,3.912c17.068,0,30.908-13.844,30.908-30.872
		c0-17.068-13.841-30.912-30.908-30.912c-0.107,0-0.18,0-0.283,0.033c-1.903-15.24-14.85-27.001-30.593-27.001
		c-4.339,0-8.46,0.894-12.192,2.477c-5.158-13.664-18.36-23.383-33.849-23.383c-15.489,0-28.686,9.719-33.816,23.383
		c-3.765-1.582-7.886-2.477-12.192-2.477c-15.739,0-28.723,11.762-30.622,27.001c-0.111-0.033-0.181-0.033-0.287-0.033
		c-17.072,0-30.876,13.844-30.876,30.912c0,17.028,13.803,30.872,30.876,30.872c8.641,0,27.972-5.02,56.798-6.774
		c0.066-0.008,0.136-0.008,0.202-0.008C114.179,340.672,201.607,360.561,248.661,346.684z M54.507,257.578
		c-1.075,1.042-6.312-2.403-13.447-8.972c-6.455-5.873-10.868-12.656-8.821-14.584c2.006-1.935,8.571,2.871,14.09,9.605
		C52.461,251.116,55.619,256.537,54.507,257.578z M85.489,245.636c-1.616,0.755-6.098-5.052-11.581-14.992
		c-4.912-8.965-7.246-18.176-4.269-19.537c2.973-1.361,8.423,6.414,12.012,15.994C85.633,237.706,87.101,244.882,85.489,245.636z
		 M193.57,243.628c5.52-6.734,12.081-11.54,14.132-9.605c2.005,1.928-2.408,8.71-8.862,14.584
		c-7.131,6.569-12.368,10.014-13.447,8.972C184.281,256.537,187.439,251.116,193.57,243.628z M158.248,227.1
		c3.584-9.58,9.039-17.355,12.012-15.994c2.973,1.362,0.648,10.572-4.269,19.537c-5.487,9.941-9.965,15.748-11.581,14.992
		C152.798,244.882,154.266,237.706,158.248,227.1z M156.091,268.586c-0.448,9.407-3.265,24.433-15.674,31.716
		c-11.725-10.466-19.152-23.26-21.424-33.726h0.955C133.614,266.576,145.691,267.438,156.091,268.586z M119.949,198.296
		c3.584,0,5.488,10.302,4.663,21.448c-0.898,12.443-2.727,20.267-4.663,20.267c-1.935,0-3.764-7.824-4.662-20.267
		C114.463,208.597,116.365,198.296,119.949,198.296z"/>
	<path class="st0" d="M402.319,395.452h-243.39c-6.73,0-13.021,3.338-16.81,8.891c-3.785,5.569-4.572,12.639-2.104,18.897
		l34.174,75.884c3.059,7.776,10.56,12.877,18.904,12.877h181.159c8.813,0,16.625-5.676,19.344-14.066l28.062-75.884
		c2.006-6.184,0.931-12.958-2.895-18.224C414.937,398.568,408.823,395.452,402.319,395.452z"/>
</g>
</svg>