<?xml version="1.0" encoding="utf-8"?>

<!DOCTYPE svg PUBLIC "-//W3C//DTD SVG 1.1//EN" "http://www.w3.org/Graphics/SVG/1.1/DTD/svg11.dtd">

<svg height="800px" width="800px" version="1.1" id="_x32_" xmlns="http://www.w3.org/2000/svg" xmlns:xlink="http://www.w3.org/1999/xlink" 
	 viewBox="0 0 512 512"  xml:space="preserve">
<style type="text/css">
	.st0{fill:#000000;}
</style>
<g>
	<path class="st0" d="M497.625,14.371C469.4-13.855,275.921,2.287,271.879,38.571c-4.025,36.268,15.132,62.472,15.132,62.472
		S152.73,209.628,34.819,388.009C-4.063,446.831-4.748,495.583,5.824,506.172c10.589,10.58,59.35,9.895,118.172-28.994
		c178.38-117.905,286.957-252.193,286.957-252.193s26.204,19.157,62.472,15.124C509.717,236.083,525.851,42.596,497.625,14.371z
		 M415.495,63.248c-10.02,10.021-21.844,14.422-26.446,9.829c-4.61-4.593-0.201-16.434,9.82-26.456
		c10.021-10.02,21.87-14.422,26.447-9.82C429.926,41.394,425.516,53.227,415.495,63.248z M465.383,113.135
		c-10.02,10.02-21.87,14.422-26.463,9.82c-4.584-4.602-0.184-16.426,9.837-26.447c10.021-10.02,21.854-14.43,26.438-9.829
		C479.797,91.264,475.404,103.114,465.383,113.135z"/>
</g>
</svg>