<?xml version="1.0" encoding="utf-8"?>

<!DOCTYPE svg PUBLIC "-//W3C//DTD SVG 1.1//EN" "http://www.w3.org/Graphics/SVG/1.1/DTD/svg11.dtd">

<svg height="800px" width="800px" version="1.1" id="_x32_" xmlns="http://www.w3.org/2000/svg" xmlns:xlink="http://www.w3.org/1999/xlink" 
	 viewBox="0 0 512 512"  xml:space="preserve">
<style type="text/css">
	.st0{fill:#000000;}
</style>
<g>
	<path class="st0" d="M284.649,201.107c-5.745-17.689-18.111-31.367-33.468-39.188c-12.287-6.263-26.752-4.313-26.752-4.313
		c-9.119,0.079-17.713-6.66-20.466-14.864c0,0-2.61-14.355-12.365-24.11c-12.19-12.182-29.012-19.718-47.616-19.718
		c-18.588,0-35.426,7.536-47.615,19.718c-9.756,9.755-12.366,24.11-12.366,24.11c-2.626,8.586-11.236,14.943-20.466,14.864
		c0,0-14.451-1.95-26.752,4.313c-15.342,7.829-27.723,21.5-33.468,39.188c-5.744,17.688-3.787,36.03,4.042,51.396
		c6.271,12.278,19.113,19.208,19.113,19.208c7.751,5.323,10.758,15.428,7.814,24.047c0,0-6.334,13.145-4.17,26.776
		c2.69,17.012,11.888,33.014,26.927,43.94c15.054,10.933,33.102,14.728,50.13,12.039c13.623-2.164,24.158-12.238,24.158-12.238
		c7.654-5.802,17.378-5.802,25.288,0c0,0,10.567,10.074,24.174,12.238c17.044,2.69,35.091-1.106,50.13-12.039
		c15.055-10.926,24.238-26.927,26.944-43.94c2.132-13.631-4.186-26.776-4.186-26.776c-3.199-8.992,0.175-19.098,7.83-24.047
		c0,0,12.828-6.931,19.098-19.208C288.436,237.137,290.394,218.796,284.649,201.107z M194.988,240.121
		c-2.244,0-4.361-0.541-6.239-1.496v0.024c-5.378,6.509-12.683,16.813-20.417,32.012c5.936,2.029,11.41,4.678,16.104,7.782
		l-4.392,4.026c-4.695-2.212-9.771-3.875-15.007-5.005c-3.056-0.66-6.143-1.114-9.262-1.384c-2.499-0.231-4.997-0.334-7.512-0.286
		c-1.433,0-2.865,0.055-4.281,0.151c-1.432-0.096-2.865-0.151-4.296-0.151c-2.483-0.048-4.997,0.055-7.496,0.286
		c-3.103,0.278-6.206,0.748-9.262,1.384c-5.252,1.13-10.312,2.793-15.007,5.005l-4.392-4.026c4.711-3.104,10.185-5.753,16.09-7.782
		c-7.719-15.199-15.039-25.503-20.402-32.012v-0.008c-1.878,0.939-3.995,1.48-6.239,1.48c-7.702,0-13.972-6.262-13.972-13.972
		c0-7.719,6.27-13.973,13.972-13.973c7.719,0,13.973,6.254,13.973,13.973c0,2.188-0.509,4.233-1.401,6.063l0.016,0.016
		c6.031,7.225,14.291,18.794,22.852,35.966c3.597-0.827,7.305-1.424,11.076-1.798v-41.998c-5.522-1.862-9.469-7.073-9.469-13.208
		c0-7.719,6.254-13.973,13.957-13.973c7.719,0,13.972,6.254,13.972,13.973c0,6.135-3.978,11.346-9.484,13.208v41.998
		c3.772,0.374,7.496,0.971,11.076,1.798c8.578-17.171,16.821-28.741,22.869-35.966v-0.008c-0.875-1.838-1.401-3.884-1.401-6.071
		c0-7.719,6.254-13.973,13.973-13.973c7.718,0,13.957,6.254,13.957,13.973C208.944,233.859,202.706,240.121,194.988,240.121z"/>
	<path class="st0" d="M461.25,312.898c-7.91-4.034-17.235-2.785-17.235-2.785c-5.872,0.063-11.411-4.281-13.177-9.565
		c0,0-1.687-9.254-7.973-15.532c-7.83-7.854-18.684-12.7-30.667-12.7c-11.968,0-22.821,4.846-30.667,12.7
		c-6.286,6.278-7.973,15.532-7.973,15.532c-1.703,5.523-7.225,9.628-13.177,9.565c0,0-9.31-1.249-17.235,2.785
		c-9.883,5.044-17.856,13.854-21.548,25.248c-3.708,11.394-2.436,23.203,2.594,33.102c4.042,7.918,12.318,12.374,12.318,12.374
		c4.997,3.437,6.922,9.93,5.029,15.485c0,0-4.074,8.466-2.673,17.25c1.718,10.973,7.639,21.262,17.33,28.296
		c9.692,7.05,21.326,9.501,32.29,7.758c8.769-1.392,15.564-7.885,15.564-7.885c4.934-3.732,11.188-3.732,16.296,0
		c0,0,6.796,6.492,15.564,7.885c10.965,1.743,22.614-0.708,32.29-7.758c9.692-7.034,15.612-17.323,17.363-28.296
		c1.369-8.784-2.705-17.25-2.705-17.25c-2.054-5.793,0.111-12.302,5.044-15.485c0,0,8.26-4.464,12.318-12.374
		c5.029-9.898,6.286-21.708,2.594-33.102C479.105,326.751,471.132,317.927,461.25,312.898z M425.06,363.275
		c-1.448,0-2.817-0.342-4.026-0.963v0.008c-3.47,4.194-8.164,10.83-13.145,20.617c3.819,1.313,7.336,3.016,10.36,5.021l-2.817,2.594
		c-3.024-1.424-6.302-2.49-9.66-3.23c-1.973-0.414-3.978-0.716-5.984-0.883c-1.606-0.152-3.214-0.223-4.822-0.191
		c-0.922,0-1.862,0.04-2.769,0.103c-0.923-0.064-1.846-0.103-2.768-0.103c-1.592-0.032-3.215,0.04-4.822,0.191
		c-2.006,0.174-4.011,0.478-5.984,0.891c-3.374,0.732-6.637,1.798-9.66,3.222l-2.817-2.594c3.04-2.005,6.557-3.708,10.36-5.021
		c-4.965-9.788-9.676-16.423-13.145-20.617l0,0c-1.209,0.613-2.578,0.955-4.01,0.955c-4.981,0-9.007-4.034-9.007-9
		c0-4.966,4.026-9.008,9.007-9.008c4.965,0,8.992,4.042,8.992,9.008c0,1.4-0.318,2.721-0.908,3.89l0.016,0.024
		c3.899,4.647,9.214,12.102,14.72,23.171c2.324-0.541,4.711-0.923,7.146-1.178v-27.03c-3.55-1.218-6.111-4.56-6.111-8.522
		c0-4.965,4.01-9,8.991-9c4.981,0,9.008,4.034,9.008,9c0,3.962-2.563,7.305-6.111,8.522v27.03c2.418,0.254,4.806,0.636,7.13,1.178
		c5.522-11.069,10.837-18.524,14.737-23.171v-0.016c-0.589-1.178-0.908-2.498-0.908-3.899c0-4.966,4.042-9.008,9.008-9.008
		s8.992,4.042,8.992,9.008C434.052,359.24,430.026,363.275,425.06,363.275z"/>
	<path class="st0" d="M403.99,205.134c0,15.022,12.191,27.213,27.23,27.213c15.023,0,27.197-12.19,27.197-27.213
		c0-15.024-12.174-27.222-27.197-27.222C416.181,177.913,403.99,190.111,403.99,205.134z"/>
	<path class="st0" d="M484.802,73.173c-15.039,0-27.229,12.19-27.229,27.213c0,15.024,12.19,27.214,27.229,27.214
		c15.024,0,27.198-12.19,27.198-27.214C512,85.363,499.826,73.173,484.802,73.173z"/>
	<path class="st0" d="M326.932,148.654c17.84,0,32.307-14.466,32.307-32.314c0-17.848-14.466-32.314-32.307-32.314
		c-17.856,0-32.322,14.466-32.322,32.314C294.611,134.188,309.077,148.654,326.932,148.654z"/>
	<path class="st0" d="M177.434,399.726c-10.742-1.703-19.829-6.422-26.195-10.614c-6.763,5.363-13.575,10.654-20.466,15.81
		c-9.358,6.986-18.811,13.79-28.375,20.315c-4.79,3.262-9.58,6.461-14.402,9.548l-7.21,4.544c-2.323,1.432-4.965,3.047-6.859,4.074
		l28.901,44.767c3.215-2.092,5.57-3.748,8.26-5.61l7.671-5.498c5.061-3.676,10.01-7.408,14.927-11.179
		c9.804-7.552,19.384-15.302,28.805-23.212c16.901-14.203,33.229-28.972,49.128-44.178c-6.573,1.528-13.336,2.331-20.227,2.331
		C186.744,400.824,182.049,400.458,177.434,399.726z"/>
	<path class="st0" d="M278.553,328.366c12.636-14.418,25.033-29.06,36.922-44.106c60.745-76.81,111.527-161.689,149.753-252.066
		l-19.797-8.363c-37.24,76.103-83.582,147.016-137.038,211.31c-1.4,9.326-4.233,18.46-8.641,27.11
		c-7.353,14.418-20.004,23.45-25.526,26.887c2.451,6.031,7.368,20.768,4.854,36.746
		C278.952,326.727,278.713,327.531,278.553,328.366z"/>
</g>
</svg>