<?xml version="1.0" encoding="utf-8"?>

<!DOCTYPE svg PUBLIC "-//W3C//DTD SVG 1.1//EN" "http://www.w3.org/Graphics/SVG/1.1/DTD/svg11.dtd">

<svg height="800px" width="800px" version="1.1" id="_x32_" xmlns="http://www.w3.org/2000/svg" xmlns:xlink="http://www.w3.org/1999/xlink" 
	 viewBox="0 0 512 512"  xml:space="preserve">
<style type="text/css">
	.st0{fill:#000000;}
</style>
<g>
	<path class="st0" d="M463.912,200.533h-43.636c-3.168,0-5.736,2.576-5.736,5.736c0,3.184,2.568,5.752,5.736,5.752h43.636
		c3.168,0,5.736-2.569,5.736-5.752C469.648,203.109,467.08,200.533,463.912,200.533z"/>
	<path class="st0" d="M464.511,229.03l-43.16-6.352c-3.137-0.459-6.056,1.712-6.515,4.849c-0.467,3.144,1.705,6.055,4.841,6.522
		l43.161,6.336c3.137,0.467,6.056-1.713,6.515-4.849C469.812,232.408,467.656,229.489,464.511,229.03z"/>
	<path class="st0" d="M295.682,137.99l-17.226,24.122c-1.836,2.561-1.23,6.157,1.339,8.002c2.576,1.844,6.164,1.245,8.018-1.339
		l17.209-24.114c1.845-2.576,1.246-6.158-1.331-8.002C301.107,134.814,297.526,135.422,295.682,137.99z"/>
	<path class="st0" d="M508.786,176.598c-3.113-7.347-8.282-13.552-14.79-17.949c-6.499-4.414-14.415-6.99-22.829-6.99h-0.833h-0.763
		l-1.55,0.351L388.9,168.596h-30.73c0.763-2.429,1.354-4.92,1.565-7.512c0.078-0.988,0.101-1.914,0.101-2.77
		c0-9.068-3.58-17.81-10.042-24.278l-17.038-17.047l-17.039-17.031c-6.476-6.461-15.21-10.056-24.278-10.056
		c-0.864,0-1.797,0.046-2.778,0.124c-0.031,0-0.062,0.008-0.093,0.008c-0.008,0-0.008,0-0.016,0
		c-9.994,0.833-19.117,6.009-24.97,14.151l-46.337,64.41H142.52c-16.758,0-37.456,0-53.934,0c-8.266,0-15.458,0-20.595,0
		c-2.048,0-3.659,0-4.99,0c-6.648-5.627-15.28-9.068-24.675-9.06c-21.172,0-38.319,17.14-38.327,38.312v1.401v1.23l12.01,31.89
		L0,266.765v2.476c0.015,21.163,17.155,38.296,38.319,38.311c1.58,0,3.051-0.21,4.531-0.412
		c2.989,11.496,7.098,22.424,12.438,32.559c13.56,25.702,34.132,46.422,59.25,60.581c25.094,14.174,54.688,21.818,86.423,21.818
		c14.042,0,27.414-1.993,40.032-5.565c18.938-5.347,36.101-14.19,51.622-24.986c13.046-9.076,24.885-19.569,35.828-30.636
		l35.378,32.933c4.764,4.413,10.897,6.904,17.295,7.27l0.405,0.156h1.198c0.81,0,1.619-0.07,2.429-0.14h0.008h0.389l0.397-0.047
		c8.087-0.942,15.342-5.394,19.848-12.15l8.85-13.303l8.476-12.719l0.016-0.015l0.366-0.56c3.051-4.577,4.655-9.932,4.655-15.35
		c0-2.592-0.374-5.161-1.082-7.636c-2.226-7.83-7.791-14.268-15.21-17.63l-1.323-0.592l-36.304-16.478v-6.266
		c2.685-4.717,4.57-8.219,5.488-9.947c2.04-2.709,4.024-4.842,5.963-6.492c3.222-2.739,6.172-4.296,9.488-5.394
		c3.3-1.066,6.896-1.564,11.068-1.564h0.171c4.46,0,9.543,0.654,14.977,1.681l40.545,16.47l1.346,0.281l-0.14-0.031l0.226,0.046
		c2.599,0.514,5.207,0.756,7.799,0.756c9.403,0,18.595-3.254,25.966-9.332c9.41-7.745,14.867-19.304,14.867-31.502V192.5
		C512,186.896,510.864,181.502,508.786,176.598z M282.106,117.511c1.97-2.732,5.045-4.468,8.392-4.74h0.023l0.918-0.039
		c3.028,0,5.971,1.207,8.119,3.379l17.047,17.039l17.031,17.039c2.171,2.156,3.37,5.082,3.37,8.126l-0.031,0.926
		c-0.28,3.363-2.008,6.429-4.74,8.391l-9.605,6.912l0.608,0.818h-82.734L282.106,117.511z M119.48,218.902
		c7.605,0,13.777,6.173,13.777,13.785c0,7.598-6.172,13.778-13.777,13.778c-7.612,0-13.777-6.18-13.777-13.778
		C105.703,225.075,111.868,218.902,119.48,218.902z M54.362,269.24c-0.023,8.85-7.184,16.018-16.034,16.034
		c-8.516-0.016-15.396-6.648-15.941-15.03l13.31-38.164l-13.295-35.346c0.584-8.32,7.442-14.906,15.926-14.922
		c8.85,0.016,16.012,7.176,16.034,16.034l10.594,34.335L54.362,269.24z M317.974,338.975c-15.692,16.72-33.19,31.874-52.602,42.741
		c-9.706,5.448-19.88,9.823-30.59,12.843c-10.71,3.036-21.934,4.702-33.82,4.702c-37.448-0.008-70.552-11.972-95.235-32.738
		c-12.345-10.384-22.588-22.978-30.24-37.479c-6.282-11.909-10.695-25.181-13.162-39.549c1.985-2.351,3.721-4.904,4.958-7.768
		c2.125,0.654,4.11,1.378,5.97,2.25c2.444,1.176,4.803,2.561,7.402,4.078c3.892,2.273,8.368,4.873,14.074,6.842
		c2.864,0.988,6.009,1.798,9.496,2.35c3.487,0.576,7.316,0.88,11.574,0.88c4.312,0,8.204-0.319,11.746-0.895
		c6.18-1.004,11.279-2.848,15.568-4.911c3.238-1.557,6.009-3.2,8.562-4.686c3.853-2.249,7.192-4.141,11.208-5.519
		c2.016-0.701,4.219-1.284,6.796-1.697c2.599-0.412,5.557-0.662,9.037-0.662c3.541,0,6.522,0.256,9.137,0.677
		c4.578,0.763,7.971,1.993,11.224,3.542c2.444,1.176,4.811,2.561,7.418,4.078c3.876,2.273,8.352,4.873,14.066,6.842
		c2.856,0.988,6.001,1.798,9.488,2.35c3.495,0.576,7.317,0.88,11.574,0.88c4.328,0,8.204-0.319,11.746-0.895
		c6.188-1.004,11.294-2.848,15.584-4.911c3.222-1.557,5.993-3.2,8.546-4.686c3.869-2.249,7.192-4.141,11.216-5.519
		c2.017-0.701,4.219-1.284,6.796-1.697c2.592-0.412,5.557-0.662,9.037-0.662c3.541,0,6.53,0.256,9.146,0.677
		c4.569,0.763,7.955,1.993,11.217,3.542c2.452,1.176,4.802,2.561,7.418,4.078c3.892,2.273,8.352,4.873,14.066,6.842
		c0.934,0.327,1.906,0.623,2.903,0.895c-0.755,1.254-1.54,2.538-2.342,3.846c-3.884,6.297-8.438,13.271-13.373,20.121
		C328.646,326.591,323.33,333.285,317.974,338.975z M402.436,342.516c1.316,0.592,2.288,1.728,2.686,3.114l0.187,1.354
		c0,0.949-0.288,1.892-0.818,2.7l-8.85,13.287l-8.85,13.287c-0.802,1.191-2.078,1.978-3.51,2.156l-0.561,0.024
		c-1.238,0-2.428-0.459-3.347-1.316l-40.545-37.72c2.786-3.464,5.464-7.02,8.025-10.586c2.125-2.935,4.14-5.869,6.079-8.756
		L402.436,342.516z M489.163,253.353c0,5.379-2.398,10.47-6.546,13.894c-3.246,2.677-7.309,4.102-11.45,4.102
		c-0.934,0-1.884-0.093-2.818-0.241l-40.577-16.494l-0.755-0.148c-6.78-1.308-13.723-2.312-20.775-2.327
		c-1.829,0.015-3.658,0.085-5.48,0.233v-62.932l71.074-14.898c2.257,0.078,4.374,0.537,6.328,1.37
		c3.215,1.354,5.986,3.643,7.932,6.523c1.938,2.895,3.059,6.312,3.067,10.064V253.353z"/>
</g>
</svg>