<?xml version="1.0" encoding="utf-8"?>

<!DOCTYPE svg PUBLIC "-//W3C//DTD SVG 1.1//EN" "http://www.w3.org/Graphics/SVG/1.1/DTD/svg11.dtd">

<svg height="800px" width="800px" version="1.1" id="_x32_" xmlns="http://www.w3.org/2000/svg" xmlns:xlink="http://www.w3.org/1999/xlink" 
	 viewBox="0 0 512 512"  xml:space="preserve">
<style type="text/css">
	.st0{fill:#000000;}
</style>
<g>
	<path class="st0" d="M379.59,0.078c-44.845,2.717-58.493,43.527-52.997,89.682c13.586,114.144-20.275,140.745-20.275,140.745
		h-21.737c0-36.685,5.318-165.199-39.518-197.822c-44.845-32.605-93.761,12.24-73.378,65.228
		c20.383,52.997,47.669,136.673,35.437,148.906c0,0-28.534,4.079-57.45,73.066c-6.726,16.035-21.781,26.138-35.072,36.07
		c-2.566-0.704-5.247-1.105-8.036-1.105c-16.882,0-30.574,13.683-30.574,30.574c0,13.897,9.283,25.612,21.986,29.326
		c40.088,79.357,111.792,89.138,153.306,97.049c211.985,8.152,154.241-232.368,154.241-232.368
		C470.813,42.652,416.435-2.158,379.59,0.078z M265.552,363c-11.261,0-20.383-9.122-20.383-20.383
		c0-11.26,9.122-20.383,20.383-20.383c11.26,0,20.383,9.122,20.383,20.383C285.935,353.877,276.813,363,265.552,363z"/>
</g>
</svg>