<?xml version="1.0" encoding="utf-8"?>

<!DOCTYPE svg PUBLIC "-//W3C//DTD SVG 1.1//EN" "http://www.w3.org/Graphics/SVG/1.1/DTD/svg11.dtd">

<svg height="800px" width="800px" version="1.1" id="_x32_" xmlns="http://www.w3.org/2000/svg" xmlns:xlink="http://www.w3.org/1999/xlink" 
	 viewBox="0 0 512 512"  xml:space="preserve">
<style type="text/css">
	.st0{fill:#000000;}
</style>
<g>
	<circle class="st0" cx="176.485" cy="255.42" r="19.394"/>
	<circle class="st0" cx="335.515" cy="255.42" r="19.394"/>
	<path class="st0" d="M256,309.413c-7.878,0-14.94,3.167-20.106,8.326c-5.151,5.174-8.333,12.227-8.333,20.106
		c0,7.878,3.182,14.932,8.333,20.106c5.166,5.152,12.228,8.318,20.106,8.326c7.879-0.007,14.924-3.174,20.106-8.326
		c5.152-5.174,8.318-12.228,8.318-20.106c0-7.879-3.166-14.932-8.318-20.106C270.924,312.58,263.879,309.413,256,309.413z"/>
	<path class="st0" d="M475.515,173.481c18.061-15.94,29.516-39.204,29.516-65.197c0-48.053-38.955-87.015-87.015-87.015
		c-38.909,0-71.834,25.554-82.97,60.781C310.152,75.436,283.592,71.822,256,71.822c-27.59,0-54.152,3.614-79.045,10.228
		c-11.137-35.235-44.061-60.781-82.97-60.781c-48.076,0-87.015,38.962-87.015,87.015c0,25.993,11.455,49.258,29.515,65.197
		C13.334,204.974,0,241.845,0,281.276c0,115.682,114.606,209.455,256,209.455c141.379,0,256-93.773,256-209.455
		C512,241.845,498.667,204.974,475.515,173.481z M57.44,108.284c0-20.182,16.348-36.545,36.545-36.545
		c17.061,0,31.273,11.75,35.303,27.568c-21.576,10.075-41.182,22.644-58.227,37.227C62.803,129.829,57.44,119.739,57.44,108.284z
		 M335.652,332.996c-12.622,0-22.758-1.129-31.334-2.728c0.394,2.478,0.652,4.993,0.652,7.576
		c-0.014,24.401-17.863,44.568-41.212,48.296v16.394l35.788,18.765l-7.212,13.742L256,415.981l-36.333,19.06l-7.212-13.742
		l35.788-18.765V386.14c-23.349-3.728-41.212-23.894-41.212-48.296c0-2.583,0.258-5.098,0.636-7.576
		c-8.56,1.599-18.696,2.728-31.333,2.728c-43.561,0-78.864-35.311-78.864-78.872c0-43.56,35.302-78.871,78.864-78.871h159.318
		c43.56,0,78.879,35.311,78.879,78.871C414.531,297.685,379.212,332.996,335.652,332.996z M440.94,136.534
		c-17.061-14.583-36.652-27.152-58.228-37.227c4.015-15.819,18.243-27.568,35.303-27.568c20.181,0,36.545,16.363,36.545,36.545
		C454.561,119.739,449.182,129.837,440.94,136.534z"/>
</g>
</svg>