<?xml version="1.0" encoding="utf-8"?>

<!DOCTYPE svg PUBLIC "-//W3C//DTD SVG 1.1//EN" "http://www.w3.org/Graphics/SVG/1.1/DTD/svg11.dtd">

<svg height="800px" width="800px" version="1.1" id="_x32_" xmlns="http://www.w3.org/2000/svg" xmlns:xlink="http://www.w3.org/1999/xlink" 
	 viewBox="0 0 512 512"  xml:space="preserve">
<style type="text/css">
	.st0{fill:#000000;}
</style>
<g>
	<path class="st0" d="M201.985,206.692h15.743c53.305,0,102.533-28.561,128.97-74.854l24.552-42.954
		c0.035-0.061,0.088-0.106,0.124-0.159c0.211-0.317,0.334-0.643,0.511-0.969l36.788-64.371c4.282-7.496,1.683-17.046-5.814-21.318
		c-7.488-4.29-17.038-1.683-21.319,5.814l-28.49,49.826l-36.85-24.569c-7.18-4.792-16.888-2.854-21.68,4.342
		c-4.775,7.18-2.837,16.888,4.342,21.681l38.647,25.758l-17.954,31.406c-0.44,0.766-0.995,1.436-1.444,2.185l-42.708-28.482
		c-7.18-4.792-16.879-2.845-21.671,4.334c-4.784,7.18-2.846,16.888,4.334,21.68l40.418,26.948
		c-21.504,20.464-50.232,32.445-80.756,32.445h-15.743c-8.633,0-15.637,6.995-15.637,15.628
		C186.347,199.697,193.351,206.692,201.985,206.692z"/>
	<path class="st0" d="M50.339,214.646c-15.875,0-28.754,12.862-28.754,28.736c0,15.893,12.879,28.754,28.754,28.754
		c15.875,0,28.745-12.861,28.745-28.754C79.084,227.508,66.214,214.646,50.339,214.646z"/>
	<path class="st0" d="M347.534,281.493c0,0,25.177,0.078,32.797,0.132c12.73,0,19.143-3.18,27.16-11.091
		c8.034-7.964,14.28-19.055,23.31-33.485c9.964-15.989,0.07-30.207-11.1-30.278c-11.18,0-50.319-0.177-50.319-0.177
		c-9.568,0-19.17,3.163-23.988,6.343c-4.017,2.634-12.095,9.233-20.79,16.668L173.09,229.05c-20.57-0.114-37.792,3.242-51.711,8.977
		c-22.394,9.224-36.577,24.789-43.324,42.981c-20.35,54.487,25.741,132.248,115.914,132.556l50.601,0.185L284.688,512h205.727
		L347.534,281.493z M247.679,317.814c0,6.405-5.189,11.584-11.594,11.584c-6.396,0-11.584-5.18-11.584-11.584v-33.616
		c0-6.387,5.189-11.576,11.584-11.576c6.405,0,11.594,5.189,11.594,11.576V317.814z"/>
</g>
</svg>