<?xml version="1.0" encoding="utf-8"?>

<!DOCTYPE svg PUBLIC "-//W3C//DTD SVG 1.1//EN" "http://www.w3.org/Graphics/SVG/1.1/DTD/svg11.dtd">

<svg height="800px" width="800px" version="1.1" id="_x32_" xmlns="http://www.w3.org/2000/svg" xmlns:xlink="http://www.w3.org/1999/xlink" 
	 viewBox="0 0 512 512"  xml:space="preserve">
<style type="text/css">
	.st0{fill:#000000;}
</style>
<g>
	<path class="st0" d="M459.456,489.439c-3.05-4.06-47.536-61.364-47.536-61.364s-72.367,18.536-51.518-46.11
		c5.152-15.988,5.342-32.028-1.244-45.629c27.895-1.921,34.736-25.398,26.432-44.764c-8.813,12.83-28.986,24.991-38.622,29.066
		c-12.423-10.786-32.043-18.252-60.985-19.904c0,0-49.203-11.309-81.96-41.882c-38.854-36.256-2.198-104.286,7.635-107.568
		c14.518-4.833,20.813-12.969,21.294-22.924c0.466-9.948-18.842-15.559-38.491-6.55c-4.912-6.557-11.462-13.107-22.109-9.825
		c-5.341,1.638-15.29,4.636-21.294,7.365c-3.195,1.456-14.278,13.856-17.196,15.567c-13.041,7.598-37.399,18.012-37.399,18.012
		c-12.561,3.274-9.279,23.477,2.736,25.114c15.138,2.074,48.49,7.19,48.49,7.19S98.034,248.14,123.04,306.2
		c0,0-45.091-1.333-54.632-1.776c-9.956-0.481-19.133,5.552-16.156,16.745c2.97,11.193,39.662,84.368,39.662,84.368
		s21.251,12.336,27.756,11.564c0,0,10.101-11.957,6.826-13.049l-18.222-13.645l-18.987-48.876l53.591,6.848
		c0,0,67.877,53.978,132.937,47.886c0,0,13.216,47.776,67.274,59.908c32.617,7.335,61.102-2.62,63.146,1.74
		C408.288,462.28,453.422,512,453.422,512S463.225,494.468,459.456,489.439z"/>
	<path class="st0" d="M134.203,102.83c7.962,5.902,17.852,6.907,26.708,6.084c9.017-0.895,17.48-3.682,25.486-7.168
		c7.998-3.53,15.552-7.918,22.677-12.932c7.118-5.029,13.805-10.691,19.904-17.052c6.084-6.375,11.651-13.427,15.988-21.6
		c4.206-8.1,7.583-17.749,6.113-28.564c-0.735-5.327-2.271-11.258-6.186-14.999c-4.782-4.548-9.905-5.778-17.676-6.6l-2.184,6.346
		c12.284,4.366,14.78,9.897,15.29,15.821c0.815,9.562-3.056,20.654-8.463,28.135c-9.279,12.823-17.022,19.547-29.518,29.474
		c-3.486,2.736-7.117,5.29-10.872,7.656c-1.303-0.626-1.325-1.397-1.718-2.882c-0.72-2.736-2.663-10.262-3.056-15.37l-5.772,0.437
		c0.284,3.566,0.466,10.618,1.048,13.704c0.837,4.606,0.837,6.258,1.514,7.969c0.094,0.247,0.153,0.422,0.232,0.611
		c-0.53,0.277-1.033,0.59-1.564,0.852c-7.139,3.588-14.643,6.448-22.269,7.612c-7.547,1.15-15.545,0.502-21.418-3.428
		c-2.897-1.95-5.123-4.708-6.172-7.954c-1.069-3.231-0.924-6.892,0.255-10.342l-5.566-2.089c-1.768,4.352-2.344,9.461-1.041,14.279
		C127.202,95.655,130.317,99.92,134.203,102.83z"/>
</g>
</svg>