<?xml version="1.0" encoding="utf-8"?>

<!DOCTYPE svg PUBLIC "-//W3C//DTD SVG 1.1//EN" "http://www.w3.org/Graphics/SVG/1.1/DTD/svg11.dtd">

<svg height="800px" width="800px" version="1.1" id="_x32_" xmlns="http://www.w3.org/2000/svg" xmlns:xlink="http://www.w3.org/1999/xlink" 
	 viewBox="0 0 512 512"  xml:space="preserve">
<style type="text/css">
	.st0{fill:#000000;}
</style>
<g>
	<path class="st0" d="M477.305,186.639c-1.912-3.166-4.644-5.968-7.965-7.926c-3.32-1.982-7.144-3.127-11.192-3.53
		c-5.666-0.565-11.308-0.843-16.874-0.843c-19.312,0.007-37.781,3.367-53.726,10.147c-7.973,3.406-15.318,7.663-21.766,12.842
		c-5.17,4.14-9.722,8.901-13.554,14.211c-1.563,0.023-3.49,0.039-5.766,0.062c-5.968,0.047-14.157,0.124-23.496,0.217
		c10.492-29.306,55.022-45.769,109.577-73.574c80.539-41.039,70.987-76.878-12.834-134.018c-15.682-10.704-27.092,0-4.985,19.947
		c45.777,41.357,38.494,52.047,19.242,69.154c-13.174,11.719-25.559,19.01-32.084,14.266
		c-15.682-11.402-31.458-38.648-40.638-48.478c-9.977-10.698-23.415-4.684-11.401,14.97c15.674,25.667,33.508,44.91,13.545,57.744
		c-19.962,12.833-49.194,24.599-67.373,44.918c-12.953,14.482-17.981,26.813-19.804,35.474c-7.082,0.069-13.933,0.116-20.214,0.17
		c-6.277-0.054-13.131-0.1-20.206-0.17c-1.827-8.662-6.862-20.992-19.812-35.474c-18.179-20.319-47.41-32.084-67.373-44.918
		c-19.959-12.834-2.136-32.077,13.554-57.744c12.009-19.653-1.432-25.668-11.418-14.97c-9.18,9.83-24.947,37.076-40.633,48.478
		c-6.526,4.744-18.902-2.547-32.08-14.266C58.784,76.222,51.496,65.532,97.277,24.175C119.376,4.228,107.97-6.476,92.288,4.228
		C8.471,61.368-1.08,97.206,79.455,138.246c54.55,27.804,99.088,44.268,109.577,73.574c-9.331-0.093-17.536-0.17-23.5-0.217
		c-2.268-0.023-4.195-0.039-5.762-0.062c-3.835-5.31-8.39-10.07-13.55-14.211c-9.68-7.757-21.352-13.476-34.174-17.293
		c-12.83-3.8-26.836-5.696-41.318-5.696c-5.565,0-11.204,0.278-16.878,0.843h0.004c-3.603,0.364-7.013,1.293-10.07,2.903
		c-2.287,1.192-4.35,2.756-6.076,4.582c-2.608,2.756-4.412,6.069-5.523,9.537c-1.114,3.475-1.571,7.121-1.575,10.852
		c0.004,4.97,0.812,10.132,2.249,15.45c2.519,9.304,6.985,19.134,13.042,28.864c9.094,14.568,21.797,28.895,37.34,40.057
		c13.34,9.568,28.872,16.805,45.9,19.398c-0.138,3.576-0.251,8.158-0.251,13.592c0,13.368,0.685,31.705,3.445,51.815
		c2.074,15.094,5.314,31.178,10.372,46.953c7.585,23.631,19.23,46.659,37.56,64.09c9.153,8.7,19.998,15.938,32.623,20.946
		c12.613,5.016,26.979,7.779,43.11,7.779c14.332,0,27.281-2.182,38.846-6.192c20.261-7.005,36.124-19.614,48.142-34.925
		c9.041-11.486,16-24.482,21.402-38.02c8.097-20.304,12.741-41.83,15.412-61.576c2.646-19.746,3.312-37.711,3.312-50.87
		c0-5.45-0.124-10.046-0.248-13.623c12.299-1.873,23.848-6.138,34.306-11.998c19.281-10.79,35.057-26.72,46.234-43.269
		c5.581-8.29,10.024-16.75,13.104-24.924c3.081-8.189,4.861-16.1,4.884-23.546c-0.007-3.328-0.364-6.564-1.223-9.691
		C479.511,191.021,478.575,188.76,477.305,186.639z M462.622,214.04c-1.959,7.299-5.736,15.783-11.038,24.282
		c-7.949,12.756-19.328,25.559-32.796,35.203c-13.491,9.676-28.957,16.193-45.397,17.13l-8.754,0.496l0.728,8.746v0.054
		c0.062,0.766,0.634,8.499,0.634,20.466c0,12.772-0.658,30.382-3.282,49.493c-1.974,14.319-5.039,29.491-9.714,44.05
		c-7.005,21.875-17.61,42.27-33.055,56.908c-7.721,7.33-16.654,13.275-27.146,17.454c-10.5,4.164-22.618,6.564-36.802,6.572
		c-12.609-0.007-23.581-1.912-33.237-5.248c-16.871-5.867-29.89-16.138-40.305-29.344c-7.79-9.892-14.033-21.449-18.956-33.779
		c-7.4-18.508-11.816-38.749-14.336-57.512c-2.524-18.763-3.17-36.024-3.166-48.594c0-6.378,0.158-11.564,0.321-15.117
		c0.088-1.78,0.162-3.15,0.228-4.072c0.027-0.456,0.051-0.804,0.07-1.029l0.016-0.248l0.007-0.054l0.716-8.746l-8.758-0.496
		c-12.528-0.72-24.463-4.668-35.432-10.79c-16.436-9.164-30.574-23.322-40.386-37.905c-4.908-7.276-8.743-14.644-11.286-21.41
		c-2.558-6.734-3.793-12.895-3.777-17.493c0-2.052,0.232-3.778,0.607-5.124c0.283-1.014,0.635-1.811,1.014-2.446
		c0.58-0.944,1.172-1.532,2.062-2.066c0.886-0.526,2.16-1.007,4.152-1.2h0.004c5.105-0.518,10.179-0.774,15.168-0.774
		c17.308-0.008,33.613,3.065,47.019,8.785c6.707,2.856,12.69,6.37,17.757,10.434c5.086,4.079,9.257,8.708,12.435,13.871l2.477,4.033
		l4.73,0.038c0,0,61.537,0.581,100.784,0.89h0.07h0.062c39.256-0.309,100.796-0.89,100.796-0.89l4.722-0.038l2.477-4.033
		c3.182-5.163,7.361-9.792,12.432-13.871c7.609-6.107,17.269-10.945,28.33-14.22c11.046-3.281,23.477-5,36.458-5
		c4.985,0,10.063,0.255,15.164,0.774l0.859-8.522l-0.852,8.522c1.764,0.17,2.98,0.573,3.84,1.022c0.65,0.341,1.138,0.72,1.571,1.177
		c0.627,0.689,1.2,1.594,1.672,3.018c0.457,1.416,0.758,3.313,0.751,5.62C464.286,206.122,463.752,209.884,462.622,214.04z"/>
	<path class="st0" d="M255.998,363.353c-22.447,0-40.637,18.191-40.637,40.638c0,22.447,18.19,40.645,40.637,40.645
		c22.44,0,40.638-18.198,40.638-40.645C296.636,381.544,278.438,363.353,255.998,363.353z"/>
	<path class="st0" d="M198.248,312.027c-8.267,0-14.97,6.703-14.97,14.969c0,8.275,6.703,14.978,14.97,14.978
		c8.274,0,14.977-6.703,14.977-14.978C213.225,318.73,206.522,312.027,198.248,312.027z"/>
	<path class="st0" d="M313.742,312.027c-8.259,0-14.966,6.703-14.966,14.969c0,8.275,6.707,14.978,14.966,14.978
		c8.27,0,14.974-6.703,14.974-14.978C328.716,318.73,322.013,312.027,313.742,312.027z"/>
	<path class="st0" d="M119.004,226.325c-11.514-7.276-31.511-15.156-38.783-5.457c-7.272,9.698,7.272,29.692,19.997,36.364
		c12.725,6.664,28.481,8.484,33.33-0.612C138.402,247.533,130.519,233.592,119.004,226.325z"/>
	<path class="st0" d="M392.989,226.325c-11.51,7.268-19.39,21.208-14.537,30.296c4.846,9.095,20.598,7.276,33.322,0.612
		c12.726-6.672,27.277-26.666,20.002-36.364C424.5,211.168,404.506,219.048,392.989,226.325z"/>
</g>
</svg>