<?xml version="1.0" encoding="utf-8"?>

<!DOCTYPE svg PUBLIC "-//W3C//DTD SVG 1.1//EN" "http://www.w3.org/Graphics/SVG/1.1/DTD/svg11.dtd">

<svg version="1.1" id="_x32_" xmlns="http://www.w3.org/2000/svg" xmlns:xlink="http://www.w3.org/1999/xlink" 
	 viewBox="0 0 512 512"  xml:space="preserve">
<style type="text/css">
	.st0{fill:#000000;}
</style>
<g>
	<path class="st0" d="M511.732,331.939c-0.32-2.216-0.888-4.572-1.604-7.076c-1.271-4.381-3.046-9.215-4.994-14.184
		c-2.932-7.446-6.265-15.206-8.903-21.796c-1.31-3.302-2.433-6.317-3.231-8.788c-0.396-1.226-0.716-2.325-0.939-3.225
		c-0.191-0.849-0.294-1.539-0.332-1.916l-0.006-0.07c0-0.058-0.007-0.14-0.007-0.262c0-0.402,0.051-1.092,0.166-1.929
		c0.198-1.584,0.626-3.749,1.226-6.271c1.041-4.413,2.593-9.911,4.33-15.832c2.593-8.877,5.613-18.706,7.983-27.525
		c1.194-4.4,2.242-8.564,2.995-12.262c0.383-1.864,0.677-3.608,0.894-5.237c0.217-1.628,0.345-3.141,0.352-4.572
		c-0.007-0.875-0.058-1.718-0.173-2.58c-0.108-0.658-0.262-1.309-0.517-2.018c-0.173-0.511-0.422-1.041-0.773-1.597
		c-0.255-0.409-0.568-0.817-0.958-1.206c-0.58-0.582-1.328-1.092-2.139-1.418c-0.805-0.332-1.667-0.46-2.44-0.46h-0.192
		c-3.474,0.14-6.91,1.067-10.358,2.446c-3.027,1.213-6.067,2.791-9.152,4.598c-5.377,3.187-10.895,7.102-16.431,11.183
		c-4.145,3.065-8.303,6.22-12.37,9.202c-6.105,4.496-12.058,8.634-17.428,11.546c-2.669,1.469-5.198,2.612-7.478,3.385
		c-2.274,0.76-4.292,1.118-5.965,1.118c-0.345,0-0.657-0.019-0.964-0.045c-1.316-0.108-2.983-0.403-4.911-0.888
		c-3.628-0.887-8.187-2.427-13.475-4.419c-2.382-0.913-4.918-1.89-7.587-2.97l-0.012-0.006c0.306-0.441,0.606-0.894,0.888-1.36
		c1.258-2.114,2.28-4.419,2.995-6.84c0.728-2.414,1.162-4.937,1.162-7.478c0-1.411-0.134-2.822-0.46-4.234
		c-0.236-1.054-0.587-2.107-1.066-3.116c-0.722-1.526-1.756-2.976-3.116-4.158c-1.354-1.188-3.008-2.088-4.803-2.624
		c-1.296-0.39-2.625-0.562-3.902-0.562c-1.999,0-3.889,0.422-5.639,1.06c-1.526,0.569-2.97,1.316-4.317,2.152
		c-2.376,1.482-4.516,3.27-6.431,5.109c-2.881,2.772-5.288,5.671-7,7.919c-0.236,0.32-0.473,0.613-0.671,0.907
		c-13.903-5.588-29.536-11.521-46.454-16.853c-0.256-3.87-1.079-9.529-3.436-16.011c-0.338-0.938-0.709-2.331-1.015-3.991
		c-0.55-2.9-0.958-6.584-1.303-10.442c-0.262-2.893-0.498-5.869-0.754-8.756c-0.21-2.159-0.408-4.247-0.658-6.22
		c-0.198-1.475-0.409-2.867-0.67-4.189c-0.186-0.984-0.409-1.922-0.671-2.836c-0.204-0.677-0.434-1.322-0.715-1.986
		c-0.21-0.492-0.466-0.99-0.772-1.488c-0.473-0.747-1.08-1.533-2.037-2.235c-0.486-0.351-1.054-0.664-1.692-0.888
		c-0.639-0.217-1.329-0.332-2.018-0.332c-0.32,0-0.639,0.026-0.932,0.064l-0.243,0.045l-0.249,0.063
		c-9.452,2.44-18.348,6.476-26.368,11.144c-12.051,6.994-22.212,15.36-29.402,22.02c-4.247,3.928-7.44,7.242-9.388,9.331
		c-6.814-0.518-13.717-0.792-20.672-0.792c-7.23,0-14.516,0.3-21.854,0.938c-58.121,5.033-98.4,14.325-126.212,23.22
		c-13.91,4.452-24.683,8.814-32.966,12.479c-4.151,1.833-7.67,3.487-10.614,4.879c-2.944,1.399-5.346,2.535-7.159,3.302
		c-4.591,1.942-8.187,4.394-10.761,7.293c-1.29,1.456-2.318,3.02-3.027,4.694c-0.722,1.692-1.13,3.493-1.13,5.3
		c0,1.718,0.364,3.442,1.079,4.994c0.536,1.169,1.258,2.229,2.12,3.174c1.297,1.411,2.887,2.529,4.669,3.359
		c1.794,0.824,3.774,1.38,5.92,1.66c1.213,0.16,2.663,0.498,4.279,1.028c2.829,0.938,6.176,2.452,9.771,4.476
		c5.39,3.027,11.368,7.172,17.384,12.109c3.608,2.944,7.204,6.175,10.716,9.592c-0.741,0.083-1.501,0.166-2.293,0.243
		c-6.585,0.69-14.868,1.354-22.064,1.341c-3.187,0-6.156-0.128-8.583-0.422c-1.226-0.14-2.312-0.312-3.219-0.53
		c-0.894-0.205-1.616-0.447-2.044-0.639c-2.702-1.22-5.288-1.859-7.785-1.864c-1.398,0-2.765,0.204-4.055,0.651
		c-0.97,0.345-1.897,0.818-2.733,1.437c-1.246,0.914-2.28,2.165-2.97,3.583C0.313,286.992,0,288.538,0,290.077
		c0.007,2.184,0.619,4.323,1.699,6.303c1.079,1.967,2.606,3.813,4.554,5.486c1.226,1.073,2.67,2.089,4.355,3.161
		c3.148,1.967,7.172,4.049,12.006,6.252c8.462,3.857,19.446,8.046,32.404,12.179c19.446,6.214,43.299,12.3,69.515,16.853
		c10.008,1.737,20.365,3.251,30.941,4.464c3.366,4.528,7.14,9.395,11.004,13.846c2.254,2.574,4.547,5.026,6.834,7.178
		c2.292,2.171,4.572,4.055,6.903,5.543c1.903,1.207,3.998,2.012,6.144,2.523c2.133,0.504,4.355,0.721,6.597,0.721
		c3.716-0.006,7.517-0.6,11.188-1.61c2.746-0.753,5.441-1.756,7.97-2.95c3.774-1.801,7.197-4.004,9.924-6.68
		c1.373-1.341,2.567-2.81,3.5-4.484c0.932-1.66,1.603-3.538,1.762-5.607c0.006-0.23,0.025-0.453,0.025-0.69
		c0-1.456-0.332-2.816-0.83-4.01c-0.154-0.377-0.326-0.748-0.498-1.105c17.69-0.792,35.584-2.708,52.993-5.243
		c5.41-0.786,10.767-1.629,16.068-2.53l-0.057,0.071c0.083,0.096,4.572,4.604,11.336,9.911c3.391,2.644,7.35,5.498,11.655,8.098
		c4.304,2.6,8.934,4.942,13.756,6.572l1.533,0.511l1.552-0.524c2.976-1.002,5.633-2.452,7.919-4.196
		c2.018-1.526,3.749-3.263,5.244-5.122c2.612-3.251,4.502-6.84,5.894-10.358c2.082-5.282,3.085-10.441,3.59-14.324
		c0.185-1.399,0.3-2.631,0.383-3.646c4.936-1.2,9.65-2.363,14.132-3.493c12.581-3.168,23.201-6.009,31.102-8.047
		c3.966-1.021,7.242-1.845,9.694-2.388c1.22-0.287,2.248-0.492,3.008-0.619c0.377-0.058,0.683-0.109,0.92-0.128
		c0.114-0.019,0.192-0.019,0.255-0.026l0.045-0.012h0.038c2.803,0.096,5.939,0.626,9.285,1.539c5.888,1.597,12.39,4.4,19.044,7.728
		c4.968,2.497,10.032,5.281,15.001,8.078c7.446,4.184,14.688,8.373,21.318,11.592c3.321,1.609,6.494,2.976,9.515,3.972
		c3.04,0.997,5.952,1.648,8.858,1.66c1.584,0,3.181-0.211,4.738-0.741c1.552-0.523,3.072-1.386,4.331-2.567l0.012-0.013
		c0.594-0.556,1.098-1.207,1.475-1.871c0.568-1.003,0.894-2.018,1.111-3.002c0.179-0.99,0.256-1.948,0.256-2.905
		C512,334.282,511.898,333.134,511.732,331.939z M379.798,210.817c1.545-1.348,3.155-2.503,4.61-3.238
		c0.728-0.382,1.405-0.651,2.018-0.823c0.62-0.173,1.156-0.249,1.61-0.249c0.408,0,0.76,0.051,1.111,0.153
		c0.524,0.16,0.85,0.345,1.099,0.543c0.179,0.154,0.332,0.32,0.479,0.517c0.217,0.307,0.421,0.728,0.581,1.309
		c0.14,0.581,0.249,1.316,0.249,2.159c0,1.2-0.198,2.612-0.575,4.03c-0.581,2.126-1.564,4.292-2.682,5.907
		c-0.517,0.747-1.048,1.373-1.539,1.846c-4.17-1.718-8.59-3.558-13.258-5.474C375.219,215.371,377.441,212.867,379.798,210.817z
		 M259.174,171.203c5.696-4.674,12.441-9.598,19.849-13.87c6.526-3.768,13.558-7.025,20.813-9.216c0.102,0.434,0.21,0.913,0.3,1.45
		c0.371,2.044,0.69,4.732,0.958,7.682c0.428,4.438,0.778,9.471,1.302,14.203c0.262,2.376,0.556,4.668,0.946,6.827
		c0.402,2.146,0.862,4.145,1.539,5.997c1.284,3.506,2.005,6.731,2.42,9.413c-2.446-0.709-4.911-1.404-7.408-2.081
		c-16.444-4.47-33.885-8.156-52.003-10.301C250.891,178.388,254.704,174.869,259.174,171.203z M42.194,256.837
		c-4.803-3.302-9.471-6.068-13.884-8.162c-2.203-1.035-4.336-1.916-6.418-2.593c-2.076-0.689-4.081-1.181-6.035-1.436
		c-1.169-0.16-2.114-0.421-2.848-0.728c-0.543-0.224-0.977-0.479-1.303-0.728c-0.486-0.358-0.728-0.69-0.875-0.958
		c-0.134-0.274-0.191-0.498-0.191-0.837c0-0.306,0.057-0.728,0.3-1.277c0.287-0.702,0.887-1.61,1.871-2.586
		c2.727,0.339,5.792,1.028,9.081,2.031c5.945,1.82,12.587,4.642,19.337,8.098c10.142,5.166,20.519,11.738,29.25,18.398
		c4.361,3.334,8.321,6.674,11.623,9.86c3.308,3.187,5.952,6.214,7.696,8.813c0.67,1.016,1.136,1.954,1.418,2.772
		c0.281,0.83,0.389,1.546,0.389,2.133c0,0.587-0.108,1.067-0.274,1.456c-0.268,0.587-0.67,1.054-1.347,1.437
		c-0.658,0.383-1.622,0.658-2.842,0.658c-1.75,0-4.03-0.556-6.591-1.986c-1.29-0.709-2.657-1.648-4.055-2.836l-5.678-6.246
		C61.851,272.221,51.78,263.446,42.194,256.837z M346.563,335.235c-0.497,1.992-1.143,4.068-1.973,6.079
		c-1.226,3.027-2.874,5.901-4.962,8.238c-1.054,1.168-2.216,2.203-3.519,3.085c-0.887,0.612-1.852,1.143-2.886,1.59
		c-3.397-1.29-6.891-3.079-10.218-5.09c-5.812-3.5-11.125-7.67-14.976-10.94c-0.268-0.23-0.536-0.454-0.785-0.677
		c14.305-2.657,27.947-5.576,40.483-8.469C347.496,330.86,347.132,332.993,346.563,335.235z M502.133,336.109
		c-0.109,0.058-0.243,0.115-0.409,0.173c-0.364,0.128-0.894,0.224-1.648,0.224c-1.392,0-3.467-0.371-5.933-1.207
		c-2.178-0.721-4.662-1.762-7.344-3.04c-4.707-2.235-10.04-5.179-15.685-8.366c-8.475-4.77-17.664-10.058-26.816-14.273
		c-4.56-2.108-9.138-3.947-13.66-5.308c-4.521-1.36-8.973-2.248-13.354-2.362c-0.071,0-0.147-0.007-0.237-0.007
		c-0.67,0.007-1.252,0.058-1.89,0.147c-1.214,0.166-2.606,0.441-4.304,0.811c-3.187,0.716-7.383,1.789-12.511,3.124
		c-8.98,2.33-20.794,5.479-34.646,8.902c-20.755,5.141-46.064,10.882-72.995,15.327c-24.178,3.998-49.666,6.948-74.259,7.498
		c-2.229-1.577-4.656-3.11-7.185-4.579c-6.016-3.519-12.593-6.706-18.028-9.177c-2.708-1.245-5.128-2.305-7.038-3.129
		c-0.952-0.415-1.769-0.76-2.433-1.053c-0.658-0.275-1.15-0.486-1.418-0.614c-2.478-1.118-5.377,0.026-6.488,2.554
		c-1.098,2.529,0.012,5.492,2.503,6.61c0.345,0.146,0.786,0.338,1.328,0.581c2.044,0.875,5.671,2.414,10.001,4.4
		c2.797,1.29,5.901,2.765,9.011,4.349c0.473,0.249,0.946,0.498,1.438,0.748c2.695,1.392,5.358,2.874,7.829,4.368
		c1.846,1.111,3.583,2.254,5.116,3.365c0.779,0.556,1.507,1.111,2.178,1.66c1.296,1.054,2.337,2.057,3.053,2.9
		c0.549,0.638,0.887,1.188,1.054,1.52c0.064,0.166,0.108,0.281,0.127,0.326c0,0,0,0,0,0.006c-0.038,0.255-0.127,0.619-0.383,1.104
		c-0.236,0.473-0.606,1.028-1.136,1.642c-0.913,1.066-2.293,2.254-3.972,3.365c-2.529,1.667-5.754,3.168-9.114,4.222
		c-3.359,1.06-6.865,1.66-9.93,1.647c-1.616,0-3.098-0.166-4.375-0.473c-1.277-0.294-2.35-0.734-3.18-1.264
		c-1.187-0.748-2.548-1.808-4.017-3.104c-2.548-2.248-5.344-5.199-8.142-8.462c-1.43-1.647-2.842-3.378-4.259-5.128
		c-2.721-3.43-5.358-6.948-7.728-10.212c-0.146-0.224-0.313-0.441-0.479-0.664c-1.609-2.204-3.078-4.292-4.387-6.118
		c-1.438-2.018-2.644-3.729-3.59-5.026c-1.641-2.223-4.719-2.664-6.903-0.996c-2.152,1.654-2.606,4.802-0.958,7.019
		c0.645,0.881,1.507,2.069,2.503,3.487c0.007,0.026,0.026,0.044,0.039,0.064c-9.58-1.264-18.923-2.772-27.959-4.458
		c-0.013,0-0.013,0-0.026-0.006c1.341-0.753,2.599-1.584,3.787-2.503c3.085-2.388,5.664-5.269,7.798-8.507
		c3.18-4.86,5.358-10.499,6.75-16.54c1.373-6.041,1.973-12.498,1.98-19.025c-0.006-12.542-2.216-25.379-5.524-36.14
		c-1.654-5.377-3.583-10.25-5.696-14.312c-1.054-2.031-2.146-3.87-3.289-5.473c-1.156-1.61-2.331-2.995-3.602-4.12l-3.583,4.202
		c0.856,0.754,1.801,1.832,2.759,3.174c1.679,2.357,3.404,5.556,4.988,9.324c2.408,5.646,4.535,12.594,6.054,20.066
		c1.513,7.472,2.427,15.486,2.427,23.278c0,5.492-0.454,10.882-1.443,15.889c-1.482,7.536-4.183,14.184-8.296,19.235
		c-2.076,2.516-4.483,4.662-7.318,6.348c-2.28,1.354-4.841,2.427-7.734,3.155c-9.995-2.05-19.53-4.304-28.471-6.661
		c-17.913-4.732-33.432-9.867-45.323-14.605c-5.933-2.363-10.978-4.636-14.944-6.68c-1.961-1.016-3.666-1.973-5.045-2.848
		c-1.386-0.863-2.472-1.655-3.174-2.261c-1.156-1.003-1.891-1.961-2.286-2.695c-0.415-0.748-0.473-1.265-0.473-1.45
		c0.026-0.019,0.058-0.026,0.108-0.045c0.16-0.051,0.416-0.102,0.811-0.102c0.792-0.006,2.101,0.237,3.8,1.009
		c1.226,0.556,2.497,0.945,3.844,1.252c2.025,0.473,4.215,0.754,6.552,0.946c2.35,0.178,4.847,0.255,7.434,0.255
		c8.002,0,16.834-0.728,23.706-1.45c6.884-0.734,11.789-1.449,11.828-1.462l2.382-0.358c2.542,2.606,5.122,4.572,7.625,5.965
		c3.238,1.788,6.354,2.657,9.216,2.664c1.334,0,2.612-0.192,3.806-0.588c1.769-0.607,3.353-1.679,4.445-3.187
		c1.105-1.494,1.686-3.385,1.674-5.339c0-1.303-0.237-2.637-0.702-3.985c-0.473-1.341-1.15-2.695-2.057-4.049
		c-1.577-2.357-3.634-4.802-6.061-7.331c-4.253-4.432-9.688-9.075-15.793-13.654c-9.164-6.84-19.817-13.494-30.258-18.699
		c-5.224-2.605-10.384-4.84-15.283-6.552c-2.433-0.856-4.802-1.584-7.095-2.146v-0.012c2.076-0.875,4.406-1.986,7.203-3.308
		c5.142-2.427,11.783-5.543,20.475-9.03c13.034-5.218,30.654-11.234,54.475-16.783c23.814-5.55,53.811-10.608,91.535-13.871
		c7.05-0.62,14.068-0.907,21.023-0.907c47.15,0,91.828,13.169,128.089,26.752c18.124,6.782,34.141,13.66,47.386,19.032
		c6.629,2.688,12.562,4.994,17.773,6.744c2.618,0.881,5.039,1.609,7.312,2.165c2.274,0.575,4.387,0.958,6.386,1.143
		c0.607,0.051,1.201,0.064,1.814,0.064c3.519,0,6.993-0.824,10.487-2.14c3.033-1.143,6.105-2.669,9.202-4.445
		c5.422-3.09,10.959-6.974,16.502-11.029c4.158-3.04,8.328-6.22,12.402-9.222c6.118-4.528,12.07-8.736,17.448-11.764
		c2.676-1.501,5.217-2.72,7.51-3.557c1.041-0.377,2.024-0.664,2.944-0.888c-0.026,0.415-0.07,0.862-0.121,1.341
		c-0.224,1.891-0.652,4.304-1.252,7.018c-0.652,2.957-1.495,6.291-2.44,9.848l-48.497,25.239l2.478,4.968l43.964-22.888
		c-1.616,5.601-3.36,11.451-5.026,17.071l-38.694,10.659l1.424,5.371l35.444-9.758c-0.319,1.111-0.639,2.203-0.933,3.276
		c-1.188,4.227-2.222,8.129-2.982,11.52c-0.371,1.698-0.677,3.276-0.894,4.713c-0.026,0.128-0.051,0.255-0.057,0.377h-36.753v5.562
		h36.568c0.077,0.684,0.192,1.354,0.345,2.044c0.415,1.89,1.015,3.928,1.788,6.175c1.303,3.781,3.034,8.142,4.924,12.767
		l-36.318-10.64l-1.507,5.346l40.418,11.834l0.045-0.179c1.794,4.324,3.608,8.73,5.211,12.901l-47.252-17.799l-1.89,5.23
		l50.247,18.923l0.619-1.692c0,0.006,0,0.006,0,0.006c0.997,2.804,1.852,5.435,2.446,7.714c0.364,1.374,0.639,2.618,0.824,3.692
		c0.172,1.079,0.256,1.98,0.256,2.625C502.165,335.707,502.158,335.944,502.133,336.109z"/>
	<path class="st0" d="M82.217,221.642c-3.998,0-7.632,1.66-10.243,4.324c-2.606,2.656-4.241,6.367-4.241,10.428
		c0,4.074,1.635,7.772,4.241,10.435c2.612,2.67,6.245,4.318,10.243,4.318c3.985,0,7.625-1.648,10.237-4.318
		c2.612-2.663,4.234-6.361,4.234-10.435c0-4.062-1.622-7.772-4.234-10.428C89.842,223.302,86.202,221.642,82.217,221.642z
		 M88.59,242.895c-1.648,1.667-3.877,2.689-6.374,2.689c-2.503,0-4.738-1.022-6.38-2.689c-1.635-1.673-2.638-3.953-2.638-6.501
		c0-2.548,1.002-4.815,2.638-6.495c1.641-1.667,3.876-2.695,6.38-2.695c2.497,0,4.726,1.028,6.374,2.695
		c1.628,1.68,2.638,3.946,2.638,6.495C91.228,238.942,90.219,241.222,88.59,242.895z"/>
	<path class="st0" d="M82.217,231.425c-2.689,0-4.872,2.235-4.872,4.969c0,2.746,2.184,4.969,4.872,4.969
		c2.682,0,4.873-2.223,4.873-4.969C87.09,233.66,84.899,231.425,82.217,231.425z"/>
	<rect x="146.673" y="266.722" class="st0" width="272.809" height="5.563"/>
</g>
</svg>