<?xml version="1.0" encoding="utf-8"?>

<!DOCTYPE svg PUBLIC "-//W3C//DTD SVG 1.1//EN" "http://www.w3.org/Graphics/SVG/1.1/DTD/svg11.dtd">

<svg height="800px" width="800px" version="1.1" id="_x32_" xmlns="http://www.w3.org/2000/svg" xmlns:xlink="http://www.w3.org/1999/xlink" 
	 viewBox="0 0 512 512"  xml:space="preserve">
<style type="text/css">
	.st0{fill:#000000;}
</style>
<g>
	<path class="st0" d="M491.35,276.896c-0.817-12.528,25.826-78.518,16.143-78.518c-22.603,0.833-60.26,45.343-82.35,43.435
		c-7.759-0.666-20.422-5.563-36.806-12.175c5.001-7.711,7.262-20.24-1.106-22.716c-7.182-2.124-15.004,7.214-19.766,14.308
		c-15.838-6.285-33.921-13.097-53.655-19.045c0.064-2.669-0.144-9.57-3.286-18.002c-4.023-10.861-2.42-40.934-8.063-40.101
		c-28.583,7.23-54.168,32.558-63.771,43.026c-15.277-1.346-30.939-1.587-46.825-0.24C73.992,196.894,29.074,223.722,12.931,230.398
		c-16.143,6.685-15.342,19.213-2.42,20.88c12.921,1.675,35.251,16.712,53.013,35.924c0,0-40.365,5.844-51.667,0.834
		c-11.301-5.017-16.143,4.176-7.261,11.694c9.281,7.863,45.158,22.018,92.384,32.318c36.181-25.585,33.039-70.11,26.387-82.59
		c-7.534-14.131-1.668-20.88,6.669-4.104c16.623,33.48-6.316,76.01-15.165,90.301c12.36,2.284,25.312,4.256,38.618,5.763
		c-2.453-7.398-4.457-13.938-5.659-17.826c8.993,12.103,26.82,35.604,36.887,41.848c12.103,7.518,39.547-3.343,40.365-14.203
		c0.129-1.932-1.955-4.304-5.466-6.901c27.316-0.866,55.402-4.416,81.612-8.978c6.075,5.37,18.964,15.798,31.901,20.055
		c14.764-4.889,18.724-21.842,19.782-30.587c36.486-8.416,62.856-16.311,67.392-16.19c30.683,0.841,77.733,44.244,90.413,32.582
		C517.978,334.534,492.104,288.686,491.35,276.896z M69.07,254.044c-5.29,0-9.586-4.289-9.586-9.57c0-5.29,4.296-9.578,9.586-9.578
		c5.274,0,9.57,4.289,9.57,9.578C78.641,249.755,74.345,254.044,69.07,254.044z"/>
</g>
</svg>