<?xml version="1.0" encoding="utf-8"?>

<!DOCTYPE svg PUBLIC "-//W3C//DTD SVG 1.1//EN" "http://www.w3.org/Graphics/SVG/1.1/DTD/svg11.dtd">

<svg height="800px" width="800px" version="1.1" id="_x32_" xmlns="http://www.w3.org/2000/svg" xmlns:xlink="http://www.w3.org/1999/xlink" 
	 viewBox="0 0 512 512"  xml:space="preserve">
<style type="text/css">
	.st0{fill:#000000;}
</style>
<g>
	<path class="st0" d="M108.434,425.533c0,13.067,10.578,23.649,23.631,23.649h58.906l-82.538-76.704V425.533z"/>
	<path class="st0" d="M379.93,449.182c13.054,0,23.636-10.582,23.636-23.649v-53.055l-82.538,76.704H379.93z"/>
	<path class="st0" d="M487.98,171.783c-0.06-0.12-0.129-0.242-0.189-0.354l-79.185,101.276l-15.76-12.317l83.957-107.403
		c-19.243-29.19-45.105-54.349-75.719-73.604l-48.498,126.374l-18.682-7.181l49.628-129.309c-4.174-2.192-8.402-4.289-12.714-6.274
		c-31.736-14.595-67.222-23.33-104.818-24.65v138.207H245.99V38.34c-37.583,1.32-73.07,10.055-104.81,24.65
		c-4.307,1.985-8.536,4.074-12.7,6.258l49.632,129.308l-18.682,7.164l-48.493-126.34c-30.618,19.256-56.494,44.415-75.741,73.613
		l83.962,107.394l-15.765,12.317L24.214,171.43c-0.064,0.112-0.133,0.233-0.194,0.354C12.061,194.25,3.828,218.65,0,244.387
		l239.91,222.954c9.071,8.425,23.11,8.425,32.176,0L512,244.387C508.172,218.65,499.939,194.25,487.98,171.783z"/>
</g>
</svg>