<?xml version="1.0" encoding="utf-8"?>

<!DOCTYPE svg PUBLIC "-//W3C//DTD SVG 1.1//EN" "http://www.w3.org/Graphics/SVG/1.1/DTD/svg11.dtd">

<svg height="800px" width="800px" version="1.1" id="_x32_" xmlns="http://www.w3.org/2000/svg" xmlns:xlink="http://www.w3.org/1999/xlink" 
	 viewBox="0 0 512 512"  xml:space="preserve">
<style type="text/css">
	.st0{fill:#000000;}
</style>
<g>
	<path class="st0" d="M133.816,321.993c-5.99,0-10.848,4.863-10.848,10.857c0,5.985,4.859,10.848,10.848,10.848
		c5.99,0,10.849-4.863,10.849-10.848C144.666,326.855,139.807,321.993,133.816,321.993z"/>
	<path class="st0" d="M43.114,187.668l52.436,10.618l0.088,0.015c7.022,1.185,12.896,6.001,15.435,12.649l0.142,0.37l28.226,55.013
		c4.94-1.139,10.018-1.793,15.208-2.047l-30.381-59.214h-0.007c-4.49-10.987-14.28-18.92-25.988-20.982l0.008-0.008l-15.492-3.139
		v-38.086l49.031-0.816c28.168,0.015,53.94,15.85,66.67,40.979l0.143,0.277l33.062,53.321l6.355-17.196l-26.922-43.419
		c-15.284-29.715-45.892-48.427-79.346-48.427l-105.163,1.755v0.016c-6.686,0.046-12.972,2.454-17.912,6.494
		c-2.481,2.046-4.628,4.539-6.19,7.479c-1.566,2.924-2.52,6.317-2.516,9.902c-0.008,3.532,0.942,7.186,2.796,10.565
		c2.797,5.093,7.464,9.586,14.012,13.526c6.563,3.955,15.084,7.41,26.106,10.303L43.114,187.668z"/>
	<path class="st0" d="M499.17,309.621l8.672-72.279l-11.937,5.832c0,0-1.524,0.739-4.248,2.055
		c-9.522,4.593-33.573,16.111-56.74,26.436c-11.576,5.171-22.945,10.041-32.07,13.565c-4.559,1.77-8.56,3.194-11.66,4.14
		c-1.542,0.478-2.862,0.824-3.839,1.032c-0.492,0.107-0.897,0.176-1.178,0.215l-0.323,0.039h-0.031c-0.162,0-1.212-0.1-2.538-0.277
		c-4.987-0.638-14.781-2.177-23.352-3.547c-3.847-0.615-7.417-1.185-10.295-1.646l14.273-71.364l0.011-0.054
		c1.62-7.802,7.702-13.919,15.5-15.573l80.65-17.166l-0.046,0.016c16.981-3.516,29.446-8.872,38.093-15.426
		c4.321-3.278,7.687-6.887,10.042-10.803c2.35-3.901,3.662-8.179,3.658-12.449c0.008-3.67-0.981-7.272-2.789-10.395
		c-2.712-4.717-7.094-8.302-12.395-10.68c-5.324-2.378-11.63-3.608-18.72-3.616H348.103c-37.594,0-71.152,23.559-83.932,58.915
		l-35.94,97.192c-26.426,0-51.139,0-69.097,0c-17.174-0.031-31.581,5.378-43.203,13.295c-17.47,11.896-29.053,29.061-37.913,42.756
		c-4.405,6.84-8.156,12.865-11.214,16.735c-1.512,1.939-2.855,3.292-3.698,3.924l-0.696,0.439h-1.847l-1.786,1.146
		c-0.084,0.054-5.901,3.793-11.892,8.325c-3.012,2.278-6.043,4.717-8.582,7.202c-1.269,1.262-2.423,2.516-3.455,3.986
		c-0.519,0.746-1.012,1.554-1.446,2.562c-0.419,1.008-0.823,2.255-0.831,3.916c-0.019,1.408,0.381,3.147,1.312,4.601
		c0.685,1.093,1.592,1.97,2.485,2.57c1.358,0.916,2.624,1.308,3.758,1.547c1.146,0.231,2.201,0.299,3.278,0.307
		c13.754,0,75.422,0,81.454,0c5.525,0.785,53.382,7.233,135.533,7.233c78.157,0.015,118.428-18.643,127.238-23.306H512
		L499.17,309.621z M383.754,356.555l-1.723,1.039c-0.516,0.284-37.859,22.252-121.637,22.267c-43.195,0-76.761-1.801-99.486-3.594
		c-11.364-0.9-20.016-1.792-25.81-2.462c-2.896-0.339-5.074-0.616-6.524-0.808c-0.723-0.093-1.262-0.17-1.616-0.224l-0.504-0.068
		l-0.523-0.077h-0.55c0,0-46.615,0-70.671,0c2.482-1.916,5.078-3.77,7.21-5.24c1.377-0.954,2.565-1.746,3.396-2.293l0.116-0.076
		c1.384-0.3,2.696-0.731,3.828-1.332c3.486-1.9,5.952-4.547,8.429-7.563c4.252-5.294,8.36-12.096,13.165-19.505
		c7.167-11.088,15.777-23.391,26.776-32.678c5.497-4.655,11.56-8.556,18.373-11.31c6.825-2.754,14.399-4.386,23.132-4.386
		c16.742,0,39.348,0,63.746,0l-3.828,10.349l13.573,5.016l45.172-122.16l-0.02,0.046c10.699-29.615,38.825-49.351,70.325-49.351
		h75.045v41.949l-46.746,9.948c-13.411,2.854-23.864,13.358-26.652,26.784l-20.502,102.517l14.18,2.839l3.362-16.796
		c5.009,0.785,12.626,2.016,19.774,3.139c4.312,0.67,8.448,1.301,11.753,1.778c1.654,0.231,3.1,0.423,4.289,0.57
		c0.6,0.07,1.131,0.123,1.627,0.17c0.504,0.046,0.916,0.076,1.536,0.084c1.88-0.015,3.47-0.315,5.289-0.731
		c3.375-0.793,7.39-2.101,12.1-3.824c16.396-6.002,41.014-17.051,61.723-26.66c9.864-4.578,18.782-8.81,25.444-11.996l-3.301,27.506
		l-47.13,13.473l2.642,9.272l43.238-12.357l-1.25,10.449l3.074,14.711l-49.212,4.278l0.838,9.61l50.362-4.386l4.613,22.082H383.754z
		"/>
</g>
</svg>