<?xml version="1.0" encoding="utf-8"?>

<!DOCTYPE svg PUBLIC "-//W3C//DTD SVG 1.1//EN" "http://www.w3.org/Graphics/SVG/1.1/DTD/svg11.dtd">

<svg version="1.1" id="_x32_" xmlns="http://www.w3.org/2000/svg" xmlns:xlink="http://www.w3.org/1999/xlink" 
	 width="800px" height="800px" viewBox="0 0 512 512"  xml:space="preserve">
<style type="text/css">
<![CDATA[
	.st0{fill:#000000;}
]]>
</style>
<g>
	<path class="st0" d="M511.725,195.147c1.781-4.203-5.313-15.406-11.656-11l-87.157,55.641c-3.469,2.219-7.766,2.75-11.656,1.438
		l-113.922-38.406c-4.734-1.594-8.203-5.641-9.063-10.547l-2-11.531c-0.031-0.125-0.063-0.266-0.078-0.391l-7.25-35.281
		c-0.969-4.688-4.328-8.531-8.859-10.094c-4.532-1.578-9.548-0.656-13.22,2.438l-67.125,56.594
		c-1.625,1.359-3.531,2.328-5.578,2.828L12.614,235.304c-4.703,1.141-8.438,4.688-9.828,9.328l-2.219,18.594
		c-2.109,7.094,1.813,14.563,8.859,16.828l65.531,15.984c5.984,1.938,16.469,2.531,15.984,8.797
		c-0.5,6.266-10.078,7.094-16.297,8.078l-20.172,3.188c-9.891,0.719-6.844,12.766,0.422,15.938l186.688,27.953
		c1.203,0.172,2.406,0.531,3.531,1.031l34.798,15.578c4.625,2.063,10,1.391,13.969-1.75c3.969-3.125,5.875-8.203,4.953-13.172
		l-0.156-0.828c-1.266-6.703,2.641-13.297,9.094-15.422l98.281-32.375c3.281-1.078,6.844-0.875,9.969,0.578l68.125,31.359
		c0.672,0.313,8.766,4.25,9.484,4.453c2.5,1.547,12.109-7.297,8.5-14.266l-25.25-40.781c-2.438-3.953-2.703-8.875-0.672-13.078
		C476.209,281.319,509.928,199.351,511.725,195.147z"/>
</g>
</svg>