<?xml version="1.0" encoding="utf-8"?>

<!DOCTYPE svg PUBLIC "-//W3C//DTD SVG 1.1//EN" "http://www.w3.org/Graphics/SVG/1.1/DTD/svg11.dtd">

<svg height="800px" width="800px" version="1.1" id="_x32_" xmlns="http://www.w3.org/2000/svg" xmlns:xlink="http://www.w3.org/1999/xlink" 
	 viewBox="0 0 512 512"  xml:space="preserve">
<style type="text/css">
	.st0{fill:#000000;}
</style>
<g>
	<path class="st0" d="M104.764,88.469l-7.86-4.052c-2.029-1.044-4.562-0.236-5.602,1.79l-6.015,11.692
		c-1.04,2.033-0.24,4.562,1.81,5.598l7.859,4.052c2.034,1.028,4.562,0.236,5.606-1.806l6.015-11.691
		C107.617,92.033,106.797,89.506,104.764,88.469z"/>
	<path class="st0" d="M507.387,406.501c-1.367-3.141-2.89-5.874-4.766-8.119c-0.958-1.107-2.002-2.136-3.349-3.015
		c-0.668-0.456-1.422-0.825-2.308-1.13c-0.872-0.314-1.862-0.518-2.937-0.518c-1.421,0-2.94,0.377-4.189,1.099
		c-1.264,0.715-2.217,1.672-2.936,2.662l-1.912,2.598l1.04,3.094c0.117,0.338,0.255,1.036,0.255,1.963
		c0,1.398-0.306,3.251-1.024,5.119c-1.06,2.843-2.972,5.661-5.688,7.727c-2.752,2.057-6.286,3.486-11.378,3.486
		c-4.632,0.015-10.612-1.264-18.059-4.837c-3.552-1.727-6.238-3.674-8.441-5.944c-1.931-1.986-3.518-4.217-4.903-6.816
		c-2.427-4.515-4.22-10.152-5.878-16.779c-2.528-9.94-4.817-22.001-9.567-35.452c-4.75-13.426-12.029-28.204-24.446-43.515
		l-0.102-0.117l-0.106-0.118c-42.216-47.056-89.813-101.893-126.87-144.953c-18.518-21.522-34.411-40.116-45.666-53.338
		c-5.622-6.595-10.082-11.856-13.156-15.46c-1.798-2.12-3.043-3.588-3.813-4.507l-6.508-24.144l-0.648-0.903
		c-0.016-0.039-7.688-10.898-16.097-21.954c-4.216-5.536-8.59-11.126-12.386-15.515c-1.896-2.183-3.635-4.083-5.245-5.607
		c-0.817-0.769-1.606-1.452-2.477-2.081c-0.444-0.305-0.903-0.62-1.484-0.926c-0.581-0.275-1.264-0.581-2.273-0.785h0.051
		c-0.459-0.102-0.958-0.134-1.433-0.134c-1.06,0-2.034,0.236-2.823,0.549c-1.519,0.613-2.442,1.414-3.226,2.183
		c-1.402,1.413-2.34,2.905-3.298,4.577c-1.641,2.906-3.161,6.447-4.629,10.215c-2.206,5.677-4.236,11.857-5.739,16.647
		c-0.338,1.083-0.64,2.064-0.919,2.984c-5.044-0.676-12.947-1.508-21.431-1.516c-6.969,0.015-14.298,0.542-20.945,2.426
		c-2.462,0.699-4.817,1.759-7.141,3.008c-4.048,2.222-7.997,5.088-11.738,8.181c-5.618,4.609-10.761,9.689-14.554,13.655
		c-1.696,1.766-3.058,3.258-4.114,4.428L22.33,82.062l0,0c-1.366-0.212-2.713-0.377-4.016-0.377c-2.988,0-5.842,0.612-8.32,1.876
		c-1.864,0.919-3.47,2.191-4.786,3.636c-1.962,2.175-3.262,4.734-4.062,7.317C0.342,97.129,0,99.791,0,102.461
		c0,3.62,0.616,7.208,1.778,10.553c1.107,3.22,2.799,6.682,4.746,10.301c2.905,5.418,6.391,11.056,9.16,15.398
		c2.752,4.342,4.801,7.342,4.836,7.381c0.052,0.07,4.782,7.019,10.49,14.282c2.85,3.62,5.944,7.31,8.935,10.348
		c1.5,1.524,2.972,2.874,4.507,4.036c0.77,0.581,1.574,1.13,2.461,1.602c0.888,0.463,1.881,0.911,3.177,1.162
		c1.13,0.212,3.556,0.896,6.202,1.782c4.032,1.328,8.849,3.109,12.61,4.562c1.88,0.715,3.502,1.351,4.644,1.806
		c0.397,0.157,0.644,0.252,0.919,0.361c2.823,2.285,16.462,13.419,29.751,25.849c7.004,6.548,13.874,13.45,18.829,19.363
		c2.477,2.936,4.475,5.653,5.705,7.788c0.632,1.061,1.06,1.964,1.299,2.615c0.117,0.322,0.188,0.558,0.204,0.73l0.036,0.158
		c0.067,22.597,3.313,41.552,8.303,57.594l0.604-0.189c0.785,11.055,1.206,26.806,1.206,43.617c0,19.206-0.546,39.84-1.657,56.58
		c-0.545,8.394-1.264,15.814-2.084,21.499c-0.408,2.874-0.856,5.276-1.3,7.106c-0.219,0.903-0.443,1.672-0.632,2.238
		c-0.204,0.565-0.373,0.942-0.424,1.02c-3.369,6.172-8.425,11.009-13.328,15.876c-2.442,2.442-4.852,4.9-6.918,7.758
		c-1.024,1.429-1.947,2.984-2.7,4.696c-0.75,1.696-1.3,3.572-1.52,5.559c-0.122,0.958-0.173,1.908-0.173,2.85
		c0,3.226,0.668,6.438,2.018,9.398c1.998,4.444,5.551,8.197,10.148,10.773c4.613,2.582,10.231,4.035,16.689,4.326
		c2.36,0.087,4.77,0.189,7.196,0.189c3.636,0,7.346-0.204,11.036-0.888c2.768-0.518,5.536-1.335,8.201-2.598
		c3.981-1.877,7.703-4.884,10.506-9.022c0.569-0.832,0.938-1.9,1.434-2.811c0.624,1.13,1.224,2.277,1.982,3.345
		c2.207,3.094,5.025,5.874,8.44,8.009c3.4,2.152,7.397,3.659,11.806,4.256c3.572,0.494,6.937,0.699,10.082,0.699
		c11.566,0,20.297-2.936,26.123-6.03c3.184-1.672,5.434-3.321,6.945-4.593c1.943,0,4.927,0,8.893,0c20.756,0,64.479,0,82.263,0
		c9.431-0.016,17.801-1.915,24.345-5.606c3.262-1.845,6.082-4.17,8.186-7.106c1.209-1.688,2.116-3.612,2.701-5.653
		c3.129,2.292,6.518,4.656,10.333,7.09c18.212,11.652,37.893,16.677,56.314,16.654c17.526-0.016,33.948-4.515,47.151-12.288
		c6.596-3.872,12.39-8.574,17.086-14.008c4.684-5.434,8.272-11.582,10.321-18.311c1.519-4.994,2.136-10.05,2.136-14.949
		C511.98,420.901,510.084,412.805,507.387,406.501z M52.804,165.37L52.804,165.37l0.004-0.008L52.804,165.37z M228.63,426.271
		c3.93,2.372,7.734,4.42,11.378,6.234c-18.939,0-37.897,0-42.541,0c-3.848,0-7.428,0.825-10.577,2.301
		c2.187-11.614,4.719-24.898,7.224-37.933C204.561,409.57,217.006,419.22,228.63,426.271z M497.922,440.923
		c-1.468,4.868-4.118,9.517-7.824,13.788c-5.521,6.424-13.432,11.966-22.861,15.861c-9.45,3.895-20.399,6.132-31.93,6.132
		c-16.183,0-33.452-4.389-49.6-14.675c-16.556-10.6-25.334-19.481-29.896-25.424c-2.293-2.992-3.522-5.229-4.17-6.612
		c-0.326-0.682-0.495-1.162-0.581-1.413l-0.051-0.172l-2.838,0.746l2.87-0.597l-12.198,2.6c0.189,0.903,1.453,5.716,7.075,13.034
		c1.932,2.513,4.416,5.339,7.498,8.393l-0.699,0.699c1.672,1.688,2.752,3.203,3.365,4.476c0.617,1.256,0.785,2.214,0.805,2.999
		c-0.02,1.052-0.29,1.931-1.076,3.078c-1.162,1.681-3.761,3.659-7.655,5.112c-3.88,1.452-8.971,2.379-14.727,2.379
		c-11.856,0-35.247,0-55.661,0c-10.219,0-19.685,0-26.602,0c-6.922,0-11.276,0-11.276,0h-2.767l-1.866,2.042l0,0
		c-0.149,0.172-2.214,2.214-6.356,4.31c-4.271,2.112-10.674,4.271-19.696,4.271c-2.58,0-5.367-0.172-8.389-0.58
		c-2.702-0.377-4.92-1.232-6.851-2.442c-2.886-1.83-5.159-4.531-6.749-7.774c-1.57-3.251-2.39-7.043-2.39-10.648
		c-0.02-4.491,1.3-8.629,3.38-11.29c1.06-1.335,2.273-2.34,3.726-3.062c1.488-0.715,3.247-1.178,5.536-1.178
		c9.98,0,86.071,0,86.071,0v-6.281l0.668-4.051l-0.032-0.016c-0.063-0.008-0.392-0.07-0.636-0.11v-2.01c0,0-3.416,0-8.727,0
		c-2.427-0.644-5.14-1.414-8.146-2.402l0.098-0.4c-2.594-0.652-6.949-2.065-12.198-4.232c-1.754-0.77-3.518-1.57-5.28-2.465
		c-8.37-4.209-16.52-9.768-22.464-16.779c-2.956-3.518-5.382-7.381-7.075-11.652c-1.692-4.272-2.649-8.952-2.649-14.197
		c0-1.076,0.035-2.175,0.121-3.298c0.938-12.61,6.866-25.542,16.673-35.192c9.842-9.673,23.422-16.127,40.029-16.127
		c3.796,0,7.758,0.338,11.876,1.06l1.432-8.19v-0.015c-4.558-0.786-9.018-1.194-13.309-1.194c-18.809,0-34.63,7.452-45.855,18.538
		c-11.24,11.087-18.024,25.747-19.135,40.508c-0.102,1.311-0.153,2.63-0.153,3.91c0,6.368,1.214,12.249,3.333,17.517
		c0.008,0.024,0.024,0.04,0.032,0.064c-5.418-5.23-10.49-11.095-14.82-17.73c0.686-3.549,1.362-7.035,2.006-10.357
		c1.951-10.082,3.659-18.9,4.888-25.22c1.213-6.29,1.967-10.074,1.967-10.074l-12.253-2.394c0,0-5.244,26.94-10.984,56.792
		c-2.886,14.911-5.878,30.559-8.406,43.939c-2.528,13.395-4.577,24.467-5.586,30.372c-0.734,4.381-1.932,7.538-3.282,9.815
		c-1.025,1.704-2.136,2.92-3.38,3.91c-1.845,1.468-4.084,2.442-6.886,3.078c-2.784,0.628-6.081,0.864-9.686,0.864
		c-2.136,0-4.377-0.078-6.666-0.165c-6.541-0.29-10.812-2.12-13.324-4.295c-1.264-1.068-2.12-2.246-2.701-3.533
		c-0.581-1.265-0.888-2.662-0.888-4.216c0-0.464,0.035-0.919,0.086-1.422c0.067-0.628,0.256-1.264,0.562-1.994
		c0.549-1.272,1.59-2.804,3.128-4.57c2.273-2.623,5.587-5.653,9.089-9.304c3.518-3.659,7.244-7.986,10.234-13.45
		c0.546-0.989,0.938-1.948,1.28-2.999c0.668-1.932,1.198-4.138,1.676-6.666c0.836-4.406,1.52-9.854,2.101-16.136
		c1.758-18.718,2.579-44.708,2.579-68.641c0-13.426-0.256-26.209-0.77-36.668c-0.256-5.246-0.566-9.909-0.958-13.804
		c-0.392-3.926-0.817-7.052-1.453-9.564l-2.457,0.613c-2.729-12.092-4.428-25.817-4.476-41.654c-0.019-1.948-0.463-3.651-1.06-5.276
		c-1.162-3.038-2.94-5.928-5.159-8.99c-3.899-5.324-9.195-11.118-15.036-16.976c-8.763-8.762-18.691-17.604-26.465-24.278
		c-7.773-6.666-13.395-11.174-13.426-11.213l-0.719-0.58l-0.856-0.322c-0.016-0.015-4.97-2.017-10.832-4.185
		c-2.921-1.099-6.082-2.238-9.002-3.212c-2.8-0.911-5.261-1.641-7.44-2.104c-0.118-0.063-0.813-0.494-1.684-1.249
		c-1.657-1.397-3.895-3.753-6.152-6.407c-0.848-0.989-1.688-2.081-2.541-3.132l11.629,2.198c0.907,0.165,1.778,0.252,2.6,0.252
		c1.708,0,3.246-0.354,4.491-0.95c1.915-0.895,3.128-2.206,3.879-3.298c0.734-1.084,1.024-1.947,1.095-2.136l-5.947-1.915
		l1.676,0.526l-1.641-0.581h-0.016c-0.035,0.118-0.326,0.738-0.856,1.201c-0.546,0.456-1.198,0.888-2.681,0.919
		c-0.412,0-0.888-0.031-1.453-0.133l-18.538-3.502c-0.432-0.58-0.954-1.256-1.35-1.798c-1.347-1.845-2.458-3.416-3.242-4.531
		c-0.393-0.557-0.703-1.005-0.907-1.295l-0.24-0.338l-0.067-0.11l-0.158-0.22c-0.749-1.123-4.322-6.423-8.064-12.586
		c-1.389-2.293-2.717-4.672-4.012-7.004c3.145-4.884,7.416-17.133,9.74-24.208l35.074,2.796l2.081-2.426l0.035-0.032
		c0.565-0.651,5.98-6.902,12.901-13.379c3.451-3.228,7.279-6.51,10.949-9.14c3.659-2.63,7.244-4.546,9.705-5.229
		c4.853-1.382,11.26-1.947,17.546-1.947c6.375,0,12.626,0.549,17.258,1.091c2.304,0.275,4.2,0.55,5.516,0.753
		c0.667,0.087,1.182,0.173,1.504,0.236l0.392,0.056l0.087,0.015h0.019l0.102,0.024L138.216,79.8l6.015,1.665l7.62-27.717
		l-0.392-0.11c1.036-3.251,2.257-6.925,3.568-10.514c1.488-4.106,3.078-8.032,4.468-10.757c0.565,0.604,1.158,1.24,1.802,1.97
		c2.564,2.921,5.673,6.753,8.853,10.82c4.766,6.117,9.701,12.798,13.443,17.918c1.864,2.559,3.435,4.734,4.53,6.273
		c0.467,0.667,0.809,1.138,1.096,1.532l6.658,24.71l0.891,1.06c0.031,0.016,105.887,125.064,190.479,219.381
		c9.956,12.288,16.183,23.956,20.536,34.941c6.544,16.473,8.712,31.408,12.504,44.662c1.916,6.595,4.291,12.845,8.135,18.452
		c3.808,5.59,9.175,10.388,16.316,13.788c8.731,4.185,16.536,6.062,23.457,6.062c5.057,0.015,9.635-1.021,13.549-2.811
		c5.878-2.717,10.164-7.06,12.916-11.708c0.974-1.672,1.712-3.376,2.336-5.088c0.44,1.303,0.868,2.661,1.216,4.13
		c0.801,3.447,1.316,7.278,1.316,11.158C499.527,433.464,499.033,437.326,497.922,440.923z"/>
</g>
</svg>