<?xml version="1.0" encoding="utf-8"?>

<!DOCTYPE svg PUBLIC "-//W3C//DTD SVG 1.1//EN" "http://www.w3.org/Graphics/SVG/1.1/DTD/svg11.dtd">

<svg height="800px" width="800px" version="1.1" id="_x32_" xmlns="http://www.w3.org/2000/svg" xmlns:xlink="http://www.w3.org/1999/xlink" 
	 viewBox="0 0 512 512"  xml:space="preserve">
<style type="text/css">
	.st0{fill:#000000;}
</style>
<g>
	<path class="st0" d="M54.703,139.902c4.882,1.369,9.971-1.499,11.318-6.403c1.37-4.884-1.487-9.961-6.382-11.308
		c-6.845-1.854-13.065-6.942-15.253-12.472c-1.423-3.472-2.221-7.481-2.221-11.696c0.011-7.481,2.502-15.588,8.268-22.799
		c5.768-7.212,14.888-13.712,28.804-17.603c9.152-2.555,23.651-5.132,40.166-7.719c24.869-3.923,54.524-7.988,80.181-13.075
		c12.849-2.544,24.685-5.315,34.646-8.581c9.961-3.352,18.024-6.748,24.028-12.526c3.611-3.569,3.622-9.389,0.043-13.001
		c-3.568-3.611-9.4-3.622-13-0.043c-1.165,1.208-4.334,3.278-8.937,5.185c-8.053,3.44-20.245,6.749-34.237,9.681
		c-21.01,4.441-46.181,8.182-69.39,11.686c-23.274,3.558-44.402,6.802-58.427,10.672C57.225,44.63,44.429,53.243,36.065,63.742
		c-8.387,10.479-12.289,22.703-12.289,34.28c0,6.544,1.228,12.882,3.61,18.682C32.432,128.681,43.093,136.614,54.703,139.902z"/>
	<path class="st0" d="M152.422,262.253c-3.341-3.826-9.163-4.214-12.968-0.862l-56.799,49.673
		c-3.827,3.342-4.216,9.163-0.862,12.968c3.342,3.827,9.152,4.216,12.968,0.873l56.788-49.673
		C155.376,271.89,155.763,266.069,152.422,262.253z"/>
	<path class="st0" d="M215.161,270.37c-3.352-3.827-9.163-4.214-12.979-0.873l-56.831,49.706c-3.827,3.342-4.216,9.142-0.873,12.968
		c3.341,3.827,9.152,4.216,12.979,0.873l56.831-49.706C218.115,279.997,218.502,274.198,215.161,270.37z"/>
	<path class="st0" d="M273.609,263.72l-57.887,48.423c-3.892,3.266-4.409,9.066-1.154,12.957c3.255,3.891,9.055,4.409,12.957,1.154
		l57.877-48.412c3.902-3.266,4.409-9.066,1.164-12.958C283.299,260.992,277.501,260.463,273.609,263.72z"/>
	<path class="st0" d="M377.192,269.077c4.291,4.829,8.15,10.057,11.728,15.524l93.332-56.163
		c-9.292-15.847-20.869-30.421-34.312-43.443c-22.099-21.387-49.2-38.506-78.952-50.33L339.797,240.51
		C353.973,247.409,366.638,257.23,377.192,269.077z"/>
	<path class="st0" d="M201.761,239.465c1.304,0,2.501-0.054,3.558-0.162c35.358-3.405,42.193-5.691,76.634-9.238
		c3.633-0.356,7.232-0.539,10.812-0.539c6.899,0,13.593,0.819,20.148,2.102l29.202-105.9c-10.974-3.019-22.131-5.476-33.504-7.018
		c-16.547-2.263-33.514-3.395-50.546-3.395c-34.043,0-68.419,4.528-100.727,13.54c-0.065,0.011-31.358,9.087-65.488,19.112
		c-34.097,10.015-71.147,21-82.024,24.61c-1.39,0.452-2.447,0.819-2.457,0.841c-1.531,0.625-2.501,1.832-2.588,2.199l-0.011,0.022
		l0.302,0.388c0.539,0.561,2.059,1.639,5.034,2.544c3.332,1.045,10.025,3.654,19.824,7.47c9.724,3.806,22.228,8.7,36.178,13.992
		c27.909,10.597,61.595,22.789,89.99,30.756C174.951,236.123,191.661,239.486,201.761,239.465z"/>
	<path class="st0" d="M258.926,465.809l-99.854-60.238l25.01,87.156c1.864,0.538,4.312,1.228,7.481,2.08
		c7.082,1.92,17.194,4.463,29.202,7.018c12.559,2.662,27.219,5.293,42.591,7.222l-7.89-42.602L258.926,465.809z"/>
	<path class="st0" d="M366.165,442.33c-22.832,16.062-51.625,25.409-81.215,27.866l7.642,41.276
		c4.582,0.215,9.186,0.528,13.734,0.528c2.803,0,5.605-0.053,8.376-0.139c62.588-2.124,117.932-31.629,153.063-77.034
		l-64.906-35.853C394.925,416.545,382.053,431.216,366.165,442.33z"/>
	<path class="st0" d="M494.531,254.061l-92.47,55.656c6.048,15.393,9.389,32.048,9.4,49.122c0.021,4.15-0.292,8.193-0.755,12.149
		l72.84,40.252c15.081-27.058,23.683-58.179,23.683-91.672C507.23,296.296,502.573,274.402,494.531,254.061z"/>
</g>
</svg>