<?xml version="1.0" encoding="utf-8"?>

<!DOCTYPE svg PUBLIC "-//W3C//DTD SVG 1.1//EN" "http://www.w3.org/Graphics/SVG/1.1/DTD/svg11.dtd">

<svg height="800px" width="800px" version="1.1" id="_x32_" xmlns="http://www.w3.org/2000/svg" xmlns:xlink="http://www.w3.org/1999/xlink" 
	 viewBox="0 0 512 512"  xml:space="preserve">
<style type="text/css">
	.st0{fill:#000000;}
</style>
<g>
	<path class="st0" d="M413.683,116.909c-54.298,0-98.327,38.372-98.327,110.314c0,129.495-78.21,166.008-110.183,176.676
		c-31.98,10.643-143.883,47.95-167.867,55.947c-23.984,7.989-31.98,39.962,2.663,39.962c34.635,0,213.171,0,263.792,0
		C498.276,499.808,512,269.55,512,215.226C512,160.921,467.98,116.909,413.683,116.909z"/>
	<path class="st0" d="M347.818,73.473c16.92,0,30.636-13.715,30.636-30.645c0-16.92-13.715-30.636-30.636-30.636
		c-16.938,0-30.646,13.715-30.646,30.636C317.172,59.758,330.88,73.473,347.818,73.473z"/>
	<path class="st0" d="M470.293,73.473c16.938,0,30.645-13.715,30.645-30.645c0-16.92-13.707-30.636-30.645-30.636
		c-16.92,0-30.637,13.715-30.637,30.636C439.656,59.758,453.373,73.473,470.293,73.473z"/>
	<path class="st0" d="M141.221,387.905c3.807,0,7.57-0.157,11.289-0.454c-9.176-1.432-18.344-3.807-27.363-7.16
		c-23.075-8.574-41.82-23.844-54.733-42.754c-12.913-18.912-20.046-41.481-20.046-64.774c0-13.271,2.322-26.795,7.202-39.944
		c7.011-18.868,19.505-34.182,34.941-44.728c15.462-10.556,33.911-16.396,52.962-16.396c10.852,0,21.906,1.903,32.653,5.893
		c15.48,5.736,28.078,16.012,36.74,28.707c8.669,12.694,13.454,27.825,13.454,43.488c0.008,8.906-1.563,18.003-4.837,26.813
		c-2.367,6.391-5.676,12.196-9.7,17.278c-4.034,5.098-8.766,9.499-14.013,13.061c-10.477,7.16-22.988,11.124-35.918,11.124
		c-7.36,0-14.869-1.284-22.141-4.008c-5.309-1.955-10.146-4.714-14.372-8.058c-4.251-3.336-7.884-7.299-10.861-11.648
		c-1.196-1.728-2.191-3.58-3.152-5.43c-0.874-7.028,5.963-16.23,17.182-10.093c2.148,4.435,5.274,8.382,9.211,11.49
		c2.628,2.078,5.614,3.78,8.958,5.011c5.02,1.885,10.136,2.741,15.174,2.741c6.644,0,13.131-1.501,19.007-4.364
		c5.876-2.829,11.123-6.985,15.236-12.215c2.759-3.465,5.012-7.438,6.653-11.847c2.444-6.584,3.588-13.271,3.588-19.855
		c0-8.678-1.99-17.165-5.692-24.847c-3.719-7.674-9.142-14.511-15.978-19.915c-4.558-3.589-9.735-6.557-15.506-8.704
		c-8.495-3.16-17.148-4.646-25.686-4.646c-11.228,0-22.211,2.603-32.139,7.387c-9.935,4.802-18.788,11.822-25.773,20.666
		c-4.653,5.92-8.486,12.608-11.254,20.046c-4.06,10.905-5.954,22.037-5.954,32.994c0,19.207,5.902,37.883,16.563,53.502
		c10.696,15.638,26.079,28.184,45.191,35.29c13.908,5.168,28.113,7.614,42.082,7.614c20.936,0,41.349-5.483,59.3-15.576
		c29.981-25.896,48.954-64.189,48.954-106.918c0-77.984-63.229-141.23-141.221-141.23C63.237,105.445,0,168.691,0,246.675
		C0,324.667,63.237,387.905,141.221,387.905z M152.09,217.2c-5.029,0.62-9.884,1.476-14.554,2.55
		C142.19,218.125,147.07,217.2,152.09,217.2z"/>
</g>
</svg>