<?xml version="1.0" encoding="utf-8"?>

<!DOCTYPE svg PUBLIC "-//W3C//DTD SVG 1.1//EN" "http://www.w3.org/Graphics/SVG/1.1/DTD/svg11.dtd">

<svg height="800px" width="800px" version="1.1" id="_x32_" xmlns="http://www.w3.org/2000/svg" xmlns:xlink="http://www.w3.org/1999/xlink" 
	 viewBox="0 0 512 512"  xml:space="preserve">
<style type="text/css">
	.st0{fill:#000000;}
</style>
<g>
	<path class="st0" d="M174.828,196.95c67.038-13.81,93.857-19.338,107.257-22.102c14.81-3.05,24.36-17.536,21.31-32.356
		c-3.069-14.801-17.536-24.332-32.347-21.282c0,0-55.868,11.523-73.766,15.201l0.267-0.238c-5.204,1.258-10.484-1.954-11.761-7.186
		c-1.239-5.232,1.964-10.513,7.186-11.771l0.362,0.086l100.128-20.624c0,0,61.129,27.582,75.234,35.159
		c15.191,7.024,35.415,5.422,43.611-8.301c8.215-13.715,5.166-29.078-8.501-37.265c-14.181-7.567-162.21-74.557-162.21-74.557
		c-11.36-5.166-18.413-4.289-32.919-1.296L53.904,42.278H0v137.097h59.622C91.779,188.811,122.391,208.71,174.828,196.95z"/>
	<path class="st0" d="M326.344,219.957c0-7.844-6.366-14.201-14.219-14.201c-7.834,0-14.201,6.357-14.201,14.201
		c0,7.853,6.366,14.21,14.201,14.21C319.978,234.166,326.344,227.81,326.344,219.957z"/>
	<path class="st0" d="M269.657,262.482c0-7.844-6.366-14.22-14.22-14.22c-7.834,0-14.22,6.376-14.22,14.22
		c0,7.843,6.386,14.21,14.22,14.21C263.29,276.692,269.657,270.325,269.657,262.482z"/>
	<path class="st0" d="M232.145,341.49c0,7.844,6.366,14.21,14.22,14.21c7.834,0,14.22-6.367,14.22-14.21
		c0-7.844-6.386-14.21-14.22-14.21C238.511,327.279,232.145,333.646,232.145,341.49z"/>
	<path class="st0" d="M321.999,319.217c7.853,0,14.219-6.357,14.219-14.211c0-7.843-6.366-14.2-14.219-14.2
		c-7.834,0-14.2,6.357-14.2,14.2C307.798,312.86,314.164,319.217,321.999,319.217z"/>
	<path class="st0" d="M392.715,414.523c-39.761-29.822-59.642-44.737-99.422-44.737c-39.762,0-59.642,14.915-99.404,44.737
		c-39.742,29.83-119.284,89.473-119.284,89.473H512C512,503.995,432.458,444.353,392.715,414.523z"/>
</g>
</svg>