<?xml version="1.0" encoding="utf-8"?>

<!DOCTYPE svg PUBLIC "-//W3C//DTD SVG 1.1//EN" "http://www.w3.org/Graphics/SVG/1.1/DTD/svg11.dtd">

<svg height="800px" width="800px" version="1.1" id="_x32_" xmlns="http://www.w3.org/2000/svg" xmlns:xlink="http://www.w3.org/1999/xlink" 
	 viewBox="0 0 512 512"  xml:space="preserve">
<style type="text/css">
	.st0{fill:#000000;}
</style>
<g>
	<path class="st0" d="M128.108,113.302c7.255-1.466,11.958-8.532,10.502-15.779c-1.466-7.255-8.524-11.958-15.78-10.501
		c-7.247,1.458-11.966,8.516-10.493,15.787C113.787,110.055,120.854,114.759,128.108,113.302z"/>
	<path class="st0" d="M500.821,368.283c-7.192-6.72-17.268-10.556-28.65-10.697c-10.139-0.197-18.237-2.805-25.295-6.578
		c-10.477-5.687-18.441-14.542-23.577-22.073c-0.205-0.276-0.339-0.552-0.552-0.82c4.53-3.765,7.342-8.429,8.776-12.619
		c1.788-5.136,2.064-9.729,2.127-12.817v-0.071c0-1.433-0.063-2.465-0.213-3.356l-0.126-62.446
		c13.226-1.567,24.539-5.278,33.44-11.517c5.971-4.104,10.768-9.319,14.054-15.417c3.23-6.034,4.868-12.762,4.868-19.536
		c0-5.42-0.953-10.832-2.876-15.976v-0.063c-4.388-12.069-13.021-25.854-24.066-41.059c-16.574-22.703-38.655-47.706-59.901-67.668
		c-10.69-9.934-21.12-18.639-30.786-25.216c-4.869-3.301-9.587-6.105-14.321-8.161v-0.071c-3.561-1.575-7.264-2.804-11.179-3.418
		c-1.37-0.489-2.804-0.828-4.309-0.828h-0.07c-7.263,0.134-13.644,2.671-19.812,5.901h-0.071
		c-10.966,5.821-22.75,14.935-35.095,26.106c-18.575,16.732-38.112,37.978-54.49,58.546c-3.229,4.042-6.31,8.083-9.184,12.061
		c-1.646,1.166-3.017,3.017-3.632,4.939c-3.151,4.388-6.113,8.704-8.784,12.888c-0.678,1.086-1.37,2.119-1.985,3.151
		c-17.48,1.78-18.441-9.469-12.816-19.332c4.388-7.885,6.176-32.211-10.556-33.385c-17.961-1.229-21.932,19.26-20.427,28.107
		c2.671,15.495-6.302,28.312-17.276,28.517c-6.79,0.142-29.273,7.814-35.024,10.966c-5.758,3.08-16.038,3.356-19.749-3.018
		c-6.641-11.58-17.063-8.571-20.899-5.419c-3.774,3.088-6.578,12.69,2.678,20.836c8.626,7.546,1.496,14.605,0.268,18.52
		c-3.088,9.594-24.263,18.228-35.307-0.15c-7.13-11.848-28.029-22.065-34.756-7.941c-4.585,9.595,3.702,24.806,20.914,26.942
		c14.054,1.71,26.871,9.327,25.563,24.665c-1.3,15.022-9.658,19.269-19.458,16.59c-5.696-1.504-8.162,3.159-8.437,6.31
		c-0.347,3.159,2.536,7.609,7.058,7.885c16.038,0.954,20.435,10.28,22.278,16.788c4.734,16.661-16.039,24.546-29.131,22.828
		c-10.147-1.299-24.059,7.405-18.442,19.679c5.838,12.549,22.696,8.358,28.17,3.293c13.991-12.959,28.863,1.237,32.022,6.987
		c15.622,28.376,24.602,30.92,29.612,35.095c5.073,4.183,11.856,12.069-5.419,30.849c-5.003,5.483-0.757,14.4,3.639,16.787
		c4.309,2.41,12.88,3.017,16.039-6.026c6.711-19.261,19.528-19.127,26.043-17.268c29.344,8.224,12.888,46.462,11.785,52.913
		c-0.82,4.459,0.622,16.039,9.193,17.953c8.02,1.718,14.117-6.097,13.298-15.897c-0.481-5.483-6.586-32.014,4.112-44.012
		c1.772,2.993,4.01,5.711,6.712,8.169l-0.024-0.039l0.04,0.047c0.023,0.016,0.039,0.031,0.055,0.056
		c6.649,5.892,15.495,9.736,28.651,11.375c2.812,2.742,6.444,4.183,10.974,2.671c1.843-0.615,3.419-1.568,4.656-2.812
		c4.395-0.473,8.776-1.292,13.022-2.458c-3.624,5.955-5.546,12.675-5.476,19.127v0.338c0,8.91,3.081,17.544,8.847,24.335
		c5.609,6.711,14.243,11.517,24.327,11.722l0.346,0.063h0.41c2.6,0,5.136-0.339,7.68-0.962h0.339l0.82-0.204
		c14.33-3.702,26.256-12.612,36.064-23.302c13.502-14.873,23.641-33.866,30.975-52.646c4.663,12.069,10.429,24.129,17.622,35.237
		c6.098,9.39,13.093,18.024,21.246,25.161c8.161,7.121,17.551,12.888,28.312,15.614c2.954,0.693,5.822,1.103,8.776,1.103h0.205
		c10.28-0.063,19.119-4.931,24.885-11.784c5.759-6.79,8.776-15.425,8.847-24.405v-0.205c0-6.586-1.93-13.298-5.632-19.269
		c7.058,1.86,14.329,2.954,21.671,2.954c1.371,0,2.804-0.071,4.176-0.134c12.745-0.693,23.577-4.734,31.392-11.73
		c7.814-6.924,11.998-16.44,11.998-26.114C512,384.046,508.03,374.861,500.821,368.283z M486.295,404.269
		c-3.632,3.222-9.594,5.971-18.78,6.514c-1.032,0-2.056,0.063-3.08,0.063c-15.022,0-30.919-5.956-44.973-16.448
		c-14.124-10.414-26.256-25.287-34.007-42.499c-1.505-3.356-5.412-4.931-8.76-3.561c-3.435,1.442-5.144,5.27-3.915,8.697
		c0.063,0.142,5.412,15.085,13.715,31.881c4.175,8.429,9.044,17.41,14.526,25.303c5.419,7.87,11.32,14.794,18.308,19.19
		c6.239,3.899,8.358,9.106,8.5,14.526c0,4.112-1.575,8.303-3.978,11.099c-2.473,2.891-5.561,4.459-9.39,4.53
		c-1.166,0-2.332-0.142-3.702-0.481c-9.115-2.34-17.961-8.437-25.98-17.205c-12.132-13.093-22.136-32.078-28.927-50.598
		c-6.853-18.426-10.492-36.662-10.492-47.494c0-1.922-0.882-3.837-2.395-5.144l-0.268-0.268c-2.064-1.718-4.868-2.126-7.342-1.04
		c-2.394,1.103-3.978,3.577-3.978,6.24c0,7.137-1.568,17.756-4.656,29.414c-4.592,17.473-12.541,37.561-23.097,53.946
		c-5.286,8.162-11.17,15.424-17.481,20.978c-6.31,5.554-12.958,9.382-19.82,11.171c-1.3,0.339-2.6,0.481-3.694,0.481
		c-3.908-0.071-6.925-1.639-9.398-4.53c-2.466-2.875-4.041-6.987-3.962-11.099c0.063-5.42,2.252-10.627,8.358-14.526
		c5.546-3.506,10.351-8.571,14.81-14.472c1.229-1.568,2.387-3.159,3.49-4.798c4.53-6.577,8.642-13.912,12.265-21.112
		c2.955-5.695,5.554-11.241,7.752-16.251c5.01-11.305,8.019-19.742,8.019-19.876c1.229-3.427-0.48-7.263-3.908-8.634
		c-3.434-1.371-7.334,0.205-8.775,3.56c-4.585,10.351-10.824,19.804-18.166,28.036c-4.797,5.483-10.138,10.422-15.763,14.598
		c-0.552,0.417-1.032,0.756-1.583,1.103c-9.933,7.2-20.757,12.131-31.526,14.258c-4.041,0.756-8.019,1.166-11.926,1.166
		c-0.961,0-1.922,0-2.883-0.071c-9.177-0.481-15.212-3.222-18.851-6.515c-3.632-3.214-5.137-7.058-5.137-10.753
		c0-3.64,1.442-7.271,4.522-10.083c3.088-2.876,7.885-5.144,15.086-5.271c13.502-0.283,25.09-3.915,34.677-9.185
		c14.409-7.886,24.271-19.269,30.636-28.659c6.389-9.327,9.201-16.724,9.327-17.062c0.828-2.127,0.552-4.53-0.756-6.381
		c-1.229-1.851-3.348-2.946-5.609-2.946c-2.82,0-4.459-0.552-5.562-1.166c-1.638-0.961-2.599-2.268-3.293-4.316
		c-0.748-1.922-0.952-4.388-0.952-5.972c0-0.606,0.07-1.158,0.07-1.496v-0.347l0.064-0.898V224.06c0-1.78-0.678-3.569-1.985-4.797
		c-1.308-1.308-3.018-2.056-4.869-2.056c-16.59,0-28.374-3.64-35.504-8.642c-3.632-2.536-6.106-5.341-7.744-8.366
		c-1.655-3.009-2.474-6.239-2.474-9.8c0-2.805,0.551-5.751,1.655-8.91c1.709-4.931,5.002-11.304,9.586-18.646
		c3.301-5.483,7.405-11.518,11.926-17.756c15.763-21.656,37.427-46.336,57.656-65.321c10.138-9.532,19.876-17.551,28.242-23.096
		c4.104-2.813,7.877-4.948,11.107-6.303c2.387-1.102,4.451-1.654,5.893-1.788l0.748,0.134c2.056,0.071,6.034,1.3,10.832,3.908
		c8.429,4.529,19.402,12.888,30.982,23.373c17.41,15.7,36.323,36.126,51.89,55.663c7.814,9.728,14.738,19.331,20.292,27.894
		c5.483,8.507,9.595,16.18,11.588,21.734c1.158,3.222,1.639,6.239,1.639,9.052c0,3.561-0.748,6.72-2.395,9.799
		c-2.474,4.459-6.854,8.634-13.983,11.785c-7.066,3.23-16.795,5.286-29.21,5.286c-3.837,0-6.846,3.081-6.846,6.924l0.197,75.736
		l0.071,0.898v0.063c0.071,0.142,0.141,0.898,0.141,1.851c0,2.198-0.488,5.696-1.78,7.752c-0.622,1.095-1.379,1.851-2.473,2.465
		c-1.103,0.615-2.734,1.166-5.483,1.229c-2.261,0-4.38,1.103-5.688,2.946c-1.236,1.86-1.504,4.254-0.685,6.381
		c0.134,0.41,5.207,13.439,16.929,26.871c5.901,6.712,13.502,13.502,23.168,18.717c9.602,5.27,21.183,8.83,34.685,9.114l0.142-6.862
		l-0.071,6.862c7.13,0.141,11.998,2.331,15.078,5.215c3.08,2.875,4.522,6.436,4.522,10.067
		C491.432,397.139,489.926,400.983,486.295,404.269z"/>
	<path class="st0" d="M305.016,246.409c-5.68,0-10.28,4.601-10.28,10.273c0,5.68,4.6,10.288,10.28,10.288
		c5.672,0,10.288-4.608,10.288-10.288C315.304,251.01,310.688,246.409,305.016,246.409z"/>
	<path class="st0" d="M371.849,246.409c-5.68,0-10.28,4.601-10.28,10.273c0,5.68,4.6,10.288,10.28,10.288
		c5.672,0,10.288-4.608,10.288-10.288C382.137,251.01,377.522,246.409,371.849,246.409z"/>
	<path class="st0" d="M52.216,426.995c-6.019,1.205-9.934,7.074-8.728,13.1c1.213,6.018,7.09,9.933,13.108,8.713
		c6.034-1.206,9.941-7.083,8.728-13.108C64.119,429.682,58.25,425.774,52.216,426.995z"/>
	<path class="st0" d="M54.162,153.012c6.247-1.26,10.296-7.342,9.035-13.581c-1.252-6.262-7.326-10.304-13.58-9.052
		c-6.248,1.253-10.296,7.334-9.036,13.589C41.833,150.215,47.915,154.273,54.162,153.012z"/>
</g>
</svg>