<?xml version="1.0" encoding="utf-8"?>

<!DOCTYPE svg PUBLIC "-//W3C//DTD SVG 1.1//EN" "http://www.w3.org/Graphics/SVG/1.1/DTD/svg11.dtd">

<svg height="800px" width="800px" version="1.1" id="_x32_" xmlns="http://www.w3.org/2000/svg" xmlns:xlink="http://www.w3.org/1999/xlink" 
	 viewBox="0 0 512 512"  xml:space="preserve">
<style type="text/css">
	.st0{fill:#000000;}
</style>
<g>
	<path class="st0" d="M415.381,393.634c-59.076-1.08-81.879-60.082-81.879-60.082c23.035-0.072,19.606-25.194,19.606-25.194
		l-0.288-90.495c50.275-0.16,70.114-26.248,60.171-53.832C396.198,117.519,291.707,1.95,255.739,0.336V0
		c-35.193,0-140.77,117.304-157.54,164.23c-9.855,27.615,10.063,53.632,60.338,53.632v90.503c0,0-3.349,25.138,19.687,25.138
		c0,0-22.62,59.067-81.688,60.314c-41.451,0.887-44.001,52.793,5.02,55.311c41.411,2.126,85.468-30.165,105.578-75.404
		c0,0-25.13,70.377-51.946,87.138c-26.816,16.762-11.254,57.501,16.762,50.275c51.953-13.404,83.789-107.256,83.789-145.798
		l0.352,0.304c0.111,38.541,32.259,132.289,84.244,145.526c28.031,7.146,43.466-33.65,16.601-50.323
		c-26.872-16.681-52.225-86.979-52.225-86.979c20.262,45.184,64.422,77.323,105.818,75.069
		C459.542,446.274,456.84,394.377,415.381,393.634z"/>
</g>
</svg>