<?xml version="1.0" encoding="utf-8"?>

<!DOCTYPE svg PUBLIC "-//W3C//DTD SVG 1.1//EN" "http://www.w3.org/Graphics/SVG/1.1/DTD/svg11.dtd">

<svg version="1.1" id="_x32_" xmlns="http://www.w3.org/2000/svg" xmlns:xlink="http://www.w3.org/1999/xlink" 
	 width="800px" height="800px" viewBox="0 0 512 512"  xml:space="preserve">
<style type="text/css">
<![CDATA[
	.st0{fill:#000000;}
]]>
</style>
<g>
	<path class="st0" d="M138.692,184.109l27.984-3.391l-17.953,102.438c-0.953,5.391,0.531,10.938,4.063,15.125
		c3.5,4.188,8.703,6.609,14.172,6.609h89.047h89.031c5.484,0,10.672-2.422,14.203-6.609c3.516-4.188,4.984-9.734,4.047-15.125
		l-17.969-102.438l27.984,3.391c7.406,0.891,14.641-2.734,18.344-9.234c3.688-6.484,3.125-14.563-1.422-20.469L280.458,12.031
		C274.614,4.438,265.583,0,256.004,0s-18.609,4.438-24.469,12.031L121.801,154.406c-4.578,5.906-5.125,13.984-1.438,20.469
		C124.051,181.375,131.286,185,138.692,184.109z"/>
	<path class="st0" d="M449.113,454.859c-7.734-1.203-14.984,4.063-16.203,11.797c-0.047,0.344-0.172,0.828-0.5,1.5
		c-0.328,0.656-0.844,1.469-1.625,2.406c-1.547,1.844-4.125,4.031-7.687,6.031c-7.125,4.016-18,7.109-30.922,7.094
		c-12.703,0-27.422-2.906-42.969-10.375c-10.766-5.188-19.547-12.563-26.781-21.031c-7.25-8.438-12.875-17.969-17.094-26.969
		c-3-6.391-5.266-12.484-6.984-17.719c18.516,16.25,54.391,39.219,104.547,32.359c84.093-11.484,83.046-97.703,70.187-131.328
		s-27.375-73.719-51.406-84.078c-33.406-14.406-35.984,28.828,10.281,64.859c46.266,36.031,26.266,125-35.984,122.5
		c-60.688-2.438-59.125-96.844-59.125-96.844H175.161c0,0,1.547,94.406-59.125,96.844c-62.25,2.5-82.266-86.469-35.984-122.5
		c46.266-36.031,43.703-79.266,10.281-64.859C66.301,234.906,51.77,275,38.911,308.625
		c-12.844,33.625-13.906,119.844,70.188,131.328c50.172,6.859,86.047-16.109,104.547-32.359c-1.688,5.234-3.969,11.328-6.969,17.719
		c-4.219,9-9.859,18.531-17.078,26.969c-7.266,8.469-16.047,15.844-26.813,21.031c-15.531,7.469-30.25,10.375-42.969,10.375
		c-12.906,0.016-23.781-3.078-30.891-7.094c-3.578-2-6.156-4.188-7.719-6.031c-0.766-0.938-1.281-1.75-1.609-2.406
		c-0.328-0.672-0.453-1.156-0.5-1.5c-1.219-7.734-8.484-13-16.203-11.797c-7.734,1.219-12.984,8.453-11.781,16.188
		c0.531,3.391,1.609,6.609,3.047,9.578c2.563,5.188,6.234,9.609,10.563,13.406c6.531,5.719,14.625,10.094,23.922,13.188
		c9.297,3.063,19.797,4.781,31.172,4.781c17.031,0,35.656-4.625,55.266-13.188c17.578-7.656,36.063-20.625,44.656-28.641
		c14.719-13.703,28.656-34.328,36.266-46.578c7.609,12.25,21.531,32.875,36.266,46.578c8.594,8.016,27.078,20.984,44.672,28.641
		C356.536,507.375,375.161,512,392.176,512c11.375,0,21.891-1.719,31.172-4.781c9.312-3.094,17.406-7.469,23.937-13.188
		c4.328-3.797,7.984-8.219,10.563-13.406c1.438-2.969,2.516-6.188,3.047-9.578C462.098,463.313,456.832,456.078,449.113,454.859z"/>
</g>
</svg>