<?xml version="1.0" encoding="utf-8"?>

<!DOCTYPE svg PUBLIC "-//W3C//DTD SVG 1.1//EN" "http://www.w3.org/Graphics/SVG/1.1/DTD/svg11.dtd">

<svg height="800px" width="800px" version="1.1" id="_x32_" xmlns="http://www.w3.org/2000/svg" xmlns:xlink="http://www.w3.org/1999/xlink" 
	 viewBox="0 0 512 512"  xml:space="preserve">
<style type="text/css">
	.st0{fill:#000000;}
</style>
<g>
	<path class="st0" d="M482.856,283.717c-5.452-1.359-37.502,25.913-40.251,24.194c-2.921-2.257,2.827-7.373,7.934-22.679
		c16.448-49.326,1.719-92.786-2.452-93.739c-5.03-1.148-20.945,29.161-49.138,62.742c-67.28,80.134-179.075,106.39-245.41,55.363
		c-49.068-37.752-14.878-136.255,27.216-202.402C216.469,51.068,182.458-1.662,141.637,0.04C100.816,1.743,83.26,29.576,73.6,39.159
		C61.596,51.068,49.124,56.168,36.644,60.135c-15.963,5.085-13.136,18.15,3.874,21.554c18.415,3.687,59.813-2.233,56.893,25.507
		c-6.802,64.632-74.84,129.265-62.93,239.818C47.226,465.408,145.034,512,235.181,512c158.176,0,213.624-102.314,233.008-142.869
		C486.901,330.012,488.916,285.232,482.856,283.717z"/>
</g>
</svg>