<?xml version="1.0" encoding="utf-8"?>

<!DOCTYPE svg PUBLIC "-//W3C//DTD SVG 1.1//EN" "http://www.w3.org/Graphics/SVG/1.1/DTD/svg11.dtd">

<svg height="800px" width="800px" version="1.1" id="_x32_" xmlns="http://www.w3.org/2000/svg" xmlns:xlink="http://www.w3.org/1999/xlink" 
	 viewBox="0 0 512 512"  xml:space="preserve">
<style type="text/css">
	.st0{fill:#000000;}
</style>
<g>
	<path class="st0" d="M511.782,352.975c-0.209-0.955-0.486-1.759-0.821-2.656c-0.604-1.584-1.425-3.428-2.431-5.642l-1.585-3.42
		c-1.467-3.143-3.159-6.789-4.962-10.854c-4.803-10.846-8.424-20.511-11.081-29.564c-3.588-12.229-5.415-23.478-5.423-33.519
		c0-8.466,1.307-17.577,3.889-27.066c2.833-10.452,7.225-21.534,13.428-33.88c1.442-2.892,2.808-5.499,4.006-7.779l1.861-3.588
		c0.788-1.525,1.451-2.85,1.97-4.056c0.26-0.628,0.503-1.233,0.705-1.886c0.108-0.344,0.209-0.712,0.301-1.157
		c0.076-0.445,0.16-0.93,0.16-1.601c0-0.705-0.076-1.66-0.596-2.858c-0.294-0.663-0.712-1.3-1.216-1.845
		c-0.536-0.586-1.224-1.098-1.928-1.441l-1.886-0.939l-2.079,0.377c-9.362,1.694-18.29,5.934-26.537,12.607
		c-5.122,4.149-10.092,9.329-14.761,15.389c-5.415,7.008-10.469,15.205-15.465,25.063c-1.995,3.931-3.713,7.611-5.18,10.829
		l-2.992,6.555c-0.42-0.084-0.99-0.244-1.718-0.52c-1.593-0.604-3.546-1.61-5.658-2.9c-1.467-0.905-5.725-3.537-12.145-7.275
		c-18.223-10.595-54.886-30.662-96.654-46.488c3.931-8.759,8.968-17.392,14.971-25.682l7.627-10.511l-12.975,0.41
		c-12.103,0.386-24.04,3.445-35.472,9.103c-6.698,3.319-13.06,7.435-18.918,12.246c-9.463-2.464-18.642-4.468-26.949-5.801
		c-20.083-13.126-32.43-24.793-39.261-32.27c-4.383-4.812-7.09-8.5-8.583-10.755c-0.888-1.341-1.534-2.447-1.953-3.244
		c-0.201-0.377-0.343-0.704-0.461-0.972l-1.811-7.217l-6.873,2.958c-7.519,3.236-14.753,7.762-21.517,13.478
		c-8.072,6.824-15.506,15.356-22.095,25.339c-3.738,5.683-7.116,11.693-10.042,17.879c-45.473,10.595-77.76,28.516-96.854,41.692
		c-10.696,7.385-20.243,15.356-27.61,23.034c-3.261,3.403-6.01,6.672-8.172,9.714c-1.065,1.493-1.97,2.909-2.716,4.267
		c-0.83,1.492-1.417,2.783-1.836,4.066L0,265.065l22.49,16.018l-19.857,4.568l4.492,7.519c0.369,0.612,9.28,15.121,31.123,31.256
		c19.673,14.526,54.466,33.578,108.581,41.926c14.366,12.204,27.61,18.717,36.218,22.036c10.117,3.889,16.579,4.552,16.839,4.585
		l8.316,0.855l-3.881-23.109l3.026,0.017c25.011-0.034,52.722-4.351,82.353-12.816c8.131,3.47,17.862,6.203,28.926,8.139
		c9.79,1.693,19.941,2.632,28.566,2.632c1.97,0,3.772-0.05,5.415-0.16c1.24-0.075,2.388-0.176,3.445-0.318
		c0.813-0.117,1.567-0.234,2.288-0.402c0.561-0.118,1.106-0.269,1.684-0.453c0.93-0.327,1.786-0.67,2.884-1.483
		c0.461-0.369,1.165-0.972,1.794-1.987c0.327-0.536,0.578-1.089,0.737-1.659c0.201-0.654,0.302-1.342,0.294-1.962
		c0.009-0.713-0.109-1.45-0.336-2.129c-0.259-0.804-0.645-1.542-1.182-2.23c-0.368-0.469-0.762-0.88-1.249-1.29l-0.628-0.487
		l-0.512-0.268c-4.325-2.239-8.399-5.239-12.12-8.919c-1.878-1.844-3.697-3.923-5.532-6.312
		c18.625-7.778,37.342-16.704,57.191-27.258c7.878-4.182,14.476-7.862,19.504-10.67l1.694-0.939
		c2.179-1.224,4.006-2.246,5.431-3.009c0.788-0.428,1.467-0.78,1.962-1.031c0.436-0.218,0.772-0.368,0.83-0.386l0.628-0.26
		l0.42-0.268c2.137-1.316,4.09-2.322,5.683-2.925c0.712-0.269,1.274-0.428,1.693-0.52c0.52,1.124,2.515,5.498,2.515,5.498
		c2.448,5.331,5.171,11.098,8.532,17.234c6.555,11.986,13.37,21.475,20.83,28.994c4.728,4.752,9.732,8.692,14.87,11.702
		c5.851,3.419,12.028,5.732,18.357,6.865l2.095,0.377l1.887-0.956c0.754-0.378,1.483-0.948,2.044-1.593
		c0.679-0.788,1.157-1.701,1.426-2.716c0.192-0.771,0.226-1.367,0.234-1.869C511.992,354.091,511.891,353.512,511.782,352.975z
		 M164.866,159.25c4.418-5.692,9.187-10.712,14.166-14.919c4.133-3.496,8.5-6.488,12.992-8.919c1.433,2.28,3.202,4.735,5.256,7.309
		c5.255,6.588,14.702,16.78,30.234,28.691c-1.718-0.016-3.462-0.025-5.23-0.025c-13.797,0-28.574,0.519-42.732,1.492
		c-9.162,0.629-17.644,1.425-25.238,2.364C157.524,169.502,161.061,164.129,164.866,159.25z M72.706,259.063
		c4.066,0,7.376,3.303,7.376,7.376c0,4.065-3.31,7.376-7.376,7.376c-4.073,0-7.384-3.312-7.384-7.376
		C65.322,262.366,68.632,259.063,72.706,259.063z M127.726,349.707c-32.145-7.267-59.68-19.111-81.91-35.523
		c-10.502-7.745-17.585-14.961-21.676-19.647c-0.192-0.218-0.368-0.436-0.553-0.646l29.354-6.74l-20.888-14.887h20.586
		c2.574,8.919,10.721,15.08,20.066,15.08c9.338,0,17.477-6.161,20.059-15.08h42.714
		C141.556,296.766,141.791,330.529,127.726,349.707z M432.982,279.993c-2.254,0.855-4.702,2.088-7.334,3.697
		c-0.453,0.201-0.906,0.419-1.4,0.662c-1.241,0.629-2.825,1.484-4.803,2.573l-4.124,2.297c-7.15,3.99-16.957,9.455-29.296,15.808
		c-18.423,9.489-36.588,17.837-54.357,24.979l-0.461,0.252c-0.545,0.318-1.558,0.804-2.85,1.349
		c-2.179,0.93-5.239,2.062-9.111,3.395c-5.373,1.852-11.592,3.822-17.242,5.607c-2.825,0.897-5.516,1.743-7.896,2.515
		c-2.306,0.746-4.309,1.408-5.876,1.97c-29.262,8.541-56.487,12.884-81.306,12.908c-3.377,0-6.696-0.059-9.999-0.134l-0.512,0.016
		c-1.434,0.084-2.967,0.118-4.602,0.118c-5.607,0-12.732-0.47-21.19-1.391c-7.108-0.772-14.022-1.727-19.572-2.498l-0.378-0.05
		l-0.1-0.058l-0.193,0.016c-2.355-0.361-4.602-0.813-6.898-1.207c4.233-13.721,11.71-46.344,0.897-80.552h289.373
		c0.084,0.637,0.176,1.3,0.276,2.004c0.235,1.576,0.545,3.286,0.939,5.063C434.315,279.524,433.654,279.733,432.982,279.993z"/>
</g>
</svg>