<?xml version="1.0" encoding="utf-8"?>

<!DOCTYPE svg PUBLIC "-//W3C//DTD SVG 1.1//EN" "http://www.w3.org/Graphics/SVG/1.1/DTD/svg11.dtd">

<svg height="800px" width="800px" version="1.1" id="_x32_" xmlns="http://www.w3.org/2000/svg" xmlns:xlink="http://www.w3.org/1999/xlink" 
	 viewBox="0 0 512 512"  xml:space="preserve">
<style type="text/css">
	.st0{fill:#000000;}
</style>
<g>
	<path class="st0" d="M457.62,276.436l1.686-0.025l-8.881-15.096l-35.456-60.264l35.745-11.916l-40.764-56.41
		c10.832-9.957,18.409-20.958,23.307-32.143c5.99-13.628,8.078-27.398,8.078-39.901c-0.016-15.409-3.116-28.988-6.199-38.816
		c-3.099-9.828-6.182-15.923-6.391-16.3L425.918,0h-6.251c-11.732,0-22.612,2.626-32.24,6.432
		c-14.446,5.733-26.169,14.076-34.416,20.982c-1.237,1.044-2.385,2.048-3.461,3.011L336.132,8.062l-9.13,11.41l0,0v0.008
		c-0.192,0.241-6.046,7.219-17.674,14.036c-5.814,3.412-13.072,6.794-21.841,9.323c-8.769,2.538-19.055,4.231-31.012,4.231
		c-12.285,0-22.797-1.886-31.71-4.681c-13.369-4.184-23.182-10.455-29.605-15.602c-3.213-2.57-5.565-4.859-7.075-6.448
		c-0.747-0.787-1.284-1.405-1.614-1.791c-0.16-0.192-0.273-0.329-0.329-0.394l-0.04-0.064l0,0l-9.404-12.334l-13.61,24.387
		c-3.414-3.036-7.613-6.488-12.527-9.966c-6.986-4.938-15.401-9.933-25.037-13.747C115.905,2.626,105.024,0,93.285,0h-6.24
		l-2.842,5.565c-0.192,0.377-3.284,6.472-6.376,16.3c-3.084,9.828-6.199,23.407-6.199,38.816c-0.008,12.503,2.08,26.274,8.07,39.901
		c4.906,11.185,12.47,22.186,23.31,32.143l-40.768,56.41l35.741,11.916l-44.333,75.36l0.755,0.008
		c-15.362,12.968-27.02,30.498-27.02,53.864c0,68.471,0,126.414,0,126.414s23.246,11.9,60.256,24.66v-49.697h14.871v54.62
		c41.258,13.072,95.611,25.567,152.992,25.704V512c0.169,0,0.33-0.008,0.498-0.008S256.331,512,256.5,512v-0.016
		c57.374-0.136,111.736-12.632,152.985-25.704v-54.62h14.875v49.697c37.017-12.76,60.256-24.66,60.256-24.66s0-57.943,0-126.414
		C484.616,306.926,472.973,289.404,457.62,276.436z M128.343,189.665l-33.3-11.097l35.846-49.592l-7.845-6.039
		c-12.438-9.579-20.003-19.986-24.668-30.562c-4.65-10.575-6.352-21.424-6.352-31.694c-0.008-12.622,2.61-24.29,5.259-32.697
		c0.884-2.803,1.759-5.228,2.538-7.22c6.328,0.699,12.438,2.361,18.204,4.642c11.596,4.568,21.721,11.667,28.803,17.634
		c3.55,2.979,6.344,5.661,8.215,7.556c0.931,0.947,1.638,1.702,2.088,2.2c0.233,0.241,0.393,0.426,0.489,0.538l0.104,0.112v0.008
		l9.524,11.106l13.129-23.52c3.084,2.61,6.873,5.484,11.395,8.36c7.138,4.545,16.092,9.074,26.892,12.454
		c10.792,3.388,23.423,5.621,37.812,5.621c14.341,0,26.924-2.12,37.684-5.332c16.156-4.818,28.177-12.085,36.206-18.212
		c0.836-0.642,1.622-1.269,2.369-1.879l13.289,22.146l9.21-10.744l0,0c0.202-0.249,7.693-8.784,19.497-17.015
		c5.934-4.143,12.936-8.207,20.564-11.178c5.661-2.209,11.643-3.815,17.842-4.497c0.955,2.45,2.064,5.573,3.14,9.227
		c2.433,8.206,4.657,19.038,4.657,30.69c-0.008,10.27-1.703,21.119-6.352,31.694c-4.673,10.575-12.238,20.982-24.668,30.562
		l-7.853,6.039l35.846,49.592l-33.3,11.097l39.366,66.906l-59.112,0.939l2.842,44.092l-33.131-11.298l-2.754,10.648
		c-5.188,20.027-11.611,44.333-17.208,64.119c-2.802,9.884-5.396,18.653-7.492,25.093c-1.044,3.212-1.976,5.846-2.674,7.621
		c-0.024,0.056-0.04,0.112-0.064,0.168c-1.092,0.201-2.61,0.394-4.416,0.514c-2.008,0.145-4.328,0.209-6.834,0.209
		c-5.998,0-12.993-0.377-19.464-0.883c-6.48-0.514-12.462-1.14-16.558-1.606l-1.156-0.137l-1.156,0.137
		c-4.096,0.465-10.078,1.092-16.558,1.606c-6.472,0.506-13.466,0.883-19.464,0.883c-4.255,0.008-8.046-0.209-10.479-0.594
		c-0.273-0.04-0.53-0.08-0.763-0.128c-0.562-1.397-1.276-3.388-2.088-5.813c-1.534-4.569-3.396-10.64-5.428-17.61
		c-6.119-20.926-13.811-49.946-19.842-73.248l-2.762-10.648l-32.168,10.969l2.842-44.092l-59.1-0.939L128.343,189.665z
		 M256.002,473.32c-6.593,0.723-35.259-37.082-48.267-54.747c0.61,0.064,1.236,0.128,1.87,0.177c2.898,0.232,5.975,0.321,9.17,0.329
		c6.842-0.008,14.246-0.425,21.063-0.956c6.223-0.489,11.916-1.076,16.116-1.542c4.2,0.466,9.892,1.052,16.116,1.542
		c6.818,0.53,14.228,0.948,21.062,0.956c3.951-0.008,7.676-0.152,11.161-0.53C291.285,436.206,262.594,474.051,256.002,473.32z"/>
	<path class="st0" d="M111.802,58.995c-7.532,28.876,21.343,51.472,21.343,51.472l15.064-30.128
		C135.651,65.275,111.802,58.995,111.802,58.995z"/>
	<path class="st0" d="M256.476,254.185c16.309,0,29.526-13.386,29.526-20.998c0-7.604-13.217-7.218-29.526-7.218
		c-5.894,0-11.378-0.04-15.995,0.249l6.054-26.499l-10.711-2.441l-7.364,32.272c-0.964,0.94-1.501,2.128-1.501,3.638
		C226.958,240.8,240.175,254.185,256.476,254.185z"/>
	<path class="st0" d="M193.409,210.704c16.108,3.461,25.711-11.33,25.711-11.33s-10.792-9.539-25.254-16.927
		c-8.11-4.144-19.279-4.89-21.198,4.007C170.765,195.351,184.512,208.792,193.409,210.704z"/>
	<path class="st0" d="M319.55,210.704c8.889-1.911,22.644-15.352,20.734-24.25c-1.911-8.897-13.081-8.15-21.192-4.007
		c-14.462,7.388-25.254,16.927-25.254,16.927S303.434,214.164,319.55,210.704z"/>
	<path class="st0" d="M401.149,58.995c0,0-23.848,6.28-36.399,21.344l15.064,30.128C379.814,110.467,408.681,87.871,401.149,58.995z
		"/>
	<path class="st0" d="M303.892,273.81c-6.544,0-37.652,0-49.118,0c-11.459,0-42.567,0-49.111,0c-6.552,0-9.828,4.915-9.009,12.286
		c0.819,7.363,19.65,85.132,23.744,90.047c4.095,4.906,34.376,2.457,34.376,2.457s30.289,2.448,34.384-2.457
		c4.096-4.914,22.917-82.684,23.736-90.047C313.712,278.725,310.444,273.81,303.892,273.81z M256.596,367.487v0.024
		c0,0-0.176-0.008-0.489-0.016c-0.313,0.008-0.482,0.016-0.482,0.016v-0.024c-4.216-0.113-21.167-0.586-29.63-1.438
		c0,0,0.971-14.566,7.283-19.424l4.858,14.084c0,0,1.944-6.312,4.858-5.34c2.915,0.964,4.377,4.85,4.377,4.85
		s2.907-4.368,4.85-4.368c1.414,0,3.084,2.57,3.887,3.967c0.811-1.397,2.473-3.967,3.886-3.967c1.944,0,4.858,4.368,4.858,4.368
		s1.462-3.886,4.368-4.85c2.915-0.972,4.858,5.34,4.858,5.34l4.858-14.084c6.32,4.858,7.292,19.424,7.292,19.424
		C277.755,366.9,260.812,367.374,256.596,367.487z M290.241,311.671l-7.259-18.123c0,0-2.907,8.126-7.259,6.874
		c-4.36-1.245-6.544-6.248-6.544-6.248s-4.352,5.621-7.259,5.621c-2.112,0-4.609-3.301-5.814-5.099
		c-1.204,1.798-3.694,5.099-5.806,5.099c-2.906,0-7.267-5.621-7.267-5.621s-2.176,5.003-6.536,6.248
		c-4.36,1.252-7.259-6.874-7.259-6.874l-7.267,18.123c-9.443-6.246-10.896-24.996-10.896-24.996
		c12.663-1.092,38.006-1.702,44.309-1.847v-0.024c0,0,0.257,0,0.723,0.008c0.466-0.008,0.73-0.008,0.73-0.008v0.024
		c6.303,0.145,31.646,0.755,44.301,1.847C301.138,286.674,299.684,305.424,290.241,311.671z"/>
</g>
</svg>