<?xml version="1.0" encoding="utf-8"?>
<svg width="800px" height="800px" viewBox="0 0 24 24" fill="none" xmlns="http://www.w3.org/2000/svg">
<path d="M5.51996 15.12C5.51996 14.8549 5.73486 14.64 5.99996 14.64H15.84C16.1051 14.64 16.32 14.8549 16.32 15.12V16.08C16.32 18.731 14.1709 20.88 11.52 20.88H10.32C7.669 20.88 5.51996 18.731 5.51996 16.08V15.12Z" fill="#744A30"/>
<path d="M5.51996 13.6801C5.51996 13.415 5.73486 13.2001 5.99996 13.2001H15.84C16.1051 13.2001 16.32 13.415 16.32 13.6801V16.08C16.32 18.731 14.1709 20.8801 11.52 20.8801H10.32C7.669 20.8801 5.51996 18.731 5.51996 16.08V13.6801Z" stroke="#2F2118"/>
<path d="M5.2167 21.0568C5.15147 20.9916 5.19767 20.8801 5.28991 20.8801H16.55C16.6422 20.8801 16.6884 20.9916 16.6232 21.0568V21.0568C16.429 21.251 16.1657 21.3601 15.8911 21.3601H5.94881C5.67421 21.3601 5.41086 21.251 5.2167 21.0568V21.0568Z" stroke="#2F2118"/>
<path d="M16.32 14.16C16.32 14.16 18.72 14.16 18.72 15.9557C18.72 17.9908 16.2 17.7514 16.2 17.7514" stroke="#2F2118" stroke-linecap="round"/>
<path d="M18.6219 2.31732L18.1707 2.29993C18.1181 2.2979 18.0663 2.31324 18.0232 2.34357L17.7553 2.53234C17.6469 2.60869 17.621 2.75842 17.6974 2.86677L19.9591 6.07652C20.0354 6.18487 20.1852 6.21081 20.2935 6.13446L20.5879 5.92705C20.6142 5.90849 20.6365 5.88482 20.6535 5.85745L20.8048 5.61379C20.8964 5.46623 20.8058 5.27323 20.6337 5.24946L20.3748 5.21368C20.237 5.19465 20.1443 5.06297 20.1727 4.92689L20.2491 4.56104C20.2775 4.42496 20.1847 4.29327 20.047 4.27425L19.6767 4.2231C19.539 4.20407 19.4462 4.07239 19.4747 3.9363L19.551 3.57046C19.5795 3.43437 19.4867 3.30269 19.349 3.28366L18.9787 3.23251C18.841 3.21349 18.7482 3.0818 18.7767 2.94572L18.8475 2.6062C18.8779 2.46082 18.7703 2.32304 18.6219 2.31732Z" fill="#2F2118" stroke="#2F2118" stroke-linecap="round"/>
<path d="M4.46626 4.60053L4.43523 5.03141C4.43125 5.08667 4.44651 5.1416 4.47842 5.18689L4.63983 5.41597C4.71618 5.52432 4.86591 5.55026 4.97426 5.47391L8.18401 3.21219C8.29236 3.13584 8.3183 2.98611 8.24195 2.87776L8.06114 2.62115C8.0414 2.59315 8.0159 2.56969 7.98635 2.55236L7.75581 2.41718C7.61125 2.33242 7.42654 2.41813 7.39793 2.58324L7.35174 2.84982C7.32911 2.98042 7.2049 3.06795 7.07429 3.04532L6.70295 2.98098C6.57235 2.95835 6.44813 3.04588 6.4255 3.17649L6.36116 3.54783C6.33853 3.67843 6.21431 3.76596 6.08371 3.74333L5.71237 3.67899C5.58177 3.65636 5.45755 3.74389 5.43492 3.87449L5.37058 4.24583C5.34795 4.37644 5.22373 4.46397 5.09313 4.44134L4.74661 4.3813C4.60671 4.35706 4.47646 4.45891 4.46626 4.60053Z" fill="#2F2118" stroke="#2F2118" stroke-linecap="round"/>
<path d="M11.5436 8.02506C11.2702 7.5927 11.3839 7.02189 11.802 6.72723L17.2949 2.85671C17.7283 2.55131 18.3273 2.65508 18.6327 3.08849L20.0649 5.12111C20.3703 5.55451 20.2666 6.15343 19.8331 6.45882L13.9069 10.6347C13.3375 11.036 12.5436 10.7161 12.4114 10.0322L12.269 9.29555C12.2463 9.17805 12.2018 9.06584 12.1378 8.96469L11.5436 8.02506Z" stroke="#2F2118"/>
<path d="M7.34159 3.2667C7.775 2.96131 8.37391 3.06508 8.67931 3.49849L10.7812 6.48148C11.0975 6.93027 10.9736 7.55239 10.5096 7.84582L9.6511 8.3887C9.54995 8.45266 9.43773 8.49715 9.32024 8.51986L7.73532 8.82629C7.36442 8.898 6.98594 8.74551 6.76834 8.43671L5.07719 6.03669C4.77179 5.60328 4.87557 5.00437 5.30897 4.69897L7.34159 3.2667Z" stroke="#2F2118"/>
<ellipse cx="10.56" cy="10.08" rx="0.48" ry="0.48" transform="rotate(90 10.56 10.08)" fill="#744A30" stroke="#2F2118"/>
<ellipse cx="8.40004" cy="10.8" rx="0.48" ry="0.48" transform="rotate(90 8.40004 10.8)" fill="#744A30" stroke="#2F2118"/>
<ellipse cx="10.0801" cy="12.24" rx="0.48" ry="0.48" transform="rotate(90 10.0801 12.24)" fill="#744A30" stroke="#2F2118"/>
<ellipse cx="12.2401" cy="12.48" rx="0.48" ry="0.48" transform="rotate(90 12.2401 12.48)" fill="#744A30" stroke="#2F2118"/>
</svg>