<?xml version="1.0" encoding="utf-8"?>
<svg width="800px" height="800px" viewBox="0 0 24 24" fill="none" xmlns="http://www.w3.org/2000/svg">
<path d="M12.5967 12.1283L14.5 10" stroke="#2F2118" stroke-linecap="round"/>
<path d="M12.0566 12.3678L14.4999 13.5" stroke="#2F2118" stroke-linecap="round"/>
<path d="M12.2607 12.5901L11.5001 10" stroke="#2F2118" stroke-linecap="round"/>
<path d="M4.69838 20.1926C4.69838 20.1926 5.98347 16.0476 8.01939 14.4404C9.36932 13.3747 12.0398 12.6428 12.0398 12.6428" stroke="#2F2118" stroke-linecap="round" stroke-linejoin="round"/>
<path d="M8.0809 14.3339C8.61916 13.4016 8.70142 12.2569 8.3096 11.1517C7.91777 10.0465 7.08396 9.07134 5.99157 8.44065L4.76354 7.73165C4.30438 7.46655 3.71726 7.62387 3.45216 8.08303L3.25566 8.42338C2.7174 9.35568 2.63513 10.5003 3.02696 11.6055C3.41878 12.7107 4.2526 13.6859 5.34498 14.3166L6.57301 15.0256" fill="#4FB200"/>
<path d="M8.0809 14.3339C8.61916 13.4016 8.70142 12.2569 8.3096 11.1517C7.91777 10.0465 7.08396 9.07134 5.99157 8.44065L4.76354 7.73165C4.30438 7.46655 3.71726 7.62387 3.45216 8.08303L3.25566 8.42338C2.7174 9.35568 2.63513 10.5003 3.02696 11.6055C3.41878 12.7107 4.2526 13.6859 5.34498 14.3166L6.57301 15.0256C7.03217 15.2907 7.6193 15.1334 7.8844 14.6742L8.0809 14.3339Z" stroke="#2F2118"/>
<path d="M6.3163 16.6621C6.81961 15.7904 7.72128 15.1962 8.82297 15.0104C9.92465 14.8246 11.1361 15.0623 12.1908 15.6712L13.6314 16.5029C13.934 16.6776 14.0376 17.0645 13.8629 17.367C13.3596 18.2388 12.458 18.8329 11.3563 19.0188C10.2546 19.2046 9.04313 18.9669 7.98841 18.358L6.54784 17.5262" fill="#4FB200"/>
<path d="M6.3163 16.6621C6.81961 15.7904 7.72128 15.1962 8.82297 15.0104C9.92465 14.8246 11.1361 15.0623 12.1908 15.6712L13.6314 16.5029C13.934 16.6776 14.0376 17.0645 13.8629 17.367V17.367C13.3596 18.2388 12.458 18.8329 11.3563 19.0188C10.2546 19.2046 9.04313 18.9669 7.98841 18.358L6.54784 17.5262C6.24528 17.3516 6.14162 16.9647 6.3163 16.6621V16.6621Z" stroke="#2F2118"/>
<ellipse cx="16.9768" cy="7.81115" rx="2.70601" ry="3.19801" transform="rotate(45.415 16.9768 7.81115)" fill="#8D0505" stroke="#2F2118"/>
<ellipse cx="17.7143" cy="14.7788" rx="2.70601" ry="3.19801" transform="rotate(113.08 17.7143 14.7788)" fill="#8D0505" stroke="#2F2118"/>
<ellipse cx="10.1608" cy="6.80977" rx="2.70601" ry="3.19801" transform="rotate(-19.9649 10.1608 6.80977)" fill="#8D0505" stroke="#2F2118"/>
</svg>