<?xml version="1.0" encoding="utf-8"?>


<svg version="1.1" id="Icons" xmlns="http://www.w3.org/2000/svg" xmlns:xlink="http://www.w3.org/1999/xlink" 
	 viewBox="0 0 32 32" xml:space="preserve">
<style type="text/css">
	.st0{fill:none;stroke:#000000;stroke-width:2;stroke-linecap:round;stroke-linejoin:round;stroke-miterlimit:10;}
	.st1{fill:none;stroke:#000000;stroke-width:2;stroke-linejoin:round;stroke-miterlimit:10;}
</style>
<line class="st0" x1="7" y1="3" x2="25" y2="3"/>
<line class="st0" x1="7" y1="29" x2="25" y2="29"/>
<path class="st0" d="M9.6,3L9.6,3c0,5.1,2.4,9.9,6.4,13l0,0l0,0c4-3.1,6.4-7.9,6.4-13v0"/>
<path class="st0" d="M22.4,29L22.4,29c0-5.1-2.4-9.9-6.4-13l0,0l0,0c-4,3.1-6.4,7.9-6.4,13v0"/>
<polyline class="st0" points="12,29 16,24 20,29 "/>
<line class="st0" x1="11" y1="9" x2="21" y2="9"/>
</svg>