<?xml version="1.0" ?>


<svg fill="#000000" width="800px" height="800px" viewBox="0 0 64 64" version="1.1" xml:space="preserve" xmlns="http://www.w3.org/2000/svg" xmlns:xlink="http://www.w3.org/1999/xlink">

<g id="_x32_5_attachment"/>

<g id="_x32_4_office"/>

<g id="_x32_3_pin"/>

<g id="_x32_2_business_card"/>

<g id="_x32_1_form">

<g>

<g>

<path d="M54.9351,1H9.0649C7.4746,1,6.1812,2.2939,6.1812,3.8843v8.1963V62c0,0.5522,0.4478,1,1,1h49.6377c0.5522,0,1-0.4478,1-1     V12.0806V3.8843C57.8188,2.2939,56.5254,1,54.9351,1z M8.1812,3.8843C8.1812,3.3965,8.5776,3,9.0649,3h45.8701     c0.4873,0,0.8838,0.3965,0.8838,0.8843v7.1963H8.1812V3.8843z M55.8188,61H8.1812V13.0806h47.6377V61z"/>

<path d="M14.9141,33.2871h33.5117c1.1748,0,2.1304-0.9561,2.1304-2.1309v-4.3315c0-1.1768-0.9556-2.1338-2.1304-2.1338H14.9141     c-1.1748,0-2.1304,0.957-2.1304,2.1338v4.3315C12.7837,32.3311,13.7393,33.2871,14.9141,33.2871z M14.7837,26.8247     c0-0.0713,0.061-0.1338,0.1304-0.1338h33.5117c0.0693,0,0.1304,0.0625,0.1304,0.1338v4.3315c0,0.0698-0.061,0.1309-0.1304,0.1309     H14.9141c-0.0693,0-0.1304-0.061-0.1304-0.1309V26.8247z"/>

<path d="M14.9141,44.9717h33.5117c1.1748,0,2.1304-0.9556,2.1304-2.1304v-4.335c0-1.1748-0.9556-2.1309-2.1304-2.1309H14.9141     c-1.1748,0-2.1304,0.9561-2.1304,2.1309v4.335C12.7837,44.0161,13.7393,44.9717,14.9141,44.9717z M14.7837,38.5063     c0-0.0684,0.062-0.1309,0.1304-0.1309h33.5117c0.0684,0,0.1304,0.0625,0.1304,0.1309v4.335c0,0.0693-0.061,0.1304-0.1304,0.1304     H14.9141c-0.0693,0-0.1304-0.061-0.1304-0.1304V38.5063z"/>

<path d="M22.7197,21.0386h17.8999c0.5522,0,1-0.4478,1-1s-0.4478-1-1-1H22.7197c-0.5522,0-1,0.4478-1,1     S22.1675,21.0386,22.7197,21.0386z"/>

<path d="M41.9785,6.0405h-0.0313c-0.5522,0-0.9844,0.4478-0.9844,1s0.4634,1,1.0156,1s1-0.4478,1-1     S42.5308,6.0405,41.9785,6.0405z"/>

<path d="M46.4033,6.0405h-0.0313c-0.5522,0-0.9844,0.4478-0.9844,1s0.4634,1,1.0156,1s1-0.4478,1-1     S46.9556,6.0405,46.4033,6.0405z"/>

<path d="M50.8281,6.0405h-0.0313c-0.5522,0-0.9844,0.4478-0.9844,1s0.4634,1,1.0156,1s1-0.4478,1-1     S51.3804,6.0405,50.8281,6.0405z"/>

<path d="M48.7368,48.292h-8.8086c-1.0029,0-1.8188,0.8159-1.8188,1.8193v3.1318c0,1.0034,0.8159,1.8193,1.8188,1.8193h8.8086     c1.0034,0,1.8193-0.8159,1.8193-1.8193v-3.1318C50.5562,49.1079,49.7402,48.292,48.7368,48.292z M48.5562,53.0625h-8.4468V50.292     h8.4468V53.0625z"/>

</g>

</g>

</g>

<g id="_x32_0_headset"/>

<g id="_x31_9_video_call"/>

<g id="_x31_8_letter_box"/>

<g id="_x31_7_papperplane"/>

<g id="_x31_6_laptop"/>

<g id="_x31_5_connection"/>

<g id="_x31_4_phonebook"/>

<g id="_x31_3_classic_telephone"/>

<g id="_x31_2_sending_mail"/>

<g id="_x31_1_man_talking"/>

<g id="_x31_0_date"/>

<g id="_x30_9_review"/>

<g id="_x30_8_email"/>

<g id="_x30_7_information"/>

<g id="_x30_6_phone_talking"/>

<g id="_x30_5_women_talking"/>

<g id="_x30_4_calling"/>

<g id="_x30_3_women"/>

<g id="_x30_2_writing"/>

<g id="_x30_1_chatting"/>

</svg>