<?xml version="1.0" ?>


<svg width="800px" height="800px" viewBox="0 0 500 500" id="Layer_1" version="1.1" xml:space="preserve" xmlns="http://www.w3.org/2000/svg" xmlns:xlink="http://www.w3.org/1999/xlink">

<style type="text/css">
	.st0{fill:#B3B2B2;}
	.st1{fill:#6F6F6F;}
	.st2{fill:#363636;}
	.st3{fill:#FEC70F;}
	.st4{fill:#FBA812;}
	.st5{fill:#565656;}
	.st6{fill:#FEC602;}
	.st7{fill:#FFD255;}
	.st8{fill:#EDB400;}
	.st9{fill:#B4B1B2;}
	.st10{fill:#006C80;}
	.st11{fill:#FCC000;}
	.st12{fill:#FCD717;}
	.st13{fill:#FCC102;}
	.st14{fill:#FEC106;}
	.st15{fill:#9D9D9D;}
	.st16{fill:#7F7F7F;}
	.st17{fill:#B2B2B2;}
	.st18{fill:#878787;}
	.st19{fill:#FFFFFF;}
	.st20{fill:#888888;}
	.st21{fill:#B3B1B1;}
	.st22{fill:#006C84;}
	.st23{fill:#025568;}
</style>

<g id="brickwall">

<path class="st6" d="M354.76,179.85h98.69c4.58,0,8.3-3.71,8.3-8.3v-38.56c0-4.58-3.71-8.3-8.3-8.3h-98.69   c-4.58,0-8.3,3.71-8.3,8.3v38.56C346.46,176.14,350.18,179.85,354.76,179.85z"/>

<path class="st6" d="M229.47,179.85h98.69c4.58,0,8.3-3.71,8.3-8.3v-38.56c0-4.58-3.71-8.3-8.3-8.3h-98.69   c-4.58,0-8.3,3.71-8.3,8.3v38.56C221.18,176.14,224.89,179.85,229.47,179.85z"/>

<path class="st6" d="M104.19,179.85h98.69c4.58,0,8.3-3.71,8.3-8.3v-38.56c0-4.58-3.71-8.3-8.3-8.3h-98.69   c-4.58,0-8.3,3.71-8.3,8.3v38.56C95.89,176.14,99.61,179.85,104.19,179.85z"/>

<path class="st6" d="M354.76,310.17h98.69c4.58,0,8.3-3.71,8.3-8.3v-38.56c0-4.58-3.71-8.3-8.3-8.3h-98.69   c-4.58,0-8.3,3.71-8.3,8.3v38.56C346.46,306.45,350.18,310.17,354.76,310.17z"/>

<path class="st6" d="M229.47,310.17h98.69c4.58,0,8.3-3.71,8.3-8.3v-38.56c0-4.58-3.71-8.3-8.3-8.3h-98.69   c-4.58,0-8.3,3.71-8.3,8.3v38.56C221.18,306.45,224.89,310.17,229.47,310.17z"/>

<path class="st6" d="M104.19,310.17h98.69c4.58,0,8.3-3.71,8.3-8.3v-38.56c0-4.58-3.71-8.3-8.3-8.3h-98.69   c-4.58,0-8.3,3.71-8.3,8.3v38.56C95.89,306.45,99.61,310.17,104.19,310.17z"/>

<path class="st6" d="M297.12,244.99h98.69c4.58,0,8.3-3.71,8.3-8.3v-38.56c0-4.58-3.71-8.3-8.3-8.3h-98.69   c-4.58,0-8.3,3.71-8.3,8.3v38.56C288.82,241.27,292.54,244.99,297.12,244.99z"/>

<path class="st6" d="M171.83,244.99h98.69c4.58,0,8.3-3.71,8.3-8.3v-38.56c0-4.58-3.71-8.3-8.3-8.3h-98.69   c-4.58,0-8.3,3.71-8.3,8.3v38.56C163.54,241.27,167.25,244.99,171.83,244.99z"/>

<path class="st6" d="M46.55,244.99h98.69c4.58,0,8.3-3.71,8.3-8.3v-38.56c0-4.58-3.71-8.3-8.3-8.3H46.55c-4.58,0-8.3,3.71-8.3,8.3   v38.56C38.25,241.27,41.96,244.99,46.55,244.99z"/>

<path class="st6" d="M297.12,375.32h98.69c4.58,0,8.3-3.71,8.3-8.3v-38.56c0-4.58-3.71-8.3-8.3-8.3h-98.69   c-4.58,0-8.3,3.71-8.3,8.3v38.56C288.82,371.6,292.54,375.32,297.12,375.32z"/>

<path class="st6" d="M171.83,375.32h98.69c4.58,0,8.3-3.71,8.3-8.3v-38.56c0-4.58-3.71-8.3-8.3-8.3h-98.69   c-4.58,0-8.3,3.71-8.3,8.3v38.56C163.54,371.6,167.25,375.32,171.83,375.32z"/>

<path class="st6" d="M46.55,375.32h98.69c4.58,0,8.3-3.71,8.3-8.3v-38.56c0-4.58-3.71-8.3-8.3-8.3H46.55c-4.58,0-8.3,3.71-8.3,8.3   v38.56C38.25,371.6,41.96,375.32,46.55,375.32z"/>

</g>

</svg>