<?xml version="1.0" ?>


<svg width="800px" height="800px" viewBox="0 0 500 500" id="Layer_1" version="1.1" xml:space="preserve" xmlns="http://www.w3.org/2000/svg" xmlns:xlink="http://www.w3.org/1999/xlink">

<style type="text/css">
	.st0{fill:#B3B2B2;}
	.st1{fill:#6F6F6F;}
	.st2{fill:#363636;}
	.st3{fill:#FEC70F;}
	.st4{fill:#FBA812;}
	.st5{fill:#565656;}
	.st6{fill:#FEC602;}
	.st7{fill:#FFD255;}
	.st8{fill:#EDB400;}
	.st9{fill:#B4B1B2;}
	.st10{fill:#006C80;}
	.st11{fill:#FCC000;}
	.st12{fill:#FCD717;}
	.st13{fill:#FCC102;}
	.st14{fill:#FEC106;}
	.st15{fill:#9D9D9D;}
	.st16{fill:#7F7F7F;}
	.st17{fill:#B2B2B2;}
	.st18{fill:#878787;}
	.st19{fill:#FFFFFF;}
	.st20{fill:#888888;}
	.st21{fill:#B3B1B1;}
	.st22{fill:#006C84;}
	.st23{fill:#025568;}
</style>

<g id="paint_brush">

<g>

<path class="st10" d="M276.94,119.59c7.94-31.74-2.1-64.43-7.12-77.76c-1.41-3.75-5.01-6.22-9.02-6.22H250h-10.79    c-4.01,0-7.61,2.47-9.02,6.22c-5.02,13.33-15.06,46.01-7.12,77.76c0,0,40.53,81.06-73.75,103.44c-3.63,0.71-6.27,3.86-6.27,7.56    v9.97H250h106.96v-9.97c0-3.7-2.64-6.85-6.27-7.56C236.41,200.65,276.94,119.59,276.94,119.59z"/>

<rect class="st18" height="57.3" width="213.91" x="143.04" y="234.79"/>

</g>

<polygon class="st9" points="143.04,290.09 143.04,464.39 193.89,464.39 197.48,371.65 201.07,464.39 298.25,464.39 302.52,411.03    306.79,464.39 356.96,464.39 356.96,290.09  "/>

</g>

</svg>