<?xml version="1.0" ?>


<svg width="800px" height="800px" viewBox="0 0 500 500" id="Layer_1" version="1.1" xml:space="preserve" xmlns="http://www.w3.org/2000/svg" xmlns:xlink="http://www.w3.org/1999/xlink">

<style type="text/css">
	.st0{fill:#B3B2B2;}
	.st1{fill:#6F6F6F;}
	.st2{fill:#363636;}
	.st3{fill:#FEC70F;}
	.st4{fill:#FBA812;}
	.st5{fill:#565656;}
	.st6{fill:#FEC602;}
	.st7{fill:#FFD255;}
	.st8{fill:#EDB400;}
	.st9{fill:#B4B1B2;}
	.st10{fill:#006C80;}
	.st11{fill:#FCC000;}
	.st12{fill:#FCD717;}
	.st13{fill:#FCC102;}
	.st14{fill:#FEC106;}
	.st15{fill:#9D9D9D;}
	.st16{fill:#7F7F7F;}
	.st17{fill:#B2B2B2;}
	.st18{fill:#878787;}
	.st19{fill:#FFFFFF;}
	.st20{fill:#888888;}
	.st21{fill:#B3B1B1;}
	.st22{fill:#006C84;}
	.st23{fill:#025568;}
</style>

<g id="electric_drill">

<g>

<polygon class="st0" points="28.02,143.45 20.47,148.76 28.02,154.06 93.88,154.06 93.88,143.45   "/>

<g>

<polygon class="st1" points="28.02,154.06 34.13,143.45 37.59,143.45 31.36,154.06    "/>

<polygon class="st1" points="35.98,154.06 42.09,143.45 45.56,143.45 39.32,154.06    "/>

<polygon class="st1" points="44.06,154.06 50.17,143.45 53.64,143.45 47.4,154.06    "/>

<polygon class="st1" points="52.14,154.06 58.25,143.45 61.71,143.45 55.48,154.06    "/>

<polygon class="st1" points="60.22,154.06 66.33,143.45 69.79,143.45 63.56,154.06    "/>

<polygon class="st1" points="68.3,154.06 74.41,143.45 77.87,143.45 71.64,154.06    "/>

<polygon class="st1" points="76.38,154.06 82.49,143.45 85.95,143.45 79.72,154.06    "/>

<polygon class="st1" points="84.46,154.06 90.57,143.45 94.03,143.45 87.8,154.06    "/>

</g>

</g>

<g>

<g>

<path class="st2" d="M289.32,200.01v4.29c0,2.02,1.41,3.75,3.38,4.18c6.31,1.38,18.98,6.63,15.71,26.38     c-0.43,2.61,1.57,4.98,4.22,4.98h13.78c0,0,9.07-18.7,0.07-31.28c0,0-1.69-3.35-5.87-4.98     C320.6,203.59,311.41,198.72,289.32,200.01z"/>

<path class="st2" d="M479.53,179.83l-14.96,13.83c-2.26,2.09-5.22,3.25-8.3,3.25h-29.69c-6.53,0-12.73,2.9-16.91,7.92l0,0     c-4.49,5.39-6.14,12.59-4.45,19.4c5.38,21.69,16.32,71.77,12.44,107.03h-15.04c-5.25,0-9.57-4.11-9.84-9.35     c-0.85-16.46-4.55-49.81-8.51-74.22c-0.77-4.74-3.67-9.09-7.86-11.43l-11.92-6.66c-1.95-1.09-3.18-3.14-3.23-5.38l-0.73-37.98     c-0.07-3.53,2.77-6.42,6.3-6.42h112.7V179.83z"/>

<path class="st2" d="M330.4,250.01c0,0,25.39-0.92,21.24,81.26h17.09c5.59,0,10.07-4.65,9.85-10.24     c-0.66-17.12-2.68-51.32-8.56-67.81c-0.71-2-2.08-3.71-3.87-4.85l-5.23-3.33c-1.53-0.98-3.32-1.5-5.14-1.5h-14.95     c-2.54,0-4.97,1.01-6.76,2.8L330.4,250.01z"/>

</g>

<path class="st3" d="M417.97,342.04h4.16c12.06,0,21.84,9.78,21.84,21.84l0,0c0,12.07-9.79,21.85-21.86,21.84l-21.97-0.02    c-1.06,0.04-1.92,0.87-1.97,1.93l-0.27,5.4c-0.05,1.09-0.95,1.94-2.04,1.94H364.3c-1.13,0-2.04-0.91-2.04-2.04v-4.64    c0-1.14-0.93-2.06-2.08-2.04c-6.35,0.12-26.17,0.29-44.13-1.85c-10.54-1.26-19.38-11.05-19.15-21.66    c0.24-11.58,9.7-20.86,21.31-20.86h33.43v-10.62h17.17c5.57,0,10.04-4.61,9.85-10.19c-0.53-15.54-2.39-45.67-8.83-67.52    c-0.66-2.24-2.09-4.17-4.06-5.42l-4.86-3.09c-1.53-0.98-3.32-1.5-5.14-1.5h-14.95c-2.54,0-4.97,1.01-6.76,2.8l-3.66,3.67h-0.06    c-3.91,0-6.51-3.99-4.99-7.59c4.31-10.13,8.11-24.01,1.12-33.85c-0.66-0.93-1.4-1.79-2.22-2.58c-0.96-0.93-2.49-1.75-3.65-2.4    c-1.54-0.87-3.54-1.21-5.25-1.6c-5.66-1.3-11.47-1.92-17.26-2.07c-0.88-0.02-6.52,0-10.79,0.16c-2.68,0.1-4.91-2.04-4.91-4.73    v-9.98h3.23l0.44-76.01c0.01-2.39,1.96-4.33,4.35-4.33h163.83c13.97,0,25.29,11.32,25.29,25.29v49.51h-112.7    c-3.53,0-6.37,2.9-6.3,6.42l0.73,37.98c0.04,2.24,1.27,4.29,3.23,5.38l11.44,6.4c4.39,2.45,7.45,6.75,8.33,11.7    c2.68,14.92,8.16,48.16,8.9,73.94c0.15,5.35,4.5,9.62,9.85,9.62h14.64L417.97,342.04"/>

<g>

<path class="st4" d="M446.71,128.45H322.36c-0.66,0-1.19-0.53-1.19-1.19v-3.02c0-0.66,0.53-1.19,1.19-1.19h124.35     c0.66,0,1.19,0.53,1.19,1.19v3.02C447.9,127.92,447.37,128.45,446.71,128.45z"/>

<path class="st4" d="M446.71,143.92H322.36c-0.66,0-1.19-0.53-1.19-1.19v-3.02c0-0.66,0.53-1.19,1.19-1.19h124.35     c0.66,0,1.19,0.53,1.19,1.19v3.02C447.9,143.38,447.37,143.92,446.71,143.92z"/>

<path class="st4" d="M446.71,159.39H322.36c-0.66,0-1.19-0.53-1.19-1.19v-3.02c0-0.66,0.53-1.19,1.19-1.19h124.35     c0.66,0,1.19,0.53,1.19,1.19v3.02C447.9,158.85,447.37,159.39,446.71,159.39z"/>

</g>

</g>

<g>

<path class="st0" d="M92.88,143.47l9.08-13.31c1.21-1.77,3.21-2.83,5.35-2.83h36.8c3.58,0,6.48,2.9,6.48,6.48v29.04    c0,3.58-2.9,6.48-6.48,6.48H106.5c-2.17,0-4.19-1.08-5.39-2.88l-8.23-12.35C92.88,154.1,92.88,143.47,92.88,143.47z"/>

<g>

<rect class="st0" height="10.61" width="11.64" x="149.48" y="143.02"/>

<g>

<g>

<path class="st2" d="M286.05,111.1h-46.48c-2.62,0-4.74,2.12-4.74,4.74v64.99c0,2.56,2.04,4.66,4.6,4.73l42.95-0.03h3.23       L286.05,111.1z"/>

<g>

<path class="st5" d="M274.28,132.66h-27.67c-1.28,0-2.32-1.04-2.32-2.32v-5.88c0-1.28,1.04-2.32,2.32-2.32h27.67        c1.28,0,2.32,1.04,2.32,2.32v5.88C276.6,131.62,275.56,132.66,274.28,132.66z"/>

<path class="st5" d="M274.28,154.22h-27.67c-1.28,0-2.32-1.04-2.32-2.32v-5.89c0-1.28,1.04-2.32,2.32-2.32h27.67        c1.28,0,2.32,1.04,2.32,2.32v5.88C276.6,153.18,275.56,154.22,274.28,154.22z"/>

<path class="st5" d="M274.28,175.77h-27.67c-1.28,0-2.32-1.04-2.32-2.32v-5.88c0-1.28,1.04-2.32,2.32-2.32h27.67        c1.28,0,2.32,1.04,2.32,2.32v5.88C276.6,174.73,275.56,175.77,274.28,175.77z"/>

</g>

</g>

<g>

<path class="st2" d="M162.89,131.15l14.61-10.73c1.95-1.43,4.3-2.2,6.72-2.2h51.61v60.22l-51.79-0.23       c-2.31-0.01-4.55-0.72-6.45-2.04l-14.56-10.16c-1.82-1.27-2.91-3.36-2.91-5.58v-23.79       C160.11,134.47,161.14,132.44,162.89,131.15z"/>

<g>

<path class="st5" d="M229.25,129.5h-47.32c-0.32,0-0.58-0.26-0.58-0.58v-1.46c0-0.32,0.26-0.58,0.58-0.58h47.32        c0.32,0,0.58,0.26,0.58,0.58v1.46C229.83,129.24,229.57,129.5,229.25,129.5z"/>

<path class="st5" d="M229.25,139.57h-47.32c-0.32,0-0.58-0.26-0.58-0.58v-1.46c0-0.32,0.26-0.58,0.58-0.58h47.32        c0.32,0,0.58,0.26,0.58,0.58v1.46C229.83,139.31,229.57,139.57,229.25,139.57z"/>

<path class="st5" d="M229.25,149.63h-47.32c-0.32,0-0.58-0.26-0.58-0.58v-1.46c0-0.32,0.26-0.58,0.58-0.58h47.32        c0.32,0,0.58,0.26,0.58,0.58v1.46C229.83,149.38,229.57,149.63,229.25,149.63z"/>

<path class="st5" d="M229.25,159.7h-47.32c-0.32,0-0.58-0.26-0.58-0.58v-1.46c0-0.32,0.26-0.58,0.58-0.58h47.32        c0.32,0,0.58,0.26,0.58,0.58v1.46C229.83,159.44,229.57,159.7,229.25,159.7z"/>

<path class="st5" d="M229.25,169.77h-47.32c-0.32,0-0.58-0.26-0.58-0.58v-1.46c0-0.32,0.26-0.58,0.58-0.58h47.32        c0.32,0,0.58,0.26,0.58,0.58v1.46C229.83,169.51,229.57,169.77,229.25,169.77z"/>

</g>

</g>

</g>

</g>

</g>

</g>

</svg>