<?xml version="1.0" ?>


<svg width="800px" height="800px" viewBox="0 0 500 500" id="Layer_1" version="1.1" xml:space="preserve" xmlns="http://www.w3.org/2000/svg" xmlns:xlink="http://www.w3.org/1999/xlink">

<style type="text/css">
	.st0{fill:#B3B2B2;}
	.st1{fill:#6F6F6F;}
	.st2{fill:#363636;}
	.st3{fill:#FEC70F;}
	.st4{fill:#FBA812;}
	.st5{fill:#565656;}
	.st6{fill:#FEC602;}
	.st7{fill:#FFD255;}
	.st8{fill:#EDB400;}
	.st9{fill:#B4B1B2;}
	.st10{fill:#006C80;}
	.st11{fill:#FCC000;}
	.st12{fill:#FCD717;}
	.st13{fill:#FCC102;}
	.st14{fill:#FEC106;}
	.st15{fill:#9D9D9D;}
	.st16{fill:#7F7F7F;}
	.st17{fill:#B2B2B2;}
	.st18{fill:#878787;}
	.st19{fill:#FFFFFF;}
	.st20{fill:#888888;}
	.st21{fill:#B3B1B1;}
	.st22{fill:#006C84;}
	.st23{fill:#025568;}
</style>

<g id="gloves">

<g>

<g>

<path class="st13" d="M28.24,149.3v68.74v83.64v49.97c0,9.96,3.51,19.09,9.35,26.23c3.96,4.85,6.2,10.86,6.2,17.11v36.38h140.12     v-17.34c0-10.95,6.62-20.95,16.87-24.84c23-8.72,39.35-30.95,39.35-57l0,0V221.71c0-11.28-9.35-20.38-20.72-19.97     c-10.83,0.38-19.26,9.61-19.26,20.45v57.41h-3.04v-27.37v-34.18v-113.1c0-11.28-9.35-20.38-20.72-19.97     c-10.83,0.38-19.26,9.61-19.26,20.45v112.62h-3.04V88.62c0-11.28-9.35-20.38-20.72-19.97c-10.83,0.38-19.26,9.61-19.26,20.45     v128.95h-2.86V109.98c0-11.28-9.35-20.38-20.72-19.97c-10.83,0.38-19.26,9.61-19.26,20.45v107.59h-3.04v-68.27     c0-10.83-8.42-20.06-19.26-20.45C37.6,128.92,28.26,138.03,28.24,149.3z"/>

</g>

<rect class="st12" height="17.34" width="140.12" x="43.79" y="414.03"/>

<g>

<g>

<g>

<path class="st12" d="M79.82,350.3c-2.76,0-5-2.24-5-5v-88.63c0-2.76,2.24-5,5-5s5,2.24,5,5v88.63       C84.82,348.06,82.58,350.3,79.82,350.3z"/>

</g>

<g>

<path class="st12" d="M112.53,350.3c-2.76,0-5-2.24-5-5v-88.63c0-2.76,2.24-5,5-5s5,2.24,5,5v88.63       C117.53,348.06,115.29,350.3,112.53,350.3z"/>

</g>

</g>

<g>

<path class="st12" d="M145.25,350.3c-2.76,0-5-2.24-5-5v-88.63c0-2.76,2.24-5,5-5s5,2.24,5,5v88.63      C150.25,348.06,148.01,350.3,145.25,350.3z"/>

</g>

</g>

</g>

<g>

<g>

<path class="st13" d="M451.04,129.33c-10.83,0.39-19.26,9.62-19.26,20.45v68.27h-3.04V110.46c0-10.84-8.42-20.07-19.26-20.45     c-11.37-0.41-20.72,8.7-20.72,19.97v108.07h-2.86V89.1c0-10.84-8.42-20.07-19.26-20.45c-11.37-0.41-20.72,8.7-20.72,19.97v129.43     h-3.04V105.43c0-10.84-8.42-20.07-19.26-20.45c-11.37-0.41-20.72,8.7-20.72,19.97v113.1v34.18v27.37h-3.04v-57.41     c0-10.84-8.42-20.07-19.26-20.45c-11.37-0.41-20.72,8.7-20.72,19.97v110.48l0,0c0,26.05,16.35,48.28,39.35,57     c10.24,3.89,16.87,13.89,16.87,24.84v17.34h140.12v-36.38c0-6.25,2.24-12.26,6.2-17.11c5.84-7.15,9.35-16.28,9.35-26.23v-49.97     v-83.64V149.3C471.76,138.03,462.42,128.92,451.04,129.33z"/>

</g>

<rect class="st12" height="17.34" width="140.12" x="316.11" y="414.03"/>

<g>

<g>

<g>

<path class="st12" d="M420.2,350.3c-2.76,0-5-2.24-5-5v-88.63c0-2.76,2.24-5,5-5s5,2.24,5,5v88.63       C425.2,348.06,422.96,350.3,420.2,350.3z"/>

</g>

<g>

<path class="st12" d="M387.49,350.3c-2.76,0-5-2.24-5-5v-88.63c0-2.76,2.24-5,5-5s5,2.24,5,5v88.63       C392.49,348.06,390.25,350.3,387.49,350.3z"/>

</g>

</g>

<g>

<path class="st12" d="M354.76,350.3c-2.76,0-5-2.24-5-5v-88.63c0-2.76,2.24-5,5-5s5,2.24,5,5v88.63      C359.76,348.06,357.53,350.3,354.76,350.3z"/>

</g>

</g>

</g>

</g>

</svg>