<?xml version="1.0" ?>
<svg width="800px" height="800px" viewBox="0 0 500 500" id="Layer_1" version="1.1" xml:space="preserve" xmlns="http://www.w3.org/2000/svg" xmlns:xlink="http://www.w3.org/1999/xlink"><style type="text/css">
	.st0{fill:#B3B2B2;}
	.st1{fill:#6F6F6F;}
	.st2{fill:#363636;}
	.st3{fill:#FEC70F;}
	.st4{fill:#FBA812;}
	.st5{fill:#565656;}
	.st6{fill:#FEC602;}
	.st7{fill:#FFD255;}
	.st8{fill:#EDB400;}
	.st9{fill:#B4B1B2;}
	.st10{fill:#006C80;}
	.st11{fill:#FCC000;}
	.st12{fill:#FCD717;}
	.st13{fill:#FCC102;}
	.st14{fill:#FEC106;}
	.st15{fill:#9D9D9D;}
	.st16{fill:#7F7F7F;}
	.st17{fill:#B2B2B2;}
	.st18{fill:#878787;}
	.st19{fill:#FFFFFF;}
	.st20{fill:#888888;}
	.st21{fill:#B3B1B1;}
	.st22{fill:#006C84;}
	.st23{fill:#025568;}
</style><path class="st6" d="M317.33,47.52l-15.87,0.42c-1.62,0.04-2.9,1.41-2.82,3.03l2.24,49.14H199.13l2.24-49.14  c0.07-1.62-1.2-2.99-2.82-3.03l-15.87-0.42c-1.58-0.04-2.9,1.19-2.98,2.77l-18.19,398.59c-0.08,1.74,1.71,3.19,4,3.25l13.39,0.35  c2.29,0.06,4.21-1.3,4.29-3.03l2.34-51.31h128.94l2.34,51.31c0.08,1.74,2,3.09,4.29,3.03l13.39-0.35c2.29-0.06,4.08-1.52,4-3.25  L320.3,50.29C320.23,48.71,318.91,47.47,317.33,47.52z M305.96,211.65H194.04l1.67-36.59h108.58L305.96,211.65z M306.82,230.41  l1.67,36.59H191.51l1.67-36.59L306.82,230.41L306.82,230.41z M309.34,285.78l1.71,37.41h-122.1l1.71-37.41H309.34z M301.73,118.87  l1.71,37.41H196.57l1.71-37.41H301.73z M186.38,379.37l1.71-37.41h123.82l1.71,37.41H186.38z" id="ladder"/></svg>