<?xml version="1.0" ?>


<svg width="800px" height="800px" viewBox="0 0 500 500" id="Layer_1" version="1.1" xml:space="preserve" xmlns="http://www.w3.org/2000/svg" xmlns:xlink="http://www.w3.org/1999/xlink">

<style type="text/css">
	.st0{fill:#B3B2B2;}
	.st1{fill:#6F6F6F;}
	.st2{fill:#363636;}
	.st3{fill:#FEC70F;}
	.st4{fill:#FBA812;}
	.st5{fill:#565656;}
	.st6{fill:#FEC602;}
	.st7{fill:#FFD255;}
	.st8{fill:#EDB400;}
	.st9{fill:#B4B1B2;}
	.st10{fill:#006C80;}
	.st11{fill:#FCC000;}
	.st12{fill:#FCD717;}
	.st13{fill:#FCC102;}
	.st14{fill:#FEC106;}
	.st15{fill:#9D9D9D;}
	.st16{fill:#7F7F7F;}
	.st17{fill:#B2B2B2;}
	.st18{fill:#878787;}
	.st19{fill:#FFFFFF;}
	.st20{fill:#888888;}
	.st21{fill:#B3B1B1;}
	.st22{fill:#006C84;}
	.st23{fill:#025568;}
</style>

<g id="plier">

<g>

<g>

<rect class="st9" height="41.59" width="24.05" x="218.79" y="143.65"/>

<path class="st9" d="M261.51,31.79h-6.68c-1.35,0-2.45,1.1-2.45,2.45V72.9c4.93,1.02,8.63,5.39,8.63,10.62     c0,5.23-3.7,9.6-8.63,10.62v8.33v41.18h28.83v-39.93c0-3.11-0.4-6.21-1.2-9.22l-16.14-60.89     C263.59,32.53,262.62,31.79,261.51,31.79z"/>

</g>

<path class="st18" d="M250.16,114.82c-0.86,0-1.7,0.05-2.55,0.11v-12.47c-0.2,0.01-0.41,0.04-0.62,0.04    c-0.24,0-0.47-0.02-0.71-0.04h1.33v-8.41c-4.76-1.15-8.3-5.42-8.3-10.53s3.54-9.38,8.3-10.53V34.24c0-1.35-1.1-2.45-2.45-2.45    h-6.68c-1.11,0-2.08,0.75-2.37,1.82l-16.14,60.87c-0.8,3.01-1.2,6.11-1.2,9.22v39.94h0.11c-0.06,0.75-0.1,1.5-0.11,2.26    c-0.15,15.7,11.05,28.99,26.58,31.31c4.13,0.62,8.08,0.42,11.8-0.43v8.44h24.05v-34.45c0.21-1.49,0.33-3.02,0.33-4.58    C281.55,128.87,267.5,114.82,250.16,114.82z"/>

</g>

<g>

<path class="st10" d="M241.76,183.43l-24.18-9.23c-2.12-0.81-4.52-0.08-5.83,1.77l-10.52,14.82l-7.02,5.35    c-3.24,2.47-5.15,6.32-5.15,10.39l0,0c0,2.22,0.56,4.4,1.64,6.34l9.95,17.9c0,0-28.58,102.9,0.86,217.65    c2.93,11.44,13.31,19.39,25.11,19.39l0,0c4.23,0,7.45-3.8,6.75-7.97c-5.07-29.9-19.83-140.43,11.44-270.6    C245.4,186.81,244.1,184.32,241.76,183.43z"/>

<path class="st10" d="M258.24,183.82l24.18-9.23c2.12-0.81,4.52-0.08,5.83,1.77l10.52,14.82l7.02,5.35    c3.24,2.47,5.15,6.32,5.15,10.39l0,0c0,2.22-0.56,4.4-1.64,6.34l-9.95,17.9c0,0,28.58,102.9-0.86,217.65    c-2.93,11.44-13.31,19.39-25.11,19.39l0,0c-4.23,0-7.45-3.8-6.75-7.97c5.07-29.9,19.83-140.43-11.44-270.6    C254.6,187.21,255.9,184.71,258.24,183.82z"/>

</g>

</g>

</svg>