<?xml version="1.0" encoding="utf-8"?>

<!DOCTYPE svg PUBLIC "-//W3C//DTD SVG 1.1//EN" "http://www.w3.org/Graphics/SVG/1.1/DTD/svg11.dtd">

<svg version="1.1" id="_x32_" xmlns="http://www.w3.org/2000/svg" xmlns:xlink="http://www.w3.org/1999/xlink" 
	 width="800px" height="800px" viewBox="0 0 512 512"  xml:space="preserve">
<style type="text/css">
<![CDATA[
	.st0{fill:#000000;}
]]>
</style>
<g>
	<path class="st0" d="M500.656,488H35.344C29.078,488,24,482.922,24,476.656V11.344C24,5.078,18.922,0,12.656,0h-1.313
		C5.078,0,0,5.078,0,11.344v489.313C0,506.922,5.078,512,11.344,512h489.313c6.266,0,11.344-5.078,11.344-11.344v-1.313
		C512,493.078,506.922,488,500.656,488z"/>
	<path class="st0" d="M86.094,352.063l118.016-77.078l36.359,49.203c5,6.75,14.313,8.5,21.406,4.016l202.672-128
		c7.469-4.719,9.703-14.609,4.984-22.078s-14.594-9.703-22.078-4.984L257.375,293.203l-36.5-49.375
		c-5.063-6.828-14.5-8.531-21.625-3.891L68.594,325.281c-7.406,4.828-9.484,14.75-4.656,22.141
		C68.781,354.813,78.688,356.906,86.094,352.063z"/>
</g>
</svg>