<?xml version="1.0" encoding="utf-8"?>

<!DOCTYPE svg PUBLIC "-//W3C//DTD SVG 1.1//EN" "http://www.w3.org/Graphics/SVG/1.1/DTD/svg11.dtd">

<svg height="800px" width="800px" version="1.1" id="_x32_" xmlns="http://www.w3.org/2000/svg" xmlns:xlink="http://www.w3.org/1999/xlink" 
	 viewBox="0 0 512 512"  xml:space="preserve">
<style type="text/css">
	.st0{fill:#000000;}
</style>
<g>
	<path class="st0" d="M263.662,254.247c-8.543,0.257-12.827,0.336-21.379,0.372c-0.956,0.018-1.408,0.442-1.417,1.258
		c-0.008,11.827-0.017,17.731-0.035,29.55c0,0.832,0.505,1.239,1.488,1.23c8.924-0.062,13.376-0.115,22.3-0.381
		c13.624-0.416,20.918-7.241,20.361-16.953C284.421,259.612,276.719,253.858,263.662,254.247z"/>
	<path class="st0" d="M492.457,88.677l-64.818-17.192c-1.692-0.363-3.072-1.727-3.435-3.426l-17.112-64.81
		C406.649,1.363,404.993,0,403.028,0c-1.947,0-3.62,1.363-4.081,3.249l-17.085,64.81c-0.39,1.7-1.762,3.063-3.453,3.426
		l-64.81,17.192c-1.913,0.38-3.24,2.036-3.24,4.002c0,1.947,1.327,3.638,3.24,3.992l64.81,17.201
		c1.69,0.344,3.063,1.726,3.453,3.426l17.085,64.81c0.461,1.904,2.134,3.24,4.081,3.24c1.965,0,3.621-1.336,4.064-3.24l17.112-64.81
		c0.363-1.7,1.743-3.081,3.435-3.426l64.818-17.201c1.894-0.354,3.241-2.045,3.241-3.992
		C495.698,90.713,494.351,89.057,492.457,88.677z"/>
	<path class="st0" d="M459.924,258.514c-10.978-12.88-27.487-25.044-48.318-35.331c-41.642-20.644-100.336-33.781-165.234-33.746
		c-42.591,0-82.507,5.612-116.687,15.342c-34.189,9.711-62.623,23.601-82.241,39.615c-13.111,10.65-22.211,22.176-27.009,33.799
		c-2.753,6.657-4.134,13.35-4.134,20.22s1.38,13.562,4.134,20.219c2.753,6.64,6.879,13.235,12.376,19.671
		c10.995,12.898,27.496,25.044,48.317,35.339c41.643,20.653,100.345,33.782,165.244,33.755c42.598,0,82.506-5.621,116.686-15.359
		c34.189-9.712,62.632-23.592,82.241-39.598c13.102-10.667,22.22-22.193,27-33.808c2.762-6.656,4.143-13.349,4.143-20.219
		s-1.38-13.562-4.143-20.22C469.556,271.545,465.43,264.95,459.924,258.514z M268.079,316.977
		c-10.295,0.328-15.43,0.425-25.743,0.47c-1.027,0.009-1.558,0.442-1.558,1.274c-0.027,17.439-0.044,26.159-0.071,43.617
		c0,1.239-1.045,2.098-2.691,2.089c-17.023,0.018-25.54-0.16-42.554-0.85c-1.638-0.071-2.682-0.938-2.612-2.187
		c3.178-54.558,4.736-81.807,7.914-136.32c0.071-1.24,1.053-2.002,2.417-1.948c24.726,0.992,37.119,1.062,61.836,0.266
		c37.73-1.239,59.428,15.536,62.552,42.669C330.623,292.765,310.572,315.613,268.079,316.977z M429.117,301.033l-29.417,7.79
		c-0.77,0.16-1.399,0.797-1.566,1.576l-7.755,29.4c-0.204,0.858-0.956,1.47-1.85,1.47c-0.877,0-1.638-0.611-1.85-1.47l-7.755-29.4
		c-0.177-0.779-0.797-1.416-1.566-1.576l-29.409-7.79c-0.868-0.177-1.478-0.938-1.478-1.823c0-0.886,0.61-1.647,1.478-1.815
		l29.409-7.8c0.77-0.177,1.39-0.779,1.566-1.558l7.755-29.417c0.212-0.859,0.974-1.47,1.85-1.47c0.894,0,1.646,0.611,1.85,1.47
		l7.755,29.417c0.168,0.78,0.797,1.382,1.566,1.558l29.417,7.8c0.85,0.168,1.47,0.929,1.47,1.815
		C430.587,300.095,429.967,300.856,429.117,301.033z"/>
	<path class="st0" d="M19.799,143.209l46.308,12.27c1.222,0.256,2.186,1.239,2.479,2.461l12.199,46.308
		c0.336,1.372,1.531,2.319,2.921,2.319c1.399,0,2.586-0.947,2.913-2.319l12.208-46.308c0.256-1.222,1.257-2.205,2.47-2.461
		l46.316-12.27c1.354-0.284,2.32-1.505,2.32-2.886c0-1.38-0.966-2.567-2.32-2.85l-46.316-12.288
		c-1.213-0.266-2.214-1.222-2.47-2.443L86.618,76.407c-0.327-1.345-1.514-2.302-2.913-2.302c-1.39,0-2.584,0.956-2.921,2.302
		l-12.199,46.335c-0.293,1.221-1.257,2.178-2.479,2.443l-46.308,12.288c-1.381,0.283-2.328,1.47-2.328,2.85
		C17.471,141.704,18.418,142.926,19.799,143.209z"/>
	<path class="st0" d="M16.302,361.399v41.714c0,6.878,1.38,13.579,4.134,20.237c2.753,6.639,6.879,13.235,12.376,19.679
		c2.319,2.7,4.922,5.374,7.711,8.003v-66.757c-1.824-1.363-3.594-2.736-5.321-4.126C28.022,374.289,21.676,368.03,16.302,361.399z"
		/>
	<path class="st0" d="M59.893,466.25c6.462,4.24,13.544,8.304,21.236,12.111c3.303,1.646,6.746,3.204,10.243,4.726v-70.98
		c-11.304-4.568-21.839-9.64-31.479-15.174V466.25z"/>
	<path class="st0" d="M110.759,419.18v71.131h-1.142c13.802,4.932,28.772,9.154,44.724,12.527v-72.273
		c-10.34-2.08-20.361-4.471-29.957-7.197C119.745,422.04,115.195,420.65,110.759,419.18z"/>
	<path class="st0" d="M173.719,506.334c19.936,3.222,41.023,5.223,62.96,5.666v-72.706c-21.822-0.425-42.908-2.24-62.96-5.338
		V506.334z"/>
	<path class="st0" d="M256.066,511.946c22.839-0.442,44.74-2.602,65.385-6.046v-72.272c-20.759,3.293-42.687,5.267-65.385,5.71
		V511.946z"/>
	<path class="st0" d="M340.821,502.271c7.631-1.664,15.085-3.479,22.238-5.515c7.41-2.108,14.528-4.409,21.362-6.888v-71.512
		c-13.668,4.612-28.258,8.561-43.599,11.73V502.271z"/>
	<path class="st0" d="M403.79,411.098v70.945c11.764-5.311,22.317-11.155,31.488-17.44v-69.086
		c-4.806,2.833-9.827,5.568-15.076,8.179C414.953,406.291,409.455,408.752,403.79,411.098z"/>
	<path class="st0" d="M453.497,383.265h1.15v65.456c8.171-8.206,14.112-16.767,17.652-25.371c2.762-6.658,4.143-13.358,4.143-20.237
		v-41.696c-0.593,0.725-1.177,1.452-1.788,2.168C468.661,370.588,461.535,377.131,453.497,383.265z"/>
</g>
</svg>