<?xml version="1.0" encoding="utf-8"?>

<!DOCTYPE svg PUBLIC "-//W3C//DTD SVG 1.1//EN" "http://www.w3.org/Graphics/SVG/1.1/DTD/svg11.dtd">

<svg version="1.1" id="_x32_" xmlns="http://www.w3.org/2000/svg" xmlns:xlink="http://www.w3.org/1999/xlink" 
	 width="800px" height="800px" viewBox="0 0 512 512"  xml:space="preserve">
<style type="text/css">
<![CDATA[
	.st0{fill:#000000;}
]]>
</style>
<g>
	<path class="st0" d="M456.618,287.862h-79.906c-27.281,0-49.391,22.125-49.391,49.406s22.109,49.406,49.391,49.406h79.906
		c27.281,0,24.359-22.125,24.359-49.406S483.899,287.862,456.618,287.862z M376.712,358.44c-11.688,0-21.172-9.5-21.172-21.172
		c0-11.688,9.484-21.172,21.172-21.172c11.672,0,21.172,9.484,21.172,21.172C397.884,348.94,388.384,358.44,376.712,358.44z"/>
	<path class="st0" d="M306.15,337.269c0-38.906,31.656-70.578,70.563-70.578h88.218v-47.703c0-31.172-25.281-56.453-56.468-56.453
		H136.619c-28.141,0-27.375-28.359-1-28.359c14.063,0,209.828,0,209.828,0c5.5,0,9.969-4.469,9.969-9.969V39.878
		c0-14.109-7.438-27.156-19.594-34.328c-12.125-7.188-27.156-7.406-39.516-0.609L77.587,125.378
		c-45.141,28.172-46.656,58.031-46.656,93.609v236.547c0,31.188,25.266,56.469,56.453,56.469h321.078
		c31.187,0,56.468-25.281,56.468-56.469v-47.703h-88.218C337.806,407.831,306.15,376.175,306.15,337.269z M436.759,204.55
		c2.203,4.344,3.469,9.25,3.469,14.438v7.844h-7.063v-7.844c0-4.031-0.969-7.844-2.688-11.219L436.759,204.55z M390.103,187.222
		h18.359c1.078,0,2.109,0.063,3.156,0.172l-0.703,7.016c-0.797-0.078-1.609-0.109-2.453-0.109h-18.359V187.222z M340.697,187.222
		h21.172v7.078h-21.172V187.222z M70.556,485.847c-10-0.078-18.563-4.734-22.969-10.109l5.5-4.391
		c2.625,3.406,9.875,7.547,17.469,7.469V485.847z M70.556,193.956c-10-0.078-18.563-4.734-22.969-10.109l5.5-4.406
		c2.625,3.422,9.875,7.563,17.469,7.484V193.956z M108.791,487.3H87.619v-7.063h21.172V487.3z M114.884,194.3H93.697v-7.078h21.188
		V194.3z M291.291,187.222h21.172v7.078h-21.172V187.222z M158.181,487.3h-21.156v-7.063h21.156V487.3z M164.275,194.3h-21.172
		v-7.078h21.172V194.3z M207.587,487.3h-21.172v-7.063h21.172V487.3z M213.666,194.3h-21.172v-7.078h21.172V194.3z M256.994,487.3
		h-21.172v-7.063h21.172V487.3z M263.072,194.3H241.9v-7.078h21.172V194.3z M306.384,487.3h-21.172v-7.063h21.172V487.3z
		 M355.791,487.3h-21.188v-7.063h21.188V487.3z M433.165,455.534v-1.75h7.063v1.75c0,7.641-2.719,14.672-7.219,20.141l-5.453-4.469
		C431.071,466.925,433.165,461.487,433.165,455.534z M384.009,480.237h21.172v7.063h-21.172V480.237z"/>
</g>
</svg>