<?xml version="1.0" encoding="utf-8"?>

<!DOCTYPE svg PUBLIC "-//W3C//DTD SVG 1.1//EN" "http://www.w3.org/Graphics/SVG/1.1/DTD/svg11.dtd">

<svg version="1.1" id="_x32_" xmlns="http://www.w3.org/2000/svg" xmlns:xlink="http://www.w3.org/1999/xlink" 
	 width="800px" height="800px" viewBox="0 0 512 512"  xml:space="preserve">
<style type="text/css">
<![CDATA[
	.st0{fill:#000000;}
]]>
</style>
<g>
	<path class="st0" d="M506.582,85.283c-4.141-1.375-8.625,0.875-10,5.016c-3.594,10.672-8.391,16.688-13.781,20.703
		c-1.625,1.219-3.375,2.188-5.156,3.078c0.875-3.266,1.484-6.609,1.484-10.031c0-5.344-1.188-10.828-4.094-15.75
		c-2.547-4.25-6.109-7.625-10.172-9.875c-4.078-2.234-8.625-3.438-13.266-3.438c-4.609,0-9.281,1.219-13.531,3.641
		c-0.047,0.047-0.109,0.031-0.156,0.063h-0.031c0,0.016,0,0.016,0,0.016h-0.016l-0.172,0.109c-0.016,0-0.016,0.016-0.047,0.031l0,0
		c-0.094,0.063-0.141,0.156-0.234,0.203c-0.047,0.031-0.094,0.094-0.156,0.141c-3.922,2.5-7.109,5.828-9.25,9.672
		c-2.25,4.078-3.421,8.641-3.421,13.281c0,4.734,1.234,9.578,3.843,13.938l0,0c3.281,5.422,8.109,9.813,13.688,13.031
		c1.078,0.609,2.203,1.141,3.328,1.656c-2.609,1.656-5.563,3.188-8.781,4.516c-2.25,0.906-4.656,1.656-7.172,2.313
		c-14.265-17.922-33.64-34.453-59.406-48.766c-72.141-40.063-167.859-13.438-215.422,16.297
		C125.083,86.408,98.77,91.299,90.786,93.643l10.891,58.047c-21.75,26.906-39.266,35.906-39.266,35.906l-43.953,8.688
		c-6.219,0-12,3.125-15.422,8.313c-3.406,5.188-3.984,11.75-1.516,17.453l33.719,96.125c2.938,6.766,9.594,11.156,16.953,11.156
		l72.078,15.094l30.391,76.5c15.203,33.641,55.891,26.594,57.516-1.078l6.516-37.984h105.266c0,0,3.266,16.906,4.891,31.484
		c2.438,21.953,34.719,50.453,67.281,6.5c38.968-52.594,102.015-175.734,42.937-268.703c4.047-1.422,7.906-3.016,11.313-4.906
		c4.828-2.656,9-5.703,12.484-8.844c1.281-1.172,2.359-2.344,3.438-3.531c0.094-0.016,0.188,0,0.281-0.031v0.016
		c0.047,0,0.063-0.016,0.094-0.016c0.078-0.016,0.188-0.016,0.281-0.031l-0.016-0.031c8.344-1.391,17.266-4.078,25.297-10.031
		c8.156-6.016,15.016-15.328,19.344-28.422C512.973,91.174,510.738,86.689,506.582,85.283z M313.754,289.955
		c-1.859,3.813-4.547,7.094-8.078,9.875c-3.516,2.781-6.547,4.953-11.688,6.5c-4.094,1.234-9.203,1.984-13.984,2.234v14.438h-12.891
		v-14.328h-11.688v14.328H242.52v-14.328h-10.234h-13.219v-13.078c0-2.531-0.188-4.078,2.438-4.594c0.234-0.031,0.578-0.078,1-0.172
		c0.422-0.063,5.563-0.375,6.734-0.375c2.078,0,3.047-1.984,3.047-3.953v-63.578c0-2.406-1.266-3.359-3.047-3.578
		c-1.156-0.172-6.313-0.328-6.734-0.422c-0.422-0.063-0.766-0.125-1-0.141c-2.625-0.516-2.438-2.063-2.438-4.594v-11.734h13.219
		h10.234v-14.641h12.906v14.688l11.688,0.031v-14.719h12.891v14.922c6.984,0.594,15.563,2.781,21.469,7.359
		c3.328,2.563,5.891,5.406,7.484,8.906c1.578,3.484,2.359,7.391,2.359,11.734c0,2.516-0.391,4.875-1.172,7.172
		c-0.781,2.25-2.016,4.391-3.672,6.375c-1.672,1.984-7.203,7.594-12.188,9.531c15.141,2.609,22.219,11.156,22.219,23.641
		C316.504,281.971,315.583,286.127,313.754,289.955z M301.739,133.33c-10.391,0-18.797-8.406-18.797-18.797
		c0-10.406,8.406-18.797,18.797-18.797c10.375,0,18.797,8.391,18.797,18.797C320.536,124.924,312.114,133.33,301.739,133.33z
		 M416.395,250.346c-9.094,1.109-17.359-5.344-18.484-14.422c-2.359-19.172-8.719-36.766-18.203-51.094
		c-9.5-14.359-21.984-25.453-37.047-32.25c-8.328-3.766-12.063-13.578-8.281-21.922c3.75-8.328,13.563-12.047,21.906-8.281
		c21.234,9.578,38.516,25.172,51.063,44.172c12.563,19.031,20.5,41.469,23.453,65.328
		C431.91,240.939,425.473,249.205,416.395,250.346z M461.926,111.783c-0.875,2.453-2.125,4.781-3.594,6.625
		c-2.703-0.422-5.656-1.469-8.328-3c-3.531-2.016-6.5-4.891-7.984-7.453v0.016c-1.109-1.859-1.625-3.844-1.625-5.828
		c0-1.953,0.516-3.906,1.469-5.594c0.906-1.656,2.25-3.063,3.984-4.156c1.828-1.047,3.797-1.563,5.75-1.578
		c1.938,0,3.875,0.516,5.578,1.453c1.703,0.969,3.156,2.328,4.25,4.125c1.203,2,1.875,4.641,1.875,7.656
		C463.316,106.533,462.816,109.252,461.926,111.783z"/>
	<path class="st0" d="M282.411,268.783c-1.281-0.984-2.969-1.75-4.969-2.297c-2.031-0.516-4.5-0.781-7.359-0.781h-13.484v23.969
		h13.547c3.031,0,5.563-0.359,7.609-1.016c2.047-0.688,3.703-1.609,4.953-2.719c1.203-1.125,2.109-2.453,2.656-3.953
		c0.563-1.5,0.813-3.109,0.813-4.813c0-1.766-0.281-3.359-0.906-4.781C284.661,270.986,283.708,269.768,282.411,268.783z"/>
	<path class="st0" d="M278.317,242.096c2.875-1.906,4.328-4.875,4.328-9c0-4.266-1.313-7.297-3.875-9.109
		c-2.625-1.797-6.672-2.719-12.172-2.719h-10.469v23.641h9.547C271.223,244.908,275.442,243.971,278.317,242.096z"/>
</g>
</svg>