<?xml version="1.0" encoding="utf-8"?>

<!DOCTYPE svg PUBLIC "-//W3C//DTD SVG 1.1//EN" "http://www.w3.org/Graphics/SVG/1.1/DTD/svg11.dtd">

<svg version="1.1" id="_x32_" xmlns="http://www.w3.org/2000/svg" xmlns:xlink="http://www.w3.org/1999/xlink" 
	 viewBox="0 0 512 512"  xml:space="preserve">
<style type="text/css">
	.st0{fill:#000000;}
</style>
<g>
	<path class="st0" d="M210.418,85.655c0-5.111,7.066-8.43,11.285-9.555C234.732,72.635,256,73.935,256,73.935
		s21.269-1.3,34.297,2.166c4.219,1.125,11.285,4.444,11.285,9.555c0,12.586,0,20.841,0,20.841h33.862c0,0,0-14.33,0-26.05
		c0-22.141-3.909-44.282-79.443-44.282c-75.535,0-79.444,22.141-79.444,44.282c0,11.72,0,26.05,0,26.05h33.862
		C210.418,106.496,210.418,98.241,210.418,85.655z"/>
	<rect x="154.409" y="139.823" class="st0" width="203.182" height="336.013"/>
	<rect y="139.823" class="st0" width="98.414" height="336.013"/>
	<rect x="413.587" y="139.823" class="st0" width="98.413" height="336.013"/>
</g>
</svg>