<?xml version="1.0" encoding="utf-8"?>

<!DOCTYPE svg PUBLIC "-//W3C//DTD SVG 1.1//EN" "http://www.w3.org/Graphics/SVG/1.1/DTD/svg11.dtd">

<svg version="1.1" id="_x32_" xmlns="http://www.w3.org/2000/svg" xmlns:xlink="http://www.w3.org/1999/xlink" 
	 width="800px" height="800px" viewBox="0 0 512 512"  xml:space="preserve">
<style type="text/css">
<![CDATA[
	.st0{fill:#000000;}
]]>
</style>
<g>
	<path class="st0" d="M419.188,263c-14.672-31.563-36.719-58-56.781-78.5c-10.031-10.234-19.609-18.984-27.531-26.047
		c-0.953-0.844-1.797-1.594-2.688-2.391c5.906-6.063,9.594-14.328,9.594-23.484c-0.031-13.047-7.531-24.234-18.406-29.813
		c3.438-5.813,10.563-15.484,24.859-27.047c4.969-4.016,8.891-8.531,11.625-13.469s4.234-10.344,4.219-15.734
		c0.063-9.375-4.672-18.141-11.922-23.703c-7.25-5.641-16.781-8.531-27.406-8.547c-5.813,0.016-12,0.875-18.469,2.688l-0.094,0.031
		c-2.609,0.719-4.375,0.922-5.406,0.906c-0.875,0-1.25-0.094-1.563-0.188c-0.484-0.172-1.156-0.484-2.797-1.891
		c-2.391-2.016-6.438-6.375-13.109-9.938C276.625,2.282,267.719-0.031,256,0c-8.969,0-16.203,1.281-22.156,3.547
		c-8.984,3.344-14.469,8.891-17.531,11.625c-1.594,1.406-2.531,2.078-3.063,2.328c-0.531,0.234-0.719,0.359-2.031,0.391
		c-1.047,0.016-2.844-0.188-5.516-0.938l1.859,0.516l-1.844-0.516c-6.469-1.797-12.656-2.672-18.484-2.688
		c-10.625,0.016-20.141,2.906-27.391,8.547c-7.25,5.563-12,14.328-11.938,23.703c0,5.375,1.5,10.797,4.25,15.734
		c2.719,4.938,6.656,9.453,11.609,13.469c12.422,10.047,19.469,18.75,23.375,24.656c0.609,0.922,1,1.625,1.453,2.406
		c-10.859,5.578-18.359,16.75-18.375,29.797c0.016,9.156,3.688,17.422,9.609,23.484c-15.922,14.109-39.766,35.766-60.641,63.547
		C107.703,234.907,97.094,252.079,89.328,271c-7.797,18.891-12.734,39.578-12.734,61.594C76.609,431.688,156.922,512,256,512
		c99.094,0,179.391-80.313,179.406-179.406C435.406,307.438,428.938,284.032,419.188,263z M203.859,143.094
		c-5.797-0.016-10.484-4.688-10.5-10.516c0.016-5.75,4.719-10.469,10.5-10.484h104.281c5.781,0.016,10.484,4.734,10.5,10.484
		c-0.016,5.828-4.703,10.5-10.5,10.516H203.859z M178.313,57.735c-3.016-2.438-4.875-4.75-5.906-6.672
		c-1.063-1.906-1.344-3.375-1.359-4.547c0.078-1.953,0.672-3.516,3.031-5.469c2.359-1.859,6.703-3.641,13.156-3.641
		c3.516,0,7.625,0.531,12.234,1.828l-1.859-0.516l1.891,0.516c4.156,1.156,7.969,1.797,11.719,1.797
		c3.063,0.016,6.047-0.453,8.75-1.344c4.75-1.547,8.219-4.234,10.688-6.344c3.75-3.297,5.813-5.438,8.875-7.047
		c3.063-1.594,7.5-3.141,16.469-3.156c6.797,0,11.063,0.938,14,2.047c4.344,1.688,6.344,3.688,10.313,7.25
		c1.969,1.734,4.438,3.891,7.938,5.688c3.5,1.813,7.938,2.938,12.531,2.906c3.719,0,7.563-0.641,11.719-1.797h0.031
		c4.609-1.297,8.719-1.828,12.219-1.828c6.453,0,10.813,1.781,13.156,3.641c2.375,1.953,2.969,3.516,3.031,5.469
		c0,1.172-0.281,2.641-1.344,4.547c-1.047,1.922-2.891,4.234-5.906,6.672c-22.969,18.516-31.563,34.641-34.313,41.234h-86.766
		C209.875,92.375,201.281,76.25,178.313,57.735z M366.5,443.094c-28.313,28.297-67.313,45.766-110.5,45.781
		c-43.188-0.016-82.188-17.484-110.5-45.781c-28.297-28.313-45.766-67.312-45.766-110.5c0-21.172,5.422-41.203,14.078-59.859
		c12.953-27.969,33.281-52.656,52.313-72.031c9.5-9.703,18.656-18.078,26.406-24.984c4.031-3.594,7.625-6.75,10.781-9.547
		c0.188,0,0.344,0.047,0.547,0.047h104.281c0.203,0,0.375-0.047,0.578-0.063c1.156,1.047,2.219,2.016,3.516,3.156
		c15.609,13.766,40.875,35.938,62.078,64.188c10.609,14.094,20.141,29.672,26.969,46.297c6.844,16.625,10.984,34.266,10.984,52.797
		C412.25,375.782,394.797,414.781,366.5,443.094z"/>
	<path class="st0" d="M281.25,334.5c1.672-1.219,5.047-3.156,8.047-5.188c3-2.047,5.453-4.313,7.422-6.813
		c1.938-2.516,3.375-5.203,4.313-8.078s1.375-5.875,1.375-9.031c0-5.5-0.922-10.453-2.781-14.844
		c-1.844-4.391-4.766-8.125-8.75-11.203c-3.984-3.094-9.094-5.484-15.297-7.141c-4.875-1.297-10.547-2.094-17.016-2.375v-14.609
		h-21.188v14.484h-26.688h-8.75v10.906c0,3.188-0.219,5.125,2.875,5.781c0.281,0.047,0.656,0.125,1.156,0.203
		c0.516,0.109,1.422,0.25,2.781,0.516c1.313,0.234-0.375,0.547,1.938,0.953v97.297c-2.313,0.422-0.625,0.734-1.938,0.969
		c-1.359,0.25-2.266,0.422-2.781,0.5c-0.5,0.109-0.875,0.172-1.156,0.219c-3.094,0.656-2.875,2.594-2.875,5.797v10.906h8.75h26.688
		v13.546h21.188V403.75h2.734c7.797,0,14.703-1,20.766-2.969s11.156-4.703,15.281-8.203c4.156-3.484,7.313-7.656,9.469-12.469
		s3.25-10.078,3.25-15.766C310.063,348.594,299.656,338.641,281.25,334.5z M235.625,288.985h17.469
		c8.406,0,14.594,1.484,18.547,4.453c3.953,2.953,5.922,7.922,5.922,14.922c0,6.734-2.188,11.656-6.563,14.734
		c-4.406,3.094-10.828,4.625-19.281,4.625h-16.094V288.985z M281.031,371.672c-0.844,2.484-2.188,4.641-4.094,6.484
		c-1.875,1.859-4.375,3.344-7.5,4.453c-3.109,1.109-7,1.672-11.625,1.672h-22.188v-39.297h22.094c4.375,0,8.125,0.422,11.219,1.281
		s5.609,2.125,7.594,3.766c1.969,1.625,3.438,3.609,4.359,5.922c0.922,2.328,1.391,4.938,1.391,7.828
		C282.281,366.579,281.859,369.204,281.031,371.672z"/>
</g>
</svg>