<?xml version="1.0" encoding="utf-8"?>

<!DOCTYPE svg PUBLIC "-//W3C//DTD SVG 1.1//EN" "http://www.w3.org/Graphics/SVG/1.1/DTD/svg11.dtd">

<svg version="1.1" id="_x32_" xmlns="http://www.w3.org/2000/svg" xmlns:xlink="http://www.w3.org/1999/xlink" 
	 width="800px" height="800px" viewBox="0 0 512 512"  xml:space="preserve">
<style type="text/css">
<![CDATA[
	.st0{fill:#000000;}
]]>
</style>
<g>
	<path class="st0" d="M419.188,263c-14.688-31.563-36.719-58-56.781-78.5c-10.031-10.234-19.609-18.984-27.531-26.047
		c-0.938-0.844-1.797-1.594-2.703-2.391c5.922-6.063,9.609-14.328,9.609-23.484c-0.031-13.047-7.531-24.234-18.406-29.813
		c3.438-5.813,10.563-15.484,24.844-27.047c4.969-4.016,8.906-8.531,11.641-13.469s4.234-10.344,4.219-15.734
		c0.078-9.375-4.672-18.141-11.922-23.703c-7.25-5.641-16.781-8.531-27.406-8.547c-5.813,0.016-12,0.875-18.469,2.688l-0.094,0.031
		c-2.609,0.719-4.375,0.922-5.406,0.906c-0.875,0-1.25-0.094-1.563-0.188c-0.484-0.172-1.156-0.484-2.781-1.891
		c-2.406-2.016-6.453-6.375-13.125-9.938C276.625,2.282,267.719-0.031,256,0c-8.969,0-16.203,1.281-22.156,3.547
		c-9,3.344-14.469,8.891-17.531,11.625c-1.594,1.406-2.531,2.078-3.063,2.328c-0.531,0.234-0.719,0.359-2.031,0.391
		c-1.031,0.016-2.844-0.188-5.531-0.938l1.875,0.516l-1.844-0.516c-6.469-1.797-12.656-2.672-18.484-2.688
		c-10.625,0.016-20.141,2.906-27.391,8.547c-7.25,5.563-12,14.328-11.938,23.703c0,5.375,1.5,10.797,4.234,15.734
		s6.656,9.453,11.625,13.469c12.422,10.047,19.484,18.75,23.359,24.656c0.625,0.922,1.016,1.625,1.469,2.406
		c-10.844,5.578-18.344,16.75-18.375,29.797c0,9.156,3.688,17.422,9.594,23.484c-15.906,14.109-39.75,35.766-60.625,63.547
		c-11.5,15.297-22.094,32.469-29.875,51.391c-7.766,18.891-12.719,39.578-12.719,61.594C76.609,431.688,156.906,512,256,512
		s179.406-80.313,179.406-179.406C435.406,307.438,428.938,284.032,419.188,263z M203.844,143.094
		c-5.781-0.016-10.469-4.688-10.484-10.516c0.016-5.75,4.719-10.469,10.484-10.484h104.297c5.797,0.016,10.484,4.734,10.5,10.484
		c-0.016,5.828-4.703,10.5-10.5,10.516H203.844z M178.313,57.735c-3.031-2.438-4.875-4.75-5.906-6.672
		c-1.063-1.906-1.344-3.375-1.344-4.547c0.063-1.953,0.656-3.516,3.031-5.469c2.344-1.859,6.688-3.641,13.141-3.641
		c3.516,0,7.609,0.531,12.234,1.828l-1.844-0.516l1.875,0.516c4.156,1.156,7.969,1.797,11.719,1.797
		c3.063,0.016,6.047-0.453,8.75-1.344c4.75-1.547,8.219-4.234,10.688-6.344c3.75-3.297,5.813-5.438,8.875-7.047
		c3.063-1.594,7.5-3.141,16.469-3.156c6.797,0,11.063,0.938,14,2.047c4.344,1.688,6.328,3.688,10.313,7.25
		c1.969,1.734,4.438,3.891,7.953,5.688c3.484,1.813,7.922,2.938,12.516,2.906c3.719,0,7.563-0.641,11.719-1.797h0.031
		c4.609-1.297,8.719-1.828,12.219-1.828c6.469,0,10.813,1.781,13.156,3.641c2.375,1.953,2.969,3.516,3.031,5.469
		c0,1.172-0.281,2.641-1.344,4.547c-1.031,1.922-2.891,4.234-5.906,6.672c-22.969,18.516-31.563,34.641-34.313,41.234h-86.75
		C209.875,92.375,201.281,76.25,178.313,57.735z M366.5,443.094c-28.313,28.297-67.313,45.766-110.5,45.781
		c-43.188-0.016-82.188-17.484-110.5-45.781c-28.281-28.313-45.75-67.312-45.766-110.5c0-21.172,5.422-41.203,14.078-59.859
		c12.953-27.969,33.281-52.656,52.313-72.031c9.5-9.703,18.656-18.078,26.406-24.984c4.031-3.594,7.625-6.75,10.781-9.547
		c0.188,0,0.344,0.047,0.531,0.047h104.297c0.203,0,0.375-0.047,0.578-0.063c1.156,1.047,2.219,2.016,3.531,3.156
		c15.594,13.766,40.859,35.938,62.063,64.188c10.594,14.094,20.141,29.672,26.969,46.297c6.844,16.625,10.984,34.266,11,52.797
		C412.25,375.782,394.781,414.781,366.5,443.094z"/>
	<path class="st0" d="M307.563,382.704c-2.875,5.391-6.844,9.906-11.844,13.594c-5.031,3.688-11.063,6.422-18.063,8.219
		c-3.047,0.781-6.25,1.313-9.5,1.766v20.359h-24.313v-19.968c-6.922-0.578-13.531-1.656-19.781-3.375
		c-9.5-2.594-21.969-13.125-21.969-13.125c-1.063-0.625-1.781-1.719-1.938-2.938c-0.141-1.219,0.281-2.438,1.156-3.313
		l12.188-12.188c1.313-1.297,3.344-1.547,4.906-0.594c0,0,9.125,7.922,16.031,9.813c6.906,1.875,13.781,2.828,20.609,2.828
		c8.609,0,15.75-1.531,21.406-4.563c5.672-3.078,8.484-7.813,8.484-14.297c0-4.656-1.375-8.359-4.188-11.047
		c-2.781-2.688-7.469-4.375-14.125-5.109l-21.828-1.875c-12.922-1.266-22.891-4.875-29.891-10.781
		c-7.016-5.922-10.5-14.906-10.5-26.922c0-6.656,1.344-12.578,4.031-17.781c2.719-5.219,6.375-9.609,11.063-13.203
		c4.656-3.578,10.094-6.281,16.281-8.063c2.594-0.75,5.313-1.25,8.063-1.703v-17.547h24.313v17.203
		c5.688,0.547,11.078,1.453,16.094,2.844c8.531,2.328,17.5,9.344,17.5,9.344c1.125,0.578,1.875,1.672,2.078,2.922
		c0.188,1.25-0.234,2.5-1.109,3.406l-11.422,11.594c-1.234,1.25-3.109,1.563-4.656,0.766c0,0-6.766-4.828-12.609-6.344
		s-11.984-2.313-18.438-2.313c-8.453,0-14.688,1.641-18.719,4.859c-4.063,3.234-6.063,7.453-6.063,12.641
		c0,4.688,1.406,8.281,4.313,10.781c2.875,2.531,7.719,4.156,14.531,4.844l19.125,1.641c14.188,1.25,24.906,5.016,32.188,11.297
		s10.906,15.453,10.906,27.469C311.875,371.047,310.438,377.313,307.563,382.704z"/>
</g>
</svg>