<?xml version="1.0" encoding="utf-8"?>

<!DOCTYPE svg PUBLIC "-//W3C//DTD SVG 1.1//EN" "http://www.w3.org/Graphics/SVG/1.1/DTD/svg11.dtd">

<svg version="1.1" id="_x32_" xmlns="http://www.w3.org/2000/svg" xmlns:xlink="http://www.w3.org/1999/xlink" 
	 width="800px" height="800px" viewBox="0 0 512 512"  xml:space="preserve">
<style type="text/css">
<![CDATA[
	.st0{fill:#000000;}
]]>
</style>
<g>
	<path class="st0" d="M230.781,256c0-63.719-51.672-115.391-115.406-115.391C51.656,140.609,0,192.281,0,256
		c0,63.734,51.656,115.391,115.375,115.391C179.109,371.391,230.781,319.734,230.781,256z M150.219,285.688
		c-1.938,3.656-4.625,6.703-8,9.188c-3.406,2.5-7.469,4.344-12.188,5.563c-2.078,0.516-4.234,0.891-6.438,1.188v13.766h-16.438
		v-13.5c-4.656-0.391-9.141-1.125-13.344-2.281c-6.438-1.75-14.859-8.875-14.859-8.875c-0.734-0.406-1.203-1.156-1.297-1.969
		c-0.094-0.828,0.188-1.656,0.766-2.25l8.234-8.234c0.891-0.875,2.266-1.047,3.328-0.391c0,0,6.172,5.344,10.828,6.625
		c4.672,1.266,9.313,1.906,13.922,1.906c5.828,0,10.641-1.031,14.469-3.094c3.828-2.078,5.734-5.281,5.734-9.656
		c0-3.156-0.938-5.641-2.828-7.453c-1.859-1.828-5.047-2.969-9.547-3.453l-14.75-1.281c-8.719-0.844-15.469-3.281-20.188-7.281
		c-4.75-4-7.109-10.078-7.109-18.203c0-4.484,0.922-8.484,2.734-12.016c1.813-3.5,4.313-6.484,7.469-8.906s6.813-4.25,11-5.453
		c1.75-0.5,3.594-0.844,5.438-1.141v-11.859h16.438v11.609c3.844,0.375,7.5,1,10.891,1.922c5.766,1.578,11.828,6.313,11.828,6.313
		c0.75,0.391,1.266,1.141,1.391,1.984s-0.156,1.688-0.734,2.297l-7.719,7.844c-0.844,0.828-2.109,1.047-3.156,0.5
		c0,0-4.578-3.25-8.531-4.281c-3.938-1.031-8.094-1.547-12.469-1.547c-5.703,0-9.906,1.094-12.641,3.281s-4.078,5.031-4.078,8.547
		c0,3.156,0.938,5.578,2.906,7.266c1.938,1.719,5.203,2.813,9.813,3.281l12.922,1.109c9.578,0.844,16.828,3.391,21.734,7.625
		c4.938,4.266,7.391,10.453,7.391,18.563C153.141,277.813,152.156,282.047,150.219,285.688z"/>
	<path class="st0" d="M155.938,121.703c27.281-21.391,61.531-34.141,98.906-34.156c0.469,0,0.938,0.047,1.406,0.047l-12.047,36.422
		l119.828-29.297l-82.453-83.672l-14.703,44.438c-3.984-0.234-8-0.391-12.031-0.391c-53.219,0-101.563,21.609-136.406,56.5
		c-1.25,1.234-2.438,2.531-3.625,3.797c0.188,0,0.375-0.016,0.563-0.016C129.531,115.375,143.156,117.594,155.938,121.703z"/>
	<path class="st0" d="M356.063,390.297c-27.281,21.391-61.531,34.141-98.906,34.156c-0.469,0-0.938-0.047-1.406-0.047l12.047-36.422
		l-119.828,29.297l82.453,83.672l14.703-44.453c3.984,0.25,8,0.406,12.031,0.406c53.219,0,101.563-21.625,136.406-56.5
		c1.25-1.234,2.438-2.531,3.625-3.797c-0.188,0-0.375,0.016-0.563,0.016C382.469,396.625,368.844,394.391,356.063,390.297z"/>
	<polygon class="st0" points="430.172,213.828 415.656,213.828 396.609,243.469 377.563,213.828 363.063,213.828 377.594,236.469 
		360.484,236.469 360.484,248.547 385.375,248.547 388.063,252.719 388.063,262.672 360.484,262.672 360.484,262.703 
		360.484,274.797 360.484,276.813 388.063,276.813 388.063,298.172 405.172,298.172 405.172,276.813 432.75,276.813 432.75,274.797 
		432.75,262.703 432.75,262.672 405.172,262.672 405.172,252.703 407.844,248.547 432.75,248.547 432.75,236.469 415.625,236.469 	
		"/>
	<path class="st0" d="M396.625,140.609c-63.75,0-115.406,51.672-115.406,115.391c0,63.734,51.656,115.391,115.406,115.391
		C460.344,371.391,512,319.734,512,256C512,192.281,460.344,140.609,396.625,140.609z M396.625,342.531
		c-47.719,0-86.547-38.813-86.547-86.531s38.828-86.531,86.547-86.531s86.531,38.813,86.531,86.531S444.344,342.531,396.625,342.531
		z"/>
</g>
</svg>