<?xml version="1.0" encoding="utf-8"?>

<!DOCTYPE svg PUBLIC "-//W3C//DTD SVG 1.1//EN" "http://www.w3.org/Graphics/SVG/1.1/DTD/svg11.dtd">

<svg version="1.1" id="_x32_" xmlns="http://www.w3.org/2000/svg" xmlns:xlink="http://www.w3.org/1999/xlink" 
	 width="800px" height="800px" viewBox="0 0 512 512"  xml:space="preserve">
<style type="text/css">
<![CDATA[
	.st0{fill:#000000;}
]]>
</style>
<g>
	<path class="st0" d="M448.516,11.953H63.5C28.438,11.953,0,40.375,0,75.438s28.438,63.5,63.5,63.5h19.906V80.469h340.859v58.469
		h24.25c35.063,0,63.484-28.438,63.484-63.5S483.578,11.953,448.516,11.953z"/>
	<path class="st0" d="M99.406,441.688c0,32.219,26.125,58.359,58.359,58.359h192.141c32.219,0,58.359-26.141,58.359-58.359V97.594
		H99.406V441.688z M353.625,112.656c8.688,0,15.75,7.031,15.75,15.719s-7.063,15.734-15.75,15.734
		c-8.672,0-15.719-7.047-15.719-15.734S344.953,112.656,353.625,112.656z M353.625,155.906c8.688,0,15.75,7.047,15.75,15.734
		c0,8.672-7.063,15.734-15.75,15.734c-8.672,0-15.719-7.063-15.719-15.734C337.906,162.953,344.953,155.906,353.625,155.906z
		 M293.063,135.359v-0.922v-2.328c0-0.609,0.469-1.109,1.031-1.109h5.531c0.578,0,1.063,0.5,1.063,1.109v1.219h10.344
		c0.578,0,1.063,0.484,1.063,1.109v9.688c0,0.609-0.484,1.094-1.063,1.094h-16.938c-0.563,0-1.031-0.484-1.031-1.094V135.359z
		 M185.406,145.578c0-2.156,1.656-3.906,3.656-3.906h27.563c2.016,0,3.672-1.75,3.672-3.906v-12.094
		c0-2.156,1.641-3.891,3.656-3.891h25.953c2.016,0,3.656,1.734,3.656,3.891v23.656c0,2.156,1.641,3.906,3.656,3.906h0.969
		c2.031,0,3.656-1.75,3.656-3.906v-3.516c0-2.156-0.328-3.906-1.844-3.906c-2.438,0-3.547-1.656-3.625-3.719
		c0,0.063-0.016,0.125-0.016,0.188V138c0,0.078,0.016,0.125,0.016,0.188c0.078-2.063,1.281-3.719,3.625-3.719
		c1.344,0,1.844-1.75,1.844-3.891v-4.906c0-2.156,1.641-3.891,3.672-3.891h8.891c1.281,0,2.484,0.719,3.156,1.906l7.875,14.25
		c0.359,0.594,0.516,1.266,0.516,1.969v27.328c0,1.797,1.172,3.359,2.797,3.813l4,1.047c1.438,0.359,2.844-0.219,3.703-1.344
		c-0.109-1.125-0.5-2.219-1.406-2.875l-3.672-2.672c-1.594-1.172-2.063-3.453-1.063-5.234l2.5-4.391
		c1-1.766,3.078-2.391,4.781-1.484l21.656,11.656c1.25,0.688,2.031,2.031,2.031,3.484v7.844c0,1.359-0.688,2.656-1.813,3.328
		l-9.313,5.844c-1.125,0.719-1.797,2-1.797,3.375v4.266c0,1.516,0.828,2.891,2.109,3.547l13.859,6.875
		c1.297,0.656,2.109,2.031,2.109,3.531l0.094,82.75c0,1.938-1.469,3.5-3.281,3.5h-24.094c-1.281,0-2.406-0.766-2.969-1.969
		l-11.156-30.5c-0.5-1.063-1.438-1.844-2.531-2.094L271.625,257c-1.688-0.391-2.875-1.984-2.875-3.813v-0.141
		c0-2.156,1.625-3.922,3.656-3.922c1.063,0,0.75-2.141-0.766-3.531c-1.234-1.125-3.422-2.719-4.813-3.641l-12.766-8.75
		c-1.063-0.719-1.688-1.953-1.688-3.281v-9.391c0-1.25-0.563-2.438-1.531-3.156l-15.984-12.188
		c-1.047-0.813-1.625-2.094-1.531-3.469c0.109-1.344,0.844-2.563,1.984-3.188l14.625-8.031c1.234-0.656,2-2,2-3.469v-9.781
		c0-0.797-0.266-1.578-0.719-2.25c-1.156-1.422-3.156-1.781-4.703-0.75l-12.297,8.328c-0.906,0.641-2.047,0.797-3.078,0.391
		l-43.203-14.938c-1.5-0.516-2.531-2-2.531-3.703V145.578z M261.656,255.047v9.797c0,0.656-0.25,1.297-0.719,1.75
		c-0.469,0.406-1.078,0.594-1.672,0.469l-6.641-1.422c-0.938-0.203-1.625-1.125-1.625-2.203v-9.781c0-0.688,0.25-1.328,0.719-1.75
		c0.469-0.438,1.094-0.609,1.672-0.5l6.609,1.438C260.969,253.063,261.656,253.969,261.656,255.047z M224.484,231.75h-3.328
		c-1.109,0-2-1.016-2-2.25v-3.438c0-1.25,0.891-2.25,2-2.25h1.313c1.094,0,2.016,0.219,2.016-0.844v-0.25
		c0-0.984,0.891-1.563,2.016-1.563h2.781c1.125,0,2.016,1.016,2.016,2.25v0.406v5.688c0,1.234-0.891,2.25-2.016,2.25H224.484z
		 M226.406,237.438v4.719c0,1.25-0.906,2.266-2.031,2.266h-0.906c-1.125,0-2.031-1.016-2.031-2.266v-4.719
		c0-1.25,0.906-2.25,2.031-2.25h0.906C225.5,235.188,226.406,236.188,226.406,237.438z M229.297,236.969
		c0-1.25,0.891-2.25,2.016-2.25h1c1.109,0,2.016-1,2.016-2.25V232c0-1.234,0.891-2.25,2.016-2.25h1.516
		c1.141,0,2.016,1.016,2.016,2.25v14.109c0,1.047,0.688,1.984,1.609,2.188l5.188,1.266c0.922,0.219,1.594,1.125,1.594,2.203v6.313
		c0,0.672-0.297,1.313-0.781,1.75c-0.453,0.422-1.078,0.609-1.672,0.438l-14.938-3.641c-0.938-0.234-1.578-1.156-1.578-2.203
		V236.969z M198.875,179.531v1.094c0,1.25-0.563,2.438-1.5,3.156c-0.953,0.734-2.156,0.953-3.266,0.563l-5.391-1.781
		c-1.5-0.531-2.563-2-2.563-3.719v-1.125c0-1.25,0.563-2.406,1.5-3.141s2.172-0.938,3.281-0.578l5.375,1.797
		C197.844,176.313,198.875,177.813,198.875,179.531z M181.203,250.516c0-0.578,0.297-1.109,0.766-1.406l2.438-1.547
		c0.484-0.281,0.75-0.813,0.75-1.406v-17.5c0-0.906,0.688-1.625,1.531-1.625h10.797c0.484,0,0.953,0.25,1.234,0.672l7.438,10.891
		c0.359,0.5,0.406,1.156,0.156,1.688c-0.281,0.563-0.781,0.891-1.375,0.891h0.594c-0.844,0-1.531,0.734-1.531,1.625v6.703
		c0,0.891,0.688,1.625,1.531,1.625s1.516,0.719,1.516,1.625v0.688c0,0.469-0.188,0.906-0.516,1.219l-9.469,8.875
		c-0.266,0.25-0.625,0.406-0.984,0.406h-8.656c-0.422,0-0.797-0.188-1.109-0.5l-4.672-5.156c-0.266-0.313-0.438-0.719-0.438-1.125
		V250.516z M180.594,384.25c0-2.063,0.641-4.047,1.781-5.438c1.125-1.406,2.656-2.094,4.188-1.938l53.719,6.25
		c1.859,0.219,3.672-0.844,4.813-2.828l18.422-31.703c0.859-1.5,2.109-2.484,3.484-2.766l20.469-4.359
		c2.656-0.563,4.625-3.656,4.625-7.281v-14.547c0-4.078,2.469-7.391,5.5-7.391h23.344c3.031,0,5.5,3.313,5.5,7.391v95.984
		c0,3.328-1.656,6.25-4.031,7.125l-28.797,10.563c-1.766,0.656-3.672,0.047-5.031-1.563l-20.734-24.266
		c-1.219-1.422-1.906-3.453-1.906-5.578v-3.75c0-2.906-1.25-5.516-3.203-6.734c-1.953-1.203-4.234-0.766-5.875,1.125l-4.672,5.422
		c-1.219,1.406-1.922,3.438-1.922,5.594v25.578c0,4.078-2.453,7.391-5.484,7.391h-20.906c-1.094,0-2.156-0.453-3.078-1.281
		L183,400.922c-1.484-1.359-2.406-3.672-2.406-6.125V384.25z M149.688,425.953c-0.344,0.938-0.828,1.766-1.469,2.453
		c-0.656,0.688-1.484,1.25-2.422,1.656c-0.953,0.391-2.047,0.594-3.297,0.594c-1.141,0-2.234-0.219-3.313-0.625
		s-2.188-0.891-3.328-1.438l-10.766-5.281v-4.938l10.281,5.172c-0.125-0.313-0.203-0.609-0.25-0.922s-0.063-0.625-0.063-0.938
		c0-0.828,0.156-1.656,0.5-2.438s0.813-1.5,1.453-2.094c0.641-0.609,1.391-1.094,2.313-1.469c0.891-0.375,1.938-0.563,3.109-0.563
		c1.219,0,2.313,0.203,3.281,0.594c0.969,0.375,1.781,0.938,2.438,1.656c0.656,0.688,1.172,1.5,1.531,2.453
		c0.344,0.953,0.516,1.953,0.516,3.047S150.031,425,149.688,425.953z M125.094,169.469h20l-4.406-5.063h4.906l4.406,5.063v4.563
		h-24.906V169.469z M125.094,194.438h4.094L140,203.75c0.531,0.469,1.016,0.813,1.469,0.984c0.438,0.203,0.938,0.297,1.531,0.297
		c0.922,0,1.688-0.25,2.25-0.781c0.563-0.5,0.859-1.234,0.859-2.219c0-0.375-0.047-0.734-0.156-1.094
		c-0.109-0.375-0.297-0.688-0.531-0.969c-0.25-0.313-0.563-0.547-0.984-0.719c-0.406-0.188-0.906-0.25-1.5-0.25v-4.563
		c1.125,0,2.156,0.219,3.031,0.578c0.906,0.391,1.688,0.922,2.313,1.609s1.094,1.5,1.438,2.406c0.313,0.938,0.484,1.922,0.484,3
		c0,1.094-0.172,2.109-0.516,3.047c-0.344,0.922-0.813,1.719-1.438,2.391c-0.609,0.656-1.375,1.188-2.281,1.563
		c-0.875,0.359-1.906,0.547-3,0.547c-0.609,0-1.156-0.047-1.625-0.172c-0.5-0.125-0.953-0.281-1.406-0.5
		c-0.438-0.234-0.875-0.5-1.281-0.844c-0.453-0.344-0.906-0.719-1.406-1.141l-8.063-6.953v9.609h-4.094V194.438z M125.297,230.375
		c0.297-0.938,0.719-1.781,1.328-2.516c0.563-0.734,1.344-1.328,2.25-1.766c0.938-0.438,2.031-0.672,3.344-0.703v4.547
		c-0.563,0.031-1.031,0.125-1.438,0.313c-0.422,0.188-0.75,0.438-1.031,0.734s-0.453,0.672-0.578,1.078s-0.203,0.828-0.203,1.25
		c0,1,0.313,1.813,0.891,2.438c0.594,0.625,1.453,0.938,2.578,0.938c1.031,0,1.875-0.297,2.5-0.906
		c0.625-0.594,0.922-1.469,0.922-2.594v-0.656h3.953v0.656c0,1.125,0.281,1.938,0.891,2.422c0.594,0.484,1.328,0.734,2.234,0.734
		c1.031,0,1.844-0.313,2.359-0.906c0.547-0.609,0.813-1.328,0.813-2.141c0-0.859-0.266-1.578-0.781-2.156
		c-0.547-0.578-1.266-0.875-2.234-0.922v-4.547c1.125,0.016,2.125,0.234,3,0.641s1.594,0.953,2.219,1.625
		c0.609,0.688,1.063,1.5,1.406,2.406c0.313,0.922,0.484,1.906,0.484,2.953c0,1.094-0.172,2.125-0.516,3.047
		c-0.359,0.938-0.844,1.75-1.469,2.406c-0.641,0.672-1.391,1.203-2.266,1.578c-0.875,0.359-1.828,0.563-2.891,0.563
		c-1.344,0-2.438-0.266-3.25-0.828c-0.797-0.531-1.406-1.219-1.844-2.031c-0.484,0.875-1.156,1.625-2.047,2.25
		c-0.906,0.641-2.109,0.953-3.625,0.953c-1.234,0-2.328-0.203-3.25-0.625c-0.953-0.422-1.703-1-2.328-1.719
		s-1.063-1.563-1.391-2.516c-0.297-0.938-0.453-1.969-0.453-3.063C124.875,232.313,125.031,231.313,125.297,230.375z
		 M137.578,266.766v4.391h-4.656v2.25h-4.297v-2.25h-3.531v-4.391h3.531v-10.172h4.297L150,265.125v4.969l-17.078-8.531v5.203
		H137.578z M125.469,293.281c0.391-0.938,0.859-1.688,1.406-2.219c0.781-0.766,1.594-1.266,2.469-1.531
		c0.906-0.25,1.797-0.406,2.703-0.484v4.547c-0.984,0.125-1.734,0.406-2.266,0.875c-0.547,0.5-0.813,1.219-0.813,2.172
		c0,0.891,0.266,1.609,0.813,2.156c0.391,0.391,0.906,0.656,1.563,0.781c0.625,0.156,1.344,0.203,2.125,0.203
		c1.469,0,2.563-0.234,3.344-0.688c0.766-0.438,1.156-1.25,1.156-2.359c0-0.922-0.219-1.625-0.656-2.063
		c-0.422-0.453-0.891-0.766-1.375-0.938v-4.172H150v14.203h-4.109v-10.063h-5.344c0.328,0.313,0.609,0.813,0.875,1.484
		c0.25,0.656,0.375,1.406,0.375,2.25c0,1.047-0.141,1.969-0.453,2.719c-0.281,0.781-0.688,1.438-1.219,1.938
		c-0.984,0.969-2.031,1.594-3.156,1.844c-1.125,0.266-2.297,0.391-3.5,0.391c-1.375,0-2.594-0.141-3.656-0.422
		c-1.031-0.281-2-0.875-2.906-1.781c-0.563-0.563-1.047-1.281-1.438-2.188c-0.391-0.891-0.594-2-0.594-3.297
		C124.875,295.328,125.078,294.219,125.469,293.281z M125.375,325.016c0.344-0.953,0.844-1.766,1.5-2.469s1.453-1.25,2.406-1.641
		c0.969-0.406,2.063-0.594,3.297-0.594c1.141,0,2.234,0.219,3.313,0.625c1.078,0.422,2.188,0.906,3.328,1.469l10.781,5.25v4.969
		l-10.281-5.188c0.094,0.313,0.188,0.625,0.219,0.938c0.063,0.313,0.094,0.625,0.094,0.922c0,0.859-0.188,1.641-0.531,2.422
		c-0.328,0.781-0.813,1.5-1.438,2.094c-0.625,0.625-1.406,1.125-2.328,1.484s-1.953,0.547-3.078,0.547
		c-1.25,0-2.344-0.219-3.313-0.594c-0.938-0.406-1.75-0.953-2.406-1.656c-0.688-0.688-1.188-1.516-1.531-2.469
		c-0.344-0.938-0.531-1.953-0.531-3.031C124.875,326.969,125.047,325.953,125.375,325.016z M141.984,356.25v-4.328H150v15.828
		h-4.109l-20.797-8.063v-4.938l20.797,8.094v-6.594H141.984z M125.375,388.172c0.313-0.984,0.797-1.813,1.438-2.531
		c0.625-0.734,1.406-1.297,2.328-1.734c0.922-0.406,1.984-0.609,3.188-0.609c0.766,0,1.453,0.094,2.031,0.297
		c0.578,0.188,1.109,0.438,1.563,0.75c0.453,0.297,0.844,0.625,1.172,1c0.313,0.359,0.594,0.719,0.844,1.063
		c0.188-0.344,0.469-0.656,0.797-0.984s0.703-0.609,1.109-0.891c0.438-0.266,0.906-0.5,1.438-0.656
		c0.531-0.172,1.156-0.266,1.813-0.266c1.094,0,2.078,0.203,2.969,0.609c0.875,0.406,1.609,0.969,2.234,1.656
		c0.609,0.688,1.078,1.516,1.422,2.438c0.313,0.922,0.484,1.906,0.484,2.938c0,1.063-0.172,2.063-0.484,2.969
		c-0.344,0.906-0.813,1.719-1.422,2.406c-0.625,0.688-1.359,1.25-2.234,1.641c-0.891,0.422-1.875,0.625-2.969,0.625
		c-0.656,0-1.281-0.078-1.813-0.266c-0.531-0.172-1-0.406-1.438-0.656c-0.406-0.281-0.781-0.594-1.109-0.906
		c-0.328-0.344-0.609-0.672-0.797-0.969c-0.25,0.344-0.531,0.703-0.844,1.063c-0.328,0.359-0.719,0.703-1.172,1.031
		c-0.453,0.313-0.984,0.563-1.563,0.75s-1.266,0.297-2.031,0.297c-1.203,0-2.266-0.203-3.188-0.625s-1.703-0.984-2.328-1.703
		c-0.641-0.734-1.125-1.578-1.438-2.531c-0.328-0.984-0.5-2.016-0.5-3.125C124.875,390.156,125.047,389.156,125.375,388.172z"/>
</g>
</svg>