<?xml version="1.0" encoding="utf-8"?>

<!DOCTYPE svg PUBLIC "-//W3C//DTD SVG 1.1//EN" "http://www.w3.org/Graphics/SVG/1.1/DTD/svg11.dtd">

<svg version="1.1" id="_x32_" xmlns="http://www.w3.org/2000/svg" xmlns:xlink="http://www.w3.org/1999/xlink" 
	 width="800px" height="800px" viewBox="0 0 512 512"  xml:space="preserve">
<style type="text/css">
<![CDATA[
	.st0{fill:#000000;}
]]>
</style>
<g>
	<path class="st0" d="M440.75,0H71.25C39.703,0,14.109,25.594,14.109,57.141v369.5c0,31.547,25.594,57.141,57.141,57.141H86.5
		l2.594,24.141c0.25,2.328,2.219,4.078,4.563,4.078h27.719c2.328,0,4.281-1.75,4.531-4.078l2.609-24.141h254.953l2.625,24.141
		c0.25,2.328,2.203,4.078,4.563,4.078h27.703c2.328,0,4.297-1.75,4.547-4.078l2.594-24.141h15.25
		c31.563,0,57.141-25.594,57.141-57.141v-369.5C497.891,25.594,472.313,0,440.75,0z M465.641,426.641
		c0,13.719-11.172,24.891-24.891,24.891H71.25c-13.719,0-24.891-11.172-24.891-24.891v-369.5c0-13.734,11.172-24.891,24.891-24.891
		h369.5c13.719,0,24.891,11.156,24.891,24.891V426.641z"/>
	<path class="st0" d="M402.344,71.656H109.672c-11.359,0-20.578,9.203-20.578,20.563v292.656c0,11.375,9.219,20.578,20.578,20.578
		h292.672c11.359,0,20.563-9.203,20.563-20.578V92.219C422.906,80.859,413.703,71.656,402.344,71.656z M406.781,120.281h-17.313
		v53.375h17.313v136.469h-17.313V363.5h17.313v21.375c0,2.469-2,4.453-4.438,4.453H109.672c-2.453,0-4.453-1.984-4.453-4.453V92.219
		c0-2.453,2-4.438,4.453-4.438h292.672c2.438,0,4.438,1.984,4.438,4.438V120.281z"/>
	<path class="st0" d="M256,137.063C198.109,137.078,151.188,184,151.188,241.891S198.109,346.703,256,346.719
		c57.906-0.016,104.813-46.938,104.813-104.828S313.906,137.078,256,137.063z M318.719,304.609
		c-16.063,16.063-38.203,25.969-62.719,25.984c-24.531-0.016-46.625-9.922-62.719-25.984
		c-16.063-16.078-25.969-38.203-25.969-62.719s9.906-46.641,25.969-62.719c16.094-16.063,38.188-25.969,62.719-25.984
		c24.516,0.016,46.656,9.922,62.719,25.984c16.063,16.078,25.969,38.203,25.969,62.719S334.781,288.531,318.719,304.609z"/>
	<path class="st0" d="M256,201.578c-22.219,0-40.313,18.078-40.313,40.313s18.094,40.313,40.313,40.313
		c22.234,0,40.313-18.078,40.313-40.313S278.234,201.578,256,201.578z"/>
	<path class="st0" d="M256,186.453c3.344,0,6.047-2.703,6.047-6.047v-13.438c0-3.344-2.703-6.047-6.047-6.047
		s-6.047,2.703-6.047,6.047v13.438C249.953,183.75,252.656,186.453,256,186.453z"/>
	<path class="st0" d="M256,297.313c-3.344,0-6.047,2.719-6.047,6.063v13.438c0,3.344,2.703,6.047,6.047,6.047
		s6.047-2.703,6.047-6.047v-13.438C262.047,300.031,259.344,297.313,256,297.313z"/>
	<path class="st0" d="M208.25,202.688c2.359,2.375,6.188,2.375,8.563,0c2.344-2.359,2.344-6.188,0-8.547l-9.5-9.5
		c-2.375-2.359-6.188-2.359-8.563,0c-2.359,2.359-2.359,6.188,0,8.547L208.25,202.688z"/>
	<path class="st0" d="M303.75,281.094c-2.344-2.375-6.188-2.375-8.563,0c-2.344,2.344-2.344,6.188,0,8.547l9.531,9.5
		c2.344,2.359,6.188,2.359,8.531,0c2.375-2.359,2.375-6.188,0-8.547L303.75,281.094z"/>
	<path class="st0" d="M200.563,241.891c0-3.328-2.688-6.047-6.047-6.047h-13.422c-3.344,0-6.063,2.719-6.063,6.047
		s2.719,6.047,6.063,6.047h13.422C197.859,247.938,200.563,245.219,200.563,241.891z"/>
	<path class="st0" d="M311.438,241.891c0,3.328,2.719,6.047,6.031,6.047h13.469c3.328,0,6.031-2.719,6.031-6.047
		s-2.703-6.047-6.031-6.047h-13.469C314.141,235.844,311.438,238.563,311.438,241.891z"/>
	<path class="st0" d="M208.25,281.094l-9.5,9.5c-2.359,2.359-2.359,6.188,0,8.547c2.375,2.359,6.188,2.359,8.563,0l9.5-9.5
		c2.375-2.359,2.344-6.203,0-8.547C214.438,278.719,210.609,278.719,208.25,281.094z"/>
	<path class="st0" d="M303.75,202.688l9.5-9.5c2.375-2.359,2.375-6.188,0-8.547c-2.344-2.359-6.188-2.359-8.531,0l-9.531,9.5
		c-2.344,2.359-2.344,6.188,0,8.547C297.563,205.063,301.406,205.063,303.75,202.688z"/>
</g>
</svg>