<?xml version="1.0" encoding="utf-8"?>

<!DOCTYPE svg PUBLIC "-//W3C//DTD SVG 1.1//EN" "http://www.w3.org/Graphics/SVG/1.1/DTD/svg11.dtd">

<svg version="1.1" id="_x32_" xmlns="http://www.w3.org/2000/svg" xmlns:xlink="http://www.w3.org/1999/xlink" 
	 width="800px" height="800px" viewBox="0 0 512 512"  xml:space="preserve">
<style type="text/css">
<![CDATA[
	.st0{fill:#000000;}
]]>
</style>
<g>
	<path class="st0" d="M265.652,188.549c-3.219,0-5.609,1-7.734,3.281c-2.297,2.438-3.469,5.281-3.469,8.469v79.594
		c0,7.203,0.391,11.891,1.797,16.234c1.047,3.25,3.516,5.813,7.531,5.813c3.953,0,6.859-1.766,8.359-5.203
		c1.875-4.344,2.359-9.484,2.359-15.719v-80.719c0-3.313-0.531-6.203-2.359-8.719C270.621,189.518,268.339,188.549,265.652,188.549z
		"/>
	<path class="st0" d="M347.652,188.549c-3.219,0-5.609,1-7.734,3.281c-2.297,2.438-3.469,5.281-3.469,8.469v79.594
		c0,7.203,0.703,13.063,2.109,17.406c1.047,3.266,3.203,4.641,7.219,4.641c3.953,0,6.391-1.531,7.875-4.969
		c1.891-4.359,2.844-9.719,2.844-15.953v-80.719c0-3.313-0.922-6.266-2.766-8.766C352.23,189.456,350.355,188.549,347.652,188.549z"
		/>
	<path class="st0" d="M507.323,91.987c-3.734-1.422-7.891,0.469-9.297,4.203c-2.031,5.406-4.313,9.813-6.703,13.375
		c-2.094,3.078-4.234,5.484-6.375,7.391c0-0.203,0-0.422,0-0.625c0-5.391-0.734-10.172-2.109-14.391
		c-2.047-6.313-5.672-11.328-10.203-14.578c-4.516-3.281-9.766-4.781-14.813-4.766c-5.531,0-10.891,1.719-15.328,4.984
		c-2.188,1.625-4.156,3.641-5.719,6.031c-1.547,2.391-2.688,5.156-3.219,8.141c-0.266,1.375-0.375,2.766-0.375,4.141
		c0,4.391,1.203,8.578,3.188,12.328c2.969,5.625,7.641,10.375,13.313,13.844c3.328,2.016,7.016,3.563,10.969,4.547
		c-0.234,0.188-0.453,0.391-0.703,0.594c-5.969,4.922-14.203,9.063-22.906,11.906c-52.703-72.813-169.437-97.609-267.906-42.766
		c-11.203,6.234-21.234,12.719-30.375,19.203c-24.719-29.734-86.891-34.719-78.875-11.578c7.25,20.953,17.922,43.938,22.891,57.547
		c-18.688,15.75-35.969,27.953-58.672,32.188c-20.734,3.859-26.906,9.359-23,29.609l8.578,67.844c0,0,24.172,13.969,32.734,18.703
		c18.906,10.469,56.125,33.25,111.109,50.188l20.844,65.375h52.156v-49.265c20.844,2.891,43.25,4.594,67.281,4.594
		c12.469,0,24.203-0.844,35.219-2.422v47.093h52.172l24.219-75.984c57.687-40.734,71.906-113.672,51.531-172.25
		c-3.141-9.016-7.109-17.563-11.813-25.625c7.781-2.844,15.234-6.609,21.656-11.391c4.781-3.563,9-7.734,12.219-12.625
		c0.313-0.469,0.609-0.969,0.906-1.484c0.5-0.141,1.016-0.281,1.516-0.453c6.031-2.141,11.859-6.016,16.969-11.703
		c5.125-5.688,9.563-13.156,13.125-22.625C512.948,97.549,511.058,93.377,507.323,91.987z M216.089,282.737
		c-0.484,5.047-1.516,9.844-3.063,14.25c-1.672,4.781-5.438,9.328-11.188,13.5c-5.953,4.313-13.188,6.516-21.484,6.516
		c-8.594,0-16.125-2.25-22.375-6.672c-6.375-4.484-9.625-10.188-9.625-16.938v-21.094h22.109c0,0,0.016,5.109,0,6.063
		c-0.078,2-0.125,3.516-0.125,4.391c0,3.141,0.141,5.891,0.438,8.188c0.25,1.891,1.359,3.953,3.297,6.109
		c1.656,1.828,3.734,2.641,6.75,2.641c3.203,0,5.219-0.797,6.563-2.609c1.734-2.328,2.938-6.75,3.594-13.125
		c0.688-6.734,1.047-13.578,1.047-20.359c0-5.469-0.203-7.266-0.641-10.828c0,0-1.359-10.594-2.719-15.047
		c-1.047-3.469-3.828-5.813-8.313-6.016c-0.281,0-4.031,0.156-6.063,1.422c-2.422,1.5-4.219,3.578-5.344,5.547h-21.281v-63.688
		h63.516l-6.313,18.031H171.98v22.891c0.469-0.188,8.578-2.734,11.609-2.734c4.906,0,8.297,0.625,11.703,1.359
		c4.703,0.984,8.219,3.141,12.047,7.625c3.594,4.188,6.031,10.875,7.453,20.453c1.375,9.297,2.016,14.734,2.016,24.359
		C216.808,272.534,216.574,277.831,216.089,282.737z M298.121,289.815c0,7.75-3.391,14.578-10.063,20.313
		c-6.75,5.781-15,8.734-24.531,8.734c-9.344,0-17.156-3.172-23.203-9.406c-5.828-6.016-8.781-12.984-8.781-20.766v-91.203
		c0-7.359,3.547-13.656,10.516-18.719c6.875-5,15.125-7.516,24.531-7.516c8.766,0,16.313,2.75,22.453,8.203
		c6.016,5.359,9.078,11.672,9.078,18.781V289.815z M380.121,289.815c0,7.75-3.391,14.578-10.063,20.313
		c-6.75,5.781-15,8.734-24.516,8.734c-9.359,0-17.172-3.172-23.219-9.406c-5.828-6.016-8.781-12.984-8.781-20.766v-91.203
		c0-7.359,3.547-13.656,10.516-18.719c6.875-5,15.141-7.516,24.531-7.516c8.766,0,16.313,2.75,22.453,8.203
		c6.016,5.359,9.078,11.672,9.078,18.781V289.815z M470.386,119.893c-0.094,1.141-0.266,2.25-0.547,3.328
		c-0.141,0-0.281,0.016-0.422,0.016c-2.906,0-5.766-0.578-8.422-1.625c-4-1.547-7.516-4.188-9.875-7.125
		c-1.188-1.484-2.078-3-2.672-4.469c-0.578-1.469-0.828-2.859-0.828-4.125c0-0.531,0.031-1.047,0.125-1.547
		c0.203-1.078,0.578-2,1.141-2.859c0.828-1.266,2.078-2.391,3.656-3.203c1.578-0.797,3.438-1.25,5.281-1.25
		c1.5,0,2.969,0.281,4.344,0.875c1.031,0.453,2.016,1.063,2.938,1.906c1.391,1.266,2.672,3.047,3.703,5.703
		c1,2.656,1.703,6.203,1.703,10.813C470.511,117.456,470.464,118.643,470.386,119.893z"/>
</g>
</svg>