<?xml version="1.0" encoding="utf-8"?>

<!DOCTYPE svg PUBLIC "-//W3C//DTD SVG 1.1//EN" "http://www.w3.org/Graphics/SVG/1.1/DTD/svg11.dtd">

<svg height="800px" width="800px" version="1.1" id="_x32_" xmlns="http://www.w3.org/2000/svg" xmlns:xlink="http://www.w3.org/1999/xlink" 
	 viewBox="0 0 512 512"  xml:space="preserve">
<style type="text/css">
	.st0{fill:#000000;}
</style>
<g>
	<path class="st0" d="M419.404,338.694h-92.11c23.703-1.648,42.481-21.464,42.481-45.568v-56.795c0-2.695-0.24-5.358-0.688-7.966
		l70.775-20.36c22.599-6.494,36.498-28.838,32.324-51.981c-2.495-13.884-6.493-27.414-11.9-40.226
		c-14.363-33.908-38.082-62.729-68.567-83.314C360.321,11.236,323.615,0,285.548,0c-25.59,0-50.462,5.039-73.877,14.955
		c-33.908,14.363-62.729,38.082-83.346,68.583c-21.241,31.412-32.468,68.112-32.452,106.146v0.968h-11.1
		c-25.19,0-45.695,20.488-45.695,45.68v56.795c0,25.191,20.505,45.68,45.695,45.68h3.886c-23.703,1.647-42.481,21.464-42.481,45.576
		v81.93c0,25.19,20.489,45.688,45.696,45.688h327.53c25.191,0,45.679-20.497,45.679-45.688v-81.93
		C465.083,359.182,444.595,338.694,419.404,338.694z M411.791,458.699H99.487v-66.912c4.175-0.2,8.813-0.52,11.036-1.032
		c3.086-0.752,5.87-1.759,8.508-3.135c5.039-2.614,9.229-6.214,13.228-11.34c2.687-3.486,5.102-7.517,7.23-12.019
		c2.735-5.758,5.054-12.548,6.686-19.633c1.919-8.189,3.007-17.37,2.99-25.159v-26.342c0-4.214-3.406-7.613-7.613-7.613H92.385
		v-41.569h49.166c4.207,0,7.613-3.399,7.613-7.613v-46.647c-0.016-27.358,8.045-53.733,23.304-76.269
		c14.843-21.976,35.587-39.058,59.978-49.382c16.826-7.126,34.692-10.741,53.101-10.741c27.383,0,53.757,8.061,76.277,23.32
		c21.96,14.842,39.041,35.587,49.374,59.978c2.991,7.07,5.39,14.491,7.149,22.144l-67.384,19.394
		c-1.584-9.149-5.022-17.706-10.3-25.544c-7.262-10.764-17.386-19.097-29.27-24.119c-8.157-3.438-16.858-5.198-25.831-5.214
		c-13.5,0.016-25.991,3.823-37.122,11.324c-10.764,7.261-19.098,17.378-24.119,29.262c-3.44,8.164-5.198,16.865-5.198,25.838v46.656
		c0,4.214,3.406,7.613,7.613,7.613h89.728v41.569h-89.728c-4.207,0-7.613,3.399-7.613,7.613v26.359
		c0,30.637-17.242,54.197-24.087,58.403c-2.911,1.784-4.271,5.278-3.343,8.565c0.911,3.279,3.918,5.542,7.325,5.542h212.772V458.699
		z"/>
</g>
</svg>