<?xml version="1.0" encoding="utf-8"?>

<!DOCTYPE svg PUBLIC "-//W3C//DTD SVG 1.1//EN" "http://www.w3.org/Graphics/SVG/1.1/DTD/svg11.dtd">

<svg version="1.1" id="_x32_" xmlns="http://www.w3.org/2000/svg" xmlns:xlink="http://www.w3.org/1999/xlink" 
	 width="800px" height="800px" viewBox="0 0 512 512"  xml:space="preserve">
<style type="text/css">
<![CDATA[
	.st0{fill:#000000;}
]]>
</style>
<g>
	<path class="st0" d="M230.781,256c0-63.719-51.672-115.375-115.406-115.375C51.656,140.625,0,192.281,0,256
		c0,63.734,51.656,115.391,115.375,115.391C179.109,371.391,230.781,319.734,230.781,256z M161.25,246.531h-31.594l-3.406,5.281
		v12.656h35v0.047v15.359v2.563h-35v27.094h-21.734v-27.094H69.531v-2.563v-15.359v-0.047h34.984v-12.625l-3.391-5.313H69.531
		v-15.313H91.25l-18.469-28.75h18.406l24.188,37.625l24.203-37.625H158l-18.469,28.75h21.719V246.531z"/>
	<path class="st0" d="M155.938,121.703c27.281-21.391,61.531-34.141,98.906-34.141c0.469,0,0.938,0.031,1.406,0.031L244.203,124
		l119.828-29.281l-82.453-83.688L266.875,55.5c-3.984-0.25-8-0.406-12.031-0.406c-53.219,0-101.563,21.625-136.406,56.5
		c-1.25,1.25-2.438,2.531-3.625,3.813c0.188,0,0.375-0.031,0.563-0.031C129.531,115.375,143.156,117.594,155.938,121.703z"/>
	<path class="st0" d="M356.063,390.313c-27.281,21.375-61.531,34.125-98.906,34.156c-0.469,0-0.938-0.063-1.406-0.063L267.797,388
		l-119.828,29.281l82.453,83.688l14.703-44.469c3.984,0.25,8,0.406,12.031,0.406c53.219,0,101.563-21.625,136.406-56.5
		c1.25-1.234,2.438-2.531,3.625-3.781c-0.188,0-0.375,0-0.563,0C382.469,396.625,368.844,394.406,356.063,390.313z"/>
	<path class="st0" d="M404.156,247.906l-11.281-0.953c-4.031-0.422-6.906-1.375-8.594-2.859c-1.719-1.484-2.547-3.594-2.547-6.375
		c0-3.063,1.188-5.563,3.578-7.469c2.375-1.906,6.063-2.875,11.063-2.875c3.813,0,7.438,0.469,10.891,1.375s7.453,3.75,7.453,3.75
		c0.906,0.469,2.031,0.281,2.75-0.438l6.75-6.875c0.5-0.531,0.75-1.281,0.641-2c-0.109-0.75-0.563-1.406-1.219-1.75
		c0,0-5.297-4.125-10.328-5.5c-2.969-0.813-6.172-1.344-9.531-1.688v-10.156h-14.344v10.375c-1.625,0.25-3.25,0.563-4.766,1
		c-3.656,1.047-6.859,2.656-9.625,4.75c-2.766,2.125-4.922,4.719-6.516,7.813c-1.594,3.063-2.406,6.563-2.406,10.5
		c0,7.094,2.063,12.406,6.219,15.906c4.125,3.5,10.031,5.625,17.656,6.359l12.875,1.109c3.938,0.438,6.719,1.438,8.359,3.031
		c1.656,1.594,2.484,3.75,2.484,6.531c0,3.813-1.688,6.609-5.031,8.438c-3.344,1.781-7.547,2.688-12.641,2.688
		c-4.047,0-8.078-0.563-12.172-1.656c-4.078-1.125-9.469-5.813-9.469-5.813c-0.938-0.563-2.125-0.406-2.906,0.344l-7.188,7.219
		c-0.531,0.5-0.781,1.219-0.688,1.953c0.094,0.719,0.5,1.359,1.141,1.734c0,0,7.359,6.219,12.984,7.75
		c3.688,1.016,7.594,1.656,11.688,2v11.781h14.344v-12.031c1.938-0.25,3.813-0.563,5.625-1.031
		c4.141-1.063,7.688-2.688,10.656-4.844c2.969-2.188,5.313-4.844,7-8.031c1.703-3.188,2.563-6.906,2.563-11.156
		c0-7.094-2.156-12.5-6.469-16.219C418.875,250.875,412.531,248.656,404.156,247.906z"/>
	<path class="st0" d="M396.625,140.625c-63.75,0-115.406,51.656-115.406,115.375c0,63.734,51.656,115.391,115.406,115.391
		C460.344,371.391,512,319.734,512,256C512,192.281,460.344,140.625,396.625,140.625z M396.625,342.531
		c-47.719,0-86.547-38.813-86.547-86.531s38.828-86.531,86.547-86.531c47.703,0,86.531,38.813,86.531,86.531
		S444.328,342.531,396.625,342.531z"/>
</g>
</svg>