<?xml version="1.0" encoding="utf-8"?>

<!DOCTYPE svg PUBLIC "-//W3C//DTD SVG 1.1//EN" "http://www.w3.org/Graphics/SVG/1.1/DTD/svg11.dtd">

<svg version="1.1" id="_x32_" xmlns="http://www.w3.org/2000/svg" xmlns:xlink="http://www.w3.org/1999/xlink" 
	 width="800px" height="800px" viewBox="0 0 512 512"  xml:space="preserve">
<style type="text/css">
<![CDATA[
	.st0{fill:#000000;}
]]>
</style>
<g>
	<path class="st0" d="M235.563,297v11.594H246V297h9.453v11.594h10.438v-11.688c3.875-0.188,8.016-0.797,11.297-1.813
		c4.188-1.25,6.625-3,9.484-5.25c2.859-2.234,5.031-4.906,6.531-8c1.484-3.094,2.234-6.469,2.234-10.094
		c0-10.125-5.719-17.031-17.984-19.156c4.016-1.563,8.516-6.094,9.859-7.703s2.328-3.328,2.969-5.172s0.969-3.781,0.969-5.813
		c0-3.516-0.656-6.688-1.922-9.5c-1.281-2.813-3.375-5.125-6.047-7.188c-4.781-3.719-11.75-5.5-17.391-5.969v-12.094h-10.438v11.922
		L246,211.063v-11.906h-10.438v11.875h-8.297h-10.703v9.469c0,2.063-0.156,3.313,1.969,3.719c0.188,0.047,0.469,0.094,0.813,0.156
		c0.344,0.047,4.531,0.188,5.453,0.313c1.422,0.188,2.469,0.953,2.469,2.906v51.469c0,1.594-0.781,3.188-2.469,3.188
		c-0.938,0-5.109,0.25-5.453,0.313s-0.625,0.109-0.813,0.125c-2.125,0.438-1.969,1.688-1.969,3.734V297h10.703H235.563z
		 M270.906,271.5c0,1.375-0.234,2.672-0.672,3.891c-0.453,1.234-1.172,2.297-2.172,3.203c-1,0.922-2.328,1.656-3.984,2.203
		s-3.719,0.828-6.172,0.828h-10.969v-19.406h10.922c2.328,0,4.297,0.219,5.953,0.625c1.625,0.438,2.984,1.063,4.031,1.859
		c1.063,0.813,1.813,1.797,2.313,2.922C270.656,268.781,270.906,270.063,270.906,271.5z M246.563,226.25h8.469
		c4.469,0,7.75,0.75,9.844,2.203s3.156,3.922,3.156,7.359c0,3.344-1.172,5.75-3.5,7.281s-5.75,2.281-10.234,2.281h-7.734V226.25z"/>
	<path class="st0" d="M0,116v280h512v-8V116H0z M496,380H16V132h480V380z"/>
	<path class="st0" d="M80.578,357.281h350.844c4.984-20.375,21.453-36.219,42.172-40.234V194.953
		c-20.719-4.031-37.188-19.875-42.172-40.234H80.578c-4.984,20.359-21.453,36.203-42.172,40.234v122.094
		C59.125,321.063,75.594,336.906,80.578,357.281z M400.344,235.984c11.031,0,20,8.953,20,20s-8.969,20-20,20
		c-11.063,0-20-8.953-20-20S389.281,235.984,400.344,235.984z M256,171.656c46.594,0,84.344,37.766,84.344,84.328
		c0,46.594-37.75,84.359-84.344,84.359c-46.563,0-84.344-37.766-84.344-84.359C171.656,209.422,209.438,171.656,256,171.656z
		 M111.656,235.984c11.063,0,20,8.953,20,20s-8.938,20-20,20c-11.031,0-20-8.953-20-20S100.625,235.984,111.656,235.984z"/>
</g>
</svg>