<?xml version="1.0" encoding="utf-8"?>

<!DOCTYPE svg PUBLIC "-//W3C//DTD SVG 1.1//EN" "http://www.w3.org/Graphics/SVG/1.1/DTD/svg11.dtd">

<svg version="1.1" id="_x32_" xmlns="http://www.w3.org/2000/svg" xmlns:xlink="http://www.w3.org/1999/xlink" 
	 width="800px" height="800px" viewBox="0 0 512 512"  xml:space="preserve">
<style type="text/css">
<![CDATA[
	.st0{fill:#000000;}
]]>
</style>
<g>
	<path class="st0" d="M206.893,127.063c0-6.203-5.031-11.234-11.25-11.234c-6.203,0-11.234,5.031-11.234,11.234
		c0,6.219,5.031,11.25,11.234,11.25C201.862,138.313,206.893,133.281,206.893,127.063z"/>
	<path class="st0" d="M409.69,115.828c-6.219,0-11.25,5.031-11.25,11.234c0,6.219,5.031,11.25,11.25,11.25
		c6.203,0,11.234-5.031,11.234-11.25C420.924,120.859,415.893,115.828,409.69,115.828z"/>
	<path class="st0" d="M315.127,138.719c-1.094-0.813-2.5-1.469-4.203-1.906c-1.719-0.453-3.781-0.688-6.219-0.688h-11.375v20.25
		h11.438c2.547,0,4.719-0.297,6.438-0.875c1.734-0.563,3.109-1.344,4.156-2.281c1.031-0.969,1.797-2.078,2.25-3.344
		c0.469-1.281,0.703-2.625,0.703-4.063c0-1.484-0.266-2.844-0.781-4.031C317.034,140.594,316.221,139.578,315.127,138.719z"/>
	<path class="st0" d="M311.674,116.219c2.422-1.609,3.641-4.125,3.641-7.594c0-3.594-1.094-6.156-3.266-7.688
		c-2.203-1.531-5.641-2.281-10.281-2.281h-8.828v19.938h8.063C305.69,118.594,309.252,117.797,311.674,116.219z"/>
	<path class="st0" d="M174.237,154.406c-12.641-4.141-26.219,2.75-30.359,15.391l-44.203,94.766H71.518V95.625l-27.234,18.156
		c-5.469,3.656-9.625,8.984-11.797,15.188L3.409,245.75c-5.469,15.625-4.328,32.813,3.188,47.594l48.141,94.625
		c5.813,11.438,7.063,24.656,3.5,36.969l-20.781,71.188h108.938c0,0,19.563-117.094,27.375-149.813
		c10.688-44.797,13.969-69.875,3.641-108.219l12.234-53.344C193.768,172.125,186.877,158.531,174.237,154.406z"/>
	<path class="st0" d="M93.346,15.875v215.844l26.688-57.234c-0.172-0.031-0.344-0.109-0.531-0.141V79.781
		c18.781-3.188,33.406-18.563,35.313-37.75h108.703c-24.547,16.656-41.141,48.438-41.141,85.031s16.594,68.391,41.125,85.063h-60
		l-6,26.156h314.5V15.875H93.346z M334.752,164.938c-2.969,2.344-5.516,4.156-9.875,5.469c-3.438,1.063-7.75,1.688-11.781,1.906
		V184.5h-10.875v-12.094h-9.875V184.5h-10.891v-12.094h-8.625h-11.172v-11.031c0-2.141-0.156-3.438,2.078-3.875
		c0.188-0.063,0.469-0.094,0.828-0.156s4.703-0.328,5.688-0.328c1.766,0,2.578-1.641,2.578-3.328v-53.656
		c0-2.031-1.094-2.813-2.578-3.031c-0.969-0.125-5.328-0.281-5.688-0.313c-0.359-0.078-0.656-0.125-0.828-0.156
		c-2.234-0.438-2.078-1.75-2.078-3.875v-9.875h11.172h8.625V70.406h10.891v12.406l9.875,0.016V70.406h10.875V83
		c5.875,0.5,13.125,2.344,18.125,6.219c2.797,2.156,4.969,4.563,6.297,7.5c1.344,2.938,2,6.219,2,9.906c0,2.125-0.328,4.125-1,6.063
		c-0.656,1.906-1.688,3.719-3.094,5.391s-6.094,6.391-10.281,8.016c12.781,2.219,18.75,9.438,18.75,19.969
		c0,3.813-0.766,7.313-2.328,10.531S337.737,162.594,334.752,164.938z M485.83,174.359c-18.781,3.172-33.422,18.578-35.344,37.766
		H341.831c24.531-16.672,41.125-48.469,41.125-85.063s-16.594-68.375-41.141-85.031h108.671
		c1.922,19.188,16.563,34.563,35.344,37.734V174.359z"/>
</g>
</svg>