<?xml version="1.0" encoding="utf-8"?>

<!DOCTYPE svg PUBLIC "-//W3C//DTD SVG 1.1//EN" "http://www.w3.org/Graphics/SVG/1.1/DTD/svg11.dtd">

<svg version="1.1" id="_x32_" xmlns="http://www.w3.org/2000/svg" xmlns:xlink="http://www.w3.org/1999/xlink" 
	 width="800px" height="800px" viewBox="0 0 512 512"  xml:space="preserve">
<style type="text/css">
<![CDATA[
	.st0{fill:#000000;}
]]>
</style>
<g>
	<path class="st0" d="M497.063,303.594H377.859c-11.125,0-21.063,4.469-28.359,11.75c-7.281,7.281-11.75,17.25-11.75,28.359
		s4.469,21.063,11.75,28.359c7.297,7.281,17.234,11.734,28.359,11.75h119.203c5.156,0,9.328-4.188,9.328-9.344v-61.547
		C506.391,307.781,502.219,303.594,497.063,303.594z M378.547,357.063c-7.391,0-13.359-5.969-13.359-13.359
		s5.969-13.359,13.359-13.359c7.375,0,13.375,5.969,13.375,13.359S385.922,357.063,378.547,357.063z"/>
	<path class="st0" d="M229.984,84.188c-7.203,0-13.063,5.844-13.063,13.063s5.859,13.063,13.063,13.063
		c7.219,0,13.078-5.844,13.078-13.063S237.203,84.188,229.984,84.188z"/>
	<path class="st0" d="M384.031,49.469V107.5h44.703C428.328,79.797,409.547,56.594,384.031,49.469z"/>
	<path class="st0" d="M313.078,343.703c0-35.781,29-64.781,64.781-64.797h107.031v-76.984c0-32.078-24.719-58.359-56.125-60.938
		v-0.25h-69.563V0h-258.5v140.734H81.922c-9.188,0-16.625-7.438-16.625-16.609c0-7.438,4.891-13.656,11.609-15.781V50.906
		C37.156,62.125,7.703,97.813,5.828,140.734H5.609v4.328v71.219v197.813C5.609,468.172,49.438,512,103.5,512h320.203
		c33.781,0,61.188-27.406,61.188-61.188v-42.328H377.859C342.078,408.469,313.078,379.484,313.078,343.703z M460.203,259.719
		c0,4.531-3.672,8.219-8.219,8.219s-8.234-3.688-8.234-8.219v-12.344c0-4.547,3.688-8.219,8.234-8.219s8.219,3.672,8.219,8.219
		V259.719z M430.969,183.344c2.313-3.906,7.375-5.188,11.266-2.875c8.984,5.359,15.469,14.391,17.391,24.984
		c0.797,4.484-2.172,8.75-6.641,9.563c-4.469,0.797-8.734-2.172-9.563-6.641c-1-5.75-4.641-10.813-9.578-13.75
		C429.938,192.313,428.641,187.25,430.969,183.344z M365.734,175.359h24.328c4.547,0,8.234,3.672,8.234,8.234
		c0,4.531-3.688,8.219-8.234,8.219h-24.328c-4.547,0-8.234-3.688-8.234-8.219C357.5,179.031,361.188,175.359,365.734,175.359z
		 M131.156,71.5c22.281-2.234,40.141-19.266,43.844-41.063h109.906c3.703,21.797,21.641,38.828,43.922,41.063v69.234H131.156V71.5z
		 M76.891,472.75c-1.219,4.375-5.766,6.922-10.125,5.688c-8.813-2.469-16.953-6.531-24.078-11.875
		c-3.641-2.734-4.391-7.891-1.656-11.531c2.719-3.625,7.875-4.375,11.516-1.656c5.531,4.156,11.828,7.313,18.641,9.219
		C75.578,463.828,78.125,468.375,76.891,472.75z M98,191.813H73.656c-4.547,0-8.234-3.688-8.234-8.219
		c0-4.563,3.688-8.234,8.234-8.234H98c4.531,0,8.219,3.672,8.219,8.234C106.219,188.125,102.531,191.813,98,191.813z
		 M140.641,481.156h-23.953c-4.547,0-8.234-3.688-8.234-8.234s3.688-8.234,8.234-8.234h23.953c4.547,0,8.219,3.688,8.219,8.234
		S145.188,481.156,140.641,481.156z M171,191.813h-24.344c-4.531,0-8.219-3.688-8.219-8.219c0-4.563,3.688-8.234,8.219-8.234H171
		c4.547,0,8.234,3.672,8.234,8.234C179.234,188.125,175.547,191.813,171,191.813z M212.516,481.156h-23.953
		c-4.547,0-8.219-3.688-8.219-8.234s3.672-8.234,8.219-8.234h23.953c4.547,0,8.234,3.688,8.234,8.234
		S217.063,481.156,212.516,481.156z M244.031,191.813h-24.344c-4.547,0-8.219-3.688-8.219-8.219c0-4.563,3.672-8.234,8.219-8.234
		h24.344c4.547,0,8.234,3.672,8.234,8.234C252.266,188.125,248.578,191.813,244.031,191.813z M284.406,481.156h-23.953
		c-4.547,0-8.234-3.688-8.234-8.234s3.688-8.234,8.234-8.234h23.953c4.547,0,8.234,3.688,8.234,8.234
		S288.953,481.156,284.406,481.156z M284.484,183.594c0-4.563,3.688-8.234,8.234-8.234h24.344c4.531,0,8.219,3.672,8.219,8.234
		c0,4.531-3.688,8.219-8.219,8.219h-24.344C288.172,191.813,284.484,188.125,284.484,183.594z M356.297,481.156h-23.953
		c-4.547,0-8.234-3.688-8.234-8.234s3.688-8.234,8.234-8.234h23.953c4.547,0,8.219,3.688,8.219,8.234
		S360.844,481.156,356.297,481.156z M443.75,424.25c0-4.547,3.688-8.219,8.234-8.219s8.219,3.672,8.219,8.219v12.344
		c0,4.531-3.672,8.219-8.219,8.219s-8.234-3.688-8.234-8.219V424.25z M404.219,464.688h19.484c1.078,0,2.125-0.078,3.156-0.25
		c4.484-0.703,8.719,2.344,9.422,6.828c0.719,4.484-2.328,8.703-6.813,9.422c-1.891,0.313-3.828,0.469-5.766,0.469h-19.484
		c-4.547,0-8.234-3.688-8.234-8.234S399.672,464.688,404.219,464.688z"/>
</g>
</svg>