<?xml version="1.0" encoding="utf-8"?>

<!DOCTYPE svg PUBLIC "-//W3C//DTD SVG 1.1//EN" "http://www.w3.org/Graphics/SVG/1.1/DTD/svg11.dtd">

<svg height="800px" width="800px" version="1.1" id="_x32_" xmlns="http://www.w3.org/2000/svg" xmlns:xlink="http://www.w3.org/1999/xlink" 
	 viewBox="0 0 512 512"  xml:space="preserve">
<style type="text/css">
	.st0{fill:#000000;}
</style>
<g>
	<path class="st0" d="M228.31,77.506c21.358-1.961,37.07-20.901,35.093-42.259c-1.994-21.342-20.917-37.063-42.268-35.077
		c-21.358,1.986-37.054,20.893-35.076,42.259C188.045,63.778,206.968,79.498,228.31,77.506z"/>
	<path class="st0" d="M368.479,388.205c7.133,6.194,17.918,5.605,24.341-1.332l0.458-0.482c6.406-6.928,6.185-17.682-0.499-24.341
		l-45.045-50.028l-16.48-55.888c-0.752,1.34-1.536,2.663-2.402,3.922c-8.481,12.191-21.841,19.994-36.646,21.359l-6.822,0.474
		l17.387,41.997c4.118,6.848,9.224,13.032,15.14,18.409L368.479,388.205z"/>
	<path class="st0" d="M214.419,351.568c9.168-2.255,14.977-11.275,13.253-20.541l-11.128-59.76l73.455-5.099
		c10.532-0.744,20.19-6.21,26.228-14.904c6.03-8.677,7.794-19.609,4.804-29.766l-2.754-9.355l-22.968-83.668l39.374,2.132
		l31.474,30.322c-1.52,1.846-2.28,4.281-1.668,6.798l2.566,10.401l-18.294,4.51c-4.339,1.07-6.978,5.45-5.908,9.78l12.322,50.005
		c1.078,4.322,5.449,6.97,9.772,5.915l77.671-19.152c4.339-1.078,6.962-5.458,5.9-9.789l-12.338-49.988
		c-1.063-4.33-5.434-6.986-9.764-5.915l-18.302,4.51l-2.574-10.41c-1.046-4.232-5.311-6.798-9.543-5.76l-1.92,0.474
		c-0.434-1.773-1.218-3.489-2.395-5.025l-30.779-40.363c-3.325-4.347-8.048-7.419-13.384-8.662l-50.626-18.122
		c-18.131-6.504-38.328-3.333-53.6,8.4l-70.244,53.894l-45.56-16.431c-7.142-3.178-15.484-0.123-18.891,6.879l-0.474,0.956
		c-1.683,3.489-1.928,7.476-0.662,11.12c1.275,3.652,3.955,6.642,7.436,8.309l54.916,26.213c6.83,3.268,14.781,3.235,21.595-0.082
		l29.268-19.463l20.091,57.587l-48.591,4.249c-8.187,0.744-15.622,5.099-20.247,11.881c-4.641,6.79-5.982,15.296-3.693,23.189
		l24.152,82.606c2.68,9.143,12.084,14.568,21.342,12.289L214.419,351.568z M397.819,159.212l0.351,0.204l2.574,10.402l-26.318,6.488
		l-2.483-10.083c4.885,4.004,11.856,4.306,16.929,0.392l0.295-0.238c2.124-1.634,3.611-3.783,4.461-6.136L397.819,159.212z"/>
	<polygon class="st0" points="239.266,387.895 212.245,371.586 212.245,512 299.754,512 299.754,364.07 289.467,358.611 	"/>
	<polygon class="st0" points="316.488,512 403.988,512 403.988,419.377 316.488,372.951 	"/>
	<polygon class="st0" points="420.722,428.258 420.722,512 494.455,512 494.455,467.38 	"/>
	<polygon class="st0" points="108.011,512 195.512,512 195.512,361.479 108.011,308.647 	"/>
	<polygon class="st0" points="17.545,512 91.278,512 91.278,298.54 17.545,254.026 	"/>
</g>
</svg>