<?xml version="1.0" encoding="utf-8"?>

<!DOCTYPE svg PUBLIC "-//W3C//DTD SVG 1.1//EN" "http://www.w3.org/Graphics/SVG/1.1/DTD/svg11.dtd">

<svg version="1.1" id="_x32_" xmlns="http://www.w3.org/2000/svg" xmlns:xlink="http://www.w3.org/1999/xlink" 
	 viewBox="0 0 512 512"  xml:space="preserve">
<style type="text/css">
	.st0{fill:#000000;}
</style>
<g>
	<path class="st0" d="M427.406,318.495c-13.594,11.316-82.292,56.679-82.292,56.679H232.168l-0.36,0.18
		c-5.95-0.206-10.597-5.188-10.418-11.137c0.214-5.942,5.222-10.607,11.128-10.402h82.865c16.702,0,30.253-13.731,30.253-30.433
		c0-16.727-13.551-30.27-30.253-30.27c-15.134,0-45.37,0-121.01,0c-75.649,0-91.374,31.785-104.523,53.606v125.008l141.718,14.613
		c53.323,2.919,78.893,0,116.885-32.136c0,0,113.434-82.891,127.096-94.242c12.978-11.916,12.84-29.217,0.908-42.229
		C464.524,304.721,442.284,307.487,427.406,318.495z"/>
	<rect y="317.229" class="st0" width="65.744" height="159.978"/>
	<path class="st0" d="M193.688,206.679h251.728c3.578-14.622,15.392-25.99,30.27-28.875V90.206
		c-14.878-2.894-26.691-14.262-30.27-28.875H193.688c-3.578,14.613-15.392,25.981-30.261,28.875v87.598
		C178.296,180.689,190.11,192.058,193.688,206.679z M423.125,119.645c7.91,0,14.348,6.429,14.348,14.347
		c0,7.936-6.438,14.356-14.348,14.356c-7.944,0-14.347-6.42-14.347-14.356C408.778,126.074,415.182,119.645,423.125,119.645z
		 M319.562,73.487c33.42,0,60.505,27.095,60.505,60.506c0,33.436-27.085,60.531-60.505,60.531s-60.522-27.094-60.522-60.531
		C259.039,100.581,286.142,73.487,319.562,73.487z M215.98,119.645c7.944,0,14.356,6.429,14.356,14.347
		c0,7.936-6.412,14.356-14.356,14.356c-7.91,0-14.347-6.42-14.347-14.356C201.633,126.074,208.07,119.645,215.98,119.645z"/>
	<path class="st0" d="M127.106,24.787v8.766v209.67H512v-14.51V24.787H127.106z M491.763,222.978H147.351V45.032h344.412V222.978z"
		/>
	<path class="st0" d="M302.86,167.746c3.262,0.89,6.72,1.455,10.324,1.755v10.444h12.712v-10.65
		c1.712-0.223,3.373-0.505,4.992-0.924c3.646-0.942,6.78-2.363,9.425-4.298c2.619-1.926,4.674-4.28,6.18-7.105
		c1.498-2.816,2.261-6.087,2.261-9.853c0-6.283-1.9-11.061-5.701-14.356c-3.81-3.296-9.417-5.248-16.822-5.898l-9.982-0.856
		c-3.586-0.36-6.112-1.224-7.618-2.542c-1.498-1.31-2.251-3.193-2.251-5.624c0-2.722,1.062-4.913,3.167-6.617
		c2.106-1.687,5.376-2.542,9.784-2.542c3.39,0,6.583,0.419,9.639,1.198c3.056,0.805,6.6,3.322,6.6,3.322
		c0.804,0.42,1.789,0.248,2.422-0.394l5.976-6.061c0.453-0.471,0.684-1.13,0.582-1.789c-0.104-0.65-0.506-1.224-1.079-1.532
		c0,0-4.699-3.646-9.16-4.88c-2.619-0.719-5.436-1.189-8.415-1.48v-8.997h-12.712v9.177c-1.421,0.248-2.842,0.488-4.204,0.891
		c-3.235,0.941-6.077,2.345-8.517,4.211c-2.432,1.884-4.366,4.178-5.778,6.908c-1.404,2.722-2.106,5.83-2.106,9.288
		c0,6.283,1.831,10.982,5.486,14.081c3.673,3.082,8.869,4.965,15.632,5.624l11.394,0.984c3.476,0.394,5.949,1.275,7.396,2.68
		c1.455,1.404,2.183,3.33,2.183,5.77c0.009,3.39-1.473,5.864-4.426,7.465c-2.962,1.592-6.686,2.388-11.18,2.388
		c-3.578,0-7.164-0.488-10.786-1.481c-3.612-0.976-8.372-5.119-8.372-5.119c-0.83-0.505-1.892-0.377-2.585,0.316l-6.36,6.36
		c-0.454,0.454-0.685,1.096-0.591,1.746c0.077,0.634,0.437,1.207,1.002,1.524C291.372,160.881,297.877,166.385,302.86,167.746z"/>
</g>
</svg>