<?xml version="1.0" encoding="utf-8"?>

<!DOCTYPE svg PUBLIC "-//W3C//DTD SVG 1.1//EN" "http://www.w3.org/Graphics/SVG/1.1/DTD/svg11.dtd">

<svg version="1.1" id="_x32_" xmlns="http://www.w3.org/2000/svg" xmlns:xlink="http://www.w3.org/1999/xlink" 
	 width="800px" height="800px" viewBox="0 0 512 512"  xml:space="preserve">
<style type="text/css">
<![CDATA[
	.st0{fill:#000000;}
]]>
</style>
<g>
	<polygon class="st0" points="233.25,294.969 236.484,294.969 246.281,294.969 249.516,294.969 249.516,270.188 258.188,265.219 
		264.75,265.219 264.75,294.969 264.781,294.969 278.703,294.969 280.891,294.969 280.891,265.219 303.031,265.219 303.031,246.766 
		280.891,246.766 280.891,217.031 278.703,217.031 264.781,217.031 264.75,217.031 264.75,246.766 258.156,246.766 249.516,241.797 
		249.516,217.031 246.281,217.031 236.484,217.031 233.25,217.031 233.25,233.406 205.813,219.797 205.813,221.875 205.813,235.438 
		205.813,237.531 240.813,256 205.813,274.469 205.813,276.563 205.813,290.125 205.813,292.188 233.25,278.578 	"/>
	<polygon class="st0" points="380,496 132,496 132,53.359 116,53.359 116,512 396,512 396,53.359 380,53.359 	"/>
	<path class="st0" d="M317.047,473.594c4-20.719,19.828-37.188,40.234-42.156V80.563c-15.188-3.688-27.844-13.766-34.953-27.203
		H189.688c-7.125,13.438-19.75,23.516-34.969,27.203v350.875c20.406,4.969,36.25,21.438,40.25,42.156H317.047z M256,420.313
		c-11.031,0-20-8.953-20-20c0-11.031,8.969-20,20-20c11.047,0,20,8.969,20,20C276,411.359,267.047,420.313,256,420.313z M256,91.688
		c11.047,0,20,8.953,20,20c0,11.031-8.953,20-20,20c-11.031,0-20-8.969-20-20C236,100.641,244.969,91.688,256,91.688z M171.688,256
		c0-46.563,37.75-84.313,84.313-84.313s84.328,37.75,84.328,84.313S302.563,340.313,256,340.313S171.688,302.563,171.688,256z"/>
	<path class="st0" d="M448,0H64C37.5,0,16,21.5,16,48s21.5,48,48,48h36V37.328h312V96h36c26.5,0,48-21.5,48-48S474.5,0,448,0z"/>
</g>
</svg>