<?xml version="1.0" encoding="utf-8"?>

<!DOCTYPE svg PUBLIC "-//W3C//DTD SVG 1.1//EN" "http://www.w3.org/Graphics/SVG/1.1/DTD/svg11.dtd">

<svg version="1.1" id="_x32_" xmlns="http://www.w3.org/2000/svg" xmlns:xlink="http://www.w3.org/1999/xlink" 
	 width="800px" height="800px" viewBox="0 0 512 512"  xml:space="preserve">
<style type="text/css">
<![CDATA[
	.st0{fill:#000000;}
]]>
</style>
<g>
	<path class="st0" d="M267.875,361.906c-1.531-1.094-3.359-1.969-5.375-2.563c-2.031-0.609-4.234-0.938-6.547-0.938
		c-2.328,0-4.547,0.328-6.578,0.938c-2.016,0.594-3.844,1.469-5.375,2.563c-1.547,1.094-2.797,2.391-3.688,3.828
		c-0.875,1.453-1.375,3.063-1.406,4.75c-0.031,1.703,0.406,3.328,1.25,4.828c0.844,1.484,2.078,2.828,3.625,3.969
		c1.531,1.125,3.375,2.031,5.438,2.688c2.063,0.625,4.344,0.969,6.734,0.969c2.359,0,4.641-0.344,6.703-0.969
		c2.063-0.656,3.906-1.563,5.453-2.688c1.547-1.141,2.781-2.484,3.625-3.969c0.844-1.5,1.297-3.125,1.266-4.828
		c-0.031-1.688-0.531-3.297-1.422-4.75C270.688,364.297,269.438,363,267.875,361.906z"/>
	<path class="st0" d="M128.875,136.531L72.703,453.328h366.516l-56.188-316.797H128.875z M153.344,176.922
		c5.813-0.328,11.406-1.219,16.609-2.547c5.172-1.344,9.953-3.125,14.141-5.25c4.156-2.109,7.719-4.563,10.563-7.281
		c2.797-2.672,4.875-5.594,6.031-8.656h110.531c1.172,3.063,3.234,5.984,6.031,8.672c2.828,2.703,6.406,5.172,10.578,7.281
		c4.172,2.141,8.953,3.906,14.125,5.234c5.203,1.344,10.797,2.219,16.609,2.547l7.688,56.688
		c-6.031-4.891-13.156-9.328-21.156-13.234c-7.922-3.875-16.719-7.219-26.156-9.953c-9.391-2.734-19.469-4.859-30.031-6.297
		c-10.516-1.438-21.563-2.219-32.953-2.219s-22.438,0.781-32.969,2.219c-10.547,1.438-20.625,3.563-30.016,6.297
		c-9.438,2.734-18.219,6.078-26.156,9.953c-7.984,3.906-15.125,8.344-21.156,13.234L153.344,176.922z M299.953,269.547
		c-1.359-2.672-3.266-5.188-5.641-7.5c-2.344-2.297-5.156-4.391-8.375-6.203c-3.188-1.813-6.75-3.375-10.625-4.578l0.891,38.297
		l-18.141-2.469l-0.094-38.781l-0.75-0.031l-0.75-0.031l-0.734-0.031h-0.703l-1.875,0.031l-1.875,0.063l-1.891,0.141l-1.922,0.172
		l-0.375,36.969l-17.969-2.406l0.938-30.297c-3.297,1.328-6.313,2.891-8.969,4.672c-2.688,1.781-5.031,3.75-6.969,5.891
		s-3.484,4.453-4.594,6.891c-1.094,2.438-1.75,4.984-1.906,7.625c-0.031,0.906-0.031,1.813,0.063,2.719
		c0.063,0.906,0.203,1.797,0.422,2.703c0.203,0.906,0.484,1.813,0.813,2.703c0.328,0.906,0.734,1.813,1.203,2.719l1.469,2.859
		h-25.531l-0.531-1.578c-0.313-1-0.594-2.031-0.828-3.031c-0.234-1.031-0.406-2.031-0.531-3.047
		c-0.141-1.016-0.203-2.031-0.234-3.047c-0.031-1,0-2,0.094-3c0.391-4.734,1.891-9.281,4.344-13.547
		c2.406-4.234,5.75-8.172,9.844-11.734c4.094-3.516,8.922-6.656,14.375-9.313c5.406-2.641,11.453-4.781,17.969-6.344l0.281-8.859
		h16.844l-0.063,6.25l1.922-0.141l1.859-0.078l1.844-0.047l1.781-0.031h0.703l0.734,0.016l0.719,0.016l0.75,0.031v-6.016h16.844
		l0.172,7.859c7.063,1.344,13.609,3.406,19.531,6c5.953,2.594,11.266,5.781,15.734,9.406c4.531,3.656,8.219,7.75,10.891,12.188
		c2.703,4.5,4.359,9.313,4.766,14.344c0.094,1.344,0.125,2.703,0.047,4.031c-0.063,1.359-0.234,2.688-0.484,4.031
		c-0.25,1.328-0.594,2.656-1.031,3.984c-0.438,1.313-0.969,2.641-1.594,3.938l-0.844,1.734l-24.328-3.25l1.438-2.391
		c0.578-0.984,1.078-1.984,1.516-2.984s0.781-2,1.031-3.016c0.281-1.016,0.469-2.016,0.563-3.047
		c0.125-1.016,0.141-2.031,0.094-3.031C302.125,275.063,301.313,272.219,299.953,269.547z M365.813,383.594
		c-6.203,2.188-11.781,5.125-16.594,8.688c-4.813,3.594-8.844,7.813-11.875,12.531c-3.063,4.766-5.125,10.063-5.969,15.703H180.531
		c-0.844-5.641-2.891-10.938-5.969-15.703c-3.031-4.719-7.047-8.938-11.875-12.531c-4.797-3.563-10.375-6.5-16.578-8.688
		c-6.172-2.172-12.984-3.594-20.234-4.141l10.563-77.813c5.094,5.828,11.688,11.234,19.531,16.094
		c7.938,4.922,17.156,9.266,27.438,12.875c10.344,3.641,21.734,6.516,33.906,8.516c12.219,1.969,25.203,3.031,38.641,3.031
		s26.422-1.063,38.641-3.031c12.188-2,23.563-4.875,33.938-8.516c10.25-3.609,19.469-7.953,27.406-12.875
		c7.859-4.859,14.438-10.266,19.531-16.094l10.547,77.813C378.781,380,371.984,381.422,365.813,383.594z"/>
	<path class="st0" d="M246.203,188.25c1.234,0.719,2.703,1.313,4.359,1.719s3.469,0.641,5.391,0.641
		c1.891,0,3.703-0.234,5.359-0.641s3.125-1,4.375-1.719s2.219-1.594,2.922-2.547c0.672-0.953,1.047-2.016,1.016-3.109
		c0-1.078-0.406-2.125-1.125-3.063c-0.703-0.938-1.719-1.781-2.969-2.484c-1.219-0.703-2.703-1.281-4.313-1.672
		c-1.625-0.406-3.406-0.609-5.266-0.609c-1.891,0-3.672,0.203-5.297,0.609c-1.625,0.391-3.094,0.969-4.313,1.672
		c-1.234,0.703-2.25,1.547-2.938,2.484c-0.719,0.938-1.109,1.984-1.125,3.063c-0.016,1.094,0.344,2.156,1.016,3.109
		S244.969,187.531,246.203,188.25z"/>
	<path class="st0" d="M476.688,58.672H35.313C15.813,58.688,0.016,74.469,0,93.984v105.922
		c0.016,19.516,15.813,35.313,35.313,35.313h49.25l6.266-35.313H35.313V93.984h441.375v105.922h-55.516l6.266,35.313h49.25
		c19.5,0,35.297-15.797,35.313-35.313V93.984C511.984,74.469,496.188,58.688,476.688,58.672z"/>
</g>
</svg>