<?xml version="1.0" encoding="utf-8"?>

<!DOCTYPE svg PUBLIC "-//W3C//DTD SVG 1.1//EN" "http://www.w3.org/Graphics/SVG/1.1/DTD/svg11.dtd">

<svg version="1.1" id="_x32_" xmlns="http://www.w3.org/2000/svg" xmlns:xlink="http://www.w3.org/1999/xlink" 
	 width="800px" height="800px" viewBox="0 0 512 512"  xml:space="preserve">
<style type="text/css">
<![CDATA[
	.st0{fill:#000000;}
]]>
</style>
<g>
	<path class="st0" d="M219.906,156.219h13.125l-0.844-2.234c-1.031-2.797-1.563-5.688-1.563-8.563
		c0-8.484,4.281-16.203,11.344-20.734v24.875l9.313,1.922v-30.438c1.375-0.234,2.75-0.359,4.063-0.359
		c0.563,0,1.094,0.047,1.625,0.078v31.875l9.344,1.922v-31.25c8.313,4.125,13.75,12.719,13.75,22.109
		c0,3.25-0.656,6.453-1.953,9.531l-0.797,1.891l12.375,2.5l0.484-1.344c1.484-4.047,2.234-8.281,2.234-12.578
		c0-16.203-10.656-30.563-26.094-35.359v-7.047h-9.344v5.391c-0.531-0.031-1.094-0.031-1.625-0.031c-1.281,0-2.609,0.078-4.063,0.25
		v-5.609h-9.313v7.891c-14.219,5.531-23.688,19.25-23.688,34.516c0,3.203,0.438,6.438,1.297,9.578L219.906,156.219z"/>
	<rect x="292" y="464" class="st0" width="146.672" height="48"/>
	<path class="st0" d="M418.063,0H93.938C59.719,0,32,25.078,32,56s27.719,56,61.938,56H120V28.094h17.359v345.828h122.672
		l4.313,20.328c1.078,5.156,3.703,9.875,7.516,13.5l0.406,0.406l49.813,35.688l0.016-0.031c4.75,4.156,10.813,6.531,17.172,6.531
		h70.578c14.453,0,26.141-11.688,26.156-26.125V257.125c0-15.781-4.906-31.156-14.031-44.016l-44.609-62.859V28.094H392V112h26.063
		C452.266,112,480,86.922,480,56S452.266,0,418.063,0z M338.641,28.094h22.719v99.625l-0.031-0.047v129.859
		c0,2.594-0.984,5.094-2.781,6.984l-19.906,21.016V28.094z M257.688,76.094c35.344,0,64,28.656,64,64s-28.656,64-64,64
		s-64-28.656-64-64S222.344,76.094,257.688,76.094z M153.359,357.922V28.094h22.719v265.266
		c20.391,4.953,36.234,21.438,40.234,42.172h35.594l4.75,22.391H153.359z M408.922,222.375c7.203,10.156,11.078,22.281,11.078,34.75
		v167.094c-0.016,5.594-4.547,10.125-10.156,10.125h-70.578c-2.609,0-5.125-1-7.016-2.797l-0.406-0.391l-49.094-35.188
		c-1.375-1.375-2.344-3.109-2.75-5.016l-25.438-120.234l-0.219-2.094c0-3.594,1.906-6.984,5.094-8.813l9.438-5.391
		c1.547-0.891,3.281-1.328,5.016-1.328c0.969,0,1.938,0.125,2.875,0.406l-0.297-0.094l0.313,0.094
		c2.656,0.781,4.859,2.625,6.125,5.078l19.594,37.859c3.875,7.516,11.172,12.688,19.563,13.875c1.219,0.156,2.438,0.25,3.656,0.25
		c7.125,0,14-2.906,18.969-8.156l25.156-26.547l0.328-0.359c4.578-4.844,7.156-11.281,7.156-17.969v-79.672L408.922,222.375z"/>
</g>
</svg>