<?xml version="1.0" encoding="utf-8"?>

<!DOCTYPE svg PUBLIC "-//W3C//DTD SVG 1.1//EN" "http://www.w3.org/Graphics/SVG/1.1/DTD/svg11.dtd">

<svg version="1.1" id="_x32_" xmlns="http://www.w3.org/2000/svg" xmlns:xlink="http://www.w3.org/1999/xlink" 
	 width="800px" height="800px" viewBox="0 0 512 512"  xml:space="preserve">
<style type="text/css">
<![CDATA[
	.st0{fill:#000000;}
]]>
</style>
<g>
	<path class="st0" d="M199.313,264.563h14.203c9.938,25.563,34.641,42.594,62.109,42.594c5.766,0,11.563-0.781,17.234-2.313
		l2.219-0.594v-23.625l-4.031,1.484c-5.063,1.891-10.25,2.828-15.422,2.828c-15.266,0-29.156-7.688-37.344-20.375h44.797
		l3.453-16.813H231.75c-0.406-2.453-0.625-4.906-0.625-7.313c0-0.969,0.063-1.938,0.109-2.906h57.375l3.484-16.781h-56.281
		c7.438-15,22.938-24.781,39.813-24.781c5.844,0,11.609,1.188,17.156,3.531l3.375,1.406l4.531-22.25l-2.406-0.875
		c-7.297-2.656-14.906-4.031-22.656-4.031c-29.188,0-55.031,19.219-63.641,47h-12.672v16.781H209
		c-0.063,0.969-0.078,1.953-0.078,2.906c0,2.344,0.141,4.734,0.453,7.313h-10.063V264.563z"/>
	<path class="st0" d="M162.969,480.609c-0.688-0.703-1.406-1.313-2.094-1.828c-0.719-0.5-1.75-1.125-3.094-1.813
		c5.641-3.141,8.469-7.969,8.469-14.5c0-2.875-0.5-5.469-1.5-7.781s-2.406-4.281-4.219-5.906c-1.828-1.625-4.063-2.891-6.688-3.781
		c-2.625-0.906-5.531-1.344-8.719-1.344h-27.469V512h28.625c3.188,0,6.094-0.469,8.688-1.391s4.781-2.234,6.625-3.938
		c1.813-1.703,3.203-3.734,4.156-6.141c0.969-2.406,1.453-5.109,1.453-8.125c0-2.422-0.328-4.594-1.016-6.516
		C165.516,483.969,164.438,482.219,162.969,480.609z M131,455.563h13.063c2.75,0,4.906,0.688,6.484,2.094
		c1.563,1.406,2.359,3.344,2.359,5.766c0,2.438-0.797,4.359-2.359,5.766c-1.578,1.406-3.734,2.109-6.484,2.109H131V455.563z
		 M151.453,497.844c-1.609,1.5-3.766,2.25-6.516,2.25H131v-16.797h13.938c2.75,0,4.906,0.734,6.516,2.203s2.391,3.531,2.391,6.156
		S153.063,496.344,151.453,497.844z"/>
	<path class="st0" d="M207.813,443.656L182.938,512h13.922L201,499.906h24.281L229.313,512h13.906l-24.953-68.344H207.813z
		 M204.734,488.672l8.641-24.859l8.344,24.859H204.734z"/>
	<polygon class="st0" points="300.25,485.5 273.188,443.656 261.281,443.656 261.281,512 274.625,512 274.625,470.047 301.688,512 
		313.594,512 313.594,443.656 300.25,443.656 	"/>
	<polygon class="st0" points="392.703,443.656 376.469,443.656 352.375,473.406 352.375,443.656 339.031,443.656 339.031,512 
		352.375,512 352.375,491.453 361.219,480.906 378.781,512 394.344,512 370.047,470.813 	"/>
	<polygon class="st0" points="256,0 64,69.344 64,109.344 80,109.344 80,121.344 432,121.344 432,109.344 448,109.344 448,69.344 	
		"/>
	<polygon class="st0" points="432,357.344 80,357.344 80,389.344 64,389.344 64,421.344 448,421.344 448,389.344 432,389.344 	"/>
	<polygon class="st0" points="344,325.344 344,341.344 408,341.344 408,325.344 400,325.344 400,153.344 408,153.344 408,137.344 
		344,137.344 344,153.344 352,153.344 352,325.344 	"/>
	<polygon class="st0" points="104,325.344 104,341.344 168,341.344 168,325.344 160,325.344 160,153.344 168,153.344 168,137.344 
		104,137.344 104,153.344 112,153.344 112,325.344 	"/>
</g>
</svg>