<?xml version="1.0" encoding="utf-8"?>

<!DOCTYPE svg PUBLIC "-//W3C//DTD SVG 1.1//EN" "http://www.w3.org/Graphics/SVG/1.1/DTD/svg11.dtd">

<svg version="1.1" id="_x32_" xmlns="http://www.w3.org/2000/svg" xmlns:xlink="http://www.w3.org/1999/xlink" 
	 width="800px" height="800px" viewBox="0 0 512 512"  xml:space="preserve">
<style type="text/css">
<![CDATA[
	.st0{fill:#000000;}
]]>
</style>
<g>
	<polygon class="st0" points="511.5,155.688 511.641,183.516 183.594,425.078 0.453,330.438 0.313,305.281 183.469,398.813 	"/>
	<polygon class="st0" points="511.859,220.188 512,248.031 183.969,489.609 0.813,394.953 0.688,369.781 183.844,463.344 	"/>
	<path class="st0" d="M329.266,121.906c1.219-0.875,2.641-1.609,4.172-2.156c1.5-0.531,3.125-0.875,4.766-1.047
		c1.625-0.156,3.266-0.125,4.813,0.109c1.547,0.219,3.016,0.656,4.297,1.297s2.25,1.422,2.906,2.297
		c0.656,0.891,1,1.859,1.063,2.875c0.031,1-0.234,2.031-0.828,3.031c-0.578,1-1.484,1.984-2.703,2.891
		c-1.219,0.891-2.625,1.594-4.156,2.141c-1.531,0.516-3.156,0.875-4.781,1.047c-1.656,0.156-3.297,0.125-4.844-0.109
		c-1.547-0.219-3-0.656-4.281-1.281c-1.281-0.656-2.25-1.438-2.906-2.328c-0.672-0.891-1.016-1.859-1.047-2.859
		c-0.047-1,0.234-2.031,0.828-3.031S328.047,122.797,329.266,121.906z"/>
	<path class="st0" d="M160.953,244.844c1.219-0.891,2.641-1.609,4.172-2.156c1.5-0.531,3.141-0.875,4.781-1.047
		c1.625-0.172,3.281-0.141,4.844,0.094s3.016,0.672,4.313,1.313c1.25,0.641,2.219,1.438,2.875,2.328s1,1.875,1.031,2.875
		c0.031,1.016-0.25,2.063-0.828,3.063c-0.594,1.016-1.5,2-2.719,2.906c-1.234,0.891-2.672,1.609-4.203,2.156
		c-1.531,0.531-3.156,0.891-4.797,1.047c-1.641,0.172-3.281,0.141-4.828-0.109c-1.563-0.219-3.016-0.656-4.281-1.297
		c-1.281-0.656-2.25-1.453-2.906-2.344c-0.672-0.891-1.016-1.859-1.047-2.859c-0.047-1.016,0.25-2.063,0.844-3.063
		C158.797,246.734,159.719,245.75,160.953,244.844z"/>
	<path class="st0" d="M329.234,22.391L0,262.219l182.688,92.938L512,113.828L329.234,22.391z M209.75,308.594
		c-4.344-1.734-9.094-2.906-14.078-3.531c-4.984-0.656-10.188-0.75-15.391-0.328s-10.406,1.359-15.406,2.781
		s-9.781,3.344-14.125,5.734l-77.734-39.5c3.063-3.047,5.297-6.25,6.703-9.5c1.406-3.234,1.969-6.516,1.719-9.688
		c-0.25-3.188-1.328-6.281-3.234-9.125c-1.922-2.875-4.641-5.5-8.203-7.75l85.75-62.531c-1.406,5.25-1.656,10.625-0.781,15.938
		c0.891,5.313,2.906,10.594,6.063,15.703s7.406,10.047,12.781,14.641c5.344,4.609,11.813,8.875,19.313,12.688
		c7.531,3.813,15.609,6.875,24.031,9.25c8.406,2.375,17.156,4.047,26,5c8.859,0.969,17.813,1.219,26.594,0.797
		c8.813-0.422,17.453-1.547,25.719-3.359L209.75,308.594z M295.438,215.063l-10.219-5.156c-0.938,0.578-1.875,1.141-2.813,1.688
		c-0.938,0.563-1.875,1.094-2.828,1.609s-1.906,1.016-2.859,1.516c-0.969,0.484-1.938,0.938-2.938,1.391
		c-1.5,0.688-3.313,1.297-5.203,1.859c-1.875,0.531-3.828,1-5.609,1.391s-3.391,0.688-4.594,0.891
		c-1.188,0.219-1.969,0.344-2.125,0.359l-0.656,0.125l-0.641,0.031l-0.609-0.047l-0.563-0.156l-0.469-0.25L252.953,220l-0.219-0.344
		l-0.047-0.391l-0.313-7.547l0.031-0.344l0.141-0.344l0.234-0.313l0.344-0.281l0.297-0.188l0.328-0.188l0.359-0.125l0.391-0.125
		c0.094-0.031,0.688-0.094,1.578-0.25s2.078-0.375,3.391-0.641s2.75-0.609,4.141-1s2.703-0.828,3.797-1.328
		c1.078-0.5,2.141-1,3.156-1.531c1.031-0.531,2.031-1.063,3-1.625s1.891-1.125,2.781-1.703c0.906-0.578,1.781-1.188,2.609-1.797
		c1.047-0.781,2.031-1.547,2.906-2.297c0.875-0.766,1.656-1.516,2.328-2.25c0.688-0.75,1.266-1.484,1.75-2.203
		s0.875-1.422,1.156-2.125c0.297-0.703,0.469-1.375,0.5-2l-0.375-1.781l-1.188-1.594c-0.563-0.469-1.25-0.938-2.094-1.359
		l-1.844-0.766l-1.891-0.484l-1.953-0.203l-2,0.094c-0.703,0.078-1.438,0.203-2.156,0.406c-0.75,0.188-1.531,0.438-2.313,0.75
		c-0.813,0.297-1.625,0.672-2.484,1.109c-0.859,0.422-1.734,0.906-2.656,1.469l-11.672,7.328c-1.75,1.078-3.469,2.047-5.188,2.922
		s-3.406,1.641-5.094,2.297c-1.688,0.672-3.344,1.219-4.984,1.688c-1.641,0.453-3.266,0.813-4.875,1.063
		c-1.641,0.25-3.266,0.359-4.875,0.359c-1.609-0.016-3.203-0.156-4.797-0.422c-1.563-0.266-3.156-0.656-4.719-1.188
		s-3.094-1.172-4.641-1.938c-0.859-0.438-1.641-0.891-2.359-1.359c-0.719-0.484-1.375-0.969-1.969-1.469l-1.594-1.578l-1.219-1.688
		l-0.813-1.75l-0.5-1.813l-0.172-1.875l0.141-1.938l0.516-1.953l0.828-1.984l1.141-1.984l1.422-1.984l0.703-0.844l0.734-0.844
		l0.797-0.813l0.844-0.813l-8.984-4.531l11.938-8.719l8.797,4.438c0.766-0.469,1.531-0.938,2.313-1.375
		c0.781-0.469,1.547-0.891,2.344-1.313c0.781-0.422,1.563-0.828,2.359-1.219c0.781-0.406,1.563-0.781,2.344-1.141
		c1.344-0.609,2.828-1.156,4.313-1.609c1.469-0.484,2.938-0.891,4.25-1.219c1.313-0.313,2.469-0.578,3.328-0.75
		c0.859-0.188,1.391-0.281,1.5-0.297l0.641-0.125l0.656-0.047l0.625,0.047l0.594,0.141l0.484,0.234l0.375,0.297l0.234,0.359
		l0.094,0.391l0.391,7.109l-0.047,0.344l-0.156,0.328l-0.234,0.328l-0.328,0.297l-0.266,0.156l-0.281,0.156l-0.313,0.125
		l-0.344,0.125l-1.078,0.219c-0.609,0.156-1.438,0.344-2.375,0.594c-0.922,0.25-1.953,0.531-2.984,0.891
		c-1.016,0.328-2.047,0.734-2.953,1.156s-1.813,0.859-2.688,1.328c-0.891,0.469-1.75,0.953-2.609,1.453
		c-0.844,0.516-1.688,1.016-2.516,1.563c-0.813,0.547-1.625,1.109-2.438,1.703c-1.031,0.75-1.938,1.469-2.734,2.188
		c-0.797,0.703-1.484,1.406-2.047,2.063l-1.344,1.922l-0.625,1.797l0.078,1.609l0.578,1.453l1.156,1.266l1.703,1.094l1.828,0.766
		l1.906,0.469l1.938,0.156c0.656,0,1.344-0.031,2.031-0.125c0.656-0.109,1.359-0.25,2.094-0.469s1.5-0.484,2.313-0.813
		s1.641-0.719,2.5-1.172c0.875-0.453,1.766-0.953,2.688-1.516l10.219-6.469c1.906-1.156,3.781-2.234,5.625-3.188
		c1.875-0.953,3.688-1.781,5.5-2.5c1.781-0.719,3.563-1.313,5.313-1.797s3.469-0.859,5.156-1.109
		c1.719-0.25,3.406-0.359,5.063-0.359c1.656,0.016,3.297,0.141,4.922,0.422c1.609,0.25,3.203,0.656,4.781,1.172
		s3.141,1.172,4.672,1.953c0.938,0.469,1.781,0.938,2.563,1.438s1.5,1.031,2.125,1.563l1.656,1.656l1.219,1.766l0.875,1.859
		l0.484,1.906l0.125,1.969c-0.016,0.672-0.109,1.344-0.25,2.031c-0.156,0.703-0.359,1.406-0.641,2.109
		c-0.266,0.703-0.594,1.422-0.984,2.141s-0.828,1.438-1.344,2.172s-1.078,1.469-1.703,2.203l-0.844,0.969l-0.938,0.969l-0.984,0.953
		l-1.031,0.969l10.453,5.281L295.438,215.063z M357.766,184.75c-0.922-5.313-2.984-10.594-6.172-15.688s-7.469-10-12.844-14.578
		s-11.828-8.844-19.344-12.609c-7.516-3.781-15.594-6.844-24.016-9.203s-17.141-4-25.984-4.953c-8.813-0.938-17.719-1.188-26.5-0.75
		c-8.75,0.438-17.375,1.547-25.625,3.344l85.25-62.125c4.313,1.688,9.031,2.844,14,3.453c4.938,0.609,10.094,0.703,15.266,0.297
		c5.172-0.422,10.328-1.344,15.297-2.75c4.953-1.406,9.688-3.297,14.031-5.656l77.75,38.938c-3.031,3.031-5.203,6.203-6.563,9.422
		c-1.375,3.203-1.906,6.453-1.609,9.609s1.391,6.234,3.328,9.063c1.938,2.844,4.703,5.469,8.281,7.719l-85.203,62.406
		C358.484,195.438,358.688,190.063,357.766,184.75z"/>
</g>
</svg>