<?xml version="1.0" encoding="utf-8"?>

<!DOCTYPE svg PUBLIC "-//W3C//DTD SVG 1.1//EN" "http://www.w3.org/Graphics/SVG/1.1/DTD/svg11.dtd">

<svg version="1.1" id="_x32_" xmlns="http://www.w3.org/2000/svg" xmlns:xlink="http://www.w3.org/1999/xlink" 
	 width="800px" height="800px" viewBox="0 0 512 512"  xml:space="preserve">
<style type="text/css">
<![CDATA[
	.st0{fill:#000000;}
]]>
</style>
<g>
	<path class="st0" d="M256,55.109c-141.375,0-256,72.266-256,161.422v78.938c0,89.172,114.625,161.422,256,161.422
		s256-72.25,256-161.422v-78.938C512,127.375,397.375,55.109,256,55.109z M256,343.313c-120,0-221.375-58.063-221.375-126.781
		C34.625,147.797,136,89.734,256,89.734s221.375,58.063,221.375,126.797C477.375,285.25,376,343.313,256,343.313z"/>
	<path class="st0" d="M331.688,226.016c-3.375-2.609-7.578-4.813-12.625-6.672c-5.047-1.844-10.938-3.297-17.688-4.391
		c1.531-0.375,2.641-0.766,3.531-1.172c0.875-0.422,1.547-0.844,2.141-1.297l1.828-1.422c0.672-0.484,1.469-1,2.547-1.547
		c1.094-0.531,2.141-1.078,3.141-1.641s1.953-1.125,2.859-1.719s1.766-1.203,2.563-1.828c0.813-0.609,1.563-1.25,2.266-1.906l2-2
		l1.734-2.078l1.422-2.156l1.141-2.234l0.875-2.266c0.25-0.766,0.453-1.547,0.625-2.328c0.172-0.797,0.297-1.578,0.391-2.391
		c0.078-0.797,0.125-1.609,0.125-2.438c0-1.438-0.094-2.844-0.266-4.219c-0.172-1.359-0.406-2.688-0.75-3.969
		c-0.328-1.297-0.766-2.547-1.266-3.766c-0.5-1.203-1.109-2.391-1.797-3.531c-0.672-1.156-1.453-2.25-2.328-3.313
		s-1.844-2.094-2.906-3.078c-1.078-0.969-2.234-1.906-3.484-2.797c-1.266-0.906-2.609-1.75-4.047-2.547
		c-1.453-0.813-3.016-1.578-4.688-2.281c-1.656-0.719-3.422-1.391-5.281-2c-1.875-0.625-3.828-1.203-5.891-1.734
		c-2.063-0.516-4.219-1-6.484-1.438c-1.781-0.344-3.641-0.641-5.563-0.922c-1.938-0.281-3.938-0.516-6-0.719
		s-4.203-0.375-6.406-0.516c-2.203-0.125-4.484-0.219-6.844-0.281v-15.281h-30.875l-0.016,15.109h-38.984h-12.75l-0.031,11.375
		c0,0.828-0.016,1.578,0.031,2.25l0.375,1.766l1.234,1.266c0.609,0.344,1.438,0.609,2.563,0.797l1.703,0.234l0.672,0.063
		l0.891,0.109l1.141,0.125l1.359,0.172l0.781,0.219l0.094,0.234l0.344,0.266c0.281,0.094,0.734,0.188,1.578,0.297l-0.125,101.813
		c-0.828,0.094-1.313,0.203-1.578,0.297l-0.359,0.281l-0.094,0.234l-0.781,0.203l-1.391,0.172l-1.141,0.141l-0.875,0.125
		l-0.641,0.094l-1.719,0.188c-1.125,0.172-1.969,0.438-2.563,0.781l-1.25,1.281l-0.391,1.766c-0.047,0.672-0.016,1.438-0.016,2.266
		l-0.031,11.422h12.813h39.063v14.25h30.984v-14.25h3.969c2.844,0,5.609-0.063,8.297-0.188c2.703-0.125,5.313-0.313,7.844-0.578
		c2.531-0.25,4.969-0.578,7.344-0.969s4.656-0.844,6.859-1.375c2.219-0.516,4.359-1.094,6.406-1.719c2.047-0.609,4-1.281,5.859-2
		c1.875-0.719,3.641-1.484,5.328-2.297s3.281-1.688,4.781-2.594c1.516-0.906,2.953-1.875,4.281-2.875
		c1.328-0.984,2.578-2.031,3.734-3.125c1.125-1.094,2.188-2.219,3.156-3.391s1.828-2.391,2.609-3.641
		c0.797-1.281,1.5-2.563,2.094-3.891c0.578-1.328,1.078-2.672,1.469-4.047c0.406-1.391,0.688-2.797,0.891-4.219
		c0.188-1.438,0.281-2.906,0.281-4.406c0-4.109-0.844-7.859-2.531-11.219S335.047,228.625,331.688,226.016z M233.094,167.375h25.453
		c3.078,0,5.953,0.094,8.609,0.297c2.656,0.188,5.125,0.469,7.391,0.859s4.297,0.875,6.156,1.453
		c1.844,0.578,3.484,1.25,4.938,2.031c1.438,0.781,2.688,1.688,3.766,2.719c1.094,1.047,2,2.219,2.719,3.516
		c0.719,1.313,1.25,2.75,1.625,4.313c0.344,1.563,0.531,3.25,0.531,5.063c0,1.766-0.188,3.406-0.594,4.922
		c-0.406,1.531-1,2.922-1.797,4.203s-1.797,2.453-2.984,3.5c-1.203,1.047-2.594,1.969-4.203,2.781
		c-1.594,0.813-3.375,1.516-5.359,2.141c-1.969,0.609-4.125,1.109-6.484,1.516s-4.891,0.719-7.609,0.922s-5.641,0.297-8.734,0.297
		h-23.438L233.094,167.375z M301.063,247.797l-0.313,2.094l-0.563,2.031l-0.797,1.969l-1.078,1.859l-1.344,1.766l-1.641,1.641
		l-1.938,1.531c-0.688,0.484-1.422,0.938-2.234,1.375c-0.781,0.438-1.641,0.844-2.563,1.234c-0.906,0.391-1.875,0.766-2.891,1.094
		c-1.016,0.344-2.094,0.672-3.234,0.969c-1.141,0.281-2.359,0.531-3.641,0.75c-1.297,0.219-2.641,0.391-4.063,0.547
		c-1.422,0.141-2.906,0.25-4.453,0.328s-3.156,0.109-4.844,0.109h-32.422l0.016-41.156h32.25c1.594,0,3.141,0.016,4.625,0.078
		c1.484,0.047,2.906,0.141,4.266,0.25s2.672,0.25,3.906,0.422c1.25,0.172,2.453,0.375,3.578,0.625
		c1.125,0.219,2.203,0.469,3.234,0.734c1.031,0.281,2.016,0.578,2.953,0.906c0.922,0.328,1.797,0.672,2.625,1.047
		s1.609,0.766,2.328,1.188l2.016,1.359l1.719,1.5l1.438,1.609l1.141,1.734l0.906,1.891l0.641,2.016l0.375,2.109l0.109,2.234
		L301.063,247.797z"/>
</g>
</svg>