<?xml version="1.0" encoding="utf-8"?>

<!DOCTYPE svg PUBLIC "-//W3C//DTD SVG 1.1//EN" "http://www.w3.org/Graphics/SVG/1.1/DTD/svg11.dtd">

<svg version="1.1" id="_x32_" xmlns="http://www.w3.org/2000/svg" xmlns:xlink="http://www.w3.org/1999/xlink" 
	 viewBox="0 0 512 512"  xml:space="preserve">
<style type="text/css">
	.st0{fill:#000000;}
</style>
<g>
	<path class="st0" d="M216.033,36.616h39.97h39.969c5.264,0,9.53,4.26,9.53,9.527h33.624c0,0,0-17,0-24.474
		c0-7.467-4.833-14.246-12.146-15.788c-9.337-1.958-19.43-0.928-26.147-1.958C288.691,2.053,265.338,0,256.002,0
		c-9.341,0-32.689,2.053-44.831,3.923c-6.717,1.03-16.811,0-26.15,1.958c-7.309,1.542-12.142,8.321-12.142,15.788
		c0,7.473,0,24.474,0,24.474h33.624C206.503,40.875,210.769,36.616,216.033,36.616z"/>
	<path class="st0" d="M376.041,97.318H135.963c-25.004,0-45.274,20.272-45.274,45.272v269.037c0,25,20.27,45.266,45.274,45.266
		h240.077c25.004,0,45.27-20.266,45.27-45.266V142.591C421.31,117.591,401.044,97.318,376.041,97.318z"/>
	<rect x="176.075" y="58.022" class="st0" width="27.232" height="29.134"/>
	<rect x="308.697" y="58.022" class="st0" width="27.232" height="31.122"/>
	<circle class="st0" cx="155.465" cy="489.119" r="22.881"/>
	<circle class="st0" cx="356.538" cy="489.119" r="22.881"/>
</g>
</svg>