<?xml version="1.0" encoding="utf-8"?>

<!DOCTYPE svg PUBLIC "-//W3C//DTD SVG 1.1//EN" "http://www.w3.org/Graphics/SVG/1.1/DTD/svg11.dtd">

<svg height="800px" width="800px" version="1.1" id="_x32_" xmlns="http://www.w3.org/2000/svg" xmlns:xlink="http://www.w3.org/1999/xlink" 
	 viewBox="0 0 512 512"  xml:space="preserve">
<style type="text/css">
	.st0{fill:#000000;}
</style>
<g>
	<path class="st0" d="M448.759,361.501L338.311,134.093c-6.373-13.121-22.183-18.595-35.311-12.222l-116.552,56.611l111.01,228.578
		c10.884,1.92,21.002,6.711,29.343,14.003c6.126,5.35,11.034,11.789,14.604,19.133c0.368,0.766,0.684,1.546,1.022,2.318
		l94.104-45.705C449.66,390.435,455.132,374.629,448.759,361.501z"/>
	<path class="st0" d="M316.791,432.52c-6.671-5.828-14.836-9.522-23.471-10.759c-8.628-1.236-17.801,0.015-26.201,4.106
		c-5.596,2.716-10.438,6.476-14.32,10.921c-5.828,6.666-9.526,14.835-10.762,23.474c-1.244,8.624,0.018,17.793,4.106,26.198
		c2.716,5.592,6.48,10.434,10.924,14.32c6.667,5.828,14.835,9.522,23.47,10.766c8.628,1.236,17.797-0.022,26.197-4.113
		c5.596-2.708,10.438-6.476,14.32-10.921c5.828-6.666,9.526-14.835,10.762-23.466c1.247-8.632-0.018-17.801-4.106-26.205
		C324.995,441.248,321.231,436.406,316.791,432.52z M301.462,475.09c-1.637,2.811-4.022,5.129-7.193,6.674
		c-2.123,1.03-4.283,1.56-6.457,1.678c-3.245,0.169-6.52-0.633-9.324-2.259c-2.815-1.634-5.129-4.018-6.674-7.19
		c-1.034-2.127-1.56-4.283-1.674-6.454c-0.173-3.252,0.625-6.52,2.252-9.331c1.637-2.81,4.022-5.128,7.193-6.674
		c2.123-1.03,4.286-1.56,6.454-1.67c3.249-0.176,6.524,0.625,9.331,2.252c2.811,1.634,5.129,4.018,6.674,7.189
		c1.03,2.128,1.56,4.291,1.674,6.462C303.887,469.012,303.089,472.286,301.462,475.09z"/>
	<path class="st0" d="M282.962,406.234L102.412,34.478c0.346-0.714,0.669-1.45,0.934-2.222l1.604-4.629
		c3.539-10.228-1.88-21.399-12.112-24.938l-4.633-1.604C77.977-2.456,66.81,2.96,63.27,13.196l-1.604,4.636
		c-3.543,10.222,1.881,21.384,12.11,24.931l4.632,1.604c1.284,0.449,2.579,0.743,3.871,0.92L260.47,412.18
		C267.597,408.715,275.213,406.735,282.962,406.234z"/>
</g>
</svg>