<?xml version="1.0" encoding="utf-8"?>

<!DOCTYPE svg PUBLIC "-//W3C//DTD SVG 1.1//EN" "http://www.w3.org/Graphics/SVG/1.1/DTD/svg11.dtd">

<svg height="800px" width="800px" version="1.1" id="_x32_" xmlns="http://www.w3.org/2000/svg" xmlns:xlink="http://www.w3.org/1999/xlink" 
	 viewBox="0 0 512 512"  xml:space="preserve">
<style type="text/css">
	.st0{fill:#000000;}
</style>
<g>
	<path class="st0" d="M327.455,432.523c-6.667-5.828-14.835-9.53-23.467-10.759c-8.632-1.243-17.801,0.015-26.198,4.106
		c-5.6,2.716-10.449,6.476-14.32,10.921c-5.828,6.667-9.529,14.835-10.766,23.467c-1.244,8.639,0.022,17.801,4.106,26.205
		c2.716,5.599,6.484,10.442,10.92,14.32c6.675,5.82,14.836,9.522,23.475,10.758c8.624,1.243,17.801-0.015,26.197-4.106
		c5.6-2.716,10.443-6.476,14.32-10.928c5.828-6.66,9.522-14.828,10.766-23.467c1.236-8.624-0.022-17.801-4.106-26.19
		C335.661,441.251,331.901,436.408,327.455,432.523z M312.128,475.094c-1.634,2.811-4.019,5.122-7.19,6.674
		c-2.126,1.03-4.29,1.553-6.453,1.671c-3.252,0.176-6.52-0.626-9.331-2.252c-2.811-1.634-5.128-4.018-6.674-7.197
		c-1.03-2.12-1.561-4.283-1.671-6.454c-0.176-3.245,0.626-6.52,2.252-9.324c1.634-2.81,4.018-5.128,7.197-6.674
		c2.12-1.03,4.283-1.56,6.446-1.678c3.252-0.169,6.527,0.626,9.331,2.259c2.81,1.634,5.128,4.018,6.682,7.189
		c1.03,2.128,1.552,4.291,1.663,6.454C314.556,469.015,313.761,472.29,312.128,475.094z"/>
	<path class="st0" d="M437.396,372.932L329.7,151.19c-4.01-8.272-11.053-14.18-19.104-16.955
		c-8.044-2.796-17.234-2.502-25.505,1.509l-99.388,48.28L113.073,34.48c0.353-0.721,0.677-1.456,0.942-2.222l1.604-4.636
		c3.54-10.23-1.884-21.392-12.112-24.939l-4.636-1.597C88.641-2.46,77.479,2.963,73.939,13.199l-1.604,4.629
		c-3.547,10.229,1.884,21.392,12.112,24.938l4.629,1.597c1.288,0.449,2.582,0.751,3.878,0.92l178.185,366.894
		c7.123-3.459,14.747-5.446,22.488-5.946L192.356,197.712l99.388-48.273c4.532-2.193,9.456-2.341,13.878-0.824
		c4.408,1.538,8.183,4.695,10.391,9.228l107.688,221.734c2.2,4.533,2.355,9.456,0.824,13.871c-1.531,4.416-4.695,8.19-9.221,10.398
		l-65.655,31.885c0.861,1.45,1.678,2.936,2.421,4.467c1.502,3.084,2.694,6.263,3.643,9.508l66.237-32.172
		c8.271-4.01,14.188-11.053,16.961-19.104C441.701,390.387,441.414,381.203,437.396,372.932z"/>
</g>
</svg>