<?xml version="1.0" encoding="utf-8"?>

<!DOCTYPE svg PUBLIC "-//W3C//DTD SVG 1.1//EN" "http://www.w3.org/Graphics/SVG/1.1/DTD/svg11.dtd">

<svg height="800px" width="800px" version="1.1" id="_x32_" xmlns="http://www.w3.org/2000/svg" xmlns:xlink="http://www.w3.org/1999/xlink" 
	 viewBox="0 0 512 512"  xml:space="preserve">
<style type="text/css">
	.st0{fill:#000000;}
</style>
<g>
	<path class="st0" d="M145.764,98.011c27.058,0,49.002-21.943,49.002-49.009C194.766,21.935,172.822,0,145.764,0
		c-27.066,0-49.009,21.935-49.009,49.002C96.755,76.068,118.698,98.011,145.764,98.011z"/>
	<circle class="st0" cx="110.089" cy="377.876" r="48.646"/>
	<path class="st0" d="M110.321,450.209c-33.874-0.248-61.543,27-61.799,60.874L171.195,512
		C171.442,478.126,144.195,450.466,110.321,450.209z"/>
	<circle class="st0" cx="271.065" cy="377.876" r="48.646"/>
	<path class="st0" d="M271.288,450.209c-33.866-0.248-61.544,27-61.792,60.874L332.17,512
		C332.418,478.126,305.162,450.466,271.288,450.209z"/>
	<circle class="st0" cx="432.033" cy="377.876" r="48.646"/>
	<path class="st0" d="M432.255,450.209c-33.866-0.248-61.535,27-61.782,60.874L493.138,512
		C493.393,478.126,466.129,450.466,432.255,450.209z"/>
	<path class="st0" d="M272.66,235.671h-53.513v-39.657c0.264-35.212-24.332-64.79-57.363-72.143l-6.089,18.87h-19.87l-6.072-18.837
		c-32.602,7.287-57.115,36.187-57.371,71.011v40.756H18.861v33.635H272.66V235.671z M135.825,153.597h19.87v61.114l-9.932,8.592
		l-9.939-8.592V153.597z"/>
</g>
</svg>