<?xml version="1.0" encoding="utf-8"?>

<!DOCTYPE svg PUBLIC "-//W3C//DTD SVG 1.1//EN" "http://www.w3.org/Graphics/SVG/1.1/DTD/svg11.dtd">

<svg version="1.1" id="_x32_" xmlns="http://www.w3.org/2000/svg" xmlns:xlink="http://www.w3.org/1999/xlink" 
	 width="800px" height="800px" viewBox="0 0 512 512"  xml:space="preserve">
<style type="text/css">
<![CDATA[
	.st0{fill:#000000;}
]]>
</style>
<g>
	<polygon class="st0" points="336.156,239.469 280.922,239.469 274.984,248.688 274.984,270.797 336.156,270.797 336.156,270.875 
		336.156,297.703 336.156,302.188 274.984,302.188 274.984,349.563 237,349.563 237,302.188 175.844,302.188 175.844,297.703 
		175.844,270.875 175.844,270.797 237,270.797 237,248.719 231.063,239.469 175.844,239.469 175.844,212.656 213.813,212.656 
		181.531,162.422 213.719,162.422 255.984,228.188 298.266,162.422 330.453,162.422 298.203,212.656 336.156,212.656 	"/>
	<path class="st0" d="M256,64c105.875,0,192,86.125,192,192s-86.125,192-192,192c-105.859,0-192-86.125-192-192S150.141,64,256,64
		 M256,0C114.609,0,0,114.625,0,256c0,141.391,114.609,256,256,256c141.375,0,256-114.609,256-256C512,114.625,397.375,0,256,0z"/>
</g>
</svg>