<?xml version="1.0" encoding="utf-8"?>

<!DOCTYPE svg PUBLIC "-//W3C//DTD SVG 1.1//EN" "http://www.w3.org/Graphics/SVG/1.1/DTD/svg11.dtd">

<svg version="1.1" id="_x32_" xmlns="http://www.w3.org/2000/svg" xmlns:xlink="http://www.w3.org/1999/xlink" 
	 width="800px" height="800px" viewBox="0 0 512 512"  xml:space="preserve">
<style type="text/css">
<![CDATA[
	.st0{fill:#000000;}
]]>
</style>
<g>
	<path class="st0" d="M307.688,198.781l-4.891-2.031c-8.031-3.406-16.375-5.094-24.828-5.094c-24.406,0-46.844,14.156-57.609,35.828
		h81.438l-5.016,24.328H213.75c-0.094,1.375-0.172,2.781-0.172,4.188c0,3.469,0.313,7.016,0.906,10.563h79.281l-5,24.313h-64.797
		c11.797,18.391,31.922,29.531,54,29.531c7.5,0,15-1.391,22.313-4.125l5.844-2.156v34.219l-3.203,0.844
		c-8.203,2.219-16.594,3.344-24.953,3.344c-39.75,0-75.5-24.656-89.875-61.656h-20.563v-24.313h14.594
		c-0.453-3.719-0.672-7.188-0.672-10.563c0-1.391,0.031-2.813,0.109-4.188h-14.031v-24.328h18.344
		c12.453-40.203,49.859-68,92.094-68c11.219,0,22.25,1.984,32.781,5.828l3.5,1.281L307.688,198.781z"/>
	<path class="st0" d="M256,0C114.625,0,0,114.625,0,256c0,141.391,114.625,256,256,256s256-114.609,256-256
		C512,114.625,397.375,0,256,0z M256,464c-114.688,0-208-93.313-208-208S141.313,48,256,48c114.703,0,208,93.313,208,208
		S370.703,464,256,464z"/>
	<path class="st0" d="M256,80c-97.047,0-176,78.953-176,176s78.953,176,176,176s176-78.953,176-176S353.047,80,256,80z M256,416
		c-88.219,0-160-71.781-160-160S167.781,96,256,96c88.234,0,160,71.781,160,160S344.234,416,256,416z"/>
</g>
</svg>