<?xml version="1.0" encoding="utf-8"?>

<!DOCTYPE svg PUBLIC "-//W3C//DTD SVG 1.1//EN" "http://www.w3.org/Graphics/SVG/1.1/DTD/svg11.dtd">

<svg height="800px" width="800px" version="1.1" id="_x32_" xmlns="http://www.w3.org/2000/svg" xmlns:xlink="http://www.w3.org/1999/xlink" 
	 viewBox="0 0 512 512"  xml:space="preserve">
<style type="text/css">
	.st0{fill:#000000;}
</style>
<g>
	<polygon class="st0" points="256.003,438.031 278.751,375.92 266.06,311.26 276.255,304.462 276.255,290.113 256.003,290.113 
		235.745,290.113 235.745,304.462 245.941,311.259 233.249,375.92 	"/>
	<path class="st0" d="M463.212,422.569l-3.824-24.35c-3.203-20.417-16.035-38.042-34.475-47.361l-80.472-40.693
		c-10.813-5.46-13.678-22.243-13.678-22.243c-0.676-1.096-1.939-1.686-3.213-1.488c-1.273,0.188-2.308,1.113-2.637,2.359
		l-9.432,36.254l-59.478,162.406l-59.486-162.406l-9.43-36.254c-0.328-1.246-1.363-2.172-2.637-2.359
		c-1.273-0.197-2.539,0.392-3.213,1.488c0,0-2.865,16.783-13.678,22.243l-80.473,40.693c-18.442,9.319-31.272,26.944-34.475,47.361
		l-3.826,24.35c-1.361,8.692,0.438,21.448,8.225,27.825C67.419,458.907,105.875,512,256.003,512
		c150.123,0,188.578-53.093,198.986-61.606C462.779,444.017,464.576,431.261,463.212,422.569z"/>
	<path class="st0" d="M154.757,135.219c15.49-1.012,84.242-9.59,129.408-82.978c16.65,30.279,59.047,74.821,73.008,83.54
		l3.686-29.089C365.814,44.768,315.281,0,256.003,0c-59.285,0-109.814,44.768-104.861,106.692L154.757,135.219z"/>
	<path class="st0" d="M335.919,212.081c-23.976,15.987-38.363-33.566-79.922-33.566c-41.558,0-55.943,49.553-79.92,33.566
		c1.601,14.386,47.951,43.155,79.92-4.796C287.966,255.236,334.318,226.467,335.919,212.081z"/>
</g>
</svg>