<?xml version="1.0" encoding="utf-8"?>

<!DOCTYPE svg PUBLIC "-//W3C//DTD SVG 1.1//EN" "http://www.w3.org/Graphics/SVG/1.1/DTD/svg11.dtd">

<svg version="1.1" id="_x32_" xmlns="http://www.w3.org/2000/svg" xmlns:xlink="http://www.w3.org/1999/xlink" 
	 width="800px" height="800px" viewBox="0 0 512 512"  xml:space="preserve">
<style type="text/css">
<![CDATA[
	.st0{fill:#000000;}
]]>
</style>
<g>
	<path class="st0" d="M458.703,449.828c-2.172-6.172-5.375-11.234-8.672-15.891c-4.969-6.891-10.438-12.875-14.203-17.516
		c-1.766-2.125-3.078-3.906-3.703-4.938c-0.094-1.531-0.219-3.109-0.406-5.094c-0.984-10.359-3.375-29.094-5.969-50.656
		c-2.563-21.547-5.313-45.766-6.938-66.234c-3.531-43.969-26.906-85.953-66.172-111.797c-1.266-1.469-2.391-2.859-3.516-4.203
		h17.719l74.906-62.266c6.781-5.625,7.688-15.688,2.063-22.469s-15.688-7.719-22.469-2.063l-66.031,54.875h-10.375
		c3.688-6.688,8.422-15.547,13.219-25.172c5.031-10.078,10.063-20.922,14.031-31.094c1.969-5.094,3.672-10.031,4.953-14.797
		c1.266-4.797,2.172-9.328,2.234-14.406c-0.031-2.641-0.281-5.516-1.344-8.813l-1.219-3.656l-2.75-2.688
		c-10.328-10.047-23.219-15.594-36.313-18.938c-13.109-3.297-26.703-4.391-39.406-4.391c-11.594,0-22.344,0.922-31.313,2.172
		l-7.797-18.641l-9.766-0.719C245.547,0.141,241.719,0,238,0c-34.875-0.031-61.344,12.172-78.625,24.391
		c-17.344,12.219-25.906,24.344-26.656,25.391l-5.047,7.266l36.156,84.609c-8.516,0.344-15.297,7.297-15.297,15.891
		c0,8.563,6.75,15.5,15.234,15.875c-1.063,1.203-2.234,2.453-3.672,3.781C120.375,203,96.719,245.25,93.172,289.5
		c-1.859,23.406-5.172,51.688-8.016,75.281c-1.438,11.797-2.75,22.438-3.719,30.813c-0.484,4.188-0.891,7.813-1.172,10.797
		c-0.172,1.984-0.297,3.563-0.391,5.109c-0.813,1.313-2.781,3.859-5.281,6.813c-4,4.813-9.281,10.719-13.938,17.531
		c-2.344,3.422-4.563,7.125-6.344,11.328c-1.75,4.188-3.141,9.016-3.156,14.516c-0.094,13.328,6.266,26.938,17.953,36.109
		C80.797,507.047,96.969,512,116.719,512c34.344,0,252.797,0,278.563,0c19.75,0,35.922-4.953,47.594-14.203
		c11.703-9.156,18.063-22.781,17.969-36.109C460.828,457.313,459.938,453.359,458.703,449.828z M179,49.609
		c13.141-8.906,32.234-17.547,58.5-17.688L256,76.188c3.406,8.125,12.75,11.969,20.891,8.563s11.969-12.734,8.547-20.875
		l-1.844-4.391c-0.109-1.672-0.422-3.359-1.109-5l-1.734-4.141c5.5-0.484,11.469-0.813,17.594-0.813
		c10.813-0.016,22.031,1,31.594,3.438c6.781,1.688,12.5,4.141,16.938,7.016c-0.156,0.688-0.344,1.453-0.563,2.266
		c-1.5,5.609-4.516,13.531-8.188,21.828c-5.5,12.484-12.438,26.016-17.969,36.281c-2.766,5.156-5.188,9.5-6.906,12.547
		c-0.844,1.516-1.531,2.719-2,3.531s-0.688,1.203-0.703,1.203l0.031,0.016c-0.828,1.25-1.578,2.563-2.266,3.922H198.656
		c-0.75-1.844-1.563-3.625-2.438-5.297l-31.813-74.5C167.75,58.344,172.625,53.953,179,49.609z M423.016,472.797
		c-4.531,3.641-13.172,7.281-27.734,7.281c-17.172,0-244.219,0-278.563,0c-14.563,0-23.219-3.641-27.75-7.281
		c-4.531-3.719-5.781-7.266-5.906-11.109l0.063-0.266c0.094-0.828,1.188-3.594,3.375-6.844c3.25-4.969,8.5-10.906,13.391-16.75
		c2.453-2.969,4.828-5.891,6.984-9.297c1.094-1.703,2.125-3.563,3.047-5.828c0.891-2.266,1.75-5.047,1.781-8.719
		c-0.016,0,0.078-1.984,0.328-4.563c0.906-9.297,3.297-28.281,5.875-49.906c2.594-21.688,5.391-46.203,7.094-67.469
		c2.797-35.125,21.828-68.813,53.656-88.891l1.188-0.734l0.969-0.891c7.156-6.438,12.547-13.172,16.156-20.297
		c1.297-2.547,2.281-5.141,3.094-7.734h110.094c1.797,3.359,3.781,6.609,6.156,9.906c3.719,5.125,8.172,10.5,13.391,16.625
		l1.578,1.844l2.063,1.281c31.828,20.078,50.844,53.766,53.656,88.891c1.938,24.297,5.313,52.859,8.172,76.563
		c1.422,11.844,2.734,22.469,3.703,30.641c0.453,4.078,0.828,7.547,1.094,10.172c0.25,2.578,0.359,4.563,0.344,4.563
		c0.078,5.219,1.625,8.594,3,11.391c2.516,4.797,5.438,8.328,8.469,12.063c4.563,5.469,9.438,10.969,12.797,15.797
		c1.672,2.391,2.953,4.563,3.609,6.141c0.344,0.781,0.547,1.391,0.641,1.797l0.078,0.422l0.016,0.094
		C428.813,465.531,427.563,469.078,423.016,472.797z"/>
	<path class="st0" d="M443.813,173.359l-35.25-18.984l-26.484,21.984l46.609,25.094c7.766,4.172,17.438,1.281,21.625-6.484
		C454.484,187.219,451.563,177.531,443.813,173.359z"/>
	<path class="st0" d="M284.125,356.563c2.563-1.281,3.938-3.219,6.984-5.281c3.047-2.078,5.578-4.391,7.547-6.938
		c2-2.563,3.453-5.297,4.406-8.219c0.938-2.938,1.406-6,1.406-9.219c0-5.594-0.938-10.641-2.844-15.109
		c-1.875-4.469-4.844-8.281-8.906-11.422c-4.063-3.156-9.25-5.578-15.594-7.266c-4.953-1.344-10.75-2.141-17.313-2.422v-14.875
		h-21.594v14.75h-27.188h-8.906v11.094c-0.016,3.266-0.234,5.234,2.906,5.906c0.281,0.047,0.688,0.125,1.188,0.203
		c0.516,0.109,1.453,0.266,2.828,0.531c1.359,0.234-0.375,0.563,1.984,0.969v99.125c-2.359,0.422-0.625,0.75-1.984,0.984
		c-1.375,0.25-2.313,0.422-2.828,0.5c-0.5,0.109-0.906,0.172-1.188,0.234c-3.141,0.672-2.922,2.625-2.906,5.891v11.109h8.906h27.188
		v13.813h21.594v-13.813h2.781c7.938,0,14.984-1,21.141-3.016c6.172-2.016,11.375-4.797,15.578-8.375
		c4.234-3.531,7.438-7.781,9.641-12.688c2.203-4.922,3.313-10.266,3.313-16.063C312.266,370.922,302.875,360.781,284.125,356.563z
		 M236.422,310.203h17.813c8.563,0,14.859,1.516,18.891,4.516c4.031,3.031,6.047,8.109,6.047,15.219
		c0,6.859-2.234,11.859-6.703,15.016c-4.469,3.141-11.031,4.719-19.656,4.719h-16.391V310.203z M282.688,394.438
		c-0.844,2.516-2.234,4.719-4.156,6.609c-1.906,1.891-4.469,3.391-7.656,4.531c-3.172,1.125-7.125,1.703-11.844,1.703h-22.609
		V367.25h22.516c4.469,0,8.281,0.422,11.422,1.297c3.156,0.891,5.734,2.172,7.734,3.828c2.031,1.672,3.5,3.703,4.453,6.047
		c0.938,2.375,1.422,5.016,1.422,7.984C283.969,389.234,283.531,391.922,282.688,394.438z"/>
</g>
</svg>