<?xml version="1.0" encoding="utf-8"?>

<!DOCTYPE svg PUBLIC "-//W3C//DTD SVG 1.1//EN" "http://www.w3.org/Graphics/SVG/1.1/DTD/svg11.dtd">

<svg version="1.1" id="_x32_" xmlns="http://www.w3.org/2000/svg" xmlns:xlink="http://www.w3.org/1999/xlink" 
	 width="800px" height="800px" viewBox="0 0 512 512"  xml:space="preserve">
<style type="text/css">
<![CDATA[
	.st0{fill:#000000;}
]]>
</style>
<g>
	<path class="st0" d="M396.625,140.625c-63.719,0-115.406,51.656-115.406,115.375s51.688,115.375,115.406,115.375
		S512,319.719,512,256S460.344,140.625,396.625,140.625z M396.625,342.531c-47.719,0-86.547-38.813-86.547-86.531
		s38.828-86.531,86.547-86.531s86.531,38.813,86.531,86.531S444.344,342.531,396.625,342.531z"/>
	<path class="st0" d="M419.125,254.656c4.219-1.625,8.938-6.406,10.344-8.094c1.406-1.672,2.438-3.484,3.109-5.406
		c0.672-1.938,1.016-3.969,1.016-6.094c0-3.688-0.688-7.031-2.031-9.969c-1.344-2.969-3.516-5.375-6.328-7.563
		c-5.016-3.891-12.328-5.75-18.234-6.25v-12.688h-10.953v12.531l-9.922-0.031v-12.5h-10.953v12.469h-8.688H355.25V221
		c0,2.156-0.156,3.453,2.078,3.906c0.188,0.031,0.484,0.094,0.844,0.125c0.359,0.063,4.734,0.219,5.719,0.344
		c1.5,0.219,2.594,1,2.594,3.047v53.984c0,1.688-0.828,3.344-2.594,3.344c-0.984,0-5.359,0.281-5.719,0.344
		s-0.641,0.094-0.844,0.141c-2.234,0.453-2.078,1.75-2.078,3.891v11.125h11.234h8.688v12.141h10.953V301.25h9.922v12.141H407
		v-12.234c4.063-0.219,8.406-0.844,11.844-1.906c4.406-1.344,6.953-3.188,9.938-5.531c3-2.344,5.281-5.125,6.859-8.375
		c1.563-3.25,2.344-6.781,2.344-10.609C437.984,264.125,431.984,256.875,419.125,254.656z M386.719,227.031h8.875
		c4.688,0,8.125,0.781,10.344,2.313c2.188,1.531,3.297,4.094,3.297,7.719c0,3.5-1.234,6.031-3.672,7.625s-6.016,2.406-10.719,2.406
		h-8.125V227.031z M411.547,278.563c-0.469,1.281-1.234,2.406-2.266,3.375c-1.063,0.953-2.438,1.719-4.188,2.297
		s-3.906,0.859-6.469,0.859h-11.5V264.75h11.438c2.438,0,4.531,0.219,6.25,0.656c1.719,0.469,3.125,1.094,4.219,1.969
		c1.125,0.844,1.922,1.859,2.438,3.063c0.531,1.188,0.781,2.563,0.781,4.063C412.25,275.938,412,277.281,411.547,278.563z"/>
	<path class="st0" d="M230.781,256c0-63.719-51.672-115.375-115.406-115.375C51.656,140.625,0,192.281,0,256
		s51.656,115.375,115.375,115.375C179.109,371.375,230.781,319.719,230.781,256z M150.219,285.688c-1.938,3.656-4.625,6.703-8,9.188
		c-3.406,2.5-7.469,4.344-12.188,5.563c-2.078,0.531-4.234,0.891-6.438,1.188v13.766h-16.438v-13.484
		c-4.656-0.406-9.141-1.125-13.344-2.281c-6.438-1.781-14.859-8.875-14.859-8.875c-0.734-0.422-1.203-1.156-1.297-1.984
		s0.188-1.656,0.766-2.266l8.234-8.219c0.891-0.875,2.266-1.047,3.328-0.391c0,0,6.172,5.359,10.828,6.641
		c4.672,1.25,9.313,1.875,13.922,1.875c5.828,0,10.641-1.016,14.469-3.063c3.828-2.094,5.734-5.281,5.734-9.656
		c0-3.156-0.938-5.656-2.828-7.469c-1.859-1.813-5.047-2.969-9.547-3.469l-14.75-1.25c-8.719-0.875-15.469-3.281-20.188-7.281
		c-4.75-4-7.109-10.094-7.109-18.219c0-4.469,0.922-8.484,2.734-12c1.813-3.531,4.313-6.5,7.469-8.922s6.813-4.234,11-5.453
		c1.75-0.5,3.594-0.844,5.438-1.156v-11.844h16.438v11.625c3.844,0.375,7.5,0.984,10.891,1.906
		c5.766,1.594,11.828,6.313,11.828,6.313c0.75,0.406,1.266,1.125,1.391,1.984c0.125,0.844-0.156,1.688-0.734,2.297l-7.719,7.844
		c-0.844,0.844-2.109,1.063-3.156,0.5c0,0-4.578-3.25-8.531-4.281c-3.938-1.031-8.094-1.531-12.469-1.531
		c-5.703,0-9.906,1.078-12.641,3.25c-2.734,2.203-4.078,5.063-4.078,8.563c0,3.156,0.938,5.594,2.906,7.281
		c1.938,1.703,5.203,2.813,9.813,3.281l12.922,1.094c9.578,0.844,16.828,3.375,21.734,7.625c4.938,4.25,7.391,10.453,7.391,18.563
		C153.141,277.813,152.156,282.063,150.219,285.688z"/>
	<path class="st0" d="M155.938,121.688c27.281-21.375,61.531-34.125,98.906-34.125c0.469,0,0.938,0.031,1.406,0.031L244.203,124
		l119.828-29.281l-82.453-83.688L266.875,55.5c-3.984-0.25-8-0.406-12.031-0.406c-53.219,0-101.563,21.625-136.406,56.5
		c-1.25,1.25-2.438,2.531-3.625,3.797c0.188,0,0.375-0.016,0.563-0.016C129.531,115.375,143.156,117.594,155.938,121.688z"/>
	<path class="st0" d="M356.063,390.313c-27.281,21.375-61.531,34.125-98.906,34.141c-0.469,0-0.938-0.047-1.406-0.047L267.797,388
		l-119.828,29.281l82.453,83.688l14.703-44.469c3.984,0.25,8,0.406,12.031,0.406c53.219,0,101.563-21.625,136.406-56.5
		c1.25-1.234,2.438-2.531,3.625-3.781c-0.188,0-0.375,0-0.563,0C382.469,396.625,368.844,394.406,356.063,390.313z"/>
</g>
</svg>