<?xml version="1.0" encoding="utf-8"?>

<!DOCTYPE svg PUBLIC "-//W3C//DTD SVG 1.1//EN" "http://www.w3.org/Graphics/SVG/1.1/DTD/svg11.dtd">

<svg version="1.1" id="_x32_" xmlns="http://www.w3.org/2000/svg" xmlns:xlink="http://www.w3.org/1999/xlink" 
	 width="800px" height="800px" viewBox="0 0 512 512"  xml:space="preserve">
<style type="text/css">
<![CDATA[
	.st0{fill:#000000;}
]]>
</style>
<g>
	<path class="st0" d="M326.344,137l-11.641,16.047c1.797,0.766,3.547,1.547,5.266,2.344s3.375,1.609,5,2.438
		s3.188,1.672,4.719,2.531c1.516,0.859,3,1.734,4.438,2.609c2.406,1.516,4.641,3.266,6.625,5.063c2,1.797,3.766,3.641,5.234,5.297
		c1.469,1.672,2.656,3.156,3.484,4.266c0.844,1.109,1.328,1.844,1.406,1.969l0.672,0.844l0.359,0.922l0.031,0.953l-0.25,0.969
		l-0.625,0.891l-0.875,0.766l-1.063,0.609l-1.219,0.438l-22.938,5.656l-1.203,0.203l-1.203,0.031l-1.156-0.125l-1.094-0.281
		l-0.563-0.219l-0.547-0.297l-0.484-0.313l-0.438-0.375c-0.078-0.094-0.469-0.609-1.125-1.406c-0.641-0.797-1.563-1.844-2.672-3.016
		c-1.109-1.188-2.422-2.469-3.875-3.719c-1.469-1.266-3.047-2.469-4.75-3.484c-1.656-1.016-3.375-2-5.156-2.938
		s-3.609-1.859-5.516-2.719c-1.891-0.875-3.844-1.719-5.859-2.516s-4.078-1.563-6.203-2.297c-2.781-0.953-5.469-1.75-8.031-2.391
		c-2.547-0.625-5-1.109-7.344-1.438c-2.328-0.328-4.531-0.5-6.641-0.516s-4.094,0.109-5.969,0.406
		c-1.891,0.297-3.641,0.719-5.281,1.25s-3.141,1.188-4.531,1.938c-1.391,0.766-2.656,1.641-3.797,2.609
		c-1.125,1-2.141,2.094-3.016,3.297c-0.797,1.094-1.422,2.156-1.891,3.203c-0.469,1.031-0.75,2.063-0.891,3.063
		s-0.109,1.969,0.094,2.922c0.188,0.953,0.547,1.891,1.078,2.797c0.531,0.922,1.25,1.844,2.188,2.75
		c0.922,0.922,2.063,1.844,3.391,2.781c1.328,0.922,2.859,1.844,4.594,2.781c1.734,0.922,3.672,1.859,5.797,2.781L277,206.531
		c4.469,1.891,8.563,3.844,12.25,5.844c3.703,2,7,4.031,9.906,6.141c2.891,2.094,5.406,4.234,7.531,6.422
		c2.125,2.203,3.859,4.453,5.188,6.75c1.359,2.297,2.281,4.656,2.781,7.078c0.484,2.438,0.563,4.922,0.203,7.484
		c-0.344,2.563-1.109,5.172-2.313,7.859c-1.188,2.688-2.813,5.438-4.844,8.25c-1.219,1.688-2.516,3.281-3.906,4.766
		c-1.391,1.5-2.828,2.906-4.391,4.219c-1.531,1.313-3.156,2.531-4.844,3.641c-1.703,1.125-3.469,2.156-5.313,3.078
		c-1.875,0.969-3.813,1.828-5.781,2.609c-1.984,0.766-4.016,1.469-6.094,2.078s-4.203,1.141-6.391,1.594
		c-2.172,0.453-4.391,0.828-6.672,1.141c-2.297,0.297-4.625,0.5-7,0.625s-4.781,0.172-7.234,0.125
		c-2.469-0.047-4.969-0.156-7.5-0.359c-2.547-0.203-5.109-0.469-7.734-0.844c-1.156-0.172-2.297-0.375-3.438-0.578
		c-1.141-0.188-2.297-0.406-3.438-0.625c-1.156-0.234-2.313-0.469-3.453-0.719c-1.156-0.25-2.328-0.516-3.484-0.781l-13.828,19.094
		l-32.125-11.016l13.563-18.688c-2.188-0.922-4.328-1.859-6.422-2.828s-4.125-1.953-6.125-2.969
		c-1.969-1.016-3.922-2.047-5.797-3.109s-3.703-2.141-5.484-3.25c-2.703-1.688-5.281-3.875-7.656-6.203
		c-2.344-2.344-4.469-4.844-6.281-7.156s-3.297-4.438-4.344-6.031c-1.063-1.578-1.688-2.656-1.813-2.844l-0.609-0.859l-0.297-0.922
		l0.031-0.938l0.313-0.906l0.594-0.859l0.859-0.734l1.078-0.594l1.25-0.391l24.375-5.922l1.156-0.203l1.156-0.016l1.125,0.125
		l1.063,0.266l0.703,0.297l0.641,0.344l0.563,0.406l0.484,0.469c0.078,0.141,0.547,0.938,1.297,2.125
		c0.781,1.172,1.844,2.75,3.156,4.469c1.297,1.719,2.844,3.563,4.547,5.281c1.703,1.734,3.578,3.344,5.547,4.563
		c1.938,1.219,3.938,2.391,5.969,3.484c2.016,1.125,4.078,2.172,6.188,3.172s4.25,1.938,6.438,2.813
		c2.172,0.891,4.391,1.719,6.641,2.5c2.859,0.969,5.672,1.813,8.406,2.531s5.406,1.313,8.031,1.766
		c2.609,0.453,5.188,0.766,7.688,0.969c2.5,0.188,4.953,0.234,7.328,0.172c2.406-0.078,4.641-0.344,6.719-0.781
		c2.063-0.438,3.969-1.047,5.719-1.844c1.734-0.797,3.313-1.766,4.734-2.922c1.438-1.172,2.688-2.5,3.797-4.016
		c0.781-1.094,1.406-2.156,1.875-3.219c0.484-1.047,0.797-2.078,0.953-3.109c0.156-1.016,0.172-2.016,0.016-3.016
		c-0.156-0.969-0.469-1.938-0.938-2.875s-1.125-1.891-1.984-2.813c-0.875-0.953-1.953-1.891-3.219-2.828s-2.734-1.875-4.391-2.797
		c-1.688-0.938-3.547-1.859-5.625-2.797l-27.547-11.625c-4.047-1.75-7.766-3.563-11.141-5.422c-3.359-1.844-6.391-3.766-9.078-5.734
		c-2.688-1.953-5.031-3.969-7.016-6.031c-2-2.078-3.656-4.203-4.938-6.375c-1.313-2.172-2.219-4.422-2.688-6.766
		c-0.453-2.328-0.5-4.734-0.141-7.234c0.375-2.484,1.172-5.047,2.391-7.703c1.203-2.656,2.844-5.391,4.875-8.203
		c1.125-1.531,2.328-3,3.609-4.391s2.641-2.688,4.078-3.922c1.453-1.234,2.969-2.375,4.578-3.438
		c1.609-1.078,3.297-2.063,5.094-2.969c1.766-0.922,3.578-1.766,5.438-2.516c1.859-0.781,3.766-1.469,5.734-2.078
		c1.969-0.625,3.953-1.156,6-1.609c2.063-0.469,4.156-0.844,6.297-1.156c2.141-0.297,4.328-0.547,6.516-0.688
		c2.203-0.172,4.422-0.266,6.688-0.281c2.25-0.016,4.516,0.047,6.813,0.172c2.297,0.141,4.625,0.344,6.969,0.625
		c0.984,0.125,1.969,0.25,2.953,0.406s1.969,0.313,2.938,0.484c0.984,0.172,1.953,0.359,2.938,0.563
		c0.984,0.188,1.969,0.406,2.953,0.609l11.891-16.375L326.344,137z"/>
	<path class="st0" d="M256,55.109c-141.375,0-256,72.266-256,161.422v78.938c0,89.172,114.625,161.422,256,161.422
		s256-72.25,256-161.422v-78.938C512,127.375,397.375,55.109,256,55.109z M256,89.734c120,0,221.375,58.063,221.375,126.797
		C477.375,285.25,376,343.313,256,343.313S34.625,285.25,34.625,216.531C34.625,147.797,136,89.734,256,89.734z"/>
</g>
</svg>