<?xml version="1.0" encoding="utf-8"?>

<!DOCTYPE svg PUBLIC "-//W3C//DTD SVG 1.1//EN" "http://www.w3.org/Graphics/SVG/1.1/DTD/svg11.dtd">

<svg version="1.1" id="_x32_" xmlns="http://www.w3.org/2000/svg" xmlns:xlink="http://www.w3.org/1999/xlink" 
	 width="800px" height="800px" viewBox="0 0 512 512"  xml:space="preserve">
<style type="text/css">
<![CDATA[
	.st0{fill:#000000;}
]]>
</style>
<g>
	<path class="st0" d="M287.758,162.229c43.734,0,79.203-35.484,79.203-79.234S331.493,3.776,287.758,3.776
		c-43.75,0-79.234,35.469-79.234,79.219S244.008,162.229,287.758,162.229z M287.758,23.588c32.766,0,59.422,26.641,59.422,59.406
		s-26.656,59.406-59.422,59.406s-59.422-26.641-59.422-59.406S254.993,23.588,287.758,23.588z"/>
	<path class="st0" d="M273.477,116.026h2.438c2.688,0,4.875-2.188,4.875-4.875v-14h9.547c12.766,0,23.172-9.109,23.172-20.297
		s-10.406-20.297-23.172-20.297h-16.859c-2.688,0-4.875,2.188-4.875,4.875v49.719C268.602,113.838,270.79,116.026,273.477,116.026z
		 M280.79,67.245h9.547c6.063,0,10.969,4.313,10.969,9.609c0,5.313-4.906,9.609-10.969,9.609h-9.547V67.245z"/>
	<path class="st0" d="M507.477,170.323c-3.484-1.156-7.234,0.719-8.375,4.203c-3,8.875-7.016,13.938-11.5,17.297
		c-1.344,0.984-2.75,1.781-4.203,2.516c0.719-2.719,1.109-5.516,1.109-8.359c0-4.453-0.984-9.047-3.438-13.156
		c-2.109-3.547-5.094-6.375-8.484-8.25c-3.391-1.891-7.219-2.875-11.094-2.875c-3.75,0-7.563,0.969-11.031,2.906
		c-0.047,0.016-0.094,0.031-0.156,0.063c-0.078,0.047-0.172,0.063-0.25,0.125l-0.031,0.016c-0.016,0-0.016,0-0.016,0l-0.156,0.078
		c0,0,0,0.031-0.016,0.031c0,0-0.016,0-0.016,0.016c-0.125,0.063-0.219,0.156-0.344,0.25c0,0-0.016,0.016-0.047,0.016
		c-3.266,2.109-5.875,4.891-7.656,8.109c-1.891,3.391-2.875,7.203-2.875,11.094c0,3.969,1.047,8.016,3.219,11.656
		c2.734,4.531,6.781,8.203,11.453,10.891c0.875,0.516,1.828,0.953,2.766,1.406c-2.188,1.359-4.641,2.656-7.328,3.75
		c-3.594,1.469-7.641,2.547-12.016,3.141c-14.671-22.531-36.531-43.266-67.906-60.703c-4.984-2.75-10.078-5.188-15.266-7.344
		c-8.797,9.063-19.438,16.344-31.297,21.188c-4.656,1.906-5.188,5.844,0.25,6.516c4.813,0.609,9.609,1.313,14.391,2.141v23.813
		c-40.234-5.078-70.188-5.078-110.422,0v-23.813c6.828-1.156,13.688-2.141,20.594-2.859c6.375-0.672,6.297-5.281,0.344-8.188
		c-11.234-5.422-21.203-13.094-29.328-22.391c-25.188,6.891-47.578,16.844-64.109,27.172c-29.5-18.656-55.75-13.797-63.703-11.453
		l10.859,57.922c-21.688,26.813-39.156,35.797-39.156,35.797l-43.828,8.641c-6.203,0-11.984,3.125-15.391,8.297
		c-3.406,5.188-3.969,11.734-1.516,17.422l33.641,95.859c2.922,6.75,9.563,11.125,16.906,11.125l71.875,15.047l30.313,76.297
		c15.156,33.563,55.734,26.516,57.359-1.078l6.5-37.891h104.984c0,0,3.25,16.891,4.859,31.406
		c2.438,21.906,34.625,50.328,67.109,6.484c37.375-50.469,97-166.047,49.031-257.297c6.109-1.375,11.672-3.469,16.391-6.078
		c4.047-2.234,7.531-4.781,10.453-7.406c1.047-0.969,2-1.938,2.906-2.922c0.063-0.016,0.141-0.031,0.188-0.047l0.016,0.016
		c7.031-1.156,14.625-3.422,21.438-8.469c6.828-5.031,12.563-12.797,16.188-23.766C512.805,175.213,510.945,171.479,507.477,170.323
		z M470.133,192.448c-0.719,2.063-1.781,3.984-3,5.547c-2.266-0.328-4.734-1.234-6.969-2.516c-2.953-1.672-5.438-4.078-6.688-6.203
		v0.016c-0.922-1.563-1.344-3.219-1.344-4.891c0-1.625,0.422-3.25,1.203-4.672c0.781-1.406,1.906-2.609,3.406-3.5
		c1.5-0.875,3.125-1.281,4.75-1.281c1.625-0.016,3.234,0.406,4.672,1.188c1.406,0.797,2.641,1.953,3.547,3.469
		c1,1.656,1.563,3.859,1.563,6.375C471.273,188.073,470.883,190.323,470.133,192.448z"/>
</g>
</svg>