<?xml version="1.0" encoding="utf-8"?>

<!DOCTYPE svg PUBLIC "-//W3C//DTD SVG 1.1//EN" "http://www.w3.org/Graphics/SVG/1.1/DTD/svg11.dtd">

<svg version="1.1" id="_x32_" xmlns="http://www.w3.org/2000/svg" xmlns:xlink="http://www.w3.org/1999/xlink" 
	 width="800px" height="800px" viewBox="0 0 512 512"  xml:space="preserve">
<style type="text/css">
<![CDATA[
	.st0{fill:#000000;}
]]>
</style>
<g>
	<path class="st0" d="M385.281,348.022c8.172,5.75,19.281,17.063,19.281,17.063c0.906,0.797,2.125,1.094,3.297,0.813
		c1.172-0.266,2.125-1.109,2.563-2.219c0,0,51.859-132.016,78.734-200.469c-96.563-106.078-276.75,0.719-385.125-75.328
		C95.813,82.101,84.594,70.71,84.594,70.71c-0.875-0.797-2.125-1.094-3.281-0.828c-1.172,0.281-2.125,1.125-2.563,2.234
		c0,0-51.859,132.016-78.75,200.469C96.625,378.726,276.922,271.772,385.281,348.022z M317.984,137.241
		c39.094-1.25,76.953,0.625,110.234,14.203c-5.234,18.531,2.828,37.734,17.188,52.125c-11.422,29.109-22.859,58.219-34.297,87.344
		c-16.672-8.531-35.891,0.688-44.578,17.578c-33.266-13.594-71.125-15.453-110.219-14.219c32.563-16.297,61.25-44.328,74.531-78.125
		C344.094,182.382,338.469,151.71,317.984,137.241z M295.656,171.788c0.594,0.188,1.203,0.359,1.813,0.563
		c-3.375,5.359-6.75,10.734-10.109,16.109c-0.797-0.297-1.641-0.594-2.453-0.875c-4-1.469-8.563-2.078-13.5-1.781
		c-14.281,0.813-30.203,8.641-40.719,19.734c15.875-0.859,31.844-1.953,47.656-2.688c-2.563,4.063-5.094,8.125-7.656,12.188
		c-16.156,0.797-32.438,1.922-48.594,2.75c-0.344,0.703-0.625,1.391-0.906,2.078c-0.688,1.734-1.188,3.469-1.531,5.234
		c15.422-0.813,30.969-1.859,46.375-2.641c-2.531,4.063-5.094,8.141-7.641,12.203c-12.641,0.672-25.313,1.484-37.953,2.188
		c3.328,8.75,12.969,13.5,25.906,12.781c4.375-0.234,9.031-1.172,13.844-2.703c1.266-0.422,2.547-0.828,3.813-1.25
		c-2.219,5.656-4.438,11.297-6.656,16.969l-2.031,0.5c-5.219,1.328-10.344,2.156-15.234,2.422
		c-23.297,1.375-39.422-9.625-40.547-27.719c-3.969,0.141-7.938,0.266-11.906,0.344c1.594-4.016,3.156-8.031,4.75-12.047
		c2.797-0.063,5.609-0.141,8.438-0.234c0.453-1.844,1-3.547,1.656-5.234c0.266-0.688,0.563-1.391,0.875-2.078
		c-2.719,0.094-5.406,0.172-8.094,0.219c1.563-4.016,3.156-8.047,4.719-12.063c3.531-0.063,7.063-0.172,10.625-0.297
		c15.031-20.109,42.313-35.109,67.063-36.594C284.25,169.476,290.281,170.132,295.656,171.788z M43.75,232.194
		c11.438-29.109,22.875-58.219,34.313-87.328c16.656,8.531,35.875-0.703,44.531-17.578c33.281,13.609,71.172,15.469,110.281,14.234
		c-32.578,16.297-61.266,44.297-74.547,78.125c-13.266,33.766-7.641,64.453,12.828,78.906c-39.094,1.234-76.969-0.625-110.25-14.234
		C66.156,265.819,58.125,246.554,43.75,232.194z"/>
	<path class="st0" d="M126.938,227.007c6.219,1.047,13.188-3.047,15.438-8.781s-1.063-10.938-7.281-11.984
		c-6.203-1.031-12.953,2.516-15.203,8.234C117.641,220.21,120.719,225.991,126.938,227.007z"/>
	<path class="st0" d="M354.063,229.538c6.203,1.047,12.969-2.5,15.219-8.219c2.25-5.75-0.844-11.516-7.063-12.531
		s-13.188,3.047-15.438,8.781C344.531,223.288,347.844,228.538,354.063,229.538z"/>
	<path class="st0" d="M500.047,193.382l-84.109,215.531c-2.969-4.063-6.375-8.531-10.156-13.047l-0.172-0.203l-0.203-0.219
		c-9.594-10.234-24.344-22.109-45.844-31.359c-21.469-9.25-49.656-15.844-85.938-15.844c-1.156,0.016-2.375,0.016-3.625,0.031l0,0
		c-20.016,0-40.906,1.25-60.969,2.453c-20.594,1.234-41.719,2.484-62.094,2.484c-24.109,0-51-1.609-77.078-9.141
		c-17.547-5.094-34.641-12.844-50.547-24.516l-8.406,18.016C28,349.507,46.25,357.538,64.469,362.772
		c28.766,8.281,57.5,9.891,82.469,9.906c21.156-0.016,42.656-1.281,63.25-2.516c20.063-1.203,40.594-2.422,59.813-2.422h-0.125
		h0.297c1.109-0.016,2.266-0.031,3.453-0.016c33.953,0,59.344,6.109,78.25,14.25c18.781,8.078,31.188,18.172,39.172,26.625
		c5.328,6.406,10.109,12.953,13.516,17.891c1.75,2.5,3.125,4.578,4.063,6.031c0.484,0.719,0.844,1.281,1.094,1.656l0.25,0.438
		l0.078,0.109l2.516,4.016c1.469,2.375,4.156,3.703,6.922,3.438c2.766-0.25,5.156-2.063,6.172-4.641L512,216.288L500.047,193.382z"
		/>
</g>
</svg>