<?xml version="1.0" encoding="utf-8"?>

<!DOCTYPE svg PUBLIC "-//W3C//DTD SVG 1.1//EN" "http://www.w3.org/Graphics/SVG/1.1/DTD/svg11.dtd">

<svg version="1.1" id="_x32_" xmlns="http://www.w3.org/2000/svg" xmlns:xlink="http://www.w3.org/1999/xlink" 
	 width="800px" height="800px" viewBox="0 0 512 512"  xml:space="preserve">
<style type="text/css">
<![CDATA[
	.st0{fill:#000000;}
]]>
</style>
<g>
	<path class="st0" d="M443.969,124.922H68.031C30.469,124.922,0,155.375,0,192.953v199.938c0,37.563,30.453,68.016,68,68.031v17.328
		c0,11.047,8.953,20,20,20s20-8.953,20-20v-17.328h296v17.328c0,11.047,8.953,20,20,20s20-8.953,20-20v-17.328
		c37.563-0.016,68-30.469,68-68.031V192.953C512,155.375,481.547,124.922,443.969,124.922z M304.344,241.609l-4.125-1.734
		c-6.781-2.875-13.813-4.313-20.938-4.313c-20.594,0-39.516,11.953-48.594,30.234h68.688l-4.25,20.5h-70.031
		c-0.063,1.188-0.125,2.375-0.125,3.563c0,2.938,0.25,5.906,0.75,8.906h66.875l-4.219,20.516h-54.656
		c9.969,15.5,26.938,24.891,45.563,24.891c6.313,0,12.656-1.156,18.813-3.469l4.922-1.828v28.859l-2.703,0.719
		c-6.906,1.875-13.984,2.813-21.031,2.813c-33.531,0-63.688-20.781-75.813-51.984h-17.344v-20.516h12.297
		c-0.391-3.141-0.578-6.063-0.578-8.906c0-1.172,0.063-2.375,0.109-3.563h-11.828v-20.5h15.484
		c10.516-33.891,42.047-57.359,77.672-57.359c9.453,0,18.75,1.672,27.656,4.922l2.938,1.078L304.344,241.609z"/>
	<path class="st0" d="M181.891,76.906c0.016-8.656,3.469-16.344,9.125-22.031c5.688-5.672,13.375-9.125,22.031-9.125h90.391
		c4.359,0,7.922,0.844,11,2.25c4.594,2.125,8.313,5.578,11.141,10.469c2.797,4.875,4.531,11.219,4.531,18.438v16.828h32V76.906
		c0-16.391-5.234-31.984-15.484-43.828c-5.125-5.906-11.516-10.813-18.875-14.172c-7.359-3.375-15.641-5.172-24.313-5.156h-90.391
		c-34.891,0-63.141,28.281-63.156,63.156v16.828h32V76.906z"/>
</g>
</svg>