<?xml version="1.0" encoding="utf-8"?>

<!DOCTYPE svg PUBLIC "-//W3C//DTD SVG 1.1//EN" "http://www.w3.org/Graphics/SVG/1.1/DTD/svg11.dtd">

<svg version="1.1" id="_x32_" xmlns="http://www.w3.org/2000/svg" xmlns:xlink="http://www.w3.org/1999/xlink" 
	 width="800px" height="800px" viewBox="0 0 512 512"  xml:space="preserve">
<style type="text/css">
<![CDATA[
	.st0{fill:#000000;}
]]>
</style>
<g>
	<path class="st0" d="M451.531,0H60.469C27.094,0,0,27.078,0,60.469v391.063C0,484.922,27.094,512,60.469,512h391.063
		C484.938,512,512,484.922,512,451.531V60.469C512,27.078,484.938,0,451.531,0z M477.875,451.531
		c0,14.516-11.828,26.344-26.344,26.344H60.469c-14.516,0-26.344-11.828-26.344-26.344V60.469c0-14.516,11.828-26.344,26.344-26.344
		h391.063c14.516,0,26.344,11.828,26.344,26.344V451.531z"/>
	<path class="st0" d="M410.875,75.828h-309.75c-12.031,0-21.75,9.75-21.75,21.766v309.75c0,12.016,9.719,21.766,21.75,21.766h309.75
		c12.031,0,21.781-9.75,21.781-21.766V97.594C432.656,85.578,422.906,75.828,410.875,75.828z M415.594,127.281H395v56.5h20.594
		v144.438H395v56.5h20.594v22.625c0,2.594-2.125,4.688-4.719,4.688h-309.75c-2.594,0-4.688-2.094-4.688-4.688V97.594
		c0-2.594,2.094-4.703,4.688-4.703h309.75c2.594,0,4.719,2.109,4.719,4.703V127.281z"/>
	<path class="st0" d="M258.375,155.25c-55.375,0.016-100.25,44.906-100.25,100.266c0,55.391,44.875,100.266,100.25,100.266
		c55.391,0,100.281-44.875,100.281-100.266C358.656,200.156,313.766,155.266,258.375,155.25z M214.797,308.719
		c-0.703,1.266-1.953,2.125-3.391,2.375c-1.438,0.219-2.906-0.219-4-1.156c0,0,0.156,0.344-1.813-1.625
		c-13.547-13.547-21.875-32.125-21.875-52.797c0-20.641,8.328-39.234,21.875-52.781c1.781-1.781,1.172-1.078,1.172-1.078
		c1.078-0.969,2.547-1.406,4-1.172c1.438,0.234,2.703,1.109,3.438,2.359l24.109,41.781c-1.766,3.25-2.859,6.922-2.859,10.891
		c0,4.297,1.266,8.266,3.313,11.719l-22.719,39.328L214.797,308.719z M329.375,278.531c-3.656,11.344-9.938,21.5-18.188,29.781
		c-13.563,13.531-32.156,21.875-52.813,21.875c-5.25,0-10.391-0.563-15.328-1.641c-2.984-0.641-2.703-0.734-2.703-0.734
		c-1.438-0.406-2.625-1.438-3.188-2.828s-0.469-2.969,0.281-4.266l1.188-2.031l23.438-40.609c6.031-0.984,11.219-4.266,14.688-8.953
		h48.797c1.484,0,2.906,0.672,3.828,1.859c0.906,1.172,1.219,2.703,0.859,4.141C330.234,275.125,330.375,275.469,329.375,278.531z
		 M330.688,237.625c0.313,1.422-0.031,2.922-0.953,4.078c-0.922,1.141-2.297,1.813-3.766,1.813h-48.125
		c-3.594-5.797-9.656-9.813-16.75-10.656l-24.438-42.328c-0.75-1.297-0.859-2.844-0.313-4.234c0.563-1.391,1.719-2.422,3.156-2.828
		c0,0-0.094-0.188,2.969-0.844c5.125-1.141,10.438-1.781,15.906-1.781c20.656,0.031,39.25,8.359,52.813,21.891
		c8.844,8.859,15.406,19.891,18.906,32.266C330.875,237.766,330.688,237.625,330.688,237.625z"/>
</g>
</svg>