<?xml version="1.0" encoding="utf-8"?>

<!DOCTYPE svg PUBLIC "-//W3C//DTD SVG 1.1//EN" "http://www.w3.org/Graphics/SVG/1.1/DTD/svg11.dtd">

<svg height="800px" width="800px" version="1.1" id="_x32_" xmlns="http://www.w3.org/2000/svg" xmlns:xlink="http://www.w3.org/1999/xlink" 
	 viewBox="0 0 512 512"  xml:space="preserve">
<style type="text/css">
	.st0{fill:#000000;}
</style>
<g>
	<path class="st0" d="M271.934,15.934V0h-31.868v15.934H16.992v39.834h23.901v249.612c0,24.943,20.22,45.164,45.164,45.164h339.886
		c24.944,0,45.164-20.221,45.164-45.164V55.768h23.901V15.934H271.934z M425.943,318.677H86.057
		c-7.329,0-13.296-5.967-13.296-13.296V55.768h366.478v249.612C439.239,312.71,433.271,318.677,425.943,318.677z"/>
	<polygon class="st0" points="240.066,366.478 174.447,509.883 206.315,509.883 240.066,436.127 240.066,509.883 271.934,509.883 
		271.934,436.796 305.699,511.307 337.552,512 271.934,366.478 	"/>
	<path class="st0" d="M364.075,106.994c-12.9,0-23.356,10.456-23.356,23.364c0,4.132,1.16,7.952,3.042,11.32l-56.36,65.159
		c-2.591-0.988-5.369-1.587-8.31-1.587c-2.046,0-3.999,0.35-5.89,0.84l-22.874-33.043c2.708-3.812,4.334-8.449,4.334-13.483
		c0-12.907-10.457-23.364-23.372-23.364c-12.907,0-23.364,10.457-23.364,23.364c0,3.54,0.84,6.855,2.248,9.858l-51.349,51.349
		c-3.004-1.409-6.318-2.249-9.858-2.249c-12.907,0-23.364,10.456-23.364,23.364c0,12.908,10.457,23.371,23.364,23.371
		c12.915,0,23.372-10.464,23.372-23.371c0-3.532-0.84-6.846-2.248-9.85l51.349-51.349c3.003,1.408,6.317,2.248,9.85,2.248
		c2.054,0,4.007-0.35,5.905-0.848l22.874,33.035c-2.707,3.812-4.341,8.449-4.341,13.49c0,12.908,10.456,23.372,23.364,23.372
		c12.915,0,23.372-10.464,23.372-23.372c0-4.131-1.159-7.951-3.042-11.32l56.344-65.159c2.591,0.996,5.376,1.595,8.31,1.595
		c12.915,0,23.372-10.464,23.372-23.372C387.446,117.45,376.99,106.994,364.075,106.994z"/>
</g>
</svg>