<?xml version="1.0" encoding="utf-8"?>

<!DOCTYPE svg PUBLIC "-//W3C//DTD SVG 1.1//EN" "http://www.w3.org/Graphics/SVG/1.1/DTD/svg11.dtd">

<svg version="1.1" id="_x32_" xmlns="http://www.w3.org/2000/svg" xmlns:xlink="http://www.w3.org/1999/xlink" 
	 width="800px" height="800px" viewBox="0 0 512 512"  xml:space="preserve">
<style type="text/css">
<![CDATA[
	.st0{fill:#000000;}
]]>
</style>
<g>
	<path class="st0" d="M270.649,319.031c4-2.625,6-6.781,6-12.484c0-5.938-1.797-10.141-5.406-12.672
		c-3.609-2.5-9.234-3.781-16.906-3.781h-14.531v32.875h13.281C260.79,322.969,266.649,321.656,270.649,319.031z"/>
	<path class="st0" d="M424.18,256.125c-0.094-11.125-0.172-24.094-0.266-36.219c-0.094-10.672-0.156-20.656-0.219-28.156
		c-0.047-3.75-0.078-6.875-0.094-9.172c-0.031-1.141-0.047-2.063-0.063-2.797l-0.047-0.969c-0.016-0.313,0-0.469-0.063-1.188v-0.031
		c-1.281-11.375-3.328-33.219-19-52.375c-7.828-9.563-19-18.156-34.141-24.125c-6.875-2.703-14.609-4.875-23.203-6.469
		c5.484-8.797,8.734-19.125,8.734-30.25c0-31.813-25.781-57.594-57.594-57.594c-16.719,0-31.672,7.219-42.172,18.594
		C245.54,13.969,230.508,6.781,213.758,6.781c-31.797,0-57.578,25.781-57.578,57.594c0,11.156,3.281,21.516,8.781,30.344
		c-10.844,1.969-20.453,4.813-28.625,8.563c-20.609,9.375-32.828,24.094-39.281,38.313c-6.547,14.156-7.891,27.75-8.797,36v0.031
		c-0.078,0.813-0.078,0.938-0.109,1.344c-0.078,2.531-0.141,9.922-0.219,20.125c-0.109,15.25-0.234,36.281-0.328,53.563
		c-0.016,1.266-0.016,2.438-0.016,3.656c-39,33.188-85.969,67.719-87.531,122.875c-1.859,64.969,49.078,110.313,108.75,117.719
		c51.422,6.406,86.906,8.313,147.203,8.313c60.281,0,95.75-1.906,147.172-8.313c59.671-7.406,110.609-52.75,108.765-117.719
		C510.367,323.906,463.195,289.375,424.18,256.125z M400.524,180.031v0.031l-0.016-0.031H400.524z M269.696,77.875
		c0.375-1.547,0.641-3,0.875-4.375l0.016-0.063l0.047-0.406c0.094-0.594,0.203-1.156,0.281-1.75v-0.063
		c0.25-2.125,0.453-4.406,0.453-6.844c0-2.031-0.125-4.031-0.328-6l0,0l-0.016-0.281l-0.172-1c-0.203-1.531-0.406-3.031-0.719-4.516
		c0,0,0-0.047,0-0.063l-0.078-0.359l-0.203-0.719c-0.375-1.547-0.766-3.094-1.219-4.563c-0.016-0.031-0.016-0.031-0.016-0.031
		l-0.031-0.125c6.031-10.125,17.016-16.922,29.641-16.906c9.578,0,18.141,3.844,24.438,10.125
		c6.266,6.281,10.109,14.844,10.125,24.438c0,11.219-5.391,21.063-13.719,27.406c-2.281-0.063-4.594-0.125-6.984-0.125H277.29
		c-3.516-2.688-6.5-5.984-8.75-9.781c0.156-0.469,0.313-0.906,0.469-1.422c0.031-0.078,0.047-0.141,0.063-0.234
		c0.203-0.719,0.406-1.438,0.578-2.188c0.031-0.094,0.047-0.156,0.078-0.25L269.696,77.875z M319.899,385.563
		c-2.594,5.281-6.313,9.875-11.219,13.719c-4.891,3.844-9.094,6.875-16.281,9.031c-5.656,1.719-12.766,2.781-19.406,3.125v20.031
		h-17.922v-19.875h-16.25v19.875h-17.906v-19.875H206.68H188.29v-18.188c0-3.531-0.266-5.656,3.391-6.375
		c0.328-0.063,0.797-0.156,1.391-0.219c0.594-0.125,7.75-0.563,9.359-0.563c2.891,0,4.25-2.719,4.25-5.469v-88.391
		c0-3.328-1.781-4.641-4.25-4.984c-1.594-0.219-8.766-0.438-9.359-0.547c-0.594-0.094-1.063-0.172-1.391-0.234
		c-3.656-0.719-3.391-2.859-3.391-6.375v-16.281h18.391h14.234v-20.375h17.906V264l16.25,0.047v-20.453h17.922v20.75
		c9.688,0.813,21.641,3.844,29.859,10.234c4.609,3.563,8.188,7.516,10.375,12.359c2.203,4.813,3.281,10.281,3.281,16.313
		c0,3.469-0.531,6.813-1.625,9.969c-1.109,3.156-2.813,6.125-5.109,8.875c-2.313,2.781-10.031,10.563-16.922,13.25
		c21.047,3.625,30.875,15.5,30.875,32.844C323.727,374.469,322.446,380.25,319.899,385.563z M378.211,204.172
		c-7.547-16.328,9.047-62.078-70.906-62.078c-24.016,0-38.172,0-46.328,0c0.156,0-1.031,0-4.969,0c-1.328,0-3,0-5,0
		c-8.141,0-22.297,0-46.297,0c-79.984,0-63.375,45.75-70.922,62.078c-5.063,10.922-13.219,21.109-23.063,31.047
		c0.047-7.813,0.094-15.75,0.156-23.094c0.047-8.906,0.094-16.938,0.156-22.875c0.031-2.953,0.063-5.391,0.094-7.125
		c0.016-0.875,0.031-1.531,0.047-2v-0.375c1.109-10.766,3.109-25.813,12.703-38.406c4.844-6.344,11.625-12.313,22.078-17.125
		c10.438-4.813,24.656-8.375,44-9.281c5.047-0.234,9.328-3.719,10.609-8.594c1.266-4.875-0.75-10.016-5.031-12.688
		c-9.828-6.156-16.328-16.938-16.328-29.281c0-9.594,3.844-18.156,10.125-24.438s14.844-10.125,24.422-10.125
		s18.141,3.844,24.438,10.125c3.031,3.031,5.453,6.625,7.188,10.563l0.125,0.219c0.109,0.281,0.188,0.531,0.281,0.781
		c0.719,1.813,1.328,3.656,1.734,5.594l0.031,0.156l0.047,0.172c0.016,0.078,0.031,0.203,0.047,0.313
		c0.422,2.141,0.672,4.359,0.672,6.641c0,1.219-0.094,2.563-0.266,4l-0.234,1.531l0.016-0.063c-0.172,0.969-0.344,1.813-0.516,2.594
		l-0.016,0.063l-0.406,1.469c-0.203,0.75-0.469,1.531-0.766,2.344l-0.625,1.625c-2.766,6.391-7.359,11.781-13.188,15.531
		c-0.031,0.031-0.063,0.063-0.078,0.094c-0.438,0.25-0.828,0.578-1.188,0.906c-0.219,0.188-0.438,0.344-0.625,0.531
		c-0.281,0.281-0.516,0.594-0.797,0.906c-0.203,0.281-0.453,0.531-0.641,0.781c-0.188,0.313-0.344,0.656-0.516,0.969
		c-0.188,0.344-0.406,0.656-0.531,0.969s-0.203,0.656-0.328,0.969c-0.125,0.406-0.266,0.781-0.344,1.172
		c-0.063,0.266-0.078,0.547-0.109,0.828c-0.078,0.5-0.125,0.969-0.141,1.469l-0.031,0.125c0,0.219,0.063,0.469,0.078,0.719
		c0.031,0.469,0.063,0.938,0.156,1.406c0.063,0.344,0.172,0.688,0.266,1.016c0.109,0.391,0.219,0.766,0.359,1.141
		c0.156,0.406,0.359,0.75,0.547,1.125c0.156,0.25,0.25,0.531,0.422,0.781c0.031,0.031,0.047,0.063,0.078,0.125
		c0.25,0.344,0.516,0.656,0.781,0.969c0.234,0.281,0.422,0.563,0.672,0.813c0.219,0.219,0.484,0.406,0.734,0.625
		c0.313,0.266,0.625,0.563,0.969,0.781c0.266,0.188,0.563,0.313,0.859,0.5c0.359,0.188,0.703,0.406,1.078,0.563
		c0.313,0.156,0.656,0.219,1,0.328c0.375,0.109,0.734,0.266,1.125,0.359c0.281,0.063,0.594,0.063,0.891,0.109
		c0.438,0.047,0.906,0.141,1.375,0.141c0.047,0,0.094,0,0.125,0h31.656h41.922c3.344,0,6.578,0.125,9.797,0.281
		c16.938,0.781,30,3.625,39.922,7.563c8.891,3.531,15.344,7.813,20.328,12.5c7.422,7,11.594,14.953,14.234,22.938
		c2.563,7.844,3.453,15.531,4.125,21.813c0,0.188,0.016,0.75,0.031,1.594c0.141,7.219,0.297,30.844,0.469,53.563
		C391.274,225.094,383.211,215,378.211,204.172z"/>
	<path class="st0" d="M276.336,356.125c-1.797-1.375-4.109-2.438-6.922-3.188c-2.813-0.719-6.234-1.094-10.219-1.094h-18.75v33.313
		h18.828c4.219,0,7.75-0.469,10.609-1.406c2.844-0.938,5.125-2.188,6.844-3.781c1.719-1.563,2.953-3.406,3.719-5.5
		s1.125-4.313,1.125-6.688c0-2.438-0.406-4.656-1.266-6.625C279.477,359.188,278.165,357.531,276.336,356.125z"/>
</g>
</svg>