<?xml version="1.0" encoding="utf-8"?>

<!DOCTYPE svg PUBLIC "-//W3C//DTD SVG 1.1//EN" "http://www.w3.org/Graphics/SVG/1.1/DTD/svg11.dtd">

<svg version="1.1" id="_x32_" xmlns="http://www.w3.org/2000/svg" xmlns:xlink="http://www.w3.org/1999/xlink" 
	 width="800px" height="800px" viewBox="0 0 512 512"  xml:space="preserve">
<style type="text/css">
<![CDATA[
	.st0{fill:#000000;}
]]>
</style>
<g>
	<g>
		<path class="st0" d="M210.094,95.156c9.844,0,19-3,26.594-8.141c-8.031-11.109-12.828-24.719-12.828-39.438
			c0-14.734,4.797-28.328,12.828-39.453C229.094,3,219.938,0,210.094,0c-26.281,0-47.578,21.297-47.578,47.578
			C162.516,73.844,183.813,95.156,210.094,95.156z"/>
		<path class="st0" d="M291.469,95.156c26.266,0,47.563-21.313,47.563-47.578C339.031,21.297,317.734,0,291.469,0
			s-47.578,21.297-47.578,47.578C243.891,73.844,265.203,95.156,291.469,95.156z"/>
		<path class="st0" d="M473.281,240.25c-7.906,6.156-17.469,9.703-27.625,9.703c0,0,0,0-0.016,0
			c-12.219,0-24.094-5.078-32.563-13.938c-38.734-40.484-94.531-62.813-157.078-62.844c-62.547,0.031-118.344,22.359-157.078,62.859
			c-8.469,8.844-20.344,13.922-32.578,13.922c-10.141,0-19.719-3.547-27.625-9.703c-20.25,32.094-31.984,69.063-33.078,108.188
			C2.281,468.609,108.281,487.984,146.672,499.484C167.531,505.734,225.969,512,256,512c30.047,0,88.469-6.266,109.328-12.516
			c38.391-11.5,144.391-30.875,141.031-151.047C505.281,309.313,493.531,272.344,473.281,240.25z"/>
		<path class="st0" d="M84.453,222.188c39.859-41.656,99.453-69,171.547-69.031c72.094,0.031,131.703,27.375,171.563,69.031
			c9.563,10,25.391,10.344,35.391,0.797c10.016-9.547,10.359-25.406,0.813-35.406C414.219,135.672,340.891,103.031,256,103.063
			c-84.891-0.031-158.203,32.609-207.75,84.516c-9.563,10-9.203,25.859,0.797,35.406S74.875,232.188,84.453,222.188z"/>
	</g>
</g>
</svg>