<?xml version="1.0" encoding="utf-8"?>

<!DOCTYPE svg PUBLIC "-//W3C//DTD SVG 1.1//EN" "http://www.w3.org/Graphics/SVG/1.1/DTD/svg11.dtd">

<svg height="800px" width="800px" version="1.1" id="_x32_" xmlns="http://www.w3.org/2000/svg" xmlns:xlink="http://www.w3.org/1999/xlink" 
	 viewBox="0 0 512 512"  xml:space="preserve">
<style type="text/css">
	.st0{fill:#000000;}
</style>
<g>
	<path class="st0" d="M208.853,100.63c27.796,0,50.324-22.528,50.324-50.306C259.177,22.519,236.649,0,208.853,0
		c-27.787,0-50.315,22.519-50.315,50.324C158.538,78.102,181.066,100.63,208.853,100.63z"/>
	<path class="st0" d="M465.652,293.514c-0.915-6.094-6.6-10.287-12.712-9.381l-25.77,3.873l-2.212-14.657
		c-0.914-5.961-6.458-10.047-12.409-9.167l-3.314,0.498c-0.222-1.76-0.604-3.51-1.341-5.215l-23.923-55.299
		c-5.864-13.112-21.996-29.981-34.521-37.007c0,0-73.794-45.27-79.826-47.473c-3.491-1.261-7.214-1.829-10.998-1.945l-36.893,73.776
		L176.989,131.5c-2.798,1.829-5.232,3.766-6.921,5.827l-66.304,78.92l-54.579,20.121c-10.34,3.81-15.893,15.039-12.624,25.566
		l0.258,0.809c3.206,10.349,16.905,15.457,27.458,13.022l41.45-9.256c11.095-2.558,21.631-7.133,31.065-13.494l35.284-30.247
		l8.822,74.353c0.8,6.094,1.048,7.524-2.008,12.862l-25.496,41.122c-9.833,15.874-17.002,33.259-21.222,51.461l-18.824,81.078
		c-2.283,13.032,6.405,25.459,19.428,27.814l0.906,0.16c12.33,2.211,24.296-5.383,27.512-17.483l29.457-87.119l45.048-63.613
		l37.417,62.61c2.327,4.628,5.392,8.83,9.097,12.445l69.591,68.038c8.777,8.582,22.67,8.964,31.9,0.88l1.111-0.968
		c4.726-4.14,7.595-10.002,7.977-16.274c0.373-6.271-1.777-12.437-5.978-17.092l-58.764-65.452l-31.918-93.56l-6.342-96.206
		l42.214,17.979l38.269,57.103c-2.318,2.354-3.678,5.596-3.154,9.123l2.212,14.684l-25.78,3.872
		c-6.112,0.907-10.305,6.6-9.38,12.712l10.58,70.436c0.924,6.094,6.609,10.304,12.712,9.38l109.399-16.434
		c6.112-0.933,10.304-6.627,9.389-12.722L465.652,293.514z M218.98,224.917c0-3.962,3.206-7.169,7.16-7.169
		c3.962,0,7.169,3.206,7.169,7.169c0,3.962-3.207,7.169-7.169,7.169C222.186,232.086,218.98,228.879,218.98,224.917z
		 M229.294,274.699c-3.953,0-7.169-3.216-7.169-7.177c0-3.953,3.216-7.16,7.169-7.16c3.962,0,7.169,3.206,7.169,7.16
		C236.463,271.483,233.255,274.699,229.294,274.699z M377.788,282.374c5.508,4.353,13.112,5.508,19.801,2.47l0.586-0.25
		c4.202-1.901,7.32-5.169,9.23-9.007l6.707-1.012l0.461,0.338l2.203,14.657l-37.061,5.579L377.788,282.374z"/>
	<path class="st0" d="M204.74,151.949l14.471,19.41l10.171-20.343l-4.032-31.972c-8.972,0.818-17.074,2.185-24.26,3.971
		L204.74,151.949z"/>
</g>
</svg>