<?xml version="1.0" encoding="utf-8"?>

<!DOCTYPE svg PUBLIC "-//W3C//DTD SVG 1.1//EN" "http://www.w3.org/Graphics/SVG/1.1/DTD/svg11.dtd">

<svg version="1.1" id="_x32_" xmlns="http://www.w3.org/2000/svg" xmlns:xlink="http://www.w3.org/1999/xlink" 
	 width="800px" height="800px" viewBox="0 0 512 512"  xml:space="preserve">
<style type="text/css">
<![CDATA[
	.st0{fill:#000000;}
]]>
</style>
<g>
	<path class="st0" d="M346.281,36.463c-24.781-24.297-66.063-19.906-88.219-15.234l9.531,22.828
		c2.563,6.125-0.313,13.141-6.438,15.703c-6.094,2.547-13.125-0.328-15.688-6.438L223.344,0.385
		c-68.281-5.047-75.969,41.969-75.969,41.969l35.25,82.516H331.25C331.25,124.869,351.938,53.4,346.281,36.463z"/>
	<path class="st0" d="M425.469,195.807l-35.375-19.031l-26.531,22.047l46.719,25.156c7.781,4.188,17.5,1.281,21.688-6.5
		S433.25,199.994,425.469,195.807z"/>
	<path class="st0" d="M346.313,181.947H179.266c-8.828,0-16-7.156-16-16c0-8.828,7.172-16,16-16H334.75l66.219-55.031
		c6.813-5.656,16.906-4.719,22.531,2.078c5.656,6.797,4.719,16.891-2.063,22.531L346.313,181.947z"/>
	<path class="st0" d="M414,431.104c0-9.406-9.406-74.453-13.156-121.484c-3.156-39.406-24.469-77.109-60.188-99.688H171.344
		c-35.734,22.578-57.031,60.281-60.188,99.688c-3.75,47.031-13.172,112.078-13.172,121.484s-28.203,30.094-28.203,47.031
		c0,16.922,15.031,33.859,48.906,33.859c33.844,0,135.438,0,135.438,0h3.75c0,0,101.594,0,135.438,0
		c33.875,0,48.906-16.938,48.906-33.859C442.219,461.197,414,440.51,414,431.104z M319.25,363.541c0,7.75-0.5,13.797-1.563,18.5
		c-1.063,4.75-3.281,10-6.563,15.625c-3.313,5.672-7.781,10.797-13.281,15.266c-5.531,4.484-11.531,7.734-17.875,9.672
		c-6.219,1.906-13.688,2.875-22.219,2.875c-19.625,0-35.563-6.313-47.328-18.734c-11.734-12.375-17.672-26.75-17.672-42.734
		c0-16.828,6.094-31.359,18.141-43.172c12.031-11.813,26.797-17.797,43.891-17.797c10,0,19.281,1.547,27.594,4.594
		c8.391,3.078,17.016,8.828,25.656,17.125l-15.984,15.984c-10.422-10.219-22.125-15.172-35.75-15.172
		c-11.797,0-21.344,3.656-29.141,11.188c-7.781,7.5-11.547,16.641-11.547,27.922c0,9.813,3.688,18.438,11.266,26.375
		c7.531,7.891,17.75,11.734,31.203,11.734c18.047,0,29.734-6.844,35.547-20.859h-21.922v-22.016h47.547V363.541z"/>
</g>
</svg>