<?xml version="1.0" encoding="utf-8"?>

<!DOCTYPE svg PUBLIC "-//W3C//DTD SVG 1.1//EN" "http://www.w3.org/Graphics/SVG/1.1/DTD/svg11.dtd">

<svg height="800px" width="800px" version="1.1" id="_x32_" xmlns="http://www.w3.org/2000/svg" xmlns:xlink="http://www.w3.org/1999/xlink" 
	 viewBox="0 0 512 512"  xml:space="preserve">
<style type="text/css">
	.st0{fill:#000000;}
</style>
<g>
	<path class="st0" d="M256,0c-81.814,0-148.379,66.565-148.379,148.38c0,32.361,10.236,63.116,29.602,88.939
		c15.395,20.534,36.169,36.886,59.586,47.129v183.169c0,10.545,5.104,20.519,13.65,26.692l15.864,11.463
		c5.648,4.077,12.311,6.229,19.27,6.229c10.256,0,20.078-4.884,26.264-13.064l38.728-51.225c8.85-11.697,8.836-28.037-0.013-39.728
		l-5.028-6.635l5.021-6.621c8.863-11.705,8.863-28.051,0-39.762l-4.897-6.463l20.471-26.444c4.442-5.746,6.89-12.898,6.89-20.153
		v-26.685c19.333-11.753,35.783-27.803,48.066-47.012c15.237-23.83,23.285-51.432,23.285-79.828C404.379,66.565,337.822,0,256,0z
		 M311.129,262.245v39.66c0,2.448-0.807,4.821-2.304,6.752l-25.561,33.024c-3.056,3.945-3.084,9.442-0.069,13.415l9.911,13.084
		c2.987,3.938,2.987,9.387,0,13.325l-15.015,19.829v0.02l15.022,19.844c2.987,3.938,2.987,9.374,0.014,13.312L254.4,485.728
		c-2.166,2.87-5.47,4.38-8.808,4.38c-2.242,0-4.504-0.682-6.449-2.09l-15.871-11.456c-2.869-2.076-4.572-5.401-4.572-8.946v-198.35
		c-51.653-15.912-89.188-64.013-89.188-120.887c0-69.862,56.626-126.488,126.488-126.488c69.862,0,126.488,56.626,126.488,126.488
		C382.488,198.473,353.368,241.761,311.129,262.245z"/>
	<path class="st0" d="M256.828,72.862c-14.609,0-26.458,11.843-26.458,26.458c0,14.608,11.849,26.451,26.458,26.451
		c14.608,0,26.458-11.843,26.458-26.451C283.285,84.705,271.436,72.862,256.828,72.862z"/>
	<path class="st0" d="M242.709,450H256V274.867c-4.49,0-8.925-0.241-13.29-0.697V450z"/>
</g>
</svg>