<?xml version="1.0" encoding="utf-8"?>

<!DOCTYPE svg PUBLIC "-//W3C//DTD SVG 1.1//EN" "http://www.w3.org/Graphics/SVG/1.1/DTD/svg11.dtd">

<svg version="1.1" id="_x32_" xmlns="http://www.w3.org/2000/svg" xmlns:xlink="http://www.w3.org/1999/xlink" 
	 width="800px" height="800px" viewBox="0 0 512 512"  xml:space="preserve">
<style type="text/css">
<![CDATA[
	.st0{fill:#000000;}
]]>
</style>
<g>
	<polygon class="st0" points="151.886,221.17 176.823,221.17 164.558,188.982 	"/>
	<path class="st0" d="M405.964,62.123c-82.813-82.828-217.094-82.828-299.922,0c-82.828,82.813-82.828,217.109,0,299.922
		l149.953,149.953l149.969-149.953C488.792,279.232,488.776,144.936,405.964,62.123z M187.948,251.373l-5.906-15.656h-35.656
		l-6.047,15.656h-20.438l36.5-88.5h15.359l36.625,88.5H187.948z M285.308,178.279h-26.203v73.094h-19.594v-73.094h-26.203v-15.406
		h72V178.279z M392.104,251.373h-19.578v-51.578l-19.156,33.563h-13.25l-19.313-33.563v51.578h-19.578v-88.5h19.297l26.219,47.859
		l26.063-47.859h19.297V251.373z"/>
</g>
</svg>