<?xml version="1.0" encoding="utf-8"?>

<!DOCTYPE svg PUBLIC "-//W3C//DTD SVG 1.1//EN" "http://www.w3.org/Graphics/SVG/1.1/DTD/svg11.dtd">

<svg version="1.1" id="_x32_" xmlns="http://www.w3.org/2000/svg" xmlns:xlink="http://www.w3.org/1999/xlink" 
	 viewBox="0 0 512 512"  xml:space="preserve">
<style type="text/css">
	.st0{fill:#000000;}
</style>
<g>
	<rect x="0" y="161.669" class="st0" width="104.756" height="314.266"/>
	<path class="st0" d="M313.498,245.524c-5.555,7.438-8.593,16.45-8.593,25.872c0,11.632,4.502,22.425,12.676,30.588
		c8.173,8.174,19.068,12.675,30.588,12.675c11.529,0,22.424-4.501,30.588-12.562c15.406-15.406,16.767-39.601,3.98-56.572H313.498z"
		/>
	<path class="st0" d="M293.274,408.836v67.15H398.03v-65.268c-15.816,5.658-32.675,8.593-49.861,8.593
		C329.11,419.312,310.46,415.65,293.274,408.836z"/>
	<path class="st0" d="M200.365,271.396c0-39.488,15.284-76.571,43.252-104.541c2.517-2.516,5.034-4.931,7.755-7.13V36.014H146.617
		v439.973h104.755v-92.818c-2.721-2.199-5.238-4.603-7.755-7.119C215.648,348.08,200.365,310.997,200.365,271.396z"/>
	<path class="st0" d="M502.509,389.604l-56.521-55.058c12.051-18.638,18.577-40.346,18.577-63.109
		c0-31.14-12.102-60.377-34.066-82.341c-21.964-21.964-51.201-34.066-82.342-34.066c-31.14,0-60.388,12.102-82.341,34.066
		c-21.974,21.964-34.066,51.201-34.066,82.341c0,31.141,12.092,60.388,34.056,82.352c21.964,21.963,51.212,34.066,82.352,34.066
		c22.762,0,44.48-6.537,63.119-18.588l55.038,56.501c10.26,12.368,25.401,13.104,37.104,1.401
		C515.133,415.476,514.877,399.834,502.509,389.604z M348.158,333.912c-16.686,0-32.378-6.506-44.184-18.302
		c-11.794-11.794-18.291-27.488-18.291-44.173c0-16.684,6.497-32.367,18.291-44.163c11.806-11.796,27.489-18.302,44.184-18.302
		c16.675,0,32.368,6.506,44.163,18.302c24.358,24.358,24.358,63.989,0,88.346C380.526,327.416,364.843,333.912,348.158,333.912z"/>
</g>
</svg>