<?xml version="1.0" encoding="utf-8"?>

<!DOCTYPE svg PUBLIC "-//W3C//DTD SVG 1.1//EN" "http://www.w3.org/Graphics/SVG/1.1/DTD/svg11.dtd">

<svg version="1.1" id="_x32_" xmlns="http://www.w3.org/2000/svg" xmlns:xlink="http://www.w3.org/1999/xlink" 
	 viewBox="0 0 512 512"  xml:space="preserve">
<style type="text/css">
	.st0{fill:#000000;}
</style>
<g>
	<path class="st0" d="M499.615,84.287c-6.845,0-12.385,5.539-12.385,12.385v320.151c-0.024,12.65-10.268,22.87-22.895,22.895H47.666
		c-12.652-0.025-22.872-10.245-22.895-22.895V78.433L62.3,93.975c3.012,1.246,6.459,1.246,9.483,0l49.927-20.671l49.916,20.671
		c3.012,1.246,6.47,1.246,9.482,0l49.904-20.671l49.904,20.671c3.012,1.246,6.459,1.246,9.471,0l49.963-20.671l50.012,20.671
		c3.012,1.246,6.446,1.246,9.458,0l37.628-15.554v318.06c0,6.845,5.538,12.385,12.385,12.385c6.845,0,12.385-5.54,12.385-12.385
		V59.903c0-4.136-2.056-7.994-5.504-10.293c-3.434-2.31-7.789-2.744-11.611-1.148l-50.011,20.657l-50.012-20.657
		c-3.012-1.258-6.447-1.258-9.459,0l-49.964,20.657l-49.904-20.657c-3.011-1.258-6.47-1.258-9.482,0l-49.904,20.657l-49.916-20.657
		c-3.011-1.258-6.459-1.258-9.482,0L67.042,69.119L17.126,48.462C13.292,46.876,8.95,47.3,5.503,49.599
		C2.056,51.909,0,55.767,0,59.903v356.92c0,26.342,21.347,47.653,47.666,47.666h416.669c26.318-0.012,47.653-21.324,47.666-47.666
		V96.672C512,89.826,506.46,84.287,499.615,84.287z"/>
	<rect x="81.192" y="164.548" class="st0" width="134.011" height="128.726"/>
	<rect x="264.781" y="165.963" class="st0" width="114.526" height="19.811"/>
	<rect x="264.781" y="223.463" class="st0" width="114.526" height="19.812"/>
	<rect x="264.781" y="280.985" class="st0" width="114.526" height="19.812"/>
	<rect x="81.192" y="338.485" class="st0" width="298.115" height="19.811"/>
</g>
</svg>