<?xml version="1.0" encoding="utf-8"?>

<!DOCTYPE svg PUBLIC "-//W3C//DTD SVG 1.1//EN" "http://www.w3.org/Graphics/SVG/1.1/DTD/svg11.dtd">

<svg version="1.1" id="_x32_" xmlns="http://www.w3.org/2000/svg" xmlns:xlink="http://www.w3.org/1999/xlink" 
	 width="800px" height="800px" viewBox="0 0 512 512"  xml:space="preserve">
<style type="text/css">
<![CDATA[
	.st0{fill:#000000;}
]]>
</style>
<g>
	<path class="st0" d="M256,0C114.609,0,0,114.625,0,256c0,141.391,114.609,256,256,256c141.359,0,256-114.609,256-256
		C512,114.625,397.359,0,256,0z M256,453.969c-109.156,0-197.969-88.797-197.969-197.969S146.844,58.031,256,58.031
		S453.969,146.828,453.969,256S365.156,453.969,256,453.969z"/>
	<path class="st0" d="M256,76.031C156.781,76.031,76.031,156.75,76.031,256S156.781,435.969,256,435.969
		c99.234,0,179.969-80.719,179.969-179.969S355.234,76.031,256,76.031z M334.172,239.875h-53.859l-5.781,9v21.563h59.641v0.063
		v26.156v4.391h-59.641v46.203h-37.047v-46.203h-59.656v-4.391V270.5v-0.063h59.656v-21.531l-5.797-9.031h-53.859V213.75h37.031
		l-31.469-49h31.375l41.219,64.125l41.25-64.125h31.375l-31.453,49h37.016V239.875z"/>
</g>
</svg>