<?xml version="1.0" encoding="utf-8"?>

<!DOCTYPE svg PUBLIC "-//W3C//DTD SVG 1.1//EN" "http://www.w3.org/Graphics/SVG/1.1/DTD/svg11.dtd">

<svg height="800px" width="800px" version="1.1" id="_x32_" xmlns="http://www.w3.org/2000/svg" xmlns:xlink="http://www.w3.org/1999/xlink" 
	 viewBox="0 0 512 512"  xml:space="preserve">
<style type="text/css">
	.st0{fill:#000000;}
</style>
<g>
	<path class="st0" d="M256,0C114.613,0,0,114.615,0,256s114.613,256,256,256c4.418,0,8.808-0.111,13.172-0.334
		c58.75-2.976,112.222-25.814,153.978-61.859c4.764-4.112,9.42-8.34,13.869-12.787C483.344,390.692,512,326.693,512,256
		C512,114.615,397.385,0,256,0z M464,256c0,57.346-23.328,109.346-60.992,147.01L256,256V48C370.692,48,464,141.308,464,256z"/>
</g>
</svg>