<?xml version="1.0" encoding="utf-8"?>

<!DOCTYPE svg PUBLIC "-//W3C//DTD SVG 1.1//EN" "http://www.w3.org/Graphics/SVG/1.1/DTD/svg11.dtd">

<svg version="1.1" id="_x32_" xmlns="http://www.w3.org/2000/svg" xmlns:xlink="http://www.w3.org/1999/xlink" 
	 width="800px" height="800px" viewBox="0 0 512 512"  xml:space="preserve">
<style type="text/css">
<![CDATA[
	.st0{fill:#000000;}
]]>
</style>
<g>
	<path class="st0" d="M315.5,161.719c-6.469-4.328-14.188-7.844-22.719-10.266c-8.563-2.422-17.938-3.766-27.797-3.766H213
		c-2.078,0-4.063,0.328-5.875,0.906c-1.781,0.594-3.406,1.422-4.75,2.469c-1.359,1.047-2.469,2.281-3.219,3.641
		c-0.766,1.375-1.188,2.875-1.188,4.453l-0.266,117.75c-0.016,1.594,0.406,3.125,1.172,4.516c0.75,1.391,1.844,2.641,3.203,3.703
		c1.359,1.047,2.984,1.891,4.781,2.484c1.813,0.594,3.797,0.922,5.891,0.922h7.563c2.094,0,4.078-0.328,5.891-0.922
		s3.453-1.438,4.813-2.484c1.375-1.063,2.484-2.313,3.25-3.703c0.781-1.391,1.203-2.922,1.203-4.516l0.031-33.219h29.484
		c9.875,0,19.297-1.344,27.859-3.781c8.578-2.438,16.281-5.969,22.781-10.328c6.469-4.344,11.688-9.516,15.313-15.266
		s5.609-12.063,5.594-18.672c-0.016-6.625-2.047-12.938-5.688-18.672C327.234,171.219,321.969,166.063,315.5,161.719z
		 M296.266,204.469c-1.734,2.719-4.219,5.172-7.297,7.219c-3.063,2.063-6.734,3.734-10.797,4.875
		c-4.063,1.156-8.516,1.797-13.188,1.797h-29.453l0.063-45.469h29.391c4.672,0,9.109,0.641,13.172,1.797
		c4.063,1.141,7.719,2.797,10.781,4.859c3.078,2.063,5.578,4.516,7.313,7.234c1.719,2.734,2.656,5.719,2.656,8.859
		C298.938,198.781,297.969,201.75,296.266,204.469z"/>
	<path class="st0" d="M256,55.109c-141.375,0-256,72.266-256,161.422v78.938c0,89.172,114.625,161.422,256,161.422
		s256-72.25,256-161.422v-78.938C512,127.375,397.375,55.109,256,55.109z M256,343.328c-120,0-221.375-58.078-221.375-126.797
		C34.625,147.797,136,89.734,256,89.734s221.375,58.063,221.375,126.797C477.375,285.25,376,343.328,256,343.328z"/>
</g>
</svg>