<?xml version="1.0" encoding="utf-8"?>

<!DOCTYPE svg PUBLIC "-//W3C//DTD SVG 1.1//EN" "http://www.w3.org/Graphics/SVG/1.1/DTD/svg11.dtd">

<svg version="1.1" id="_x32_" xmlns="http://www.w3.org/2000/svg" xmlns:xlink="http://www.w3.org/1999/xlink" 
	 width="800px" height="800px" viewBox="0 0 512 512"  xml:space="preserve">
<style type="text/css">
<![CDATA[
	.st0{fill:#000000;}
]]>
</style>
<g>
	<path class="st0" d="M267.156,173.063h-51.594c-8.219,0-14.906,6.672-14.906,14.891v152.078c0,8.234,6.688,14.891,14.906,14.891
		h7.5c8.219,0,14.906-6.656,14.906-14.891v-42.813h29.188c39.063,0,70.844-27.859,70.844-62.078
		C338,200.906,306.219,173.063,267.156,173.063z M267.156,264.531h-29.188v-58.797h29.188c18.5,0,33.547,13.188,33.547,29.406
		S285.656,264.531,267.156,264.531z"/>
	<path class="st0" d="M256,0C114.625,0,0,114.609,0,256c0,141.375,114.625,256,256,256s256-114.625,256-256
		C512,114.609,397.375,0,256,0z M256,472c-119.094,0-216-96.906-216-216c0-119.109,96.906-216,216-216s216,96.891,216,216
		C472,375.094,375.094,472,256,472z"/>
	<path class="st0" d="M261.969,83.922h0.281c4.281,0,7.844-3.406,8-7.719c0.141-4.422-3.313-8.125-7.734-8.281l-0.797-0.016h-0.016
		h-0.094h-0.016l-0.078-0.016h-0.031h-0.047h-0.063l0,0h-0.125h-0.016h-0.078l0,0c-1.188-0.031-2.375-0.063-3.563-0.063h-0.219
		h-0.016h-0.063h-0.016h-0.125h-0.016h-0.047l-0.047-0.016H257h-0.047h-0.047h-0.078h-0.047h-0.047h-0.031h-0.078h-0.016h-0.078
		H256.5h-0.063h-0.047h-0.078l0,0h-0.094h-0.031h-0.063h-0.031H256h-0.094h-0.016h-0.063h-0.031h-0.063h-0.031h-0.078h-0.016h-0.078
		H255.5h-0.063h-0.031h-0.063h-0.016h-0.078h-0.016h-0.078h-0.031h-0.063h-0.031h-0.063h-0.031l-0.063,0.016h-0.016h-0.078h-0.031
		h-0.063h-0.031h-0.063h-0.031H254.5h-0.031h-0.078h-0.016h-0.063h-0.031h-0.063h-0.031h-0.063h-0.031h-0.078h-0.031h-0.047h-0.047
		h-0.047h-0.031h-0.063h-0.031h-0.094h-0.016h-0.063h-0.031h-0.063h-0.016h-0.078h-0.016l-0.094,0.016h-0.031h-0.047h-0.047h-0.047
		h-0.031h-0.063h-0.016h-0.094h-0.031h-0.063h-0.031h-0.047h-0.031h-0.078l0,0H252.5h-0.031h-0.063h-0.031l-0.063,0.016h-0.016
		h-0.078h-0.016h-0.078h-0.031h-0.063H252h-0.063h-0.031h-0.063h-0.016h-0.078h-0.031h-0.063l-0.031,0.016h-0.063h-0.031h-0.063
		h-0.031h-0.078h-0.016h-0.063h-0.031h-0.063h-0.031h-0.063h-0.031l-0.078,0.016h-0.016h-0.063h-0.031h-0.063h-0.031h-0.063h-0.031
		h-0.078h-0.016h-0.078H250.5h-0.063l-0.031,0.016h-0.063h-0.031h-0.094h-0.016h-0.047h-0.047h-0.047h-0.031h-0.063h-0.031
		l-0.094,0.016h-0.031h-0.047h-0.031h-0.047h-0.031h-0.063h-0.031h-0.094h-0.031l-0.047,0.016h-0.031h-0.063h-0.031h-0.047h-0.031
		h-0.094h-0.031H249l-0.016,0.016h-0.063h-0.016h-0.094l0,0h-0.094h-0.016h-0.078h-0.016l-0.063,0.016h-0.031h-0.063h-0.016h-0.094
		h-0.016h-0.078h-0.016l-0.078,0.016h-0.016h-0.078l0,0h-0.094h-0.016h-0.078h-0.031L247.781,68h-0.016h-0.078l0,0h-0.094h-0.016
		H247.5h-0.031l-0.063,0.016h-0.016h-0.078l0,0h-0.094h-0.016h-0.078l-0.031,0.016h-0.063h-0.016h-0.078l0,0h-0.094h-0.016
		l-0.078,0.016h-0.031h-0.063h-0.016h-0.078h-0.016l-0.172,0.016h-0.016h-0.078h-0.016h-0.078L246,68.078h-0.031h-0.063h-0.016
		l-0.078,0.016h-0.016h-0.172h-0.031l-0.063,0.016h-0.016h-0.078h-0.016l-0.172,0.016h-0.031h-0.063h-0.016h-0.078l-0.188,0.016
		h-0.016h-0.078h-0.016l-0.078,0.016l0,0H244.5l-0.016,0.016h-0.078h-0.016h-0.078l0,0l-0.188,0.016h-0.016h-0.078h-0.016
		l-0.266,0.016h-0.016l-0.078,0.016h-0.016h-0.078l0,0l-0.188,0.016h-0.094l0,0l-0.375,0.031l0,0
		c-3.656,0.25-7.266,0.609-10.844,1.063c-4.375,0.547-7.484,4.563-6.938,8.938c0.531,4.047,3.969,7,7.938,7l1.016-0.063
		c7.219-0.922,14.594-1.391,21.922-1.391C258,83.813,260,83.844,261.969,83.922z"/>
	<path class="st0" d="M185.438,89.969c-1.375-2.875-4.25-4.547-7.234-4.547c-1.156,0-2.328,0.25-3.453,0.797
		c-2.719,1.297-5.391,2.656-8.031,4.094l-0.5,0.266l-0.078,0.047l-0.172,0.078v0.016l-0.063,0.031h-0.016l-0.156,0.094h-0.016
		l-0.063,0.047h-0.016l-0.078,0.031v0.016l-0.078,0.047h-0.016l-0.063,0.031l-0.031,0.016l-0.031,0.031l-0.031,0.016l-0.063,0.031
		l-0.031,0.016l-0.063,0.031l-0.016,0.016l-0.047,0.016l-0.031,0.031L165,91.25l-0.031,0.016l-0.047,0.031l-0.031,0.016
		l-0.047,0.016l-0.031,0.016l-0.031,0.031l-0.063,0.031l-0.031,0.016l-0.063,0.031l-0.016,0.016l-0.047,0.016l-0.031,0.016
		l-0.063,0.047l-0.031,0.016l-0.047,0.031l-0.031,0.016l-0.047,0.016l-0.031,0.016l-0.094,0.063l0,0l-0.063,0.031l0,0l-0.063,0.031
		l0,0l-0.188,0.109l0,0l-0.063,0.031l0,0l-0.188,0.109l-0.063,0.031l0,0l-0.25,0.141c-3.219,1.828-6.391,3.75-9.5,5.766
		c-3.688,2.406-4.75,7.344-2.344,11.047c1.531,2.375,4.094,3.656,6.719,3.656c1.5,0,3-0.422,4.344-1.281
		c6.125-3.969,12.563-7.578,19.141-10.734C185.656,98.734,187.344,93.953,185.438,89.969z"/>
	<path class="st0" d="M199.188,418.594c-6.875-2.406-13.672-5.281-20.188-8.547c-1.156-0.578-2.375-0.844-3.594-0.844
		c-2.922,0-5.75,1.609-7.156,4.406c-1.969,3.953-0.375,8.766,3.578,10.734c2.453,1.234,4.922,2.406,7.422,3.531l0.25,0.109h0.016
		l0.234,0.109l0.031,0.016l0.063,0.031l0.094,0.031l0.016,0.016l0.063,0.016l0.016,0.016l0.063,0.031h0.031l0.063,0.047h0.016
		l0.078,0.031h0.016l0.047,0.031l0.031,0.016l0.078,0.031l0.078,0.031l0.031,0.016l0.047,0.016l0.016,0.016l0.063,0.031h0.031
		l0.063,0.031l0.031,0.016l0.063,0.016l0.031,0.016l0.031,0.031h0.031l0.078,0.031l0.031,0.016l0.047,0.016l0.031,0.016l0.031,0.031
		l0.047,0.016l0.047,0.016l0.063,0.031l0.031,0.016l0.047,0.016l0.031,0.016l0.047,0.016l0.031,0.016l0.078,0.031l0.031,0.016
		l0.047,0.016l0.031,0.016l0.031,0.016l0.031,0.016l0.094,0.031l0.031,0.016l0.031,0.016l0.031,0.016l0.063,0.016l0.016,0.016
		l0.172,0.063l0.016,0.016l0.047,0.016l0.031,0.016l0.156,0.078h0.031l0.047,0.031h0.016l0.063,0.031l0,0l0.125,0.047l0,0
		l0.063,0.031h0.016l0.047,0.031h0.031l0.172,0.078h0.016l0.063,0.031l0,0l0.188,0.078l0,0l0.063,0.031h0.016l0.172,0.078h0.031
		l0.047,0.031h0.016l0.188,0.078l0.063,0.031h0.016l0.25,0.109h0.016l0.25,0.109l0,0l0.063,0.031h0.016l0.188,0.078h0.016
		l0.047,0.031h0.016l0.188,0.078l0,0l0.063,0.031h0.016l0.047,0.031h0.016l0.203,0.078l0.063,0.016l0,0l0.188,0.094l0.063,0.016
		h0.016l0.188,0.078h0.016l0.063,0.031l0,0l0.188,0.078l0.063,0.031h0.031l0.172,0.078h0.016l0.047,0.016l0.016,0.016l0.063,0.016
		l0.016,0.016l0.172,0.063l0.031,0.016l0.047,0.016l0.016,0.016l0.156,0.063l0.031,0.016l0.063,0.016h0.031l0.031,0.031h0.031
		l0.094,0.031l0.031,0.016l0.031,0.016l0.031,0.016l0.063,0.016l0.031,0.016l0.063,0.031l0.031,0.016l0.063,0.016l0.031,0.016
		l0.031,0.016l0.031,0.016l0.094,0.031l0.031,0.016l0.031,0.016h0.031l0.063,0.016l0.031,0.016l0.031,0.016l0.063,0.031l0.047,0.016
		l0.047,0.016l0.031,0.016l0.031,0.016l0.047,0.016l0.078,0.031h0.031l0.047,0.031l0.031,0.016l0.047,0.016h0.031l0.063,0.031
		l0.031,0.016l0.063,0.016l0.031,0.016l0.047,0.016l0.031,0.016l0.078,0.031l0,0l0.078,0.031h0.016l0.063,0.031h0.031l0.063,0.031
		l0.094,0.031l0,0l0.094,0.031v0.016l0.078,0.031h0.016l0.078,0.031h0.016l0.063,0.031h0.031l0.063,0.031l0,0l0.188,0.063l0,0
		l0.078,0.031h0.016c1.313,0.5,2.641,0.984,3.969,1.453c0.875,0.297,1.781,0.453,2.656,0.453c3.297,0,6.391-2.078,7.531-5.375
		C205.563,424.609,203.359,420.047,199.188,418.594z"/>
	<path class="st0" d="M120.047,361.672c-1.578-2.031-3.922-3.094-6.313-3.094c-1.719,0-3.453,0.563-4.922,1.688
		c-3.469,2.719-4.094,7.734-1.406,11.219c1.453,1.859,2.938,3.703,4.469,5.516l0,0l0.125,0.156l0.047,0.047l0.016,0.016l0.125,0.141
		v0.016l0.031,0.047l0.031,0.031l0.031,0.031l0.031,0.016l0.047,0.078l0.016,0.016l0.031,0.047l0.031,0.031l0.031,0.031l0.031,0.047
		l0.031,0.031l0.031,0.031l0.031,0.031l0.031,0.047l0.016,0.016l0.047,0.063l0.016,0.016l0.047,0.047l0.016,0.031l0.047,0.047
		l0.016,0.016l0.047,0.063l0,0l0.063,0.063v0.016l0.063,0.047v0.016l0.125,0.141v0.016l0.063,0.047v0.016l0.125,0.141l0.063,0.063
		c3.172,3.703,6.5,7.266,9.953,10.703c1.563,1.547,3.609,2.328,5.641,2.328c2.063,0,4.109-0.781,5.672-2.359
		c3.109-3.141,3.109-8.203-0.031-11.313C129.438,372.953,124.531,367.422,120.047,361.672z"/>
	<path class="st0" d="M76.781,245.219c4.063,0,7.531-3.063,7.953-7.172c0.75-7.266,1.984-14.547,3.641-21.641
		c1.016-4.297-1.656-8.594-5.938-9.609l-1.844-0.219c-3.625,0-6.922,2.484-7.781,6.172c-1.813,7.719-3.156,15.609-4,23.656
		c-0.438,4.391,2.75,8.328,7.141,8.781L76.781,245.219z"/>
	<path class="st0" d="M109.234,165.906c3.828-6.203,8.078-12.234,12.672-17.922c2.781-3.438,2.234-8.469-1.219-11.25
		c-1.469-1.188-3.25-1.766-5-1.766c-2.344,0-4.656,1.016-6.219,2.953c-1.313,1.625-2.594,3.266-3.844,4.922l-0.125,0.172
		l-0.031,0.047l-0.016,0.016l-0.172,0.219l0,0l-0.156,0.219v0.016l-0.172,0.219h-0.016l-0.156,0.219v0.016l-0.344,0.453
		c-2.109,2.859-4.141,5.781-6.094,8.766l0,0l-0.156,0.234v0.016l-0.031,0.047l0,0l-0.078,0.109v0.016l-0.031,0.047l-0.016,0.016
		L98,153.734v0.016l-0.078,0.109l-0.031,0.047l-0.016,0.016l-0.031,0.047v0.016l-0.063,0.094l-0.016,0.016l-0.016,0.047
		l-0.031,0.031l-0.031,0.031l-0.016,0.047l-0.016,0.031l-0.031,0.063l-0.031,0.031l-0.031,0.031l-0.016,0.031l-0.031,0.047
		l-0.016,0.031l-0.031,0.063l-0.031,0.016l-0.031,0.063v0.016l-0.047,0.063l-0.016,0.016l-0.031,0.063l-0.016,0.016l-0.047,0.063
		v0.016l-0.031,0.063l-0.016,0.016l-0.109,0.156l0,0c-0.5,0.797-1,1.594-1.484,2.391c-2.328,3.766-1.141,8.688,2.609,11
		c1.313,0.813,2.766,1.188,4.188,1.188C105.094,169.719,107.719,168.375,109.234,165.906z"/>
	<path class="st0" d="M87.719,292.672c-0.813-3.75-4.125-6.297-7.813-6.297l-1.688,0.172c-4.313,0.938-7.063,5.188-6.125,9.5
		c1.703,7.906,3.906,15.609,6.578,23.109c1.172,3.25,4.25,5.297,7.531,5.297c0.891,0,1.797-0.156,2.688-0.469
		c4.156-1.484,6.328-6.063,4.859-10.219C91.297,306.891,89.281,299.797,87.719,292.672z"/>
	<path class="st0" d="M351.172,401.016c-1.453,0-2.906,0.391-4.234,1.219c-6.188,3.859-12.688,7.359-19.313,10.391
		c-4.016,1.844-5.781,6.594-3.938,10.609c1.344,2.938,4.25,4.672,7.281,4.672c1.109,0,2.25-0.234,3.313-0.734
		c4.438-2.031,8.75-4.219,13-6.563l0.063-0.047h0.016l0.156-0.094h0.016l0.063-0.047h0.016l0.141-0.094h0.016l0.078-0.047l0,0
		l0.078-0.047h0.016l0.063-0.047h0.031l0.047-0.031l0.016-0.016l0.063-0.031l0.031-0.016l0.063-0.031l0.031-0.016l0.031-0.031
		l0.031-0.016l0.047-0.031l0.031-0.016l0.078-0.031l0.031-0.016l0.031-0.031l0.031-0.016l0.031-0.016l0.047-0.031l0.031-0.016
		l0.078-0.047l0.031-0.016l0.031-0.016l0.031-0.016l0.047-0.031h0.016l0.109-0.063l0.047-0.031l0.031-0.016l0.047-0.031h0.016
		l0.156-0.109h0.016l0.063-0.031c2.016-1.156,4.016-2.359,6.016-3.594c3.719-2.344,4.875-7.266,2.531-11.016
		C356.453,402.359,353.844,401.016,351.172,401.016z"/>
	<path class="st0" d="M412.219,346.188c-1.328-0.859-2.813-1.266-4.297-1.266c-2.641,0-5.219,1.297-6.75,3.688
		c-3.922,6.141-8.297,12.109-12.984,17.703c-2.813,3.391-2.375,8.438,1.031,11.266c1.484,1.266,3.313,1.875,5.125,1.875
		c2.281,0,4.563-0.984,6.125-2.875c4.156-4.953,8.031-10.125,11.656-15.5l0,0l0.063-0.078l0,0l0.094-0.156v-0.016l0.063-0.063l0,0
		l0.047-0.078l0,0l0.047-0.078l0.016-0.016l0.031-0.047l0.016-0.031l0.031-0.047l0.016-0.016l0.047-0.078l0.016-0.016l0.047-0.047
		v-0.031l0.031-0.047l0.031-0.016l0.031-0.078l0.016-0.016l0.031-0.047l0.016-0.031l0.031-0.047l0.031-0.031l0.031-0.047
		l0.031-0.047l0.016-0.031l0.016-0.031l0.031-0.031l0.094-0.156v-0.016l0.031-0.047l0.031-0.016l0.094-0.156v-0.016l0.031-0.047
		l0.031-0.016l0.141-0.219v-0.016l1.203-1.859C417.031,353.5,415.938,348.563,412.219,346.188z"/>
	<path class="st0" d="M432.719,228.688l1.563-0.156c4.328-0.859,7.141-5.063,6.281-9.406l-0.188-0.969v-0.016l-0.016-0.063
		l-0.016-0.016l-0.031-0.188v-0.016l-0.016-0.063v-0.031l-0.047-0.172v-0.031v-0.047l-0.016-0.031l-0.016-0.047v-0.031l-0.031-0.125
		v-0.047l-0.016-0.031l-0.016-0.047v-0.047v-0.031l-0.016-0.063l-0.016-0.047v-0.047l-0.016-0.047l-0.016-0.047v-0.031l-0.016-0.047
		l-0.016-0.047v-0.063l-0.016-0.047l-0.016-0.047v-0.031l-0.016-0.047v-0.031L440,216.359v-0.031l-0.031-0.063v-0.031v-0.047
		l-0.016-0.031l-0.016-0.078v-0.016l-0.031-0.078v-0.016v-0.078l-0.016-0.016l-0.016-0.078l0,0l-0.031-0.094v-0.078v-0.031
		l-0.031-0.063v-0.016l-0.031-0.172v-0.016l-0.031-0.078v-0.016l-0.063-0.266v-0.016l-0.016-0.078l-0.047-0.188l0,0l-0.016-0.094
		l0,0l-0.063-0.266v-0.016l-0.078-0.359l0,0c-0.938-4.094-2-8.156-3.219-12.141l-0.094-0.359L436,200.922l-0.016-0.016l-0.109-0.344
		l0,0l-0.078-0.266v-0.016l-0.016-0.078h-0.016l-0.078-0.266l-0.094-0.266v-0.016l-0.016-0.078h-0.016l-0.047-0.172v-0.016
		l-0.016-0.078l-0.016-0.016l-0.047-0.156v-0.016l-0.031-0.078v-0.016l-0.031-0.063v-0.016l-0.031-0.094l-0.016-0.078l-0.016-0.016
		l-0.016-0.063l-0.016-0.031l-0.016-0.063v-0.016l-0.031-0.078V198.5l-0.016-0.063l-0.016-0.031l-0.016-0.063v-0.016l-0.031-0.078
		v-0.016l-0.031-0.063v-0.031l-0.031-0.063v-0.016L435.063,198v-0.031l-0.031-0.063v-0.031L435,197.813v-0.031l-0.016-0.047
		l-0.016-0.031l-0.016-0.078l-0.016-0.031l-0.016-0.047l-0.016-0.031v-0.047l-0.016-0.031l-0.016-0.047l-0.031-0.063v-0.047
		l-0.016-0.031l-0.016-0.047l-0.016-0.047l-0.016-0.031v-0.047l-0.031-0.047l-0.016-0.063l-0.016-0.031v-0.047l-0.031-0.031v-0.047
		l-0.016-0.031l-0.016-0.078l-0.031-0.031v-0.047l-0.016-0.031l-0.016-0.047v-0.031l-0.063-0.172l-0.016-0.016l-0.016-0.063v-0.016
		l-0.031-0.047v-0.031l-0.031-0.109v-0.016L434.406,196v-0.016l-0.016-0.047c-1.125-3.328-4.234-5.438-7.578-5.438
		c-0.844,0-1.703,0.125-2.563,0.422c-4.188,1.406-6.438,5.938-5.031,10.125c2.344,6.906,4.234,14.047,5.656,21.188
		C425.625,226.047,428.969,228.688,432.719,228.688z"/>
	<path class="st0" d="M275.844,427.109l-0.875,0.047c-6.25,0.688-12.641,1.031-18.969,1.031c-1,0-2-0.016-3-0.031h-0.125
		c-4.359,0-7.938,3.5-8,7.859c-0.078,4.422,3.438,8.047,7.844,8.141c0.844,0.016,1.672,0.016,2.516,0.031h0.016h0.063h0.016h0.109
		h0.031h0.063h0.031h0.047h0.063h0.031h0.078h0.031h0.063h0.031H256h0.078h0.016h0.063h0.031h0.047h0.031h0.047h0.031h0.063h0.031
		h0.031h0.031h0.063h0.031h0.031h0.047h0.047h0.031h0.047h0.031h0.047h0.031h0.047h0.031h0.156h0.016h0.063h0.031h0.063h0.031
		l0.031-0.016h0.031h0.063h0.031h0.031h0.047h0.047h0.031h0.047h0.031h0.047h0.031h0.047h0.031h0.047h0.031h0.063h0.016h0.172h0.016
		h0.047h0.031h0.063h0.016h0.047h0.031h0.063h0.031h0.031h0.047h0.047h0.031h0.047h0.031l0.047-0.016h0.031h0.063h0.016h0.078l0,0
		h0.25l0,0h0.063h0.016h0.078h0.016h0.047h0.031h0.063h0.016h0.063h0.016l0.063-0.016h0.031h0.047h0.016h0.063h0.031H260h0.016
		h0.063h0.016h0.313l0.094-0.016l0,0h0.063h0.031h0.063l0,0h0.078h0.016h0.063h0.016h0.078l0,0h0.063h0.016h0.078l0,0l0.656-0.031
		h0.078h0.078c5-0.156,9.938-0.5,14.828-1.031c4.391-0.484,7.563-4.438,7.078-8.828
		C283.344,430.141,279.875,427.109,275.844,427.109z"/>
	<path class="st0" d="M435.828,269.938l-0.969-0.063c-3.984,0-7.453,2.984-7.938,7.031c-0.875,7.25-2.234,14.516-4.016,21.578
		c-1.094,4.281,1.5,8.625,5.781,9.719l1.969,0.25c3.563,0,6.813-2.406,7.75-6.016c0.406-1.625,0.797-3.234,1.156-4.859v-0.016
		l0.031-0.063v-0.016l0.031-0.188l0.016-0.016l0.016-0.063v-0.016v-0.063l0.016-0.016l0.016-0.094l0.016-0.031l0.016-0.047v-0.047
		v-0.031l0.016-0.047l0.016-0.047v-0.063l0.031-0.047v-0.047v-0.031l0.016-0.047l0.016-0.031v-0.063l0.016-0.016l0.016-0.094v-0.016
		l0.016-0.063l0.016-0.031v-0.063v-0.016l0.047-0.172v-0.016l0.016-0.078v-0.016l0.031-0.078l0.031-0.188l0,0l0.031-0.078v-0.016
		l0.047-0.266c1.141-5.391,2.047-10.859,2.734-16.422C443.344,274.453,440.219,270.469,435.828,269.938z"/>
	<path class="st0" d="M339.344,104.219c2.891,0,5.688-1.563,7.109-4.297c2.047-3.906,0.531-8.75-3.391-10.797
		c-4.844-2.531-9.813-4.859-14.906-6.969v-0.016l-0.25-0.094h-0.016L327.813,82l0,0l-0.188-0.063l-0.078-0.031v-0.016l-0.172-0.063
		l-0.094-0.031l0,0l-0.25-0.109l0,0l-0.25-0.109h-0.031l-0.063-0.031l-0.188-0.078l0,0l-0.078-0.031h-0.016l-0.156-0.063v-0.016
		l-0.094-0.031l-0.172-0.063h-0.016l-0.063-0.031l-0.016-0.016l-0.266-0.094l-0.25-0.109l0,0c-1.406-0.547-2.813-1.094-4.219-1.609
		c-0.922-0.344-1.859-0.5-2.781-0.5c-3.25,0-6.313,2-7.5,5.234c-1.531,4.141,0.594,8.734,4.734,10.266
		c6.828,2.531,13.578,5.516,20.047,8.906C336.844,103.922,338.109,104.219,339.344,104.219z"/>
	<path class="st0" d="M400.156,155.891c1.688,0,3.359-0.516,4.813-1.609c3.531-2.641,4.234-7.656,1.578-11.203
		c-2.672-3.563-5.484-7.047-8.422-10.422l0,0L398,132.516l0,0l-0.063-0.063v-0.016l-0.125-0.125v-0.016l-0.063-0.063l0,0
		l-0.063-0.063v-0.016l-0.063-0.063v-0.016l-0.047-0.047l-0.016-0.016l-0.063-0.063l0,0l-0.063-0.063v-0.016l-0.047-0.063
		l-0.016-0.016l-0.047-0.047l-0.016-0.016l-0.047-0.063l-0.016-0.016l-0.047-0.047l-0.016-0.016l-0.031-0.047l-0.031-0.016
		l-0.047-0.063l-0.016-0.031l-0.031-0.031L397,131.375l-0.031-0.031l-0.031-0.031l-0.047-0.063l-0.016-0.016l-0.031-0.047
		l-0.031-0.031l-0.031-0.031l-0.031-0.031l-0.047-0.047l-0.031-0.031l-0.016-0.031l-0.031-0.031l-0.031-0.031l-0.109-0.125
		l-0.016-0.016l-0.031-0.047l-0.031-0.016l-0.109-0.141l-0.016-0.016l-0.031-0.031l-0.031-0.016l-0.125-0.141v-0.016l-0.031-0.047
		l-0.031-0.016l-0.125-0.141l0,0l-0.031-0.047l-0.031-0.016l-0.125-0.141v-0.016l-0.047-0.047l-0.016-0.016l-0.172-0.188
		l-0.016-0.016l-0.172-0.188l-0.016-0.016l-0.375-0.406v-0.016c-1.297-1.406-2.609-2.813-3.953-4.188
		c-1.578-1.609-3.641-2.422-5.734-2.422c-2,0-4.016,0.75-5.563,2.266c-3.188,3.078-3.25,8.141-0.172,11.313
		c5.078,5.234,9.891,10.844,14.266,16.688C395.328,154.781,397.719,155.891,400.156,155.891z"/>
</g>
</svg>