<?xml version="1.0" encoding="utf-8"?>

<!DOCTYPE svg PUBLIC "-//W3C//DTD SVG 1.1//EN" "http://www.w3.org/Graphics/SVG/1.1/DTD/svg11.dtd">

<svg version="1.1" id="_x32_" xmlns="http://www.w3.org/2000/svg" xmlns:xlink="http://www.w3.org/1999/xlink" 
	 viewBox="0 0 512 512"  xml:space="preserve">
<style type="text/css">
	.st0{fill:#000000;}
</style>
<g>
	<rect x="199.475" y="234.65" class="st0" width="220.505" height="18.522"/>
	<rect x="180.461" y="307.872" class="st0" width="220.504" height="18.531"/>
	<path class="st0" d="M511.283,36.602V24.686H138.117v11.916c0,24.609,0.684,50.334,0.684,77.044
		c0,38.954-1.435,79.993-8.379,122.717c-6.606,40.631-18.175,82.794-38.254,126.262H56.249c-6.347,0-12.755,1.021-18.937,3.166
		c-9.261,3.216-18.029,9.087-24.67,17.717c-6.658,8.612-11.05,19.81-12.356,33.014C0.096,418.432,0,420.334,0,422.219
		c-0.009,9.572,2.456,18.6,6.606,26.511c6.234,11.899,16.083,21.35,27.523,27.947c11.458,6.589,24.6,10.385,37.985,10.48
		l283.679,0.156c10.8,0.026,20.165-2.179,28.138-5.802c7.98-3.605,14.492-8.396,20.536-13.212
		c24.713-19.68,43.805-44.073,58.461-71.146c21.989-40.658,34.13-87.368,40.917-134.866c6.771-47.498,8.146-95.851,8.154-139.864
		C512,90.904,511.283,61.6,511.283,36.602z M72.245,463.336h0.009c-5.915-0.027-12.046-1.194-17.848-3.364
		c-8.715-3.234-16.619-8.716-22.058-15.331c-2.732-3.312-4.859-6.892-6.312-10.627c-1.443-3.744-2.214-7.643-2.214-11.794
		c0-1.089,0.052-2.196,0.165-3.32c0.631-6.295,2.144-11.336,4.15-15.408c3.026-6.088,7.117-10.135,11.942-12.91
		c4.816-2.75,10.462-3.995,16.17-3.995H311.54c-2.767,3.174-5.231,6.805-7.203,10.912c-2.905,6.018-4.85,13.005-5.638,20.866
		c-0.173,1.789-0.26,3.545-0.26,5.291c0,8.319,1.989,16.196,5.447,23.192c3.113,6.286,7.394,11.872,12.469,16.628L72.245,463.336z
		 M471.914,303.895c-6.875,29.357-16.533,57.174-29.936,81.921c-13.402,24.747-30.48,46.416-52.357,63.857
		c-5.516,4.41-10.368,7.826-15.478,10.117c-5.136,2.291-10.609,3.674-18.34,3.7l-7.955-0.008
		c-7.203-2.041-13.887-5.646-19.326-10.385c-4.393-3.814-7.947-8.327-10.394-13.29c-2.446-4.963-3.805-10.359-3.805-16.152
		c0-1.21,0.052-2.447,0.182-3.701c0.623-6.234,2.11-11.362,4.133-15.564c3.053-6.294,7.256-10.575,12.115-13.454
		c4.851-2.862,10.428-4.255,15.996-4.246c5.621-0.017,11.189,1.436,15.798,4.021c4.626,2.603,8.25,6.26,10.446,10.818
		c1.159,2.404,1.876,5.612,1.876,8.846c0,2.654-0.475,5.292-1.34,7.497c-0.856,2.222-2.076,3.96-3.494,5.171
		c-2.663,2.239-5.378,3.087-8.12,3.104c-2.386,0-4.772-0.718-6.761-2.006c-2.006-1.28-3.563-3.079-4.479-5.214l-14.596,6.261
		c2.23,5.214,5.983,9.425,10.497,12.322c4.505,2.896,9.814,4.513,15.339,4.513c6.321,0.026,12.953-2.214,18.418-6.892
		c3.744-3.199,6.338-7.246,7.998-11.509c1.652-4.263,2.404-8.777,2.404-13.247c0-5.43-1.098-10.834-3.433-15.72
		c-3.744-7.791-9.874-13.801-16.982-17.787c-6.97-3.9-14.925-5.94-23.01-6.044v-0.122h-232.61
		c20.528-44.972,32.444-88.708,39.231-130.516c7.246-44.6,8.681-87.013,8.681-126.538c0-22.724-0.458-44.445-0.605-65.137h325.513
		c0.156,22.507,0.657,47.497,0.657,73.913C488.196,180.417,485.679,245.183,471.914,303.895z"/>
	<path class="st0" d="M331.168,188.338c2.793-31.129,2.931-60.926,2.646-89.106H210.448c0.285,28.18,0.138,57.977-2.654,89.106
		H331.168z"/>
</g>
</svg>