<?xml version="1.0" encoding="utf-8"?>

<!DOCTYPE svg PUBLIC "-//W3C//DTD SVG 1.1//EN" "http://www.w3.org/Graphics/SVG/1.1/DTD/svg11.dtd">

<svg version="1.1" id="_x32_" xmlns="http://www.w3.org/2000/svg" xmlns:xlink="http://www.w3.org/1999/xlink" 
	 width="800px" height="800px" viewBox="0 0 512 512"  xml:space="preserve">
<style type="text/css">
<![CDATA[
	.st0{fill:#000000;}
]]>
</style>
<g>
	<path class="st0" d="M464.959,271.596c-28.844-114.938-140.484-158.172-150.234-168.688l27.438-99.938
		c0,0-34.281-11.078-82.375,9.563C198.663,38.784,164.6,5.315,164.6,5.315l30.188,99.156
		c-9.469,10.766-128.203,59.031-149.719,172.609c-18.516,97.703,39.516,237.14,212.938,234.89
		C431.475,509.689,489.178,368.096,464.959,271.596z M309.834,219.674c-10.813-4.547-22.563-7.188-35.031-7.188
		c-38.781,0-71.875,24.5-84.859,58.813l109.297,0.016l-4.25,20.641H184.803c-0.453,3.719-0.766,7.484-0.766,11.313
		c0,6.766,0.781,13.328,2.203,19.672h102.406l-4.25,20.656H193.6c14.906,29.844,45.672,50.438,81.203,50.438
		c11.078,0,21.641-2.125,31.469-5.781v32.562c-10.063,2.703-20.578,4.188-31.469,4.188c-52.984,0-98.031-34.078-114.734-81.406
		h-13.875V322.94h8.594c-1.047-6.406-1.734-12.953-1.734-19.672c0-3.828,0.219-7.594,0.578-11.313h-7.438v-20.656h11.25
		c14.094-51.656,61.313-89.797,117.359-89.797c14.531,0,28.438,2.609,41.344,7.328L309.834,219.674z"/>
</g>
</svg>