<?xml version="1.0" encoding="utf-8"?>

<!DOCTYPE svg PUBLIC "-//W3C//DTD SVG 1.1//EN" "http://www.w3.org/Graphics/SVG/1.1/DTD/svg11.dtd">

<svg version="1.1" id="_x32_" xmlns="http://www.w3.org/2000/svg" xmlns:xlink="http://www.w3.org/1999/xlink" 
	 width="800px" height="800px" viewBox="0 0 512 512"  xml:space="preserve">
<style type="text/css">
<![CDATA[
	.st0{fill:#000000;}
]]>
</style>
<g>
	<path class="st0" d="M72,0v512h368V0H72z M240.031,459.984h-112v-112h112V459.984z M240.031,315.984h-112v-112h112V315.984z
		 M384.031,459.984h-112v-112h112V459.984z M384.031,315.984h-112v-112h112V315.984z M384.031,151.984h-256v-96h256V151.984z"/>
	<rect x="296.031" y="251.984" class="st0" width="64" height="16"/>
	<polygon class="st0" points="176.031,291.984 192.031,291.984 192.031,267.984 216.031,267.984 216.031,251.984 192.031,251.984 
		192.031,227.984 176.031,227.984 176.031,251.984 152.031,251.984 152.031,267.984 176.031,267.984 	"/>
	<polygon class="st0" points="163.406,434.938 184.031,414.281 204.656,434.938 214.969,424.594 194.344,403.969 214.969,383.344 
		204.656,373.031 184.031,393.656 163.406,373.031 153.094,383.344 173.719,403.969 153.094,424.594 	"/>
	<rect x="296.031" y="375.984" class="st0" width="64" height="16"/>
	<rect x="296.031" y="415.984" class="st0" width="64" height="16"/>
	<polygon class="st0" points="320.422,124.594 322.5,109.688 318.953,105.469 314.375,109.469 312.297,124.406 315.859,128.531 	"/>
	<polygon class="st0" points="323.938,99.141 325.953,84.281 322.391,80.156 317.828,84.094 315.797,99.063 319.375,103.219 	"/>
	<polygon class="st0" points="323.234,126.375 318.672,130.406 322.313,134.516 337.719,134.516 342.281,130.563 338.656,126.375 	
		"/>
	<polygon class="st0" points="344.203,82.313 348.75,78.281 345.125,74.172 329.703,74.172 325.141,78.125 328.766,82.313 	"/>
	<polygon class="st0" points="343.484,109.547 341.469,124.406 345.031,128.531 349.609,124.594 351.625,109.625 348.063,105.469 	
		"/>
	<polygon class="st0" points="344.922,99 348.484,103.219 353.047,99.219 355.125,84.281 351.563,80.156 347,84.094 	"/>
</g>
</svg>