<?xml version="1.0" encoding="utf-8"?>

<!DOCTYPE svg PUBLIC "-//W3C//DTD SVG 1.1//EN" "http://www.w3.org/Graphics/SVG/1.1/DTD/svg11.dtd">

<svg height="800px" width="800px" version="1.1" id="_x32_" xmlns="http://www.w3.org/2000/svg" xmlns:xlink="http://www.w3.org/1999/xlink" 
	 viewBox="0 0 512 512"  xml:space="preserve">
<style type="text/css">
	.st0{fill:#000000;}
</style>
<g>
	<path class="st0" d="M491.949,177.188l-70.98,61.833l-0.293,6.224c-0.221,3.509-1.386,8.482-3.365,13.678
		c-1.093,2.708-2.344,5.416-3.659,8.124l-80.491-69.443c-3.144-2.708-7.318-3.952-11.412-3.438
		c-0.736,0.144-59.782,7.539-118.614,32.343c-5.859,2.486-10.246,3.223-13.176,3.223c-2.408,0-3.802-0.443-4.902-0.951
		c-1.608-0.807-2.708-1.829-3.802-3.951c-1.1-2.051-1.829-5.053-1.829-8.275c0-4.53,1.608-9.147,3.437-11.412
		c2.273-2.929,5.053-6.952,8.854-12.148c5.71-7.682,13.462-17.636,22.688-27.368c9.218-9.733,19.901-19.094,31.098-25.682
		c15.142-8.925,28.097-11.119,40.316-11.198c7.539,0,14.778,0.958,21.881,1.98c7.024,1.022,13.827,2.344,21.216,2.344
		c4.688,0,9.661-0.514,14.856-2.636h0.071c8.054-3.437,15.95-8.49,23.932-14.198c11.856-8.632,23.56-18.801,32.485-26.926
		c1.758-1.536,3.366-3.073,4.831-4.466l-19.972-21.288c-4.395,4.095-10.105,9.218-16.25,14.414
		c-6.289,5.416-13.099,10.904-19.538,15.442c-6.438,4.609-12.584,8.268-16.756,9.947c-0.222,0.15-1.387,0.443-3.659,0.443
		c-3.509,0.072-9.511-0.879-16.9-1.98c-7.388-1.093-16.25-2.344-26.197-2.344c-8.631-0.071-18.222,1.029-28.319,3.809
		c-10.026-2.78-19.608-3.809-28.319-3.809c-9.954,0-18.73,1.25-26.125,2.344c-7.389,1.101-13.391,2.051-16.971,1.98
		c-2.194,0-3.366-0.293-3.588-0.443c-4.466-1.758-11.126-5.852-18-10.826c-10.462-7.539-21.588-17.2-29.998-24.882
		c-2.273-2.051-4.324-3.951-6.153-5.631l-20.044,21.288c4.316,4.03,9.947,9.225,16.242,14.713
		c7.025,5.995,14.857,12.434,22.76,18.215c7.974,5.709,15.878,10.762,23.924,14.198c5.196,2.122,10.247,2.636,14.856,2.636
		c7.388,0,14.27-1.243,21.294-2.344c0.508-0.071,0.95-0.071,1.387-0.15c-9.733,8.346-18.222,17.422-25.39,25.832
		c-6.073,7.096-11.126,13.756-15.22,19.244c-3.952,5.416-7.025,9.804-8.418,11.562c-6.66,8.639-9.511,19.029-9.583,29.34
		c0.072,9.661,2.637,19.758,9.29,28.248c3.294,4.173,7.689,7.902,12.955,10.39c5.267,2.486,11.341,3.809,17.558,3.809
		c7.832,0,15.956-1.908,24.588-5.566c27.076-11.412,55.03-19.094,76.025-23.781c10.54-2.337,19.322-3.952,25.467-4.974
		c1.172-0.222,2.123-0.364,3.073-0.514l91.982,79.247v0.079h0.071c0,0.292-0.15,1.093-0.807,2.336
		c-1.094,2.051-3.509,4.759-6.582,6.66c-3.073,1.9-6.66,3.001-10.026,3.001c-1.243,0-2.415,0.222-3.587,0.436
		c-2.051-0.436-4.173-1.022-6.217-1.901c-6.367-2.486-12.298-6.438-16.464-9.876c-2.122-1.686-3.809-3.222-4.902-4.316l-1.243-1.172
		l-0.293-0.292v-0.072c-2.201-2.344-5.195-3.516-8.124-3.516c-2.637,0-5.267,0.951-7.389,2.852
		c-4.466,4.102-4.759,11.054-0.657,15.514c0.364,0.444,5.852,6.438,14.92,12.663c4.467,3.072,9.955,6.217,16.179,8.703
		c1.386,0.514,2.922,1.1,4.458,1.536c0.444,0.951,0.951,1.908,1.608,2.78h-0.072l0.072,0.078c0.221,0.436,0.664,2.194,0.586,4.316
		c0.079,4.023-1.386,9.29-3.509,12.219c-1.029,1.536-2.05,2.416-3.073,3.001c-1.1,0.586-2.122,0.951-4.101,1.022h-0.729
		c-0.364-0.072-0.808,0-1.172,0.072c-0.072,0-0.072,0-0.072,0c-9.511,0-18.364-4.095-24.881-8.561
		c-3.294-2.194-5.924-4.458-7.682-6.074c-0.88-0.8-1.537-1.458-1.901-1.901l-0.443-0.436l-0.071-0.078v-0.072
		c-2.123-2.487-5.195-3.73-8.268-3.73c-2.558,0-5.124,0.879-7.174,2.709c-4.609,3.951-5.116,10.904-1.093,15.442
		c0.364,0.508,5.488,6.289,14.27,12.291c5.78,3.951,13.391,8.046,22.388,10.39c-0.144,0.222-0.222,0.514-0.294,0.729
		c-1.171,2.637-2.779,5.274-7.317,7.904c-3.001,1.758-5.194,2.637-6.731,3.152c-1.536,0.436-2.344,0.507-3.437,0.507
		c-1.465,0-3.587-0.293-7.096-1.022c-0.665-0.15-1.322-0.15-1.979-0.222c-0.222-0.072-0.436-0.143-0.73-0.293
		c-3.587-1.758-8.053-4.831-11.347-7.461c-1.608-1.243-2.994-2.486-3.952-3.294l-1.093-1.021l-0.222-0.222h-0.071
		c-4.388-4.245-11.34-4.023-15.514,0.293c-4.174,4.388-4.024,11.34,0.364,15.514c0.221,0.214,4.83,4.68,11.34,9.289
		c1.1,0.879,2.415,1.687,3.659,2.486c-1.751,2.859-3.659,4.831-5.488,6.074c-2.924,2.051-6.067,3.002-10.169,3.002
		c-3.658,0-7.974-0.879-12.291-2.708c-1.465-0.586-2.858-1.465-4.245-2.194c0.8-3.144,1.244-6.295,1.244-9.511
		c0-6.588-1.758-13.32-5.488-19.322c-6.296-10.097-16.828-16.092-27.884-17.043c0-0.372,0.079-0.807,0.079-1.172
		c0-7.246-1.98-14.635-6.002-21.223c-7.539-12.148-20.638-18.951-33.95-18.951h-0.222c-0.586,0-1.101,0.072-1.608,0.072
		c-0.657-5.71-2.487-11.34-5.71-16.464c-6.217-10.026-16.17-16.314-26.926-18.293c-0.078-7.096-2.05-14.342-6.002-20.781
		c-7.61-12.219-20.78-18.95-34.171-18.95c-7.246,0-14.635,1.972-21.223,6.074l-14.049,8.704c-0.364-0.729-0.8-1.536-1.093-2.265
		c-2.494-5.852-4.03-11.712-4.173-15.657l-0.294-6.224l-70.98-61.833L0,198.483l62.862,54.808c1.093,6.588,3.144,12.877,5.56,18.729
		c1.536,3.809,3.294,7.396,5.045,10.762c-3.802,6.288-5.924,13.534-5.924,20.78c0,7.246,1.972,14.635,6.074,21.217
		c6.217,9.954,16.171,16.25,26.926,18.222c0.072,7.096,2.051,14.342,6.002,20.78c7.611,12.22,20.78,19.03,34.172,19.03
		c0.514,0,1.022-0.078,1.536-0.15c0.729,5.71,2.558,11.34,5.781,16.536c7.61,12.227,20.78,18.958,34.171,18.958
		c1.315,0,2.637-0.15,3.952-0.293c0.658,5.116,2.344,10.24,5.195,14.849c6.953,11.126,18.95,17.343,31.099,17.271
		c6.588,0,13.32-1.758,19.315-5.488l18.294-11.34c3.588,2.344,7.317,4.387,11.348,6.002c7.317,3.144,15.364,5.045,23.631,5.045
		c9.075,0.071,18.737-2.416,27.004-8.268c5.338-3.73,9.876-8.854,13.606-14.928c0.586,0,1.1,0.072,1.687,0.072
		c3.801,0,7.903-0.507,12.069-1.829c4.101-1.243,8.196-3.144,12.591-5.631c10.462-5.931,16.757-14.635,19.83-22.024
		c0.657-1.687,1.172-3.223,1.608-4.688c2.486-0.8,4.974-1.758,7.175-3.072c8.046-4.609,13.312-11.705,16.607-18.808
		c3.222-7.167,4.68-14.635,4.68-21.802c0-0.736-0.071-1.394-0.143-2.123c5.338-2.122,10.097-5.194,14.12-8.71
		c4.173-3.659,7.682-7.904,10.247-12.727c2.558-4.759,4.316-10.318,4.316-16.32c0-3.952-0.807-8.046-2.558-11.927
		c-0.514-1.243-1.322-2.344-2.122-3.516c3.144-5.559,6.288-11.776,8.853-18.508c1.973-5.124,3.58-10.468,4.538-16.028L512,198.483
		L491.949,177.188z M114.227,312.416l-0.658,0.436c-1.829,1.101-3.808,1.615-5.78,1.615c-3.659,0-7.246-1.758-9.297-5.124
		c-1.165-1.83-1.679-3.809-1.679-5.782c0.071-3.659,1.829-7.174,5.194-9.297l24.075-14.999c1.9-1.093,3.801-1.608,5.781-1.608
		c3.73,0,7.246,1.829,9.289,5.124l12.441-7.689l-12.441,7.761c1.172,1.829,1.687,3.73,1.687,5.709
		c-0.072,2.558-0.95,5.046-2.636,7.025l-20.709,12.877C117.592,309.636,115.913,310.951,114.227,312.416z M146.497,351.854
		c-1.83,1.172-3.809,1.686-5.781,1.686c-3.659,0-7.246-1.83-9.297-5.195c-1.165-1.829-1.679-3.738-1.679-5.71
		c0.071-2.558,0.95-5.052,2.636-7.025l20.702-12.876c1.908-1.172,3.588-2.565,5.202-3.952l0.729-0.443
		c1.9-1.172,3.802-1.679,5.781-1.679c3.73,0.071,7.246,1.829,9.289,5.194c1.172,1.83,1.687,3.73,1.687,5.71
		c-0.072,3.73-1.829,7.239-5.195,9.361L146.497,351.854z M212.06,372.27l-24.146,14.999c-1.83,1.1-3.738,1.615-5.71,1.615
		c-3.73,0-7.246-1.829-9.289-5.124c-1.172-1.901-1.687-3.808-1.687-5.78c0-3.73,1.83-7.246,5.196-9.297l24.074-14.999
		c1.829-1.094,3.801-1.608,5.781-1.608c3.658,0,7.167,1.758,9.29,5.124c1.1,1.83,1.615,3.802,1.615,5.782
		C217.184,366.639,215.426,370.148,212.06,372.27z M247.039,406.734l-20.708,12.876c-1.244,0.808-2.487,1.1-3.88,1.1
		c-2.416,0-4.831-1.171-6.217-3.437c-0.736-1.243-1.1-2.487-1.1-3.88c0-2.486,1.243-4.83,3.437-6.145v-0.072l20.709-12.884
		c1.322-0.73,2.566-1.094,3.88-1.094c2.486,0.072,4.83,1.244,6.217,3.509c0.807,1.244,1.1,2.487,1.1,3.808
		C250.476,403.004,249.304,405.348,247.039,406.734z"/>
</g>
</svg>