<?xml version="1.0" encoding="utf-8"?>

<!DOCTYPE svg PUBLIC "-//W3C//DTD SVG 1.1//EN" "http://www.w3.org/Graphics/SVG/1.1/DTD/svg11.dtd">

<svg height="800px" width="800px" version="1.1" id="_x32_" xmlns="http://www.w3.org/2000/svg" xmlns:xlink="http://www.w3.org/1999/xlink" 
	 viewBox="0 0 512 512"  xml:space="preserve">
<style type="text/css">
	.st0{fill:#000000;}
</style>
<g>
	<path class="st0" d="M364.717,270.937c-2.241-9.343-7.942-29.512-19.625-50.299c-7.892-13.981-18.587-28.35-33.236-39.472
		c-14.6-11.114-33.376-18.727-55.745-18.718h-0.082h-0.116h-0.041c-22.352-0.008-41.129,7.604-55.736,18.718
		c-21.949,16.725-35.073,40.527-43.106,59.889v0.008c-5.248,12.738-8.255,23.679-9.754,29.874H38.225v51.724l23.316,89.738h34.126
		V512h12.218h308.449v-99.601h34.117l23.324-89.738v-51.724H364.717z M184.284,228.91c7.028-12.218,16.272-24.148,28.004-32.857
		c11.765-8.717,25.887-14.385,43.708-14.41c18.11,0.024,32.395,5.866,44.276,14.83c17.764,13.396,29.702,34.274,36.944,51.896
		c3.625,8.808,6.113,16.774,7.67,22.484c0.569,2.092,1.013,3.888,1.343,5.314H165.755C167.65,268.136,173.137,248.23,184.284,228.91
		z M397.137,492.803H114.864V372.276h282.274V492.803z M435.604,393.219h-24.51v-34.908H100.898v34.908H76.396l-16.923-65.137
		h393.055L435.604,393.219z M454.579,314.117H57.422v-23.984h397.158V314.117z"/>
	<path class="st0" d="M256.004,149.355c41.244,0,74.67-33.434,74.67-74.67c0-41.26-33.425-74.677-74.67-74.686
		c-41.252,0.008-74.685,33.425-74.685,74.686C181.318,115.922,214.752,149.355,256.004,149.355z M215.535,34.216
		c10.38-10.365,24.634-16.767,40.469-16.767c15.827,0,30.081,6.402,40.462,16.767c10.365,10.372,16.758,24.642,16.758,40.469
		c0,15.819-6.393,30.088-16.758,40.453c-10.38,10.366-24.634,16.759-40.462,16.759c-15.834,0-30.088-6.393-40.469-16.759
		c-10.373-10.364-16.758-24.634-16.758-40.453C198.776,58.858,205.162,44.589,215.535,34.216z"/>
</g>
</svg>