<?xml version="1.0" encoding="utf-8"?>

<!DOCTYPE svg PUBLIC "-//W3C//DTD SVG 1.1//EN" "http://www.w3.org/Graphics/SVG/1.1/DTD/svg11.dtd">

<svg version="1.1" id="_x32_" xmlns="http://www.w3.org/2000/svg" xmlns:xlink="http://www.w3.org/1999/xlink" 
	 width="800px" height="800px" viewBox="0 0 512 512"  xml:space="preserve">
<style type="text/css">
<![CDATA[
	.st0{fill:#000000;}
]]>
</style>
<g>
	<path class="st0" d="M466.982,182.202l-47.984-28.906l47.984-28.875c9.469-5.719,12.516-18,6.813-27.469
		c-5.688-9.469-17.984-12.5-27.453-6.813l-71.672,43.156H129.639c-11.047,0-20,8.969-20,20c0,11.063,8.953,20,20,20H374.67
		l71.672,43.156c9.469,5.719,21.75,2.656,27.453-6.813S476.451,187.89,466.982,182.202z"/>
	<path class="st0" d="M152.232,109.296h207.547l40.531-76.156c3.203-5.625,4.328-16.891-12.578-24.406
		c-23.906-10.625-69.484,35.688-129.578,11.266C194.904-5.704,149.248-2.517,128.592,6.858
		c-20.656,9.391-16.906,26.281-16.906,26.281L152.232,109.296z"/>
	<path class="st0" d="M466.045,356.14c-13.906-21.438-65.219-104.781-98.422-158.844h-223.25
		c-33.188,54.063-84.5,137.406-98.406,158.844C0.889,425.608-0.986,511.999,85.404,511.999h341.203
		C512.982,511.999,511.107,425.608,466.045,356.14z M335.264,353.108c0,9.719-0.656,17.297-1.969,23.203
		c-1.344,5.953-4.109,12.531-8.219,19.563c-4.172,7.109-9.766,13.531-16.641,19.125c-6.922,5.625-14.453,9.703-22.391,12.125
		c-7.797,2.391-17.172,3.594-27.859,3.594c-24.578,0-44.531-7.891-59.297-23.469c-14.688-15.5-22.141-33.516-22.141-53.547
		c0-21.078,7.656-39.281,22.734-54.094c15.078-14.797,33.578-22.297,54.984-22.297c12.531,0,24.172,1.938,34.578,5.766
		c10.516,3.844,21.328,11.063,32.156,21.453l-20.031,20.031c-13.063-12.813-27.719-19.031-44.797-19.031
		c-14.797,0-26.734,4.594-36.516,14.031c-9.734,9.406-14.469,20.844-14.469,34.984c0,12.297,4.625,23.109,14.125,33.047
		c9.438,9.891,22.219,14.703,39.094,14.703c22.625,0,37.25-8.563,44.547-26.141H275.67v-27.578h59.594V353.108z"/>
</g>
</svg>