<?xml version="1.0" encoding="utf-8"?>

<!DOCTYPE svg PUBLIC "-//W3C//DTD SVG 1.1//EN" "http://www.w3.org/Graphics/SVG/1.1/DTD/svg11.dtd">

<svg version="1.1" id="_x32_" xmlns="http://www.w3.org/2000/svg" xmlns:xlink="http://www.w3.org/1999/xlink" 
	 width="800px" height="800px" viewBox="0 0 512 512"  xml:space="preserve">
<style type="text/css">
<![CDATA[
	.st0{fill:#000000;}
]]>
</style>
<g>
	<path class="st0" d="M152.232,109.296h207.547l40.531-76.156c3.203-5.625,4.328-16.891-12.578-24.406
		c-23.906-10.625-69.484,35.688-129.578,11.266C194.904-5.704,149.248-2.517,128.592,6.858
		c-20.656,9.391-16.906,26.281-16.906,26.281L152.232,109.296z"/>
	<path class="st0" d="M466.982,182.202l-47.984-28.906l47.984-28.875c9.469-5.719,12.516-18,6.813-27.469
		c-5.688-9.469-17.984-12.5-27.453-6.813l-71.672,43.156H129.639c-11.047,0-20,8.969-20,20c0,11.063,8.953,20,20,20H374.67
		l71.672,43.156c9.469,5.719,21.75,2.656,27.453-6.813S476.451,187.89,466.982,182.202z"/>
	<path class="st0" d="M466.045,356.14c-13.906-21.438-65.219-104.781-98.422-158.844h-223.25
		c-33.188,54.063-84.5,137.406-98.406,158.844C0.889,425.608-0.986,511.999,85.404,511.999h341.203
		C512.982,511.999,511.107,425.608,466.045,356.14z M309.326,296.733l-4.484-1.875c-7.375-3.125-15.047-4.688-22.797-4.688
		c-22.422,0-43.016,13-52.906,32.906h74.781l-4.609,22.328h-76.234c-0.094,1.266-0.156,2.563-0.156,3.859
		c0,3.188,0.281,6.438,0.828,9.703h72.797l-4.594,22.328h-59.5c10.844,16.875,29.313,27.094,49.594,27.094
		c6.875,0,13.766-1.266,20.484-3.766l5.359-2v31.422l-2.938,0.781c-7.531,2.031-15.234,3.063-22.906,3.063
		c-36.5,0-69.328-22.625-82.531-56.594h-18.875v-22.328h13.391c-0.406-3.422-0.609-6.609-0.609-9.703
		c0-1.281,0.031-2.594,0.094-3.859h-12.875v-22.328h16.844c11.438-36.906,45.781-62.438,84.563-62.438
		c10.297,0,20.422,1.813,30.094,5.344l3.219,1.188L309.326,296.733z"/>
</g>
</svg>