<?xml version="1.0" encoding="utf-8"?>

<!DOCTYPE svg PUBLIC "-//W3C//DTD SVG 1.1//EN" "http://www.w3.org/Graphics/SVG/1.1/DTD/svg11.dtd">

<svg version="1.1" id="_x32_" xmlns="http://www.w3.org/2000/svg" xmlns:xlink="http://www.w3.org/1999/xlink" 
	 viewBox="0 0 512 512"  xml:space="preserve">
<style type="text/css">
	.st0{fill:#000000;}
</style>
<g>
	<path class="st0" d="M489.401,64.386V24.145h-24.145H280.143V0h-48.29v24.145H46.743H22.599v40.241h24.145v249.496H22.599v40.241
		h24.145h418.513h24.145v-40.241h-24.145V64.386H489.401z M78.937,313.882V64.386h354.127v249.496H78.937z"/>
	<path class="st0" d="M333.797,459.686c-0.77,0-1.493,0.165-2.252,0.228l-58.428-61.234l-0.503-0.008l0.503-0.691h-1.022v-35.809
		h-32.193v37.223l-59.882,60.472c-0.613-0.04-1.202-0.18-1.824-0.18c-14.446,0-26.157,11.71-26.157,26.157
		c0,14.446,11.711,26.157,26.157,26.157c14.446,0,26.157-11.711,26.157-26.157c0-4.103-1.03-7.931-2.712-11.381l55.01-53.736
		l53.508,54.09c-1.572,3.364-2.515,7.074-2.515,11.028c0,14.446,11.711,26.157,26.153,26.157c14.446,0,26.157-11.711,26.157-26.157
		C359.953,471.396,348.242,459.686,333.797,459.686z"/>
	<path class="st0" d="M230.611,155.416c-12.072-14.564-30.354-23.909-50.734-23.909c-0.864,0-1.862,0-2.956,0.071
		c-0.015,0-0.023,0-0.046,0c-0.024,0-0.032,0-0.071,0v0.008c-34.85,1.635-62.641,30.378-62.649,65.643
		c0.008,36.288,29.442,65.722,65.722,65.73c36.288-0.008,65.722-29.442,65.73-65.73c0.008-15.884-5.667-30.448-14.973-41.79
		L230.611,155.416z M219.341,160.8l-39.156,35.117v-52.439C195.636,143.557,209.532,150.245,219.341,160.8z"/>
	<rect x="283.161" y="135.532" class="st0" width="96.583" height="24.145"/>
	<rect x="283.161" y="183.821" class="st0" width="96.583" height="24.145"/>
	<rect x="283.161" y="232.111" class="st0" width="64.39" height="24.145"/>
</g>
</svg>