<?xml version="1.0" encoding="utf-8"?>

<!DOCTYPE svg PUBLIC "-//W3C//DTD SVG 1.1//EN" "http://www.w3.org/Graphics/SVG/1.1/DTD/svg11.dtd">

<svg height="800px" width="800px" version="1.1" id="_x32_" xmlns="http://www.w3.org/2000/svg" xmlns:xlink="http://www.w3.org/1999/xlink" 
	 viewBox="0 0 512 512"  xml:space="preserve">
<style type="text/css">
	.st0{fill:#000000;}
</style>
<g>
	<path class="st0" d="M469.027,68.852c7.609,0,13.779-6.171,13.779-13.78V50.23c0-7.609-6.17-13.779-13.779-13.779H272.201V0H239.8
		v36.451H42.973c-7.609,0-13.78,6.17-13.78,13.779v4.842c0,7.609,6.171,13.78,13.78,13.78h10.521v230.857H42.973
		c-7.609,0-13.78,6.17-13.78,13.78v4.841c0,7.61,6.171,13.78,13.78,13.78h10.521H239.8v66.281l-55.527,61.891
		c-2.112-0.554-4.291-0.933-6.577-0.933c-14.54,0-26.326,11.786-26.326,26.326c0,14.539,11.786,26.326,26.326,26.326
		c14.539,0,26.325-11.787,26.325-26.326c0-3.291-0.676-6.408-1.78-9.31l54.463-60.705l52.861,61.322
		c-0.961,2.737-1.586,5.632-1.586,8.694c0,14.539,11.787,26.326,26.326,26.326c14.539,0,26.326-11.787,26.326-26.326
		c0-14.54-11.786-26.326-26.326-26.326c-2.512,0-4.892,0.467-7.191,1.123l-53.885-62.523l-0.621-0.016l0.621-0.688h-1.028V332.11
		h186.305h10.521c7.609,0,13.779-6.171,13.779-13.78v-4.841c0-7.61-6.17-13.78-13.779-13.78h-10.521V68.852H469.027z
		 M77.795,299.709V68.852h356.411v230.857H77.795z"/>
	<path class="st0" d="M359.895,105.745c-13.115,0-23.747,10.632-23.747,23.756c0,4.2,1.178,8.084,3.093,11.51l-57.303,66.249
		c-2.634-1.005-5.458-1.614-8.448-1.614c-2.08,0-4.066,0.356-5.988,0.854l-23.257-33.595c2.753-3.877,4.406-8.591,4.406-13.709
		c0-13.123-10.632-23.755-23.763-23.755c-13.124,0-23.755,10.632-23.755,23.755c0,3.599,0.854,6.969,2.286,10.022l-52.209,52.208
		c-3.053-1.432-6.423-2.286-10.022-2.286c-13.123,0-23.755,10.632-23.755,23.755s10.632,23.763,23.755,23.763
		c13.131,0,23.763-10.64,23.763-23.763c0-3.592-0.855-6.962-2.286-10.014l52.208-52.209c3.054,1.432,6.423,2.286,10.015,2.286
		c2.088,0,4.074-0.356,6.004-0.862l23.256,33.588c-2.753,3.876-4.414,8.591-4.414,13.717c0,13.123,10.632,23.763,23.755,23.763
		c13.131,0,23.763-10.64,23.763-23.763c0-4.201-1.178-8.085-3.093-11.51l57.287-66.25c2.634,1.013,5.466,1.622,8.448,1.622
		c13.131,0,23.763-10.64,23.763-23.763C383.658,116.377,373.027,105.745,359.895,105.745z"/>
</g>
</svg>