<?xml version="1.0" encoding="utf-8"?>

<!DOCTYPE svg PUBLIC "-//W3C//DTD SVG 1.1//EN" "http://www.w3.org/Graphics/SVG/1.1/DTD/svg11.dtd">

<svg version="1.1" id="_x32_" xmlns="http://www.w3.org/2000/svg" xmlns:xlink="http://www.w3.org/1999/xlink" 
	 width="800px" height="800px" viewBox="0 0 512 512"  xml:space="preserve">
<style type="text/css">
<![CDATA[
	.st0{fill:#000000;}
]]>
</style>
<g>
	<path class="st0" d="M256,0C114.609,0,0,114.625,0,256c0,141.391,114.609,256,256,256c141.375,0,256-114.609,256-256
		C512,114.625,397.375,0,256,0z M256,453.969c-109.172,0-197.969-88.813-197.969-197.969S146.828,58.031,256,58.031
		c109.156,0,197.969,88.813,197.969,197.969S365.156,453.969,256,453.969z"/>
	<path class="st0" d="M256,76.031C156.766,76.031,76.016,156.75,76.016,256S156.766,435.969,256,435.969
		c99.219,0,179.969-80.719,179.969-179.969S355.219,76.031,256,76.031z M320.172,310.688c-3.594,6.719-8.516,12.328-14.766,16.906
		c-6.25,4.594-13.75,8-22.453,10.25c-3.797,0.969-7.781,1.625-11.828,2.188v25.344h-30.281v-24.844
		c-8.609-0.719-16.844-2.063-24.594-4.219c-11.844-3.219-27.375-16.328-27.375-16.328c-1.313-0.766-2.188-2.141-2.375-3.641
		c-0.203-1.531,0.313-3.063,1.406-4.156l15.156-15.156c1.656-1.625,4.188-1.938,6.156-0.719c0,0,11.344,9.844,19.938,12.188
		s17.125,3.531,25.641,3.531c10.734,0,19.609-1.906,26.641-5.688C288.5,302.5,292,296.625,292,288.547
		c0-5.797-1.719-10.391-5.188-13.734c-3.484-3.359-9.328-5.453-17.609-6.375l-27.141-2.344c-16.094-1.563-28.5-6.047-37.219-13.406
		c-8.734-7.375-13.063-18.563-13.063-33.5c0-8.281,1.656-15.656,5.016-22.141s7.922-11.953,13.75-16.422
		c5.797-4.469,12.578-7.828,20.281-10.063c3.219-0.906,6.594-1.531,10.016-2.094v-21.844h30.281v21.406
		c7.047,0.688,13.781,1.813,20.031,3.531c10.625,2.906,21.766,11.625,21.766,11.625c1.391,0.719,2.359,2.094,2.578,3.625
		c0.25,1.578-0.281,3.125-1.359,4.266l-14.219,14.453c-1.531,1.531-3.875,1.922-5.797,0.922c0,0-8.422-5.984-15.703-7.891
		c-7.266-1.891-14.906-2.875-22.953-2.875c-10.5,0-18.281,2.031-23.297,6.047c-5.031,4.031-7.547,9.297-7.547,15.75
		c0,5.828,1.781,10.297,5.375,13.406c3.563,3.141,9.594,5.172,18.094,6.031l23.797,2.031c17.641,1.547,31,6.234,40.047,14.063
		c9.078,7.828,13.594,19.234,13.594,34.203C325.531,296.172,323.719,303.969,320.172,310.688z"/>
</g>
</svg>