<?xml version="1.0" encoding="utf-8"?>

<!DOCTYPE svg PUBLIC "-//W3C//DTD SVG 1.1//EN" "http://www.w3.org/Graphics/SVG/1.1/DTD/svg11.dtd">

<svg version="1.1" id="_x32_" xmlns="http://www.w3.org/2000/svg" xmlns:xlink="http://www.w3.org/1999/xlink" 
	 width="800px" height="800px" viewBox="0 0 512 512"  xml:space="preserve">
<style type="text/css">
<![CDATA[
	.st0{fill:#000000;}
]]>
</style>
<g>
	<polygon class="st0" points="281.844,209.75 275.688,217.031 275.703,234.625 339.156,234.625 339.203,256.031 339.219,259.563 
		275.719,259.563 275.75,297.359 236.219,297.359 236.266,259.563 172.766,259.563 172.781,256.031 172.828,234.703 
		236.281,234.625 236.281,217.078 230.141,209.75 172.906,209.75 172.969,188.484 212.344,188.484 178.984,148.75 212.234,148.75 
		256,200.797 299.75,148.75 333,148.75 299.719,188.484 339.016,188.484 339.094,209.75 	"/>
	<path class="st0" d="M256,55.109c-141.375,0-256,72.266-256,161.422v78.938c0,89.172,114.625,161.422,256,161.422
		s256-72.25,256-161.422v-78.938C512,127.375,397.375,55.109,256,55.109z M256,89.734c120,0,221.375,58.063,221.375,126.797
		C477.375,285.25,376,343.313,256,343.313S34.625,285.25,34.625,216.531C34.625,147.797,136,89.734,256,89.734z"/>
</g>
</svg>