<?xml version="1.0" encoding="utf-8"?>

<!DOCTYPE svg PUBLIC "-//W3C//DTD SVG 1.1//EN" "http://www.w3.org/Graphics/SVG/1.1/DTD/svg11.dtd">

<svg version="1.1" id="_x32_" xmlns="http://www.w3.org/2000/svg" xmlns:xlink="http://www.w3.org/1999/xlink" 
	 width="800px" height="800px" viewBox="0 0 512 512"  xml:space="preserve">
<style type="text/css">
<![CDATA[
	.st0{fill:#000000;}
]]>
</style>
<g>
	<polygon class="st0" points="374.969,144.469 446.641,0 435.719,0 364.234,0 353.297,0 255.953,184.219 158.703,0 147.766,0 
		76.297,0 65.359,0 137.063,144.469 50.766,144.469 50.766,161.484 50.766,213.094 50.766,230.125 181.219,230.125 207.359,275.734 
		207.359,310.328 50.766,310.328 50.766,310.531 50.766,383.844 50.766,395.344 207.359,395.344 207.359,512 304.625,512 
		304.625,395.344 461.234,395.344 461.234,383.844 461.234,310.531 461.234,310.328 304.625,310.328 304.625,275.625 
		330.797,230.125 461.234,230.125 461.234,213.094 461.234,161.484 461.234,144.469 	"/>
</g>
</svg>