<?xml version="1.0" encoding="utf-8"?>

<!DOCTYPE svg PUBLIC "-//W3C//DTD SVG 1.1//EN" "http://www.w3.org/Graphics/SVG/1.1/DTD/svg11.dtd">

<svg version="1.1" id="_x32_" xmlns="http://www.w3.org/2000/svg" xmlns:xlink="http://www.w3.org/1999/xlink" 
	 width="800px" height="800px" viewBox="0 0 512 512"  xml:space="preserve">
<style type="text/css">
<![CDATA[
	.st0{fill:#000000;}
]]>
</style>
<g>
	<path class="st0" d="M387.875,349.869c7.219,5.328,16.672,15.094,16.672,15.094c0.891,0.797,2.141,1.125,3.297,0.844
		c1.188-0.266,2.156-1.109,2.594-2.234c0,0,51.828-131.938,78.719-200.391c-97.313-106.906-279.563,2.375-387.625-77.125
		c-7.313-5.375-16.922-15.297-16.922-15.297c-0.891-0.797-2.141-1.125-3.297-0.844c-1.188,0.281-2.156,1.109-2.594,2.234
		c0,0-51.828,131.953-78.719,200.406C97.391,379.541,279.844,269.994,387.875,349.869z M428.219,151.416
		c-5.234,18.531,2.813,37.719,17.188,52.125c-11.422,29.109-22.859,58.219-34.297,87.328c-16.656-8.531-35.906,0.688-44.578,17.578
		c-33.266-13.578-71.141-15.438-110.25-14.203c32.594-16.297,61.281-44.313,74.563-78.125c13.25-33.766,7.625-64.453-12.875-78.906
		C357.063,135.978,394.938,137.837,428.219,151.416z M240.688,174.181c3.438,9.078,6.906,18.109,10.375,27.141
		c10.906-9.891,21.813-19.766,32.688-29.594c0.813-0.047,1.625-0.078,2.422-0.125c5.266-0.266,10.516-0.5,15.734-0.688
		c0.797-0.031,1.594-0.063,2.406-0.094c-7.984,7.141-15.969,14.344-24,21.578c6.344-0.313,12.688-0.578,18.969-0.75
		c-0.406,1.063-0.828,2.125-1.25,3.188c-1.25,3.219-2.531,6.438-3.781,9.672c-0.438,1.063-0.844,2.125-1.266,3.188
		c-10.313,0.297-20.719,0.813-31.141,1.406c-1.703,1.531-3.406,3.063-5.125,4.609c-1.375,3.547-2.781,7.078-4.156,10.625
		c11.547-0.672,23.094-1.281,34.516-1.594l-0.016,0.031c-1.813,4.578-3.594,9.172-5.406,13.75c-0.281,0.719-0.563,1.438-0.844,2.156
		c-11.406,0.313-22.953,0.922-34.516,1.594c-2.859,7.281-5.734,14.578-8.594,21.875c-7.172,0.406-14.359,0.844-21.547,1.25
		c2.875-7.281,5.75-14.578,8.594-21.859c-11.563,0.672-23.094,1.281-34.5,1.594c0.281-0.719,0.563-1.438,0.844-2.156
		c1.797-4.578,3.594-9.156,5.406-13.734v-0.047c11.422-0.328,22.969-0.938,34.516-1.594c1.391-3.531,2.766-7.063,4.172-10.609
		c-0.563-1.391-1.094-2.828-1.625-4.25c-10.438,0.609-20.844,1.125-31.156,1.406c0.422-1.047,0.844-2.125,1.25-3.188
		c1.281-3.219,2.531-6.453,3.813-9.672c0.406-1.063,0.828-2.125,1.25-3.188c6.297-0.188,12.625-0.438,18.969-0.75
		c-2.547-6.703-5.063-13.469-7.563-20.266c0.797-0.031,1.594-0.047,2.406-0.078c5.219-0.188,10.469-0.438,15.734-0.703
		C239.063,174.275,239.875,174.244,240.688,174.181z M43.75,232.15c11.438-29.109,22.875-58.203,34.313-87.313
		c16.656,8.516,35.859-0.672,44.531-17.578c33.281,13.594,71.156,15.469,110.25,14.234c-32.563,16.297-61.234,44.313-74.531,78.109
		c-13.25,33.781-7.625,64.453,12.844,78.938c-39.094,1.234-76.969-0.641-110.25-14.25C66.156,265.775,58.125,246.556,43.75,232.15z"
		/>
	<path class="st0" d="M126.938,226.978c6.219,1.031,13.188-3.047,15.438-8.781s-1.063-10.938-7.281-11.984
		c-6.203-1.016-12.953,2.484-15.219,8.234C117.625,220.197,120.719,225.962,126.938,226.978z"/>
	<path class="st0" d="M354.063,229.525c6.219,1,12.969-2.516,15.219-8.25c2.25-5.719-0.844-11.5-7.063-12.516
		c-6.219-1.031-13.188,3.063-15.438,8.781C344.531,223.291,347.844,228.478,354.063,229.525z"/>
	<path class="st0" d="M500.047,193.353l-84.109,215.532c-2.969-4.063-6.375-8.532-10.156-13.047l-0.172-0.203l-0.203-0.219
		c-9.594-10.234-24.344-22.109-45.844-31.359c-21.469-9.25-49.656-15.844-85.938-15.844c-1.156,0.016-2.375,0.016-3.625,0.031l0,0
		c-20.016,0-40.906,1.25-60.969,2.453c-20.594,1.234-41.719,2.484-62.094,2.484c-24.109,0-51-1.609-77.078-9.141
		c-17.547-5.094-34.641-12.844-50.547-24.516l-8.406,18.016C28,349.478,46.25,357.509,64.469,362.744
		c28.766,8.281,57.5,9.891,82.469,9.906c21.156-0.016,42.656-1.281,63.25-2.516c20.063-1.203,40.594-2.422,59.813-2.422h-0.125
		h0.297c1.109-0.016,2.266-0.031,3.453-0.016c33.953,0,59.344,6.109,78.25,14.25c18.781,8.078,31.188,18.172,39.172,26.625
		c5.328,6.406,10.109,12.953,13.516,17.891c1.75,2.5,3.125,4.578,4.063,6.031c0.484,0.719,0.844,1.281,1.094,1.656l0.25,0.438
		l0.078,0.109l2.516,4.016c1.469,2.375,4.156,3.703,6.922,3.438c2.766-0.25,5.156-2.063,6.172-4.656L512,216.259L500.047,193.353z"
		/>
</g>
</svg>