<?xml version="1.0" encoding="utf-8"?>

<!DOCTYPE svg PUBLIC "-//W3C//DTD SVG 1.1//EN" "http://www.w3.org/Graphics/SVG/1.1/DTD/svg11.dtd">

<svg version="1.1" id="_x32_" xmlns="http://www.w3.org/2000/svg" xmlns:xlink="http://www.w3.org/1999/xlink" 
	 width="800px" height="800px" viewBox="0 0 512 512"  xml:space="preserve">
<style type="text/css">
<![CDATA[
	.st0{fill:#000000;}
]]>
</style>
<g>
	<path class="st0" d="M432.813,219.75c-2.469,3.875-5.219,7.625-8.172,11.156c-1.781,2.125-1.484,5.313,0.641,7.094
		c0.938,0.813,2.094,1.188,3.234,1.188c1.438,0,2.875-0.625,3.859-1.813c2.625-3.125,5.063-6.375,7.344-9.781h0.016l0.016-0.031
		h0.016l0.063-0.094v-0.031l0.031-0.031h0.016l0.031-0.047l0,0l0.016-0.047h0.016l0.016-0.031l0.016-0.031l0.016-0.031H440
		l0.031-0.063l0,0l0.031-0.031v-0.031l0.031-0.031l0,0l0.031-0.047V227l0.031-0.031l0,0l0.031-0.031v-0.031l0.031-0.031l0.016-0.031
		l0.016-0.016l0.016-0.016l0.016-0.031l0.063-0.094l0,0l0.016-0.031l0.016-0.016l0.063-0.109l0,0l0.031-0.031l0,0l0.094-0.156l0,0
		l0.766-1.172c1.484-2.344,0.797-5.453-1.547-6.953c-0.844-0.531-1.781-0.797-2.703-0.797
		C435.406,217.422,433.781,218.25,432.813,219.75z"/>
	<path class="st0" d="M453.766,123.5c-0.703-2.094-2.672-3.422-4.781-3.422c-0.531,0-1.078,0.078-1.609,0.266
		c-2.641,0.875-4.063,3.75-3.172,6.375c1.469,4.359,2.672,8.875,3.563,13.375c0.484,2.391,2.578,4.063,4.938,4.063l0.984-0.094
		c2.734-0.563,4.5-3.203,3.969-5.938l-0.125-0.625l0,0v-0.031v-0.016l-0.031-0.109v-0.031l-0.016-0.031v-0.016l-0.016-0.109
		l-0.016-0.031v-0.016l-0.016-0.016v-0.031v-0.031l-0.016-0.063l-0.016-0.031v-0.031v-0.031v-0.031h-0.016l-0.016-0.063v-0.031
		v-0.016v-0.031l-0.016-0.016l-0.016-0.031v-0.031v-0.031v-0.031l-0.016-0.031l-0.016-0.031v-0.031v-0.031l0,0l-0.031-0.063v-0.016
		v-0.047l0,0v-0.031l-0.016-0.031l-0.016-0.047v-0.016v-0.047v-0.016l-0.016-0.031l-0.016-0.031v-0.031l0,0l-0.016-0.063
		l-0.016-0.063l0,0v-0.063l0,0l-0.031-0.094v-0.031v-0.031l-0.016-0.031l-0.031-0.156h-0.016v-0.063l-0.031-0.125l0,0v-0.047l0,0
		l-0.047-0.172l0,0l-0.047-0.219l0,0c-0.594-2.594-1.281-5.156-2.031-7.656l-0.063-0.25l-0.094-0.313l-0.016-0.031l-0.063-0.203
		h-0.016l-0.031-0.172l0,0l-0.031-0.063l0,0l-0.047-0.156l-0.047-0.172v-0.016l-0.031-0.031l0,0l-0.031-0.125l0,0v-0.063h-0.016
		l-0.031-0.094l-0.016-0.016v-0.047l0,0l-0.016-0.063h-0.016v-0.063l-0.031-0.047v-0.016v-0.031l-0.016-0.031l-0.016-0.031l0,0
		l-0.016-0.063l0,0l-0.016-0.031v-0.031l-0.016-0.031L454.25,125v-0.031v-0.016l-0.031-0.047l0,0v-0.063h-0.016l-0.016-0.031v-0.031
		l-0.016-0.031l-0.016-0.031v-0.031v-0.016l-0.031-0.047l0,0v-0.063h-0.016l-0.016-0.031V124.5v-0.031l-0.016-0.031l-0.016-0.016
		v-0.047l-0.031-0.031l0,0v-0.031l-0.016-0.031v-0.031L454,124.219v-0.031l-0.031-0.031v-0.031v-0.031h-0.016l-0.016-0.031v-0.031
		L453.922,124l-0.016-0.031v-0.031v-0.031l-0.016-0.016l-0.016-0.016l-0.031-0.125l0,0l-0.016-0.031v-0.016l-0.016-0.031v-0.016
		l-0.031-0.063v-0.031v-0.031l0,0L453.766,123.5z"/>
	<path class="st0" d="M454.063,170.125c-2.531,0-4.688,1.875-5,4.422c-0.563,4.578-1.406,9.141-2.531,13.609
		c-0.688,2.688,0.938,5.438,3.625,6.125l1.25,0.156c2.25,0,4.313-1.531,4.891-3.797c0.25-1.016,0.5-2.047,0.734-3.063v-0.016v-0.031
		l0,0l0.031-0.125v-0.016l0.016-0.047h0.016v-0.031v-0.031l0.016-0.063l0,0l0.016-0.031v-0.031v-0.031v-0.031v-0.031l0.031-0.031
		V187v-0.031l0,0l0.016-0.031v-0.031l0.016-0.031v-0.016l0.016-0.063v-0.016l0.016-0.031v-0.031v-0.031l0,0l0.031-0.125l0,0V186.5
		h0.016l0.016-0.047l0.016-0.109l0,0l0.016-0.063l0,0l0.031-0.172c0.719-3.391,1.297-6.859,1.719-10.359
		c0.344-2.75-1.625-5.25-4.391-5.594L454.063,170.125z"/>
	<path class="st0" d="M429.344,81.875L429.344,81.875l-0.109-0.125v-0.016l-0.109-0.109v-0.031l-0.25-0.25l0,0
		c-0.813-0.891-1.656-1.781-2.5-2.656c-0.984-1-2.297-1.516-3.609-1.516c-1.266,0-2.531,0.484-3.516,1.422
		c-2,1.938-2.031,5.141-0.094,7.125c3.203,3.313,6.219,6.844,9,10.531c0.984,1.313,2.5,2,4.031,2c1.063,0,2.109-0.313,3.031-1
		c2.219-1.656,2.656-4.828,1-7.063c-1.688-2.25-3.469-4.438-5.313-6.563l0,0l-0.094-0.094l0,0l-0.031-0.031v-0.031l-0.063-0.063
		l-0.031-0.031l-0.016-0.031h-0.016l-0.031-0.031l0,0l-0.031-0.063l0,0l-0.031-0.031h-0.016l-0.031-0.047H430.5l-0.031-0.047l0,0
		l-0.031-0.031v-0.031l-0.031-0.031h-0.016L430.359,83l-0.016-0.016l-0.031-0.031v-0.016l-0.031-0.031l0,0l-0.031-0.031
		l-0.031-0.031v-0.016l-0.031-0.016l-0.016-0.031l-0.016-0.016l-0.031-0.047h-0.016l-0.016-0.031l-0.031-0.016v-0.016l-0.031-0.031
		L430,82.594h-0.016l-0.016-0.031l-0.016-0.031h-0.016l-0.063-0.094h-0.016l-0.016-0.031h-0.031l-0.063-0.094v-0.031h-0.031
		l-0.016-0.016l-0.078-0.078v-0.031l-0.031-0.031l0,0l-0.094-0.094l0,0L429.469,82l0,0l-0.094-0.094l0,0L429.344,81.875z"/>
	<polygon class="st0" points="190.484,410.594 190.484,381.375 229.672,381.375 229.672,378.5 229.672,360.156 229.672,360.094 
		190.484,360.094 190.484,345.938 194.281,340.031 229.672,340.031 229.672,335.781 229.672,322.844 229.672,318.594 
		208.078,318.594 226.031,290.656 223.281,290.656 205.391,290.656 202.656,290.656 178.281,328.531 153.953,290.656 
		151.219,290.656 133.313,290.656 130.578,290.656 148.531,318.594 126.938,318.594 126.938,322.844 126.938,335.781 
		126.938,340.031 162.328,340.031 166.125,345.969 166.125,360.094 126.938,360.094 126.938,360.156 126.938,378.5 126.938,381.375 
		166.125,381.375 166.125,410.594 	"/>
	<path class="st0" d="M178.313,189.25c-89.125,0-161.375,72.25-161.375,161.375S89.188,512,178.313,512
		s161.375-72.25,161.375-161.375S267.438,189.25,178.313,189.25z M178.313,486.781c-75.094,0-136.156-61.094-136.156-136.156
		c0-75.094,61.063-136.156,136.156-136.156c75.063,0,136.156,61.063,136.156,136.156
		C314.469,425.688,253.375,486.781,178.313,486.781z"/>
	<path class="st0" d="M163.844,243l0.641-0.063c4.547-0.563,9.203-0.844,13.828-0.844c1.25,0,2.5,0,3.75,0.063h0.188
		c2.688,0,4.938-2.156,5.031-4.875c0.094-2.781-2.094-5.125-4.875-5.219l-0.5-0.016l0,0h-0.063h-0.016h-0.047h-0.031h-0.031h-0.031
		l-0.078-0.016h-0.016h-0.031l0,0c-0.75,0-1.5-0.031-2.25-0.031h-0.125h-0.031h-0.031h-0.016h-0.078l0,0H179h-0.031h-0.031h-0.031
		h-0.031h-0.047h-0.016h-0.047h-0.016h-0.047h-0.016h-0.063l0,0h-0.047h-0.016H178.5h-0.063h-0.016h-0.047l0,0h-0.063h-0.063h-0.016
		h-0.047l0,0h-0.063l0,0h-0.063l0,0H178l0,0h-0.047h-0.016h-0.031h-0.031h-0.031h-0.031h-0.031h-0.031h-0.031h-0.031h-0.031h-0.016
		h-0.047l0,0h-0.063h-0.016h-0.047l0,0h-0.063l0,0h-0.063l0,0h-0.063l0,0h-0.047h-0.016h-0.031h-0.031h-0.031h-0.031h-0.031h-0.031
		H177h-0.031h-0.031h-0.016h-0.047l0,0h-0.063h-0.016h-0.047l0,0h-0.063l0,0h-0.047h-0.016h-0.047h-0.016h-0.031H176.5h-0.031
		h-0.031h-0.031h-0.016h-0.047h-0.031h-0.031h-0.031l-0.031,0.031l0,0h-0.063l0,0h-0.063l0,0h-0.047h-0.016h-0.047h-0.016h-0.047
		h-0.016h-0.047h-0.016h-0.031h-0.031h-0.031h-0.031h-0.031h-0.016h-0.047h-0.031h-0.031h-0.016H175.5h-0.016h-0.047l0,0h-0.063l0,0
		h-0.047h-0.016h-0.047h-0.016h-0.031h-0.031h-0.047h-0.016h-0.031h-0.031h-0.031h-0.016h-0.047h-0.016l-0.047,0.016h-0.016h-0.047
		l0,0h-0.063l0,0h-0.047h-0.016h-0.063l0,0h-0.031h-0.031l-0.031,0.016h-0.031H174.5h-0.016h-0.047h-0.031h-0.031h-0.031h-0.031l0,0
		h-0.063l0,0h-0.063h-0.016h-0.031h-0.016h-0.047h-0.016h-0.031H174l-0.047,0.016h-0.016h-0.031h-0.031h-0.031h-0.016h-0.047h-0.016
		l-0.047,0.016h-0.016h-0.047l0,0h-0.047h-0.016h-0.047h-0.016h-0.063l0,0h-0.047h-0.016h-0.031h-0.031h-0.031h-0.016h-0.047h-0.016
		h-0.047h-0.031h-0.031l0,0h-0.063l0,0L173,232.125l0,0h-0.063l0,0h-0.047h-0.016h-0.031h-0.031h-0.047h-0.016h-0.031h-0.031h-0.031
		h-0.016h-0.047l0,0h-0.063h-0.063l0,0h-0.063l0,0l-0.063,0.031l0,0h-0.109h-0.016h-0.031h-0.031h-0.031H172h-0.016h-0.047l0,0
		h-0.063l0,0l-0.109,0.031h-0.016h-0.047h-0.016h-0.031h-0.031h-0.094h-0.016h-0.047l0,0h-0.063h-0.125l0,0l-0.047,0.016h-0.016
		h-0.047l-0.109,0.016h-0.016H171h-0.016h-0.047l0,0h-0.125l0,0l-0.063,0.016l0,0l-0.172,0.016h-0.016h-0.031h-0.016h-0.047h-0.125
		l-0.063,0.016l0,0l-0.219,0.016h-0.016c-2.297,0.156-4.578,0.375-6.828,0.656c-2.766,0.359-4.719,2.875-4.375,5.656
		C159.172,241.125,161.344,243,163.844,243z"/>
	<path class="st0" d="M133.813,245.953c-0.859-1.797-2.656-2.859-4.547-2.859c-0.734,0-1.484,0.156-2.172,0.5
		c-1.719,0.813-3.406,1.688-5.063,2.578l-0.313,0.172l-0.063,0.031l-0.094,0.063H121.5v0.031l-0.094,0.031l-0.016,0.016
		l-0.047,0.016v0.016l-0.047,0.016l-0.047,0.031h-0.016l-0.031,0.031h-0.016l-0.031,0.031h-0.016l-0.047,0.031h-0.016l-0.031,0.016
		l-0.016,0.016L121,246.734l-0.031,0.016h-0.031l-0.016,0.031h-0.031l-0.016,0.031h-0.031l-0.031,0.031h-0.016l-0.047,0.016v0.016
		l-0.031,0.016l-0.031,0.016l-0.031,0.016v0.016h-0.063l-0.016,0.031h-0.016L120.531,247h-0.016l-0.016,0.031l-0.063,0.016
		l-0.047,0.016h-0.016l-0.031,0.031l0,0l-0.109,0.063l-0.047,0.031l0,0l-0.109,0.063l-0.047,0.016l0,0l-0.156,0.078
		c-2.031,1.172-4.031,2.375-5.984,3.656c-2.328,1.5-2.984,4.625-1.484,6.969c0.969,1.469,2.594,2.281,4.25,2.281
		c0.938,0,1.875-0.25,2.719-0.813c3.875-2.5,7.938-4.766,12.078-6.75C133.969,251.469,135.031,248.469,133.813,245.953z"/>
	<path class="st0" d="M142.5,453.109c-4.344-1.516-8.625-3.328-12.75-5.391c-0.719-0.359-1.484-0.531-2.25-0.531
		c-1.844,0-3.625,1.031-4.5,2.781c-1.25,2.5-0.25,5.531,2.25,6.781c1.531,0.766,3.094,1.5,4.688,2.219l0.156,0.063l0,0l0.156,0.078
		l0,0l0.063,0.016l0.047,0.031h0.016l0.031,0.031h0.016h0.047v0.031h0.063l0.031,0.031h0.031l0.031,0.016v0.016l0.063,0.016
		l0.047,0.016h0.016l0.031,0.031h0.016l0.047,0.031l0,0l0.047,0.031h0.016h0.031l0.031,0.031H131l0,0l0.063,0.031h0.016l0.016,0.016
		l0.031,0.016h0.031h0.016l0.016,0.031h0.063l0.016,0.031h0.016h0.031l0.031,0.031h0.016l0.047,0.031h0.031h0.016l0.016,0.016
		l0.031,0.016h0.031l0.063,0.031l0,0l0.031,0.031h0.016h0.031h0.016l0.094,0.063h0.031l0.031,0.031l0,0l0.109,0.031l0.016,0.016
		l0.031,0.016h0.016h0.031h0.016l0.063,0.031v0.031h0.031h0.031l0.031,0.031l0,0l0.125,0.031v0.016l0.031,0.016l0,0l0.125,0.031
		v0.031h0.047h0.016l0.094,0.063h0.031h0.031v0.016l0.125,0.047h0.031l0.016,0.031l0.156,0.063h0.016l0.156,0.063l0,0l0.031,0.016
		h0.016l0.109,0.047l0,0l0.047,0.031h0.016l0.109,0.031h0.016l0.031,0.031l0,0l0.031,0.016l0.125,0.047l0.047,0.031h0.016
		l0.125,0.047l0.031,0.016l0.125,0.047l0,0l0.031,0.016h0.016l0.109,0.063h0.063l0,0l0.109,0.063h0.016h0.031l0,0l0.047,0.031h0.016
		l0.094,0.047h0.031l0.031,0.016l0,0l0.109,0.031l0.016,0.031h0.031h0.031l0.016,0.031h0.016l0.063,0.016l0.016,0.016H135
		l0.031,0.016l0.031,0.016h0.016h0.047l0.031,0.031h0.031l0,0l0.031,0.031h0.031l0.047,0.031h0.016h0.031l0.031,0.031h0.031h0.016
		l0.016,0.016l0.047,0.016h0.016l0.031,0.016l0.031,0.016h0.031h0.016l0.047,0.031h0.016l0.031,0.031h0.016h0.031l0.031,0.031h0.031
		h0.031l0.031,0.031h0.016l0.031,0.016h0.016l0.047,0.016H136l0.031,0.031h0.031h0.031v0.031h0.063l0.063,0.031l0.031,0.031h0.031
		h0.031l0,0l0.063,0.031l0,0l0.063,0.016l0,0l0.047,0.016h0.016l0.094,0.063l0,0h0.063l0,0c0.844,0.313,1.672,0.625,2.5,0.906
		c0.563,0.219,1.125,0.297,1.688,0.297c2.063,0,4.031-1.297,4.75-3.391C146.5,456.906,145.125,454.031,142.5,453.109z"/>
	<path class="st0" d="M92.594,417.219c-0.984-1.25-2.469-1.938-3.969-1.938c-1.094,0-2.188,0.344-3.094,1.063
		c-2.188,1.719-2.594,4.875-0.906,7.063c0.938,1.188,1.875,2.344,2.828,3.484v0.016L87.531,427l0.031,0.031l0,0l0.094,0.094l0,0
		l0.016,0.031l0.016,0.031h0.031v0.031l0.031,0.031l0.031,0.031v0.016l0.031,0.016v0.031l0.031,0.031h0.031v0.031l0.031,0.016
		l0.016,0.031l0.016,0.016l0.031,0.031l0,0L88,427.563h0.016l0.016,0.031h0.031l0.031,0.047v0.016l0.031,0.031l0,0l0.031,0.031
		v0.031l0.078,0.063l0.016,0.016l0.031,0.047l0,0l0.063,0.094L88.391,428c2.016,2.328,4.109,4.594,6.281,6.75
		c0.984,0.969,2.266,1.469,3.547,1.469c1.313,0,2.594-0.5,3.594-1.5c1.953-1.969,1.938-5.156-0.031-7.125
		C98.516,424.344,95.438,420.875,92.594,417.219z"/>
	<path class="st0" d="M65.344,343.844c2.531,0,4.734-1.938,5-4.531c0.469-4.594,1.25-9.188,2.297-13.656
		c0.641-2.688-1.047-5.406-3.75-6.063l-1.172-0.125c-2.281,0-4.344,1.563-4.906,3.875c-1.125,4.875-1.969,9.844-2.5,14.922
		c-0.281,2.766,1.719,5.25,4.5,5.547L65.344,343.844z"/>
	<path class="st0" d="M93.781,282.531c1.75-2.156,1.406-5.344-0.766-7.094c-0.938-0.75-2.047-1.125-3.172-1.125
		c-1.469,0-2.922,0.656-3.906,1.875c-0.828,1.031-1.641,2.063-2.422,3.094l-0.078,0.125l-0.031,0.031l-0.094,0.125l-0.016,0.031
		l-0.109,0.125l-0.094,0.125v0.031L82.969,280l-0.203,0.281c-1.328,1.813-2.609,3.656-3.828,5.531h-0.016l-0.094,0.156h-0.016V286
		l-0.063,0.094l-0.016,0.031h-0.016l-0.016,0.031l-0.047,0.063l-0.031,0.063l-0.016,0.031h-0.016l-0.031,0.063l0,0l-0.031,0.031
		v0.031l-0.016,0.031H78.5l-0.016,0.031l-0.016,0.031l-0.031,0.031v0.031h-0.016l-0.016,0.031l-0.016,0.031l-0.016,0.031
		l-0.016,0.016l-0.016,0.016l-0.016,0.031l-0.016,0.031h-0.016l-0.031,0.063l0,0l-0.016,0.031l-0.016,0.031l-0.016,0.031h-0.016
		l-0.063,0.094v0.016c-0.328,0.484-0.641,0.984-0.953,1.484c-1.453,2.375-0.719,5.5,1.656,6.969c0.828,0.5,1.75,0.75,2.656,0.75
		c1.688,0,3.344-0.875,4.281-2.406C88.188,289.906,90.875,286.125,93.781,282.531z"/>
	<path class="st0" d="M72.219,373.75c-0.5-2.375-2.594-3.984-4.906-3.984l-1.078,0.109c-2.719,0.594-4.453,3.281-3.859,6
		c1.063,4.969,2.469,9.813,4.156,14.563c0.719,2.063,2.672,3.328,4.75,3.328c0.547,0,1.125-0.109,1.688-0.297
		c2.625-0.938,3.984-3.813,3.063-6.438C74.469,382.719,73.203,378.234,72.219,373.75z"/>
	<path class="st0" d="M238.297,442.031c-0.922,0-1.828,0.25-2.672,0.766c-3.906,2.422-8,4.641-12.172,6.547
		c-2.531,1.156-3.641,4.156-2.484,6.688c0.844,1.844,2.688,2.938,4.594,2.938c0.688,0,1.406-0.125,2.094-0.438
		c2.781-1.281,5.516-2.672,8.188-4.156l0.047-0.031h0.016l0.094-0.063l0,0l0.031-0.031h0.031l0.094-0.047l0.031-0.016h0.016
		l0.047-0.031l0,0l0.047-0.031h0.016l0.031-0.031h0.016l0.047-0.031l0,0l0.047-0.031h0.016L236.5,454h0.031h0.016l0.016-0.031
		l0.047-0.031h0.016h0.031l0.031-0.031l0,0l0.031-0.016l0.031-0.016l0.031-0.031h0.031l0.031-0.031l0,0h0.031l0.016-0.031
		l0.078-0.031l0.031-0.031l0,0h0.031v-0.016l0.125-0.047l0,0l0.031-0.031c1.281-0.75,2.547-1.5,3.797-2.281
		c2.359-1.469,3.078-4.563,1.609-6.938C241.625,442.875,239.984,442.031,238.297,442.031z"/>
	<path class="st0" d="M276.781,407.469c-0.844-0.531-1.781-0.797-2.719-0.797c-1.656,0-3.281,0.828-4.25,2.328
		c-2.469,3.875-5.219,7.625-8.188,11.156c-1.781,2.156-1.484,5.328,0.656,7.109c0.938,0.797,2.094,1.172,3.219,1.172
		c1.453,0,2.875-0.625,3.875-1.813c2.625-3.125,5.063-6.375,7.344-9.781l0,0l0.031-0.031l0,0l0.063-0.094h0.016l0.016-0.047
		l0.016-0.016l0.031-0.031v-0.016l0.016-0.047h0.031v-0.031l0.031-0.031l0.016-0.031l0,0l0.031-0.047l0.016-0.016l0.031-0.031
		l0.016-0.063h0.016l0.031-0.031v-0.031l0.031-0.031v-0.016l0.016-0.016l0.016-0.031l0.031-0.031v-0.031h0.031v-0.031l0.016-0.031
		l0.078-0.094l0,0l0.016-0.031l0.016-0.016l0.063-0.109l0,0l0.016-0.031h0.016l0.094-0.156l0.75-1.172
		C279.813,412.078,279.125,408.969,276.781,407.469z"/>
	<path class="st0" d="M289.688,333.406l1-0.094c2.719-0.563,4.5-3.203,3.969-5.938l-0.125-0.625l0,0v-0.031l-0.016-0.016
		l-0.016-0.109v-0.031l-0.031-0.031l0,0l-0.016-0.125l0,0l-0.016-0.031v-0.031v-0.031v-0.031l-0.031-0.063v-0.031v-0.031v-0.031
		l-0.016-0.016l-0.016-0.016v-0.031V326v-0.016l-0.016-0.031v-0.016l-0.016-0.031v-0.031v-0.031l-0.016-0.031l-0.016-0.031v-0.031
		v-0.031v-0.031l0,0l-0.031-0.063v-0.016v-0.031v-0.016l-0.016-0.031V325.5l-0.016-0.063v-0.047v-0.016l-0.031-0.031v-0.031v-0.031
		l0,0l-0.031-0.063v-0.063l0,0l-0.016-0.063L294.156,325v-0.031l-0.016-0.031h-0.016l-0.031-0.188l0,0v-0.063l-0.031-0.094v-0.031
		l-0.016-0.031v-0.016L294,324.344l-0.031-0.219h-0.016c-0.578-2.594-1.266-5.156-2.016-7.656l-0.063-0.25l-0.109-0.313h-0.016
		l-0.063-0.234l-0.047-0.172l-0.016-0.063l0,0l-0.063-0.156l-0.031-0.172l-0.031-0.047l0,0l-0.031-0.125l0,0l-0.016-0.047
		l-0.016-0.016l-0.031-0.094v-0.016v-0.047l0,0l-0.031-0.047v-0.016l-0.016-0.063l-0.016-0.031v-0.031l-0.016-0.031h-0.016v-0.063
		l-0.031-0.063l0,0v-0.031v-0.031l-0.031-0.031v-0.031l-0.016-0.031v-0.016l-0.016-0.047l0,0l-0.016-0.031l-0.016-0.031v-0.031
		v-0.016L291.156,314v-0.031v-0.031h-0.016l-0.016-0.031v-0.031l-0.016-0.047l-0.016-0.016v-0.031v-0.031l-0.016-0.031l-0.016-0.031
		v-0.016l-0.016-0.047l-0.016-0.031l0,0v-0.031l-0.016-0.031L291,313.5v-0.016v-0.031l-0.031-0.047v-0.031v-0.031h-0.031v-0.031
		v-0.031l-0.016-0.031l-0.016-0.031v-0.031v-0.031l-0.031-0.016v-0.016L290.844,313l0,0l-0.016-0.031l-0.016-0.016v-0.031v-0.016
		l-0.031-0.063l-0.016-0.063l-0.016-0.016c-0.703-2.109-2.656-3.438-4.781-3.438c-0.531,0-1.063,0.078-1.594,0.266
		c-2.656,0.875-4.063,3.75-3.188,6.391c1.469,4.359,2.672,8.859,3.563,13.359C285.234,331.734,287.344,333.406,289.688,333.406z"/>
	<path class="st0" d="M190.813,458.469l-0.563,0.031c-3.938,0.438-7.953,0.656-11.938,0.656c-0.641,0-1.266,0-1.906,0l-0.078-0.016
		c-2.734,0.016-4.984,2.203-5.047,4.953c-0.031,2.781,2.172,5.094,4.953,5.125c0.531,0.016,1.047,0.031,1.578,0.031h0.016h0.047l0,0
		h0.078h0.016H178h0.031h0.031h0.031h0.031h0.031h0.031h0.031h0.031h0.063h0.031h0.031h0.031h0.016h0.031h0.016h0.031h0.031h0.031
		h0.016h0.016h0.031h0.031h0.016h0.031h0.016h0.031h0.031h0.031h0.016h0.031h0.016h0.031h0.016h0.109l0,0h0.047h0.016h0.031h0.031
		h0.031l0,0h0.031h0.031h0.031h0.016h0.016h0.031h0.031h0.031h0.031l0,0h0.031h0.031h0.031h0.016h0.031l0.016-0.016h0.094h0.031
		h0.031h0.016h0.031h0.016h0.031h0.031h0.031l0,0h0.031h0.031H180h0.016h0.031h0.016h0.031h0.031h0.031l0,0h0.063l0,0l0.156-0.016
		l0,0h0.031h0.016h0.047h0.016h0.031h0.016h0.031h0.016h0.047l0,0h0.031h0.031h0.031h0.016h0.031h0.016h0.031h0.031h0.031l0,0h0.219
		h0.031h0.016h0.047l0,0h0.063h0.031h0.016h0.047l0,0h0.047h0.016h0.031h0.063l0,0l0.406-0.031h0.063h0.047
		c3.141-0.094,6.266-0.313,9.328-0.656c2.781-0.313,4.781-2.781,4.469-5.563C195.531,460.391,193.344,458.469,190.813,458.469z"/>
	<path class="st0" d="M291.656,359.406l-0.594-0.031c-2.531,0-4.703,1.875-5.016,4.438c-0.547,4.563-1.391,9.125-2.531,13.594
		c-0.688,2.688,0.953,5.438,3.641,6.125l1.25,0.156c2.25,0,4.297-1.531,4.875-3.797c0.266-1.016,0.5-2.031,0.75-3.063v-0.016v-0.031
		l0.031-0.125v-0.016v-0.031l0.016-0.016v-0.031l0.016-0.031v-0.063l0,0l0.016-0.031l0.016-0.031v-0.031v-0.031l0,0l0.016-0.063
		l0.016-0.016v-0.031v-0.016v-0.031l0.016-0.031l0.016-0.031v-0.031v-0.047l0.016-0.047h0.016v-0.063l0,0l0.031-0.125l0,0v-0.031
		v-0.031l0.016-0.047l0.016-0.109l0,0l0.031-0.063l0.031-0.172c0.719-3.391,1.297-6.859,1.719-10.344
		C296.406,362.25,294.438,359.75,291.656,359.406z"/>
	<path class="st0" d="M215.875,248.75c4.313,1.594,8.563,3.5,12.641,5.625c0.734,0.375,1.547,0.563,2.328,0.563
		c1.813,0,3.578-0.969,4.469-2.688c1.313-2.484,0.344-5.531-2.125-6.813c-3.063-1.609-6.188-3.078-9.406-4.406l-0.156-0.063
		l-0.063-0.031l-0.094-0.047l-0.063-0.016l-0.109-0.063h-0.047l-0.172-0.078l-0.172-0.047v-0.016l-0.047-0.016l-0.109-0.063l0,0
		l-0.063-0.016l-0.094-0.047h-0.063l-0.109-0.063h-0.016l-0.031-0.031h-0.016l-0.172-0.063l-0.156-0.063l0,0
		c-0.875-0.344-1.766-0.688-2.656-1.016c-0.578-0.203-1.172-0.328-1.75-0.328c-2.047,0-3.969,1.281-4.719,3.313
		C211.938,244.891,213.266,247.797,215.875,248.75z"/>
	<path class="st0" d="M269.188,287.5c1.047,0,2.109-0.313,3.016-1c2.234-1.656,2.672-4.844,1-7.063
		c-1.688-2.25-3.453-4.438-5.297-6.563h-0.016l-0.078-0.094l0,0l-0.031-0.047l-0.078-0.078l-0.016-0.031l-0.031-0.016v-0.016
		l-0.031-0.031l0,0l-0.031-0.063h-0.016l-0.016-0.031h-0.031l-0.031-0.031v-0.016l-0.031-0.047l0,0l-0.031-0.031h-0.016
		l-0.031-0.031l-0.016-0.031l-0.031-0.031v-0.016l-0.031-0.031v-0.016l-0.031-0.031l0,0l-0.047-0.031l-0.016-0.031l-0.016-0.031
		h-0.016l-0.031-0.031v-0.016L267.125,272l-0.031-0.031v-0.031h-0.031l-0.016-0.031l-0.016-0.016L267,271.844l-0.031-0.016v-0.016
		l-0.016-0.031h-0.016l-0.078-0.078l-0.016-0.016l-0.016-0.031h-0.016l-0.063-0.094h-0.016l-0.016-0.031l-0.031-0.016l-0.063-0.078
		v-0.031h-0.031l-0.016-0.031l-0.078-0.078v-0.016l-0.031-0.031l0,0l-0.094-0.094l-0.031-0.031l0,0L266.234,271h-0.016l-0.094-0.125
		l-0.016-0.031l-0.234-0.25l0,0c-0.828-0.891-1.656-1.781-2.5-2.656c-1-1-2.297-1.516-3.625-1.516c-1.25,0-2.531,0.484-3.5,1.422
		c-2,1.938-2.047,5.125-0.094,7.125c3.188,3.313,6.219,6.859,8.984,10.531C266.125,286.813,267.656,287.5,269.188,287.5z"/>
	<path class="st0" d="M327.5,53.703c4.531-0.578,9.188-0.891,13.813-0.891c1.25,0,2.516,0.031,3.75,0.094h0.188
		c2.703,0,4.938-2.156,5.031-4.875c0.094-2.781-2.094-5.125-4.875-5.219l-0.5-0.016l0,0h-0.063l0,0l-0.063-0.016h-0.016h-0.031
		h-0.031h-0.016h-0.063h-0.016h-0.047c-0.75,0-1.5-0.031-2.25-0.031h-0.125h-0.031h-0.031h-0.016h-0.063h-0.016H342h-0.031h-0.031
		h-0.031h-0.031h-0.031h-0.031h-0.031h-0.031h-0.031h-0.031h-0.047h-0.016h-0.047h-0.016H341.5l0,0h-0.063l0,0h-0.063l0,0h-0.063
		h-0.063l0,0h-0.047h-0.016h-0.047h-0.016h-0.047h-0.016h-0.047H341h-0.031h-0.031h-0.031h-0.031h-0.031h-0.016h-0.047h-0.031
		h-0.031h-0.031h-0.031l0,0h-0.063h-0.063l0,0h-0.047h-0.016h-0.047h-0.016h-0.047h-0.016h-0.047h-0.016h-0.031h-0.031h-0.031
		h-0.031h-0.031h-0.016h-0.047h-0.031H340h-0.031h-0.031l0,0h-0.063l0,0h-0.063l0,0h-0.047h-0.016h-0.047h-0.016h-0.031h-0.031
		h-0.047h-0.016h-0.031H339.5h-0.031h-0.031h-0.031l0,0h-0.063h-0.016h-0.047h-0.016h-0.031h-0.016h-0.063l0,0h-0.063l0,0h-0.047
		h-0.016L339,42.781h-0.031h-0.031h-0.031h-0.047h-0.016h-0.031h-0.031h-0.031h-0.016h-0.047l0,0h-0.063h-0.016h-0.047l0,0h-0.047
		H338.5h-0.047h-0.016h-0.063l0,0h-0.047h-0.016h-0.031h-0.031h-0.031h-0.016h-0.047h-0.031h-0.031h-0.031h-0.031l0,0h-0.063l0,0
		h-0.063l0,0h-0.063l0,0h-0.047l-0.016,0.016h-0.031h-0.031h-0.047h-0.016h-0.031h-0.031h-0.031h-0.031H337.5l0,0l-0.063,0.016
		h-0.031h-0.031h-0.016h-0.031h-0.016h-0.047h-0.016h-0.063l0,0h-0.047h-0.016h-0.031h-0.031h-0.031H337h-0.031h-0.031h-0.031
		l-0.016,0.016h-0.047l0,0h-0.063l0,0h-0.063l0,0h-0.063l0,0l-0.047,0.016h-0.016h-0.031h-0.031h-0.047h-0.016h-0.031h-0.031h-0.031
		h-0.031h-0.031l0,0h-0.063h-0.016h-0.047h-0.016h-0.047l0,0h-0.047h-0.016H336l0,0h-0.047h-0.016l-0.031,0.031h-0.031h-0.031
		h-0.016h-0.047h-0.016h-0.047h-0.016h-0.047l0,0h-0.063h-0.063h-0.063l0,0h-0.047h-0.016h-0.047h-0.016l-0.109,0.031h-0.047h-0.016
		h-0.047H335l0,0h-0.063l0,0h-0.047h-0.016h-0.094h-0.031l-0.031,0.031h-0.016h-0.047h-0.016h-0.109h-0.016h-0.047l0,0h-0.063
		h-0.125h-0.031h-0.031l-0.031,0.031h-0.016h-0.109H334l0,0h-0.063l0,0h-0.125l0,0h-0.047h-0.016l-0.156,0.016h-0.016L333.531,43
		h-0.016h-0.047l0,0h-0.125h-0.063l-0.219,0.031c-2.313,0.156-4.594,0.375-6.844,0.656c-2.75,0.344-4.719,2.875-4.375,5.641
		c0.344,2.547,2.5,4.422,5,4.422L327.5,53.703z"/>
	<path class="st0" d="M296.813,56.719c-0.844-1.813-2.656-2.875-4.547-2.875c-0.734,0-1.469,0.156-2.172,0.5
		c-1.719,0.813-3.406,1.672-5.063,2.578l-0.313,0.172l-0.063,0.031l-0.094,0.031v0.031h-0.047H284.5l-0.094,0.063l0,0l-0.047,0.031
		h-0.016l-0.031,0.031l0,0l-0.063,0.031l0,0l-0.031,0.031h-0.031l-0.031,0.031h-0.016l-0.047,0.031l0,0l-0.047,0.016l-0.016,0.016
		H284l-0.016,0.031h-0.047v0.031h-0.031l-0.031,0.031h-0.031h-0.016l-0.016,0.031l-0.047,0.031h-0.016l-0.031,0.016l-0.016,0.016
		h-0.031l-0.016,0.016l-0.047,0.016l-0.016,0.031h-0.031l-0.031,0.031h-0.016H283.5l-0.063,0.063l0,0h-0.031h-0.016l-0.047,0.031
		l-0.094,0.063h-0.016l-0.031,0.031h-0.016L283.094,58l-0.047,0.016h-0.016l-0.156,0.078c-2.031,1.156-4.031,2.375-5.984,3.656
		c-2.328,1.5-2.984,4.625-1.484,6.953C276.375,70.188,278,71,279.656,71c0.938,0,1.875-0.25,2.734-0.813
		c3.859-2.5,7.922-4.766,12.063-6.75C296.969,62.219,298.031,59.219,296.813,56.719z"/>
	<path class="st0" d="M230.734,130.219c-2.297,0-4.359,1.563-4.906,3.875c-1.141,4.875-1.984,9.844-2.516,14.922
		c-0.281,2.766,1.734,5.25,4.5,5.547h0.531c2.547,0,4.75-1.922,5-4.5c0.469-4.594,1.25-9.188,2.313-13.656
		c0.625-2.719-1.063-5.406-3.75-6.063L230.734,130.219z"/>
	<path class="st0" d="M248.938,86.938c-0.813,1.031-1.625,2.063-2.422,3.094l-0.078,0.125l-0.031,0.031l0,0l-0.094,0.125
		l-0.125,0.156l0,0l-0.094,0.141l0,0l-0.109,0.141l0,0l-0.203,0.281c-1.344,1.813-2.625,3.656-3.844,5.531l-0.094,0.156h-0.016
		l-0.016,0.031l-0.063,0.063v0.031v0.031h-0.016l-0.016,0.031l0,0l-0.063,0.063L241.641,97v0.031l-0.016,0.031h-0.016l-0.047,0.063
		l0,0l-0.016,0.031l-0.016,0.031h-0.016l-0.016,0.031v0.031l-0.031,0.031l-0.016,0.031h-0.016v0.031l-0.031,0.031v0.031
		l-0.031,0.031h-0.016l-0.016,0.047V97.5l-0.031,0.031l0,0l-0.031,0.063h-0.016l-0.016,0.031v0.016l-0.031,0.047l0,0l-0.063,0.094
		c-0.344,0.5-0.656,1-0.953,1.516c-1.453,2.359-0.734,5.484,1.641,6.922c0.844,0.531,1.75,0.75,2.656,0.75
		c1.688,0,3.344-0.844,4.281-2.406c2.422-3.891,5.109-7.688,8-11.281c1.75-2.172,1.406-5.344-0.766-7.094
		c-0.922-0.75-2.047-1.125-3.172-1.125C251.391,85.063,249.938,85.719,248.938,86.938z"/>
	<path class="st0" d="M383.969,266.781c0.859,1.844,2.688,2.938,4.594,2.938c0.703,0,1.422-0.125,2.094-0.438
		c2.781-1.281,5.531-2.672,8.188-4.156l0.063-0.031l0.094-0.063l0,0l0.047-0.016h0.016l0.094-0.063l0,0l0.047-0.016h0.016
		l0.031-0.031l0.063-0.031l0,0l0.031-0.031h0.031l0.031-0.031l0,0l0.063-0.031l0,0l0.031-0.031h0.031l0.031-0.031l0,0l0.063-0.031
		l0,0l0.031-0.016h0.031l0.016-0.016l0.016-0.031h0.031l0.047-0.031h0.016l0.031-0.031l0,0l0.031-0.031h0.031l0.063-0.031
		l0.031-0.031l0,0l0.031-0.016h0.016l0.109-0.078l0,0h0.047c1.266-0.75,2.531-1.5,3.781-2.281c2.359-1.469,3.078-4.563,1.609-6.938
		c-0.969-1.531-2.594-2.375-4.281-2.375c-0.922,0-1.844,0.25-2.672,0.781c-3.906,2.406-8.016,4.625-12.172,6.531
		C383.938,261.25,382.813,264.25,383.969,266.781z"/>
	<path class="st0" d="M339.234,279.969c0.531,0.016,1.063,0.016,1.594,0.031h0.016h0.031l0,0h0.094l0,0H341h0.031h0.031h0.031h0.031
		h0.047h0.016h0.047h0.016h0.063h0.047h0.016h0.031h0.031h0.031l0,0h0.031h0.031h0.031h0.016h0.031h0.016h0.031h0.031h0.031h0.016
		h0.016h0.031h0.031h0.031h0.016h0.016h0.031h0.031h0.094h0.016h0.047l0,0h0.031h0.031l0.031-0.016h0.016h0.016h0.031h0.031h0.031
		h0.016h0.016h0.031h0.031h0.031h0.016h0.031h0.016h0.031h0.031h0.031l0,0h0.109h0.016h0.031h0.016h0.047l0,0h0.031h0.031h0.031
		h0.016h0.031h0.016H343h0.016h0.047l0,0l0.031-0.016h0.031h0.031h0.016h0.047h0.156h0.047h0.016h0.031h0.016h0.047l0,0h0.047h0.016
		h0.031l0,0h0.047h0.016h0.031h0.016h0.047l0,0h0.047h0.016h0.031h0.016h0.203h0.047h0.016h0.031h0.016h0.047l0,0h0.047h0.016h0.031
		l0,0h0.063h0.031h0.016h0.047l0,0l0.406-0.031h0.063h0.047c3.141-0.094,6.266-0.313,9.344-0.656
		c2.766-0.313,4.766-2.781,4.453-5.563c-0.281-2.578-2.469-4.5-5-4.5l-0.547,0.031c-3.953,0.438-7.969,0.656-11.953,0.656
		c-0.625,0-1.266,0-1.891-0.016h-0.078c-2.75,0-5,2.203-5.047,4.953C334.25,277.625,336.469,279.906,339.234,279.969z"/>
	<path class="st0" d="M385.531,51.25l-0.094-0.031h-0.016l-0.047-0.031l0,0l-0.172-0.063l-0.172-0.063
		c-0.875-0.344-1.766-0.688-2.656-1.016c-0.563-0.203-1.156-0.328-1.75-0.328c-2.047,0-3.969,1.281-4.719,3.313
		c-0.969,2.609,0.375,5.5,2.969,6.469c4.313,1.594,8.563,3.469,12.656,5.625c0.734,0.375,1.531,0.563,2.313,0.563
		c1.828,0,3.594-0.984,4.484-2.719c1.297-2.453,0.328-5.5-2.141-6.797c-3.047-1.594-6.188-3.063-9.391-4.391l0,0l-0.172-0.063l0,0
		l-0.047-0.031h-0.016l-0.094-0.031l-0.063-0.031l0,0l-0.094-0.063h-0.063l0,0l-0.156-0.078h-0.016l-0.156-0.078h-0.016h-0.031
		l-0.125-0.063l0,0l-0.047-0.016h-0.016l-0.094-0.047l0,0L385.531,51.25z"/>
	<path class="st0" d="M63.375,123.656C76.594,104.094,93.125,87,112.063,73.031l11.75,24.938l67.047-70.219l-102.219-4.5
		l12.484,26.5C78.156,65.953,58.25,86.219,42.5,109.531C17.563,146.406,3,190.938,3,238.766h25.219
		C28.219,196.063,41.188,156.531,63.375,123.656z"/>
	<path class="st0" d="M483.781,285.813c-0.016,41.438-12.203,79.906-33.188,112.172c-13.578,20.859-30.875,39.047-50.875,53.766
		l-9.438-20.031l-67.031,70.219l102.219,4.5l-14.859-31.563c24.156-16.969,44.984-38.344,61.109-63.141
		C495.281,375.531,509,332.219,509,285.813H483.781z"/>
	<path class="st0" d="M180,164.063c8.563,0.094,17,0.75,25.266,1.938c-0.047-1.531-0.109-3.078-0.109-4.625
		c0-75.094,61.078-136.156,136.156-136.156s136.156,61.063,136.156,136.156c0,69.797-52.813,127.469-120.563,135.219
		c2.422,8.031,4.328,16.281,5.672,24.719c79.063-10.438,140.109-78.031,140.109-159.938C502.688,72.25,430.438,0,341.313,0
		S179.938,72.25,179.938,161.375C179.938,162.281,180,163.156,180,164.063z"/>
	<path class="st0" d="M328.594,227.688v-13.75h11.219v13.75h12.375v-13.875c4.594-0.234,9.5-0.938,13.422-2.125
		c4.953-1.516,7.859-3.594,11.234-6.25c3.406-2.656,5.969-5.844,7.75-9.5c1.766-3.656,2.656-7.656,2.656-11.984
		c0-11.984-6.781-20.172-21.344-22.703c4.781-1.875,10.094-7.25,11.688-9.156s2.781-3.938,3.531-6.125
		c0.766-2.203,1.156-4.5,1.156-6.875c0-4.203-0.781-7.953-2.281-11.281c-1.531-3.344-4-6.094-7.188-8.563
		c-5.672-4.406-13.938-6.5-20.625-7.063V97.844h-12.375V112l-11.219-0.031V97.844h-12.375v14.094h-9.844h-12.719v11.25
		c0,2.438-0.156,3.906,2.375,4.406l0.938,0.156c0.406,0.063,5.375,0.25,6.469,0.375c1.719,0.25,2.938,1.141,2.938,3.438v61.078
		c0,1.891-0.938,3.781-2.938,3.781c-1.109,0-6.063,0.297-6.469,0.375l-0.938,0.156c-2.531,0.516-2.375,1.969-2.375,4.422v12.563
		h12.719h9.844v13.75H328.594z M357.25,179.094c0.594,1.344,0.875,2.875,0.875,4.594c0,1.625-0.25,3.156-0.781,4.594
		c-0.531,1.469-1.391,2.719-2.563,3.813c-1.188,1.078-2.766,1.938-4.75,2.594c-1.953,0.656-4.391,0.984-7.313,0.984h-13v-23h12.938
		c2.766,0,5.125,0.234,7.063,0.75c1.953,0.516,3.547,1.234,4.797,2.188C355.75,176.563,356.672,177.719,357.25,179.094z
		 M329.266,130h10.047c5.297,0,9.188,0.875,11.688,2.594c2.469,1.75,3.719,4.656,3.719,8.75c0,3.938-1.375,6.813-4.125,8.625
		c-2.781,1.813-6.828,2.719-12.156,2.719h-9.172V130z"/>
</g>
</svg>