<?xml version="1.0" encoding="utf-8"?>

<!DOCTYPE svg PUBLIC "-//W3C//DTD SVG 1.1//EN" "http://www.w3.org/Graphics/SVG/1.1/DTD/svg11.dtd">

<svg version="1.1" id="_x32_" xmlns="http://www.w3.org/2000/svg" xmlns:xlink="http://www.w3.org/1999/xlink" 
	 width="800px" height="800px" viewBox="0 0 512 512"  xml:space="preserve">
<style type="text/css">
<![CDATA[
	.st0{fill:#000000;}
]]>
</style>
<g>
	<path class="st0" d="M13.219,126.81c-2.813-1.438-6.172-1.328-8.875,0.328C1.656,128.779,0,131.716,0,134.873
		c0,0,0,166.469,0,257.125c160,102.016,320-82.875,480-16.719c10.672,4.406,18.719,9.781,18.719,9.781
		c2.813,1.469,6.188,1.375,8.906-0.281c2.719-1.641,4.375-4.578,4.375-7.75c0,0,0-166.359,0-257.031
		C352.781,18.482,193.531,201.107,34.313,137.669C22.875,133.123,13.219,126.81,13.219,126.81z M32,330.544
		c0-38.547,0-77.094,0-115.656c22.969,5.609,40.844-11.078,43.188-34c44.313,7.016,88.625-1.516,132.938-14.156
		c-30.016,29.047-50.313,71.172-50.313,115.969c0,44.719,20.281,80.328,50.297,92.031c-44.297,12.641-88.609,21.172-132.922,14.156
		C72.844,364.935,54.969,343.888,32,330.544z M306.422,263.779c0,4.656-0.953,9.219-2.859,13.688
		c-1.906,4.5-4.688,8.688-8.313,12.625c-3.641,3.938-6.75,7.125-12.094,10.359c-4.188,2.594-9.469,4.969-14.406,6.828
		c0,4.953,0,9.922,0,14.875c-4.438,1.406-8.875,2.828-13.313,4.234c0-4.922,0-9.859,0-14.781c-4.016,1.281-8.031,2.563-12.063,3.844
		c0,4.922,0,9.859,0,14.781c-4.438,1.406-8.875,2.797-13.313,4.156c0-4.922,0-9.844,0-14.781c-3.516,1.094-7.031,2.156-10.563,3.219
		c-4.547,1.375-9.094,2.688-13.656,3.969c0-4.5,0-8.984,0-13.484c0-2.594-0.188-4.156,2.531-5.453l1.031-0.469
		c0.438-0.203,5.75-2.063,6.969-2.438c2.125-0.641,3.125-2.953,3.125-4.984c0-21.891,0-43.766,0-65.641
		c0-2.469-1.313-3.016-3.125-2.766c-1.188,0.203-6.531,1.578-6.969,1.625l-1.031,0.125c-2.719,0.266-2.531-1.406-2.531-4.031
		c0-4.031,0-8.063,0-12.094c4.563-1.266,9.109-2.609,13.656-3.969c3.531-1.063,7.047-2.125,10.563-3.219c0-5.031,0-10.094,0-15.125
		c4.438-1.375,8.875-2.766,13.313-4.172c0,5.063,0,10.125,0,15.172c4.031-1.266,8.047-2.531,12.063-3.813c0-5.063,0-10.125,0-15.188
		c4.438-1.406,8.875-2.844,13.313-4.234c0,5.141,0,10.281,0,15.422c7.188-1.672,16.063-2.188,22.156,0.719
		c3.438,1.609,6.094,3.781,7.719,6.891c1.641,3.094,2.438,6.906,2.438,11.422c0,2.578-0.391,5.156-1.219,7.75
		c-0.813,2.563-2.063,5.125-3.781,7.703c-1.719,2.563-7.438,10.031-12.563,13.609C299.125,244.06,306.438,250.935,306.422,263.779z
		 M354.188,229.31c0-44.719-20.281-80.313-50.313-92.031c44.297-12.641,88.594-21.172,132.906-14.172
		c2.344,23.953,20.25,44.953,43.219,58.313c0,38.563,0,77.109,0,115.672c-22.969-5.594-40.875,11.063-43.219,34.016
		c-44.313-7-88.594,1.531-132.891,14.172C333.906,316.232,354.188,274.076,354.188,229.31z"/>
	<path class="st0" d="M125.125,273.06c-7.594,0.531-13.75,6.75-13.75,14.328c0,7.594,6.156,13.719,13.75,13.172
		c7.594-0.5,13.75-7.438,13.75-15.031C138.891,277.935,132.719,272.56,125.125,273.06z"/>
	<path class="st0" d="M386.875,211.435c-7.594,0.547-13.75,7.469-13.75,15.047c0,7.594,6.156,13,13.75,12.453
		c7.594-0.516,13.75-6.734,13.75-14.313C400.625,217.013,394.469,210.888,386.875,211.435z"/>
	<path class="st0" d="M271.25,265.419c-1.344-0.594-3.063-0.859-5.156-0.734c-2.094,0.156-4.625,0.656-7.594,1.609
		c-4.641,1.469-9.281,2.953-13.906,4.422c0,8.25,0,16.484,0,24.734c4.656-1.469,9.313-2.969,13.969-4.453
		c3.125-0.984,5.781-2.203,7.875-3.547c2.125-1.375,3.813-2.844,5.078-4.406c1.266-1.578,2.203-3.234,2.766-4.953
		c0.563-1.734,0.844-3.453,0.844-5.234c0-1.828-0.313-3.344-0.938-4.641C273.563,266.951,272.594,266.044,271.25,265.419z"/>
	<path class="st0" d="M267,239.216c2.984-2.891,4.469-6.422,4.469-10.703c0-4.391-1.344-7.094-4-8.125
		c-2.688-1.016-6.875-0.609-12.563,1.203c-3.594,1.156-7.203,2.297-10.813,3.438c0,8.125,0,16.25,0,24.375
		c3.297-1.047,6.594-2.094,9.875-3.141C259.688,244.451,264.047,242.076,267,239.216z"/>
</g>
</svg>