<?xml version="1.0" ?>


<svg fill="#000000" width="800px" height="800px" viewBox="0 0 24 24" xmlns="http://www.w3.org/2000/svg">

<g id="calculator">

<path d="M18.5,3H5.5A2.5026,2.5026,0,0,0,3,5.5v13A2.5026,2.5026,0,0,0,5.5,21h13A2.5026,2.5026,0,0,0,21,18.5V5.5A2.5026,2.5026,0,0,0,18.5,3ZM20,18.5A1.5017,1.5017,0,0,1,18.5,20H5.5A1.5017,1.5017,0,0,1,4,18.5V5.5A1.5017,1.5017,0,0,1,5.5,4h13A1.5017,1.5017,0,0,1,20,5.5Z"/>

<path d="M15,9.5a.5.5,0,0,1-.5.5h-5a.5.5,0,0,1,0-1h5A.5.5,0,0,1,15,9.5Z"/>

<path d="M15,14.5a.5.5,0,0,1-.5.5h-5a.5.5,0,0,1,0-1h5A.5.5,0,0,1,15,14.5Z"/>

</g>

</svg>