<?xml version="1.0" ?>


<svg fill="#000000" width="800px" height="800px" viewBox="0 0 24 24" xmlns="http://www.w3.org/2000/svg">

<g id="gift">

<path d="M18.9541,7.0459A3.4823,3.4823,0,0,0,12.0505,7H11.95a3.4823,3.4823,0,0,0-6.9036.0459A2.5,2.5,0,0,0,3,9.5v9A2.5023,2.5023,0,0,0,5.5,21h13A2.5023,2.5023,0,0,0,21,18.5v-9A2.5,2.5,0,0,0,18.9541,7.0459ZM15.5,5a2.5038,2.5038,0,0,1,2.45,2h-4.899A2.5038,2.5038,0,0,1,15.5,5Zm-7,0a2.5038,2.5038,0,0,1,2.45,2H6.0505A2.5038,2.5038,0,0,1,8.5,5ZM4,18.5v-9A1.5017,1.5017,0,0,1,5.5,8H10V20H5.5A1.5017,1.5017,0,0,1,4,18.5ZM11,20V8h2V20Zm9-1.5A1.5017,1.5017,0,0,1,18.5,20H14V8h4.5A1.5017,1.5017,0,0,1,20,9.5Z"/>

</g>

</svg>