<?xml version="1.0" ?>


<svg fill="#000000" width="800px" height="800px" viewBox="0 0 24 24" xmlns="http://www.w3.org/2000/svg">

<g id="shop-search">

<path d="M21.6167,9.0879l-1.4287-5A1.5067,1.5067,0,0,0,18.7456,3H5.2544A1.5067,1.5067,0,0,0,3.812,4.0879l-1.4287,5A1.5,1.5,0,0,0,3.8257,11H4v7.5A2.503,2.503,0,0,0,6.5,21h7a.5.5,0,0,0,0-1h-7A1.5017,1.5017,0,0,1,5,18.5V11H19v3.5a.5.5,0,0,0,1,0V11h.1743a1.5,1.5,0,0,0,1.4424-1.9121Zm-1.043.7134A.4969.4969,0,0,1,20.1743,10H3.8257a.4993.4993,0,0,1-.48-.6377l1.4287-5A.5011.5011,0,0,1,5.2544,4H18.7456a.5011.5011,0,0,1,.48.3623l1.4287,5A.4961.4961,0,0,1,20.5737,9.8013Z"/>

<path d="M19.3535,19.6465l-1.77-1.77a2.5074,2.5074,0,1,0-.707.707l1.77,1.77a.5.5,0,0,0,.707-.707ZM14,16.5a1.5,1.5,0,1,1,2.5709,1.0471c-.0043.004-.01.0053-.0143.0095s-.0055.01-.0095.0143A1.4977,1.4977,0,0,1,14,16.5Z"/>

</g>

</svg>