<?xml version="1.0" encoding="utf-8"?>
<svg width="800px" height="800px" viewBox="0 0 24 24" fill="none" xmlns="http://www.w3.org/2000/svg">
<path d="M15.5 12C15.5 13.933 13.933 15.5 12 15.5C10.067 15.5 8.5 13.933 8.5 12C8.5 10.067 10.067 8.5 12 8.5C13.933 8.5 15.5 10.067 15.5 12ZM15.5 12C15.5 12.9665 16.2835 13.75 17.25 13.75C18.2165 13.75 19 12.9665 19 12C19 8.13401 15.866 5 12 5C8.13401 5 5 8.13401 5 12C5 15.866 8.13401 19 12 19C14.0907 19 15.9673 18.0834 17.25 16.6302" stroke="#464455" stroke-linecap="round" stroke-linejoin="round"/>
</svg>