<?xml version="1.0" encoding="utf-8"?>
<svg width="800px" height="800px" viewBox="0 0 24 24" fill="none" xmlns="http://www.w3.org/2000/svg">
<path d="M16.5937 9.59375V10.7891C16.5937 11.5877 16.7589 12.3777 17.0791 13.1094L17.5887 14.2743C17.8416 14.8524 17.4181 15.5 16.787 15.5H10.6875M11.9999 5C9.46287 5 7.40618 7.05669 7.40618 9.59375V10.7891C7.40618 11.5877 7.24093 12.3777 6.92081 13.1094L6.41118 14.2743C6.15826 14.8524 6.58181 15.5 7.21282 15.5H8.5M11.9999 5C13.8925 5 15.5177 6.14445 16.2213 7.77902M11.9999 5V4M19 5L5 19M13.75 17.25C13.75 18.2165 12.9665 19 12 19C11.0335 19 10.25 18.2165 10.25 17.25" stroke="#464455" stroke-linecap="round" stroke-linejoin="round"/>
</svg>