<?xml version="1.0" encoding="utf-8"?>
<svg width="800px" height="800px" viewBox="0 0 24 24" fill="none" xmlns="http://www.w3.org/2000/svg">
<path d="M16 11.5V12.5M10 11.5V12.5M11.5 11.5V12.5M13 11.5V12.5M19 12C19 15.866 15.866 19 12 19C8.13401 19 5 15.866 5 12C5 8.13401 8.13401 5 12 5C15.866 5 19 8.13401 19 12ZM8.5 10.5V13.5C8.5 13.7761 8.72386 14 9 14H14C14.2761 14 14.5 13.7761 14.5 13.5V10.5C14.5 10.2239 14.2761 10 14 10H9C8.72386 10 8.5 10.2239 8.5 10.5Z" stroke="#464455" stroke-linecap="round" stroke-linejoin="round"/>
</svg>