<?xml version="1.0" encoding="utf-8"?>
<svg width="800px" height="800px" viewBox="0 0 24 24" fill="none" xmlns="http://www.w3.org/2000/svg">
<path d="M13 4.99999H6.99991C5.89534 4.99999 4.99991 5.89542 4.99991 6.99999V17C4.99991 18.1046 5.89534 19 6.99991 19H16.9999C18.1045 19 18.9999 18.1046 18.9999 17V11M12 9V12M12 12V15M12 12H15M12 12H9M19 7C19 8.10457 18.1046 9 17 9C15.8954 9 15 8.10457 15 7C15 5.89543 15.8954 5 17 5C18.1046 5 19 5.89543 19 7Z" stroke="#464455" stroke-linecap="round" stroke-linejoin="round"/>
</svg>