<?xml version="1.0" encoding="utf-8"?>
<svg width="800px" height="800px" viewBox="0 0 24 24" fill="none" xmlns="http://www.w3.org/2000/svg">
<path d="M14.5776 14.5419C15.5805 13.53 16.2 12.1373 16.2 10.6C16.2 7.50721 13.6928 5 10.6 5C7.50721 5 5 7.50721 5 10.6C5 13.6928 7.50721 16.2 10.6 16.2C12.1555 16.2 13.5628 15.5658 14.5776 14.5419ZM14.5776 14.5419L19 19M10.25 14.0167V14.25M10.25 12.6167C10.25 11.912 10.7096 11.2784 11.4106 11.0167L11.5 10.9833C12.255 10.7015 12.75 10.019 12.75 9.26013V9.11667C12.75 8.08574 11.8546 7.25 10.75 7.25C9.64543 7.25 8.75 8.08574 8.75 9.11667" stroke="#464455" stroke-linecap="round" stroke-linejoin="round"/>
</svg>