<?xml version="1.0" encoding="utf-8"?>
<svg width="800px" height="800px" viewBox="0 0 24 24" fill="none" xmlns="http://www.w3.org/2000/svg">
<path d="M15.9375 6.11972C17.7862 7.39969 19 9.55585 19 12C19 15.9274 15.866 19.1111 12 19.1111C11.6411 19.1111 11.2885 19.0837 10.9441 19.0307M13.0149 4.96309C12.6836 4.9142 12.3447 4.88889 12 4.88889C8.13401 4.88889 5 8.07264 5 12C5 14.4071 6.17734 16.5349 7.97895 17.8215M13.0149 4.96309L12.4375 4M13.0149 4.96309L12.4375 5.77778M10.9441 19.0307L11.7866 18.2222M10.9441 19.0307L11.5625 20M12 9V12.5M12 14.5V15" stroke="#464455" stroke-linecap="round" stroke-linejoin="round"/>
</svg>