<?xml version="1.0" encoding="utf-8"?>
<svg width="800px" height="800px" viewBox="0 0 24 24" fill="none" xmlns="http://www.w3.org/2000/svg">
<path d="M9 15H15M6.86852 21H17.1315C17.9302 21 18.4066 20.1099 17.9635 19.4453L17.2969 18.4453C17.1114 18.1671 16.7992 18 16.4648 18H7.53518C7.20083 18 6.8886 18.1671 6.70313 18.4453L6.03647 19.4453C5.59343 20.1099 6.06982 21 6.86852 21ZM8 7H16C16.5523 7 17 7.44772 17 8V11C17 11.5523 16.5523 12 16 12H8C7.44772 12 7 11.5523 7 11V8C7 7.44772 7.44772 7 8 7ZM7 18H17C18.1046 18 19 17.1046 19 16V6C19 4.89543 18.1046 4 17 4H7C5.89543 4 5 4.89543 5 6V16C5 17.1046 5.89543 18 7 18Z" stroke="#464455" stroke-linecap="round"/>
</svg>