<?xml version="1.0" encoding="utf-8"?>
<svg width="800px" height="800px" viewBox="0 0 24 24" fill="none" xmlns="http://www.w3.org/2000/svg">
<path d="M12 5.875C8.49807 5.875 5.58879 8.37883 5.01048 11.6712C4.91433 12.2186 5.49848 12.5827 6.00206 12.3342C6.42851 12.1238 6.93046 12.1238 7.3569 12.3342L7.65985 12.4837C8.15914 12.73 8.74683 12.73 9.24612 12.4837L9.43336 12.3913C9.93265 12.145 10.5203 12.145 11.0196 12.3913L12 12.875M12 5.875C15.5019 5.875 18.4112 8.37883 18.9895 11.6712C19.0857 12.2186 18.5015 12.5827 17.9979 12.3342C17.5715 12.1238 17.0695 12.1238 16.6431 12.3342L16.3401 12.4837C15.8409 12.73 15.2532 12.73 14.7539 12.4837L14.5666 12.3913C14.0674 12.145 13.4797 12.145 12.9804 12.3913L12 12.875M12 5.875V5M12 12.875V18.125C12 18.6082 11.603 19 11.1132 19C10.6235 19 10.2265 18.6082 10.2265 18.125V17.25" stroke="#464455" stroke-linecap="round" stroke-linejoin="round"/>
</svg>