<?xml version="1.0" encoding="utf-8"?>

<svg height="800px" width="800px" version="1.1" id="bowl" xmlns="http://www.w3.org/2000/svg" xmlns:xlink="http://www.w3.org/1999/xlink" 
	 viewBox="0 0 32 32" xml:space="preserve">
<style type="text/css">
	.st0{fill:#D8C962;}
	.st1{fill:#DDDC92;}
</style>
<path class="st0" d="M21,22H11c-1.3,0-2.4,0.8-2.8,2h15.6C23.4,22.8,22.3,22,21,22z"/>
<path class="st1" d="M6.3,15c0.9,3,2.7,5,4.7,5h10c2,0,3.8-2,4.7-5l1.9-7H4.3L6.3,15z"/>
<path d="M29,6H3C2.7,6,2.4,6.1,2.2,6.4C2,6.7,2,7,2,7.3l2.4,8.3C5.1,18,6.4,19.9,8,21c-1.2,0.9-2,2.3-2,4c0,0.6,0.4,1,1,1h18
	c0.6,0,1-0.4,1-1c0-1.6-0.8-3.1-2-4c1.6-1.1,2.9-3,3.6-5.5L30,7.3c0-0.3,0-0.7-0.2-0.9C29.6,6.1,29.3,6,29,6z M8.2,24
	c0.4-1.2,1.5-2,2.8-2h10c1.3,0,2.4,0.8,2.8,2H8.2z M25.7,15c-0.9,3-2.7,5-4.7,5H11c-2,0-3.8-2-4.7-5l-2-7h23.3L25.7,15z"/>
</svg>