<?xml version="1.0" encoding="utf-8"?>

<svg height="800px" width="800px" version="1.1" id="chopsticks" xmlns="http://www.w3.org/2000/svg" xmlns:xlink="http://www.w3.org/1999/xlink" 
	 viewBox="0 0 32 32" xml:space="preserve">
<style type="text/css">
	.st0{fill:#F5CDAA;}
	.st1{fill:#C9753D;}
</style>
<polygon class="st0" points="9,28 20.7,16.5 19.8,15.7 "/>
<polygon class="st0" points="4,24 16,12.3 15,11.4 "/>
<path class="st1" d="M27,8c-0.3,0-0.5,0.1-0.6,0.3l-5.2,5.9l1,0.9l5.5-5.4C27.9,9.5,28,9.3,28,9s-0.1-0.5-0.3-0.7S27.3,8,27,8z"/>
<path class="st1" d="M23,5c0-0.3-0.1-0.5-0.3-0.7S22.3,4,22,4s-0.5,0.1-0.7,0.3l-5,5.5l1.1,1l5.3-5.1C22.9,5.5,23,5.3,23,5z"/>
<path d="M24.8,6.9L7.6,26.6c-0.7,0.8-0.7,2,0.1,2.8C8,29.8,8.5,30,9.1,30c0.5,0,1-0.2,1.4-0.6l18.7-18.3C29.7,10.6,30,9.8,30,9
	s-0.3-1.6-0.9-2.1C27.9,5.7,26,5.7,24.8,6.9z M9,28l10.8-12.3l0.9,0.8L9,28z M27.7,9.7l-5.5,5.4l-1-0.9l5.2-5.9
	C26.5,8.1,26.7,8,27,8s0.5,0.1,0.7,0.3S28,8.7,28,9S27.9,9.5,27.7,9.7z"/>
<path d="M24.1,7.1C24.7,6.6,25,5.8,25,5s-0.3-1.6-0.9-2.1c-1.1-1.1-3.1-1.2-4.3,0l-5.6,6.4L2.5,22.6c-0.7,0.8-0.7,2,0.1,2.8l0.7-0.7
	l-0.7,0.7C3,25.8,3.5,26,4,26s1-0.2,1.4-0.6l12.8-12.5L24.1,7.1z M4,24l11-12.6l1,0.9L4,24z M16.3,9.8l5-5.5C21.5,4.1,21.7,4,22,4
	s0.5,0.1,0.7,0.3S23,4.7,23,5s-0.1,0.5-0.3,0.7l-5.3,5.1L16.3,9.8z"/>
</svg>