<?xml version="1.0" encoding="utf-8"?>

<svg height="800px" width="800px" version="1.1" id="sosis" xmlns="http://www.w3.org/2000/svg" xmlns:xlink="http://www.w3.org/1999/xlink" 
	 viewBox="0 0 32 32" xml:space="preserve">
<style type="text/css">
	.st0{fill:#F8B195;}
</style>
<path class="st0" d="M16.8,18.4c0.6-0.5,1.1-1.1,1.6-1.6c0.8-0.9,1.6-1.9,2.3-3c0.4-0.5,0.7-1,1-1.6c0.3-0.6,0.5-1.1,0.8-1.7
	c0.2-0.3,0.3-0.6,0.5-0.8c0.1-0.1,0.1-0.1,0.2-0.2c0.1-0.2,0.2-0.3,0.3-0.4V9c0.3-0.5,0.3-1.1,0.1-1.6c-0.1-0.2-0.2-0.4-0.5-0.5
	c0,0-0.1-0.1-0.2-0.1c-0.1,0-0.2,0-0.2,0c-0.1,0-0.2,0-0.3,0c-0.6,0-1.2,0.5-1.5,1.2c-2.5,5.8-7.1,10.4-13,13
	c-0.8,0.3-1.3,1.1-1.1,1.8v0.1c0,0.1,0,0.1,0,0.1c0.1,0.1,0.1,0.1,0.1,0.2c0.1,0.2,0.3,0.3,0.5,0.4c0.4,0.2,1,0.1,1.6-0.1h0.1
	c0.1-0.1,0.2-0.2,0.3-0.3c0-0.1,0.1-0.1,0.2-0.2c0.3-0.2,0.5-0.4,0.8-0.5C12.8,21.5,14.9,20.1,16.8,18.4z"/>
<path class="st0" d="M26.6,10.6c0,0-0.1-0.1-0.2-0.1h-0.1c-0.3-0.1-0.7,0-1.1,0.3c-1.4,2.8-3.1,5.4-5.2,7.7
	c-0.5,0.6-1.1,1.2-1.7,1.7c-2.3,2.1-4.9,3.8-7.7,5.1c-0.3,0.3-0.4,0.8-0.3,1.1v0.1c0.1,0.1,0.1,0.1,0.1,0.2c0.1,0.2,0.3,0.3,0.5,0.4
	c0.4,0.2,1,0.1,1.6-0.1C19,24.2,24.2,19,27,12.5c0.3-0.6,0.3-1.2,0.1-1.4C27,10.9,26.9,10.7,26.6,10.6z"/>
<path d="M28.4,7.1c0,0-0.1,0-0.1,0.1c0-0.2,0.1-0.3,0.1-0.5c0.1-0.5-0.2-1.1-0.8-1.2c-0.5-0.1-1,0.2-1.2,0.8
	c-0.3-0.4-0.8-0.5-1.2-0.3c0,0,0,0-0.1,0c0,0,0,0-0.1-0.1c0.4-0.2,0.7-0.5,1.1-0.8c0.4-0.3,0.5-1,0.2-1.4c-0.3-0.4-1-0.5-1.4-0.2
	c0,0-0.1,0-0.1,0.1c0-0.2,0.1-0.3,0.1-0.5C25,2.6,24.7,2,24.1,1.9c-0.5-0.1-1.1,0.2-1.2,0.8c-0.3-0.4-0.8-0.5-1.2-0.3
	c-0.5,0.2-0.7,0.8-0.5,1.3c0.2,0.3,0.3,0.7,0.4,1.1c-1.1,0.2-2.1,1.1-2.7,2.3c-2.4,5.4-6.6,9.7-12,12c-1.2,0.5-2,1.6-2.3,2.7
	c-0.4-0.1-0.7-0.3-1.1-0.5c-0.5-0.2-1.1,0-1.3,0.5C2,22.2,2.1,22.7,2.5,23c-0.5,0.1-0.9,0.6-0.8,1.2C2.1,24.7,2.5,25,3,25
	c0.1,0,0.1,0,0.2,0c0.2,0,0.3-0.1,0.5-0.1c0,0,0,0.1-0.1,0.1c-0.3,0.4-0.2,1.1,0.2,1.4c0.2,0.1,0.4,0.2,0.6,0.2
	c0.3,0,0.6-0.1,0.8-0.4c0.3-0.4,0.5-0.7,0.8-1.1c0,0,0,0,0.1,0.1c0,0.1-0.1,0.1-0.1,0.1c-0.2,0.4-0.1,0.9,0.3,1.2
	c-0.5,0.1-0.9,0.6-0.8,1.2c0.1,0.5,0.5,0.8,1,0.8c0.1,0,0.1,0,0.2,0c0.2,0,0.3-0.1,0.5-0.1c0,0,0,0.1-0.1,0.1
	c-0.3,0.4-0.2,1.1,0.2,1.4c0.1,0,0.3,0.1,0.5,0.1c0.3,0,0.6-0.1,0.8-0.4c0.3-0.4,0.5-0.7,0.8-1.1c0.2,0.2,0.4,0.3,0.6,0.4
	c0.5,0.2,1,0.3,1.5,0.3c0.6,0,1.2-0.1,1.7-0.4c7-3.1,12.5-8.6,15.6-15.6c0.5-1.1,0.5-2.3,0-3.3c-0.1-0.2-0.2-0.4-0.4-0.6
	c0.4-0.2,0.7-0.5,1.1-0.8c0.5-0.2,0.6-0.8,0.3-1.2C29.5,6.9,28.8,6.8,28.4,7.1z M9.6,23c-0.1,0.1-0.2,0.1-0.2,0.2
	c-0.1,0.1-0.2,0.2-0.3,0.3H9c-0.6,0.2-1.2,0.3-1.6,0.1c-0.2-0.1-0.4-0.2-0.5-0.4c0-0.1,0-0.1-0.1-0.2c0,0,0,0,0-0.1v-0.1
	c-0.2-0.7,0.3-1.5,1.1-1.8c5.9-2.6,10.5-7.2,13-13c0.3-0.7,0.9-1.2,1.5-1.2c0.1,0,0.2,0,0.3,0c0,0,0.1,0,0.2,0
	c0.1,0,0.2,0.1,0.2,0.1c0.3,0.1,0.4,0.3,0.5,0.5c0.2,0.5,0.2,1.1-0.1,1.6v0.1c-0.1,0.1-0.2,0.2-0.3,0.4c-0.1,0.1-0.1,0.1-0.2,0.2
	c-0.2,0.2-0.3,0.5-0.5,0.8c-0.3,0.6-0.5,1.1-0.8,1.7c-0.3,0.6-0.6,1.1-1,1.6c-0.7,1.1-1.5,2.1-2.3,3c-0.5,0.5-1,1.1-1.6,1.6
	c-1.9,1.7-4,3.1-6.4,4.1C10.1,22.6,9.9,22.8,9.6,23z M27,12.5C24.2,19,19,24.2,12.5,27c-0.6,0.2-1.2,0.3-1.6,0.1
	c-0.2-0.1-0.4-0.2-0.5-0.4c0-0.1,0-0.1-0.1-0.2v-0.1c-0.1-0.3,0-0.8,0.3-1.1c2.8-1.3,5.4-3,7.7-5.1c0.6-0.5,1.2-1.1,1.7-1.7
	c2.1-2.3,3.8-4.9,5.2-7.7c0.4-0.3,0.8-0.4,1.1-0.3h0.1c0.1,0,0.2,0.1,0.2,0.1c0.3,0.1,0.4,0.3,0.5,0.5C27.3,11.3,27.3,11.9,27,12.5z
	"/>
</svg>