<?xml version="1.0" encoding="utf-8"?>

<svg height="800px" width="800px" version="1.1" id="teapot" xmlns="http://www.w3.org/2000/svg" xmlns:xlink="http://www.w3.org/1999/xlink" 
	 viewBox="0 0 32 32" xml:space="preserve">
<style type="text/css">
	.st0{fill:#FAE3D9;}
	.st1{fill:#FFB99A;}
	.st2{fill:#FFFFFF;}
</style>
<path class="st0" d="M11.8,11l-0.9,7.7L10,26.8c0,0.7,0.6,1.2,1.2,1.2h9.6c0.6,0,1.2-0.5,1.2-1.2L20.1,11H11.8z"/>
<path class="st1" d="M16,7c-1.8,0-3.3,0.8-3.8,2h7.6C19.2,7.8,17.8,7,16,7z"/>
<polygon class="st0" points="9.5,14.1 9.8,11 8.4,11 "/>
<path class="st2" d="M15.1,4h1.8c0.6,0,1-0.4,1-1s-0.4-1-1-1h-1.8c-0.6,0-1,0.4-1,1S14.6,4,15.1,4z"/>
<path d="M24.1,12h-1.8L22,9.9C21.9,7.2,19.2,5,16,5c-3,0-5.4,1.7-6,4H7C6.7,9,6.4,9.2,6.2,9.4C6,9.7,6,10,6.1,10.3l2.8,8.5L8,26.7
	v0.1c0,1.8,1.4,3.2,3.2,3.2h9.6c1.8,0,3.2-1.4,3.2-3.2v-0.1L23.7,24h0.4c1.1,0,2.2-0.7,2.9-2c0.6-1.1,1-2.5,1-4
	C28,14.6,26.3,12,24.1,12z M16,7c1.8,0,3.2,0.8,3.8,2h-7.6C12.7,7.8,14.2,7,16,7z M9.5,14.1L8.4,11h1.4L9.5,14.1z M20.8,28h-9.6
	c-0.6,0-1.2-0.5-1.2-1.2l0.9-8.1l0.9-7.7h8.3L22,26.8C22,27.5,21.4,28,20.8,28z M25.3,21c-0.4,0.6-0.8,1-1.2,1h-0.6l-1-8h1.6
	c0.9,0,1.9,1.7,1.9,4C26,19.1,25.7,20.2,25.3,21z"/>
</svg>