<?xml version="1.0" encoding="utf-8"?>

<svg width="800px" height="800px" viewBox="0 0 1024 1024" class="icon"  version="1.1" xmlns="http://www.w3.org/2000/svg"><path d="M203.363079 658.659286c-6.146384 0-11.144992-5.000656-11.144991-11.146015 0-6.14536 4.998608-11.146016 11.144991-11.146016s11.144992 5.000656 11.144992 11.146016c0 6.14536-4.998608 11.146016-11.144992 11.146015m0-33.435999c-12.309149 0-22.28896 9.97981-22.288959 22.28896s9.97981 22.28896 22.288959 22.288959 22.28896-9.97981 22.28896-22.288959-9.97981-22.28896-22.28896-22.28896M233.53186 409.360616l11.842258-11.84021c2.128658-2.123538 2.156302-5.683587-0.021501-7.857296a5.535124 5.535124 0 0 0-7.857296-0.022526l-11.842258 11.84021-11.841234-11.84021c-2.123538-2.127634-5.683587-2.157326-7.857296 0.022526a5.535124 5.535124 0 0 0-0.021501 7.857296l11.841233 11.84021-11.841233 11.84021c-2.128658 2.123538-2.156302 5.683587 0.021501 7.857295a5.532052 5.532052 0 0 0 7.857296 0.022526l11.841234-11.84021 11.842258 11.84021c2.123538 2.129681 5.678468 2.157326 7.857296-0.022526a5.535124 5.535124 0 0 0 0.021501-7.857295l-11.842258-11.84021zM204.307102 544.739757a5.562769 5.562769 0 0 0 5.571984-5.574032 5.55765 5.55765 0 0 0-5.571984-5.571983 5.558673 5.558673 0 0 0-5.571984 5.571983 5.556626 5.556626 0 0 0 5.571984 5.574032M145.565777 733.199162a5.562769 5.562769 0 0 0 5.571984-5.574032 5.55765 5.55765 0 0 0-5.571984-5.571984 5.558673 5.558673 0 0 0-5.571984 5.571984 5.556626 5.556626 0 0 0 5.571984 5.574032M110.268354 325.819764a5.562769 5.562769 0 0 0 5.571984-5.574032 5.55765 5.55765 0 0 0-5.571984-5.571983 5.558673 5.558673 0 0 0-5.571984 5.571983 5.556626 5.556626 0 0 0 5.571984 5.574032M87.187931 684.047547a5.559697 5.559697 0 0 0 5.571984-5.571984 5.55765 5.55765 0 0 0-5.571984-5.574032 5.560721 5.560721 0 0 0-5.571984 5.574032 5.556626 5.556626 0 0 0 5.571984 5.571984" fill="#404041" /><path d="M98.846913 548.175916a2.926264 2.926264 0 0 1-2.92524-2.92524V533.078727a2.926264 2.926264 0 0 1 5.850481 0v12.171949a2.926264 2.926264 0 0 1-2.925241 2.92524z" fill="#404041" /><path d="M104.932888 542.093014h-12.171949a2.926264 2.926264 0 0 1 0-5.850481h12.171949a2.926264 2.926264 0 0 1 0 5.850481z" fill="#404041" /><path d="M76.006079 440.329051a2.926264 2.926264 0 0 1-2.92524-2.92524v-12.171949a2.926264 2.926264 0 0 1 5.850481 0v12.171949a2.926264 2.926264 0 0 1-2.925241 2.92524z" fill="#404041" /><path d="M82.092054 434.245125H69.920105a2.926264 2.926264 0 0 1 0-5.850481h12.171949a2.926264 2.926264 0 0 1 0 5.850481z" fill="#404041" /><path d="M156.095413 458.584926a2.926264 2.926264 0 0 1-2.92524-2.92524v-12.171949a2.926264 2.926264 0 0 1 5.850481 0v12.171949a2.927288 2.927288 0 0 1-2.925241 2.92524z" fill="#404041" /><path d="M162.181388 452.501h-12.171949a2.926264 2.926264 0 0 1 0-5.850481h12.171949a2.926264 2.926264 0 0 1 0 5.850481z" fill="#404041" /><path d="M333.084231 720.100597a2.926264 2.926264 0 0 1-2.925241-2.925241v-12.171948a2.926264 2.926264 0 0 1 5.850481 0v12.171948a2.92524 2.92524 0 0 1-2.92524 2.925241z" fill="#404041" /><path d="M339.170205 714.012575h-12.171949a2.926264 2.926264 0 0 1 0-5.850481h12.171949a2.926264 2.926264 0 0 1 0 5.850481z" fill="#404041" /><path d="M233.471451 803.828819a2.926264 2.926264 0 0 1-2.92524-2.92524v-12.171949a2.926264 2.926264 0 0 1 5.850481 0v12.171949a2.927288 2.927288 0 0 1-2.925241 2.92524z" fill="#404041" /><path d="M239.557426 797.739773h-12.171949a2.926264 2.926264 0 0 1 0-5.850481h12.171949a2.926264 2.926264 0 0 1 0 5.850481z" fill="#404041" /><path d="M259.783256 716.590718a2.926264 2.926264 0 0 1-2.92524-2.925241v-12.171948a2.926264 2.926264 0 0 1 5.850481 0v12.171948a2.926264 2.926264 0 0 1-2.925241 2.925241z" fill="#404041" /><path d="M265.869231 710.502696h-12.171949a2.926264 2.926264 0 0 1 0-5.850481h12.171949a2.926264 2.926264 0 0 1 0 5.850481z" fill="#404041" /><path d="M131.942982 634.234502a2.926264 2.926264 0 0 1-2.92524-2.925241v-12.171948a2.926264 2.926264 0 0 1 5.850481 0v12.171948a2.92524 2.92524 0 0 1-2.925241 2.925241z" fill="#404041" /><path d="M138.028957 628.150575h-12.171949a2.926264 2.926264 0 0 1 0-5.850481h12.171949a2.926264 2.926264 0 0 1 0 5.850481z" fill="#404041" /><path d="M191.605804 280.498504a2.926264 2.926264 0 0 1-2.92524-2.92524v-12.171949a2.926264 2.926264 0 0 1 5.850481 0v12.171949a2.926264 2.926264 0 0 1-2.925241 2.92524z" fill="#404041" /><path d="M197.691779 274.414578h-12.171949a2.926264 2.926264 0 0 1 0-5.850481h12.171949a2.926264 2.926264 0 0 1 0 5.850481z" fill="#404041" /><path d="M289.742141 277.062345a5.562769 5.562769 0 0 1-5.571984-5.574032 5.55765 5.55765 0 0 1 5.571984-5.571984 5.558673 5.558673 0 0 1 5.571984 5.571984 5.55765 5.55765 0 0 1-5.571984 5.574032M131.942982 228.328475a5.562769 5.562769 0 0 1-5.571984-5.574031 5.55765 5.55765 0 0 1 5.571984-5.571984 5.558673 5.558673 0 0 1 5.571984 5.571984 5.556626 5.556626 0 0 1-5.571984 5.574031M227.385477 352.635321a5.562769 5.562769 0 0 1-5.571984-5.574032 5.55765 5.55765 0 0 1 5.571984-5.571984 5.558673 5.558673 0 0 1 5.571984 5.571984 5.55765 5.55765 0 0 1-5.571984 5.574032M816.580287 658.659286c-6.146384 0-11.144992-5.000656-11.144992-11.146015 0-6.14536 4.998608-11.146016 11.144992-11.146016s11.144992 5.000656 11.144992 11.146016c0 6.14536-4.998608 11.146016-11.144992 11.146015m0-33.435999c-12.309149 0-22.28896 9.97981-22.28896 22.28896s9.97981 22.28896 22.28896 22.288959c12.309149 0 22.289984-9.97981 22.289984-22.288959s-9.980834-22.28896-22.289984-22.28896M786.41253 409.360616l-11.841234-11.84021c-2.128658-2.123538-2.156302-5.683587 0.021502-7.857296a5.535124 5.535124 0 0 1 7.857296-0.022526l11.841233 11.84021 11.841234-11.84021c2.123538-2.127634 5.683587-2.157326 7.857296 0.022526a5.535124 5.535124 0 0 1 0.021502 7.857296l-11.841234 11.84021 11.841234 11.84021c2.128658 2.123538 2.156302 5.683587-0.021502 7.857295a5.532052 5.532052 0 0 1-7.857296 0.022526l-11.841234-11.84021-11.841233 11.84021c-2.123538 2.129681-5.678468 2.157326-7.857296-0.022526a5.535124 5.535124 0 0 1-0.021502-7.857295l11.841234-11.84021zM815.638313 544.739757a5.562769 5.562769 0 0 1-5.571984-5.574032 5.55765 5.55765 0 0 1 5.571984-5.571983 5.558673 5.558673 0 0 1 5.571983 5.571983 5.55765 5.55765 0 0 1-5.571983 5.574032M874.379637 733.199162a5.562769 5.562769 0 0 1-5.571983-5.574032 5.55765 5.55765 0 0 1 5.571983-5.571984 5.558673 5.558673 0 0 1 5.571984 5.571984 5.55765 5.55765 0 0 1-5.571984 5.574032M909.676036 325.819764a5.562769 5.562769 0 0 1-5.571984-5.574032 5.55765 5.55765 0 0 1 5.571984-5.571983 5.558673 5.558673 0 0 1 5.571984 5.571983 5.55765 5.55765 0 0 1-5.571984 5.574032M932.755435 684.047547a5.559697 5.559697 0 0 1-5.571984-5.571984 5.55765 5.55765 0 0 1 5.571984-5.574032 5.560721 5.560721 0 0 1 5.571984 5.574032 5.556626 5.556626 0 0 1-5.571984 5.571984" fill="#404041" /><path d="M921.098501 548.175916a2.926264 2.926264 0 0 1-2.92524-2.92524V533.078727a2.926264 2.926264 0 0 1 5.85048 0v12.171949a2.926264 2.926264 0 0 1-2.92524 2.92524z" fill="#404041" /><path d="M927.184475 542.093014h-12.171948a2.926264 2.926264 0 0 1 0-5.850481h12.171948a2.926264 2.926264 0 0 1 0 5.850481z" fill="#404041" /><path d="M943.938311 440.329051a2.926264 2.926264 0 0 1-2.92524-2.92524v-12.171949a2.926264 2.926264 0 0 1 5.85048 0v12.171949a2.926264 2.926264 0 0 1-2.92524 2.92524z" fill="#404041" /><path d="M950.024285 434.245125h-12.171948a2.926264 2.926264 0 0 1 0-5.850481h12.171948a2.926264 2.926264 0 0 1 0 5.850481z" fill="#404041" /><path d="M863.846929 458.584926a2.926264 2.926264 0 0 1-2.92524-2.92524v-12.171949a2.926264 2.926264 0 0 1 5.850481 0v12.171949a2.927288 2.927288 0 0 1-2.925241 2.92524z" fill="#404041" /><path d="M869.932904 452.501h-12.171949a2.926264 2.926264 0 0 1 0-5.850481h12.171949a2.926264 2.926264 0 0 1 0 5.850481z" fill="#404041" /><path d="M786.472939 803.828819a2.926264 2.926264 0 0 1-2.92524-2.92524v-12.171949a2.926264 2.926264 0 0 1 5.85048 0v12.171949a2.927288 2.927288 0 0 1-2.92524 2.92524z" fill="#404041" /><path d="M792.558913 797.739773h-12.171948a2.926264 2.926264 0 0 1 0-5.850481h12.171948a2.926264 2.926264 0 0 1 0 5.850481z" fill="#404041" /><path d="M760.159086 716.590718a2.926264 2.926264 0 0 1-2.92524-2.925241v-12.171948a2.926264 2.926264 0 0 1 5.850481 0v12.171948a2.926264 2.926264 0 0 1-2.925241 2.925241z" fill="#404041" /><path d="M766.245061 710.502696h-12.171949a2.926264 2.926264 0 0 1 0-5.850481h12.171949a2.926264 2.926264 0 0 1 0 5.850481z" fill="#404041" /><path d="M684.677236 742.845185a2.926264 2.926264 0 0 1-2.92524-2.92524v-12.171949a2.926264 2.926264 0 0 1 5.850481 0v12.171949a2.926264 2.926264 0 0 1-2.925241 2.92524z" fill="#404041" /><path d="M690.763211 736.757163h-12.171949a2.926264 2.926264 0 0 1 0-5.850481h12.171949a2.926264 2.926264 0 0 1 0 5.850481z" fill="#404041" /><path d="M360.580671 789.000912a2.926264 2.926264 0 0 1-2.92524-2.92524v-12.171949a2.926264 2.926264 0 0 1 5.85048 0v12.171949a2.926264 2.926264 0 0 1-2.92524 2.92524z" fill="#404041" /><path d="M366.666645 782.91289h-12.171948a2.926264 2.926264 0 0 1 0-5.850481h12.171948a2.926264 2.926264 0 0 1 0 5.850481z" fill="#404041" /><path d="M351.367751 243.941703a2.926264 2.926264 0 0 1-2.925241-2.925241v-12.171949a2.926264 2.926264 0 0 1 5.850481 0v12.171949a2.927288 2.927288 0 0 1-2.92524 2.925241z" fill="#404041" /><path d="M357.453725 237.852657h-12.171949a2.926264 2.926264 0 0 1 0-5.850481h12.171949a2.926264 2.926264 0 0 1 0 5.850481z" fill="#404041" /><path d="M646.822148 243.941703a2.926264 2.926264 0 0 1-2.92524-2.925241v-12.171949a2.926264 2.926264 0 0 1 5.85048 0v12.171949a2.927288 2.927288 0 0 1-2.92524 2.925241z" fill="#404041" /><path d="M652.908122 237.852657h-12.171948a2.926264 2.926264 0 0 1 0-5.850481h12.171948a2.926264 2.926264 0 0 1 0 5.850481z" fill="#404041" /><path d="M888.001408 634.234502a2.926264 2.926264 0 0 1-2.925241-2.925241v-12.171948a2.926264 2.926264 0 0 1 5.850481 0v12.171948a2.926264 2.926264 0 0 1-2.92524 2.925241z" fill="#404041" /><path d="M894.087382 628.150575h-12.171949a2.926264 2.926264 0 0 1 0-5.850481h12.171949a2.926264 2.926264 0 0 1 0 5.850481z" fill="#404041" /><path d="M828.338586 280.498504a2.926264 2.926264 0 0 1-2.92524-2.92524v-12.171949a2.926264 2.926264 0 0 1 5.85048 0v12.171949a2.926264 2.926264 0 0 1-2.92524 2.92524z" fill="#404041" /><path d="M834.42456 274.414578h-12.171948a2.926264 2.926264 0 0 1 0-5.850481h12.171948a2.926264 2.926264 0 0 1 0 5.850481z" fill="#404041" /><path d="M730.202249 277.062345a5.562769 5.562769 0 0 0 5.571984-5.574032 5.55765 5.55765 0 0 0-5.571984-5.571984 5.558673 5.558673 0 0 0-5.571984 5.571984 5.556626 5.556626 0 0 0 5.571984 5.574032M888.001408 228.328475a5.562769 5.562769 0 0 0 5.571984-5.574031 5.55765 5.55765 0 0 0-5.571984-5.571984 5.558673 5.558673 0 0 0-5.571984 5.571984 5.556626 5.556626 0 0 0 5.571984 5.574031M792.558913 352.635321a5.562769 5.562769 0 0 0 5.571984-5.574032 5.55765 5.55765 0 0 0-5.571984-5.571984 5.558673 5.558673 0 0 0-5.571984 5.571984 5.556626 5.556626 0 0 0 5.571984 5.574032" fill="#404041" /><path d="M626.346489 736.643512c0 6.439215-5.268914 11.708129-11.708128 11.708129h-196.565505c-6.439215 0-11.708129-5.268914-11.708129-11.708129V601.508055c0-6.439215 5.268914-11.708129 11.708129-11.708129h196.565505c6.439215 0 11.708129 5.268914 11.708128 11.708129v135.135457z" fill="#F2C928" /><path d="M614.638361 584.535108h-196.565505c-9.359336 0-16.973971 7.613611-16.973971 16.973971v135.134433c0 9.359336 7.614635 16.973971 16.973971 16.973971h2.974387v-10.530661h-2.974387a6.450478 6.450478 0 0 1-6.443311-6.442286V601.508055a6.450478 6.450478 0 0 1 6.443311-6.442286h196.565505a6.44843 6.44843 0 0 1 6.442286 6.442286v135.134433a6.44843 6.44843 0 0 1-6.442286 6.442287h-139.82178v10.53066h139.82178c9.36036 0 16.973971-7.613611 16.97397-16.973971V601.508055c0-9.359336-7.614635-16.972947-16.97397-16.972947z" fill="#404041" /><path d="M692.801766 618.01923c17.804342-0.573376 26.419313-18.376694 33.884461-35.032237l1.723199-2.873022c0.5744-0.573376 1.148799-0.573376 1.148799-0.573376s1.149823 0 1.149824 0.573376c0.573376 1.149823 1.148799 1.723199 1.148799 2.298623 6.318396 12.633721 10.911546 21.249716 32.161262 21.823092 2.297599 0 5.742973-0.573376 8.615995-4.59315 14.35692-19.528565 9.188347-100.506631-19.527541-186.652247-2.871998-8.614971-14.357944-16.081143-35.032236-22.972915v-56.282976c0-12.061369-6.318396-17.229942-12.061369-21.824116h-0.573376c-0.5744-0.5744-80.404691-60.87715-188.949846-60.87715s-188.375446 60.30275-188.949845 60.87715l-0.5744 0.5744c-5.742973 4.594173-12.060345 9.762747-12.060345 21.824115v56.281953c-20.100917 6.892796-32.162286 14.933367-35.032237 22.973939-28.716912 86.145616-34.458861 167.124706-20.67634 185.5014 2.871998 4.019774 6.317372 4.596221 8.614971 4.596221 21.249716 0 25.843889-9.191419 32.160238-21.249716 0.5744-0.575424 0.5744-1.723199 1.149823-2.298623 0.573376-0.573376 1.148799-0.573376 1.1488-0.573376 0.5744 0 1.148799 0 1.148799 0.573376l1.724223 2.873022c8.039548 17.229942 16.080119 35.032236 33.883437 35.032237m288.303582 53.985377c-29.863663 16.080119-67.194522 24.122738-110.84173 24.122739-43.648231 0-80.97909-8.042619-110.842753-24.122739-25.843889-13.78252-46.519206-33.883437-62.024926-59.72835-21.249716-36.18206-32.736685-83.274641-33.885484-140.706417 1.723199 1.722175 3.446398 3.445374 5.168573 5.742973 4.595197 5.169597 8.614971 9.76377 14.357944 9.76377 9.189371 0 14.932344-9.76377 20.67634-18.953141 5.168573-8.040571 10.337146-16.655543 16.080119-16.655542 7.466172 0 14.357944 9.764794 21.824116 18.953141 7.466172 9.76377 14.932344 19.527541 23.54629 19.527541 8.040571 0 16.081143-8.040571 24.696114-17.804342 9.189371-9.762747 18.953141-20.67634 29.290288-20.67634s19.526517 10.91257 27.567088 20.67634c8.040571 9.76377 14.932344 17.804342 23.547315 17.804342 8.614971 0 14.932344-8.040571 23.546291-17.804342 8.041595-9.762747 17.804342-20.67634 27.567088-20.67634s20.100917 10.91257 29.289264 20.67634c8.615995 9.76377 16.655543 17.804342 24.696114 17.804342 8.614971 0 16.081143-9.189371 23.547315-19.527541 6.891772-9.188347 14.357944-18.953141 21.824115-18.953141 6.316349 0 11.485946 8.614971 16.08012 16.655542 5.742973 9.189371 11.485946 18.953141 20.67634 18.953141 6.316349 0 10.337146-4.594173 14.357944-9.76377 1.723199-1.723199 3.445374-4.019774 5.168573-5.742973-0.573376 57.430752-12.061369 104.523333-33.884461 140.706417-15.508791 25.844913-36.184107 45.944806-62.027997 59.72835z" fill="#F26E3F" /><path d="M368.298719 452.512263s-14.56784 5.441951-16.528581 13.346345c-1.96074 7.904395-14.171597 18.877374-14.171597 18.877374h-19.382149l-8.467532-8.602685v1.919785s6.257987 123.037228 56.312669 164.683763c50.054682 41.646536 98.029853 51.362183 137.812917 54.110292s89.299182-10.188683 89.299183-10.188683 26.230918-9.935783 28.33193-10.986289c2.101013-1.050506 44.031165-31.663654 44.780649-32.448974 0.749484-0.78532 38.261571-61.584655 38.261571-61.584655s16.828579-73.680836 17.286256-79.895819c0.458701-6.216008 1.273713-26.043547 1.273713-26.043547l-10.835778 8.655926-9.977763 3.363464-3.960388-1.094534s-7.375046-6.045019-7.798935-6.5672c-0.423889-0.522182-6.073688-15.654183-6.073688-15.654183l-11.700961-11.89038-10.889021 1.029004s-8.997904 7.717024-9.749436 8.602685c-0.751532 0.884637-7.989377 10.315645-9.388004 12.15659-1.398627 1.840946-15.117667 14.843266-15.117667 14.843266l-9.478106 1.066888-7.36276-3.724894-27.175964-26.616923L567.061481 455.042283l-16.318684 5.937511-15.665446 17.423457s-11.647719 10.532708-13.005391 11.048746c-1.357672 0.516038-14.476715-1.642312-14.476715-1.642312l-19.742557-20.893404-16.616634-13.557265-16.301279 2.149135-23.399875 22.282816-13.995488 11.37639s-9.689027 1.05153-10.662742 0.64812c-0.973715-0.403411-14.769546-13.072968-14.769546-13.072968l-12.516998-15.580463-11.291407-8.649783z" fill="#F2C928" /><path d="M421.040076 505.132801c-19.281808 0-34.394356 15.634729-34.394356 34.394356 0 19.281808 15.633705 34.39538 34.394356 34.39538 19.281808 0 34.39538-15.631657 34.395379-34.39538 0.520134-18.760651-15.113571-34.394356-34.395379-34.394356zM611.772505 505.132801c-19.281808 0-34.39538 15.634729-34.395379 34.394356 0 19.281808 15.634729 34.39538 34.395379 34.39538 19.281808 0 34.39538-15.631657 34.39538-34.39538 0-18.760651-15.634729-34.394356-34.39538-34.394356zM569.243381 605.596429c-1.148799-0.575424-2.297599-0.575424-3.446398 0l-2.296575 1.721151c-13.783544 9.765818-21.249716 15.506743-46.519206 15.506744-25.843889 0-33.311085-5.740925-46.52023-15.506744l-2.296574-1.721151c-1.149823-0.575424-2.297599-0.575424-3.446398 0-1.148799 0.573376-1.722175 1.721151-1.722176 2.870975 0 25.842866 24.119667 46.519206 54.558754 46.519205 29.864687 0 54.559777-20.675316 54.559777-46.519205a2473.075208 2473.075208 0 0 0-2.870974-2.870975zM481.300846 259.083943a5.264818 5.264818 0 0 1-5.228982-4.70373 5.260723 5.260723 0 0 1 4.674036-5.796214s9.363431-1.005455 18.701266-1.87883c2.867903-0.246756 5.462428 1.85528 5.73171 4.7539a5.266866 5.266866 0 0 1-4.7539 5.73171c-9.257971 0.864159-18.543587 1.8604-18.554849 1.860399a4.671989 4.671989 0 0 1-0.569281 0.032765zM548.648951 258.67746c-1.96586 0-6.353208-0.534468-19.048362-2.170637a5.266866 5.266866 0 0 1-4.548099-5.896555c0.372694-2.884285 3.016366-4.876766 5.896556-4.552195 7.447742 0.9645 15.833363 1.983266 17.519702 2.097942a5.260723 5.260723 0 0 1 5.084614 3.346057 5.266866 5.266866 0 0 1-2.982578 6.824195c-0.534468 0.209896-0.905115 0.351193-1.921833 0.351193z" fill="#404041" /><path d="M514.648791 250.576479m-5.411234 0a5.411234 5.411234 0 1 0 10.822468 0 5.411234 5.411234 0 1 0-10.822468 0Z" fill="#404041" /><path d="M320.088054 342.28384v-7.254227c0-9.645 4.673013-13.384229 10.084247-17.713216 0.151535-0.120818 0.294879-0.249828 0.432079-0.386005l0.353241-0.353241c3.485306-2.616027 67.96346-49.660486 157.703937-58.222215v-10.563425c-45.122626 4.180524-83.492729 17.713216-109.382693 29.385509-33.367399 15.043947-54.362167 30.546595-55.542707 31.728159l-0.369623 0.368598c-5.901675 4.724207-13.810165 11.235094-13.810165 25.754812v7.254227h10.531684zM703.774745 317.652231c4.913626 3.976771 8.950806 7.838866 8.950806 16.801958v7.828627h10.53066v-7.828627c0-14.706065-8.113267-21.196474-14.036444-25.936039a5.253556 5.253556 0 0 0-1.832754-0.948118c-5.730686-4.258339-25.262323-17.504344-53.852273-30.394036-26.058905-11.749084-64.760747-25.387237-110.26733-29.470491v10.569568c91.53842 8.461388 157.029197 57.103108 158.706321 58.389109a5.223863 5.223863 0 0 0 1.801014 0.988049z" fill="#404041" /><path d="M314.801734 352.328155a5.266866 5.266866 0 0 1-5.265842-5.265842v-7.217368a5.266866 5.266866 0 0 1 5.265842-5.265842h36.566017a5.266866 5.266866 0 0 1 0 10.531685h-31.300175v1.951525a5.26789 5.26789 0 0 1-5.265842 5.265842zM466.381813 345.110788h-36.566016a5.266866 5.266866 0 0 1 0-10.531685h36.566016a5.266866 5.266866 0 0 1 0 10.531685zM314.801734 385.342314a5.266866 5.266866 0 0 1-5.265842-5.265843v-7.212248a5.266866 5.266866 0 0 1 10.531684 0v7.212248a5.266866 5.266866 0 0 1-5.265842 5.265843z" fill="#404041" /><path d="M314.802758 360.518214m-4.973011 0a4.973011 4.973011 0 1 0 9.946022 0 4.973011 4.973011 0 1 0-9.946022 0Z" fill="#404041" /><path d="M718.135761 352.328155a5.266866 5.266866 0 0 1-5.265842-5.265842v-7.217368a5.266866 5.266866 0 0 1 10.531684 0v7.217368a5.26789 5.26789 0 0 1-5.265842 5.265842zM718.135761 385.342314a5.266866 5.266866 0 0 1-5.265842-5.265843v-7.212248a5.266866 5.266866 0 0 1 10.531684 0v7.212248a5.26789 5.26789 0 0 1-5.265842 5.265843z" fill="#404041" /><path d="M718.136785 360.518214m-4.973011 0a4.973011 4.973011 0 1 0 9.946022 0 4.973011 4.973011 0 1 0-9.946022 0Z" fill="#404041" /><path d="M758.02019 412.045243c-3.27029-9.810869-14.353848-17.8197-34.762955-25.064713v-13.103684h-10.53066v16.861343a5.264818 5.264818 0 0 0 3.601004 4.995537c23.389636 7.796887 30.150351 14.985586 31.701538 19.642216 13.252148 39.752348 22.366775 81.348713 25.667781 117.127362 2.903739 31.46502 0.838562 56.271714-5.42864 64.799654-1.477467 2.067224-2.923193 2.380533-4.269602 2.389748-17.995808-0.503752-21.465756-6.827267-27.207705-18.298878-0.280545-0.967572-0.739245-1.710912-1.057673-2.225927-0.059385-0.095221-0.12389-0.19761-0.190443-0.311261-0.852896-2.295551-3.179164-3.860048-6.065496-3.860048-0.827299 0-2.956981 0.205801-4.867551 2.111252-0.306142 0.306142-0.573376 0.648119-0.796583 1.018766l-1.723199 2.873022a5.170621 5.170621 0 0 0-0.288736 0.553922c-7.194842 16.05145-14.225863 29.55445-26.527845 31.652391 21.432992-36.802534 32.586174-84.176684 33.153407-140.863071a5.26789 5.26789 0 0 0-8.988689-3.777113c-1.005455 1.005455-1.948454 2.106132-2.859712 3.169949-0.818084 0.954261-1.591118 1.85528-2.307837 2.573023a5.316013 5.316013 0 0 0-0.433104 0.490441c-3.989057 5.127618-6.661398 7.731358-10.201993 7.731359-5.935463 0-10.839874-7.865487-15.584559-15.472955l-0.571328-0.916378c-4.905435-8.587326-11.012911-19.220375-20.600572-19.220375-10.240901 0-18.632665 11.187995-26.093718 21.135041-6.060377 8.391764-13.048395 17.344617-19.278737 17.344617-6.098261 0-13.90641-8.270946-20.748012-16.022781l-0.112627-0.124914c-9.852848-10.468204-21.018318-22.332987-33.124738-22.332987-11.993793 0-22.587934 11.618027-31.580719 22.530597l-1.914666 2.180875c-6.737165 7.69245-12.060345 13.768186-17.617995 13.768186-5.940583 0-11.82178-6.584607-19.48249-15.886604-8.290399-10.065817-18.607068-22.594077-31.631913-22.594078-12.155567 0-22.191691 10.689363-31.897099 21.026509l-1.227639 1.306478a3.286672 3.286672 0 0 0-0.113651 0.124914c-6.840578 7.751836-14.649751 16.022781-20.748012 16.022781-6.011231 0-13.104708-9.275377-19.36372-17.460316l-0.096245-0.121843c-0.811941-0.999312-1.616715-2.005791-2.416369-3.005103-7.362759-9.200634-14.316988-17.892396-23.493049-17.892396-8.297567 0-14.059993 9.000976-19.633001 17.706049l-1.539924 2.42968c-4.743661 7.606444-9.649095 15.472955-15.584558 15.472955-3.155615 0-5.960036-2.975411-10.273666-7.829651l-0.007167-0.008191c-1.901355-2.506471-3.742301-4.346393-5.522837-6.12693a5.266866 5.266866 0 0 0-8.987666 3.829331c1.135489 56.765226 12.33577 104.185451 33.322348 141.042251-12.399251-0.750508-19.004336-12.927576-27.52818-31.200857l-0.352217-0.756652a5.439903 5.439903 0 0 0-0.256995-0.48225l-1.420129-2.366198c-0.725935-1.79999-2.449134-3.635817-5.96618-3.635817-0.828323 0-2.9621 0.205801-4.875742 2.119442-1.113987 1.116035-1.566545 2.379509-1.811253 3.10954a5.454237 5.454237 0 0 0-0.275425 0.465868l-0.193515 0.368599c-6.098261 11.643624-9.456605 18.058265-27.302926 18.058265-1.361767 0-2.830019-0.28976-4.331035-2.390772l-0.071672-0.099317c-11.208473-14.942582-8.466508-90.906682 21.421729-180.572416 1.084295-3.037868 6.352185-11.043627 31.781401-19.763034a5.264818 5.264818 0 0 0 3.558001-4.981203v-17.434719h-10.53066v13.71392c-19.721055 7.222487-31.399491 15.605036-34.761931 25.029901-27.107364 81.316972-36.224039 168.40661-19.929928 190.276801 2.223879 3.092134 6.252868 6.752524 12.865119 6.752524 21.497496 0 28.66367-9.071624 34.467052-19.635049 7.812245 16.583871 17.164414 33.991969 36.747244 33.991969a5.253556 5.253556 0 0 0 4.077112-1.933096c15.60606 23.766426 35.78172 42.347897 60.047802 55.288784 24.869151 13.390372 54.813701 21.396132 89.253108 23.897483V690.695634c-32.618939-2.453229-60.89046-10.023837-84.279073-22.617627-24.702257-13.174332-44.885085-32.617915-59.96282-57.74918-19.089318-32.501192-30.052058-74.132369-32.650679-123.903435 3.767898 3.705441 8.021118 6.635801 13.75078 6.635801 11.777753 0 18.546659-10.854208 24.520006-20.431632l1.473371-2.324219c2.87507-4.491785 8.228966-12.852832 10.763082-12.852833 4.114995 0 10.042267 7.406786 15.270226 13.941223 0.799654 0.999312 1.604428 2.004767 2.416369 3.004079 8.103028 10.597213 16.488649 21.53538 27.683812 21.53538 10.472299 0 19.50092-9.228278 28.58995-19.524469l1.176444-1.252212c7.791767-8.298591 16.621754-17.704001 24.220007-17.704001 8.053882 0 16.983186 10.841922 23.502264 18.757579 7.985282 9.696194 16.241893 19.722079 27.611115 19.72208 10.333051 0 17.380453-8.044667 25.54082-17.359976l1.953573-2.225927c0.039932-0.045051 0.078839-0.090102 0.116723-0.136177 5.013966-6.088022 15.449406-18.757579 23.503288-18.757579 7.53682 0 17.432672 10.494825 25.397475 18.958261 9.08903 10.295167 18.117651 19.521398 28.587902 19.521398 11.208473 0 19.554162-10.26957 27.759579-21.633673 5.032396-6.708497 12.636793-16.847009 17.611852-16.84701 3.507831 0 9.113603 9.811893 11.508471 14.002656 0.034812 0.060409 0.069624 0.119795 0.106484 0.17918l0.621498 0.99624c5.972323 9.576399 12.741229 20.431632 24.520006 20.431632 6.049114 0 10.496872-2.978482 13.872622-6.353208-2.196234 49.635913-13.188667 91.154463-32.744876 123.578863-15.10538 25.174268-35.288208 44.618875-59.989442 57.792183l-0.019453 0.010239c-23.980418 12.912218-53.123266 20.535044-86.822404 22.777353v10.548067c35.511415-2.286336 66.335482-10.333051 91.814868-24.052091 24.036732-12.824164 44.052666-31.168093 59.588079-54.590493a5.355944 5.355944 0 0 0 3.556977 1.231734c19.813205-0.638904 29.625098-18.672597 36.571136-33.8261 5.594509 10.494825 12.793447 19.460988 34.332923 20.042555l0.141296 0.002048c6.647064 0 10.684243-3.696226 12.858976-6.740237 17.085574-23.241173 8.663094-109.120578-18.774985-191.436863z" fill="#404041" /><path d="M487.687843 695.65943c0.584639 0.194538 3.297935 0.178156 9.742269 0.682932" fill="#F2C928" /><path d="M497.433183 701.608204a6.2457 6.2457 0 0 1-0.413649-0.013311c-3.149471-0.246756-5.390756-0.365527-6.917369-0.447438-2.255619-0.12389-3.101349-0.168941-4.056634-0.480202a5.26789 5.26789 0 0 1-3.361416-6.646039 5.275057 5.275057 0 0 1 6.134097-3.501688c0.379861 0.03686 0.97781 0.063481 1.846066 0.109556 1.585998 0.081911 3.910218 0.209896 7.17334 0.461772a5.266866 5.266866 0 1 1-0.404435 10.51735z" fill="#404041" /><path d="M541.708033 695.899019l-10.335099 0.887709" fill="#F2C928" /><path d="M531.364743 702.051546a5.265842 5.265842 0 0 1-0.443342-10.51223l10.337146-0.886685c2.888381-0.283616 5.448094 1.89726 5.697922 4.79895a5.269938 5.269938 0 0 1-4.796903 5.694851l-10.337146 0.886684c-0.153583 0.013311-0.307166 0.01843-0.457677 0.01843z" fill="#404041" /><path d="M514.600669 697.756347m-6.191435 0a6.191435 6.191435 0 1 0 12.382869 0 6.191435 6.191435 0 1 0-12.382869 0Z" fill="#404041" /><path d="M448.098293 748.352665m-6.191435 0a6.191435 6.191435 0 1 0 12.38287 0 6.191435 6.191435 0 1 0-12.38287 0Z" fill="#404041" /><path d="M478.326459 748.315805h-12.2856" fill="#F2C928" /><path d="M478.325436 753.581647h-12.286624a5.266866 5.266866 0 0 1 0-10.531685h12.286624a5.266866 5.266866 0 0 1 0 10.531685z" fill="#404041" /><path d="M430.742413 748.315805h-12.286624" fill="#F2C928" /><path d="M430.741389 753.581647h-12.286624a5.266866 5.266866 0 0 1 0-10.531685h12.286624a5.266866 5.266866 0 0 1 0 10.531685zM305.844785 450.347769h-35.553394a5.266866 5.266866 0 0 1 0-10.531684h35.553394a5.266866 5.266866 0 0 1 0 10.531684zM270.291391 518.996208h-14.482858a5.266866 5.266866 0 0 1 0-10.531684h14.482858a5.266866 5.266866 0 0 1 0 10.531684zM292.473867 564.237605h-39.395012a5.266866 5.266866 0 0 1 0-10.531684h39.395012a5.266866 5.266866 0 0 1 0 10.531684zM347.468795 528.745644h-30.813828a5.266866 5.266866 0 0 1 0-10.531684h30.813828a5.266866 5.266866 0 0 1 0 10.531684zM345.128194 581.790072h-17.16339a5.266866 5.266866 0 0 1 0-10.531685h17.16339a5.266866 5.266866 0 0 1 0 10.531685zM366.609308 640.478154c-8.14296 0-8.833059-0.228326-9.506775-0.456652a5.266866 5.266866 0 0 1-3.313293-6.668566c0.845729-2.513638 3.414658-3.958341 5.948773-3.501687 2.086678 0.155631 13.858288 0.08703 24.31011-0.087031h0.08703a5.262771 5.262771 0 0 1 5.26277 5.178812 5.266866 5.266866 0 0 1-5.180859 5.351849c-8.114291 0.133105-13.71392 0.183275-17.607756 0.183275zM433.431136 712.842274h-24.76881a5.266866 5.266866 0 0 1 0-10.531685h24.76881a5.266866 5.266866 0 0 1 0 10.531685zM424.598077 732.734318h-15.935751a5.266866 5.266866 0 0 1 0-10.531685h15.935751c2.90681 0 5.265842 2.359032 5.265842 5.265843s-2.359032 5.265842-5.265842 5.265842zM448.099317 409.782456h-61.453597a5.266866 5.266866 0 0 1 0-10.531684h61.453597a5.266866 5.266866 0 0 1 0 10.531684zM526.106068 409.782456h-28.67698a5.266866 5.266866 0 0 1 0-10.531684H526.106068a5.266866 5.266866 0 0 1 0 10.531684zM692.929752 395.201305h-28.67698a5.266866 5.266866 0 0 1 0-10.531684h28.67698a5.266866 5.266866 0 0 1 0 10.531684zM631.611308 303.690531H604.566401a5.266866 5.266866 0 0 1 0-10.531685h27.044907a5.266866 5.266866 0 0 1 0 10.531685z" fill="#404041" /></svg>