<?xml version="1.0" encoding="utf-8"?>

<svg width="800px" height="800px" viewBox="0 0 1024 1024" class="icon"  version="1.1" xmlns="http://www.w3.org/2000/svg"><path d="M309.51439 691.271058c-6.834435 0-12.39106-5.559697-12.39106-12.393108 0-6.833411 5.55765-12.393108 12.39106-12.393108 6.834435 0 12.39106 5.559697 12.391061 12.393108 0.001024 6.832387-5.556626 12.393108-12.391061 12.393108m0-37.176253c-13.686275 0-24.783144 11.096869-24.783144 24.783145 0 13.686275 11.096869 24.783144 24.783144 24.783144 13.686275 0 24.783144-11.096869 24.783145-24.783144 0-13.686275-11.096869-24.783144-24.783145-24.783145M343.057898 414.082775l13.166141-13.165118c2.367223-2.36108 2.397939-6.31942-0.023549-8.735789a6.153551 6.153551 0 0 0-8.73579-0.025598l-13.166141 13.165118-13.166142-13.165118c-2.36108-2.366199-6.31942-2.398963-8.735789 0.025598a6.153551 6.153551 0 0 0-0.024574 8.735789l13.166142 13.165118-13.166142 13.165117c-2.367223 2.36108-2.397939 6.31942 0.024574 8.73579a6.151503 6.151503 0 0 0 8.735789 0.025597l13.166142-13.165118 13.166141 13.165118c2.36108 2.368247 6.313277 2.398963 8.73579-0.025597a6.152527 6.152527 0 0 0 0.023549-8.73579l-13.166141-13.165117zM310.563873 564.607228a6.184267 6.184267 0 0 0 6.19553-6.197578 6.179148 6.179148 0 0 0-6.19553-6.19553 6.181196 6.181196 0 0 0-6.19553 6.19553 6.178124 6.178124 0 0 0 6.19553 6.197578M245.251252 774.149455a6.184267 6.184267 0 0 0 6.19553-6.197578 6.179148 6.179148 0 0 0-6.19553-6.19553 6.181196 6.181196 0 0 0-6.19553 6.19553 6.178124 6.178124 0 0 0 6.19553 6.197578M460.076727 853.402275a6.184267 6.184267 0 0 0 6.195531-6.197578 6.179148 6.179148 0 0 0-6.195531-6.19553 6.181196 6.181196 0 0 0-6.19553 6.19553 6.179148 6.179148 0 0 0 6.19553 6.197578M212.200234 313.975459a6.184267 6.184267 0 0 0 6.19553-6.197578 6.179148 6.179148 0 0 0-6.19553-6.19553 6.181196 6.181196 0 0 0-6.195531 6.19553 6.1771 6.1771 0 0 0 6.195531 6.197578M186.537572 688.929432a6.18222 6.18222 0 0 0 6.19553-6.19553 6.179148 6.179148 0 0 0-6.19553-6.197578 6.183243 6.183243 0 0 0-6.19553 6.197578 6.179148 6.179148 0 0 0 6.19553 6.19553M79.897867 354.176268a6.18222 6.18222 0 0 0 6.195531-6.19553 6.179148 6.179148 0 0 0-6.195531-6.197578 6.183243 6.183243 0 0 0-6.19553 6.197578 6.179148 6.179148 0 0 0 6.19553 6.19553" fill="#404041" /><path d="M193.30443 568.430416a3.249812 3.249812 0 0 1-3.25186-3.25186V551.641768c0-1.797943 1.455965-3.25186 3.25186-3.25186s3.25186 1.452893 3.25186 3.25186v13.536788a3.250836 3.250836 0 0 1-3.25186 3.25186z" fill="#404041" /><path d="M200.070264 561.659462h-13.531668a3.249812 3.249812 0 0 1-3.25186-3.25186 3.250836 3.250836 0 0 1 3.25186-3.251859h13.531668a3.249812 3.249812 0 0 1 3.25186 3.251859 3.250836 3.250836 0 0 1-3.25186 3.25186z" fill="#404041" /><path d="M277.965412 345.03502a3.249812 3.249812 0 0 1-3.25186-3.25186v-13.531668a3.250836 3.250836 0 0 1 3.25186-3.25186 3.249812 3.249812 0 0 1 3.25186 3.25186v13.531668a3.250836 3.250836 0 0 1-3.25186 3.25186z" fill="#404041" /><path d="M284.731246 338.269186h-13.533716a3.249812 3.249812 0 0 1-3.25186-3.25186 3.250836 3.250836 0 0 1 3.25186-3.25186h13.533716a3.249812 3.249812 0 0 1 3.25186 3.25186 3.250836 3.250836 0 0 1-3.25186 3.25186z" fill="#404041" /><path d="M430.324668 207.841554a3.249812 3.249812 0 0 1-3.25186-3.25186v-13.531668a3.250836 3.250836 0 0 1 3.25186-3.25186 3.249812 3.249812 0 0 1 3.251859 3.25186v13.531668a3.250836 3.250836 0 0 1-3.251859 3.25186z" fill="#404041" /><path d="M437.090502 201.074696h-13.531669a3.249812 3.249812 0 0 1-3.251859-3.25186 3.250836 3.250836 0 0 1 3.251859-3.25186h13.531669a3.249812 3.249812 0 0 1 3.25186 3.25186 3.250836 3.250836 0 0 1-3.25186 3.25186z" fill="#404041" /><path d="M364.961876 799.499832a3.249812 3.249812 0 0 1-3.25186-3.25186v-13.531668a3.250836 3.250836 0 0 1 3.25186-3.25186 3.249812 3.249812 0 0 1 3.25186 3.25186v13.531668a3.249812 3.249812 0 0 1-3.25186 3.25186z" fill="#404041" /><path d="M371.730782 792.733998h-13.533716a3.249812 3.249812 0 0 1-3.25186-3.25186 3.250836 3.250836 0 0 1 3.25186-3.25186h13.533716a3.249812 3.249812 0 0 1 3.25186 3.25186 3.250836 3.250836 0 0 1-3.25186 3.25186z" fill="#404041" /><path d="M167.91105 448.516038a3.249812 3.249812 0 0 1-3.25186-3.25186v-13.531668c0-1.797943 1.455965-3.25186 3.25186-3.25186s3.25186 1.452893 3.25186 3.25186v13.531668a3.250836 3.250836 0 0 1-3.25186 3.25186z" fill="#404041" /><path d="M174.676884 441.750204H161.142144c-1.795895 0-3.25186-1.452893-3.25186-3.25186s1.455965-3.25186 3.25186-3.25186h13.533716c1.795895 0 3.25186 1.452893 3.25186 3.25186s-1.454941 3.25186-3.250836 3.25186z" fill="#404041" /><path d="M252.01811 487.103204a3.249812 3.249812 0 0 1-3.25186-3.251859V470.314557a3.250836 3.250836 0 0 1 3.25186-3.25186 3.249812 3.249812 0 0 1 3.25186 3.25186v13.536788a3.250836 3.250836 0 0 1-3.25186 3.251859z" fill="#404041" /><path d="M258.783944 480.33737h-13.531668c-1.795895 0-3.25186-1.452893-3.25186-3.25186s1.455965-3.25186 3.25186-3.251859h13.531668c1.795895 0 3.25186 1.452893 3.25186 3.251859s-1.455965 3.25186-3.25186 3.25186z" fill="#404041" /><path d="M73.133057 533.92548a3.249812 3.249812 0 0 1-3.25186-3.251859v-13.531669c0-1.797943 1.455965-3.25186 3.25186-3.25186s3.25186 1.452893 3.25186 3.25186v13.531669a3.250836 3.250836 0 0 1-3.25186 3.251859z" fill="#404041" /><path d="M79.898891 527.159646H66.364151a3.249812 3.249812 0 0 1-3.25186-3.25186 3.250836 3.250836 0 0 1 3.25186-3.251859h13.533716a3.249812 3.249812 0 0 1 3.25186 3.251859 3.248788 3.248788 0 0 1-3.250836 3.25186z" fill="#404041" /><path d="M343.107044 266.983218a6.184267 6.184267 0 0 1-6.19553-6.197578 6.179148 6.179148 0 0 1 6.19553-6.19553 6.181196 6.181196 0 0 1 6.19553 6.19553 6.1771 6.1771 0 0 1-6.19553 6.197578M710.62761 691.271058c-6.834435 0-12.39106-5.559697-12.39106-12.393108 0-6.833411 5.55765-12.393108 12.39106-12.393108s12.39106 5.559697 12.39106 12.393108c0 6.832387-5.55765 12.393108-12.39106 12.393108m0-37.176253c-13.686275 0-24.783144 11.096869-24.783145 24.783145 0 13.686275 11.096869 24.783144 24.783145 24.783144 13.686275 0 24.783144-11.096869 24.783144-24.783144-0.001024-13.686275-11.096869-24.783144-24.783144-24.783145M677.084103 414.082775l-13.166142-13.165118c-2.367223-2.36108-2.397939-6.31942 0.024573-8.735789a6.153551 6.153551 0 0 1 8.73579-0.025598l13.166141 13.165118 13.166142-13.165118c2.36108-2.366199 6.31942-2.398963 8.735789 0.025598a6.153551 6.153551 0 0 1 0.02355 8.735789l-13.166142 13.165118 13.166142 13.165117c2.367223 2.36108 2.397939 6.31942-0.02355 8.73579a6.151503 6.151503 0 0 1-8.735789 0.025597l-13.166142-13.165118-13.166141 13.165118c-2.36108 2.368247-6.313277 2.398963-8.73579-0.025597a6.153551 6.153551 0 0 1-0.024573-8.73579l13.166142-13.165117zM709.578127 564.607228a6.184267 6.184267 0 0 1-6.19553-6.197578 6.179148 6.179148 0 0 1 6.19553-6.19553 6.181196 6.181196 0 0 1 6.19553 6.19553 6.179148 6.179148 0 0 1-6.19553 6.197578M774.890748 774.149455a6.184267 6.184267 0 0 1-6.19553-6.197578 6.179148 6.179148 0 0 1 6.19553-6.19553 6.181196 6.181196 0 0 1 6.19553 6.19553 6.179148 6.179148 0 0 1-6.19553 6.197578M560.065273 853.402275a6.184267 6.184267 0 0 1-6.19553-6.197578 6.179148 6.179148 0 0 1 6.19553-6.19553 6.181196 6.181196 0 0 1 6.19553 6.19553 6.179148 6.179148 0 0 1-6.19553 6.197578M807.941767 313.975459a6.184267 6.184267 0 0 1-6.195531-6.197578 6.179148 6.179148 0 0 1 6.195531-6.19553 6.181196 6.181196 0 0 1 6.19553 6.19553 6.1771 6.1771 0 0 1-6.19553 6.197578M833.604428 688.929432a6.18222 6.18222 0 0 1-6.19553-6.19553 6.179148 6.179148 0 0 1 6.19553-6.197578 6.183243 6.183243 0 0 1 6.19553 6.197578 6.179148 6.179148 0 0 1-6.19553 6.19553M940.244133 354.176268a6.18222 6.18222 0 0 1-6.19553-6.19553 6.179148 6.179148 0 0 1 6.19553-6.197578 6.183243 6.183243 0 0 1 6.19553 6.197578 6.178124 6.178124 0 0 1-6.19553 6.19553" fill="#404041" /><path d="M826.83757 568.430416a3.249812 3.249812 0 0 1-3.25186-3.25186V551.641768a3.250836 3.250836 0 0 1 3.25186-3.25186 3.249812 3.249812 0 0 1 3.25186 3.25186v13.536788a3.250836 3.250836 0 0 1-3.25186 3.25186z" fill="#404041" /><path d="M833.603404 561.659462h-13.531668a3.249812 3.249812 0 0 1-3.25186-3.25186 3.250836 3.250836 0 0 1 3.25186-3.251859h13.531668a3.249812 3.249812 0 0 1 3.25186 3.251859 3.250836 3.250836 0 0 1-3.25186 3.25186z" fill="#404041" /><path d="M742.176588 345.03502a3.249812 3.249812 0 0 1-3.25186-3.25186v-13.531668a3.250836 3.250836 0 0 1 3.25186-3.25186 3.249812 3.249812 0 0 1 3.25186 3.25186v13.531668a3.250836 3.250836 0 0 1-3.25186 3.25186z" fill="#404041" /><path d="M748.94447 338.269186h-13.533716a3.249812 3.249812 0 0 1-3.25186-3.25186 3.250836 3.250836 0 0 1 3.25186-3.25186h13.533716a3.249812 3.249812 0 0 1 3.25186 3.25186 3.250836 3.250836 0 0 1-3.25186 3.25186z" fill="#404041" /><path d="M589.818356 207.841554a3.249812 3.249812 0 0 1-3.251859-3.25186v-13.531668c0-1.797943 1.455965-3.25186 3.251859-3.25186s3.25186 1.452893 3.25186 3.25186v13.531668a3.250836 3.250836 0 0 1-3.25186 3.25186z" fill="#404041" /><path d="M596.584191 201.074696h-13.531669a3.249812 3.249812 0 0 1-3.25186-3.25186 3.250836 3.250836 0 0 1 3.25186-3.25186h13.531669a3.249812 3.249812 0 0 1 3.251859 3.25186 3.249812 3.249812 0 0 1-3.251859 3.25186z" fill="#404041" /><path d="M655.180124 799.499832a3.249812 3.249812 0 0 1-3.25186-3.25186v-13.531668c0-1.797943 1.455965-3.25186 3.25186-3.25186s3.25186 1.452893 3.25186 3.25186v13.531668a3.249812 3.249812 0 0 1-3.25186 3.25186z" fill="#404041" /><path d="M661.945958 792.733998h-13.533716a3.249812 3.249812 0 0 1-3.25186-3.25186 3.250836 3.250836 0 0 1 3.25186-3.25186h13.533716a3.249812 3.249812 0 0 1 3.25186 3.25186 3.249812 3.249812 0 0 1-3.25186 3.25186z" fill="#404041" /><path d="M852.23095 448.516038a3.249812 3.249812 0 0 1-3.25186-3.25186v-13.531668a3.250836 3.250836 0 0 1 3.25186-3.25186 3.249812 3.249812 0 0 1 3.25186 3.25186v13.531668a3.250836 3.250836 0 0 1-3.25186 3.25186z" fill="#404041" /><path d="M858.999856 441.750204H845.46614c-1.795895 0-3.25186-1.452893-3.25186-3.25186s1.455965-3.25186 3.25186-3.25186h13.533716c1.795895 0 3.25186 1.452893 3.25186 3.25186s-1.455965 3.25186-3.25186 3.25186z" fill="#404041" /><path d="M768.124914 487.103204a3.249812 3.249812 0 0 1-3.25186-3.251859V470.314557c0-1.797943 1.455965-3.25186 3.25186-3.25186s3.25186 1.452893 3.25186 3.25186v13.536788a3.250836 3.250836 0 0 1-3.25186 3.251859z" fill="#404041" /><path d="M774.890748 480.33737h-13.533716c-1.795895 0-3.25186-1.452893-3.25186-3.25186s1.455965-3.25186 3.25186-3.251859h13.533716c1.795895 0 3.25186 1.452893 3.25186 3.251859s-1.455965 3.25186-3.25186 3.25186z" fill="#404041" /><path d="M947.012015 533.92548a3.249812 3.249812 0 0 1-3.25186-3.251859v-13.531669c0-1.797943 1.455965-3.25186 3.25186-3.25186s3.25186 1.452893 3.251859 3.25186v13.531669a3.250836 3.250836 0 0 1-3.251859 3.251859z" fill="#404041" /><path d="M953.777849 527.159646h-13.533716a3.249812 3.249812 0 0 1-3.25186-3.25186 3.250836 3.250836 0 0 1 3.25186-3.251859h13.533716a3.249812 3.249812 0 0 1 3.25186 3.251859 3.250836 3.250836 0 0 1-3.25186 3.25186z" fill="#404041" /><path d="M677.034956 266.983218a6.184267 6.184267 0 0 0 6.19553-6.197578 6.179148 6.179148 0 0 0-6.19553-6.19553 6.181196 6.181196 0 0 0-6.19553 6.19553 6.1771 6.1771 0 0 0 6.19553 6.197578" fill="#404041" /><path d="M536.357208 320.344025c-0.433103-6.504743-21.278385-135.739549-21.278385-135.739549s-20.787944 30.790279-20.353816 32.091638c0.434127 1.301358-16.479434 98.010399-15.612204 99.311757 0.867231 1.301358 23.773593 66.785992 23.773594 66.785992l30.869118-60.714352M526.55453 464.32278c1.562449-2.601693 10.833731-25.152767 12.269218-27.321356 1.435487-2.168589 15.485242-27.321356 19.51935-31.224407 4.034108-3.903051 36.992977-47.703841 36.992976-47.703841l25.586895-19.949382s2.168589 30.790279 0 36.428816c-2.168589 5.637513-30.621338 82.831299-32.006656 86.73435-1.386341 3.903051-2.723535 6.40645-5.722495 9.103364-2.99896 2.696914-56.639288-3.898955-56.639288-3.898955" fill="#F2C928" /><path d="M588.916313 353.735998l32.971156-111.888141-47.665958 37.730174-59.143712 94.540452-30.022365 92.702577 26.941494 2.728654 12.165806-6.96242zM502.885373 384.094197l-0.495561-1.077127-33.685827-73.080839-68.953557-68.325915s15.612203 91.929544 16.913562 92.270497c1.301358 0.340954 53.775481 97.049994 53.775481 97.049995l14.615963 23.418305" fill="#33B88C" /><path d="M487.907978 458.010527l-0.9645-1.380198-66.811589-95.522357-27.321356-19.515254 16.913562 72.423504s18.814917 62.882941 22.116947 62.332091c3.303054-0.551874 61.793527-3.505783 61.793527-3.505783" fill="#F2C928" /><path d="M526.55453 482.309373c7.873678 1.546067 20.47873-6.464812 31.788568-11.920073h-25.86232c-3.053226 6.159694-5.716352 11.528949-5.926248 11.920073zM493.109316 474.879038c1.035148-0.054266-3.295887 1.196922-2.252548 1.160062 2.007839-0.054266 9.182204 0.05529 11.219735 0.055289 3.621482 0 0 0 3.550835 0.225255 1.256307 0.071672 2.956981 5.893484 4.208168 5.990753 0.69829-1.363815 2.744013-6.081879 5.243317-11.920073h-20.796135c-0.405459 1.525589-0.800678 3.030701-1.173372 4.488714z" fill="#404041" /><path d="M632.817444 327.318732c-2.643672-2.345721-6.138193-2.499304-8.933399-0.380885-7.438527 5.674372-14.6047 11.800278-21.601933 18.170893 14.012895-33.760571 24.131953-69.723519 30.012127-107.562225 0.628666-4.014654-0.678836-8.118387-3.334794-10.465132-2.652887-2.345721-6.154575-2.506471-8.925209-0.378838-29.082439 22.148687-54.706193 49.667653-76.569216 81.992737-2.472683-46.363575-11.182876-91.383813-26.187915-134.131025-1.314669-3.744349-4.236837-6.153551-7.48153-6.153551-3.244693 0-6.175052 2.409202-7.482554 6.153551-15.006063 42.756427-23.714208 87.776665-26.186891 134.14024-21.858928-32.32406-47.488825-59.852241-76.569216-81.999904-2.772681-2.12149-6.267202-1.968931-8.932376 0.37679-2.651863 2.346745-3.952197 6.451501-3.336842 10.465132 5.887341 37.829491 15.998208 73.792439 30.010079 107.551986-6.995185-6.360376-14.147024-12.476043-21.593742-18.150415-2.779849-2.110228-6.272321-1.967908-8.930328 0.377813-2.653911 2.345721-3.959365 6.441263-3.33889 10.466156 7.348425 47.272785 25.96266 101.157822 46.002144 141.979107l36.003904-9.381862-0.001024-0.036859c-9.187323-4.22967-18.179084-8.084599-24.092022-5.403043-16.848033-33.082759-29.400867-68.78564-37.362599-106.551651 16.663734 14.671253 31.940103 31.405635 45.830131 49.98301 5.353896 8.508487 10.997552 16.682164 16.857248 24.585535 3.76585 5.990753 7.44467 12.081847 10.946358 18.396147 0.194538 0.360408 2.648791 5.505431 5.376422 11.182876 0.552898 1.151871 1.117059 2.325244 1.677124 3.485306l0.381909 0.790439 1.913642 3.569264h7.312589c9.490393-35.816533 27.360264-89.615563 43.801814-119.272401 20.264738-36.540419 44.965972-67.719775 73.646023-92.964692-8.987665 42.665301-23.73571 82.652119-43.985089 119.154655-3.336842 6.019422-6.851841 11.873998-10.460013 17.647687a395.977411 395.977411 0 0 0-28.739437 44.533892c-1.477467 2.662102-8.407122 19.085222-13.46614 30.899835h17.401955c4.215336-8.50132 9.177084-18.507751 9.476059-19.036076 3.259027-5.891436 6.681876-11.575024 10.169229-17.179771 6.151503-8.225895 12.01939-16.879773 17.62721-25.802934 13.882861-18.567136 29.166397-35.302542 45.837298-49.972772-8.073336 38.35372-20.907738 74.577759-38.148943 108.076216-4.600317-2.222855-11.561713 0.280545-19.097509 3.915337l31.88686 9.381862c20.05177-40.829475 38.586142-94.706321 45.93252-141.989346 0.619451-4.024893-0.687027-8.118387-3.345034-10.463084zM487.136993 429.845489a360.961556 360.961556 0 0 1-7.951494-10.249092 387.210904 387.210904 0 0 0-17.099909-24.920345 385.936167 385.936167 0 0 1-10.261378-17.360999c-20.250404-36.520966-34.998448-76.515974-43.972803-119.162846 28.674932 25.244917 53.383333 56.434511 73.633737 92.956501 6.995185 12.620411 13.390372 25.883821 19.106724 39.461564a454.144336 454.144336 0 0 0-13.454877 39.275217z m37.542803-90.601564c-5.330347 9.618379-10.290048 19.498872-14.906747 29.592333-4.621818-10.121106-9.581519-20.036412-14.877053-29.592333-1.026957-1.837874-2.113299-3.581551-3.16483-5.405091 0.178156-43.882701 6.209864-86.655511 18.057242-127.49932 11.832019 40.824356 17.884205 83.599213 18.061337 127.482938-1.041291 1.822516-2.149135 3.572336-3.169949 5.421473z" fill="#404041" /><path d="M445.783288 469.549714s-56.677172 51.621226-63.723551 76.491401c-7.045355 24.870175-8.250468 126.26349-8.250468 126.263491s21.333675 46.967668 17.332331 51.682659c-4.001344 4.714992 66.504424 64.505799 66.504424 64.5058l77.844977 7.372998 64.373718-34.471147s27.406338-34.988209 29.139776-38.465324c1.733438-3.477115 19.304334-67.047083 19.68522-71.340234 0.380885-4.293151-4.263458-81.513558-4.73547-83.550066-0.470987-2.036508-28.487561-63.397955-29.337386-64.469964-0.849825-1.072008-36.07148-31.451709-36.07148-31.451709l-4.665846-2.567905h-85.660294l-38.893308 2.731726" fill="#F26E3F" /><path d="M419.327115 405.991009h-14.61801a7.154911 7.154911 0 1 1 0-14.309821h14.61801a7.154911 7.154911 0 1 1 0 14.309821zM456.831011 305.328747h-25.340138a7.154911 7.154911 0 1 1 0-14.309821h25.340138a7.154911 7.154911 0 1 1 0 14.309821zM460.077751 369.492569h-27.153439a7.154911 7.154911 0 1 1 0-14.309821h27.153439a7.154911 7.154911 0 1 1 0 14.309821zM472.241509 440.972051h-24.354136a7.154911 7.154911 0 1 1 0-14.309821h24.354136a7.154911 7.154911 0 1 1 0 14.309821zM499.832147 295.404227h-14.778761a7.154911 7.154911 0 1 1 0-14.309822h14.778761a7.154911 7.154911 0 1 1 0 14.309822zM526.555554 260.276769h-14.557602a7.154911 7.154911 0 1 1 0-14.309821h14.557602a7.154911 7.154911 0 1 1 0 14.309821zM527.250772 336.388309h-12.172973a7.154911 7.154911 0 1 1 0-14.309822h12.172973a7.154911 7.154911 0 1 1 0 14.309822zM605.310765 318.175436h-25.36983a7.154911 7.154911 0 1 1 0-14.309821h25.36983a7.154911 7.154911 0 1 1 0 14.309821zM546.766026 371.544435h-25.603276a7.154911 7.154911 0 1 1 0-14.309821h25.603276a7.154911 7.154911 0 1 1 0 14.309821zM550.987505 424.645176h-20.484873a7.154911 7.154911 0 1 1 0-14.309822h20.484873a7.154911 7.154911 0 1 1 0 14.309822zM592.624826 393.003024h-18.404339a7.154911 7.154911 0 1 1 0-14.309822h18.404339a7.154911 7.154911 0 1 1 0 14.309822zM602.433647 431.674148h-19.009455a7.154911 7.154911 0 1 1 0-14.309821h19.009455a7.154911 7.154911 0 1 1 0 14.309821zM381.66247 556.531844a5.734782 5.734782 0 0 1-1.995553-0.355288 5.850481 5.850481 0 0 1-3.508855-7.49484l1.885997-5.205433c1.103748-3.042987 4.46414-4.632057 7.49996-3.508855a5.850481 5.850481 0 0 1 3.508855 7.49484l-1.885997 5.205433a5.858672 5.858672 0 0 1-5.504407 3.864143zM375.037932 582.219079c-0.40853 0-0.824228-0.044027-1.239925-0.136176a5.854576 5.854576 0 0 1-4.488714-6.955253l1.166206-5.41021c0.680884-3.163806 3.781209-5.205433 6.958324-4.486666a5.854576 5.854576 0 0 1 4.488714 6.955253l-1.166206 5.41021a5.856624 5.856624 0 0 1-5.718399 4.622842z" fill="#404041" /><path d="M379.295247 561.104516m-3.094182 0a3.094181 3.094181 0 1 0 6.188363 0 3.094181 3.094181 0 1 0-6.188363 0Z" fill="#404041" /><path d="M388.625914 670.370487h-12.425872a7.154911 7.154911 0 1 1 0-14.309822h12.425872a7.154911 7.154911 0 1 1 0 14.309822zM443.658726 554.096021a5.559697 5.559697 0 0 1-4.345369-2.08463l-8.365143-10.415986-7.137505 9.692099a5.578127 5.578127 0 0 1-7.786648 1.181563 5.573008 5.573008 0 0 1-1.181563-7.791767l11.431679-15.520054a5.583247 5.583247 0 0 1 4.366871-2.264834 5.511575 5.511575 0 0 1 4.460045 2.085654l12.897883 16.063737a5.569936 5.569936 0 0 1-0.854944 7.830675 5.575056 5.575056 0 0 1-3.485306 1.223543zM484.409362 554.096021a5.559697 5.559697 0 0 1-4.345369-2.08463l-8.365143-10.415986-7.137505 9.692099a5.578127 5.578127 0 0 1-7.786648 1.181563 5.573008 5.573008 0 0 1-1.181563-7.791767l11.431679-15.520054a5.583247 5.583247 0 0 1 4.366871-2.264834 5.643656 5.643656 0 0 1 4.460045 2.085654l12.897883 16.063737a5.569936 5.569936 0 0 1-0.854944 7.830675 5.575056 5.575056 0 0 1-3.485306 1.223543zM524.163758 554.096021a5.556626 5.556626 0 0 1-4.34537-2.08463l-8.362071-10.415986-7.140576 9.692099a5.580175 5.580175 0 0 1-7.788696 1.181563 5.573008 5.573008 0 0 1-1.178492-7.791767l11.434751-15.520054a5.584271 5.584271 0 0 1 4.369943-2.264834c1.594189-0.038908 3.373702 0.734126 4.456973 2.085654l12.894811 16.063737a5.569936 5.569936 0 0 1-0.855968 7.830675 5.575056 5.575056 0 0 1-3.485305 1.223543zM563.155359 554.096021a5.556626 5.556626 0 0 1-4.34537-2.08463l-8.362071-10.415986-7.140576 9.692099c-1.822516 2.473707-5.307822 2.99896-7.788696 1.181563a5.573008 5.573008 0 0 1-1.178492-7.791767l11.434751-15.520054a5.584271 5.584271 0 0 1 4.369943-2.264834c1.643336-0.038908 3.37575 0.734126 4.456973 2.085654l12.894811 16.063737a5.569936 5.569936 0 0 1-0.855968 7.830675 5.577103 5.577103 0 0 1-3.485305 1.223543zM601.08519 554.096021a5.559697 5.559697 0 0 1-4.345369-2.08463l-8.365143-10.415986-7.137505 9.692099a5.578127 5.578127 0 0 1-7.786647 1.181563 5.573008 5.573008 0 0 1-1.181564-7.791767l11.43168-15.520054a5.583247 5.583247 0 0 1 4.36687-2.264834 5.62625 5.62625 0 0 1 4.460045 2.085654l12.897883 16.063737a5.569936 5.569936 0 0 1-0.855968 7.830675 5.574032 5.574032 0 0 1-3.484282 1.223543zM443.658726 596.076343a5.559697 5.559697 0 0 1-4.345369-2.08463l-8.365143-10.415985-7.137505 9.692098a5.578127 5.578127 0 0 1-7.786648 1.181564 5.573008 5.573008 0 0 1-1.181563-7.791768l11.431679-15.520053a5.583247 5.583247 0 0 1 4.366871-2.264835c1.762107-0.067576 3.377798 0.734126 4.460045 2.085655l12.897883 16.063737a5.569936 5.569936 0 0 1-0.854944 7.830674 5.575056 5.575056 0 0 1-3.485306 1.223543zM484.409362 596.076343a5.559697 5.559697 0 0 1-4.345369-2.08463l-8.365143-10.415985-7.137505 9.692098a5.578127 5.578127 0 0 1-7.786648 1.181564 5.573008 5.573008 0 0 1-1.181563-7.791768l11.431679-15.520053a5.583247 5.583247 0 0 1 4.366871-2.264835c1.666885-0.067576 3.377798 0.734126 4.460045 2.085655l12.897883 16.063737a5.569936 5.569936 0 0 1-0.854944 7.830674 5.575056 5.575056 0 0 1-3.485306 1.223543zM524.163758 596.076343a5.556626 5.556626 0 0 1-4.34537-2.08463l-8.362071-10.415985-7.140576 9.692098a5.580175 5.580175 0 0 1-7.788696 1.181564 5.573008 5.573008 0 0 1-1.178492-7.791768l11.434751-15.520053a5.584271 5.584271 0 0 1 4.369943-2.264835c1.594189-0.067576 3.373702 0.734126 4.456973 2.085655l12.894811 16.063737a5.569936 5.569936 0 0 1-0.855968 7.830674 5.575056 5.575056 0 0 1-3.485305 1.223543zM563.155359 596.076343a5.556626 5.556626 0 0 1-4.34537-2.08463l-8.362071-10.415985-7.140576 9.692098c-1.822516 2.473707-5.307822 2.99896-7.788696 1.181564a5.573008 5.573008 0 0 1-1.178492-7.791768l11.434751-15.520053a5.584271 5.584271 0 0 1 4.369943-2.264835c1.643336-0.067576 3.37575 0.734126 4.456973 2.085655l12.894811 16.063737a5.569936 5.569936 0 0 1-0.855968 7.830674 5.577103 5.577103 0 0 1-3.485305 1.223543zM601.08519 596.076343a5.559697 5.559697 0 0 1-4.345369-2.08463l-8.365143-10.415985-7.137505 9.692098a5.578127 5.578127 0 0 1-7.786647 1.181564 5.573008 5.573008 0 0 1-1.181564-7.791768l11.43168-15.520053a5.583247 5.583247 0 0 1 4.36687-2.264835c1.679172-0.067576 3.377798 0.734126 4.460045 2.085655l12.897883 16.063737a5.569936 5.569936 0 0 1-0.855968 7.830674 5.574032 5.574032 0 0 1-3.484282 1.223543zM443.658726 636.691827a5.554578 5.554578 0 0 1-4.345369-2.085655l-8.365143-10.421105-7.137505 9.692099a5.583247 5.583247 0 0 1-7.786648 1.181563 5.573008 5.573008 0 0 1-1.181563-7.791767l11.431679-15.520054a5.583247 5.583247 0 0 1 4.366871-2.264834c1.762107-0.019454 3.377798 0.729006 4.460045 2.085654l12.897883 16.068857a5.569936 5.569936 0 0 1-0.854944 7.830675 5.545363 5.545363 0 0 1-3.485306 1.224567zM404.711152 636.691827a5.561745 5.561745 0 0 1-4.347417-2.085655l-8.360023-10.421105-7.140577 9.692099a5.585294 5.585294 0 0 1-7.788695 1.181563 5.573008 5.573008 0 0 1-1.178492-7.791767l11.434751-15.520054a5.584271 5.584271 0 0 1 4.369943-2.264834c1.664838-0.019454 3.37575 0.729006 4.45902 2.085654l12.894812 16.068857a5.57096 5.57096 0 0 1-4.343322 9.055242zM638.389428 636.691827a5.561745 5.561745 0 0 1-4.347417-2.085655l-8.360023-10.421105-7.140577 9.692099c-1.822516 2.473707-5.312941 2.993841-7.788695 1.181563a5.573008 5.573008 0 0 1-1.178492-7.791767l11.434751-15.520054a5.584271 5.584271 0 0 1 4.369943-2.264834c1.684291-0.019454 3.37575 0.729006 4.460044 2.085654l12.894812 16.068857a5.57096 5.57096 0 0 1-4.344346 9.055242zM484.409362 636.691827a5.554578 5.554578 0 0 1-4.345369-2.085655l-8.365143-10.421105-7.137505 9.692099a5.583247 5.583247 0 0 1-7.786648 1.181563 5.573008 5.573008 0 0 1-1.181563-7.791767l11.431679-15.520054a5.583247 5.583247 0 0 1 4.366871-2.264834c1.666885-0.019454 3.377798 0.729006 4.460045 2.085654l12.897883 16.068857a5.569936 5.569936 0 0 1-0.854944 7.830675 5.545363 5.545363 0 0 1-3.485306 1.224567zM524.163758 636.691827a5.561745 5.561745 0 0 1-4.347417-2.085655l-8.360024-10.421105-7.140576 9.692099c-1.825588 2.473707-5.309869 2.993841-7.788696 1.181563a5.573008 5.573008 0 0 1-1.178492-7.791767l11.434751-15.520054a5.584271 5.584271 0 0 1 4.369943-2.264834c1.703745-0.019454 3.373702 0.729006 4.460044 2.085654l12.894812 16.068857a5.57096 5.57096 0 0 1-4.344345 9.055242zM563.155359 636.691827a5.561745 5.561745 0 0 1-4.347417-2.085655l-8.360024-10.421105-7.140576 9.692099c-1.822516 2.473707-5.307822 2.993841-7.788696 1.181563a5.573008 5.573008 0 0 1-1.178492-7.791767l11.434751-15.520054a5.584271 5.584271 0 0 1 4.369943-2.264834c1.74982-0.019454 3.37575 0.729006 4.460044 2.085654l12.894812 16.068857a5.57096 5.57096 0 0 1-4.344345 9.055242zM601.08519 636.691827a5.554578 5.554578 0 0 1-4.345369-2.085655l-8.365143-10.421105-7.137505 9.692099a5.583247 5.583247 0 0 1-7.786647 1.181563 5.573008 5.573008 0 0 1-1.181564-7.791767l11.43168-15.520054a5.583247 5.583247 0 0 1 4.36687-2.264834c1.679172-0.019454 3.377798 0.729006 4.460045 2.085654l12.897883 16.068857a5.569936 5.569936 0 0 1-4.34025 9.055242zM443.658726 679.91105a5.559697 5.559697 0 0 1-4.345369-2.084631l-8.365143-10.415985-7.137505 9.686979c-1.827635 2.478826-5.307822 2.993841-7.788695 1.181564a5.573008 5.573008 0 0 1-1.178492-7.791768l11.431679-15.514934a5.583247 5.583247 0 0 1 4.366871-2.264834c1.762107 0 3.377798 0.734126 4.460045 2.085654l12.897883 16.063737a5.569936 5.569936 0 0 1-0.854944 7.830675 5.580175 5.580175 0 0 1-3.48633 1.223543zM484.409362 679.91105a5.559697 5.559697 0 0 1-4.345369-2.084631l-8.365143-10.415985-7.137505 9.686979c-1.827635 2.478826-5.307822 2.993841-7.788696 1.181564a5.573008 5.573008 0 0 1-1.178492-7.791768l11.43168-15.514934a5.583247 5.583247 0 0 1 4.366871-2.264834c1.666885 0 3.377798 0.734126 4.460044 2.085654l12.897884 16.063737a5.569936 5.569936 0 0 1-0.854944 7.830675 5.580175 5.580175 0 0 1-3.48633 1.223543zM524.163758 679.91105a5.556626 5.556626 0 0 1-4.34537-2.084631l-8.362071-10.415985-7.140576 9.686979c-1.825588 2.478826-5.309869 2.993841-7.788696 1.181564a5.573008 5.573008 0 0 1-1.178492-7.791768l11.434751-15.514934a5.584271 5.584271 0 0 1 4.369943-2.264834c1.703745 0 3.373702 0.734126 4.456973 2.085654l12.894811 16.063737a5.569936 5.569936 0 0 1-0.855968 7.830675 5.575056 5.575056 0 0 1-3.485305 1.223543zM563.155359 679.91105a5.556626 5.556626 0 0 1-4.34537-2.084631l-8.362071-10.415985-7.140576 9.686979c-1.822516 2.478826-5.307822 2.993841-7.788696 1.181564a5.573008 5.573008 0 0 1-1.178492-7.791768l11.434751-15.514934a5.584271 5.584271 0 0 1 4.369943-2.264834c1.74982 0 3.37575 0.734126 4.456973 2.085654l12.894811 16.063737a5.569936 5.569936 0 0 1-0.855968 7.830675 5.577103 5.577103 0 0 1-3.485305 1.223543zM601.08519 679.91105a5.559697 5.559697 0 0 1-4.345369-2.084631l-8.365143-10.415985-7.137505 9.686979c-1.827635 2.478826-5.307822 2.993841-7.788695 1.181564a5.573008 5.573008 0 0 1-1.178492-7.791768l11.431679-15.514934a5.583247 5.583247 0 0 1 4.366871-2.264834c1.679172 0 3.377798 0.734126 4.460045 2.085654l12.897883 16.063737a5.569936 5.569936 0 0 1-0.855968 7.830675 5.579151 5.579151 0 0 1-3.485306 1.223543zM443.658726 721.673285a5.559697 5.559697 0 0 1-4.345369-2.084631l-8.365143-10.415985-7.137505 9.692098a5.583247 5.583247 0 0 1-7.786648 1.181564 5.573008 5.573008 0 0 1-1.181563-7.791768l11.431679-15.520053a5.583247 5.583247 0 0 1 4.366871-2.264835c1.762107 0.082935 3.377798 0.734126 4.460045 2.084631l12.897883 16.063737a5.569936 5.569936 0 0 1-0.854944 7.830675 5.569936 5.569936 0 0 1-3.485306 1.224567zM484.409362 721.673285a5.559697 5.559697 0 0 1-4.345369-2.084631l-8.365143-10.415985-7.137505 9.692098a5.583247 5.583247 0 0 1-7.786648 1.181564 5.573008 5.573008 0 0 1-1.181563-7.791768l11.431679-15.520053a5.583247 5.583247 0 0 1 4.366871-2.264835c1.666885 0.082935 3.377798 0.734126 4.460045 2.084631l12.897883 16.063737a5.569936 5.569936 0 0 1-0.854944 7.830675 5.569936 5.569936 0 0 1-3.485306 1.224567zM524.163758 721.673285a5.556626 5.556626 0 0 1-4.34537-2.084631l-8.362071-10.415985-7.140576 9.692098c-1.825588 2.473707-5.309869 2.993841-7.788696 1.181564a5.573008 5.573008 0 0 1-1.178492-7.791768l11.434751-15.520053a5.584271 5.584271 0 0 1 4.369943-2.264835c1.594189 0.082935 3.373702 0.734126 4.456973 2.084631l12.894811 16.063737a5.569936 5.569936 0 0 1-4.341273 9.055242zM563.155359 721.673285a5.556626 5.556626 0 0 1-4.34537-2.084631l-8.362071-10.415985-7.140576 9.692098c-1.822516 2.473707-5.307822 2.993841-7.788696 1.181564a5.573008 5.573008 0 0 1-1.178492-7.791768l11.434751-15.520053a5.584271 5.584271 0 0 1 4.369943-2.264835c1.643336 0.082935 3.37575 0.734126 4.456973 2.084631l12.894811 16.063737a5.569936 5.569936 0 0 1-4.341273 9.055242zM601.08519 721.673285a5.559697 5.559697 0 0 1-4.345369-2.084631l-8.365143-10.415985-7.137505 9.692098a5.583247 5.583247 0 0 1-7.786647 1.181564 5.573008 5.573008 0 0 1-1.181564-7.791768l11.43168-15.520053a5.583247 5.583247 0 0 1 4.36687-2.264835c1.679172 0.082935 3.377798 0.734126 4.460045 2.084631l12.897883 16.063737a5.569936 5.569936 0 0 1-4.34025 9.055242zM484.409362 761.388772a5.556626 5.556626 0 0 1-4.345369-2.08463l-8.365143-10.421105-7.137505 9.692099c-1.827635 2.478826-5.312941 2.993841-7.786648 1.181563a5.573008 5.573008 0 0 1-1.181563-7.791767l11.431679-15.520054a5.583247 5.583247 0 0 1 4.366871-2.264834c1.666885 0.058361 3.377798 0.734126 4.460045 2.08463l12.897883 16.068857a5.569936 5.569936 0 0 1-0.854944 7.830675 5.53922 5.53922 0 0 1-3.485306 1.224566zM524.163758 761.388772a5.563793 5.563793 0 0 1-4.347417-2.08463l-8.360024-10.421105-7.140576 9.692099c-1.825588 2.478826-5.309869 2.993841-7.788696 1.181563a5.573008 5.573008 0 0 1-1.178492-7.791767l11.434751-15.520054a5.584271 5.584271 0 0 1 4.369943-2.264834c1.703745 0.058361 3.373702 0.734126 4.460044 2.08463l12.894812 16.068857a5.57096 5.57096 0 0 1-4.344345 9.055241zM563.155359 761.388772a5.563793 5.563793 0 0 1-4.347417-2.08463l-8.360024-10.421105-7.140576 9.692099c-1.822516 2.478826-5.307822 2.993841-7.788696 1.181563a5.573008 5.573008 0 0 1-1.178492-7.791767l11.434751-15.520054a5.584271 5.584271 0 0 1 4.369943-2.264834c1.74982 0.058361 3.37575 0.734126 4.460044 2.08463l12.894812 16.068857a5.57096 5.57096 0 0 1-4.344345 9.055241zM484.409362 519.941255a5.554578 5.554578 0 0 1-4.345369-2.085655l-8.365143-10.421105-7.137505 9.692099a5.583247 5.583247 0 0 1-7.786648 1.181563 5.573008 5.573008 0 0 1-1.181563-7.791767l11.431679-15.520054a5.583247 5.583247 0 0 1 4.366871-2.264834c1.666885-0.063481 3.377798 0.734126 4.460045 2.085654l12.897883 16.068857a5.569936 5.569936 0 0 1-0.854944 7.830675 5.53922 5.53922 0 0 1-3.485306 1.224567zM524.163758 519.941255a5.561745 5.561745 0 0 1-4.347417-2.085655l-8.360024-10.421105-7.140576 9.692099c-1.825588 2.473707-5.309869 2.993841-7.788696 1.181563a5.573008 5.573008 0 0 1-1.178492-7.791767l11.434751-15.520054a5.584271 5.584271 0 0 1 4.369943-2.264834c1.703745-0.063481 3.373702 0.734126 4.460044 2.085654l12.894812 16.068857a5.57096 5.57096 0 0 1-4.344345 9.055242zM563.155359 519.941255a5.561745 5.561745 0 0 1-4.347417-2.085655l-8.360024-10.421105-7.140576 9.692099c-1.822516 2.473707-5.307822 2.993841-7.788696 1.181563a5.573008 5.573008 0 0 1-1.178492-7.791767l11.434751-15.520054a5.584271 5.584271 0 0 1 4.369943-2.264834c1.74982-0.063481 3.37575 0.734126 4.460044 2.085654l12.894812 16.068857a5.57096 5.57096 0 0 1-4.344345 9.055242zM558.343098 458.033052h-21.986914a7.154911 7.154911 0 1 1 0-14.309821h21.986914a7.154911 7.154911 0 1 1 0 14.309821z" fill="#404041" /><path d="M415.724063 501.293231a118.331451 118.331451 0 0 1 32.701873-25.889964h125.186363a118.271042 118.271042 0 0 1 32.699826 25.886893c25.507031 28.847969 38.989553 71.486649 38.989553 123.306509 0 8.178796-0.337882 16.127218-1.003407 23.828883h11.743964c0.638904-7.725215 0.969619-15.669541 0.96962-23.828883 0-54.721551-14.498216-100.040763-41.930152-131.065512a129.961764 129.961764 0 0 0-37.305262-29.172541 5.854576 5.854576 0 0 0-2.709201-0.664502H446.970995c-0.942998 0-1.87371 0.228326-2.7092 0.664502a130.041627 130.041627 0 0 0-37.30219 29.170493c-13.395492 15.113571-23.703969 33.640776-30.75854 54.998h12.371607c6.492457-18.289664 15.582511-34.182412 27.151391-47.233878z" fill="#404041" /><path d="M498.029085 788.475659c-31.50188-2.432752-61.090118-16.909466-82.30707-40.579647-25.546963-28.818276-39.049962-71.453885-39.049962-123.299343 0-17.876014 1.606476-34.657494 4.757995-50.155022h-11.922121c-3.005103 15.616299-4.545027 32.385493-4.545027 50.155022 0 54.752268 14.521766 100.074552 42.018206 131.09111 23.454141 26.166413 56.218472 42.067352 91.047979 44.522629v-11.734749zM640.627642 674.341114c-5.962084 29.627146-17.552466 54.579231-34.355448 73.531348-21.233334 23.690659-50.847169 38.171469-82.328572 40.603197v11.740893c34.826435-2.447086 67.596909-18.364407 91.068457-44.552322 18.635737-21.022413 31.305294-48.644792 37.532564-81.32414H640.627642z" fill="#404041" /><path d="M649.544659 658.243589c-0.325596 0-0.65631-0.029693-0.989073-0.087031a5.849457 5.849457 0 0 1-4.789736-6.751499l0.928664-5.458333a5.838194 5.838194 0 0 1 6.753548-4.787688 5.849457 5.849457 0 0 1 4.789735 6.7515l-0.928664 5.458333a5.86072 5.86072 0 0 1-5.764474 4.874718zM645.972323 684.174508c-0.325596 0-0.65631-0.029693-0.989073-0.08703a5.849457 5.849457 0 0 1-4.789736-6.7515l0.928664-5.458332c0.541635-3.183259 3.550834-5.34161 6.753548-4.787688a5.849457 5.849457 0 0 1 4.789735 6.7515l-0.928664 5.458332a5.86072 5.86072 0 0 1-5.764474 4.874718z" fill="#404041" /><path d="M648.711216 663.214552m-3.095205 0a3.095205 3.095205 0 1 0 6.190411 0 3.095205 3.095205 0 1 0-6.190411 0Z" fill="#404041" /><path d="M502.60278 800.409042c-0.072696 0-0.143344-0.005119-0.216039-0.005119l-5.531029-0.199658a5.856624 5.856624 0 0 1-5.638536-6.061401c0.114675-3.237525 2.841282-5.686659 6.061401-5.642632l5.531028 0.199658a5.856624 5.856624 0 0 1-0.206825 11.709152zM522.542947 800.491977a5.852529 5.852529 0 0 1-5.847409-5.866863 5.8556 5.8556 0 0 1 5.037516-5.789048l5.484954-0.773033a5.846385 5.846385 0 0 1 6.612251 4.982226 5.8556 5.8556 0 0 1-4.979154 6.615323l-5.484954 0.773033c-0.276449 0.038908-0.55085 0.058361-0.823204 0.058362z" fill="#404041" /><path d="M512.752556 794.888253m-3.095206 0a3.095205 3.095205 0 1 0 6.190411 0 3.095205 3.095205 0 1 0-6.190411 0Z" fill="#404041" /><path d="M424.284768 517.228982h-19.575663a7.154911 7.154911 0 1 1 0-14.309821h19.575663a7.154911 7.154911 0 1 1 0 14.309821zM642.557666 587.482874h-20.669174a7.154911 7.154911 0 1 1 0-14.309821h20.669174a7.154911 7.154911 0 1 1 0 14.309821zM640.389076 698.07068h-16.334042a7.154911 7.154911 0 1 1 0-14.309821h16.334042a7.154911 7.154911 0 1 1 0 14.309821z" fill="#404041" /></svg>