<?xml version="1.0" encoding="utf-8"?>

<svg width="800px" height="800px" viewBox="0 0 1024 1024" class="icon"  version="1.1" xmlns="http://www.w3.org/2000/svg"><path d="M361.44995 335.176028s14.763402-29.527829 48.178924-26.420337c33.414498 3.107492 231.569072-0.228326 231.569072-0.228326s-115.784024 43.419905-51.28744 329.547731l35.560561 97.29675h-258.582239s-78.133713-194.141968-34.404594-343.793047l28.965716-56.402771z" fill="#F26E3F" /><path d="M365.705217 334.187979s-32.788904 29.03534-34.490601 66.241285l17.2453 1.438559s17.896492-28.19985 18.547683-28.633977c0.650167-0.434127 17.570896-22.994417 17.570896-22.994417l-18.005023-16.052474M588.170925 573.954277s25.121026 52.261155 52.207913 68.289056c0 0-43.433215 5.245365-44.30659 4.953557s-16.651447-62.596253-16.789672-63.44915c-0.139248-0.852896 0-17.117315 0-17.117315l8.888349 7.323852z" fill="#F26E3F" /><path d="M571.558385 478.885501a165.203897 91.228182 90 1 0 182.456365 0 165.203897 91.228182 90 1 0-182.456365 0Z" fill="#F2C928" /><path d="M860.112819 241.937959c-6.122834 0-11.101989-4.980178-11.101988-11.103013 0-6.12181 4.979154-11.101989 11.101988-11.101988 6.122834 0 11.101989 4.980178 11.101989 11.101988 0 6.123858-4.979154 11.103012-11.101989 11.103013m0-33.305966c-12.262051 0-22.203977 9.941927-22.203977 22.203977 0 12.263075 9.941927 22.205001 22.203977 22.205001 12.262051 0 22.203977-9.941927 22.203978-22.205001-0.001024-12.262051-9.94295-22.203977-22.203978-22.203977M726.212168 741.524373c-6.122834 0-11.101989-4.980178-11.101988-11.103012 0-6.12181 4.979154-11.101989 11.101988-11.101989s11.101989 4.980178 11.101989 11.101989c0 6.122834-4.979154 11.103012-11.101989 11.103012m0-33.306989c-12.262051 0-22.203977 9.941927-22.203977 22.203977 0 12.263075 9.941927 22.205001 22.203977 22.205001s22.203977-9.941927 22.203977-22.205001c0-12.262051-9.941927-22.203977-22.203977-22.203977M184.401747 533.052106c-6.122834 0-11.101989-4.980178-11.101989-11.103012 0-6.12181 4.979154-11.101989 11.101989-11.101989 6.122834 0 11.101989 4.980178 11.101989 11.101989 0 6.122834-4.979154 11.103012-11.101989 11.103012m0-33.306989c-12.262051 0-22.203977 9.941927-22.203977 22.203977 0 12.263075 9.941927 22.205001 22.203977 22.205001 12.262051 0 22.203977-9.941927 22.203977-22.205001 0-12.262051-9.941927-22.203977-22.203977-22.203977M214.454829 284.711792l11.796183-11.795159c2.120467-2.115347 2.148111-5.662086-0.021502-7.826579a5.512599 5.512599 0 0 0-7.826579-0.022526l-11.796183 11.795159-11.796183-11.795159c-2.115347-2.119443-5.662086-2.149135-7.826579 0.022526a5.512599 5.512599 0 0 0-0.021502 7.826579l11.796183 11.795159-11.796183 11.795159c-2.120467 2.115347-2.148111 5.662086 0.021502 7.82658a5.510551 5.510551 0 0 0 7.826579 0.022525l11.796183-11.795159 11.796183 11.795159c2.115347 2.12149 5.655943 2.149135 7.826579-0.022525a5.512599 5.512599 0 0 0 0.021502-7.82658l-11.796183-11.795159zM889.224951 535.512503l11.796183-11.795159c2.120467-2.115347 2.148111-5.662086-0.021502-7.82658a5.512599 5.512599 0 0 0-7.826579-0.022525l-11.796183 11.795159-11.796183-11.795159c-2.115347-2.119443-5.662086-2.149135-7.826579 0.022525a5.512599 5.512599 0 0 0-0.021502 7.82658l11.796183 11.795159-11.796183 11.795159c-2.120467 2.115347-2.148111 5.662086 0.021502 7.826579a5.510551 5.510551 0 0 0 7.826579 0.022525l11.796183-11.795159 11.796183 11.795159c2.115347 2.12149 5.655943 2.149135 7.826579-0.022525a5.512599 5.512599 0 0 0 0.021502-7.826579l-11.796183-11.795159zM250.466924 766.320828l11.796183-11.795159c2.120467-2.115347 2.148111-5.662086-0.021502-7.826579a5.512599 5.512599 0 0 0-7.826579-0.022526l-11.796183 11.795159-11.796183-11.795159c-2.115347-2.119443-5.662086-2.149135-7.82658 0.022526a5.512599 5.512599 0 0 0-0.021501 7.826579l11.796183 11.795159-11.796183 11.795159c-2.120467 2.115347-2.148111 5.662086 0.021501 7.826579a5.510551 5.510551 0 0 0 7.82658 0.022526l11.796183-11.795159 11.796183 11.795159c2.115347 2.12149 5.655943 2.149135 7.826579-0.022526a5.512599 5.512599 0 0 0 0.021502-7.826579l-11.796183-11.795159zM450.303742 253.734142a5.53922 5.53922 0 0 0 5.550482-5.551506 5.536148 5.536148 0 0 0-5.550482-5.551507 5.538196 5.538196 0 0 0-5.550482 5.551507 5.535124 5.535124 0 0 0 5.550482 5.551506M737.431904 274.550754a5.53922 5.53922 0 0 0 5.550482-5.551506 5.536148 5.536148 0 0 0-5.550482-5.551506 5.538196 5.538196 0 0 0-5.550483 5.551506 5.5341 5.5341 0 0 0 5.550483 5.551506M816.956053 484.437007a5.53922 5.53922 0 0 0 5.550482-5.551506 5.536148 5.536148 0 0 0-5.550482-5.551506 5.538196 5.538196 0 0 0-5.550482 5.551506 5.535124 5.535124 0 0 0 5.550482 5.551506M185.341674 419.569776a5.53922 5.53922 0 0 0 5.550482-5.551506 5.536148 5.536148 0 0 0-5.550482-5.551506 5.538196 5.538196 0 0 0-5.550483 5.551506 5.535124 5.535124 0 0 0 5.550483 5.551506M251.755995 577.733438a5.53922 5.53922 0 0 0 5.550483-5.551506 5.536148 5.536148 0 0 0-5.550483-5.551507 5.538196 5.538196 0 0 0-5.550482 5.551507 5.535124 5.535124 0 0 0 5.550482 5.551506M123.692514 659.282832a5.53922 5.53922 0 0 0 5.550483-5.551506 5.536148 5.536148 0 0 0-5.550483-5.551506 5.538196 5.538196 0 0 0-5.550482 5.551506 5.5341 5.5341 0 0 0 5.550482 5.551506M68.674037 558.343098a5.53922 5.53922 0 0 0 5.550482-5.551507 5.536148 5.536148 0 0 0-5.550482-5.551506 5.538196 5.538196 0 0 0-5.550483 5.551506 5.5341 5.5341 0 0 0 5.550483 5.551507M412.05753 787.584878a5.53922 5.53922 0 0 0 5.550482-5.551506 5.536148 5.536148 0 0 0-5.550482-5.551506 5.538196 5.538196 0 0 0-5.550483 5.551506 5.535124 5.535124 0 0 0 5.550483 5.551506M105.652679 248.183659a5.53922 5.53922 0 0 0 5.550482-5.551506 5.536148 5.536148 0 0 0-5.550482-5.551506 5.538196 5.538196 0 0 0-5.550482 5.551506 5.5341 5.5341 0 0 0 5.550482 5.551506" fill="#404041" /><path d="M854.048347 392.296543a2.915002 2.915002 0 0 1-2.913978-2.913978v-12.12485a2.915002 2.915002 0 0 1 5.827955 0v12.12485a2.916025 2.916025 0 0 1-2.913977 2.913978z" fill="#404041" /><path d="M860.112819 386.234118h-12.12485a2.915002 2.915002 0 0 1 0-5.827955h12.12485a2.915002 2.915002 0 0 1 0 5.827955z" fill="#404041" /><path d="M303.849233 223.670821a2.915002 2.915002 0 0 1-2.913978-2.913978v-12.12485a2.915002 2.915002 0 0 1 5.827956 0v12.12485a2.915002 2.915002 0 0 1-2.913978 2.913978z" fill="#404041" /><path d="M309.91473 217.608396H297.78988a2.915002 2.915002 0 0 1 0-5.827955h12.12485a2.915002 2.915002 0 0 1 0 5.827955z" fill="#404041" /><path d="M257.816373 422.993649a2.915002 2.915002 0 0 1-2.913978-2.913978v-12.12485a2.915002 2.915002 0 0 1 5.827955 0v12.12485a2.915002 2.915002 0 0 1-2.913977 2.913978z" fill="#404041" /><path d="M263.881869 416.931224H251.755995a2.915002 2.915002 0 0 1 0-5.827956h12.12485a2.915002 2.915002 0 0 1 0.001024 5.827956z" fill="#404041" /><path d="M251.755995 650.582879a2.916025 2.916025 0 0 1-2.913977-2.913978v-12.12485a2.916025 2.916025 0 0 1 2.913977-2.913978 2.916025 2.916025 0 0 1 2.913978 2.913978v12.12485a2.916025 2.916025 0 0 1-2.913978 2.913978z" fill="#404041" /><path d="M257.816373 644.522501h-12.12485a2.916025 2.916025 0 0 1-2.913978-2.913977 2.916025 2.916025 0 0 1 2.913978-2.913978h12.12485a2.916025 2.916025 0 0 1 2.913977 2.913978 2.916025 2.916025 0 0 1-2.913977 2.913977z" fill="#404041" /><path d="M80.287968 775.299278a2.916025 2.916025 0 0 1-2.913978-2.913977v-12.12485a2.916025 2.916025 0 0 1 2.913978-2.913978 2.916025 2.916025 0 0 1 2.913977 2.913978v12.12485a2.916025 2.916025 0 0 1-2.913977 2.913977z" fill="#404041" /><path d="M86.348345 769.233782H74.223495a2.916025 2.916025 0 0 1-2.913978-2.913978 2.916025 2.916025 0 0 1 2.913978-2.913977h12.12485a2.916025 2.916025 0 0 1 2.913978 2.913977 2.916025 2.916025 0 0 1-2.913978 2.913978z" fill="#404041" /><path d="M80.287968 422.993649a2.915002 2.915002 0 0 1-2.913978-2.913978v-12.12485a2.915002 2.915002 0 0 1 5.827955 0v12.12485a2.915002 2.915002 0 0 1-2.913977 2.913978z" fill="#404041" /><path d="M86.348345 416.931224H74.223495a2.915002 2.915002 0 0 1 0-5.827956h12.12485a2.915002 2.915002 0 0 1 0 5.827956z" fill="#404041" /><path d="M612.619259 223.670821a2.915002 2.915002 0 0 1-2.913978-2.913978v-12.12485a2.915002 2.915002 0 0 1 5.827955 0v12.12485a2.915002 2.915002 0 0 1-2.913977 2.913978z" fill="#404041" /><path d="M618.679636 217.608396h-12.12485a2.915002 2.915002 0 0 1 0-5.827955h12.12485a2.915002 2.915002 0 0 1 0 5.827955z" fill="#404041" /><path d="M946.34137 317.502744a2.915002 2.915002 0 0 1-2.913978-2.913978v-12.12485a2.915002 2.915002 0 0 1 5.827955 0v12.12485a2.916025 2.916025 0 0 1-2.913977 2.913978z" fill="#404041" /><path d="M952.401747 311.440319h-12.12485a2.915002 2.915002 0 0 1 0-5.827956h12.12485a2.915002 2.915002 0 0 1 0 5.827956z" fill="#404041" /><path d="M946.34137 656.647351a2.916025 2.916025 0 0 1-2.913978-2.913977v-12.12485c0-1.6075 1.306478-2.913978 2.913978-2.913978s2.913978 1.306478 2.913977 2.913978v12.12485a2.917049 2.917049 0 0 1-2.913977 2.913977z" fill="#404041" /><path d="M952.401747 650.582879h-12.12485a2.916025 2.916025 0 0 1-2.913978-2.913978 2.916025 2.916025 0 0 1 2.913978-2.913978h12.12485a2.916025 2.916025 0 0 1 2.913978 2.913978 2.917049 2.917049 0 0 1-2.913978 2.913978z" fill="#404041" /><path d="M790.617627 650.582879a2.916025 2.916025 0 0 1-2.913978-2.913978v-12.12485a2.916025 2.916025 0 0 1 2.913978-2.913978 2.916025 2.916025 0 0 1 2.913977 2.913978v12.12485a2.916025 2.916025 0 0 1-2.913977 2.913978z" fill="#404041" /><path d="M796.678004 644.522501h-12.12485a2.916025 2.916025 0 0 1-2.913978-2.913977 2.916025 2.916025 0 0 1 2.913978-2.913978h12.12485a2.916025 2.916025 0 0 1 2.913978 2.913978 2.917049 2.917049 0 0 1-2.913978 2.913977z" fill="#404041" /><path d="M847.987969 813.623306a2.916025 2.916025 0 0 1-2.913977-2.913977v-12.12485a2.916025 2.916025 0 0 1 2.913977-2.913978 2.916025 2.916025 0 0 1 2.913978 2.913978v12.12485a2.917049 2.917049 0 0 1-2.913978 2.913977z" fill="#404041" /><path d="M854.048347 807.558833H841.923497c-1.6075 0-2.913978-1.306478-2.913978-2.913977s1.306478-2.913978 2.913978-2.913978h12.12485c1.6075 0 2.913978 1.306478 2.913977 2.913978s-1.307502 2.913978-2.913977 2.913977z" fill="#404041" /><path d="M571.558385 806.539044a2.916025 2.916025 0 0 1-2.913977-2.913978v-12.12485a2.916025 2.916025 0 0 1 2.913977-2.913978 2.916025 2.916025 0 0 1 2.913978 2.913978v12.12485a2.916025 2.916025 0 0 1-2.913978 2.913978z" fill="#404041" /><path d="M577.618763 800.473547h-12.12485c-1.6075 0-2.913978-1.306478-2.913978-2.913978s1.306478-2.913978 2.913978-2.913977h12.12485c1.6075 0 2.913978 1.306478 2.913977 2.913977s-1.306478 2.913978-2.913977 2.913978z" fill="#404041" /><path d="M663.029229 304.121586H410.87187c-19.322764 0-37.881709 9.969571-53.673092 28.830563a6.260035 6.260035 0 1 0 9.599949 8.034429c13.333035-15.930632 28.574592-24.349017 44.074167-24.349017H626.399731c-35.425408 25.397475-59.855312 86.936055-59.855312 160.633273 0 6.649111 0.217064 13.187643 0.604092 19.620714 3.400323 127.428672 35.052714 204.718704 47.493945 230.367031h-20.508423c-52.90825-52.862175-50.950582-214.85824-50.923961-216.507719a6.261059 6.261059 0 0 0-6.156622-6.360376c-3.303054 0.058361-6.302014 2.702033-6.358328 6.156623-0.10546 6.613275-1.865519 153.704641 46.857088 216.711472H399.892748c-16.698546-27.08791-27.320332-96.349657-27.428864-97.0674-0.51911-3.413634-3.704417-5.725567-7.124194-5.255604a6.26413 6.26413 0 0 0-5.25458 7.121123c0.430032 2.835138 9.67674 63.073384 25.57768 95.201881h-15.765786c-60.717424-161.367399-40.41173-289.672517-40.091254-291.616875 0.010239-0.061433 0.020478-0.122866 0.028669-0.182251 1.803062-12.623482 4.429328-24.827171 7.809173-36.276258a6.255939 6.255939 0 0 0-4.22967-7.774361 6.256963 6.256963 0 0 0-7.774362 4.22967c-3.547763 12.016318-6.307134 24.812837-8.178796 37.905259-0.224231 1.33617-21.570192 135.656614 42.277249 302.214088a6.253892 6.253892 0 0 0 5.84229 4.017726h259.377798a6.266178 6.266178 0 0 0 5.424544-3.14128 6.255939 6.255939 0 0 0-0.020478-6.272322c-0.281568-0.48225-15.776025-27.721695-29.613835-79.939846h62.280897c27.433983 0 53.559441-20.674292 71.682211-56.722223a6.260035 6.260035 0 0 0-2.780872-8.402003c-3.08599-1.559377-6.850817-0.308189-8.404051 2.779848-15.918345 31.667749-37.966692 49.827379-60.497288 49.82738-42.901819 0-78.365111-61.884653-83.346313-141.427233-0.195562-7.186651-0.332763-14.473643-0.332763-21.977698 0-0.553922-0.094197-1.084295-0.230374-1.597261 1.215352-86.554146 38.374198-156.266402 83.908426-156.266402 46.301118 0 83.967812 72.063097 83.967811 160.633273 0 19.744605-1.880877 39.0387-5.58939 57.344745a6.255939 6.255939 0 0 0 4.891101 7.375046 6.251844 6.251844 0 0 0 7.377093-4.889052c3.874382-19.122082 5.838194-39.254739 5.838195-59.830739 0.001024-97.094021-42.380661-173.148223-96.483786-173.148224z m-36.629498 333.784569h-28.828515c-3.696226-15.377734-7.162078-32.649655-10.064793-51.736926 10.143632 22.781448 23.472571 40.679988 38.893308 51.736926z" fill="#404041" /><path d="M666.975283 407.374278c-20.765418 0-37.032908 28.142512-37.032909 64.0686 0 35.925064 16.26749 64.069624 37.032909 64.069625s37.032908-28.14456 37.032908-64.069625c0.001024-35.924041-16.266466-64.0686-37.032908-64.0686z" fill="#404041" /><path d="M666.975283 525.076039c-14.417329 0-26.596445-24.560961-26.596445-53.633161 0-29.070152 12.179116-53.631113 26.596445-53.631113s26.598493 24.561985 26.598493 53.631113c0 29.0722-12.181164 53.633161-26.598493 53.633161z" fill="#33B88C" /><path d="M375.190491 400.430288h36.15851a6.259011 6.259011 0 0 0 0-12.516998h-36.15851a6.259011 6.259011 0 1 0 0 12.516998zM721.960996 566.630425h19.84085a6.256963 6.256963 0 0 0 6.257987-6.257987 6.256963 6.256963 0 0 0-6.257987-6.257987h-19.84085a6.257987 6.257987 0 0 0 0 12.515974zM346.623066 374.949878l10.352505-16.925849a6.259011 6.259011 0 0 0-10.6781-6.531364l-10.352505 16.925848a6.259011 6.259011 0 0 0 10.6781 6.531365zM473.933991 400.430288a6.259011 6.259011 0 0 0 0-12.516998h-36.159534a6.259011 6.259011 0 0 0 0 12.516998h36.159534zM536.518982 400.430288a6.260035 6.260035 0 0 0 0-12.516998h-36.159534a6.259011 6.259011 0 0 0 0 12.516998h36.159534z" fill="#404041" /><path d="M364.405907 610.188555m-6.119763 0a6.119763 6.119763 0 1 0 12.239525 0 6.119763 6.119763 0 1 0-12.239525 0Z" fill="#404041" /><path d="M536.685875 491.283728m-6.119762 0a6.119763 6.119763 0 1 0 12.239525 0 6.119763 6.119763 0 1 0-12.239525 0Z" fill="#404041" /><path d="M644.446734 345.052426h-34.645208c-2.253572 0-4.079159-1.825588-4.079159-4.079159s1.825588-4.079159 4.079159-4.079159h34.645208c2.253572 0 4.079159 1.825588 4.079159 4.079159s-1.825588 4.079159-4.079159 4.079159zM623.524661 382.021854h-34.645207a4.078135 4.078135 0 0 1-4.07916-4.07916 4.078135 4.078135 0 0 1 4.07916-4.079159h34.645207a4.078135 4.078135 0 0 1 4.079159 4.079159 4.078135 4.078135 0 0 1-4.079159 4.07916zM609.801526 434.80519h-34.645208c-2.253572 0-4.079159-1.825588-4.079159-4.079159s1.825588-4.079159 4.079159-4.079159h34.645208c2.253572 0 4.079159 1.825588 4.079159 4.079159s-1.825588 4.079159-4.079159 4.079159zM606.203593 482.965684h-34.645208a4.078135 4.078135 0 0 1-4.079159-4.079159 4.078135 4.078135 0 0 1 4.079159-4.079159h34.645208a4.078135 4.078135 0 0 1 4.079159 4.079159 4.077111 4.077111 0 0 1-4.079159 4.079159zM606.203593 529.156223h-34.645208a4.078135 4.078135 0 0 1-4.079159-4.07916 4.078135 4.078135 0 0 1 4.079159-4.079159h34.645208a4.078135 4.078135 0 0 1 4.079159 4.079159 4.077111 4.077111 0 0 1-4.079159 4.07916zM627.12157 585.171965h-34.645207c-2.253572 0-4.079159-1.825588-4.079159-4.079159s1.825588-4.079159 4.079159-4.07916h34.645207c2.253572 0 4.079159 1.825588 4.07916 4.07916s-1.825588 4.079159-4.07916 4.079159zM647.264466 620.386453h-34.645207c-2.253572 0-4.079159-1.825588-4.079159-4.079159s1.825588-4.079159 4.079159-4.07916h34.645207c2.253572 0 4.079159 1.825588 4.07916 4.07916s-1.824564 4.079159-4.07916 4.079159z" fill="#404041" /><path d="M666.976307 495.30555c-6.415665 0-11.834067-10.927928-11.834067-23.861648s5.418401-23.861647 11.834067-23.861647c6.414642 0 11.834067 10.927928 11.834066 23.861647s-5.419425 23.861647-11.834066 23.861648z" fill="#F9F7F7" /><path d="M666.975283 499.384709c-8.924184 0-15.913226-12.273313-15.913226-27.940807 0-15.669541 6.989041-27.942854 15.913226-27.942854s15.913226 12.273313 15.913225 27.942854c0 15.667493-6.989041 27.940807-15.913225 27.940807z m0-47.724319c-2.731726 0-7.753884 7.510199-7.753884 19.783512 0 12.271266 5.022158 19.781464 7.753884 19.781465s7.753884-7.510199 7.753883-19.781465c0-12.27229-5.022158-19.783512-7.753883-19.783512z" fill="#404041" /></svg>