<?xml version="1.0" encoding="utf-8"?>

<svg width="800px" height="800px" viewBox="0 0 1024 1024" class="icon"  version="1.1" xmlns="http://www.w3.org/2000/svg"><path d="M683.142432 605.902571c0 102.153039-76.127922 184.964884-170.035612 184.964884s-170.035612-82.811845-170.035612-184.964884h340.071224z" fill="#F26E3F" /><path d="M126.903419 361.183739c-5.914986 0-10.725199-4.811237-10.725199-10.726222 0-5.913962 4.810213-10.725199 10.725199-10.725199 5.914986 0 10.725199 4.811237 10.725199 10.725199 0 5.914986-4.810213 10.726223-10.725199 10.726222m0-32.17662c-11.845329 0-21.450398 9.604044-21.450398 21.450398 0 11.846353 9.604044 21.451421 21.450398 21.451421 11.845329 0 21.450398-9.605068 21.450397-21.451421 0-11.845329-9.604044-21.450398-21.450397-21.450398M238.705553 550.334267c-5.914986 0-10.725199-4.811237-10.725199-10.726223 0-5.913962 4.810213-10.725199 10.725199-10.725199 5.914986 0 10.725199 4.811237 10.725199 10.725199 0 5.914986-4.810213 10.726223-10.725199 10.726223m0-32.176621c-11.845329 0-21.450398 9.604044-21.450398 21.450398 0 11.846353 9.605068 21.451421 21.450398 21.451421 11.845329 0 21.450398-9.604044 21.450398-21.451421 0-11.846353-9.605068-21.450398-21.450398-21.450398M94.727822 725.539476c-5.914986 0-10.725199-4.811237-10.725198-10.726223 0-5.913962 4.810213-10.725199 10.725198-10.725199 5.914986 0 10.725199 4.811237 10.725199 10.725199 0 5.914986-4.809189 10.726223-10.725199 10.726223m0-32.176621c-11.845329 0-21.450398 9.604044-21.450397 21.450398 0 11.846353 9.605068 21.451421 21.450397 21.451421 11.845329 0 21.450398-9.604044 21.450398-21.451421 0-11.845329-9.604044-21.450398-21.450398-21.450398M115.271058 617.154047a5.346729 5.346729 0 0 0 5.362087-5.362088 5.347753 5.347753 0 0 0-5.362087-5.364135 5.347753 5.347753 0 0 0-5.363112 5.364135 5.348777 5.348777 0 0 0 5.363112 5.362088M267.737821 310.420529l11.395844-11.39482c2.048795-2.043675 2.075416-5.469595-0.020478-7.561393a5.327275 5.327275 0 0 0-7.561393-0.022525l-11.395843 11.394819-11.395844-11.394819c-2.042651-2.047771-5.469595-2.076439-7.561393 0.022525a5.326251 5.326251 0 0 0-0.020478 7.561393l11.395844 11.39482-11.395844 11.39482c-2.048795 2.042651-2.075416 5.469595 0.020478 7.561393a5.325228 5.325228 0 0 0 7.561393 0.022525l11.395844-11.394819 11.395843 11.394819c2.042651 2.049818 5.464476 2.076439 7.561393-0.022525a5.326251 5.326251 0 0 0 0.020478-7.561393l-11.395844-11.39482zM302.528421 775.688355l11.395843-11.39482c2.048795-2.043675 2.075416-5.469595-0.020477-7.561393a5.326251 5.326251 0 0 0-7.561393-0.021502l-11.395844 11.39482-11.395844-11.39482c-2.043675-2.047771-5.469595-2.076439-7.561393 0.021502a5.326251 5.326251 0 0 0-0.020478 7.561393l11.395844 11.39482-11.395844 11.39482c-2.048795 2.042651-2.075416 5.469595 0.020478 7.561393a5.324204 5.324204 0 0 0 7.561393 0.021501l11.395844-11.394819 11.395844 11.394819c2.042651 2.049818 5.464476 2.076439 7.561393-0.021501a5.326251 5.326251 0 0 0 0.020477-7.561393l-11.395843-11.39482zM102.310717 504.828707l11.395844-11.39482c2.048795-2.043675 2.075416-5.469595-0.020478-7.561393a5.326251 5.326251 0 0 0-7.561393-0.021501l-11.395844 11.394819-11.395843-11.394819c-2.042651-2.047771-5.469595-2.076439-7.561393 0.021501a5.326251 5.326251 0 0 0-0.020478 7.561393l11.395844 11.39482-11.395844 11.39482c-2.048795 2.043675-2.075416 5.469595 0.020478 7.561393a5.324204 5.324204 0 0 0 7.561393 0.021502l11.395843-11.39482 11.395844 11.39482c2.042651 2.049818 5.464476 2.076439 7.561393-0.021502a5.326251 5.326251 0 0 0 0.020478-7.561393l-11.395844-11.39482zM274.404339 231.558833a5.351849 5.351849 0 0 0 5.362087-5.363111 5.347753 5.347753 0 0 0-5.362087-5.363111 5.349801 5.349801 0 0 0-5.362088 5.363111 5.346729 5.346729 0 0 0 5.362088 5.363111M332.334747 414.710416a5.351849 5.351849 0 0 0 5.362087-5.363111 5.347753 5.347753 0 0 0-5.362087-5.363111 5.349801 5.349801 0 0 0-5.362088 5.363111 5.346729 5.346729 0 0 0 5.362088 5.363111M238.705553 451.48121a5.351849 5.351849 0 0 0 5.362087-5.363111 5.347753 5.347753 0 0 0-5.362087-5.363112 5.349801 5.349801 0 0 0-5.362087 5.363112 5.346729 5.346729 0 0 0 5.362087 5.363111M303.774489 593.499224a5.351849 5.351849 0 0 0 5.362088-5.363111 5.347753 5.347753 0 0 0-5.362088-5.363112 5.349801 5.349801 0 0 0-5.362087 5.363112 5.346729 5.346729 0 0 0 5.362087 5.363111M180.055354 672.28208a5.351849 5.351849 0 0 0 5.362087-5.363111 5.347753 5.347753 0 0 0-5.362087-5.363111 5.349801 5.349801 0 0 0-5.362088 5.363111 5.346729 5.346729 0 0 0 5.362088 5.363111M157.265714 547.531892a5.351849 5.351849 0 0 0 5.362088-5.363111 5.347753 5.347753 0 0 0-5.362088-5.363111 5.349801 5.349801 0 0 0-5.362087 5.363111 5.346729 5.346729 0 0 0 5.362087 5.363111M162.627802 275.131297a5.351849 5.351849 0 0 0 5.362087-5.363111 5.347753 5.347753 0 0 0-5.362087-5.363111 5.349801 5.349801 0 0 0-5.362088 5.363111 5.346729 5.346729 0 0 0 5.362088 5.363111" fill="#404041" /><path d="M355.320972 366.888828a2.817732 2.817732 0 0 1-2.815685-2.81466v-11.713248a2.816709 2.816709 0 0 1 2.815685-2.814661 2.816709 2.816709 0 0 1 2.814661 2.814661v11.713248a2.815685 2.815685 0 0 1-2.814661 2.81466z" fill="#404041" /><path d="M361.180668 361.034252h-11.713248c-1.553234 0-2.814661-1.262451-2.814661-2.815684s1.262451-2.814661 2.814661-2.814661h11.713248c1.553234 0 2.814661 1.262451 2.814661 2.814661s-1.262451 2.815685-2.814661 2.815684z" fill="#404041" /><path d="M244.069688 388.657654a2.816709 2.816709 0 0 1-2.814661-2.81466v-11.713249a2.816709 2.816709 0 0 1 2.814661-2.81466 2.816709 2.816709 0 0 1 2.814661 2.81466v11.713249a2.817732 2.817732 0 0 1-2.814661 2.81466z" fill="#404041" /><path d="M249.924264 382.798983h-11.713248a2.816709 2.816709 0 0 1-2.81466-2.815685 2.816709 2.816709 0 0 1 2.81466-2.814661h11.713248a2.817732 2.817732 0 0 1 2.815685 2.814661 2.81978 2.81978 0 0 1-2.815685 2.815685z" fill="#404041" /><path d="M211.400579 626.318844a2.816709 2.816709 0 0 1-2.814661-2.81466v-11.713249a2.817732 2.817732 0 0 1 2.814661-2.815684 2.816709 2.816709 0 0 1 2.814661 2.815684v11.713249a2.816709 2.816709 0 0 1-2.814661 2.81466z" fill="#404041" /><path d="M217.255155 620.464268h-11.713248a2.816709 2.816709 0 0 1-2.81466-2.815685 2.817732 2.817732 0 0 1 2.81466-2.81466h11.713248a2.816709 2.816709 0 0 1 2.814661 2.81466 2.817732 2.817732 0 0 1-2.814661 2.815685z" fill="#404041" /><path d="M303.773465 663.880077a2.817732 2.817732 0 0 1-2.815684-2.81466v-11.713248c0-1.553234 1.262451-2.815685 2.815684-2.815685s2.814661 1.262451 2.814661 2.815685v11.713248a2.817732 2.817732 0 0 1-2.814661 2.81466z" fill="#404041" /><path d="M309.632137 658.020382h-11.713248c-1.553234 0-2.815685-1.262451-2.815685-2.815685s1.262451-2.815685 2.815685-2.815685h11.713248c1.553234 0 2.814661 1.262451 2.814661 2.815685s-1.262451 2.815685-2.814661 2.815685z" fill="#404041" /><path d="M211.400579 784.360664a2.816709 2.816709 0 0 1-2.814661-2.815685v-11.713248a2.818756 2.818756 0 0 1 2.814661-2.815685 2.816709 2.816709 0 0 1 2.814661 2.815685v11.713248a2.817732 2.817732 0 0 1-2.814661 2.815685z" fill="#404041" /><path d="M217.255155 778.505063h-11.713248a2.816709 2.816709 0 0 1-2.81466-2.81466 2.817732 2.817732 0 0 1 2.81466-2.815685h11.713248a2.816709 2.816709 0 0 1 2.814661 2.815685 2.817732 2.817732 0 0 1-2.814661 2.81466z" fill="#404041" /><path d="M143.981826 772.694514a2.816709 2.816709 0 0 1-2.814661-2.815684v-11.713249a2.817732 2.817732 0 0 1 2.814661-2.815684 2.816709 2.816709 0 0 1 2.814661 2.815684v11.713249a2.817732 2.817732 0 0 1-2.814661 2.815684z" fill="#404041" /><path d="M149.836402 766.839938h-11.713248a2.816709 2.816709 0 0 1-2.814661-2.815685 2.817732 2.817732 0 0 1 2.814661-2.81466h11.713248a2.816709 2.816709 0 0 1 2.814661 2.81466 2.817732 2.817732 0 0 1-2.814661 2.815685z" fill="#404041" /><path d="M138.12213 444.010943a2.816709 2.816709 0 0 1-2.81466-2.814661v-11.713248a2.816709 2.816709 0 0 1 2.81466-2.814661 2.816709 2.816709 0 0 1 2.814661 2.814661v11.713248a2.815685 2.815685 0 0 1-2.814661 2.814661z" fill="#404041" /><path d="M143.981826 438.156366h-11.713248a2.816709 2.816709 0 0 1-2.814661-2.815684 2.816709 2.816709 0 0 1 2.814661-2.814661h11.713248a2.816709 2.816709 0 0 1 2.814661 2.814661 2.817732 2.817732 0 0 1-2.814661 2.815684z" fill="#404041" /><path d="M74.187659 240.232166a2.816709 2.816709 0 0 1-2.814661-2.814661v-11.713248c0-1.553234 1.262451-2.814661 2.814661-2.814661s2.814661 1.262451 2.814661 2.814661v11.713248a2.817732 2.817732 0 0 1-2.814661 2.814661z" fill="#404041" /><path d="M80.042235 234.373494h-11.713248c-1.553234 0-2.814661-1.262451-2.814661-2.814661s1.262451-2.814661 2.814661-2.81466h11.713248c1.553234 0 2.814661 1.262451 2.814661 2.81466s-1.262451 2.814661-2.814661 2.814661z" fill="#404041" /><path d="M895.584303 361.183739c-5.914986 0-10.725199-4.811237-10.725199-10.726222 0-5.913962 4.810213-10.725199 10.725199-10.725199 5.914986 0 10.725199 4.811237 10.725198 10.725199-0.001024 5.914986-4.810213 10.726223-10.725198 10.726222m0-32.17662c-11.845329 0-21.450398 9.604044-21.450398 21.450398 0 11.846353 9.604044 21.451421 21.450398 21.451421 11.845329 0 21.450398-9.605068 21.450397-21.451421-0.001024-11.845329-9.605068-21.450398-21.450397-21.450398M783.782168 550.334267c-5.914986 0-10.725199-4.811237-10.725198-10.726223 0-5.913962 4.810213-10.725199 10.725198-10.725199 5.914986 0 10.725199 4.811237 10.725199 10.725199 0 5.914986-4.810213 10.726223-10.725199 10.726223m0-32.176621c-11.845329 0-21.450398 9.604044-21.450397 21.450398 0 11.846353 9.605068 21.451421 21.450397 21.451421 11.845329 0 21.450398-9.604044 21.450398-21.451421 0-11.846353-9.605068-21.450398-21.450398-21.450398M927.758875 725.539476c-5.914986 0-10.725199-4.811237-10.725199-10.726223 0-5.913962 4.810213-10.725199 10.725199-10.725199 5.914986 0 10.725199 4.811237 10.725199 10.725199 0 5.914986-4.810213 10.726223-10.725199 10.726223m0-32.176621c-11.845329 0-21.450398 9.604044-21.450398 21.450398 0 11.846353 9.604044 21.451421 21.450398 21.451421 11.845329 0 21.450398-9.604044 21.450398-21.451421 0-11.845329-9.604044-21.450398-21.450398-21.450398M907.216664 617.154047a5.346729 5.346729 0 0 1-5.362088-5.362088 5.347753 5.347753 0 0 1 5.362088-5.364135 5.347753 5.347753 0 0 1 5.363111 5.364135 5.348777 5.348777 0 0 1-5.363111 5.362088M754.7499 310.420529l-11.395844-11.39482c-2.048795-2.043675-2.075416-5.469595 0.020478-7.561393a5.327275 5.327275 0 0 1 7.561393-0.022525l11.395844 11.394819 11.395844-11.394819c2.043675-2.047771 5.469595-2.076439 7.561393 0.022525a5.326251 5.326251 0 0 1 0.020477 7.561393l-11.395843 11.39482 11.395843 11.39482c2.048795 2.042651 2.075416 5.469595-0.020477 7.561393a5.325228 5.325228 0 0 1-7.561393 0.022525l-11.395844-11.394819-11.395844 11.394819c-2.043675 2.049818-5.464476 2.076439-7.561393-0.022525a5.326251 5.326251 0 0 1-0.020478-7.561393l11.395844-11.39482zM607.951365 248.654647l-11.395843-11.39482c-2.048795-2.042651-2.075416-5.469595 0.021501-7.561393a5.327275 5.327275 0 0 1 7.561393-0.022526l11.395844 11.39482 11.395844-11.39482c2.042651-2.047771 5.469595-2.076439 7.561393 0.022526a5.327275 5.327275 0 0 1 0.021502 7.561393l-11.395844 11.39482 11.395844 11.394819c2.048795 2.042651 2.075416 5.469595-0.021502 7.561394a5.325228 5.325228 0 0 1-7.561393 0.022525l-11.395844-11.39482-11.395844 11.39482c-2.042651 2.049818-5.464476 2.076439-7.561393-0.022525a5.327275 5.327275 0 0 1-0.021501-7.561394l11.395843-11.394819zM719.959301 775.688355l-11.395844-11.39482c-2.048795-2.043675-2.075416-5.469595 0.020478-7.561393a5.326251 5.326251 0 0 1 7.561393-0.021502l11.395843 11.39482 11.395844-11.39482c2.043675-2.047771 5.469595-2.076439 7.561393 0.021502a5.326251 5.326251 0 0 1 0.020478 7.561393l-11.395844 11.39482 11.395844 11.39482c2.048795 2.042651 2.075416 5.469595-0.020478 7.561393a5.324204 5.324204 0 0 1-7.561393 0.021501l-11.395844-11.394819-11.395843 11.394819c-2.043675 2.049818-5.464476 2.076439-7.561393-0.021501a5.326251 5.326251 0 0 1-0.020478-7.561393l11.395844-11.39482zM920.177004 504.828707l-11.395843-11.39482c-2.048795-2.043675-2.075416-5.469595 0.020477-7.561393a5.326251 5.326251 0 0 1 7.561393-0.021501l11.395844 11.394819 11.395844-11.394819c2.043675-2.047771 5.469595-2.076439 7.561393 0.021501a5.326251 5.326251 0 0 1 0.020478 7.561393l-11.395844 11.39482 11.395844 11.39482c2.048795 2.043675 2.075416 5.469595-0.020478 7.561393a5.324204 5.324204 0 0 1-7.561393 0.021502l-11.395844-11.39482-11.395844 11.39482c-2.042651 2.049818-5.464476 2.076439-7.561393-0.021502a5.326251 5.326251 0 0 1-0.020477-7.561393l11.395843-11.39482zM748.083383 231.558833a5.351849 5.351849 0 0 1-5.362088-5.363111 5.347753 5.347753 0 0 1 5.362088-5.363111 5.349801 5.349801 0 0 1 5.362087 5.363111 5.346729 5.346729 0 0 1-5.362087 5.363111M700.171693 472.398163a5.351849 5.351849 0 0 1-5.362088-5.363111 5.347753 5.347753 0 0 1 5.362088-5.363111 5.349801 5.349801 0 0 1 5.362087 5.363111 5.346729 5.346729 0 0 1-5.362087 5.363111M783.782168 451.48121a5.351849 5.351849 0 0 1-5.362087-5.363111 5.347753 5.347753 0 0 1 5.362087-5.363112 5.349801 5.349801 0 0 1 5.362088 5.363112 5.346729 5.346729 0 0 1-5.362088 5.363111M718.713232 593.499224a5.351849 5.351849 0 0 1-5.362087-5.363111 5.347753 5.347753 0 0 1 5.362087-5.363112 5.349801 5.349801 0 0 1 5.362088 5.363112 5.346729 5.346729 0 0 1-5.362088 5.363111M842.432368 672.28208a5.351849 5.351849 0 0 1-5.362088-5.363111 5.347753 5.347753 0 0 1 5.362088-5.363111 5.349801 5.349801 0 0 1 5.362087 5.363111 5.346729 5.346729 0 0 1-5.362087 5.363111M615.53426 801.594701a5.351849 5.351849 0 0 1-5.362087-5.363111 5.347753 5.347753 0 0 1 5.362087-5.363111 5.349801 5.349801 0 0 1 5.362088 5.363111 5.346729 5.346729 0 0 1-5.362088 5.363111M865.222007 547.531892a5.351849 5.351849 0 0 1-5.362087-5.363111 5.347753 5.347753 0 0 1 5.362087-5.363111 5.349801 5.349801 0 0 1 5.362088 5.363111 5.346729 5.346729 0 0 1-5.362088 5.363111M859.85992 275.131297a5.351849 5.351849 0 0 1-5.362088-5.363111 5.347753 5.347753 0 0 1 5.362088-5.363111 5.349801 5.349801 0 0 1 5.362087 5.363111 5.346729 5.346729 0 0 1-5.362087 5.363111M487.788184 248.14168a5.351849 5.351849 0 0 1-5.362088-5.363111 5.347753 5.347753 0 0 1 5.362088-5.363112 5.349801 5.349801 0 0 1 5.362087 5.363112 5.346729 5.346729 0 0 1-5.362087 5.363111" fill="#404041" /><path d="M604.881757 359.128802a2.817732 2.817732 0 0 1-2.815684-2.814661v-11.713248a2.817732 2.817732 0 0 1 2.815684-2.815685 2.817732 2.817732 0 0 1 2.814661 2.815685v11.713248a2.817732 2.817732 0 0 1-2.814661 2.814661z" fill="#404041" /><path d="M610.736334 353.274225h-11.713249a2.817732 2.817732 0 0 1-2.815684-2.81466 2.817732 2.817732 0 0 1 2.815684-2.815685h11.713249a2.817732 2.817732 0 0 1 2.81466 2.815685 2.817732 2.817732 0 0 1-2.81466 2.81466z" fill="#404041" /><path d="M778.419057 388.657654a2.817732 2.817732 0 0 1-2.814661-2.81466v-11.713249a2.816709 2.816709 0 0 1 2.814661-2.81466 2.817732 2.817732 0 0 1 2.815685 2.81466v11.713249a2.818756 2.818756 0 0 1-2.815685 2.81466z" fill="#404041" /><path d="M784.277729 382.798983h-11.713248a2.817732 2.817732 0 0 1-2.814661-2.815685 2.816709 2.816709 0 0 1 2.814661-2.814661h11.713248a2.817732 2.817732 0 0 1 2.815685 2.814661 2.817732 2.817732 0 0 1-2.815685 2.815685z" fill="#404041" /><path d="M683.143456 246.517798a2.817732 2.817732 0 0 1-2.815685-2.814661v-11.713248c0-1.553234 1.262451-2.814661 2.815685-2.814661s2.815685 1.262451 2.815685 2.814661v11.713248a2.818756 2.818756 0 0 1-2.815685 2.814661z" fill="#404041" /><path d="M688.998032 240.663222h-11.713248a2.817732 2.817732 0 0 1-2.814661-2.814661 2.816709 2.816709 0 0 1 2.814661-2.814661h11.713248a2.817732 2.817732 0 0 1 2.815685 2.814661 2.818756 2.818756 0 0 1-2.815685 2.814661z" fill="#404041" /><path d="M344.408402 234.865983a2.816709 2.816709 0 0 1-2.81466-2.814661v-11.713248c0-1.553234 1.262451-2.814661 2.81466-2.814661s2.814661 1.262451 2.814661 2.814661v11.713248a2.817732 2.817732 0 0 1-2.814661 2.814661z" fill="#404041" /><path d="M350.267074 229.011407h-11.713248a2.817732 2.817732 0 0 1-2.815685-2.814661 2.816709 2.816709 0 0 1 2.815685-2.814661h11.713248a2.816709 2.816709 0 0 1 2.814661 2.814661 2.815685 2.815685 0 0 1-2.814661 2.814661z" fill="#404041" /><path d="M811.088166 626.318844a2.817732 2.817732 0 0 1-2.815685-2.81466v-11.713249c0-1.553234 1.262451-2.815685 2.815685-2.815684s2.815685 1.262451 2.815685 2.815684v11.713249a2.818756 2.818756 0 0 1-2.815685 2.81466z" fill="#404041" /><path d="M816.946838 620.464268h-11.713248a2.817732 2.817732 0 0 1-2.815685-2.815685 2.817732 2.817732 0 0 1 2.815685-2.81466h11.713248a2.817732 2.817732 0 0 1 2.814661 2.81466 2.815685 2.815685 0 0 1-2.814661 2.815685z" fill="#404041" /><path d="M741.790583 688.974483a2.817732 2.817732 0 0 1-2.81466-2.814661v-11.713248a2.817732 2.817732 0 0 1 2.81466-2.815685 2.817732 2.817732 0 0 1 2.815685 2.815685v11.713248a2.817732 2.817732 0 0 1-2.815685 2.814661z" fill="#404041" /><path d="M747.64516 683.119907h-11.713248a2.817732 2.817732 0 0 1-2.815685-2.814661 2.817732 2.817732 0 0 1 2.815685-2.815685h11.713248a2.815685 2.815685 0 0 1 0 5.630346z" fill="#404041" /><path d="M811.088166 784.360664a2.817732 2.817732 0 0 1-2.815685-2.815685v-11.713248c0-1.55221 1.262451-2.815685 2.815685-2.815685s2.815685 1.262451 2.815685 2.815685v11.713248a2.81978 2.81978 0 0 1-2.815685 2.815685z" fill="#404041" /><path d="M816.946838 778.505063h-11.713248a2.817732 2.817732 0 0 1-2.815685-2.81466 2.817732 2.817732 0 0 1 2.815685-2.815685h11.713248a2.815685 2.815685 0 0 1 0 5.630345z" fill="#404041" /><path d="M878.506919 772.694514a2.817732 2.817732 0 0 1-2.814661-2.815684v-11.713249a2.817732 2.817732 0 0 1 2.814661-2.815684 2.817732 2.817732 0 0 1 2.815685 2.815684v11.713249a2.81978 2.81978 0 0 1-2.815685 2.815684z" fill="#404041" /><path d="M884.365591 766.839938h-11.713248a2.818756 2.818756 0 0 1-2.815685-2.815685 2.817732 2.817732 0 0 1 2.815685-2.81466h11.713248a2.817732 2.817732 0 0 1 2.815685 2.81466 2.817732 2.817732 0 0 1-2.815685 2.815685z" fill="#404041" /><path d="M884.365591 444.010943a2.817732 2.817732 0 0 1-2.815685-2.814661v-11.713248c0-1.553234 1.262451-2.814661 2.815685-2.814661s2.815685 1.262451 2.815685 2.814661v11.713248a2.817732 2.817732 0 0 1-2.815685 2.814661z" fill="#404041" /><path d="M890.220167 438.156366h-11.713248a2.817732 2.817732 0 0 1-2.814661-2.815684 2.816709 2.816709 0 0 1 2.814661-2.814661h11.713248a2.817732 2.817732 0 0 1 2.815685 2.814661 2.817732 2.817732 0 0 1-2.815685 2.815684z" fill="#404041" /><path d="M948.301086 240.232166a2.817732 2.817732 0 0 1-2.815684-2.814661v-11.713248a2.816709 2.816709 0 0 1 2.815684-2.814661 2.817732 2.817732 0 0 1 2.814661 2.814661v11.713248a2.817732 2.817732 0 0 1-2.814661 2.814661z" fill="#404041" /><path d="M954.159758 234.373494h-11.713248c-1.553234 0-2.815685-1.262451-2.815685-2.814661s1.262451-2.814661 2.815685-2.81466h11.713248c1.553234 0 2.815685 1.262451 2.815685 2.81466s-1.262451 2.814661-2.815685 2.814661z" fill="#404041" /><path d="M487.755419 640.484298c0.007167 0 0.012287 0.003072 0.017406 0.003071l0.015359-0.003071" fill="" /><path d="M380.585342 731.913162l-4.599292-6.401331a6.757643 6.757643 0 1 1 10.975026-7.88187l4.599293 6.400308a6.756619 6.756619 0 0 1-10.975027 7.882893zM403.37191 756.48129l-5.919081-5.204409a6.755595 6.755595 0 1 1 8.924185-10.144656l5.918057 5.203385a6.755595 6.755595 0 0 1-8.923161 10.14568z" fill="#404041" /><path d="M686.52023 602.524773H346.447982a6.757643 6.757643 0 0 0-6.756619 6.756619c0 44.60454 14.119379 85.701249 37.76601 118.308926h1.079175a902.198602 902.198602 0 0 1 11.209496-6.091094c-21.618315-29.026125-35.05681-65.584974-36.42472-105.461212h326.327611c-3.26517 95.148639-75.203353 171.452669-163.164317 171.452669-39.441087 0-75.654887-15.349065-103.906955-40.853024h-2.394867c-2.366199 2.716368-5.407138 6.21396-7.796887 8.962068 30.814853 28.30531 70.647064 45.403171 114.098709 45.403171 97.484122 0 176.792231-86.005343 176.792231-191.721504a6.757643 6.757643 0 0 0-6.756619-6.756619z" fill="#404041" /><path d="M590.175692 606.577311c8.628282-11.838162 23.132641-25.583823 43.646184-24.58963 23.32206 1.116035 46.562209 0.384981 58.480234-12.502663 6.50372-7.026925 8.992785-16.982162 7.404739-29.588238-2.595549-20.571904-12.782184-35.485818-27.940807-40.921625-23.203289-8.315997-56.195946 4.928984-98.277633 39.292623a195.011247 195.011247 0 0 1 7.051499-8.505415c9.591758-10.900283 22.684179-23.308749 36.544515-36.443151 35.711072-33.843506 72.640568-68.837858 72.397907-97.242485-0.074744-8.534084-3.479162-15.944966-10.114963-22.021725-8.733742-7.998592-18.157582-11.277073-28.065721-9.73715-24.272226 3.787352-50.149903 36.772841-85.857904 95.332939 6.327611-105.676228 1.764154-152.080759-15.938823-168.528453-6.766858-6.28256-15.663398-8.534084-27.207704-6.884605-10.18254 1.454941-17.791031 5.86072-22.607388 13.097541-7.990401 12.006079-6.5672 29.648647-3.36244 45.472795-14.134737-47.267666-33.390948-86.98213-58.715728-100.201513-14.260675-7.442622-29.244213-6.156622-44.60454 3.862096-18.27021 12.145328-27.703265 23.774617-29.686531 36.599804-2.969267 19.210136 11.344649 37.003216 29.471515 59.528693 16.011519 19.903307 35.558513 44.203177 47.7878 76.017342-18.74734-4.682228-30.566049 4.414994-34.621658 10.979123-0.582591 0.980882-13.618699 23.889292 15.738141 51.832146-27.293711-15.136097-62.94335-30.33977-86.790663-23.310797-10.735438 3.15971-18.309117 10.336122-22.519334 21.323436-3.527285 9.193466-3.664486 16.686259-0.421841 22.907386 6.092118 11.706081 22.578719 15.819028 43.448574 21.024462 3.287696 0.820132 6.685971 1.672005 10.156942 2.574047-6.758667 2.045723-13.222455 5.368231-17.170557 10.789704-3.032748 4.165166-5.825907 11.374342-1.921832 22.080087 7.840914 21.478042 26.126482 23.135713 42.253699 24.595773 10.233734 0.929688 19.899211 1.80511 26.851393 7.21532 8.597565 6.686995 13.450782 12.137137 16.172268 15.952133" fill="#404041" /><path d="M594.724815 609.8947l-9.096197-6.633753c9.391076-12.888668 25.249012-27.883469 48.464588-26.898492 21.984866 1.064841 43.736286 0.479178 54.073431-10.701649 5.322156-5.749116 7.327947-14.176716 5.955941-25.059593-2.318076-18.386933-11.159326-31.626794-24.254819-36.32438-21.157566-7.574704-52.379925 5.331371-92.817253 38.352696l-39.333578 32.123379 31.341129-39.958149a202.250116 202.250116 0 0 1 7.249109-8.7491c9.78732-11.115299 22.956533-23.598509 36.904922-36.812773 34.841794-33.021326 70.859008-67.154591 70.638873-93.107012-0.061433-7.007471-2.771658-12.866143-8.283233-17.915946-7.521462-6.879485-15.162718-9.601997-23.404994-8.326235-24.655159 3.848785-53.941351 46.828419-81.912874 92.698482l-11.779801 19.318668 1.350505-22.58691c6.082903-101.539732 1.98429-149.076679-14.146-164.062265-5.52079-5.124546-12.703345-6.839554-22.582814-5.440927-8.528965 1.218424-14.823812 4.803046-18.712528 10.645336-5.617035 8.43272-6.444334 21.918313-2.534117 41.238005l-10.913593 2.731726c-15.676708-52.428048-35.013806-85.911146-55.924617-96.823715-12.492425-6.514982-25.222391-5.352872-38.92812 3.584622-16.816293 11.181852-25.473243 21.592718-27.197466 32.743853-2.59043 16.763051 11.03646 33.698114 28.292 55.142368 16.086262 19.992385 36.109364 44.87075 48.658102 77.522453l3.883597 10.103701-10.50404-2.621147c-15.892748-3.967556-25.371878 3.457661-28.468107 8.476747-0.417745 0.712624-11.229974 19.992385 14.832003 44.796007l31.881741 30.351032-38.497064-21.35108c-36.320284-20.136753-64.841634-28.028861-82.466796-22.833667-9.088006 2.674388-15.254867 8.542275-18.852801 17.937447-2.916025 7.601325-3.140256 13.582863-0.686003 18.289664 4.921817 9.457629 20.31798 13.301294 39.803542 18.162701 3.316365 0.827299 6.729998 1.684291 10.222471 2.59043l19.381126 5.036492-19.165086 5.802358c-6.729998 2.036508-11.524853 4.970963-14.247364 8.714288-3.241621 4.446734-3.637865 10.112915-1.187707 16.837795 6.615323 18.12277 21.606028 19.481466 37.472155 20.915929 10.592094 0.963476 21.544595 1.952549 29.801206 8.379477 7.570608 5.890412 13.389348 11.651815 17.30059 17.124482l-9.166845 6.545699c-2.252548-3.153567-6.690067-8.278113-15.048042-14.78388-5.647751-4.394516-14.515622-5.19929-23.902603-6.04809-16.01971-1.451869-37.969763-3.440255-47.031149-28.270498-4.759019-13.038156-1.178492-22.059609 2.656983-27.329547 1.534804-2.10306 3.404419-4.015678 5.612939-5.73171-20.067128-5.063113-35.734622-9.764794-42.487146-22.741517-4.034108-7.733406-3.980866-16.737453 0.158703-27.527157 4.869599-12.707441 13.680132-21.02139 26.180747-24.707377 16.812197-4.957653 39.935623-0.734126 68.941271 12.523141-10.829635-21.557906-1.653575-37.644168-1.139584-38.510374 3.971651-6.426928 14.352824-15.444286 30.491305-15.025518-11.973315-26.757195-29.136705-48.09087-43.19977-65.571664-18.998192-23.603628-33.997088-42.245509-30.650007-63.917065 2.243333-14.498216 12.452493-27.341834 32.132593-40.428112 17.216632-11.225879 34.134289-12.615291 50.330107-4.165165 18.588638 9.703361 35.189915 32.783784 49.533524 68.790759 1.078151-4.314653 2.762443-8.445006 5.256627-12.188331 5.739901-8.630329 14.656918-13.860336 26.493033-15.553842 13.314605-1.917737 23.743901 0.818084 31.837714 8.335451 18.025501 16.74974 23.449022 58.428016 18.927545 151.007727 29.493017-46.423985 53.650567-75.424512 78.169549-79.251796 11.647719-1.798967 22.680084 1.944358 32.739757 11.151135 7.829651 7.174364 11.850449 15.962372 11.938503 26.12341 0.264162 30.852736-37.565329 66.702033-74.144656 101.367719-2.19521 2.080535-4.367895 4.139568-6.509863 6.176076 23.488953-12.268194 43.309325-15.60606 59.211288-9.896875 17.229942 6.180172 28.758891 22.772234 31.626794 45.517846 1.808181 14.335418-1.174396 25.816245-8.863775 34.115859-13.464092 14.563745-38.184779 15.461692-62.87987 14.304702-17.96714-0.918425-31.061609 11.630313-38.825731 22.275649z" fill="#404041" /><path d="M511.21468 358.715152l-0.264162-1.010575c-4.297247-16.571584-10.800966-41.612747-2.293504-54.398003 3.090086-4.635129 8.051834-7.384261 15.166814-8.403027 8.329307-1.194874 14.000608 0.075768 18.347001 4.113971 15.67466 14.564769 18.918329 66.992817 11.174684 180.809957-8.11122 13.699586-16.659638 28.425104-25.83365 44.39362-1.555282-23.103972-4.842978-53.718144-10.107796-86.317628 0.009215-0.113651 0.0686-0.209896 0.0686-0.325596 0.010239-2.202377-6.830339-52.475147-6.257987-78.862719z" fill="#F2C928" /><path d="M415.165022 435.188123c0.094197-0.136177 8.933399-13.896172 31.904266-2.728654a5.371302 5.371302 0 0 0 5.869935-0.758699 5.399971 5.399971 0 0 0 1.627977-5.69997c-12.266146-39.053034-35.059881-67.391108-53.382309-90.16027-16.45998-20.455181-29.456157-36.615163-27.214872-51.12669 1.469275-9.489369 9.646024-19.063721 24.962325-29.244213 11.975363-7.809173 23.005679-8.897563 33.69197-3.311245 54.002784 28.191659 82.453485 206.223815 85.049035 290.82234a5.388708 5.388708 0 0 0 4.08223 5.062089 5.379493 5.379493 0 0 0 5.982562-2.551522c12.494473-21.826163 24.362327-42.549602 35.613804-61.573392 0.053242-0.101365 0.120818-0.186347 0.172012-0.287712 36.421649-61.562129 66.303742-105.052682 89.438431-108.662901 6.602013-1.015694 12.837474 1.275761 19.125154 7.03614 4.409874 4.036156 6.571296 8.668213 6.620443 14.169549 0.199658 23.715232-36.581375 58.574432-69.035468 89.327851-14.044635 13.306414-27.304974 25.876654-37.224375 37.144512-32.559553 37.001168-40.002176 71.204057-41.695682 83.932999h-21.902955c-4.856288-44.575872-31.140448-88.810789-78.255556-131.509879-24.790311-22.471211-15.750428-39.29979-15.428927-39.880333z" fill="#F26E3F" /><path d="M321.518422 497.368679c-1.730366-3.326603-1.425248-7.929992 0.925592-14.073304 2.988721-7.795863 8.05593-12.648055 15.5006-14.843266 36.025405-10.605404 109.93252 41.701825 116.024637 46.078936 25.65959 30.409394 40.384085 61.241653 44.019902 92.046266h-17.065096c-19.846993-50.049562-54.796295-71.603372-87.02411-83.270545-0.021502-0.010239-0.044027-0.013311-0.065528-0.021502-12.73611-4.60646-25.044235-7.682212-35.814485-10.369911-17.51663-4.370966-32.643512-8.145008-36.501512-15.546674z" fill="#F2C928" /><path d="M422.200138 582.116691c-9.450462-7.349449-21.168829-8.411218-32.498121-9.437151-17.117315-1.55221-27.872206-3.22831-33.102212-17.559633-1.858352-5.080519-1.689411-9.016334 0.505799-12.034749 6.028637-8.294495 25.976995-9.710528 33.542483-9.541587 29.523733 10.695506 60.152239 29.714176 78.641561 73.032716h-25.030925c-2.292479-4.995536-7.962756-13.494809-22.058585-24.459596zM684.39362 562.166285c-8.948758 9.670597-30.309053 10.007455-50.054682 9.055242-21.868143-1.073032-42.495337 11.832019-57.114371 35.355784h-35.561585c1.077127-6.992113 4.028989-20.099893 11.827923-36.345881 64.953237-61.130049 98.191627-67.007151 114.63932-61.110596 15.912202 5.704065 19.906378 24.365399 20.885213 32.123379 1.186683 9.432032-0.322524 16.274657-4.621818 20.922072zM504.900379 336.452813c-11.521782 0-21.76473 10.243973-21.76473 21.765755 0 11.524853 10.242949 21.765754 21.76473 21.765754 11.523829 0 21.766778-10.240901 21.766778-21.765754 0-11.522805-8.961044-21.765754-21.766778-21.765755z" fill="#33B88C" /><path d="M504.900379 384.701361c-14.124498 0-26.482794-11.475707-26.482794-26.483817 0-14.124498 11.475707-26.483818 26.482794-26.483818 15.008111 0 26.484842 11.474683 26.484842 26.483818 0 14.124498-11.476731 26.483818-26.484842 26.483817z m0-41.491928c-7.943302 0-15.006063 7.061737-15.006063 15.008111 0 7.946374 7.062761 15.007087 15.006063 15.007087 7.94535 0 15.008111-7.060713 15.008111-15.007087 0-7.94535-6.179148-15.008111-15.008111-15.008111z" fill="#404041" /><path d="M678.704913 365.891564c-11.521782 0-21.76473 10.243973-21.76473 21.765754 0 11.524853 10.243973 21.765754 21.76473 21.765755 11.523829 0 21.766778-10.240901 21.766778-21.765755 0-11.522805-8.961044-21.765754-21.766778-21.765754z" fill="#33B88C" /><path d="M678.704913 414.140112c-14.124498 0-26.482794-11.475707-26.482794-26.483818 0-14.124498 11.475707-26.483818 26.482794-26.483817 15.008111 0 26.484842 11.474683 26.484842 26.483817 0 14.125522-11.476731 26.483818-26.484842 26.483818z m0-41.490905c-7.943302 0-15.006063 7.061737-15.006063 15.008111 0 7.946374 7.062761 15.007087 15.006063 15.007088 7.94535 0 15.008111-7.060713 15.008111-15.007088s-6.179148-15.008111-15.008111-15.008111z" fill="#404041" /><path d="M366.174156 253.365543c-11.521782 0-21.76473 10.243973-21.76473 21.765754 0 11.524853 10.242949 21.765754 21.76473 21.765755 11.523829 0 21.766778-10.240901 21.766779-21.765755 0-11.521782-8.961044-21.765754-21.766779-21.765754z" fill="#33B88C" /><path d="M366.174156 301.615115c-14.124498 0-26.482794-11.475707-26.482793-26.483818 0-14.124498 11.475707-26.483818 26.482793-26.483818 15.008111 0 26.484842 11.474683 26.484842 26.483818 0 14.124498-11.476731 26.483818-26.484842 26.483818z m0-41.491929c-7.943302 0-15.006063 7.061737-15.006063 15.008111 0 7.946374 7.062761 15.007087 15.006063 15.007088 7.94535 0 15.008111-7.060713 15.008112-15.007088 0-7.94535-6.179148-15.008111-15.008112-15.008111z" fill="#404041" /><path d="M354.099477 440.754987c-11.520758 0-21.76473 10.243973-21.76473 21.765755 0 11.524853 10.243973 21.765754 21.76473 21.765754 11.523829 0 21.766778-10.240901 21.766778-21.765754 0-11.522805-8.961044-21.765754-21.766778-21.765755z" fill="#33B88C" /><path d="M354.099477 489.004559c-14.124498 0-26.482794-11.475707-26.482794-26.483817 0-14.124498 11.476731-26.483818 26.482794-26.483818 15.008111 0 26.484842 11.474683 26.484842 26.483818 0 14.124498-11.476731 26.483818-26.484842 26.483817z m0-41.491928c-7.943302 0-15.006063 7.061737-15.006063 15.008111s7.062761 15.007087 15.006063 15.007087c7.94535 0 15.008111-7.060713 15.008111-15.007087s-6.179148-15.008111-15.008111-15.008111z" fill="#404041" /></svg>