<?xml version="1.0" encoding="utf-8"?>
<svg width="800px" height="800px" viewBox="-20 0 190 190" fill="none" xmlns="http://www.w3.org/2000/svg">
<path fill-rule="evenodd" clip-rule="evenodd" d="M77.356 93.9357C92.616 93.9357 92.52 117.253 77.617 117.253C61.298 117.252 62.036 93.9357 77.356 93.9357ZM106.857 138.658C106.047 139.387 105.183 139.981 104.281 140.478L103.405 135.027C103.44 134.997 103.479 134.971 103.514 134.94C107.46 131.39 107.578 125.368 105.303 118.501C98.389 122.298 89.932 125.215 81.5 127.001C79.773 127.367 78.025 127.678 76.271 127.955C79.567 130.543 82.89 132.736 86.086 134.348C87.267 132.304 89.43 130.806 92.532 130.806C102.285 130.806 102.223 145.707 92.698 145.707C87.899 145.707 85.414 142.551 85.078 139.144C79.928 136.743 74.624 133.099 69.623 128.776C65.146 129.171 60.734 129.244 56.615 128.917C57.633 136.899 61.093 141.664 65.516 143.105C69.34 144.351 73.471 142.74 77.482 139.065L81.588 141.773C76.173 147.157 70.119 149.863 63.967 147.859C56.078 145.29 52.51 137.695 51.727 128.313C42.373 126.711 35.281 122.649 33.711 115.242C33.484 114.171 33.378 113.122 33.37 112.095C26.524 109.294 27.933 97.8067 36.53 97.8067C45.649 97.8067 46.186 110.83 38.433 112.524C38.451 113.093 38.486 113.659 38.602 114.206C39.61 118.962 44.455 122.021 51.555 123.423C51.606 119.186 52.132 114.721 52.993 110.28C43.251 96.2447 38.228 80.7177 47.037 72.7967C52.015 68.3227 58.418 67.9167 65.178 70.0317L63.169 74.5517C57.614 73.1057 53.201 73.9797 50.381 76.5147C44.882 81.4587 47.21 92.1187 54.503 103.771C54.941 102.142 55.408 100.528 55.921 98.9537C59.627 87.5767 65.867 75.6747 73.38 68.6617C72.066 64.3387 74.564 58.8057 80.531 58.8057C90.283 58.8057 90.222 73.7067 80.697 73.7067C78.925 73.7067 77.475 73.2697 76.325 72.5557C69.939 78.6677 64.185 89.4447 60.593 100.476C59.596 103.537 58.809 106.421 58.176 109.162C60.052 111.703 62.136 114.256 64.402 116.776C66.592 119.212 68.903 121.546 71.271 123.713C74.256 123.361 77.338 122.86 80.48 122.194C88.892 120.412 97.125 117.569 103.541 114.013C103.013 112.845 102.433 111.664 101.798 110.476L104.756 105.78C105.837 107.649 106.808 109.532 107.677 111.408C113.481 107.31 116.848 102.512 115.767 97.4047C114.674 92.2477 109.586 89.1357 102.578 87.6587C102.391 95.4207 100.728 104.037 98.125 112.102L92.379 113.733C92.72 112.778 93.054 111.814 93.374 110.832C96.019 102.711 97.664 94.2247 97.811 86.9267C90.326 86.1627 81.457 86.8477 73.062 88.6267C72.463 88.7537 71.916 88.8987 71.334 89.0317L73.005 83.6267C81.053 82.0077 89.835 81.3087 97.662 82.0387C97.184 76.5697 95.615 72.1457 92.667 69.6387L93.561 64.2007C99.231 67.3617 101.92 74.2577 102.483 82.7047C111.805 84.4297 119.019 88.6297 120.659 96.3697C122.255 103.904 117.439 110.592 109.537 115.925C112.762 124.921 112.774 133.338 106.857 138.658ZM60.751 120.061C59.449 118.614 58.182 117.119 56.959 115.591C56.514 118.669 56.302 121.51 56.315 124.087C58.933 124.318 61.76 124.371 64.738 124.248C63.368 122.887 62.034 121.489 60.751 120.061Z" fill="#000000"/>
</svg>