<?xml version="1.0" encoding="utf-8"?>
<svg width="800px" height="800px" viewBox="-20 0 190 190" fill="none" xmlns="http://www.w3.org/2000/svg">
<path fill-rule="evenodd" clip-rule="evenodd" d="M117.843 120.098L117.207 100.666L125.595 103.045L125.199 118.482L117.843 120.098ZM104.292 135.689C86.159 135.119 45.067 135.796 41.622 135.741C35.393 135.641 30.918 133.204 30.88 126.35C30.848 120.339 31.021 99.8 31.094 95.11C31.188 89.296 34.432 86.658 41.156 86.619C45.056 86.596 84.727 85.926 103.527 86.382C109.461 86.527 113.63 89.516 113.512 96.867C113.394 104.218 113.49 116.152 113.366 123.862C113.244 131.574 110.311 135.877 104.292 135.689ZM37.584 93.049L37.765 129.353L105.081 129.03L105.489 92.982L37.584 93.049ZM43.824 98.355L66.215 97.778L86.006 124.488L43.062 124.898L43.824 98.355Z" fill="#000000"/>
</svg>