<?xml version="1.0" encoding="utf-8"?>
<svg width="800px" height="800px" viewBox="-20 0 190 190" fill="none" xmlns="http://www.w3.org/2000/svg">
<path fill-rule="evenodd" clip-rule="evenodd" d="M130.81 101.16L93.81 111.91L85.35 129.81L85.08 140.81C89.15 141.57 90.17 144.97 89.94 147.65L76.94 147.5L68.56 131.2L69.56 118.93L42 127L33.85 140.78C40.85 143.11 38.25 148.21 38.25 148.21L22.37 148.13L16.43 131.13C16.43 131.13 23.96 105.87 26.57 96.9C30.62 82.8 40.47 73.41 57.26 74C72.5 74.51 92.12 76.18 101.18 76.87C104.5 67.87 111.41 70.61 111.41 70.61L112.33 78.05C120 79.68 124.03 83.24 124.52 88.28L133.61 90.42L130.81 101.16ZM57.52 127.75L56.77 139.59C60.64 139.98 63.12 143.91 63.12 147.85H46.33L40.9 137.15L45 131.43L57.52 127.75ZM108.74 129.75C112.37 135.24 105.02 144.62 105.02 144.62L102.35 143.51C102.35 143.51 103.58 136.12 98.53 134.07C93.48 132.02 91.26 130.84 91.26 130.84L99.59 115.84C99.59 115.84 106.5 126.4 108.74 129.79V129.75Z" fill="#000000"/>
</svg>