<?xml version="1.0" encoding="utf-8"?>
<svg width="800px" height="800px" viewBox="-20 0 190 190" fill="none" xmlns="http://www.w3.org/2000/svg">
<path fill-rule="evenodd" clip-rule="evenodd" d="M125.382 124.958L24.567 125.263C24.564 121.9 24.546 118.949 24.505 117.128C24.31 108.876 28.319 105.893 35.591 105.892C59.917 105.892 95.037 106.075 117.901 106.075C122.212 106.075 125.629 109.767 125.537 116.52C125.51 118.402 125.452 121.469 125.382 124.958ZM108.676 100.077C107.247 95.2651 108.386 87.0661 109.425 84.1361L108.314 83.5931C106.283 86.4301 84.654 86.736 80.521 84.292L79.719 84.7591C81.402 87.4841 82.08 95.715 80.822 100.329L71.384 100.414C70.182 95.572 70.58 88.148 72.091 85.393L71.045 84.0081C69.057 86.1211 46.263 86.814 42.604 84.403L41.536 85.3711C43.347 88.2221 43.561 95.5551 42.749 100.674L33.505 100.758C33.505 100.758 32.598 91.646 32.435 84.698C32.241 76.446 36.323 74.489 43.522 73.463C61.556 70.892 91.915 70.753 109.97 74.312C114.199 75.146 117.699 78.0041 117.607 84.7571C117.51 91.8321 116.967 100.003 116.967 100.003L108.676 100.077ZM125.271 130.301C125.093 138.729 124.896 147.395 124.896 147.395L119.425 147.401L115.874 136.92L35.139 136.864L30.443 147.472L24.463 147.483C24.463 147.483 24.545 138.018 24.564 129.339L125.271 130.301Z" fill="#000000"/>
</svg>