<?xml version="1.0" encoding="utf-8"?>
<svg width="800px" height="800px" viewBox="-20 0 190 190" fill="none" xmlns="http://www.w3.org/2000/svg">
<path fill-rule="evenodd" clip-rule="evenodd" d="M91.295 122.261C90.959 124.992 87.966 125.797 84.307 124.938C86.254 111.588 98.127 104.257 99.33 94.4609C102.985 64.6849 57.842 57.6849 53.946 89.4029C52.682 99.6949 62.82 106.681 61.222 122.044C57.53 121.966 54.89 120.496 55.194 118.027C56.01 111.378 46.225 98.8759 47.458 88.8379C52.463 48.0729 110.48 57.0699 105.782 95.3369C104.413 106.495 91.825 117.944 91.295 122.261ZM66.984 92.6119C67.375 84.7999 72.885 87.5469 72.885 87.5469L71.196 123.04L65.785 122.507C65.785 122.506 66.593 100.424 66.984 92.6119ZM85.815 94.9979C84.056 103.788 79.692 124.093 79.692 124.093L74.278 123.58L80.788 88.3719C80.788 88.3719 87.572 86.2089 85.815 94.9979ZM57.351 125.674L87.75 129.223C87.75 129.223 86.698 136.194 86.331 139.089C85.799 143.29 78.322 147.859 75.937 147.557C72.285 147.093 66.652 146.446 63.664 146.067C62.191 145.88 55.364 140.298 55.962 135.593C56.383 132.269 57.351 125.674 57.351 125.674ZM75.967 150.646C75.016 158.144 62.516 156.741 63.473 149.195C66.239 149.545 71.313 150.057 75.967 150.646Z" fill="#000000"/>
</svg>