<?xml version="1.0" encoding="utf-8"?>
<svg width="800px" height="800px" viewBox="-20 0 190 190" fill="none" xmlns="http://www.w3.org/2000/svg">
<path fill-rule="evenodd" clip-rule="evenodd" d="M85.491 147.483C80.85 147.483 69.429 147.483 64.616 147.483C59.803 147.483 55.632 146.386 55.632 140.978C55.632 140.164 55.614 139.002 55.585 137.634L71.19 137.415L72.19 105.415L54.92 105.168C55.082 97.722 56.589 91.221 58.503 85.386C63.294 85.553 73.007 84.764 72.19 71.415H63.858C64.381 70.095 64.878 68.806 65.324 67.546C66.78 63.438 66.923 56.948 66.644 51.078L64.61 51.086L63.8 42.22L65.853 42.155L65.869 37.823L82.253 37.797L82.258 41.632L84.287 41.568L83.364 51.017L81.217 51.025C80.893 57.214 81.047 64.07 82.78 67.999C86.589 76.63 93.533 90.452 93.533 107.824C93.533 118.772 93.825 135.499 93.825 140.427C93.824 145.352 90.132 147.483 85.491 147.483ZM84.406 19.477C71.211 19.477 71.808 0.623961 84.195 0.623961C96.534 0.624961 96.456 19.477 84.406 19.477ZM73.891 32.279C66.226 32.279 66.573 21.328 73.769 21.328C80.936 21.328 80.891 32.279 73.891 32.279ZM61.077 11.411C53.412 11.411 53.759 0.459961 60.955 0.459961C68.122 0.458961 68.077 11.411 61.077 11.411Z" fill="#000000"/>
</svg>