<?xml version="1.0" encoding="utf-8"?>
<svg width="800px" height="800px" viewBox="-20 0 190 190" fill="none" xmlns="http://www.w3.org/2000/svg">
<path fill-rule="evenodd" clip-rule="evenodd" d="M94.547 146.879C80.076 146.879 61.32 146.784 49.215 146.784C27.449 146.784 25.018 117.618 42.527 111.295C42.427 96.6411 51.875 81.8691 71.058 81.8691C85.054 81.8691 94.163 89.6751 98.095 99.5651C126.441 102.477 126.785 146.879 94.547 146.879ZM93.682 106.879C91.989 97.0901 84.422 88.5371 71.375 88.5371C54.223 88.5371 47.719 104.162 50.432 116.916C32.85 116.916 34.536 140.297 49.924 140.297C60.742 140.297 82.537 139.925 95.559 139.925C118.303 139.925 118.059 104.639 93.682 106.879Z" fill="#000000"/>
</svg>