<?xml version="1.0" encoding="utf-8"?>
<svg width="800px" height="800px" viewBox="-20 0 190 190" fill="none" xmlns="http://www.w3.org/2000/svg">
<path fill-rule="evenodd" clip-rule="evenodd" d="M110.883 139.203L111.123 128.412C119.787 121.262 123.092 99.3792 105.668 103.049C104.943 124.23 104.375 146.997 104.375 146.997L46.193 146.497C46.193 146.497 44.649 108.645 44.032 88.0522C43.542 71.7232 106.885 71.8092 106.198 88.7412C106.139 90.1952 106.081 91.6912 106.022 93.2192C138.822 88.7222 130.361 132.194 110.883 139.203ZM75.134 130.795C88.174 130.795 88.258 108.742 74.906 108.742C61.504 108.742 60.858 130.795 75.134 130.795ZM73.817 83.2652C44.757 83.2652 45.463 93.9092 73.842 93.9092C104.916 93.9082 102.988 83.2652 73.817 83.2652ZM89.828 67.7282C91.668 65.5472 92.637 62.7022 92.224 60.0792C91.494 55.4362 88.339 55.8912 86.689 50.6292C85.38 46.4652 89.003 39.8882 92.902 37.0162L96.216 40.1362C93.853 42.0732 93.88 44.9202 94.642 47.3562C95.984 51.6442 99.357 51.5162 100.142 56.9532C100.796 61.4692 97.578 68.1862 93.167 70.6852L89.828 67.7282ZM69.774 66.1032C72.002 63.9212 73.586 60.2272 72.982 57.6402C71.898 52.9992 66.265 51.9362 65.011 46.5672C63.865 41.6602 68.139 35.0122 72.035 32.1392L75.35 35.2592C72.988 37.1972 72.266 40.3082 72.963 43.2922C73.984 47.6682 79.628 49.0772 80.897 54.5152C81.936 58.9572 77.522 66.5602 73.111 69.0592L69.774 66.1032ZM49.392 67.7282C51.233 65.5472 52.201 62.7022 51.788 60.0792C51.059 55.4362 47.903 55.8912 46.252 50.6292C44.944 46.4652 48.567 39.8882 52.465 37.0162L55.78 40.1362C53.418 42.0732 53.444 44.9202 54.206 47.3562C55.547 51.6442 58.92 51.5162 59.706 56.9532C60.357 61.4692 57.142 68.1862 52.731 70.6852L49.392 67.7282Z" fill="#000000"/>
</svg>