<?xml version="1.0" encoding="utf-8"?>
<svg width="800px" height="800px" viewBox="-20 0 190 190" fill="none" xmlns="http://www.w3.org/2000/svg">
<path fill-rule="evenodd" clip-rule="evenodd" d="M117 85.5L114.41 108.17L88.66 108.35L86.25 85.5C80.15 85.5 77.89 82.35 77.89 76.16H86.25C86.32 71.47 86.89 65.51 91.52 65.47C91.52 65.47 91.52 76.16 101.64 76.16C111.76 76.16 111.75 65.47 111.75 65.47C116.38 65.47 116.96 71.47 117.02 76.16H125.38C125.38 82.35 123.13 85.5 117 85.5ZM81.38 90C81.83 93.55 83.99 112.62 83.99 112.62L101.21 114L103 147L93.25 146.63L91.25 127.22H83.57L82.22 147.39L72.45 147.32L71.08 127.52L42.29 126.72L40.5 147.53L32.35 147.39L28.46 118.53L35.4 106.41V87.06C35.4 79.67 38.58 76 46.8 76C51.57 76 58.41 76.14 71.72 76.14C71.72 83.55 76.67 90 81.38 90ZM59.08 147.49L50.78 147.76L46.27 131L57.18 131.47L59.08 147.49Z" fill="#000000"/>
</svg>