<?xml version="1.0" encoding="utf-8"?>
<svg width="800px" height="800px" viewBox="-20 0 190 190" fill="none" xmlns="http://www.w3.org/2000/svg">
<path fill-rule="evenodd" clip-rule="evenodd" d="M105.064 74.1221C104.933 77.3681 104.928 123.071 104.823 139.932C104.787 145.61 100.472 148.14 93.208 147.847C85.942 147.553 61.21 147.759 54.284 147.48C47.356 147.199 44.745 142.784 44.925 137.19C45.495 119.468 45.329 76.2451 45.558 72.5761C45.953 66.2471 48.608 63.3321 54.087 63.5551C58.505 63.7341 91.138 63.1621 96.794 63.5121C103.246 63.9101 105.302 68.2521 105.064 74.1221ZM75.359 142.818C80.943 143.044 81.158 134.112 75.315 133.876C69.585 133.644 68.736 142.551 75.359 142.818ZM75.605 74.9691L75.977 96.0701L67.251 90.9631L59.275 96.2831V74.8981L50.746 74.8611L51.979 129.243L98.252 129.577L99.595 75.0731L75.605 74.9691Z" fill="#000000"/>
</svg>