<?xml version="1.0" encoding="utf-8"?>
<svg width="800px" height="800px" viewBox="-20 0 190 190" fill="none" xmlns="http://www.w3.org/2000/svg">
<path fill-rule="evenodd" clip-rule="evenodd" d="M95.032 147.348C91.89 121.945 60.041 120.341 55.885 147.082L35.032 146.94C39.45 139.945 44.94 132.589 50.276 123.411L49.309 114.346L101.411 114.923L99.682 123.51C105.11 133.635 110.709 141.206 114.969 147.484L95.032 147.348ZM81.541 109.8L78.784 96.67L72.619 96.648L69.419 109.956L57.124 110.113C58.977 105.981 60.733 101.507 62.329 96.611L61.663 96.609L59.666 87.785L91.045 88.352L89.799 96.71L88.638 96.706C90.039 101.366 91.572 105.666 93.185 109.652L81.541 109.8ZM70.555 43.551L80.91 44.137C81.269 59.238 82.87 72.203 85.248 83.421L66.085 82.815C68.551 71.754 70.198 58.854 70.555 43.551ZM68.896 39.629L67.219 31.854L71.828 31.765L72.597 20.854H78.006L79.298 31.62L84.127 31.526L82.217 39.8L68.896 39.629Z" fill="#000000"/>
</svg>