<?xml version="1.0" encoding="utf-8"?>
<svg width="800px" height="800px" viewBox="-20 0 190 190" fill="none" xmlns="http://www.w3.org/2000/svg">
<path fill-rule="evenodd" clip-rule="evenodd" d="M84.07 89.21C74.59 89.21 75.29 76.44 83.49 76.44C91.85 76.44 92.06 89.21 84.07 89.21ZM96.4 106.27L96.47 111.27L86.64 110.75L84.23 107.2L88.03 99.6L90.81 104.87L96.4 106.27ZM99.76 140.48V70.86L52.05 71.21V120.87L62.72 119.43L71.57 97.89L66.14 97.8L58.95 109.8C58.95 109.8 54.85 108.69 56.67 104.13C58.49 99.57 62.45 91 62.45 91L76.37 90.51C76.37 90.51 83.15 91.51 85.44 94.8L80.28 110.44L88 120.87L91 138.36H91.07L82.07 147.83L72.57 147.9L85 137.09L81.32 123.76L73.78 117.06L67.44 126.67L48 126.34L47 129.45L52 131.3V141.3L44.67 147.54L32.89 147.35L32.52 62.85L117.31 63.18L117.44 147.5L93.31 147.71L99.76 140.48Z" fill="#000000"/>
</svg>