<?xml version="1.0" encoding="utf-8"?>
<svg width="800px" height="800px" viewBox="-20 0 190 190" fill="none" xmlns="http://www.w3.org/2000/svg">
<path fill-rule="evenodd" clip-rule="evenodd" d="M102.52 89.21C93.04 89.21 93.74 76.44 101.94 76.44C110.29 76.44 110.5 89.21 102.52 89.21ZM114.85 106.27L114.92 111.27L105.09 110.75L102.68 107.2L106.48 99.6L109.26 104.87L114.85 106.27ZM111.78 147.76L118.2 140.48V70.86L70.5 71.21V120.87L81.17 119.43L90 97.89L84.57 97.8L77.38 109.8C77.38 109.8 73.27 108.69 75.1 104.13C76.93 99.57 80.89 91 80.89 91L94.81 90.51C94.81 90.51 101.6 91.51 103.88 94.8L98.73 110.44L106.4 120.87L109.35 138.36H109.42L100.42 147.83L90.93 147.9L103.4 137.07L99.72 123.74L92.17 117.04L85.83 126.65L66.39 126.32L65.39 129.43L70.49 131.28V141.28L63.16 147.52L14.48 147.33V141.33C24.09 141.13 40.98 137.92 43.48 120.8C34.94 128.3 21.79 128.96 14.48 128.55L14.39 108.27C28.07 106.5 37.89 97.56 41 76.2C34.49 83.54 23.84 94.74 14.28 93.79V86.32C19.85 85.51 25.56 82.04 25.67 69.71C24.3145 71.493 22.5753 72.9482 20.5811 73.9678C18.587 74.9873 16.389 75.5452 14.15 75.6L14.09 62.9L135.77 63.23L135.91 147.55L111.78 147.76ZM20.5 116.76C42.62 126.54 44.67 103.84 58.55 99.67C31 93.27 37.34 111.93 20.5 116.79V116.76Z" fill="#000000"/>
</svg>