<?xml version="1.0" encoding="utf-8"?>
<svg width="800px" height="800px" viewBox="-20 0 190 190" fill="none" xmlns="http://www.w3.org/2000/svg">
<path fill-rule="evenodd" clip-rule="evenodd" d="M100.91 144.9L62.8 149.28C57.46 144 44 129.77 44 121C44 108 51.79 106.57 51.79 106.57L56.47 117L58.78 115.79C56 99.38 53 81.09 51.45 69.54C50.45 62.02 60.89 60.86 62.37 69.22C63.49 75.59 66.6 98.76 66.6 98.76L69.89 98.83C69.89 98.83 70.06 71.9 69.99 66.53C69.9 58.94 80.85 58.08 80.99 66.59C81.06 72.45 81.22 100.59 81.22 100.59L83.83 101.29C83.83 101.29 87.7 75.76 88.35 70.49C89.27 62.96 99.98 63.86 98.94 72.3C98.25 77.99 94.16 104.46 94.16 104.46L96.54 105.3C96.54 105.3 103.19 86.81 104.46 82.79C106.46 76.26 116.01 79.3 113.71 86.63C107.612 105.605 103.326 125.116 100.91 144.9Z" fill="#000000"/>
</svg>