<?xml version="1.0" encoding="utf-8"?>
<svg width="800px" height="800px" viewBox="-20 0 190 190" fill="none" xmlns="http://www.w3.org/2000/svg">
<path fill-rule="evenodd" clip-rule="evenodd" d="M82.73 147.4C81.62 176 56.5 170.2 56.5 159.31C56.5 150.43 65.72 150.98 65.72 150.98L69.91 158.77C69.91 158.77 73.07 161.44 73.45 148.1C44.72 145.92 42.52 109.29 63.6 99.19C61.9532 93.3834 61.079 87.385 61 81.35C61 63.16 77.33 53.46 77.33 53.46C77.33 53.46 87.52 58.15 87.52 76C87.506 84.2852 85.1823 92.4024 80.81 99.44C107.17 103.8 106.12 141.43 82.73 147.4ZM73.22 138.56C72.32 126.96 69.22 117.56 66.39 108.56C54.9 115.8 56.6 136.72 73.22 138.56ZM76.32 67.18C70.58 71.89 68.67 81.37 72.11 92.98C79.54 85.84 80 71.8 76.32 67.18ZM76.92 108.18C79.8694 117.603 81.7282 127.333 82.46 137.18C94.7 131.22 94.17 109.36 76.92 108.2V108.18Z" fill="#000000"/>
</svg>