<?xml version="1.0" encoding="utf-8"?>
<svg width="800px" height="800px" viewBox="-20 0 190 190" fill="none" xmlns="http://www.w3.org/2000/svg">
<path fill-rule="evenodd" clip-rule="evenodd" d="M145.48 69.487C139.791 69.487 140.048 61.358 145.388 61.358C150.709 61.358 150.676 69.487 145.48 69.487ZM141.271 51.031C135.583 51.031 135.841 42.902 141.181 42.902C146.502 42.902 146.469 51.031 141.271 51.031ZM141.281 73.642C148.885 73.642 148.836 85.258 141.412 85.258C133.283 85.258 133.65 73.642 141.281 73.642ZM122.922 76.551C117.234 76.551 117.49 68.422 122.832 68.422C128.152 68.422 128.119 76.551 122.922 76.551ZM120.457 63.413C112.326 63.413 112.695 51.797 120.326 51.797C127.93 51.797 127.881 63.413 120.457 63.413ZM104.27 69.487C98.581 69.487 98.838 61.358 104.178 61.358C109.498 61.358 109.465 69.487 104.27 69.487ZM85.861 71.731L85.707 70.152L81.846 71.036C82.946 77.926 87.653 84.33 90.295 87.515L87.793 89.864C82.529 87.731 77.525 77.841 77.525 77.841H74.859L74.039 86.129L60.521 86.773C60.521 86.773 59.322 71.265 54.572 68.494C56.75 66.317 58.334 62.604 58.334 62.604L85.023 63.165L84.814 61.034L92.605 60.337L92.373 72.43L85.861 71.731ZM74.502 93.191L78.99 99.935C76.291 113.098 77.365 122.123 86.773 125.472L90.099 147.097L48.923 147.047C48.277 125.829 49.573 103.699 60.796 92.787L74.502 93.191Z" fill="#000000"/>
</svg>