<?xml version="1.0" encoding="utf-8"?>
<svg width="800px" height="800px" viewBox="-20 0 190 190" fill="none" xmlns="http://www.w3.org/2000/svg">
<path fill-rule="evenodd" clip-rule="evenodd" d="M118.923 96.69L113.866 103.26L74.886 74.07L36.364 103.592L31.078 97.008L74.901 61.521L92.406 75.505L93.011 65.326L106.789 65.858L106.462 86.735L118.923 96.69ZM44.043 104.437L75.232 80.771L106.967 104.009L106.154 136.558L114.955 136.371L114.553 147.01H36.642V138.032L44.56 137.864L44.043 104.437ZM52.946 123.275L74.306 122.771L74.317 111.967L52.538 111.798L52.946 123.275ZM97.757 112.149L83.163 112.036L83.791 137.032L97.167 136.748L97.757 112.149Z" fill="#000000"/>
</svg>