<?xml version="1.0" encoding="utf-8"?>
<svg width="800px" height="800px" viewBox="-20 0 190 190" fill="none" xmlns="http://www.w3.org/2000/svg">
<path fill-rule="evenodd" clip-rule="evenodd" d="M40.789 68.9188L37.184 47.7038L49.012 61.2218L40.789 68.9188ZM101 61.8558L112.197 51.2698L108.047 69.1668L101 61.8558ZM115.961 71.2548L114.038 76.3818L117.192 85.2398L114.953 87.0498L112.192 82.9318L96.04 110.299C95.467 111.647 95.125 112.449 95.125 112.449L89.528 112.556L95.609 93.7678L93.497 88.0798L88.237 91.9368L83.573 112.671L78.448 112.77L77.03 84.2848L73.033 79.2178L69.352 84.8258L72.236 112.889L67.418 112.982L63.314 96.5218L58.343 93.1938L56.106 98.9238L61.125 113.103L55.157 113.218L54.486 111.563L37.596 81.7998L33.641 83.8168L31.75 81.4228L36.796 76.2998L30.408 67.1438C30.182 63.7688 32.927 62.2788 36.186 62.9328L40.368 74.5118L47.38 73.3798L48.233 76.3768L44.983 78.0338L47.991 83.3668C50.893 83.1718 53.196 81.4788 54.801 78.0488L51.878 69.6878L48.375 70.6998C46.782 65.8108 51.868 62.3468 51.868 62.3468L49.993 55.1388L48.026 55.1048C46.41 49.4088 54.572 47.0918 56.163 52.6978L54.574 53.8058L56.706 60.9398C56.706 60.9398 62.453 60.9658 64.189 66.1298L61.273 66.9728L62.77 72.0828C65.449 72.5108 68.269 71.7648 70.587 69.9388L70.661 63.1378L66.359 63.1538L65.783 59.6478L72.554 57.7208L73.062 50.4058C69.862 48.6088 70.693 43.0398 74.929 42.9028C79.506 42.7568 80.36 48.9608 77.128 50.5818L77.755 57.3518L84.369 59.6618L83.746 63.0918L79.66 63.1068L79.644 68.8238C82.202 71.0478 85.307 71.9068 88.523 71.4838L89.858 67.5948L86.141 64.2008L88.204 61.5358L93.296 62.6098C93.296 62.6098 94.865 55.7318 95.449 53.5638C96.547 49.4858 102.991 51.7168 101.422 55.1678C100.289 57.6618 97.662 63.8918 97.662 63.8918L102.634 67.1668L102.375 70.2388L97.573 70.4158L95.1 76.8898C96.31 80.9778 98.739 83.1658 102.327 83.4098L104.825 79.1748L100.563 78.9868L101.018 75.8328L109.333 74.1388L112.14 69.6208C109.979 66.7488 113.44 61.5738 117.484 63.6888C121.219 65.6418 119.584 70.9758 115.961 71.2548ZM79.986 54.0348L90.385 36.4548L90.313 59.4078L79.986 54.0348ZM60.525 36.2778L69.571 53.9278L59.687 57.0258L60.525 36.2778ZM41.648 108.542L47.979 108.077L52.765 116.191L52.645 122.894H56.556L59.144 117.276L90.812 117.961L93.085 122.895H96.996L96.894 117.221L102.186 108.542H109.215L108.75 125.555L115.39 147.251L37.13 147.483L42.113 125.089L41.648 108.542Z" fill="#000000"/>
</svg>