<?xml version="1.0" encoding="utf-8"?>
<svg width="800px" height="800px" viewBox="-20 0 190 190" fill="none" xmlns="http://www.w3.org/2000/svg">
<path fill-rule="evenodd" clip-rule="evenodd" d="M110.16 123.68L107.74 130.45C107.74 130.45 99.84 129.02 93.07 130.61C86.3 132.2 57.63 143.09 57.63 143.09C57.63 143.09 54.24 146.61 51.96 149.09C48.36 153.21 41.96 151.24 43.88 142.83C42.02 141.12 39.88 136.92 39.88 136.92L43.6 131.92C43.6 131.92 49.6 136.78 55.22 135.22C56.94 134.74 61.13 133.33 66.11 131.61C61.75 129.34 58.24 127.52 56.93 126.87C50.93 123.87 50.08 126.87 44.68 126.11C41.62 125.66 39.09 118.5 44.6 117.73C42.9 115.44 45.38 109.96 45.38 109.96L51.38 108.34C51.38 108.34 52.32 115.97 61.67 120.83C64.3 122.19 70 125.26 75.67 128.26C84.48 125.14 92.67 122.19 92.67 122.19C92.67 122.19 97.55 115.47 98.92 113.04C105.53 110.32 108.71 116.18 105.68 120.04C107.9 120.44 110.16 123.68 110.16 123.68ZM88.66 116.37L64.9 116C65.9 103 64.52 100.6 55.08 97.3C50.65 82.54 58.15 59.56 83.32 62.65C108.49 65.74 108.7 88.26 102.13 101.51C91.3 102.26 89.87 105.43 88.66 116.37ZM72.24 82.9C62.82 81.74 60.61 96 70.64 97.21C79.81 98.34 81.62 84.05 72.24 82.9ZM89.94 88.2C83.35 87.39 81.8 97.35 88.82 98.2C95.23 99 96.5 89 89.94 88.2ZM87.09 137.88L89.72 135.27C99.46 139.19 104.98 135.86 104.98 135.86L108.75 141.74C108.75 141.74 106.39 146.47 103.66 146.92C107.75 152.36 100.51 157.09 97.01 154.54C95.15 149.66 93.62 145.99 93.62 145.99L82.26 139.99L84.16 137.33L87.09 137.88Z" fill="#000000"/>
</svg>