<?xml version="1.0" encoding="utf-8"?>
<svg width="800px" height="800px" viewBox="-20 0 190 190" fill="none" xmlns="http://www.w3.org/2000/svg">
<path fill-rule="evenodd" clip-rule="evenodd" d="M82.884 127.67L82.738 147.484L78.821 147.422C78.635 165.726 66.966 170.29 66.966 170.29L64.184 167.54C64.184 167.54 71.932 163.296 71.694 147.308L67.23 147.237L67.083 127.529L61.166 127.476L60.703 90.072L89.335 90.426L88.844 127.725L82.884 127.67ZM63.122 68.518C63.085 65.879 63.616 63.357 67.529 63.357C71.442 63.357 80.331 63.336 83.446 63.336C86.561 63.336 87.452 65.674 87.47 68.118C87.51 73.477 87.573 84.765 87.573 84.765L63.315 84.89C63.315 84.891 63.199 73.923 63.122 68.518ZM67.682 73.514L82.94 73.361L82.987 68.576L67.644 68.706L67.682 73.514ZM65.411 57.795L62.96 41.678L57.524 41.068L54.622 22.067L68.054 20.843L66.853 33.807L71.622 34.627L65.411 57.795Z" fill="#000000"/>
</svg>