<?xml version="1.0" encoding="utf-8"?>
<svg width="800px" height="800px" viewBox="-20 0 190 190" fill="none" xmlns="http://www.w3.org/2000/svg">
<path fill-rule="evenodd" clip-rule="evenodd" d="M106.392 70.8881L128.622 68.9491L130.348 76.5261L107.104 77.5981L106.392 70.8881ZM97.195 54.4861L106.094 46.0451L110.986 51.5301L100.936 58.9101L97.195 54.4861ZM79.743 46.3021L84.5 22.5991L91.164 24.2981L85.291 47.8911L79.743 46.3021ZM54.016 36.1371L61.25 33.9901L63.797 45.5611L58.313 47.4091L54.016 36.1371ZM23.575 47.8551L27.143 41.3761L44.167 54.2621L40.539 59.1851L23.575 47.8551ZM34.556 82.3281L22.115 83.3351L21.921 75.4151L34.027 76.3701L34.556 82.3281ZM110.112 87.0911L106.607 93.8901L102.915 91.1141L104.292 147.767L47.447 147.24L48.02 73.7261H42.757V65.1321L80.779 64.4711L110.112 87.0911ZM84.339 140.197L95.327 140.26L95.824 85.7831L83.092 76.2101L84.339 140.197ZM54.991 73.7261V140.028L75.51 140.146L75.999 73.7261H54.991ZM58.546 90.6141C58.546 85.9331 62.791 85.3381 64.697 87.8791C67.172 85.5391 70.979 86.1381 70.979 90.7181C70.979 94.6641 64.707 98.1311 64.707 98.1311C64.707 98.1311 58.546 94.5931 58.546 90.6141Z" fill="#000000"/>
</svg>