<?xml version="1.0" encoding="utf-8"?>
<svg width="800px" height="800px" viewBox="-20 0 190 190" fill="none" xmlns="http://www.w3.org/2000/svg">
<path d="M44.947 137.384C49.342 102.906 52.017 89.3318 54.017 75.9158C56.017 62.4998 69.05 56.1208 82.788 58.3078C96.829 60.5428 106.573 68.6518 104.985 83.4808C103.397 98.3098 97.87 131.142 97.87 131.142L89.974 130.314C89.974 130.314 95.204 95.3308 96.691 83.8688C98.181 72.4068 89.211 67.4318 82.003 66.4868C71.442 65.0988 62.39 70.3778 61.458 78.1218C60.526 85.8658 56.071 113.747 52.425 137.97C50.974 147.613 74.282 151.992 75.929 139.634C76.327 136.644 80.931 96.7848 81.675 90.6608C82.097 87.1728 78.536 86.3898 77.925 86.3148C74.577 85.9068 73.183 87.8258 72.927 89.9408C73.13 88.2568 69.728 129.877 69.728 129.877L61.902 128.805C61.902 128.805 65.222 86.7868 65.084 87.9388C65.861 81.5248 72.195 77.6588 78.672 78.4458C85.889 79.3228 90.233 85.3148 89.526 91.1268C88.799 97.1078 84.182 137.241 83.799 140.38C81.33 160.634 42.598 155.817 44.947 137.384Z" fill="#000000"/>
</svg>