<?xml version="1.0" encoding="utf-8"?>
<svg width="800px" height="800px" viewBox="-20 0 190 190" fill="none" xmlns="http://www.w3.org/2000/svg">
<path fill-rule="evenodd" clip-rule="evenodd" d="M108.007 146.879C94.475 146.879 76.933 146.789 65.611 146.789C45.256 146.789 42.983 119.514 59.357 113.6C59.276 101.645 65.991 89.6062 79.618 86.7282C76.086 80.9452 69.606 76.9492 60.551 78.1002C41.985 80.4612 38.853 101.913 49.991 111.499L45.947 116.607C30.778 103.715 35.01 74.2502 59.601 71.1242C73.075 69.4112 82.341 76.5892 86.554 86.0852C99.353 86.2732 107.697 93.5022 111.327 102.63C137.834 105.354 138.156 146.879 108.007 146.879ZM106.847 109.74C105.285 100.715 98.309 92.6462 86.281 92.6462C70.468 92.6462 64.47 107.235 66.97 118.994C50.761 118.994 52.316 140.551 66.503 140.551C76.477 140.551 96.571 140.208 108.577 140.208C129.548 140.208 129.322 107.674 106.847 109.74ZM85.188 72.7842L93.556 64.8462L98.474 70.3222L89.023 77.2602L85.188 72.7842ZM68.778 65.4052L71.96 50.3862L78.546 51.9852L74.313 66.8992L68.778 65.4052ZM44.587 56.2672L51.708 54.2482L55.36 64.7082L49.887 66.4452L44.587 56.2672ZM22.837 71.6562L26.511 65.2482L39.101 74.3222L36.261 79.5652L22.837 71.6562ZM30.952 99.4172L19.255 100.364L19.072 92.7812L30.455 93.6782L30.952 99.4172ZM39.717 119.319L28.226 130.211L23.519 123.926L35.933 114.813L39.717 119.319Z" fill="#000000"/>
</svg>