<?xml version="1.0" encoding="utf-8"?>
<svg width="800px" height="800px" viewBox="-20 0 190 190" fill="none" xmlns="http://www.w3.org/2000/svg">
<path fill-rule="evenodd" clip-rule="evenodd" d="M115.43 113.84L97.75 112.92C99.25 124.55 104.55 135.41 113.75 142.03L106.05 149.85C90.78 143.79 82.56 128.66 80.98 112.34L67.68 112.15C66.09 128.7 57.84 144.07 42.55 150.15L34.55 142.01C43.78 135.27 49.11 124.14 50.55 112.28L33.66 112.68V97.1598L50.31 97.6398C48.6 86.4298 43.31 75.9198 34.53 69.2098L43.81 60.7998C57.37 67.5398 65.35 82.1698 67.44 97.7998L81.36 97.6498C83.58 82.2098 91.63 67.7998 105.19 61.0898L113.83 69.1798C105.18 75.7998 99.94 86.1098 98.13 97.1798L116.52 96.3098L115.43 113.84Z" fill="#000000"/>
</svg>