<?xml version="1.0" encoding="utf-8"?>
<svg width="800px" height="800px" viewBox="-20 0 190 190" fill="none" xmlns="http://www.w3.org/2000/svg">
<path fill-rule="evenodd" clip-rule="evenodd" d="M111.381 133.834L126.196 133.98L137.148 147.482L111.773 147.422L111.381 133.834ZM93.338 113.315L109.526 113.426L120.755 127.27L93.764 127.206L93.338 113.315ZM76.625 93.5481L93.562 93.7411L104.318 107.003L76.825 107.01L76.625 93.5481ZM72.959 68.3391L88.308 87.2641L58.411 87.9811L72.959 68.3391ZM70.408 107.011L44.31 107.017L54.474 93.2951L70.845 93.4821L70.408 107.011ZM54.913 127.114L29.47 127.053L39.917 112.948L55.376 113.054L54.913 127.114ZM36.681 147.243L14.553 147.19L25.075 132.985L37.118 133.103L36.681 147.243ZM70.962 133.437L69.909 147.323L43.161 147.259L43.376 133.165L70.962 133.437ZM60.914 113.093L86.912 113.271L86.455 127.189L61.345 127.129L60.914 113.093ZM104.941 133.771L104.519 147.405L77.159 147.34L77.369 133.5L104.941 133.771Z" fill="#000000"/>
</svg>