<?xml version="1.0" encoding="utf-8"?>
<svg width="800px" height="800px" viewBox="-20 0 190 190" fill="none" xmlns="http://www.w3.org/2000/svg">
<path fill-rule="evenodd" clip-rule="evenodd" d="M113.789 121.878L87.436 112.475C90.323 107.006 90.343 100.005 86.389 94.8971L106.953 76.6161C118.398 89.2261 119.788 107.042 113.789 121.878ZM71.037 114.927C58.706 111.623 63.832 92.8041 75.874 96.0311C89.06 99.5631 83.415 118.243 71.037 114.927ZM32.719 91.3081C37.286 77.5521 47.757 65.8621 62.397 62.4121L68.396 88.9281C63.217 90.4371 59.544 94.7701 57.974 99.7911L32.719 91.3081ZM68.905 120.359C70.848 120.88 72.691 121.073 74.418 120.993L80.601 148.852C74.865 149.656 68.589 149.309 61.869 147.508C51.371 144.695 43.707 139.364 38.543 132.68L61.282 116.052C63.142 117.97 65.657 119.489 68.905 120.359Z" fill="#000000"/>
</svg>