<?xml version="1.0" encoding="utf-8"?>
<svg width="800px" height="800px" viewBox="-20 0 190 190" fill="none" xmlns="http://www.w3.org/2000/svg">
<path fill-rule="evenodd" clip-rule="evenodd" d="M113.201 101.308C109.429 100.845 87.44 98.1451 83.726 97.6891C75.474 96.6761 67.863 102.884 67.863 102.884C67.863 102.884 55.812 101.543 51.686 101.036C37.933 99.3481 33.473 90.1931 34.916 78.4331C41.253 79.2111 123.527 88.2661 123.527 88.2661C123.527 88.2661 122.485 102.447 113.201 101.308ZM46.579 104.651C52.966 105.435 70.598 107.329 70.598 107.329C70.598 107.329 75.939 101.251 85.839 102.467C87.465 102.667 93.151 103.364 99.708 104.17C99.377 106.881 99.061 109.467 98.854 111.149C98.108 117.232 93.981 118.743 87.037 117.89C84.883 117.625 78.833 116.829 71.516 115.858C70.204 119.494 66.766 122.32 61.373 121.658C56.367 121.044 53.875 117.381 53.568 113.465C42.352 111.965 32.714 110.67 32.714 110.67L34.428 96.7101C37.524 101.592 42.119 104.103 46.579 104.651ZM43.427 133.445C46.031 133.467 48.939 133.486 51.481 133.486C58.559 133.486 58.919 131.405 58.919 128.009C58.919 127.221 59.038 126.443 59.038 126.443L67.038 126.23C67.038 126.23 66.919 126.947 66.919 128.009C66.919 136.951 61.725 141.486 51.481 141.486C48.928 141.486 46.009 141.467 43.396 141.445C42.084 145.717 38.627 149.182 33 149.182L33.017 125.581C38.675 125.582 42.141 129.115 43.427 133.445ZM115.297 106.083L113.818 116.087L104.492 114.58L104.648 104.775C108.341 105.229 112.057 105.686 115.297 106.083Z" fill="#000000"/>
</svg>