<?xml version="1.0" encoding="utf-8"?>
<svg width="800px" height="800px" viewBox="-20 0 190 190" fill="none" xmlns="http://www.w3.org/2000/svg">
<path fill-rule="evenodd" clip-rule="evenodd" d="M103.772 147.5C90.794 147.5 73.974 147.414 63.117 147.414C55.119 147.414 50.033 143.022 47.894 137.449C45.3 137.444 42.823 137.439 40.633 137.439C21.113 137.439 18.934 111.283 34.636 105.613C34.546 92.4712 43.02 79.2222 60.224 79.2222C69.835 79.2222 76.876 83.3272 81.232 89.2322C81.716 89.2112 82.208 89.1982 82.708 89.1982C95.26 89.1982 103.429 96.1992 106.955 105.068C132.375 107.68 132.683 147.5 103.772 147.5ZM102.706 112.258C101.237 103.766 94.673 96.1742 83.355 96.1742C68.476 96.1742 62.833 109.901 65.187 120.965C49.935 120.965 50.73 141.063 64.08 141.063C73.465 141.063 92.668 140.74 103.963 140.74C123.694 140.739 123.853 110.314 102.706 112.258ZM42.548 148.855C46.053 154.628 48.64 161.853 48.152 166.889C47.224 176.451 32.119 174.8 32.937 165.378C33.38 160.271 37.619 153.638 42.548 148.855ZM64.072 161.411C67.577 167.184 70.164 174.409 69.675 179.445C68.747 189.007 53.642 187.356 54.46 177.933C54.903 172.826 59.142 166.193 64.072 161.411ZM94.753 153.657C98.258 159.43 100.845 166.656 100.357 171.692C99.429 181.254 84.324 179.603 85.142 170.18C85.585 165.071 89.825 158.439 94.753 153.657Z" fill="#000000"/>
</svg>