<?xml version="1.0" encoding="utf-8"?>
<svg width="800px" height="800px" viewBox="-20 0 190 190" fill="none" xmlns="http://www.w3.org/2000/svg">
<path fill-rule="evenodd" clip-rule="evenodd" d="M117.71 109.34C113.55 110.58 106.9 112.47 103.09 113.55L102.32 117.42C105.89 118.42 110.5 120.78 113.62 128.56L105.75 139.23C105.75 139.23 109.98 139.56 115.16 139.71C119.71 139.83 119.04 147.01 119.04 147.01H69.56C69.56 147.01 64.73 120.23 87.09 102.01C86.2 91.29 87.45 83.66 91.54 79.11L91.6 66.87L101.75 74.37C111.14 73.92 117.6 83.88 118.48 91.04L106.59 95.83L105.2 102.83L114.12 102.47L117 96.8C124 99.53 126 106.85 117.71 109.34ZM63.71 146.65C51.51 145.2 43.09 138.65 43.09 125.37C43.09 110.62 52.02 77.97 24.32 82.21L22.8 78.88C27.14 69.59 36.02 59.88 50.9 59.88C67.35 59.88 75.52 70.08 75.52 88.95C75.52 110.68 60.43 112.17 63.75 146.65H63.71Z" fill="#000000"/>
</svg>