<?xml version="1.0" encoding="utf-8"?>
<svg width="800px" height="800px" viewBox="-20 0 190 190" fill="none" xmlns="http://www.w3.org/2000/svg">
<path fill-rule="evenodd" clip-rule="evenodd" d="M79 80.1398L71.78 63.5798C94.6 56.2498 112.31 67.2398 112.31 90.2698H78.1L79 80.1398ZM97.63 114.47C96.06 114.47 93.99 114.47 91.63 114.47L71.84 95.4398H112.53C112.53 106.74 105.42 114.47 97.58 114.47H97.63ZM97.57 121.24C114.64 121.24 115.07 147.53 98.76 147.53C85.49 147.53 81.99 135.17 86.49 127.4L79.49 120.4L72.23 127.67C76.52 135.45 73.16 147.52 62.11 147.52C42.75 147.52 44.17 121.23 60.92 121.23C62.6664 121.218 64.3996 121.534 66.03 122.16L73.78 114.7C67.87 114.77 62.4 114.82 59.06 114.82C47.99 114.82 43.86 105.52 43.86 95.4398H54.44L39.22 80.2298C33.52 74.5098 43.12 69.0998 48.41 71.6898L48.69 79.2498L92.31 122.25C93.9628 121.572 95.7336 121.229 97.52 121.24H97.57ZM61.41 139.87C68.21 139.87 68.03 128.87 60.92 128.87C53.81 128.87 53.35 139.87 61.41 139.87ZM98.06 139.87C104.86 139.87 104.68 128.87 97.57 128.87C90.46 128.87 90 139.87 98.06 139.87Z" fill="#000000"/>
</svg>