<?xml version="1.0" encoding="utf-8"?>
<svg width="800px" height="800px" viewBox="-20 0 190 190" fill="none" xmlns="http://www.w3.org/2000/svg">
<path fill-rule="evenodd" clip-rule="evenodd" d="M45.704 77.4471C45.704 69.9301 48.966 65.4601 56.994 65.4601C63.911 65.4611 87.986 65.7091 93.381 65.7081C100.851 65.7081 104.024 68.7561 104.024 77.6171C104.024 82.1041 104.296 139.19 104.296 139.19L45.765 139.732C45.765 139.731 45.704 81.4111 45.704 77.4471ZM89.955 93.8641C100.705 93.8641 100.423 76.6911 89.175 76.6911C78.141 76.6911 77.203 93.8641 89.955 93.8641ZM82.047 114.262L88.207 102.442L67.729 94.4521L63.733 105.939L82.047 114.262ZM82.802 63.3421L82.326 46.9331L67.18 47.6741L66.254 63.5271L61.338 62.7871L60.677 38.9441H89.077L87.781 63.3421H82.802ZM57.36 142.737L57.747 147.426L51.158 147.482L51.182 142.543L57.36 142.737ZM98.765 142.737L99.153 147.676L92.564 147.483L92.588 142.544L98.765 142.737Z" fill="#000000"/>
</svg>