<?xml version="1.0" encoding="utf-8"?>
<svg width="800px" height="800px" viewBox="-20 0 190 190" fill="none" xmlns="http://www.w3.org/2000/svg">
<path fill-rule="evenodd" clip-rule="evenodd" d="M108.092 98.5299L124.989 96.4959L125.674 103.881L108.838 105.006L108.092 98.5299ZM98.441 80.7619L107.777 71.9059L112.91 77.6599L102.367 85.4009L98.441 80.7619ZM80.135 72.1759L83.686 55.4199L90.678 57.2029L85.955 73.8429L80.135 72.1759ZM75.604 135.899C32.637 136.084 35.545 78.2069 72.725 78.0469C110.625 77.8839 111.83 135.743 75.604 135.899ZM72.822 85.4999C44.024 85.6239 42.287 129.139 75 128.998C102.581 128.88 102.18 85.3739 72.822 85.4999ZM53.146 61.9799L60.737 59.7279L64.811 71.3989L59.059 73.3369L53.146 61.9799ZM28.88 78.7949L32.624 71.9999L46.671 82.1239L43.856 87.6189L28.88 78.7949ZM37.58 109.768L24.529 110.825L24.325 102.718L37.025 103.72L37.58 109.768ZM47.664 131.311L34.845 143.463L29.947 136.805L43.798 126.638L47.664 131.311ZM69.299 143.914L68.602 157.021L59.883 156.101L63.559 142.946L69.299 143.914ZM101.357 152.211L93.91 155.781L86.264 140.545L92.758 137.685L101.357 152.211ZM118.523 127.558L115.075 134.249L102.726 126.319L105.73 121.007L118.523 127.558Z" fill="#000000"/>
</svg>