<?xml version="1.0" encoding="utf-8"?>
<svg width="800px" height="800px" viewBox="-20 0 190 190" fill="none" xmlns="http://www.w3.org/2000/svg">
<path fill-rule="evenodd" clip-rule="evenodd" d="M116.59 72.926L97.271 73.217L97.286 66.287L116.621 64.541L116.59 72.926ZM109.676 86.215L97.242 86.309L97.256 80.026L109.699 79.937L109.676 86.215ZM109.629 99.033L97.215 99.56L97.229 92.815L109.652 92.904L109.629 99.033ZM116.454 113.406L97.189 111.822L97.203 105.4L116.474 105.543L116.454 113.406ZM100.871 118.498L101.547 125.757L48.172 126.59L48.397 119.221L56.562 119.108L56.753 69.213C56.753 65.267 63.09 62.912 70.409 62.213L70.504 38.226L78.677 32.141L78.873 62.138C86.086 62.703 92.281 64.914 92.282 68.856L92.224 118.618L100.871 118.498ZM64.131 73.369L63.926 119.006L84.694 118.721L84.958 73.647C84.957 67.643 64.131 68.826 64.131 73.369ZM68.758 89.387L80.417 86.86V114.188H68.758V89.387ZM67.961 139.756L67.782 130.195L80.713 129.97L80.392 139.847L89.697 139.916L92.102 147.767L56.29 147.992L59.138 139.691L67.961 139.756Z" fill="#000000"/>
</svg>