<?xml version="1.0" encoding="utf-8"?>
<svg width="800px" height="800px" viewBox="-20 0 190 190" fill="none" xmlns="http://www.w3.org/2000/svg">
<path fill-rule="evenodd" clip-rule="evenodd" d="M85.483 144.296L85.522 141.875L88.308 139.036C88.308 139.036 88.45 127.464 88.45 124.819C88.45 120.89 85.882 116.807 81.163 116.173C81.163 115.09 81.164 114.019 81.167 112.959H98.769L98.999 144.933C98.501 153.969 84.942 152.517 85.483 144.296ZM98.377 58.3071L98.744 109.416H81.183C81.385 78.3731 83.409 58.3071 98.377 58.3071ZM67.794 144.932C68.182 153.64 53.128 152.714 53.611 144.296C54.094 135.878 55.45 107.316 55.45 103.386C55.45 99.4561 47.727 95.6341 47.727 95.6341L50.947 58.8111L54.681 58.9331L54.055 84.9711L57.949 85.0381L59.071 58.9071L63.1 59.1721L63.53 85.1341L67.324 85.1991L66.944 59.3321L71.406 59.4771L73.56 96.2101C73.56 96.2101 66.175 99.5481 66.175 103.356C66.174 107.162 67.408 136.224 67.794 144.932Z" fill="#000000"/>
</svg>