<?xml version="1.0" encoding="utf-8"?>
<svg width="800px" height="800px" viewBox="-20 0 190 190" fill="none" xmlns="http://www.w3.org/2000/svg">
<path fill-rule="evenodd" clip-rule="evenodd" d="M83.362 100.111C79.679 100.111 73.03 100.252 66.384 100.302C62.449 87.4342 86.714 87.3682 83.362 100.111ZM112.516 147.517C99.925 147.506 58.187 146.53 36.677 146.53C36.677 103.171 84.241 91.6982 104.144 118.299C103.622 103.513 98.598 83.6912 73.203 83.6912C67.5 83.6912 57.421 86.2852 57.421 86.2852L55.282 80.2972C55.282 80.2972 63.416 75.8662 73.203 75.8662C106.046 75.8662 116.482 97.9772 116.482 119.773C116.482 128.258 115.062 137.585 112.762 147.647C112.685 147.602 112.602 147.559 112.516 147.517ZM30.682 109.068L39.715 100.489L49.953 107.684L37.592 120.175L30.682 109.068Z" fill="#000000"/>
</svg>