<?xml version="1.0" encoding="utf-8"?>
<svg width="800px" height="800px" viewBox="-20 0 190 190" fill="none" xmlns="http://www.w3.org/2000/svg">
<path fill-rule="evenodd" clip-rule="evenodd" d="M103.78 99.59C99.87 104.81 110.72 135.59 92.4 149.59L86.6 145.82C92.99 105.82 57.01 107.43 63.77 145.82L58.49 149.59C39.84 134.48 49.35 103.38 45.62 99C38.62 90.9 37.34 78.78 52.16 64C57.66 58.5 65.74 67 74.34 67C82.94 67 92.78 58.09 98.73 64C112.14 77.41 111.83 88.87 103.78 99.59ZM95.25 71.3C91.44 67.49 85.76 70.82 80.06 72.72C82.0867 74.8852 83.8122 77.3138 85.19 79.94L80.61 81.71C78.32 78.18 72.52 74.36 68.49 72.59C63.49 70.76 58.87 67.9 55.49 71.3C50.04 76.75 47.22 81.3 47.22 85.74C47.22 92.64 52.87 96.37 53.53 102.74C69.4 110.06 77.45 93.9 95.58 101.91C95.58 94.76 102.42 91.71 102.42 85.52C102.4 80.85 100.18 76.23 95.25 71.3Z" fill="#000000"/>
</svg>