<?xml version="1.0" encoding="utf-8"?>
<svg width="800px" height="800px" viewBox="-20 0 190 190" fill="none" xmlns="http://www.w3.org/2000/svg">
<path fill-rule="evenodd" clip-rule="evenodd" d="M124.046 130.679L124.038 139.261L115.975 146.596L98.574 146.847L96.119 140.854L91.72 137.15L93.044 122.724L98.622 122.669L105.414 114.852L120.85 119.887L120.597 128.276L124.046 130.679ZM107.172 120.595L102.908 124.601L106.012 126.635L112.949 122.644L107.172 120.595ZM118.332 132.557L110.266 128.625L106.043 131.098L100.076 128.547L96.549 136.305L108.054 136.129L109.968 140.914L113.531 141.787L115.801 137.416L119.556 136.75L118.332 132.557ZM44.675 78.7979L105.283 78.0869L105.496 89.6459L45.683 89.2439L44.675 78.7979ZM80.553 73.7809V69.7139L68.975 69.5749V73.7239L60.739 73.6829C60.739 73.6829 60.553 70.6239 60.496 68.1359C60.39 63.6039 63.116 61.4909 68.29 61.3169C70.745 61.2339 78.057 61.4029 81.129 61.4029C86.698 61.4029 88.896 63.5959 88.924 67.2479C88.944 69.7779 88.736 73.8219 88.736 73.8219L80.553 73.7809ZM101.579 112.224L92.73 118.221C93.056 112.54 93.354 107.375 93.486 105.12C93.83 99.2429 86.617 99.5889 86.642 104.943C86.656 107.78 86.75 129.429 86.783 136.946L87.127 136.926L86.9 139.781L92.333 146.749L51.527 147.481L49.694 94.3249L102.227 94.3629L101.579 112.224ZM58.947 105.383C58.947 108.592 59.684 132.762 59.861 138.483L65.506 138.161C65.581 132.882 65.908 109.672 65.908 105.103C65.908 99.5069 58.947 99.4179 58.947 105.383ZM73.003 105.311C73.325 108.372 73.65 130.795 73.743 137.69L79.566 137.358C79.672 130.08 79.964 109.835 79.964 105.03C79.965 99.1449 72.443 99.9859 73.003 105.311Z" fill="#000000"/>
</svg>