<?xml version="1.0" encoding="utf-8"?>
<svg width="800px" height="800px" viewBox="-20 0 190 190" fill="none" xmlns="http://www.w3.org/2000/svg">
<path fill-rule="evenodd" clip-rule="evenodd" d="M90.62 147.24C80.3 147.24 65.62 146.72 55.83 146.72C37.52 146.72 32.55 135.89 32.55 122.12C32.55 108.35 32.82 93.1198 32.82 87.8998C32.82 72.4298 39.67 63.8398 56.65 63.8398C62.93 63.8398 86.55 63.7798 94.59 63.7798C110.04 63.7798 117.45 70.1598 117.45 88.8398C117.45 93.4498 117.11 102.08 117.11 126.01C117.11 141.06 110 147.24 90.62 147.24ZM106.62 93.7298L96 86.1698L80.38 103.39L80.86 88.0898L66.3 87.8498L68 93.4398L68.34 110.44C63.04 109.52 56.58 96.2298 56.99 88.4398L43.12 88.6298C46.5 116.04 66.76 129.35 79.69 127.47L80 117.35C81 116.87 82.36 116.13 84 115.15L93.35 127.42L108.73 126.59L94 108C98.9452 103.948 103.209 99.1306 106.63 93.7298H106.62Z" fill="#000000"/>
</svg>