<?xml version="1.0" ?>
<svg width="800px" height="800px" viewBox="0 0 32 32" data-name="Layer 10" id="Layer_10" xmlns="http://www.w3.org/2000/svg"><defs><style>
      .cls-1 {
        stroke-width: .75px;
      }

      .cls-1, .cls-2 {
        fill: none;
        stroke: #000000;
        stroke-miterlimit: 10;
      }

      .cls-2 {
        stroke-width: .72px;
      }
    </style></defs><line class="cls-1" x1="20.09" x2="17.31" y1="20.32" y2="30.35"/><line class="cls-1" x1="11.91" x2="14.68" y1="20.32" y2="30.35"/><line class="cls-1" x1="12.18" x2="19.03" y1="21.31" y2="24.16"/><line class="cls-1" x1="19.8" x2="12.96" y1="21.31" y2="24.16"/><line class="cls-1" x1="12.96" x2="18.49" y1="24.16" y2="26.11"/><line class="cls-1" x1="19.15" x2="13.62" y1="24.2" y2="26.15"/><line class="cls-1" x1="13.57" x2="17.8" y1="26.31" y2="28.58"/><line class="cls-1" x1="18.58" x2="14.34" y1="26.31" y2="28.58"/><rect class="cls-1" height="18.78" rx="1.81" ry="1.81" width="24.98" x="3.51" y="6"/><path class="cls-1" d="M20.3,19.95c0,.82-1.92,1.49-4.3,1.49s-4.3-.67-4.3-1.49c0-.12,.04-.24,.12-.35,.46-.66,2.15-1.14,4.18-1.14s3.72,.48,4.18,1.14c.08,.11,.12,.23,.12,.35Z"/><path class="cls-2" d="M22.13,11.72v7.88h-1.66c-.49-.66-2.3-1.14-4.47-1.14s-3.98,.48-4.47,1.14h-1.67v-7.88h12.26Z"/></svg>