<?xml version="1.0" encoding="UTF-8" standalone="no"?>

<svg width="800px" height="800px" viewBox="-21.5 0 128 128" version="1.1" xmlns="http://www.w3.org/2000/svg" xmlns:xlink="http://www.w3.org/1999/xlink">
    
    <title>iPad</title>
    <desc>Created with Sketch.</desc>
    <defs>

</defs>
    <g id="Page-1" stroke="none" stroke-width="1" fill="none" fill-rule="evenodd">
        <g id="Apple-Icons" transform="translate(-766.000000, -224.000000)" fill="#000000">
            <g id="128px" transform="translate(120.000000, 224.000000)">
                <path d="M728,120 C728,123.308 725.308,126 722,126 L654,126 C650.692,126 648,123.308 648,120 L648,8 C648,4.692 650.692,2 654,2 L722,2 C725.308,2 728,4.692 728,8 L728,120 Z M731,19 L731,17 C731,16.45 730.55,16 730,16 L730,8 C730,3.6 726.4,0 722,0 L654,0 C649.6,0 646,3.6 646,8 L646,120 C646,124.4 649.6,128 654,128 L722,128 C726.4,128 730,124.4 730,120 L730,36 C730.55,36 731,35.55 731,35 L731,25 C731,24.45 730.55,24 730,24 L730,20 C730.55,20 731,19.55 731,19 L731,19 Z M688,8 C688.552,8 689,7.552 689,7 C689,6.448 688.552,6 688,6 C687.448,6 687,6.448 687,7 C687,7.552 687.448,8 688,8 L688,8 Z M688,123 C686.346,123 685,121.654 685,120 C685,118.346 686.346,117 688,117 C689.654,117 691,118.346 691,120 C691,121.654 689.654,123 688,123 L688,123 Z M688,116 C685.791,116 684,117.791 684,120 C684,122.209 685.791,124 688,124 C690.209,124 692,122.209 692,120 C692,117.791 690.209,116 688,116 L688,116 Z M725,110 C725,111.654 723.654,113 722,113 L654,113 C652.346,113 651,111.654 651,110 L651,16 C651,14.346 652.346,13 654,13 L722,13 C723.654,13 725,14.346 725,16 L725,110 Z M722,12 L654,12 C651.791,12 650,13.791 650,16 L650,110 C650,112.209 651.791,114 654,114 L722,114 C724.209,114 726,112.209 726,110 L726,16 C726,13.791 724.209,12 722,12 L722,12 Z" id="iPad">

</path>
            </g>
        </g>
    </g>
</svg>