<?xml version="1.0" ?>


<svg width="800px" height="800px" viewBox="0 0 64 64" id="Layer_1" version="1.1" xml:space="preserve" xmlns="http://www.w3.org/2000/svg" xmlns:xlink="http://www.w3.org/1999/xlink">

<style type="text/css">
	.st0{fill:none;stroke:#000000;stroke-width:2;stroke-miterlimit:10;}
	.st1{fill:none;stroke:#000000;stroke-width:2;stroke-linecap:round;stroke-linejoin:round;stroke-miterlimit:10;}
	
		.st2{fill:none;stroke:#000000;stroke-width:2;stroke-linecap:round;stroke-linejoin:round;stroke-miterlimit:10;stroke-dasharray:6,5;}
</style>

<g>

<g>

<ellipse class="st0" cx="32" cy="16" rx="18.7" ry="4"/>

<path class="st0" d="M50.7,16v8c0,2.2-8.4,4-18.7,4c-10.3,0-18.7-1.8-18.7-4v-8c0,2.2,8.4,4,18.7,4C42.3,20,50.7,18.2,50.7,16z"/>

</g>

<g>

<path class="st0" d="M50.7,24v8c0,2.2-8.4,4-18.7,4c-10.3,0-18.7-1.8-18.7-4v-8c0,2.2,8.4,4,18.7,4C42.3,28,50.7,26.2,50.7,24z"/>

</g>

<g>

<path class="st0" d="M50.7,32v8c0,2.2-8.4,4-18.7,4c-10.3,0-18.7-1.8-18.7-4v-8c0,2.2,8.4,4,18.7,4C42.3,36,50.7,34.2,50.7,32z"/>

</g>

<g>

<path class="st0" d="M50.7,40v8c0,2.2-8.4,4-18.7,4c-10.3,0-18.7-1.8-18.7-4v-8c0,2.2,8.4,4,18.7,4C42.3,44,50.7,42.2,50.7,40z"/>

</g>

</g>

</svg>