<?xml version="1.0" ?>


<svg width="800px" height="800px" viewBox="0 0 64 64" id="Layer_1" version="1.1" xml:space="preserve" xmlns="http://www.w3.org/2000/svg" xmlns:xlink="http://www.w3.org/1999/xlink">

<style type="text/css">
	.st0{fill:none;stroke:#000000;stroke-width:2;stroke-miterlimit:10;}
	.st1{fill:none;stroke:#000000;stroke-width:2;stroke-linecap:round;stroke-linejoin:round;stroke-miterlimit:10;}
	
		.st2{fill:none;stroke:#000000;stroke-width:2;stroke-linecap:round;stroke-linejoin:round;stroke-miterlimit:10;stroke-dasharray:6,5;}
</style>

<path class="st1" d="M46,38c0,7.7-6.3,14-14,14s-14-6.3-14-14c0-5.1,2.7-12.2,6.8-16.4c0.3,0.3,0.8,0.4,1.2,0.4h12  c0.4,0,0.9-0.1,1.2-0.4C43.3,25.8,46,32.9,46,38z"/>

<path class="st1" d="M40,20c0,0.5-0.2,1-0.6,1.4c-0.1,0.1-0.1,0.1-0.2,0.2C38.9,21.9,38.4,22,38,22H26c-0.4,0-0.9-0.1-1.2-0.4  C24.3,21.2,24,20.7,24,20c0-0.5,0.2-1,0.6-1.4c0.2-0.2,0.4-0.4,0.7-0.5C25.5,18,25.8,18,26,18h12c0.3,0,0.5,0,0.7,0.1  C39.5,18.4,40,19.1,40,20z"/>

<path class="st1" d="M41,12l-2.3,6.1C38.5,18,38.3,18,38,18H26c-0.3,0-0.5,0-0.7,0.1L23,12H41z"/>

<g>

<polygon class="st1" points="26.7,32 24.4,35.4 32,43 39.6,35.4 37.3,32  "/>

<line class="st1" x1="24.4" x2="39.6" y1="35.4" y2="35.4"/>

<polyline class="st1" points="30.5,32 28.6,35.4 32,43  "/>

<polyline class="st1" points="33.5,32 35.4,35.4 32,43  "/>

</g>

</svg>