<?xml version="1.0" ?>


<svg width="800px" height="800px" viewBox="0 0 64 64" id="Layer_1" version="1.1" xml:space="preserve" xmlns="http://www.w3.org/2000/svg" xmlns:xlink="http://www.w3.org/1999/xlink">

<style type="text/css">
	.st0{fill:none;stroke:#000000;stroke-width:2;stroke-miterlimit:10;}
	.st1{fill:none;stroke:#000000;stroke-width:2;stroke-linecap:round;stroke-linejoin:round;stroke-miterlimit:10;}
	
		.st2{fill:none;stroke:#000000;stroke-width:2;stroke-linecap:round;stroke-linejoin:round;stroke-miterlimit:10;stroke-dasharray:6,5;}
</style>

<line class="st1" x1="12" x2="52" y1="12" y2="12"/>

<path class="st1" d="M47,38H17c-1.7,0-3-1.3-3-3V12h36v23C50,36.7,48.7,38,47,38z"/>

<circle class="st1" cx="32" cy="50" r="2"/>

<line class="st1" x1="32" x2="32" y1="48" y2="38"/>

<path class="st1" d="M24.5,30l2.9-2.9C27.2,26.5,27,25.8,27,25c0-2,1.2-3.8,3-4.6"/>

<path class="st1" d="M27,32.5L27,32.5l2.9-2.9c0.6,0.3,1.4,0.5,2.1,0.5c2,0,3.8-1.2,4.6-3"/>

<path class="st1" d="M36.6,23c-0.5-1.1-1.4-2.1-2.6-2.6"/>

<g>

<path class="st1" d="M30,16.2c-4,0.9-7,4.5-7,8.8c0,1.9,0.6,3.6,1.5,5l2.9-2.9C27.2,26.5,27,25.8,27,25c0-2,1.2-3.8,3-4.6V16.2z"/>

<path class="st1" d="M36.6,27c-0.8,1.8-2.5,3-4.6,3c-0.8,0-1.5-0.2-2.1-0.5L27,32.5c1.4,1,3.2,1.5,5,1.5c4.3,0,7.9-3,8.8-7H36.6z"/>

<path class="st1" d="M36.6,23c-0.5-1.1-1.4-2.1-2.6-2.6v-4.2c3.4,0.8,6,3.4,6.8,6.8H36.6z"/>

</g>

</svg>