<?xml version="1.0" ?>


<svg width="800px" height="800px" viewBox="0 0 64 64" id="Layer_1" version="1.1" xml:space="preserve" xmlns="http://www.w3.org/2000/svg" xmlns:xlink="http://www.w3.org/1999/xlink">

<style type="text/css">
	.st0{fill:none;stroke:#000000;stroke-width:2;stroke-miterlimit:10;}
	.st1{fill:none;stroke:#000000;stroke-width:2;stroke-linecap:round;stroke-linejoin:round;stroke-miterlimit:10;}
	
		.st2{fill:none;stroke:#000000;stroke-width:2;stroke-linecap:round;stroke-linejoin:round;stroke-miterlimit:10;stroke-dasharray:6,5;}
</style>

<g>

<g>

<g>

<path class="st0" d="M32,38.7v5c0,0.1,0,0.1,0,0.2c0,0.1,0,0.1-0.1,0.2c0,0.1-0.1,0.1-0.1,0.2c0,0.1-0.1,0.1-0.1,0.2     c-0.1,0.1-0.2,0.2-0.3,0.3c0,0-0.1,0.1-0.2,0.1c-0.1,0-0.1,0.1-0.2,0.1c-0.1,0-0.2,0.1-0.2,0.1c-0.1,0.1-0.3,0.1-0.4,0.2     c-0.2,0.1-0.4,0.2-0.5,0.2c-0.1,0-0.2,0.1-0.3,0.1c-0.2,0.1-0.3,0.1-0.5,0.2c-0.2,0.1-0.5,0.1-0.7,0.2c-0.1,0-0.2,0.1-0.3,0.1     c-0.2,0-0.3,0.1-0.5,0.1c0,0,0,0,0,0c-0.3,0.1-0.6,0.1-1,0.2c-0.3,0-0.6,0.1-0.9,0.1c-0.4,0.1-0.8,0.1-1.3,0.1     c-0.2,0-0.3,0-0.5,0c-0.3,0-0.6,0-0.8,0c-0.3,0-0.7,0-1,0c-0.3,0-0.7,0-1,0c-0.3,0-0.6,0-0.8,0c-0.2,0-0.3,0-0.5,0     c-0.4,0-0.9-0.1-1.3-0.1c-0.3,0-0.6-0.1-0.9-0.1c-0.3,0-0.7-0.1-1-0.2c0,0,0,0,0,0c-0.2,0-0.3-0.1-0.5-0.1c-0.1,0-0.2,0-0.3-0.1     c-0.3-0.1-0.5-0.1-0.7-0.2c-0.2,0-0.3-0.1-0.5-0.2c-0.1,0-0.2-0.1-0.3-0.1c-0.2-0.1-0.4-0.1-0.5-0.2c-0.1-0.1-0.3-0.1-0.4-0.2     c-0.2-0.1-0.3-0.2-0.4-0.3c-0.1,0-0.1-0.1-0.2-0.1c-0.1-0.1-0.2-0.2-0.3-0.3c0-0.1-0.1-0.1-0.1-0.2c0-0.1-0.1-0.1-0.1-0.2     c0,0,0-0.1,0-0.2s0-0.1,0-0.2v-5c0,0.1,0,0.1,0,0.2s0,0.1,0,0.2c0,0.1,0.1,0.1,0.1,0.2c0,0.1,0.1,0.1,0.1,0.2     c0.1,0.1,0.2,0.2,0.3,0.3c0.1,0,0.1,0.1,0.2,0.1c0.1,0.1,0.3,0.2,0.4,0.3c0.1,0.1,0.3,0.1,0.4,0.2c0.2,0.1,0.3,0.2,0.5,0.2     c0.1,0,0.2,0.1,0.3,0.1c0.2,0.1,0.3,0.1,0.5,0.2c0.2,0.1,0.5,0.1,0.7,0.2c0.1,0,0.2,0.1,0.3,0.1c0.1,0,0.3,0.1,0.5,0.1     c0,0,0,0,0,0c0.3,0.1,0.6,0.1,1,0.2c0.3,0,0.6,0.1,0.9,0.1c0.4,0.1,0.8,0.1,1.3,0.1c0.2,0,0.3,0,0.5,0c0.3,0,0.5,0,0.8,0     c0.3,0,0.7,0,1,0c0.3,0,0.7,0,1,0c0.3,0,0.6,0,0.8,0c0.2,0,0.3,0,0.5,0c0.4,0,0.9-0.1,1.3-0.1c0.3,0,0.6-0.1,0.9-0.1     c0.3,0,0.7-0.1,1-0.2c0,0,0,0,0,0c0.2,0,0.3-0.1,0.5-0.1c0.1,0,0.2,0,0.3-0.1c0.3-0.1,0.5-0.1,0.7-0.2c0.2,0,0.3-0.1,0.5-0.2     c0.1,0,0.2-0.1,0.3-0.1c0.2-0.1,0.4-0.1,0.5-0.2c0.1-0.1,0.3-0.1,0.4-0.2c0.1,0,0.1-0.1,0.2-0.1c0.1,0,0.1-0.1,0.2-0.1     c0.1,0,0.1-0.1,0.2-0.1c0.1-0.1,0.2-0.2,0.3-0.3c0.1-0.1,0.1-0.1,0.1-0.2c0-0.1,0.1-0.1,0.1-0.2c0,0,0-0.1,0.1-0.2     C32,38.8,32,38.7,32,38.7z"/>

</g>

<g>

<path class="st0" d="M52,38.7v5c0,0.1,0,0.1,0,0.2c0,0.1,0,0.1-0.1,0.2c0,0.1-0.1,0.1-0.1,0.2c0,0.1-0.1,0.1-0.1,0.2     c-0.1,0.1-0.2,0.2-0.3,0.3c0,0-0.1,0.1-0.2,0.1c-0.1,0-0.1,0.1-0.2,0.1c-0.1,0-0.2,0.1-0.2,0.1c-0.1,0.1-0.3,0.1-0.4,0.2     c-0.2,0.1-0.4,0.2-0.5,0.2c-0.1,0-0.2,0.1-0.3,0.1c-0.2,0.1-0.3,0.1-0.5,0.2c-0.2,0.1-0.5,0.1-0.7,0.2c-0.1,0-0.2,0.1-0.3,0.1     c-0.2,0-0.3,0.1-0.5,0.1c0,0,0,0,0,0c-0.3,0.1-0.6,0.1-1,0.2c-0.3,0-0.6,0.1-0.9,0.1c-0.4,0.1-0.8,0.1-1.3,0.1     c-0.2,0-0.3,0-0.5,0c-0.3,0-0.6,0-0.8,0c-0.3,0-0.7,0-1,0c-0.3,0-0.7,0-1,0c-0.3,0-0.6,0-0.8,0c-0.2,0-0.3,0-0.5,0     c-0.4,0-0.9-0.1-1.3-0.1c-0.3,0-0.6-0.1-0.9-0.1c-0.3,0-0.7-0.1-1-0.2c0,0,0,0,0,0c-0.2,0-0.3-0.1-0.5-0.1c-0.1,0-0.2,0-0.3-0.1     c-0.3-0.1-0.5-0.1-0.7-0.2c-0.2,0-0.3-0.1-0.5-0.2c-0.1,0-0.2-0.1-0.3-0.1c-0.2-0.1-0.4-0.1-0.5-0.2c-0.1-0.1-0.3-0.1-0.4-0.2     c-0.2-0.1-0.3-0.2-0.4-0.3c-0.1,0-0.1-0.1-0.2-0.1c-0.1-0.1-0.2-0.2-0.3-0.3c0-0.1-0.1-0.1-0.1-0.2c0-0.1-0.1-0.1-0.1-0.2     c0,0,0-0.1,0-0.2s0-0.1,0-0.2v-5c0,0.1,0,0.1,0,0.2s0,0.1,0,0.2c0,0.1,0.1,0.1,0.1,0.2c0,0.1,0.1,0.1,0.1,0.2     c0.1,0.1,0.2,0.2,0.3,0.3c0.1,0,0.1,0.1,0.2,0.1c0.1,0.1,0.3,0.2,0.4,0.3c0.1,0.1,0.3,0.1,0.4,0.2c0.2,0.1,0.3,0.2,0.5,0.2     c0.1,0,0.2,0.1,0.3,0.1c0.2,0.1,0.3,0.1,0.5,0.2c0.2,0.1,0.5,0.1,0.7,0.2c0.1,0,0.2,0.1,0.3,0.1c0.1,0,0.3,0.1,0.5,0.1     c0,0,0,0,0,0c0.3,0.1,0.6,0.1,1,0.2c0.3,0,0.6,0.1,0.9,0.1c0.4,0.1,0.8,0.1,1.3,0.1c0.2,0,0.3,0,0.5,0c0.3,0,0.5,0,0.8,0     c0.3,0,0.7,0,1,0c0.3,0,0.7,0,1,0c0.3,0,0.6,0,0.8,0c0.2,0,0.3,0,0.5,0c0.4,0,0.9-0.1,1.3-0.1c0.3,0,0.6-0.1,0.9-0.1     c0.3,0,0.7-0.1,1-0.2c0,0,0,0,0,0c0.2,0,0.3-0.1,0.5-0.1c0.1,0,0.2,0,0.3-0.1c0.3-0.1,0.5-0.1,0.7-0.2c0.2,0,0.3-0.1,0.5-0.2     c0.1,0,0.2-0.1,0.3-0.1c0.2-0.1,0.4-0.1,0.5-0.2c0.1-0.1,0.3-0.1,0.4-0.2c0.1,0,0.1-0.1,0.2-0.1c0.1,0,0.1-0.1,0.2-0.1     c0.1,0,0.1-0.1,0.2-0.1c0.1-0.1,0.2-0.2,0.3-0.3c0.1-0.1,0.1-0.1,0.1-0.2c0-0.1,0.1-0.1,0.1-0.2c0,0,0-0.1,0.1-0.2     C52,38.8,52,38.7,52,38.7z"/>

</g>

</g>

<g>

<path class="st0" d="M32,33.7v5c0,0.1,0,0.1,0,0.2c0,0.1,0,0.1-0.1,0.2c0,0.1-0.1,0.1-0.1,0.2c0,0.1-0.1,0.1-0.1,0.2    c-0.1,0.1-0.2,0.2-0.3,0.3c0,0-0.1,0.1-0.2,0.1c-0.1,0-0.1,0.1-0.2,0.1c-0.1,0-0.2,0.1-0.2,0.1c-0.1,0.1-0.3,0.1-0.4,0.2    c-0.2,0.1-0.4,0.2-0.5,0.2c-0.1,0-0.2,0.1-0.3,0.1c-0.2,0.1-0.3,0.1-0.5,0.2c-0.2,0.1-0.5,0.1-0.7,0.2c-0.1,0-0.2,0.1-0.3,0.1    c-0.2,0-0.3,0.1-0.5,0.1c0,0,0,0,0,0c-0.3,0.1-0.6,0.1-1,0.2c-0.3,0-0.6,0.1-0.9,0.1c-0.4,0.1-0.8,0.1-1.3,0.1c-0.2,0-0.3,0-0.5,0    c-0.3,0-0.6,0-0.8,0c-0.3,0-0.7,0-1,0c-0.3,0-0.7,0-1,0c-0.3,0-0.6,0-0.8,0c-0.2,0-0.3,0-0.5,0c-0.4,0-0.9-0.1-1.3-0.1    c-0.3,0-0.6-0.1-0.9-0.1c-0.3,0-0.7-0.1-1-0.2c0,0,0,0,0,0c-0.2,0-0.3-0.1-0.5-0.1c-0.1,0-0.2,0-0.3-0.1c-0.3-0.1-0.5-0.1-0.7-0.2    c-0.2,0-0.3-0.1-0.5-0.2c-0.1,0-0.2-0.1-0.3-0.1c-0.2-0.1-0.4-0.1-0.5-0.2c-0.1-0.1-0.3-0.1-0.4-0.2c-0.2-0.1-0.3-0.2-0.4-0.3    c-0.1,0-0.1-0.1-0.2-0.1c-0.1-0.1-0.2-0.2-0.3-0.3c0-0.1-0.1-0.1-0.1-0.2c0-0.1-0.1-0.1-0.1-0.2c0,0,0-0.1,0-0.2s0-0.1,0-0.2v-5    c0,0.1,0,0.1,0,0.2s0,0.1,0,0.2c0,0.1,0.1,0.1,0.1,0.2c0,0.1,0.1,0.1,0.1,0.2c0.1,0.1,0.2,0.2,0.3,0.3c0.1,0,0.1,0.1,0.2,0.1    c0.1,0.1,0.3,0.2,0.4,0.3c0.1,0.1,0.3,0.1,0.4,0.2c0.2,0.1,0.3,0.2,0.5,0.2c0.1,0,0.2,0.1,0.3,0.1c0.2,0.1,0.3,0.1,0.5,0.2    c0.2,0.1,0.5,0.1,0.7,0.2c0.1,0,0.2,0.1,0.3,0.1c0.1,0,0.3,0.1,0.5,0.1c0,0,0,0,0,0c0.3,0.1,0.6,0.1,1,0.2c0.3,0,0.6,0.1,0.9,0.1    c0.4,0.1,0.8,0.1,1.3,0.1c0.2,0,0.3,0,0.5,0c0.3,0,0.5,0,0.8,0c0.3,0,0.7,0,1,0c0.3,0,0.7,0,1,0c0.3,0,0.6,0,0.8,0    c0.2,0,0.3,0,0.5,0c0.4,0,0.9-0.1,1.3-0.1c0.3,0,0.6-0.1,0.9-0.1c0.3,0,0.7-0.1,1-0.2c0,0,0,0,0,0c0.2,0,0.3-0.1,0.5-0.1    c0.1,0,0.2,0,0.3-0.1c0.3-0.1,0.5-0.1,0.7-0.2c0.2,0,0.3-0.1,0.5-0.2c0.1,0,0.2-0.1,0.3-0.1c0.2-0.1,0.4-0.1,0.5-0.2    c0.1-0.1,0.3-0.1,0.4-0.2c0.1,0,0.1-0.1,0.2-0.1c0.1,0,0.1-0.1,0.2-0.1c0.1,0,0.1-0.1,0.2-0.1c0.1-0.1,0.2-0.2,0.3-0.3    c0.1-0.1,0.1-0.1,0.1-0.2c0-0.1,0.1-0.1,0.1-0.2c0,0,0-0.1,0.1-0.2C32,33.8,32,33.7,32,33.7z"/>

</g>

<g>

<path class="st0" d="M32,28.7c0,1-1.8,2-4.5,2.5C26,31.5,24,31.7,22,31.7s-4-0.2-5.5-0.5c-2.7-0.5-4.5-1.5-4.5-2.5    c0-1.7,4.5-3,10-3c3.2,0,6,0.5,7.9,1.2c0.2,0.2,0.4,0.3,0.6,0.5c0.2,0.2,0.5,0.4,0.7,0.6c0.3,0.2,0.5,0.4,0.8,0.6    C32,28.5,32,28.6,32,28.7z"/>

<path class="st0" d="M32,28.7v5c0,0.1,0,0.1,0,0.2c0,0.1,0,0.1-0.1,0.2c0,0.1-0.1,0.1-0.1,0.2c0,0.1-0.1,0.1-0.1,0.2    c-0.1,0.1-0.2,0.2-0.3,0.3c0,0-0.1,0.1-0.2,0.1c-0.1,0-0.1,0.1-0.2,0.1c-0.1,0-0.2,0.1-0.2,0.1c-0.1,0.1-0.3,0.1-0.4,0.2    c-0.2,0.1-0.4,0.2-0.5,0.2c-0.1,0-0.2,0.1-0.3,0.1c-0.2,0.1-0.3,0.1-0.5,0.2c-0.2,0.1-0.5,0.1-0.7,0.2c-0.1,0-0.2,0.1-0.3,0.1    c-0.2,0-0.3,0.1-0.5,0.1c0,0,0,0,0,0c-0.3,0.1-0.6,0.1-1,0.2c-0.3,0-0.6,0.1-0.9,0.1c-0.4,0.1-0.8,0.1-1.3,0.1c-0.2,0-0.3,0-0.5,0    c-0.3,0-0.6,0-0.8,0c-0.3,0-0.7,0-1,0c-0.3,0-0.7,0-1,0c-0.3,0-0.6,0-0.8,0c-0.2,0-0.3,0-0.5,0c-0.4,0-0.9-0.1-1.3-0.1    c-0.3,0-0.6-0.1-0.9-0.1c-0.3,0-0.7-0.1-1-0.2c0,0,0,0,0,0c-0.2,0-0.3-0.1-0.5-0.1c-0.1,0-0.2,0-0.3-0.1c-0.3-0.1-0.5-0.1-0.7-0.2    c-0.2,0-0.3-0.1-0.5-0.2c-0.1,0-0.2-0.1-0.3-0.1c-0.2-0.1-0.4-0.1-0.5-0.2c-0.1-0.1-0.3-0.1-0.4-0.2c-0.2-0.1-0.3-0.2-0.4-0.3    c-0.1,0-0.1-0.1-0.2-0.1c-0.1-0.1-0.2-0.2-0.3-0.3c0-0.1-0.1-0.1-0.1-0.2c0-0.1-0.1-0.1-0.1-0.2c0,0,0-0.1,0-0.2s0-0.1,0-0.2v-5    c0,1,1.8,2,4.5,2.5c1.6,0.3,3.5,0.5,5.5,0.5s4-0.2,5.5-0.5C30.2,30.6,32,29.7,32,28.7z"/>

</g>

<g>

<path class="st1" d="M46.9,28.1c-0.5,0.9-2.5,0.8-5.1-0.1c-1.5-0.5-3.3-1.3-5-2.4c-1.8-1-3.3-2.2-4.5-3.2c-2-1.8-3.1-3.5-2.6-4.4    c0.8-1.4,5.4-0.3,10.1,2.5C44.5,23.2,47.7,26.7,46.9,28.1z"/>

<path class="st1" d="M46.9,28.1l-1.6,2.8l-0.9,1.6c0,0.1-0.1,0.1-0.1,0.2c0,0-0.1,0.1-0.1,0.1c-0.1,0-0.1,0.1-0.2,0.1    c-0.1,0-0.1,0-0.2,0.1c-0.1,0-0.3,0.1-0.4,0.1c-0.1,0-0.1,0-0.2,0c-0.1,0-0.2,0-0.2,0c-0.1,0-0.2,0-0.3,0c-0.1,0-0.3,0-0.4,0    c-0.2,0-0.4,0-0.6-0.1c-0.1,0-0.2,0-0.3-0.1c-0.2,0-0.3-0.1-0.5-0.1c-0.2-0.1-0.5-0.1-0.7-0.2c-0.1,0-0.2-0.1-0.3-0.1    c-0.2,0-0.3-0.1-0.5-0.1c0,0,0,0,0,0c-0.3-0.1-0.6-0.2-0.9-0.3c-0.3-0.1-0.6-0.2-0.9-0.4c-0.3-0.1-0.6-0.3-0.9-0.4    c-0.1,0-0.2-0.1-0.3-0.1c-0.2-0.1-0.3-0.1-0.5-0.2c-0.2-0.1-0.5-0.3-0.7-0.4c-0.3-0.2-0.6-0.3-0.9-0.5s-0.6-0.4-0.9-0.5    c-0.2-0.2-0.5-0.3-0.7-0.5c-0.1-0.1-0.3-0.2-0.4-0.3c-0.1-0.1-0.2-0.1-0.2-0.2c-0.3-0.2-0.5-0.4-0.8-0.6c-0.3-0.2-0.5-0.4-0.7-0.6    c-0.2-0.2-0.4-0.3-0.6-0.5c-0.1-0.1-0.1-0.1-0.2-0.2c0,0,0,0,0,0c-0.1-0.1-0.2-0.2-0.4-0.3c-0.1-0.1-0.2-0.2-0.2-0.2    c-0.2-0.2-0.3-0.3-0.5-0.5c-0.1-0.1-0.2-0.3-0.3-0.4C28.2,25.1,28.1,25,28,25c-0.1-0.2-0.3-0.3-0.3-0.5c-0.1-0.1-0.2-0.3-0.2-0.4    c-0.1-0.1-0.2-0.3-0.2-0.4c0-0.1-0.1-0.1-0.1-0.2c-0.1-0.1-0.1-0.3-0.1-0.4c0-0.1,0-0.2,0-0.2c0-0.1,0-0.2,0-0.2c0,0,0-0.1,0-0.2    c0-0.1,0-0.1,0.1-0.2l2.5-4.3c-0.5,0.9,0.5,2.6,2.6,4.4c1.2,1.1,2.8,2.2,4.5,3.2c1.8,1,3.5,1.8,5,2.4C44.4,28.9,46.4,29,46.9,28.1    z"/>

</g>

<g>

<path class="st0" d="M45.3,30.8c3.9,0.4,6.7,1.5,6.7,2.8c0,1-1.8,2-4.5,2.5C46,36.5,44,36.7,42,36.7s-4-0.2-5.5-0.5    c-2.7-0.5-4.5-1.5-4.5-2.5c0-1.1,1.8-2,4.5-2.5"/>

<path class="st0" d="M52,33.7v5c0,0.1,0,0.1,0,0.2c0,0.1,0,0.1-0.1,0.2c0,0.1-0.1,0.1-0.1,0.2c0,0.1-0.1,0.1-0.1,0.2    c-0.1,0.1-0.2,0.2-0.3,0.3c0,0-0.1,0.1-0.2,0.1c-0.1,0-0.1,0.1-0.2,0.1c-0.1,0-0.2,0.1-0.2,0.1c-0.1,0.1-0.3,0.1-0.4,0.2    c-0.2,0.1-0.4,0.2-0.5,0.2c-0.1,0-0.2,0.1-0.3,0.1c-0.2,0.1-0.3,0.1-0.5,0.2c-0.2,0.1-0.5,0.1-0.7,0.2c-0.1,0-0.2,0.1-0.3,0.1    c-0.2,0-0.3,0.1-0.5,0.1c0,0,0,0,0,0c-0.3,0.1-0.6,0.1-1,0.2c-0.3,0-0.6,0.1-0.9,0.1c-0.4,0.1-0.8,0.1-1.3,0.1c-0.2,0-0.3,0-0.5,0    c-0.3,0-0.6,0-0.8,0c-0.3,0-0.7,0-1,0c-0.3,0-0.7,0-1,0c-0.3,0-0.6,0-0.8,0c-0.2,0-0.3,0-0.5,0c-0.4,0-0.9-0.1-1.3-0.1    c-0.3,0-0.6-0.1-0.9-0.1c-0.3,0-0.7-0.1-1-0.2c0,0,0,0,0,0c-0.2,0-0.3-0.1-0.5-0.1c-0.1,0-0.2,0-0.3-0.1c-0.3-0.1-0.5-0.1-0.7-0.2    c-0.2,0-0.3-0.1-0.5-0.2c-0.1,0-0.2-0.1-0.3-0.1c-0.2-0.1-0.4-0.1-0.5-0.2c-0.1-0.1-0.3-0.1-0.4-0.2c-0.2-0.1-0.3-0.2-0.4-0.3    c-0.1,0-0.1-0.1-0.2-0.1c-0.1-0.1-0.2-0.2-0.3-0.3c0-0.1-0.1-0.1-0.1-0.2c0-0.1-0.1-0.1-0.1-0.2c0,0,0-0.1,0-0.2s0-0.1,0-0.2v-5    c0,1,1.8,2,4.5,2.5c1.6,0.3,3.5,0.5,5.5,0.5s4-0.2,5.5-0.5C50.2,35.6,52,34.7,52,33.7z"/>

</g>

</g>

</svg>