<?xml version="1.0" encoding="utf-8"?>
<svg width="800px" height="800px" viewBox="0 0 24 24" xmlns="http://www.w3.org/2000/svg" fill="none" stroke="#000000" stroke-width="1" stroke-linecap="round" stroke-linejoin="miter"><rect x="4" y="13" width="16" height="9"></rect><rect x="2" y="8" width="20" height="5" rx="0"></rect><path d="M12,8H7.54a3,3,0,0,1-3-2.51h0A3,3,0,0,1,7.54,2h.3a3,3,0,0,1,2.84,2.05Z"></path><path d="M16.46,8H12l1.32-3.95a3,3,0,0,1,2.84-2h.3a3,3,0,0,1,3,3.49h0A3,3,0,0,1,16.46,8Z"></path><line x1="12" y1="22" x2="12" y2="8"></line></svg>