<?xml version="1.0" encoding="utf-8"?>

<svg width="800px" height="800px" viewBox="0 0 1024 1024" class="icon"  version="1.1" xmlns="http://www.w3.org/2000/svg"><path d="M904.21 344.66L397.5 820.26a29.59 29.59 0 0 1-39.42 1l-100-86.68a29.59 29.59 0 0 1-4.6-39.17l398.79-569.12" fill="#DFEDFF" /><path d="M377.11 835.72a36.46 36.46 0 0 1-23.94-8.79l-100-86.68c-14-12.18-16.61-33.76-5.83-49.14L646.12 122a7.5 7.5 0 0 1 12.28 8.61l-398.8 569.1a22.16 22.16 0 0 0 3.37 29.2l100 86.68a22.16 22.16 0 0 0 29.38-0.81L899.07 339.2a7.5 7.5 0 0 1 10.27 10.94L402.63 825.73a37.26 37.26 0 0 1-25.52 9.99z" fill="#66A9F7" /><path d="M258.377 735.154l98.987 85.805-41.88 48.315a7.5 7.5 0 0 1-10.58 0.754l-87.275-75.653a8 8 0 0 1-0.805-11.285l41.553-47.936z" fill="#FFFFFF" /><path d="M309.84 879.39a14.89 14.89 0 0 1-9.8-3.67l-87.26-75.63a15.52 15.52 0 0 1-1.56-21.87l41.55-47.94a7.5 7.5 0 0 1 10.58-0.76l99 85.79a7.5 7.5 0 0 1 0.75 10.58l-41.9 48.32a14.9 14.9 0 0 1-10.27 5.14q-0.55 0.04-1.09 0.04z m-50.65-133.62L222.55 788a0.5 0.5 0 0 0 0.05 0.71l87.26 75.63 37-42.66z" fill="#66A9F7" /><path d="M237.42 811.835l47.052 40.787-19.5 22.495-47.052-40.787z" fill="#FFFFFF" /><path d="M265 882.63a7.5 7.5 0 0 1-4.91-1.83L213 840a7.5 7.5 0 0 1-0.75-10.58l19.5-22.49a7.5 7.5 0 0 1 10.58-0.75l47.1 40.82a7.5 7.5 0 0 1 0.75 10.58L270.68 880a7.5 7.5 0 0 1-5.13 2.57z m-36.48-49l35.72 31 9.67-11.16-35.72-31zM923.39 359.26a36.55 36.55 0 0 1-24-8.94 7.5 7.5 0 0 1 9.79-11.32 22.27 22.27 0 0 0 29.17-33.65L685.82 86.44a22.27 22.27 0 0 0-29.17 33.65 7.5 7.5 0 0 1-9.82 11.33 37.27 37.27 0 0 1 48.82-56.32L948.18 294a37.33 37.33 0 0 1-24.78 65.26z" fill="#66A9F7" /><path d="M691.43 83a2.49 2.49 0 0 1-1.64-0.61 26.66 26.66 0 0 0-12.17-6 2.5 2.5 0 1 1 1-4.9 31.66 31.66 0 0 1 14.46 7.11 2.5 2.5 0 0 1-1.65 4.4zM924.11 354h-0.66a2.5 2.5 0 0 1 0-5h0.61a27.39 27.39 0 0 0 20.69-9.49c0.52-0.6 1-1.22 1.48-1.86a2.5 2.5 0 1 1 4 2.94c-0.55 0.75-1.13 1.49-1.74 2.2A32.4 32.4 0 0 1 924.11 354z m-25.61-12.74a2.49 2.49 0 0 1-1.64-0.61l-21.78-18.88a2.5 2.5 0 0 1 3.28-3.78l21.78 18.88a2.5 2.5 0 0 1-1.64 4.39z m-43.57-37.76a2.49 2.49 0 0 1-1.64-0.61L831.5 284a2.5 2.5 0 1 1 3.28-3.78l21.78 18.88a2.5 2.5 0 0 1-1.64 4.39z m-43.57-37.76a2.49 2.49 0 0 1-1.64-0.61l-21.78-18.88a2.5 2.5 0 0 1 3.28-3.78L813 261.35a2.5 2.5 0 0 1-1.64 4.39zM767.79 228a2.49 2.49 0 0 1-1.64-0.61l-21.78-18.88a2.5 2.5 0 0 1 3.28-3.78l21.78 18.88a2.5 2.5 0 0 1-1.64 4.39z m-43.57-37.76a2.49 2.49 0 0 1-1.64-0.61l-21.78-18.91a2.5 2.5 0 0 1 3.28-3.78l21.78 18.88a2.5 2.5 0 0 1-1.64 4.39z m-43.57-37.76a2.49 2.49 0 0 1-1.64-0.61L657.23 133a2.5 2.5 0 0 1 3.28-3.78l21.78 18.88a2.5 2.5 0 0 1-1.64 4.39z m-37.9-41.85a2.5 2.5 0 0 1-2.46-2.1 32.34 32.34 0 0 1 7.54-26.41c0.63-0.72 1.29-1.42 2-2.08a2.5 2.5 0 0 1 3.48 3.59c-0.58 0.56-1.14 1.16-1.67 1.77a27.34 27.34 0 0 0-6.38 22.33 2.5 2.5 0 0 1-2.07 2.87 2.54 2.54 0 0 1-0.44 0.01zM952.33 314.15a2.5 2.5 0 0 1-2.36-1.66 26.67 26.67 0 0 0-7.65-11.2 2.5 2.5 0 0 1 3.28-3.78 31.68 31.68 0 0 1 9.09 13.31 2.5 2.5 0 0 1-2.36 3.34z" fill="#66A9F7" /><path d="M88.35 870.4c12.21-12.83 37.61-27.53 63.55 14.11s71.71-12.22 71.18-11.26c-0.66 1.21 0.25 42.59-13.6 60.47-12.73 16.43-57.9 40.8-83.2-15.56 0 0-20.88-37.85-51.57-20.61-0.01 0 5.57-18.68 13.64-27.15z" fill="#DFEDFF" /><path d="M169.87 960.84a47.66 47.66 0 0 1-5.64-0.33c-13-1.55-31.36-9.58-44.65-38.94-1.13-1.92-10.09-16.54-23.08-20.21-5.95-1.68-11.88-0.79-18.12 2.72a7.5 7.5 0 0 1-10.86-8.69c0.62-2.09 6.36-20.68 15.4-30.17C89.13 858.7 102 848 118.67 849.7c14.44 1.48 27.76 11.85 39.59 30.84 4.71 7.55 10.14 11.54 16.62 12.19 11.17 1.1 26.93-7.88 42.17-24.05 4.84-5.13 9.54-2.16 10.43-1.51a7.51 7.51 0 0 1 2.94 7.6c0 0.58-0.1 1.81-0.15 2.91-0.55 12-2 44-14.87 60.64-7.4 9.54-25.06 22.52-45.53 22.52z m-79.21-75.31a36.4 36.4 0 0 1 10 1.42c19.89 5.66 31.68 26.69 32.18 27.58q0.15 0.27 0.27 0.55c8.38 18.65 19.45 28.93 32.9 30.53 15.64 1.86 31.36-8.52 37.54-16.49 6.68-8.62 9.48-24.8 10.74-37.44-11.37 9.14-26.09 17.45-40.89 16-11.26-1.12-20.64-7.57-27.87-19.18-9.25-14.85-18.8-22.87-28.38-23.85-10.28-1-19 6.4-23.37 10.94a41.38 41.38 0 0 0-6.41 10.12q1.63-0.18 3.29-0.18z" fill="#66A9F7" /></svg>