<?xml version="1.0" ?>
<svg width="800px" height="800px" viewBox="0 0 256 256" data-name="Layer 1" id="Layer_1" xmlns="http://www.w3.org/2000/svg"><defs><style>.cls-1{fill:none;stroke:#000000;stroke-miterlimit:10;stroke-width:8px;}</style></defs><title/><line class="cls-1" x1="31" x2="224" y1="86" y2="86"/><path class="cls-1" d="M61.64,86q28.49,81,0,162"/><path class="cls-1" d="M195.13,86q-28.47,81,0,162"/><line class="cls-1" x1="100.5" x2="70.87" y1="85.95" y2="115.58"/><line class="cls-1" x1="157.46" x2="78.25" y1="85.95" y2="165.15"/><line class="cls-1" x1="188.45" x2="66.01" y1="111.92" y2="234.35"/><line class="cls-1" x1="157.52" x2="187.14" y1="85.95" y2="115.58"/><line class="cls-1" x1="100.56" x2="179.76" y1="85.95" y2="165.15"/><line class="cls-1" x1="69.57" x2="192.01" y1="111.92" y2="234.35"/><polyline class="cls-1" points="76.93 176.24 129.01 228.31 181.08 176.24"/><path class="cls-1" d="M74.11,85.07A56.86,56.86,0,1,1,180.7,86"/><line class="cls-1" x1="127" x2="127" y1="86" y2="8"/><line class="cls-1" x1="185" x2="71" y1="65" y2="65"/><path class="cls-1" d="M154.06,86a46.06,46.06,0,0,1,15.67-58.31"/><path class="cls-1" d="M101.14,86A46.1,46.1,0,0,0,85.47,27.64"/></svg>