<?xml version="1.0" ?>
<svg width="800px" height="800px" viewBox="0 0 256 256" data-name="Layer 1" id="Layer_1" xmlns="http://www.w3.org/2000/svg"><defs><style>.cls-1{fill:none;stroke:#000000;stroke-miterlimit:10;stroke-width:8px;}</style></defs><title/><polyline class="cls-1" points="92.62 141 8 141 8 8 248 8 248 141 163 141"/><rect class="cls-1" height="56" width="56" x="100" y="30"/><line class="cls-1" x1="65" x2="190" y1="107" y2="107"/><path class="cls-1" d="M84.54,107q18.46,52.5,0,105"/><path class="cls-1" d="M171.08,107q-18.47,52.5,0,105"/><line class="cls-1" x1="109.73" x2="90.52" y1="107" y2="126.21"/><line class="cls-1" x1="146.65" x2="95.31" y1="107" y2="158.35"/><line class="cls-1" x1="166.74" x2="87.37" y1="123.83" y2="203.21"/><line class="cls-1" x1="146.69" x2="165.9" y1="107" y2="126.21"/><line class="cls-1" x1="109.77" x2="161.11" y1="107" y2="158.35"/><line class="cls-1" x1="89.68" x2="169.05" y1="123.83" y2="203.21"/><polyline class="cls-1" points="94.45 165.53 128.21 199.29 161.97 165.53"/></svg>