<?xml version="1.0" ?>
<svg width="800px" height="800px" viewBox="0 0 256 256" data-name="Layer 1" id="Layer_1" xmlns="http://www.w3.org/2000/svg"><defs><style>.cls-1{fill:none;stroke:#000000;stroke-miterlimit:10;stroke-width:8px;}</style></defs><title/><rect class="cls-1" height="213" width="152.33" x="51.83" y="35"/><path class="cls-1" d="M152.75,19h-12a11,11,0,0,0-11-11h-3.5a11,11,0,0,0-11,11h-11.5C97.54,19,92,24,92,30.25V35h72V30.25A11.25,11.25,0,0,0,152.75,19Z"/><circle class="cls-1" cx="88.25" cy="67.25" r="14.25"/><circle class="cls-1" cx="174.25" cy="76.25" r="14.25"/><circle class="cls-1" cx="82.25" cy="203.25" r="14.25"/><circle class="cls-1" cx="168.25" cy="220.25" r="14.25"/><line class="cls-1" x1="115.45" x2="135.25" y1="114.25" y2="134.05"/><line class="cls-1" x1="135.25" x2="114.75" y1="114.25" y2="134.75"/><line class="cls-1" x1="164.45" x2="184.25" y1="107.25" y2="127.05"/><line class="cls-1" x1="184.25" x2="163.75" y1="107.25" y2="127.75"/><path class="cls-1" d="M125.35,158c2.61,25.5,32.4,40.25,32.4,40.25"/><polyline class="cls-1" points="118.05 173.6 124.97 157.98 138.86 167.93"/><polyline class="cls-1" points="164.08 150.13 179.84 143.53 183.1 160.3"/><path class="cls-1" d="M105.75,196.75s47.5-.5,73.25-50.75"/></svg>