<?xml version="1.0" ?>
<svg width="800px" height="800px" viewBox="0 0 256 256" data-name="Layer 1" id="Layer_1" xmlns="http://www.w3.org/2000/svg"><defs><style>.cls-1{fill:none;stroke:#000000;stroke-miterlimit:10;stroke-width:8px;}</style></defs><title/><circle class="cls-1" cx="127.96" cy="80.5" r="72.07"/><line class="cls-1" x1="179.32" x2="76.96" y1="131.45" y2="29.09"/><line class="cls-1" x1="179.32" x2="76.96" y1="29.09" y2="131.45"/><path class="cls-1" d="M200.11,77.07A58.36,58.36,0,0,1,131.68,8.65"/><path class="cls-1" d="M124.59,152.59A58.37,58.37,0,0,0,56.16,84.17"/><path class="cls-1" d="M191.84,248H64.16a10.28,10.28,0,0,1-8.06-16.66L74.41,208.2a21.61,21.61,0,0,1,17-8.2h73.28a21.61,21.61,0,0,1,17,8.2l18.31,23.14A10.28,10.28,0,0,1,191.84,248Z"/><polyline class="cls-1" points="143.91 150.67 161.3 200 94.7 200 112.09 150.67"/><line class="cls-1" x1="99" x2="157" y1="224" y2="224"/></svg>