<?xml version="1.0" ?>

<!DOCTYPE svg  PUBLIC '-//W3C//DTD SVG 1.1//EN'  'http://www.w3.org/Graphics/SVG/1.1/DTD/svg11.dtd'>


<svg fill="#000000" width="800px" height="800px" viewBox="0 0 512 512" enable-background="new 0 0 512 512" id="owl" version="1.1" xml:space="preserve" xmlns="http://www.w3.org/2000/svg" xmlns:xlink="http://www.w3.org/1999/xlink">

<g>

<path d="M249.139,187.487h-6.501v91.224c0,47.393,22.752,89.566,57.901,116.189c-95.408-8.82-170.365-89.299-170.365-186.967   v-96.052c0-10.032,2.015-19.913,5.876-29.052c3.216,3.87,6.802,7.456,10.726,10.698c-6.938,8.867-10.74,19.7-10.808,31.125   c-0.167,28.305,23.69,51.462,51.995,51.462h5.116c0.24,0.355,0.503,0.699,0.815,1.013l22.146,22.146   c1.32,1.309,3.049,1.962,4.778,1.962c1.739,0,3.478-0.661,4.799-1.981l22.125-22.126c0.311-0.311,0.572-0.655,0.813-1.013h4.572   c13.982,0,27.559-5.354,37.354-15.334c9.441-9.62,14.635-22.32,14.635-35.818c0-11.42-3.697-22.218-10.52-31.078   c4.042-3.311,7.731-6.984,11.028-10.96c3.837,9.117,5.84,18.964,5.84,28.957v66.963c0,3.59,2.91,6.5,6.499,6.5h0.002   c3.589,0,6.499-2.91,6.499-6.5v-66.963c0-14.466-3.58-28.674-10.368-41.34c6.688-11.992,10.366-25.636,10.366-39.639V26.3   c0-3.589-4.126-5.609-6.961-3.408l-26.226,20.359c-15.451-12.27-34.566-18.988-54.427-18.988h-32.06   c-19.874,0-38.999,6.724-54.453,19.005L124.137,22.89c-2.834-2.205-6.964-0.186-6.964,3.405v4.468   c0,14.037,3.69,27.703,10.403,39.709c-6.811,12.68-10.402,26.91-10.402,41.409v96.052c0,63.124,29.29,119.525,74.983,156.36v34.113   c0,9.574,6.301,17.699,14.973,20.461v16.946h-34.602l-19.772,11.163c-3.126,1.765-4.229,5.729-2.465,8.855l0,0   c1.766,3.126,5.73,4.229,8.856,2.465l16.797-9.483h44.185v-29.954c2.39-0.761,4.627-1.926,6.607-3.449   c1.953,1.504,4.161,2.692,6.562,3.457v42.063h-34.602l-19.772,11.164c-3.126,1.765-4.229,5.729-2.464,8.855l0,0   c1.765,3.126,5.729,4.229,8.855,2.464l16.798-9.483h44.185v-55.063c8.024-2.556,14.017-9.705,14.865-18.346   c9.34,2.759,18.961,4.854,28.809,6.233v5.817c0,29.035,23.537,52.572,52.572,52.572h1.124   c9.285,14.923,25.827,24.883,44.659,24.883h6.5v-65.628v-6.5v-84.724C394.827,252.713,329.6,187.487,249.139,187.487z    M194.654,163.115h-6.867c-21.074,0-38.907-17.239-38.82-38.313c0.042-10.129,4.007-19.647,11.175-26.816   c0.202-0.201,0.403-0.396,0.645-0.629c0.892-0.85,1.817-1.652,2.774-2.405c-6.722,8.226-9.447,19.587-5.989,30.751   c1.991,6.429,5.95,12.141,11.282,16.248c5.925,4.564,12.965,6.935,20.171,6.935c2.312,0,4.643-0.244,6.957-0.738   c1.43-0.305,2.813-0.708,4.154-1.184L194.654,163.115z M193.269,135.433c-6.887,1.467-13.989-0.707-19.047-6.126   c-1.137-1.218-2.101-2.598-2.856-4.083c-6.279-12.337,1.014-26.272,13.548-28.946c1.402-0.3,2.801-0.443,4.182-0.443   c9.24,0,17.569,6.451,19.573,15.843C210.972,122.472,204.063,133.129,193.269,135.433z M220.818,185.667l-11.117-11.117   l11.12-4.846l11.113,4.847L220.818,185.667z M220.823,155.522l-11.576,5.045l11.571-34.095l11.572,34.095L220.823,155.522z    M232.97,120.25c-1.403-6.579,0.521-13.35,5.412-18.35c1.763-1.803,3.888-3.241,6.212-4.217c2.652-1.114,5.341-1.631,7.959-1.631   c9.24,0,17.568,6.45,19.573,15.843c2.303,10.794-4.605,21.451-15.4,23.755C245.927,137.95,235.274,131.044,232.97,120.25z    M280.483,152.389c-7.267,7.033-17.138,10.726-27.251,10.726h-6.249l-5.399-15.907c3.468,1.228,7.165,1.887,10.956,1.887   c2.275,0,4.586-0.237,6.898-0.731c17.805-3.8,29.199-21.376,25.4-39.181c-1.061-4.97-3.196-9.438-6.108-13.218   c0.625,0.536,1.241,1.085,1.836,1.664c7.447,7.23,11.549,16.938,11.549,27.334C292.115,135.367,287.979,145.134,280.483,152.389z    M309.927,45.23c-3.34,15.443-11.996,29.484-24.554,39.377c-4.688-3.661-9.932-6.443-15.521-8.267L309.927,45.23z M204.789,37.263   h32.06c15.838,0,31.121,5.018,43.805,14.235l-59.926,46.522l-59.782-46.5C173.637,42.289,188.933,37.263,204.789,37.263z    M171.548,76.237c-5.558,1.773-10.786,4.493-15.475,8.083c-12.413-9.853-20.977-23.749-24.326-39.042L171.548,76.237z    M213.171,406.866c-4.554-0.25-8.014-4.236-8.014-8.798v-24.121c4.275,2.915,8.666,5.672,13.168,8.256v16.203   c0,2.191,0.334,4.306,0.946,6.298C217.63,406.172,215.458,406.992,213.171,406.866z M248.271,398.406   c0,4.863-4.119,8.783-9.053,8.453c-4.498-0.301-7.893-4.244-7.893-8.752v-9.064c5.514,2.648,11.168,5.048,16.945,7.193V398.406z    M336.034,451.61c-18.734-3.109-33.063-19.432-33.063-39.038v-4.415c4.95,0.367,9.949,0.559,14.992,0.559h4.654   c4.265,2.164,8.649,4.123,13.142,5.866v22.878c0,1.818,0.094,3.615,0.274,5.387V451.61z M381.826,476.493   c-17.252-2.862-30.76-16.931-32.792-34.447v-23.034c10.503,2.945,21.482,4.736,32.793,5.235L381.826,476.493z M381.827,409.818   c-42.664-13.223-76.572-48.017-88.637-91.015c-0.932-3.318-4.336-5.295-7.694-4.523l-0.005,0.001   c-3.643,0.837-5.797,4.555-4.788,8.153c6.563,23.407,18.947,44.863,36.076,62.396c5.24,5.364,10.87,10.275,16.811,14.737   c-45.933-20.886-77.952-67.199-77.952-120.856v-78.067c6.698,0.324,13.268,1.152,19.672,2.438v60.181c0,3.59,2.91,6.5,6.5,6.5l0,0   c3.59,0,6.5-2.91,6.5-6.5v-56.868c54.103,16.751,93.518,67.246,93.518,126.78V409.818z"/>

<path d="M275.47,289.892c0.093,2.007,0.228,4.012,0.402,6.01c0.324,3.719,3.653,6.433,7.353,5.934l0,0   c3.417-0.462,5.911-3.514,5.608-6.948c-0.168-1.9-0.296-3.81-0.383-5.721c-0.157-3.444-3.04-6.137-6.488-6.137l0,0   C278.229,283.029,275.296,286.164,275.47,289.892z"/>

<circle cx="244.477" cy="108.293" r="5.368"/>

<circle cx="197.161" cy="108.293" r="5.368"/>

</g>

</svg>