<?xml version="1.0" ?>

<!DOCTYPE svg  PUBLIC '-//W3C//DTD SVG 1.1//EN'  'http://www.w3.org/Graphics/SVG/1.1/DTD/svg11.dtd'>


<svg fill="#000000" width="800px" height="800px" viewBox="0 0 512 512" enable-background="new 0 0 512 512" id="meerkat" version="1.1" xml:space="preserve" xmlns="http://www.w3.org/2000/svg" xmlns:xlink="http://www.w3.org/1999/xlink">

<g>

<path d="M195.813,71.443L195.813,71.443c-4.008,3.756-1.855,10.592,3.602,11.198c0.432,0.048,0.867,0.079,1.305,0.093   c0.182,0.006,0.363,0.009,0.545,0.009c4.752,0,9.221-2.023,12.41-5.692c5-5.753,5.295-14.426,0.713-20.517   c-3.484-4.632-8.816-6.836-14.049-6.549c-5.42,0.297-7.896,6.966-4.184,10.927l0,0c1.277,1.363,3.08,2.127,4.945,2.046   c0.955-0.042,1.924,0.318,2.627,1.069c0.621,0.662,0.945,1.525,0.916,2.431c-0.029,0.907-0.41,1.748-1.072,2.368   c-0.75,0.704-1.738,1-2.689,0.896C199.023,69.519,197.176,70.166,195.813,71.443z"/>

<circle cx="176.011" cy="64.352" r="6.254"/>

<path d="M127.15,488.563c0.033,4.87,4.072,8.77,8.943,8.77h40.219c0.01,0,0.018-0.001,0.027-0.001h24.6   c3.174,0,6.336-0.477,9.422-1.424c3.035-0.945,5.914-2.336,8.557-4.141c7.402-5.063,11.822-13.441,11.822-22.416v-21.469   c0-5.259,0.525-10.463,1.537-15.576c27.248,38.836,72.35,64.275,123.287,64.275h8.715c34.498,0,62.564-28.065,62.564-62.563   c0-11.332-8.682-20.617-19.766-21.139c-7.508-0.361-14.473,3.223-18.74,9.873c-2.1,3.276-2.984,7.146-3.014,11.039   c-0.096,12.76-10.504,23.111-23.287,23.111h-6.473c-56.48,0-102.268-45.787-102.268-102.268V161.211   c0-17.579-1.863-35.109-5.559-52.295l-0.127-0.586c-1.623-7.548-1.258-15.39,1.063-22.754l0.107-0.344   c5.217-16.389,2.518-33.868-7.408-47.955c-9.697-13.762-24.814-21.99-41.473-22.575c-0.654-0.023-1.313-0.034-1.973-0.034   c-14.588,0-29.02,3.773-41.738,10.913c-3.691,2.072-7.283,4.723-10.674,7.879L125.85,51.764c-8.65,4.61-14.113,11.85-15.041,19.986   c-0.902,7.93,2.584,15.79,9.566,21.564c2.658,2.198,5.771,3.955,9.268,5.236l0.063,0.21c0.094-0.028,0.182-0.065,0.273-0.094   c0.369,0.13,0.736,0.262,1.113,0.382l6.301,2.014c12.393,3.961,25.195,6.275,38.154,6.928c-3.498,12.081-9.619,23.151-17.885,32.25   c-0.902,0.994-1.775,1.995-2.637,2.999l-43.26,23.032l-0.375,0.216c-16.426,10.204-26.234,27.842-26.234,47.18v34.929   c0,4.562,3.674,8.313,8.236,8.328c16.271,0.051,29.523-13.171,29.523-29.431V213.22c0-5.589,2.27-10.775,6.209-14.516   c-1.326,8.015-1.977,16.527-1.977,25.659v33.45h0.004v7.771h0.004v31.771c0,2.26,0.621,4.506,1.938,6.342   c2.086,2.909,5.32,4.436,8.594,4.436c1.199,0,2.404-0.205,3.559-0.623c3.729-1.342,9.09-3.951,13.449-8.764   c4.984-5.508,7.51-12.473,7.51-20.702v-11.86c0-7.234,3.852-14.048,10.047-17.777l18.201-10.931   c16.773-10.08,27.191-28.496,27.191-48.062v-42.211c0-3.589-2.91-6.499-6.498-6.499h-0.002c-3.59,0-6.5,2.91-6.5,6.499v42.211   c0,15.029-8.004,29.176-20.887,36.918l-18.205,10.933c-10.082,6.07-16.348,17.151-16.348,28.918v11.86   c0,4.975-1.357,8.894-4.146,11.977c-1.49,1.645-3.238,2.872-4.902,3.776v-31.283h-0.004v-14.726c0-5.196,2.584-10.01,6.996-12.931   c0.668-0.442,1.424-0.943,2.197-1.536l20-15.376c2.846-2.188,3.379-6.268,1.191-9.113l-0.002-0.002   c-2.188-2.846-6.268-3.379-9.113-1.191l-19.998,15.374c-0.359,0.276-0.803,0.573-1.271,0.883   c0.084-31.233,8.459-54.356,27.133-74.914c9.83-10.822,17.039-24.022,21.031-38.398l10.352,3.883   c3.359,1.261,7.105-0.441,8.367-3.802v-0.002c1.262-3.361-0.441-7.107-3.801-8.368l-18.932-7.102h-1.178   c-13.766,0-27.391-2.078-40.531-6.142c2.42-3.72,3.818-8.12,3.818-12.737c0-3.213-0.666-6.305-1.867-9.135l30.002-15.298   c4.355-2.222,8.797-3.853,13.201-4.847c15.131-3.419,30.84-2.833,45.465,1.681c5.494,9.951,6.68,21.585,3.18,32.581l-0.109,0.344   c-3.012,9.462-3.498,19.594-1.406,29.304l0.15,0.706c3.504,16.288,5.27,32.902,5.27,49.563v193.426   c0,63.66,51.607,115.268,115.268,115.268h6.473c19.967,0,36.219-16.211,36.287-36.162c0.008-1.996,0.725-3.97,2.09-5.424   c1.584-1.686,3.754-2.555,6.053-2.452c4.068,0.192,7.377,3.849,7.377,8.153c0,27.328-22.234,49.563-49.564,49.563h-8.715   c-75.947,0-137.514-61.566-137.514-137.514v-6.701c0-3.59-2.91-6.499-6.5-6.499h-0.002c-3.59,0-6.498,2.909-6.498,6.499v6.7   c0,15.846,2.469,31.124,7.029,45.479c-12.23,16.143-18.961,36.059-18.961,56.332v21.324c0,4.652-2.207,9.074-6.021,11.737   c-3.172,2.214-6.896,3.386-10.758,3.392h-12.131v0.001H140.84c1.676-4.757,6.217-8.177,11.541-8.177h16.859   c5.545,0,10.078-4.531,10.078-10.075c0.002-20.099-10.133-47.795-23.113-63.258c-10.221-12.177-16.053-27.43-16.053-43.327v-28.439   c0-3.59-2.91-6.5-6.5-6.5h-0.002c-3.588,0-6.498,2.91-6.498,6.5v29.604c0,18.507,6.934,36.202,18.916,50.306   c10.361,12.197,19.207,35.371,20.164,52.189h-13.852C138.408,463.156,127.053,474.57,127.15,488.563z M129.828,84.159   c-0.404-0.276-0.801-0.56-1.168-0.864c-3.586-2.964-5.338-6.542-4.936-10.074c0.262-2.294,1.457-4.516,3.414-6.482   c3.756,1.633,6.273,5.375,6.273,9.574C133.412,79.37,132.041,82.214,129.828,84.159z M133.742,180.063l-8.125,5.014   c-9.83,6.068-15.701,16.589-15.701,28.144v14.272c0,7.438-4.967,13.737-11.76,15.754v-29.581c0-14.743,7.441-28.194,19.916-36.026   l21.488-11.44C137.303,170.664,135.365,175.274,133.742,180.063z M184.883,34.352c-5.459,1.233-10.924,3.234-16.242,5.947   l-25.197,12.848l10.928-10.172c2.637-2.454,5.391-4.492,8.182-6.06c10.779-6.05,23.012-9.249,35.375-9.249   c0.506,0,1.01,0.008,1.514,0.026c6.111,0.214,11.943,1.807,17.174,4.574C206.07,31.305,195.354,31.986,184.883,34.352z    M206.119,469.35v-21.471c0-14.618,4.057-29.027,11.563-41.488c1.617,3.682,3.373,7.289,5.27,10.811   c-3.445,9.891-5.211,20.193-5.211,30.682v21.469c0,4.68-2.303,9.048-6.154,11.682c-1.572,1.072-3.283,1.9-5.064,2.455   c-1.604,0.492-3.25,0.758-4.902,0.818C204.508,479.928,206.119,474.748,206.119,469.35z"/>

<path d="M176.01,274.162c-3.59,0-6.5,2.91-6.5,6.499v57.479c0,18.855,3.529,37.184,10.502,54.58   c1.385,3.457,5.355,5.082,8.744,3.541l0,0c3.188-1.449,4.617-5.147,3.314-8.397c-6.348-15.85-9.561-32.546-9.561-49.724v-57.479   c0-3.589-2.91-6.499-6.498-6.499H176.01z"/>

</g>

</svg>