<?xml version="1.0" ?>


<svg width="800px" height="800px" viewBox="0 0 64 64" id="Layer_1" version="1.1" xml:space="preserve" xmlns="http://www.w3.org/2000/svg" xmlns:xlink="http://www.w3.org/1999/xlink">

<g>

<g>

<path d="M32.688,53.93c-1.356,0-2.456-1.1-2.456-2.456V35.751c0-1.356,1.1-2.456,2.456-2.456    c1.356,0,2.456,1.1,2.456,2.456v15.723C35.144,52.831,34.044,53.93,32.688,53.93z" style="fill:#515151;"/>

</g>

<g>

<polygon points="32.688,37.568 38.013,37.566 32.686,32.144 27.362,37.57   " style="fill:#515151;"/>

<path d="M27.362,40.026c-0.989,0-1.881-0.593-2.264-1.505c-0.383-0.912-0.182-1.965,0.511-2.671    l5.323-5.426c0.462-0.471,1.093-0.736,1.752-0.736c0,0,0.001,0,0.001,0c0.659,0,1.29,0.265,1.752,0.735l5.328,5.422    c0.693,0.706,0.896,1.758,0.513,2.67c-0.382,0.912-1.275,1.506-2.264,1.507L27.362,40.026    C27.363,40.026,27.362,40.026,27.362,40.026z" style="fill:#515151;"/>

</g>

<g>

<path d="M46.719,49.065h-5.728c-1.548,0-2.803-1.255-2.803-2.803c0-1.548,1.255-2.803,2.803-2.803h5.728    c3.956,0,7.175-3.219,7.175-7.175c0-3.957-3.219-7.175-7.175-7.175c-0.299,0-0.604,0.021-0.931,0.063    c-0.795,0.102-1.596-0.14-2.2-0.667c-0.604-0.527-0.954-1.287-0.961-2.088c-0.053-5.923-4.914-10.742-10.837-10.742    c-5.977,0-10.84,4.863-10.84,10.84c0,1.272,0.218,2.518,0.649,3.702c0.394,1.085,0.083,2.301-0.785,3.063    c-0.868,0.762-2.114,0.914-3.139,0.382c-0.742-0.384-1.543-0.579-2.381-0.579c-2.861,0-5.188,2.328-5.188,5.188    c0,1.386,0.54,2.689,1.52,3.669c0.98,0.98,2.283,1.52,3.669,1.52h8.917c1.548,0,2.803,1.255,2.803,2.803    c0,1.548-1.255,2.803-2.803,2.803h-8.917c-2.883,0-5.594-1.123-7.632-3.161C5.623,43.865,4.5,41.155,4.5,38.272    c0-5.978,4.886-10.842,10.872-10.793c-0.019-0.32-0.028-0.641-0.028-0.963c0-9.068,7.377-16.445,16.446-16.445    c4.367,0,8.479,1.694,11.579,4.769c2.423,2.404,4.008,5.433,4.601,8.726c6.462,0.631,11.529,6.095,11.529,12.72    C59.5,43.332,53.767,49.065,46.719,49.065z" style="fill:#515151;"/>

</g>

</g>

</svg>