<?xml version="1.0" ?>


<svg width="800px" height="800px" viewBox="0 0 64 64" id="Layer_1" version="1.1" xml:space="preserve" xmlns="http://www.w3.org/2000/svg" xmlns:xlink="http://www.w3.org/1999/xlink">

<g>

<g>

<path d="M51.706,62.235h-39.41c-1.933,0-3.487-0.787-4.45-1.447c-1.095-0.75-2.4-1.975-2.4-3.55v-39.41    c0-6.421,3.69-8.699,6.85-8.699h4.208c1.534,0,2.777,1.243,2.777,2.777v18.492l2.173,2.229h21.144l1.533-1.566V11.906    c0-1.534,1.243-2.777,2.777-2.777h4.798c3.159,0,6.848,2.278,6.848,8.699v39.41c0,1.574-1.305,2.799-2.399,3.549    C55.191,61.448,53.638,62.235,51.706,62.235z M11,56.218c0.341,0.23,0.828,0.463,1.296,0.463h39.41    c0.467,0,0.953-0.233,1.294-0.462v-38.39c0-0.525-0.062-3.145-1.294-3.145h-2.021v17.511c0,0.726-0.284,1.423-0.792,1.942    l-3.142,3.21c-0.522,0.534-1.238,0.835-1.985,0.835H20.282c-0.749,0-1.466-0.303-1.989-0.839l-3.778-3.877    c-0.505-0.519-0.788-1.214-0.788-1.938V14.683h-1.431c-1.233,0-1.296,2.62-1.296,3.145V56.218z" style="fill:#515151;"/>

</g>

<g>

<path d="M43.779,38.181H20.281c-0.749,0-1.466-0.302-1.989-0.839L6.902,25.656    c-1.07-1.098-1.048-2.856,0.05-3.927c1.098-1.07,2.856-1.048,3.927,0.05l10.572,10.847h21.156L53.18,21.78    c1.071-1.098,2.829-1.121,3.927-0.05c1.098,1.07,1.121,2.829,0.05,3.927l-11.39,11.686C45.245,37.878,44.528,38.181,43.779,38.181    z" style="fill:#515151;"/>

</g>

<g>

<path d="M43.766,38.181H20.282c-0.749,0-1.466-0.302-1.988-0.838l-3.779-3.876    c-0.506-0.519-0.789-1.214-0.789-1.939V4.542c0-1.534,1.243-2.777,2.777-2.777h30.403c1.534,0,2.777,1.243,2.777,2.777v27.653    c0,0.726-0.284,1.423-0.792,1.942l-3.141,3.209C45.228,37.88,44.513,38.181,43.766,38.181z M21.453,32.627h21.145l1.532-1.565    V7.319H19.28v23.079L21.453,32.627z" style="fill:#515151;"/>

</g>

<g>

<path d="M38.229,27.967H25.337c-1.534,0-2.777-1.243-2.777-2.777c0-1.534,1.243-2.777,2.777-2.777h12.892    c1.534,0,2.777,1.243,2.777,2.777C41.006,26.723,39.763,27.967,38.229,27.967z" style="fill:#515151;"/>

</g>

<g>

<path d="M38.229,17.332H25.337c-1.534,0-2.777-1.243-2.777-2.777s1.243-2.777,2.777-2.777h12.892    c1.534,0,2.777,1.243,2.777,2.777S39.763,17.332,38.229,17.332z" style="fill:#515151;"/>

</g>

</g>

</svg>