<?xml version="1.0" ?>


<svg width="800px" height="800px" viewBox="0 0 64 64" id="Layer_1" version="1.1" xml:space="preserve" xmlns="http://www.w3.org/2000/svg" xmlns:xlink="http://www.w3.org/1999/xlink">

<g>

<g>

<path d="M17.582,35.522C7.887,35.522,0,27.635,0,17.94S7.887,0.358,17.582,0.358S35.164,8.246,35.164,17.94    S27.277,35.522,17.582,35.522z M17.582,5.616c-6.795,0-12.324,5.528-12.324,12.324s5.529,12.324,12.324,12.324    s12.324-5.528,12.324-12.324S24.377,5.616,17.582,5.616z" style="fill:#515151;"/>

</g>

<g>

<path d="M22.812,20.569H12.671c-1.452,0-2.629-1.177-2.629-2.629s1.177-2.629,2.629-2.629h10.141    c1.452,0,2.629,1.177,2.629,2.629S24.264,20.569,22.812,20.569z" style="fill:#515151;"/>

</g>

<g>

<path d="M54.315,63.642H24.639c-5.34,0-9.685-4.345-9.685-9.685V32.893c0-1.452,1.177-2.629,2.629-2.629    c6.795,0,12.323-5.528,12.323-12.323c0-0.207-0.005-0.402-0.014-0.58c-0.038-0.72,0.222-1.424,0.719-1.947    c0.496-0.523,1.186-0.819,1.907-0.819h21.798c5.34,0,9.685,4.345,9.685,9.685v29.676C64,59.297,59.655,63.642,54.315,63.642z     M20.211,35.326v18.631c0,2.441,1.986,4.427,4.427,4.427h29.676c2.441,0,4.427-1.986,4.427-4.427V24.28    c0-2.441-1.986-4.427-4.427-4.427H35.06C34.198,27.782,28.042,34.146,20.211,35.326z" style="fill:#515151;"/>

</g>

<g>

<g>

<path d="M47.305,54.964H31.648c-0.994,0-1.904-0.561-2.35-1.45l-3.834-7.64h-7.882     c-1.452,0-2.629-1.177-2.629-2.629s1.177-2.629,2.629-2.629h9.505c0.994,0,1.904,0.561,2.35,1.45l3.834,7.64h12.413l3.834-7.64     c0.446-0.889,1.355-1.45,2.35-1.45h9.505c1.452,0,2.629,1.177,2.629,2.629s-1.177,2.629-2.629,2.629h-7.882l-3.834,7.64     C49.209,54.403,48.299,54.964,47.305,54.964z" style="fill:#515151;"/>

</g>

</g>

<g>

<path d="M49.82,37.681H29.133c-1.452,0-2.629-1.177-2.629-2.629s1.177-2.629,2.629-2.629H49.82    c1.452,0,2.629,1.177,2.629,2.629S51.272,37.681,49.82,37.681z" style="fill:#515151;"/>

</g>

<g>

<path d="M49.82,28.668H30.658c-1.452,0-2.629-1.177-2.629-2.629s1.177-2.629,2.629-2.629H49.82    c1.452,0,2.629,1.177,2.629,2.629S51.272,28.668,49.82,28.668z" style="fill:#515151;"/>

</g>

</g>

</svg>