<?xml version="1.0" ?>


<svg width="800px" height="800px" viewBox="0 0 64 64" id="Layer_1" version="1.1" xml:space="preserve" xmlns="http://www.w3.org/2000/svg" xmlns:xlink="http://www.w3.org/1999/xlink">

<g>

<g>

<path d="M59.915,64h-38.53c-1.383,0-2.504-1.121-2.504-2.504V30.652c0-1.174,0.815-2.19,1.961-2.445    c4.337-0.965,7.811-4.38,8.849-8.702c0.271-1.126,1.277-1.919,2.435-1.919h12.238c0.665,0,1.303,0.265,1.773,0.735l15.551,15.581    c0.469,0.469,0.732,1.106,0.732,1.769v25.824C62.42,62.879,61.298,64,59.915,64z M23.889,58.991h33.521V36.707L43.325,22.595    h-9.352c-1.725,4.612-5.449,8.281-10.084,9.936V58.991z" style="fill:#515151;"/>

</g>

<g>

<path d="M58.72,38.175H44.364c-1.383,0-2.504-1.121-2.504-2.504V21.288c0-1.218,0.728-2.307,1.853-2.772    c1.126-0.466,2.409-0.21,3.27,0.653l13.86,13.886c0,0,0,0,0,0c0.86,0.862,1.114,2.145,0.647,3.269    C61.025,37.449,59.937,38.175,58.72,38.175z M57.297,36.593C57.298,36.593,57.298,36.593,57.297,36.593L57.297,36.593z     M46.868,33.166h7.009l-7.009-7.022V33.166z" style="fill:#515151;"/>

</g>

<g>

<path d="M18.33,33.498c-9.235,0-16.749-7.514-16.749-16.749S9.094,0,18.33,0    c9.235,0,16.749,7.514,16.749,16.749S27.565,33.498,18.33,33.498z M18.33,5.009c-6.474,0-11.74,5.267-11.74,11.74    s5.267,11.74,11.74,11.74s11.74-5.267,11.74-11.74S24.803,5.009,18.33,5.009z" style="fill:#515151;"/>

</g>

<g>

<path d="M23.312,19.253h-9.66c-1.383,0-2.504-1.121-2.504-2.504c0-1.383,1.121-2.504,2.504-2.504h9.66    c1.383,0,2.504,1.121,2.504,2.504C25.817,18.132,24.695,19.253,23.312,19.253z" style="fill:#515151;"/>

</g>

</g>

</svg>