<?xml version="1.0" ?>


<svg width="800px" height="800px" viewBox="0 0 64 64" id="Layer_1" version="1.1" xml:space="preserve" xmlns="http://www.w3.org/2000/svg" xmlns:xlink="http://www.w3.org/1999/xlink">

<g>

<g>

<path d="M26.402,48.286C14.325,48.286,4.5,38.461,4.5,26.384S14.325,4.482,26.402,4.482    c12.077,0,21.902,9.825,21.902,21.902S38.479,48.286,26.402,48.286z M26.402,10.012c-9.028,0-16.372,7.345-16.372,16.372    s7.345,16.372,16.372,16.372s16.372-7.345,16.372-16.372S35.43,10.012,26.402,10.012z" style="fill:#515151;"/>

</g>

<g>

<path d="M36.36,29.149c-1.527,0-2.765-1.238-2.765-2.765c0-2.431-1.215-4.681-3.25-6.018    c-1.171-0.769-2.534-1.176-3.943-1.176c-1.527,0-2.765-1.238-2.765-2.765s1.238-2.765,2.765-2.765    c2.491,0,4.904,0.721,6.979,2.084c3.597,2.363,5.744,6.34,5.744,10.639C39.125,27.911,37.887,29.149,36.36,29.149z" style="fill:#515151;"/>

</g>

<g>

<path d="M51.018,59.518c-2.266,0-4.396-0.882-5.998-2.484L33.296,45.31    c-0.622-0.622-0.911-1.504-0.778-2.374c0.133-0.87,0.673-1.625,1.453-2.032c2.975-1.553,5.371-3.943,6.929-6.91    c0.409-0.778,1.163-1.316,2.032-1.448c0.869-0.132,1.749,0.157,2.371,0.778l11.713,11.712c1.602,1.602,2.484,3.732,2.484,5.998    s-0.882,4.396-2.484,5.998C55.414,58.636,53.283,59.518,51.018,59.518z M39.642,43.836l9.288,9.287    c0.558,0.558,1.299,0.865,2.088,0.865c0.789,0,1.53-0.307,2.088-0.865c1.151-1.151,1.151-3.025,0-4.176l-9.282-9.282    C42.625,41.24,41.221,42.641,39.642,43.836z" style="fill:#515151;"/>

</g>

</g>

</svg>