<?xml version="1.0" ?>


<svg width="800px" height="800px" viewBox="0 0 64 64" id="Layer_1" version="1.1" xml:space="preserve" xmlns="http://www.w3.org/2000/svg" xmlns:xlink="http://www.w3.org/1999/xlink">

<g>

<g>

<path d="M34.422,28.788H18.389c-1.526,0-2.763-1.237-2.763-2.763c0-1.526,1.237-2.763,2.763-2.763h16.033    c1.526,0,2.763,1.237,2.763,2.763C37.185,27.551,35.948,28.788,34.422,28.788z" style="fill:#515151;"/>

</g>

<g>

<path d="M26.406,36.805c-1.526,0-2.763-1.237-2.763-2.763V18.009c0-1.526,1.237-2.763,2.763-2.763    c1.526,0,2.763,1.237,2.763,2.763v16.033C29.168,35.568,27.932,36.805,26.406,36.805z" style="fill:#515151;"/>

</g>

<g>

<path d="M26.406,48.276c-12.069,0-21.888-9.819-21.888-21.888S14.337,4.5,26.406,4.5    s21.888,9.819,21.888,21.888S38.474,48.276,26.406,48.276z M26.406,10.026c-9.022,0-16.362,7.34-16.362,16.362    s7.34,16.362,16.362,16.362s16.362-7.34,16.362-16.362S35.428,10.026,26.406,10.026z" style="fill:#515151;"/>

</g>

<g>

<path d="M51.005,59.5c-2.264,0-4.393-0.882-5.994-2.483L33.295,45.301    c-0.622-0.622-0.911-1.503-0.777-2.372c0.133-0.869,0.673-1.623,1.452-2.031c2.973-1.552,5.368-3.94,6.925-6.905    c0.408-0.778,1.162-1.315,2.031-1.447c0.868-0.132,1.748,0.157,2.369,0.778l11.705,11.705c1.601,1.601,2.483,3.73,2.483,5.994    c0,2.264-0.882,4.393-2.483,5.994l0,0c0,0,0,0,0,0C55.398,58.618,53.269,59.5,51.005,59.5z M39.637,43.828l9.281,9.281    c0.557,0.557,1.298,0.864,2.087,0.864c0.788,0,1.529-0.307,2.086-0.864c0,0,0,0,0,0c0.557-0.557,0.864-1.298,0.864-2.087    c0-0.788-0.307-1.529-0.864-2.087l-9.276-9.276C42.618,41.234,41.215,42.634,39.637,43.828z" style="fill:#515151;"/>

</g>

</g>

</svg>