<?xml version="1.0" ?>


<svg fill="#000000" width="800px" height="800px" viewBox="0 0 64 64" xmlns="http://www.w3.org/2000/svg">

<g id="a"/>

<g id="b">

<path d="M55.5,14h-6.5v-3.5c0-.2764-.2236-.5-.5-.5h-7c-.2764,0-.5,.2236-.5,.5v3.5H23v-3.5c0-.2764-.2236-.5-.5-.5h-7c-.2764,0-.5,.2236-.5,.5v3.5h-6.5c-.2764,0-.5,.2236-.5,.5v22c0,.2764,.2236,.5,.5,.5h6.5v8h-1.4902c-.1831,0-.3516,.0996-.439,.2607-1.0308,1.8916-1.1147,5.2314-1.061,8.248,.0049,.2725,.2275,.4912,.5,.4912h12.9902c.2725,0,.4951-.2188,.5-.4912,.0542-3.0166-.0298-6.3564-1.061-8.248-.0874-.1611-.2559-.2607-.439-.2607h-1.5v-8h18v8h-1.4883c-.1831,0-.3516,.0996-.439,.2607-1.0312,1.8916-1.1152,5.2314-1.061,8.248,.0049,.2725,.2275,.4912,.5,.4912h12.9897c.2725,0,.4951-.2188,.5-.4912,.0542-3.0166-.0298-6.3564-1.061-8.248-.0874-.1611-.2559-.2607-.439-.2607h-1.5015v-8h6.5c.2764,0,.5-.2236,.5-.5V14.5c0-.2764-.2236-.5-.5-.5Zm-.5,1v2H9v-2H55Zm-35.7035,3h9.8526l-7.0125,15H12.2845l7.012-15Zm21.9136,0h9.8526l-7.0125,15h-9.8522l7.012-15ZM25.0073,53H13.0024c-.0288-2.4814,.0659-5.3486,.8169-7h10.3716c.751,1.6514,.8457,4.5186,.8164,7Zm26.0015,0h-12.0044c-.0293-2.4814,.0654-5.3486,.8164-7h10.3716c.751,1.6514,.8457,4.5186,.8164,7ZM9,36v-2H55v2H9Z"/>

</g>

</svg>