<?xml version="1.0" ?>


<svg fill="#000000" width="800px" height="800px" viewBox="0 0 64 64" xmlns="http://www.w3.org/2000/svg">

<g id="a"/>

<g id="b">

<path d="M29,14.5v8c0,1.3789-1.1211,2.5-2.5,2.5h-1c-1.3789,0-2.5-1.1211-2.5-2.5V14.5c0-1.3789,1.1211-2.5,2.5-2.5h1c1.3789,0,2.5,1.1211,2.5,2.5Zm26,2v4c0,.8271-.6729,1.5-1.5,1.5h-2.5505c-.2452,1.6917-1.691,3-3.4495,3h-.5v.5c0,1.2043-.8555,2.2115-1.9908,2.4473-.0484,.8781-.4751,2.662-2.9711,3.8671-1.1539,.5575-3.1365,.8558-5.0381,1.015v1.6765c.3251-.0259,.6461,.0482,.9229,.2265,.3369,.2168,.5703,.5537,.6553,.9482,.1738,.8086-.3428,1.6084-1.1504,1.7822l-.4277,.0922v2.0977c.3251-.0257,.6461,.0479,.9229,.2262,.3369,.2168,.5703,.5537,.6553,.9482,.1738,.8086-.3428,1.6084-1.1504,1.7822l-.4277,.0922v2.0974c.3251-.0259,.6461,.0482,.9229,.2265,.3369,.2168,.5703,.5537,.6553,.9482,.1738,.8086-.3428,1.6084-1.1504,1.7822l-.4277,.0922v2.0875c0,.7139-.3057,1.3945-.8389,1.8682l-3.165,2.8135c-.2842,.252-.6396,.3779-.9961,.3779s-.7119-.126-.9961-.3779l-3.165-2.8135c-.5222-.4639-.8219-1.127-.8342-1.8247-.0394,.0031-.077,.0122-.1169,.0122-.7021,0-1.3184-.498-1.4658-1.1846-.1738-.8076,.3428-1.6074,1.1504-1.7822l.4277-.0921v-2.0993c-.0379,.0029-.074,.0117-.1123,.0117-.7021,0-1.3184-.498-1.4658-1.1846-.1738-.8076,.3428-1.6074,1.1504-1.7822l.4277-.0921v-2.0993c-.0379,.0029-.074,.0117-.1123,.0117-.7021,0-1.3184-.498-1.4658-1.1846-.1738-.8076,.3428-1.6074,1.1504-1.7822l.4277-.0921v-3.8102c-1.9006-.1592-3.8839-.4575-5.0381-1.0146-2.496-1.2051-2.9227-2.989-2.9711-3.8671-1.1353-.2358-1.9908-1.2429-1.9908-2.4473v-.5h-.5c-1.7585,0-3.2042-1.3083-3.4495-3h-2.5505c-.8271,0-1.5-.6729-1.5-1.5v-4c0-.8271,.6729-1.5,1.5-1.5h2.5505c.2452-1.6917,1.691-3,3.4495-3h.5v-.5c0-1.3789,1.1211-2.5,2.5-2.5h25c1.3789,0,2.5,1.1211,2.5,2.5v.5h.5c1.7585,0,3.2042,1.3083,3.4495,3h2.5505c.8271,0,1.5,.6729,1.5,1.5Zm-38-3.5h-.5c-1.3789,0-2.5,1.1211-2.5,2.5v6c0,1.3789,1.1211,2.5,2.5,2.5h.5V13Zm19,35.0634l-8,1.7233v.1488c0,.4277,.1836,.8369,.5029,1.1201l3.165,2.8135c.1895,.168,.4746,.1699,.6641,0l3.165-2.8135c.3193-.2832,.5029-.6924,.5029-1.1201v-1.8721Zm0-5.1465l-8,1.7233v2.0767l8-1.7226v-2.0775Zm0-5.1465l-8,1.7233v2.0767l8-1.7226v-2.0775Zm0-4.8696c-1.484,.0911-2.8131,.107-3.5068,.107-.2812,0-.458-.002-.501-.0029-.1392,.0024-1.9103,.0244-3.9922-.1037v3.5228l8-1.7226v-1.8006Zm10-21.4008c0-.8271-.6729-1.5-1.5-1.5H19.5c-.8271,0-1.5,.6729-1.5,1.5v14c0,.8271,.6729,1.5,1.5,1.5h25c.8271,0,1.5-.6729,1.5-1.5V11.5Zm4,4c0-1.3789-1.1211-2.5-2.5-2.5h-.5v11h.5c1.3789,0,2.5-1.1211,2.5-2.5v-6Zm-11.5-3.5h-1c-1.3789,0-2.5,1.1211-2.5,2.5v8c0,1.3789,1.1211,2.5,2.5,2.5h1c1.3789,0,2.5-1.1211,2.5-2.5V14.5c0-1.3789-1.1211-2.5-2.5-2.5Z"/>

</g>

</svg>