<?xml version="1.0" ?>


<svg fill="#000000" width="800px" height="800px" viewBox="0 0 64 64" xmlns="http://www.w3.org/2000/svg">

<g id="a"/>

<g id="b">

<path d="M51.5,41h-1.5v-2h3.5c.2764,0,.5-.2236,.5-.5v-6c0-.2764-.2236-.5-.5-.5h-10.5v-4.499c0-.668-.2598-1.2959-.7324-1.7686-.4727-.4717-1.0996-.7314-1.7666-.7314h-.002l-8.2275,.0049c-.0165,0-.0302,.0101-.0464,.0117-1.7017-1.8598-10.1067-11.0523-10.6508-11.7119-1.0967-1.3311-2.1504-1.3223-3.5938-1.3027-.3955,.0049-.8359,.0098-1.3359-.0107-.6846-.0186-1.0391,.2607-1.2393,.5039-.4407,.5361-.4157,1.3322-.3573,1.7799-.5206,1.6014-4.0771,13.0677-4.9034,16.101l.0107,.0029c-.0707,.2117-.1157,.4339-.125,.6669-1.2411,.3275-3.0244,1.3489-3.0244,3.5402,0,2.1377,0,5.7158,4.6709,6.7578,.5791,.1289,1.1406,.1924,1.6797,.1924,1.2314,0,2.3457-.333,3.2812-.9902,1.335-.9375,2.2021-2.4902,2.4424-4.3721,.0186-.1445-.0273-.291-.126-.3984-.0977-.1084-.2393-.167-.3838-.165-.1685,0-3.6823,.0569-4.5701-2.6158,.3452-.2894,.6055-.6692,.7481-1.1068l.0104,.0048,4.7305-10.2991,7.6513,12.1137c-.0843,.2502-.1406,.5134-.1406,.7918v4c0,.2764,.2236,.5,.5,.5h3.5v2h-.5c-3.0322,0-5.5,2.4678-5.5,5.5s2.4678,5.5,5.5,5.5h21c3.0322,0,5.5-2.4678,5.5-5.5s-2.4678-5.5-5.5-5.5Zm-33.5049-4.4023c-.2852,1.3486-.959,2.4473-1.9316,3.1309-1.1094,.7783-2.5488,1.001-4.1699,.6396-3.5947-.8018-3.8877-3.0928-3.8877-5.7812,0-1.6873,1.4486-2.3284,2.1913-2.5468,.3583,.8951,1.2307,1.5311,2.252,1.5311,.2355,0,.4587-.0443,.6742-.1072,.8527,2.2532,3.2546,3.0195,4.8717,3.1335Zm-3.4436-6.6481c-.4184-.7339-1.199-1.2357-2.1023-1.2357-.2946,0-.5736,.0607-.8351,.1572,1.1284-3.8521,3.2431-10.6423,4.0731-13.2961l3.1651,5.0111-4.3008,9.3635Zm4.4866-13.9302c-.4713,0-.8533-.382-.8533-.8533s.3821-.8533,.8533-.8533,.8533,.3821,.8533,.8533-.382,.8533-.8533,.8533Zm13.5059,9.9865l7.9551-.0049h.002c.3994,0,.7764,.1562,1.0596,.4395s.4395,.6602,.4395,1.0605v4.499h-12.4196c.3781-1.1034,1.2631-3.3425,2.9636-5.9941Zm-.5439,12.9941h17v2h-17v-2Zm19.5,12H30.5c-2.4814,0-4.5-2.0186-4.5-4.5s2.0186-4.5,4.5-4.5h21c2.4814,0,4.5,2.0186,4.5,4.5s-2.0186,4.5-4.5,4.5Zm-18-4.5c0,1.6569-1.3431,3-3,3s-3-1.3431-3-3,1.3431-3,3-3,3,1.3431,3,3Zm10.5,0c0,1.6569-1.3431,3-3,3s-3-1.3431-3-3,1.3431-3,3-3,3,1.3431,3,3Zm10.5,0c0,1.6569-1.3431,3-3,3s-3-1.3431-3-3,1.3431-3,3-3,3,1.3431,3,3Z"/>

</g>

</svg>