<?xml version="1.0" ?>


<svg fill="#000000" width="800px" height="800px" viewBox="0 0 64 64" xmlns="http://www.w3.org/2000/svg">

<g id="a"/>

<g id="b">

<path d="M22.6177,43.9849l-5.064,9.812c-.0889,.1719-.2637,.2705-.4448,.2705-.0771,0-.1553-.0181-.229-.0557-.2451-.1265-.3413-.4282-.2148-.6738l6.0083-11.6416c.1064-.2046,.3359-.312,.5625-.2563,.2241,.0542,.3818,.2554,.3818,.4858v6.2695c0,.2764-.2236,.5-.5,.5s-.5-.2236-.5-.5v-4.2104Zm24.9258,4.3472l1.3549,4.2427c.0845,.2632-.061,.5444-.3237,.6284-.0508,.0166-.1021,.0239-.1523,.0239-.2119,0-.4082-.1353-.4761-.3477l-1.337-4.1866c-.2547,.0694-.4872,.1165-.6576,.1446-.355,.4927-1.3745,1.7212-2.7764,1.8418-.3823,.3462-1.3931,.9751-3.4951,.6826-.23,.0522-.7607,.1553-1.3657,.1553-.6328,0-1.3467-.1128-1.8828-.5151-.3923-.2943-.6345-.7166-.7274-1.2267l-6.9142-2.0546c-.0337-.0103-.0664-.0239-.0977-.041-.0231-.0127-.2225-.1314-.4654-.3385l-6.3185,8.4547c-.3804,.5082-1.1709-.046-.8162-.5778l6.0317-9.0046c.0543-.0797,.1194-.1294,.1838-.1801-.1199-.3446-.1825-.7418-.133-1.1974,.0552-.5083,.3184-.9546,.7612-1.29,1.0913-.8262,3.0337-.8271,3.8052-.6992,.8876,.1479,3.4321,.9395,4.4504,1.2617,.3519-.696,1.2225-2.0702,3.0164-3.125,1.0605-.6236,2.1942-1.2868,3.2968-1.5703l1.6129-.9888c-.1226-.1899-.2476-.3779-.3711-.5645-.6836-1.0308-1.3291-2.0044-1.5396-3.0977-.0518-.271,.1255-.5332,.397-.5854,.2686-.0527,.5327,.1255,.5854,.397,.1719,.896,.7637,1.7886,1.3906,2.7334,.2212,.334,.4458,.6724,.6572,1.0186,.1436,.2354,.0698,.543-.1655,.687l-.6468,.3964c.3335,.1063,.658,.274,.9681,.5294,1.0364,.8547,2.7436,2.8987,3.2261,4.9924,1.6776-1.197,4.499-3.5537,4.3979-5.1292-.2104-3.2998-4.2412-10.8848-6.4546-12.7964-1.7007-1.4686-4.2712-1.2651-5.0866-1.1555-.0958,1.7442-.3309,3.3242-.8459,4.5501-1.34,3.17-4.41,6.5099-9.08,6.5099h-.28c-4.97-.15-7.52-3.8799-7.63-4.04-.03-.06-.06-.12-.07-.19-.0373-.1824-.403-2.0795-.8233-4.3352-2.7102,.2156-4.9637,1.6344-7.0426,7.247-1.7202,4.645-3.8979,10.5674-4.5444,12.3271l-.189,.5151c-.0742,.2021-.2656,.3276-.4692,.3276-.0571,0-.1152-.0098-.1724-.0308-.2593-.0952-.3921-.3823-.2969-.6416l.189-.5151c.6465-1.7598,2.8242-7.6841,4.5454-12.3301,1.9332-5.2203,4.22-7.5458,7.7974-7.884-.5461-2.9583-1.1172-6.184-1.1541-6.9102,0-.11-.0099-.24-.02-.4-.16-1.89-.56-6.91,3.9-11.88,.15-.17,.4-.22,.6-.11,.02,0,1.93,.97,4.81,.97,1.83,0,3.29-.1201,4.47-.22,1.55-.12,2.57-.21,3.27,.08,1.32,.53,2.77,2.76,2.87,7.4,.02,.92,.06,1.88,.1,2.87,.0778,1.9203,.1515,3.8651,.1072,5.6751,1.1034-.1298,3.7874-.2372,5.6986,1.4135,2.3882,2.062,6.5723,9.9312,6.7993,13.4897,.1595,2.4908-4.1287,5.553-5.2686,6.3216-.0053,.4719-.0831,.9367-.2739,1.3791-.1706,.3958-.5275,.6815-.9291,.8931Zm-12.5035-22.972c-.13-.97-.62-4.2-1.44-4.89-.09-.0699-.24-.11-.33-.11-.07,0-6.9,.1-9.36,.25-.15,.01-.28,.08-.37,.2-.09,.11-.12,.26-.09,.41l1.02,4.6c.0601,.22,.26,.39,.4901,.39h.02l9.58-.28c.14-.01,.28-.07,.37-.18,.09-.11,.13-.25,.11-.39Zm9.7164,15.35c-1.1011-.9097-2.5034-.3579-5.0415,1.1357-1.5699,.923-2.335,2.1375-2.6292,2.7117,.5195,.4198,1.4079,1.331,1.4104,2.6829,.0015,.8271-.2368,1.4863-.7085,1.9585-.3359,.3367-.7283,.5081-1.0446,.5961,.0613,.1631,.1496,.3026,.2877,.4063,.582,.4389,1.7332,.3242,2.3136,.2089,1.5419-2.4123,.4695-4.2781,.4218-4.3578-.1411-.2363-.0659-.5435,.1694-.6855,.2368-.1426,.541-.0698,.6846,.1646,.058,.0954,1.2975,2.1906-.131,4.9001,1.3363,.0505,1.9022-.3883,2.0353-.5143,.8561-1.8568,.1881-3.3019,.1586-3.3629-.1187-.248-.0161-.5469,.2314-.6675,.2485-.1211,.5449-.0195,.6665,.2266,.0338,.068,.7053,1.4804,.1671,3.3727,.7515-.3607,1.3029-1.1011,1.4478-1.313,.3343-1.1823-.3088-2.5496-.3156-2.5636-.1196-.2485-.0156-.5474,.2329-.6675,.25-.1182,.5474-.0166,.667,.231,.0289,.0599,.5912,1.2587,.4948,2.5699,.1641-.0433,.3288-.093,.4836-.1517,.0073-.0027,.0122-.0086,.0197-.011l.0095-.0011c.369-.1433,.6766-.3267,.7668-.5355,.8936-2.0732-1.4204-5.1973-2.7983-6.3335ZM24.56,21.57l.8,3.63,8.61-.26c-.23-1.51-.61-3.09-.91-3.58-1.12,.02-6.03,.1-8.5,.21Z"/>

</g>

</svg>