<?xml version="1.0" ?>
<svg fill="#000000" width="800px" height="800px" viewBox="0 0 64 64" id="Layer_1_1_" version="1.1" xml:space="preserve" xmlns="http://www.w3.org/2000/svg" xmlns:xlink="http://www.w3.org/1999/xlink"><path d="M6.552,55.427L3.523,63h56.954l-3.03-7.573c-1.07-2.676-3.378-4.69-6.173-5.389l-6.431-1.608  c1.383-0.908,2.398-2.262,2.868-3.863c0.26-0.885,0.971-1.596,1.856-1.855c1.731-0.509,3.182-1.649,4.083-3.211  c0.902-1.562,1.164-3.389,0.739-5.142c-0.217-0.897,0.043-1.868,0.679-2.535C56.314,30.517,57,28.804,57,27  s-0.686-3.517-1.931-4.823c-0.548-0.575-0.796-1.375-0.721-2.16l0.097-0.057C57.872,18.257,60,14.824,60,11c0-5.514-4.486-10-10-10  c-2.96,0-5.725,1.297-7.632,3.553c-0.986-0.197-2.01-0.185-3.011,0.057c-0.894,0.22-1.866-0.042-2.535-0.68  C35.516,2.686,33.803,2,32,2s-3.516,0.686-4.823,1.931c-0.668,0.637-1.639,0.896-2.535,0.68c-1.001-0.243-2.025-0.254-3.011-0.057  C19.725,2.297,16.96,1,14,1C8.486,1,4,5.486,4,11c0,3.824,2.128,7.257,5.494,8.927l0.158,0.093c0.075,0.784-0.173,1.583-0.721,2.157  C7.686,23.483,7,25.196,7,27s0.686,3.517,1.931,4.823c0.636,0.667,0.896,1.638,0.679,2.535c-0.425,1.753-0.163,3.579,0.739,5.142  c0.902,1.562,2.352,2.702,4.084,3.212c0.885,0.259,1.596,0.97,1.855,1.855c0.471,1.601,1.485,2.954,2.868,3.862l-6.431,1.608  C9.931,50.736,7.623,52.751,6.552,55.427z M36.973,30.082c-0.101-1.249-0.876-2.307-1.973-2.793v-1.028  c0-1.395,0.271-2.771,0.792-4.055l0.087,0.087C36.979,23.394,38.443,24,40,24s3.021-0.606,4.121-1.707l1.166-1.166l-1.107-1.66  C43.15,17.922,41.427,17,39.57,17c-1.935,0-3.755,1.03-4.75,2.689C33.629,21.674,33,23.946,33,26.261V27h-2v-0.739  c0-2.314-0.629-4.587-1.82-6.571C28.185,18.03,26.364,17,24.43,17c-1.856,0-3.58,0.922-4.609,2.467l-1.107,1.66l1.166,1.166  C20.979,23.394,22.443,24,24,24s3.021-0.606,4.121-1.707l0.087-0.087C28.729,23.489,29,24.866,29,26.261v1.028  c-1.096,0.486-1.872,1.544-1.973,2.792c-1.482,0.683-2.748,1.645-3.73,2.801l-4.69-4.69C16.926,26.512,16,24.276,16,21.899  C16,16.992,19.992,13,24.899,13c2.377,0,4.612,0.926,6.293,2.606L32,16.414l0.808-0.808C34.489,13.926,36.724,13,39.101,13  C44.008,13,48,16.992,48,21.899c0,2.377-0.926,4.612-2.606,6.293l-4.69,4.69C39.72,31.727,38.454,30.764,36.973,30.082z   M32.657,34.628c-0.275,0.459-1.039,0.459-1.314,0l-2.15-3.585C29.066,30.833,29,30.594,29,30.35c0-0.744,0.605-1.35,1.349-1.35  h3.302C34.395,29,35,29.605,35,30.35c0,0.244-0.066,0.483-0.192,0.693L32.657,34.628z M36.779,20.364  C37.444,19.514,38.479,19,39.57,19c1.186,0,2.287,0.589,2.945,1.576l0.198,0.297l-0.006,0.006c-1.446,1.445-3.968,1.445-5.414,0  L36.779,20.364z M27.221,20.364l-0.514,0.515c-1.446,1.445-3.968,1.445-5.414,0l-0.006-0.006l0.198-0.297  C22.143,19.589,23.244,19,24.43,19C25.521,19,26.556,19.514,27.221,20.364z M27.491,32.094l2.137,3.563  c0.317,0.529,0.811,0.909,1.372,1.13v1.799l-0.586,0.586C29.235,40.351,27.668,41,26,41v2c2.202,0,4.272-0.857,5.828-2.414  L32,40.414l0.172,0.172C33.728,42.143,35.798,43,38,43v-2c-1.668,0-3.235-0.649-4.414-1.828L33,38.586v-1.799  c0.561-0.221,1.055-0.601,1.372-1.13l2.137-3.563C39.259,33.516,41,36.132,41,39c0,4.411-4.038,8-9,8s-9-3.589-9-8  C23,36.132,24.74,33.516,27.491,32.094z M26,47.37c1.727,1.027,3.786,1.63,6,1.63s4.273-0.603,6-1.63v0.115l-6,4.286l-6-4.286V47.37  z M39.205,49.082l0.659,0.165l-2.349,7.047l-3.88-3.233L39.205,49.082z M24.795,49.082l5.57,3.978l-3.88,3.233l-2.349-7.047  L24.795,49.082z M32,54.302L34.038,56H34v5h-4v-5h-0.038L32,54.302z M55.59,56.169L57.523,61H36v-3.365l2.485,2.071l3.324-9.973  l8.979,2.244C52.963,52.521,54.758,54.088,55.59,56.169z M53.028,13.604c-0.887-1.1-2.082-1.911-3.461-2.316  c-0.885-0.259-1.596-0.97-1.855-1.855c-0.129-0.44-0.3-0.86-0.507-1.259C47.949,7.434,48.93,7,50,7c2.206,0,4,1.794,4,4  C54,11.976,53.649,12.886,53.028,13.604z M50,3c4.411,0,8,3.589,8,8c0,2.643-1.276,5.049-3.429,6.555  c-0.046-0.739-0.214-1.466-0.492-2.159C55.305,14.263,56,12.695,56,11c0-3.309-2.691-6-6-6c-1.501,0-2.901,0.55-3.989,1.526  C45.568,6.072,45.062,5.674,44.5,5.35c-0.035-0.02-0.072-0.036-0.107-0.055C45.883,3.827,47.881,3,50,3z M6,11c0-4.411,3.589-8,8-8  c2.119,0,4.117,0.827,5.608,2.294c-0.035,0.02-0.072,0.035-0.107,0.055c-0.562,0.325-1.068,0.722-1.511,1.177  C16.901,5.55,15.501,5,14,5c-3.309,0-6,2.691-6,6c0,1.695,0.695,3.263,1.922,4.396c-0.28,0.696-0.448,1.426-0.493,2.169  C7.29,16.082,6,13.66,6,11z M10.972,13.604C10.351,12.886,10,11.976,10,11c0-2.206,1.794-4,4-4c1.07,0,2.052,0.434,2.796,1.174  c-0.207,0.399-0.378,0.82-0.507,1.26c-0.26,0.885-0.971,1.596-1.856,1.855C13.054,11.694,11.859,12.505,10.972,13.604z   M22.166,47.52c-0.583-0.098-1.144-0.301-1.666-0.602c-1.114-0.643-1.928-1.678-2.292-2.914c-0.449-1.531-1.68-2.762-3.21-3.211  c-1.237-0.364-2.272-1.178-2.916-2.293c-0.644-1.115-0.832-2.419-0.528-3.671c0.376-1.552-0.074-3.232-1.175-4.387  C9.49,29.51,9,28.287,9,27s0.49-2.51,1.378-3.442c1.101-1.154,1.552-2.835,1.175-4.387c-0.304-1.252-0.116-2.556,0.528-3.671  c0.644-1.115,1.679-1.929,2.915-2.292c1.531-0.45,2.762-1.681,3.211-3.211c0.364-1.237,1.178-2.272,2.292-2.915  c1.116-0.646,2.42-0.832,3.671-0.528c1.549,0.376,3.23-0.073,4.386-1.176C29.49,4.489,30.712,4,32,4s2.51,0.489,3.443,1.378  c1.156,1.102,2.834,1.553,4.386,1.176c1.251-0.305,2.555-0.117,3.671,0.528c1.114,0.643,1.928,1.678,2.292,2.914  c0.449,1.531,1.68,2.762,3.21,3.211c1.237,0.364,2.272,1.178,2.916,2.293c0.644,1.115,0.832,2.419,0.528,3.671  c-0.376,1.552,0.074,3.232,1.175,4.387C54.51,24.49,55,25.713,55,27s-0.49,2.51-1.378,3.442c-1.101,1.154-1.552,2.835-1.175,4.387  c0.304,1.252,0.116,2.556-0.528,3.671c-0.644,1.115-1.679,1.929-2.915,2.292c-1.531,0.45-2.762,1.681-3.211,3.211  c-0.364,1.237-1.178,2.272-2.292,2.915c-0.521,0.301-1.082,0.504-1.695,0.607l-0.323,0.064L40,47.219v-1.377  c1.854-1.791,3-4.195,3-6.842c0-1.574-0.41-3.085-1.147-4.439l4.955-4.955C48.866,27.548,50,24.811,50,21.899  C50,15.89,45.11,11,39.101,11c-2.634,0-5.125,0.928-7.101,2.629C30.025,11.928,27.533,11,24.899,11C18.89,11,14,15.89,14,21.899  c0,2.911,1.134,5.648,3.192,7.707l4.955,4.955C21.41,35.915,21,37.426,21,39c0,2.647,1.146,5.051,3,6.842v1.377l-1.415,0.354  L22.166,47.52z M22.19,49.733l3.324,9.973L28,57.635V61H6.477l1.932-4.831c0.833-2.081,2.628-3.647,4.802-4.191L22.19,49.733z"/></svg>