<?xml version="1.0" ?>


<svg fill="#000000" width="800px" height="800px" viewBox="0 0 64 64" id="Layer_1_1_" version="1.1" xml:space="preserve" xmlns="http://www.w3.org/2000/svg" xmlns:xlink="http://www.w3.org/1999/xlink">

<g>

<path d="M45.186,20.228l2.521-2.521l-1.414-1.414l-30,30l1.414,1.414l2.521-2.521l41.378,17.733C61.733,62.974,61.867,63,62,63   c0.26,0,0.516-0.102,0.707-0.293c0.289-0.289,0.373-0.725,0.212-1.101L45.186,20.228z M33,32.414l5-5v23.212l-5-2.143V32.414z    M31,47.626l-5-2.143v-6.07l5-5V47.626z M45,49h-5v-2h5V49z M45,45h-5v-2h5V45z M45,41h-5v-2h5V41z M45,37h-5v-2h5V37z M45,33h-5   v-2h5V33z M45,29h-5v-2h5V29z M40,51h5v2.626l-5-2.143V51z M47,29.538l5,11.667v15.421l-5-2.143V29.538z M45.055,25H45h-4.586   l3.249-3.249L45.055,25z M24,41.414v3.212l-2.249-0.964L24,41.414z M54,57.484V45.872l6.096,14.224L54,57.484z"/>

<path d="M17.168,40.555l1.664-1.109l-0.651-0.977c-2.292-3.437-5.74-5.954-9.711-7.089C7.588,31.128,6.676,31,5.757,31   C3.134,31,1,33.134,1,35.757c0,1.068,0.416,2.073,1.172,2.829c1.56,1.56,4.097,1.56,5.656,0l0.879-0.879l-1.414-1.414l-0.879,0.879   c-0.78,0.779-2.048,0.779-2.828,0C3.208,36.794,3,36.292,3,35.757C3,34.237,4.237,33,5.757,33c0.732,0,1.46,0.102,2.163,0.303   c3.516,1.004,6.569,3.233,8.597,6.275L17.168,40.555z"/>

<path d="M38.469,18.181l0.977,0.651l1.109-1.664l-0.977-0.651c-3.042-2.028-5.271-5.082-6.275-8.597C33.102,7.217,33,6.49,33,5.757   C33,4.237,34.237,3,35.757,3c0.534,0,1.037,0.208,1.415,0.586c0.78,0.78,0.78,2.048,0,2.828l-0.879,0.879l1.414,1.414l0.879-0.879   c1.56-1.56,1.56-4.097,0-5.656C37.831,1.416,36.826,1,35.757,1C33.134,1,31,3.134,31,5.757c0,0.918,0.128,1.831,0.38,2.712   C32.515,12.441,35.032,15.89,38.469,18.181z"/>

<path d="M4.209,13.872L8,11.776l3.791,2.096l-0.722-4.429l3.006-3.081l-4.16-0.636L8,1.646l-1.915,4.08l-4.16,0.636l3.006,3.081   L4.209,13.872z M7.443,7.541L8,6.354l0.557,1.188L9.925,7.75L8.932,8.769l0.222,1.36L8,9.491l-1.154,0.638l0.222-1.36L6.075,7.75   L7.443,7.541z"/>

<path d="M24.399,20.159c0.14,0.105,1.393,1.041,2.219,1.454l0.895-1.789c-0.562-0.281-1.571-1.008-1.922-1.271   c-2.183-1.596-4.047-3.54-5.54-5.779C18.709,10.761,18,8.419,18,6c0-1.654,1.346-3,3-3c1.103,0,2,0.897,2,2s-0.897,2-2,2v2   c2.206,0,4-1.794,4-4s-1.794-4-4-4c-2.757,0-5,2.243-5,5c0,2.815,0.825,5.541,2.387,7.883   C20.01,16.318,22.037,18.432,24.399,20.159z"/>

<polygon points="34.414,23.09 29.554,20.877 29.427,20.814 28.635,22.654 33.586,24.91  "/>

<path d="M20.911,28.619l2.179,4.794l1.82-0.827l-2.179-4.794c-1.435-3.157-3.475-5.932-6.064-8.248l-1.333,1.491   C17.714,23.165,19.591,25.717,20.911,28.619z"/>

<path d="M5,24c2.206,0,4-1.794,4-4H7c0,1.103-0.897,2-2,2s-2-0.897-2-2c0-1.654,1.346-3,3-3c1.907,0,3.825,0.464,5.509,1.322   c0.013,0.007,1.255,0.709,2.396,1.523l1.161-1.628c-1.227-0.875-2.521-1.607-2.612-1.657C10.454,15.54,8.222,15,6,15   c-2.757,0-5,2.243-5,5C1,22.206,2.794,24,5,24z"/>

<rect height="3" width="2" x="6" y="51"/>

<rect height="3" transform="matrix(0.7071 -0.7071 0.7071 0.7071 -36.9369 18.4628)" width="2" x="2.818" y="52.318"/>

<rect height="2" width="3" x="1" y="56"/>

<rect height="2" transform="matrix(0.7071 -0.7071 0.7071 0.7071 -41.4367 20.3267)" width="3" x="2.318" y="59.182"/>

<rect height="3" width="2" x="6" y="60"/>

<rect height="3" transform="matrix(0.7071 -0.7071 0.7071 0.7071 -39.5728 24.8265)" width="2" x="9.182" y="58.682"/>

<rect height="2" width="3" x="10" y="56"/>

<rect height="2" transform="matrix(0.7071 -0.7071 0.7071 0.7071 -35.0729 22.9626)" width="3" x="8.682" y="52.818"/>

<rect height="3" width="2" x="56" y="1"/>

<rect height="3" transform="matrix(0.7071 -0.7071 0.7071 0.7071 13.0631 39.1735)" width="2" x="52.818" y="2.318"/>

<rect height="2" width="3" x="51" y="6"/>

<rect height="2" transform="matrix(0.7071 -0.7071 0.7071 0.7071 8.5633 41.0374)" width="3" x="52.318" y="9.182"/>

<rect height="3" width="2" x="56" y="10"/>

<rect height="3" transform="matrix(0.7071 -0.7071 0.7071 0.7071 10.4272 45.5372)" width="2" x="59.182" y="8.682"/>

<rect height="2" width="3" x="60" y="6"/>

<rect height="2" transform="matrix(0.7071 -0.7071 0.7071 0.7071 14.9271 43.6733)" width="3" x="58.682" y="2.818"/>

</g>

</svg>