<?xml version="1.0" ?>


<svg fill="#000000" width="800px" height="800px" viewBox="0 0 64 64" id="Layer_1_1_" version="1.1" xml:space="preserve" xmlns="http://www.w3.org/2000/svg" xmlns:xlink="http://www.w3.org/1999/xlink">

<g>

<path d="M11.446,53l-6.25,10h53.608l-6.25-10H11.446z M21.995,55.892L25.189,61h-6.393L21.995,55.892z M16.992,60.114L13.795,55   h6.399L16.992,60.114z M23.795,55h6.402l-3.203,5.115L23.795,55z M31.997,55.894L35.193,61H28.8L31.997,55.894z M33.796,55h6.402   l-3.199,5.115L33.796,55z M41.997,55.894L45.194,61h-6.39L41.997,55.894z M43.797,55h6.399l-3.196,5.114L43.797,55z M11.995,55.894   L15.186,61H8.804L11.995,55.894z M48.805,61L52,55.887L55.196,61H48.805z"/>

<path d="M6,3.343c0,2.224,0.508,4.364,1.44,6.313C6.553,10.595,6,11.852,6,13.242c0,1.401,0.545,2.718,1.536,3.707L11.586,21   l-1.293,1.293l1.414,1.414l10-10l-1.414-1.414L19,13.586l-4.051-4.052C13.958,8.545,12.642,8,11.243,8   C10.474,8,9.75,8.175,9.092,8.474C8.383,6.878,8,5.141,8,3.343V3h5V1H1v2h5V3.343z M11.243,10c0.866,0,1.68,0.337,2.293,0.949   L17.586,15L13,19.586l-4.051-4.052C8.337,14.923,8,14.109,8,13.242c0-0.63,0.188-1.213,0.5-1.711   c0.522,0.772,1.119,1.502,1.793,2.176l1.414-1.414c-0.633-0.633-1.185-1.324-1.663-2.057C10.416,10.087,10.818,10,11.243,10z"/>

<path d="M51,1v2h5v0.343c0,1.798-0.383,3.535-1.092,5.131C54.25,8.175,53.526,8,52.757,8c-1.399,0-2.716,0.545-3.707,1.535   L45,13.586l-1.293-1.293l-1.414,1.414l10,10l1.414-1.414L52.414,21l4.05-4.05C57.455,15.96,58,14.644,58,13.242   c0-1.39-0.553-2.648-1.44-3.587C57.492,7.707,58,5.566,58,3.343V3h5V1H51z M56,13.242c0,0.867-0.337,1.681-0.95,2.293L51,19.586   L46.414,15l4.05-4.05c0.613-0.613,1.428-0.95,2.293-0.95c0.424,0,0.827,0.087,1.199,0.236c-0.478,0.733-1.03,1.424-1.663,2.057   l1.414,1.414c0.674-0.674,1.271-1.404,1.793-2.176C55.812,12.029,56,12.613,56,13.242z"/>

<polygon points="13.249,49.34 14.751,50.66 18.911,45.926 20.032,50.251 21.968,49.749 20.506,44.111 31.5,31.601 42.494,44.111    41.032,49.749 42.968,50.251 44.089,45.926 48.249,50.66 49.751,49.34 32.831,30.086 43.751,17.66 42.249,16.34  "/>

<rect height="2" transform="matrix(0.251 -0.968 0.968 0.251 4.3863 68.9638)" width="17.867" x="37.825" y="30.648"/>

<rect height="14.367" transform="matrix(0.7512 -0.6601 0.6601 0.7512 -8.6273 21.9055)" width="2" x="23.742" y="15.212"/>

<rect height="18.222" transform="matrix(0.968 -0.251 0.251 0.968 -7.4639 5.1053)" width="2" x="15.287" y="22.708"/>

<rect height="2" width="2" x="57" y="37"/>

<rect height="2" transform="matrix(0.7071 -0.7071 0.7071 0.7071 -11.5393 50.4854)" width="2" x="54.172" y="38.172"/>

<rect height="2" width="2" x="53" y="41"/>

<rect height="2" transform="matrix(0.7071 -0.7071 0.7071 0.7071 -15.5389 52.1421)" width="2" x="54.172" y="43.828"/>

<rect height="2" width="2" x="57" y="45"/>

<rect height="2" transform="matrix(0.707 -0.7072 0.7072 0.707 -13.8801 56.1549)" width="2" x="59.828" y="43.828"/>

<rect height="2" width="2" x="61" y="41"/>

<rect height="2" transform="matrix(0.7071 -0.7071 0.7071 0.7071 -9.8825 54.4853)" width="2" x="59.828" y="38.172"/>

<rect height="2" width="2" x="31" y="1"/>

<rect height="2" transform="matrix(0.707 -0.7072 0.7072 0.707 6.3045 21.5604)" width="2" x="28.172" y="2.172"/>

<rect height="2" width="2" x="27" y="5"/>

<rect height="2" transform="matrix(0.7072 -0.707 0.707 0.7072 2.2993 23.2085)" width="2" x="28.172" y="7.828"/>

<rect height="2" width="2" x="31" y="9"/>

<rect height="2" transform="matrix(0.707 -0.7072 0.7072 0.707 3.9617 27.2184)" width="2" x="33.828" y="7.828"/>

<rect height="2" width="2" x="35" y="5"/>

<rect height="2" transform="matrix(0.7071 -0.7071 0.7071 0.7071 7.9581 25.5564)" width="2" x="33.828" y="2.172"/>

<rect height="2" width="2" x="5" y="38"/>

<rect height="2" transform="matrix(0.707 -0.7072 0.7072 0.707 -27.4814 14.014)" width="2" x="2.172" y="39.172"/>

<rect height="2" width="2" x="1" y="42"/>

<rect height="2" transform="matrix(0.7071 -0.7071 0.7071 0.7071 -31.4764 15.6654)" width="2" x="2.172" y="44.828"/>

<rect height="2" width="2" x="5" y="46"/>

<rect height="2" transform="matrix(0.7071 -0.7071 0.7071 0.7071 -29.8196 19.6653)" width="2" x="7.828" y="44.828"/>

<rect height="2" width="2" x="9" y="42"/>

<rect height="2" transform="matrix(0.7071 -0.7071 0.7071 0.7071 -25.82 18.0087)" width="2" x="7.828" y="39.172"/>

</g>

</svg>