<?xml version="1.0" ?>


<svg fill="#000000" width="800px" height="800px" viewBox="0 0 64 64" id="Layer_1_1_" version="1.1" xml:space="preserve" xmlns="http://www.w3.org/2000/svg" xmlns:xlink="http://www.w3.org/1999/xlink">

<g>

<path d="M32,43c1.999,0,3.92-0.605,5.557-1.751l4.76-3.333l-1.146-1.639l-4.76,3.333c-2.598,1.818-6.223,1.818-8.82,0l-4.759-3.332   l-1.146,1.639l4.759,3.332C28.08,42.395,30.001,43,32,43z"/>

<polygon points="26,26 24,26 24,27 23,27 23,29 24,29 24,30 26,30 26,29 27,29 27,27 26,27  "/>

<polygon points="40,26 38,26 38,27 37,27 37,29 38,29 38,30 40,30 40,29 41,29 41,27 40,27  "/>

<path d="M50.187,48.5c1.378-2.388,0.558-5.452-1.829-6.83l-0.383-0.221c-0.403-0.232-0.835-0.407-1.284-0.52l-1.368-0.341   c0.362-0.356,0.67-0.757,0.921-1.192c2.395-0.381,4.461-1.794,5.676-3.897c1-1.733,1.314-3.762,0.886-5.714l-0.078-0.233   C54.138,28.089,55,26.115,55,24c0-2.108-0.858-4.077-2.261-5.538l0.066-0.247c0.429-1.952,0.114-3.981-0.886-5.714   c-1.025-1.775-2.67-3.076-4.632-3.663l-0.099-0.019c-0.556-1.957-1.84-3.67-3.688-4.737c-1.733-1-3.763-1.313-5.748-0.877   l-0.215,0.055C36.068,1.848,34.095,1,32,1c-2.096,0-4.058,0.804-5.557,2.257c-1.974-0.491-4.112-0.233-5.943,0.824   c-1.843,1.065-3.126,2.771-3.684,4.722l-0.103,0.034c-1.962,0.587-3.606,1.888-4.632,3.664c-1,1.733-1.314,3.762-0.877,5.75   l0.055,0.213C9.857,19.925,9,21.893,9,24c0,2.101,0.853,4.063,2.248,5.523l-0.052,0.263c-0.429,1.952-0.114,3.981,0.886,5.714   c1.215,2.103,3.28,3.515,5.676,3.897c0.251,0.435,0.559,0.835,0.92,1.191L17.31,40.93c-0.449,0.113-0.881,0.288-1.286,0.521   l-0.38,0.22c-2.388,1.378-3.208,4.442-1.83,6.83c0.033,0.057,0.079,0.103,0.114,0.159l-4.554,4.555l0.707,0.707   C15.935,59.775,23.72,63,32,63s16.065-3.225,21.92-9.08l0.707-0.707l-4.554-4.555C50.108,48.603,50.154,48.557,50.187,48.5z    M46.975,43.182l0.382,0.221c1.433,0.827,1.925,2.665,1.098,4.098c-0.4,0.694-1.048,1.19-1.821,1.398   c-0.774,0.206-1.583,0.101-2.276-0.3l-0.382-0.22c-0.24-0.138-0.461-0.31-0.655-0.511l-1.228-1.269l-1.438,1.391l1.229,1.27   c0.003,0.004,0.008,0.006,0.011,0.01l0,0c0.173,0.167,0.346,0.467,0.484,0.708l0.22,0.381c0.827,1.433,0.335,3.271-1.098,4.098   c-1.433,0.829-3.271,0.335-4.098-1.097l-0.221-0.383c-0.139-0.239-0.244-0.499-0.312-0.77l-1.415-5.653   c0.961-0.25,1.892-0.603,2.78-1.058l1.188,1.221l1.438-1.391l-0.87-0.895l3.237-2.266l2.978,0.708   C46.474,42.938,46.733,43.042,46.975,43.182z M21.402,50.356l0.258-0.447c0.148-0.257,0.265-0.46,0.412-0.603l-0.004-0.004   c0.016-0.016,0.034-0.029,0.05-0.045l3.615-3.737l0.027-0.03c0.889,0.457,1.822,0.81,2.785,1.061l-1.415,5.652   c-0.068,0.272-0.174,0.532-0.313,0.773l-0.22,0.38c-0.4,0.694-1.047,1.19-1.821,1.397c-0.774,0.208-1.583,0.101-2.276-0.3   C21.067,53.627,20.575,51.789,21.402,50.356z M43,32.235c-1.148,0.302-3.518,0.888-6.047,1.297C36.713,30.997,34.597,29,32,29   c-2.596,0-4.711,1.996-4.952,4.529c-2.542-0.413-4.903-0.995-6.048-1.295v-9.046C21.884,23.701,22.907,24,24,24   c1.759,0,3.411-0.786,4.539-2.109c2.012,1.442,4.91,1.442,6.922,0C36.589,23.214,38.241,24,40,24c1.093,0,2.116-0.299,3-0.812   V32.235z M35,34c0,1.654-1.346,3-3,3s-3-1.346-3-3s1.346-3,3-3S35,32.346,35,34z M20.084,34.061c1.001,0.272,3.976,1.044,7.2,1.531   C27.953,37.566,29.803,39,32,39c2.205,0,4.06-1.444,4.723-3.429l0.436-0.047c3.05-0.488,5.8-1.202,6.758-1.463   C44.594,34.732,45,35.636,45,36.604c0,1.175-0.574,2.278-1.537,2.952l-4.759,3.332C36.729,44.27,34.411,45,32,45   s-4.729-0.73-6.704-2.113l-4.759-3.332C19.574,38.882,19,37.778,19,36.604C19,35.636,19.406,34.732,20.084,34.061z M29,53.56   c0-0.279,0.039-0.556,0.116-0.824l1.656-5.796C31.179,46.976,31.588,47,32,47s0.821-0.024,1.228-0.06l1.657,5.797   C34.961,53.004,35,53.281,35,53.56V54c0,1.654-1.346,3-3,3s-3-1.346-3-3V53.56z M17,36.604c0,0.186,0.015,0.371,0.034,0.554   c-1.349-0.469-2.491-1.395-3.22-2.657c-0.626-1.086-0.871-2.325-0.753-3.568c0.52,0.298,1.065,0.56,1.655,0.736l0.57-1.917   C12.762,29.001,11,26.636,11,24s1.762-5.001,4.285-5.751l-0.57-1.917c-0.59,0.176-1.135,0.438-1.656,0.736   c-0.118-1.236,0.126-2.479,0.754-3.568c0.624-1.081,1.565-1.91,2.693-2.43c0.003,0.355,0.021,0.712,0.072,1.071l1.98-0.282   c-0.348-2.44,0.807-4.813,2.941-6.045c2.175-1.257,4.932-1.017,6.857,0.598l1.285-1.532c-0.35-0.294-0.724-0.546-1.111-0.771   C29.539,3.391,30.736,3,32,3c2.306,0,4.434,1.346,5.423,3.429l1.807-0.857c-0.085-0.179-0.193-0.342-0.29-0.512   c1.234-0.117,2.475,0.128,3.561,0.755c2.135,1.232,3.289,3.605,2.941,6.045l1.98,0.282c0.051-0.359,0.068-0.716,0.072-1.07   c1.121,0.515,2.066,1.344,2.693,2.429c0.633,1.098,0.877,2.352,0.757,3.57c-0.521-0.299-1.067-0.562-1.659-0.738l-0.57,1.917   C51.238,18.999,53,21.364,53,24s-1.762,5.001-4.285,5.751l0.57,1.917c0.59-0.175,1.135-0.438,1.655-0.736   c0.118,1.235-0.126,2.479-0.754,3.567c-0.729,1.263-1.872,2.189-3.22,2.658C46.985,36.974,47,36.79,47,36.604   c0-1.661-0.739-3.227-2-4.287V21.31c0.631-0.95,1-2.087,1-3.31h-2c0,2.206-1.794,4-4,4c-1.438,0-2.772-0.796-3.482-2.079   l-0.666-1.203l-0.939,1.004C34.143,20.546,33.107,21,32,21s-2.143-0.454-2.912-1.277l-0.939-1.004l-0.666,1.203   C26.772,21.204,25.438,22,24,22c-2.206,0-4-1.794-4-4h-2c0,1.223,0.369,2.36,1,3.31v11.007C17.739,33.376,17,34.942,17,36.604z    M16.645,43.402l0.379-0.219c0.243-0.14,0.503-0.245,0.772-0.312l2.939-0.735L24,44.421l-3.319,3.445   c-0.195,0.202-0.416,0.374-0.657,0.512l-0.381,0.22c-0.693,0.4-1.502,0.506-2.276,0.3c-0.773-0.208-1.421-0.704-1.821-1.398   C14.719,46.067,15.211,44.229,16.645,43.402z M32,61c-7.412,0-14.399-2.762-19.787-7.798l3.099-3.1   c0.465,0.32,0.976,0.577,1.537,0.728c0.431,0.116,0.868,0.172,1.302,0.172c0.325,0,0.646-0.042,0.964-0.106   c-0.398,2.039,0.487,4.195,2.384,5.29c0.771,0.445,1.626,0.672,2.492,0.672c0.434,0,0.871-0.057,1.302-0.172   c0.754-0.202,1.422-0.585,1.992-1.087C27.958,57.57,29.806,59,32,59s4.042-1.43,4.714-3.401c0.57,0.501,1.238,0.884,1.992,1.087   c0.431,0.115,0.868,0.172,1.302,0.172c0.866,0,1.722-0.227,2.492-0.672c1.156-0.668,1.983-1.746,2.329-3.036   c0.201-0.749,0.205-1.514,0.059-2.253c0.317,0.063,0.637,0.105,0.961,0.105c0.434,0,0.871-0.057,1.302-0.172   c0.562-0.15,1.072-0.407,1.537-0.728l3.099,3.1C46.399,58.238,39.412,61,32,61z"/>

</g>

</svg>