<?xml version="1.0" ?>


<svg fill="#000000" width="800px" height="800px" viewBox="0 0 64 64" id="Layer_1_1_" version="1.1" xml:space="preserve" xmlns="http://www.w3.org/2000/svg" xmlns:xlink="http://www.w3.org/1999/xlink">

<g>

<rect height="2" width="2" x="27" y="53"/>

<rect height="2" width="2" x="35" y="53"/>

<path d="M43.327,39.813c1.079-1.244,1.925-2.65,2.54-4.147C50.893,32.961,54,27.794,54,22.056v-6.359l-1.832,2.749   c-0.854,1.281-2.169,2.149-3.646,2.443l0.845-2.109C49.787,17.726,50,16.617,50,15.423c0-2.476-0.961-4.799-2.706-6.543L42,3.586V6   c0,1.618-0.441,3.169-1.266,4.514c-0.546-2.517-1.915-4.799-3.936-6.483L33,0.865v2.529c0,1.331-0.457,2.596-1.27,3.602   c-0.554-2.009-1.931-3.714-3.861-4.68L26,1.382v3.497c0,1.085-0.44,2.146-1.207,2.914C23.637,8.949,23,10.486,23,12.121v0.111   C21.744,11.208,21,9.672,21,8V5.149l-4.288,5.358C15.608,11.889,15,13.623,15,15.391c0,1.208,0.285,2.417,0.825,3.496l0.381,0.762   c-2.148-0.272-4.344-0.146-6.448,0.382l-1.714,0.428l3.327,3.327C12.422,24.836,13,26.232,13,27.719   c0,2.372,1.264,4.605,3.299,5.827l1.351,0.81C19.428,40.201,24.685,44.53,31,44.949V50H17.3l-4.728,13h38.855L46.7,50H33v-5.045   c3.24-0.218,6.338-1.48,8.813-3.628l-1.311-1.51C38.137,41.869,35.117,43,32,43c-7.168,0-13-5.832-13-13   c0-3.117,1.131-6.137,3.183-8.503l-1.51-1.311c-0.432,0.498-0.816,1.028-1.175,1.573l-1.883-3.767   C17.212,17.189,17,16.29,17,15.391c0-1.315,0.452-2.605,1.274-3.633l1.107-1.385c0.613,1.848,1.938,3.404,3.749,4.311L25,15.618   v-3.497c0-1.085,0.44-2.146,1.207-2.914C27.363,8.051,28,6.514,28,4.879V4.768C29.256,5.792,30,7.328,30,9v1.868l1.555-1.036   c1.704-1.136,2.866-2.877,3.279-4.836l0.685,0.571C37.731,7.411,39,10.12,39,13v2.414l1.879-1.879   c1.486-1.486,2.479-3.334,2.897-5.345l2.104,2.104C47.247,11.66,48,13.481,48,15.485c0,0.877-0.165,1.735-0.491,2.552L45.522,23   h1.872c1.686,0,3.292-0.544,4.605-1.518v0.573c0,4.259-1.966,8.156-5.255,10.674C46.912,31.834,47,30.921,47,30   c0-8.271-6.729-15-15-15c-3.599,0-7.084,1.305-9.813,3.673l1.311,1.51C25.863,18.131,28.883,17,32,17c7.168,0,13,5.832,13,13   c0,3.117-1.131,6.137-3.183,8.503L43.327,39.813z M15.428,61l1.031-2.836c0.698,0.085,1.114,0.353,1.631,0.716   c0.709,0.499,1.592,1.12,3.241,1.12c1.648,0,2.531-0.621,3.24-1.119c0.624-0.438,1.074-0.756,2.091-0.756   c1.016,0,1.467,0.316,2.09,0.756C29.461,59.379,30.343,60,31.991,60c1.649,0,2.533-0.621,3.242-1.119   c0.624-0.438,1.074-0.756,2.092-0.756c1.019,0,1.47,0.317,2.094,0.756C40.129,59.38,41.013,60,42.663,60s2.533-0.62,3.243-1.119   c0.517-0.363,0.934-0.632,1.635-0.717L48.572,61H15.428z M46.843,56.244c-0.946,0.203-1.565,0.634-2.087,1.001   C44.132,57.683,43.681,58,42.663,58c-1.019,0-1.47-0.317-2.094-0.756c-0.71-0.499-1.594-1.119-3.244-1.119   c-1.649,0-2.533,0.621-3.242,1.119C33.459,57.683,33.009,58,31.991,58c-1.016,0-1.466-0.316-2.089-0.755   c-0.709-0.499-1.591-1.12-3.24-1.12s-2.532,0.621-3.241,1.12C22.797,57.684,22.347,58,21.331,58c-1.017,0-1.467-0.317-2.091-0.756   c-0.521-0.366-1.139-0.797-2.083-1L18.7,52h26.6L46.843,56.244z M17.758,21.97l1.376,0.344C17.747,24.627,17,27.28,17,30   c0,0.566,0.038,1.122,0.099,1.672C15.802,30.784,15,29.299,15,27.719c0-2.021-0.786-3.92-2.215-5.348l-0.738-0.739   C13.948,21.393,15.894,21.505,17.758,21.97z"/>

</g>

</svg>