<?xml version="1.0" ?>


<svg width="800px" height="800px" viewBox="0 0 48 48" version="1.1" xml:space="preserve" xmlns="http://www.w3.org/2000/svg" xmlns:xlink="http://www.w3.org/1999/xlink">

<style type="text/css">
	.st0{fill:none;stroke:#000000;stroke-width:2;stroke-linecap:round;stroke-linejoin:round;stroke-miterlimit:10;}
</style>

<g id="Layer_3"/>

<g id="Layer_4"/>

<g id="Layer_5"/>

<g id="Layer_6"/>

<g id="Layer_7"/>

<g id="Layer_8"/>

<g id="Layer_9"/>

<g id="Layer_10"/>

<g id="Layer_11"/>

<g id="Layer_12"/>

<g id="Layer_13"/>

<g id="Layer_14"/>

<g id="Layer_15"/>

<g id="Layer_16"/>

<g id="Layer_17"/>

<g id="Layer_18"/>

<g id="Layer_19"/>

<g id="Layer_20"/>

<g id="Layer_21"/>

<g id="Layer_22"/>

<g id="Layer_23"/>

<g id="Layer_24"/>

<g id="Layer_25"/>

<g id="Layer_26"/>

<g id="Layer_27"/>

<g id="Layer_28"/>

<g id="Layer_29"/>

<g id="Layer_30"/>

<g id="Layer_31"/>

<g id="Layer_32"/>

<g id="Layer_33"/>

<g id="Layer_34"/>

<g id="Layer_35"/>

<g id="Layer_36"/>

<g id="Layer_37"/>

<g id="Layer_38"/>

<g id="Layer_39"/>

<g id="Layer_40"/>

<g id="Layer_41"/>

<g id="Layer_42">

<g>

<path d="M31,30H17c-3.3,0-6-2.7-6-6s2.7-6,6-6h14c3.3,0,6,2.7,6,6S34.3,30,31,30z M17,20c-2.2,0-4,1.8-4,4s1.8,4,4,4h14    c2.2,0,4-1.8,4-4s-1.8-4-4-4H17z"/>

<path d="M6,31c-0.6,0-1-0.4-1-1V18c0-0.6,0.4-1,1-1c3.9,0,7,3.1,7,7S9.9,31,6,31z M7,19.1v9.8c2.3-0.5,4-2.5,4-4.9    S9.3,19.6,7,19.1z"/>

<path d="M42,31c-3.9,0-7-3.1-7-7s3.1-7,7-7c0.6,0,1,0.4,1,1v12C43,30.6,42.6,31,42,31z M41,19.1c-2.3,0.5-4,2.5-4,4.9    s1.7,4.4,4,4.9V19.1z"/>

<path d="M29,30H19c-0.6,0-1-0.4-1-1V19c0-0.6,0.4-1,1-1h10c0.6,0,1,0.4,1,1v10C30,29.6,29.6,30,29,30z M20,28h8v-8h-8V28z"/>

</g>

</g>

</svg>