<?xml version="1.0" ?>


<svg width="800px" height="800px" viewBox="0 0 48 48" version="1.1" xml:space="preserve" xmlns="http://www.w3.org/2000/svg" xmlns:xlink="http://www.w3.org/1999/xlink">

<style type="text/css">
	.st0{fill:none;stroke:#000000;stroke-width:2;stroke-linecap:round;stroke-linejoin:round;stroke-miterlimit:10;}
</style>

<g id="Layer_3"/>

<g id="Layer_4"/>

<g id="Layer_5"/>

<g id="Layer_6"/>

<g id="Layer_7"/>

<g id="Layer_8"/>

<g id="Layer_9"/>

<g id="Layer_10"/>

<g id="Layer_11"/>

<g id="Layer_12"/>

<g id="Layer_13"/>

<g id="Layer_14"/>

<g id="Layer_15"/>

<g id="Layer_16"/>

<g id="Layer_17"/>

<g id="Layer_18"/>

<g id="Layer_19"/>

<g id="Layer_20">

<g>

<path d="M24,43c-7.6,0-13-12.3-13-19c0-7.2,5.8-13,13-13s13,5.8,13,13C37,30.7,31.6,43,24,43z M24,13c-6.1,0-11,4.9-11,11    c0,6.4,5.1,17,11,17s11-10.6,11-17C35,17.9,30.1,13,24,13z"/>

<path d="M14,18c-5,0-9-4-9-9V6c0-0.6,0.4-1,1-1s1,0.4,1,1v3c0,3.9,3.1,7,7,7c0.6,0,1,0.4,1,1S14.6,18,14,18z"/>

<path d="M7,13c-0.3,0-0.5-0.1-0.7-0.3c-0.4-0.4-0.4-1,0-1.4l3-3c0.4-0.4,1-0.4,1.4,0s0.4,1,0,1.4l-3,3C7.5,12.9,7.3,13,7,13z"/>

<path d="M10,17c-0.3,0-0.5-0.1-0.7-0.3c-0.4-0.4-0.4-1,0-1.4l3-3c0.4-0.4,1-0.4,1.4,0s0.4,1,0,1.4l-3,3C10.5,16.9,10.3,17,10,17z"/>

<path d="M34,18c-0.6,0-1-0.4-1-1s0.4-1,1-1c3.9,0,7-3.1,7-7V6c0-0.6,0.4-1,1-1s1,0.4,1,1v3C43,14,39,18,34,18z"/>

<path d="M41,13c-0.3,0-0.5-0.1-0.7-0.3l-3-3c-0.4-0.4-0.4-1,0-1.4s1-0.4,1.4,0l3,3c0.4,0.4,0.4,1,0,1.4C41.5,12.9,41.3,13,41,13z"/>

<path d="M38,17c-0.3,0-0.5-0.1-0.7-0.3l-3-3c-0.4-0.4-0.4-1,0-1.4s1-0.4,1.4,0l3,3c0.4,0.4,0.4,1,0,1.4C38.5,16.9,38.3,17,38,17z"/>

<circle cx="20" cy="23" r="1"/>

<circle cx="28" cy="23" r="1"/>

<path d="M22,38c-0.6,0-1-0.4-1-1v-2c0-0.6,0.4-1,1-1s1,0.4,1,1v2C23,37.6,22.6,38,22,38z"/>

<path d="M26,38c-0.6,0-1-0.4-1-1v-2c0-0.6,0.4-1,1-1s1,0.4,1,1v2C27,37.6,26.6,38,26,38z"/>

<path d="M24,43c-3.7,0-7.3-3-10-8.3c-0.2-0.4-0.1-0.8,0.1-1.1c2.5-2.9,6.1-4.6,9.9-4.6s7.4,1.7,9.9,4.6c0.3,0.3,0.3,0.7,0.1,1.1    C31.3,40,27.7,43,24,43z M16.1,34.4c2.3,4.1,5.2,6.6,7.9,6.6s5.7-2.5,7.9-6.6C29.9,32.2,27,31,24,31S18.1,32.2,16.1,34.4z"/>

<path d="M12,26H7c-0.6,0-1-0.4-1-1v-2.9c0-2.8,2.3-5.1,5.1-5.1H13c0.6,0,1,0.4,1,1s-0.4,1-1,1h-1.9C9.4,19,8,20.4,8,22.1V24h4    c0.6,0,1,0.4,1,1S12.6,26,12,26z"/>

<path d="M41,26h-5c-0.6,0-1-0.4-1-1s0.4-1,1-1h4v-1.9c0-1.7-1.4-3.1-3.1-3.1H35c-0.6,0-1-0.4-1-1s0.4-1,1-1h1.9    c2.8,0,5.1,2.3,5.1,5.1V25C42,25.6,41.6,26,41,26z"/>

<path d="M24,13c-0.6,0-1-0.4-1-1V8c0-0.6,0.4-1,1-1s1,0.4,1,1v4C25,12.6,24.6,13,24,13z"/>

<path d="M23,13c-0.3,0-0.5-0.1-0.7-0.3l-2-2c-0.4-0.4-0.4-1,0-1.4s1-0.4,1.4,0l2,2c0.4,0.4,0.4,1,0,1.4C23.5,12.9,23.3,13,23,13z"/>

<path d="M25,13c-0.3,0-0.5-0.1-0.7-0.3c-0.4-0.4-0.4-1,0-1.4l2-2c0.4-0.4,1-0.4,1.4,0s0.4,1,0,1.4l-2,2C25.5,12.9,25.3,13,25,13z"/>

</g>

</g>

<g id="Layer_21"/>

<g id="Layer_22"/>

<g id="Layer_23"/>

<g id="Layer_24"/>

<g id="Layer_25"/>

<g id="Layer_26"/>

<g id="Layer_27"/>

<g id="Layer_28"/>

<g id="Layer_29"/>

<g id="Layer_30"/>

<g id="Layer_31"/>

<g id="Layer_32"/>

<g id="Layer_33"/>

<g id="Layer_34"/>

<g id="Layer_35"/>

<g id="Layer_36"/>

<g id="Layer_37"/>

<g id="Layer_38"/>

<g id="Layer_39"/>

<g id="Layer_40"/>

<g id="Layer_41"/>

<g id="Layer_42"/>

</svg>