<?xml version="1.0" ?>


<svg width="800px" height="800px" viewBox="0 0 48 48" version="1.1" xml:space="preserve" xmlns="http://www.w3.org/2000/svg" xmlns:xlink="http://www.w3.org/1999/xlink">

<style type="text/css">
	.st0{fill:none;stroke:#000000;stroke-width:2;stroke-linecap:round;stroke-linejoin:round;stroke-miterlimit:10;}
</style>

<g id="Layer_3"/>

<g id="Layer_4"/>

<g id="Layer_5"/>

<g id="Layer_6"/>

<g id="Layer_7"/>

<g id="Layer_8"/>

<g id="Layer_9"/>

<g id="Layer_10"/>

<g id="Layer_11"/>

<g id="Layer_12"/>

<g id="Layer_13"/>

<g id="Layer_14"/>

<g id="Layer_15"/>

<g id="Layer_16"/>

<g id="Layer_17"/>

<g id="Layer_18"/>

<g id="Layer_19"/>

<g id="Layer_20"/>

<g id="Layer_21"/>

<g id="Layer_22"/>

<g id="Layer_23"/>

<g id="Layer_24"/>

<g id="Layer_25"/>

<g id="Layer_26">

<g>

<path d="M33,35H15c-0.6,0-1-0.4-1-1v-3.8l-5.8-5.8C7.4,23.6,7,22.6,7,21.5s0.4-2.1,1.2-2.8c1.5-1.5,4.1-1.5,5.7,0l0.1,0.1V15    c0-5.5,4.5-10,10-10s10,4.5,10,10v19C34,34.6,33.6,35,33,35z M16,33h16V15c0-4.4-3.6-8-8-8s-8,3.6-8,8v6.3c0,0.4-0.2,0.8-0.6,0.9    c-0.4,0.2-0.8,0.1-1.1-0.2l-1.9-1.9c-0.8-0.8-2.1-0.8-2.8,0C9.2,20.5,9,21,9,21.5s0.2,1,0.6,1.4l6.1,6.1c0.2,0.2,0.3,0.4,0.3,0.7    V33z"/>

<path d="M34,43H14c-2.8,0-5-2.2-5-5s2.2-5,5-5h20c2.8,0,5,2.2,5,5S36.8,43,34,43z M14,35c-1.7,0-3,1.3-3,3s1.3,3,3,3h20    c1.7,0,3-1.3,3-3s-1.3-3-3-3H14z"/>

</g>

</g>

<g id="Layer_27"/>

<g id="Layer_28"/>

<g id="Layer_29"/>

<g id="Layer_30"/>

<g id="Layer_31"/>

<g id="Layer_32"/>

<g id="Layer_33"/>

<g id="Layer_34"/>

<g id="Layer_35"/>

<g id="Layer_36"/>

<g id="Layer_37"/>

<g id="Layer_38"/>

<g id="Layer_39"/>

<g id="Layer_40"/>

<g id="Layer_41"/>

<g id="Layer_42"/>

</svg>