<?xml version="1.0" encoding="utf-8"?>
<svg width="800px" height="800px" viewBox="0 0 500 500" id="Layer_1" data-name="Layer 1" xmlns="http://www.w3.org/2000/svg"><defs><style>.cls-1{fill:#dddcdc;}.cls-2{fill:#828084;}.cls-3{fill:#fff5c7;}.cls-4{fill:#cd962b;}.cls-5{fill:#ffd582;}.cls-6{fill:#f8972d;}.cls-7{fill:#f8ed44;}.cls-8{fill:#ffffff;}.cls-9{fill:#a5a4a4;}.cls-10{fill:#fed382;}.cls-11{fill:#aa7029;}.cls-12{fill:#ddb464;}.cls-13{fill:#ffeabc;}.cls-14{fill:#eb6f71;}.cls-15{fill:#883233;}.cls-16{fill:#f7a2a5;}.cls-17{fill:#b34a4a;}.cls-18{fill:#f89f59;}.cls-19{fill:#924821;}.cls-20{fill:#f8bf92;}.cls-21{fill:#bd6428;}.cls-22{fill:#aa5c26;}.cls-23{fill:#d68328;}.cls-24{fill:#ffcb65;}.cls-25{fill:#fffffb;}.cls-26{fill:#278140;}.cls-27{fill:#1d592d;}.cls-28{fill:#60bd66;}</style></defs><title>Egg Benedict</title><ellipse class="cls-1" cx="249.25" cy="331.26" rx="219.68" ry="81.83"/><path class="cls-2" d="M249.25,249.43c121.33,0,219.68,36.63,219.68,81.83s-98.35,81.83-219.68,81.83S29.57,376.45,29.57,331.26s98.35-81.83,219.68-81.83m0-5.32c-126.17,0-225,38.28-225,87.15s98.83,87.15,225,87.15,225-38.28,225-87.15-98.83-87.15-225-87.15Z"/><path class="cls-3" d="M101.33,278.7s-12.59-11.65-5.67-22.35c0,0-7.55-7.55,2.52-16.36s13.22-7.56,17.63-18.26,14.47-61.69,78.05-82.46S324.79,132.35,355,157.53s32.73,57.91,38.4,62.31,22.66,22.66,16.36,35.88S234.14,280.9,219.67,280.9,101.33,282.79,101.33,278.7Z"/><path class="cls-4" d="M258.14,129.18c40.65,0,76.87,11.69,96.86,28.35,30.21,25.18,32.73,57.91,38.4,62.31s22.66,22.66,16.36,35.88S234.14,280.9,219.67,280.9c-6.95,0-34.5.44-61.26.44-29,0-57.08-.51-57.08-2.64,0,0-12.59-11.65-5.67-22.35,0,0-7.55-7.55,2.52-16.36s13.22-7.56,17.63-18.26,14.47-61.69,78.05-82.46a207.72,207.72,0,0,1,64.28-10.09m0-5v0h0a211.52,211.52,0,0,0-65.85,10.35c-59.07,19.3-74,64-79.56,80.82-.63,1.88-1.17,3.5-1.58,4.5-2.46,6-4,7.08-8.15,10a97.32,97.32,0,0,0-8.14,6.36c-4.45,3.9-6.79,8.23-6.94,12.88a14.83,14.83,0,0,0,1.88,7.66c-3.93,9.62,1.93,19.37,7,24.61,1.78,3.54,8.13,4,22,4.5,9.41.35,22.74.52,39.6.52,17.76,0,36-.19,48.06-.32,6.19-.06,10.86-.11,13.2-.11,7.27,0,53.28-3,98.63-7.66,90.77-9.38,94.18-16.54,96-20.39,8-16.89-12.34-37.76-17.82-42-.71-.81-2.28-5.16-3.54-8.66-4.74-13.16-12.68-35.18-34.73-53.55-21.84-18.21-60.19-29.52-100.07-29.52Z"/><path class="cls-5" d="M195.12,151.86S197.64,167,250.51,167c42.17,0,65.86-14.41,70.55-27.59-34.36-12.06-81.71-15-127.2-.11C161,150,142.46,168.8,131.58,185.94,147,170.36,168.71,154.59,195.12,151.86Z"/><path class="cls-6" d="M112.66,271.46s-8.18-14.48,8.18-27.7,23.92-27.69,30.84-49.09S183.16,155,202,150.6s15.74-1.26,12,3.15-15.11,21.4-14.48,36.51-7.55,23.92-22,34.62-32.1,27.7-28.32,44.69Z"/><path class="cls-4" d="M214.5,148.48c4.22,0,2,2.36-.5,5.27-3.78,4.41-15.11,21.4-14.48,36.51s-7.55,23.92-22,34.62-32.1,27.7-28.32,44.69l-36.51,1.89s-8.18-14.48,8.18-27.7,23.92-27.69,30.84-49.09S183.16,155,202,150.6c6.42-1.49,10.29-2.12,12.46-2.12m0-2.52h0c-2.49,0-6.63.7-13,2.19-19.45,4.54-44.93,23.32-52.18,45.74-6.56,20.29-13.58,34.63-30,47.91-17.82,14.4-8.89,30.74-8.79,30.9l.76,1.35,1.56-.08,36.51-1.88,3-.16-.65-2.91C148,252.66,167.21,235.61,179,226.9c15.1-11.16,23.72-20.75,23-36.75-.55-13.25,9.3-29.42,13.87-34.76l.32-.37c2.1-2.44,3.92-4.56,2.85-6.88S215.39,146,214.5,146Z"/><path class="cls-7" d="M132.8,243.76c16.37-13.22,23.92-27.69,30.84-49.09S195.12,155,214,150.6l2.76-.62c.62-1.89-2.18-2.3-14.72.62-18.88,4.41-43.43,22.66-50.36,44.07s-14.47,35.87-30.84,49.09-8.18,27.7-8.18,27.7l11.66-.6C123,268,118.39,255.41,132.8,243.76Z"/><path class="cls-8" d="M249.25,403C132.47,403,37,369.07,30,326.22a31.58,31.58,0,0,0-.45,5c0,45.19,98.35,81.83,219.68,81.83s219.68-36.64,219.68-81.83a31.58,31.58,0,0,0-.45-5C461.49,369.07,366,403,249.25,403Z"/><ellipse class="cls-9" cx="249.46" cy="324.96" rx="177.09" ry="57.07"/><path class="cls-10" d="M409.76,312c0,24.8-14.65,39-34.41,44.07-32.73,8.39-57.07,10.91-130.92,10.91-77.22,0-92.33-4.2-120.86-11.75C103.85,350,90,336.75,90,312h0c0-24.79,16.53-44.9,36.93-44.9H372.84c20.39,0,36.92,20.11,36.92,44.9Z"/><path class="cls-11" d="M372.84,267.05c20.39,0,36.92,20.11,36.92,44.9S395.11,351,375.35,356c-32.73,8.39-57.07,10.91-130.92,10.91-77.22,0-92.33-4.2-120.86-11.75C103.85,350,90,336.75,90,312s16.53-44.9,36.93-44.9H372.84m0-5H126.93c-23.14,0-42,22.4-42,49.93,0,25,12.91,41.63,37.32,48.1l.81.21c28.5,7.55,44.2,11.7,121.34,11.7,76.14,0,99.79-2.76,132.17-11.06,24.28-6.23,38.2-24.07,38.2-48.95,0-27.53-18.83-49.93-42-49.93Z"/><path class="cls-12" d="M375.35,345.11C342.62,353.5,318.28,356,244.43,356c-77.22,0-92.33-4.2-120.86-11.75-18.17-4.81-31.33-16.43-33.29-37.63-.17,1.75-.28,3.51-.28,5.31,0,24.8,13.85,38,33.57,43.23,28.53,7.55,43.64,11.75,120.86,11.75,73.85,0,98.19-2.52,130.92-10.91,19.76-5.07,34.41-19.27,34.41-44.07,0-1.81-.11-3.6-.28-5.36C407.44,328,393.58,340.43,375.35,345.11Z"/><path class="cls-13" d="M372.84,274H126.93c-14.81,0-31,3.66-35,25.18,5.93,9,17,15.45,28.32,18.46,28.54,7.55,43.64,11.75,120.86,11.75,73.86,0,98.19-2.52,130.93-10.91,14.11-3.62,27.31-14,32.73-27.49C404.73,291,398.85,267.68,372.84,274Z"/><path class="cls-12" d="M372.84,267.05H126.93c-14.81,0-27.55,10.63-33.43,25.92,5.93,9,15.34,14.71,26.71,17.73,28.54,7.55,43.64,11.75,120.86,11.75,73.86,0,98.19-2.52,130.93-10.91,14.11-3.62,25.59-11.94,31-25.41C403,286.13,392.56,267.68,372.84,267.05Z"/><path class="cls-13" d="M92.83,295.38s-9.44,18.88,9.76,38.4c0,0-12.91-14.48-5.67-32.42Z"/><path class="cls-13" d="M386.26,332.1c-5.45,0-12.17,4.61-7.13,6.29S394.66,332.1,386.26,332.1Z"/><path class="cls-13" d="M345.56,343.43c-4.69,0-9.23,2.1-4.62,2.94S352.27,343.43,345.56,343.43Z"/><path class="cls-13" d="M220.51,346.79c-4.56-.86-9.24.41-3.36,2.51S227.22,348,220.51,346.79Z"/><path class="cls-14" d="M277.58,287.83c5.66,7.55,34,22.66,85,15.1s71.76-44.69,46-53.5-79.32-12-90,22.66C318.49,272.09,267.26,274.07,277.58,287.83Z"/><path class="cls-15" d="M371.35,243.6a120.7,120.7,0,0,1,37.16,5.83c25.8,8.81,5,45.95-46,53.5A181.46,181.46,0,0,1,335.82,305c-34.24,0-53.66-11.05-58.24-17.16-10.32-13.76,40.91-15.74,40.91-15.74,6.68-21.59,30-28.49,52.86-28.49m0-3.78c-28.9,0-48.51,10.13-55.59,28.61-11.47.61-38,3-42.56,12.55-.8,1.66-1.68,5.07,1.36,9.11,5.63,7.51,26.59,18.68,61.26,18.68a187.71,187.71,0,0,0,27.29-2.1c37.11-5.5,58.71-25.72,60.19-41.95.8-8.77-4.15-15.65-13.57-18.87a125.86,125.86,0,0,0-38.38-6Z"/><path class="cls-16" d="M318.49,272.09s6.3,5.66,15.11-1.89,25.18-19.51,42.8-13.22,7.56,22-12,25.81S325.42,282.16,318.49,272.09Z"/><path class="cls-17" d="M318.49,272.09s7.56,10.07,19.52,0a46.5,46.5,0,0,1,34-11.33c16.36,1.26,23.69,14.29-3.15,22C336.12,292.23,317.23,280.9,318.49,272.09Z"/><path class="cls-16" d="M281.35,278.38s12.59,18.26,50.36,19.52,77-6.8,86.32-41.17c0,0,1.81,22.28-27.78,36.76s-79.31,15.74-112.67-5.66C277.58,287.83,275.06,282.16,281.35,278.38Z"/><path class="cls-17" d="M418,256.73c-.08,19.77-21.47,38-55.48,43.06-47.19,7-78.68-5.67-84.55-19-2,1.91-2.52,4.21-.42,7,5.66,7.55,34,22.66,85,15.1C404.25,296.76,425.7,270.81,418,256.73Z"/><path class="cls-18" d="M209.6,293.49c5.66,7.55,34,22.66,85,15.11s71.76-44.69,45.95-53.51-79.31-12-90,22.66C250.51,277.75,199.28,279.74,209.6,293.49Z"/><path class="cls-19" d="M303.37,249.26a120.88,120.88,0,0,1,37.15,5.83c25.81,8.82,5,46-45.95,53.51a182.84,182.84,0,0,1-26.73,2.06c-34.24,0-53.66-11.06-58.24-17.17-10.32-13.75,40.91-15.74,40.91-15.74,6.67-21.59,30-28.49,52.86-28.49m0-3.77c-28.91,0-48.52,10.13-55.59,28.61-11.47.61-38,3-42.57,12.54-.79,1.67-1.67,5.07,1.36,9.12,5.63,7.5,26.6,18.67,61.27,18.67a186.32,186.32,0,0,0,27.29-2.1c37.11-5.49,58.71-25.71,60.19-41.95.8-8.77-4.15-15.64-13.58-18.86a125.49,125.49,0,0,0-38.37-6Z"/><path class="cls-20" d="M250.51,277.75s6.29,5.67,15.11-1.88,25.18-19.52,42.8-13.22,7.55,22-12,25.8S257.43,287.83,250.51,277.75Z"/><path class="cls-21" d="M250.51,277.75s7.55,10.08,19.51,0a46.57,46.57,0,0,1,34-11.33c16.37,1.26,23.7,14.29-3.14,22C268.14,297.9,249.25,286.57,250.51,277.75Z"/><path class="cls-20" d="M213.37,284.05S226,302.3,263.73,303.56s77-6.79,86.32-41.16c0,0,1.8,22.28-27.78,36.76S243,314.89,209.6,293.49C209.6,293.49,207.08,287.83,213.37,284.05Z"/><path class="cls-21" d="M350.05,262.4c-.08,19.76-21.47,38-55.48,43.05-47.19,7-78.68-5.66-84.55-19-2.05,1.9-2.52,4.2-.42,7,5.66,7.55,34,22.66,85,15.11C336.27,302.42,357.72,276.47,350.05,262.4Z"/><path class="cls-14" d="M115.81,293.49c5.66,7.55,34,22.66,85,15.11s71.76-44.69,45.95-53.51-79.31-12-90,22.66C156.72,277.75,105.49,279.74,115.81,293.49Z"/><path class="cls-15" d="M209.58,249.26a120.88,120.88,0,0,1,37.15,5.83c25.81,8.82,5,46-45.95,53.51a182.84,182.84,0,0,1-26.73,2.06c-34.24,0-53.66-11.06-58.24-17.17-10.32-13.75,40.91-15.74,40.91-15.74,6.67-21.59,30-28.49,52.86-28.49m0-3.77c-28.91,0-48.52,10.13-55.59,28.61-11.47.61-38,3-42.57,12.54-.79,1.67-1.67,5.07,1.36,9.12,5.63,7.5,26.6,18.67,61.27,18.67a186.32,186.32,0,0,0,27.29-2.1c37.11-5.49,58.71-25.71,60.19-41.95.8-8.77-4.15-15.64-13.58-18.86a125.49,125.49,0,0,0-38.37-6Z"/><path class="cls-16" d="M156.72,277.75s6.3,5.67,15.11-1.88,25.18-19.52,42.8-13.22,7.55,22-12,25.8S163.64,287.83,156.72,277.75Z"/><path class="cls-17" d="M156.72,277.75s7.55,10.08,19.51,0a46.57,46.57,0,0,1,34-11.33c16.37,1.26,23.7,14.29-3.14,22C174.35,297.9,155.46,286.57,156.72,277.75Z"/><path class="cls-16" d="M119.58,284.05s12.59,18.25,50.36,19.51,77-6.79,86.32-41.16c0,0,1.8,22.28-27.78,36.76s-79.31,15.73-112.67-5.67C115.81,293.49,113.29,287.83,119.58,284.05Z"/><path class="cls-17" d="M256.26,262.4c-.08,19.76-21.47,38-55.48,43.05-47.19,7-78.68-5.66-84.55-19-2,1.9-2.52,4.2-.42,7,5.66,7.55,34,22.66,85,15.11C242.48,302.42,263.93,276.47,256.26,262.4Z"/><path class="cls-6" d="M139.93,279.22c-10-8.91-26-3.35-33.15,2.1s-15.1,5.46-8-5.87,20.56-14.69,31.89-12.59,16,4.61,21.4-2.1,19.31-9.23,26-5.46-7.55,10.49-13.85,18.47.84,19.72,19.31,18.46,24.34-6.29,26,1.26-21.83-2.94-19.31,18.88,5,33.16,17.63,41.55,18.88,10.49,13.43,15.53-36.93-7.56-33.16,1.67,11.33,18.47.84,18.89-22.66-15.53-23.08-8.39-1.26,13-22.66,8-54.13-23.92-32.73-23.92,47.84,2.1,41.12-1.68-4.61-7.13,10.5-8.39,31,4.61,15.1-12.17-10.49-29.8-8-37.77-2.86-11.87-10.07-10.07C147.49,298.53,151.68,289.71,139.93,279.22Z"/><path class="cls-22" d="M170.09,253.54a16.72,16.72,0,0,1,8,1.76c6.72,3.78-7.55,10.49-13.85,18.47-6,7.57.17,18.56,16.62,18.56.87,0,1.76,0,2.69-.1,10.92-.74,17.44-2.81,21.29-2.81,2.65,0,4,1,4.73,4.07,1.67,7.55-21.83-2.94-19.31,18.88s5,33.16,17.63,41.55,18.88,10.49,13.43,15.53c-1,.89-2.78,1.23-5.07,1.23-6.86,0-18.06-3.05-24.15-3.05-3.23,0-5,.86-3.94,3.49,3.78,9.24,11.33,18.47.84,18.89h-.41c-8.46,0-17.9-10.24-21.34-10.24-.78,0-1.25.53-1.33,1.84-.31,5.27-.85,9.85-9.75,9.85a59,59,0,0,1-12.91-1.88c-21.4-5-54.13-23.92-32.73-23.92,11.26,0,23.92.58,32.41.58,7.64,0,11.9-.47,8.71-2.26-6.71-3.78-4.61-7.13,10.5-8.39,1.76-.15,3.53-.2,5.26-.2,3.65,0,7.12.22,9.93.22,7.28,0,10.08-1.49-.09-12.19-15.94-16.79-10.49-29.8-8-37.77,2.11-6.68-1.33-10.51-6.74-10.51a13.87,13.87,0,0,0-3.33.44,16.4,16.4,0,0,1-3.91.57c-7,0-5.2-7.84-15.4-16.94a19.31,19.31,0,0,0-13.22-4.69,35.37,35.37,0,0,0-19.93,6.79c-2.92,2.24-6,3.56-8.09,3.56-3,0-4.09-2.74.12-9.43,5.82-9.24,15.82-13.18,25.46-13.18a35.12,35.12,0,0,1,6.43.59c5.8,1.07,9.84,2.25,13.13,2.25s5.61-1.07,8.27-4.35c3.73-4.59,11.38-7.22,18-7.22m0-2.52c-6.63,0-15.37,2.52-19.94,8.15-2.32,2.85-4.13,3.43-6.32,3.43a40.51,40.51,0,0,1-7.55-1.18c-1.55-.33-3.24-.69-5.12-1a37.82,37.82,0,0,0-6.89-.63c-11.79,0-21.85,5.23-27.59,14.35-3.07,4.87-3.9,8.43-2.55,10.86a4.86,4.86,0,0,0,4.56,2.43c2.73,0,6.24-1.48,9.62-4.07a32.84,32.84,0,0,1,18.4-6.27,16.78,16.78,0,0,1,11.55,4.05,35.21,35.21,0,0,1,8,10.52c2,3.63,3.84,7.06,9.09,7.06a18.59,18.59,0,0,0,4.52-.65,11.19,11.19,0,0,1,2.72-.36,4.92,4.92,0,0,1,4.11,1.65c.9,1.22,1,3.21.23,5.58l-.43,1.33c-2.67,8.22-7.13,22,9,38.93,4.52,4.76,5.6,6.83,5.86,7.6a14.79,14.79,0,0,1-3.95.34c-1.29,0-2.72,0-4.24-.09-1.79-.06-3.71-.13-5.69-.13s-3.82.07-5.47.21c-10.69.89-15.58,2.77-16.34,6.28a4.73,4.73,0,0,0,1.41,4.3c-1.07,0-2.4.06-4.07.06-3.91,0-8.77-.12-13.91-.26-6.11-.16-12.44-.32-18.5-.32-2.21,0-8.93,0-9.46,4.61-.95,8.15,26.81,20.8,41.62,24.28A61.24,61.24,0,0,0,156.2,394c10.75,0,11.87-6.38,12.2-11.18,1.07.61,2.57,1.65,3.78,2.48,4.67,3.23,10.49,7.24,16.44,7.24h.51c3.51-.14,5.79-1.18,7-3.18,2.06-3.48-.23-8.09-2.89-13.43-.92-1.85-1.87-3.76-2.65-5.64a8.58,8.58,0,0,1,1.57-.12,75.69,75.69,0,0,1,11,1.42,85.84,85.84,0,0,0,13.19,1.63c3.22,0,5.37-.61,6.77-1.9.75-.69,3-2.79,2.77-5.63-.32-3.52-3.88-5.77-10.34-9.87-1.83-1.15-3.89-2.46-6.17-4-11.7-7.8-14-18.1-16.52-39.73-.48-4.15.05-7.22,1.56-9.12,2.09-2.62,6.07-3.06,9.58-3.45,3.21-.35,6-.66,7.46-2.71a4.68,4.68,0,0,0,.66-3.87c-.91-4.12-3.2-6-7.18-6a44.19,44.19,0,0,0-7,.92,127.05,127.05,0,0,1-14.42,1.9q-1.31.09-2.52.09c-9,0-14-3.57-15.63-6.91a6.89,6.89,0,0,1,1-7.57,55.89,55.89,0,0,1,8-7.51c4.73-3.91,8.46-7,8.14-10.57a5.3,5.3,0,0,0-3-4.14,19.11,19.11,0,0,0-9.27-2.09Z"/><path class="cls-23" d="M191.72,302.48c4.87-8.25,19.2-3,17.88-9,0-.17-.1-.3-.14-.46C205.35,294.77,193.9,292.48,191.72,302.48Z"/><path class="cls-23" d="M165.53,270.62a10.34,10.34,0,0,0-2,4.29,11.88,11.88,0,0,1,.76-1.14c5.31-6.72,16.22-12.53,15.53-16.46C176.83,260.94,169.56,265.52,165.53,270.62Z"/><path class="cls-23" d="M139.94,279.22c11.74,10.49,7.55,19.31,19.3,16.37,7.21-1.8,12.59,2.1,10.07,10.07s-8,21,8,37.77a35,35,0,0,1,6.82,10.8c2.79-1.08,1.64-6.38-5.56-14-15.94-16.79-10.49-29.79-8-37.77s-2.86-11.87-10.07-10.07c-11.75,2.94-7.56-5.87-19.31-16.36-10-8.92-26-3.36-33.15,2.09-5.71,4.37-12,5.23-10.54-.43-4.64,9,2.67,8.64,9.28,3.58C113.92,275.87,130,270.31,139.94,279.22Z"/><path class="cls-23" d="M222.6,366.3c-5.45,5-36.88-7.54-33.15,1.66,6-1.91,27.48,5.56,31.9,1.49,1.56-1.45,2.06-2.64,1.82-3.82A6.57,6.57,0,0,1,222.6,366.3Z"/><path class="cls-23" d="M190.29,386.86c-10.49.42-22.66-15.53-23.08-8.39l-.09,1.36c3.32-.41,13.18,10.53,21.91,10.18,4.21-.17,5.49-1.77,5.3-4.2A7.53,7.53,0,0,1,190.29,386.86Z"/><path class="cls-23" d="M144.55,386.44c-15.28-3.6-36.33-14.25-39.33-20.05-8.59,3.49,19.16,18.75,38.07,23.2,17.46,4.11,21.23,1,22.26-4.22C163.35,388.45,158,389.61,144.55,386.44Z"/><path class="cls-23" d="M151.68,365.56c3.65-.25,3.48-3.47,1.26-4.72a9.12,9.12,0,0,1-3.25-2.64C146,359,149.26,363.78,151.68,365.56Z"/><path class="cls-24" d="M162.39,380c.9,2.53,2.83,11-23,1.58,0,0,17.63,3.46,17.63.94S160.81,375.64,162.39,380Z"/><path class="cls-24" d="M130.91,377.52c-3.74-3.2-11.64-7.86-9.12-4.4S133.12,379.41,130.91,377.52Z"/><path class="cls-24" d="M191.66,382.56c-.18,1.25-1.89,3.78-6.93,1.26s-12.9-8.81-12.9-8.81,13.22,8.18,15.42,7.23S192,380.36,191.66,382.56Z"/><path class="cls-24" d="M217.78,362.73c1.08,1.95,1.26,3.46-6.61,1.58s-12.28-2.84-12.28-2.84,17,3.15,15.43,1.26S216.2,359.9,217.78,362.73Z"/><path class="cls-24" d="M159.87,358c-3.13-.39-5.67.63-3.15,1.57S162.39,358.33,159.87,358Z"/><path class="cls-24" d="M170.57,315.84c-.63,1.88.31,11,1.57,9.12S171.2,314,170.57,315.84Z"/><path class="cls-24" d="M176.23,332.2c2.23,2.23,6.61,6.93,3.47,5.67S173.4,329.37,176.23,332.2Z"/><path class="cls-24" d="M154.2,290.34c-3.09.57-6.29-10.07-4.4-8.18S157.66,289.71,154.2,290.34Z"/><path class="cls-24" d="M106.05,277.75c-1.68,1.47-6.61,3.47-4.72.95S108.57,275.55,106.05,277.75Z"/><path class="cls-24" d="M121.79,268.94c-3.57.45-6.61,2.2-4.73,2.52S124.3,268.63,121.79,268.94Z"/><path class="cls-24" d="M196.38,165.71c-5.42,0-20.15,7.55-25.81,25.81s3.25-.05,8.81-8.19C187.56,171.38,198.26,165.71,196.38,165.71Z"/><path class="cls-24" d="M161.13,216.07c.26-4-8.19,15.1-13.85,19.51s-8.81,10.07-3.78,8.18S160.5,225.51,161.13,216.07Z"/><path class="cls-14" d="M243.59,169.49c-5-1.26-20.78,8.18-18.26,12.59s11.33,10.07,16.37,4.4C241.7,186.48,248.62,170.75,243.59,169.49Z"/><path class="cls-15" d="M242.54,169.37a4.27,4.27,0,0,1,1.05.12c5,1.26-1.89,17-1.89,17a6.82,6.82,0,0,1-5.28,2.38c-4.48,0-9.33-3.7-11.09-6.78-2.36-4.14,11.35-12.71,17.21-12.71m0-2.52c-5.68,0-16.19,6.09-19.06,11-1.51,2.6-.86,4.52-.33,5.44,2.21,3.87,7.91,8,13.27,8a9.35,9.35,0,0,0,7.16-3.23l.26-.29.16-.36c1.34-3,5.52-13.31,3.25-17.95A4.62,4.62,0,0,0,244.2,167a7.2,7.2,0,0,0-1.66-.19Z"/><path class="cls-14" d="M279.47,164.45c-6.3,8.81,15.73,7.55,13.21,0S282.05,160.83,279.47,164.45Z"/><path class="cls-15" d="M287.39,160.14c2.2,0,4.24,1.15,5.29,4.31,1.31,3.92-4,6.15-8.53,6.15-4.19,0-7.71-1.91-4.68-6.15,1.5-2.1,4.87-4.31,7.92-4.31m0-2.52c-4,0-8.07,2.7-10,5.37-2.14,3-1.76,5.24-1.06,6.6,1.15,2.24,4,3.53,7.79,3.53,3.32,0,8-1.08,10.13-4.09a5.82,5.82,0,0,0,.79-5.38c-1.28-3.83-4.08-6-7.68-6Z"/><path class="cls-14" d="M316.6,168.86c-8.81,3.77-1.26,12,5,12.59s13.22-7.56,10.07-11.33S321.58,166.72,316.6,168.86Z"/><path class="cls-15" d="M324.22,167.26c3,0,5.8.83,7.49,2.86,3,3.63-3.28,11.36-9.38,11.36q-.34,0-.69,0c-6.3-.63-13.85-8.82-5-12.59a19.92,19.92,0,0,1,7.62-1.6m0-2.52a22.41,22.41,0,0,0-8.61,1.8c-5.67,2.43-5.7,6.44-5.46,8.05.76,4.93,6.53,8.89,11.24,9.36.31,0,.63.05.94.05,5.25,0,10-4.1,11.8-8,1.33-2.83,1.15-5.57-.48-7.54-2.06-2.46-5.32-3.76-9.43-3.76Z"/><path class="cls-14" d="M353.11,183.33c-5,0-6.92,1.89-4.4,8.19s9.44,9.44,13.84,1.26S359.44,183.33,353.11,183.33Z"/><path class="cls-15" d="M353.11,183.33c6.33,0,13.85,1.26,9.44,9.45-1.88,3.49-4.22,4.92-6.48,4.92-3,0-5.92-2.57-7.36-6.18-2.52-6.3-.63-8.19,4.4-8.19m0-2.51c-2.23,0-5.39.28-7.06,2.75-1.82,2.69-.69,6.36.32,8.88,1.88,4.72,5.69,7.77,9.7,7.77,2,0,5.77-.81,8.7-6.25,1.89-3.5,2.13-6.47.73-8.82-2.32-3.88-8.18-4.33-12.39-4.33Z"/><path class="cls-14" d="M436.83,307.34c-5,1.26-3.78,4.91-3.78,11.33,0,5,8.82,8.18,11.33,1.26S441.87,306.08,436.83,307.34Z"/><path class="cls-15" d="M438,307.19c4.58,0,8.66,6.37,6.34,12.74a5.49,5.49,0,0,1-5.27,4c-3,0-6.06-2.31-6.06-5.26,0-6.42-1.25-10.07,3.78-11.33a5,5,0,0,1,1.21-.15m0-2.52a7.5,7.5,0,0,0-1.82.23c-6.11,1.52-5.93,6.17-5.76,10.66,0,.95.08,2,.08,3.11,0,4.65,4.43,7.78,8.57,7.78a8,8,0,0,0,7.64-5.66,13.1,13.1,0,0,0-1.44-12,9,9,0,0,0-7.27-4.16Z"/><path class="cls-14" d="M421.72,345.11c-9.44,1.88-5,8.18-5,15.1s10.07,0,12.59-5.66S426.66,344.12,421.72,345.11Z"/><path class="cls-15" d="M423,345a6.71,6.71,0,0,1,6.24,9.57c-1.77,4-7.25,8.56-10.37,8.56-1.32,0-2.22-.83-2.22-2.9,0-6.92-4.41-13.22,5-15.1A6.64,6.64,0,0,1,423,345m0-2.52a9.18,9.18,0,0,0-1.81.18c-9.42,1.88-8.36,8.23-7.59,12.86a28.91,28.91,0,0,1,.53,4.71c0,4,2.56,5.42,4.74,5.42,4.42,0,10.66-5.53,12.67-10.06a9.12,9.12,0,0,0-.55-8.8,9.61,9.61,0,0,0-8-4.31Z"/><path class="cls-14" d="M212.74,387.28c-10.07,1.26,5.67,13.85,12,13.85s18.89-3.78,16.37-10.7S222.81,386,212.74,387.28Z"/><path class="cls-15" d="M229.08,385.78c5.8,0,10.68,1.05,12,4.65,2.52,6.92-10.07,10.7-16.37,10.7s-22-12.59-12-13.85a139.2,139.2,0,0,1,16.34-1.5m0-2.52a117.63,117.63,0,0,0-14.65,1.27l-2,.25c-5.34.67-5.54,4.16-5.48,5.21.35,5.63,11.78,13.66,17.75,13.66,5.16,0,14.39-2.28,17.81-7.17a7.25,7.25,0,0,0,.92-6.91c-2.29-6.31-11.37-6.31-14.35-6.31Z"/><path class="cls-14" d="M57.27,307.34c-9.45,0-12.3,2.32-15.11,7.55-4.41,8.19,9.44,8.19,14.48,4.41S66.71,307.34,57.27,307.34Z"/><path class="cls-15" d="M57.27,307.34c9.44,0,4.4,8.18-.63,12A15.52,15.52,0,0,1,48,321.74c-4.61,0-8.46-2-5.83-6.85,2.81-5.23,5.66-7.55,15.11-7.55m0-2.52c-10.61,0-14.16,3-17.33,8.88-1.77,3.3-1.18,5.61-.36,7,1.38,2.3,4.36,3.57,8.41,3.57a17.72,17.72,0,0,0,10.16-2.94c3.48-2.61,8.13-8.09,6.67-12.48-.61-1.83-2.42-4-7.55-4Z"/><path class="cls-17" d="M241.7,183.33c-4.9,5.52-13.33.31-16.1-4a2.81,2.81,0,0,0-.27,2.79c2.52,4.4,11.33,10.07,16.37,4.4,0,0,4.53-10.31,3.59-14.9C244.66,176.59,241.7,183.33,241.7,183.33Z"/><path class="cls-17" d="M292.62,164.32c-1.74,4.15-12.13,5.1-14,1.62-2.87,7.14,16.42,5.61,14.05-1.49A.75.75,0,0,0,292.62,164.32Z"/><path class="cls-17" d="M322.27,178.61c-4-.4-8.49-3.84-9-7.27-2.73,4.07,3.23,9.59,8.36,10.11,5.33.53,11-5.23,10.78-9.31C330.8,175.6,326.43,179,322.27,178.61Z"/><path class="cls-17" d="M350.59,189.63c-1.06-2.67-1.3-4.51-.87-5.79-2.32.89-2.84,3.12-1,7.68,2.29,5.74,8.23,8.75,12.6,3.06C357.25,197.48,352.57,194.57,350.59,189.63Z"/><path class="cls-17" d="M438.05,307.27a10.13,10.13,0,0,1,2.87,11.4,5.4,5.4,0,0,1-5.63,3.91c2.78,2.06,7.38,2.07,9.09-2.65C446.7,313.57,442.63,307.29,438.05,307.27Z"/><path class="cls-17" d="M422.78,345a6.6,6.6,0,0,1,4,9.19c-1.57,3.53-6.06,7.54-9.23,8.4,2.45,2.11,9.67-3.4,11.75-8.08C431.62,349.29,427.35,344.86,422.78,345Z"/><path class="cls-17" d="M225,398.3c-4.32,0-13.09-5.94-14.91-10.07-3.66,3.26,9.08,12.9,14.59,12.9,6,0,17.79-3.47,16.57-9.84C239.2,395.85,230.08,398.3,225,398.3Z"/><path class="cls-17" d="M45.62,314.58c2.18-4.05,4.42-6.34,9.67-7.17-7.83.33-10.53,2.65-13.13,7.48-3.25,6,3.42,7.61,9.17,6.51C46.78,321.37,43,319.4,45.62,314.58Z"/><path class="cls-25" d="M215.05,166.76c-4.25,3.09-9.65,12.17-5.87,18.46S219.67,163.4,215.05,166.76Z"/><path class="cls-25" d="M190.29,225.51c-6.62,3.47-18,13.43-15.94,16.78S199.1,220.89,190.29,225.51Z"/><path class="cls-25" d="M140.77,192.36c-2.91,4.37-4.19,23.92-12.17,31s-13.42,11.33-10.07,13,18.05-14.27,21.82-27.7S143.29,188.58,140.77,192.36Z"/><path class="cls-25" d="M154.62,171.38c-3.83,2.87-7.55,8.81-4.61,8.81S158,168.86,154.62,171.38Z"/><path class="cls-25" d="M100.91,242.71c-3.92,2.14-8.81,5.46-3.78,9.66S105.52,240.2,100.91,242.71Z"/><path class="cls-25" d="M98.81,258.66c-2.19,1.56-2.52,4.2-.84,5.88S101.75,256.56,98.81,258.66Z"/><path class="cls-25" d="M381.65,219.63c-3-1-24.34-3.77-34,1.68s-34.41,12.17-47,9.23S265,228.45,258.27,236s3.36,3.36,10.08.42,22.66-4.2,34-.84,29.37-.42,38.18-6.71,28.12-7.14,36.09-5.88S390,222.57,381.65,219.63Z"/><path class="cls-26" d="M253.66,148.09c-9.6-1.38-34.63-1.74-28.33-9.45,5.67-6.92,25.81-.63,25.81-.63s-22-10.07-20.14-19.51,23.29,1.89,29.58,13.22c0,0-22.68-37.83-10.07-39,13.22-1.26,18.25,32.73,18.25,32.73s-4.4-39,3.15-40.91,12.59,27.7,5,42.17c0,0,15.73-32.1,24.55-31.47s-3.78,25.18-17,34.62c0,0,22.66-17,29.59-14.48s-25.18,20.15-25.18,20.15,14.48-3.15,23.92-.63-10.7,11.33-26.44,12.59S259.42,148.91,253.66,148.09Z"/><path class="cls-27" d="M272.6,84.42c7,0,11.52,27.28,4.71,41.54l-.36.72q.18-.34.36-.72c2.37-4.7,15.87-30.76,23.93-30.76h.26c8.64.62-3.3,24.24-16.24,34.06l-.76.56c.26-.18.51-.37.76-.56,3.7-2.7,19.86-14.17,27.18-14.17a4.93,4.93,0,0,1,1.65.25c6.92,2.52-25.18,20.15-25.18,20.15a80.44,80.44,0,0,1,15-1.61,35.27,35.27,0,0,1,8.87,1c9.44,2.51-10.7,11.33-26.44,12.59-9.43.75-17.24,1.12-23.23,1.12a71.23,71.23,0,0,1-9.5-.49c-9.6-1.38-34.63-1.74-28.33-9.45,2-2.45,5.85-3.25,9.95-3.25A62.57,62.57,0,0,1,251.14,138s-22-10.07-20.14-19.51c.49-2.47,2.32-3.52,4.86-3.52,6.94,0,19.21,7.81,24.22,15.89l.5.85h0c-.16-.28-.32-.57-.5-.85-3.27-5.61-21.06-37.08-9.57-38.18l.71,0c12.69,0,17.54,32.76,17.54,32.76s-4.4-39,3.15-40.91a2.72,2.72,0,0,1,.69-.09m0-2.51a5.26,5.26,0,0,0-1.3.16c-4.77,1.19-6.31,10.09-6.44,20.38-3.11-6.72-7.54-12.31-13.64-12.31-.31,0-.63,0-.95,0a6.13,6.13,0,0,0-5.18,3.37c-2.55,5,.86,15,5.34,24.48-5.05-3.34-10.48-5.57-14.57-5.57s-6.63,2-7.33,5.54c-1.12,5.56,3.72,10.88,9.11,14.94-.78,0-1.57-.07-2.36-.07-5.63,0-9.63,1.4-11.9,4.17-2,2.39-1.74,4.4-1.21,5.67,2,4.7,10.9,5.87,24.31,7.13,2.58.24,5,.47,6.82.73a74.59,74.59,0,0,0,9.86.52c6.13,0,14-.38,23.43-1.13,10.65-.86,30.57-6.4,31.16-12.9.09-1-.14-3.53-4.27-4.64a37.78,37.78,0,0,0-9.52-1.06c-1,0-2,0-3,.08,11.29-6.94,16.87-12,16.62-15.25A3.67,3.67,0,0,0,315,113a7.34,7.34,0,0,0-2.51-.41c-3.37,0-8.08,1.94-12.84,4.49,5.09-7.61,8.42-15.78,7-20.44a5.31,5.31,0,0,0-4.95-3.93l-.44,0c-5.62,0-12.4,8.44-18.12,17.65.36-9.59-1.46-19.42-4.65-24.46-2.06-3.28-4.33-4-5.87-4Z"/><path class="cls-28" d="M299.82,97.73c5.42.39,2.73,9.83-3.22,19.24,7.07-10.16,10.81-21.34,4.9-21.76-4.2-.3-9.95,6.82-14.84,14.36C291.15,103.05,296.1,97.46,299.82,97.73Z"/><path class="cls-28" d="M282.82,132.35s22.66-17,29.59-14.48a1.17,1.17,0,0,1,.9,1.43c1.82-1.87,2.43-3.35.78-4-4.88-1.77-17.51,6.11-24.59,10.94A43.87,43.87,0,0,1,282.82,132.35Z"/><path class="cls-28" d="M270.23,87c7.56-1.89,12.59,27.69,5,42.17,0,0,1.22-2.48,3.14-6,5.31-15.24.49-40.45-6.5-38.7-1.11.28-1.93,1.42-2.58,3.06A2.64,2.64,0,0,1,270.23,87Z"/><path class="cls-28" d="M249.46,140.53a79.28,79.28,0,0,1-8.53-4.72c-5.88-.79-12.67-.75-15.6,2.83a4.06,4.06,0,0,0-.88,1.77C231,134.77,249.46,140.53,249.46,140.53Z"/><path class="cls-28" d="M312.83,134.87c-6.37-1.7-15-.82-20-.07-3.26,1.92-5.62,3.21-5.62,3.21s14.48-3.14,23.92-.63c1.54.42,2.23,1,2.34,1.69C315.78,137.31,316,135.72,312.83,134.87Z"/><path class="cls-28" d="M248.83,95.21c13.22-1.26,18.26,32.73,18.26,32.73s-.77-6.86-1.11-15c-2.76-9.57-7.68-21-15.47-20.3A3.75,3.75,0,0,0,247,95.8,4.25,4.25,0,0,1,248.83,95.21Z"/><path class="cls-28" d="M258.9,134.24s-3-5-6.17-11.37c-8.61-7-20.1-11.12-21.66-4.55C236.69,114.64,253.45,124.42,258.9,134.24Z"/></svg>