<?xml version="1.0" ?>
<svg fill="#000000" width="800px" height="800px" viewBox="0 0 128 128" data-name="Layer 1" id="Layer_1" xmlns="http://www.w3.org/2000/svg"><title/><path d="M63,37.38c15.16,0,28,13.29,28,29a1,1,0,0,0,2,0c0-16.81-13.72-31-30-31a1,1,0,0,0,0,2Z"/><path d="M55.73,112.49H72.88a1,1,0,0,0,0-2H55.73a1,1,0,0,0,0,2Z"/><path d="M44.71,112.49h6.43a1,1,0,0,0,0-2H44.71a1,1,0,1,0,0,2Z"/><path d="M76.86,112.78h9.39a1,1,0,0,0,0-2H76.86a1,1,0,1,0,0,2Z"/><path d="M7.81,78.46l4.55,1.2a52.65,52.65,0,0,0,13.1,24.68,7.34,7.34,0,0,0-3.88,6.47v1.36a7.34,7.34,0,0,0,7.33,7.34h69.2a7.34,7.34,0,0,0,7.34-7.34v-1.36a7.32,7.32,0,0,0-3.4-6.17A52.72,52.72,0,0,0,115.42,79.7a1.25,1.25,0,0,0,.19,0l4.58-1.21a5.48,5.48,0,0,0,4-4.35,47.85,47.85,0,0,0-.08-14.55,5.49,5.49,0,0,0-4-4.49l-3.83-1V21.51a6.54,6.54,0,1,0-2,0V51.9c-6.77-21.84-26.73-38.2-49.67-38.53l-.09,0-.07,0-.54,0C40,13.35,19.15,30.86,13,53.92a1,1,0,0,0-.56,0L7.91,55.07a5.49,5.49,0,0,0-4,4.49,47.85,47.85,0,0,0-.08,14.55A5.48,5.48,0,0,0,7.81,78.46Zm15.77,33.71v-1.36a5.33,5.33,0,0,1,5.33-5.33h3v12h-3A5.34,5.34,0,0,1,23.58,112.17Zm69.54-6.69v12H33.9v-12ZM63.89,30.08c19.44,0,35.87,17,35.87,37.2a35.93,35.93,0,0,1-4.92,18.17,14.72,14.72,0,0,1-11.65,7.16c-8.81.66-25.47,1.59-38.07.46a15,15,0,0,1-11.63-7.4C31,81.37,28,74.69,28,67.28,28,47.11,44.45,30.08,63.89,30.08Zm-5,65.52c4.64,0,9.27-.14,13.47-.33v8.21H56.85v-7.9Zm44.58,15.21v1.36a5.35,5.35,0,0,1-5.34,5.34h-3v-12h3A5.34,5.34,0,0,1,103.45,110.81Zm18.68-50.95a45.3,45.3,0,0,1,.08,13.91,3.45,3.45,0,0,1-2.53,2.75l-3.82,1a53.56,53.56,0,0,0-.55-21.67L119.58,57A3.49,3.49,0,0,1,122.13,59.86ZM110.72,15.05a4.54,4.54,0,1,1,4.54,4.55A4.56,4.56,0,0,1,110.72,15.05Zm4,53a50.75,50.75,0,0,1-14.36,35.47,1.07,1.07,0,0,0-.16.25,7.52,7.52,0,0,0-2.08-.3H74.34V95.17c3.44-.18,6.53-.38,9-.57a16.69,16.69,0,0,0,13.22-8.14,38,38,0,0,0,5.2-19.18c0-20.7-16.45-38.25-36.26-39.16V15.4a46.92,46.92,0,0,1,6.84.73v8.94a1,1,0,0,0,2,0V16.53C97.08,21.69,114.71,43.19,114.71,68.06ZM54.85,16.24v8.28a1,1,0,1,0,2,0V15.89a47.21,47.21,0,0,1,6.65-.53V28.09C43.15,28.32,26,46.16,26,67.28c0,7.86,3.12,14.88,5.74,19.39a17,17,0,0,0,13.17,8.39c3.12.28,6.48.43,9.91.5v7.92H28.91a7.35,7.35,0,0,0-1.42.14s0-.07-.06-.09A50.75,50.75,0,0,1,13.07,68.06C13.07,42.68,31.44,20.82,54.85,16.24Zm-49,43.62A3.49,3.49,0,0,1,8.42,57l4-1.07a53.18,53.18,0,0,0-.54,21.55l-3.6-1a3.45,3.45,0,0,1-2.53-2.75A45.3,45.3,0,0,1,5.87,59.86Z"/><path d="M91.48,73.38a1,1,0,0,0-1.12.87,16.68,16.68,0,0,1-4.11,8.21,1,1,0,0,0,0,1.42,1,1,0,0,0,.68.26,1,1,0,0,0,.73-.32,18.21,18.21,0,0,0,4.63-9.32A1,1,0,0,0,91.48,73.38Z"/><path d="M36.42,66.32a1,1,0,0,0,.71.29,1,1,0,0,0,.7-.3L50.66,53.45A1,1,0,0,0,49.25,52L36.42,64.9A1,1,0,0,0,36.42,66.32Z"/><path d="M46,65.44a1,1,0,0,0,.71.29,1,1,0,0,0,.71-.29L61.16,51.7a1,1,0,0,0,0-1.41,1,1,0,0,0-1.42,0L46,64A1,1,0,0,0,46,65.44Z"/><path d="M44.54,67.24a1,1,0,0,0-1.42,0L38,72.35a1,1,0,0,0,0,1.42,1,1,0,0,0,1.42,0l5.1-5.12A1,1,0,0,0,44.54,67.24Z"/><path d="M56.53,63.15,39.92,79.81a1,1,0,0,0,0,1.41,1,1,0,0,0,.7.29,1,1,0,0,0,.71-.29L58,64.56a1,1,0,0,0,0-1.41A1,1,0,0,0,56.53,63.15Z"/><path d="M119.31,74.09a1,1,0,0,0,1-1V62.37a1,1,0,0,0-2,0V73.09A1,1,0,0,0,119.31,74.09Z"/><path d="M8.16,73.21a1,1,0,0,0,1-1V61.47a1,1,0,0,0-2,0V72.21A1,1,0,0,0,8.16,73.21Z"/></svg>