<?xml version="1.0" ?>
<svg fill="#000000" width="800px" height="800px" viewBox="0 0 128 128" data-name="Layer 1" id="Layer_1" xmlns="http://www.w3.org/2000/svg"><title/><path d="M76.24,14.29a1,1,0,0,0-1.41,0L34.17,55a1,1,0,0,0,1.41,1.42L76.24,15.7A1,1,0,0,0,76.24,14.29Z"/><path d="M65.73,10.47a1,1,0,0,0-.15-1.4A26.06,26.06,0,0,0,28.94,45.7a1,1,0,0,0,.78.38,1,1,0,0,0,.63-.22,1,1,0,0,0,.15-1.41A24.06,24.06,0,0,1,64.33,10.63,1,1,0,0,0,65.73,10.47Z"/><path d="M56.61,18.46a1,1,0,1,0,1.12-1.66,15.17,15.17,0,0,0-21,21.05,1,1,0,0,0,.83.44.94.94,0,0,0,.55-.17,1,1,0,0,0,.28-1.38A13.17,13.17,0,0,1,56.61,18.46Z"/><path d="M83.6,104.87,75.18,77.34a1,1,0,0,0-1-.71h-10a1,1,0,0,0-.95.71l-8.42,27.53a1,1,0,0,0,.66,1.25,1,1,0,0,0,.29,0,1,1,0,0,0,1-.7l2.45-8,10-7.06,10,7.06,2.45,8a1,1,0,0,0,1.91-.59ZM64.93,78.63h8.56l1.58,5.17-5.86,4.13L63.35,83.8Zm-4.8,15.68,2.6-8.5,4.74,3.34ZM71,89.15l4.73-3.34,2.6,8.5Z"/><path d="M69.21,64.49a4.41,4.41,0,1,0-4.41-4.4A4.41,4.41,0,0,0,69.21,64.49Zm0-6.81a2.41,2.41,0,1,1-2.41,2.41A2.41,2.41,0,0,1,69.21,57.68Z"/><path d="M103.78,112.3H97.66v0L77.45,57.15a36.52,36.52,0,0,0-.21-51.39,1,1,0,0,0-1.41,0L51.44,30.15l-3.3-3.3a1,1,0,0,0-1.42,0,1,1,0,0,0,0,1.41L50,31.57,25.64,56a1,1,0,0,0,0,1.42A36.4,36.4,0,0,0,51.4,68.05a37,37,0,0,0,5.74-.45L40.76,112.26a.08.08,0,0,1,0,0H34.64a1,1,0,0,0-1,1v10.36a1,1,0,0,0,1,1h69.14a1,1,0,0,0,1-1V113.3A1,1,0,0,0,103.78,112.3Zm-76-55.65L76.53,7.9a34.52,34.52,0,0,1,.15,47.16l-.1-.28a7.85,7.85,0,0,0-14.74,0l-3.9,10.64A34.43,34.43,0,0,1,27.77,56.65Zm36-1.18a5.85,5.85,0,0,1,11,0L95.54,112.3H42.88Zm39.06,67.19H35.64V114.3h67.14Z"/><path d="M73.64,119.6H86.89a1,1,0,1,0,0-2H73.64a1,1,0,0,0,0,2Z"/><path d="M92.14,119.6h3a1,1,0,1,0,0-2h-3a1,1,0,0,0,0,2Z"/></svg>