<?xml version="1.0" encoding="utf-8"?>

<!DOCTYPE svg PUBLIC "-//W3C//DTD SVG 1.1//EN" "http://www.w3.org/Graphics/SVG/1.1/DTD/svg11.dtd">

<svg version="1.1" xmlns="http://www.w3.org/2000/svg" xmlns:xlink="http://www.w3.org/1999/xlink" 
	 width="800px" height="800px" viewBox="0 0 91.296 89.966" enable-background="new 0 0 91.296 89.966" xml:space="preserve">
<g id="Layer_2">
</g>
<g id="icons">
	<g>
		<g>
			<g>
				<path fill="#1F448C" d="M54.123,45.401c-0.76,0-1.52-0.295-2.09-0.882l-5.645-5.814c-0.54-0.557-0.832-1.293-0.82-2.072
					c0.011-0.779,0.324-1.506,0.881-2.047l3.218-3.125c0.453-0.439,1.179-0.429,1.619,0.024c0.441,0.454,0.43,1.179-0.024,1.619
					l-3.218,3.125c-0.16,0.155-0.186,0.34-0.187,0.437c-0.001,0.097,0.019,0.284,0.174,0.442l5.645,5.814
					c0.236,0.243,0.638,0.247,0.88,0.013l3.218-3.125c0.453-0.44,1.179-0.429,1.619,0.024c0.441,0.454,0.43,1.179-0.024,1.619
					l-3.218,3.125C55.586,45.129,54.854,45.401,54.123,45.401z"/>
			</g>
			<g>
				<path fill="#1F448C" d="M30.449,68.71c-0.795,0-1.538-0.313-2.09-0.881l-5.644-5.814c-1.118-1.152-1.091-2.999,0.06-4.118
					l1.951-1.894c0.455-0.44,1.179-0.429,1.619,0.024l8.106,8.35c0.441,0.454,0.43,1.179-0.024,1.619l-1.95,1.893
					C31.931,68.418,31.211,68.71,30.449,68.71z M25.5,58.443L24.37,59.54c-0.242,0.235-0.247,0.638-0.013,0.88l5.644,5.814
					c0.158,0.163,0.348,0.187,0.447,0.187c0.164,0,0.318-0.062,0.433-0.174l1.129-1.096L25.5,58.443z"/>
			</g>
			<g>
				<path fill="#1F448C" d="M8.556,89.966c-0.796,0-1.538-0.313-2.09-0.882l-5.645-5.814c-1.119-1.152-1.091-3,0.061-4.118
					l1.95-1.894c0.218-0.212,0.508-0.313,0.815-0.324c0.303,0.004,0.593,0.13,0.804,0.347l8.106,8.35
					c0.441,0.454,0.43,1.179-0.024,1.619l-1.95,1.894C10.039,89.674,9.318,89.966,8.556,89.966z M3.607,79.699l-1.129,1.096
					c-0.242,0.235-0.248,0.638-0.013,0.88l5.645,5.814c0.157,0.163,0.347,0.187,0.447,0.187c0.164,0,0.318-0.062,0.433-0.174
					l1.129-1.096L3.607,79.699z"/>
			</g>
			<g>
				<path fill="#1F448C" d="M31.974,63.89c-0.731,0-1.411-0.287-1.917-0.809l-2.87-2.956c-0.496-0.511-0.763-1.186-0.753-1.901
					c0.01-0.715,0.297-1.381,0.808-1.877l18.399-17.863c1.022-0.992,2.787-0.965,3.778,0.056l2.87,2.956
					c0.496,0.511,0.763,1.186,0.753,1.901c-0.011,0.715-0.298,1.381-0.809,1.877L33.835,63.137
					C33.334,63.623,32.674,63.89,31.974,63.89z M47.501,40.021c-0.058,0-0.171,0.014-0.265,0.106L28.837,57.99
					c-0.097,0.094-0.113,0.208-0.114,0.268c-0.001,0.06,0.012,0.174,0.107,0.272l2.87,2.956c0.096,0.099,0.213,0.114,0.274,0.114
					c0.058,0,0.171-0.014,0.265-0.106l18.398-17.863c0.097-0.094,0.113-0.209,0.114-0.268c0.001-0.06-0.012-0.174-0.106-0.271
					l-2.87-2.957C47.679,40.036,47.562,40.021,47.501,40.021z"/>
			</g>
			<g>
				<path fill="#1F448C" d="M11.706,86.769c-0.015,0-0.03,0-0.045,0c-0.779-0.012-1.506-0.325-2.046-0.881l-5.496-5.66
					c-1.118-1.152-1.091-2.999,0.06-4.118l16.009-15.543c0.453-0.441,1.179-0.429,1.619,0.024c0.441,0.454,0.43,1.179-0.024,1.619
					L5.775,77.752c-0.242,0.235-0.247,0.638-0.013,0.88l5.496,5.66c0.154,0.159,0.34,0.185,0.438,0.187
					c0.11,0.001,0.283-0.019,0.442-0.173l16.009-15.543c0.453-0.441,1.179-0.429,1.619,0.024c0.441,0.454,0.43,1.179-0.024,1.619
					L13.733,85.948C13.187,86.478,12.469,86.769,11.706,86.769z"/>
			</g>
			<g>
				<g>
					<path fill="#1F448C" d="M54.731,12.407c-0.276,0-0.552-0.099-0.772-0.299c-0.467-0.427-0.499-1.151-0.073-1.618
						c2.529-2.77,5.78-4.722,9.403-5.647c0.614-0.156,1.236,0.214,1.393,0.827c0.157,0.613-0.213,1.236-0.826,1.393
						c-3.188,0.813-6.051,2.532-8.278,4.971C55.35,12.281,55.041,12.407,54.731,12.407z"/>
				</g>
				<g>
					<path fill="#1F448C" d="M50.213,27.012c-0.562,0-1.053-0.414-1.132-0.986c-0.236-1.678-0.245-3.388-0.028-5.081
						c0.221-1.737,0.677-3.429,1.353-5.029c0.247-0.582,0.918-0.856,1.501-0.609c0.582,0.246,0.855,0.918,0.609,1.501
						c-0.595,1.408-0.996,2.897-1.191,4.427c-0.191,1.492-0.183,2.996,0.024,4.473C51.437,26.334,51,26.913,50.374,27
						C50.32,27.008,50.266,27.012,50.213,27.012z"/>
				</g>
				<g>
					<path fill="#1F448C" d="M59.47,40.32c-0.184,0-0.37-0.044-0.543-0.138c-3.337-1.803-6.043-4.536-7.822-7.903
						c-0.295-0.559-0.082-1.252,0.477-1.548c0.559-0.296,1.252-0.082,1.548,0.477c1.567,2.965,3.948,5.371,6.886,6.958
						c0.556,0.301,0.764,0.995,0.463,1.552C60.271,40.102,59.877,40.32,59.47,40.32z"/>
				</g>
				<g>
					<path fill="#1F448C" d="M68.011,42.471c-0.808,0-1.618-0.051-2.424-0.154c-0.628-0.08-1.071-0.653-0.991-1.281
						c0.08-0.628,0.654-1.072,1.281-0.991c2.865,0.364,5.782-0.012,8.439-1.09c0.59-0.237,1.255,0.045,1.492,0.631
						c0.238,0.586-0.044,1.254-0.63,1.492C72.905,42.001,70.465,42.471,68.011,42.471z"/>
				</g>
				<g>
					<path fill="#1F448C" d="M79.786,38.069c-0.321,0-0.639-0.134-0.865-0.395c-0.414-0.477-0.363-1.201,0.114-1.615
						c2.386-2.071,4.134-4.755,5.052-7.763c0.184-0.605,0.825-0.945,1.43-0.761c0.605,0.185,0.945,0.825,0.76,1.429
						c-1.044,3.419-3.03,6.471-5.741,8.823C80.319,37.977,80.051,38.069,79.786,38.069z"/>
				</g>
				<g>
					<path fill="#1F448C" d="M85.959,23.897c-0.615,0-1.123-0.488-1.144-1.107c-0.107-3.27-1.165-6.419-3.06-9.109
						c-0.364-0.517-0.24-1.231,0.277-1.595c0.516-0.363,1.232-0.241,1.596,0.277c2.152,3.055,3.355,6.635,3.476,10.352
						c0.021,0.632-0.475,1.161-1.107,1.182C85.985,23.897,85.972,23.897,85.959,23.897z"/>
				</g>
				<g>
					<path fill="#1F448C" d="M78.678,10.058c-0.237,0-0.476-0.073-0.681-0.225c-2.294-1.697-5.012-2.787-7.862-3.15
						c-0.382-0.049-0.763-0.085-1.143-0.107c-0.631-0.038-1.112-0.58-1.074-1.212c0.038-0.631,0.546-1.108,1.211-1.075
						c0.43,0.026,0.862,0.066,1.296,0.122c3.236,0.413,6.325,1.652,8.934,3.581c0.508,0.376,0.615,1.093,0.239,1.601
						C79.374,9.897,79.028,10.058,78.678,10.058z"/>
				</g>
				<g>
					<path fill="#1F448C" d="M60.322,45.47c-0.133,0-0.266-0.023-0.394-0.07c-0.384-0.141-0.663-0.476-0.734-0.879l-1.875-10.781
						l-10.721-2.193c-0.4-0.082-0.728-0.372-0.857-0.76c-0.13-0.388-0.042-0.816,0.23-1.122l7.259-8.188l-4.969-9.749
						c-0.186-0.365-0.163-0.8,0.06-1.144c0.222-0.343,0.594-0.542,1.02-0.52l10.929,0.57l4.523-9.964
						c0.169-0.372,0.524-0.627,0.932-0.666c0.409-0.041,0.804,0.141,1.042,0.473l6.368,8.9l10.61-2.676
						c0.399-0.099,0.816,0.019,1.102,0.313c0.285,0.293,0.391,0.717,0.28,1.11l-2.988,10.526l8.707,6.628
						c0.326,0.247,0.494,0.65,0.443,1.056c-0.052,0.406-0.316,0.753-0.694,0.911L80.5,31.475l0.248,10.94
						c0.009,0.409-0.201,0.792-0.55,1.005c-0.35,0.212-0.786,0.223-1.145,0.026l-9.599-5.256l-8.398,7.015
						C60.847,45.379,60.586,45.47,60.322,45.47z M59.822,34.767l1.288,7.408l5.771-4.82L59.822,34.767z M71.818,36.873l6.596,3.611
						l-0.171-7.518L71.818,36.873z M59.061,32.049l10.159,3.724l9.245-5.62l1.37-10.731l-7.537-7.762L61.53,12.711l-5.891,9.075
						L59.061,32.049z M49,29.702l7.367,1.507l-2.379-7.133L49,29.702z M81.896,21.347l-0.953,7.459l6.936-2.905L81.896,21.347z
						 M51.201,12.456l3.415,6.7l4.094-6.307L51.201,12.456z M75.089,11.247l5.238,5.395l2.053-7.234L75.089,11.247z M66.057,3.425
						l-3.109,6.847l7.485-0.731L66.057,3.425z"/>
				</g>
				<g>
					<path fill="#1F448C" d="M71.78,29.057c-0.005,0-0.011,0-0.017,0l-8.815-0.13c-0.303-0.004-0.593-0.13-0.804-0.347
						c-0.212-0.218-0.328-0.511-0.324-0.814l0.13-8.815c0.01-0.627,0.52-1.128,1.145-1.128c0.005,0,0.011,0,0.017,0l8.815,0.13
						c0.303,0.004,0.593,0.13,0.804,0.347c0.212,0.218,0.328,0.511,0.324,0.814l-0.13,8.815
						C72.916,28.555,72.405,29.057,71.78,29.057z M64.128,26.654l6.525,0.096l0.096-6.525l-6.525-0.096L64.128,26.654z"/>
				</g>
				<g>
					<path fill="#1F448C" d="M67.438,24.584c-0.299,0-0.597-0.116-0.822-0.347l-4.342-4.472c-0.441-0.454-0.43-1.179,0.024-1.619
						c0.453-0.44,1.179-0.429,1.619,0.024l4.342,4.472c0.441,0.454,0.43,1.179-0.024,1.619
						C68.014,24.477,67.726,24.584,67.438,24.584z"/>
				</g>
			</g>
			<g>
				<path fill="#1F448C" d="M13.134,75.167c-0.299,0-0.597-0.116-0.822-0.347c-0.441-0.454-0.43-1.179,0.024-1.619l11.754-11.412
					c0.453-0.441,1.179-0.429,1.619,0.024c0.441,0.454,0.43,1.179-0.024,1.619L13.932,74.843
					C13.71,75.059,13.422,75.167,13.134,75.167z"/>
			</g>
		</g>
	</g>
</g>
</svg>