<?xml version="1.0" encoding="utf-8"?>

<!DOCTYPE svg PUBLIC "-//W3C//DTD SVG 1.1//EN" "http://www.w3.org/Graphics/SVG/1.1/DTD/svg11.dtd">

<svg version="1.1" xmlns="http://www.w3.org/2000/svg" xmlns:xlink="http://www.w3.org/1999/xlink" 
	 width="800px" height="800px" viewBox="0 0 91.666 44.789" enable-background="new 0 0 91.666 44.789" xml:space="preserve">
<g id="Layer_2">
</g>
<g id="icons">
	<g>
		<g>
			<g>
				<path fill="#1F448C" d="M89.757,11.069H43.043c-1.052,0-1.908-0.856-1.908-1.908V1.908C41.134,0.856,41.99,0,43.043,0h46.715
					c1.052,0,1.908,0.856,1.908,1.908V9.16C91.666,10.213,90.81,11.069,89.757,11.069z M43.424,8.779h45.951V2.29H43.424V8.779z"/>
			</g>
			<g>
				<path fill="#1F448C" d="M75.587,19.527h-6.3v-2.29h5.919v-3.275h-6.428v-2.29h6.809c1.052,0,1.908,0.856,1.908,1.908v4.038
					C77.495,18.671,76.639,19.527,75.587,19.527z"/>
			</g>
			<g>
				<path fill="#1F448C" d="M42.279,19.527H1.145C0.513,19.527,0,19.014,0,18.382C0,8.246,8.246,0,18.381,0h23.898
					c0.633,0,1.145,0.513,1.145,1.145v17.237C43.424,19.014,42.912,19.527,42.279,19.527z M2.33,17.237h38.804V2.29H18.381
					C9.893,2.29,2.92,8.896,2.33,17.237z"/>
			</g>
			<g>
				<g>
					<path fill="#1F448C" d="M68.435,22.215H43.724c-1.052,0-1.908-0.856-1.908-1.908v-9.415c0-1.053,0.856-1.908,1.908-1.908
						h24.711c1.052,0,1.908,0.856,1.908,1.908v9.415C70.344,21.359,69.487,22.215,68.435,22.215z M44.106,19.925h23.948v-8.651
						H44.106V19.925z"/>
				</g>
				<g>
					<g>
						<path fill="#1F448C" d="M47.937,17.397c-0.633,0-1.145-0.513-1.145-1.145v-6.123c0-0.632,0.513-1.145,1.145-1.145
							s1.145,0.513,1.145,1.145v6.123C49.082,16.884,48.57,17.397,47.937,17.397z"/>
					</g>
					<g>
						<path fill="#1F448C" d="M52.008,17.397c-0.633,0-1.145-0.513-1.145-1.145v-6.123c0-0.632,0.513-1.145,1.145-1.145
							s1.145,0.513,1.145,1.145v6.123C53.153,16.884,52.641,17.397,52.008,17.397z"/>
					</g>
					<g>
						<path fill="#1F448C" d="M56.08,17.397c-0.633,0-1.145-0.513-1.145-1.145v-6.123c0-0.632,0.513-1.145,1.145-1.145
							s1.145,0.513,1.145,1.145v6.123C57.225,16.884,56.712,17.397,56.08,17.397z"/>
					</g>
					<g>
						<path fill="#1F448C" d="M60.151,17.397c-0.633,0-1.145-0.513-1.145-1.145v-6.123c0-0.632,0.513-1.145,1.145-1.145
							s1.145,0.513,1.145,1.145v6.123C61.296,16.884,60.783,17.397,60.151,17.397z"/>
					</g>
					<g>
						<path fill="#1F448C" d="M64.222,17.397c-0.633,0-1.145-0.513-1.145-1.145v-6.123c0-0.632,0.513-1.145,1.145-1.145
							c0.633,0,1.145,0.513,1.145,1.145v6.123C65.367,16.884,64.855,17.397,64.222,17.397z"/>
					</g>
				</g>
			</g>
			<g>
				
					<ellipse transform="matrix(0.6881 -0.7257 0.7257 0.6881 -5.4134 13.7877)" fill="#1F448C" cx="13.33" cy="13.19" rx="1.828" ry="1.828"/>
			</g>
			<g>
				
					<ellipse transform="matrix(0.6881 -0.7257 0.7257 0.6881 -1.1584 23.686)" fill="#1F448C" cx="26.971" cy="13.19" rx="1.828" ry="1.828"/>
			</g>
			<g>
				<rect x="76.762" y="1.145" fill="#1F448C" width="2.29" height="8.779"/>
			</g>
			<g>
				<path fill="#1F448C" d="M68.777,5.993H46.235c-0.633,0-1.145-0.513-1.145-1.145s0.513-1.145,1.145-1.145h22.542
					c0.633,0,1.145,0.513,1.145,1.145S69.41,5.993,68.777,5.993z"/>
			</g>
			<g>
				<path fill="#1F448C" d="M16.752,44.789H1.889c-0.41,0-0.789-0.22-0.994-0.576c-0.204-0.356-0.202-0.794,0.006-1.148
					l9.336-15.915c-0.136-0.991-0.988-1.757-2.016-1.757c-0.633,0-1.145-0.513-1.145-1.145v-5.344h2.29v4.352
					c1.831,0.503,3.181,2.183,3.181,4.172c0,0.204-0.054,0.404-0.157,0.579L3.888,42.498h12.19l8.98-16.178l2.002,1.111
					l-9.307,16.768C17.551,44.563,17.168,44.789,16.752,44.789z"/>
			</g>
			<g>
				<path fill="#1F448C" d="M34.076,27.793h-7.619c-1.988,0-3.605-1.617-3.605-3.604v-3.348c0-1.987,1.617-3.604,3.605-3.604H40.63
					c0.409,0,0.786,0.218,0.991,0.572c0.205,0.354,0.205,0.79,0.001,1.144l-3.859,6.708C37.007,26.976,35.594,27.793,34.076,27.793z
					 M26.457,19.527c-0.725,0-1.315,0.59-1.315,1.314v3.348c0,0.725,0.59,1.314,1.315,1.314h7.619c0.701,0,1.353-0.377,1.702-0.984
					l2.872-4.992H26.457z"/>
			</g>
			<g>
				<rect x="8.221" y="23.102" fill="#1F448C" width="9.889" height="2.29"/>
			</g>
			<g>
				<path fill="#1F448C" d="M30.758,24.971c-2.132,0-3.867-1.735-3.867-3.867c0-2.132,1.735-3.867,3.867-3.867
					c0.633,0,1.145,0.513,1.145,1.145c0,0.632-0.513,1.145-1.145,1.145c-0.87,0-1.577,0.707-1.577,1.577
					c0,0.87,0.707,1.577,1.577,1.577c0.633,0,1.145,0.513,1.145,1.145C31.903,24.458,31.391,24.971,30.758,24.971z"/>
			</g>
			<g>
				<path fill="#1F448C" d="M5.001,19.245c-0.068,0-0.138-0.006-0.207-0.019c-0.622-0.113-1.035-0.71-0.921-1.332
					c0.819-4.487,3.259-8.489,6.872-11.269c0.501-0.385,1.22-0.291,1.606,0.21c0.385,0.501,0.292,1.22-0.209,1.606
					c-3.163,2.432-5.3,5.935-6.016,9.864C6.025,18.858,5.543,19.245,5.001,19.245z"/>
			</g>
		</g>
	</g>
</g>
</svg>