<?xml version="1.0" encoding="utf-8"?>

<!DOCTYPE svg PUBLIC "-//W3C//DTD SVG 1.1//EN" "http://www.w3.org/Graphics/SVG/1.1/DTD/svg11.dtd">

<svg version="1.1" xmlns="http://www.w3.org/2000/svg" xmlns:xlink="http://www.w3.org/1999/xlink" 
	 width="800px" height="800px" viewBox="0 0 79.273 91.678" enable-background="new 0 0 79.273 91.678" xml:space="preserve">
<g id="Layer_2">
</g>
<g id="icons">
	<g>
		<g>
			<g>
				<path fill="#1F448C" d="M16.606,91.678c-0.775,0-1.527-0.274-2.097-0.833L0.877,77.49c-1.233-1.208-1.157-3.291,0.168-4.644
					L23.63,49.794c1.827-1.864,4.874-3.701,7.808-4.723c3.679-1.281,6.597-1.113,8.218,0.476l-1.603,1.636
					c-0.939-0.919-3.13-0.9-5.862,0.051c-2.586,0.901-5.351,2.555-6.881,4.117L2.681,74.448c-0.427,0.435-0.521,1.093-0.201,1.406
					l13.631,13.354c0.319,0.312,0.974,0.206,1.401-0.231l22.584-23.053c1.574-1.607,3.172-4.406,4.019-7.01
					c0.895-2.752,0.87-4.942-0.069-5.862l1.603-1.636c1.621,1.588,1.85,4.503,0.644,8.207c-0.962,2.954-2.735,6.038-4.517,7.858
					L19.148,90.58C18.436,91.307,17.505,91.678,16.606,91.678z"/>
			</g>
			<g>
				<path fill="#1F448C" d="M42.091,56.176c-0.289,0-0.578-0.109-0.801-0.327c-0.452-0.442-0.459-1.167-0.016-1.619l13.399-13.678
					c0.442-0.451,1.167-0.459,1.619-0.016c0.452,0.442,0.459,1.167,0.016,1.619L42.908,55.833
					C42.684,56.061,42.388,56.176,42.091,56.176z"/>
			</g>
			<g>
				<path fill="#1F448C" d="M36.183,50.389c-0.289,0-0.578-0.109-0.801-0.327c-0.452-0.442-0.459-1.167-0.016-1.619l13.4-13.678
					c0.442-0.451,1.167-0.458,1.619-0.016c0.452,0.442,0.459,1.167,0.016,1.619l-13.4,13.678
					C36.777,50.274,36.48,50.389,36.183,50.389z"/>
			</g>
			<g>
				<path fill="#1F448C" d="M57.105,43.162c-0.906,0-1.76-0.347-2.404-0.979l-5.998-5.876c-1.353-1.326-1.375-3.505-0.05-4.858
					c0.649-0.663,1.521-1.028,2.454-1.028c0.906,0,1.76,0.347,2.404,0.979l5.998,5.877c1.353,1.325,1.375,3.504,0.05,4.857
					C58.909,42.797,58.038,43.162,57.105,43.162z M51.107,32.711c-0.312,0-0.603,0.121-0.818,0.341
					c-0.442,0.451-0.435,1.178,0.016,1.62l5.998,5.876c0.434,0.425,1.195,0.417,1.62-0.016c0.441-0.451,0.434-1.177-0.017-1.619
					l-5.998-5.877C51.694,32.826,51.41,32.711,51.107,32.711z"/>
			</g>
			<g>
				<path fill="#1F448C" d="M34.754,74.159c-0.145,0-0.292-0.028-0.434-0.086c-0.234-0.095-5.745-2.424-6.989-8.884
					c-0.914-7.069-8.186-8.117-8.259-8.126c-0.627-0.084-1.067-0.66-0.984-1.287c0.084-0.627,0.66-1.067,1.286-0.984
					c0.091,0.013,9.091,1.311,10.217,10.034c1,5.188,5.551,7.11,5.597,7.128c0.585,0.239,0.865,0.909,0.625,1.494
					C35.632,73.892,35.204,74.159,34.754,74.159z"/>
			</g>
			<g>
				<path fill="#1F448C" d="M10.401,73.277c-0.289,0-0.578-0.109-0.801-0.327c-0.452-0.442-0.459-1.167-0.016-1.619l18.831-19.222
					c0.442-0.451,1.168-0.459,1.619-0.016c0.452,0.442,0.459,1.167,0.016,1.619L11.218,72.933
					C10.994,73.162,10.698,73.277,10.401,73.277z"/>
			</g>
			<g>
				
					<ellipse transform="matrix(0.9993 -0.0368 0.0368 0.9993 -2.7689 0.3202)" fill="#1F448C" cx="7.304" cy="75.293" rx="1.397" ry="1.397"/>
			</g>
			<g>
				<g>
					<path fill="#1F448C" d="M44.578,40.949c-0.226,0-0.454-0.066-0.653-0.205c-2.858-1.989-4.77-4.972-5.385-8.398
						c-0.614-3.427,0.142-6.888,2.131-9.746l1.094-1.571c0.836-1.2,1.153-2.654,0.895-4.093c-0.258-1.44-1.062-2.693-2.262-3.528
						c-0.519-0.362-0.647-1.075-0.286-1.594c0.361-0.519,1.073-0.648,1.594-0.286c1.703,1.185,2.842,2.962,3.208,5.004
						c0.366,2.042-0.085,4.104-1.27,5.806l-1.093,1.571c-3.384,4.863-2.181,11.573,2.682,14.956
						c0.519,0.362,0.647,1.075,0.286,1.594C45.296,40.778,44.94,40.949,44.578,40.949z"/>
				</g>
				<g>
					<path fill="#1F448C" d="M67.443,36.965c-0.226,0-0.454-0.066-0.653-0.205c-0.519-0.362-0.647-1.075-0.286-1.594
						c3.065-4.404,4.231-9.739,3.284-15.02c-0.947-5.282-3.894-9.879-8.299-12.944c-0.218-0.152-0.376-0.374-0.448-0.63
						c-0.093-0.329-0.051-0.748,0.144-1.029l2.078-2.986c-1.863-0.678-4.026-0.052-5.211,1.65c-0.684,0.983-0.944,2.172-0.732,3.349
						c0.211,1.178,0.868,2.202,1.851,2.886l0.538,0.374c2.977,2.072,3.714,6.18,1.642,9.157c-2.072,2.977-6.18,3.713-9.157,1.642
						c-0.406-0.283-0.573-0.781-0.453-1.233c0.054-2.509-1.132-4.847-3.198-6.284c-1.635-1.138-3.617-1.571-5.578-1.22
						c-1.961,0.352-3.668,1.446-4.806,3.082c-0.362,0.519-1.075,0.648-1.594,0.286c-0.519-0.362-0.647-1.075-0.286-1.594
						c1.488-2.138,3.719-3.569,6.282-4.029c2.563-0.457,5.152,0.107,7.29,1.595c2.595,1.806,4.128,4.699,4.18,7.833
						c1.873,0.939,4.208,0.385,5.44-1.385c1.35-1.941,0.87-4.619-1.07-5.969l-0.538-0.374c-1.484-1.033-2.477-2.582-2.797-4.362
						c-0.319-1.779,0.074-3.578,1.107-5.061c2.132-3.063,6.359-3.822,9.423-1.691c0.519,0.362,0.647,1.075,0.286,1.594L63.68,5.967
						c4.418,3.399,7.372,8.25,8.363,13.774c1.055,5.883-0.245,11.826-3.659,16.732C68.162,36.793,67.806,36.965,67.443,36.965z"/>
				</g>
				<g>
					<path fill="#1F448C" d="M61.864,54.929c-3.133,0-6.23-1.267-8.442-3.645c-0.431-0.463-0.405-1.188,0.059-1.618
						c0.463-0.43,1.188-0.403,1.618,0.059c2.739,2.945,7.175,3.761,10.79,1.986c2.205-1.083,3.856-2.96,4.65-5.285
						c0.793-2.325,0.634-4.82-0.45-7.025c-0.279-0.567-0.045-1.254,0.523-1.533c0.569-0.278,1.254-0.044,1.533,0.523
						c1.353,2.754,1.552,5.87,0.561,8.774c-0.991,2.904-3.053,5.248-5.808,6.601C65.302,54.55,63.577,54.929,61.864,54.929z"/>
				</g>
			</g>
			<g>
				<path fill="#1F448C" d="M77.188,50.324c-0.159,0-0.32-0.033-0.474-0.103c-0.575-0.262-0.829-0.942-0.567-1.517
					c1.15-2.522,1.11-5.393-0.11-7.879c-0.279-0.567-0.045-1.254,0.523-1.533c0.567-0.278,1.253-0.045,1.532,0.523
					c1.524,3.103,1.575,6.689,0.139,9.838C78.039,50.076,77.623,50.324,77.188,50.324z"/>
			</g>
			<g>
				<path fill="#1F448C" d="M40.126,42.389c-0.226,0-0.454-0.066-0.653-0.205c-3.002-2.09-4.998-5.369-5.477-8.997
					c-0.083-0.627,0.359-1.202,0.986-1.285c0.624-0.081,1.202,0.359,1.285,0.986c0.395,2.992,2.04,5.695,4.515,7.417
					c0.519,0.362,0.647,1.075,0.286,1.594C40.844,42.217,40.488,42.389,40.126,42.389z"/>
			</g>
			<g>
				<path fill="#1F448C" d="M47.743,50.406c-0.289,0-0.578-0.109-0.801-0.327l-5.907-5.787c-0.452-0.442-0.459-1.167-0.016-1.619
					c0.442-0.451,1.167-0.459,1.619-0.016l5.907,5.787c0.452,0.442,0.459,1.167,0.016,1.619
					C48.337,50.292,48.04,50.406,47.743,50.406z"/>
			</g>
			<g>
				
					<ellipse transform="matrix(0.6806 -0.7327 0.7327 0.6806 -9.6606 34.8709)" fill="#1F448C" cx="35.162" cy="28.515" rx="1.64" ry="1.64"/>
			</g>
		</g>
	</g>
</g>
</svg>