<?xml version="1.0" encoding="utf-8"?>

<!DOCTYPE svg PUBLIC "-//W3C//DTD SVG 1.1//EN" "http://www.w3.org/Graphics/SVG/1.1/DTD/svg11.dtd">

<svg version="1.1" xmlns="http://www.w3.org/2000/svg" xmlns:xlink="http://www.w3.org/1999/xlink" 
	 width="800px" height="800px" viewBox="0 0 86.489 87.43" enable-background="new 0 0 86.489 87.43" xml:space="preserve">
<g id="Layer_2">
</g>
<g id="icons">
	<g>
		<g>
			<g>
				<path fill="#1F448C" d="M60.037,83.974c-0.146,0-0.293-0.028-0.433-0.085l-0.086-0.035c-0.341-0.14-0.595-0.435-0.681-0.794
					c-0.086-0.359,0.007-0.737,0.248-1.016c13.252-15.3,12.339-38.439-2.079-52.679c-7.267-7.177-16.894-11.129-27.106-11.129
					c-9.456,0-18.546,3.449-25.594,9.71c-0.276,0.245-0.654,0.343-1.011,0.261c-0.36-0.081-0.658-0.329-0.803-0.668l-0.037-0.086
					c-0.182-0.428-0.088-0.923,0.239-1.254c9.221-9.337,21.6-14.692,33.962-14.692c10.489,0,20.17,3.856,27.261,10.859
					c7.785,7.688,11.743,18.309,11.146,29.905c-0.596,11.547-5.642,22.685-14.212,31.361C60.633,83.856,60.338,83.974,60.037,83.974
					z M29.901,15.947c10.819,0,21.016,4.187,28.715,11.79c10.436,10.306,14.194,25.013,11.049,38.466
					c1.802-4.501,2.864-9.238,3.112-14.048C73.34,41.22,69.623,31.22,62.309,23.997C55.65,17.42,46.54,13.798,36.657,13.798
					c-5.568,0-11.143,1.146-16.403,3.299C23.386,16.338,26.623,15.947,29.901,15.947z"/>
			</g>
			<g>
				<path fill="#1F448C" d="M59.743,77.462c-0.171,0-0.345-0.039-0.509-0.12L26.614,61.123c-0.219-0.109-0.397-0.285-0.509-0.503
					L9.479,28.207c-0.288-0.563-0.066-1.253,0.496-1.541c0.562-0.29,1.253-0.067,1.542,0.496L27.971,59.24l32.283,16.051
					c0.566,0.282,0.797,0.969,0.515,1.535C60.569,77.229,60.163,77.462,59.743,77.462z"/>
			</g>
			<g>
				<g>
					<g>
						<path fill="#1F448C" d="M50.372,25.426c-0.291,0-0.581-0.11-0.804-0.33c-0.45-0.444-0.455-1.169-0.01-1.62l7.419-7.512
							c0.445-0.45,1.17-0.454,1.619-0.01c0.45,0.444,0.455,1.169,0.01,1.62l-7.419,7.512C50.963,25.313,50.667,25.426,50.372,25.426
							z"/>
					</g>
					<g>
						<path fill="#1F448C" d="M62.175,37.081c-0.291,0-0.581-0.11-0.804-0.33c-0.45-0.444-0.455-1.169-0.01-1.62l7.418-7.512
							c0.445-0.45,1.17-0.454,1.619-0.01c0.45,0.444,0.455,1.169,0.01,1.62l-7.418,7.512C62.765,36.968,62.47,37.081,62.175,37.081z
							"/>
					</g>
				</g>
				<g>
					<g>
						<path fill="#1F448C" d="M55.182,26.392c-0.291,0-0.581-0.11-0.804-0.33c-0.45-0.444-0.455-1.169-0.01-1.619l4.699-4.759
							c0.446-0.45,1.17-0.454,1.619-0.01c0.45,0.444,0.455,1.169,0.01,1.619l-4.699,4.759
							C55.772,26.278,55.477,26.392,55.182,26.392z"/>
					</g>
					<g>
						<path fill="#1F448C" d="M57.941,29.565c-0.291,0-0.581-0.11-0.804-0.33c-0.45-0.445-0.455-1.17-0.01-1.62l4.204-4.256
							c0.446-0.45,1.17-0.454,1.619-0.01c0.45,0.445,0.455,1.17,0.01,1.62l-4.204,4.256C58.531,29.451,58.236,29.565,57.941,29.565z
							"/>
					</g>
					<g>
						<path fill="#1F448C" d="M61.149,32.284c-0.291,0-0.581-0.11-0.804-0.33c-0.45-0.444-0.455-1.169-0.01-1.619l4.699-4.759
							c0.446-0.451,1.17-0.454,1.619-0.01c0.45,0.444,0.455,1.169,0.01,1.619l-4.699,4.759
							C61.739,32.171,61.444,32.284,61.149,32.284z"/>
					</g>
				</g>
			</g>
			<g>
				<g>
					<path fill="#1F448C" d="M13.18,74.435c-0.128,0-0.258-0.022-0.385-0.067l-6.292-2.25c-0.596-0.213-0.906-0.868-0.693-1.464
						c0.212-0.596,0.867-0.906,1.463-0.693l6.292,2.25c0.596,0.213,0.906,0.868,0.693,1.464
						C14.091,74.143,13.65,74.435,13.18,74.435z"/>
				</g>
				<g>
					<g>
						<path fill="#1F448C" d="M10.309,77.343c-0.128,0-0.258-0.022-0.385-0.067L6.469,76.04c-0.596-0.213-0.906-0.868-0.693-1.464
							c0.212-0.596,0.867-0.906,1.463-0.693l3.455,1.235c0.596,0.213,0.906,0.868,0.693,1.464
							C11.22,77.051,10.779,77.343,10.309,77.343z"/>
					</g>
					<g>
						<path fill="#1F448C" d="M12.051,81.24c-0.464,0-0.902-0.285-1.073-0.746l-1.278-3.438c-0.22-0.593,0.082-1.252,0.675-1.472
							c0.59-0.223,1.252,0.081,1.472,0.674l1.278,3.438c0.22,0.593-0.082,1.252-0.675,1.472
							C12.318,81.216,12.183,81.24,12.051,81.24z"/>
					</g>
				</g>
				<g>
					<path fill="#1F448C" d="M7.437,80.25c-0.128,0-0.258-0.022-0.385-0.067l-6.292-2.25c-0.596-0.213-0.906-0.868-0.693-1.464
						c0.212-0.596,0.868-0.906,1.463-0.693l6.292,2.25c0.596,0.213,0.906,0.868,0.693,1.464C8.348,79.958,7.907,80.25,7.437,80.25z"
						/>
				</g>
				<g>
					<g>
						<path fill="#1F448C" d="M16.436,81.615c-0.464,0-0.902-0.285-1.073-0.746l-2.329-6.263c-0.22-0.593,0.082-1.252,0.675-1.472
							c0.59-0.222,1.252,0.081,1.472,0.674l2.329,6.263c0.22,0.593-0.082,1.252-0.675,1.472
							C16.704,81.591,16.569,81.615,16.436,81.615z"/>
					</g>
					<g>
						<path fill="#1F448C" d="M10.693,87.43c-0.464,0-0.902-0.285-1.073-0.746l-2.329-6.263c-0.22-0.593,0.082-1.252,0.675-1.472
							c0.59-0.222,1.252,0.081,1.472,0.674l2.329,6.263c0.22,0.593-0.082,1.252-0.675,1.472
							C10.961,87.407,10.826,87.43,10.693,87.43z"/>
					</g>
				</g>
			</g>
			<g>
				<path fill="#1F448C" d="M30.809,57.511c-0.291,0-0.581-0.11-0.804-0.33c-0.45-0.444-0.455-1.169-0.01-1.62l26.66-26.996
					c0.445-0.45,1.17-0.454,1.619-0.01c0.45,0.444,0.455,1.169,0.01,1.62l-26.66,26.996C31.399,57.398,31.104,57.511,30.809,57.511z
					"/>
			</g>
			<g>
				<path fill="#1F448C" d="M5.918,82.715c-0.291,0-0.581-0.11-0.804-0.33c-0.45-0.444-0.455-1.169-0.01-1.62l21.206-21.472
					c0.445-0.45,1.17-0.454,1.619-0.01c0.45,0.444,0.455,1.169,0.01,1.62L6.733,82.375C6.509,82.602,6.214,82.715,5.918,82.715z"/>
			</g>
			<g>
				<path fill="#1F448C" d="M67.445,20.414c-0.291,0-0.581-0.11-0.804-0.33c-0.45-0.444-0.455-1.169-0.01-1.619l9.679-9.802
					c0.445-0.451,1.17-0.454,1.619-0.01c0.45,0.444,0.455,1.169,0.01,1.619l-9.679,9.802C68.035,20.3,67.74,20.414,67.445,20.414z"
					/>
			</g>
			<g>
				<polygon fill="#1F448C" points="85.344,1.215 82.009,7.473 78.675,13.73 78.362,8.286 78.29,8.215 72.842,7.97 79.057,4.557 
					85.272,1.145 				"/>
				<path fill="#1F448C" d="M78.675,14.875c-0.081,0-0.163-0.009-0.245-0.026c-0.502-0.11-0.868-0.54-0.898-1.053l-0.258-4.48
					l-4.483-0.202c-0.513-0.023-0.947-0.385-1.064-0.884c-0.116-0.5,0.114-1.016,0.564-1.263l12.43-6.826
					c0.444-0.243,0.996-0.167,1.356,0.19l0.072,0.071c0.36,0.356,0.444,0.906,0.206,1.353l-6.669,12.515
					C79.484,14.647,79.091,14.875,78.675,14.875z M76.971,7.01l1.371,0.062c0.283,0.013,0.552,0.13,0.754,0.33l0.072,0.071
					c0.201,0.199,0.322,0.466,0.338,0.748l0.079,1.37l3.025-5.676L76.971,7.01z"/>
			</g>
		</g>
	</g>
</g>
</svg>