<?xml version="1.0" encoding="utf-8"?>

<!DOCTYPE svg PUBLIC "-//W3C//DTD SVG 1.1//EN" "http://www.w3.org/Graphics/SVG/1.1/DTD/svg11.dtd">

<svg version="1.1" xmlns="http://www.w3.org/2000/svg" xmlns:xlink="http://www.w3.org/1999/xlink" 
	 width="800px" height="800px" viewBox="0 0 93.519 73.655" enable-background="new 0 0 93.519 73.655" xml:space="preserve">
<g id="Layer_2">
</g>
<g id="icons">
	<g>
		<g>
			<g>
				<path fill="#1F448C" d="M69.391,30.619H2.672C1.199,30.619,0,29.42,0,27.947V12.043c0-1.473,1.199-2.672,2.672-2.672h66.719
					c1.473,0,2.672,1.199,2.672,2.672v15.904C72.063,29.42,70.864,30.619,69.391,30.619z M2.672,11.661
					c-0.207,0-0.382,0.175-0.382,0.382v15.904c0,0.207,0.175,0.382,0.382,0.382h66.719c0.207,0,0.382-0.175,0.382-0.382V12.043
					c0-0.207-0.175-0.382-0.382-0.382H2.672z"/>
			</g>
			<g>
				<g>
					<path fill="#1F448C" d="M90.652,23.755H79.536v-2.29h11.116c0.313,0,0.577-0.264,0.577-0.576v-3.36
						c0-0.313-0.264-0.577-0.577-0.577H79.536v-2.29h11.116c1.581,0,2.867,1.286,2.867,2.867v3.36
						C93.519,22.469,92.233,23.755,90.652,23.755z"/>
				</g>
				<g>
					<path fill="#1F448C" d="M78.009,27.516h-5.565c-1.473,0-2.672-1.199-2.672-2.672v-11.27c0-1.473,1.199-2.672,2.672-2.672h5.565
						c1.473,0,2.672,1.199,2.672,2.672v11.27C80.681,26.317,79.482,27.516,78.009,27.516z M72.444,13.192
						c-0.207,0-0.382,0.175-0.382,0.382v11.27c0,0.207,0.175,0.382,0.382,0.382h5.565c0.207,0,0.382-0.175,0.382-0.382v-11.27
						c0-0.207-0.175-0.382-0.382-0.382H72.444z"/>
				</g>
				<g>
					<rect x="85.67" y="15.584" fill="#1F448C" width="2.29" height="7.25"/>
				</g>
			</g>
			<g>
				<path fill="#1F448C" d="M22.107,9.908h-2.29V2.867c0-0.313-0.264-0.577-0.577-0.577h-8.866l-3.96,4.321v3.296h-2.29V6.166
					c0-0.286,0.107-0.562,0.301-0.774l4.601-5.021C9.243,0.135,9.549,0,9.87,0h9.37c1.581,0,2.867,1.286,2.867,2.867V9.908z"/>
			</g>
			<g>
				<path fill="#1F448C" d="M66.92,9.908h-2.29V3.63c0-0.313-0.264-0.577-0.577-0.577h-3.702l-3.96,4.321v2.533h-2.29V6.93
					c0-0.286,0.107-0.562,0.301-0.774l4.601-5.021c0.217-0.236,0.523-0.371,0.844-0.371h4.206c1.581,0,2.867,1.286,2.867,2.867
					V9.908z"/>
			</g>
			<g>
				<g>
					<path fill="#1F448C" d="M60.917,38.936H17.634c-0.243,0-0.481-0.078-0.677-0.221l-11.34-8.317l1.355-1.847l11.037,8.095h42.908
						c0.313,0,0.577-0.264,0.577-0.576c0-0.116,0.018-0.232,0.052-0.342l2.066-6.596l2.186,0.684l-2.021,6.449
						C63.676,37.755,62.432,38.936,60.917,38.936z"/>
				</g>
			</g>
			<g>
				<g>
					<path fill="#1F448C" d="M60.126,17.515h-48.19c-0.633,0-1.145-0.513-1.145-1.145s0.513-1.145,1.145-1.145h48.19
						c0.633,0,1.145,0.513,1.145,1.145S60.759,17.515,60.126,17.515z"/>
				</g>
				<g>
					<path fill="#1F448C" d="M60.126,24.765h-48.19c-0.633,0-1.145-0.513-1.145-1.145s0.513-1.145,1.145-1.145h48.19
						c0.633,0,1.145,0.513,1.145,1.145S60.759,24.765,60.126,24.765z"/>
				</g>
			</g>
			<g>
				<path fill="#1F448C" d="M49.394,45.788c-2.995,0-5.432-2.437-5.432-5.432v-1.991c0-0.632,0.513-1.145,1.145-1.145
					s1.145,0.513,1.145,1.145v1.991c0,1.732,1.409,3.142,3.142,3.142c0.633,0,1.145,0.513,1.145,1.145
					C50.539,45.275,50.026,45.788,49.394,45.788z"/>
			</g>
			<g>
				<path fill="#1F448C" d="M56.512,50.269h-11.19c-0.28,0-0.55-0.103-0.76-0.288l-8.906-7.899l1.519-1.713l8.581,7.61h10.756
					c0.313,0,0.577-0.264,0.577-0.576v-8.751h2.29v8.751C59.379,48.983,58.093,50.269,56.512,50.269z"/>
			</g>
			<g>
				<path fill="#1F448C" d="M39.581,66.768H17.473c-0.306,0-0.6-0.123-0.815-0.341c-0.215-0.218-0.334-0.513-0.33-0.819
					l0.284-21.551c0.008-0.627,0.518-1.13,1.145-1.13c2.2,0,3.99-1.79,3.99-3.99h2.29c0,3.077-2.224,5.644-5.149,6.178
					l-0.255,19.363h19.803v-0.824l-2.933-1.955c-0.319-0.212-0.51-0.57-0.51-0.953V38.652h2.29v21.481l2.933,1.955
					c0.319,0.212,0.51,0.57,0.51,0.953v2.582C40.726,66.255,40.214,66.768,39.581,66.768z"/>
			</g>
			<g>
				<path fill="#1F448C" d="M33.611,73.655H21.916c-1.581,0-2.867-1.286-2.867-2.867v-4.304h2.29v4.304
					c0,0.313,0.264,0.577,0.577,0.577h11.695c0.313,0,0.577-0.264,0.577-0.577v-4.304h2.29v4.304
					C36.478,72.369,35.192,73.655,33.611,73.655z"/>
			</g>
		</g>
	</g>
</g>
</svg>