<svg xmlns="http://www.w3.org/2000/svg"  viewBox="0 0 80 80" width="80px" height="80px"><path d="M 14 11 C 11.803 11 10 12.803 10 15 L 10 67 C 10 69.197 11.803 71 14 71 L 66 71 C 68.197 71 70 69.197 70 67 L 70 15 C 70 12.803 68.197 11 66 11 L 14 11 z M 14 13 L 66 13 C 67.117 13 68 13.883 68 15 L 68 67 C 68 68.117 67.117 69 66 69 L 14 69 C 12.883 69 12 68.117 12 67 L 12 15 C 12 13.883 12.883 13 14 13 z M 24.351562 19.419922 C 23.618277 19.419922 22.833681 19.904962 22.568359 20.710938 C 22.058354 22.262726 20.842179 23.478206 19.291016 23.988281 C 18.48504 24.253602 18 25.040151 18 25.773438 C 18 26.506723 18.48504 27.291319 19.291016 27.556641 C 20.842805 28.066646 22.058284 29.282821 22.568359 30.833984 C 22.833681 31.63996 23.618277 32.125 24.351562 32.125 C 25.08485 32.125 25.869444 31.63996 26.134766 30.833984 C 26.644771 29.282195 27.860946 28.066716 29.412109 27.556641 C 30.218085 27.291319 30.703125 26.506723 30.703125 25.773438 C 30.703125 25.04015 30.218085 24.253602 29.412109 23.988281 C 27.86032 23.478276 26.644841 22.2621 26.134766 20.710938 C 25.869444 19.904961 25.084849 19.419922 24.351562 19.419922 z M 50.472656 21.066406 C 49.670071 21.066406 48.81499 21.591897 48.523438 22.478516 L 47.041016 26.988281 C 46.408911 28.909672 44.903813 30.41477 42.982422 31.046875 L 38.470703 32.529297 C 37.584847 32.821116 37.060547 33.677969 37.060547 34.480469 C 37.060547 35.282969 37.584847 36.137867 38.470703 36.429688 L 42.982422 37.912109 C 44.903813 38.544214 46.408911 40.049312 47.041016 41.970703 L 48.523438 46.482422 C 48.815256 47.368278 49.670156 47.892578 50.472656 47.892578 C 51.275637 47.892578 52.132509 47.36729 52.423828 46.480469 L 53.90625 41.970703 C 54.538355 40.049312 56.043453 38.544214 57.964844 37.912109 L 62.474609 36.429688 C 63.361431 36.138368 63.886719 35.28345 63.886719 34.480469 C 63.886719 33.677488 63.361431 32.820616 62.474609 32.529297 L 57.964844 31.046875 C 56.043453 30.41477 54.538355 28.909672 53.90625 26.988281 L 52.423828 22.478516 C 52.132274 21.591897 51.275241 21.066406 50.472656 21.066406 z M 24.351562 21.527344 C 25.073359 23.505331 26.618182 25.052239 28.597656 25.773438 C 26.619239 26.494855 25.073114 28.03999 24.351562 30.019531 C 23.630145 28.041114 22.08501 26.494988 20.105469 25.773438 C 22.083819 25.052371 23.629634 23.506454 24.351562 21.527344 z M 50.443359 23.054688 C 50.447583 23.05557 50.453446 23.066406 50.472656 23.066406 C 50.511076 23.066406 50.497987 23.024172 50.523438 23.101562 L 52.007812 27.613281 C 52.837708 30.13589 54.817235 32.115417 57.339844 32.945312 L 61.851562 34.429688 C 61.929743 34.455368 61.886719 34.442449 61.886719 34.480469 C 61.886719 34.518489 61.929742 34.503617 61.851562 34.529297 L 57.339844 36.013672 C 54.817235 36.843567 52.837708 38.823094 52.007812 41.345703 L 50.523438 45.857422 C 50.497757 45.935602 50.510676 45.892578 50.472656 45.892578 C 50.434636 45.892578 50.449508 45.935602 50.423828 45.857422 L 48.939453 41.345703 C 48.109558 38.823094 46.130031 36.843567 43.607422 36.013672 L 39.095703 34.529297 C 39.017523 34.503617 39.060547 34.518489 39.060547 34.480469 C 39.060547 34.442449 39.017523 34.455367 39.095703 34.429688 L 43.607422 32.945312 C 46.130031 32.115417 48.109558 30.13589 48.939453 27.613281 L 50.423828 23.101562 C 50.436553 23.062872 50.439136 23.053805 50.443359 23.054688 z M 30.041016 41.9375 C 29.243225 41.9375 28.391761 42.459086 28.101562 43.339844 L 27.921875 43.886719 C 27.297811 45.783078 25.812375 47.268514 23.916016 47.892578 L 23.369141 48.072266 C 22.488182 48.362225 21.966797 49.211574 21.966797 50.009766 C 21.966797 50.807957 22.488182 51.65926 23.369141 51.949219 L 23.916016 52.128906 C 25.812375 52.75297 27.297811 54.238406 27.921875 56.134766 L 28.101562 56.681641 L 28.101562 56.683594 C 28.391523 57.564552 29.242824 58.085936 30.041016 58.085938 C 30.839207 58.085938 31.688557 57.564552 31.978516 56.683594 L 31.978516 56.681641 L 32.158203 56.134766 C 32.782267 54.238406 34.267703 52.75297 36.164062 52.128906 L 36.710938 51.949219 C 37.591895 51.65926 38.115234 50.807957 38.115234 50.009766 C 38.115234 49.211574 37.591895 48.362225 36.710938 48.072266 L 36.164062 47.892578 C 34.267704 47.268514 32.782267 45.783078 32.158203 43.886719 L 31.978516 43.339844 C 31.688318 42.459086 30.838806 41.9375 30.041016 41.9375 z M 30.017578 43.923828 C 30.020161 43.926023 30.024186 43.9375 30.041016 43.9375 C 30.074726 43.9375 30.056278 43.892604 30.080078 43.964844 L 30.259766 44.511719 C 31.081702 47.009359 33.041423 48.969079 35.539062 49.791016 L 36.085938 49.972656 C 36.158977 49.996696 36.115234 49.976456 36.115234 50.009766 C 36.115234 50.043076 36.158987 50.024788 36.085938 50.048828 L 35.539062 50.228516 C 33.041423 51.050452 31.081702 53.012125 30.259766 55.509766 L 30.078125 56.058594 C 30.059675 56.115554 30.072426 56.085937 30.041016 56.085938 C 30.007706 56.085938 30.025993 56.129681 30.001953 56.056641 L 29.822266 55.509766 C 29.000329 53.012125 27.038656 51.050452 24.541016 50.228516 L 23.994141 50.048828 C 23.921101 50.024788 23.966797 50.043026 23.966797 50.009766 C 23.966797 49.976456 23.921101 49.996696 23.994141 49.972656 L 24.541016 49.791016 C 27.038656 48.969079 29.000329 47.009359 29.822266 44.511719 L 30.001953 43.964844 C 30.013853 43.928724 30.014996 43.921633 30.017578 43.923828 z M 18 62 C 17.448 62 17 62.448 17 63 C 17 63.552 17.448 64 18 64 C 18.552 64 19 63.552 19 63 C 19 62.448 18.552 62 18 62 z M 22 62 C 21.448 62 21 62.448 21 63 C 21 63.552 21.448 64 22 64 C 22.552 64 23 63.552 23 63 C 23 62.448 22.552 62 22 62 z M 26 62 C 25.448 62 25 62.448 25 63 C 25 63.552 25.448 64 26 64 C 26.552 64 27 63.552 27 63 C 27 62.448 26.552 62 26 62 z M 30 62 C 29.448 62 29 62.448 29 63 C 29 63.552 29.448 64 30 64 C 30.552 64 31 63.552 31 63 C 31 62.448 30.552 62 30 62 z M 34 62 C 33.448 62 33 62.448 33 63 C 33 63.552 33.448 64 34 64 C 34.552 64 35 63.552 35 63 C 35 62.448 34.552 62 34 62 z M 38 62 C 37.448 62 37 62.448 37 63 C 37 63.552 37.448 64 38 64 C 38.552 64 39 63.552 39 63 C 39 62.448 38.552 62 38 62 z M 42 62 C 41.448 62 41 62.448 41 63 C 41 63.552 41.448 64 42 64 C 42.552 64 43 63.552 43 63 C 43 62.448 42.552 62 42 62 z M 46 62 C 45.448 62 45 62.448 45 63 C 45 63.552 45.448 64 46 64 C 46.552 64 47 63.552 47 63 C 47 62.448 46.552 62 46 62 z M 50 62 C 49.448 62 49 62.448 49 63 C 49 63.552 49.448 64 50 64 C 50.552 64 51 63.552 51 63 C 51 62.448 50.552 62 50 62 z M 54 62 C 53.448 62 53 62.448 53 63 C 53 63.552 53.448 64 54 64 C 54.552 64 55 63.552 55 63 C 55 62.448 54.552 62 54 62 z M 58 62 C 57.448 62 57 62.448 57 63 C 57 63.552 57.448 64 58 64 C 58.552 64 59 63.552 59 63 C 59 62.448 58.552 62 58 62 z M 62 62 C 61.448 62 61 62.448 61 63 C 61 63.552 61.448 64 62 64 C 62.552 64 63 63.552 63 63 C 63 62.448 62.552 62 62 62 z"/></svg>