<?xml version="1.0" encoding="iso-8859-1"?>
<!-- Uploaded to: SVG Repo, www.svgrepo.com, Generator: SVG Repo Mixer Tools -->
<svg fill="#000000" version="1.1" id="Layer_1" xmlns="http://www.w3.org/2000/svg" xmlns:xlink="http://www.w3.org/1999/xlink" 
	 viewBox="0 0 496 496" xml:space="preserve">
<g>
	<g>
		<g>
			<path d="M472,32h-72V0H100.688L0,100.688V496h400V192h72c13.232,0,24-10.768,24-24V56C496,42.768,485.232,32,472,32z M96,27.312
				V96H27.312L96,27.312z M384,480H16V112h96V16h272v16H184c-13.232,0-24,10.768-24,24v112c0,13.232,10.768,24,24,24h200V480z
				 M480,168c0,4.408-3.592,8-8,8H184c-4.408,0-8-3.592-8-8V56c0-4.408,3.592-8,8-8h288c4.408,0,8,3.592,8,8V168z"/>
			<path d="M32,464h40h256h40V208H32V464z M312,448h-32v-24h-16v24H136v-24h-16v24H88v-15.344C88,401.416,113.416,376,144.656,376
				h8.072c3.824,22.664,23.536,40,47.28,40c23.744,0,43.448-17.336,47.28-40h8.072c31.224,0,56.64,25.416,56.64,56.656V448z
				 M200,360c-30.88,0-56-25.12-56-56s25.12-56,56-56s56,25.12,56,56S230.88,360,200,360z M230.864,376
				c-3.576,13.76-16,24-30.864,24s-27.288-10.24-30.864-24H230.864z M48,224h304v224h-24v-15.344
				C328,392.592,295.408,360,255.344,360h-10.192C261.504,346.792,272,326.608,272,304c0-39.696-32.304-72-72-72s-72,32.304-72,72
				c0,22.608,10.496,42.792,26.848,56h-10.192C104.592,360,72,392.592,72,432.656V448H48V224z"/>
			<rect x="32" y="128" width="16" height="16"/>
			<rect x="64" y="128" width="16" height="16"/>
			<rect x="32" y="160" width="16" height="16"/>
			<path d="M244,64h-52v96h52c15.44,0,28-12.56,28-28c0-7.832-3.224-14.912-8.424-20c5.2-5.088,8.424-12.168,8.424-20
				C272,76.56,259.44,64,244,64z M244,144h-36v-24h36c6.616,0,12,5.384,12,12C256,138.616,250.616,144,244,144z M244,104h-36V80h36
				c6.616,0,12,5.384,12,12C256,98.616,250.616,104,244,104z"/>
			<polygon points="328,90.664 308,64 288,64 288,160 304,160 304,85.336 328,117.336 352,85.336 352,160 368,160 368,64 348,64 			
				"/>
			<path d="M436,64h-52v48v8v40h16v-40h36c15.44,0,28-12.56,28-28S451.44,64,436,64z M436,104h-36V80h36c6.616,0,12,5.384,12,12
				C448,98.616,442.616,104,436,104z"/>
		</g>
	</g>
</g>
</svg>