<svg id="Layer_1" data-name="Layer 1" xmlns="http://www.w3.org/2000/svg" viewBox="0 0 115.28 122.88"><defs><style>.cls-1{fill-rule:evenodd;}</style></defs><title>webp-file</title><path class="cls-1" d="M21,57H90.25V37.34H69.59A10.85,10.85,0,0,1,63,34.74a9.41,9.41,0,0,1-2.3-6.17V7.64H8.15a.59.59,0,0,0-.42.18.45.45,0,0,0-.18.42V114.69a.67.67,0,0,0,.18.41.51.51,0,0,0,.42.19h81.5c.19,0,.18-.1.27-.19s.33-.27.33-.41V103.53H21A7.58,7.58,0,0,1,13.47,96V64.55A7.58,7.58,0,0,1,21,57ZM44.63,70.07H51.5L48.28,90.6H39.7l-1.51-7.55H37.8L36.32,90.6H27.74L24.52,70.07h6.87l1.54,11.46h.2L35.5,70.07h5l2.34,11.46h.19l1.58-11.46ZM66.28,82.85H59.71v2.5h8.05V90.6H53.14V70.07H67.59l-.82,5.26H59.71v2.76h6.57v4.76Zm4.27,7.75V70.07H81.19c2,0,3.38.38,4.23,1.15a4.31,4.31,0,0,1,1.26,3.35,6.13,6.13,0,0,1-.8,3.4,3.68,3.68,0,0,1-2.16,1.56v.2c2.65.46,4,2.26,4,5.42a5.82,5.82,0,0,1-1.31,4,5.14,5.14,0,0,1-4,1.49Zm9.13-8.45h-3.1V86h3.07c.92,0,1.38-.83,1.38-1.94s-.45-1.95-1.35-1.95Zm-.49-7.85H76.58v3.6h2.58c.83,0,1.25-.78,1.25-1.8s-.41-1.8-1.22-1.8Zm21.65,11.34H96.57v5H90V70.07h10.35q7.07,0,7.06,7.59,0,4.17-1.84,6.17a5.38,5.38,0,0,1-1.9,1.29,7.11,7.11,0,0,1-2.83.52ZM96.57,74.78v5.88h1.51a4.57,4.57,0,0,0,1.73-.25c.36-.16.54-.54.54-1.13V76.16c0-.59-.18-1-.54-1.13a4.54,4.54,0,0,0-1.73-.25ZM97.79,57h9.93a7.58,7.58,0,0,1,7.56,7.55V96a7.59,7.59,0,0,1-7.56,7.56H97.79v13.54A5.82,5.82,0,0,1,92,122.88H5.81A5.8,5.8,0,0,1,0,117.07V5.85a5.74,5.74,0,0,1,1.7-4.1A5.83,5.83,0,0,1,5.81.05H64.52a1.21,1.21,0,0,1,.42,0,2.72,2.72,0,0,1,1.75.69h.09A.77.77,0,0,1,67,.88L97,31.24a2.86,2.86,0,0,1,.87,2,2.91,2.91,0,0,1-.09.65V57ZM67.52,28v-19l21.42,21.7H70.19a2.81,2.81,0,0,1-1.89-.78A2.72,2.72,0,0,1,67.52,28Z"/></svg>