<?xml version="1.0" encoding="utf-8"?>
<svg width="800px" height="800px" viewBox="0 0 512 512" xmlns="http://www.w3.org/2000/svg">
  <path fill="var(--ci-primary-color, #000000)" d="M472,96H384V40H352V96H160V40H128V96H40a24.028,24.028,0,0,0-24,24V456a24.028,24.028,0,0,0,24,24H472a24.028,24.028,0,0,0,24-24V120A24.028,24.028,0,0,0,472,96Zm-8,352H48V128h80v40h32V128H352v40h32V128h80Z" class="ci-primary"/>
  <polygon fill="var(--ci-primary-color, #000000)" points="243.397 313.373 189.012 258.988 166.385 281.616 243.397 358.627 369.012 233.012 346.384 210.385 243.397 313.373" class="ci-primary"/>
</svg>