<?xml version="1.0" encoding="utf-8"?>
<svg width="800px" height="800px" viewBox="0 0 512 512" xmlns="http://www.w3.org/2000/svg">
  <path fill="var(--ci-primary-color, #000000)" d="M456,40H56A16,16,0,0,0,40,56V456a16,16,0,0,0,16,16H456a16,16,0,0,0,16-16V56A16,16,0,0,0,456,40ZM72,72H417.373L72,417.373ZM440,440H94.627L440,94.627Z" class="ci-primary"/>
  <polygon fill="var(--ci-primary-color, #000000)" points="336 368 336 408 368 408 368 368 408 368 408 336 368 336 368 296 336 296 336 336 296 336 296 368 336 368" class="ci-primary"/>
  <rect width="112" height="32" x="112" y="136" fill="var(--ci-primary-color, #000000)" class="ci-primary"/>
</svg>