<?xml version="1.0" ?>


<svg width="800px" height="800px" viewBox="0 0 20 20" xmlns="http://www.w3.org/2000/svg">

<g id="layer1">

<path d="M 0 2 L 0 18 L 20 18 L 20 17 L 1 17 L 1 2 L 0 2 z M 6.4921875 2.5 C 6.3623006 2.50207 6.2383174 2.554606 6.1464844 2.6464844 L 2.1464844 6.6464844 C 1.6556578 7.1177388 2.3822612 7.8443422 2.8535156 7.3535156 L 6.421875 3.7851562 L 10.083984 9.2773438 C 10.223774 9.4866441 10.49734 9.5594276 10.722656 9.4472656 L 14.400391 7.6074219 L 18.146484 11.353516 C 18.617739 11.844289 19.344289 11.117739 18.853516 10.646484 L 14.853516 6.6464844 C 14.701521 6.4947425 14.469605 6.457007 14.277344 6.5527344 L 10.671875 8.3554688 L 6.9160156 2.7226562 C 6.8217568 2.5812359 6.6621214 2.497372 6.4921875 2.5 z M 6.4824219 10.5 A 0.50083746 0.50083746 0 0 0 6.1464844 10.646484 L 2.1464844 14.646484 A 0.50083746 0.50083746 0 1 0 2.8535156 15.353516 L 6.5996094 11.609375 L 10.275391 13.447266 A 0.50083746 0.50083746 0 0 0 10.621094 13.486328 L 14.441406 12.53125 L 18.275391 14.447266 A 0.50083746 0.50083746 0 1 0 18.724609 13.552734 L 14.724609 11.552734 A 0.50083746 0.50083746 0 0 0 14.378906 11.513672 L 10.558594 12.46875 L 6.7246094 10.552734 A 0.50083746 0.50083746 0 0 0 6.4824219 10.5 z " style="fill:#222222;fill-opacity:1;stroke:none;stroke-width:0px;"/>

</g>

</svg>