<?xml version="1.0" ?>


<svg width="800px" height="800px" viewBox="0 0 20 20" xmlns="http://www.w3.org/2000/svg">

<g id="layer1">

<path d="M 0 2 L 0 18 L 20 18 L 20 17 L 1 17 L 1 2 L 0 2 z M 6.4921875 4.5 A 0.50005 0.50005 0 0 0 6.1464844 4.6464844 L 2.1464844 8.6464844 A 0.50005 0.50005 0 1 0 2.8535156 9.3535156 L 6.421875 5.7851562 L 10.083984 11.277344 A 0.50005 0.50005 0 0 0 10.722656 11.447266 L 14.400391 9.6074219 L 18.146484 13.353516 A 0.50005 0.50005 0 1 0 18.853516 12.646484 L 14.853516 8.6464844 A 0.50005 0.50005 0 0 0 14.277344 8.5527344 L 10.671875 10.355469 L 6.9160156 4.7226562 A 0.50005 0.50005 0 0 0 6.4921875 4.5 z " style="fill:#222222;fill-opacity:1;stroke:none;stroke-width:0px;"/>

</g>

</svg>