<?xml version="1.0" ?>


<svg width="800px" height="800px" viewBox="0 0 20 20" xmlns="http://www.w3.org/2000/svg">

<g id="layer1">

<path d="M 9.4921875 0.9921875 C 9.2162291 0.99692694 8.9961155 1.2240282 9 1.5 L 9 2.6367188 A 1 1 0 0 1 9.0878906 2.5898438 A 1 1 0 0 1 9.3769531 2.5097656 A 1 1 0 0 1 9.4355469 2.5039062 A 1.0001 1.0001 0 0 1 9.453125 2.5019531 A 1 1 0 0 1 9.4667969 2.5019531 A 1 1 0 0 1 9.5 2.5 A 1 1 0 0 1 9.5527344 2.5019531 A 1 1 0 0 1 9.75 2.5332031 A 1 1 0 0 1 9.9375 2.6035156 A 1 1 0 0 1 10 2.6347656 L 10 1.5 C 10.003957 1.2179203 9.7742672 0.98823091 9.4921875 0.9921875 z M 9.5 3 A 0.5 0.5 0 0 0 9 3.5 A 0.5 0.5 0 0 0 9.5 4 A 0.5 0.5 0 0 0 10 3.5 A 0.5 0.5 0 0 0 9.5 3 z M 8.5058594 3.6035156 L 3.2480469 7.4238281 A 1 1 0 0 1 3.8378906 8.2324219 L 9.0957031 4.4121094 A 1 1 0 0 1 8.5058594 3.6035156 z M 10.445312 3.8222656 A 1 1 0 0 1 9.6914062 4.4824219 L 13.310547 8.6328125 A 1 1 0 0 1 14.0625 7.9746094 L 10.445312 3.8222656 z M 9.3476562 4.8476562 L 9 5.0996094 L 9 9.8105469 L 4.5175781 8.3554688 L 4.1699219 8.6074219 L 4.6816406 9.4609375 L 8.6894531 10.763672 L 6.9199219 13.197266 L 7.1699219 13.613281 L 7.7988281 13.691406 L 9.5 11.351562 L 11.541016 14.160156 L 12.220703 14.246094 L 12.349609 13.570312 L 10.310547 10.763672 L 13.060547 9.8691406 L 13.0625 9.8691406 L 13.181641 9.2441406 L 12.865234 8.8808594 L 10 9.8105469 L 10 5.5957031 L 9.3476562 4.8476562 z M 0.94726562 7.2167969 C 0.36984559 7.2059916 0.23510083 8.0193305 0.78515625 8.1953125 L 1.8652344 8.546875 A 1.0001 1.0001 0 0 1 1.8632812 8.5371094 A 1 1 0 0 1 1.8632812 8.5292969 A 1.0001 1.0001 0 0 1 1.8496094 8.4355469 A 1.0001 1.0001 0 0 1 1.8457031 8.265625 A 1.0001 1.0001 0 0 1 1.8574219 8.1660156 A 1.0001 1.0001 0 0 1 2.0019531 7.7949219 A 1.0001 1.0001 0 0 1 2.0605469 7.7148438 A 1.0001 1.0001 0 0 1 2.1269531 7.6386719 A 1.0001 1.0001 0 0 1 2.1738281 7.5917969 L 1.0957031 7.2421875 C 1.047785 7.2262968 0.99774118 7.2177366 0.94726562 7.2167969 z M 18.072266 7.2167969 C 18.015236 7.2156369 17.958434 7.2242265 17.904297 7.2421875 L 14.945312 8.203125 L 15.060547 8.3613281 A 1 1 0 0 1 15.064453 8.3671875 A 1 1 0 0 1 15.105469 8.4296875 A 1.0001 1.0001 0 0 1 15.115234 8.4453125 A 1 1 0 0 1 15.132812 8.4765625 A 1.0001 1.0001 0 0 1 15.162109 8.5332031 A 1 1 0 0 1 15.166016 8.5429688 A 1 1 0 0 1 15.193359 8.6113281 A 1.0001 1.0001 0 0 1 15.199219 8.625 A 1 1 0 0 1 15.210938 8.6601562 A 1.0001 1.0001 0 0 1 15.230469 8.7324219 A 1 1 0 0 1 15.230469 8.7363281 A 1 1 0 0 1 15.242188 8.7949219 A 1.0001 1.0001 0 0 1 15.25 8.8554688 A 1.0001 1.0001 0 0 1 15.255859 8.9492188 A 1 1 0 0 1 15.255859 8.9550781 A 1.0001 1.0001 0 0 1 15.253906 9.0117188 A 1 1 0 0 1 15.253906 9.0253906 A 1.0001 1.0001 0 0 1 15.253906 9.03125 A 1 1 0 0 1 15.25 9.0625 A 1 1 0 0 1 15.240234 9.1289062 A 1.0001 1.0001 0 0 1 15.238281 9.1425781 L 15.234375 9.1640625 L 18.214844 8.1953125 C 18.754217 8.0228014 18.638445 7.2282188 18.072266 7.2167969 z M 2.84375 7.8359375 A 0.5 0.50000008 0 0 0 2.34375 8.3359375 A 0.5 0.50000008 0 0 0 2.84375 8.8359375 A 0.5 0.50000008 0 0 0 3.34375 8.3359375 A 0.5 0.50000008 0 0 0 2.84375 7.8359375 z M 14.255859 8.4550781 A 0.5 0.50000005 0 0 0 13.755859 8.9550781 A 0.5 0.50000005 0 0 0 14.255859 9.4550781 A 0.5 0.50000005 0 0 0 14.755859 8.9550781 A 0.5 0.50000005 0 0 0 14.255859 8.4550781 z M 3.7148438 8.8222656 A 1 1 0 0 1 2.8574219 9.3359375 L 5.6875 14.060547 A 1 1 0 0 1 6.5449219 13.544922 L 3.7148438 8.8222656 z M 13.601562 9.7089844 L 12.697266 14.410156 A 1 1 0 0 1 13.027344 14.353516 A 1 1 0 0 1 13.681641 14.597656 L 14.582031 9.8984375 A 1 1 0 0 1 14.255859 9.9550781 A 1 1 0 0 1 13.601562 9.7089844 z M 6.5605469 14.044922 A 0.5 0.5 0 0 0 6.0605469 14.544922 A 0.5 0.5 0 0 0 6.5605469 15.044922 A 0.5 0.5 0 0 0 7.0605469 14.544922 A 0.5 0.5 0 0 0 6.5605469 14.044922 z M 7.4824219 14.15625 A 1 1 0 0 1 7.5605469 14.544922 A 1 1 0 0 1 7.3574219 15.148438 L 12.105469 15.742188 A 1 1 0 0 1 12.027344 15.353516 A 1 1 0 0 1 12.230469 14.75 L 7.4824219 14.15625 z M 13.027344 14.853516 A 0.5 0.5 0 0 0 12.527344 15.353516 A 0.5 0.5 0 0 0 13.027344 15.853516 A 0.5 0.5 0 0 0 13.527344 15.353516 A 0.5 0.5 0 0 0 13.027344 14.853516 z M 5.6425781 14.957031 L 3.8046875 17.486328 C 3.4113569 18.026708 4.2219038 18.616552 4.6152344 18.076172 L 6.4570312 15.539062 L 6.4375 15.537109 A 1.0001 1.0001 0 0 1 6.4316406 15.535156 A 1 1 0 0 1 6.3476562 15.521484 A 1.0001 1.0001 0 0 1 6.328125 15.515625 A 1 1 0 0 1 6.2636719 15.498047 A 1.0001 1.0001 0 0 1 6.2363281 15.490234 A 1.0001 1.0001 0 0 1 6.2304688 15.488281 A 1 1 0 0 1 6.2285156 15.486328 C 6.2187325 15.482865 6.2088732 15.480325 6.1992188 15.476562 A 1.0001 1.0001 0 0 1 6.1972656 15.476562 A 1 1 0 0 1 6.0292969 15.390625 A 1 1 0 0 1 5.8535156 15.25 C 5.8476341 15.244094 5.841677 15.238482 5.8359375 15.232422 A 1 1 0 0 1 5.7714844 15.15625 A 1 1 0 0 1 5.7167969 15.080078 A 1.0001 1.0001 0 0 1 5.703125 15.058594 L 5.6835938 15.023438 L 5.6425781 14.957031 z M 13.939453 15.757812 A 1 1 0 0 1 13.894531 15.847656 A 1 1 0 0 1 13.779297 16.009766 A 1 1 0 0 1 13.441406 16.261719 A 1 1 0 0 1 13.384766 16.285156 A 1 1 0 0 1 13.289062 16.316406 A 1 1 0 0 1 13.191406 16.337891 A 1 1 0 0 1 13.130859 16.347656 L 14.384766 18.076172 C 14.777995 18.616536 15.588546 18.026692 15.195312 17.486328 L 13.939453 15.757812 z " style="fill:#222222;fill-opacity:1;stroke:none;stroke-width:0px;"/>

</g>

</svg>