<?xml version="1.0" ?>
<svg fill="#000000" width="800px" height="800px" viewBox="0 0 64 64" id="Layer_1_1_" version="1.1" xml:space="preserve" xmlns="http://www.w3.org/2000/svg" xmlns:xlink="http://www.w3.org/1999/xlink"><g/><path d="M2,55c0,5.537,6.541,7,10,7h26c0.552,0,1-0.448,1-1c0-2.226-1.67-4.072-3.886-4.293L29,56.095v-3.077  c0-3.333-2.604-6.144-5.927-6.4l-7.997-0.615l-0.153,1.994l7.997,0.615c2.288,0.176,4.08,2.111,4.08,4.406V57  c0,0.514,0.389,0.944,0.9,0.995l7.015,0.702c0.833,0.083,1.522,0.594,1.86,1.303H12.001C11.921,60,4,59.926,4,55  c0-0.184,0.014-0.35,0.016-0.531C5.717,53.077,12,47.426,12,40c0-0.742-0.063-1.472-0.153-2.196c1.267-1.091,2.62-2.135,4.021-3.208  c1.573-1.205,3.199-2.451,4.791-3.843c0.497-0.435,0.956-0.854,1.38-1.259c1.811-1.729,2.254-4.414,1.135-6.507  C23.266,22.989,23.357,23,23.45,23c0.379,0,0.763-0.027,1.141-0.081l-0.281-1.98C24.025,20.979,23.736,21,23.45,21  c-3.309,0-6-2.691-6-6s2.691-6,6-6c2.123,0,4.046,1.087,5.144,2.909l1.713-1.032c-0.361-0.6-0.791-1.139-1.274-1.612  C29.725,9.094,30.432,9,31.152,9c3.235,0,6.237,1.755,7.818,4.55c0.102,0.196,2.574,4.831,9.423,6.666  c0.862,0.231,1.417,0.57,1.563,0.955c0.167,0.443-0.18,1.039-0.337,1.274c-1.189,1.783-2.836,3.078-6.572,3.82  c-1.109-0.279-2.102-0.729-2.944-1.356c-2.265-1.691-2.742-2.4-2.749-2.4c0,0,0,0,0,0.001l-1.808,0.856  c0.141,0.297,0.75,1.198,3.359,3.146c0.121,0.09,0.253,0.166,0.378,0.251c-0.814,0.067-1.682,0.122-2.634,0.16  c-3.209,0.126-7.135,2.747-8.399,5.607c-1.591,3.601,2.343,6.498,3.824,7.588c1.68,1.236,3.53,2.476,5.823,3.899  c0.242,0.15,0.504,0.328,0.782,0.515c1.452,0.979,3.44,2.319,5.389,1.831l1.261-0.315c0.545-0.137,1.103,0.027,1.386,0.409  c0.252,0.341,0.341,0.739,0.25,1.122c-0.089,0.372-0.335,0.683-0.677,0.853c-2.717,1.36-13.607-3.157-19.834-6.322l-0.906,1.783  c2.462,1.251,13.61,6.75,19.401,6.749c0.887,0,1.648-0.129,2.233-0.421c0.872-0.436,1.501-1.229,1.728-2.177  c0.228-0.953,0.014-1.966-0.588-2.778c-0.77-1.039-2.135-1.494-3.477-1.158l-1.261,0.315c-1.087,0.27-2.583-0.737-3.786-1.549  c-0.3-0.202-0.583-0.393-0.845-0.556c-2.247-1.395-4.056-2.606-5.692-3.81c-2.813-2.071-3.823-3.714-3.18-5.169  c0.961-2.174,4.192-4.321,6.649-4.418c8.323-0.328,12.132-1.732,14.554-5.365c0.704-1.056,0.897-2.153,0.544-3.089  c-0.389-1.033-1.371-1.767-2.916-2.181c-5.956-1.596-8.08-5.494-8.183-5.687c-0.156-0.276-0.341-0.529-0.518-0.788  c0.146-0.607,0.24-1.213,0.24-1.809c0-4.411-3.589-8-8-8c-3.367,0-6.304,2.08-7.465,5.162C24.484,7.066,23.974,7,23.45,7  c-4.411,0-8,3.589-8,8c0,3.433,2.177,6.359,5.22,7.492c0.195,0.434,0.412,0.861,0.663,1.266c0.82,1.328,0.536,3.132-0.675,4.289  c-0.404,0.386-0.842,0.786-1.316,1.201c-1.542,1.349-3.142,2.575-4.689,3.761c-1.093,0.838-2.173,1.67-3.218,2.529  c-0.734-3.097-2.079-6.051-3.409-8.934C7.72,25.944,7.418,25.29,7.127,24.64c-0.913-2.04-1.958-4.724-1.937-7.405  c0.015-1.894,0.561-4.333,2.047-5.5c0.588-0.461,1.128-0.594,1.647-0.406c0.883,0.32,1.74,1.563,2.038,2.955  c0.406,1.898-0.204,3.837-1.555,4.94l1.265,1.55c1.926-1.572,2.808-4.284,2.246-6.908c-0.344-1.609-1.418-3.731-3.313-4.417  c-0.828-0.301-2.119-0.42-3.563,0.713C3.43,12.182,3.2,16.075,3.19,17.219c-0.025,3.067,1.116,6.014,2.112,8.238  c0.294,0.656,0.599,1.317,0.906,1.983c1.434,3.109,2.897,6.301,3.499,9.585C5.345,40.995,2,45.933,2,55z M32.45,4  c3.242,0,5.884,2.586,5.99,5.802C36.454,8.038,33.878,7,31.152,7C29.721,7,28.33,7.292,27,7.839  c-0.036-0.018-0.072-0.035-0.107-0.052C27.786,5.524,29.958,4,32.45,4z M10,40c0,5.083-3.555,9.388-5.803,11.601  c0.632-5.525,2.825-9.1,5.778-12.064C9.98,39.692,10,39.845,10,40z"/><rect height="2" width="2" x="33" y="16"/><path d="M61.917,30.47c-0.493-0.19-1.048,0.037-1.269,0.517c-0.789,1.721-2.796,3.207-5.522,4.272C53.446,32.681,49.537,31,45,31  c-4.529,0-8.432,1.675-10.117,4.244c-0.741-0.292-1.446-0.609-2.081-0.966l-0.98,1.743C35.188,37.915,39.991,39,45,39  c5.754,0,10.955-1.403,14.265-3.66L55.267,48h-5.174v2H56c0.437,0,0.822-0.283,0.954-0.699l5.557-17.597  C62.67,31.2,62.41,30.66,61.917,30.47z M36.869,35.922C38.343,34.184,41.519,33,45,33c3.481,0,6.657,1.184,8.131,2.922  C50.721,36.606,47.932,37,45,37C42.112,37,39.313,36.619,36.869,35.922z"/><rect height="2" width="2" x="53" y="7"/><rect height="2" width="2" x="51" y="9"/><rect height="2" width="2" x="55" y="9"/><rect height="2" width="2" x="53" y="11"/><rect height="2" width="2" x="44" y="54"/><rect height="2" width="2" x="42" y="56"/><rect height="2" width="2" x="46" y="56"/><rect height="2" width="2" x="44" y="58"/><rect height="2" width="2" x="55" y="24"/><rect height="2" width="2" x="53" y="26"/><rect height="2" width="2" x="57" y="26"/><rect height="2" width="2" x="55" y="28"/></svg>