<?xml version="1.0" ?>
<svg fill="#000000" width="800px" height="800px" viewBox="0 0 64 64" id="Layer_1_1_" version="1.1" xml:space="preserve" xmlns="http://www.w3.org/2000/svg" xmlns:xlink="http://www.w3.org/1999/xlink"><g/><path d="M51.876,12.519c-0.138-0.252-0.379-0.432-0.66-0.495L43,10.198V6c0-2.206-1.794-4-4-4H25c-2.206,0-4,1.794-4,4v4.198  l-8.217,1.826c-0.281,0.063-0.521,0.243-0.66,0.495l-10,18.214c-0.132,0.241-0.16,0.525-0.076,0.786  c0.084,0.261,0.271,0.477,0.519,0.596L14,37.628V61c0,0.552,0.448,1,1,1h34c0.552,0,1-0.448,1-1V37.628l11.434-5.513  c0.248-0.119,0.435-0.335,0.519-0.596c0.083-0.261,0.056-0.545-0.076-0.786L51.876,12.519z M23,10.323V7.387l4.992,1.664  c2.314,0.771,2.866,1.979,2.981,4.461L23,10.323z M33.027,13.512c0.115-2.481,0.667-3.689,2.981-4.461L41,7.387v2.936L33.027,13.512  z M25,4h14c0.864,0,1.594,0.553,1.873,1.321l-5.498,1.833C33.677,7.72,32.639,8.557,32,9.602c-0.639-1.044-1.677-1.882-3.375-2.448  l-5.498-1.833C23.406,4.553,24.136,4,25,4z M14,23v12.408l-9.616-4.637l9.275-16.893l8.256-1.835L28,14.477V16h3v5h-3v2h3v5h-3v2h3  v5h-3v2h3v5h-3v2h3v16H16V23H14z M50,35.408V23h-2v37H33V44h3v-2h-3v-5h3v-2h-3v-5h3v-2h-3v-5h3v-2h-3v-5h3v-1.523l6.085-2.434  l8.256,1.835l9.275,16.893L50,35.408z"/></svg>