<?xml version="1.0" encoding="utf-8"?>

<svg width="800px" height="800px" viewBox="0 0 1024 1024" class="icon"  version="1.1" xmlns="http://www.w3.org/2000/svg"><path d="M412.771556 768h184.888888v42.666667h-184.888888z" fill="#CE2927" /><path d="M412.771556 810.666667h184.888888v42.666666h-184.888888z" fill="#FDD821" /><path d="M786.872889 518.798222a71.111111 71.111111 0 1 1-96.995556 104.021334L398.648889 351.232a71.111111 71.111111 0 0 1 96.995555-104.021333l291.228445 271.587555z m-29.084445 31.203556L466.545778 278.428444a28.444444 28.444444 0 0 0-40.305778 40.106667l1.507556 1.493333 291.242666 271.587556a28.444444 28.444444 0 0 0 40.291556-40.106667l-1.493334-1.507555z" fill="#FA1C3D" /><path d="M505.898667 85.333333a42.666667 42.666667 0 0 1 42.666666 42.666667v113.777778h-85.333333V128a42.666667 42.666667 0 0 1 42.666667-42.666667z" fill="#FDD821" /><path d="M505.671111 85.333333h0.455111a42.439111 42.439111 0 0 1 42.439111 42.439111h-85.333333A42.439111 42.439111 0 0 1 505.671111 85.333333z" fill="#CE2927" /><path d="M606.890667 666.894222a71.111111 71.111111 0 1 1-96.995556 104.021334L218.652444 499.328a71.111111 71.111111 0 0 1 96.995556-104.021333l291.242667 271.587555z m-29.098667 31.203556L286.549333 426.524444a28.444444 28.444444 0 0 0-40.305777 40.106667l1.507555 1.507556L538.993778 739.697778a28.444444 28.444444 0 0 0 40.291555-40.106667l-1.493333-1.507555z" fill="#FA1C3D" /><path d="M523.790222 247.210667a71.111111 71.111111 0 1 1 96.995556 104.021333L329.528889 622.819556a71.111111 71.111111 0 0 1-96.995556-104.021334L523.804444 247.210667z m29.098667 31.217777L261.646222 550.001778a28.444444 28.444444 0 0 0 37.191111 43.008l1.607111-1.393778 291.242667-271.587556a28.444444 28.444444 0 0 0-37.191111-42.993777l-1.607111 1.393777zM694.784 395.306667a71.111111 71.111111 0 1 1 96.995556 104.021333L500.536889 770.915556a71.111111 71.111111 0 0 1-96.995556-104.021334l291.242667-271.587555z m29.098667 31.203555L432.64 698.097778a28.444444 28.444444 0 0 0 37.191111 42.993778l1.607111-1.379556 291.242667-271.587556a28.444444 28.444444 0 0 0-37.205333-42.993777l-1.592889 1.379555z" fill="#FA1C3D" /><path d="M78.222222 517.361778c0 114.531556 71.480889 114.531556 175.089778 15.416889l16.113778-15.416889-16.113778-15.416889-6.784-6.4c-98.801778-91.619556-166.769778-90.24-168.277333 18.076444l-0.028445 3.740445z m57.656889-45.098667c12.984889 0.995556 35.157333 13.937778 64.568889 39.224889l6.684444 5.859556-2.986666 2.659555c-32.497778 28.501333-56.604444 42.510222-69.831111 42.510222-7.367111 0-13.013333-10.282667-13.397334-41.6l-0.028444-3.555555c0-34.104889 5.788444-45.155556 13.425778-45.155556l1.564444 0.056889zM938.197333 517.361778c0 114.531556-71.480889 114.531556-175.089777 15.416889l-16.113778-15.416889 16.113778-15.416889c103.608889-99.128889 175.075556-99.128889 175.075555 15.416889z m-57.671111-45.098667c-13.511111 1.038222-37.006222 15.047111-68.266666 42.453333l-2.986667 2.631112 2.986667 2.659555c32.512 28.501333 56.604444 42.510222 69.845333 42.510222 7.637333 0 13.425778-11.064889 13.425778-45.155555l-0.085334-6.968889c-0.753778-28.657778-6.257778-38.186667-13.340444-38.186667l-1.564445 0.056889z" fill="#FA1C3D" /><path d="M445.838222 228.110222h128.526222l-64.284444 53.319111z" fill="#FA1C3D" /><path d="M515.185778 243.057778c31.388444-29.283556 80.711111-27.363556 110.165333 4.224 28.629333 30.705778 27.975111 78.193778-0.924444 107.704889l-2.545778 2.474666-0.753778 0.696889 49.550222 46.208 14.193778-13.226666c29.653333-27.633778 75.292444-27.477333 105.073778-0.753778l2.588444 2.417778 2.503111 2.56a78.364444 78.364444 0 0 1 20.963556 48.384l0.142222 3.811555v1.152l0.213334-0.142222c75.889778-52.508444 126.492444-33.166222 129.294222 55.480889l0.099555 4.010666 0.028445 3.939556c0 96.028444-51.825778 117.560889-130.474667 62.677333l-4.067555-2.901333-0.042667 1.706667a78.208 78.208 0 0 1-16.014222 43.363555l-2.503111 3.114667-2.488889 2.801778c-28.643556 30.705778-76.060444 33.365333-107.52 6.584889l-2.645334-2.360889-9.358222-8.718223-54.656 50.972445 2.133333 2.816c19.953778 27.690667 19.399111 65.806222-1.891555 93.269333l-2.275556 2.801778-2.417777 2.730667c-28.643556 30.705778-76.046222 33.365333-107.52 6.584889l-2.076445-1.863112-2.076444 1.863112c-29.624889 25.230222-73.415111 24.32-102.328889-1.536l-2.673778-2.488889-2.503111-2.56a78.165333 78.165333 0 0 1-8.576-95.886223l1.991111-2.901333 2.119111-2.801778-50.204444-46.833777-4.849778 4.551111c-29.639111 27.648-75.278222 27.477333-105.073778 0.768l-2.588444-2.432-2.503111-2.56a78.364444 78.364444 0 0 1-19.541334-37.816889l-0.682666-3.811556-0.270223-2.048-2.688 1.763556c-70.186667 44.956444-116.963556 25.045333-121.002666-56.860445l-0.156445-3.953777-0.099555-3.982223-0.028445-4.096 0.028445-3.683555c1.137778-81.095111 41.187556-107.704889 104.192-75.093334l3.214222 1.706667 3.086222 1.706667 0.625778-3.470222a78.122667 78.122667 0 0 1 14.122667-31.317334l2.759111-3.441778 2.645333-2.986666c28.643556-30.72 76.046222-33.379556 107.505778-6.599111l2.659555 2.360889 18.631111 17.393777 54.030223-50.375111-0.725334-0.696889c-29.653333-27.633778-32.668444-73.173333-8.106666-104.760889l2.247111-2.744888 2.389333-2.673778c28.629333-30.72 76.046222-33.379556 107.505778-6.599111l2.659555 2.360889 8.746667 8.163555 8.746667-8.163555z m99.754666 13.923555c-23.352889-25.059556-61.923556-27.306667-87.608888-5.688889l-2.446223 2.161778-18.446222 17.194667-18.446222-17.208889c-25.628444-23.893333-65.948444-22.328889-90.069333 3.541333-23.352889 25.045333-22.897778 63.672889 0.426666 87.793778l2.346667 2.289778 11.889778 11.093333-74.88 69.816889-28.344889-26.439111c-25.628444-23.893333-65.948444-22.328889-90.069334 3.527111a64 64 0 0 0-17.180444 40.135111l-0.099556 3.427556-0.042666 12.928-10.894222-6.954667c-62.008889-39.537778-96.369778-23.253333-98.517334 49.991111l-0.085333 3.84-0.028445 3.512889 0.028445 3.953778c1.237333 80.071111 39.637333 95.573333 108.8 46.634667l3.313778-2.389334 11.975111-8.704-0.696889 14.791111a64.042667 64.042667 0 0 0 17.223111 46.833778c23.367111 25.045333 61.937778 27.306667 87.608889 5.688889l2.460444-2.161778 14.563556-13.582222L407.893333 668.444444l-4.977777 5.205334c-23.139556 24.220444-23.296 62.648889-0.142223 87.495111 23.367111 25.045333 61.937778 27.306667 87.608889 5.688889l2.446222-2.161778 9.116445-8.533333 9.144889 8.533333c25.628444 23.893333 65.948444 22.328889 90.055111-3.527111 22.414222-24.035556 22.997333-60.728889 2.090667-85.048889l-2.232889-2.460444-4.977778-5.205334 74.666667-69.617778 19.029333 17.763556c25.628444 23.893333 65.948444 22.328889 90.055111-3.527111a64.014222 64.014222 0 0 0 16.810667-51.669333l-0.526223-3.484445-3.370666-18.602667 14.791111 11.776C887.025778 614.385778 931.555556 601.216 931.555556 512c0-85.020444-40.277333-100.935111-112.967112-47.587556l-6.798222 5.12-15.416889 11.904 4.124445-19.029333a64.071111 64.071111 0 0 0-15.857778-57.344c-23.367111-25.045333-61.937778-27.306667-87.608889-5.688889l-2.460444 2.176-23.893334 22.257778-70.4-65.649778 11.904-11.093333c25.628444-23.893333 26.88-64.227556 2.759111-90.083556zM424.96 691.868444l4.920889 5.063112 3.996444-4.266667 47.232 44.032-7.850666 7.352889-1.792 1.564444a35.470222 35.470222 0 0 1-48.099556-3.640889 35.555556 35.555556 0 0 1-4.622222-42.424889l0.625778-0.981333-0.554667-0.512 6.144-6.186667z m97.891556 44.842667l52.295111-48.782222 5.717333 5.802667c12.515556 13.553778 12.444444 34.616889-0.270222 48.241777a35.470222 35.470222 0 0 1-48.184889 3.555556l-1.92-1.664-7.637333-7.153778z m-92.785778-28.16l-0.284445 0.540445a21.333333 21.333333 0 0 0 3.982223 23.182222c6.627556 7.111111 16.952889 8.746667 25.045333 4.693333l1.066667-0.625778-29.809778-27.790222z m143.843555-0.042667l-29.809777 27.818667 1.351111 0.725333a21.304889 21.304889 0 0 0 23.182222-3.256888l1.564444-1.521778c6.115556-6.542222 7.367111-15.928889 3.882667-23.480889l-0.170667-0.284445z m-124.060444-39.850666l52.124444-48.611556 52.138667 48.597334-52.138667 48.625777-52.124444-48.611555z m52.124444-29.184l-31.288889 29.184 31.274667 29.155555 31.288889-29.169777-31.274667-29.169778z m-143.388444-55.921778l52.124444-48.611556 70.414223 65.649778-52.124445 48.625778-70.414222-65.664zM522.808889 600.604444l74.865778-69.831111 52.138666 48.64-74.88 69.802667-52.124444-48.611556z m-112.128-46.208l-31.288889 29.169778 49.564444 46.208 31.274667-29.169778-49.550222-46.208z m186.993778-4.181333l-54.030223 50.389333 31.288889 29.169778 54.030223-50.389333-31.288889-29.169778z m-342.442667-6.414222l9.457778-8.860445 52.152889 48.64-13.297778 12.387556-1.792 1.564444a35.470222 35.470222 0 0 1-48.113778-3.640888 35.470222 35.470222 0 0 1-0.184889-48.298667l1.777778-1.792z m436.280889 35.584l52.138667-48.597333 14.136888 13.184 1.678223 1.692444c12.515556 13.539556 12.444444 34.602667-0.270223 48.227556a35.470222 35.470222 0 0 1-48.184888 3.555555l-1.905778-1.649778-17.592889-16.412444zM264.732444 554.382222l-1.28 1.351111a21.262222 21.262222 0 0 0 0.611556 28.444445c7.125333 7.651556 18.56 8.96 26.865778 3.655111l1.720889-1.251556 1.408-1.194666 1.948444-1.848889-31.274667-29.155556z m478.933334-4.181333l-31.288889 29.169778 6.442667 6.016a21.191111 21.191111 0 0 0 28.430222 0.312889l1.564444-1.521778a21.276444 21.276444 0 0 0 1.763556-27.050667l-1.365334-1.635555-1.28-1.308445-4.266666-3.982222z m-312.106667-34.702222l74.88-69.831111 70.4 65.649777-74.88 69.831111-70.4-65.664z m-145.976889 0l52.124445-48.64 52.138666 48.64-52.124444 48.611555-52.138667-48.625778zM139.847111 461.056l2.048 0.099556 1.92 0.227555c14.136889 2.090667 34.787556 14.549333 60.501333 36.238222l3.882667 3.328 12.515556 10.979556-8.945778 7.978667-3.754667 3.271111c-30.051556 25.912889-53.504 39.736889-68.451555 39.736889-13.368889 0-19.2-14.592-19.996445-43.847112l-0.071111-3.584-0.014222-3.555555 0.028444-3.626667c0.384-30.293333 5.745778-46.023111 18.488889-47.189333l1.848889-0.056889z m744.590222 0c12.885333 0 18.759111 13.639111 19.882667 40.647111l0.113778 3.441778 0.085333 6.840889c0 34.104889-5.731556 50.929778-20.081778 50.929778-14.933333 0-38.414222-13.824-68.48-39.751112l-3.797333-3.313777-8.860444-7.893334 8.903111-7.879111c29.240889-25.742222 52.622222-40.490667 68.408889-42.737778l2.019555-0.227555 1.806222-0.056889z m-378.012444 4.039111l-54.016 50.375111 49.550222 46.208 54.016-50.375111-49.550222-46.208z m112.128 46.222222l52.124444-48.64 52.138667 48.64-52.138667 48.611556-52.124444-48.625778zM139.52 475.278222l-0.270222 0.056889c-1.92 0.768-4.608 8.462222-5.347556 26.496l-0.184889 6.613333-0.014222 3.498667 0.014222 3.413333c0.312889 24.064 3.697778 33.336889 5.845334 33.336889 9.912889 0 29.880889-11.52 55.736889-33.351111l3.911111-3.356444-0.341334-0.312889c-24.334222-20.992-43.818667-33.322667-55.239111-35.882667l-1.649778-0.312889-1.166222-0.142222-1.294222-0.056889z m744.917333 0l-0.981333 0.028445c-10.012444 0.768-28.216889 11.335111-51.541333 30.634666l-7.139556 6.030223 0.298667 0.284444c26.453333 22.812444 47.160889 35.370667 57.998222 36.380444l1.365333 0.056889c2.133333 0 5.248-8.576 5.774223-29.980444l0.085333-6.641778-0.085333-6.656-0.241778-6.158222c-0.952889-17.28-3.768889-23.978667-5.546667-23.978667z m-546.730666 11.008l-31.288889 29.184 31.288889 29.169778 31.288889-29.184-31.288889-29.169778z m332.970666-4.167111l-31.274666 29.184 31.274666 29.169778 31.288889-29.169778-31.288889-29.184z m-312.120889-34.702222l74.88-69.831111 52.138667 48.64-74.88 69.802666-52.138667-48.625777z m-70.499555-26.737778l1.905778 1.649778 26.894222 25.073778-52.138667 48.625777-23.452444-21.873777-1.664-1.678223a35.470222 35.470222 0 0 1 0.256-48.241777 35.498667 35.498667 0 0 1 46.208-5.063111l1.991111 1.507555z m476.017778 3.555556c12.8 13.724444 12.714667 34.844444 0.184889 48.312889l-1.792 1.792-18.801778 17.521777-52.124445-48.625777 22.627556-21.077334 1.806222-1.564444a35.470222 35.470222 0 0 1 48.099556 3.640889z m-236.8 1.991111l52.152889-48.64 70.4 65.649778-52.138667 48.625777-70.4-65.649777z m-93.838223-29.198222l-54.030222 50.375111 31.288889 29.184 54.030222-50.389334-31.288889-29.169777z m-183.182222 36.906666a21.276444 21.276444 0 0 0-1.749333 27.050667l1.351111 1.635555 1.308444 1.322667 13.553778 12.629333 31.274667-29.169777-15.729778-14.677334a21.219556 21.219556 0 0 0-30.008889 1.208889z m476.387556-3.512889l-1.777778 1.28-1.194667 1.038223-11.278222 10.496 31.274667 29.169777 9.102222-8.462222a21.191111 21.191111 0 0 0 2.304-28.344889l-1.408-1.664a21.319111 21.319111 0 0 0-25.301333-4.508444l-1.720889 0.995555zM579.413333 397.041778l-31.288889 29.169778 49.550223 46.208 31.288889-29.169778-49.550223-46.208z m-125.112889-38.883556l52.138667-48.611555 52.124445 48.611555-52.124445 48.625778-52.138667-48.625778z m52.124445-29.184l-31.288889 29.184 31.288889 29.169778 31.274667-29.169778-31.274667-29.184z m-39.736889-56.376889l1.905778 1.649778 16.981333 15.843556-52.138667 48.64-13.539555-12.657778-1.664-1.678222a35.470222 35.470222 0 0 1 0.256-48.241778 35.470222 35.470222 0 0 1 48.199111-3.555556z m127.687111 3.555556c12.8 13.724444 12.728889 34.844444 0.199111 48.312889l-1.792 1.792-13.354666 12.458666-52.138667-48.625777 17.194667-16.014223 1.792-1.550222a35.470222 35.470222 0 0 1 48.099555 3.626667z m-165.475555 9.699555a21.276444 21.276444 0 0 0-1.763556 27.050667l1.351111 1.649778 1.308445 1.308444 3.640888 3.399111 31.288889-29.169777-5.831111-5.432889a21.219556 21.219556 0 0 0-30.008889 1.194666z m126.293333-2.232888l-1.208889 1.038222-5.845333 5.432889 31.274666 29.169777 3.669334-3.413333a21.191111 21.191111 0 0 0 2.304-28.316444l-1.408-1.678223a21.248 21.248 0 0 0-28.8-2.232888z" fill="#B2181A" /><path d="M426.666667 853.333333h28.444444v85.333334h-28.444444zM469.660444 853.333333h28.444445v85.333334h-28.444445zM512.327111 853.333333h28.444445v85.333334h-28.444445zM554.666667 853.333333h28.444444v85.333334h-28.444444z" fill="#FA1C3D" /></svg>