<?xml version="1.0" encoding="utf-8"?>

<svg width="800px" height="800px" viewBox="0 0 1024 1024" class="icon"  version="1.1" xmlns="http://www.w3.org/2000/svg"><path d="M512 550.656m-341.333333 0a341.333333 341.333333 0 1 0 682.666666 0 341.333333 341.333333 0 1 0-682.666666 0Z" fill="#FB3635" /><path d="M512 209.322667c188.515556 0 341.333333 152.817778 341.333333 341.333333 0 188.501333-152.817778 341.333333-341.333333 341.333333s-341.333333-152.832-341.333333-341.333333c0-188.515556 152.817778-341.333333 341.333333-341.333333z m0 14.222222c-180.664889 0-327.111111 146.446222-327.111111 327.111111 0 180.650667 146.446222 327.111111 327.111111 327.111111s327.111111-146.460444 327.111111-327.111111c0-180.664889-146.446222-327.111111-327.111111-327.111111z" fill="#B2181A" /><path d="M199.111111 387.100444a312.888889 192 0 1 0 625.777778 0 312.888889 192 0 1 0-625.777778 0Z" fill="#FDD821" /><path d="M512 195.100444c172.8 0 312.888889 85.959111 312.888889 192 0 106.026667-140.088889 192-312.888889 192s-312.888889-85.973333-312.888889-192c0-106.040889 140.088889-192 312.888889-192z m0 14.222223c-165.959111 0-298.666667 81.422222-298.666667 177.777777 0 96.341333 132.707556 177.777778 298.666667 177.777778s298.666667-81.436444 298.666667-177.777778c0-96.355556-132.707556-177.777778-298.666667-177.777777z" fill="#B2181A" /><path d="M213.333333 365.767111a298.666667 170.666667 0 1 0 597.333334 0 298.666667 170.666667 0 1 0-597.333334 0Z" fill="#FADB9A" /><path d="M512 195.100444c164.949333 0 298.666667 76.401778 298.666667 170.666667 0 94.250667-133.717333 170.666667-298.666667 170.666667s-298.666667-76.416-298.666667-170.666667c0-94.264889 133.717333-170.666667 298.666667-170.666667z m0 14.222223c-158.136889 0-284.444444 72.163556-284.444444 156.444444 0 84.266667 126.307556 156.444444 284.444444 156.444445s284.444444-72.177778 284.444444-156.444445c0-84.280889-126.307556-156.444444-284.444444-156.444444z" fill="#B2181A" /><path d="M512 721.322667m-113.777778 0a113.777778 113.777778 0 1 0 227.555556 0 113.777778 113.777778 0 1 0-227.555556 0Z" fill="#FDD821" /><path d="M512 607.544889a113.777778 113.777778 0 1 1 0 227.555555 113.777778 113.777778 0 0 1 0-227.555555z m0 14.222222a99.555556 99.555556 0 1 0 0 199.111111 99.555556 99.555556 0 0 0 0-199.111111z" fill="#B2181A" /><path d="M210.239795 172.399018m10.05663-10.05663l10.056629-10.05663q10.05663-10.05663 20.11326 0l140.792817 140.792817q10.05663 10.05663 0 20.113259l-10.05663 10.05663q-10.05663 10.05663-20.113259 0l-140.792817-140.792817q-10.05663-10.05663 0-20.113259Z" fill="#FDD821" /><path d="M230.357333 152.277333a14.222222 14.222222 0 0 1 20.110223 0l140.8 140.8a14.222222 14.222222 0 0 1 0 20.110223l-10.069334 10.055111a14.222222 14.222222 0 0 1-20.110222 0l-140.8-140.8a14.222222 14.222222 0 0 1 0-20.110223l10.069333-10.055111z m10.055111 10.055111l-10.055111 10.055112 140.8 140.8 10.040889-10.055112-140.8-140.8z" fill="#B2181A" /><path d="M823.652859 189.978479m-8.157532-11.650162l-8.157531-11.650163q-8.157532-11.650162-19.807694-3.49263l-163.102274 114.205441q-11.650162 8.157532-3.492631 19.807694l8.157532 11.650163q8.157532 11.650162 19.807694 3.49263l163.102273-114.205441q11.650162-8.157532 3.492631-19.807694Z" fill="#FDD821" /><path d="M807.338667 166.684444a14.222222 14.222222 0 0 0-19.797334-3.498666l-163.100444 114.204444a14.222222 14.222222 0 0 0-3.498667 19.811556l8.163556 11.648a14.222222 14.222222 0 0 0 19.797333 3.484444l163.100445-114.204444a14.222222 14.222222 0 0 0 3.498666-19.811556l-8.163555-11.648z m-11.648 8.149334l8.163555 11.662222-163.100444 114.204444-8.163556-11.662222 163.100445-114.204444z" fill="#B2181A" /><path d="M370.019556 337.834667l-32.241778 11.377777 38.826666 12.814223c13.070222 44.273778 34.958222 60.586667 65.678223 48.924444 46.08-17.493333 35.427556-60.16 26.851555-73.102222-5.731556-8.647111-18.190222-18.417778-37.404444-29.312l-6.769778-35.768889-23.637333 30.364444-35.185778-5.546666 3.882667 40.248889z" fill="#FB3635" /><path d="M438.115556 304.014222l-9.102223-48.028444-30.734222 39.452444-40.106667-6.314666 4.224 43.847111-46.620444 16.455111 55.096889 18.190222 1.237333 3.740444c14.506667 42.410667 39.324444 58.908444 72.704 46.236445 42.211556-16.014222 47.928889-56.96 30.250667-83.683556l-1.393778-1.962666c-6.4-8.561778-17.863111-17.564444-34.488889-27.335111l-1.066666-0.597334z m-33.763556 6.798222l16.540444-21.262222 4.48 23.552 2.858667 1.621334c18.318222 10.382222 30.008889 19.555556 34.972445 27.036444 13.198222 19.925333 8.96 50.247111-23.438223 62.535111-25.415111 9.656889-43.207111-2.744889-55.239111-40.647111l-2.161778-7.196444-22.584888-7.480889 17.848888-6.272-3.541333-36.679111 30.264889 4.792888z" fill="#B2181A" /><path d="M633.329778 323.598222l29.781333 16.782222-40.462222 5.902223c-20.551111 41.329778-44.942222 53.589333-73.173333 36.764444-42.339556-25.216-24.462222-65.379556-13.752889-76.657778 7.139556-7.509333 21.12-14.976 41.912889-22.357333l12.899555-34.048 18.005333 33.991111 35.612445 0.64-10.808889 38.983111z" fill="#FB3635" /><path d="M572.16 278.613333l17.294222-45.696 23.424 44.188445 40.576 0.725333-11.776 42.467556 43.064889 24.291555-57.415111 8.362667-1.863111 3.456c-21.674667 39.253333-48.967111 51.185778-79.644445 32.910222-38.784-23.111111-37.304889-64.426667-15.246222-87.665778l1.706667-1.706666c7.793778-7.310222 20.650667-14.179556 38.712889-20.906667l1.166222-0.426667z m32.056889 12.558223l-12.600889-23.822223-8.490667 22.428445-3.100444 1.109333c-19.84 7.054222-32.952889 14.051556-39.139556 20.565333-16.455111 17.322667-17.536 47.928889 12.231111 65.649778 23.338667 13.909333 43.022222 4.792889 61.44-30.435555l3.384889-6.727111 23.523556-3.427556-16.469333-9.287111 9.856-35.498667-30.634667-0.554666z" fill="#B2181A" /></svg>