<?xml version="1.0" encoding="utf-8"?>

<svg width="800px" height="800px" viewBox="0 -7 1038 1038" class="icon"  version="1.1" xmlns="http://www.w3.org/2000/svg"><path d="M284.444444 199.111111h483.555556l56.888889 71.111111H227.555556zM284.444444 327.111111h483.555556l56.888889 71.111111H227.555556zM284.444444 455.111111h483.555556l56.888889 71.111111H227.555556zM284.444444 583.111111h483.555556l56.888889 71.111111H227.555556z" fill="#FA1C3D" /><path d="M412.444444 142.222222h227.555556a28.444444 28.444444 0 0 1 28.444444 28.444445v28.444444H384v-28.444444a28.444444 28.444444 0 0 1 28.444444-28.444445zM412.444444 782.222222h227.555556a28.444444 28.444444 0 0 0 28.444444-28.444444v-28.444445H384v28.444445a28.444444 28.444444 0 0 0 28.444444 28.444444z" fill="#FDD821" /><path d="M419.640889 782.222222h14.222222v85.333334h-14.222222zM447.971556 782.222222h14.222222v85.333334h-14.222222zM476.743111 782.222222h14.222222v85.333334h-14.222222zM504.789333 782.222222h14.222223v85.333334h-14.222223zM533.333333 782.222222h14.222223v85.333334h-14.222223zM561.777778 782.222222h14.222222v85.333334h-14.222222zM590.222222 782.222222h14.222222v85.333334h-14.222222zM618.666667 782.222222h14.222222v85.333334h-14.222222z" fill="#FA1C3D" /><path d="M284.444444 341.333333h483.555556l56.888889-71.111111H227.555556zM284.444444 469.333333h483.555556l56.888889-71.111111H227.555556zM284.444444 597.333333h483.555556l56.888889-71.111111H227.555556zM284.444444 725.333333h483.555556l56.888889-71.111111H227.555556z" fill="#CE2927" /><path d="M768 199.111111l56.888889 71.111111-51.2 64L824.888889 398.222222l-51.2 64L824.888889 526.222222l-51.2 64L824.888889 654.222222l-56.888889 71.111111H284.444444l-56.888888-71.111111 51.2-64L227.555556 526.222222l51.2-64L227.555556 398.222222l51.2-64L227.555556 270.222222l56.888888-71.111111h483.555556z m-6.826667 14.222222H291.256889l-45.496889 56.888889 51.2 64-51.2 63.985778 51.2 64.014222-51.2 63.985778 51.2 64.014222-51.2 64 45.511111 56.888889h469.888l45.511111-56.888889-51.2-64 51.2-64.014222-51.2-63.985778 51.2-64.014222-51.2-63.985778 51.2-64.014222L761.173333 213.333333z" fill="#B2181A" /><path d="M764.060444 326.997333v14.222223H284.700444v-14.222223zM764.060444 455.111111v14.222222H284.700444v-14.222222zM764.060444 582.997333v14.222223H284.700444v-14.222223z" fill="#B2181A" /></svg>