<?xml version="1.0" encoding="utf-8"?>

<svg width="800px" height="800px" viewBox="0 0 1024 1024" class="icon"  version="1.1" xmlns="http://www.w3.org/2000/svg"><path d="M454.371556 116.778667c79.729778 25.059556 131.968 42.410667 156.700444 52.053333 24.675556 9.614222 72.376889 31.217778 143.104 64.782222 70.968889 33.678222 101.191111 118.513778 67.512889 189.468445a142.222222 142.222222 0 0 1-1.408 2.872889L618.951111 826.652444a113.777778 113.777778 0 0 1-125.098667 60.259556c-72.760889-15.317333-119.452444-25.955556-140.060444-31.928889-20.707556-6.001778-62.762667-27.050667-126.165333-63.160889a113.777778 113.777778 0 0 1-54.727111-123.733333l100.053333-446.72c17.166222-76.629333 93.212444-124.856889 169.856-107.690667a142.222222 142.222222 0 0 1 11.562667 3.100445z" fill="#FA1C3D" /><path d="M454.769778 119.466667l39.651555 12.558222c51.484444 16.426667 88.106667 28.672 109.866667 36.764444l7.182222 2.730667c24.675556 9.628444 72.376889 31.217778 143.118222 64.796444 70.954667 33.678222 101.176889 118.499556 67.498667 189.468445l-1.408 2.872889-201.329778 400.682666a113.777778 113.777778 0 0 1-125.098666 60.259556l-44.003556-9.386667c-46.023111-9.941333-77.368889-17.265778-94.051555-21.959111l-1.991112-0.568889c-20.721778-6.001778-62.776889-27.064889-126.179555-63.175111a113.777778 113.777778 0 0 1-54.712889-123.733333l100.039111-446.705778c17.166222-76.657778 93.212444-124.871111 169.870222-107.704889a142.222222 142.222222 0 0 1 11.548445 3.114667z m-14.663111 10.780444a128 128 0 0 0-152.007111 93.269333l-0.867556 3.669334-100.039111 446.705778a99.555556 99.555556 0 0 0 47.872 108.259555l16.995555 9.614222c52.963556 29.681778 88.661333 47.203556 106.097778 52.252445l8.476445 2.332444c23.310222 6.144 66.929778 15.943111 130.56 29.340445a99.555556 99.555556 0 0 0 107.747555-49.493334l1.706667-3.242666 201.955555-401.976889 0.64-1.294222a128 128 0 0 0-60.757333-170.524445l-42.922667-20.224c-43.406222-20.266667-74.922667-34.360889-94.435555-42.24l-4.835556-1.92c-24.32-9.486222-76.359111-26.766222-155.790222-51.726222l-5.162667-1.507556-5.233777-1.28z" fill="#AB5318" /><path d="M287.815111 692.664889c27.136 5.774222 59.790222 15.502222 100.920889 29.681778 51.527111 17.735111 90.211556 33.422222 118.684444 48.924444l189.838223-437.333333a106.666667 106.666667 0 0 0-66.574223-144.455111l-79.872-24.490667-2.133333-0.64a106.666667 106.666667 0 0 0-131.754667 73.486222l-129.109333 454.826667z" fill="#F44937" /><path d="M550.613333 157.511111l2.275556 0.682667 79.886222 24.490666a113.777778 113.777778 0 0 1 70.997333 154.083556L510.819556 781.340444c-29.639111-17.152-70.968889-33.621333-116.337778-49.493333l-8.049778-2.787555c-40.120889-13.795556-76.942222-25.045333-107.562667-30.947556l131.214223-462.222222a113.777778 113.777778 0 0 1 140.515555-78.364445z m-3.882666 13.681778a99.555556 99.555556 0 0 0-121.969778 65.308444l-0.995556 3.271111-127.061333 447.573334 5.148444 1.223111c21.290667 5.134222 45.710222 12.416 74.467556 22.044444l14.734222 5.006223 15.971556 5.575111c38.869333 13.795556 69.902222 26.453333 94.435555 38.912l2.488889 1.294222 186.780445-430.293333a99.555556 99.555556 0 0 0 2.702222-6.926223l1.152-3.527111a99.555556 99.555556 0 0 0-62.72-123.306666l-3.271111-1.066667-81.863111-25.088z" fill="#B2181A" /><path d="M192.491431 716.920951a192 78.222222 19 1 0 363.079133 125.018171 192 78.222222 19 1 0-363.079133-125.018171Z" fill="#FDD821" /><path d="M399.502222 705.464889c100.266667 34.531556 170.140444 95.630222 156.074667 136.476444-14.065778 40.846222-106.752 45.966222-207.004445 11.448889-100.266667-34.517333-170.140444-95.616-156.074666-136.476444 14.065778-40.846222 106.737778-45.966222 207.004444-11.448889z m-4.636444 13.454222c-93.482667-32.199111-178.545778-27.491556-188.928 2.631111-10.368 30.122667 53.76 86.200889 147.256889 118.385778 93.496889 32.199111 178.56 27.491556 188.928-2.631111 10.382222-30.122667-53.76-86.186667-147.256889-118.385778z" fill="#AB5318" /><path d="M198.072889 704.668444l349.084444 134.272-5.12 13.269334-349.070222-134.257778z" fill="#AB5318" /><path d="M392.931556 702.734222l13.141333 5.475556-58.368 140.103111-13.127111-5.475556z" fill="#AB5318" /><path d="M362.837333 799.601778c14.848 5.12 30.008889 0.227556 33.834667-10.908445 3.84-11.150222-5.091556-24.32-19.953778-29.44-14.848-5.12-30.008889-0.227556-33.834666 10.908445-3.84 11.150222 5.091556 24.32 19.953777 29.44z" fill="#08E4F7" /><path d="M376.718222 759.253333c14.862222 5.12 23.793778 18.289778 19.953778 29.44-3.84 11.136-18.986667 16.028444-33.848889 10.908445-14.848-5.12-23.779556-18.289778-19.939555-29.44 3.84-11.136 18.986667-16.014222 33.848888-10.908445z m-4.622222 13.454223c-8.135111-2.801778-14.819556-0.64-15.772444 2.090666-0.938667 2.730667 3.015111 8.561778 11.136 11.349334 8.135111 2.801778 14.819556 0.654222 15.772444-2.090667 0.938667-2.730667-3.015111-8.547556-11.136-11.349333z" fill="#AB5318" /><path d="M535.992889 288.184889c-45.895111 0-94.435556 66.773333-65.877333 118.556444 27.918222 50.602667 93.297778 39.594667 126.663111 1.237334 22.513778-25.884444 21.731556-79.644444-0.512-100.408889-7.196444-6.727111-12.231111-10.695111-17.422223-13.482667l-2.702222-1.379555c-8.419556-3.982222-15.957333-4.522667-40.149333-4.522667z m0 14.222222l9.656889 0.056889c16.071111 0.184889 20.679111 1.038222 26.453333 4.138667 3.882667 2.090667 8.078222 5.404444 14.449778 11.349333 16.469333 15.374222 17.123556 60.416-0.512 80.682667-27.818667 32-81.507556 41.045333-103.466667 1.237333-22.940444-41.6 17.664-97.464889 53.418667-97.464889zM458.069333 470.926222c-50.474667 20.792889-74.168889 53.973333-65.123555 109.354667 4.835556 29.568 22.272 45.013333 47.189333 47.047111 17.92 1.464889 39.153778-4.551111 52.337778-12.999111 30.321778-19.413333 50.360889-50.446222 46.421333-90.197333-4.736-47.928889-35.925333-70.115556-77.937778-54.328889l-2.887111 1.137777z m66.673778 54.613334c3.342222 33.635556-13.696 60.017778-39.936 76.8-10.680889 6.855111-28.871111 12.017778-43.505778 10.808888-18.531556-1.507556-30.563556-12.16-34.318222-35.157333-7.864889-48.128 11.633778-75.434667 56.504889-93.909333 34.275556-14.122667 57.315556 1.550222 61.255111 41.443555z" fill="#FDD821" /><path d="M496.967111 375.096889l1.393778 0.156444a11.420444 11.420444 0 0 0 5.105778-1.422222c2.517333-1.265778 4.636444-2.474667 6.357333-3.626667 1.735111-1.166222 3.313778-2.56 4.750222-4.167111 1.379556-1.450667 2.574222-1.521778 3.584-0.184889l2.176 2.744889 1.706667 2.133334a23.395556 23.395556 0 0 0 3.470222 3.541333c0.668444 0.654222 1.208889 0.995556 1.635556 1.009778a2.702222 2.702222 0 0 0 1.493333-0.426667c0.611556-0.312889 0.952889-0.725333 1.038222-1.237333 0.071111-0.512-0.170667-1.251556-0.725333-2.232889l-1.28-1.976889-1.521778-2.261333-1.991111-2.816a193.678222 193.678222 0 0 1-2.56-3.740445 9.216 9.216 0 0 1-1.109333-1.976889c-0.227556-0.597333-0.085333-1.408 0.426666-2.446222a226.773333 226.773333 0 0 0 4.451556-10.026667c0.540444-1.322667 0.995556-2.517333 1.408-3.555555a9.6 9.6 0 0 0 0.668444-2.830222 4.977778 4.977778 0 0 0-0.426666-2.360889 6.798222 6.798222 0 0 0-1.877334-2.275556c-1.621333-1.379556-2.915556-2.076444-3.84-2.090666-0.952889 0-1.806222 0.64-2.56 1.962666a4.835556 4.835556 0 0 0-0.597333 2.062222 24.604444 24.604444 0 0 0 0.056889 3.555556 15.502222 15.502222 0 0 1-0.327111 4.010667c-0.312889 1.706667-0.768 3.512889-1.365334 5.418666a54.513778 54.513778 0 0 1-2.133333 5.660445c-0.824889 1.863111-1.706667 3.413333-2.702222 4.622222a20.352 20.352 0 0 1-6.798222 4.792889 31.544889 31.544889 0 0 1-11.377778 2.702222c-1.194667 0.085333-2.005333 0.341333-2.446222 0.753778-0.426667 0.426667-0.469333 1.137778-0.099556 2.190222 0.270222 0.768 0.711111 1.450667 1.308445 2.019556 0.611556 0.568889 1.208889 0.995556 1.777777 1.28a10.368 10.368 0 0 0 4.323556 1.194666l-1.393778-0.156444z m36.764445 13.397333c2.872889 1.351111 5.432889 2.133333 7.68 2.318222a9.528889 9.528889 0 0 0 5.973333-1.322666 13.653333 13.653333 0 0 0 4.579555-5.262222c1.336889-2.432 2.517333-5.603556 3.555556-9.514667a323.939556 323.939556 0 0 0 2.915556-12.344889l1.066666-4.792889a14.108444 14.108444 0 0 1 0.568889-2.133333 1.877333 1.877333 0 0 1 0.753778-0.995556 1.436444 1.436444 0 0 1 1.137778-0.099555c0.426667 0.128 1.038222 0.312889 1.792 0.568889 0.568889 0.284444 1.052444 0.483556 1.422222 0.611555a3.413333 3.413333 0 0 1 0.938667 0.469333c1.080889 0.768 2.019556 1.365333 2.787555 1.806223 0.753778 0.426667 1.479111 0.711111 2.147556 0.853333 0.682667 0.113778 1.365333 0.113778 2.076444 0.014222a23.466667 23.466667 0 0 0 2.673778-0.611555 6.343111 6.343111 0 0 0 3.882667-2.929778c0.455111-0.583111 0.625778-1.024 0.526222-1.322667-0.099556-0.284444-0.440889-0.512-1.052445-0.668444a83.726222 83.726222 0 0 1-2.901333-0.867556 89.031111 89.031111 0 0 0-3.399111-0.995555c-2.389333-0.768-4.551111-1.436444-6.528-2.019556l-5.731556-1.706667a133.162667 133.162667 0 0 0-5.632-1.564444c-1.905778-0.483556-3.953778-0.995556-6.172444-1.521778a18.673778 18.673778 0 0 1-3.128889-1.536 3.968 3.968 0 0 0-2.218667-0.597333 8.718222 8.718222 0 0 0-2.673777 0.426667 10.496 10.496 0 0 0-2.474667 1.137777 3.982222 3.982222 0 0 0-1.550222 1.678223c-0.796444 1.664-0.967111 2.844444-0.512 3.555555 0.455111 0.711111 1.92 0.881778 4.380444 0.483556a6.670222 6.670222 0 0 1 1.521778-0.085334l2.090667 0.113778a20.963556 20.963556 0 0 1 3.484444 0.540445c1.28 0.284444 2.275556 0.540444 3.015111 0.768 0.725333 0.227556 1.28 0.512 1.621333 0.867555a1.735111 1.735111 0 0 1 0.469334 1.365333 11.576889 11.576889 0 0 1-0.426667 2.232889l-1.152 4.323556a213.532444 213.532444 0 0 1-2.275555 7.822222 86.542222 86.542222 0 0 1-0.867556 2.602667 40.860444 40.860444 0 0 1-3.2 6.997333 10.894222 10.894222 0 0 1-3.427556 3.726222 6.698667 6.698667 0 0 1-4.067555 0.995556 18.261333 18.261333 0 0 1-4.949333-1.152 36.992 36.992 0 0 1-2.773334-1.365333 27.591111 27.591111 0 0 1-3.356444-2.133334c-0.540444-0.384-0.981333-0.469333-1.294222-0.270222-0.327111 0.213333-0.341333 0.768-0.056889 1.678222 0.924444 2.474667 2.133333 4.508444 3.626666 6.087111 1.493333 1.578667 3.2 2.844444 5.12 3.768889z m-7.352889-31.573333c0.384 0.099556 0.725333 0.142222 1.024 0.099555a2.432 2.432 0 0 0 1.137777-0.625777 16.071111 16.071111 0 0 0 1.792-1.848889c0.725333-0.881778 1.706667-2.076444 2.958223-3.640889a5.745778 5.745778 0 0 0 1.351111-3.555556c0-1.28-0.426667-2.176-1.351111-2.702222-1.436444-0.810667-2.503111-1.024-3.185778-0.682667-0.668444 0.341333-1.251556 1.607111-1.706667 3.783112a34.958222 34.958222 0 0 1-2.346666 7.054222c-0.312889 0.739556-0.426667 1.251556-0.355556 1.536 0.071111 0.284444 0.284444 0.483556 0.682667 0.583111z m-17.009778-0.796445c0.753778 0.227556 1.379556-0.355556 1.877333-1.749333a84.48 84.48 0 0 1 0.853334-5.475555 99.911111 99.911111 0 0 0 0.540444-3.342223 11.377778 11.377778 0 0 0 0.184889-2.872889 3.2 3.2 0 0 0-0.526222-1.635555 2.161778 2.161778 0 0 0-1.038223-0.768 4.266667 4.266667 0 0 0-1.308444-0.213333 6.428444 6.428444 0 0 0-2.019556 0.426666 5.632 5.632 0 0 0-1.777777 1.564445 9.429333 9.429333 0 0 0-0.568889 1.294222 4.707556 4.707556 0 0 0-0.170667 1.635555c0.014222 0.682667 0.142222 1.564444 0.384 2.659556s0.611556 2.545778 1.137778 4.323556c0.853333 2.531556 1.664 3.911111 2.417778 4.152888zM435.072 529.521778c0.668444 0.384 1.436444 0.568889 2.332444 0.526222 0.881778-0.028444 2.019556-0.199111 3.413334-0.540444a78.350222 78.350222 0 0 0 9.770666-2.844445 13.781333 13.781333 0 0 1 1.706667-0.398222 3.982222 3.982222 0 0 1 1.749333 0.213333c0.682667 0.199111 1.536 0.568889 2.56 1.123556 1.038222 0.540444 2.403556 1.28 4.096 2.204444 0.768 0.426667 1.493333 0.824889 2.161778 1.137778 0.682667 0.341333 1.521778 0.725333 2.517334 1.166222 0.967111 0.384 1.664 0.512 2.104888 0.398222a4.096 4.096 0 0 0 1.635556-1.152c0.412444-0.426667 0.483556-0.952889 0.199111-1.578666a4.081778 4.081778 0 0 0-1.777778-1.763556 37.347556 37.347556 0 0 1-5.987555-4.337778 4.992 4.992 0 0 1-1.024-1.294222 7.139556 7.139556 0 0 1-0.355556-1.464889 1.948444 1.948444 0 0 0-0.696889-1.066666 3.185778 3.185778 0 0 0-2.133333-0.896 3.185778 3.185778 0 0 0-2.062222 0.739555 11.207111 11.207111 0 0 1-3.811556 1.365334 64.853333 64.853333 0 0 1-12.487111 1.464888 34.986667 34.986667 0 0 1-5.162667-0.184888c-1.137778-0.142222-1.877333-0.042667-2.204444 0.284444-0.327111 0.327111-0.284444 0.952889 0.113778 1.891556 0.583111 1.336889 1.123556 2.403556 1.607111 3.214222a4.977778 4.977778 0 0 0 1.735111 1.792z m63.288889 14.691555l0.583111 0.128c0.526222 0.042667 1.080889-0.170667 1.678222-0.668444 0.384-0.298667 0.512-0.782222 0.384-1.422222a2.360889 2.360889 0 0 0-0.910222-1.536c-0.711111-0.426667-1.564444-0.995556-2.588444-1.706667-1.009778-0.711111-2.090667-1.493333-3.228445-2.332444-1.137778-0.824889-2.304-1.692444-3.541333-2.574223a171.662222 171.662222 0 0 1-4.522667-3.384889 0.782222 0.782222 0 0 1-0.270222-0.512l-0.142222-0.426666a6.712889 6.712889 0 0 1-0.213334-0.554667c-0.810667-1.336889-1.649778-2.161778-2.517333-2.474667a3.498667 3.498667 0 0 0-2.673778 0.113778 93.937778 93.937778 0 0 0-5.006222 2.375111 594.659556 594.659556 0 0 1-4.835556 2.417778c-1.649778 0.853333-2.176 1.905778-1.564444 3.185778a1.991111 1.991111 0 0 0 1.208889 1.080889 2.986667 2.986667 0 0 0 1.763555 0l1.493334-0.497778a33.564444 33.564444 0 0 1 5.063111-1.422222 6.328889 6.328889 0 0 1 2.360889-0.028445c0.711111 0.142222 1.450667 0.426667 2.190222 0.896 0.725333 0.455111 1.678222 1.109333 2.872889 1.962667a82.389333 82.389333 0 0 0 5.290667 3.626667c0.853333 0.526222 1.749333 1.038222 2.645333 1.550222 0.896 0.497778 1.891556 1.009778 2.986667 1.550222 0.867556 0.469333 1.564444 0.725333 2.076444 0.782222l-0.568889-0.128z m-24.604445 0.540445l0.896 0.227555 2.176 0.455111a37.191111 37.191111 0 0 0 4.608 0.611556 3.100444 3.100444 0 0 0 2.232889-0.554667 2.133333 2.133333 0 0 0 0.853334-1.706666c0-0.654222-0.170667-1.137778-0.497778-1.464889 1.109333 0.056889 1.408-0.512 0.896-1.706667a11.093333 11.093333 0 0 1-1.792-3.84c-0.213333-0.938667-0.768-1.507556-1.664-1.706667a2.901333 2.901333 0 0 0-2.56 0.668445c-0.753778 0.625778-1.152 1.223111-1.194667 1.806222-0.028444 0.568889 0.327111 1.28 1.109334 2.147556 0.625778 0.711111 1.336889 1.237333 2.133333 1.635555l-0.384 0.071111a33.635556 33.635556 0 0 1-3.925333 0.981334 89.457778 89.457778 0 0 1-1.905778 0.327111 5.973333 5.973333 0 0 1-1.436445 0.099555c-0.896 0.056889-1.336889 0.284444-1.322666 0.668445 0 0.384 0.384 0.725333 1.123555 1.052444a9.301333 9.301333 0 0 0 1.564445 0.455111l-0.896-0.227555z m-17.92-9.016889c0.938667 0.256 1.564444 0.213333 1.848889-0.113778 0.284444-0.341333 0.241778-0.853333-0.156444-1.550222a18.232889 18.232889 0 0 1-1.308445-2.375111 12.003556 12.003556 0 0 1-0.597333-1.749334c-0.241778-1.066667-0.853333-1.706667-1.820444-1.948444-0.967111-0.227556-1.877333 0.042667-2.730667 0.810667-0.824889 0.668444-1.265778 1.322667-1.322667 1.991111-0.056889 0.654222 0.327111 1.422222 1.137778 2.289778a11.079111 11.079111 0 0 0 4.949333 2.645333z m22.656 42.808889l1.322667 0.284444c1.948444 0.398222 3.726222 0.611556 5.347556 0.64a13.226667 13.226667 0 0 0 4.565333-0.711111c1.422222-0.512 2.744889-1.294222 3.939556-2.360889 1.194667-1.052444 2.346667-2.446222 3.456-4.152889 0.696889-1.052444 0.924444-1.735111 0.682666-2.062222-0.227556-0.327111-0.796444-0.384-1.678222-0.142222a18.275556 18.275556 0 0 1-4.551111 0.497778c-1.834667 0-3.768889-0.113778-5.831111-0.369778a56.106667 56.106667 0 0 1-6.101334-1.109333 29.696 29.696 0 0 1-5.404444-1.792 16.967111 16.967111 0 0 1-3.2-1.877334 13.368889 13.368889 0 0 1-2.801778-2.730666c-0.526222-0.682667-0.711111-1.137778-0.554666-1.393778 0.156444-0.256 0.668444-0.426667 1.521777-0.568889a81.137778 81.137778 0 0 0 6.058667-0.853333 6.812444 6.812444 0 0 0 3.498667-1.166223c0.682667-0.583111 1.024-1.521778 1.024-2.830222-0.042667-1.180444-0.568889-1.905778-1.578667-2.190222a4.238222 4.238222 0 0 0-3.171556 0.483555c-0.540444 0.270222-1.322667 0.568889-2.332444 0.924445l-3.143111 1.052444c-1.152 0.341333-1.834667 0.398222-2.033778 0.156445-0.213333-0.227556 0.056889-0.839111 0.796445-1.820445a7.438222 7.438222 0 0 0 1.464888-3.484444c0.085333-0.753778 0.270222-1.166222 0.568889-1.28a3.953778 3.953778 0 0 1 1.678223 0.113778c2.190222 0.64 4.451556 1.28 6.784 1.905777 2.332444 0.625778 5.262222 1.422222 8.760888 2.432 0.853333 0.284444 1.664 0.256 2.417778-0.099555 0.739556-0.369778 1.237333-1.038222 1.507556-2.033778 0.213333-0.583111 0.213333-1.024 0-1.322667-0.213333-0.284444-0.782222-0.611556-1.678222-0.981333a43.847111 43.847111 0 0 0-3.057778-0.952889l-5.603556-1.536-2.232889-0.597333a17171.029333 17171.029333 0 0 0-12.615111-3.128889c-0.782222-0.199111-1.237333-0.426667-1.379555-0.668444-0.142222-0.241778-0.056889-0.682667 0.227555-1.308445a6.570667 6.570667 0 0 0 0.682667-2.375111c0-0.540444-0.156444-1.137778-0.455111-1.806222a5.290667 5.290667 0 0 0-3.555556-2.887111c-0.867556-0.241778-1.649778 0.028444-2.318222 0.782222a10.851556 10.851556 0 0 0-1.834667 4.195555c-0.170667 0.839111-0.369778 1.322667-0.611555 1.464889-0.241778 0.142222-0.839111 0.085333-1.763556-0.156444a220.216889 220.216889 0 0 1-4.920889-1.137778c-2.844444-0.597333-4.593778-1.180444-5.262222-1.777778-1.28-0.981333-2.389333-1.464889-3.370667-1.422222a7.765333 7.765333 0 0 0-3.584 1.336889c-0.924444 0.568889-1.635556 1.038222-2.133333 1.408a5.688889 5.688889 0 0 0-1.180444 1.052444 1.706667 1.706667 0 0 0-0.412445 1.038223c0 0.355556 0.042667 0.782222 0.142222 1.28 0.426667 1.464889 1.962667 1.934222 4.579556 1.408 0.910222-0.113778 2.474667-0.071111 4.693333 0.142222 2.204444 0.213333 5.233778 0.682667 9.102223 1.422222 1.066667 0.227556 1.678222 0.469333 1.848888 0.711111 0.156444 0.256-0.085333 0.853333-0.753777 1.792-1.194667 1.863111-2.688 3.498667-4.451556 4.906667-1.749333 1.422222-3.84 2.474667-6.272 3.171555-2.432 0.711111-5.219556 0.967111-8.391111 0.768a40.263111 40.263111 0 0 1-10.780444-2.446222c-1.180444-0.426667-1.905778-0.483556-2.204445-0.142222-0.284444 0.327111-0.426667 1.166222-0.369778 2.531556 0.028444 2.076444 1.038222 3.655111 3.015111 4.750222 1.962667 1.080889 5.020444 1.834667 9.159112 2.232889 3.313778 0.355556 6.499556 0.270222 9.528888-0.284445 3.029333-0.540444 5.688889-1.621333 8.021334-3.228444a5.76 5.76 0 0 1 1.436444-0.768c0.256-0.042667 0.526222 0.028444 0.824889 0.227555 0.753778 0.483556 1.564444 0.910222 2.446222 1.28 0.867556 0.341333 1.664 0.554667 2.346667 0.611556 0.398222 0.056889 0.682667 0.213333 0.853333 0.497778 0.142222 0.284444 0.312889 0.853333 0.497778 1.720889a8.021333 8.021333 0 0 0 1.479111 2.872888 22.755556 22.755556 0 0 0 2.858667 3.328c1.052444 0.924444 2.218667 1.877333 3.484444 2.844445 1.28 0.952889 2.602667 1.834667 3.982223 2.645333 1.365333 0.810667 2.773333 1.507556 4.195555 2.104889 1.436444 0.583111 2.801778 0.995556 4.096 1.223111l-1.322667-0.284444z m-22.855111-20.593778c-0.469333 0-0.711111-0.142222-0.711111-0.369778 0.014222-0.227556 0.426667-0.768 1.237334-1.607111a34.375111 34.375111 0 0 0 4.835555-6.826667c0.440889-0.768 0.796444-1.223111 1.066667-1.351111 0.284444-0.142222 0.739556-0.142222 1.422222-0.028444 0.597333 0.170667 0.924444 0.369778 0.981333 0.625778 0.056889 0.241778-0.142222 0.753778-0.583111 1.521777-0.568889 1.024-1.137778 2.062222-1.678222 3.128889a20.764444 20.764444 0 0 0-1.265778 2.887111 5.361778 5.361778 0 0 1-0.867555 1.621334c-0.241778 0.227556-0.753778 0.384-1.550223 0.469333a8.348444 8.348444 0 0 1-1.592888 0.056889 29.980444 29.980444 0 0 1-1.294223-0.142222z" fill="#FDD821" /></svg>