<?xml version="1.0" encoding="utf-8"?>

<svg width="800px" height="800px" viewBox="0 0 1024 1024" class="icon"  version="1.1" xmlns="http://www.w3.org/2000/svg"><path d="M440.888889 583.111111h142.222222v270.222222a71.111111 71.111111 0 0 1-142.222222 0V583.111111z" fill="#AD3E1A" /><path d="M583.111111 583.111111v270.222222a71.111111 71.111111 0 0 1-142.222222 0V583.111111h142.222222z m-14.222222 14.222222h-113.777778v256a56.888889 56.888889 0 0 0 54.044445 56.817778L512 910.222222a56.888889 56.888889 0 0 0 56.817778-54.044444L568.888889 853.333333V597.333333z" fill="#891314" /><path d="M227.555556 369.777778m-71.111112 0a71.111111 71.111111 0 1 0 142.222223 0 71.111111 71.111111 0 1 0-142.222223 0Z" fill="#FB3635" /><path d="M227.555556 298.666667a71.111111 71.111111 0 1 1 0 142.222222 71.111111 71.111111 0 0 1 0-142.222222z m0 14.222222a56.888889 56.888889 0 1 0 0 113.777778 56.888889 56.888889 0 0 0 0-113.777778z" fill="#B2181A" /><path d="M796.444444 369.777778m-71.111111 0a71.111111 71.111111 0 1 0 142.222223 0 71.111111 71.111111 0 1 0-142.222223 0Z" fill="#FB3635" /><path d="M796.444444 298.666667a71.111111 71.111111 0 1 1 0 142.222222 71.111111 71.111111 0 0 1 0-142.222222z m0 14.222222a56.888889 56.888889 0 1 0 0 113.777778 56.888889 56.888889 0 0 0 0-113.777778z" fill="#B2181A" /><path d="M512 369.777778m-256 0a256 256 0 1 0 512 0 256 256 0 1 0-512 0Z" fill="#FB3635" /><path d="M512 113.777778c141.383111 0 256 114.616889 256 256s-114.616889 256-256 256-256-114.616889-256-256S370.616889 113.777778 512 113.777778z m0 14.222222c-133.532444 0-241.777778 108.245333-241.777778 241.777778s108.245333 241.777778 241.777778 241.777778 241.777778-108.245333 241.777778-241.777778S645.532444 128 512 128z" fill="#B2181A" /><path d="M512 369.777778m-227.555556 0a227.555556 227.555556 0 1 0 455.111112 0 227.555556 227.555556 0 1 0-455.111112 0Z" fill="#FDD821" /><path d="M512 369.777778m-199.111111 0a199.111111 199.111111 0 1 0 398.222222 0 199.111111 199.111111 0 1 0-398.222222 0Z" fill="#FADB9A" /><path d="M512 170.666667c109.966222 0 199.111111 89.144889 199.111111 199.111111s-89.144889 199.111111-199.111111 199.111111-199.111111-89.144889-199.111111-199.111111 89.144889-199.111111 199.111111-199.111111z m0 14.222222c-102.115556 0-184.888889 82.773333-184.888889 184.888889s82.773333 184.888889 184.888889 184.888889 184.888889-82.773333 184.888889-184.888889-82.773333-184.888889-184.888889-184.888889z" fill="#B2181A" /><path d="M227.555556 369.777778m-42.666667 0a42.666667 42.666667 0 1 0 85.333333 0 42.666667 42.666667 0 1 0-85.333333 0Z" fill="#13DEFF" /><path d="M227.555556 327.111111a42.666667 42.666667 0 1 1 0 85.333333 42.666667 42.666667 0 0 1 0-85.333333z m0 14.222222a28.444444 28.444444 0 1 0 0 56.888889 28.444444 28.444444 0 0 0 0-56.888889z" fill="#B2181A" /><path d="M796.444444 369.777778m-42.666666 0a42.666667 42.666667 0 1 0 85.333333 0 42.666667 42.666667 0 1 0-85.333333 0Z" fill="#13DEFF" /><path d="M796.444444 327.111111a42.666667 42.666667 0 1 1 0 85.333333 42.666667 42.666667 0 0 1 0-85.333333z m0 14.222222a28.444444 28.444444 0 1 0 0 56.888889 28.444444 28.444444 0 0 0 0-56.888889zM216.504889 429.653333l14.136889 1.536-21.333334 195.356445-14.136888-1.536zM803.512889 429.653333l-14.136889 1.536 21.333333 195.356445 14.136889-1.536z" fill="#B2181A" /><path d="M199.111111 668.444444m-56.888889 0a56.888889 56.888889 0 1 0 113.777778 0 56.888889 56.888889 0 1 0-113.777778 0Z" fill="#FDD821" /><path d="M199.111111 611.555556a56.888889 56.888889 0 1 1 0 113.777777 56.888889 56.888889 0 0 1 0-113.777777z m0 14.222222a42.666667 42.666667 0 1 0 0 85.333333 42.666667 42.666667 0 0 0 0-85.333333z" fill="#B2181A" /><path d="M824.888889 668.444444m-56.888889 0a56.888889 56.888889 0 1 0 113.777778 0 56.888889 56.888889 0 1 0-113.777778 0Z" fill="#FDD821" /><path d="M824.888889 611.555556a56.888889 56.888889 0 1 1 0 113.777777 56.888889 56.888889 0 0 1 0-113.777777z m0 14.222222a42.666667 42.666667 0 1 0 0 85.333333 42.666667 42.666667 0 0 0 0-85.333333z" fill="#B2181A" /></svg>