<?xml version="1.0" ?>


<svg width="800px" height="800px" viewBox="0 0 64 64" id="Layer_1_1_" version="1.1" xml:space="preserve" xmlns="http://www.w3.org/2000/svg" xmlns:xlink="http://www.w3.org/1999/xlink">

<g>

<g>

<g>

<polygon points="32,43 38,49 42,39 38,38    " style="fill:#00F4CB;"/>

</g>

<g>

<polygon points="26,49 32,43 26,38 22,39    " style="fill:#00F4CB;"/>

</g>

</g>

<g>

<g>

<path d="M36,10c0,2.209-1.79,4-3.999,4h13.858c-0.258-1.802-0.867-3.488-1.743-5h-8.257     C35.942,9.321,36,9.653,36,10z" style="fill:#00F4CB;"/>

</g>

<g>

<path d="M28,10c0-0.347,0.058-0.679,0.141-1h-8.257c-0.876,1.512-1.485,3.198-1.743,5h13.858     C29.79,14,28,12.209,28,10z" style="fill:#00F4CB;"/>

</g>

</g>

<g>

<path d="M56,53h-2v-6.391c0-3.166-2.137-5.947-5.196-6.763L39,37.231v-2.753c1.711-1.415,2.978-3.341,3.589-5.538    C45.066,28.645,47,26.555,47,24v-5c1.103,0,2-0.897,2-2v-2c0-1.103-0.897-2-2-2h-0.316C45.277,6.104,39.122,1,32,1    S18.723,6.104,17.316,13H17c-1.103,0-2,0.897-2,2v2c0,1.103,0.897,2,2,2v5c0,2.555,1.934,4.645,4.411,4.94    c0.611,2.197,1.878,4.123,3.589,5.538v2.753l-9.804,2.615C12.137,40.662,10,43.443,10,46.609V53H8v6h2v4h44v-4h2V53z     M26.069,32.752l0.268-1.34C26.617,30.015,27.854,29,29.279,29h5.441c1.425,0,2.662,1.015,2.942,2.412l0.268,1.34    C36.345,34.147,34.273,35,32,35S27.655,34.147,26.069,32.752z M42.958,26.829C42.979,26.554,43,26.28,43,26v-4.816    c1.161,0.414,2,1.514,2,2.816C45,25.317,44.141,26.427,42.958,26.829z M45,20.026c-0.584-0.442-1.257-0.773-2-0.924V19h2V20.026z     M32,3c6.036,0,11.281,4.225,12.651,10h-8.676C36.609,12.162,37,11.13,37,10c0-2.757-2.243-5-5-5s-5,2.243-5,5    c0,1.13,0.391,2.162,1.026,3h-8.676C20.719,7.225,25.964,3,32,3z M29,10c0-1.654,1.346-3,3-3s3,1.346,3,3s-1.346,3-3,3    S29,11.654,29,10z M17,15h30l0.001,2H17V15z M21,19v0.101c-0.743,0.152-1.416,0.482-2,0.924V19H21z M19,24    c0-1.302,0.839-2.402,2-2.816V26c0,0.28,0.021,0.554,0.042,0.829C19.859,26.427,19,25.317,19,24z M23,19h18v7    c0,1.784-0.528,3.445-1.428,4.845C39.039,28.609,37.034,27,34.721,27h-5.441c-2.313,0-4.318,1.609-4.852,3.845    C23.528,29.445,23,27.784,23,26V19z M32,37c1.801,0,3.498-0.444,5-1.214v1.746l-5,4.167l-5-4.167v-1.746    C28.502,36.556,30.199,37,32,37z M12,46.609c0-2.262,1.526-4.248,3.712-4.831L25.757,39.1L32,44.302l6.243-5.202l10.046,2.678    C50.474,42.361,52,44.348,52,46.609V53h-5v-6h-2v14H19V47h-2v6h-5V46.609z M10,55h7v2h-7V55z M12,59h5v2h-5V59z M52,61h-5v-2h5V61    z M54,57h-7v-2h7V57z"/>

<circle cx="27" cy="22" r="1"/>

<circle cx="37" cy="22" r="1"/>

<rect height="2" width="2" x="31" y="9"/>

<rect height="2" width="7" x="36" y="52"/>

<rect height="2" width="2" x="31" y="57"/>

<rect height="2" width="2" x="31" y="53"/>

<rect height="2" width="2" x="31" y="49"/>

<rect height="2" width="6" x="29" y="31"/>

</g>

</g>

</svg>