<?xml version="1.0" ?>


<svg width="800px" height="800px" viewBox="0 0 64 64" id="Layer_1_1_" version="1.1" xml:space="preserve" xmlns="http://www.w3.org/2000/svg" xmlns:xlink="http://www.w3.org/1999/xlink">

<g>

<g>

<path d="M54,33c-3.309,0-6-2.691-6-6V17c0-8.822-7.178-16-16-16S16,8.178,16,17v10c0,3.309-2.691,6-6,6    H8.382l0.724,1.447c1.805,3.609,5.238,5.991,9.168,6.462L27,38v-3h0.663c-3.061-1.478-5.236-4.468-5.59-8H22h-3    c-1.105,0-2-0.895-2-2v-4c0-1.105,0.895-2,2-2h3h7.143c1.049-0.498,2.02-1.163,2.857-2c0.837,0.837,1.808,1.502,2.857,2H42h3    c1.105,0,2,0.895,2,2v4c0,1.105-0.895,2-2,2h-3h-0.073c-0.354,3.532-2.529,6.522-5.59,8H37v3l8.727,2.909    c3.93-0.471,7.363-2.853,9.168-6.462L55.618,33H54z" style="fill:#00F4CB;"/>

</g>

<g>

<path d="M48.214,40.685L38,37.279v-2.072c1.6-1.046,2.908-2.497,3.786-4.208H48v-6v-2v-2c0-1.654-1.346-3-3-3h-2.191    C41.865,12.888,37.382,9,32,9s-9.865,3.888-10.809,9H19c-1.654,0-3,1.346-3,3v4c0,1.654,1.346,3,3,3h2.191    c0.556,3.01,2.337,5.591,4.809,7.208v2.072l-10.213,3.405C12.923,41.638,11,44.307,11,47.324V63h42V47.324    C53,44.307,51.077,41.638,48.214,40.685z M38.828,39.663l-1.448,6.518l-3.898-3.249l3.789-3.789L38.828,39.663z M42.574,29    c0.093-0.328,0.173-0.661,0.235-1H45c0.352,0,0.686-0.072,1-0.184V29H42.574z M45,20c0.551,0,1,0.448,1,1v2v2c0,0.552-0.449,1-1,1    h-2v-6H45z M32,11c4.624,0,8.442,3.507,8.941,8h-1.698c-2.469,0-4.79-0.961-6.536-2.707L32,15.586l-0.707,0.707    C29.547,18.039,27.226,19,24.757,19h-1.698C23.558,14.507,27.376,11,32,11z M19,26c-0.551,0-1-0.448-1-1v-4c0-0.552,0.449-1,1-1h2    v6H19z M23,26v-5h1.757c2.681,0,5.218-0.932,7.243-2.643C34.024,20.068,36.562,21,39.243,21H41v5c0,1.053-0.191,2.06-0.525,3    h-3.659c-0.414-1.161-1.514-2-2.816-2h-4c-1.654,0-3,1.346-3,3s1.346,3,3,3h4c1.302,0,2.402-0.839,2.816-2h2.662    c-1.617,2.41-4.365,4-7.478,4C27.038,35,23,30.963,23,26z M35,30c0,0.552-0.449,1-1,1h-4c-0.551,0-1-0.448-1-1s0.449-1,1-1h4    C34.551,29,35,29.448,35,30z M32,37c1.412,0,2.758-0.277,4-0.764v1.35l-4,4l-4-4v-1.35C29.242,36.723,30.588,37,32,37z     M26.73,39.144l3.789,3.789l-3.898,3.249l-1.448-6.518L26.73,39.144z M51,61h-6v-2.587c1.291-1.321,2-3.062,2-4.913    s-0.709-3.592-2-4.913V46h-2v3.414l0.525,0.525C44.476,50.891,45,52.155,45,53.5s-0.524,2.609-1.475,3.561L43,57.586V61H21v-3.414    l-0.525-0.525C19.524,56.109,19,54.845,19,53.5s0.524-2.609,1.475-3.561L21,49.414V46h-2v2.587c-1.291,1.321-2,3.062-2,4.913    s0.709,3.592,2,4.913V61h-6V47.324c0-2.155,1.374-4.062,3.419-4.743l6.846-2.282l2.115,9.519l6.559-5.465L32,44.414l0.061-0.061    l6.559,5.465l2.115-9.519l6.846,2.282C49.626,43.263,51,45.169,51,47.324V61z"/>

<circle cx="27" cy="23" r="1"/>

<circle cx="37" cy="23" r="1"/>

</g>

</g>

</svg>