<?xml version="1.0" ?>


<svg width="800px" height="800px" viewBox="0 0 64 64" id="Layer_1_1_" version="1.1" xml:space="preserve" xmlns="http://www.w3.org/2000/svg" xmlns:xlink="http://www.w3.org/1999/xlink">

<g>

<g>

<path d="M38,34v4l1.753,0.584c5.36-0.587,8.424-1.589,8.563-1.636l1.094-0.364l-0.516-1.031    C47.655,33.074,47,30.299,47,27.528V16h-5v4c2.209,0,4,1.791,4,4c0,2.209-1.791,4-4,4h-0.201c-0.496,2.444-1.889,4.557-3.813,6H38    z" style="fill:#00F4CB;"/>

</g>

<g>

<path d="M24.256,38.581L26,38v-4h0.014c-1.924-1.443-3.317-3.556-3.813-6H22c-2.209,0-4-1.791-4-4    c0-2.209,1.791-4,4-4v-4h-5v11.528c0,2.771-0.655,5.546-1.895,8.024l-0.516,1.031l1.094,0.364    C15.823,36.995,18.867,37.991,24.256,38.581z" style="fill:#00F4CB;"/>

</g>

<g>

<path d="M49.214,40.685L39,37.279v-2.801c1.711-1.415,2.978-3.341,3.589-5.538C45.066,28.645,47,26.555,47,24    c0-2.414-1.721-4.434-4-4.899V17h8v-2c-1.47,0-2.79-0.816-3.447-2.131L46.618,11h-0.669C45.442,5.402,40.728,1,35,1h-6    c-5.728,0-10.442,4.402-10.949,10h-0.669l-0.935,1.869C15.79,14.184,14.47,15,13,15v2h8v2.101c-2.279,0.465-4,2.484-4,4.899    c0,2.555,1.934,4.645,4.411,4.94c0.611,2.197,1.878,4.123,3.589,5.538v2.801l-10.214,3.405C11.924,41.638,10,44.307,10,47.324V63    h44V47.324C54,44.307,52.076,41.638,49.214,40.685z M51.423,45H47v-2.946l1.581,0.527C49.837,43,50.836,43.883,51.423,45z     M52,47.324V49h-5v-2h4.974C51.981,47.109,52,47.214,52,47.324z M12.026,47H17v2h-5v-1.676C12,47.214,12.019,47.109,12.026,47z     M17,51v2h-5v-2H17z M19,41.387l2-0.667v9.897l0.553,0.276C21.725,50.98,25.835,53,32,53s10.275-2.02,10.447-2.105L43,50.618    v-9.897l2,0.667V61H19V41.387z M25.852,39.103l4.578,3.052l-3.04,3.039l-2.201-5.87L25.852,39.103z M38.148,39.103l0.662,0.221    l-2.201,5.87l-3.04-3.039L38.148,39.103z M26.609,48.806L32,43.414l5.391,5.391l3.319-8.849L41,40.054v9.294    C39.746,49.858,36.445,51,32,51c-4.423,0-7.739-1.144-9-1.654v-9.292l0.291-0.097L26.609,48.806z M47,51h5v2h-5V51z M45,24    c0,1.317-0.859,2.427-2.042,2.829C42.979,26.554,43,26.28,43,26v-4.816C44.161,21.598,45,22.698,45,24z M29,3h6    c4.625,0,8.442,3.507,8.941,8H20.059C20.558,6.507,24.375,3,29,3z M18.236,13.764L18.618,13h26.764l0.382,0.764    c0.227,0.453,0.505,0.867,0.826,1.236H17.41C17.731,14.631,18.01,14.217,18.236,13.764z M19,24c0-1.302,0.839-2.402,2-2.816V26    c0,0.28,0.021,0.554,0.042,0.829C19.859,26.427,19,25.317,19,24z M23,26v-9h18v9c0,4.963-4.037,9-9,9S23,30.963,23,26z M32,37    c1.801,0,3.498-0.444,5-1.214v1.679l-5,3.333l-5-3.333v-1.679C28.502,36.556,30.199,37,32,37z M15.419,42.581L17,42.054V45h-4.423    C13.164,43.883,14.163,43,15.419,42.581z M12,55h5v6h-5V55z M47,61v-6h5v6H47z"/>

<circle cx="27" cy="22" r="1"/>

<circle cx="37" cy="22" r="1"/>

<path d="M32,32c2.757,0,5-2.243,5-5h-2c0,1.654-1.346,3-3,3s-3-1.346-3-3h-2C27,29.757,29.243,32,32,32z"/>

</g>

<g>

<path d="M24,60c-1.654,0-3-1.346-3-3s1.346-3,3-3s3,1.346,3,3S25.654,60,24,60z" style="fill:#00F4CB;"/>

</g>

<g>

<path d="M40,60c-1.654,0-3-1.346-3-3s1.346-3,3-3s3,1.346,3,3S41.654,60,40,60z" style="fill:#00F4CB;"/>

</g>

</g>

</svg>