<?xml version="1.0" ?>


<svg width="800px" height="800px" viewBox="0 0 64 64" id="Layer_1_1_" version="1.1" xml:space="preserve" xmlns="http://www.w3.org/2000/svg" xmlns:xlink="http://www.w3.org/1999/xlink">

<g>

<g>

<path d="M45.302,16h-0.077c-0.149,0-0.298-0.02-0.442-0.058L20.257,9.338    c-0.536-0.144-0.945-0.539-1.136-1.034l-0.113,0.195C17.694,10.77,17,13.363,17,16v8h1c0-2.209,1.791-4,4-4v-1h2.757    c2.716,0,5.322-1.079,7.243-3c1.921,1.921,4.526,3,7.243,3H42v1c2.209,0,4,1.791,4,4h1v-8.768l-0.244-0.065    C46.459,15.664,45.922,16,45.302,16z" style="fill:#00F4CB;"/>

</g>

<g>

<rect height="7" style="fill:#00F4CB;" width="14" x="25" y="54"/>

</g>

<g>

<path d="M48.214,40.684L46,39.946V39c0-1.103-0.897-2-2-2h-2c-0.75,0-1.397,0.42-1.74,1.033L38,37.279v-2.072    c1.506-0.985,2.758-2.325,3.632-3.905l2.974-1.487l-2.065-0.689c0.018-0.061,0.031-0.124,0.048-0.186    C45.066,28.645,47,26.555,47,24c0-2.414-1.721-4.434-4-4.899V18h-3.758c-2.469,0-4.789-0.961-6.535-2.707L32,14.586l-0.707,0.707    C29.547,17.039,27.227,18,24.758,18H21v1.101c-2.279,0.465-4,2.484-4,4.899c0,2.555,1.934,4.645,4.411,4.94    c0.017,0.061,0.03,0.125,0.048,0.186l-2.065,0.689l2.974,1.487c0.874,1.58,2.126,2.921,3.632,3.905v2.072l-2.26,0.753    C23.397,37.42,22.75,37,22,37h-2c-1.103,0-2,0.897-2,2v0.946l-2.214,0.738C12.924,41.638,11,44.307,11,47.325V63h42V47.325    C53,44.307,51.076,41.638,48.214,40.684z M47.581,42.581C49.626,43.263,51,45.169,51,47.325V57h-5v-3.382    c0.615-0.703,1-1.612,1-2.618s-0.385-1.914-1-2.618v-6.328L47.581,42.581z M26.8,39.121L30.399,42l-2.85,2.28l-1.411-4.939    L26.8,39.121z M37.2,39.121l0.662,0.221l-1.411,4.939L33.601,42L37.2,39.121z M45,51c0,1.103-0.897,2-2,2s-2-0.897-2-2    s0.897-2,2-2S45,49.897,45,51z M40,48.382c-0.402,0.46-0.7,1.009-0.858,1.618H33v-5.919l4.549,3.639l2.213-7.745L40,40.054V48.382    z M26.451,47.72L31,44.081V50h-6.142C24.7,49.391,24.402,48.843,24,48.382v-8.328l0.238-0.079L26.451,47.72z M23,51    c0,1.103-0.897,2-2,2s-2-0.897-2-2s0.897-2,2-2S23,49.897,23,51z M20,54.858C20.322,54.942,20.653,55,21,55    c1.859,0,3.411-1.28,3.858-3h14.284c0.447,1.72,1.999,3,3.858,3c0.347,0,0.678-0.058,1-0.142V61H20V54.858z M44,39v8.142    C43.678,47.058,43.347,47,43,47s-0.678,0.058-1,0.142V39H44z M24.507,30.136c1.125-0.488,2.205-1.075,3.228-1.756    c0.992-0.661,2.426-0.379,3.096,0.574l-0.122,0.183C29.93,30.303,28.628,31,27.225,31c-0.646,0-1.294-0.153-1.872-0.442    L24.507,30.136z M27.225,33c1.866,0,3.606-0.84,4.775-2.266C33.169,32.16,34.909,33,36.775,33c0.329,0,0.656-0.036,0.98-0.089    C36.194,34.214,34.188,35,32,35s-4.194-0.786-5.755-2.089C26.569,32.964,26.896,33,27.225,33z M38.647,30.558    C38.069,30.847,37.422,31,36.775,31c-1.403,0-2.705-0.697-3.483-1.864l-0.122-0.183c0.67-0.953,2.104-1.236,3.096-0.573    c1.022,0.681,2.103,1.268,3.228,1.756L38.647,30.558z M45,24c0,1.317-0.859,2.427-2.042,2.829C42.979,26.554,43,26.28,43,26    v-4.816C44.161,21.598,45,22.698,45,24z M23,20h1.758c2.681,0,5.218-0.932,7.242-2.643C34.024,19.068,36.562,20,39.242,20H41v6    c0,0.851-0.127,1.672-0.349,2.453c-1.146-0.468-2.244-1.05-3.276-1.738C36.674,26.248,35.856,26,35.014,26    c-1.159,0-2.229,0.466-3.014,1.257C31.215,26.466,30.145,26,28.986,26c-0.843,0-1.66,0.248-2.361,0.715    c-1.032,0.688-2.131,1.27-3.276,1.738C23.127,27.672,23,26.851,23,26V20z M19,24c0-1.302,0.839-2.402,2-2.816V26    c0,0.28,0.021,0.554,0.042,0.829C19.859,26.427,19,25.317,19,24z M32,37c1.412,0,2.758-0.277,4-0.764v1.283l-4,3.2l-4-3.2v-1.283    C29.242,36.723,30.588,37,32,37z M22,39v8.142C21.678,47.058,21.347,47,21,47s-0.678,0.058-1,0.142V39H22z M16.419,42.581    L18,42.054v6.328c-0.615,0.703-1,1.612-1,2.618s0.385,1.914,1,2.618V57h-5v-9.675C13,45.169,14.374,43.263,16.419,42.581z M13,59    h5v2h-5V59z M46,61v-2h5v2H46z"/>

<circle cx="27" cy="22" r="1"/>

<circle cx="37" cy="22" r="1"/>

<path d="M19.997,10.304l24.523,6.602C44.749,16.968,44.986,17,45.302,17C46.79,17,48,15.79,48,14.302    c0-1.217-0.821-2.289-1.997-2.606l-0.043-0.011c0.072-0.737,0.034-1.484-0.126-2.227c-0.561-2.608-2.691-4.735-5.302-5.293    c-0.313-0.067-0.626-0.098-0.938-0.123C38.819,2.22,37.027,1,35,1c-1.168,0-2.287,0.415-3.176,1.148C30.7,1.412,29.374,1,28,1    c-2.766,0-5.244,1.646-6.365,4.135l-0.155-0.042C21.251,5.032,21.014,5,20.775,5h-0.077C19.21,5,18,6.21,18,7.698    C18,8.916,18.821,9.987,19.997,10.304z M37.395,4.205c-0.484,0.114-0.961,0.262-1.416,0.48c-0.857,0.412-1.8-0.074-2.292-0.761    c-0.104-0.146-0.222-0.279-0.337-0.415C33.836,3.187,34.406,3,35,3C35.968,3,36.841,3.467,37.395,4.205z M28,3    c1.605,0,3.123,0.781,4.06,2.089c1.143,1.594,3.155,2.182,4.784,1.399c1.008-0.483,2.138-0.611,3.271-0.369    c1.854,0.396,3.366,1.906,3.765,3.758c0.092,0.426,0.112,0.851,0.099,1.273L23.584,5.66C24.44,4.045,26.132,3,28,3z M20.698,7    h0.077c0.062,0,0.121,0.008,0.182,0.024l24.526,6.603C45.787,13.709,46,13.987,46,14.302c0,0.437-0.441,0.817-0.957,0.674    L20.517,8.373C20.213,8.291,20,8.013,20,7.698C20,7.313,20.313,7,20.698,7z"/>

<rect height="2" width="2" x="42" y="50"/>

<rect height="2" width="2" x="20" y="50"/>

</g>

</g>

</svg>