<?xml version="1.0" ?>


<svg width="800px" height="800px" viewBox="0 0 64 64" id="Layer_1_1_" version="1.1" xml:space="preserve" xmlns="http://www.w3.org/2000/svg" xmlns:xlink="http://www.w3.org/1999/xlink">

<g>

<polygon points="32,43 27,45 27,62 29,62 35,62 37,62 37,45  " style="fill:#00F4CB;"/>

<path d="M47.972,40.27L39,37.279v-2.801c0.109-0.09,0.208-0.19,0.313-0.284C40.468,34.713,41.724,35,43,35c4.963,0,9-4.038,9-9   c0-3.451-1.95-6.521-5-8.036V16c0-1.46-0.209-2.902-0.622-4.286l-1.916,0.571C44.819,13.484,45,14.733,45,16v4.026   c-0.584-0.442-1.257-0.773-2-0.924V18h-2c-3.009,0-5.992-0.995-8.4-2.8L32,14.75l-0.6,0.45C28.992,17.005,26.009,18,23,18h-2v1.101   c-0.743,0.152-1.416,0.482-2,0.924V16c0-1.267,0.181-2.516,0.538-3.714l-1.916-0.571C17.209,13.098,17,14.54,17,16v8   c0,2.555,1.934,4.645,4.411,4.94c0.611,2.197,1.878,4.123,3.589,5.538v2.801l-8.972,2.991C12.423,41.471,10,44.832,10,48.633   c0,1.746,0.512,3.437,1.48,4.891L12,54.303V63h40v-8.697l0.52-0.779c0.969-1.454,1.48-3.145,1.48-4.89   C54,44.832,51.577,41.471,47.972,40.27z M39,41c0,1.654-1.346,3-3,3c-1.16,0-2.188-0.667-2.685-1.675l4.833-3.222l0.217,0.073   C38.769,39.699,39,40.331,39,41z M25.632,39.177l0.22-0.073l4.833,3.222C30.188,43.333,29.16,44,28,44c-1.654,0-3-1.346-3-3   C25,40.336,25.23,39.699,25.632,39.177z M45,24c0,1.317-0.859,2.427-2.042,2.829C42.979,26.554,43,26.28,43,26v-4.816   C44.161,21.598,45,22.698,45,24z M42.589,28.94C45.066,28.645,47,26.555,47,24v-3.726c1.852,1.29,3,3.395,3,5.726   c0,3.86-3.141,7-7,7c-0.764,0-1.518-0.138-2.236-0.38C41.588,31.532,42.214,30.29,42.589,28.94z M19,24   c0-1.302,0.839-2.402,2-2.816V26c0,0.28,0.021,0.554,0.042,0.829C19.859,26.427,19,25.317,19,24z M23,26v-6   c3.193,0,6.36-0.98,9-2.772C34.64,19.02,37.807,20,41,20v6c0,4.962-4.037,9-9,9S23,30.962,23,26z M32,37   c1.801,0,3.498-0.444,5-1.214v1.679l-5,3.333l-5-3.333v-1.679C28.502,36.556,30.199,37,32,37z M14,55h4v0.171   c0,0.625,0.08,1.236,0.222,1.829H14V55z M14,59h5v-0.009c0.28,0.499,0.61,0.973,1,1.407V61h-6V59z M44,61v-0.602   c0.39-0.434,0.72-0.908,1-1.407V59h5v2H44z M50,55v2h-4.222C45.92,56.407,46,55.796,46,55.171V55H50z M50.855,52.415L50.465,53   h-4.687c-0.3-1.256-0.9-2.421-1.778-3.398V47h-2v3.414l0.293,0.293C43.394,51.808,44,53.272,44,54.829V55v0.171   c0,1.557-0.606,3.021-1.707,4.122L42,59.586V61H22v-1.414l-0.293-0.293C20.606,58.192,20,56.728,20,55.171V55v-0.171   c0-1.557,0.606-3.021,1.707-4.122L22,50.414V47h-2v2.602c-0.878,0.977-1.479,2.142-1.778,3.398h-4.687l-0.39-0.585   C12.396,51.291,12,49.983,12,48.633c0-2.939,1.873-5.537,4.661-6.466l6.443-2.148C23.039,40.341,23,40.668,23,41   c0,2.757,2.243,5,5,5c1.617,0,3.077-0.784,4-2.022C32.923,45.216,34.383,46,36,46c2.757,0,5-2.243,5-5   c0-0.332-0.034-0.659-0.098-0.978l6.437,2.146C50.127,43.096,52,45.694,52,48.633C52,49.983,51.604,51.291,50.855,52.415z"/>

<circle cx="27" cy="23" r="1"/>

<path d="M41.126,16.18l-0.572-0.285C40.516,15.876,36.688,14,32,14s-8.516,1.876-8.554,1.895l-0.571,0.284   l-4.804-3.841C17.391,11.794,17,10.981,17,10.108c0-1.053,0.575-2.016,1.502-2.515l11.143-6.001c1.447-0.775,3.265-0.775,4.71,0   l11.145,6.001C46.425,8.093,47,9.056,47,10.108c0,0.873-0.391,1.686-1.072,2.229L41.126,16.18z" style="fill:#00F4CB;"/>

<circle cx="37" cy="23" r="1"/>

<path d="M32,32c2.206,0,4-1.794,4-4h-2c0,1.103-0.897,2-2,2s-2-0.897-2-2h-2C28,30.206,29.794,32,32,32z"/>

<rect height="1.969" width="2" x="31.036" y="47.302"/>

<rect height="1.969" width="2" x="31" y="52.031"/>

<polygon points="31,11 33,11 33,9 35,9 35,7 33,7 33,5 31,5 31,7 29,7 29,9 31,9  "/>

<rect height="1.969" width="2" x="30.964" y="56.761"/>

</g>

</svg>