<?xml version="1.0" ?>


<svg width="800px" height="800px" viewBox="0 0 64 64" id="Layer_1_1_" version="1.1" xml:space="preserve" xmlns="http://www.w3.org/2000/svg" xmlns:xlink="http://www.w3.org/1999/xlink">

<g>

<g>

<rect height="6" style="fill:#00F4CB;" width="10" x="35" y="56"/>

</g>

<g>

<path d="M32,2c-2.943,0-5.671,0.912-7.924,2.463L26,14h12l1.924-9.537C37.671,2.912,34.943,2,32,2z" style="fill:#00F4CB;"/>

</g>

<g>

<polygon points="45,51 35,51 38,45 47,45   " style="fill:#00F4CB;"/>

</g>

<g>

<rect height="6" style="fill:#00F4CB;" width="10" x="19" y="56"/>

</g>

<g>

<polygon points="19,51 29,51 26,45 17,45   " style="fill:#00F4CB;"/>

</g>

<g>

<circle cx="27" cy="23" r="1"/>

<circle cx="37" cy="23" r="1"/>

<path d="M32,32c2.206,0,4-1.794,4-4h-2c0,1.103-0.897,2-2,2s-2-0.897-2-2h-2C28,30.206,29.794,32,32,32z"/>

<path d="M49.214,40.685L39,37.279v-2.801c1.711-1.415,2.978-3.341,3.589-5.538C45.066,28.645,47,26.555,47,24v-8    c0-8.271-6.729-15-15-15S17,7.729,17,16v8c0,2.555,1.934,4.645,4.411,4.94c0.611,2.197,1.878,4.123,3.589,5.538v2.801    l-10.214,3.405C11.924,41.638,10,44.307,10,47.324V63h44V47.324C54,44.307,52.076,41.638,49.214,40.685z M52,47.324V53h-6v-1.053    c0-1.185,0.19-2.355,0.564-3.479l1.968-5.904l0.049,0.016C50.626,43.263,52,45.169,52,47.324z M19.332,47.836l-1.968-5.903    l5.129-1.71l2.967,5.935l-0.015,0.01l0.082,0.123L28,51.236V61h-8v-9.053C20,50.547,19.775,49.164,19.332,47.836z M28.039,46.842    l3.894-2.596L32,44.198l0.067,0.048l3.894,2.596L34,50.764V61h-4V50.764L28.039,46.842z M36,51.236l2.473-4.945l0.082-0.123    l-0.015-0.01l2.967-5.935l5.129,1.71l-1.968,5.903C44.225,49.164,44,50.547,44,51.947V61h-8V51.236z M39.59,39.584l-2.728,5.456    l-3.193-2.129l4.544-3.786L39.59,39.584z M21,18.747v0.354c-0.743,0.152-1.416,0.482-2,0.924v-3.24    C19.503,17.486,20.181,18.146,21,18.747z M20.257,15h23.485c-1.101,2.294-5.694,5-11.743,5S21.359,17.294,20.257,15z M43,18.747    c0.819-0.602,1.497-1.261,2-1.961v3.24c-0.584-0.442-1.257-0.773-2-0.924V18.747z M42.958,26.829C42.979,26.554,43,26.28,43,26    v-4.816c1.161,0.414,2,1.514,2,2.816C45,25.317,44.141,26.427,42.958,26.829z M33.849,3.147L33.117,9h-2.234l-0.732-5.853    C30.757,3.06,31.371,3,32,3C32.629,3,33.243,3.06,33.849,3.147z M28.189,3.572L29.117,11h5.766l0.928-7.428    C38.78,4.485,41.292,6.438,42.937,9H41v2h2.997c0.268,0.641,0.476,1.312,0.64,2H19.363c0.163-0.688,0.371-1.359,0.64-2H23V9    h-1.937C22.708,6.438,25.22,4.485,28.189,3.572z M19,24c0-1.302,0.839-2.402,2-2.816V26c0,0.28,0.021,0.554,0.042,0.829    C19.859,26.427,19,25.317,19,24z M23,26v-6.039C25.493,21.21,28.675,22,32,22s6.507-0.79,9-2.039V26c0,4.962-4.037,9-9,9    S23,30.962,23,26z M32,37c1.801,0,3.498-0.444,5-1.214v1.745l-5,4.167l-5-4.167v-1.745C28.502,36.556,30.199,37,32,37z     M25.787,39.125l4.544,3.786l-3.193,2.129l-2.728-5.456L25.787,39.125z M15.419,42.581l0.049-0.016l1.968,5.904    C17.81,49.592,18,50.763,18,51.947V53h-6v-5.676C12,45.169,13.374,43.263,15.419,42.581z M12,55h6v6h-6V55z M46,61v-6h6v6H46z"/>

</g>

</g>

</svg>