<?xml version="1.0" encoding="utf-8"?>

<svg fill="#000000" version="1.1" id="Layer_1" xmlns="http://www.w3.org/2000/svg" xmlns:xlink="http://www.w3.org/1999/xlink" 
	 width="800px" height="800px" viewBox="0 0 256 248" enable-background="new 0 0 256 248" xml:space="preserve">
<path d="M114.479,24.689c11.986,0,21.703,9.717,21.703,21.703s-9.717,21.703-21.703,21.703s-21.703-9.717-21.703-21.703
	S102.492,24.689,114.479,24.689z M34.867,156.209l-0.2-0.2l0,0c-0.9-0.6-1.7-1.1-2.4-1.9l2.4,27.504L4.462,224.419
	c-4.301,6.201-2.8,14.602,3.2,18.903c6.201,4.301,14.602,2.8,18.903-3.2l32.605-47.007c1.7-2.4,2.8-5.601,2.4-8.801l-1.1-13.302
	L34.867,156.209z M124.58,245.722H254l-24.204-75.511c0,0-13.702,3.401-40.806,32.205c-0.6,0.6-1.3,1.3-1.9,1.9l-65.41-37.806
	c1.1-2.1,1.3-4.501,0.9-7.101L99.376,73.396c-1.9-8.401-9.401-14.802-18.203-14.802H37.867c-3.2,0-6.401,1.7-8.201,4.501
	L8.063,100.6c-2.8,4.501-1.1,10.302,3.401,12.902l24.204,13.902l-3.2,5.401c-3.901,6.401-1.7,14.602,4.901,18.203l54.308,31.305
	v49.608c0,7.501,6.001,13.502,13.502,13.502c7.501,0,13.502-6.001,13.502-13.502v-56.609l60.109,34.805
	c-12.402,7.101-26.604,8.401-36.706,14.402C129.681,231.92,124.58,245.722,124.58,245.722z M40.267,119.503l-15.902-9.201l0,0
	l18.903-32.605h21.203L40.267,119.503z M75.173,139.706l15.002-26.204l11.202,41.206L75.173,139.706z M232.573,34.069
	c-1.115-12.706,6.692-24.845,6.692-24.845h-0.208c1.935,0,3.504-1.569,3.504-3.504s-1.569-3.504-3.504-3.504h-38.41
	c-1.935,0-3.504,1.569-3.504,3.504s1.569,3.504,3.504,3.504h-0.202c0,0,7.807,12.139,6.692,24.845
	c-1.482,16.891-21.427,25.111-21.427,51.885c0,26.056,19.766,37.916,19.766,37.916h28.758c0,0,19.766-11.86,19.766-37.916
	C254,59.179,234.056,50.96,232.573,34.069z"/>
</svg>