<?xml version="1.0" encoding="utf-8"?>

<svg fill="#000000" height="800px" width="800px" version="1.2" baseProfile="tiny" id="_x31_" xmlns="http://www.w3.org/2000/svg" xmlns:xlink="http://www.w3.org/1999/xlink"
	  viewBox="-63 65 128 128" xml:space="preserve">
<g>
	<circle cx="23.8" cy="76.9" r="10.4"/>
	<path d="M36.8,90h-60.2l-0.7-3h3.2v-4.8c0-0.9-0.3-1.5-0.7-2.1l-1-0.9c-0.4-0.2-1.1-0.4-1.6-0.4h-28.4v4.5h9.8c0.4,0,0.7,0.2,1,0.4
		l2.9,2.7c0.4,0.2,1,0.4,1.4,0.4h6.6c0,0.1,0,0.1,0,0.2l1,3.4c-0.3,0.2-0.5,0.4-0.7,0.6c-0.6,0.5-1,1.2-1.1,2
		c-0.1,0.4-0.2,0.8-0.2,1.2c0,2.4,2,4.5,4.4,4.6l1.8,6.7c0.2,0.7,1,1.2,1.7,1l3.8-1c0.7-0.2,1.2-1,1-1.7l-1.4-5.1H9.6v85.9
		c0,3.6,2.9,6.5,6.5,6.5s6.5-2.9,6.5-6.5v-45.2c0-0.7,0.5-1.3,1.3-1.3c0.7,0,1.3,0.5,1.3,1.3v45.5c0,3.6,2.9,6.5,6.5,6.5
		c3.6,0,6.5-2.9,6.5-6.5v-79.3c0-0.7,0.5-1.3,1.3-1.3c0.7,0,1.3,0.5,1.3,1.3v29.2c0,2.4,2.1,4.6,4.6,4.6c2.4,0,4.6-2.1,4.6-4.6V103
		C49.7,95.8,43.9,90,36.8,90z"/>
</g>
</svg>