<?xml version="1.0" encoding="utf-8"?>

<svg fill="#000000" version="1.1" id="Layer_1" xmlns="http://www.w3.org/2000/svg" xmlns:xlink="http://www.w3.org/1999/xlink" 
	 width="800px" height="800px" viewBox="0 0 256 173" enable-background="new 0 0 256 173" xml:space="preserve">
<path d="M128.253,56.864c15.186,0,27.432-12.247,27.432-27.432S143.536,2,128.253,2
	c-15.186,0-27.432,12.247-27.432,27.432C100.918,44.716,113.165,56.864,128.253,56.864z M64.571,136.32h-49.28
	c-15.969,0-16.851-24.395,0.294-24.395H58.3l24.493-36.054c7.25-9.895,15.48-14.598,27.138-14.598h36.544
	c11.659,0,19.888,4.311,27.138,14.598l24.591,36.054h43.01c17.243,0,16.165,24.395,0.588,24.395h-49.28
	c-3.919,0-8.622-1.372-11.365-5.584l-18.811-26.844l-0.098,67.209H94.844l-0.098-67.209l-18.811,26.844
	C73.192,134.85,68.49,136.32,64.571,136.32z"/>
<g>
	<path d="M249.183,52.674h-48.347c-2.678,0-4.837,1.999-4.837,4.457v32.737c0,2.458,2.159,4.457,4.837,4.457h48.327
		c2.678,0,4.837-1.999,4.837-4.457V57.131C254.02,54.673,251.861,52.674,249.183,52.674z M249.643,89.309c0,0.3-0.28,0.56-0.6,0.56
		h-48.067c-0.34,0-0.6-0.26-0.6-0.56V73.5h49.266V89.309z M249.643,61.588h-49.266v-3.897c0-0.3,0.28-0.56,0.6-0.56h48.047
		c0.34,0,0.6,0.26,0.6,0.56v3.897H249.643z"/>
	<rect x="204.554" y="82.194" width="10.113" height="3.957"/>
	<rect x="218.604" y="82.194" width="14.63" height="3.957"/>
</g>
<path d="M15.763,87.779v4.571c0,2.556-2.064,4.571-4.571,4.571S6.62,94.906,6.62,92.35v-4.571H2V72.836l0,0
	c0-3.293,2.212-5.997,5.21-6.832l5.358-12.731c0.786-1.868,2.605-3.195,4.768-3.195h27.378c2.163,0,3.981,1.327,4.768,3.195
	l5.308,12.731C57.788,66.84,60,69.543,60,72.836l0,0v14.942h-4.669v4.571c0,2.556-2.064,4.571-4.571,4.571
	c-2.556,0-4.571-2.015-4.571-4.571v-4.571H15.763z M11.486,79.57c2.556,0,4.62-2.064,4.62-4.62c0-2.556-2.064-4.62-4.62-4.62
	s-4.62,2.064-4.62,4.62S8.931,79.57,11.486,79.57 M54.839,74.95c0-2.556-2.064-4.62-4.62-4.62c-2.556,0-4.62,2.064-4.62,4.62
	s2.064,4.62,4.62,4.62S54.839,77.506,54.839,74.95 M50.219,65.758l-4.571-11.01c-0.197-0.541-0.737-0.934-1.376-0.934H17.729
	c-0.59,0-1.131,0.393-1.327,0.934l-4.571,11.01H50.219z"/>
<g id="shopping_cart">
</g>
<g id="cross">
</g>
<g id="leaf">
</g>
</svg>