<?xml version="1.0" encoding="utf-8"?>

<svg fill="#000000" version="1.1" id="Layer_1" xmlns="http://www.w3.org/2000/svg" xmlns:xlink="http://www.w3.org/1999/xlink" 
	 width="800px" height="800px" viewBox="0 0 256 252" enable-background="new 0 0 256 252" xml:space="preserve">
<path d="M50.738,58.969C50.738,45.779,61.517,35,74.849,35S98.96,45.637,98.96,58.969
	c0,13.19-10.779,23.969-24.111,23.969S50.738,72.159,50.738,58.969z M99.386,90.881c-2.695-2.553-5.815-4.255-10.353-4.255H74.849
	H60.241c-4.539,0-7.375,1.702-10.07,4.255l-32.195,32.195c-8.793,8.793,3.12,19.998,11.914,11.346L49.32,114.85v18.296h25.387
	h25.245v-18.438l20.14,19.998c8.084,8.51,20.282-2.837,11.914-11.346L99.386,90.881z M99.953,142.648l-19.005,19.147l14.041,14.041
	l-14.325,14.325c-8.51,8.51,3.262,20.565,11.914,11.772l22.693-23.544c4.964-4.964,6.24-14.183,0.993-19.431L99.953,142.648z
	 M54.426,175.694l14.041-14.041l-19.005-19.005l-16.452,16.31c-5.248,5.248-3.829,14.467,0.993,19.431l22.693,23.544
	c8.793,8.793,20.423-3.404,12.055-11.772L54.426,175.694z M198.608,91.221c-1.756-1.828-1.698-4.734,0.13-6.491
	s4.734-1.698,6.491,0.13s1.698,4.734-0.13,6.491S200.364,93.049,198.608,91.221z M229.263,82.637
	c1.828-1.756,1.887-4.662,0.13-6.491s-4.662-1.887-6.491-0.13c-1.828,1.756-1.887,4.662-0.13,6.491S227.434,84.394,229.263,82.637z
	 M171.883,56.775c1.828-1.756,1.887-4.662,0.13-6.491c-1.756-1.828-4.662-1.887-6.491-0.13s-1.887,4.662-0.13,6.491
	S170.055,58.532,171.883,56.775z M239.094,60.108c1.828-1.756,1.887-4.662,0.13-6.491s-4.662-1.887-6.491-0.13
	s-1.887,4.662-0.13,6.491C234.36,61.806,237.266,61.864,239.094,60.108z M204.274,24.598c1.828-1.756,1.887-4.662,0.13-6.491
	c-1.756-1.828-4.662-1.887-6.491-0.13s-1.887,4.662-0.13,6.491C199.54,26.296,202.445,26.354,204.274,24.598z M229.857,35.032
	c1.828-1.756,1.887-4.662,0.13-6.491c-1.756-1.828-4.662-1.887-6.491-0.13s-1.887,4.662-0.13,6.491
	C225.123,36.73,228.029,36.788,229.857,35.032z M182.436,34.261c1.828-1.756,1.887-4.662,0.13-6.491
	c-1.756-1.828-4.662-1.887-6.491-0.13s-1.887,4.662-0.13,6.491S180.607,36.017,182.436,34.261z M190.179,61.832l-16.368,15.724
	l-1.58,6.822l6.88-1.305l16.368-15.724c4.637,2.618,10.782,2.02,15.012-2.044c5.15-4.947,5.309-12.88,0.362-18.03
	s-12.88-5.309-18.03-0.362C188.593,50.978,187.573,56.91,190.179,61.832z M253.968,54.72c0,21.672-13.201,40.348-31.968,48.417V119
	h-15.232v88.777c0,17.087-13.772,30.858-30.859,30.858h-26.12v11.181H2V215h148v13.484l26.675-0.05
	c11.476,0,20.657-9.181,20.657-20.657V119H182v-15.814c-18.828-8.041-32.083-26.75-32.083-48.466
	c0-29.073,23.463-52.536,52.536-52.536C231.271,2.184,254.989,25.646,253.968,54.72z M241.747,34.102
	c-11.375-21.68-38.232-30.052-59.912-18.677c-21.68,11.375-30.052,38.232-18.677,59.912c11.375,21.68,38.232,30.052,59.912,18.677
	C244.75,82.639,253.122,55.782,241.747,34.102z"/>
</svg>