<?xml version="1.0" encoding="utf-8"?>

<svg fill="#000000" version="1.1" id="Layer_1" xmlns="http://www.w3.org/2000/svg" xmlns:xlink="http://www.w3.org/1999/xlink" 
	 width="800px" height="800px" viewBox="0 0 256 190" enable-background="new 0 0 256 190" xml:space="preserve">
<path d="M48.12,27.903C48.12,13.564,59.592,2,74.023,2c14.339,0,25.903,11.564,25.903,25.903
	C99.834,42.335,88.27,53.806,74.023,53.806C59.684,53.806,48.12,42.242,48.12,27.903z M191,139h-47V97c0-20.461-17.881-37-38-37H43
	C20.912,60,1.99,79.14,2,98v77c-0.026,8.533,6.001,12.989,12,13c6.014,0.011,12-4.445,12-13v-75h8v88h78v-88h8l0.081,50.37
	c-0.053,8.729,5.342,12.446,10.919,12.63h60C207.363,163,207.363,139,191,139z M254,77.181c0,27.246-22.073,49.319-49.319,49.319
	s-49.319-22.073-49.319-49.319s22.073-49.319,49.319-49.319S254,49.936,254,77.181z M196.35,54.398c0,4.62,3.712,8.332,8.332,8.332
	c4.62,0,8.332-3.751,8.332-8.332c0-4.62-3.751-8.332-8.332-8.332C200.101,46.066,196.35,49.817,196.35,54.398z M248.353,77.102
	c0-23.337-18.361-42.329-41.421-43.514c11.017,1.145,19.585,10.424,19.585,21.718c0,12.083-9.793,21.836-21.836,21.836
	c-12.083,0-21.836,9.793-21.836,21.836c0,11.293,8.569,20.612,19.585,21.718c0.75,0.079,1.501,0.118,2.251,0.118
	C228.768,120.814,248.314,101.268,248.353,77.102z M204.681,91.633c4.601,0,8.332,3.73,8.332,8.332c0,4.601-3.73,8.332-8.332,8.332
	c-4.601,0-8.332-3.73-8.332-8.332C196.35,95.364,200.08,91.633,204.681,91.633z"/>
</svg>