<?xml version="1.0" encoding="utf-8"?>

<svg fill="#000000" height="800px" width="800px" version="1.2" baseProfile="tiny" id="Layer_1" xmlns="http://www.w3.org/2000/svg" xmlns:xlink="http://www.w3.org/1999/xlink"
	  viewBox="-271 273 256 256" xml:space="preserve">
<path id="XMLID_5_" d="M-74.2,480.4c-3.2-9.4,2-19.6,11.3-22.7c9.4-3.2,19.6,1.9,22.8,11.2c3.2,9.5-1.9,19.6-11.3,22.8
	S-71.1,489.9-74.2,480.4z M-20.6,514.9c-1.1-3.3-4.1-5.5-7.3-5.7l-26.6-1.2l-27.3-24.8c0,0-2.6-2.9-8.1-3.1l-63.9,5l-95.2,9.9
	c-0.1,0-0.2,0-0.3,0l0,0l0,0c-4.1,0.5-8.4,4.5-8.4,9.4c0,5.2,4.2,9.4,9.4,9.4l175.5,2l0,0l6.6,5.4c0,0,3,3.1,8.8,3.4l22.2,1.1l0,0
	l7.1,0.1c0.8,0,1.7-0.1,2.6-0.4C-21.5,523.9-19.1,519.2-20.6,514.9z M-266.5,389.4c13.5-15.9,38.1-27,59.1-23.5
	c2.4-28.9-0.9-56,13.5-82.6C-238.6,286.3-259.5,354.6-266.5,389.4 M-108,338.7c9.4-11.1,31.7-16.9,43.3-6.4
	c-30.4-42.5-68.1-69.7-121.5-51.6C-144.4,293.4-115.1,332.4-108,338.7 M-116.3,340.4c-14.6-20.4-60.5-53-70.8-51
	c-10.8,2.2-13.7,63.3-12.8,76.5c6.4-12.1,16.2-21.1,27.5-26.7l46.6,126.9l6.4-1.5l-47-127.9C-150.8,330.8-132.9,331.4-116.3,340.4z"
	/>
</svg>