<?xml version="1.0" encoding="utf-8"?>

<svg fill="#000000" version="1.1" id="Biologist" xmlns="http://www.w3.org/2000/svg" xmlns:xlink="http://www.w3.org/1999/xlink" 
	 width="800px" height="800px" viewBox="0 0 300 300" xml:space="preserve">
<path d="M54.1,29.3C54.1,16.7,64.4,6.5,77,6.5s22.9,10.1,22.9,22.8S89.6,52.2,77,52.2S54.1,41.9,54.1,29.3z M148,139h-22.4
	c-4.6,0-8.7-1.8-11.6-5v67h-8v81.5c0,6.9-5.6,12.5-12.5,12.5S81,289.4,81,282.5V201h-8v81.5c0,6.9-5.6,12.5-12.5,12.5
	S48,289.4,48,282.5V201h-8v-32.9c-2.4,2.4-5.8,3.9-9.5,3.9c-7.4,0-13.5-6.1-13.5-13.5V87c0-16,13-29,29-29h14.2L72,76.6V58h10v18.6
	L93.8,58H108c16,0,29,13,29,29v25h11V97h17v15h4.4c7.5,0,13.6,6.1,13.6,13.6c0,9.3-8.1,13.6-13.6,13.6H165v7.4
	c0,4.7-3.8,8.5-8.5,8.5s-8.5-3.8-8.5-8.5V139z M165,131.1h4.4c3.1,0,5.6-2.2,5.6-5.6c0-3.1-2.5-5.6-5.6-5.6L165,120V131.1z
	 M148,131.1V120h-19V87c0-11.6-9.4-21-21-21h-9.8L77,99.5L55.8,66H46c-11.6,0-21,9.4-21,21v71.5c0,3,2.5,5.5,5.5,5.5
	s5.5-2.5,5.5-5.5V97l12,0.1v96h58v-96h12v26.5c0,4.2,3.4,7.5,7.6,7.5H148z M259,175v-12h-30.1c-7.9-4-12.8-10.1-12.8-16.6
	c0-6.8,5.5-13.3,14.3-17.3l7.3,12.6l12.6-7.3l-22.1-38.2l-12.6,7.3l9.8,16.9c-12,5.7-19.2,15.3-19.2,26c0,6,2.4,11.7,6.6,16.6H203
	v12h-55v12h135v-12H259z M239.2,152.8l19.6-11.3l-2.9-5.1l-19.6,11.3L239.2,152.8z"/>
</svg>