<?xml version="1.0" encoding="utf-8"?>

<svg fill="#000000" version="1.1" id="Layer_1" xmlns="http://www.w3.org/2000/svg" xmlns:xlink="http://www.w3.org/1999/xlink" 
	 width="800px" height="800px" viewBox="0 0 256 190" enable-background="new 0 0 256 190" xml:space="preserve">
<path d="M48.12,27.903C48.12,13.564,59.592,2,74.023,2c14.339,0,25.903,11.564,25.903,25.903
	C99.834,42.335,88.27,53.806,74.023,53.806C59.684,53.806,48.12,42.242,48.12,27.903z M191,139h-47V97c0-20.461-17.881-37-38-37H43
	C20.912,60,1.99,79.14,2,98v77c-0.026,8.533,6.001,12.989,12,13c6.014,0.011,12-4.445,12-13v-75h8v88h78v-88h8l0.081,50.37
	c-0.053,8.729,5.342,12.446,10.919,12.63h60C207.363,163,207.363,139,191,139z M204.801,53.455c2.752,0,4.982-2.23,4.982-4.982
	c0-2.752-3.114-7.473-4.982-7.473c-1.868,0-4.982,4.721-4.982,7.473C199.819,51.225,202.049,53.455,204.801,53.455z
	 M174.791,102.308c-2.834,0-5.477-1.18-7.355-3.218V83.347c0-6.879,5.576-12.455,12.455-12.455h19.928V55.946h9.964v14.946h19.928
	c6.879,0,12.455,5.576,12.455,12.455v15.745c-1.878,2.04-4.523,3.221-7.358,3.221c-3.426,0-6.577-1.721-8.416-4.582
	c-0.351-0.567-0.985-0.903-1.646-0.882c-0.62,0.019-1.188,0.346-1.519,0.864c-1.853,2.88-5.002,4.599-8.427,4.599
	c-3.426,0-6.577-1.721-8.439-4.619c-0.352-0.539-0.961-0.86-1.601-0.844c-0.625,0.012-1.202,0.337-1.538,0.862
	c-1.852,2.881-5.002,4.601-8.427,4.601c-3.421,0-6.568-1.715-8.421-4.59c-0.336-0.535-0.92-0.864-1.553-0.874
	c-0.009,0-0.019,0-0.029,0c-0.635,0-1.228,0.323-1.572,0.858C181.368,100.587,178.217,102.308,174.791,102.308z M221.615,88.64
	c0,1.72,1.394,3.114,3.114,3.114s3.114-1.394,3.114-3.114c0-1.72-1.394-3.114-3.114-3.114S221.615,86.92,221.615,88.64z
	 M201.687,88.64c0,1.72,1.394,3.114,3.114,3.114c1.72,0,3.114-1.394,3.114-3.114c0-1.72-1.394-3.114-3.114-3.114
	C203.081,85.526,201.687,86.92,201.687,88.64z M181.759,88.64c0,1.72,1.394,3.114,3.114,3.114c1.72,0,3.114-1.394,3.114-3.114
	c0-1.72-1.394-3.114-3.114-3.114C183.153,85.526,181.759,86.92,181.759,88.64z M242.166,120.712v-16.787
	c-2.163,1.37-4.7,2.126-7.358,2.126c-3.842,0-7.432-1.576-10.005-4.311c-2.572,2.733-6.162,4.309-10.003,4.309c0,0,0,0,0,0
	c-3.841,0-7.431-1.576-10.003-4.309c-2.572,2.733-6.161,4.309-10.003,4.309c-3.841,0-7.431-1.576-10.003-4.309
	c-2.572,2.732-6.16,4.306-10.001,4.306c-2.657,0-5.192-0.754-7.355-2.123v16.79h-11.834v6.831H254v-6.831H242.166z"/>
</svg>