<?xml version="1.0" encoding="utf-8"?>

<svg fill="#000000" version="1.1" id="Layer_1" xmlns="http://www.w3.org/2000/svg" xmlns:xlink="http://www.w3.org/1999/xlink" 
	 width="800px" height="800px" viewBox="0 0 215 256" enable-background="new 0 0 215 256" xml:space="preserve">
<path d="M107.5,27.63c-11.01,0-19.82,8.61-19.82,19.82c0,10.81,8.81,19.81,19.82,19.81s19.82-8.8,19.82-19.81
	S118.51,27.63,107.5,27.63z M107.5,2L2.02,55.04V254h210.96V55.04L107.5,2z M75.47,102.89c0-1.4,1.01-2.6,2.61-2.6
	c1.4,0,2.6,1,2.6,2.6v26.02h-4.81L75.47,102.89z M137.8,215.57c-3.93,0-7.12,3.18-7.12,7.12c0,3.94,3.19,7.12,7.12,7.12v2.77H86.69
	v-0.03c-5.26-0.21-9.49-4.54-9.49-9.86c0-0.45,0.12-55.23,0.12-55.23c0-5.44,4.44-9.88,9.88-9.88h50.6V215.57z M139.93,128.91h-4.81
	v-26.02h-0.4c0-1.4,1-2.6,2.6-2.6c1.6,0,2.61,1,2.61,2.6V128.91z M204.58,128.91h-47.64V98.09c0-13.61-11.01-24.62-24.62-24.62
	H83.08c-13.61,0-24.62,11.01-24.62,24.62v30.82H10.62V60.25l96.88-48.64l97.08,48.84V128.91z M79.93,222.66
	c0,3.94,3.22,7.15,7.15,7.12h43.9c-1.86-1.8-3.06-4.32-3.06-7.12c0-2.82,1.23-5.35,3.15-7.15l-44.56,0.09
	C82.85,215.87,79.93,218.93,79.93,222.66z M87.68,47.45c0,10.81,8.81,19.81,19.82,19.81s19.82-8.8,19.82-19.81
	s-8.81-19.82-19.82-19.82S87.68,36.24,87.68,47.45z M107.5,27.63c-11.01,0-19.82,8.61-19.82,19.82c0,10.81,8.81,19.81,19.82,19.81
	s19.82-8.8,19.82-19.81S118.51,27.63,107.5,27.63z"/>
</svg>