<?xml version="1.0" encoding="utf-8"?>

<svg fill="#000000" version="1.2" baseProfile="tiny" id="Layer_1" xmlns="http://www.w3.org/2000/svg" xmlns:xlink="http://www.w3.org/1999/xlink"
	  viewBox="-63 65 128 128" xml:space="preserve">
<g id="_x31_">
</g>
<g id="Layer_1_1_">
	<g>
		<rect x="-15.2" y="123.2" width="72.2" height="6.6"/>
		<circle cx="-4.1" cy="80.3" r="14.6"/>
		<path d="M-0.6,133.6h-24.5v-18.3l-12.7-21.7c-0.5-0.8-0.1-2,0.6-2.5c0.8-0.5,2-0.1,2.5,0.6l14.6,25.1c1.1,1.9,3.1,3.2,5.5,3.2
			h25.1c3.6,0,6.4-3,6.4-6.4c0-3.6-3-6.4-6.4-6.4l-21,0.2l-16.7-28.2c-1.2-2.3-3.7-3.4-6.6-3.4c-0.4,0-1.3,0.1-1.8,0.2
			c-0.4,0.1-0.9,0.2-1.3,0.4c-12.3,4-22,23.5-22,43.5c-0.1,6,0,11.1,0.4,16c-0.5,5.8,3,11.5,8.7,13.6c1.5,0.5,3,0.8,4.5,0.8h36.6
			v34.3c0,4.7,3.7,8.3,8.3,8.3c4.7,0,8.3-3.7,8.3-8.3V142c0-2.1-0.8-4.4-2.5-5.8C3.5,134.6,1.4,133.6-0.6,133.6z"/>
	</g>
</g>
</svg>