<?xml version="1.0" encoding="utf-8"?>

<svg fill="#000000" height="800px" width="800px" version="1.2" baseProfile="tiny" id="_x31_" xmlns="http://www.w3.org/2000/svg" xmlns:xlink="http://www.w3.org/1999/xlink"
	  viewBox="0 0 128 128" xml:space="preserve">
<g>
	<path d="M77.9,21.7c0.1-1.2-0.1-2.3-0.1-2.4c-0.1-0.6-0.7-1-1.4-0.9c-0.6,0.1-1,0.7-0.9,1.4c0,0,0.5,2.6-0.8,3.5
		c-0.2,0.1-0.5,0.3-0.7,0.4c-2,1.1-4.1,2.5-3.6,5.5c0.1,0.6,0.6,1,1.1,1c0.1,0,0.1,0,0.2,0c0.6-0.1,1-0.7,0.9-1.3
		c-0.2-1.3,0.5-1.9,2.5-3.1c0.2-0.1,0.5-0.3,0.7-0.4c0.5-0.3,0.9-0.7,1.1-1.1c3.3-0.6,5.2,2.2,5.2,2.3c0.2,0.3,0.6,0.5,1,0.5
		c0.2,0,0.4-0.1,0.6-0.2c0.5-0.3,0.7-1,0.4-1.7C83.3,23.9,81.1,21.7,77.9,21.7z"/>
	<path d="M100.2,24.4c-0.6-1.3-1.4-2.2-2.4-2.7c-0.1-1.3-0.6-2.5-1.7-3.5c-1.1-1.1-2.8-1.9-4.4-1.9c-2-2.3-6.7-3.6-10.6-3.1
		c-2-0.9-4.4-0.9-6.2-0.9c-0.2,0-0.4,0-0.6,0H74c-2.1,0-5.6-0.1-7.5,1.7c-1.9-0.7-4.9-0.4-7.3,0.3c-3,0.9-5.1,2.4-5.8,4.1
		c-2,0.5-4.4,2.3-5.9,4.3c-1.1,1.7-2.3,4.1-1.2,7.3c-1.1,2.9-0.5,6.1,1.7,8.7c2.3,2.6,5.6,3.7,8.6,2.9c1.7,0.2,2.9,0.1,3.7-0.1
		c0.2,1.4,0.7,3.3,2.4,4.8c0.6,1.5,2,2.7,3.6,3.1c1.9,0.5,4,0.2,5.6-0.9c0.6-0.1,1.2-0.1,2-0.2c-0.1,1.1,0,2.3,0.3,3.2
		c0.1,0.5,0.5,1.3,1.3,2c0,0,2.6,1.8,2.5,1.5c1.3,0.5,2.8,0.7,4.6,0.7c1.4,0,2.6-0.1,3.7-0.2c0,0.1,2.2-0.3,2.2-0.3
		c1-0.2,2-0.6,2.9-1c1.3,0,2.7-0.5,3.7-1.5s1.5-2.3,1.7-3.6c3.2-2.3,4.9-7.2,3.9-12.2C102,33.5,101.8,27.9,100.2,24.4z M93.8,37.4
		c-0.7,0-1.4,0-2.3,0.1c-3.6,0.3-5.3,3.9-5.4,4.1c-0.3,0.6,0,1.3,0.6,1.5c0.2,0.1,0.3,0.1,0.5,0.1c0.5,0,0.9-0.2,1-0.7
		c0,0,1.2-2.5,3.5-2.8c0.6-0.1,1.3-0.1,2.1-0.1c1.5,0,3.3,0,4.8-0.8c0.1,3.7-1.2,7.1-3.6,8.5c-0.4,0.2-0.6,0.6-0.6,1
		c0.1,1-0.3,2-0.9,2.6c-0.6,0.6-1.3,0.9-2.2,0.9c-3.1-1.1-3-3.7-2.9-4c0.1-0.6-0.4-1.2-1-1.3c-0.6-0.1-1.2,0.4-1.3,1
		c-0.2,1.2,0.2,3.6,2.4,5.3c-1.4,0.4-3.3,0.6-5.9,0.6c-2.8,0-4.8-0.6-5.7-1.9c-0.7-0.9-0.9-2.2-0.6-3.7c3.5-0.6,4.5,0.9,4.6,1
		c0.2,0.3,0.6,0.6,1,0.6c0.2,0,0.4-0.1,0.6-0.2c0.6-0.3,0.7-1,0.5-1.5c-0.1-0.1-2.1-3.4-7.9-2.1c-1.1,0.2-2.3,0.3-3.1,0.4
		c-2.5-3-0.7-5.2-0.5-5.4c0.5-0.5,0.4-1.2-0.1-1.7c-0.5-0.5-1.2-0.4-1.7,0c-1.2,1.2-2.6,4.4-0.1,7.9c-0.8,0.3-1.9,0.3-2.7,0.1
		c-0.7-0.2-1.8-0.7-2.2-2c-0.1-0.2-0.2-0.4-0.4-0.5c-2.2-1.5-1.9-4.4-1.8-5c0.4-1.1,1.8-3.8,5.4-4.9c1.7-0.5,3-0.2,4.6,0.1
		c0.5,0.1,1,0.2,1.5,0.3c0.6,4.2,5.1,5.8,5.3,6c0.1,0.1,0.2,0.1,0.4,0.1c0.5,0,0.9-0.3,1.1-0.7c0.2-0.6-0.1-1.3-0.7-1.4
		c-0.1,0-2.9-1-3.6-3.5c3.9-0.1,5.3-3.1,5.5-4.6c0.1-0.6-0.3-1.2-1-1.3c-0.6-0.1-1.2,0.3-1.3,1c-0.1,0.2-0.5,2.6-3.4,2.6
		c-1.1,0-2.3-0.2-3.2-0.4c-1.8-0.3-3.6-0.7-5.8-0.1C64.7,33.4,63,35,62,36.4c-0.7-1-1.9-1.8-2.8-2.3c-0.6-0.3-1.3-0.7-1.8-1.1
		c-1-1,0.2-3.2,0.2-3.2c0.3-0.5,0.2-1.3-0.4-1.5c-0.7-0.5-1.4-0.3-1.8,0.2c-0.8,1.4-1.8,4.2,0.2,6.2c0.6,0.6,1.4,1.1,2.3,1.5
		c1.5,0.9,2.5,1.4,2.5,3c-0.3,0.2-1.1,0.6-3.7,0.3c-0.2,0-0.3,0-0.5,0.1c-2.2,0.6-4.6-0.2-6.4-2.2c-1.8-2-2.2-4.4-1.1-6.6
		c0.1-0.3,0.1-0.6,0-0.9c-0.9-2.4-0.1-4.3,0.8-5.6c0.7-1.1,1.9-2,2.7-2.6c0.3,0.2,0.6,0.2,0.9,0.2c3-0.7,5,2.7,5.2,2.9
		c0.2,0.4,0.6,0.6,1,0.6c0.2,0,0.4-0.1,0.6-0.2c0.6-0.3,0.7-1,0.5-1.5c-0.1-0.2-1.8-3.1-4.8-4c0.4-1.1,2.1-2.3,4.4-2.9
		c3.1-0.9,5.5-0.7,6-0.3c1.9,2.6,0.7,4-0.7,6c-0.3,0.4-0.6,0.7-0.9,1.1c-2.4,3.5-0.6,6.2,0.6,7.1c0.2,0.2,0.5,0.2,0.7,0.2
		c0.3,0,0.7-0.2,0.9-0.5c0.4-0.5,0.3-1.2-0.2-1.7c-0.3-0.2-1.8-1.5-0.1-3.9c0.2-0.3,0.5-0.7,0.7-1c1.3-1.8,3.4-4.3,1.2-8
		c1.3-0.9,4.4-0.9,5.8-0.9h0.2c0.2,0,0.4,0,0.6,0c1.5,0,4,0,5.4,0.7c0.2,0.1,0.5,0.2,0.8,0.1c3.3-0.6,7.1,0.6,8.6,2
		c-0.6,1.3-1.8,4.1-1.1,6.9c0.7,3.2,0.8,4-1.8,5c-0.6,0.2-0.9,0.9-0.7,1.5c0.2,0.5,0.6,0.7,1.1,0.7c0.1,0,0.3,0,0.4-0.1
		c1.8-0.6,2.7-1.4,3.2-2.4c0.3,0.1,0.5,0.3,0.6,0.5c0.8,1,0.7,3,0.6,3.6c-0.1,0.6,0.3,1.2,1,1.3c0.1,0,0.1,0,0.2,0
		c0.6,0,1-0.4,1.1-1c0.1-0.3,0.5-3.4-1.1-5.5c-0.5-0.7-1.2-1.1-2.1-1.4c-0.1-0.9-0.2-2-0.5-2.9c-0.5-2.1,0.5-4.3,0.9-5.4
		c1,0.1,2,0.5,2.7,1.1c0.7,0.7,1,1.7,0.9,2.6c-0.1,0.6,0.3,1.1,0.9,1.3c0.6,0.1,1.2,0.7,1.8,1.8c1.4,2.8,1.7,7.5,0.5,10.3
		C97.4,37.3,96,37.4,93.8,37.4z"/>
	<path d="M69.5,2.2c-22.6,0-43.5,17-47.8,35.7C20.7,42.1,19.6,53,19.6,53L9.3,79.3c-0.2,0.5-0.3,0.9-0.3,1.5c0,2.3,1.8,4,4,4h6.7
		v13.9c0,10.8,8.8,19.6,19.6,19.6h7.9v8.3h53.2V91.4c11.7-9.1,19.1-23.4,19.1-39.3C119.4,24.5,97.1,2.2,69.5,2.2z M31.9,63
		c-3,0-5.6-2.5-5.6-5.6c0-3,2.5-5.6,5.6-5.6s5.6,2.5,5.6,5.6S35,63,31.9,63z M102.1,80.3c0,0,1.2-14.2-11.4-20.3
		c-0.3-0.3-8.3-2.5-11.1-2.7c-0.2-0.1-3.6-0.2-3.5-0.1C38,55.9,38.5,22,38.5,22c7.9-8.4,19-13.6,31.4-13.6
		c23.8,0,43.2,19.3,43.2,43.2C113.1,62.5,108.9,72.6,102.1,80.3z"/>
</g>
</svg>