<?xml version="1.0" encoding="utf-8"?>

<svg fill="#000000" version="1.1" id="Layer_1" xmlns="http://www.w3.org/2000/svg" xmlns:xlink="http://www.w3.org/1999/xlink" 
	 width="800px" height="800px" viewBox="0 0 256 240" enable-background="new 0 0 256 240" xml:space="preserve">
<path d="M84.635,20.256c18.383,0,33.286,14.903,33.286,33.286s-14.903,33.286-33.286,33.286S51.349,71.925,51.349,53.542
	S66.251,20.256,84.635,20.256z M31.002,145.011c0-2.499,1.606-4.194,4.194-4.194s4.194,1.606,4.194,4.194v92.986h91.469v-92.986
	c0-2.499,1.606-4.194,4.194-4.194c2.499,0,4.194,1.606,4.194,4.194v92.986h29.092V136.623c0-22.934-18.74-41.585-41.585-41.585
	h-8.388l-24.451,38.015l-2.945-28.467l4.016-9.638H76.96l4.016,9.638l-3.123,28.645L53.401,95.038h-9.816
	C20.651,95.038,2,113.778,2,136.623v101.375h29.092v-92.986H31.002z M253.309,22.932L230.72,2.508
	c-0.777-0.722-1.998-0.666-2.72,0.111l-6.716,7.437c0,0-20.813-4.718-27.362-6.105c-5.217-1.055-7.992,1.943-8.603,4.551
	c-0.888,4.107-3.497,15.318-5.106,22.367c-0.666,3.053,0.999,6.216,3.996,7.104c3.275,0.999,6.605-0.999,7.382-4.274l2.109-8.991
	c0,0,4.773-3.83,11.877,2.997l28.805,28.805c1.277,1.332,1.277,3.441,0,4.718l0,0c-1.332,1.332-3.441,1.332-4.718,0l-10.767-10.934
	c-0.833-0.888-2.331-0.777-3.053,0.278c-0.555,0.777-0.388,1.887,0.278,2.553l10.934,11.1l0,0l0,0
	c1.332,1.332,1.332,3.608,0.056,4.884c-1.277,1.277-3.33,1.277-4.662-0.056l-10.989-11.045c-0.666-0.722-1.776-0.888-2.553-0.333
	c-1.11,0.722-1.221,2.165-0.333,3.053c0,0,7.604,7.604,10.823,10.878c1.277,1.332,1.221,3.441-0.111,4.662l0,0
	c-1.332,1.166-3.33,1.166-4.607-0.111L203.913,65.39c-0.888-0.888-2.331-0.777-3.053,0.278c-0.555,0.777-0.389,1.887,0.277,2.553
	l10.545,10.49c1.332,1.332,1.277,3.497-0.055,4.773l0,0c-1.277,1.221-3.386,1.221-4.662-0.056l-8.27-8.214
	c0.111-0.5,0.222-1.055,0.222-1.554c0-3.386-2.72-6.161-6.161-6.161c-0.5,0-0.999,0.111-1.499,0.167
	c0.111-0.499,0.167-0.944,0.167-1.499c0-3.386-2.72-6.161-6.161-6.161c-0.5,0-0.999,0.111-1.499,0.167
	c0.111-0.444,0.167-0.888,0.167-1.388c0-3.386-2.72-6.161-6.161-6.161c-0.444,0-0.888,0.055-1.277,0.111
	c0.111-0.5,0.167-0.944,0.167-1.499c0-3.386-2.72-6.161-6.161-6.161c-0.611,0-1.221,0.111-1.776,0.278l-13.209-13.154
	c-0.833-0.833-2.109-0.777-2.886,0.056c-0.721,0.833-0.611,2.054,0.167,2.831l12.71,12.543c-1.943,1.943-7.881,7.992-7.992,8.103
	c-0.943,1.055-1.387,2.498-1.387,3.83c0,3.441,2.886,6.161,6.327,6.161c0.444,0,0.888-0.055,1.277-0.111
	c-0.111,0.499-0.166,0.944-0.166,1.499c0,3.386,2.72,6.161,6.161,6.161c0.5,0,0.999-0.111,1.499-0.167
	c-0.111,0.444-0.167,0.888-0.167,1.388c0,3.386,2.72,6.161,6.161,6.161c0.499,0,0.999-0.111,1.499-0.167
	c-0.111,0.5-0.167,0.944-0.167,1.499c0,3.386,2.72,6.161,6.161,6.161c2.054,0,3.83-0.999,4.94-2.498l6.993-7.049
	c0,0,5.661,5.717,7.604,7.604c3.996,3.83,8.825,1.665,10.323,0c1.277-1.388,2.054-3.053,2.109-4.829
	c0.222,0.056,0.444,0.056,0.666,0.056c1.887,0,3.719-0.666,5.162-2.109c1.443-1.499,2.165-3.441,2.109-5.384
	c0.055,0.056,2.942,0.333,5.328-2.054c1.499-1.499,2.22-3.552,2.109-5.55c0.111,0,2.997,0.222,5.384-2.109
	c2.886-2.775,2.72-7.604-0.111-10.434l-5.439-5.439c2.22-0.777,6.161-2.498,8.547-5.994c0.777-1.166,5.217-7.992,5.217-7.992
	l7.826-8.603C254.252,24.875,254.141,23.654,253.309,22.932z"/>
</svg>