<?xml version="1.0" encoding="utf-8"?>

<svg fill="#000000" version="1.1" id="Layer_1" xmlns="http://www.w3.org/2000/svg" xmlns:xlink="http://www.w3.org/1999/xlink" 
	 width="800px" height="800px" viewBox="0 0 256 240" enable-background="new 0 0 256 240" xml:space="preserve">
<path d="M84.635,20.256c18.383,0,33.286,14.903,33.286,33.286s-14.903,33.286-33.286,33.286S51.349,71.925,51.349,53.542
	S66.251,20.256,84.635,20.256z M31.002,145.011c0-2.499,1.606-4.194,4.194-4.194s4.194,1.606,4.194,4.194v92.986h91.469v-92.986
	c0-2.499,1.606-4.194,4.194-4.194c2.499,0,4.194,1.606,4.194,4.194v92.986h29.092V136.623c0-22.934-18.74-41.585-41.585-41.585
	h-8.388l-24.451,38.015l-2.945-28.467l4.016-9.638H76.96l4.016,9.638l-3.123,28.645L53.401,95.038h-9.816
	C20.651,95.038,2,113.778,2,136.623v101.375h29.092v-92.986H31.002z M249.974,2h-86.382c-2.237,0-4.026,1.79-4.026,4.026v86.456
	c0,2.237,1.79,4.026,4.026,4.026h86.382c2.237,0,4.026-1.79,4.026-4.026V6.026C254,3.79,252.21,2,249.974,2z M249.526,49.161
	h-11.259c-3.504-0.634-6.002-5.63-3.318-7.792c2.423-1.79,4.026-4.66,4.026-7.866c0-5.369-4.287-9.656-9.656-9.656
	c-5.369,0-9.656,4.287-9.656,9.656c0,3.206,1.603,6.077,4.026,7.866c2.684,2.237,0.186,7.344-3.579,7.792h-13.347V35.814v-0.186
	c0-3.654-5.108-6.338-7.233-3.765c-1.603,2.237-4.287,3.765-7.233,3.765c-4.921,0-8.948-4.026-8.948-8.948s4.026-8.948,8.948-8.948
	c3.057,0,5.63,1.529,7.233,3.765c2.162,2.61,7.233-0.186,7.233-3.654V6.474h42.762V49.161z M164.039,49.348h11.184
	c3.504,0.634,6.002,5.63,3.318,7.792c-2.423,1.79-4.026,4.66-4.026,7.866c0,5.369,4.287,9.656,9.656,9.656s9.656-4.287,9.656-9.656
	c0-3.206-1.603-6.077-4.026-7.866c-2.684-2.237-0.186-7.419,3.579-7.792h13.347v13.347v0.186c0,3.654,5.108,6.338,7.233,3.765
	c1.603-2.237,4.287-3.765,7.233-3.765c4.921,0,8.948,4.026,8.948,8.948c0,4.921-4.026,8.948-8.948,8.948
	c-3.057,0-5.63-1.529-7.233-3.765c-2.162-2.61-7.233,0.186-7.233,3.654v11.371h-42.688V49.348z"/>
</svg>