<?xml version="1.0" encoding="utf-8"?>

<svg fill="#000000" version="1.1" id="Layer_1" xmlns="http://www.w3.org/2000/svg" xmlns:xlink="http://www.w3.org/1999/xlink" 
	 width="800px" height="800px" viewBox="0 0 251 256" enable-background="new 0 0 251 256" xml:space="preserve">
<path d="M90.232,21.494c19.63,0,35.543,15.913,35.543,35.543S109.861,92.58,90.232,92.58S54.689,76.667,54.689,57.037
	S70.602,21.494,90.232,21.494z M32.963,154.709c0-2.668,1.715-4.479,4.479-4.479c2.763,0,4.479,1.715,4.479,4.479V254h97.671
	v-99.291c0-2.668,1.715-4.479,4.479-4.479c2.668,0,4.479,1.715,4.479,4.479V254h31.064V145.751
	c0-24.489-20.011-44.405-44.405-44.405h-8.957l-26.109,40.593l-3.145-30.397l4.288-10.291H82.037l4.288,10.291L82.99,142.13
	l-26.109-40.784H46.399c-24.489,0-44.405,20.011-44.405,44.405V254h31.064v-99.291H32.963z M242.128,2h-41.622
	c-3.88,0-7.011,3.131-7.011,7.011v98.898c0,3.88,3.131,7.011,7.011,7.011h41.49c3.88,0,7.011-3.131,7.011-7.011V9.011
	C249.006,5.131,245.876,2,242.128,2z M221.316,110.906c-2.249,0-4.145-1.896-4.145-4.145s1.896-4.145,4.145-4.145
	s4.145,1.896,4.145,4.145C225.461,109.01,223.565,110.906,221.316,110.906z M244.244,98.252h-45.855V18.534h45.988v79.718H244.244z"
	/>
</svg>