<?xml version="1.0" encoding="utf-8"?>

<svg fill="#000000" version="1.1" id="Layer_1" xmlns="http://www.w3.org/2000/svg" xmlns:xlink="http://www.w3.org/1999/xlink" 
	 width="800px" height="800px" viewBox="0 0 256 240" enable-background="new 0 0 256 240" xml:space="preserve">
<path d="M84.635,20.256c18.383,0,33.286,14.903,33.286,33.286s-14.903,33.286-33.286,33.286S51.349,71.925,51.349,53.542
	S66.251,20.256,84.635,20.256z M31.002,145.011c0-2.499,1.606-4.194,4.194-4.194s4.194,1.606,4.194,4.194v92.986h91.469v-92.986
	c0-2.499,1.606-4.194,4.194-4.194c2.499,0,4.194,1.606,4.194,4.194v92.986h29.092V136.623c0-22.934-18.74-41.585-41.585-41.585
	h-8.388l-24.451,38.015l-2.945-28.467l4.016-9.638H76.96l4.016,9.638l-3.123,28.645L53.401,95.038h-9.816
	C20.651,95.038,2,113.778,2,136.623v101.375h29.092v-92.986H31.002z M254,2v94h-90V2H254z M246,88V10h-73v78H246L246,88z M206,69h30
	v-8h-30V69z M183,29h53v-9h-53V29z M183,45h53v-9h-53V45z M197.988,69.303c0,3.099-2.103,5.609-4.988,6.383V79h-5v-3.093
	c-0.97-0.221-2.705-0.812-3.849-1.587l-0.59-0.443L185,69.856l0.996,0.627c1.218,0.849,2.73,1.291,4.243,1.291
	c1.808,0,3.026-0.922,3.026-2.288c0-0.922-0.332-1.919-3.136-3.063c-2.952-1.181-6.014-2.878-6.014-6.605
	c0-3.026,1.956-5.313,4.885-6.088V50h3v3.51c2.631,0.148,3.848,0.59,4.992,1.218l0.627,0.443l-1.513,3.948l-0.922-0.59
	c-0.59-0.295-1.808-0.996-3.727-0.996c-1.956,0-2.583,0.996-2.583,1.919c0,1.033,0.48,1.734,3.505,2.952
	C195,63.473,198.025,65.281,197.988,69.303z"/>
</svg>