<?xml version="1.0" encoding="utf-8"?>

<svg fill="#000000" version="1.1" id="Layer_1" xmlns="http://www.w3.org/2000/svg" xmlns:xlink="http://www.w3.org/1999/xlink" 
	 width="800px" height="800px" viewBox="0 0 209 256" enable-background="new 0 0 209 256" xml:space="preserve">
<path d="M56.791,18.444C66.257,5.346,76.394,0.52,90.133,2.386c18.39,2.497,31.274,19.43,28.776,37.819
	c-2.497,18.39-19.321,30.273-37.819,28.776c-23.7-1.917-41.461-18.693-47.885-33.689c0-0.001-0.001-0.002-0.002-0.003
	C43.405,33.994,50.811,26.719,56.791,18.444z M206.937,214.418h-23.748v11.805h-7.875v-11.805h-39.375v11.805h-7.875v-11.805
	h-23.625V254h102.498V214.418z M132.782,175.064v-46.829c0-2.35,1.905-4.255,4.254-4.255c2.35,0,4.255,1.905,4.255,4.255v54.665
	h-0.125v0.04h-36.727v23.604h102.498v-23.604h-36.134v-0.04h-0.985v-61.955c0.001-23.264-19.009-42.184-42.185-42.184h-21.226
	l-20.18,61.023l-20.18-61.023h-21.8c-23.265,0-42.185,19.01-42.185,42.185v111.08c0,7.878,6.386,14.264,14.264,14.264
	s14.264-6.386,14.264-14.264l0.02-103.847c0-2.319,1.88-4.199,4.199-4.199s4.199,1.88,4.199,4.199v125.623h57.555v-78.737H132.782z"
	/>
</svg>