<?xml version="1.0" encoding="utf-8"?>

<svg fill="#000000" height="800px" width="800px" version="1.2" baseProfile="tiny" id="Layer_1" xmlns="http://www.w3.org/2000/svg" xmlns:xlink="http://www.w3.org/1999/xlink"
	  viewBox="0 0 256 256" xml:space="preserve">
<path id="XMLID_1_" d="M256,208h-23l-11.8,6.8l-46.3,35c-3.8,3-8.8,4.9-13.3,4.9l-84.1-0.2c-9.5,0-13.7-6.5-13.6-13.4
	c0-6.9,6.9-13.3,13.8-13.3l49.1,0.1c0.7,3.1,2.7,8,4.9,10.3c6.5,6.5,18.3,6.2,24.7-0.3l24-23.5l-3.8-4.2l-24,23.5
	c-5,4.6-13,4.5-17.5-0.5c-1.5-1.5-2.6-3.5-3-5.3c-0.8-1.9-0.8-4.2-0.3-6.1c0.8-2.3,1.9-4.2,3.8-6.1l43.8-42.5
	c3.6-4.3,8.8-7.4,14.7-8.1c1.3-0.2,2.6-0.2,3.9-0.1l0.2,0l0.2,0.1L231,165v0h25V208z M208,5v89h-30V73h-13v21h-31V5h20V0h36v5H208z
	 M159,52h-13v12h13V52z M159,32h-13v13h13V32z M159,15h-13v11h13V15z M178,52h-13v12h13V52z M178,32h-6.4h-0.1H165v13h13V32z
	 M178,15h-6.4h-0.1H165v11h6.5h0.1h6.4V15z M197,52h-13v12h13V52z M197,32h-13v13h1.3H197V32z M197,15h-13v11h13V15z M181.2,107.9
	l-49.1,0.1c-0.7,3.1-2.7,8-4.9,10.3c-6.5,6.5-18.3,6.2-24.7-0.3l-24-23.5l3.8-4.2l24,23.5c5,4.6,13,4.5,17.5-0.5
	c1.5-1.5,2.6-3.5,3-5.3c0.8-1.9,0.8-4.2,0.3-6.1c-0.8-2.3-1.9-4.2-3.8-6.1L79.6,53.3C76,49,70.8,46,64.8,45.2
	c-1.3-0.2-2.6-0.2-3.9-0.1l-0.2,0l-0.2,0.1L24,46H0v43h24.8l12.8,5.8l46.3,34.9c3.8,3,8.8,4.9,13.3,4.9l84.1-0.2
	c9.5,0,13.7-6.5,13.6-13.3C195,114.3,188.1,107.9,181.2,107.9z M85.8,186.1c0,11.5-9.3,20.7-20.7,20.7s-20.7-9.3-20.7-20.7
	c0-11.5,9.3-20.7,20.7-20.7S85.8,174.6,85.8,186.1z M73.7,191.2c0-3.5-2.3-5.7-6.6-7.3c-3.2-1.3-4.6-1.9-4.6-3.5
	c0-1.3,1.3-2.4,3.7-2.4s4.2,0.6,5.2,1.1l1.4-4.5c-1.4-0.6-3.7-1.3-5.7-1.3V170h-4v3.4c-4,1-6.3,3.7-6.3,7.2c0,3.7,2.9,5.9,7.1,7.3
	c3,1.1,4.1,1.9,4.1,3.5s-1.5,2.7-4,2.7c-2.4,0-4.8-0.8-6.3-1.6l-1.2,4.6c1.3,0.6,4.7,1.4,6.7,1.4v3.3h4v-3.5
	C71,197.5,73.7,194.7,73.7,191.2z M127,156v60H3v-60H127z M108.8,162H21.1c-1.6,6-6.1,10.9-12.1,12.4v23c6,1.6,10.6,6.5,12.1,11.5
	h87.8c1.6-5,6.2-10,12.2-11.5v-23C115,172.9,110.2,168,108.8,162z"/>
</svg>