<?xml version="1.0" encoding="utf-8"?>

<svg fill="#000000" height="800px" width="800px" version="1.2" baseProfile="tiny" id="Layer_1" xmlns="http://www.w3.org/2000/svg" xmlns:xlink="http://www.w3.org/1999/xlink"
	  viewBox="0 0 256 256" xml:space="preserve">
<g id="XMLID_5_">
	<path id="XMLID_3_" d="M87.9,62c13.1,0,23.6-10.6,23.6-23.6s-10.5-23.6-23.6-23.6c-13,0-23.6,10.6-23.6,23.6S74.8,62,87.9,62z"/>
	<path id="XMLID_2_" d="M0.7,191.1c5.5,0,10.8-1.3,15.6-3.4c4.9-2.3,10.4-3.6,16.2-3.6c5.7,0,11.3,1.3,16.1,3.6
		c4.8,2.1,10.1,3.4,15.7,3.4c5.6,0,10.9-1.2,15.7-3.4c4.9-2.3,10.4-3.6,16.2-3.6c5.7,0,11.2,1.3,16.2,3.6c4.7,2.1,10.1,3.4,15.7,3.4
		c5.6,0,10.9-1.2,15.7-3.4c4.9-2.3,10.4-3.6,16.2-3.6c5.7,0,11.2,1.3,16.1,3.6c4.8,2.1,10.1,3.4,15.7,3.4c5.6,0,10.9-1.2,15.7-3.4
		c4.9-2.3,10.4-3.6,16.1-3.6c4.9,0,9.7,0.9,14,2.6c7-7.7,11.4-17.9,11.4-29.1c0-23.8-19.3-43.1-43-43.1l-4.8,0.5
		c-5.3,21.5-26.8,22.4-26.8,22.4l-98.3,0l-8.2-4.8l19.8-33.3l21.7,12.5c13,8.4,19.8-3.4,19.8-3.4l21.7-35.5
		c9.5-15.4-10.6-27.8-20-12.3l-15.2,24.9l-36.2-20c-25.1-14-35.7,9.2-35.7,9.2l-28.4,48.7c-4.8,10.1-0.5,14.5-0.5,14.5l-14,0V191.1z
		"/>
	<path id="XMLID_1_" d="M255.4,238.1c-5.6,0-10.9-1.2-15.6-3.4c-4.9-2.3-10.4-3.6-16.2-3.6c-5.7,0-11.3,1.3-16.1,3.6
		c-4.8,2.1-10.1,3.4-15.7,3.4c-5.6,0-10.9-1.2-15.7-3.4c-4.9-2.3-10.4-3.6-16.1-3.6c-5.8,0-11.3,1.3-16.2,3.6
		c-4.7,2.1-10.1,3.4-15.7,3.4c-5.6,0-10.9-1.2-15.7-3.4c-4.9-2.3-10.4-3.6-16.2-3.6c-5.8,0-11.3,1.3-16.2,3.6
		c-4.8,2.1-10.1,3.4-15.7,3.4c-5.6,0-10.9-1.2-15.7-3.4c-4.9-2.3-10.4-3.6-16.1-3.6c-5.7,0-11.3,1.3-16.2,3.6
		c-4.8,2.1-10.1,3.4-15.7,3.4v-23.5c5.6,0,10.9-1.3,15.7-3.4c4.9-2.3,10.4-3.6,16.2-3.6c5.7,0,11.3,1.3,16.1,3.6
		c4.8,2.1,10.1,3.4,15.7,3.4c5.6,0,10.9-1.3,15.7-3.4c4.9-2.3,10.4-3.6,16.2-3.6c5.7,0,11.2,1.3,16.2,3.6c4.7,2.1,10.1,3.4,15.7,3.4
		c5.6,0,10.9-1.3,15.7-3.4c4.9-2.3,10.4-3.6,16.2-3.6c5.7,0,11.2,1.3,16.1,3.6c4.8,2.1,10.1,3.4,15.7,3.4c5.6,0,10.9-1.3,15.7-3.4
		c4.9-2.3,10.4-3.6,16.1-3.6c5.8,0,11.3,1.3,16.2,3.6c4.7,2.1,10.1,3.4,15.6,3.4V238.1z"/>
</g>
</svg>