<?xml version="1.0" encoding="utf-8"?>

<svg fill="#000000" version="1.1" id="Layer_1" xmlns="http://www.w3.org/2000/svg" xmlns:xlink="http://www.w3.org/1999/xlink" 
	 width="800px" height="800px" viewBox="0 0 256 190" enable-background="new 0 0 256 190" xml:space="preserve">
<path d="M48.12,27.903C48.12,13.564,59.592,2,74.023,2c14.339,0,25.903,11.564,25.903,25.903
	C99.834,42.335,88.27,53.806,74.023,53.806C59.684,53.806,48.12,42.242,48.12,27.903z M191,139h-47V97c0-20.461-17.881-37-38-37H43
	C20.912,60,1.99,79.14,2,98v77c-0.026,8.533,6.001,12.989,12,13c6.014,0.011,12-4.445,12-13v-75h8v88h78v-88h8l0.081,50.37
	c-0.053,8.729,5.342,12.446,10.919,12.63h60C207.363,163,207.363,139,191,139z M230.839,110.811v7.724
	c0,4.319,3.405,7.724,7.724,7.724c4.236,0,7.724-3.405,7.724-7.724v-7.724h7.89V85.563l0,0c0-5.564-3.737-10.132-8.803-11.544
	l-8.969-21.51c-1.329-3.156-4.402-5.398-8.056-5.398h-46.259c-3.654,0-6.727,2.242-8.056,5.398l-9.053,21.51
	c-5.066,1.412-8.803,5.98-8.803,11.544l0,0v25.247h7.807v7.724c0,4.319,3.488,7.724,7.724,7.724c4.236,0,7.724-3.405,7.724-7.724
	v-7.724H230.839z M172.205,96.941c-4.319,0-7.807-3.488-7.807-7.807s3.488-7.807,7.807-7.807c4.319,0,7.807,3.488,7.807,7.807
	C180.012,93.453,176.524,96.941,172.205,96.941 M245.456,89.134c0,4.319-3.488,7.807-7.807,7.807s-7.807-3.488-7.807-7.807
	s3.488-7.807,7.807-7.807S245.456,84.816,245.456,89.134 M172.787,73.604L180.51,55c0.332-0.914,1.246-1.578,2.242-1.578H227.6
	c1.08,0,1.993,0.664,2.325,1.578l7.724,18.603L172.787,73.604z"/>
</svg>