<?xml version="1.0" encoding="utf-8"?>

<svg fill="#000000" version="1.1" id="Layer_1" xmlns="http://www.w3.org/2000/svg" xmlns:xlink="http://www.w3.org/1999/xlink" 
	 width="800px" height="800px" viewBox="0 0 256 173" enable-background="new 0 0 256 173" xml:space="preserve">
<path d="M128.253,56.864c15.186,0,27.432-12.247,27.432-27.432S143.536,2,128.253,2
	c-15.186,0-27.432,12.247-27.432,27.432C100.918,44.716,113.165,56.864,128.253,56.864z M64.571,136.32h-49.28
	c-15.969,0-16.851-24.395,0.294-24.395H58.3l24.493-36.054c7.25-9.895,15.48-14.598,27.138-14.598h36.544
	c11.659,0,19.888,4.311,27.138,14.598l24.591,36.054h43.01c17.243,0,16.165,24.395,0.588,24.395h-49.28
	c-3.919,0-8.622-1.372-11.365-5.584l-18.811-26.844l-0.098,67.209H94.844l-0.098-67.209l-18.811,26.844
	C73.192,134.85,68.49,136.32,64.571,136.32z"/>
<g>
	<path d="M249.183,49.674h-48.347c-2.678,0-4.837,1.999-4.837,4.457v32.737c0,2.458,2.159,4.457,4.837,4.457h48.327
		c2.678,0,4.837-1.999,4.837-4.457V54.131C254.02,51.673,251.861,49.674,249.183,49.674z M249.643,86.309c0,0.3-0.28,0.56-0.6,0.56
		h-48.067c-0.34,0-0.6-0.26-0.6-0.56V70.5h49.266V86.309z M249.643,58.588h-49.266v-3.897c0-0.3,0.28-0.56,0.6-0.56h48.047
		c0.34,0,0.6,0.26,0.6,0.56v3.897H249.643z"/>
	<rect x="204.554" y="79.194" width="10.113" height="3.957"/>
	<rect x="218.604" y="79.194" width="14.63" height="3.957"/>
</g>
<path d="M30.957,99.543C46.939,99.543,60,86.568,60,70.5S47.025,41.457,30.957,41.457S2,54.518,2,70.586
	C2,86.568,14.975,99.543,30.957,99.543z M29.353,72.963c-5.327-1.862-8.65-4.554-8.65-9.337c0-4.411,2.921-7.877,8.278-8.965v-4.783
	h4.01v4.554c3.322,0,5.728,0.687,7.504,1.633l-1.633,5.728c-1.318-0.544-3.466-1.461-6.416-1.461s-4.554,1.461-4.554,2.921
	c0,2.005,1.862,2.778,5.872,4.411c5.471,2.005,8.02,4.783,8.02,9.337c0,4.554-2.778,8.02-8.65,9.337v4.554h-4.01v-4.411
	c-3.466,0-6.96-0.917-8.65-1.862l1.461-5.872c1.862,0.917,4.783,2.005,7.877,2.005c3.322,0,4.955-1.461,4.955-3.466
	S33.191,74.453,29.353,72.963z"/>
<g id="shopping_cart">
</g>
<g id="cross">
</g>
<g id="leaf">
</g>
</svg>