<?xml version="1.0" encoding="utf-8"?>

<svg fill="#000000" version="1.1" id="Layer_1" xmlns="http://www.w3.org/2000/svg" xmlns:xlink="http://www.w3.org/1999/xlink" 
	 width="800px" height="800px" viewBox="0 0 256 240" enable-background="new 0 0 256 240" xml:space="preserve">
<path d="M84.635,20.256c18.383,0,33.286,14.903,33.286,33.286s-14.903,33.286-33.286,33.286S51.349,71.925,51.349,53.542
	S66.251,20.256,84.635,20.256z M31.002,145.011c0-2.499,1.606-4.194,4.194-4.194s4.194,1.606,4.194,4.194v92.986h91.469v-92.986
	c0-2.499,1.606-4.194,4.194-4.194c2.499,0,4.194,1.606,4.194,4.194v92.986h29.092V136.623c0-22.934-18.74-41.585-41.585-41.585
	h-8.388l-24.451,38.015l-2.945-28.467l4.016-9.638H76.96l4.016,9.638l-3.123,28.645L53.401,95.038h-9.816
	C20.651,95.038,2,113.778,2,136.623v101.375h29.092v-92.986H31.002z M181,2v108h73V2H181z M204,93h-13V83h13V93z M204,76h-13V66h13
	V76z M204,59h-13V49h13V59z M224,93h-13V83h13V93z M224,76h-13V66h13V76z M224,59h-13V49h13V59z M244,93h-13V83h13V93z M244,76h-13
	V66h13V76z M244,59h-13V49h13V59z M244,36h-53V19h53V36z"/>
</svg>