<?xml version="1.0" encoding="utf-8"?>

<svg fill="#000000" version="1.1" id="Layer_1" xmlns="http://www.w3.org/2000/svg" xmlns:xlink="http://www.w3.org/1999/xlink" 
	 width="800px" height="800px" viewBox="0 0 256 173" enable-background="new 0 0 256 173" xml:space="preserve">
<path d="M128.253,56.864c15.186,0,27.432-12.247,27.432-27.432S143.536,2,128.253,2
	c-15.186,0-27.432,12.247-27.432,27.432C100.918,44.716,113.165,56.864,128.253,56.864z M64.571,136.32h-49.28
	c-15.969,0-16.851-24.395,0.294-24.395H58.3l24.493-36.054c7.25-9.895,15.48-14.598,27.138-14.598h36.544
	c11.659,0,19.888,4.311,27.138,14.598l24.591,36.054h43.01c17.243,0,16.165,24.395,0.588,24.395h-49.28
	c-3.919,0-8.622-1.372-11.365-5.584l-18.811-26.844l-0.098,67.209H94.844l-0.098-67.209l-18.811,26.844
	C73.192,134.85,68.49,136.32,64.571,136.32z"/>
<path d="M208.611,94.149l-0.865-7.96l7.03,1.795l-0.908-7.83l6.814,1.752l-0.908-7.917l8.89,1.795l5.429-5.429
	c5.256,1.146,10.988-0.303,15.098-4.413c6.403-6.403,6.424-16.764,0-23.188s-16.742-6.359-23.123,0.022
	c-4.067,4.067-5.559,9.755-4.456,14.968L196,83.356l0.303,11.681L208.611,94.149z M241.23,50.758c-1.406-1.406-1.428-3.72,0-5.148
	s3.72-1.428,5.148,0s1.428,3.72,0,5.148C244.929,52.208,242.636,52.164,241.23,50.758z"/>
<path d="M54.468,68.815c6.637-5.836,7.464-16.004,1.603-22.766l0,0c-5.836-6.637-16.004-7.464-22.766-1.603L31,46.45
	l-2.304-2.004c-6.637-5.836-16.931-5.034-22.766,1.603l0,0C0.069,52.711,0.895,62.98,7.532,68.815l23.092,23.668L54.468,68.815z"/>
<g id="shopping_cart">
</g>
<g id="cross">
</g>
<g id="leaf">
</g>
</svg>