<?xml version="1.0" encoding="utf-8"?>

<svg fill="#000000" version="1.1" id="Layer_1" xmlns="http://www.w3.org/2000/svg" xmlns:xlink="http://www.w3.org/1999/xlink" 
	 width="800px" height="800px" viewBox="0 0 256 240" enable-background="new 0 0 256 240" xml:space="preserve">
<path d="M84.635,20.256c18.383,0,33.286,14.903,33.286,33.286s-14.903,33.286-33.286,33.286S51.349,71.925,51.349,53.542
	S66.251,20.256,84.635,20.256z M31.002,145.011c0-2.499,1.606-4.194,4.194-4.194s4.194,1.606,4.194,4.194v92.986h91.469v-92.986
	c0-2.499,1.606-4.194,4.194-4.194c2.499,0,4.194,1.606,4.194,4.194v92.986h29.092V136.623c0-22.934-18.74-41.585-41.585-41.585
	h-8.388l-24.451,38.015l-2.945-28.467l4.016-9.638H76.96l4.016,9.638l-3.123,28.645L53.401,95.038h-9.816
	C20.651,95.038,2,113.778,2,136.623v101.375h29.092v-92.986H31.002z M179.254,72.482v8.546c0,4.778-3.488,8.546-7.724,8.546
	c-4.236,0-7.724-3.768-7.724-8.546v-8.546H156V44.547l0,0c0-6.157,3.737-11.211,8.803-12.773l9.053-23.8
	C175.185,4.481,178.258,2,181.912,2h46.259c3.654,0,6.727,2.481,8.056,5.973l8.969,23.8C250.263,33.336,254,38.39,254,44.547l0,0
	v27.936h-7.89v8.546c0,4.778-3.488,8.546-7.724,8.546c-4.319,0-7.724-3.768-7.724-8.546v-8.546H179.254z M172.029,57.136
	c4.319,0,7.807-3.86,7.807-8.638c0-4.778-3.488-8.638-7.807-8.638c-4.319,0-7.807,3.86-7.807,8.638S167.71,57.136,172.029,57.136
	 M245.28,48.498c0-4.778-3.488-8.638-7.807-8.638s-7.807,3.86-7.807,8.638s3.488,8.638,7.807,8.638S245.28,53.277,245.28,48.498
	 M237.473,31.314l-7.724-20.584c-0.332-1.011-1.246-1.746-2.325-1.746h-44.847c-0.997,0-1.91,0.735-2.242,1.746l-7.724,20.584
	L237.473,31.314z"/>
</svg>