<?xml version="1.0" encoding="utf-8"?>

<svg fill="#000000" version="1.1" id="Layer_1" xmlns="http://www.w3.org/2000/svg" xmlns:xlink="http://www.w3.org/1999/xlink" 
	 width="800px" height="800px" viewBox="0 0 256 173" enable-background="new 0 0 256 173" xml:space="preserve">
<path d="M128.253,56.864c15.186,0,27.432-12.247,27.432-27.432S143.536,2,128.253,2
	c-15.186,0-27.432,12.247-27.432,27.432C100.918,44.716,113.165,56.864,128.253,56.864z M64.571,136.32h-49.28
	c-15.969,0-16.851-24.395,0.294-24.395H58.3l24.493-36.054c7.25-9.895,15.48-14.598,27.138-14.598h36.544
	c11.659,0,19.888,4.311,27.138,14.598l24.591,36.054h43.01c17.243,0,16.165,24.395,0.588,24.395h-49.28
	c-3.919,0-8.622-1.372-11.365-5.584l-18.811-26.844l-0.098,67.209H94.844l-0.098-67.209l-18.811,26.844
	C73.192,134.85,68.49,136.32,64.571,136.32z"/>
<g>
	<path d="M63.218,67.143v11.681c0,6.44-5.24,11.681-11.681,11.681h-1.062v4.248c0,2.347-1.901,4.248-4.248,4.248H16.495
		c-2.347,0-4.248-1.901-4.248-4.248V54.916C9.718,53.509,8,50.809,8,47.716c0-4.253,3.241-7.762,7.383-8.187
		c1.407-4.935,5.989-8.49,11.245-8.49c3.273,0,6.371,1.372,8.567,3.735c1.187-0.523,2.477-0.796,3.799-0.796
		c4.534,0,8.4,3.318,9.246,7.664c3.066,0.873,5.291,3.703,5.291,7.019c0,2.442-1.208,4.609-3.056,5.933v6.178h6.371
		C60.359,60.772,63.218,63.631,63.218,67.143z M22.866,65.019h-4.248v21.238h4.248V65.019z M33.485,65.019h-4.248v21.238h4.248
		V65.019z M44.104,65.019h-4.248v21.238h4.248V65.019z M49.815,48.661c0-1.895-1.481-3.467-3.369-3.576l-1.707-0.098l-0.045-1.707
		c-0.082-3.079-2.639-5.586-5.7-5.586c-1.157,0-2.27,0.342-3.215,0.993l-1.529,1.051l-1.051-1.529
		c-1.492-2.164-3.948-3.454-6.57-3.454c-3.953,0-7.346,2.944-7.895,6.847l-0.226,1.601H16.23c-2.487,0-4.513,2.026-4.513,4.513
		s2.026,4.561,4.513,4.561h4.513v4.248c0,2.347,1.901,4.248,4.248,4.248s4.248-1.901,4.248-4.248v-4.248h16.99
		C48.203,52.277,49.815,50.636,49.815,48.661z M58.971,67.143c0-1.171-0.953-2.124-2.124-2.124h-6.371v21.238h1.062
		c4.099,0,7.433-3.334,7.433-7.433V67.143z"/>
</g>
<path d="M223.804,73.6v21.7h12.617V99h-28.409v-3.7h12.976V73.6c0-0.801-5.798-5.963-9.608-8.669
	c-3.285-2.347-8.835-6.46-8.835-17.283c0-8.78,5.108-16.648,5.108-16.648h29.514c0,0,5.108,7.813,5.108,16.565
	c0,10.823-5.549,14.936-8.862,17.283C229.602,67.581,223.804,72.717,223.804,73.6z M205.362,47.648c0,0.11,0,0.248,0,0.387h34.069
	c0-0.138,0-0.304,0-0.469c0-5.825-2.927-13.721-4.252-13.721h-25.538C208.316,36.163,205.362,41.823,205.362,47.648z"/>
<g id="shopping_cart">
</g>
<g id="cross">
</g>
<g id="leaf">
</g>
</svg>