<?xml version="1.0" encoding="utf-8"?>

<svg fill="#000000" height="800px" width="800px" version="1.2" baseProfile="tiny" id="Layer_1" xmlns="http://www.w3.org/2000/svg" xmlns:xlink="http://www.w3.org/1999/xlink"
	  viewBox="0 0 256 256" xml:space="preserve">
<path d="M82.6,1.3v13.1h13v52c-1.9-1.9-3.3-3.3-3.3-3.3c-4.5-4.5-10.4-6.8-16.4-6.8H57.2H34.4c-12.7,0-22.9,10.3-22.9,22.9v56.3
	c0,4.5,3.6,8,8,8s8-3.6,8-8V83.9c0-1.3,1.1-2.3,2.3-2.3c1.3,0,2.3,1.1,2.3,2.3v18.4v39.1V224c0,6.4,5.2,11.5,11.5,11.5
	s11.5-5.2,11.5-11.5v-80.5c0-1.3,1.1-2.3,2.3-2.3c1.3,0,2.3,1.1,2.3,2.3v80.3c0,6.4,5.2,11.5,11.5,11.5s11.5-5.2,11.5-11.5v-82.7
	V81.5c0-1.3,1.1-2.3,2.3-2.3c0.5,0,1.3,0.3,1.6,0.6l9.1,9.1v43.5H239V14.3h11v-13C250,1.3,82.6,1.3,82.6,1.3z M232.1,125.8H102.4
	v-30l0.3,0.3c0.6,0.5,1.5,1.1,2.5,1.5s1.9,0.5,3.1,0.5H121h5h18.8c4.5,0,8-3.6,8-8c0-1.5-0.4-2.8-1.1-4l21.3-29
	c0.5-0.9,0.4-2-0.4-2.6c-0.8-0.5-2-0.4-2.6,0.4l-20.8,28.7c-1.3-0.8-2.7-1.3-4.3-1.3h-18.8H121h-9.5c0,0-2.9-2.9-6.5-6.5
	c-0.9-0.9-1.7-1.7-2.7-2.7V18H232L232.1,125.8L232.1,125.8z M57.2,14.9c10.2,0,18.4,8.2,18.4,18.4s-8.2,18.4-18.4,18.4
	s-18.4-8.2-18.4-18.4S47,14.9,57.2,14.9z M5.3,239.8h244.2v13.5H5.3V239.8z"/>
</svg>