<?xml version="1.0" encoding="utf-8"?>

<svg fill="#000000" height="800px" width="800px" version="1.2" baseProfile="tiny" id="_x31_" xmlns="http://www.w3.org/2000/svg" xmlns:xlink="http://www.w3.org/1999/xlink"
	  viewBox="-63 65 128 128" xml:space="preserve">
<path d="M1.9,86.7c5.5,0,9.9,4.4,9.9,9.9c0,5.5-4.4,9.9-9.9,9.9S-8,102-8,96.6C-8,91.1-3.6,86.7,1.9,86.7z M-6.5,163.6
	c2,0,3.4-1.6,3.4-3.4c0-2-1.6-3.4-3.4-3.4c-1.9,0-3.4,1.6-3.4,3.4C-10,162.1-8.4,163.6-6.5,163.6z M-5.4,170.5
	c-0.4-1.1-1.5-1.5-2.4-1.1c-1.1,0.4-1.5,1.5-1.1,2.4c2,4.5,6.4,7.3,11.2,7.3c4.7,0,9.2-2.9,11.2-7.3c0.3-0.9,0-2-1.1-2.4
	c-0.9-0.3-2,0-2.4,1.1c-1.3,3-4.4,5-7.6,5C-0.9,175.5-4,173.5-5.4,170.5z M11.6,163.5c1.8,0,3.4-1.5,3.4-3.4c0-1.9-1.5-3.4-3.4-3.4
	c-2,0-3.4,1.5-3.4,3.4C8.2,162.1,9.8,163.5,11.6,163.5z M1.9,65.9L-51,92.5v99.6H54.7V92.5L1.9,65.9z M1.9,70.7l48.6,24.5v42.3H26.6
	V122c0-6.8-5.5-12.3-12.3-12.3h-24.7c-6.8,0-12.3,5.5-12.3,12.3v15.4h-23.9V95.1L1.9,70.7z M-14.2,124.4c0-0.7,0.5-1.3,1.3-1.3
	c0.7,0,1.3,0.5,1.3,1.3v13h-2.4L-14.2,124.4L-14.2,124.4z M1.9,146c10.9,0,19.8,8.8,19.8,19.8c0,10.9-8.9,19.8-19.8,19.8
	s-19.7-8.9-19.7-19.8S-9,146,1.9,146z M15.5,124.4c0-0.7,0.5-1.3,1.3-1.3s1.3,0.5,1.3,1.3v13h-2.4v-13H15.5z"/>
</svg>