<?xml version="1.0" encoding="utf-8"?>

<svg fill="#000000" height="800px" width="800px" version="1.1" id="Jury" xmlns="http://www.w3.org/2000/svg" xmlns:xlink="http://www.w3.org/1999/xlink" 
	 viewBox="0 0 128 128" xml:space="preserve">
<circle id="_x34__6_" cx="30" cy="39.6" r="6.6"/>
<path id="_x32__11_" d="M44,61v-4.9c0-4.5-3.7-8.2-8.2-8.2H24.2c-4.5,0-8.2,3.7-8.2,8.2V61H44z"/>
<circle id="_x34__7_" cx="64" cy="39.6" r="6.6"/>
<path id="_x32__12_" d="M78,61v-4.9c0-4.5-3.7-8.2-8.2-8.2H58.2c-4.5,0-8.2,3.7-8.2,8.2V61H78z"/>
<circle id="_x34__8_" cx="98" cy="39.6" r="6.6"/>
<path id="_x32__13_" d="M112,61v-4.9c0-4.5-3.7-8.2-8.2-8.2H92.2c-4.5,0-8.2,3.7-8.2,8.2V61H112z"/>
<path id="_x33__11_" d="M8,65v7.9h8V120h96V72.9h8V65H8z M84.5,98.3c-1.6,2.7-4.5,4.6-7.9,4.6s-6.3-1.8-7.9-4.6l0,0l0,0l0,0l0,0
	l6.6-11.4H65.1v20.6h8l4.6,4.6H50.3l4.6-4.6h8V86.9H52.8l6.6,11.4l0,0l0,0c-1.6,2.7-4.5,4.6-7.9,4.6s-6.3-1.8-7.9-4.6l0,0l0,0l0,0
	l0,0l7.9-13.7l0,0h11.4V76h2.3v8.6h11.4l0,0L84.5,98.3L84.5,98.3L84.5,98.3z"/>
<polygon id="_x32__19_" points="71.3,98.3 81.8,98.3 76.5,89.2 "/>
<polygon id="_x31__8_" points="46.2,98.3 56.6,98.3 51.4,89.2 "/>
</svg>