<?xml version="1.0" encoding="utf-8"?>

<svg fill="#000000" height="800px" width="800px" version="1.1" id="_x31__1_" xmlns="http://www.w3.org/2000/svg" xmlns:xlink="http://www.w3.org/1999/xlink" 
	 viewBox="0 0 128 128" xml:space="preserve">
<ellipse id="_x32_" transform="matrix(0.5439 -0.8392 0.8392 0.5439 25.168 69.3182)" cx="76.3" cy="11.5" rx="10.4" ry="10.4"/>
<path id="_x31_" d="M104.1,85.1l-5.7-18.5l17.9-5.5c3.1-0.8,6-2.6,7.9-5.5c3.9-6,2.2-14-3.8-17.9c0,0-23.4-15.2-23.5-15.2
	c-3.7-2.4-8.2-2.7-11.9-1.1L60.9,31l-17.3-7.4c-2.3-1-5,0.1-5.9,2.5c-1,2.3,0.1,5,2.5,5.9l19.2,8.1c1.1,0.4,2.3,0.4,3.4,0l14.5-5.9
	l26.5,17.2l-15.2,4.7c-0.9,0.2-1.7,0.7-2.4,1.4c-1.9,1.7-2.5,4.4-1.9,6.7L91.8,89c1,3.4,4.7,5.4,8,4.3
	C103.2,92.2,105.2,88.6,104.1,85.1z"/>
<polygon points="128,128 0,128 0,0 "/>
</svg>