<?xml version="1.0" encoding="utf-8"?>

<svg fill="#000000" height="800px" width="800px" version="1.1" id="Layer_1" xmlns="http://www.w3.org/2000/svg" xmlns:xlink="http://www.w3.org/1999/xlink" 
	 viewBox="0 0 128 128" xml:space="preserve">
<path d="M17.9,108.1v6.9v1.8v0.7c0,2.9,2.4,5.3,5.3,5.3h38.5c2.9,0,5.3-2.4,5.3-5.3v-1.2v-1.4v-6.8H17.9z"/>
<path d="M11,59h-0.8H8.5c-2.9,0-5.3,2.4-5.3,5.3v38.5c0,2.9,2.4,5.3,5.3,5.3h2.1h0h7.3V59H11z"/>
<polygon points="73.6,112.3 73.6,122.8 121.1,122.8 121.1,108 73.6,108 "/>
<polygon points="105.5,30.7 105.5,21.4 71.3,21.4 77.6,30.7 "/>
<path d="M77.7,34.4L72,41.8h7.8c0,7.1,5.7,12.8,12.8,12.8s12.8-5.7,12.8-12.8v-7.4H77.7z"/>
<path d="M121.1,101.5V74.4v-5.2v-1.7c0-4.7-3.8-8.5-8.5-8.5h-1.1L93.4,83.5l-13.3,18H121.1z"/>
<path d="M73.6,75.5v23.8L103.4,59H82.1c-0.1,0-0.2,0-0.3,0v0H77h-5.1c-2.8,0-6.8,2.2-8.8,4.9s-3.6,4.9-3.6,4.9L42.2,92.1
	c-1.9,2.5-1.3,6,1.2,7.9l0.6,0.4c2.5,1.8,6,1.3,7.9-1.2L73.6,70V75.5z"/>
</svg>