<?xml version="1.0" encoding="utf-8"?>

<svg fill="#000000" version="1.1" id="Data_x5F_Scientist" xmlns="http://www.w3.org/2000/svg" xmlns:xlink="http://www.w3.org/1999/xlink" x="0px"
	 y="0px" width="800px" height="800px" viewBox="0 0 300 300" xml:space="preserve">
<path d="M224.8,102.8c5.5,5.5,5.4,14.3,0,19.8l-34.9,34.6c-2.5,2.5-5.9,3.9-9.4,3.9H130v107H48v-96H38v82c0,7.7-6.3,14-14,14
	s-14-6.3-14-14v-88.5c0-17.9,14.6-32.5,32.5-32.5h24.4L83,167.4V133h10v34.4l16.1-34.4h65.7l30.2-30.2c1.7-1.7,3.8-2.9,5.9-3.5V116
	c0,2.3,2,4.2,4.4,4c2.1-0.2,3.6-2.1,3.6-4.2V99.3C221.1,100,223.1,101.1,224.8,102.8z M88.7,122.7c14.8,0,26.9-12,26.9-26.9
	S103.6,69,88.7,69c-14.8,0-26.9,12-26.9,26.9C61.9,110.7,73.9,122.7,88.7,122.7z M236.4,70.6c0,11.8-9.6,21.5-21.4,21.5
	s-21.5-9.6-21.5-21.5s9.6-21.5,21.5-21.5S236.4,58.7,236.4,70.6z M228.4,70.6c0-7.4-6-13.5-13.4-13.5c-7.4,0-13.5,6-13.5,13.5
	S207.6,84,215,84C222.4,84,228.4,78,228.4,70.6z M276,38v8h8v-8H276z M276,128v8h8v-8H276z M276,156v8h8v-8H276z M276,184v8h8v-8
	H276z M246,55v8h8v-8H246z M246,27v8h8v-8H246z M246,83v8h8v-8H246z M246,111v8h8v-8H246z M246,201v8h8v-8H246z M246,229v8h8v-8H246
	z M246,257v8h8v-8H246z M288,100h-4V66h-13c-2.2,0-4,1.8-4,4s1.8,4,4,4h5v26h-4c-2.2,0-4,1.8-4,4s1.8,4,4,4h16c2.2,0,4-1.8,4-4
	S290.2,100,288,100z M276,274v8h8v-8H276z M288,246h-4v-34h-13c-2.2,0-4,1.8-4,4s1.8,4,4,4h5v26h-4c-2.2,0-4,1.8-4,4s1.8,4,4,4h16
	c2.2,0,4-1.8,4-4S290.2,246,288,246z M264,177v-34c0-2.2-1.8-4-4-4h-20c-2.2,0-4,1.8-4,4v34c0,2.2,1.8,4,4,4h20
	C262.2,181,264,179.2,264,177z M244,147h12v26h-12V147z"/>
</svg>