<?xml version="1.0" encoding="utf-8"?>

<svg fill="#000000" version="1.1" id="Layer_1" xmlns="http://www.w3.org/2000/svg" xmlns:xlink="http://www.w3.org/1999/xlink" 
	 width="800px" height="800px" viewBox="0 0 256 190" enable-background="new 0 0 256 190" xml:space="preserve">
<path d="M48.12,27.903C48.12,13.564,59.592,2,74.023,2c14.339,0,25.903,11.564,25.903,25.903
	C99.834,42.335,88.27,53.806,74.023,53.806C59.684,53.806,48.12,42.242,48.12,27.903z M191,139h-47V97c0-20.461-17.881-37-38-37H43
	C20.912,60,1.99,79.14,2,98v77c-0.026,8.533,6.001,12.989,12,13c6.014,0.011,12-4.445,12-13v-75h8v88h78v-88h8l0.081,50.37
	c-0.053,8.729,5.342,12.446,10.919,12.63h60C207.363,163,207.363,139,191,139z M251.926,64.193l-0.342-1.241l-0.428-1.326
	c-3.423-9.713-9.499-17.971-17.586-23.833c-8.13-5.905-17.886-9.157-28.198-9.414h-0.043h-2.653c-4.878,0.086-9.2,0.856-14.12,2.396
	c-26.187,8.558-40.521,36.798-32.006,62.985c4.151,12.708,12.965,23.063,24.86,29.096c7.103,3.637,14.719,5.477,22.635,5.477
	c5.263,0,10.483-0.813,15.49-2.482c12.409-4.065,22.635-12.665,28.711-24.304C254.322,89.952,255.649,76.687,251.926,64.193z
	 M205.329,33c18.998,0.513,35.044,12.195,41.377,30.123l-41.377,13.436V33z"/>
</svg>