<?xml version="1.0" encoding="utf-8"?>

<svg fill="#000000" version="1.1" id="Layer_1" xmlns="http://www.w3.org/2000/svg" xmlns:xlink="http://www.w3.org/1999/xlink" 
	 width="800px" height="800px" viewBox="0 0 256 190" enable-background="new 0 0 256 190" xml:space="preserve">
<path d="M48.12,27.903C48.12,13.564,59.592,2,74.023,2c14.339,0,25.903,11.564,25.903,25.903
	C99.834,42.335,88.27,53.806,74.023,53.806C59.684,53.806,48.12,42.242,48.12,27.903z M191,139h-47V97c0-20.461-17.881-37-38-37H43
	C20.912,60,1.99,79.14,2,98v77c-0.026,8.533,6.001,12.989,12,13c6.014,0.011,12-4.445,12-13v-75h8v88h78v-88h8l0.081,50.37
	c-0.053,8.729,5.342,12.446,10.919,12.63h60C207.363,163,207.363,139,191,139z M227.177,75.567
	c-1.749,6.699-5.395,13.161-10.108,17.875c-4.832,4.832-10.316,7.766-15.829,8.478c-0.089,0-0.208,0.03-0.296,0.03
	c-1.186,0-2.194-0.86-2.342-2.075c-0.178-1.304,0.741-2.49,2.045-2.668c4.476-0.593,9.011-3.053,13.072-7.144
	c4.091-4.091,7.085-9.278,8.626-14.851c1.541-5.484,0.711-11.235,5.069-15.592l2.016-2.016c1.215-1.215,3.024-1.749,4.654-1.215
	c0.682,0.208,1.393,0.296,2.164,0.237c2.46-0.237,4.476-2.223,4.743-4.684c0.356-3.231-2.164-5.958-5.306-5.958l0,0
	c-0.474,0-0.86-0.296-0.86-0.919c0-3.142-2.727-5.662-5.958-5.306c-2.46,0.267-4.446,2.282-4.684,4.743
	c-0.089,0.741,0,1.482,0.208,2.164c0.504,1.63,0,3.439-1.215,4.654l-1.956,1.986c-2.431,2.431-5.662,3.854-9.1,3.972
	c-6.847,0.296-15.503,3.883-21.432,9.812c-1.037,1.037-1.927,2.075-2.757,3.142c-0.267,0.356-0.593,0.622-1.008,0.771
	c-12.776,5.336-21.758,17.963-21.758,32.696v1.275c0,5.899,4.772,10.671,10.671,10.671h54.542c5.899,0,10.671-4.772,10.671-10.671
	v-1.275C241.05,92.256,235.595,82.059,227.177,75.567z M192.436,79.42l-0.415,0.622c-0.356,0.504-0.919,0.8-1.482,0.8
	c-0.326,0-0.682-0.089-0.978-0.296c-0.83-0.534-1.037-1.66-0.504-2.46l0.415-0.622c0.534-0.83,1.66-1.037,2.46-0.504
	C192.762,77.494,192.969,78.59,192.436,79.42z M195.993,74.352c-0.356,0.474-0.889,0.711-1.423,0.711
	c-0.385,0-0.741-0.119-1.067-0.356c-0.771-0.593-0.949-1.719-0.356-2.49c5.454-7.174,13.991-9.189,14.347-9.278
	c0.949-0.207,1.927,0.385,2.134,1.334c0.207,0.949-0.385,1.897-1.334,2.134c-0.03,0-1.956,0.474-4.446,1.69
	C201.388,69.312,198.335,71.298,195.993,74.352z M254,121.25h-97.716v6.293H254V121.25z"/>
</svg>