<?xml version="1.0" encoding="utf-8"?>

<svg fill="#000000" height="800px" width="800px" version="1.2" baseProfile="tiny" id="Layer_1" xmlns="http://www.w3.org/2000/svg" xmlns:xlink="http://www.w3.org/1999/xlink"
	  viewBox="0 0 256 256" xml:space="preserve">
<circle id="XMLID_3_" cx="128.3" cy="23.5" r="21.7"/>
<path id="XMLID_2_" d="M128.3,72.2c7.7,0,11.5-2.7,11.9-22.5l-23.7,0C116.8,69.5,120.6,72.2,128.3,72.2z"/>
<path id="XMLID_1_" d="M160.7,144.3c0,6.5,4.2,9.8,8.5,9.8c4.2,0,8.5-3.3,8.5-9.8V78.2c0-14.4-8.5-28.5-25.3-28.5l-6.2,0
	c-0.4,19.7-5.7,28.1-14.9,28.1v31.1c2.7,1.2,4.6,3.9,4.6,7c0,4.2-3.4,7.7-7.6,7.7c-4.2,0-7.6-3.4-7.6-7.6c0-3.1,1.9-5.8,4.6-7V77.9
	c-9.3,0-14.6-8.4-14.9-28.2l-6.6,0c-15.3,0-25,12.5-25,28.1v66.5c0,6.5,4.3,9.7,8.5,9.7s8.5-3.2,8.5-9.7V79.6h5.4l0,162.5
	c0,6.7,5.4,12.2,12.2,12.2c6.7,0,12.2-5.4,12.2-12.2l0-88.7h5.4l0,88.7c0,6.7,5.4,12.2,12.2,12.2c6.7,0,12.1-5.4,12.1-12.2
	l0.1-162.5h5.3L160.7,144.3L160.7,144.3z"/>
</svg>