<?xml version="1.0" encoding="utf-8"?>

<svg fill="#000000" version="1.1" id="Layer_1" xmlns="http://www.w3.org/2000/svg" xmlns:xlink="http://www.w3.org/1999/xlink" 
	 width="800px" height="800px" viewBox="0 0 256 190" enable-background="new 0 0 256 190" xml:space="preserve">
<path d="M48.12,27.903C48.12,13.564,59.592,2,74.023,2c14.339,0,25.903,11.564,25.903,25.903
	C99.834,42.335,88.27,53.806,74.023,53.806C59.684,53.806,48.12,42.242,48.12,27.903z M191,139h-47V97c0-20.461-17.881-37-38-37H43
	C20.912,60,1.99,79.14,2,98v77c-0.026,8.533,6.001,12.989,12,13c6.014,0.011,12-4.445,12-13v-75h8v88h78v-88h8l0.081,50.37
	c-0.053,8.729,5.342,12.446,10.919,12.63h60C207.363,163,207.363,139,191,139z M170.09,115.515h67.759v11.818H170.09V115.515z
	 M246.121,61.938c-4.351,0-7.879,3.527-7.879,7.879c0,1.255,0.301,2.438,0.824,3.491l-16.351,8.092l-14.737-24.9
	c2.314-1.373,3.87-3.889,3.87-6.774c0-4.351-3.527-7.879-7.879-7.879s-7.879,3.527-7.879,7.879c0,2.885,1.556,5.401,3.87,6.774
	l-14.675,24.795l-16.026-7.972c0.527-1.057,0.831-2.245,0.831-3.506c0-4.351-3.527-7.879-7.879-7.879
	c-4.351,0-7.879,3.528-7.879,7.879s3.527,7.879,7.879,7.879c0.524,0,1.034-0.054,1.529-0.151l5.955,30.091h68.547l6.272-30.105
	c0.519,0.107,1.056,0.165,1.607,0.165c4.351,0,7.879-3.527,7.879-7.879C254,65.466,250.473,61.938,246.121,61.938z"/>
</svg>