<?xml version="1.0" encoding="utf-8"?>

<svg fill="#000000" version="1.1" id="Layer_1" xmlns="http://www.w3.org/2000/svg" xmlns:xlink="http://www.w3.org/1999/xlink" 
	 width="800px" height="800px" viewBox="0 0 236 256" enable-background="new 0 0 236 256" xml:space="preserve">
<path d="M117.5,2c-12.47,0-22.63,10.16-22.63,22.63c0,12.46,10.06,22.62,22.63,22.62c12.37,0,22.62-10.16,22.62-22.62
	C140.12,12.16,129.97,2,117.5,2z M146,52H89c-15.59,0-28,13.41-28,29v32h20V86c0-1.71,1.29-3,3-3s3,1.29,3,3v27h61V86
	c0-1.71,1.29-3,3-3s3,1.29,3,3v27h20V81C174,65.51,161.49,52,146,52z M2,118v27h23v109h185V145h24v-27H2z M171.56,233.37H64.44
	c0-2.93,7.53-5.44,19.67-7.11v-19.25H64.44L77,192.36h-8.37l12.55-15.06h-7.95l14.69-17.45l10.54,12.47l-9.33,10.84h9.62
	L84.53,199.9h25.9v7.11H91.6v18.33c6.65-0.67,14.14-1.09,22.17-1.18v-27.65H91.6l14.22-16.74H96.2l14.23-16.74h-9.21l16.74-19.66
	l16.73,19.66h-9.2l14.23,17.16h-9.21l13.81,16.32h-22.18v27.65c8.08,0.09,15.53,0.55,22.18,1.22v-18.41h-18.83v-7.12h25.94
	l-13.81-16.31h9.21l-9.25-11.18l10.59-12.55l14.85,17.62h-8.2l12.55,14.85h-8.2l12.39,14.73h-19.67v19.25
	C163.9,227.93,171.56,230.48,171.56,233.37z"/>
</svg>