<?xml version="1.0" encoding="utf-8"?>

<svg fill="#000000" height="800px" width="800px" version="1.2" baseProfile="tiny" id="s1" xmlns="http://www.w3.org/2000/svg" xmlns:xlink="http://www.w3.org/1999/xlink"
	  viewBox="0 0 16 12.75" xml:space="preserve">
<path d="M5.781,1.363c0-0.567,0.46-1.027,1.027-1.027c0.567,0,1.027,0.46,1.027,1.027c0,0.567-0.46,1.027-1.027,1.027
	C6.241,2.39,5.781,1.93,5.781,1.363z M15.75,3.415c0,1.19-1.03,2.015-1.759,2.015c-0.668,0-1.513,0-1.513,0
	c-0.225,0-0.298,0.036-0.429,0.152L5.924,11.69c-0.494,0.465-1.092,0.654-1.586,0.654c-0.494,0-2.092,0-2.092,0
	c-1.287,0-1.996-1.138-1.996-2.039s0.709-1.963,1.891-1.963c0,0,1.174,0,1.175,0c0.356,0,0.378-0.008,0.559-0.189l1.921-1.921H5.792
	v-2.64c0-1.364,2.033-1.379,2.033,0v0.647l0,0h0v0l2.21-2.208c0.379-0.379,1.014-0.581,1.508-0.581h2.388
	C14.712,1.453,15.75,2.238,15.75,3.415z M14.712,3.4c0-0.349-0.352-0.933-0.875-0.933h-2.149c-0.439,0-0.694,0.032-0.952,0.29
	L4.459,9.034c-0.232,0.232-0.5,0.349-0.907,0.349H2.156c-0.455,0-0.894,0.326-0.894,0.906c0,0.581,0.461,1.023,0.984,1.023h2.036
	c0.407,0,0.724-0.099,0.973-0.349l6.173-6.173c0.315-0.315,0.557-0.392,1.104-0.392h1.292C14.462,4.399,14.712,3.749,14.712,3.4z"/>
</svg>