<?xml version="1.0" encoding="utf-8"?>

<svg fill="#000000" height="800px" width="800px" version="1.1" xmlns="http://www.w3.org/2000/svg" xmlns:xlink="http://www.w3.org/1999/xlink" 
	 viewBox="0 0 128 128" xml:space="preserve">
<g id="H1">
</g>
<g id="Layer_1">
	<g>
		<path d="M36,41.5l15.1,15.1c3.7,3.7,8.9,5.5,13.7,5.4H105c3.2,0,5.9-2.6,5.9-5.9s-2.6-5.9-5.9-5.9H80.3c-0.5,1.1-1.2,2.2-2.1,3
			c-1.8,1.8-4.3,2.9-6.9,2.9s-5.1-1-6.9-2.9L47,36c-0.8-0.8-0.8-2,0-2.8c0.8-0.8,2-0.8,2.7,0l17.5,17.5c2.3,2.3,6,2.3,8.3,0
			s2.3-6,0-8.3L53.8,20.6c-3.6-3.6-8.3-5.4-13-5.4l-39.3,0v23.4h27.6C31.6,38.7,34.1,39.6,36,41.5z"/>
		<path d="M87.2,74.9c-4.7,0-9.4,1.8-13,5.4L52.5,102c-2.3,2.3-2.3,6,0,8.3s6,2.3,8.3,0l17.5-17.5c0.8-0.7,2-0.7,2.7,0
			c0.8,0.8,0.8,2,0,2.8l-17.4,17.4c-1.8,1.8-4.3,2.9-6.9,2.9s-5.1-1-6.9-2.9c-0.9-0.9-1.6-1.9-2.1-3H23c-3.2,0-5.9,2.6-5.9,5.9
			s2.6,5.9,5.9,5.9h40.2c4.8,0.1,10-1.7,13.7-5.4L92,101.2c1.9-1.9,4.4-2.9,6.9-2.9h27.6V74.9L87.2,74.9z"/>
		<path d="M56.8,71H4.5v24.7h52.3V71z M7.5,92.7V74H26c-2.1,2-3.5,5.3-3.5,9.1c0,4.1,1.6,7.7,4.1,9.6H7.5z M53.8,92.7H34.8
			c2.4-1.9,4.1-5.5,4.1-9.6c0-3.8-1.4-7.1-3.5-9.1h18.5V92.7z"/>
		<path d="M94.6,43.3c10.8,0,19.6-8.8,19.6-19.6c0-10.7-8.8-19.6-19.6-19.6C83.8,4,75,12.8,75,23.6C75,34.5,83.8,43.3,94.6,43.3z
			 M94.6,7.3c9,0,16.3,7.3,16.3,16.3c-0.1,9-7.4,16.3-16.3,16.3c-9,0-16.3-7.3-16.3-16.3C78.3,14.6,85.6,7.3,94.6,7.3z"/>
		<path d="M93.4,26c0.2,0.1,0.4,0.2,0.6,0.2c0.2,0,0.4-0.1,0.6-0.2l9.1-4.4c0.8-0.4,0.9-1.2,0.6-1.8c-0.3-0.5-0.8-0.8-1.6-0.5
			l-7.5,3.4V14c0-0.4-0.1-0.7-0.4-0.9c-0.2-0.2-0.5-0.3-0.8-0.3c-0.6,0-1.3,0.4-1.3,1.2v10.9C92.7,25.4,93,25.8,93.4,26z"/>
	</g>
</g>
</svg>