<?xml version="1.0" encoding="utf-8"?>

<svg fill="#000000" version="1.1" id="Scientist" xmlns="http://www.w3.org/2000/svg" xmlns:xlink="http://www.w3.org/1999/xlink" 
	 width="800px" height="800px" viewBox="0 0 245 256" enable-background="new 0 0 245 256" xml:space="preserve">
<path d="M217.497,82.771c3.174,0,5.714-2.539,5.714-5.714c0-3.175-2.539-5.714-5.714-5.714s-5.714,2.539-5.714,5.714
	C211.783,80.232,214.322,82.771,217.497,82.771z M198.705,107.15c4.952,0,9.015-4.063,9.015-9.015c0-4.952-4.063-9.015-9.015-9.015
	s-9.015,4.063-9.015,9.015S193.753,107.15,198.705,107.15z M88.128,73.889c4.418,0,8,3.582,8,8c0,4.418-3.582,8-8,8s-8-3.582-8-8
	C80.128,77.47,83.71,73.889,88.128,73.889z M89.624,65.732c17.909,0,32.208-14.022,32.208-31.931S107.255,1.733,89.763,1.733
	c-11.662,0-22.213,6.664-27.766,16.382c-0.694,0.972-1.527,2.082-2.499,3.054c-6.108,6.108-16.243,6.108-22.351,0
	c-0.972-0.972-1.944-1.805-2.499-3.054C38.535,45.047,61.58,65.732,89.624,65.732z M242.185,218.941l-20.149-40.158
	c3.568-0.727,6.906-2.453,9.566-5.026c3.43-3.32,5.36-7.66,5.43-12.2c0.09-4.43-1.64-8.69-4.87-11.98
	c-3.65-3.73-8.78-5.86-14.09-5.86h-1.813v-12.08h5.08v-10.89h-41.09v10.89h5.08v12.08h-20.687l-6.92-38.29l-0.08-0.39
	c-4.82-18.7-21.67-31.77-40.98-31.77h-5.74l-22.69,40.28l-22.69-40.28h-5.74c-19.31,0-36.16,13.07-40.97,31.77l-16.04,75.47
	c-1.2,4.64-0.51,9.47,1.94,13.61c2.48,4.2,6.46,7.15,11.18,8.31c4.93,1.23,9.91,0.32,13.91-2.15l-10.68,53.99h140.72l-16.51-75.09
	h36.343l-19.157,39.908c-0.805,1.679-0.688,3.63,0.313,5.218c1.011,1.605,2.749,2.564,4.649,2.564h71.85
	c1.901,0,3.629-0.957,4.622-2.561C242.972,222.69,243.052,220.683,242.185,218.941z M218.072,154.718c2.33,0,4.66,0.96,6.23,2.56
	c0.81,0.83,1.76,2.2,1.72,4.08c-0.02,1.63-0.76,3.22-2.08,4.5c-1.54,1.49-3.7,2.34-5.87,2.32h-1.358l-0.455-0.907v-12.552H218.072z
	 M146.102,168.177l-10.47-46.19h-16.11l26.65,121.28H32.542l24-121.28h-16.06l-13.41,64.89c-0.96,3.63-4.75,5.81-8.51,4.87
	c-1.85-0.46-3.39-1.6-4.36-3.23c-0.95-1.62-1.22-3.51-0.73-5.32l16.04-75.53c3.49-13.36,15.3-22.81,29.02-23.36l29.7,51.4l29.7-51.4
	c13.69,0.55,25.48,9.96,29,23.29l8.52,47.12h29.877v12.722l-0.354,0.738H146.102z M218.687,212.167l-10.159-20.31h-22.765
	l10.456-21.632v-38.588h9.15v38.596l20.972,41.934H218.687z"/>
</svg>