<?xml version="1.0" encoding="utf-8"?>

<svg fill="#000000" version="1.1" id="Scientist" xmlns="http://www.w3.org/2000/svg" xmlns:xlink="http://www.w3.org/1999/xlink" 
	 width="800px" height="800px" viewBox="0 0 230 256" enable-background="new 0 0 230 256" xml:space="preserve">
<path d="M207.856,91.334c3.258,0,5.865-2.606,5.865-5.865s-2.606-5.865-5.865-5.865s-5.865,2.606-5.865,5.865
	S204.597,91.334,207.856,91.334z M188.569,116.354c5.083,0,9.253-4.17,9.253-9.253s-4.17-9.253-9.253-9.253s-9.253,4.17-9.253,9.253
	C179.316,112.184,183.486,116.354,188.569,116.354z M227.142,231.554l-24.108-48.087h5.474c7.167,0,18.375-5.604,17.984-18.245
	c-0.391-9.513-8.34-16.941-17.723-16.941h-8.34v-7.819h5.213v-9.122h-39.095v9.122h5.213v7.819h-13.032v-32.579
	c0-20.851-16.941-37.792-37.792-37.792h-16.453L80.32,118.12L56.591,77.911H40.138c-20.851,0-37.792,16.941-37.792,37.792v92.655
	c0,9.253,7.037,17.332,16.289,17.984c5.343,0.391,10.295-1.564,13.683-5.083V254h96.434v-77.048
	c3.779,4.17,9.122,6.515,15.116,6.515h25.542l-23.196,48.218c-1.434,2.997,0.782,6.515,4.17,6.515h72.717
	C226.491,238.2,228.707,234.682,227.142,231.554z M200.427,158.707h8.34c4.04,0,7.297,3.258,7.297,7.297
	c0,4.3-3.127,7.037-7.167,7.037h-8.471V158.707z M143.87,173.042c-5.474,0-9.904-4.3-9.904-9.774v-34.534h-15.638v114.84H42.745
	v-114.84H27.107v80.145c0,3.909-3.258,7.167-7.167,7.167s-7.167-3.258-7.167-7.167v-93.176c0-15.116,12.25-27.366,27.366-27.366
	h10.718l29.679,48.788l29.679-48.788h10.718c15.116,0,27.366,12.25,27.366,27.366v43.005h23.457v14.335L143.87,173.042
	L143.87,173.042z M204.337,225.168l-10.426-20.851h-24.369l11.337-23.457v-40.398h10.426v40.398l22.154,44.307H204.337z
	 M80.208,76.173c5.038,0,9.122,4.084,9.122,9.122s-4.084,9.122-9.122,9.122s-9.122-4.084-9.122-9.122S75.17,76.173,80.208,76.173z
	 M82.77,67.687c18.381,0,33.057-14.392,33.057-32.773S100.866,2,82.913,2C70.943,2,60.114,8.84,54.415,18.814
	c-0.712,0.998-1.567,2.137-2.565,3.135c-6.269,6.269-16.671,6.269-22.94,0c-0.998-0.998-1.995-1.853-2.565-3.135
	C30.334,46.456,53.987,67.687,82.77,67.687z"/>
</svg>