<?xml version="1.0" encoding="utf-8"?>

<svg fill="#000000" version="1.1" id="Layer_1" xmlns="http://www.w3.org/2000/svg" xmlns:xlink="http://www.w3.org/1999/xlink" 
	 width="800px" height="800px" viewBox="0 0 256 240" enable-background="new 0 0 256 240" xml:space="preserve">
<path d="M205,100c26.964,0,49-21.891,49-49S232.109,2,205,2s-48.855,22.036-48.855,49.145C156.145,78.109,178.036,100,205,100z
	 M202.294,55.156c-8.988-3.141-14.594-7.683-14.594-15.753c0-7.442,4.929-13.289,13.965-15.125v-8.07h6.765v7.683
	c5.606,0,9.665,1.16,12.661,2.754l-2.754,9.665c-2.223-0.918-5.847-2.464-10.824-2.464c-4.977,0-7.683,2.464-7.683,4.929
	c0,3.383,3.141,4.687,9.906,7.442c9.23,3.383,13.531,8.07,13.531,15.753s-4.687,13.531-14.594,15.753v7.683h-6.765v-7.442
	c-5.847,0-11.743-1.546-14.594-3.141l2.464-9.906c3.141,1.546,8.07,3.383,13.289,3.383c5.606,0,8.36-2.465,8.36-5.847
	S208.769,57.669,202.294,55.156z M31.002,145.014c0-2.499,1.606-4.194,4.194-4.194s4.194,1.606,4.194,4.194V238h91.469v-92.986
	c0-2.499,1.606-4.194,4.194-4.194c2.499,0,4.194,1.606,4.194,4.194V238h29.092V136.625c0-22.934-18.74-41.585-41.585-41.585h-8.388
	L85.17,154.336L53.401,95.04h-9.816C20.651,95.04,2,113.78,2,136.625V238h29.092v-92.986H31.002z M86.474,83.69
	c-28.043,0-51.089-20.685-54.976-47.618c0.555,1.249,1.527,2.082,2.499,3.054c6.108,6.108,16.243,6.108,22.351,0
	c0.972-0.972,1.805-2.082,2.499-3.054c5.553-9.718,16.104-16.382,27.766-16.382c17.492,0,32.069,14.161,32.069,32.069
	S104.383,83.69,86.474,83.69z M73.17,107.04c0-6.627,5.373-12,12-12s12,5.373,12,12s-5.373,12-12,12S73.17,113.668,73.17,107.04z"/>
</svg>