<?xml version="1.0" encoding="utf-8"?>

<svg fill="#000000" version="1.1" id="Layer_1" xmlns="http://www.w3.org/2000/svg" xmlns:xlink="http://www.w3.org/1999/xlink" 
	 width="800px" height="800px" viewBox="0 0 256 240" enable-background="new 0 0 256 240" xml:space="preserve">
<path d="M203,2c-28.167,0-51,22.833-51,51c0,28.167,22.833,51,51,51s51-22.833,51-51C254,24.833,231.167,2,203,2z M193.853,77.891
	c-0.149,0-24.795-24.534-24.795-24.534s9.583-9.433,9.732-9.433s15.511,15.213,15.511,15.213l31.32-31.245l9.322,9.247
	C234.942,37.138,194.077,77.929,193.853,77.891z M31.002,145.014c0-2.499,1.606-4.194,4.194-4.194s4.194,1.606,4.194,4.194V238
	h91.469v-92.986c0-2.499,1.606-4.194,4.194-4.194c2.499,0,4.194,1.606,4.194,4.194V238h29.092V136.625
	c0-22.934-18.74-41.585-41.585-41.585h-8.388L85.17,154.336L53.401,95.04h-9.816C20.651,95.04,2,113.78,2,136.625V238h29.092
	v-92.986H31.002z M86.474,83.69c-28.043,0-51.089-20.685-54.976-47.618c0.555,1.249,1.527,2.082,2.499,3.054
	c6.108,6.108,16.243,6.108,22.351,0c0.972-0.972,1.805-2.082,2.499-3.054c5.553-9.718,16.104-16.382,27.766-16.382
	c17.492,0,32.069,14.161,32.069,32.069S104.383,83.69,86.474,83.69z M73.17,107.04c0-6.627,5.373-12,12-12s12,5.373,12,12
	s-5.373,12-12,12S73.17,113.668,73.17,107.04z"/>
</svg>