<?xml version="1.0" encoding="utf-8"?>

<svg fill="#000000" version="1.1" id="Layer_1" xmlns="http://www.w3.org/2000/svg" xmlns:xlink="http://www.w3.org/1999/xlink" 
	 width="800px" height="800px" viewBox="0 0 256 190" enable-background="new 0 0 256 190" xml:space="preserve">
<path d="M48.12,27.903C48.12,13.564,59.592,2,74.023,2c14.339,0,25.903,11.564,25.903,25.903
	C99.834,42.335,88.27,53.806,74.023,53.806C59.684,53.806,48.12,42.242,48.12,27.903z M191,139h-47V97c0-20.461-17.881-37-38-37H43
	C20.912,60,1.99,79.14,2,98v77c-0.026,8.533,6.001,12.989,12,13c6.014,0.011,12-4.445,12-13v-75h8v88h78v-88h8l0.081,50.37
	c-0.053,8.729,5.342,12.446,10.919,12.63h60C207.363,163,207.363,139,191,139z M245.044,120.005V46.524h-14.788v73.482h-4.957V62.77
	h-14.788v57.236h-4.999V90.721h-14.788v29.284h-4.957v-14.913h-14.788v14.913h-8.373v-79.73H157v85.449h97v-5.606v-0.113H245.044z"
	/>
</svg>