<?xml version="1.0" encoding="utf-8"?>

<svg fill="#000000" version="1.1" id="Layer_1" xmlns="http://www.w3.org/2000/svg" xmlns:xlink="http://www.w3.org/1999/xlink" 
	 width="800px" height="800px" viewBox="0 0 256 173" enable-background="new 0 0 256 173" xml:space="preserve">
<path d="M128.253,56.864c15.186,0,27.432-12.247,27.432-27.432S143.536,2,128.253,2
	c-15.186,0-27.432,12.247-27.432,27.432C100.918,44.716,113.165,56.864,128.253,56.864z M64.571,136.32h-49.28
	c-15.969,0-16.851-24.395,0.294-24.395H58.3l24.493-36.054c7.25-9.895,15.48-14.598,27.138-14.598h36.544
	c11.659,0,19.888,4.311,27.138,14.598l24.591,36.054h43.01c17.243,0,16.165,24.395,0.588,24.395h-49.28
	c-3.919,0-8.622-1.372-11.365-5.584l-18.811-26.844l-0.098,67.209H94.844l-0.098-67.209l-18.811,26.844
	C73.192,134.85,68.49,136.32,64.571,136.32z"/>
<path d="M30.957,98.543C46.939,98.543,60,85.568,60,69.5S47.025,40.457,30.957,40.457S2,53.518,2,69.586
	C2,85.568,14.975,98.543,30.957,98.543z M29.353,71.963c-5.327-1.862-8.65-4.554-8.65-9.337c0-4.411,2.921-7.877,8.278-8.965v-4.783
	h4.01v4.554c3.322,0,5.728,0.687,7.504,1.633l-1.633,5.728c-1.318-0.544-3.466-1.461-6.416-1.461s-4.554,1.461-4.554,2.921
	c0,2.005,1.862,2.778,5.872,4.411c5.471,2.005,8.02,4.783,8.02,9.337c0,4.554-2.778,8.02-8.65,9.337v4.554h-4.01v-4.411
	c-3.466,0-6.96-0.917-8.65-1.862l1.461-5.872c1.862,0.917,4.783,2.005,7.877,2.005c3.322,0,4.955-1.461,4.955-3.466
	S33.191,73.453,29.353,71.963z"/>
<path d="M223.516,56.119v-3.725l-3.904-0.659c-0.288-1.276-0.792-2.472-1.47-3.547l2.295-3.226l-2.635-2.635
	l-3.226,2.295c-1.073-0.678-2.269-1.179-3.547-1.47l-0.657-3.902h-3.727l-0.657,3.902c-1.279,0.291-2.474,0.792-3.547,1.47
	l-3.226-2.295l-2.635,2.635l2.295,3.226c-0.678,1.075-1.182,2.271-1.47,3.547l-3.904,0.659v3.725l3.904,0.657
	c0.288,1.279,0.792,2.474,1.47,3.55l-2.295,3.226l2.635,2.633l3.226-2.295c1.073,0.678,2.269,1.182,3.547,1.47l0.657,3.904h3.727
	l0.657-3.904c1.279-0.288,2.474-0.792,3.547-1.47l3.226,2.295l2.635-2.633l-2.295-3.226c0.678-1.075,1.182-2.271,1.47-3.55
	L223.516,56.119z M208.507,60.179c-3.268,0-5.92-2.652-5.92-5.922s2.652-5.922,5.92-5.922c3.271,0,5.922,2.652,5.922,5.922
	C214.429,57.528,211.778,60.179,208.507,60.179z M249.45,77.48l4.55-2.824l-1.908-4.663l-5.224,1.176
	c-0.986-1.408-2.214-2.66-3.656-3.688l1.22-5.213l-4.647-1.948l-2.862,4.525c-1.744-0.308-3.498-0.306-5.193-0.021l-2.824-4.55
	l-4.663,1.908l1.176,5.224c-1.408,0.986-2.66,2.214-3.688,3.656l-5.213-1.22l-1.948,4.647l4.525,2.862
	c-0.308,1.744-0.306,3.498-0.021,5.193l-4.55,2.824l1.908,4.663l5.224-1.176c0.986,1.408,2.214,2.66,3.656,3.688l-1.22,5.213
	l4.647,1.948l2.862-4.524c1.744,0.308,3.498,0.306,5.193,0.021l2.824,4.549l4.663-1.908l-1.176-5.224
	c1.408-0.986,2.66-2.214,3.688-3.656l5.213,1.22l1.948-4.647l-4.525-2.862C249.737,80.929,249.735,79.175,249.45,77.48z
	 M241.648,83.108c-1.71,4.079-6.404,6-10.483,4.29c-4.079-1.71-6-6.404-4.29-10.483c1.71-4.079,6.404-6,10.483-4.29
	C241.438,74.336,243.358,79.029,241.648,83.108z"/>
<g id="shopping_cart">
</g>
<g id="cross">
</g>
<g id="leaf">
</g>
</svg>