<?xml version="1.0" encoding="utf-8"?>

<svg fill="#000000" height="800px" width="800px" version="1.1" id="Layer_1" xmlns="http://www.w3.org/2000/svg" xmlns:xlink="http://www.w3.org/1999/xlink" 
	 viewBox="0 0 128 128" xml:space="preserve">
<path d="M65.4,18.4c4.6,0,8.3-3.7,8.3-8.3c0-4.6-3.7-8.3-8.3-8.3c-4.6,0-8.3,3.8-8.3,8.3C57,14.7,60.7,18.4,65.4,18.4"/>
<path d="M117.7,114.1c-2.3-1.1-4.9-1.7-7.6-1.7c-2.7,0-5.3,0.6-7.6,1.7c-2.2,1-4.7,1.6-7.4,1.6c-2.6,0-5.1-0.6-7.4-1.6
	c-2.3-1.1-4.9-1.7-7.6-1.7c-2.7,0-5.3,0.6-7.6,1.7c-2.3,1-4.8,1.6-7.4,1.6c-2.6,0-5.1-0.6-7.4-1.6c-2.3-1.1-4.9-1.7-7.6-1.7
	c-2.7,0-5.3,0.6-7.6,1.7c-2.2,1-4.7,1.6-7.3,1.6c-2.6,0-5.2-0.6-7.4-1.6c-2.3-1.1-4.9-1.7-7.6-1.7c-2.7,0-5.3,0.6-7.6,1.7
	c-2.3,1-4.8,1.6-7.4,1.6v11c2.6,0,5.1-0.6,7.4-1.6c2.3-1.1,4.9-1.7,7.6-1.7c2.7,0,5.3,0.6,7.6,1.7c2.2,1,4.8,1.6,7.4,1.6
	c2.6,0,5.1-0.6,7.3-1.6c2.3-1.1,4.9-1.7,7.6-1.7c2.7,0,5.3,0.6,7.6,1.7c2.3,1,4.8,1.6,7.4,1.6c2.6,0,5.1-0.6,7.4-1.6
	c2.3-1.1,4.9-1.7,7.6-1.7c2.7,0,5.3,0.6,7.6,1.7c2.2,1,4.8,1.6,7.4,1.6c2.6,0,5.1-0.6,7.4-1.6c2.3-1.1,4.9-1.7,7.6-1.7
	c2.7,0,5.3,0.6,7.6,1.7c2.3,1,4.8,1.6,7.4,1.6v-11C122.4,115.7,119.9,115.1,117.7,114.1"/>
<path d="M117.9,1.4c-0.6-0.2-1.3-0.1-1.7,0.4L85.7,32.2c-0.5-0.2-1-0.3-1.6-0.3H72.7c-2-2-12.4-12.4-12.4-12.4
	c-0.5-0.5-1.2-0.8-1.9-1c-2.4-2.1-6-2.1-8.3,0.2l-18,18c-0.7,0.7-1.1,1.6-1.1,2.7v13.2H5.6v4.2H31v29.5c0,3.7,3,6.7,6.7,6.7
	c3.7,0,6.8-3,6.8-6.7V56.7h20.4v39.1H5.6v7.2h63.4V56.7h7.3v-4.2H44.4v-3.8L61.2,32l6.9,6.8c0.7,0.8,1.8,1.2,2.9,1.2h13.2
	c2.3,0,4.1-1.8,4.1-4.1c0-0.5-0.1-1.1-0.3-1.5l27.7-27.7v96.5h3.2V2.9C118.8,2.2,118.5,1.7,117.9,1.4"/>
</svg>