<?xml version="1.0" encoding="utf-8"?>

<svg fill="#000000" version="1.1" id="Layer_1" xmlns="http://www.w3.org/2000/svg" xmlns:xlink="http://www.w3.org/1999/xlink" 
	 width="800px" height="800px" viewBox="0 0 215 256" enable-background="new 0 0 215 256" xml:space="preserve">
<path d="M107.5,43.63c-11.01,0-19.82,8.61-19.82,19.82c0,10.81,8.81,19.81,19.82,19.81s19.82-8.8,19.82-19.81
	S118.51,43.63,107.5,43.63z M107.5,2L2.02,55.04V254h210.96V55.04L107.5,2z M142.98,227.74c0,5.51-4.46,9.98-9.98,9.98H82
	c-5.52,0-9.98-4.47-9.98-9.98v-1.2c0-13.77,8.4-25.58,20.34-30.57c0.39-0.14,0.7-0.39,0.95-0.73c0.77-0.99,1.6-1.96,2.57-2.93
	c5.55-5.55,13.64-8.9,20.05-9.18c3.21-0.11,6.24-1.44,8.51-3.71l1.83-1.86c1.13-1.14,1.61-2.83,1.13-4.35
	c-0.19-0.64-0.27-1.34-0.19-2.03c0.22-2.3,2.08-4.18,4.38-4.43c3.02-0.34,5.57,2.02,5.57,4.96c0,0.58,0.36,0.86,0.81,0.86
	c2.75,0,4.99,2.24,4.99,5c0,0.19-0.01,0.38-0.03,0.57c-0.25,2.3-2.14,4.16-4.44,4.38c-0.72,0.06-1.38-0.03-2.02-0.22
	c-1.53-0.5-3.22,0-4.35,1.14l-1.89,1.88c-4.07,4.08-3.3,9.45-4.74,14.58c-1.44,5.21-4.24,10.07-8.07,13.89
	c-3.79,3.83-8.03,6.13-12.22,6.68c-1.22,0.17-2.08,1.28-1.91,2.5c0.13,1.13,1.08,1.94,2.19,1.94c0.08,0,0.19-0.03,0.27-0.03
	c5.16-0.67,10.29-3.41,14.81-7.93c4.4-4.41,7.81-10.45,9.45-16.72c7.87,6.08,12.97,15.61,12.97,26.31V227.74z M75.47,118.89
	c0-1.4,1.01-2.6,2.61-2.6c1.4,0,2.6,1,2.6,2.6v26.02h-4.81L75.47,118.89z M134.72,118.89c0-1.4,1-2.6,2.6-2.6c1.6,0,2.61,1,2.61,2.6
	v26.02h-4.81v-26.02H134.72z M204.58,144.91h-47.64v-30.82c0-13.61-11.01-24.62-24.62-24.62H83.08c-13.61,0-24.62,11.01-24.62,24.62
	v30.82H10.62V60.25l96.88-48.64l97.08,48.84V144.91z M87.68,63.45c0,10.81,8.81,19.81,19.82,19.81s19.82-8.8,19.82-19.81
	s-8.81-19.82-19.82-19.82S87.68,52.24,87.68,63.45z M107.5,43.63c-11.01,0-19.82,8.61-19.82,19.82c0,10.81,8.81,19.81,19.82,19.81
	s19.82-8.8,19.82-19.81S118.51,43.63,107.5,43.63z"/>
</svg>