<?xml version="1.0" encoding="utf-8"?>

<svg fill="#000000" version="1.1" id="Layer_1" xmlns="http://www.w3.org/2000/svg" xmlns:xlink="http://www.w3.org/1999/xlink" 
	 width="800px" height="800px" viewBox="0 0 215 256" enable-background="new 0 0 215 256" xml:space="preserve">
<path d="M90.811,181.966c1.218-1.217,6.865-2.451,6.865-2.451s-1.233,5.646-2.452,6.863c-1.218,1.217-3.192,1.217-4.413,0
	C89.593,185.161,89.593,183.183,90.811,181.966z M104.262,186.103c0,1.723,1.396,3.118,3.119,3.118s3.119-1.395,3.119-3.118
	c0-1.727-3.119-6.588-3.119-6.588S104.262,184.38,104.262,186.103z M117.102,179.515c0,0,1.234,5.646,2.452,6.863
	c1.222,1.217,3.196,1.217,4.413,0c1.221-1.217,1.221-3.195,0-4.412C122.748,180.749,117.102,179.515,117.102,179.515z
	 M212.984,55.042V254H2.016V55.042L107.5,2L212.984,55.042z M149.536,211.86c-0.166,0.004-0.336,0.008-0.501,0.008
	c-3.681,0-7.362-1.185-10.389-3.547c-6.076,4.732-14.733,4.728-20.784,0c-6.072,4.732-14.729,4.728-20.784,0
	c-6.068,4.728-14.725,4.724-20.78,0c-3.159,2.467-7.022,3.644-10.857,3.539l9.713,16.185h64.724L149.536,211.86z M159.265,200.884
	c0-2.811-2.282-5.092-5.093-5.092c-0.983,0-1.893,0.279-2.67,0.76c-9.51-14.175-25.671-23.509-44.024-23.509
	c-18.345,0-34.502,9.326-44.012,23.488c-0.769-0.465-1.671-0.74-2.638-0.74c-2.811,0-5.093,2.281-5.093,5.092
	c0,5.253,6.922,6.952,10.166,6.952c3.252,0,6.505-1.213,8.98-3.644l1.432-1.399l1.416,1.416c4.935,4.837,12.985,4.837,17.932-0.016
	l1.432-1.399l1.416,1.416c4.935,4.837,12.985,4.837,17.936-0.012l1.428-1.403l1.42,1.416c4.935,4.837,12.985,4.837,17.932-0.012
	l1.432-1.399l1.42,1.411c4.939,4.837,13.43,4.91,17.795,0.133C158.694,203.444,159.265,201.96,159.265,200.884z M75.875,144.913
	h4.804v-26.021c0-1.601-1.201-2.602-2.602-2.602c-1.601,0-2.602,1.201-2.602,2.602L75.875,144.913z M135.122,118.893v26.021h4.804
	v-26.021c0-1.601-1.001-2.602-2.602-2.602c-1.601,0-2.602,1.201-2.602,2.602H135.122z M204.577,60.446L107.5,11.608L10.623,60.246
	v84.667h47.838v-30.824c0-13.611,11.009-24.619,24.62-24.619h49.239c13.611,0,24.62,11.009,24.62,24.619v30.824h47.638V60.446z
	 M87.684,63.449c0,10.809,8.807,19.816,19.816,19.816s19.816-8.807,19.816-19.816s-8.807-19.816-19.816-19.816
	S87.684,52.24,87.684,63.449z"/>
</svg>