<?xml version="1.0" encoding="utf-8"?>

<svg fill="#000000" version="1.1" id="Layer_1" xmlns="http://www.w3.org/2000/svg" xmlns:xlink="http://www.w3.org/1999/xlink" 
	 width="800px" height="800px" viewBox="0 0 256 190" enable-background="new 0 0 256 190" xml:space="preserve">
<path d="M48.12,27.903C48.12,13.564,59.592,2,74.023,2c14.339,0,25.903,11.564,25.903,25.903
	C99.834,42.335,88.27,53.806,74.023,53.806C59.684,53.806,48.12,42.242,48.12,27.903z M191,139h-47V97c0-20.461-17.881-37-38-37H43
	C20.912,60,1.99,79.14,2,98v77c-0.026,8.533,6.001,12.989,12,13c6.014,0.011,12-4.445,12-13v-75h8v88h78v-88h8l0.081,50.37
	c-0.053,8.729,5.342,12.446,10.919,12.63h60C207.363,163,207.363,139,191,139z M254,33.317v88.735c0,2.296-1.837,4.133-4.133,4.133
	h-88.658c-2.296,0-4.133-1.837-4.133-4.133V33.317c0-2.296,1.837-4.133,4.133-4.133h88.658C252.163,29.184,254,31.021,254,33.317z
	 M249.408,33.776h-43.889v11.671c0,3.559-5.204,6.428-7.423,3.75c-1.645-2.296-4.286-3.865-7.423-3.865
	c-5.051,0-9.183,4.133-9.183,9.183s4.133,9.183,9.183,9.183c3.023,0,5.778-1.569,7.423-3.865c2.181-2.64,7.423,0.115,7.423,3.865
	v0.191v13.699h13.699c3.865-0.459,6.428-5.701,3.673-7.997c-2.487-1.837-4.133-4.783-4.133-8.074c0-5.51,4.4-9.91,9.91-9.91
	s9.91,4.4,9.91,9.91c0,3.291-1.645,6.237-4.133,8.074c-2.755,2.219-0.191,7.347,3.406,7.997h11.556V33.776z M161.668,121.593h43.813
	v-11.671c0-3.559,5.204-6.428,7.423-3.75c1.645,2.296,4.286,3.865,7.423,3.865c5.051,0,9.183-4.133,9.183-9.183
	c0-5.051-4.133-9.183-9.183-9.183c-3.023,0-5.778,1.569-7.423,3.865c-2.181,2.64-7.423-0.115-7.423-3.865v-0.191V77.78h-13.699
	c-3.865,0.383-6.428,5.701-3.673,7.997c2.487,1.837,4.133,4.783,4.133,8.074c0,5.51-4.4,9.91-9.91,9.91s-9.91-4.4-9.91-9.91
	c0-3.291,1.645-6.237,4.133-8.074c2.755-2.219,0.191-7.347-3.406-7.997h-11.479V121.593z"/>
</svg>