<?xml version="1.0" encoding="utf-8"?>

<svg fill="#000000" height="800px" width="800px" version="1.2" baseProfile="tiny" id="Layer_1" xmlns="http://www.w3.org/2000/svg" xmlns:xlink="http://www.w3.org/1999/xlink"
	  viewBox="0 0 256 256" xml:space="preserve">
<g id="XMLID_28_">
	<circle id="XMLID_29_" cx="51.2" cy="212" r="16"/>
	<path id="XMLID_43_" d="M69.3,231H51H32.6c-11.1,0-18.6,9.3-18.6,20.9v0.1h73v0.1C88,240.4,80.7,231,69.3,231z"/>
	<circle id="XMLID_44_" cx="126.2" cy="212" r="16"/>
	<path id="XMLID_45_" d="M144.4,231H126h-18.3c-11.1,0-17.7,9.3-17.7,20.9v0.1h73v0.1C163,240.4,155.6,231,144.4,231z"/>
	<circle id="XMLID_46_" cx="201.3" cy="212" r="16"/>
	<path id="XMLID_47_" d="M219.4,231h-18.3h-18.3c-11.1,0-17.7,9.3-17.7,20.9v0.1h73v0.1C238,240.4,230.7,231,219.4,231z"/>
	<circle id="XMLID_48_" cx="87.7" cy="207.9" r="16"/>
	<circle id="XMLID_49_" cx="162.7" cy="207.9" r="16"/>
	<circle id="XMLID_50_" cx="49.4" cy="49.4" r="12.9"/>
	<path id="XMLID_53_" d="M80,4v15h12v64h-4.8c0,0-13.3-13.3-13.3-13.4c-3.1-3.1-7.3-4.6-11.4-4.6h-29C24.6,65,17,72.4,17,81.3v39.1
		c1,3.1,2.9,5.7,6,5.7c3.1,0,6-2.5,6-5.6v-36c0-0.9,0.6-1.6,1.5-1.6s1.5,0.7,1.5,1.6v97.6c0,4.4,3.6,8,8,8s8-3.6,8-8v-56
		c0-0.9,0.6-1.6,1.5-1.6c0.9,0,1.5,0.7,1.5,1.6V182c0,4.4,3.6,8,8,8c4.4,0,8-3.6,8-8V82.9c0-0.9,0.8-1.6,1.6-1.6
		c0.4,0,0.9,0.2,1.2,0.5l11.3,11.5c1,0.9,2.4,1.7,3.8,1.7h7v78.8v0.2h138v-0.2v-4.2V19h11V4H80z M226,170H96V95h14.6
		c3.1,0,5.6-2.6,5.6-5.8c0-1.1-0.3-2.1-0.7-2.8L130.2,66c0.4-0.6,0.3-1.4-0.3-1.9c-0.6-0.5-1.4-0.3-1.9,0.3l-14.4,19.7
		c-0.9-0.6-1.9-1.1-2.9-1.1H96V19h130V170z"/>
	<circle id="XMLID_54_" cx="197.6" cy="42.8" r="14.8"/>
	<polygon id="XMLID_55_" points="221,164 221,114.9 204.3,84.1 172,114.3 172,114.1 158.9,125.9 157.5,124.5 170.9,112.1 
		145.4,63.4 102.2,164 	"/>
</g>
</svg>