<?xml version="1.0" encoding="utf-8"?>

<svg fill="#000000" version="1.1" id="Layer_1" xmlns="http://www.w3.org/2000/svg" xmlns:xlink="http://www.w3.org/1999/xlink" 
	 width="800px" height="800px" viewBox="0 0 256 190" enable-background="new 0 0 256 190" xml:space="preserve">
<path d="M48.12,27.903C48.12,13.564,59.592,2,74.023,2c14.339,0,25.903,11.564,25.903,25.903
	C99.834,42.335,88.27,53.806,74.023,53.806C59.684,53.806,48.12,42.242,48.12,27.903z M191,139h-47V97c0-20.461-17.881-37-38-37H43
	C20.912,60,1.99,79.14,2,98v77c-0.026,8.533,6.001,12.989,12,13c6.014,0.011,12-4.445,12-13v-75h8v88h78v-88h8l0.081,50.37
	c-0.053,8.729,5.342,12.446,10.919,12.63h60C207.363,163,207.363,139,191,139z M254,79.684c0,26.784-21.708,48.5-48.5,48.5
	c-26.784,0-48.5-21.716-48.5-48.5c0-26.784,21.716-48.5,48.5-48.5C232.292,31.184,254,52.9,254,79.684z M221.006,86.312
	l15.467-15.102l-21.405-3.093L205.5,48.74l-9.568,19.4l-21.405,3.101l15.498,15.102l-3.661,21.297L205.5,97.566l19.167,10.05
	L221.006,86.312z"/>
</svg>