<?xml version="1.0" encoding="utf-8"?>

<svg fill="#000000" version="1.1" id="Layer_1" xmlns="http://www.w3.org/2000/svg" xmlns:xlink="http://www.w3.org/1999/xlink" 
	 width="800px" height="800px" viewBox="0 0 256 236" enable-background="new 0 0 256 236" xml:space="preserve">
<path d="M2,2.328v231.344h40.279v-30.984h12.393c18.678,0,33.013-15.659,33.013-34.439v-20.311h14.493
	c3.878,0,6.94-3.062,6.94-6.838c0-0.919-0.102-1.837-0.51-2.654L88.501,89.456c0,0-1.837-18.678-3.47-25.822
	C77.581,31.382,42.021,2.328,3.033,2.328C2.727,2.328,3.021,2.328,2,2.328z M56.555,91.804c0-5.103,4.083-9.186,9.186-9.186
	s9.186,4.083,9.186,9.186c0,5.103-4.083,9.186-9.186,9.186S56.555,96.907,56.555,91.804z M253.863,74.072
	c2.338-36.769-25.611-68.438-62.381-70.563c-36.77-2.444-68.332,25.505-70.563,62.274c-2.444,36.769,25.505,68.438,62.274,70.67
	C219.963,138.578,251.632,110.735,253.863,74.072z M200.516,64.614c1.913,1.7,5.101-2.55,5.951-3.613
	c2.976-3.082,8.608-1.382,12.646-1.382c-0.319,5.632,1.169,13.284-4.251,16.897c-5.314,3.401-7.333,5.207-13.284,7.439
	c-4.463,1.7-16.153-3.719-20.085-1.382c-5.314,3.401-9.883,6.482-16.047,8.714c-2.763,0.85-11.052,5.951-9.033,9.564
	c1.7,2.657,2.976,5.101,4.038,7.97c1.063,2.657,3.719,6.27,5.951,8.289c2.55,2.232,5.207,6.164,6.589,10.202
	c-11.371-2.763-21.467-9.033-29.437-18.066c-7.226-8.183-11.796-17.641-13.815-28.055c2.763,0.744,6.164-0.319,6.164-0.319
	s7.651-7.333,8.714-14.346c1.063-7.12-1.169-14.772,0.213-20.723c1.382-5.207,9.033-8.077,11.796-12.646
	c2.657-4.463,8.927-9.564,9.139-10.733c0.213-1.594-3.401-2.232-4.038-1.913c-1.594-0.531-3.294-0.638-4.463-0.85
	c7.651-4.676,16.259-7.439,25.399-8.289l-0.213,2.869l-1.382,3.188c0,0,3.188,4.251,4.251,4.463c0.85,0,2.869-0.85,2.869-0.85
	l3.401-3.188l3.401-3.613l4.57-1.7c5.101,1.275,10.096,2.976,14.665,5.314c-0.106,0.531-0.319,1.382-0.319,2.232
	c-2.444-1.063-5.101-1.913-7.333-3.082c-0.85-0.319-4.251,2.125-5.314,2.763c1.169,1.488,6.27,5.42,6.482,7.439
	c0.106,0.85-2.232,1.913-2.232,3.082c0,1.7-0.319,2.657-0.319,4.57c-0.956-0.85-5.739-6.164-6.589-6.164
	c-4.145-1.594-11.583,5.101-12.434,7.439c-0.85,2.232,6.482,8.183,9.883,11.796c2.763,2.657,8.077,4.676,6.164,8.289
	C201.578,57.388,198.497,62.489,200.516,64.614z M245.787,73.541c-1.063,15.515-7.97,29.968-19.766,40.383
	c-9.989,8.714-22.423,13.815-35.388,14.665c-1.7-4.995-6.164-9.777-1.7-12.965c2.869-2.019,5.42-4.251,8.183-6.482
	c0.85-0.638,3.507-6.057,3.188-7.12c-1.594-2.976-1.594-5.101-2.232-8.289c-0.531-4.145,1.488-5.101,4.888-7.014
	c5.314-2.869,10.096-7.014,14.984-10.202c2.55-1.7,5.951-3.082,7.014-5.951c0.85-2.976,1.594-6.801,3.613-9.139
	c5.101-6.27,4.463-11.052,4.463-19.022c0-2.019,1.594-4.251,1.913-7.12C243.449,46.336,246.85,59.513,245.787,73.541z"/>
</svg>