<?xml version="1.0" encoding="utf-8"?>

<svg fill="#000000" version="1.1" id="Layer_1" xmlns="http://www.w3.org/2000/svg" xmlns:xlink="http://www.w3.org/1999/xlink" 
	 width="800px" height="800px" viewBox="0 0 256 173" enable-background="new 0 0 256 173" xml:space="preserve">
<path d="M128.253,56.864c15.186,0,27.432-12.247,27.432-27.432S143.536,2,128.253,2
	c-15.186,0-27.432,12.247-27.432,27.432C100.918,44.716,113.165,56.864,128.253,56.864z M64.571,136.32h-49.28
	c-15.969,0-16.851-24.395,0.294-24.395H58.3l24.493-36.054c7.25-9.895,15.48-14.598,27.138-14.598h36.544
	c11.659,0,19.888,4.311,27.138,14.598l24.591,36.054h43.01c17.243,0,16.165,24.395,0.588,24.395h-49.28
	c-3.919,0-8.622-1.372-11.365-5.584l-18.811-26.844l-0.098,67.209H94.844l-0.098-67.209l-18.811,26.844
	C73.192,134.85,68.49,136.32,64.571,136.32z"/>
<path id="Layer_1_3_" d="M32.825,97.445c16.007-0.972,28.175-14.758,27.11-30.765
	c-0.972-16.007-14.712-28.175-30.719-27.11C13.209,40.495,1.042,54.282,2.059,70.289C3.031,86.25,16.818,98.371,32.825,97.445z
	 M24.544,62.516c-0.833-1.573,1.48-2.452,2.683-3.609c1.48-1.573,4.673-4.164,4.303-5.135c-0.37-1.018-3.609-3.932-5.413-3.238
	c-0.37,0-2.452,2.313-2.868,2.683c0-0.833-0.139-1.249-0.139-1.989c0-0.509-1.018-0.972-0.972-1.342
	c0.093-0.879,2.313-2.591,2.822-3.238c-0.463-0.278-1.943-1.342-2.313-1.203c-0.972,0.509-2.128,0.879-3.192,1.342
	c0-0.37-0.093-0.74-0.139-0.972c1.989-1.018,4.164-1.758,6.384-2.313l1.989,0.74l1.48,1.573l1.48,1.388c0,0,0.879,0.37,1.249,0.37
	c0.463-0.093,1.851-1.943,1.851-1.943l-0.601-1.388l-0.093-1.249c3.979,0.37,7.726,1.573,11.057,3.609
	c-0.509,0.093-1.249,0.139-1.943,0.37c-0.278-0.139-1.851,0.139-1.758,0.833c0.093,0.509,2.822,2.73,3.979,4.673
	c1.203,1.989,4.534,3.238,5.135,5.505c0.601,2.591-0.37,5.922,0.093,9.021c0.463,3.053,3.794,6.246,3.794,6.246
	s1.48,0.463,2.683,0.139c-0.879,4.534-2.868,8.651-6.014,12.214c-3.47,3.932-7.865,6.662-12.815,7.865
	c0.601-1.758,1.758-3.47,2.868-4.441c0.972-0.879,2.128-2.452,2.591-3.609c0.463-1.249,1.018-2.313,1.758-3.47
	c0.879-1.573-2.73-3.794-3.932-4.164c-2.683-0.972-4.673-2.313-6.986-3.794c-1.712-1.018-6.801,1.342-8.744,0.601
	c-2.591-0.972-3.47-1.758-5.783-3.238c-2.359-1.573-1.712-4.904-1.851-7.356c1.758,0,4.21-0.74,5.505,0.601
	c0.37,0.463,1.758,2.313,2.591,1.573C26.163,65.246,24.821,63.025,24.544,62.516z M10.294,53.403c0.139,1.249,0.833,2.221,0.833,3.1
	c0,3.47-0.278,5.552,1.943,8.281c0.879,1.018,1.203,2.683,1.573,3.979c0.463,1.249,1.943,1.851,3.053,2.591
	c2.128,1.388,4.21,3.192,6.523,4.441c1.48,0.833,2.359,1.249,2.128,3.053c-0.278,1.388-0.278,2.313-0.972,3.609
	c-0.139,0.463,1.018,2.822,1.388,3.1c1.203,0.972,2.313,1.943,3.562,2.822c1.943,1.388,0,3.47-0.74,5.644
	c-5.644-0.37-11.057-2.591-15.406-6.384c-5.135-4.534-8.142-10.826-8.605-17.58C5.113,63.951,6.593,58.214,10.294,53.403z"/>
<path d="M252.004,57.625v36.25h-5.46V97.5h-43.5v-3.625h-5.415v-36.25h21.637c0.589-1.087,1.473-2.016,2.537-2.651l-7.227-11.056
	l2.266-1.495l7.613,11.645c0.295-0.045,0.589-0.068,0.884-0.068c0.295,0,0.566,0.023,0.838,0.045L236.508,39.5l2.198,1.586
	l-9.855,13.888c1.088,0.634,1.971,1.541,2.56,2.651H252.004z M239.294,63.063h-36.25v25.375h36.25V63.063z M247.904,86.172
	c0-1.246-1.02-2.266-2.266-2.266s-2.266,1.02-2.266,2.266s1.02,2.266,2.266,2.266S247.904,87.418,247.904,86.172z M247.904,77.517
	c0-1.246-1.02-2.266-2.266-2.266s-2.266,1.02-2.266,2.266s1.02,2.266,2.266,2.266S247.904,78.763,247.904,77.517z"/>
<g id="shopping_cart">
</g>
<g id="cross">
</g>
<g id="leaf">
</g>
</svg>