<?xml version="1.0" encoding="utf-8"?>

<svg fill="#000000" version="1.1" id="Layer_1" xmlns="http://www.w3.org/2000/svg" xmlns:xlink="http://www.w3.org/1999/xlink" 
	 width="800px" height="800px" viewBox="0 0 256 240" enable-background="new 0 0 256 240" xml:space="preserve">
<path d="M108.327,28.998c11.331,0,20.516,9.185,20.516,20.516s-9.185,20.516-20.516,20.516S87.81,60.845,87.81,49.514
	S96.996,28.998,108.327,28.998z M33.069,153.324l-0.189-0.189l0,0c-0.851-0.567-1.607-1.04-2.269-1.796l2.269,26L4.327,217.804
	c-4.065,5.862-2.647,13.804,3.025,17.869c5.862,4.065,13.804,2.647,17.869-3.025l30.822-44.436c1.607-2.269,2.647-5.295,2.269-8.32
	l-1.04-12.574L33.069,153.324z M117.876,237.942h122.341l-22.88-71.381c0,0-12.953,3.215-38.574,30.443
	c-0.567,0.567-1.229,1.229-1.796,1.796l-61.832-35.738c1.04-1.985,1.229-4.255,0.851-6.713L94.05,75.041
	c-1.796-7.942-8.887-13.993-17.207-13.993H35.905c-3.025,0-6.051,1.607-7.753,4.255L7.731,100.757
	c-2.647,4.255-1.04,9.738,3.215,12.196l22.88,13.142l-3.025,5.105c-3.687,6.051-1.607,13.804,4.633,17.207L86.77,178v46.894
	c0,7.091,5.673,12.764,12.764,12.764s12.764-5.673,12.764-12.764v-53.512l56.821,32.902c-11.724,6.713-25.149,7.942-34.698,13.614
	C122.697,224.895,117.876,237.942,117.876,237.942z M38.174,118.626l-15.033-8.698l0,0l17.869-30.822h20.044L38.174,118.626z
	 M71.171,137.724l14.182-24.771l10.589,38.952L71.171,137.724z M192.44,25.836L184.806,2h43.634l-9.357,23.836H192.44z M159,76.02
	c0-18.419,10.194-34.326,25.511-42.255h43.683C243.51,41.694,254,57.601,254,76.02c0,26.102-21.275,47.377-47.377,47.377
	C180.226,123.397,159,102.122,159,76.02z M210.908,87.397c0,2.807-2.561,4.235-6.255,4.235c-4.285,0-8.224-1.428-11.081-2.856
	l-1.97,7.633c2.512,1.428,6.796,2.561,11.327,2.856v6.255h6.501v-6.796c7.683-1.133,11.918-6.255,11.918-12.214
	c0-5.959-3.152-9.603-11.081-12.46c-5.664-1.97-7.929-3.398-7.929-5.664c0-1.724,1.428-3.694,5.664-3.694
	c4.826,0,7.929,1.428,9.653,2.265l1.97-7.387c-2.265-1.133-5.122-1.97-9.653-2.265v-5.959h-6.501v6.205
	c-7.092,1.428-11.327,5.959-11.327,11.918c0,6.55,4.826,9.948,11.918,12.214C208.889,83.407,211.154,84.836,210.908,87.397z"/>
</svg>