<?xml version="1.0" encoding="utf-8"?>

<svg fill="#000000" version="1.1" id="Layer_1" xmlns="http://www.w3.org/2000/svg" xmlns:xlink="http://www.w3.org/1999/xlink" 
	 width="800px" height="800px" viewBox="0 0 256 252" enable-background="new 0 0 256 252" xml:space="preserve">
<path d="M139.824,82.146c0,0-4.421,12.211-12.211,24.316s-18.105,24.316-18.105,24.316l-6.526-4.211v71.263
	c1.684,0,3.053,1.368,3.053,3.053v3.053H84.771v-47.684l0,0l-4.526,47.684h-9.158l-4.526-47.684l0,0v47.684H45.298v-3.053
	c0-1.684,1.368-3.053,3.053-3.053v-71.263l-6.526,4.211c0,0-10.316-12.211-18.105-24.316S11.508,82.146,11.508,82.146
	s12.211-12.211,24.316-12.211c8.526,0,17.368,5.895,21.789,9.579c4.526-5.053,10.947-8.105,18.105-8.105s13.579,3.053,18,8.105
	c4.421-3.684,13.263-9.579,21.789-9.579C127.719,69.936,139.824,82.146,139.824,82.146z M57.508,104.989
	c0,1.684,1.368,3.053,3.053,3.053c1.684,0,3.053-1.368,3.053-3.053c0-1.684-1.368-3.053-3.053-3.053
	C58.877,101.936,57.508,103.304,57.508,104.989z M66.771,141.515v-15.263h-6.105v16.632c0,3.579-2,6.421-5.053,7.789
	c-0.632,0.105-1.053,0.737-1.053,1.368c0,0.842,0.526,1.474,1.474,1.474c0.211,0,0.316,0,0.316,0
	c5.789-0.737,10.316-5.895,10.316-12H66.771z M87.929,104.989c0,1.684,1.368,3.053,3.053,3.053s3.053-1.368,3.053-3.053
	c0-1.684-1.368-3.053-3.053-3.053S87.929,103.304,87.929,104.989z M97.087,152.041c0-0.632-0.421-1.263-1.053-1.368
	c-2.947-1.263-5.053-4.316-5.053-7.789v-16.632h-6v15.263c0,6.105,4.421,11.263,10.316,12h0.316
	C96.35,153.515,97.087,152.883,97.087,152.041z M198.608,91.221c-1.756-1.828-1.698-4.734,0.13-6.491s4.734-1.698,6.491,0.13
	s1.698,4.734-0.13,6.491S200.364,93.049,198.608,91.221z M229.263,82.637c1.828-1.756,1.887-4.662,0.13-6.491
	s-4.662-1.887-6.491-0.13c-1.828,1.756-1.887,4.662-0.13,6.491S227.434,84.394,229.263,82.637z M171.883,56.775
	c1.828-1.756,1.887-4.662,0.13-6.491c-1.756-1.828-4.662-1.887-6.491-0.13s-1.887,4.662-0.13,6.491S170.055,58.532,171.883,56.775z
	 M239.094,60.108c1.828-1.756,1.887-4.662,0.13-6.491s-4.662-1.887-6.491-0.13s-1.887,4.662-0.13,6.491
	C234.36,61.806,237.266,61.864,239.094,60.108z M204.274,24.598c1.828-1.756,1.887-4.662,0.13-6.491
	c-1.756-1.828-4.662-1.887-6.491-0.13s-1.887,4.662-0.13,6.491C199.54,26.296,202.445,26.354,204.274,24.598z M229.857,35.032
	c1.828-1.756,1.887-4.662,0.13-6.491c-1.756-1.828-4.662-1.887-6.491-0.13s-1.887,4.662-0.13,6.491
	C225.123,36.73,228.029,36.788,229.857,35.032z M182.436,34.261c1.828-1.756,1.887-4.662,0.13-6.491
	c-1.756-1.828-4.662-1.887-6.491-0.13s-1.887,4.662-0.13,6.491S180.607,36.017,182.436,34.261z M190.179,61.832l-16.368,15.724
	l-1.58,6.822l6.88-1.305l16.368-15.724c4.637,2.618,10.782,2.02,15.012-2.044c5.15-4.947,5.309-12.88,0.362-18.03
	s-12.88-5.309-18.03-0.362C188.593,50.978,187.573,56.91,190.179,61.832z M253.968,54.72c0,21.672-13.201,40.348-31.968,48.417V119
	h-15.232v88.777c0,17.087-13.772,30.858-30.859,30.858h-26.12v11.181H2V215h148v13.484l26.675-0.05
	c11.476,0,20.657-9.181,20.657-20.657V119H182v-15.814c-18.828-8.041-32.083-26.75-32.083-48.466
	c0-29.073,23.463-52.536,52.536-52.536C231.271,2.184,254.989,25.646,253.968,54.72z M241.747,34.102
	c-11.375-21.68-38.232-30.052-59.912-18.677c-21.68,11.375-30.052,38.232-18.677,59.912c11.375,21.68,38.232,30.052,59.912,18.677
	C244.75,82.639,253.122,55.782,241.747,34.102z"/>
</svg>