<?xml version="1.0" encoding="utf-8"?>

<svg fill="#000000" version="1.1" id="Layer_1" xmlns="http://www.w3.org/2000/svg" xmlns:xlink="http://www.w3.org/1999/xlink" 
	 width="800px" height="800px" viewBox="0 0 215 256" enable-background="new 0 0 215 256" xml:space="preserve">
<path d="M107.5,43.63c-11.01,0-19.82,8.61-19.82,19.82c0,10.81,8.81,19.81,19.82,19.81s19.82-8.8,19.82-19.81
	S118.51,43.63,107.5,43.63z M107.5,43.63c-11.01,0-19.82,8.61-19.82,19.82c0,10.81,8.81,19.81,19.82,19.81s19.82-8.8,19.82-19.81
	S118.51,43.63,107.5,43.63z M107.5,43.63c-11.01,0-19.82,8.61-19.82,19.82c0,10.81,8.81,19.81,19.82,19.81s19.82-8.8,19.82-19.81
	S118.51,43.63,107.5,43.63z M107.5,2L2.02,55.04V254h210.96V55.04L107.5,2z M150.72,238.62l-86.44-0.04v-75.96h86.44V238.62z
	 M75.47,118.89c0-1.4,1.01-2.6,2.61-2.6c1.4,0,2.6,1,2.6,2.6v26.02h-4.81L75.47,118.89z M134.72,118.89c0-1.4,1-2.6,2.6-2.6
	c1.6,0,2.61,1,2.61,2.6v26.02h-4.81v-26.02H134.72z M204.58,144.91h-47.64v-30.82c0-13.61-11.01-24.62-24.62-24.62H83.08
	c-13.61,0-24.62,11.01-24.62,24.62v30.82H10.62V60.25l96.88-48.64l97.08,48.84V144.91z M108.65,211.94l15.73-10.36l21.17,20.09
	v-53.79H69.58v55.85l23.23-44.2L108.65,211.94z M131.84,174.03c4.26,0,7.73,3.48,7.73,7.73s-3.41,7.73-7.73,7.73
	c-4.28,0-7.73-3.48-7.73-7.73S127.59,174.03,131.84,174.03z M87.68,63.45c0,10.81,8.81,19.81,19.82,19.81s19.82-8.8,19.82-19.81
	s-8.81-19.82-19.82-19.82S87.68,52.24,87.68,63.45z M107.5,43.63c-11.01,0-19.82,8.61-19.82,19.82c0,10.81,8.81,19.81,19.82,19.81
	s19.82-8.8,19.82-19.81S118.51,43.63,107.5,43.63z"/>
</svg>