<?xml version="1.0" encoding="utf-8"?>

<svg fill="#000000" version="1.1" id="Layer_1" xmlns="http://www.w3.org/2000/svg" xmlns:xlink="http://www.w3.org/1999/xlink" 
	 width="800px" height="800px" viewBox="0 0 256 190" enable-background="new 0 0 256 190" xml:space="preserve">
<path d="M48.12,27.903C48.12,13.564,59.592,2,74.023,2c14.339,0,25.903,11.564,25.903,25.903
	C99.834,42.335,88.27,53.806,74.023,53.806C59.684,53.806,48.12,42.242,48.12,27.903z M191,139h-47V97c0-20.461-17.881-37-38-37H43
	C20.912,60,1.99,79.14,2,98v77c-0.026,8.533,6.001,12.989,12,13c6.014,0.011,12-4.445,12-13v-75h8v88h78v-88h8l0.081,50.37
	c-0.053,8.729,5.342,12.446,10.919,12.63h60C207.363,163,207.363,139,191,139z M184.29,116.353h30.625v-6.093H184.29V116.353z
	 M210.321,122.51v-1.531h-21.438v1.531c0,3.383,2.742,6.125,6.125,6.125h9.188C207.579,128.635,210.321,125.893,210.321,122.51z
	 M231.758,62.791c0,8.527-3.319,16.279-8.736,22.034c-5.143,5.464-8.108,12.619-8.108,20.123v0.686h-13.016V78.869h6.125v-4.594
	H191.18v4.594h6.125v26.765H184.29v-0.685c0-7.517-2.988-14.672-8.133-20.151c-5.289-5.632-8.571-13.17-8.706-21.473
	c-0.286-17.563,13.815-32.268,31.376-32.681C216.941,30.217,231.758,44.774,231.758,62.791z M204,2h-6v19.938h6V2z M245.971,22.975
	l-4.243-4.243l-14.098,14.098l4.243,4.243L245.971,22.975z M168.312,37.073l4.243-4.243l-14.098-14.098l-4.243,4.243L168.312,37.073
	z"/>
</svg>