<?xml version="1.0" encoding="utf-8"?>

<svg fill="#000000" version="1.1" id="Layer_1" xmlns="http://www.w3.org/2000/svg" xmlns:xlink="http://www.w3.org/1999/xlink" 
	 width="800px" height="800px" viewBox="0 0 236 256" enable-background="new 0 0 236 256" xml:space="preserve">
<path d="M2,118v27h23v109h185V145h24v-27H2z M167.62,165.26h-20.26l6.28-16.07L167.62,165.26z M149.9,145.06l0.12,0.12l-7.84,20.06
	l-17.55-20.18H149.9z M118.15,145.06l17.57,20.2h-35.44l17.57-20.2H118.15z M86.1,145.06h25.27l-17.48,20.1l-7.82-20.08L86.1,145.06
	z M82.45,149.09l6.29,16.17H68.38L82.45,149.09z M68.26,170.32h22.38l21.58,55.43L68.26,170.32z M95.89,170.32h44.31l-22.23,56.74
	L95.89,170.32z M123.81,225.71l21.64-55.39h22.29L123.81,225.71z M146,52H89c-15.59,0-28,13.41-28,29v32h20V86c0-1.71,1.29-3,3-3
	s3,1.29,3,3v27h61V86c0-1.71,1.29-3,3-3s3,1.29,3,3v27h20V81C174,65.51,161.49,52,146,52z M117.5,2
	c-12.47,0-22.63,10.16-22.63,22.63c0,12.46,10.06,22.62,22.63,22.62c12.37,0,22.62-10.16,22.62-22.62C140.12,12.16,129.97,2,117.5,2
	z"/>
</svg>