<?xml version="1.0" encoding="utf-8"?>

<svg fill="#000000" version="1.1" id="Layer_1" xmlns="http://www.w3.org/2000/svg" xmlns:xlink="http://www.w3.org/1999/xlink" 
	 width="800px" height="800px" viewBox="0 0 256 190" enable-background="new 0 0 256 190" xml:space="preserve">
<path d="M48.12,27.903C48.12,13.564,59.592,2,74.023,2c14.339,0,25.903,11.564,25.903,25.903
	C99.834,42.335,88.27,53.806,74.023,53.806C59.684,53.806,48.12,42.242,48.12,27.903z M191,139h-47V97c0-20.461-17.881-37-38-37H43
	C20.912,60,1.99,79.14,2,98v77c-0.026,8.533,6.001,12.989,12,13c6.014,0.011,12-4.445,12-13v-75h8v88h78v-88h8l0.081,50.37
	c-0.053,8.729,5.342,12.446,10.919,12.63h60C207.363,163,207.363,139,191,139z M252.209,94.097h0.292H254
	c0,10.163-8.206,18.369-18.369,18.369s-18.369-8.247-18.369-18.369h1.749h0.292l12.662-41.861h-24.033v65.144h23.783v9.33h-3.041
	h-23.534h-23.534h-3.041v-9.33h23.783V52.237h-24.033l12.662,41.861h0.292h1.749c0,10.163-8.206,18.369-18.369,18.369
	s-18.369-8.247-18.369-18.369h1.499h0.292l13.412-44.61h30.614v-5.581c0-1.541,1.541-3.041,3.041-3.041
	c1.541,0,3.041,1.541,3.041,3.041v5.54h30.614L252.209,94.097L252.209,94.097z M174.527,53.486L162.49,94.097h24.325L174.527,53.486
	z M247.794,94.097l-12.038-40.611l-12.287,40.611H247.794z"/>
</svg>