<?xml version="1.0" encoding="utf-8"?>

<svg fill="#000000" height="800px" width="800px" version="1.2" baseProfile="tiny" id="Layer_1" xmlns="http://www.w3.org/2000/svg" xmlns:xlink="http://www.w3.org/1999/xlink"
	  viewBox="-63 65 128 128" xml:space="preserve">
<path d="M-18.4,78.9C-18.5,71.2-12.3,65-4.6,65C3,65,9.2,71.2,9.2,78.9c0,7.6-6.2,13.8-13.8,13.8C-12.2,92.7-18.4,86.5-18.4,78.9z
	 M20,119.2l-19.9,0.2l-15.8-26.7c-1.2-2.1-3.5-3.2-6.3-3.2c-0.3,0-1.3,0.1-1.7,0.2c-0.3,0.1-0.9,0.2-1.3,0.3
	c-11.6,3.8-17.3,22.2-17.3,41.3c-0.1,5.8,0,9.5,0.3,14.1c-0.4,5.5,2.8,10.9,8.2,12.9c1.5,0.4,2.8,0.7,4.3,0.7h-0.2v18.1h-25.4
	c-4.5,0-7.9,3.5-7.9,7.9c0,4.5,3.5,7.9,7.9,7.9h33.3c2,0,4.2-0.7,5.5-2.4c1.6-1.7,2.6-3.7,2.6-5.7v-58.1l-12-20.5
	c-0.4-0.7-0.1-1.9,0.5-2.4c0.7-0.4,1.9-0.1,2.4,0.5l13.8,23.8c1,1.8,2.9,3,5.1,3H20c3.4,0,6.1-2.8,6.1-6.1
	C26.1,121.9,23.3,119.2,20,119.2z M37.1,192.2v-8.3l-36-12v8.3L37.1,192.2z M17.2,174.5c-2.3-6.9,2.1-10.3,3.9-13.1
	c10.4-16.8-7.3-24-7.3-24c2.3,2.8,1.3,8.6-5.6,15.4C0,161,8.2,170.5,9.4,171.9L17.2,174.5z M27.4,171.7c9.1-12.8-0.1-18-0.1-18
	c-0.2,1.8-1.3,6.6-4,9.9c-5.2,6.1-3.5,9.2-3.1,10.6L27.4,171.7z M34.6,180.3l2.5-0.8v-8.3l-14.9,5L34.6,180.3z M3.7,183.8l-2.5,0.8
	v8.3l14.9-5L3.7,183.8z"/>
</svg>