<?xml version="1.0" encoding="utf-8"?>

<svg fill="#000000" height="800px" width="800px" version="1.2" baseProfile="tiny" id="Layer_1" xmlns="http://www.w3.org/2000/svg" xmlns:xlink="http://www.w3.org/1999/xlink"
	  viewBox="0 0 256 256" xml:space="preserve">
<g>
	<circle cx="183.2" cy="120.2" r="15.5"/>
	<path d="M142.7,174.8l-17.6,16.3c-0.2,0.2-0.5,0.5-0.7,0.8c-1.8,1.5-2.9,3.8-2.9,6.4c0,4.6,3.8,8.4,8.4,8.4c2.7,0,5.1-1.3,6.7-3.3
		c0.1-0.1,0.3-0.2,0.4-0.3l18.6-17.3c0.7-0.7,1.2-1.5,1.6-2.4l5.9-12.7l-0.3,22.4l-26,14.1c-4.7,2.6-7,8.2-5.3,13.3
		s6.8,8.3,12.1,7.6l38.9-10.1l38.9,10.1c5.3,0.7,10.5-2.4,12.1-7.6c1.7-5.1-0.5-10.7-5.3-13.3l-26-14.2l-0.3-22.4l5.9,12.7
		c0.4,0.9,1,1.7,1.6,2.4l18.6,17.3c0.1,0.1,0.2,0.2,0.4,0.3c1.5,2,3.9,3.3,6.7,3.3c4.6,0,8.4-3.8,8.4-8.4c0-2.5-1.1-4.8-2.9-6.3
		c-0.2-0.3-0.4-0.5-0.7-0.8l-17.6-16.3l-11.4-24.4c-3.1-6.2-7.6-10.1-14.2-10.1h-28.6c-6.7,0-11.2,3.9-14.2,10.1L142.7,174.8z"/>
	<path d="M75.9,233.5c-1.5-3.9-2.6-36.2-2.9-46.4l24-29.3c0.4,0,0.9,0.1,1.3,0.1c26,0,47.1-19.8,47.1-44.3c0-4.4-0.7-8.6-1.9-12.6
		c7.7-6.7,12.6-16.6,12.6-27.6c0-20.2-16.4-36.6-36.6-36.6c-5.8,0-11.2,1.3-16.1,3.7c-3.5-14-16.9-24.4-32.8-24.4
		C55,16.1,41.9,26,38.1,39.5c-0.1,0-0.1,0-0.2,0c-18.1,0-32.7,13.8-32.7,30.8c0,7.1,2.6,13.6,6.8,18.8c-6.2,6.7-10,15.7-10,25.6
		c0,20.5,16.4,37.2,36.9,37.7l18,18c-0.4,19.9-1.6,59.5-3.2,63.1h-47V244H253v-10.5H75.9z M57.1,160l-8.6-8.7c3-0.7,5.9-1.8,8.5-3.2
		c0.1,0,0.3,0,0.4,0C57.3,151.1,57.2,155.2,57.1,160z M72,150.3c4.5,2.8,9.5,4.9,14.8,6.2l-14.2,16.2
		C72.4,164.9,72.2,155.5,72,150.3z"/>
</g>
</svg>