<?xml version="1.0" encoding="utf-8"?>

<svg fill="#000000" version="1.1" id="Layer_1" xmlns="http://www.w3.org/2000/svg" xmlns:xlink="http://www.w3.org/1999/xlink" 
	 width="800px" height="800px" viewBox="0 0 256 256" enable-background="new 0 0 256 256" xml:space="preserve">
<path d="M223.178,236.584c-0.633,8.391-7.916,14.566-16.307,13.932c-2.692-0.158-4.591-1.108-6.966-2.217
	c0,0-43.064-29.29-45.597-31.348c-4.275-3.641-8.55-7.916-10.449-14.091c-0.633-2.217-9.341-31.823-9.341-31.823L130.608,254H43.217
	l2.111-33.406H24.64c-12.508,0-22.64-10.133-22.64-22.64c0-3.008,0.475-5.858,1.583-8.391c0,0,23.432-52.563,27.865-61.113
	c6.491-12.824,17.891-18.366,33.881-17.891h42.272l-88.503,63.488l-7.916,18.524c-0.792,1.583-1.108,3.483-1.108,5.383
	c0,7.916,6.491,14.408,14.407,14.408h73.621c12.508,0,22.64-10.133,22.64-22.64c0-11.083-7.916-20.424-18.366-22.324l21.532-57.155
	h5.066c11.874,0,21.215,8.075,23.907,17.257l16.941,61.113c0.317,0.95,1.425,2.85,2.85,3.958
	c1.742,1.267,44.647,30.715,44.647,30.715C221.278,226.293,223.653,231.201,223.178,236.584z M93.195,100.109
	c18.524,1.425,34.673-12.349,36.098-30.873c1.425-18.524-12.349-34.673-30.873-36.098c-18.524-1.425-34.673,12.349-36.098,30.873
	C60.896,82.535,74.671,98.684,93.195,100.109z M112.51,189.562c0-7.441-5.7-13.458-12.824-14.249l-10.449,28.815l8.866-0.158
	C106.019,203.97,112.51,197.478,112.51,189.562z M222.723,87.887c-4.865-1.986-7.05-2.979-7.05-5.262
	c0-1.986,1.688-3.674,5.461-3.674c3.674,0,6.454,0.993,7.844,1.688l1.887-6.851c-1.787-0.695-3.872-1.39-6.752-1.688v-5.56h-9.73
	v6.454c-4.865,1.688-7.745,5.56-7.745,10.326c0,5.461,3.972,8.936,10.426,11.22c4.567,1.589,6.255,2.979,6.255,5.262
	c0,2.482-2.085,3.972-5.957,3.972c-3.674,0-7.149-1.291-9.433-2.284l-1.688,7.05c1.688,0.993,4.766,1.787,8.043,2.085v5.461h9.73
	v-6.355c5.461-1.986,8.043-5.957,8.043-10.723C232.454,93.645,229.376,90.27,222.723,87.887z M198.199,36.95h42.099V44h-42.099
	V36.95z M198.199,22.95h42.099V30h-42.099V22.95z M254,20.865c-0.199-10.028-8.142-17.972-17.872-18.667
	c-0.298,0-0.794-0.099-1.092-0.099c0,0-62.057-0.099-62.355-0.099c-3.972,0-7.745,1.191-10.723,3.277
	c-2.582,1.787-4.766,4.17-6.156,7.05c-1.39,2.582-2.184,5.56-2.184,8.738c0,0.099,0,0.199,0,0.298s0,0.099,0,0.199
	c0,10.426,8.44,18.965,18.965,18.965c4.567,0,8.738-1.688,12.014-4.369v6.652v32.567v7.05v24.525V128H254V22.95
	C254,22.255,254,21.461,254,20.865z M247.05,22.95v12.908v85.092h-55.504c0,0,0.099-99.291,0.099-99.787
	c0-4.468-1.688-8.738-4.369-12.014h48.057c6.652,1.191,11.617,6.95,11.617,13.801H247.05z M198.199,50.95h42.099V58h-42.099V50.95z"
	/>
</svg>