<?xml version="1.0" encoding="utf-8"?>

<svg fill="#000000" version="1.1" id="Layer_1" xmlns="http://www.w3.org/2000/svg" xmlns:xlink="http://www.w3.org/1999/xlink" 
	 width="800px" height="800px" viewBox="0 0 256 190" enable-background="new 0 0 256 190" xml:space="preserve">
<path d="M48.12,27.903C48.12,13.564,59.592,2,74.023,2c14.339,0,25.903,11.564,25.903,25.903
	C99.834,42.335,88.27,53.806,74.023,53.806C59.684,53.806,48.12,42.242,48.12,27.903z M191,139h-47V97c0-20.461-17.881-37-38-37H43
	C20.912,60,1.99,79.14,2,98v77c-0.026,8.533,6.001,12.989,12,13c6.014,0.011,12-4.445,12-13v-75h8v88h78v-88h8l0.081,50.37
	c-0.053,8.729,5.342,12.446,10.919,12.63h60C207.363,163,207.363,139,191,139z M253.447,41.039l-8.01,8.01
	c-0.738,0.737-1.933,0.737-2.67,0l-0.001-0.001L220.58,71.234c5.118,7.301,6.109,15.417,1.88,19.647
	c-0.971,0.971-2.149,1.666-3.473,2.1c-1.066,0.365-2.157,0.783-3.246,1.296c-1.296,0.611-2.526,1.418-3.601,2.493
	c-1.505,1.505-2.479,3.324-3.087,5.217c-1.255,3.906-2.173,8.701-3.382,12.734c-0.379,1.557-0.937,3.046-1.668,4.443
	c-0.312,0.631-0.646,1.203-1.008,1.704c-0.649,0.97-1.394,1.884-2.239,2.729c-3.72,3.72-8.852,5.53-14.271,5.541
	c-7.438,0.015-15.503-3.36-21.981-9.838c-6.456-6.456-9.829-14.562-9.836-21.98c-0.006-5.448,1.803-10.536,5.54-14.273
	c0.841-0.84,1.75-1.582,2.714-2.229c0,0-0.001-0.001-0.002-0.002c0.516-0.374,1.11-0.718,1.764-1.039
	c1.354-0.703,2.795-1.242,4.298-1.616c4.054-1.224,8.897-2.147,12.834-3.411c1.892-0.608,3.711-1.582,5.217-3.087
	c1.075-1.075,1.882-2.306,2.493-3.601c0.521-1.106,0.945-2.216,1.314-3.297c0.435-1.303,1.126-2.462,2.084-3.42
	c4.229-4.229,12.346-3.238,19.647,1.88l22.186-22.186c-0.736-0.737-0.736-1.932,0.001-2.669l8.01-8.01
	c0.737-0.737,1.933-0.737,2.67,0l8.01,8.01C254.184,39.106,254.184,40.301,253.447,41.039z M189.389,107.808l-13.35-13.35
	l-2.67,2.67l13.35,13.35L189.389,107.808z M206.513,77.292c-2.765-2.765-7.248-2.765-10.012,0c-2.765,2.765-2.765,7.248,0,10.012
	c2.765,2.765,7.248,2.765,10.012,0C209.278,84.539,209.278,80.056,206.513,77.292z"/>
</svg>