<?xml version="1.0" encoding="utf-8"?>

<svg fill="#000000" version="1.1" id="Reporter" xmlns="http://www.w3.org/2000/svg" xmlns:xlink="http://www.w3.org/1999/xlink" 
	 width="800px" height="800px" viewBox="0 0 300 300" xml:space="preserve">
<path d="M217,274V156h-14v136H82v-52h73.5c15.4,0,28-12.8,27.5-28.3c-0.4-15-13.1-26.7-28.1-26.7H154v-10h12v-32h-6v-11.7
	c0-8.7-6.8-16.1-15.6-16.3c-9.2-0.2-16.4,6.8-16.4,16.4V143h-6v32h12v10H82v10h73.5c9.6,0,17.3,7.7,17.5,17.2
	c0.2,9.8-8.2,17.8-18,17.8H70.8C56.5,230,45,218.5,45,204.3v-56.5c0-27,21.8-48.8,48.7-48.8h110.5c26.9,0,48.7,21.8,48.8,48.7V274
	c0,9.9-8.1,18-18,18l0,0C225.1,292,217,283.9,217,274z M147,90.5c22.4,0,40.5-18.1,40.5-40.5S169.4,9.5,147,9.5S106.5,27.6,106.5,50
	C106.5,72.3,124.6,90.5,147,90.5z M160,149h-32v20h32V149z"/>
</svg>