<?xml version="1.0" encoding="utf-8"?>

<svg fill="#000000" version="1.1" id="Layer_1" xmlns="http://www.w3.org/2000/svg" xmlns:xlink="http://www.w3.org/1999/xlink" 
	 width="800px" height="800px" viewBox="0 0 256 209" enable-background="new 0 0 256 209" xml:space="preserve">
<path d="M96.5,56.877c15.434,0,27.946,12.512,27.946,27.946S111.934,112.77,96.5,112.77s-27.946-12.512-27.946-27.946
	S81.066,56.877,96.5,56.877z M135.386,103.23c-5.954-2.213-12.573,0.823-14.785,6.775l-15.487,41.689
	c0,0-27.503-38.023-27.802-38.35c-5.792-8.471-16.386-11.099-26.869-8.642c-28.795,6.752-43.671,37.407-47.444,81.165
	C2.549,191.072,2,206.875,2,206.875h78.586V186.47v-0.419v-29.032l16.378,22.663c2.551,3.525,6.6,5.562,10.873,5.562
	c0.603,0,1.212-0.041,1.82-0.124c4.92-0.669,9.051-3.976,10.782-8.633l21.722-58.471C144.373,112.062,141.34,105.442,135.386,103.23
	z M96.5,191.125H254v15.75H96.5V191.125z M167.375,167.5h70.875v11.985h-70.875V167.5z M167.375,120.25h70.875v11.813h-70.875
	V120.25z M167.375,73.011h70.875v11.813h-70.875V73.011z M175.25,49.375h70.875v11.813H175.25V49.375z M143.75,25.873h70.875v11.813
	H143.75V25.873z M120.125,2.125H191v11.813h-70.875V2.125z M183.125,143.875H254v11.985h-70.875V143.875z M183.125,96.625H254
	v11.813h-70.875V96.625z"/>
</svg>