<?xml version="1.0" encoding="utf-8"?>

<svg fill="#000000" version="1.1" id="_x31_" xmlns="http://www.w3.org/2000/svg" xmlns:xlink="http://www.w3.org/1999/xlink" 
	 viewBox="0 0 128 128" xml:space="preserve">
<g>
	<rect x="45.3" y="66.9" width="64.1" height="5.4"/>
	<circle cx="40.9" cy="16.8" r="11.8"/>
	<path d="M57,76H37.1l0-14.8L26.9,43.7c-0.4-0.7-0.1-1.6,0.5-2c0.7-0.4,1.6-0.1,2,0.5l11.8,20.3c0.9,1.5,2.5,2.6,4.4,2.6h20.3
		c2.9,0,5.2-2.4,5.2-5.2c0-2.9-2.4-5.2-5.2-5.2l-17,0.2L35.4,32.1c-1-1.8-3-2.8-5.4-2.8c-0.3,0-1.1,0.1-1.4,0.2
		c-0.3,0.1-0.8,0.2-1.1,0.3C17.6,33.1,9.8,48.8,9.8,65c-0.1,4.9,0,9,0.3,12.9c-0.4,4.7,2.4,9.3,7,11c1.2,0.4,2.4,0.7,3.6,0.7h29.6
		v27.7c0,3.8,3,6.7,6.7,6.7c3.8,0,6.7-3,6.7-6.7V82.8c0-1.7-0.7-3.5-2-4.7C60.3,76.7,58.6,76,57,76z"/>
	<polygon points="73.9,60 73.9,64.4 102.5,64.4 102.5,64 102.6,64.1 115,33.7 111,32 99.6,60 	"/>
	<path d="M72.2,28c1.6-0.8,2.7-2,2.9-3.1h0v-0.1c0-0.1,0-0.3,0-0.4V12.8h11.1v10.9c-1-0.3-2.5-0.2-3.9,0.6c-2.1,1-3.4,2.8-2.8,3.9
		c0.5,1.1,2.7,1.2,4.8,0.1c1.8-0.9,2.9-2.2,2.9-3.3h0V10.8H74.1v12.6c-1-0.3-2.4-0.2-3.9,0.6c-2.1,1-3.4,2.8-2.8,3.9
		C68,29,70.1,29.1,72.2,28z"/>
	<path d="M93.6,39.1c1.8-0.9,3-2.3,2.9-3.4h0v-0.1c0,0,0,0,0,0V26c0,0,0,0,0,0c0.3,0.1,0.6,0.2,0.8,0.4c0.1,0.1,0.3,0.3,0.4,0.5
		c0.1,0.3,0.2,0.6,0.3,0.9c0.2,0.7,0.6,1.3,0.9,1.8c0.3,0.5,0.7,1,1.1,1.3c0.7,0.7,1.2,1,1.2,1s-0.4-0.5-0.8-1.3
		c-0.2-0.4-0.4-0.9-0.5-1.5c-0.1-0.5-0.2-1.1-0.2-1.7c0-0.3,0-0.6,0-0.9c0-0.4,0-0.8-0.1-1.2c-0.2-0.8-0.7-1.5-1.2-2
		c-0.5-0.5-1-0.8-1.3-1c-0.2-0.1-0.3-0.2-0.4-0.2c-0.1,0-0.2-0.1-0.2-0.1h-1v12.4c-1-0.3-2.4-0.2-3.9,0.6c-2.1,1-3.4,2.8-2.8,3.9
		C89.3,40.1,91.5,40.2,93.6,39.1z"/>
</g>
</svg>