<?xml version="1.0" encoding="utf-8"?>

<svg fill="#000000" version="1.1" id="Layer_1" xmlns="http://www.w3.org/2000/svg" xmlns:xlink="http://www.w3.org/1999/xlink" 
	 width="800px" height="800px" viewBox="0 0 256 190" enable-background="new 0 0 256 190" xml:space="preserve">
<path d="M205.07,30.68c-27.11,0-48.86,22.04-48.86,49.15c0,26.96,21.89,48.85,48.86,48.85c26.96,0,49-21.89,49-49
	S232.18,30.68,205.07,30.68z M208.74,106.41v7.68h-6.76v-7.44c-5.85,0-11.75-1.55-14.6-3.14l2.47-9.91
	c3.14,1.55,8.07,3.38,13.29,3.38c5.6,0,8.36-2.46,8.36-5.84c0-3.39-2.66-4.79-9.14-7.3c-8.98-3.14-14.59-7.68-14.59-15.75
	c0-7.45,4.93-13.29,13.97-15.13v-8.07h6.76v7.68c5.61,0,9.67,1.16,12.66,2.76l-2.75,9.66c-2.23-0.91-5.85-2.46-10.83-2.46
	c-4.98,0-7.68,2.46-7.68,4.93c0,3.38,3.14,4.69,9.91,7.44c9.22,3.38,13.53,8.07,13.53,15.75
	C223.34,98.34,218.65,104.18,208.74,106.41z M191,139h-47V97c0-20.46-17.88-37-38-37H43C20.91,60,1.99,79.14,2,98v77
	c-0.03,8.53,6,12.99,12,13c6.01,0.01,12-4.45,12-13v-75h8v88h78v-88h8l0.08,50.37c-0.05,8.73,5.34,12.45,10.92,12.63h60
	C207.36,163,207.36,139,191,139z M74.02,2c-14.43,0-25.9,11.56-25.9,25.9c0,14.34,11.56,25.91,25.9,25.91
	c14.25,0,25.81-11.48,25.91-25.91C99.93,13.56,88.36,2,74.02,2z"/>
</svg>