<?xml version="1.0" encoding="utf-8"?>

<svg fill="#000000" version="1.1" id="Layer_1" xmlns="http://www.w3.org/2000/svg" xmlns:xlink="http://www.w3.org/1999/xlink" 
	 width="800px" height="800px" viewBox="0 0 256 217" enable-background="new 0 0 256 217" xml:space="preserve">
<path d="M54.758,31.863c0-16.403,13.122-29.631,29.631-29.631c16.403,0,29.631,13.228,29.631,29.631
	c-0.106,16.509-13.334,29.631-29.631,29.631C67.986,61.494,54.758,48.266,54.758,31.863z M218.2,158.948h-53.764v-48.044
	c0-23.406-20.454-42.325-43.469-42.325H48.9c-25.267,0-46.912,21.894-46.9,43.469v88.081C1.97,209.891,8.865,214.988,15.727,215
	c6.879,0.012,13.727-5.085,13.727-14.871v-85.793h9.151v100.52h89.225v-100.52h9.151l0.093,57.618
	c-0.061,9.985,6.111,14.237,12.49,14.448H218.2C236.917,186.402,236.917,158.948,218.2,158.948z M247.322,71.37v11.712
	c0,15.924-12.945,28.767-28.767,28.767h-4.623c-15.924,0-28.767-12.945-28.767-28.767V71.37h-6.678v11.712
	c0,17.979,13.562,32.774,31.027,35.034v14.486l-10.479,8.836h-4.931v5.548h24.555h4.829h14.897v-5.548h-4.829l-10.788-9.144v-14.075
	C240.336,116.061,254,101.267,254,83.185V71.37H247.322z M239.617,81.336v0.616c0,11.712-9.555,21.267-21.267,21.267h-4.315
	c-11.712,0-21.267-9.555-21.267-21.164v-0.616h13.562v-6.781h-13.562v-8.836h13.562v-6.781h-13.562v-8.836h13.561v-6.781H192.87
	c0.308-11.404,9.657-20.65,21.164-20.65h4.315c11.507,0,20.856,9.246,21.267,20.65h-13.972v6.781h14.075v8.836h-14.075v6.678h14.075
	v8.836h-14.075v6.781H239.617z"/>
</svg>