<?xml version="1.0" encoding="utf-8"?>

<svg fill="#000000" version="1.1" id="Layer_1" xmlns="http://www.w3.org/2000/svg" xmlns:xlink="http://www.w3.org/1999/xlink" 
	 width="800px" height="800px" viewBox="0 0 256 197" enable-background="new 0 0 256 197" xml:space="preserve">
<path d="M217.661,68.478h-16.249l-22.681,43.307L156.05,68.478h-39.612c-0.029-10.053-0.207-31.556-0.207-31.556H85.606v-3.067
	c0-7.02-5.691-12.711-12.711-12.711c-7.02,0-12.711,5.691-12.711,12.711v3.067H29.689c0,0-0.25,69.551-0.042,105.26h-8.832
	c-10.107,0-18.363,7.703-18.796,17.536c-0.223,5.064,1.579,9.866,5.075,13.52c3.498,3.656,8.21,5.668,13.268,5.668
	c0,0,77.554,0,77.736,0c4.771,0,9.226-1.759,12.626-5.007c3.517-3.36,5.548-8.351,5.548-12.844c0,0,0.123-22.125,0.174-49.107
	h19.768v82.752h85.033V115.45c0-2.183,1.403-3.665,3.665-3.665c2.183,0,3.665,1.403,3.665,3.665v79.251H254v-89.882
	C254,84.777,237.624,68.478,217.661,68.478z M20.362,171.018c-2.885,0-5.573-1.149-7.568-3.234
	c-1.994-2.084-3.022-4.825-2.894-7.718c0.243-5.51,5.14-9.994,10.915-9.994h62.158c-2.299,3.293-3.442,7.228-3.253,11.335
	c0.163,3.547,1.364,6.851,3.302,9.612H20.362z M108.384,160.803c0,2.851-1.104,5.477-3.109,7.392
	c-2.039,1.947-4.786,2.951-7.713,2.81c-5.341-0.246-9.717-4.621-9.962-9.961c-0.133-2.898,0.892-5.643,2.886-7.731
	c1.642-1.72,3.758-2.791,6.065-3.122v-8.009H37.536c-0.201-34.393-0.204-63.12-0.006-97.371h70.891
	C108.786,86.023,108.384,160.803,108.384,160.803z M202.101,17.04c-8.486-11.741-17.572-16.067-29.888-14.394
	c-16.484,2.238-28.032,17.416-25.794,33.9s17.318,27.135,33.9,25.794c21.243-1.719,37.165-16.756,42.923-30.198
	c0-0.001,0.001-0.002,0.002-0.003C214.099,30.977,207.461,24.456,202.101,17.04z"/>
</svg>