<?xml version="1.0" encoding="utf-8"?>

<svg fill="#000000" version="1.1" id="Layer_1" xmlns="http://www.w3.org/2000/svg" xmlns:xlink="http://www.w3.org/1999/xlink" 
	 width="800px" height="800px" viewBox="0 0 250 256" enable-background="new 0 0 250 256" xml:space="preserve">
<path d="M67.529,29.714c9.189-6.011,16.794-6.611,25.059-2.088c11.062,6.053,15.123,19.927,9.071,30.989
	c-6.053,11.062-19.615,14.515-30.989,9.071C56.097,60.712,48.902,45.751,48.47,34.674c0,0,0-0.002,0-0.002
	C55.257,36.329,61.724,33.512,67.529,29.714z M247.923,13.854h-3.719L244.366,254l-98.885-0.013v-0.012
	c-4.744-0.258-9.231-2.939-11.581-7.46l-18.863-36.273l-7.053,32.578c-1.407,6.633-7.264,11.18-13.783,11.18
	c-0.97,0-1.954-0.101-2.941-0.31c-7.62-1.617-12.486-9.104-10.869-16.724L90.341,191H17.827v63H2.077v-78.75h22.112
	c-2.737-4.417-4.146-10.323-4.9-16.988v0c-2.2-22.547,2.049-51.223,10.819-71.837c4.316-10.144,11.206-20.851,22.229-20.851h0
	c9.187,0,13.313,6.795,17.329,15.177c1.876,3.916,15.097,31.5,15.097,31.5l42.997,0.093c-7.466,5.157-12.378,13.797-12.393,23.574
	l-46.38,0.002l0.041,19.757h40.51c5.181,0,9.932,2.884,12.322,7.482l30.286,58.241v-73.711h-31.946l0.087-11.726
	c0-12.954,10.584-23.712,23.538-23.712h6.029l21.118-45.206l6.243,2.917l-19.755,42.29h25.831l-0.091-98.396h-3.82V2h68.541V13.854z
	 M183.292,147.688h-15.956v90.563h15.865L183.292,147.688z"/>
</svg>