<?xml version="1.0" encoding="utf-8"?>

<svg fill="#000000" version="1.1" id="Layer_1" xmlns="http://www.w3.org/2000/svg" xmlns:xlink="http://www.w3.org/1999/xlink" 
	 width="800px" height="800px" viewBox="0 0 256 256" enable-background="new 0 0 256 256" xml:space="preserve">
<path d="M59.471,56.604c8.061-5.274,14.734-5.799,21.985-1.832c9.705,5.31,13.268,17.482,7.958,27.187
	c-5.31,9.705-17.208,12.734-27.187,7.958c-12.784-6.119-19.096-19.244-19.475-28.961v-0.002
	C48.706,62.408,54.379,59.936,59.471,56.604z M139.804,108.257v11.805h5.501c-0.925,12.354-10.666,22.248-22.957,23.393
	c0.775-1.453,1.222-3.108,1.23-4.869c0.028-5.782-4.639-10.491-10.421-10.518l-39.358-0.19c0,0-9.23-19.857-12.115-26.791
	c-0.039-0.093-0.085-0.178-0.126-0.269c-0.014-0.035-0.023-0.074-0.039-0.108c-3.439-7.394-7.63-11.911-15.689-11.911
	c-9.671,0-15.4,8.659-19.186,17.557c-7.695,18.084-11.422,43.243-9.492,63.022c0.809,7.152,2.48,13.305,6.091,17.29H2.086
	l0.001,67.178h13.289v-53.889h63.676l-8.296,39.098c-1.418,6.685,2.851,13.254,9.536,14.672c0.867,0.184,1.728,0.273,2.58,0.273
	c5.719,0,10.857-3.989,12.092-9.809l5.563-26.219l13.399,28.861c2.094,4.512,6.563,7.167,11.231,7.166
	c1.743,0,3.516-0.371,5.201-1.152c6.199-2.877,8.891-10.235,6.013-16.433l-29.022-62.52c-2.027-4.369-6.407-7.163-11.223-7.163
	H60.787l-0.038-17.974l51.511,0.246v18.276h33.893v86.454h13.325V167.28h94.436v-59.023H139.804z M199.79,16.465
	C182.052,0.92,159.478,2.017,159.478,2.017v98.358h23.588l1.719-66.271h4.474l1.698,66.271h62.957c0,0,0-31.141,0-52.576
	C226.633,43.901,214.961,29.761,199.79,16.465z"/>
</svg>