<?xml version="1.0" encoding="utf-8"?>

<svg fill="#000000" version="1.1" id="Layer_1" xmlns="http://www.w3.org/2000/svg" xmlns:xlink="http://www.w3.org/1999/xlink" 
	 width="800px" height="800px" viewBox="0 0 236 256" enable-background="new 0 0 236 256" xml:space="preserve">
<path d="M117.5,2c-12.47,0-22.63,10.16-22.63,22.63c0,12.46,10.06,22.62,22.63,22.62c12.37,0,22.62-10.16,22.62-22.62
	C140.12,12.16,129.97,2,117.5,2z M146,52H89c-15.59,0-28,13.41-28,29v32h20V86c0-1.71,1.29-3,3-3s3,1.29,3,3v27h61V86
	c0-1.71,1.29-3,3-3s3,1.29,3,3v27h20V81C174,65.51,161.49,52,146,52z M2,118v27h23v109h185V145h24v-27H2z M164.15,223.94h-92.3v-70
	h92.3V223.94z M157.38,212.96v-47.95l-23.94,23.93L157.38,212.96z M123.4,189.89l29.43-29.43H82.66L112,189.8
	C115.08,192.8,120.4,192.89,123.4,189.89z M127.69,194.52c-5.4,5.4-14.41,5.4-20.07,0l-1.03-0.94l-23.84,23.84h70.08l-24.11-23.93
	L127.69,194.52z M78.37,165.01l-0.09,47.95l23.94-24.02L78.37,165.01z M82.66,217.51l0.09-0.09h-0.09V217.51z"/>
</svg>