<?xml version="1.0" encoding="utf-8"?>

<svg fill="#000000" version="1.1" id="Layer_1" xmlns="http://www.w3.org/2000/svg" xmlns:xlink="http://www.w3.org/1999/xlink" 
	 width="800px" height="800px" viewBox="0 0 256 240" enable-background="new 0 0 256 240" xml:space="preserve">
<path d="M84.635,20.256c18.383,0,33.286,14.903,33.286,33.286s-14.903,33.286-33.286,33.286S51.349,71.925,51.349,53.542
	S66.251,20.256,84.635,20.256z M31.002,145.011c0-2.499,1.606-4.194,4.194-4.194s4.194,1.606,4.194,4.194v92.986h91.469v-92.986
	c0-2.499,1.606-4.194,4.194-4.194c2.499,0,4.194,1.606,4.194,4.194v92.986h29.092V136.623c0-22.934-18.74-41.585-41.585-41.585
	h-8.388l-24.451,38.015l-2.945-28.467l4.016-9.638H76.96l4.016,9.638l-3.123,28.645L53.401,95.038h-9.816
	C20.651,95.038,2,113.778,2,136.623v101.375h29.092v-92.986H31.002z M254,100c-1.942,0-3.884-0.486-5.584-1.214
	c-1.78-0.809-3.723-1.295-5.746-1.295s-4.046,0.486-5.746,1.295c-1.699,0.728-3.642,1.214-5.584,1.214
	c-1.942,0-3.884-0.486-5.584-1.214c-1.78-0.809-3.723-1.295-5.746-1.295c-2.023,0-4.046,0.486-5.746,1.295
	c-1.699,0.728-3.642,1.214-5.584,1.214c-2.023,0-3.884-0.486-5.584-1.214c-1.78-0.809-3.723-1.295-5.746-1.295
	s-4.046,0.486-5.746,1.295c-1.699,0.728-3.642,1.214-5.584,1.214s-3.884-0.486-5.584-1.214c-1.78-0.809-3.723-1.295-5.746-1.295
	c-2.023,0-4.046,0.486-5.746,1.295c-1.699,0.728-3.642,1.214-5.584,1.214v-8.416c2.023,0,3.884-0.486,5.584-1.214
	c1.699-0.809,3.723-1.295,5.746-1.295c2.023,0,3.965,0.486,5.746,1.295c1.699,0.728,3.642,1.214,5.584,1.214
	c2.023,0,3.884-0.486,5.584-1.214c1.699-0.809,3.723-1.295,5.746-1.295s3.965,0.486,5.746,1.295
	c1.699,0.728,3.561,1.214,5.584,1.214c1.942,0,3.884-0.486,5.584-1.214c1.699-0.809,3.723-1.295,5.746-1.295
	c2.023,0,3.965,0.486,5.746,1.295c1.699,0.728,3.561,1.214,5.584,1.214c2.023,0,3.884-0.486,5.584-1.214
	c1.699-0.809,3.723-1.295,5.746-1.295s4.046,0.486,5.746,1.295c1.699,0.728,3.561,1.214,5.584,1.214V100z M166.035,65.04h51.549V2
	L166.035,65.04z M222.52,65.04h30.832c2.347-22.578-15.618-41.434-30.832-48.474V65.04z M246.798,69.572h-14.081h-54.543v12.462
	c0.728,0.243,1.538,0.405,2.266,0.809c1.699,0.728,3.642,1.214,5.584,1.214c2.023,0,3.884-0.486,5.584-1.214
	c1.699-0.809,3.723-1.295,5.746-1.295s4.046,0.486,5.746,1.295c1.699,0.728,3.561,1.214,5.584,1.214
	c1.942,0,3.884-0.486,5.584-1.214c1.699-0.809,3.723-1.295,5.746-1.295c2.023,0,3.965,0.486,5.746,1.295
	c1.699,0.728,3.561,1.214,5.584,1.214c0.405,0,0.728-0.081,1.133-0.162l0.081,0.081c0.243,0,0.405-0.081,0.647-0.081
	c0.486-0.081,0.89-0.081,1.376-0.243c4.046-0.809,6.636-3.965,6.636-3.965l7.931-9.954h-2.347V69.572z"/>
</svg>