<?xml version="1.0" encoding="utf-8"?>

<svg fill="#000000" height="800px" width="800px" version="1.2" baseProfile="tiny" id="Layer_1" xmlns="http://www.w3.org/2000/svg" xmlns:xlink="http://www.w3.org/1999/xlink"
	  viewBox="-351 153 256 256" xml:space="preserve">
<path d="M-242.8,337.7c4.4,0,7.4-3.5,7.4-7.4c0-4.4-3.5-7.4-7.4-7.4c-4.2,0-7.4,3.5-7.4,7.4C-250.5,334.4-247,337.7-242.8,337.7z
	 M-201.5,350.5c-1.9-0.7-4.4,0-5.3,2.3c-2.8,6.5-9.5,10.9-16.5,10.9c-7.2,0-13.9-4.4-17-10.9c-0.9-2.3-3.3-3.3-5.3-2.3
	c-2.3,0.9-3.3,3.3-2.3,5.3c4.4,9.8,13.9,16,24.4,16c10.2,0,20-6.3,24.4-16C-198.4,354-199.1,351.4-201.5,350.5z M-203.3,322.6
	c-4.4,0-7.4,3.3-7.4,7.4c0,4.4,3.5,7.4,7.4,7.4s7.4-3.3,7.4-7.4S-199.1,322.6-203.3,322.6z M-330.4,272.8V298h21.6v100.3H-138V298
	h22.4v-25.2H-330.4z M-223.1,389.7c-25,0-45.3-20.3-45.3-45.3s20.3-45.3,45.3-45.3s45.3,20.3,45.3,45.3S-198.1,389.7-223.1,389.7z
	 M-174.3,174.9c10.3,0,18.7,8.4,18.7,18.7c0,10.3-8.4,18.7-18.7,18.7s-18.7-8.4-18.7-18.7C-193,183.3-184.6,174.9-174.3,174.9z
	 M-151,216.6h-46.6c-12.9,0-23.3,10.4-23.3,23.3v26.5h16.4l-0.1-21.9c0-1.4,1-2.4,2.4-2.4s2.4,1,2.4,2.4v21.9h51.4v-21.9h-0.2
	c0-1.4,1-2.4,2.4-2.4s2.4,1,2.4,2.4v21.9h16.1v-26.5C-127.7,227.1-138.2,216.6-151,216.6z M-273.3,174.9c10.3,0,18.7,8.4,18.7,18.7
	c0,10.3-8.4,18.7-18.7,18.7c-10.3,0-18.7-8.4-18.7-18.7C-292,183.3-283.6,174.9-273.3,174.9z M-250,216.6h-46.6
	c-12.9,0-23.3,10.4-23.3,23.3v26.5h16.4l-0.1-21.9c0-1.4,1-2.4,2.4-2.4c1.4,0,2.4,1,2.4,2.4v21.9h51.4v-21.9h-0.2
	c0-1.4,1-2.4,2.4-2.4s2.4,1,2.4,2.4v21.9h16.1v-26.5C-226.7,227.1-237.2,216.6-250,216.6z"/>
</svg>