<?xml version="1.0" encoding="utf-8"?>

<svg fill="#000000" version="1.1" id="Layer_1" xmlns="http://www.w3.org/2000/svg" xmlns:xlink="http://www.w3.org/1999/xlink" 
	 width="800px" height="800px" viewBox="0 0 256 240" enable-background="new 0 0 256 240" xml:space="preserve">
<path d="M126.75,95.04h-8.38l-24.45,38.01l-2.95-28.46l4.02-9.64H76.96l4.02,9.64l-3.13,28.64L53.4,95.04h-9.82
	C20.65,95.04,2,113.78,2,136.62V238h29.09v-92.99H31c0-2.5,1.61-4.19,4.2-4.19c2.58,0,4.19,1.6,4.19,4.19V238h91.47v-92.99
	c0-2.5,1.61-4.19,4.19-4.19c2.5,0,4.2,1.6,4.2,4.19V238h29.09V136.62C168.34,113.69,149.6,95.04,126.75,95.04z M84.63,20.26
	c-18.38,0-33.28,14.9-33.28,33.28c0,18.39,14.9,33.29,33.28,33.29c18.39,0,33.29-14.9,33.29-33.29
	C117.92,35.16,103.02,20.26,84.63,20.26z M235,9V2h-39v7h-20v100h32V88h14v21h32V9H235z M202,73h-13V60h13V73z M202,54h-13V41h13V54
	z M202,35h-13V22h13V35z M222,73h-14V60h14V73z M222,54h-14V41h14V54z M222,35h-14V22h14V35z M241,73h-13V60h13V73z M241,54h-13V41
	h13V54z M241,35h-13V22h13V35z"/>
</svg>