<?xml version="1.0" encoding="utf-8"?>

<svg fill="#000000" version="1.1" id="Layer_1" xmlns="http://www.w3.org/2000/svg" xmlns:xlink="http://www.w3.org/1999/xlink" 
	 width="800px" height="800px" viewBox="0 0 256 190" enable-background="new 0 0 256 190" xml:space="preserve">
<path d="M48.12,27.903C48.12,13.564,59.592,2,74.023,2c14.339,0,25.903,11.564,25.903,25.903
	C99.834,42.335,88.27,53.806,74.023,53.806C59.684,53.806,48.12,42.242,48.12,27.903z M191,139h-47V97c0-20.461-17.881-37-38-37H43
	C20.912,60,1.99,79.14,2,98v77c-0.026,8.533,6.001,12.989,12,13c6.014,0.011,12-4.445,12-13v-75h8v88h78v-88h8l0.081,50.37
	c-0.053,8.729,5.342,12.446,10.919,12.63h60C207.363,163,207.363,139,191,139z M242.739,81.958L254,70.698
	c-12.806-13.468-31.132-21.417-50.783-21.417s-37.977,7.949-51.003,21.196l11.261,11.261c10.377-9.936,24.287-16.339,39.964-16.339
	S232.583,71.801,242.739,81.958z M235.674,89.686l-11.261,11.261c-5.52-5.299-12.585-8.611-20.975-8.611
	c-8.39,0-15.676,3.312-20.975,8.611l-11.26-11.261c8.169-8.39,19.43-13.468,32.015-13.468
	C215.803,76.217,227.063,81.296,235.674,89.686z M203.217,102.713c6.707,0,12.144,5.437,12.144,12.144
	c0,6.707-5.437,12.144-12.144,12.144c-6.707,0-12.144-5.437-12.144-12.144C191.074,108.15,196.511,102.713,203.217,102.713z"/>
</svg>