<?xml version="1.0" encoding="utf-8"?>

<svg fill="#000000" height="800px" width="800px" version="1.2" baseProfile="tiny" id="Layer_1" xmlns="http://www.w3.org/2000/svg" xmlns:xlink="http://www.w3.org/1999/xlink"
	  viewBox="-63 65 128 128" xml:space="preserve">
<path d="M-11.9,66c7.1,0,13,5.8,13,12.9s-5.8,13-12.9,13c-7.1,0-13-5.8-13-12.9S-19.1,66-11.9,66z M48.2,93.4l-16-12.1l-1.9,6.2
	l-9.4-3.1l-10.6,32.2l-17.7,0.2l-14.8-24.9c-1.1-2-3.2-3.1-5.8-3c-0.4,0-2.4,0.5-2.7,0.6c-10.9,3.6-19.5,20.8-19.4,38.5
	c-0.1,5.3,0,9.9,0.4,14.1c-0.4,5.1,2.6,10.2,7.7,12c1.3,0.5,2.6,0.7,4,0.7h32.2l0.1,30.3c0,4.2,3.3,7.4,7.4,7.4
	c4.2,0,7.4-3.3,7.4-7.4l-0.1-37.8c0-1.9-0.7-3.9-2.3-5.1c-1.4-1.4-3.3-2.3-5.1-2.3h-21.7v-16.2l-11.3-19.1c-0.5-0.7-0.1-1.8,0.5-2.3
	c0.7-0.5,1.8-0.1,2.3,0.5l12.9,22.2c1,1.7,2.7,2.9,4.9,2.9h22.2c2.4,0,4.5-1.5,5.2-3.7l19.4,6.3l0.7,0.2l0.1-0.2l12.1-37.1
	L48.2,93.4z M35.1,128.2l-18.3-5.9c0-2.6-2-4.9-4.4-5.5l9.7-29.7L46.1,95L35.1,128.2z M-61.7,165l0-6.8l52.7,0.1l0,6.8L-61.7,165z"
	/>
</svg>