<?xml version="1.0" encoding="utf-8"?>

<svg fill="#000000" version="1.1" id="Layer_1" xmlns="http://www.w3.org/2000/svg" xmlns:xlink="http://www.w3.org/1999/xlink" 
	 width="800px" height="800px" viewBox="0 0 248 256" enable-background="new 0 0 248 256" xml:space="preserve">
<path d="M118,31v194l128,29V2L118,31z M130,40.59l104-23.57v221.96l-104-23.57V40.59z M2,30v224h39v-30h12
	c18.085,0,31.965-15.162,31.965-33.346v-19.666h14.033c3.755,0,6.72-2.965,6.72-6.621c0-0.889-0.099-1.779-0.494-2.569
	l-19.468-47.435c0,0-1.779-18.085-3.36-25.002C75.181,58.132,40.751,30,3,30C2.704,30,2.988,30,2,30z M54.824,116.635
	c0-4.941,3.953-8.894,8.894-8.894s8.894,3.953,8.894,8.894c0,4.941-3.953,8.894-8.894,8.894S54.824,121.576,54.824,116.635z
	 M214.705,55.482l5.862-18.78l-3.381-0.507l-6.101,19.643l-29.215,2.335l6.877,50.474l24.144-0.317l7.529-53.238L214.705,55.482z
	 M139.842,89.389c0,0-0.715-6.913,10.033-7.458l17.898-0.907c11.7-0.593,10.838,6.777,10.838,6.777L139.842,89.389z M178.61,101.452
	c0,0,0.862,7.315-10.838,7.469l-17.836,0.234c-10.749,0.141-10.034-6.818-10.034-6.818L178.61,101.452z M141.275,98.913
	c-1.731,0.048-3.158-1.335-3.158-3.053c0-1.778,1.426-3.192,3.158-3.255l35.551-1.294c1.983-0.072,3.51,1.379,3.51,3.199
	c0,1.883-1.594,3.37-3.51,3.423L141.275,98.913z M221,204.944v11.179l-20.75-3.754V201.19L221,204.944z M191.5,199.607v11.179
	l-52.25-9.453v-11.179L191.5,199.607z M191.5,177.444l-52.25-5.666v-11.064l52.25,5.666V177.444z M200.25,167.329l20.75,2.25v11.064
	l-20.75-2.25V167.329z M139.25,142.596v-11.013l52.25,2.525v11.013L139.25,142.596z M200.25,145.543V134.53l20.75,1.003v11.013
	L200.25,145.543z"/>
</svg>