<?xml version="1.0" encoding="utf-8"?>

<svg fill="#000000" height="800px" width="800px" version="1.1" id="Layer_1" xmlns="http://www.w3.org/2000/svg" xmlns:xlink="http://www.w3.org/1999/xlink" 
	 viewBox="0 0 244 256" xml:space="preserve">
<path d="M217.2,222.6l-29.4-65.1c-3.5-8.2-9.7-14.3-17.4-17c2-2.3,3.5-5.1,4.1-8.3l9.5-47.5c1.8-9.2-3.8-18.2-12.7-20.6
	c6.2-6.4,10-15.1,10-24.8c0-19.7-15.9-35.6-35.6-35.6c-19.7,0-35.6,15.9-35.6,35.6c0,19.7,15.9,35.6,35.6,35.6
	c1.4,0,2.9-0.1,4.3-0.3c-0.4,1-0.7,2-0.9,3.1l-3.4,17l-34.2-30.6c0,0-0.1-0.1-0.1-0.1C100.8,54.6,83,54.5,68.5,72
	c-17.2,20.7-39.2,72.7-47.2,126C17,226,38.7,251.3,67.1,251.3c0.5,0,1,0,1.4,0c6.2,0,11.3-1.5,15.6-4.1c1.7-0.8,3.4-1.8,4.9-3.1
	l67.5-57.5l23.8,52.7c3.4,7.5,10.7,11.9,18.4,11.9c2.8,0,5.6-0.6,8.3-1.8C217.3,244.7,221.8,232.7,217.2,222.6z M108.7,174.4
	l11.3-54.8l25.1,22.5c0.4,0.3,0.8,0.7,1.2,1c-1.4,0.8-2.7,1.7-4,2.7L108.7,174.4z"/>
</svg>