<?xml version="1.0" encoding="utf-8"?>

<svg fill="#000000" version="1.1" id="Layer_1" xmlns="http://www.w3.org/2000/svg" xmlns:xlink="http://www.w3.org/1999/xlink" 
	 width="800px" height="800px" viewBox="0 0 256 211" enable-background="new 0 0 256 211" xml:space="preserve">
<path d="M53.206,31.249c0-15.921,12.736-28.759,28.759-28.759c15.92,0,28.759,12.839,28.759,28.759
	c-0.103,16.023-12.942,28.759-28.759,28.759C66.045,60.008,53.206,47.169,53.206,31.249z M211.841,154.597h-52.183v-46.631
	c0-22.718-19.852-41.08-42.19-41.08H47.521c-24.524,0-45.533,21.25-45.521,42.19v85.491C1.971,204.041,8.663,208.988,15.323,209
	c6.677,0.012,13.323-4.935,13.323-14.434v-83.27h8.882v97.594h86.601v-97.594h8.882l0.09,55.924
	c-0.059,9.691,5.931,13.819,12.123,14.023h66.616C230.009,181.243,230.009,154.597,211.841,154.597z M254,68.101v74.487h-80.703
	V68.101h9.842V50.593c0-17.094,13.986-31.08,31.079-31.08s31.079,13.986,31.079,31.08v17.508L254,68.101z M220.434,109.333
	c3.419-2.176,5.594-5.905,5.594-10.256c0-6.838-5.594-12.432-12.432-12.432c-6.837,0-12.432,5.594-12.432,12.432
	c0,4.351,2.176,8.081,5.594,10.256l-2.486,14.607h18.648L220.434,109.333z M232.97,50.593c0-10.256-8.391-18.648-18.648-18.648
	c-10.256,0-18.648,8.391-18.648,18.648v17.508h30.354h6.941V50.593z"/>
</svg>