<?xml version="1.0" encoding="utf-8"?>

<svg fill="#000000" version="1.1" id="Layer_1" xmlns="http://www.w3.org/2000/svg" xmlns:xlink="http://www.w3.org/1999/xlink" 
	 width="800px" height="800px" viewBox="0 0 256 178" xml:space="preserve">
<path d="M42.4,38.1c9,0,16.2,7.3,16.2,16.2s-7.3,16.2-16.2,16.2s-16.2-7.3-16.2-16.2S33.4,38.1,42.4,38.1z M53.7,2
	c9,0,16.2,7.3,16.2,16.2s-7.3,16.2-16.2,16.2s-16.2-7.3-16.2-16.2S44.7,2,53.7,2z M240.7,103.3H15.8V28.7H2V176h13.8v-31.5h224.4
	V176H254v-31.5v-1v-27.1C254,109.2,248,103.3,240.7,103.3z M224.1,56.4c-40.7-8-126.5-26.8-139.3-27.7c0,0-0.1,0-0.1,0
	c-0.7-0.1-1.4-0.1-2.1-0.1c-9.8,0-17.7,8.2-17.7,18.3v28.6H34.6c-4.9,0-9,4-9,9c0,4.9,4,9,9,9l48.7,0V65.8h6.4L90,93.4h152.2v-15
	C242.2,67.6,234.6,58.4,224.1,56.4z"/>
</svg>