<?xml version="1.0" encoding="utf-8"?>

<svg fill="#000000" version="1.1" id="Layer_1" xmlns="http://www.w3.org/2000/svg" xmlns:xlink="http://www.w3.org/1999/xlink" 
	 width="800px" height="800px" viewBox="0 0 193 256" xml:space="preserve">
<path d="M184,90.6L170.8,78l-21.9,21.2c-3.6,3.5-9.2,4.2-13.6,1.5l-20.8-12.5l-27,47.5l22.9,40.5c1.2,2.1,1.8,4.5,1.8,7v56.7
	c0,8-6.7,14.5-14.8,14.1c-7.6-0.4-13.5-6.9-13.5-14.5v-52.6l-22.1-39.1v35.4c0,1.7-0.3,3.3-0.9,4.9l-20.8,56.7
	c-2.1,5.7-7.5,9.3-13.3,9.3c-1.6,0-3.3-0.3-4.9-0.9c-7.3-2.7-11.1-10.8-8.4-18.1l20-54.4v-49.1c0-6,1.7-11.9,4.9-17l19.7-31
	l-39.1,24c-1.8,1.1-3.8,1.7-5.8,1.7c-3.8,0-7.4-1.9-9.6-5.3C0.4,98.5,2,91.6,7.3,88.3l61.4-37.6c8.3-5.1,18.6-5.1,26.9-0.1
	l43.9,26.5l15-14.5l-5.1-4.8c-3.1,0.7-6.5-0.2-9-2.5c-4-3.8-4.2-10.1-0.4-14.2c3.8-4,10.1-4.2,14.2-0.4c2.8,2.7,3.7,6.6,2.7,10.1
	l4.9,4.7l1.5-1.4c4.5-4.3,11.7-4.2,16,0.4c4.2,4.5,3.7,11.7-0.7,15.9l-0.5,0.5L191,83.1L184,90.6z M149.3,30.2l31.5-2.3l-0.4-5.9
	l-31.5,2.3L149.3,30.2z M147.2,16.7l24.9-9.2l-2-5.5l-24.9,9.2L147.2,16.7z M135.7,29.1c0,11.7-9.5,21.2-21.2,21.2
	s-21.2-9.5-21.2-21.2s9.5-21.2,21.2-21.2C126.2,7.9,135.7,17.4,135.7,29.1z"/>
</svg>