<?xml version="1.0" encoding="utf-8"?>

<svg fill="#000000" height="800px" width="800px" version="1.2" baseProfile="tiny" id="Layer_1" xmlns="http://www.w3.org/2000/svg" xmlns:xlink="http://www.w3.org/1999/xlink"
	  viewBox="0 0 256 256" xml:space="preserve">
<g id="XMLID_70_">
	<path id="XMLID_31_" d="M179.8,41.5c11.1,0,20-8.9,20-19.9c0-11-8.9-20-20-20c-11,0-19.9,9-19.9,20
		C159.9,32.6,168.8,41.5,179.8,41.5z"/>
	<path id="XMLID_30_" d="M95.2,122.4l71.8-46.4c9.4-6,12.2-18.3,6.2-27.7c-5.9-9.4-18.3-12.2-27.7-6.2L92.6,76.3
		c-3,1.9-5.4,4.5-6.9,7.4L30.6,192.3c-3.2,6.4-0.7,14.2,5.7,17.4c6.4,3.2,14.2,0.7,17.4-5.7L95.2,122.4z"/>
	<path id="XMLID_29_" d="M234.9,114.8c9.5-6,12.4-18.4,6.5-27.9l-7,4.2c3.6,5.7,1.8,13.2-3.9,16.7L10.2,247.4l4.4,6.9L234.9,114.8z"
		/>
</g>
</svg>