<?xml version="1.0" encoding="utf-8"?>

<svg fill="#000000" height="800px" width="800px" version="1.2" baseProfile="tiny" id="Layer_1" xmlns="http://www.w3.org/2000/svg" xmlns:xlink="http://www.w3.org/1999/xlink"
	  viewBox="0 0 256 256" xml:space="preserve">
<path id="XMLID_43_" d="M198.5,155.5c0.6-13.1,11.8-23.3,24.9-22.7c13.2,0.6,23.3,11.8,22.7,24.9c-0.6,13.2-11.8,23.4-25,22.8
	C208,179.9,197.8,168.7,198.5,155.5z M235.7,234.6c1,0.4,2.2,0.6,3.4,0.7c6.1,0.3,11.3-4.4,11.6-10.5c0.2-4.6-2.4-8.7-6.4-10.5
	l-32.4-14.4l-22-43.8c0,0-1.8-4.8-8.6-7.7l-77.2-35.2L61,31.7c-2.5-4.7-7.3-8-13.1-8.3c-8.7-0.4-16,6.3-16.4,15
	c-0.1,2.7,0.5,5.3,1.6,7.7l53.5,101.2l-36.1-16.4L41,136l144.4,64.8l0,0l5.6,9.8c0,0,2.1,5.2,9.2,8.4l17.9,8
	c-12.4,11.3-28.9,5.4-28.9,5.4L12.9,151.8l-10.2,5.4l184.1,83c21.4,9,40.2-9.2,40.2-9.2l0,0.1L235.7,234.6z"/>
</svg>