<?xml version="1.0" encoding="utf-8"?>

<svg fill="#000000" version="1.1" id="Layer_1" xmlns="http://www.w3.org/2000/svg" xmlns:xlink="http://www.w3.org/1999/xlink" 
	 width="800px" height="800px" viewBox="0 0 256 240" enable-background="new 0 0 256 240" xml:space="preserve">
<path d="M254,104.223v133.641H22.977v-46.619h74.59V148.77h69.41v-44.547H254z M143.185,40.31
	c-9.222,2.818-19.043-2.391-21.861-11.614s2.391-18.957,11.614-21.775c9.222-2.903,18.957,2.306,21.861,11.528
	C157.616,27.757,152.322,37.492,143.185,40.31z M2.627,97.268c1.964,5.636,8.198,8.539,13.834,6.575
	c0.171-0.085,0.427-0.171,0.683-0.256L54.546,87.02l30.656,18.53l-18.53,5.551c-2.818,1.537-4.697,4.27-5.38,7.344l-5.38,41.757
	c-0.256,1.708-0.085,3.587,0.512,5.294c1.964,5.721,8.198,8.625,13.834,6.661c3.843-1.366,6.575-4.782,7.088-8.625l4.355-34.157
	l28.765-8.596c5.832-1.768,9.577-7.458,10.772-12.752l6.661-37.488l13.834,17.335c0.854,1.025,2.049,1.708,3.245,2.22l39.537-4.27
	c0-0.085,0.085-0.085,0.085-0.085c4.013-0.256,7.173-3.587,7.173-7.685c0-4.27-3.416-7.771-7.685-7.771
	c-0.085-0.085-0.085-0.085-0.171-0.085l-33.474,4.013l-24.337-32.62c-1.537-1.708-3.245-3.16-5.294-4.27L63.171,3.42
	c-2.049-1.281-4.44-1.622-6.831-0.939c-4.44,1.366-6.917,5.978-5.636,10.418c0.683,2.22,2.135,3.928,4.099,4.953l40.476,23.739
	l-6.661,40.903l-28.18-17.249c-2.647-1.452-5.892-1.879-8.966-0.769c-0.256,0-0.427,0.085-0.598,0.171L8.263,83.69
	C3.225,85.996,0.748,91.802,2.627,97.268z M137.738,110.439h-8.288c0,10.987-8.938,19.925-19.925,19.925v8.288
	C125.082,138.652,137.738,125.996,137.738,110.439z"/>
</svg>