<?xml version="1.0" encoding="utf-8"?>

<svg fill="#000000" version="1.1" id="Layer_1" xmlns="http://www.w3.org/2000/svg" xmlns:xlink="http://www.w3.org/1999/xlink" 
	 width="800px" height="800px" viewBox="0 0 256 190" enable-background="new 0 0 256 190" xml:space="preserve">
<path d="M48.12,27.903C48.12,13.564,59.592,2,74.023,2c14.339,0,25.903,11.564,25.903,25.903
	C99.834,42.335,88.27,53.806,74.023,53.806C59.684,53.806,48.12,42.242,48.12,27.903z M191,139h-47V97c0-20.461-17.881-37-38-37H43
	C20.912,60,1.99,79.14,2,98v77c-0.026,8.533,6.001,12.989,12,13c6.014,0.011,12-4.445,12-13v-75h8v88h78v-88h8l0.081,50.37
	c-0.053,8.729,5.342,12.446,10.919,12.63h60C207.363,163,207.363,139,191,139z M254,48.586v15.768h-10.512V48.586
	c0-8.668-7.1-15.768-15.768-15.768s-15.768,7.1-15.768,15.768v15.768h13.186v62.98h-68.236v-62.98h44.538V48.586
	c0-14.477,11.803-26.28,26.28-26.28S254,34.109,254,48.586z M196.83,99.209c2.859-1.844,4.703-4.979,4.703-8.668
	c0-5.809-4.703-10.512-10.512-10.512c-5.809,0-10.512,4.703-10.512,10.512c0,3.688,1.844,6.824,4.703,8.668l-2.121,12.356h15.768
	L196.83,99.209z"/>
</svg>