<?xml version="1.0" encoding="utf-8"?>

<svg fill="#000000" version="1.1" id="Layer_1" xmlns="http://www.w3.org/2000/svg" xmlns:xlink="http://www.w3.org/1999/xlink" 
	 width="800px" height="800px" viewBox="0 0 256 240" enable-background="new 0 0 256 240" xml:space="preserve">
<path d="M84.635,20.256c18.383,0,33.286,14.903,33.286,33.286s-14.903,33.286-33.286,33.286S51.349,71.925,51.349,53.542
	S66.251,20.256,84.635,20.256z M31.002,145.011c0-2.499,1.606-4.194,4.194-4.194s4.194,1.606,4.194,4.194v92.986h91.469v-92.986
	c0-2.499,1.606-4.194,4.194-4.194c2.499,0,4.194,1.606,4.194,4.194v92.986h29.092V136.623c0-22.934-18.74-41.585-41.585-41.585
	h-8.388l-24.451,38.015l-2.945-28.467l4.016-9.638H76.96l4.016,9.638l-3.123,28.645L53.401,95.038h-9.816
	C20.651,95.038,2,113.778,2,136.623v101.375h29.092v-92.986H31.002z M247.282,50.886v11.782c0,16.02-13.022,28.939-28.939,28.939
	h-4.651c-16.02,0-28.939-13.022-28.939-28.939V50.886h-6.718v11.782c0,18.087,13.643,32.97,31.213,35.243v14.573l-10.542,8.888
	h-4.961v5.581h24.701h4.858h14.986v-5.581h-4.858l-10.852-9.198V98.015C240.254,95.845,254,80.962,254,62.772V50.886H247.282z
	 M225.475,60.911V54.09h14.159v-8.888h-14.159v-6.718h14.159v-8.888h-14.159v-6.821h14.056C239.117,11.302,229.712,2,218.136,2
	h-4.341c-11.576,0-20.981,9.302-21.291,20.774h13.539v6.821h-13.643v8.888h13.643v6.821h-13.643v8.888h13.643v6.821h-13.643v0.62
	c0,11.679,9.612,21.291,21.394,21.291h4.341c11.782,0,21.394-9.612,21.394-21.394v-0.62H225.475z"/>
</svg>