<?xml version="1.0" encoding="utf-8"?>

<svg fill="#000000" height="800px" width="800px" version="1.2" baseProfile="tiny" id="_x31_" xmlns="http://www.w3.org/2000/svg" xmlns:xlink="http://www.w3.org/1999/xlink"
	  viewBox="-63 65 128 128" xml:space="preserve">
<path d="M40,128.5l-1,59h3.5v5.5H9.1v-5.5h22.7l1-59H-6.3V124h-11.3c-2.7,0-5.3-2.3-5.3-5.3v-13.5c0-0.9-0.5-1.5-1.5-1.5
	s-1.5,0.5-1.5,1.5v13.5c0,4.5,3.8,8.3,8.3,8.3h-0.3v3.2c0.1,0.3,0.1,0.7,0.1,1v54.8c0,0,0,0.1,0,0.1c-0.1,3.8-3.2,6.8-6.9,6.8
	s-6.8-3-6.9-6.8c0,0,0-0.1,0-0.1v-41.5c-4.3-1.8-7.2-5.8-8-10.4c-1.1-9.4-0.8-12.9,0.4-22.7c1.4-11.1,8.8-21.7,19.2-22.5
	c1.2-0.1,2-0.1,3,0c2.8,0.4,4.7,2.5,4.7,5.3v19h24.6c2.8,0,5.1,2.3,5.1,5.1v0.1H-4.9v0h51.2v10H40z M32.4,91.7l7.8,21.9H26.7v4.1
	h17.5v-4.1L34.1,85.6l5.4-19.3L35,65l-11.1,40.1l4.6,1.3L32.4,91.7z M-13.9,86.4c5.9,0,10.7-4.8,10.7-10.7S-8,65-13.9,65
	c-5.9,0-10.7,4.8-10.7,10.7S-19.8,86.4-13.9,86.4z"/>
</svg>