<?xml version="1.0" encoding="utf-8"?>

<svg fill="#000000" height="800px" width="800px" version="1.2" baseProfile="tiny" id="Layer_1" xmlns="http://www.w3.org/2000/svg" xmlns:xlink="http://www.w3.org/1999/xlink"
	  viewBox="0 0 256 256" xml:space="preserve">
<path id="_x31_" d="M149.5,25.7v45.7c0,4.6,6.6,4.4,6.6,0V45.1h1.5v26.3c0,4.4,6.6,4.6,6.6,0V25.7l15.4-15.8
	c2.7-2.7-1.1-6.6-3.9-3.9l-12.1,12.4h-6.7h-6.9L137.8,5.9c-2.7-2.7-6.6,1.1-3.9,3.9L149.5,25.7z M156.7,6.1c3.1,0,5.7,2.6,5.7,5.7
	s-2.6,5.7-5.7,5.7c-3.1,0-5.7-2.6-5.7-5.7S153.6,6.1,156.7,6.1z M172.8,78.2h-0.3h-8.3h-14.5h-8.6H141v0.3L93,183.4l-24.7-40.6
	L3,250.6h65.3l-0.1,0.2h118.6l65,0.2L172.8,78.2z M76.6,176.6l-8.3-6.9l-8.3,2.9l-0.4-5.8l8.7-14.6l9.4,15.8L76.6,176.6z
	 M173.9,144.1l-14.6-10.5l-17.5,13.8l-15-19L146.3,86h21.5l15.2,33.4L173.9,144.1z"/>
</svg>