<?xml version="1.0" encoding="utf-8"?>

<svg fill="#000000" height="800px" width="800px" version="1.2" baseProfile="tiny" id="Layer_1" xmlns="http://www.w3.org/2000/svg" xmlns:xlink="http://www.w3.org/1999/xlink"
	  viewBox="-63 65 128 128" xml:space="preserve">
<g>
	<path d="M57.4,185.9C1.2,168.2-42.9,148.7-53,144.1c-1-0.4-2.2,0-2.6,1.1c-0.4,1,0,2.2,1.1,2.5c2.5,1.1,5,2.2,7.4,3.3l-7.9,6
		c-0.9,1.3-0.5,3,0.8,3.9c1,0.7,2.4,0.6,3.4,0l13.6-5.7c33.3,14,58.7,22.2,94.3,33.4c0.7,0.1,1.4-0.4,1.5-1.2
		C58.6,186.8,58.1,186.1,57.4,185.9z"/>
	<path d="M37,97c5.3,0,9.5-4.3,9.5-9.5c0-5.3-4.2-9.5-9.5-9.5s-9.5,4.3-9.5,9.5C27.4,92.7,31.7,97,37,97z"/>
	<path d="M-28.7,149.1c1,0.1,2-0.2,2.8-0.6l20.9-9.4c1.5-0.8,2.6-2.2,3-4v-10.5l14.5,13l-2.7,22.1c0,0.1,0,0.3,0,0.4
		c-0.1,3.3,2.4,6,5.7,6.1c3.1,0.1,5.7-2.1,6.1-5.1l3.1-25.2c0-0.1,0-0.2,0-0.3c0.1-1.8-0.6-3.4-1.8-4.5l-13.4-12l20.2-9.9l18.8,17.3
		c0.8,0.8,2,1.3,3.2,1.3c2.5,0,4.6-2.1,4.5-4.6c0-1.4-0.6-2.6-1.6-3.4L27.9,95.2c-0.9-0.9-1.9-1.6-3.1-2.1L3.9,85.7l-9.5-13.8
		c-0.7-1-1.9-1.7-3.2-1.9c-2.5-0.3-4.7,1.5-5,4c-0.1,1,0.1,2.1,0.6,2.9L-3.5,91c0.4,0.6,1,1,1.7,1.4l11.2,4.4L-9,106.2
		c-2.6,1.5-4.4,4-4.9,7.1l0.1,16.9l-17.1,7.7c-1.9,0.9-3.3,2.8-3.4,5.1C-34.4,146.2-31.9,148.9-28.7,149.1z"/>
</g>
</svg>