<?xml version="1.0" encoding="utf-8"?>

<svg fill="#000000" version="1.1" id="Layer_1" xmlns="http://www.w3.org/2000/svg" xmlns:xlink="http://www.w3.org/1999/xlink" 
	 width="800px" height="800px" viewBox="0 0 256 240" enable-background="new 0 0 256 240" xml:space="preserve">
<path d="M188.587,75.103c-5.256,5.159-11.194,15.964-11.194,15.964l-9.053-1.071c16.353-23.362,32.025-39.52,55.874-56.458
	c0,0-33.583,15.283-43.803,32.609c-7.398-13.044-4.186-31.344,8.761-44.29c8.371-8.371,22.68-10.513,38.06-11.876
	C243.585,8.619,254,2,254,2s-3.699,50.812-18.787,65.803C221.488,81.528,201.631,84.253,188.587,75.103z M51.349,53.542
	c0,18.383,14.903,33.286,33.286,33.286s33.286-14.903,33.286-33.286s-14.903-33.286-33.286-33.286S51.349,35.159,51.349,53.542z
	 M31.092,145.011v92.986H2V136.623c0-22.845,18.651-41.585,41.585-41.585h9.816l24.451,38.194l3.123-28.645l-4.016-9.638h18.026
	l-4.016,9.638l2.945,28.467l24.451-38.015h8.388c22.845,0,41.585,18.651,41.585,41.585v101.375h-29.092v-92.986
	c0-2.588-1.696-4.194-4.194-4.194c-2.588,0-4.194,1.696-4.194,4.194v92.986H39.391v-92.986c0-2.588-1.606-4.194-4.194-4.194
	s-4.194,1.696-4.194,4.194H31.092z"/>
</svg>