<?xml version="1.0" encoding="utf-8"?>

<svg fill="#000000" height="800px" width="800px" version="1.1" id="Layer_1" xmlns="http://www.w3.org/2000/svg" xmlns:xlink="http://www.w3.org/1999/xlink" 
	 viewBox="0 0 128 128" xml:space="preserve">
<path d="M127.7,108.4c-2.8,0-5.5-0.6-7.8-1.7c-2.5-1.1-5.2-1.8-8.1-1.8c-2.9,0-5.7,0.7-8.1,1.8c-2.4,1.1-5,1.7-7.8,1.7
	c-2.8,0-5.5-0.6-7.8-1.7c-2.5-1.1-5.3-1.8-8.1-1.8c-2.9,0-5.7,0.7-8.1,1.8c-2.4,1.1-5.1,1.7-7.9,1.7c-2.8,0-5.5-0.6-7.9-1.7
	c-2.5-1.1-5.2-1.8-8.1-1.8c-2.9,0-5.7,0.7-8.1,1.8c-2.4,1.1-5.1,1.7-7.9,1.7c-2.8,0-5.5-0.6-7.8-1.7c-2.5-1.1-5.2-1.8-8.1-1.8
	c-2.9,0-5.6,0.7-8.1,1.8c-2.4,1.1-5.1,1.7-7.9,1.7V96.6C2.9,96.6,5.6,96,8,95c2.4-1.1,5.2-1.8,8.1-1.8c2.9,0,5.6,0.7,8.1,1.8
	c2.4,1,5.1,1.7,7.8,1.7c2.8,0,5.5-0.6,7.9-1.7c2.4-1.1,5.2-1.8,8.1-1.8c2.8,0,5.6,0.7,8.1,1.8c2.4,1,5.1,1.7,7.9,1.7
	c2.8,0,5.5-0.6,7.9-1.7c2.4-1.1,5.2-1.8,8.1-1.8c2.8,0,5.6,0.7,8.1,1.8c2.4,1,5,1.7,7.8,1.7c2.8,0,5.5-0.6,7.8-1.7
	c2.5-1.1,5.2-1.8,8.1-1.8c2.9,0,5.6,0.7,8.1,1.8c2.4,1,5,1.7,7.8,1.7V108.4z"/>
<path d="M109.2,75.1c8.4,0,15.2-6.8,15.2-15.2c0-8.4-6.8-15.2-15.2-15.2c-8.4,0-15.2,6.8-15.2,15.2C94,68.3,100.2,75.1,109.2,75.1"
	/>
<path d="M20.8,83.7c1.2,0.3,2.3,0.7,3.3,1.2c2.4,1.1,5.1,1.7,7.8,1.7c2.8,0,5.5-0.6,7.9-1.7c2.4-1.1,5.2-1.8,8.1-1.8
	c2.9,0,5.6,0.7,8.1,1.8c2.4,1.1,5.1,1.7,7.9,1.7c2.8,0,5.5-0.6,7.9-1.7c2.4-1.1,5.2-1.8,8.1-1.8c2.9,0,5.6,0.7,8.1,1.8
	c2.4,1.1,5,1.7,7.8,1.7c2,0,4-0.4,5.9-0.9L76.3,40l29.4-5.4c4.3-0.8,7.5-4.2,7.5-8.6c0-4.8-3.9-8.6-8.7-8.6c-0.3,0-0.7,0-1,0
	l-45.5,8.3c-3.2,0.7-7.4,5.4-5,11.1c0.1,0.3,0.3,0.6,0.4,0.9l11.9,21.4L20.8,83.7z"/>
</svg>