<?xml version="1.0" encoding="utf-8"?>

<svg fill="#000000" version="1.1" id="Layer_1" xmlns="http://www.w3.org/2000/svg" xmlns:xlink="http://www.w3.org/1999/xlink" 
	 width="800px" height="800px" viewBox="0 0 256 240" enable-background="new 0 0 256 240" xml:space="preserve">
<path d="M84.635,20.256c18.383,0,33.286,14.903,33.286,33.286s-14.903,33.286-33.286,33.286S51.349,71.925,51.349,53.542
	S66.251,20.256,84.635,20.256z M31.002,145.011c0-2.499,1.606-4.194,4.194-4.194s4.194,1.606,4.194,4.194v92.986h91.469v-92.986
	c0-2.499,1.606-4.194,4.194-4.194c2.499,0,4.194,1.606,4.194,4.194v92.986h29.092V136.623c0-22.934-18.74-41.585-41.585-41.585
	h-8.388l-24.451,38.015l-2.945-28.467l4.016-9.638H76.96l4.016,9.638l-3.123,28.645L53.401,95.038h-9.816
	C20.651,95.038,2,113.778,2,136.623v101.375h29.092v-92.986H31.002z M197.567,33.229v-6.895l-7.228-1.221
	c-0.534-2.363-1.466-4.576-2.721-6.567l4.248-5.972l-4.878-4.878l-5.972,4.248c-1.986-1.256-4.2-2.183-6.567-2.721L173.233,2h-6.899
	l-1.216,7.223c-2.367,0.538-4.581,1.466-6.567,2.721l-5.972-4.248l-4.878,4.878l4.248,5.972c-1.256,1.991-2.188,4.204-2.721,6.567
	L142,26.334v6.895l7.227,1.216c0.534,2.367,1.466,4.581,2.721,6.571l-4.248,5.972l4.878,4.874l5.972-4.248
	c1.986,1.256,4.2,2.188,6.567,2.721l1.216,7.228h6.899l1.216-7.228c2.367-0.534,4.581-1.466,6.567-2.721l5.972,4.248l4.878-4.874
	l-4.248-5.972c1.256-1.991,2.188-4.204,2.721-6.571L197.567,33.229z M169.781,40.745c-6.051,0-10.959-4.909-10.959-10.964
	s4.909-10.964,10.959-10.964c6.055,0,10.964,4.909,10.964,10.964S175.836,40.745,169.781,40.745z M245.578,72.773L254,67.545
	l-3.533-8.632l-9.671,2.177c-1.825-2.607-4.098-4.924-6.768-6.828l2.259-9.65l-8.602-3.606l-5.298,8.376
	c-3.229-0.57-6.476-0.566-9.614-0.039l-5.228-8.422l-8.632,3.533l2.177,9.671c-2.607,1.825-4.924,4.098-6.828,6.768l-9.65-2.259
	l-3.606,8.602l8.376,5.298c-0.57,3.229-0.566,6.476-0.039,9.614l-8.422,5.228l3.533,8.632l9.671-2.177
	c1.825,2.607,4.098,4.924,6.768,6.828l-2.259,9.65l8.602,3.606l5.298-8.376c3.229,0.57,6.476,0.566,9.614,0.039l5.228,8.422
	l8.632-3.533l-2.177-9.671c2.607-1.825,4.924-4.098,6.828-6.768l9.65,2.259l3.606-8.602l-8.376-5.298
	C246.107,79.158,246.104,75.911,245.578,72.773z M231.134,83.192c-3.166,7.552-11.854,11.108-19.406,7.942
	c-7.552-3.166-11.108-11.854-7.941-19.406c3.166-7.552,11.855-11.108,19.406-7.942C230.744,66.952,234.299,75.64,231.134,83.192z"/>
</svg>