<?xml version="1.0" encoding="utf-8"?>

<svg fill="#000000" version="1.1" id="Layer_1" xmlns="http://www.w3.org/2000/svg" xmlns:xlink="http://www.w3.org/1999/xlink" 
	 width="800px" height="800px" viewBox="0 0 256 256" enable-background="new 0 0 256 256" xml:space="preserve">
<path d="M136.896,147.739V92.723h45.017v55.016H136.896z M159.806,85.007c19.885,0,36.202-15.239,37.932-34.673h-75.864
	C123.605,69.769,139.922,85.007,159.806,85.007z M197.899,40.093c0-21.038-17.055-38.092-38.092-38.092
	c-17.423,0-32.103,11.702-36.637,27.672H96.453v11.807h101.411C197.882,41.019,197.899,40.558,197.899,40.093z M207.295,92.723
	H191.01v86.543h13.671v65.878h-90.518l0.006-65.878h13.63V92.723h-16.531c-25.57,0-46.299,20.729-46.299,46.299v40.244
	l-28.533-0.042v-40.34c8.81-3.885,14.693-12.47,14.693-22.711c0-10.253-6.039-19.515-14.855-23.393v23.704H16.522V92.779
	C7.974,96.766,2,106.118,2,116.173c0,10.049,6.213,18.719,14.758,22.711v40.34C8.672,179.799,2,186.539,2,194.771
	c0,8.232,6.385,14.959,14.472,15.534v23.93h19.697v-23.847l40.351,0.059c10.604,0,19.258-8.26,19.934-18.694v-44.014h8.855v106.26
	h108.228v-106.26h8.878l0.082,90.42c0,8.611,6.817,15.841,15.427,15.841h0.346c8.61,0,15.73-6.897,15.73-15.507v-99.47
	C254,113.452,232.865,92.723,207.295,92.723z"/>
</svg>