<?xml version="1.0" encoding="utf-8"?>

<svg fill="#000000" version="1.1" id="_x31_" xmlns="http://www.w3.org/2000/svg" xmlns:xlink="http://www.w3.org/1999/xlink" 
	 viewBox="0 0 128 128" xml:space="preserve">
<circle id="_x33__41_" cx="48.4" cy="43" r="16.5"/>
<path id="_x32__69_" d="M10.8,97.8c4-13.4,12.6-31.6,24.7-33.7c0.2,0,0.8-0.1,0.8-0.1c2.3-0.3,4.7-0.1,6.5,0.3L67.9,71l6.4-24h-6v-8
	h25.8v-2.5h20v13h-20V47H89c0.1,0.9,0,1.8-0.2,2.7l-8.6,32.2c-1,3.9-5,6.2-8.9,5.2L53,82.1L52.9,112H8
	C8.2,108.1,9.1,103.4,10.8,97.8z"/>
<rect id="_x31__73_" x="116" y="35" transform="matrix(-1 -1.224647e-016 1.224647e-016 -1 236 86)" width="4" height="16"/>
</svg>