<?xml version="1.0" encoding="utf-8"?>

<svg fill="#000000" version="1.1" id="Layer_1" xmlns="http://www.w3.org/2000/svg" xmlns:xlink="http://www.w3.org/1999/xlink" 
	 width="800px" height="800px" viewBox="0 0 242 256" enable-background="new 0 0 242 256" xml:space="preserve">
<path  d="M166.236,50.503c-1.657-1.725-1.602-4.467,0.123-6.124c1.725-1.657,4.467-1.602,6.124,0.123
	s1.602,4.467-0.123,6.124C170.634,52.283,167.893,52.228,166.236,50.503z M162.526,65.744c-1.657-1.725-4.399-1.78-6.124-0.123
	s-1.78,4.399-0.123,6.124c1.657,1.725,4.399,1.78,6.124,0.123C164.128,70.211,164.183,67.469,162.526,65.744z M192.963,41.509
	c1.725-1.657,1.78-4.399,0.123-6.124c-1.657-1.725-4.399-1.78-6.124-0.123c-1.725,1.657-1.78,4.399-0.123,6.124
	C188.497,43.111,191.238,43.166,192.963,41.509z M187.741,98.243c-1.725,1.657-1.78,4.399-0.123,6.124
	c1.657,1.725,4.399,1.78,6.124,0.123c1.725-1.657,1.78-4.399,0.123-6.124C192.207,96.641,189.466,96.586,187.741,98.243z
	 M182.16,62.564c-3.991,3.834-4.954,9.43-2.495,14.074l-15.443,14.836l-1.491,6.437l6.491-1.231l15.443-14.836
	c4.375,2.47,10.172,1.906,14.163-1.928c4.858-4.667,5.009-12.152,0.341-17.011C194.503,58.047,187.019,57.897,182.16,62.564z
	 M211.1,45.106c-1.725,1.657-1.78,4.399-0.123,6.124c1.657,1.725,4.399,1.78,6.124,0.123c1.725-1.657,1.78-4.399,0.123-6.124
	C215.567,43.504,212.825,43.449,211.1,45.106z M219.815,68.766c-1.725,1.657-1.78,4.399-0.123,6.124
	c1.657,1.725,4.399,1.78,6.124,0.123c1.725-1.657,1.78-4.399,0.123-6.124C224.282,67.163,221.54,67.108,219.815,68.766z
	 M210.539,90.022c-1.725,1.657-1.78,4.399-0.123,6.124c1.657,1.725,4.399,1.78,6.124,0.123c1.725-1.657,1.78-4.399,0.123-6.124
	C215.006,88.42,212.264,88.364,210.539,90.022z M239.85,69.928c0,20.447-12.455,38.068-30.162,45.68v14.967h-14.371v83.76
	c0,16.121-12.993,29.115-29.115,29.115h-24.644V254H2.12v-32.849h47.613c-0.033-0.296-0.056-0.596-0.062-0.9
	c0,0-3.173-63.071-3.173-84.095c0-8.023,0.872-16.006,2.906-23.682c-0.003-0.001-0.006,0-0.01-0.001
	c3.404-11.353,4.132-21.019,4.168-27.011L52.92,69.926c0,0,0-0.204,0-0.408c0-1.225-1.021-2.247-2.246-2.247
	s-2.042,0.817-2.246,1.838l-6.332,54.242c-0.482,4.13-4.323,7.053-8.479,6.351c-3.897-0.658-6.431-4.516-5.978-8.442l6.698-58.073
	c1.634-11.232,11.232-20.014,23.077-20.014h29.409c11.641,0,19.401,8.782,21.035,20.014l7.15,58.547
	c0.491,4.017-2.47,7.665-6.565,7.957c-3.841,0.274-7.128-2.794-7.602-6.616l-6.667-53.762c-0.204-1.021-1.225-1.838-2.246-1.838
	c-1.226,0-2.247,1.021-2.247,2.246c0,0.204,0,0.409,0,0.409l-0.521,12.608c-0.059,5.647,0.393,16.852,3.992,29.735
	c-0.005,0.001-0.01,0-0.015,0.001c2.072,7.739,2.965,15.791,2.965,23.887c0,22.212-3.168,83.89-3.168,83.89
	c-0.006,0.304-0.029,0.604-0.061,0.9h48.885v12.722l25.167-0.047c10.828,0,19.49-8.662,19.49-19.49v-83.76h-14.465v-14.92
	c-17.764-7.587-30.27-25.239-30.27-45.728c0-27.43,22.137-49.567,49.567-49.567C218.435,20.361,240.812,42.498,239.85,69.928z
	 M68.991,221.151h4.62c-0.039-0.354-0.063-0.713-0.063-1.078v-88.676c0-1.225-1.021-2.247-2.247-2.247
	c-1.225,0-2.246,1.021-2.246,2.247v88.676C69.054,220.438,69.03,220.797,68.991,221.151z M228.319,50.476
	c-10.732-20.455-36.072-28.354-56.526-17.622c-20.455,10.732-28.354,36.072-17.622,56.526
	c10.732,20.455,36.071,28.354,56.526,17.622C231.152,96.27,239.051,70.931,228.319,50.476z M71.322,2
	c-10.151,0-18.38,8.229-18.38,18.38s8.229,18.38,18.38,18.38s18.38-8.229,18.38-18.38S81.474,2,71.322,2z"/>
</svg>