<?xml version="1.0" encoding="utf-8"?>

<svg fill="#000000" version="1.2" baseProfile="tiny" id="Layer_1" xmlns="http://www.w3.org/2000/svg" xmlns:xlink="http://www.w3.org/1999/xlink"
	  viewBox="-999 1001 256 256" xml:space="preserve">
<path d="M-858.9,1030.2c0-2.3-1.8-4.1-4-4.1s-4,1.8-4,4.1c0,2.3,1.8,4.1,4,4.1C-860.7,1034.3-858.9,1032.4-858.9,1030.2z"/>
<g>
	<path d="M-842.8,1119.7c-8.5,0-15.3-6.9-15.3-15.3c0-8.5,6.9-15.3,15.3-15.3c8.5,0,15.3,6.9,15.3,15.3
		C-827.5,1112.9-834.4,1119.7-842.8,1119.7z M-842.8,1094.3c-5.6,0-10.1,4.5-10.1,10.1c0,5.6,4.5,10.1,10.1,10.1s10.1-4.5,10.1-10.1
		C-832.8,1098.8-837.3,1094.3-842.8,1094.3z"/>
</g>
<g>
	<rect x="-876.5" y="1036.4" width="103.1" height="12.5"/>
	<path d="M-831.1,1032.5c4.9,0,8.9-4,8.9-9c0-5-4-9-8.9-9c-4.9,0-8.8,4.1-8.8,9C-840,1028.4-836,1032.5-831.1,1032.5z"/>
	<path d="M-849.3,1033.2c3.3,0,5.8-2.6,5.8-5.9s-2.6-5.9-5.8-5.9c-3.2,0-5.8,2.6-5.8,5.9S-852.4,1033.2-849.3,1033.2z"/>
	<path d="M-955.7,1121.8c0-1.5,1.3-2.5,2.5-2.5c1.5,0,2.5,1.1,2.5,2.5v29.5h10.2v-0.1h36.3v0h5v-29.4c0-1.5,1.3-2.5,2.5-2.5
		c1.5,0,2.5,1.3,2.5,2.5v12.6c0,0.1,0,0.2,0,0.2s0,0.2,0,0.2c0,1.8,0.6,3.5,1.6,4.9c1.6,2.3,4.3,3.8,7.3,3.8h43.1
		c4.9,0,8.9-4,8.9-8.9s-4-8.9-8.9-8.9h-36.1v-7.9c0.2-15-8.7-26.8-23.2-26.8h-47c-14.3,0-23.2,11.8-23.2,26.5v33.9h15.9V1121.8z"/>
	<polygon points="-761,1003 -761.1,1154.9 -979.4,1157.9 -979.4,1003 -996.3,1003 -996.3,1255.1 -744,1255.1 -744,1003 	"/>
	<path d="M-805.2,1033.3c8,0,14.6-6.6,14.6-14.8s-6.5-14.8-14.6-14.8c-8,0-14.5,6.6-14.5,14.8
		C-819.8,1026.7-813.3,1033.3-805.2,1033.3z"/>
	<path d="M-924.7,1087c11.4,0,20.5-9.1,20.5-20.5c0-11.4-9.1-20.5-20.5-20.5c-11.4,0-20.5,9.1-20.5,20.5
		C-945.2,1077.9-936,1087-924.7,1087z"/>
</g>
<g>
	<rect x="-845" y="1071.4" width="4.2" height="11"/>
</g>
<g>
	<rect x="-825.2" y="1077.9" transform="matrix(0.7421 0.6703 -0.6703 0.7421 513.9188 831.1309)" width="4.2" height="11"/>
</g>
<g>
	<rect x="-867.1" y="1081.3" transform="matrix(0.6703 0.7421 -0.7421 0.6703 519.8993 996.5287)" width="11" height="4.2"/>
</g>
</svg>