<?xml version="1.0" encoding="utf-8"?>

<svg fill="#000000" version="1.1" id="Layer_1" xmlns="http://www.w3.org/2000/svg" xmlns:xlink="http://www.w3.org/1999/xlink" 
	 width="800px" height="800px" viewBox="0 0 256 190" enable-background="new 0 0 256 190" xml:space="preserve">
<path d="M48.12,27.903C48.12,13.564,59.592,2,74.023,2c14.339,0,25.903,11.564,25.903,25.903
	C99.834,42.335,88.27,53.806,74.023,53.806C59.684,53.806,48.12,42.242,48.12,27.903z M191,139h-47V97c0-20.461-17.881-37-38-37H43
	C20.912,60,1.99,79.14,2,98v77c-0.026,8.533,6.001,12.989,12,13c6.014,0.011,12-4.445,12-13v-75h8v88h78v-88h8l0.081,50.37
	c-0.053,8.729,5.342,12.446,10.919,12.63h60C207.363,163,207.363,139,191,139z M254,79.142c0,26.775-21.764,48.539-48.539,48.539
	s-48.539-21.764-48.539-48.539c0-26.736,21.764-48.461,48.539-48.461C232.157,30.681,253.922,52.407,254,79.142z M244.41,79.142
	c0-21.49-17.458-38.949-38.949-38.949s-38.949,17.458-38.949,38.949s17.458,38.949,38.949,38.949
	C226.716,118.091,244.175,100.633,244.41,79.142z M229.652,69.669c0.509,0.979,0.626,2.114,0.391,3.132
	c-0.313,0.979-1.018,1.801-1.996,2.31l-22.195,10.608c-0.626,0.274-1.292,0.47-1.879,0.47c-0.548,0-1.135-0.157-1.801-0.47
	c-1.292-0.705-2.114-2.075-2.114-3.523V55.616c0-2.349,1.957-3.758,3.836-3.758c0.979,0,1.801,0.274,2.505,0.9l0.039,0.039
	c0.705,0.744,1.096,1.722,1.096,2.818v20.316l17.184-7.672C226.873,67.164,228.752,68.182,229.652,69.669L229.652,69.669z"/>
</svg>