<?xml version="1.0" encoding="utf-8"?>

<svg fill="#000000" height="800px" width="800px" version="1.1" id="Layer_1" xmlns="http://www.w3.org/2000/svg" xmlns:xlink="http://www.w3.org/1999/xlink" 
	 viewBox="0 0 128 128" xml:space="preserve">
<path d="M119.9,124c-2.5,0-4.8-0.6-6.9-1.5c-2.2-1-4.6-1.6-7.1-1.6c-2.5,0-5,0.6-7.1,1.6c-2.1,0.9-4.5,1.5-7,1.5
	c-2.5,0-4.8-0.6-6.9-1.5c-2.2-1-4.6-1.6-7.2-1.6c-2.5,0-5,0.6-7.1,1.6c-2.1,0.9-4.5,1.5-7,1.5c-2.5,0-4.8-0.6-6.9-1.5
	c-2.2-1-4.6-1.6-7.2-1.6s-5,0.6-7.1,1.6c-2.1,0.9-4.5,1.5-7,1.5c-2.5,0-4.8-0.6-6.9-1.5c-2.2-1-4.6-1.6-7.1-1.6
	c-2.6,0-5,0.6-7.1,1.6c-2.1,0.9-4.5,1.5-7,1.5v-10.4c2.5,0,4.8-0.6,7-1.5c2.2-1,4.6-1.6,7.1-1.6c2.5,0,5,0.6,7.1,1.6
	c2.1,0.9,4.5,1.5,6.9,1.5c2.5,0,4.8-0.6,7-1.5c2.2-1,4.6-1.6,7.1-1.6s5,0.6,7.2,1.6c2.1,0.9,4.5,1.5,6.9,1.5c2.5,0,4.8-0.6,7-1.5
	c2.2-1,4.6-1.6,7.1-1.6c2.5,0,5,0.6,7.2,1.6c2.1,0.9,4.5,1.5,6.9,1.5c2.5,0,4.8-0.6,7-1.5c2.2-1,4.6-1.6,7.1-1.6
	c2.5,0,5,0.6,7.1,1.6c2.1,0.9,4.5,1.5,6.9,1.5V124z"/>
<path d="M19.2,63.8c3.8,0,6.8-3.1,6.8-6.8c0-3.8-3.1-6.8-6.8-6.8c-3.8,0-6.8,3.1-6.8,6.8C12.4,60.7,15.5,63.8,19.2,63.8"/>
<path d="M49.3,94.7H29.7c-2.9,0-5.4-1.7-6.5-4.2L16,74.1c-0.1-0.6-0.2-1.1-0.2-1.7c0-4,3.2-7.2,7.1-7.2l15.9,0l10.9-4.9
	c0.2-0.1,0.6-0.2,1.1-0.2c1.9,0,3.4,1.5,3.4,3.4c0,1.1-0.6,2.2-1.5,2.8l-11.8,5.3c-0.8,0.6-2.3,0.7-2.3,0.7h-7.1l6,13.3h13.2
	c1.3,0,2.2,0.5,3,1.1L66.6,99c1.8,1.7,1.9,4.5,0.2,6.3c-1.7,1.8-4.5,1.9-6.4,0.2L49.3,94.7z"/>
<path d="M110.1,72.4c0.3,0.4,0.9,0.6,1.4,0.6c1.1,0,2-0.9,2-2c0-0.5-0.3-1-0.5-1.5c-12.2-23.3-45.2-16.4-49.2-14.8
	c-0.7,0.3-1.1,1-1.1,1.8c0,1.1,0.9,2,2,2c0.3,0,0.5,0,0.8-0.1C97.9,51,108.4,69.4,110.1,72.4 M115.8,74.5l-41.4,26.1L36.8,4.4
	C70.5,8.9,113.3,35.1,115.8,74.5"/>
</svg>