<?xml version="1.0" encoding="utf-8"?>

<svg fill="#000000" height="800px" width="800px" version="1.2" baseProfile="tiny" id="Biologist"
	 xmlns="http://www.w3.org/2000/svg" xmlns:xlink="http://www.w3.org/1999/xlink"  viewBox="0 0 256 256"
	 xml:space="preserve">
<path d="M16.6,220.3c4.3,0,8.2-1.7,11-4.5v40.3h85.8v-79.9c3.4,3.7,8.1,5.8,13.4,5.8h26v8.8c0,5.4,4.4,9.9,9.9,9.9
	c5.4,0,9.9-4.4,9.9-9.9v-8.6h5.1c6.4,0,15.8-5,15.8-15.8c0-8.7-7.1-15.8-15.8-15.8h-5.1v-17.4h-19.7v17.4h-12.8v-31.3
	c0-18.5-12.8-31.3-31.3-31.3H92.3l-43.6,0H32.3C13.8,88.1,1,100.9,1,119.4v85.2C1,213.2,8.1,220.3,16.6,220.3z M172.6,160l5.1-0.1
	c3.6,0,6.5,2.9,6.5,6.5c0,3.9-2.9,6.5-6.5,6.5h-5.1V160z M10.3,119.4c0-13.4,8.6-22,22-22h10.2l28.1,48.1l28.1-48.1h10.2
	c13.4,0,22,8.6,22,22V160h22v12.9h-26v0c-4.9,0-8.8-3.8-8.8-8.7v-30.7h-13.9v114.8H36.9V133.4L23,133.3v71.3c0,3.5-2.9,6.4-6.4,6.4
	c-3.5,0-6.4-2.9-6.4-6.4V119.4z M184.7,256v-21.4H197c-5.3-6.1-8.3-13.3-8.3-20.8c0-13.4,9-25.4,24.1-32.6L200.5,160l15.8-9.2
	l27.7,47.9l-15.8,9.2l-9.2-15.8c-11,5-17.9,13.2-17.9,21.7c0,8.1,6.1,15.8,16,20.8h37.7L255,256H184.7z M226.4,215.4l24.6-14.2
	l3.6,6.4l-24.6,14.2L226.4,215.4z M25.6,38.9c0.5,1.1,1.3,1.8,2.1,2.6c5.2,5.2,13.9,5.2,19.1,0c0.8-0.8,1.5-1.8,2.1-2.6
	c4.7-8.3,13.7-14,23.7-14c14.9,0,27.4,12.1,27.4,27.4S87.7,79.5,72.5,79.5C48.5,79.5,28.9,61.9,25.6,38.9z"/>
</svg>