<?xml version="1.0" encoding="utf-8"?>

<svg fill="#000000" version="1.1" id="Layer_1" xmlns="http://www.w3.org/2000/svg" xmlns:xlink="http://www.w3.org/1999/xlink" 
	 width="800px" height="800px" viewBox="0 0 219 256" enable-background="new 0 0 219 256" xml:space="preserve">
<path d="M74.497,26.841C74.497,13.122,85.619,2,99.338,2s24.841,11.122,24.841,24.841s-11.122,24.841-24.841,24.841
	S74.497,40.56,74.497,26.841z M194.263,116.041l11.666-60.649l-11.088-2.133l-10.773,56.007h-28.586
	c0.112-0.662,0.186-1.336,0.19-2.029c0.032-6.86-5.503-12.446-12.363-12.478l-49.004-0.225L80.906,58.619
	c-2.479-9.253-8.64-15.714-19.406-15.714c-11.473,0-19.169,10.43-23.135,21.196c-7.904,21.453-13.549,57.585-11.26,81.05
	c1.239,10.961,4.18,19.949,11.597,23.958H18.041V93.835H2.234v159.959h15.808v-68.876h74.535l-10.394,51.496
	c-1.604,7.947,3.538,15.689,11.484,17.293c0.98,0.197,1.957,0.293,2.92,0.293c6.843,0,12.967-4.811,14.373-11.777l9.152-45.342
	l12.66,33.953c2.202,5.906,7.802,9.555,13.756,9.555c1.704,0,3.436-0.299,5.126-0.93c7.596-2.832,11.458-11.286,8.625-18.882
	l-25.734-69.015c-2.141-5.743-7.625-9.55-13.753-9.55H82.342l-0.018-9.033h118.634v120.816h15.808V116.041H194.263z"/>
</svg>