<?xml version="1.0" encoding="utf-8"?>

<svg fill="#000000" version="1.1" id="_x31__1_" xmlns="http://www.w3.org/2000/svg" xmlns:xlink="http://www.w3.org/1999/xlink" 
	 viewBox="0 0 128 128" xml:space="preserve">
<g>
	<ellipse transform="matrix(1.099767e-02 -0.9999 0.9999 1.099767e-02 -57.8935 154.5685)" cx="49.2" cy="106.6" rx="14" ry="14"/>
	<path d="M42.6,78.1L71,95.8l4.1,19.6c0.5,3.3,3.8,5.6,7.1,5c3.3-0.5,5.6-3.8,5-7.1L82.6,91c-0.3-1.6-1.2-3-2.4-3.9L63,75l0.5-42.6
		l16.3,14c0.9,0.9,2.1,1.4,3.3,1.8c3.3,0.9,6.8-0.3,8.9-2.7L114.8,19c3.2-3.6,2.7-9.2-0.9-12.2c-3.6-3.2-9.2-2.9-12.4,0.9l-17,19.9
		L65.3,11.1c-3.1-3-7.3-5-12-5C43.7,6,35.7,13.8,35.6,23.4c0,0-0.4,40.2-0.4,40.4C35.1,69.7,38,74.9,42.6,78.1z"/>
	<rect x="0.1" y="122.2" width="127.7" height="5.8"/>
</g>
</svg>