<?xml version="1.0" ?>


<svg fill="#000000" width="800px" height="800px" viewBox="0 0 64 64" xmlns="http://www.w3.org/2000/svg">

<defs>

<style>.cls-1{fill:none;}</style>

</defs>

<title/>

<g data-name="Layer 3" id="Layer_3">

<path class="cls-1" d="M46.88,10H41.72c0,.16,0,.31,0,.47C41.29,13.92,41,15,39.88,15H24.12c-1.11,0-1.41-1.08-1.79-4.53,0-.16,0-.31,0-.47H17.12A3.12,3.12,0,0,0,14,13.12V51.88A3.12,3.12,0,0,0,17.12,55H46.88A3.12,3.12,0,0,0,50,51.88V13.12A3.12,3.12,0,0,0,46.88,10Z"/>

<path class="cls-1" d="M35.64,11A29.65,29.65,0,0,0,36,7.75V7H28v.75A29.65,29.65,0,0,0,28.36,11Z"/>

<path class="cls-1" d="M39.27,13A57.47,57.47,0,0,0,40,6.5V5H24V6.51A57.57,57.57,0,0,0,24.73,13ZM27,6.75c0-.44.44-.75,1.06-.75h7.88c.62,0,1.06.31,1.06.75v1c0,.12-.07,1.1-.17,2-.19,1.73-.34,2.27-.89,2.27H28.06c-.55,0-.7-.54-.89-2.27-.1-.88-.17-1.86-.17-2Z"/>

<path d="M49.51,7H42c0-.26,0-.43,0-.49v-2C42,3.61,41.13,3,39.88,3H24.12C22.87,3,22,3.61,22,4.49v2c0,.06,0,.23,0,.49H14.49A3.53,3.53,0,0,0,11,10.56V57.44A3.53,3.53,0,0,0,14.49,61h35A3.53,3.53,0,0,0,53,57.44V10.56A3.53,3.53,0,0,0,49.51,7ZM24,5H40V6.5a57.47,57.47,0,0,1-.73,6.5H24.73A57.57,57.57,0,0,1,24,6.51ZM50,51.88A3.12,3.12,0,0,1,46.88,55H17.12A3.12,3.12,0,0,1,14,51.88V13.12A3.12,3.12,0,0,1,17.12,10h5.16c0,.16,0,.31,0,.47C22.71,13.92,23,15,24.12,15H39.88c1.11,0,1.41-1.08,1.79-4.53,0-.16,0-.31,0-.47h5.16A3.12,3.12,0,0,1,50,13.12Z"/>

<path d="M36.73,6H27.27c-.75,0-1.27.31-1.27.75v1c0,.12.08,1.1.2,2,.23,1.73.41,2.27,1.07,2.27h9.46c.66,0,.84-.54,1.07-2.27.12-.88.2-1.86.2-2v-1C38,6.31,37.48,6,36.73,6Z"/>

<rect class="cls-1" height="11" width="2" x="23" y="38"/>

<rect class="cls-1" height="14" width="2" x="27" y="35"/>

<rect class="cls-1" height="16" width="2" x="31" y="33"/>

<rect class="cls-1" height="8" width="2" x="19" y="41"/>

<rect class="cls-1" height="10" width="2" x="41" y="39"/>

<rect class="cls-1" height="15" width="2" x="36" y="34"/>

<rect height="11" width="2" x="23" y="38"/>

<rect height="8" width="2" x="19" y="41"/>

<rect height="16" width="2" x="31" y="33"/>

<rect height="14" width="2" x="27" y="35"/>

<path d="M46.88,12H42v1.51c0,.88-.87,1.49-2.12,1.49H24.12C22.87,15,22,14.39,22,13.51V12H17.12A1.12,1.12,0,0,0,16,13.12V51.88A1.12,1.12,0,0,0,17.12,53H46.88A1.12,1.12,0,0,0,48,51.88V13.12A1.12,1.12,0,0,0,46.88,12ZM46,51H17V32a1,1,0,0,1,2,0v7h2V36h4V33h4V31h6v1h5v5h5V49h1a1,1,0,0,1,0,2Zm0-24H40a1,1,0,0,1-1-1,1,1,0,0,1-1,1H18a1,1,0,0,1,0-2H38a1,1,0,0,1,1,1,1,1,0,0,1,1-1h6a1,1,0,0,1,0,2Zm0-4H26a1,1,0,0,1-1-1,1,1,0,0,1-1,1H18a1,1,0,0,1,0-2h6a1,1,0,0,1,1,1,1,1,0,0,1,1-1H46a1,1,0,0,1,0,2Zm0-4H18a1,1,0,0,1,0-2H46a1,1,0,0,1,0,2Z"/>

<rect height="10" width="2" x="41" y="39"/>

<rect height="15" width="2" x="36" y="34"/>

</g>

</svg>