<?xml version="1.0" ?>


<svg fill="#000000" width="800px" height="800px" viewBox="0 0 64 64" xmlns="http://www.w3.org/2000/svg">

<title/>

<g data-name="Layer 15" id="Layer_15">

<path d="M59,3H5A2,2,0,0,0,3,5V15a2,2,0,0,0,2,2H59a2,2,0,0,0,2-2V5A2,2,0,0,0,59,3ZM11,10H9V4h2Zm5,0H14V4h2Zm6,0H20V4h2Zm5,0H25V4h2Zm6,0H31V4h2Zm6,0H37V4h2Zm5,0H42V4h2Zm6,0H48V4h2Zm5,0H53V4h2Z"/>

<path d="M59,47H57A25,25,0,0,0,7,47H5a2,2,0,0,0-2,2V59a2,2,0,0,0,2,2H59a2,2,0,0,0,2-2V49A2,2,0,0,0,59,47ZM11,60H9V54h2Zm5,0H14V54h2Zm6,0H20V54h2Zm5,0H25V54h2Zm6,0H31V54h2Zm6,0H37V54h2ZM24.09,47c.56-3.39,3.89-6,7.91-6s7.35,2.61,7.91,6ZM44,60H42V54h2Zm6,0H48V54h2Zm5,0H53V54h2Z"/>

<path d="M53,23a1,1,0,0,0,0-2H47a1,1,0,0,0,0,2Z"/>

<path d="M17,23a1,1,0,0,0,0-2H11a1,1,0,0,0,0,2Z"/>

</g>

</svg>