<?xml version="1.0" ?>


<svg fill="#000000" width="800px" height="800px" viewBox="0 0 32 32" xmlns="http://www.w3.org/2000/svg">

<title/>

<g data-name="Layer 7" id="Layer_7">

<path d="M28.08,23.67l-5.49-5.5A3.21,3.21,0,0,0,19,17.6l-1.7-1.7A7.92,7.92,0,0,0,19,11a8,8,0,1,0-8,8,7.92,7.92,0,0,0,4.9-1.69L17.59,19a3.13,3.13,0,0,0,.58,3.59l5.5,5.49a3.12,3.12,0,0,0,4.41-4.41ZM5,11a6,6,0,1,1,6,6A6,6,0,0,1,5,11ZM26.67,26.67a1.12,1.12,0,0,1-1.59,0l-5.5-5.5a1.14,1.14,0,0,1,0-1.59,1.16,1.16,0,0,1,1.59,0l5.5,5.5A1.12,1.12,0,0,1,26.67,26.67Z"/>

</g>

</svg>