<?xml version="1.0" ?>


<svg width="800px" height="800px" viewBox="0 0 300 300" id="dogfood" version="1.1" xml:space="preserve" xmlns="http://www.w3.org/2000/svg" xmlns:xlink="http://www.w3.org/1999/xlink">

<g>

<path d="   M67.663,125.301C71.091,110.223,86.423,98,101.827,98h104.08c15.44,0,30.74,12.236,34.164,27.301L253.867,186h-200L67.663,125.301z   " style="fill-rule:evenodd;clip-rule:evenodd;fill:#FBAD4A;stroke:#000000;stroke-width:8;stroke-linecap:round;stroke-linejoin:round;stroke-miterlimit:10;"/>

<path d="   M29.867,198c0-6.628,5.412-12,11.96-12h224.08c6.604,0,11.96,5.386,11.96,12c0,6.628-5.412,12-11.96,12H41.827   C35.223,210,29.867,204.614,29.867,198z" style="fill-rule:evenodd;clip-rule:evenodd;fill:#DDDDDD;stroke:#000000;stroke-width:7.7333;stroke-linecap:round;stroke-linejoin:round;stroke-miterlimit:10;"/>

<path d="   M197.867,142c4.418,0,8-3.582,8-8c0-4.418-3.582-8-8-8s-8,3.582-8,8h-72c0-4.418-3.582-8-8-8s-8,3.582-8,8c0,4.418,3.582,8,8,8   c-4.418,0-8,3.582-8,8c0,4.418,3.582,8,8,8s8-3.582,8-8h72c0,4.418,3.582,8,8,8s8-3.582,8-8   C205.867,145.582,202.285,142,197.867,142z" style="fill-rule:evenodd;clip-rule:evenodd;fill:#DDDDDD;stroke:#000000;stroke-width:7.7333;stroke-linecap:round;stroke-linejoin:round;stroke-miterlimit:10;"/>

</g>

<g/>

<g/>

<g/>

<g/>

<g/>

<g/>

<g/>

<g/>

<g/>

<g/>

<g/>

<g/>

<g/>

<g/>

<g/>

</svg>