<?xml version="1.0" ?>


<svg width="800px" height="800px" viewBox="0 0 300 300" id="bone" version="1.1" xml:space="preserve" xmlns="http://www.w3.org/2000/svg" xmlns:xlink="http://www.w3.org/1999/xlink">

<g>

<path d="   M226.636,81.098c7.307-7.307,7.307-19.154,0-26.462c-7.307-7.307-19.155-7.307-26.462,0s-7.307,19.154,0,26.462L81.098,200.174   c-7.307-7.307-19.155-7.307-26.462,0s-7.307,19.154,0,26.462c7.307,7.307,19.155,7.307,26.462,0   c-7.307,7.307-7.307,19.154,0,26.462c7.307,7.307,19.155,7.307,26.462,0s7.307-19.154,0-26.462l119.077-119.077   c7.307,7.307,19.155,7.307,26.462,0s7.307-19.154,0-26.462C245.79,73.79,233.943,73.791,226.636,81.098z" style="fill-rule:evenodd;clip-rule:evenodd;fill:#DDDDDD;stroke:#000000;stroke-width:7.7333;stroke-linecap:round;stroke-linejoin:round;stroke-miterlimit:10;"/>

</g>

<g/>

<g/>

<g/>

<g/>

<g/>

<g/>

<g/>

<g/>

<g/>

<g/>

<g/>

<g/>

<g/>

<g/>

<g/>

</svg>