<?xml version="1.0" ?>
<svg fill="#000000" width="800px" height="800px" viewBox="0 0 512 512" id="_x30_1" version="1.1" xml:space="preserve" xmlns="http://www.w3.org/2000/svg" xmlns:xlink="http://www.w3.org/1999/xlink"><path d="M256,0C114.615,0,0,114.615,0,256s114.615,256,256,256s256-114.615,256-256S397.385,0,256,0z M365.206,363.25H304.75  c0,26.924-21.826,48.75-48.75,48.75c-26.924,0-48.75-21.826-48.75-48.75h-60.456c-13.725,0-25.115-11.128-24.852-24.85  c0.169-8.83,5.033-16.51,12.199-20.648c7.565-4.368,12.171-12.492,12.171-21.228v-56.367c0-50.114,33.608-92.377,79.515-105.483  c-0.19-1.375-0.296-2.777-0.296-4.204C225.531,113.641,239.173,100,256,100s30.469,13.641,30.469,30.469  c0,1.427-0.106,2.829-0.296,4.204c45.906,13.107,79.515,55.37,79.515,105.483v56.367c0,8.735,4.606,16.86,12.171,21.228  c7.166,4.138,12.03,11.818,12.199,20.648C390.321,352.122,378.931,363.25,365.206,363.25z"/></svg>