<?xml version="1.0" ?>


<svg fill="#000000" width="800px" height="800px" viewBox="0 0 512 512" id="_x30_1" version="1.1" xml:space="preserve" xmlns="http://www.w3.org/2000/svg" xmlns:xlink="http://www.w3.org/1999/xlink">

<g>

<path d="M256,0C114.615,0,0,114.615,0,256s114.615,256,256,256s256-114.615,256-256S397.385,0,256,0z M412,375.438   C412,395.63,395.63,412,375.438,412H136.562C116.37,412,100,395.63,100,375.438V136.562C100,116.37,116.37,100,136.562,100h7.506   c7.97,0,14.431,6.461,14.431,14.431l0,0c0,3.94-1.583,7.738-4.46,10.429c-4.754,4.446-7.727,10.772-7.727,17.796   c0,14.048,11.884,25.32,26.147,24.312c12.105-0.855,21.846-10.725,22.56-22.839c0.446-7.567-2.565-14.438-7.599-19.19   c-2.894-2.732-4.545-6.526-4.545-10.506v-0.003c0-7.97,6.461-14.431,14.431-14.431h32.075c7.97,0,14.431,6.461,14.431,14.431l0,0   c0,3.94-1.583,7.738-4.46,10.429c-4.754,4.446-7.727,10.772-7.727,17.796c0,14.048,11.884,25.32,26.147,24.312   c12.105-0.855,21.846-10.725,22.56-22.839c0.446-7.567-2.565-14.438-7.599-19.19c-2.894-2.732-4.545-6.526-4.545-10.506v-0.003   c0-7.97,6.461-14.431,14.431-14.431h32.075c7.97,0,14.431,6.461,14.431,14.431l0,0c0,3.94-1.583,7.738-4.46,10.429   c-4.754,4.446-7.727,10.772-7.727,17.796c0,14.048,11.884,25.32,26.147,24.312c12.105-0.855,21.846-10.725,22.56-22.839   c0.446-7.567-2.565-14.438-7.599-19.19c-2.894-2.732-4.545-6.526-4.545-10.506v-0.003c0-7.97,6.461-14.431,14.431-14.431h7.506   C395.63,100,412,116.37,412,136.562V375.438z"/>

<path d="M351.062,215.781H160.938c-6.731,0-12.188,5.457-12.188,12.188v123.094c0,6.731,5.457,12.188,12.188,12.188h190.125   c6.731,0,12.188-5.457,12.188-12.188V227.969C363.25,221.238,357.793,215.781,351.062,215.781z"/>

</g>

</svg>