<?xml version="1.0" ?>
<svg fill="#000000" width="800px" height="800px" viewBox="0 0 512 512" id="_x30_1" version="1.1" xml:space="preserve" xmlns="http://www.w3.org/2000/svg" xmlns:xlink="http://www.w3.org/1999/xlink"><path d="M256,0C114.615,0,0,114.615,0,256s114.615,256,256,256s256-114.615,256-256S397.385,0,256,0z M214.062,256  c0,4.27-0.404,8.445-1.167,12.493l62.569,31.284c12.419-13.597,30.364-22.061,50.282-21.835  c36.221,0.411,65.805,29.966,66.249,66.187c0.457,37.307-29.568,67.711-66.733,67.87c-36.434,0.156-66.085-28.378-67.287-64.793  c-0.167-5.051,0.234-9.978,1.13-14.731l-62.568-31.284c-12.258,13.42-29.897,21.84-49.505,21.84  c-37.338,0-67.545-30.528-67.025-67.985c0.503-36.18,30.089-65.675,66.271-66.073c19.909-0.219,37.844,8.244,50.259,21.836  l62.568-31.284c-0.896-4.753-1.297-9.68-1.13-14.731c1.202-36.414,30.853-64.948,67.287-64.793  c37.165,0.159,67.19,30.563,66.733,67.87c-0.443,36.221-30.027,65.777-66.249,66.187c-19.918,0.226-37.863-8.238-50.282-21.835  l-62.569,31.284C213.659,247.555,214.062,251.73,214.062,256z"/></svg>