<?xml version="1.0" ?>
<svg fill="#000000" width="800px" height="800px" viewBox="0 0 512 512" id="_x30_1" version="1.1" xml:space="preserve" xmlns="http://www.w3.org/2000/svg" xmlns:xlink="http://www.w3.org/1999/xlink"><path d="M256,0C114.615,0,0,114.615,0,256s114.615,256,256,256s256-114.615,256-256S397.385,0,256,0z M165.938,357.875  c0,6.731-5.457,12.188-12.188,12.188h-36.562c-6.731,0-12.188-5.457-12.188-12.188V205.531c0-6.731,5.457-12.188,12.188-12.188  h36.562c6.731,0,12.188,5.457,12.188,12.188V357.875z M415.951,233.929l-28.383,108.8c-4.2,16.1-18.74,27.333-35.378,27.333H251.25  c-26.924,0-48.75-21.826-48.75-48.75V213.537c0-12.929,5.136-25.329,14.279-34.471l70.855-70.855  c4.017-4.017,9.464-6.273,15.145-6.273h0c16.169,0,26.507,17.23,18.898,31.497l-22.202,41.628  c-4.416,8.281,1.584,18.281,10.969,18.281h74.152c17.897,0,32.405,14.508,32.405,32.405  C417,228.509,416.647,231.258,415.951,233.929z"/></svg>