<?xml version="1.0" ?>


<svg fill="#000000" width="800px" height="800px" viewBox="0 0 512 512" id="_x30_1" version="1.1" xml:space="preserve" xmlns="http://www.w3.org/2000/svg" xmlns:xlink="http://www.w3.org/1999/xlink">

<g>

<path d="M256,170.688c-47.042,0-85.312,38.271-85.312,85.312s38.271,85.312,85.312,85.312s85.312-38.271,85.312-85.312   S303.042,170.688,256,170.688z M256,304.75c-26.881,0-48.75-21.869-48.75-48.75s21.869-48.75,48.75-48.75s48.75,21.869,48.75,48.75   S282.881,304.75,256,304.75z"/>

<path d="M256,0C114.615,0,0,114.615,0,256s114.615,256,256,256s256-114.615,256-256S397.385,0,256,0z M400.854,291.625   c-22.381,32.303-76.545,98.438-144.854,98.438s-122.473-66.135-144.854-98.438C103.893,281.157,100,268.734,100,256   s3.893-25.157,11.146-35.625c22.381-32.303,76.545-98.438,144.854-98.438s122.473,66.135,144.854,98.438   C408.107,230.843,412,243.266,412,256S408.107,281.157,400.854,291.625z"/>

</g>

</svg>