<?xml version="1.0" encoding="utf-8"?>

<svg width="800px" height="800px" viewBox="0 -43.5 1111 1111" class="icon"  version="1.1" xmlns="http://www.w3.org/2000/svg"><path d="M921.6 182.857143v538.331428h87.771429V182.857143c0-48.274286-39.497143-87.771429-87.771429-87.771429h-716.8c-49.005714 0-87.771429 39.497143-87.771429 88.502857h87.771429c0-0.731429 716.8-0.731429 716.8-0.731428z m0 629.028571h-95.085714v87.771429h95.085714c49.005714 0 87.771429-39.497143 87.771429-88.502857h-87.771429v0.731428z m-665.6 0h-95.085714l43.885714 43.885715v-582.217143h-87.771429V899.657143h186.514286v-87.771429h-47.542857z" fill="#0C92F2" /><path d="M833.828571 650.971429h-533.942857v248.685714c48.274286 0 87.771429-39.497143 87.771429-87.771429v-73.142857h358.4v73.142857c0 48.274286 39.497143 87.771429 87.771428 87.771429v-87.771429-160.914285z" fill="#0C92F2" /><path d="M299.885714 270.628571h533.942857v292.571429h-533.942857z" fill="#A8C8E6" /><path d="M299.885714 270.628571l266.971429 292.571429H299.885714z" fill="#61B6F2" /><path d="M566.857143 270.628571h266.971428v292.571429z" fill="#FC830A" /></svg>