<?xml version="1.0" encoding="utf-8"?>

<svg width="800px" height="800px" viewBox="0 -43.5 1111 1111" class="icon"  version="1.1" xmlns="http://www.w3.org/2000/svg"><path d="M298.422857 691.2l-68.022857-35.108571c-2.194286-1.462857-4.388571-6.582857-3.657143-8.777143l23.405714-73.142857c10.24-31.451429 10.24-78.994286 0-110.445715l-23.405714-73.142857c-0.731429-2.194286 1.462857-8.045714 3.657143-8.777143l68.022857-35.108571c29.988571-15.36 62.902857-48.274286 78.262857-78.262857l35.108572-68.022857c1.462857-2.194286 6.582857-4.388571 8.777143-3.657143l73.142857 23.405714c31.451429 10.24 78.994286 10.24 110.445714 0l73.142857-23.405714c2.194286-0.731429 8.045714 1.462857 8.777143 3.657143l35.108571 68.022857c15.36 29.988571 48.274286 62.902857 78.262858 78.262857l68.022857 35.108571c2.194286 1.462857 4.388571 6.582857 3.657143 8.777143l-23.405715 73.142857c-10.24 31.451429-10.24 78.994286 0 110.445715l23.405715 73.142857c0.731429 2.194286-1.462857 8.045714-3.657143 8.777143l-68.022857 35.108571c-29.988571 15.36-62.902857 48.274286-78.262858 78.262857l-35.108571 68.022857c-1.462857 2.194286-6.582857 4.388571-8.777143 3.657143l-73.142857-23.405714c-31.451429-10.24-78.994286-10.24-110.445714 0l-73.142857 23.405714c-2.194286 0.731429-8.045714-1.462857-8.777143-3.657143l-35.108572-68.022857c-15.36-29.257143-49.005714-62.902857-78.262857-78.262857z m34.377143 186.514286c20.48 40.96 70.948571 61.44 114.102857 47.542857l73.142857-23.405714c13.897143-4.388571 42.422857-4.388571 56.32 0l73.142857 23.405714c43.154286 13.897143 93.622857-6.582857 114.102858-47.542857l35.108571-68.022857c6.582857-13.165714 26.331429-32.914286 40.228571-40.228572l68.022858-35.108571c40.96-20.48 61.44-70.948571 47.542857-114.102857l-23.405715-73.142858c-4.388571-13.897143-4.388571-42.422857 0-56.32l23.405715-73.142857c13.897143-43.154286-6.582857-93.622857-47.542857-114.102857l-68.022858-35.108571c-13.165714-6.582857-32.914286-26.331429-40.228571-40.228572l-35.108571-68.022857c-20.48-40.96-70.948571-61.44-114.102858-47.542857l-73.142857 23.405714c-13.897143 4.388571-42.422857 4.388571-56.32 0l-73.142857-23.405714c-43.154286-13.897143-93.622857 6.582857-114.102857 47.542857l-35.108571 68.022857c-6.582857 13.165714-26.331429 32.914286-40.228572 40.228572l-68.022857 35.108571c-40.96 20.48-61.44 70.948571-47.542857 114.102857l23.405714 73.142857c4.388571 13.897143 4.388571 42.422857 0 56.32l-23.405714 73.142858c-13.897143 43.154286 6.582857 93.622857 47.542857 114.102857l68.022857 35.108571c13.165714 6.582857 32.914286 26.331429 40.228572 40.228572l35.108571 68.022857z" fill="#0C92F2" /><path d="M548.571429 760.685714l2.194285-468.114285s32.914286 24.137143 73.142857 40.96 87.771429 26.331429 87.771429 26.331428 2.925714 41.691429 19.748571 84.114286 56.32 84.114286 56.32 84.114286-32.182857 25.6-49.005714 65.828571-19.748571 95.085714-19.748571 95.085714-62.171429 12.434286-96.548572 27.062857S548.571429 760.685714 548.571429 760.685714z" fill="#A8C8E6" /><path d="M548.571429 760.685714s199.68-285.988571 201.874285-282.331428c2.194286 3.657143 4.388571 7.314286 7.314286 10.24 16.091429 22.674286 31.451429 39.497143 31.451429 39.497143s-32.182857 25.6-49.005715 65.828571-19.748571 95.085714-19.748571 95.085714-62.171429 12.434286-96.548572 27.062857S548.571429 760.685714 548.571429 760.685714z" fill="#FC830A" /><path d="M550.034286 526.628571l1.462857-234.057142s32.914286 24.137143 73.142857 40.96 87.771429 26.331429 87.771429 26.331428l-162.377143 166.765714z" fill="#61B6F2" /></svg>