<?xml version="1.0" encoding="utf-8"?>

<svg width="800px" height="800px" viewBox="0 -43.5 1111 1111" class="icon"  version="1.1" xmlns="http://www.w3.org/2000/svg"><path d="M914.285714 563.2h87.771429v-248.685714c0-56.32-46.08-102.4-102.4-102.4h-687.542857c-56.32 0-102.4 31.451429-102.4 87.771428h789.942857c8.045714 0 14.628571 6.582857 14.628571 14.628572v248.685714z m-40.96 204.8h26.331429c56.32 0 102.4-31.451429 102.4-87.771429h-157.988572l29.257143 87.771429z m-675.84-358.4h-87.771428v358.4h115.565714l29.257143-87.771429h-50.468572l-6.582857-270.628571z m460.8-263.314286v65.828572h87.771429v-65.828572c0-48.274286-39.497143-87.771429-87.771429-87.771428h-219.428571c-48.274286 0-87.771429 39.497143-87.771429 87.771428v65.828572h87.771429v-65.828572h219.428571z" fill="#0C92F2" /><path d="M708.022857 549.302857l83.382857-27.794286-82.651428 29.257143c-1.462857-3.657143-6.582857-10.24-13.897143-15.36-7.314286-5.12-15.36-8.045714-19.748572-8.045714h-253.074285c-4.388571 0-12.434286 2.925714-19.748572 8.045714-7.314286 5.12-12.434286 11.702857-13.897143 15.36l-82.651428-29.257143 83.382857 27.794286-114.834286 340.114286-83.382857-27.794286 83.382857 27.062857v-4.388571c-0.731429-4.388571-2.194286-10.24-5.851428-14.628572-6.582857-9.508571-15.36-13.165714-20.48-13.165714h601.965714c-5.12 0-13.897143 4.388571-20.48 13.165714-3.657143 5.12-5.12 10.24-5.851429 14.628572v4.388571l83.382858-27.062857-83.382858 27.794286-115.565714-340.114286z m198.217143 312.32c14.628571 45.348571-10.971429 81.92-57.051429 81.92h-601.965714c-46.08 0-72.411429-36.571429-57.051428-81.92l114.834285-340.114286c16.091429-45.348571 68.022857-81.92 117.028572-81.92h253.074285c48.274286 0 100.937143 36.571429 117.028572 81.92l114.102857 340.114286z" fill="#0C92F2" /><path d="M647.314286 614.4l47.542857 153.6h-285.257143l47.542857-153.6z" fill="#A8C8E6" /><path d="M507.611429 768H409.6l47.542857-153.6h47.542857z" fill="#61B6F2" /><path d="M647.314286 614.4l47.542857 153.6H595.382857l-2.925714-153.6z" fill="#FC830A" /></svg>