<?xml version="1.0" encoding="utf-8"?>

<svg width="800px" height="800px" viewBox="0 -43.5 1111 1111" class="icon"  version="1.1" xmlns="http://www.w3.org/2000/svg"><path d="M694.857143 153.6v263.314286l43.885714-43.885715h-358.4l43.885714 43.885715v-263.314286h270.628572z m87.771428 219.428571v-87.771428h131.657143V777.508571h87.771429V285.257143c0-48.274286-39.497143-87.771429-87.771429-87.771429h-131.657143v-43.885714c0-48.274286-39.497143-87.771429-87.771428-87.771429h-270.628572c-48.274286 0-87.771429 39.497143-87.771428 87.771429v43.885714h-138.971429c-48.274286 0-87.771429 39.497143-87.771428 87.771429v177.005714h87.771428V285.257143h138.971429v87.771428h-138.971429v87.771429h716.8v-87.771429h-131.657143z m-585.142857 497.371429v-318.902857h-87.771428V870.4c0 48.274286 39.497143 87.771429 87.771428 87.771429h716.8c48.274286 0 87.771429-39.497143 87.771429-87.771429h-87.771429-716.8z" fill="#0C92F2" /><path d="M424.228571 197.485714h270.628572v87.771429h-270.628572z" fill="#0C92F2" /><path d="M292.571429 555.885714h526.628571v219.428572h-526.628571z" fill="#A8C8E6" /><path d="M292.571429 555.885714l263.314285 219.428572h-263.314285z" fill="#61B6F2" /><path d="M555.885714 555.885714h263.314286v219.428572z" fill="#FC830A" /></svg>