<?xml version="1.0" encoding="utf-8"?>
<svg width="800px" height="800px" viewBox="-8.36 0 75.219 75.219" xmlns="http://www.w3.org/2000/svg">
  <g id="_2" data-name="2" transform="translate(-370.75 -111.576)">
    <circle id="Ellipse_1" data-name="Ellipse 1" cx="26.5" cy="26.5" r="26.5" transform="translate(373.5 131.045)" fill="#ee6159"/>
    <g id="Group_8" data-name="Group 8">
      <path id="Path_12" data-name="Path 12" d="M400,126.826a7.625,7.625,0,1,1,7.625-7.625A7.633,7.633,0,0,1,400,126.826Zm0-9.75a2.125,2.125,0,1,0,2.125,2.125A2.127,2.127,0,0,0,400,117.076Z" fill="#151515"/>
    </g>
    <rect id="Rectangle_1" data-name="Rectangle 1" width="17" height="8.844" transform="translate(391.5 122.201)" fill="#c1c1c0"/>
    <path id="Path_13" data-name="Path 13" d="M408.5,133.795h-17a2.75,2.75,0,0,1-2.75-2.75V122.2a2.75,2.75,0,0,1,2.75-2.75h17a2.75,2.75,0,0,1,2.75,2.75v8.844A2.75,2.75,0,0,1,408.5,133.795Zm-14.25-5.5h11.5v-3.344h-11.5Z" fill="#151515"/>
    <g id="Group_9" data-name="Group 9">
      <path id="Path_14" data-name="Path 14" d="M413.64,163.712A32.9,32.9,0,0,1,398.767,160c-13.519-6.78-23.322-.449-23.733-.175a2.75,2.75,0,0,1-3.08-4.557c.514-.349,12.775-8.46,29.279-.184,13.641,6.842,23.539.255,23.637.189a2.75,2.75,0,0,1,3.108,4.538A26.886,26.886,0,0,1,413.64,163.712Z" fill="#ffc97a"/>
    </g>
    <path id="Path_15" data-name="Path 15" d="M400,186.795a29.25,29.25,0,1,1,29.25-29.25A29.283,29.283,0,0,1,400,186.795Zm0-53a23.75,23.75,0,1,0,23.75,23.75A23.777,23.777,0,0,0,400,133.795Z" fill="#151515"/>
  </g>
</svg>