<?xml version="1.0" ?>
<svg fill="#000000" width="800px" height="800px" viewBox="0 0 32 32" xmlns="http://www.w3.org/2000/svg"><title/><path d="M7,25H25a2.993,2.993,0,0,0,1-5.816V18a9.97,9.97,0,0,0-7.258-9.612L18.98,7.2A1,1,0,0,0,18,6H14a1,1,0,0,0-.98,1.2l.238,1.191A9.97,9.97,0,0,0,6,18v1.184A2.993,2.993,0,0,0,7,25ZM16.779,8l-.187.939,0,.006L16.18,11H15.82l-.409-2.055,0-.006L15.221,8ZM8,18a7.977,7.977,0,0,1,5.651-7.647l.369,1.843A1,1,0,0,0,15,13h2a1,1,0,0,0,.981-.8l.369-1.843A7.977,7.977,0,0,1,24,18v1H8ZM7,21H25a1,1,0,0,1,0,2H7a1,1,0,0,1,0-2Z"/></svg>