<?xml version="1.0" ?>


<svg fill="#000000" width="800px" height="800px" viewBox="0 0 512 512" xmlns="http://www.w3.org/2000/svg">

<g id="Candy_cane">

<path d="M273.417,135.8151a31.7578,31.7578,0,0,1,3.6848-3.1578L255.867,53.4167A114.4362,114.4362,0,0,0,216.7309,79.129a40.0831,40.0831,0,0,0,56.6861,56.6861Z"/>

<path d="M311.9362,128.27,369.8521,70.354a114.8449,114.8449,0,0,0-88.5384-23.69L302.4628,125.81A35.8738,35.8738,0,0,1,311.9362,128.27Z"/>

<path d="M110.3768,398.1011a40.1135,40.1135,0,0,0,56.6862,56.7718l28.9558-28.9558L139.3326,369.231Z"/>

<rect height="80.2285" transform="translate(-189.4802 252.2719) rotate(-44.9567)" width="67.3855" x="176.4119" y="314.9891"/>

<polygon points="224.186 284.292 280.877 341.064 328.612 293.328 271.836 236.642 224.186 284.292"/>

<path d="M323.0849,185.393,290.44,218.0379l56.7762,56.6862,32.5549-32.555a113.7419,113.7419,0,0,0,25.6223-39.1361l-79.1507-21.2348A39.9053,39.9053,0,0,1,323.0849,185.393Z"/>

<path d="M388.5461,88.958,330.54,146.96A34.6811,34.6811,0,0,1,333,156.2616L412.15,177.4964A115.1576,115.1576,0,0,0,388.5461,88.958Z"/>

</g>

</svg>