<?xml version="1.0" ?>


<svg fill="#000000" width="800px" height="800px" viewBox="0 0 512 512" xmlns="http://www.w3.org/2000/svg">

<g id="Reindeer">

<path d="M350.9621,243.3945,370.5,223.8564a80.2411,80.2411,0,0,0,22.7174-45.1689,72.4624,72.4624,0,0,0,60.2338-71.3012V77.7621a13.1625,13.1625,0,0,0-26.325,0v29.6242a45.9961,45.9961,0,0,1-32.9234,43.935V52.5554a13.1625,13.1625,0,0,0-26.325,0v98.7659a45.9975,45.9975,0,0,1-32.9148-43.935V77.7621a13.1625,13.1625,0,0,0-26.325,0v29.6242a72.5278,72.5278,0,0,0,57.95,70.95A54.2491,54.2491,0,0,1,351.8875,205.24l-18.1027,18.1028a114.7378,114.7378,0,0,0-155.5548-.0129l-18.09-18.09a54.2491,54.2491,0,0,1-14.7007-26.9034,72.5244,72.5244,0,0,0,57.95-70.95V77.7621a13.1625,13.1625,0,1,0-26.325,0v29.6242a45.9975,45.9975,0,0,1-32.9148,43.935V52.5554a13.1625,13.1625,0,1,0-26.325,0v98.7659a45.9961,45.9961,0,0,1-32.9234-43.935V77.7621a13.1625,13.1625,0,1,0-26.325,0v29.6242A72.4732,72.4732,0,0,0,118.81,178.6875a80.2409,80.2409,0,0,0,22.7173,45.1689l19.5209,19.521c-.8912,1.3154-1.791,2.6222-2.6265,3.9761a113.8663,113.8663,0,0,0-5,111.62l18.6041,37.2038,18.6,37.2081a71.9111,71.9111,0,0,0,52.213,39.2218V426.89l-15.2706-21.4105a14.868,14.868,0,0,1,12.0228-23.5142H272.407A14.9018,14.9018,0,0,1,284.52,405.4792L269.1635,426.89v45.7174a71.7348,71.7348,0,0,0,52.2086-39.2218L358.58,358.9734a113.8658,113.8658,0,0,0-5.0045-111.62C352.7445,246.0082,351.8447,244.7056,350.9621,243.3945Zm-153.314,106.89a17.55,17.55,0,1,1,17.55-17.55A17.4854,17.4854,0,0,1,197.6481,350.2841Zm116.7058,0a17.55,17.55,0,1,1,17.55-17.55A17.5425,17.5425,0,0,1,314.3539,350.2841Z"/>

<path d="M463.88,328.1709a160.1636,160.1636,0,0,0-71.6054-57.0375,138.2974,138.2974,0,0,1-2.5451,80.9074h61.425C463.4432,352.0408,470.8985,338.1756,463.88,328.1709Z"/>

<path d="M119.7228,271.1334a160.1757,160.1757,0,0,0-71.6011,57.0375c-7.0225,10.0047.4371,23.87,12.7212,23.87h61.425A138.3335,138.3335,0,0,1,119.7228,271.1334Z"/>

</g>

</svg>