<?xml version="1.0" ?>


<svg fill="#000000" width="800px" height="800px" viewBox="0 0 512 512" xmlns="http://www.w3.org/2000/svg">

<g id="Santa_claus">

<path d="M83.1351,247.4221a43.7289,43.7289,0,0,0,0,87.3987Z"/>

<path d="M416.5936,247.4264v87.39a43.7249,43.7249,0,0,0,0-87.39Z"/>

<path d="M435.8875,133.1671V102.4546A57.0321,57.0321,0,0,0,378.85,45.4171H223.5351a114.0791,114.0791,0,0,0-111.0072,87.75H392.9766a51.54,51.54,0,0,1,28.5958,8.5737,52.5829,52.5829,0,0,1,24.0542,44.0763v16.1447a35.0845,35.0845,0,0,0-9.7391-68.7947Z"/>

<path d="M221.35,451.488l28.5187,15.0949,28.5188-15.0949a112.18,112.18,0,0,1-28.5188-14.1266A112.2491,112.2491,0,0,1,221.35,451.488Z"/>

<path d="M412.72,370.8848c-43.7507-9.9447-65.5-69.1417-126.3334-69.1417a53.1313,53.1313,0,0,0-36.5311,14.5379,53.1156,53.1156,0,0,0-36.5311-14.5379c-60.8294,0-82.5784,59.197-126.3291,69.1417a8.6707,8.6707,0,0,0-5.1888,13.4539c12.5412,17.5842,41.4242,48.211,90.4708,48.211,38.1421,0,62.9932-12.8968,77.5782-30.4382,14.5893,17.5414,39.4361,30.4382,77.5825,30.4382,49.0466,0,77.9295-30.6268,90.4707-48.211A8.6706,8.6706,0,0,0,412.72,370.8848Z"/>

<path d="M106.6965,229.6921h2.7721v98.0718c2.7208-2.3737,5.4373-4.8288,8.3337-7.3739,5.5872-4.9959,11.5258-10.3,17.9913-15.45V229.6921h228.15V304.97c6.457,5.1416,12.3913,10.4374,17.9871,15.4205,2.8964,2.5451,5.6172,5.09,8.3379,7.3739V229.6921h2.7551a26.3263,26.3263,0,0,0,26.325-26.325V185.8129a26.3227,26.3227,0,0,0-26.325-26.3208H106.6965a26.32,26.32,0,0,0-26.325,26.3208v17.5542A26.3235,26.3235,0,0,0,106.6965,229.6921Z"/>

</g>

</svg>