<?xml version="1.0" ?>


<svg fill="#000000" width="800px" height="800px" viewBox="0 0 512 512" xmlns="http://www.w3.org/2000/svg">

<g id="Snow_globe">

<path d="M206.8506,178.636a15.7954,15.7954,0,1,0,15.7975-15.7932A15.7954,15.7954,0,0,0,206.8506,178.636Z"/>

<path d="M256,282.0208a15.7954,15.7954,0,1,0,15.7976,15.7976A15.7954,15.7954,0,0,0,256,282.0208Z"/>

<path d="M256,334.7822A15.7954,15.7954,0,1,0,271.7976,350.58,15.7954,15.7954,0,0,0,256,334.7822Z"/>

<path d="M289.3561,162.8428a15.7933,15.7933,0,1,0,15.7933,15.7932A15.7954,15.7954,0,0,0,289.3561,162.8428Z"/>

<path d="M256,226.8728A13.1631,13.1631,0,0,0,269.1625,213.71v-13.36a13.1625,13.1625,0,0,0-26.325,0v13.36A13.1631,13.1631,0,0,0,256,226.8728Z"/>

<path d="M413.8686,417.9776a13.19,13.19,0,0,0-11.8043-7.2968H109.9357a13.19,13.19,0,0,0-11.8043,7.2968L82.818,448.5958a13.1983,13.1983,0,0,0,11.8043,19.1011H417.3734a13.1983,13.1983,0,0,0,11.8043-19.1011Z"/>

<path d="M175.2512,384.3558A102.5092,102.5092,0,0,1,207.0648,230.849h.4585a71.0741,71.0741,0,1,1,97.0948-.1243h.09a102.5029,102.5029,0,0,1,32.0407,153.6311h55.7264a196.8134,196.8134,0,0,0,60.9623-142.6152C453.4375,132.7,365.0448,44.3031,256,44.3031,146.96,44.3031,58.5625,132.7,58.5625,241.7406a196.8245,196.8245,0,0,0,60.9666,142.6152Z"/>

</g>

</svg>