<?xml version="1.0" encoding="utf-8"?>
<svg width="800px" height="800px" viewBox="0 0 64 64" xmlns="http://www.w3.org/2000/svg">
  <g fill="none" fill-rule="evenodd">
    <polygon fill="#5EA7FF" points="13 5 20 5 20 56.833 13 56.833"/>
    <path fill="#325AA6" d="M20,5 L52.0000796,5 C53.1046051,5 54,5.894703 54,7.00020325 L54,57.8324082 C54,58.93709 53.1080589,59.8326115 52.0000796,59.8326115 L20,59.8326115 L20,5 Z"/>
    <path fill="#B4DFFB" d="M31.9107143,16 C28.952046,16 27,19.397839 27,23.5892857 C27,27.7807325 28.952046,41 31.9107143,41 C33.6366961,41 33.8327504,30.0222391 36.1517857,30.0122993 C38.9172496,30.0222391 38.6668754,41 40.3928571,41 C43.3515254,41 45.3035714,27.7807325 45.3035714,23.5892857 C45.3035714,19.397839 43.3515254,16 40.3928571,16 C38.9791667,16 37.5654762,17.3392857 36.1517857,17.3392857 C34.7380952,17.3392857 33.3244048,16 31.9107143,16 Z"/>
    <path fill="#ECECEC" d="M13,56.5 C13,54.5670034 14.5571833,53 16.4956369,53 L54,53 L54,60 L16.4956369,60 C14.56505,60 13,58.4290634 13,56.5 L13,56.5 Z"/>
  </g>
</svg>