<?xml version="1.0" encoding="utf-8"?>
<svg width="800px" height="800px" viewBox="0 0 64 64" xmlns="http://www.w3.org/2000/svg">
  <g fill="none" fill-rule="evenodd">
    <path fill="#5EA7FF" d="M46,7.66926701 C49.7372073,10.4118097 52,16.2459336 52,23 C52,32.3888407 47.627417,62 41,62 C37.1338008,62 37.6946392,37.4098157 31.5,37.3875505 C26.3053608,37.4098157 25.8661992,62 22,62 C15.372583,62 11,32.3888407 11,23 C11,16.2459336 13.2627927,10.4118097 17,7.66926701 L17,21.0023284 C17,23.7607516 19.2393744,26 22.0017826,26 L40.9982174,26 C43.7605744,26 46,23.7624662 46,21.0023284 L46,7.66926701 Z"/>
    <path fill="#595959" d="M20,2 L43,2 L43,16.0052166 C43,18.2114745 41.2143671,20 38.9937057,20 L24.0062943,20 C21.793679,20 20,18.2082844 20,16.0052166 L20,2 Z"/>
    <polyline stroke="#80D25B" stroke-linecap="round" stroke-width="2" points="28 11 31.39 14.96 34.843 11"/>
    <polyline stroke="#80D25B" stroke-linecap="round" stroke-width="2" points="28 6 31.39 9.96 34.843 6"/>
  </g>
</svg>