<?xml version="1.0" ?>


<svg width="800px" height="800px" viewBox="0 0 512 512" version="1.1" xml:space="preserve" xmlns="http://www.w3.org/2000/svg" xmlns:xlink="http://www.w3.org/1999/xlink">

<style type="text/css">
	.st0{fill:#16ADE1;}
	.st1{fill:#1B3954;}
</style>

<g id="Layer_1"/>

<g id="Layer_2">

<g>

<g>

<path class="st1" d="M361.3,476H150.7c-13.4,0-24.3-10.9-24.3-24.3V60.3c0-13.4,10.9-24.3,24.3-24.3h210.7     c13.4,0,24.3,10.9,24.3,24.3v391.3C385.7,465.1,374.8,476,361.3,476z M150.7,46c-7.9,0-14.3,6.4-14.3,14.3v391.3     c0,7.9,6.4,14.3,14.3,14.3h210.7c7.9,0,14.3-6.4,14.3-14.3V60.3c0-7.9-6.4-14.3-14.3-14.3H150.7z"/>

</g>

<g>

<path class="st0" d="M293.7,102.5h-75.3c-10.3,0-18.7-8.4-18.7-18.7s8.4-18.7,18.7-18.7h75.3c10.3,0,18.7,8.4,18.7,18.7     S304,102.5,293.7,102.5z M218.3,75.2c-4.8,0-8.7,3.9-8.7,8.7s3.9,8.7,8.7,8.7h75.3c4.8,0,8.7-3.9,8.7-8.7s-3.9-8.7-8.7-8.7H218.3     z"/>

</g>

<g>

<path class="st1" d="M361.3,476H150.7c-13.4,0-24.3-10.9-24.3-24.3v-55.3c0-2.8,2.2-5,5-5h249.3c2.8,0,5,2.2,5,5v55.3     C385.7,465.1,374.8,476,361.3,476z M136.3,401.3v50.3c0,7.9,6.4,14.3,14.3,14.3h210.7c7.9,0,14.3-6.4,14.3-14.3v-50.3H136.3z"/>

</g>

<g>

<path class="st0" d="M256,455c-11.8,0-21.3-9.6-21.3-21.3s9.6-21.3,21.3-21.3s21.3,9.6,21.3,21.3S267.8,455,256,455z M256,422.3     c-6.2,0-11.3,5.1-11.3,11.3S249.8,445,256,445s11.3-5.1,11.3-11.3S262.2,422.3,256,422.3z"/>

</g>

<g>

<g>

<path class="st1" d="M201.4,310.1c-1.3,0-2.6-0.5-3.6-1.5c-15.2-15.4-23.5-35.8-23.5-57.4c0-19.5,7-38.4,19.6-53.2      c12.5-14.6,29.8-24.4,48.7-27.5c1.5-0.2,2.9,0.2,4,1.1c1.1,0.9,1.8,2.3,1.8,3.8v113.8c0,1.4-0.6,2.7-1.5,3.6      c-1,0.9-2.3,1.4-3.7,1.4c-6.3-0.3-13,0.8-19.4,3c-7.3,2.5-13.9,6.5-19,11.5C203.9,309.7,202.6,310.1,201.4,310.1z M238.5,181.7      c-31.7,7.9-54.2,36.3-54.2,69.6c0,17.4,6.2,33.9,17.5,46.9c5.5-4.4,11.9-7.9,18.9-10.4c5.8-2,11.9-3.2,17.9-3.5V181.7z"/>

</g>

<g>

<path class="st1" d="M275.1,330.6c-1.4,0-2.7-0.6-3.6-1.6c-1.2-1.3-1.7-3.2-1.1-5c0.8-2.4,1.2-4.8,1.2-7.2V183.1      c0-2.6,1.9-4.7,4.5-5l12.1-1.3c0.9-0.1,1.8,0.1,2.7,0.4c28.5,13.4,47,42.5,47,74c0,37.4-25.3,69.9-61.4,79.2      C275.9,330.5,275.5,330.6,275.1,330.6z M281.5,187.6v129.3c0,0.5,0,1,0,1.5c27.6-10.4,46.3-37,46.3-67.1      c0-27.2-15.6-52.3-40-64.3L281.5,187.6z"/>

</g>

<g>

<path class="st0" d="M224.6,362.7c-5.3,0-10.5-0.7-15.3-2.2c-11.6-3.5-19.8-10.9-23.2-20.7c-4.4-12.6,0.1-26.8,11.9-38.2      c6.1-6,14-10.7,22.7-13.7c5.8-2,11.9-3.2,17.9-3.5V153.4c0-2.6,1.9-4.7,4.5-5l79.2-8.6c1.4-0.2,2.8,0.3,3.9,1.3      c1.1,0.9,1.7,2.3,1.7,3.7v33.3c0,2.6-1.9,4.7-4.5,5l-41.6,4.5v129.3c0,3.4-0.6,6.8-1.7,10.3c-1.1,3.5-2.8,6.9-5.1,10.3      c-6.5,9.7-17,17.3-29.4,21.7C238.4,361.5,231.4,362.7,224.6,362.7z M241.3,294.2c-5.7,0-11.7,1-17.4,3      c-7.3,2.5-13.9,6.5-19,11.5c-8.9,8.6-12.4,19-9.4,27.7c2.3,6.7,8.3,11.8,16.7,14.4c9,2.8,19.6,2.3,29.9-1.3      c10.4-3.6,19.1-9.9,24.4-17.8c1.7-2.5,3-5.2,3.8-7.7c0.8-2.5,1.2-4.9,1.2-7.2V183.1c0-2.6,1.9-4.7,4.5-5l41.6-4.5v-23.2      l-69.2,7.5v131.4c0,1.4-0.6,2.7-1.5,3.6c-1,0.9-2.3,1.4-3.7,1.4C242.6,294.2,242,294.2,241.3,294.2z"/>

</g>

</g>

</g>

</g>

</svg>