<?xml version="1.0" ?>


<svg width="800px" height="800px" viewBox="0 0 512 512" version="1.1" xml:space="preserve" xmlns="http://www.w3.org/2000/svg" xmlns:xlink="http://www.w3.org/1999/xlink">

<style type="text/css">
	.st0{fill:#16ADE1;}
	.st1{fill:#1B3954;}
</style>

<g id="Layer_1"/>

<g id="Layer_2">

<g>

<g>

<path class="st0" d="M344.8,151.9c-8.4,0-16.3-3.3-22.2-9.2c-2-2-2-5.1,0-7.1l37.4-37.4c0.9-0.9,2.2-1.5,3.5-1.5l0,0     c1.3,0,2.6,0.5,3.5,1.5c5.9,5.9,9.2,13.8,9.2,22.2s-3.3,16.3-9.2,22.2l0,0l0,0C361,148.6,353.2,151.9,344.8,151.9z M333.5,138.7     c3.3,2.1,7.2,3.2,11.2,3.2c5.7,0,11.1-2.2,15.2-6.3l0,0c4.1-4.1,6.3-9.4,6.3-15.2c0-4-1.1-7.9-3.2-11.2L333.5,138.7z"/>

</g>

<g>

<path class="st0" d="M288.6,208c-8.1,0-16.1-3.1-22.2-9.2c-2-2-2-5.1,0-7.1l37.4-37.4c2-2,5.1-2,7.1,0c5.9,5.9,9.2,13.8,9.2,22.2     c0,8.4-3.3,16.3-9.2,22.2l0,0C304.7,205,296.6,208,288.6,208z M277.4,194.9c8.3,5.1,19.2,4,26.4-3.1c4-4,6.3-9.4,6.3-15.2     c0-4-1.1-7.9-3.2-11.2L277.4,194.9z M307.3,195.3L307.3,195.3L307.3,195.3z"/>

</g>

<g>

<path class="st0" d="M232.4,264.2c-8.1,0-16.1-3.1-22.2-9.2c-0.9-0.9-1.5-2.2-1.5-3.5s0.5-2.6,1.5-3.5l37.4-37.4     c0.9-0.9,2.2-1.5,3.5-1.5s2.6,0.5,3.5,1.5c12.3,12.3,12.3,32.2,0,44.5l0,0C248.5,261.1,240.5,264.2,232.4,264.2z M221.2,251     c8.3,5.1,19.2,4,26.4-3.1c7.1-7.1,8.2-18.1,3.1-26.4L221.2,251z M251.1,251.5L251.1,251.5L251.1,251.5z"/>

</g>

<g>

<path class="st0" d="M176.2,320.4c-8.4,0-16.3-3.3-22.2-9.2c-2-2-2-5.1,0-7.1l37.4-37.4c2-2,5.1-2,7.1,0     c5.9,5.9,9.2,13.8,9.2,22.2c0,8.4-3.3,16.3-9.2,22.2l0,0l0,0C192.5,317.1,184.6,320.4,176.2,320.4     C176.2,320.4,176.2,320.4,176.2,320.4z M165,307.2c3.3,2.1,7.2,3.2,11.2,3.2c0,0,0,0,0,0c5.7,0,11.1-2.2,15.2-6.3l0,0     c4.1-4.1,6.3-9.4,6.3-15.2c0-4-1.1-7.9-3.2-11.2L165,307.2z"/>

</g>

<g>

<path class="st0" d="M120.1,376.5c-8.1,0-16.1-3.1-22.2-9.2c-0.9-0.9-1.5-2.2-1.5-3.5s0.5-2.6,1.5-3.5l37.4-37.4c2-2,5.1-2,7.1,0     c12.3,12.3,12.3,32.2,0,44.5l0,0C136.2,373.5,128.1,376.5,120.1,376.5z M108.9,363.4c8.3,5.1,19.2,4,26.4-3.1     c7.1-7.1,8.2-18.1,3.1-26.4L108.9,363.4z M138.8,363.8L138.8,363.8L138.8,363.8z"/>

</g>

<g>

<path class="st1" d="M57.9,471.5c-1.3,0-2.6-0.5-3.5-1.5l-29.6-29.6c-0.9-0.9-1.5-2.2-1.5-3.5s0.5-2.6,1.5-3.5L375.6,82.5     l-0.2-0.2c-4.7-4.7-4.7-12.3,0-17l18.3-18.3c4.7-4.7,12.3-4.7,17,0l71.6,71.6c4.7,4.7,4.7,12.3,0,17l-18.3,18.3     c-4.7,4.7-12.3,4.7-17,0l-0.4-0.4L146.4,421.1c-0.9,0.8-2.1,1.3-3.3,1.3h-33.9l-47.7,47.7C60.5,471,59.2,471.5,57.9,471.5z      M35.4,436.9l22.6,22.6l45.6-45.6c0.9-0.9,2.2-1.5,3.5-1.5h34l302.2-269.6c2-1.8,5-1.7,6.9,0.2l3.8,3.8c0.8,0.8,2.1,0.8,2.9,0     l18.3-18.3l0,0c0.8-0.8,0.8-2.1,0-2.9L403.6,54c-0.8-0.8-2.1-0.8-2.9,0l-18.3,18.3c-0.8,0.8-0.8,2.1,0,2.9l3.8,3.8     c0.9,0.9,1.5,2.2,1.5,3.5s-0.5,2.6-1.5,3.5L35.4,436.9z"/>

</g>

<g>

<path class="st1" d="M91.7,437.8c-1.3,0-2.6-0.5-3.5-1.5l-29.6-29.6c-2-2-2-5.1,0-7.1c2-2,5.1-2,7.1,0l29.6,29.6c2,2,2,5.1,0,7.1     C94.3,437.3,93,437.8,91.7,437.8z"/>

</g>

</g>

</g>

</svg>