<?xml version="1.0" ?>


<svg width="800px" height="800px" viewBox="0 0 512 512" version="1.1" xml:space="preserve" xmlns="http://www.w3.org/2000/svg" xmlns:xlink="http://www.w3.org/1999/xlink">

<style type="text/css">
	.st0{fill:#16ADE1;}
	.st1{fill:#1B3954;}
</style>

<g id="Layer_1"/>

<g id="Layer_2">

<g>

<g>

<path class="st1" d="M256,476c-58.8,0-114-22.9-155.6-64.4C58.9,370,36,314.8,36,256s22.9-114,64.4-155.6     C142,58.9,197.2,36,256,36s114,22.9,155.6,64.4C453.1,142,476,197.2,476,256s-22.9,114-64.4,155.6C370,453.1,314.8,476,256,476z      M256,46C140.2,46,46,140.2,46,256s94.2,210,210,210s210-94.2,210-210S371.8,46,256,46z"/>

</g>

<g>

<path class="st1" d="M256,440.1c-101.5,0-184.1-82.6-184.1-184.1S154.5,71.9,256,71.9S440.1,154.5,440.1,256     S357.5,440.1,256,440.1z M256,81.9C160,81.9,81.9,160,81.9,256S160,430.1,256,430.1S430.1,352,430.1,256S352,81.9,256,81.9z"/>

</g>

<g>

<path class="st1" d="M186,397.1c-3.3,0-6.7-0.9-9.7-2.6c-6.1-3.5-9.7-9.8-9.7-16.8V156c0-7,3.6-13.3,9.7-16.8     c6.1-3.5,13.4-3.5,19.4,0l65.6,37.9c1.5,0.9,2.5,2.5,2.5,4.3v69.7c0,1.4-0.6,2.7-1.5,3.6c-1,0.9-2.3,1.4-3.7,1.4     c-5.7-0.2-11.7,0.7-17.4,2.7c-6.6,2.3-12.5,5.9-17.1,10.3c-8,7.7-11.1,16.9-8.4,24.7c2.1,6,7.3,10.5,14.9,12.8     c8.1,2.5,17.6,2.1,26.8-1.1c9.4-3.2,17.2-8.9,22-16c1.5-2.3,2.7-4.6,3.4-6.9c0.7-2.2,1.1-4.3,1.1-6.4v-77.4c0-1.8,1-3.4,2.5-4.3     c1.5-0.9,3.5-0.9,5,0l96.3,55.6c6.1,3.5,9.7,9.8,9.7,16.8c0,7-3.6,13.3-9.7,16.8L195.7,394.5C192.6,396.2,189.3,397.1,186,397.1z      M186,146.6c-1.6,0-3.2,0.4-4.7,1.3c-3,1.7-4.7,4.8-4.7,8.2v221.6c0,3.4,1.8,6.5,4.7,8.2c3,1.7,6.5,1.7,9.4,0L382.6,275     c0,0,0,0,0,0c3-1.7,4.7-4.8,4.7-8.2c0-3.4-1.8-6.5-4.7-8.2l-88.8-51.3v68.8c0,3.1-0.5,6.3-1.6,9.5c-1,3.1-2.6,6.3-4.7,9.4     c-6,8.9-15.6,15.9-27,19.8c-11.2,3.9-23,4.3-33.1,1.3c-10.6-3.3-18.2-10-21.4-19.1c-4-11.6,0.1-24.7,10.9-35.2     c5.6-5.5,12.8-9.8,20.8-12.6c5.2-1.8,10.6-2.9,15.9-3.2v-61.8l-63.1-36.4C189.2,147,187.6,146.6,186,146.6z"/>

</g>

<g>

<path class="st0" d="M241.6,318.2c-4.9,0-9.6-0.7-14.1-2c-10.6-3.3-18.2-10-21.4-19.1c-4-11.6,0.1-24.7,10.9-35.2     c5.6-5.5,12.8-9.8,20.8-12.6c5.2-1.8,10.6-2.9,15.9-3.2V127.7c0-2.6,1.9-4.7,4.5-5l71.9-7.8c1.4-0.2,2.8,0.3,3.9,1.3     c1.1,0.9,1.7,2.3,1.7,3.7v30.2c0,2.6-1.9,4.7-4.5,5l-37.4,4.1v117c0,3.1-0.5,6.3-1.6,9.5c-1,3.1-2.6,6.3-4.7,9.4     c-6,8.9-15.6,15.9-27,19.8C254.3,317.1,247.9,318.2,241.6,318.2z M256.9,256c-5.2,0-10.6,0.9-15.7,2.7     c-6.6,2.3-12.5,5.9-17.1,10.3c-8,7.7-11.1,16.9-8.4,24.7c2.1,6,7.3,10.5,14.9,12.8c8.1,2.5,17.6,2.1,26.8-1.1     c9.4-3.2,17.2-8.9,22-16c1.5-2.3,2.7-4.6,3.4-6.9c0.7-2.2,1.1-4.3,1.1-6.4V154.6c0-2.6,1.9-4.7,4.5-5l37.4-4.1v-20.1l-61.9,6.7     v118.9c0,1.4-0.6,2.7-1.5,3.6c-1,0.9-2.3,1.4-3.7,1.4C258,256,257.4,256,256.9,256z"/>

</g>

</g>

</g>

</svg>