<?xml version="1.0" ?>


<svg width="800px" height="800px" viewBox="0 0 512 512" version="1.1" xml:space="preserve" xmlns="http://www.w3.org/2000/svg" xmlns:xlink="http://www.w3.org/1999/xlink">

<style type="text/css">
	.st0{fill:#16ADE1;}
	.st1{fill:#1B3954;}
</style>

<g id="Layer_1"/>

<g id="Layer_2">

<g>

<g>

<path class="st1" d="M363.8,476H222.3c-2.8,0-5-2.2-5-5v-79.1h-57.1c-17.2,0-31.6-12.8-33.7-29.9l-6.2-51.1h-9.1     c-4.3,0-8.2-2-10.8-5.5c-2.6-3.5-3.3-7.8-2-12l21.4-69V193c0-58.6,32.1-112,83.7-139.3c11.4-6,23.6-10.6,36.2-13.6     c11.4-2.7,23.1-4.1,34.9-4.1c15.4-0.1,30.6,2.1,45.2,6.5c12.7,3.8,24.9,9.3,36.2,16.2l0,0c22.3,13.6,41,32.8,54,55.5     c13.4,23.4,20.5,50.1,20.5,77.2c0,29.9-8.5,58.9-24.6,83.9c-24.2,37.7-37.1,82.3-37.1,128.9V471C368.8,473.8,366.5,476,363.8,476     z M227.3,466h131.4v-61.9c0-48.5,13.4-95,38.6-134.3c15-23.4,23-50.5,23-78.5c0-51.1-26.1-97.5-69.7-124.1c0,0,0,0,0,0     c-10.6-6.5-22-11.6-33.8-15.1c-13.5-4-27.6-6.1-41.8-6.1c-0.2,0-0.4,0-0.6,0c-11,0-22,1.3-32.6,3.8c-11.8,2.8-23.1,7.1-33.8,12.7     C159.8,88.1,129.7,138,129.7,193v32.2c0,0.5-0.1,1-0.2,1.5l-21.6,69.8c-0.3,1.1-0.1,2.2,0.5,3.1c0.7,0.9,1.7,1.4,2.8,1.4h13.5     c2.5,0,4.7,1.9,5,4.4l6.7,55.5c1.5,12,11.7,21.1,23.8,21.1h62.1c2.8,0,5,2.2,5,5V466z"/>

</g>

<g>

<path class="st0" d="M86.6,476c-2.6,0-4.8-2-5-4.6c-0.2-2.8,1.8-5.2,4.6-5.4c19.5-1.6,39.5-4.9,59.7-9.9     c84.1-20.7,142.9-96,142.9-183.1c0-2.8,2.2-5,5-5s5,2.2,5,5c0,44.2-14.9,87.6-42.1,122.4c-27.2,34.9-65.7,59.9-108.5,70.4     c-20.7,5.1-41.3,8.5-61.3,10.2C86.9,476,86.7,476,86.6,476z"/>

</g>

<g>

<g>

<path class="st0" d="M310.5,278h-33.3c-2.6,0-4.8-2-5-4.6l-2.5-35.6c-0.1-1.9,0.8-3.7,2.4-4.6c1.6-1,3.6-1,5.2,0      c5,3,10.7,4.7,16.6,4.7c5.9,0,11.6-1.6,16.5-4.7c1.6-1,3.6-1,5.2,0c1.6,1,2.5,2.8,2.4,4.6l-2.5,35.6      C315.3,276,313.1,278,310.5,278z M281.9,268h23.9l1.6-22.5c-8.7,3-18.5,3-27.1,0L281.9,268z"/>

</g>

<g>

<g>

<path class="st1" d="M293.8,247.8c-7.7,0-15.2-2.1-21.8-6.1c-12.5-7.7-20-21-20-35.6c0-23,18.7-41.8,41.8-41.8       c23,0,41.7,18.7,41.7,41.8c0,14.6-7.5,28-20,35.6C309.1,245.6,301.5,247.8,293.8,247.8z M293.8,174.3       c-17.5,0-31.8,14.2-31.8,31.8c0,11.1,5.7,21.3,15.2,27.1c5,3,10.7,4.7,16.6,4.7c5.9,0,11.6-1.6,16.5-4.7       c9.5-5.8,15.2-16,15.2-27.1C325.6,188.5,311.3,174.3,293.8,174.3z"/>

</g>

<g>

<path class="st1" d="M293.8,226.3c-11.2,0-20.3-9.1-20.3-20.3c0-1.5,0.2-2.9,0.5-4.3c2-9.2,10.3-15.9,19.8-15.9       c9.5,0,17.8,6.7,19.8,15.9c0.3,1.4,0.5,2.9,0.5,4.3C314.1,217.2,305,226.3,293.8,226.3z M293.8,195.8c-4.8,0-9,3.4-10,8.1       c-0.2,0.7-0.2,1.4-0.2,2.2c0,5.7,4.6,10.3,10.3,10.3c5.6,0,10.2-4.6,10.2-10.3c0-0.7-0.1-1.5-0.2-2.2       C302.8,199.1,298.6,195.8,293.8,195.8z"/>

</g>

</g>

<g>

<path class="st0" d="M293.8,226.3c-11.2,0-20.3-9.1-20.3-20.3c0-1.5,0.2-2.9,0.5-4.3c2-9.2,10.3-15.9,19.8-15.9      c9.5,0,17.8,6.7,19.8,15.9c0.3,1.4,0.5,2.9,0.5,4.3C314.1,217.2,305,226.3,293.8,226.3z M293.8,195.8c-4.8,0-9,3.4-10,8.1      c-0.2,0.7-0.2,1.4-0.2,2.2c0,5.7,4.6,10.3,10.3,10.3c5.6,0,10.2-4.6,10.2-10.3c0-0.7-0.1-1.5-0.2-2.2      C302.8,199.1,298.6,195.8,293.8,195.8z"/>

</g>

</g>

</g>

</g>

</svg>