<?xml version="1.0" ?>


<svg width="800px" height="800px" viewBox="0 0 512 512" version="1.1" xml:space="preserve" xmlns="http://www.w3.org/2000/svg" xmlns:xlink="http://www.w3.org/1999/xlink">

<style type="text/css">
	.st0{fill:#16ADE1;}
	.st1{fill:#1B3954;}
</style>

<g id="Layer_1"/>

<g id="Layer_2">

<g>

<g>

<path class="st0" d="M283.2,260.8c-1.3,0-2.6-0.5-3.5-1.5l-14.2-14.2c-7.7-7.7-20.2-7.7-27.9,0c-2,2-5.1,2-7.1,0     c-1-1-1.5-2.3-1.5-3.5s0.5-2.6,1.5-3.5l32.1-32.1c10.4-10.4,17.1-24.2,18.7-38.9l9.6-86c0.2-1.9,1.5-3.5,3.3-4.2     c1.8-0.6,3.8-0.2,5.2,1.2l129.7,129.7c1.4,1.4,1.8,3.4,1.2,5.2c-0.6,1.8-2.3,3.1-4.2,3.3l-86,9.6c-14.6,1.6-28.5,8.3-38.9,18.7     l-14.6,14.6C285.8,260.4,284.5,260.8,283.2,260.8z M253.3,229.5c7,0.4,13.9,3.3,19.3,8.6l10.7,10.7l11-11     c12-12,28-19.7,44.8-21.6l75.6-8.5l-115-115l-8.5,75.6c-1.9,16.9-9.6,32.8-21.6,44.8L253.3,229.5z"/>

</g>

<g>

<path class="st1" d="M460.4,244.1c-5.7,0-11.3-2.2-15.6-6.5l-175-175c-8.6-8.6-8.6-22.6,0-31.3c4.2-4.2,9.7-6.5,15.6-6.5     c5.9,0,11.5,2.3,15.6,6.5l175,175c8.6,8.6,8.6,22.6,0,31.3C471.7,242,466,244.1,460.4,244.1z M285.3,34.9c-3.2,0-6.3,1.3-8.6,3.5     c-4.7,4.7-4.7,12.4,0,17.1l175,175c4.7,4.7,12.4,4.7,17.1,0c4.7-4.7,4.7-12.4,0-17.1l-175-175C291.6,36.2,288.6,34.9,285.3,34.9z     "/>

</g>

<g>

<g>

<path class="st0" d="M132.8,347.9c-1.3,0-2.6-0.5-3.5-1.5L113,330.1c-0.9-0.9-1.5-2.2-1.5-3.5s0.5-2.6,1.5-3.5l16.3-16.3      c2-2,5.1-2,7.1,0l16.3,16.3c2,2,2,5.1,0,7.1l-16.3,16.3C135.4,347.3,134.2,347.9,132.8,347.9z M123.7,326.6l9.2,9.2l9.2-9.2      l-9.2-9.2L123.7,326.6z"/>

</g>

<g>

<path class="st0" d="M164.2,316.5c-1.3,0-2.6-0.5-3.5-1.5l-16.3-16.3c-2-2-2-5.1,0-7.1l16.3-16.3c0.9-0.9,2.2-1.5,3.5-1.5      s2.6,0.5,3.5,1.5l16.3,16.3c0.9,0.9,1.5,2.2,1.5,3.5s-0.5,2.6-1.5,3.5L167.8,315C166.8,316,165.5,316.5,164.2,316.5z M155,295.2      l9.2,9.2l9.2-9.2l-9.2-9.2L155,295.2z"/>

</g>

<g>

<path class="st0" d="M195.6,285.1c-1.3,0-2.6-0.5-3.5-1.5l-16.3-16.3c-0.9-0.9-1.5-2.2-1.5-3.5s0.5-2.6,1.5-3.5l16.3-16.3      c2-2,5.1-2,7.1,0l16.3,16.3c0.9,0.9,1.5,2.2,1.5,3.5s-0.5,2.6-1.5,3.5l-16.3,16.3C198.2,284.6,196.9,285.1,195.6,285.1z       M186.4,263.9l9.2,9.2l9.2-9.2l-9.2-9.2L186.4,263.9z"/>

</g>

</g>

<g>

<path class="st1" d="M219.4,487.1c-9.8,0-18.9-3.8-25.9-10.7l-58.7-58.7c-1.1-1.1-2-2.4-2.7-3.7l-30,30c-0.9,0.9-2.2,1.5-3.5,1.5     s-2.6-0.5-3.5-1.5l-31.7-31.7c-2-2-2-5.1,0-7.1l167.1-167.1c11.6-11.6,30.4-11.6,42,0l0,0l79.6,79.6c14.3,14.3,14.3,37.5,0,51.7     l-107,107C238.3,483.3,229.1,487.1,219.4,487.1z M141.8,404.3c-1.7,1.8-1.6,4.6,0.1,6.3l58.7,58.7c5,5,11.7,7.8,18.8,7.8     c7.1,0,13.8-2.8,18.8-7.8l107-107c10.4-10.4,10.4-27.2,0-37.6l-79.6-79.6c-7.7-7.7-20.2-7.7-27.9,0L74,408.8l24.6,24.6l36.1-36.1     c0.1-0.1,0.1-0.1,0.2-0.2l24.9-24.9c0,0,0.1-0.1,0.1-0.1l83.4-83.4c4.5-4.5,11.9-4.5,16.5,0l46.7,46.7c2.2,2.2,3.4,5.1,3.4,8.2     c0,3.1-1.2,6-3.4,8.2l-78.8,78.8c-4.5,4.5-11.9,4.5-16.5,0l-47.8-47.8L141.8,404.3z M170.4,375.8l47.8,47.8     c0.6,0.6,1.7,0.6,2.3,0l78.8-78.8c0.4-0.4,0.5-0.9,0.5-1.2s-0.1-0.7-0.5-1.2l-46.7-46.7c-0.6-0.6-1.7-0.6-2.3,0L170.4,375.8z"/>

</g>

<g>

<path class="st0" d="M41.6,422.2l43.6,43.6l15.9-15.9l-43.6-43.6L41.6,422.2z M85.2,477.9c-1.3,0-2.6-0.5-3.5-1.5L31,425.8     c-2-2-2-5.1,0-7.1l22.9-22.9c2-2,5.1-2,7.1,0l50.7,50.7c2,2,2,5.1,0,7.1l-22.9,22.9C87.7,477.4,86.4,477.9,85.2,477.9z"/>

</g>

</g>

</g>

</svg>