<?xml version="1.0" ?>


<svg width="800px" height="800px" viewBox="0 0 512 512" version="1.1" xml:space="preserve" xmlns="http://www.w3.org/2000/svg" xmlns:xlink="http://www.w3.org/1999/xlink">

<style type="text/css">
	.st0{fill:#16ADE1;}
	.st1{fill:#1B3954;}
</style>

<g id="Layer_1"/>

<g id="Layer_2">

<g>

<g>

<path class="st0" d="M369.8,148.3h-35.5c-2.8,0-5-2.2-5-5v-94c0-1.4,0.6-2.7,1.6-3.7l17.8-16.5c1.9-1.8,4.9-1.8,6.8,0l17.8,16.5     c1,0.9,1.6,2.3,1.6,3.7v94C374.8,146,372.6,148.3,369.8,148.3z M339.3,138.3h25.5V51.4l-12.8-11.9l-12.8,11.9V138.3z"/>

</g>

<g>

<path class="st0" d="M369.8,79h-35.5c-2.8,0-5-2.2-5-5s2.2-5,5-5h35.5c2.8,0,5,2.2,5,5S372.6,79,369.8,79z"/>

</g>

<g>

<path class="st1" d="M291.8,484.3h-1.2c-36,0-65.3-29.3-65.3-65.3V241c0-30.5-24.8-55.3-55.3-55.3c-14.8,0-28.6,5.7-39.1,16.2     c-10.4,10.4-16.2,24.3-16.2,39.1v238.3c0,2.8-2.2,5-5,5s-5-2.2-5-5V241c0-17.4,6.8-33.8,19.1-46.1c12.3-12.3,28.7-19.1,46.1-19.1     c36,0,65.3,29.3,65.3,65.3v178c0,30.5,24.8,55.3,55.3,55.3h1.2c30.5,0,55.3-24.8,55.3-55.3v-79.3c0-2.8,2.2-5,5-5s5,2.2,5,5V419     C357.1,455,327.8,484.3,291.8,484.3z"/>

</g>

<g>

<path class="st0" d="M378.4,344.8h-52.6c-2.8,0-5-2.2-5-5v-42c0-2.8,2.2-5,5-5h52.6c2.8,0,5,2.2,5,5v42     C383.4,342.5,381.1,344.8,378.4,344.8z M330.8,334.8h42.6v-32h-42.6V334.8z"/>

</g>

<g>

<path class="st1" d="M378.4,303.5c-0.8,0-1.7-0.2-2.4-0.6c0,0-0.1,0-0.1-0.1h-47.5c0,0-0.1,0-0.1,0.1c-1.6,0.9-3.5,0.8-5.1-0.1     c-16.3-10.1-26.1-27.6-26.1-46.8V143.3c0-2.8,2.2-5,5-5h100c2.8,0,5,2.2,5,5v112.7c0,19.2-9.7,36.7-26.1,46.8     C380.2,303.2,379.3,303.5,378.4,303.5z M326.2,292.8h51.7c12-8.4,19.1-22,19.1-36.8V148.3h-90v107.7     C307.1,270.7,314.2,284.3,326.2,292.8z"/>

</g>

<g>

<path class="st1" d="M378.4,303.5c-0.8,0-1.7-0.2-2.4-0.6c0,0-0.1,0-0.1-0.1h-47.5c0,0-0.1,0-0.1,0.1c-1.6,0.9-3.5,0.8-5.1-0.1     c-16.3-10.1-26.1-27.6-26.1-46.8v-63.2c0-2.8,2.2-5,5-5h100c2.8,0,5,2.2,5,5v63.2c0,19.2-9.7,36.7-26.1,46.8     C380.2,303.2,379.3,303.5,378.4,303.5z M326.2,292.8h51.7c12-8.4,19.1-22,19.1-36.8v-58.2h-90v58.2     C307.1,270.7,314.2,284.3,326.2,292.8z"/>

</g>

</g>

</g>

</svg>