<?xml version="1.0" ?>


<svg width="800px" height="800px" viewBox="0 0 512 512" version="1.1" xml:space="preserve" xmlns="http://www.w3.org/2000/svg" xmlns:xlink="http://www.w3.org/1999/xlink">

<style type="text/css">
	.st0{fill:#16ADE1;}
	.st1{fill:#1B3954;}
</style>

<g id="Layer_1"/>

<g id="Layer_2">

<g>

<g>

<path class="st1" d="M213.9,391.6h-64.8c-1.7,0-3.3-0.9-4.3-2.4l-21.4-34.8H41c-2.8,0-5-2.2-5-5V162.5c0-2.8,2.2-5,5-5h82.4     l21.4-34.8c0.9-1.5,2.5-2.4,4.3-2.4h64.8c2.8,0,5,2.2,5,5v261.2C218.9,389.4,216.7,391.6,213.9,391.6z M151.9,381.6h57V130.4h-57     l-21.4,34.8c-0.9,1.5-2.5,2.4-4.3,2.4H46v176.9h80.2c1.7,0,3.3,0.9,4.3,2.4L151.9,381.6z"/>

</g>

<g>

<path class="st1" d="M310.3,433H242c-2.8,0-5-2.2-5-5V84c0-2.8,2.2-5,5-5h68.3c2.8,0,5,2.2,5,5v344     C315.3,430.8,313.1,433,310.3,433z M247,423h58.3V89H247V423z"/>

</g>

<g>

<g>

<path class="st0" d="M114,220.7H63.3c-2.8,0-5-2.2-5-5v-28c0-2.8,2.2-5,5-5H114c2.8,0,5,2.2,5,5v28      C119,218.4,116.8,220.7,114,220.7z M68.3,210.7H109v-18H68.3V210.7z"/>

</g>

<g>

<path class="st0" d="M114,275H63.3c-2.8,0-5-2.2-5-5v-28c0-2.8,2.2-5,5-5H114c2.8,0,5,2.2,5,5v28C119,272.8,116.8,275,114,275z       M68.3,265H109v-18H68.3V265z"/>

</g>

<g>

<path class="st0" d="M114,329.3H63.3c-2.8,0-5-2.2-5-5v-28c0-2.8,2.2-5,5-5H114c2.8,0,5,2.2,5,5v28      C119,327.1,116.8,329.3,114,329.3z M68.3,319.3H109v-18H68.3V319.3z"/>

</g>

</g>

<g>

<path class="st0" d="M342.8,309.8c-2.8,0-5-2.2-5-5s2.2-5,5-5c24.2,0,43.8-19.7,43.8-43.8s-19.7-43.8-43.8-43.8c-2.8,0-5-2.2-5-5     s2.2-5,5-5c29.7,0,53.8,24.2,53.8,53.8S372.5,309.8,342.8,309.8z"/>

</g>

<g>

<path class="st0" d="M342.8,389.2c-2.8,0-5-2.2-5-5s2.2-5,5-5c67.9,0,123.2-55.3,123.2-123.2s-55.3-123.2-123.2-123.2     c-2.8,0-5-2.2-5-5s2.2-5,5-5c73.4,0,133.2,59.7,133.2,133.2S416.3,389.2,342.8,389.2z"/>

</g>

</g>

</g>

</svg>