<?xml version="1.0" ?>


<svg width="800px" height="800px" viewBox="0 0 512 512" version="1.1" xml:space="preserve" xmlns="http://www.w3.org/2000/svg" xmlns:xlink="http://www.w3.org/1999/xlink">

<style type="text/css">
	.st0{fill:#16ADE1;}
	.st1{fill:#1B3954;}
</style>

<g id="Layer_1"/>

<g id="Layer_2">

<g>

<g>

<path class="st0" d="M446.4,111.7H443c-2.8,0-5-2.2-5-5V60.9c0-2.8,2.2-5,5-5h3.4c15.4,0,27.9,12.5,27.9,27.9     C474.3,99.2,461.7,111.7,446.4,111.7z M448,66v35.6c9.1-0.8,16.3-8.5,16.3-17.8C464.3,74.5,457.1,66.8,448,66z"/>

</g>

<g>

<path class="st1" d="M248.1,444.9H66.4c-15.8,0-28.7-12.9-28.7-28.7v-328c0-15.8,12.9-28.7,28.7-28.7h181.6     c15.8,0,28.7,12.9,28.7,28.7v328C276.8,432,263.9,444.9,248.1,444.9z M66.4,69.5c-10.3,0-18.7,8.4-18.7,18.7v328     c0,10.3,8.4,18.7,18.7,18.7h181.6c10.3,0,18.7-8.4,18.7-18.7v-328c0-10.3-8.4-18.7-18.7-18.7H66.4z"/>

</g>

<g>

<path class="st0" d="M252.8,367.7h-191c-2.8,0-5-2.2-5-5V88.2c0-5.3,4.4-9.7,9.7-9.7h181.6c5.3,0,9.7,4.4,9.7,9.7v274.5     C257.8,365.5,255.5,367.7,252.8,367.7z M66.8,357.7h181V88.5h-181V357.7z"/>

</g>

<g>

<g>

<path class="st0" d="M157.3,425.7c-13.4,0-24.3-10.9-24.3-24.3s10.9-24.3,24.3-24.3s24.3,10.9,24.3,24.3      S170.7,425.7,157.3,425.7z M157.3,387c-7.9,0-14.3,6.4-14.3,14.3s6.4,14.3,14.3,14.3s14.3-6.4,14.3-14.3S165.2,387,157.3,387z"/>

</g>

<g>

<g>

<path class="st1" d="M201.2,425.7c-0.9,0-1.7-0.2-2.5-0.7c-1.5-0.9-2.5-2.5-2.5-4.3v-38.8c0-1.8,1-3.4,2.5-4.3       c1.5-0.9,3.5-0.9,5,0l33.6,19.4c1.5,0.9,2.5,2.5,2.5,4.3s-1,3.4-2.5,4.3l-33.6,19.4C202.9,425.5,202,425.7,201.2,425.7z        M206.2,390.6v21.5l18.6-10.7L206.2,390.6z"/>

</g>

<g>

<path class="st1" d="M113.3,425.7c-0.9,0-1.7-0.2-2.5-0.7l-33.6-19.4c-1.5-0.9-2.5-2.5-2.5-4.3s1-3.4,2.5-4.3l33.6-19.4       c1.5-0.9,3.5-0.9,5,0c1.5,0.9,2.5,2.5,2.5,4.3v38.8c0,1.8-1,3.4-2.5,4.3C115.1,425.5,114.2,425.7,113.3,425.7z M89.7,401.3       l18.6,10.7v-21.5L89.7,401.3z"/>

</g>

</g>

</g>

<g>

<path class="st1" d="M344.8,279c-2.8,0-5-2.2-5-5V150.5c0-2.8,2.2-5,5-5s5,2.2,5,5V274C349.8,276.7,347.5,279,344.8,279z"/>

</g>

<g>

<path class="st1" d="M311.8,472.2h-94.3c-11.7,0-21.3-9.6-21.3-21.3v-11c0-2.8,2.2-5,5-5s5,2.2,5,5v11c0,6.2,5.1,11.3,11.3,11.3     h94.3c15.4,0,28-12.6,28-28V321.5c0-2.8,2.2-5,5-5s5,2.2,5,5v112.8C349.8,455.2,332.7,472.2,311.8,472.2z"/>

</g>

<g>

<path class="st1" d="M404.6,86.2c-2.6,0-4.8-2-5-4.7l-0.1-0.9c-0.1-1.4,0.4-2.7,1.3-3.7c0.9-1,2.3-1.6,3.6-1.6h0.1     c1.4,0,2.7,0.6,3.6,1.6s1.4,2.4,1.3,3.7l0,0.3c0,0.1,0,0.3,0,0.4C409.5,84,407.3,86.1,404.6,86.2     C404.6,86.2,404.6,86.2,404.6,86.2z"/>

</g>

<g>

<path class="st1" d="M437.1,155.5h-28.3c-2.6,0-4.8-2.1-5-4.7l-3.6-60.4c-0.2-2.6,1.8-5,4.4-5.3c2.6-0.3,5,1.5,5.5,4.1     c2.6,14.5,14.7,25.8,29.3,27.4c2.7,0.3,4.6,2.6,4.5,5.3l-1.8,28.9C441.9,153.4,439.7,155.5,437.1,155.5z M413.5,145.5h18.9     l1.2-19.7c-8.5-1.9-16.2-6.3-22-12.5L413.5,145.5z"/>

</g>

<g>

<g>

<path class="st1" d="M361.4,155.5h-33.3c-2.6,0-4.8-2-5-4.6l-2.5-35.6c-0.1-1.9,0.8-3.7,2.4-4.6c1.6-1,3.6-1,5.2,0      c5,3,10.7,4.7,16.6,4.7c5.9,0,11.6-1.6,16.5-4.7c1.6-1,3.6-1,5.2,0c1.6,1,2.5,2.8,2.4,4.6l-2.5,35.6      C366.2,153.4,364,155.5,361.4,155.5z M332.8,145.5h23.9l1.6-22.5c-8.7,3-18.5,3-27.1,0L332.8,145.5z"/>

</g>

<g>

<g>

<path class="st1" d="M344.8,125.2c-7.7,0-15.2-2.1-21.8-6.1c-12.5-7.7-20-21-20-35.6c0-23,18.7-41.8,41.8-41.8       c23,0,41.7,18.7,41.7,41.8c0,14.6-7.5,28-20,35.6C360,123.1,352.5,125.2,344.8,125.2z M344.8,51.7C327.2,51.7,313,66,313,83.5       c0,11.1,5.7,21.3,15.2,27.1c5,3,10.7,4.7,16.6,4.7c5.9,0,11.6-1.6,16.5-4.7c9.5-5.8,15.2-16,15.2-27.1       C376.5,66,362.3,51.7,344.8,51.7z"/>

</g>

<g>

<path class="st1" d="M344.8,103.7c-11.2,0-20.3-9.1-20.3-20.3c0-1.5,0.2-2.9,0.5-4.3c2-9.2,10.3-15.9,19.8-15.9       c9.5,0,17.8,6.7,19.8,15.9c0.3,1.4,0.5,2.9,0.5,4.3C365,94.6,355.9,103.7,344.8,103.7z M344.8,73.2c-4.8,0-9,3.4-10,8.1       c-0.2,0.7-0.2,1.4-0.2,2.2c0,5.7,4.6,10.3,10.3,10.3c5.6,0,10.2-4.6,10.2-10.3c0-0.7-0.1-1.5-0.2-2.2       C353.7,76.6,349.5,73.2,344.8,73.2z"/>

</g>

</g>

<g>

<path class="st0" d="M344.8,103.7c-11.2,0-20.3-9.1-20.3-20.3c0-1.5,0.2-2.9,0.5-4.3c2-9.2,10.3-15.9,19.8-15.9      c9.5,0,17.8,6.7,19.8,15.9c0.3,1.4,0.5,2.9,0.5,4.3C365,94.6,355.9,103.7,344.8,103.7z M344.8,73.2c-4.8,0-9,3.4-10,8.1      c-0.2,0.7-0.2,1.4-0.2,2.2c0,5.7,4.6,10.3,10.3,10.3c5.6,0,10.2-4.6,10.2-10.3c0-0.7-0.1-1.5-0.2-2.2      C353.7,76.6,349.5,73.2,344.8,73.2z"/>

</g>

</g>

<g>

<path class="st1" d="M443,126.8c-1.6,0-3.2-0.1-4.7-0.3c-19-2.1-34.7-16.7-38.1-35.5c0-0.2-0.1-0.5-0.1-0.7l-0.5-8.8     c0-0.2,0-0.3,0-0.5c0-0.3,0-0.6,0.1-0.9l0-0.3c1.8-22.5,20.8-40.1,43.4-40.1c2.8,0,5,2.2,5,5v77C448,124.5,445.8,126.8,443,126.8     z M410.1,89.5c2.6,13.9,14,24.8,27.9,26.9V50.2c-15.1,2.3-27.2,14.9-28.4,30.5l0,0.3c0,0.1,0,0.2,0,0.3L410.1,89.5z"/>

</g>

<g>

<path class="st1" d="M405.1,95.1c-2.4,0-4.5-1.7-4.9-4.1c-0.4-2.5-0.7-5.1-0.7-7.7c0-0.8,0-1.6,0.1-2.4c0.2-2.6,2.3-4.7,5-4.7     c0,0,0,0,0,0c2.6,0,4.8,2.1,5,4.7l0.5,8.9c0.2,2.6-1.8,5-4.4,5.3C405.5,95.1,405.3,95.1,405.1,95.1z"/>

</g>

<g>

<path class="st1" d="M403.6,302.7h-24.4c-2.8,0-5-2.2-5-5s2.2-5,5-5h24.4c7.4,0,13.4-6,13.4-13.4V150.5c0-2.8,2.2-5,5-5     s5,2.2,5,5v128.9C427,292.2,416.5,302.7,403.6,302.7z"/>

</g>

<g>

<path class="st0" d="M352.4,326.5h-15.4c-6.3,0-11.4-5.1-11.4-11.4v-34.6c0-6.3,5.1-11.4,11.4-11.4h15.4     c6.3,0,11.4,5.1,11.4,11.4v1.6h12.7c4.2,0,7.6,3.4,7.6,7.6v16.2c0,4.2-3.4,7.6-7.6,7.6h-12.7v1.6     C363.9,321.3,358.7,326.5,352.4,326.5z M337.1,279c-0.8,0-1.4,0.6-1.4,1.4V315c0,0.8,0.6,1.4,1.4,1.4h15.4c0.8,0,1.4-0.6,1.4-1.4     v-6.6c0-2.8,2.2-5,5-5h15.3V292h-15.3c-2.8,0-5-2.2-5-5v-6.6c0-0.8-0.6-1.4-1.4-1.4H337.1z"/>

</g>

</g>

</g>

</svg>