<?xml version="1.0" ?>


<svg width="800px" height="800px" viewBox="0 0 512 512" version="1.1" xml:space="preserve" xmlns="http://www.w3.org/2000/svg" xmlns:xlink="http://www.w3.org/1999/xlink">

<style type="text/css">
	.st0{fill:#16ADE1;}
	.st1{fill:#1B3954;}
</style>

<g id="Layer_1"/>

<g id="Layer_2">

<g>

<g>

<path class="st1" d="M280.2,476.4c-63,0-114.2-51.2-114.2-114.2V192.9c0-2.8,2.2-5,5-5h78.3c2.8,0,5,2.2,5,5v18.3     c0,1.4-0.6,2.7-1.6,3.7c-1,0.9-2.4,1.4-3.8,1.3c-0.4,0-0.7,0-1.1,0c-7.2,0-13.1,5.9-13.1,13.1c0,7.2,5.9,13.1,13.1,13.1     c0.4,0,0.7,0,1.1,0c1.4-0.1,2.8,0.3,3.8,1.3c1,0.9,1.6,2.3,1.6,3.7v19c0,1.4-0.6,2.7-1.6,3.7c-1,0.9-2.4,1.4-3.8,1.3     c-0.4,0-0.7,0-1.1,0c-7.2,0-13.1,5.9-13.1,13.1c0,7.2,5.9,13.1,13.1,13.1c0.4,0,0.7,0,1.1,0c1.4-0.1,2.8,0.4,3.8,1.3     c1,0.9,1.6,2.3,1.6,3.7v19c0,1.4-0.6,2.7-1.6,3.7c-1,0.9-2.4,1.4-3.8,1.3c-0.4,0-0.7,0-1.1,0c-7.2,0-13.1,5.9-13.1,13.1     c0,7.2,5.9,13.1,13.1,13.1c0.4,0,0.7,0,1.1,0c1.4-0.1,2.8,0.3,3.8,1.3c1,0.9,1.6,2.3,1.6,3.7v5c0,14.2,11.6,25.8,25.8,25.8     c14.2,0,25.8-11.6,25.8-25.8V246.8c0-2.2,1.4-4.1,3.5-4.8c2.1-0.7,4.4,0.1,5.6,1.9c18.4,26.6,45.4,46.9,75.8,57.3     c2,0.7,3.4,2.6,3.4,4.7v56.2C394.4,425.2,343.2,476.4,280.2,476.4z M176.1,197.9v164.4c0,57.4,46.7,104.2,104.2,104.2     s104.2-46.7,104.2-104.2v-52.7c-26.4-9.7-50.2-26.4-68.3-48v100.7c0,19.8-16.1,35.8-35.8,35.8s-35.8-16.1-35.8-35.8v-0.2     c-11.1-1.7-19.6-11.3-19.6-22.8c0-11.5,8.5-21.1,19.6-22.8v-9.4c-11.1-1.7-19.6-11.3-19.6-22.8c0-11.5,8.5-21.1,19.6-22.8v-9.4     c-11.1-1.7-19.6-11.3-19.6-22.8s8.5-21.1,19.6-22.8v-8.5H176.1z"/>

</g>

<g>

<path class="st1" d="M229.8,197.9h-39.2c-2.8,0-5-2.2-5-5v-36.6L99,102.6c-1.5-0.9-2.4-2.5-2.4-4.3V79.5L69.5,61.6     c-2.3-1.5-2.9-4.5-1.5-6.8l10.5-16.9c0.7-1.1,1.8-1.9,3.1-2.2c1.3-0.3,2.6-0.1,3.8,0.6l147.1,91.1c1.5,0.9,2.4,2.5,2.4,4.3v61.2     C234.8,195.6,232.6,197.9,229.8,197.9z M195.7,187.9h29.2v-53.4l-140.5-87L79.1,56l25.3,16.7c1.4,0.9,2.2,2.5,2.2,4.2v18.7     l86.7,53.7c1.5,0.9,2.4,2.5,2.4,4.3V187.9z"/>

</g>

<g>

<path class="st0" d="M426.2,318.7c-0.6,0-1.2,0-1.7-0.1c-12.5-1.2-24.8-3.8-36.7-7.9c-32.5-11.1-61.2-32.8-80.8-61.1     c-15.8-22.7-25.4-49.2-28-76.6c-0.5-5.2,1.2-10.4,4.7-14.2c3.5-3.8,8.4-6,13.6-6H334c9.2,0,17.1,6.9,18.2,16     c2.9,23.3,15.4,44.9,34.2,59.2c1.8,1.4,3.7,2.7,5.6,3.9c11.2,7.2,23.5,11.7,36.6,13.3c9.1,1.1,16,9,16,18.2v36.8     c0,5.1-2.2,10.1-6,13.6C435.3,317,430.8,318.7,426.2,318.7z M297.2,162.8c-2.4,0-4.6,1-6.2,2.7c-1.6,1.8-2.4,4.1-2.2,6.6     c2.4,25.7,11.5,50.6,26.3,71.9c18.4,26.6,45.4,46.9,75.8,57.3c11.1,3.8,22.7,6.3,34.4,7.4c2.4,0.2,4.8-0.5,6.6-2.2     c1.8-1.6,2.7-3.8,2.7-6.2v-36.8c0-4.2-3.1-7.8-7.3-8.3c-14.6-1.8-28.3-6.8-40.8-14.8c-2.2-1.4-4.3-2.9-6.2-4.4     c-21-15.9-34.9-40-38.1-65.9c-0.5-4.1-4.1-7.3-8.3-7.3H297.2z"/>

</g>

<g>

<path class="st0" d="M247.9,252.3c-12.7,0-23.1-10.4-23.1-23.1s10.4-23.1,23.1-23.1c0.6,0,1.3,0,1.9,0.1     c11.9,1,21.2,11.1,21.2,23s-9.3,22-21.2,23C249.2,252.3,248.5,252.3,247.9,252.3z M247.9,216.1c-7.2,0-13.1,5.9-13.1,13.1     s5.9,13.1,13.1,13.1c0.4,0,0.7,0,1.1,0c6.8-0.6,12-6.3,12-13c0-6.8-5.3-12.5-12-13C248.6,216.2,248.3,216.1,247.9,216.1z"/>

</g>

<g>

<path class="st0" d="M247.9,307.3c-12.7,0-23.1-10.4-23.1-23.1c0-12.7,10.4-23.1,23.1-23.1c0.6,0,1.3,0,1.9,0.1     c11.9,1,21.2,11.1,21.2,23c0,11.9-9.3,22-21.2,23C249.2,307.3,248.5,307.3,247.9,307.3z M247.9,271.2c-7.2,0-13.1,5.9-13.1,13.1     c0,7.2,5.9,13.1,13.1,13.1c0.4,0,0.7,0,1.1,0c6.7-0.6,12-6.3,12-13c0-6.8-5.3-12.5-12-13C248.6,271.2,248.3,271.2,247.9,271.2z"/>

</g>

<g>

<path class="st0" d="M247.9,362.4c-12.7,0-23.1-10.4-23.1-23.1c0-12.7,10.4-23.1,23.1-23.1c0.6,0,1.3,0,1.9,0.1     c11.9,1,21.2,11.1,21.2,23c0,11.9-9.3,22-21.2,23C249.2,362.3,248.6,362.4,247.9,362.4z M247.9,326.2c-7.2,0-13.1,5.9-13.1,13.1     c0,7.2,5.9,13.1,13.1,13.1c0.4,0,0.7,0,1.1,0c6.8-0.6,12-6.3,12-13c0-6.8-5.3-12.5-12-13C248.6,326.2,248.3,326.2,247.9,326.2z"/>

</g>

</g>

</g>

</svg>