<?xml version="1.0" ?>


<svg width="800px" height="800px" viewBox="0 0 512 512" version="1.1" xml:space="preserve" xmlns="http://www.w3.org/2000/svg" xmlns:xlink="http://www.w3.org/1999/xlink">

<style type="text/css">
	.st0{fill:#16ADE1;}
	.st1{fill:#1B3954;}
</style>

<g id="Layer_1"/>

<g id="Layer_2">

<g>

<g>

<g>

<path class="st1" d="M399.3,450.1c-2.8,0-5-2.2-5-5V293.4c0-1-0.1-2-0.3-2.9c-0.3-1.5,0-3,1-4.2s2.4-1.9,3.9-1.9h0.4      c0.5,0,1,0,1.5,0c11.4,0.2,22.5,2.7,32.8,7.4c29.5,13.4,48.5,43,48.5,75.4C482.2,413,445,450.1,399.3,450.1z M404.3,294.6v145.3      c37.8-2.6,67.8-34.2,67.8-72.7c0-28.5-16.8-54.5-42.7-66.3C421.5,297.3,413.1,295.2,404.3,294.6z"/>

</g>

<g>

<path class="st0" d="M380.6,476c-13.1,0-23.7-10.6-23.7-23.7V293.4c0-13.1,10.6-23.7,23.7-23.7c6.3,0,12.3,2.5,16.7,6.9      c3.2,3.2,5.5,7.3,6.4,11.8c0.4,1.6,0.5,3.3,0.5,5v158.9C404.3,465.4,393.7,476,380.6,476z M380.6,279.7      c-7.5,0-13.7,6.1-13.7,13.7v158.9c0,7.5,6.1,13.7,13.7,13.7c7.5,0,13.7-6.1,13.7-13.7V293.4c0-1-0.1-2-0.3-2.9      c-0.6-2.6-1.8-4.9-3.7-6.8C387.7,281.1,384.3,279.7,380.6,279.7z"/>

</g>

</g>

<g>

<g>

<path class="st1" d="M112.7,450.1c-45.7,0-82.8-37.2-82.8-82.8c0-32.4,19-62,48.5-75.4c10.4-4.7,21.4-7.2,32.8-7.4      c0.5,0,1,0,1.5,0h0.4c1.5,0,2.9,0.7,3.9,1.9s1.3,2.7,1,4.2c-0.2,0.9-0.3,1.9-0.3,2.9v151.7C117.7,447.9,115.4,450.1,112.7,450.1      z M107.7,294.6c-8.8,0.6-17.2,2.7-25.2,6.3c-25.9,11.8-42.7,37.8-42.7,66.3c0,38.5,30,70.1,67.8,72.7V294.6z"/>

</g>

<g>

<path class="st0" d="M131.4,476c-13.1,0-23.7-10.6-23.7-23.7V293.4c0-1.7,0.2-3.4,0.5-5c0.9-4.4,3.2-8.5,6.4-11.7      c4.5-4.5,10.4-6.9,16.7-6.9c13.1,0,23.7,10.6,23.7,23.7v158.9C155,465.4,144.4,476,131.4,476z M131.4,279.7      c-3.7,0-7.1,1.4-9.7,4c-1.9,1.9-3.2,4.2-3.7,6.8c-0.2,1-0.3,1.9-0.3,2.9v158.9c0,7.5,6.1,13.7,13.7,13.7      c7.5,0,13.7-6.1,13.7-13.7V293.4C145,285.8,138.9,279.7,131.4,279.7z"/>

</g>

</g>

<g>

<path class="st1" d="M431.6,301.4c-0.7,0-1.4-0.1-2.1-0.4c-9.1-4.1-18.8-6.3-28.9-6.5c-2.7,0-4.9-2.3-4.9-5v-51.3     c0-33.4-12-65.8-33.8-91.1c-0.9-1-1.3-2.3-1.2-3.6c0.1-1.3,0.7-2.6,1.7-3.4l23.4-20.1c1-0.9,2.3-1.3,3.6-1.2     c1.3,0.1,2.6,0.7,3.4,1.7c28.2,32.7,43.7,74.6,43.7,117.8v58.2c0,1.7-0.9,3.3-2.3,4.2C433.5,301.1,432.5,301.4,431.6,301.4z      M405.7,284.7c7.2,0.5,14.1,2,20.9,4.3v-50.8c0-39.2-13.5-77.1-38.1-107.4l-15.8,13.6c21.3,26.5,33,59.6,33,93.8V284.7z"/>

</g>

<g>

<path class="st1" d="M80.4,301.4c-0.9,0-1.9-0.3-2.7-0.8c-1.4-0.9-2.3-2.5-2.3-4.2v-58.2c0-43.2,15.5-85.1,43.7-117.8     c0.9-1,2.1-1.6,3.4-1.7c1.3-0.1,2.6,0.3,3.6,1.2l23.4,20.1c1,0.9,1.6,2.1,1.7,3.4c0.1,1.3-0.3,2.6-1.2,3.6     c-21.8,25.3-33.8,57.7-33.8,91.1v51.3c0,2.7-2.2,5-4.9,5c-10.1,0.2-19.8,2.4-28.9,6.5C81.8,301.2,81.1,301.4,80.4,301.4z      M123.5,130.8C98.9,161.1,85.4,199,85.4,238.2V289c6.7-2.3,13.7-3.8,20.9-4.3v-46.5c0-34.2,11.7-67.3,33-93.8L123.5,130.8z"/>

</g>

<g>

<path class="st0" d="M349.3,162.9c-1.4,0-2.8-0.6-3.8-1.7C323,135,290.4,120.1,256,120.1s-67,15-89.5,41.1     c-1.8,2.1-5,2.3-7.1,0.5l-56.1-48.3c-2.1-1.8-2.3-5-0.5-7.1C141.2,61.6,197.1,36,256,36s114.8,25.6,153.2,70.3     c1.8,2.1,1.6,5.2-0.5,7.1l-56.1,48.3C351.6,162.5,350.5,162.9,349.3,162.9z M256,110.1c35.7,0,69.6,14.8,93.8,40.8l48.6-41.8     C361.9,68.9,310.3,46,256,46s-105.9,22.9-142.3,63.1l48.6,41.8C186.4,124.9,220.3,110.1,256,110.1z"/>

</g>

<g>

<path class="st1" d="M226.9,70c-2.4,0-4.5-1.7-4.9-4.2c-0.5-2.7,1.4-5.3,4.1-5.8c19.1-3.2,39-3.3,58.1-0.3c2.7,0.4,4.6,3,4.2,5.7     c-0.4,2.7-3,4.6-5.7,4.2c-18.1-2.9-36.8-2.8-54.9,0.3C227.5,70,227.2,70,226.9,70z"/>

</g>

</g>

</g>

</svg>