<?xml version="1.0" ?>


<svg width="800px" height="800px" viewBox="0 0 512 512" version="1.1" xml:space="preserve" xmlns="http://www.w3.org/2000/svg" xmlns:xlink="http://www.w3.org/1999/xlink">

<style type="text/css">
	.st0{fill:#16ADE1;}
	.st1{fill:#1B3954;}
</style>

<g id="Layer_1"/>

<g id="Layer_2">

<g>

<g>

<g>

<path class="st1" d="M351.8,476H160.3c-10.1,0-18.3-8.2-18.3-18.3V54.3c0-10.1,8.2-18.3,18.3-18.3h191.5      c10.1,0,18.3,8.2,18.3,18.3v403.5C370,467.8,361.8,476,351.8,476z M160.3,46c-4.5,0-8.3,3.7-8.3,8.3v403.5      c0,4.5,3.7,8.3,8.3,8.3h191.5c4.5,0,8.3-3.7,8.3-8.3V54.3c0-4.5-3.7-8.3-8.3-8.3H160.3z"/>

</g>

<g>

<g>

<g>

<path class="st0" d="M256,155.9c-16,0-29-13-29-29s13-29,29-29s29,13,29,29S272,155.9,256,155.9z M256,107.9        c-10.5,0-19,8.5-19,19s8.5,19,19,19s19-8.5,19-19S266.5,107.9,256,107.9z"/>

</g>

</g>

<g>

<path class="st1" d="M256,187.8c-33.6,0-60.9-27.3-60.9-60.9S222.4,66,256,66s60.9,27.3,60.9,60.9S289.6,187.8,256,187.8z        M256,76c-28.1,0-50.9,22.8-50.9,50.9s22.8,50.9,50.9,50.9s50.9-22.8,50.9-50.9S284.1,76,256,76z"/>

</g>

<g>

<path class="st0" d="M256,285c-16,0-29-13-29-29s13-29,29-29s29,13,29,29S272,285,256,285z M256,237c-10.5,0-19,8.5-19,19       s8.5,19,19,19s19-8.5,19-19S266.5,237,256,237z"/>

</g>

<g>

<path class="st1" d="M256,316.9c-33.6,0-60.9-27.3-60.9-60.9s27.3-60.9,60.9-60.9s60.9,27.3,60.9,60.9S289.6,316.9,256,316.9z        M256,205.1c-28.1,0-50.9,22.8-50.9,50.9s22.8,50.9,50.9,50.9s50.9-22.8,50.9-50.9S284.1,205.1,256,205.1z"/>

</g>

<g>

<path class="st0" d="M256,414.1c-16,0-29-13-29-29s13-29,29-29s29,13,29,29S272,414.1,256,414.1z M256,366.1       c-10.5,0-19,8.5-19,19s8.5,19,19,19s19-8.5,19-19S266.5,366.1,256,366.1z"/>

</g>

<g>

<path class="st1" d="M256,446c-33.6,0-60.9-27.3-60.9-60.9s27.3-60.9,60.9-60.9s60.9,27.3,60.9,60.9S289.6,446,256,446z        M256,334.2c-28.1,0-50.9,22.8-50.9,50.9S227.9,436,256,436s50.9-22.8,50.9-50.9S284.1,334.2,256,334.2z"/>

</g>

</g>

<g>

<g>

<g>

<g>

<path class="st0" d="M404.7,168.2c-2.8,0-5-2.2-5-5s2.2-5,5-5c17.3,0,31.3-14,31.3-31.3s-14-31.3-31.3-31.3c-2.8,0-5-2.2-5-5         s2.2-5,5-5c22.8,0,41.3,18.5,41.3,41.3S427.5,168.2,404.7,168.2z"/>

</g>

<g>

<path class="st0" d="M404.7,297.3c-2.8,0-5-2.2-5-5s2.2-5,5-5c17.3,0,31.3-14,31.3-31.3s-14-31.3-31.3-31.3c-2.8,0-5-2.2-5-5         s2.2-5,5-5c22.8,0,41.3,18.5,41.3,41.3S427.5,297.3,404.7,297.3z"/>

</g>

<g>

<path class="st0" d="M404.7,426.4c-2.8,0-5-2.2-5-5s2.2-5,5-5c17.3,0,31.3-14,31.3-31.3s-14-31.3-31.3-31.3c-2.8,0-5-2.2-5-5         s2.2-5,5-5c22.8,0,41.3,18.5,41.3,41.3S427.5,426.4,404.7,426.4z"/>

</g>

</g>

<g>

<g>

<path class="st0" d="M107.3,168.2c-22.8,0-41.3-18.5-41.3-41.3s18.5-41.3,41.3-41.3c2.8,0,5,2.2,5,5s-2.2,5-5,5         c-17.3,0-31.3,14-31.3,31.3s14,31.3,31.3,31.3c2.8,0,5,2.2,5,5S110,168.2,107.3,168.2z"/>

</g>

<g>

<path class="st0" d="M107.3,297.3C84.5,297.3,66,278.8,66,256s18.5-41.3,41.3-41.3c2.8,0,5,2.2,5,5s-2.2,5-5,5         C90,224.7,76,238.7,76,256s14,31.3,31.3,31.3c2.8,0,5,2.2,5,5S110,297.3,107.3,297.3z"/>

</g>

<g>

<path class="st0" d="M107.3,426.4c-22.8,0-41.3-18.5-41.3-41.3s18.5-41.3,41.3-41.3c2.8,0,5,2.2,5,5s-2.2,5-5,5         c-17.3,0-31.3,14-31.3,31.3s14,31.3,31.3,31.3c2.8,0,5,2.2,5,5S110,426.4,107.3,426.4z"/>

</g>

</g>

</g>

</g>

</g>

<g>

<path class="st1" d="M365,437.9h-19.8c-2.8,0-5-2.2-5-5s2.2-5,5-5H365c2.8,0,5,2.2,5,5S367.8,437.9,365,437.9z"/>

</g>

<g>

<path class="st1" d="M323.3,437.3c-1.3,0-2.6-0.5-3.5-1.5c-0.9-0.9-1.5-2.2-1.5-3.5c0-0.3,0-0.7,0.1-1c0.1-0.3,0.2-0.6,0.3-0.9     c0.1-0.3,0.3-0.6,0.5-0.9c0.2-0.3,0.4-0.5,0.6-0.8c0.9-0.9,2.2-1.5,3.5-1.5c1.3,0,2.6,0.5,3.5,1.5c0.2,0.2,0.4,0.5,0.6,0.8     c0.2,0.3,0.3,0.6,0.5,0.9c0.1,0.3,0.2,0.6,0.3,0.9c0.1,0.3,0.1,0.6,0.1,1c0,1.3-0.5,2.6-1.5,3.5     C325.9,436.7,324.6,437.3,323.3,437.3z"/>

</g>

</g>

</g>

</svg>