<?xml version="1.0" ?>


<svg width="800px" height="800px" viewBox="0 0 512 512" version="1.1" xml:space="preserve" xmlns="http://www.w3.org/2000/svg" xmlns:xlink="http://www.w3.org/1999/xlink">

<style type="text/css">
	.st0{fill:#16ADE1;}
	.st1{fill:#1B3954;}
</style>

<g id="Layer_1"/>

<g id="Layer_2">

<g>

<g>

<path class="st0" d="M307.7,335.2c-0.3,0-0.7,0-1-0.1c-2.7-0.5-4.5-3.2-3.9-5.9l46.2-232.4c0.5-2.3,2.5-4,4.9-4s4.4,1.7,4.9,4     L381.2,209c0.5,2.7-1.2,5.3-3.9,5.9c-2.7,0.5-5.3-1.2-5.9-3.9L354,123.4l-41.3,207.8C312.2,333.5,310.1,335.2,307.7,335.2z"/>

</g>

<g>

<path class="st0" d="M204.3,335.2c-2.3,0-4.4-1.6-4.9-4L158,123.4L140.6,211c-0.5,2.7-3.2,4.5-5.9,3.9c-2.7-0.5-4.5-3.2-3.9-5.9     l22.3-112.2c0.5-2.3,2.5-4,4.9-4l0,0c2.4,0,4.4,1.7,4.9,4l46.2,232.4c0.5,2.7-1.2,5.3-3.9,5.9     C204.9,335.1,204.6,335.2,204.3,335.2z"/>

</g>

<g>

<path class="st0" d="M302.2,335.2c-2.3,0-4.4-1.6-4.9-4L256,123.4l-41.3,207.8c-0.5,2.7-3.2,4.5-5.9,3.9     c-2.7-0.5-4.5-3.2-3.9-5.9l46.2-232.5c0.5-2.3,2.5-4,4.9-4s4.4,1.7,4.9,4l46.2,232.5c0.5,2.7-1.2,5.3-3.9,5.9     C302.9,335.2,302.6,335.2,302.2,335.2z"/>

</g>

<g>

<path class="st1" d="M306.3,335.2H205.7c-0.5,0-1,0-1.4,0l-0.1,0c-4.1-0.1-8.1-0.5-12.1-1.4c-29.4-5.9-51.4-30-54.6-59.9     L118.7,98.3c-0.2-1.4,0.3-2.8,1.3-3.9c0.9-1.1,2.3-1.7,3.7-1.7h264.6c1.4,0,2.8,0.6,3.7,1.7c0.9,1.1,1.4,2.5,1.3,3.9l-18.8,175.6     c-3.2,29.9-25.2,54-54.6,59.9c-3.9,0.8-7.9,1.3-12,1.3l-0.1,0C307.2,335.2,306.8,335.2,306.3,335.2z M129.3,102.8l18.2,170.1     c2.7,25.5,21.5,46.1,46.6,51.2c3.4,0.7,6.8,1.1,10.3,1.2l0.1,0c0.4,0,0.8,0,1.2,0h100.6c0.4,0,0.8,0,1.2,0l0.1,0     c3.5-0.1,6.9-0.5,10.2-1.1c25.2-5.1,43.9-25.6,46.7-51.2l18.2-170.1H129.3z"/>

</g>

<g>

<path class="st1" d="M324.6,435.4H187.4c-1.4,0-2.7-0.6-3.6-1.6c-0.9-1-1.4-2.3-1.4-3.7l5.7-101.5c0.1-1.5,0.8-2.8,1.9-3.7     s2.6-1.2,4.1-0.9c3.8,0.8,7.7,1.2,11.6,1.2h100.6c3.9,0,7.8-0.4,11.6-1.2c1.4-0.3,2.9,0,4.1,0.9c1.2,0.9,1.9,2.2,1.9,3.7     l5.7,101.5c0.1,1.4-0.4,2.7-1.4,3.7C327.3,434.8,326,435.4,324.6,435.4z M192.7,425.4h126.7l-5.1-90.6c-2.6,0.3-5.3,0.5-7.9,0.5     H205.7c-2.7,0-5.3-0.2-7.9-0.5L192.7,425.4z"/>

</g>

<g>

<path class="st0" d="M346.9,476H165.1c-14,0-25.3-11.4-25.3-25.3c0-14,11.4-25.3,25.3-25.3h181.8c14,0,25.3,11.4,25.3,25.3     C372.2,464.6,360.8,476,346.9,476z M165.1,435.4c-8.4,0-15.3,6.9-15.3,15.3s6.9,15.3,15.3,15.3h181.8c8.4,0,15.3-6.9,15.3-15.3     s-6.9-15.3-15.3-15.3H165.1z"/>

</g>

<g>

<path class="st1" d="M397.2,102.8H114.8c-18.4,0-33.4-15-33.4-33.4c0-8.9,3.5-17.3,9.8-23.6c6.3-6.3,14.7-9.8,23.6-9.8h282.4     c18.4,0,33.4,15,33.4,33.4c0,8.9-3.5,17.3-9.8,23.6C414.5,99.3,406.1,102.8,397.2,102.8z M114.8,46c-6.2,0-12.1,2.4-16.5,6.8     c-4.4,4.4-6.9,10.3-6.9,16.5c0,12.9,10.5,23.4,23.4,23.4h282.4c6.2,0,12.1-2.4,16.5-6.8c4.4-4.4,6.9-10.3,6.9-16.5     c0-12.9-10.5-23.4-23.4-23.4H114.8z"/>

</g>

</g>

</g>

</svg>