<?xml version="1.0" ?>


<svg width="800px" height="800px" viewBox="0 0 512 512" version="1.1" xml:space="preserve" xmlns="http://www.w3.org/2000/svg" xmlns:xlink="http://www.w3.org/1999/xlink">

<style type="text/css">
	.st0{fill:#16ADE1;}
	.st1{fill:#1B3954;}
</style>

<g id="Layer_1"/>

<g id="Layer_2">

<g>

<g>

<path class="st1" d="M128.8,425.7H41c-2.8,0-5-2.2-5-5V388c0-2.8,2.2-5,5-5h87.8c2.8,0,5,2.2,5,5v32.7     C133.8,423.4,131.5,425.7,128.8,425.7z M46,415.7h77.8V393H46V415.7z"/>

</g>

<g>

<path class="st1" d="M128.8,366.3H41c-2.8,0-5-2.2-5-5v-32.7c0-2.8,2.2-5,5-5h87.8c2.8,0,5,2.2,5,5v32.7     C133.8,364.1,131.5,366.3,128.8,366.3z M46,356.3h77.8v-22.7H46V356.3z"/>

</g>

<g>

<path class="st1" d="M128.8,307H41c-2.8,0-5-2.2-5-5v-32.7c0-2.8,2.2-5,5-5h87.8c2.8,0,5,2.2,5,5V302     C133.8,304.8,131.5,307,128.8,307z M46,297h77.8v-22.7H46V297z"/>

</g>

<g>

<path class="st1" d="M128.8,247.7H41c-2.8,0-5-2.2-5-5V210c0-2.8,2.2-5,5-5h87.8c2.8,0,5,2.2,5,5v32.7     C133.8,245.4,131.5,247.7,128.8,247.7z M46,237.7h77.8V215H46V237.7z"/>

</g>

<g>

<path class="st0" d="M242.8,425.7h-87.8c-2.8,0-5-2.2-5-5V388c0-2.8,2.2-5,5-5h87.8c2.8,0,5,2.2,5,5v32.7     C247.8,423.4,245.6,425.7,242.8,425.7z M160.1,415.7h77.8V393h-77.8V415.7z"/>

</g>

<g>

<path class="st0" d="M242.8,366.3h-87.8c-2.8,0-5-2.2-5-5v-32.7c0-2.8,2.2-5,5-5h87.8c2.8,0,5,2.2,5,5v32.7     C247.8,364.1,245.6,366.3,242.8,366.3z M160.1,356.3h77.8v-22.7h-77.8V356.3z"/>

</g>

<g>

<path class="st0" d="M242.8,307h-87.8c-2.8,0-5-2.2-5-5v-32.7c0-2.8,2.2-5,5-5h87.8c2.8,0,5,2.2,5,5V302     C247.8,304.8,245.6,307,242.8,307z M160.1,297h77.8v-22.7h-77.8V297z"/>

</g>

<g>

<path class="st1" d="M356.9,425.7h-87.8c-2.8,0-5-2.2-5-5V388c0-2.8,2.2-5,5-5h87.8c2.8,0,5,2.2,5,5v32.7     C361.9,423.4,359.7,425.7,356.9,425.7z M274.2,415.7h77.8V393h-77.8V415.7z"/>

</g>

<g>

<path class="st1" d="M356.9,366.3h-87.8c-2.8,0-5-2.2-5-5v-32.7c0-2.8,2.2-5,5-5h87.8c2.8,0,5,2.2,5,5v32.7     C361.9,364.1,359.7,366.3,356.9,366.3z M274.2,356.3h77.8v-22.7h-77.8V356.3z"/>

</g>

<g>

<path class="st1" d="M356.9,307h-87.8c-2.8,0-5-2.2-5-5v-32.7c0-2.8,2.2-5,5-5h87.8c2.8,0,5,2.2,5,5V302     C361.9,304.8,359.7,307,356.9,307z M274.2,297h77.8v-22.7h-77.8V297z"/>

</g>

<g>

<path class="st1" d="M356.9,247.7h-87.8c-2.8,0-5-2.2-5-5V210c0-2.8,2.2-5,5-5h87.8c2.8,0,5,2.2,5,5v32.7     C361.9,245.4,359.7,247.7,356.9,247.7z M274.2,237.7h77.8V215h-77.8V237.7z"/>

</g>

<g>

<path class="st0" d="M471,425.7h-87.8c-2.8,0-5-2.2-5-5V388c0-2.8,2.2-5,5-5H471c2.8,0,5,2.2,5,5v32.7     C476,423.4,473.8,425.7,471,425.7z M388.2,415.7H466V393h-77.8V415.7z"/>

</g>

<g>

<path class="st0" d="M471,366.3h-87.8c-2.8,0-5-2.2-5-5v-32.7c0-2.8,2.2-5,5-5H471c2.8,0,5,2.2,5,5v32.7     C476,364.1,473.8,366.3,471,366.3z M388.2,356.3H466v-22.7h-77.8V356.3z"/>

</g>

<g>

<path class="st0" d="M471,307h-87.8c-2.8,0-5-2.2-5-5v-32.7c0-2.8,2.2-5,5-5H471c2.8,0,5,2.2,5,5V302     C476,304.8,473.8,307,471,307z M388.2,297H466v-22.7h-77.8V297z"/>

</g>

<g>

<path class="st0" d="M471,247.7h-87.8c-2.8,0-5-2.2-5-5V210c0-2.8,2.2-5,5-5H471c2.8,0,5,2.2,5,5v32.7     C476,245.4,473.8,247.7,471,247.7z M388.2,237.7H466V215h-77.8V237.7z"/>

</g>

<g>

<path class="st0" d="M471,188.3h-87.8c-2.8,0-5-2.2-5-5v-32.7c0-2.8,2.2-5,5-5H471c2.8,0,5,2.2,5,5v32.7     C476,186.1,473.8,188.3,471,188.3z M388.2,178.3H466v-22.7h-77.8V178.3z"/>

</g>

<g>

<path class="st0" d="M471,129h-87.8c-2.8,0-5-2.2-5-5V91.3c0-2.8,2.2-5,5-5H471c2.8,0,5,2.2,5,5V124C476,126.8,473.8,129,471,129     z M388.2,119H466V96.3h-77.8V119z"/>

</g>

</g>

</g>

</svg>