<?xml version="1.0" ?>


<svg width="800px" height="800px" viewBox="0 0 512 512" version="1.1" xml:space="preserve" xmlns="http://www.w3.org/2000/svg" xmlns:xlink="http://www.w3.org/1999/xlink">

<style type="text/css">
	.st0{fill:#16ADE1;}
	.st1{fill:#1B3954;}
</style>

<g id="Layer_1"/>

<g id="Layer_2">

<g>

<g>

<path class="st1" d="M357,420.4H200.4C109.7,420.4,36,346.6,36,256S109.7,91.6,200.4,91.6c38.9,0,76.3,13.7,105.9,38.7     c11.3-7.5,24.5-11.5,38.2-11.5c38.1,0,69.1,31,69.1,69.1c0,2.8-0.2,5.6-0.5,8.4c18.1,9.7,33.5,24,44.5,41.4     c12,19,18.4,41,18.4,63.5C476,367,422.6,420.4,357,420.4z M200.4,101.6C115.2,101.6,46,170.9,46,256s69.2,154.4,154.4,154.4H357     c60.1,0,109-48.9,109-109c0-41.7-23.2-79.1-60.6-97.7c-2-1-3.1-3.2-2.7-5.3c0.6-3.5,0.9-6.9,0.9-10.3c0-32.6-26.5-59.1-59.1-59.1     c-12.9,0-25.2,4.1-35.5,11.9c-1.9,1.4-4.5,1.3-6.3-0.3C274.4,115.4,238.1,101.6,200.4,101.6z"/>

</g>

<g>

<g>

<path class="st1" d="M200.2,392c-2.9,0-5.8-0.8-8.5-2.3c-5.3-3.1-8.5-8.6-8.5-14.7V191c0-6.1,3.2-11.6,8.5-14.7      c5.3-3.1,11.7-3.1,17,0l54.4,31.4c1.5,0.9,2.5,2.5,2.5,4.3v57.8c0,1.4-0.6,2.7-1.5,3.6s-2.3,1.4-3.7,1.4      c-4.6-0.2-9.5,0.6-14.2,2.2c-5.4,1.9-10.2,4.8-13.9,8.4c-6.4,6.1-8.9,13.5-6.8,19.6c1.6,4.7,5.8,8.3,11.8,10.1      c6.5,2,14.3,1.7,21.8-0.9c7.5-2.6,14-7.3,17.8-13c1.2-1.8,2.2-3.7,2.7-5.5c0.6-1.7,0.9-3.4,0.9-5.1v-64.3c0-1.8,1-3.4,2.5-4.3      c1.5-0.9,3.5-0.9,5,0l80,46.2c5.3,3.1,8.5,8.6,8.5,14.7c0,6.1-3.2,11.6-8.5,14.7l-159.3,92C206,391.2,203.1,392,200.2,392z       M200.2,184c-1.2,0-2.4,0.3-3.5,0.9c-2.2,1.3-3.5,3.5-3.5,6v184c0,2.5,1.3,4.8,3.5,6c2.2,1.3,4.8,1.3,7,0L363,289c0,0,0,0,0,0      c2.2-1.3,3.5-3.5,3.5-6.1c0-2.5-1.3-4.8-3.5-6.1l-72.5-41.8v55.6c0,2.7-0.4,5.4-1.3,8.1c-0.8,2.7-2.2,5.4-4,8      c-5.1,7.5-13.2,13.5-22.8,16.8c-9.5,3.3-19.4,3.7-28,1.1c-9.1-2.8-15.6-8.6-18.3-16.4c-3.4-9.9,0-21.2,9.2-30.1      c4.8-4.6,10.8-8.3,17.6-10.6c4.1-1.4,8.4-2.3,12.6-2.6v-50.1l-51.9-30C202.6,184.3,201.4,184,200.2,184z"/>

</g>

<g>

<path class="st0" d="M246.4,326.4c-4.1,0-8.2-0.6-11.9-1.7c-9.1-2.8-15.6-8.6-18.3-16.4c-3.4-9.9,0-21.2,9.2-30.1      c4.8-4.6,10.8-8.3,17.6-10.6c4.1-1.4,8.4-2.3,12.6-2.6v-97.5c0-2.6,1.9-4.7,4.5-5l59.7-6.5c1.4-0.2,2.8,0.3,3.9,1.3      c1.1,0.9,1.7,2.3,1.7,3.7v25.1c0,2.6-1.9,4.7-4.5,5l-30.3,3.3v96.4c0,2.7-0.4,5.4-1.3,8.1c-0.8,2.7-2.2,5.4-4,8      c-5.1,7.5-13.2,13.5-22.8,16.8C257.1,325.5,251.7,326.4,246.4,326.4z M259.1,274.8c-4.2,0-8.6,0.8-12.8,2.2      c-5.4,1.9-10.2,4.8-13.9,8.4c-6.4,6.1-8.9,13.5-6.8,19.6c1.6,4.7,5.8,8.3,11.8,10.1c6.5,2,14.3,1.7,21.8-0.9      c7.5-2.6,14-7.3,17.8-13c1.2-1.8,2.2-3.7,2.7-5.5c0.6-1.7,0.9-3.4,0.9-5.1V189.8c0-2.6,1.9-4.7,4.5-5l30.3-3.3v-15l-49.7,5.4      v97.9c0,1.4-0.6,2.7-1.5,3.6s-2.3,1.4-3.7,1.4C260,274.8,259.5,274.8,259.1,274.8z"/>

</g>

</g>

</g>

</g>

</svg>