<?xml version="1.0" ?>


<svg width="800px" height="800px" viewBox="0 0 512 512" version="1.1" xml:space="preserve" xmlns="http://www.w3.org/2000/svg" xmlns:xlink="http://www.w3.org/1999/xlink">

<style type="text/css">
	.st0{fill:#16ADE1;}
	.st1{fill:#1B3954;}
</style>

<g id="Layer_1"/>

<g id="Layer_2">

<g>

<g>

<path class="st1" d="M126.2,478.4c-13.6,0-28.1-2.4-40.6-10.2c-17.9-11.2-28.8-32.8-27.2-53.8c0.9-12.1,6-24.1,14.4-33.7     c3.3-3.8,7.2-6.7,11-9.4c3.9-2.9,7.6-5.6,10.3-9.1c1.7-2.2,4.8-2.7,7-1c2.2,1.7,2.7,4.8,1,7c-3.5,4.7-8,8-12.4,11.2     c-3.5,2.5-6.8,4.9-9.3,7.9c-6.9,8-11.2,17.9-11.9,27.9c-1.4,17.4,7.7,35.3,22.5,44.5c18.9,11.8,44.2,9.1,61.6,6.1     c60.9-10.7,119.5-39.6,165-81.5c2.9-2.7,5.9-5.5,8.8-8.3c10.1-9.7,20.6-19.6,32.9-27.1c19-11.5,39.3-14.5,55.8-8.2     c16.3,6.3,29.4,22.2,35,42.5c5,18,4.1,37,3.3,53.7c-0.1,2.8-2.5,4.9-5.2,4.8c-2.8-0.1-4.9-2.5-4.8-5.2c0.8-16,1.6-34.1-2.9-50.6     c-4.8-17.3-15.6-30.7-28.9-35.9c-13.6-5.2-30.7-2.5-47,7.4c-11.4,6.9-21.5,16.6-31.2,25.8c-2.9,2.8-5.9,5.6-8.9,8.4     c-46.9,43.1-107.3,73-170,84C146.1,477,136.3,478.4,126.2,478.4z"/>

</g>

<g>

<path class="st0" d="M121,379.7c-9.6,0-19.2-3.7-26.5-11c-14.6-14.6-14.6-38.4,0-53c2-2,5.1-2,7.1,0l46,46     c0.9,0.9,1.5,2.2,1.5,3.5s-0.5,2.6-1.5,3.5C140.2,376,130.6,379.7,121,379.7z M98.3,326.6c-7.4,10.7-6.3,25.5,3.2,35     s24.3,10.6,35,3.2L98.3,326.6z"/>

</g>

<g>

<path class="st1" d="M407.6,195.4c-1.3,0-2.6-0.5-3.5-1.5L269.8,59.6c-1-1-1.6-2.5-1.4-4s0.9-2.8,2.1-3.7     c40.4-28.4,95-23.7,130,11.3c35,35,39.7,89.6,11.3,129.9c-0.8,1.2-2.2,2-3.7,2.1C407.9,195.4,407.7,195.4,407.6,195.4z      M281.2,56.9l125.6,125.6c21.9-35.8,16.6-82-13.5-112.1C363.3,40.3,317,35,281.2,56.9z"/>

</g>

<g>

<path class="st1" d="M328.7,236.3c-1.4,0-2.8,0-4.1-0.1c-25.5-1.1-49.4-11.6-67.5-29.6c-18.3-18.3-28.9-42.7-29.6-68.6     c-0.7-22.1,5.7-43.3,18.4-61.3c0.8-1.2,2.2-2,3.7-2.1c1.5-0.1,2.9,0.4,4,1.4l134.3,134.3c1,1,1.6,2.5,1.4,4s-0.9,2.8-2.1,3.7     C370,229.9,349.5,236.3,328.7,236.3z M250.7,87.5c-9.2,15.1-13.8,32.3-13.3,50.3c0.7,23.3,10.2,45.3,26.7,61.8     c16.3,16.3,37.8,25.7,60.8,26.7c18,0.7,36-3.9,51.3-13.2L250.7,87.5z"/>

</g>

<g>

<path class="st1" d="M156.5,382.7c-1.3,0-2.6-0.5-3.5-1.5l-71.1-71.1c-1.9-1.9-2-4.8-0.2-6.8l146.9-168.8     c1.3-1.6,3.5-2.1,5.5-1.4c1.9,0.7,3.3,2.5,3.3,4.6c0.7,23.4,10.2,45.3,26.7,61.8c16.3,16.3,37.8,25.7,60.8,26.7     c2,0.1,3.8,1.4,4.5,3.3c0.7,1.9,0.1,4.1-1.4,5.4L159.8,381.5C158.9,382.3,157.7,382.7,156.5,382.7z M92.3,306.4l64.5,64.5     l156-135.8c-21-3.3-40.4-13.2-55.7-28.4c-15.5-15.5-25.4-35.3-28.6-56.6L92.3,306.4z"/>

</g>

<g>

<path class="st1" d="M184.1,317.1c-1.3,0-2.6-0.5-3.5-1.5l-33.1-33.1c-2-2-2-5.1,0-7.1l58.7-58.7c0.9-0.9,2.2-1.5,3.5-1.5     s2.6,0.5,3.5,1.5l33.1,33.1c2,2,2,5.1,0,7.1l-58.7,58.7C186.7,316.6,185.4,317.1,184.1,317.1z M158.1,279.1l26,26l51.6-51.6     l-26-26L158.1,279.1z"/>

</g>

<g>

<path class="st1" d="M213.4,287.8c-1.3,0-2.6-0.5-3.5-1.5l-33.1-33.1c-2-2-2-5.1,0-7.1c2-2,5.1-2,7.1,0l33.1,33.1     c2,2,2,5.1,0,7.1C216,287.3,214.7,287.8,213.4,287.8z"/>

</g>

<g>

<path class="st0" d="M402.8,230.6c-5.8,0-11.2-2.3-15.3-6.3L241.3,78.1c-4.1-4.1-6.3-9.5-6.3-15.3c0-5.8,2.2-11.2,6.3-15.3     c4.1-4.1,9.5-6.3,15.3-6.3c5.8,0,11.2,2.3,15.3,6.3L418,193.7c4.1,4.1,6.3,9.5,6.3,15.3c0,5.8-2.2,11.2-6.3,15.3     C414,228.4,408.6,230.6,402.8,230.6z M256.6,51.2c-3.1,0-6,1.2-8.2,3.4c-4.5,4.5-4.5,11.9,0,16.4l146.2,146.2     c2.2,2.2,5.1,3.4,8.2,3.4c3.1,0,6-1.2,8.2-3.4c2.2-2.2,3.4-5.1,3.4-8.2c0-3.1-1.2-6-3.4-8.2L264.8,54.6     C262.6,52.4,259.7,51.2,256.6,51.2z"/>

</g>

</g>

</g>

</svg>