<?xml version="1.0" ?>


<svg width="800px" height="800px" viewBox="0 0 512 512" version="1.1" xml:space="preserve" xmlns="http://www.w3.org/2000/svg" xmlns:xlink="http://www.w3.org/1999/xlink">

<style type="text/css">
	.st0{fill:#16ADE1;}
	.st1{fill:#1B3954;}
</style>

<g id="Layer_1"/>

<g id="Layer_2">

<g>

<g>

<g>

<g>

<path class="st0" d="M160.3,175.1c-7.9,0-14.4-6.4-14.4-14.4s6.4-14.4,14.4-14.4s14.4,6.4,14.4,14.4S168.2,175.1,160.3,175.1z        M160.3,156.3c-2.4,0-4.4,2-4.4,4.4s2,4.4,4.4,4.4s4.4-2,4.4-4.4S162.7,156.3,160.3,156.3z"/>

</g>

<g>

<path class="st0" d="M351.7,175.1c-7.9,0-14.4-6.4-14.4-14.4s6.4-14.4,14.4-14.4s14.4,6.4,14.4,14.4S359.6,175.1,351.7,175.1z        M351.7,156.3c-2.4,0-4.4,2-4.4,4.4s2,4.4,4.4,4.4s4.4-2,4.4-4.4S354.1,156.3,351.7,156.3z"/>

</g>

</g>

<g>

<g>

<path class="st0" d="M184.7,87c-7.9,0-14.4-6.4-14.4-14.4s6.4-14.4,14.4-14.4S199,64.7,199,72.6S192.6,87,184.7,87z        M184.7,68.2c-2.4,0-4.4,2-4.4,4.4s2,4.4,4.4,4.4s4.4-2,4.4-4.4S187.1,68.2,184.7,68.2z"/>

</g>

<g>

<path class="st0" d="M327.3,87c-7.9,0-14.4-6.4-14.4-14.4s6.4-14.4,14.4-14.4s14.4,6.4,14.4,14.4S335.3,87,327.3,87z        M327.3,68.2c-2.4,0-4.4,2-4.4,4.4s2,4.4,4.4,4.4s4.4-2,4.4-4.4S329.7,68.2,327.3,68.2z"/>

</g>

</g>

<g>

<g>

<path class="st0" d="M137,263.1c-7.9,0-14.4-6.4-14.4-14.4s6.4-14.4,14.4-14.4s14.4,6.4,14.4,14.4S144.9,263.1,137,263.1z        M137,244.4c-2.4,0-4.4,2-4.4,4.4s2,4.4,4.4,4.4s4.4-2,4.4-4.4S139.4,244.4,137,244.4z"/>

</g>

<g>

<path class="st0" d="M375,263.1c-7.9,0-14.4-6.4-14.4-14.4s6.4-14.4,14.4-14.4s14.4,6.4,14.4,14.4S382.9,263.1,375,263.1z        M375,244.4c-2.4,0-4.4,2-4.4,4.4s2,4.4,4.4,4.4s4.4-2,4.4-4.4S377.4,244.4,375,244.4z"/>

</g>

</g>

<g>

<g>

<path class="st0" d="M114.1,351.2c-7.9,0-14.4-6.4-14.4-14.4s6.4-14.4,14.4-14.4s14.4,6.4,14.4,14.4S122,351.2,114.1,351.2z        M114.1,332.4c-2.4,0-4.4,2-4.4,4.4s2,4.4,4.4,4.4s4.4-2,4.4-4.4S116.5,332.4,114.1,332.4z"/>

</g>

<g>

<path class="st0" d="M397.9,351.2c-7.9,0-14.4-6.4-14.4-14.4s6.4-14.4,14.4-14.4s14.4,6.4,14.4,14.4S405.8,351.2,397.9,351.2z        M397.9,332.4c-2.4,0-4.4,2-4.4,4.4s2,4.4,4.4,4.4s4.4-2,4.4-4.4S400.3,332.4,397.9,332.4z"/>

</g>

</g>

<g>

<g>

<path class="st0" d="M199.7,230.1c-2.8,0-5-2.2-5-5v-40.7c0-2.8,2.2-5,5-5s5,2.2,5,5v40.7C204.7,227.8,202.4,230.1,199.7,230.1       z"/>

</g>

<g>

<path class="st0" d="M199.7,142c-2.8,0-5-2.2-5-5V96.3c0-2.8,2.2-5,5-5s5,2.2,5,5V137C204.7,139.8,202.4,142,199.7,142z"/>

</g>

<g>

<path class="st0" d="M199.7,318.1c-2.8,0-5-2.2-5-5v-40.7c0-2.8,2.2-5,5-5s5,2.2,5,5v40.7C204.7,315.9,202.4,318.1,199.7,318.1       z"/>

</g>

<g>

<path class="st0" d="M312.3,230.1c-2.8,0-5-2.2-5-5v-40.7c0-2.8,2.2-5,5-5s5,2.2,5,5v40.7C317.3,227.8,315.1,230.1,312.3,230.1       z"/>

</g>

<g>

<path class="st0" d="M312.3,142c-2.8,0-5-2.2-5-5V96.3c0-2.8,2.2-5,5-5s5,2.2,5,5V137C317.3,139.8,315.1,142,312.3,142z"/>

</g>

<g>

<path class="st0" d="M312.3,318.1c-2.8,0-5-2.2-5-5v-40.7c0-2.8,2.2-5,5-5s5,2.2,5,5v40.7C317.3,315.9,315.1,318.1,312.3,318.1       z"/>

</g>

</g>

<g>

<path class="st1" d="M403.7,277.4H108.3c-2.8,0-5-2.2-5-5v-47.3c0-2.8,2.2-5,5-5h295.3c2.8,0,5,2.2,5,5v47.3      C408.7,275.2,406.4,277.4,403.7,277.4z M113.3,267.4h285.3v-37.3H113.3V267.4z"/>

</g>

<g>

<path class="st1" d="M427.7,365.5H84.3c-2.8,0-5-2.2-5-5v-47.3c0-2.8,2.2-5,5-5h343.3c2.8,0,5,2.2,5,5v47.3      C432.7,363.2,430.4,365.5,427.7,365.5z M89.3,355.5h333.3v-37.3H89.3V355.5z"/>

</g>

<g>

<path class="st1" d="M355.7,101.3H156.3c-2.8,0-5-2.2-5-5V48.9c0-2.8,2.2-5,5-5h199.3c2.8,0,5,2.2,5,5v47.3      C360.7,99,358.4,101.3,355.7,101.3z M161.3,91.3h189.3V53.9H161.3V91.3z"/>

</g>

<g>

<path class="st1" d="M379.7,189.3H132.3c-2.8,0-5-2.2-5-5V137c0-2.8,2.2-5,5-5h247.3c2.8,0,5,2.2,5,5v47.3      C384.7,187.1,382.4,189.3,379.7,189.3z M137.3,179.3h237.3V142H137.3V179.3z"/>

</g>

</g>

<g>

<g>

<path class="st0" d="M40.5,420.2c-1.3,0-2.5-0.5-3.5-1.4c-1-0.9-1.5-2.2-1.5-3.5l-0.3-23.8c0-1.3,0.5-2.6,1.5-3.6      c0.9-1,2.2-1.5,3.6-1.5l257.3,1.6c3.6-4.8,9.3-7.7,15.4-7.8c7.8-0.1,15,4.5,18.2,11.6c1.1,2.4,1.7,5.1,1.7,7.8      c0.1,10.8-8.6,19.7-19.4,19.9c-4.4,0.1-8.6-1.3-12.1-4c-1.3-1-2.5-2.1-3.5-3.4l-20.6,0.7c-0.1,0-0.2,0-0.2,0l-236.3,7.5      C40.7,420.2,40.6,420.2,40.5,420.2z M45.3,396.4l0.2,13.6l231-7.3c0.1,0,0.2,0,0.2,0l23.6-0.7c1.9,0,3.6,0.9,4.5,2.6      c0.6,1.2,1.5,2.2,2.6,3c1.7,1.3,3.8,2,6,2c5.3-0.1,9.6-4.5,9.5-9.8c0-1.3-0.3-2.6-0.8-3.8c0,0,0,0,0,0c-1.6-3.5-5.1-5.8-8.9-5.7      c-3.6,0-6.8,2-8.4,5.2c-0.9,1.7-2.6,2.7-4.5,2.7L45.3,396.4z"/>

</g>

<g>

<path class="st0" d="M471.5,468.1c-0.1,0-0.1,0-0.2,0L235,460.6c-0.1,0-0.2,0-0.2,0l-20.6-0.7c-1,1.3-2.2,2.4-3.5,3.4      c-3.5,2.7-7.7,4.1-12.1,4c-10.8-0.1-19.5-9.1-19.4-19.9c0-2.7,0.6-5.3,1.7-7.8c3.2-7.2,10.4-11.8,18.2-11.6      c6.1,0.1,11.8,3,15.4,7.8l257.3-1.6c1.4,0,2.6,0.5,3.6,1.5s1.5,2.2,1.5,3.6l-0.3,23.8c0,1.3-0.6,2.6-1.5,3.5      C474,467.6,472.7,468.1,471.5,468.1z M235.6,450.6l231,7.3l0.2-13.6l-255,1.6c-1.9,0-3.6-1-4.5-2.7c-1.6-3.1-4.9-5.1-8.4-5.2      c0,0-0.1,0-0.1,0c-3.8,0-7.2,2.2-8.8,5.7c0,0,0,0,0,0c-0.5,1.2-0.8,2.5-0.8,3.8c-0.1,5.3,4.2,9.7,9.5,9.8c2.2,0,4.2-0.7,5.9-2      c1.1-0.8,2-1.8,2.6-3c0.9-1.6,2.7-2.6,4.5-2.6l23.6,0.7C235.4,450.6,235.5,450.6,235.6,450.6z M185.4,441.7L185.4,441.7      L185.4,441.7z"/>

</g>

</g>

</g>

</g>

</svg>