<?xml version="1.0" ?>


<svg width="800px" height="800px" viewBox="0 0 60 60" xmlns="http://www.w3.org/2000/svg">

<defs>

<style>.cls-1{fill:none;}.cls-2{fill:#3d3d63;}</style>

</defs>

<title/>

<g data-name="Layer 2" id="Layer_2">

<g id="Icons">

<g id="Banquet">

<rect class="cls-1" height="60" width="60"/>

<circle class="cls-2" cx="17.53" cy="36.23" r="1"/>

<circle class="cls-2" cx="14.65" cy="40.01" r="1"/>

<circle class="cls-2" cx="19.56" cy="39.01" r="1"/>

<path class="cls-2" d="M8,52.33H6a1,1,0,0,0,0,2H8a1,1,0,0,0,0-2Z"/>

<path class="cls-2" d="M54,52.33H52.63A8.22,8.22,0,0,0,55.5,46.1a1,1,0,0,0-1-1H43.92V31.33A9.62,9.62,0,0,0,42.31,26,7.59,7.59,0,0,1,41,21.77v-3.7a2.81,2.81,0,0,0,0-5.47v-2a1,1,0,0,0-1-1H32.79a1,1,0,0,0-1,1v2a2.81,2.81,0,0,0,0,5.47v3.78A7.47,7.47,0,0,1,30.51,26a9.44,9.44,0,0,0-1.6,5.27c0,5.36,0,17.51,0,21.06H21.15a4.73,4.73,0,0,0-3.62-3.61v-4A7.23,7.23,0,0,0,23.75,37L23,27.51a1,1,0,0,0-1-.92H11.08a1,1,0,0,0-1,.92L9.32,37a7.21,7.21,0,0,0,6.21,7.74v4a4.74,4.74,0,0,0-3.62,3.63,1,1,0,0,0,.09,2H54a1,1,0,0,0,0-2ZM21.07,28.59l.3,3.79H11.69L12,28.59ZM12.68,41.13a5.19,5.19,0,0,1-1.37-4l.22-2.78h10l.22,2.78a5.24,5.24,0,0,1-9.07,4ZM14,52.33a2.72,2.72,0,0,1,5.06,0ZM33.79,11.57H39v.95H33.79Zm-2.89,24a1.89,1.89,0,0,1,0,3.73Zm0,9.38h1.9a1,1,0,0,0,0-2h-1.9c0-.55,0-1.09,0-1.65a3.87,3.87,0,0,0,0-7.73V32.33h4.9a.34.34,0,0,1,.33.34V45.92a.34.34,0,0,1-.33.34H30.89Zm0,7.33V48.26H35.8a2.34,2.34,0,0,0,2.33-2.34V32.67a2.34,2.34,0,0,0-2.33-2.34H31a7.37,7.37,0,0,1,1.19-3.22,9.54,9.54,0,0,0,1.6-5.25l0-4.71a1,1,0,0,0-.29-.71,1,1,0,0,0-.71-.3h-.36a.81.81,0,1,1,0-1.62h8a.81.81,0,1,1,0,1.62h-4a1,1,0,0,0,0,2H39v3.63a9.57,9.57,0,0,0,1.61,5.34,7.54,7.54,0,0,1,1.28,4.22V45.1H40a1,1,0,0,0-1,1,8.18,8.18,0,0,0,2.87,6.23Zm16.37,0a6.23,6.23,0,0,1-6.15-5.23H53.42A6.25,6.25,0,0,1,47.26,52.33Z"/>

</g>

</g>

</g>

</svg>