<?xml version="1.0" encoding="utf-8"?>
<svg width="800px" height="800px" viewBox="0 -2.85 153.255 153.255" xmlns="http://www.w3.org/2000/svg">
  <path id="Path_647" data-name="Path 647" d="M664.426,1160.13c-.029-5.388-4.921-12.9-8.686-17.887a.749.749,0,0,0,.182-.49v-2.835c0-12.834-31.88-41.329-45.618-53.012-5.419-4.608-13.836-10.1-23.163-10.1-6.26,0-10.957,4.254-13.249,6.864a20.531,20.531,0,0,0-3.1-8.589,10.45,10.45,0,0,1,1.589,1.526.75.75,0,0,0,1.237-.841,21.64,21.64,0,0,0-8.838-8.16l1.436-.718a.75.75,0,0,0-.122-1.39c-.393-.117-9.708-2.865-17.222-2.865-7.372,0-12.893,4.445-14.8,7.432a6.3,6.3,0,0,1-2.439,2.527h0a.831.831,0,0,0-.082.032c-11.112,5.221-19.875,11.216-20.286,13.089a.969.969,0,0,0,.036.523.752.752,0,0,0,.145.291c0,.005,0,.011.008.015h0a2.2,2.2,0,0,0,1.752.8,4,4,0,0,0,2.03-.629c2.666-1.34,9.1-2.95,15.322-3.835h0c4.526-.645,8.118-.775,9.608-.347,3.282.94,9.849,1.286,12.835,1.4-3.2,4.115-3.456,6.942-3.456,10.627h0v.011c0,.01,0,.044,0,.1v.007l0,.046v.012h0c.006.081.021.2.042.327a7.049,7.049,0,0,0,1.476,3.557l.005.008c1.692,2.8,5.556,7.418,14.35,13.543.507.443,8.215,7.317,8.215,15a.75.75,0,0,0,1.5,0v-7.989c2.3,2.614,7.005,8.447,8.446,13.852a.751.751,0,0,0,.724.556.8.8,0,0,0,.1-.006.75.75,0,0,0,.653-.744v-3.94c.725.661,1.744,1.565,3.019,2.637,2.8,2.347,5.712,4.565,8.669,6.6l6.689,13.378,2.782,13.909-1.369,5.473c-.371,1.072-9.576,27.608-11.291,31.062-1.3,2.624-9.2,3.659-12.084,3.835H567.3c-7.362,0-7.808,3.169-7.834,3.53a.75.75,0,0,0,1.231.629c1.228-1.034,3.7-1.247,4.86-1.247h0a4.082,4.082,0,0,0,2.789,1.489,1.805,1.805,0,0,0,.5-.066h18.3c.01,0,.019-.006.03-.006a.776.776,0,0,0,.207-.042c.021-.008.044-.008.064-.017a.731.731,0,0,0,.229-.155c1.342-1.342,3.995-1.276,4.809-1.223a4.405,4.405,0,0,0,2.924,1.469,1.848,1.848,0,0,0,.318-.026H635.33a.747.747,0,0,0,.53-.22c.524-.524,4.188-.426,7.845.209a.75.75,0,0,0,.659-1.269,11.464,11.464,0,0,0-10.48-3.07l-7.724-1.287a285.814,285.814,0,0,1,2.825-34.687.827.827,0,0,0,.008-.111v-7.087a.748.748,0,0,0-.1-.372l-5.57-9.749v-2.449a37.642,37.642,0,0,0,6.007.557c1.968,2.687,15.93,21.267,25.841,21.267a2.269,2.269,0,0,0,2.1-1.028c.619-1.016.44-2.691-.565-5.173,2.375,1.7,3.482,1.949,4.134,1.949a3.174,3.174,0,0,0,2.471-1.076C664.806,1163.812,664.482,1160.6,664.426,1160.13Zm-133.3-81.312c-.068.075-.135.151-.2.228-.361.411-.722.84-1.078,1.308a.811.811,0,0,0-.074.119,82.72,82.72,0,0,0-12.271,2.735l.048-.023c.507-.237,1.039-.483,1.589-.734l.128-.058c.557-.253,1.132-.511,1.72-.769l.112-.05c.6-.265,1.222-.53,1.845-.791l.06-.026c1.294-.541,2.612-1.065,3.9-1.535l.029-.01c.625-.228,1.242-.443,1.844-.64l.118-.038c.571-.186,1.128-.355,1.667-.506l.165-.044c.517-.142,1.016-.265,1.49-.365l.087-.018-.015.016Q531.712,1078.172,531.131,1078.818Zm8.962-5.927a1.36,1.36,0,0,1-.433.08,1.37,1.37,0,0,1-.432-2.672h0a1.349,1.349,0,0,1,.431-.08,1.37,1.37,0,0,1,.433,2.672Zm-7.949.111,4.21-1.4a.77.77,0,0,0,.1-.04l.34-.17c-.005.068-.008.137-.008.207a2.854,2.854,0,0,0,.071.617c.014.065.04.125.059.189a2.777,2.777,0,0,0,.134.381c.032.071.072.135.11.2a2.791,2.791,0,0,0,.192.308c.048.065.1.125.154.186a2.864,2.864,0,0,0,.244.249c.03.027.054.061.085.087a18.854,18.854,0,0,0-3.4,2c-.038,0-.083.008-.122.01-.209.009-.426.026-.651.05-.063.007-.124.011-.188.019-.289.035-.588.08-.9.136l-.167.033c-.265.05-.537.106-.815.17l-.267.061c-.3.071-.6.146-.9.229-.044.013-.088.023-.133.035-.355.1-.718.2-1.086.317-.084.025-.169.052-.254.079-.3.092-.592.187-.893.287l-.289.1c-.758.257-1.531.535-2.31.83l-.308.118q-.466.179-.932.362l-.263.1c-.388.155-.777.313-1.163.472l-.177.074q-.5.207-.985.415l-.312.133q-.476.206-.944.41l-.183.08q-.554.244-1.089.486c-.084.037-.165.074-.247.112-.28.127-.556.252-.826.377l-.273.125c-.681.315-1.326.619-1.925.905l-.067.032A104.617,104.617,0,0,1,532.144,1073Zm52.687,52.624a.75.75,0,0,0-1.275.536v1.588a52.388,52.388,0,0,0-8.635-12.033.75.75,0,0,0-1.286.524v3.4a30.531,30.531,0,0,0-7.267-9.639.638.638,0,0,0-.059-.045,68.235,68.235,0,0,1-10.407-8.623l.016.006q.42.186.847.346c.088.033.176.061.263.092.2.072.4.142.6.205.111.035.224.066.336.1.178.052.356.1.535.149.119.031.238.059.357.087q.26.062.517.116c.12.025.24.048.36.07q.255.048.509.087c.118.019.235.037.352.053.174.024.346.045.518.063.108.012.216.025.323.035.187.017.37.029.553.04.089.006.179.013.267.017.268.013.532.02.789.02a10.917,10.917,0,0,0,9.654-5.558c.193-.322.354-.623.487-.889,2,2.342,7.319,8.906,8.984,14.417.111.368.226.716.344,1.049.02.055.041.1.06.158.1.279.206.55.311.805l.035.079c1.657,3.942,3.772,5.078,4.887,5.4v10.048C585.926,1126.7,584.844,1125.639,584.831,1125.626Zm45.21,22.536a77.349,77.349,0,0,1-21.11-15.443.749.749,0,0,0-.523-.22,19.653,19.653,0,0,1-7.327-1.954,21.906,21.906,0,0,1-6.966-5.2l-.012-.013c-.46-.512-.9-1.055-1.318-1.616-.05-.068-.1-.133-.151-.2-.39-.531-.76-1.086-1.116-1.659-.067-.108-.133-.217-.2-.327q-.519-.864-.989-1.79c-.055-.108-.107-.221-.161-.331-.159-.324-.3-.668-.452-1h11.14c5.828,9.253,17.2,10.452,19.243,10.593l23.222,23.222A42.186,42.186,0,0,1,630.041,1148.162Zm-30.512-9.19c.226.145.451.283.677.425q.949.6,1.9,1.164.4.238.8.471,1.01.59,2.012,1.139c.172.095.344.194.516.287.745.4,1.486.791,2.224,1.16v5.889h-3.039l-5.351-10.7C599.35,1138.862,599.44,1138.915,599.529,1138.972Zm9.622,5.377,5.733,7.77a.751.751,0,0,0,.6.3h.982l5.355,9.37v11.14c0,11.436-2.39,26.915-2.773,29.322-3.021,1.878-11.161,2.367-17.634,2.489l-2.005-1,11.1-30.531,2.835-7.087a.75.75,0,0,0,.027-.475l-4.225-15.494v-5.807Zm-40.435,63.268c-.145,0-.194-.013-.3.057-.146.014-.826.013-1.984-1.235a.759.759,0,0,0-.166-.133c.325-.016.668-.024,1.033-.024h14.218c1.168-.071,11.463-.8,13.383-4.667,1.783-3.592,10.985-30.141,11.376-31.269.007-.021.013-.043.019-.064l1.417-5.669a.746.746,0,0,0,.008-.329l-2.655-13.276h2.764l4.035,14.8-2.75,6.876-11.339,31.181a.75.75,0,0,0,.363.923h-3.909c-.079,0-.347-.005-.762.024-4.317.193-6.122,1.968-6.735,2.811Zm58.777-38.99c-.169,1.155-2.835,19.57-2.835,35.488a.75.75,0,0,0,.627.74l8.5,1.417a.745.745,0,0,0,.319-.016,10.105,10.105,0,0,1,6.988.97c-2.193-.232-4.851-.321-6.013.391h-39.44a.478.478,0,0,0-.168.02c-.006,0-.8.115-2.134-1.218a.771.771,0,0,0-.1-.08c.178-.02.331-.032.466-.04.173-.006.338-.017.521-.017l1.079,0c.887,0,1.9,0,3,0h3.006a.739.739,0,0,0,.21-.036c6.944-.131,15.528-.686,18.654-2.94a.749.749,0,0,0,.3-.486c.029-.173,2.845-17.392,2.845-29.886v-11.339a.748.748,0,0,0-.1-.372l-5.028-8.8h3.942l5.354,9.37Zm-4.776-21.238a.751.751,0,0,0-.893.736v2.8h-5.958l-5.62-7.618a.742.742,0,0,0-.285-.233q-.618-.291-1.229-.593-1.344-.663-2.706-1.4a93.757,93.757,0,0,1-8.272-5.078h0c-2.878-1.97-5.717-4.121-8.444-6.4v-8.574c.01.02.022.038.033.058.048.09.1.175.149.264.176.317.354.63.535.932.08.131.161.256.241.384.156.25.313.5.473.735.091.136.183.268.275.4.154.22.309.437.466.648.1.129.192.256.288.382.159.2.318.405.479.6.095.116.191.233.287.346.169.2.339.391.51.581.089.1.177.2.265.293.2.212.4.415.6.615.063.062.124.128.187.189.265.259.53.509.8.747.036.031.072.06.107.092.228.2.457.4.684.583.089.072.176.139.264.209.176.14.352.278.527.41.1.075.2.146.3.218.163.118.326.235.488.346l.3.206q.238.158.473.306c.1.063.2.126.3.186.158.1.314.188.47.278.094.054.188.11.281.162.168.094.333.182.5.269.076.039.152.081.227.12.237.121.47.237.7.344a21.459,21.459,0,0,0,7.571,2.053c.806.8,1.616,1.576,2.429,2.333.261.242.524.473.785.711.556.507,1.114,1.008,1.673,1.493.308.268.618.527.927.788.521.439,1.042.872,1.565,1.293q.48.387.961.763.79.617,1.583,1.2c.309.231.619.463.93.687.577.416,1.155.815,1.734,1.208.26.176.519.36.779.531.839.555,1.68,1.09,2.523,1.6l.1.06c.73.437,1.462.86,2.2,1.261C625.1,1147.8,623.917,1147.622,622.717,1147.389Zm33.275,21.653c-.051.084-.187.307-.82.307-7.73,0-18.84-13.195-23.1-18.641.058.024.112.044.169.067.187.077.369.147.552.22.266.1.529.209.788.307.189.071.374.139.56.206.242.089.483.175.719.257.184.064.365.126.545.185q.344.116.676.22l.516.161c.222.067.437.129.651.191.157.045.317.092.47.134.223.061.437.116.651.171.134.035.271.072.4.1.273.067.535.127.792.185l.368.081c.243.052.482.1.71.146l.353.064c.164.03.328.06.483.086l.347.055.415.062c.11.016.212.029.316.043.127.016.249.032.368.045l.281.032.32.031c.083.008.164.016.242.022l.278.02.2.014.25.012.136.006.3.008c.377.4,1.205,1.256,2.293,2.346l.029.03.517.515.057.057.461.455.161.158.412.4.241.235.386.371.3.285.371.352.332.314c.126.119.254.238.382.357l.337.314.381.349.353.323c.129.118.26.234.39.351s.232.209.349.312l.377.332c.124.108.246.216.369.322s.245.21.368.314c.1.09.211.182.316.27C656.5,1167.269,656.224,1168.659,655.992,1169.042Zm6.192-4.508a1.676,1.676,0,0,1-1.342.563c-.429,0-1.837-.345-5.655-3.542-4.41-3.693-9.34-8.925-9.389-8.977l-.01-.007-.006-.01-24.823-24.822a.751.751,0,0,0-.5-.22c-.127,0-12.757-.616-18.539-10.247a.751.751,0,0,0-.643-.364h-12.7c-.072-.005-3.069-.268-4.968-6.553-2.154-7.13-9.762-15.526-10.085-15.88a.751.751,0,0,0-.328-.209.764.764,0,0,0-.389-.018.736.736,0,0,0-.492.413c-.017.034-.049.057-.061.094v0c-.028.089-2.146,6.56-9.2,6.56a17.464,17.464,0,0,1-1.921-.1c-.211-.024-.4-.07-.606-.1-.392-.059-.79-.111-1.159-.194-.216-.049-.409-.118-.617-.175-.333-.09-.674-.173-.986-.28-.211-.074-.4-.165-.6-.245-.282-.113-.574-.218-.836-.343-.193-.091-.359-.2-.541-.293-.245-.131-.5-.257-.726-.4-.175-.108-.324-.226-.487-.339-.2-.141-.419-.278-.6-.424-.156-.123-.283-.25-.426-.375-.164-.145-.34-.286-.486-.433-.132-.131-.235-.263-.353-.4s-.261-.28-.369-.419c-.065-.108-.118-.207-.177-.31s-.138-.237-.2-.346-.113-.222-.168-.332c-.043-.088-.093-.182-.132-.265-.085-.183-.159-.354-.223-.511l0-.005a5.038,5.038,0,0,1-.386-1.405l0-.062c0-3.811.274-6.443,4.071-10.85a.751.751,0,0,0-.553-1.239c-.1,0-9.931-.228-13.982-1.388-1.946-.559-5.786-.256-8.645.094.03-.035.059-.073.089-.108.108-.123.217-.238.325-.356.181-.2.363-.392.55-.581q.19-.194.381-.376c.174-.168.351-.331.53-.491.133-.12.268-.243.4-.356q.4-.337.808-.651c.163-.125.323-.237.483-.351.141-.1.28-.2.418-.292.169-.113.338-.227.5-.33.106-.066.209-.125.313-.188.3-.177.58-.338.852-.481.1-.05.192-.1.285-.147.148-.075.294-.147.433-.211.11-.051.213-.1.317-.141.192-.085.373-.16.541-.226.1-.037.194-.075.281-.107s.166-.06.241-.086c.126-.043.245-.082.345-.112.053-.017.1-.029.141-.042.073-.021.144-.041.194-.053l.079-.021.047-.011.027-.006a.747.747,0,0,0,.283-.121.76.76,0,0,0,.068-.07.7.7,0,0,0,.132-.134l.005,0a2.877,2.877,0,0,0,.579-.411c.024-.023.05-.042.074-.065a2.859,2.859,0,0,0,.423-.52c.023-.035.044-.07.066-.107a2.852,2.852,0,0,0,.269-.614c.01-.033.016-.067.025-.1a2.838,2.838,0,0,0,.1-.716,2.879,2.879,0,0,0-2.876-2.876,2.607,2.607,0,0,0-.453.041H539.2a.771.771,0,0,0-.185-.026.806.806,0,0,0-.1-.013.751.751,0,0,0-.3.076l-2.787,1.394-.922.307c.14-.194.282-.4.424-.626a16.852,16.852,0,0,1,13.542-6.74,66.479,66.479,0,0,1,14.917,2.291l-1.079.54a.75.75,0,0,0,.069,1.372,21.6,21.6,0,0,1,6.506,4.316,4.16,4.16,0,0,0-.47-.091.75.75,0,0,0-.7,1.2c.053.07,5.244,7,4.135,12.034-.1.168-.337.529-.662.993-1.441-7.1-5.8-19.9-18.466-19.9a.75.75,0,0,0-.184,1.477c.122.031,12.126,3.3,13.477,23.756a8.609,8.609,0,0,1-4.789,1.7.75.75,0,0,0,0,1.5,10.344,10.344,0,0,0,6-2.209l.014-.007c.025-.019.051-.042.076-.061.328-.241.645-.49.951-.75l.056-.048a25.705,25.705,0,0,0,4.872-5.768c.078-.117,5.541-8.165,13.546-8.165,8.871,0,16.964,5.3,22.223,9.77,28.214,23.992,45.058,43.373,45.058,51.842v1.024l-2.972-2.971a.749.749,0,0,0-1.089,1.029c.125.141,12.565,14.17,12.565,22.178a.845.845,0,0,0,.007.1C663.044,1161.1,663.125,1163.456,662.184,1164.534Zm-94.236-74.615-.1.091c-1.1-13.09-6.441-19.217-10.334-21.982,8.931,2.782,11.917,13.892,12.856,19.364-.025.032-.055.065-.081.1-.381.459-.766.9-1.155,1.3-.015.016-.033.032-.049.049C568.707,1089.226,568.328,1089.584,567.948,1089.919Z" transform="translate(-511.239 -1061.633)" fill="#1a1a1a"/>
</svg>