<?xml version="1.0" encoding="utf-8"?>
<svg width="800px" height="800px" viewBox="0 -21.68 123.39 123.39" xmlns="http://www.w3.org/2000/svg">
  <g id="Group_724" data-name="Group 724" transform="translate(-264.206 -266.757)">
    <path id="Path_544" data-name="Path 544" d="M364.169,274.922a1.417,1.417,0,1,0,1.418,1.418A1.418,1.418,0,0,0,364.169,274.922Z" fill="#1a1a1a"/>
    <path id="Path_545" data-name="Path 545" d="M386.846,345.039H362.765a4.447,4.447,0,0,0,0-5.587h24.081a.75.75,0,1,0,0-1.5H360.63a4.5,4.5,0,0,0-1.421-.25h-4.658l-3.715-2.476-2.37-7.113H350a.747.747,0,0,0,.7-.471l4.059-10.147c10.32-6.048,12.522-17.6,12.921-20.563h.749a.75.75,0,0,0,.74-.873l-1.175-7.051,1.517.759a.75.75,0,0,0,1.071-.818l-1.117-5.584,1.463.732a.75.75,0,0,0,1.047-.908l-1.088-3.265h7.464a.749.749,0,0,0,.746-.824c-.02-.2-.591-4.742-8.794-4.912-1.951-3.97-6.034-6.466-11.885-7.2a32.355,32.355,0,0,0-8.539.108.75.75,0,0,0-.21,1.411l3.606,1.8-6.229,1.038a.75.75,0,0,0-.024,1.475l4.613.923-4.744,1.9a.75.75,0,0,0,.278,1.447h4.268l-2.057,3.086a.75.75,0,0,0,.96,1.086l1.659-.829c-.534,3.82-3.269,7.312-3.857,8.026l-42.371,15.408a2.155,2.155,0,0,0-1.424,2.174,2.122,2.122,0,0,0,1.677,1.975c.245.056.505.109.757.164l-13.115,4.592-14.5,5.078-4.9,1.716-8.754,2.842a1.986,1.986,0,0,0,.56,3.844l6.8.444a55.951,55.951,0,0,0,17.246-2.72l.054-.02,4.577-1.883h0l12.817-5.272,16.323,2.856,8.585,8.247a.749.749,0,0,0,.519.209h.613l2.559,7.677-1.08,2.162H287.634a.75.75,0,0,0,0,1.5h47.534a1.047,1.047,0,0,0,.234.15c.025.011.049.02.075.03a.988.988,0,0,0,.346.07h4.252a2.544,2.544,0,0,1,0,5.087.986.986,0,0,0-.644.25h-51.8a.75.75,0,0,0,0,1.5h51.8a.986.986,0,0,0,.644.25,4.5,4.5,0,0,0,1.421-.25h17.069a.986.986,0,0,0,.644.25,4.5,4.5,0,0,0,1.421-.25h26.216a.75.75,0,0,0,0-1.5Zm-49.218-7.711.561.374h-.748Zm13.317.374H350.2l.187-.374Zm-1.457-11.089H347.8a.976.976,0,0,0-1.3,0h-1.959l-3.826-2.373,1.216-3.04a38.962,38.962,0,0,0,6.154-1.005c.744-.187,1.466-.391,2.153-.626s1.355-.5,2.014-.794c.089-.039.179-.076.267-.116.061-.027.123-.051.182-.079Zm27.793-48.189h-16.15l2-4,3.635,1.212a.759.759,0,0,0,.237.038h2.835C374.9,275.672,376.669,277.367,377.281,278.424Zm-21.492-7.014A.75.75,0,0,0,356,270l-3.35-1.676c4.214-.242,12.551.083,15.962,5.848h-1.487l-4.137-1.378a.732.732,0,0,0-.237-.039h-8.43l-3-.6Zm-49.953,34.538a.649.649,0,0,1,.44-.672l41.553-15.11v10.268a9.181,9.181,0,0,1-9.171,9.171c-5.345,0-10.537-.2-15.432-.6-1.048-.086-2.07-.176-3.04-.274-3.727-.378-7.247-.875-10.459-1.477-1.182-.221-2.318-.456-3.377-.7A.642.642,0,0,1,305.836,305.948Zm-16.214,16.609a54.428,54.428,0,0,1-16.707,2.641l-6.753-.442a.458.458,0,0,1-.449-.415.451.451,0,0,1,.283-.517l8.734-2.834.016-.006,4.721-1.652,12.363,2.317Zm4.756-1.956L282.3,318.337l11.66-4.083,10.883,2.041Zm30.381-2.184a.743.743,0,0,0-.391-.2l-16.753-2.931L296.8,313.26l12.844-4.5c.441.082.9.157,1.352.235.342.059.676.121,1.024.177.511.083,1.039.16,1.563.238.34.05.671.1,1.016.153.584.082,1.183.157,1.781.233.3.038.59.08.893.116q1.359.164,2.758.306c.979.1,2.01.19,3.069.277,4.935.4,10.168.608,15.554.608a10.683,10.683,0,0,0,10.671-10.671V289.365c.9-1.1,4.252-5.539,4.252-10.191a.751.751,0,0,0-1.086-.671l-.308.155,1.268-1.9a.75.75,0,0,0-.624-1.166h-1.775l3.337-1.335h7.145l-2.292,4.584a.75.75,0,0,0,.671,1.085H369.3l.674,2.022-1.215-.608a.75.75,0,0,0-1.071.818l1.117,5.583-1.464-.732a.75.75,0,0,0-1.075.8l1.272,7.63H367a.749.749,0,0,0-.747.687c-.012.138-1.289,13.835-12.484,20.222h0q-.951.541-1.959,1t-2.06.812q-.889.3-1.846.551c-.128.033-.268.057-.4.089a37.424,37.424,0,0,1-6.166.93.75.75,0,0,0-.642.472l-1.6,4.041-.952,2.381h-3.11a.976.976,0,0,0-1.3,0h-.454Zm13.9,9.7a.75.75,0,0,0,.7-.471l.795-1.988L343.931,328a.757.757,0,0,0,.4.112h2.03l2.56,7.677-1.081,2.162h-.16a3.1,3.1,0,0,0-1.223-.25H341.8l-3.714-2.476-2.371-7.113Zm5.179,11.589h2.616a1.126,1.126,0,0,1,0,2.252,1,1,0,0,0,0,2,3.108,3.108,0,0,0,2.908-4.252h7.722a1.126,1.126,0,0,1,0,2.252,1,1,0,0,0,0,2,3.13,3.13,0,0,0,3.126-3.126,3.069,3.069,0,0,0-.172-.976,2.537,2.537,0,0,1-.828,4.937.986.986,0,0,0-.644.25H343.631a4.487,4.487,0,0,0,.206-5.337Z" fill="#1a1a1a"/>
    <path id="Path_546" data-name="Path 546" d="M352.495,292.6a.752.752,0,0,0,1.007-.335l2.834-5.67a.75.75,0,1,0-1.342-.67L352.16,291.6A.75.75,0,0,0,352.495,292.6Z" fill="#1a1a1a"/>
    <path id="Path_547" data-name="Path 547" d="M356.747,296.853a.752.752,0,0,0,1.007-.335l2.834-5.67a.75.75,0,1,0-1.342-.67l-2.834,5.669A.75.75,0,0,0,356.747,296.853Z" fill="#1a1a1a"/>
    <path id="Path_548" data-name="Path 548" d="M361,301.105a.751.751,0,0,0,1.006-.335l2.835-5.67a.75.75,0,0,0-1.342-.671l-2.834,5.67A.75.75,0,0,0,361,301.105Z" fill="#1a1a1a"/>
    <path id="Path_549" data-name="Path 549" d="M351.078,306.774a.748.748,0,0,0,1.006-.335l2.835-5.669a.75.75,0,1,0-1.342-.671l-2.835,5.669A.75.75,0,0,0,351.078,306.774Z" fill="#1a1a1a"/>
    <path id="Path_550" data-name="Path 550" d="M358.835,304.015a.751.751,0,0,0-1.006.336l-2.835,5.669a.75.75,0,1,0,1.342.671l2.835-5.669A.751.751,0,0,0,358.835,304.015Z" fill="#1a1a1a"/>
  </g>
</svg>