<?xml version="1.0" encoding="utf-8"?>
<svg width="800px" height="800px" viewBox="0 -12.19 103.547 103.547" xmlns="http://www.w3.org/2000/svg">
  <g id="Group_988" data-name="Group 988" transform="translate(-589.294 -307.909)">
    <path id="Path_667" data-name="Path 667" d="M675.083,314.328a1.417,1.417,0,1,0-1.417-1.417A1.418,1.418,0,0,0,675.083,314.328Z" fill="#1a1a1a"/>
    <path id="Path_668" data-name="Path 668" d="M692.665,313.845c-1.581-1.877-3.709-2.1-5.587-2.3a8.67,8.67,0,0,1-3.138-.711c-.253-.134-.5-.27-.752-.4-2.265-1.228-4.608-2.5-8.1-2.518H675a10.334,10.334,0,0,0-9.053,4.594l-.136.21c-1.741,2.693-4.371,6.762-7.98,7.991a94.053,94.053,0,0,0-25.464,14.564l-15.046,3.869L604,327.927a.75.75,0,1,0-.966,1.147l17.77,14.947.736.62,0,0,.494.416L620.7,346.4a.751.751,0,0,0,.53,1.281c.668,0,1.334,0,2-.01l.6-.009c.423,0,.843-.01,1.275-.018l16.208,13.634a4.652,4.652,0,0,1-1.079,2.3,2.5,2.5,0,0,1-1.417.728L617.693,346.5h0l-1.548-1.3-4.931-4.157h0l-7.139-6.02a.75.75,0,0,0-.967,1.147l6.027,5.082L589.857,346.2a.75.75,0,0,0-.409,1.181,9.857,9.857,0,0,0,8.158,3.614,15.5,15.5,0,0,0,3.983-.513l9.815-2.8c1.9,0,3.752.047,5.518.131l9.112,7.683-1.007.755a.751.751,0,0,0-.194.984c.2.334,1.1,1.372,4.547,1.372.108,0,.224,0,.337-.006l7.588,6.4a.984.984,0,0,0-.072.356,1,1,0,0,0,1,1,5.573,5.573,0,0,0,.617-.053l1.7,1.433a3.081,3.081,0,0,1-2.318.872,1,1,0,0,0,0,2,5,5,0,0,0,3.859-1.572l9.785,8.249a.983.983,0,0,0-.47.827,1,1,0,0,0,1,1,5.237,5.237,0,0,0,1.4-.2l1.314,1.108a3.148,3.148,0,0,1-.189.273,3.019,3.019,0,0,1-2.522,1.073,1,1,0,0,0,0,2,4.968,4.968,0,0,0,4.084-1.822c.058-.073.1-.155.16-.231l6.609,5.571a.749.749,0,0,0,.966-1.146l-6.855-5.78a11.282,11.282,0,0,0,.644-4,11.854,11.854,0,0,1,.478,3.572,1,1,0,0,0,2,0,16.246,16.246,0,0,0-.146-2.237l11.419,9.605a.75.75,0,1,0,.966-1.147l-13-10.937a6.188,6.188,0,0,0-2.259-3.053l-3.715-9.907h.068a.742.742,0,0,0,.327-.075c.18-.087,1.71-.932,1.832-4.468a16.529,16.529,0,0,0,6.057-5.437c11.039-4.091,16.212-15.2,16.549-15.945a13.246,13.246,0,0,0,1.5-6.005,14.767,14.767,0,0,0-.256-2.285c-.4-2.473-.9-5.552,1.875-8.973l0,0c.284-.351.578-.68.9-1,.408-.415.833-.8,1.283-1.178,1.2-.081,6.392-.484,8.52-1.468a.75.75,0,0,0,.258-1.164Zm-65.854,42.94.4-.3.621.523A5.809,5.809,0,0,1,626.811,356.785Zm40.263-43.258.135-.209a8.886,8.886,0,0,1,7.8-3.909h.075a14.369,14.369,0,0,1,7.266,2.267l-3.54,3.539a.75.75,0,0,0,.531,1.28h2.3l-.107.108c-.332.338-.651.7-.95,1.06-.039.034-.082.07-.122.106-.079.068-.156.135-.241.206-.049.041-.1.084-.155.127-.088.071-.174.143-.268.217-.059.046-.123.094-.184.14-.094.073-.186.144-.285.218-.067.049-.14.1-.21.15-.1.072-.2.145-.306.218-.076.052-.158.1-.236.156-.107.071-.211.142-.323.213-.087.056-.18.111-.271.166-.11.068-.218.136-.332.2-.1.057-.2.112-.3.169s-.226.128-.343.19-.223.112-.334.169-.233.12-.355.178-.239.107-.359.161-.243.112-.37.166-.259.1-.389.153-.25.1-.38.148-.281.1-.422.143-.254.088-.386.128-.3.084-.45.125c-.132.037-.262.076-.4.11-.154.038-.314.069-.471.1-.138.029-.273.063-.413.089-.166.031-.337.054-.507.08-.138.021-.273.047-.413.064-.2.025-.4.04-.6.058-.119.01-.234.026-.353.033q-.488.032-.991.032h-5a9.16,9.16,0,0,0-.927-.506c-.075-.036-.153-.065-.229-.1a8.959,8.959,0,0,0-.918-.353c-.1-.032-.2-.066-.3-.1a9.207,9.207,0,0,0-1.128-.256C663.64,318.838,665.64,315.744,667.074,313.527Zm11.585,7.4a12.813,12.813,0,0,0-.309,6.945,13.731,13.731,0,0,1,.236,2.046,12,12,0,0,1-1.122,4.9c-.168,0-.337-.009-.505-.017s-.354-.015-.529-.028c-.262-.02-.521-.049-.779-.079-.157-.018-.316-.032-.471-.054-.3-.043-.6-.1-.9-.155-.11-.021-.22-.036-.329-.059q-.606-.127-1.2-.3c-.092-.026-.182-.059-.273-.086-.3-.091-.607-.185-.906-.291-.142-.051-.281-.109-.422-.163-.245-.1-.49-.189-.731-.294-.155-.067-.307-.141-.46-.212-.224-.105-.448-.211-.669-.325-.157-.081-.312-.167-.467-.253-.125-.069-.248-.142-.372-.214.022-.088.043-.178.064-.269a9.792,9.792,0,0,0,.234-2.11c0-.255-.013-.523-.042-.843v0l-.017-.18c-.03-.275-.071-.544-.121-.795l-.032-.139c-.049-.231-.108-.458-.175-.683l-.006-.018-.008-.03-.034-.112h0q-.117-.366-.263-.718l-.084-.193c-.089-.2-.183-.4-.3-.631-.016-.032-.032-.065-.047-.092-.117-.213-.245-.42-.377-.621-.047-.072-.095-.144-.145-.216-.135-.193-.274-.382-.422-.563-.033-.042-.069-.082-.1-.122l-.048-.054c-.089-.1-.181-.206-.288-.32h3.186c.433,0,.855-.021,1.271-.052.127-.01.251-.024.377-.036.294-.029.583-.063.867-.106.128-.019.256-.038.382-.06.313-.053.618-.115.918-.184.076-.018.154-.032.229-.05.371-.09.732-.192,1.084-.3.089-.028.174-.058.262-.087.265-.088.525-.179.778-.276.107-.04.212-.082.316-.124.243-.1.479-.2.711-.3.083-.038.168-.074.249-.112.305-.144.6-.291.886-.442.036-.019.068-.039.1-.058.249-.134.488-.271.72-.409C678.6,320.963,678.63,320.946,678.659,320.928Zm-41.375,26.315.855,2.565c-.6-.147-1.2-.3-1.8-.446l-1.253-.311c-1.947-.481-4.2-1.021-6.814-1.494h.014c.111,0,.215-.009.324-.013.8-.03,1.594-.063,2.365-.1.3-.014.58-.033.872-.049.572-.032,1.145-.064,1.7-.1.324-.022.636-.047.954-.07.507-.038,1.013-.075,1.505-.116.324-.027.638-.057.956-.086l.295-.027A1.021,1.021,0,0,0,637.284,347.243Zm5.321,5.086c.067.013.136.024.2.036q.695.129,1.412.243c.172.028.35.054.525.08q.59.09,1.2.168l.578.073c.134.015.262.034.4.049q-2.667.942-5.059,1.674L640.979,352l.061.012C641.554,352.124,642.075,352.23,642.6,352.329Zm1.715,14.44a1,1,0,0,0,2,0c0-.47-.022-.907-.054-1.325L655.6,373.3a5.365,5.365,0,0,1-1.2,3.034,2.467,2.467,0,0,1-.727.5l-10.739-9.054a10.25,10.25,0,0,0,.9-4.382l.076.063A12.174,12.174,0,0,1,644.32,366.769Zm-3.012-7.456-2.614-2.2c.559-.146,1.136-.305,1.723-.472Zm-11.9-10.007c1.355.27,2.613.551,3.768.826l-1.473,1.105Zm7.868,6.618-4.394-3.7,2.182-1.635.9.224,1.434.356.492.12c.267.065.533.13.8.193l1.242,3.728C639.022,355.474,638.126,355.717,637.28,355.924Zm-11.926-9.789c-.785.016-1.551.027-2.31.033l.627-.627,1.691-1.691h0l.663-.664a70.454,70.454,0,0,1,7.158-6.648A92.776,92.776,0,0,1,658.2,322.164h1.29a7.721,7.721,0,0,1,4.283,1.293c.039.026.076.054.114.081l.074.053c.112.08.223.162.366.275.055.044.11.087.162.131q.216.182.413.375c.051.05.1.1.171.175.1.108.205.219.3.331l.129.148c.124.152.24.311.352.471.042.06.082.121.122.182.112.169.219.342.335.557l.037.071c.086.163.165.329.254.53l.056.13c.081.2.155.395.221.606l.006.02.033.112c.056.187.1.377.146.565l.027.118c.043.219.076.442.1.665l0,.037.012.119c.025.275.036.5.036.71a8.272,8.272,0,0,1-.2,1.783c-.058.256-.121.495-.2.729C663.287,343.716,639.322,345.861,625.354,346.135Zm4.377-8.64c-.142.126-.271.255-.411.381q-.866.777-1.687,1.563c-.21.2-.422.4-.627.6-.711.7-1.4,1.4-2.059,2.1l-.5.5-1.059.282-1.181.315-3.471-2.92Zm-28.557,11.546c-.065.019-6.109,1.72-9.747-1.695l19.115-4.916,2.488,2.1,1.047.883-2.221.592-.745.2h0l-.012,0Zm40.487,15.933c.025-.025.046-.053.07-.079a7.153,7.153,0,0,1-.38,1.549l-.79-.666A4.471,4.471,0,0,0,641.661,364.974Zm13.623,13.217a4.579,4.579,0,0,0,.551-.461c.024-.025.045-.053.069-.079a8.025,8.025,0,0,1-.177.914Zm-.3-7.376-9.077-7.635a6.8,6.8,0,0,0-2.589-4.167l-.98-2.94q3.762-1.152,8.18-2.811c.228.012.472.017.705.026l-.878,1.757a5.7,5.7,0,0,0,.04,6.5.753.753,0,0,0,.606.307h.63Zm-.07-14.642a.752.752,0,0,0-.421.674c0,2.383-.67,3.262-.911,3.5h-.536a.95.95,0,0,0-1.287,0h-.368a4.267,4.267,0,0,1,.21-4.482.79.79,0,0,0,.061-.1l1.213-2.427c.312,0,.628.007.951.007.61,0,1.217-.032,1.822-.078.173-.013.344-.031.515-.048.47-.047.936-.107,1.4-.181.149-.024.3-.044.449-.071.55-.1,1.1-.211,1.638-.349A17.769,17.769,0,0,1,654.912,356.173Zm6.376-5.621a22.078,22.078,0,0,1-7.464,1.294c-.477,0-.94-.006-1.395-.016-.688-.013-1.352-.038-1.995-.071a57.873,57.873,0,0,1-10.008-1.417l-1.185-3.553.037,0c.442-.049.881-.1,1.31-.151.3-.037.6-.075.891-.113q.629-.082,1.238-.169.429-.061.851-.125.6-.092,1.178-.187c.269-.045.537-.089.8-.135.386-.067.762-.137,1.135-.208.247-.046.494-.092.735-.14.379-.075.747-.153,1.113-.232.22-.047.444-.094.66-.142.379-.085.746-.174,1.112-.262.187-.046.379-.09.562-.136.409-.1.8-.21,1.193-.317.128-.035.261-.068.387-.1q1.542-.435,2.9-.912c.12-.042.232-.085.35-.128.326-.117.649-.234.959-.354.147-.057.286-.116.43-.173.269-.108.536-.216.794-.326.153-.066.3-.133.447-.2.236-.105.47-.21.7-.317.149-.07.293-.142.438-.213.213-.105.424-.211.629-.317.141-.074.279-.149.416-.224.195-.106.386-.212.573-.32.133-.077.264-.153.392-.231.18-.108.355-.216.526-.326.122-.078.244-.156.362-.234.167-.111.328-.223.487-.335.111-.078.223-.156.33-.235.156-.115.306-.23.454-.346.1-.077.2-.153.293-.231.148-.12.287-.24.426-.361.086-.075.175-.149.258-.224.147-.132.284-.265.421-.4.065-.063.134-.126.2-.189q.289-.291.551-.584l.008-.008c.177-.2.343-.4.5-.6.052-.065.1-.13.147-.2.1-.134.205-.268.3-.4.056-.079.106-.158.159-.238.081-.119.161-.239.235-.358.053-.085.1-.17.15-.254.067-.114.134-.228.2-.342.047-.087.09-.173.135-.26.056-.111.112-.222.163-.333.041-.088.08-.175.118-.262.025-.059.055-.119.08-.178.084.048.172.089.257.135.141.077.284.151.427.224.254.131.51.255.768.374.139.064.279.129.419.19.3.13.6.249.9.363.1.038.2.08.3.115.4.145.809.275,1.219.393.1.029.208.053.312.081.312.084.626.162.943.231.147.032.3.06.445.089q.423.081.85.146c.155.023.31.046.466.066q.45.055.906.091c.136.011.271.026.408.034.044,0,.088.009.133.012C675.172,339.19,670.127,347.387,661.288,350.552Zm22.3-35.557h-2.442l2.6-2.6a11.6,11.6,0,0,0,3.173.64,8.052,8.052,0,0,1,3.726,1A45.221,45.221,0,0,1,683.588,314.995Z" fill="#1a1a1a"/>
  </g>
</svg>