<?xml version="1.0" encoding="utf-8"?>
<svg width="800px" height="800px" viewBox="-9.21 0 76.618 76.618" xmlns="http://www.w3.org/2000/svg">
  <g id="Group_732" data-name="Group 732" transform="translate(-337.093 -832.269)">
    <path id="Path_566" data-name="Path 566" d="M367.607,840.1a1.417,1.417,0,1,0-1.417-1.417A1.416,1.416,0,0,0,367.607,840.1Z" fill="#1a1a1a"/>
    <path id="Path_567" data-name="Path 567" d="M394.006,855.166,381.612,867.56h0l-5.7,5.7-1.4,1.4-5.563,5.563a.985.985,0,0,0-.909.909l-1.9,1.9a1.107,1.107,0,0,1-1.03-.892.986.986,0,0,0,.648-.856l.509-.509a.984.984,0,0,0,.908-.909l10.246-10.245,4.441-4.441h0l13.205-13.206a.75.75,0,0,0-1.06-1.06l-12.318,12.318a26.168,26.168,0,0,0-2.09-5.07h0c-1.57-2.779-4.654-7.43-7.706-7.465l-.658-2.069c.427-1.121,2.622-6.355,6.293-6.355h5.5a1.455,1.455,0,0,0,1.428-1.146,1.433,1.433,0,0,0-.8-1.64,70.256,70.256,0,0,0-7.081-2.85,11.552,11.552,0,0,0-8.967-4.368h-9.921a.75.75,0,0,0-.75.75v4.347a12.447,12.447,0,0,0-1.534,2.416,13.6,13.6,0,0,0-1.274,5.476,11.607,11.607,0,0,0-3.341,2.265,12.83,12.83,0,0,0-3.773,9.59c0,7.526,5.512,12.4,7.988,14.213a41.375,41.375,0,0,0,8.745,8.663,460.611,460.611,0,0,1-2.094,3.277l-1.2,1.2a7.531,7.531,0,0,0-4.469,4.469l-18.671,18.671a.75.75,0,1,0,1.061,1.06l18.06-18.06a3.131,3.131,0,0,0,1.066,1.065l-15.935,15.935a.75.75,0,1,0,1.061,1.06l16.553-16.553a.986.986,0,0,0,.909-.909l.508-.509a.983.983,0,0,0,.909-.909l3.343-3.343a.983.983,0,0,0,.909-.909l.509-.508a.984.984,0,0,0,.908-.909l1.911-1.91h.08a24.244,24.244,0,0,0,1.944,3.461V906.72a.749.749,0,0,0,.987.711l3.958-1.319,2.556,1.278a.748.748,0,0,0,.671,0l2.5-1.249,2.5,1.249a.746.746,0,0,0,.67,0l2.557-1.278,3.957,1.319a.75.75,0,0,0,.934-.99l-8.45-21.126v-6.942a56.393,56.393,0,0,0-1-10.031l12.115-12.116a.75.75,0,0,0-1.06-1.06ZM379.18,880.374c-.247-.032-.492-.071-.733-.123-.1-.022-.2-.048-.3-.074q-.306-.075-.605-.172c-.1-.033-.2-.066-.3-.1-.21-.076-.415-.162-.619-.253-.078-.035-.159-.067-.236-.1a9.1,9.1,0,0,1-.806-.439c-.049-.03-.1-.066-.145-.1-.211-.135-.416-.277-.616-.429-.083-.064-.162-.131-.243-.2q-.246-.2-.478-.419c-.079-.075-.158-.15-.235-.228-.049-.049-.093-.1-.141-.155l2.569-2.569,3.122,5.394-.036,0C379.3,880.4,379.243,880.383,379.18,880.374Zm-6.538-1.724c.049.052.1.1.154.147.1.1.2.189.294.282.173.162.35.318.533.467.035.029.067.061.1.09a.977.977,0,0,0-.031.154v.418h-2.609ZM360.47,888.7a1.107,1.107,0,0,1-1.031-.892.985.985,0,0,0,.649-.856l.508-.509a.983.983,0,0,0,.909-.909l.6-.6A3.113,3.113,0,0,0,363.169,886Zm-2.118,1.128a.887.887,0,0,1-.075-.075C358.3,889.78,358.326,889.8,358.352,889.829Zm12.84-23.61,2.753,4.756-2.481,2.48c-.014-.057-.027-.114-.04-.172-.053-.234-.1-.471-.131-.708-.014-.1-.03-.2-.041-.3a9.122,9.122,0,0,1-.06-.993Zm-7.169,17.942c-.028-.025-.052-.05-.077-.077Zm14.27-25.262h0a25.936,25.936,0,0,1,2.2,5.531l-1.979,1.979-3.468,3.468-3.952-6.826-.4-.7-2.351-4.061a11.714,11.714,0,0,1-.037-1.3c0-.079,0-.155.009-.236,0-.1.014-.2.022-.309.013-.149.025-.3.045-.452.007-.055.018-.111.026-.167.028-.19.059-.38.1-.57.009-.041.022-.08.031-.121.047-.2.1-.39.163-.579.024-.069.056-.134.082-.2a4.862,4.862,0,0,1,.194-.455,3.673,3.673,0,0,1,.382-.6c.054-.068.118-.12.177-.182a2.882,2.882,0,0,1,.236-.244c.061-.05.131-.085.2-.13a2.734,2.734,0,0,1,.286-.19c.071-.037.153-.059.228-.09a2.845,2.845,0,0,1,.323-.127,3.546,3.546,0,0,1,.626-.115,4.323,4.323,0,0,1,.434-.022C373.49,852.194,375.955,854.763,378.293,858.9Zm-8.457-10.817c-.133.072-.265.141-.4.209-.152.079-.3.16-.455.234-.17.083-.337.159-.505.236-.148.069-.3.139-.444.2-.167.072-.331.138-.495.2-.144.059-.289.119-.432.174-.161.061-.32.117-.479.173-.139.05-.28.1-.417.147-.158.053-.312.1-.467.147-.133.041-.267.084-.4.121-.151.043-.3.081-.444.12-.129.034-.259.07-.384.1-.143.034-.279.064-.418.095-.122.027-.247.057-.366.081-.136.028-.265.051-.4.075-.114.021-.231.044-.342.063-.129.022-.251.039-.375.057-.1.015-.21.033-.31.046-.12.016-.232.028-.346.041-.1.011-.194.024-.286.033-.11.011-.212.018-.317.027l-.252.021c-.111.007-.212.012-.314.017l-.188.01c-.107,0-.2.006-.3.008l-.141,0h-.363l-.192-.005-.094,0c-.08,0-.147-.007-.2-.011a5.892,5.892,0,0,1-.658-.446c-.048-.037-.1-.074-.144-.112a7.031,7.031,0,0,1-.564-.508c-.021-.022-.04-.045-.061-.066-.161-.167-.311-.338-.453-.513-.035-.043-.07-.085-.1-.128-.148-.19-.288-.381-.416-.573-.024-.035-.045-.071-.068-.107-.111-.17-.215-.339-.31-.505-.021-.037-.044-.074-.065-.111-.1-.185-.2-.365-.282-.537-.019-.037-.036-.073-.053-.11-.073-.15-.139-.295-.2-.428l-.03-.067c-.062-.147-.115-.28-.161-.4l-.007-.019c.126-.084.251-.169.378-.249.157-.1.314-.2.472-.292.215-.126.432-.245.649-.362.156-.084.312-.171.47-.25.224-.113.448-.217.673-.321.152-.07.3-.144.457-.21.239-.1.477-.2.716-.291.137-.054.275-.113.412-.163.278-.1.553-.2.827-.286.1-.032.2-.069.292-.1.363-.115.723-.22,1.076-.316.146-.039.286-.071.429-.107.209-.053.418-.107.621-.154.168-.038.33-.07.494-.1s.341-.073.506-.1.336-.061.5-.089c.145-.025.292-.052.432-.074.169-.026.331-.049.492-.072.124-.017.248-.035.367-.05.161-.021.316-.039.467-.056.1-.011.205-.023.3-.032l.432-.041.238-.019c.137-.01.269-.02.39-.027l.163-.009.346-.017.076,0c.24-.009.419-.011.509-.011h4.746A14.956,14.956,0,0,0,369.836,848.082Zm-14.162-3.744a11.912,11.912,0,0,1,.92-3.557c.005,0,.008-.01.014-.013a.738.738,0,0,0,.293-.259,9.643,9.643,0,0,1,7.872-3.906c.441,0,.857.023,1.261.055l.309.028c.358.036.706.081,1.034.138.03.005.062.008.093.014.355.064.687.141,1.005.224.082.021.161.043.24.065.27.076.528.157.77.242.038.013.079.025.115.038.272.1.523.2.759.308.059.026.115.052.172.079.193.09.375.18.543.27.033.017.07.035.1.053.19.1.362.207.518.306l.106.068c.124.082.239.16.338.232l.044.031-2.6,1.56-.762.458h-.126c-.087,0-.187,0-.3.007l-.282.009-.264.014-.292.016-.318.024c-.113.008-.227.017-.35.028l-.36.035-.415.045-.386.047c-.161.021-.327.045-.5.07-.129.019-.255.036-.389.058-.209.033-.427.072-.646.112-.105.019-.2.035-.311.056q-.488.093-1,.211c-.1.023-.2.05-.3.074-.253.061-.507.124-.768.194-.133.036-.269.077-.4.116-.234.067-.468.136-.7.211-.147.047-.3.1-.444.146-.233.079-.467.161-.7.248-.15.056-.3.112-.451.171-.244.1-.488.2-.734.3-.142.061-.283.12-.425.184-.283.128-.564.267-.846.409-.1.052-.208.1-.312.154C356.413,843.91,356.042,844.116,355.674,844.338Zm21.854-3.565h-5.8l2.108-1.265,2.359-1.415a68.33,68.33,0,0,1,6.664,2.68Zm-2.553-3.7-.433.259-.983.59-.024-.019c-.1-.084-.216-.182-.365-.3l-.058-.043q-.221-.165-.511-.356c-.025-.016-.044-.03-.07-.046-.2-.131-.438-.267-.692-.405-.051-.028-.1-.055-.153-.082-.265-.139-.552-.277-.867-.413l-.154-.062c-.322-.133-.664-.262-1.036-.381l-.074-.025c-.381-.119-.8-.225-1.23-.32-.084-.018-.167-.037-.253-.054-.437-.088-.9-.161-1.387-.215-.088-.01-.179-.016-.269-.024-.522-.05-1.064-.084-1.643-.084-.345,0-.677.016-1,.042-.112.009-.217.026-.326.038-.208.023-.416.045-.616.078-.123.02-.239.046-.359.07-.177.034-.353.069-.523.111-.121.029-.237.063-.354.1-.159.045-.317.09-.469.141-.017.005-.035.009-.052.015.148-.091.293-.19.442-.274.076-.043.151-.09.227-.131q.54-.289,1.088-.518c.084-.035.169-.065.253-.1q.45-.177.9-.317c.091-.028.182-.059.273-.085.361-.105.719-.194,1.07-.264.056-.012.111-.019.168-.029.3-.056.6-.1.889-.132.09-.01.179-.02.268-.027.33-.03.654-.049.96-.049A10.139,10.139,0,0,1,374.975,837.078Zm-16.539-3.309h2.984c-.116.058-.22.134-.335.2-.325.174-.643.357-.953.555-.174.112-.344.226-.513.344-.3.212-.589.437-.871.671-.1.084-.214.154-.312.241Zm-9.922,23.344a11.58,11.58,0,0,1,2.669-7.851c-.1.23-.189.473-.278.727-.009.026-.018.055-.026.08-.1.287-.193.592-.281.91-.028.1-.055.2-.082.307q-.111.43-.207.9c-.017.087-.037.17-.054.259-.076.4-.141.814-.2,1.251-.014.1-.023.212-.035.317q-.062.537-.1,1.114c-.009.138-.019.276-.026.418-.027.5-.046,1.019-.046,1.568,0,.527.029,1.054.071,1.581.011.128.022.257.035.386.052.523.118,1.047.212,1.571.005.03.013.061.019.092.091.5.206,1,.335,1.494.033.128.067.256.1.383.145.52.305,1.04.491,1.559.019.054.042.107.062.161.175.478.37.954.58,1.431.054.123.108.247.165.371.046.1.087.2.135.3A14.888,14.888,0,0,1,348.514,857.113Zm7.628,13.233c-3.181-4.363-4.793-8.815-4.793-13.233,0-.489.016-.95.038-1.4.007-.13.016-.256.024-.383q.031-.493.081-.953c.012-.109.022-.221.035-.327.047-.392.1-.768.165-1.122.008-.044.018-.084.026-.128.058-.311.122-.606.19-.888.024-.095.048-.188.072-.28.063-.24.13-.471.2-.692.021-.066.041-.136.062-.2.092-.276.188-.537.287-.78.017-.042.035-.079.052-.119.085-.2.172-.394.26-.575.029-.058.057-.114.086-.17.089-.175.18-.342.272-.5.015-.026.03-.055.046-.08.11-.183.22-.35.329-.5.015-.022.031-.042.046-.063q.141-.2.278-.363c.02-.023.04-.048.059-.071a6.064,6.064,0,0,1,.529-.554c.006.015.016.034.022.049.066.159.139.327.224.51l.009.017c.081.173.174.357.274.547l.088.162c.093.17.192.343.3.519.023.038.044.075.068.113q.2.312.422.627c.038.053.078.1.117.156q.19.254.4.5c.045.053.088.106.135.159.182.2.374.4.579.6.037.035.078.067.116.1.176.16.362.312.555.459.064.048.128.1.194.142a7.039,7.039,0,0,0,.759.477.738.738,0,0,0,.271.084l.1.009.07.006.137.009.106.005c.063,0,.126.007.2.009l.148,0,.26,0h.1c.192,0,.408-.006.643-.016l.153-.007c.268-.013.561-.035.876-.065l.2-.022c.3-.031.617-.072.953-.124.047-.007.09-.012.138-.02.367-.059.756-.134,1.159-.221l.278-.063c.422-.1.855-.2,1.31-.337l.034-.011c.438-.129.893-.283,1.357-.451l.321-.119c.476-.18.961-.379,1.457-.6.073-.034.148-.072.222-.107.254-.119.507-.236.766-.368l.379,1.193-.014.005c-.022.007-.041.017-.063.024a4.327,4.327,0,0,0-.684.275c-.072.036-.141.077-.211.118a4.078,4.078,0,0,0-.481.323c-.062.048-.126.095-.186.147a4.43,4.43,0,0,0-.563.581c-1.815,2.285-1.336,6.1-1.315,6.266a.736.736,0,0,0,.1.277l2.734,4.722v7.658c0,.311.016.619.043.927.008.1.025.2.036.3.025.207.051.414.087.619.021.117.048.232.072.348.04.187.082.374.133.56.032.121.068.24.105.36.028.09.049.183.08.273l-4.126,4.125a3.113,3.113,0,0,0-1.131.234A40.236,40.236,0,0,1,356.142,870.346Zm18.552,11.862a1,1,0,0,0,1-1v-.329c.037.018.072.04.11.058a10.789,10.789,0,0,0,1,.41c.1.036.208.063.311.1.243.078.488.15.737.21.13.032.262.057.394.084.23.046.462.086.7.117.137.018.274.035.413.048.085.008.169.024.255.03V892.48a34.77,34.77,0,0,1-7.13-7.448,23.46,23.46,0,0,1-1.657-2.824Zm12.993,22.383a.755.755,0,0,0-.573.04l-2.5,1.25-2.5-1.25a.752.752,0,0,0-.671,0l-2.5,1.25-2.5-1.25a.75.75,0,0,0-.573-.04l-3.265,1.088V887.717l.02.023c.059.074.119.144.178.217.169.205.337.409.507.607.087.1.174.2.261.3.143.163.287.325.43.482.093.1.186.2.279.3.137.147.273.292.41.432.093.1.186.193.28.288.135.136.268.269.4.4.09.089.179.176.268.262.137.132.27.258.4.383l.242.227c.147.134.288.261.43.387.061.055.125.114.185.167.2.174.39.34.574.5.043.037.082.068.125.1.143.12.283.237.417.345l.183.148c.1.083.207.166.3.242l.185.144.244.187.168.127.2.146.135.1.161.116.1.068c.049.035.086.06.121.084l.052.036.081.056a.745.745,0,0,0,.357.117c.012,0,.022.005.034.005s.017,0,.025,0a.75.75,0,0,0,.75-.75V883.356l1.408,2.433L390.4,905.5Zm-5.239-26.218v4.294l-1.436-2.479-3.632-6.275,4.281-4.282A54.119,54.119,0,0,1,382.448,878.373Z" fill="#1a1a1a"/>
  </g>
</svg>