<?xml version="1.0" encoding="utf-8"?>
<svg width="800px" height="800px" viewBox="0 -4.25 44.019 44.019" xmlns="http://www.w3.org/2000/svg">
  <path id="Path_739" data-name="Path 739" d="M866.931,820.786l-3.305-1.889-6.469-3.695A44.1,44.1,0,0,0,844.9,802.859l1.135-6.81a.75.75,0,1,0-1.48-.247l-1.216,7.3h0l-.964,5.786h0l-.237,1.418-1.486,8.922a1.371,1.371,0,0,1-.578.02,1.343,1.343,0,0,1-.676-.379l.4-2.379a.752.752,0,0,0,.084-.5l3.322-19.936a.75.75,0,1,0-1.479-.247l-.784,4.7c-2.989-2.612-5.77-4.259-8.269-4.872a7.31,7.31,0,0,0-6,.841,6.284,6.284,0,0,0-1.806,1.818l-1.355,1.355a.751.751,0,0,0,.034,1.093,8.4,8.4,0,0,0,2.94,1.5,11.133,11.133,0,0,1,2.533,3.9c.207.494.42.974.635,1.426,2.057,4.343,4.577,6.831,8.533,8.442a2.81,2.81,0,0,0-.367,3.245l-.308,1.849a.685.685,0,0,0-.2.084,2.874,2.874,0,0,0-.769,3.993,2.822,2.822,0,0,0,.241.291l-.726,4.352a.75.75,0,0,0,1.48.246l.624-3.742c.073.021.143.051.218.065a2.948,2.948,0,0,0,.551.053,2.815,2.815,0,0,0,.534-.057l-.572,3.435a.75.75,0,0,0,.616.863.766.766,0,0,0,.125.01.748.748,0,0,0,.738-.626l1.1-6.59,4.247-2.831a.75.75,0,0,0,.255-.96l-.486-.971,2.468.617a.75.75,0,0,0,.893-.965l-.061-.182a7.263,7.263,0,0,0,2.96-.792l4.067,3.389,3.181,2.651a.752.752,0,0,0,.363.164,12.817,12.817,0,0,0,2,.162,8.981,8.981,0,0,0,5.7-1.754.751.751,0,0,0-.121-1.217Zm-12.679-7.05-.367-.183-9.935-4.968.684-4.108A41.763,41.763,0,0,1,854.252,813.736Zm-14.393-8.806c-.048-.085-.1-.167-.142-.255-.074-.146-.141-.3-.207-.456-.034-.081-.073-.158-.1-.241a6.665,6.665,0,0,1-.394-1.591c0-.014,0-.029,0-.042h1.624l-.5,3.034c-.016-.025-.033-.047-.049-.072C840,805.187,839.931,805.058,839.859,804.93Zm-9.05-8.065-.007.005a7.432,7.432,0,0,1-1.135.707l-.025.011c-.176.087-.349.165-.518.231l-.04.014c-.164.063-.325.119-.481.165l-.023.005c-.161.047-.318.086-.469.117l-.013,0q-.231.047-.444.072h-.017c-.139.017-.272.027-.4.033h-.053c-.109,0-.215.005-.314,0h-.012A5.177,5.177,0,0,1,830.809,796.865Zm-5.205,2.808,1.421.71-.35.351a7.8,7.8,0,0,1-1.47-.662Zm2.348,1.905.87-.87a.741.741,0,0,0,.079-.962.664.664,0,0,0-.082-.077.74.74,0,0,0-.144-.136c.076-.018.154-.042.232-.064l.133-.036q.323-.094.66-.228l.076-.029a.7.7,0,0,0-.067.293.708.708,0,0,0,1.417,0,.7.7,0,0,0-.545-.676c.23-.125.464-.269.7-.426l.168-.116c.246-.173.493-.357.741-.57l.023-.02c.169-.145.338-.3.508-.462a18.686,18.686,0,0,1,6.313,3.646h-.82l-.062,0-.1.01-.065.008-.155.02-.111.018-.207.033-.157.03c-.081.015-.162.031-.252.05l-.193.044c-.094.021-.19.045-.291.071l-.226.06c-.105.029-.213.062-.324.1-.082.025-.161.05-.246.078-.119.039-.242.083-.366.129-.083.03-.163.058-.248.091-.138.054-.279.115-.421.176-.075.033-.149.063-.226.1q-.3.137-.6.3l-.068.034q-.334.183-.671.4c-.064.042-.127.09-.192.134-.158.107-.315.216-.471.335-.081.063-.16.132-.24.2-.137.112-.272.225-.405.348-.085.078-.167.162-.25.245-.124.123-.246.25-.365.383-.083.093-.163.191-.244.289-.113.138-.222.281-.329.43-.077.107-.152.216-.226.328-.044.068-.092.128-.135.2A13.261,13.261,0,0,0,827.952,801.578Zm3.2,5.651c.023-.053.047-.1.071-.156a7.452,7.452,0,0,1,.515-.95c.02-.031.038-.067.058-.1a7.359,7.359,0,0,1,.677-.853c.056-.062.114-.123.171-.182a7.817,7.817,0,0,1,.749-.685l.06-.043a8.38,8.38,0,0,1,.757-.52c.061-.037.122-.076.184-.112.262-.152.524-.291.781-.41.048-.022.094-.04.141-.061.228-.1.452-.191.667-.269l.15-.055c.236-.081.462-.15.672-.208l.146-.038c.178-.046.346-.085.495-.116l.058-.013c0,.031.01.059.014.089.01.091.028.178.041.267.032.211.069.418.115.619.023.1.05.2.077.3q.075.274.165.536c.032.092.063.184.1.274.072.185.149.362.23.535.031.066.059.135.091.2.116.232.238.455.367.666.023.038.048.072.072.109.108.172.218.338.332.5.048.066.1.128.144.192.093.122.185.24.279.352.051.063.1.123.154.182.035.04.07.085.1.124l-.15.9-1.046,6.275C835.153,813.14,833,811,831.156,807.229Zm8.537,17.474a1.372,1.372,0,0,1-1.032.211,1.338,1.338,0,0,1-.251-.1l.72-4.318a2.725,2.725,0,0,0,1.215.276c.018,0,.035,0,.054,0l-.653,3.914C839.729,824.69,839.71,824.691,839.693,824.7Zm4.639-4.94-2.526,1.684.2-1.233a.738.738,0,0,0,.157-.941l.222-1.333,1.178.294Zm3.1-5.65a.75.75,0,1,0-1.423.475l.683,2.049c-.4-.046-.811-.1-1.246-.188-.979-.19-1.871-.382-2.706-.584l.955-5.732,8.885,4.443c-.01.017-.022.032-.031.049a3.719,3.719,0,0,1-.409.579c-.044.052-.089.1-.136.151a3.608,3.608,0,0,1-.584.507l-.007.006h0a5.707,5.707,0,0,1-3.113.85Zm5.879,2.022c.058-.069.122-.132.176-.2a5.391,5.391,0,0,0,.405-.633c.009-.017.021-.032.03-.049h0l2.364,1.181,4.923,2.813-.2.028c-.271.038-.545.071-.821.1-.106.01-.211.021-.317.029-.333.027-.666.048-.994.061l-.068,0c-.368.013-.728.018-1.079.019l-.229,0c-.262,0-.516-.005-.76-.012l-.162-.005L853,816.488C853.113,816.378,853.208,816.254,853.307,816.135Zm6.484,6.009-1.4-1.17c.136,0,.279-.013.418-.018.166-.006.329-.012.5-.022.325-.017.65-.044.979-.074.138-.013.274-.022.413-.038.459-.052.914-.117,1.358-.2.081-.016.155-.038.234-.055.3-.062.595-.125.876-.205l1.934,1.105A9.138,9.138,0,0,1,859.791,822.144Z" transform="translate(-823.29 -795.174)" fill="#1a1a1a"/>
</svg>