<?xml version="1.0" encoding="utf-8"?>
<svg width="800px" height="800px" viewBox="-42.23 0 139.816 139.816" xmlns="http://www.w3.org/2000/svg">
  <path id="Path_725" data-name="Path 725" d="M1131.6,812.933h-8.7c.058-.592.1-1.2.142-1.81,0-.067.011-.13.015-.2q.064-1.065.09-2.162h8.452a.75.75,0,0,0,0-1.5h-8.438a75.618,75.618,0,0,0-1.183-12.706,109.107,109.107,0,0,0-3.83-15.1,70.7,70.7,0,0,0-2.556-7.557,55.25,55.25,0,0,0-3.274-6.879h0c-.143-.249-.288-.5-.436-.741v0a27.154,27.154,0,0,0-3.394-4.589,12.24,12.24,0,0,0-5-3.414c-8.405-2.727-13.61,1.716-14.724,2.8-9.6.155-11.484,2.887-11.667,3.2a.75.75,0,0,0,.5,1.112l13.8,2.76a21.022,21.022,0,0,1,1.174,3.422,12.937,12.937,0,0,1,.05,7.024l-.029.091a26.883,26.883,0,0,0-1.423,10.112,19.284,19.284,0,0,0,.435,2.949,26.98,26.98,0,0,0,7.588,12.995l.405,1.349-5,1.25h-5.514a1.249,1.249,0,0,0-1.25,1.25,1.211,1.211,0,0,0,.22.667h-8.892a.75.75,0,0,0,0,1.5h17.156a2.251,2.251,0,0,1,.23.313c.525.866.509,2.2-.031,3.856h-17.355a.75.75,0,0,0,0,1.5h17.454a1.213,1.213,0,0,0,.55.427,1.242,1.242,0,0,0,1.419-.427h4.114l3.229,10.764.863,2.875a.749.749,0,0,0,.718.534.759.759,0,0,0,.284-.055,14.357,14.357,0,0,0,1.8-.949v39.939a.747.747,0,0,0,.268.574,4.758,4.758,0,0,0,1.858.929v9.579a28.09,28.09,0,0,0-5.179,9.079v0a9.438,9.438,0,0,0-.49,2.513.8.8,0,0,0,.02.174,6.456,6.456,0,0,0,6.4,4.83,6.993,6.993,0,0,1,4.252,0,6.456,6.456,0,0,0,6.4-4.83.778.778,0,0,0,.019-.192,10.125,10.125,0,0,0-.508-2.48,28.372,28.372,0,0,0-5.161-9.095v-9.513a3.479,3.479,0,0,0,1.912-1.045.75.75,0,0,0,.214-.525V825.229c.482-.833,2.285-4.312,3.13-10.8h8.876a.75.75,0,0,0,0-1.5Zm-9.947-6.686c-.1-.047-.2-.093-.293-.14-.064-.033-.133-.065-.193-.1a7.729,7.729,0,0,1-.928-.581c-.037-.027-.068-.052-.1-.078-.083-.063-.162-.125-.23-.182l-.086-.074c-.059-.053-.115-.1-.16-.145-.018-.018-.038-.036-.053-.052-.044-.043-.082-.082-.109-.11l-.019-.021c-.027-.029-.045-.051-.048-.054a.429.429,0,0,0-.044-.04.688.688,0,0,0-.093-.087.642.642,0,0,0-.07-.047.4.4,0,0,0-.041-.024c-.01-.005-.017-.013-.028-.018s-.036-.009-.054-.016a.669.669,0,0,0-.1-.028.656.656,0,0,0-.074-.016l-.014,0c-.012,0-.024,0-.037,0-.03,0-.06,0-.091,0a.746.746,0,0,0-.124.021c-.019.005-.039.005-.058.011h-.007c-.011,0-.019.011-.029.015a.812.812,0,0,0-.116.062.652.652,0,0,0-.078.05c-.008.006-.016.008-.023.014a14.74,14.74,0,0,1-4.364,2.7,9.165,9.165,0,0,1-6.715,0,11.226,11.226,0,0,1-1.188-.541c-.134-.069-.256-.152-.386-.226-.242-.139-.488-.274-.718-.425-.148-.1-.284-.205-.427-.307-.2-.141-.4-.278-.586-.425-.145-.113-.277-.232-.415-.349-.17-.143-.345-.284-.5-.429-.136-.123-.257-.247-.385-.371-.147-.141-.3-.282-.435-.423s-.233-.25-.348-.375-.254-.271-.369-.4-.2-.239-.3-.358-.214-.253-.309-.371-.163-.211-.243-.314-.148-.193-.214-.282l-3.686-12.285c1.527-1.8,3.005-3.447,4.4-4.907.433-.454.853-.882,1.265-1.295l.278-.275c.365-.362.724-.711,1.072-1.039.034-.031.07-.066.1-.1.833-.78,1.613-1.462,2.334-2.035a17.463,17.463,0,0,1,2.121-1.479l.045-.026a7.287,7.287,0,0,1,.975-.474l.05-.017c.111-.041.214-.075.31-.1l.1-.025c.077-.02.149-.035.216-.046.027,0,.055-.01.081-.013a1.9,1.9,0,0,1,.235-.018,10.824,10.824,0,0,1,1.3.081c.047.005.1.009.143.015a10.088,10.088,0,0,1,1.076.2l.168.043a8.938,8.938,0,0,1,.906.292c.05.018.1.038.146.057.274.111.532.228.764.349.033.017.064.035.1.053.235.126.454.255.644.381l.02.014c.19.127.355.25.5.366.017.013.036.027.051.04.136.11.25.211.345.3l.054.051c.081.079.148.147.194.2l.017.018a107.5,107.5,0,0,1,3.74,14.771A75.4,75.4,0,0,1,1121.651,806.247Zm-4.762,37.663c-.067.012-.134.028-.2.039-.409.064-.821.106-1.235.133l-.113,0v-21.46c.126-.15.233-.317.355-.47.338-.425.67-.854.979-1.3.143-.209.276-.426.413-.639.295-.456.58-.919.845-1.4.05-.091.111-.174.16-.265v25.087c-.058.016-.116.033-.175.048C1117.577,843.777,1117.235,843.851,1116.889,843.91Zm3.831,44.114c-.043.036-.084.075-.128.109a6.337,6.337,0,0,1-.718.482c-.06.035-.123.065-.185.1a6.3,6.3,0,0,1-.635.295c-.068.027-.134.056-.2.081-.037.013-.077.02-.114.032-.03-.147-.07-.319-.113-.495-.01-.043-.016-.077-.027-.122-.061-.238-.133-.5-.221-.785-.053-.169-.113-.352-.18-.546-.016-.044-.035-.094-.051-.139-.055-.154-.111-.309-.175-.477-.028-.071-.061-.148-.09-.221-.059-.15-.119-.3-.187-.46-.04-.093-.086-.192-.128-.288-.067-.151-.133-.3-.207-.46-.051-.109-.108-.224-.163-.337-.076-.155-.151-.309-.233-.471-.064-.126-.135-.256-.2-.386-.084-.158-.168-.316-.259-.479-.078-.141-.163-.286-.247-.431-.093-.161-.188-.323-.288-.489s-.192-.312-.291-.471c-.064-.1-.121-.2-.187-.3.384-.556.8-1.117,1.229-1.676a27.027,27.027,0,0,1,4.335,7.632C1120.941,887.822,1120.835,887.929,1120.72,888.024Zm-4.326.059c-.123.1-.251.19-.381.278-.083.057-.165.115-.251.167-.146.09-.3.171-.453.249-.075.038-.148.081-.225.116a6.335,6.335,0,0,1-.719.28,6.2,6.2,0,0,1-3.161.165,6.433,6.433,0,0,1-.908-.26c-.1-.036-.193-.085-.29-.126-.191-.081-.38-.163-.562-.262-.108-.059-.211-.129-.315-.194-.161-.1-.32-.2-.472-.319-.1-.078-.2-.163-.3-.248s-.164-.151-.245-.228a26.693,26.693,0,0,1,4.35-7.614c.537.7,1.038,1.393,1.5,2.083.208.313.4.617.585.914.06.1.113.191.171.288.117.194.234.388.34.575.064.113.123.221.183.331.09.164.18.327.263.484.058.111.113.219.167.328.075.147.148.292.215.433.052.106.1.211.149.314q.092.2.176.39c.044.1.087.2.127.294.051.121.1.237.144.351.037.091.074.184.108.271.04.107.077.208.113.309.031.084.063.17.09.249l.008.024c-.055.052-.107.106-.164.155C1116.556,887.95,1116.476,888.018,1116.394,888.083Zm-.428-9.46c-.488.609-.945,1.219-1.38,1.829-.432-.61-.886-1.22-1.372-1.828v-9.513a3.343,3.343,0,0,0,1.414-.624,4.815,4.815,0,0,0,1.338.557Zm-3.473-34.674c-.067-.011-.134-.027-.2-.039-.346-.059-.689-.133-1.029-.22l-.175-.048V826.6c.1-.074.2-.16.3-.237q.448-.336.883-.7.234-.193.463-.4.42-.367.824-.758c.091-.088.19-.168.28-.258v19.825l-.112,0C1113.314,844.055,1112.9,844.013,1112.493,843.949Zm-4.3-21.121c-.163.134-.327.261-.491.391-.219.175-.439.338-.659.506l-3.078-10.257h0l-1.7-5.669h0l-.677-2.258a1.266,1.266,0,0,0,.06-.19l.064.058c.2.192.409.38.627.571.145.126.29.249.441.373.234.191.478.374.728.557.156.115.308.229.47.339.282.191.579.368.88.544.148.085.287.177.439.258a13.012,13.012,0,0,0,1.434.664,10.992,10.992,0,0,0,2.559.644c.114.015.229.038.343.049.064.006.127,0,.191.009a10.821,10.821,0,0,0,4.691-.7c.333-.126.666-.272,1-.431.106-.05.212-.108.318-.162.228-.115.455-.235.682-.366.123-.07.244-.144.366-.219q.322-.2.644-.413c.12-.082.24-.163.36-.248.068-.048.136-.091.2-.141v5.3l-.064.1-.1.152c-.06.088-.132.192-.211.3l-.1.139c-.108.154-.226.319-.363.507-.663.909-1.76,2.338-3.223,3.98a52.918,52.918,0,0,1-4.192,4.21C1109.3,821.916,1108.748,822.379,1108.2,822.828Zm7.6-45.38c-.088-.049-.172-.1-.264-.148s-.188-.091-.282-.137-.182-.091-.28-.135-.22-.09-.331-.135-.189-.08-.29-.118c-.121-.045-.252-.085-.38-.127-.1-.033-.2-.068-.3-.1-.141-.042-.294-.077-.443-.115-.1-.025-.194-.053-.3-.076-.162-.036-.335-.063-.505-.093-.1-.017-.195-.039-.3-.054-.2-.029-.4-.047-.607-.067-.087-.008-.168-.021-.257-.028-.3-.021-.607-.033-.927-.033a3.315,3.315,0,0,0-.424.029c-.089.012-.183.034-.275.053-.059.012-.114.019-.174.034-.11.027-.225.065-.34.1-.047.015-.092.026-.14.043-.11.039-.224.087-.339.134-.059.025-.117.046-.177.073-.1.043-.2.094-.3.143s-.172.082-.261.129c-.073.039-.15.084-.225.126-.124.07-.248.139-.376.217-.042.025-.086.054-.128.08-.17.106-.343.217-.521.337l-.006,0q-.308.209-.631.445c-.1-.213-.205-.426-.3-.639-.11-.25-.222-.5-.322-.751-.153-.38-.286-.761-.415-1.142-.079-.235-.167-.471-.238-.707-.128-.426-.23-.851-.329-1.277-.044-.19-.1-.38-.138-.57-.123-.612-.218-1.222-.28-1.831v-6.542c.147.009.285.013.437.025q.157.012.315.027c.179.016.373.043.559.064.084.1.187.219.279.327s.194.229.3.355c.15.174.316.358.483.544.126.141.245.275.38.422.178.194.372.4.565.6.143.15.278.295.428.448.217.221.451.447.683.673.147.144.285.284.438.428.29.275.6.551.91.828.111.1.212.2.325.294.429.372.876.743,1.339,1.106.118.093.244.18.365.271.35.268.7.534,1.07.79.181.126.371.241.556.364.284.188.562.381.855.559.745,1.884,1.327,3.6,1.731,4.876C1115.954,777.53,1115.875,777.489,1115.8,777.448Zm-16.676-8.291c-.212-.041-.418-.075-.628-.11-.338-.057-.67-.107-1-.149-.218-.029-.435-.059-.648-.081-.4-.042-.78-.074-1.156-.1-.26-.017-.506-.03-.754-.04-.29-.012-.573-.023-.844-.027-.072,0-.155-.007-.225-.007a23.088,23.088,0,0,0-.758-2.265h.007q.332.048.728.122h0c.2.038.418.086.636.135.113.025.226.05.345.079.167.04.342.088.516.135s.354.1.539.155c.139.042.281.089.424.136q.354.117.721.258c.113.043.226.088.34.134.28.114.562.242.845.378.092.044.184.087.275.133.306.156.61.329.911.513.073.044.147.085.219.131a11.558,11.558,0,0,1,.975.7c.037.03.076.054.113.084.019.016.036.036.055.053l-.008,0C1100.208,769.378,1099.664,769.26,1099.126,769.157Zm-7.979-6.878c-.141-.161-.268-.319-.387-.476-.04-.053-.087-.107-.125-.159a5.844,5.844,0,0,1-.388-.614c-.024-.044-.039-.086-.061-.13a4.052,4.052,0,0,1-.166-.378,50.074,50.074,0,0,1,9.971.619c.215.037.423.078.634.118.26.048.519.094.781.149.145.03.284.065.427.1a27.207,27.207,0,0,1,6.06,2.044l.04.021c-.207-.043-.408-.078-.61-.115h0a22.938,22.938,0,0,0-8.382-.132l-.023,0-.074.017-.015,0h0a.733.733,0,0,0-.2.1.864.864,0,0,0-.11.055.744.744,0,0,0-.123.168.711.711,0,0,0-.084.113.749.749,0,0,0,.048.678l1.586,2.644c-.051-.03-.1-.051-.156-.08a16.315,16.315,0,0,0-2.548-1.165l-.077-.027a19.847,19.847,0,0,0-2.576-.721c-.316-.205-.622-.41-.909-.616-.059-.042-.111-.084-.169-.126q-.368-.269-.7-.536c-.093-.074-.178-.149-.267-.223-.176-.148-.347-.295-.507-.442-.087-.079-.171-.159-.253-.238-.15-.144-.29-.287-.424-.43C1091.284,762.428,1091.212,762.353,1091.147,762.279Zm21.73,7.628q-.505-.381-.986-.771c-.183-.15-.366-.3-.543-.45q-.492-.42-.952-.842c-.141-.129-.288-.258-.424-.386-.421-.4-.825-.791-1.2-1.173l-.026-.025c-.388-.4-.744-.78-1.076-1.146-.021-.024-.039-.045-.061-.069.034.007.065.01.1.018.222.046.443.106.664.158.361.085.718.164,1.093.268.212.059.423.133.635.2.348.106.7.212,1.056.336.71,1.261,1.4,2.648,2.07,4.144C1113.11,770.08,1112.993,769.994,1112.877,769.907Zm-10.375-1.451-2.286-3.811a21.131,21.131,0,0,1,2.286-.118Zm6.212-6.176c-.092-.046-.194-.085-.287-.13q-.507-.245-1.04-.47c-.168-.072-.335-.144-.508-.212-.416-.167-.846-.323-1.285-.473-.132-.045-.26-.092-.394-.135-.512-.167-1.041-.321-1.583-.466l-.234-.065q-.945-.246-1.945-.448l-.009,0,2.017-2.022a11.268,11.268,0,0,1,3.947,2.863Q1108.056,761.425,1108.714,762.28Zm-6.893-4.92-2.2,2.2-.153-.022c-.179-.027-.36-.052-.542-.077-.55-.077-1.092-.144-1.62-.2-.045-.005-.087-.012-.132-.016-.6-.061-1.177-.107-1.736-.144l-.19-.012c-.222-.014-.441-.026-.655-.037l-.313-.015-.463-.018c-.69-.024-1.332-.036-1.9-.036-.232,0-.454,0-.663.005A12.9,12.9,0,0,1,1101.821,757.36Zm-13.368,3.223c.011.041.028.081.04.121.031.106.066.211.1.316.026.07.052.139.081.208.044.106.093.21.145.315.032.065.063.13.1.194.061.113.128.225.2.336.034.054.064.109.1.162.106.163.218.323.339.482.012.016.027.032.039.049q.165.215.345.423c.05.057.1.112.152.168.088.1.176.2.268.291.06.063.122.124.184.186.088.087.176.174.266.259.065.062.131.123.2.183.093.085.187.169.282.251.037.033.074.068.111.1l-11.918-2.384C1080.759,761.567,1083.372,760.7,1088.453,760.583Zm5.561,16.574.03-.092a13.584,13.584,0,0,0,.189-6.916c.545.011,1.133.039,1.748.088l.186.015c.264.023.535.052.808.084.1.011.205.025.308.038.255.033.512.069.773.111.14.022.282.049.424.074.237.042.474.084.714.134s.486.112.73.171c.217.053.432.108.65.168.326.091.652.186.978.3.134.045.268.1.4.145.2.072.4.15.6.229.046.374.122.748.189,1.122.036.2.058.392.1.588.138.656.3,1.311.506,1.965.03.1.072.2.1.293.18.557.378,1.113.6,1.667.094.229.2.457.306.686.143.323.274.647.433.969q-1.534,1.27-3.37,3.11l-.172.172c-.386.389-.779.79-1.185,1.216-1.492,1.565-3.08,3.343-4.719,5.283a.794.794,0,0,0-.05.067h-2.361a17.587,17.587,0,0,1-.278-2.135A25.5,25.5,0,0,1,1094.014,777.157Zm-.722,13.182h2.173l2.743,9.142A24.892,24.892,0,0,1,1093.292,790.339Zm7.251,16.925H1098.3c-.058-.071-.109-.157-.17-.223l2.186-.547Zm-1.428,5.669a7.257,7.257,0,0,0,.01-4.169h1.868l1.251,4.169Zm8.4,12.34c.329-.245.656-.511.985-.77.19-.15.38-.291.57-.445q.891-.726,1.771-1.51a54.222,54.222,0,0,0,4.312-4.329c.351-.394.676-.771.985-1.137l.306-.369c.192-.232.379-.458.553-.675l.3-.38c.155-.2.3-.382.437-.56l.238-.312.12-.157v.328c-.011.031-.025.062-.036.093-.213.554-.447,1.1-.7,1.626-.11.234-.233.46-.351.689-.161.316-.324.629-.5.936-.129.227-.264.45-.4.672q-.3.486-.621.955c-.121.176-.239.354-.364.527-.352.482-.715.956-1.1,1.409q-.459.535-.947,1.038a21.839,21.839,0,0,1-3.166,2.7h0a18.7,18.7,0,0,1-1.939,1.193Zm3.576,19.927c.019.005.039.007.057.011q.619.147,1.25.24c.1.015.21.022.315.036.32.04.641.073.964.093.056,0,.11.013.166.016v21.616a2.282,2.282,0,0,1-2.752-.05Zm-3.538,44.937a6.649,6.649,0,0,1,.118-.815,7.58,7.58,0,0,0,.869.578c.082.048.168.09.252.135a7.9,7.9,0,0,0,.763.355c.1.039.191.078.289.113a7.967,7.967,0,0,0,1.064.3,8.058,8.058,0,0,0,.914.127c.091.008.18.01.271.014.125.006.251.02.374.02.06,0,.12-.013.18-.014a7.7,7.7,0,0,0,.774-.06c.106-.013.213-.02.319-.038a7.8,7.8,0,0,0,1.08-.254,7.694,7.694,0,0,0,.842-.328c.071-.032.141-.065.211-.1a7.714,7.714,0,0,0,.73-.4l.064-.037q.3-.191.582-.408c0,.019.01.042.013.06.026.128.045.236.061.335.006.041.017.095.022.131.017.121.029.221.035.284v0h0a5.247,5.247,0,0,1-.452,1.042,4.807,4.807,0,0,1-2.586,2.226h0a5.52,5.52,0,0,1-1.874.308A4.955,4.955,0,0,1,1107.55,890.137Zm9.211,3.584.025-.024c.146-.126.284-.254.411-.386.018-.019.033-.038.051-.057.108-.114.21-.229.3-.344.038-.046.072-.092.107-.138.07-.09.137-.179.2-.268.035-.051.068-.1.1-.15.056-.085.109-.168.159-.251.03-.048.059-.1.086-.144.048-.084.092-.165.134-.246.021-.041.044-.083.064-.123.047-.094.088-.182.126-.268.01-.023.023-.047.032-.069.045-.1.083-.2.117-.286.016-.044.028-.079.043-.118s.031-.086.043-.124l.013-.036c.205-.056.406-.125.6-.2.029-.01.059-.017.088-.028a7.744,7.744,0,0,0,.97-.45c.071-.038.14-.078.21-.118a7.825,7.825,0,0,0,.85-.564,7.148,7.148,0,0,1,.129.815A4.914,4.914,0,0,1,1116.761,893.721Zm1.331-26.509a2.282,2.282,0,0,1-2.752-.05V845.6c.056,0,.111-.013.167-.016.323-.02.644-.053.964-.093.105-.014.21-.021.315-.036q.63-.093,1.249-.24c.019,0,.039-.006.057-.011Zm1.5-45.731V806.812c.14.095.295.193.458.291.023.014.048.027.071.04.258.152.543.3.86.452.016.007.029.015.046.022.2.092.409.182.632.268l0,.122a53.344,53.344,0,0,1-.338,5.59A37.082,37.082,0,0,1,1119.592,821.481Z" transform="translate(-1076.99 -755.405)" fill="#1a1a1a"/>
</svg>