<?xml version="1.0" encoding="utf-8"?>
<svg width="800px" height="800px" viewBox="0 -3.98 51.106 51.106" xmlns="http://www.w3.org/2000/svg">
  <g id="Group_1015" data-name="Group 1015" transform="translate(-828.514 -1369.455)">
    <path id="Path_757" data-name="Path 757" d="M839.894,1375.754a1.459,1.459,0,1,0-1.459-1.459A1.46,1.46,0,0,0,839.894,1375.754Z" fill="#1a1a1a"/>
    <path id="Path_758" data-name="Path 758" d="M879.4,1378.725a.749.749,0,0,0-1.06,0l-10.171,10.17c-.13-.214-.268-.419-.4-.63-.115-.182-.229-.365-.346-.544q-.45-.685-.921-1.34c-.057-.079-.11-.162-.167-.239-.372-.509-.754-1-1.144-1.477-.115-.14-.233-.274-.349-.412-.191-.225-.378-.456-.572-.675l3.793-3.792a.75.75,0,0,0-1.061-1.061l-3.768,3.769a27.51,27.51,0,0,0-6.257-4.864,18.669,18.669,0,0,0-4.572-1.875c-.637-.933-2.991-3.826-8.733-5.716a9.294,9.294,0,0,0-9.921,2.131,9.126,9.126,0,0,0-4.794.732.751.751,0,0,0,.07,1.4l3.29,1.1c.17.257.331.491.476.7a5.266,5.266,0,0,1,.992,1.931,32.4,32.4,0,0,1,.4,6.9c0,5.167,2.573,9.5,7.439,12.538a25.747,25.747,0,0,0,4.467,2.175L834.4,1411.323a.75.75,0,0,0,1.06,1.061l8.372-8.372a5.15,5.15,0,0,1,3.528.014,4.646,4.646,0,0,1,2.394,3.282l-4.016,4.015a.75.75,0,1,0,1.061,1.061l4.249-4.249,0,0,6.632-6.632a14.261,14.261,0,0,0,5.914-2.027c.781.123,1.576.245,2.405.367a.81.81,0,0,0,.109.008.73.73,0,0,0,.735-.679l1.2.9h0l3.282,2.462a.754.754,0,0,0,.451.15h2.834a.75.75,0,0,0,.75-.75V1399.1a.749.749,0,0,0-.3-.6l-3.68-2.76-.505-.379a.691.691,0,0,0,.109-.1.75.75,0,0,0,.064-.708,46.111,46.111,0,0,0-2.118-4.3l10.462-10.461A.75.75,0,0,0,879.4,1378.725Zm-43.31-5.529.172-.038q.34-.073.719-.143l.158-.029c.136-.023.276-.045.418-.066.071-.011.143-.02.215-.03.453-.062.927-.107,1.411-.129.105-.005.21-.009.317-.011.129,0,.259,0,.389,0s.277.007.416.014c.158.007.314.018.471.032s.328.033.49.056c.1.015.2.032.3.05.16.029.318.064.474.1.079.02.159.037.237.059a6.337,6.337,0,0,1,.657.225c.059.024.115.053.172.079a5.139,5.139,0,0,1,.492.25c.061.035.122.07.182.108a4.737,4.737,0,0,1,.584.428c.205.18.673.63.58.924-.262.839-3.2,1.715-5.8,2.014h-4.076a6.016,6.016,0,0,0-.688-1.334h1.973a.751.751,0,0,0,.53-1.281l-1.183-1.183.078-.02Zm-2.356.521a1.742,1.742,0,0,1,.669.4l.137.138h-.9l-1.86-.621A4.184,4.184,0,0,1,833.734,1373.717Zm1.949,11.208a47.5,47.5,0,0,0-.261-6.337h3.763a.587.587,0,0,0,.084-.005c.206-.023.482-.058.8-.1a15.7,15.7,0,0,0,4.072-1.043,4.084,4.084,0,0,0,2.1-1.613,1.5,1.5,0,0,0,.134-.3c.181-.575.149-1.474-1.022-2.5a6.161,6.161,0,0,0-.8-.593c-.091-.057-.189-.1-.282-.15-.194-.108-.388-.217-.59-.306-.116-.051-.238-.088-.356-.132-.188-.071-.375-.144-.568-.2-.129-.038-.261-.065-.392-.1-.188-.046-.376-.093-.567-.127-.136-.024-.273-.039-.41-.058-.189-.026-.377-.052-.567-.068-.14-.012-.278-.017-.418-.024-.187-.009-.373-.018-.559-.019-.141,0-.28,0-.42.005-.181,0-.36.009-.538.019-.143.009-.281.019-.421.031-.169.014-.335.029-.5.048-.06.007-.124.01-.183.017a8.342,8.342,0,0,1,5.427.095c4.964,1.634,7.164,4.069,7.84,4.968a9.106,9.106,0,0,1-3.9,3.16l-.165.064a7.828,7.828,0,0,1-.891.29l-.844.212c-3.855.961-8.225,2.05-8.225,6.184,0,.116,0,.232,0,.348,0,.065,0,.131.006.2,0,.05,0,.1.007.15,0,.079.009.157.015.236,0,.038.006.076.01.114.007.085.015.17.025.256,0,.029.009.059.013.089q.024.192.06.385c.015.08.03.16.047.24l.03.124c.026.107.055.215.087.323l.015.05c.451,1.477,1.511,2.965,3.932,4.425v2.139A12.492,12.492,0,0,1,835.683,1384.925Zm9.95,17.29,2.021-2.021c.4.127.811.236,1.219.35.146.041.285.09.433.129l-1.812,1.811A6.7,6.7,0,0,0,845.633,1402.215Zm5.386,3.83a6.061,6.061,0,0,0-2.145-2.82l2.148-2.147c.26.056.514.123.776.174.634.123,1.262.214,1.884.277.21.021.415.021.624.036.378.026.758.061,1.129.064Zm6.236-6a17.6,17.6,0,0,1-5.171-.267,34.547,34.547,0,0,1-4.395-1.152,25.529,25.529,0,0,1-4.92-2.222v-2.316c.487.238,1.014.476,1.585.712l.028.012q.364.15.752.3l.174.067c.21.08.429.16.65.239l.3.108c.186.065.38.13.574.2.137.046.272.093.413.139.17.055.349.111.525.166s.332.106.5.159c.189.058.39.115.586.173l.494.146c.371.1.752.211,1.144.315,2.676.715,5.834,1.4,9.385,2.03q.617.111,1.257.22A13.617,13.617,0,0,1,857.255,1400.046Zm12.622-3.566-1.515,1.949-1.5-1.123v-1.71H868.7Zm3.991,4.7h-1.834l-2.472-1.854,1.516-1.949,2.79,2.093Zm-4.919-7.087h-2.835a.75.75,0,0,0-.75.75v3.382q-.926-.14-1.809-.28-1.788-.283-3.412-.573c-3.509-.625-6.625-1.3-9.259-2-.428-.114-.842-.23-1.248-.347-.1-.028-.193-.057-.291-.086-.318-.093-.631-.187-.934-.281l-.236-.075c-.341-.108-.675-.217-1-.327l-.085-.029a27.845,27.845,0,0,1-4.7-2.038h0c-.215-.123-.417-.245-.609-.367l-.047-.03c-.176-.113-.342-.226-.5-.338-.017-.012-.036-.024-.053-.037q-.252-.181-.474-.361l-.025-.022c-.129-.1-.248-.209-.362-.314-.043-.039-.083-.079-.124-.118-.08-.077-.158-.154-.23-.231-.034-.035-.068-.071-.1-.107-.1-.106-.188-.212-.271-.317l0,0a5.314,5.314,0,0,1-1.076-3.6c0-2.75,2.938-3.694,7.088-4.729l.852-.214a9.529,9.529,0,0,0,1.04-.336c.073-.028.146-.055.218-.085a9.828,9.828,0,0,0,.9-.417l.115-.066c.257-.141.5-.289.728-.443.05-.033.1-.064.149-.1q.366-.253.685-.517c.042-.034.08-.068.121-.1.19-.161.369-.322.533-.482l.072-.068c.178-.176.338-.347.485-.513l.09-.1a10.22,10.22,0,0,0,.672-.861l.023-.032a18.081,18.081,0,0,1,3.959,1.667,26.351,26.351,0,0,1,6.437,5.124,34.957,34.957,0,0,1,4.681,6.419c.658,1.146,1.278,2.358,1.85,3.612Z" fill="#1a1a1a"/>
    <path id="Path_759" data-name="Path 759" d="M854.776,1384.175a.749.749,0,0,0-.731.919c.014.062,1.523,6.25,7.817,6.25a.749.749,0,0,0,.741-.865A7.615,7.615,0,0,0,854.776,1384.175Zm1.073,1.566a5.956,5.956,0,0,1,5.014,4.037A6.406,6.406,0,0,1,855.849,1385.741Z" fill="#1a1a1a"/>
  </g>
</svg>