<?xml version="1.0" encoding="utf-8"?>
<svg width="800px" height="800px" viewBox="0 -14.5 141.058 141.058" xmlns="http://www.w3.org/2000/svg">
  <g id="Group_1008" data-name="Group 1008" transform="translate(-68.559 -1183.683)">
    <path id="Path_742" data-name="Path 742" d="M209.1,1214.459a18.431,18.431,0,0,0-6.067-9.333c-8-6.938-20.916-15.514-36.981-16.978h0c-.577-.053-1.156-.087-1.735-.12-.935-.054-1.736-.083-2.5-.09a10.94,10.94,0,0,0-2.512-2.332,11.174,11.174,0,0,0-6.375-1.923c-7.232,0-15.638,2.388-23.219,19.961a46.128,46.128,0,0,0-8.616,3.461c-6.209,3.248-10.588,7.469-12.685,12.22a73.819,73.819,0,0,0-11.041,7.407c-5.418,4.383-12.351,11.388-14.612,19.869a.75.75,0,0,0,.576.929c.04.008.85.166,2.387.3-1.76,3.883-4.945,11.769-5.747,19.47H69.309a.75.75,0,0,0,0,1.5h10.11l-.03.057-.064.122-.17.323c-.035.065-.068.128-.1.2q-.12.228-.258.484c-.041.076-.086.159-.128.239-.067.124-.136.253-.209.387-.05.094-.1.188-.155.287l-.3.549-.2.361q-.144.259-.295.537l-.223.4c-.1.176-.2.36-.3.546l-.2.368-.511.911-.228.406c-.133.236-.271.479-.412.727l-.236.418c-.207.363-.42.738-.643,1.127l-.211.368q-.273.477-.562.977l-.242.418c-.265.459-.536.927-.821,1.416a15.376,15.376,0,0,0-.706,1.373c-.067.147-.121.293-.183.44-.09.217-.191.433-.269.649H69.309a.75.75,0,0,0,0,1.5h2.026c-1.571,7.077,4.588,11.176,4.653,11.218a.748.748,0,0,0,.407.121c11.82,0,14.754-7.258,14.873-7.567a.51.51,0,0,0,.019-.055L92.4,1284.4h73.285a.75.75,0,1,0,0-1.5H92.852l4.227-14.09h10.238c-.015.012-.03.027-.045.039-.081.066-.161.138-.24.209-.064.057-.128.111-.191.171-.083.08-.164.168-.245.255-.056.059-.113.115-.167.178-.09.1-.174.214-.258.326-.042.055-.087.106-.128.163a5.994,5.994,0,0,0-.346.548,7.4,7.4,0,0,0-.249,6.1.749.749,0,0,0,.711.515h.035a.75.75,0,0,0,.7-.58c.013-.055,1.329-5.491,6.5-6.521l7.014-1.4h8.025l-.049.061c-.043.051-.085.106-.128.16-.069.087-.138.175-.208.268l-.136.19c-.068.095-.134.192-.2.293-.046.07-.091.14-.136.213-.065.1-.128.212-.191.322-.044.077-.087.153-.13.233-.062.117-.121.239-.18.362-.038.079-.076.156-.112.237-.063.144-.121.294-.178.445-.025.067-.053.131-.077.2-.077.222-.146.451-.205.687-.01.04-.015.083-.025.124-.046.2-.087.4-.118.606-.013.088-.019.179-.029.268-.019.166-.036.333-.044.505,0,.1,0,.212,0,.318,0,.163,0,.327.012.495.007.115.02.232.032.349.018.167.041.335.07.506.021.122.045.244.072.368.038.174.085.35.136.528.036.126.072.25.115.378.062.186.137.376.215.567.05.123.1.245.153.37.1.213.212.43.329.648.057.107.106.212.169.321.19.328.4.661.638,1a.743.743,0,0,0,.242.209.676.676,0,0,0,.07.036.738.738,0,0,0,.281.067.038.038,0,0,1,.013.005h.013a.748.748,0,0,0,.742-.808c-.135-1.729.04-6.5,2.423-7.774l5.51-2.755h28.17a.75.75,0,1,0,0-1.5H144.955c-.5-1.024-2.158-2.835-7.615-2.835h-6.879l-2.495-1.5c1.8-1.339,3.668-3.883,4.261-8.73,14.333-6.094,25.5-16.294,29.931-27.35,2.314-5.779,2.516-11.212.62-15.829,1.427.361,3.746.93,6.547,1.557,4.264.955,8.245,1.734,11.832,2.316,14.639,2.375,23.4,8.626,24.941,12.3a.745.745,0,0,0,.644.458l.048,0a.752.752,0,0,0,.65-.376s.034-.059.092-.167h0A18.456,18.456,0,0,0,209.1,1214.459Zm-1.871,9.578c-.009-.039-.022-.077-.032-.116-.014-.056-.031-.112-.046-.169q-.108-.4-.247-.8c-.017-.048-.031-.1-.049-.146-.107-.292-.23-.58-.365-.864-.031-.063-.064-.125-.1-.188a8.109,8.109,0,0,0-.438-.767c-.019-.029-.034-.06-.054-.089a7.349,7.349,0,0,0-.588-.761c-.051-.058-.1-.114-.156-.171a6.775,6.775,0,0,0-.733-.69c-.922-.732-1.823-1.342-2.618-1.88-2.52-1.706-4.185-2.833-4.185-6.037a2.1,2.1,0,0,1,1.986-2.138,4.447,4.447,0,0,1,.69-.057c.05,0,.1,0,.149,0a5.828,5.828,0,0,1,.8.066c.057.008.114.018.17.028a7.141,7.141,0,0,1,.85.2c.049.015.1.033.149.05a7.826,7.826,0,0,1,.909.357c.018.008.035.019.053.027a8.254,8.254,0,0,1,.881.5c.04.026.08.048.119.074a8.179,8.179,0,0,1,.833.643c.049.042.1.084.144.127a8.044,8.044,0,0,1,.752.788c.042.05.082.1.123.152a8.272,8.272,0,0,1,.66.962c.025.043.047.089.071.133a8.294,8.294,0,0,1,.55,1.184l.151.413A16.408,16.408,0,0,1,207.225,1224.037Zm-5.179-17.778a20.632,20.632,0,0,1,2.466,2.521c-.108-.06-.219-.111-.329-.167-.06-.031-.12-.063-.181-.092-.168-.081-.337-.154-.507-.223-.056-.023-.111-.048-.167-.07-.174-.067-.348-.126-.523-.181-.053-.017-.107-.037-.161-.053-.176-.052-.352-.095-.528-.136-.052-.012-.1-.026-.156-.037-.176-.037-.35-.064-.523-.088-.052-.008-.1-.018-.157-.024-.174-.021-.346-.032-.518-.04-.049,0-.1-.009-.149-.01-.176-.005-.35,0-.522.009-.042,0-.085,0-.126,0a5.992,5.992,0,0,0-.623.075,3.558,3.558,0,0,0-3.224,3.615c0,.307.018.6.043.874.007.08.018.158.027.236.024.206.056.4.1.6.008.044.012.095.021.139-4.479-3.049-15.042-9.061-31.942-11.883.113-.143.224-.293.334-.448l.034-.044v0a10.846,10.846,0,0,0,.917-1.552c.149-.308.3-.664.456-1.088h0a13.724,13.724,0,0,0,.456-1.494,16.136,16.136,0,0,0,.427-2.805c.039-.582.042-1.189.027-1.809,0-.118,0-.235-.008-.354q-.036-.909-.144-1.86c-.005-.044-.005-.085-.01-.129C182.084,1191.405,194.366,1199.6,202.046,1206.259Zm-37.82-16.734c.363.021.727.042,1.088.068l.024.182c.081.648.139,1.282.166,1.9,0,.087,0,.171.007.257.02.64.019,1.265-.021,1.86a14.73,14.73,0,0,1-.387,2.548h0a12.091,12.091,0,0,1-.406,1.329c-.14.379-.271.692-.4.957h0a9.329,9.329,0,0,1-.793,1.342,8.523,8.523,0,0,1-.77.95h0c-.1.108-.2.208-.3.3a.742.742,0,0,0-.222.517c0,.024-.013.047-.012.071h0a.748.748,0,0,0,.067.237c.01.024.009.051.021.074a.763.763,0,0,0,.161.189c.019.017.028.041.049.056h0v0l.077.06.038.031.022.017h0c.209.16.4.341.6.511s.417.337.613.521c.164.156.313.33.472.493a16.593,16.593,0,0,1,2.528,3.354c.125.218.243.436.354.651.214.412.415.84.6,1.273.088.208.172.411.25.612.125.324.239.655.348.985-3.225-.74-5.641-1.358-6.465-1.573l-.021-.038c-1.012-1.886-2.917-6.361-1.677-8.333a2,2,0,0,1,.23-.283c.024-.025.041-.057.066-.081l0,0c.038-.037.075-.076.135-.143l.005-.008c.02-.021.035-.048.055-.07a4.186,4.186,0,0,0,.364-.464c.034-.05.067-.1.1-.152a5.8,5.8,0,0,0,.292-.527c.026-.054.054-.108.079-.164.092-.2.176-.415.252-.634.014-.04.03-.078.043-.118a12.8,12.8,0,0,0,.537-2.627c.005-.043.008-.086.012-.129q.04-.39.064-.78c0-.06.007-.119.01-.178.013-.249.023-.5.028-.741,0-.058,0-.115,0-.172q.006-.385,0-.759v-.115c-.014-.881-.065-1.7-.126-2.379l0-.051c-.019-.2-.037-.389-.056-.564,0-.04-.008-.075-.012-.114-.009-.076-.017-.16-.026-.231C162.885,1189.458,163.516,1189.484,164.226,1189.525ZM158.857,1199c-.263-.038-.51-.083-.753-.128-.093-.018-.194-.033-.285-.051-.326-.067-.635-.139-.925-.216-.056-.015-.1-.031-.158-.047-.23-.064-.453-.13-.66-.2-.094-.031-.178-.065-.268-.1-.155-.056-.309-.112-.451-.171-.092-.038-.178-.077-.264-.115-.126-.056-.249-.112-.364-.169-.082-.041-.16-.082-.237-.123-.105-.056-.208-.113-.3-.17-.07-.042-.14-.083-.205-.125-.091-.058-.176-.115-.258-.172-.057-.041-.116-.081-.169-.121-.079-.059-.151-.117-.221-.175-.044-.037-.092-.074-.133-.11-.072-.063-.135-.125-.2-.185-.029-.029-.062-.058-.089-.086-.083-.085-.158-.168-.223-.246-.021-.026-.037-.048-.056-.073-.042-.052-.083-.1-.117-.152-.022-.031-.039-.058-.058-.086s-.048-.072-.068-.1l-.044-.077c-.014-.026-.029-.051-.04-.073l-.029-.059-.011-.023c0-.06.011-.141.024-.242,0-.025.009-.059.013-.086.012-.088.027-.184.048-.292.01-.051.025-.109.037-.163.023-.1.048-.206.08-.318.019-.067.043-.139.065-.21.036-.113.078-.23.124-.35q.045-.118.1-.24c.053-.125.117-.253.184-.382.042-.082.083-.164.132-.247.081-.142.177-.285.276-.428.05-.073.1-.145.15-.218a6.063,6.063,0,0,1,.553-.64,6.393,6.393,0,0,1,.616-.542c.072-.056.154-.1.228-.159.152-.108.3-.217.468-.315.1-.057.2-.108.3-.162.154-.083.307-.167.47-.241.115-.053.236-.1.355-.146.162-.065.323-.131.494-.189.129-.043.265-.081.4-.121.172-.05.345-.1.525-.143.143-.034.291-.064.439-.093.184-.037.37-.072.562-.1.155-.023.314-.044.474-.063.2-.024.4-.044.6-.061q.249-.019.5-.033c.1,0,.194-.005.291-.009.007.062.014.126.022.191.01.089.02.174.03.268.007.069.014.144.021.215.047.484.088,1.021.116,1.6v0c.01.2.018.409.024.618l0,.061c.005.206.009.416.01.627v.063c0,.216,0,.434-.005.653v.019a16.9,16.9,0,0,1-.352,3.278l-.013.058c-.04.173-.086.34-.134.5-.012.039-.023.078-.035.117-.048.151-.1.3-.154.436-.017.043-.036.085-.054.128-.056.133-.114.262-.178.382-.021.039-.044.074-.066.112a3.575,3.575,0,0,1-.209.334c-.18-.019-.358-.039-.531-.061C159.137,1199.039,158.991,1199.023,158.857,1199Zm-5.926-13.82a9.7,9.7,0,0,1,5.535,1.665,10.016,10.016,0,0,1,1.4,1.147c-.326.027-.641.064-.952.107-.037.006-.077.008-.114.013-.382.056-.75.127-1.108.209-.11.025-.213.056-.321.084-.243.062-.484.128-.715.2-.125.041-.245.086-.366.13-.2.074-.4.152-.6.236-.121.052-.239.107-.355.163-.187.09-.368.186-.544.286-.108.061-.216.121-.32.185-.183.115-.357.237-.528.363-.084.061-.171.119-.252.182a8.23,8.23,0,0,0-.7.619c-.172.173-.326.348-.473.525-.043.052-.083.1-.124.155-.108.137-.208.274-.3.412-.03.043-.062.087-.09.13-.115.174-.218.348-.312.52-.023.041-.042.082-.064.123-.071.136-.137.271-.2.4-.023.051-.046.1-.067.152-.063.148-.121.293-.171.434-.006.017-.014.036-.02.053-.055.158-.1.309-.142.455-.012.043-.023.084-.034.126-.029.11-.055.216-.077.317-.007.033-.015.066-.022.1-.026.127-.047.245-.064.354l0,.009c-.025,0-.049.006-.075.007-.122.009-.241.024-.362.036-.143.015-.286.028-.426.049-.119.017-.234.039-.35.06-.136.025-.272.05-.4.08-.114.025-.225.056-.336.085-.129.034-.257.069-.382.108-.109.034-.215.072-.321.11s-.242.087-.36.135c-.1.042-.2.086-.3.131-.115.053-.228.106-.339.163-.1.049-.188.1-.28.152s-.212.124-.314.189-.175.113-.259.172-.195.141-.289.214-.159.125-.236.19-.176.157-.261.238-.144.136-.212.207-.158.173-.234.262c-.063.073-.126.146-.185.222-.072.092-.138.188-.2.285-.054.078-.109.155-.159.235-.062.1-.117.205-.173.308-.043.082-.09.163-.13.247-.052.109-.1.222-.141.335-.033.084-.07.166-.1.251-.042.121-.074.246-.108.37-.023.082-.049.162-.068.246-.032.141-.052.286-.073.431-.011.071-.027.14-.035.212a6.136,6.136,0,0,0-.037.669c0,.33.019.657.05.983.01.106.029.212.042.318.029.219.06.439.1.656.024.123.053.244.082.366.047.2.1.4.158.6.037.125.077.249.119.374.067.2.142.4.222.593.049.12.1.24.149.36.094.211.2.422.308.632.052.1.1.2.156.3.168.3.349.607.548.907l.01.017c.2.306.425.609.66.912.076.1.16.194.239.291.167.206.338.411.521.616.035.04.065.08.1.12-.155-.079-.328-.157-.486-.237q-.575-.288-1.157-.564c-.09-.042-.175-.084-.266-.126a83.193,83.193,0,0,0-13.941-4.811C139.464,1185.183,148.538,1185.183,152.931,1185.183Zm-43.6,35.35a.75.75,0,0,0,.349-.375c4.387-10.37,18.837-14.63,20.58-15.109l.04.009.152.037.161.039.189.047.234.059.228.059.371.1.174.046c.191.05.4.106.614.165l.046.012c.237.065.49.135.755.21l.1.028c.229.065.465.132.711.2l.248.073.635.189.309.095.629.2.36.114c.206.065.415.133.627.2l.4.132c.208.068.418.139.63.211l.427.146c.212.073.428.15.643.226.149.053.3.105.448.16.216.078.434.158.652.239.151.056.3.111.452.169.235.089.472.181.709.274l.409.159q.552.22,1.106.452c.29.122.585.25.88.379l.183.079c.214.1.431.2.647.3.145.066.289.129.434.2s.321.156.481.233c.2.1.4.19.6.29.139.069.277.143.416.214.218.112.438.223.654.339.1.051.19.106.285.158.257.14.514.28.766.426.052.03.1.062.155.093.291.17.58.342.861.519.065.04.125.083.189.124.266.17.531.34.785.516.053.036.1.075.153.111.262.184.521.368.768.558.022.017.042.035.065.052.272.211.537.424.789.642.034.03.064.061.1.091.235.207.465.417.679.63.038.039.071.079.108.118.2.207.4.415.58.628.033.039.058.079.09.117.177.216.348.433.5.654.024.033.04.068.062.1a7.538,7.538,0,0,1,.416.691c.062.119.1.242.158.363.067.151.144.3.2.453a5.314,5.314,0,0,1,.161.609c.018.077.047.152.061.229a4.937,4.937,0,0,1,.076.86c0,9.141-10.751,13.432-10.887,13.485-1.882.817-3.761,1.6-5.745,2.392a152.692,152.692,0,0,1-36.369,10c-1.711.224-3.339.4-4.84.521-2.134.174-4.182.268-6.113.278q-.966,0-1.892-.018c-.784-.019-1.548-.053-2.267-.1h0c-1.09-.071-1.916-.164-2.465-.238C89.062,1231.088,109.131,1220.639,109.336,1220.533Zm23.718,18.909c-.276.176-.559.348-.839.522-.379.235-.756.469-1.148.7-.291.175-.588.346-.883.519-.39.228-.779.456-1.182.684-.325.185-.656.367-.986.55-.38.211-.762.421-1.152.632q-.547.294-1.1.584c-.367.193-.736.386-1.11.578q-.6.308-1.206.611-.534.267-1.079.534-.648.317-1.3.63c-.315.151-.635.3-.955.451q-.691.325-1.384.645c-.3.14-.617.28-.927.419-1.72.777-3.444,1.522-5.156,2.235-.312.13-.623.26-.939.39-.474.195-.945.385-1.415.574-.377.151-.755.3-1.136.453q-.663.263-1.32.519-.8.313-1.623.623c-.431.164-.859.327-1.284.485q-1.031.385-2.079.768l-.822.3c-.848.305-1.7.609-2.565.91l-.072.026c-3.461,1.206-6.98,2.356-10.459,3.418-2.59.791-4.616,1.367-5.82,1.7.807-2.135,3.02-4.594,6.488-7.189q.827-.618,1.74-1.243c.148-.1.313-.2.465-.306.469-.315.94-.629,1.441-.946.233-.147.487-.295.727-.443.439-.27.873-.541,1.335-.812.326-.191.675-.383,1.012-.575.378-.215.748-.43,1.14-.645.494-.041,1.019-.1,1.539-.148.24-.024.467-.042.712-.069q1.215-.131,2.5-.3c1.321-.173,2.659-.378,4.008-.6.436-.072.879-.158,1.318-.237.924-.164,1.85-.334,2.785-.523.522-.105,1.047-.219,1.572-.331q1.311-.281,2.635-.589.822-.194,1.651-.4,1.338-.33,2.691-.694c.538-.144,1.074-.285,1.615-.436.994-.277,2-.573,3-.875.45-.134.9-.261,1.347-.4q2.19-.677,4.412-1.426c.131-.045.265-.095.4-.14,1.2-.41,2.408-.831,3.623-1.274C133.193,1239.35,133.126,1239.4,133.054,1239.442Zm-13.85,9.8c-.343.409-.713.807-1.106,1.2-.113.112-.238.218-.355.328-.291.275-.589.547-.9.811-.161.134-.333.265-.5.4-.3.232-.6.462-.915.686q-.283.2-.577.4c-.324.217-.661.429-1.006.637-.2.122-.4.244-.609.363-.383.219-.782.43-1.188.638-.188.1-.37.2-.563.292-.606.3-1.232.586-1.886.862-.377.159-.751.309-1.123.453-.612.236-1.24.458-1.878.671l-.2.069q-.96.315-1.955.593c-.361.1-.712.2-1.044.281l-.012,0c-.226.058-.439.109-.65.16l-.123.03-.067.016-.112.026c-.253.059-.5.115-.73.164l-.106.023c-.219.047-.429.09-.625.129l-.121.024c-.2.039-.385.074-.556.1l-.048.009c-.191.035-.365.065-.517.09.032-.14.061-.282.087-.425.053-.289.117-.608.187-.944.009-.043.017-.084.026-.128.071-.334.15-.691.238-1.068l.014-.062c.279-.1.55-.2.826-.294.468-.166.934-.331,1.413-.5s.951-.346,1.424-.519c.326-.119.649-.238.979-.361.6-.22,1.182-.442,1.767-.664l.625-.238q1.044-.4,2.066-.8l.377-.149q1.168-.462,2.307-.929l.193-.079q1.275-.522,2.515-1.051l.033-.014c1.8-.768,3.555-1.544,5.238-2.325-.211.3-.43.6-.666.887C119.314,1249.1,119.264,1249.171,119.2,1249.242Zm-11.4,10.834c.227-.017.454-.04.681-.059.685-.057,1.37-.12,2.053-.194.317-.034.633-.073.95-.11s.619-.068.928-.109a19.687,19.687,0,0,1-2.334,3.449H103.64a6.431,6.431,0,0,1-.819-2.759c.55-.007,1.1-.027,1.652-.045.2-.007.4-.009.6-.017Q106.442,1260.178,107.808,1260.076Zm15.111,4.453,4.627,2.776h-4.032c-.728-.8-3.021-2.835-7.434-2.835h-3.941l-.7-.7a24.124,24.124,0,0,0,2.811-4.435c1.015-.157,2.012-.327,2.968-.513C118.3,1262.361,120.346,1264.4,122.919,1264.529Zm-29.576-1.474a.751.751,0,0,0-.664.552c-.867,3.2-4.585,3.658-4.979,3.7H81.473a46.013,46.013,0,0,1,1-5.671l.353-.1.019-.006c.285-.077.669-.183,1.142-.316l.064-.018.74-.209.118-.034c.542-.154,1.158-.332,1.84-.533l.193-.057,1.052-.312.164-.05c.389-.117.788-.237,1.207-.365q2.478-.756,4.971-1.572c.52-.169,1.034-.345,1.553-.518.905-.3,1.812-.6,2.713-.9l-.01.049c-.033.154-.064.3-.094.447-.016.081-.035.167-.051.246-.042.214-.082.419-.117.613a7.611,7.611,0,0,1-.353,1.3c-.014.032-.029.064-.039.091A5.728,5.728,0,0,1,93.343,1263.055Zm-6.027-15.1c.064,0,.133,0,.2.008.527.027,1.065.051,1.621.064q.76.018,1.549.018c.121,0,.251-.007.372-.008q1.21-.006,2.475-.054c.15-.006.293-.007.444-.013l.08,0q-.789.473-1.534.942c-.089.056-.172.112-.26.168q-.783.5-1.515.995l-.45.307c-.551.381-1.088.761-1.593,1.139s-.992.764-1.453,1.142c-.144.118-.278.235-.417.352-.312.265-.613.528-.9.789-.14.128-.279.256-.412.383-.282.267-.546.532-.8.8-.1.1-.208.21-.3.315-.032.035-.07.07-.1.1C85.4,1252.262,86.544,1249.622,87.316,1247.952Zm-10.688,46.281c-.983-.709-5.5-4.359-3.619-10.363a13.243,13.243,0,0,1,1.2-2.682c4.225-7.255,6.277-11.167,6.9-12.383h6.626c.02,0,.04,0,.06,0,.2-.016,4.793-.428,6.185-4.331.082-.016.174-.037.271-.06l.1-.026.212-.058.141-.043q.1-.032.207-.069l.167-.059c.073-.026.147-.057.222-.087.058-.024.114-.045.174-.071.125-.054.252-.114.382-.179.063-.032.126-.068.189-.1s.153-.082.23-.128.142-.087.213-.132.143-.092.215-.142.146-.1.22-.156.143-.111.214-.168c.053-.043.107-.08.16-.126l-7.435,24.784C89.654,1288.148,86.954,1294.144,76.628,1294.233Zm20.9-26.928,2.1-7.005h1.683c.254,2.084.769,3.462,1.539,4.086a.754.754,0,0,0,.473.167h1.167l3.669,2.752Zm22.8,0a.821.821,0,0,0-.147.014l-7.086,1.417a9.643,9.643,0,0,0-6.676,5.144,4.825,4.825,0,0,1,.577-2.444,6.211,6.211,0,0,1,3.585-2.652.72.72,0,0,0,.228-.1.548.548,0,0,0,.06-.047.748.748,0,0,0,.168-.184.73.73,0,0,0,.075-.163.663.663,0,0,0,.023-.063l.007-.019a.755.755,0,0,0,.01-.227c0-.005,0-.008,0-.013s-.011-.026-.013-.041a.738.738,0,0,0-.058-.185.648.648,0,0,0-.04-.073.77.77,0,0,0-.1-.132.736.736,0,0,0-.056-.055.331.331,0,0,0-.025-.026l-3.87-2.9H110.1l1.2,1.2a.75.75,0,0,0,.53.22h4.252a9.358,9.358,0,0,1,5.1,1.335Zm9.922-1.335h7.086c3.351,0,4.945.722,5.7,1.335h-5.7a.75.75,0,0,0-.335.079l-5.688,2.844a4.373,4.373,0,0,0-.756.515c-1.614,1.361-2.206,3.784-2.41,5.731a6.443,6.443,0,0,1-.067-4.092,8.086,8.086,0,0,1,2.616-3.724v0a.729.729,0,0,0,.205-.249c.012-.021.022-.041.032-.063a.752.752,0,0,0,.062-.311c0-.005,0-.009,0-.013s-.009-.022-.011-.034a.718.718,0,0,0-.026-.165.7.7,0,0,0-.056-.109.57.57,0,0,0-.031-.06.734.734,0,0,0-.223-.224c-.007,0-.01-.012-.017-.016l-5.263-3.158c.074-.021.144-.057.217-.08a7.483,7.483,0,0,0,.713-.26c.064-.027.132-.043.195-.072l3.367,2.021A.749.749,0,0,0,130.254,1265.97Zm.988-12.939a.751.751,0,0,0-.457.615c-.449,4.347-2.037,7.348-4.593,8.679a6.479,6.479,0,0,1-3.025.728c-2.9,0-4.179-3.312-4.685-5.285a.749.749,0,0,0-.726-.564.78.78,0,0,0-.151.015c-1.255.257-2.585.491-3.953.7-1.121.168-2.249.306-3.38.427-.345.036-.692.065-1.037.1q-1.21.114-2.422.191l-.576.033c.106-.033.22-.076.327-.11.311-.1.616-.2.922-.31.357-.122.711-.248,1.077-.385.156-.058.318-.109.471-.168l.009,0c.375-.145.754-.3,1.134-.458,5.936-2.5,10.053-5.9,12.238-10.087l.091-.175q2.7-1.31,5.141-2.632c.147-.079.291-.161.438-.241.64-.349,1.271-.7,1.885-1.048.241-.138.477-.278.716-.416.518-.3,1.03-.6,1.528-.906.273-.165.541-.331.81-.5q.7-.434,1.369-.868c.266-.172.532-.344.793-.518.475-.315.934-.63,1.386-.946.209-.146.423-.29.628-.438.635-.454,1.251-.907,1.837-1.361.657-.262,1.29-.524,1.927-.786.306-.125.622-.251.924-.377.949-.4,1.883-.792,2.81-1.195a23.911,23.911,0,0,0,5.874-3.538c3.888-3.184,5.943-7.1,5.943-11.334a6.376,6.376,0,0,0-.087-1.018c-.024-.151-.068-.3-.1-.45-.042-.174-.081-.349-.136-.52-.063-.2-.143-.4-.225-.6-.044-.106-.089-.211-.138-.315-.112-.239-.236-.477-.376-.713-.014-.024-.03-.048-.045-.072-.129-.214-.248-.43-.4-.642.157.115.307.233.456.352.086.069.178.135.261.205.249.209.486.422.711.642.055.053.1.11.159.164.167.17.333.34.488.514.079.089.151.181.227.271.121.144.243.287.355.434.078.1.149.2.223.3.1.14.2.279.3.421.072.107.139.215.206.323.088.14.175.28.256.421q.094.164.183.33c.078.142.152.284.224.427.055.111.109.222.16.333.068.144.132.289.194.433.047.111.094.221.138.332.059.148.114.3.168.444.039.107.079.213.115.32.053.155.1.309.148.463.03.1.063.2.091.3.048.168.09.334.132.5.022.085.046.171.066.255.053.226.1.449.144.671,0,.023.011.047.015.071.048.246.089.489.125.73.011.074.019.146.03.22.023.165.045.329.063.491.01.088.018.173.027.26.011.112.021.223.031.333C156.33,1237.232,145.333,1247.14,131.242,1253.031Zm30.495-29.548c-.052-.218-.109-.44-.171-.664-.012-.045-.027-.091-.039-.136q-.09-.318-.194-.64c-.026-.08-.053-.16-.08-.241-.069-.2-.144-.41-.222-.616-.025-.064-.047-.128-.072-.192-.1-.264-.217-.529-.337-.794-.029-.063-.061-.126-.09-.189-.1-.208-.2-.417-.311-.625-.043-.083-.088-.165-.133-.248-.12-.219-.246-.437-.38-.654-.031-.052-.06-.1-.092-.155q-.249-.394-.529-.782c-.049-.067-.1-.133-.151-.2-.148-.2-.3-.394-.464-.588-.063-.076-.126-.153-.192-.229-.195-.224-.4-.445-.61-.662l-.082-.087c-.242-.242-.5-.477-.764-.708-.075-.065-.153-.127-.229-.191-.208-.173-.423-.341-.645-.507-.088-.064-.174-.129-.263-.193-.3-.216-.618-.427-.951-.628-9.559-5.762-9.559-10.543-9.559-12.113a4.564,4.564,0,0,1,.03-.514c.007-.057.02-.111.029-.166.017-.111.033-.221.059-.329.015-.064.037-.126.056-.19.027-.095.053-.191.087-.283.024-.067.054-.13.082-.195.036-.086.072-.172.113-.255.034-.066.072-.129.109-.193.044-.079.088-.157.138-.233s.087-.124.132-.185.105-.145.163-.215.1-.116.154-.174.122-.133.186-.2.117-.108.176-.162.137-.122.209-.179.13-.1.2-.149.152-.109.231-.161.142-.09.215-.134.165-.1.251-.142.154-.08.232-.118.179-.084.27-.124.166-.068.25-.1.191-.07.288-.1.175-.058.265-.084.2-.056.306-.082.184-.045.278-.065.215-.041.324-.06.191-.032.289-.045.227-.026.342-.037c.1-.009.2-.019.3-.025.036,0,.072,0,.107,0,.014.025.032.053.047.079s.03.052.048.08c.054.088.115.181.187.28l.025.033c.066.089.14.182.221.278.027.032.056.064.085.1.076.087.159.174.249.264l.082.084c.119.114.249.231.391.348.032.027.068.053.1.08.119.094.245.189.38.283.05.035.1.07.152.1.163.11.336.218.523.325.019.011.036.023.056.034.206.116.43.229.666.34.065.031.134.061.2.091q.286.127.6.248c.073.028.144.057.22.084.28.1.575.2.891.292l.153.041c.274.076.564.148.866.216l.314.067c.3.062.616.118.944.17.078.012.151.026.231.038l.081.013c-.028.057-.046.121-.071.18s-.043.106-.063.16a4.432,4.432,0,0,0-.167.576c-.009.04-.021.078-.028.118a5.385,5.385,0,0,0-.092.743c0,.064,0,.129,0,.193-.005.176-.007.354,0,.541s.025.348.043.523c.007.065.012.129.021.195a20.363,20.363,0,0,0,2.363,6.549l.012.02C162.779,1214.089,163.1,1218.6,161.737,1223.483Zm19.66-10.027c-3.434-.557-7.235-1.3-11.3-2.2-.06-.207-.125-.423-.2-.644l-.007-.024c-.132-.416-.28-.834-.439-1.243-.085-.215-.174-.436-.27-.658-.2-.466-.416-.928-.647-1.373q-.182-.349-.382-.7c-.289-.506-.6-.992-.927-1.461-.063-.09-.131-.174-.195-.263-.1-.142-.214-.278-.321-.417-.173-.224-.342-.45-.524-.664-.144-.17-.3-.328-.448-.491-.078-.086-.145-.184-.225-.267a86.776,86.776,0,0,1,23.59,7.709,47.681,47.681,0,0,1,8.693,5.426.758.758,0,0,0,.161.106c.015.016.032.03.047.045.181.188.371.368.569.543l.077.069c.206.177.421.349.642.517l.139.106c.218.163.441.323.67.483l.167.115c.228.158.459.315.694.474.811.549,1.649,1.116,2.526,1.813a5.353,5.353,0,0,1,.729.714c.071.084.132.176.2.263a6.13,6.13,0,0,1,.388.56c.065.108.124.22.183.331.1.189.2.381.279.577.05.116.1.233.143.351.078.207.147.416.209.627.02.067.041.133.06.2C202.182,1220.33,194.206,1215.534,181.4,1213.456Z" fill="#1a1a1a"/>
    <path id="Path_743" data-name="Path 743" d="M160.767,1194.354a3.584,3.584,0,1,0-3.584,3.585A3.588,3.588,0,0,0,160.767,1194.354Zm-3.584,2.085a2.085,2.085,0,1,1,2.084-2.085A2.088,2.088,0,0,1,157.183,1196.439Z" fill="#1a1a1a"/>
  </g>
</svg>