<?xml version="1.0" encoding="utf-8"?>
<svg width="800px" height="800px" viewBox="-12.05 0 93.627 93.627" xmlns="http://www.w3.org/2000/svg">
  <g id="Group_1006" data-name="Group 1006" transform="translate(-1059.928 -1041.705)">
    <path id="Path_737" data-name="Path 737" d="M1079.1,1045.29a1.417,1.417,0,1,0,1.417,1.417A1.416,1.416,0,0,0,1079.1,1045.29Z" fill="#1a1a1a"/>
    <path id="Path_738" data-name="Path 738" d="M1129.4,1107.352l-4.235-9.682-5.686-13-.007-.009,0-.011c-1.553-3.282-2.877-5.9-4.165-8.242-1.09-1.978-2.133-3.719-3.19-5.321a46.858,46.858,0,0,0-3.7-4.933v0a27.753,27.753,0,0,0-4.384-4.124l0,0a17.226,17.226,0,0,0-5.268-2.715,14.183,14.183,0,0,0-4.016-.6l-.569-.736h0l-.257-.333-.842-1.684h1.621a.749.749,0,0,0,.624-1.166l-2.057-3.086h1.433a.749.749,0,0,0,.624-1.166l-2.057-3.086h1.433a.75.75,0,0,0,.57-1.238c-.1-.117-2.536-2.9-8.262-4.038a26.082,26.082,0,0,0-5.063-.476,20.126,20.126,0,0,0-6.425.976,13.957,13.957,0,0,0-3.65,1.824l-.058.04c-2.63.066-11.034,0-11.123-.005h0a.75.75,0,0,0-.17,1.481,36.17,36.17,0,0,1,11.518,5.335,23.748,23.748,0,0,1,2.874,2.448,15.867,15.867,0,0,1,4.782,9.654,16.274,16.274,0,0,1,.088,1.674,17.059,17.059,0,0,0,.537,4.1h0a24.818,24.818,0,0,0,2.15,5.507,39.029,39.029,0,0,0,3.24,5.092c.985,1.323,2.078,2.65,3.246,3.946l.675,2.543c-2.246,1.67-1.367,5.72-1.325,5.9a.749.749,0,0,0,.73.585.777.777,0,0,0,.084-.005.75.75,0,0,0,.667-.745,1.833,1.833,0,0,1,.92-1.683l.8,3.012-1.437.862a.747.747,0,0,0-.258.257,6.5,6.5,0,0,0,.005,6.449.75.75,0,0,0,1.377-.521,8.243,8.243,0,0,1-.077-1.287,7.607,7.607,0,0,0,3.149,4.856.609.609,0,0,0,.067.033l8.153,30.733a.75.75,0,1,0,1.45-.384l-9.461-35.662c0-.079.006-.162.01-.245s.006-.151.014-.228c.011-.1.034-.2.054-.305.014-.072.022-.145.041-.213a1.971,1.971,0,0,1,.123-.3,1.551,1.551,0,0,1,.07-.159,1.013,1.013,0,0,1,.317-.33c.624-.388,1.417-.825,2.359-1.3.256-.128.508-.251.753-.369l.236-.112q.254-.122.491-.231l.209-.1c.2-.091.384-.176.551-.251l.19-.085.3-.133.069-.03,1.853,6.985h0l8.872,33.442a.751.751,0,0,0,.725.558.765.765,0,0,0,.193-.025.75.75,0,0,0,.532-.917l-8.782-33.1a10.108,10.108,0,0,0,1.474-4.245,11.248,11.248,0,0,0,3.425,1.414c.448.532,2.408,3.525,2.408,14.867v9.937a14.408,14.408,0,0,0,3.015,8.21,9.282,9.282,0,0,0,3.083,2.374.75.75,0,0,0,1.072-.678v-29.187l4.4,4.217a.75.75,0,0,0,1.206-.842l-2.587-5.915,7.05,6.757a.75.75,0,0,0,1.206-.842Zm-23.375-26.427-.27-.1c-.287-.1-.574-.214-.863-.326l-.11-.042c-.2-.079-.4-.162-.606-.243.026-.02.049-.042.075-.061.608-.457,1.2-.936,1.77-1.43q.188-.16.372-.324c.574-.508,1.135-1.028,1.673-1.571.042-.043.083-.088.125-.132.508-.518,1-1.055,1.471-1.6.1-.115.2-.228.3-.345q.724-.859,1.394-1.769c.035-.048.074-.091.109-.139.753,1.186,1.506,2.457,2.282,3.848q-.309.387-.628.764c-.144.17-.285.345-.432.513-.356.409-.723.808-1.1,1.2-.066.07-.129.143-.2.212q-.662.688-1.356,1.341c-.142.133-.289.26-.432.391-.274.25-.551.5-.832.74l-.09-.028c-.227-.072-.456-.144-.686-.219l-.3-.1-.662-.223-.313-.109C1106.5,1081.1,1106.275,1081.017,1106.021,1080.925Zm1.375,12.005c-.071.051-.143.1-.214.151q-1.2.87-2.45,1.666c-.086.055-.172.113-.259.168-.288-.178-.583-.364-.881-.557-.2-.13-.4-.251-.6-.388-.584-.389-1.18-.8-1.791-1.24h0l-.236-.17h0c-.093-.068-.189-.141-.282-.21.218-.126.43-.262.646-.391s.444-.265.664-.4c.468-.291.929-.592,1.387-.9.152-.1.307-.2.459-.3q.9-.625,1.78-1.292c.135-.1.266-.213.4-.317.345-.27.691-.537,1.029-.816l3.022,2.9-.252.211C1109.025,1091.686,1108.222,1092.323,1107.4,1092.93Zm-14.376-7.075h0c-.378-.367-.742-.738-1.105-1.108-.147-.151-.292-.3-.443-.455.28-.122.551-.261.828-.389.252-.117.505-.23.754-.353.54-.267,1.07-.552,1.6-.846.163-.092.331-.175.493-.27q1.022-.594,2-1.258c.159-.108.311-.226.468-.336.391-.274.783-.544,1.163-.834l3.036,2.909c-.259.205-.518.408-.782.606-.225.168-.446.34-.674.5-.461.33-.932.645-1.407.954-.166.109-.327.224-.495.33q-.969.61-1.974,1.166c-.16.087-.324.166-.485.251q-.657.351-1.328.676c-.187-.171-.353-.325-.525-.485C1093.762,1086.563,1093.383,1086.209,1093.02,1085.855Zm12.2,1.6c-.21.165-.418.333-.631.494-.434.329-.876.646-1.321.959-.148.1-.292.213-.441.315q-.9.615-1.823,1.184c-.14.086-.283.165-.424.249q-.6.36-1.211.7c-.514-.4-1.031-.793-1.525-1.2-.571-.466-1.168-.969-1.774-1.495h0l-.027-.024c-.056-.049-.11-.1-.166-.149.261-.131.514-.277.772-.414s.5-.263.744-.4c.51-.285,1.012-.585,1.51-.892.169-.1.343-.2.511-.309q.983-.627,1.927-1.308c.162-.117.318-.243.478-.362.367-.274.737-.544,1.095-.829l3.023,2.9C1105.7,1087.066,1105.464,1087.261,1105.223,1087.451Zm-3.715-8.405c-.193-.091-.384-.185-.575-.28l-.38-.19c-.192-.1-.383-.2-.572-.3l-.36-.193c-.2-.111-.409-.226-.611-.342l-.3-.169c-.133-.078-.262-.159-.394-.239.117-.07.228-.149.344-.221.207-.128.41-.259.613-.392q.483-.317.953-.652c.2-.141.392-.281.585-.426.32-.241.632-.49.941-.743.171-.14.343-.276.51-.419.37-.317.729-.646,1.082-.981.1-.09.2-.174.288-.265q.661-.645,1.282-1.331c.115-.128.223-.262.336-.392.294-.337.584-.677.864-1.028.14-.177.274-.359.411-.54.241-.317.478-.638.706-.966q.2-.294.4-.594c.1-.154.211-.3.31-.459.871,1.062,1.75,2.252,2.624,3.551-.32.456-.659.895-1,1.333-.215.276-.417.565-.641.834-.546.656-1.123,1.284-1.717,1.895-.094.1-.179.2-.274.3q-1.044,1.048-2.185,2c-.24.2-.5.382-.746.577-.477.379-.958.754-1.458,1.108l-.052-.024c-.2-.091-.405-.182-.608-.276Zm12.783-.666c.075-.089.158-.171.232-.26.931,1.736,1.9,3.646,2.968,5.876l-.2-.037c-.153-.028-.311-.057-.483-.091l-.317-.062c-.181-.035-.371-.074-.568-.114l-.361-.075-.675-.146-.361-.08c-.346-.078-.7-.161-1.08-.252l-.068-.016c-.915-.221-1.827-.463-2.727-.716l-.176-.05c.067-.061.129-.129.2-.191.639-.586,1.264-1.188,1.865-1.816.063-.066.122-.136.185-.2Q1113.531,1079.288,1114.291,1078.38Zm-2.925,5.781.076.02.045.012c.134.036.258.065.39.1.276.072.552.143.817.208l.327.079.024.007.252.059c.194.046.387.092.574.135l.54.122.515.113c.043.009.088.02.13.028l.407.086.354.073.167.033.409.081.208.04.19.036c.138.026.27.051.394.073l.1.018.168.03c.146.025.283.05.405.07l.1.017.309.052,3.984,9.107Zm-4.456-17.439c-.132.216-.268.43-.405.643s-.288.451-.439.67c-.2.292-.414.574-.625.857-.154.205-.3.415-.462.615-.235.3-.482.582-.729.868-.15.174-.293.354-.447.525-.314.346-.642.679-.972,1.009-.1.1-.192.2-.292.3q-.652.632-1.347,1.221c-.129.11-.266.21-.4.317-.339.277-.679.553-1.03.814-.186.138-.381.265-.571.4-.307.216-.614.434-.931.638-.214.137-.435.264-.653.4-.239.145-.479.288-.723.426l-.023-.016-.011-.007-.059-.043q-.5-.345-.976-.707c-.078-.06-.152-.122-.23-.183-.253-.2-.5-.4-.741-.6-.077-.065-.15-.132-.225-.2q-.418-.366-.8-.743c-.067-.066-.135-.131-.2-.2s-.118-.131-.18-.2c.171-.081.333-.178.5-.264.236-.119.469-.24.7-.368.349-.192.689-.4,1.027-.6.215-.133.431-.264.642-.4.351-.234.691-.483,1.029-.735.18-.135.365-.263.542-.4.415-.329.814-.675,1.205-1.031.087-.078.179-.149.263-.229.471-.44.923-.9,1.356-1.38.125-.138.238-.285.359-.425.3-.349.6-.7.88-1.068.148-.192.285-.394.426-.591.238-.33.471-.663.692-1.006.141-.221.275-.446.409-.672.115-.194.242-.38.352-.578A26.71,26.71,0,0,1,1106.91,1066.722Zm-20.123-.877c-.02.014-.042.026-.062.04a16.371,16.371,0,0,1-1.46.866c-.063.033-.124.069-.187.1a16.612,16.612,0,0,1-1.518.676c-.094.036-.188.073-.282.107a16.231,16.231,0,0,1-1.571.489l-.109.025a14.99,14.99,0,0,1-.328-3.018c0-.395-.014-.8-.041-1.2.067-.02.13-.047.2-.069.141-.046.28-.095.418-.146.173-.063.343-.128.512-.2.136-.057.27-.116.4-.178.165-.076.327-.155.488-.238.129-.067.257-.134.383-.205.157-.089.311-.182.463-.277.122-.076.244-.152.362-.232.15-.1.3-.208.441-.315.113-.084.226-.167.335-.254.143-.114.281-.234.418-.354.1-.09.208-.179.309-.273.136-.129.266-.263.4-.4.091-.094.185-.186.273-.283.135-.147.261-.3.388-.457.076-.091.154-.179.227-.272.144-.186.278-.379.41-.573.047-.068.1-.134.145-.2.174-.266.339-.539.492-.819.034-.062.063-.128.1-.191.115-.22.228-.441.33-.668.048-.107.088-.219.133-.328.078-.187.156-.374.224-.565.044-.125.081-.254.122-.381.057-.181.115-.361.164-.545.037-.135.066-.273.1-.41.042-.18.083-.36.116-.543.026-.144.046-.29.067-.436.026-.179.051-.359.069-.541.015-.15.025-.3.034-.454.007-.1.02-.208.023-.314l.043.068c.2.33.385.673.571,1.021.047.089.1.172.143.262q.347.668.666,1.379l1.417,2.835a.767.767,0,0,0,.077.123l.034.044c-.067.164-.135.325-.2.481-.132.04-.25.1-.376.143s-.273.094-.4.152a5.9,5.9,0,0,0-.923.505c-.012.008-.022.019-.034.028a5.567,5.567,0,0,0-.774.661c-.068.07-.129.147-.195.221a5.417,5.417,0,0,0-.475.619c-.061.092-.12.184-.176.28a6.043,6.043,0,0,0-.36.746c-.035.087-.078.168-.11.257a6.84,6.84,0,0,0-.285,1.083c-.021.112-.025.232-.04.347-.027.2-.061.4-.072.617-.044.038-.088.074-.132.111A16.181,16.181,0,0,1,1086.787,1065.845Zm-6.188-13.162c-.028.018-.059.036-.089.054-.076.044-.16.086-.249.128-.032.014-.061.029-.094.043a3.319,3.319,0,0,1-.409.139c-.027.008-.059.013-.088.02a3.73,3.73,0,0,1-.407.075c-.053.008-.11.013-.167.019-.143.014-.295.02-.456.021-.053,0-.1,0-.157,0a6.342,6.342,0,0,1-.693-.058c-.048-.006-.1-.018-.151-.026q-.309-.048-.651-.131c-.085-.02-.172-.043-.26-.067q-.344-.093-.72-.222l-.17-.057a25.171,25.171,0,0,0-2.748-2.344c-.045-.108-.079-.215-.119-.322-.074-.205-.148-.41-.2-.611-.036-.135-.062-.266-.09-.4-.038-.188-.074-.373-.1-.552-.017-.128-.03-.253-.04-.376-.013-.171-.023-.337-.026-.5,0-.112,0-.223,0-.328,0-.155.011-.3.021-.436.005-.056.008-.113.014-.166l2.1,1.5,6.187,4.419c-.009.008-.02.015-.03.023A2.517,2.517,0,0,1,1080.6,1052.683Zm1.768-.922-9.015-6.439a12.88,12.88,0,0,1,2.5-1.171c.336.017.667.044,1,.078.088.009.175.018.264.029.314.037.623.085.93.139.161.028.324.06.488.094s.3.067.454.1c.36.085.726.182,1.1.3.065.02.131.039.2.06.231.074.464.155.7.242.057.021.112.044.168.065a16.021,16.021,0,0,1,2.108,1c.107.061.214.122.319.185q.279.165.557.347c.126.082.25.169.374.255.171.119.343.236.514.364.124.094.244.195.366.293q.411.328.816.7c.154.141.31.279.461.427.125.122.247.254.371.383.152.157.3.315.45.48.121.134.239.276.358.417.087.1.174.211.26.317a8.483,8.483,0,0,1-1.986,3.837l-1.241-.827Zm12.045,8.464.1-.005c.061,0,.123-.007.185-.007a12.656,12.656,0,0,1,2.717.3c-.054.093-.1.189-.158.28-.095.157-.193.31-.292.463q-.242.369-.5.723c-.1.144-.21.288-.32.428-.191.244-.393.479-.6.712-.1.117-.2.237-.308.351-.281.3-.574.59-.876.868-.038.035-.073.074-.112.109-.344.311-.7.6-1.073.884-.11.084-.226.16-.339.24-.265.191-.533.377-.81.552-.145.091-.293.176-.441.263-.258.151-.519.3-.785.434q-.238.123-.481.238c-.107.05-.217.094-.325.142-.022-.116-.05-.232-.069-.349-.025-.155-.05-.31-.068-.465a10.862,10.862,0,0,1-.08-1.239v-.01h0v-.025a6.507,6.507,0,0,1,.067-.868,17.035,17.035,0,0,0,2.707-3.638c.122-.047.255-.084.385-.123.114-.034.221-.075.34-.1.093-.022.188-.036.282-.053A6.228,6.228,0,0,1,1094.412,1060.225Zm3.313,2.557c.188-.261.375-.523.55-.795.116-.18.224-.366.334-.551.1-.166.207-.326.3-.5a15.76,15.76,0,0,1,3.685,1.91c-.118.216-.237.429-.361.64-.135.228-.266.459-.409.681-.2.308-.408.606-.62.9-.147.207-.289.418-.443.62-.236.308-.488.6-.74.9-.148.174-.289.355-.443.525-.325.358-.668.7-1.016,1.035-.094.091-.181.19-.277.279q-.672.627-1.4,1.193c-.153.121-.316.228-.473.344-.337.251-.675.5-1.026.734-.2.133-.415.252-.622.379-.32.2-.638.392-.967.571-.229.124-.466.235-.7.352s-.463.225-.7.332c-.108-.138-.219-.275-.321-.414-.073-.1-.149-.2-.219-.3-.157-.228-.3-.458-.437-.69-.068-.112-.142-.223-.2-.336a11.651,11.651,0,0,1-.54-1.107c-.061-.142-.115-.286-.17-.43-.047-.123-.084-.249-.127-.374.16-.069.312-.152.47-.226.2-.091.394-.183.587-.281.28-.144.553-.3.824-.457.179-.1.359-.2.534-.313.288-.181.565-.376.842-.573.144-.1.294-.2.435-.306.362-.274.71-.564,1.05-.865.047-.042.1-.079.144-.121.383-.346.749-.711,1.1-1.091.107-.115.2-.239.307-.356.238-.271.474-.544.695-.83C1097.5,1063.107,1097.608,1062.943,1097.725,1062.782Zm-6.49-15.659,2.057,3.086h-1.433a.75.75,0,0,0-.624,1.166l2.057,3.086h-.952c-.095-.2-.2-.4-.295-.593-.079-.16-.157-.322-.238-.478-.179-.342-.364-.674-.553-1-.047-.08-.09-.164-.138-.243q-.369-.624-.766-1.21c-.019-.028-.039-.053-.058-.081q-.359-.523-.737-1.016c-.019-.023-.035-.05-.054-.074-.088-.113-.18-.215-.269-.325-.158-.194-.315-.389-.477-.576-.127-.145-.255-.28-.383-.419-.151-.162-.3-.326-.454-.482s-.282-.274-.424-.408-.293-.282-.444-.416-.307-.262-.461-.391c-.115-.1-.226-.2-.342-.289l1.069-2.676a16.132,16.132,0,0,1,5.277,2.174h-.734a.75.75,0,0,0-.624,1.166Zm-5.419-3.628-.823,2.058c-.061-.04-.125-.073-.187-.112q-.438-.281-.878-.527c-.074-.042-.149-.083-.224-.124a17.414,17.414,0,0,0-2.405-1.075l-.022-.008q-.664-.237-1.313-.415.959-.086,1.974-.087A25.18,25.18,0,0,1,1085.816,1043.495Zm-20.392,2.574c2.015.009,4.225.01,5.67-.01,0,.014,0,.034-.005.049-.021.156-.04.324-.055.507,0,.028,0,.056-.005.084-.013.182-.021.374-.023.578,0,.026,0,.049,0,.076,0,.215.008.443.025.678,0,.047.007.094.011.142.021.241.05.489.094.746l0,.032A36.857,36.857,0,0,0,1065.424,1046.069Zm12.19,8.547c.044.006.082.005.126.01.182.022.355.033.524.042.1.005.2.014.29.015.026,0,.055,0,.08,0,.059,0,.106-.012.163-.013a6,6,0,0,0,.711-.057c.083-.012.165-.024.244-.039a5.036,5.036,0,0,0,.645-.164c.032-.01.068-.018.1-.029a4.288,4.288,0,0,0,.617-.274c.047-.025.088-.051.133-.077a4.355,4.355,0,0,0,.378-.247c.039-.029.078-.057.115-.086a3.9,3.9,0,0,0,.351-.311l0,0,0,0,3.676,2.451a.744.744,0,0,0,.209.1c.025.007.05.006.075.011a.756.756,0,0,0,.132.019l.014,0a.779.779,0,0,0,.158-.026c.025-.007.051-.007.077-.015a.76.76,0,0,0,.2-.111l.011-.006h0c.01-.007.047-.038.1-.081l.041-.035c.056-.05.129-.119.214-.2l.095-.095c.089-.091.186-.195.292-.316.044-.05.087-.1.133-.157.111-.132.224-.274.343-.436.048-.065.1-.136.144-.206s.08-.112.121-.174l0,.023a10.445,10.445,0,0,1-.292,1.248c-.024.084-.049.169-.076.252a10.488,10.488,0,0,1-.447,1.165c-.027.059-.058.116-.086.174a10.654,10.654,0,0,1-.563,1.027c-.029.047-.056.1-.086.142a10.251,10.251,0,0,1-.736,1c-.056.068-.112.134-.17.2a10.722,10.722,0,0,1-.865.893c-.038.034-.079.065-.118.1a10.287,10.287,0,0,1-.924.725c-.057.04-.112.083-.17.122a10.411,10.411,0,0,1-1.079.631c-.079.041-.16.079-.241.118a10.818,10.818,0,0,1-1.195.494l-.024.006A16.876,16.876,0,0,0,1077.614,1054.616Zm4.482,14.957c.5-.129,1-.278,1.492-.451.091-.032.178-.069.268-.1q.635-.235,1.249-.52c.107-.049.215-.1.321-.147.465-.226.922-.471,1.367-.737.089-.054.176-.113.264-.168q.567-.352,1.107-.749c.063-.046.13-.083.192-.13.006.049.017.1.023.145.024.182.056.364.087.545.049.283.109.563.177.842.029.117.052.236.084.352h0c0,.017.012.034.017.051a12.535,12.535,0,0,0,.455,1.337l0,.005c.124.3.258.607.406.9-.248.162-.5.322-.751.473-.173.1-.343.211-.518.309q-.747.417-1.521.773c-.044.02-.086.045-.129.064-.563.254-1.138.48-1.722.685-.174.061-.353.111-.53.168-.307.1-.618.188-.931.274a23.681,23.681,0,0,1-1.543-3.885C1082.008,1069.6,1082.051,1069.585,1082.1,1069.573Zm2.852,5.063c.2-.066.4-.128.6-.2q.79-.282,1.558-.62c.081-.035.164-.064.244-.1.587-.266,1.162-.562,1.727-.877.162-.091.32-.192.481-.287.267-.157.539-.307.8-.476.06.093.129.185.192.278s.134.2.2.293c.254.357.52.711.812,1.058.015.017.026.035.04.052.073.086.158.169.233.254.185.21.374.418.573.624.114.118.233.235.352.351.1.094.186.19.284.283-.217.146-.432.294-.652.434-.2.127-.4.257-.607.38-.437.261-.883.505-1.332.741-.148.077-.292.162-.44.237q-.9.452-1.831.835c-.147.061-.3.111-.447.169-.386.151-.777.291-1.17.425a38.369,38.369,0,0,1-2.337-3.619C1084.476,1074.8,1084.71,1074.713,1084.948,1074.636Zm3.3,4.842c.233-.091.466-.18.7-.276.481-.2.956-.423,1.426-.651.167-.081.337-.155.5-.239q.939-.48,1.847-1.027c.138-.084.272-.178.409-.265.372-.233.745-.464,1.107-.715.055.045.118.086.173.13.5.4,1.026.8,1.587,1.19l.013.009c.071.048.144.094.214.142l.066.043.019.013.28.184.017.012.014.009c.117.077.231.156.35.232l.5.481.2.189c-.268.2-.537.4-.81.6-.222.157-.44.318-.665.469-.483.324-.978.63-1.477.928-.158.095-.312.2-.472.29q-.994.571-2.027,1.074c-.164.08-.334.148-.5.225q-.668.312-1.349.592c-.06-.065-.125-.131-.184-.2-.941-1.038-1.83-2.1-2.653-3.156C1087.769,1079.675,1088,1079.571,1088.243,1079.478Zm1.406,9.795a2.348,2.348,0,0,1,1.155-1.924,2.492,2.492,0,0,1,1.055-.207h.333c.019.018.04.036.059.055.315.3.651.618,1.015.954.118.109.229.218.347.326h-1.754l-.057,0-.079.008a4.706,4.706,0,0,0-.731.15h0A4.289,4.289,0,0,0,1089.649,1089.273Zm2.491.7h3.162q.393.339.777.662l-3.247,1.948Zm2.156,5.7a2.452,2.452,0,0,0-.589.513,3.959,3.959,0,0,0-.749,2.627h0a10.394,10.394,0,0,0,.159,1.652,6.222,6.222,0,0,1-.531-3.972.751.751,0,0,0-.727-.935.731.731,0,0,0-.2.028,2.367,2.367,0,0,0-.928.491,5.38,5.38,0,0,1,.272-.648l1.746-1.047h0l2.479-1.488,2.081-1.249c.053.043.109.084.162.127.438.349.888.7,1.379,1.075v0l.284.218.1.078-.082.038-.341.153-.136.062c-.168.077-.345.158-.532.246l-.061.029q-.26.122-.536.255l-.134.064c-.21.1-.422.206-.64.315C1095.794,1094.805,1094.96,1095.264,1094.3,1095.677Zm8.776,3.453-1.063-4.008c.046.031.089.057.135.087.209.14.409.263.615.4.32.207.648.426.958.616A12.537,12.537,0,0,1,1103.072,1099.13Zm3.1-3.528c.795-.525,1.579-1.067,2.344-1.635.113-.084.222-.173.335-.258q1.02-.769,2-1.588c.1-.085.211-.162.312-.248l4.753,4.554.578.554h-7.623a8.614,8.614,0,0,1-2.942-1.208C1106.009,1095.719,1106.088,1095.657,1106.171,1095.6Zm4.141,2.879h3.474v29.979a14.181,14.181,0,0,1-1.335-5.217v-9.922C1112.451,1104.385,1111.244,1100.3,1110.312,1098.481Zm6.309,33.386a7.93,7.93,0,0,1-1.335-1.17v-32.216h1.335v33.386Zm4.227-27.354-2.727-2.614v-3.355l.2.191Zm-1.381-6.757h0l-1.5-1.436-.381-.365-5.88-5.636-4.113-3.941-1.542-1.477-4.233-4.058.06.027.364.163.088.038.017.007c.207.09.413.178.616.263l.269.115c.334.137.667.271,1,.4l.112.042c.295.114.59.226.883.334l.289.1c.236.087.472.171.7.252l.325.112c.226.078.452.154.676.229l.3.1q.352.114.7.224l.081.026,9.067,8.828,6.469,6.3,2.671,6.106Z" fill="#1a1a1a"/>
  </g>
</svg>