<?xml version="1.0" encoding="utf-8"?>
<svg width="800px" height="800px" viewBox="-8.5 0 86.539 86.539" xmlns="http://www.w3.org/2000/svg">
  <g id="Group_989" data-name="Group 989" transform="translate(-697.01 -507.459)">
    <path id="Path_669" data-name="Path 669" d="M765.262,565.788l-13.1,13.1c-.029-.057-.074-.105-.105-.16a5.619,5.619,0,0,0-.409-.62c-.065-.086-.126-.173-.2-.256a6.28,6.28,0,0,0-.774-.772,5.21,5.21,0,0,0-.492-.36c-.072-.047-.15-.085-.225-.128-.1-.057-.195-.119-.3-.17l16.659-16.658a.75.75,0,0,0-1.061-1.061l-17.216,17.216a8.793,8.793,0,0,0-4.881.871l-7.6-5.066.831-.5a53.906,53.906,0,0,0,6.176-4.256c1.27,2.982,3.331,2.933,3.409,2.934a.75.75,0,0,0,.645-1.074,6.324,6.324,0,0,1-.159-4.595h2.118a1.862,1.862,0,0,1,.985,1.278c.194,1.174-.9,2.659-1.334,3.13a.75.75,0,0,0,.548,1.262,4.992,4.992,0,0,0,1.25-9.827c7.091-7.761,10.839-16.356,10.839-24.952-.007-.418-.207-10.149-2.841-14.371a14.911,14.911,0,0,0-3.451-8.766l0,0c-.1-.118-.207-.235-.316-.35h0c-2.626-2.772-6.377-4.177-11.148-4.177s-8.522,1.4-11.148,4.177h0c-.108.114-.211.229-.313.346l0,0a14.919,14.919,0,0,0-3.452,8.72c-.675.912-3.519,4.911-4.184,8.308-1.72,1.152-10.594,7.7-12.794,21.432l-14.085,21.128a.75.75,0,0,0,.441,1.144,4.946,4.946,0,0,0,2.338-.109l-2.8,4.665a.75.75,0,0,0,.4,1.1,8.922,8.922,0,0,0,5.463-.076l-.224.448a.75.75,0,0,0,.309.992,4.1,4.1,0,0,0,1.924.375,12.7,12.7,0,0,0,5.878-1.788c3.477-1.862,7.038-3.949,8.818-5.008v1.512a.75.75,0,0,0,1.166.624l3.086-2.058v1.434a.749.749,0,0,0,.4.661.741.741,0,0,0,.354.089.749.749,0,0,0,.416-.126l3.086-2.058v1.434a.749.749,0,0,0,1.135.643l2.2-1.318,9.428,6.734a12.884,12.884,0,0,0,.2,1.93l-9.906,9.906a.75.75,0,1,0,1.06,1.06l9.284-9.283c.03.081.069.143.1.221.085.207.173.4.269.589.054.1.108.205.165.3.1.173.205.333.313.484.056.08.111.162.169.237a5.711,5.711,0,0,0,.4.45c.039.041.077.089.117.128a5.683,5.683,0,0,0,.531.456l.02.017-5.338,5.339a.75.75,0,0,0,1.06,1.061l5.658-5.658a3.835,3.835,0,0,0,.822.2c.026,0,.051,0,.077,0a.75.75,0,0,0,.653-1.118q-.111-.2-.217-.426l3.065-3.065v2.441a.75.75,0,0,0,1.192.606,3.332,3.332,0,0,0,1.377-2.821.744.744,0,0,0,.281-.307,6.081,6.081,0,0,0,.374-3.142l13.648-13.648a.75.75,0,0,0-1.061-1.061Zm-17.133,11.669a3.763,3.763,0,0,1,1.594.779,4.022,4.022,0,0,1,1.419,2.179,3.874,3.874,0,0,1,.081.46c-.114-.251-.234-.5-.357-.732-.5-.954-1.833-1.745-4.069-2.417-.3-.091-.6-.171-.887-.246l-.059-.017A5.494,5.494,0,0,1,748.129,577.457Zm-4.31-11.4c-.009-.023-.017-.046-.026-.07q.454-.374.9-.753a7.863,7.863,0,0,0,.008,2.412A5.11,5.11,0,0,1,743.819,566.059Zm8.467-1.157a3.506,3.506,0,0,1-1.775,3.046,4.455,4.455,0,0,0,.54-2.675,3.393,3.393,0,0,0-1.909-2.448.744.744,0,0,0-.358-.091h-1.332c.041-.039.079-.079.119-.118.236-.228.464-.459.694-.689.176-.176.358-.35.531-.527A3.5,3.5,0,0,1,752.286,564.9Zm3.01-43.008c-.059.031-.123.063-.187.1-.082.04-.168.079-.258.119-.073.031-.149.063-.228.094-.1.039-.2.077-.31.114-.086.03-.175.06-.268.089-.117.037-.242.072-.37.106-.1.028-.2.055-.309.081-.139.034-.29.064-.44.1-.115.023-.226.047-.347.069-.167.029-.35.055-.531.081-.124.018-.242.037-.373.053-.211.025-.441.045-.671.064-.12.011-.231.024-.357.033-.364.025-.749.044-1.159.054a.744.744,0,0,0-.4.126l-2.164,1.443a7.67,7.67,0,0,1-3.419,1.246.753.753,0,0,0,.279-.3l.215-.435a6.293,6.293,0,0,1,2.287-2.065.751.751,0,0,0,.347-.974c-2.084-4.7-3.165-4.7-3.52-4.7s-1.436,0-3.52,4.7a.749.749,0,0,0,.348.974,6.325,6.325,0,0,1,2.263,2.025l.238.475a.747.747,0,0,0,.278.3,7.761,7.761,0,0,1-3.443-1.262l-2.139-1.426a.744.744,0,0,0-.4-.126c-.41-.01-.795-.029-1.159-.054-.126-.009-.238-.022-.359-.033-.23-.019-.46-.039-.671-.065-.13-.015-.247-.034-.369-.052-.183-.026-.367-.052-.536-.082-.119-.021-.229-.044-.341-.067-.154-.031-.307-.062-.448-.1-.1-.025-.2-.051-.3-.078-.132-.035-.261-.071-.382-.109l-.255-.084c-.114-.04-.223-.08-.326-.121-.073-.028-.144-.057-.211-.086q-.147-.064-.279-.129c-.057-.028-.114-.055-.166-.083-.086-.046-.165-.092-.241-.137l-.08-.049h2.575a16.465,16.465,0,0,0,4.427-.508c3.272-.921,3.408-2.8,3.41-3.077h0v0c0-.079,0-.169-.008-.267,0-.032,0-.066-.008-.1-.005-.073-.012-.148-.022-.229-.005-.044-.012-.09-.019-.136-.011-.078-.024-.158-.04-.242-.01-.053-.021-.1-.033-.158-.019-.087-.042-.176-.067-.268-.015-.054-.029-.107-.046-.163-.033-.1-.072-.214-.113-.323-.017-.045-.031-.088-.049-.133q-.094-.234-.22-.475c-.011-.021-.026-.043-.038-.065-.075-.138-.157-.277-.249-.416-.034-.051-.074-.1-.11-.153-.079-.111-.162-.221-.253-.331-.048-.058-.1-.114-.151-.172q-.141-.156-.3-.309c-.059-.057-.119-.113-.182-.169-.117-.1-.244-.206-.376-.306-.065-.05-.127-.1-.2-.149-.166-.117-.347-.23-.536-.341-.046-.027-.087-.056-.135-.083a8.684,8.684,0,0,0-.79-.388c-.057-.025-.122-.046-.181-.07-.229-.093-.467-.183-.722-.265-.107-.035-.223-.066-.336-.1-.138-.04-.269-.085-.415-.122.064-.007.129-.018.193-.024.129-.011.258-.021.385-.027.149-.008.295-.01.441-.011s.281,0,.417,0c.11.005.215.015.322.023a9.3,9.3,0,0,1,1.74.3l.016,0c.188.052.369.11.544.17l.057.019c.176.062.347.127.509.2l.017.007a8.726,8.726,0,0,1,2.519,1.563.675.675,0,0,0,.159.1.718.718,0,0,0,.082.053.751.751,0,0,0,.8-.155c.016-.015.071-.066.156-.139l.021-.018c.044-.037.1-.08.155-.127l.026-.021c.065-.051.137-.107.219-.167h0a9.532,9.532,0,0,1,1.913-1.08l.064-.027c.151-.062.309-.123.473-.18l.1-.034c.165-.056.333-.11.509-.159.023-.006.048-.011.071-.018a9.316,9.316,0,0,1,1.693-.287c.107-.008.212-.018.321-.023.14-.006.285,0,.43,0s.277,0,.419.01.273.018.412.03c.059.006.12.016.18.023-.145.036-.274.08-.411.12-.116.034-.236.066-.346.1-.247.08-.478.167-.7.257-.066.027-.139.051-.2.078-.28.121-.54.25-.782.384-.059.033-.109.068-.165.1-.177.1-.348.21-.5.321-.076.054-.144.109-.216.163-.124.095-.244.191-.354.289-.07.061-.135.123-.2.185-.1.1-.193.192-.281.29-.058.063-.114.126-.167.19-.084.1-.161.2-.234.306-.043.059-.088.118-.127.177-.08.121-.151.242-.218.363-.022.039-.048.079-.068.118-.082.156-.152.31-.214.462-.024.059-.043.115-.064.173-.035.095-.07.189-.1.28-.02.066-.037.129-.054.193-.022.08-.042.159-.06.236s-.026.123-.037.183-.026.144-.036.214c-.008.055-.017.108-.022.16-.009.071-.015.136-.02.2,0,.041-.007.084-.009.123-.005.087-.008.166-.008.239v.03c0,.366.242,3.58,7.836,3.58H755.6l-.093.057C755.443,521.812,755.372,521.853,755.3,521.894Zm-4.389,10.528c-.329.136-.652.26-.975.382-.18.069-.364.144-.543.209-.386.139-.764.266-1.14.388-.11.035-.223.077-.332.111q-.739.231-1.456.419h0c-.471.123-.933.231-1.388.327-.117.025-.231.043-.347.066-.336.067-.67.131-1,.183-.142.023-.281.04-.422.061-.3.043-.59.083-.878.115-.148.016-.292.028-.437.042-.276.026-.55.049-.82.065-.145.009-.289.015-.432.021-.263.011-.523.019-.779.021-.14,0-.28,0-.418,0q-.383,0-.754-.018c-.13-.005-.261-.011-.39-.018-.25-.015-.5-.034-.74-.056-.118-.011-.238-.021-.355-.034-.252-.027-.5-.059-.741-.094-.1-.015-.206-.028-.306-.044-.266-.042-.526-.089-.782-.14l-.215-.04c-.322-.067-.638-.139-.946-.218h0c-.635-.163-1.236-.35-1.806-.553l-.135-.051c-.229-.084-.455-.17-.673-.259l-.209-.088c-.188-.079-.373-.159-.553-.24l-.23-.109c-.165-.078-.328-.156-.486-.235l-.229-.119q-.225-.117-.44-.236c-.075-.041-.148-.083-.221-.124-.137-.079-.271-.157-.4-.236l-.206-.125c-.128-.08-.251-.159-.372-.238l-.185-.121c-.121-.081-.237-.161-.35-.241-.052-.037-.106-.073-.156-.11-.118-.085-.23-.168-.34-.25-.039-.03-.081-.06-.119-.09-.131-.1-.256-.2-.373-.294l-.035-.028c-.132-.107-.256-.212-.371-.311l-.006-.005c-.11-.1-.211-.186-.306-.272l-.085-.079c-.061-.058-.123-.115-.177-.167-.032-.03-.06-.058-.089-.087l-.129-.127-.071-.073-.063-.066c.511-2.5,2.43-5.514,3.43-6.959l.02.02.015.014c.082.082.174.165.274.249l.045.039q.159.129.349.26c.021.015.044.029.066.044.125.083.258.166.4.248l.037.021c.154.085.323.168.5.249l.115.052c.187.081.383.161.6.237l.042.014c.205.072.426.14.658.2l.145.04c.246.067.507.128.785.185l.148.029c.26.05.533.1.82.138.048.007.092.015.14.021.318.044.655.08,1.008.11l.233.019c.369.028.751.052,1.16.065l1.934,1.288a8.869,8.869,0,0,0,4.693,1.561c.121,0,.265,0,.411.009.081,0,.165.006.256.011l.145.009c2.044.135,6.077.871,8.266,4.445-.218.1-.434.2-.65.289S751.117,532.335,750.907,532.422Zm-9.663-10.34a14.009,14.009,0,0,1,1.871-3.124,14.006,14.006,0,0,1,1.871,3.124,7.968,7.968,0,0,0-1.868,1.681A7.854,7.854,0,0,0,741.244,522.082Zm-4.507-7.454A1.376,1.376,0,1,1,735.361,516,1.377,1.377,0,0,1,736.737,514.628Zm12.756,0A1.376,1.376,0,1,1,748.117,516,1.377,1.377,0,0,1,749.493,514.628Zm3.543,5.587c-.373,0-.723-.009-1.053-.023-.119-.006-.222-.016-.336-.023-.2-.013-.406-.024-.591-.042-.137-.013-.257-.031-.385-.047-.144-.017-.294-.033-.427-.053s-.263-.047-.392-.071c-.1-.02-.212-.037-.308-.058-.14-.031-.265-.065-.392-.1-.068-.018-.142-.035-.207-.054-.141-.041-.268-.085-.392-.13-.036-.013-.077-.025-.112-.038-.141-.054-.271-.109-.39-.166l-.029-.013c-1.144-.55-1.3-1.19-1.321-1.289a4.2,4.2,0,0,1,.061-.707c.009-.052.028-.1.039-.148s.027-.094.039-.142a2.874,2.874,0,1,0,4.332-3.433l.223-.057c.092-.022.185-.046.277-.066s.2-.042.3-.062.181-.036.269-.052.189-.031.283-.046l.253-.04.249-.032c.081-.01.166-.022.242-.03.04-.005.074-.007.113-.011.105-.011.211-.022.3-.03a13.594,13.594,0,0,1,2.8,6.961Zm-9.921-11.256a15.189,15.189,0,0,1,7.46,1.7c-.057,0-.109,0-.167,0a10.694,10.694,0,0,0-1.1-.016c-.1,0-.2.016-.3.024-.268.019-.529.046-.782.084-.127.018-.254.035-.378.058q-.441.08-.851.189c-.136.037-.263.078-.393.118q-.25.076-.487.162c-.128.046-.256.09-.377.139-.219.087-.425.179-.623.273-.127.06-.244.119-.362.181s-.213.112-.315.169c-.155.087-.3.17-.435.255-.1.065-.208.129-.3.191s-.157.106-.23.158c-.1.066-.179.128-.259.187-.03.023-.071.051-.1.072-.038-.029-.091-.065-.133-.1l-.2-.143c-.077-.055-.159-.109-.246-.168-.059-.039-.122-.079-.187-.12-.181-.116-.38-.233-.6-.353-.06-.034-.115-.066-.178-.1-.122-.066-.251-.128-.383-.192-.085-.041-.171-.081-.26-.121-.139-.063-.277-.125-.425-.185s-.3-.114-.457-.168c-.194-.07-.4-.133-.6-.194-.141-.041-.283-.08-.429-.116s-.293-.07-.445-.1c-.22-.044-.448-.081-.68-.112-.159-.022-.321-.038-.485-.053-.237-.021-.478-.035-.726-.04-.07,0-.134-.012-.2-.012-.1,0-.2.009-.3.012s-.176.006-.264.01-.171,0-.259.01A15.189,15.189,0,0,1,743.115,508.959Zm-10.574,4.3c.132.011.277.025.432.042l.123.016c.117.014.235.028.361.046.072.01.15.023.225.035.1.016.2.031.308.05l.266.052c.1.02.2.039.3.062s.192.045.289.068l.211.053a2.872,2.872,0,1,0,4.335,3.421c.006.023.014.046.019.069.017.073.043.141.057.217a4.232,4.232,0,0,1,.062.71c0,.02-.212,1.628-4.325,2.029-.588.058-1.255.091-2.013.091h-3.448A13.6,13.6,0,0,1,732.541,513.254Zm-7.955,17.194.016.016c.108.106.233.226.378.359l.077.069c.133.121.279.249.44.386.032.026.059.05.091.077.184.154.386.315.6.483l.142.106c.2.154.42.311.652.472l.109.076c.26.178.54.358.834.539.066.041.135.082.2.123.286.172.585.344.9.514l.084.046c.337.179.7.354,1.067.526l.266.12c.387.172.785.342,1.207.5.264.1.539.2.823.291.045.015.094.028.14.043.241.078.485.155.741.228.079.022.164.042.244.064.228.062.456.124.7.181.106.025.218.046.326.07.221.049.441.1.671.143.126.024.258.043.387.065.221.039.44.078.668.111.142.02.292.035.437.053.223.028.444.057.674.079.162.015.331.024.5.036.222.017.442.035.671.046.177.008.361.009.541.013.205.005.406.015.616.015l.062,0c.448,0,.906-.012,1.375-.039.075,0,.154-.013.23-.018.4-.026.8-.058,1.211-.1.172-.018.35-.046.524-.068.325-.042.65-.086.984-.141.2-.033.408-.074.614-.112.316-.059.635-.121.959-.193.219-.048.441-.1.663-.155q.483-.118.977-.254c.229-.064.459-.129.691-.2.338-.1.681-.212,1.026-.327.231-.078.461-.153.7-.237.37-.132.747-.278,1.125-.427.216-.085.43-.165.649-.256.056-.023.11-.042.167-.066-.047.129-.091.261-.138.389-.131.352-.265.7-.4,1.045-.159.412-.319.823-.483,1.227-.139.342-.282.678-.424,1.014-.168.4-.337.788-.51,1.175q-.222.495-.449.98-.266.567-.536,1.123-.234.476-.474.943c-.186.363-.374.723-.565,1.077q-.245.456-.495.9c-.2.348-.394.691-.594,1.031q-.257.435-.518.862c-.205.334-.414.662-.624.987-.178.275-.356.549-.537.818-.216.32-.435.633-.656.944-.184.261-.369.521-.557.776-.226.3-.456.6-.687.9-.191.245-.381.492-.575.731-.237.292-.48.576-.722.859-.2.23-.391.461-.591.685-.25.28-.5.55-.76.821-.2.212-.4.428-.6.634-.264.269-.534.527-.8.786-.2.194-.4.393-.608.582-.281.258-.568.505-.854.753-.2.175-.4.356-.607.527-.3.251-.613.489-.922.729-.2.153-.389.313-.588.461-.347.259-.7.5-1.057.748-.168.116-.331.239-.5.352q-.792.528-1.607,1.012a32.073,32.073,0,0,1-16.112,4.578,2.022,2.022,0,0,1-1.54-.715,3.747,3.747,0,0,1-.391-.508c-.05-.077-.093-.169-.139-.252-.069-.119-.139-.232-.2-.362-.048-.1-.088-.213-.133-.318-.054-.129-.111-.251-.161-.387-.039-.107-.071-.224-.107-.335-.048-.148-.1-.291-.142-.446-.036-.125-.065-.259-.1-.388-.038-.151-.078-.3-.112-.454s-.057-.3-.086-.444-.059-.294-.085-.445-.047-.315-.07-.473-.047-.3-.066-.45-.035-.311-.052-.466-.038-.316-.053-.475-.027-.33-.04-.495c-.011-.149-.026-.3-.035-.447s-.018-.321-.027-.481-.018-.3-.024-.455-.01-.312-.015-.468-.011-.294-.013-.437c0-.164,0-.321-.006-.481,0-.129,0-.261,0-.387,0-.155,0-.3,0-.449,0-.121,0-.248,0-.364,0-.174.008-.334.013-.5,0-.08,0-.165.007-.242.005-.168.013-.32.021-.473,0-.061.005-.13.008-.189.01-.169.02-.32.031-.465l.005-.091A31.249,31.249,0,0,1,724.586,530.448ZM710.162,577c-2.874,1.539-4.718,1.674-5.644,1.58l1-2a.75.75,0,0,0-1.194-.873,6.249,6.249,0,0,1-5.387,1.452l3.719-6.2a.75.75,0,0,0-1.153-.937,4.665,4.665,0,0,1-2.346,1.226l11.931-17.9v.029c0,.267,0,.551,0,.843,0,.067,0,.133,0,.2.005.29.013.587.024.894l0,.052c.013.319.031.646.053.977.005.078.01.156.016.235.021.288.045.579.074.873.006.055.01.11.016.166q.052.5.123,1.01c.011.076.023.151.035.227q.063.422.14.835c.014.073.027.145.041.217.065.328.138.651.219.966.016.061.033.12.05.181.071.261.147.515.23.763.026.075.05.151.076.224.1.291.215.574.339.84.016.035.034.066.051.1a7.269,7.269,0,0,0,.358.655c.039.063.077.124.117.184a5.065,5.065,0,0,0,.486.633,3.491,3.491,0,0,0,2.641,1.2,33.592,33.592,0,0,0,16.876-4.787q.844-.5,1.664-1.047c.184-.123.362-.256.544-.382.359-.249.72-.5,1.071-.758.212-.157.416-.326.625-.488.314-.244.63-.486.938-.741.22-.182.433-.375.649-.562.289-.251.58-.5.864-.76.218-.2.43-.411.645-.617.274-.263.549-.524.817-.8.214-.217.423-.444.634-.668.26-.275.521-.55.776-.835.208-.233.412-.475.618-.715.248-.29.5-.579.74-.879.2-.248.4-.5.6-.759.237-.3.474-.61.707-.923.2-.264.386-.534.578-.8.227-.319.453-.64.675-.969.188-.278.372-.562.557-.847.216-.334.432-.671.643-1.014q.27-.44.534-.889c.207-.35.412-.7.613-1.061q.26-.461.511-.931.3-.547.584-1.108.246-.481.487-.972.279-.569.551-1.151.236-.506.467-1.019c.175-.393.348-.792.519-1.194.149-.351.3-.7.442-1.06.166-.408.328-.822.489-1.238.141-.366.282-.733.42-1.106.052-.143.108-.279.16-.423.023.077.049.149.07.228.047.173.093.347.132.525.083.381.153.778.2,1.2.014.114.023.232.034.348.046.485.08.985.08,1.523,0,8.529-15.984,21.5-16.7,22.072l-16.967,11.311C719.866,571.458,714.929,574.445,710.162,577Zm19.134-5.669a.744.744,0,0,0-.354-.089.752.752,0,0,0-.416.126l-3.086,2.058v-1.434a.75.75,0,0,0-1.166-.624l-3.086,2.058v-1.033l16.674-11.115c.017-.012.034-.024.05-.037.706-.562,17.291-13.864,17.291-23.265,0-.557-.033-1.084-.08-1.6-.011-.118-.024-.235-.038-.351-.056-.493-.13-.97-.228-1.422,0-.015-.005-.031-.009-.046a12.14,12.14,0,0,0-.429-1.487l-.019-.053a10.43,10.43,0,0,0-7.481-6.654l.011-.007.08-.044c.124-.067.233-.129.33-.186l.111-.068c.072-.044.13-.081.179-.113l.063-.041.09-.062,1.959-1.306c.512-.017.985-.048,1.437-.088.149-.014.284-.031.427-.047.293-.032.578-.067.845-.108.146-.023.286-.047.425-.072.243-.044.474-.091.7-.142.122-.028.246-.055.362-.085.235-.061.452-.127.661-.194.075-.024.158-.047.23-.072q.4-.141.745-.295c.058-.026.107-.054.162-.08.164-.079.321-.159.463-.24.068-.04.13-.079.193-.119.114-.071.222-.142.32-.213.057-.041.113-.082.165-.123.093-.073.176-.144.254-.215.027-.024.062-.05.087-.074,1.989,4.252,2.157,12.69,2.159,12.77,0,8.715-3.847,17.124-11.434,24.991a60.69,60.69,0,0,1-5.485,5.016,55.189,55.189,0,0,1-6.812,4.783l-1.417.85h0l-2.835,1.7h0l-1.7,1.018v-1.51A.751.751,0,0,0,729.3,571.327Zm3.631,1.979,1.218-.73.05.036,8.5,5.67c.01.006.022.006.032.012a.739.739,0,0,0,.272.1,27.88,27.88,0,0,1,3.362.763c2.455.739,3.037,1.42,3.172,1.679.152.289.3.595.433.908.022.052.037.1.058.148-.032-.033-.074-.069-.109-.1-.058-.057-.114-.111-.179-.17s-.145-.124-.221-.188-.142-.118-.221-.178-.181-.129-.275-.194-.169-.118-.262-.177-.221-.126-.335-.189-.2-.111-.3-.163c-.125-.062-.263-.116-.4-.172-.113-.048-.22-.1-.34-.141-.15-.054-.314-.1-.474-.144-.124-.036-.239-.077-.369-.107-.183-.044-.383-.072-.579-.1-.126-.02-.242-.048-.373-.064-.28-.032-.579-.045-.885-.051-.06,0-.113-.01-.174-.01a.75.75,0,0,0-.749.72v.1l0,.091v.055c0,.041,0,.083,0,.133v.085c0,.05,0,.1,0,.159l0,.112c0,.059,0,.119,0,.183,0,.043,0,.088.005.134,0,.069.005.14.008.214l.007.143c0,.079.009.16.014.244,0,.053.007.1.011.159.006.086.014.175.021.265.005.056.009.111.015.169.009.1.02.2.03.3.006.054.011.108.018.163.013.116.029.234.045.353.006.045.011.089.018.135.023.164.049.331.078.5.008.045.017.09.025.135.023.126.046.253.072.381.014.068.03.136.045.2.023.106.046.211.071.317.019.078.04.155.06.233.025.1.05.2.078.294.023.082.048.164.073.246.018.06.035.12.054.18l-.009-.006c-.023-.018-.045-.039-.067-.057-.086-.069-.171-.143-.255-.224-.036-.034-.071-.071-.107-.107-.076-.079-.151-.163-.226-.253-.032-.039-.064-.076-.1-.116a4.569,4.569,0,0,1-.3-.43c-.011-.018-.021-.039-.032-.057q-.126-.213-.242-.456c-.027-.057-.052-.117-.078-.177q-.091-.21-.173-.443c-.023-.065-.047-.129-.068-.2-.071-.224-.138-.458-.193-.713a11.363,11.363,0,0,1-.239-2.418.751.751,0,0,0-.314-.61Zm12.85,11.737-.054-.218c-.036-.153-.07-.306-.1-.458-.014-.065-.028-.13-.04-.194-.038-.2-.072-.4-.1-.6,0-.027-.007-.054-.011-.081-.027-.185-.05-.367-.07-.543-.008-.074-.015-.144-.022-.216-.012-.119-.024-.236-.033-.349-.006-.073-.012-.145-.017-.215-.008-.108-.014-.212-.02-.312,0-.058-.007-.119-.01-.174-.006-.143-.012-.279-.015-.4v-.008l.018,0a6.591,6.591,0,0,1,.9.154c.067.016.134.031.2.049a6.077,6.077,0,0,1,.762.254l.084.039a5.845,5.845,0,0,1,.592.3c.041.025.084.048.124.073a5.3,5.3,0,0,1,.52.369l.024.02-2.682,2.681C745.811,585.163,745.793,585.1,745.777,585.043Z" fill="#1a1a1a"/>
    <path id="Path_670" data-name="Path 670" d="M734.611,528.8a.75.75,0,0,0,.237-1.461l-4.252-1.417a.75.75,0,0,0-.474,1.423l4.252,1.417A.757.757,0,0,0,734.611,528.8Z" fill="#1a1a1a"/>
    <path id="Path_671" data-name="Path 671" d="M739.1,531.592l-4.252-1.417a.749.749,0,0,0-.474,1.422l4.252,1.417a.726.726,0,0,0,.237.039.75.75,0,0,0,.237-1.461Z" fill="#1a1a1a"/>
    <path id="Path_672" data-name="Path 672" d="M723.035,537.266l4.252,1.418a.75.75,0,0,0,.475-1.423l-4.252-1.417a.75.75,0,1,0-.475,1.422Z" fill="#1a1a1a"/>
    <path id="Path_673" data-name="Path 673" d="M731.539,538.684l4.252,1.417a.733.733,0,0,0,.238.039.75.75,0,0,0,.237-1.461l-4.253-1.418a.75.75,0,0,0-.474,1.423Z" fill="#1a1a1a"/>
    <path id="Path_674" data-name="Path 674" d="M740.043,540.1l4.252,1.417a.733.733,0,0,0,.238.039.75.75,0,0,0,.237-1.461l-4.252-1.417a.75.75,0,1,0-.475,1.422Z" fill="#1a1a1a"/>
    <path id="Path_675" data-name="Path 675" d="M718.783,542.936l4.252,1.417a.732.732,0,0,0,.237.039.75.75,0,0,0,.238-1.461l-4.252-1.418a.75.75,0,0,0-.475,1.423Z" fill="#1a1a1a"/>
    <path id="Path_676" data-name="Path 676" d="M731.539,545.77a.731.731,0,0,0,.237.039.75.75,0,0,0,.237-1.462l-4.251-1.416a.75.75,0,1,0-.475,1.422Z" fill="#1a1a1a"/>
    <path id="Path_677" data-name="Path 677" d="M740.518,545.765l-4.252-1.418a.75.75,0,0,0-.475,1.423l4.252,1.418a.759.759,0,0,0,.238.038.75.75,0,0,0,.237-1.461Z" fill="#1a1a1a"/>
    <path id="Path_678" data-name="Path 678" d="M714.531,548.6l4.252,1.417a.73.73,0,0,0,.237.039.75.75,0,0,0,.238-1.462l-4.252-1.417a.75.75,0,0,0-.475,1.423Z" fill="#1a1a1a"/>
    <path id="Path_679" data-name="Path 679" d="M727.524,551.478a.75.75,0,0,0,.238-1.461L723.51,548.6a.75.75,0,0,0-.475,1.423l4.252,1.418A.757.757,0,0,0,727.524,551.478Z" fill="#1a1a1a"/>
    <path id="Path_680" data-name="Path 680" d="M736.266,551.434l-4.253-1.417a.75.75,0,0,0-.474,1.423l4.252,1.417a.733.733,0,0,0,.238.039.75.75,0,0,0,.237-1.462Z" fill="#1a1a1a"/>
    <path id="Path_681" data-name="Path 681" d="M720.675,555.686l-4.252-1.417a.75.75,0,1,0-.474,1.423l4.251,1.417a.733.733,0,0,0,.238.039.75.75,0,0,0,.237-1.462Z" fill="#1a1a1a"/>
    <path id="Path_682" data-name="Path 682" d="M729.179,557.1l-4.252-1.417a.75.75,0,0,0-.475,1.423l4.252,1.417a.733.733,0,0,0,.238.039.75.75,0,0,0,.237-1.462Z" fill="#1a1a1a"/>
    <path id="Path_683" data-name="Path 683" d="M746.187,530.175l-4.252-1.418a.75.75,0,0,0-.475,1.423l4.252,1.417a.732.732,0,0,0,.238.039.75.75,0,0,0,.237-1.461Z" fill="#1a1a1a"/>
  </g>
</svg>