<?xml version="1.0" encoding="utf-8"?>
<svg width="800px" height="800px" viewBox="-2.33 0 119.58 119.58" xmlns="http://www.w3.org/2000/svg">
  <g id="Group_987" data-name="Group 987" transform="translate(-436.216 -285.915)">
    <path id="Path_664" data-name="Path 664" d="M454.009,291.277a2.917,2.917,0,1,0,2.918,2.917A2.92,2.92,0,0,0,454.009,291.277Zm0,4.334a1.417,1.417,0,1,1,1.418-1.417A1.416,1.416,0,0,1,454.009,295.611Z" fill="#1a1a1a"/>
    <path id="Path_665" data-name="Path 665" d="M550.8,354.514l-8.5-5.669h0l-7.036-4.69a3.669,3.669,0,0,0,1.61-1.411.748.748,0,0,0-.3-1.021c-7.5-4.021-22.226-8.025-24.077-8.52-11.367-10.78-29.677-15.246-31.3-15.624a32.51,32.51,0,0,1-6.482-4.477c-4.173-3.747-6.118-7.7-5.783-11.758.493-5.944-1.8-9.415-4-11.355,6.147,3.505,12.141,4.956,20.259,4.956a.75.75,0,1,0,0-1.5c-8.428,0-14.473-1.61-20.865-5.557-5.068-3.129-10.422-1.843-13.135-.818a9.689,9.689,0,0,0-1.766.651h0a8.717,8.717,0,0,0-4.588,5.974,43.912,43.912,0,0,0-4.208,2.373c-4.8,3.129-4.52,5-4.32,5.494a.761.761,0,0,0,.137.22,1.591,1.591,0,0,0,1.271.44,19.912,19.912,0,0,0,3.854-.694c.355-.083.719-.169,1.086-.253h0a21.461,21.461,0,0,1,4.27-.661c2.366,0,6.336,1.007,6.336,7.754,0,6.213,3.54,11.9,4.257,12.991.052,4.982,1.857,14.519,13.013,24.071a45.74,45.74,0,0,0,10.3,6.7l2.012,8.048,3.005,12.02c-.185,1.8-2.2,21.292-2.816,25.345-.531,3.495-2.088,3.614-2.094,3.614h-7.087c-3.474,0-4.783,2.261-4.99,3.457a.75.75,0,0,0,.738.878h17.009a.747.747,0,0,0,.688-.468c.068.082.122.172.2.248a.752.752,0,0,0,.531.22.692.692,0,0,0,.12-.01.749.749,0,0,0,.551-.4l4.248-8.5v2.437a3.677,3.677,0,0,0,1.743,3.509.75.75,0,0,0,1.171-.544l.924-9.243a5.642,5.642,0,0,1,.414,2.082.75.75,0,0,0,1.472.2c.058-.208,1.348-4.951-.817-8.257l9.258-18.514c.2-.336,1.629-2.95-.073-5.08l-4.535-5.67-3.326-4.158a21.807,21.807,0,0,0,4.315-1.539c2.557,2.384,4.62,2.683,5.492,2.682a3.315,3.315,0,0,0,.353-.018h23.754c3.311,3.205,6.591,4.235,9.416,4.235a14.092,14.092,0,0,0,8.373-3,.749.749,0,0,0-.075-1.191Zm-17.84-10.09,7.962,5.309a6.637,6.637,0,0,1-4.406,2.9h-.007c-.262.063-.544.116-.836.163-.07.012-.143.022-.216.032-.241.035-.494.063-.755.085-.084.007-.166.016-.252.022-.342.023-.7.038-1.074.038h0c-6.826,0-15.088-5.486-15.171-5.542a.752.752,0,0,0-.21-.1l-.024,0a.757.757,0,0,0-.184-.027h-.028c-.191.005-19.185.672-24.737-4.67a5.514,5.514,0,0,1-.565-.64c-.05-.067-.093-.136-.139-.2a4.23,4.23,0,0,1-.286-.484c-.038-.076-.076-.153-.109-.23a3.754,3.754,0,0,1-.183-.552c-.015-.059-.037-.115-.049-.175,0-.018,0-.037,0-.055.612-.006,1.2-.02,1.779-.038l.472-.016q1.064-.04,2.05-.1c.236-.016.472-.032.7-.05.551-.042,1.081-.092,1.6-.146.449-.046.885-.1,1.317-.154q.4-.051.777-.106.8-.117,1.567-.255l.245-.047q1.176-.221,2.248-.5l.1-.026q.715-.186,1.384-.4c.181-.056.354-.114.526-.172.4-.133.782-.273,1.151-.42.269-.107.528-.214.77-.322.119-.053.252-.1.368-.154a10.094,10.094,0,0,0,3.68-2.644l.006-.008c2.686.732,15.413,4.29,22.552,7.851a2.786,2.786,0,0,1-1.6.459.75.75,0,0,0-.416,1.374Zm-42.9-5.69-.1-.013q-.12-.017-.249-.039c-.038-.006-.076-.012-.115-.02-.1-.017-.2-.037-.3-.06-.031-.006-.061-.012-.093-.02-.134-.03-.271-.066-.41-.106-.026-.007-.052-.017-.078-.025-.111-.033-.223-.07-.335-.111-.047-.017-.094-.036-.14-.054-.093-.036-.186-.075-.277-.117l-.151-.071c-.091-.045-.18-.094-.268-.145-.045-.026-.09-.051-.134-.078-.11-.069-.216-.144-.318-.223-.018-.014-.038-.026-.055-.04a3.132,3.132,0,0,1-.331-.31c-.03-.032-.057-.068-.086-.1a2.834,2.834,0,0,1-.2-.26c-.031-.046-.059-.1-.088-.143a2.806,2.806,0,0,1-.142-.279c-.023-.053-.047-.107-.067-.163a2.806,2.806,0,0,1-.1-.344c-.012-.051-.027-.1-.036-.15a3.289,3.289,0,0,1-.049-.557h0c0-.017,0-.036,0-.064l0-.084c0-.032,0-.064,0-.1v-.127c0-.044,0-.088,0-.137s0-.107-.005-.166,0-.11-.008-.17-.007-.132-.012-.2-.01-.128-.016-.2-.015-.154-.024-.235-.016-.144-.026-.221-.024-.175-.038-.266-.024-.158-.038-.241-.036-.191-.055-.289-.034-.172-.054-.261-.049-.208-.076-.313-.044-.18-.07-.273c-.03-.11-.065-.222-.1-.334-.029-.094-.056-.187-.089-.283-.038-.114-.083-.231-.126-.348-.036-.1-.07-.193-.11-.291-.049-.121-.105-.243-.16-.365-.043-.1-.083-.192-.129-.289-.061-.127-.132-.255-.2-.384-.049-.093-.1-.186-.148-.28-.077-.134-.164-.269-.248-.4-.055-.088-.105-.175-.164-.262-.1-.149-.212-.3-.322-.445-.054-.072-.1-.144-.158-.216-.173-.219-.357-.435-.555-.649a10.941,10.941,0,0,0-1.013-.958c-.118-.1-.252-.183-.376-.278-.249-.191-.5-.383-.765-.556-.16-.1-.334-.19-.5-.286-.253-.145-.5-.294-.77-.425-.188-.091-.39-.169-.586-.253-.266-.115-.53-.232-.81-.333-.213-.077-.439-.141-.66-.209-.284-.089-.566-.178-.862-.253-.236-.06-.484-.108-.728-.159-.3-.064-.6-.128-.918-.178-.258-.042-.527-.073-.793-.106-.321-.04-.643-.078-.976-.106-.279-.023-.567-.036-.855-.05-.214-.011-.418-.032-.638-.038v-1.344h9.171c8.376,0,10.589,6.926,10.589,10.589,0,.355-.013.694-.031,1.025,0,.079-.008.157-.013.235-.021.318-.047.629-.081.923,0,.025-.007.048-.01.073-.033.277-.072.54-.113.794-.011.064-.021.128-.032.19-.046.261-.1.512-.147.746-.007.033-.015.062-.022.094q-.072.315-.148.594c-.012.047-.024.1-.037.141-.055.2-.11.383-.164.551-.01.033-.021.063-.031.094-.047.144-.093.277-.137.4-.01.028-.021.06-.031.087-.048.129-.093.244-.133.342l-.009.021-.037,0-.047-.005C490.228,338.755,490.146,338.745,490.059,338.734Zm-6.083-5.8c-.078-.052-.159-.1-.242-.153s-.138-.083-.211-.123c-.088-.049-.18-.1-.275-.143-.076-.038-.153-.076-.235-.112-.1-.046-.206-.088-.313-.13-.084-.033-.167-.066-.255-.1-.115-.041-.236-.076-.358-.112-.091-.027-.179-.055-.274-.08-.132-.033-.272-.061-.411-.089-.1-.019-.187-.041-.286-.058-.161-.026-.332-.045-.5-.064-.087-.009-.169-.023-.259-.03-.266-.022-.543-.034-.833-.034-.323,0-.634-.01-.936-.029-.1-.006-.192-.018-.289-.026-.2-.017-.4-.032-.584-.057-.112-.015-.217-.037-.326-.054-.164-.027-.329-.053-.485-.086-.112-.024-.216-.054-.324-.082-.144-.036-.289-.071-.426-.114-.107-.033-.206-.072-.309-.109-.128-.046-.258-.092-.38-.144-.1-.043-.193-.091-.288-.137-.115-.056-.231-.112-.34-.174-.092-.052-.178-.108-.265-.164-.1-.066-.206-.133-.3-.205s-.161-.126-.239-.191-.183-.155-.269-.237-.145-.144-.215-.219-.16-.175-.235-.268-.128-.162-.188-.246-.138-.2-.2-.3-.11-.18-.162-.273c-.06-.109-.117-.22-.171-.335-.047-.1-.092-.2-.135-.3-.05-.12-.1-.244-.14-.369-.038-.107-.075-.214-.109-.324-.04-.133-.075-.27-.109-.408-.029-.115-.058-.229-.082-.347-.03-.146-.055-.3-.079-.448-.02-.122-.041-.243-.057-.369-.02-.16-.034-.327-.048-.493-.011-.128-.023-.253-.031-.385,0-.028,0-.059,0-.087.18.005.36.009.536.017.261.013.521.026.775.047.3.024.6.058.891.093.243.029.485.058.719.095.286.045.561.1.835.156.222.046.446.089.66.142.269.066.524.144.781.222.2.061.4.117.6.185.254.089.493.192.733.294.176.074.358.142.526.223.242.115.467.246.695.375.148.084.3.161.446.25.241.153.464.323.687.492.11.082.228.156.333.242a9.329,9.329,0,0,1,.9.843c.178.191.343.386.5.583.054.069.1.14.152.21.1.128.19.256.276.386.055.084.1.168.155.252.071.117.145.234.21.351.049.089.092.177.138.266.057.112.116.223.167.334.043.092.08.182.119.273.046.107.093.214.134.32s.065.18.1.269.074.206.106.307.053.176.079.263.056.2.081.291.041.166.06.248.043.187.062.277c.006.03.011.059.017.089l-.091-.063C484.1,333.022,484.04,332.979,483.976,332.937ZM448.46,290.184c-.013.06-.02.116-.033.175-.052.239-.1.476-.136.71-.015.089-.03.177-.043.265-.044.3-.081.6-.1.894v.009c-.024.292-.036.576-.042.856,0,.082,0,.163,0,.244q0,.318.009.624c0,.069,0,.138.007.206.013.259.031.512.055.755,0,.042.01.081.014.123q.033.306.075.591c.01.069.02.135.03.2q.042.261.089.5c.009.045.017.092.026.136q.06.3.124.558l0,.017c-.026-.023-.051-.041-.076-.065-.149-.136-.3-.289-.446-.453-.04-.045-.08-.083-.12-.129-.188-.215-.372-.448-.55-.688-.046-.063-.089-.128-.135-.192-.129-.182-.256-.366-.375-.551-.057-.088-.11-.175-.164-.262-.1-.165-.2-.327-.287-.487-.031-.055-.061-.11-.09-.164A7.365,7.365,0,0,1,448.46,290.184Zm-3.264,5,.016.028.147.245.068.114q.117.189.25.393c.016.024.034.049.05.074.075.112.151.225.233.341.035.05.073.1.109.15.067.093.135.185.206.279.043.056.089.112.133.169.07.087.14.174.212.261.049.058.1.114.149.171.073.084.148.165.223.246.054.056.107.111.162.166.078.079.157.154.238.228.055.051.11.1.167.151.085.074.172.142.259.209.043.033.083.07.125.1l-1.2.6a20.786,20.786,0,0,0-3.784.553L441.951,297C442.9,296.412,443.984,295.8,445.2,295.188Zm-3.974,4.879a25.006,25.006,0,0,1-3.413.661c.2-.481.827-1.443,2.859-2.879l.813,2.157Zm8.194-.612.677-.338.011-.009c.012-.007.021-.017.033-.024a.742.742,0,0,0,.17-.133.786.786,0,0,0,.047-.066c.008-.011.022-.016.03-.028s.006-.025.012-.036a.687.687,0,0,0,.05-.092.918.918,0,0,0,.028-.1.792.792,0,0,0,.028-.114c0-.011,0-.022,0-.033v-.01a.579.579,0,0,0-.007-.11.679.679,0,0,0-.005-.09.613.613,0,0,0-.03-.07.543.543,0,0,0-.012-.055v0a8.222,8.222,0,0,1-.274-.79c-.008-.027-.017-.06-.025-.089-.029-.1-.059-.2-.089-.318-.015-.056-.03-.122-.045-.182-.024-.1-.049-.193-.072-.3-.018-.078-.034-.166-.051-.249s-.041-.194-.06-.3-.033-.2-.049-.3-.034-.2-.049-.312-.026-.223-.038-.335-.027-.217-.037-.332-.016-.244-.024-.367-.017-.232-.021-.353,0-.258-.005-.387,0-.248,0-.377.012-.272.019-.408.01-.261.021-.395.031-.283.047-.425.027-.273.048-.412.051-.29.077-.435.049-.286.081-.431.075-.3.113-.446.072-.292.116-.441.1-.3.152-.454c.029-.084.057-.168.088-.253a15.107,15.107,0,0,1,1.425-.6c2.4-.6,5.442-.349,9.089.787.3.091,7.353,2.344,6.555,11.976-.373,4.493,1.806,9,6.3,13.023a33.158,33.158,0,0,0,6.874,4.721.763.763,0,0,0,.16.057c.191.043,18.961,4.421,30.347,14.947-.76.835-3.029,2.695-8.749,3.848l-.207.042c-.477.093-.977.182-1.5.265l-.263.038c-.438.066-.895.127-1.366.185l-.473.057q-.816.092-1.7.164c-.159.013-.326.024-.489.036q-.778.059-1.61.1c-.152.008-.3.017-.452.024-.678.029-1.385.049-2.117.06l-.2,0,.011-.033c.051-.144.1-.3.158-.466l0-.011c.052-.162.1-.337.156-.521.016-.056.031-.115.047-.173.038-.141.076-.288.113-.442.017-.07.034-.14.051-.213q.06-.258.115-.536c.011-.056.022-.109.033-.166.046-.242.089-.5.128-.759.009-.062.017-.127.025-.189.029-.207.055-.419.078-.638.01-.1.019-.192.028-.289.019-.207.034-.419.047-.635.006-.1.012-.191.017-.289.014-.313.024-.633.024-.965a13.178,13.178,0,0,0-2.585-7.781c-1.511-1.965-4.386-4.308-9.5-4.308h-9.921a.734.734,0,0,0-.307.069l-.013,0-.08.035c-.081.035-.235.1-.43.172l-.112.043c-.074.027-.168.059-.255.089l-.191.067c-.088.029-.194.06-.292.091s-.166.053-.26.081-.214.058-.322.087-.21.059-.325.088-.237.055-.356.082-.245.058-.377.085-.259.048-.389.071-.276.053-.423.076-.275.036-.413.055c-.154.02-.306.042-.466.059-.142.014-.292.022-.437.033-.167.013-.331.028-.5.036-.148.006-.3.005-.455.007-.178,0-.353.008-.535.005-.155,0-.314-.016-.472-.024-.186-.01-.371-.016-.56-.034-.16-.014-.323-.04-.485-.06-.193-.024-.385-.045-.58-.079-.165-.027-.332-.068-.5-.1-.2-.04-.392-.078-.59-.129-.169-.043-.34-.1-.51-.152-.2-.059-.4-.115-.593-.185-.172-.062-.344-.138-.516-.207s-.339-.136-.509-.214c-.667-1.03-4-6.465-4-12.153C454.759,303.635,452.8,300.46,449.416,299.455Zm9.627,22.816.022.008c.043.016.085.028.128.044q.456.166.908.3c.11.032.22.06.329.089q.361.1.719.174c.109.023.218.047.326.067.276.053.55.1.821.134.057.007.115.018.172.025.327.04.649.068.967.087.088.005.174.007.261.011.233.01.462.016.689.016.1,0,.2,0,.3,0,.222,0,.439-.012.654-.024.081,0,.163-.007.242-.013.288-.02.569-.045.841-.077.045-.006.087-.013.132-.018q.344-.043.668-.1l.248-.043c.177-.031.35-.064.517-.1l.226-.047c.2-.044.383-.088.563-.134l.1-.023c.21-.055.406-.11.593-.165l.155-.048c.134-.041.261-.081.381-.121l.146-.048c.036-.013.079-.026.114-.039v20.968C461.287,334.978,459.3,326.981,459.043,322.271Zm23.843,30.737c.269.1.537.205.8.3.159.057.316.109.473.161q.369.123.73.231c.085.025.174.057.258.081l.829,4.973-1.852.371-1.559-6.234C482.674,352.932,482.778,352.967,482.886,353.008ZM494,354.238l3.361,4.2v0l5.506,6.881v2.4L487.8,399.213l-.426-.427c1.16-17.156,2.773-23.554,2.789-23.617a.74.74,0,0,0,.024-.188v-4.252a.768.768,0,0,0-.038-.237l-1.4-4.2-1.179-7.074-.843-5.055a13.686,13.686,0,0,0,2.709.3A44.983,44.983,0,0,0,494,354.238Zm-23.264,49.757a3.522,3.522,0,0,1,3.117-1.335h7.073c.1-.005,2.849,0,3.59-4.889.648-4.264,2.75-24.68,2.84-25.548a.749.749,0,0,0-.019-.258l-2.846-11.386,1.734-.347,1.062,6.369a.757.757,0,0,0,.028.114l1.379,4.136v4.038c-.216.883-1.722,7.487-2.833,24.137a.75.75,0,0,0,.218.58l1.028,1.029c-.012.025-.025.059-.037.087-.03.066-.059.133-.089.208-.022.053-.042.107-.064.164-.029.079-.057.159-.086.243-.02.062-.039.123-.059.188-.027.09-.05.182-.073.278-.017.066-.033.131-.047.2-.021.1-.036.21-.052.318-.007.052-.019.1-.024.153l-.507,1.521ZM505.811,367.5c-.011.018-.022.037-.032.056L496.308,386.5a.752.752,0,0,0,.077.793,6.59,6.59,0,0,1,1.2,3.687,9.714,9.714,0,0,0-.727-1.064.751.751,0,0,0-1.337.388l-.977,9.775a1.791,1.791,0,0,1-.112-.854.755.755,0,0,0,.015-.15v-5.67a.75.75,0,0,0-1.421-.335l-4.971,9.943c0-.077,0-.156,0-.237l.667-2,15.571-32.556a.757.757,0,0,0,.074-.324V365.06a.753.753,0,0,0-.165-.469l-4.694-5.868h2.048l4.309,5.388C506.986,365.515,505.821,367.486,505.811,367.5Zm-7.505-10.28-2.554-3.192c.081-.012.158-.029.239-.042.309-.047.609-.1.912-.158.215-.039.436-.07.648-.112l2.8,3.5Zm10.978-4.251a.934.934,0,0,0-.129.011c-.02,0-2.093.289-5.009-2.626a.754.754,0,0,0-.925-.108,19.406,19.406,0,0,1-5.53,1.908,34.6,34.6,0,0,1-3.44.556h0a43.2,43.2,0,0,1-4.807.259,13.8,13.8,0,0,1-3.443-.515,26.951,26.951,0,0,1-4.217-1.532,43.88,43.88,0,0,1-10.015-6.413V329.885c.037.054.082.1.12.152q.173.242.364.465c.073.086.146.172.223.253.145.152.3.294.457.432.072.063.139.13.214.19a7.027,7.027,0,0,0,.755.529c.018.011.039.019.057.03a7.882,7.882,0,0,0,.794.4c.1.043.2.079.3.119.208.082.42.16.641.229.122.038.248.071.373.105.218.058.443.11.673.156.132.027.264.053.4.075.252.041.514.073.78.1.123.012.243.029.369.038.4.03.8.049,1.231.049a8.234,8.234,0,0,1,1.069.072c.046.006.093.009.138.016a6.856,6.856,0,0,1,.857.183l.144.042a5.967,5.967,0,0,1,.7.265l.1.049a5.336,5.336,0,0,1,.587.326l.024.017a4.554,4.554,0,0,1,.462.349l.049.04a4.134,4.134,0,0,1,.339.332l.05.054c.091.1.168.2.23.283l.027.038c.059.083.109.158.142.213,0,.114.02.219.032.327.007.075.011.153.022.225a4.153,4.153,0,0,0,.105.489c.01.037.015.076.026.112a4.044,4.044,0,0,0,.206.547c.021.046.048.088.071.133a4.048,4.048,0,0,0,.2.36c.036.057.077.11.116.164.069.1.138.19.213.279.046.055.1.107.144.159.076.081.153.161.234.237.053.049.108.1.163.144.084.072.171.14.26.207.057.042.114.084.172.125.1.065.192.125.291.185.057.034.112.07.17.1.112.062.226.119.34.175.048.023.094.048.142.07.164.075.33.145.5.208h0c.17.064.341.12.512.172.048.014.1.025.142.039.122.034.244.068.365.1.06.015.119.027.178.039.108.024.216.046.322.066l.184.03c.1.017.2.032.3.044l.18.022.122.014c0,.029.014.056.018.085a5.362,5.362,0,0,0,.178.806c.006.02.01.042.017.062a5.348,5.348,0,0,0,.331.788c.025.05.05.1.077.149a5.865,5.865,0,0,0,.467.725c.033.043.069.086.1.128a7.083,7.083,0,0,0,.637.71c5.716,5.5,23.216,5.167,25.592,5.1l.275.175.1.06c.118.074.248.155.4.246l.092.056c.136.083.284.171.441.264l.132.077q.282.165.6.347l.156.087c.2.113.412.228.633.348l.115.062c.247.132.509.268.779.406l.206.105c.282.143.572.286.874.431l.075.035c.286.136.581.272.882.406l.213.1q.481.213.984.419l.183.074q.459.185.932.361l.184.069.1.038Zm25.929,1.4c.226-.025.441-.057.654-.09.036-.006.075-.009.111-.015.335-.055.648-.124.951-.2l.243-.062c.281-.075.553-.156.807-.245l.06-.021c.26-.093.5-.194.734-.3.066-.029.13-.058.193-.089.225-.108.442-.219.641-.336l.063-.039c.184-.109.354-.222.517-.336l.143-.1c.167-.123.326-.247.47-.372.024-.02.044-.04.067-.061q.189-.167.352-.333l.1-.1q.176-.185.323-.363c.02-.023.036-.045.055-.069.082-.1.157-.2.226-.3.022-.03.044-.059.064-.089.068-.1.132-.2.188-.287l6.91,4.607A11.118,11.118,0,0,1,535.213,354.375Z" fill="#1a1a1a"/>
  </g>
</svg>