<?xml version="1.0" encoding="utf-8"?>
<svg width="800px" height="800px" viewBox="-4.62 0 72.366 72.366" xmlns="http://www.w3.org/2000/svg">
  <g id="Group_740" data-name="Group 740" transform="translate(-164.918 -1040.533)">
    <path id="Path_588" data-name="Path 588" d="M179.1,1048.37a1.417,1.417,0,1,0-1.417-1.418A1.418,1.418,0,0,0,179.1,1048.37Z" fill="#1a1a1a"/>
    <path id="Path_589" data-name="Path 589" d="M227.916,1111.733l-14.139-21.209c-.433-.953-.859-1.877-1.282-2.786-2.453-5.277-4.926-10.226-7.354-14.739l11.343-11.343a.75.75,0,1,0-1.061-1.061l-11.734,11.735-4.781,4.78-4.269,4.27a1.831,1.831,0,0,1-1.774-1.774l1.9-1.9a.986.986,0,0,0,.908-.909l20.806-20.806a.75.75,0,0,0-1.061-1.06L202.36,1067.99a102.235,102.235,0,0,0-8.346-12.817c-.128-6.086-4.41-14.64-12.076-14.64a11.725,11.725,0,0,0-10.384,5.7,19.344,19.344,0,0,0-5.5,1.444c-.317.134-1.285.542-1.118,1.389.1.515.284,1.37,6.763,1.463l2.1,2.1a10.742,10.742,0,0,0-2.532,7.075,16.378,16.378,0,0,0,1.419,6.009,38.455,38.455,0,0,0,2.927,5.7l2.268,4.083a17.492,17.492,0,0,0,8.36,7.572,3.83,3.83,0,0,0-2.462,3.5l-16.545,16.545a.75.75,0,1,0,1.061,1.06l15.874-15.873a3.843,3.843,0,0,0,1.774,1.774l-18.709,18.708a.75.75,0,0,0,1.061,1.061l19.388-19.389a.984.984,0,0,0,.909-.908l4.665-4.666a27.28,27.28,0,0,0,12.3,6.652l11.662,17.493a8.676,8.676,0,0,0,7.235,3.872h2.834a.75.75,0,0,0,.624-1.166Zm-23.88-37.63c1.914,3.575,3.856,7.428,5.793,11.493l-4.724-3.78-4.582-4.2Zm-7.578-.212-8.329-7.635c-.158-.156-.3-.307-.446-.459-.086-.089-.18-.182-.261-.269-.134-.144-.252-.283-.376-.423-.08-.092-.168-.187-.244-.277-.126-.148-.237-.292-.351-.437-.061-.078-.129-.157-.187-.234-.113-.15-.212-.295-.314-.441-.047-.068-.1-.138-.146-.2-.1-.151-.189-.3-.279-.444-.035-.059-.077-.12-.112-.179-.074-.128-.138-.253-.2-.378-.039-.075-.085-.151-.121-.225-.069-.138-.127-.273-.187-.408-.025-.058-.055-.117-.079-.174-.058-.139-.106-.274-.154-.41-.019-.052-.042-.106-.06-.158-.052-.154-.1-.306-.137-.457-.009-.031-.02-.063-.029-.095-.036-.139-.066-.276-.1-.414-.009-.042-.021-.085-.03-.127a10,10,0,0,1-.143-1.005l-.006-.048c-.011-.125-.019-.249-.026-.374,0-.048-.008-.1-.01-.145-.017-.326-.023-.65-.025-.975,0-.189,0-.378,0-.568v-.054a3.507,3.507,0,0,1,3.5-3.5,6.485,6.485,0,0,1,1.164.1c.145.026.268.074.4.109.205.052.42.1.606.164a6.157,6.157,0,0,1,.788.356c.021.012.048.02.069.032a6.316,6.316,0,0,1,1.913,1.6c.059.075.092.124.1.136h0v0c.016.024.033.046.051.068.033.038,3.265,3.878,8.557,13.145Zm-24.54-26.181,1.979.66-2,.665a41.227,41.227,0,0,1-4.479-.283A17.324,17.324,0,0,1,171.918,1047.71Zm4.588,1.371a.75.75,0,0,0,0-1.423l-3.373-1.124a10.293,10.293,0,0,1,8.805-4.5c3.992,0,9.63,4.069,10.48,11.485-.031-.024-.068-.048-.1-.072-.087-.066-.175-.131-.269-.2-.052-.036-.108-.071-.162-.107-.091-.06-.183-.118-.28-.176-.063-.038-.128-.074-.194-.111-.1-.054-.2-.107-.3-.159-.072-.036-.144-.071-.219-.1-.1-.049-.213-.1-.323-.141-.079-.032-.159-.064-.241-.1-.115-.042-.233-.081-.354-.119-.084-.027-.168-.054-.255-.079-.128-.035-.262-.065-.4-.095-.087-.019-.172-.041-.262-.057-.151-.028-.308-.048-.466-.067-.08-.01-.157-.024-.239-.032-.244-.022-.494-.036-.753-.036H175.162l-1.757-1.756Zm-1.356,4.29h8.889a4.97,4.97,0,0,0-.54.662c-.048.068-.085.142-.129.213a4.929,4.929,0,0,0-.306.562c-.043.1-.081.193-.118.292a4.9,4.9,0,0,0-.18.578c-.026.1-.052.2-.071.308-.01.055-.029.107-.037.163-.085.007-.167.025-.251.034-.166.017-.331.04-.495.066q-.309.049-.613.118c-.162.037-.322.078-.481.124-.2.058-.4.124-.6.2-.155.057-.309.114-.462.18-.2.083-.388.177-.579.275-.147.075-.295.148-.44.231-.192.111-.381.235-.569.361-.136.09-.273.177-.407.275-.193.142-.38.3-.567.458-.122.1-.246.2-.365.306-.2.186-.4.391-.6.6-.1.1-.194.189-.287.293-.286.319-.565.655-.833,1.015-.181.241-.349.482-.508.72-.056.085-.1.167-.158.25-.1.152-.2.3-.283.451-.062.1-.114.2-.171.3-.071.125-.145.25-.21.37-.054.1-.1.192-.15.288-.058.112-.118.225-.17.33l-.021.041a12.277,12.277,0,0,1-.679-3.713A9.086,9.086,0,0,1,175.15,1053.371Zm4.042,21.4-2.293-4.125a38.325,38.325,0,0,1-2.7-5.186c.012-.031.027-.071.043-.111l.046-.121c.033-.083.076-.185.12-.29.015-.034.025-.06.04-.095.062-.144.136-.307.218-.481.024-.051.053-.108.079-.161.063-.13.128-.264.2-.406.038-.073.081-.151.122-.227.071-.132.145-.266.224-.405.049-.086.1-.174.155-.262.082-.137.167-.275.258-.416.059-.093.121-.187.184-.281.1-.141.2-.284.3-.427.068-.093.136-.187.207-.281.114-.149.235-.3.358-.445.071-.086.141-.173.216-.258.147-.168.3-.332.463-.494.061-.062.117-.126.179-.186q.341-.332.715-.637c.042-.033.088-.062.13-.095.21-.165.427-.323.654-.471.094-.061.194-.113.29-.171.186-.11.374-.218.57-.315.116-.057.237-.106.357-.158.19-.082.382-.159.581-.227.132-.045.267-.084.4-.122.2-.056.406-.1.616-.142.144-.028.289-.053.438-.072.077-.01.159-.01.237-.018,0,.054,0,.109,0,.163,0,.071,0,.142,0,.215,0,.11.008.222.013.334,0,.067.005.133.009.2.007.132.018.266.029.4,0,.048.006.1.011.143a11.011,11.011,0,0,0,.3,1.744c.008.032.019.065.027.1.046.169.1.339.152.512.014.043.03.087.045.131.056.164.116.33.184.5.019.05.041.1.061.149q.1.25.225.505c.024.05.05.1.074.152q.129.259.278.526c.028.05.056.1.085.15.1.182.218.366.338.553.031.048.061.1.093.144.129.2.269.4.416.595.03.042.058.082.089.124.161.216.335.435.518.658l.07.086c.422.506.9,1.028,1.448,1.57l.02.019,8.3,7.6-.771.77a3.831,3.831,0,0,0-3.76,3.76l-2.721,2.721A16.024,16.024,0,0,1,179.192,1074.766Zm6.586,11.926,1.9-1.905a.984.984,0,0,0,.909-.908l2.663-2.664a3.842,3.842,0,0,0,1.774,1.774l-.283.283-5.194,5.194A1.83,1.83,0,0,1,185.778,1086.692Zm8.992-3.322a.985.985,0,0,0,.908-.908l3.783-3.784,4.581,4.2,4.152,6.229-2.029.775-.4.155a26.086,26.086,0,0,1-11.439-6.217Zm23.7,24.825L207.1,1091.131l1.952-.745.613.919,13.29,19.935A7.177,7.177,0,0,1,218.471,1108.195Zm6.388,3.2-16.94-25.41,3.314,2.651.042.031c.383.826.769,1.665,1.161,2.528a.689.689,0,0,0,.059.106l13.4,20.094Z" fill="#1a1a1a"/>
  </g>
</svg>