<?xml version="1.0" encoding="utf-8"?>
<svg width="800px" height="800px" viewBox="-3.37 0 49.339 49.339" xmlns="http://www.w3.org/2000/svg">
  <g id="Group_1004" data-name="Group 1004" transform="translate(-1096.092 -1322.503)">
    <path id="Path_731" data-name="Path 731" d="M1138.574,1329.575a4.265,4.265,0,0,0-2.1-1.536,12.742,12.742,0,0,0,1.632-3.466,1.6,1.6,0,0,0-2.664-1.59c-.977.991-1.754,1.747-2.245,2.186a6.6,6.6,0,0,1-1.943.3c-3.059.227-8.134.6-9.546,6.792a24.136,24.136,0,0,0-3.13,1.537,35.843,35.843,0,0,0-14.6,16.821l-6.964-1.619a.75.75,0,0,0-.34,1.461l6.7,1.559c-.05.123-.1.247-.147.373a.75.75,0,0,0,.7,1.02h1.662l-.174.376-8.405-1.955a.75.75,0,0,0-.34,1.461l8.1,1.885-7.2,15.594a.751.751,0,0,0,.621,1.062c.018,0,.142.011.352.011a9.626,9.626,0,0,0,8.908-6.149l2.738-6.843a23.628,23.628,0,0,0,2.625-1.8l20.7,4.814a.708.708,0,0,0,.17.02.75.75,0,0,0,.17-1.48l-9.362-2.178a.729.729,0,0,0-.219-.442,1.165,1.165,0,0,1-.448-.829.775.775,0,0,1,.027-.172l9.66,2.246a.75.75,0,0,0,.34-1.461l-5.288-1.23-1.3-2.594a.741.741,0,0,0-.195-.24,2.346,2.346,0,0,0-.268-.139c-.01,0-.016-.01-.026-.013l-4.595-1.149a18.441,18.441,0,0,0,1.392-2.6c4.06-2.006,6.688-4.56,7.83-7.627,0-.011.012-.019.016-.029l.04-.106c.033-.088.066-.178.1-.269l.007-.016c.158-.5.3-.975.425-1.44.391-1.408.664-2.661.906-3.767.5-2.3.864-3.965,1.842-4.792a4.843,4.843,0,0,1,3.2-.816.75.75,0,0,0,.63-1.157Zm-15.984,3.953a.749.749,0,0,0,.5-.569c1.058-5.464,5.227-5.773,8.272-6,1.316-.1,2.266-.168,2.83-.671.523-.467,1.3-1.225,2.316-2.253a.08.08,0,0,1,.116-.013.082.082,0,0,1,.045.112,10.883,10.883,0,0,1-1.817,3.581l-.133-.031-.149-.035c-.094-.022-.2-.044-.306-.066l-.129-.027c-.155-.03-.322-.061-.5-.089-.053-.009-.111-.016-.166-.025-.131-.02-.263-.039-.4-.056l-.231-.025c-.128-.014-.257-.027-.391-.037-.088-.007-.175-.013-.265-.018-.132-.008-.267-.014-.4-.017-.092,0-.183-.005-.277-.006-.145,0-.292,0-.441.008-.087,0-.172,0-.26.009-.188.011-.378.029-.568.051-.048.006-.1.008-.145.014-.234.031-.469.073-.7.124-.073.016-.144.038-.217.056-.162.04-.323.084-.483.136-.087.028-.172.061-.257.093-.143.054-.284.111-.424.175-.087.04-.173.083-.259.128-.135.071-.267.148-.4.231-.08.051-.16.1-.238.156-.136.1-.265.205-.393.317-.063.055-.129.1-.19.164a4.975,4.975,0,0,0-.521.584,4.154,4.154,0,0,0-.91,3.352,4.046,4.046,0,0,0,.213.72c.031.077.072.145.106.22.068.145.134.291.213.424.049.083.1.155.155.233.076.114.151.228.232.332.06.077.12.144.181.215s.109.136.165.2l-.084.022c-.251.06-.517.126-.813.206l-.073.02c-.274.075-.567.16-.872.252l-.275.085c-.3.093-.606.194-.926.305l-.169.057c-.37.131-.754.276-1.147.431-.1.039-.2.081-.3.122q-.484.2-.983.422c-.1.045-.2.088-.3.135-.416.193-.835.4-1.259.622-.075.039-.151.083-.227.124-.356.191-.712.4-1.069.609-.115.069-.23.138-.345.209-.429.267-.857.545-1.28.847.21-.368.437-.752.68-1.145.029-.047.062-.1.092-.143.214-.344.437-.693.674-1.045.093-.138.2-.275.292-.412.183-.263.365-.527.56-.788.131-.175.273-.344.41-.516.163-.207.323-.416.493-.617A19.853,19.853,0,0,1,1122.59,1333.528Zm-16.517,31.592a8.08,8.08,0,0,1-6.622,5.171l7.072-15.322v0l.76-1.648.1-.008.069-.005c.327-.018.646-.039.959-.062l.306-.023q.359-.028.7-.059l.116-.011c.3-.028.6-.057.931-.092l.022,0,.017,0,.411-.046Zm17.2-10.184c-.018.017-.069.067-.132.134l-2.2-.511,0-.012-.379-1.139h.284l3.613.9-1.021.51A.791.791,0,0,0,1123.269,1354.936Zm-4.188-1.22.149.445-.71-.165Zm-.312-1.521-2.42,1.21-.017.011a10.37,10.37,0,0,0,.878-1.525c.333-.078.861-.21,1.559-.419Zm-6.147.591.2-.03.025,0,.146-.021.262-.042.253-.04.2-.032.294-.051.146-.025.21-.037.256-.047.071-.013.047-.009.2-.037.334-.067a11.3,11.3,0,0,1-.843,1.133,15.561,15.561,0,0,1-1.278,1.322c-.311.292-.627.582-.976.866v0c-.344.28-.681.536-.995.764Zm1.715,2.942c.14-.133.262-.268.394-.4.178-.182.369-.362.533-.546l.1.024a2.42,2.42,0,0,0-.119.71,2.241,2.241,0,0,0,.072.574l-1.086-.253C1114.271,1355.8,1114.3,1355.763,1114.337,1355.728Zm8.147,2.025-5.15-1.2a.729.729,0,0,0-.137-.193,1.163,1.163,0,0,1-.449-.828.978.978,0,0,1,.094-.388l5.555,1.292a2.2,2.2,0,0,0,.087,1.315Zm2.808-2.182.978-.489.406.811Zm-2.61-7.206a.753.753,0,0,0-.364.382,15.909,15.909,0,0,1-1.746,3.161h-.3v-1.46a.75.75,0,0,0-.987-.711,26.368,26.368,0,0,1-2.747.769l-.046.011h0l-.052.013-.1.026-.016,0-.117.029h-.005l-.169.04c-.293.069-.736.168-1.326.282l-.093.018c-.15.029-.3.058-.471.088l-.193.034-.437.076-.25.04-.461.074-.251.037c-.182.027-.364.054-.557.081l-.01,0q-.4.054-.821.107c-.281.034-.576.068-.889.1-.281.03-.571.058-.866.085l-.115.011c-.224.02-.456.038-.69.057l-.293.023q-.457.034-.936.061l.026.443c-.008-.013-.024-.018-.033-.031l-.061-.408c-.316.018-.64.033-.968.046l-.178.007c-.323.013-.65.022-.987.029l-.12,0,.018-.042.033-.08h0a35.494,35.494,0,0,1,10.723-14.3l-.015.024c-.18.287-.349.566-.513.842-.049.082-.094.16-.142.241q-.183.313-.351.613l-.116.206c-.14.253-.273.5-.4.728l-.057.111c-.1.2-.2.38-.287.556-.033.064-.063.124-.093.186-.079.156-.15.3-.216.437l-.051.1c-.077.162-.143.3-.2.425l-.047.1-.094.207-.034.075-.049.112a.742.742,0,0,0,.5,1.018.773.773,0,0,0,.085.012.758.758,0,0,0,.1.015c.012,0,.023-.006.035-.007a.741.741,0,0,0,.192-.038.6.6,0,0,0,.316-.186q.486-.508,1.005-.968c.113-.1.231-.192.346-.289.235-.2.469-.4.711-.588.143-.111.291-.212.437-.318.219-.161.437-.323.659-.473.157-.107.316-.2.474-.305.215-.137.429-.276.645-.4.164-.1.327-.186.491-.279.212-.119.423-.24.634-.351.167-.088.333-.169.5-.252.207-.1.413-.208.617-.3.167-.078.331-.15.5-.224.2-.089.4-.179.6-.261.163-.068.322-.132.482-.2.192-.076.384-.153.571-.223.155-.059.306-.113.457-.167.182-.065.364-.13.54-.19l.422-.139c.172-.055.341-.109.5-.159l.382-.113c.156-.046.31-.09.456-.13l.332-.089.406-.1.271-.065c.125-.03.243-.057.353-.081l.2-.044.3-.061.111-.022.233-.043.018,0,.029-.005a2.394,2.394,0,0,1,.3.034c.074.011.149.013.222.03a2.394,2.394,0,0,1,.3.1c.068.025.139.042.2.073a2.74,2.74,0,0,1,.3.18c.054.035.113.062.164.1a2.494,2.494,0,0,1,.669.766l0,.005a2.707,2.707,0,0,1,.223.52l.006.016a2.978,2.978,0,0,1,.119.655l0,.03a3.794,3.794,0,0,1-.039.794c0,.015,0,.029-.005.045-.118.422-.243.853-.385,1.3-.054.131-.1.261-.131.363C1129.021,1344.167,1126.551,1346.5,1122.682,1348.365Zm8.756-12.345c-.042.19-.084.384-.128.583-.067-.094-.138-.185-.213-.274a4.023,4.023,0,0,0-.618-.586c-.075-.059-.161-.1-.24-.152a3.919,3.919,0,0,0-.475-.287c-.1-.049-.209-.079-.314-.12a4.176,4.176,0,0,0-.474-.16c-.116-.029-.235-.04-.354-.058s-.234-.05-.355-.058c-.021-.014-.04-.028-.064-.046l-.069-.052c-.054-.041-.115-.091-.178-.143-.025-.02-.048-.038-.074-.061-.09-.077-.186-.165-.284-.262-.018-.018-.036-.039-.054-.057-.079-.082-.159-.168-.238-.261-.032-.038-.062-.078-.093-.118-.065-.082-.128-.168-.187-.258-.032-.046-.062-.094-.091-.142-.057-.1-.108-.2-.156-.3-.022-.047-.046-.092-.065-.141a2.46,2.46,0,0,1-.144-.475,2.683,2.683,0,0,1,.635-2.161,3.413,3.413,0,0,1,.5-.526c.058-.051.122-.093.184-.14a3.825,3.825,0,0,1,.4-.27c.076-.044.153-.084.231-.123a4.518,4.518,0,0,1,.421-.184c.08-.031.16-.062.243-.089.159-.051.322-.093.487-.131.068-.015.136-.035.2-.048.232-.045.467-.079.7-.1.052-.005.1-.005.155-.009.188-.014.375-.024.561-.026.09,0,.178,0,.266,0,.147,0,.293.006.437.013q.137.008.27.018c.139.01.275.023.409.037l.144.016-.875.439a.749.749,0,0,0,0,1.341l1.107.554A13.6,13.6,0,0,0,1131.438,1336.02Zm2.748-5.922-.234-.116,1.326-.663a2.805,2.805,0,0,1,.617.1A5.015,5.015,0,0,0,1134.186,1330.1Z" fill="#1a1a1a"/>
    <path id="Path_732" data-name="Path 732" d="M1130.149,1329.023a.958.958,0,1,0,.959.959A.96.96,0,0,0,1130.149,1329.023Z" fill="#1a1a1a"/>
  </g>
</svg>