<?xml version="1.0" encoding="utf-8"?>
<svg width="800px" height="800px" viewBox="0 -50.47 250.949 250.949" xmlns="http://www.w3.org/2000/svg">
  <g id="Group_741" data-name="Group 741" transform="translate(-798.329 -204.95)">
    <path id="Path_590" data-name="Path 590" d="M1048.945,235.958c-19.714-13.2-60.409-17.691-83.69-19.208,8.673-.826,12.42-2.059,12.648-2.136a.75.75,0,0,0-.13-1.452c-3.153-.471-6.3-.866-9.427-1.224,7.79-2.01,11.032-4.406,11.187-4.524a.75.75,0,0,0-.377-1.343c-50.379-5.229-82.956,9.5-83.975,9.969-8.71,2.62-18.443,10.2-25.416,19.813-8.364,11.524-12.088,24.9-10.485,37.671.288,2.3.556,4.323.792,6.112.914,6.917,1.417,10.728.544,11.554-.532.5-2.18.193-4.461-.238a64.06,64.06,0,0,0-16.008-1.262c-14.45.658-19.5,12.038-21.216,21.262a14.314,14.314,0,0,1-.7-2.4,18.068,18.068,0,0,1,0-6.612.75.75,0,0,0-1.463-.333c-.021.092-1.409,6.521,1.749,11.95-.016.129-.034.259-.049.386a22.631,22.631,0,0,1-7.358-9.611.75.75,0,0,0-1.4.553,24.3,24.3,0,0,0,8.569,10.831c-.005.055-.011.113-.016.168a.68.68,0,0,0,.055.376,28.439,28.439,0,0,1-14.375-10.653.75.75,0,1,0-1.244.837,29.834,29.834,0,0,0,15.209,11.3c-4.775-.655-10.8-2.362-15.5-6.609a.75.75,0,0,0-1.005,1.114c4.993,4.51,11.256,6.317,16.226,7a45.617,45.617,0,0,1-18.3-2.593.75.75,0,1,0-.521,1.407,46.851,46.851,0,0,0,18.281,2.744,79.268,79.268,0,0,1-17.982,1.472.75.75,0,0,0-.078,1.5c.155.008,1.15.057,2.73.057a79.209,79.209,0,0,0,14.536-1.324c-4.752,1.985-10.36,3.915-14.412,4.021a.75.75,0,1,0,.04,1.5c4.223-.111,9.889-2.024,14.7-4.018a30.337,30.337,0,0,0-6.928,11.529.75.75,0,1,0,1.419.487,29.838,29.838,0,0,1,4.173-8.065c-2.96,7.813,1.617,12.547,1.674,12.6l.009.006a.761.761,0,0,0,.2.132c.014.007.025.019.04.025a.74.74,0,0,0,.283.056h.043l.01,0c.02,0,.039,0,.059-.005s.05-.024.078-.031a.722.722,0,0,0,.2-.08.747.747,0,0,0,.091-.069.7.7,0,0,0,.139-.158c.013-.019.035-.031.046-.052,6.272-11.832,10.9-13.808,10.943-13.824a.772.772,0,0,0,.214-.127l.006,0a11.633,11.633,0,0,1,11.956-1.307.75.75,0,0,0,1.029-.9,4.671,4.671,0,0,0-2.3-2.472,24.44,24.44,0,0,1,13.961,3.341.75.75,0,0,0,.913-1.175l-2.972-2.972h13.78a.75.75,0,0,0,.279-1.446l-4.418-1.768c4.011-.672,11.281-2.454,15.993-6.913a.75.75,0,0,0-.7-1.272l-1.31.327c3.3-2.334,7.944-6.129,10.636-10.548a30.093,30.093,0,0,1,4.533-5.211l.318-.318c9.237-9.237,15.742-9.7,15.8-9.7h0a26.084,26.084,0,0,0,5.325-.546c10.377,10.362,16.926,16.911,18.4,18.4a9.625,9.625,0,0,0,.016,5.267l-32.25,32.265-8.477,7.05a.464.464,0,0,0-.056.052c-.026.026-2.587,2.609-5.134,2.609h-9.913a5.633,5.633,0,0,0-3.671,1.442,4.8,4.8,0,0,0-1.339,3.56.75.75,0,0,0,1.085.671l1.956-.978a1.814,1.814,0,0,0,.246.372,2.147,2.147,0,0,0,1.715.685h8.5c.492.012,3.307.015,5.669.015a8.238,8.238,0,0,0,6.851-3.136,3.947,3.947,0,0,0,2.32,1.59v.8a.751.751,0,0,0,.435.68.741.741,0,0,0,.315.07.753.753,0,0,0,.485-.178c1.866-1.578,1.712-4.467,1.682-4.855v-5.319l35.214-33.8c2.472-2.472,3.752-4.69,3.913-6.781.15-1.951-.666-3.789-2.5-5.625l-18.207-17.782a18.446,18.446,0,0,0,6.481-6.873.749.749,0,0,0-.531-1.055l-5.564-1.113,1.7-1.436,28.482,9.494v3.711a.754.754,0,0,0,.079.336l1.3,2.61-9.862,53.538-2.748,6.869c-.5.477-2.782,2.512-5.032,2.512h-7.079a5.641,5.641,0,0,0-3.671,1.441,4.806,4.806,0,0,0-1.339,3.561.749.749,0,0,0,1.086.67l1.955-.977a1.849,1.849,0,0,0,.246.371,2.144,2.144,0,0,0,1.715.686h8.505a.729.729,0,0,0,.358-.1c.012-.006.023-.009.034-.015a.76.76,0,0,0,.252-.267c.005-.008.014-.011.019-.019a3.81,3.81,0,0,1,.65-.829c.028-.024.051-.049.081-.073l.025-.021a2.323,2.323,0,0,1,2.154-.291c.013.052.036.1.053.151s.033.1.055.154.059.116.09.173.049.1.079.141.077.1.117.155.064.087.1.127.092.089.14.132.077.076.12.11.107.073.161.108.089.063.137.09.124.057.187.084c.048.021.093.046.143.064.072.025.147.04.222.058.045.011.089.027.136.035a2.244,2.244,0,0,0,.36.03l.019,0h0l.072,0c.022,0,.047,0,.078-.008l.06-.007c.042-.005.085-.012.138-.021l.058-.011a4.121,4.121,0,0,0,.583-.155c.076-.025.152-.051.232-.083l.11-.047c.1-.043.206-.092.313-.147l.068-.035a5.046,5.046,0,0,0,1.407-1.119c.017-.02.034-.04.052-.059a5.989,5.989,0,0,0,.407-.532c.021-.032.045-.061.066-.093a6.316,6.316,0,0,0,.351-.613c.065-.128.122-.265.181-.4.04-.1.082-.188.121-.289.063-.163.12-.334.174-.507.015-.047.033-.088.047-.137a3.888,3.888,0,0,0,2.328-1.018,3.444,3.444,0,0,0,.966-2.55v-2.085h.2l1.21,2.42a.75.75,0,0,0,1.2.195,3.638,3.638,0,0,0,0-5.312l-2.574-2.574c.457-3.541,4.148-31.739,7.018-42.049.927-3.329,1.849-6.142,2.663-8.624,1.942-5.926,3.114-9.5,1.482-11.848-2.1-3.026-8.281-4.412-8.923-4.549l-23.281-7.76,9.4-7.95a.75.75,0,0,0-.337-1.308l-5.113-1.023c3.906-2.342,12.924-8.51,14.155-16.16,2.234-1,14.881-6.049,27.269,1.55a.75.75,0,0,0,1.142-.64v-4.879a19.7,19.7,0,0,1,8.76,2.672.75.75,0,0,0,1.161-.627v-3.5h10.254c20.4,5.614,33.181,5.669,33.457,5.669h0a.75.75,0,0,0,.414-1.373,58.7,58.7,0,0,0-7.82-4.328c17.275,4.235,27.865,4.284,28.137,4.284h0a.75.75,0,0,0,.414-1.373Zm-91.272-29.509c6,0,12.355.269,19.039.889a49.321,49.321,0,0,1-12.947,4.094l-.156-.013c-1.279-.124-2.538-.234-3.785-.335-.373-.031-.742-.059-1.111-.088q-1.516-.117-3-.213c-.31-.02-.622-.043-.93-.062q-1.878-.114-3.7-.2l-.7-.028q-1.5-.064-2.956-.109l-1.053-.03q-1.45-.038-2.866-.056c-.215,0-.434-.008-.648-.01q-1.7-.018-3.348-.009c-.284,0-.563,0-.844.008q-1.27.011-2.508.036c-.31.007-.621.013-.927.021-1.011.025-2.01.055-2.989.094l-.137,0c-1.025.041-2.028.091-3.018.146l-.835.05q-1.124.066-2.217.145c-.254.018-.51.035-.762.054-.936.071-1.858.147-2.759.228l-.387.037q-1.168.109-2.294.229l-.771.083q-1.022.113-2.01.234l-.554.067q-1.227.154-2.4.32l-.539.079q-.924.132-1.813.272l-.661.1c-.643.1-1.275.209-1.891.316l-.232.038A180.688,180.688,0,0,1,957.673,206.449ZM834.665,315l-.009,0a1.416,1.416,0,0,0-.381-.138c-.017,0-.034,0-.05,0a1.427,1.427,0,0,0-.225-.023c-.044,0-.089.011-.133.015s-.077.007-.115.014a1.443,1.443,0,0,0-.41.128l-4.058,2.029-2.459.819c-.527-1.73-1.632-6.423.572-9.846,1.506-2.338,4.314-3.685,8.351-4.009C836.541,306.442,837.551,311.365,834.665,315Zm-15.247,8.626,5.507-2.753h0l4.936-2.468.075-.025c-10.084,8.1-12.477,15.854-13.026,19.52C815.633,335.512,814.337,330.569,819.418,323.627Zm-.582,12.537c1.13-4.144,4.437-11.1,14.02-18.129l-.84,1.345-3.691,5.906C827.351,325.776,823.7,328.053,818.836,336.164Zm71.13-43.421-.317.318a31.05,31.05,0,0,0-4.754,5.492c-4.2,6.894-13.808,12.44-13.905,12.495a.75.75,0,0,0,.554,1.379l2.171-.543c-6.393,4.016-15.065,4.729-15.165,4.736a.75.75,0,0,0-.222,1.444l3.471,1.389H850.1a.75.75,0,0,0-.531,1.28l1.126,1.126a25.009,25.009,0,0,0-14.985-.957.75.75,0,0,0,.216,1.468,8.461,8.461,0,0,1,2.289.284,12.785,12.785,0,0,0-7.1.991l4.112-6.579a1.45,1.45,0,0,0,.2-.636c3.663-4.044,2.754-9.545,1.869-12.5,3.334-.1,12-.716,18.822-4.321a.75.75,0,0,0-.7-1.326c-8.1,4.281-19.368,4.171-19.481,4.165h-.053c-4.849.268-8.245,1.86-10.095,4.733-2.247,3.488-1.588,7.9-.987,10.249a11.931,11.931,0,0,1-4.73-4.166c1.262-9,5.64-21.413,20.14-22.074a62.6,62.6,0,0,1,15.661,1.239c2.919.551,4.681.883,5.77-.147,1.43-1.353,1.047-4.248-.088-12.841-.236-1.785-.5-3.81-.791-6.1-1.555-12.39,2.072-25.39,10.211-36.6,6.806-9.378,16.268-16.764,24.692-19.277a125.752,125.752,0,0,1,17.012-3.7q1.847-.279,3.836-.533t4.118-.471a217.232,217.232,0,0,1,43.091.185h0c3.25.317,6.558.7,9.876,1.149-4.333.818-12.559,1.9-25.707,1.9-.01,0-.019,0-.029.006a.727.727,0,0,0-.718.689h0v.005a.743.743,0,0,0,.584.772c.022,0,.04.018.062.021s2.562.379,3.352,2.239a3.192,3.192,0,0,1,.252,1.27,3.433,3.433,0,0,1-1.11,2.318,7.236,7.236,0,0,1-.633.588,10.424,10.424,0,0,1-1.313.9c-.108.064-.206.131-.318.194q-.459.254-.966.488c-.3.137-.64.273-1,.41-.2.073-.386.147-.6.221a23.17,23.17,0,0,1-7.482,1.217c-.018,0-.033.008-.05.009a.765.765,0,0,0-.164.031.488.488,0,0,0-.066.016c-.01,0-.018.011-.028.015a.75.75,0,0,0-.132.083.777.777,0,0,0-.072.052c-.006.006-.013.008-.019.014q-.505.506-1.033.978a28.3,28.3,0,0,1-4.3,3.153q-1.257.756-2.553,1.385l-.063.029c-10,4.827-21.094,4.167-21.237,4.158a.73.73,0,0,0-.562.2.751.751,0,0,0-.238.548v12.756a17.7,17.7,0,0,1-17.675,17.675H875.614a.75.75,0,0,0-.7,1.007c.006.018.018.049.035.091l.017.043c.014.034.028.069.048.115.01.026.025.057.037.086.02.044.039.088.063.14.016.035.035.074.053.112.026.056.053.111.084.174.022.045.047.1.072.143.033.064.065.127.1.2s.063.115.095.175.079.142.122.218.077.131.117.2.094.158.145.241l.138.219c.055.086.112.174.172.264l.16.237.2.283c.06.083.12.167.184.253s.15.2.228.3.137.177.209.267.171.209.259.315.152.184.233.278c.095.11.2.222.3.335.083.092.164.184.252.278.11.118.227.237.344.357.089.091.175.182.268.274.132.13.273.262.412.394.088.083.171.165.263.249.207.189.426.38.65.571l.188.157c.228.19.462.38.708.57.1.079.212.157.316.235.186.138.37.277.565.415.128.091.265.18.4.271.185.125.367.25.56.375.145.093.3.185.448.278.192.119.384.238.585.356.162.094.33.187.5.281.2.113.406.226.616.338.177.093.359.185.541.277.215.108.431.216.655.322.191.091.386.18.583.269q.344.156.7.307c.2.087.413.172.623.257q.367.147.747.29c.219.082.439.163.664.242.261.093.529.182.8.271.231.076.463.152.7.225.281.086.569.169.859.251.243.069.485.138.735.2.3.08.614.155.926.23.253.061.5.123.763.181.328.072.668.139,1.007.207.26.051.515.105.781.153.364.066.741.125,1.117.184.258.041.51.085.773.123.423.06.861.111,1.3.163.233.027.458.06.7.085.681.072,1.378.134,2.095.184A40.5,40.5,0,0,0,889.966,292.743Zm26.841-49.855q-.744.028-1.507.029a.75.75,0,0,0-.75.75c0,.211-.012.42-.032.625-.007.069-.02.135-.029.2-.018.136-.035.272-.062.406-.016.079-.037.157-.056.235-.028.118-.056.237-.091.352-.024.082-.054.162-.082.242-.037.109-.075.217-.118.323-.033.08-.07.159-.105.238-.047.1-.094.2-.146.3-.041.078-.084.154-.128.229-.055.1-.111.19-.171.282-.047.073-.1.146-.147.217-.064.09-.129.177-.2.263-.054.068-.109.136-.165.2-.072.083-.146.164-.222.244-.06.062-.119.125-.181.185-.079.077-.162.15-.245.223-.065.056-.129.113-.2.167-.088.071-.179.137-.271.2-.068.049-.134.1-.2.145-.1.066-.2.126-.307.186-.066.039-.131.081-.2.117-.12.065-.244.122-.368.178-.057.026-.111.055-.168.079-.183.077-.369.146-.56.205-.035.011-.072.018-.107.029-.158.046-.317.089-.479.123-.071.015-.144.023-.216.036-.112.019-.223.038-.336.051V238.782a48.17,48.17,0,0,0,5.552-.187h.005c.275-.024.555-.051.842-.081l.033,0c.28-.03.566-.062.856-.1l.049-.006q.428-.053.868-.114l.072-.01q.441-.063.9-.136l.064-.01c.307-.049.619-.1.934-.159l.054-.01c.321-.058.647-.121.976-.187l.036-.008a45.04,45.04,0,0,0,5.345-1.423l.054-.018c.338-.114.678-.233,1.017-.357l.233-.088c.28-.1.559-.211.839-.323.109-.043.218-.09.328-.135.249-.1.5-.205.748-.314.125-.055.25-.112.375-.169.233-.1.464-.209.7-.319.137-.065.274-.133.411-.2.218-.107.436-.215.653-.327.145-.075.289-.153.433-.23q.315-.166.627-.342c.148-.083.3-.169.443-.255q.3-.175.6-.36c.15-.092.3-.185.449-.28q.294-.187.585-.381c.15-.1.3-.2.448-.3.191-.132.38-.266.569-.4.149-.109.3-.218.446-.33.184-.139.367-.283.549-.427.148-.117.3-.235.442-.355.052-.043.106-.083.157-.127a17.348,17.348,0,0,1-2.764,5.106c-3.592,4.58-9.424,7.145-16.93,7.471Zm21.824,61.028c-.132,1.719-1.27,3.627-3.467,5.824l-35.433,34.016a.753.753,0,0,0-.231.541v5.67c0,.022,0,.046,0,.068a6.283,6.283,0,0,1-.245,2.15.758.758,0,0,0-.354-.13c-.22-.023-2.157-.272-2.157-2.088a.75.75,0,0,0-1.452-.264c-.058.154-1.49,3.766-6.384,3.766s-5.549-.012-5.6-.012h0c-.022,0-.045,0-.068,0h-8.5a.855.855,0,0,1-.574-.159.6.6,0,0,1-.1-.4.75.75,0,0,0-1.077-.783l-1.566.783a2.84,2.84,0,0,1,.7-1.181,4.11,4.11,0,0,1,2.615-1.016h9.922c3.04,0,5.844-2.7,6.176-3.031l8.477-7.049c.018-.015.034-.03.051-.046l32.591-32.606a.752.752,0,0,0,.177-.778,8.159,8.159,0,0,1-.011-5.119h0c.2-.473.2-.473-2.119-2.8-1.222-1.226-2.929-2.933-4.86-4.864-3.536-3.536-7.826-7.821-11.278-11.269.04-.011.077-.029.116-.04q.983-.293,1.92-.668c.144-.058.283-.123.425-.184q.75-.32,1.465-.692c.1-.05.2-.088.293-.138l18.488,18.056C938.092,300.995,938.747,302.407,938.631,303.916Zm-12.567,49.393a.6.6,0,0,1-.1-.395.75.75,0,0,0-1.077-.784l-1.565.783a2.84,2.84,0,0,1,.7-1.18,4.11,4.11,0,0,1,2.616-1.016h7.087a6.571,6.571,0,0,0,2.51-.554c-.088.063-.181.117-.266.188a4.537,4.537,0,0,0-1.514,3.118h-7.817A.85.85,0,0,1,926.064,353.309ZM950.5,274.143a.755.755,0,0,0,.085.023c1.72.355,6.516,1.755,8.04,3.945,1.205,1.733.059,5.231-1.677,10.525-.819,2.5-1.746,5.327-2.682,8.688-3.078,11.058-7.068,42.312-7.108,42.627a.751.751,0,0,0,.214.625L950.2,343.4a2.312,2.312,0,0,1,.632,2.241l-.842-1.683a.75.75,0,0,0-.671-.415H947.9a.75.75,0,0,0-.75.75v2.835a1.853,1.853,0,0,1-1.466,2,14.917,14.917,0,0,0,.131-2,.75.75,0,0,0-1.5,0,11.6,11.6,0,0,1-.294,2.743c-.025.105-.054.2-.082.3-.036.126-.073.251-.113.368-.033.1-.067.192-.1.282s-.082.2-.125.3-.079.176-.122.258-.084.153-.128.227a4.458,4.458,0,0,1-.609.826c-.023.025-.046.051-.069.074-.071.071-.142.135-.212.2l-.072.061c-.073.059-.145.114-.216.163l-.053.037a3.272,3.272,0,0,1-.875.418l-.012,0c-.053.015-.1.027-.144.037l-.036.008-.1.02-.042.006-.053.007-.037,0a.668.668,0,0,1-.673-.667.736.736,0,0,0-.09-.339.361.361,0,0,0-.021-.044.743.743,0,0,0-.232-.238c-.009-.006-.013-.017-.023-.023-.028-.017-.057-.025-.085-.042l-.012-.007-.011,0a3.4,3.4,0,0,0-2.654-.4,3.213,3.213,0,0,0-.432.155,2.579,2.579,0,0,1,.349-.359c1.38-1.171,3.731-.8,3.753-.8a.75.75,0,0,0,.629-.183,6.545,6.545,0,0,0,1.664-4.808.75.75,0,0,0-1.5,0,5.685,5.685,0,0,1-.97,3.461,7.691,7.691,0,0,0-2.954.318,13.047,13.047,0,0,0,2.375-1.837.745.745,0,0,0,.16-.247l2.835-7.086a.712.712,0,0,0,.041-.143l9.921-53.858a.744.744,0,0,0-.066-.471l-1.338-2.677V279.1a.751.751,0,0,0-.513-.711l-28.128-9.376,3.466-2.933Zm32.835-42.564a.75.75,0,0,0-.75.75v2.942A22.539,22.539,0,0,0,973.418,233a.751.751,0,0,0-.758.75v4.363c-13.918-7.719-27.793-.852-27.936-.78a.749.749,0,0,0-.405.578c-1.1,9.014-15.051,16.36-15.192,16.433a.75.75,0,0,0,.2,1.4l5.563,1.113-11.268,9.535-2.767,2.341h0l-3.2,2.711a.75.75,0,0,0,.337,1.308l6.064,1.213a18.284,18.284,0,0,1-6.22,5.877,20.079,20.079,0,0,1-5.593,2.172,24.525,24.525,0,0,1-5.442.591c-.567,0-1.119-.01-1.666-.023-.239-.006-.483-.015-.727-.024q-.418-.015-.828-.036c-.331-.016-.664-.034-1-.056l-.389-.029a53.1,53.1,0,0,1-6.068-.782c-.093-.017-.181-.037-.273-.055q-.586-.115-1.176-.248c-.279-.063-.551-.129-.822-.2-.177-.043-.355-.088-.532-.134-10.842-2.841-15.158-8.732-16.493-11.09h12.968a19.365,19.365,0,0,0,1.936-.1c.214-.021.421-.066.634-.1.418-.056.838-.108,1.247-.191.247-.05.485-.123.728-.183.365-.089.733-.171,1.09-.281.253-.078.5-.178.743-.266.336-.119.675-.23,1-.367.251-.105.49-.23.735-.345.311-.146.624-.285.926-.447.243-.131.475-.28.712-.422.288-.17.579-.335.856-.52.232-.154.45-.325.674-.489.267-.2.538-.386.794-.6.217-.176.419-.367.627-.552.246-.218.495-.432.729-.662.2-.2.386-.407.578-.613.222-.238.447-.474.658-.723.182-.217.349-.444.522-.669.2-.257.4-.512.583-.78.163-.234.31-.479.462-.721.172-.274.346-.546.5-.83.141-.251.267-.511.4-.77.145-.289.292-.577.422-.875.117-.267.219-.541.325-.814.117-.3.234-.6.335-.915.092-.28.169-.566.248-.853.087-.315.174-.629.245-.951.065-.293.115-.59.166-.888.056-.325.111-.65.15-.981.037-.3.058-.611.08-.919.015-.216.048-.427.056-.645h.008c.057-.005.113-.017.17-.023.183-.022.364-.045.543-.078.088-.017.174-.041.262-.061.144-.032.288-.064.429-.1.095-.027.187-.061.281-.091.129-.043.258-.084.385-.133.095-.037.188-.079.281-.12.12-.052.24-.1.357-.161.093-.046.183-.1.274-.145.112-.062.225-.123.334-.19.089-.054.175-.111.262-.169.1-.07.209-.14.311-.215.084-.062.166-.127.248-.193.1-.078.2-.158.289-.241.078-.069.154-.139.23-.211.091-.087.179-.176.266-.267.072-.075.142-.151.211-.229.084-.1.164-.193.243-.292.065-.08.128-.161.19-.244.076-.1.147-.209.218-.316.057-.085.114-.17.167-.258.068-.11.13-.224.192-.339.048-.089.1-.177.143-.268.059-.12.111-.243.164-.366.039-.09.08-.18.116-.272.051-.132.094-.267.138-.4.028-.088.061-.175.086-.264.044-.152.078-.308.112-.463.017-.077.038-.151.053-.228.044-.235.079-.472.1-.714.61-.01,1.2-.036,1.78-.073.193-.012.376-.031.565-.046.38-.03.759-.062,1.125-.1.213-.024.419-.053.628-.08.329-.043.656-.088.973-.14.211-.034.416-.072.622-.109.3-.056.6-.115.9-.179.2-.043.4-.087.592-.134.288-.069.569-.143.847-.219.182-.049.364-.1.541-.151.287-.085.564-.176.839-.269.154-.052.313-.1.464-.155.318-.115.625-.236.928-.359.1-.039.2-.075.29-.114q.588-.249,1.136-.519c.1-.048.188-.1.283-.148.265-.135.527-.271.778-.413.13-.073.252-.148.378-.223.208-.123.415-.247.614-.375.129-.083.254-.168.38-.252.184-.125.366-.25.542-.378.123-.088.242-.178.361-.267.17-.13.335-.26.5-.392.112-.091.224-.181.332-.273.161-.138.317-.277.47-.417.1-.088.2-.175.289-.264.164-.155.32-.312.474-.469.074-.075.151-.149.222-.224q.332-.348.634-.7c.018-.02.034-.041.051-.062q.276-.324.528-.648c.064-.081.122-.162.183-.244.117-.155.233-.311.343-.466.066-.094.129-.187.192-.281.1-.142.191-.283.281-.424.063-.1.123-.193.182-.29.085-.137.166-.273.245-.408.056-.1.111-.191.164-.286.076-.136.148-.27.219-.4.048-.09.1-.18.141-.269.071-.141.138-.278.2-.416.037-.077.076-.156.112-.233.076-.165.147-.326.216-.486l.059-.135q.127-.3.237-.591c.021-.054.039-.105.058-.159.051-.136.1-.271.145-.4.024-.067.044-.129.065-.194.037-.111.073-.22.106-.325.021-.065.039-.127.058-.19.029-.1.057-.193.083-.284.017-.059.032-.116.048-.172.023-.089.046-.174.066-.256.013-.049.025-.1.036-.142.021-.085.039-.163.055-.239.008-.034.016-.069.023-.1l.01-.043c.337-.008.672-.04,1.009-.062.252-.016.505-.023.757-.046.435-.041.865-.1,1.295-.168.2-.029.405-.047.605-.081.625-.107,1.242-.236,1.847-.389.083-.021.161-.05.244-.072.5-.132.992-.271,1.471-.433.36,0,.736-.007,1.1-.011.462,0,.917-.01,1.389-.013h.374a227.123,227.123,0,0,1,24.6,1.1l.278.028c.679.075,1.349.159,2.02.243.264.033.533.062.8.1.562.074,1.112.158,1.666.238.362.053.731.1,1.089.157.485.075.956.16,1.432.241.415.071.837.137,1.245.212.438.08.86.17,1.289.256s.87.168,1.293.259c.4.088.793.185,1.19.278.428.1.864.2,1.282.3.381.1.743.2,1.114.306s.768.206,1.138.317Zm11.3.027c-1.7-.469-3.3-.931-4.892-1.412-.688-.209-1.4-.4-2.127-.593-.169-.044-.338-.088-.509-.131-.722-.182-1.457-.358-2.209-.522l-.219-.046c-.707-.152-1.428-.295-2.157-.433l-.517-.1q-1.181-.214-2.393-.408l-.341-.051q-1.121-.174-2.264-.327c-.149-.02-.3-.041-.445-.06q-1.267-.167-2.554-.31c-.13-.015-.261-.028-.391-.042q-1.2-.13-2.4-.244l-.332-.031q-1.323-.122-2.657-.222l-.414-.03q-1.283-.095-2.568-.173c-.047,0-.094-.007-.141-.009q-1.363-.082-2.72-.145l-.394-.018c-.294-.013-.59-.028-.883-.04l.132,0q1-.028,2.032-.053l.385-.008q.866-.02,1.745-.034l.57-.009q.983-.015,1.98-.024l.179,0q1.085-.009,2.187-.01h.546q.882,0,1.772.005l.544,0q1.116.009,2.243.026l.3.006c.651.011,1.306.025,1.961.041l.625.016q.968.027,1.937.06l.359.012q1.126.041,2.254.093l.568.028q.894.044,1.784.1l.591.034c.755.046,1.51.094,2.26.148l.2.016q1.023.075,2.037.161l.629.055q.9.079,1.791.169c.153.015.306.029.459.045q1.087.111,2.161.239l.505.062q.848.1,1.684.217l.6.082c.705.1,1.405.2,2.1.311.765.123,1.489.246,2.182.371l.017,0c.338.062.668.124.993.186.229.045.452.09.676.136l.283.056a90.723,90.723,0,0,1,20.623,8.335A154.775,154.775,0,0,1,994.634,231.606Zm15.843-2.83c-1.732-.524-3.675-1.01-5.773-1.444-1.3-.27-2.694-.522-4.247-.77q-1.716-.274-3.492-.5l-.127-.016q-1.713-.219-3.468-.4l-.232-.023q-1.707-.173-3.441-.313l-.316-.024q-1.7-.133-3.413-.238l-.376-.022q-1.689-.1-3.385-.172l-.41-.017q-1.68-.069-3.355-.115l-.431-.011q-1.662-.044-3.308-.065l-.446,0q-1.64-.02-3.255-.021h-.486c-.83,0-1.656,0-2.473.011l-.377.005q-1.128.011-2.234.029l-.425.007q-1.193.021-2.354.05l-.51.013c-.786.021-1.564.043-2.326.067l-.044,0c-.756.024-1.495.052-2.225.08l-.479.018q-1.063.044-2.085.089l-.385.018q-.931.042-1.824.088l-.3.016c-.637.033-1.253.066-1.855.1-.072.005-.149.008-.22.012.056-.043.1-.088.158-.132s.112-.093.167-.14a8.8,8.8,0,0,0,.655-.609,4.937,4.937,0,0,0,1.522-3.352,4.672,4.672,0,0,0-.371-1.857,4.377,4.377,0,0,0-.524-.9c-.07-.094-.152-.167-.226-.253a5.129,5.129,0,0,0-.366-.407c6.286.189,20.259.794,36.011,2.67,26.3,3.134,46.349,8.464,58.3,15.473C1040.414,235.368,1027.826,234.024,1010.477,228.776Z" fill="#1a1a1a"/>
    <path id="Path_591" data-name="Path 591" d="M820.339,326.622a.744.744,0,0,0,.53-.22l1.418-1.417a.75.75,0,1,0-1.061-1.06l-1.417,1.417a.75.75,0,0,0,.53,1.28Z" fill="#1a1a1a"/>
    <path id="Path_592" data-name="Path 592" d="M830.26,307.2a3.085,3.085,0,1,0,3.085,3.084A3.088,3.088,0,0,0,830.26,307.2Z" fill="#1a1a1a"/>
  </g>
</svg>