<?xml version="1.0" encoding="utf-8"?>
<svg width="800px" height="800px" viewBox="0 -13.46 80.87 80.87" xmlns="http://www.w3.org/2000/svg">
  <g id="Group_738" data-name="Group 738" transform="translate(-325.715 -1227.669)">
    <path id="Path_577" data-name="Path 577" d="M339.93,1231.254a1.209,1.209,0,1,0,1.208,1.209A1.21,1.21,0,0,0,339.93,1231.254Z" fill="#1a1a1a"/>
    <path id="Path_578" data-name="Path 578" d="M405.835,1268.772H393.649l-2.018-2.752h14.2a.75.75,0,0,0,0-1.5h-15.3l-2.838-3.869c1.693-.176,2.61-.3,2.655-.308a.75.75,0,0,0,.5-1.188c-15.271-20.688-29.727-21.538-30.335-21.564h-.032a13.826,13.826,0,0,1-8.274-2.683,14.936,14.936,0,0,1-3.813-3.993c-.067-.132-1.712-3.246-7.756-3.246a6.128,6.128,0,0,0-6.39,5.873c-4.7,1.612-5.628,4.455-5.665,4.58a.749.749,0,0,0,1.11.857c2.031-1.251,5.506-1.316,6.43-1.31,4.1,3.119,4.567,6.21,5.093,9.779l.1.7a19.2,19.2,0,0,0,9.968,14.955h-.728a4.249,4.249,0,0,0-3.181,1.417H326.465a.75.75,0,0,0,0,1.5h28.347a2.087,2.087,0,0,1,2.084,2.085,2.056,2.056,0,0,1-.119.667H326.465a.75.75,0,0,0,0,1.5h20.913a4.252,4.252,0,0,0,3.182,1.418.746.746,0,0,0,.327-1.418h3.6a.746.746,0,0,0,.327,1.418,3.568,3.568,0,0,0,2.836-1.418h21.2c2.823,3.77,4.55,6.056,5.14,6.8a12,12,0,0,0,9.035,4.537h.076a.752.752,0,0,0,.655-.419c.013-.027.006-.056.015-.084a15.57,15.57,0,0,0,3.538.5h.035a.75.75,0,0,0,.661-.415c.014-.028.007-.059.017-.088a15.575,15.575,0,0,0,3.539.5h.036a.749.749,0,0,0,.594-1.193l-7.439-10.145h11.086a.75.75,0,0,0,0-1.5Zm-16.967-9.758c-.646.075-1.528.169-2.628.273-1.238.118-2.581.229-3.992.332h0c-.779.056-1.586.109-2.4.159-.544.034-1.09.067-1.645.1h0l-.837.045-.045,0c-1.471.075-3.013.139-4.582.191h0c-3.076.1-6.245.154-9.419.154-16.824,0-17.676-10-17.676-12.006,0-1.532.511-9.171,10.589-9.171h4.231a25.561,25.561,0,0,1,8.955,2.861C374.2,1244.334,381.4,1249.216,388.868,1259.014Zm-54.105-24.071.874.874v.354a19.371,19.371,0,0,0-4.125.5A10.179,10.179,0,0,1,334.763,1234.943Zm2.374,1.607v-1.044a.751.751,0,0,0-.22-.53l-1.181-1.181a4.709,4.709,0,0,1,4.9-4.626c5.051,0,6.369,2.333,6.437,2.459a15.246,15.246,0,0,0,2.815,3.328c-.08.015-.153.039-.232.056-.184.041-.366.082-.541.132-.107.03-.21.064-.314.1-.16.052-.318.1-.471.164-.1.04-.2.081-.3.123-.148.064-.293.13-.434.2-.094.047-.188.093-.278.142-.142.077-.279.158-.414.241-.081.05-.164.1-.244.151-.146.1-.287.2-.426.305-.059.044-.121.086-.179.132q-.291.23-.558.479c-.022.02-.041.042-.062.062-.155.148-.306.3-.45.456-.056.061-.108.125-.162.186-.1.121-.208.241-.307.365-.058.073-.113.147-.169.221-.089.119-.176.238-.26.359-.054.078-.107.157-.159.236-.08.121-.157.244-.232.368-.049.079-.1.159-.143.24-.075.129-.145.258-.215.389-.041.077-.082.153-.122.23q-.109.218-.211.438c-.029.063-.06.125-.089.188-.094.21-.183.421-.267.631l-.017.046c-.077.2-.149.392-.218.587-.024.07-.046.139-.069.209-.047.139-.093.277-.135.415-.026.083-.05.165-.074.247-.037.124-.072.247-.1.37-.01.035-.022.072-.031.107A12.551,12.551,0,0,0,337.137,1236.55ZM342.814,1248c0-.044.005-.1.007-.156,0-.072.007-.141.012-.228s.015-.191.022-.289.014-.187.025-.3.027-.247.041-.374.025-.224.041-.347c.019-.143.045-.3.069-.454.019-.127.036-.248.059-.381.029-.166.067-.344.1-.519.028-.135.051-.265.082-.4.043-.19.1-.388.148-.585.035-.133.063-.263.1-.4.063-.221.14-.447.215-.672.038-.116.07-.231.111-.347.123-.343.26-.687.413-1.029a11.861,11.861,0,0,1,.615-1.191c.074-.125.159-.231.236-.351.153-.235.3-.475.469-.688.1-.129.213-.239.319-.36.156-.179.308-.365.475-.526.12-.117.253-.212.378-.319.167-.142.329-.29.505-.415.138-.1.286-.175.429-.262.179-.109.354-.225.542-.318.154-.076.318-.133.478-.2.191-.079.38-.164.58-.227.17-.054.35-.089.526-.131.2-.05.406-.106.618-.14.185-.031.38-.042.571-.062s.363-.038.55-.045a15.916,15.916,0,0,0,2.485,1.428c-.031,0-.058.011-.089.015a15.067,15.067,0,0,0-1.6.274l-.012,0a12.75,12.75,0,0,0-1.4.415c-.038.014-.079.026-.117.04a10.879,10.879,0,0,0-1.167.511c-.05.025-.1.049-.15.075a9.8,9.8,0,0,0-.98.591l-.149.1a9.489,9.489,0,0,0-.824.658c-.044.039-.086.078-.129.118a9.5,9.5,0,0,0-.694.713c-.034.039-.066.079-.1.118q-.316.375-.583.762c-.022.032-.041.064-.063.1-.179.268-.343.538-.489.809l-.023.045q-.217.409-.39.815l-.023.05c-.113.268-.21.531-.3.789-.01.031-.021.062-.032.093-.081.249-.15.49-.211.724-.009.036-.019.072-.028.107-.056.228-.1.445-.143.654-.007.036-.014.071-.02.106q-.056.3-.091.573c0,.032-.008.061-.012.092-.022.175-.039.336-.051.481l-.005.063c-.011.144-.018.272-.022.378v.026c0,.107-.006.2-.006.255a12.373,12.373,0,0,0,3.087,7.938c3.261,3.694,8.674,5.568,16.089,5.568,1.563,0,3.124-.013,4.675-.038.508-.008,1-.025,1.509-.036.967-.02,1.939-.038,2.893-.068,1.011,1.358,2.565,3.443,4.219,5.657-7.37-.316-21.866-1.773-28.359-8.215A17.554,17.554,0,0,1,342.814,1248Zm14.888,18.013a.729.729,0,0,0,.3-.091,71.658,71.658,0,0,0,18.28,2.854H358.329a3.475,3.475,0,0,0-.627-2.763Zm27.462,10.134c-.658-.832-2.876-3.773-6.414-8.506-1.676-2.241-3.335-4.466-4.534-6.075.122,0,.236-.011.357-.015.956-.039,1.9-.079,2.814-.126h0l.484-.026,13.594,18.537A10.56,10.56,0,0,1,385.164,1276.143Zm7.68,3.128-13.183-17.977.3-.02c.477-.029.943-.06,1.408-.092.19-.013.387-.024.575-.038l13.812,18.835A15.809,15.809,0,0,1,392.844,1279.271Zm4.252,0-13.39-18.259c.11-.008.209-.018.317-.027.463-.037.907-.076,1.348-.115.192-.017.4-.032.586-.05l6.372,8.689,0,.013a.741.741,0,0,0,.529.705l7.15,9.75A15.741,15.741,0,0,1,397.1,1279.271Z" fill="#1a1a1a"/>
    <path id="Path_579" data-name="Path 579" d="M371.289,1248.793a.75.75,0,0,0,1.061-1.061l-4.252-4.252a.75.75,0,0,0-1.061,1.061Z" fill="#1a1a1a"/>
    <path id="Path_580" data-name="Path 580" d="M379.793,1257.3a.75.75,0,1,0,1.061-1.061l-4.252-4.252a.75.75,0,1,0-1.061,1.061Z" fill="#1a1a1a"/>
    <path id="Path_581" data-name="Path 581" d="M358.533,1243.48a.752.752,0,0,0,0,1.061l4.252,4.252a.75.75,0,1,0,1.061-1.061l-4.252-4.252A.75.75,0,0,0,358.533,1243.48Z" fill="#1a1a1a"/>
    <path id="Path_582" data-name="Path 582" d="M371.289,1257.3a.75.75,0,0,0,1.061-1.061l-4.252-4.252a.75.75,0,0,0-1.061,1.061Z" fill="#1a1a1a"/>
    <path id="Path_583" data-name="Path 583" d="M351.09,1243.48a.75.75,0,0,0-1.06,1.061l4.252,4.252a.75.75,0,0,0,1.06-1.061Z" fill="#1a1a1a"/>
    <path id="Path_584" data-name="Path 584" d="M359.594,1251.984a.75.75,0,0,0-1.061,1.061l4.252,4.252a.75.75,0,1,0,1.061-1.061Z" fill="#1a1a1a"/>
    <path id="Path_585" data-name="Path 585" d="M351.09,1251.984a.75.75,0,0,0-1.06,1.061l4.252,4.252a.75.75,0,1,0,1.06-1.061Z" fill="#1a1a1a"/>
  </g>
</svg>