<?xml version="1.0" encoding="utf-8"?>
<svg width="800px" height="800px" viewBox="0 -23.38 116.303 116.303" xmlns="http://www.w3.org/2000/svg">
  <g id="Group_734" data-name="Group 734" transform="translate(-646.654 -1392.619)">
    <path id="Path_569" data-name="Path 569" d="M665.829,1401.387a1.417,1.417,0,1,0,1.418,1.417A1.417,1.417,0,0,0,665.829,1401.387Z" fill="#1a1a1a"/>
    <path id="Path_570" data-name="Path 570" d="M762.207,1458.747H693.941a4.072,4.072,0,0,0,.067-.667,5.465,5.465,0,0,0-.414-2.085h68.613a.75.75,0,0,0,0-1.5H692.668a5.554,5.554,0,0,0-1.094-.981l7.474-4.27a1.218,1.218,0,0,0,.426-.433l.036.018a.75.75,0,0,0,.335.079.717.717,0,0,0,.139-.013c1.682-.318,4.863-1.77,4.863-4.989v-2.467a24.388,24.388,0,0,0,12.3-5.288,30.723,30.723,0,0,0,14.965-4.359,6.382,6.382,0,0,0,2.736-1.174,158.233,158.233,0,0,0,17.436,1.283c8.527,0,9.2-3.128,9.247-3.484a.749.749,0,0,0-.656-.846l-24.028-2.827-46.708-14.154c-.015-.005-.032,0-.048-.005s-.029-.014-.046-.017c-.048-.008-5.062-.929-10.928-6.874-6.087-6.168-11.326-5.937-11.906-5.892h-4.218a7.065,7.065,0,0,0-3.448.925,4.195,4.195,0,0,1,7.1-2.474.75.75,0,0,0,1.05-1.071,5.71,5.71,0,0,0-9.675,3.477,4.906,4.906,0,0,1,1.248-4.76.75.75,0,0,0-1.061-1.06,6.429,6.429,0,0,0-.8,8.1,19.8,19.8,0,0,0-7.689,4.153c-.016.015-.02.037-.034.054a.743.743,0,0,0-.136.217.683.683,0,0,0-.046.366c0,.021-.007.042,0,.063s.007.01.008.016,0,.017,0,.025a.727.727,0,0,0,.152.282.637.637,0,0,0,.055.048.742.742,0,0,0,.224.152c.016.007.026.023.043.029a33.112,33.112,0,0,0,10.171,1.46c2.1,0,3.8,1.734,5.047,5.153a26.339,26.339,0,0,1,1.294,5.513,25.858,25.858,0,0,0,5.911,12.6h0c4.955,5.858,12.141,9.361,21.356,10.413.049.017.094.022.142.038.191.062.38.108.57.151.094.022.192.051.284.067a4.9,4.9,0,0,0,.828.079c.72,0,.977.257,1.107.45.6.887.081,3.039-.385,4.187a.751.751,0,0,0,.36.953l.288.144-8.788,5.022h-5.338a2.663,2.663,0,0,0-2.547,1.917H647.4a.75.75,0,0,0,0,1.5h43.255a2.991,2.991,0,0,1,.849,2.085,1.569,1.569,0,0,1-.152.667H647.4a.75.75,0,0,0,0,1.5h41.49a1.219,1.219,0,0,0-.22.667,1.249,1.249,0,0,0,1.25,1.25,4.074,4.074,0,0,0,3.448-1.917h68.835a.75.75,0,0,0,0-1.5Zm-82.75-37.627c.03-.207.055-.415.1-.617,0-.016.008-.03.011-.045a10.634,10.634,0,0,1,5.885-7.409c.033-.015.068-.026.1-.041.268-.122.539-.237.818-.337.037-.013.077-.022.114-.035.278-.095.558-.184.846-.256.119-.031.243-.048.364-.074.21-.045.418-.095.632-.127.167-.026.339-.035.508-.052l.161-.017c.278-.018.554-.045.836-.047l46.085,13.965v.005a4.9,4.9,0,0,1-.175.837c-.012.039-.021.079-.034.118a4.967,4.967,0,0,1-.314.749l-.072.134a4.839,4.839,0,0,1-.453.677c-.026.033-.055.064-.082.1a5.01,5.01,0,0,1-.611.617,4.9,4.9,0,0,1-2.445,1.083,5.009,5.009,0,0,1-.7.057h-43.81a7.869,7.869,0,0,1-5.625-2.358,7.672,7.672,0,0,1-2.255-5.5A10.572,10.572,0,0,1,679.457,1421.12Zm72.829,9.281a151.184,151.184,0,0,1-16.08-1.129c.041-.055.073-.117.112-.173.09-.133.179-.267.259-.405.051-.087.1-.176.143-.265.07-.136.136-.273.2-.414.04-.093.078-.187.114-.283.054-.144.1-.291.145-.439.028-.095.057-.189.08-.285.04-.161.069-.325.1-.49.011-.067.03-.132.039-.2l22.064,2.6C758.634,1429.553,756.712,1430.4,752.286,1430.4ZM658.5,1402.207l2.182,2.181a27.181,27.181,0,0,0-7.239-.124A18.089,18.089,0,0,1,658.5,1402.207Zm2.243,3.718-.761.381a35.538,35.538,0,0,1-6.193-.571A25.963,25.963,0,0,1,660.745,1405.925Zm1.61.872.975-.488c.013-.006.019-.019.032-.026a.733.733,0,0,0,.227-.192l.011-.011a.731.731,0,0,0,.113-.225.54.54,0,0,0,.005-.056c0-.014.015-.025.017-.04a.688.688,0,0,0-.006-.078.718.718,0,0,0-.016-.212.687.687,0,0,0-.034-.108.712.712,0,0,0-.116-.19c-.016-.019-.02-.045-.038-.063l-4.007-4.007c.312-1.734,3.452-1.8,3.486-1.8h4.243a.685.685,0,0,0,.079,0c.046-.005,4.953-.4,10.725,5.45a29.4,29.4,0,0,0,8.493,6.178c-.1.023-.205.058-.309.083-.251.06-.5.129-.745.2q-.3.089-.589.189c-.333.111-.661.231-.985.364-.036.016-.071.033-.107.048-4.7,1.984-8.366,6.239-10.244,11.885l-.025.074c-.147.448-.284.9-.408,1.368-.046.166-.086.335-.128.5-.093.376-.184.753-.262,1.139-.066.326-.119.66-.174.992-.044.265-.095.526-.131.8,0,.031-.01.059-.015.089a24.506,24.506,0,0,1-4.43-10.348C667.948,1417.887,666.969,1409,662.355,1406.8Zm33.238,33.525a3.425,3.425,0,0,1-.624-.066c-.046-.008-.092-.021-.137-.031a5.219,5.219,0,0,1-.564-.158c-2.568-.88-5.531-3.873-6.6-5.148a.75.75,0,0,0-1.147.967,27.338,27.338,0,0,0,3.642,3.491c-6.9-1.418-12.407-4.435-16.4-9.033.02-.261.053-.516.08-.773.038-.366.073-.735.126-1.094.058-.4.133-.785.209-1.172.044-.233.085-.469.136-.7q.169-.756.383-1.482c.025-.088.048-.178.074-.266a20.141,20.141,0,0,1,4.624-8.124q-.285.506-.523,1.04c-.028.064-.062.126-.09.191a11.92,11.92,0,0,0-.458,1.3c-.035.118-.062.239-.093.359-.089.346-.164.7-.222,1.055-.022.135-.046.268-.064.4a12.188,12.188,0,0,0-.109,1.439,9.162,9.162,0,0,0,2.689,6.572,9.358,9.358,0,0,0,6.691,2.8H728.7a28.285,28.285,0,0,1-11.847,2.751.751.751,0,0,0-.529.219c-.04.039-4.225,4.085-12.327,5.175a.751.751,0,0,0-.65.744v3.116c0,2.393-2.595,3.251-3.408,3.461l-2-1c.38-1.16.96-3.511,0-4.933A2.643,2.643,0,0,0,695.593,1440.322Z" fill="#1a1a1a"/>
  </g>
</svg>