<?xml version="1.0" encoding="utf-8"?>
<svg width="800px" height="800px" viewBox="0 -3.71 72.366 72.366" xmlns="http://www.w3.org/2000/svg">
  <g id="Group_730" data-name="Group 730" transform="translate(-337.546 -703.714)">
    <path id="Path_562" data-name="Path 562" d="M409.162,767.163h-27.1a2.749,2.749,0,0,0-.714-2.615l-.137-.137h27.953a.75.75,0,0,0,0-1.5H379.709l-2.2-2.2,3.762-6.27a2.215,2.215,0,0,0,1.713-2.118v-3.5h3.192l4.008,4.007c.167.184,4.153,4.5,9.058,4.5h4.252a.75.75,0,0,0,.53-1.28l-11.475-11.476h1.024a.75.75,0,0,0,.53-1.28l-9.921-9.921-11.339-11.339a.738.738,0,0,0-.079-.069l-.089-.09a8.377,8.377,0,0,0-3.877-2.625c-.131-3.324-1.625-11.156-7.463-14.352a8.978,8.978,0,0,0-10.488,1.246,10.719,10.719,0,0,0-8.754,1.652.75.75,0,0,0,.391,1.342c.045,0,4.586.425,7.408,2.674h0a5.609,5.609,0,0,1,1.871,2.5c1.141,3.228,1.375,7.334,1.375,12.506,0,12.94,11.313,19.516,12.974,20.41,1.6,2.612,3.591,5.547,5.073,6.729l-5.054,6.318-3.966,2.644H338.3a.75.75,0,0,0,0,1.5h30.871l1.2,1.2a1.239,1.239,0,0,1,.145,1.555H338.3a.75.75,0,0,0,0,1.5h70.866a.75.75,0,0,0,0-1.5Zm-39.374-4.252-2.14-2.141,5.059-6.323a2.21,2.21,0,0,0,1.773-2.125v-3.5h1.16c2.129,3.249,3.363,4.64,4.116,5.228l-3.748,6.247-3.923,2.616Zm6.681-1.12,1.119,1.12h-2.8Zm5.015-9.507a.673.673,0,0,1-.622.7c-.347-.146-1.411-1.187-3.423-4.168h4.045Zm20.2,3.54h-2.442c-4.236,0-7.913-3.967-7.973-4.032l-4.253-4.252-3.46-3.46c.053.017.108.03.162.046.1.03.19.056.286.083q.254.07.513.129c.1.022.2.044.3.063.184.035.371.063.559.087.089.011.177.026.268.035.278.027.559.045.844.045h3.942Zm-36.15-21.256c.038.005.077,0,.115.008a7.86,7.86,0,0,0,.995.071H372l4.169,4.169H373.73c-4.236,0-7.914-3.967-7.983-4.04C365.744,734.772,365.656,734.687,365.533,734.568Zm25.2,8.5h-4.252a6.954,6.954,0,0,1-.723-.041c-.075-.008-.15-.02-.226-.03-.165-.022-.328-.048-.49-.08-.082-.017-.164-.034-.245-.053-.161-.037-.32-.079-.477-.125-.07-.021-.141-.04-.21-.062q-.318-.1-.626-.22l-.031-.012c-.22-.087-.434-.182-.644-.281-.053-.025-.1-.051-.156-.077q-.237-.115-.464-.238l-.166-.092q-.227-.128-.444-.261l-.122-.074c-.378-.237-.729-.48-1.047-.717l-.01-.008c-.157-.117-.3-.233-.445-.346l-.033-.026c-.424-.342-.765-.651-1.007-.882l-.4-.4,0,0-4.389-4.389h9.217l8.421,8.421ZM371.6,722.919l.173.176a.732.732,0,0,0,.09.077l9.974,9.975h-15.2a6.329,6.329,0,0,1-1.084-.094c-.109-.019-.213-.06-.321-.085a6.154,6.154,0,0,1-.724-.191c-.13-.046-.25-.116-.376-.171a6.056,6.056,0,0,1-.607-.278c-.134-.075-.254-.174-.382-.259a6.187,6.187,0,0,1-.512-.352l-.175-.176-.09-.09-.121-.124-.114-.116-.051-.053-.131-.136-.012-.012c-.046-.048-.088-.092-.123-.13l-.016-.017-.083-.089-.005-.006-.061-.069-.008-.009c-.031-.036-.051-.061-.063-.077a6.4,6.4,0,0,1-.892-1.643l-.059-.162c-.033-.1-.06-.2-.09-.3-.025-.089-.049-.178-.07-.269s-.039-.175-.055-.264c-.022-.117-.039-.235-.054-.357l-.011-.075c-.006-.046-.012-.091-.017-.136-.018-.2-.03-.393-.03-.593a6.253,6.253,0,0,1,.5-2.451,6.419,6.419,0,0,1,5.843-3.885h.012a7.035,7.035,0,0,1,.793.038c.114.012.223.031.333.049A6.485,6.485,0,0,1,371.6,722.919Zm-20.892-15.272c.039.03.091.07.155.124l.041.035c.057.049.121.106.192.172.03.027.063.061.094.09.062.06.126.124.194.2.04.042.082.089.123.134.066.073.134.151.2.233.045.055.091.111.137.17.07.089.14.185.21.284.046.064.091.127.136.2.076.114.15.238.223.364.038.064.076.125.113.192.108.2.212.409.307.635h-2.224a15.5,15.5,0,0,0-5.8-2.468A8.784,8.784,0,0,1,350.711,707.647Zm16.572,38.615a.752.752,0,0,0-.309-.283c-.124-.06-12.337-6.223-12.337-19.169,0-5.327-.248-9.577-1.46-13.006a6.5,6.5,0,0,0-1.014-1.834h1.724a.751.751,0,0,0,.725-.944,8.944,8.944,0,0,0-.332-.981c-.029-.073-.058-.144-.089-.215a8.535,8.535,0,0,0-.4-.824c-.015-.027-.031-.051-.047-.079-.135-.234-.273-.448-.414-.65-.035-.051-.069-.1-.1-.15-.149-.205-.3-.4-.444-.564l-.077-.086c-.129-.145-.251-.275-.368-.392l-.089-.088-.05-.051a7.353,7.353,0,0,1,8.416-.738c5.064,2.771,6.482,9.588,6.673,12.784-.209-.013-.422-.02-.64-.018h-.009a7.917,7.917,0,0,0-7.79,7.041,7.756,7.756,0,0,0-.041.795c0,.227.012.466.037.733.006.067.015.133.024.2l.009.063c.018.147.04.294.067.439.02.111.044.221.069.329s.055.223.088.343v.007c.035.122.069.244.108.359.016.05.034.1.052.146l.021.056a7.874,7.874,0,0,0,1.1,2.026l.034.046a16.84,16.84,0,0,0,1.2,1.258c1.242,1.246,3.057,3.006,3.059,3,.167.184,4.153,4.5,9.059,4.5h3.932l.03.029c.049.05.106.105.169.166l.069.067.063.061,2.438,2.438,4.244,4.243H373.73a.75.75,0,0,0-.75.75v4.214a.675.675,0,0,1-.624.7C371.587,752.677,369.127,749.284,367.283,746.262Zm-2.415,16.649,1.679-1.12,1.12,1.12Zm6.557,1.637-.137-.137h7.8l1.2,1.2a1.239,1.239,0,0,1,.145,1.555h-8.293A2.744,2.744,0,0,0,371.425,764.548Z" fill="#1a1a1a"/>
    <path id="Path_563" data-name="Path 563" d="M356.721,706.968a1.417,1.417,0,1,0,1.418,1.417A1.417,1.417,0,0,0,356.721,706.968Z" fill="#1a1a1a"/>
  </g>
</svg>