<?xml version="1.0" encoding="utf-8"?>
<svg width="800px" height="800px" viewBox="0 -10.63 73.783 73.783" xmlns="http://www.w3.org/2000/svg">
  <g id="Group_1002" data-name="Group 1002" transform="translate(-1000.455 -569.738)">
    <path id="Path_726" data-name="Path 726" d="M1012.543,576.157a1.417,1.417,0,1,0-1.417-1.417A1.418,1.418,0,0,0,1012.543,576.157Z" fill="#1a1a1a"/>
    <path id="Path_727" data-name="Path 727" d="M1074.188,598.564a.753.753,0,0,0-.576-.47l-19.286-3.214a.732.732,0,0,0,.065-.219.749.749,0,0,0-.588-.812l-8.024-1.718c.005-.009.015-.012.02-.021a.751.751,0,0,0,.008-.709c-1.139-2.182-3.39-4.14-6.692-5.82h0a53.46,53.46,0,0,0-14.467-4.4,6.411,6.411,0,0,1-1.454-2.371,27.93,27.93,0,0,0-.853-2.912c-.958-2.646-2.869-6.164-8.379-6.164-4.99,0-6.9,1.952-7.522,2.853a7.084,7.084,0,0,0-5.89,3.2.748.748,0,0,0,.161.926c1.235,1.087,3.627,1.471,4.431,1.573,4.791,4.11,5.655,5.741,5.67,7.612a16.3,16.3,0,0,1-.164,1.994,30.473,30.473,0,0,0-.271,3.849c0,5.335,4.42,11.509,10.333,14.5l.925,3.7-3.865,3.865-2.569,1.284h-9.743a.75.75,0,0,0,0,1.5h15.678a.69.69,0,0,1,.426.146.96.96,0,0,1,0,1.043.781.781,0,0,1-.456.148.737.737,0,0,0-.8.69.749.749,0,0,0,.689.806c.017,0,.058,0,.117,0a2.2,2.2,0,0,0,1.47-.542,2.122,2.122,0,0,0,.639-1.627,2.582,2.582,0,0,0-.089-.667h15.016a.7.7,0,0,1,.427.146.965.965,0,0,1,0,1.043.781.781,0,0,1-.456.148.741.741,0,0,0-.806.69.75.75,0,0,0,.69.806c.017,0,.058,0,.117,0a2.2,2.2,0,0,0,1.47-.542,2.122,2.122,0,0,0,.638-1.627,2.584,2.584,0,0,0-.088-.667h10.677a.75.75,0,0,0,0-1.5h-12.445l-.9-.9,1.314-5.258a.735.735,0,0,0,.022-.181v-3.463a18.218,18.218,0,0,0,3.828-2.878,19.044,19.044,0,0,0,10.762-3.837l11.445,2.41a19.309,19.309,0,0,0,3.387.306c2.079,0,4.577-.382,5.85-1.995A.753.753,0,0,0,1074.188,598.564Zm-36.133-4.732H1024.67v-.026a6.152,6.152,0,0,1,.148-.845c.025-.1.055-.2.085-.291a4.511,4.511,0,0,1,.173-.472c.03-.069.058-.139.09-.2l7.805,1.018,6.29.82Zm-15.311-11.089q.192-.047.369-.078c.078-.015.158-.03.23-.041a3.975,3.975,0,0,1,.49-.047l.3.045a56.138,56.138,0,0,1,13.021,3.686c-.246.129-.494.254-.745.369-.037.017-.074.037-.111.054q-.5.227-1.015.416c-.07.026-.142.048-.213.073-.273.1-.547.189-.825.271-.093.028-.188.052-.282.078-.262.073-.527.14-.793.2l-.281.059c-.28.057-.564.107-.849.149-.077.012-.154.025-.231.035-.33.044-.663.079-1,.1l-.1.009c-.379.026-.763.039-1.149.039-.039,0-.106,0-.2,0a16.5,16.5,0,0,1-1.667-.109c-.087-.01-.176-.017-.262-.028-.509-.065-1-.153-1.47-.258-.092-.02-.182-.042-.272-.064-.468-.113-.922-.239-1.352-.383-.051-.017-.1-.036-.15-.053q-.624-.216-1.192-.464c-.044-.019-.09-.036-.134-.056-.386-.172-.749-.353-1.1-.539l-.2-.1c-.331-.183-.645-.369-.936-.556-.051-.032-.1-.065-.148-.1-.294-.192-.573-.385-.823-.571l0,0c-.257-.192-.484-.375-.7-.55l-.042-.035a17.51,17.51,0,0,1,3.588-1.487C1022.59,582.78,1022.667,582.761,1022.744,582.743Zm10.559,8.3c.44.127.89.235,1.337.346.251.063.5.136.75.193q1.057.242,2.14.425c.531.089,1.072.168,1.608.236l.724.155-13.585-1.772c.019-.015.038-.027.057-.041a5.467,5.467,0,0,1,3.037-.926h.02c.336.142.684.266,1.027.4.288.111.569.23.861.333.387.138.786.257,1.181.382C1032.742,590.862,1033.018,590.961,1033.3,591.043Zm-19.928-1.351a3.72,3.72,0,0,1,.171-.51c.016-.04.027-.08.044-.12a5.017,5.017,0,0,1,.334-.625l.013-.022a6.74,6.74,0,0,1,.446-.621l.049-.063c.142-.175.3-.349.471-.524.063-.066.123-.133.189-.2.115-.114.243-.227.367-.341.144-.129.284-.26.437-.385.029-.025.063-.05.093-.075a17.2,17.2,0,0,1,1.56-1.122l.064.054c.13.115.271.236.422.361l.136.113c.2.159.406.322.635.491.042.032.089.063.132.1.194.141.4.282.614.426l.223.146c.271.175.552.349.855.522l.044.024c.286.162.59.32.9.476.1.048.2.095.3.142.275.131.561.256.856.378.08.033.155.067.236.1.363.143.742.276,1.133.4.111.036.225.067.337.1q.471.141.966.257c.08.019.154.045.235.063a5.251,5.251,0,0,0-1.522,1.544c-.038.06-.064.13-.1.192-.049.083-.093.174-.138.262a5.8,5.8,0,0,0-.3.7c-.052.143-.1.286-.149.438-.035.125-.063.255-.091.384-.04.176-.073.357-.1.545-.017.117-.034.234-.047.354-.006.063-.018.12-.024.184h-6.366a3.506,3.506,0,0,1-3.5-3.5A2.8,2.8,0,0,1,1013.375,589.692Zm30.432,1.348a36.815,36.815,0,0,1-4.451-.281c-.526-.066-1.056-.144-1.576-.232-.775-.131-1.538-.29-2.292-.467-.246-.058-.487-.127-.731-.189-.505-.13-1.007-.266-1.5-.417-.107-.032-.212-.069-.318-.1.053-.01.1-.026.158-.036.37-.073.735-.16,1.1-.256.1-.027.207-.048.309-.077q.69-.2,1.362-.45c.117-.044.232-.1.348-.143.333-.133.664-.275.99-.429.151-.071.3-.147.449-.222.3-.151.592-.312.883-.48.09-.052.183-.094.272-.148A14.8,14.8,0,0,1,1043.807,591.04Zm-21.109-9.822c-.2.04-.4.089-.6.144l-.022.006a19.6,19.6,0,0,0-4.829,2.127c-1.387.839-4.325,2.869-5.194,5.413l-.01.023c.032-.3.066-.58.1-.853.074-.617.14-1.17.164-1.705l.043-.023c.061-.032.129-.073.194-.109.13-.071.261-.145.406-.232.083-.051.17-.109.258-.166.14-.09.279-.184.427-.289.1-.071.2-.147.3-.225.146-.111.291-.228.44-.354.107-.091.213-.185.321-.284.149-.136.3-.282.445-.434.108-.11.215-.22.322-.339.151-.167.3-.35.445-.536.1-.126.2-.246.3-.381.157-.217.305-.455.452-.695.079-.126.161-.243.236-.376a11.517,11.517,0,0,0,.6-1.235c1.345-3.265,2.972-3.717,3.434-3.778a.966.966,0,0,1,.123-.01h.054c.216.65.421,1.383.636,2.263a6.106,6.106,0,0,0,1.011,2.037Zm-16.239-7.135c.013.02.027.035.041.055a8.124,8.124,0,0,0,.581.776c.036.042.07.083.106.123.2.227.4.431.59.613.034.032.065.059.1.09.194.176.381.334.552.466l.063.046c.175.132.336.246.468.331v.241h-3.464a10.673,10.673,0,0,1-3.221-.854A5.856,5.856,0,0,1,1006.459,574.083Zm.995,4.241h2.255a.75.75,0,0,0,.75-.75v-1.417a.754.754,0,0,0-.406-.667s-.029-.015-.068-.037l-.043-.027c-.037-.022-.079-.047-.133-.081l-.1-.067c-.052-.034-.105-.07-.166-.114-.043-.031-.092-.069-.139-.1-.062-.047-.126-.095-.194-.15-.053-.043-.11-.093-.167-.141s-.139-.121-.211-.187-.122-.118-.184-.179-.145-.147-.218-.226-.126-.141-.189-.215-.144-.175-.215-.268-.123-.164-.184-.25c-.029-.041-.055-.087-.083-.129.494-.635,2.071-2.077,6.2-2.077a6.463,6.463,0,0,1,6.586,4.226,4.782,4.782,0,0,0-2.413,1.416l-.054.055c-.112.116-.224.242-.337.376-.022.026-.044.051-.066.078a9.183,9.183,0,0,0-.759,1.091c-.032.054-.063.112-.1.167-.093.162-.184.331-.274.509-.034.066-.068.131-.1.2-.118.242-.234.494-.346.767a9.985,9.985,0,0,1-.5,1.021c-.054.1-.111.188-.167.281-.133.222-.27.434-.411.634-.061.085-.12.171-.182.252-.173.227-.349.441-.529.639-.026.029-.052.062-.078.091-.209.224-.419.427-.628.614-.06.053-.119.1-.178.152-.153.13-.3.254-.453.366-.063.047-.125.1-.187.139-.158.114-.312.218-.46.312-.034.022-.071.048-.1.069l-.033.019C1011.818,582.835,1010.492,581.06,1007.454,578.324Zm29.851,30.339-1.344,5.379-1.051,1.05h-13.686l-1.745-.873,3.044-3.043a1.407,1.407,0,0,0,.431.131,1.461,1.461,0,0,0,.167.01,1.813,1.813,0,0,0,1.293-.615,5.939,5.939,0,0,0,1.6-2.767,15.077,15.077,0,0,0,2.123.153,21.377,21.377,0,0,0,9.171-2.014Zm5-7.744a.751.751,0,0,0-.561.252,19.182,19.182,0,0,1-13.612,5.417,13.923,13.923,0,0,1-2.58-.248.75.75,0,0,0-.883.636,4.512,4.512,0,0,1-1.321,2.668c-.129.13-.214.169-.2.178h0l-1.07-4.278a.75.75,0,0,0-.4-.494c-5.5-2.646-9.8-8.489-9.8-13.3,0-.166,0-.327.005-.484,0,.013.008.025.011.038.017.088.05.169.071.255a5.217,5.217,0,0,0,.2.637c.044.108.1.208.151.312a5.036,5.036,0,0,0,.272.5c.067.1.141.2.216.3a4.912,4.912,0,0,0,.344.417c.086.093.175.18.268.266a5.074,5.074,0,0,0,.415.343c.1.075.2.148.307.215a4.825,4.825,0,0,0,.49.267c.108.052.212.108.325.153a4.925,4.925,0,0,0,.594.185c.1.026.2.062.3.082a5.01,5.01,0,0,0,.954.1h21.182l8.923,1.879,4.465.94A17.361,17.361,0,0,1,1042.307,600.919Zm22.831-1.4-11.771-2.479h0l-5.435-1.144-2.673-.563h2.656l23.683,3.948C1069.592,600.088,1066.437,599.771,1065.138,599.518Z" fill="#1a1a1a"/>
    <path id="Path_728" data-name="Path 728" d="M1050.811,620.761h-45.354a.75.75,0,0,0,0,1.5h45.354a.75.75,0,0,0,0-1.5Z" fill="#1a1a1a"/>
  </g>
</svg>