<?xml version="1.0" encoding="utf-8"?>
<svg width="800px" height="800px" viewBox="-1.81 0 95.044 95.044" xmlns="http://www.w3.org/2000/svg">
  <g id="Group_1000" data-name="Group 1000" transform="translate(-797.778 -1081.474)">
    <circle id="Ellipse_120" data-name="Ellipse 120" cx="1.311" cy="1.311" r="1.311" transform="translate(816.283 1092.251)" fill="#1a1a1a"/>
    <path id="Path_719" data-name="Path 719" d="M888.991,1175.238l-21.77-21.771-3.978-11.137c.339.054.677.114,1.016.164a.755.755,0,0,0,.106.007h0a.765.765,0,0,0,.142-.013.867.867,0,0,0,.123-.047.663.663,0,0,0,.084-.033.752.752,0,0,0,.234-.188l.006-.005c.005-.006.005-.015.01-.022a.728.728,0,0,0,.124-.291.739.739,0,0,0,.015-.082c0-.024.012-.045.012-.069,0-16.526-9.6-40.435-26.971-40.435a17.1,17.1,0,0,0-6.222,1.172c-2.777-3.618-.866-11.5-.845-11.578a.75.75,0,0,0-.728-.932h-.532l1.272-7.63a.749.749,0,0,0-.892-.858,13.5,13.5,0,0,0-4.767,2.035v-1.3a.751.751,0,0,0-.927-.729,15.94,15.94,0,0,0-6.159,3.272v-1.126a.751.751,0,0,0-1.225-.581,17.921,17.921,0,0,0-6.12,8.908,14.552,14.552,0,0,1-1.133,2.622h0a4.927,4.927,0,0,1-1.676,1.356,60,60,0,0,1-9.533,4.083,1.3,1.3,0,0,0-.847,1.526.751.751,0,0,0,.1.239,1.288,1.288,0,0,0,1.241.8c13.141-.481,17.67,1.526,20.976,2.993a4.553,4.553,0,0,1,.826.482,7.735,7.735,0,0,1,2.582,4.111,11.459,11.459,0,0,0-1.01,4.462l0,.032v.035l0,.053v.061a15.644,15.644,0,0,0,3.359,9.313c.206.723.448,1.486.727,2.275.158.446.335.92.531,1.414.064.161.142.336.209.5.141.343.28.684.44,1.045.094.212.2.436.3.653.154.333.3.662.474,1.006.119.241.254.489.381.735.175.335.345.668.535,1.011.144.26.3.525.458.789.2.339.393.677.607,1.021.169.273.355.548.535.824.224.341.446.681.686,1.025.2.281.408.561.616.843.252.342.505.682.775,1.024.223.283.461.564.7.847.188.225.36.452.557.676-.013.008-.024.018-.036.026-.071.05-.14.106-.211.157-.192.139-.383.28-.57.434-.1.077-.186.161-.279.242-.159.138-.316.277-.469.424-.1.094-.193.192-.289.29-.142.146-.282.294-.419.447-.1.106-.187.212-.279.322-.132.157-.26.317-.386.481-.087.112-.173.224-.256.339-.125.173-.244.35-.361.528-.075.114-.151.225-.222.341-.123.2-.238.4-.351.608-.056.1-.115.2-.168.3-.161.309-.312.623-.449.943a3.94,3.94,0,0,0,1.763,5.212.751.751,0,0,0,.345.084l.013,0a.74.74,0,0,0,.737-.746,6.343,6.343,0,0,1,6.336-6.336h8.4c8.247,18.807,14.96,28.347,19.951,28.347a.75.75,0,0,0,.707-1l-.884-2.476c2.152,2.331,4.083,3.479,5.847,3.479a.75.75,0,0,0,.706-1l-5.177-14.5,19.532,19.532a.75.75,0,0,0,1.06-1.06Zm-50.846-72.422c15.135,0,24.027,19.6,25.31,35.137l-.069-.139c-.083-.169-.168-.342-.258-.52-.037-.076-.075-.151-.114-.228-.1-.2-.209-.414-.319-.63l-.076-.148q-.211-.411-.441-.849l-.056-.1q-.2-.378-.412-.773l-.13-.239c-.13-.241-.265-.486-.4-.736-.04-.071-.078-.142-.118-.214q-.537-.965-1.145-2.005l-.152-.258q-.234-.4-.48-.8l-.178-.3c-.193-.317-.389-.638-.591-.962-.025-.041-.048-.08-.074-.12-.227-.365-.462-.736-.7-1.109l-.185-.286c-.182-.282-.366-.565-.555-.851l-.238-.359q-.285-.428-.58-.861c-.07-.1-.138-.2-.209-.307q-.391-.572-.8-1.152c-.06-.084-.122-.17-.182-.255q-.327-.457-.662-.918l-.3-.408q-.3-.4-.6-.806l-.31-.41q-.406-.532-.826-1.065l-.087-.114c-.248-.312-.491-.616-.732-.915l-.051-.062-.178-.22c-.165-.2-.328-.4-.49-.6l-.127-.15-.131-.161q-.23-.274-.456-.541l-.251-.3c-.12-.141-.239-.276-.357-.412-.056-.063-.112-.129-.166-.192l-.172-.2q-.312-.353-.617-.687l-.264-.288c-.127-.137-.252-.272-.377-.4l-.3-.311c-.112-.118-.224-.233-.334-.347l-.03-.029c-.091-.094-.183-.188-.275-.28l-.33-.327c-.159-.156-.318-.31-.475-.459-.12-.114-.241-.229-.361-.341s-.21-.191-.325-.294l-.267-.24c-.111-.1-.223-.2-.332-.289l-.25-.212c-.114-.095-.227-.19-.339-.281l-.225-.18c-.026-.021-.052-.038-.077-.059-.221-.175-.442-.346-.66-.508-.172-.275-.376-.535-.566-.8-.146-.2-.277-.416-.434-.615-.232-.295-.5-.574-.752-.857-.159-.177-.3-.361-.472-.533-.3-.309-.638-.6-.97-.893-.149-.13-.282-.27-.436-.4q-.749-.62-1.585-1.187c-.477-.323-.981-.636-1.5-.931-.7-.4-1.45-.781-2.226-1.13l-.163-.073A15.688,15.688,0,0,1,838.145,1102.816Zm1.011,5.595c-.266-.108-.534-.211-.806-.306-.116-.041-.233-.08-.35-.119-.272-.088-.549-.169-.83-.245-.1-.027-.2-.057-.3-.082-.378-.1-.766-.181-1.164-.254-.071-.014-.146-.023-.218-.036q-.5-.087-1.025-.153c-.135-.017-.274-.032-.411-.047-.313-.035-.634-.063-.962-.087-.136-.01-.27-.022-.408-.03-.461-.027-.933-.049-1.427-.058-.3-.006-.6-.008-.907-.008-.109,0-.214,0-.319.009l-.078,0c-.312.012-.614.041-.91.081-.093.013-.181.031-.271.046-.2.034-.4.073-.6.121-.1.024-.2.051-.294.078q-.274.079-.538.177c-.09.033-.181.065-.268.1-.03.012-.061.022-.089.034.089-.1.179-.2.272-.294.194-.2.391-.4.6-.594.168-.155.346-.3.524-.449.226-.188.453-.376.693-.551.137-.1.277-.2.418-.29.251-.171.509-.333.772-.489.18-.106.361-.211.546-.31.375-.2.753-.4,1.147-.566l.024-.011h0l0,0c.584.216,1.165.443,1.715.69.732.33,1.437.687,2.1,1.064.484.276.955.569,1.4.871.476.323.924.663,1.354,1.013.137.113.264.231.4.346.179.154.347.314.517.474l-.043-.017C839.335,1108.481,839.245,1108.448,839.156,1108.411Zm-12.359-5.894c-.071-.063-.139-.126-.214-.19-.258-.223-.53-.449-.83-.679-.048-.037-.1-.074-.152-.111q-.386-.291-.819-.584c-.144-.1-.3-.195-.448-.292-.21-.136-.429-.27-.655-.405-.181-.108-.362-.215-.553-.322-.262-.146-.541-.29-.822-.434-.147-.075-.277-.152-.429-.227s-.337-.149-.5-.225c-.282-.131-.565-.261-.865-.389-.221-.092-.449-.18-.675-.269-.286-.113-.576-.224-.878-.333-.226-.082-.456-.16-.687-.237q-.48-.162-.988-.315c-.227-.069-.454-.137-.685-.2-.356-.1-.725-.2-1.1-.29-.149-.037-.292-.08-.442-.116-.1-.023-.2-.042-.293-.064-.249-.058-.5-.112-.76-.166q-.478-.1-.965-.193c-.257-.049-.515-.1-.78-.142-.4-.068-.8-.129-1.2-.189-.167-.024-.321-.053-.49-.076a4.375,4.375,0,0,0,.316-.331l.283.009.161.005.142.006a34.212,34.212,0,0,1,10.687,2.212l.04.015c.419.171.833.36,1.245.558.068.033.138.062.206.1.45.223.893.461,1.325.719l.044.028c.4.241.793.5,1.174.777.051.038.1.074.156.112q.565.419,1.089.891c.06.054.116.11.174.165a12.661,12.661,0,0,1,.961.99c.014.015.029.03.043.046a11.923,11.923,0,0,1,.858,1.147c.027.041.055.081.081.122-.119.069-.229.148-.346.22-.149.093-.3.185-.444.282-.083.056-.171.1-.253.161-.126-.157-.266-.323-.419-.495l-.035-.038c-.163-.184-.345-.375-.54-.572l-.171-.168Q827.086,1102.776,826.8,1102.517Zm-7.193-1.534c-.071.038-.144.069-.217.1a2.748,2.748,0,0,1-.344.121c-.059.017-.116.034-.176.047a2.566,2.566,0,0,1-1.084.012c-.067-.013-.13-.035-.2-.052-.1-.027-.2-.054-.29-.09-.074-.029-.144-.064-.215-.1s-.159-.08-.234-.126-.134-.088-.2-.136-.14-.109-.206-.168-.113-.1-.166-.16a2.556,2.556,0,0,1-.184-.219c-.043-.056-.087-.111-.126-.171a2.716,2.716,0,0,1-.155-.279c-.028-.056-.06-.109-.085-.167a2.887,2.887,0,0,1-.118-.369c-.011-.043-.029-.083-.038-.127s-.008-.09-.016-.134a2.9,2.9,0,0,1-.042-.4c.176.046.346.093.517.14.647.179,1.279.37,1.889.577.066.022.136.043.2.066.327.113.644.233.96.355l.372.144q.454.183.891.375l.116.052a2.886,2.886,0,0,1-.388.4c-.075.061-.156.11-.236.163A2.7,2.7,0,0,1,819.6,1100.983Zm-10.865-3.62c.185.02.356.045.538.066.659.076,1.312.158,1.95.256.22.034.429.073.645.109.636.108,1.263.224,1.872.354.094.019.186.04.278.06-.008.1-.012.211-.012.315v.052l-11.119,1.482A45.609,45.609,0,0,0,808.739,1097.363Zm5.471-3.193c.005-.024.009-.046.014-.07.023-.112.052-.231.084-.354.008-.031.018-.064.027-.1.029-.1.061-.209.1-.317.01-.032.02-.064.032-.1q.069-.2.158-.4c.012-.028.026-.056.039-.084.051-.111.108-.222.168-.33.02-.035.038-.07.059-.1a3.829,3.829,0,0,1,.255-.381c.013-.016.027-.031.04-.048a3.2,3.2,0,0,1,.272-.3c.03-.029.06-.058.091-.086a2.685,2.685,0,0,1,.377-.29c1.005-.63,2.422-.56,4.211.2a8.238,8.238,0,0,1,.95.482c.1.057.176.121.266.18a6.245,6.245,0,0,1,.535.383c.095.077.176.161.262.243a4.873,4.873,0,0,1,.39.4c.079.093.149.19.22.288a4.554,4.554,0,0,1,.283.435c.059.1.114.213.164.324a4.429,4.429,0,0,1,.188.48c.038.116.075.232.1.353a4.9,4.9,0,0,1,.1.538c.016.123.036.244.044.37.012.2.007.41,0,.621,0,.121,0,.238-.012.363,0,.025-.009.053-.012.078-.282-.128-.567-.242-.851-.359l-.146-.061c-.6-.241-1.2-.456-1.8-.65l-.258-.08c-.689-.215-1.373-.406-2.044-.566-.305-.073-.605-.14-.9-.2-.115-.025-.23-.048-.344-.071-.316-.064-.627-.124-.93-.177l-.056-.01c-.354-.062-.7-.114-1.028-.163l-.126-.018c-.335-.048-.661-.091-.97-.127l.007-.041C814.176,1094.348,814.192,1094.261,814.21,1094.17Zm2.635-8.872v1.178a.75.75,0,0,0,1.3.513,16.361,16.361,0,0,1,5.789-3.764v1.833a.751.751,0,0,0,1.269.542,11.863,11.863,0,0,1,4.22-2.358l-1.227,7.362a.751.751,0,0,0,.74.874h.488c-.37,1.9-1.007,6.275.144,9.7-.175-.2-.371-.381-.559-.57-.069-.069-.134-.141-.2-.209a16.621,16.621,0,0,0-2.7-2.1l-.026-.016c-.337-.211-.676-.42-1.036-.616.024-.147.022-.284.038-.429.023-.2.045-.4.054-.6.01-.234,0-.461-.007-.687-.008-.186-.014-.373-.036-.553-.027-.221-.074-.433-.121-.644-.038-.171-.071-.343-.122-.507a6.212,6.212,0,0,0-.237-.6c-.067-.153-.126-.309-.2-.456a5.947,5.947,0,0,0-.358-.555c-.092-.134-.174-.272-.277-.4a6.8,6.8,0,0,0-.494-.515c-.112-.11-.211-.228-.333-.332a7.86,7.86,0,0,0-.675-.493c-.117-.079-.218-.167-.341-.242a9.594,9.594,0,0,0-1.2-.617c-2.274-.971-4.158-1-5.6-.092a4.213,4.213,0,0,0-.54.412c-.042.037-.084.075-.124.114a4.652,4.652,0,0,0-.435.467l-.007.007a5.447,5.447,0,0,0-.36.522c-.028.046-.055.09-.081.136-.1.176-.2.354-.279.532l0,.005c-.084.184-.154.367-.219.547-.017.046-.033.09-.048.135-.059.174-.113.345-.157.508v.005c-.045.169-.081.327-.112.48-.009.039-.016.076-.023.114-.027.137-.05.267-.068.383l0,.012c-.351-.027-.667-.047-.941-.061.253-.57.469-1.169.692-1.787A16.319,16.319,0,0,1,816.845,1085.3Zm-10.378,15.8,6.747-.9,1.077-.144c.01.027.026.051.037.078.029.072.065.138.1.208a4.344,4.344,0,0,0,.253.466c.048.076.1.149.15.222a4.34,4.34,0,0,0,.323.391c.057.062.11.127.17.186a4.39,4.39,0,0,0,.548.452c.065.045.136.079.2.12a4.424,4.424,0,0,0,.45.245c.09.041.181.075.274.11a4.056,4.056,0,0,0,.476.148c.085.021.169.045.256.061a4.223,4.223,0,0,0,.774.078,4.278,4.278,0,0,0,.8-.085c.056-.011.111-.024.167-.037a4.213,4.213,0,0,0,.736-.239l.015-.005.213,1.062.106.531C817.67,1102.864,814.116,1101.431,806.467,1101.094Zm15.6,3.943-.7-3.519c.011-.011.02-.024.03-.036a4.338,4.338,0,0,0,.391-.472c.017-.024.039-.044.056-.068.04.021.08.041.118.062.3.157.581.315.851.473l.157.094c.283.17.555.339.81.508l.062.043a16.151,16.151,0,0,1,3.01,2.551c.034.038.074.078.107.116.082.093.152.179.225.266.044.052.088.1.128.155-.153.13-.3.268-.443.4-.051.047-.1.092-.153.139a14.646,14.646,0,0,0-1.7,1.89c-.043.058-.082.119-.125.177-.137.19-.277.38-.4.575A8.49,8.49,0,0,0,822.071,1105.037Zm1.946,9.729a8.257,8.257,0,0,1,1.094-3.586,5.609,5.609,0,0,1,4.9-2.683l.084,0c.368-.015.758-.006,1.131,0a17.915,17.915,0,0,1,9.617,2.441c.463.28.937.6,1.407.937h0c.266.193.535.4.8.614l.214.171c.106.086.214.176.323.267l.236.2c.1.09.21.182.315.274l.568.513c.114.1.229.215.345.326.152.144.3.292.457.442l1.224,1.251c.121.129.244.261.367.4l.258.28c.2.219.4.442.6.672l.167.192c.17.193.34.389.513.591l.833.991.78.95.043.053c.119.147.24.3.36.451s.239.3.361.451h0c.374.475.737.947,1.1,1.419.08.106.16.211.239.317q.514.684,1.006,1.363l.176.245q.438.61.859,1.215l.179.258q.459.663.893,1.315l.208.314c.28.423.555.843.82,1.258l.046.071c.275.431.54.854.8,1.273l.191.311c.248.4.489.8.722,1.192.048.083.1.163.144.245q.3.512.587,1.006c.049.085.1.171.148.256q.318.555.613,1.087c.052.092.1.183.152.274.182.33.36.655.529.969.018.034.038.071.057.1.18.336.35.659.515.975.046.088.092.176.136.262.157.3.308.6.45.879.03.058.057.112.085.169q.186.369.354.711l.092.188c.123.252.238.491.347.718.029.063.058.123.087.184.095.2.186.4.269.574l.036.078c.092.2.173.377.248.545l.032.07c-.3-.05-.6-.1-.9-.152-1.528-.265-3.052-.587-4.563-.936a.733.733,0,0,0-.486-.112c-.342-.081-.69-.153-1.03-.238-1.479-.37-2.947-.78-4.364-1.218l-.055-.016-.07-.021c-.868-.27-1.732-.568-2.593-.869-1.3-.456-2.6-.935-3.865-1.456-6.835-2.808-12.4-6.316-16.1-10.144a23.776,23.776,0,0,1-1.96-2.282,14.249,14.249,0,0,1-3.144-8.539Zm8.789,20.537c-.241-.35-.479-.7-.7-1.048-.154-.241-.3-.48-.446-.719-.069-.113-.133-.224-.2-.336l1.99-1.99c.326.226.674.446,1.012.668.261.171.511.345.78.514.467.294.958.58,1.447.866.226.132.441.268.672.4l.016.009L834.043,1137c-.257-.334-.518-.668-.757-1C833.119,1135.765,832.965,1135.534,832.806,1135.3Zm-2.983-5.1c-.157-.322-.3-.637-.447-.949-.091-.2-.186-.4-.271-.6-.146-.332-.278-.651-.407-.967-.064-.157-.135-.321-.2-.473-.013-.035-.023-.065-.037-.1.193.191.409.378.611.568.226.213.447.427.685.637.3.266.615.527.931.789.246.2.485.409.741.61s.524.4.789.594l-1.54,1.541-.013-.023c-.178-.326-.347-.648-.51-.966C830.045,1130.642,829.93,1130.419,829.823,1130.2Zm7.82,10.854q-.783-.758-1.527-1.565l0,0c-.4-.433-.76-.872-1.126-1.31l3.767-3.767c.286.151.561.308.853.457.159.081.328.157.489.237.62.31,1.247.617,1.894.915.316.145.648.283.97.425l.1.043-4.975,4.974C837.939,1141.322,837.788,1141.194,837.643,1141.053Zm-6.6,5.245q.186-.435.406-.854c.046-.089.1-.174.147-.262.1-.188.208-.375.32-.557.064-.1.133-.2.2-.3.106-.161.213-.323.326-.479.074-.1.153-.2.23-.3.113-.147.228-.293.346-.433.083-.1.169-.193.254-.288.121-.134.243-.266.368-.394.09-.09.18-.178.271-.265q.193-.185.391-.355c.094-.082.188-.162.284-.239.136-.11.273-.213.412-.314.1-.071.193-.141.291-.207.049-.033.1-.061.147-.092.2.205.4.4.6.6.282.284.56.568.849.841.076.073.148.152.224.223-.033.008-.064.022-.1.03a7.729,7.729,0,0,0-.943.29c-.05.019-.1.041-.147.061a7.941,7.941,0,0,0-.853.406l-.088.046a8.013,8.013,0,0,0-.818.544c-.052.04-.1.079-.156.12a7.8,7.8,0,0,0-.719.641c-.039.04-.076.082-.115.123a7.949,7.949,0,0,0-.621.736c-.011.015-.023.028-.034.043a7.873,7.873,0,0,0-.528.843c-.031.056-.062.11-.091.166a7.848,7.848,0,0,0-.394.894c-.021.057-.039.114-.059.171a7.76,7.76,0,0,0-.275,1A2.413,2.413,0,0,1,831.04,1146.3Zm8.207-3.879,5.182-5.181c.017.044.037.087.054.131q.915,2.247,1.873,4.477c.081.19.158.384.24.573Zm9.179.452v0c-.64-1.466-1.269-2.96-1.889-4.454l-.241-.586c.372.143.75.275,1.125.413.256.094.509.189.766.281.939.334,1.882.656,2.83.953.146.351.3.712.451,1.073.027.066.054.13.082.2.177.42.36.847.545,1.279.047.11.093.218.141.328.177.413.36.832.544,1.253.056.13.111.256.168.386.172.393.349.791.527,1.19.074.168.147.333.223.5.167.374.339.752.51,1.13l.262.577.071.155c.049.108.1.216.15.324.1.206.192.413.288.62s.192.416.29.625l.062.133c.09.192.183.385.274.577.055.117.112.235.168.353.106.223.21.446.318.669l.052.11c.125.259.252.516.378.774.024.05.049.1.073.149.113.232.225.465.34.7l.044.09c.146.3.295.587.442.881l.02.04c.119.236.236.472.355.707l.037.072c.151.3.3.588.457.882l.032.062c.117.226.233.454.351.678l.032.06c.153.291.308.575.462.863l.065.12c.111.207.222.418.334.623l.024.045c.16.292.322.578.483.866l.118.214c.1.176.2.356.3.531.158.278.317.548.476.821.139.239.277.482.416.717l.023.037c.147.248.294.485.442.727s.3.506.456.751l.025.04c.141.225.281.438.422.658.16.249.319.5.479.746l.025.04c.135.2.27.4.405.595.156.23.311.466.467.688l1.932,5.412C861.817,1168.953,855.495,1159.067,848.426,1142.871Zm16.982,21.478q-.447-.638-.9-1.318c-.1-.146-.192-.3-.289-.448-.2-.311-.4-.622-.605-.945-.118-.189-.236-.385-.354-.578-.178-.29-.356-.58-.533-.878-.13-.218-.259-.441-.388-.662-.165-.283-.33-.565-.495-.853-.132-.233-.265-.471-.4-.708-.16-.286-.32-.572-.479-.862-.133-.243-.266-.489-.4-.735-.155-.288-.31-.576-.464-.867q-.2-.383-.4-.769l-.2-.4c-.08-.154-.16-.307-.239-.462-.136-.266-.271-.532-.406-.8s-.283-.563-.424-.846-.273-.551-.408-.827-.271-.555-.405-.833-.272-.562-.406-.843-.261-.549-.39-.824-.267-.566-.4-.849-.249-.538-.373-.806q-.2-.428-.391-.852c-.121-.266-.24-.53-.359-.794-.127-.283-.255-.566-.38-.846-.117-.262-.231-.52-.346-.78-.121-.275-.243-.551-.362-.823s-.23-.528-.344-.791-.226-.52-.335-.775-.225-.527-.337-.79c-.1-.244-.211-.493-.312-.734l-.009-.021c.09.026.183.048.274.074.873.248,1.755.488,2.644.711.321.081.649.149.972.226l8.326,19.427a.75.75,0,0,0,1.379-.591l-7.893-18.415.192.04c.322.069.645.125.968.19.6.121,1.207.248,1.811.356l4.313,12.078,5.858,16.4C870.307,1169.994,868.247,1168.384,865.408,1164.349Z" fill="#1a1a1a"/>
    <path id="Path_720" data-name="Path 720" d="M819.542,1139.8a.75.75,0,0,0-1.061,1.061l35.433,35.433a.75.75,0,0,0,1.061-1.061Z" fill="#1a1a1a"/>
  </g>
</svg>