<?xml version="1.0" ?>
<svg fill="#000000" width="800px" height="800px" viewBox="0 0 750 750" id="Layer_1" xmlns="http://www.w3.org/2000/svg"><path d="M627.32,386.27c-7.07-12.74-14.09-25.6-22.35-37.57-15.8-22.91-27.69-47.54-35.92-74.06-1.79-5.77-4.24-11.38-6.87-16.83-3.71-7.67-10.04-11.81-18.68-10.72-18.44,2.33-36.87,4.77-55.2,7.78-8.26,1.36-14.71,6.48-19.75,13.23-17.22,23.06-34.75,45.89-51.57,69.23-7.8,10.82-14.34,22.55-21.27,33.98-3.91,6.44-3.57,13.19-.1,19.71,4.14,7.79,11.96,9.25,17.84,2.68,5.65-6.31,10.36-13.48,15.28-20.41,13.6-19.16,27.05-38.43,40.68-57.57,1.72-2.42,4.14-4.35,7.72-8.03,0,4.62,.29,7.01-.04,9.3-6.23,42.48-12.69,84.91-24.87,126.23-1.93,6.54-3.4,13.44-3.58,20.22-.33,12.43,6.39,19.48,18.7,21.23,4.72,.67,9.44,1.34,14.18,2.01,.34,3.05,.77,5.04,.76,7.02-.17,42.97-.4,85.95-.55,128.92-.01,4.03-.09,8.18,.78,12.08,1.24,5.57,4.91,9.71,10.87,9.79,5.39,.07,9.22-3.51,10.37-8.7,1.3-5.88,2.24-11.94,2.37-17.95,.89-39.71,1.49-79.43,2.26-119.14,.08-3.9,.61-7.79,.96-12.13h21.94c.64,2.28,1.21,3.41,1.24,4.55,1.07,49.03,2.09,98.07,3.13,147.1,.08,3.64-.15,7.37,.55,10.9,1.22,6.14,6.49,10.63,11.69,10.58,6.52-.07,9.41-4.72,10.62-9.95,1.27-5.47,1.68-11.25,1.63-16.89-.42-45.79-1.05-91.58-1.54-137.37-.03-2.64,.58-5.29,.91-8.15,7.32,0,13.8,.09,20.26-.02,12.43-.22,18.95-5.45,20.21-17.88,.76-7.55,.54-15.51-.96-22.94-5.27-26.19-11.29-52.23-17.02-78.33-1.01-4.6-1.99-9.22-2.99-13.82,4.07,2.57,6.3,5.83,7.97,9.35,7.63,16.1,15.17,32.25,22.62,48.44,7.84,17.02,13.33,18.09,25.55,4.81v-12.17c-2.57-6.2-4.59-12.71-7.83-18.54Zm-151.58,70.54c.73-4.38,1.16-7.49,1.78-10.56,9.1-44.37,18.44-88.69,27.16-133.13,1.83-9.35,1.41-19.14,2.06-29.35,6.69-1.02,12.57-1.92,19.93-3.04,5.52,17.55,11.9,34.51,16.13,51.99,6.56,27.11,11.22,54.68,17.56,81.86,3.56,15.25,8.88,30.09,14,47.1-33.69-.61-65.94,2.02-98.62-4.88Z"/><path d="M497.8,235.3c7.7,3.27,16.16,5.07,24.44,6.61,43.6,8.1,79.11-23.43,78.45-66.76-.08-33.42-19.85-63.38-50.45-76.26-5.58-2.35-11.4-4.1-17.01-6.38-8.8-3.57-17.41-2.44-26,.59-10.17,3.6-18.5,9.93-25.61,17.86-12.73,14.2-20.72,30.77-24.01,49.54-5.73,32.69,9.7,61.84,40.19,74.8Zm-11.54-78.26c4.78-11.03,12.16-19.92,22.23-26.54,4.62-3.04,9.03-4.19,14.67-1.64,9.17,4.14,18.9,7.02,28.19,10.9,12.38,5.18,21.72,13.79,27.4,26.12,9.29,20.17-2.71,43.21-24.68,47.19-3.56,.64-7.22,.74-8.44,.86-17.66-.34-31.94-4.36-45.04-12.06-19.21-11.29-23.25-24.27-14.34-44.82Z"/><path d="M372.71,368.03c-3.87-4.69-7.87-9.28-11.82-13.9-17.4-20.32-34.75-40.68-52.23-60.93-7.42-8.59-15.12-16.92-22.69-25.38-7.47-8.35-16.39-12.74-27.97-11.36-6.42,.77-13,.13-19.44,.73-12.1,1.13-24.18,2.36-34.54,9.98-14.37,10.57-29.3,20.4-43.39,31.31-12.8,9.91-25.02,20.6-37.05,31.45-3.42,3.09-6.08,7.63-7.67,12.01-2.81,7.75,.37,17.86,5.9,20.71,7.22,3.73,12.13-.92,17.28-5.09,16.07-13.01,32.23-25.91,48.45-38.74,3.03-2.4,6.48-4.28,10.99-7.21,.42,4.66,.9,7.71,.93,10.77,.71,76.22,1.36,152.43,2.03,228.65,.19,21.08,.24,42.17,.68,63.25,.2,9.72,.99,19.44,1.9,29.12,.45,4.74,2.87,8.52,8.19,9.13,4.53,.52,8.97-3.2,9.87-8.85,.63-3.96,.33-8.08,.24-12.13-.73-32-2.47-64.01-2.04-96,.56-40.92,3.17-81.81,4.31-122.73,1.11-39.66,1.47-79.35,2.17-119.68,7.41-3.82,15.18-3.92,24.15-2.2,.27,4.92,.73,9.7,.76,14.49,.51,63.66,.94,127.31,1.45,190.97,.28,34.85,.79,69.71,1,104.56,.06,10.53-.64,21.07-.78,31.61-.04,3.21,.37,6.47,1,9.62,.95,4.75,3.5,8.41,8.8,8.58,5.92,.2,8.9-3.76,9.8-8.93,.75-4.35,.54-8.88,.57-13.33,.23-42.57,.04-85.14,.71-127.71,.98-62.01,2.58-124,3.89-186.01,.08-3.52,0-7.05,0-10.57,.95-.35,1.9-.71,2.85-1.06,3.27,2.9,6.77,5.58,9.78,8.72,21.59,22.54,43.09,45.17,64.6,67.78,2.23,2.35,4.13,5.07,6.57,7.15,5.14,4.38,9.93,3.34,12.6-2.82,2.41-5.55,2.2-11.11-1.83-16.01Z"/><path d="M218.53,237.25c29.67,13.08,53.04,3.79,70.04-15.52,21.55-24.47,23.29-52.7,11.24-81.69-12.33-29.69-36.67-41.63-68.32-43.03-6.33,2.27-13.53,3.33-18.8,7.08-8.13,5.78-15.79,12.7-22.18,20.37-36.09,43.31-11.91,95.2,28.01,112.8Zm8.4-102.58c19.87-9.17,36.75-10.24,52.34,8.62,5.91,7.15,8.61,15.5,8.52,24.77-.19,27.5-28.56,48.25-54.99,40.23-18.28-5.55-33.35-20.33-33.17-34.87,.23-18.6,11.94-31.66,27.3-38.75Z"/></svg>