<?xml version="1.0" ?>
<svg fill="#000000" width="800px" height="800px" viewBox="0 0 750 750" id="Layer_1" xmlns="http://www.w3.org/2000/svg"><path d="M562.37,168.1c-2.36-20.66-2.51-44.94-19.13-60.36-8.34-6.12-16.71-14.42-27.71-13.23-19.12,2.44-17.99,34.78-15.42,61.36-6.37,.1-12.85,.85-19.03,.72-12.59,.5-25.18,.95-37.77,1.33-29.25,.92-58.53,.44-87.72-1.66-19.87-3.45-32.43,1.66-36.87,22.58-3.9,20.42-2.02,41.41-1.87,62.06,1.26,38.78-.38,77.56,.36,116.33,.05,1.84,.29,3.51,.67,5.01-1.08,.14-2.17,.3-3.27,.48-40.64,4.27-83.53,20.09-104.44,57.54-9.87,15.25-17.18,33.37-15.47,51.82,.12,.95,.27,1.96,.46,3-.62,.39-1.21,.84-1.78,1.37-7.6,7.21-8.43,19.33-3,28.1,6.54,10.42,20.98,8.48,31.68,9.85,48.04,2.25,96.09-2.07,144.15-1.28,17.56,.02,35.13-.16,52.7-.19,9.46-.02,14.28-10.66,14.28-18.79,0-2.58-.49-5.42-1.46-8.1,.44-2.69,.25-5.61-.85-8.5-5.78-17.17-12.75-33.96-21.39-49.89-16.15-30.62-37.17-59.51-69.88-65.11,.42-1.58,.68-3.35,.72-5.32-.95-54.78-5.18-110.29,4.83-164.51,52.89,4.3,106.18,7.37,159.15,2.78,3.84,29.01,9.18,83.1,32.96,87.94,33.09,1.61,24.94-92.1,25.13-115.36Zm-155.84,307.23c-51.71,.03-103.41,1.89-155.09-.32-8.41-.26-16.81-.52-25.22-.84-.21-2.74-.67-5.42-1.24-7.88,9.18-36.83,42.96-59.54,79.23-64.45,17.15-2.29,35.79-5.13,51.88,2.92,25.71,15.24,39.96,43.04,50.45,70.56Zm133.71-240.84c-7.38-28.11-9.77-57.21-10.31-86.18,11.81,26.11,12.29,57.78,10.31,86.18Z"/><path d="M245.82,574.95c.68-14.69-15.49-27.54-25.65-12.62-7.6,14.72-2.79,32.64-2.44,48.52,.72,8.55,7.75,18.68,17.18,16.74,21-6.35,9.58-36.53,10.91-52.64Z"/><path d="M277.97,532.03c-3.69-2.05-8.37-2.51-12.03,0-10.73,6.85-8.7,20.83-9.01,31.83-.05,23.92-.41,47.84-.86,71.76,.63,26.66,29.93,26.61,30.64,0,.23-23.92,1.1-47.85,.83-71.76-.71-10.85,1.16-25.24-9.56-31.83Z"/><path d="M334.33,570.41c-5.92-21.93-28.51-15.09-28.48,5.52-.21,10.24,1.18,20.46,2.35,30.61,4.38,26.97,32.44,18.64,29.73-5.84-1.44-10.07-1.5-20.35-3.6-30.29Z"/><path d="M370.53,526.95c-7.83-3.33-14.99,3.57-17.42,10.43-3.35,13.79-.96,28.51-1.71,42.61-.05,16.24-.8,32.49-1.43,48.71-1.13,15.25,16.42,28.86,26.91,13.23,2.64-3.97,3.58-8.54,3.76-13.23,.91-24.05,1.97-48.13,1.28-72.2-.35-10.43-.02-24.72-11.38-29.55Z"/></svg>