<?xml version="1.0" ?>
<svg fill="#000000" width="800px" height="800px" viewBox="0 0 750 750" id="Layer_1" xmlns="http://www.w3.org/2000/svg"><path d="M407.09,203.39c-2.61,47.8,.94,95.23,8.73,142.4,1.24,7.53,1.21,15.29,1.4,22.95,.27,10.87-2.57,21.07-9.73,29.26-12.19,13.96-23.83,28.73-37.79,40.74-28.96,24.9-55.24,51.97-78.35,82.38-8.48,11.16-18.71,21.24-29.29,30.52-19.15,16.8-42.32,21.25-66.95,17.63-18.47-2.72-33.47-12.44-43.72-27.91-22.33-33.7-28.08-69.39-8.94-106.51,14.22-27.58,33.22-51.59,57.93-70.72,10.22-7.91,20.55-15.71,31.03-23.27,5.88-4.24,9.44-9.58,11.05-16.67,8.68-38.18,18.3-76.27,21.18-115.4,1.84-24.9,.89-50.02,.75-75.04-.02-3.76-2.62-7.44-3.67-11.26-1.16-4.2-2.85-8.57-2.63-12.77,.46-8.75,5.99-14.04,14.84-14.47,35.5-1.71,71.01-3.36,106.53-4.61,14.18-.5,19.73,3.65,23.62,17.45,2.17,7.7,3.66,15.83,3.82,23.8,.49,23.82,.18,47.66,.18,71.5Zm-119.03-4.33c0,5.96-.03,10.72,0,15.47,.3,42.72-5.66,84.4-19.61,124.93-4.69,13.62-12.46,24.08-24.56,31.82-17,10.87-33.96,21.85-50.51,33.39-18.13,12.65-32.6,28.43-42.16,48.89-11.01,23.56,5.97,64.05,36.33,71.31,17.81,4.25,34.47,1.06,50.62-6.23,13.81-6.23,25.33-15.86,35.72-26.68,17.07-17.76,33.76-35.88,50.55-53.91,1.29-1.38,2.05-3.26,2.96-4.73-23.6-34.71-22.8-71.18-8.99-108.08,8.96-23.94,26.69-38.91,52.46-43.4,5.5-.96,10.93-2.26,17.32-3.59,1.46-26.29-.78-52.12-2.98-78.45-32.47-4.43-63.74-4.89-97.14-.74Zm100.13,115.74c-26.19,1.22-42.36,11.47-49.01,32.84-6.82,21.91-10.03,44.02,7.2,63.26,1.96-.6,2.99-.59,3.42-1.09,12.7-14.61,25.4-29.23,37.91-44,1.46-1.72,2.65-4.38,2.57-6.56-.49-14.83-1.36-29.65-2.1-44.45Zm-102.59-152.62h98.37c-.85-12.45-1.69-24.6-2.5-36.36-15.85-2.63-90.58,2.84-99.92,7.13,1.34,9.66,2.7,19.49,4.04,29.23Z"/><path d="M608.96,292.35c-2.61,47.8,.94,95.23,8.73,142.4,1.24,7.53,1.21,15.29,1.4,22.95,.27,10.87-2.57,21.07-9.73,29.26-12.19,13.96-23.83,28.73-37.79,40.74-28.96,24.9-55.24,51.97-78.35,82.38-8.48,11.16-18.71,21.24-29.29,30.52-19.15,16.8-42.32,21.25-66.95,17.63-18.47-2.72-33.47-12.44-43.72-27.91-22.33-33.7-28.08-69.39-8.94-106.51,14.22-27.58,33.22-51.59,57.93-70.72,10.22-7.91,20.55-15.71,31.03-23.27,5.88-4.24,9.44-9.58,11.05-16.67,8.68-38.18,18.3-76.27,21.18-115.4,1.84-24.9,.89-50.02,.75-75.04-.02-3.76-2.62-7.44-3.67-11.26-1.16-4.2-2.85-8.57-2.63-12.77,.46-8.75,5.99-14.04,14.84-14.47,35.5-1.71,71.01-3.36,106.53-4.61,14.18-.5,19.73,3.65,23.62,17.45,2.17,7.7,3.66,15.83,3.82,23.8,.49,23.82,.18,47.66,.18,71.5Zm-119.03-4.33c0,5.96-.03,10.72,0,15.47,.3,42.72-5.66,84.4-19.61,124.93-4.69,13.62-12.46,24.08-24.56,31.82-17,10.87-33.96,21.85-50.51,33.39-18.13,12.65-32.6,28.43-42.16,48.89-11.01,23.56,5.97,64.05,36.33,71.31,17.81,4.25,34.47,1.06,50.62-6.23,13.81-6.23,25.33-15.86,35.72-26.68,17.07-17.76,33.76-35.88,50.55-53.91,1.29-1.38,2.05-3.26,2.96-4.73-23.6-34.71-22.8-71.18-8.99-108.08,8.96-23.94,26.69-38.91,52.46-43.4,5.5-.96,10.93-2.26,17.32-3.59,1.46-26.29-.78-52.12-2.98-78.45-32.47-4.43-63.74-4.89-97.14-.74Zm100.13,115.74c-26.19,1.22-42.36,11.47-49.01,32.84-6.82,21.91-10.03,44.02,7.2,63.26,1.96-.6,2.99-.59,3.42-1.09,12.7-14.61,25.4-29.23,37.91-44,1.46-1.72,2.65-4.38,2.57-6.56-.49-14.83-1.36-29.65-2.1-44.45Zm-102.59-152.62h98.37c-.85-12.45-1.69-24.6-2.5-36.36-15.85-2.63-90.58,2.84-99.92,7.13,1.34,9.66,2.7,19.49,4.04,29.23Z"/></svg>