<?xml version="1.0" ?>
<svg fill="#000000" width="800px" height="800px" viewBox="0 0 750 750" id="Layer_1" xmlns="http://www.w3.org/2000/svg"><path d="M388.06,496.31c2.56-.78,5.32-1.2,7.65-2.42,6.98-3.64,13.65-7.89,20.72-11.35,10.02-4.9,16.76-1.86,20.39,8.61,3.72,10.75,.74,19.92-8.59,26.28-2.49,1.69-5.06,3.25-6.93,7.22,3.59-1.21,7.15-2.52,10.78-3.6,7.57-2.25,12.72-.23,16.67,6.37,6.78,11.33,2.65,25.44-9.48,30.89-9.96,4.48-20.23,8.29-30.33,12.46-3.9,1.61-7.74,3.37-13.21,5.75,6.85,8.51,12.67,16,18.77,23.24,7.06,8.38,7.78,17.44,2.94,26.87-4.68,9.12-13.12,10.68-20.32,3.2-6.96-7.23-12.82-15.51-19.2-23.29-1.64-2-3.42-3.89-6.21-7.04-4.14,3.62-8.04,6.83-11.72,10.28-5.76,5.38-11.15,11.17-17.1,16.33-8.75,7.59-17.38,5.5-21.81-5.13-3.93-9.42-2.33-18.01,4.88-25.36,3.37-3.44,6.84-6.79,10.42-10.01,3.54-3.18,7.27-6.14,12.65-10.64-7.46-4.55-12.71-8.16-18.32-11.08-6.97-3.63-14.41-6.37-21.35-10.06-9.6-5.11-13.48-15.45-10.23-25.69,3.27-10.3,10.11-13.76,20.33-10.06,3.69,1.33,7.2,3.17,10.81,4.74,3.14,1.36,6.3,2.68,10.14,2.97-6.25-6.78-14.17-11.3-21.84-16.06-9.6-5.96-11.89-14.73-9.94-24.99,2.2-11.59,11.04-15.53,21.61-9.98,3.34,1.76,6.64,3.59,11.29,3.86-1.82-1.92-3.53-3.98-5.49-5.75-6.16-5.58-12.88-10.62-18.51-16.68-7.34-7.9-8.02-18.17-2.93-26.71,4.86-8.16,12.24-9.57,19.75-3.5,5.79,4.67,11.25,9.75,17.01,14.45,1.83,1.5,4.18,2.36,8.74,4.85-3.07-18.21-4.64-34.23-8.57-49.64-17.14-67.1-23.63-135.25-21.21-204.31,.44-12.61,2.24-25.27,4.68-37.66,1.31-6.68,4.74-13.15,8.21-19.15,4.7-8.14,11.52-15.04,20.7-17.26,8.24-1.99,17.1-1.97,25.66-1.73,2.91,.08,6.07,3.16,8.52,5.5,8.67,8.28,14.94,18.18,19.33,29.37,12.07,30.78,16.07,62.42,11.93,95.32-3.39,26.91-5.95,53.93-8.22,80.95-1.84,21.96-7.01,43.07-13.31,64.09-5.39,17.94-9.65,36.23-15.06,56.87,4.94-2.65,8.5-4.42,11.92-6.43,5.65-3.33,11.1-7.04,16.84-10.21,8.48-4.68,15.03-2.58,19.47,5.85,5.63,10.69,2.47,22.62-8.44,29.55-12.56,7.98-25.42,15.48-38.15,23.19-2.48,1.51-4.93,3.07-7.4,4.61,.35,.7,.7,1.4,1.05,2.11Zm-12.4-344.91c-12.04,4.73-14.52,14.04-15.45,23.78-1.24,13.05-1.83,26.17-2.48,39.27-2.6,52.28,4.82,103.85,11.16,155.49,1.37,11.17,3.35,22.26,5.05,33.39,4.31-11.82,6.66-23.65,8.16-35.59,5.77-45.95,10.74-91.95,20.39-137.4,6.43-30.3-4.11-56.71-26.84-78.93Z"/></svg>