<?xml version="1.0" ?>
<svg fill="#000000" width="800px" height="800px" viewBox="0 0 750 750" id="Layer_1" xmlns="http://www.w3.org/2000/svg"><path d="M370.97,209.85c1.15-11.15,2.68-21.06,3.1-31.01,1.92-45.47,3.52-90.96,5.26-136.44,.17-4.37,.03-8.83,.93-13.06,1.29-6.01,7.05-10.97,11.88-10.52,5.86,.53,9.62,4.19,11.04,9.73,.96,3.76,1.41,7.73,1.46,11.62,.74,51.67-.27,103.3-4.1,154.85-.29,3.86-.04,7.76-.04,13.1,9.94,2.3,19.66,4.21,29.2,6.82,18.92,5.18,38.04,9.92,56.5,16.44,13.99,4.94,21.01,16.5,21.68,31.54,.37,8.29-1.56,15.95-8.21,21.21-4.81,3.79-5.44,8.33-5.59,13.79-1.41,50.75-3.47,101.5-4.3,152.26-.37,22.71,1.81,45.46,2.52,68.2,.86,27.54,3.07,55.17,1.66,82.6-2.19,42.32-18.22,80.69-39.22,117.1-6.11,10.59-16.25,12.58-27.03,12.82-12.69,.29-25.44,.65-38.09-.11-33.62-2.01-67.22-4.51-100.8-7.07-5.17-.39-10.39-1.68-15.32-3.33-15.84-5.28-23.33-14.28-22.98-31.06,.55-26.67,1.57-53.4,4.1-79.94,4.6-48.12,3.49-96.15,.51-144.25-1.52-24.46-2.38-48.96-3.83-73.42-1.32-22.26-3.15-44.49-4.55-66.74-.69-10.91-1.02-21.85-1.31-32.79-.3-11.7,.69-23.21-2.32-35.04-3.87-15.19,3.01-25.89,17.94-32.24,25.78-10.97,53.1-14.07,80.77-14.98,9.16-.3,18.33-.05,29.13-.05Zm-96.77,81.6c0,3.77-.2,8.04,.04,12.29,.79,13.97,1.94,27.92,2.58,41.9,3.03,65.54,5.37,131.14,.85,196.66-2.87,41.63-.59,83.04,1.53,124.52,.15,2.96,1.22,5.86,1.87,8.85,2.09,.66,3.69,1.38,5.36,1.66,26.26,4.45,52.45,9.37,78.82,13.06,18.13,2.54,36.48,3.86,54.77,4.74,11.21,.54,11.68-.53,14.93-10.64,16.33-50.8,32.36-101.76,35.47-155.48,1.84-31.82,3.12-63.78,2.32-95.62-1.02-40.61-4.39-81.17-6.77-121.75-.3-5.11-.75-10.21-1.11-15.08-63.66-1.71-126.05-3.39-190.67-5.12Zm94.09-41.81c-26.5-2.8-51.94-1.31-77.19,5.53,24.56,11.26,50.13,14.21,77.19,11.73v-17.26Zm29.01,18.06c13.79-1.54,25.4-2.84,37.02-4.14,0-.94-.01-1.89-.02-2.83-11.42-4-23.01-7.21-36.35-7.69-.22,4.92-.38,8.59-.64,14.67Z"/></svg>