<?xml version="1.0" ?>
<svg fill="#000000" width="800px" height="800px" viewBox="0 0 750 750" id="Layer_1" xmlns="http://www.w3.org/2000/svg"><path d="M171.56,435.34c6.15-9.63,12.5-19.52,18.8-29.45,4.54-7.17,9.44-11.04,19.38-8.92,7.67,1.64,16.31-2.01,24.55-2.21,28.43-.71,56.88-1.1,85.32-1.27,14.01-.08,28.02,.46,42.02,.99,46.8,1.76,93.61,3.55,140.4,5.54,11.79,.5,23.54,1.8,35.31,2.76,11.14,.91,18.6,6.69,22.5,17.12,2.61,6.96,5.41,13.85,7.75,20.9,2.49,7.5,8.37,6.32,14.05,6.08,6.09-.25,9.63-2.66,10.12-9.4,.41-5.61,1.66-11.26,3.3-16.65,1.67-5.49,5.99-8.99,11.77-8.8,6.32,.21,11.25,4.28,12.06,10.3,2.43,18.09,1.37,36.12-8.69,51.91-2.87,4.51-9.5,7.61-15.03,9.22-7.43,2.17-15.47,2.27-23.95,3.35-3.2,10.59-6.17,21.47-9.83,32.11-2.12,6.16-4.76,12.3-8.21,17.79-5.16,8.2-12.7,11.23-22.9,12.48-31.45,3.85-62.52-2.56-93.79-1.5-31.07,1.06-62.15,2.27-93.24,2.63-31.53,.37-63.07-.35-94.61-.31-10.25,.01-21.02-1.89-29.19,7.77-1.53,1.8-7.87,1.53-10.68-.07-22.66-12.98-37.56-32.19-42.82-57.93-2.17-10.61-2.34-21.63-3.55-33.85-16.89-5.86-22.44-20.18-23.91-37.5-2.66-31.37-6.92-62.64-8.34-94.06-.82-18.17,2.46-36.54,4.18-54.8,.36-3.86,1.81-7.65,3-11.39,6.11-19.22,18.75-29.9,39.45-30.53,19.69-.6,39.36-1.77,59.05-2.5,22.31-.83,44.62-1.4,66.93-2.19,7.12-.25,9.2-3.89,5.91-10.11-1.01-1.91-2.73-3.46-3.64-5.41-4.62-9.9-.45-18.71,10.53-20.16,15.16-2,30.47-2.96,45.74-4.17,10.91-.87,21.84-1.62,32.77-2.02,5.64-.21,11.44-.23,16.93,.87,14.17,2.85,19.87,9.07,19.72,23.4-.24,22.72-1.39,45.44-2.61,68.13-.25,4.66-2,9.46-4,13.76-3.99,8.61-10.72,13.88-20.67,13.39-20.54-1.02-41.16-1.43-61.56-3.72-16.43-1.84-28.81-10.32-31.63-28.29-.85-5.38-3.94-7.44-9.05-7.32-1.75,.04-3.5-.03-5.26,0-36.34,.61-72.67,1.13-109.01,1.86-22.79,.46-24.22,1.1-28.68,23.4-8.41,42.04-9.24,84.26-.69,126.48,1.53,7.54,4.15,13.47,13.98,12.28Zm327.93,88.67c-.82-17.47-2.57-33.14-2-48.73,.59-15.99,3.44-31.9,5.34-48.12-.73-.25-1.95-1.05-3.14-1.02-22.72,.67-45.45,1.3-68.16,2.35-2.59,.12-5.92,2.07-7.47,4.22-12.85,17.85-19.19,38.25-20.6,59.89-.79,12.21,13.35,25.16,25.77,25.97,8.72,.56,17.42,1.46,26.13,2.13,14.74,1.14,29.48,2.22,44.12,3.31Zm-110.76-93.73c-25.92,0-49.44-.24-72.94,.29-3.04,.07-6.98,3.52-8.82,6.46-6.71,10.72-13.28,21.6-18.84,32.94-9.28,18.95,5.56,43.52,26.86,44.6,17.01,.86,34.07,.87,51.11,1.11,3.34,.05,6.68-.57,11.31-1-7.78-29.4,1.77-55.84,11.33-84.41Zm-127.88,80.1c-12.05-27.98-3.23-52.99,12.41-79-6.78,0-10.95-.2-15.1,.04-9.59,.56-19.42,3.03-28.7,1.65-19.01-2.82-27.01,8.09-32.37,22.96-2.49,6.91-4.28,14.29-4.92,21.59-.9,10.2,1.93,19.85,7.61,28.57,3.42,5.26,7.73,7.38,14.25,6.95,13.48-.9,27.01-.91,40.52-1.38,1.64-.06,3.25-.69,6.3-1.38Zm77.78-287.91c-.78,12.09-1.72,23.34-2.15,34.6-.26,6.82,2.41,11.77,10.21,12.56,14.72,1.49,29.41,3.33,44.14,4.73,3.69,.35,7.48-.45,11.33-.73,3.22-18.67,3.59-36.27,3.59-54.22-23.68-3.66-45,.28-67.12,3.07Zm187.57,261.57c-1.4,10.64-3.27,19.84,6.56,27.51,5.71-8.11,8.75-16.14,8.44-26.42-5.17-.38-9.72-.71-14.99-1.09Zm7.08-38.95c3.14,2.07,6.07,3.18,8.77-.04,.6-.72-.12-3.84-1.02-4.3-3.82-1.95-6.03,.2-7.75,4.34Z"/></svg>