<?xml version="1.0" encoding="utf-8"?>

<svg fill="#000000" width="800px" height="800px" viewBox="0 0 32 32" version="1.1" xmlns="http://www.w3.org/2000/svg">
<title>alt-reply</title>
<path d="M0 26.016v-7.52l4 3.008v4.512q0 0.832 0.576 1.408t1.44 0.576h20q0.8 0 1.408-0.576t0.576-1.408v-20q0-0.832-0.576-1.408t-1.408-0.608h-8q0-2.144-1.088-4h9.088q2.464 0 4.224 1.76t1.76 4.256v20q0 2.496-1.76 4.224t-4.224 1.76h-20q-2.496 0-4.256-1.76t-1.76-4.224zM0 9.984q0-0.992 0.8-1.568l8-6.016q0.544-0.416 1.216-0.416 0.48 0 0.864 0.224 0.512 0.256 0.832 0.736t0.288 1.056v1.984q2.848 0 5.44 1.12t4.48 2.976 2.976 4.48 1.12 5.44q0 2.080-0.608 4-1.312-4.384-4.992-7.2t-8.416-2.816v2.016q0 0.576-0.288 1.056t-0.832 0.736q-0.416 0.224-0.864 0.224-0.672 0-1.216-0.416l-8-6.016q-0.8-0.576-0.8-1.6z"></path>
</svg>