<?xml version="1.0" encoding="utf-8"?>

<svg fill="#000000" width="800px" height="800px" viewBox="0 0 32 32" version="1.1" xmlns="http://www.w3.org/2000/svg">
<title>alt-cassette</title>
<path d="M0 16q0 2.944 2.080 4.992t4.928 2.016h17.984q2.912 0 4.96-2.048t2.048-4.96-2.048-4.928-4.96-2.048q-2.88 0-4.928 2.048t-2.048 4.928q0 1.568 0.704 3.008h-5.408q0.704-1.44 0.704-3.008 0-2.88-2.048-4.928t-4.96-2.048-4.96 2.048-2.048 4.928zM4 16q0-1.248 0.864-2.112t2.144-0.864 2.112 0.864 0.896 2.112-0.896 2.144-2.112 0.864-2.144-0.864-0.864-2.144zM22.016 16q0-1.248 0.864-2.112t2.112-0.864 2.144 0.864 0.864 2.112-0.864 2.144-2.144 0.864-2.112-0.864-0.864-2.144z"></path>
</svg>