<?xml version="1.0" encoding="utf-8"?>

<svg fill="#000000" width="800px" height="800px" viewBox="0 0 32 32" version="1.1" xmlns="http://www.w3.org/2000/svg">
<title>alt-minus-eye</title>
<path d="M0 16q0.064 0.16 0.16 0.448t0.48 1.056 0.832 1.632 1.248 1.888 1.664 1.984 2.144 1.888 2.624 1.6 3.136 1.088 3.712 0.416 3.712-0.416 3.168-1.088 2.592-1.6 2.144-1.888 1.664-1.984 1.248-1.888 0.832-1.6 0.48-1.12l0.16-0.416q-0.608-1.792-2.016-4h-7.104q1.12 1.92 1.12 4 0 3.328-2.336 5.664t-5.664 2.336-5.664-2.336-2.336-5.664q0-2.176 1.056-4t2.944-2.912 4-1.088l0.384 0.064q-0.384-1.056-0.384-2.048 0-0.96 0.352-1.984-0.064 0-0.16 0t-0.192-0.032q-1.92 0-3.712 0.416t-3.168 1.12-2.592 1.6-2.144 1.888-1.664 1.984-1.248 1.888-0.832 1.6-0.48 1.12zM12 16q0 1.664 1.184 2.848t2.816 1.152 2.816-1.152 1.184-2.848-1.184-2.816-2.816-1.184q-0.032 0-0.096 0.032t-0.096 0q0.192 0.576 0.192 0.992 0 1.248-0.864 2.112t-2.144 0.864q-0.384 0-0.96-0.192 0 0.032-0.032 0.096t0 0.096zM20 6.016q0 0.832 0.576 1.408t1.44 0.576h8q0.8 0 1.408-0.576t0.576-1.408-0.576-1.408-1.408-0.608h-8q-0.832 0-1.44 0.608t-0.576 1.408z"></path>
</svg>