<?xml version="1.0" encoding="utf-8"?>

<svg fill="#000000" width="800px" height="800px" viewBox="0 0 32 32" version="1.1" xmlns="http://www.w3.org/2000/svg">
<title>alt-stamp</title>
<path d="M0 30.016v-4q0.832 0 1.408-0.576t0.608-1.44-0.608-1.408-1.408-0.576v-4q0.832 0 1.408-0.576t0.608-1.44-0.608-1.408-1.408-0.576v-4q0.832 0 1.408-0.576t0.608-1.44-0.608-1.408-1.408-0.576v-4q0-0.832 0.576-1.408t1.44-0.608h4q0 0.832 0.576 1.44t1.408 0.576 1.408-0.576 0.608-1.44h4q0 0.832 0.576 1.44t1.408 0.576 1.408-0.576 0.608-1.44h4q0 0.832 0.576 1.44t1.408 0.576 1.408-0.576 0.608-1.44h4q0.8 0 1.408 0.608t0.576 1.408v4q-0.832 0-1.408 0.576t-0.576 1.408 0.576 1.44 1.408 0.576v4q-0.832 0-1.408 0.576t-0.576 1.408 0.576 1.44 1.408 0.576v4q-0.832 0-1.408 0.576t-0.576 1.408 0.576 1.44 1.408 0.576v4q0 0.832-0.576 1.408t-1.408 0.576h-4q0-0.8-0.608-1.408t-1.408-0.576-1.408 0.576-0.576 1.408h-4q0-0.8-0.608-1.408t-1.408-0.576-1.408 0.576-0.576 1.408h-4q0-0.8-0.608-1.408t-1.408-0.576-1.408 0.576-0.576 1.408h-4q-0.832 0-1.44-0.576t-0.576-1.408zM4 28h24v-24h-24v24zM6.016 26.016v-20h20v20h-20zM8 24h8v-1.984h-8v1.984zM8 20h14.016v-1.984h-14.016v1.984zM8 16h10.016v-1.984h-10.016v1.984zM8 10.016h6.016v-2.016h-6.016v2.016zM22.016 10.016h1.984v-2.016h-1.984v2.016z"></path>
</svg>