<?xml version="1.0" encoding="utf-8"?>

<svg fill="#000000" width="800px" height="800px" viewBox="0 0 32 32" version="1.1" xmlns="http://www.w3.org/2000/svg">
<title>alt-bulb</title>
<path d="M6.016 10.016q0 3.264 1.984 5.92v0.064q0.128 0.128 0.32 0.384l0.064 0.064q1.632 1.92 1.632 3.552v2.016q0 0.832 0.576 1.408t1.408 0.576h8q0.832 0 1.408-0.576t0.608-1.408v-2.016q0-0.064 0-0.224t0.128-0.608 0.288-0.896 0.608-1.088 0.96-1.184q0.544-0.512 0.736-1.216 1.28-2.208 1.28-4.768 0-2.048-0.8-3.872t-2.144-3.2-3.2-2.144-3.872-0.8q-2.72 0-5.024 1.344t-3.616 3.648-1.344 5.024zM10.016 10.016q0-2.496 1.728-4.256t4.256-1.76 4.256 1.76 1.76 4.256q0 1.92-1.12 3.456t-2.88 2.176v2.368q0 0.832-0.608 1.408t-1.408 0.576-1.408-0.576-0.576-1.408v-2.368q-1.792-0.608-2.912-2.144t-1.088-3.488zM12 27.008q0 0.416 0.288 0.704t0.704 0.288h6.016q0.384 0 0.704-0.288t0.288-0.704-0.288-0.704-0.704-0.288h-6.016q-0.384 0-0.704 0.288t-0.288 0.704zM14.016 31.040q0 0.384 0.288 0.704t0.704 0.288h1.984q0.416 0 0.704-0.288t0.32-0.704-0.32-0.704-0.704-0.32h-1.984q-0.416 0-0.704 0.32t-0.288 0.704z"></path>
</svg>