<?xml version="1.0" encoding="utf-8"?>

<svg fill="#000000" width="800px" height="800px" viewBox="0 0 32 32" version="1.1" xmlns="http://www.w3.org/2000/svg">
<title>alt-paperclip</title>
<path d="M2.016 18.016q0 2.848 1.088 5.44t2.976 4.448 4.48 3.008 5.44 1.088 5.44-1.088 4.48-3.008 2.976-4.448 1.12-5.44v-16q0-0.832-0.608-1.408t-1.408-0.608-1.408 0.608-0.576 1.408v16q0 2.72-1.344 5.024t-3.648 3.616-5.024 1.344q-2.016 0-3.872-0.8t-3.2-2.112-2.144-3.2-0.768-3.872v-8q0-2.496 1.728-4.256t4.256-1.76 4.256 1.76 1.76 4.256v5.984q0 0.832-0.608 1.44t-1.408 0.576-1.408-0.576-0.576-1.44v-5.984q0-0.832-0.608-1.408t-1.408-0.608-1.408 0.608-0.576 1.408v5.984q0 2.496 1.728 4.256t4.256 1.76 4.256-1.76 1.76-4.256v-5.984q0-2.048-0.8-3.872t-2.144-3.2-3.2-2.144-3.872-0.8q-2.72 0-5.024 1.344t-3.616 3.648-1.344 5.024v8z"></path>
</svg>