<?xml version="1.0" encoding="utf-8"?>

<svg fill="#000000" width="800px" height="800px" viewBox="0 0 32 32" version="1.1" xmlns="http://www.w3.org/2000/svg">
<title>alt-wallet</title>
<path d="M0 26.016q0 2.496 1.76 4.224t4.256 1.76h16q1.92 0 3.456-1.088t2.176-2.912h0.352q1.664 0 2.816-1.152t1.184-2.848v-5.984q0-1.664-1.184-2.848t-2.816-1.152v-8q0-2.496-1.76-4.256t-4.224-1.76h-16q-2.496 0-4.256 1.76t-1.76 4.256v20zM4 26.016v-12h10.016v1.984h-2.016q-1.664 0-2.816 1.184t-1.184 2.816v2.016q0 1.664 1.184 2.816t2.816 1.184h2.016v1.984h-8q-0.832 0-1.44-0.576t-0.576-1.408zM4 10.016v-4q0-0.832 0.576-1.408t1.44-0.608h16q0.8 0 1.408 0.608t0.576 1.408v9.984h-1.984v-9.984h-16v4h-2.016zM8 10.016v-2.016h12v8h-1.984v-4q0-0.832-0.608-1.408t-1.408-0.576h-8zM10.016 22.016v-2.016q0-0.832 0.576-1.408t1.408-0.576h14.016q0.8 0 1.408 0.576t0.576 1.408v2.016q0 0.832-0.576 1.408t-1.408 0.576h-14.016q-0.832 0-1.408-0.576t-0.576-1.408zM18.016 28v-1.984h5.984q0 0.832-0.608 1.408t-1.376 0.576h-4z"></path>
</svg>