<?xml version="1.0" encoding="utf-8"?>

<svg fill="#000000" width="800px" height="800px" viewBox="0 0 32 32" version="1.1" xmlns="http://www.w3.org/2000/svg">
<title>bell</title>
<path d="M2.272 25.152q0 1.888 1.856 3.456t4.992 2.496 6.88 0.896 6.88-0.896 4.992-2.496 1.856-3.456q0-2.016-2.304-3.776v-5.376q0-3.488-1.92-6.336t-5.024-4.16q0.096-0.448 0.096-0.928 0-1.888-1.344-3.232t-3.232-1.344-3.232 1.344-1.344 3.232q0 0.32 0.096 0.928-3.104 1.312-5.024 4.16t-1.92 6.336v5.376q-2.304 1.76-2.304 3.776zM6.848 25.152q0-1.248 1.248-2.304t3.328-1.664 4.576-0.608 4.576 0.608 3.328 1.664 1.248 2.304-1.248 2.304-3.328 1.664-4.576 0.608-4.576-0.608-3.328-1.664-1.248-2.304zM11.52 23.744q0.32 1.568 1.568 2.624t2.912 1.056 2.912-1.056 1.568-2.624q-1.952-0.864-4.48-0.864t-4.48 0.864z"></path>
</svg>