<?xml version="1.0" encoding="utf-8"?>

<svg fill="#000000" width="800px" height="800px" viewBox="0 0 32 32" version="1.1" xmlns="http://www.w3.org/2000/svg">
<title>bullhorn</title>
<path d="M0 12q0-0.832 0.576-1.408t1.44-0.576q0-2.496 1.728-4.256t4.256-1.76h6.016l12-4q1.6 0 3.008 1.632t2.176 4.352 0.8 6.016-0.8 6.048-2.176 4.352-3.008 1.6l-12-4h-0.512l-1.504 10.016q0 0.832-0.576 1.408t-1.408 0.576h-4q-0.832 0-1.44-0.576t-0.576-1.408l1.632-10.496q-1.632-0.704-2.624-2.208t-0.992-3.296q-0.832 0-1.44-0.576t-0.576-1.44zM6.016 12h1.984v-4h-1.984v4zM10.016 12h1.984v-4h-1.984v4zM22.016 12q0 2.176 0.512 4.032t1.472 2.912 2.016 1.056 1.984-1.056 1.472-2.912 0.544-4.032-0.544-4-1.472-2.912-1.984-1.088-2.016 1.088-1.472 2.912-0.512 4zM24.192 14.016q-0.352-2.016 0-4h1.824q0.8 0 1.408 0.576t0.576 1.408-0.576 1.44-1.408 0.576h-1.824z"></path>
</svg>