<?xml version="1.0" encoding="utf-8"?>

<svg fill="#000000" width="800px" height="800px" viewBox="0 0 32 32" version="1.1" xmlns="http://www.w3.org/2000/svg">
<title>clipboard</title>
<path d="M2.016 30.016q0 0.832 0.576 1.408t1.408 0.576h24q0.832 0 1.408-0.576t0.608-1.408v-26.016q0-0.832-0.608-1.408t-1.408-0.576h-4v4h2.016v21.984h-20v-21.984h1.984v-4h-4q-0.832 0-1.408 0.576t-0.576 1.408v26.016zM8 26.016h16v-18.016h-1.984q0 0.832-0.608 1.44t-1.408 0.576h-8q-0.832 0-1.408-0.576t-0.576-1.44h-2.016v18.016zM10.016 6.016q0 0.832 0.576 1.408t1.408 0.576h8q0.832 0 1.408-0.576t0.608-1.408v-4h-4v-2.016h-4v2.016h-4v4zM14.016 6.016v-2.016h4v2.016h-4z"></path>
</svg>