<?xml version="1.0" encoding="utf-8"?>

<svg fill="#000000" width="800px" height="800px" viewBox="0 0 32 32" version="1.1" xmlns="http://www.w3.org/2000/svg">
<title>commit</title>
<path d="M0 16q0 0.832 0.576 1.44t1.44 0.576h8.352q0.64 1.792 2.176 2.88t3.456 1.12q1.952 0 3.488-1.12t2.144-2.88h8.384q0.8 0 1.408-0.576t0.576-1.44-0.576-1.408-1.408-0.576h-8.384q-0.608-1.76-2.144-2.88t-3.488-1.12q-1.92 0-3.456 1.12t-2.176 2.88h-8.352q-0.832 0-1.44 0.576t-0.576 1.408zM14.016 16q0-0.832 0.576-1.408t1.408-0.576 1.408 0.576 0.608 1.408-0.608 1.44-1.408 0.576-1.408-0.576-0.576-1.44z"></path>
</svg>