<?xml version="1.0" encoding="utf-8"?>

<svg fill="#000000" width="800px" height="800px" viewBox="0 0 32 32" version="1.1" xmlns="http://www.w3.org/2000/svg">
<title>direction-stamp</title>
<path d="M0 28q0 1.664 1.184 2.848t2.816 1.152 2.816-1.152 1.184-2.848q0 1.664 1.184 2.848t2.816 1.152 2.816-1.152 1.184-2.848q0 1.664 1.184 2.848t2.816 1.152 2.816-1.152 1.184-2.848q0 1.664 1.184 2.848t2.816 1.152 2.816-1.152 1.184-2.848-1.184-2.816-2.816-1.184q1.664 0 2.816-1.152t1.184-2.848-1.184-2.816-2.816-1.184q1.664 0 2.816-1.152t1.184-2.848-1.184-2.816-2.816-1.184q1.664 0 2.816-1.152t1.184-2.848-1.184-2.816-2.816-1.184-2.816 1.184-1.184 2.816q0-1.632-1.184-2.816t-2.816-1.184-2.816 1.184-1.184 2.816q0-1.632-1.184-2.816t-2.816-1.184-2.816 1.184-1.184 2.816q0-1.632-1.184-2.816t-2.816-1.184-2.816 1.184-1.184 2.816 1.184 2.848 2.816 1.152q-1.664 0-2.816 1.184t-1.184 2.816 1.184 2.848 2.816 1.152q-1.664 0-2.816 1.184t-1.184 2.816 1.184 2.848 2.816 1.152q-1.664 0-2.816 1.184t-1.184 2.816zM6.016 26.016v-20h20v20h-20zM8 16q0 3.328 2.336 5.664t5.664 2.336h0.992q0.416 0 0.704-0.288t0.32-0.704-0.32-0.704-0.704-0.288h-0.992q-2.496 0-4.256-1.76t-1.728-4.256 1.728-4.224 4.256-1.76 4.256 1.76 1.76 4.224v3.008q0 0.416-0.32 0.704t-0.704 0.288-0.704-0.288-0.288-0.704v-3.008q0-1.632-1.184-2.816t-2.816-1.184-2.816 1.184-1.184 2.816 1.184 2.848 2.816 1.152q1.056 0 2.048-0.576 0.16 1.088 0.992 1.856t1.952 0.736q1.248 0 2.144-0.864t0.864-2.144v-3.008q0-3.296-2.336-5.632t-5.664-2.368-5.664 2.368-2.336 5.632zM14.016 16q0-0.832 0.576-1.408t1.408-0.576 1.408 0.576 0.608 1.408-0.608 1.44-1.408 0.576-1.408-0.576-0.576-1.44z"></path>
</svg>