<?xml version="1.0" encoding="utf-8"?>

<svg fill="#000000" width="800px" height="800px" viewBox="0 0 32 32" version="1.1" xmlns="http://www.w3.org/2000/svg">
<title>elipsis</title>
<path d="M0.384 16q0 1.632 1.12 2.784t2.784 1.12 2.752-1.12 1.152-2.784-1.152-2.752-2.752-1.152-2.784 1.152-1.12 2.752zM12.096 16q0 1.632 1.152 2.784t2.752 1.12 2.752-1.12 1.152-2.784-1.152-2.752-2.752-1.152-2.752 1.152-1.152 2.752zM23.808 16q0 1.632 1.152 2.784t2.752 1.12 2.784-1.12 1.12-2.784-1.12-2.752-2.784-1.152-2.752 1.152-1.152 2.752z"></path>
</svg>