<?xml version="1.0" encoding="utf-8"?>

<svg fill="#000000" width="800px" height="800px" viewBox="0 0 32 32" version="1.1" xmlns="http://www.w3.org/2000/svg">
<title>expand</title>
<path d="M0 26.016v-20q0-2.496 1.76-4.256t4.256-1.76h20q2.464 0 4.224 1.76t1.76 4.256v20q0 2.496-1.76 4.224t-4.224 1.76h-20q-2.496 0-4.256-1.76t-1.76-4.224zM4 26.016q0 0.832 0.576 1.408t1.44 0.576h20q0.8 0 1.408-0.576t0.576-1.408v-20q0-0.832-0.576-1.408t-1.408-0.608h-12v7.168l4.704 4.736 1.536-1.536q0.448-0.48 1.12-0.544t1.216 0.128 0.992 0.704 0.416 1.12v5.632q0 0.864-0.8 1.728t-1.536 0.864h-5.664q-0.608 0-1.12-0.416t-0.704-1.024-0.128-1.28 0.544-1.12l1.344-1.376-4.768-4.768h-7.168v12zM4 8q0 0.832 0.576 1.44t1.44 0.576h1.984q0.832 0 1.408-0.576t0.608-1.44v-1.984q0-0.832-0.608-1.408t-1.408-0.608h-1.984q-0.832 0-1.44 0.608t-0.576 1.408v1.984z"></path>
</svg>