<?xml version="1.0" encoding="utf-8"?>

<svg fill="#000000" width="800px" height="800px" viewBox="0 0 32 32" version="1.1" xmlns="http://www.w3.org/2000/svg">
<title>medium-signal</title>
<path d="M4.352 13.632l2.944 2.912q2.336-2.368 5.536-3.232t6.336 0 5.568 3.232l2.912-2.912q-2.368-2.368-5.472-3.616t-6.176-1.216-6.176 1.216-5.472 3.616zM8.736 17.984l2.912 2.912q1.792-1.792 4.352-1.792t4.352 1.792l2.912-2.912q-1.952-1.952-4.608-2.656t-5.312 0-4.608 2.656zM11.904 25.248q0 1.728 1.184 2.912t2.912 1.216 2.912-1.216 1.184-2.912-1.184-2.88-2.912-1.216-2.912 1.216-1.184 2.88z"></path>
</svg>