<?xml version="1.0" encoding="utf-8"?>

<svg fill="#000000" width="800px" height="800px" viewBox="0 0 32 32" version="1.1" xmlns="http://www.w3.org/2000/svg">
<title>minus-cloud</title>
<path d="M0 16q0 3.328 2.336 5.664t5.664 2.336h2.048q-0.032-0.96-0.032-0.992 0-2.624 1.024-5.056t2.752-4.128 4.16-2.784 5.056-1.024l2.688 0.032q0.32-1.152 0.32-2.048 0-3.296-2.368-5.632t-5.632-2.368q-2.88 0-5.056 1.824t-2.784 4.544q-1.152-0.352-2.176-0.352-3.296 0-5.664 2.336t-2.336 5.664v1.984zM14.016 23.008q0 1.824 0.704 3.488t1.92 2.88 2.88 1.92 3.488 0.704 3.488-0.704 2.88-1.92 1.92-2.88 0.704-3.488-0.704-3.488-1.92-2.88-2.88-1.92-3.488-0.704-3.488 0.704-2.88 1.92-1.92 2.88-0.704 3.488zM18.016 23.008q0-2.080 1.44-3.52t3.552-1.472 3.52 1.472 1.472 3.52-1.472 3.552-3.52 1.44-3.552-1.44-1.44-3.552zM20 24h6.016v-1.984h-6.016v1.984z"></path>
</svg>