<?xml version="1.0" encoding="utf-8"?>

<svg fill="#000000" width="800px" height="800px" viewBox="0 0 32 32" version="1.1" xmlns="http://www.w3.org/2000/svg">
<title>newspaper</title>
<path d="M0 26.016q0 2.496 1.76 4.224t4.256 1.76h20q2.464 0 4.224-1.76t1.76-4.224v-22.016h-4v-1.984h-4v-2.016h-24v26.016zM4 26.016v-22.016h16v24h-13.984q-0.832 0-1.44-0.576t-0.576-1.408zM6.016 26.016h5.984v-2.016h-5.984v2.016zM6.016 22.016h8v-2.016h-8v2.016zM6.016 18.016h5.984v-2.016h-5.984v2.016zM6.016 14.016h12v-8h-12v8zM14.016 18.016h4v-2.016h-4v2.016zM16 22.016h2.016v-2.016h-2.016v2.016zM24 25.024v-21.024h2.016v21.024q0 0.384 0.288 0.704t0.704 0.288 0.704-0.288 0.288-0.704v-19.008h2.016v19.008q0 1.248-0.896 2.112t-2.112 0.864-2.144-0.864-0.864-2.112z"></path>
</svg>