<?xml version="1.0" encoding="utf-8"?>

<svg fill="#000000" width="800px" height="800px" viewBox="0 0 32 32" version="1.1" xmlns="http://www.w3.org/2000/svg">
<title>plus-file</title>
<path d="M4 30.016q0 0.832 0.576 1.408t1.44 0.576h16.992q1.824 0 3.488-0.704t2.88-1.92 1.92-2.88 0.704-3.488q0-2.272-1.088-4.224t-2.912-3.232v-7.552l-8-8h-13.984q-0.832 0-1.44 0.608t-0.576 1.408v28zM8 28v-24h10.016v6.016h5.984v4.096q-0.576-0.128-0.992-0.128-1.824 0-3.488 0.736t-2.88 1.92-1.92 2.848-0.704 3.52q0 2.72 1.504 4.992h-7.52zM18.016 23.008q0-2.080 1.44-3.52t3.552-1.472 3.52 1.472 1.472 3.52-1.472 3.552-3.52 1.44-3.552-1.44-1.44-3.552zM20 24h2.016v2.016h1.984v-2.016h2.016v-1.984h-2.016v-2.016h-1.984v2.016h-2.016v1.984z"></path>
</svg>