<?xml version="1.0" encoding="utf-8"?>

<svg fill="#000000" width="800px" height="800px" viewBox="0 0 32 32" version="1.1" xmlns="http://www.w3.org/2000/svg">
<title>repeat</title>
<path d="M0 21.984v-8q0-2.464 1.76-4.224t4.256-1.76h8v-1.984q0-0.672 0.352-1.152t0.896-0.704 1.12-0.096 1.024 0.512l4 4q0.608 0.64 0.608 1.44t-0.608 1.408l-4 4q-0.448 0.448-1.056 0.544t-1.12-0.128-0.864-0.704-0.352-1.12v-2.016h-8q-0.832 0-1.44 0.608t-0.576 1.408v8q0 0.832 0.576 1.408t1.44 0.576h20q0.8 0 1.408-0.576t0.576-1.408v-8q0-0.832-0.576-1.408t-1.408-0.608h-0.384q0.704-1.984 0-4h0.384q2.464 0 4.224 1.76t1.76 4.224v8q0 2.496-1.76 4.256t-4.224 1.76h-20q-2.496 0-4.256-1.76t-1.76-4.256z"></path>
</svg>