<?xml version="1.0" encoding="utf-8"?>

<svg fill="#000000" width="800px" height="800px" viewBox="0 0 32 32" version="1.1" xmlns="http://www.w3.org/2000/svg">
<title>right-edges</title>
<path d="M0 26.016v-20q0-2.496 1.76-4.256t4.256-1.76h20q2.464 0 4.224 1.76t1.76 4.256v20q0 2.496-1.76 4.224t-4.224 1.76h-20q-2.496 0-4.256-1.76t-1.76-4.224zM4 26.016q0 0.832 0.576 1.408t1.44 0.576h20q0.8 0 1.408-0.576t0.576-1.408v-20q0-0.832-0.576-1.408t-1.408-0.608h-20q-0.832 0-1.44 0.608t-0.576 1.408v20zM8 18.016v-4q0-0.832 0.576-1.408t1.44-0.608h1.984v-5.984h2.016v20h-2.016v-6.016h-1.984q-0.832 0-1.44-0.576t-0.576-1.408zM10.016 18.016h1.984v-4h-1.984v4zM18.016 22.016v-12q0-0.832 0.576-1.408t1.408-0.608h2.016v-1.984h1.984v20h-1.984v-2.016h-2.016q-0.832 0-1.408-0.576t-0.576-1.408zM20 22.016h2.016v-12h-2.016v12z"></path>
</svg>