<?xml version="1.0" encoding="utf-8"?>

<svg fill="#000000" width="800px" height="800px" viewBox="0 0 32 32" version="1.1" xmlns="http://www.w3.org/2000/svg">
<title>section</title>
<path d="M8 16q0 1.632 0.608 3.104t1.728 2.56 2.592 1.728 3.072 0.608q0.832 0 1.408 0.608t0.608 1.408-0.608 1.408-1.408 0.576-1.408-0.576-0.576-1.408h-4q0 2.496 1.728 4.224t4.256 1.76 4.256-1.76 1.76-4.224q0-2.016-1.248-3.616 1.504-1.12 2.368-2.784t0.864-3.616q0-1.6-0.608-3.072t-1.728-2.56-2.592-1.728-3.072-0.64q-0.832 0-1.408-0.576t-0.576-1.408 0.576-1.408 1.408-0.608 1.408 0.608 0.608 1.408h4q0-2.496-1.76-4.256t-4.256-1.76-4.256 1.76-1.728 4.256q0 1.952 1.216 3.616-1.504 1.088-2.368 2.784t-0.864 3.584zM12 16q0-1.632 1.184-2.816t2.816-1.184 2.816 1.184 1.184 2.816-1.184 2.848-2.816 1.152-2.816-1.152-1.184-2.848z"></path>
</svg>