<?xml version="1.0" encoding="utf-8"?>

<svg fill="#000000" width="800px" height="800px" viewBox="0 0 32 32" version="1.1" xmlns="http://www.w3.org/2000/svg">
<title>spinner</title>
<path d="M0 16q0 0.832 0.576 1.44t1.44 0.576h4q0.8 0 1.408-0.576t0.576-1.44-0.576-1.408-1.408-0.576h-4q-0.832 0-1.44 0.576t-0.576 1.408zM4.096 25.888q0 0.832 0.608 1.44t1.408 0.576 1.408-0.576l2.816-2.816q0.608-0.608 0.608-1.408t-0.608-1.44-1.408-0.576-1.408 0.576l-2.816 2.848q-0.608 0.576-0.608 1.376zM4.096 6.112q0 0.832 0.608 1.408l2.816 2.848q0.576 0.576 1.408 0.576t1.408-0.576 0.608-1.44-0.608-1.408l-2.816-2.816q-0.576-0.608-1.408-0.608t-1.408 0.608-0.608 1.408zM14.016 30.016q0 0.832 0.576 1.408t1.408 0.576 1.408-0.576 0.608-1.408v-4q0-0.832-0.608-1.408t-1.408-0.608-1.408 0.608-0.576 1.408v4zM14.016 6.016q0 0.832 0.576 1.408t1.408 0.576 1.408-0.576 0.608-1.408v-4q0-0.832-0.608-1.408t-1.408-0.608-1.408 0.608-0.576 1.408v4zM21.056 23.104q0 0.8 0.608 1.408l2.816 2.816q0.576 0.576 1.408 0.576t1.44-0.576 0.576-1.44-0.576-1.376l-2.848-2.848q-0.576-0.576-1.408-0.576t-1.408 0.576-0.608 1.44zM21.056 8.928q0 0.832 0.608 1.44t1.408 0.576 1.408-0.576l2.848-2.848q0.576-0.576 0.576-1.408t-0.576-1.408-1.44-0.608-1.408 0.608l-2.816 2.816q-0.608 0.576-0.608 1.408zM24 16q0 0.832 0.576 1.44t1.44 0.576h4q0.8 0 1.408-0.576t0.576-1.44-0.576-1.408-1.408-0.576h-4q-0.832 0-1.44 0.576t-0.576 1.408z"></path>
</svg>