<?xml version="1.0" encoding="utf-8"?>

<svg fill="#000000" width="800px" height="800px" viewBox="0 0 32 32" version="1.1" xmlns="http://www.w3.org/2000/svg">
<title>stamp</title>
<path d="M0 30.016q0 0.832 0.576 1.408t1.44 0.576h4q0-0.8 0.576-1.408t1.408-0.576 1.408 0.576 0.608 1.408h4q0-0.8 0.576-1.408t1.408-0.576 1.408 0.576 0.608 1.408h4q0-0.8 0.576-1.408t1.408-0.576 1.408 0.576 0.608 1.408h4q0.8 0 1.408-0.576t0.576-1.408v-4q-0.832 0-1.408-0.576t-0.576-1.44 0.576-1.408 1.408-0.576v-4q-0.832 0-1.408-0.576t-0.576-1.44 0.576-1.408 1.408-0.576v-4q-0.832 0-1.408-0.576t-0.576-1.44 0.576-1.408 1.408-0.576v-4q0-0.832-0.576-1.408t-1.408-0.608h-4q0 0.832-0.608 1.44t-1.408 0.576-1.408-0.576-0.576-1.44h-4q0 0.832-0.608 1.44t-1.408 0.576-1.408-0.576-0.576-1.44h-4q0 0.832-0.608 1.44t-1.408 0.576-1.408-0.576-0.576-1.44h-4q-0.832 0-1.44 0.608t-0.576 1.408v4q0.832 0 1.408 0.576t0.608 1.408-0.608 1.44-1.408 0.576v4q0.832 0 1.408 0.576t0.608 1.408-0.608 1.44-1.408 0.576v4q0.832 0 1.408 0.576t0.608 1.408-0.608 1.44-1.408 0.576v4zM4 28v-24h24v24h-24zM6.016 26.016h20v-20h-20v20zM8 24v-16h16v16h-16z"></path>
</svg>