<?xml version="1.0" encoding="utf-8"?>

<svg fill="#000000" width="800px" height="800px" viewBox="0 0 32 32" version="1.1" xmlns="http://www.w3.org/2000/svg">
<title>strongbox</title>
<path d="M0 26.016q0 2.496 1.76 4.224t4.256 1.76h20q2.464 0 4.224-1.76t1.76-4.224v-20q0-2.496-1.76-4.256t-4.224-1.76h-20q-2.496 0-4.256 1.76t-1.76 4.256v20zM2.016 22.016v-2.016q0-0.832 0.576-1.408t1.408-0.576v-4q-0.832 0-1.408-0.576t-0.576-1.44v-1.984q0-0.832 0.576-1.408t1.408-0.608v-1.984q0-0.832 0.576-1.408t1.44-0.608h20q0.8 0 1.408 0.608t0.576 1.408v20q0 0.832-0.576 1.408t-1.408 0.576h-20q-0.832 0-1.44-0.576t-0.576-1.408v-2.016q-0.832 0-1.408-0.576t-0.576-1.408zM4 21.024q0 0.384 0.288 0.704t0.704 0.288 0.704-0.288 0.32-0.704-0.32-0.704-0.704-0.32-0.704 0.32-0.288 0.704zM4 11.008q0 0.416 0.288 0.704t0.704 0.288 0.704-0.288 0.32-0.704-0.32-0.704-0.704-0.288-0.704 0.288-0.288 0.704zM6.016 24q0 0.832 0.576 1.44t1.408 0.576h16q0.832 0 1.408-0.576t0.608-1.44v-16q0-0.832-0.608-1.408t-1.408-0.576h-16q-0.832 0-1.408 0.576t-0.576 1.408q0.8 0 1.408 0.608t0.576 1.408v1.984q0 0.832-0.576 1.44t-1.408 0.576v4q0.8 0 1.408 0.576t0.576 1.408v2.016q0 0.832-0.576 1.408t-1.408 0.576zM10.016 16q0-2.464 1.728-4.224t4.256-1.76 4.256 1.76 1.76 4.224-1.76 4.256-4.256 1.76-4.256-1.76-1.728-4.256zM12 16q0 1.664 1.184 2.848t2.816 1.152 2.816-1.152 1.184-2.848-1.184-2.816-2.816-1.184-2.816 1.184-1.184 2.816z"></path>
</svg>