<?xml version="1.0" encoding="utf-8"?>

<svg fill="#000000" width="800px" height="800px" viewBox="0 0 32 32" version="1.1" xmlns="http://www.w3.org/2000/svg">
<title>swatches</title>
<path d="M0 20q0 1.952 1.12 3.488t2.88 2.144v-15.616q0-2.496 1.76-4.256t4.256-1.76h15.616q-0.608-1.76-2.144-2.88t-3.488-1.12h-13.984q-2.496 0-4.256 1.76t-1.76 4.256v13.984zM6.016 26.016q0 2.496 1.728 4.224t4.256 1.76h14.016q2.464 0 4.224-1.76t1.76-4.224v-14.016q0-2.464-1.76-4.224t-4.224-1.76h-14.016q-2.496 0-4.256 1.76t-1.728 4.224v14.016zM10.016 26.016v-14.016q0-0.832 0.576-1.408t1.408-0.576h14.016q0.8 0 1.408 0.576t0.576 1.408v8h-5.984q-0.832 0-1.44 0.608t-0.576 1.408v5.984h-8q-0.832 0-1.408-0.576t-0.576-1.408zM24 24h4l-1.984 4z"></path>
</svg>