<?xml version="1.0" encoding="utf-8"?>

<svg fill="#000000" width="800px" height="800px" viewBox="0 0 32 32" version="1.1" xmlns="http://www.w3.org/2000/svg">
<title>tilde</title>
<path d="M0 16q0 0.96 0.672 1.632t1.6 0.672 1.632-0.672 0.672-1.632q0-1.888 1.344-3.232t3.232-1.344 3.232 1.344 1.344 3.232q0 2.496 1.216 4.608t3.328 3.328 4.576 1.216 4.608-1.216 3.328-3.328 1.216-4.608q0-0.928-0.672-1.6t-1.6-0.672-1.632 0.672-0.672 1.6q0 1.888-1.344 3.232t-3.232 1.344-3.232-1.312-1.344-3.264q0-2.464-1.216-4.576t-3.328-3.328-4.576-1.216-4.608 1.216-3.328 3.328-1.216 4.576z"></path>
</svg>