<?xml version="1.0" encoding="utf-8"?>

<svg fill="#000000" width="800px" height="800px" viewBox="0 0 32 32" version="1.1" xmlns="http://www.w3.org/2000/svg">
<title>unlock</title>
<path d="M4 30.016v-14.016q0-0.832 0.576-1.408t1.44-0.576v-4q0-2.72 1.344-5.024t3.616-3.648 5.024-1.344q3.616 0 6.368 2.272t3.424 5.728h-4.16q-0.608-1.76-2.144-2.88t-3.488-1.12q-2.496 0-4.256 1.76t-1.728 4.256v4h16q0.8 0 1.408 0.576t0.576 1.408v14.016q0 0.832-0.576 1.408t-1.408 0.576h-20q-0.832 0-1.44-0.576t-0.576-1.408zM8 28h16v-9.984h-16v9.984z"></path>
</svg>