<?xml version="1.0" encoding="utf-8"?>
<svg width="800px" height="800px" viewBox="-4.5 0 63 63" xmlns="http://www.w3.org/2000/svg">
  <g id="Group_90" data-name="Group 90" transform="translate(-183 -316)">
    <rect id="Rectangle_73" data-name="Rectangle 73" width="44" height="40" transform="translate(192 338)" fill="#e8f7f9" stroke="#333" stroke-linecap="round" stroke-linejoin="round" stroke-width="2"/>
    <path id="Path_126" data-name="Path 126" d="M219,367H184V323.9a3.9,3.9,0,0,1,3.9-3.9h36.2a3.9,3.9,0,0,1,3.9,3.9V358Z" fill="#e8f7f9" stroke="#333" stroke-linecap="round" stroke-linejoin="round" stroke-width="2"/>
    <path id="Path_127" data-name="Path 127" d="M184,332v-8.1a3.9,3.9,0,0,1,3.9-3.9h36.2a3.9,3.9,0,0,1,3.9,3.9V332Z" fill="#ffc2c2" stroke="#333" stroke-linecap="round" stroke-linejoin="round" stroke-width="2"/>
    <line id="Line_133" data-name="Line 133" y2="10" transform="translate(196 316)" fill="#ffffff" stroke="#333" stroke-miterlimit="10" stroke-width="2"/>
    <line id="Line_134" data-name="Line 134" y2="10" transform="translate(216 316)" fill="#ffffff" stroke="#333" stroke-miterlimit="10" stroke-width="2"/>
    <path id="Path_128" data-name="Path 128" d="M219,367v-9h9Z" fill="#e8f7f9" stroke="#333" stroke-linecap="round" stroke-linejoin="round" stroke-width="2"/>
    <path id="Path_129" data-name="Path 129" d="M210,351H200l7-10v14" fill="none" stroke="#333" stroke-linejoin="round" stroke-width="2"/>
    <line id="Line_135" data-name="Line 135" x2="44" transform="translate(184 332)" fill="#e8f7f9" stroke="#333" stroke-linecap="round" stroke-linejoin="round" stroke-width="2"/>
    <line id="Line_136" data-name="Line 136" x2="6" transform="translate(193 326)" fill="#ffffff" stroke="#333" stroke-miterlimit="10" stroke-width="2"/>
    <line id="Line_137" data-name="Line 137" x2="6" transform="translate(213 326)" fill="#ffffff" stroke="#333" stroke-miterlimit="10" stroke-width="2"/>
  </g>
</svg>