<?xml version="1.0" encoding="utf-8"?>
<svg width="800px" height="800px" viewBox="0 -0.32 63.789 63.789" xmlns="http://www.w3.org/2000/svg">
  <g id="Group_104" data-name="Group 104" transform="translate(-598.585 -176.125)">
    <path id="Path_155" data-name="Path 155" d="M655.223,183.276a20.992,20.992,0,0,0-33.659,24.159L600,229v9h9l5-5v-4h5v-5h4l7.4-7.4a21,21,0,0,0,24.824-33.324Zm-8.243,11.9a4,4,0,1,1,0-5.657A4,4,0,0,1,646.98,195.176Z" fill="#fff1b6" stroke="#333" stroke-linecap="round" stroke-linejoin="round" stroke-width="2"/>
    <g id="Group_103" data-name="Group 103">
      <line id="Line_153" data-name="Line 153" y1="28.855" x2="29" transform="translate(599.999 209)" fill="none" stroke="#333" stroke-linecap="round" stroke-linejoin="round" stroke-width="2"/>
      <path id="Path_156" data-name="Path 156" d="M645.669,183.261a15.815,15.815,0,1,0,10.58,14.927A15.792,15.792,0,0,0,645.669,183.261Zm1.311,11.915a4,4,0,1,1,0-5.657A4,4,0,0,1,646.98,195.176Z" fill="#e8f7f9" stroke="#333" stroke-linecap="round" stroke-linejoin="round" stroke-width="2"/>
    </g>
  </g>
</svg>