<?xml version="1.0" encoding="utf-8"?>
<svg width="800px" height="800px" viewBox="0 -10.46 83 83" xmlns="http://www.w3.org/2000/svg">
  <g id="Group_99" data-name="Group 99" transform="translate(-30 -177)">
    <path id="Path_143" data-name="Path 143" d="M99,238V224.935l-28,.128V238Z" fill="none" stroke="#333" stroke-linecap="round" stroke-linejoin="round" stroke-width="2"/>
    <path id="Path_144" data-name="Path 144" d="M91,238V224.935l-28,.128V238Z" fill="none" stroke="#333" stroke-linecap="round" stroke-linejoin="round" stroke-width="2"/>
    <path id="Path_145" data-name="Path 145" d="M91,230v-5.065l-28,.05V230Z" fill="#99ecff" stroke="#333" stroke-linecap="round" stroke-linejoin="round" stroke-width="2"/>
    <path id="Path_146" data-name="Path 146" d="M99,225l5-13.065-28,.128L71,225Z" fill="#99ecff" stroke="#333" stroke-linecap="round" stroke-linejoin="round" stroke-width="2"/>
    <g id="Group_98" data-name="Group 98">
      <path id="Path_147" data-name="Path 147" d="M66.665,197.263a16,16,0,1,0-31.33,0,10.987,10.987,0,0,0,10.628,18.989,5.99,5.99,0,0,0,10.074,0,10.988,10.988,0,0,0,10.628-18.989Z" fill="#cbff94" stroke="#333" stroke-miterlimit="10" stroke-width="2"/>
      <line id="Line_147" data-name="Line 147" y1="50" transform="translate(51 188)" fill="none" stroke="#333" stroke-linejoin="round" stroke-width="2"/>
      <line id="Line_148" data-name="Line 148" x1="10" y1="8" transform="translate(41 201)" fill="none" stroke="#333" stroke-miterlimit="10" stroke-width="2"/>
      <line id="Line_149" data-name="Line 149" y1="7" x2="7" transform="translate(51 194)" fill="none" stroke="#333" stroke-miterlimit="10" stroke-width="2"/>
    </g>
    <line id="Line_150" data-name="Line 150" x2="83" transform="translate(30 238.083)" fill="none" stroke="#333" stroke-miterlimit="10" stroke-width="2"/>
    <circle id="Ellipse_35" data-name="Ellipse 35" cx="6" cy="6" r="6" transform="translate(99 178)" fill="#fff1b6" stroke="#333" stroke-miterlimit="10" stroke-width="2"/>
  </g>
</svg>