<?xml version="1.0" encoding="utf-8"?>
<svg width="800px" height="800px" viewBox="-6.66 0 63.328 63.328" xmlns="http://www.w3.org/2000/svg">
  <g id="Group_66" data-name="Group 66" transform="translate(-186 -599.672)">
    <path id="Path_79" data-name="Path 79" d="M215.508,629.285c-6,4.937-4.911,5.856-6.981,10.381,4.841-1.155,5.531.1,11.536-4.84s10.452-10.411,12.523-14.937C227.745,621.045,221.514,624.348,215.508,629.285Z" fill="#cbff94" stroke="#333" stroke-linecap="round" stroke-linejoin="round" stroke-width="2"/>
    <path id="Path_80" data-name="Path 80" d="M206.492,629.285c6,4.937,4.911,5.856,6.981,10.381-4.841-1.155-5.531.1-11.536-4.84s-10.452-10.411-12.523-14.937C194.255,621.045,200.486,624.348,206.492,629.285Z" fill="#cbff94" stroke="#333" stroke-linecap="round" stroke-linejoin="round" stroke-width="2"/>
    <path id="Path_81" data-name="Path 81" d="M203.026,630.219c3.2,11.391,5.152,10.429,10.19,16.085,1.355-7.452,3.521-7.647.319-19.038s-8.105-20.939-13.144-26.594C199.037,608.124,199.824,618.828,203.026,630.219Z" fill="#cbff94" stroke="#333" stroke-linecap="round" stroke-linejoin="round" stroke-width="2"/>
    <path id="Path_82" data-name="Path 82" d="M210.728,624.682c-3.492,7.937-1.941,8.3-1.723,13.847,4.236-3.586,5.553-2.688,9.045-10.625s5.163-15.623,4.945-21.169C218.759,610.321,214.22,616.746,210.728,624.682Z" fill="#cbff94" stroke="#333" stroke-linecap="round" stroke-linejoin="round" stroke-width="2"/>
    <path id="Path_83" data-name="Path 83" d="M232.517,629H189.483l7.407,33H225.11Z" fill="#ffc2c2" stroke="#333" stroke-linecap="round" stroke-linejoin="round" stroke-width="2"/>
    <line id="Line_88" data-name="Line 88" x1="38" transform="translate(192 637)" fill="#ffffff" stroke="#333" stroke-linecap="round" stroke-linejoin="round" stroke-width="2"/>
    <line id="Line_89" data-name="Line 89" x1="50" transform="translate(186 662)" fill="#ffffff" stroke="#333" stroke-miterlimit="10" stroke-width="2"/>
    <line id="Line_90" data-name="Line 90" x1="5.5" y1="18.792" transform="translate(200.5 601.333)" fill="#ffffff" stroke="#333" stroke-linecap="round" stroke-linejoin="round" stroke-width="2"/>
  </g>
</svg>