<?xml version="1.0" encoding="utf-8"?>
<svg width="800px" height="800px" viewBox="-6.97 0 64 64" xmlns="http://www.w3.org/2000/svg">
  <g id="Group_65" data-name="Group 65" transform="translate(-606 -315)">
    <path id="Path_76" data-name="Path 76" d="M655.055,316l-.029,62-4-4-4,4-4-4-4,4-4-4-4,4-4-4-4,4-4-4-4,4-4-4L607,378l.027-62Z" fill="#e8f7f9" stroke="#333" stroke-linecap="round" stroke-linejoin="round" stroke-width="2"/>
    <line id="Line_85" data-name="Line 85" x1="23" transform="translate(619 364)" fill="none" stroke="#333" stroke-miterlimit="10" stroke-width="2"/>
    <line id="Line_86" data-name="Line 86" x1="23" transform="translate(619 326)" fill="none" stroke="#333" stroke-miterlimit="10" stroke-width="2"/>
    <g id="Group_64" data-name="Group 64">
      <line id="Line_87" data-name="Line 87" y2="25" transform="translate(631 332)" fill="#ffffff" stroke="#333" stroke-miterlimit="10" stroke-width="2"/>
      <g id="Group_63" data-name="Group 63">
        <path id="Path_77" data-name="Path 77" d="M631.092,344.5A4.753,4.753,0,1,1,636,339.75" fill="none" stroke="#333" stroke-miterlimit="10" stroke-width="2"/>
        <path id="Path_78" data-name="Path 78" d="M631.092,344.5a4.753,4.753,0,1,1-4.908,4.75" fill="none" stroke="#333" stroke-miterlimit="10" stroke-width="2"/>
      </g>
    </g>
  </g>
</svg>