<?xml version="1.0" ?>


<svg width="800px" height="800px" viewBox="0 0 281.25 281.25" id="svg2" version="1.1" xml:space="preserve" xmlns="http://www.w3.org/2000/svg" xmlns:cc="http://creativecommons.org/ns#" xmlns:dc="http://purl.org/dc/elements/1.1/" xmlns:rdf="http://www.w3.org/1999/02/22-rdf-syntax-ns#" xmlns:svg="http://www.w3.org/2000/svg">

<defs id="defs4"/>

<g id="layer1" transform="translate(6402.3564,-5538.5825)">

<path d="m -6250.952,5577.4217 a 4.6875,4.6875 0 0 0 -1.701,0.357 4.6879687,4.6879687 0 0 0 -0.4633,0.238 4.6875,4.6875 0 0 0 -1.0217,0.7306 4.6879687,4.6879687 0 0 0 -0.2747,0.1978 l -41.4605,45.3516 h -62.8913 a 4.6879687,4.6879687 0 0 0 -4.6875,4.6875 v 100.4479 a 4.6879687,4.6879687 0 0 0 4.6875,4.6875 h 62.8913 l 41.4605,45.3498 a 4.6879687,4.6879687 0 0 0 0.2783,0.1996 4.6875,4.6875 0 0 0 1.0126,0.7269 4.6879687,4.6879687 0 0 0 0.4743,0.2399 4.6875,4.6875 0 0 0 1.6955,0.357 h 52.2327 a 4.6875,4.6875 0 0 0 1.5893,-0.3168 4.6875,4.6875 0 0 0 0.3772,-0.1556 4.6875,4.6875 0 0 0 1.3495,-0.9009 4.6875,4.6875 0 0 0 0.9009,-1.3531 4.6875,4.6875 0 0 0 0.1538,-0.3662 4.6875,4.6875 0 0 0 0.3168,-1.5949 v -35.603 a 4.6875,4.6875 0 0 0 -4.6875,-4.6875 4.6875,4.6875 0 0 0 -4.6875,4.6875 v 30.9155 h -42.8577 v -56.9568 a 4.6875,4.6875 0 0 0 -4.6875,-4.6875 4.6875,4.6875 0 0 0 -4.6875,4.6875 v 49.5703 l -33.4808,-36.6192 v -96.8097 l 33.4808,-36.6193 v 49.5703 a 4.6875,4.6875 0 0 0 4.6875,4.6875 4.6875,4.6875 0 0 0 4.6875,-4.6875 v -56.9567 h 42.8577 v 30.9136 a 4.6875,4.6875 0 0 0 4.6875,4.6875 4.6875,4.6875 0 0 0 4.6875,-4.6875 v -35.6011 a 4.6875,4.6875 0 0 0 -0.044,-0.6061 4.6875,4.6875 0 0 0 -0.015,-0.1099 4.6875,4.6875 0 0 0 -0.119,-0.5566 4.6875,4.6875 0 0 0 -0.04,-0.1264 4.6875,4.6875 0 0 0 -0.1868,-0.498 4.6875,4.6875 0 0 0 -0.027,-0.066 4.6875,4.6875 0 0 0 -0.2747,-0.5054 4.6875,4.6875 0 0 0 -0.079,-0.1209 4.6875,4.6875 0 0 0 -0.3406,-0.4541 4.6875,4.6875 0 0 0 -0.064,-0.071 4.6875,4.6875 0 0 0 -0.3772,-0.379 4.6875,4.6875 0 0 0 -0.075,-0.068 4.6875,4.6875 0 0 0 -0.476,-0.3552 4.6875,4.6875 0 0 0 -0.079,-0.049 4.6875,4.6875 0 0 0 -0.5218,-0.2875 4.6875,4.6875 0 0 0 -0.09,-0.037 4.6875,4.6875 0 0 0 -0.4925,-0.1831 4.6875,4.6875 0 0 0 -0.097,-0.031 4.6875,4.6875 0 0 0 -0.5676,-0.1246 4.6875,4.6875 0 0 0 -0.1318,-0.016 4.6875,4.6875 0 0 0 -0.5896,-0.042 z m -103.125,56.25 h 55.5817 v 91.0729 h -55.5817 z m 160.2594,11.726 a 4.6875,4.6875 0 0 0 -4.6875,4.6875 v 24.4336 h -24.4336 a 4.6875,4.6875 0 0 0 -4.6875,4.6875 4.6875,4.6875 0 0 0 4.6875,4.6875 h 24.4336 v 24.4336 a 4.6875,4.6875 0 0 0 4.6875,4.6875 4.6875,4.6875 0 0 0 4.6875,-4.6875 v -24.4336 h 24.4318 a 4.6875,4.6875 0 0 0 4.6875,-4.6875 4.6875,4.6875 0 0 0 -4.6875,-4.6875 h -24.4318 v -24.4336 a 4.6875,4.6875 0 0 0 -4.6875,-4.6875 z" id="rect6032" style="color:#000000;fill:#3d3d3d;fill-opacity:1;fill-rule:evenodd;stroke-linecap:round;stroke-linejoin:round;-inkscape-stroke:none"/>

</g>

</svg>