<?xml version="1.0" ?>


<svg width="800px" height="800px" viewBox="0 0 281.25 281.25" id="svg2" version="1.1" xml:space="preserve" xmlns="http://www.w3.org/2000/svg" xmlns:cc="http://creativecommons.org/ns#" xmlns:dc="http://purl.org/dc/elements/1.1/" xmlns:rdf="http://www.w3.org/1999/02/22-rdf-syntax-ns#" xmlns:svg="http://www.w3.org/2000/svg">

<defs id="defs4"/>

<g id="layer1" transform="translate(7276.1064,-4899.0259)">

<path d="m -7229.8997,4937.7097 a 4.6879687,4.6879687 0 0 0 -4.6875,4.6875 v 197.5122 a 4.6879687,4.6879687 0 0 0 4.6856,4.6875 l 191.5174,0.031 a 4.6879687,4.6879687 0 0 0 4.6875,-4.8212 l -2.6807,-92.4133 a 4.6875,4.6875 0 0 0 -4.8193,-4.5484 4.6875,4.6875 0 0 0 -4.552,4.8212 l 2.5396,87.5867 -182.0031,-0.028 V 4947.084 h 85.0415 a 4.6875,4.6875 0 0 0 4.6875,-4.6875 4.6875,4.6875 0 0 0 -4.6875,-4.6875 z m 191.5173,0 a 4.6875,4.6875 0 0 0 -3.3142,1.3696 l -96.0498,96.0516 -1.095,-49.3029 a 4.6875,4.6875 0 0 0 -4.79,-4.5813 4.6875,4.6875 0 0 0 -4.5832,4.79 l 1.3404,60.2673 a 4.6875,4.6875 0 0 0 0.1117,0.6171 4.6875,4.6875 0 0 0 0.13,0.7233 4.6875,4.6875 0 0 0 0.095,0.2453 4.6875,4.6875 0 0 0 0.2032,0.3809 4.6875,4.6875 0 0 0 0.029,0.053 4.6875,4.6875 0 0 0 0.3369,0.6225 4.6875,4.6875 0 0 0 0.3205,0.3534 4.6875,4.6875 0 0 0 0.1446,0.2161 4.6875,4.6875 0 0 0 0.2179,0.1465 4.6875,4.6875 0 0 0 0.3498,0.3186 4.6875,4.6875 0 0 0 0.6445,0.3461 4.6875,4.6875 0 0 0 0.011,0.01 4.6875,4.6875 0 0 0 0.01,0 4.6875,4.6875 0 0 0 0.4046,0.2179 4.6875,4.6875 0 0 0 0.2381,0.09 4.6875,4.6875 0 0 0 0.7196,0.1319 4.6875,4.6875 0 0 0 0.6189,0.1117 h 0.1062 l 60.1611,1.3385 a 4.6875,4.6875 0 0 0 4.7919,-4.5831 4.6875,4.6875 0 0 0 -4.5831,-4.7901 l -49.2975,-1.0968 96.0461,-96.0461 a 4.6875,4.6875 0 0 0 0,-6.6321 4.6875,4.6875 0 0 0 -3.3142,-1.3696 z" id="path1554" style="color:#000000;fill:#3d3d3d;fill-opacity:1;fill-rule:evenodd;stroke-linecap:round;stroke-linejoin:round;-inkscape-stroke:none"/>

</g>

</svg>