<?xml version="1.0" ?>


<svg width="800px" height="800px" viewBox="0 0 281.25 281.25" id="svg2" version="1.1" xml:space="preserve" xmlns="http://www.w3.org/2000/svg" xmlns:cc="http://creativecommons.org/ns#" xmlns:dc="http://purl.org/dc/elements/1.1/" xmlns:rdf="http://www.w3.org/1999/02/22-rdf-syntax-ns#" xmlns:svg="http://www.w3.org/2000/svg">

<defs id="defs4"/>

<g id="layer1" transform="translate(7276.1064,-3399.5356)">

<path d="m -7135.4814,3441.3444 a 4.6875,4.6875 0 0 0 -0.042,0.01 4.6875,4.6875 0 0 0 -0.062,-0.01 4.6875,4.6875 0 0 0 -0.4907,0.075 4.6875,4.6875 0 0 0 -0.6189,0.097 4.6875,4.6875 0 0 0 -0.4028,0.1483 4.6875,4.6875 0 0 0 -0.3241,0.1337 4.6875,4.6875 0 0 0 -0.3955,0.1831 4.6875,4.6875 0 0 0 -0.5072,0.3699 4.6875,4.6875 0 0 0 -0.3955,0.2911 l -0.073,0.071 v 0 l -43.4894,41.5942 a 4.6875,4.6875 0 0 0 -0.1465,6.6284 4.6875,4.6875 0 0 0 6.6266,0.1483 l 35.636,-34.0887 v 135.835 a 4.6875,4.6875 0 0 0 4.6875,4.6875 4.6875,4.6875 0 0 0 4.6875,-4.6875 v -135.835 l 35.636,34.0887 a 4.6875,4.6875 0 0 0 6.6266,-0.1483 4.6875,4.6875 0 0 0 -0.1465,-6.6284 l -43.4784,-41.5851 a 4.6875,4.6875 0 0 0 -0.029,-0.027 l -0.057,-0.055 a 4.6875,4.6875 0 0 0 -0.051,-0.038 4.6875,4.6875 0 0 0 -0.6647,-0.5091 4.6875,4.6875 0 0 0 -0.1886,-0.1153 4.6875,4.6875 0 0 0 -0.1208,-0.075 4.6875,4.6875 0 0 0 -0.8515,-0.3534 4.6875,4.6875 0 0 0 -0.1538,-0.037 4.6875,4.6875 0 0 0 -0.1977,-0.048 4.6875,4.6875 0 0 0 -0.8203,-0.1081 4.6875,4.6875 0 0 0 -0.082,-0.013 4.6875,4.6875 0 0 0 -0.033,0 4.6875,4.6875 0 0 0 -0.071,-0.01 z m -95.1746,116.2848 a 4.6875,4.6875 0 0 0 -4.6875,4.6875 v 71.9732 a 4.6875,4.6875 0 0 0 0.564,2.1057 4.6875,4.6875 0 0 0 0.1831,0.3571 4.6875,4.6875 0 0 0 1.4795,1.4795 4.6875,4.6875 0 0 0 0.3571,0.1813 4.6875,4.6875 0 0 0 2.1038,0.5639 h 190.3492 a 4.6875,4.6875 0 0 0 2.1038,-0.5639 4.6875,4.6875 0 0 0 0.3571,-0.1813 4.6875,4.6875 0 0 0 1.4795,-1.4795 4.6875,4.6875 0 0 0 0.1831,-0.3571 4.6875,4.6875 0 0 0 0.564,-2.1057 v -71.9732 a 4.6875,4.6875 0 0 0 -4.6875,-4.6875 4.6875,4.6875 0 0 0 -4.6875,4.6875 v 67.2857 h -180.9742 v -67.2857 a 4.6875,4.6875 0 0 0 -4.6875,-4.6875 z" id="path1255" style="color:#000000;fill:#3d3d3d;fill-opacity:1;fill-rule:evenodd;stroke-linecap:round;stroke-linejoin:round;-inkscape-stroke:none"/>

</g>

</svg>