<?xml version="1.0" ?>


<svg width="800px" height="800px" viewBox="0 0 281.25 281.25" id="svg2" version="1.1" xml:space="preserve" xmlns="http://www.w3.org/2000/svg" xmlns:cc="http://creativecommons.org/ns#" xmlns:dc="http://purl.org/dc/elements/1.1/" xmlns:rdf="http://www.w3.org/1999/02/22-rdf-syntax-ns#" xmlns:svg="http://www.w3.org/2000/svg">

<defs id="defs4"/>

<g id="layer1" transform="translate(6402.3564,-4597.9898)">

<path d="m -6261.7314,4636.829 c -56.159,0 -101.7865,45.6275 -101.7865,101.7865 0,56.1591 45.6274,101.7847 101.7865,101.7847 56.1591,0 101.7865,-45.6256 101.7865,-101.7847 0,-56.159 -45.6275,-101.7865 -101.7865,-101.7865 z m 0,9.375 c 51.0924,0 92.4115,41.319 92.4115,92.4115 0,51.0925 -41.319,92.4097 -92.4115,92.4097 -51.0924,0 -92.4115,-41.3172 -92.4115,-92.4097 0,-51.0925 41.3191,-92.4115 92.4115,-92.4115 z m -34.9384,52.7838 a 4.6875,4.6875 0 0 0 -3.3142,1.3733 4.6875,4.6875 0 0 0 0,6.6284 l 31.6242,31.6242 -31.6242,31.6241 a 4.6875,4.6875 0 0 0 0,6.6303 4.6875,4.6875 0 0 0 6.6285,0 l 31.6241,-31.6242 31.6241,31.6242 a 4.6875,4.6875 0 0 0 6.6285,0 4.6875,4.6875 0 0 0 0,-6.6303 l -31.6242,-31.6223 31.6242,-31.6241 a 4.6875,4.6875 0 0 0 0,-6.6303 4.6875,4.6875 0 0 0 -3.3142,-1.3733 4.6875,4.6875 0 0 0 -3.3143,1.3733 l -31.6241,31.6241 -31.6241,-31.6241 a 4.6875,4.6875 0 0 0 -3.3143,-1.3733 z" id="circle1197" style="color:#000000;fill:#3d3d3d;fill-opacity:1;fill-rule:evenodd;stroke-linecap:round;stroke-linejoin:round;-inkscape-stroke:none"/>

</g>

</svg>