<?xml version="1.0" ?>


<svg width="800px" height="800px" viewBox="0 0 281.25 281.25" id="svg2" version="1.1" xml:space="preserve" xmlns="http://www.w3.org/2000/svg" xmlns:cc="http://creativecommons.org/ns#" xmlns:dc="http://purl.org/dc/elements/1.1/" xmlns:rdf="http://www.w3.org/1999/02/22-rdf-syntax-ns#" xmlns:svg="http://www.w3.org/2000/svg">

<defs id="defs4"/>

<g id="layer1" transform="translate(6693.6064,-3697.2496)">

<path d="m -6649.2778,3737.8013 a 4.6879687,4.6879687 0 0 0 -4.6875,4.6875 v 138.3252 a 4.6879687,4.6879687 0 0 0 4.6875,4.6875 h 54.4995 l 1.2982,47.8876 a 4.6879687,4.6879687 0 0 0 7.8937,3.2904 l 54.5215,-51.178 h 74.3793 a 4.6879687,4.6879687 0 0 0 4.6875,-4.6875 v -138.3252 a 4.6879687,4.6879687 0 0 0 -4.6875,-4.6875 z m 4.6875,9.375 h 183.2172 v 128.9502 h -71.5485 a 4.6875,4.6875 0 0 0 -0.1904,0.051 4.6875,4.6875 0 0 0 -2.016,0.5401 4.6875,4.6875 0 0 0 -0.3113,0.2106 4.6875,4.6875 0 0 0 -0.6903,0.4687 l -48.2629,45.3022 -1.1371,-42.0118 a 4.6875,4.6875 0 0 0 -0.022,-0.119 4.6875,4.6875 0 0 0 -0.2197,-1.1719 4.6875,4.6875 0 0 0 -0.068,-0.2233 4.6875,4.6875 0 0 0 -0.6079,-1.1206 4.6875,4.6875 0 0 0 -0.1703,-0.2088 4.6875,4.6875 0 0 0 -0.8953,-0.8459 4.6875,4.6875 0 0 0 -0.07,-0.059 4.6875,4.6875 0 0 0 -1.1737,-0.5585 4.6875,4.6875 0 0 0 -0.2637,-0.079 4.6875,4.6875 0 0 0 -1.1957,-0.1758 h -54.375 z" id="path3039" style="color:#000000;fill:#3d3d3d;fill-opacity:1;fill-rule:evenodd;stroke-linecap:round;stroke-linejoin:round;-inkscape-stroke:none"/>

</g>

</svg>