<?xml version="1.0" ?>


<svg width="800px" height="800px" viewBox="0 0 281.25 281.25" id="svg2" version="1.1" xml:space="preserve" xmlns="http://www.w3.org/2000/svg" xmlns:cc="http://creativecommons.org/ns#" xmlns:dc="http://purl.org/dc/elements/1.1/" xmlns:rdf="http://www.w3.org/1999/02/22-rdf-syntax-ns#" xmlns:svg="http://www.w3.org/2000/svg">

<defs id="defs4"/>

<g id="layer1" transform="translate(6402.3564,-5856.7805)">

<path d="m -6357.3802,5895.6187 a 4.6879687,4.6879687 0 0 0 -4.6875,4.6875 v 194.198 a 4.6879687,4.6879687 0 0 0 4.6875,4.6875 h 191.2976 a 4.6879687,4.6879687 0 0 0 4.6875,-4.6875 v -194.198 a 4.6879687,4.6879687 0 0 0 -4.6875,-4.6875 h -23.9117 -23.9118 a 4.6875,4.6875 0 0 0 -4.6875,4.6875 4.6875,4.6875 0 0 0 4.6875,4.6875 h 23.9118 19.2242 v 121.5417 h -45.9467 a 4.6879687,4.6879687 0 0 0 -4.6875,4.6875 v 21.427 h -80.6542 v -21.427 a 4.6879687,4.6879687 0 0 0 -4.6875,-4.6875 h -45.9467 v -121.5417 h 19.2242 23.9118 a 4.6875,4.6875 0 0 0 4.6875,-4.6875 4.6875,4.6875 0 0 0 -4.6875,-4.6875 h -23.9118 z m 95.6488,0.1849 a 4.6875,4.6875 0 0 0 -4.6875,4.6875 v 110.387 l -35.636,-34.0869 a 4.6875,4.6875 0 0 0 -3.3435,-1.2983 4.6875,4.6875 0 0 0 -3.2831,1.4466 4.6875,4.6875 0 0 0 0.1465,6.6266 l 43.4894,41.5942 v 0 l 0.073,0.071 a 4.6875,4.6875 0 0 0 0.509,0.3534 4.6875,4.6875 0 0 0 0.6097,0.423 4.6875,4.6875 0 0 0 0.2326,0.1044 4.6875,4.6875 0 0 0 0.4449,0.1336 4.6875,4.6875 0 0 0 0.7178,0.2143 4.6875,4.6875 0 0 0 0.4651,0.022 4.6875,4.6875 0 0 0 0.26,0.051 4.6875,4.6875 0 0 0 0.26,-0.051 4.6875,4.6875 0 0 0 0.4669,-0.022 4.6875,4.6875 0 0 0 0.7105,-0.2124 4.6875,4.6875 0 0 0 0.4559,-0.1374 4.6875,4.6875 0 0 0 0.2271,-0.1025 4.6875,4.6875 0 0 0 0.617,-0.4285 4.6875,4.6875 0 0 0 0.5017,-0.3479 l 0.07,-0.066 a 4.6875,4.6875 0 0 0 0.011,-0.011 l 43.4839,-41.5905 a 4.6875,4.6875 0 0 0 0.1465,-6.6266 4.6875,4.6875 0 0 0 -3.2831,-1.4466 4.6875,4.6875 0 0 0 -3.3435,1.2983 l -35.636,34.0869 v -110.387 a 4.6875,4.6875 0 0 0 -4.6875,-4.6875 z m -90.9613,140.1068 h 41.2592 v 21.427 a 4.6875,4.6875 0 0 0 0.3259,1.6388 4.6875,4.6875 0 0 0 0.2344,0.4596 4.6875,4.6875 0 0 0 0.65,0.9723 4.6875,4.6875 0 0 0 0.4065,0.4065 4.6875,4.6875 0 0 0 0.9723,0.65 4.6875,4.6875 0 0 0 0.4596,0.2344 4.6875,4.6875 0 0 0 1.6388,0.3259 h 90.0292 a 4.6875,4.6875 0 0 0 1.6388,-0.3259 4.6875,4.6875 0 0 0 0.4596,-0.2344 4.6875,4.6875 0 0 0 0.9723,-0.65 4.6875,4.6875 0 0 0 0.4065,-0.4065 4.6875,4.6875 0 0 0 0.65,-0.9723 4.6875,4.6875 0 0 0 0.2344,-0.4596 4.6875,4.6875 0 0 0 0.3259,-1.6388 v -21.427 h 41.2592 v 53.9063 h -181.9226 z" id="path1105-4-5" style="color:#000000;fill:#3d3d3d;fill-opacity:1;fill-rule:evenodd;stroke-linecap:round;stroke-linejoin:round;-inkscape-stroke:none"/>

</g>

</svg>