<?xml version="1.0" encoding="utf-8"?>


<svg version="1.1" id="Icons" xmlns="http://www.w3.org/2000/svg" xmlns:xlink="http://www.w3.org/1999/xlink" 
	 viewBox="0 0 32 32" xml:space="preserve">
<style type="text/css">
	.st0{fill:none;stroke:#000000;stroke-width:2;stroke-linecap:round;stroke-linejoin:round;stroke-miterlimit:10;}
	.st1{fill:none;stroke:#000000;stroke-width:2;stroke-linejoin:round;stroke-miterlimit:10;}
	.st2{fill:none;stroke:#000000;stroke-width:2;stroke-linecap:round;stroke-miterlimit:10;}
</style>
<path class="st0" d="M18,29H6c-1.6,0-3-1.3-3-3v0c0-1.6,1.3-3,3-3h12c1.6,0,3,1.3,3,3v0C21,27.7,19.7,29,18,29z"/>
<path class="st0" d="M15,11h-4v5H8c-2.2,0-4,1.8-4,4v0h7h8v-2v-2L15,11z"/>
<line class="st0" x1="7" y1="26" x2="7" y2="26"/>
<line class="st0" x1="17" y1="26" x2="17" y2="26"/>
<line class="st0" x1="12" y1="26" x2="12" y2="26"/>
<path class="st0" d="M22,16l7-2l-0.5,2.6C28.2,18,27,19,25.6,19h0c-1,0-1.9-0.5-2.5-1.3L22,16z"/>
<polyline class="st0" points="29,14 24,3 17,3 11,11 15,11 17,3 "/>
<line class="st0" x1="26" y1="14" x2="21" y2="3"/>
<line class="st0" x1="22" y1="14" x2="22" y2="16"/>
<path class="st0" d="M11,14h2.7l0,0c0.5,1.2,1.7,2,2.9,2H19"/>
</svg>