<?xml version="1.0" encoding="utf-8"?>


<svg version="1.1" id="Icons" xmlns="http://www.w3.org/2000/svg" xmlns:xlink="http://www.w3.org/1999/xlink" 
	 viewBox="0 0 32 32" xml:space="preserve">
<style type="text/css">
	.st0{fill:none;stroke:#000000;stroke-width:2;stroke-linecap:round;stroke-linejoin:round;stroke-miterlimit:10;}
	.st1{fill:none;stroke:#000000;stroke-width:2;stroke-linejoin:round;stroke-miterlimit:10;}
	.st2{fill:none;stroke:#000000;stroke-width:2;stroke-linecap:round;stroke-miterlimit:10;}
</style>
<path class="st0" d="M17.9,3.4c-2.1,0-4.2,0.9-5.8,2.5l0,0l-0.6,0.6l-3.6,3.6c-0.7,0.7-0.9,1.6-0.6,2.5l0,0l-1.5,1.5l-1.4-0.4
	l-1.5,1.5l3.7,3.7l1.5-1.5l-0.4-1.4l1.5-1.5l0,0c0.9,0.3,1.8,0,2.5-0.6l4.2-4.2l0,0c-0.2-2.1,0.5-4.2,2-5.7l0.5-0.5L17.9,3.4z"/>
<path class="st0" d="M28.2,26.8L28.2,26.8c-1,1-2.7,1-3.6-0.1L12.2,13.2l2.5-2.5l13.5,12.4C29.2,24.1,29.2,25.8,28.2,26.8z"/>
</svg>