<?xml version="1.0" ?>

<!DOCTYPE svg  PUBLIC '-//W3C//DTD SVG 1.1//EN'  'http://www.w3.org/Graphics/SVG/1.1/DTD/svg11.dtd'>


<svg fill="#000000" width="800px" height="800px" viewBox="0 0 512 512" version="1.1" xml:space="preserve" xmlns="http://www.w3.org/2000/svg" xmlns:xlink="http://www.w3.org/1999/xlink">

<g id="_x37_06-_locked__x2C__lock__x2C__security__x2C_">

<g>

<g>

<path d="M391.553,492.848l-0.185-0.001l-271.39-1.612c-8.215-0.048-15.937-3.314-21.742-9.196     c-5.801-5.877-8.968-13.637-8.92-21.85l1.206-202.835c0.101-16.884,13.938-30.62,30.845-30.62l0.184,0.001l271.39,1.613     c17.022,0.1,30.792,13.999,30.693,30.984l-1.207,202.84C422.327,479.086,408.478,492.848,391.553,492.848z M121.367,240.15     c-9.553,0-17.372,7.753-17.429,17.283l-1.206,202.834c-0.027,4.633,1.768,9.018,5.053,12.347     c3.285,3.328,7.644,5.177,12.272,5.204l271.495,1.612c9.57,0,17.401-7.778,17.458-17.338l1.207-202.84     c0.056-9.586-7.73-17.433-17.356-17.489L121.367,240.15z"/>

</g>

<g>

<path d="M386.822,152.612c-0.014,0-0.027,0-0.041,0c-3.705-0.021-6.69-3.043-6.668-6.748     c0.177-29.702-12.313-57.734-35.167-78.933c-23.017-21.349-53.759-33.213-86.562-33.406c-0.275-0.001-0.551-0.002-0.824-0.002     c-32.486,0-63.039,11.48-86.118,32.378c-23.113,20.929-35.939,48.811-36.116,78.51c-0.022,3.69-3.021,6.668-6.707,6.668     c-0.014,0-0.027,0-0.041,0c-3.705-0.021-6.69-3.043-6.668-6.748c0.199-33.506,14.592-64.892,40.527-88.375     c25.768-23.332,59.875-36.086,96.027-35.847c36.169,0.213,70.122,13.349,95.606,36.986c25.645,23.786,39.658,55.34,39.459,88.849     C393.508,149.635,390.508,152.612,386.822,152.612z"/>

</g>

<g>

<path d="M128.088,240.185c-0.014,0-0.027,0-0.041,0c-3.705-0.021-6.69-3.043-6.668-6.748l0.531-89.105     c0.022-3.691,3.021-6.668,6.707-6.668c0.014,0,0.027,0,0.041,0c3.705,0.021,6.69,3.043,6.668,6.748l-0.531,89.105     C134.773,237.208,131.774,240.185,128.088,240.185z"/>

</g>

<g>

<path d="M386.291,241.724c-0.014,0-0.027,0-0.041,0c-3.705-0.021-6.69-3.043-6.668-6.748l0.531-89.111     c0.021-3.691,3.021-6.668,6.707-6.668c0.014,0,0.027,0,0.041,0c3.705,0.021,6.69,3.043,6.668,6.748l-0.531,89.111     C392.977,238.747,389.977,241.724,386.291,241.724z"/>

</g>

<g>

<path d="M256.313,393.666c-0.007,0-0.014,0-0.021,0c-3.705-0.011-6.699-3.023-6.688-6.729l0.031-10.422     c0.011-3.697,3.013-6.688,6.708-6.688c0.007,0,0.014,0,0.021,0c3.705,0.011,6.699,3.023,6.688,6.729l-0.031,10.422     C263.01,390.676,260.009,393.666,256.313,393.666z"/>

</g>

<g>

<path d="M256.538,366.47c-0.012,0-0.117-0.001-0.129-0.001c-12.852-0.079-23.239-10.59-23.161-23.431     c0.074-12.762,10.521-23.146,23.289-23.146l0.146,0.001c6.219,0.033,12.057,2.493,16.435,6.927     c4.371,4.427,6.758,10.285,6.722,16.495C279.762,356.083,269.309,366.47,256.538,366.47z M256.605,333.31     c-5.48,0-9.91,4.4-9.941,9.809c-0.033,5.445,4.374,9.9,9.823,9.935l0.051,6.708v-6.708c5.417,0,9.853-4.404,9.886-9.817     c0.015-2.628-0.998-5.11-2.853-6.988C261.715,334.367,259.241,333.324,256.605,333.31z"/>

</g>

</g>

</g>

<g id="Layer_1"/>

</svg>