<?xml version="1.0" ?>

<!DOCTYPE svg  PUBLIC '-//W3C//DTD SVG 1.1//EN'  'http://www.w3.org/Graphics/SVG/1.1/DTD/svg11.dtd'>


<svg fill="#000000" width="800px" height="800px" viewBox="0 0 512 512" version="1.1" xml:space="preserve" xmlns="http://www.w3.org/2000/svg" xmlns:xlink="http://www.w3.org/1999/xlink">

<g id="_x37_11-_menu__x2C__ui__x2C__user_interface__x2C_">

<g>

<g>

<path d="M486.25,118.43H162.314c-3.705,0-6.708-3.003-6.708-6.708s3.003-6.708,6.708-6.708H486.25     c3.705,0,6.708,3.003,6.708,6.708S489.955,118.43,486.25,118.43z"/>

</g>

<g>

<path d="M486.25,263.185H162.314c-3.705,0-6.708-3.003-6.708-6.708s3.003-6.708,6.708-6.708H486.25     c3.705,0,6.708,3.003,6.708,6.708S489.955,263.185,486.25,263.185z"/>

</g>

<g>

<path d="M486.25,407.998H162.314c-3.705,0-6.708-3.003-6.708-6.708s3.003-6.708,6.708-6.708H486.25     c3.705,0,6.708,3.003,6.708,6.708S489.955,407.998,486.25,407.998z"/>

</g>

<g>

<path d="M45.129,136.845c-13.861,0-25.138-11.27-25.138-25.123c0-13.86,11.277-25.136,25.138-25.136     c13.877,0,25.167,11.275,25.167,25.136C70.296,125.575,59.006,136.845,45.129,136.845z M45.129,100.002     c-6.463,0-11.721,5.258-11.721,11.72c0,6.455,5.258,11.707,11.721,11.707c6.479,0,11.75-5.252,11.75-11.707     C56.879,105.26,51.608,100.002,45.129,100.002z"/>

</g>

<g>

<path d="M45.129,281.605c-13.861,0-25.138-11.272-25.138-25.129s11.277-25.129,25.138-25.129     c13.877,0,25.167,11.272,25.167,25.129S59.006,281.605,45.129,281.605z M45.129,244.764c-6.463,0-11.721,5.255-11.721,11.713     s5.258,11.713,11.721,11.713c6.479,0,11.75-5.255,11.75-11.713S51.608,244.764,45.129,244.764z"/>

</g>

<g>

<path d="M45.129,426.367c-13.861,0-25.138-11.249-25.138-25.077c0-13.885,11.277-25.18,25.138-25.18     c13.877,0,25.167,11.295,25.167,25.18C70.296,415.118,59.006,426.367,45.129,426.367z M45.129,389.526     c-6.463,0-11.721,5.277-11.721,11.764c0,6.43,5.258,11.661,11.721,11.661c6.479,0,11.75-5.231,11.75-11.661     C56.879,394.804,51.608,389.526,45.129,389.526z"/>

</g>

</g>

</g>

<g id="Layer_1"/>

</svg>