<?xml version="1.0" ?>

<!DOCTYPE svg  PUBLIC '-//W3C//DTD SVG 1.1//EN'  'http://www.w3.org/Graphics/SVG/1.1/DTD/svg11.dtd'>


<svg fill="#000000" width="800px" height="800px" viewBox="0 0 512 512" version="1.1" xml:space="preserve" xmlns="http://www.w3.org/2000/svg" xmlns:xlink="http://www.w3.org/1999/xlink">

<g id="_x37_07-_unlock__x2C__security_x2C___security__x2C_">

<g>

<g>

<path d="M388.941,492.847h-264.9c-15.016,0-27.233-12.209-27.233-27.217V293.464c0-15.008,12.217-27.217,27.233-27.217h264.9     c14.998,0,27.199,12.209,27.199,27.217V465.63C416.141,480.638,403.939,492.847,388.941,492.847z M124.041,279.663     c-7.618,0-13.816,6.191-13.816,13.801V465.63c0,7.609,6.198,13.801,13.816,13.801h264.9c7.6,0,13.783-6.191,13.783-13.801     V293.464c0-7.609-6.184-13.801-13.783-13.801H124.041z"/>

</g>

<g>

<path d="M380.011,146.738c-3.705,0-6.708-3.003-6.708-6.708c0-58.729-52.409-106.508-116.828-106.508     c-64.404,0-116.8,47.779-116.8,106.508c0,3.705-3.003,6.708-6.708,6.708s-6.708-3.003-6.708-6.708     c0-66.126,58.416-119.924,130.217-119.924c71.817,0,130.244,53.798,130.244,119.924     C386.719,143.735,383.716,146.738,380.011,146.738z"/>

</g>

<g>

<path d="M380.011,279.663c-3.705,0-6.708-3.003-6.708-6.708V140.03c0-3.705,3.003-6.708,6.708-6.708s6.708,3.003,6.708,6.708     v132.925C386.719,276.66,383.716,279.663,380.011,279.663z"/>

</g>

<g>

<path d="M260.32,414.762c-3.705,0-6.708-3.003-6.708-6.708v-9.972c0-3.705,3.003-6.708,6.708-6.708     c3.705,0,6.709,3.003,6.709,6.708v9.972C267.029,411.759,264.025,414.762,260.32,414.762z"/>

</g>

<g>

<path d="M260.32,388.737c-12.452,0-22.582-10.129-22.582-22.58c0-12.444,10.13-22.567,22.582-22.567     c12.449,0,22.577,10.123,22.577,22.567C282.897,378.608,272.77,388.737,260.32,388.737z M260.32,357.006     c-5.054,0-9.165,4.105-9.165,9.151c0,5.053,4.111,9.164,9.165,9.164c5.051,0,9.16-4.111,9.16-9.164     C269.48,361.111,265.371,357.006,260.32,357.006z"/>

</g>

</g>

</g>

<g id="Layer_1"/>

</svg>