<?xml version="1.0" ?>
<svg fill="#000000" width="800px" height="800px" viewBox="0 0 64 64" data-name="Layer 1" id="Layer_1" xmlns="http://www.w3.org/2000/svg"><title/><path d="M61,17H3a1,1,0,0,0-1,1V46a1,1,0,0,0,1,1H61a1,1,0,0,0,1-1V18A1,1,0,0,0,61,17ZM4,19H9.929A7.018,7.018,0,0,1,4,24.929ZM4,45V39.071A7.018,7.018,0,0,1,9.929,45Zm56,0H54.071A7.018,7.018,0,0,1,60,39.071Zm0-7.941A9.013,9.013,0,0,0,52.059,45H11.941A9.013,9.013,0,0,0,4,37.059V26.941A9.013,9.013,0,0,0,11.941,19H52.059A9.013,9.013,0,0,0,60,26.941Zm0-12.13A7.018,7.018,0,0,1,54.071,19H60Z"/><path d="M37.15,29.527l1.7-1.054A7.515,7.515,0,0,0,33,25.036V23H31v2.133A7.132,7.132,0,0,0,25,32a7.132,7.132,0,0,0,6,6.867V41h2V38.964a7.515,7.515,0,0,0,5.85-3.437l-1.7-1.054A5.493,5.493,0,0,1,33,36.965v-9.93A5.493,5.493,0,0,1,37.15,29.527ZM31,36.818a4.9,4.9,0,0,1,0-9.636Z"/></svg>