<?xml version="1.0" ?>
<svg fill="#000000" width="800px" height="800px" viewBox="0 0 64 64" data-name="Layer 1" id="Layer_1" xmlns="http://www.w3.org/2000/svg"><title/><path d="M38,37H36a1,1,0,0,0,0,2h2a1,1,0,0,0,0-2Z"/><path d="M61,17H3a1,1,0,0,0-1,1V46a1,1,0,0,0,1,1H61a1,1,0,0,0,1-1V18A1,1,0,0,0,61,17ZM4,19H9.929A7.018,7.018,0,0,1,4,24.929ZM4,45V39.071A7.018,7.018,0,0,1,9.929,45Zm56,0H54.071A7.018,7.018,0,0,1,60,39.071Zm0-7.941A9.013,9.013,0,0,0,52.059,45H11.941A9.013,9.013,0,0,0,4,37.059V26.941A9.013,9.013,0,0,0,11.941,19H52.059A9.013,9.013,0,0,0,60,26.941Zm0-12.13A7.018,7.018,0,0,1,54.071,19H60Z"/><path d="M37,30c0-3.364-1.757-6-4-6a3.067,3.067,0,0,0-2,.785V24H29V42h2V35.215A3.067,3.067,0,0,0,33,36C35.243,36,37,33.364,37,30Zm-4,4c-.944,0-2-1.711-2-4s1.056-4,2-4,2,1.711,2,4S33.944,34,33,34Z"/></svg>