<?xml version="1.0" ?>
<svg fill="#000000" width="800px" height="800px" viewBox="0 0 64 64" data-name="Layer 1" id="Layer_1" xmlns="http://www.w3.org/2000/svg"><title/><path d="M61,17H3a1,1,0,0,0-1,1V46a1,1,0,0,0,1,1H61a1,1,0,0,0,1-1V18A1,1,0,0,0,61,17ZM4,19H9.929A7.018,7.018,0,0,1,4,24.929ZM4,45V39.071A7.018,7.018,0,0,1,9.929,45Zm56,0H54.071A7.018,7.018,0,0,1,60,39.071Zm0-7.941A9.013,9.013,0,0,0,52.059,45H11.941A9.013,9.013,0,0,0,4,37.059V26.941A9.013,9.013,0,0,0,11.941,19H52.059A9.013,9.013,0,0,0,60,26.941Zm0-12.13A7.018,7.018,0,0,1,54.071,19H60Z"/><path d="M33,25V23H31v2H29a1,1,0,0,0-1,1V38a1,1,0,0,0,1,1h2v2h2V39a3,3,0,0,0,3-3V34a2.981,2.981,0,0,0-.78-2A2.981,2.981,0,0,0,36,30V28A3,3,0,0,0,33,25ZM31,37H30V33h1Zm0-6H30V27h1Zm3,5a1,1,0,0,1-1,1V33a1,1,0,0,1,1,1Zm0-6a1,1,0,0,1-1,1V27a1,1,0,0,1,1,1Z"/></svg>