<?xml version="1.0" ?>


<svg width="800px" height="800px" viewBox="0 0 64 64" xmlns="http://www.w3.org/2000/svg">

<defs>

<style>.cls-1{fill:#396041;}.cls-2{fill:#4c8056;}.cls-3{fill:#ccc;}.cls-4{fill:#f2f2f2;}.cls-5{fill:#559264;}.cls-6{fill:#71c285;}.cls-7{fill:#cc4b4c;}.cls-8{fill:#4482c3;}.cls-9{fill:#849eb4;}.cls-10{fill:#b0d3f0;}.cls-11{fill:#98856e;}.cls-12{fill:#cbb292;}.cls-13{fill:#5f443e;}.cls-14{fill:none;stroke:#000000;stroke-linejoin:round;stroke-width:2px;}</style>

</defs>

<title/>

<g data-name="Layer 29" id="Layer_29">

<rect class="cls-1" height="12" width="60" x="2" y="2"/>

<rect class="cls-2" height="12" width="57" x="2" y="2"/>

<rect class="cls-3" height="8" width="20" x="22" y="6"/>

<rect class="cls-4" height="8" width="17" x="22" y="6"/>

<rect class="cls-5" height="6" width="56" x="4" y="14"/>

<rect class="cls-6" height="6" width="53" x="4" y="14"/>

<rect class="cls-3" height="38" width="52" x="6" y="20"/>

<rect class="cls-4" height="38" width="49" x="6" y="20"/>

<polygon class="cls-7" points="52 32 44 32 46 26 50 26 52 32"/>

<rect class="cls-8" height="6" width="8" x="12" y="26"/>

<polygon class="cls-5" points="35 49 29 49 27 45 37 45 35 49"/>

<polygon class="cls-6" points="27 45 29 49 32 49 34 45 27 45"/>

<rect class="cls-9" height="13" width="12" x="26" y="26"/>

<rect class="cls-10" height="13" width="9" x="26" y="26"/>

<rect class="cls-11" height="22" width="12" x="42" y="36"/>

<rect class="cls-12" height="22" width="9" x="42" y="36"/>

<rect class="cls-11" height="22" width="12" x="10" y="36"/>

<rect class="cls-12" height="22" width="9" x="10" y="36"/>

<rect class="cls-13" height="8" width="4" x="18" y="41"/>

<rect class="cls-13" height="8" width="4" x="50" y="41"/>

<rect class="cls-1" height="4" width="60" x="2" y="58"/>

<rect class="cls-2" height="4" width="57" x="2" y="58"/>

<rect class="cls-14" height="12" width="60" x="2" y="2"/>

<rect class="cls-14" height="4" width="60" x="2" y="58"/>

<polyline class="cls-14" points="4 14 4 20 60 20 60 14"/>

<polyline class="cls-14" points="22 14 22 6 42 6 42 14"/>

<line class="cls-14" x1="6" x2="6" y1="20" y2="58"/>

<line class="cls-14" x1="58" x2="58" y1="20" y2="58"/>

<rect class="cls-14" height="22" width="12" x="10" y="36"/>

<rect class="cls-14" height="6" width="8" x="12" y="26"/>

<polygon class="cls-14" points="52 32 44 32 46 26 50 26 52 32"/>

<line class="cls-14" x1="16" x2="16" y1="29" y2="32"/>

<polyline class="cls-14" points="22 41 18 41 18 49 22 49"/>

<rect class="cls-14" height="22" width="12" x="42" y="36"/>

<polyline class="cls-14" points="54 41 50 41 50 49 54 49"/>

<line class="cls-14" x1="25" x2="38" y1="10" y2="10"/>

<rect class="cls-14" height="13" width="12" x="26" y="26"/>

<line class="cls-14" x1="29" x2="33" y1="33" y2="29"/>

<line class="cls-14" x1="31" x2="35" y1="36" y2="32"/>

<polygon class="cls-14" points="35 49 29 49 27 45 37 45 35 49"/>

<line class="cls-14" x1="32" x2="32" y1="45" y2="42"/>

<polyline class="cls-14" points="32 49 32 53 35 53"/>

</g>

</svg>