<?xml version="1.0" ?>


<svg width="800px" height="800px" viewBox="0 0 64 64" xmlns="http://www.w3.org/2000/svg">

<defs>

<style>.cls-1{fill:#336292;}.cls-2{fill:#4482c3;}.cls-3{fill:#98856e;}.cls-4{fill:#cbb292;}.cls-5{fill:#559264;}.cls-6{fill:#71c285;}.cls-7{fill:#ccc;}.cls-8{fill:#f2f2f2;}.cls-9{fill:#4c8056;}.cls-10{fill:#b49313;}.cls-11{fill:#f0c419;}.cls-12{fill:none;stroke:#000000;stroke-linejoin:round;stroke-width:2px;}</style>

</defs>

<title/>

<g data-name="Layer 14" id="Layer_14">

<path class="cls-1" d="M4,2H30a2,2,0,0,1,2,2V62a0,0,0,0,1,0,0H2a0,0,0,0,1,0,0V4A2,2,0,0,1,4,2Z"/>

<path class="cls-2" d="M26,2H4A2,2,0,0,0,2,4V62H28V4A2,2,0,0,0,26,2Z"/>

<path class="cls-3" d="M22,2h8a2,2,0,0,1,2,2V18a0,0,0,0,1,0,0H22a0,0,0,0,1,0,0V2A0,0,0,0,1,22,2Z"/>

<path class="cls-4" d="M27,2H22V18h7V4A2,2,0,0,0,27,2Z"/>

<rect class="cls-3" height="4" width="6" x="22" y="22"/>

<rect class="cls-4" height="4" width="3" x="22" y="22"/>

<rect class="cls-5" height="6" width="8" x="8" y="26"/>

<rect class="cls-6" height="6" width="5" x="8" y="26"/>

<rect class="cls-3" height="4" width="12" x="6" y="22"/>

<rect class="cls-4" height="4" width="9" x="6" y="22"/>

<rect class="cls-7" height="12" width="12" x="6" y="6"/>

<rect class="cls-8" height="12" width="9" x="6" y="6"/>

<rect class="cls-3" height="22" width="22" x="6" y="36"/>

<rect class="cls-4" height="22" width="19" x="6" y="36"/>

<rect class="cls-9" height="16" width="34" x="28" y="40"/>

<rect class="cls-6" height="16" width="34" x="22" y="46"/>

<polygon class="cls-8" points="28 58 50 58 50 56 52 56 52 52 50 52 50 50 28 50 28 52 26 52 26 56 28 56 28 58"/>

<circle class="cls-10" cx="39" cy="54" r="4"/>

<ellipse class="cls-11" cx="37.5" cy="54" rx="2.5" ry="3.7"/>

<path class="cls-12" d="M19,62H2V4A2,2,0,0,1,4,2H30a2,2,0,0,1,2,2V40"/>

<rect class="cls-12" height="12" width="12" x="6" y="6"/>

<line class="cls-12" x1="25" x2="29" y1="6" y2="6"/>

<line class="cls-12" x1="25" x2="29" y1="10" y2="10"/>

<line class="cls-12" x1="25" x2="29" y1="14" y2="14"/>

<rect class="cls-12" height="4" width="12" x="6" y="22"/>

<polyline class="cls-12" points="8 26 8 32 16 32 16 26"/>

<polyline class="cls-12" points="22 2 22 18 32 18"/>

<rect class="cls-12" height="4" width="6" x="22" y="22"/>

<polyline class="cls-12" points="22 58 6 58 6 36 28 36 28 40"/>

<line class="cls-12" x1="10" x2="10" y1="43" y2="47"/>

<rect class="cls-12" height="16" width="34" x="22" y="46"/>

<polyline class="cls-12" points="28 46 28 40 62 40 62 56 56 56"/>

<polygon class="cls-12" points="28 58 50 58 50 56 52 56 52 52 50 52 50 50 28 50 28 52 26 52 26 56 28 56 28 58"/>

<circle class="cls-12" cx="39" cy="54" r="4"/>

<path class="cls-12" d="M35,10H49a3,3,0,0,1,3,3h0a3,3,0,0,1-3,3H45a3,3,0,0,0-3,3h0a3,3,0,0,0,3,3h3a4,4,0,0,1,4,4v8"/>

<polyline class="cls-12" points="48 30 52 34 56 30"/>

</g>

</svg>