<?xml version="1.0" ?>


<svg width="800px" height="800px" viewBox="0 0 64 64" xmlns="http://www.w3.org/2000/svg">

<defs>

<style>.cls-1{fill:#993839;}.cls-2{fill:#cc4b4c;}.cls-3{fill:#f0c419;}.cls-4{fill:#b49313;}.cls-5{fill:#849eb4;}.cls-6{fill:#b0d3f0;}.cls-7{fill:#98856e;}.cls-8{fill:#cbb292;}.cls-9{fill:#4d4d4d;}.cls-10{fill:#666;}.cls-11{fill:#5f443e;}.cls-12{fill:#7f5b53;}.cls-13{fill:none;stroke:#000000;stroke-linejoin:round;stroke-width:2px;}</style>

</defs>

<title/>

<g data-name="Layer 27" id="Layer_27">

<path class="cls-1" d="M19,2H45a1,1,0,0,1,1,1v7a0,0,0,0,1,0,0H18a0,0,0,0,1,0,0V3A1,1,0,0,1,19,2Z"/>

<path class="cls-2" d="M42,2H19a1,1,0,0,0-1,1v7H43V3A1,1,0,0,0,42,2Z"/>

<path class="cls-3" d="M54,20h4a2,2,0,0,1,2,2v2a2,2,0,0,1-2,2H54"/>

<path class="cls-3" d="M10,20H6a2,2,0,0,0-2,2v2a2,2,0,0,0,2,2h4"/>

<path class="cls-4" d="M8,30l3.68-18.39a2,2,0,0,1,2-1.61H50.36a2,2,0,0,1,2,1.61L56,30"/>

<path class="cls-3" d="M47.36,10H13.64a2,2,0,0,0-2,1.61L8,30H53L49.32,11.61A2,2,0,0,0,47.36,10Z"/>

<polygon class="cls-5" points="56 30 52.8 14 11.2 14 8 30 56 30"/>

<path class="cls-6" d="M11.2,14,8,30H53L49.8,14Z"/>

<path class="cls-4" d="M4,42V32a2,2,0,0,1,2-2H58a2,2,0,0,1,2,2V42"/>

<path class="cls-3" d="M55,30H6a2,2,0,0,0-2,2V42H57V32A2,2,0,0,0,55,30Z"/>

<rect class="cls-1" height="4" rx="2" ry="2" width="8" x="48" y="34"/>

<path class="cls-2" d="M53,36a2,2,0,0,0-2-2H50a2,2,0,0,0,0,4h1A2,2,0,0,0,53,36Z"/>

<rect class="cls-1" height="4" rx="2" ry="2" width="8" x="8" y="34"/>

<path class="cls-2" d="M13,36a2,2,0,0,0-2-2H10a2,2,0,0,0,0,4h1A2,2,0,0,0,13,36Z"/>

<rect class="cls-7" height="8" width="24" x="20" y="34"/>

<rect class="cls-8" height="8" width="21" x="20" y="34"/>

<path class="cls-7" d="M20,48v2a2,2,0,0,0,2,2H42a2,2,0,0,0,2-2V48"/>

<path class="cls-8" d="M41,50V48H20v2a2,2,0,0,0,2,2H39A2,2,0,0,0,41,50Z"/>

<rect class="cls-3" height="6" width="60" x="2" y="56"/>

<path class="cls-9" d="M48,48v6a2,2,0,0,0,2,2h6a2,2,0,0,0,2-2V48"/>

<path class="cls-10" d="M55,54V48H48v6a2,2,0,0,0,2,2h3A2,2,0,0,0,55,54Z"/>

<path class="cls-9" d="M6,48v6a2,2,0,0,0,2,2h6a2,2,0,0,0,2-2V48"/>

<path class="cls-10" d="M13,54V48H6v6a2,2,0,0,0,2,2h3A2,2,0,0,0,13,54Z"/>

<rect class="cls-11" height="6" width="60" x="2" y="42"/>

<rect class="cls-12" height="6" width="57" x="2" y="42"/>

<rect class="cls-13" height="6" width="60" x="2" y="42"/>

<path class="cls-13" d="M6,48v6a2,2,0,0,0,2,2h6a2,2,0,0,0,2-2V48"/>

<path class="cls-13" d="M48,48v6a2,2,0,0,0,2,2h6a2,2,0,0,0,2-2V48"/>

<path class="cls-13" d="M4,42V32a2,2,0,0,1,2-2H58a2,2,0,0,1,2,2V42"/>

<path class="cls-13" d="M8,30l3.68-18.39a2,2,0,0,1,2-1.61H50.36a2,2,0,0,1,2,1.61L56,30"/>

<path class="cls-13" d="M19,2H45a1,1,0,0,1,1,1v7a0,0,0,0,1,0,0H18a0,0,0,0,1,0,0V3A1,1,0,0,1,19,2Z"/>

<rect class="cls-13" height="4" rx="2" ry="2" width="8" x="8" y="34"/>

<rect class="cls-13" height="4" rx="2" ry="2" width="8" x="48" y="34"/>

<polyline class="cls-13" points="20 42 20 34 44 34 44 42"/>

<line class="cls-13" x1="23" x2="41" y1="38" y2="38"/>

<line class="cls-13" x1="11" x2="53" y1="14" y2="14"/>

<rect class="cls-13" height="6" width="60" x="2" y="56"/>

<line class="cls-13" x1="21" x2="43" y1="6" y2="6"/>

<path class="cls-13" d="M20,48v2a2,2,0,0,0,2,2H42a2,2,0,0,0,2-2V48"/>

<line class="cls-13" x1="32" x2="32" y1="14" y2="30"/>

<line class="cls-13" x1="36" x2="42" y1="25" y2="19"/>

<line class="cls-13" x1="44" x2="50" y1="25" y2="19"/>

<line class="cls-13" x1="14" x2="20" y1="25" y2="19"/>

<line class="cls-13" x1="22" x2="28" y1="25" y2="19"/>

<path class="cls-13" d="M54,20h4a2,2,0,0,1,2,2v2a2,2,0,0,1-2,2H55"/>

<path class="cls-13" d="M10,20H6a2,2,0,0,0-2,2v2a2,2,0,0,0,2,2H9"/>

<line class="cls-13" x1="6" x2="9" y1="52" y2="52"/>

<line class="cls-13" x1="16" x2="13" y1="52" y2="52"/>

<line class="cls-13" x1="48" x2="51" y1="52" y2="52"/>

<line class="cls-13" x1="58" x2="55" y1="52" y2="52"/>

<line class="cls-13" x1="4" x2="10" y1="62" y2="56"/>

<line class="cls-13" x1="14" x2="20" y1="62" y2="56"/>

<line class="cls-13" x1="24" x2="30" y1="62" y2="56"/>

<line class="cls-13" x1="34" x2="40" y1="62" y2="56"/>

<line class="cls-13" x1="44" x2="50" y1="62" y2="56"/>

<line class="cls-13" x1="54" x2="60" y1="62" y2="56"/>

</g>

</svg>