<?xml version="1.0" ?>
<svg width="800px" height="800px" viewBox="0 0 1000 1000" data-name="Layer 2" id="Layer_2" xmlns="http://www.w3.org/2000/svg"><defs><style>.cls-1{fill:none;stroke:#020202;stroke-linecap:round;stroke-miterlimit:10;stroke-width:22px;}</style></defs><path class="cls-1" d="M327.81,223.28c99.71-62.05,227.71-66.34,332.42-7.05"/><path class="cls-1" d="M726.86,266.09c119.23,115.34,133.46,304.64,27.92,437C642.6,843.83,437.6,867,296.88,754.78S133,437.6,245.22,296.88Q254.69,285,265,274.27"/><line class="cls-1" x1="688.32" x2="367.86" y1="321.41" y2="723.38"/><line class="cls-1" x1="632.14" x2="311.68" y1="276.62" y2="678.59"/><path class="cls-1" d="M311.68,678.59c-87.87-92.42-96.34-237.82-14.6-340.36s225.38-126.68,335.06-61.61"/><path class="cls-1" d="M367.86,723.38c81.93,48.61,182.82,47.43,262.69,1"/><path class="cls-1" d="M688.32,321.41c87.72,92.26,96.31,237.33,15,339.83"/></svg>