<?xml version="1.0" ?>
<svg width="800px" height="800px" viewBox="0 0 1000 1000" data-name="Layer 2" id="Layer_2" xmlns="http://www.w3.org/2000/svg"><defs><style>.cls-1{fill:none;stroke:#020202;stroke-linecap:round;stroke-miterlimit:10;stroke-width:22px;}</style></defs><line class="cls-1" x1="258.04" x2="258.04" y1="783.4" y2="216.6"/><polyline class="cls-1" points="741.96 783.4 741.96 766.24 741.96 705.66"/><polyline class="cls-1" points="741.96 592.57 741.96 234.81 741.96 216.6"/><path class="cls-1" d="M258,212.81c40.33,0,40.33,44,80.65,44s40.33-44,80.65-44,40.33,44,80.65,44,40.33-44,80.66-44,40.32,44,80.65,44,40.33-44,80.66-44"/><path class="cls-1" d="M742,788.24c-40.33,0-40.33-44-80.65-44s-40.33,44-80.65,44-40.33-44-80.65-44-40.33,44-80.66,44-40.32-44-80.65-44-40.33,44-80.66,44"/><line class="cls-1" x1="337.11" x2="502.55" y1="370.24" y2="370.24"/><line class="cls-1" x1="554.64" x2="662.89" y1="370.24" y2="370.24"/><line class="cls-1" x1="337.11" x2="502.55" y1="500" y2="500"/><line class="cls-1" x1="554.64" x2="662.89" y1="500" y2="500"/><line class="cls-1" x1="337.11" x2="502.55" y1="629.76" y2="629.76"/><path d="M601.79,698.87V689a44,44,0,0,1-17.68-5.53,30.62,30.62,0,0,1-12-12.67,35.1,35.1,0,0,1-3.45-10.74,8.42,8.42,0,0,1,8.14-9.7h0a8.41,8.41,0,0,1,8.52,6.85,23.13,23.13,0,0,0,2.51,7.32,18.58,18.58,0,0,0,8.41,8A27.7,27.7,0,0,0,608.06,675a30.47,30.47,0,0,0,12.81-2.44,18.32,18.32,0,0,0,8.14-7,19.94,19.94,0,0,0,2.83-10.8,18.58,18.58,0,0,0-2.39-9.41,22.76,22.76,0,0,0-7.67-7.58,62.93,62.93,0,0,0-13.8-6.27,79.74,79.74,0,0,1-19.6-8.62,32.32,32.32,0,0,1-16-29.27q0-14.37,8.28-23.44t22.74-10.88V547a6.88,6.88,0,0,1,6.88-6.89h0a6.88,6.88,0,0,1,6.88,6.89V559.4q14.55,2.1,22.6,12.5a38.77,38.77,0,0,1,7.33,18,8.58,8.58,0,0,1-8.46,9.92h0a8.49,8.49,0,0,1-8.42-7,27.48,27.48,0,0,0-4.91-12.13q-5.45-7.32-15.2-7.32-10.27,0-15.42,5.36t-5.13,14.68a19.93,19.93,0,0,0,2.26,9.71,21,21,0,0,0,7.58,7.45A72,72,0,0,0,614,617a84.1,84.1,0,0,1,19.6,8.85,33.65,33.65,0,0,1,11.58,12q3.84,7,3.84,16.82,0,15-9,23.86T615.38,689v9.85a6.79,6.79,0,0,1-6.79,6.79h0A6.79,6.79,0,0,1,601.79,698.87Z"/></svg>