<?xml version="1.0" ?>
<svg width="800px" height="800px" viewBox="0 0 1000 1000" data-name="Layer 2" id="Layer_2" xmlns="http://www.w3.org/2000/svg"><defs><style>.cls-1{fill:none;stroke:#020202;stroke-linecap:round;stroke-miterlimit:10;stroke-width:22px;}</style></defs><path class="cls-1" d="M695.91,177.67H575.22a26.14,26.14,0,0,0-26.31,26V376.85h-.09v81.06a.91.91,0,0,0,1.57.62l70.6-76a1.94,1.94,0,0,1,2.85,0l70.6,76a.91.91,0,0,0,1.57-.62V376.85h-.1V250.78"/><path class="cls-1" d="M760.55,724.69a3.27,3.27,0,0,1-1.53.38H338.61a3.3,3.3,0,0,1-3.29-3.29V181a3.29,3.29,0,0,1,3.29-3.3H759a3.3,3.3,0,0,1,3.3,3.3V577.26"/><path class="cls-1" d="M311.85,177.67h23.47a0,0,0,0,1,0,0v547.4a0,0,0,0,1,0,0H237.68a0,0,0,0,1,0,0V251.84A74.17,74.17,0,0,1,311.85,177.67Z"/><path class="cls-1" d="M762.31,822l-450.46.37a74.17,74.17,0,0,1-74.17-74.17V724.69H762.31"/><path class="cls-1" d="M762.31,822a48.82,48.82,0,0,1,0-96.9"/></svg>