<?xml version="1.0" ?>


<svg fill="#000000" width="800px" height="800px" viewBox="0 0 52 52" data-name="Layer 1" id="Layer_1" xmlns="http://www.w3.org/2000/svg">

<path d="M50,4H2A2,2,0,0,1,2,0H50a2,2,0,0,1,0,4Z"/>

<g data-name="Group 132" id="Group_132">

<path d="M43.07,51.29a2,2,0,0,1-1.42-.59,2,2,0,0,1,0-2.82l4.1-4.1-4.1-4.1a2,2,0,0,1,2.83-2.83L50,42.37a2,2,0,0,1,0,2.82L44.48,50.7A2,2,0,0,1,43.07,51.29Z"/>

</g>

<g data-name="Group 132" id="Group_132-2">

<path d="M8.93,51.29a2,2,0,0,1-1.41-.59L2,45.19a2,2,0,0,1,0-2.82l5.51-5.52a2,2,0,0,1,2.83,2.83l-4.1,4.1,4.1,4.1a2,2,0,0,1,0,2.82A2,2,0,0,1,8.93,51.29Z"/>

</g>

<path d="M50,16.35H2a2,2,0,0,1,0-4H50a2,2,0,0,1,0,4Z"/>

<path d="M50,28.71H2a2,2,0,0,1,0-4H50a2,2,0,0,1,0,4Z"/>

</svg>